<svg width="54" height="48" viewBox="0 0 54 48" fill="none" xmlns="http://www.w3.org/2000/svg">
<mask id="mask0_1_34047" style="mask-type:alpha" maskUnits="userSpaceOnUse" x="3" y="6" width="48" height="36">
<path d="M3.56934 15.1356C4.16681 10.4125 8.0415 7.00193 12.7861 6.60887C16.6412 6.28949 21.6196 6 27 6C32.3804 6 37.3588 6.28949 41.2139 6.60887C45.9585 7.00193 49.8332 10.4125 50.4307 15.1356C50.752 17.6759 51 20.704 51 24C51 27.296 50.752 30.3241 50.4307 32.8644C49.8332 37.5875 45.9585 40.9981 41.2139 41.3911C37.3588 41.7105 32.3804 42 27 42C21.6196 42 16.6412 41.7105 12.7861 41.3911C8.0415 40.9981 4.16681 37.5875 3.56934 32.8644C3.248 30.3241 3 27.296 3 24C3 20.704 3.248 17.6759 3.56934 15.1356Z" fill="#00D0BF"/>
</mask>
<g mask="url(#mask0_1_34047)">
<rect x="3" y="6" width="48" height="36" fill="#75AAFA"/>
<path d="M14.1791 14.8209L13 11L11.8209 14.8209L8 16L11.8209 17.1791L13 21L14.1791 17.1791L18 16L14.1791 14.8209Z" fill="#EE5757" stroke="white" stroke-width="0.377303" stroke-miterlimit="10"/>
<rect x="3" y="34" width="48" height="2" fill="#FCD95E"/>
<rect x="3" y="30" width="48" height="2" fill="#FCD95E"/>
</g>
</svg>
