<svg width="54" height="48" viewBox="0 0 54 48" fill="none" xmlns="http://www.w3.org/2000/svg">
<mask id="mask0_1_40561" style="mask-type:alpha" maskUnits="userSpaceOnUse" x="3" y="6" width="48" height="36">
<path d="M3.56934 15.1356C4.16681 10.4125 8.0415 7.00193 12.7861 6.60887C16.6412 6.28949 21.6196 6 27 6C32.3804 6 37.3588 6.28949 41.2139 6.60887C45.9585 7.00193 49.8332 10.4125 50.4307 15.1356C50.752 17.6759 51 20.704 51 24C51 27.296 50.752 30.3241 50.4307 32.8644C49.8332 37.5875 45.9585 40.9981 41.2139 41.3911C37.3588 41.7105 32.3804 42 27 42C21.6196 42 16.6412 41.7105 12.7861 41.3911C8.0415 40.9981 4.16681 37.5875 3.56934 32.8644C3.248 30.3241 3 27.296 3 24C3 20.704 3.248 17.6759 3.56934 15.1356Z" fill="#00D0BF"/>
</mask>
<g mask="url(#mask0_1_40561)">
<rect x="3" y="6" width="48" height="36" fill="#EE5757"/>
<rect x="3" y="24" width="48" height="18" fill="#2C2929"/>
<path fill-rule="evenodd" clip-rule="evenodd" d="M22.7692 18.7264H24.8044L25.4216 16.8082L26.0554 18.7264H28.0904L26.4556 19.9442L27.0893 21.8957L25.4216 20.7113L23.7703 21.8957L24.404 19.9442L22.7692 18.7264Z" fill="#FCD95E"/>
<path fill-rule="evenodd" clip-rule="evenodd" d="M30.2087 29.2188L28.6076 27.9674C30.2253 26.6498 31.2765 24.6314 31.2765 22.3796C31.2765 18.9435 28.8246 16.0576 25.5884 15.3737L25.8385 14.206C26.289 14.3061 26.8174 14.4957 27.2511 14.6456L27.6682 13.9454C28.1181 14.162 28.619 14.3788 29.0357 14.6456L28.7189 15.3965C29.1361 15.6635 29.6395 16.0769 29.9195 16.4024L30.5459 15.9132C30.8796 16.28 31.28 16.6634 31.5636 17.0641L30.9964 17.6479C31.3627 18.1856 31.5043 18.433 31.7742 19.0524L32.57 18.8658C32.7203 19.3328 32.9485 19.9045 33.0321 20.3881L32.2786 20.6842C32.3686 21.06 32.4851 21.7164 32.4776 22.2686C32.477 22.3018 32.4745 22.3394 32.4745 22.3729L33.2614 22.4851C33.2281 22.969 33.2116 23.5196 33.1112 24.0032H32.294C32.1773 24.5034 32.0268 25.1152 31.8435 25.582L32.5271 25.9826C32.3104 26.4162 32.0939 26.9334 31.8102 27.3504L31.0596 27.0337C30.7758 27.4505 30.4592 27.8507 30.1088 28.2179L30.5924 28.8516C30.4592 28.9682 30.3423 29.0852 30.2087 29.2187V29.2188ZM26.6894 29.0686L27.8987 29.7973C27.7859 29.9004 27.4481 30.0753 27.3586 30.1107L27.5563 30.8698C27.0894 31.0202 26.5888 31.2368 26.072 31.337L25.7718 30.5865C25.2881 30.6864 24.8045 30.7531 24.304 30.7531L24.2037 31.537C23.7368 31.5038 23.1696 31.537 22.6525 31.4203V30.6366C22.1853 30.5529 21.735 30.4363 21.3015 30.286L20.9177 30.9704C20.5174 30.8032 19.9837 30.603 19.5498 30.3363L19.8335 29.5857C19.483 29.402 19.1662 29.1686 18.866 28.9348L19.6166 27.984C20.8511 28.9683 22.4022 29.5518 24.1037 29.5518C25.0046 29.5518 25.8884 29.402 26.6894 29.0686" fill="#FCD95E"/>
<path fill-rule="evenodd" clip-rule="evenodd" d="M31.7301 31.002L23.747 24.9267L23.6743 25.0304L31.6368 31.1163L31.1642 31.7076L23.402 26.7288C21.3003 25.4111 21.3838 24.377 21.8175 23.2594L22.1845 22.3586C22.3847 23.5263 23.5855 24.4106 24.8365 25.3945L31.8856 30.8096L31.7301 31.002ZM33.7342 32.8126C33.7179 32.8126 33.7018 32.8094 33.6867 32.8032C33.6717 32.7969 33.658 32.7878 33.6465 32.7762C33.635 32.7647 33.6259 32.7509 33.6197 32.7359C33.6135 32.7208 33.6103 32.7046 33.6104 32.6883C33.6104 32.6721 33.6136 32.6559 33.6198 32.6409C33.626 32.6259 33.6351 32.6122 33.6466 32.6007C33.6581 32.5892 33.6718 32.58 33.6868 32.5738C33.7019 32.5676 33.718 32.5644 33.7342 32.5644C33.8029 32.5644 33.8587 32.6199 33.8587 32.6883C33.8587 32.7047 33.8555 32.7208 33.8492 32.7359C33.843 32.751 33.8338 32.7648 33.8222 32.7763C33.8107 32.7879 33.797 32.797 33.7819 32.8033C33.7668 32.8095 33.7506 32.8127 33.7342 32.8127V32.8126ZM33.2571 32.4623C33.2242 32.4623 33.1927 32.4492 33.1694 32.4259C33.1461 32.4027 33.133 32.3711 33.1329 32.3382C33.1329 32.3136 33.1402 32.2896 33.1538 32.2692C33.1674 32.2488 33.1868 32.2328 33.2095 32.2234C33.2322 32.214 33.2572 32.2115 33.2813 32.2163C33.3053 32.2211 33.3275 32.2329 33.3449 32.2503C33.3622 32.2676 33.3741 32.2898 33.3789 32.3139C33.3837 32.3379 33.3812 32.3629 33.3718 32.3856C33.3625 32.4083 33.3465 32.4277 33.3261 32.4414C33.3057 32.455 33.2817 32.4623 33.2571 32.4623ZM32.7689 32.0732C32.7005 32.0732 32.6447 32.0177 32.6447 31.9493C32.6457 31.917 32.6592 31.8864 32.6824 31.8639C32.7055 31.8414 32.7366 31.8288 32.7689 31.8288C32.8012 31.8288 32.8322 31.8414 32.8554 31.8639C32.8785 31.8864 32.892 31.917 32.893 31.9493C32.893 32.0177 32.8375 32.0732 32.7689 32.0732ZM34.4104 32.7619L32.0185 30.9088L31.3234 31.8045L33.4013 33.2616C33.5682 33.3783 33.5846 33.9125 34.2015 33.996C34.4521 34.0291 34.6185 33.8455 34.6185 33.8455C34.8873 33.5182 34.814 33.0677 34.4104 32.7619" fill="#FCD95E"/>
</g>
</svg>
