<svg width="54" height="54" viewBox="0 0 54 54" fill="none" xmlns="http://www.w3.org/2000/svg">
<mask id="mask0_1_40561" style="mask-type:alpha" maskUnits="userSpaceOnUse" x="3" y="9" width="48" height="36">
<path d="M3.56934 18.1356C4.16681 13.4125 8.0415 10.0019 12.7861 9.60887C16.6412 9.28949 21.6196 9 27 9C32.3804 9 37.3588 9.28949 41.2139 9.60887C45.9585 10.0019 49.8332 13.4125 50.4307 18.1356C50.752 20.6759 51 23.704 51 27C51 30.296 50.752 33.3241 50.4307 35.8644C49.8332 40.5875 45.9585 43.9981 41.2139 44.3911C37.3588 44.7105 32.3804 45 27 45C21.6196 45 16.6412 44.7105 12.7861 44.3911C8.04151 43.9981 4.16681 40.5875 3.56934 35.8644C3.248 33.3241 3 30.296 3 27C3 23.704 3.248 20.6759 3.56934 18.1356Z" fill="#00D0BF"/>
</mask>
<g mask="url(#mask0_1_40561)">
<rect x="3" y="9" width="48" height="36" fill="#EE5757"/>
<rect x="3" y="27" width="48" height="18" fill="#2C2929"/>
<path fill-rule="evenodd" clip-rule="evenodd" d="M22.7692 21.7264H24.8044L25.4216 19.8082L26.0554 21.7264H28.0904L26.4556 22.9442L27.0893 24.8957L25.4216 23.7113L23.7703 24.8957L24.404 22.9442L22.7692 21.7264Z" fill="#FCD95E"/>
<path fill-rule="evenodd" clip-rule="evenodd" d="M30.2087 32.2188L28.6076 30.9674C30.2253 29.6498 31.2765 27.6314 31.2765 25.3796C31.2765 21.9435 28.8246 19.0576 25.5884 18.3737L25.8385 17.206C26.289 17.3061 26.8174 17.4957 27.2511 17.6456L27.6682 16.9454C28.1181 17.162 28.619 17.3788 29.0357 17.6456L28.7189 18.3965C29.1361 18.6635 29.6395 19.0769 29.9195 19.4024L30.5459 18.9132C30.8796 19.28 31.28 19.6634 31.5636 20.0641L30.9964 20.6479C31.3627 21.1856 31.5043 21.433 31.7742 22.0524L32.57 21.8658C32.7203 22.3328 32.9485 22.9045 33.0321 23.3881L32.2786 23.6842C32.3686 24.06 32.4851 24.7164 32.4776 25.2686C32.477 25.3018 32.4745 25.3394 32.4745 25.3729L33.2614 25.4851C33.2281 25.969 33.2116 26.5196 33.1112 27.0032H32.294C32.1773 27.5034 32.0268 28.1152 31.8435 28.582L32.5271 28.9826C32.3104 29.4161 32.0939 29.9334 31.8102 30.3504L31.0596 30.0337C30.7758 30.4505 30.4592 30.8507 30.1088 31.2179L30.5924 31.8516C30.4592 31.9682 30.3423 32.0852 30.2087 32.2187V32.2188ZM26.6894 32.0686L27.8987 32.7973C27.7859 32.9004 27.4481 33.0753 27.3586 33.1107L27.5563 33.8698C27.0894 34.0202 26.5888 34.2368 26.072 34.337L25.7718 33.5865C25.2881 33.6864 24.8045 33.7531 24.304 33.7531L24.2037 34.537C23.7368 34.5038 23.1696 34.537 22.6525 34.4203V33.6366C22.1853 33.5529 21.735 33.4363 21.3015 33.286L20.9177 33.9704C20.5174 33.8032 19.9837 33.603 19.5498 33.3363L19.8335 32.5857C19.483 32.402 19.1662 32.1686 18.866 31.9348L19.6166 30.984C20.8511 31.9683 22.4022 32.5518 24.1037 32.5518C25.0046 32.5518 25.8884 32.402 26.6894 32.0686" fill="#FCD95E"/>
<path fill-rule="evenodd" clip-rule="evenodd" d="M31.7301 34.002L23.747 27.9267L23.6743 28.0304L31.6368 34.1163L31.1641 34.7076L23.402 29.7288C21.3003 28.4111 21.3838 27.377 21.8175 26.2594L22.1845 25.3586C22.3847 26.5263 23.5855 27.4106 24.8365 28.3945L31.8856 33.8096L31.7301 34.002ZM33.7342 35.8126C33.7179 35.8126 33.7018 35.8094 33.6867 35.8032C33.6717 35.7969 33.658 35.7878 33.6465 35.7762C33.635 35.7647 33.6259 35.7509 33.6197 35.7359C33.6135 35.7208 33.6103 35.7046 33.6104 35.6883C33.6104 35.6721 33.6136 35.6559 33.6198 35.6409C33.626 35.6259 33.6351 35.6122 33.6466 35.6007C33.6581 35.5892 33.6718 35.58 33.6868 35.5738C33.7019 35.5676 33.718 35.5644 33.7342 35.5644C33.8029 35.5644 33.8587 35.6199 33.8587 35.6883C33.8587 35.7047 33.8555 35.7208 33.8492 35.7359C33.843 35.751 33.8338 35.7648 33.8222 35.7763C33.8107 35.7879 33.797 35.797 33.7819 35.8033C33.7668 35.8095 33.7506 35.8127 33.7342 35.8127V35.8126ZM33.2571 35.4623C33.2242 35.4623 33.1927 35.4492 33.1694 35.4259C33.1461 35.4027 33.133 35.3711 33.1329 35.3382C33.1329 35.3136 33.1402 35.2896 33.1538 35.2692C33.1674 35.2488 33.1868 35.2328 33.2095 35.2234C33.2322 35.214 33.2572 35.2115 33.2813 35.2163C33.3053 35.2211 33.3275 35.2329 33.3449 35.2503C33.3622 35.2676 33.3741 35.2898 33.3789 35.3139C33.3837 35.3379 33.3812 35.3629 33.3718 35.3856C33.3625 35.4083 33.3465 35.4277 33.3261 35.4414C33.3057 35.455 33.2817 35.4623 33.2571 35.4623V35.4623ZM32.7689 35.0732C32.7005 35.0732 32.6447 35.0177 32.6447 34.9493C32.6457 34.917 32.6592 34.8864 32.6824 34.8639C32.7055 34.8414 32.7366 34.8288 32.7689 34.8288C32.8012 34.8288 32.8322 34.8414 32.8554 34.8639C32.8785 34.8864 32.892 34.917 32.893 34.9493C32.893 35.0177 32.8375 35.0732 32.7689 35.0732ZM34.4104 35.7619L32.0185 33.9088L31.3234 34.8045L33.4013 36.2616C33.5682 36.3783 33.5846 36.9125 34.2015 36.996C34.4521 37.0291 34.6185 36.8455 34.6185 36.8455C34.8873 36.5182 34.814 36.0677 34.4104 35.7619" fill="#FCD95E"/>
</g>
</svg>
