<svg width="54" height="54" viewBox="0 0 54 54" fill="none" xmlns="http://www.w3.org/2000/svg">
<mask id="mask0_1_34140" style="mask-type:alpha" maskUnits="userSpaceOnUse" x="3" y="9" width="48" height="36">
<path d="M3.56934 18.1356C4.16681 13.4125 8.0415 10.0019 12.7861 9.60887C16.6412 9.28949 21.6196 9 27 9C32.3804 9 37.3588 9.28949 41.2139 9.60887C45.9585 10.0019 49.8332 13.4125 50.4307 18.1356C50.752 20.6759 51 23.704 51 27C51 30.296 50.752 33.3241 50.4307 35.8644C49.8332 40.5875 45.9585 43.9981 41.2139 44.3911C37.3588 44.7105 32.3804 45 27 45C21.6196 45 16.6412 44.7105 12.7861 44.3911C8.04151 43.9981 4.16681 40.5875 3.56934 35.8644C3.248 33.3241 3 30.296 3 27C3 23.704 3.248 20.6759 3.56934 18.1356Z" fill="#00D0BF"/>
</mask>
<g mask="url(#mask0_1_34140)">
<rect x="3" y="9" width="48" height="36" fill="#2E50A6"/>
<path d="M33 19.3428C33 26.8023 33.5951 29.4511 35.6367 31.4963C37.6783 33.5415 38.4518 33.8636 39.0211 34.1769C39.6778 33.8155 40.4344 33.4184 42.2848 31.568C44.1149 29.7378 45 27.0996 45 19.2154C43.6688 19.7854 43.0059 19.9731 41.8417 19.9698C40.9795 20.0543 39.6494 19.5018 38.8541 19.1404C38.3343 19.4713 37.5802 19.866 36.2251 19.9103C34.6601 19.9759 34.1642 19.7231 33 19.3428L33 19.3428Z" fill="#CCCC33"/>
<path d="M33.3605 19.8139C33.3605 22.1217 33.224 25.2669 33.7116 27.0866C34.2013 28.9141 34.3137 29.1818 34.682 29.8196L43.2631 29.7559C43.7932 28.8378 43.8199 28.2691 44.213 26.802C44.6047 25.3402 44.7036 22.0817 44.7151 19.6547C43.8522 20.092 42.7222 20.4019 41.6254 20.2659C40.7461 20.202 39.9337 20.0106 38.9877 19.5009C38.167 19.9696 37.8809 20.1836 36.5258 20.2383C35.4707 20.2879 34.616 20.3694 33.3605 19.8139L33.3605 19.8139Z" fill="white"/>
<path d="M34.7005 29.769C35.3112 30.9943 38.1905 33.3428 39.0326 33.829C39.9933 33.2743 42.5335 30.9536 43.2415 29.769H34.7004H34.7005Z" fill="#99CCFF"/>
<path d="M39.1969 23.2306C39.4683 23.8391 40.3382 24.511 40.5773 24.8403C40.2729 25.1695 40.2121 25.1337 40.252 25.7454C40.7813 25.2174 40.7908 25.1624 41.1313 25.2424C41.877 25.9519 41.2647 27.4757 40.6484 27.807C40.0322 28.1604 40.144 27.7948 39.2205 28.2377C39.6439 28.5829 40.1346 28.1871 40.5355 28.2928C40.7534 28.5393 40.4319 28.9884 40.6013 29.4114C40.9556 29.3789 40.913 28.6969 40.9955 28.4496C41.2544 27.5436 42.8106 26.9117 42.8898 26.0807C43.2179 25.9338 43.5459 26.0348 43.9449 26.2483C43.7461 25.4698 43.0888 25.4782 42.9126 25.235C42.4932 24.624 42.1215 23.9269 41.2257 23.7461C40.5457 23.6088 40.5965 23.7874 40.1608 23.504C39.8894 23.3026 39.065 22.9217 39.1969 23.2306L39.1969 23.2306Z" fill="#FF9900"/>
<path d="M37.0225 25.8119C37.4601 25.2989 37.6768 24.2517 37.8705 23.8963C38.318 23.9991 38.3132 24.0671 38.8619 23.7477C38.1249 23.5482 38.0695 23.5659 37.9847 23.2415C38.2943 22.2814 39.9935 22.0857 40.5886 22.4505C41.2042 22.8048 40.8129 22.8814 41.6551 23.453C41.7774 22.9348 41.1811 22.7061 41.092 22.3187C41.2187 22.0199 41.7854 22.0811 42.0986 21.7407C41.9029 21.4572 41.2903 21.8117 41.0224 21.8577C40.0613 22.0627 38.7483 21.0461 37.9406 21.3676C37.6511 21.1596 37.5915 20.836 37.6032 20.3999C36.9739 20.9311 37.2888 21.4813 37.1456 21.7434C36.7748 22.3824 36.3021 23.0214 36.5528 23.861C36.7432 24.4983 36.8851 24.372 36.8258 24.8717C36.7658 25.1945 36.7976 26.0674 37.0225 25.8119V25.8119Z" fill="#FF9900"/>
<path d="M40.5774 26.1726C39.8906 26.081 38.8385 26.4458 38.4192 26.4717C38.28 26.0533 38.3436 26.0221 37.773 25.7396C37.9751 26.4441 38.0197 26.4802 37.7724 26.7172C36.7504 26.9612 35.6957 25.676 35.7153 25.0017C35.7149 24.3162 35.9861 24.5959 36.0635 23.613C35.5351 23.7813 35.6382 24.3861 35.3366 24.6593C35.0028 24.7104 34.7646 24.2164 34.2971 24.1369C34.1438 24.4432 34.7789 24.7597 34.9588 24.9544C35.64 25.6326 35.4066 27.2298 36.113 27.7225C36.0761 28.0663 35.8164 28.2823 35.4189 28.4984C36.2212 28.737 36.5522 28.1955 36.8616 28.1768C37.627 28.1487 38.4451 28.2039 39.0691 27.565C39.5427 27.08 39.356 27.0296 39.8352 26.8194C40.1561 26.7014 40.9231 26.2239 40.5774 26.1726L40.5774 26.1726Z" fill="#FF9900"/>
<path d="M41.0112 24.0577C41.0895 24.0577 41.153 23.9972 41.153 23.9226C41.153 23.848 41.0895 23.7875 41.0112 23.7875C40.933 23.7875 40.8695 23.848 40.8695 23.9226C40.8695 23.9972 40.933 24.0577 41.0112 24.0577Z" fill="white"/>
<path d="M36.942 23.8962C36.9054 23.8302 36.8197 23.805 36.7505 23.8398C36.6813 23.8747 36.6548 23.9564 36.6914 24.0224C36.7279 24.0884 36.8137 24.1136 36.8829 24.0788C36.9521 24.0439 36.9786 23.9622 36.942 23.8962Z" fill="white"/>
<path d="M38.8994 27.2292C38.859 27.2932 38.8807 27.3762 38.9478 27.4146C39.0149 27.4531 39.102 27.4324 39.1423 27.3684C39.1826 27.3044 39.1609 27.2214 39.0938 27.183C39.0267 27.1445 38.9397 27.1652 38.8994 27.2292Z" fill="white"/>
<mask id="mask1_1_34140" style="mask-type:alpha" maskUnits="userSpaceOnUse" x="3" y="9" width="24" height="18">
<rect x="3" y="9" width="24" height="18" fill="#C4C4C4"/>
</mask>
<g mask="url(#mask1_1_34140)">
<path d="M3 9L27 27L3 9ZM27 9L3 27Z" fill="black"/>
<path d="M27 9L3 27M3 9L27 27L3 9Z" stroke="white" stroke-width="2.4"/>
<path d="M3 9L27 27L3 9ZM27 9L3 27Z" fill="black"/>
<path d="M27 9L3 27M3 9L27 27L3 9Z" stroke="#EE5757" stroke-width="1.6"/>
<path d="M15 9V30V9ZM3 18H31Z" fill="black"/>
<path d="M3 18H31M15 9V30V9Z" stroke="white" stroke-width="4"/>
<path d="M15 9V30V9ZM3 18H31Z" fill="black"/>
<path d="M3 18H31M15 9V30V9Z" stroke="#EE5757" stroke-width="2.4"/>
</g>
</g>
</svg>
