<svg width="54" height="48" viewBox="0 0 54 48" fill="none" xmlns="http://www.w3.org/2000/svg">
<mask id="mask0_1_34140" style="mask-type:alpha" maskUnits="userSpaceOnUse" x="3" y="6" width="48" height="36">
<path d="M3.56934 15.1356C4.16681 10.4125 8.0415 7.00193 12.7861 6.60887C16.6412 6.28949 21.6196 6 27 6C32.3804 6 37.3588 6.28949 41.2139 6.60887C45.9585 7.00193 49.8332 10.4125 50.4307 15.1356C50.752 17.6759 51 20.704 51 24C51 27.296 50.752 30.3241 50.4307 32.8644C49.8332 37.5875 45.9585 40.9981 41.2139 41.3911C37.3588 41.7105 32.3804 42 27 42C21.6196 42 16.6412 41.7105 12.7861 41.3911C8.0415 40.9981 4.16681 37.5875 3.56934 32.8644C3.248 30.3241 3 27.296 3 24C3 20.704 3.248 17.6759 3.56934 15.1356Z" fill="#00D0BF"/>
</mask>
<g mask="url(#mask0_1_34140)">
<rect x="3" y="6" width="48" height="36" fill="#2E50A6"/>
<path d="M33 16.3428C33 23.8023 33.5951 26.4511 35.6367 28.4963C37.6783 30.5415 38.4518 30.8636 39.0211 31.1769C39.6778 30.8155 40.4344 30.4184 42.2848 28.568C44.1149 26.7378 45 24.0996 45 16.2154C43.6688 16.7854 43.0059 16.9731 41.8417 16.9698C40.9795 17.0543 39.6494 16.5018 38.8541 16.1404C38.3343 16.4713 37.5802 16.866 36.2251 16.9103C34.6601 16.9759 34.1642 16.7231 33 16.3428L33 16.3428Z" fill="#CCCC33"/>
<path d="M33.3605 16.8139C33.3605 19.1217 33.224 22.2669 33.7116 24.0866C34.2013 25.9141 34.3137 26.1818 34.682 26.8196L43.2631 26.7559C43.7932 25.8378 43.8199 25.2691 44.213 23.802C44.6047 22.3402 44.7036 19.0817 44.7151 16.6547C43.8522 17.092 42.7222 17.4019 41.6254 17.2659C40.7461 17.202 39.9337 17.0106 38.9877 16.5009C38.167 16.9696 37.8809 17.1836 36.5258 17.2383C35.4707 17.2879 34.616 17.3694 33.3605 16.8139L33.3605 16.8139Z" fill="white"/>
<path d="M34.7005 26.769C35.3112 27.9943 38.1905 30.3428 39.0326 30.829C39.9933 30.2743 42.5335 27.9536 43.2415 26.769H34.7004H34.7005Z" fill="#99CCFF"/>
<path d="M39.1969 20.2306C39.4683 20.8391 40.3382 21.511 40.5773 21.8403C40.2729 22.1695 40.2121 22.1337 40.252 22.7454C40.7813 22.2174 40.7908 22.1624 41.1313 22.2424C41.877 22.9519 41.2647 24.4757 40.6484 24.807C40.0322 25.1604 40.144 24.7948 39.2205 25.2377C39.6439 25.5829 40.1346 25.1871 40.5355 25.2928C40.7534 25.5393 40.4319 25.9884 40.6013 26.4114C40.9556 26.3789 40.913 25.6969 40.9955 25.4496C41.2544 24.5436 42.8106 23.9117 42.8898 23.0807C43.2179 22.9338 43.5459 23.0348 43.9449 23.2483C43.7461 22.4698 43.0888 22.4782 42.9126 22.235C42.4932 21.624 42.1215 20.9269 41.2257 20.7461C40.5457 20.6088 40.5965 20.7874 40.1608 20.504C39.8894 20.3026 39.065 19.9217 39.1969 20.2306L39.1969 20.2306Z" fill="#FF9900"/>
<path d="M37.0225 22.8119C37.4601 22.2989 37.6768 21.2517 37.8705 20.8963C38.318 20.9991 38.3132 21.0671 38.8619 20.7477C38.1249 20.5482 38.0695 20.5659 37.9847 20.2415C38.2943 19.2814 39.9935 19.0857 40.5886 19.4505C41.2042 19.8048 40.8129 19.8814 41.6551 20.453C41.7774 19.9348 41.1811 19.7061 41.092 19.3187C41.2187 19.0199 41.7854 19.0811 42.0986 18.7407C41.9029 18.4572 41.2903 18.8117 41.0224 18.8577C40.0613 19.0627 38.7483 18.0461 37.9406 18.3676C37.6511 18.1596 37.5915 17.836 37.6032 17.3999C36.9739 17.9311 37.2888 18.4813 37.1456 18.7434C36.7748 19.3824 36.3021 20.0214 36.5528 20.861C36.7432 21.4983 36.8851 21.372 36.8258 21.8717C36.7658 22.1945 36.7976 23.0674 37.0225 22.8119V22.8119Z" fill="#FF9900"/>
<path d="M40.5774 23.1726C39.8906 23.081 38.8385 23.4458 38.4192 23.4717C38.28 23.0533 38.3436 23.0221 37.773 22.7396C37.9751 23.4441 38.0197 23.4802 37.7724 23.7172C36.7504 23.9612 35.6957 22.676 35.7153 22.0017C35.7149 21.3162 35.9861 21.5959 36.0635 20.613C35.5351 20.7813 35.6382 21.3861 35.3366 21.6593C35.0028 21.7104 34.7646 21.2164 34.2971 21.1369C34.1438 21.4432 34.7789 21.7597 34.9588 21.9544C35.64 22.6326 35.4066 24.2298 36.113 24.7225C36.0761 25.0663 35.8164 25.2823 35.4189 25.4984C36.2212 25.737 36.5522 25.1955 36.8616 25.1768C37.627 25.1487 38.4451 25.2039 39.0691 24.565C39.5427 24.08 39.356 24.0296 39.8352 23.8194C40.1561 23.7014 40.9231 23.2239 40.5774 23.1726L40.5774 23.1726Z" fill="#FF9900"/>
<path d="M41.0112 21.0577C41.0895 21.0577 41.153 20.9972 41.153 20.9226C41.153 20.848 41.0895 20.7875 41.0112 20.7875C40.933 20.7875 40.8695 20.848 40.8695 20.9226C40.8695 20.9972 40.933 21.0577 41.0112 21.0577Z" fill="white"/>
<path d="M36.942 20.8962C36.9054 20.8302 36.8197 20.805 36.7505 20.8398C36.6813 20.8747 36.6548 20.9564 36.6914 21.0224C36.7279 21.0884 36.8137 21.1136 36.8829 21.0788C36.9521 21.0439 36.9786 20.9622 36.942 20.8962Z" fill="white"/>
<path d="M38.8994 24.2292C38.859 24.2932 38.8807 24.3762 38.9478 24.4146C39.0149 24.4531 39.102 24.4324 39.1423 24.3684C39.1826 24.3044 39.1609 24.2214 39.0938 24.183C39.0267 24.1445 38.9397 24.1652 38.8994 24.2292Z" fill="white"/>
<mask id="mask1_1_34140" style="mask-type:alpha" maskUnits="userSpaceOnUse" x="3" y="6" width="24" height="18">
<rect x="3" y="6" width="24" height="18" fill="#C4C4C4"/>
</mask>
<g mask="url(#mask1_1_34140)">
<path d="M3 6L27 24L3 6ZM27 6L3 24L27 6Z" fill="black"/>
<path d="M27 6L3 24M3 6L27 24L3 6Z" stroke="white" stroke-width="2.4"/>
<path d="M3 6L27 24L3 6ZM27 6L3 24L27 6Z" fill="black"/>
<path d="M27 6L3 24M3 6L27 24L3 6Z" stroke="#EE5757" stroke-width="1.6"/>
<path d="M15 6V27V6ZM3 15H31H3Z" fill="black"/>
<path d="M3 15H31M15 6V27V6Z" stroke="white" stroke-width="4"/>
<path d="M15 6V27V6ZM3 15H31H3Z" fill="black"/>
<path d="M3 15H31M15 6V27V6Z" stroke="#EE5757" stroke-width="2.4"/>
</g>
</g>
</svg>
