<svg width="54" height="48" viewBox="0 0 54 48" fill="none" xmlns="http://www.w3.org/2000/svg">
<mask id="mask0_1_31997" style="mask-type:alpha" maskUnits="userSpaceOnUse" x="3" y="6" width="48" height="36">
<path d="M3.56934 15.1356C4.16681 10.4125 8.0415 7.00193 12.7861 6.60887C16.6412 6.28949 21.6196 6 27 6C32.3804 6 37.3588 6.28949 41.2139 6.60887C45.9585 7.00193 49.8332 10.4125 50.4307 15.1356C50.752 17.6759 51 20.704 51 24C51 27.296 50.752 30.3241 50.4307 32.8644C49.8332 37.5875 45.9585 40.9981 41.2139 41.3911C37.3588 41.7105 32.3804 42 27 42C21.6196 42 16.6412 41.7105 12.7861 41.3911C8.0415 40.9981 4.16681 37.5875 3.56934 32.8644C3.248 30.3241 3 27.296 3 24C3 20.704 3.248 17.6759 3.56934 15.1356Z" fill="#00D0BF"/>
</mask>
<g mask="url(#mask0_1_31997)">
<rect x="3" width="48" height="49" fill="#EE5757"/>
<path fill-rule="evenodd" clip-rule="evenodd" d="M28.3095 33.3052C28.0057 33.0418 27.6374 32.5085 27.6426 31.9944C27.6698 31.611 27.9327 31.3883 28.1026 31.8562C28.3428 32.3728 28.8579 33.2269 29.5677 32.7259C29.8778 32.4982 29.8729 32.1631 29.4477 32.2016C28.9227 32.1656 28.6001 31.8767 28.3651 31.1329C28.3224 30.7238 28.4926 30.734 28.73 30.9972C29.0353 31.3474 29.6427 31.8767 30.3129 31.593C30.6854 31.4369 30.7905 31.1149 30.2278 31.0356C29.6952 31.0433 29.2603 30.698 28.8275 30.1713C28.5901 29.8798 28.9402 29.5856 29.1504 29.8337C29.3378 29.9947 29.6004 30.2914 29.8254 30.3323C30.0855 30.3834 30.408 30.358 30.7654 30.1688C31.1505 29.8464 31.0255 29.6138 30.5579 29.5602C30.1954 29.5782 29.998 29.716 29.5305 29.4042C28.6901 28.8361 28.0219 28.0771 27.9176 27.1642C27.849 26.5638 28.1718 26.3819 28.4403 26.451C29.1703 26.6388 29.6479 28.0031 30.1531 28.7526C30.3184 28.9686 30.4704 28.9721 30.5779 28.9056C30.7805 28.7318 30.9423 28.589 31.1449 28.3948C31.1449 28.3948 32.631 28.6618 33.4402 28.9256L32.5392 29.2458C32.198 29.0574 31.7862 29.2606 31.7862 29.5874C31.4634 29.8107 31.4894 30.0724 31.6286 30.325C31.6711 30.1491 31.7074 29.9207 31.9624 29.8903C32.3264 30.0409 32.7505 29.826 32.7505 29.5417L33.8135 29.1239L34.8873 29.7319C34.8873 30.1429 35.2767 30.2731 35.6819 30.1621C35.8728 30.2807 35.9955 30.4864 36.0602 30.7063C36.1797 30.3891 36.1548 30.1651 35.9676 30.0095C36.075 29.5994 35.5003 29.205 35.0554 29.4676L34.2828 29.0241L35.6051 28.987C35.7586 29.2587 36.3133 29.2737 36.4751 28.987C36.6135 28.9491 36.7303 28.925 37 29.1255C36.915 28.8011 36.7496 28.6625 36.5016 28.6625C36.3131 28.3285 35.6309 28.33 35.5324 28.706L34.1552 28.7443L34.9724 28.1625C35.2774 28.3426 35.7054 28.1424 35.7911 27.8153C35.9127 27.6707 36.0627 27.6028 36.3579 27.7009C36.2057 27.4314 35.9914 27.351 35.6042 27.5339C35.251 27.2663 34.7855 27.5909 34.8562 27.8603L33.769 28.6C32.9798 28.3646 31.5506 27.9979 31.5506 27.9979C31.7208 27.8189 31.8934 27.6526 32.0633 27.4711C32.1246 27.3648 32.0309 27.241 31.9006 27.2152C30.6254 26.9521 29.8953 26.438 29.4529 25.1314C29.2679 24.5842 29.6679 24.4207 29.8054 24.7554C29.9956 25.2209 30.2054 25.7297 30.778 26.1237C30.9755 26.2618 31.5633 26.149 31.2157 25.8192C30.8556 25.5225 30.7006 25.395 30.5231 24.6737C30.5231 24.3083 30.8956 24.1445 31.1033 24.4947C31.3256 25.2132 31.3483 25.5225 31.7508 25.9855C32.0557 26.3358 32.4533 26.5712 32.6507 26.5659C33.006 26.5609 33.3636 26.1771 32.8885 25.8985C32.1908 25.6198 31.9358 25.2389 31.8331 24.8756C31.7208 24.2417 31.8435 23.9348 32.2259 24.2467C32.7683 24.8629 33.8036 26.0109 34.3459 26.5454C34.9538 27.0109 35.6511 27.0261 36.2062 26.5532C36.5239 26.1875 36.4112 25.7939 35.9137 25.8781C34.7912 25.9728 33.9411 25.4154 33.0084 23.9091C32.8258 23.5691 32.7758 23.0807 33.1786 23.444C33.6434 24.0729 34.3211 24.6074 34.9514 24.8375C35.584 25.0649 36.1063 24.9393 36.3088 24.7403C36.553 24.4962 36.4888 23.8812 36.0663 24.0295C35.7187 24.1522 35.2287 24.1828 34.7188 23.9859C34.2085 23.7864 33.6785 23.3569 33.1159 22.6283C32.9233 22.2167 32.986 21.8689 33.376 22.081C34.2987 22.8636 35.4889 23.4975 36.0963 23.1166C36.5439 22.8379 36.5515 22.1219 35.984 22.168C34.8411 22.3238 34.4087 22.0708 33.3109 21.1018C33.0611 20.9151 33.0784 20.4419 33.4759 20.7438C34.3986 21.3397 35.6587 21.5722 36.1538 21.2604C36.599 20.9817 36.5339 20.13 35.7838 20.4316C35.1836 20.7974 34.521 20.7871 33.1934 19.8386C32.8585 19.5599 33.1083 19.1966 33.3833 19.3527C34.4511 19.9612 36.0064 20.222 36.4112 18.9845C36.5687 18.5116 36.2838 18.2354 35.8661 18.5627C34.9486 19.4115 33.9084 18.9947 33.3261 18.5676C33.1593 18.4693 32.8534 17.9718 33.3908 18.0641C34.7811 18.3812 36.1562 18.105 36.4064 17.1205C36.5515 16.8009 36.2661 16.2357 35.7587 16.7089C35.0912 17.3686 34.3835 17.3914 33.4935 17.3865C33.0408 17.2918 33.036 16.7932 33.416 16.7192C34.1185 16.7343 34.8111 16.4274 35.3662 16.1156C35.9089 15.8037 36.3589 15.3664 36.5015 14.7604C36.589 14.2184 36.0663 13.6431 35.7514 14.2184C35.2862 15.0595 34.2561 15.8523 33.1107 15.9954C33.0511 15.8956 32.9009 15.6399 32.7158 15.7117C32.3796 15.8422 31.9789 16.0166 31.5663 16.2126C30.677 16.6349 30.3064 16.8384 30.4132 17.568C30.5247 18.3293 29.9377 18.8104 29.4529 18.6776C29.0301 18.5637 28.7969 18.1818 28.8726 17.5194C28.9333 16.9915 29.4632 16.353 30.0604 16.0182C30.447 15.8019 31.0306 15.6835 31.7332 15.5275C32.1607 15.4432 32.3785 15.2769 32.4034 15.1028C32.4034 15.1028 32.1111 15.3167 31.6433 15.2846C31.4221 15.2688 31.2739 15.1715 31.2181 15.0722C31.3807 15.0391 31.6757 15.0775 31.9406 15.0775C32.2931 15.0747 33.1114 14.9958 33.3285 14.4996C33.396 14.1723 33.181 14.1135 32.9809 14.3231C32.7658 14.5497 32.6773 14.7533 32.2458 14.8294C31.9834 14.8756 31.7208 14.9292 31.3831 14.8474C31.5733 14.6215 31.8755 14.3904 32.1332 14.433C32.218 14.4471 32.3307 14.5254 32.4209 14.6659C32.476 14.3079 32.3782 13.9038 31.4206 14.0726C31.4359 13.8016 30.8655 13.6839 30.5231 13.6892C30.3281 13.6941 29.9305 13.8094 29.6431 13.9471C29.188 14.0881 28.738 14.1903 28.2077 14.2287C28.5154 14.4919 28.5729 14.5074 28.8802 14.7297C28.4154 14.9034 28.0553 15.2615 27.8928 15.4968C27.8928 15.4968 28.4354 15.4817 28.5729 15.543C28.0051 15.7089 27.7501 15.8087 27.45 16.1156C27.5551 16.1335 27.7125 16.1642 27.7801 16.1899C27.8504 16.2153 27.8321 16.2614 27.7753 16.3048C27.6529 16.3981 27.1475 16.9852 27 17.1257C26.8525 16.9852 26.3471 16.3981 26.2248 16.3048C26.168 16.2614 26.1497 16.2153 26.22 16.1899C26.2875 16.1642 26.445 16.1335 26.55 16.1156C26.25 15.8087 25.995 15.7089 25.4271 15.543C25.5646 15.4817 26.1073 15.4968 26.1073 15.4968C25.9447 15.2615 25.5846 14.9034 25.1198 14.7297C25.4271 14.5074 25.4847 14.4919 25.7924 14.2286C25.2621 14.1903 24.8121 14.0881 24.3569 13.9471C24.0696 13.8094 23.672 13.6941 23.4769 13.6892C23.1345 13.6839 22.5642 13.8016 22.5794 14.0725C21.6219 13.9038 21.524 14.3079 21.5792 14.6659C21.6694 14.5254 21.7821 14.4471 21.8668 14.433C22.1246 14.3904 22.4267 14.6215 22.617 14.8474C22.2793 14.9292 22.0167 14.8756 21.7542 14.8294C21.3228 14.7534 21.2342 14.5497 21.0192 14.3231C20.8191 14.1135 20.604 14.1723 20.6716 14.4996C20.8887 14.9958 21.7069 15.0747 22.0594 15.0775C22.3244 15.0775 22.6193 15.0391 22.782 15.0722C22.7262 15.1716 22.578 15.2688 22.3568 15.2846C21.8889 15.3167 21.5967 15.1028 21.5967 15.1028C21.6215 15.2769 21.8392 15.4432 22.2669 15.5275C22.9695 15.6835 23.5531 15.8019 23.9397 16.0183C24.5368 16.3531 25.0667 16.9915 25.1274 17.5194C25.2032 18.1818 24.9699 18.5637 24.5471 18.6776C24.0624 18.8104 23.4754 18.3293 23.5869 17.568C23.6937 16.8384 23.3231 16.6349 22.4338 16.2126C22.0212 16.0166 21.6205 15.8421 21.2842 15.7117C21.0992 15.6399 20.949 15.8957 20.8894 15.9954C19.744 15.8523 18.7138 15.0595 18.2487 14.2184C17.9337 13.6431 17.4111 14.2184 17.4985 14.7604C17.6412 15.3665 18.0912 15.8037 18.6339 16.1156C19.189 16.4274 19.8815 16.7343 20.5841 16.7192C20.9641 16.7932 20.9593 17.2918 20.5065 17.3865C19.6165 17.3914 18.9088 17.3686 18.2414 16.7089C17.7339 16.2357 17.4486 16.8009 17.5937 17.1205C17.8438 18.105 19.2189 18.3812 20.6092 18.0641C21.1467 17.9717 20.8408 18.4694 20.6739 18.5677C20.0917 18.9947 19.0515 19.4115 18.1339 18.5627C17.7163 18.2354 17.4313 18.5116 17.5888 18.9845C17.9937 20.222 19.549 19.9612 20.6168 19.3527C20.8918 19.1966 21.1416 19.5599 20.8067 19.8386C19.4791 20.7871 18.8165 20.7974 18.2163 20.4316C17.4662 20.13 17.401 20.9817 17.8462 21.2604C18.3413 21.5722 19.6014 21.3397 20.5241 20.7438C20.9218 20.4419 20.939 20.9151 20.6891 21.1018C19.5914 22.0708 19.159 22.3238 18.0161 22.168C17.4486 22.1219 17.4562 22.8378 17.9038 23.1166C18.5112 23.4975 19.7013 22.8636 20.624 22.081C21.0141 21.8689 21.0768 22.2167 20.8842 22.6283C20.3216 23.3569 19.7915 23.7864 19.2813 23.9859C18.7714 24.1828 18.2814 24.1522 17.9338 24.0296C17.5113 23.8812 17.4471 24.4962 17.6912 24.7403C17.8939 24.9393 18.4161 25.0649 19.0487 24.8375C19.6789 24.6074 20.3567 24.0729 20.8215 23.444C21.2243 23.0807 21.1743 23.5691 20.9917 23.9091C20.059 25.4154 19.209 25.9728 18.0864 25.8781C17.5888 25.7939 17.4762 26.1875 17.7938 26.5532C18.3489 27.0261 19.0463 27.0109 19.6541 26.5454C20.1964 26.0109 21.2318 24.8629 21.7741 24.2467C22.1566 23.9348 22.2793 24.2417 22.167 24.8756C22.0642 25.2389 21.8094 25.6198 21.1116 25.8985C20.6364 26.1772 20.994 26.5609 21.3493 26.5658C21.5468 26.5712 21.9444 26.3358 22.2493 25.9855C22.6517 25.5225 22.6745 25.2132 22.8967 24.4947C23.1045 24.1445 23.4769 24.3083 23.4769 24.6737C23.2995 25.395 23.1445 25.5225 22.7844 25.8192C22.4367 26.149 23.0246 26.2618 23.222 26.1237C23.7947 25.7297 24.0044 25.2209 24.1946 24.7554C24.3321 24.4207 24.7322 24.5842 24.5471 25.1314C24.1048 26.4379 23.3746 26.9521 22.0995 27.2153C21.9692 27.241 21.8754 27.3648 21.9367 27.4711C22.1067 27.6526 22.2793 27.8189 22.4495 27.9979C22.4495 27.9979 21.0202 28.3646 20.2311 28.6L19.1439 27.8603C19.2145 27.5909 18.749 27.2663 18.3958 27.5338C18.0086 27.351 17.7943 27.4314 17.6421 27.7009C17.9373 27.6028 18.0873 27.6707 18.2089 27.8152C18.2946 28.1424 18.7226 28.3426 19.0276 28.1625L19.8448 28.7444L18.4676 28.706C18.3691 28.3301 17.6869 28.3285 17.4984 28.6625C17.2504 28.6625 17.085 28.8011 17 29.1255C17.2697 28.925 17.3866 28.9491 17.5249 28.987C17.6867 29.2737 18.2414 29.2587 18.3948 28.987L19.7172 29.0241L18.9447 29.4676C18.4997 29.205 17.925 29.5994 18.0325 30.0095C17.8453 30.1651 17.8203 30.3891 17.9398 30.7063C18.0045 30.4864 18.1273 30.2807 18.3182 30.1621C18.7233 30.2731 19.1127 30.1429 19.1127 29.7318L20.1866 29.1239L21.2496 29.5417C21.2496 29.826 21.6736 30.0409 22.0376 29.8903C22.2926 29.9207 22.3289 30.1491 22.3714 30.325C22.5107 30.0724 22.5367 29.8107 22.2138 29.5874C22.2138 29.2606 21.802 29.0574 21.4609 29.2458L20.5598 28.9256C21.369 28.6618 22.8552 28.3949 22.8552 28.3949C23.0577 28.589 23.2195 28.7318 23.4222 28.9056C23.5297 28.9721 23.6816 28.9686 23.847 28.7526C24.3521 28.0031 24.8297 26.6388 25.5598 26.451C25.8282 26.3819 26.1511 26.5638 26.0825 27.1642C25.9781 28.0771 25.31 28.8362 24.4696 29.4042C24.0021 29.716 23.8046 29.5782 23.4422 29.5602C22.9746 29.6138 22.8495 29.8464 23.2347 30.1688C23.592 30.358 23.9145 30.3834 24.1747 30.3323C24.3997 30.2914 24.6622 29.9947 24.8497 29.8337C25.0599 29.5856 25.4099 29.8798 25.1725 30.1713C24.7397 30.698 24.3049 31.0433 23.7722 31.0356C23.2096 31.1149 23.3147 31.4369 23.6871 31.593C24.3573 31.8767 24.9647 31.3474 25.2701 30.9972C25.5074 30.734 25.6777 30.7238 25.6349 31.1329C25.3999 31.8767 25.0774 32.1656 24.5523 32.2016C24.1271 32.1631 24.1223 32.4982 24.4324 32.7259C25.1422 33.2269 25.6573 32.3728 25.8975 31.8562C26.0673 31.3883 26.3302 31.611 26.3574 31.9944C26.3626 32.5085 25.9944 33.0418 25.6906 33.3052C25.3869 33.5687 27 35.2433 27 35.2433C27 35.2433 28.6131 33.5686 28.3094 33.3052L28.3095 33.3052ZM30.4712 14.3403C30.2201 14.3403 30.065 14.4282 30.065 14.5349C30.065 14.6433 30.2201 14.7316 30.4712 14.7316C30.7208 14.7316 30.8793 14.6353 30.8793 14.5267C30.8793 14.4201 30.7207 14.3402 30.4712 14.3402V14.3403ZM23.5289 14.3403C23.78 14.3403 23.9351 14.4282 23.9351 14.5349C23.9351 14.6433 23.78 14.7316 23.5289 14.7316C23.2793 14.7316 23.1208 14.6353 23.1208 14.5267C23.1208 14.4201 23.2794 14.3402 23.5289 14.3402V14.3403Z" fill="#2C2929"/>
</g>
</svg>
