<svg width="54" height="54" viewBox="0 0 54 54" fill="none" xmlns="http://www.w3.org/2000/svg">
<mask id="mask0_1_31997" style="mask-type:alpha" maskUnits="userSpaceOnUse" x="3" y="9" width="48" height="36">
<path d="M3.56934 18.1356C4.16681 13.4125 8.0415 10.0019 12.7861 9.60887C16.6412 9.28949 21.6196 9 27 9C32.3804 9 37.3588 9.28949 41.2139 9.60887C45.9585 10.0019 49.8332 13.4125 50.4307 18.1356C50.752 20.6759 51 23.704 51 27C51 30.296 50.752 33.3241 50.4307 35.8644C49.8332 40.5875 45.9585 43.9981 41.2139 44.3911C37.3588 44.7105 32.3804 45 27 45C21.6196 45 16.6412 44.7105 12.7861 44.3911C8.04151 43.9981 4.16681 40.5875 3.56934 35.8644C3.248 33.3241 3 30.296 3 27C3 23.704 3.248 20.6759 3.56934 18.1356Z" fill="#00D0BF"/>
</mask>
<g mask="url(#mask0_1_31997)">
<rect x="3" y="3" width="48" height="49" fill="#EE5757"/>
<path fill-rule="evenodd" clip-rule="evenodd" d="M28.3095 36.3052C28.0057 36.0418 27.6374 35.5085 27.6426 34.9944C27.6698 34.611 27.9327 34.3883 28.1026 34.8562C28.3428 35.3728 28.8579 36.2269 29.5677 35.7259C29.8778 35.4982 29.8729 35.1631 29.4477 35.2016C28.9227 35.1656 28.6001 34.8767 28.3651 34.1328C28.3224 33.7238 28.4926 33.734 28.73 33.9972C29.0353 34.3474 29.6427 34.8767 30.3129 34.593C30.6854 34.4369 30.7905 34.1149 30.2278 34.0356C29.6952 34.0433 29.2603 33.698 28.8275 33.1713C28.5901 32.8798 28.9402 32.5856 29.1504 32.8337C29.3378 32.9947 29.6004 33.2914 29.8254 33.3323C30.0855 33.3834 30.408 33.358 30.7654 33.1688C31.1505 32.8464 31.0255 32.6138 30.5579 32.5602C30.1954 32.5782 29.998 32.716 29.5305 32.4042C28.6901 31.8361 28.0219 31.0771 27.9176 30.1642C27.849 29.5638 28.1718 29.3819 28.4403 29.451C29.1703 29.6388 29.6479 31.0031 30.1531 31.7526C30.3184 31.9686 30.4704 31.9721 30.5779 31.9056C30.7805 31.7318 30.9423 31.589 31.1449 31.3948C31.1449 31.3948 32.631 31.6618 33.4402 31.9256L32.5392 32.2458C32.198 32.0574 31.7862 32.2606 31.7862 32.5874C31.4634 32.8107 31.4894 33.0724 31.6286 33.325C31.6711 33.1491 31.7074 32.9207 31.9624 32.8903C32.3264 33.0409 32.7505 32.826 32.7505 32.5417L33.8135 32.1239L34.8873 32.7319C34.8873 33.1429 35.2767 33.2731 35.6819 33.1621C35.8728 33.2807 35.9955 33.4864 36.0602 33.7063C36.1797 33.3891 36.1548 33.1651 35.9676 33.0095C36.075 32.5994 35.5003 32.205 35.0554 32.4676L34.2828 32.0241L35.6051 31.987C35.7586 32.2587 36.3133 32.2737 36.4751 31.987C36.6135 31.9491 36.7303 31.925 37 32.1255C36.915 31.8011 36.7496 31.6625 36.5016 31.6625C36.3131 31.3285 35.6309 31.33 35.5324 31.706L34.1552 31.7443L34.9724 31.1625C35.2774 31.3426 35.7054 31.1424 35.7911 30.8153C35.9127 30.6707 36.0627 30.6028 36.3579 30.7009C36.2057 30.4314 35.9914 30.351 35.6042 30.5339C35.251 30.2663 34.7855 30.5909 34.8562 30.8603L33.769 31.6C32.9798 31.3646 31.5506 30.9979 31.5506 30.9979C31.7208 30.8189 31.8934 30.6526 32.0633 30.4711C32.1246 30.3648 32.0309 30.241 31.9006 30.2152C30.6254 29.9521 29.8953 29.438 29.4529 28.1314C29.2679 27.5842 29.6679 27.4207 29.8054 27.7554C29.9956 28.2209 30.2054 28.7297 30.778 29.1237C30.9755 29.2618 31.5633 29.149 31.2157 28.8192C30.8556 28.5225 30.7006 28.395 30.5231 27.6737C30.5231 27.3083 30.8956 27.1445 31.1033 27.4947C31.3256 28.2132 31.3483 28.5225 31.7508 28.9855C32.0557 29.3358 32.4533 29.5712 32.6507 29.5659C33.006 29.5609 33.3636 29.1771 32.8885 28.8985C32.1908 28.6198 31.9358 28.2389 31.8331 27.8756C31.7208 27.2417 31.8435 26.9348 32.2259 27.2467C32.7683 27.8629 33.8036 29.0109 34.3459 29.5454C34.9538 30.0109 35.6511 30.0261 36.2062 29.5532C36.5239 29.1875 36.4112 28.7939 35.9137 28.8781C34.7912 28.9728 33.9411 28.4154 33.0084 26.9091C32.8258 26.5691 32.7758 26.0807 33.1786 26.444C33.6434 27.0729 34.3211 27.6074 34.9514 27.8375C35.584 28.0649 36.1063 27.9393 36.3088 27.7403C36.553 27.4962 36.4888 26.8812 36.0663 27.0295C35.7187 27.1522 35.2287 27.1828 34.7188 26.9859C34.2085 26.7864 33.6785 26.3569 33.1159 25.6283C32.9233 25.2167 32.986 24.8689 33.376 25.081C34.2987 25.8636 35.4889 26.4975 36.0963 26.1166C36.5439 25.8379 36.5515 25.1219 35.984 25.168C34.8411 25.3238 34.4087 25.0708 33.3109 24.1018C33.0611 23.9151 33.0784 23.4419 33.4759 23.7438C34.3986 24.3397 35.6587 24.5722 36.1538 24.2604C36.599 23.9817 36.5339 23.13 35.7838 23.4316C35.1836 23.7974 34.521 23.7871 33.1934 22.8386C32.8585 22.5599 33.1083 22.1966 33.3833 22.3527C34.4511 22.9612 36.0064 23.222 36.4112 21.9845C36.5687 21.5116 36.2838 21.2354 35.8661 21.5627C34.9486 22.4115 33.9084 21.9947 33.3261 21.5676C33.1593 21.4693 32.8534 20.9718 33.3908 21.0641C34.7811 21.3812 36.1562 21.105 36.4064 20.1205C36.5515 19.8009 36.2661 19.2357 35.7587 19.7089C35.0912 20.3686 34.3835 20.3914 33.4935 20.3865C33.0408 20.2918 33.036 19.7932 33.416 19.7192C34.1185 19.7343 34.8111 19.4274 35.3662 19.1156C35.9089 18.8037 36.3589 18.3664 36.5015 17.7604C36.589 17.2184 36.0663 16.6431 35.7514 17.2184C35.2862 18.0595 34.2561 18.8523 33.1107 18.9954C33.0511 18.8956 32.9009 18.6399 32.7158 18.7117C32.3796 18.8422 31.9789 19.0166 31.5663 19.2126C30.677 19.6349 30.3064 19.8384 30.4132 20.568C30.5247 21.3293 29.9377 21.8104 29.4529 21.6776C29.0301 21.5637 28.7969 21.1818 28.8726 20.5194C28.9333 19.9915 29.4632 19.3531 30.0604 19.0182C30.447 18.8019 31.0306 18.6835 31.7332 18.5275C32.1607 18.4432 32.3785 18.2769 32.4034 18.1028C32.4034 18.1028 32.1111 18.3167 31.6433 18.2846C31.4221 18.2688 31.2739 18.1715 31.2181 18.0722C31.3807 18.0391 31.6757 18.0775 31.9406 18.0775C32.2931 18.0747 33.1114 17.9958 33.3285 17.4996C33.396 17.1723 33.181 17.1135 32.9809 17.3231C32.7658 17.5497 32.6773 17.7533 32.2458 17.8294C31.9834 17.8756 31.7208 17.9292 31.3831 17.8474C31.5733 17.6215 31.8755 17.3904 32.1332 17.433C32.218 17.4471 32.3307 17.5254 32.4209 17.6659C32.476 17.3079 32.3782 16.9038 31.4206 17.0726C31.4359 16.8016 30.8655 16.6839 30.5231 16.6892C30.3281 16.6941 29.9305 16.8094 29.6431 16.9471C29.188 17.0881 28.738 17.1903 28.2077 17.2287C28.5154 17.4919 28.5729 17.5074 28.8802 17.7297C28.4154 17.9034 28.0553 18.2615 27.8928 18.4968C27.8928 18.4968 28.4354 18.4817 28.5729 18.543C28.0051 18.7089 27.7501 18.8087 27.45 19.1156C27.5551 19.1335 27.7125 19.1642 27.7801 19.1899C27.8504 19.2153 27.8321 19.2614 27.7753 19.3048C27.6529 19.3981 27.1475 19.9852 27 20.1257C26.8525 19.9852 26.3471 19.3981 26.2248 19.3048C26.168 19.2614 26.1497 19.2153 26.22 19.1899C26.2875 19.1642 26.445 19.1335 26.55 19.1156C26.25 18.8087 25.995 18.7089 25.4271 18.543C25.5646 18.4817 26.1073 18.4968 26.1073 18.4968C25.9447 18.2615 25.5846 17.9034 25.1198 17.7297C25.4271 17.5074 25.4847 17.4919 25.7924 17.2286C25.2621 17.1903 24.8121 17.0881 24.3569 16.9471C24.0696 16.8094 23.672 16.6941 23.4769 16.6892C23.1345 16.6839 22.5642 16.8016 22.5794 17.0725C21.6219 16.9038 21.524 17.3079 21.5792 17.6659C21.6694 17.5254 21.7821 17.4471 21.8668 17.433C22.1246 17.3904 22.4267 17.6215 22.617 17.8474C22.2793 17.9292 22.0167 17.8756 21.7542 17.8294C21.3228 17.7534 21.2342 17.5497 21.0192 17.3231C20.8191 17.1135 20.604 17.1723 20.6716 17.4996C20.8887 17.9958 21.7069 18.0747 22.0594 18.0775C22.3244 18.0775 22.6193 18.0391 22.782 18.0722C22.7262 18.1716 22.578 18.2688 22.3568 18.2846C21.8889 18.3167 21.5967 18.1028 21.5967 18.1028C21.6215 18.2769 21.8392 18.4432 22.2669 18.5275C22.9695 18.6835 23.5531 18.8019 23.9397 19.0183C24.5368 19.3531 25.0667 19.9915 25.1274 20.5194C25.2032 21.1818 24.9699 21.5637 24.5471 21.6776C24.0624 21.8104 23.4754 21.3293 23.5869 20.568C23.6937 19.8384 23.3231 19.6349 22.4338 19.2126C22.0212 19.0166 21.6205 18.8421 21.2842 18.7117C21.0992 18.6399 20.949 18.8957 20.8894 18.9954C19.744 18.8523 18.7138 18.0595 18.2487 17.2184C17.9337 16.6431 17.4111 17.2184 17.4985 17.7604C17.6412 18.3665 18.0912 18.8037 18.6339 19.1156C19.189 19.4274 19.8815 19.7343 20.5841 19.7192C20.9641 19.7932 20.9593 20.2918 20.5065 20.3865C19.6165 20.3914 18.9088 20.3686 18.2414 19.7089C17.7339 19.2357 17.4486 19.8009 17.5937 20.1205C17.8438 21.105 19.2189 21.3812 20.6092 21.0641C21.1467 20.9717 20.8408 21.4694 20.6739 21.5677C20.0917 21.9947 19.0515 22.4115 18.1339 21.5627C17.7163 21.2354 17.4313 21.5116 17.5888 21.9845C17.9937 23.222 19.549 22.9612 20.6168 22.3527C20.8918 22.1966 21.1416 22.5599 20.8067 22.8386C19.4791 23.7871 18.8165 23.7974 18.2163 23.4316C17.4662 23.13 17.401 23.9817 17.8462 24.2604C18.3413 24.5722 19.6014 24.3397 20.5241 23.7438C20.9218 23.4419 20.939 23.9151 20.6891 24.1018C19.5914 25.0708 19.159 25.3238 18.0161 25.168C17.4486 25.1219 17.4562 25.8378 17.9038 26.1166C18.5112 26.4975 19.7013 25.8636 20.624 25.081C21.0141 24.8689 21.0768 25.2167 20.8842 25.6283C20.3216 26.3569 19.7915 26.7864 19.2813 26.9859C18.7714 27.1828 18.2814 27.1522 17.9338 27.0296C17.5113 26.8812 17.4471 27.4962 17.6912 27.7403C17.8939 27.9393 18.4161 28.0649 19.0487 27.8375C19.6789 27.6074 20.3567 27.0729 20.8215 26.444C21.2243 26.0807 21.1743 26.5691 20.9917 26.9091C20.059 28.4154 19.209 28.9728 18.0864 28.8781C17.5888 28.7939 17.4762 29.1875 17.7938 29.5532C18.3489 30.0261 19.0463 30.0109 19.6541 29.5454C20.1964 29.0109 21.2318 27.8629 21.7741 27.2467C22.1566 26.9348 22.2793 27.2417 22.167 27.8756C22.0642 28.2389 21.8094 28.6198 21.1116 28.8985C20.6364 29.1772 20.994 29.5609 21.3493 29.5658C21.5468 29.5712 21.9444 29.3358 22.2493 28.9855C22.6517 28.5225 22.6745 28.2132 22.8967 27.4947C23.1045 27.1445 23.4769 27.3083 23.4769 27.6737C23.2995 28.395 23.1445 28.5225 22.7844 28.8192C22.4367 29.149 23.0246 29.2618 23.222 29.1237C23.7947 28.7297 24.0044 28.2209 24.1946 27.7554C24.3321 27.4207 24.7322 27.5842 24.5471 28.1314C24.1048 29.4379 23.3746 29.9521 22.0995 30.2153C21.9692 30.241 21.8754 30.3648 21.9367 30.4711C22.1067 30.6526 22.2793 30.8189 22.4495 30.9979C22.4495 30.9979 21.0202 31.3646 20.2311 31.6L19.1439 30.8603C19.2145 30.5909 18.749 30.2663 18.3958 30.5338C18.0086 30.351 17.7943 30.4314 17.6421 30.7009C17.9373 30.6028 18.0873 30.6707 18.2089 30.8152C18.2946 31.1424 18.7226 31.3426 19.0276 31.1625L19.8448 31.7444L18.4676 31.706C18.3691 31.3301 17.6869 31.3285 17.4984 31.6625C17.2504 31.6625 17.085 31.8011 17 32.1255C17.2697 31.925 17.3866 31.9491 17.5249 31.987C17.6867 32.2737 18.2414 32.2587 18.3948 31.987L19.7172 32.0241L18.9447 32.4676C18.4997 32.205 17.925 32.5994 18.0325 33.0095C17.8453 33.1651 17.8203 33.3891 17.9398 33.7063C18.0045 33.4864 18.1273 33.2807 18.3182 33.1621C18.7233 33.2731 19.1127 33.1429 19.1127 32.7318L20.1866 32.1239L21.2496 32.5417C21.2496 32.826 21.6736 33.0409 22.0376 32.8903C22.2926 32.9207 22.3289 33.1491 22.3714 33.325C22.5107 33.0724 22.5367 32.8107 22.2138 32.5874C22.2138 32.2606 21.802 32.0574 21.4609 32.2458L20.5598 31.9256C21.369 31.6618 22.8552 31.3949 22.8552 31.3949C23.0577 31.589 23.2195 31.7318 23.4222 31.9056C23.5297 31.9721 23.6816 31.9686 23.847 31.7526C24.3521 31.0031 24.8297 29.6388 25.5598 29.451C25.8282 29.3819 26.1511 29.5638 26.0825 30.1642C25.9781 31.0771 25.31 31.8362 24.4696 32.4042C24.0021 32.716 23.8046 32.5782 23.4422 32.5602C22.9746 32.6138 22.8495 32.8464 23.2347 33.1688C23.592 33.358 23.9145 33.3834 24.1747 33.3323C24.3997 33.2914 24.6622 32.9947 24.8497 32.8337C25.0599 32.5856 25.4099 32.8798 25.1725 33.1713C24.7397 33.698 24.3049 34.0433 23.7722 34.0356C23.2096 34.1149 23.3147 34.4369 23.6871 34.593C24.3573 34.8767 24.9647 34.3474 25.2701 33.9972C25.5074 33.734 25.6777 33.7238 25.6349 34.1328C25.3999 34.8767 25.0774 35.1656 24.5523 35.2016C24.1271 35.1631 24.1223 35.4982 24.4324 35.7259C25.1422 36.2269 25.6573 35.3728 25.8975 34.8562C26.0673 34.3883 26.3302 34.611 26.3574 34.9944C26.3626 35.5085 25.9944 36.0418 25.6906 36.3052C25.3869 36.5687 27 38.2433 27 38.2433C27 38.2433 28.6131 36.5686 28.3094 36.3052L28.3095 36.3052ZM30.4712 17.3403C30.2201 17.3403 30.065 17.4282 30.065 17.5349C30.065 17.6433 30.2201 17.7316 30.4712 17.7316C30.7208 17.7316 30.8793 17.6353 30.8793 17.5267C30.8793 17.4201 30.7207 17.3402 30.4712 17.3402V17.3403ZM23.5289 17.3403C23.78 17.3403 23.9351 17.4282 23.9351 17.5349C23.9351 17.6433 23.78 17.7316 23.5289 17.7316C23.2793 17.7316 23.1208 17.6353 23.1208 17.5267C23.1208 17.4201 23.2794 17.3402 23.5289 17.3402V17.3403Z" fill="#2C2929"/>
</g>
</svg>
