<svg width="54" height="54" viewBox="0 0 54 54" fill="none" xmlns="http://www.w3.org/2000/svg">
<mask id="mask0_1_36849" style="mask-type:alpha" maskUnits="userSpaceOnUse" x="3" y="9" width="48" height="36">
<path d="M3.56934 18.1356C4.16681 13.4125 8.0415 10.0019 12.7861 9.60887C16.6412 9.28949 21.6196 9 27 9C32.3804 9 37.3588 9.28949 41.2139 9.60887C45.9585 10.0019 49.8332 13.4125 50.4307 18.1356C50.752 20.6759 51 23.704 51 27C51 30.296 50.752 33.3241 50.4307 35.8644C49.8332 40.5875 45.9585 43.9981 41.2139 44.3911C37.3588 44.7105 32.3804 45 27 45C21.6196 45 16.6412 44.7105 12.7861 44.3911C8.04151 43.9981 4.16681 40.5875 3.56934 35.8644C3.248 33.3241 3 30.296 3 27C3 23.704 3.248 20.6759 3.56934 18.1356Z" fill="#00D0BF"/>
</mask>
<g mask="url(#mask0_1_36849)">
<rect x="3" y="3" width="16" height="49" fill="#2E50A6"/>
<rect x="19" y="3" width="16" height="49" fill="#FCD95E"/>
<rect x="35" y="3" width="16" height="49" fill="#EE5757"/>
<path d="M25.5305 19.2188C26.114 19.2188 26.3526 19.7194 26.9361 19.7194C27.2964 19.7194 27.5064 19.6017 27.8204 19.4246C28.0394 19.3006 28.1792 19.2345 28.4307 19.2345C28.6883 19.2345 28.8462 19.3123 28.9779 19.5331C29.0524 19.658 29.1142 19.9025 29.0815 20.0428C29.0194 20.3087 28.9812 20.4244 28.8751 20.67C28.8246 20.788 28.7769 20.8587 28.7769 20.9879C28.7769 21.2976 29.1984 21.404 29.4849 21.4085C29.5474 21.4094 30.0727 21.418 30.396 21.0908C30.2206 21.0831 30.0243 20.9472 30.0243 20.7718C30.0243 20.5733 30.1638 20.439 30.3529 20.3817C30.3888 20.3714 30.45 20.4031 30.4825 20.386C30.5287 20.362 30.5071 20.3101 30.5482 20.2776C30.6423 20.2023 30.7035 20.1553 30.8241 20.1553C30.9028 20.1553 30.949 20.1664 31.0123 20.2117C31.0457 20.2357 31.0579 20.2653 31.0989 20.2653C31.1854 20.2653 31.2282 20.2106 31.3146 20.2106C31.3848 20.2106 31.4275 20.22 31.4891 20.2516C31.5405 20.2782 31.5393 20.3654 31.5975 20.3654C31.6266 20.3654 31.7805 20.3026 31.8609 20.3026C32.0278 20.3026 32.1168 20.3631 32.2247 20.4897C32.2537 20.5239 32.2724 20.5932 32.3019 20.5932C32.3615 20.5932 32.4988 20.6315 32.5843 20.7171C32.6211 20.7539 32.6374 20.7713 32.6657 20.8158C32.6853 20.8474 32.7156 20.9247 32.7503 20.9381C32.7911 20.9538 32.8253 20.9507 32.8789 20.9851C33.0012 21.0635 33.0952 21.2108 33.0908 21.3536C33.0894 21.4015 33.0675 21.4683 33.0545 21.5139C32.9121 22.0119 32.5732 22.1699 32.2309 22.5977C32.0854 22.7799 31.9706 22.9254 31.9706 23.1589C31.9706 23.2154 32.0402 23.3189 32.071 23.3659C32.0522 23.2562 32.1023 23.1213 32.2184 23.1151C32.3773 23.1065 32.5 23.2273 32.5214 23.3847C32.5257 23.4215 32.512 23.4851 32.4963 23.5227C32.5819 23.4662 32.6947 23.4281 32.7973 23.4161C32.8452 23.4103 32.8934 23.4082 32.9416 23.4098C33.1956 23.4161 33.4759 23.5589 33.646 23.7034C34.1665 24.1455 34.2294 24.7925 34.201 24.9722C34.1378 25.3715 34.1776 26.0941 33.157 26.3822C33.3457 26.4616 33.4742 26.6036 33.4742 26.7782C33.4742 26.9681 33.3287 27.1307 33.1388 27.1307C33.0301 27.1307 32.9548 27.1041 32.8787 27.028C32.6665 27.2402 32.6254 27.4566 32.6254 27.757C32.6254 27.9366 32.6596 28.0427 32.7349 28.2053C32.8145 28.3773 32.8718 28.4782 33.0155 28.6023C33.0917 28.4876 33.1721 28.4038 33.3099 28.4038C33.4434 28.4038 33.5563 28.4465 33.611 28.568C33.6273 28.6048 33.6127 28.6348 33.6316 28.6707C33.6555 28.7169 33.6958 28.7272 33.7206 28.7734C33.7591 28.8444 33.7214 28.9052 33.7548 28.9787C33.7762 29.0266 33.8232 29.0335 33.8438 29.0814C33.8763 29.155 33.8849 29.2055 33.8849 29.2867C33.8849 29.5144 33.6778 29.6769 33.4502 29.6769C33.3818 29.6769 33.3441 29.6496 33.2757 29.6564C33.4057 29.7864 33.5049 29.8429 33.6042 29.9986C33.7479 30.2236 33.7839 30.3836 33.8164 30.6489C33.8224 30.6985 33.8233 30.7284 33.8233 30.779C33.8233 31.1195 33.7702 31.3231 33.6179 31.6277C33.4725 31.9194 33.3484 32.0812 33.084 32.2711C32.6716 32.568 32.3712 32.6536 31.8725 32.7502C31.5525 32.8118 31.3694 32.8392 31.0442 32.8598C30.6284 32.8863 30.3914 32.8871 29.9764 32.9145C29.4322 32.9513 29.0549 33.0283 28.669 33.4142C28.8513 33.5476 28.9771 33.6786 28.9771 33.9036C28.9771 34.1346 28.8342 34.2997 28.6143 34.3725C28.563 34.3896 28.5253 34.3742 28.4774 34.3998C28.4201 34.4298 28.4226 34.4957 28.3679 34.5299C28.2712 34.5915 28.1959 34.6052 28.0804 34.6052C27.8768 34.6052 27.7381 34.5573 27.5944 34.4135C27.4276 34.5521 27.371 34.677 27.1837 34.7831C27.1221 34.8174 27.0904 34.8653 27.0194 34.8653C26.9073 34.8653 26.856 34.7943 26.7662 34.7284C26.6233 34.624 26.5471 34.5547 26.4307 34.4204C26.2605 34.5222 26.1561 34.6052 25.9584 34.6052C25.8369 34.6052 25.7599 34.588 25.6572 34.523C25.6033 34.4897 25.5948 34.44 25.5409 34.4067C25.4844 34.3716 25.4373 34.3844 25.3766 34.3587C25.1482 34.2604 25.0001 34.0909 25.0001 33.842C25.0001 33.6238 25.1379 33.4852 25.3356 33.3936C24.9565 33.0146 24.5835 32.9488 24.0487 32.9145C23.6354 32.888 23.4001 32.8872 22.9877 32.8598C22.66 32.8375 22.4778 32.8041 22.1526 32.7502C21.907 32.71 21.7616 32.6972 21.5366 32.5928C20.7623 32.2317 20.2686 31.7364 20.1676 30.8884C20.159 30.8157 20.1607 30.7738 20.1607 30.7002C20.1607 30.2587 20.3344 29.9892 20.6467 29.6769C20.5663 29.658 20.5124 29.6846 20.4345 29.6564C20.2394 29.5853 20.0991 29.4501 20.0991 29.2422C20.0991 29.1652 20.1025 29.1139 20.1402 29.0472C20.1667 29.0001 20.2172 28.9907 20.2291 28.9376C20.2445 28.8675 20.224 28.8178 20.2565 28.7528C20.2779 28.7092 20.3181 28.7006 20.3387 28.657C20.4063 28.5167 20.491 28.4037 20.6467 28.4037C20.7802 28.4037 20.8657 28.4739 20.9342 28.5886C21.0642 28.5287 21.1002 28.4311 21.1738 28.3079C21.2961 28.1034 21.3517 27.9605 21.3517 27.7227C21.3517 27.5567 21.3355 27.4592 21.2833 27.3017C21.2456 27.1888 21.2302 27.1118 21.1464 27.028C21.0702 27.1041 20.9949 27.1306 20.8863 27.1306C20.669 27.1306 20.503 26.9441 20.503 26.7268C20.503 26.565 20.5825 26.4453 20.7289 26.3777C20.6116 26.2767 20.5098 26.2682 20.3797 26.186C20.1821 26.0611 20.1128 25.9294 19.9828 25.7343C19.898 25.6068 19.8758 25.5178 19.8322 25.3715C19.78 25.1952 19.75 25.09 19.75 24.9061C19.75 24.8581 19.7509 24.8299 19.7568 24.7828C19.8056 24.4115 19.8724 24.1787 20.106 23.8861C20.2445 23.7124 20.3387 23.6055 20.544 23.5165C20.7185 23.4412 20.8229 23.3865 21.0129 23.3865C21.0702 23.3865 21.1036 23.3865 21.1601 23.3933C21.2473 23.4045 21.303 23.4121 21.3791 23.4549C21.4082 23.4712 21.4612 23.52 21.4612 23.4857C21.4612 23.4464 21.4407 23.4258 21.4407 23.3865C21.4407 23.2291 21.5536 23.0853 21.7111 23.0853C21.8249 23.0853 21.8711 23.1854 21.9267 23.2838C21.9627 23.2239 21.9814 23.1828 21.9814 23.1127C21.9814 22.8526 21.842 22.72 21.6803 22.5172C21.3277 22.0765 20.8863 21.8704 20.8863 21.3057C20.8863 21.1371 20.9675 21.0224 21.1122 20.936C21.1541 20.9112 21.2105 20.936 21.2515 20.9098C21.2866 20.8875 21.2826 20.8422 21.3048 20.8063C21.3399 20.7507 21.3709 20.7268 21.4197 20.684C21.5001 20.6138 21.5708 20.6349 21.6597 20.5733C21.7042 20.5425 21.7147 20.5024 21.749 20.4614C21.8482 20.3416 21.9373 20.2838 22.0939 20.2838C22.1726 20.2838 22.2168 20.2842 22.2895 20.3131C22.3143 20.3226 22.3607 20.36 22.3667 20.3528C22.3823 20.3339 22.4248 20.2889 22.4753 20.265C22.5412 20.2333 22.5679 20.221 22.6415 20.221C22.7254 20.221 22.7803 20.2681 22.8641 20.2681C22.8949 20.2681 22.9021 20.2373 22.9268 20.221C23.0013 20.1706 23.0441 20.142 23.1348 20.142C23.2221 20.142 23.2703 20.1709 23.3439 20.2179C23.4131 20.2616 23.4232 20.32 23.4942 20.3611C23.5335 20.3842 23.5669 20.3739 23.6106 20.3884C23.8056 20.4535 23.9528 20.5835 23.9528 20.7889C23.9528 20.9001 23.9263 20.9797 23.8433 21.0524C23.7774 21.1106 23.715 21.1003 23.6311 21.1277C23.9032 21.345 24.1399 21.3989 24.4873 21.3989C24.8056 21.3989 25.1948 21.2688 25.1948 20.9505C25.1948 20.8025 25.113 20.7229 25.0548 20.5869C24.9504 20.3448 24.8938 20.2024 24.8938 19.9388C24.8938 19.7301 24.9166 19.6034 25.0381 19.434C25.163 19.2595 25.3156 19.2188 25.5304 19.2188L25.5305 19.2188Z" fill="#C7B37F"/>
<path d="M23.4105 20.9126C23.4314 20.9916 23.4954 21.0656 23.5955 21.0969C23.6557 21.1157 23.795 21.1082 23.8854 20.9915C23.9586 20.8969 23.953 20.7797 23.9257 20.6866C23.908 20.6263 23.8593 20.5682 23.795 20.5187L23.4107 20.9088L23.4106 20.9126L23.4105 20.9126Z" stroke="#703D29" stroke-width="0.0504077" stroke-linejoin="round"/>
<path d="M33.1444 26.7465C33.054 26.5281 32.8206 26.626 32.8062 26.7465C32.7732 27.024 33.0164 27.1079 33.1896 27.0627C33.2753 27.0404 33.3381 26.9863 33.3782 26.916C33.4234 26.8366 33.4371 26.7329 33.4077 26.634C33.3944 26.5891 33.3756 26.5513 33.3435 26.509C33.3113 26.4665 33.278 26.4373 33.2467 26.4175C33.1802 26.3749 33.1076 26.3707 32.9938 26.3707C32.5721 26.3707 32.2032 26.8689 32.0793 27.3865C32.0385 27.5569 31.9824 27.937 32.0601 28.2975C32.1429 28.6815 32.3089 28.9474 32.5037 29.1491C32.6091 29.2582 32.7528 29.3554 32.939 29.4607C32.9963 29.4931 33.1482 29.5604 33.2535 29.5906C33.3618 29.6215 33.4617 29.617 33.5518 29.5974C33.8016 29.5432 33.9178 29.3108 33.7919 29.073C33.6888 28.8784 33.3853 28.7719 33.2422 29.0203C33.2301 29.0415 33.2112 29.0874 33.2118 29.1371C33.2126 29.2033 33.2401 29.2832 33.2874 29.3134C33.3962 29.3825 33.5701 29.3629 33.5621 29.1709" stroke="#703D29" stroke-width="0.050214" stroke-linecap="round"/>
<path d="M31.8408 29.6097C31.9255 29.5102 32.1196 29.3608 32.3417 29.3336C32.567 29.3059 32.7629 29.3715 32.9628 29.479C33.3531 29.6889 33.5707 29.9146 33.7157 30.3332C33.7525 30.4396 33.7831 30.5998 33.7789 30.7701C33.7721 31.0415 33.7032 31.3381 33.6292 31.4815C33.5646 31.6066 33.3958 32.1591 32.4696 32.5404C31.9292 32.7629 31.0993 32.8142 30.527 32.8368C29.7399 32.8679 29.0136 32.897 28.592 33.4165" stroke="#703D29" stroke-width="0.0617869"/>
<path d="M27.8063 21.1862C27.8685 21.2987 27.9028 21.3672 27.8666 21.4836C27.8255 21.6154 27.732 21.6944 27.5993 21.6944C27.2981 21.6944 27.121 21.3378 27.2567 21.1109C27.4976 20.708 27.9607 20.9343 28.3899 21.1338C28.3691 21.0305 28.333 20.9969 28.3368 20.8689C28.3461 20.551 28.5819 20.4068 28.676 20.1133C28.732 19.9383 28.7543 19.7864 28.6264 19.6622C28.5146 19.5537 28.3851 19.5554 28.2393 19.6125C27.9479 19.7267 27.5979 20.055 26.9817 20.0641C26.3656 20.055 26.0127 19.7267 25.7213 19.6125C25.5755 19.5554 25.446 19.5537 25.3342 19.6622C25.2062 19.7864 25.2285 19.9383 25.2846 20.1133C25.3787 20.4069 25.6144 20.551 25.6238 20.8689C25.6275 20.9969 25.5914 21.0305 25.5707 21.1338C25.9999 20.9343 26.481 20.6877 26.7039 21.1109C26.8281 21.3466 26.6625 21.6943 26.3613 21.6943C26.2285 21.6943 26.1353 21.6097 26.094 21.4836C26.0572 21.3711 26.094 21.2727 26.1542 21.1862M32.0375 30.4997C32.0149 30.4169 32.0358 30.3375 32.1015 30.2475C32.1893 30.1271 32.3763 30.0856 32.5457 30.1797C32.6024 30.2112 32.6734 30.2527 32.7377 30.3378C32.762 30.37 32.8031 30.422 32.8243 30.4583C32.8756 30.5459 32.8966 30.6177 32.9067 30.6465C33.093 31.1757 32.7971 31.7491 32.4102 31.9792C32.1097 32.1579 31.7512 32.2376 31.3222 32.2879C31.1294 32.3106 31.0192 32.3091 30.8252 32.3181C30.6691 32.3253 30.5343 32.3227 30.4073 32.3212C30.3029 32.3198 30.2037 32.3204 30.1024 32.3181C29.937 32.3142 29.7659 32.3103 29.5565 32.3256C29.3362 32.3416 29.1705 32.3473 28.9842 32.3783C28.8627 32.3985 28.7201 32.4181 28.5706 32.4517C28.5258 32.4617 28.4803 32.4699 28.4346 32.4837C28.4039 32.493 28.3736 32.5024 28.3435 32.5115C28.0737 32.5938 27.8116 32.6941 27.6047 32.8273C27.5408 32.8684 27.4687 32.9096 27.417 32.9584C27.3848 32.9888 27.3457 33.0192 27.3142 33.0503C27.1694 33.1927 27.0213 33.3469 26.9867 33.5557C26.9803 33.5942 26.9803 33.6346 26.9803 33.6771C26.9803 33.8126 27.0906 33.9971 27.388 34.0573L32.0375 30.4997Z" stroke="#703D29" stroke-width="0.0542814"/>
<path d="M26.756 21.4084C26.7492 21.5248 26.7013 21.6001 26.5849 21.648M26.6021 20.977C26.7184 21.066 26.8006 21.1755 26.7869 21.3535C26.772 21.5465 26.7253 21.593 26.5747 21.6957L26.6021 20.977Z" stroke="#703D29" stroke-width="0.0542814" stroke-linecap="round"/>
<path d="M23.7403 20.4782L23.793 20.5158L23.8494 20.5761L23.8871 20.6514L23.9059 20.7154L23.9097 20.7982L23.9059 20.8547L23.8871 20.9187L23.8494 20.9638L23.8042 21.0128L23.7403 21.0467L23.6575 21.0655L23.5859 21.0768L23.5106 21.0429L23.4429 20.994L23.4015 20.9337L23.3713 20.8584V20.8284L23.7403 20.4782H23.7403Z" fill="#C7B37F"/>
<path d="M23.6246 20.7726C23.6014 20.6477 23.4553 20.622 23.3987 20.6958C23.3115 20.8095 23.3752 20.9988 23.5525 21.0542C23.6127 21.0731 23.752 21.0655 23.8424 20.9488C23.9156 20.8542 23.91 20.737 23.8827 20.6439C23.8649 20.5836 23.8166 20.5311 23.752 20.482C23.5461 20.3255 23.2137 20.3615 23.1045 20.625C22.9636 20.965 23.2701 21.2199 23.5525 21.4119C23.9079 21.6536 24.313 21.6975 24.6179 21.6942C25.3106 21.6867 25.8377 21.3554 26.1803 21.1672C26.2601 21.1234 26.3422 21.1323 26.3835 21.1822C26.4302 21.2386 26.4294 21.3296 26.3647 21.3893" stroke="#703D29" stroke-width="0.0504077" stroke-linecap="round"/>
<path d="M22.4595 30.171L22.4482 30.3065L22.4256 30.4006L22.3578 30.5625L22.2524 30.7018L22.1395 30.7921L22.0567 30.8336L21.94 30.8599M21.5709 30.1559L21.4166 30.2124L21.2585 30.3329L21.1907 30.427L21.1041 30.5776L21.0665 30.6905L21.0364 30.8298L21.0213 30.9353L21.5709 30.1559Z" stroke="#703D29" stroke-width="0.0511824"/>
<path d="M26.9943 33.7818C26.9662 33.9071 26.8488 34.0504 26.5934 34.1022L26.5438 34.1125" stroke="#703D29" stroke-width="0.0579615"/>
<path d="M33.3855 29.7792C33.5473 29.93 33.6608 30.1135 33.7481 30.3655C33.7849 30.4718 33.8155 30.6321 33.8112 30.8023C33.8044 31.0737 33.7356 31.3703 33.6615 31.5138C33.5969 31.6389 33.4281 32.1914 32.502 32.5727C31.9616 32.7952 31.1317 32.8464 30.5594 32.869C29.7836 32.8997 29.0669 32.9284 28.6428 33.4267" stroke="#703D29" stroke-width="0.0656607"/>
<path d="M32.1198 30.2818C32.1773 30.2033 32.3869 30.104 32.5563 30.1981C32.6121 30.2291 32.6782 30.2683 32.7362 30.3551" stroke="#703D29" stroke-width="0.0449844"/>
<path d="M33.188 29.5961C33.2259 29.6107 33.2635 29.6238 33.2966 29.6333C33.4049 29.6642 33.5067 29.6666 33.5948 29.6402C33.809 29.5759 33.9464 29.3758 33.835 29.1157C33.8091 29.0555 33.7597 28.9977 33.7034 28.9543" stroke="#703D29" stroke-width="0.0656607"/>
<path d="M23.9088 20.84C23.9088 20.97 23.8129 21.0522 23.6829 21.0795M20.9821 23.9956C20.8384 24.0846 20.7312 24.1057 20.6194 24.2352C20.508 24.4557 20.4643 24.5742 20.4208 24.7509L20.9821 23.9956Z" stroke="#703D29" stroke-width="0.0504077" stroke-linecap="round"/>
<path d="M32.848 23.4097C33.2059 23.4025 34.2454 23.6828 34.2529 24.9048C34.2601 26.1118 33.508 26.3089 33.2066 26.3893" stroke="#703D29" stroke-width="0.0482771"/>
<path d="M32.942 23.4097C33.559 23.3829 34.1957 23.8371 34.2238 24.9707C34.2457 25.8563 33.6177 26.258 33.3163 26.3383" stroke="#703D29" stroke-width="0.050214"/>
<path d="M21.9007 23.2945L21.9026 23.3698M32.5982 27.6772L32.6077 27.5561L32.648 27.3636L32.7051 27.214L32.7692 27.0904L32.8523 26.9907L32.5982 27.6772ZM33.4412 26.7335L33.4318 26.8521L33.3979 26.933L33.3452 27.0102L33.2849 27.0554L33.1927 27.0893L33.1118 27.0949L33.0515 27.0854L33.4412 26.7335ZM31.9687 23.0897L31.995 22.9617L32.0515 22.8431L32.1249 22.7245L32.251 22.5626L32.3508 22.4516L32.5126 22.2878L32.652 22.1466L32.7404 22.045L32.8571 21.9038L32.9607 21.7476L33.0228 21.6196L33.0567 21.4539L33.0669 21.2485L33.0482 21.189L31.9687 23.0897ZM32.1193 30.8867L32.2416 30.8622L32.3339 30.8132L32.3847 30.7624L32.4205 30.7041L32.4449 30.61L32.4468 30.5441L32.1193 30.8867ZM20.4737 29.6248L20.564 29.6323L20.6807 29.6229L20.7974 29.5815L20.4737 29.6248ZM21.1758 26.8163L21.1608 26.9217L21.1363 26.9688L21.1005 27.0139L21.0516 27.0516L20.997 27.076L20.9255 27.0873L20.8765 27.0911L21.1758 26.8163ZM21.6257 25.9093L21.5993 26.0731L21.5673 26.1446L21.5015 26.235L21.4129 26.3028L21.3226 26.3479L21.1475 26.3912L21.6257 25.9093ZM22.305 23.3831L22.2711 23.481L22.2297 23.5526L22.1733 23.6316L22.0942 23.7031L22.0001 23.7483L21.921 23.7671L21.8721 23.7633L22.305 23.3831Z" stroke="#703D29" stroke-width="0.0426601"/>
<path d="M33.2718 29.3235C33.2782 29.3306 33.2999 29.334 33.3075 29.3385C33.4148 29.4026 33.626 29.3228 33.5639 29.1572M22.0416 25.8337C21.9953 25.8758 21.9417 25.909 21.8835 25.932L22.0416 25.8337Z" stroke="#703D29" stroke-width="0.0477928" stroke-linecap="round"/>
<path d="M27.5758 34.3614C27.4779 34.512 27.2445 34.7379 26.9998 34.8282C26.755 34.7379 26.5216 34.512 26.4238 34.3614M32.8988 27.0099C32.975 27.1094 33.1186 27.1352 33.2321 27.1056C33.3179 27.0832 33.3807 27.0292 33.4207 26.9589C33.466 26.8795 33.4797 26.7758 33.4503 26.6768C33.437 26.632 33.4182 26.5942 33.3861 26.5519C33.3539 26.5094 33.3139 26.4641 33.2829 26.4439C33.2747 26.4385 33.2665 26.4312 33.2578 26.4254L32.8988 27.0099ZM33.7438 28.9991C33.7471 28.9814 33.7488 28.9633 33.7488 28.9446C33.7488 28.857 33.7122 28.7767 33.6515 28.7226C33.6308 28.7041 33.6108 28.6754 33.5857 28.6629L33.7438 28.9991ZM33.6218 28.6984C33.6183 28.5574 33.5029 28.4565 33.3598 28.4314L33.6218 28.6984ZM33.0441 28.6461C33.0112 28.6193 32.976 28.5965 32.9452 28.5643C32.76 28.3704 32.6206 28.0837 32.6188 27.7567C32.617 27.4433 32.743 27.1242 32.8898 27L33.0441 28.6461ZM28.6149 33.4046L28.7505 33.2803L28.8446 33.2088L29.0215 33.0996L29.1871 33.0206L29.3038 32.9905L29.5373 32.9377L29.8083 32.8963L28.6149 33.4046Z" stroke="#703D29" stroke-width="0.0477928"/>
<path d="M26.5914 34.0481C26.5607 34.1618 26.505 34.2721 26.4235 34.3605" stroke="#703D29" stroke-width="0.0477928" stroke-linecap="round"/>
<path d="M27.5545 34.3401C27.4566 34.4907 27.2232 34.7166 26.9785 34.8069C26.7338 34.7166 26.5004 34.4907 26.4025 34.3401M26.6156 33.8903L26.5817 34.0559L26.6156 33.8903ZM26.4049 34.3721L26.3334 34.4436L26.2054 34.5151L26.0586 34.5603L26.4049 34.3721ZM25.6316 21.1058C25.65 21.0486 25.6688 21.0055 25.666 20.9114C25.6567 20.5935 25.421 20.4494 25.3268 20.1557C25.2708 19.9808 25.2485 19.8289 25.3765 19.7046C25.4882 19.5962 25.6177 19.5979 25.7635 19.655C26.055 19.7693 26.408 20.0975 27.0241 20.1066C26.408 20.0975 26.0549 19.7692 25.7635 19.655C25.6177 19.5979 25.4762 19.5812 25.3644 19.6896C25.2364 19.8138 25.2708 19.9808 25.3268 20.1557C25.421 20.4494 25.6446 20.5935 25.654 20.9114C25.6567 21.0055 25.6319 21.0486 25.6136 21.1058H25.6316ZM27.0223 20.085C27.6284 20.053 28.1479 19.6458 28.3155 19.6126C28.4649 19.583 28.5484 19.5963 28.6579 19.6959C28.5483 19.5963 28.4235 19.5994 28.2817 19.655C27.9903 19.7692 27.6403 20.0975 27.0242 20.1066L27.0223 20.085ZM33.0466 28.6476C32.7943 28.4669 32.5782 28.1219 32.576 27.7143C32.5742 27.4008 32.7002 27.0818 32.847 26.9576L33.0466 28.6476Z" stroke="#703D29" stroke-width="0.0477928"/>
<path d="M26.005 21.2651C26.0681 21.2302 26.1265 21.197 26.1805 21.1674C26.2603 21.1235 26.3563 21.1327 26.3976 21.1827C26.4441 21.239 26.4513 21.3367 26.3866 21.3965" stroke="#703D29" stroke-width="0.0477928" stroke-linecap="round"/>
<path d="M22.1147 23.6446C22.2493 23.759 22.3142 23.9006 22.3142 24.0775C22.3142 24.3119 22.1181 24.6949 21.6363 24.8305C21.4516 24.8824 21.2688 24.8405 21.1583 24.7733M25.1 21.6888C25.5158 21.602 25.8546 21.4158 26.1108 21.2725L25.1 21.6888ZM28.5525 33.6946C28.5868 33.7181 28.6089 33.7669 28.6089 33.7669C28.6185 33.7896 28.6307 33.8111 28.6342 33.8311C28.6537 33.9463 28.5782 34.0181 28.4849 34.029C28.3566 34.0439 28.2604 33.9677 28.2194 33.8755L28.5525 33.6946ZM25.0786 21.6675C25.4945 21.5807 25.8333 21.3945 26.0895 21.2512L25.0786 21.6675ZM33.4722 29.3395C33.3931 29.37 33.3499 29.3659 33.2515 29.3222C33.2111 29.3043 33.1649 29.2765 33.1107 29.2458C32.918 29.1363 32.6891 28.9638 32.4745 28.561C32.4171 28.4541 32.3737 28.3403 32.3451 28.2224C32.3247 28.1383 32.3105 28.0553 32.3074 27.97C32.3022 27.8247 32.3178 27.6731 32.3541 27.4993C32.414 27.2124 32.486 27.0566 32.6628 26.8142C32.7497 26.6949 32.8247 26.6221 32.9865 26.6184L33.4722 29.3395Z" stroke="#703D29" stroke-width="0.0477928"/>
<path d="M22.1937 24.4387C22.2802 24.499 22.3141 24.5666 22.3141 24.6842C22.3141 24.7648 22.262 24.8693 22.1734 24.9683C22.0282 25.1303 21.782 25.268 21.5092 25.2714C21.3612 25.2733 21.2075 25.2423 21.053 25.139C20.8877 25.0285 20.8007 24.8792 20.7631 24.7324" stroke="#703D29" stroke-width="0.0477928"/>
<path d="M22.3099 23.4591C22.2615 23.599 22.1729 23.6989 22.0327 23.7622C21.893 23.8254 21.7312 23.7664 21.6447 23.6997M22.1859 24.9437C22.284 25.0339 22.3141 25.1468 22.3141 25.2889C22.3141 25.4967 22.2298 25.6569 22.0357 25.8267C21.9902 25.8665 21.9411 25.9018 21.8889 25.9322L22.1859 24.9437ZM31.6815 24.2619V24.5292V24.2619ZM31.6602 24.1961V24.5725V24.1961ZM31.6815 23.3811V23.8743V23.3811ZM31.6602 23.2722V23.9461V23.2722ZM31.5164 30.1472C31.423 30.3329 31.3482 30.4305 31.2002 30.5763C31.0508 30.7236 30.9472 30.7911 30.7597 30.885C30.5771 30.9766 30.462 31.0057 30.2628 31.0507C30.0636 31.0957 29.9471 31.1055 29.7432 31.1147C29.5562 31.1232 29.4501 31.1154 29.2634 31.1024C29.0635 31.0886 28.9526 31.0607 28.7531 31.0432C28.5883 31.0287 28.4952 31.0154 28.3297 31.0158C28.1597 31.0163 28.0622 31.0173 27.8948 31.0469C27.7387 31.0746 27.6501 31.0966 27.5032 31.1561C27.2999 31.2384 27.0703 31.382 27.0213 31.446C26.9724 31.382 26.7427 31.2385 26.5394 31.1561C26.3926 31.0966 26.304 31.0746 26.1479 31.0469C25.9804 31.0173 25.883 31.0162 25.7129 31.0158C25.5474 31.0153 25.4544 31.0287 25.2895 31.0432C25.09 31.0607 24.9792 31.0886 24.7793 31.1024C24.5925 31.1153 24.4865 31.1232 24.2994 31.1147C24.0955 31.1055 23.979 31.0958 23.7799 31.0507C23.5807 31.0056 23.4657 30.9764 23.283 30.8851C23.0953 30.7913 22.9919 30.7236 22.8425 30.5763C22.827 30.5611 22.8117 30.5457 22.7966 30.5302L31.5164 30.1472ZM25.9871 34.5681L26.1226 34.5512L25.9871 34.5681ZM28.413 34.373L28.5498 34.36L28.6801 34.3079L28.7713 34.2525L28.8951 34.1059L28.9211 34.0505L28.9407 33.9235L28.9472 33.8649L28.413 34.373ZM32.4965 23.5225C32.5552 23.3226 32.4835 23.1118 32.2899 23.1174L32.4965 23.5225ZM22.3065 26.6404C22.2574 26.8064 22.1518 26.9198 22.0344 26.9936L22.3065 26.6404Z" stroke="#703D29" stroke-width="0.0477928"/>
<path d="M21.249 24.1927C21.3648 24.2534 21.4824 24.1645 21.4582 24.0138C21.4469 23.9432 21.3708 23.854 21.2678 23.8475" stroke="#703D29" stroke-width="0.0477928" stroke-linecap="round"/>
<path d="M21.7293 30.568C21.7543 30.5915 21.7596 30.622 21.7933 30.6282C21.8442 30.6376 21.8837 30.6564 21.9345 30.5887C21.9971 30.5052 21.9635 30.3752 21.8983 30.2934C21.8286 30.2059 21.6265 30.1285 21.4571 30.2227C21.4004 30.2541 21.3293 30.2956 21.2651 30.3808C21.2408 30.413 21.1997 30.465 21.1785 30.5012C21.1272 30.5889 21.1062 30.6606 21.096 30.6895C20.941 31.13 21.125 31.5932 21.4102 31.8755" stroke="#703D29" stroke-width="0.0477928"/>
<path d="M28.5433 33.6849C28.5613 33.7036 28.5777 33.7237 28.5922 33.7452C28.6018 33.7678 28.6096 33.7893 28.6129 33.8094C28.6325 33.9246 28.557 33.9963 28.4637 34.0072C28.3355 34.0221 28.2496 33.9466 28.2086 33.8544" stroke="#703D29" stroke-width="0.0477928" stroke-linecap="round"/>
<path d="M33.586 28.6626C33.5637 28.5284 33.4498 28.4263 33.3125 28.4263C33.1593 28.4263 33.0351 28.5535 33.0351 28.7105C33.0351 28.7874 33.0649 28.8572 33.1133 28.9083M32.2675 20.5906C32.5206 20.6215 32.7412 20.8631 32.7412 21.1228C32.7412 21.4579 32.6284 21.5827 32.452 21.8223C32.2632 22.0788 31.6463 22.5489 31.6463 23.0835C31.6463 23.4073 31.7367 23.6143 31.9701 23.7197C32.1205 23.7877 32.2965 23.7141 32.3767 23.6418C32.5724 23.4648 32.4941 23.1545 32.2901 23.1174C32.0416 23.0722 31.9949 23.4634 32.2373 23.4374L32.2675 20.5906Z" stroke="#703D29" stroke-width="0.0477928"/>
<path d="M22.0203 25.8391C22.2274 26.001 22.314 26.158 22.314 26.4076C22.314 26.6937 22.1747 26.8706 22.0128 26.9723M31.8457 23.6446C31.7111 23.759 31.6462 23.9006 31.6462 24.0775C31.6462 24.3119 31.8423 24.6949 32.3242 24.8305C32.5089 24.8824 32.6853 24.8775 32.7958 24.8103L31.8457 23.6446ZM20.9904 24.0281C20.8752 24.0665 20.7314 24.1384 20.6248 24.2893C20.5349 24.4167 20.4825 24.5937 20.4501 24.7486C20.4359 24.8164 20.419 25.031 20.4623 25.2527C20.4943 25.4164 20.5619 25.5688 20.6367 25.6791C20.6635 25.7187 20.6878 25.7453 20.7152 25.7727C20.7402 25.7977 20.7758 25.8199 20.8011 25.8391L20.9904 24.0281ZM25.6443 32.8032C26.0111 32.9658 26.28 33.0877 26.5081 33.4477C26.5796 33.5607 26.5984 33.7225 26.5984 33.8167C26.5984 34.0199 26.5156 34.2496 26.3461 34.3926C26.189 34.5254 26.0337 34.5658 25.8417 34.547C25.6961 34.5327 25.5594 34.4265 25.5368 34.3512L25.6443 32.8032Z" stroke="#703D29" stroke-width="0.0477928"/>
<path d="M21.832 26.7693C22.1407 27.1533 22.3045 27.3812 22.3139 27.8385C22.3226 28.2676 22.1858 28.5613 21.9299 28.87" stroke="#703D29" stroke-width="0.0477928" stroke-linecap="round"/>
<path d="M31.6815 28.2137V29.436H31.6848C31.6848 29.4368 31.6843 29.5516 31.6745 29.6242C31.6681 29.6718 31.6613 29.7147 31.6537 29.7551M27.7511 21.6927C27.8073 21.6559 27.8484 21.5968 27.872 21.5239C27.9085 21.4114 27.9093 21.3153 27.8491 21.2288C27.9233 21.326 27.9302 21.4082 27.9092 21.5262C27.896 21.6013 27.848 21.6409 27.7883 21.6949L27.7511 21.6927Z" stroke="#703D29" stroke-width="0.0477928"/>
<path d="M22.4823 30.1031C22.5145 30.3425 22.4139 30.5777 22.3117 30.6859C22.2477 30.7537 22.1083 30.8831 21.9352 30.8854C21.6491 30.8891 21.5637 30.6924 21.5464 30.6445M31.6603 28.096V29.4142H31.6635C31.6635 29.4151 31.6631 29.5299 31.6532 29.6025C31.643 29.6781 31.6321 29.7423 31.6179 29.8022L31.6603 28.096ZM31.6603 26.5528V27.6521V26.5528ZM31.6816 26.6395V27.5335V26.6395ZM31.6816 25.5025V26.1728V25.5025ZM31.6603 25.4236V26.2499V25.4236ZM31.6816 24.8174V25.0774V24.8174ZM31.6603 24.7646V25.1411V24.7646ZM31.5208 30.0736C31.5128 30.0906 31.5042 30.108 31.4951 30.1261C31.4017 30.3118 31.327 30.4094 31.1789 30.5553C31.0295 30.7025 30.926 30.77 30.7384 30.864C30.5558 30.9555 30.4407 30.9846 30.2415 31.0296C30.0424 31.0746 29.9259 31.0844 29.7219 31.0936C29.535 31.1021 29.4289 31.0942 29.2421 31.0813C29.0423 31.0675 28.9314 31.0396 28.7319 31.0221C28.567 31.0076 28.4739 30.9943 28.3085 30.9947C28.1384 30.9952 28.041 30.9962 27.8735 31.0259C27.7174 31.0535 27.6289 31.0755 27.4819 31.135C27.2787 31.2173 27.0491 31.3609 27.0001 31.4249C26.9511 31.3609 26.7215 31.2174 26.5182 31.135C26.3713 31.0755 26.2828 31.0535 26.1267 31.0259C25.9592 30.9962 25.8618 30.9951 25.6917 30.9947C25.5262 30.9942 25.4331 31.0076 25.2683 31.0221C25.0687 31.0396 24.9579 31.0675 24.758 31.0813C24.5713 31.0942 24.4652 31.1021 24.2782 31.0936C24.0742 31.0844 23.9578 31.0747 23.7587 31.0297C23.5594 30.9845 23.4444 30.9554 23.2617 30.864C23.0741 30.7702 22.9707 30.7025 22.8213 30.5553C22.743 30.4782 22.6853 30.4146 22.6344 30.3444L31.5208 30.0736Z" stroke="#703D29" stroke-width="0.0477928"/>
<path d="M27.601 34.3817C27.6184 34.4007 27.6371 34.4186 27.6569 34.4354C27.8141 34.5681 27.9694 34.6086 28.1614 34.5898C28.307 34.5755 28.4227 34.4783 28.4694 34.394C28.4694 34.394 28.4955 34.3659 28.5029 34.339M22.1423 29.9792C22.1954 30.0316 22.2426 30.0956 22.2824 30.1712C22.3539 30.3067 22.3319 30.5334 22.2752 30.638C22.269 30.6495 22.2613 30.6617 22.2522 30.6742L22.1423 29.9792ZM20.7206 32.0371C20.8908 32.2157 21.1481 32.4096 21.5433 32.5723C22.0838 32.7948 22.9137 32.8461 23.4859 32.8686C24.2469 32.8987 24.948 32.9299 25.3749 33.4012L20.7206 32.0371ZM26.6887 33.0932C26.8145 33.217 26.9428 33.3496 26.997 33.5192L26.6887 33.0932ZM26.4413 34.3856C26.4248 34.4031 26.4074 34.4199 26.3888 34.4355C26.2316 34.5682 26.0763 34.6087 25.8844 34.5898C25.7387 34.5755 25.5983 34.4664 25.5606 34.3949L26.4413 34.3856ZM25.1556 34.175C25.1627 34.1846 25.17 34.1939 25.1778 34.2029C25.2692 34.3094 25.4135 34.3761 25.5641 34.3885L25.1556 34.175ZM27.5971 34.3827C27.4992 34.5333 27.2658 34.7591 27.0211 34.8495C26.7764 34.7591 26.543 34.5333 26.4451 34.3827L26.4222 34.3475L27.5971 34.3827Z" stroke="#703D29" stroke-width="0.0477928"/>
<path d="M28.4542 34.3513L28.398 34.4417L28.3125 34.5125L28.183 34.5663L28.0658 34.5711" stroke="#703D29" stroke-width="0.0477928"/>
<path d="M30.7117 20.4496C30.776 20.4934 30.8415 20.5605 30.877 20.6463C31.0178 20.9862 30.7114 21.2411 30.429 21.4332C30.2266 21.5708 30.008 21.6443 29.8011 21.6815M28.7583 33.4907C28.8276 33.5439 28.8956 33.6244 28.9326 33.7103C28.9563 33.7655 28.9674 33.8263 28.9707 33.8894C28.9771 34.0089 28.9351 34.1189 28.8631 34.2028C28.7663 34.3155 28.6155 34.3836 28.4549 34.39C28.443 34.3905 28.4311 34.3906 28.4194 34.39L28.7583 33.4907ZM28.4334 34.3686C28.2799 34.3748 28.1427 34.309 28.0416 34.2052L28.4334 34.3686ZM32.8592 29.0703C32.7394 28.9599 32.6153 28.8069 32.4957 28.5823C32.4383 28.4754 32.3948 28.3617 32.3663 28.2438C32.3458 28.1597 32.3316 28.0766 32.3285 27.9914C32.3234 27.8462 32.3389 27.6945 32.3752 27.5207C32.4351 27.2338 32.5419 27.0118 32.684 26.8355C32.7324 26.7753 32.7883 26.7003 32.8413 26.6666L32.8592 29.0703ZM32.7372 20.9305C32.9292 20.9455 33.1071 21.1523 33.1047 21.3549C33.1013 21.6492 33.0026 21.7708 32.7711 22.0592C32.5716 22.3076 31.973 22.7443 31.988 23.1622C31.9907 23.2364 32.0306 23.3131 32.0753 23.3748L32.7372 20.9305ZM31.836 23.6368C31.8786 23.6788 31.93 23.7135 31.9913 23.7412C32.1008 23.7906 32.2238 23.7652 32.3135 23.7198L31.836 23.6368Z" stroke="#703D29" stroke-width="0.0477928"/>
<path d="M28.9723 21.2874C28.9365 21.2694 28.8982 21.2433 28.8724 21.2145C28.8053 21.1395 28.7605 21.0378 28.8122 20.8827C28.86 20.7392 29.0905 20.3368 29.1018 20.0582C29.1191 19.6326 28.9553 19.3814 28.6993 19.2834M30.3882 21.1048C30.3197 21.1041 30.2383 21.0846 30.1499 20.9915C30.1296 20.9701 30.1057 20.9418 30.0964 20.9163L30.3882 21.1048Z" stroke="#703D29" stroke-width="0.0477928"/>
<path d="M31.653 30.5941C31.6661 30.6261 31.6982 30.6574 31.6982 30.6574C31.7471 30.7391 31.9374 30.8828 32.1104 30.885C32.3966 30.8888 32.4645 30.6886 32.4718 30.6441C32.508 30.4258 32.4333 30.366 32.3213 30.3045C32.3213 30.3045 32.2553 30.2704 32.1763 30.2836M29.0803 19.963L29.0703 20.123L29.027 20.2864L28.9436 20.5098L28.8803 20.6531L28.8136 20.7965L28.7803 20.8965L28.7669 20.9699L28.7769 21.0399L29.0803 19.963Z" stroke="#703D29" stroke-width="0.0477928" stroke-linecap="round"/>
<path d="M22.215 24.4542C22.2517 24.4799 22.2819 24.5137 22.3033 24.5531M20.7299 29.6388C20.6288 29.6647 20.534 29.6653 20.4511 29.6404C20.2369 29.5762 20.0634 29.371 20.1518 29.116L20.7299 29.6388ZM21.1647 26.7083C21.1861 26.7298 21.1931 26.7619 21.1963 26.7891C21.2294 27.0667 20.9862 27.1476 20.813 27.1024C20.7272 27.08 20.625 27.0004 20.5849 26.93C20.5547 26.8769 20.5386 26.8168 20.5383 26.7557L21.1647 26.7083ZM22.2072 24.9651C22.248 25.002 22.28 25.0476 22.3007 25.0986L22.2072 24.9651Z" stroke="#703D29" stroke-width="0.0477928"/>
<path d="M22.3123 24.8096C22.2889 24.8672 22.2485 24.9295 22.1946 24.9896C22.0495 25.1517 21.8032 25.2894 21.5305 25.2928C21.3824 25.2946 21.2288 25.2637 21.0742 25.1603C20.909 25.0498 20.8012 24.8926 20.7654 24.7383" stroke="#703D29" stroke-width="0.0477928" stroke-linecap="round"/>
<path d="M22.1283 23.6567C22.2121 23.7279 22.2765 23.8187 22.3074 23.9131" stroke="#703D29" stroke-width="0.0477928"/>
<path d="M22.3099 24.2585C22.2429 24.48 22.0431 24.754 21.6575 24.8516C21.4733 24.8983 21.2361 24.84 21.1552 24.771" stroke="#703D29" stroke-width="0.0477928" stroke-linecap="round"/>
<path d="M20.9637 24.2067C20.9839 24.4062 21.1174 24.5558 21.3705 24.5606C21.7264 24.5673 21.9428 24.0486 21.6265 23.6844" stroke="#703D29" stroke-width="0.0477928"/>
<path d="M21.187 26.408C21.5051 26.3698 21.6844 26.1328 21.6488 25.8555C21.6217 25.6443 21.4279 25.4818 21.2961 25.4724M20.1628 25.9451C20.2148 26.0103 20.276 26.0691 20.3386 26.1212C20.4655 26.2268 20.6152 26.3198 20.7876 26.3707L20.1628 25.9451Z" stroke="#703D29" stroke-width="0.0477928" stroke-linecap="round"/>
<path d="M21.7061 23.1139C21.8441 23.1088 21.9225 23.2341 21.9212 23.3397" stroke="#703D29" stroke-width="0.0477928"/>
<path d="M32.9628 24.0034C33.0928 24.1816 33.0077 24.5328 32.6539 24.5394C32.5157 24.5421 32.3909 24.4655 32.3179 24.3494M21.6736 21.2201C21.7491 21.4178 21.8965 21.5724 22.0542 21.6607L21.6736 21.2201Z" stroke="#703D29" stroke-width="0.0477928" stroke-linecap="round"/>
<path d="M31.6815 21.6772V22.8725" stroke="#703D29" stroke-width="0.0477928"/>
<path d="M31.1005 20.2937C31.3047 20.1828 31.4622 20.2033 31.5786 20.3649C31.7051 20.5405 31.7232 20.7742 31.6953 20.9111C31.6539 21.1144 31.5952 21.1988 31.4335 21.3463M21.2451 24.1898C21.3543 24.2688 21.4945 24.1354 21.4402 23.9937C21.4036 23.898 21.2677 23.7949 21.0795 23.9228C20.8715 24.0642 20.9289 24.5102 21.3279 24.5177C21.6838 24.5244 21.9002 24.0056 21.5839 23.6415C21.2797 23.2913 20.7255 23.3732 20.3641 23.6607C20.2103 23.783 19.9199 24.1035 19.8295 24.5403C19.8015 24.6762 19.7833 24.7878 19.7854 24.9243C19.7868 25.0142 19.7951 25.1149 19.822 25.2405C19.8764 25.4942 19.9658 25.6801 20.0547 25.8092C20.0888 25.8587 20.1199 25.8998 20.1533 25.9332C20.2153 25.9952 20.2338 26.0279 20.2964 26.08C20.5009 26.2502 20.7644 26.3836 21.087 26.3699C21.4408 26.3548 21.6442 26.1064 21.6065 25.8127C21.57 25.528 21.2826 25.3864 21.0945 25.5191C20.9665 25.6094 20.9209 25.8892 21.1472 25.9557C21.2752 25.9934 21.3881 25.8315 21.2978 25.7374L21.2451 24.1898Z" stroke="#703D29" stroke-width="0.0477928" stroke-linecap="round"/>
<path d="M31.5934 20.3843C31.8268 20.23 32.0796 20.2955 32.2183 20.501C32.32 20.6516 32.346 20.7776 32.3388 20.964C32.3265 21.2836 32.1265 21.537 31.9059 21.6605" stroke="#703D29" stroke-width="0.0477928" stroke-linecap="round"/>
<path d="M32.6926 20.9227C32.8846 20.9377 33.039 21.1116 33.039 21.3143C33.039 21.6041 32.958 21.7299 32.7264 22.0183C32.5269 22.2667 31.9283 22.7035 31.9435 23.1213C31.9491 23.2793 32.0823 23.4282 32.1972 23.4366" stroke="#703D29" stroke-width="0.0477928"/>
<path d="M32.7154 24.1898C32.6062 24.2688 32.4669 24.1412 32.5272 24.0056C32.5688 23.9121 32.6928 23.7949 32.881 23.9228C33.0889 24.0642 33.0316 24.5102 32.6326 24.5177C32.2767 24.5244 32.0362 24.019 32.3766 23.6415C32.6873 23.297 33.2634 23.3644 33.6248 23.6519C33.7786 23.7743 34.088 24.1103 34.1544 24.5513C34.2346 25.0849 34.2243 25.7412 33.6732 26.1454C33.4516 26.3079 33.1445 26.3818 32.8734 26.37C32.5196 26.3545 32.3163 26.1064 32.3539 25.8128C32.3904 25.528 32.6646 25.4076 32.8659 25.5191C33.0751 25.6349 33.0386 25.929 32.8132 25.9558C32.6808 25.9715 32.5723 25.8315 32.6627 25.7374" stroke="#703D29" stroke-width="0.0477928" stroke-linecap="round"/>
<path d="M32.527 24.0058C32.5857 23.7417 32.8119 23.7171 32.9946 23.7198C33.4932 23.7271 33.838 24.3185 33.8437 24.8905C33.851 25.6131 33.537 26.0387 33.0089 26.0613C32.8722 26.0671 32.6368 26.0022 32.6327 25.8354" stroke="#703D29" stroke-width="0.0477928"/>
<path d="M32.834 23.8876C33.3598 24.0045 33.5443 24.4782 33.5443 24.9303C33.5443 25.299 33.5078 25.8029 32.7902 25.9802" stroke="#703D29" stroke-width="0.0477928" stroke-linecap="square"/>
<path d="M33.7012 28.9565C33.7109 28.9051 33.7067 28.8519 33.689 28.8026C33.6714 28.7533 33.641 28.7096 33.6009 28.6759C33.5609 28.6422 33.5125 28.6198 33.4609 28.6109C33.4093 28.602 33.3563 28.6069 33.3073 28.6253C33.2582 28.6436 33.2149 28.6747 33.1818 28.7152C33.1487 28.7558 33.127 28.8044 33.1188 28.8562C33.1107 28.9079 33.1164 28.9609 33.1355 29.0096C33.1545 29.0584 33.1862 29.1012 33.2273 29.1337" stroke="#703D29" stroke-width="0.0477928"/>
<path d="M33.0233 29.754C32.7754 29.5914 32.3049 29.3782 31.8794 29.588C31.7216 29.6659 31.6159 29.7622 31.5562 29.9192C31.4487 30.202 31.5688 30.5136 31.6912 30.6431C31.7552 30.7109 31.8946 30.8404 32.0676 30.8426C32.3538 30.8464 32.4218 30.6462 32.4291 30.6017C32.463 30.3947 32.3425 30.3118 32.2785 30.2892C32.2294 30.2719 32.0697 30.2764 32.0358 30.3892C32.0245 30.4269 32.0225 30.4925 32.0526 30.5415M32.6466 28.5086C32.7455 28.6554 32.8653 28.8187 33.1183 28.9559L32.6466 28.5086Z" stroke="#703D29" stroke-width="0.0477928" stroke-linecap="round"/>
<path d="M28.5626 33.73C28.6417 33.8919 28.5518 33.9733 28.4422 33.986C28.2803 34.0048 28.1937 33.8768 28.1824 33.7601C28.1641 33.5709 28.3236 33.3994 28.5137 33.4025C28.6849 33.4052 28.8243 33.5157 28.8897 33.6677C28.9134 33.7229 28.9244 33.7837 28.9278 33.8467C28.9342 33.9662 28.8922 34.0763 28.8202 34.1602C28.7234 34.2728 28.5726 34.3409 28.412 34.3474C28.0925 34.3602 27.8436 34.0613 27.8436 33.7563C27.8436 33.1729 28.709 32.8546 29.052 32.7727C29.4737 32.6721 29.7302 32.6344 30.4074 32.5968C30.6784 32.5818 30.8769 32.5894 31.1754 32.5585C31.4425 32.5308 31.582 32.5178 31.8568 32.4538C32.1997 32.3739 32.5194 32.2316 32.8055 31.9719C33.0258 31.7718 33.1518 31.6293 33.2538 31.3545C33.3418 31.1173 33.3823 30.6477 33.1594 30.3003C32.9623 29.9933 32.6888 29.8339 32.3763 29.7888C32.094 29.7479 31.8465 29.8697 31.6987 30.1498C31.6271 30.2854 31.6492 30.512 31.7058 30.6166C31.7547 30.707 31.8945 30.8403 32.0676 30.8425C32.3537 30.8463 32.4217 30.6461 32.429 30.6016C32.4629 30.3945 32.3424 30.3117 32.2784 30.2891C32.2293 30.2718 32.0696 30.2762 32.0357 30.3891C32.0244 30.4268 32.0224 30.4924 32.0525 30.5413" stroke="#703D29" stroke-width="0.0477928" stroke-linecap="round"/>
<path d="M28.3162 32.8032C27.9493 32.9658 27.6804 33.0876 27.4524 33.4477C27.3808 33.5606 27.362 33.7225 27.362 33.8166C27.362 34.0199 27.4448 34.2495 27.6143 34.3926C27.7715 34.5254 27.9267 34.5657 28.1187 34.5469C28.2643 34.5327 28.4011 34.4265 28.4237 34.3512" stroke="#703D29" stroke-width="0.0477928" stroke-linecap="round"/>
<path d="M31.9396 25.8391C31.768 25.8963 31.646 26.158 31.646 26.4075C31.646 26.6937 31.7853 26.8706 31.9472 26.9722" stroke="#703D29" stroke-width="0.0477928"/>
<path d="M32.128 26.7693C31.8193 27.1533 31.6555 27.3812 31.6461 27.8385C31.6373 28.2676 31.7741 28.5613 32.0301 28.87" stroke="#703D29" stroke-width="0.0477928" stroke-linecap="round"/>
<path d="M30.4826 20.3858L30.5091 20.3466C30.6371 20.1583 30.8632 20.1088 31.0287 20.2336C31.2282 20.3842 31.2785 20.6405 31.2244 20.9113C31.1905 21.0807 31.0756 21.2218 30.9181 21.3239" stroke="#703D29" stroke-width="0.0477928"/>
<path d="M22.86 20.2937C22.6642 20.2034 22.503 20.2208 22.3818 20.3649C22.2425 20.5306 22.2373 20.7742 22.2651 20.9111C22.3065 21.1144 22.3653 21.1988 22.527 21.3463" stroke="#703D29" stroke-width="0.0477928" stroke-linecap="round"/>
<path d="M22.3665 20.3843C22.1331 20.23 21.8803 20.2955 21.7416 20.501C21.6399 20.6516 21.6139 20.7776 21.6211 20.964C21.6334 21.2836 21.8334 21.537 22.0541 21.6605" stroke="#703D29" stroke-width="0.0477928"/>
<path d="M21.693 20.5906C21.4398 20.6215 21.2378 20.836 21.2378 21.0958C21.2378 21.4308 21.3203 21.5663 21.5085 21.8223C21.6972 22.0789 22.3141 22.5489 22.3141 23.0835C22.3141 23.4073 22.2238 23.6143 21.9904 23.7197C21.8399 23.7877 21.6639 23.7141 21.5838 23.6418C21.388 23.4648 21.4663 23.1545 21.6704 23.1174C21.9188 23.0722 21.9655 23.4634 21.7231 23.4374" stroke="#703D29" stroke-width="0.0477928"/>
<path d="M21.2674 20.9227C21.0754 20.9377 20.8864 21.103 20.8864 21.3057C20.8864 21.5955 21.0019 21.7299 21.2335 22.0182C21.433 22.2667 21.9967 22.6948 21.9816 23.1127C21.976 23.2707 21.8698 23.4639 21.7643 23.4413" stroke="#703D29" stroke-width="0.0477928"/>
<path d="M20.8156 26.7465C20.9059 26.5281 21.1393 26.626 21.1537 26.7465C21.1868 27.024 20.9435 27.1079 20.7704 27.0627C20.6846 27.0404 20.6218 26.9863 20.5817 26.916C20.5365 26.8366 20.5228 26.7329 20.5522 26.634C20.5655 26.5891 20.5843 26.5513 20.6164 26.509C20.6486 26.4665 20.682 26.4373 20.7132 26.4175C20.7798 26.3749 20.8524 26.3707 20.9661 26.3707C21.3878 26.3707 21.7567 26.8689 21.8807 27.3865C21.9215 27.5569 21.9775 27.937 21.8998 28.2975C21.817 28.6815 21.651 28.9474 21.4563 29.1491C21.3509 29.2582 21.2071 29.3554 21.021 29.4607C20.9636 29.4931 20.8118 29.5604 20.7064 29.5906C20.5981 29.6215 20.4964 29.6239 20.4082 29.5974C20.1941 29.5332 20.0566 29.3331 20.1681 29.073C20.2548 28.8706 20.5747 28.7719 20.7177 29.0203C20.7298 29.0415 20.7487 29.0874 20.7481 29.1371C20.7474 29.2033 20.7198 29.2832 20.6725 29.3134C20.5638 29.3825 20.3898 29.3629 20.3979 29.1709" stroke="#703D29" stroke-width="0.0477928" stroke-linecap="round"/>
<path d="M20.2592 28.9565C20.2496 28.9051 20.2538 28.852 20.2714 28.8026C20.289 28.7533 20.3194 28.7096 20.3595 28.6759C20.3996 28.6422 20.4479 28.6198 20.4995 28.6109C20.5511 28.602 20.6041 28.607 20.6532 28.6253C20.7022 28.6436 20.7455 28.6747 20.7786 28.7152C20.8117 28.7558 20.8335 28.8044 20.8416 28.8562C20.8497 28.9079 20.844 28.9609 20.8249 29.0096C20.8059 29.0584 20.7742 29.1012 20.7332 29.1338M20.4882 29.3395C20.5673 29.3701 20.6106 29.3659 20.7089 29.3222C20.7493 29.3043 20.7955 29.2766 20.8497 29.2458C21.0424 29.1363 21.2713 28.9638 21.4859 28.561C21.5433 28.4541 21.5868 28.3403 21.6153 28.2224C21.6358 28.1383 21.6499 28.0553 21.653 27.97C21.6583 27.8248 21.6426 27.6731 21.6064 27.4994C21.5465 27.2124 21.4744 27.0566 21.2976 26.8142C21.2107 26.6949 21.1357 26.6221 20.9739 26.6184L20.4882 29.3395Z" stroke="#703D29" stroke-width="0.0477928"/>
<path d="M20.374 28.6626C20.3962 28.5284 20.5102 28.4263 20.6475 28.4263C20.8007 28.4263 20.9249 28.5535 20.9249 28.7105C20.9251 28.784 20.8971 28.8548 20.8467 28.9083" stroke="#703D29" stroke-width="0.0477928"/>
<path d="M20.9134 28.6476C21.1656 28.4669 21.3817 28.1219 21.384 27.7143C21.3857 27.4008 21.2598 27.0818 21.1129 26.9576" stroke="#703D29" stroke-width="0.0477928"/>
<path d="M21.3139 28.5086C21.2149 28.6554 21.0952 28.8187 20.8422 28.9559" stroke="#703D29" stroke-width="0.0477928" stroke-linecap="round"/>
<path d="M22.0653 29.5884C21.9952 29.4234 21.8557 29.347 21.6286 29.3228C21.4029 29.2987 21.2074 29.3608 21.0074 29.4683C20.6172 29.6782 20.3995 29.9039 20.2545 30.3225C20.2177 30.4288 20.1871 30.5891 20.1914 30.7593C20.1982 31.0307 20.2671 31.3273 20.3411 31.4708C20.4056 31.5959 20.5744 32.1484 21.5006 32.5297C22.041 32.7522 22.8709 32.8034 23.4432 32.826C24.2303 32.8571 24.9566 32.8863 25.3782 33.4058" stroke="#703D29" stroke-width="0.0477928"/>
<path d="M20.9366 29.754C21.1846 29.5914 21.6551 29.3782 22.0806 29.588C22.2384 29.6659 22.3441 29.7622 22.4038 29.9192C22.5113 30.202 22.3911 30.5136 22.2688 30.6431C22.2048 30.7109 22.0654 30.8404 21.8923 30.8426C21.6062 30.8464 21.5382 30.6462 21.5309 30.6017C21.497 30.3946 21.6175 30.3118 21.6815 30.2892C21.7306 30.2719 21.8903 30.2764 21.9242 30.3892C21.9355 30.4269 21.9375 30.4925 21.9074 30.5415" stroke="#703D29" stroke-width="0.0477928" stroke-linecap="round"/>
<path d="M21.9225 30.4997C21.9451 30.4169 21.9335 30.33 21.8585 30.2475C21.7832 30.1647 21.5837 30.0856 21.4142 30.1797C21.3576 30.2112 21.2865 30.2527 21.2223 30.3379C21.1979 30.3701 21.1569 30.4221 21.1357 30.4583C21.0843 30.546 21.0633 30.6177 21.0532 30.6465C20.867 31.1757 21.17 31.7376 21.5498 31.9792C21.8811 32.1901 22.2199 32.2503 22.6378 32.2879C22.8312 32.3053 22.9408 32.3091 23.1348 32.3181C23.2909 32.3253 23.4257 32.3227 23.5527 32.3212C23.6571 32.3199 23.7562 32.3204 23.8575 32.3181C24.0229 32.3142 24.1941 32.3103 24.4035 32.3256C24.6238 32.3416 24.7895 32.3473 24.9757 32.3783C25.0973 32.3986 25.2399 32.4181 25.3894 32.4517C25.4342 32.4617 25.4797 32.4699 25.5254 32.4837C25.5561 32.493 25.5864 32.5024 25.6165 32.5115C25.8862 32.5938 26.1484 32.6941 26.3553 32.8273C26.4192 32.8685 26.4928 32.9082 26.543 32.9584C26.5815 32.9969 26.6143 33.0192 26.6458 33.0503C26.7906 33.1927 26.9387 33.347 26.9733 33.5558C26.9797 33.5943 26.9797 33.6346 26.9797 33.6772C26.9797 33.8126 26.8694 33.9971 26.5719 34.0574" stroke="#703D29" stroke-width="0.0477928"/>
<path d="M25.3973 33.73C25.3182 33.8919 25.4081 33.9733 25.5178 33.986C25.6796 34.0048 25.7662 33.8768 25.7775 33.7601C25.7959 33.5709 25.6364 33.3994 25.4462 33.4025C25.275 33.4052 25.1356 33.5157 25.0703 33.6677C25.0465 33.7229 25.0355 33.7837 25.0321 33.8467C25.0257 33.9662 25.0677 34.0763 25.1397 34.1602C25.2364 34.2728 25.3873 34.3409 25.5479 34.3474C25.8675 34.3602 26.1164 34.0613 26.1164 33.7563C26.1164 33.1729 25.2509 32.8546 24.9079 32.7727C24.4862 32.6721 24.2297 32.6344 23.5526 32.5968C23.2815 32.5818 23.083 32.5894 22.7846 32.5585C22.5175 32.5308 22.378 32.5178 22.1031 32.4538C21.7601 32.3739 21.4405 32.2316 21.1544 31.9719C20.9341 31.7718 20.8081 31.6293 20.706 31.3545C20.6181 31.1173 20.5776 30.6477 20.8005 30.3003C20.9976 29.9933 21.2711 29.8339 21.5836 29.7888C21.8659 29.7479 22.1134 29.8697 22.2613 30.1498C22.3328 30.2854 22.3108 30.512 22.2541 30.6166C22.2052 30.707 22.0654 30.8403 21.8923 30.8425C21.6062 30.8463 21.5382 30.6461 21.5309 30.6016C21.497 30.3945 21.6175 30.3117 21.6815 30.2891C21.7306 30.2718 21.8903 30.2762 21.9242 30.3891C21.9355 30.4268 21.9375 30.4924 21.9074 30.5413" stroke="#703D29" stroke-width="0.0477928"/>
<path d="M23.4774 20.3858C23.4686 20.3727 23.4597 20.3596 23.4509 20.3466C23.3229 20.1583 23.0968 20.1088 22.9313 20.2336C22.7318 20.3842 22.6815 20.6405 22.7356 20.9113C22.7695 21.0807 22.8844 21.2218 23.0418 21.3239" stroke="#703D29" stroke-width="0.0477928" stroke-linecap="round"/>
<path d="M30.5504 20.9567C30.2454 21.288 29.9405 21.3937 29.4849 21.4084C29.3427 21.413 29.0708 21.3633 28.9127 21.2507C28.8111 21.1783 28.6981 21.0546 28.7696 20.84C28.8174 20.6965 29.0479 20.2941 29.0592 20.0155C29.0764 19.5898 28.9127 19.3566 28.6567 19.2663C28.1834 19.0992 27.6753 19.567 27.3692 19.6691C27.2091 19.7224 27.1275 19.7288 26.9814 19.7293C26.8353 19.7288 26.7508 19.7225 26.5907 19.6691C26.2846 19.567 25.7765 19.0992 25.3032 19.2662C25.0472 19.3566 24.8835 19.5898 24.9007 20.0155C24.912 20.294 25.1424 20.6965 25.1903 20.84C25.2618 21.0545 25.1488 21.1783 25.0472 21.2506C24.8891 21.3633 24.6172 21.413 24.4749 21.4084C24.0194 21.3937 23.7144 21.288 23.4095 20.9567" stroke="#703D29" stroke-width="0.0477928"/>
<path d="M25.2985 32.67C25.3589 32.6936 25.3132 32.6558 25.6953 32.8251C26.0622 32.9878 26.3226 33.1302 26.5506 33.4903C26.6221 33.6032 26.641 33.7651 26.641 33.8592C26.641 33.9199 26.6336 33.9829 26.6188 34.0452" stroke="#703D29" stroke-width="0.0477928" stroke-linecap="round"/>
<path d="M25.3232 34.3062C25.3999 34.3442 25.4837 34.3654 25.5692 34.3687C25.8888 34.3815 26.1377 34.0825 26.1377 33.7776C26.1377 33.5662 26.0226 33.3881 25.8614 33.2449" stroke="#703D29" stroke-width="0.0477928"/>
<path d="M25.3924 33.7295C25.3152 33.9015 25.4252 33.9946 25.5348 34.0073C25.6967 34.0262 25.7878 33.8981 25.7991 33.7814C25.8114 33.6545 25.7436 33.5311 25.6403 33.4674" stroke="#703D29" stroke-width="0.0477928" stroke-linecap="round"/>
<path d="M32.3173 20.5935C32.5603 20.5935 32.7722 20.8639 32.7722 21.1415C32.7722 21.4613 32.6021 21.6571 32.4774 21.8051C32.3771 21.9242 32.2684 22.0309 32.1393 22.1609" stroke="#703D29" stroke-width="0.0477928"/>
<path d="M20.4907 28.8737C20.5845 28.872 20.678 28.9353 20.7392 29.0416C20.7513 29.0627 20.7702 29.1086 20.7696 29.1583C20.7688 29.2246 20.7398 29.2954 20.6925 29.3255C20.5838 29.3948 20.3907 29.365 20.3988 29.173M32.0292 20.3373C32.1118 20.3756 32.1844 20.4404 32.2397 20.5222C32.3413 20.6728 32.3672 20.7988 32.3601 20.9853C32.348 21.3049 32.1181 21.5262 31.9124 21.6612L32.0292 20.3373ZM31.5513 20.3373C31.5681 20.3516 31.5842 20.368 31.5997 20.3864C31.739 20.5521 31.7498 20.7969 31.7164 20.9327C31.6663 21.1367 31.5989 21.2246 31.4333 21.3466L31.5513 20.3373ZM31.0501 20.2535C31.2496 20.4041 31.309 20.6646 31.2428 20.9327C31.1956 21.1243 31.0752 21.2391 30.925 21.3306L31.0501 20.2535ZM31.7668 24.4387C31.7906 24.5087 31.83 24.5331 31.8797 24.585C31.9876 24.6981 32.1458 24.7954 32.3457 24.8515C32.5303 24.9035 32.6967 24.8645 32.8236 24.7853L31.7668 24.4387Z" stroke="#703D29" stroke-width="0.0477928" stroke-linecap="round"/>
<path d="M20.6587 28.4282C20.8119 28.4282 20.946 28.575 20.946 28.732C20.9463 28.8055 20.9183 28.8763 20.8678 28.9298M21.0737 26.3814C21.4467 26.451 21.8058 26.9009 21.9233 27.3917C21.9641 27.5622 22.0202 27.9424 21.9425 28.3028C21.8597 28.6868 21.6937 28.9526 21.4989 29.1543C21.4528 29.2021 21.3992 29.2477 21.338 29.2926L21.2584 29.3465L21.0737 26.3814Z" stroke="#703D29" stroke-width="0.0477928"/>
<path d="M20.5551 28.6064C20.7147 28.6064 20.8666 28.7602 20.8666 28.9234C20.8666 29.0174 20.8227 29.101 20.7544 29.1552" stroke="#703D29" stroke-width="0.0477928"/>
<path d="M22.3016 28.2278C22.278 28.334 22.2411 28.4368 22.192 28.5339C22.1304 28.6564 22.0229 28.7928 21.9232 28.8851M22.0184 27.0012C22.1649 27.198 22.2617 27.3673 22.3067 27.5857L22.0184 27.0012Z" stroke="#703D29" stroke-width="0.0477928" stroke-linecap="round"/>
<path d="M22.0416 25.8546C22.183 25.9651 22.2681 26.0793 22.308 26.2162" stroke="#703D29" stroke-width="0.0477928"/>
<path d="M21.3642 24.535L21.5273 24.4921L21.6239 24.4191L21.6861 24.3311L21.7398 24.1938L21.7613 24.0822M22.3118 25.4865C22.2747 25.6154 22.1905 25.7129 22.0568 25.8348L22.3118 25.4865Z" stroke="#703D29" stroke-width="0.0477928" stroke-linecap="round"/>
<path d="M21.0339 23.9608C20.9825 23.9736 20.9172 23.9927 20.8488 24.0253C20.7571 24.069 20.6598 24.1369 20.5822 24.2469C20.4923 24.3742 20.4399 24.5513 20.4074 24.7061C20.3932 24.7739 20.3763 24.9885 20.4197 25.2102C20.4517 25.3739 20.5193 25.5262 20.594 25.6367C20.6208 25.6762 20.6452 25.7103 20.6725 25.7377C20.7704 25.8356 20.8608 25.8958 21.0113 25.8657" stroke="#703D29" stroke-width="0.0477928"/>
<path d="M21.9477 23.2427C21.9212 23.3399 21.869 23.4602 21.7165 23.4471" stroke="#703D29" stroke-width="0.0477928" stroke-linecap="round"/>
<path d="M21.3904 23.9022C21.2439 23.759 20.9337 23.7218 20.6254 23.9168C20.5857 23.9419 20.5461 23.9741 20.5069 24.0068C20.4644 24.0422 20.4306 24.0828 20.3979 24.127C20.3623 24.175 20.3186 24.2568 20.2922 24.311C20.2559 24.3858 20.2409 24.4349 20.2209 24.5116C20.1646 24.7273 20.1648 24.9278 20.1715 24.985C20.18 25.0582 20.187 25.1255 20.1989 25.1875C20.2399 25.3991 20.3025 25.5477 20.3672 25.655C20.4353 25.768 20.6048 26.0274 20.9511 26.0616C21.0872 26.0751 21.3197 26.0127 21.3272 25.8357" stroke="#703D29" stroke-width="0.0477928"/>
<path d="M30.3247 20.7654C30.3479 20.6404 30.4986 20.6163 30.5551 20.6901C30.6423 20.8038 30.5847 20.9991 30.4074 21.0545C30.3472 21.0734 30.2079 21.0658 30.1175 20.9491C30.0443 20.8545 30.0499 20.7374 30.0772 20.6442C30.0949 20.584 30.1433 20.5314 30.2079 20.4823C30.4137 20.3257 30.7462 20.3619 30.8554 20.6254C30.9962 20.9653 30.6898 21.2202 30.4074 21.4122C30.0519 21.6539 29.6469 21.6979 29.3419 21.6945C28.6492 21.687 28.1222 21.3557 27.7796 21.1675C27.6998 21.1236 27.6176 21.1326 27.5763 21.1825C27.5297 21.2389 27.5304 21.3299 27.5951 21.3896" stroke="#703D29" stroke-width="0.0477928" stroke-linecap="round"/>
<path d="M31.7755 24.9738C31.5116 25.261 31.7543 25.7541 31.9516 25.8656C32.0198 25.9187 32.049 25.8905 32.1036 25.9225M30.4642 20.6482C30.5376 20.6516 30.5573 20.6802 30.5798 20.7095C30.667 20.8232 30.6033 21.0186 30.426 21.074L30.4642 20.6482Z" stroke="#703D29" stroke-width="0.0477928" stroke-linecap="round"/>
<path d="M31.7895 24.4247C31.703 24.4849 31.6725 24.5526 31.6691 24.6702C31.6663 24.7686 31.6834 24.8778 31.7757 24.9739C31.9197 25.1236 32.2012 25.254 32.474 25.2574C32.622 25.2592 32.7757 25.2283 32.9302 25.1249C33.0955 25.0144 33.1825 24.8652 33.2201 24.7183L31.7895 24.4247ZM31.6419 29.3933C31.6419 29.3942 31.6414 29.509 31.6316 29.5815C31.603 29.7928 31.5693 29.9144 31.4735 30.1048C31.38 30.2906 31.3053 30.3881 31.1573 30.534C31.0079 30.6812 30.9043 30.7487 30.7168 30.8427C30.5341 30.9342 30.4191 30.9633 30.2198 31.0083C30.0207 31.0534 29.9042 31.0631 29.7003 31.0723C29.5133 31.0808 29.4072 31.0729 29.2205 31.06C29.0206 31.0462 28.9097 31.0184 28.7102 31.0008C28.5453 30.9863 28.4523 30.973 28.2868 30.9734C28.1168 30.9739 28.0193 30.9749 27.8518 31.0046C27.6957 31.0322 27.6072 31.0542 27.4603 31.1138C27.257 31.1961 27.0274 31.3396 26.9784 31.4036C26.9295 31.3396 26.6998 31.1961 26.4965 31.1138C26.3496 31.0542 26.2611 31.0322 26.105 31.0046C25.9375 30.975 25.8401 30.9738 25.67 30.9734C25.5045 30.9729 25.4114 30.9863 25.2466 31.0008C25.0471 31.0183 24.9362 31.0462 24.7363 31.06C24.5496 31.0729 24.4435 31.0809 24.2565 31.0723C24.0526 31.0631 23.9361 31.0533 23.737 31.0084C23.5378 30.9633 23.4227 30.9343 23.2401 30.8427C23.0525 30.7487 22.949 30.6813 22.7996 30.534C22.6515 30.388 22.5768 30.2906 22.4834 30.1048C22.3875 29.9144 22.3539 29.7928 22.3252 29.5815C22.3154 29.5089 22.3149 29.3942 22.3149 29.3933V21.6932H31.6387V29.3933H31.6419H31.6419Z" stroke="#703D29" stroke-width="0.0477928"/>
<path d="M21.5617 30.4934C21.5617 30.4433 21.5817 30.3951 21.6171 30.3597C21.6526 30.3242 21.7007 30.3042 21.7509 30.3042C21.8011 30.3042 21.8492 30.3242 21.8847 30.3597C21.9202 30.3951 21.9401 30.4433 21.9401 30.4934C21.9401 30.5436 21.9202 30.5917 21.8847 30.6272C21.8492 30.6627 21.8011 30.6826 21.7509 30.6826C21.7007 30.6826 21.6526 30.6627 21.6171 30.6272C21.5817 30.5917 21.5617 30.5436 21.5617 30.4934ZM20.4001 29.1565C20.4001 29.0629 20.4599 28.9871 20.5337 28.9871C20.6075 28.9871 20.6674 29.0629 20.6674 29.1565C20.6674 29.25 20.6075 29.3259 20.5337 29.3259C20.4599 29.3259 20.4001 29.25 20.4001 29.1565Z" fill="#C7B37F" stroke="#C7B37F" stroke-width="0.0248407"/>
<path d="M21.0601 25.7984C21.0601 25.7215 21.1178 25.6593 21.1891 25.6593C21.2604 25.6593 21.3182 25.7215 21.3182 25.7984C21.3182 25.8752 21.2604 25.9375 21.1891 25.9375C21.1178 25.9375 21.0601 25.8752 21.0601 25.7984ZM23.3776 20.8327C23.3694 20.7556 23.4157 20.6876 23.4809 20.6807C23.5462 20.6739 23.6057 20.7308 23.6138 20.8079C23.622 20.885 23.5757 20.9531 23.5104 20.9599C23.4452 20.9667 23.3857 20.9098 23.3776 20.8327Z" fill="#C7B37F"/>
<path d="M22.0048 26.9068C21.9806 26.8818 21.9674 26.8672 21.9427 26.8428C21.9168 26.8172 21.9027 26.8022 21.8749 26.7788C21.848 26.7561 21.8308 26.7457 21.8027 26.7245M20.9085 26.5818C20.8807 26.594 20.8654 26.6039 20.8445 26.6259C20.8246 26.6469 20.8205 26.6545 20.805 26.6888C20.7937 26.7138 20.7907 26.7429 20.7866 26.7787L20.9085 26.5818ZM21.1434 28.8025C21.1697 28.7706 21.1855 28.7535 21.2107 28.7208C21.2318 28.6936 21.2442 28.6787 21.2627 28.6496C21.2794 28.6235 21.2868 28.6076 21.3015 28.5804C21.3222 28.5419 21.3325 28.5195 21.3523 28.4806L21.1434 28.8025ZM21.2567 29.5351C21.2119 29.5557 21.1854 29.5648 21.1419 29.5878C21.1088 29.6054 21.0908 29.6166 21.0591 29.6364C21.0216 29.6598 21.0006 29.6735 20.9649 29.6997C20.9278 29.7269 20.9087 29.7447 20.8727 29.7734L21.2567 29.5351Z" stroke="#C7B37F" stroke-width="0.0477928" stroke-linecap="round"/>
<path d="M22.0344 25.9006C21.9984 25.9166 21.9795 25.9293 21.9421 25.9416C21.8993 25.9557 21.8702 25.9631 21.8288 25.965" stroke="#C7B37F" stroke-width="0.0477928"/>
<path d="M22.7031 20.9683C22.7219 21.0138 22.7276 21.0418 22.7513 21.085C22.7722 21.1231 22.7866 21.1435 22.8142 21.1772C22.8493 21.2202 22.8721 21.2427 22.9158 21.277C22.9666 21.3169 23.0026 21.3286 23.0581 21.3617M20.7672 24.6517C20.7795 24.6957 20.7822 24.7219 20.7988 24.7643C20.8196 24.8177 20.8371 24.8457 20.8688 24.8934C20.9019 24.9432 20.9225 24.9706 20.9651 25.0124C21.0026 25.0491 21.0264 25.0676 21.0702 25.0964C21.1119 25.1237 21.1389 25.1331 21.1828 25.1566L20.7672 24.6517ZM21.108 24.7132C21.1447 24.7329 21.1637 24.7477 21.2022 24.7637C21.237 24.7781 21.2577 24.7842 21.2944 24.7927C21.3441 24.8041 21.3733 24.8069 21.4243 24.8082C21.4795 24.8094 21.4958 24.8082 21.5655 24.7968L21.108 24.7132ZM22.108 21.7207C22.0476 21.6855 22.0107 21.6701 21.9532 21.6304C21.8948 21.59 21.8625 21.5653 21.8117 21.5156C21.775 21.4797 21.7545 21.4589 21.724 21.4177C21.6967 21.3809 21.6863 21.3568 21.6622 21.3179L22.108 21.7207ZM22.2295 20.9736C22.2484 21.0242 22.2539 21.0551 22.2781 21.1035C22.311 21.1691 22.3363 21.2035 22.3858 21.2578C22.4542 21.333 22.5123 21.3543 22.5932 21.4159L22.2295 20.9736Z" stroke="#C7B37F" stroke-width="0.0477928" stroke-linecap="round"/>
<path d="M28.0199 20.3533C28.016 20.225 27.8896 20.2117 27.8412 20.2117C27.7015 20.2117 27.6637 20.2989 27.4894 20.3924C27.2709 20.5098 27.1768 20.5359 26.9826 20.5376C26.7884 20.5359 26.6918 20.5098 26.4733 20.3924C26.299 20.2989 26.2697 20.2145 26.13 20.2145C26.0542 20.2145 25.9561 20.2801 25.9599 20.4001C25.9599 20.4001 25.9584 20.439 25.9644 20.4653C25.9667 20.4752 25.9787 20.4721 25.9825 20.4808C25.9807 20.4226 25.9925 20.3924 26.0212 20.3533C26.058 20.3031 26.1192 20.2897 26.1442 20.2897C26.2839 20.2897 26.3356 20.3794 26.51 20.473C26.7284 20.5903 26.8224 20.6164 27.0166 20.6181C27.2108 20.6164 27.3075 20.5903 27.526 20.473C27.7003 20.3794 27.7504 20.2823 27.8901 20.2823C27.9386 20.2823 27.9727 20.3136 27.9885 20.363C27.9983 20.3934 27.9928 20.4136 27.9953 20.4256C27.9966 20.4315 28.0037 20.4309 28.0053 20.4372C28.0102 20.4146 28.0215 20.4066 28.0199 20.3533Z" fill="#703D29" stroke="#703D29" stroke-width="0.013413"/>
<path d="M22.8067 31.1278C22.8459 31.0856 22.8756 31.1014 22.8829 31.082C22.8882 31.0676 22.8766 31.0661 22.8606 31.0602C22.8393 31.0522 22.8167 31.0476 22.7954 31.0397C22.7733 31.0314 22.7533 31.02 22.7312 31.0118C22.722 31.0084 22.7009 30.9976 22.6949 31.0137C22.6838 31.0432 22.7724 31.0407 22.7427 31.1202C22.7376 31.1338 22.725 31.1628 22.681 31.211L22.4805 31.4293C22.476 31.4343 22.4685 31.4451 22.4639 31.4433C22.4593 31.4416 22.46 31.4283 22.4599 31.4215L22.4628 31.1121C22.463 31.0533 22.468 31.0098 22.4775 30.9845C22.4908 30.9489 22.5317 30.9787 22.5403 30.9559C22.5457 30.9415 22.5415 30.9409 22.5172 30.9318C22.505 30.9272 22.4817 30.9223 22.4329 30.9041C22.407 30.8944 22.3824 30.8814 22.3573 30.872C22.3458 30.8677 22.3247 30.8521 22.3172 30.8725C22.3149 30.8784 22.3229 30.8872 22.3249 30.8889C22.353 30.909 22.3601 30.9223 22.3607 30.9602L22.3663 31.5235C22.3667 31.5642 22.3711 31.5755 22.3788 31.5784C22.3871 31.5815 22.3928 31.5778 22.4094 31.559L22.8067 31.1278V31.1278Z" fill="#703D29"/>
<path d="M23.0406 31.2149C23.0664 31.1331 23.1148 31.1824 23.124 31.1531C23.1273 31.1427 23.124 31.1398 23.1007 31.1325C23.0565 31.1185 23.0275 31.1132 22.9996 31.1044C22.9725 31.0958 22.9433 31.0828 22.913 31.0733C22.906 31.0711 22.8875 31.0624 22.8828 31.077C22.8733 31.1072 22.9685 31.1107 22.9438 31.1891L22.8134 31.6027C22.7876 31.6845 22.7389 31.6445 22.7294 31.6747C22.728 31.679 22.7276 31.6855 22.7346 31.6877C22.7548 31.6941 22.7892 31.7012 22.8226 31.7117C22.8831 31.7307 22.9107 31.7432 22.9394 31.7523C22.9572 31.7579 22.9652 31.7566 22.9682 31.7472C22.977 31.7196 22.8776 31.7319 22.911 31.6259L23.0406 31.2149V31.2149ZM23.3205 31.2977C23.3359 31.2457 23.36 31.2529 23.3889 31.2614C23.4676 31.2848 23.4923 31.3618 23.4671 31.4467C23.452 31.4978 23.4329 31.5449 23.3145 31.5098C23.2911 31.5029 23.2622 31.4943 23.2687 31.4727L23.3205 31.2977V31.2977ZM23.1058 31.6704C23.0735 31.7795 23.0187 31.7322 23.0106 31.7599C23.0054 31.7773 23.0226 31.7795 23.0311 31.7821C23.0701 31.7936 23.1101 31.8017 23.1522 31.8142C23.185 31.8239 23.205 31.8335 23.2182 31.8375C23.2362 31.8428 23.2439 31.8394 23.2463 31.8316C23.2555 31.8005 23.1678 31.8131 23.1952 31.7204L23.2396 31.5706C23.2486 31.5402 23.2457 31.5328 23.2871 31.545C23.326 31.5566 23.3377 31.5685 23.3444 31.612L23.3693 31.7682C23.3786 31.8256 23.3874 31.8876 23.449 31.9058C23.4802 31.915 23.5373 31.9113 23.5452 31.8844C23.5473 31.8775 23.5441 31.8709 23.5371 31.8688C23.5294 31.8665 23.52 31.8693 23.5122 31.867C23.5059 31.8652 23.4912 31.8608 23.4882 31.8449C23.4645 31.7191 23.4354 31.5739 23.4369 31.5687C23.4395 31.56 23.4644 31.5589 23.4929 31.5457C23.5217 31.5316 23.5538 31.5063 23.5702 31.4508C23.582 31.411 23.6026 31.2842 23.4319 31.2336C23.3796 31.2181 23.3256 31.2059 23.2733 31.1904C23.2242 31.1759 23.219 31.1706 23.1832 31.1599C23.1738 31.1572 23.1647 31.1592 23.1622 31.1679C23.153 31.1991 23.2474 31.1922 23.2187 31.2892L23.1058 31.6704V31.6704ZM23.7432 31.857C23.7181 31.9615 23.6389 31.8979 23.6307 31.9321C23.626 31.9515 23.6397 31.9538 23.6539 31.9573C23.6855 31.9648 23.7125 31.9676 23.7654 31.9803C23.8184 31.993 23.8436 32.0028 23.8753 32.0104C23.8982 32.0159 23.9134 32.0223 23.9184 32.0012C23.9243 31.9767 23.817 31.9778 23.843 31.8698L23.9383 31.4727C23.9485 31.4306 23.9574 31.428 23.9898 31.4358L24.057 31.452C24.1488 31.4703 24.1001 31.5617 24.1317 31.5693C24.1523 31.5742 24.1518 31.5379 24.1527 31.527L24.1634 31.4441C24.1648 31.4351 24.1677 31.4228 24.1558 31.42C24.0823 31.4023 24.0285 31.3931 23.9131 31.3654C23.7976 31.3376 23.7455 31.3214 23.672 31.3038C23.6601 31.3009 23.6572 31.3132 23.6543 31.3218L23.6138 31.4347C23.6094 31.4458 23.6001 31.464 23.6167 31.4679C23.6523 31.4765 23.6562 31.3557 23.7455 31.3772L23.8119 31.3931C23.8443 31.4009 23.8512 31.4072 23.8411 31.4494L23.7432 31.857H23.7432ZM24.7039 31.612C24.7352 31.5635 24.7671 31.5741 24.771 31.5537C24.7737 31.5385 24.762 31.5391 24.7453 31.536C24.7229 31.5319 24.6998 31.5313 24.6774 31.5271C24.6543 31.5228 24.6325 31.5151 24.6094 31.5108C24.5998 31.509 24.5771 31.5021 24.5739 31.5189C24.5682 31.5501 24.655 31.5322 24.6395 31.6156C24.6369 31.6299 24.6296 31.6607 24.5945 31.7157L24.435 31.9655C24.4314 31.9713 24.4259 31.9831 24.4211 31.9822C24.4163 31.9813 24.4146 31.9682 24.4134 31.9615L24.3624 31.6562C24.3525 31.5983 24.3498 31.5546 24.3548 31.5279C24.3617 31.4907 24.4072 31.5129 24.4117 31.4889C24.4144 31.4738 24.4103 31.4739 24.3847 31.4692C24.3719 31.4668 24.3481 31.4661 24.2969 31.4566C24.2697 31.4515 24.2431 31.443 24.2168 31.4381C24.2048 31.4358 24.1814 31.4241 24.1774 31.4454C24.1762 31.4517 24.1856 31.4589 24.1879 31.4602C24.219 31.4753 24.2284 31.4871 24.2355 31.5242L24.3388 32.0782C24.3463 32.1181 24.3526 32.1285 24.3606 32.13C24.3694 32.1316 24.3744 32.127 24.3875 32.1055L24.7039 31.612V31.612ZM24.7489 32.1209C24.7494 32.143 24.7474 32.1499 24.7665 32.1586C24.811 32.178 24.8484 32.2062 24.8973 32.2144C25.0024 32.232 25.0894 32.165 25.1089 32.0483C25.1279 31.9351 25.0813 31.888 25.0026 31.8317C24.9039 31.7612 24.8617 31.7422 24.8717 31.6825C24.8817 31.6228 24.9235 31.595 24.9764 31.6039C25.1144 31.6269 25.0986 31.7947 25.1171 31.7978C25.1347 31.8007 25.1389 31.7904 25.1406 31.7705L25.1517 31.6497C25.1536 31.6289 25.1582 31.6159 25.1462 31.6139C25.1358 31.6122 25.1133 31.6231 25.1029 31.6214C25.0789 31.6173 25.051 31.5769 24.9852 31.566C24.8914 31.5502 24.8147 31.6144 24.7976 31.7168C24.7819 31.8104 24.8234 31.8531 24.8867 31.8984C25.0052 31.9833 25.0538 32.0034 25.0412 32.0791C25.0292 32.1504 24.9739 32.1851 24.9114 32.1746C24.8224 32.1597 24.7862 32.0703 24.7748 31.9805C24.7736 31.9683 24.7734 31.9601 24.7605 31.9579C24.7404 31.9546 24.7442 31.9818 24.7445 31.9946L24.7489 32.1209V32.1209ZM25.9459 31.7834C25.972 31.7319 26.0049 31.7391 26.0065 31.7183C26.0077 31.703 25.9961 31.7048 25.9791 31.7035C25.9564 31.7017 25.9334 31.7035 25.9107 31.7018C25.8872 31.6999 25.8648 31.6945 25.8413 31.6927C25.8316 31.6919 25.8083 31.6873 25.8069 31.7044C25.8045 31.736 25.889 31.7091 25.8823 31.7938C25.8812 31.8082 25.8771 31.8396 25.848 31.898L25.7154 32.1631C25.7125 32.1692 25.7082 32.1815 25.7034 32.1812C25.6985 32.1807 25.6954 32.1678 25.6935 32.1613L25.611 31.863C25.595 31.8065 25.5878 31.7633 25.5899 31.7363C25.5929 31.6985 25.6405 31.7158 25.6424 31.6915C25.6436 31.6762 25.6395 31.6768 25.6136 31.6748C25.6006 31.6738 25.5768 31.6755 25.5249 31.6714C25.4973 31.6692 25.4701 31.6635 25.4433 31.6613C25.4312 31.6604 25.4066 31.6512 25.4049 31.6728C25.4044 31.6791 25.4145 31.6854 25.4169 31.6865C25.4494 31.6981 25.46 31.7089 25.471 31.7451L25.6316 32.2852C25.6432 32.3242 25.6506 32.3338 25.6587 32.3344C25.6676 32.3351 25.6721 32.33 25.6828 32.3073L25.9459 31.7834V31.7834Z" fill="#703D29"/>
<path d="M26.0743 32.2211C26.0735 32.3133 25.9955 32.2963 25.9952 32.3325C25.9952 32.3479 26.0114 32.3435 26.0204 32.3436C26.0423 32.3436 26.0643 32.3403 26.0903 32.3406C26.1188 32.341 26.1464 32.3447 26.1862 32.345C26.1968 32.345 26.2171 32.3462 26.2172 32.3335C26.2176 32.2911 26.113 32.3516 26.1145 32.1781L26.1172 31.871C26.1172 31.8629 26.1189 31.8565 26.1238 31.8566C26.1279 31.8566 26.1327 31.8612 26.1383 31.8684L26.5253 32.3416C26.5309 32.3489 26.535 32.3544 26.5463 32.3544C26.5561 32.3544 26.5562 32.3473 26.5563 32.3274L26.5608 31.8206C26.5615 31.7258 26.6305 31.7481 26.6307 31.721C26.6307 31.7183 26.6308 31.7092 26.6154 31.7091C26.6081 31.7091 26.5796 31.7124 26.5284 31.712C26.4723 31.7114 26.4487 31.7076 26.4357 31.7076C26.4251 31.7076 26.4226 31.7165 26.4226 31.7228C26.4223 31.7526 26.5216 31.7372 26.5209 31.8194L26.5183 32.1203C26.5181 32.1428 26.5164 32.1537 26.5115 32.1536C26.5066 32.1536 26.497 32.1426 26.4865 32.1299L26.1631 31.7287C26.1486 31.7114 26.1584 31.7052 26.1324 31.7049C26.0893 31.7044 26.0682 31.708 26.047 31.7078C26.0316 31.7078 26.017 31.7039 26.0015 31.7037C25.9918 31.7037 25.9876 31.7108 25.9876 31.719C25.9871 31.7623 26.0788 31.7044 26.0772 31.8779L26.0743 32.2212V32.2211ZM26.8616 31.8144C26.8624 31.7286 26.9231 31.7616 26.9233 31.7309C26.9234 31.7201 26.9194 31.7182 26.895 31.718C26.8486 31.7175 26.8193 31.7209 26.7901 31.7207C26.7616 31.7207 26.73 31.7165 26.6982 31.7163C26.6909 31.7162 26.6706 31.7133 26.6705 31.7287C26.6703 31.7604 26.7578 31.7359 26.7571 31.8181L26.7578 32.2517C26.7571 32.3375 26.6987 32.3135 26.6985 32.3452C26.6984 32.3497 26.7 32.356 26.7073 32.356C26.7285 32.3565 26.7635 32.3529 26.7984 32.3532C26.8619 32.3538 26.8919 32.3576 26.9219 32.3579C26.9406 32.3579 26.948 32.3545 26.9481 32.3446C26.9483 32.3157 26.8569 32.3565 26.8579 32.2454L26.8616 31.8144V31.8144ZM27.2025 32.2342C27.2035 32.3417 27.1112 32.2991 27.1115 32.3344C27.1118 32.3543 27.1255 32.3533 27.1401 32.3531C27.1726 32.3526 27.1995 32.349 27.2539 32.3485C27.3084 32.348 27.3353 32.3514 27.3678 32.3511C27.3914 32.3511 27.4077 32.3535 27.4075 32.3318C27.4072 32.3065 27.3034 32.3336 27.3024 32.2225L27.2989 31.8142C27.2985 31.7708 27.3066 31.7662 27.3399 31.7659L27.409 31.7654C27.5025 31.761 27.4774 31.8615 27.5099 31.8612C27.531 31.8612 27.5218 31.8258 27.5201 31.815L27.5104 31.732C27.5095 31.7229 27.5094 31.7103 27.4972 31.7104C27.4216 31.7111 27.3671 31.7151 27.2484 31.7162C27.1297 31.7172 27.0752 31.7141 26.9996 31.7147C26.9874 31.7147 26.9875 31.7275 26.9867 31.7365L26.9748 31.8559C26.9733 31.8677 26.9686 31.8876 26.9856 31.8874C27.0222 31.8869 26.9968 31.769 27.0887 31.7682L27.157 31.7675C27.1904 31.767 27.1985 31.7717 27.1989 31.815L27.2025 32.2342V32.2342ZM27.6761 32.0633C27.6615 32.0644 27.6502 32.0662 27.6495 32.0572C27.6485 32.0446 27.6526 32.0343 27.6558 32.0232L27.7057 31.8589C27.7089 31.8486 27.7121 31.8475 27.7137 31.8474C27.7178 31.8469 27.7154 31.8474 27.7208 31.8541L27.8001 32.0119C27.8049 32.0223 27.8106 32.0319 27.8116 32.0444C27.8122 32.0535 27.8009 32.0535 27.7863 32.0546L27.6761 32.0633V32.0633ZM27.8153 32.1012C27.8364 32.0996 27.8411 32.1083 27.8734 32.1764C27.8842 32.2001 27.8912 32.2158 27.8927 32.2356C27.8971 32.2906 27.8387 32.2852 27.8408 32.3113C27.8417 32.3239 27.8522 32.3213 27.8668 32.3202C27.8903 32.3183 27.92 32.3123 27.9556 32.3095C28.0091 32.3053 28.0313 32.3072 28.0605 32.3049C28.0824 32.3032 28.0898 32.3044 28.0886 32.2891C28.0863 32.2593 28.0453 32.2979 28.0143 32.236L27.7521 31.702C27.7394 31.6759 27.7376 31.6742 27.7303 31.6747C27.7198 31.6756 27.7171 31.693 27.7125 31.7079L27.5358 32.27C27.5195 32.3221 27.4777 32.3199 27.4793 32.3406C27.4803 32.3524 27.4931 32.3495 27.5044 32.3486C27.5279 32.3468 27.5512 32.3413 27.5755 32.3394C27.6014 32.3374 27.626 32.339 27.652 32.337C27.669 32.3357 27.6946 32.34 27.6931 32.3211C27.6912 32.2968 27.6048 32.3181 27.5997 32.2532C27.598 32.2316 27.6068 32.1992 27.6111 32.1808C27.625 32.1198 27.6418 32.1149 27.6556 32.1138L27.8153 32.1012H27.8153ZM28.4436 31.7267C28.4354 31.665 28.4385 31.6636 28.5361 31.6508C28.6916 31.6303 28.6426 31.7434 28.6805 31.7384C28.699 31.736 28.6911 31.7069 28.6887 31.6954L28.6739 31.6071C28.6728 31.5991 28.666 31.5909 28.6555 31.5922C28.5845 31.6016 28.5294 31.6125 28.4721 31.62C28.3488 31.6362 28.2903 31.6403 28.2573 31.6447C28.246 31.6461 28.2404 31.6542 28.2415 31.6623C28.2463 31.6981 28.3336 31.6574 28.3442 31.738L28.3994 32.1572C28.4138 32.2665 28.3461 32.2262 28.3515 32.2674C28.3523 32.2728 28.3577 32.2766 28.3681 32.2752C28.4125 32.2694 28.4459 32.2613 28.4709 32.258C28.5063 32.2533 28.5366 32.2531 28.5672 32.249C28.5874 32.2464 28.6048 32.2477 28.6025 32.2298C28.5993 32.2056 28.5112 32.24 28.4981 32.1406L28.4806 32.008C28.4737 31.956 28.4691 31.9457 28.5062 31.9408L28.5658 31.933C28.6497 31.9219 28.6396 32.0199 28.6654 32.0165C28.6848 32.0139 28.6757 31.9823 28.6733 31.9708L28.6467 31.8121C28.6427 31.788 28.6341 31.791 28.6285 31.7917C28.6123 31.7939 28.6208 31.8766 28.5515 31.8857L28.5006 31.8924C28.466 31.897 28.4652 31.8907 28.4601 31.8522L28.4436 31.7267H28.4436ZM28.7409 31.9321C28.7743 32.1124 28.9045 32.2123 29.0652 32.1825C29.3202 32.1352 29.3286 31.9086 29.3056 31.7842C29.2707 31.5959 29.1303 31.5034 28.9747 31.5341C28.784 31.5712 28.7048 31.7375 28.7409 31.9321V31.9321ZM28.8298 31.8632C28.806 31.7344 28.8232 31.6044 28.9578 31.5767C29.0606 31.5558 29.1773 31.6408 29.2136 31.8371C29.241 31.9845 29.2183 32.1119 29.0813 32.14C28.9386 32.1692 28.8539 31.9929 28.8298 31.8632ZM29.4605 31.5486C29.4478 31.4958 29.4723 31.49 29.5016 31.4829C29.5815 31.4638 29.6413 31.5181 29.662 31.6042C29.6744 31.6561 29.6815 31.7064 29.5613 31.7352C29.5375 31.7409 29.5083 31.748 29.5031 31.726L29.4605 31.5486V31.5486ZM29.4609 31.9786C29.4875 32.0893 29.4165 32.0757 29.4232 32.1038C29.4274 32.1214 29.4434 32.1148 29.4521 32.1127C29.4916 32.1032 29.5303 32.0902 29.573 32.0799C29.6062 32.072 29.6284 32.0704 29.6418 32.0671C29.66 32.0628 29.6651 32.056 29.6631 32.0481C29.6556 32.0164 29.586 32.0712 29.5634 31.9772L29.5269 31.8253C29.5195 31.7945 29.5133 31.7895 29.5552 31.7794C29.5947 31.7699 29.6109 31.7744 29.6384 31.8087L29.7381 31.9316C29.7748 31.9767 29.8134 32.026 29.8759 32.011C29.9075 32.0033 29.955 31.9715 29.9485 31.9443C29.9468 31.9372 29.9408 31.9331 29.9337 31.9348C29.9258 31.9367 29.9192 31.9439 29.9112 31.9458C29.9049 31.9473 29.8899 31.9509 29.8794 31.9385C29.7959 31.8415 29.6981 31.7303 29.6968 31.725C29.6947 31.7162 29.7157 31.7028 29.7338 31.6771C29.7518 31.6505 29.7669 31.6125 29.7534 31.5563C29.7437 31.5159 29.6981 31.3958 29.5249 31.4374C29.472 31.4501 29.419 31.4665 29.3661 31.4792C29.3163 31.4912 29.3091 31.4892 29.2727 31.4979C29.2632 31.5002 29.2564 31.5065 29.2585 31.5153C29.2661 31.5469 29.3445 31.4937 29.3681 31.5921L29.4609 31.9786V31.9786ZM30.1132 31.8328C30.1401 31.9369 30.0403 31.9179 30.0491 31.952C30.0541 31.9713 30.0672 31.9669 30.0814 31.9632C30.1129 31.9551 30.138 31.9449 30.1907 31.9313C30.2435 31.9176 30.2704 31.9144 30.3018 31.9063C30.3246 31.9003 30.3411 31.8989 30.3356 31.8779C30.3293 31.8534 30.2351 31.9048 30.2073 31.7973L30.105 31.4019C30.0942 31.36 30.1009 31.3535 30.1332 31.3452L30.2001 31.3278C30.2897 31.301 30.2897 31.4045 30.3212 31.3964C30.3416 31.3911 30.3241 31.3593 30.3198 31.3492L30.2904 31.271C30.2873 31.2624 30.2842 31.2501 30.2723 31.2532C30.1991 31.2722 30.1473 31.2893 30.0324 31.319C29.9175 31.3487 29.8638 31.3588 29.7906 31.3778C29.7788 31.3809 29.7819 31.3931 29.7834 31.402L29.8007 31.5208C29.8021 31.5325 29.8023 31.553 29.8188 31.5487C29.8543 31.5395 29.801 31.4311 29.89 31.4081L29.9561 31.391C29.9884 31.3827 29.9974 31.385 30.0082 31.427L30.1132 31.8328V31.8328ZM30.5291 31.2779C30.5062 31.1952 30.5737 31.2102 30.5654 31.1806C30.5625 31.1702 30.5582 31.1695 30.5346 31.176C30.49 31.1884 30.4627 31.1997 30.4345 31.2075C30.4071 31.2151 30.3756 31.2201 30.345 31.2286C30.338 31.2305 30.3177 31.2333 30.3218 31.2482C30.3302 31.2786 30.412 31.2297 30.4339 31.3089L30.5499 31.7268C30.5728 31.8095 30.5101 31.8025 30.5185 31.833C30.5197 31.8373 30.523 31.843 30.5301 31.8411C30.5504 31.8354 30.5832 31.8226 30.6169 31.8132C30.678 31.7963 30.7079 31.7917 30.737 31.7837C30.7549 31.7787 30.761 31.7733 30.7584 31.7637C30.7506 31.7358 30.674 31.8002 30.6443 31.6931L30.5291 31.2779V31.2779ZM30.7025 31.4798C30.7607 31.6537 30.9034 31.7345 31.0585 31.6827C31.3045 31.6004 31.2812 31.3747 31.2411 31.2548C31.1803 31.0732 31.0285 31.0011 30.8786 31.0531C30.695 31.1165 30.6397 31.2922 30.7025 31.4798V31.4798ZM30.781 31.3992C30.7394 31.275 30.7384 31.1439 30.8678 31.0977C30.9668 31.0627 31.0941 31.1306 31.1574 31.32C31.205 31.4622 31.2003 31.5914 31.0685 31.6384C30.9313 31.6871 30.8228 31.5243 30.781 31.3992ZM31.3581 30.9893C31.3383 30.9389 31.3617 30.9296 31.3897 30.9186C31.4661 30.8885 31.533 30.934 31.5655 31.0164C31.585 31.066 31.599 31.1148 31.484 31.1601C31.4613 31.1691 31.4333 31.1801 31.425 31.159L31.3581 30.9892V30.9893ZM31.4184 31.4151C31.4601 31.521 31.3879 31.5174 31.3985 31.5443C31.4051 31.5611 31.42 31.5524 31.4283 31.5491C31.4661 31.5342 31.5027 31.5159 31.5435 31.4998C31.5753 31.4873 31.597 31.4827 31.6099 31.4776C31.6273 31.4707 31.6314 31.4633 31.6284 31.4557C31.6165 31.4254 31.5552 31.4894 31.5197 31.3995L31.4624 31.2541C31.4508 31.2246 31.444 31.2205 31.4841 31.2048C31.5219 31.1898 31.5385 31.192 31.5705 31.2222L31.6863 31.3299C31.729 31.3694 31.7741 31.4129 31.8338 31.3893C31.8641 31.3774 31.9067 31.3393 31.8965 31.3132C31.8938 31.3064 31.8873 31.3032 31.8805 31.3059C31.8729 31.3089 31.8673 31.3169 31.8598 31.3199C31.8537 31.3223 31.8393 31.3279 31.8272 31.3172C31.7311 31.2327 31.6187 31.1362 31.6167 31.1311C31.6135 31.1227 31.6324 31.1065 31.6468 31.0786C31.6607 31.0497 31.6704 31.01 31.6492 30.9562C31.634 30.9175 31.5722 30.805 31.4065 30.8702C31.3558 30.8902 31.3057 30.9138 31.255 30.9338C31.2073 30.9526 31.2 30.9516 31.1652 30.9653C31.1561 30.9689 31.1501 30.976 31.1535 30.9844C31.1654 31.0147 31.2356 30.9511 31.2727 31.0453L31.4184 31.4151V31.4151Z" fill="#703D29"/>
<path d="M22.7844 22.1614H26.7637V26.1332H22.7844V22.1614Z" fill="#D52B1E"/>
<path d="M24.6506 25.2885C24.6506 25.2885 24.6483 25.4305 24.6092 25.5445C24.564 25.6763 24.5637 25.6763 24.5222 25.7403C24.4665 25.8265 24.3984 25.8895 24.3377 25.9285C24.2429 25.9894 24.1466 26.0199 24.0497 26.0113C23.7839 25.9878 23.6605 25.6995 23.6002 25.4655C23.5363 25.2171 23.3546 25.0818 23.2388 25.1718C23.1711 25.2246 23.1672 25.3129 23.2238 25.3977C23.284 25.4881 23.4223 25.5333 23.4223 25.5333L23.2802 25.714C23.2802 25.714 22.9751 25.6743 22.9154 25.356C22.8928 25.2355 22.9513 25.0105 23.1522 24.9433C23.4087 24.8574 23.5728 25.0404 23.6518 25.1947C23.7606 25.407 23.8073 25.7968 24.1085 25.7365C24.2723 25.7037 24.3494 25.4655 24.3494 25.3563L24.4689 25.2283L24.6458 25.2848L24.6506 25.2886V25.2885Z" fill="white"/>
<path d="M25.131 23.5996L25.652 23.0358C25.652 23.0358 25.7306 22.9724 25.7299 22.8711L25.6225 22.8878L25.5984 22.8325L25.5931 22.777L25.7374 22.7465C25.7398 22.723 25.7378 22.7053 25.7419 22.6795C25.7458 22.6555 25.7511 22.6427 25.757 22.6192L25.5989 22.6298C25.6069 22.6021 25.6051 22.5874 25.6139 22.5617C25.6214 22.54 25.6235 22.5318 25.6383 22.5083C25.6676 22.5039 25.6943 22.4972 25.7306 22.4936C25.7659 22.49 25.786 22.4916 25.8213 22.4894C25.9076 22.3286 26.2663 22.1808 26.5212 22.4457C26.7057 22.6373 26.6659 22.9889 26.4268 23.0819C26.2912 23.1346 26.1821 23.1034 26.0945 23.0281L26.1899 22.8409C26.3217 22.9196 26.4308 22.8218 26.4233 22.7201C26.4138 22.5916 26.3304 22.5121 26.2125 22.5017C26.1034 22.4922 26.025 22.5547 25.9753 22.6523C25.945 22.7119 25.9591 22.7557 25.949 22.8218C25.9381 22.8936 25.9442 22.9337 25.923 23.0063C25.9075 23.0589 25.8671 23.1241 25.8082 23.1802L25.2741 23.7581L23.1948 26.0071L23.0386 25.8626L25.131 23.5995V23.5996Z" fill="#FEDF00"/>
<path d="M23.6003 23.7976C23.6003 23.7976 23.7311 24.4451 24.1753 25.4164C24.4012 25.3336 24.5346 25.2809 24.7739 25.2809C25.0133 25.2809 25.1466 25.3261 25.3725 25.4164C25.8167 24.4451 25.9475 23.7976 25.9475 23.7976L24.7739 22.288L23.6003 23.7976V23.7976Z" fill="white"/>
<path d="M24.8888 22.7987L25.7033 23.8464C25.7033 23.8464 25.5947 24.3558 25.2637 25.1225C25.1356 25.0933 25.0257 25.0679 24.8893 25.0586L24.8888 22.7988V22.7987ZM24.6593 22.7987L23.8448 23.8464C23.8448 23.8464 23.9535 24.3558 24.2844 25.1225C24.4126 25.0933 24.5225 25.0679 24.6589 25.0586L24.6593 22.7988V22.7987Z" fill="#FEDF00"/>
<path d="M27.188 22.1614H31.1673V26.1332H27.188V22.1614Z" fill="#FEDF00"/>
<path d="M27.7454 22.1614H28.3387V26.1332H27.7454V22.1614ZM28.8823 22.1614H29.4756V26.1332H28.8823V22.1614ZM30.0193 22.1614H30.6126V26.1332H30.0193V22.1614Z" fill="#D52B1E"/>
<path d="M22.7995 29.5782C22.8107 29.6497 22.8363 29.7724 22.9042 29.8982C22.9757 30.0111 22.9493 30.0081 23.1112 30.1887C23.1909 30.2777 23.3152 30.3539 23.4128 30.4064C23.5106 30.4591 23.5831 30.485 23.7441 30.5272C24.0596 30.61 24.2811 30.6152 24.5466 30.6046C24.7538 30.5963 24.9119 30.5709 25.0429 30.5532C25.2297 30.5281 25.3688 30.5132 25.5813 30.5043C25.6846 30.4999 25.7822 30.499 25.8787 30.5043C25.9951 30.5107 26.1102 30.5287 26.2326 30.5532C26.4961 30.6059 26.7634 30.7076 26.7634 30.7076L26.764 26.56L22.7841 26.5588V29.3937C22.7841 29.3937 22.7922 29.5322 22.7995 29.5782Z" fill="#FEDF00"/>
<path d="M23.2614 30.3051L23.4479 30.4136L23.7035 30.5056L23.7033 26.5578H23.2614L23.2614 30.3051ZM25.4724 30.4847L25.4729 26.5577H25.0302V30.5475C25.0302 30.5475 25.3332 30.5087 25.4723 30.4997L25.4724 30.4847ZM26.3556 26.5582H25.9143V30.4988C26.0636 30.5146 26.2114 30.5419 26.3564 30.5803L26.3556 26.5582V26.5582ZM24.5887 26.5582V30.5933C24.5843 30.5937 24.2933 30.6085 24.1445 30.5931L24.1446 26.5589L24.5887 26.5582Z" fill="#D52B1E" stroke="#D52B1E" stroke-width="0.0248407"/>
<path d="M31.1528 29.5768C31.1415 29.6483 31.116 29.7711 31.048 29.8968C30.9765 30.0098 31.0029 30.0067 30.841 30.1874C30.7613 30.2763 30.637 30.3525 30.5394 30.405C30.4416 30.4578 30.3692 30.4836 30.2082 30.5259C29.8926 30.6087 29.6711 30.6139 29.4056 30.6033C29.1985 30.595 29.0403 30.5695 28.9093 30.5519C28.7225 30.5268 28.5834 30.5118 28.371 30.5029C28.2677 30.4986 28.17 30.4976 28.0736 30.5029C27.9571 30.5093 27.842 30.5274 27.7197 30.5519C27.4562 30.6046 27.1854 30.7062 27.1854 30.7062L27.1882 26.5586L31.1682 26.5575V29.3923C31.1682 29.3923 31.16 29.5308 31.1528 29.5768V29.5768Z" fill="#FEDF00"/>
<path d="M28.2058 26.8904C28.2058 26.8904 28.1881 26.8988 28.177 26.904C28.1626 26.9198 28.1554 26.9291 28.1392 26.9433C28.1177 26.9622 28.102 26.9677 28.0787 26.9841C28.0675 26.9921 28.0583 26.9946 28.0499 27.0054C28.0377 27.0209 28.0461 27.0359 28.0378 27.0538C28.0288 27.0734 28.0199 27.0827 28.006 27.0992C27.9883 27.1202 27.9746 27.1287 27.9546 27.1476C27.9343 27.1668 27.9261 27.1828 27.9016 27.196C27.8951 27.1995 27.892 27.2029 27.885 27.2051C27.8745 27.2083 27.868 27.2046 27.8577 27.2081C27.8389 27.2146 27.833 27.2354 27.8199 27.2429C27.8253 27.2535 27.8251 27.2609 27.8305 27.2717C27.8382 27.2873 27.8646 27.3305 27.8698 27.3413C27.88 27.356 27.8829 27.3752 27.8956 27.3791C27.9216 27.3872 27.9371 27.3865 27.9591 27.3851C27.9975 27.3939 28.0211 27.3928 28.0575 27.4078C28.0871 27.4201 28.0992 27.4357 28.1286 27.4487C28.1515 27.4589 28.166 27.4652 28.1906 27.4699C28.2094 27.4735 28.2201 27.4763 28.239 27.4744C28.2511 27.4733 28.2573 27.4686 28.2693 27.4669C28.2717 27.4664 28.2732 27.4669 28.2754 27.4669L28.2739 27.485C28.2736 27.485 28.2741 27.4864 28.2739 27.4865V27.4895H28.2769L28.3768 27.5334C28.373 27.5391 28.37 27.5452 28.3677 27.5516C28.363 27.5671 28.3622 27.5849 28.3647 27.5924C28.3952 27.6839 28.4208 27.741 28.4358 27.7468C28.4656 27.7582 28.4748 27.7887 28.4918 27.8194C28.4858 27.8258 28.4808 27.8291 28.4751 27.8345C28.4454 27.8631 28.4193 27.8834 28.3949 27.9223C28.3588 27.9799 28.3345 27.9806 28.3798 28.0569C28.4064 28.1018 28.4192 28.1102 28.4539 28.1735C28.4715 28.2055 28.4812 28.2303 28.4918 28.2688C28.5018 28.3053 28.5052 28.3265 28.5069 28.3642L28.5538 28.3823L28.5856 28.3505L28.6159 28.2931L28.6173 28.2492C28.6058 28.2394 28.6025 28.2262 28.6052 28.2113C28.6086 28.1935 28.6301 28.1973 28.6401 28.1811C28.6538 28.1587 28.624 28.1455 28.6083 28.1281C28.579 28.0957 28.539 28.0878 28.5296 28.0388C28.5271 28.0256 28.5334 28.0182 28.5477 28.004C28.5892 27.9633 28.6025 27.9569 28.6431 27.9163C28.6548 27.9232 28.6727 27.9256 28.69 27.9223C28.7036 27.9198 28.7157 27.9284 28.7581 27.9405C28.7876 27.9489 28.8004 27.9447 28.8171 27.9419L28.8353 27.9374C28.8377 27.9477 28.8406 27.9575 28.8413 27.9707C28.8439 28.022 28.8338 28.1157 28.8489 28.1402C28.8552 28.1505 28.8579 28.1563 28.8625 28.1674C28.8673 28.1791 28.8728 28.1866 28.8731 28.1992C28.8736 28.2329 28.8754 28.2544 28.8731 28.29C28.871 28.3235 28.8681 28.3405 28.8625 28.3747C28.8589 28.3966 28.8545 28.4093 28.8413 28.4262C28.8276 28.4438 28.8125 28.4464 28.7944 28.4595L28.7899 28.5079L28.8444 28.5306L28.9064 28.5457L28.9397 28.5321C28.9397 28.5198 28.9416 28.5127 28.9472 28.5019C28.9534 28.4899 28.9585 28.4806 28.97 28.4761C28.9875 28.4692 29.0067 28.4824 29.0138 28.4716C29.0215 28.4599 29.0167 28.4552 29.0153 28.4353C29.0131 28.4032 29.0064 28.3873 29.0017 28.355C28.9938 28.3013 28.9915 28.2734 28.9941 28.2219C28.9956 28.192 28.996 28.1756 29.0017 28.1462C29.01 28.1035 29.0252 28.0828 29.035 28.0403C29.0459 27.993 29.0478 27.9625 29.0532 27.9208C29.2067 27.9427 29.3344 27.94 29.5056 27.9026C29.5138 27.9008 29.5419 27.8905 29.5419 27.8905C29.5807 27.9239 29.6246 27.9517 29.6736 27.9692C29.6733 27.9741 29.6728 28.0101 29.6736 28.0161C29.6753 28.03 29.6716 28.0394 29.6796 28.0509C29.6847 28.0582 29.6891 28.0625 29.6978 28.0645C29.7105 28.0675 29.7198 28.0656 29.7296 28.0569C29.7405 28.0472 29.7385 28.035 29.7417 28.0206C29.7432 28.0139 29.742 27.9933 29.7417 27.9874C29.7594 27.99 29.7654 27.9904 29.7841 27.9904C29.8013 27.9904 29.8097 27.991 29.8264 27.9889C29.8267 27.9927 29.8274 28.0067 29.8279 28.0115C29.8292 28.0234 29.8242 28.0326 29.8294 28.0433C29.8348 28.0545 29.8415 28.0607 29.8536 28.063C29.858 28.0641 29.8625 28.0643 29.867 28.0635C29.8714 28.0627 29.8756 28.061 29.8793 28.0584C29.8937 28.0495 29.8921 28.0343 29.8945 28.0176C29.8952 28.0123 29.895 27.9841 29.8945 27.9798C29.9048 27.9765 29.9346 27.9656 29.9444 27.9616C29.944 27.9748 29.9424 27.988 29.9399 28.0009C29.9373 28.0164 29.9333 28.0316 29.9278 28.0463C29.9178 28.0738 29.9064 28.0878 29.8915 28.1129C29.8732 28.1436 29.8638 28.1606 29.8416 28.1886C29.8313 28.2014 29.8242 28.2073 29.8143 28.2204C29.8019 28.2367 29.7978 28.2478 29.7856 28.2642C29.7699 28.2855 29.7609 28.2993 29.7401 28.3157C29.7066 28.3423 29.6844 28.321 29.6388 28.3565L29.6281 28.4065L29.6978 28.4322L29.7598 28.4443L29.781 28.4322C29.7804 28.4176 29.7826 28.4073 29.7916 28.3959C29.8019 28.3828 29.813 28.3789 29.8294 28.3762C29.8469 28.3733 29.8656 28.3778 29.8793 28.3656C29.8963 28.3506 29.8962 28.3214 29.9096 28.2945C29.9512 28.211 29.9881 28.1704 30.0549 28.1054C30.0846 28.0765 30.11 28.0687 30.1351 28.0357C30.147 28.0201 30.1603 28.013 30.1608 27.9934C30.1612 27.9797 30.1539 27.9733 30.1502 27.9601C30.1452 27.9418 30.1412 27.9117 30.1412 27.9117C30.2148 27.9477 30.1881 27.943 30.2017 27.9798C30.2126 28.0095 30.2001 28.0301 30.2047 28.0615C30.2101 28.0981 30.2273 28.1154 30.2304 28.1522C30.2342 28.1961 30.2235 28.221 30.2153 28.2642C30.208 28.3023 30.209 28.3261 30.1926 28.3611C30.177 28.3945 30.165 28.4132 30.1366 28.4367C30.1264 28.4452 30.1187 28.4488 30.1079 28.4564L30.1018 28.5063L30.1563 28.5245L30.235 28.5457L30.2531 28.5291C30.2611 28.4973 30.2505 28.4508 30.2728 28.4473C30.2924 28.4443 30.3063 28.4473 30.3106 28.4322C30.3124 28.4258 30.3135 28.4164 30.3152 28.402C30.3259 28.3106 30.3356 28.2254 30.3454 28.1841C30.3566 28.1372 30.3558 28.127 30.3651 28.0917C30.3736 28.0596 30.361 28.0781 30.3848 28.01C30.4203 27.9085 30.3747 27.895 30.3333 27.833C30.3109 27.7994 30.3032 27.7873 30.3 27.7604C30.2953 27.7208 30.308 27.688 30.3061 27.6272C30.3045 27.5808 30.3045 27.5344 30.3061 27.488C30.3117 27.4854 30.3168 27.4821 30.3228 27.4789C30.3794 27.4478 30.402 27.4384 30.4378 27.3593C30.448 27.337 30.4531 27.3128 30.4529 27.2882C30.4526 27.2722 30.4497 27.2567 30.4483 27.2383C30.4469 27.219 30.4391 27.2074 30.4332 27.1929C30.4269 27.1775 30.4175 27.1658 30.4059 27.152C30.3686 27.1073 30.3198 27.0972 30.2743 27.0809C30.2025 27.0552 30.153 27.0599 30.0746 27.0537C29.9936 27.0473 29.9484 27.046 29.8672 27.0507C29.7701 27.0562 29.7158 27.0758 29.6191 27.087C29.5264 27.0977 29.4749 27.1049 29.3815 27.1067C29.2721 27.1087 29.1675 27.0844 29.1016 27.09C28.9829 27.1002 28.9809 27.1269 28.802 27.1415C28.74 27.1463 28.678 27.1493 28.6159 27.1505L28.5114 27.1173C28.5529 27.1024 28.5631 27.0936 28.5826 27.0673C28.5957 27.0496 28.5938 27.0345 28.6098 27.0159C28.6227 27.0008 28.6313 26.9857 28.6476 26.9689C28.6344 26.9584 28.6188 26.9511 28.6022 26.9478C28.5846 26.9441 28.5745 26.9458 28.5568 26.9478C28.5329 26.9505 28.5195 26.9538 28.4978 26.9644C28.4804 26.973 28.4676 26.9817 28.4569 26.9932C28.4569 26.9932 28.3947 26.9531 28.351 26.9342C28.2969 26.9107 28.2736 26.8997 28.2058 26.8903V26.8904ZM28.3011 27.4669H28.3041C28.3035 27.4674 28.3032 27.4679 28.3027 27.4684L28.3011 27.4669Z" fill="#D52B1E"/>
<path d="M30.3436 27.501L30.3066 27.5128C30.2647 27.5323 30.2302 27.5331 30.1807 27.5369C30.0527 27.5466 29.9739 27.4857 29.8419 27.4958C29.7739 27.5011 29.7438 27.5535 29.6743 27.5708C29.6474 27.5779 29.6198 27.5825 29.592 27.5845L29.6168 27.5344C29.6168 27.5344 29.5546 27.5471 29.5144 27.5472C29.4896 27.5476 29.4649 27.5455 29.4406 27.5409L29.4899 27.4949C29.4899 27.4949 29.4505 27.4884 29.4272 27.4786C29.4086 27.4712 29.3913 27.4609 29.3759 27.4481C29.4034 27.4435 29.4307 27.4378 29.4577 27.431C29.5331 27.4124 29.5565 27.3755 29.6461 27.3668C29.7018 27.3615 29.7929 27.3646 30.0162 27.4016C30.1632 27.4259 30.2284 27.4145 30.2843 27.3891C30.3211 27.3724 30.3332 27.3402 30.3377 27.3025C30.3421 27.2649 30.3181 27.2345 30.2954 27.2148C30.2894 27.2097 30.2739 27.1986 30.2415 27.1973" stroke="#FEDF00" stroke-width="0.0477928" stroke-linecap="round"/>
<path d="M28.2145 27.0696C28.1888 27.0664 28.1716 27.0701 28.1496 27.0836C28.1263 27.098 28.1234 27.1174 28.1066 27.1389C28.1281 27.1438 28.1404 27.1564 28.1619 27.1512C28.1787 27.1472 28.1874 27.1397 28.1987 27.1267C28.214 27.1091 28.2196 27.094 28.2194 27.0707L28.2145 27.0696Z" fill="#FCD900" stroke="#FEDF00" stroke-width="0.0248407"/>
<path d="M28.5524 27.7262C28.5907 27.7347 28.5788 27.8889 28.6391 27.9242M28.7587 27.7078C28.7587 27.7078 28.7715 27.731 28.7784 27.7465C28.7904 27.7733 28.7966 27.789 28.8038 27.8175C28.8135 27.8562 28.8093 27.8797 28.8154 27.9191C28.8165 27.926 28.8178 27.9319 28.8191 27.9373L28.8167 27.992L28.7587 27.7078ZM29.1461 27.6555C29.1461 27.6555 29.1355 27.6948 29.1289 27.72C29.1119 27.7855 29.0962 27.8211 29.0832 27.8875C29.0811 27.8987 29.0795 27.9089 29.0782 27.9187L29.1461 27.6555Z" stroke="#FEDF00" stroke-width="0.0477928" stroke-linecap="round"/>
<path d="M29.9247 27.9978L29.9433 27.9857C29.992 27.9658 30.0363 27.9363 30.0734 27.899" stroke="#FEDF00" stroke-width="0.0477928"/>
<path d="M29.5499 27.9126H29.5503C29.7213 27.8698 29.8352 27.7844 29.9173 27.7737" stroke="#FEDF00" stroke-width="0.0477928" stroke-linecap="round"/>
<path d="M29.7238 27.699C29.7383 27.6985 29.7521 27.6974 29.764 27.6957C29.835 27.6856 29.8465 27.729 29.896 27.7566C29.9859 27.807 29.9975 27.8684 30.1042 27.9191C30.1098 27.9218 30.115 27.9243 30.1197 27.9267L30.1607 27.9474" stroke="#FEDF00" stroke-width="0.0477928" stroke-linecap="round"/>
<path d="M27.8707 27.2594C27.8836 27.2626 27.8916 27.2632 27.9049 27.262C27.921 27.2605 27.9283 27.2504 27.9445 27.2499C27.9575 27.2494 27.9668 27.2484 27.9776 27.256C27.9844 27.2608 27.9873 27.2652 27.9911 27.2725C27.9954 27.2806 27.999 27.2862 27.9971 27.2951C27.9942 27.3088 27.9815 27.3153 27.9674 27.3154C27.9559 27.3154 27.9464 27.3124 27.9411 27.3023C27.9394 27.2994 27.9384 27.2963 27.9381 27.293C27.9377 27.2898 27.9381 27.2865 27.9392 27.2834C27.9254 27.2886 27.9155 27.2888 27.9016 27.2842C27.895 27.2824 27.8889 27.2792 27.8836 27.2749C27.8783 27.2707 27.8739 27.2654 27.8707 27.2594V27.2594Z" fill="#FCD900" stroke="#FEDF00" stroke-width="0.0248407"/>
<path d="M28.2305 27.7261C28.1919 27.7147 28.1353 27.6861 28.1353 27.6861C28.1509 27.674 28.1637 27.6733 28.1771 27.6593C28.1959 27.6395 28.1951 27.6211 28.2058 27.5954C28.2162 27.5702 28.2147 27.5492 28.2383 27.5304C28.2523 27.5192 28.2752 27.5173 28.2924 27.5224C28.3095 27.5278 28.3292 27.5418 28.3335 27.5595C28.3401 27.5866 28.3257 27.6024 28.3216 27.6299C28.3174 27.6574 28.3074 27.6732 28.3121 27.7006C28.3153 27.7187 28.3231 27.7257 28.3293 27.7445C28.3293 27.7445 28.2681 27.7373 28.2305 27.7261V27.7261ZM28.1825 27.7721C28.1824 27.7661 28.1841 27.7602 28.1874 27.7552C28.1906 27.7501 28.1953 27.7461 28.2008 27.7438C28.2064 27.7414 28.2125 27.7407 28.2184 27.7417C28.2243 27.7428 28.2297 27.7456 28.2341 27.7498C28.2384 27.754 28.2414 27.7593 28.2427 27.7652C28.2439 27.7711 28.2434 27.7772 28.2412 27.7828C28.239 27.7884 28.2352 27.7932 28.2303 27.7966C28.2254 27.8001 28.2195 27.8019 28.2135 27.8021C28.2095 27.8021 28.2055 27.8014 28.2018 27.8C28.1981 27.7985 28.1947 27.7963 28.1918 27.7935C28.1889 27.7908 28.1866 27.7874 28.185 27.7838C28.1834 27.7801 28.1826 27.7761 28.1825 27.7721V27.7721ZM28.0973 26.9727C28.0973 26.9727 28.093 26.9698 28.0903 26.9676C28.0718 26.9526 28.07 26.936 28.0612 26.9139C28.0529 26.8929 28.0488 26.8804 28.046 26.858C28.0436 26.8384 28.046 26.827 28.046 26.8073C28.046 26.7894 28.0479 26.7793 28.046 26.7616C28.044 26.7434 28.0445 26.7319 28.0358 26.7158C28.0311 26.7071 28.0167 26.6995 28.0206 26.6955C28.0252 26.6909 28.0331 26.6945 28.0409 26.6955C28.0603 26.6979 28.0715 26.7035 28.0866 26.7158C28.1049 26.7307 28.1121 26.7435 28.1192 26.7666C28.1272 26.7932 28.1312 26.8101 28.1389 26.8377C28.1429 26.852 28.1452 26.8604 28.1526 26.8733C28.1604 26.8866 28.1681 26.8918 28.178 26.9037L28.1775 26.9048C28.163 26.9207 28.156 26.931 28.1398 26.9452C28.1251 26.9583 28.1127 26.9647 28.0989 26.973L28.0973 26.9725L28.0973 26.9727ZM28.2716 27.4879L28.3796 27.5378C28.4353 27.5071 28.4994 27.4447 28.5489 27.3481C28.5916 27.2649 28.5983 27.2197 28.615 27.1392L28.5284 27.1111L28.5111 27.1146C28.4844 27.198 28.4775 27.2455 28.4327 27.3176C28.3939 27.3801 28.3495 27.4292 28.3045 27.4645L28.2716 27.4879ZM28.5108 28.3653C28.5283 28.3414 28.5357 28.3261 28.5555 28.3041C28.5776 28.2796 28.5942 28.2701 28.619 28.2484C28.6265 28.2491 28.6352 28.2478 28.6423 28.2519C28.6409 28.2782 28.6396 28.2979 28.6335 28.3265C28.6287 28.3497 28.6245 28.3626 28.6168 28.3851C28.6102 28.4039 28.6091 28.416 28.5979 28.4325C28.5904 28.4434 28.5839 28.4478 28.5749 28.4576C28.5502 28.4216 28.5105 28.3947 28.5108 28.3653V28.3653ZM30.1093 28.4549C30.137 28.4651 30.1538 28.468 30.1804 28.4809C30.2099 28.4955 30.2237 28.5088 30.2514 28.5267C30.2527 28.5341 30.2565 28.5421 30.2545 28.55C30.2288 28.5559 30.2096 28.5601 30.1804 28.5622C30.1601 28.5637 30.1397 28.5637 30.1194 28.5622C30.0996 28.5611 30.0876 28.5634 30.0687 28.5571C30.0561 28.5529 30.0501 28.5478 30.0382 28.5419C30.0659 28.5082 30.0808 28.4626 30.1093 28.4549V28.4549ZM29.6367 28.3561C29.6644 28.3663 29.6812 28.3692 29.7077 28.3822C29.7373 28.3967 29.7511 28.41 29.7788 28.4279C29.7801 28.4353 29.7839 28.4433 29.7819 28.4512C29.7562 28.4572 29.737 28.4613 29.7078 28.4634C29.6841 28.4652 29.6706 28.4647 29.6468 28.4634C29.627 28.4623 29.615 28.4646 29.5961 28.4583C29.5835 28.4542 29.5775 28.449 29.5656 28.4431C29.5933 28.4094 29.6082 28.3639 29.6367 28.3561V28.3561ZM28.797 28.4592C28.8248 28.4694 28.8416 28.4723 28.8681 28.4853C28.8977 28.4998 28.9115 28.5132 28.9392 28.531C28.9405 28.5385 28.9442 28.5465 28.9423 28.5544C28.9165 28.5603 28.8973 28.5644 28.8681 28.5666C28.8444 28.5683 28.8309 28.5679 28.8072 28.5666C28.7874 28.5655 28.7753 28.5677 28.7564 28.5615C28.7438 28.5573 28.7378 28.5522 28.7259 28.5463C28.7537 28.5126 28.7685 28.467 28.797 28.4592V28.4592ZM28.3622 27.0163C28.3325 27.0028 28.3113 26.9657 28.3302 26.9391C28.3377 26.9284 28.3502 26.9307 28.3576 26.9199C28.3668 26.9067 28.3645 26.8954 28.3642 26.8793C28.3638 26.8611 28.3572 26.8516 28.354 26.8336C28.3506 26.814 28.3473 26.8028 28.3475 26.7829C28.3477 26.7525 28.3456 26.7308 28.3642 26.7067C28.376 26.6913 28.3961 26.678 28.4041 26.6771C28.4112 26.6836 28.4014 26.7014 28.4025 26.7169C28.4043 26.7392 28.4089 26.7516 28.4165 26.7727C28.4262 26.8 28.4397 26.8119 28.4505 26.8387C28.4606 26.8637 28.4699 26.8778 28.4708 26.9047C28.4716 26.9268 28.4696 26.9403 28.4607 26.9606C28.4527 26.9785 28.4461 26.9886 28.4311 27.0012C28.4181 27.0121 28.409 27.0169 28.3926 27.0215C28.3822 27.0226 28.3716 27.0208 28.3622 27.0163V27.0163Z" fill="#0065BD"/>
<path d="M22.7844 22.1614H26.7637V26.1332H22.7844V22.1614ZM27.188 22.1614H31.1673V26.1332H27.188V22.1614ZM22.7995 29.5778C22.8107 29.6493 22.8363 29.7721 22.9042 29.8978C22.9757 30.0107 22.9493 30.0077 23.1112 30.1884C23.1909 30.2774 23.3152 30.3535 23.4128 30.406C23.5106 30.4588 23.5831 30.4846 23.7441 30.5269C24.0596 30.6097 24.2811 30.6149 24.5466 30.6043C24.7538 30.596 24.9119 30.5705 25.0429 30.5528C25.2297 30.5278 25.3688 30.5128 25.5813 30.5039C25.6846 30.4996 25.7822 30.4986 25.8787 30.5039C25.9951 30.5104 26.1102 30.5284 26.2326 30.5528C26.4961 30.6056 26.7634 30.7072 26.7634 30.7072L26.764 26.5596L22.7841 26.5585V29.3933C22.7841 29.3933 22.7922 29.5318 22.7995 29.5778ZM31.1528 29.5768C31.1415 29.6484 31.116 29.7711 31.0481 29.8968C30.9765 30.0098 31.0029 30.0067 30.841 30.1874C30.7613 30.2763 30.637 30.3526 30.5395 30.405C30.4416 30.4578 30.3692 30.4836 30.2082 30.5259C29.8926 30.6087 29.6712 30.6139 29.4057 30.6033C29.1985 30.595 29.0404 30.5695 28.9093 30.5519C28.7226 30.5268 28.5835 30.5118 28.371 30.503C28.2677 30.4986 28.1701 30.4976 28.0736 30.503C27.9571 30.5094 27.8421 30.5274 27.7197 30.5519C27.4562 30.6046 27.1855 30.7062 27.1855 30.7062L27.1882 26.5586L31.1682 26.5575V29.3923C31.1682 29.3923 31.1601 29.5308 31.1528 29.5768V29.5768Z" stroke="#703D29" stroke-width="0.0385926"/>
</g>
</svg>
