<svg width="54" height="48" viewBox="0 0 54 48" fill="none" xmlns="http://www.w3.org/2000/svg">
<mask id="mask0_1_36849" style="mask-type:alpha" maskUnits="userSpaceOnUse" x="3" y="6" width="48" height="36">
<path d="M3.56934 15.1356C4.16681 10.4125 8.0415 7.00193 12.7861 6.60887C16.6412 6.28949 21.6196 6 27 6C32.3804 6 37.3588 6.28949 41.2139 6.60887C45.9585 7.00193 49.8332 10.4125 50.4307 15.1356C50.752 17.6759 51 20.704 51 24C51 27.296 50.752 30.3241 50.4307 32.8644C49.8332 37.5875 45.9585 40.9981 41.2139 41.3911C37.3588 41.7105 32.3804 42 27 42C21.6196 42 16.6412 41.7105 12.7861 41.3911C8.0415 40.9981 4.16681 37.5875 3.56934 32.8644C3.248 30.3241 3 27.296 3 24C3 20.704 3.248 17.6759 3.56934 15.1356Z" fill="#00D0BF"/>
</mask>
<g mask="url(#mask0_1_36849)">
<rect x="3" width="16" height="49" fill="#2E50A6"/>
<rect x="19" width="16" height="49" fill="#FCD95E"/>
<rect x="35" width="16" height="49" fill="#EE5757"/>
<path d="M25.5305 16.2188C26.114 16.2188 26.3526 16.7194 26.9361 16.7194C27.2964 16.7194 27.5064 16.6017 27.8204 16.4246C28.0394 16.3006 28.1792 16.2345 28.4307 16.2345C28.6883 16.2345 28.8462 16.3123 28.9779 16.5331C29.0524 16.658 29.1142 16.9025 29.0815 17.0428C29.0194 17.3087 28.9812 17.4244 28.8751 17.67C28.8246 17.788 28.7769 17.8587 28.7769 17.9879C28.7769 18.2976 29.1984 18.404 29.4849 18.4085C29.5474 18.4094 30.0727 18.418 30.396 18.0908C30.2206 18.0831 30.0243 17.9472 30.0243 17.7718C30.0243 17.5733 30.1638 17.439 30.3529 17.3817C30.3888 17.3714 30.45 17.4031 30.4825 17.386C30.5287 17.362 30.5071 17.3101 30.5482 17.2776C30.6423 17.2023 30.7035 17.1553 30.8241 17.1553C30.9028 17.1553 30.949 17.1664 31.0123 17.2117C31.0457 17.2357 31.0579 17.2653 31.0989 17.2653C31.1854 17.2653 31.2282 17.2106 31.3146 17.2106C31.3848 17.2106 31.4275 17.22 31.4891 17.2516C31.5405 17.2782 31.5393 17.3654 31.5975 17.3654C31.6266 17.3654 31.7805 17.3026 31.8609 17.3026C32.0278 17.3026 32.1168 17.3631 32.2247 17.4897C32.2537 17.5239 32.2724 17.5932 32.3019 17.5932C32.3615 17.5932 32.4988 17.6315 32.5843 17.7171C32.6211 17.7539 32.6374 17.7713 32.6657 17.8158C32.6853 17.8474 32.7156 17.9247 32.7503 17.9381C32.7911 17.9538 32.8253 17.9507 32.8789 17.9851C33.0012 18.0635 33.0952 18.2108 33.0908 18.3536C33.0894 18.4015 33.0675 18.4683 33.0545 18.5139C32.9121 19.0119 32.5732 19.1699 32.2309 19.5977C32.0854 19.7799 31.9706 19.9254 31.9706 20.1589C31.9706 20.2154 32.0402 20.3189 32.071 20.3659C32.0522 20.2562 32.1023 20.1213 32.2184 20.1151C32.3773 20.1065 32.5 20.2273 32.5214 20.3847C32.5257 20.4215 32.512 20.4851 32.4963 20.5227C32.5819 20.4662 32.6947 20.4281 32.7973 20.4161C32.8452 20.4103 32.8934 20.4082 32.9416 20.4098C33.1956 20.4161 33.4759 20.5589 33.646 20.7034C34.1665 21.1455 34.2294 21.7925 34.201 21.9722C34.1378 22.3715 34.1776 23.0941 33.157 23.3822C33.3457 23.4616 33.4742 23.6036 33.4742 23.7782C33.4742 23.9681 33.3287 24.1307 33.1388 24.1307C33.0301 24.1307 32.9548 24.1041 32.8787 24.028C32.6665 24.2402 32.6254 24.4566 32.6254 24.757C32.6254 24.9366 32.6596 25.0427 32.7349 25.2053C32.8145 25.3773 32.8718 25.4782 33.0155 25.6023C33.0917 25.4876 33.1721 25.4038 33.3099 25.4038C33.4434 25.4038 33.5563 25.4465 33.611 25.568C33.6273 25.6048 33.6127 25.6348 33.6316 25.6707C33.6555 25.7169 33.6958 25.7272 33.7206 25.7734C33.7591 25.8444 33.7214 25.9052 33.7548 25.9787C33.7762 26.0266 33.8232 26.0335 33.8438 26.0814C33.8763 26.155 33.8849 26.2055 33.8849 26.2867C33.8849 26.5144 33.6778 26.6769 33.4502 26.6769C33.3818 26.6769 33.3441 26.6496 33.2757 26.6564C33.4057 26.7864 33.5049 26.8429 33.6042 26.9986C33.7479 27.2236 33.7839 27.3836 33.8164 27.6489C33.8224 27.6985 33.8233 27.7284 33.8233 27.779C33.8233 28.1195 33.7702 28.3231 33.6179 28.6277C33.4725 28.9194 33.3484 29.0812 33.084 29.2711C32.6716 29.568 32.3712 29.6536 31.8725 29.7502C31.5525 29.8118 31.3694 29.8392 31.0442 29.8598C30.6284 29.8863 30.3914 29.8871 29.9764 29.9145C29.4322 29.9513 29.0549 30.0283 28.669 30.4142C28.8513 30.5476 28.9771 30.6786 28.9771 30.9036C28.9771 31.1346 28.8342 31.2997 28.6143 31.3725C28.563 31.3896 28.5253 31.3742 28.4774 31.3998C28.4201 31.4298 28.4226 31.4957 28.3679 31.5299C28.2712 31.5915 28.1959 31.6052 28.0804 31.6052C27.8768 31.6052 27.7381 31.5573 27.5944 31.4135C27.4276 31.5521 27.371 31.677 27.1837 31.7831C27.1221 31.8174 27.0904 31.8653 27.0194 31.8653C26.9073 31.8653 26.856 31.7943 26.7662 31.7284C26.6233 31.624 26.5471 31.5547 26.4307 31.4204C26.2605 31.5222 26.1561 31.6052 25.9584 31.6052C25.8369 31.6052 25.7599 31.588 25.6572 31.523C25.6033 31.4897 25.5948 31.44 25.5409 31.4067C25.4844 31.3716 25.4373 31.3844 25.3766 31.3587C25.1482 31.2604 25.0001 31.0909 25.0001 30.842C25.0001 30.6238 25.1379 30.4852 25.3356 30.3936C24.9565 30.0146 24.5835 29.9488 24.0487 29.9145C23.6354 29.888 23.4001 29.8872 22.9877 29.8598C22.66 29.8375 22.4778 29.8041 22.1526 29.7502C21.907 29.71 21.7616 29.6972 21.5366 29.5928C20.7623 29.2317 20.2686 28.7364 20.1676 27.8884C20.159 27.8157 20.1607 27.7738 20.1607 27.7002C20.1607 27.2587 20.3344 26.9892 20.6467 26.6769C20.5663 26.658 20.5124 26.6846 20.4345 26.6564C20.2394 26.5853 20.0991 26.4501 20.0991 26.2422C20.0991 26.1652 20.1025 26.1139 20.1402 26.0472C20.1667 26.0001 20.2172 25.9907 20.2291 25.9376C20.2445 25.8675 20.224 25.8178 20.2565 25.7528C20.2779 25.7092 20.3181 25.7006 20.3387 25.657C20.4063 25.5167 20.491 25.4037 20.6467 25.4037C20.7802 25.4037 20.8657 25.4739 20.9342 25.5886C21.0642 25.5287 21.1002 25.4311 21.1738 25.3079C21.2961 25.1034 21.3517 24.9605 21.3517 24.7227C21.3517 24.5567 21.3355 24.4592 21.2833 24.3017C21.2456 24.1888 21.2302 24.1118 21.1464 24.028C21.0702 24.1041 20.9949 24.1306 20.8863 24.1306C20.669 24.1306 20.503 23.9441 20.503 23.7268C20.503 23.565 20.5825 23.4453 20.7289 23.3777C20.6116 23.2767 20.5098 23.2682 20.3797 23.186C20.1821 23.0611 20.1128 22.9294 19.9828 22.7343C19.898 22.6068 19.8758 22.5178 19.8322 22.3715C19.78 22.1952 19.75 22.09 19.75 21.9061C19.75 21.8581 19.7509 21.8299 19.7568 21.7828C19.8056 21.4115 19.8724 21.1787 20.106 20.8861C20.2445 20.7124 20.3387 20.6055 20.544 20.5165C20.7185 20.4412 20.8229 20.3865 21.0129 20.3865C21.0702 20.3865 21.1036 20.3865 21.1601 20.3933C21.2473 20.4045 21.303 20.4121 21.3791 20.4549C21.4082 20.4712 21.4612 20.52 21.4612 20.4857C21.4612 20.4464 21.4407 20.4258 21.4407 20.3865C21.4407 20.2291 21.5536 20.0853 21.7111 20.0853C21.8249 20.0853 21.8711 20.1854 21.9267 20.2838C21.9627 20.2239 21.9814 20.1828 21.9814 20.1127C21.9814 19.8526 21.842 19.72 21.6803 19.5172C21.3277 19.0765 20.8863 18.8704 20.8863 18.3057C20.8863 18.1371 20.9675 18.0224 21.1122 17.936C21.1541 17.9112 21.2105 17.936 21.2515 17.9098C21.2866 17.8875 21.2826 17.8422 21.3048 17.8063C21.3399 17.7507 21.3709 17.7268 21.4197 17.684C21.5001 17.6138 21.5708 17.6349 21.6597 17.5733C21.7042 17.5425 21.7147 17.5024 21.749 17.4614C21.8482 17.3416 21.9373 17.2838 22.0939 17.2838C22.1726 17.2838 22.2168 17.2842 22.2895 17.3131C22.3143 17.3226 22.3607 17.36 22.3667 17.3528C22.3823 17.3339 22.4248 17.2889 22.4753 17.265C22.5412 17.2333 22.5679 17.221 22.6415 17.221C22.7254 17.221 22.7803 17.2681 22.8641 17.2681C22.8949 17.2681 22.9021 17.2373 22.9268 17.221C23.0013 17.1706 23.0441 17.142 23.1348 17.142C23.2221 17.142 23.2703 17.1709 23.3439 17.2179C23.4131 17.2616 23.4232 17.32 23.4942 17.3611C23.5335 17.3842 23.5669 17.3739 23.6106 17.3884C23.8056 17.4535 23.9528 17.5835 23.9528 17.7889C23.9528 17.9001 23.9263 17.9797 23.8433 18.0524C23.7774 18.1106 23.715 18.1003 23.6311 18.1277C23.9032 18.345 24.1399 18.3989 24.4873 18.3989C24.8056 18.3989 25.1948 18.2688 25.1948 17.9505C25.1948 17.8025 25.113 17.7229 25.0548 17.5869C24.9504 17.3448 24.8938 17.2024 24.8938 16.9388C24.8938 16.7301 24.9166 16.6034 25.0381 16.434C25.163 16.2595 25.3156 16.2188 25.5304 16.2188L25.5305 16.2188Z" fill="#C7B37F"/>
<path d="M23.4105 17.9126C23.4314 17.9916 23.4954 18.0656 23.5955 18.0969C23.6557 18.1157 23.795 18.1082 23.8854 17.9915C23.9586 17.8969 23.953 17.7797 23.9257 17.6866C23.908 17.6263 23.8593 17.5682 23.795 17.5187L23.4107 17.9088L23.4106 17.9126L23.4105 17.9126Z" stroke="#703D29" stroke-width="0.0504077" stroke-linejoin="round"/>
<path d="M33.1444 23.7465C33.054 23.5281 32.8206 23.626 32.8062 23.7465C32.7732 24.024 33.0164 24.1079 33.1896 24.0627C33.2753 24.0404 33.3381 23.9863 33.3782 23.916C33.4234 23.8366 33.4371 23.7329 33.4077 23.634C33.3944 23.5891 33.3756 23.5513 33.3435 23.509C33.3113 23.4665 33.278 23.4373 33.2467 23.4175C33.1802 23.3749 33.1076 23.3707 32.9938 23.3707C32.5721 23.3707 32.2032 23.8689 32.0793 24.3865C32.0385 24.5569 31.9824 24.937 32.0601 25.2975C32.1429 25.6815 32.3089 25.9474 32.5037 26.1491C32.6091 26.2582 32.7528 26.3554 32.939 26.4607C32.9963 26.4931 33.1482 26.5604 33.2535 26.5906C33.3618 26.6215 33.4617 26.617 33.5518 26.5974C33.8016 26.5432 33.9178 26.3108 33.7919 26.073C33.6888 25.8784 33.3853 25.7719 33.2422 26.0203C33.2301 26.0415 33.2112 26.0874 33.2118 26.1371C33.2126 26.2033 33.2401 26.2832 33.2874 26.3134C33.3962 26.3825 33.5701 26.3629 33.5621 26.1709" stroke="#703D29" stroke-width="0.050214" stroke-linecap="round"/>
<path d="M31.8408 26.6097C31.9255 26.5102 32.1196 26.3608 32.3417 26.3336C32.567 26.3059 32.7629 26.3715 32.9628 26.479C33.3531 26.6889 33.5707 26.9146 33.7157 27.3332C33.7525 27.4396 33.7831 27.5998 33.7789 27.7701C33.7721 28.0415 33.7032 28.3381 33.6292 28.4815C33.5646 28.6066 33.3958 29.1591 32.4696 29.5404C31.9292 29.7629 31.0993 29.8142 30.527 29.8368C29.7399 29.8679 29.0136 29.897 28.592 30.4165" stroke="#703D29" stroke-width="0.0617869"/>
<path d="M27.8063 18.1862C27.8685 18.2987 27.9028 18.3672 27.8666 18.4836C27.8255 18.6154 27.732 18.6944 27.5993 18.6944C27.2981 18.6944 27.121 18.3378 27.2567 18.1109C27.4976 17.708 27.9607 17.9343 28.3899 18.1338C28.3691 18.0305 28.333 17.9969 28.3368 17.8689C28.3461 17.551 28.5819 17.4068 28.676 17.1133C28.732 16.9383 28.7543 16.7864 28.6264 16.6622C28.5146 16.5537 28.3851 16.5554 28.2393 16.6125C27.9479 16.7267 27.5979 17.055 26.9817 17.0641C26.3656 17.055 26.0127 16.7267 25.7213 16.6125C25.5755 16.5554 25.446 16.5537 25.3342 16.6622C25.2062 16.7864 25.2285 16.9383 25.2846 17.1133C25.3787 17.4069 25.6144 17.551 25.6238 17.8689C25.6275 17.9969 25.5914 18.0305 25.5707 18.1338C25.9999 17.9343 26.481 17.6877 26.7039 18.1109C26.8281 18.3466 26.6625 18.6943 26.3613 18.6943C26.2285 18.6943 26.1353 18.6097 26.094 18.4836C26.0572 18.3711 26.094 18.2727 26.1542 18.1862M32.0375 27.4997C32.0149 27.4169 32.0358 27.3375 32.1015 27.2475C32.1893 27.1271 32.3763 27.0856 32.5457 27.1797C32.6024 27.2112 32.6734 27.2527 32.7377 27.3378C32.762 27.37 32.8031 27.422 32.8243 27.4583C32.8756 27.5459 32.8966 27.6177 32.9067 27.6465C33.093 28.1757 32.7971 28.7491 32.4102 28.9792C32.1097 29.1579 31.7512 29.2376 31.3222 29.2879C31.1294 29.3106 31.0192 29.3091 30.8252 29.3181C30.6691 29.3253 30.5343 29.3227 30.4073 29.3212C30.3029 29.3198 30.2037 29.3204 30.1024 29.3181C29.937 29.3142 29.7659 29.3103 29.5565 29.3256C29.3362 29.3416 29.1705 29.3473 28.9842 29.3783C28.8627 29.3985 28.7201 29.4181 28.5706 29.4517C28.5258 29.4617 28.4803 29.4699 28.4346 29.4837C28.4039 29.493 28.3736 29.5024 28.3435 29.5115C28.0737 29.5938 27.8116 29.6941 27.6047 29.8273C27.5408 29.8684 27.4687 29.9096 27.417 29.9584C27.3848 29.9888 27.3457 30.0192 27.3142 30.0503C27.1694 30.1927 27.0213 30.3469 26.9867 30.5557C26.9803 30.5942 26.9803 30.6346 26.9803 30.6771C26.9803 30.8126 27.0906 30.9971 27.388 31.0573L32.0375 27.4997Z" stroke="#703D29" stroke-width="0.0542814"/>
<path d="M26.756 18.4084C26.7492 18.5248 26.7013 18.6001 26.5849 18.648M26.6021 17.977C26.7184 18.066 26.8006 18.1755 26.7869 18.3535C26.772 18.5465 26.7253 18.593 26.5747 18.6957L26.6021 17.977Z" stroke="#703D29" stroke-width="0.0542814" stroke-linecap="round"/>
<path d="M23.7403 17.4782L23.793 17.5158L23.8494 17.5761L23.8871 17.6514L23.9059 17.7154L23.9097 17.7982L23.9059 17.8547L23.8871 17.9187L23.8494 17.9638L23.8042 18.0128L23.7403 18.0467L23.6575 18.0655L23.5859 18.0768L23.5106 18.0429L23.4429 17.994L23.4015 17.9337L23.3713 17.8584V17.8284L23.7403 17.4782H23.7403Z" fill="#C7B37F"/>
<path d="M23.6246 17.7726C23.6014 17.6477 23.4553 17.622 23.3987 17.6958C23.3115 17.8095 23.3752 17.9988 23.5525 18.0542C23.6127 18.0731 23.752 18.0655 23.8424 17.9488C23.9156 17.8542 23.91 17.737 23.8827 17.6439C23.8649 17.5836 23.8166 17.5311 23.752 17.482C23.5461 17.3255 23.2137 17.3615 23.1045 17.625C22.9636 17.965 23.2701 18.2199 23.5525 18.4119C23.9079 18.6536 24.313 18.6975 24.6179 18.6942C25.3106 18.6867 25.8377 18.3554 26.1803 18.1672C26.2601 18.1234 26.3422 18.1323 26.3835 18.1822C26.4302 18.2386 26.4294 18.3296 26.3647 18.3893" stroke="#703D29" stroke-width="0.0504077" stroke-linecap="round"/>
<path d="M22.4595 27.171L22.4482 27.3065L22.4256 27.4006L22.3578 27.5625L22.2524 27.7018L22.1395 27.7921L22.0567 27.8336L21.94 27.8599M21.5709 27.1559L21.4166 27.2124L21.2585 27.3329L21.1907 27.427L21.1041 27.5776L21.0665 27.6905L21.0364 27.8298L21.0213 27.9353L21.5709 27.1559Z" stroke="#703D29" stroke-width="0.0511824"/>
<path d="M26.9943 30.7818C26.9662 30.9071 26.8488 31.0504 26.5934 31.1022L26.5438 31.1125" stroke="#703D29" stroke-width="0.0579615"/>
<path d="M33.3855 26.7792C33.5473 26.93 33.6608 27.1135 33.7481 27.3655C33.7849 27.4718 33.8155 27.6321 33.8112 27.8023C33.8044 28.0737 33.7356 28.3703 33.6615 28.5138C33.5969 28.6389 33.4281 29.1914 32.502 29.5727C31.9616 29.7952 31.1317 29.8464 30.5594 29.869C29.7836 29.8997 29.0669 29.9284 28.6428 30.4267" stroke="#703D29" stroke-width="0.0656607"/>
<path d="M32.1198 27.2818C32.1773 27.2033 32.3869 27.104 32.5563 27.1981C32.6121 27.2291 32.6782 27.2683 32.7362 27.3551" stroke="#703D29" stroke-width="0.0449844"/>
<path d="M33.188 26.5961C33.2259 26.6107 33.2635 26.6238 33.2966 26.6333C33.4049 26.6642 33.5067 26.6666 33.5948 26.6402C33.809 26.5759 33.9464 26.3758 33.835 26.1157C33.8091 26.0555 33.7597 25.9977 33.7034 25.9543" stroke="#703D29" stroke-width="0.0656607"/>
<path d="M23.9088 17.84C23.9088 17.97 23.8129 18.0522 23.6829 18.0795M20.9821 20.9956C20.8384 21.0846 20.7312 21.1057 20.6194 21.2352C20.508 21.4557 20.4643 21.5742 20.4208 21.7509L20.9821 20.9956Z" stroke="#703D29" stroke-width="0.0504077" stroke-linecap="round"/>
<path d="M32.848 20.4097C33.2059 20.4025 34.2454 20.6828 34.2529 21.9048C34.2601 23.1118 33.508 23.3089 33.2066 23.3893" stroke="#703D29" stroke-width="0.0482771"/>
<path d="M32.942 20.4097C33.559 20.3829 34.1957 20.8371 34.2238 21.9707C34.2457 22.8563 33.6177 23.258 33.3163 23.3383" stroke="#703D29" stroke-width="0.050214"/>
<path d="M21.9007 20.2945L21.9026 20.3698M32.5982 24.6772L32.6077 24.5561L32.648 24.3636L32.7051 24.214L32.7692 24.0904L32.8523 23.9907L32.5982 24.6772ZM33.4412 23.7335L33.4318 23.8521L33.3979 23.933L33.3452 24.0102L33.2849 24.0554L33.1927 24.0893L33.1118 24.0949L33.0515 24.0854L33.4412 23.7335ZM31.9687 20.0897L31.995 19.9617L32.0515 19.8431L32.1249 19.7245L32.251 19.5626L32.3508 19.4516L32.5126 19.2878L32.652 19.1466L32.7404 19.045L32.8571 18.9038L32.9607 18.7476L33.0228 18.6196L33.0567 18.4539L33.0669 18.2485L33.0482 18.189L31.9687 20.0897ZM32.1193 27.8867L32.2416 27.8622L32.3339 27.8132L32.3847 27.7624L32.4205 27.7041L32.4449 27.61L32.4468 27.5441L32.1193 27.8867ZM20.4737 26.6248L20.564 26.6323L20.6807 26.6229L20.7974 26.5815L20.4737 26.6248ZM21.1758 23.8163L21.1608 23.9217L21.1363 23.9688L21.1005 24.0139L21.0516 24.0516L20.997 24.076L20.9255 24.0873L20.8765 24.0911L21.1758 23.8163ZM21.6257 22.9093L21.5993 23.0731L21.5673 23.1446L21.5015 23.235L21.4129 23.3028L21.3226 23.3479L21.1475 23.3912L21.6257 22.9093ZM22.305 20.3831L22.2711 20.481L22.2297 20.5526L22.1733 20.6316L22.0942 20.7031L22.0001 20.7483L21.921 20.7671L21.8721 20.7633L22.305 20.3831Z" stroke="#703D29" stroke-width="0.0426601"/>
<path d="M33.2718 26.3235C33.2782 26.3306 33.2999 26.334 33.3075 26.3385C33.4148 26.4026 33.626 26.3228 33.5639 26.1572M22.0416 22.8337C21.9953 22.8758 21.9417 22.909 21.8835 22.932L22.0416 22.8337Z" stroke="#703D29" stroke-width="0.0477928" stroke-linecap="round"/>
<path d="M27.5758 31.3614C27.4779 31.512 27.2445 31.7379 26.9998 31.8282C26.755 31.7379 26.5216 31.512 26.4238 31.3614M32.8988 24.0099C32.975 24.1094 33.1186 24.1352 33.2321 24.1056C33.3179 24.0832 33.3807 24.0292 33.4207 23.9589C33.466 23.8795 33.4797 23.7758 33.4503 23.6768C33.437 23.632 33.4182 23.5942 33.3861 23.5519C33.3539 23.5094 33.3139 23.4641 33.2829 23.4439C33.2747 23.4385 33.2665 23.4312 33.2578 23.4254L32.8988 24.0099ZM33.7438 25.9991C33.7471 25.9814 33.7488 25.9633 33.7488 25.9446C33.7488 25.857 33.7122 25.7767 33.6515 25.7226C33.6308 25.7041 33.6108 25.6754 33.5857 25.6629L33.7438 25.9991ZM33.6218 25.6984C33.6183 25.5574 33.5029 25.4565 33.3598 25.4314L33.6218 25.6984ZM33.0441 25.6461C33.0112 25.6193 32.976 25.5965 32.9452 25.5643C32.76 25.3704 32.6206 25.0837 32.6188 24.7567C32.617 24.4433 32.743 24.1242 32.8898 24L33.0441 25.6461ZM28.6149 30.4046L28.7505 30.2803L28.8446 30.2088L29.0215 30.0996L29.1871 30.0206L29.3038 29.9905L29.5373 29.9377L29.8083 29.8963L28.6149 30.4046Z" stroke="#703D29" stroke-width="0.0477928"/>
<path d="M26.5914 31.0481C26.5607 31.1618 26.505 31.2721 26.4235 31.3605" stroke="#703D29" stroke-width="0.0477928" stroke-linecap="round"/>
<path d="M27.5545 31.3401C27.4566 31.4907 27.2232 31.7166 26.9785 31.8069C26.7338 31.7166 26.5004 31.4907 26.4025 31.3401M26.6156 30.8903L26.5817 31.0559L26.6156 30.8903ZM26.4049 31.3721L26.3334 31.4436L26.2054 31.5151L26.0586 31.5603L26.4049 31.3721ZM25.6316 18.1058C25.65 18.0486 25.6688 18.0055 25.666 17.9114C25.6567 17.5935 25.421 17.4494 25.3268 17.1557C25.2708 16.9808 25.2485 16.8289 25.3765 16.7046C25.4882 16.5962 25.6177 16.5979 25.7635 16.655C26.055 16.7693 26.408 17.0975 27.0241 17.1066C26.408 17.0975 26.0549 16.7692 25.7635 16.655C25.6177 16.5979 25.4762 16.5812 25.3644 16.6896C25.2364 16.8138 25.2708 16.9808 25.3268 17.1557C25.421 17.4494 25.6446 17.5935 25.654 17.9114C25.6567 18.0055 25.6319 18.0486 25.6136 18.1058H25.6316ZM27.0223 17.085C27.6284 17.053 28.1479 16.6458 28.3155 16.6126C28.4649 16.583 28.5484 16.5963 28.6579 16.6959C28.5483 16.5963 28.4235 16.5994 28.2817 16.655C27.9903 16.7692 27.6403 17.0975 27.0242 17.1066L27.0223 17.085ZM33.0466 25.6476C32.7943 25.4669 32.5782 25.1219 32.576 24.7143C32.5742 24.4008 32.7002 24.0818 32.847 23.9576L33.0466 25.6476Z" stroke="#703D29" stroke-width="0.0477928"/>
<path d="M26.005 18.2651C26.0681 18.2302 26.1265 18.197 26.1805 18.1674C26.2603 18.1235 26.3563 18.1327 26.3976 18.1827C26.4441 18.239 26.4513 18.3367 26.3866 18.3965" stroke="#703D29" stroke-width="0.0477928" stroke-linecap="round"/>
<path d="M22.1147 20.6446C22.2493 20.759 22.3142 20.9006 22.3142 21.0775C22.3142 21.3119 22.1181 21.6949 21.6363 21.8305C21.4516 21.8824 21.2688 21.8405 21.1583 21.7733M25.1 18.6888C25.5158 18.602 25.8546 18.4158 26.1108 18.2725L25.1 18.6888ZM28.5525 30.6946C28.5868 30.7181 28.6089 30.7669 28.6089 30.7669C28.6185 30.7896 28.6307 30.8111 28.6342 30.8311C28.6537 30.9463 28.5782 31.0181 28.4849 31.029C28.3566 31.0439 28.2604 30.9677 28.2194 30.8755L28.5525 30.6946ZM25.0786 18.6675C25.4945 18.5807 25.8333 18.3945 26.0895 18.2512L25.0786 18.6675ZM33.4722 26.3395C33.3931 26.37 33.3499 26.3659 33.2515 26.3222C33.2111 26.3043 33.1649 26.2765 33.1107 26.2458C32.918 26.1363 32.6891 25.9638 32.4745 25.561C32.4171 25.4541 32.3737 25.3403 32.3451 25.2224C32.3247 25.1383 32.3105 25.0553 32.3074 24.97C32.3022 24.8247 32.3178 24.6731 32.3541 24.4993C32.414 24.2124 32.486 24.0566 32.6628 23.8142C32.7497 23.6949 32.8247 23.6221 32.9865 23.6184L33.4722 26.3395Z" stroke="#703D29" stroke-width="0.0477928"/>
<path d="M22.1937 21.4387C22.2802 21.499 22.3141 21.5666 22.3141 21.6842C22.3141 21.7648 22.262 21.8693 22.1734 21.9683C22.0282 22.1303 21.782 22.268 21.5092 22.2714C21.3612 22.2733 21.2075 22.2423 21.053 22.139C20.8877 22.0285 20.8007 21.8792 20.7631 21.7324" stroke="#703D29" stroke-width="0.0477928"/>
<path d="M22.3099 20.4591C22.2615 20.599 22.1729 20.6989 22.0327 20.7622C21.893 20.8254 21.7312 20.7664 21.6447 20.6997M22.1859 21.9437C22.284 22.0339 22.3141 22.1468 22.3141 22.2889C22.3141 22.4967 22.2298 22.6569 22.0357 22.8267C21.9902 22.8665 21.9411 22.9018 21.8889 22.9322L22.1859 21.9437ZM31.6815 21.2619V21.5292V21.2619ZM31.6602 21.1961V21.5725V21.1961ZM31.6815 20.3811V20.8743V20.3811ZM31.6602 20.2722V20.9461V20.2722ZM31.5164 27.1472C31.423 27.3329 31.3482 27.4305 31.2002 27.5763C31.0508 27.7236 30.9472 27.7911 30.7597 27.885C30.5771 27.9766 30.462 28.0057 30.2628 28.0507C30.0636 28.0957 29.9471 28.1055 29.7432 28.1147C29.5562 28.1232 29.4501 28.1154 29.2634 28.1024C29.0635 28.0886 28.9526 28.0607 28.7531 28.0432C28.5883 28.0287 28.4952 28.0154 28.3297 28.0158C28.1597 28.0163 28.0622 28.0173 27.8948 28.0469C27.7387 28.0746 27.6501 28.0966 27.5032 28.1561C27.2999 28.2384 27.0703 28.382 27.0213 28.446C26.9724 28.382 26.7427 28.2385 26.5394 28.1561C26.3926 28.0966 26.304 28.0746 26.1479 28.0469C25.9804 28.0173 25.883 28.0162 25.7129 28.0158C25.5474 28.0153 25.4544 28.0287 25.2895 28.0432C25.09 28.0607 24.9792 28.0886 24.7793 28.1024C24.5925 28.1153 24.4865 28.1232 24.2994 28.1147C24.0955 28.1055 23.979 28.0958 23.7799 28.0507C23.5807 28.0056 23.4657 27.9764 23.283 27.8851C23.0953 27.7913 22.9919 27.7236 22.8425 27.5763C22.827 27.5611 22.8117 27.5457 22.7966 27.5302L31.5164 27.1472ZM25.9871 31.5681L26.1226 31.5512L25.9871 31.5681ZM28.413 31.373L28.5498 31.36L28.6801 31.3079L28.7713 31.2525L28.8951 31.1059L28.9211 31.0505L28.9407 30.9235L28.9472 30.8649L28.413 31.373ZM32.4965 20.5225C32.5552 20.3226 32.4835 20.1118 32.2899 20.1174L32.4965 20.5225ZM22.3065 23.6404C22.2574 23.8064 22.1518 23.9198 22.0344 23.9936L22.3065 23.6404Z" stroke="#703D29" stroke-width="0.0477928"/>
<path d="M21.249 21.1927C21.3648 21.2534 21.4824 21.1645 21.4582 21.0138C21.4469 20.9432 21.3708 20.854 21.2678 20.8475" stroke="#703D29" stroke-width="0.0477928" stroke-linecap="round"/>
<path d="M21.7293 27.568C21.7543 27.5915 21.7596 27.622 21.7933 27.6282C21.8442 27.6376 21.8837 27.6564 21.9345 27.5887C21.9971 27.5052 21.9635 27.3752 21.8983 27.2934C21.8286 27.2059 21.6265 27.1285 21.4571 27.2227C21.4004 27.2541 21.3293 27.2956 21.2651 27.3808C21.2408 27.413 21.1997 27.465 21.1785 27.5012C21.1272 27.5889 21.1062 27.6606 21.096 27.6895C20.941 28.13 21.125 28.5932 21.4102 28.8755" stroke="#703D29" stroke-width="0.0477928"/>
<path d="M28.5433 30.6849C28.5613 30.7036 28.5777 30.7237 28.5922 30.7452C28.6018 30.7678 28.6096 30.7893 28.6129 30.8094C28.6325 30.9246 28.557 30.9963 28.4637 31.0072C28.3355 31.0221 28.2496 30.9466 28.2086 30.8544" stroke="#703D29" stroke-width="0.0477928" stroke-linecap="round"/>
<path d="M33.586 25.6626C33.5637 25.5284 33.4498 25.4263 33.3125 25.4263C33.1593 25.4263 33.0351 25.5535 33.0351 25.7105C33.0351 25.7874 33.0649 25.8572 33.1133 25.9083M32.2675 17.5906C32.5206 17.6215 32.7412 17.8631 32.7412 18.1228C32.7412 18.4579 32.6284 18.5827 32.452 18.8223C32.2632 19.0788 31.6463 19.5489 31.6463 20.0835C31.6463 20.4073 31.7367 20.6143 31.9701 20.7197C32.1205 20.7877 32.2965 20.7141 32.3767 20.6418C32.5724 20.4648 32.4941 20.1545 32.2901 20.1174C32.0416 20.0722 31.9949 20.4634 32.2373 20.4374L32.2675 17.5906Z" stroke="#703D29" stroke-width="0.0477928"/>
<path d="M22.0203 22.8391C22.2274 23.001 22.314 23.158 22.314 23.4076C22.314 23.6937 22.1747 23.8706 22.0128 23.9723M31.8457 20.6446C31.7111 20.759 31.6462 20.9006 31.6462 21.0775C31.6462 21.3119 31.8423 21.6949 32.3242 21.8305C32.5089 21.8824 32.6853 21.8775 32.7958 21.8103L31.8457 20.6446ZM20.9904 21.0281C20.8752 21.0665 20.7314 21.1384 20.6248 21.2893C20.5349 21.4167 20.4825 21.5937 20.4501 21.7486C20.4359 21.8164 20.419 22.031 20.4623 22.2527C20.4943 22.4164 20.5619 22.5688 20.6367 22.6791C20.6635 22.7187 20.6878 22.7453 20.7152 22.7727C20.7402 22.7977 20.7758 22.8199 20.8011 22.8391L20.9904 21.0281ZM25.6443 29.8032C26.0111 29.9658 26.28 30.0877 26.5081 30.4477C26.5796 30.5607 26.5984 30.7225 26.5984 30.8167C26.5984 31.0199 26.5156 31.2496 26.3461 31.3926C26.189 31.5254 26.0337 31.5658 25.8417 31.547C25.6961 31.5327 25.5594 31.4265 25.5368 31.3512L25.6443 29.8032Z" stroke="#703D29" stroke-width="0.0477928"/>
<path d="M21.832 23.7693C22.1407 24.1533 22.3045 24.3812 22.3139 24.8385C22.3226 25.2676 22.1858 25.5613 21.9299 25.87" stroke="#703D29" stroke-width="0.0477928" stroke-linecap="round"/>
<path d="M31.6815 25.2137V26.436H31.6848C31.6848 26.4368 31.6843 26.5516 31.6745 26.6242C31.6681 26.6718 31.6613 26.7147 31.6537 26.7551M27.7511 18.6927C27.8073 18.6559 27.8484 18.5968 27.872 18.5239C27.9085 18.4114 27.9093 18.3153 27.8491 18.2288C27.9233 18.326 27.9302 18.4082 27.9092 18.5262C27.896 18.6013 27.848 18.6409 27.7883 18.6949L27.7511 18.6927Z" stroke="#703D29" stroke-width="0.0477928"/>
<path d="M22.4823 27.1031C22.5145 27.3425 22.4139 27.5777 22.3117 27.6859C22.2477 27.7537 22.1083 27.8831 21.9352 27.8854C21.6491 27.8891 21.5637 27.6924 21.5464 27.6445M31.6603 25.096V26.4142H31.6635C31.6635 26.4151 31.6631 26.5299 31.6532 26.6025C31.643 26.6781 31.6321 26.7423 31.6179 26.8022L31.6603 25.096ZM31.6603 23.5528V24.6521V23.5528ZM31.6816 23.6395V24.5335V23.6395ZM31.6816 22.5025V23.1728V22.5025ZM31.6603 22.4236V23.2499V22.4236ZM31.6816 21.8174V22.0774V21.8174ZM31.6603 21.7646V22.1411V21.7646ZM31.5208 27.0736C31.5128 27.0906 31.5042 27.108 31.4951 27.1261C31.4017 27.3118 31.327 27.4094 31.1789 27.5553C31.0295 27.7025 30.926 27.77 30.7384 27.864C30.5558 27.9555 30.4407 27.9846 30.2415 28.0296C30.0424 28.0746 29.9259 28.0844 29.7219 28.0936C29.535 28.1021 29.4289 28.0942 29.2421 28.0813C29.0423 28.0675 28.9314 28.0396 28.7319 28.0221C28.567 28.0076 28.4739 27.9943 28.3085 27.9947C28.1384 27.9952 28.041 27.9962 27.8735 28.0259C27.7174 28.0535 27.6289 28.0755 27.4819 28.135C27.2787 28.2173 27.0491 28.3609 27.0001 28.4249C26.9511 28.3609 26.7215 28.2174 26.5182 28.135C26.3713 28.0755 26.2828 28.0535 26.1267 28.0259C25.9592 27.9962 25.8618 27.9951 25.6917 27.9947C25.5262 27.9942 25.4331 28.0076 25.2683 28.0221C25.0687 28.0396 24.9579 28.0675 24.758 28.0813C24.5713 28.0942 24.4652 28.1021 24.2782 28.0936C24.0742 28.0844 23.9578 28.0747 23.7587 28.0297C23.5594 27.9845 23.4444 27.9554 23.2617 27.864C23.0741 27.7702 22.9707 27.7025 22.8213 27.5553C22.743 27.4782 22.6853 27.4146 22.6344 27.3444L31.5208 27.0736Z" stroke="#703D29" stroke-width="0.0477928"/>
<path d="M27.601 31.3817C27.6184 31.4007 27.6371 31.4186 27.6569 31.4354C27.8141 31.5681 27.9694 31.6086 28.1614 31.5898C28.307 31.5755 28.4227 31.4783 28.4694 31.394C28.4694 31.394 28.4955 31.3659 28.5029 31.339M22.1423 26.9792C22.1954 27.0316 22.2426 27.0956 22.2824 27.1712C22.3539 27.3067 22.3319 27.5334 22.2752 27.638C22.269 27.6495 22.2613 27.6617 22.2522 27.6742L22.1423 26.9792ZM20.7206 29.0371C20.8908 29.2157 21.1481 29.4096 21.5433 29.5723C22.0838 29.7948 22.9137 29.8461 23.4859 29.8686C24.2469 29.8987 24.948 29.9299 25.3749 30.4012L20.7206 29.0371ZM26.6887 30.0932C26.8145 30.217 26.9428 30.3496 26.997 30.5192L26.6887 30.0932ZM26.4413 31.3856C26.4248 31.4031 26.4074 31.4199 26.3888 31.4355C26.2316 31.5682 26.0763 31.6087 25.8844 31.5898C25.7387 31.5755 25.5983 31.4664 25.5606 31.3949L26.4413 31.3856ZM25.1556 31.175C25.1627 31.1846 25.17 31.1939 25.1778 31.2029C25.2692 31.3094 25.4135 31.3761 25.5641 31.3885L25.1556 31.175ZM27.5971 31.3827C27.4992 31.5333 27.2658 31.7591 27.0211 31.8495C26.7764 31.7591 26.543 31.5333 26.4451 31.3827L26.4222 31.3475L27.5971 31.3827Z" stroke="#703D29" stroke-width="0.0477928"/>
<path d="M28.4542 31.3513L28.398 31.4417L28.3125 31.5125L28.183 31.5663L28.0658 31.5711" stroke="#703D29" stroke-width="0.0477928"/>
<path d="M30.7117 17.4496C30.776 17.4934 30.8415 17.5605 30.877 17.6463C31.0178 17.9862 30.7114 18.2411 30.429 18.4332C30.2266 18.5708 30.008 18.6443 29.8011 18.6815M28.7583 30.4907C28.8276 30.5439 28.8956 30.6244 28.9326 30.7103C28.9563 30.7655 28.9674 30.8263 28.9707 30.8894C28.9771 31.0089 28.9351 31.1189 28.8631 31.2028C28.7663 31.3155 28.6155 31.3836 28.4549 31.39C28.443 31.3905 28.4311 31.3906 28.4194 31.39L28.7583 30.4907ZM28.4334 31.3686C28.2799 31.3748 28.1427 31.309 28.0416 31.2052L28.4334 31.3686ZM32.8592 26.0703C32.7394 25.9599 32.6153 25.8069 32.4957 25.5823C32.4383 25.4754 32.3948 25.3617 32.3663 25.2438C32.3458 25.1597 32.3316 25.0766 32.3285 24.9914C32.3234 24.8462 32.3389 24.6945 32.3752 24.5207C32.4351 24.2338 32.5419 24.0118 32.684 23.8355C32.7324 23.7753 32.7883 23.7003 32.8413 23.6666L32.8592 26.0703ZM32.7372 17.9305C32.9292 17.9455 33.1071 18.1523 33.1047 18.3549C33.1013 18.6492 33.0026 18.7708 32.7711 19.0592C32.5716 19.3076 31.973 19.7443 31.988 20.1622C31.9907 20.2364 32.0306 20.3131 32.0753 20.3748L32.7372 17.9305ZM31.836 20.6368C31.8786 20.6788 31.93 20.7135 31.9913 20.7412C32.1008 20.7906 32.2238 20.7652 32.3135 20.7198L31.836 20.6368Z" stroke="#703D29" stroke-width="0.0477928"/>
<path d="M28.9723 18.2874C28.9365 18.2694 28.8982 18.2433 28.8724 18.2145C28.8053 18.1395 28.7605 18.0378 28.8122 17.8827C28.86 17.7392 29.0905 17.3368 29.1018 17.0582C29.1191 16.6326 28.9553 16.3814 28.6993 16.2834M30.3882 18.1048C30.3197 18.1041 30.2383 18.0846 30.1499 17.9915C30.1296 17.9701 30.1057 17.9418 30.0964 17.9163L30.3882 18.1048Z" stroke="#703D29" stroke-width="0.0477928"/>
<path d="M31.653 27.5941C31.6661 27.6261 31.6982 27.6574 31.6982 27.6574C31.7471 27.7391 31.9374 27.8828 32.1104 27.885C32.3966 27.8888 32.4645 27.6886 32.4718 27.6441C32.508 27.4258 32.4333 27.366 32.3213 27.3045C32.3213 27.3045 32.2553 27.2704 32.1763 27.2836M29.0803 16.963L29.0703 17.123L29.027 17.2864L28.9436 17.5098L28.8803 17.6531L28.8136 17.7965L28.7803 17.8965L28.7669 17.9699L28.7769 18.0399L29.0803 16.963Z" stroke="#703D29" stroke-width="0.0477928" stroke-linecap="round"/>
<path d="M22.215 21.4542C22.2517 21.4799 22.2819 21.5137 22.3033 21.5531M20.7299 26.6388C20.6288 26.6647 20.534 26.6653 20.4511 26.6404C20.2369 26.5762 20.0634 26.371 20.1518 26.116L20.7299 26.6388ZM21.1647 23.7083C21.1861 23.7298 21.1931 23.7619 21.1963 23.7891C21.2294 24.0667 20.9862 24.1476 20.813 24.1024C20.7272 24.08 20.625 24.0004 20.5849 23.93C20.5547 23.8769 20.5386 23.8168 20.5383 23.7557L21.1647 23.7083ZM22.2072 21.9651C22.248 22.002 22.28 22.0476 22.3007 22.0986L22.2072 21.9651Z" stroke="#703D29" stroke-width="0.0477928"/>
<path d="M22.3123 21.8096C22.2889 21.8672 22.2485 21.9295 22.1946 21.9896C22.0495 22.1517 21.8032 22.2894 21.5305 22.2928C21.3824 22.2946 21.2288 22.2637 21.0742 22.1603C20.909 22.0498 20.8012 21.8926 20.7654 21.7383" stroke="#703D29" stroke-width="0.0477928" stroke-linecap="round"/>
<path d="M22.1283 20.6567C22.2121 20.7279 22.2765 20.8187 22.3074 20.9131" stroke="#703D29" stroke-width="0.0477928"/>
<path d="M22.3099 21.2585C22.2429 21.48 22.0431 21.754 21.6575 21.8516C21.4733 21.8983 21.2361 21.84 21.1552 21.771" stroke="#703D29" stroke-width="0.0477928" stroke-linecap="round"/>
<path d="M20.9637 21.2067C20.9839 21.4062 21.1174 21.5558 21.3705 21.5606C21.7264 21.5673 21.9428 21.0486 21.6265 20.6844" stroke="#703D29" stroke-width="0.0477928"/>
<path d="M21.187 23.408C21.5051 23.3698 21.6844 23.1328 21.6488 22.8555C21.6217 22.6443 21.4279 22.4818 21.2961 22.4724M20.1628 22.9451C20.2148 23.0103 20.276 23.0691 20.3386 23.1212C20.4655 23.2268 20.6152 23.3198 20.7876 23.3707L20.1628 22.9451Z" stroke="#703D29" stroke-width="0.0477928" stroke-linecap="round"/>
<path d="M21.7061 20.1139C21.8441 20.1088 21.9225 20.2341 21.9212 20.3397" stroke="#703D29" stroke-width="0.0477928"/>
<path d="M32.9628 21.0034C33.0928 21.1816 33.0077 21.5328 32.6539 21.5394C32.5157 21.5421 32.3909 21.4655 32.3179 21.3494M21.6736 18.2201C21.7491 18.4178 21.8965 18.5724 22.0542 18.6607L21.6736 18.2201Z" stroke="#703D29" stroke-width="0.0477928" stroke-linecap="round"/>
<path d="M31.6815 18.6772V19.8725" stroke="#703D29" stroke-width="0.0477928"/>
<path d="M31.1005 17.2937C31.3047 17.1828 31.4622 17.2033 31.5786 17.3649C31.7051 17.5405 31.7232 17.7742 31.6953 17.9111C31.6539 18.1144 31.5952 18.1988 31.4335 18.3463M21.2451 21.1898C21.3543 21.2688 21.4945 21.1354 21.4402 20.9937C21.4036 20.898 21.2677 20.7949 21.0795 20.9228C20.8715 21.0642 20.9289 21.5102 21.3279 21.5177C21.6838 21.5244 21.9002 21.0056 21.5839 20.6415C21.2797 20.2913 20.7255 20.3732 20.3641 20.6607C20.2103 20.783 19.9199 21.1035 19.8295 21.5403C19.8015 21.6762 19.7833 21.7878 19.7854 21.9243C19.7868 22.0142 19.7951 22.1149 19.822 22.2405C19.8764 22.4942 19.9658 22.6801 20.0547 22.8092C20.0888 22.8587 20.1199 22.8998 20.1533 22.9332C20.2153 22.9952 20.2338 23.0279 20.2964 23.08C20.5009 23.2502 20.7644 23.3836 21.087 23.3699C21.4408 23.3548 21.6442 23.1064 21.6065 22.8127C21.57 22.528 21.2826 22.3864 21.0945 22.5191C20.9665 22.6094 20.9209 22.8892 21.1472 22.9557C21.2752 22.9934 21.3881 22.8315 21.2978 22.7374L21.2451 21.1898Z" stroke="#703D29" stroke-width="0.0477928" stroke-linecap="round"/>
<path d="M31.5934 17.3843C31.8268 17.23 32.0796 17.2955 32.2183 17.501C32.32 17.6516 32.346 17.7776 32.3388 17.964C32.3265 18.2836 32.1265 18.537 31.9059 18.6605" stroke="#703D29" stroke-width="0.0477928" stroke-linecap="round"/>
<path d="M32.6926 17.9227C32.8846 17.9377 33.039 18.1116 33.039 18.3143C33.039 18.6041 32.958 18.7299 32.7264 19.0183C32.5269 19.2667 31.9283 19.7035 31.9435 20.1213C31.9491 20.2793 32.0823 20.4282 32.1972 20.4366" stroke="#703D29" stroke-width="0.0477928"/>
<path d="M32.7154 21.1898C32.6062 21.2688 32.4669 21.1412 32.5272 21.0056C32.5688 20.9121 32.6928 20.7949 32.881 20.9228C33.0889 21.0642 33.0316 21.5102 32.6326 21.5177C32.2767 21.5244 32.0362 21.019 32.3766 20.6415C32.6873 20.297 33.2634 20.3644 33.6248 20.6519C33.7786 20.7743 34.088 21.1103 34.1544 21.5513C34.2346 22.0849 34.2243 22.7412 33.6732 23.1454C33.4516 23.3079 33.1445 23.3818 32.8734 23.37C32.5196 23.3545 32.3163 23.1064 32.3539 22.8128C32.3904 22.528 32.6646 22.4076 32.8659 22.5191C33.0751 22.6349 33.0386 22.929 32.8132 22.9558C32.6808 22.9715 32.5723 22.8315 32.6627 22.7374" stroke="#703D29" stroke-width="0.0477928" stroke-linecap="round"/>
<path d="M32.527 21.0058C32.5857 20.7417 32.8119 20.7171 32.9946 20.7198C33.4932 20.7271 33.838 21.3185 33.8437 21.8905C33.851 22.6131 33.537 23.0387 33.0089 23.0613C32.8722 23.0671 32.6368 23.0022 32.6327 22.8354" stroke="#703D29" stroke-width="0.0477928"/>
<path d="M32.834 20.8876C33.3598 21.0045 33.5443 21.4782 33.5443 21.9303C33.5443 22.299 33.5078 22.8029 32.7902 22.9802" stroke="#703D29" stroke-width="0.0477928" stroke-linecap="square"/>
<path d="M33.7012 25.9565C33.7109 25.9051 33.7067 25.8519 33.689 25.8026C33.6714 25.7533 33.641 25.7096 33.6009 25.6759C33.5609 25.6422 33.5125 25.6198 33.4609 25.6109C33.4093 25.602 33.3563 25.6069 33.3073 25.6253C33.2582 25.6436 33.2149 25.6747 33.1818 25.7152C33.1487 25.7558 33.127 25.8044 33.1188 25.8562C33.1107 25.9079 33.1164 25.9609 33.1355 26.0096C33.1545 26.0584 33.1862 26.1012 33.2273 26.1337" stroke="#703D29" stroke-width="0.0477928"/>
<path d="M33.0233 26.754C32.7754 26.5914 32.3049 26.3782 31.8794 26.588C31.7216 26.6659 31.6159 26.7622 31.5562 26.9192C31.4487 27.202 31.5688 27.5136 31.6912 27.6431C31.7552 27.7109 31.8946 27.8404 32.0676 27.8426C32.3538 27.8464 32.4218 27.6462 32.4291 27.6017C32.463 27.3947 32.3425 27.3118 32.2785 27.2892C32.2294 27.2719 32.0697 27.2764 32.0358 27.3892C32.0245 27.4269 32.0225 27.4925 32.0526 27.5415M32.6466 25.5086C32.7455 25.6554 32.8653 25.8187 33.1183 25.9559L32.6466 25.5086Z" stroke="#703D29" stroke-width="0.0477928" stroke-linecap="round"/>
<path d="M28.5626 30.73C28.6417 30.8919 28.5518 30.9733 28.4422 30.986C28.2803 31.0048 28.1937 30.8768 28.1824 30.7601C28.1641 30.5709 28.3236 30.3994 28.5137 30.4025C28.6849 30.4052 28.8243 30.5157 28.8897 30.6677C28.9134 30.7229 28.9244 30.7837 28.9278 30.8467C28.9342 30.9662 28.8922 31.0763 28.8202 31.1602C28.7234 31.2728 28.5726 31.3409 28.412 31.3474C28.0925 31.3602 27.8436 31.0613 27.8436 30.7563C27.8436 30.1729 28.709 29.8546 29.052 29.7727C29.4737 29.6721 29.7302 29.6344 30.4074 29.5968C30.6784 29.5818 30.8769 29.5894 31.1754 29.5585C31.4425 29.5308 31.582 29.5178 31.8568 29.4538C32.1997 29.3739 32.5194 29.2316 32.8055 28.9719C33.0258 28.7718 33.1518 28.6293 33.2538 28.3545C33.3418 28.1173 33.3823 27.6477 33.1594 27.3003C32.9623 26.9933 32.6888 26.8339 32.3763 26.7888C32.094 26.7479 31.8465 26.8697 31.6987 27.1498C31.6271 27.2854 31.6492 27.512 31.7058 27.6166C31.7547 27.707 31.8945 27.8403 32.0676 27.8425C32.3537 27.8463 32.4217 27.6461 32.429 27.6016C32.4629 27.3945 32.3424 27.3117 32.2784 27.2891C32.2293 27.2718 32.0696 27.2762 32.0357 27.3891C32.0244 27.4268 32.0224 27.4924 32.0525 27.5413" stroke="#703D29" stroke-width="0.0477928" stroke-linecap="round"/>
<path d="M28.3162 29.8032C27.9493 29.9658 27.6804 30.0876 27.4524 30.4477C27.3808 30.5606 27.362 30.7225 27.362 30.8166C27.362 31.0199 27.4448 31.2495 27.6143 31.3926C27.7715 31.5254 27.9267 31.5657 28.1187 31.5469C28.2643 31.5327 28.4011 31.4265 28.4237 31.3512" stroke="#703D29" stroke-width="0.0477928" stroke-linecap="round"/>
<path d="M31.9396 22.8391C31.768 22.8963 31.646 23.158 31.646 23.4075C31.646 23.6937 31.7853 23.8706 31.9472 23.9722" stroke="#703D29" stroke-width="0.0477928"/>
<path d="M32.128 23.7693C31.8193 24.1533 31.6555 24.3812 31.6461 24.8385C31.6373 25.2676 31.7741 25.5613 32.0301 25.87" stroke="#703D29" stroke-width="0.0477928" stroke-linecap="round"/>
<path d="M30.4826 17.3858L30.5091 17.3466C30.6371 17.1583 30.8632 17.1088 31.0287 17.2336C31.2282 17.3842 31.2785 17.6405 31.2244 17.9113C31.1905 18.0807 31.0756 18.2218 30.9181 18.3239" stroke="#703D29" stroke-width="0.0477928"/>
<path d="M22.86 17.2937C22.6642 17.2034 22.503 17.2208 22.3818 17.3649C22.2425 17.5306 22.2373 17.7742 22.2651 17.9111C22.3065 18.1144 22.3653 18.1988 22.527 18.3463" stroke="#703D29" stroke-width="0.0477928" stroke-linecap="round"/>
<path d="M22.3665 17.3843C22.1331 17.23 21.8803 17.2955 21.7416 17.501C21.6399 17.6516 21.6139 17.7776 21.6211 17.964C21.6334 18.2836 21.8334 18.537 22.0541 18.6605" stroke="#703D29" stroke-width="0.0477928"/>
<path d="M21.693 17.5906C21.4398 17.6215 21.2378 17.836 21.2378 18.0958C21.2378 18.4308 21.3203 18.5663 21.5085 18.8223C21.6972 19.0789 22.3141 19.5489 22.3141 20.0835C22.3141 20.4073 22.2238 20.6143 21.9904 20.7197C21.8399 20.7877 21.6639 20.7141 21.5838 20.6418C21.388 20.4648 21.4663 20.1545 21.6704 20.1174C21.9188 20.0722 21.9655 20.4634 21.7231 20.4374" stroke="#703D29" stroke-width="0.0477928"/>
<path d="M21.2674 17.9227C21.0754 17.9377 20.8864 18.103 20.8864 18.3057C20.8864 18.5955 21.0019 18.7299 21.2335 19.0182C21.433 19.2667 21.9967 19.6948 21.9816 20.1127C21.976 20.2707 21.8698 20.4639 21.7643 20.4413" stroke="#703D29" stroke-width="0.0477928"/>
<path d="M20.8156 23.7465C20.9059 23.5281 21.1393 23.626 21.1537 23.7465C21.1868 24.024 20.9435 24.1079 20.7704 24.0627C20.6846 24.0404 20.6218 23.9863 20.5817 23.916C20.5365 23.8366 20.5228 23.7329 20.5522 23.634C20.5655 23.5891 20.5843 23.5513 20.6164 23.509C20.6486 23.4665 20.682 23.4373 20.7132 23.4175C20.7798 23.3749 20.8524 23.3707 20.9661 23.3707C21.3878 23.3707 21.7567 23.8689 21.8807 24.3865C21.9215 24.5569 21.9775 24.937 21.8998 25.2975C21.817 25.6815 21.651 25.9474 21.4563 26.1491C21.3509 26.2582 21.2071 26.3554 21.021 26.4607C20.9636 26.4931 20.8118 26.5604 20.7064 26.5906C20.5981 26.6215 20.4964 26.6239 20.4082 26.5974C20.1941 26.5332 20.0566 26.3331 20.1681 26.073C20.2548 25.8706 20.5747 25.7719 20.7177 26.0203C20.7298 26.0415 20.7487 26.0874 20.7481 26.1371C20.7474 26.2033 20.7198 26.2832 20.6725 26.3134C20.5638 26.3825 20.3898 26.3629 20.3979 26.1709" stroke="#703D29" stroke-width="0.0477928" stroke-linecap="round"/>
<path d="M20.2592 25.9565C20.2496 25.9051 20.2538 25.852 20.2714 25.8026C20.289 25.7533 20.3194 25.7096 20.3595 25.6759C20.3996 25.6422 20.4479 25.6198 20.4995 25.6109C20.5511 25.602 20.6041 25.607 20.6532 25.6253C20.7022 25.6436 20.7455 25.6747 20.7786 25.7152C20.8117 25.7558 20.8335 25.8044 20.8416 25.8562C20.8497 25.9079 20.844 25.9609 20.8249 26.0096C20.8059 26.0584 20.7742 26.1012 20.7332 26.1338M20.4882 26.3395C20.5673 26.3701 20.6106 26.3659 20.7089 26.3222C20.7493 26.3043 20.7955 26.2766 20.8497 26.2458C21.0424 26.1363 21.2713 25.9638 21.4859 25.561C21.5433 25.4541 21.5868 25.3403 21.6153 25.2224C21.6358 25.1383 21.6499 25.0553 21.653 24.97C21.6583 24.8248 21.6426 24.6731 21.6064 24.4994C21.5465 24.2124 21.4744 24.0566 21.2976 23.8142C21.2107 23.6949 21.1357 23.6221 20.9739 23.6184L20.4882 26.3395Z" stroke="#703D29" stroke-width="0.0477928"/>
<path d="M20.374 25.6626C20.3962 25.5284 20.5102 25.4263 20.6475 25.4263C20.8007 25.4263 20.9249 25.5535 20.9249 25.7105C20.9251 25.784 20.8971 25.8548 20.8467 25.9083" stroke="#703D29" stroke-width="0.0477928"/>
<path d="M20.9134 25.6476C21.1656 25.4669 21.3817 25.1219 21.384 24.7143C21.3857 24.4008 21.2598 24.0818 21.1129 23.9576" stroke="#703D29" stroke-width="0.0477928"/>
<path d="M21.3139 25.5086C21.2149 25.6554 21.0952 25.8187 20.8422 25.9559" stroke="#703D29" stroke-width="0.0477928" stroke-linecap="round"/>
<path d="M22.0653 26.5884C21.9952 26.4234 21.8557 26.347 21.6286 26.3228C21.4029 26.2987 21.2074 26.3608 21.0074 26.4683C20.6172 26.6782 20.3995 26.9039 20.2545 27.3225C20.2177 27.4288 20.1871 27.5891 20.1914 27.7593C20.1982 28.0307 20.2671 28.3273 20.3411 28.4708C20.4056 28.5959 20.5744 29.1484 21.5006 29.5297C22.041 29.7522 22.8709 29.8034 23.4432 29.826C24.2303 29.8571 24.9566 29.8863 25.3782 30.4058" stroke="#703D29" stroke-width="0.0477928"/>
<path d="M20.9366 26.754C21.1846 26.5914 21.6551 26.3782 22.0806 26.588C22.2384 26.6659 22.3441 26.7622 22.4038 26.9192C22.5113 27.202 22.3911 27.5136 22.2688 27.6431C22.2048 27.7109 22.0654 27.8404 21.8923 27.8426C21.6062 27.8464 21.5382 27.6462 21.5309 27.6017C21.497 27.3946 21.6175 27.3118 21.6815 27.2892C21.7306 27.2719 21.8903 27.2764 21.9242 27.3892C21.9355 27.4269 21.9375 27.4925 21.9074 27.5415" stroke="#703D29" stroke-width="0.0477928" stroke-linecap="round"/>
<path d="M21.9225 27.4997C21.9451 27.4169 21.9335 27.33 21.8585 27.2475C21.7832 27.1647 21.5837 27.0856 21.4142 27.1797C21.3576 27.2112 21.2865 27.2527 21.2223 27.3379C21.1979 27.3701 21.1569 27.4221 21.1357 27.4583C21.0843 27.546 21.0633 27.6177 21.0532 27.6465C20.867 28.1757 21.17 28.7376 21.5498 28.9792C21.8811 29.1901 22.2199 29.2503 22.6378 29.2879C22.8312 29.3053 22.9408 29.3091 23.1348 29.3181C23.2909 29.3253 23.4257 29.3227 23.5527 29.3212C23.6571 29.3199 23.7562 29.3204 23.8575 29.3181C24.0229 29.3142 24.1941 29.3103 24.4035 29.3256C24.6238 29.3416 24.7895 29.3473 24.9757 29.3783C25.0973 29.3986 25.2399 29.4181 25.3894 29.4517C25.4342 29.4617 25.4797 29.4699 25.5254 29.4837C25.5561 29.493 25.5864 29.5024 25.6165 29.5115C25.8862 29.5938 26.1484 29.6941 26.3553 29.8273C26.4192 29.8685 26.4928 29.9082 26.543 29.9584C26.5815 29.9969 26.6143 30.0192 26.6458 30.0503C26.7906 30.1927 26.9387 30.347 26.9733 30.5558C26.9797 30.5943 26.9797 30.6346 26.9797 30.6772C26.9797 30.8126 26.8694 30.9971 26.5719 31.0574" stroke="#703D29" stroke-width="0.0477928"/>
<path d="M25.3973 30.73C25.3182 30.8919 25.4081 30.9733 25.5178 30.986C25.6796 31.0048 25.7662 30.8768 25.7775 30.7601C25.7959 30.5709 25.6364 30.3994 25.4462 30.4025C25.275 30.4052 25.1356 30.5157 25.0703 30.6677C25.0465 30.7229 25.0355 30.7837 25.0321 30.8467C25.0257 30.9662 25.0677 31.0763 25.1397 31.1602C25.2364 31.2728 25.3873 31.3409 25.5479 31.3474C25.8675 31.3602 26.1164 31.0613 26.1164 30.7563C26.1164 30.1729 25.2509 29.8546 24.9079 29.7727C24.4862 29.6721 24.2297 29.6344 23.5526 29.5968C23.2815 29.5818 23.083 29.5894 22.7846 29.5585C22.5175 29.5308 22.378 29.5178 22.1031 29.4538C21.7601 29.3739 21.4405 29.2316 21.1544 28.9719C20.9341 28.7718 20.8081 28.6293 20.706 28.3545C20.6181 28.1173 20.5776 27.6477 20.8005 27.3003C20.9976 26.9933 21.2711 26.8339 21.5836 26.7888C21.8659 26.7479 22.1134 26.8697 22.2613 27.1498C22.3328 27.2854 22.3108 27.512 22.2541 27.6166C22.2052 27.707 22.0654 27.8403 21.8923 27.8425C21.6062 27.8463 21.5382 27.6461 21.5309 27.6016C21.497 27.3945 21.6175 27.3117 21.6815 27.2891C21.7306 27.2718 21.8903 27.2762 21.9242 27.3891C21.9355 27.4268 21.9375 27.4924 21.9074 27.5413" stroke="#703D29" stroke-width="0.0477928"/>
<path d="M23.4774 17.3858C23.4686 17.3727 23.4597 17.3596 23.4509 17.3466C23.3229 17.1583 23.0968 17.1088 22.9313 17.2336C22.7318 17.3842 22.6815 17.6405 22.7356 17.9113C22.7695 18.0807 22.8844 18.2218 23.0418 18.3239" stroke="#703D29" stroke-width="0.0477928" stroke-linecap="round"/>
<path d="M30.5504 17.9567C30.2454 18.288 29.9405 18.3937 29.4849 18.4084C29.3427 18.413 29.0708 18.3633 28.9127 18.2507C28.8111 18.1783 28.6981 18.0546 28.7696 17.84C28.8174 17.6965 29.0479 17.2941 29.0592 17.0155C29.0764 16.5898 28.9127 16.3566 28.6567 16.2663C28.1834 16.0992 27.6753 16.567 27.3692 16.6691C27.2091 16.7224 27.1275 16.7288 26.9814 16.7293C26.8353 16.7288 26.7508 16.7225 26.5907 16.6691C26.2846 16.567 25.7765 16.0992 25.3032 16.2662C25.0472 16.3566 24.8835 16.5898 24.9007 17.0155C24.912 17.294 25.1424 17.6965 25.1903 17.84C25.2618 18.0545 25.1488 18.1783 25.0472 18.2506C24.8891 18.3633 24.6172 18.413 24.4749 18.4084C24.0194 18.3937 23.7144 18.288 23.4095 17.9567" stroke="#703D29" stroke-width="0.0477928"/>
<path d="M25.2985 29.67C25.3589 29.6936 25.3132 29.6558 25.6953 29.8251C26.0622 29.9878 26.3226 30.1302 26.5506 30.4903C26.6221 30.6032 26.641 30.7651 26.641 30.8592C26.641 30.9199 26.6336 30.9829 26.6188 31.0452" stroke="#703D29" stroke-width="0.0477928" stroke-linecap="round"/>
<path d="M25.3232 31.3062C25.3999 31.3442 25.4837 31.3654 25.5692 31.3687C25.8888 31.3815 26.1377 31.0825 26.1377 30.7776C26.1377 30.5662 26.0226 30.3881 25.8614 30.2449" stroke="#703D29" stroke-width="0.0477928"/>
<path d="M25.3924 30.7295C25.3152 30.9015 25.4252 30.9946 25.5348 31.0073C25.6967 31.0262 25.7878 30.8981 25.7991 30.7814C25.8114 30.6545 25.7436 30.5311 25.6403 30.4674" stroke="#703D29" stroke-width="0.0477928" stroke-linecap="round"/>
<path d="M32.3173 17.5935C32.5603 17.5935 32.7722 17.8639 32.7722 18.1415C32.7722 18.4613 32.6021 18.6571 32.4774 18.8051C32.3771 18.9242 32.2684 19.0309 32.1393 19.1609" stroke="#703D29" stroke-width="0.0477928"/>
<path d="M20.4907 25.8737C20.5845 25.872 20.678 25.9353 20.7392 26.0416C20.7513 26.0627 20.7702 26.1086 20.7696 26.1583C20.7688 26.2246 20.7398 26.2954 20.6925 26.3255C20.5838 26.3948 20.3907 26.365 20.3988 26.173M32.0292 17.3373C32.1118 17.3756 32.1844 17.4404 32.2397 17.5222C32.3413 17.6728 32.3672 17.7988 32.3601 17.9853C32.348 18.3049 32.1181 18.5262 31.9124 18.6612L32.0292 17.3373ZM31.5513 17.3373C31.5681 17.3516 31.5842 17.368 31.5997 17.3864C31.739 17.5521 31.7498 17.7969 31.7164 17.9327C31.6663 18.1367 31.5989 18.2246 31.4333 18.3466L31.5513 17.3373ZM31.0501 17.2535C31.2496 17.4041 31.309 17.6646 31.2428 17.9327C31.1956 18.1243 31.0752 18.2391 30.925 18.3306L31.0501 17.2535ZM31.7668 21.4387C31.7906 21.5087 31.83 21.5331 31.8797 21.585C31.9876 21.6981 32.1458 21.7954 32.3457 21.8515C32.5303 21.9035 32.6967 21.8645 32.8236 21.7853L31.7668 21.4387Z" stroke="#703D29" stroke-width="0.0477928" stroke-linecap="round"/>
<path d="M20.6587 25.4282C20.8119 25.4282 20.946 25.575 20.946 25.732C20.9463 25.8055 20.9183 25.8763 20.8678 25.9298M21.0737 23.3814C21.4467 23.451 21.8058 23.9009 21.9233 24.3917C21.9641 24.5622 22.0202 24.9424 21.9425 25.3028C21.8597 25.6868 21.6937 25.9526 21.4989 26.1543C21.4528 26.2021 21.3992 26.2477 21.338 26.2926L21.2584 26.3465L21.0737 23.3814Z" stroke="#703D29" stroke-width="0.0477928"/>
<path d="M20.5551 25.6064C20.7147 25.6064 20.8666 25.7602 20.8666 25.9234C20.8666 26.0174 20.8227 26.101 20.7544 26.1552" stroke="#703D29" stroke-width="0.0477928"/>
<path d="M22.3016 25.2278C22.278 25.334 22.2411 25.4368 22.192 25.5339C22.1304 25.6564 22.0229 25.7928 21.9232 25.8851M22.0184 24.0012C22.1649 24.198 22.2617 24.3673 22.3067 24.5857L22.0184 24.0012Z" stroke="#703D29" stroke-width="0.0477928" stroke-linecap="round"/>
<path d="M22.0416 22.8546C22.183 22.9651 22.2681 23.0793 22.308 23.2162" stroke="#703D29" stroke-width="0.0477928"/>
<path d="M21.3642 21.535L21.5273 21.4921L21.6239 21.4191L21.6861 21.3311L21.7398 21.1938L21.7613 21.0822M22.3118 22.4865C22.2747 22.6154 22.1905 22.7129 22.0568 22.8348L22.3118 22.4865Z" stroke="#703D29" stroke-width="0.0477928" stroke-linecap="round"/>
<path d="M21.0339 20.9608C20.9825 20.9736 20.9172 20.9927 20.8488 21.0253C20.7571 21.069 20.6598 21.1369 20.5822 21.2469C20.4923 21.3742 20.4399 21.5513 20.4074 21.7061C20.3932 21.7739 20.3763 21.9885 20.4197 22.2102C20.4517 22.3739 20.5193 22.5262 20.594 22.6367C20.6208 22.6762 20.6452 22.7103 20.6725 22.7377C20.7704 22.8356 20.8608 22.8958 21.0113 22.8657" stroke="#703D29" stroke-width="0.0477928"/>
<path d="M21.9477 20.2427C21.9212 20.3399 21.869 20.4602 21.7165 20.4471" stroke="#703D29" stroke-width="0.0477928" stroke-linecap="round"/>
<path d="M21.3904 20.9022C21.2439 20.759 20.9337 20.7218 20.6254 20.9168C20.5857 20.9419 20.5461 20.9741 20.5069 21.0068C20.4644 21.0422 20.4306 21.0828 20.3979 21.127C20.3623 21.175 20.3186 21.2568 20.2922 21.311C20.2559 21.3858 20.2409 21.4349 20.2209 21.5116C20.1646 21.7273 20.1648 21.9278 20.1715 21.985C20.18 22.0582 20.187 22.1255 20.1989 22.1875C20.2399 22.3991 20.3025 22.5477 20.3672 22.655C20.4353 22.768 20.6048 23.0274 20.9511 23.0616C21.0872 23.0751 21.3197 23.0127 21.3272 22.8357" stroke="#703D29" stroke-width="0.0477928"/>
<path d="M30.3247 17.7654C30.3479 17.6404 30.4986 17.6163 30.5551 17.6901C30.6423 17.8038 30.5847 17.9991 30.4074 18.0545C30.3472 18.0734 30.2079 18.0658 30.1175 17.9491C30.0443 17.8545 30.0499 17.7374 30.0772 17.6442C30.0949 17.584 30.1433 17.5314 30.2079 17.4823C30.4137 17.3257 30.7462 17.3619 30.8554 17.6254C30.9962 17.9653 30.6898 18.2202 30.4074 18.4122C30.0519 18.6539 29.6469 18.6979 29.3419 18.6945C28.6492 18.687 28.1222 18.3557 27.7796 18.1675C27.6998 18.1236 27.6176 18.1326 27.5763 18.1825C27.5297 18.2389 27.5304 18.3299 27.5951 18.3896" stroke="#703D29" stroke-width="0.0477928" stroke-linecap="round"/>
<path d="M31.7755 21.9738C31.5116 22.261 31.7543 22.7541 31.9516 22.8656C32.0198 22.9187 32.049 22.8905 32.1036 22.9225M30.4642 17.6482C30.5376 17.6516 30.5573 17.6802 30.5798 17.7095C30.667 17.8232 30.6033 18.0186 30.426 18.074L30.4642 17.6482Z" stroke="#703D29" stroke-width="0.0477928" stroke-linecap="round"/>
<path d="M31.7895 21.4247C31.703 21.4849 31.6725 21.5526 31.6691 21.6702C31.6663 21.7686 31.6834 21.8778 31.7757 21.9739C31.9197 22.1236 32.2012 22.254 32.474 22.2574C32.622 22.2592 32.7757 22.2283 32.9302 22.1249C33.0955 22.0144 33.1825 21.8652 33.2201 21.7183L31.7895 21.4247ZM31.6419 26.3933C31.6419 26.3942 31.6414 26.509 31.6316 26.5815C31.603 26.7928 31.5693 26.9144 31.4735 27.1048C31.38 27.2906 31.3053 27.3881 31.1573 27.534C31.0079 27.6812 30.9043 27.7487 30.7168 27.8427C30.5341 27.9342 30.4191 27.9633 30.2198 28.0083C30.0207 28.0534 29.9042 28.0631 29.7003 28.0723C29.5133 28.0808 29.4072 28.0729 29.2205 28.06C29.0206 28.0462 28.9097 28.0184 28.7102 28.0008C28.5453 27.9863 28.4523 27.973 28.2868 27.9734C28.1168 27.9739 28.0193 27.9749 27.8518 28.0046C27.6957 28.0322 27.6072 28.0542 27.4603 28.1138C27.257 28.1961 27.0274 28.3396 26.9784 28.4036C26.9295 28.3396 26.6998 28.1961 26.4965 28.1138C26.3496 28.0542 26.2611 28.0322 26.105 28.0046C25.9375 27.975 25.8401 27.9738 25.67 27.9734C25.5045 27.9729 25.4114 27.9863 25.2466 28.0008C25.0471 28.0183 24.9362 28.0462 24.7363 28.06C24.5496 28.0729 24.4435 28.0809 24.2565 28.0723C24.0526 28.0631 23.9361 28.0533 23.737 28.0084C23.5378 27.9633 23.4227 27.9343 23.2401 27.8427C23.0525 27.7487 22.949 27.6813 22.7996 27.534C22.6515 27.388 22.5768 27.2906 22.4834 27.1048C22.3875 26.9144 22.3539 26.7928 22.3252 26.5815C22.3154 26.5089 22.3149 26.3942 22.3149 26.3933V18.6932H31.6387V26.3933H31.6419H31.6419Z" stroke="#703D29" stroke-width="0.0477928"/>
<path d="M21.5617 27.4934C21.5617 27.4433 21.5817 27.3951 21.6171 27.3597C21.6526 27.3242 21.7007 27.3042 21.7509 27.3042C21.8011 27.3042 21.8492 27.3242 21.8847 27.3597C21.9202 27.3951 21.9401 27.4433 21.9401 27.4934C21.9401 27.5436 21.9202 27.5917 21.8847 27.6272C21.8492 27.6627 21.8011 27.6826 21.7509 27.6826C21.7007 27.6826 21.6526 27.6627 21.6171 27.6272C21.5817 27.5917 21.5617 27.5436 21.5617 27.4934ZM20.4001 26.1565C20.4001 26.0629 20.4599 25.9871 20.5337 25.9871C20.6075 25.9871 20.6674 26.0629 20.6674 26.1565C20.6674 26.25 20.6075 26.3259 20.5337 26.3259C20.4599 26.3259 20.4001 26.25 20.4001 26.1565Z" fill="#C7B37F" stroke="#C7B37F" stroke-width="0.0248407"/>
<path d="M21.0601 22.7984C21.0601 22.7215 21.1178 22.6593 21.1891 22.6593C21.2604 22.6593 21.3182 22.7215 21.3182 22.7984C21.3182 22.8752 21.2604 22.9375 21.1891 22.9375C21.1178 22.9375 21.0601 22.8752 21.0601 22.7984ZM23.3776 17.8327C23.3694 17.7556 23.4157 17.6876 23.4809 17.6807C23.5462 17.6739 23.6057 17.7308 23.6138 17.8079C23.622 17.885 23.5757 17.9531 23.5104 17.9599C23.4452 17.9667 23.3857 17.9098 23.3776 17.8327Z" fill="#C7B37F"/>
<path d="M22.0048 23.9068C21.9806 23.8818 21.9674 23.8672 21.9427 23.8428C21.9168 23.8172 21.9027 23.8022 21.8749 23.7788C21.848 23.7561 21.8308 23.7457 21.8027 23.7245M20.9085 23.5818C20.8807 23.594 20.8654 23.6039 20.8445 23.6259C20.8246 23.6469 20.8205 23.6545 20.805 23.6888C20.7937 23.7138 20.7907 23.7429 20.7866 23.7787L20.9085 23.5818ZM21.1434 25.8025C21.1697 25.7706 21.1855 25.7535 21.2107 25.7208C21.2318 25.6936 21.2442 25.6787 21.2627 25.6496C21.2794 25.6235 21.2868 25.6076 21.3015 25.5804C21.3222 25.5419 21.3325 25.5195 21.3523 25.4806L21.1434 25.8025ZM21.2567 26.5351C21.2119 26.5557 21.1854 26.5648 21.1419 26.5878C21.1088 26.6054 21.0908 26.6166 21.0591 26.6364C21.0216 26.6598 21.0006 26.6735 20.9649 26.6997C20.9278 26.7269 20.9087 26.7447 20.8727 26.7734L21.2567 26.5351Z" stroke="#C7B37F" stroke-width="0.0477928" stroke-linecap="round"/>
<path d="M22.0344 22.9006C21.9984 22.9166 21.9795 22.9293 21.9421 22.9416C21.8993 22.9557 21.8702 22.9631 21.8288 22.965" stroke="#C7B37F" stroke-width="0.0477928"/>
<path d="M22.7031 17.9683C22.7219 18.0138 22.7276 18.0418 22.7513 18.085C22.7722 18.1231 22.7866 18.1435 22.8142 18.1772C22.8493 18.2202 22.8721 18.2427 22.9158 18.277C22.9666 18.3169 23.0026 18.3286 23.0581 18.3617M20.7672 21.6517C20.7795 21.6957 20.7822 21.7219 20.7988 21.7643C20.8196 21.8177 20.8371 21.8457 20.8688 21.8934C20.9019 21.9432 20.9225 21.9706 20.9651 22.0124C21.0026 22.0491 21.0264 22.0676 21.0702 22.0964C21.1119 22.1237 21.1389 22.1331 21.1828 22.1566L20.7672 21.6517ZM21.108 21.7132C21.1447 21.7329 21.1637 21.7477 21.2022 21.7637C21.237 21.7781 21.2577 21.7842 21.2944 21.7927C21.3441 21.8041 21.3733 21.8069 21.4243 21.8082C21.4795 21.8094 21.4958 21.8082 21.5655 21.7968L21.108 21.7132ZM22.108 18.7207C22.0476 18.6855 22.0107 18.6701 21.9532 18.6304C21.8948 18.59 21.8625 18.5653 21.8117 18.5156C21.775 18.4797 21.7545 18.4589 21.724 18.4177C21.6967 18.3809 21.6863 18.3568 21.6622 18.3179L22.108 18.7207ZM22.2295 17.9736C22.2484 18.0242 22.2539 18.0551 22.2781 18.1035C22.311 18.1691 22.3363 18.2035 22.3858 18.2578C22.4542 18.333 22.5123 18.3543 22.5932 18.4159L22.2295 17.9736Z" stroke="#C7B37F" stroke-width="0.0477928" stroke-linecap="round"/>
<path d="M28.0199 17.3533C28.016 17.225 27.8896 17.2117 27.8412 17.2117C27.7015 17.2117 27.6637 17.2989 27.4894 17.3924C27.2709 17.5098 27.1768 17.5359 26.9826 17.5376C26.7884 17.5359 26.6918 17.5098 26.4733 17.3924C26.299 17.2989 26.2697 17.2145 26.13 17.2145C26.0542 17.2145 25.9561 17.2801 25.9599 17.4001C25.9599 17.4001 25.9584 17.439 25.9644 17.4653C25.9667 17.4752 25.9787 17.4721 25.9825 17.4808C25.9807 17.4226 25.9925 17.3924 26.0212 17.3533C26.058 17.3031 26.1192 17.2897 26.1442 17.2897C26.2839 17.2897 26.3356 17.3794 26.51 17.473C26.7284 17.5903 26.8224 17.6164 27.0166 17.6181C27.2108 17.6164 27.3075 17.5903 27.526 17.473C27.7003 17.3794 27.7504 17.2823 27.8901 17.2823C27.9386 17.2823 27.9727 17.3136 27.9885 17.363C27.9983 17.3934 27.9928 17.4136 27.9953 17.4256C27.9966 17.4315 28.0037 17.4309 28.0053 17.4372C28.0102 17.4146 28.0215 17.4066 28.0199 17.3533Z" fill="#703D29" stroke="#703D29" stroke-width="0.013413"/>
<path d="M22.8067 28.1278C22.8459 28.0856 22.8756 28.1014 22.8829 28.082C22.8882 28.0676 22.8766 28.0661 22.8606 28.0602C22.8393 28.0522 22.8167 28.0476 22.7954 28.0397C22.7733 28.0314 22.7533 28.02 22.7312 28.0118C22.722 28.0084 22.7009 27.9976 22.6949 28.0137C22.6838 28.0432 22.7724 28.0407 22.7427 28.1202C22.7376 28.1338 22.725 28.1628 22.681 28.211L22.4805 28.4293C22.476 28.4343 22.4685 28.4451 22.4639 28.4433C22.4593 28.4416 22.46 28.4283 22.4599 28.4215L22.4628 28.1121C22.463 28.0533 22.468 28.0098 22.4775 27.9845C22.4908 27.9489 22.5317 27.9787 22.5403 27.9559C22.5457 27.9415 22.5415 27.9409 22.5172 27.9318C22.505 27.9272 22.4817 27.9223 22.4329 27.9041C22.407 27.8944 22.3824 27.8814 22.3573 27.872C22.3458 27.8677 22.3247 27.8521 22.3172 27.8725C22.3149 27.8784 22.3229 27.8872 22.3249 27.8889C22.353 27.909 22.3601 27.9223 22.3607 27.9602L22.3663 28.5235C22.3667 28.5642 22.3711 28.5755 22.3788 28.5784C22.3871 28.5815 22.3928 28.5778 22.4094 28.559L22.8067 28.1278V28.1278Z" fill="#703D29"/>
<path d="M23.0406 28.2149C23.0664 28.1331 23.1148 28.1824 23.124 28.1531C23.1273 28.1427 23.124 28.1398 23.1007 28.1325C23.0565 28.1185 23.0275 28.1132 22.9996 28.1044C22.9725 28.0958 22.9433 28.0828 22.913 28.0733C22.906 28.0711 22.8875 28.0624 22.8828 28.077C22.8733 28.1072 22.9685 28.1107 22.9438 28.1891L22.8134 28.6027C22.7876 28.6845 22.7389 28.6445 22.7294 28.6747C22.728 28.679 22.7276 28.6855 22.7346 28.6877C22.7548 28.6941 22.7892 28.7012 22.8226 28.7117C22.8831 28.7307 22.9107 28.7432 22.9394 28.7523C22.9572 28.7579 22.9652 28.7566 22.9682 28.7472C22.977 28.7196 22.8776 28.7319 22.911 28.6259L23.0406 28.2149ZM23.3205 28.2977C23.3359 28.2457 23.36 28.2529 23.3889 28.2614C23.4676 28.2848 23.4923 28.3618 23.4671 28.4467C23.452 28.4978 23.4329 28.5449 23.3145 28.5098C23.2911 28.5029 23.2622 28.4943 23.2687 28.4727L23.3205 28.2977ZM23.1058 28.6704C23.0735 28.7795 23.0187 28.7322 23.0106 28.7599C23.0054 28.7773 23.0226 28.7795 23.0311 28.7821C23.0701 28.7936 23.1101 28.8017 23.1522 28.8142C23.185 28.8239 23.205 28.8335 23.2182 28.8375C23.2362 28.8428 23.2439 28.8394 23.2463 28.8316C23.2555 28.8005 23.1678 28.8131 23.1952 28.7204L23.2396 28.5706C23.2486 28.5402 23.2457 28.5328 23.2871 28.545C23.326 28.5566 23.3377 28.5685 23.3444 28.612L23.3693 28.7682C23.3786 28.8256 23.3874 28.8876 23.449 28.9058C23.4802 28.915 23.5373 28.9113 23.5452 28.8844C23.5473 28.8775 23.5441 28.8709 23.5371 28.8688C23.5294 28.8665 23.52 28.8693 23.5122 28.867C23.5059 28.8652 23.4912 28.8608 23.4882 28.8449C23.4645 28.7191 23.4354 28.5739 23.4369 28.5687C23.4395 28.56 23.4644 28.5589 23.4929 28.5457C23.5217 28.5316 23.5538 28.5063 23.5702 28.4508C23.582 28.411 23.6026 28.2842 23.4319 28.2336C23.3796 28.2181 23.3256 28.2059 23.2733 28.1904C23.2242 28.1759 23.219 28.1706 23.1832 28.1599C23.1738 28.1572 23.1647 28.1592 23.1622 28.1679C23.153 28.1991 23.2474 28.1922 23.2187 28.2892L23.1058 28.6704ZM23.7432 28.857C23.7181 28.9615 23.6389 28.8979 23.6307 28.9321C23.626 28.9515 23.6397 28.9538 23.6539 28.9573C23.6855 28.9648 23.7125 28.9676 23.7654 28.9803C23.8184 28.993 23.8436 29.0028 23.8753 29.0104C23.8982 29.0159 23.9134 29.0223 23.9184 29.0012C23.9243 28.9767 23.817 28.9778 23.843 28.8698L23.9383 28.4727C23.9485 28.4306 23.9574 28.428 23.9898 28.4358L24.057 28.452C24.1488 28.4703 24.1001 28.5617 24.1317 28.5693C24.1523 28.5742 24.1518 28.5379 24.1527 28.527L24.1634 28.4441C24.1648 28.4351 24.1677 28.4228 24.1558 28.42C24.0823 28.4023 24.0285 28.3931 23.9131 28.3654C23.7976 28.3376 23.7455 28.3214 23.672 28.3038C23.6601 28.3009 23.6572 28.3132 23.6543 28.3218L23.6138 28.4347C23.6094 28.4458 23.6001 28.464 23.6167 28.4679C23.6523 28.4765 23.6562 28.3557 23.7455 28.3772L23.8119 28.3931C23.8443 28.4009 23.8512 28.4072 23.8411 28.4494L23.7432 28.857H23.7432ZM24.7039 28.612C24.7352 28.5635 24.7671 28.5741 24.771 28.5537C24.7737 28.5385 24.762 28.5391 24.7453 28.536C24.7229 28.5319 24.6998 28.5313 24.6774 28.5271C24.6543 28.5228 24.6325 28.5151 24.6094 28.5108C24.5998 28.509 24.5771 28.5021 24.5739 28.5189C24.5682 28.5501 24.655 28.5322 24.6395 28.6156C24.6369 28.6299 24.6296 28.6607 24.5945 28.7157L24.435 28.9655C24.4314 28.9713 24.4259 28.9831 24.4211 28.9822C24.4163 28.9813 24.4146 28.9682 24.4134 28.9615L24.3624 28.6562C24.3525 28.5983 24.3498 28.5546 24.3548 28.5279C24.3617 28.4907 24.4072 28.5129 24.4117 28.4889C24.4144 28.4738 24.4103 28.4739 24.3847 28.4692C24.3719 28.4668 24.3481 28.4661 24.2969 28.4566C24.2697 28.4515 24.2431 28.443 24.2168 28.4381C24.2048 28.4358 24.1814 28.4241 24.1774 28.4454C24.1762 28.4517 24.1856 28.4589 24.1879 28.4602C24.219 28.4753 24.2284 28.4871 24.2355 28.5242L24.3388 29.0782C24.3463 29.1181 24.3526 29.1285 24.3606 29.13C24.3694 29.1316 24.3744 29.127 24.3875 29.1055L24.7039 28.612ZM24.7489 29.1209C24.7494 29.143 24.7474 29.1499 24.7665 29.1586C24.811 29.178 24.8484 29.2062 24.8973 29.2144C25.0024 29.232 25.0894 29.165 25.1089 29.0483C25.1279 28.9351 25.0813 28.888 25.0026 28.8317C24.9039 28.7612 24.8617 28.7422 24.8717 28.6825C24.8817 28.6228 24.9235 28.595 24.9764 28.6039C25.1144 28.6269 25.0986 28.7947 25.1171 28.7978C25.1347 28.8007 25.1389 28.7904 25.1406 28.7705L25.1517 28.6497C25.1536 28.6289 25.1582 28.6159 25.1462 28.6139C25.1358 28.6122 25.1133 28.6231 25.1029 28.6214C25.0789 28.6173 25.051 28.5769 24.9852 28.566C24.8914 28.5502 24.8147 28.6144 24.7976 28.7168C24.7819 28.8104 24.8234 28.8531 24.8867 28.8984C25.0052 28.9833 25.0538 29.0034 25.0412 29.0791C25.0292 29.1504 24.9739 29.1851 24.9114 29.1746C24.8224 29.1597 24.7862 29.0703 24.7748 28.9805C24.7736 28.9683 24.7734 28.9601 24.7605 28.9579C24.7404 28.9546 24.7442 28.9818 24.7445 28.9946L24.7489 29.1209ZM25.9459 28.7834C25.972 28.7319 26.0049 28.7391 26.0065 28.7183C26.0077 28.703 25.9961 28.7048 25.9791 28.7035C25.9564 28.7017 25.9334 28.7035 25.9107 28.7018C25.8872 28.6999 25.8648 28.6945 25.8413 28.6927C25.8316 28.6919 25.8083 28.6873 25.8069 28.7044C25.8045 28.736 25.889 28.7091 25.8823 28.7938C25.8812 28.8082 25.8771 28.8396 25.848 28.898L25.7154 29.1631C25.7125 29.1692 25.7082 29.1815 25.7034 29.1812C25.6985 29.1807 25.6954 29.1678 25.6935 29.1613L25.611 28.863C25.595 28.8065 25.5878 28.7633 25.5899 28.7363C25.5929 28.6985 25.6405 28.7158 25.6424 28.6915C25.6436 28.6762 25.6395 28.6768 25.6136 28.6748C25.6006 28.6738 25.5768 28.6755 25.5249 28.6714C25.4973 28.6692 25.4701 28.6635 25.4433 28.6613C25.4312 28.6604 25.4066 28.6512 25.4049 28.6728C25.4044 28.6791 25.4145 28.6854 25.4169 28.6865C25.4494 28.6981 25.46 28.7089 25.471 28.7451L25.6316 29.2852C25.6432 29.3242 25.6506 29.3338 25.6587 29.3344C25.6676 29.3351 25.6721 29.33 25.6828 29.3073L25.9459 28.7834Z" fill="#703D29"/>
<path d="M26.0743 29.2211C26.0735 29.3133 25.9955 29.2963 25.9952 29.3325C25.9952 29.3479 26.0114 29.3435 26.0204 29.3436C26.0423 29.3436 26.0643 29.3403 26.0903 29.3406C26.1188 29.341 26.1464 29.3447 26.1862 29.345C26.1968 29.345 26.2171 29.3462 26.2172 29.3335C26.2176 29.2911 26.113 29.3516 26.1145 29.1781L26.1172 28.871C26.1172 28.8629 26.1189 28.8565 26.1238 28.8566C26.1279 28.8566 26.1327 28.8612 26.1383 28.8684L26.5253 29.3416C26.5309 29.3489 26.535 29.3544 26.5463 29.3544C26.5561 29.3544 26.5562 29.3473 26.5563 29.3274L26.5608 28.8206C26.5615 28.7258 26.6305 28.7481 26.6307 28.721C26.6307 28.7183 26.6308 28.7092 26.6154 28.7091C26.6081 28.7091 26.5796 28.7124 26.5284 28.712C26.4723 28.7114 26.4487 28.7076 26.4357 28.7076C26.4251 28.7076 26.4226 28.7165 26.4226 28.7228C26.4223 28.7526 26.5216 28.7372 26.5209 28.8194L26.5183 29.1203C26.5181 29.1428 26.5164 29.1537 26.5115 29.1536C26.5066 29.1536 26.497 29.1426 26.4865 29.1299L26.1631 28.7287C26.1486 28.7114 26.1584 28.7052 26.1324 28.7049C26.0893 28.7044 26.0682 28.708 26.047 28.7078C26.0316 28.7078 26.017 28.7039 26.0015 28.7037C25.9918 28.7037 25.9876 28.7108 25.9876 28.719C25.9871 28.7623 26.0788 28.7044 26.0772 28.8779L26.0743 29.2212V29.2211ZM26.8616 28.8144C26.8624 28.7286 26.9231 28.7616 26.9233 28.7309C26.9234 28.7201 26.9194 28.7182 26.895 28.718C26.8486 28.7175 26.8193 28.7209 26.7901 28.7207C26.7616 28.7207 26.73 28.7165 26.6982 28.7163C26.6909 28.7162 26.6706 28.7133 26.6705 28.7287C26.6703 28.7604 26.7578 28.7359 26.7571 28.8181L26.7578 29.2517C26.7571 29.3375 26.6987 29.3135 26.6985 29.3452C26.6984 29.3497 26.7 29.356 26.7073 29.356C26.7285 29.3565 26.7635 29.3529 26.7984 29.3532C26.8619 29.3538 26.8919 29.3576 26.9219 29.3579C26.9406 29.3579 26.948 29.3545 26.9481 29.3446C26.9483 29.3157 26.8569 29.3565 26.8579 29.2454L26.8616 28.8144ZM27.2025 29.2342C27.2035 29.3417 27.1112 29.2991 27.1115 29.3344C27.1118 29.3543 27.1255 29.3533 27.1401 29.3531C27.1726 29.3526 27.1995 29.349 27.2539 29.3485C27.3084 29.348 27.3353 29.3514 27.3678 29.3511C27.3914 29.3511 27.4077 29.3535 27.4075 29.3318C27.4072 29.3065 27.3034 29.3336 27.3024 29.2225L27.2989 28.8142C27.2985 28.7708 27.3066 28.7662 27.3399 28.7659L27.409 28.7654C27.5025 28.761 27.4774 28.8615 27.5099 28.8612C27.531 28.8612 27.5218 28.8258 27.5201 28.815L27.5104 28.732C27.5095 28.7229 27.5094 28.7103 27.4972 28.7104C27.4216 28.7111 27.3671 28.7151 27.2484 28.7162C27.1297 28.7172 27.0752 28.7141 26.9996 28.7147C26.9874 28.7147 26.9875 28.7275 26.9867 28.7365L26.9748 28.8559C26.9733 28.8677 26.9686 28.8876 26.9856 28.8874C27.0222 28.8869 26.9968 28.769 27.0887 28.7682L27.157 28.7675C27.1904 28.767 27.1985 28.7717 27.1989 28.815L27.2025 29.2342ZM27.6761 29.0633C27.6615 29.0644 27.6502 29.0662 27.6495 29.0572C27.6485 29.0446 27.6526 29.0343 27.6558 29.0232L27.7057 28.8589C27.7089 28.8486 27.7121 28.8475 27.7137 28.8474C27.7178 28.8469 27.7154 28.8474 27.7208 28.8541L27.8001 29.0119C27.8049 29.0223 27.8106 29.0319 27.8116 29.0444C27.8122 29.0535 27.8009 29.0535 27.7863 29.0546L27.6761 29.0633ZM27.8153 29.1012C27.8364 29.0996 27.8411 29.1083 27.8734 29.1764C27.8842 29.2001 27.8912 29.2158 27.8927 29.2356C27.8971 29.2906 27.8387 29.2852 27.8408 29.3113C27.8417 29.3239 27.8522 29.3213 27.8668 29.3202C27.8903 29.3183 27.92 29.3123 27.9556 29.3095C28.0091 29.3053 28.0313 29.3072 28.0605 29.3049C28.0824 29.3032 28.0898 29.3044 28.0886 29.2891C28.0863 29.2593 28.0453 29.2979 28.0143 29.236L27.7521 28.702C27.7394 28.6759 27.7376 28.6742 27.7303 28.6747C27.7198 28.6756 27.7171 28.693 27.7125 28.7079L27.5358 29.27C27.5195 29.3221 27.4777 29.3199 27.4793 29.3406C27.4803 29.3524 27.4931 29.3495 27.5044 29.3486C27.5279 29.3468 27.5512 29.3413 27.5755 29.3394C27.6014 29.3374 27.626 29.339 27.652 29.337C27.669 29.3357 27.6946 29.34 27.6931 29.3211C27.6912 29.2968 27.6048 29.3181 27.5997 29.2532C27.598 29.2316 27.6068 29.1992 27.6111 29.1808C27.625 29.1198 27.6418 29.1149 27.6556 29.1138L27.8153 29.1012H27.8153ZM28.4436 28.7267C28.4354 28.665 28.4385 28.6636 28.5361 28.6508C28.6916 28.6303 28.6426 28.7434 28.6805 28.7384C28.699 28.736 28.6911 28.7069 28.6887 28.6954L28.6739 28.6071C28.6728 28.5991 28.666 28.5909 28.6555 28.5922C28.5845 28.6016 28.5294 28.6125 28.4721 28.62C28.3488 28.6362 28.2903 28.6403 28.2573 28.6447C28.246 28.6461 28.2404 28.6542 28.2415 28.6623C28.2463 28.6981 28.3336 28.6574 28.3442 28.738L28.3994 29.1572C28.4138 29.2665 28.3461 29.2262 28.3515 29.2674C28.3523 29.2728 28.3577 29.2766 28.3681 29.2752C28.4125 29.2694 28.4459 29.2613 28.4709 29.258C28.5063 29.2533 28.5366 29.2531 28.5673 29.249C28.5874 29.2464 28.6048 29.2477 28.6025 29.2298C28.5993 29.2056 28.5112 29.24 28.4981 29.1406L28.4806 29.008C28.4737 28.956 28.4691 28.9457 28.5062 28.9408L28.5658 28.933C28.6497 28.9219 28.6396 29.0199 28.6654 29.0165C28.6848 29.0139 28.6757 28.9823 28.6733 28.9708L28.6467 28.8121C28.6427 28.788 28.6341 28.791 28.6285 28.7917C28.6123 28.7939 28.6208 28.8766 28.5515 28.8857L28.5006 28.8924C28.466 28.897 28.4652 28.8907 28.4601 28.8522L28.4436 28.7267H28.4436ZM28.7409 28.9321C28.7743 29.1124 28.9045 29.2123 29.0652 29.1825C29.3202 29.1352 29.3286 28.9086 29.3056 28.7842C29.2707 28.5959 29.1303 28.5034 28.9747 28.5341C28.784 28.5712 28.7048 28.7375 28.7409 28.9321ZM28.8298 28.8632C28.806 28.7344 28.8232 28.6044 28.9578 28.5767C29.0606 28.5558 29.1773 28.6408 29.2136 28.8371C29.241 28.9845 29.2183 29.1119 29.0813 29.14C28.9386 29.1692 28.8539 28.9929 28.8298 28.8632ZM29.4605 28.5486C29.4478 28.4958 29.4723 28.49 29.5016 28.4829C29.5815 28.4638 29.6413 28.5181 29.662 28.6042C29.6744 28.6561 29.6815 28.7064 29.5613 28.7352C29.5375 28.7409 29.5083 28.748 29.5031 28.726L29.4605 28.5486ZM29.4609 28.9786C29.4875 29.0893 29.4165 29.0757 29.4232 29.1038C29.4274 29.1214 29.4434 29.1148 29.4521 29.1127C29.4916 29.1032 29.5303 29.0902 29.573 29.0799C29.6062 29.072 29.6284 29.0704 29.6418 29.0671C29.66 29.0628 29.6651 29.056 29.6631 29.0481C29.6556 29.0164 29.586 29.0712 29.5634 28.9772L29.5269 28.8253C29.5195 28.7945 29.5133 28.7895 29.5552 28.7794C29.5947 28.7699 29.6109 28.7744 29.6384 28.8087L29.7381 28.9316C29.7748 28.9767 29.8134 29.026 29.8759 29.011C29.9075 29.0033 29.955 28.9715 29.9485 28.9443C29.9468 28.9372 29.9408 28.9331 29.9337 28.9348C29.9258 28.9367 29.9192 28.9439 29.9112 28.9458C29.9049 28.9473 29.8899 28.9509 29.8794 28.9385C29.7959 28.8415 29.6981 28.7303 29.6968 28.725C29.6947 28.7162 29.7157 28.7028 29.7338 28.6771C29.7518 28.6505 29.7669 28.6125 29.7534 28.5563C29.7437 28.5159 29.6981 28.3958 29.5249 28.4374C29.472 28.4501 29.419 28.4665 29.3661 28.4792C29.3163 28.4912 29.3091 28.4892 29.2727 28.4979C29.2632 28.5002 29.2564 28.5065 29.2585 28.5153C29.2661 28.5469 29.3445 28.4937 29.3681 28.5921L29.4609 28.9786ZM30.1132 28.8328C30.1401 28.9369 30.0403 28.9179 30.0491 28.952C30.0541 28.9713 30.0672 28.9669 30.0814 28.9632C30.1129 28.9551 30.138 28.9449 30.1907 28.9313C30.2435 28.9176 30.2704 28.9144 30.3018 28.9063C30.3246 28.9003 30.3411 28.8989 30.3356 28.8779C30.3293 28.8534 30.2351 28.9048 30.2073 28.7973L30.105 28.4019C30.0942 28.36 30.1009 28.3535 30.1332 28.3452L30.2001 28.3278C30.2897 28.301 30.2897 28.4045 30.3212 28.3964C30.3416 28.3911 30.3241 28.3593 30.3198 28.3492L30.2904 28.271C30.2873 28.2624 30.2842 28.2501 30.2723 28.2532C30.1991 28.2722 30.1473 28.2893 30.0324 28.319C29.9175 28.3487 29.8638 28.3588 29.7906 28.3778C29.7788 28.3809 29.7819 28.3931 29.7834 28.402L29.8007 28.5208C29.8021 28.5325 29.8023 28.553 29.8188 28.5487C29.8543 28.5395 29.801 28.4311 29.89 28.4081L29.9561 28.391C29.9884 28.3827 29.9974 28.385 30.0082 28.427L30.1132 28.8328ZM30.5291 28.2779C30.5062 28.1952 30.5737 28.2102 30.5654 28.1806C30.5625 28.1702 30.5582 28.1695 30.5346 28.176C30.49 28.1884 30.4627 28.1997 30.4345 28.2075C30.4071 28.2151 30.3756 28.2201 30.345 28.2286C30.338 28.2305 30.3177 28.2333 30.3218 28.2482C30.3302 28.2786 30.412 28.2297 30.4339 28.3089L30.5499 28.7268C30.5728 28.8095 30.5101 28.8025 30.5185 28.833C30.5197 28.8373 30.523 28.843 30.5301 28.8411C30.5504 28.8354 30.5832 28.8226 30.6169 28.8132C30.678 28.7963 30.7079 28.7917 30.737 28.7837C30.7549 28.7787 30.761 28.7733 30.7584 28.7637C30.7506 28.7358 30.674 28.8002 30.6443 28.6931L30.5291 28.2779ZM30.7025 28.4798C30.7607 28.6537 30.9034 28.7345 31.0585 28.6827C31.3045 28.6004 31.2812 28.3747 31.2411 28.2548C31.1803 28.0732 31.0285 28.0011 30.8786 28.0531C30.695 28.1165 30.6397 28.2922 30.7025 28.4798ZM30.781 28.3992C30.7394 28.275 30.7384 28.1439 30.8678 28.0977C30.9668 28.0627 31.0941 28.1306 31.1574 28.32C31.205 28.4622 31.2003 28.5914 31.0685 28.6384C30.9313 28.6871 30.8228 28.5243 30.781 28.3992ZM31.3581 27.9893C31.3383 27.9389 31.3617 27.9296 31.3897 27.9186C31.4661 27.8885 31.533 27.934 31.5655 28.0164C31.585 28.066 31.599 28.1148 31.484 28.1601C31.4613 28.1691 31.4333 28.1801 31.425 28.159L31.3581 27.9892V27.9893ZM31.4184 28.4151C31.4601 28.521 31.3879 28.5174 31.3985 28.5443C31.4051 28.5611 31.42 28.5524 31.4283 28.5491C31.4661 28.5342 31.5027 28.5159 31.5435 28.4998C31.5753 28.4873 31.597 28.4827 31.6099 28.4776C31.6273 28.4707 31.6314 28.4633 31.6284 28.4557C31.6165 28.4254 31.5552 28.4894 31.5197 28.3995L31.4624 28.2541C31.4508 28.2246 31.444 28.2205 31.4841 28.2048C31.5219 28.1898 31.5385 28.192 31.5705 28.2222L31.6863 28.3299C31.729 28.3694 31.7741 28.4129 31.8338 28.3893C31.8641 28.3774 31.9067 28.3393 31.8965 28.3132C31.8938 28.3064 31.8873 28.3032 31.8805 28.3059C31.8729 28.3089 31.8673 28.3169 31.8598 28.3199C31.8537 28.3223 31.8393 28.3279 31.8272 28.3172C31.7311 28.2327 31.6187 28.1362 31.6167 28.1311C31.6135 28.1227 31.6324 28.1065 31.6468 28.0786C31.6607 28.0497 31.6704 28.01 31.6492 27.9562C31.634 27.9175 31.5722 27.805 31.4065 27.8702C31.3558 27.8902 31.3057 27.9138 31.255 27.9338C31.2073 27.9526 31.2 27.9516 31.1652 27.9653C31.1561 27.9689 31.1501 27.976 31.1535 27.9844C31.1654 28.0147 31.2356 27.9511 31.2727 28.0453L31.4184 28.4151Z" fill="#703D29"/>
<path d="M22.7844 19.1614H26.7637V23.1332H22.7844V19.1614Z" fill="#D52B1E"/>
<path d="M24.6506 22.2885C24.6506 22.2885 24.6483 22.4305 24.6092 22.5445C24.564 22.6763 24.5637 22.6763 24.5222 22.7403C24.4665 22.8265 24.3984 22.8895 24.3377 22.9285C24.2429 22.9894 24.1466 23.0199 24.0497 23.0113C23.7839 22.9878 23.6605 22.6995 23.6002 22.4655C23.5363 22.2171 23.3546 22.0818 23.2388 22.1718C23.1711 22.2246 23.1672 22.3129 23.2238 22.3977C23.284 22.4881 23.4223 22.5333 23.4223 22.5333L23.2802 22.714C23.2802 22.714 22.9751 22.6743 22.9154 22.356C22.8928 22.2355 22.9513 22.0105 23.1522 21.9433C23.4087 21.8574 23.5728 22.0404 23.6518 22.1947C23.7606 22.407 23.8073 22.7968 24.1085 22.7365C24.2723 22.7037 24.3494 22.4655 24.3494 22.3563L24.4689 22.2283L24.6458 22.2848L24.6506 22.2886V22.2885Z" fill="white"/>
<path d="M25.131 20.5996L25.652 20.0358C25.652 20.0358 25.7306 19.9724 25.7299 19.8711L25.6225 19.8878L25.5984 19.8325L25.5931 19.777L25.7374 19.7465C25.7398 19.723 25.7378 19.7053 25.7419 19.6795C25.7458 19.6555 25.7511 19.6427 25.757 19.6192L25.5989 19.6298C25.6069 19.6021 25.6051 19.5874 25.6139 19.5617C25.6214 19.54 25.6235 19.5318 25.6383 19.5083C25.6676 19.5039 25.6943 19.4972 25.7306 19.4936C25.7659 19.49 25.786 19.4916 25.8213 19.4894C25.9076 19.3286 26.2663 19.1808 26.5212 19.4457C26.7057 19.6373 26.6659 19.9889 26.4268 20.0819C26.2912 20.1346 26.1821 20.1034 26.0945 20.0281L26.1899 19.8409C26.3217 19.9196 26.4308 19.8218 26.4233 19.7201C26.4138 19.5916 26.3304 19.5121 26.2125 19.5017C26.1034 19.4922 26.025 19.5547 25.9753 19.6523C25.945 19.7119 25.9591 19.7557 25.949 19.8218C25.9381 19.8936 25.9442 19.9337 25.923 20.0063C25.9075 20.0589 25.8671 20.1241 25.8082 20.1802L25.2741 20.7581L23.1948 23.0071L23.0386 22.8626L25.131 20.5995V20.5996Z" fill="#FEDF00"/>
<path d="M23.6003 20.7976C23.6003 20.7976 23.7311 21.4451 24.1753 22.4164C24.4012 22.3336 24.5346 22.2809 24.7739 22.2809C25.0133 22.2809 25.1466 22.3261 25.3725 22.4164C25.8167 21.4451 25.9475 20.7976 25.9475 20.7976L24.7739 19.288L23.6003 20.7976Z" fill="white"/>
<path d="M24.8888 19.7987L25.7033 20.8464C25.7033 20.8464 25.5947 21.3558 25.2637 22.1225C25.1356 22.0933 25.0257 22.0679 24.8893 22.0586L24.8888 19.7988V19.7987ZM24.6593 19.7987L23.8448 20.8464C23.8448 20.8464 23.9535 21.3558 24.2844 22.1225C24.4126 22.0933 24.5225 22.0679 24.6589 22.0586L24.6593 19.7988V19.7987Z" fill="#FEDF00"/>
<path d="M27.188 19.1614H31.1673V23.1332H27.188V19.1614Z" fill="#FEDF00"/>
<path d="M27.7454 19.1614H28.3387V23.1332H27.7454V19.1614ZM28.8823 19.1614H29.4756V23.1332H28.8823V19.1614ZM30.0193 19.1614H30.6126V23.1332H30.0193V19.1614Z" fill="#D52B1E"/>
<path d="M22.7995 26.5782C22.8107 26.6497 22.8363 26.7724 22.9042 26.8982C22.9757 27.0111 22.9493 27.0081 23.1112 27.1887C23.1909 27.2777 23.3152 27.3539 23.4128 27.4064C23.5106 27.4591 23.5831 27.485 23.7441 27.5272C24.0596 27.61 24.2811 27.6152 24.5466 27.6046C24.7538 27.5963 24.9119 27.5709 25.0429 27.5532C25.2297 27.5281 25.3688 27.5132 25.5813 27.5043C25.6846 27.4999 25.7822 27.499 25.8787 27.5043C25.9951 27.5107 26.1102 27.5287 26.2326 27.5532C26.4961 27.6059 26.7634 27.7076 26.7634 27.7076L26.764 23.56L22.7841 23.5588V26.3937C22.7841 26.3937 22.7922 26.5322 22.7995 26.5782Z" fill="#FEDF00"/>
<path d="M23.2614 27.3051L23.4479 27.4136L23.7035 27.5056L23.7033 23.5578H23.2614L23.2614 27.3051ZM25.4724 27.4847L25.4729 23.5577H25.0302V27.5475C25.0302 27.5475 25.3332 27.5087 25.4723 27.4997L25.4724 27.4847ZM26.3556 23.5582H25.9143V27.4988C26.0636 27.5146 26.2114 27.5419 26.3564 27.5803L26.3556 23.5582ZM24.5887 23.5582V27.5933C24.5843 27.5937 24.2933 27.6085 24.1445 27.5931L24.1446 23.5589L24.5887 23.5582Z" fill="#D52B1E" stroke="#D52B1E" stroke-width="0.0248407"/>
<path d="M31.1528 26.5768C31.1415 26.6483 31.116 26.7711 31.048 26.8968C30.9765 27.0098 31.0029 27.0067 30.841 27.1874C30.7613 27.2763 30.637 27.3525 30.5394 27.405C30.4416 27.4578 30.3692 27.4836 30.2082 27.5259C29.8926 27.6087 29.6711 27.6139 29.4056 27.6033C29.1985 27.595 29.0403 27.5695 28.9093 27.5519C28.7225 27.5268 28.5834 27.5118 28.371 27.5029C28.2677 27.4986 28.17 27.4976 28.0736 27.5029C27.9571 27.5093 27.842 27.5274 27.7197 27.5519C27.4562 27.6046 27.1854 27.7062 27.1854 27.7062L27.1882 23.5586L31.1682 23.5575V26.3923C31.1682 26.3923 31.16 26.5308 31.1528 26.5768V26.5768Z" fill="#FEDF00"/>
<path d="M28.2058 23.8904C28.2058 23.8904 28.1881 23.8988 28.177 23.904C28.1626 23.9198 28.1554 23.9291 28.1392 23.9433C28.1177 23.9622 28.102 23.9677 28.0787 23.9841C28.0675 23.9921 28.0583 23.9946 28.0499 24.0054C28.0377 24.0209 28.0461 24.0359 28.0378 24.0538C28.0288 24.0734 28.0199 24.0827 28.006 24.0992C27.9883 24.1202 27.9746 24.1287 27.9546 24.1476C27.9343 24.1668 27.9261 24.1828 27.9016 24.196C27.8951 24.1995 27.892 24.2029 27.885 24.2051C27.8745 24.2083 27.868 24.2046 27.8577 24.2081C27.8389 24.2146 27.833 24.2354 27.8199 24.2429C27.8253 24.2535 27.8251 24.2609 27.8305 24.2717C27.8382 24.2873 27.8646 24.3305 27.8698 24.3413C27.88 24.356 27.8829 24.3752 27.8956 24.3791C27.9216 24.3872 27.9371 24.3865 27.9591 24.3851C27.9975 24.3939 28.0211 24.3928 28.0575 24.4078C28.0871 24.4201 28.0992 24.4357 28.1286 24.4487C28.1515 24.4589 28.166 24.4652 28.1906 24.4699C28.2094 24.4735 28.2201 24.4763 28.239 24.4744C28.2511 24.4733 28.2573 24.4686 28.2693 24.4669C28.2717 24.4664 28.2732 24.4669 28.2754 24.4669L28.2739 24.485C28.2736 24.485 28.2741 24.4864 28.2739 24.4865V24.4895H28.2769L28.3768 24.5334C28.373 24.5391 28.37 24.5452 28.3677 24.5516C28.363 24.5671 28.3622 24.5849 28.3647 24.5924C28.3952 24.6839 28.4208 24.741 28.4358 24.7468C28.4656 24.7582 28.4748 24.7887 28.4918 24.8194C28.4858 24.8258 28.4808 24.8291 28.4751 24.8345C28.4454 24.8631 28.4193 24.8834 28.3949 24.9223C28.3588 24.9799 28.3345 24.9806 28.3798 25.0569C28.4064 25.1018 28.4192 25.1102 28.4539 25.1735C28.4715 25.2055 28.4812 25.2303 28.4918 25.2688C28.5018 25.3053 28.5052 25.3265 28.5069 25.3642L28.5538 25.3823L28.5856 25.3505L28.6159 25.2931L28.6173 25.2492C28.6058 25.2394 28.6025 25.2262 28.6052 25.2113C28.6086 25.1935 28.6301 25.1973 28.6401 25.1811C28.6538 25.1587 28.624 25.1455 28.6083 25.1281C28.579 25.0957 28.539 25.0878 28.5296 25.0388C28.5271 25.0256 28.5334 25.0182 28.5477 25.004C28.5892 24.9633 28.6025 24.9569 28.6431 24.9163C28.6548 24.9232 28.6727 24.9256 28.69 24.9223C28.7036 24.9198 28.7157 24.9284 28.7581 24.9405C28.7876 24.9489 28.8004 24.9447 28.8171 24.9419L28.8353 24.9374C28.8377 24.9477 28.8406 24.9575 28.8413 24.9707C28.8439 25.022 28.8338 25.1157 28.8489 25.1402C28.8552 25.1505 28.8579 25.1563 28.8625 25.1674C28.8673 25.1791 28.8728 25.1866 28.8731 25.1992C28.8736 25.2329 28.8754 25.2544 28.8731 25.29C28.871 25.3235 28.8681 25.3405 28.8625 25.3747C28.8589 25.3966 28.8545 25.4093 28.8413 25.4262C28.8276 25.4438 28.8125 25.4464 28.7944 25.4595L28.7899 25.5079L28.8444 25.5306L28.9064 25.5457L28.9397 25.5321C28.9397 25.5198 28.9416 25.5127 28.9472 25.5019C28.9534 25.4899 28.9585 25.4806 28.97 25.4761C28.9875 25.4692 29.0067 25.4824 29.0138 25.4716C29.0215 25.4599 29.0167 25.4552 29.0153 25.4353C29.0131 25.4032 29.0064 25.3873 29.0017 25.355C28.9938 25.3013 28.9915 25.2734 28.9941 25.2219C28.9956 25.192 28.996 25.1756 29.0017 25.1462C29.01 25.1035 29.0252 25.0828 29.035 25.0403C29.0459 24.993 29.0478 24.9625 29.0532 24.9208C29.2067 24.9427 29.3344 24.94 29.5056 24.9026C29.5138 24.9008 29.5419 24.8905 29.5419 24.8905C29.5807 24.9239 29.6246 24.9517 29.6736 24.9692C29.6733 24.9741 29.6728 25.0101 29.6736 25.0161C29.6753 25.03 29.6716 25.0394 29.6796 25.0509C29.6847 25.0582 29.6891 25.0625 29.6978 25.0645C29.7105 25.0675 29.7198 25.0656 29.7296 25.0569C29.7405 25.0472 29.7385 25.035 29.7417 25.0206C29.7432 25.0139 29.742 24.9933 29.7417 24.9874C29.7594 24.99 29.7654 24.9904 29.7841 24.9904C29.8013 24.9904 29.8097 24.991 29.8264 24.9889C29.8267 24.9927 29.8274 25.0067 29.8279 25.0115C29.8292 25.0234 29.8242 25.0326 29.8294 25.0433C29.8348 25.0545 29.8415 25.0607 29.8536 25.063C29.858 25.0641 29.8625 25.0643 29.867 25.0635C29.8714 25.0627 29.8756 25.061 29.8793 25.0584C29.8937 25.0495 29.8921 25.0343 29.8945 25.0176C29.8952 25.0123 29.895 24.9841 29.8945 24.9798C29.9048 24.9765 29.9346 24.9656 29.9444 24.9616C29.944 24.9748 29.9424 24.988 29.9399 25.0009C29.9373 25.0164 29.9333 25.0316 29.9278 25.0463C29.9178 25.0738 29.9064 25.0878 29.8915 25.1129C29.8732 25.1436 29.8638 25.1606 29.8416 25.1886C29.8313 25.2014 29.8242 25.2073 29.8143 25.2204C29.8019 25.2367 29.7978 25.2478 29.7856 25.2642C29.7699 25.2855 29.7609 25.2993 29.7401 25.3157C29.7066 25.3423 29.6844 25.321 29.6388 25.3565L29.6281 25.4065L29.6978 25.4322L29.7598 25.4443L29.781 25.4322C29.7804 25.4176 29.7826 25.4073 29.7916 25.3959C29.8019 25.3828 29.813 25.3789 29.8294 25.3762C29.8469 25.3733 29.8656 25.3778 29.8793 25.3656C29.8963 25.3506 29.8962 25.3214 29.9096 25.2945C29.9512 25.211 29.9881 25.1704 30.0549 25.1054C30.0846 25.0765 30.11 25.0687 30.1351 25.0357C30.147 25.0201 30.1603 25.013 30.1608 24.9934C30.1612 24.9797 30.1539 24.9733 30.1502 24.9601C30.1452 24.9418 30.1412 24.9117 30.1412 24.9117C30.2148 24.9477 30.1881 24.943 30.2017 24.9798C30.2126 25.0095 30.2001 25.0301 30.2047 25.0615C30.2101 25.0981 30.2273 25.1154 30.2304 25.1522C30.2342 25.1961 30.2235 25.221 30.2153 25.2642C30.208 25.3023 30.209 25.3261 30.1926 25.3611C30.177 25.3945 30.165 25.4132 30.1366 25.4367C30.1264 25.4452 30.1187 25.4488 30.1079 25.4564L30.1018 25.5063L30.1563 25.5245L30.235 25.5457L30.2531 25.5291C30.2611 25.4973 30.2505 25.4508 30.2728 25.4473C30.2924 25.4443 30.3063 25.4473 30.3106 25.4322C30.3124 25.4258 30.3135 25.4164 30.3152 25.402C30.3259 25.3106 30.3356 25.2254 30.3454 25.1841C30.3566 25.1372 30.3558 25.127 30.3651 25.0917C30.3736 25.0596 30.361 25.0781 30.3848 25.01C30.4203 24.9085 30.3747 24.895 30.3333 24.833C30.3109 24.7994 30.3032 24.7873 30.3 24.7604C30.2953 24.7208 30.308 24.688 30.3061 24.6272C30.3045 24.5808 30.3045 24.5344 30.3061 24.488C30.3117 24.4854 30.3168 24.4821 30.3228 24.4789C30.3794 24.4478 30.402 24.4384 30.4378 24.3593C30.448 24.337 30.4531 24.3128 30.4529 24.2882C30.4526 24.2722 30.4497 24.2567 30.4483 24.2383C30.4469 24.219 30.4391 24.2074 30.4332 24.1929C30.4269 24.1775 30.4175 24.1658 30.4059 24.152C30.3686 24.1073 30.3198 24.0972 30.2743 24.0809C30.2025 24.0552 30.153 24.0599 30.0746 24.0537C29.9936 24.0473 29.9484 24.046 29.8672 24.0507C29.7701 24.0562 29.7158 24.0758 29.6191 24.087C29.5264 24.0977 29.4749 24.1049 29.3815 24.1067C29.2721 24.1087 29.1675 24.0844 29.1016 24.09C28.9829 24.1002 28.9809 24.1269 28.802 24.1415C28.74 24.1463 28.678 24.1493 28.6159 24.1505L28.5114 24.1173C28.5529 24.1024 28.5631 24.0936 28.5826 24.0673C28.5957 24.0496 28.5938 24.0345 28.6098 24.0159C28.6227 24.0008 28.6313 23.9857 28.6476 23.9689C28.6344 23.9584 28.6188 23.9511 28.6022 23.9478C28.5846 23.9441 28.5745 23.9458 28.5568 23.9478C28.5329 23.9505 28.5195 23.9538 28.4978 23.9644C28.4804 23.973 28.4676 23.9817 28.4569 23.9932C28.4569 23.9932 28.3947 23.9531 28.351 23.9342C28.2969 23.9107 28.2736 23.8997 28.2058 23.8903V23.8904ZM28.3011 24.4669H28.3041C28.3035 24.4674 28.3032 24.4679 28.3027 24.4684L28.3011 24.4669Z" fill="#D52B1E"/>
<path d="M30.3436 24.501L30.3066 24.5128C30.2647 24.5323 30.2302 24.5331 30.1807 24.5369C30.0527 24.5466 29.9739 24.4857 29.8419 24.4958C29.7739 24.5011 29.7438 24.5535 29.6743 24.5708C29.6474 24.5779 29.6198 24.5825 29.592 24.5845L29.6168 24.5344C29.6168 24.5344 29.5546 24.5471 29.5144 24.5472C29.4896 24.5476 29.4649 24.5455 29.4406 24.5409L29.4899 24.4949C29.4899 24.4949 29.4505 24.4884 29.4272 24.4786C29.4086 24.4712 29.3913 24.4609 29.3759 24.4481C29.4034 24.4435 29.4307 24.4378 29.4577 24.431C29.5331 24.4124 29.5565 24.3755 29.6461 24.3668C29.7018 24.3615 29.7929 24.3646 30.0162 24.4016C30.1632 24.4259 30.2284 24.4145 30.2843 24.3891C30.3211 24.3724 30.3332 24.3402 30.3377 24.3025C30.3421 24.2649 30.3181 24.2345 30.2954 24.2148C30.2894 24.2097 30.2739 24.1986 30.2415 24.1973" stroke="#FEDF00" stroke-width="0.0477928" stroke-linecap="round"/>
<path d="M28.2145 24.0696C28.1888 24.0664 28.1716 24.0701 28.1496 24.0836C28.1263 24.098 28.1234 24.1174 28.1066 24.1389C28.1281 24.1438 28.1404 24.1564 28.1619 24.1512C28.1787 24.1472 28.1874 24.1397 28.1987 24.1267C28.214 24.1091 28.2196 24.094 28.2194 24.0707L28.2145 24.0696Z" fill="#FCD900" stroke="#FEDF00" stroke-width="0.0248407"/>
<path d="M28.5524 24.7262C28.5907 24.7347 28.5788 24.8889 28.6391 24.9242M28.7587 24.7078C28.7587 24.7078 28.7715 24.731 28.7784 24.7465C28.7904 24.7733 28.7966 24.789 28.8038 24.8175C28.8135 24.8562 28.8093 24.8797 28.8154 24.9191C28.8165 24.926 28.8178 24.9319 28.8191 24.9373L28.8167 24.992L28.7587 24.7078ZM29.1461 24.6555C29.1461 24.6555 29.1355 24.6948 29.1289 24.72C29.1119 24.7855 29.0962 24.8211 29.0832 24.8875C29.0811 24.8987 29.0795 24.9089 29.0782 24.9187L29.1461 24.6555Z" stroke="#FEDF00" stroke-width="0.0477928" stroke-linecap="round"/>
<path d="M29.9247 24.9978L29.9433 24.9857C29.992 24.9658 30.0363 24.9363 30.0734 24.899" stroke="#FEDF00" stroke-width="0.0477928"/>
<path d="M29.5499 24.9126H29.5503C29.7213 24.8698 29.8352 24.7844 29.9173 24.7737" stroke="#FEDF00" stroke-width="0.0477928" stroke-linecap="round"/>
<path d="M29.7238 24.699C29.7383 24.6985 29.7521 24.6974 29.764 24.6957C29.835 24.6856 29.8465 24.729 29.896 24.7566C29.9859 24.807 29.9975 24.8684 30.1042 24.9191C30.1098 24.9218 30.115 24.9243 30.1197 24.9267L30.1607 24.9474" stroke="#FEDF00" stroke-width="0.0477928" stroke-linecap="round"/>
<path d="M27.8707 24.2594C27.8836 24.2626 27.8916 24.2632 27.9049 24.262C27.921 24.2605 27.9283 24.2504 27.9445 24.2499C27.9575 24.2494 27.9668 24.2484 27.9776 24.256C27.9844 24.2608 27.9873 24.2652 27.9911 24.2725C27.9954 24.2806 27.999 24.2862 27.9971 24.2951C27.9942 24.3088 27.9815 24.3153 27.9674 24.3154C27.9559 24.3154 27.9464 24.3124 27.9411 24.3023C27.9394 24.2994 27.9384 24.2963 27.9381 24.293C27.9377 24.2898 27.9381 24.2865 27.9392 24.2834C27.9254 24.2886 27.9155 24.2888 27.9016 24.2842C27.895 24.2824 27.8889 24.2792 27.8836 24.2749C27.8783 24.2707 27.8739 24.2654 27.8707 24.2594Z" fill="#FCD900" stroke="#FEDF00" stroke-width="0.0248407"/>
<path d="M28.2305 24.7261C28.1919 24.7147 28.1353 24.6861 28.1353 24.6861C28.1509 24.674 28.1637 24.6733 28.1771 24.6593C28.1959 24.6395 28.1951 24.6211 28.2058 24.5954C28.2162 24.5702 28.2147 24.5492 28.2383 24.5304C28.2523 24.5192 28.2752 24.5173 28.2924 24.5224C28.3095 24.5278 28.3292 24.5418 28.3335 24.5595C28.3401 24.5866 28.3257 24.6024 28.3216 24.6299C28.3174 24.6574 28.3074 24.6732 28.3121 24.7006C28.3153 24.7187 28.3231 24.7257 28.3293 24.7445C28.3293 24.7445 28.2681 24.7373 28.2305 24.7261V24.7261ZM28.1825 24.7721C28.1824 24.7661 28.1841 24.7602 28.1874 24.7552C28.1906 24.7501 28.1953 24.7461 28.2008 24.7438C28.2064 24.7414 28.2125 24.7407 28.2184 24.7417C28.2243 24.7428 28.2297 24.7456 28.2341 24.7498C28.2384 24.754 28.2414 24.7593 28.2427 24.7652C28.2439 24.7711 28.2434 24.7772 28.2412 24.7828C28.239 24.7884 28.2352 24.7932 28.2303 24.7966C28.2254 24.8001 28.2195 24.8019 28.2135 24.8021C28.2095 24.8021 28.2055 24.8014 28.2018 24.8C28.1981 24.7985 28.1947 24.7963 28.1918 24.7935C28.1889 24.7908 28.1866 24.7874 28.185 24.7838C28.1834 24.7801 28.1826 24.7761 28.1825 24.7721ZM28.0973 23.9727C28.0973 23.9727 28.093 23.9698 28.0903 23.9676C28.0718 23.9526 28.07 23.936 28.0612 23.9139C28.0529 23.8929 28.0488 23.8804 28.046 23.858C28.0436 23.8384 28.046 23.827 28.046 23.8073C28.046 23.7894 28.0479 23.7793 28.046 23.7616C28.044 23.7434 28.0445 23.7319 28.0358 23.7158C28.0311 23.7071 28.0167 23.6995 28.0206 23.6955C28.0252 23.6909 28.0331 23.6945 28.0409 23.6955C28.0603 23.6979 28.0715 23.7035 28.0866 23.7158C28.1049 23.7307 28.1121 23.7435 28.1192 23.7666C28.1272 23.7932 28.1312 23.8101 28.1389 23.8377C28.1429 23.852 28.1452 23.8604 28.1526 23.8733C28.1604 23.8866 28.1681 23.8918 28.178 23.9037L28.1775 23.9048C28.163 23.9207 28.156 23.931 28.1398 23.9452C28.1251 23.9583 28.1127 23.9647 28.0989 23.973L28.0973 23.9725L28.0973 23.9727ZM28.2716 24.4879L28.3796 24.5378C28.4353 24.5071 28.4994 24.4447 28.5489 24.3481C28.5916 24.2649 28.5983 24.2197 28.615 24.1392L28.5284 24.1111L28.5111 24.1146C28.4844 24.198 28.4775 24.2455 28.4327 24.3176C28.3939 24.3801 28.3495 24.4292 28.3045 24.4645L28.2716 24.4879ZM28.5108 25.3653C28.5283 25.3414 28.5357 25.3261 28.5555 25.3041C28.5776 25.2796 28.5942 25.2701 28.619 25.2484C28.6265 25.2491 28.6352 25.2478 28.6423 25.2519C28.6409 25.2782 28.6396 25.2979 28.6335 25.3265C28.6287 25.3497 28.6245 25.3626 28.6168 25.3851C28.6102 25.4039 28.6091 25.416 28.5979 25.4325C28.5904 25.4434 28.5839 25.4478 28.5749 25.4576C28.5502 25.4216 28.5105 25.3947 28.5108 25.3653V25.3653ZM30.1093 25.4549C30.137 25.4651 30.1538 25.468 30.1804 25.4809C30.2099 25.4955 30.2237 25.5088 30.2514 25.5267C30.2527 25.5341 30.2565 25.5421 30.2545 25.55C30.2288 25.5559 30.2096 25.5601 30.1804 25.5622C30.1601 25.5637 30.1397 25.5637 30.1194 25.5622C30.0996 25.5611 30.0876 25.5634 30.0687 25.5571C30.0561 25.5529 30.0501 25.5478 30.0382 25.5419C30.0659 25.5082 30.0808 25.4626 30.1093 25.4549ZM29.6367 25.3561C29.6644 25.3663 29.6812 25.3692 29.7077 25.3822C29.7373 25.3967 29.7511 25.41 29.7788 25.4279C29.7801 25.4353 29.7839 25.4433 29.7819 25.4512C29.7562 25.4572 29.737 25.4613 29.7078 25.4634C29.6841 25.4652 29.6706 25.4647 29.6468 25.4634C29.627 25.4623 29.615 25.4646 29.5961 25.4583C29.5835 25.4542 29.5775 25.449 29.5656 25.4431C29.5933 25.4094 29.6082 25.3639 29.6367 25.3561ZM28.797 25.4592C28.8248 25.4694 28.8416 25.4723 28.8681 25.4853C28.8977 25.4998 28.9115 25.5132 28.9392 25.531C28.9405 25.5385 28.9442 25.5465 28.9423 25.5544C28.9165 25.5603 28.8973 25.5644 28.8681 25.5666C28.8444 25.5683 28.8309 25.5679 28.8072 25.5666C28.7874 25.5655 28.7753 25.5677 28.7564 25.5615C28.7438 25.5573 28.7378 25.5522 28.7259 25.5463C28.7537 25.5126 28.7685 25.467 28.797 25.4592ZM28.3622 24.0163C28.3325 24.0028 28.3113 23.9657 28.3302 23.9391C28.3377 23.9284 28.3502 23.9307 28.3576 23.9199C28.3668 23.9067 28.3645 23.8954 28.3642 23.8793C28.3638 23.8611 28.3572 23.8516 28.354 23.8336C28.3506 23.814 28.3473 23.8028 28.3475 23.7829C28.3477 23.7525 28.3456 23.7308 28.3642 23.7067C28.376 23.6913 28.3961 23.678 28.4041 23.6771C28.4112 23.6836 28.4014 23.7014 28.4025 23.7169C28.4043 23.7392 28.4089 23.7516 28.4165 23.7727C28.4262 23.8 28.4397 23.8119 28.4505 23.8387C28.4606 23.8637 28.4699 23.8778 28.4708 23.9047C28.4716 23.9268 28.4696 23.9403 28.4607 23.9606C28.4527 23.9785 28.4461 23.9886 28.4311 24.0012C28.4181 24.0121 28.409 24.0169 28.3926 24.0215C28.3822 24.0226 28.3716 24.0208 28.3622 24.0163Z" fill="#0065BD"/>
<path d="M22.7844 19.1614H26.7637V23.1332H22.7844V19.1614ZM27.188 19.1614H31.1673V23.1332H27.188V19.1614ZM22.7995 26.5778C22.8107 26.6493 22.8363 26.7721 22.9042 26.8978C22.9757 27.0107 22.9493 27.0077 23.1112 27.1884C23.1909 27.2774 23.3152 27.3535 23.4128 27.406C23.5106 27.4588 23.5831 27.4846 23.7441 27.5269C24.0596 27.6097 24.2811 27.6149 24.5466 27.6043C24.7538 27.596 24.9119 27.5705 25.0429 27.5528C25.2297 27.5278 25.3688 27.5128 25.5813 27.5039C25.6846 27.4996 25.7822 27.4986 25.8787 27.5039C25.9951 27.5104 26.1102 27.5284 26.2326 27.5528C26.4961 27.6056 26.7634 27.7072 26.7634 27.7072L26.764 23.5596L22.7841 23.5585V26.3933C22.7841 26.3933 22.7922 26.5318 22.7995 26.5778ZM31.1528 26.5768C31.1415 26.6484 31.116 26.7711 31.0481 26.8968C30.9765 27.0098 31.0029 27.0067 30.841 27.1874C30.7613 27.2763 30.637 27.3526 30.5395 27.405C30.4416 27.4578 30.3692 27.4836 30.2082 27.5259C29.8926 27.6087 29.6712 27.6139 29.4057 27.6033C29.1985 27.595 29.0404 27.5695 28.9093 27.5519C28.7226 27.5268 28.5835 27.5118 28.371 27.503C28.2677 27.4986 28.1701 27.4976 28.0736 27.503C27.9571 27.5094 27.8421 27.5274 27.7197 27.5519C27.4562 27.6046 27.1855 27.7062 27.1855 27.7062L27.1882 23.5586L31.1682 23.5575V26.3923C31.1682 26.3923 31.1601 26.5308 31.1528 26.5768V26.5768Z" stroke="#703D29" stroke-width="0.0385926"/>
</g>
</svg>
