<svg width="54" height="48" viewBox="0 0 54 48" fill="none" xmlns="http://www.w3.org/2000/svg">
<mask id="mask0_1_34064" style="mask-type:alpha" maskUnits="userSpaceOnUse" x="3" y="6" width="48" height="36">
<path d="M3.56934 15.1356C4.16681 10.4125 8.0415 7.00193 12.7861 6.60887C16.6412 6.28949 21.6196 6 27 6C32.3804 6 37.3588 6.28949 41.2139 6.60887C45.9585 7.00193 49.8332 10.4125 50.4307 15.1356C50.752 17.6759 51 20.704 51 24C51 27.296 50.752 30.3241 50.4307 32.8644C49.8332 37.5875 45.9585 40.9981 41.2139 41.3911C37.3588 41.7105 32.3804 42 27 42C21.6196 42 16.6412 41.7105 12.7861 41.3911C8.0415 40.9981 4.16681 37.5875 3.56934 32.8644C3.248 30.3241 3 27.296 3 24C3 20.704 3.248 17.6759 3.56934 15.1356Z" fill="#00D0BF"/>
</mask>
<g mask="url(#mask0_1_34064)">
<rect x="3" y="6" width="48" height="36" fill="#2E50A6"/>
<path d="M52 40.5772L5.9523 24L52 7.42283V40.5772Z" fill="#F5F5F5" stroke="#EE5757" stroke-width="2"/>
</g>
<path d="M34.5247 25.0376C34.8889 25.0656 34.8764 25.4267 34.8764 25.4267L36.166 25.4554C36.331 25.0058 36.5022 25.0579 36.8155 25.2799C37.1132 25.4909 37.438 25.5851 37.438 25.5851C37.5625 24.9398 38.4776 25.0703 38.4776 25.0703C38.8677 24.1384 38.9009 24.1508 38.6685 24.0328C38.4361 23.9148 38.3413 23.7151 38.3413 23.7151C38.1207 23.4489 38.0045 23.0637 37.9796 22.8274C37.9547 22.5912 37.6808 22.9457 37.631 22.8711C37.5812 22.7966 37.1745 22.8401 37.1745 22.8401C37.2741 22.9457 36.9338 22.8836 36.9338 22.8836C36.967 22.9084 36.9338 23.0078 36.9338 23.0078C36.9006 22.9643 36.6433 22.9208 36.6433 22.9208C36.6184 22.9767 36.5603 23.0388 36.5603 23.0388C36.4192 22.9767 36.137 22.9891 36.137 22.9891C35.722 22.9829 35.473 23.1134 35.3568 23.1817C35.2405 23.2501 34.8255 23.4613 34.4852 23.7905C34.1449 24.1198 33.954 24.0825 33.954 24.0825C33.8544 24.4491 33.041 24.8963 33.041 24.8963C32.9083 25.0144 32.5015 25.0703 32.2941 24.8963C32.0866 24.7224 32.2941 24.4118 32.2941 24.4118C32.3708 24.2666 32.4469 24.2726 32.4554 23.7687C32.4611 23.4279 32.8129 23.1577 33.1739 22.7617C33.6153 22.2775 34.2322 21.4804 34.2322 21.4804C34.2353 21.725 34.3691 21.7646 34.3691 21.7646C34.4905 21.5154 34.6648 21.315 34.6648 21.315C34.6741 21.336 34.6991 21.35 34.6991 21.35C34.836 21.1636 34.92 21.0891 34.92 21.0891C34.8734 21.0704 34.4905 21.0891 34.1325 21.4012C33.7746 21.7134 33.5287 21.6086 33.5287 21.6086C33.2797 21.5293 33.2579 21.3383 33.2579 21.3383C33.0761 20.556 33.7902 19.9965 33.7902 19.9965C32.8315 19.7682 33.5225 18.5521 34.7115 18.0349C35.9004 17.5178 35.888 17.2848 35.888 17.2848C35.9564 17.364 36.0125 17.5038 36.0125 17.5038C36.025 17.4944 36.1121 17.364 36.7969 17.0611C37.4816 16.7583 37.8115 16.4973 37.8115 16.4973C37.8987 16.6651 37.88 16.7862 37.88 16.7862C39.7537 16.1293 41.5995 14.622 41.5995 14.622C41.6524 14.7478 41.6244 14.9388 41.6244 14.9388C41.9294 14.6569 43.0313 14 43.0313 14C43.05 14.4193 42.7045 14.5801 42.7045 14.5801C42.7419 14.6407 42.7636 14.7501 42.7636 14.7501C42.9441 14.6522 43.7845 14.0652 43.7845 14.0652C44.0926 14.3307 43.8125 14.7664 43.8125 14.7664C43.9215 14.7501 44.0024 14.6546 44.0024 14.6546C44.0802 15.1065 43.5791 15.5049 43.5791 15.5049C43.6663 15.5073 43.8125 15.421 43.8125 15.421C43.7192 15.9149 42.7823 16.4624 42.7823 16.4624C42.9192 16.5835 42.7885 16.7443 42.6765 16.8165C42.5644 16.8887 42.3652 17.0471 42.4275 17.1124C42.4897 17.1776 42.9037 16.8864 42.9037 16.8864C42.9753 17.0937 42.443 17.5014 42.443 17.5014C42.8134 17.5503 43.8437 17.0821 43.8437 17.0821C43.7596 17.4805 43.3706 17.7903 42.8912 17.9697C42.4119 18.1491 42.4368 18.177 42.4368 18.177C42.5208 18.2446 43.1838 18.0513 43.1838 18.0513C42.9846 18.4962 42.2936 18.8014 42.2936 18.8014C42.4835 18.9622 42.7418 18.7758 43.0001 18.5988C43.2585 18.4217 43.6102 18.2703 43.9992 18.1398C44.3883 18.0094 44.6622 18.1072 44.6622 18.1072C44.9859 18.0047 45.2598 18.1491 45.2598 18.1491C45.8823 18.2004 45.9446 18.4264 45.9446 18.4264C46.013 18.4427 46.066 18.4706 46.2247 18.5871C46.3834 18.7036 46.3741 19.0647 46.3679 19.2418C46.3616 19.4188 46.3118 19.4188 46.2807 19.4678C46.2496 19.5167 46.2464 19.5726 46.2464 19.6402C46.2464 19.7077 46.0908 20.1271 45.129 20.1317C44.1673 20.1363 43.6713 20.1317 43.6713 20.1317C43.592 20.1317 43.497 20.1783 43.497 20.1783C43.0924 20.3787 43.3061 20.0417 42.8247 20.4377C42.3434 20.8337 42.0985 20.7654 42.0985 20.7654C42.0196 20.8601 41.5154 21.3291 41.227 21.5155C40.9385 21.7019 40.9904 21.6848 41.2415 21.7935C41.4926 21.9023 41.8723 21.7935 41.8723 21.7935C41.6295 21.9551 41.7976 22.0296 41.7976 22.0296C42.1172 21.8354 42.3101 21.9069 42.3101 21.9069C42.4118 22.1849 42.0466 22.6245 42.0466 22.6245C42.1877 22.6431 42.4533 22.6245 42.4533 22.6245C42.389 22.8124 42.1234 23.019 41.9283 23.0826C41.7332 23.1463 41.7685 23.1711 41.8266 23.2892C41.8847 23.4072 41.8349 23.5268 41.8349 23.5268C41.4946 23.2907 41.4822 23.5019 41.4822 23.5019C41.4429 23.7817 41.449 24.1822 41.449 24.1822C41.2083 24.0611 41.1958 24.2226 41.1958 24.2226C41.1336 24.4773 40.8389 24.7724 40.8389 24.7724C40.8264 24.614 40.6812 24.5736 40.6812 24.5736C40.5277 24.8686 40.2454 25.0457 40.2454 25.0457C40.2081 25.3004 40.2787 25.6577 40.2787 25.6577C40.0961 25.6204 40.0297 25.6235 40.0006 25.667C39.9715 25.7105 40.0421 25.7322 40.0421 25.7322L42.4201 25.7912C42.4534 25.7944 42.5944 25.8099 42.5986 26.0677C42.6027 26.3255 42.3911 26.3379 42.3911 26.3379L39.789 26.2758C39.789 26.2758 39.8014 26.3472 39.6645 26.4187C39.5275 26.4902 39.5731 26.3379 39.5358 26.6578C39.4984 26.9778 38.9796 26.633 38.9796 26.633C38.8966 26.7572 38.6933 26.9188 38.6933 26.9188C38.5771 26.5677 38.4567 26.4591 38.27 26.7635C38.0832 27.0679 38.6061 27.0151 38.6061 27.0151C38.6061 27.0151 41.6606 26.5647 41.8266 26.5492C41.9926 26.5336 42.1752 26.5429 42.2499 26.7759C42.3246 27.0089 41.8805 27.0462 41.8805 27.0462L38.7472 27.3878C38.6808 27.5742 38.4194 27.5587 38.4194 27.5587C38.4401 27.7357 38.2534 27.8476 38.1579 27.9128C38.0624 27.9781 37.7637 27.947 37.7637 27.947C37.3985 28.1955 37.22 27.9998 37.22 27.9998C36.9835 28.1023 36.834 28.0588 36.639 27.9749C36.4439 27.891 36.4606 27.655 36.4606 27.655L34.4831 27.86C34.3897 27.8926 34.3254 27.9547 34.3254 27.9547C34.3959 28.0448 34.1837 28.2541 34.1837 28.2541C34.2429 28.2949 34.3565 28.409 34.372 28.656C34.3885 28.9172 34.053 28.9612 34.2211 29.1429C34.3891 29.3246 34.6957 29.1744 35.0381 29.0101C35.3805 28.8459 35.7166 28.8669 35.8629 28.868C36.0092 28.8691 36.417 28.9717 36.6706 29.0614C36.9243 29.151 37.0114 29.0975 37.0285 28.967C37.0456 28.8365 37.1593 28.7993 37.1593 28.7993C37.1281 28.9274 37.1967 28.9845 37.1967 28.9845C37.2947 28.9915 37.4659 28.896 37.4659 28.896C37.4503 28.9903 37.3258 29.0497 37.3258 29.0497C37.0768 29.2163 37.4192 29.1546 37.4192 29.1546C38.1009 29.0148 38.3436 29.0288 38.521 29.0474C38.6985 29.0661 39.5357 29.4225 39.5357 29.4225C39.5669 29.3386 39.5451 29.1313 39.5451 29.1313C39.7599 29.1896 39.847 29.313 39.847 29.313C39.9279 29.2245 39.875 29.0754 39.875 29.0754C40.566 29.4621 39.7319 29.6368 39.5109 29.7114C39.2899 29.7859 39.293 29.8768 39.293 29.8768C39.4767 29.8185 39.6042 29.7975 39.7568 29.7859C39.9093 29.7743 39.8564 29.7836 40.2206 29.7114C40.5848 29.6391 40.7715 29.7929 40.7715 29.7929C40.4665 29.8092 40.3763 29.9 40.3763 29.9C40.5692 30.0328 40.3856 30.1447 40.3856 30.1447C40.1086 29.7952 39.872 30.1587 39.872 30.1587C39.9669 30.1447 40.2456 30.2029 40.3249 30.253C40.3863 30.2918 40.5303 30.3625 40.7093 30.4452C40.962 30.562 40.9147 30.4871 41.1108 30.5617C41.3068 30.6363 41.2322 30.8249 41.2322 30.8249C41.1482 30.6712 40.9676 30.6176 40.9676 30.6176C40.9521 30.8249 40.7435 30.8599 40.7435 30.8599C40.9988 30.5756 40.4478 30.4522 40.1895 30.4568C39.9312 30.4615 39.7382 30.6269 39.7382 30.6269C40.258 31.1138 40.619 30.9554 40.619 30.9554C40.5537 31.1324 40.1241 31.0625 40.1241 31.0625C40.3234 31.2139 40.3016 31.3211 40.3016 31.3211C40.1957 31.2186 40.0214 31.2699 39.648 31.0276C39.2745 30.7853 38.9414 30.8646 38.9414 30.8646C39.3056 31.2536 38.8076 31.4842 38.8076 31.4842C38.6239 31.5891 38.8854 31.7312 38.8854 31.7312C38.6551 31.7731 38.6239 31.5425 38.6239 31.5425C38.5025 31.5192 38.3282 31.666 38.3282 31.666C38.3407 31.4283 38.6519 31.5472 38.6613 31.3002C38.6706 31.0532 38.3718 30.8623 37.4909 30.9834C36.6101 31.1045 36.3517 30.8227 36.3517 30.8227C36.277 30.825 36.2614 30.8995 36.2614 30.8995C36.4077 31.0393 36.4731 31.0975 36.4482 31.1954C36.4233 31.2933 36.4949 31.3259 36.4949 31.3259C36.333 31.3165 36.3206 31.1232 36.3206 31.1232C36.3175 31.2025 36.2832 31.2095 36.2303 31.2933C36.1774 31.3771 36.2272 31.4843 36.2272 31.4843C36.1587 31.4237 36.0342 31.3515 36.1525 31.1791C36.2436 31.0464 35.9626 30.8763 35.9626 30.8763C35.8537 30.7645 35.5642 30.8693 35.5642 30.8693C34.9635 30.9881 34.6118 30.6084 34.6118 30.6084C34.5433 30.6084 34.4126 30.5711 34.4126 30.5711C33.7776 30.8553 33.2205 30.2403 33.2205 30.2403C32.7412 30.3312 32.5233 30.1005 32.377 29.8745C32.2307 29.6485 32.2027 29.6299 32.0097 29.5135C31.8167 29.397 31.6363 29.0674 31.8136 28.8938C31.9682 28.7424 31.9226 28.7074 31.9226 28.7074C31.6736 28.2889 32.3666 28.1539 32.3791 28.0537C32.3972 27.9076 32.542 27.8152 32.6976 27.8058C32.8532 27.7965 32.8532 27.8105 32.9559 27.7057C33.0586 27.6008 33.2547 27.7313 33.2547 27.7313C33.2952 27.701 33.6376 27.4354 33.9426 27.5729C34.2477 27.7104 34.4998 27.6125 34.4998 27.6125C34.7146 27.5659 36.498 27.3236 36.498 27.3236C36.6132 27.1512 36.6941 26.9439 37.1859 26.8321C37.6777 26.7203 38.0512 26.4151 38.0512 26.4151C37.964 26.3219 37.8178 26.3266 37.7431 26.3172C37.6684 26.3079 37.5128 26.1751 37.5128 26.1751C37.4225 26.2147 37.3762 26.1953 36.7315 26.5874C36.1557 26.9377 36.1391 26.2427 36.1391 26.2427L34.8827 26.245C34.8609 26.5105 34.6586 26.6154 34.6586 26.6154L34.2011 26.6387C33.9458 26.5035 33.9427 26.054 33.9427 26.054C32.5608 26.0749 31.792 26.5688 31.792 26.5688C30.2263 25.7674 29 25.5857 29 25.5857C30.9018 25.3783 31.9071 24.8495 31.9071 24.8495C32.956 25.4785 33.9427 25.4948 33.9427 25.4948C33.9801 25.1151 34.2353 25.0219 34.2353 25.0219L34.5247 25.0376Z" fill="black"/>
<path d="M32.2636 28.1933C31.8662 28.4264 31.9381 28.5536 31.9727 28.6252C32.008 28.6982 32.0121 28.7681 31.9042 28.8768C31.7963 28.9856 31.8067 29.0233 31.8067 29.0233C31.8233 29.4096 32.0969 29.4916 32.211 29.5863C32.3065 29.6657 32.4686 29.9143 32.4686 29.9143C32.672 30.2063 32.8877 30.2093 33.0475 30.2093C33.2073 30.2093 33.1931 30.1958 33.1118 30.1239C33.0354 30.0563 32.8753 29.9252 32.8753 29.9252C33.089 29.9997 33.2923 30.2233 33.2923 30.2233C33.6961 30.6652 34.0684 30.607 34.2323 30.5852C34.3962 30.5635 34.3672 30.4687 34.3672 30.4687C34.3585 30.453 34.1991 30.4407 34.1991 30.4407C33.5932 30.3833 33.4106 29.9857 33.4106 29.9857C33.7758 30.3445 34.3485 30.4175 34.5249 30.4109C34.7012 30.4042 34.6909 30.4547 34.6535 30.4641C34.6161 30.4734 34.5622 30.4641 34.4813 30.4578C34.4003 30.4516 34.4003 30.4718 34.419 30.506C34.4377 30.5401 34.5139 30.5436 34.6104 30.5401C34.7069 30.5366 34.6291 30.5471 34.8796 30.7416C35.1302 30.9362 35.7543 30.7789 35.7543 30.7789C35.3512 30.6788 35.2952 30.497 35.2952 30.497C34.7474 30.5611 34.5248 30.2326 34.5248 30.2326C34.4268 30.1348 34.1341 29.9835 34.1341 29.9835C33.8245 29.8506 33.7762 29.5704 33.7762 29.5704C33.8634 29.6944 34.033 29.8366 34.2478 29.896C34.4625 29.9554 34.5232 29.9868 34.5232 29.9868C34.4205 30.002 34.3598 29.9682 34.3598 29.9682C34.145 29.9053 34.2664 29.9927 34.2664 29.9927C34.503 30.1814 34.5684 30.1674 34.5684 30.1674C35.1893 30.2315 34.8812 29.9834 34.8812 29.9834C35.3232 30.0883 35.3963 29.9228 35.3963 29.9228C35.4881 30.1173 35.8227 30.0474 35.8227 30.0474C35.3776 30.2617 35.7154 30.2005 35.7154 30.2005C36.1651 30.1162 36.2533 30.2307 36.2533 30.2307C36.375 30.3439 36.4982 30.3282 36.4982 30.3282C36.4982 30.3282 36.5791 30.3305 36.7503 30.3648C36.9215 30.3991 37.1829 30.5448 37.4319 30.514C37.6809 30.4832 37.7214 30.5613 37.7214 30.5613C37.6747 30.5452 37.5658 30.5286 37.3728 30.6148C37.1798 30.701 36.8468 30.7289 36.3612 30.6148C35.8757 30.5006 35.8383 30.5146 35.8383 30.5146C35.9535 30.6008 36.0562 30.722 36.078 30.8058C36.0998 30.8896 36.1838 30.8943 36.1838 30.8943C36.2181 30.7872 36.3643 30.7406 36.3643 30.7406C36.4601 30.8291 36.7161 30.9456 36.7161 30.9456C36.7441 30.8873 36.7161 30.8466 36.7161 30.8466C36.9028 31.0248 37.1207 30.9712 37.1207 30.9712C37.1797 30.9294 37.1612 30.8291 37.1612 30.8291C37.2359 30.8267 37.2483 30.8733 37.3012 30.9083C37.3541 30.9433 37.5222 30.9199 37.5222 30.9199C37.4599 30.8943 37.4163 30.7988 37.4163 30.7988C37.6622 30.6288 38.1945 30.7033 38.1945 30.7033C38.5789 30.7708 38.5306 31.0224 38.5306 31.0224C38.6084 31.0597 38.7111 31.1762 38.7111 31.1762C38.7438 31.0877 38.7143 30.998 38.7143 30.998C38.8901 31.0818 38.9275 31.2868 38.9275 31.2868C39.1313 31.0539 38.7329 30.7918 38.7329 30.7918C38.9259 30.7673 39.1391 30.7848 39.2683 30.8034C39.3975 30.8221 39.5827 30.8897 39.7336 31.0155C39.8846 31.1412 40.1554 31.1995 40.1554 31.1995C40.1471 31.1475 40.0029 31.0597 39.9702 31.0411C39.9376 31.0224 39.9236 30.977 39.9236 30.977C40.0558 31.0003 40.1476 30.9887 40.1476 30.9887C39.6823 30.7044 39.5656 30.5694 39.5656 30.5694C39.7399 30.5915 39.8364 30.4831 39.8364 30.4831C39.4691 30.4913 39.4567 30.3958 39.4567 30.3958C39.5018 30.4086 39.6683 30.4494 39.8878 30.4063C40.1072 30.3632 40.4122 30.4074 40.4122 30.4074C40.2535 30.1523 39.6387 30.1954 39.4427 30.2059C39.2466 30.2164 39.1703 30.1908 39.1703 30.1908C39.2015 30.1756 39.2342 30.143 39.3882 30.1419C39.5423 30.1407 39.6932 30.1535 39.8675 30.0335C40.0418 29.9135 40.281 29.9531 40.281 29.9531C40.2229 29.8382 39.9469 29.7978 39.7041 29.9531C39.4614 30.1084 39.2414 30.0588 39.2414 30.0588C39.6253 30.0044 39.7373 29.8693 39.7373 29.8693C39.6211 29.8413 39.5568 29.8786 39.3265 29.9236C39.0961 29.9686 39.0339 29.8895 39.0339 29.8895C39.287 29.7388 39.4634 29.6782 39.4634 29.6782C39.2476 29.6332 39.0484 29.5411 39.0484 29.5411C38.8243 29.7518 38.65 29.8708 38.2205 29.6456C37.7909 29.4204 37.5669 29.4468 37.5669 29.4468C37.9445 29.2232 38.3325 29.3195 38.6148 29.4887C38.897 29.658 38.9779 29.5198 38.9779 29.5198C38.8887 29.4639 38.9011 29.4157 38.9011 29.4157C39.5859 29.7652 39.8826 29.5478 40.0341 29.4452C40.1856 29.3427 39.9656 29.2061 39.9656 29.2061C39.9511 29.4282 39.671 29.5291 39.451 29.4546C39.2311 29.3801 39.0277 29.2853 38.7113 29.1533C38.3949 29.0213 37.9985 29.0896 37.6292 29.1673C37.2598 29.2449 37.2121 29.2077 37.1789 29.1782C37.1456 29.1487 37.127 29.0586 36.9382 29.1363C36.7493 29.2139 36.3094 29.0074 36.0355 28.9421C35.7616 28.8769 35.3132 28.9126 34.9254 29.1254C34.5375 29.3382 34.3465 29.2854 34.2302 29.2325C34.114 29.1797 34.0414 29.0338 34.1659 28.9033C34.2905 28.7728 34.3008 28.7371 34.2905 28.5491C34.2801 28.3612 34.0954 28.2494 34.0954 28.2494C34.2655 28.0739 34.3071 28.0351 34.2489 27.959C34.1909 27.8829 34.2822 27.8844 34.3797 27.8409C34.4772 27.7975 34.4336 27.7912 34.4108 27.7338C34.388 27.6763 34.332 27.6857 34.332 27.6857C34.1058 27.695 33.9813 27.6329 33.9813 27.6329C33.6067 27.4605 33.2592 27.7959 33.2592 27.7959C33.0464 27.6329 32.9977 27.7384 32.9603 27.7788C32.923 27.8192 32.8483 27.8472 32.7487 27.8565C32.6581 27.8649 32.5211 27.9004 32.4737 27.985C32.4737 27.985 32.4317 28.0531 32.484 28.1275C32.484 28.1275 32.5422 28.2152 32.4364 28.3212C32.3306 28.4272 32.2932 28.4528 32.3259 28.553C32.3586 28.6531 32.3492 28.73 32.3088 28.7952C32.3088 28.7952 32.2606 28.7393 32.273 28.6706C32.2855 28.6019 32.2855 28.5623 32.2699 28.525C32.2699 28.525 32.1657 28.6275 32.147 28.7009C32.147 28.7009 32.1034 28.5879 32.2543 28.4365C32.4053 28.2851 32.474 28.2097 32.4318 28.1511C32.4006 28.108 32.2902 28.1778 32.2636 28.1933Z" fill="#FFC221"/>
<path d="M32.6925 29.8632C32.6925 29.8632 32.5037 29.7187 32.5265 29.5184C32.5494 29.318 32.5456 29.2932 32.5246 29.2512C32.5246 29.2512 32.4902 29.2712 32.4912 29.3491C32.4922 29.4222 32.4819 29.4982 32.4746 29.5121C32.4746 29.5121 32.3771 29.346 32.3377 29.3149C32.3377 29.3149 32.3709 29.141 32.3169 29.0664C32.263 28.9919 32.2108 28.9872 32.1489 29.0105C32.0632 29.0427 31.9985 29.1223 32.2864 29.3584C32.2864 29.3584 32.3937 29.4438 32.4685 29.6333C32.5432 29.8228 32.6677 29.8523 32.6925 29.8632ZM33.6284 29.3087C33.6284 29.3087 33.6139 29.1953 33.7156 28.995C33.8173 28.7946 33.7563 28.6458 33.7334 28.596C33.7106 28.5463 33.6969 28.5648 33.7994 28.4787C33.9257 28.3727 33.7508 28.239 33.9583 28.0532C33.9583 28.0532 34.0953 27.9358 34.1264 27.8876C34.1264 27.8876 33.9065 28.0057 33.7633 28.0647C33.6201 28.1237 33.0723 28.3923 33.1927 28.5725C33.313 28.7526 33.3006 28.762 33.2819 28.8365C33.2819 28.8365 32.9561 28.6641 33.0702 28.3846C33.0702 28.3846 33.122 28.272 33.2591 28.1454C33.3836 28.0305 33.3088 28.1703 33.562 28.0258C33.562 28.0258 33.7633 27.9062 33.8691 27.7447C33.8691 27.7447 33.7363 27.8286 33.6885 27.8426C33.6885 27.8426 33.3959 27.8953 33.2777 28.0196C33.1594 28.1438 32.9083 28.3597 32.9934 28.6004C32.9934 28.6004 32.7008 28.5647 32.6344 28.2603C32.6344 28.2603 32.0928 28.9281 33.2299 29.2387C33.23 29.2388 33.4375 29.294 33.6284 29.3087Z" fill="black"/>
<path d="M38.6301 27.0759C39.0548 27.0117 41.5159 26.6398 41.7396 26.6171C41.9844 26.5923 42.0782 26.5596 42.1587 26.7569C42.25 26.9805 41.8226 26.9836 41.8226 26.9836L38.8884 27.3163C38.7445 27.3329 38.7123 27.278 38.7123 27.278C38.6869 27.2311 38.6379 27.1687 38.604 27.1278C38.604 27.1278 38.5654 27.0857 38.6301 27.0759Z" fill="#FFC221"/>
<path d="M32.6199 28.4108C32.6199 28.4108 32.3024 29.0794 33.5505 29.2448C33.5505 29.2448 33.5536 29.1703 33.6034 29.0654C33.6532 28.9606 33.7622 28.7486 33.6594 28.6111C33.5567 28.4737 33.7435 28.5459 33.7715 28.3665C33.7995 28.1871 33.7528 28.2127 33.84 28.0963C33.84 28.0963 33.4478 28.2384 33.2984 28.4108C33.149 28.5832 33.5007 28.7136 33.2921 28.9023C33.2921 28.9023 33.1178 28.8394 33.0151 28.6507C33.0152 28.6507 32.7724 28.6554 32.6199 28.4108Z" fill="#5A3719"/>
<path d="M33.84 29.2321C33.84 29.2321 34.1481 29.4988 34.5154 29.4872C34.8827 29.4755 35.0383 29.3777 35.1317 29.2321C35.1317 29.2321 35.2031 29.3449 35.2033 29.4196C35.2033 29.4196 35.5207 29.1563 36.0686 29.3846C36.6164 29.6129 36.4483 29.5502 36.5697 29.5664C36.5697 29.5664 36.3368 29.525 35.804 29.769C35.2562 30.0199 33.8275 29.9344 33.84 29.2321Z" fill="black"/>
<path d="M33.3295 28.0522C33.3295 28.0522 33.468 28.0732 33.6065 27.9171C33.6065 27.9171 33.4198 27.952 33.3295 28.0522ZM32.2829 29.2939C32.2829 29.2939 32.0253 29.0912 32.1903 29.0516C32.1903 29.0516 32.3078 29.033 32.2829 29.2939Z" fill="#5A3719"/>
<path d="M37.8893 30.5613C37.8893 30.5613 38.0263 30.3165 38.4216 30.3165C38.8169 30.3165 38.8636 30.4983 39.3616 30.5332C39.3616 30.5332 38.7636 30.7017 38.3469 30.5472C38.129 30.4664 37.9329 30.5336 37.8893 30.5613Z" fill="black"/>
<path d="M33.9769 29.4103C33.9769 29.4103 34.5683 29.7691 35.0943 29.38C35.0943 29.38 35.1379 29.422 35.1753 29.5175C35.1753 29.5175 35.5736 29.133 36.2864 29.5477C36.2864 29.5477 36.1988 29.538 35.8631 29.6829C35.4258 29.8716 34.3318 29.9951 33.9769 29.4103Z" fill="#5A3719"/>
<path d="M36.2584 29.7738C36.2584 29.7738 36.8248 29.8395 37.3042 29.8111C37.5987 29.7936 37.9174 29.7397 37.7586 29.8395C37.5999 29.9392 37.6777 29.9485 38.3562 29.8857C39.0348 29.8228 38.35 30.0138 38.8169 30.0743C38.8169 30.0743 37.6853 30.652 36.2584 29.7738Z" fill="black"/>
<path d="M37.7462 29.4127C37.7462 29.4127 38.0792 29.2915 38.3874 29.4359C38.6955 29.5804 38.6489 29.5921 38.8543 29.613C38.8543 29.613 38.7111 29.818 38.3719 29.6526C38.0326 29.4872 37.9427 29.4553 37.7462 29.4127ZM38.1166 30.4354C38.1166 30.4354 38.4434 30.2724 38.8046 30.4418C38.8498 30.463 38.9483 30.5039 39.041 30.5239C39.041 30.5239 38.7643 30.6097 38.4807 30.5215C38.3629 30.4849 38.2691 30.4564 38.1166 30.4354ZM36.5012 29.8506C36.5012 29.8506 37.2295 29.9181 37.6248 29.8394C37.6248 29.8394 37.1672 30.0603 38.3158 29.9578C38.3158 29.9578 38.571 29.9298 38.5398 29.9694C38.5087 30.009 38.4901 30.0393 38.6145 30.0765C38.6146 30.0766 37.7618 30.4586 36.5012 29.8506Z" fill="#5A3719"/>
<path d="M32.8625 29.2321C32.8625 29.2321 32.8687 29.288 33.0306 29.3602C33.1924 29.4324 33.2796 29.5617 33.3138 29.6316C33.3481 29.7015 33.4305 29.8061 33.5644 29.8394C33.5644 29.8394 32.9934 29.9586 32.7375 29.6615C32.7375 29.6615 32.5435 29.4476 32.8563 29.2321" fill="black"/>
<path d="M37.3572 30.5495C37.3572 30.5495 37.13 30.5355 36.8219 30.4283C36.5137 30.3212 36.4328 30.412 36.2585 30.2816C36.0842 30.1511 35.7325 30.2326 35.6671 30.2419C35.6018 30.2513 35.415 30.2419 35.6485 30.0905C35.6485 30.0905 35.4617 30.0859 35.3901 29.9927C35.3901 29.9927 35.3061 30.0742 34.9917 30.0439C34.9917 30.0439 35.1318 30.2639 34.5684 30.2005C34.5684 30.2005 34.7365 30.3957 34.9388 30.4353C35.1412 30.4749 35.2255 30.4618 35.3559 30.4237C35.3559 30.4237 35.3185 30.5937 35.58 30.659C35.8414 30.7242 35.8943 30.7754 36.0282 30.829C36.0282 30.829 36.0469 30.7195 35.6983 30.4656C35.6983 30.4656 35.885 30.4562 36.1527 30.5215C36.4203 30.5867 37.0272 30.7428 37.3572 30.5495ZM37.4983 30.8104C37.4983 30.8104 37.5543 30.9408 37.7265 30.9113C37.8988 30.8818 38.182 30.8313 38.4559 30.9711C38.4559 30.9711 38.5026 30.7381 37.9527 30.7218C37.9527 30.7218 37.6083 30.7405 37.4983 30.8104ZM32.842 29.3147C32.842 29.3147 32.6303 29.4887 32.8222 29.6696C32.9976 29.8349 33.2684 29.8203 33.398 29.8156C33.398 29.8156 33.3202 29.7714 33.2518 29.6689C33.1833 29.5664 33.1809 29.4971 33.037 29.4312C32.8876 29.3629 32.8699 29.3451 32.842 29.3147ZM32.6199 28.4109C32.6199 28.4109 32.3024 29.0795 33.5505 29.2449C33.5505 29.2449 33.5536 29.1703 33.6034 29.0655C33.6532 28.9606 33.7622 28.7487 33.6594 28.6112C33.5567 28.4737 33.7435 28.546 33.7715 28.3666C33.7995 28.1872 33.7528 28.2128 33.84 28.0963C33.84 28.0963 33.4478 28.2384 33.2984 28.4108C33.149 28.5832 33.5007 28.7137 33.2921 28.9024C33.2921 28.9024 33.1178 28.8395 33.0151 28.6508C33.0152 28.6508 32.7724 28.6555 32.6199 28.4109Z" fill="#5A3719"/>
<path d="M35.9005 29.9533C35.9005 29.9533 36.162 29.9114 36.828 30.1607C37.4941 30.41 37.7711 30.3471 37.8707 30.3401C37.8707 30.3401 37.495 30.5364 36.9131 30.2801C36.3986 30.0535 36.3643 30.1397 35.9005 29.9533Z" fill="black"/>
<path d="M40.0702 29.804C40.0702 29.804 40.2223 29.7988 40.3109 29.8405C40.3109 29.8405 40.369 29.7908 40.508 29.7761C40.508 29.7761 40.4167 29.6844 40.0702 29.804ZM39.6148 29.4352C39.6148 29.4352 39.7673 29.4282 39.813 29.3552C39.813 29.3552 39.7362 29.2574 39.6189 29.2108C39.6189 29.2107 39.6428 29.3148 39.6148 29.4352ZM34.4967 27.733C34.4967 27.733 34.4687 27.6585 34.6274 27.6351C34.7862 27.6119 36.8612 27.316 36.8612 27.316C36.8612 27.316 36.9712 27.3158 36.9867 27.3882C37.0036 27.4665 36.9743 27.525 36.4732 27.5836C35.9721 27.6421 34.6492 27.8075 34.6492 27.8075C34.6492 27.8075 34.5091 27.8309 34.4967 27.733Z" fill="#FFC221"/>
<path d="M36.5209 27.6437C36.5209 27.6437 36.5209 27.9372 36.8197 27.9807C37.1096 28.0229 37.2093 27.9626 37.2866 27.81C37.3069 27.7699 37.3958 27.4634 37.2671 27.44C37.2165 27.4308 37.1267 27.4361 37.0625 27.4635C36.9625 27.5062 36.8698 27.5563 36.9028 27.6064C36.9733 27.7135 36.9871 27.7384 36.9608 27.7462C36.8892 27.7674 36.8364 27.7044 36.8218 27.6608C36.8036 27.6063 36.8613 27.5713 36.6662 27.6002C36.5864 27.612 36.5209 27.6095 36.5209 27.6437Z" fill="#FFC221"/>
<path d="M37.7638 27.4181C37.9165 27.4357 37.9049 27.7587 37.7223 27.9047C37.5257 28.0619 37.338 28.0056 37.338 28.0056C37.2388 27.9637 37.2513 27.9777 37.328 27.8612C37.4007 27.751 37.435 27.6025 37.3944 27.4993C37.3815 27.4663 37.4173 27.4396 37.4679 27.4287C37.468 27.4286 37.6062 27.3999 37.7638 27.4181Z" fill="#FFC221"/>
<path d="M37.8966 27.4465C37.8966 27.4465 38.0056 27.5836 37.8696 27.8363C37.8696 27.8363 37.8094 27.9108 37.9443 27.8999C38.0792 27.889 38.3801 27.7446 38.3489 27.5598C38.3489 27.5598 38.3385 27.5148 38.2597 27.5194C38.1808 27.5241 38.2452 27.4759 38.2784 27.4666C38.3116 27.4573 38.4143 27.4193 38.1477 27.2476C38.1477 27.2476 38.1037 27.208 38.0522 27.2243C38.0116 27.2372 37.8696 27.2955 37.8696 27.3781C37.8696 27.412 37.8966 27.4465 37.8966 27.4465Z" fill="#FFC221"/>
<path d="M38.1882 27.2143C38.1882 27.2143 38.4009 27.3667 38.3999 27.412C38.3988 27.4573 38.3801 27.5187 38.4362 27.5133C38.4922 27.5078 38.7226 27.4589 38.6592 27.3067C38.596 27.1545 38.5326 27.1009 38.4258 27.0637C38.3189 27.0264 38.292 27.0769 38.2007 27.146C38.2007 27.146 38.1343 27.1863 38.1882 27.2143ZM37.0376 27.4294C37.0376 27.4294 37.0729 27.316 36.882 27.2741C36.882 27.2741 36.9629 27.2073 37.1247 27.2431C37.2855 27.2785 37.2683 27.3844 37.2671 27.3983C37.2671 27.3983 37.1413 27.3936 37.0376 27.4294ZM37.4526 27.403C37.4526 27.403 37.6738 27.3642 37.7722 27.3766C37.7722 27.3766 37.6632 27.1328 37.3686 27.2158C37.3686 27.2158 37.4744 27.3355 37.4526 27.403ZM37.8313 27.3424C37.8313 27.3424 37.8313 27.2679 38.0191 27.1933C38.0191 27.1933 37.9279 27.1075 37.8012 27.1156C37.656 27.125 37.6269 27.1778 37.6269 27.1778C37.6269 27.1778 37.7846 27.2325 37.8313 27.3424ZM37.9049 27.0877C37.9049 27.0877 38.0212 27.1172 38.0938 27.1793C38.0938 27.1793 38.2039 27.0591 38.2971 27.0333C38.2971 27.0333 38.1145 26.9355 37.9049 27.0877Z" fill="#FFC221"/>
<path d="M31.795 26.5007C31.795 26.5007 32.3077 26.0663 32.595 26.1186C32.8821 26.1709 32.7381 26.1349 33.0525 26.086C33.3669 26.0371 33.6906 26.0045 33.8213 26.0208C33.8213 26.0208 33.4416 25.7482 32.763 25.7529C32.763 25.7529 32.2837 25.9183 31.9537 26.1373C31.9537 26.1373 31.3188 25.7831 30.662 25.9951C30.662 25.9951 31.3748 26.2537 31.795 26.5007Z" fill="#5A3719"/>
<path d="M37.2466 27.2531L37.3322 27.2387C37.3322 27.2387 37.4767 27.4176 37.3717 27.4196C37.2897 27.4213 37.3228 27.3944 37.3073 27.3424C37.2917 27.2903 37.2638 27.2671 37.2466 27.2531ZM36.6024 27.2671C36.6024 27.2671 36.551 27.3309 36.6475 27.316C36.765 27.2978 36.7424 27.3199 36.8716 27.2325C36.8716 27.2325 36.951 27.1482 37.0988 27.2007C37.0988 27.2007 37.2233 27.2414 37.3244 27.1925C37.4256 27.1436 37.4489 27.1471 37.5034 27.1518C37.5578 27.1564 37.5542 27.1682 37.6269 27.1151C37.6995 27.0621 37.8255 27.1028 37.9049 27.0364C37.9843 26.97 38.0839 27.0259 37.9049 26.8978C37.9049 26.8978 37.8675 26.8605 37.8707 26.8291C37.8707 26.8291 37.9391 26.8489 37.9936 26.8978C38.0481 26.9467 38.1383 26.9316 38.1539 26.9234C38.1539 26.9234 38.1633 26.7638 38.322 26.6171C38.4807 26.4703 38.4823 26.4587 38.3889 26.4575C38.2956 26.4563 38.1383 26.4202 38.0855 26.4575C38.0326 26.4947 37.5672 26.7999 37.2964 26.8511C37.0257 26.9025 36.7767 26.9793 36.6024 27.2671ZM29.3766 25.5975C29.3766 25.5975 30.2076 25.8118 30.3944 25.9019C30.3944 25.9019 30.439 25.7629 30.0613 25.6542C30.0613 25.6542 30.9785 25.6262 31.9496 26.0673C31.9496 26.0673 32.4177 25.6659 33.9241 25.7902C33.9241 25.7902 33.9271 25.6571 33.9375 25.5548C33.9375 25.5548 32.8792 25.5238 31.9081 24.9336C31.9081 24.9335 31.0387 25.3614 29.3766 25.5975ZM33.9956 25.999C33.9375 25.1494 34.2632 25.0734 34.2632 25.0734C34.2632 25.0734 34.4167 25.0742 34.5828 25.0998C34.5828 25.0998 34.3255 25.4057 34.3939 26.013C34.3939 26.013 34.4209 26.1108 34.203 26.1108C33.9886 26.1108 33.9956 25.999 33.9956 25.999Z" fill="#FFC221"/>
<path d="M34.2176 26.5613C34.2176 26.5613 34.0599 26.3997 34.0433 26.2134C34.0433 26.2134 34.0391 26.1652 34.1989 26.1699C34.3587 26.1745 34.3795 26.1545 34.4188 26.2475C34.4571 26.3379 34.5578 26.5286 34.5828 26.5504L34.2176 26.5613Z" fill="#5A3719"/>
<path d="M34.5588 26.1371C34.5444 26.026 34.5388 25.9312 34.5413 25.8142C34.5517 25.3405 34.6303 25.3826 34.6615 25.4417L34.8235 25.4446C34.8235 25.4446 34.7052 24.9104 34.5662 25.2225C34.4296 25.5292 34.4396 25.7288 34.4562 25.9711C34.4658 26.1106 34.4842 26.1975 34.4998 26.2498L34.5588 26.1371Z" fill="#FFC221"/>
<path d="M36.3891 26.1384C36.3891 26.1384 36.7019 26.1861 36.2226 26.3003C36.2226 26.3003 36.2459 26.8795 36.8124 26.4738C36.8124 26.4738 37.147 26.2599 37.3789 26.1729C37.3789 26.1729 37.4956 26.1325 37.4816 26.0452C37.4816 26.0452 37.4909 25.9423 37.3695 25.9624C37.3695 25.9624 37.2739 25.9647 37.2123 25.9422C37.2123 25.9422 37.1454 25.8634 37.1003 25.8937C37.0551 25.924 36.9493 25.9065 37.0318 26.0067C37.1143 26.1069 37.1392 26.0812 37.1797 26.0521C37.2201 26.023 37.3991 25.952 37.2341 26.0999C37.0692 26.2478 36.94 26.0183 36.8871 25.9764L36.3891 26.1384ZM34.8235 26.204L34.6845 26.2009C34.6845 26.2009 34.6098 26.3127 34.5588 26.1371L34.4998 26.2497C34.4998 26.2497 34.672 26.8716 34.8235 26.204Z" fill="#5A3719"/>
<path d="M34.6264 25.4865C34.6264 25.4865 34.5558 25.8934 34.6451 26.145L36.1495 26.173C36.1495 26.173 36.1308 25.881 36.1536 25.4866H35.9399C35.9399 25.4866 35.9109 25.8142 35.9379 26.0161L35.9026 26.0168C35.9026 26.0168 35.8756 25.7335 35.9046 25.4866H35.7283C35.7283 25.4866 35.6992 25.7894 35.722 26.0192H35.6888C35.6888 26.0192 35.6639 25.7537 35.693 25.4866H35.5187C35.5187 25.4866 35.4866 25.7608 35.5209 26.0155L35.4793 26.0146C35.4793 26.0146 35.444 25.7366 35.4813 25.4866H35.2884C35.2884 25.4866 35.2407 25.7428 35.2863 26.0177H35.2468C35.2468 26.0177 35.2033 25.7552 35.251 25.4866H35.058C35.058 25.4866 35.0124 25.777 35.0518 26.0177H35.0144C35.0144 26.0177 34.9832 25.7366 35.0248 25.4866H34.8442C34.8442 25.4866 34.7965 25.7319 34.8359 26.0177H34.7965C34.7965 26.0177 34.7674 25.8049 34.8048 25.4866H34.6264V25.4865ZM36.2159 26.2289C36.2159 26.2289 36.1742 25.4927 36.3155 25.3033C36.4567 25.1139 36.4856 25.1511 36.7263 25.3033C36.967 25.4555 37.2783 25.6201 37.3281 25.6387C37.3779 25.6574 37.4485 25.676 37.4485 25.8096C37.4485 25.9432 37.4734 25.9835 37.2658 25.8158C37.2348 25.7907 37.1377 25.7019 37.0677 25.6795C36.8817 25.6202 37.1124 25.7212 37.1787 25.8158C37.2349 25.896 37.2783 25.8872 37.1331 25.9245C36.9878 25.9619 36.4856 26.1295 36.2159 26.2289Z" fill="#FFC221"/>
<path d="M36.7425 25.7017C36.7425 25.7017 36.6335 25.5641 36.7721 25.5326C36.9106 25.5012 36.9214 25.7504 36.9448 25.9007C36.9682 26.0509 36.7705 25.7488 36.7425 25.7017ZM36.5402 26.3433C36.5402 26.3433 36.3784 26.4027 36.4842 26.4551C36.59 26.5075 36.8888 26.2595 36.7862 26.2757C36.6834 26.2921 36.5402 26.3433 36.5402 26.3433ZM36.7597 26.1162C36.7597 26.1162 36.9028 26.1022 36.8748 26.1639C36.8468 26.2257 36.7954 26.1865 36.7737 26.1728C36.7518 26.1593 36.6507 26.1243 36.7597 26.1162Z" fill="black"/>
<path d="M37.5221 25.9236C37.5221 25.9236 37.5605 26.204 37.8012 26.275C37.8012 26.275 37.9402 26.3096 37.9112 26.1869C37.9112 26.1869 37.8873 26.0844 37.8676 26.0417C37.8479 25.9989 37.7514 25.9718 37.741 25.9671C37.7307 25.9625 37.7182 25.933 37.7846 25.9547C37.851 25.9765 37.8614 25.9788 37.8562 25.9322C37.851 25.8856 37.812 25.9044 37.751 25.8746C37.7275 25.8631 37.7535 25.8476 37.7784 25.8531C37.8033 25.8585 37.8625 25.8763 37.8635 25.7801C37.8635 25.7801 37.8767 25.7265 37.8033 25.7226C37.7234 25.7183 37.7297 25.6826 37.7546 25.6772C37.7795 25.6718 37.8631 25.7297 37.8863 25.6344C37.9102 25.5366 37.7711 25.5929 37.7898 25.5424C37.8085 25.4919 37.907 25.5713 37.9152 25.5114C37.9232 25.4531 38.0028 25.4278 37.8672 25.409C37.8029 25.4001 37.8623 25.3716 37.9346 25.3817C38.0119 25.3926 38.0586 25.2971 38.1032 25.266C38.1478 25.235 38.4 25.0843 38.0638 25.134C37.7276 25.1837 37.6291 25.3468 37.6073 25.3794C37.5854 25.4119 37.492 25.6045 37.5221 25.9236Z" fill="#FFC221"/>
<path d="M38.3053 26.1409C38.3485 26.1326 38.3893 26.1443 38.404 26.1744C38.4593 26.288 38.3324 26.2474 38.2619 26.3313C38.1913 26.4152 38.1893 26.3981 38.0896 26.3687C37.99 26.3394 37.9527 26.1884 37.9527 26.1884C37.9416 26.1421 37.9846 26.1382 38.0362 26.1441C38.0362 26.1441 38.2013 26.1609 38.3053 26.1409ZM37.9412 26.0805C37.9412 26.0805 37.9482 26.1145 38.0053 26.1191C38.0623 26.1238 38.2281 26.1382 38.3267 26.1064C38.3267 26.1064 38.363 26.0992 38.3467 26.035C38.3467 26.035 38.3454 25.9934 38.2566 26.0102C38.1679 26.0271 38.0395 26.0102 37.9968 26.0009C37.954 25.9916 37.9192 26.0017 37.9412 26.0805ZM37.9277 25.8771C37.9277 25.8771 37.9246 25.9656 38.0139 25.9772C38.1031 25.9889 38.2142 25.9884 38.2605 25.9793C38.2958 25.9723 38.3594 25.9594 38.3645 25.9074C38.3697 25.8553 38.3843 25.8165 38.2743 25.8437C38.1643 25.8709 38.0315 25.853 38.018 25.8499C38.0045 25.8468 37.9298 25.8243 37.9277 25.8771ZM37.9682 25.6985C37.9682 25.6985 37.9464 25.7388 37.9495 25.7777C37.9527 25.8165 38.017 25.8297 38.1332 25.8313C38.2494 25.8329 38.3531 25.8158 38.3604 25.7769C38.3677 25.7381 38.3957 25.6931 38.3044 25.707C38.2131 25.721 38.0979 25.7249 38.0523 25.7063C38.0066 25.6876 37.9759 25.6811 37.9682 25.6985Z" fill="#FFC221"/>
<path d="M42.2345 26.1489C42.2345 26.1489 42.233 26.2298 42.2967 26.3096L39.0714 26.217C39.0714 26.217 39.1184 26.1879 39.1305 26.0623L42.2345 26.1489Z" fill="#5A3719"/>
<path d="M37.9942 25.5649C37.9942 25.5649 37.9662 25.6465 38.0243 25.6628C38.0824 25.6791 38.182 25.6969 38.3138 25.676C38.3138 25.676 38.3802 25.6807 38.403 25.61C38.4258 25.5394 38.4235 25.579 38.2359 25.5417C38.2359 25.5417 38.1768 25.5244 38.348 25.5238C38.348 25.5238 38.4435 25.5269 38.458 25.5106C38.4726 25.4943 38.5991 25.3941 38.4352 25.4003C38.2713 25.4065 38.3522 25.3716 38.4352 25.3716C38.5182 25.3716 38.5441 25.3887 38.5711 25.3622C38.5981 25.3358 38.5732 25.3537 38.5285 25.3086C38.4839 25.2636 38.515 25.2768 38.5472 25.3016C38.5794 25.3265 38.5991 25.3342 38.6354 25.3024C38.6717 25.2705 38.6074 25.224 38.6354 25.2294C38.6634 25.2348 38.6769 25.288 38.7827 25.2368C38.8885 25.1855 39.0317 25.2123 39.0706 25.2414C39.1095 25.2705 39.22 25.3078 39.2869 25.2391C39.3539 25.1703 39.2075 25.1144 39.2698 25.1051C39.3321 25.0957 39.3757 25.1179 39.4006 25.0678C39.4255 25.0177 39.3041 24.97 39.4208 24.9385C39.5375 24.9071 39.4395 24.5798 39.399 24.5495C39.399 24.5495 39.2683 24.6264 39.1251 24.8582C38.9819 25.0899 38.8979 25.2251 38.7033 25.154C38.4227 25.0515 38.2792 25.1989 38.2358 25.2255C38.1685 25.2666 38.3765 25.2868 38.2551 25.2891C38.1337 25.2915 38.1337 25.3019 38.1213 25.3206C38.1089 25.3392 38.1197 25.3556 38.1415 25.3567C38.1633 25.3579 38.21 25.4045 38.1353 25.4021C38.0606 25.3998 38.0077 25.3881 38.0296 25.4675C38.0296 25.4675 38.031 25.4848 38.0746 25.4895C38.1182 25.4941 38.1337 25.5396 38.0528 25.5396C38.0009 25.5397 37.9957 25.5598 37.9942 25.5649ZM38.2925 26.3737C38.2925 26.3737 38.2349 26.4144 38.3143 26.4191C38.3937 26.4237 38.4357 26.4389 38.4605 26.3963C38.4855 26.3538 38.5928 26.3713 38.5212 26.3119C38.4497 26.2525 38.4014 26.2863 38.2925 26.3737Z" fill="#FFC221"/>
<path d="M38.6254 25.4034C38.6254 25.4034 38.894 25.1507 39.1185 25.3219C39.3429 25.4931 39.3647 25.5188 39.3678 25.5223C39.3709 25.5258 39.3942 25.5444 39.3335 25.598C39.2728 25.6516 39.3319 25.6504 39.3989 25.6178C39.4658 25.5852 39.4704 25.6154 39.5031 25.6515C39.5358 25.6877 39.5795 25.7086 39.476 25.7098C39.3724 25.7109 39.1499 25.7098 39.1499 25.7098C39.1499 25.7098 38.9989 25.7226 39.0752 25.6609C39.1515 25.5991 39.1405 25.5258 39.1016 25.5211C39.0627 25.5165 39.0985 25.5584 39.0752 25.5875C39.0518 25.6166 38.9989 25.6434 38.946 25.6423C38.8931 25.6411 38.8464 25.6806 38.9304 25.7109C39.0145 25.7413 38.9211 25.7612 38.8775 25.76C38.834 25.7588 38.6238 25.7762 38.8371 25.8019C39.0503 25.8275 38.8179 25.8213 38.974 25.9105C39.1468 26.0092 39.0223 26.2189 38.9569 26.2375C38.9569 26.2375 38.8854 26.2765 38.9756 26.2657C39.0659 26.255 39.1157 26.2422 39.0519 26.2911C38.9881 26.34 38.8605 26.5031 38.6831 26.3784C38.6831 26.3784 38.6022 26.34 38.7469 26.333C38.8916 26.326 38.6286 26.2951 38.5851 26.2657C38.5415 26.2363 38.375 26.0663 38.4792 26.0873C38.5835 26.1082 38.5461 26.0476 38.4839 26.0255C38.4216 26.0034 38.4092 25.9079 38.4792 25.9288C38.5493 25.9498 38.6317 25.9888 38.6878 25.9862C38.7438 25.9836 38.7283 25.9603 38.6084 25.923C38.4886 25.8857 38.4387 25.8799 38.4668 25.7786C38.4948 25.6773 38.6255 25.8182 38.5944 25.7425C38.5633 25.6667 38.4497 25.7041 38.5104 25.6038C38.5711 25.5037 38.5851 25.5467 38.6131 25.5596C38.6411 25.5724 38.6859 25.5629 38.6069 25.5037C38.557 25.4663 38.6113 25.4158 38.6254 25.4034Z" fill="#FFC221"/>
<path d="M38.8185 25.4733C38.8185 25.4733 38.8169 25.4395 38.8652 25.4453C38.9134 25.4512 38.9009 25.4279 38.9149 25.4209C38.9289 25.4139 39.0497 25.4568 38.9367 25.4977C38.895 25.5129 38.8294 25.5021 38.8185 25.4733Z" fill="black"/>
<path d="M39.0753 25.7598C39.0753 25.7598 38.9845 25.8061 39.0667 25.9013C39.1368 25.9825 39.1364 26.0082 39.1305 26.0622C39.1246 26.1162 42.2345 26.1488 42.2345 26.1488C42.2345 26.1488 42.229 25.949 42.3621 25.8367C42.3621 25.8367 40.6627 25.7971 39.0753 25.7598Z" fill="#FFC221"/>
<path d="M42.2874 26.0941C42.2874 26.0941 42.3 25.9256 42.3933 25.8698C42.4446 25.839 42.5124 25.8569 42.5419 25.9928C42.584 26.186 42.4203 26.3503 42.3442 26.277C42.2718 26.2071 42.2874 26.0941 42.2874 26.0941Z" fill="#5A3719"/>
<path d="M38.7238 26.8208C38.7238 26.8208 38.9307 26.6449 38.9619 26.5657C38.9619 26.5657 39.5222 26.9626 39.4879 26.5981C39.4879 26.5981 39.4895 26.5004 39.505 26.4073C39.505 26.4073 39.7076 26.4271 39.7384 26.2654L39.2155 26.25C39.2155 26.25 39.161 26.2384 39.0801 26.3257C38.9992 26.4131 38.8327 26.5087 38.677 26.4253C38.677 26.4253 38.6119 26.3688 38.5456 26.4165C38.4794 26.4643 38.4762 26.4783 38.5307 26.5295C38.5852 26.5808 38.702 26.7381 38.7238 26.8208ZM39.9268 25.7247L39.6202 25.713C39.6202 25.713 39.5081 25.5558 39.2903 25.3811C39.2903 25.3811 39.2265 25.3531 39.3494 25.2553C39.4723 25.1574 39.5081 25.0526 39.5128 25.0048C39.5175 24.9571 39.5051 24.8826 39.5517 24.9396C39.5984 24.9967 39.9159 25.2832 39.961 25.1982C40.0062 25.1132 40.0139 25.0736 40.0217 25.048C40.0296 25.0223 40.0404 24.9431 40.0856 25.0258C40.1307 25.1086 40.1617 25.0874 40.1634 25.3019C40.1634 25.3019 40.1711 25.5139 40.2039 25.5908C40.2038 25.5908 39.8022 25.4621 39.9268 25.7247ZM38.5961 25.0724C38.5961 25.0724 38.8295 25.2029 38.9447 25.0258C39.0599 24.8487 39.1377 24.8208 39.0506 24.6507C38.9634 24.4807 39.053 24.4015 39.1187 24.3316C39.1844 24.2617 39.2404 24.2733 39.2498 24.0031C39.2591 23.7328 39.4459 23.642 39.5299 23.5581C39.614 23.4743 39.8256 23.3461 39.505 23.2926C39.1844 23.239 38.5495 23.0736 38.3845 22.8267C38.2195 22.5797 38.1448 22.7265 38.1417 22.7358C38.1386 22.7451 38.0857 22.9268 38.2507 23.2553C38.4156 23.5838 38.5557 23.795 38.7145 23.9014C38.8732 24.0078 39.0164 24.066 38.9354 24.285C38.8545 24.504 38.7144 24.8954 38.5961 25.0724Z" fill="#7B3C20"/>
<path d="M39.4581 24.374C39.4581 24.374 39.4986 24.9354 39.9095 25.1358C39.9095 25.1358 40.0029 24.9168 39.9655 24.7001C39.9655 24.7001 40.0993 24.7117 40.1367 24.7723C40.1367 24.7723 40.1429 24.6093 39.9499 24.5498C39.7569 24.4905 39.8503 24.1247 39.9188 24.0828C39.9872 24.0409 39.9654 23.9679 39.9188 23.9019C39.8721 23.8359 39.8596 23.7357 40.0215 23.7776C40.1833 23.8195 40.1584 23.7334 40.062 23.6541C39.9655 23.5749 39.9686 23.4771 40.1055 23.4771C40.2425 23.4771 40.4697 23.3443 40.3327 23.3024C40.1958 23.2604 40.1522 23.2162 40.339 23.1626C40.5257 23.109 40.616 23.0414 40.4759 23.0252C40.3358 23.0089 40.2425 22.9599 40.3794 22.9366C40.5163 22.9134 40.3545 22.7736 40.1957 22.7666C40.037 22.7596 39.6946 22.8248 39.9654 22.6082C40.2362 22.3916 39.5763 22.55 39.8471 22.4078C40.1179 22.2657 39.7569 22.3286 39.7071 22.3263C39.6573 22.324 39.6579 22.3263 39.6762 22.2541C39.6946 22.1818 39.6386 22.1492 39.5608 22.1935C39.483 22.2377 39.483 22.2377 39.4861 22.1376C39.4892 22.0374 39.3927 22.112 39.3336 22.1376C39.2744 22.1632 39.125 22.275 39.0659 22.2145C39.0068 22.1539 38.9725 22.091 38.7889 22.2028C38.6052 22.3146 38.6488 22.2145 38.6519 22.1656C38.655 22.1167 38.7235 21.9233 38.4714 22.1306C38.2193 22.3379 38.4247 21.9069 38.2255 22.0537C38.0263 22.2005 38.0045 22.2261 37.9734 22.1609C37.9423 22.0956 37.9046 22.0421 37.6853 22.1818C37.466 22.3216 37.6279 22.098 37.659 22.0491C37.6901 22.0002 37.7835 21.6833 37.5905 21.9303C37.5905 21.9303 37.4972 22.1027 37.2886 21.7951C37.2886 21.7951 37.0676 22.1006 37.0116 21.9654C36.9556 21.8301 36.8995 21.8161 36.8279 21.9046C36.7563 21.9932 36.8092 21.9 36.7781 21.8254C36.747 21.7508 36.7284 21.6134 36.3611 21.8813C35.9938 22.1492 36.4887 21.9536 36.2086 22.0747C35.9284 22.1958 35.253 22.5779 35.8724 22.4894C36.4918 22.4008 35.5705 22.7316 35.7853 22.7922C36.0001 22.8528 35.9315 23.0391 36.7377 22.8179C37.5439 22.5966 37.4131 22.7829 37.824 22.6059C38.2348 22.4288 37.7306 22.6664 38.2815 22.6548C38.8325 22.6431 38.3749 22.6571 38.4807 22.7712C38.5866 22.8854 39.0534 23.1556 39.4892 23.1999C39.9249 23.2442 40.0308 23.0811 39.9063 23.2698C39.7817 23.4585 39.7382 23.5307 39.6635 23.5959C39.5888 23.6612 39.3833 23.8102 39.3802 24.0712C39.3771 24.3321 39.0379 24.3741 39.1624 24.6629C39.1625 24.6628 39.3555 24.4765 39.4581 24.374Z" fill="#5A3719"/>
<path d="M40.175 25.0018C40.175 25.0018 40.0754 24.9319 40.0774 24.8077C40.0774 24.8077 40.148 24.8201 40.175 24.8651C40.175 24.8651 40.4261 24.5809 40.1262 24.4785C39.8264 24.3759 39.9757 24.1042 40.0774 24.1026C40.1791 24.101 40.1968 24.0731 40.1112 23.9597C40.0255 23.8463 40.0318 23.8417 40.2019 23.8122C40.3721 23.7827 40.349 23.7469 40.2733 23.705C40.1978 23.6631 40.1398 23.5948 40.1398 23.5948C40.1398 23.5948 40.6211 23.3851 40.4654 23.2888C40.3097 23.1925 40.4654 23.2174 40.6044 23.118C40.7434 23.0186 40.7621 22.9999 40.7829 22.9611C40.7829 22.9611 40.6454 22.9751 40.544 22.9549C40.544 22.9549 40.6641 22.8958 40.544 22.798C40.4239 22.7001 40.3741 22.6116 40.1832 22.6566C39.9923 22.7017 40.0545 22.638 40.1292 22.5588C40.2039 22.4795 40.1686 22.4345 40.0338 22.4144C40.0338 22.4144 40.0504 22.3336 40.1521 22.2326C40.1521 22.2326 39.8927 22.2513 39.8056 22.2062C39.8056 22.2062 39.9093 22.1348 39.9176 22.0494C39.9176 22.0494 39.7745 22.096 39.5939 22.0789C39.5939 22.0789 39.6998 21.9872 39.6998 21.9065C39.6998 21.9065 39.3865 21.9764 39.2412 22.0866C39.2412 22.0866 39.21 22.0804 39.1852 22.0462C39.1603 22.0121 39.1416 21.9779 38.795 22.0882C38.795 22.0882 38.8345 21.9344 38.9175 21.8723C39.0005 21.8101 38.988 21.6859 38.4485 22.0229C38.4485 22.0229 38.3759 21.9794 38.3157 21.8179C38.3157 21.8179 38.1995 21.9825 38.1103 22.0384C38.1103 22.0384 38.0356 22.0698 38.0449 21.9648C38.0543 21.8599 37.992 21.9347 37.936 21.9648C37.88 21.995 37.8426 22.0695 37.8706 21.8575C37.8987 21.6455 37.7959 21.6013 37.7959 21.6013C37.7959 21.6013 37.6279 21.8389 37.5314 21.8645C37.5314 21.8645 37.3539 21.6921 37.2917 21.578C37.2295 21.4638 37.2295 21.4219 37.1672 21.6199C37.105 21.8179 37.0271 21.8342 37.0271 21.8342C37.0271 21.8342 36.9213 21.7433 36.9088 21.6944C36.9088 21.6944 36.8902 21.748 36.856 21.7713C36.856 21.7713 36.7626 21.6618 36.7657 21.5034C36.7657 21.5034 36.1868 21.8225 36.1152 22.0159C36.1152 22.0159 35.5674 21.9833 35.3402 22.0253C35.3402 22.0253 35.3962 21.8482 35.5394 21.7597C35.5394 21.7597 35.3962 21.7434 35.39 21.5967C35.39 21.5967 35.5052 21.6129 35.5768 21.5943C35.6483 21.5757 35.4772 21.3683 35.6577 21.3637C35.8382 21.359 35.9534 21.4498 35.8724 21.2099C35.7915 20.97 35.8289 20.97 35.8289 20.97C35.8289 20.97 36.1432 21.1564 36.1931 21.1098C36.2429 21.0632 36.1526 20.963 36.4327 21.0096C36.7129 21.0562 36.635 20.8955 36.7439 20.8885C36.8529 20.8815 36.912 20.9584 36.8436 20.4505C36.7751 19.9427 37.1828 20.7021 36.9058 19.9357C36.9058 19.9357 36.8357 19.7039 36.6692 19.6049C36.6692 19.6049 36.6319 19.7727 36.4436 19.6247C36.2553 19.4767 35.8849 19.4243 36.0405 19.3079C36.1961 19.1914 36.2693 19.0353 36.2241 18.9375C36.2241 18.9375 36.0406 19.1293 35.7215 18.9922C35.4693 18.8839 35.4165 19.0831 35.1581 19.0248C35.1581 19.0248 35.1628 18.9585 35.3807 18.7872C35.5986 18.616 35.2546 18.8443 35.1192 18.8746C34.9838 18.9049 34.9449 18.8804 35.2313 18.6591C35.5176 18.4378 36.0841 18.0464 36.0063 17.7249C36.0063 17.7249 36.1401 17.8949 36.4918 17.7715C36.8436 17.6481 37.105 17.6038 37.2108 17.4221C37.3167 17.2403 37.5937 17.0563 37.6653 17.0167C37.7369 16.9771 37.8334 16.9492 37.7244 17.1216C37.6155 17.2939 37.438 17.5898 36.9525 17.7901C36.467 17.9905 36.2802 18.1373 36.1931 18.2421C36.1059 18.3469 35.6639 18.5822 35.9503 18.5426C36.2367 18.503 36.7347 18.5496 36.5012 18.482C36.2678 18.4145 36.0032 18.5239 36.218 18.3282C36.4327 18.1326 36.4701 18.0673 36.7813 17.9368C37.0925 17.8064 37.438 17.5082 37.4038 17.825C37.3696 18.1418 36.7907 18.4796 36.6475 18.5821C36.5043 18.6846 36.5572 18.6683 36.5603 18.7102C36.5635 18.7521 36.5385 18.8384 36.4794 18.878C36.4203 18.9176 36.4389 18.9618 36.4545 19.0504C36.4701 19.1389 36.4389 19.1739 36.4825 19.1878C36.5261 19.2017 36.5697 19.2088 36.5822 19.2717C36.5946 19.3345 36.6273 19.3427 36.7113 19.3357C36.7954 19.3287 36.8483 19.3368 36.8545 19.3858C36.8607 19.4347 36.94 19.5011 36.9494 19.352C36.9587 19.2029 37.0132 19.1738 36.8607 19.2425C36.7082 19.3113 36.6755 19.2868 36.6786 19.2158C36.6818 19.1447 36.6647 19.161 36.6008 19.1552C36.537 19.1493 36.5152 19.0597 36.6289 19.0003C36.7425 18.9409 36.7409 19.0014 36.8826 18.8838C37.0242 18.7661 37.0242 18.7335 37.046 18.6788C37.0678 18.624 36.8437 18.8384 36.7363 18.8873C36.6289 18.9362 36.6569 18.8535 36.6756 18.7312C36.6943 18.6088 36.962 18.4493 37.0849 18.4469C37.2078 18.4446 37.4849 18.5168 37.365 18.6845C37.2452 18.8523 36.906 19.0515 37.0522 19.0666C37.1985 19.0817 37.2219 19.0247 37.3059 19.0992C37.39 19.1737 37.3121 19.3252 37.2732 19.4056C37.2343 19.486 37.1534 19.5873 37.1176 19.6059C37.1176 19.6059 36.9635 19.3311 36.9682 19.5488C36.9729 19.7666 36.9356 19.8447 36.9682 19.8529C37.0009 19.861 37.1721 19.9752 37.2266 19.9775C37.2811 19.9799 36.9309 20.1418 37.0772 20.1522C37.2235 20.1627 37.4554 20.0882 37.5363 19.9367C37.5363 19.9367 37.239 19.8645 37.1192 19.7527C37.1192 19.7527 37.4663 19.6712 37.3698 19.3369C37.3698 19.3369 37.7153 19.4313 37.5659 19.5873C37.4165 19.7434 37.3262 19.7201 37.4554 19.7644C37.5846 19.8086 37.6484 19.8459 37.6484 19.8459C37.6484 19.8459 37.7368 19.8901 37.6856 19.9624C37.6344 20.0346 37.6328 20.1441 37.6764 20.1418C37.7199 20.1394 37.8663 20.0719 37.7433 19.9973C37.6204 19.9228 37.8834 19.9356 37.7713 19.8727C37.6593 19.8098 37.6297 19.7947 37.6002 19.7644C37.5706 19.7341 39.007 18.8919 38.2818 19.2076C38.2818 19.2076 38.4328 18.8803 38.6444 18.8791C38.856 18.8779 38.8716 19.0456 38.7518 19.1726C38.6319 19.2996 38.5541 19.4976 38.2725 19.5441C38.2725 19.5441 38.675 19.7414 38.1993 20.0637C38.1993 20.0637 38.0961 20.1126 38.1334 20.1483C38.1708 20.184 38.4529 20.0241 38.4924 19.934C38.5318 19.8439 38.592 19.774 38.6999 19.7212C38.8078 19.6685 39.339 19.3066 39.4988 19.0332C39.6586 18.7598 39.7022 18.7506 40.0134 18.5005C40.3246 18.2505 40.2707 18.3001 40.3102 18.2396C40.3496 18.1791 40.3662 18.0796 40.5094 17.9989C40.6526 17.9181 41.2087 17.6091 41.383 17.4832C41.5573 17.3574 41.9142 17.126 42.0677 16.9303C42.2213 16.7346 42.6348 16.4847 42.7379 16.5312C42.8412 16.5777 42.7276 16.7238 42.4848 16.9086C42.242 17.0934 41.6403 17.5795 41.5427 17.654C41.4452 17.7286 40.9348 18.1013 40.7438 18.1262C40.5529 18.151 40.5737 18.2178 40.4595 18.3421C40.3454 18.4663 40.0819 18.7272 39.9926 18.7987C39.9034 18.8701 39.6917 19.0161 39.6793 19.1186C39.6669 19.2211 39.7167 19.2335 39.5466 19.3935C39.3764 19.5535 38.8784 19.9153 38.6979 19.9728C38.6979 19.9728 39.0174 20.0784 38.8265 20.2943C38.6356 20.5102 38.6481 20.4791 38.6335 20.4931C38.6335 20.4931 39.1187 20.4217 38.7746 20.799C38.7746 20.799 38.7082 20.9078 38.8618 20.7944C39.0259 20.6732 38.9551 20.5071 38.9364 20.4837C38.9364 20.4837 39.1937 20.3238 39.4905 20.3191C39.7873 20.3145 39.7769 20.2943 39.5113 20.2181C39.5113 20.2181 39.7001 19.9883 39.8599 20.1016C40.0196 20.215 39.9678 20.2803 39.7997 20.3703C39.6316 20.4604 39.3826 20.4977 39.198 20.6002C39.198 20.6002 39.5486 20.6685 39.7375 20.5257C39.9263 20.3828 39.9346 20.4542 39.9595 20.479C39.9844 20.5039 40.0052 20.5505 39.9221 20.6701C39.8391 20.7897 39.8308 20.7959 39.835 20.8223C39.8391 20.8487 39.8287 20.931 39.6586 20.959C39.4884 20.9869 39.4117 21.0583 39.4697 21.1391C39.5278 21.2199 39.5299 21.4202 39.3847 21.4016C39.2394 21.383 39.2788 21.2681 39.2228 21.223C39.1668 21.178 39.088 21.1081 38.8348 21.2401C38.5816 21.3721 38.5608 21.2152 38.5733 21.1329C38.5733 21.1329 38.4094 21.2758 38.2724 21.1438C38.1355 21.0118 38.2599 20.9605 38.3388 20.8938C38.4176 20.827 38.7392 20.6872 38.5463 20.712C38.3534 20.7368 38.0649 20.7493 37.9985 20.6002C37.9321 20.4511 38.1416 20.4682 38.1749 20.4822C38.2081 20.4962 38.345 20.6065 38.3492 20.462C38.3533 20.3176 38.567 20.302 38.4944 20.2725C38.4218 20.243 38.3201 20.3346 38.291 20.3704C38.291 20.3704 38.1416 20.1622 37.901 20.2306C37.6603 20.299 37.9777 20.271 38.042 20.2818C38.1063 20.2927 38.069 20.4123 37.8532 20.6065C37.6374 20.8006 37.7349 20.7416 37.8947 20.7416C38.0545 20.7416 38.4467 20.7431 38.2184 20.9295C37.9901 21.1159 37.8989 21.209 37.7806 21.1764C37.6623 21.1438 37.7951 21.0662 37.847 21.0335C37.8988 21.0009 37.93 20.9434 37.8179 20.9854C37.7058 21.0274 37.6664 21.0351 37.5772 20.8767C37.488 20.7183 37.5254 20.7649 37.5627 20.6608C37.6 20.5567 37.6872 20.4465 37.5834 20.4853C37.4797 20.5241 37.4901 20.5272 37.4984 20.4076C37.5067 20.288 37.3801 20.2616 37.3801 20.2616C37.3801 20.2616 37.4298 20.3812 37.3842 20.4573C37.3386 20.5334 37.3365 20.5598 37.4112 20.58C37.4859 20.6002 37.5564 20.6638 37.4548 20.7337C37.3531 20.8036 37.3655 20.7943 37.4298 20.8362C37.4942 20.8781 37.5875 20.9263 37.4879 21.0241C37.3883 21.1219 37.4713 21.0925 37.5211 21.0925C37.571 21.0925 37.6837 21.1344 37.6854 21.2307C37.6871 21.327 37.6788 21.3503 37.8407 21.2602C38.0025 21.1701 38.3262 21.181 38.3221 21.3068C38.3179 21.4326 38.2805 21.4637 38.4528 21.3566C38.6251 21.2494 38.7018 21.4575 38.8201 21.3566C38.9384 21.2556 39.0131 21.1578 39.15 21.3302C39.287 21.5026 39.2443 21.5547 39.0774 21.6765C38.9105 21.7983 39.1583 21.7045 39.2849 21.6392C39.4115 21.574 39.7663 21.5305 39.9697 21.6206C40.1731 21.7107 40.2312 21.6905 40.3805 21.6284C40.5299 21.5662 40.6067 21.5522 40.8329 21.7029C41.0591 21.8535 41.2354 21.8815 41.3537 21.8784C41.3537 21.8784 41.1027 21.9763 40.8204 21.9949C40.5382 22.0135 40.3972 22.0663 40.3411 22.1098C40.3411 22.1098 40.5109 22.2123 40.5443 22.3381C40.5443 22.3381 40.7292 22.3132 40.8205 22.3505C40.8205 22.3505 40.7728 22.484 40.8869 22.5555C41.001 22.6269 41.0799 22.6534 40.9948 22.7512C40.9097 22.849 41.1256 22.8071 41.0031 22.9453C40.8807 23.0835 40.8475 23.1534 40.8433 23.2652C40.8392 23.3771 40.8703 23.3941 40.7603 23.405C40.6504 23.4159 40.779 23.5385 40.7292 23.6845C40.6794 23.8305 40.3723 23.815 40.3847 24.2063C40.3847 24.2063 40.4698 24.0153 40.6524 23.8476C40.835 23.6798 40.8413 23.6643 40.8371 23.5633C40.833 23.4624 40.8247 23.4857 40.9222 23.4096C41.0197 23.3335 40.8786 23.262 40.9761 23.1533C41.0737 23.0446 40.9886 23.0663 41.1027 22.9561C41.2169 22.8458 41.0031 22.8318 41.1193 22.7184C41.2356 22.6051 40.8392 22.4762 40.9533 22.4032C41.0675 22.3302 41.2646 22.2292 40.6006 22.2401C40.6006 22.2401 40.7603 21.9761 41.3206 22.0336C41.3206 22.0336 41.1733 22.1376 41.1609 22.2401C41.1609 22.2401 41.2252 22.2727 41.2646 22.282C41.2646 22.282 41.2429 22.3571 41.136 22.4482C41.136 22.4482 41.4327 22.6143 41.4804 22.7122C41.4804 22.7122 41.2999 22.7681 41.2543 22.8473C41.2543 22.8473 41.3331 22.9374 41.3601 23.0539C41.3601 23.0539 41.1588 23.029 41.1319 23.1797C41.1049 23.3303 41.0447 23.2278 41.0447 23.3163C41.0447 23.4048 41.051 23.4406 40.9804 23.4545C40.9099 23.4685 40.968 23.5431 40.9804 23.5928C40.9929 23.6425 41.0157 23.7558 41.0054 23.7916C41.0054 23.7916 40.9037 23.7931 40.856 23.8071C40.856 23.8071 40.8871 24.023 40.7667 24.054C40.6464 24.085 40.831 24.1285 40.7024 24.1519C40.5737 24.1751 40.5904 24.1829 40.4327 24.4656C40.4327 24.4656 40.5675 24.3895 40.7066 24.2979C40.8456 24.2062 40.6962 24.2342 40.9265 24.0075C41.1568 23.7807 41.1153 23.7636 41.0967 23.6487C41.078 23.5338 41.0738 23.4406 41.1568 23.3319C41.2398 23.2231 41.2668 23.0989 41.5614 23.1145C41.5614 23.1145 41.4743 22.9184 41.3664 22.8674C41.3664 22.8674 41.5074 22.7697 41.6569 22.7558C41.6569 22.7558 41.5261 22.5989 41.2585 22.4467C41.2585 22.4467 41.4784 22.2572 41.5303 22.1672C41.5303 22.1672 41.4287 22.1827 41.3477 22.1641C41.3477 22.1641 41.3859 22.0734 41.5843 21.9435C41.5843 21.9435 41.6901 22.046 41.686 22.1532C41.686 22.1532 42.0263 21.9575 42.2192 21.9793C42.2192 21.9793 42.3168 22.2246 41.8436 22.6843C41.8436 22.6843 42.1362 22.7123 42.2607 22.6952C42.2607 22.6952 42.1902 22.922 41.8353 23.0555C41.4805 23.189 41.9121 23.3452 41.549 23.318C41.1859 23.2908 41.2979 23.4159 41.3083 23.6007C41.3187 23.7855 41.3311 23.9749 41.3228 24.0262C41.3228 24.0262 41.0323 23.9314 41.0385 24.2126C41.0447 24.4937 40.8891 24.5527 40.858 24.5791C40.858 24.5791 40.7737 24.5038 40.6463 24.4595C40.646 24.4598 40.4658 24.8019 40.175 25.0018Z" fill="#5A3719"/>
<path d="M39.7598 21.4781C39.7598 21.4781 39.8594 21.4618 40.0275 21.5666C40.1955 21.6714 40.3605 21.4548 40.1737 21.3988C39.987 21.3429 40.1768 21.2777 40.3449 21.4128C40.513 21.5479 40.5783 21.4803 40.6406 21.4338C40.7029 21.3872 40.7776 21.3616 40.6624 21.2824C40.5473 21.2032 40.7402 21.2405 40.8274 21.2964C40.9145 21.3523 40.8803 21.4105 40.8679 21.4269C40.8555 21.4432 40.8461 21.6249 41.0173 21.4548C41.1885 21.2848 41.2725 21.1147 41.2694 21.0308C41.2694 21.0308 41.3628 21.0891 41.3752 21.1962C41.3877 21.3034 41.5184 21.138 41.562 21.0797C41.6055 21.0215 41.6803 20.8745 41.6709 20.764C41.6709 20.764 41.7861 20.9421 41.9573 20.764C42.1285 20.5858 42.0538 20.6977 42.2592 20.6441C42.4647 20.5905 42.723 20.4391 42.8631 20.269C43.0031 20.099 43.0125 20.2131 43.193 20.1712C43.3735 20.1293 43.7377 19.8776 43.7719 19.7402C43.8062 19.6027 43.7999 19.5189 43.747 19.5654C43.6941 19.612 43.7159 19.5748 43.638 19.5258C43.5602 19.4769 43.4451 19.5887 43.4451 19.5887C43.4451 19.5887 43.5602 19.6772 43.4731 19.7145C43.3859 19.7517 43.3019 19.8752 43.1369 19.8286C42.972 19.782 42.8008 19.98 42.8008 19.98C42.8008 19.98 42.9439 20.0988 42.751 20.1734C42.558 20.2479 42.5892 20.2736 42.4709 20.192C42.4709 20.192 42.2654 20.4529 42.1472 20.5065C42.1472 20.5065 42.0912 20.5019 42.0538 20.4529C42.0538 20.4529 41.92 20.6044 41.8515 20.6347C41.8515 20.6347 41.7674 20.5532 41.6896 20.5275C41.6896 20.5275 41.5278 20.7279 41.3908 20.7908C41.3908 20.7908 41.3503 20.7163 41.2632 20.665C41.2632 20.665 41.2201 20.9271 40.9332 21.082C40.9332 21.082 40.9519 21.0121 40.8087 20.9166C40.8087 20.9166 40.4539 21.2241 40.3138 21.2544C40.1738 21.2847 40.3045 21.1892 40.3232 21.1496C40.3419 21.1099 40.429 20.9795 40.2578 20.9259C40.0866 20.8723 40.1147 20.9632 40.0773 20.9795C40.0399 20.9958 40.0368 20.9492 39.9217 20.9655C39.8065 20.9818 39.8252 21.0331 39.7754 21.0517C39.7256 21.0704 39.5264 21.0191 39.5357 21.1519C39.5451 21.2847 39.6385 21.3755 39.4642 21.4524C39.2898 21.5293 39.5295 21.513 39.7598 21.4781Z" fill="#7B3C20"/>
<path d="M40.4788 21.1032C40.4788 21.1032 40.5193 20.9355 40.373 20.854C40.373 20.854 41.313 20.7096 40.6033 20.3508C40.6033 20.3508 41.4468 20.176 41.2476 19.9058C41.0484 19.6356 40.8547 19.6962 40.8255 19.7008C40.7963 19.7055 41.0048 19.5447 41.0609 19.5657C41.1169 19.5867 41.7954 19.8476 41.6211 19.624C41.4468 19.4003 41.4624 19.4143 41.4344 19.3491C41.4344 19.3491 41.6585 19.3491 41.9978 19.6799C41.9978 19.6799 42.0694 19.6053 42.06 19.4702C42.06 19.4702 42.3028 19.5377 42.3775 19.61C42.3775 19.61 42.418 19.5261 42.4024 19.4795C42.4024 19.4795 42.611 19.5913 42.6825 19.7101C42.6825 19.7101 42.779 19.6263 42.7946 19.5307C42.7946 19.5307 43.0032 19.617 43.0561 19.6821C43.0561 19.6821 43.1245 19.5913 43.0996 19.4609C43.0996 19.4609 43.4451 19.5634 43.4918 19.3491C43.4918 19.3491 43.8393 19.4244 43.6134 19.5597C43.3231 19.7336 43.5841 19.5168 43.2863 19.7241C43.0554 19.8849 42.9263 20.0735 42.8153 20.0347C42.7337 20.0062 42.6358 20.2436 42.5237 20.1271C42.4116 20.0106 42.4116 20.0642 42.3338 20.1854C42.256 20.3065 42.1346 20.43 42.1346 20.43C42.1346 20.43 42.074 20.395 42.028 20.3485C42.028 20.3485 41.9603 20.4603 41.8731 20.5442C41.8731 20.5442 41.8047 20.4533 41.6957 20.3974C41.6957 20.3974 41.5245 20.5954 41.4187 20.6629C41.4187 20.6629 41.3191 20.5651 41.2132 20.5325C41.2132 20.5325 41.1977 20.8004 40.9892 20.9378C40.9892 20.9378 40.9456 20.8493 40.8118 20.7957C40.8119 20.7957 40.706 20.9651 40.4788 21.1032Z" fill="#5A3719"/>
<path d="M39.9843 20.6928C39.9843 20.6928 39.8701 20.7806 39.9438 20.8746C40.0175 20.9685 40.0216 20.8583 40.115 20.849C40.2084 20.8396 41.36 20.6416 40.3173 20.3294C40.3173 20.3294 40.3609 20.2898 40.5414 20.2735C40.7219 20.2573 41.3755 20.0802 41.0705 19.8472C40.7655 19.6142 40.5118 19.9264 40.7686 19.6469C40.9741 19.4232 40.8091 19.3137 40.8091 19.3137C40.8091 19.3137 40.2021 19.7191 40.0683 19.7936C39.9345 19.8682 39.7415 20.0103 39.9687 20.0848C40.1959 20.1593 40.3516 19.8379 40.3733 19.9101C40.3951 19.9823 39.9158 20.2479 39.9843 20.3713C40.0528 20.4948 40.0372 20.5973 40.1555 20.574C40.2738 20.5507 40.5944 20.6346 40.3329 20.6253C40.0714 20.6159 39.9843 20.6928 39.9843 20.6928Z" fill="#5A3719"/>
<path d="M40.4012 20.113C40.4012 20.113 40.2954 20.1874 40.4355 20.1501C40.5755 20.1128 40.8557 20.0522 40.8028 19.9801C40.7498 19.9078 40.5631 19.9944 40.4012 20.113Z" fill="black"/>
<path d="M42.2503 18.911C42.2503 18.911 42.7856 18.897 43.0066 19.0462C43.2276 19.1953 43.3334 19.2931 43.3987 19.3141C43.3987 19.3141 43.3894 19.5167 43.047 19.3723C43.047 19.3723 43.0657 19.4702 43.0283 19.5657C43.0283 19.5657 42.9007 19.4818 42.7544 19.4445C42.7544 19.4445 42.7295 19.5214 42.6828 19.5657C42.6828 19.5657 42.5303 19.4119 42.3592 19.3653C42.3592 19.3653 42.3249 19.4422 42.2938 19.4702C42.2938 19.4702 42.1102 19.3653 41.9701 19.3677C41.9701 19.3677 41.9981 19.4795 41.9701 19.5238C41.9701 19.5238 41.581 19.2186 41.2355 19.2582C41.2355 19.2582 41.4036 19.5028 41.5126 19.624C41.5126 19.624 40.8122 19.5681 40.9274 19.1907C41.0426 18.8133 40.9181 18.9081 41.3756 18.9108C41.8332 18.9134 42.2503 18.911 42.2503 18.911Z" fill="#7B3C20"/>
<path d="M38.9664 19.9536C38.9664 19.9536 38.8855 20.0195 38.9664 20.0755C39.0473 20.1314 39.3243 19.9311 39.3617 19.9031C39.399 19.8751 39.4986 19.8798 39.3617 19.9823C39.2247 20.0848 39.0846 20.1966 38.9975 20.3085C38.9975 20.3085 39.4613 20.1827 39.7632 19.9218C40.065 19.6609 39.7491 19.8299 40.2643 19.5816C40.7794 19.3334 41.0486 18.934 40.7716 18.9759C40.4946 19.0178 40.2456 19.3347 40.0308 19.4558C39.8161 19.577 39.6947 19.5933 39.7289 19.5234C39.7632 19.4535 39.9219 19.4815 40.2175 19.2438C40.5133 19.0062 40.4479 19.0225 40.451 18.9387C40.4541 18.8548 40.3389 18.6475 40.784 18.4145C41.2291 18.1815 42.6142 17.3708 42.7324 17.0936C42.7324 17.0936 42.3278 17.1379 41.7956 17.5316C41.2633 17.9253 40.9784 18.1093 40.8314 18.1582C40.6844 18.2071 40.7031 18.1745 40.6066 18.2887C40.5101 18.4029 39.9841 18.9108 39.8876 18.9853C39.7911 19.0598 39.763 19.1088 39.7548 19.2607C39.7512 19.33 39.15 19.7828 38.9664 19.9536Z" fill="#5A3719"/>
<path d="M40.7963 18.8979C40.7963 18.8979 40.6935 18.9456 40.5939 18.8979C40.4943 18.8502 40.5255 18.6358 40.7651 18.5077C41.0048 18.3796 41.4405 18.1886 41.6615 18.1606C41.6615 18.1606 41.6304 18.4378 40.9425 18.6708C40.9425 18.6708 40.9861 18.8151 40.7963 18.8979Z" fill="#5A3719"/>
<path d="M41.0394 18.7176C41.0394 18.7176 41.0594 18.7858 41.0394 18.8481C41.0394 18.8481 42.3187 18.9716 42.9786 18.1934C42.9786 18.1934 42.0728 18.2773 41.7118 18.494C41.7118 18.494 41.939 18.2097 42.6176 17.9744C43.2961 17.7392 43.5731 17.4479 43.6322 17.2872C43.6322 17.2872 42.7741 17.5878 42.3654 17.5878C42.3654 17.5878 42.2845 17.5854 42.2067 17.6297C42.1289 17.6739 41.5811 18.0723 41.4348 18.1398C41.4348 18.1398 41.7429 18.1142 41.8519 18.0141C41.8518 18.0141 41.6377 18.5899 41.0394 18.7176Z" fill="#AA5323"/>
<path d="M38.5899 19.4487C38.5899 19.4487 38.425 19.5652 38.4934 19.6234C38.5619 19.6817 38.6798 19.6933 38.9305 19.4837C39.1813 19.274 39.7882 18.7521 39.4047 18.7312C39.4047 18.7312 38.9136 18.7009 38.9305 19.0015C38.9477 19.3049 38.6146 19.4296 38.5899 19.4487ZM37.457 19.2716C37.457 19.2716 37.7806 19.4603 37.6593 19.6164C37.6593 19.6164 38.6522 18.7731 38.3721 18.5913C38.0919 18.4096 37.871 18.7521 37.9394 18.787C38.0079 18.822 38.1542 18.7567 38.1013 18.822C38.0484 18.8872 37.5192 19.2437 37.457 19.2716ZM37.1986 18.9991C37.1986 18.9991 37.4165 19.0643 37.4258 19.1575C37.4351 19.2506 38.0825 18.7008 37.9113 18.4702C37.8328 18.3645 37.4725 18.3211 37.4569 18.5285C37.4413 18.7359 37.7806 18.5075 37.6623 18.6566C37.5073 18.8521 37.2453 18.9664 37.1986 18.9991ZM39.5286 18.5396C39.5286 18.5396 39.3899 18.6403 39.5144 18.7009C39.6389 18.7615 39.7198 18.6659 39.7821 18.61C39.8443 18.5541 40.1525 18.3281 40.2241 18.1837C40.2956 18.0393 40.4015 17.995 40.5135 17.9205C40.6256 17.8459 41.4162 17.4522 41.9017 17.0165C42.3873 16.5809 42.185 16.6927 42.6892 16.4131C43.1934 16.1336 43.5234 15.8773 43.6292 15.5745C43.6292 15.5745 43.3958 15.6513 43.1903 15.7841C42.9849 15.9169 42.5211 16.2081 42.4278 16.2477C42.3344 16.2872 42.2037 16.2943 42.1352 16.3665C42.0667 16.4387 42.0729 16.5249 41.8301 16.7252C41.5873 16.9256 40.333 17.8108 40.1804 17.9366C40.0279 18.0626 39.5286 18.5396 39.5286 18.5396Z" fill="#5A3719"/>
<path d="M38.5194 18.8329C38.5194 18.8329 38.6563 18.7574 38.9136 18.775C39.1709 18.7925 40.1877 17.8079 40.4824 17.6091C40.777 17.4103 41.6983 16.7456 41.8229 16.6244C41.9474 16.5033 41.9681 16.3728 42.076 16.3014C42.1839 16.23 42.2835 16.2393 42.5325 16.0964C42.7815 15.9535 43.9767 15.2391 43.9062 14.8229C43.9062 14.8229 42.1258 15.8914 41.7149 16.2393C41.3041 16.5872 40.1628 17.3761 39.9595 17.5035C39.7561 17.6308 39.5942 17.8514 39.2539 18.1278C38.9136 18.4042 38.5775 18.6372 38.5194 18.8329Z" fill="#AA5323"/>
<path d="M38.1457 18.4542C38.1457 18.4542 38.4752 18.4205 38.5192 18.5816C38.5192 18.5816 39.2247 18.097 39.3866 17.8982C39.5484 17.6995 39.3326 17.8144 39.7352 17.5503C40.1377 17.2863 41.4741 16.3514 41.665 16.1836C41.8559 16.0159 42.217 15.7953 42.5074 15.5997C42.7979 15.404 43.9351 14.848 43.8064 14.3914C43.8064 14.3914 42.9722 14.9504 42.7855 15.0716C42.5987 15.1928 42.5199 15.1244 42.329 15.2735C42.1381 15.4226 41.7189 15.7208 41.6442 15.814C41.5695 15.9071 40.9304 16.3979 40.6192 16.606C40.3079 16.8142 39.6107 17.218 39.2745 17.51C38.9383 17.8019 38.2868 18.3424 38.1457 18.4542Z" fill="#AA5323"/>
<path d="M37.119 18.3586C37.119 18.3586 37.2857 18.361 37.3354 18.4263C37.3354 18.4263 37.6436 18.156 37.9715 18.4231C37.9715 18.4231 39.175 17.6093 39.2953 17.4043C39.4157 17.1993 39.6107 17.1961 40.0797 16.8545C40.5487 16.5128 40.8433 16.3699 41.1546 16.1276C41.4658 15.8854 41.7273 15.612 41.9514 15.4661C42.1755 15.3201 42.7399 14.9504 42.6445 14.6305C42.6445 14.6305 42.188 14.8914 41.8892 15.2176C41.5904 15.5437 41.6153 15.2642 41.3123 15.5375C41.0094 15.8108 40.5404 16.1835 40.1503 16.3761C39.7602 16.5688 39.9968 16.547 39.7145 16.7272C39.4323 16.9073 39.4531 16.8794 39.3493 16.9042C39.2456 16.9291 39.0879 17.0036 38.9841 17.1247C38.8803 17.2459 38.6023 17.4105 38.2994 17.5814C37.9964 17.7522 37.2515 18.1956 37.119 18.3586Z" fill="#AA5323"/>
<path d="M37.4818 17.7341C37.4818 17.7341 37.4164 17.5989 37.5316 17.5034C37.6467 17.4079 37.8553 17.1563 37.8895 16.9979C37.9238 16.8395 37.8989 16.8651 38.2319 16.7276C38.5649 16.5902 39.3213 16.2361 39.7477 15.9728C40.1741 15.7096 40.8216 15.2856 40.9554 15.1831C41.0892 15.0806 41.414 14.8523 41.5457 14.7452C41.5457 14.7452 41.609 14.9246 41.4658 15.0481C41.3227 15.1715 40.7717 15.5582 40.6815 15.6188C40.5912 15.6794 40.0839 16.0195 39.9283 16.1057C39.7726 16.1919 39.3867 16.3876 39.2497 16.5018C39.1128 16.6159 39.1304 16.6509 38.5193 16.949C37.9082 17.2472 37.8802 17.2775 37.8989 17.3008C37.9175 17.3241 38.1915 17.2053 38.3222 17.1284C38.4529 17.0516 38.954 16.8233 39.1034 16.7044C39.2528 16.5856 39.5049 16.3993 39.6139 16.3387C39.7228 16.2781 40.6254 15.7376 40.8838 15.5466C41.1421 15.3556 41.2137 15.2927 41.2697 15.3253C41.3257 15.3579 41.416 15.3603 41.3009 15.4697C41.1857 15.5792 40.8185 15.9007 40.6784 15.9939C40.5383 16.087 40.0995 16.348 39.978 16.4109C39.8566 16.4738 39.81 16.5903 39.7415 16.6392C39.673 16.6881 39.4738 16.8302 39.2311 16.8861C38.9883 16.942 38.9447 17.1237 38.786 17.2262C38.6272 17.3287 37.4976 17.9368 37.4633 17.9671C37.4633 17.9671 37.5316 17.8971 37.4818 17.7341Z" fill="#AA5323"/>
<path d="M41.3908 15.1973C41.3908 15.1973 41.3285 15.2525 41.3627 15.2836C41.4079 15.3245 41.5651 15.435 41.7611 15.2404C41.9572 15.0459 42.484 14.6219 42.6548 14.5218C42.8256 14.4216 42.9066 14.3261 42.9003 14.1886C42.9004 14.1886 42.0911 14.6196 41.3908 15.1973ZM42.5051 15.1228C42.5051 15.1228 42.6296 14.9154 42.9346 14.7198C43.2396 14.5241 43.6975 14.2392 43.7594 14.17C43.7594 14.17 43.8683 14.2935 43.6287 14.4449C43.389 14.5963 42.9221 14.9062 42.8661 14.9504C42.8101 14.9947 42.7167 15.0622 42.5051 15.1228Z" fill="#AA5323"/>
<path d="M36.3021 17.38C36.3021 17.38 35.9628 17.5617 36.0842 17.6759C36.2056 17.79 36.3862 17.7551 36.4609 17.7225C36.5356 17.6899 36.6787 17.6549 36.7005 17.648C36.7223 17.641 37.018 17.5571 37.0927 17.4197C37.1674 17.2822 37.3666 17.1238 37.5253 17.0096C37.684 16.8955 37.74 16.7814 37.7183 16.6998C37.7182 16.6998 36.3822 17.3309 36.3021 17.38ZM34.2851 18.9478C34.2851 18.9478 34.5195 18.8085 34.8485 18.8966C34.8485 18.8966 34.833 18.8164 34.7832 18.775C34.7832 18.775 35.1816 18.6706 35.2687 18.4936C35.3559 18.3165 35.3746 18.3538 35.4524 18.3025C35.5302 18.2513 36.0686 17.818 36.0064 17.7248C35.9442 17.6316 35.9317 17.5105 35.885 17.4615C35.885 17.4615 35.7729 17.6153 35.25 17.8692C34.7271 18.1231 34.1451 18.3141 33.7218 18.8849C33.2985 19.4557 33.342 19.7865 33.8587 19.9309C33.8587 19.9309 34.2229 19.7026 35.11 19.7818C35.9971 19.861 36.299 20.1941 36.355 20.2547C36.411 20.3153 36.5916 20.5342 36.4173 20.9046C36.4173 20.9046 36.5947 20.9815 36.6102 20.8115C36.6258 20.6414 36.6352 20.681 36.6756 20.7066C36.7161 20.7322 36.7659 20.7369 36.7472 20.6065C36.7285 20.476 36.6663 20.1848 36.5853 20.0846C36.5044 19.9845 36.5947 20.0287 36.6476 20.0497C36.7005 20.0707 36.8872 20.2221 36.7752 19.9425C36.6631 19.663 36.6352 19.8004 36.632 19.8144C36.6289 19.8284 36.6071 19.8983 36.3644 19.7165C36.1216 19.5348 35.9006 19.4463 35.7356 19.3997C35.5707 19.3532 35.6858 19.3531 35.7823 19.3182C35.8788 19.2832 36.0095 19.2623 36.0531 19.1552C36.0531 19.1552 35.9566 19.1784 35.7792 19.1155C35.6017 19.0526 35.2469 19.0457 34.9605 19.26C34.9605 19.26 35.0508 18.9292 34.7894 18.9478C34.5279 18.9664 34.3443 18.9594 34.0672 19.1784C34.0672 19.1784 34.0517 18.8453 34.3131 18.6729C34.5746 18.5005 34.5403 18.6054 34.6866 18.5611C34.833 18.5168 34.8454 18.3701 34.7831 18.3235C34.7831 18.3235 35.1255 18.3817 35.7013 17.9042C35.7013 17.9042 35.3919 18.3095 35.0159 18.3911C35.0159 18.3911 34.9563 18.6068 34.615 18.6543C34.2737 18.7018 34.282 18.8989 34.2851 18.9478Z" fill="#7B3C20"/>
<path d="M33.3023 20.9223C33.3023 20.9223 33.4703 19.9185 34.4104 19.8458C35.2341 19.7822 35.4956 19.8847 35.6596 19.9374C35.8235 19.9902 36.2239 20.1083 36.0683 20.2372C35.9127 20.3661 35.8235 20.3428 35.8235 20.3428C35.8235 20.3428 36.004 20.1425 35.8401 20.1083C35.6762 20.0742 35.6616 20.1735 35.6388 20.2574C35.616 20.3413 35.6056 20.4422 35.5246 20.5075C35.5246 20.5075 35.4417 20.4112 35.3234 20.4951C35.2051 20.5789 35.3067 20.582 35.3545 20.5681C35.4022 20.5541 35.4645 20.5292 35.452 20.6022C35.4396 20.6752 35.3732 20.801 35.1781 20.9035C34.9831 21.006 34.9934 20.9998 34.761 21.037C34.5287 21.0743 34.3128 21.1659 34.0161 21.4207C33.7194 21.6753 33.3947 21.5904 33.3293 21.3058C33.2733 21.0617 33.3023 20.9223 33.3023 20.9223Z" fill="#5A3719"/>
<path d="M34.3784 20.8909C34.3784 20.8909 34.4687 20.6929 34.3069 20.6021C34.3069 20.6021 33.8119 20.6869 33.6656 20.5368C33.6656 20.5368 34.2041 20.5088 34.5372 20.3784C34.8702 20.2479 34.7706 20.1571 34.6555 20.1361C34.5403 20.1152 34.3287 20.1664 34.3069 20.2713C34.3069 20.2713 34.2415 20.1595 34.3255 20.0849C34.4096 20.0103 34.5403 19.9964 34.6586 20.0313C34.7769 20.0663 34.8827 20.1175 35.2718 19.9148C35.2718 19.9148 35.4958 19.966 35.5021 20.1175C35.5083 20.2689 35.4865 20.3318 35.4678 20.3551C35.4491 20.3784 35.4211 20.4226 35.3744 20.418C35.3278 20.4133 35.2686 20.4017 35.2095 20.5065C35.1503 20.6114 35.1148 20.7022 35.0159 20.772C35.0159 20.772 35.1317 20.4459 34.8453 20.369C34.8453 20.369 34.6087 20.5088 34.4282 20.5158C34.4282 20.5159 34.6586 20.7302 34.3784 20.8909Z" fill="black"/>
<path d="M34.8951 20.2922C34.8951 20.2922 34.7861 20.1722 34.9293 20.1595C35.0725 20.1467 35.2624 20.2515 35.2251 20.34C35.1877 20.4285 35.0196 20.425 34.8951 20.2922Z" fill="#5A3719"/>
<path d="M42.9846 18.7012C42.9846 18.7012 42.7232 18.7757 42.9659 18.9365C43.2087 19.0972 43.327 19.237 43.5044 19.2836C43.6818 19.3302 43.8655 19.3954 43.8624 19.5725C43.8592 19.7495 43.825 19.8194 43.7285 19.9405C43.632 20.0617 43.7814 20.1153 43.9091 20.0454C44.0367 19.9755 44.1456 19.9383 44.2297 19.8893C44.3137 19.8403 44.4537 19.8474 44.3261 19.9126C44.1985 19.9778 44.0647 20.0174 44.2297 20.0221C44.3946 20.0267 45.3875 20.0453 45.596 19.9778C45.8046 19.9103 46.0754 19.8893 46.1003 19.619C46.1003 19.619 46.1096 19.4991 46.1874 19.449C46.2652 19.3989 46.3182 19.2836 46.2045 19.3616C46.0909 19.4397 46.0038 19.4793 45.982 19.456C45.9602 19.4327 45.9539 19.4164 46.0364 19.378C46.119 19.3396 46.1656 19.3756 46.2419 19.2627C46.3182 19.1497 46.3107 19.1683 46.2701 19.1253C46.2294 19.0821 46.1439 19.0507 46.1859 18.996C46.2279 18.9412 46.2699 18.7782 46.0879 18.8737C45.9058 18.9692 45.5473 19.2154 45.3813 19.2542C45.2153 19.2931 45.0887 19.3435 44.8646 19.389C44.6405 19.4344 44.5015 19.4825 44.2629 19.6145C44.0243 19.7465 44.0409 19.5416 44.0823 19.5136C44.0823 19.5136 44.1736 19.6735 44.4164 19.4654C44.6592 19.2573 44.5802 19.4524 45.1738 19.2573C45.7674 19.0621 45.622 19.0305 45.8544 18.9094C46.0868 18.7882 46.3068 18.7836 46.1449 18.6221C45.9831 18.4606 45.9644 18.4466 45.7548 18.6221C45.5452 18.7976 44.9663 19.0802 44.6198 19.088C44.6198 19.088 45.9582 18.5102 45.8212 18.4264C45.6843 18.3425 45.5369 18.268 45.4435 18.2478C45.3502 18.2276 45.3252 18.2043 45.1095 18.3006C44.8937 18.3968 44.8584 18.4202 44.7962 18.4264C44.7339 18.4325 44.5534 18.4683 44.2982 18.6003C44.0429 18.7323 43.906 18.7851 43.7358 18.8892C43.7358 18.8892 43.8541 18.65 44.3812 18.4916C44.9082 18.3332 45.178 18.1872 45.1199 18.1608C45.0618 18.1344 44.931 18.1127 44.8314 18.1282C44.7318 18.1437 44.7609 18.1204 44.4393 18.2478C44.1176 18.3752 44.2546 18.3472 43.9952 18.4031C43.7358 18.459 43.63 18.5165 43.5013 18.5708C43.5013 18.5708 43.5538 18.5009 43.7285 18.4368C43.8183 18.404 43.6303 18.3701 43.8795 18.36C43.8998 18.3592 43.9248 18.3651 43.9495 18.3581C44.2717 18.2657 44.6239 18.1391 44.57 18.1298C44.516 18.1204 44.2027 18.0879 43.8852 18.2338C43.5677 18.3798 43.713 18.3301 43.6009 18.3534C43.4888 18.3767 43.2523 18.5258 43.1735 18.5895C43.0945 18.6531 42.9846 18.7012 42.9846 18.7012Z" fill="white"/>
<path d="M35.1459 20.1476C35.1459 20.1476 35.2704 20.1848 35.3015 20.2722C35.3326 20.3596 35.4105 20.2338 35.4074 20.1942C35.4043 20.1546 35.328 19.9799 35.1926 20.0614C35.0572 20.1429 35.1251 20.14 35.1459 20.1476Z" fill="#5A3719"/>
<path d="M34.7986 21.874C34.7986 21.874 35.0643 21.749 35.2873 21.7645C35.2873 21.7645 35.2001 21.45 35.3557 21.5036C35.5113 21.5572 35.4678 21.5362 35.4989 21.5339C35.4989 21.5339 35.5082 21.3265 35.4677 21.245C35.4677 21.245 35.6265 21.2822 35.7883 21.2846C35.7883 21.2846 35.6358 20.9864 35.8039 20.7814C35.8039 20.7814 35.8962 20.9771 36.1037 21.026C36.1037 21.026 36.1047 20.9422 36.1037 20.8536C36.1037 20.8536 36.2272 20.8396 36.3237 20.8909C36.4202 20.9422 36.5011 20.3505 36.2147 20.22C36.2147 20.22 36.1463 20.3318 35.8786 20.3877C35.6109 20.4436 35.6131 20.4974 35.503 20.6988C35.393 20.9003 35.2966 20.9026 35.0724 21.047C34.8483 21.1914 34.7121 21.485 34.6993 21.5106C34.6994 21.5106 34.8173 21.655 34.7986 21.874Z" fill="#7B3C20"/>
<path d="M43.7283 18.4368C43.8256 18.4197 43.6301 18.3701 43.8793 18.36C43.8996 18.3591 43.9245 18.365 43.9493 18.358C44.2714 18.2656 44.6236 18.139 44.5697 18.1297C44.5158 18.1204 44.2024 18.0878 43.885 18.2337C43.5675 18.3797 43.7127 18.33 43.6007 18.3533C43.4886 18.3766 43.2521 18.5257 43.1732 18.5894C43.0944 18.653 42.9844 18.7012 42.9844 18.7012C42.9844 18.7012 42.7229 18.7757 42.9657 18.9365C43.2085 19.0972 43.3267 19.237 43.5042 19.2836C43.6816 19.3302 43.8652 19.3954 43.8621 19.5725C43.859 19.7495 43.8247 19.8194 43.7283 19.9405C43.6318 20.0617 43.7812 20.1153 43.9088 20.0454C44.0365 19.9755 44.1454 19.9382 44.2294 19.8893C44.3134 19.8403 44.4535 19.8474 44.3259 19.9126C44.1983 19.9778 44.0644 20.0174 44.2294 20.0221C44.3944 20.0267 45.3873 20.0453 45.5958 19.9778C45.8043 19.9103 46.0751 19.8893 46.1 19.619C46.1 19.619 46.1094 19.499 46.1872 19.449C46.265 19.3989 46.3179 19.2836 46.2043 19.3616C46.0907 19.4397 46.0035 19.4793 45.9817 19.456C45.9599 19.4327 45.9537 19.4164 46.0362 19.378C46.1187 19.3396 46.1654 19.3756 46.2417 19.2627C46.3179 19.1497 46.3104 19.1683 46.2698 19.1253C46.249 19.1031 46.2163 19.0841 46.1951 19.0634C46.1951 19.0634 46.1353 19.0111 46.0658 19.0554C45.9963 19.0996 45.6913 19.2285 45.5689 19.2433C45.4464 19.258 45.3199 19.31 45.0999 19.4172C44.8799 19.5243 44.5147 19.7426 44.4566 19.5399C44.4566 19.5399 44.2973 19.5967 44.2626 19.6144C44.0173 19.7394 44.0387 19.562 44.082 19.5135C44.082 19.5135 43.9534 19.6579 43.9586 19.5266C43.9637 19.3954 44.0467 19.4179 44.1899 19.376C44.3331 19.3341 44.5593 19.2409 44.4659 19.1632C44.3725 19.0856 44.2739 19.2403 44.1702 19.2876C44.0664 19.3349 43.8589 19.3768 43.8268 19.2261C43.7946 19.0755 43.7956 18.9706 43.5145 18.9543C43.2334 18.9381 43.2437 18.7625 43.3205 18.6872C43.3972 18.6119 43.4648 18.483 43.7283 18.4368Z" fill="#999999"/>
<path d="M44.6218 19.7991C44.6218 19.7991 45.0597 19.5972 45.4622 19.5024C45.8647 19.4077 45.5494 19.5149 45.4809 19.5366C45.4124 19.5583 44.7858 19.7649 44.6385 19.8332C44.4911 19.9016 44.5215 19.8431 44.6218 19.7991ZM44.7235 19.8876C44.7235 19.8876 45.2153 19.7246 45.3066 19.7929C45.3979 19.8612 45.3232 19.827 45.2153 19.8426C45.1074 19.8581 44.8107 19.9078 44.7318 19.9062C44.6529 19.9047 44.7235 19.8876 44.7235 19.8876ZM45.512 19.7168C45.512 19.7168 45.6054 19.6997 45.6158 19.7339C45.6262 19.7681 45.5743 19.7728 45.5224 19.7665C45.4705 19.7603 45.4249 19.7307 45.512 19.7168Z" fill="black"/>
<path d="M32.5231 24.0017C32.5231 24.0017 32.5047 23.57 32.7226 23.351C32.9404 23.132 33.9987 22.0307 34.1606 21.7228C34.1606 21.7228 34.2975 21.818 34.3037 21.9928C34.3037 21.9928 34.4811 21.6872 34.6212 21.5721C34.6212 21.5721 34.7457 21.6992 34.7239 21.9531C34.7239 21.9531 34.9791 21.818 35.3744 21.8157C35.3744 21.8157 35.2282 21.9881 35.2219 22.0883C35.2219 22.0883 35.7698 22.0277 36.0561 22.0743C36.0561 22.0743 35.3029 22.4959 35.5145 22.5332C35.7261 22.5705 35.9471 22.5309 35.9471 22.5309C35.9471 22.5309 35.7075 22.7755 35.3246 22.8244C35.3246 22.8244 35.8101 22.8174 35.9066 22.9269C35.9066 22.9269 35.4335 22.9991 35.0538 23.288C35.0538 23.288 35.0184 23.2717 35.0158 23.1645C35.0158 23.1645 35.004 23.26 34.8951 23.3508C34.7861 23.4417 34.5247 23.6351 34.4282 23.7329C34.3317 23.8308 34.1512 24.0241 33.9582 24.0148C33.9582 24.0148 34.0017 23.8657 33.8586 23.8191C33.7154 23.7725 33.5504 23.8051 33.4353 23.9286C33.4353 23.9286 32.9248 23.9356 32.763 23.9589C32.763 23.9589 32.8781 23.7749 32.9839 23.7795C33.0898 23.7841 33.5162 23.8424 33.5535 23.5512C33.5909 23.26 33.2796 23.3369 33.3979 23.1645C33.5162 22.9921 33.4881 22.9991 33.4913 22.9828C33.4913 22.9828 33.3948 23.0364 33.3388 23.1902C33.2828 23.3439 33.2423 23.4627 33.0399 23.6165C32.8376 23.7702 32.7538 23.8633 32.6978 23.9705C32.6979 23.9706 32.6056 23.9834 32.5231 24.0017Z" fill="white"/>
<path d="M33.0139 23.7407C33.0139 23.7407 33.0305 23.6817 33.1799 23.6568C33.3292 23.632 33.3355 23.5606 33.3168 23.5295C33.2981 23.4984 33.2089 23.4984 33.3542 23.3338C33.3542 23.3338 33.406 23.3478 33.4413 23.3882C33.4766 23.4285 33.6405 23.7796 33.0139 23.7407Z" fill="white"/>
<path d="M32.6552 23.4358C32.663 23.7235 33.04 23.6166 33.04 23.6166C32.9057 23.7187 32.8236 23.794 32.7672 23.8645C32.7921 23.7248 32.5546 23.6898 32.5546 23.6898C32.5741 23.6043 32.6054 23.5139 32.6552 23.4358ZM34.0415 21.8983C34.0961 21.8269 34.1374 21.7669 34.1606 21.7229C34.1606 21.7229 34.2975 21.8181 34.3037 21.9928C34.3037 21.9928 34.4811 21.6873 34.6212 21.5721C34.6212 21.5721 34.7457 21.6993 34.7239 21.9532C34.7239 21.9532 34.9791 21.8181 35.3744 21.8158C35.3744 21.8158 35.2281 21.9882 35.2219 22.0883C35.2219 22.0883 35.7697 22.0277 36.056 22.0743C36.056 22.0743 35.3028 22.496 35.5144 22.5333C35.7261 22.5705 35.9471 22.5309 35.9471 22.5309C35.9471 22.5309 35.7074 22.7755 35.3246 22.8244C35.3246 22.8244 35.8101 22.8175 35.9066 22.927C35.9066 22.927 35.7684 22.948 35.5814 23.0131C35.5814 23.0131 35.4418 22.8819 35.0372 22.9006C35.0372 22.9006 35.3519 22.7245 35.6015 22.6676C35.6015 22.6676 35.4915 22.5232 35.3193 22.6552C35.3193 22.6552 34.9769 22.4191 35.2592 22.2188C35.2592 22.2188 35.0599 22.1768 34.9292 22.27C34.9292 22.27 34.9355 22.1085 35.0807 22.0355C35.0807 22.0355 34.6968 21.9734 34.6014 22.256C34.6014 22.256 34.5288 22.1395 34.5619 22.0075C34.5619 22.0075 34.3296 22.1412 34.2237 22.2926C34.2238 22.2926 34.1888 22.0055 34.0415 21.8983ZM33.2975 23.7242C33.2286 23.7412 33.1364 23.7484 33.0141 23.7408C33.0141 23.7408 33.0246 23.7036 33.1036 23.6759C33.1036 23.6759 33.1263 23.7231 33.2975 23.7242Z" fill="#999999"/>
<path d="M33.9955 22.6358C33.9955 22.6358 34.1698 22.7732 34.2321 22.8571C34.2321 22.8571 34.3908 22.7453 34.4499 22.6545C34.4499 22.6545 34.5745 22.736 34.618 22.8571C34.618 22.8571 34.7052 22.7965 34.7238 22.7127C34.7238 22.7127 34.9436 22.7593 35.0158 22.8315C35.0158 22.8315 35.0494 22.6195 35.0158 22.4867C35.0158 22.4867 35.1689 22.4984 35.2623 22.538C35.2623 22.538 35.1755 22.3982 35.6189 22.2188C35.6189 22.2188 35.2836 22.2908 35.1565 22.4378C35.1565 22.4378 35.0133 22.4448 34.951 22.4005C34.951 22.4005 34.9604 22.6148 34.9542 22.7174C34.9542 22.7174 34.8678 22.6824 34.6993 22.6428C34.6993 22.6428 34.6585 22.7127 34.6305 22.729C34.6305 22.729 34.5246 22.6451 34.478 22.538C34.478 22.538 34.3161 22.685 34.2539 22.7476C34.2539 22.7476 34.1014 22.6405 33.9955 22.6358Z" fill="black"/>
<path d="M32.9931 24.8166C32.9931 24.8166 33.0616 24.8492 33.2234 24.7187C33.3853 24.5882 33.8428 24.297 33.8864 24.0641C33.9299 23.8311 33.7401 23.8171 33.5906 23.8847C33.4413 23.9522 33.5035 24.0827 33.5097 24.1246C33.516 24.1665 33.5191 24.3296 33.2763 24.5556C33.0335 24.7817 32.9931 24.8166 32.9931 24.8166Z" fill="#FFC221"/>
<path d="M32.9405 24.8909C32.9405 24.8909 32.5732 24.7371 32.9031 24.5718C33.233 24.4064 33.3793 24.3621 33.4167 24.2246C33.454 24.0871 33.4322 24.1105 33.3108 24.1687C33.1894 24.227 32.7226 24.4366 32.651 24.241C32.651 24.241 32.844 24.3155 33.0836 24.199C33.3233 24.0826 33.5194 24.0476 33.3669 23.9987C33.2144 23.9498 32.6634 24.0103 32.5732 24.0359C32.4829 24.0616 32.5047 24.0569 32.4891 24.1477C32.4736 24.2386 32.3708 24.4296 32.3335 24.4855C32.2962 24.5414 32.2059 24.7744 32.374 24.8769C32.542 24.9794 32.8085 24.9724 32.9405 24.8909Z" fill="#FFC221"/>
<path d="M32.7974 24.0895C32.7974 24.0895 32.7132 24.1011 32.7288 24.1338C32.7444 24.1664 32.7663 24.1617 32.7974 24.164C32.8284 24.1663 32.8751 24.1478 32.8813 24.1268C32.8875 24.1058 32.8286 24.0826 32.7974 24.0895Z" fill="black"/>
<path d="M32.9187 24.8094C32.9187 24.8094 32.7444 24.7255 32.9405 24.6184C33.1366 24.5112 33.3482 24.4087 33.3762 24.3644C33.3762 24.3644 33.2829 24.4972 32.9187 24.8094Z" fill="white"/>
</svg>
