<svg width="54" height="54" viewBox="0 0 54 54" fill="none" xmlns="http://www.w3.org/2000/svg">
<mask id="mask0_1_34064" style="mask-type:alpha" maskUnits="userSpaceOnUse" x="3" y="9" width="48" height="36">
<path d="M3.56934 18.1356C4.16681 13.4125 8.0415 10.0019 12.7861 9.60887C16.6412 9.28949 21.6196 9 27 9C32.3804 9 37.3588 9.28949 41.2139 9.60887C45.9585 10.0019 49.8332 13.4125 50.4307 18.1356C50.752 20.6759 51 23.704 51 27C51 30.296 50.752 33.3241 50.4307 35.8644C49.8332 40.5875 45.9585 43.9981 41.2139 44.3911C37.3588 44.7105 32.3804 45 27 45C21.6196 45 16.6412 44.7105 12.7861 44.3911C8.04151 43.9981 4.16681 40.5875 3.56934 35.8644C3.248 33.3241 3 30.296 3 27C3 23.704 3.248 20.6759 3.56934 18.1356Z" fill="#00D0BF"/>
</mask>
<g mask="url(#mask0_1_34064)">
<rect x="3" y="9" width="48" height="36" fill="#2E50A6"/>
<path d="M52 43.5772L5.9523 27L52 10.4228V43.5772Z" fill="#F5F5F5" stroke="#EE5757" stroke-width="2"/>
</g>
<path d="M34.5247 28.0376C34.8889 28.0656 34.8764 28.4267 34.8764 28.4267L36.166 28.4554C36.331 28.0058 36.5022 28.0579 36.8155 28.2799C37.1132 28.4909 37.438 28.5851 37.438 28.5851C37.5625 27.9398 38.4776 28.0703 38.4776 28.0703C38.8677 27.1384 38.9009 27.1508 38.6685 27.0328C38.4361 26.9148 38.3413 26.7151 38.3413 26.7151C38.1207 26.4489 38.0045 26.0637 37.9796 25.8274C37.9547 25.5912 37.6808 25.9457 37.631 25.8711C37.5812 25.7966 37.1745 25.8401 37.1745 25.8401C37.2741 25.9457 36.9338 25.8836 36.9338 25.8836C36.967 25.9084 36.9338 26.0078 36.9338 26.0078C36.9006 25.9643 36.6433 25.9208 36.6433 25.9208C36.6184 25.9767 36.5603 26.0388 36.5603 26.0388C36.4192 25.9767 36.137 25.9891 36.137 25.9891C35.722 25.9829 35.473 26.1134 35.3568 26.1817C35.2405 26.2501 34.8255 26.4613 34.4852 26.7905C34.1449 27.1198 33.954 27.0825 33.954 27.0825C33.8544 27.4491 33.041 27.8963 33.041 27.8963C32.9083 28.0144 32.5015 28.0703 32.2941 27.8963C32.0866 27.7224 32.2941 27.4118 32.2941 27.4118C32.3708 27.2666 32.4469 27.2726 32.4554 26.7687C32.4611 26.4279 32.8129 26.1577 33.1739 25.7617C33.6153 25.2775 34.2322 24.4804 34.2322 24.4804C34.2353 24.725 34.3691 24.7646 34.3691 24.7646C34.4905 24.5154 34.6648 24.315 34.6648 24.315C34.6741 24.336 34.6991 24.35 34.6991 24.35C34.836 24.1636 34.92 24.0891 34.92 24.0891C34.8734 24.0704 34.4905 24.0891 34.1325 24.4012C33.7746 24.7134 33.5287 24.6086 33.5287 24.6086C33.2797 24.5293 33.2579 24.3383 33.2579 24.3383C33.0761 23.556 33.7902 22.9965 33.7902 22.9965C32.8315 22.7682 33.5225 21.5521 34.7115 21.0349C35.9004 20.5178 35.888 20.2848 35.888 20.2848C35.9564 20.364 36.0125 20.5038 36.0125 20.5038C36.025 20.4944 36.1121 20.364 36.7969 20.0611C37.4816 19.7583 37.8115 19.4973 37.8115 19.4973C37.8987 19.6651 37.88 19.7862 37.88 19.7862C39.7537 19.1293 41.5995 17.622 41.5995 17.622C41.6524 17.7478 41.6244 17.9388 41.6244 17.9388C41.9294 17.6569 43.0313 17 43.0313 17C43.05 17.4193 42.7045 17.5801 42.7045 17.5801C42.7419 17.6407 42.7636 17.7501 42.7636 17.7501C42.9441 17.6522 43.7845 17.0652 43.7845 17.0652C44.0926 17.3307 43.8125 17.7664 43.8125 17.7664C43.9215 17.7501 44.0024 17.6546 44.0024 17.6546C44.0802 18.1065 43.5791 18.5049 43.5791 18.5049C43.6663 18.5073 43.8125 18.421 43.8125 18.421C43.7192 18.9149 42.7823 19.4624 42.7823 19.4624C42.9192 19.5835 42.7885 19.7443 42.6765 19.8165C42.5644 19.8887 42.3652 20.0471 42.4275 20.1124C42.4897 20.1776 42.9037 19.8864 42.9037 19.8864C42.9753 20.0937 42.443 20.5014 42.443 20.5014C42.8134 20.5503 43.8437 20.0821 43.8437 20.0821C43.7596 20.4805 43.3706 20.7903 42.8912 20.9697C42.4119 21.1491 42.4368 21.177 42.4368 21.177C42.5208 21.2446 43.1838 21.0513 43.1838 21.0513C42.9846 21.4962 42.2936 21.8014 42.2936 21.8014C42.4835 21.9622 42.7418 21.7758 43.0001 21.5988C43.2585 21.4217 43.6102 21.2703 43.9992 21.1398C44.3883 21.0094 44.6622 21.1072 44.6622 21.1072C44.9859 21.0047 45.2598 21.1491 45.2598 21.1491C45.8823 21.2004 45.9446 21.4264 45.9446 21.4264C46.013 21.4427 46.066 21.4706 46.2247 21.5871C46.3834 21.7036 46.3741 22.0647 46.3679 22.2418C46.3616 22.4188 46.3118 22.4188 46.2807 22.4678C46.2496 22.5167 46.2464 22.5726 46.2464 22.6402C46.2464 22.7077 46.0908 23.1271 45.129 23.1317C44.1673 23.1363 43.6713 23.1317 43.6713 23.1317C43.592 23.1317 43.497 23.1783 43.497 23.1783C43.0924 23.3787 43.3061 23.0417 42.8247 23.4377C42.3434 23.8337 42.0985 23.7654 42.0985 23.7654C42.0196 23.8601 41.5154 24.3291 41.227 24.5155C40.9385 24.7019 40.9904 24.6848 41.2415 24.7935C41.4926 24.9023 41.8723 24.7935 41.8723 24.7935C41.6295 24.9551 41.7976 25.0296 41.7976 25.0296C42.1172 24.8354 42.3101 24.9069 42.3101 24.9069C42.4118 25.1849 42.0466 25.6245 42.0466 25.6245C42.1877 25.6431 42.4533 25.6245 42.4533 25.6245C42.389 25.8124 42.1234 26.019 41.9283 26.0826C41.7332 26.1463 41.7685 26.1711 41.8266 26.2892C41.8847 26.4072 41.8349 26.5268 41.8349 26.5268C41.4946 26.2907 41.4822 26.5019 41.4822 26.5019C41.4429 26.7817 41.449 27.1822 41.449 27.1822C41.2083 27.0611 41.1958 27.2226 41.1958 27.2226C41.1336 27.4773 40.8389 27.7724 40.8389 27.7724C40.8264 27.614 40.6812 27.5736 40.6812 27.5736C40.5277 27.8686 40.2454 28.0457 40.2454 28.0457C40.2081 28.3004 40.2787 28.6577 40.2787 28.6577C40.0961 28.6204 40.0297 28.6235 40.0006 28.667C39.9715 28.7105 40.0421 28.7322 40.0421 28.7322L42.4201 28.7912C42.4534 28.7944 42.5944 28.8099 42.5986 29.0677C42.6027 29.3255 42.3911 29.3379 42.3911 29.3379L39.789 29.2758C39.789 29.2758 39.8014 29.3472 39.6645 29.4187C39.5275 29.4902 39.5731 29.3379 39.5358 29.6578C39.4984 29.9778 38.9796 29.633 38.9796 29.633C38.8966 29.7572 38.6933 29.9188 38.6933 29.9188C38.5771 29.5677 38.4567 29.4591 38.27 29.7635C38.0832 30.0679 38.6061 30.0151 38.6061 30.0151C38.6061 30.0151 41.6606 29.5647 41.8266 29.5492C41.9926 29.5336 42.1752 29.5429 42.2499 29.7759C42.3246 30.0089 41.8805 30.0462 41.8805 30.0462L38.7472 30.3878C38.6808 30.5742 38.4194 30.5587 38.4194 30.5587C38.4401 30.7357 38.2534 30.8476 38.1579 30.9128C38.0624 30.9781 37.7637 30.947 37.7637 30.947C37.3985 31.1955 37.22 30.9998 37.22 30.9998C36.9835 31.1023 36.834 31.0588 36.639 30.9749C36.4439 30.891 36.4606 30.655 36.4606 30.655L34.4831 30.86C34.3897 30.8926 34.3254 30.9547 34.3254 30.9547C34.3959 31.0448 34.1837 31.2541 34.1837 31.2541C34.2429 31.2949 34.3565 31.409 34.372 31.656C34.3885 31.9172 34.053 31.9612 34.2211 32.1429C34.3891 32.3246 34.6957 32.1744 35.0381 32.0101C35.3805 31.8459 35.7166 31.8669 35.8629 31.868C36.0092 31.8691 36.417 31.9717 36.6706 32.0614C36.9243 32.151 37.0114 32.0975 37.0285 31.967C37.0456 31.8365 37.1593 31.7993 37.1593 31.7993C37.1281 31.9274 37.1967 31.9845 37.1967 31.9845C37.2947 31.9915 37.4659 31.896 37.4659 31.896C37.4503 31.9903 37.3258 32.0497 37.3258 32.0497C37.0768 32.2163 37.4192 32.1546 37.4192 32.1546C38.1009 32.0148 38.3436 32.0288 38.521 32.0474C38.6985 32.0661 39.5357 32.4225 39.5357 32.4225C39.5669 32.3386 39.5451 32.1313 39.5451 32.1313C39.7599 32.1896 39.847 32.313 39.847 32.313C39.9279 32.2245 39.875 32.0754 39.875 32.0754C40.566 32.4621 39.7319 32.6368 39.5109 32.7114C39.2899 32.7859 39.293 32.8768 39.293 32.8768C39.4767 32.8185 39.6042 32.7975 39.7568 32.7859C39.9093 32.7743 39.8564 32.7836 40.2206 32.7114C40.5848 32.6391 40.7715 32.7929 40.7715 32.7929C40.4665 32.8092 40.3763 32.9 40.3763 32.9C40.5692 33.0328 40.3856 33.1447 40.3856 33.1447C40.1086 32.7952 39.872 33.1587 39.872 33.1587C39.9669 33.1447 40.2456 33.2029 40.3249 33.253C40.3863 33.2918 40.5303 33.3625 40.7093 33.4452C40.962 33.562 40.9147 33.4871 41.1108 33.5617C41.3068 33.6363 41.2322 33.8249 41.2322 33.8249C41.1482 33.6712 40.9676 33.6176 40.9676 33.6176C40.9521 33.8249 40.7435 33.8599 40.7435 33.8599C40.9988 33.5756 40.4478 33.4522 40.1895 33.4568C39.9312 33.4615 39.7382 33.6269 39.7382 33.6269C40.258 34.1138 40.619 33.9554 40.619 33.9554C40.5537 34.1324 40.1241 34.0625 40.1241 34.0625C40.3234 34.2139 40.3016 34.3211 40.3016 34.3211C40.1957 34.2186 40.0214 34.2699 39.648 34.0276C39.2745 33.7853 38.9414 33.8646 38.9414 33.8646C39.3056 34.2536 38.8076 34.4842 38.8076 34.4842C38.6239 34.5891 38.8854 34.7312 38.8854 34.7312C38.6551 34.7731 38.6239 34.5425 38.6239 34.5425C38.5025 34.5192 38.3282 34.666 38.3282 34.666C38.3407 34.4283 38.6519 34.5472 38.6613 34.3002C38.6706 34.0532 38.3718 33.8623 37.4909 33.9834C36.6101 34.1045 36.3517 33.8227 36.3517 33.8227C36.277 33.825 36.2614 33.8995 36.2614 33.8995C36.4077 34.0393 36.4731 34.0975 36.4482 34.1954C36.4233 34.2933 36.4949 34.3259 36.4949 34.3259C36.333 34.3165 36.3206 34.1232 36.3206 34.1232C36.3175 34.2025 36.2832 34.2095 36.2303 34.2933C36.1774 34.3771 36.2272 34.4843 36.2272 34.4843C36.1587 34.4237 36.0342 34.3515 36.1525 34.1791C36.2436 34.0464 35.9626 33.8763 35.9626 33.8763C35.8537 33.7645 35.5642 33.8693 35.5642 33.8693C34.9635 33.988 34.6118 33.6084 34.6118 33.6084C34.5433 33.6084 34.4126 33.5711 34.4126 33.5711C33.7776 33.8553 33.2205 33.2403 33.2205 33.2403C32.7412 33.3312 32.5233 33.1005 32.377 32.8745C32.2307 32.6485 32.2027 32.6299 32.0097 32.5135C31.8167 32.397 31.6363 32.0674 31.8136 31.8938C31.9682 31.7424 31.9226 31.7074 31.9226 31.7074C31.6736 31.2889 32.3666 31.1539 32.3791 31.0537C32.3972 30.9076 32.542 30.8152 32.6976 30.8058C32.8532 30.7965 32.8532 30.8105 32.9559 30.7057C33.0586 30.6008 33.2547 30.7313 33.2547 30.7313C33.2952 30.701 33.6376 30.4354 33.9426 30.5729C34.2477 30.7104 34.4998 30.6125 34.4998 30.6125C34.7146 30.5659 36.498 30.3236 36.498 30.3236C36.6132 30.1513 36.6941 29.9439 37.1859 29.8321C37.6777 29.7203 38.0512 29.4151 38.0512 29.4151C37.964 29.3219 37.8178 29.3266 37.7431 29.3172C37.6684 29.3079 37.5128 29.1751 37.5128 29.1751C37.4225 29.2147 37.3762 29.1953 36.7315 29.5874C36.1557 29.9377 36.1391 29.2427 36.1391 29.2427L34.8827 29.245C34.8609 29.5105 34.6586 29.6154 34.6586 29.6154L34.2011 29.6387C33.9458 29.5035 33.9427 29.054 33.9427 29.054C32.5608 29.0749 31.792 29.5688 31.792 29.5688C30.2263 28.7674 29 28.5857 29 28.5857C30.9018 28.3783 31.9071 27.8495 31.9071 27.8495C32.956 28.4785 33.9427 28.4948 33.9427 28.4948C33.9801 28.1151 34.2353 28.0219 34.2353 28.0219L34.5247 28.0376V28.0376Z" fill="black"/>
<path d="M32.2636 31.1933C31.8662 31.4264 31.9381 31.5536 31.9727 31.6252C32.008 31.6982 32.0121 31.7681 31.9042 31.8768C31.7963 31.9856 31.8067 32.0233 31.8067 32.0233C31.8233 32.4096 32.0969 32.4916 32.211 32.5863C32.3065 32.6657 32.4686 32.9143 32.4686 32.9143C32.672 33.2063 32.8877 33.2093 33.0475 33.2093C33.2073 33.2093 33.1931 33.1958 33.1118 33.1239C33.0354 33.0563 32.8753 32.9252 32.8753 32.9252C33.089 32.9997 33.2923 33.2233 33.2923 33.2233C33.6961 33.6652 34.0684 33.607 34.2323 33.5852C34.3962 33.5635 34.3672 33.4687 34.3672 33.4687C34.3585 33.453 34.1991 33.4407 34.1991 33.4407C33.5932 33.3833 33.4106 32.9857 33.4106 32.9857C33.7758 33.3445 34.3485 33.4175 34.5249 33.4109C34.7012 33.4042 34.6909 33.4547 34.6535 33.4641C34.6161 33.4734 34.5622 33.4641 34.4813 33.4578C34.4003 33.4516 34.4003 33.4718 34.419 33.506C34.4377 33.5401 34.5139 33.5436 34.6104 33.5401C34.7069 33.5366 34.6291 33.5471 34.8796 33.7416C35.1302 33.9362 35.7543 33.7789 35.7543 33.7789C35.3512 33.6788 35.2952 33.497 35.2952 33.497C34.7474 33.5611 34.5248 33.2326 34.5248 33.2326C34.4268 33.1348 34.1341 32.9835 34.1341 32.9835C33.8245 32.8506 33.7762 32.5704 33.7762 32.5704C33.8634 32.6944 34.033 32.8366 34.2478 32.896C34.4625 32.9554 34.5232 32.9868 34.5232 32.9868C34.4205 33.002 34.3598 32.9682 34.3598 32.9682C34.145 32.9053 34.2664 32.9927 34.2664 32.9927C34.503 33.1814 34.5684 33.1674 34.5684 33.1674C35.1893 33.2315 34.8812 32.9834 34.8812 32.9834C35.3232 33.0883 35.3963 32.9228 35.3963 32.9228C35.4881 33.1173 35.8227 33.0474 35.8227 33.0474C35.3776 33.2617 35.7154 33.2005 35.7154 33.2005C36.1651 33.1162 36.2533 33.2307 36.2533 33.2307C36.375 33.3439 36.4982 33.3282 36.4982 33.3282C36.4982 33.3282 36.5791 33.3305 36.7503 33.3648C36.9215 33.3991 37.1829 33.5448 37.4319 33.514C37.6809 33.4832 37.7214 33.5613 37.7214 33.5613C37.6747 33.5452 37.5658 33.5286 37.3728 33.6148C37.1798 33.701 36.8468 33.7289 36.3612 33.6148C35.8757 33.5006 35.8383 33.5146 35.8383 33.5146C35.9535 33.6008 36.0562 33.722 36.078 33.8058C36.0998 33.8896 36.1838 33.8943 36.1838 33.8943C36.2181 33.7872 36.3643 33.7406 36.3643 33.7406C36.4601 33.8291 36.7161 33.9456 36.7161 33.9456C36.7441 33.8873 36.7161 33.8466 36.7161 33.8466C36.9028 34.0248 37.1207 33.9712 37.1207 33.9712C37.1797 33.9294 37.1612 33.8291 37.1612 33.8291C37.2359 33.8267 37.2483 33.8733 37.3012 33.9083C37.3541 33.9433 37.5222 33.9199 37.5222 33.9199C37.4599 33.8943 37.4163 33.7988 37.4163 33.7988C37.6622 33.6288 38.1945 33.7033 38.1945 33.7033C38.5789 33.7708 38.5306 34.0224 38.5306 34.0224C38.6084 34.0597 38.7111 34.1762 38.7111 34.1762C38.7438 34.0877 38.7143 33.998 38.7143 33.998C38.8901 34.0818 38.9275 34.2868 38.9275 34.2868C39.1313 34.0539 38.7329 33.7918 38.7329 33.7918C38.9259 33.7673 39.1391 33.7848 39.2683 33.8034C39.3975 33.8221 39.5827 33.8897 39.7336 34.0155C39.8846 34.1412 40.1554 34.1995 40.1554 34.1995C40.1471 34.1475 40.0029 34.0597 39.9702 34.0411C39.9376 34.0224 39.9236 33.977 39.9236 33.977C40.0558 34.0003 40.1476 33.9887 40.1476 33.9887C39.6823 33.7044 39.5656 33.5694 39.5656 33.5694C39.7399 33.5915 39.8364 33.4831 39.8364 33.4831C39.4691 33.4913 39.4567 33.3958 39.4567 33.3958C39.5018 33.4086 39.6683 33.4494 39.8878 33.4063C40.1072 33.3632 40.4122 33.4074 40.4122 33.4074C40.2535 33.1523 39.6387 33.1954 39.4427 33.2059C39.2466 33.2164 39.1703 33.1908 39.1703 33.1908C39.2015 33.1756 39.2342 33.143 39.3882 33.1419C39.5423 33.1407 39.6932 33.1535 39.8675 33.0335C40.0418 32.9135 40.281 32.9531 40.281 32.9531C40.2229 32.8382 39.9469 32.7978 39.7041 32.9531C39.4614 33.1084 39.2414 33.0588 39.2414 33.0588C39.6253 33.0044 39.7373 32.8693 39.7373 32.8693C39.6211 32.8413 39.5568 32.8786 39.3265 32.9236C39.0961 32.9686 39.0339 32.8895 39.0339 32.8895C39.287 32.7388 39.4634 32.6782 39.4634 32.6782C39.2476 32.6332 39.0484 32.5411 39.0484 32.5411C38.8243 32.7518 38.65 32.8708 38.2205 32.6456C37.7909 32.4204 37.5669 32.4468 37.5669 32.4468C37.9445 32.2232 38.3325 32.3195 38.6148 32.4887C38.897 32.658 38.9779 32.5198 38.9779 32.5198C38.8887 32.4639 38.9011 32.4157 38.9011 32.4157C39.5859 32.7652 39.8826 32.5478 40.0341 32.4452C40.1856 32.3427 39.9656 32.2061 39.9656 32.2061C39.9511 32.4282 39.671 32.5291 39.451 32.4546C39.2311 32.3801 39.0277 32.2853 38.7113 32.1533C38.3949 32.0213 37.9985 32.0896 37.6292 32.1673C37.2598 32.2449 37.2121 32.2077 37.1789 32.1782C37.1456 32.1487 37.127 32.0586 36.9382 32.1363C36.7493 32.2139 36.3094 32.0074 36.0355 31.9421C35.7616 31.8769 35.3132 31.9126 34.9254 32.1254C34.5375 32.3382 34.3465 32.2854 34.2302 32.2325C34.114 32.1797 34.0414 32.0338 34.1659 31.9033C34.2905 31.7728 34.3008 31.7371 34.2905 31.5491C34.2801 31.3612 34.0954 31.2494 34.0954 31.2494C34.2655 31.0739 34.3071 31.0351 34.2489 30.959C34.1908 30.8829 34.2822 30.8844 34.3797 30.8409C34.4772 30.7975 34.4336 30.7912 34.4108 30.7338C34.388 30.6763 34.332 30.6857 34.332 30.6857C34.1058 30.695 33.9813 30.6329 33.9813 30.6329C33.6067 30.4605 33.2592 30.7959 33.2592 30.7959C33.0464 30.6329 32.9977 30.7384 32.9603 30.7788C32.923 30.8192 32.8483 30.8472 32.7487 30.8565C32.6581 30.8649 32.5211 30.9004 32.4737 30.985C32.4737 30.985 32.4317 31.0531 32.484 31.1275C32.484 31.1275 32.5422 31.2152 32.4364 31.3212C32.3306 31.4272 32.2932 31.4528 32.3259 31.553C32.3586 31.6531 32.3492 31.73 32.3088 31.7952C32.3088 31.7952 32.2606 31.7393 32.273 31.6706C32.2855 31.6019 32.2855 31.5623 32.2699 31.525C32.2699 31.525 32.1657 31.6275 32.147 31.7009C32.147 31.7009 32.1034 31.5879 32.2543 31.4365C32.4053 31.2851 32.474 31.2097 32.4318 31.1511C32.4006 31.108 32.2902 31.1778 32.2636 31.1933V31.1933Z" fill="#FFC221"/>
<path d="M32.6925 32.8632C32.6925 32.8632 32.5037 32.7187 32.5265 32.5184C32.5494 32.318 32.5456 32.2932 32.5246 32.2512C32.5246 32.2512 32.4902 32.2712 32.4912 32.3491C32.4922 32.4222 32.4819 32.4982 32.4746 32.5121C32.4746 32.5121 32.3771 32.346 32.3377 32.3149C32.3377 32.3149 32.3709 32.141 32.3169 32.0664C32.263 31.9919 32.2108 31.9872 32.1489 32.0105C32.0632 32.0427 31.9985 32.1223 32.2864 32.3584C32.2864 32.3584 32.3937 32.4438 32.4685 32.6333C32.5432 32.8228 32.6677 32.8523 32.6925 32.8632V32.8632ZM33.6284 32.3087C33.6284 32.3087 33.6139 32.1953 33.7156 31.995C33.8173 31.7946 33.7563 31.6458 33.7334 31.596C33.7106 31.5463 33.6969 31.5648 33.7994 31.4787C33.9257 31.3727 33.7508 31.239 33.9583 31.0532C33.9583 31.0532 34.0953 30.9358 34.1264 30.8876C34.1264 30.8876 33.9065 31.0057 33.7633 31.0647C33.6201 31.1237 33.0723 31.3923 33.1927 31.5725C33.313 31.7526 33.3006 31.762 33.2819 31.8365C33.2819 31.8365 32.9561 31.6641 33.0702 31.3846C33.0702 31.3846 33.122 31.272 33.2591 31.1454C33.3836 31.0305 33.3088 31.1703 33.562 31.0258C33.562 31.0258 33.7633 30.9062 33.8691 30.7447C33.8691 30.7447 33.7363 30.8286 33.6885 30.8426C33.6885 30.8426 33.3959 30.8953 33.2777 31.0196C33.1594 31.1438 32.9083 31.3597 32.9934 31.6004C32.9934 31.6004 32.7008 31.5647 32.6344 31.2603C32.6344 31.2603 32.0928 31.9281 33.2299 32.2387C33.23 32.2388 33.4375 32.294 33.6284 32.3087V32.3087Z" fill="black"/>
<path d="M38.6301 30.0759C39.0548 30.0117 41.5159 29.6398 41.7396 29.6171C41.9844 29.5923 42.0782 29.5596 42.1587 29.7569C42.25 29.9805 41.8226 29.9836 41.8226 29.9836L38.8884 30.3163C38.7445 30.3329 38.7123 30.278 38.7123 30.278C38.6869 30.2311 38.6379 30.1687 38.604 30.1278C38.604 30.1278 38.5654 30.0857 38.6301 30.0759V30.0759Z" fill="#FFC221"/>
<path d="M32.6199 31.4108C32.6199 31.4108 32.3024 32.0794 33.5505 32.2448C33.5505 32.2448 33.5536 32.1703 33.6034 32.0654C33.6532 31.9606 33.7622 31.7486 33.6594 31.6111C33.5567 31.4737 33.7435 31.5459 33.7715 31.3665C33.7995 31.1871 33.7528 31.2127 33.84 31.0963C33.84 31.0963 33.4478 31.2384 33.2984 31.4108C33.149 31.5832 33.5007 31.7136 33.2921 31.9023C33.2921 31.9023 33.1178 31.8394 33.0151 31.6507C33.0152 31.6507 32.7724 31.6554 32.6199 31.4108V31.4108Z" fill="#5A3719"/>
<path d="M33.84 32.2321C33.84 32.2321 34.1481 32.4988 34.5154 32.4872C34.8827 32.4755 35.0383 32.3777 35.1317 32.2321C35.1317 32.2321 35.2031 32.3449 35.2033 32.4196C35.2033 32.4196 35.5207 32.1563 36.0686 32.3846C36.6164 32.6129 36.4483 32.5502 36.5697 32.5664C36.5697 32.5664 36.3368 32.525 35.804 32.769C35.2562 33.0199 33.8275 32.9344 33.84 32.2321V32.2321Z" fill="black"/>
<path d="M33.3295 31.0522C33.3295 31.0522 33.468 31.0732 33.6065 30.9171C33.6065 30.9171 33.4198 30.952 33.3295 31.0522ZM32.2829 32.2939C32.2829 32.2939 32.0253 32.0912 32.1903 32.0516C32.1903 32.0516 32.3078 32.033 32.2829 32.2939Z" fill="#5A3719"/>
<path d="M37.8893 33.5613C37.8893 33.5613 38.0263 33.3165 38.4216 33.3165C38.8169 33.3165 38.8636 33.4983 39.3616 33.5332C39.3616 33.5332 38.7636 33.7017 38.3469 33.5472C38.129 33.4664 37.9329 33.5336 37.8893 33.5613V33.5613Z" fill="black"/>
<path d="M33.9769 32.4103C33.9769 32.4103 34.5683 32.7691 35.0943 32.38C35.0943 32.38 35.1379 32.422 35.1753 32.5175C35.1753 32.5175 35.5736 32.133 36.2864 32.5477C36.2864 32.5477 36.1988 32.538 35.8631 32.6829C35.4258 32.8716 34.3318 32.9951 33.9769 32.4103V32.4103Z" fill="#5A3719"/>
<path d="M36.2584 32.7738C36.2584 32.7738 36.8248 32.8395 37.3042 32.8111C37.5987 32.7936 37.9174 32.7397 37.7586 32.8395C37.5999 32.9392 37.6777 32.9485 38.3562 32.8857C39.0348 32.8228 38.35 33.0138 38.8169 33.0743C38.8169 33.0743 37.6853 33.652 36.2584 32.7738Z" fill="black"/>
<path d="M37.7462 32.4127C37.7462 32.4127 38.0792 32.2915 38.3874 32.4359C38.6955 32.5804 38.6489 32.5921 38.8543 32.613C38.8543 32.613 38.7111 32.818 38.3719 32.6526C38.0326 32.4872 37.9427 32.4553 37.7462 32.4127ZM38.1166 33.4354C38.1166 33.4354 38.4434 33.2724 38.8046 33.4418C38.8498 33.463 38.9483 33.5039 39.041 33.5239C39.041 33.5239 38.7643 33.6097 38.4807 33.5215C38.3629 33.4849 38.2691 33.4564 38.1166 33.4354ZM36.5012 32.8506C36.5012 32.8506 37.2295 32.9181 37.6248 32.8394C37.6248 32.8394 37.1672 33.0603 38.3158 32.9578C38.3158 32.9578 38.571 32.9298 38.5398 32.9694C38.5087 33.009 38.4901 33.0393 38.6145 33.0765C38.6146 33.0766 37.7618 33.4586 36.5012 32.8506V32.8506Z" fill="#5A3719"/>
<path d="M32.8625 32.2321C32.8625 32.2321 32.8687 32.288 33.0306 32.3602C33.1924 32.4324 33.2796 32.5617 33.3138 32.6316C33.3481 32.7015 33.4305 32.8061 33.5644 32.8394C33.5644 32.8394 32.9934 32.9586 32.7375 32.6615C32.7375 32.6615 32.5435 32.4476 32.8563 32.2321" fill="black"/>
<path d="M37.3572 33.5495C37.3572 33.5495 37.13 33.5355 36.8219 33.4283C36.5137 33.3212 36.4328 33.412 36.2585 33.2816C36.0842 33.1511 35.7325 33.2326 35.6671 33.2419C35.6018 33.2513 35.415 33.2419 35.6485 33.0905C35.6485 33.0905 35.4617 33.0859 35.3901 32.9927C35.3901 32.9927 35.3061 33.0742 34.9917 33.0439C34.9917 33.0439 35.1318 33.2639 34.5684 33.2005C34.5684 33.2005 34.7365 33.3957 34.9388 33.4353C35.1412 33.4749 35.2255 33.4618 35.3559 33.4237C35.3559 33.4237 35.3185 33.5937 35.58 33.659C35.8414 33.7242 35.8943 33.7754 36.0282 33.829C36.0282 33.829 36.0469 33.7195 35.6983 33.4656C35.6983 33.4656 35.885 33.4562 36.1527 33.5215C36.4203 33.5867 37.0272 33.7428 37.3572 33.5495V33.5495ZM37.4983 33.8104C37.4983 33.8104 37.5543 33.9408 37.7265 33.9113C37.8988 33.8818 38.182 33.8313 38.4559 33.9711C38.4559 33.9711 38.5026 33.7381 37.9527 33.7218C37.9527 33.7218 37.6083 33.7405 37.4983 33.8104V33.8104ZM32.842 32.3147C32.842 32.3147 32.6303 32.4887 32.8222 32.6696C32.9976 32.8349 33.2684 32.8203 33.398 32.8156C33.398 32.8156 33.3202 32.7714 33.2518 32.6689C33.1833 32.5664 33.1809 32.4971 33.037 32.4312C32.8876 32.3629 32.8699 32.3451 32.842 32.3147V32.3147ZM32.6199 31.4109C32.6199 31.4109 32.3024 32.0795 33.5505 32.2449C33.5505 32.2449 33.5536 32.1703 33.6034 32.0655C33.6532 31.9606 33.7622 31.7487 33.6594 31.6112C33.5567 31.4737 33.7435 31.546 33.7715 31.3666C33.7995 31.1872 33.7528 31.2128 33.84 31.0963C33.84 31.0963 33.4478 31.2384 33.2984 31.4108C33.149 31.5832 33.5007 31.7137 33.2921 31.9024C33.2921 31.9024 33.1178 31.8395 33.0151 31.6508C33.0152 31.6508 32.7724 31.6555 32.6199 31.4109V31.4109Z" fill="#5A3719"/>
<path d="M35.9005 32.9533C35.9005 32.9533 36.162 32.9114 36.828 33.1607C37.4941 33.41 37.7711 33.3471 37.8707 33.3401C37.8707 33.3401 37.495 33.5364 36.9131 33.2801C36.3986 33.0535 36.3643 33.1397 35.9005 32.9533V32.9533Z" fill="black"/>
<path d="M40.0702 32.804C40.0702 32.804 40.2223 32.7988 40.3109 32.8405C40.3109 32.8405 40.369 32.7908 40.508 32.7761C40.508 32.7761 40.4167 32.6844 40.0702 32.804V32.804ZM39.6148 32.4352C39.6148 32.4352 39.7673 32.4282 39.813 32.3552C39.813 32.3552 39.7362 32.2574 39.6189 32.2108C39.6189 32.2107 39.6428 32.3148 39.6148 32.4352V32.4352ZM34.4967 30.733C34.4967 30.733 34.4687 30.6585 34.6274 30.6351C34.7862 30.6119 36.8612 30.316 36.8612 30.316C36.8612 30.316 36.9712 30.3158 36.9867 30.3882C37.0036 30.4665 36.9743 30.525 36.4732 30.5836C35.9721 30.6421 34.6492 30.8075 34.6492 30.8075C34.6492 30.8075 34.5091 30.8309 34.4967 30.733Z" fill="#FFC221"/>
<path d="M36.5209 30.6437C36.5209 30.6437 36.5209 30.9372 36.8197 30.9807C37.1096 31.0229 37.2093 30.9626 37.2866 30.81C37.3069 30.7699 37.3958 30.4634 37.2671 30.44C37.2165 30.4308 37.1267 30.4361 37.0625 30.4635C36.9625 30.5062 36.8698 30.5563 36.9028 30.6064C36.9733 30.7135 36.9871 30.7384 36.9608 30.7462C36.8892 30.7674 36.8364 30.7044 36.8218 30.6608C36.8036 30.6063 36.8613 30.5713 36.6662 30.6002C36.5864 30.612 36.5209 30.6095 36.5209 30.6437V30.6437Z" fill="#FFC221"/>
<path d="M37.7638 30.4181C37.9165 30.4357 37.9049 30.7587 37.7223 30.9047C37.5257 31.0619 37.338 31.0056 37.338 31.0056C37.2388 30.9637 37.2513 30.9777 37.328 30.8612C37.4007 30.751 37.435 30.6025 37.3944 30.4993C37.3815 30.4663 37.4173 30.4396 37.4679 30.4287C37.468 30.4286 37.6062 30.3999 37.7638 30.4181V30.4181Z" fill="#FFC221"/>
<path d="M37.8966 30.4465C37.8966 30.4465 38.0056 30.5836 37.8696 30.8363C37.8696 30.8363 37.8094 30.9108 37.9443 30.8999C38.0792 30.889 38.3801 30.7446 38.3489 30.5598C38.3489 30.5598 38.3385 30.5148 38.2597 30.5194C38.1808 30.5241 38.2452 30.4759 38.2784 30.4666C38.3116 30.4573 38.4143 30.4193 38.1477 30.2476C38.1477 30.2476 38.1037 30.208 38.0522 30.2243C38.0116 30.2372 37.8696 30.2955 37.8696 30.3781C37.8696 30.412 37.8966 30.4465 37.8966 30.4465V30.4465Z" fill="#FFC221"/>
<path d="M38.1882 30.2143C38.1882 30.2143 38.4009 30.3667 38.3999 30.412C38.3988 30.4573 38.3801 30.5187 38.4362 30.5133C38.4922 30.5078 38.7226 30.4589 38.6592 30.3067C38.596 30.1545 38.5326 30.1009 38.4258 30.0637C38.3189 30.0264 38.292 30.0769 38.2007 30.146C38.2007 30.146 38.1343 30.1863 38.1882 30.2143V30.2143ZM37.0376 30.4294C37.0376 30.4294 37.0729 30.316 36.882 30.2741C36.882 30.2741 36.9629 30.2073 37.1247 30.2431C37.2855 30.2785 37.2683 30.3844 37.2671 30.3983C37.2671 30.3983 37.1413 30.3936 37.0376 30.4294ZM37.4526 30.403C37.4526 30.403 37.6738 30.3642 37.7722 30.3766C37.7722 30.3766 37.6632 30.1328 37.3686 30.2158C37.3686 30.2158 37.4744 30.3355 37.4526 30.403ZM37.8313 30.3424C37.8313 30.3424 37.8313 30.2679 38.0191 30.1933C38.0191 30.1933 37.9279 30.1075 37.8012 30.1156C37.656 30.125 37.6269 30.1778 37.6269 30.1778C37.6269 30.1778 37.7846 30.2325 37.8313 30.3424ZM37.9049 30.0877C37.9049 30.0877 38.0212 30.1172 38.0938 30.1793C38.0938 30.1793 38.2039 30.0591 38.2971 30.0333C38.2971 30.0333 38.1145 29.9355 37.9049 30.0877Z" fill="#FFC221"/>
<path d="M31.795 29.5007C31.795 29.5007 32.3077 29.0663 32.595 29.1186C32.8821 29.1709 32.7381 29.1349 33.0525 29.086C33.3669 29.0371 33.6906 29.0045 33.8213 29.0208C33.8213 29.0208 33.4416 28.7482 32.763 28.7529C32.763 28.7529 32.2837 28.9183 31.9537 29.1373C31.9537 29.1373 31.3188 28.7831 30.662 28.9951C30.662 28.9951 31.3748 29.2537 31.795 29.5007Z" fill="#5A3719"/>
<path d="M37.2466 30.2531L37.3322 30.2387C37.3322 30.2387 37.4767 30.4176 37.3717 30.4196C37.2897 30.4213 37.3228 30.3944 37.3073 30.3424C37.2917 30.2903 37.2638 30.2671 37.2466 30.2531ZM36.6024 30.2671C36.6024 30.2671 36.551 30.3309 36.6475 30.316C36.765 30.2978 36.7424 30.3199 36.8716 30.2325C36.8716 30.2325 36.951 30.1482 37.0988 30.2007C37.0988 30.2007 37.2233 30.2414 37.3244 30.1925C37.4256 30.1436 37.449 30.1471 37.5034 30.1518C37.5578 30.1564 37.5542 30.1682 37.6269 30.1151C37.6995 30.0621 37.8255 30.1028 37.9049 30.0364C37.9843 29.97 38.0839 30.0259 37.9049 29.8978C37.9049 29.8978 37.8676 29.8605 37.8707 29.8291C37.8707 29.8291 37.9391 29.8489 37.9936 29.8978C38.0481 29.9467 38.1383 29.9316 38.1539 29.9234C38.1539 29.9234 38.1633 29.7638 38.322 29.6171C38.4807 29.4703 38.4823 29.4587 38.3889 29.4575C38.2956 29.4563 38.1383 29.4202 38.0855 29.4575C38.0326 29.4947 37.5672 29.7999 37.2964 29.8511C37.0257 29.9025 36.7767 29.9793 36.6024 30.2671V30.2671ZM29.3766 28.5975C29.3766 28.5975 30.2076 28.8118 30.3944 28.9019C30.3944 28.9019 30.439 28.7629 30.0613 28.6542C30.0613 28.6542 30.9785 28.6262 31.9496 29.0673C31.9496 29.0673 32.4177 28.6659 33.9241 28.7902C33.9241 28.7902 33.9271 28.6571 33.9375 28.5548C33.9375 28.5548 32.8792 28.5238 31.9081 27.9336C31.9081 27.9335 31.0387 28.3614 29.3766 28.5975V28.5975ZM33.9956 28.999C33.9375 28.1494 34.2632 28.0734 34.2632 28.0734C34.2632 28.0734 34.4167 28.0742 34.5828 28.0998C34.5828 28.0998 34.3255 28.4057 34.3939 29.013C34.3939 29.013 34.4209 29.1108 34.203 29.1108C33.9886 29.1108 33.9956 28.999 33.9956 28.999V28.999Z" fill="#FFC221"/>
<path d="M34.2176 29.5613C34.2176 29.5613 34.0599 29.3997 34.0433 29.2134C34.0433 29.2134 34.0391 29.1652 34.1989 29.1699C34.3587 29.1745 34.3795 29.1545 34.4188 29.2475C34.4571 29.3379 34.5578 29.5286 34.5828 29.5504L34.2176 29.5613V29.5613Z" fill="#5A3719"/>
<path d="M34.5588 29.1371C34.5444 29.026 34.5388 28.9312 34.5413 28.8142C34.5517 28.3405 34.6303 28.3826 34.6615 28.4417L34.8235 28.4446C34.8235 28.4446 34.7052 27.9104 34.5662 28.2225C34.4296 28.5292 34.4396 28.7288 34.4562 28.9711C34.4658 29.1106 34.4842 29.1975 34.4998 29.2498L34.5588 29.1371Z" fill="#FFC221"/>
<path d="M36.3891 29.1384C36.3891 29.1384 36.7019 29.1861 36.2226 29.3003C36.2226 29.3003 36.2459 29.8795 36.8124 29.4738C36.8124 29.4738 37.147 29.2599 37.3789 29.1729C37.3789 29.1729 37.4956 29.1325 37.4816 29.0452C37.4816 29.0452 37.4909 28.9423 37.3695 28.9624C37.3695 28.9624 37.2739 28.9647 37.2123 28.9422C37.2123 28.9422 37.1454 28.8634 37.1003 28.8937C37.0551 28.924 36.9493 28.9065 37.0318 29.0067C37.1143 29.1069 37.1392 29.0812 37.1797 29.0521C37.2201 29.023 37.3991 28.952 37.2341 29.0999C37.0692 29.2478 36.94 29.0183 36.8871 28.9764L36.3891 29.1384V29.1384ZM34.8235 29.204L34.6845 29.2009C34.6845 29.2009 34.6098 29.3127 34.5588 29.1371L34.4998 29.2497C34.4998 29.2497 34.672 29.8716 34.8235 29.204Z" fill="#5A3719"/>
<path d="M34.6264 28.4865C34.6264 28.4865 34.5558 28.8934 34.6451 29.145L36.1495 29.173C36.1495 29.173 36.1308 28.881 36.1536 28.4866H35.9399C35.9399 28.4866 35.9109 28.8142 35.9379 29.0161L35.9026 29.0168C35.9026 29.0168 35.8756 28.7335 35.9046 28.4866H35.7283C35.7283 28.4866 35.6992 28.7894 35.722 29.0192H35.6888C35.6888 29.0192 35.6639 28.7537 35.693 28.4866H35.5187C35.5187 28.4866 35.4866 28.7608 35.5209 29.0155L35.4793 29.0146C35.4793 29.0146 35.444 28.7366 35.4813 28.4866H35.2884C35.2884 28.4866 35.2407 28.7428 35.2863 29.0177H35.2468C35.2468 29.0177 35.2033 28.7552 35.251 28.4866H35.058C35.058 28.4866 35.0124 28.777 35.0518 29.0177H35.0144C35.0144 29.0177 34.9832 28.7366 35.0248 28.4866H34.8442C34.8442 28.4866 34.7965 28.7319 34.8359 29.0177H34.7965C34.7965 29.0177 34.7674 28.8049 34.8048 28.4866H34.6264V28.4865ZM36.2159 29.2289C36.2159 29.2289 36.1742 28.4927 36.3155 28.3033C36.4567 28.1139 36.4856 28.1511 36.7263 28.3033C36.967 28.4555 37.2783 28.6201 37.3281 28.6387C37.3779 28.6574 37.4485 28.676 37.4485 28.8096C37.4485 28.9432 37.4734 28.9835 37.2658 28.8158C37.2348 28.7907 37.1377 28.7019 37.0677 28.6795C36.8817 28.6202 37.1124 28.7212 37.1787 28.8158C37.2349 28.896 37.2783 28.8872 37.1331 28.9245C36.9878 28.9619 36.4856 29.1295 36.2159 29.2289Z" fill="#FFC221"/>
<path d="M36.7425 28.7017C36.7425 28.7017 36.6335 28.5641 36.7721 28.5326C36.9106 28.5012 36.9214 28.7504 36.9448 28.9007C36.9682 29.0509 36.7705 28.7488 36.7425 28.7017V28.7017ZM36.5402 29.3433C36.5402 29.3433 36.3784 29.4027 36.4842 29.4551C36.59 29.5075 36.8888 29.2595 36.7862 29.2757C36.6834 29.2921 36.5402 29.3433 36.5402 29.3433ZM36.7597 29.1162C36.7597 29.1162 36.9028 29.1022 36.8748 29.1639C36.8468 29.2257 36.7954 29.1865 36.7737 29.1728C36.7518 29.1593 36.6507 29.1243 36.7597 29.1162V29.1162Z" fill="black"/>
<path d="M37.5221 28.9236C37.5221 28.9236 37.5605 29.204 37.8012 29.275C37.8012 29.275 37.9402 29.3096 37.9112 29.1869C37.9112 29.1869 37.8873 29.0844 37.8676 29.0417C37.8479 28.9989 37.7514 28.9718 37.741 28.9671C37.7307 28.9625 37.7182 28.933 37.7846 28.9547C37.851 28.9765 37.8614 28.9788 37.8562 28.9322C37.851 28.8856 37.812 28.9044 37.751 28.8746C37.7275 28.8631 37.7535 28.8476 37.7784 28.8531C37.8033 28.8585 37.8625 28.8763 37.8635 28.7801C37.8635 28.7801 37.8767 28.7265 37.8033 28.7226C37.7234 28.7183 37.7297 28.6826 37.7546 28.6772C37.7795 28.6718 37.8631 28.7297 37.8863 28.6344C37.9102 28.5366 37.7711 28.5929 37.7898 28.5424C37.8085 28.4919 37.907 28.5713 37.9152 28.5114C37.9232 28.4531 38.0028 28.4278 37.8672 28.409C37.8029 28.4001 37.8623 28.3716 37.9346 28.3817C38.0119 28.3926 38.0586 28.2971 38.1032 28.266C38.1478 28.235 38.4 28.0843 38.0638 28.134C37.7276 28.1837 37.6291 28.3468 37.6073 28.3794C37.5854 28.4119 37.492 28.6045 37.5221 28.9236V28.9236Z" fill="#FFC221"/>
<path d="M38.3053 29.1409C38.3485 29.1326 38.3893 29.1443 38.404 29.1744C38.4593 29.288 38.3324 29.2474 38.2619 29.3313C38.1913 29.4152 38.1893 29.3981 38.0896 29.3687C37.99 29.3394 37.9527 29.1884 37.9527 29.1884C37.9416 29.1421 37.9846 29.1382 38.0362 29.1441C38.0362 29.1441 38.2013 29.1609 38.3053 29.1409V29.1409ZM37.9412 29.0805C37.9412 29.0805 37.9482 29.1145 38.0053 29.1191C38.0623 29.1238 38.2281 29.1382 38.3267 29.1064C38.3267 29.1064 38.363 29.0992 38.3467 29.035C38.3467 29.035 38.3454 28.9934 38.2566 29.0102C38.1679 29.0271 38.0395 29.0102 37.9968 29.0009C37.954 28.9916 37.9192 29.0017 37.9412 29.0805V29.0805ZM37.9277 28.8771C37.9277 28.8771 37.9246 28.9656 38.0139 28.9772C38.1031 28.9889 38.2142 28.9884 38.2605 28.9793C38.2958 28.9723 38.3594 28.9594 38.3645 28.9074C38.3697 28.8553 38.3843 28.8165 38.2743 28.8437C38.1643 28.8709 38.0315 28.853 38.018 28.8499C38.0045 28.8468 37.9298 28.8243 37.9277 28.8771V28.8771ZM37.9682 28.6985C37.9682 28.6985 37.9464 28.7388 37.9495 28.7777C37.9527 28.8165 38.017 28.8297 38.1332 28.8313C38.2494 28.8329 38.3531 28.8158 38.3604 28.7769C38.3677 28.7381 38.3957 28.6931 38.3044 28.707C38.2131 28.721 38.0979 28.7249 38.0523 28.7063C38.0066 28.6876 37.9759 28.6811 37.9682 28.6985Z" fill="#FFC221"/>
<path d="M42.2345 29.1489C42.2345 29.1489 42.233 29.2298 42.2967 29.3096L39.0714 29.217C39.0714 29.217 39.1184 29.1879 39.1305 29.0623L42.2345 29.1489Z" fill="#5A3719"/>
<path d="M37.9942 28.5649C37.9942 28.5649 37.9662 28.6465 38.0243 28.6628C38.0824 28.6791 38.182 28.6969 38.3138 28.676C38.3138 28.676 38.3802 28.6807 38.403 28.61C38.4258 28.5394 38.4235 28.579 38.2359 28.5417C38.2359 28.5417 38.1768 28.5244 38.348 28.5238C38.348 28.5238 38.4435 28.5269 38.458 28.5106C38.4726 28.4943 38.5991 28.3941 38.4352 28.4003C38.2713 28.4065 38.3522 28.3716 38.4352 28.3716C38.5182 28.3716 38.5441 28.3887 38.5711 28.3622C38.5981 28.3358 38.5732 28.3537 38.5285 28.3086C38.4839 28.2636 38.515 28.2768 38.5472 28.3016C38.5794 28.3265 38.5991 28.3342 38.6354 28.3024C38.6717 28.2705 38.6074 28.224 38.6354 28.2294C38.6634 28.2348 38.6769 28.288 38.7827 28.2368C38.8885 28.1855 39.0317 28.2123 39.0706 28.2414C39.1095 28.2705 39.22 28.3078 39.2869 28.2391C39.3539 28.1703 39.2075 28.1144 39.2698 28.1051C39.3321 28.0957 39.3757 28.1179 39.4006 28.0678C39.4255 28.0177 39.3041 27.97 39.4208 27.9385C39.5375 27.9071 39.4395 27.5798 39.399 27.5495C39.399 27.5495 39.2683 27.6264 39.1251 27.8582C38.9819 28.0899 38.8979 28.2251 38.7033 28.154C38.4227 28.0515 38.2792 28.1989 38.2358 28.2255C38.1685 28.2666 38.3765 28.2868 38.2551 28.2891C38.1337 28.2915 38.1337 28.3019 38.1213 28.3206C38.1089 28.3392 38.1197 28.3556 38.1415 28.3567C38.1633 28.3579 38.21 28.4045 38.1353 28.4021C38.0606 28.3998 38.0077 28.3881 38.0296 28.4675C38.0296 28.4675 38.031 28.4848 38.0746 28.4895C38.1182 28.4941 38.1337 28.5396 38.0528 28.5396C38.0009 28.5397 37.9957 28.5598 37.9942 28.5649V28.5649ZM38.2925 29.3737C38.2925 29.3737 38.2349 29.4144 38.3143 29.4191C38.3937 29.4237 38.4357 29.4389 38.4605 29.3963C38.4855 29.3538 38.5928 29.3713 38.5212 29.3119C38.4497 29.2525 38.4014 29.2863 38.2925 29.3737Z" fill="#FFC221"/>
<path d="M38.6254 28.4034C38.6254 28.4034 38.894 28.1507 39.1185 28.3219C39.3429 28.4931 39.3647 28.5188 39.3678 28.5223C39.3709 28.5258 39.3942 28.5444 39.3335 28.598C39.2728 28.6516 39.3319 28.6504 39.3989 28.6178C39.4658 28.5852 39.4704 28.6154 39.5031 28.6515C39.5358 28.6877 39.5795 28.7086 39.476 28.7098C39.3724 28.7109 39.1499 28.7098 39.1499 28.7098C39.1499 28.7098 38.9989 28.7226 39.0752 28.6609C39.1515 28.5991 39.1405 28.5258 39.1016 28.5211C39.0627 28.5165 39.0985 28.5584 39.0752 28.5875C39.0518 28.6166 38.9989 28.6434 38.946 28.6423C38.8931 28.6411 38.8464 28.6806 38.9304 28.7109C39.0145 28.7413 38.9211 28.7612 38.8775 28.76C38.834 28.7588 38.6238 28.7762 38.8371 28.8019C39.0503 28.8275 38.8179 28.8213 38.974 28.9105C39.1468 29.0092 39.0223 29.2189 38.9569 29.2375C38.9569 29.2375 38.8854 29.2765 38.9756 29.2657C39.0659 29.255 39.1157 29.2422 39.0519 29.2911C38.9881 29.34 38.8605 29.5031 38.6831 29.3784C38.6831 29.3784 38.6022 29.34 38.7469 29.333C38.8916 29.326 38.6286 29.2951 38.5851 29.2657C38.5415 29.2363 38.375 29.0663 38.4792 29.0873C38.5835 29.1082 38.5461 29.0476 38.4839 29.0255C38.4216 29.0034 38.4092 28.9079 38.4792 28.9288C38.5493 28.9498 38.6317 28.9888 38.6878 28.9862C38.7438 28.9836 38.7283 28.9603 38.6084 28.923C38.4886 28.8857 38.4387 28.8799 38.4668 28.7786C38.4948 28.6773 38.6255 28.8182 38.5944 28.7425C38.5633 28.6667 38.4497 28.7041 38.5104 28.6038C38.5711 28.5037 38.5851 28.5467 38.6131 28.5596C38.6411 28.5724 38.6859 28.5629 38.6069 28.5037C38.557 28.4663 38.6113 28.4158 38.6254 28.4034V28.4034Z" fill="#FFC221"/>
<path d="M38.8185 28.4733C38.8185 28.4733 38.8169 28.4395 38.8652 28.4453C38.9134 28.4512 38.9009 28.4279 38.9149 28.4209C38.9289 28.4139 39.0497 28.4568 38.9367 28.4977C38.895 28.5129 38.8294 28.5021 38.8185 28.4733Z" fill="black"/>
<path d="M39.0753 28.7598C39.0753 28.7598 38.9845 28.8061 39.0667 28.9013C39.1368 28.9825 39.1364 29.0082 39.1305 29.0622C39.1246 29.1162 42.2345 29.1488 42.2345 29.1488C42.2345 29.1488 42.229 28.949 42.3621 28.8367C42.3621 28.8367 40.6627 28.7971 39.0753 28.7598V28.7598Z" fill="#FFC221"/>
<path d="M42.2874 29.0941C42.2874 29.0941 42.3 28.9256 42.3933 28.8698C42.4446 28.839 42.5124 28.8569 42.5419 28.9928C42.584 29.186 42.4203 29.3503 42.3442 29.277C42.2718 29.2071 42.2874 29.0941 42.2874 29.0941Z" fill="#5A3719"/>
<path d="M38.7238 29.8208C38.7238 29.8208 38.9307 29.6449 38.9619 29.5657C38.9619 29.5657 39.5222 29.9626 39.4879 29.5981C39.4879 29.5981 39.4895 29.5004 39.505 29.4073C39.505 29.4073 39.7076 29.4271 39.7384 29.2654L39.2155 29.25C39.2155 29.25 39.161 29.2384 39.0801 29.3257C38.9992 29.4131 38.8327 29.5087 38.677 29.4253C38.677 29.4253 38.6119 29.3688 38.5456 29.4165C38.4794 29.4643 38.4762 29.4783 38.5307 29.5295C38.5852 29.5808 38.702 29.7381 38.7238 29.8208ZM39.9268 28.7247L39.6202 28.713C39.6202 28.713 39.5081 28.5558 39.2903 28.3811C39.2903 28.3811 39.2265 28.3531 39.3494 28.2553C39.4723 28.1574 39.5081 28.0526 39.5128 28.0048C39.5175 27.9571 39.5051 27.8826 39.5517 27.9396C39.5984 27.9967 39.9159 28.2832 39.961 28.1982C40.0062 28.1132 40.0139 28.0736 40.0217 28.048C40.0296 28.0223 40.0404 27.9431 40.0856 28.0258C40.1307 28.1086 40.1617 28.0874 40.1634 28.3019C40.1634 28.3019 40.1711 28.5139 40.2039 28.5908C40.2038 28.5908 39.8022 28.4621 39.9268 28.7247V28.7247ZM38.5961 28.0724C38.5961 28.0724 38.8295 28.2029 38.9447 28.0258C39.0599 27.8487 39.1377 27.8208 39.0506 27.6507C38.9634 27.4807 39.053 27.4015 39.1187 27.3316C39.1844 27.2617 39.2404 27.2733 39.2498 27.0031C39.2591 26.7328 39.4459 26.642 39.5299 26.5581C39.614 26.4743 39.8256 26.3461 39.505 26.2926C39.1844 26.239 38.5495 26.0736 38.3845 25.8267C38.2195 25.5797 38.1448 25.7265 38.1417 25.7358C38.1386 25.7451 38.0857 25.9268 38.2507 26.2553C38.4156 26.5838 38.5557 26.795 38.7145 26.9014C38.8732 27.0078 39.0164 27.066 38.9354 27.285C38.8545 27.504 38.7144 27.8954 38.5961 28.0724V28.0724Z" fill="#7B3C20"/>
<path d="M39.4581 27.374C39.4581 27.374 39.4986 27.9354 39.9095 28.1358C39.9095 28.1358 40.0029 27.9168 39.9655 27.7001C39.9655 27.7001 40.0993 27.7117 40.1367 27.7723C40.1367 27.7723 40.1429 27.6093 39.9499 27.5498C39.7569 27.4905 39.8503 27.1247 39.9188 27.0828C39.9872 27.0409 39.9654 26.9679 39.9188 26.9019C39.8721 26.8359 39.8596 26.7357 40.0215 26.7776C40.1833 26.8195 40.1584 26.7334 40.062 26.6541C39.9655 26.5749 39.9686 26.4771 40.1055 26.4771C40.2425 26.4771 40.4697 26.3443 40.3327 26.3024C40.1958 26.2604 40.1522 26.2162 40.339 26.1626C40.5257 26.109 40.616 26.0414 40.4759 26.0252C40.3358 26.0089 40.2425 25.9599 40.3794 25.9366C40.5163 25.9134 40.3545 25.7736 40.1957 25.7666C40.037 25.7596 39.6946 25.8248 39.9654 25.6082C40.2362 25.3916 39.5763 25.55 39.8471 25.4078C40.1179 25.2657 39.7569 25.3286 39.7071 25.3263C39.6573 25.324 39.6579 25.3263 39.6762 25.2541C39.6946 25.1818 39.6386 25.1492 39.5608 25.1935C39.483 25.2377 39.483 25.2377 39.4861 25.1376C39.4892 25.0374 39.3927 25.112 39.3336 25.1376C39.2744 25.1632 39.125 25.275 39.0659 25.2145C39.0068 25.1539 38.9725 25.091 38.7889 25.2028C38.6052 25.3146 38.6488 25.2145 38.6519 25.1656C38.655 25.1167 38.7235 24.9233 38.4714 25.1306C38.2193 25.3379 38.4247 24.9069 38.2255 25.0537C38.0263 25.2005 38.0045 25.2261 37.9734 25.1609C37.9423 25.0956 37.9046 25.0421 37.6853 25.1818C37.466 25.3216 37.6279 25.098 37.659 25.0491C37.6901 25.0002 37.7835 24.6833 37.5905 24.9303C37.5905 24.9303 37.4972 25.1027 37.2886 24.7951C37.2886 24.7951 37.0676 25.1006 37.0116 24.9654C36.9556 24.8301 36.8995 24.8161 36.8279 24.9046C36.7563 24.9932 36.8092 24.9 36.7781 24.8254C36.747 24.7508 36.7284 24.6134 36.3611 24.8813C35.9938 25.1492 36.4887 24.9536 36.2086 25.0747C35.9284 25.1958 35.253 25.5779 35.8724 25.4894C36.4918 25.4008 35.5705 25.7316 35.7853 25.7922C36.0001 25.8528 35.9315 26.0391 36.7377 25.8179C37.5439 25.5966 37.4131 25.7829 37.824 25.6059C38.2348 25.4288 37.7306 25.6664 38.2815 25.6548C38.8325 25.6431 38.3749 25.6571 38.4807 25.7712C38.5866 25.8854 39.0534 26.1556 39.4892 26.1999C39.9249 26.2442 40.0308 26.0811 39.9063 26.2698C39.7817 26.4585 39.7382 26.5307 39.6635 26.5959C39.5888 26.6612 39.3833 26.8102 39.3802 27.0712C39.3771 27.3321 39.0379 27.3741 39.1624 27.6629C39.1625 27.6628 39.3555 27.4765 39.4581 27.374V27.374Z" fill="#5A3719"/>
<path d="M40.175 28.0018C40.175 28.0018 40.0754 27.9319 40.0774 27.8077C40.0774 27.8077 40.148 27.8201 40.175 27.8651C40.175 27.8651 40.4261 27.5809 40.1262 27.4785C39.8264 27.3759 39.9757 27.1042 40.0774 27.1026C40.1791 27.101 40.1968 27.0731 40.1112 26.9597C40.0255 26.8463 40.0318 26.8417 40.2019 26.8122C40.3721 26.7827 40.349 26.7469 40.2733 26.705C40.1978 26.6631 40.1398 26.5948 40.1398 26.5948C40.1398 26.5948 40.6211 26.3851 40.4654 26.2888C40.3097 26.1925 40.4654 26.2174 40.6044 26.118C40.7434 26.0186 40.7621 25.9999 40.7829 25.9611C40.7829 25.9611 40.6454 25.9751 40.544 25.9549C40.544 25.9549 40.6641 25.8958 40.544 25.798C40.4239 25.7001 40.3741 25.6116 40.1832 25.6566C39.9923 25.7017 40.0545 25.638 40.1292 25.5588C40.2039 25.4795 40.1686 25.4345 40.0338 25.4144C40.0338 25.4144 40.0504 25.3336 40.1521 25.2326C40.1521 25.2326 39.8927 25.2513 39.8056 25.2062C39.8056 25.2062 39.9093 25.1348 39.9176 25.0494C39.9176 25.0494 39.7745 25.096 39.5939 25.0789C39.5939 25.0789 39.6998 24.9872 39.6998 24.9065C39.6998 24.9065 39.3865 24.9764 39.2412 25.0866C39.2412 25.0866 39.21 25.0804 39.1852 25.0462C39.1603 25.0121 39.1416 24.9779 38.795 25.0882C38.795 25.0882 38.8345 24.9344 38.9175 24.8723C39.0005 24.8101 38.988 24.6859 38.4485 25.0229C38.4485 25.0229 38.3759 24.9794 38.3157 24.8179C38.3157 24.8179 38.1995 24.9825 38.1103 25.0384C38.1103 25.0384 38.0356 25.0698 38.0449 24.9648C38.0543 24.8599 37.992 24.9347 37.936 24.9648C37.88 24.995 37.8426 25.0695 37.8706 24.8575C37.8987 24.6455 37.7959 24.6013 37.7959 24.6013C37.7959 24.6013 37.6279 24.8389 37.5314 24.8645C37.5314 24.8645 37.3539 24.6921 37.2917 24.578C37.2295 24.4638 37.2295 24.4219 37.1672 24.6199C37.105 24.8179 37.0271 24.8342 37.0271 24.8342C37.0271 24.8342 36.9213 24.7433 36.9088 24.6944C36.9088 24.6944 36.8902 24.748 36.856 24.7713C36.856 24.7713 36.7626 24.6618 36.7657 24.5034C36.7657 24.5034 36.1868 24.8225 36.1152 25.0159C36.1152 25.0159 35.5674 24.9833 35.3402 25.0253C35.3402 25.0253 35.3962 24.8482 35.5394 24.7597C35.5394 24.7597 35.3962 24.7434 35.39 24.5967C35.39 24.5967 35.5052 24.6129 35.5768 24.5943C35.6483 24.5757 35.4772 24.3683 35.6577 24.3637C35.8382 24.359 35.9534 24.4498 35.8724 24.2099C35.7915 23.97 35.8289 23.97 35.8289 23.97C35.8289 23.97 36.1432 24.1564 36.1931 24.1098C36.2429 24.0632 36.1526 23.963 36.4327 24.0096C36.7129 24.0562 36.635 23.8955 36.7439 23.8885C36.8529 23.8815 36.912 23.9584 36.8436 23.4505C36.7751 22.9427 37.1828 23.7021 36.9058 22.9357C36.9058 22.9357 36.8357 22.7039 36.6692 22.6049C36.6692 22.6049 36.6319 22.7727 36.4436 22.6247C36.2553 22.4767 35.8849 22.4243 36.0405 22.3079C36.1961 22.1914 36.2693 22.0353 36.2241 21.9375C36.2241 21.9375 36.0406 22.1293 35.7215 21.9922C35.4693 21.8839 35.4165 22.0831 35.1581 22.0248C35.1581 22.0248 35.1628 21.9585 35.3807 21.7872C35.5986 21.616 35.2546 21.8443 35.1192 21.8746C34.9838 21.9049 34.9449 21.8804 35.2313 21.6591C35.5176 21.4378 36.0841 21.0464 36.0063 20.7249C36.0063 20.7249 36.1401 20.8949 36.4918 20.7715C36.8436 20.6481 37.105 20.6038 37.2108 20.4221C37.3167 20.2403 37.5937 20.0563 37.6653 20.0167C37.7369 19.9771 37.8334 19.9492 37.7244 20.1216C37.6155 20.2939 37.438 20.5898 36.9525 20.7901C36.467 20.9905 36.2802 21.1373 36.1931 21.2421C36.1059 21.3469 35.6639 21.5822 35.9503 21.5426C36.2367 21.503 36.7347 21.5496 36.5012 21.482C36.2678 21.4145 36.0032 21.5239 36.218 21.3282C36.4327 21.1326 36.4701 21.0673 36.7813 20.9368C37.0925 20.8064 37.438 20.5082 37.4038 20.825C37.3696 21.1418 36.7907 21.4796 36.6475 21.5821C36.5043 21.6846 36.5572 21.6683 36.5603 21.7102C36.5635 21.7521 36.5385 21.8384 36.4794 21.878C36.4203 21.9176 36.4389 21.9618 36.4545 22.0504C36.4701 22.1389 36.4389 22.1739 36.4825 22.1878C36.5261 22.2017 36.5697 22.2088 36.5822 22.2717C36.5946 22.3345 36.6273 22.3427 36.7113 22.3357C36.7954 22.3287 36.8483 22.3368 36.8545 22.3858C36.8607 22.4347 36.94 22.5011 36.9494 22.352C36.9587 22.2029 37.0132 22.1738 36.8607 22.2425C36.7082 22.3113 36.6755 22.2868 36.6786 22.2158C36.6818 22.1447 36.6647 22.161 36.6008 22.1552C36.537 22.1493 36.5152 22.0597 36.6289 22.0003C36.7425 21.9409 36.7409 22.0014 36.8826 21.8838C37.0242 21.7661 37.0242 21.7335 37.046 21.6788C37.0678 21.624 36.8437 21.8384 36.7363 21.8873C36.6289 21.9362 36.6569 21.8535 36.6756 21.7312C36.6943 21.6088 36.962 21.4493 37.0849 21.4469C37.2078 21.4446 37.4849 21.5168 37.365 21.6845C37.2452 21.8523 36.906 22.0515 37.0522 22.0666C37.1985 22.0817 37.2219 22.0247 37.3059 22.0992C37.39 22.1737 37.3121 22.3252 37.2732 22.4056C37.2343 22.486 37.1534 22.5873 37.1176 22.6059C37.1176 22.6059 36.9635 22.3311 36.9682 22.5488C36.9729 22.7666 36.9356 22.8447 36.9682 22.8529C37.0009 22.861 37.1721 22.9752 37.2266 22.9775C37.2811 22.9799 36.9309 23.1418 37.0772 23.1522C37.2235 23.1627 37.4554 23.0882 37.5363 22.9367C37.5363 22.9367 37.239 22.8645 37.1192 22.7527C37.1192 22.7527 37.4663 22.6712 37.3698 22.3369C37.3698 22.3369 37.7153 22.4313 37.5659 22.5873C37.4165 22.7434 37.3262 22.7201 37.4554 22.7644C37.5846 22.8086 37.6484 22.8459 37.6484 22.8459C37.6484 22.8459 37.7368 22.8901 37.6856 22.9624C37.6344 23.0346 37.6328 23.1441 37.6764 23.1418C37.7199 23.1394 37.8663 23.0719 37.7433 22.9973C37.6204 22.9228 37.8834 22.9356 37.7713 22.8727C37.6593 22.8098 37.6297 22.7947 37.6002 22.7644C37.5706 22.7341 39.007 21.8919 38.2818 22.2076C38.2818 22.2076 38.4328 21.8803 38.6444 21.8791C38.856 21.8779 38.8716 22.0456 38.7518 22.1726C38.6319 22.2996 38.5541 22.4976 38.2725 22.5441C38.2725 22.5441 38.675 22.7414 38.1993 23.0637C38.1993 23.0637 38.0961 23.1126 38.1334 23.1483C38.1708 23.184 38.4529 23.0241 38.4924 22.934C38.5318 22.8439 38.592 22.774 38.6999 22.7212C38.8078 22.6685 39.339 22.3066 39.4988 22.0332C39.6586 21.7598 39.7022 21.7506 40.0134 21.5005C40.3246 21.2505 40.2707 21.3001 40.3102 21.2396C40.3496 21.1791 40.3662 21.0796 40.5094 20.9989C40.6526 20.9181 41.2087 20.6091 41.383 20.4832C41.5573 20.3574 41.9142 20.126 42.0677 19.9303C42.2213 19.7346 42.6348 19.4847 42.7379 19.5312C42.8412 19.5777 42.7276 19.7238 42.4848 19.9086C42.242 20.0934 41.6403 20.5795 41.5427 20.654C41.4452 20.7286 40.9348 21.1013 40.7438 21.1262C40.5529 21.151 40.5737 21.2178 40.4595 21.3421C40.3454 21.4663 40.0819 21.7272 39.9926 21.7987C39.9034 21.8701 39.6917 22.0161 39.6793 22.1186C39.6669 22.2211 39.7167 22.2335 39.5466 22.3935C39.3764 22.5535 38.8784 22.9153 38.6979 22.9728C38.6979 22.9728 39.0174 23.0784 38.8265 23.2943C38.6356 23.5102 38.6481 23.4791 38.6335 23.4931C38.6335 23.4931 39.1187 23.4217 38.7746 23.799C38.7746 23.799 38.7082 23.9078 38.8618 23.7944C39.0259 23.6732 38.9551 23.5071 38.9364 23.4837C38.9364 23.4837 39.1937 23.3238 39.4905 23.3191C39.7873 23.3145 39.7769 23.2943 39.5113 23.2181C39.5113 23.2181 39.7001 22.9883 39.8599 23.1016C40.0196 23.215 39.9678 23.2803 39.7997 23.3703C39.6316 23.4604 39.3826 23.4977 39.198 23.6002C39.198 23.6002 39.5486 23.6685 39.7375 23.5257C39.9263 23.3828 39.9346 23.4542 39.9595 23.479C39.9844 23.5039 40.0052 23.5505 39.9221 23.6701C39.8391 23.7897 39.8308 23.7959 39.835 23.8223C39.8391 23.8487 39.8287 23.931 39.6586 23.959C39.4884 23.9869 39.4117 24.0583 39.4697 24.1391C39.5278 24.2199 39.5299 24.4202 39.3847 24.4016C39.2394 24.383 39.2788 24.2681 39.2228 24.223C39.1668 24.178 39.088 24.1081 38.8348 24.2401C38.5816 24.3721 38.5608 24.2152 38.5733 24.1329C38.5733 24.1329 38.4094 24.2758 38.2724 24.1438C38.1355 24.0118 38.2599 23.9605 38.3388 23.8938C38.4176 23.827 38.7392 23.6872 38.5463 23.712C38.3534 23.7368 38.0649 23.7493 37.9985 23.6002C37.9321 23.4511 38.1416 23.4682 38.1749 23.4822C38.2081 23.4962 38.345 23.6065 38.3492 23.462C38.3533 23.3176 38.567 23.302 38.4944 23.2725C38.4218 23.243 38.3201 23.3346 38.291 23.3704C38.291 23.3704 38.1416 23.1622 37.901 23.2306C37.6603 23.299 37.9777 23.271 38.042 23.2818C38.1063 23.2927 38.069 23.4123 37.8532 23.6065C37.6374 23.8006 37.7349 23.7416 37.8947 23.7416C38.0545 23.7416 38.4467 23.7431 38.2184 23.9295C37.9901 24.1159 37.8989 24.209 37.7806 24.1764C37.6623 24.1438 37.7951 24.0662 37.847 24.0335C37.8988 24.0009 37.93 23.9434 37.8179 23.9854C37.7058 24.0274 37.6664 24.0351 37.5772 23.8767C37.488 23.7183 37.5254 23.7649 37.5627 23.6608C37.6 23.5567 37.6872 23.4465 37.5834 23.4853C37.4797 23.5241 37.4901 23.5272 37.4984 23.4076C37.5067 23.288 37.3801 23.2616 37.3801 23.2616C37.3801 23.2616 37.4298 23.3812 37.3842 23.4573C37.3386 23.5334 37.3365 23.5598 37.4112 23.58C37.4859 23.6002 37.5564 23.6638 37.4548 23.7337C37.3531 23.8036 37.3655 23.7943 37.4298 23.8362C37.4942 23.8781 37.5875 23.9263 37.4879 24.0241C37.3883 24.1219 37.4713 24.0925 37.5211 24.0925C37.571 24.0925 37.6836 24.1344 37.6854 24.2307C37.6871 24.327 37.6788 24.3503 37.8407 24.2602C38.0025 24.1701 38.3262 24.181 38.3221 24.3069C38.3179 24.4326 38.2805 24.4637 38.4528 24.3566C38.6251 24.2494 38.7018 24.4575 38.8201 24.3566C38.9384 24.2556 39.0131 24.1578 39.15 24.3302C39.287 24.5026 39.2443 24.5547 39.0774 24.6765C38.9105 24.7983 39.1583 24.7045 39.2849 24.6392C39.4115 24.574 39.7663 24.5305 39.9697 24.6206C40.1731 24.7107 40.2312 24.6905 40.3805 24.6284C40.5299 24.5662 40.6067 24.5522 40.8329 24.7029C41.0591 24.8535 41.2354 24.8815 41.3537 24.8784C41.3537 24.8784 41.1027 24.9763 40.8204 24.9949C40.5382 25.0135 40.3972 25.0663 40.3411 25.1098C40.3411 25.1098 40.5109 25.2123 40.5443 25.3381C40.5443 25.3381 40.7292 25.3132 40.8205 25.3505C40.8205 25.3505 40.7728 25.484 40.8869 25.5555C41.001 25.6269 41.0799 25.6534 40.9948 25.7512C40.9097 25.849 41.1256 25.8071 41.0031 25.9453C40.8807 26.0835 40.8475 26.1534 40.8433 26.2652C40.8392 26.3771 40.8703 26.3941 40.7603 26.405C40.6504 26.4159 40.779 26.5385 40.7292 26.6845C40.6794 26.8305 40.3723 26.815 40.3847 27.2063C40.3847 27.2063 40.4698 27.0153 40.6524 26.8476C40.835 26.6798 40.8413 26.6643 40.8371 26.5633C40.833 26.4624 40.8247 26.4857 40.9222 26.4096C41.0197 26.3335 40.8786 26.262 40.9761 26.1533C41.0737 26.0446 40.9886 26.0663 41.1027 25.9561C41.2169 25.8458 41.0031 25.8318 41.1193 25.7184C41.2356 25.6051 40.8392 25.4762 40.9533 25.4032C41.0675 25.3302 41.2646 25.2292 40.6006 25.2401C40.6006 25.2401 40.7603 24.9761 41.3206 25.0336C41.3206 25.0336 41.1733 25.1376 41.1609 25.2401C41.1609 25.2401 41.2252 25.2727 41.2646 25.282C41.2646 25.282 41.2429 25.3571 41.136 25.4482C41.136 25.4482 41.4327 25.6143 41.4804 25.7122C41.4804 25.7122 41.2999 25.7681 41.2543 25.8473C41.2543 25.8473 41.3331 25.9374 41.3601 26.0539C41.3601 26.0539 41.1588 26.029 41.1319 26.1797C41.1049 26.3303 41.0447 26.2278 41.0447 26.3163C41.0447 26.4048 41.051 26.4406 40.9804 26.4545C40.9099 26.4685 40.968 26.5431 40.9804 26.5928C40.9929 26.6425 41.0157 26.7558 41.0054 26.7916C41.0054 26.7916 40.9037 26.7931 40.856 26.8071C40.856 26.8071 40.8871 27.023 40.7667 27.054C40.6464 27.085 40.8311 27.1285 40.7024 27.1519C40.5737 27.1751 40.5904 27.1829 40.4327 27.4656C40.4327 27.4656 40.5675 27.3895 40.7066 27.2979C40.8456 27.2062 40.6962 27.2342 40.9265 27.0075C41.1568 26.7807 41.1153 26.7636 41.0967 26.6487C41.078 26.5338 41.0738 26.4406 41.1568 26.3319C41.2398 26.2231 41.2668 26.0989 41.5614 26.1145C41.5614 26.1145 41.4743 25.9184 41.3664 25.8674C41.3664 25.8674 41.5074 25.7697 41.6569 25.7558C41.6569 25.7558 41.5261 25.5989 41.2585 25.4467C41.2585 25.4467 41.4784 25.2572 41.5303 25.1672C41.5303 25.1672 41.4287 25.1827 41.3477 25.164C41.3477 25.164 41.3859 25.0734 41.5843 24.9435C41.5843 24.9435 41.6901 25.046 41.686 25.1532C41.686 25.1532 42.0263 24.9575 42.2192 24.9793C42.2192 24.9793 42.3168 25.2246 41.8436 25.6843C41.8436 25.6843 42.1362 25.7123 42.2607 25.6952C42.2607 25.6952 42.1902 25.922 41.8353 26.0555C41.4805 26.189 41.9121 26.3452 41.549 26.318C41.1859 26.2908 41.2979 26.4159 41.3083 26.6007C41.3187 26.7855 41.3311 26.9749 41.3228 27.0262C41.3228 27.0262 41.0323 26.9314 41.0385 27.2126C41.0447 27.4937 40.8891 27.5527 40.858 27.5791C40.858 27.5791 40.7737 27.5038 40.6463 27.4595C40.646 27.4598 40.4658 27.8019 40.175 28.0018V28.0018Z" fill="#5A3719"/>
<path d="M39.7598 24.4781C39.7598 24.4781 39.8594 24.4618 40.0275 24.5666C40.1955 24.6714 40.3605 24.4548 40.1737 24.3988C39.987 24.3429 40.1768 24.2777 40.3449 24.4128C40.513 24.5479 40.5783 24.4803 40.6406 24.4338C40.7029 24.3872 40.7776 24.3616 40.6624 24.2824C40.5473 24.2032 40.7402 24.2405 40.8274 24.2964C40.9145 24.3523 40.8803 24.4105 40.8679 24.4269C40.8555 24.4432 40.8461 24.6249 41.0173 24.4548C41.1885 24.2848 41.2725 24.1147 41.2694 24.0308C41.2694 24.0308 41.3628 24.0891 41.3752 24.1962C41.3877 24.3034 41.5184 24.138 41.562 24.0797C41.6055 24.0215 41.6803 23.8745 41.6709 23.764C41.6709 23.764 41.7861 23.9421 41.9573 23.764C42.1285 23.5858 42.0538 23.6977 42.2592 23.6441C42.4647 23.5905 42.723 23.4391 42.8631 23.269C43.0031 23.099 43.0125 23.2131 43.193 23.1712C43.3735 23.1293 43.7377 22.8776 43.7719 22.7402C43.8062 22.6027 43.7999 22.5189 43.747 22.5654C43.6941 22.612 43.7159 22.5748 43.638 22.5258C43.5602 22.4769 43.4451 22.5887 43.4451 22.5887C43.4451 22.5887 43.5602 22.6772 43.4731 22.7145C43.3859 22.7517 43.3019 22.8752 43.1369 22.8286C42.972 22.782 42.8008 22.98 42.8008 22.98C42.8008 22.98 42.9439 23.0988 42.751 23.1734C42.558 23.2479 42.5892 23.2736 42.4709 23.192C42.4709 23.192 42.2654 23.4529 42.1472 23.5065C42.1472 23.5065 42.0912 23.5019 42.0538 23.4529C42.0538 23.4529 41.92 23.6044 41.8515 23.6347C41.8515 23.6347 41.7674 23.5532 41.6896 23.5275C41.6896 23.5275 41.5278 23.7279 41.3908 23.7908C41.3908 23.7908 41.3503 23.7163 41.2632 23.665C41.2632 23.665 41.2201 23.9271 40.9332 24.082C40.9332 24.082 40.9519 24.0121 40.8087 23.9166C40.8087 23.9166 40.4539 24.2241 40.3138 24.2544C40.1738 24.2847 40.3045 24.1892 40.3232 24.1496C40.3419 24.1099 40.429 23.9795 40.2578 23.9259C40.0866 23.8723 40.1147 23.9632 40.0773 23.9795C40.0399 23.9958 40.0368 23.9492 39.9217 23.9655C39.8065 23.9818 39.8252 24.0331 39.7754 24.0517C39.7256 24.0704 39.5264 24.0191 39.5357 24.1519C39.5451 24.2847 39.6385 24.3755 39.4642 24.4524C39.2898 24.5293 39.5295 24.513 39.7598 24.4781V24.4781Z" fill="#7B3C20"/>
<path d="M40.4788 24.1032C40.4788 24.1032 40.5193 23.9355 40.373 23.854C40.373 23.854 41.313 23.7096 40.6033 23.3508C40.6033 23.3508 41.4468 23.176 41.2476 22.9058C41.0484 22.6356 40.8547 22.6962 40.8255 22.7008C40.7963 22.7055 41.0048 22.5447 41.0609 22.5657C41.1169 22.5867 41.7954 22.8476 41.6211 22.624C41.4468 22.4003 41.4624 22.4143 41.4344 22.3491C41.4344 22.3491 41.6585 22.3491 41.9978 22.6799C41.9978 22.6799 42.0694 22.6053 42.06 22.4702C42.06 22.4702 42.3028 22.5377 42.3775 22.61C42.3775 22.61 42.418 22.5261 42.4024 22.4795C42.4024 22.4795 42.611 22.5913 42.6825 22.7101C42.6825 22.7101 42.779 22.6263 42.7946 22.5307C42.7946 22.5307 43.0032 22.617 43.0561 22.6821C43.0561 22.6821 43.1245 22.5913 43.0996 22.4609C43.0996 22.4609 43.4451 22.5634 43.4918 22.3491C43.4918 22.3491 43.8393 22.4244 43.6134 22.5597C43.3231 22.7336 43.5841 22.5168 43.2863 22.7241C43.0554 22.8849 42.9263 23.0735 42.8153 23.0347C42.7337 23.0062 42.6358 23.2436 42.5237 23.1271C42.4116 23.0106 42.4116 23.0642 42.3338 23.1854C42.256 23.3065 42.1346 23.43 42.1346 23.43C42.1346 23.43 42.074 23.395 42.028 23.3485C42.028 23.3485 41.9603 23.4603 41.8731 23.5442C41.8731 23.5442 41.8047 23.4533 41.6957 23.3974C41.6957 23.3974 41.5245 23.5954 41.4187 23.6629C41.4187 23.6629 41.3191 23.5651 41.2132 23.5325C41.2132 23.5325 41.1977 23.8004 40.9892 23.9378C40.9892 23.9378 40.9456 23.8493 40.8118 23.7957C40.8119 23.7957 40.706 23.9651 40.4788 24.1032V24.1032Z" fill="#5A3719"/>
<path d="M39.9843 23.6928C39.9843 23.6928 39.8701 23.7806 39.9438 23.8746C40.0175 23.9685 40.0216 23.8583 40.115 23.849C40.2084 23.8396 41.36 23.6416 40.3173 23.3294C40.3173 23.3294 40.3609 23.2898 40.5414 23.2735C40.7219 23.2573 41.3755 23.0802 41.0705 22.8472C40.7655 22.6142 40.5118 22.9264 40.7686 22.6469C40.9741 22.4232 40.8091 22.3137 40.8091 22.3137C40.8091 22.3137 40.2021 22.7191 40.0683 22.7936C39.9345 22.8682 39.7415 23.0103 39.9687 23.0848C40.1959 23.1593 40.3516 22.8379 40.3733 22.9101C40.3951 22.9823 39.9158 23.2479 39.9843 23.3713C40.0528 23.4948 40.0372 23.5973 40.1555 23.574C40.2738 23.5507 40.5944 23.6346 40.3329 23.6253C40.0714 23.6159 39.9843 23.6928 39.9843 23.6928V23.6928Z" fill="#5A3719"/>
<path d="M40.4012 23.113C40.4012 23.113 40.2954 23.1874 40.4355 23.1501C40.5755 23.1128 40.8557 23.0522 40.8028 22.9801C40.7498 22.9078 40.5631 22.9944 40.4012 23.113V23.113Z" fill="black"/>
<path d="M42.2503 21.911C42.2503 21.911 42.7856 21.897 43.0066 22.0462C43.2276 22.1953 43.3334 22.2931 43.3987 22.3141C43.3987 22.3141 43.3894 22.5167 43.047 22.3723C43.047 22.3723 43.0657 22.4702 43.0283 22.5657C43.0283 22.5657 42.9007 22.4818 42.7544 22.4445C42.7544 22.4445 42.7295 22.5214 42.6828 22.5657C42.6828 22.5657 42.5303 22.4119 42.3592 22.3653C42.3592 22.3653 42.3249 22.4422 42.2938 22.4702C42.2938 22.4702 42.1102 22.3653 41.9701 22.3677C41.9701 22.3677 41.9981 22.4795 41.9701 22.5238C41.9701 22.5238 41.581 22.2186 41.2355 22.2582C41.2355 22.2582 41.4036 22.5028 41.5126 22.624C41.5126 22.624 40.8122 22.5681 40.9274 22.1907C41.0426 21.8133 40.9181 21.9081 41.3756 21.9108C41.8332 21.9134 42.2503 21.911 42.2503 21.911V21.911Z" fill="#7B3C20"/>
<path d="M38.9664 22.9536C38.9664 22.9536 38.8855 23.0195 38.9664 23.0755C39.0473 23.1314 39.3243 22.9311 39.3617 22.9031C39.399 22.8751 39.4986 22.8798 39.3617 22.9823C39.2247 23.0848 39.0846 23.1966 38.9975 23.3085C38.9975 23.3085 39.4613 23.1827 39.7632 22.9218C40.065 22.6609 39.7491 22.8299 40.2643 22.5816C40.7794 22.3334 41.0486 21.934 40.7716 21.9759C40.4946 22.0178 40.2456 22.3347 40.0308 22.4558C39.8161 22.577 39.6947 22.5933 39.7289 22.5234C39.7632 22.4535 39.9219 22.4815 40.2175 22.2438C40.5133 22.0062 40.4479 22.0225 40.451 21.9387C40.4541 21.8548 40.3389 21.6475 40.784 21.4145C41.2291 21.1815 42.6142 20.3708 42.7324 20.0936C42.7324 20.0936 42.3278 20.1379 41.7956 20.5316C41.2633 20.9253 40.9784 21.1093 40.8314 21.1582C40.6844 21.2071 40.7031 21.1745 40.6066 21.2887C40.5101 21.4029 39.9841 21.9108 39.8876 21.9853C39.7911 22.0598 39.763 22.1088 39.7548 22.2607C39.7512 22.33 39.15 22.7828 38.9664 22.9536V22.9536Z" fill="#5A3719"/>
<path d="M40.7963 21.8979C40.7963 21.8979 40.6935 21.9456 40.5939 21.8979C40.4943 21.8502 40.5255 21.6358 40.7651 21.5077C41.0048 21.3796 41.4405 21.1886 41.6615 21.1606C41.6615 21.1606 41.6304 21.4378 40.9425 21.6708C40.9425 21.6708 40.9861 21.8151 40.7963 21.8979Z" fill="#5A3719"/>
<path d="M41.0394 21.7176C41.0394 21.7176 41.0594 21.7858 41.0394 21.8481C41.0394 21.8481 42.3187 21.9716 42.9786 21.1934C42.9786 21.1934 42.0728 21.2773 41.7118 21.494C41.7118 21.494 41.939 21.2097 42.6176 20.9744C43.2961 20.7392 43.5731 20.4479 43.6322 20.2872C43.6322 20.2872 42.7741 20.5878 42.3654 20.5878C42.3654 20.5878 42.2845 20.5854 42.2067 20.6297C42.1289 20.6739 41.5811 21.0723 41.4348 21.1398C41.4348 21.1398 41.7429 21.1142 41.8519 21.0141C41.8518 21.0141 41.6377 21.5899 41.0394 21.7176V21.7176Z" fill="#AA5323"/>
<path d="M38.5899 22.4487C38.5899 22.4487 38.425 22.5652 38.4934 22.6234C38.5619 22.6817 38.6798 22.6933 38.9305 22.4837C39.1813 22.274 39.7882 21.7521 39.4047 21.7312C39.4047 21.7312 38.9136 21.7009 38.9305 22.0015C38.9477 22.3049 38.6146 22.4296 38.5899 22.4487V22.4487ZM37.457 22.2716C37.457 22.2716 37.7806 22.4603 37.6593 22.6164C37.6593 22.6164 38.6522 21.7731 38.3721 21.5913C38.0919 21.4096 37.871 21.7521 37.9394 21.787C38.0079 21.822 38.1542 21.7567 38.1013 21.822C38.0484 21.8872 37.5192 22.2437 37.457 22.2716V22.2716ZM37.1986 21.9991C37.1986 21.9991 37.4165 22.0643 37.4258 22.1575C37.4351 22.2506 38.0825 21.7008 37.9113 21.4702C37.8328 21.3645 37.4725 21.3211 37.4569 21.5285C37.4413 21.7359 37.7806 21.5075 37.6623 21.6566C37.5073 21.8521 37.2453 21.9664 37.1986 21.9991ZM39.5286 21.5396C39.5286 21.5396 39.3899 21.6403 39.5144 21.7009C39.6389 21.7615 39.7198 21.6659 39.7821 21.61C39.8443 21.5541 40.1525 21.3281 40.2241 21.1837C40.2956 21.0393 40.4015 20.995 40.5135 20.9205C40.6256 20.8459 41.4162 20.4522 41.9017 20.0165C42.3873 19.5809 42.185 19.6927 42.6892 19.4131C43.1934 19.1336 43.5234 18.8773 43.6292 18.5745C43.6292 18.5745 43.3958 18.6513 43.1903 18.7841C42.9849 18.9169 42.5211 19.2081 42.4278 19.2477C42.3344 19.2872 42.2037 19.2943 42.1352 19.3665C42.0667 19.4387 42.0729 19.5249 41.8301 19.7252C41.5873 19.9256 40.333 20.8108 40.1804 20.9366C40.0279 21.0626 39.5286 21.5396 39.5286 21.5396V21.5396Z" fill="#5A3719"/>
<path d="M38.5194 21.8329C38.5194 21.8329 38.6563 21.7574 38.9136 21.775C39.1709 21.7925 40.1877 20.8079 40.4824 20.6091C40.777 20.4103 41.6983 19.7456 41.8229 19.6244C41.9474 19.5033 41.9681 19.3728 42.076 19.3014C42.1839 19.23 42.2835 19.2393 42.5325 19.0964C42.7815 18.9535 43.9767 18.2391 43.9062 17.8229C43.9062 17.8229 42.1258 18.8914 41.7149 19.2393C41.3041 19.5872 40.1628 20.3761 39.9595 20.5035C39.7561 20.6308 39.5942 20.8514 39.2539 21.1278C38.9136 21.4042 38.5775 21.6372 38.5194 21.8329V21.8329Z" fill="#AA5323"/>
<path d="M38.1457 21.4542C38.1457 21.4542 38.4752 21.4205 38.5192 21.5816C38.5192 21.5816 39.2247 21.097 39.3866 20.8982C39.5484 20.6995 39.3326 20.8144 39.7352 20.5503C40.1377 20.2863 41.4741 19.3514 41.665 19.1836C41.8559 19.0159 42.217 18.7953 42.5074 18.5997C42.7979 18.404 43.9351 17.848 43.8064 17.3914C43.8064 17.3914 42.9722 17.9504 42.7855 18.0716C42.5987 18.1928 42.5199 18.1244 42.329 18.2735C42.1381 18.4226 41.7189 18.7208 41.6442 18.814C41.5695 18.9071 40.9304 19.3979 40.6192 19.606C40.3079 19.8142 39.6107 20.218 39.2745 20.51C38.9383 20.8019 38.2868 21.3424 38.1457 21.4542Z" fill="#AA5323"/>
<path d="M37.119 21.3586C37.119 21.3586 37.2857 21.361 37.3354 21.4263C37.3354 21.4263 37.6436 21.156 37.9715 21.4231C37.9715 21.4231 39.175 20.6093 39.2953 20.4043C39.4157 20.1993 39.6107 20.1961 40.0797 19.8545C40.5487 19.5128 40.8433 19.3699 41.1546 19.1276C41.4658 18.8854 41.7273 18.612 41.9514 18.4661C42.1755 18.3201 42.7399 17.9504 42.6445 17.6305C42.6445 17.6305 42.188 17.8914 41.8892 18.2176C41.5904 18.5437 41.6153 18.2642 41.3123 18.5375C41.0094 18.8108 40.5404 19.1835 40.1503 19.3761C39.7602 19.5688 39.9968 19.547 39.7145 19.7272C39.4323 19.9073 39.4531 19.8794 39.3493 19.9042C39.2456 19.9291 39.0879 20.0036 38.9841 20.1247C38.8803 20.2459 38.6023 20.4105 38.2994 20.5814C37.9964 20.7522 37.2515 21.1956 37.119 21.3586Z" fill="#AA5323"/>
<path d="M37.4818 20.7341C37.4818 20.7341 37.4164 20.5989 37.5316 20.5034C37.6467 20.4079 37.8553 20.1563 37.8895 19.9979C37.9238 19.8395 37.8989 19.8651 38.2319 19.7276C38.5649 19.5902 39.3213 19.2361 39.7477 18.9728C40.1741 18.7096 40.8216 18.2856 40.9554 18.1831C41.0892 18.0806 41.414 17.8523 41.5457 17.7452C41.5457 17.7452 41.609 17.9246 41.4658 18.0481C41.3227 18.1715 40.7717 18.5582 40.6815 18.6188C40.5912 18.6794 40.0839 19.0195 39.9283 19.1057C39.7726 19.1919 39.3867 19.3876 39.2497 19.5018C39.1128 19.6159 39.1304 19.6509 38.5193 19.949C37.9082 20.2472 37.8802 20.2775 37.8989 20.3008C37.9175 20.3241 38.1915 20.2053 38.3222 20.1284C38.4529 20.0516 38.954 19.8233 39.1034 19.7044C39.2528 19.5856 39.5049 19.3993 39.6139 19.3387C39.7228 19.2781 40.6254 18.7376 40.8838 18.5466C41.1421 18.3556 41.2137 18.2927 41.2697 18.3253C41.3257 18.3579 41.416 18.3603 41.3009 18.4697C41.1857 18.5792 40.8185 18.9007 40.6784 18.9939C40.5383 19.087 40.0995 19.348 39.978 19.4109C39.8566 19.4738 39.81 19.5903 39.7415 19.6392C39.673 19.6881 39.4738 19.8302 39.2311 19.8861C38.9883 19.942 38.9447 20.1237 38.786 20.2262C38.6272 20.3287 37.4976 20.9368 37.4633 20.9671C37.4633 20.9671 37.5316 20.8971 37.4818 20.7341V20.7341Z" fill="#AA5323"/>
<path d="M41.3908 18.1973C41.3908 18.1973 41.3285 18.2525 41.3627 18.2836C41.4079 18.3245 41.5651 18.435 41.7611 18.2404C41.9572 18.0459 42.484 17.6219 42.6548 17.5218C42.8256 17.4216 42.9066 17.3261 42.9003 17.1886C42.9004 17.1886 42.0911 17.6196 41.3908 18.1973V18.1973ZM42.5051 18.1228C42.5051 18.1228 42.6296 17.9154 42.9346 17.7198C43.2396 17.5241 43.6975 17.2392 43.7594 17.17C43.7594 17.17 43.8683 17.2935 43.6287 17.4449C43.389 17.5963 42.9221 17.9062 42.8661 17.9504C42.8101 17.9947 42.7167 18.0622 42.5051 18.1228Z" fill="#AA5323"/>
<path d="M36.3021 20.38C36.3021 20.38 35.9628 20.5617 36.0842 20.6759C36.2056 20.79 36.3862 20.7551 36.4609 20.7225C36.5356 20.6899 36.6787 20.6549 36.7005 20.648C36.7223 20.641 37.018 20.5571 37.0927 20.4197C37.1674 20.2822 37.3666 20.1238 37.5253 20.0096C37.684 19.8955 37.74 19.7814 37.7183 19.6998C37.7182 19.6998 36.3822 20.3309 36.3021 20.38V20.38ZM34.2851 21.9478C34.2851 21.9478 34.5195 21.8085 34.8485 21.8966C34.8485 21.8966 34.833 21.8164 34.7832 21.775C34.7832 21.775 35.1816 21.6706 35.2687 21.4936C35.3559 21.3165 35.3746 21.3538 35.4524 21.3025C35.5302 21.2513 36.0686 20.818 36.0064 20.7248C35.9442 20.6316 35.9317 20.5105 35.885 20.4615C35.885 20.4615 35.7729 20.6153 35.25 20.8692C34.7271 21.1231 34.1451 21.3141 33.7218 21.8849C33.2985 22.4557 33.342 22.7865 33.8587 22.9309C33.8587 22.9309 34.2229 22.7026 35.11 22.7818C35.9971 22.861 36.299 23.1941 36.355 23.2547C36.411 23.3153 36.5916 23.5342 36.4173 23.9046C36.4173 23.9046 36.5947 23.9815 36.6102 23.8115C36.6258 23.6414 36.6352 23.681 36.6756 23.7066C36.7161 23.7322 36.7659 23.7369 36.7472 23.6065C36.7285 23.476 36.6663 23.1848 36.5853 23.0846C36.5044 22.9845 36.5947 23.0287 36.6476 23.0497C36.7005 23.0707 36.8872 23.2221 36.7752 22.9425C36.6631 22.663 36.6352 22.8004 36.632 22.8144C36.6289 22.8284 36.6071 22.8983 36.3644 22.7165C36.1216 22.5348 35.9006 22.4463 35.7356 22.3997C35.5707 22.3532 35.6858 22.3531 35.7823 22.3182C35.8788 22.2832 36.0095 22.2623 36.0531 22.1552C36.0531 22.1552 35.9566 22.1784 35.7792 22.1155C35.6017 22.0526 35.2469 22.0457 34.9605 22.26C34.9605 22.26 35.0508 21.9292 34.7894 21.9478C34.5279 21.9664 34.3443 21.9594 34.0672 22.1784C34.0672 22.1784 34.0517 21.8453 34.3131 21.6729C34.5746 21.5005 34.5403 21.6054 34.6866 21.5611C34.833 21.5168 34.8454 21.3701 34.7831 21.3235C34.7831 21.3235 35.1255 21.3817 35.7013 20.9042C35.7013 20.9042 35.3919 21.3095 35.0159 21.3911C35.0159 21.3911 34.9563 21.6068 34.615 21.6543C34.2737 21.7018 34.282 21.8989 34.2851 21.9478V21.9478Z" fill="#7B3C20"/>
<path d="M33.3023 23.9223C33.3023 23.9223 33.4703 22.9185 34.4104 22.8458C35.2341 22.7822 35.4956 22.8847 35.6596 22.9374C35.8235 22.9902 36.2239 23.1083 36.0683 23.2372C35.9127 23.3661 35.8235 23.3428 35.8235 23.3428C35.8235 23.3428 36.004 23.1425 35.8401 23.1083C35.6762 23.0742 35.6616 23.1735 35.6388 23.2574C35.616 23.3413 35.6056 23.4422 35.5246 23.5075C35.5246 23.5075 35.4417 23.4112 35.3234 23.4951C35.2051 23.5789 35.3067 23.582 35.3545 23.5681C35.4022 23.5541 35.4645 23.5292 35.452 23.6022C35.4396 23.6752 35.3732 23.801 35.1781 23.9035C34.9831 24.006 34.9934 23.9998 34.7611 24.037C34.5287 24.0743 34.3128 24.1659 34.0161 24.4207C33.7194 24.6753 33.3947 24.5904 33.3293 24.3058C33.2733 24.0617 33.3023 23.9223 33.3023 23.9223V23.9223Z" fill="#5A3719"/>
<path d="M34.3784 23.8909C34.3784 23.8909 34.4687 23.6929 34.3069 23.6021C34.3069 23.6021 33.8119 23.6869 33.6656 23.5368C33.6656 23.5368 34.2041 23.5088 34.5372 23.3784C34.8702 23.2479 34.7706 23.1571 34.6555 23.1361C34.5403 23.1152 34.3287 23.1664 34.3069 23.2713C34.3069 23.2713 34.2415 23.1595 34.3255 23.0849C34.4096 23.0103 34.5403 22.9964 34.6586 23.0313C34.7769 23.0663 34.8827 23.1175 35.2718 22.9148C35.2718 22.9148 35.4958 22.966 35.5021 23.1175C35.5083 23.2689 35.4865 23.3318 35.4678 23.3551C35.4491 23.3784 35.4211 23.4226 35.3744 23.418C35.3278 23.4133 35.2686 23.4017 35.2095 23.5065C35.1503 23.6114 35.1148 23.7022 35.0159 23.772C35.0159 23.772 35.1317 23.4459 34.8453 23.369C34.8453 23.369 34.6087 23.5088 34.4282 23.5158C34.4282 23.5159 34.6586 23.7302 34.3784 23.8909V23.8909Z" fill="black"/>
<path d="M34.8951 23.2922C34.8951 23.2922 34.7861 23.1722 34.9293 23.1595C35.0725 23.1467 35.2624 23.2515 35.2251 23.34C35.1877 23.4285 35.0196 23.425 34.8951 23.2922Z" fill="#5A3719"/>
<path d="M42.9846 21.7012C42.9846 21.7012 42.7232 21.7757 42.9659 21.9365C43.2087 22.0972 43.327 22.237 43.5044 22.2836C43.6818 22.3302 43.8655 22.3954 43.8624 22.5725C43.8592 22.7495 43.825 22.8194 43.7285 22.9405C43.632 23.0617 43.7814 23.1153 43.9091 23.0454C44.0367 22.9755 44.1456 22.9383 44.2297 22.8893C44.3137 22.8403 44.4537 22.8474 44.3261 22.9126C44.1985 22.9778 44.0647 23.0174 44.2297 23.0221C44.3946 23.0267 45.3875 23.0453 45.596 22.9778C45.8046 22.9103 46.0754 22.8893 46.1003 22.619C46.1003 22.619 46.1096 22.4991 46.1874 22.449C46.2652 22.3989 46.3182 22.2836 46.2045 22.3616C46.0909 22.4397 46.0038 22.4793 45.982 22.456C45.9602 22.4327 45.9539 22.4164 46.0364 22.378C46.119 22.3396 46.1656 22.3756 46.2419 22.2627C46.3182 22.1497 46.3107 22.1683 46.2701 22.1253C46.2294 22.0821 46.1439 22.0507 46.1859 21.996C46.2279 21.9412 46.2699 21.7782 46.0879 21.8737C45.9058 21.9692 45.5473 22.2154 45.3813 22.2542C45.2153 22.2931 45.0887 22.3435 44.8646 22.389C44.6405 22.4344 44.5015 22.4825 44.2629 22.6145C44.0243 22.7465 44.0409 22.5416 44.0823 22.5136C44.0823 22.5136 44.1736 22.6735 44.4164 22.4654C44.6592 22.2573 44.5802 22.4524 45.1738 22.2573C45.7674 22.0621 45.622 22.0305 45.8544 21.9094C46.0868 21.7882 46.3068 21.7836 46.1449 21.6221C45.9831 21.4606 45.9644 21.4466 45.7548 21.6221C45.5452 21.7976 44.9663 22.0802 44.6198 22.088C44.6198 22.088 45.9582 21.5102 45.8212 21.4264C45.6843 21.3425 45.5369 21.268 45.4435 21.2478C45.3502 21.2276 45.3252 21.2043 45.1095 21.3006C44.8937 21.3968 44.8584 21.4202 44.7962 21.4264C44.7339 21.4325 44.5534 21.4683 44.2982 21.6003C44.0429 21.7323 43.906 21.7851 43.7358 21.8892C43.7358 21.8892 43.8541 21.65 44.3812 21.4916C44.9082 21.3332 45.178 21.1872 45.1199 21.1608C45.0618 21.1344 44.931 21.1127 44.8314 21.1282C44.7318 21.1437 44.7609 21.1204 44.4393 21.2478C44.1176 21.3752 44.2546 21.3472 43.9952 21.4031C43.7358 21.459 43.63 21.5165 43.5013 21.5708C43.5013 21.5708 43.5538 21.5009 43.7285 21.4368C43.8183 21.404 43.6303 21.3701 43.8795 21.36C43.8998 21.3592 43.9248 21.3651 43.9495 21.3581C44.2717 21.2657 44.6239 21.1391 44.57 21.1298C44.516 21.1204 44.2027 21.0879 43.8852 21.2338C43.5677 21.3798 43.713 21.3301 43.6009 21.3534C43.4888 21.3767 43.2523 21.5258 43.1735 21.5895C43.0945 21.6531 42.9846 21.7012 42.9846 21.7012V21.7012Z" fill="white"/>
<path d="M35.1459 23.1476C35.1459 23.1476 35.2704 23.1848 35.3015 23.2722C35.3326 23.3596 35.4105 23.2338 35.4074 23.1942C35.4043 23.1546 35.328 22.9799 35.1926 23.0614C35.0572 23.1429 35.1251 23.14 35.1459 23.1476V23.1476Z" fill="#5A3719"/>
<path d="M34.7986 24.874C34.7986 24.874 35.0643 24.749 35.2873 24.7645C35.2873 24.7645 35.2001 24.45 35.3557 24.5036C35.5113 24.5572 35.4678 24.5362 35.4989 24.5339C35.4989 24.5339 35.5082 24.3265 35.4677 24.245C35.4677 24.245 35.6265 24.2822 35.7883 24.2846C35.7883 24.2846 35.6358 23.9864 35.8039 23.7814C35.8039 23.7814 35.8962 23.9771 36.1037 24.026C36.1037 24.026 36.1047 23.9422 36.1037 23.8536C36.1037 23.8536 36.2272 23.8396 36.3237 23.8909C36.4202 23.9422 36.5011 23.3505 36.2147 23.22C36.2147 23.22 36.1463 23.3318 35.8786 23.3877C35.6109 23.4436 35.6131 23.4974 35.503 23.6988C35.393 23.9003 35.2966 23.9026 35.0724 24.047C34.8483 24.1914 34.7121 24.485 34.6993 24.5106C34.6994 24.5106 34.8173 24.655 34.7986 24.874V24.874Z" fill="#7B3C20"/>
<path d="M43.7283 21.4368C43.8256 21.4197 43.6301 21.3701 43.8793 21.36C43.8996 21.3591 43.9245 21.365 43.9493 21.358C44.2714 21.2656 44.6236 21.139 44.5697 21.1297C44.5158 21.1204 44.2024 21.0878 43.885 21.2337C43.5675 21.3797 43.7127 21.33 43.6007 21.3533C43.4886 21.3766 43.2521 21.5257 43.1732 21.5894C43.0944 21.653 42.9844 21.7012 42.9844 21.7012C42.9844 21.7012 42.7229 21.7757 42.9657 21.9365C43.2085 22.0972 43.3267 22.237 43.5042 22.2836C43.6816 22.3302 43.8652 22.3954 43.8621 22.5725C43.859 22.7495 43.8247 22.8194 43.7283 22.9405C43.6318 23.0617 43.7812 23.1153 43.9088 23.0454C44.0365 22.9755 44.1454 22.9382 44.2294 22.8893C44.3134 22.8403 44.4535 22.8474 44.3259 22.9126C44.1983 22.9778 44.0644 23.0174 44.2294 23.0221C44.3944 23.0267 45.3873 23.0453 45.5958 22.9778C45.8043 22.9103 46.0751 22.8893 46.1 22.619C46.1 22.619 46.1094 22.499 46.1872 22.449C46.265 22.3989 46.3179 22.2836 46.2043 22.3616C46.0907 22.4397 46.0035 22.4793 45.9817 22.456C45.9599 22.4327 45.9537 22.4164 46.0362 22.378C46.1187 22.3396 46.1654 22.3756 46.2417 22.2627C46.3179 22.1497 46.3104 22.1683 46.2698 22.1253C46.249 22.1031 46.2163 22.0841 46.1951 22.0634C46.1951 22.0634 46.1353 22.0111 46.0658 22.0554C45.9963 22.0996 45.6913 22.2285 45.5689 22.2433C45.4464 22.258 45.3199 22.31 45.0999 22.4172C44.8799 22.5243 44.5147 22.7426 44.4566 22.5399C44.4566 22.5399 44.2973 22.5967 44.2626 22.6144C44.0173 22.7394 44.0387 22.562 44.082 22.5135C44.082 22.5135 43.9534 22.6579 43.9586 22.5266C43.9637 22.3954 44.0467 22.4179 44.1899 22.376C44.3331 22.3341 44.5593 22.2409 44.4659 22.1632C44.3725 22.0856 44.2739 22.2403 44.1702 22.2876C44.0664 22.3349 43.8589 22.3768 43.8268 22.2261C43.7946 22.0755 43.7956 21.9706 43.5145 21.9543C43.2334 21.9381 43.2437 21.7625 43.3205 21.6872C43.3972 21.6119 43.4648 21.483 43.7283 21.4368V21.4368Z" fill="#999999"/>
<path d="M44.6218 22.7991C44.6218 22.7991 45.0597 22.5972 45.4622 22.5024C45.8647 22.4077 45.5494 22.5149 45.4809 22.5366C45.4124 22.5583 44.7858 22.7649 44.6385 22.8332C44.4911 22.9016 44.5215 22.8431 44.6218 22.7991ZM44.7235 22.8876C44.7235 22.8876 45.2153 22.7246 45.3066 22.7929C45.3979 22.8612 45.3232 22.827 45.2153 22.8426C45.1074 22.8581 44.8107 22.9078 44.7318 22.9062C44.6529 22.9047 44.7235 22.8876 44.7235 22.8876V22.8876ZM45.512 22.7168C45.512 22.7168 45.6054 22.6997 45.6158 22.7339C45.6262 22.7681 45.5743 22.7728 45.5224 22.7665C45.4705 22.7603 45.4249 22.7307 45.512 22.7168Z" fill="black"/>
<path d="M32.5231 27.0017C32.5231 27.0017 32.5047 26.57 32.7226 26.351C32.9404 26.132 33.9987 25.0307 34.1606 24.7228C34.1606 24.7228 34.2975 24.818 34.3037 24.9928C34.3037 24.9928 34.4811 24.6872 34.6212 24.5721C34.6212 24.5721 34.7457 24.6992 34.7239 24.9531C34.7239 24.9531 34.9791 24.818 35.3744 24.8157C35.3744 24.8157 35.2282 24.9881 35.2219 25.0883C35.2219 25.0883 35.7698 25.0277 36.0561 25.0743C36.0561 25.0743 35.3029 25.4959 35.5145 25.5332C35.7261 25.5705 35.9471 25.5309 35.9471 25.5309C35.9471 25.5309 35.7075 25.7755 35.3246 25.8244C35.3246 25.8244 35.8101 25.8174 35.9066 25.9269C35.9066 25.9269 35.4335 25.9991 35.0538 26.288C35.0538 26.288 35.0184 26.2717 35.0158 26.1645C35.0158 26.1645 35.004 26.26 34.8951 26.3508C34.7861 26.4417 34.5247 26.6351 34.4282 26.7329C34.3317 26.8308 34.1512 27.0241 33.9582 27.0148C33.9582 27.0148 34.0017 26.8657 33.8586 26.8191C33.7154 26.7725 33.5504 26.8051 33.4353 26.9286C33.4353 26.9286 32.9248 26.9356 32.763 26.9589C32.763 26.9589 32.8781 26.7749 32.9839 26.7795C33.0898 26.7841 33.5162 26.8424 33.5535 26.5512C33.5909 26.26 33.2796 26.3369 33.3979 26.1645C33.5162 25.9921 33.4881 25.9991 33.4913 25.9828C33.4913 25.9828 33.3948 26.0364 33.3388 26.1902C33.2828 26.3439 33.2423 26.4627 33.0399 26.6165C32.8376 26.7702 32.7538 26.8633 32.6978 26.9705C32.6979 26.9706 32.6056 26.9834 32.5231 27.0017V27.0017Z" fill="white"/>
<path d="M33.0139 26.7407C33.0139 26.7407 33.0305 26.6817 33.1799 26.6568C33.3292 26.632 33.3355 26.5606 33.3168 26.5295C33.2981 26.4984 33.2089 26.4984 33.3542 26.3338C33.3542 26.3338 33.406 26.3478 33.4413 26.3882C33.4766 26.4285 33.6405 26.7796 33.0139 26.7407V26.7407Z" fill="white"/>
<path d="M32.6552 26.4358C32.663 26.7235 33.04 26.6166 33.04 26.6166C32.9057 26.7187 32.8236 26.794 32.7672 26.8645C32.7921 26.7248 32.5546 26.6898 32.5546 26.6898C32.5741 26.6043 32.6054 26.5139 32.6552 26.4358ZM34.0415 24.8983C34.0961 24.8269 34.1374 24.7669 34.1606 24.7229C34.1606 24.7229 34.2975 24.8181 34.3037 24.9928C34.3037 24.9928 34.4811 24.6873 34.6212 24.5721C34.6212 24.5721 34.7457 24.6993 34.7239 24.9532C34.7239 24.9532 34.9791 24.8181 35.3744 24.8158C35.3744 24.8158 35.2281 24.9882 35.2219 25.0883C35.2219 25.0883 35.7697 25.0277 36.056 25.0743C36.056 25.0743 35.3028 25.496 35.5144 25.5333C35.7261 25.5705 35.9471 25.5309 35.9471 25.5309C35.9471 25.5309 35.7074 25.7755 35.3246 25.8244C35.3246 25.8244 35.8101 25.8175 35.9066 25.927C35.9066 25.927 35.7684 25.948 35.5814 26.0131C35.5814 26.0131 35.4418 25.8819 35.0372 25.9006C35.0372 25.9006 35.3519 25.7245 35.6015 25.6676C35.6015 25.6676 35.4915 25.5232 35.3193 25.6552C35.3193 25.6552 34.9769 25.4191 35.2592 25.2188C35.2592 25.2188 35.0599 25.1768 34.9292 25.27C34.9292 25.27 34.9355 25.1085 35.0807 25.0355C35.0807 25.0355 34.6968 24.9734 34.6014 25.256C34.6014 25.256 34.5288 25.1395 34.5619 25.0075C34.5619 25.0075 34.3296 25.1412 34.2237 25.2926C34.2238 25.2926 34.1888 25.0055 34.0415 24.8983V24.8983ZM33.2975 26.7242C33.2286 26.7412 33.1364 26.7484 33.0141 26.7408C33.0141 26.7408 33.0246 26.7036 33.1036 26.6759C33.1036 26.6759 33.1263 26.7231 33.2975 26.7242Z" fill="#999999"/>
<path d="M33.9955 25.6358C33.9955 25.6358 34.1698 25.7732 34.2321 25.8571C34.2321 25.8571 34.3908 25.7453 34.4499 25.6545C34.4499 25.6545 34.5745 25.736 34.618 25.8571C34.618 25.8571 34.7052 25.7965 34.7238 25.7127C34.7238 25.7127 34.9436 25.7593 35.0158 25.8315C35.0158 25.8315 35.0494 25.6195 35.0158 25.4867C35.0158 25.4867 35.1689 25.4984 35.2623 25.538C35.2623 25.538 35.1755 25.3982 35.6189 25.2188C35.6189 25.2188 35.2836 25.2908 35.1565 25.4378C35.1565 25.4378 35.0133 25.4448 34.951 25.4005C34.951 25.4005 34.9604 25.6148 34.9542 25.7174C34.9542 25.7174 34.8678 25.6824 34.6993 25.6428C34.6993 25.6428 34.6585 25.7127 34.6305 25.729C34.6305 25.729 34.5246 25.6451 34.478 25.538C34.478 25.538 34.3161 25.685 34.2539 25.7476C34.2539 25.7476 34.1014 25.6405 33.9955 25.6358V25.6358Z" fill="black"/>
<path d="M32.9931 27.8166C32.9931 27.8166 33.0616 27.8492 33.2234 27.7187C33.3853 27.5882 33.8428 27.297 33.8864 27.0641C33.9299 26.8311 33.7401 26.8171 33.5906 26.8847C33.4413 26.9522 33.5035 27.0827 33.5097 27.1246C33.516 27.1665 33.5191 27.3296 33.2763 27.5556C33.0335 27.7817 32.9931 27.8166 32.9931 27.8166Z" fill="#FFC221"/>
<path d="M32.9405 27.8909C32.9405 27.8909 32.5732 27.7371 32.9031 27.5718C33.233 27.4064 33.3793 27.3621 33.4167 27.2246C33.454 27.0871 33.4322 27.1105 33.3108 27.1687C33.1894 27.227 32.7226 27.4366 32.651 27.241C32.651 27.241 32.844 27.3155 33.0836 27.199C33.3233 27.0826 33.5194 27.0476 33.3669 26.9987C33.2144 26.9498 32.6634 27.0103 32.5732 27.0359C32.4829 27.0616 32.5047 27.0569 32.4891 27.1477C32.4736 27.2386 32.3708 27.4296 32.3335 27.4855C32.2962 27.5414 32.2059 27.7744 32.374 27.8769C32.542 27.9794 32.8085 27.9724 32.9405 27.8909Z" fill="#FFC221"/>
<path d="M32.7974 27.0895C32.7974 27.0895 32.7132 27.1011 32.7288 27.1338C32.7444 27.1664 32.7663 27.1617 32.7974 27.164C32.8284 27.1663 32.8751 27.1478 32.8813 27.1268C32.8875 27.1058 32.8286 27.0826 32.7974 27.0895V27.0895Z" fill="black"/>
<path d="M32.9187 27.8094C32.9187 27.8094 32.7444 27.7255 32.9405 27.6184C33.1366 27.5112 33.3482 27.4087 33.3762 27.3644C33.3762 27.3644 33.2829 27.4972 32.9187 27.8094V27.8094Z" fill="white"/>
</svg>
