<svg width="54" height="48" viewBox="0 0 54 48" fill="none" xmlns="http://www.w3.org/2000/svg">
<mask id="mask0_1_34162" style="mask-type:alpha" maskUnits="userSpaceOnUse" x="3" y="6" width="48" height="36">
<path d="M3.56934 15.1356C4.16681 10.4125 8.0415 7.00193 12.7861 6.60887C16.6412 6.28949 21.6196 6 27 6C32.3804 6 37.3588 6.28949 41.2139 6.60887C45.9585 7.00193 49.8332 10.4125 50.4307 15.1356C50.752 17.6759 51 20.704 51 24C51 27.296 50.752 30.3241 50.4307 32.8644C49.8332 37.5875 45.9585 40.9981 41.2139 41.3911C37.3588 41.7105 32.3804 42 27 42C21.6196 42 16.6412 41.7105 12.7861 41.3911C8.0415 40.9981 4.16681 37.5875 3.56934 32.8644C3.248 30.3241 3 27.296 3 24C3 20.704 3.248 17.6759 3.56934 15.1356Z" fill="#75AAFA"/>
</mask>
<g mask="url(#mask0_1_34162)">
<rect x="3" y="6" width="48" height="36" fill="#3F6FEB"/>
<path d="M16.0136 23.2008C15.7651 22.7035 15.7651 22.7035 15.7651 22.2063C15.6407 22.2063 15.6174 22.2297 15.5456 22.2101C15.4737 22.1908 15.4465 22.6687 15.2134 22.5754C15.1746 22.5288 15.3805 22.1831 15.1571 22.0394C15.0852 21.9926 15.1746 21.7091 15.1435 21.5848C15.1435 21.5848 14.8599 21.7323 14.6463 21.2119C14.5413 21.0758 14.3976 21.3361 14.3976 21.3361C14.3976 21.3361 14.4598 21.4954 14.3472 21.5343C14.1879 21.4177 14.0713 21.4788 13.8693 21.3186C13.6673 21.1584 13.9121 20.9749 13.5275 20.8389C13.7761 20.2174 13.7761 20.3416 14.3976 20.0931C14.0247 19.8444 14.0247 19.8444 13.7761 19.4715C13.4032 19.3472 13.2788 19.2229 12.9059 18.9743C12.4087 18.3527 12.16 17.1096 12.16 16.2395C12.4747 15.9481 12.9059 17.2339 13.5275 17.6068L14.3976 17.9798C14.8948 18.2284 15.0192 18.477 15.3921 18.7256L16.5109 19.0986C17.0081 19.4715 17.2568 19.9687 17.6297 20.0931C18.0337 20.0931 18.1115 19.8604 18.2411 19.8459C18.9719 19.8084 19.3448 19.7143 19.4905 19.4948C19.638 19.32 19.9916 19.5958 20.986 19.2229L20.8618 18.7256C20.8618 18.7256 21.1259 18.5081 21.4833 18.6013C21.4736 18.3741 21.4503 17.7681 21.8023 17.4947C21.5885 17.2704 21.7319 17.1096 21.7319 17.1096C21.7319 17.1096 21.9301 16.9192 21.9534 16.8182C21.8485 16.2705 22.0443 16.262 22.0882 16.1008C22.1321 15.9397 21.9191 15.9949 21.9792 15.7728C22.0391 15.5506 22.3992 15.4978 22.4474 15.3148C22.4958 15.1318 22.3448 15.04 22.3535 14.9963C22.4312 14.8215 22.3652 14.4097 22.3535 14.2505C23.0217 14.0718 23.2392 13.5279 23.4723 13.7532C23.5966 13.0074 23.7209 12.7587 24.4668 12.7587C24.5717 12.5295 24.1948 12.3353 24.3424 12.2615C24.5911 12.2304 24.7814 12.246 25.0729 12.6228C25.1649 12.7422 25.1816 12.448 25.2748 12.4169C25.368 12.3858 25.5911 12.3853 25.6243 12.2382C25.6594 12.0867 25.7099 11.8886 25.8342 11.64C25.9391 11.4379 26.0206 11.7176 26.1139 12.1139C26.6384 12.1333 27.8231 12.2499 28.3204 12.3858C28.6933 12.4829 28.9419 12.2887 29.2993 12.2498C29.5635 12.514 29.8121 12.3159 29.9519 12.8792C30.1494 13.1831 30.4725 12.9064 30.5424 12.9957C30.9581 14.1417 32.3877 13.3686 32.4964 13.3881C32.679 13.3881 32.902 13.9005 33.0457 13.8877C33.2792 13.8484 33.2131 13.6891 33.4171 13.7532C33.3626 14.1844 33.8173 14.6817 33.8173 15.0041C33.8173 15.0041 33.9279 15.0585 34.0304 14.9628C34.1329 14.8672 34.2271 14.6215 34.3183 14.6273C34.5359 14.6584 34.624 14.6863 34.8747 14.7301C35.5488 14.9604 35.8921 15.0123 36.1539 15.1303C36.2757 15.3532 36.3937 15.4674 36.6406 15.4257C36.8446 15.5627 36.6958 15.7422 36.8162 15.7538C37.0649 15.6295 37.1464 15.4935 37.395 15.6179C37.6436 15.7422 37.8923 15.9908 38.0166 16.2395C38.0166 16.3637 37.8923 16.861 38.0166 17.6068C38.0787 17.8555 38.1088 18.0526 38.3759 18.479C38.305 18.917 38.712 19.6541 38.712 19.8406C38.712 20.0891 38.5138 20.2174 38.3895 20.466C38.8868 20.8389 38.3895 21.4604 38.1409 21.8334C40.0056 22.2063 39.1354 22.9522 40.6271 22.5792C40.2541 23.4494 40.3862 23.3795 40.7591 24.2497C40.0132 24.747 40.7437 24.8984 40.2465 25.5199C40.2154 25.5588 40.5416 26.0599 41 26.0599C40.8757 27.0544 40.5028 26.6815 40.6271 28.1732C39.6481 28.1538 40.0443 29.2882 39.384 29.1677C39.4228 29.8786 39.7608 29.9408 39.6326 30.6594C39.1354 30.7837 39.1354 30.7837 38.8868 31.1567L38.5138 31.0323C38.3895 31.6539 38.1409 31.7782 38.5138 32.3998C38.5138 32.3998 38.0321 32.4153 37.8923 32.3998C37.8806 32.6135 38.1059 32.6717 38.1409 32.897C38.1215 32.9863 37.4338 33.3787 36.8978 33.3943C36.758 33.7012 37.2707 34.0275 37.2397 34.1829C36.6569 34.2955 36.4005 35.0103 36.4005 35.0103C36.4005 35.0103 36.6996 35.1307 36.6492 35.2589C36.4899 35.1423 36.4005 35.1346 36.1519 35.1346C36.0276 35.1657 35.7247 35.127 35.4341 35.6173C35.1153 35.7224 34.9648 35.6844 34.7229 36.0043C34.6158 35.6996 34.4618 36.0071 34.2734 36.1253C34.0853 36.2437 33.8318 36.5379 33.7978 36.5254C33.8055 36.4398 33.9143 36.1291 33.9143 36.1291L33.2928 36.2534C33.2928 36.2534 33.265 36.2561 33.2162 36.2611C33.1673 36.2659 33.1804 35.8982 33.0626 35.9115C32.9448 35.925 32.6078 36.374 32.4929 36.388C32.3783 36.4021 32.3419 36.2452 32.2431 36.2588C32.1443 36.2725 31.9516 36.7324 31.8816 36.7446C31.8116 36.7568 31.534 36.4651 31.2961 36.5058C30.0724 36.9371 29.8781 35.6552 29.6878 36.3777C29.4314 36.2417 29.4758 36.3206 29.2153 36.3889C29.0491 36.4317 29.0339 36.1691 28.8861 36.1732C28.5904 36.1815 28.6059 36.4612 28.4447 36.3777C28.3127 35.7949 27.5162 35.8998 27.4385 35.6512C27.3754 35.3919 27.7836 35.3932 27.9156 35.2175C28.0166 34.964 27.8102 34.8678 28.2198 34.6233C28.7537 34.2622 28.4468 34.1259 28.5404 33.8545C28.7078 33.4627 28.7088 33.367 28.569 33.0213C28.569 33.0213 28.1533 31.9025 28.0717 31.9025C27.8231 31.8327 27.8231 32.3142 27.4579 32.4464C26.7121 32.695 25.3952 31.817 25.166 31.817C24.9563 31.8209 23.9848 32.0471 24.0215 31.5627C23.8763 32.0336 23.3421 31.6733 23.3092 31.6733C22.8119 31.6733 23.0022 32.0579 22.6681 32.0423C22.5166 31.9919 20.986 31.9025 20.986 31.9025V32.1511L19.9916 31.6539L19.1214 31.4053C18.3756 31.1567 18.7485 30.5351 17.5054 30.908V30.1622H16.8839C17.1324 28.6704 16.8839 29.4163 16.7595 28.0489L16.2623 28.1732C15.7651 27.5012 16.9537 27.6293 15.8894 27.1787C15.8894 27.1787 15.9088 26.4367 15.6407 26.6815C15.5863 26.7126 15.7651 27.0544 15.7651 27.0544C14.7706 26.9301 14.5219 26.6815 14.5219 25.687C14.5219 25.687 15.3416 25.8036 15.2678 25.687C15.1513 25.5005 14.9998 24.2885 15.0269 24.207C15.0153 24.0438 15.7884 23.632 15.6388 23.2396C15.734 23.2046 16.0136 23.2008 16.0136 23.2008Z" fill="white"/>
</g>
</svg>
