<svg width="54" height="54" viewBox="0 0 54 54" fill="none" xmlns="http://www.w3.org/2000/svg">
<mask id="mask0_1_34162" style="mask-type:alpha" maskUnits="userSpaceOnUse" x="3" y="9" width="48" height="36">
<path d="M3.56934 18.1356C4.16681 13.4125 8.0415 10.0019 12.7861 9.60887C16.6412 9.28949 21.6196 9 27 9C32.3804 9 37.3588 9.28949 41.2139 9.60887C45.9585 10.0019 49.8332 13.4125 50.4307 18.1356C50.752 20.6759 51 23.704 51 27C51 30.296 50.752 33.3241 50.4307 35.8644C49.8332 40.5875 45.9585 43.9981 41.2139 44.3911C37.3588 44.7105 32.3804 45 27 45C21.6196 45 16.6412 44.7105 12.7861 44.3911C8.04151 43.9981 4.16681 40.5875 3.56934 35.8644C3.248 33.3241 3 30.296 3 27C3 23.704 3.248 20.6759 3.56934 18.1356Z" fill="#75AAFA"/>
</mask>
<g mask="url(#mask0_1_34162)">
<rect x="3" y="9" width="48" height="36" fill="#3F6FEB"/>
<path d="M16.0136 26.2008C15.7651 25.7035 15.7651 25.7035 15.7651 25.2063C15.6407 25.2063 15.6174 25.2297 15.5456 25.2101C15.4737 25.1908 15.4465 25.6687 15.2134 25.5754C15.1746 25.5288 15.3805 25.1831 15.1571 25.0394C15.0852 24.9926 15.1746 24.7091 15.1435 24.5848C15.1435 24.5848 14.8599 24.7323 14.6463 24.2119C14.5413 24.0758 14.3976 24.3361 14.3976 24.3361C14.3976 24.3361 14.4598 24.4954 14.3472 24.5343C14.1879 24.4177 14.0713 24.4788 13.8693 24.3186C13.6673 24.1584 13.9121 23.9749 13.5275 23.8389C13.7761 23.2174 13.7761 23.3416 14.3976 23.0931C14.0247 22.8444 14.0247 22.8444 13.7761 22.4715C13.4032 22.3472 13.2788 22.2229 12.9059 21.9743C12.4087 21.3527 12.16 20.1096 12.16 19.2395C12.4747 18.9481 12.9059 20.2339 13.5275 20.6068L14.3976 20.9798C14.8948 21.2284 15.0192 21.477 15.3921 21.7256L16.5109 22.0986C17.0081 22.4715 17.2568 22.9687 17.6297 23.0931C18.0337 23.0931 18.1115 22.8604 18.2411 22.8459C18.9719 22.8084 19.3448 22.7143 19.4905 22.4948C19.638 22.32 19.9916 22.5958 20.986 22.2229L20.8618 21.7256C20.8618 21.7256 21.1259 21.5081 21.4833 21.6013C21.4736 21.3741 21.4503 20.7681 21.8023 20.4947C21.5885 20.2704 21.7319 20.1096 21.7319 20.1096C21.7319 20.1096 21.9301 19.9192 21.9534 19.8182C21.8485 19.2705 22.0443 19.262 22.0882 19.1008C22.1321 18.9397 21.9191 18.9949 21.9792 18.7728C22.0391 18.5506 22.3992 18.4978 22.4474 18.3148C22.4958 18.1318 22.3448 18.04 22.3535 17.9963C22.4312 17.8215 22.3652 17.4097 22.3535 17.2505C23.0217 17.0718 23.2392 16.5279 23.4723 16.7532C23.5966 16.0074 23.7209 15.7587 24.4668 15.7587C24.5717 15.5295 24.1948 15.3353 24.3424 15.2615C24.5911 15.2304 24.7814 15.246 25.0729 15.6228C25.1649 15.7422 25.1816 15.448 25.2748 15.4169C25.368 15.3858 25.5911 15.3853 25.6243 15.2382C25.6594 15.0867 25.7099 14.8886 25.8342 14.64C25.9391 14.4379 26.0206 14.7176 26.1139 15.1139C26.6384 15.1333 27.8231 15.2499 28.3204 15.3858C28.6933 15.4829 28.9419 15.2887 29.2993 15.2498C29.5635 15.514 29.8121 15.3159 29.9519 15.8792C30.1494 16.1831 30.4725 15.9064 30.5424 15.9957C30.9581 17.1417 32.3877 16.3686 32.4964 16.3881C32.679 16.3881 32.902 16.9005 33.0457 16.8877C33.2792 16.8484 33.2131 16.6891 33.4171 16.7532C33.3626 17.1844 33.8173 17.6817 33.8173 18.0041C33.8173 18.0041 33.9279 18.0585 34.0304 17.9628C34.1329 17.8672 34.2271 17.6215 34.3183 17.6273C34.5359 17.6584 34.624 17.6863 34.8747 17.7301C35.5488 17.9604 35.8921 18.0123 36.1539 18.1303C36.2757 18.3532 36.3937 18.4674 36.6406 18.4257C36.8446 18.5627 36.6958 18.7422 36.8162 18.7538C37.0649 18.6295 37.1464 18.4935 37.395 18.6179C37.6436 18.7422 37.8923 18.9908 38.0166 19.2395C38.0166 19.3637 37.8923 19.861 38.0166 20.6068C38.0787 20.8555 38.1088 21.0526 38.3759 21.479C38.305 21.917 38.712 22.6541 38.712 22.8406C38.712 23.0891 38.5138 23.2174 38.3895 23.466C38.8868 23.8389 38.3895 24.4604 38.1409 24.8334C40.0056 25.2063 39.1354 25.9522 40.6271 25.5792C40.2541 26.4494 40.3862 26.3795 40.7591 27.2497C40.0132 27.747 40.7437 27.8984 40.2465 28.5199C40.2154 28.5588 40.5416 29.0599 41 29.0599C40.8757 30.0544 40.5028 29.6815 40.6271 31.1732C39.6481 31.1538 40.0443 32.2882 39.384 32.1677C39.4228 32.8786 39.7608 32.9408 39.6326 33.6594C39.1354 33.7837 39.1354 33.7837 38.8868 34.1567L38.5138 34.0323C38.3895 34.6539 38.1409 34.7782 38.5138 35.3998C38.5138 35.3998 38.0321 35.4153 37.8923 35.3998C37.8806 35.6135 38.1059 35.6717 38.1409 35.897C38.1215 35.9863 37.4338 36.3787 36.8978 36.3943C36.758 36.7012 37.2707 37.0275 37.2396 37.1829C36.6569 37.2955 36.4005 38.0103 36.4005 38.0103C36.4005 38.0103 36.6996 38.1307 36.6492 38.2589C36.4899 38.1423 36.4005 38.1346 36.1519 38.1346C36.0276 38.1657 35.7247 38.127 35.4341 38.6173C35.1153 38.7224 34.9648 38.6844 34.7229 39.0043C34.6158 38.6996 34.4618 39.0071 34.2734 39.1253C34.0853 39.2437 33.8318 39.5379 33.7978 39.5254C33.8055 39.4398 33.9143 39.1291 33.9143 39.1291L33.2928 39.2534C33.2928 39.2534 33.265 39.2561 33.2162 39.2611C33.1673 39.2659 33.1804 38.8982 33.0626 38.9115C32.9448 38.925 32.6078 39.374 32.4929 39.388C32.3783 39.4021 32.3419 39.2452 32.2431 39.2588C32.1443 39.2725 31.9516 39.7324 31.8816 39.7446C31.8116 39.7569 31.534 39.4651 31.2961 39.5058C30.0724 39.9371 29.8781 38.6552 29.6878 39.3777C29.4314 39.2417 29.4758 39.3206 29.2153 39.3889C29.0491 39.4317 29.0339 39.1691 28.8861 39.1732C28.5904 39.1815 28.6059 39.4612 28.4447 39.3777C28.3127 38.7949 27.5162 38.8998 27.4385 38.6512C27.3754 38.3919 27.7836 38.3932 27.9156 38.2175C28.0166 37.964 27.8102 37.8678 28.2198 37.6233C28.7537 37.2622 28.4468 37.1259 28.5404 36.8545C28.7078 36.4627 28.7088 36.367 28.569 36.0213C28.569 36.0213 28.1533 34.9025 28.0717 34.9025C27.8231 34.8327 27.8231 35.3142 27.4579 35.4464C26.7121 35.695 25.3952 34.817 25.166 34.817C24.9563 34.8209 23.9848 35.0471 24.0215 34.5627C23.8763 35.0336 23.3421 34.6733 23.3092 34.6733C22.8119 34.6733 23.0022 35.0579 22.6681 35.0423C22.5166 34.9919 20.986 34.9025 20.986 34.9025V35.1511L19.9916 34.6539L19.1214 34.4053C18.3756 34.1567 18.7485 33.5351 17.5054 33.908V33.1622H16.8839C17.1324 31.6704 16.8839 32.4163 16.7595 31.0489L16.2623 31.1732C15.7651 30.5012 16.9537 30.6293 15.8894 30.1787C15.8894 30.1787 15.9088 29.4367 15.6407 29.6815C15.5863 29.7126 15.7651 30.0544 15.7651 30.0544C14.7706 29.9301 14.5219 29.6815 14.5219 28.687C14.5219 28.687 15.3416 28.8036 15.2678 28.687C15.1513 28.5005 14.9998 27.2885 15.0269 27.207C15.0153 27.0438 15.7884 26.632 15.6388 26.2396C15.734 26.2046 16.0136 26.2008 16.0136 26.2008Z" fill="white"/>
</g>
</svg>
