<svg width="54" height="54" viewBox="0 0 54 54" fill="none" xmlns="http://www.w3.org/2000/svg">
<mask id="mask0_1_41712" style="mask-type:alpha" maskUnits="userSpaceOnUse" x="3" y="9" width="48" height="36">
<path d="M3.56934 18.1356C4.16681 13.4125 8.0415 10.0019 12.7861 9.60887C16.6412 9.28949 21.6196 9 27 9C32.3804 9 37.3588 9.28949 41.2139 9.60887C45.9585 10.0019 49.8332 13.4125 50.4307 18.1356C50.752 20.6759 51 23.704 51 27C51 30.296 50.752 33.3241 50.4307 35.8644C49.8332 40.5875 45.9585 43.9981 41.2139 44.3911C37.3588 44.7105 32.3804 45 27 45C21.6196 45 16.6412 44.7105 12.7861 44.3911C8.04151 43.9981 4.16681 40.5875 3.56934 35.8644C3.248 33.3241 3 30.296 3 27C3 23.704 3.248 20.6759 3.56934 18.1356Z" fill="#00D0BF"/>
</mask>
<g mask="url(#mask0_1_41712)">
<rect x="3" y="9" width="48" height="36" fill="#2E50A6"/>
<rect x="28" y="28" width="26" height="20" transform="rotate(-180 28 28)" fill="#F5F5F5"/>
<rect x="27" y="27" width="8" height="18" transform="rotate(-180 27 27)" fill="#EE5757"/>
<rect x="19" y="27" width="8" height="18" transform="rotate(-180 19 27)" fill="#F5F5F5"/>
<rect x="11" y="27" width="8" height="18" transform="rotate(-180 11 27)" fill="#3F6FEB"/>
<path d="M35.5921 29L36.3262 30.1689H38.4144V34.2456L36.8465 31.7939L34.7368 35.1579H35.7631L36.8465 33.2193L39.0701 37.2105L41.2938 33.2193L42.3772 35.1579H43.4035L41.2938 31.7939L39.7259 34.2456V31.9934H40.6666L41.3651 30.8816H39.7259V30.1689H41.8141L42.5482 29H35.5921ZM38.0438 33.989H35.7631V34.7873H38.0438V33.989ZM42.3772 33.989H40.0965V34.7873H42.3772V33.989Z" fill="white"/>
<path d="M33.3684 30.3684L33.6757 31.314H34.6699L33.8655 31.8983L34.1728 32.8439L33.3684 32.2595L32.5641 32.8439L32.8713 31.8983L32.067 31.314H33.0612L33.3684 30.3684Z" fill="#F5F5F5"/>
<path d="M45 30.3684L45.3072 31.314H46.3015L45.4971 31.8983L45.8044 32.8439L45 32.2595L44.1957 32.8439L44.5029 31.8983L43.6986 31.314H44.6928L45 30.3684Z" fill="#F5F5F5"/>
<path d="M41.579 35.8421L41.8862 36.7877H42.8804L42.0761 37.372L42.3833 38.3176L41.579 37.7332L40.7747 38.3176L41.0819 37.372L40.2775 36.7877H41.2718L41.579 35.8421Z" fill="#F5F5F5"/>
<path d="M36.1052 35.8421L36.4125 36.7877H37.4067L36.6023 37.372L36.9096 38.3176L36.1052 37.7332L35.3009 38.3176L35.6081 37.372L34.8038 36.7877H35.798L36.1052 35.8421Z" fill="#F5F5F5"/>
<path d="M39.0474 39.2632L39.3546 40.2087H40.3488L39.5445 40.7931L39.8517 41.7387L39.0474 41.1543L38.243 41.7387L38.5503 40.7931L37.7459 40.2087H38.7401L39.0474 39.2632Z" fill="#F5F5F5"/>
</g>
</svg>
