<svg width="54" height="48" viewBox="0 0 54 48" fill="none" xmlns="http://www.w3.org/2000/svg">
<mask id="mask0_1_41712" style="mask-type:alpha" maskUnits="userSpaceOnUse" x="3" y="6" width="48" height="36">
<path d="M3.56934 15.1356C4.16681 10.4125 8.0415 7.00193 12.7861 6.60887C16.6412 6.28949 21.6196 6 27 6C32.3804 6 37.3588 6.28949 41.2139 6.60887C45.9585 7.00193 49.8332 10.4125 50.4307 15.1356C50.752 17.6759 51 20.704 51 24C51 27.296 50.752 30.3241 50.4307 32.8644C49.8332 37.5875 45.9585 40.9981 41.2139 41.3911C37.3588 41.7105 32.3804 42 27 42C21.6196 42 16.6412 41.7105 12.7861 41.3911C8.0415 40.9981 4.16681 37.5875 3.56934 32.8644C3.248 30.3241 3 27.296 3 24C3 20.704 3.248 17.6759 3.56934 15.1356Z" fill="#00D0BF"/>
</mask>
<g mask="url(#mask0_1_41712)">
<rect x="3" y="6" width="48" height="36" fill="#2E50A6"/>
<rect x="28" y="25" width="26" height="20" transform="rotate(-180 28 25)" fill="#F5F5F5"/>
<rect x="27" y="24" width="8" height="18" transform="rotate(-180 27 24)" fill="#EE5757"/>
<rect x="19" y="24" width="8" height="18" transform="rotate(-180 19 24)" fill="#F5F5F5"/>
<rect x="11" y="24" width="8" height="18" transform="rotate(-180 11 24)" fill="#3F6FEB"/>
<path d="M35.5921 26L36.3262 27.1689H38.4144V31.2456L36.8465 28.7939L34.7368 32.1579H35.7631L36.8465 30.2193L39.0701 34.2105L41.2938 30.2193L42.3772 32.1579H43.4035L41.2938 28.7939L39.7259 31.2456V28.9934H40.6666L41.3651 27.8816H39.7259V27.1689H41.8141L42.5482 26H35.5921ZM38.0438 30.989H35.7631V31.7873H38.0438V30.989ZM42.3772 30.989H40.0965V31.7873H42.3772V30.989Z" fill="white"/>
<path d="M33.3684 27.3684L33.6757 28.314H34.6699L33.8655 28.8983L34.1728 29.8439L33.3684 29.2595L32.5641 29.8439L32.8713 28.8983L32.067 28.314H33.0612L33.3684 27.3684Z" fill="#F5F5F5"/>
<path d="M45 27.3684L45.3072 28.314H46.3015L45.4971 28.8983L45.8044 29.8439L45 29.2595L44.1957 29.8439L44.5029 28.8983L43.6986 28.314H44.6928L45 27.3684Z" fill="#F5F5F5"/>
<path d="M41.579 32.8421L41.8862 33.7877H42.8804L42.0761 34.372L42.3833 35.3176L41.579 34.7332L40.7747 35.3176L41.0819 34.372L40.2775 33.7877H41.2718L41.579 32.8421Z" fill="#F5F5F5"/>
<path d="M36.1052 32.8421L36.4125 33.7877H37.4067L36.6023 34.372L36.9096 35.3176L36.1052 34.7332L35.3009 35.3176L35.6081 34.372L34.8038 33.7877H35.798L36.1052 32.8421Z" fill="#F5F5F5"/>
<path d="M39.0474 36.2632L39.3546 37.2087H40.3488L39.5445 37.7931L39.8517 38.7387L39.0474 38.1543L38.243 38.7387L38.5503 37.7931L37.7459 37.2087H38.7401L39.0474 36.2632Z" fill="#F5F5F5"/>
</g>
</svg>
