<svg width="54" height="48" viewBox="0 0 54 48" fill="none" xmlns="http://www.w3.org/2000/svg">
<mask id="mask0_1_28901" style="mask-type:alpha" maskUnits="userSpaceOnUse" x="3" y="6" width="48" height="36">
<path d="M3.56934 15.1356C4.16681 10.4125 8.0415 7.00193 12.7861 6.60887C16.6412 6.28949 21.6196 6 27 6C32.3804 6 37.3588 6.28949 41.2139 6.60887C45.9585 7.00193 49.8332 10.4125 50.4307 15.1356C50.752 17.6759 51 20.704 51 24C51 27.296 50.752 30.3241 50.4307 32.8644C49.8332 37.5875 45.9585 40.9981 41.2139 41.3911C37.3588 41.7105 32.3804 42 27 42C21.6196 42 16.6412 41.7105 12.7861 41.3911C8.0415 40.9981 4.16681 37.5875 3.56934 32.8644C3.248 30.3241 3 27.296 3 24C3 20.704 3.248 17.6759 3.56934 15.1356Z" fill="#00D0BF"/>
</mask>
<g mask="url(#mask0_1_28901)">
<rect x="3" y="6" width="48" height="36" fill="#2C2929"/>
<path d="M37 20L27 18.6364L27 21.3636L37 20Z" fill="#FCD95E"/>
<path d="M17 20L27 21.3636L27 18.6364L17 20Z" fill="#FCD95E"/>
<path d="M27 10L25.6364 20L28.3636 20L27 10Z" fill="#FCD95E"/>
<path d="M27 30L28.3636 20L25.6364 20L27 30Z" fill="#FCD95E"/>
<path d="M30.4202 10.603L25.7186 19.5336L28.2814 20.4664L30.4202 10.603Z" fill="#FCD95E"/>
<path d="M23.5798 29.397L28.2814 20.4664L25.7186 19.5336L23.5798 29.397Z" fill="#FCD95E"/>
<path d="M34.071 12.929L26.0357 19.0358L27.9642 20.9643L34.071 12.929Z" fill="#FCD95E"/>
<path d="M19.929 27.0711L27.9643 20.9643L26.0358 19.0358L19.929 27.0711Z" fill="#FCD95E"/>
<path d="M36.0631 15.7738L26.4237 18.7641L27.5763 21.2359L36.0631 15.7738Z" fill="#FCD95E"/>
<path d="M17.937 24.2262L27.5764 21.2359L26.4238 18.7642L17.937 24.2262Z" fill="#FCD95E"/>
<path d="M17.8367 15.9958L26.454 21.2495L27.546 18.7504L17.8367 15.9958Z" fill="#FCD95E"/>
<path d="M36.1633 24.0042L27.546 18.7505L26.454 21.2496L36.1633 24.0042Z" fill="#FCD95E"/>
<path d="M20.3874 12.4984L25.9771 20.9017L28.023 19.0983L20.3874 12.4984Z" fill="#FCD95E"/>
<path d="M33.6126 27.5016L28.0229 19.0983L25.977 20.9017L33.6126 27.5016Z" fill="#FCD95E"/>
<path d="M23.3519 10.6892L25.7304 20.4975L28.2697 19.5025L23.3519 10.6892Z" fill="#FCD95E"/>
<path d="M30.6481 29.3108L28.2696 19.5025L25.7303 20.4975L30.6481 29.3108Z" fill="#FCD95E"/>
<rect x="9" y="26" width="36" height="16" fill="#F5F5F5"/>
<rect x="9" y="20" width="36" height="6" fill="#75AAFA"/>
<path d="M27 42L2 2V43.5H52V2L27 42Z" fill="#EE5757"/>
</g>
</svg>
