<svg width="54" height="54" viewBox="0 0 54 54" fill="none" xmlns="http://www.w3.org/2000/svg">
<mask id="mask0_1_28901" style="mask-type:alpha" maskUnits="userSpaceOnUse" x="3" y="9" width="48" height="36">
<path d="M3.56934 18.1356C4.16681 13.4125 8.0415 10.0019 12.7861 9.60887C16.6412 9.28949 21.6196 9 27 9C32.3804 9 37.3588 9.28949 41.2139 9.60887C45.9585 10.0019 49.8332 13.4125 50.4307 18.1356C50.752 20.6759 51 23.704 51 27C51 30.296 50.752 33.3241 50.4307 35.8644C49.8332 40.5875 45.9585 43.9981 41.2139 44.3911C37.3588 44.7105 32.3804 45 27 45C21.6196 45 16.6412 44.7105 12.7861 44.3911C8.04151 43.9981 4.16681 40.5875 3.56934 35.8644C3.248 33.3241 3 30.296 3 27C3 23.704 3.248 20.6759 3.56934 18.1356Z" fill="#00D0BF"/>
</mask>
<g mask="url(#mask0_1_28901)">
<rect x="3" y="9" width="48" height="36" fill="#2C2929"/>
<path d="M37 23L27 21.6364L27 24.3636L37 23Z" fill="#FCD95E"/>
<path d="M17 23L27 24.3636L27 21.6364L17 23Z" fill="#FCD95E"/>
<path d="M27 13L25.6364 23L28.3636 23L27 13Z" fill="#FCD95E"/>
<path d="M27 33L28.3636 23L25.6364 23L27 33Z" fill="#FCD95E"/>
<path d="M30.4202 13.603L25.7186 22.5336L28.2814 23.4664L30.4202 13.603Z" fill="#FCD95E"/>
<path d="M23.5798 32.397L28.2814 23.4664L25.7186 22.5336L23.5798 32.397Z" fill="#FCD95E"/>
<path d="M34.071 15.929L26.0357 22.0358L27.9642 23.9643L34.071 15.929Z" fill="#FCD95E"/>
<path d="M19.929 30.0711L27.9643 23.9643L26.0358 22.0358L19.929 30.0711Z" fill="#FCD95E"/>
<path d="M36.0631 18.7738L26.4237 21.7641L27.5763 24.2359L36.0631 18.7738Z" fill="#FCD95E"/>
<path d="M17.937 27.2262L27.5764 24.2359L26.4238 21.7642L17.937 27.2262Z" fill="#FCD95E"/>
<path d="M17.8367 18.9958L26.454 24.2495L27.546 21.7504L17.8367 18.9958Z" fill="#FCD95E"/>
<path d="M36.1633 27.0042L27.546 21.7505L26.454 24.2496L36.1633 27.0042Z" fill="#FCD95E"/>
<path d="M20.3874 15.4984L25.9771 23.9017L28.023 22.0983L20.3874 15.4984Z" fill="#FCD95E"/>
<path d="M33.6126 30.5016L28.0229 22.0983L25.977 23.9017L33.6126 30.5016Z" fill="#FCD95E"/>
<path d="M23.3519 13.6892L25.7304 23.4975L28.2697 22.5025L23.3519 13.6892Z" fill="#FCD95E"/>
<path d="M30.6481 32.3108L28.2696 22.5025L25.7303 23.4975L30.6481 32.3108Z" fill="#FCD95E"/>
<rect x="9" y="29" width="36" height="16" fill="#F5F5F5"/>
<rect x="9" y="23" width="36" height="6" fill="#75AAFA"/>
<path d="M27 45L2 5V46.5H52V5L27 45Z" fill="#EE5757"/>
</g>
</svg>
