<svg width="54" height="48" viewBox="0 0 54 48" fill="none" xmlns="http://www.w3.org/2000/svg">
<mask id="mask0_1_36620" style="mask-type:alpha" maskUnits="userSpaceOnUse" x="3" y="6" width="48" height="36">
<path d="M3.56934 15.1356C4.16681 10.4125 8.0415 7.00193 12.7861 6.60887C16.6412 6.28949 21.6196 6 27 6C32.3804 6 37.3588 6.28949 41.2139 6.60887C45.9585 7.00193 49.8332 10.4125 50.4307 15.1356C50.752 17.6759 51 20.704 51 24C51 27.296 50.752 30.3241 50.4307 32.8644C49.8332 37.5875 45.9585 40.9981 41.2139 41.3911C37.3588 41.7105 32.3804 42 27 42C21.6196 42 16.6412 41.7105 12.7861 41.3911C8.0415 40.9981 4.16681 37.5875 3.56934 32.8644C3.248 30.3241 3 27.296 3 24C3 20.704 3.248 17.6759 3.56934 15.1356Z" fill="#00D0BF"/>
</mask>
<g mask="url(#mask0_1_36620)">
<rect x="3" y="6" width="48" height="36" fill="#2E50A6"/>
<mask id="mask1_1_36620" style="mask-type:alpha" maskUnits="userSpaceOnUse" x="3" y="6" width="24" height="18">
<rect x="3" y="6" width="24" height="18" fill="#C4C4C4"/>
</mask>
<g mask="url(#mask1_1_36620)">
<path d="M3 6L27 24L3 6ZM27 6L3 24L27 6Z" fill="black"/>
<path d="M27 6L3 24M3 6L27 24L3 6Z" stroke="white" stroke-width="2.4"/>
<path d="M3 6L27 24L3 6ZM27 6L3 24L27 6Z" fill="black"/>
<path d="M27 6L3 24M3 6L27 24L3 6Z" stroke="#EE5757" stroke-width="1.6"/>
<path d="M15 6V27V6ZM3 15H31H3Z" fill="black"/>
<path d="M3 15H31M15 6V27V6Z" stroke="white" stroke-width="4"/>
<path d="M15 6V27V6ZM3 15H31H3Z" fill="black"/>
<path d="M3 15H31M15 6V27V6Z" stroke="#EE5757" stroke-width="2.4"/>
</g>
<path d="M38.2926 16.0195L38.693 14.7744L39.9161 15.2376L39.1924 14.1482L40.3171 13.4808L39.0142 13.3674L39.1936 12.0719L38.2926 13.0199L37.3916 12.0719L37.571 13.3674L36.2681 13.4808L37.3928 14.1482L36.669 15.2376L37.8922 14.7744L38.2926 16.0195Z" fill="white"/>
<path d="M31.0245 27.5272L31.425 26.2822L32.6481 26.7454L31.9243 25.656L33.0491 24.9885L31.7461 24.8752L31.9255 23.5797L31.0245 24.5277L30.1235 23.5797L30.303 24.8752L29 24.9885L30.1247 25.656L29.401 26.7454L30.6241 26.2822L31.0245 27.5272Z" fill="white"/>
<path d="M15 36L15.7912 33.4768L18.2077 34.4155L16.7778 32.2078L19 30.8552L16.4257 30.6254L16.7802 28L15 29.9212L13.2198 28L13.5743 30.6254L11 30.8552L13.2222 32.2078L11.7922 34.4155L14.2088 33.4768L15 36Z" fill="white"/>
<path d="M38.2926 35.401L38.693 34.1559L39.9161 34.6191L39.1924 33.5298L40.3171 32.8623L39.0142 32.749L39.1936 31.4535L38.2926 32.4015L37.3916 31.4535L37.571 32.749L36.2681 32.8623L37.3928 33.5298L36.669 34.6191L37.8922 34.1559L38.2926 35.401Z" fill="white"/>
<path d="M44.7531 29.4654L45.1535 28.2203L46.3767 28.6835L45.6529 27.5942L46.7776 26.9267L45.4747 26.8134L45.6541 25.5179L44.7531 26.4659L43.8521 25.5179L44.0315 26.8134L42.7286 26.9267L43.8533 27.5942L43.1296 28.6835L44.3527 28.2203L44.7531 29.4654Z" fill="white"/>
<path d="M41.1998 23.6336L41.5163 22.8578L42.3519 22.7966L41.7119 22.2559L41.9119 21.4423L41.1998 21.8839L40.4878 21.4423L40.6878 22.2559L40.0478 22.7966L40.8834 22.8578L41.1998 23.6336Z" fill="white"/>
</g>
</svg>
