<svg width="54" height="54" viewBox="0 0 54 54" fill="none" xmlns="http://www.w3.org/2000/svg">
<mask id="mask0_1_36620" style="mask-type:alpha" maskUnits="userSpaceOnUse" x="3" y="9" width="48" height="36">
<path d="M3.56934 18.1356C4.16681 13.4125 8.0415 10.0019 12.7861 9.60887C16.6412 9.28949 21.6196 9 27 9C32.3804 9 37.3588 9.28949 41.2139 9.60887C45.9585 10.0019 49.8332 13.4125 50.4307 18.1356C50.752 20.6759 51 23.704 51 27C51 30.296 50.752 33.3241 50.4307 35.8644C49.8332 40.5875 45.9585 43.9981 41.2139 44.3911C37.3588 44.7105 32.3804 45 27 45C21.6196 45 16.6412 44.7105 12.7861 44.3911C8.04151 43.9981 4.16681 40.5875 3.56934 35.8644C3.248 33.3241 3 30.296 3 27C3 23.704 3.248 20.6759 3.56934 18.1356Z" fill="#00D0BF"/>
</mask>
<g mask="url(#mask0_1_36620)">
<rect x="3" y="9" width="48" height="36" fill="#2E50A6"/>
<mask id="mask1_1_36620" style="mask-type:alpha" maskUnits="userSpaceOnUse" x="3" y="9" width="24" height="18">
<rect x="3" y="9" width="24" height="18" fill="#C4C4C4"/>
</mask>
<g mask="url(#mask1_1_36620)">
<path d="M3 9L27 27L3 9ZM27 9L3 27Z" fill="black"/>
<path d="M27 9L3 27M3 9L27 27L3 9Z" stroke="white" stroke-width="2.4"/>
<path d="M3 9L27 27L3 9ZM27 9L3 27Z" fill="black"/>
<path d="M27 9L3 27M3 9L27 27L3 9Z" stroke="#EE5757" stroke-width="1.6"/>
<path d="M15 9V30V9ZM3 18H31Z" fill="black"/>
<path d="M3 18H31M15 9V30V9Z" stroke="white" stroke-width="4"/>
<path d="M15 9V30V9ZM3 18H31Z" fill="black"/>
<path d="M3 18H31M15 9V30V9Z" stroke="#EE5757" stroke-width="2.4"/>
</g>
<path d="M38.2926 19.0195L38.693 17.7744L39.9161 18.2376L39.1924 17.1482L40.3171 16.4808L39.0142 16.3674L39.1936 15.0719L38.2926 16.0199L37.3916 15.0719L37.571 16.3674L36.2681 16.4808L37.3928 17.1482L36.669 18.2376L37.8922 17.7744L38.2926 19.0195Z" fill="white"/>
<path d="M31.0245 30.5272L31.425 29.2822L32.6481 29.7454L31.9243 28.656L33.0491 27.9885L31.7461 27.8752L31.9255 26.5797L31.0245 27.5277L30.1235 26.5797L30.303 27.8752L29 27.9885L30.1247 28.656L29.401 29.7454L30.6241 29.2822L31.0245 30.5272Z" fill="white"/>
<path d="M15 39L15.7912 36.4768L18.2078 37.4155L16.7778 35.2078L19 33.8552L16.4257 33.6254L16.7802 31L15 32.9212L13.2198 31L13.5743 33.6254L11 33.8552L13.2222 35.2078L11.7922 37.4155L14.2088 36.4768L15 39Z" fill="white"/>
<path d="M38.2926 38.401L38.693 37.1559L39.9161 37.6191L39.1924 36.5298L40.3171 35.8623L39.0142 35.749L39.1936 34.4535L38.2926 35.4015L37.3916 34.4535L37.571 35.749L36.2681 35.8623L37.3928 36.5298L36.669 37.6191L37.8922 37.1559L38.2926 38.401Z" fill="white"/>
<path d="M44.7531 32.4654L45.1535 31.2203L46.3767 31.6835L45.6529 30.5942L46.7776 29.9267L45.4747 29.8134L45.6541 28.5179L44.7531 29.4659L43.8521 28.5179L44.0315 29.8134L42.7286 29.9267L43.8533 30.5942L43.1296 31.6835L44.3527 31.2203L44.7531 32.4654Z" fill="white"/>
<path d="M41.1998 26.6336L41.5163 25.8578L42.3519 25.7966L41.7119 25.2559L41.9119 24.4423L41.1998 24.8839L40.4878 24.4423L40.6878 25.2559L40.0478 25.7966L40.8834 25.8578L41.1998 26.6336Z" fill="white"/>
</g>
</svg>
