<svg width="54" height="54" viewBox="0 0 54 54" fill="none" xmlns="http://www.w3.org/2000/svg">
<mask id="mask0_1_29818" style="mask-type:alpha" maskUnits="userSpaceOnUse" x="3" y="9" width="48" height="36">
<path d="M3.56934 18.1356C4.16681 13.4125 8.0415 10.0019 12.7861 9.60887C16.6412 9.28949 21.6196 9 27 9C32.3804 9 37.3588 9.28949 41.2139 9.60887C45.9585 10.0019 49.8332 13.4125 50.4307 18.1356C50.752 20.6759 51 23.704 51 27C51 30.296 50.752 33.3241 50.4307 35.8644C49.8332 40.5875 45.9585 43.9981 41.2139 44.3911C37.3588 44.7105 32.3804 45 27 45C21.6196 45 16.6412 44.7105 12.7861 44.3911C8.04151 43.9981 4.16681 40.5875 3.56934 35.8644C3.248 33.3241 3 30.296 3 27C3 23.704 3.248 20.6759 3.56934 18.1356Z" fill="#00D0BF"/>
</mask>
<g mask="url(#mask0_1_29818)">
<rect x="3" y="33" width="48" height="12" fill="#59C785"/>
<rect x="3" y="21" width="48" height="12" fill="#EE5757"/>
<path fill-rule="evenodd" clip-rule="evenodd" d="M29.444 30.1584C28.4858 31.4288 26.9638 32.25 25.25 32.25C22.3505 32.25 20 29.8995 20 27C20 24.1005 22.3505 21.75 25.25 21.75C26.9638 21.75 28.4858 22.5712 29.444 23.8416C28.6581 23.088 27.5915 22.625 26.4167 22.625C24.0004 22.625 22.0417 24.5838 22.0417 27C22.0417 29.4162 24.0004 31.375 26.4167 31.375C27.5915 31.375 28.6581 30.912 29.444 30.1584Z" fill="white"/>
<path d="M31.0834 24.0833L31.6414 25.6527L33.1457 24.9376L32.4307 26.4419L34 27L32.4307 27.5581L33.1457 29.0624L31.6414 28.3473L31.0834 29.9166L30.5253 28.3473L29.021 29.0624L29.736 27.5581L28.1667 27L29.736 26.4419L29.021 24.9376L30.5253 25.6527L31.0834 24.0833Z" fill="white"/>
<rect x="3" y="9" width="48" height="12" fill="#75AAFA"/>
</g>
</svg>
