<svg width="54" height="48" viewBox="0 0 54 48" fill="none" xmlns="http://www.w3.org/2000/svg">
<mask id="mask0_1_29818" style="mask-type:alpha" maskUnits="userSpaceOnUse" x="3" y="6" width="48" height="36">
<path d="M3.56934 15.1356C4.16681 10.4125 8.0415 7.00193 12.7861 6.60887C16.6412 6.28949 21.6196 6 27 6C32.3804 6 37.3588 6.28949 41.2139 6.60887C45.9585 7.00193 49.8332 10.4125 50.4307 15.1356C50.752 17.6759 51 20.704 51 24C51 27.296 50.752 30.3241 50.4307 32.8644C49.8332 37.5875 45.9585 40.9981 41.2139 41.3911C37.3588 41.7105 32.3804 42 27 42C21.6196 42 16.6412 41.7105 12.7861 41.3911C8.0415 40.9981 4.16681 37.5875 3.56934 32.8644C3.248 30.3241 3 27.296 3 24C3 20.704 3.248 17.6759 3.56934 15.1356Z" fill="#00D0BF"/>
</mask>
<g mask="url(#mask0_1_29818)">
<rect x="3" y="30" width="48" height="12" fill="#59C785"/>
<rect x="3" y="18" width="48" height="12" fill="#EE5757"/>
<path fill-rule="evenodd" clip-rule="evenodd" d="M29.444 27.1584C28.4858 28.4288 26.9638 29.25 25.25 29.25C22.3505 29.25 20 26.8995 20 24C20 21.1005 22.3505 18.75 25.25 18.75C26.9638 18.75 28.4858 19.5712 29.444 20.8416C28.6581 20.088 27.5915 19.625 26.4167 19.625C24.0004 19.625 22.0417 21.5838 22.0417 24C22.0417 26.4162 24.0004 28.375 26.4167 28.375C27.5915 28.375 28.6581 27.912 29.444 27.1584Z" fill="white"/>
<path d="M31.0834 21.0833L31.6414 22.6527L33.1457 21.9376L32.4307 23.4419L34 24L32.4307 24.5581L33.1457 26.0624L31.6414 25.3473L31.0834 26.9166L30.5253 25.3473L29.021 26.0624L29.736 24.5581L28.1667 24L29.736 23.4419L29.021 21.9376L30.5253 22.6527L31.0834 21.0833Z" fill="white"/>
<rect x="3" y="6" width="48" height="12" fill="#75AAFA"/>
</g>
</svg>
