<svg width="54" height="48" viewBox="0 0 54 48" fill="none" xmlns="http://www.w3.org/2000/svg">
<mask id="mask0_1_34310" style="mask-type:alpha" maskUnits="userSpaceOnUse" x="3" y="6" width="48" height="36">
<path d="M3.56934 15.1356C4.16681 10.4125 8.0415 7.00193 12.7861 6.60887C16.6412 6.28949 21.6196 6 27 6C32.3804 6 37.3588 6.28949 41.2139 6.60887C45.9585 7.00193 49.8332 10.4125 50.4307 15.1356C50.752 17.6759 51 20.704 51 24C51 27.296 50.752 30.3241 50.4307 32.8644C49.8332 37.5875 45.9585 40.9981 41.2139 41.3911C37.3588 41.7105 32.3804 42 27 42C21.6196 42 16.6412 41.7105 12.7861 41.3911C8.0415 40.9981 4.16681 37.5875 3.56934 32.8644C3.248 30.3241 3 27.296 3 24C3 20.704 3.248 17.6759 3.56934 15.1356Z" fill="#00D0BF"/>
</mask>
<g mask="url(#mask0_1_34310)">
<path d="M3 6H51V42H3V6Z" fill="#59C785"/>
<path d="M27 22L3.5 40L27 52L50.5 40L27 22Z" fill="#F5F5F5"/>
<path d="M27 26L50.5 8L27 -4L3.5 8L27 26Z" fill="#F5F5F5"/>
<path d="M27 26L7 41L27 56L47 41L27 26Z" fill="#EE5757"/>
<path d="M27 -8L7 7L27 22L47 7L27 -8Z" fill="#EE5757"/>
</g>
<circle cx="27" cy="24" r="9" fill="#F5F5F5"/>
<path d="M27 18.2483L27.617 19.3072L27.653 19.369L27.7245 19.3693L28.95 19.3741L28.3415 20.4379L28.306 20.5L28.3415 20.5621L28.95 21.6259L27.7245 21.6307L27.653 21.631L27.617 21.6928L27 22.7517L26.383 21.6928L26.347 21.631L26.2755 21.6307L25.05 21.6259L25.6585 20.5621L25.694 20.5L25.6585 20.4379L25.05 19.3741L26.2755 19.3693L26.347 19.369L26.383 19.3072L27 18.2483Z" fill="#EE5757" stroke="#59C785" stroke-width="0.25"/>
<path d="M30.5 24.7483L31.117 25.8072L31.153 25.869L31.2245 25.8693L32.45 25.8741L31.8415 26.9379L31.806 27L31.8415 27.0621L32.45 28.1259L31.2245 28.1307L31.153 28.131L31.117 28.1928L30.5 29.2517L29.883 28.1928L29.847 28.131L29.7755 28.1307L28.55 28.1259L29.1585 27.0621L29.194 27L29.1585 26.9379L28.55 25.8741L29.7755 25.8693L29.847 25.869L29.883 25.8072L30.5 24.7483Z" fill="#EE5757" stroke="#59C785" stroke-width="0.25"/>
<path d="M23.5 24.7483L24.117 25.8072L24.153 25.869L24.2245 25.8693L25.45 25.8741L24.8415 26.9379L24.806 27L24.8415 27.0621L25.45 28.1259L24.2245 28.1307L24.153 28.131L24.117 28.1928L23.5 29.2517L22.883 28.1928L22.847 28.131L22.7755 28.1307L21.55 28.1259L22.1585 27.0621L22.194 27L22.1585 26.9379L21.55 25.8741L22.7755 25.8693L22.847 25.869L22.883 25.8072L23.5 24.7483Z" fill="#EE5757" stroke="#59C785" stroke-width="0.25"/>
</svg>
