<svg width="54" height="54" viewBox="0 0 54 54" fill="none" xmlns="http://www.w3.org/2000/svg">
<mask id="mask0_1_34310" style="mask-type:alpha" maskUnits="userSpaceOnUse" x="3" y="9" width="48" height="36">
<path d="M3.56934 18.1356C4.16681 13.4125 8.0415 10.0019 12.7861 9.60887C16.6412 9.28949 21.6196 9 27 9C32.3804 9 37.3588 9.28949 41.2139 9.60887C45.9585 10.0019 49.8332 13.4125 50.4307 18.1356C50.752 20.6759 51 23.704 51 27C51 30.296 50.752 33.3241 50.4307 35.8644C49.8332 40.5875 45.9585 43.9981 41.2139 44.3911C37.3588 44.7105 32.3804 45 27 45C21.6196 45 16.6412 44.7105 12.7861 44.3911C8.04151 43.9981 4.16681 40.5875 3.56934 35.8644C3.248 33.3241 3 30.296 3 27C3 23.704 3.248 20.6759 3.56934 18.1356Z" fill="#00D0BF"/>
</mask>
<g mask="url(#mask0_1_34310)">
<path d="M3 9H51V45H3V9Z" fill="#59C785"/>
<path d="M27 25L3.5 43L27 55L50.5 43L27 25Z" fill="#F5F5F5"/>
<path d="M27 29L50.5 11L27 -0.999998L3.5 11L27 29Z" fill="#F5F5F5"/>
<path d="M27 29L7 44L27 59L47 44L27 29Z" fill="#EE5757"/>
<path d="M27 -5L7 10L27 25L47 10L27 -5Z" fill="#EE5757"/>
</g>
<circle cx="27" cy="27" r="9" fill="#F5F5F5"/>
<path d="M27 21.2483L27.617 22.3072L27.653 22.369L27.7245 22.3693L28.95 22.3741L28.3415 23.4379L28.306 23.5L28.3415 23.5621L28.95 24.6259L27.7245 24.6307L27.653 24.631L27.617 24.6928L27 25.7517L26.383 24.6928L26.347 24.631L26.2755 24.6307L25.05 24.6259L25.6585 23.5621L25.694 23.5L25.6585 23.4379L25.05 22.3741L26.2755 22.3693L26.347 22.369L26.383 22.3072L27 21.2483Z" fill="#EE5757" stroke="#59C785" stroke-width="0.25"/>
<path d="M30.5 27.7483L31.117 28.8072L31.153 28.869L31.2245 28.8693L32.45 28.8741L31.8415 29.9379L31.806 30L31.8415 30.0621L32.45 31.1259L31.2245 31.1307L31.153 31.131L31.117 31.1928L30.5 32.2517L29.883 31.1928L29.847 31.131L29.7755 31.1307L28.55 31.1259L29.1585 30.0621L29.194 30L29.1585 29.9379L28.55 28.8741L29.7755 28.8693L29.847 28.869L29.883 28.8072L30.5 27.7483Z" fill="#EE5757" stroke="#59C785" stroke-width="0.25"/>
<path d="M23.5 27.7483L24.117 28.8072L24.153 28.869L24.2245 28.8693L25.45 28.8741L24.8415 29.9379L24.806 30L24.8415 30.0621L25.45 31.1259L24.2245 31.1307L24.153 31.131L24.117 31.1928L23.5 32.2517L22.883 31.1928L22.847 31.131L22.7755 31.1307L21.55 31.1259L22.1585 30.0621L22.194 30L22.1585 29.9379L21.55 28.8741L22.7755 28.8693L22.847 28.869L22.883 28.8072L23.5 27.7483Z" fill="#EE5757" stroke="#59C785" stroke-width="0.25"/>
</svg>
