<svg width="54" height="54" viewBox="0 0 54 54" fill="none" xmlns="http://www.w3.org/2000/svg">
<mask id="mask0_1_40150" style="mask-type:alpha" maskUnits="userSpaceOnUse" x="3" y="9" width="48" height="36">
<path d="M3.56934 18.1356C4.16681 13.4125 8.0415 10.0019 12.7861 9.60887C16.6412 9.28949 21.6196 9 27 9C32.3804 9 37.3588 9.28949 41.2139 9.60887C45.9585 10.0019 49.8332 13.4125 50.4307 18.1356C50.752 20.6759 51 23.704 51 27C51 30.296 50.752 33.3241 50.4307 35.8644C49.8332 40.5875 45.9585 43.9981 41.2139 44.3911C37.3588 44.7105 32.3804 45 27 45C21.6196 45 16.6412 44.7105 12.7861 44.3911C8.04151 43.9981 4.16681 40.5875 3.56934 35.8644C3.248 33.3241 3 30.296 3 27C3 23.704 3.248 20.6759 3.56934 18.1356Z" fill="#00D0BF"/>
</mask>
<g mask="url(#mask0_1_40150)">
<rect x="3" y="9" width="48" height="36" fill="#2E50A6"/>
<path d="M43 45L7 9H43V45Z" fill="#FCD95E"/>
<path d="M16.5 21L17.2858 23.4184H19.8287L17.7714 24.9131L18.5572 27.3316L16.5 25.8369L14.4428 27.3316L15.2286 24.9131L13.1713 23.4184H15.7142L16.5 21Z" fill="#F5F5F5"/>
<path d="M21.5 26L22.2858 28.4184H24.8287L22.7714 29.9131L23.5572 32.3316L21.5 30.8369L19.4428 32.3316L20.2286 29.9131L18.1713 28.4184H20.7142L21.5 26Z" fill="#F5F5F5"/>
<path d="M26.5 31L27.2858 33.4184H29.8287L27.7714 34.9131L28.5572 37.3316L26.5 35.8369L24.4428 37.3316L25.2286 34.9131L23.1713 33.4184H25.7142L26.5 31Z" fill="#F5F5F5"/>
<path d="M31.5 36L32.2858 38.4184H34.8287L32.7714 39.9131L33.5572 42.3316L31.5 40.8369L29.4428 42.3316L30.2286 39.9131L28.1713 38.4184H30.7142L31.5 36Z" fill="#F5F5F5"/>
<path d="M36.5 41L37.2858 43.4184H39.8287L37.7714 44.9131L38.5572 47.3316L36.5 45.8369L34.4428 47.3316L35.2286 44.9131L33.1713 43.4184H35.7142L36.5 41Z" fill="#F5F5F5"/>
<path d="M11.5 16L12.2858 18.4184H14.8287L12.7714 19.9131L13.5572 22.3316L11.5 20.8369L9.44275 22.3316L10.2286 19.9131L8.1713 18.4184H10.7142L11.5 16Z" fill="#F5F5F5"/>
<path d="M6.5 11L7.2858 13.4184H9.8287L7.77145 14.9131L8.55725 17.3316L6.5 15.8369L4.44275 17.3316L5.22855 14.9131L3.1713 13.4184H5.7142L6.5 11Z" fill="#F5F5F5"/>
</g>
</svg>
