<svg width="54" height="48" viewBox="0 0 54 48" fill="none" xmlns="http://www.w3.org/2000/svg">
<mask id="mask0_1_40150" style="mask-type:alpha" maskUnits="userSpaceOnUse" x="3" y="6" width="48" height="36">
<path d="M3.56934 15.1356C4.16681 10.4125 8.0415 7.00193 12.7861 6.60887C16.6412 6.28949 21.6196 6 27 6C32.3804 6 37.3588 6.28949 41.2139 6.60887C45.9585 7.00193 49.8332 10.4125 50.4307 15.1356C50.752 17.6759 51 20.704 51 24C51 27.296 50.752 30.3241 50.4307 32.8644C49.8332 37.5875 45.9585 40.9981 41.2139 41.3911C37.3588 41.7105 32.3804 42 27 42C21.6196 42 16.6412 41.7105 12.7861 41.3911C8.0415 40.9981 4.16681 37.5875 3.56934 32.8644C3.248 30.3241 3 27.296 3 24C3 20.704 3.248 17.6759 3.56934 15.1356Z" fill="#00D0BF"/>
</mask>
<g mask="url(#mask0_1_40150)">
<rect x="3" y="6" width="48" height="36" fill="#2E50A6"/>
<path d="M43 42L7 6H43V42Z" fill="#FCD95E"/>
<path d="M16.5 18L17.2858 20.4184H19.8287L17.7714 21.9131L18.5572 24.3316L16.5 22.8369L14.4428 24.3316L15.2286 21.9131L13.1713 20.4184H15.7142L16.5 18Z" fill="#F5F5F5"/>
<path d="M21.5 23L22.2858 25.4184H24.8287L22.7714 26.9131L23.5572 29.3316L21.5 27.8369L19.4428 29.3316L20.2286 26.9131L18.1713 25.4184H20.7142L21.5 23Z" fill="#F5F5F5"/>
<path d="M26.5 28L27.2858 30.4184H29.8287L27.7714 31.9131L28.5572 34.3316L26.5 32.8369L24.4428 34.3316L25.2286 31.9131L23.1713 30.4184H25.7142L26.5 28Z" fill="#F5F5F5"/>
<path d="M31.5 33L32.2858 35.4184H34.8287L32.7714 36.9131L33.5572 39.3316L31.5 37.8369L29.4428 39.3316L30.2286 36.9131L28.1713 35.4184H30.7142L31.5 33Z" fill="#F5F5F5"/>
<path d="M36.5 38L37.2858 40.4184H39.8287L37.7714 41.9131L38.5572 44.3316L36.5 42.8369L34.4428 44.3316L35.2286 41.9131L33.1713 40.4184H35.7142L36.5 38Z" fill="#F5F5F5"/>
<path d="M11.5 13L12.2858 15.4184H14.8287L12.7714 16.9131L13.5572 19.3316L11.5 17.8369L9.44275 19.3316L10.2286 16.9131L8.1713 15.4184H10.7142L11.5 13Z" fill="#F5F5F5"/>
<path d="M6.5 8L7.2858 10.4184H9.8287L7.77145 11.9131L8.55725 14.3316L6.5 12.8369L4.44275 14.3316L5.22855 11.9131L3.1713 10.4184H5.7142L6.5 8Z" fill="#F5F5F5"/>
</g>
</svg>
