<svg width="54" height="48" viewBox="0 0 54 48" fill="none" xmlns="http://www.w3.org/2000/svg">
<mask id="mask0_1_28944" style="mask-type:alpha" maskUnits="userSpaceOnUse" x="3" y="6" width="48" height="36">
<path d="M3.56934 15.1356C4.16681 10.4125 8.0415 7.00193 12.7861 6.60887C16.6412 6.28949 21.6196 6 27 6C32.3804 6 37.3588 6.28949 41.2139 6.60887C45.9585 7.00193 49.8332 10.4125 50.4307 15.1356C50.752 17.6759 51 20.704 51 24C51 27.296 50.752 30.3241 50.4307 32.8644C49.8332 37.5875 45.9585 40.9981 41.2139 41.3911C37.3588 41.7105 32.3804 42 27 42C21.6196 42 16.6412 41.7105 12.7861 41.3911C8.0415 40.9981 4.16681 37.5875 3.56934 32.8644C3.248 30.3241 3 27.296 3 24C3 20.704 3.248 17.6759 3.56934 15.1356Z" fill="#00D0BF"/>
</mask>
<g mask="url(#mask0_1_28944)">
<rect x="12" y="30" width="39" height="12" fill="#59C785"/>
<path d="M7.50802 6.10394V7.38237H7.15508V6.10394H7.50802ZM3 8.33923H3.63369V7.82943H3.95455V7.20982H4.40374V6.66865H4.77273V6.10394H5.8877V6.66865H6.24866V7.20982H6.69786V7.82943H7.01872V8.33923H7.50802V9.13139H7.01872V9.64119H6.69786V10.2608H6.24866V10.802H5.8877V11.3824H5.63102V11.8686H5.02941V11.3824H4.77273V10.802H4.40374V10.2608H3.95455V9.64119H3.63369V9.13139H3V8.33923ZM3 6.37061H3.63369V7.07649H3V6.37061ZM5.48663 7.28825H5.15775V7.76669H4.84492V8.37061H4.54011V9.1157H4.84492V9.71962H5.15775V10.1902H5.48663V9.71962H5.79947V9.1157H6.1123V8.37061H5.79947V7.76669H5.48663V7.28825ZM5.51872 8.37845V9.08433H5.12567V8.37845H5.51872ZM3 10.2294H3.63369V10.9902H3V10.2294ZM7.50802 10.3V11.3745H7.15508V10.3H7.50802ZM6.64171 11.4922V12.0255H7.02674V12.5745H7.50802V13.2961H7.02674V13.853H6.64171V14.3863H6.19251V13.853H5.80749V13.2961H5.48663V12.5745H5.80749V12.0255H6.19251V11.4922H6.64171ZM3 12.5745H3.63369V12.0255H4.01872V11.4922H4.45989V12.0255H4.84492V12.5745H5.16578V13.2961H4.84492V13.853H4.45989V14.3863H4.01872V13.853H3.63369V13.2961H3V12.5745ZM6.58556 12.5902H6.25668V13.2726H6.58556V12.5902ZM4.41176 12.5902H4.08289V13.2726H4.41176V12.5902ZM4.54011 23.8922V23.5235H4.26738V22.9667H3.90642V22.6294H3.63369V22.0882H3V20.8333H3.63369V21.1941H3.90642V21.7196H4.26738V22.3471H4.78075V21.7824H5.15775V21.3667H5.43048V20.8725H5.79144V20.3471H6.05615V19.8137H6.31283V19.2647H6.65775V18.5275H6.20053V17.8608H5.70321V17.4608H4.86898V18.0412H5.35027V18.5667H5.02941V19.2098H4.65241V19.7745H4.17914V19.2098H3.7861V18.5667H3.54545V18.0412H3V17.0451H3.63369V16.402H3.87433V15.9079H4.09893V15.3431H4.41979V14.7863H4.73262V14.4177H5.10963V13.8608H5.56684V14.4177H5.94385V14.7863H6.26471V15.3431H6.57754V15.9079H6.83422V16.3941H7.09091V16.8177H7.50802V19.9314H7.03476V20.4569H6.8984V21.0059H6.54545V21.5392H6.32888V21.9314H6.10428V22.3471H5.71925V22.7549H5.16578V23.8922H4.54011ZM7.50802 14.3784V15.4529H7.15508V14.3784H7.50802ZM3 14.5824H3.63369V15.3431H3V14.5824ZM3 19.1549H3.63369V19.9157H3V19.1549ZM7.49198 21.0843V21.7745H7.15508V21.0843H7.49198ZM7.02674 23.8922V23.4608H6.81818V23.1235H6.51337V22.1118H6.81818V22.5196H7.13904V23.1157H7.49198V23.8843L7.02674 23.8922ZM5.7754 23.8843V23.3823H6.1123V23.8843" fill="#CE1720"/>
<path d="M7.49198 41.696L7.49198 40.4176L7.84492 40.4176L7.84492 41.696L7.49198 41.696ZM12 39.4608L11.3663 39.4608L11.3663 39.9706L11.0455 39.9706L11.0455 40.5902L10.5963 40.5902L10.5963 41.1313L10.2273 41.1313L10.2273 41.696L9.1123 41.696L9.1123 41.1313L8.75134 41.1313L8.75134 40.5902L8.30214 40.5902L8.30214 39.9706L7.98128 39.9706L7.98128 39.4608L7.49198 39.4608L7.49198 38.6686L7.98128 38.6686L7.98128 38.1588L8.30214 38.1588L8.30214 37.5392L8.75134 37.5392L8.75134 36.998L9.1123 36.998L9.1123 36.4176L9.36898 36.4176L9.36898 35.9313L9.97059 35.9313L9.97059 36.4176L10.2273 36.4176L10.2273 36.998L10.5963 36.998L10.5963 37.5392L11.0455 37.5392L11.0455 38.1588L11.3663 38.1588L11.3663 38.6686L12 38.6686L12 39.4608ZM12 41.4294L11.3663 41.4294L11.3663 40.7235L12 40.7235L12 41.4294ZM9.51337 40.5117L9.84225 40.5117L9.84225 40.0333L10.1551 40.0333L10.1551 39.4294L10.4599 39.4294L10.4599 38.6843L10.1551 38.6843L10.1551 38.0804L9.84225 38.0804L9.84225 37.6098L9.51337 37.6098L9.51337 38.0804L9.20054 38.0804L9.20054 38.6843L8.8877 38.6843L8.8877 39.4294L9.20054 39.4294L9.20053 40.0333L9.51337 40.0333L9.51337 40.5117ZM9.48128 39.4215L9.48128 38.7157L9.87433 38.7157L9.87433 39.4215L9.48128 39.4215ZM12 37.5706L11.3663 37.5706L11.3663 36.8098L12 36.8098L12 37.5706ZM7.49198 37.5L7.49198 36.4255L7.84492 36.4255L7.84492 37.5L7.49198 37.5ZM8.35829 36.3078L8.35829 35.7745L7.97326 35.7745L7.97326 35.2255L7.49198 35.2255L7.49198 34.5039L7.97326 34.5039L7.97326 33.947L8.35829 33.947L8.35829 33.4137L8.80749 33.4137L8.80749 33.947L9.19251 33.947L9.19251 34.5039L9.51337 34.5039L9.51337 35.2255L9.19251 35.2255L9.19251 35.7745L8.80749 35.7745L8.80749 36.3078L8.35829 36.3078ZM12 35.2255L11.3663 35.2255L11.3663 35.7745L10.9813 35.7745L10.9813 36.3078L10.5401 36.3078L10.5401 35.7745L10.1551 35.7745L10.1551 35.2255L9.83423 35.2255L9.83423 34.5039L10.1551 34.5039L10.1551 33.947L10.5401 33.947L10.5401 33.4137L10.9813 33.4137L10.9813 33.947L11.3663 33.947L11.3663 34.5039L12 34.5039L12 35.2255ZM8.41444 35.2098L8.74332 35.2098L8.74332 34.5274L8.41444 34.5274L8.41444 35.2098ZM10.5882 35.2098L10.9171 35.2098L10.9171 34.5274L10.5882 34.5274L10.5882 35.2098ZM10.4599 23.9078L10.4599 24.2765L10.7326 24.2765L10.7326 24.8333L11.0936 24.8333L11.0936 25.1706L11.3663 25.1706L11.3663 25.7118L12 25.7118L12 26.9667L11.3663 26.9667L11.3663 26.6059L11.0936 26.6059L11.0936 26.0804L10.7326 26.0804L10.7326 25.4529L10.2193 25.4529L10.2193 26.0176L9.84225 26.0176L9.84225 26.4333L9.56952 26.4333L9.56952 26.9274L9.20856 26.9274L9.20856 27.4529L8.94385 27.4529L8.94385 27.9863L8.68717 27.9863L8.68717 28.5353L8.34225 28.5353L8.34225 29.2725L8.79947 29.2725L8.79947 29.9392L9.29679 29.9392L9.29679 30.3392L10.131 30.3392L10.131 29.7588L9.64973 29.7588L9.64973 29.2333L9.97059 29.2333L9.97059 28.5902L10.3476 28.5902L10.3476 28.0255L10.8209 28.0255L10.8209 28.5902L11.2139 28.5902L11.2139 29.2333L11.4545 29.2333L11.4545 29.7588L12 29.7588L12 30.7549L11.3663 30.7549L11.3663 31.398L11.1257 31.398L11.1257 31.8921L10.9011 31.8921L10.9011 32.4568L10.5802 32.4568L10.5802 33.0137L10.2674 33.0137L10.2674 33.3823L9.89038 33.3823L9.89038 33.9392L9.43316 33.9392L9.43316 33.3823L9.05615 33.3823L9.05615 33.0137L8.7353 33.0137L8.7353 32.4568L8.42246 32.4568L8.42246 31.8921L8.16578 31.8921L8.16578 31.4059L7.90909 31.4059L7.90909 30.9823L7.49198 30.9823L7.49198 27.8686L7.96524 27.8686L7.96524 27.3431L8.10161 27.3431L8.10161 26.7941L8.45455 26.7941L8.45455 26.2608L8.67112 26.2608L8.67112 25.8686L8.89572 25.8686L8.89572 25.4529L9.28075 25.4529L9.28075 25.0451L9.83423 25.0451L9.83423 23.9078L10.4599 23.9078ZM7.49198 33.4215L7.49198 32.347L7.84492 32.347L7.84492 33.4215L7.49198 33.4215ZM12 33.2176L11.3663 33.2176L11.3663 32.4568L12 32.4568L12 33.2176ZM12 28.6451L11.3663 28.6451L11.3663 27.8843L12 27.8843L12 28.6451ZM7.50802 26.7157L7.50802 26.0255L7.84492 26.0255L7.84492 26.7157L7.50802 26.7157ZM7.97326 23.9078L7.97326 24.3392L8.18182 24.3392L8.18182 24.6765L8.48663 24.6765L8.48663 25.6882L8.18182 25.6882L8.18182 25.2804L7.86096 25.2804L7.86096 24.6843L7.50802 24.6843L7.50802 23.9157L7.97326 23.9078ZM9.2246 23.9157L9.2246 24.4176L8.8877 24.4176L8.8877 23.9157" fill="#CE1720"/>
<path d="M7.49198 6.10394V7.38237H7.84492V6.10394H7.49198ZM12 8.33923H11.3663V7.82943H11.0455V7.20982H10.5963V6.66865H10.2273V6.10394H9.1123V6.66865H8.75134V7.20982H8.30214V7.82943H7.98128V8.33923H7.49198V9.13139H7.98128V9.64119H8.30214V10.2608H8.75134V10.802H9.1123V11.3824H9.36898V11.8686H9.97059V11.3824H10.2273V10.802H10.5963V10.2608H11.0455V9.64119H11.3663V9.13139H12V8.33923ZM12 6.37061H11.3663V7.07649H12V6.37061ZM9.51337 7.28825H9.84225V7.76669H10.1551V8.37061H10.4599V9.1157H10.1551V9.71962H9.84225V10.1902H9.51337V9.71962H9.20053V9.1157H8.8877V8.37061H9.20053V7.76669H9.51337V7.28825ZM9.48128 8.37845V9.08433H9.87433V8.37845H9.48128ZM12 10.2294H11.3663V10.9902H12V10.2294ZM7.49198 10.3V11.3745H7.84492V10.3H7.49198ZM8.35829 11.4922V12.0255H7.97326V12.5745H7.49198V13.2961H7.97326V13.853H8.35829V14.3863H8.80749V13.853H9.19251V13.2961H9.51337V12.5745H9.19251V12.0255H8.80749V11.4922H8.35829ZM12 12.5745H11.3663V12.0255H10.9813V11.4922H10.5401V12.0255H10.1551V12.5745H9.83422V13.2961H10.1551V13.853H10.5401V14.3863H10.9813V13.853H11.3663V13.2961H12V12.5745ZM8.41444 12.5902H8.74332V13.2726H8.41444V12.5902ZM10.5882 12.5902H10.9171V13.2726H10.5882V12.5902ZM10.4599 23.8922V23.5235H10.7326V22.9667H11.0936V22.6294H11.3663V22.0882H12V20.8333H11.3663V21.1941H11.0936V21.7196H10.7326V22.3471H10.2193V21.7824H9.84225V21.3667H9.56952V20.8725H9.20856V20.3471H8.94385V19.8137H8.68717V19.2647H8.34225V18.5275H8.79947V17.8608H9.29679V17.4608H10.131V18.0412H9.64973V18.5667H9.97059V19.2098H10.3476V19.7745H10.8209V19.2098H11.2139V18.5667H11.4545V18.0412H12V17.0451H11.3663V16.402H11.1257V15.9079H10.9011V15.3431H10.5802V14.7863H10.2674V14.4177H9.89037V13.8608H9.43316V14.4177H9.05615V14.7863H8.73529V15.3431H8.42246V15.9079H8.16578V16.3941H7.90909V16.8177H7.49198V19.9314H7.96524V20.4569H8.1016V21.0059H8.45455V21.5392H8.67112V21.9314H8.89572V22.3471H9.28075V22.7549H9.83422V23.8922H10.4599ZM7.49198 14.3784V15.4529H7.84492V14.3784H7.49198ZM12 14.5824H11.3663V15.3431H12V14.5824ZM12 19.1549H11.3663V19.9157H12V19.1549ZM7.50802 21.0843V21.7745H7.84492V21.0843H7.50802ZM7.97326 23.8922V23.4608H8.18182V23.1235H8.48663V22.1118H8.18182V22.5196H7.86096V23.1157H7.50802V23.8843L7.97326 23.8922ZM9.2246 23.8843V23.3823H8.8877V23.8843" fill="#CE1720"/>
<path d="M7.50802 41.696L7.50802 40.4176L7.15508 40.4176L7.15508 41.696L7.50802 41.696ZM3 39.4608L3.63369 39.4608L3.63369 39.9706L3.95455 39.9706L3.95455 40.5902L4.40374 40.5902L4.40374 41.1313L4.77273 41.1313L4.77273 41.696L5.8877 41.696L5.8877 41.1313L6.24866 41.1313L6.24866 40.5902L6.69786 40.5902L6.69786 39.9706L7.01872 39.9706L7.01872 39.4608L7.50802 39.4608L7.50802 38.6686L7.01872 38.6686L7.01872 38.1588L6.69786 38.1588L6.69786 37.5392L6.24866 37.5392L6.24866 36.998L5.8877 36.998L5.8877 36.4176L5.63102 36.4176L5.63102 35.9313L5.02941 35.9313L5.02941 36.4176L4.77273 36.4176L4.77273 36.998L4.40374 36.998L4.40374 37.5392L3.95455 37.5392L3.95455 38.1588L3.63369 38.1588L3.63369 38.6686L3 38.6686L3 39.4608ZM3 41.4294L3.63369 41.4294L3.63369 40.7235L3 40.7235L3 41.4294ZM5.48663 40.5117L5.15775 40.5117L5.15775 40.0333L4.84492 40.0333L4.84492 39.4294L4.54011 39.4294L4.54011 38.6843L4.84492 38.6843L4.84492 38.0804L5.15775 38.0804L5.15775 37.6098L5.48663 37.6098L5.48663 38.0804L5.79947 38.0804L5.79947 38.6843L6.1123 38.6843L6.1123 39.4294L5.79947 39.4294L5.79947 40.0333L5.48663 40.0333L5.48663 40.5117ZM5.51872 39.4215L5.51872 38.7157L5.12567 38.7157L5.12567 39.4215L5.51872 39.4215ZM3 37.5706L3.63369 37.5706L3.63369 36.8098L3 36.8098L3 37.5706ZM7.50802 37.5L7.50802 36.4255L7.15508 36.4255L7.15508 37.5L7.50802 37.5ZM6.64171 36.3078L6.64171 35.7745L7.02674 35.7745L7.02674 35.2255L7.50802 35.2255L7.50802 34.5039L7.02674 34.5039L7.02674 33.947L6.64171 33.947L6.64171 33.4137L6.19251 33.4137L6.19251 33.947L5.80749 33.947L5.80749 34.5039L5.48663 34.5039L5.48663 35.2255L5.80749 35.2255L5.80749 35.7745L6.19251 35.7745L6.19251 36.3078L6.64171 36.3078ZM3 35.2255L3.63369 35.2255L3.63369 35.7745L4.01872 35.7745L4.01872 36.3078L4.45989 36.3078L4.45989 35.7745L4.84492 35.7745L4.84492 35.2255L5.16578 35.2255L5.16578 34.5039L4.84492 34.5039L4.84492 33.947L4.45989 33.947L4.45989 33.4137L4.01872 33.4137L4.01872 33.947L3.63369 33.947L3.63369 34.5039L3 34.5039L3 35.2255ZM6.58556 35.2098L6.25669 35.2098L6.25669 34.5274L6.58556 34.5274L6.58556 35.2098ZM4.41177 35.2098L4.08289 35.2098L4.08289 34.5274L4.41177 34.5274L4.41177 35.2098ZM4.54011 23.9078L4.54011 24.2765L4.26738 24.2765L4.26738 24.8333L3.90642 24.8333L3.90642 25.1706L3.63369 25.1706L3.63369 25.7118L3 25.7118L3 26.9667L3.63369 26.9667L3.63369 26.6059L3.90642 26.6059L3.90642 26.0804L4.26738 26.0804L4.26738 25.4529L4.78075 25.4529L4.78075 26.0176L5.15776 26.0176L5.15776 26.4333L5.43048 26.4333L5.43048 26.9274L5.79145 26.9274L5.79145 27.4529L6.05615 27.4529L6.05615 27.9863L6.31284 27.9863L6.31284 28.5353L6.65776 28.5353L6.65776 29.2725L6.20054 29.2725L6.20054 29.9392L5.70321 29.9392L5.70321 30.3392L4.86899 30.3392L4.86899 29.7588L5.35027 29.7588L5.35027 29.2333L5.02941 29.2333L5.02941 28.5902L4.65241 28.5902L4.65241 28.0255L4.17915 28.0255L4.17915 28.5902L3.7861 28.5902L3.7861 29.2333L3.54546 29.2333L3.54546 29.7588L3 29.7588L3 30.7549L3.63369 30.7549L3.63369 31.398L3.87433 31.398L3.87433 31.8921L4.09893 31.8921L4.09893 32.4568L4.41979 32.4568L4.41979 33.0137L4.73262 33.0137L4.73262 33.3823L5.10963 33.3823L5.10963 33.9392L5.56685 33.9392L5.56685 33.3823L5.94385 33.3823L5.94385 33.0137L6.26471 33.0137L6.26471 32.4568L6.57754 32.4568L6.57754 31.8921L6.83423 31.8921L6.83423 31.4059L7.09091 31.4059L7.09091 30.9823L7.50802 30.9823L7.50802 27.8686L7.03476 27.8686L7.03476 27.3431L6.8984 27.3431L6.8984 26.7941L6.54546 26.7941L6.54546 26.2608L6.32888 26.2608L6.32888 25.8686L6.10428 25.8686L6.10428 25.4529L5.71925 25.4529L5.71925 25.0451L5.16578 25.0451L5.16578 23.9078L4.54011 23.9078ZM7.50802 33.4215L7.50802 32.347L7.15508 32.347L7.15508 33.4215L7.50802 33.4215ZM3 33.2176L3.63369 33.2176L3.63369 32.4568L3 32.4568L3 33.2176ZM3 28.6451L3.63369 28.6451L3.63369 27.8843L3 27.8843L3 28.6451ZM7.49198 26.7157L7.49198 26.0255L7.15508 26.0255L7.15508 26.7157L7.49198 26.7157ZM7.02674 23.9078L7.02674 24.3392L6.81818 24.3392L6.81818 24.6765L6.51337 24.6765L6.51337 25.6882L6.81818 25.6882L6.81818 25.2804L7.13904 25.2804L7.13904 24.6843L7.49198 24.6843L7.49198 23.9157L7.02674 23.9078ZM5.7754 23.9157L5.7754 24.4176L6.1123 24.4176L6.1123 23.9157" fill="#CE1720"/>
<rect x="12" y="6" width="39" height="24" fill="#EE5757"/>
</g>
</svg>
