<svg width="54" height="54" viewBox="0 0 54 54" fill="none" xmlns="http://www.w3.org/2000/svg">
<mask id="mask0_1_28944" style="mask-type:alpha" maskUnits="userSpaceOnUse" x="3" y="9" width="48" height="36">
<path d="M3.56934 18.1356C4.16681 13.4125 8.0415 10.0019 12.7861 9.60887C16.6412 9.28949 21.6196 9 27 9C32.3804 9 37.3588 9.28949 41.2139 9.60887C45.9585 10.0019 49.8332 13.4125 50.4307 18.1356C50.752 20.6759 51 23.704 51 27C51 30.296 50.752 33.3241 50.4307 35.8644C49.8332 40.5875 45.9585 43.9981 41.2139 44.3911C37.3588 44.7105 32.3804 45 27 45C21.6196 45 16.6412 44.7105 12.7861 44.3911C8.04151 43.9981 4.16681 40.5875 3.56934 35.8644C3.248 33.3241 3 30.296 3 27C3 23.704 3.248 20.6759 3.56934 18.1356Z" fill="#00D0BF"/>
</mask>
<g mask="url(#mask0_1_28944)">
<rect x="12" y="33" width="39" height="12" fill="#59C785"/>
<path d="M7.50802 9.10394V10.3824H7.15508V9.10394H7.50802ZM3 11.3392H3.63369V10.8294H3.95455V10.2098H4.40374V9.66865H4.77273V9.10394H5.8877V9.66865H6.24866V10.2098H6.69786V10.8294H7.01872V11.3392H7.50802V12.1314H7.01872V12.6412H6.69786V13.2608H6.24866V13.802H5.8877V14.3824H5.63102V14.8686H5.02941V14.3824H4.77273V13.802H4.40374V13.2608H3.95455V12.6412H3.63369V12.1314H3V11.3392ZM3 9.37061H3.63369V10.0765H3V9.37061ZM5.48663 10.2883H5.15775V10.7667H4.84492V11.3706H4.54011V12.1157H4.84492V12.7196H5.15775V13.1902H5.48663V12.7196H5.79947V12.1157H6.1123V11.3706H5.79947V10.7667H5.48663V10.2883ZM5.51872 11.3784V12.0843H5.12567V11.3784H5.51872ZM3 13.2294H3.63369V13.9902H3V13.2294ZM7.50802 13.3V14.3745H7.15508V13.3H7.50802ZM6.64171 14.4922V15.0255H7.02674V15.5745H7.50802V16.2961H7.02674V16.853H6.64171V17.3863H6.19251V16.853H5.80749V16.2961H5.48663V15.5745H5.80749V15.0255H6.19251V14.4922H6.64171ZM3 15.5745H3.63369V15.0255H4.01872V14.4922H4.45989V15.0255H4.84492V15.5745H5.16578V16.2961H4.84492V16.853H4.45989V17.3863H4.01872V16.853H3.63369V16.2961H3V15.5745ZM6.58556 15.5902H6.25668V16.2726H6.58556V15.5902ZM4.41176 15.5902H4.08289V16.2726H4.41176V15.5902ZM4.54011 26.8922V26.5235H4.26738V25.9667H3.90642V25.6294H3.63369V25.0882H3V23.8333H3.63369V24.1941H3.90642V24.7196H4.26738V25.3471H4.78075V24.7824H5.15775V24.3667H5.43048V23.8725H5.79144V23.3471H6.05615V22.8137H6.31283V22.2647H6.65775V21.5275H6.20053V20.8608H5.70321V20.4608H4.86898V21.0412H5.35027V21.5667H5.02941V22.2098H4.65241V22.7745H4.17914V22.2098H3.7861V21.5667H3.54545V21.0412H3V20.0451H3.63369V19.402H3.87433V18.9078H4.09893V18.3431H4.41979V17.7863H4.73262V17.4177H5.10963V16.8608H5.56684V17.4177H5.94385V17.7863H6.26471V18.3431H6.57754V18.9078H6.83422V19.3941H7.09091V19.8177H7.50802V22.9314H7.03476V23.4569H6.8984V24.0059H6.54545V24.5392H6.32888V24.9314H6.10428V25.3471H5.71925V25.7549H5.16578V26.8922H4.54011ZM7.50802 17.3784V18.4529H7.15508V17.3784H7.50802ZM3 17.5824H3.63369V18.3431H3V17.5824ZM3 22.1549H3.63369V22.9157H3V22.1549ZM7.49198 24.0843V24.7745H7.15508V24.0843H7.49198ZM7.02674 26.8922V26.4608H6.81818V26.1235H6.51337V25.1118H6.81818V25.5196H7.13904V26.1157H7.49198V26.8843L7.02674 26.8922ZM5.7754 26.8843V26.3823H6.1123V26.8843" fill="#CE1720"/>
<path d="M7.49198 44.696L7.49198 43.4176L7.84492 43.4176L7.84492 44.696L7.49198 44.696ZM12 42.4608L11.3663 42.4608L11.3663 42.9706L11.0455 42.9706L11.0455 43.5902L10.5963 43.5902L10.5963 44.1313L10.2273 44.1313L10.2273 44.696L9.1123 44.696L9.1123 44.1313L8.75134 44.1313L8.75134 43.5902L8.30214 43.5902L8.30214 42.9706L7.98128 42.9706L7.98128 42.4608L7.49198 42.4608L7.49198 41.6686L7.98128 41.6686L7.98128 41.1588L8.30214 41.1588L8.30214 40.5392L8.75134 40.5392L8.75134 39.998L9.1123 39.998L9.1123 39.4176L9.36898 39.4176L9.36898 38.9313L9.97059 38.9313L9.97059 39.4176L10.2273 39.4176L10.2273 39.998L10.5963 39.998L10.5963 40.5392L11.0455 40.5392L11.0455 41.1588L11.3663 41.1588L11.3663 41.6686L12 41.6686L12 42.4608ZM12 44.4294L11.3663 44.4294L11.3663 43.7235L12 43.7235L12 44.4294ZM9.51337 43.5117L9.84225 43.5117L9.84225 43.0333L10.1551 43.0333L10.1551 42.4294L10.4599 42.4294L10.4599 41.6843L10.1551 41.6843L10.1551 41.0804L9.84225 41.0804L9.84225 40.6098L9.51337 40.6098L9.51337 41.0804L9.20054 41.0804L9.20054 41.6843L8.8877 41.6843L8.8877 42.4294L9.20054 42.4294L9.20054 43.0333L9.51337 43.0333L9.51337 43.5117ZM9.48128 42.4215L9.48128 41.7157L9.87433 41.7157L9.87433 42.4215L9.48128 42.4215ZM12 40.5706L11.3663 40.5706L11.3663 39.8098L12 39.8098L12 40.5706ZM7.49198 40.5L7.49198 39.4255L7.84492 39.4255L7.84492 40.5L7.49198 40.5ZM8.35829 39.3078L8.35829 38.7745L7.97326 38.7745L7.97326 38.2255L7.49198 38.2255L7.49198 37.5039L7.97326 37.5039L7.97326 36.947L8.35829 36.947L8.35829 36.4137L8.80749 36.4137L8.80749 36.947L9.19251 36.947L9.19251 37.5039L9.51337 37.5039L9.51337 38.2255L9.19251 38.2255L9.19251 38.7745L8.80749 38.7745L8.80749 39.3078L8.35829 39.3078ZM12 38.2255L11.3663 38.2255L11.3663 38.7745L10.9813 38.7745L10.9813 39.3078L10.5401 39.3078L10.5401 38.7745L10.1551 38.7745L10.1551 38.2255L9.83423 38.2255L9.83423 37.5039L10.1551 37.5039L10.1551 36.947L10.5401 36.947L10.5401 36.4137L10.9813 36.4137L10.9813 36.947L11.3663 36.947L11.3663 37.5039L12 37.5039L12 38.2255ZM8.41444 38.2098L8.74332 38.2098L8.74332 37.5274L8.41444 37.5274L8.41444 38.2098ZM10.5882 38.2098L10.9171 38.2098L10.9171 37.5274L10.5882 37.5274L10.5882 38.2098ZM10.4599 26.9078L10.4599 27.2765L10.7326 27.2765L10.7326 27.8333L11.0936 27.8333L11.0936 28.1706L11.3663 28.1706L11.3663 28.7118L12 28.7118L12 29.9667L11.3663 29.9667L11.3663 29.6059L11.0936 29.6059L11.0936 29.0804L10.7326 29.0804L10.7326 28.4529L10.2193 28.4529L10.2193 29.0176L9.84225 29.0176L9.84225 29.4333L9.56952 29.4333L9.56952 29.9274L9.20856 29.9274L9.20856 30.4529L8.94385 30.4529L8.94385 30.9863L8.68717 30.9863L8.68717 31.5353L8.34225 31.5353L8.34225 32.2725L8.79947 32.2725L8.79947 32.9392L9.29679 32.9392L9.29679 33.3392L10.131 33.3392L10.131 32.7588L9.64973 32.7588L9.64973 32.2333L9.97059 32.2333L9.97059 31.5902L10.3476 31.5902L10.3476 31.0255L10.8209 31.0255L10.8209 31.5902L11.2139 31.5902L11.2139 32.2333L11.4545 32.2333L11.4545 32.7588L12 32.7588L12 33.7549L11.3663 33.7549L11.3663 34.398L11.1257 34.398L11.1257 34.8921L10.9011 34.8921L10.9011 35.4568L10.5802 35.4568L10.5802 36.0137L10.2674 36.0137L10.2674 36.3823L9.89038 36.3823L9.89038 36.9392L9.43316 36.9392L9.43316 36.3823L9.05615 36.3823L9.05615 36.0137L8.7353 36.0137L8.7353 35.4568L8.42246 35.4568L8.42246 34.8921L8.16578 34.8921L8.16578 34.4059L7.90909 34.4059L7.90909 33.9823L7.49198 33.9823L7.49198 30.8686L7.96524 30.8686L7.96524 30.3431L8.10161 30.3431L8.10161 29.7941L8.45455 29.7941L8.45455 29.2608L8.67112 29.2608L8.67112 28.8686L8.89572 28.8686L8.89572 28.4529L9.28075 28.4529L9.28075 28.0451L9.83423 28.0451L9.83423 26.9078L10.4599 26.9078ZM7.49198 36.4215L7.49198 35.347L7.84492 35.347L7.84492 36.4215L7.49198 36.4215ZM12 36.2176L11.3663 36.2176L11.3663 35.4568L12 35.4568L12 36.2176ZM12 31.6451L11.3663 31.6451L11.3663 30.8843L12 30.8843L12 31.6451ZM7.50802 29.7157L7.50802 29.0255L7.84492 29.0255L7.84492 29.7157L7.50802 29.7157ZM7.97326 26.9078L7.97326 27.3392L8.18182 27.3392L8.18182 27.6765L8.48663 27.6765L8.48663 28.6882L8.18182 28.6882L8.18182 28.2804L7.86096 28.2804L7.86096 27.6843L7.50802 27.6843L7.50802 26.9157L7.97326 26.9078ZM9.2246 26.9157L9.2246 27.4176L8.8877 27.4176L8.8877 26.9157" fill="#CE1720"/>
<path d="M7.49198 9.10394V10.3824H7.84492V9.10394H7.49198ZM12 11.3392H11.3663V10.8294H11.0455V10.2098H10.5963V9.66865H10.2273V9.10394H9.1123V9.66865H8.75134V10.2098H8.30214V10.8294H7.98128V11.3392H7.49198V12.1314H7.98128V12.6412H8.30214V13.2608H8.75134V13.802H9.1123V14.3824H9.36898V14.8686H9.97059V14.3824H10.2273V13.802H10.5963V13.2608H11.0455V12.6412H11.3663V12.1314H12V11.3392ZM12 9.37061H11.3663V10.0765H12V9.37061ZM9.51337 10.2883H9.84225V10.7667H10.1551V11.3706H10.4599V12.1157H10.1551V12.7196H9.84225V13.1902H9.51337V12.7196H9.20053V12.1157H8.8877V11.3706H9.20053V10.7667H9.51337V10.2883ZM9.48128 11.3784V12.0843H9.87433V11.3784H9.48128ZM12 13.2294H11.3663V13.9902H12V13.2294ZM7.49198 13.3V14.3745H7.84492V13.3H7.49198ZM8.35829 14.4922V15.0255H7.97326V15.5745H7.49198V16.2961H7.97326V16.853H8.35829V17.3863H8.80749V16.853H9.19251V16.2961H9.51337V15.5745H9.19251V15.0255H8.80749V14.4922H8.35829ZM12 15.5745H11.3663V15.0255H10.9813V14.4922H10.5401V15.0255H10.1551V15.5745H9.83422V16.2961H10.1551V16.853H10.5401V17.3863H10.9813V16.853H11.3663V16.2961H12V15.5745ZM8.41444 15.5902H8.74332V16.2726H8.41444V15.5902ZM10.5882 15.5902H10.9171V16.2726H10.5882V15.5902ZM10.4599 26.8922V26.5235H10.7326V25.9667H11.0936V25.6294H11.3663V25.0882H12V23.8333H11.3663V24.1941H11.0936V24.7196H10.7326V25.3471H10.2193V24.7824H9.84225V24.3667H9.56952V23.8725H9.20856V23.3471H8.94385V22.8137H8.68717V22.2647H8.34225V21.5275H8.79947V20.8608H9.29679V20.4608H10.131V21.0412H9.64973V21.5667H9.97059V22.2098H10.3476V22.7745H10.8209V22.2098H11.2139V21.5667H11.4545V21.0412H12V20.0451H11.3663V19.402H11.1257V18.9078H10.9011V18.3431H10.5802V17.7863H10.2674V17.4177H9.89037V16.8608H9.43316V17.4177H9.05615V17.7863H8.73529V18.3431H8.42246V18.9078H8.16578V19.3941H7.90909V19.8177H7.49198V22.9314H7.96524V23.4569H8.1016V24.0059H8.45455V24.5392H8.67112V24.9314H8.89572V25.3471H9.28075V25.7549H9.83422V26.8922H10.4599ZM7.49198 17.3784V18.4529H7.84492V17.3784H7.49198ZM12 17.5824H11.3663V18.3431H12V17.5824ZM12 22.1549H11.3663V22.9157H12V22.1549ZM7.50802 24.0843V24.7745H7.84492V24.0843H7.50802ZM7.97326 26.8922V26.4608H8.18182V26.1235H8.48663V25.1118H8.18182V25.5196H7.86096V26.1157H7.50802V26.8843L7.97326 26.8922ZM9.2246 26.8843V26.3823H8.8877V26.8843" fill="#CE1720"/>
<path d="M7.50802 44.696L7.50802 43.4176L7.15508 43.4176L7.15508 44.696L7.50802 44.696ZM3 42.4608L3.63369 42.4608L3.63369 42.9706L3.95455 42.9706L3.95455 43.5902L4.40374 43.5902L4.40374 44.1313L4.77273 44.1313L4.77273 44.696L5.8877 44.696L5.8877 44.1313L6.24866 44.1313L6.24866 43.5902L6.69786 43.5902L6.69786 42.9706L7.01872 42.9706L7.01872 42.4608L7.50802 42.4608L7.50802 41.6686L7.01872 41.6686L7.01872 41.1588L6.69786 41.1588L6.69786 40.5392L6.24866 40.5392L6.24866 39.998L5.8877 39.998L5.8877 39.4176L5.63102 39.4176L5.63102 38.9313L5.02941 38.9313L5.02941 39.4176L4.77273 39.4176L4.77273 39.998L4.40374 39.998L4.40374 40.5392L3.95455 40.5392L3.95455 41.1588L3.63369 41.1588L3.63369 41.6686L3 41.6686L3 42.4608ZM3 44.4294L3.63369 44.4294L3.63369 43.7235L3 43.7235L3 44.4294ZM5.48663 43.5117L5.15775 43.5117L5.15775 43.0333L4.84492 43.0333L4.84492 42.4294L4.54011 42.4294L4.54011 41.6843L4.84492 41.6843L4.84492 41.0804L5.15775 41.0804L5.15775 40.6098L5.48663 40.6098L5.48663 41.0804L5.79947 41.0804L5.79947 41.6843L6.1123 41.6843L6.1123 42.4294L5.79947 42.4294L5.79947 43.0333L5.48663 43.0333L5.48663 43.5117ZM5.51872 42.4215L5.51872 41.7157L5.12567 41.7157L5.12567 42.4215L5.51872 42.4215ZM3 40.5706L3.63369 40.5706L3.63369 39.8098L3 39.8098L3 40.5706ZM7.50802 40.5L7.50802 39.4255L7.15508 39.4255L7.15508 40.5L7.50802 40.5ZM6.64171 39.3078L6.64171 38.7745L7.02674 38.7745L7.02674 38.2255L7.50802 38.2255L7.50802 37.5039L7.02674 37.5039L7.02674 36.947L6.64171 36.947L6.64171 36.4137L6.19251 36.4137L6.19251 36.947L5.80749 36.947L5.80749 37.5039L5.48663 37.5039L5.48663 38.2255L5.80749 38.2255L5.80749 38.7745L6.19251 38.7745L6.19251 39.3078L6.64171 39.3078ZM3 38.2255L3.63369 38.2255L3.63369 38.7745L4.01872 38.7745L4.01872 39.3078L4.45989 39.3078L4.45989 38.7745L4.84492 38.7745L4.84492 38.2255L5.16578 38.2255L5.16578 37.5039L4.84492 37.5039L4.84492 36.947L4.45989 36.947L4.45989 36.4137L4.01872 36.4137L4.01872 36.947L3.63369 36.947L3.63369 37.5039L3 37.5039L3 38.2255ZM6.58556 38.2098L6.25669 38.2098L6.25669 37.5274L6.58556 37.5274L6.58556 38.2098ZM4.41177 38.2098L4.08289 38.2098L4.08289 37.5274L4.41177 37.5274L4.41177 38.2098ZM4.54011 26.9078L4.54011 27.2765L4.26738 27.2765L4.26738 27.8333L3.90642 27.8333L3.90642 28.1706L3.63369 28.1706L3.63369 28.7118L3 28.7118L3 29.9667L3.63369 29.9667L3.63369 29.6059L3.90642 29.6059L3.90642 29.0804L4.26738 29.0804L4.26738 28.4529L4.78075 28.4529L4.78075 29.0176L5.15776 29.0176L5.15776 29.4333L5.43048 29.4333L5.43048 29.9274L5.79145 29.9274L5.79145 30.4529L6.05615 30.4529L6.05615 30.9863L6.31284 30.9863L6.31284 31.5353L6.65776 31.5353L6.65776 32.2725L6.20054 32.2725L6.20054 32.9392L5.70321 32.9392L5.70321 33.3392L4.86899 33.3392L4.86899 32.7588L5.35027 32.7588L5.35027 32.2333L5.02941 32.2333L5.02941 31.5902L4.65241 31.5902L4.65241 31.0255L4.17915 31.0255L4.17915 31.5902L3.7861 31.5902L3.7861 32.2333L3.54546 32.2333L3.54546 32.7588L3 32.7588L3 33.7549L3.63369 33.7549L3.63369 34.398L3.87433 34.398L3.87433 34.8921L4.09893 34.8921L4.09893 35.4568L4.41979 35.4568L4.41979 36.0137L4.73262 36.0137L4.73262 36.3823L5.10963 36.3823L5.10963 36.9392L5.56685 36.9392L5.56685 36.3823L5.94385 36.3823L5.94385 36.0137L6.26471 36.0137L6.26471 35.4568L6.57754 35.4568L6.57754 34.8921L6.83423 34.8921L6.83423 34.4059L7.09091 34.4059L7.09091 33.9823L7.50802 33.9823L7.50802 30.8686L7.03476 30.8686L7.03476 30.3431L6.8984 30.3431L6.8984 29.7941L6.54546 29.7941L6.54546 29.2608L6.32888 29.2608L6.32888 28.8686L6.10428 28.8686L6.10428 28.4529L5.71925 28.4529L5.71925 28.0451L5.16578 28.0451L5.16578 26.9078L4.54011 26.9078ZM7.50802 36.4215L7.50802 35.347L7.15508 35.347L7.15508 36.4215L7.50802 36.4215ZM3 36.2176L3.63369 36.2176L3.63369 35.4568L3 35.4568L3 36.2176ZM3 31.6451L3.63369 31.6451L3.63369 30.8843L3 30.8843L3 31.6451ZM7.49198 29.7157L7.49198 29.0255L7.15508 29.0255L7.15508 29.7157L7.49198 29.7157ZM7.02674 26.9078L7.02674 27.3392L6.81818 27.3392L6.81818 27.6765L6.51337 27.6765L6.51337 28.6882L6.81818 28.6882L6.81818 28.2804L7.13904 28.2804L7.13904 27.6843L7.49198 27.6843L7.49198 26.9157L7.02674 26.9078ZM5.7754 26.9157L5.7754 27.4176L6.1123 27.4176L6.1123 26.9157" fill="#CE1720"/>
<rect x="12" y="9" width="39" height="24" fill="#EE5757"/>
</g>
</svg>
