<svg width="54" height="48" viewBox="0 0 54 48" fill="none" xmlns="http://www.w3.org/2000/svg">
<mask id="mask0_1_36639" style="mask-type:alpha" maskUnits="userSpaceOnUse" x="3" y="6" width="48" height="36">
<path d="M3.56934 15.1356C4.16681 10.4125 8.0415 7.00193 12.7861 6.60887C16.6412 6.28949 21.6196 6 27 6C32.3804 6 37.3588 6.28949 41.2139 6.60887C45.9585 7.00193 49.8332 10.4125 50.4307 15.1356C50.752 17.6759 51 20.704 51 24C51 27.296 50.752 30.3241 50.4307 32.8644C49.8332 37.5875 45.9585 40.9981 41.2139 41.3911C37.3588 41.7105 32.3804 42 27 42C21.6196 42 16.6412 41.7105 12.7861 41.3911C8.0415 40.9981 4.16681 37.5875 3.56934 32.8644C3.248 30.3241 3 27.296 3 24C3 20.704 3.248 17.6759 3.56934 15.1356Z" fill="#00D0BF"/>
</mask>
<g mask="url(#mask0_1_36639)">
<rect x="3" y="6" width="48" height="36" fill="#EE5757"/>
<path d="M44.9793 15.7971V27.9131C44.9793 31.1494 38.5096 32.2009 38.5096 32.2009C38.5096 32.2009 32.04 31.1494 32.04 27.9131V15.7971H44.9793Z" fill="white"/>
<path d="M44.9793 27.9131C44.9793 31.1494 38.5096 32.2009 38.5096 32.2009C38.5096 32.2009 32.04 31.1494 32.04 27.9131C32.04 27.9131 32.04 27.6525 32.1716 27.5042C32.1716 27.5042 32.1003 28.0425 32.5139 28.4497C32.5139 28.4497 32.1895 27.8753 32.5067 27.3109C32.5067 27.3109 32.3891 28.0371 32.8418 28.4541C32.8418 28.4541 32.5923 27.8609 32.8739 27.1994C32.8739 27.1994 32.7349 28.2816 33.2269 28.4973C33.2269 28.4973 33.3623 27.8753 33.1663 27.4763C33.1663 27.4763 33.505 27.6129 33.4871 28.5152C33.4871 28.5152 33.5941 28.3822 33.6226 27.7315C33.6226 27.7315 33.6368 28.4756 33.8935 28.6482C33.8935 28.6482 33.972 28.5728 33.865 28.2348C33.7581 27.8968 33.9114 27.7782 33.9363 27.7854C33.9363 27.7854 33.8801 28.1593 34.1934 28.4397C34.1934 28.4397 34.0576 27.8537 34.2465 27.7746C34.2465 27.7746 34.2073 28.2707 34.5995 28.3822C34.5995 28.3822 34.628 28.2384 34.5424 28.0766C34.5424 28.0766 34.4676 27.8848 34.5246 27.738C34.5246 27.738 34.6494 28.1881 34.8205 28.2636C34.8205 28.2636 34.7171 27.9998 34.8133 27.738C34.8133 27.738 34.8347 28.1126 35.1698 28.2671C35.1698 28.2671 34.949 27.9772 35.0362 27.6583L37.1912 27.7638L38.3071 27.817L41.6547 27.5805L42.2322 27.0844C42.2322 27.0844 42.4604 27.4007 42.1003 27.9005C42.1003 27.9005 42.4568 27.8357 42.5709 27.2785C42.5709 27.2785 42.7171 27.5877 42.5174 27.9292C42.5174 27.9292 42.9132 27.5338 42.9702 27.0844C42.9702 27.0844 43.1235 27.5194 42.7491 27.9867C42.7491 27.9867 43.0842 27.8753 43.2269 27.3792C43.2269 27.3792 43.341 27.678 43.0165 28.1002C43.0165 28.1002 43.6225 27.7782 43.6048 27.1131C43.6048 27.1131 43.8578 27.4798 43.5691 27.9831C43.5691 27.9831 43.8792 27.7063 43.9078 27.2929C43.9078 27.2929 44.079 27.4798 43.8936 27.9939C43.8936 27.9939 44.2714 27.638 44.3285 27.2533C44.3285 27.2533 44.4105 27.6092 44.086 28.0586C44.086 28.0586 44.3071 28.0047 44.5174 27.566C44.5174 27.566 44.5745 27.7386 44.382 28.055C44.382 28.055 44.5888 28.0191 44.7278 27.6236C44.7278 27.6236 44.7527 27.8609 44.6921 28.073C44.6921 28.073 44.8526 27.9688 44.8882 27.5194C44.8882 27.5194 44.9779 27.6668 44.9794 27.8501C44.9808 28.0335 44.9793 27.9131 44.9793 27.9131Z" fill="#2F8F22"/>
<path d="M41.6477 20.909C41.6477 20.909 41.4229 20.9472 41.1342 20.8592C40.8454 20.7713 40.7287 20.807 40.6391 20.8592C40.6391 20.8592 40.7563 20.6272 40.4711 20.444C40.4711 20.444 40.5638 20.6782 40.4354 20.7876C40.4354 20.7876 40.3784 20.8413 40.3106 20.7605C40.3106 20.7605 40.2108 20.658 40.1057 20.5789C40.1057 20.5789 40.3481 20.4944 40.3035 20.2482C40.259 20.0019 40.1271 19.9695 40.0558 19.939C40.0558 19.939 40.0807 20.0504 40.0558 20.1259C40.0558 20.1259 39.792 19.9785 40.1502 19.77C40.5085 19.5615 40.4426 19.4393 40.3784 19.3332C40.3142 19.2271 40.177 19.1103 40.1092 19.0689C40.1092 19.0689 40.1805 19.1804 40.168 19.2757C40.1556 19.3709 39.9933 19.432 40.0254 19.2649C40.0575 19.0977 40.0237 19.1265 40.0201 18.9485C40.0201 18.9485 40.3391 19.0564 40.4639 18.7454C40.4639 18.7454 40.5869 18.4236 40.1841 18.2636C40.1841 18.2636 40.2821 18.3948 40.234 18.4937C40.234 18.4937 40.1484 18.6555 40.0468 18.5243C39.9452 18.3931 39.881 18.3679 39.8917 18.2133C39.8917 18.2133 40.2571 18.2636 40.1573 17.8663C40.1573 17.8663 40.0985 18.1306 39.6244 17.7747C39.6244 17.7747 39.9327 17.4583 39.8133 17.203C39.8133 17.203 39.7759 17.0862 39.4407 17.1545C39.4407 17.1545 39.7313 16.9712 39.6083 16.8148C39.6083 16.8148 39.5459 16.7105 39.275 16.8471C39.275 16.8471 39.3801 16.6655 39.1145 16.4696C39.1145 16.4696 38.9363 16.5631 38.8418 16.6493C38.8418 16.6493 38.66 16.4192 38.5441 16.3276C38.5441 16.3276 38.3338 16.4085 38.2803 16.6493C38.2803 16.6493 38.1823 16.5325 37.9595 16.4786C37.9595 16.4786 37.8525 16.6763 37.9916 16.8489C37.9916 16.8489 37.8882 16.8453 37.6992 16.7626C37.6992 16.7626 37.4836 16.6601 37.5156 16.8453C37.5477 17.0304 37.5637 17.0718 37.6065 17.158C37.6065 17.158 37.1226 17.0457 37.1431 17.3072C37.1573 17.4888 37.2251 17.6452 37.3749 17.7764C37.3749 17.7764 37.1039 18.1305 36.8722 17.8644C36.8722 17.8644 36.7919 17.9507 36.9649 18.1772C36.9649 18.1772 37.1378 18.3678 36.9952 18.4882C36.9952 18.4882 36.8045 18.641 36.7118 18.3444C36.7118 18.3444 36.4034 18.6518 36.767 18.8873C36.767 18.8873 37.0006 19.0203 37.2394 18.8154C37.2394 18.8154 37.1663 19.405 36.9381 19.2917C36.9381 19.2917 36.8009 19.1911 37.0469 19.0706C37.0469 19.0706 36.6921 19.0257 36.6351 19.369C36.6351 19.369 36.5913 19.6422 36.9007 19.7412C36.9007 19.7412 37.1395 19.8275 36.8917 20.0126C36.8917 20.0126 36.717 20.1457 36.8311 20.3434C36.8311 20.3434 36.9684 20.5609 36.6208 20.5824C36.6208 20.5824 36.4318 20.5807 36.3641 20.5555C36.3641 20.5555 36.2879 20.6972 36.3411 20.8592C36.3411 20.8592 36.168 20.7302 35.7741 20.8729C35.3801 21.0157 35.4104 20.915 35.3783 20.9582C35.3462 21.0013 35.2696 21.1469 35.2696 21.1469C35.2696 21.1469 35.4764 21.3985 35.4799 21.3932C35.4835 21.3878 35.4407 21.6808 35.4407 21.6808L35.5424 21.7293L36.3534 21.368L37.177 20.9388L37.8391 20.9794L38.259 21.0794L38.8106 21.1195L39.2056 20.9088H39.7777L40.4071 21.2224L41.1253 21.651L41.4997 21.7166L41.7881 21.7012V21.1195L41.6477 20.909Z" fill="#C8102E" stroke="black" stroke-width="0.0475516" stroke-linejoin="round"/>
<path d="M35.115 21.5892C35.115 21.5892 35.4287 21.7492 35.5597 21.5551C35.5597 21.5551 35.7308 21.2288 35.3551 21.1155C35.3551 21.1155 35.5597 20.8702 35.3404 20.6437C35.3404 20.6437 35.2255 20.5224 35.0249 20.6114C35.0249 20.6114 34.942 20.4388 34.7468 20.4442C34.7468 20.4442 34.5757 20.4415 34.5169 20.6302C34.5169 20.6302 34.2816 20.5331 34.1505 20.6733C34.1505 20.6733 33.934 20.916 34.2361 21.1075L34.4535 21.1273L34.6674 21.0284L34.9063 21.0967C34.9065 21.0967 34.8449 21.3385 35.115 21.5892Z" fill="#C8102E" stroke="black" stroke-width="0.0475516" stroke-linejoin="round"/>
<path d="M42.1181 21.0155C42.496 20.9799 42.6295 21.2988 42.6295 21.2988C42.8276 21.7636 42.4069 22.0117 42.4069 22.0117C42.439 22.116 42.4425 22.2526 42.4425 22.2526C43.0343 22.3245 42.9309 22.9896 42.9309 22.9896L42.7349 22.8278C42.3926 22.6948 42.0397 22.986 41.7866 23.4749C41.5335 23.9639 41.6547 24.194 41.6975 24.7728C41.7403 25.3516 42.6814 25.6968 42.6814 25.6968C42.6814 25.6968 42.2357 26.8436 41.947 27.5806C41.6583 28.3176 41.0557 28.012 40.8811 27.8568C40.7064 27.7015 40.6627 27.7878 40.5745 27.8568C40.4862 27.9258 40.9702 28.3032 40.0896 28.6591C39.209 29.0151 39.0557 29.2883 38.9096 29.3782C38.7634 29.4681 38.1538 29.407 38.0932 29.3315C38.0326 29.256 38.0683 29.256 37.8401 29.1157C37.612 28.9755 37.2269 28.8533 36.8062 28.6483C36.3855 28.4434 36.3962 28.1809 36.3998 28.127C36.4034 28.0731 36.546 27.6345 36.0533 27.9832C35.5606 28.332 35.1413 27.8172 35.1413 27.8172C35.0451 27.6907 34.6351 26.5919 34.6351 26.5919C34.5246 26.1821 34.3071 25.7039 34.3071 25.7039C34.3178 25.7003 34.2857 25.7543 34.6493 25.5457C35.013 25.3372 35.1758 24.9903 35.3017 24.647C35.4276 24.3036 35.3053 23.7158 35.2589 23.5972C35.2126 23.4785 34.9416 22.9346 34.6061 22.8206C34.2706 22.7066 34.0456 22.9896 34.0456 22.9896C34.0456 22.9896 33.9421 22.3245 34.534 22.2526C34.534 22.2526 34.5375 22.116 34.5696 22.0117C34.5696 22.0117 34.1489 21.7636 34.347 21.2988C34.347 21.2988 34.4805 20.9799 34.8584 21.0155L34.767 21.1884C34.767 21.1884 34.6718 22.1375 36.0611 21.5012C37.4504 20.8648 37.4087 20.7462 38.2002 21.1452L38.7777 21.1345C38.7777 21.1345 39.6119 20.7486 39.8793 20.9146C40.1467 21.0806 41.1092 21.6198 41.1092 21.6198C41.1092 21.6198 42.0397 21.9688 42.2215 21.3252L42.1181 21.0155Z" fill="#64B4D1" stroke="black" stroke-width="0.0356494"/>
<path d="M37.938 25.1304C37.938 25.1304 37.8897 24.8391 37.839 24.6505C37.839 24.6505 37.7359 24.3544 37.9118 24.1466L38.1299 23.8955C38.1299 23.8955 38.2655 23.7132 38.4333 23.6884C38.4333 23.6884 38.6011 23.6834 38.6171 23.6492C38.6332 23.6151 38.8168 23.3129 39.2535 23.6492C39.2535 23.6492 39.3926 23.4264 39.6065 23.3886C39.6065 23.3886 39.8375 23.3185 39.9493 23.4911C39.9493 23.4911 40.209 23.2942 40.4318 23.6111C40.4318 23.6111 40.7401 23.4376 40.9647 23.7825C40.9647 23.7825 41.2696 23.6338 41.4567 23.9507C41.6439 24.2676 41.6065 24.3971 41.6065 24.3971L41.7454 24.9004L42.2375 25.508L41.0932 25.9394H40.5798L39.5531 26.2144L37.7296 26.3546L37.2216 25.756L37.938 25.1304Z" fill="white" stroke="#012169" stroke-width="0.0475345" stroke-miterlimit="10"/>
<path d="M36.3967 28.1612C36.3967 28.1612 36.124 28.1774 35.9849 28.2475C35.8459 28.3176 35.7389 28.3931 35.5785 28.4955C35.5785 28.4955 35.5037 28.5953 35.1882 28.5346C35.1882 28.5346 34.6427 28.4039 34.6427 28.8299C34.6427 28.8299 33.9903 28.8838 34.2577 29.4554C34.2577 29.4554 34.4395 29.903 34.8138 29.5849C34.8138 29.5849 34.5732 29.93 35.0384 30.0649C35.0384 30.0649 35.37 30.1458 35.4662 29.806C35.4662 29.806 35.5197 29.6712 35.3914 29.504C35.3914 29.504 35.5518 29.4716 35.6641 29.2991C35.6641 29.2991 35.3218 29.7316 35.6962 29.8874C35.6962 29.8874 36.1666 30.0055 36.1935 29.5147C36.1935 29.5147 36.1551 29.2882 36.3374 29.2073C36.3374 29.2073 36.7122 29.121 36.8833 28.7031C36.8834 28.7031 36.3444 28.4161 36.3967 28.1612Z" fill="#C8102E" stroke="black" stroke-width="0.0475516" stroke-linejoin="round"/>
<path d="M35.2953 23.8599C35.2953 23.8599 34.8746 23.6662 34.675 23.8599C34.675 23.8599 34.3969 23.6877 34.1046 23.8599C34.1046 23.8599 33.8265 24.0417 33.634 24.2418C33.634 24.2418 33.4986 24.3578 33.5485 24.7235C33.5485 24.7235 33.6198 24.9812 33.577 25.1107C33.577 25.1107 33.4843 25.0923 33.2989 25.312C33.2989 25.312 33.0636 25.5845 32.8568 25.344C32.8568 25.344 32.921 25.6787 33.3096 25.6248C33.3096 25.6248 33.1206 25.7722 33.2846 26.1533C33.2846 26.1533 33.4058 26.4229 33.2133 26.7609C33.2133 26.7609 33.552 26.6243 33.5377 26.2252C33.5377 26.2252 33.5092 25.9556 33.609 25.765C33.609 25.765 33.5092 25.9383 33.7409 26.3079C33.7409 26.3079 33.9191 26.5739 33.773 26.8507C33.773 26.8507 34.1081 26.7285 34.076 26.3222C34.044 25.916 33.8407 26.0849 33.9726 25.7111C33.9726 25.7111 34.0047 25.9026 34.1045 25.9992C34.2043 26.0958 34.3327 26.2575 34.2792 26.5272C34.2792 26.5272 34.4789 26.2791 34.4325 26.0238C34.3862 25.7686 34.3363 25.6914 34.3363 25.6914L34.9673 25.3336L35.281 24.7655L35.2953 23.8599Z" fill="#C8102E" stroke="black" stroke-width="0.0475516" stroke-linejoin="round"/>
<path d="M34.3364 25.463C34.3364 25.463 34.0761 25.445 34.0333 25.2437" stroke="black" stroke-width="0.0475345" stroke-miterlimit="10"/>
<path d="M33.577 25.1107C33.577 25.1107 33.6677 25.1071 33.7497 25.1898C33.7497 25.1898 33.8123 25.2833 33.9014 25.2724" stroke="black" stroke-width="0.0475345" stroke-miterlimit="10"/>
<path d="M34.7213 24.6972C34.7213 24.6972 34.5859 24.6972 34.511 24.6325C34.511 24.6325 34.4325 24.5786 34.3862 24.6648C34.3862 24.6648 34.3149 24.787 34.4468 24.841C34.4468 24.841 34.6108 24.9237 34.3505 25.0891C34.3505 25.0891 34.6607 24.9776 34.5359 24.8266C34.5359 24.8266 34.4005 24.7296 34.4504 24.6936C34.4504 24.6936 34.4646 24.6648 34.5181 24.7008C34.5716 24.7367 34.6786 24.7224 34.7213 24.6972Z" fill="black"/>
<path d="M38.9736 25.3841L37.9312 21.7841L37.893 21.7943L38.8142 25.438L38.9736 25.3841Z" fill="#784421" stroke="black" stroke-width="0.0356494"/>
<path d="M35.3432 29.4228C35.3432 29.4228 35.0972 29.2846 34.894 29.4464C34.894 29.4464 34.9148 29.3565 35.0702 29.317C35.0702 29.317 35.1543 29.0797 35.3896 29.1012C35.3896 29.1012 35.2933 29.2163 35.165 29.3134C35.165 29.3134 35.3005 29.3274 35.3432 29.4228Z" fill="black"/>
<path d="M34.4769 29.9947C34.4769 29.9947 34.0866 29.7493 34.2978 29.3368C34.2978 29.3368 34.3593 29.2181 34.4769 29.2424C34.4769 29.2424 34.7202 29.3179 34.5304 29.655C34.5304 29.655 34.4341 29.8734 34.4769 29.9947Z" fill="#64B4D1" stroke="#012169" stroke-width="0.0356494" stroke-miterlimit="2.613"/>
<path d="M35.2684 30.383C35.2684 30.383 34.7122 30.1295 34.8833 29.6981C34.8833 29.6981 34.9362 29.5524 35.0595 29.5633C35.0595 29.5633 35.274 29.574 35.2311 29.8598C35.2311 29.8598 35.1668 30.1403 35.2684 30.383Z" fill="#64B4D1" stroke="#012169" stroke-width="0.0356494" stroke-miterlimit="2.613"/>
<path d="M35.1507 28.7729C35.1507 28.7729 34.9837 28.8964 34.9157 28.9791C34.9157 28.9791 34.8477 28.8946 34.7586 28.8433C34.7586 28.8433 34.8612 28.8298 34.9157 28.876C34.9157 28.876 35.001 28.7933 35.1507 28.7729Z" fill="black"/>
<path d="M35.6454 30.2751C35.6454 30.2751 36.0812 30.1646 36.001 29.7143C36.001 29.7143 35.9582 29.5175 35.7737 29.5444C35.7737 29.5444 35.5514 29.6012 35.6962 29.8874C35.6962 29.8874 35.7817 30.0918 35.6454 30.2751Z" fill="#64B4D1" stroke="#012169" stroke-width="0.0356494" stroke-miterlimit="2.613"/>
<path d="M37.6145 20.7489C37.6145 20.7489 37.8952 20.835 38.0477 20.8971C38.0477 20.8971 38.4541 21.0804 38.9702 20.8971C38.9702 20.8971 39.3191 20.7589 39.3657 20.7489L39.0984 21.156L39.0851 21.3663L39.2523 21.6116C39.2523 21.6116 39.1519 21.6521 38.8524 21.4687C38.8524 21.4687 38.5209 21.2126 38.1252 21.4687C38.1252 21.4687 37.9086 21.6154 37.7268 21.6116L37.9835 21.325L37.8845 21.0669L37.6145 20.7489Z" fill="#F5CE00" stroke="black" stroke-width="0.0475345" stroke-miterlimit="2.613"/>
<path d="M35.8138 29.7372C35.8138 29.7372 35.8298 29.7156 35.8111 29.7062C35.8111 29.7062 35.7924 29.6981 35.779 29.7244C35.779 29.7244 35.7336 29.7965 35.772 29.8952C35.772 29.8952 35.8084 29.9637 35.7908 30.0352C35.7908 30.0352 35.7883 30.0554 35.8044 30.0581C35.8044 30.0581 35.8198 30.0527 35.8228 30.0379C35.8228 30.0379 35.8445 29.9681 35.8071 29.8999C35.8072 29.8998 35.7617 29.7939 35.8138 29.7372Z" fill="white"/>
<path d="M41.8507 21.5892C41.8507 21.5892 41.5369 21.7492 41.4059 21.5551C41.4059 21.5551 41.2348 21.2288 41.6105 21.1155C41.6105 21.1155 41.4059 20.8702 41.6252 20.6437C41.6252 20.6437 41.7402 20.5224 41.9407 20.6114C41.9407 20.6114 42.0237 20.4388 42.2188 20.4442C42.2188 20.4442 42.3899 20.4415 42.4488 20.6302C42.4488 20.6302 42.6841 20.5331 42.815 20.6733C42.815 20.6733 43.0316 20.916 42.7295 21.1075L42.512 21.1273L42.2982 21.0284L42.0593 21.0967C42.0592 21.0967 42.1207 21.3385 41.8507 21.5892Z" fill="#C8102E" stroke="black" stroke-width="0.0475516" stroke-linejoin="round"/>
<path d="M39.3658 21.3358C39.3658 21.3358 39.3579 21.4005 39.2937 21.4077C39.2937 21.4077 39.2268 21.4293 39.1878 21.3459C39.1878 21.3459 39.1832 21.327 39.1822 21.3178C39.1777 21.2788 39.1644 21.1668 39.2856 21.0751C39.2856 21.0751 39.4835 20.9134 39.8614 21.1093C39.8614 21.1093 40.1608 21.2531 40.3676 21.3753C40.3676 21.3753 40.9024 21.6629 40.9666 21.6845C40.9666 21.6845 41.2019 21.8031 41.5619 21.8175C41.5619 21.8175 42.0539 21.8535 42.2624 21.5084C42.2624 21.5084 42.421 21.2459 42.2624 21.0787C42.2624 21.0787 42.1983 21.0033 42.0928 21.0172C42.0485 21.023 41.9995 21.0434 41.9523 21.0985C41.9523 21.0985 41.8757 21.21 41.9647 21.2927C41.9647 21.2927 42.0806 21.3637 42.1216 21.2136C42.1216 21.2136 42.1234 21.2029 42.1269 21.2163C42.1292 21.225 42.1554 21.3394 42.094 21.4365C42.094 21.4365 41.7971 21.8856 40.9808 21.4202L39.9041 20.8163C39.9041 20.8163 39.364 20.5395 39.0414 20.9727C39.0414 20.9727 38.7811 21.3322 39.1162 21.5677C39.1162 21.5677 39.3658 21.7169 39.5226 21.4796C39.5226 21.4796 39.6527 21.2459 39.4478 21.1435C39.4478 21.1435 39.2678 21.0591 39.1965 21.2388C39.1252 21.4185 39.3355 21.4653 39.3551 21.3377C39.3551 21.3376 39.3605 21.307 39.3658 21.3358Z" fill="#F5CE00" stroke="black" stroke-width="0.0475345" stroke-miterlimit="2.613"/>
<path d="M35.0981 23.189C35.0981 23.189 35.0981 22.6282 35.0981 22.5149C35.0981 22.462 35.0985 22.4179 35.1786 22.3532C35.2588 22.2885 35.3444 22.186 35.4674 22.4772C35.4674 22.4772 35.708 22.2238 35.7882 22.186C35.7882 22.186 35.9273 22.0674 36.0235 22.2399C36.0235 22.2399 36.1519 22.0458 36.2534 21.9973C36.2534 21.9973 36.4941 21.8409 36.5048 22.31L36.6919 22.1374C36.6919 22.1374 36.8363 22.0188 36.9968 22.1806C36.9968 22.1806 37.2695 22.4448 37.3069 22.5203C37.3069 22.5203 37.3671 22.6021 37.3717 22.7311C37.3717 22.7311 37.3711 22.8762 37.4459 22.9571C37.4459 22.9571 37.5314 23.0326 37.6143 23.0488C37.6143 23.0488 37.8095 23.0541 37.879 23.2375C37.879 23.2375 37.9111 23.2057 38.0074 24.0844V25.6858L36.9271 26.9747L35.1945 26.4785L34.5047 26.1927L34.3496 25.6858L35.0181 25.2544L35.3817 24.2729L35.2641 23.5826L35.0981 23.189Z" fill="#E4CB5E" stroke="black" stroke-width="0.0356494" stroke-miterlimit="2.613"/>
<path d="M39.8721 24.0393L39.9541 23.9171L40.1502 23.7661C40.1502 23.7661 40.4496 24.5519 40.4639 24.7234V24.9673C40.4639 24.9673 40.9131 25.0819 40.9916 25.7722L40.6208 26.4553L40.0397 26.1317L39.8722 26.0094V24.0393H39.8721Z" fill="#784421" stroke="black" stroke-width="0.0356494"/>
<path d="M34.3686 29.4352C34.3686 29.4352 34.39 29.4069 34.3753 29.3948C34.3753 29.3948 34.3659 29.3813 34.3406 29.4136C34.3406 29.4136 34.2225 29.5457 34.3165 29.7487C34.3165 29.7487 34.3272 29.7776 34.3459 29.7682C34.3459 29.7682 34.3619 29.7601 34.3472 29.7359C34.3473 29.7359 34.263 29.5687 34.3686 29.4352Z" fill="white"/>
<path d="M36.1204 29.3027C36.1204 29.3027 36.1382 29.2416 36.0955 29.1768C36.0955 29.1768 36.067 29.1301 36.0776 29.069" stroke="black" stroke-width="0.0475345" stroke-miterlimit="10"/>
<path d="M36.5049 22.3101C36.5049 22.3101 36.5065 22.4786 36.5547 22.6027C36.6028 22.7268 36.7653 22.9413 36.776 23.0572" stroke="black" stroke-width="0.0356494" stroke-miterlimit="10"/>
<path d="M40.5798 28.1612C40.5798 28.1612 40.8525 28.1774 40.9915 28.2475C41.1306 28.3176 41.2375 28.3931 41.3979 28.4955C41.3979 28.4955 41.4728 28.5953 41.7883 28.5346C41.7883 28.5346 42.3337 28.4039 42.3337 28.8299C42.3337 28.8299 42.9861 28.8838 42.7188 29.4554C42.7188 29.4554 42.537 29.903 42.1626 29.5849C42.1626 29.5849 42.4033 29.93 41.938 30.0649C41.938 30.0649 41.6065 30.1458 41.5102 29.806C41.5102 29.806 41.4567 29.6712 41.5851 29.504C41.5851 29.504 41.4246 29.4716 41.3124 29.2991C41.3124 29.2991 41.6546 29.7316 41.2803 29.8874C41.2803 29.8874 40.8098 30.0055 40.783 29.5147C40.783 29.5147 40.8214 29.2882 40.6391 29.2073C40.6391 29.2073 40.2642 29.121 40.0931 28.7031C40.0931 28.7031 40.6321 28.4161 40.5798 28.1612Z" fill="#C8102E" stroke="black" stroke-width="0.0475516" stroke-linejoin="round"/>
<path d="M36.2898 23.0569L36.7349 26.6493" stroke="black" stroke-width="0.0356494" stroke-miterlimit="10"/>
<path d="M36.3926 23.0491L36.8918 26.3977" stroke="black" stroke-width="0.0356494" stroke-miterlimit="10"/>
<path d="M36.4862 23.0336L37.0611 26.3546" stroke="black" stroke-width="0.0356494" stroke-miterlimit="10"/>
<path d="M37.5549 26.0148L36.5123 22.4148L36.4742 22.425L37.3954 26.0688L37.5549 26.0148Z" fill="#784421" stroke="black" stroke-width="0.0356494"/>
<path d="M36.8051 22.9017L37.8579 25.5619" stroke="black" stroke-width="0.0356494" stroke-miterlimit="10"/>
<path d="M36.7349 22.9448L37.7509 25.7236" stroke="black" stroke-width="0.0356494" stroke-miterlimit="10"/>
<path d="M35.067 30.1277C35.067 30.1277 34.9448 30.0106 34.9618 29.8006C34.9618 29.8006 34.9689 29.7557 34.9465 29.7494C34.9465 29.7494 34.9226 29.7395 34.9191 29.7916C34.9191 29.7916 34.8852 30.0109 35.0332 30.1367C35.0332 30.1367 35.0432 30.1493 35.0596 30.1457C35.0595 30.1457 35.077 30.1418 35.067 30.1277Z" fill="white"/>
<path d="M36.8526 22.8656L37.938 25.2922" stroke="black" stroke-width="0.0356494" stroke-miterlimit="10"/>
<path d="M36.5557 23.0164L37.2215 26.2845" stroke="black" stroke-width="0.0356494" stroke-miterlimit="10"/>
<path d="M42.0018 25.438C41.5263 25.1682 41.422 24.5696 41.422 24.5696C41.3071 23.9737 41.5397 23.5018 41.5397 23.5018C41.8472 22.852 42.3741 22.7311 42.3741 22.7311C42.3741 22.7311 41.8579 23.0892 41.7135 23.5719C41.7135 23.5719 41.6012 23.979 41.6654 24.3808C41.7296 24.7826 41.7055 24.6801 41.8045 24.9902L42.0018 25.438Z" fill="#F5CE00" stroke="black" stroke-width="0.0475345" stroke-miterlimit="2.613"/>
<path d="M39.9541 23.9171L37.9561 24.5479L37.8471 25.438C37.373 26.1248 36.4095 26.2467 36.4095 26.2467L37.1591 27.0448L38.5994 27.3468L39.3552 26.7644L40.0397 26.1317C39.9684 25.7937 40.0076 25.2922 40.0076 25.2922C40.0076 25.2078 40.0397 25.01 40.0397 25.01C40.0397 25.01 39.922 24.1975 39.9541 23.9171Z" fill="#784421" stroke="black" stroke-width="0.0217673"/>
<path d="M37.8745 25.2144C37.8745 25.2144 39.1904 24.8035 39.9751 24.4735" stroke="black" stroke-width="0.0356494" stroke-miterlimit="10"/>
<path d="M37.2429 25.9645C37.2429 25.9645 38.8846 25.6679 40.0396 25.01L40.4639 24.7234" stroke="black" stroke-width="0.0356494" stroke-miterlimit="10"/>
<path d="M40.4639 24.9673L40.0075 25.2923C40.0075 25.2923 38.1715 26.1389 36.7736 26.1615" stroke="black" stroke-width="0.0356494" stroke-miterlimit="10"/>
<path d="M40.0072 25.8939C40.0072 25.8939 38.5958 26.6206 37.7865 26.6315" stroke="black" stroke-width="0.0356494" stroke-miterlimit="10"/>
<path d="M41.6903 23.8599C41.6903 23.8599 42.111 23.6662 42.3107 23.8599C42.3107 23.8599 42.5888 23.6877 42.881 23.8599C42.881 23.8599 43.1591 24.0417 43.3516 24.2418C43.3516 24.2418 43.4871 24.3578 43.4372 24.7235C43.4372 24.7235 43.3659 24.9812 43.4087 25.1107C43.4087 25.1107 43.5014 25.0923 43.6868 25.312C43.6868 25.312 43.9221 25.5845 44.1288 25.344C44.1288 25.344 44.0647 25.6787 43.6761 25.6248C43.6761 25.6248 43.865 25.7722 43.701 26.1533C43.701 26.1533 43.5798 26.4229 43.7723 26.7609C43.7723 26.7609 43.4336 26.6243 43.4479 26.2252C43.4479 26.2252 43.4764 25.9556 43.3766 25.765C43.3766 25.765 43.4764 25.9383 43.2447 26.3079C43.2447 26.3079 43.0665 26.5739 43.2126 26.8507C43.2126 26.8507 42.8776 26.7285 42.9096 26.3222C42.9417 25.916 43.1449 26.0849 43.013 25.7111C43.013 25.7111 42.9809 25.9025 42.8811 25.9992C42.7813 26.0958 42.653 26.2575 42.7064 26.5272C42.7064 26.5272 42.5068 26.2791 42.5531 26.0238C42.5995 25.7686 42.6494 25.6914 42.6494 25.6914L42.0184 25.3336L41.7046 24.7655L41.6903 23.8599Z" fill="#C8102E" stroke="black" stroke-width="0.0475516" stroke-linejoin="round"/>
<path d="M34.5424 26.1335C34.5424 26.1335 34.6012 25.8548 34.8686 25.9645C34.8686 25.9645 34.9595 25.5079 35.4461 25.4918C35.9327 25.4756 35.9595 25.9663 35.9595 25.9987C35.9595 25.9987 36.1024 25.788 36.3411 25.8124C36.3411 25.8124 36.7526 25.7882 36.5993 26.4489L36.6771 26.5317C36.6771 26.5317 36.9915 25.7937 37.6386 25.9879C37.6386 25.9879 38.2696 26.1802 37.8579 26.7914C37.8579 26.7914 38.1693 27.1959 38.4334 27.1581C38.6974 27.1203 38.9327 27.0395 39.1947 26.5757C39.4568 26.1119 40.0664 26.0418 40.2215 26.0687C40.3766 26.0957 40.4991 26.1964 40.5244 26.306C40.5244 26.306 40.8472 25.2287 42.0076 25.398L42.4728 25.632L42.6493 25.7129L42.3862 26.4553L41.7454 27.9038L41.2589 28.0534L40.7508 27.7622L40.5744 27.8568L40.56 28.2906L39.8899 28.773L39.4247 28.9647L38.9113 29.3152L38.7919 29.6286C38.7919 29.6286 38.5084 29.5092 38.1884 29.6286L38.0825 29.3692L37.783 29.0834L36.6197 28.5346L36.4095 27.8568L36.1972 27.7622L35.9595 28.0344L35.6119 28.075L35.0932 27.7244L34.5424 26.1335Z" fill="white" stroke="#012169" stroke-width="0.0475345" stroke-miterlimit="10"/>
<path d="M39.6083 20.8594C39.6083 20.8594 39.1643 20.8396 39.1804 21.2998" stroke="black" stroke-width="0.0475345" stroke-miterlimit="2.613"/>
<path d="M42.529 25.7479C41.7562 25.5106 41.545 24.6801 41.545 24.6801C41.3873 24.0572 41.6413 23.5126 41.6413 23.5126C41.9942 22.6837 42.5914 22.6839 42.5914 22.6839C42.8908 22.6758 42.9268 22.932 42.9268 22.932C42.955 23.1135 42.8276 23.1791 42.8276 23.1791C42.6226 23.2906 42.4934 23.1396 42.4934 23.1396C42.4078 23.0281 42.4737 22.9293 42.4737 22.9293C42.5263 22.8556 42.627 22.8879 42.627 22.8879C42.7068 22.9126 42.6983 23.0124 42.6983 23.0124C42.6988 23.015 42.7006 23.015 42.7006 23.015C42.7041 23.0141 42.7028 23.0128 42.7028 23.0128C42.7028 23.0128 42.7206 22.8906 42.6012 22.878C42.6012 22.878 42.3686 22.8276 42.0959 23.1674C42.0959 23.1674 41.7367 23.6258 41.7376 24.219C41.7376 24.219 41.6922 25.3326 42.8526 25.6211C42.8526 25.6211 42.7269 25.8018 42.505 26.4543C42.505 26.4543 42.2537 27.2929 42.0137 27.7462C42.0137 27.7462 41.6948 28.393 40.9836 28.1287C40.9836 28.1287 40.5601 27.9427 40.5611 27.6353C40.5611 27.6353 40.5317 27.3548 40.7857 27.3333C40.7857 27.3333 41.0344 27.3144 41.0317 27.5274C41.0317 27.5274 41.0384 27.758 40.767 27.7054C40.767 27.7054 40.6721 27.6852 40.6894 27.5921C40.6894 27.5921 40.7046 27.5085 40.8191 27.5449C40.8191 27.5449 40.8227 27.5454 40.8231 27.5436C40.8231 27.5436 40.8244 27.5416 40.8204 27.5404C40.8204 27.5404 40.7761 27.5206 40.7293 27.537C40.7293 27.537 40.6874 27.5509 40.6841 27.6163C40.6841 27.6163 40.6814 27.6689 40.7376 27.6986C40.7376 27.6986 40.8058 27.7228 40.8592 27.7175C40.8592 27.7175 40.9312 27.8626 41.0939 27.9118C41.3204 27.9803 41.507 27.9144 41.6213 27.8233C41.7455 27.7241 41.8258 27.5509 41.8499 27.5085C41.8739 27.466 42.0825 26.9989 42.2393 26.4964C42.2393 26.4964 42.3766 26.0632 42.4862 25.8367L42.529 25.7479Z" fill="#F5CE00" stroke="black" stroke-width="0.0475345" stroke-miterlimit="2.613"/>
<path d="M40.3485 27.8592C40.3485 27.8592 40.4929 27.8396 40.4929 27.9684C40.4929 27.9684 40.4841 28.1565 40.2549 28.1153C40.2549 28.1153 40.029 28.0659 40.1091 27.8133C40.1091 27.8133 40.1626 27.6353 40.3765 27.661C40.3765 27.661 40.5837 27.6704 40.6747 27.9536C40.6747 27.9536 40.7442 28.1922 40.6252 28.3971C40.4924 28.6257 40.1564 28.7759 39.9942 28.8424C39.9942 28.8424 39.3445 29.0977 39.1507 29.2437C39.1507 29.2437 38.8535 29.4644 38.9849 29.6698C38.9849 29.6698 39.0357 29.748 39.1119 29.748C39.1119 29.748 39.1988 29.752 39.2136 29.6631C39.2136 29.6631 39.214 29.6613 39.2126 29.659C39.2126 29.659 39.2113 29.659 39.2109 29.6612C39.2109 29.6612 39.2046 29.7156 39.1574 29.7358C39.1574 29.7358 39.0941 29.7678 39.0277 29.7116C39.0277 29.7116 38.9573 29.6442 39.0161 29.5395C39.0161 29.5395 39.0932 29.4105 39.2728 29.4869C39.2728 29.4869 39.4311 29.5651 39.366 29.7332C39.366 29.7332 39.3081 29.8878 39.1173 29.8874C39.1173 29.8874 38.9737 29.8827 38.8818 29.7864C38.7385 29.6361 38.7307 29.3434 38.8571 29.1921C38.8571 29.1921 38.9765 29.0312 39.2162 28.9332C39.3551 28.8764 39.6173 28.7624 39.89 28.6555C40.0817 28.5803 40.2573 28.4903 40.3713 28.3553C40.3713 28.3553 40.473 28.2421 40.5024 28.0479C40.5024 28.0479 40.5305 27.9023 40.4418 27.8704C40.4418 27.8704 40.3967 27.8502 40.3473 27.8569C40.3473 27.8569 40.346 27.857 40.3456 27.8578C40.3455 27.8579 40.3435 27.8601 40.3485 27.8592Z" fill="#F5CE00" stroke="black" stroke-width="0.0475345" stroke-miterlimit="2.613"/>
<path d="M40.3605 27.8582C40.3605 27.8582 40.5201 27.8295 40.6199 28.0192C40.6199 28.0192 40.6787 28.1414 40.6882 28.2121" stroke="black" stroke-width="0.0475345" stroke-miterlimit="2.613"/>
<path d="M40.7402 27.5341C40.7402 27.5341 40.5804 27.5618 40.6627 27.7878C40.7402 28.0008 40.8843 28.0707 40.927 28.1003" stroke="black" stroke-width="0.0475345" stroke-miterlimit="2.613"/>
<path d="M37.6144 21.3357C37.6144 21.3357 37.6223 21.4004 37.6865 21.4077C37.6865 21.4077 37.7534 21.4292 37.7924 21.3459C37.7924 21.3459 37.797 21.327 37.798 21.3178C37.8024 21.2788 37.8158 21.1667 37.6946 21.0751C37.6946 21.0751 37.4967 20.9133 37.1188 21.1092C37.1188 21.1092 36.8194 21.253 36.6126 21.3753C36.6126 21.3753 36.0778 21.6629 36.0136 21.6844C36.0136 21.6844 35.7783 21.8031 35.4183 21.8175C35.4183 21.8175 34.9263 21.8534 34.7178 21.5083C34.7178 21.5083 34.5592 21.2459 34.7178 21.0787C34.7178 21.0787 34.7819 21.0032 34.8874 21.0171C34.9317 21.0229 34.9807 21.0433 35.0279 21.0985C35.0279 21.0985 35.1045 21.21 35.0154 21.2926C35.0154 21.2926 34.8996 21.3636 34.8586 21.2136C34.8586 21.2136 34.8568 21.2028 34.8532 21.2162C34.8509 21.2249 34.8247 21.3394 34.8862 21.4364C34.8862 21.4364 35.183 21.8856 35.9994 21.4201L37.076 20.8163C37.076 20.8163 37.6161 20.5394 37.9388 20.9726C37.9388 20.9726 38.199 21.3322 37.8639 21.5676C37.8639 21.5676 37.6144 21.7168 37.4575 21.4796C37.4575 21.4796 37.3274 21.2459 37.5324 21.1435C37.5324 21.1435 37.7124 21.059 37.7837 21.2387C37.855 21.4185 37.6446 21.4652 37.6251 21.3376C37.6251 21.3376 37.6197 21.307 37.6144 21.3357Z" fill="#F5CE00" stroke="black" stroke-width="0.0475345" stroke-miterlimit="2.613"/>
<path d="M34.9784 25.438C35.4539 25.1682 35.5582 24.5696 35.5582 24.5696C35.6732 23.9737 35.4406 23.5018 35.4406 23.5018C35.133 22.852 34.6061 22.7311 34.6061 22.7311C34.6061 22.7311 35.1223 23.0892 35.2667 23.5719C35.2667 23.5719 35.379 23.979 35.3148 24.3808C35.2507 24.7826 35.2747 24.6801 35.1758 24.9902L34.9784 25.438Z" fill="#F5CE00" stroke="black" stroke-width="0.0475345" stroke-miterlimit="2.613"/>
<path d="M37.3719 20.8594C37.3719 20.8594 37.8159 20.8396 37.7998 21.2998" stroke="black" stroke-width="0.0475345" stroke-miterlimit="2.613"/>
<path d="M34.4512 25.7479C35.2239 25.5106 35.4352 24.6801 35.4352 24.6801C35.5929 24.0572 35.3389 23.5126 35.3389 23.5126C34.986 22.6837 34.3888 22.6839 34.3888 22.6839C34.0893 22.6758 34.0534 22.932 34.0534 22.932C34.0251 23.1135 34.1526 23.1791 34.1526 23.1791C34.3575 23.2906 34.4868 23.1396 34.4868 23.1396C34.5724 23.0281 34.5064 22.9293 34.5064 22.9293C34.4539 22.8556 34.3531 22.8879 34.3531 22.8879C34.2734 22.9126 34.2818 23.0124 34.2818 23.0124C34.2814 23.015 34.2796 23.015 34.2796 23.015C34.2761 23.0141 34.2774 23.0128 34.2774 23.0128C34.2774 23.0128 34.2595 22.8906 34.379 22.878C34.379 22.878 34.6116 22.8276 34.8843 23.1674C34.8843 23.1674 35.2435 23.6258 35.2426 24.219C35.2426 24.219 35.288 25.3326 34.1276 25.6211C34.1276 25.6211 34.2533 25.8018 34.4752 26.4543C34.4752 26.4543 34.7265 27.2929 34.9664 27.7462C34.9664 27.7462 35.2854 28.393 35.9966 28.1287C35.9966 28.1287 36.4201 27.9427 36.4191 27.6353C36.4191 27.6353 36.4485 27.3548 36.1945 27.3333C36.1945 27.3333 35.9458 27.3144 35.9485 27.5274C35.9485 27.5274 35.9418 27.758 36.2132 27.7054C36.2132 27.7054 36.3081 27.6852 36.2907 27.5921C36.2907 27.5921 36.2756 27.5085 36.1611 27.5449C36.1611 27.5449 36.1575 27.5454 36.1571 27.5436C36.1571 27.5436 36.1558 27.5416 36.1598 27.5404C36.1598 27.5404 36.204 27.5206 36.2509 27.537C36.2509 27.537 36.2928 27.5509 36.2961 27.6163C36.2961 27.6163 36.2988 27.6689 36.2426 27.6986C36.2426 27.6986 36.1744 27.7228 36.121 27.7175C36.121 27.7175 36.049 27.8626 35.8863 27.9118C35.6597 27.9803 35.4731 27.9144 35.3589 27.8233C35.2347 27.7241 35.1544 27.5509 35.1303 27.5085C35.1063 27.466 34.8977 26.9989 34.7409 26.4964C34.7409 26.4964 34.6036 26.0632 34.494 25.8367L34.4512 25.7479Z" fill="#F5CE00" stroke="black" stroke-width="0.0475345" stroke-miterlimit="2.613"/>
<path d="M36.6317 27.8592C36.6317 27.8592 36.4873 27.8396 36.4873 27.9684C36.4873 27.9684 36.4961 28.1565 36.7253 28.1153C36.7253 28.1153 36.9512 28.0659 36.8711 27.8133C36.8711 27.8133 36.8176 27.6353 36.6037 27.661C36.6037 27.661 36.3965 27.6704 36.3055 27.9536C36.3055 27.9536 36.236 28.1923 36.355 28.3971C36.4878 28.6257 36.8238 28.7759 36.986 28.8424C36.986 28.8424 37.6357 29.0977 37.8295 29.2437C37.8295 29.2437 38.1267 29.4644 37.9953 29.6698C37.9953 29.6698 37.9445 29.748 37.8683 29.748C37.8683 29.748 37.7813 29.752 37.7666 29.6631C37.7666 29.6631 37.7662 29.6613 37.7676 29.659C37.7676 29.659 37.7689 29.659 37.7693 29.6612C37.7693 29.6612 37.7756 29.7156 37.8228 29.7358C37.8228 29.7358 37.8861 29.7678 37.9525 29.7116C37.9525 29.7116 38.0229 29.6442 37.9641 29.5395C37.9641 29.5395 37.887 29.4105 37.7074 29.4869C37.7074 29.4869 37.5491 29.5651 37.6142 29.7332C37.6142 29.7332 37.6721 29.8878 37.8629 29.8874C37.8629 29.8874 38.0065 29.8827 38.0984 29.7864C38.2417 29.6361 38.2495 29.3434 38.1231 29.1921C38.1231 29.1921 38.0037 29.0312 37.764 28.9332C37.6251 28.8764 37.3629 28.7624 37.0902 28.6555C36.8985 28.5803 36.7229 28.4903 36.6089 28.3553C36.6089 28.3553 36.5072 28.2421 36.4778 28.0479C36.4778 28.0479 36.4497 27.9023 36.5384 27.8704C36.5384 27.8704 36.5835 27.8502 36.6329 27.8569C36.6329 27.8569 36.6342 27.857 36.6346 27.8578C36.6347 27.8578 36.6367 27.8601 36.6317 27.8592Z" fill="#F5CE00" stroke="black" stroke-width="0.0475345" stroke-miterlimit="2.613"/>
<path d="M36.6196 27.8582C36.6196 27.8582 36.4601 27.8295 36.3603 28.0192C36.3603 28.0192 36.3015 28.1414 36.292 28.2121" stroke="black" stroke-width="0.0475345" stroke-miterlimit="2.613"/>
<path d="M36.2401 27.5339C36.2401 27.5339 36.3998 27.5616 36.3175 27.7877C36.24 28.0007 36.096 28.0706 36.0532 28.1002" stroke="black" stroke-width="0.0475345" stroke-miterlimit="2.613"/>
<path d="M38.1038 21.2738C38.1038 21.2738 38.4901 21.032 38.8846 21.2998" stroke="black" stroke-width="0.0475345" stroke-miterlimit="2.613"/>
<path d="M35.906 23.6367C35.906 23.6367 35.9595 23.4209 35.7135 23.0434C35.7135 23.0434 35.553 22.6983 35.4675 22.4772" stroke="black" stroke-width="0.0356494" stroke-miterlimit="2.613"/>
<path d="M36.0236 22.2399C36.0236 22.2399 36.1629 22.5792 36.2108 22.7311C36.2108 22.7311 36.3835 23.1567 36.4202 23.243" stroke="black" stroke-width="0.0356494" stroke-miterlimit="2.613"/>
<path d="M36.0932 23.8739C36.0932 23.8739 36.2384 24.0303 36.222 24.2945" stroke="black" stroke-width="0.0356494" stroke-miterlimit="10"/>
<path d="M35.6119 23.7068C35.6119 23.7068 35.7723 23.7841 35.7617 24.2101C35.7617 24.2101 35.7456 24.5211 35.9862 24.6775" stroke="black" stroke-width="0.0356494" stroke-miterlimit="10"/>
<path d="M35.5901 24.7871C35.5901 24.7871 36.0923 24.7323 36.1199 25.0415C36.1199 25.0415 36.1306 25.3381 36.3017 25.3705C36.3017 25.3705 36.558 25.3947 36.6088 25.632" stroke="black" stroke-width="0.0356494" stroke-miterlimit="10"/>
<path d="M35.7482 25.1304C35.7482 25.1304 35.8365 25.2626 35.922 25.3192" stroke="black" stroke-width="0.0356494" stroke-miterlimit="10"/>
<path d="M36.3926 24.8042C36.3926 24.8042 36.5202 24.9974 36.5442 25.1107" stroke="black" stroke-width="0.0356494" stroke-miterlimit="10"/>
<path d="M36.9452 22.4772C36.9452 22.4772 37.0628 22.6372 37.1769 22.7126" stroke="black" stroke-width="0.0356494" stroke-miterlimit="10"/>
<path d="M37.4158 23.4246C37.4158 23.4246 37.6654 23.5468 37.6226 24.1759C37.6226 24.1759 37.5905 24.5449 37.6939 24.7463" stroke="black" stroke-width="0.0356494" stroke-miterlimit="10"/>
<path d="M36.2402 22.9976L36.2563 23.057C36.2563 23.057 36.7037 23.0759 36.9452 22.7711L36.9193 22.7127C36.9193 22.7127 36.529 22.6929 36.2402 22.9976Z" fill="#784421" stroke="black" stroke-width="0.0356494"/>
<path d="M37.8521 25.398C37.8521 25.398 39.3995 24.9367 39.9958 24.6677" stroke="black" stroke-width="0.0356494" stroke-miterlimit="10"/>
<path d="M37.668 22.4934L38.4334 22.2022L38.4515 22.2534L37.6859 22.5442L37.668 22.4934Z" fill="#784421" stroke="black" stroke-width="0.0217673"/>
<path d="M37.7509 22.5195L38.2589 25.01" stroke="black" stroke-width="0.0356494" stroke-miterlimit="10"/>
<path d="M37.8391 22.486L38.4209 24.9651" stroke="black" stroke-width="0.0356494" stroke-miterlimit="10"/>
<path d="M37.938 22.4484L38.5744 24.9094" stroke="black" stroke-width="0.0356494" stroke-miterlimit="10"/>
<path d="M38.1875 22.3536L39.055 24.2009" stroke="black" stroke-width="0.0356494" stroke-miterlimit="10"/>
<path d="M38.3023 22.3101L39.2274 24.1465" stroke="black" stroke-width="0.0356494" stroke-miterlimit="10"/>
<path d="M38.3873 22.2778L39.388 24.0958" stroke="black" stroke-width="0.0356494" stroke-miterlimit="10"/>
<path d="M38.2245 25.0298L38.6172 24.9004" stroke="black" stroke-width="0.0356494" stroke-miterlimit="10"/>
<path d="M37.9272 24.7833C37.9272 24.7833 39.0782 24.4472 39.9493 24.0958" stroke="black" stroke-width="0.0356494" stroke-miterlimit="10"/>
<path d="M37.9118 24.9094C37.9118 24.9094 39.3705 24.5234 39.9493 24.2418" stroke="black" stroke-width="0.0356494" stroke-miterlimit="10"/>
<path d="M38.3569 26.0957L38.4333 26.3294L38.6421 26.2626L38.5708 26.031" stroke="black" stroke-width="0.0356494" stroke-miterlimit="10"/>
<path d="M38.9461 25.9279L39.0225 26.1615L39.2314 26.0947L39.16 25.8632" stroke="black" stroke-width="0.0356494" stroke-miterlimit="10"/>
<path d="M37.9561 24.548L37.938 24.2318L39.8507 23.6511L39.9541 23.9171" stroke="black" stroke-width="0.0356494" stroke-miterlimit="10"/>
<path d="M38.7491 23.9855L38.8533 24.2647" stroke="black" stroke-width="0.0356494" stroke-miterlimit="10"/>
<path d="M39.4178 23.7825L39.5396 24.0479" stroke="black" stroke-width="0.0356494" stroke-miterlimit="10"/>
<path d="M39.5764 23.7344L39.6903 23.9855" stroke="black" stroke-width="0.0356494" stroke-miterlimit="10"/>
<path d="M39.7278 23.6884L39.8476 23.9507" stroke="black" stroke-width="0.0356494" stroke-miterlimit="10"/>
<path d="M39.8507 23.651L40.0611 23.5324L40.1502 23.766" stroke="black" stroke-width="0.0356494" stroke-miterlimit="10"/>
<path d="M39.9541 23.5927L40.0612 23.8346" stroke="black" stroke-width="0.0356494" stroke-miterlimit="10"/>
<path d="M35.2107 27.2336C35.2107 27.2336 34.8364 26.8545 35.2107 26.4832C35.2107 26.4832 34.8044 26.2845 34.8685 25.9645" stroke="#012169" stroke-width="0.0475345" stroke-miterlimit="10"/>
<path d="M35.8792 27.534C35.8792 27.534 35.4915 27.5868 35.6065 26.8318C35.6065 26.8318 35.446 27.1311 35.3907 27.2849C35.3494 27.4001 35.3767 27.5859 35.5408 27.6864C35.6064 27.7266 35.954 27.8171 36.0663 27.5868" stroke="#012169" stroke-width="0.0475345" stroke-miterlimit="10"/>
<path d="M35.446 26.3788C35.446 26.3788 35.2883 26.5245 35.4006 26.7914" stroke="#012169" stroke-width="0.0475345" stroke-miterlimit="10"/>
<path d="M35.6091 26.4139C35.6091 26.4139 35.6278 26.6728 35.7562 26.8183" stroke="#012169" stroke-width="0.0475345" stroke-miterlimit="10"/>
<path d="M35.72 26.3115C35.72 26.3115 35.7188 26.6162 35.938 26.8049" stroke="#012169" stroke-width="0.0475345" stroke-miterlimit="10"/>
<path d="M35.829 26.2063C35.829 26.2063 35.8311 26.5487 36.0851 26.7591" stroke="#012169" stroke-width="0.0475345" stroke-miterlimit="10"/>
<path d="M37.0905 26.7078C37.0905 26.7078 37.2188 26.4273 37.4888 26.4408C37.4888 26.4408 37.3578 26.5002 37.3605 26.6314C37.3605 26.6314 37.3445 26.848 37.5771 26.8695C37.5771 26.8695 37.7642 26.8938 37.8578 26.7913" stroke="#012169" stroke-width="0.0475345" stroke-miterlimit="10"/>
<path d="M37.7295 27.9885C37.7295 27.9885 37.0637 27.6758 37.1333 27.2255C37.1333 27.2255 37.16 26.9505 37.4289 26.821" stroke="#012169" stroke-width="0.0475345" stroke-miterlimit="10"/>
<path d="M37.2883 27.1068C37.2883 27.1068 37.2295 27.301 37.3605 27.4358" stroke="#012169" stroke-width="0.0475345" stroke-miterlimit="10"/>
<path d="M37.438 26.9747C37.438 26.9747 37.3578 27.1878 37.4915 27.3468" stroke="#012169" stroke-width="0.0475345" stroke-miterlimit="10"/>
<path d="M37.5983 26.8713C37.5983 26.8713 37.5022 27.0475 37.6171 27.2066" stroke="#012169" stroke-width="0.0475345" stroke-miterlimit="10"/>
<path d="M36.9915 28.0344C36.9915 28.0344 37.3552 28.3499 37.6386 28.3526" stroke="#012169" stroke-width="0.0475345" stroke-miterlimit="10"/>
<path d="M36.8765 28.1342C36.8765 28.1342 37.2164 28.4092 37.4288 28.4496" stroke="#012169" stroke-width="0.0475345" stroke-miterlimit="10"/>
<path d="M36.7482 28.212C36.7482 28.212 37.1682 28.5817 37.4288 28.6087" stroke="#012169" stroke-width="0.0475345" stroke-miterlimit="10"/>
<path d="M38.4568 28.9485C38.4568 28.9485 38.0438 29.171 38.3639 29.4062" stroke="#012169" stroke-width="0.0475345" stroke-miterlimit="10"/>
<path d="M38.1947 28.7031C38.1947 28.7031 38.6626 28.4578 38.8658 28.3661" stroke="#012169" stroke-width="0.0475345" stroke-miterlimit="10"/>
<path d="M38.3632 28.8299C38.3632 28.8299 39.0396 28.4173 39.2401 28.3284" stroke="#012169" stroke-width="0.0475345" stroke-miterlimit="10"/>
<path d="M38.7108 28.8568C38.7108 28.8568 39.2883 28.4713 39.5984 28.3041" stroke="#012169" stroke-width="0.0475345" stroke-miterlimit="10"/>
<path d="M39.0931 28.8433C39.0931 28.8433 39.4915 28.5306 39.8765 28.3041" stroke="#012169" stroke-width="0.0475345" stroke-miterlimit="10"/>
<path d="M40.0129 27.9131C40.0129 27.9131 39.8177 27.6273 39.176 27.9131C39.176 27.9131 39.4113 27.6995 39.8765 27.534" stroke="#012169" stroke-width="0.0475345" stroke-miterlimit="10"/>
<path d="M40.5244 26.306C40.5244 26.306 40.5769 26.5379 40.5208 26.6781" stroke="#012169" stroke-width="0.0475345" stroke-miterlimit="10"/>
<path d="M39.4835 27.4305C39.4835 27.4305 39.6171 27.2336 39.9567 27.1366C39.9567 27.1366 40.0483 27.3657 40.3124 27.3145C40.3124 27.3145 40.7108 27.2363 40.5905 26.7995C40.5905 26.7995 40.5076 26.4732 40.0526 26.4409" stroke="#012169" stroke-width="0.0475345" stroke-miterlimit="10"/>
<path d="M41.406 25.8939C41.406 25.8939 41.8685 25.9771 41.8605 26.3546C41.8605 26.3546 41.898 26.9208 41.3017 27.0314" stroke="#012169" stroke-width="0.0475345" stroke-miterlimit="10"/>
<path d="M41.7949 26.1263C41.7949 26.1263 41.922 25.8504 42.2054 25.7371" stroke="#012169" stroke-width="0.0475345" stroke-miterlimit="10"/>
<path d="M41.861 25.5753C41.861 25.5753 41.9873 25.7779 42.0737 25.8074" stroke="#012169" stroke-width="0.0475345" stroke-miterlimit="10"/>
<path d="M41.7949 25.7371C41.7949 25.7371 41.9139 25.8826 41.9541 25.907" stroke="#012169" stroke-width="0.0475345" stroke-miterlimit="10"/>
<path d="M41.7562 25.8773C41.7562 25.8773 41.8189 25.97 41.8745 25.9991" stroke="#012169" stroke-width="0.0475345" stroke-miterlimit="10"/>
<path d="M39.3765 23.6883C39.3765 23.6883 39.4665 23.5422 39.6903 23.6043" stroke="#012169" stroke-width="0.0475345" stroke-miterlimit="10"/>
<path d="M40.6038 24.7833C40.6038 24.7833 40.7456 24.1921 41.2402 24.4105" stroke="#012169" stroke-width="0.0475345" stroke-miterlimit="10"/>
<path d="M41.0396 24.3621C41.0396 24.3621 41.0904 24.0895 40.9674 23.9507" stroke="#012169" stroke-width="0.0475345" stroke-miterlimit="10"/>
<path d="M40.7027 24.3431C40.7027 24.3431 40.7657 24.4558 40.7118 24.5479" stroke="#012169" stroke-width="0.0475345" stroke-miterlimit="10"/>
<path d="M41.7081 30.383C41.7081 30.383 42.2643 30.1295 42.0932 29.6981C42.0932 29.6981 42.0403 29.5524 41.917 29.5633C41.917 29.5633 41.7025 29.574 41.7454 29.8598C41.7454 29.8599 41.8097 30.1403 41.7081 30.383Z" fill="#64B4D1" stroke="#012169" stroke-width="0.0356494" stroke-miterlimit="2.613"/>
<path d="M41.9095 30.1277C41.9095 30.1277 42.0317 30.0106 42.0147 29.8006C42.0147 29.8006 42.0075 29.7557 42.03 29.7494C42.03 29.7494 42.0539 29.7394 42.0574 29.7915C42.0574 29.7915 42.0913 30.0109 41.9433 30.1367C41.9433 30.1367 41.9333 30.1492 41.9169 30.1456C41.917 30.1457 41.8994 30.1418 41.9095 30.1277Z" fill="white"/>
<path d="M42.4996 29.9947C42.4996 29.9947 42.8899 29.7493 42.6787 29.3368C42.6787 29.3368 42.6172 29.2181 42.4996 29.2424C42.4996 29.2424 42.2563 29.3179 42.4461 29.655C42.4461 29.655 42.5423 29.8734 42.4996 29.9947Z" fill="#64B4D1" stroke="#012169" stroke-width="0.0356494" stroke-miterlimit="2.613"/>
<path d="M42.5971 29.4352C42.5971 29.4352 42.5757 29.4068 42.5904 29.3947C42.5904 29.3947 42.5998 29.3812 42.6252 29.4136C42.6252 29.4136 42.7433 29.5456 42.6493 29.7486C42.6493 29.7486 42.6385 29.7776 42.6198 29.7681C42.6198 29.7681 42.6038 29.7601 42.6185 29.7358C42.6185 29.7358 42.7028 29.5687 42.5971 29.4352Z" fill="white"/>
<path d="M41.3311 30.2751C41.3311 30.2751 40.8953 30.1646 40.9754 29.7143C40.9754 29.7143 41.0182 29.5175 41.2027 29.5444C41.2027 29.5444 41.425 29.6012 41.2802 29.8874C41.2802 29.8874 41.1947 30.0917 41.3311 30.2751Z" fill="#64B4D1" stroke="#012169" stroke-width="0.0356494" stroke-miterlimit="2.613"/>
<path d="M41.1626 29.7372C41.1626 29.7372 41.1466 29.7156 41.1653 29.7062C41.1653 29.7062 41.184 29.6981 41.1974 29.7244C41.1974 29.7244 41.2428 29.7965 41.2044 29.8952C41.2044 29.8952 41.168 29.9637 41.1857 30.0352C41.1857 30.0352 41.1881 30.0554 41.172 30.0581C41.172 30.0581 41.1566 30.0527 41.1536 30.0379C41.1536 30.0379 41.1319 29.9681 41.1693 29.8999C41.1693 29.8998 41.2148 29.7939 41.1626 29.7372Z" fill="white"/>
<path d="M41.6439 29.4228C41.6439 29.4228 41.8899 29.2846 42.0931 29.4464C42.0931 29.4464 42.0724 29.3565 41.917 29.317C41.917 29.317 41.8329 29.0797 41.5976 29.1012C41.5976 29.1012 41.6938 29.2163 41.8222 29.3134C41.8222 29.3134 41.6867 29.3274 41.6439 29.4228Z" fill="black"/>
<path d="M41.8257 28.7729C41.8257 28.7729 41.9928 28.8964 42.0608 28.9791C42.0608 28.9791 42.1288 28.8946 42.2179 28.8433C42.2179 28.8433 42.1153 28.8298 42.0608 28.876C42.0608 28.876 41.9754 28.7933 41.8257 28.7729Z" fill="black"/>
<path d="M40.8561 29.3027C40.8561 29.3027 40.8383 29.2416 40.8811 29.1768C40.8811 29.1768 40.9096 29.1301 40.8989 29.069" stroke="black" stroke-width="0.0475345" stroke-miterlimit="10"/>
<path d="M42.6493 25.463C42.6493 25.463 42.9095 25.445 42.9523 25.2437" stroke="black" stroke-width="0.0475345" stroke-miterlimit="10"/>
<path d="M43.4087 25.1107C43.4087 25.1107 43.318 25.1071 43.236 25.1898C43.236 25.1898 43.1734 25.2833 43.0842 25.2724" stroke="black" stroke-width="0.0475345" stroke-miterlimit="10"/>
<path d="M42.2643 24.6972C42.2643 24.6972 42.3997 24.6972 42.4746 24.6325C42.4746 24.6325 42.5531 24.5786 42.5994 24.6648C42.5994 24.6648 42.6707 24.787 42.5388 24.841C42.5388 24.841 42.3748 24.9237 42.6351 25.0891C42.6351 25.0891 42.3249 24.9776 42.4497 24.8266C42.4497 24.8266 42.5851 24.7296 42.5352 24.6936C42.5352 24.6936 42.521 24.6648 42.4675 24.7008C42.414 24.7367 42.307 24.7224 42.2643 24.6972Z" fill="black"/>
<path d="M42.4485 21.4233C42.4485 21.4233 42.5097 21.3401 42.4847 21.0902C42.4597 20.8404 42.6766 20.8117 42.7601 20.8835C42.7601 20.8835 42.8463 20.9582 42.767 21.1166C42.7212 21.208 42.6481 21.3264 42.4485 21.4233Z" fill="#64B4D1" stroke="#012169" stroke-width="0.0356494" stroke-miterlimit="2.613"/>
<path d="M42.53 21.2368C42.53 21.2368 42.6113 21.1493 42.5725 20.9595C42.5725 20.9595 42.5723 20.9408 42.583 20.9396C42.583 20.9396 42.6028 20.9346 42.6061 20.9533C42.6061 20.9533 42.6497 21.1556 42.558 21.2656C42.558 21.2656 42.5412 21.2818 42.53 21.2656C42.53 21.2655 42.5177 21.2539 42.53 21.2368Z" fill="white"/>
<path d="M42.3792 21.3324C42.3792 21.3324 42.3728 21.2317 42.1988 21.0606C42.0247 20.8894 42.1678 20.7317 42.2744 20.733C42.2744 20.733 42.3849 20.7348 42.4246 20.903C42.4476 21.0003 42.467 21.1347 42.3792 21.3324Z" fill="#64B4D1" stroke="#012169" stroke-width="0.0356494" stroke-miterlimit="2.613"/>
<path d="M42.3521 21.1135C42.3521 21.1135 42.3552 20.9901 42.1976 20.8614C42.1976 20.8614 42.1848 20.8464 42.1921 20.8384C42.1921 20.8384 42.2038 20.8217 42.219 20.8346C42.219 20.8346 42.3888 20.9704 42.3929 21.1188C42.3929 21.1188 42.391 21.1427 42.3715 21.1368C42.3715 21.1367 42.3542 21.1353 42.3521 21.1135Z" fill="white"/>
<path d="M42.1428 21.2567C42.1428 21.2567 42.0973 21.1747 41.8823 21.0984C41.6674 21.0221 41.7254 20.8343 41.8159 20.7941C41.8159 20.7941 41.9098 20.7528 42.0103 20.8787C42.0684 20.9515 42.1382 21.0567 42.1428 21.2567Z" fill="#64B4D1" stroke="#012169" stroke-width="0.0356494" stroke-miterlimit="2.613"/>
<path d="M42.0487 21.1059C42.0487 21.1059 41.9998 20.9928 41.803 20.9432C41.803 20.9432 41.7851 20.9351 41.7884 20.9248C41.7884 20.9248 41.7919 20.9046 41.8111 20.9099C41.8111 20.9099 42.0219 20.9606 42.0878 21.0933C42.0878 21.0933 42.0961 21.1158 42.076 21.1188C42.076 21.1188 42.0597 21.1249 42.0487 21.1059Z" fill="white"/>
<path d="M42.2775 21.3389C42.2775 21.3389 42.1773 21.3671 41.9471 21.256C41.7169 21.1449 41.616 21.3382 41.6564 21.4416C41.6564 21.4416 41.6986 21.5486 41.8767 21.5299C41.9796 21.519 42.1174 21.4921 42.2775 21.3389Z" fill="#64B4D1" stroke="#012169" stroke-width="0.0356494" stroke-miterlimit="2.613"/>
<path d="M41.7422 21.4123C41.7422 21.4123 41.8466 21.4767 42.036 21.4034C42.036 21.4034 42.0553 21.3997 42.0584 21.4101C42.0584 21.4101 42.067 21.4287 42.0482 21.4355C42.0482 21.4355 41.8467 21.5158 41.7173 21.4452C41.7173 21.4452 41.6976 21.4316 41.7124 21.4176C41.7125 21.4176 41.7224 21.4031 41.7422 21.4123Z" fill="white"/>
<path d="M41.9407 20.6113C41.9407 20.6113 42.0557 20.6671 42.029 20.8019" stroke="black" stroke-width="0.0475345" stroke-miterlimit="2.613"/>
<path d="M42.4488 20.6302C42.4488 20.6302 42.4938 20.7726 42.4441 20.8493" stroke="black" stroke-width="0.0475345" stroke-miterlimit="10"/>
<path d="M34.5172 21.4233C34.5172 21.4233 34.456 21.3401 34.481 21.0902C34.506 20.8404 34.2891 20.8117 34.2057 20.8835C34.2057 20.8835 34.1195 20.9582 34.1988 21.1166C34.2445 21.208 34.3176 21.3264 34.5172 21.4233Z" fill="#64B4D1" stroke="#012169" stroke-width="0.0356494" stroke-miterlimit="2.613"/>
<path d="M34.4356 21.2368C34.4356 21.2368 34.3543 21.1493 34.3931 20.9595C34.3931 20.9595 34.3934 20.9408 34.3826 20.9396C34.3826 20.9396 34.3629 20.9346 34.3596 20.9533C34.3596 20.9533 34.3159 21.1556 34.4077 21.2656C34.4077 21.2656 34.4245 21.2818 34.4357 21.2656C34.4356 21.2655 34.448 21.2539 34.4356 21.2368Z" fill="white"/>
<path d="M34.5864 21.3324C34.5864 21.3324 34.5928 21.2317 34.7669 21.0606C34.941 20.8894 34.7978 20.7317 34.6912 20.733C34.6912 20.733 34.5808 20.7348 34.541 20.903C34.5181 21.0003 34.4986 21.1347 34.5864 21.3324Z" fill="#64B4D1" stroke="#012169" stroke-width="0.0356494" stroke-miterlimit="2.613"/>
<path d="M34.6136 21.1135C34.6136 21.1135 34.6105 20.9901 34.7681 20.8614C34.7681 20.8614 34.7809 20.8464 34.7736 20.8384C34.7736 20.8384 34.7619 20.8217 34.7467 20.8346C34.7467 20.8346 34.5769 20.9704 34.5728 21.1188C34.5728 21.1188 34.5747 21.1427 34.5942 21.1368C34.5942 21.1367 34.6114 21.1353 34.6136 21.1135Z" fill="white"/>
<path d="M34.8228 21.2567C34.8228 21.2567 34.8683 21.1747 35.0833 21.0984C35.2983 21.0221 35.2402 20.8343 35.1497 20.7941C35.1497 20.7941 35.0558 20.7528 34.9553 20.8787C34.8973 20.9515 34.8274 21.0567 34.8228 21.2567Z" fill="#64B4D1" stroke="#012169" stroke-width="0.0356494" stroke-miterlimit="2.613"/>
<path d="M34.917 21.1059C34.917 21.1059 34.9659 20.9928 35.1627 20.9432C35.1627 20.9432 35.1806 20.9351 35.1773 20.9248C35.1773 20.9248 35.1738 20.9046 35.1546 20.9099C35.1546 20.9099 34.9438 20.9606 34.8779 21.0933C34.8779 21.0933 34.8696 21.1158 34.8897 21.1188C34.8897 21.1188 34.906 21.1249 34.917 21.1059Z" fill="white"/>
<path d="M34.6881 21.3389C34.6881 21.3389 34.7884 21.3671 35.0186 21.256C35.2488 21.1449 35.3496 21.3382 35.3093 21.4416C35.3093 21.4416 35.2671 21.5486 35.0889 21.5299C34.986 21.519 34.8482 21.4921 34.6881 21.3389Z" fill="#64B4D1" stroke="#012169" stroke-width="0.0356494" stroke-miterlimit="2.613"/>
<path d="M35.2234 21.4123C35.2234 21.4123 35.1191 21.4767 34.9297 21.4034C34.9297 21.4034 34.9104 21.3997 34.9072 21.4101C34.9072 21.4101 34.8986 21.4287 34.9174 21.4355C34.9174 21.4355 35.1189 21.5158 35.2483 21.4452C35.2483 21.4452 35.268 21.4316 35.2532 21.4176C35.2531 21.4176 35.2433 21.4031 35.2234 21.4123Z" fill="white"/>
<path d="M35.0249 20.6113C35.0249 20.6113 34.91 20.6671 34.9367 20.8019" stroke="black" stroke-width="0.0475345" stroke-miterlimit="2.613"/>
<path d="M34.5169 20.6302C34.5169 20.6302 34.4719 20.7726 34.5216 20.8493" stroke="black" stroke-width="0.0475345" stroke-miterlimit="10"/>
<path d="M39.5076 19.3224C39.5076 19.3224 39.5804 19.5304 39.549 19.7188C39.5209 19.8873 39.5592 19.9309 39.6201 19.9643C39.6728 19.9931 39.7949 19.9426 39.8096 19.8105C39.8096 19.8105 39.954 20.0923 39.6733 20.2824C39.6733 20.2824 39.4714 20.4064 39.3003 20.2406C39.24 20.1822 39.2134 20.0208 39.2428 19.8712C39.2428 19.8712 39.287 19.6682 39.2134 19.46C39.2134 19.46 39.3283 19.5826 39.2989 19.8273C39.2989 19.8273 39.2401 20.2662 39.565 20.2446C39.565 20.2446 39.7895 20.2419 39.7962 19.9696C39.7962 19.9696 39.712 20.0666 39.6078 20.0343C39.5339 20.0114 39.466 19.9399 39.4781 19.8273C39.4907 19.7091 39.5236 19.5031 39.5076 19.3224Z" fill="black"/>
<path d="M39.1395 20.0433C39.1395 20.0433 39.1216 20.3902 38.8044 20.4747C38.8044 20.4747 38.8489 20.4118 38.7776 20.2392C38.7776 20.2392 38.7081 20.1386 38.7135 19.9822C38.7135 19.9822 38.6125 20.0612 38.7277 20.2698C38.7973 20.3956 38.7367 20.5466 38.7153 20.552C38.6938 20.5574 39.2393 20.4801 39.1395 20.0433Z" fill="black"/>
<path d="M38.7277 19.6982C38.7277 19.6982 38.6511 19.6119 38.6457 19.4123C38.6404 19.2128 38.6029 19.1643 38.5762 19.1409C38.5762 19.1409 38.6154 19.3135 38.6047 19.4195C38.594 19.5255 38.6118 19.5867 38.6261 19.637C38.6261 19.637 38.4531 19.6639 38.3444 19.4123C38.2405 19.1717 38.1358 19.1912 38.0842 19.1929C38.0842 19.1929 38.1444 19.1996 38.266 19.4194C38.3874 19.639 38.4211 19.6838 38.7277 19.6982Z" fill="black"/>
<path d="M37.9185 19.1768C37.9185 19.1768 38.0183 19.4159 38.0219 19.5417C38.0219 19.5417 37.7901 19.4644 37.7277 19.2631C37.7277 19.2631 37.48 19.3476 37.5709 19.6334C37.5709 19.6334 37.357 19.5579 37.2607 19.3835C37.2607 19.3835 37.3802 19.4734 37.4907 19.5129C37.4907 19.5129 37.4782 19.2829 37.7669 19.1966C37.7669 19.1966 37.8099 19.4027 37.9541 19.4518C37.9541 19.4519 37.9434 19.3224 37.9185 19.1768Z" fill="black"/>
<path d="M38.2999 18.767C38.2999 18.767 38.3802 18.8839 38.5442 18.8893C38.6225 18.8918 38.7069 18.8741 38.7884 18.767C38.7884 18.767 38.7777 18.9702 38.5442 18.9719C38.5442 18.9719 38.2999 18.9809 38.2999 18.767Z" fill="black"/>
<path d="M37.2897 20.1556C37.2897 20.1556 37.4113 20.2662 37.4367 20.3026C37.4367 20.3026 37.5223 20.3862 37.5958 20.2781C37.5958 20.2781 37.6894 20.1052 37.8044 20.1098C37.8044 20.1098 37.7228 20.1664 37.6312 20.3298C37.6312 20.3298 37.6065 20.3902 37.5383 20.3969C37.5064 20.4001 37.4661 20.4104 37.4051 20.3467C37.4051 20.3467 37.3525 20.2824 37.2897 20.1556Z" fill="black"/>
<path d="M38.5441 17.9527C38.2999 17.9526 38.5058 18.1414 38.5058 18.1414C38.5111 18.4407 38.271 18.5328 38.1074 18.4461C37.9439 18.3594 38.0718 18.1414 38.0718 18.1414C38.0718 18.1414 37.8873 18.2627 38.0049 18.438C38.1226 18.6133 38.4309 18.535 38.5441 18.3733C38.6573 18.535 38.9657 18.6133 39.0833 18.438C39.201 18.2627 39.0165 18.1414 39.0165 18.1414C39.0165 18.1414 39.1444 18.3594 38.9808 18.4461C38.8173 18.5328 38.5771 18.4407 38.5825 18.1414C38.5824 18.1415 38.7883 17.9526 38.5441 17.9527Z" fill="black"/>
<path d="M38.6921 17.6292C38.6921 17.6292 38.7776 17.7748 38.7589 17.9958C38.7589 17.9958 38.8364 17.7747 38.6921 17.6292Z" fill="black"/>
<path d="M37.9434 17.9715C37.9434 17.9715 37.9247 17.8125 37.7697 17.799C37.7697 17.799 37.9006 17.8934 37.9434 17.9715Z" fill="black"/>
<path d="M39.1466 17.9715C39.1466 17.9715 39.1653 17.8125 39.3204 17.799C39.3204 17.799 39.1894 17.8934 39.1466 17.9715Z" fill="black"/>
<path d="M37.6974 18.2142C37.6974 18.2142 37.8204 18.252 37.8953 18.1603C37.8953 18.1603 37.7535 18.198 37.6974 18.2142Z" fill="black"/>
<path d="M37.299 17.2381C37.299 17.2381 37.4421 17.2219 37.5851 17.435C37.5851 17.435 37.4434 17.5105 37.4086 17.5563C37.4086 17.5563 37.4086 17.4862 37.4782 17.4242C37.4781 17.4242 37.4514 17.3164 37.299 17.2381Z" fill="black"/>
<path d="M39.6947 17.2381C39.6947 17.2381 39.5517 17.2219 39.4086 17.435C39.4086 17.435 39.5504 17.5105 39.5851 17.5563C39.5851 17.5563 39.5851 17.4862 39.5156 17.4242C39.5156 17.4242 39.5423 17.3164 39.6947 17.2381Z" fill="black"/>
<path d="M38.5905 17.3971C38.5905 17.3971 38.7188 17.4323 38.8792 17.3433C38.8792 17.3433 39.0771 17.2381 39.2027 17.3433C39.2027 17.3433 39.0931 17.2945 38.8819 17.3971C38.8819 17.3971 38.6706 17.5129 38.5905 17.3971Z" fill="black"/>
<path d="M38.7242 17.5267C38.7242 17.5267 38.8338 17.3344 39.1681 17.3726C39.1681 17.3726 39.0771 17.6399 38.7242 17.5267Z" fill="white"/>
<path d="M38.9547 17.5508C38.9912 17.5508 39.0208 17.5133 39.0208 17.467C39.0208 17.4207 38.9912 17.3832 38.9547 17.3832C38.9182 17.3832 38.8886 17.4207 38.8886 17.467C38.8886 17.5133 38.9182 17.5508 38.9547 17.5508Z" fill="#784421"/>
<path d="M38.9547 17.5184C38.9764 17.5184 38.994 17.4954 38.994 17.467C38.994 17.4387 38.9764 17.4156 38.9547 17.4156C38.933 17.4156 38.9155 17.4387 38.9155 17.467C38.9155 17.4954 38.933 17.5184 38.9547 17.5184Z" fill="black"/>
<path d="M38.0076 17.1168C38.0076 17.1168 38.2188 17.1303 38.3471 17.2112C38.3471 17.2112 38.4835 17.2921 38.6386 17.1761C38.6386 17.1761 38.8072 17.0791 38.9154 16.9442C38.9154 16.9442 38.6573 17.1222 38.561 17.1492C38.561 17.1492 38.4728 17.0818 38.438 16.9847C38.438 16.9847 38.4514 16.9119 38.5904 16.7771C38.5904 16.7771 38.4033 16.8337 38.3658 16.9928C38.3658 16.9928 38.4006 17.0899 38.4728 17.1654C38.4728 17.1654 38.438 17.1816 38.3471 17.125C38.3471 17.1249 38.1493 17.0575 38.0076 17.1168Z" fill="black"/>
<path d="M38.5442 18.3854C38.3614 18.5432 38.5442 18.527 38.5442 18.527C38.5442 18.527 38.7269 18.5432 38.5442 18.3854Z" fill="black"/>
<path d="M38.4384 17.3971C38.4384 17.3971 38.31 17.4323 38.1496 17.3433C38.1496 17.3433 37.9517 17.2381 37.826 17.3433C37.826 17.3433 37.9357 17.2945 38.1469 17.3971C38.147 17.3971 38.3582 17.5129 38.4384 17.3971Z" fill="black"/>
<path d="M38.3047 17.5267C38.3047 17.5267 38.1951 17.3344 37.8608 17.3726C37.8608 17.3726 37.9518 17.6399 38.3047 17.5267Z" fill="white"/>
<path d="M38.0741 17.5508C38.1107 17.5508 38.1402 17.5133 38.1402 17.467C38.1402 17.4207 38.1107 17.3832 38.0741 17.3832C38.0376 17.3832 38.0081 17.4207 38.0081 17.467C38.0081 17.5133 38.0376 17.5508 38.0741 17.5508Z" fill="#784421"/>
<path d="M38.0742 17.5184C38.0958 17.5184 38.1134 17.4954 38.1134 17.467C38.1134 17.4387 38.0958 17.4156 38.0742 17.4156C38.0525 17.4156 38.0349 17.4387 38.0349 17.467C38.0349 17.4954 38.0525 17.5184 38.0742 17.5184Z" fill="black"/>
<path d="M45 15.7971V27.9131C45 31.1494 38.5303 32.2009 38.5303 32.2009C38.5303 32.2009 32.0607 31.1494 32.0607 27.9131V15.7971H45Z" stroke="black" stroke-width="0.114444"/>
<mask id="mask1_1_36639" style="mask-type:alpha" maskUnits="userSpaceOnUse" x="3" y="6" width="24" height="18">
<rect x="3" y="6" width="24" height="18" fill="#C4C4C4"/>
</mask>
<g mask="url(#mask1_1_36639)">
<rect x="3" y="6" width="24" height="18" fill="#2E50A6"/>
<path d="M3 6L27 24L3 6ZM27 6L3 24L27 6Z" fill="black"/>
<path d="M27 6L3 24M3 6L27 24L3 6Z" stroke="white" stroke-width="2.4"/>
<path d="M3 6L27 24L3 6ZM27 6L3 24L27 6Z" fill="black"/>
<path d="M27 6L3 24M3 6L27 24L3 6Z" stroke="#EE5757" stroke-width="1.6"/>
<path d="M15 6V27V6ZM3 15H31H3Z" fill="black"/>
<path d="M3 15H31M15 6V27V6Z" stroke="white" stroke-width="4"/>
<path d="M15 6V27V6ZM3 15H31H3Z" fill="black"/>
<path d="M3 15H31M15 6V27V6Z" stroke="#EE5757" stroke-width="2.4"/>
</g>
</g>
</svg>
