<svg width="54" height="54" viewBox="0 0 54 54" fill="none" xmlns="http://www.w3.org/2000/svg">
<mask id="mask0_1_36639" style="mask-type:alpha" maskUnits="userSpaceOnUse" x="3" y="9" width="48" height="36">
<path d="M3.56934 18.1356C4.16681 13.4125 8.0415 10.0019 12.7861 9.60887C16.6412 9.28949 21.6196 9 27 9C32.3804 9 37.3588 9.28949 41.2139 9.60887C45.9585 10.0019 49.8332 13.4125 50.4307 18.1356C50.752 20.6759 51 23.704 51 27C51 30.296 50.752 33.3241 50.4307 35.8644C49.8332 40.5875 45.9585 43.9981 41.2139 44.3911C37.3588 44.7105 32.3804 45 27 45C21.6196 45 16.6412 44.7105 12.7861 44.3911C8.04151 43.9981 4.16681 40.5875 3.56934 35.8644C3.248 33.3241 3 30.296 3 27C3 23.704 3.248 20.6759 3.56934 18.1356Z" fill="#00D0BF"/>
</mask>
<g mask="url(#mask0_1_36639)">
<rect x="3" y="9" width="48" height="36" fill="#EE5757"/>
<path d="M44.9793 18.7971V30.9131C44.9793 34.1494 38.5096 35.2009 38.5096 35.2009C38.5096 35.2009 32.04 34.1494 32.04 30.9131V18.7971H44.9793Z" fill="white"/>
<path d="M44.9793 30.9131C44.9793 34.1494 38.5096 35.2009 38.5096 35.2009C38.5096 35.2009 32.04 34.1494 32.04 30.9131C32.04 30.9131 32.04 30.6525 32.1716 30.5042C32.1716 30.5042 32.1003 31.0425 32.5139 31.4497C32.5139 31.4497 32.1895 30.8753 32.5067 30.3109C32.5067 30.3109 32.3891 31.0371 32.8418 31.4541C32.8418 31.4541 32.5923 30.8609 32.8739 30.1994C32.8739 30.1994 32.7349 31.2816 33.2269 31.4973C33.2269 31.4973 33.3623 30.8753 33.1663 30.4763C33.1663 30.4763 33.505 30.6129 33.4871 31.5152C33.4871 31.5152 33.5941 31.3822 33.6226 30.7315C33.6226 30.7315 33.6368 31.4756 33.8935 31.6482C33.8935 31.6482 33.972 31.5728 33.865 31.2348C33.7581 30.8968 33.9114 30.7782 33.9363 30.7854C33.9363 30.7854 33.8801 31.1593 34.1934 31.4397C34.1934 31.4397 34.0576 30.8537 34.2465 30.7746C34.2465 30.7746 34.2073 31.2707 34.5995 31.3822C34.5995 31.3822 34.628 31.2384 34.5424 31.0766C34.5424 31.0766 34.4676 30.8848 34.5246 30.738C34.5246 30.738 34.6494 31.1881 34.8205 31.2636C34.8205 31.2636 34.7171 30.9998 34.8133 30.738C34.8133 30.738 34.8347 31.1126 35.1698 31.2671C35.1698 31.2671 34.949 30.9772 35.0362 30.6583L37.1912 30.7638L38.3071 30.817L41.6547 30.5805L42.2322 30.0844C42.2322 30.0844 42.4604 30.4007 42.1003 30.9005C42.1003 30.9005 42.4568 30.8357 42.5709 30.2785C42.5709 30.2785 42.7171 30.5877 42.5174 30.9292C42.5174 30.9292 42.9132 30.5338 42.9702 30.0844C42.9702 30.0844 43.1235 30.5194 42.7491 30.9867C42.7491 30.9867 43.0842 30.8753 43.2269 30.3792C43.2269 30.3792 43.341 30.678 43.0165 31.1002C43.0165 31.1002 43.6225 30.7782 43.6048 30.1131C43.6048 30.1131 43.8578 30.4798 43.5691 30.9831C43.5691 30.9831 43.8792 30.7063 43.9078 30.2929C43.9078 30.2929 44.079 30.4798 43.8936 30.9939C43.8936 30.9939 44.2714 30.638 44.3285 30.2533C44.3285 30.2533 44.4105 30.6092 44.086 31.0586C44.086 31.0586 44.3071 31.0047 44.5174 30.566C44.5174 30.566 44.5745 30.7386 44.382 31.055C44.382 31.055 44.5888 31.0191 44.7278 30.6236C44.7278 30.6236 44.7527 30.8609 44.6921 31.073C44.6921 31.073 44.8526 30.9688 44.8882 30.5194C44.8882 30.5194 44.9779 30.6668 44.9794 30.8501C44.9808 31.0335 44.9793 30.9131 44.9793 30.9131V30.9131Z" fill="#2F8F22"/>
<path d="M41.6477 23.909C41.6477 23.909 41.4229 23.9472 41.1342 23.8592C40.8454 23.7713 40.7287 23.807 40.6391 23.8592C40.6391 23.8592 40.7563 23.6272 40.4711 23.444C40.4711 23.444 40.5638 23.6782 40.4354 23.7876C40.4354 23.7876 40.3784 23.8413 40.3106 23.7605C40.3106 23.7605 40.2108 23.658 40.1057 23.5789C40.1057 23.5789 40.3481 23.4944 40.3035 23.2482C40.259 23.0019 40.1271 22.9695 40.0558 22.939C40.0558 22.939 40.0807 23.0504 40.0558 23.1259C40.0558 23.1259 39.792 22.9785 40.1502 22.77C40.5085 22.5615 40.4426 22.4393 40.3784 22.3332C40.3142 22.2271 40.177 22.1103 40.1092 22.0689C40.1092 22.0689 40.1805 22.1804 40.168 22.2757C40.1556 22.3709 39.9933 22.4321 40.0254 22.2649C40.0575 22.0977 40.0237 22.1265 40.0201 21.9485C40.0201 21.9485 40.3391 22.0564 40.4639 21.7454C40.4639 21.7454 40.5869 21.4236 40.1841 21.2636C40.1841 21.2636 40.2821 21.3948 40.234 21.4937C40.234 21.4937 40.1484 21.6555 40.0468 21.5243C39.9452 21.3931 39.881 21.3679 39.8917 21.2133C39.8917 21.2133 40.2571 21.2636 40.1573 20.8663C40.1573 20.8663 40.0985 21.1306 39.6244 20.7747C39.6244 20.7747 39.9327 20.4583 39.8133 20.203C39.8133 20.203 39.7759 20.0862 39.4407 20.1545C39.4407 20.1545 39.7313 19.9712 39.6083 19.8148C39.6083 19.8148 39.5459 19.7105 39.275 19.8471C39.275 19.8471 39.3801 19.6655 39.1145 19.4696C39.1145 19.4696 38.9363 19.5631 38.8418 19.6493C38.8418 19.6493 38.66 19.4192 38.5441 19.3276C38.5441 19.3276 38.3338 19.4085 38.2803 19.6493C38.2803 19.6493 38.1823 19.5325 37.9595 19.4786C37.9595 19.4786 37.8525 19.6763 37.9916 19.8489C37.9916 19.8489 37.8882 19.8453 37.6992 19.7626C37.6992 19.7626 37.4836 19.6601 37.5156 19.8453C37.5477 20.0304 37.5637 20.0718 37.6065 20.158C37.6065 20.158 37.1226 20.0457 37.1431 20.3072C37.1573 20.4888 37.2251 20.6452 37.3749 20.7764C37.3749 20.7764 37.1039 21.1305 36.8722 20.8644C36.8722 20.8644 36.7919 20.9507 36.9649 21.1772C36.9649 21.1772 37.1378 21.3678 36.9952 21.4882C36.9952 21.4882 36.8045 21.641 36.7118 21.3444C36.7118 21.3444 36.4034 21.6518 36.767 21.8873C36.767 21.8873 37.0006 22.0203 37.2394 21.8154C37.2394 21.8154 37.1663 22.405 36.9381 22.2917C36.9381 22.2917 36.8009 22.1911 37.0469 22.0706C37.0469 22.0706 36.6921 22.0257 36.6351 22.369C36.6351 22.369 36.5913 22.6422 36.9007 22.7412C36.9007 22.7412 37.1395 22.8275 36.8917 23.0126C36.8917 23.0126 36.717 23.1457 36.8311 23.3434C36.8311 23.3434 36.9684 23.5609 36.6208 23.5824C36.6208 23.5824 36.4318 23.5807 36.3641 23.5555C36.3641 23.5555 36.2879 23.6972 36.3411 23.8592C36.3411 23.8592 36.168 23.7302 35.7741 23.8729C35.3801 24.0157 35.4104 23.915 35.3783 23.9582C35.3462 24.0013 35.2696 24.1469 35.2696 24.1469C35.2696 24.1469 35.4764 24.3985 35.4799 24.3932C35.4835 24.3878 35.4407 24.6808 35.4407 24.6808L35.5424 24.7293L36.3534 24.368L37.177 23.9388L37.8391 23.9794L38.259 24.0794L38.8106 24.1195L39.2056 23.9088H39.7777L40.4071 24.2224L41.1253 24.651L41.4997 24.7166L41.7881 24.7012V24.1195L41.6477 23.909Z" fill="#C8102E" stroke="black" stroke-width="0.0475516" stroke-linejoin="round"/>
<path d="M35.115 24.5892C35.115 24.5892 35.4287 24.7492 35.5597 24.5551C35.5597 24.5551 35.7308 24.2288 35.3551 24.1155C35.3551 24.1155 35.5597 23.8702 35.3404 23.6437C35.3404 23.6437 35.2255 23.5224 35.0249 23.6114C35.0249 23.6114 34.942 23.4388 34.7468 23.4442C34.7468 23.4442 34.5757 23.4415 34.5169 23.6302C34.5169 23.6302 34.2816 23.5331 34.1505 23.6733C34.1505 23.6733 33.934 23.916 34.2361 24.1075L34.4535 24.1273L34.6674 24.0284L34.9063 24.0967C34.9065 24.0967 34.8449 24.3385 35.115 24.5892V24.5892Z" fill="#C8102E" stroke="black" stroke-width="0.0475516" stroke-linejoin="round"/>
<path d="M42.1181 24.0155C42.496 23.9799 42.6295 24.2988 42.6295 24.2988C42.8276 24.7636 42.4069 25.0117 42.4069 25.0117C42.439 25.116 42.4425 25.2526 42.4425 25.2526C43.0343 25.3245 42.9309 25.9896 42.9309 25.9896L42.7349 25.8278C42.3926 25.6948 42.0397 25.986 41.7866 26.4749C41.5335 26.9639 41.6547 27.194 41.6975 27.7728C41.7403 28.3516 42.6814 28.6968 42.6814 28.6968C42.6814 28.6968 42.2357 29.8436 41.947 30.5806C41.6583 31.3176 41.0557 31.012 40.8811 30.8568C40.7064 30.7015 40.6627 30.7878 40.5745 30.8568C40.4862 30.9258 40.9702 31.3032 40.0896 31.6591C39.209 32.0151 39.0557 32.2883 38.9096 32.3782C38.7634 32.4681 38.1538 32.407 38.0932 32.3315C38.0326 32.256 38.0683 32.256 37.8401 32.1157C37.612 31.9755 37.2269 31.8533 36.8062 31.6483C36.3855 31.4434 36.3962 31.1809 36.3998 31.127C36.4034 31.0731 36.546 30.6345 36.0533 30.9832C35.5606 31.332 35.1413 30.8172 35.1413 30.8172C35.0451 30.6907 34.6351 29.5919 34.6351 29.5919C34.5246 29.1821 34.3071 28.7039 34.3071 28.7039C34.3178 28.7003 34.2857 28.7543 34.6493 28.5457C35.013 28.3372 35.1758 27.9903 35.3017 27.647C35.4276 27.3036 35.3053 26.7158 35.2589 26.5972C35.2126 26.4785 34.9416 25.9346 34.6061 25.8206C34.2706 25.7066 34.0456 25.9896 34.0456 25.9896C34.0456 25.9896 33.9421 25.3245 34.534 25.2526C34.534 25.2526 34.5375 25.116 34.5696 25.0117C34.5696 25.0117 34.1489 24.7636 34.347 24.2988C34.347 24.2988 34.4805 23.9799 34.8584 24.0155L34.767 24.1884C34.767 24.1884 34.6718 25.1375 36.0611 24.5012C37.4504 23.8648 37.4087 23.7462 38.2002 24.1452L38.7777 24.1345C38.7777 24.1345 39.6119 23.7486 39.8793 23.9146C40.1467 24.0806 41.1092 24.6198 41.1092 24.6198C41.1092 24.6198 42.0397 24.9688 42.2215 24.3252L42.1181 24.0155Z" fill="#64B4D1" stroke="black" stroke-width="0.0356494"/>
<path d="M37.938 28.1304C37.938 28.1304 37.8897 27.8391 37.839 27.6505C37.839 27.6505 37.7359 27.3544 37.9118 27.1466L38.1299 26.8955C38.1299 26.8955 38.2655 26.7132 38.4333 26.6884C38.4333 26.6884 38.6011 26.6834 38.6171 26.6492C38.6332 26.6151 38.8168 26.3129 39.2535 26.6492C39.2535 26.6492 39.3926 26.4264 39.6065 26.3886C39.6065 26.3886 39.8375 26.3185 39.9493 26.4911C39.9493 26.4911 40.209 26.2942 40.4318 26.6111C40.4318 26.6111 40.7401 26.4376 40.9647 26.7825C40.9647 26.7825 41.2696 26.6338 41.4567 26.9507C41.6439 27.2676 41.6065 27.3971 41.6065 27.3971L41.7454 27.9004L42.2375 28.508L41.0932 28.9394H40.5798L39.5531 29.2144L37.7296 29.3546L37.2216 28.756L37.938 28.1304Z" fill="white" stroke="#012169" stroke-width="0.0475345" stroke-miterlimit="10"/>
<path d="M36.3967 31.1612C36.3967 31.1612 36.124 31.1774 35.9849 31.2475C35.8459 31.3176 35.7389 31.3931 35.5785 31.4955C35.5785 31.4955 35.5037 31.5953 35.1882 31.5346C35.1882 31.5346 34.6427 31.4039 34.6427 31.8299C34.6427 31.8299 33.9903 31.8838 34.2577 32.4554C34.2577 32.4554 34.4395 32.903 34.8138 32.5849C34.8138 32.5849 34.5732 32.93 35.0384 33.0649C35.0384 33.0649 35.37 33.1458 35.4662 32.806C35.4662 32.806 35.5197 32.6712 35.3914 32.504C35.3914 32.504 35.5518 32.4716 35.6641 32.2991C35.6641 32.2991 35.3218 32.7316 35.6962 32.8874C35.6962 32.8874 36.1666 33.0055 36.1935 32.5147C36.1935 32.5147 36.1551 32.2882 36.3374 32.2073C36.3374 32.2073 36.7122 32.121 36.8833 31.7031C36.8834 31.7031 36.3444 31.4161 36.3967 31.1612V31.1612Z" fill="#C8102E" stroke="black" stroke-width="0.0475516" stroke-linejoin="round"/>
<path d="M35.2953 26.8599C35.2953 26.8599 34.8746 26.6662 34.675 26.8599C34.675 26.8599 34.3969 26.6877 34.1046 26.8599C34.1046 26.8599 33.8265 27.0417 33.634 27.2418C33.634 27.2418 33.4986 27.3578 33.5485 27.7235C33.5485 27.7235 33.6198 27.9812 33.577 28.1107C33.577 28.1107 33.4843 28.0923 33.2989 28.312C33.2989 28.312 33.0636 28.5845 32.8568 28.344C32.8568 28.344 32.921 28.6787 33.3096 28.6248C33.3096 28.6248 33.1206 28.7722 33.2846 29.1533C33.2846 29.1533 33.4058 29.4229 33.2133 29.7609C33.2133 29.7609 33.552 29.6243 33.5377 29.2252C33.5377 29.2252 33.5092 28.9556 33.609 28.765C33.609 28.765 33.5092 28.9383 33.7409 29.3079C33.7409 29.3079 33.9191 29.5739 33.773 29.8507C33.773 29.8507 34.1081 29.7285 34.076 29.3222C34.044 28.916 33.8407 29.0849 33.9726 28.7111C33.9726 28.7111 34.0047 28.9026 34.1045 28.9992C34.2043 29.0958 34.3327 29.2575 34.2792 29.5272C34.2792 29.5272 34.4789 29.2791 34.4325 29.0238C34.3862 28.7686 34.3363 28.6914 34.3363 28.6914L34.9673 28.3336L35.281 27.7655L35.2953 26.8599Z" fill="#C8102E" stroke="black" stroke-width="0.0475516" stroke-linejoin="round"/>
<path d="M34.3364 28.463C34.3364 28.463 34.0761 28.445 34.0333 28.2437" stroke="black" stroke-width="0.0475345" stroke-miterlimit="10"/>
<path d="M33.577 28.1107C33.577 28.1107 33.6677 28.1071 33.7497 28.1898C33.7497 28.1898 33.8123 28.2833 33.9014 28.2724" stroke="black" stroke-width="0.0475345" stroke-miterlimit="10"/>
<path d="M34.7213 27.6972C34.7213 27.6972 34.5859 27.6972 34.511 27.6325C34.511 27.6325 34.4325 27.5786 34.3862 27.6648C34.3862 27.6648 34.3149 27.787 34.4468 27.841C34.4468 27.841 34.6108 27.9237 34.3505 28.0891C34.3505 28.0891 34.6607 27.9776 34.5359 27.8266C34.5359 27.8266 34.4005 27.7296 34.4504 27.6936C34.4504 27.6936 34.4646 27.6648 34.5181 27.7008C34.5716 27.7367 34.6786 27.7224 34.7213 27.6972V27.6972Z" fill="black"/>
<path d="M38.9736 28.3841L37.9312 24.7841L37.893 24.7943L38.8142 28.438L38.9736 28.3841Z" fill="#784421" stroke="black" stroke-width="0.0356494"/>
<path d="M35.3432 32.4228C35.3432 32.4228 35.0972 32.2846 34.894 32.4464C34.894 32.4464 34.9148 32.3565 35.0702 32.317C35.0702 32.317 35.1543 32.0797 35.3896 32.1012C35.3896 32.1012 35.2933 32.2163 35.165 32.3134C35.165 32.3134 35.3005 32.3274 35.3432 32.4228Z" fill="black"/>
<path d="M34.4769 32.9947C34.4769 32.9947 34.0866 32.7493 34.2978 32.3368C34.2978 32.3368 34.3593 32.2181 34.4769 32.2424C34.4769 32.2424 34.7202 32.3179 34.5304 32.655C34.5304 32.655 34.4341 32.8734 34.4769 32.9947Z" fill="#64B4D1" stroke="#012169" stroke-width="0.0356494" stroke-miterlimit="2.613"/>
<path d="M35.2684 33.383C35.2684 33.383 34.7122 33.1295 34.8833 32.6981C34.8833 32.6981 34.9362 32.5524 35.0595 32.5633C35.0595 32.5633 35.274 32.574 35.2311 32.8598C35.2311 32.8598 35.1668 33.1403 35.2684 33.383Z" fill="#64B4D1" stroke="#012169" stroke-width="0.0356494" stroke-miterlimit="2.613"/>
<path d="M35.1507 31.7729C35.1507 31.7729 34.9837 31.8964 34.9157 31.9791C34.9157 31.9791 34.8477 31.8946 34.7586 31.8433C34.7586 31.8433 34.8612 31.8298 34.9157 31.876C34.9157 31.876 35.001 31.7933 35.1507 31.7729Z" fill="black"/>
<path d="M35.6454 33.2751C35.6454 33.2751 36.0812 33.1646 36.001 32.7143C36.001 32.7143 35.9582 32.5175 35.7737 32.5444C35.7737 32.5444 35.5514 32.6012 35.6962 32.8874C35.6962 32.8874 35.7817 33.0918 35.6454 33.2751V33.2751Z" fill="#64B4D1" stroke="#012169" stroke-width="0.0356494" stroke-miterlimit="2.613"/>
<path d="M37.6145 23.7489C37.6145 23.7489 37.8952 23.835 38.0477 23.8971C38.0477 23.8971 38.4541 24.0804 38.9702 23.8971C38.9702 23.8971 39.3191 23.7589 39.3657 23.7489L39.0984 24.156L39.0851 24.3663L39.2523 24.6116C39.2523 24.6116 39.1519 24.6521 38.8524 24.4687C38.8524 24.4687 38.5209 24.2126 38.1252 24.4687C38.1252 24.4687 37.9086 24.6154 37.7268 24.6116L37.9835 24.325L37.8845 24.0669L37.6145 23.7489Z" fill="#F5CE00" stroke="black" stroke-width="0.0475345" stroke-miterlimit="2.613"/>
<path d="M35.8138 32.7372C35.8138 32.7372 35.8298 32.7156 35.8111 32.7062C35.8111 32.7062 35.7924 32.6981 35.779 32.7244C35.779 32.7244 35.7336 32.7965 35.772 32.8952C35.772 32.8952 35.8084 32.9637 35.7908 33.0352C35.7908 33.0352 35.7883 33.0554 35.8044 33.0581C35.8044 33.0581 35.8198 33.0527 35.8228 33.0379C35.8228 33.0379 35.8445 32.9681 35.8071 32.8999C35.8072 32.8998 35.7617 32.7939 35.8138 32.7372Z" fill="white"/>
<path d="M41.8507 24.5892C41.8507 24.5892 41.5369 24.7492 41.4059 24.5551C41.4059 24.5551 41.2348 24.2288 41.6105 24.1155C41.6105 24.1155 41.4059 23.8702 41.6252 23.6437C41.6252 23.6437 41.7402 23.5224 41.9407 23.6114C41.9407 23.6114 42.0237 23.4388 42.2188 23.4442C42.2188 23.4442 42.3899 23.4415 42.4488 23.6302C42.4488 23.6302 42.6841 23.5331 42.815 23.6733C42.815 23.6733 43.0316 23.916 42.7295 24.1075L42.512 24.1273L42.2982 24.0284L42.0593 24.0967C42.0592 24.0967 42.1207 24.3385 41.8507 24.5892V24.5892Z" fill="#C8102E" stroke="black" stroke-width="0.0475516" stroke-linejoin="round"/>
<path d="M39.3658 24.3358C39.3658 24.3358 39.3579 24.4005 39.2937 24.4077C39.2937 24.4077 39.2268 24.4293 39.1878 24.3459C39.1878 24.3459 39.1832 24.327 39.1822 24.3178C39.1777 24.2788 39.1644 24.1668 39.2856 24.0751C39.2856 24.0751 39.4835 23.9134 39.8614 24.1093C39.8614 24.1093 40.1608 24.2531 40.3676 24.3753C40.3676 24.3753 40.9024 24.6629 40.9666 24.6845C40.9666 24.6845 41.2019 24.8031 41.5619 24.8175C41.5619 24.8175 42.0539 24.8535 42.2624 24.5084C42.2624 24.5084 42.421 24.2459 42.2624 24.0787C42.2624 24.0787 42.1983 24.0033 42.0928 24.0172C42.0485 24.023 41.9995 24.0434 41.9523 24.0985C41.9523 24.0985 41.8757 24.21 41.9647 24.2927C41.9647 24.2927 42.0806 24.3637 42.1216 24.2136C42.1216 24.2136 42.1234 24.2029 42.1269 24.2163C42.1292 24.225 42.1554 24.3394 42.094 24.4365C42.094 24.4365 41.7971 24.8856 40.9808 24.4202L39.9041 23.8163C39.9041 23.8163 39.364 23.5395 39.0414 23.9727C39.0414 23.9727 38.7811 24.3322 39.1162 24.5677C39.1162 24.5677 39.3658 24.7169 39.5226 24.4796C39.5226 24.4796 39.6527 24.2459 39.4478 24.1435C39.4478 24.1435 39.2678 24.0591 39.1965 24.2388C39.1252 24.4185 39.3355 24.4653 39.3551 24.3377C39.3551 24.3376 39.3605 24.307 39.3658 24.3358V24.3358Z" fill="#F5CE00" stroke="black" stroke-width="0.0475345" stroke-miterlimit="2.613"/>
<path d="M35.0981 26.189C35.0981 26.189 35.0981 25.6282 35.0981 25.5149C35.0981 25.462 35.0985 25.4179 35.1786 25.3532C35.2588 25.2885 35.3444 25.186 35.4674 25.4772C35.4674 25.4772 35.708 25.2238 35.7882 25.186C35.7882 25.186 35.9273 25.0674 36.0235 25.2399C36.0235 25.2399 36.1519 25.0458 36.2534 24.9973C36.2534 24.9973 36.4941 24.8409 36.5048 25.31L36.6919 25.1374C36.6919 25.1374 36.8363 25.0188 36.9968 25.1806C36.9968 25.1806 37.2695 25.4448 37.3069 25.5203C37.3069 25.5203 37.3671 25.6021 37.3717 25.7311C37.3717 25.7311 37.3711 25.8762 37.4459 25.9571C37.4459 25.9571 37.5314 26.0326 37.6143 26.0488C37.6143 26.0488 37.8095 26.0541 37.879 26.2375C37.879 26.2375 37.9111 26.2057 38.0074 27.0844V28.6858L36.9271 29.9747L35.1945 29.4785L34.5047 29.1927L34.3496 28.6858L35.0181 28.2544L35.3817 27.2729L35.2641 26.5826L35.0981 26.189Z" fill="#E4CB5E" stroke="black" stroke-width="0.0356494" stroke-miterlimit="2.613"/>
<path d="M39.8721 27.0393L39.9541 26.9171L40.1502 26.7661C40.1502 26.7661 40.4496 27.5519 40.4639 27.7234V27.9673C40.4639 27.9673 40.9131 28.0819 40.9916 28.7722L40.6208 29.4553L40.0397 29.1317L39.8722 29.0094V27.0393H39.8721Z" fill="#784421" stroke="black" stroke-width="0.0356494"/>
<path d="M34.3686 32.4352C34.3686 32.4352 34.39 32.4069 34.3753 32.3948C34.3753 32.3948 34.3659 32.3813 34.3406 32.4136C34.3406 32.4136 34.2225 32.5457 34.3165 32.7487C34.3165 32.7487 34.3272 32.7776 34.3459 32.7682C34.3459 32.7682 34.3619 32.7601 34.3472 32.7359C34.3473 32.7359 34.263 32.5687 34.3686 32.4352Z" fill="white"/>
<path d="M36.1204 32.3027C36.1204 32.3027 36.1382 32.2416 36.0955 32.1768C36.0955 32.1768 36.067 32.1301 36.0776 32.069" stroke="black" stroke-width="0.0475345" stroke-miterlimit="10"/>
<path d="M36.5049 25.3101C36.5049 25.3101 36.5065 25.4786 36.5547 25.6027C36.6028 25.7268 36.7653 25.9413 36.776 26.0572" stroke="black" stroke-width="0.0356494" stroke-miterlimit="10"/>
<path d="M40.5798 31.1612C40.5798 31.1612 40.8525 31.1774 40.9915 31.2475C41.1306 31.3176 41.2375 31.3931 41.3979 31.4955C41.3979 31.4955 41.4728 31.5953 41.7883 31.5346C41.7883 31.5346 42.3337 31.4039 42.3337 31.8299C42.3337 31.8299 42.9861 31.8838 42.7188 32.4554C42.7188 32.4554 42.537 32.903 42.1626 32.5849C42.1626 32.5849 42.4033 32.93 41.938 33.0649C41.938 33.0649 41.6065 33.1458 41.5102 32.806C41.5102 32.806 41.4567 32.6712 41.5851 32.504C41.5851 32.504 41.4246 32.4716 41.3124 32.2991C41.3124 32.2991 41.6546 32.7316 41.2803 32.8874C41.2803 32.8874 40.8098 33.0055 40.783 32.5147C40.783 32.5147 40.8214 32.2882 40.6391 32.2073C40.6391 32.2073 40.2642 32.121 40.0931 31.7031C40.0931 31.7031 40.6321 31.4161 40.5798 31.1612V31.1612Z" fill="#C8102E" stroke="black" stroke-width="0.0475516" stroke-linejoin="round"/>
<path d="M36.2898 26.0569L36.7349 29.6493" stroke="black" stroke-width="0.0356494" stroke-miterlimit="10"/>
<path d="M36.3926 26.0491L36.8918 29.3977" stroke="black" stroke-width="0.0356494" stroke-miterlimit="10"/>
<path d="M36.4862 26.0336L37.0611 29.3546" stroke="black" stroke-width="0.0356494" stroke-miterlimit="10"/>
<path d="M37.5549 29.0148L36.5123 25.4148L36.4742 25.425L37.3954 29.0688L37.5549 29.0148Z" fill="#784421" stroke="black" stroke-width="0.0356494"/>
<path d="M36.8051 25.9017L37.8579 28.5619" stroke="black" stroke-width="0.0356494" stroke-miterlimit="10"/>
<path d="M36.7349 25.9448L37.7509 28.7236" stroke="black" stroke-width="0.0356494" stroke-miterlimit="10"/>
<path d="M35.067 33.1277C35.067 33.1277 34.9448 33.0106 34.9618 32.8006C34.9618 32.8006 34.9689 32.7557 34.9465 32.7494C34.9465 32.7494 34.9226 32.7395 34.9191 32.7916C34.9191 32.7916 34.8852 33.0109 35.0332 33.1367C35.0332 33.1367 35.0432 33.1493 35.0596 33.1457C35.0595 33.1457 35.077 33.1418 35.067 33.1277Z" fill="white"/>
<path d="M36.8526 25.8656L37.938 28.2922" stroke="black" stroke-width="0.0356494" stroke-miterlimit="10"/>
<path d="M36.5557 26.0164L37.2215 29.2845" stroke="black" stroke-width="0.0356494" stroke-miterlimit="10"/>
<path d="M42.0018 28.438C41.5263 28.1682 41.422 27.5696 41.422 27.5696C41.3071 26.9737 41.5397 26.5018 41.5397 26.5018C41.8472 25.852 42.3741 25.7311 42.3741 25.7311C42.3741 25.7311 41.8579 26.0892 41.7135 26.5719C41.7135 26.5719 41.6012 26.979 41.6654 27.3808C41.7296 27.7826 41.7055 27.6801 41.8045 27.9902L42.0018 28.438Z" fill="#F5CE00" stroke="black" stroke-width="0.0475345" stroke-miterlimit="2.613"/>
<path d="M39.9541 26.9171L37.9561 27.5479L37.8471 28.438C37.373 29.1248 36.4095 29.2467 36.4095 29.2467L37.1591 30.0448L38.5994 30.3468L39.3552 29.7644L40.0397 29.1317C39.9684 28.7937 40.0076 28.2922 40.0076 28.2922C40.0076 28.2078 40.0397 28.01 40.0397 28.01C40.0397 28.01 39.922 27.1975 39.9541 26.9171V26.9171Z" fill="#784421" stroke="black" stroke-width="0.0217673"/>
<path d="M37.8745 28.2144C37.8745 28.2144 39.1904 27.8035 39.9751 27.4735" stroke="black" stroke-width="0.0356494" stroke-miterlimit="10"/>
<path d="M37.2429 28.9645C37.2429 28.9645 38.8846 28.6679 40.0396 28.01L40.4639 27.7234" stroke="black" stroke-width="0.0356494" stroke-miterlimit="10"/>
<path d="M40.4639 27.9673L40.0075 28.2923C40.0075 28.2923 38.1715 29.1389 36.7736 29.1615" stroke="black" stroke-width="0.0356494" stroke-miterlimit="10"/>
<path d="M40.0072 28.8939C40.0072 28.8939 38.5958 29.6206 37.7865 29.6315" stroke="black" stroke-width="0.0356494" stroke-miterlimit="10"/>
<path d="M41.6903 26.8599C41.6903 26.8599 42.111 26.6662 42.3107 26.8599C42.3107 26.8599 42.5888 26.6877 42.881 26.8599C42.881 26.8599 43.1591 27.0417 43.3516 27.2418C43.3516 27.2418 43.4871 27.3578 43.4372 27.7235C43.4372 27.7235 43.3659 27.9812 43.4087 28.1107C43.4087 28.1107 43.5014 28.0923 43.6868 28.312C43.6868 28.312 43.9221 28.5845 44.1288 28.344C44.1288 28.344 44.0647 28.6787 43.6761 28.6248C43.6761 28.6248 43.865 28.7722 43.701 29.1533C43.701 29.1533 43.5798 29.4229 43.7723 29.7609C43.7723 29.7609 43.4336 29.6243 43.4479 29.2252C43.4479 29.2252 43.4764 28.9556 43.3766 28.765C43.3766 28.765 43.4764 28.9383 43.2447 29.3079C43.2447 29.3079 43.0665 29.5739 43.2126 29.8507C43.2126 29.8507 42.8776 29.7285 42.9096 29.3222C42.9417 28.916 43.1449 29.0849 43.013 28.7111C43.013 28.7111 42.9809 28.9025 42.8811 28.9992C42.7813 29.0958 42.653 29.2575 42.7064 29.5272C42.7064 29.5272 42.5068 29.2791 42.5531 29.0238C42.5995 28.7686 42.6494 28.6914 42.6494 28.6914L42.0184 28.3336L41.7046 27.7655L41.6903 26.8599Z" fill="#C8102E" stroke="black" stroke-width="0.0475516" stroke-linejoin="round"/>
<path d="M34.5424 29.1335C34.5424 29.1335 34.6012 28.8548 34.8686 28.9645C34.8686 28.9645 34.9595 28.5079 35.4461 28.4918C35.9327 28.4756 35.9595 28.9663 35.9595 28.9987C35.9595 28.9987 36.1024 28.788 36.3411 28.8124C36.3411 28.8124 36.7526 28.7882 36.5993 29.4489L36.6771 29.5317C36.6771 29.5317 36.9915 28.7937 37.6386 28.9879C37.6386 28.9879 38.2696 29.1802 37.8579 29.7914C37.8579 29.7914 38.1693 30.1959 38.4334 30.1581C38.6974 30.1203 38.9327 30.0395 39.1947 29.5757C39.4568 29.1119 40.0664 29.0418 40.2215 29.0687C40.3766 29.0957 40.4991 29.1964 40.5244 29.306C40.5244 29.306 40.8472 28.2287 42.0076 28.398L42.4728 28.632L42.6493 28.7129L42.3862 29.4553L41.7454 30.9038L41.2589 31.0534L40.7508 30.7622L40.5744 30.8568L40.56 31.2906L39.8899 31.773L39.4247 31.9647L38.9113 32.3152L38.7919 32.6286C38.7919 32.6286 38.5084 32.5092 38.1884 32.6286L38.0825 32.3692L37.783 32.0834L36.6197 31.5346L36.4095 30.8568L36.1972 30.7622L35.9595 31.0344L35.6119 31.075L35.0932 30.7244L34.5424 29.1335Z" fill="white" stroke="#012169" stroke-width="0.0475345" stroke-miterlimit="10"/>
<path d="M39.6083 23.8594C39.6083 23.8594 39.1643 23.8396 39.1804 24.2998" stroke="black" stroke-width="0.0475345" stroke-miterlimit="2.613"/>
<path d="M42.529 28.7479C41.7562 28.5106 41.545 27.6801 41.545 27.6801C41.3873 27.0572 41.6413 26.5126 41.6413 26.5126C41.9942 25.6837 42.5914 25.6839 42.5914 25.6839C42.8908 25.6758 42.9268 25.932 42.9268 25.932C42.955 26.1135 42.8276 26.1791 42.8276 26.1791C42.6226 26.2906 42.4934 26.1396 42.4934 26.1396C42.4078 26.0281 42.4737 25.9293 42.4737 25.9293C42.5263 25.8556 42.627 25.8879 42.627 25.8879C42.7068 25.9126 42.6983 26.0124 42.6983 26.0124C42.6988 26.015 42.7006 26.015 42.7006 26.015C42.7041 26.0141 42.7028 26.0128 42.7028 26.0128C42.7028 26.0128 42.7206 25.8906 42.6012 25.878C42.6012 25.878 42.3686 25.8276 42.0959 26.1674C42.0959 26.1674 41.7367 26.6258 41.7376 27.219C41.7376 27.219 41.6922 28.3326 42.8526 28.6211C42.8526 28.6211 42.7269 28.8018 42.505 29.4543C42.505 29.4543 42.2537 30.2929 42.0137 30.7462C42.0137 30.7462 41.6948 31.393 40.9836 31.1287C40.9836 31.1287 40.5601 30.9427 40.5611 30.6353C40.5611 30.6353 40.5317 30.3548 40.7857 30.3333C40.7857 30.3333 41.0344 30.3144 41.0317 30.5274C41.0317 30.5274 41.0384 30.758 40.767 30.7054C40.767 30.7054 40.6721 30.6852 40.6894 30.5921C40.6894 30.5921 40.7046 30.5085 40.8191 30.5449C40.8191 30.5449 40.8227 30.5454 40.8231 30.5436C40.8231 30.5436 40.8244 30.5416 40.8204 30.5404C40.8204 30.5404 40.7761 30.5206 40.7293 30.537C40.7293 30.537 40.6874 30.5509 40.6841 30.6163C40.6841 30.6163 40.6814 30.6689 40.7376 30.6986C40.7376 30.6986 40.8058 30.7228 40.8592 30.7175C40.8592 30.7175 40.9312 30.8626 41.0939 30.9118C41.3204 30.9803 41.507 30.9144 41.6213 30.8233C41.7455 30.7241 41.8258 30.5509 41.8499 30.5085C41.8739 30.466 42.0825 29.9989 42.2393 29.4964C42.2393 29.4964 42.3766 29.0632 42.4862 28.8367L42.529 28.7479Z" fill="#F5CE00" stroke="black" stroke-width="0.0475345" stroke-miterlimit="2.613"/>
<path d="M40.3485 30.8592C40.3485 30.8592 40.4929 30.8396 40.4929 30.9684C40.4929 30.9684 40.4841 31.1565 40.2549 31.1153C40.2549 31.1153 40.029 31.0659 40.1091 30.8133C40.1091 30.8133 40.1626 30.6353 40.3765 30.661C40.3765 30.661 40.5837 30.6704 40.6747 30.9536C40.6747 30.9536 40.7442 31.1922 40.6252 31.3971C40.4924 31.6257 40.1564 31.7759 39.9942 31.8424C39.9942 31.8424 39.3445 32.0977 39.1507 32.2437C39.1507 32.2437 38.8535 32.4644 38.9849 32.6698C38.9849 32.6698 39.0357 32.748 39.1119 32.748C39.1119 32.748 39.1988 32.752 39.2136 32.6631C39.2136 32.6631 39.214 32.6613 39.2126 32.659C39.2126 32.659 39.2113 32.659 39.2109 32.6612C39.2109 32.6612 39.2046 32.7156 39.1574 32.7358C39.1574 32.7358 39.0941 32.7678 39.0277 32.7116C39.0277 32.7116 38.9573 32.6442 39.0161 32.5395C39.0161 32.5395 39.0932 32.4105 39.2728 32.4869C39.2728 32.4869 39.4311 32.5651 39.366 32.7332C39.366 32.7332 39.3081 32.8878 39.1173 32.8874C39.1173 32.8874 38.9737 32.8827 38.8818 32.7864C38.7385 32.6361 38.7307 32.3434 38.8571 32.1921C38.8571 32.1921 38.9765 32.0312 39.2162 31.9332C39.3551 31.8764 39.6173 31.7624 39.89 31.6555C40.0817 31.5803 40.2573 31.4903 40.3713 31.3553C40.3713 31.3553 40.473 31.2421 40.5024 31.0479C40.5024 31.0479 40.5305 30.9023 40.4418 30.8704C40.4418 30.8704 40.3967 30.8502 40.3473 30.8569C40.3473 30.8569 40.346 30.857 40.3456 30.8578C40.3455 30.8579 40.3435 30.8601 40.3485 30.8592V30.8592Z" fill="#F5CE00" stroke="black" stroke-width="0.0475345" stroke-miterlimit="2.613"/>
<path d="M40.3605 30.8582C40.3605 30.8582 40.5201 30.8295 40.6199 31.0192C40.6199 31.0192 40.6787 31.1414 40.6882 31.2121" stroke="black" stroke-width="0.0475345" stroke-miterlimit="2.613"/>
<path d="M40.7402 30.5341C40.7402 30.5341 40.5804 30.5618 40.6627 30.7878C40.7402 31.0008 40.8843 31.0707 40.927 31.1003" stroke="black" stroke-width="0.0475345" stroke-miterlimit="2.613"/>
<path d="M37.6144 24.3357C37.6144 24.3357 37.6223 24.4004 37.6865 24.4077C37.6865 24.4077 37.7534 24.4292 37.7924 24.3459C37.7924 24.3459 37.797 24.327 37.798 24.3178C37.8024 24.2788 37.8158 24.1667 37.6946 24.0751C37.6946 24.0751 37.4967 23.9133 37.1188 24.1092C37.1188 24.1092 36.8194 24.253 36.6126 24.3753C36.6126 24.3753 36.0778 24.6629 36.0136 24.6844C36.0136 24.6844 35.7783 24.8031 35.4183 24.8175C35.4183 24.8175 34.9263 24.8534 34.7178 24.5083C34.7178 24.5083 34.5592 24.2459 34.7178 24.0787C34.7178 24.0787 34.7819 24.0032 34.8874 24.0171C34.9317 24.0229 34.9807 24.0433 35.0279 24.0985C35.0279 24.0985 35.1045 24.21 35.0154 24.2926C35.0154 24.2926 34.8996 24.3636 34.8586 24.2136C34.8586 24.2136 34.8568 24.2028 34.8532 24.2162C34.8509 24.2249 34.8247 24.3394 34.8862 24.4364C34.8862 24.4364 35.183 24.8856 35.9994 24.4201L37.076 23.8163C37.076 23.8163 37.6161 23.5394 37.9388 23.9726C37.9388 23.9726 38.199 24.3322 37.8639 24.5676C37.8639 24.5676 37.6144 24.7168 37.4575 24.4796C37.4575 24.4796 37.3274 24.2459 37.5324 24.1435C37.5324 24.1435 37.7124 24.059 37.7837 24.2387C37.855 24.4185 37.6446 24.4652 37.6251 24.3376C37.6251 24.3376 37.6197 24.307 37.6144 24.3357V24.3357Z" fill="#F5CE00" stroke="black" stroke-width="0.0475345" stroke-miterlimit="2.613"/>
<path d="M34.9784 28.438C35.4539 28.1682 35.5582 27.5696 35.5582 27.5696C35.6732 26.9737 35.4406 26.5018 35.4406 26.5018C35.133 25.852 34.6061 25.7311 34.6061 25.7311C34.6061 25.7311 35.1223 26.0892 35.2667 26.5719C35.2667 26.5719 35.379 26.979 35.3148 27.3808C35.2507 27.7826 35.2747 27.6801 35.1758 27.9902L34.9784 28.438Z" fill="#F5CE00" stroke="black" stroke-width="0.0475345" stroke-miterlimit="2.613"/>
<path d="M37.3719 23.8594C37.3719 23.8594 37.8159 23.8396 37.7998 24.2998" stroke="black" stroke-width="0.0475345" stroke-miterlimit="2.613"/>
<path d="M34.4512 28.7479C35.2239 28.5106 35.4352 27.6801 35.4352 27.6801C35.5929 27.0572 35.3389 26.5126 35.3389 26.5126C34.986 25.6837 34.3888 25.6839 34.3888 25.6839C34.0893 25.6758 34.0534 25.932 34.0534 25.932C34.0251 26.1135 34.1526 26.1791 34.1526 26.1791C34.3575 26.2906 34.4868 26.1396 34.4868 26.1396C34.5724 26.0281 34.5064 25.9293 34.5064 25.9293C34.4539 25.8556 34.3531 25.8879 34.3531 25.8879C34.2734 25.9126 34.2818 26.0124 34.2818 26.0124C34.2814 26.015 34.2796 26.015 34.2796 26.015C34.2761 26.0141 34.2774 26.0128 34.2774 26.0128C34.2774 26.0128 34.2595 25.8906 34.379 25.878C34.379 25.878 34.6116 25.8276 34.8843 26.1674C34.8843 26.1674 35.2435 26.6258 35.2426 27.219C35.2426 27.219 35.288 28.3326 34.1276 28.6211C34.1276 28.6211 34.2533 28.8018 34.4752 29.4543C34.4752 29.4543 34.7265 30.2929 34.9664 30.7462C34.9664 30.7462 35.2854 31.393 35.9966 31.1287C35.9966 31.1287 36.4201 30.9427 36.4191 30.6353C36.4191 30.6353 36.4485 30.3548 36.1945 30.3333C36.1945 30.3333 35.9458 30.3144 35.9485 30.5274C35.9485 30.5274 35.9418 30.758 36.2132 30.7054C36.2132 30.7054 36.3081 30.6852 36.2907 30.5921C36.2907 30.5921 36.2756 30.5085 36.1611 30.5449C36.1611 30.5449 36.1575 30.5454 36.1571 30.5436C36.1571 30.5436 36.1558 30.5416 36.1598 30.5404C36.1598 30.5404 36.204 30.5206 36.2509 30.537C36.2509 30.537 36.2928 30.5509 36.2961 30.6163C36.2961 30.6163 36.2988 30.6689 36.2426 30.6986C36.2426 30.6986 36.1744 30.7228 36.121 30.7175C36.121 30.7175 36.049 30.8626 35.8863 30.9118C35.6597 30.9803 35.4731 30.9144 35.3589 30.8233C35.2347 30.7241 35.1544 30.5509 35.1303 30.5085C35.1063 30.466 34.8977 29.9989 34.7409 29.4964C34.7409 29.4964 34.6036 29.0632 34.494 28.8367L34.4512 28.7479Z" fill="#F5CE00" stroke="black" stroke-width="0.0475345" stroke-miterlimit="2.613"/>
<path d="M36.6317 30.8592C36.6317 30.8592 36.4873 30.8396 36.4873 30.9684C36.4873 30.9684 36.4961 31.1565 36.7253 31.1153C36.7253 31.1153 36.9512 31.0659 36.8711 30.8133C36.8711 30.8133 36.8176 30.6353 36.6037 30.661C36.6037 30.661 36.3965 30.6704 36.3055 30.9536C36.3055 30.9536 36.236 31.1923 36.355 31.3971C36.4878 31.6257 36.8238 31.7759 36.986 31.8424C36.986 31.8424 37.6357 32.0977 37.8295 32.2437C37.8295 32.2437 38.1267 32.4644 37.9953 32.6698C37.9953 32.6698 37.9445 32.748 37.8683 32.748C37.8683 32.748 37.7813 32.752 37.7666 32.6631C37.7666 32.6631 37.7662 32.6613 37.7676 32.659C37.7676 32.659 37.7689 32.659 37.7693 32.6612C37.7693 32.6612 37.7756 32.7156 37.8228 32.7358C37.8228 32.7358 37.8861 32.7678 37.9525 32.7116C37.9525 32.7116 38.0229 32.6442 37.9641 32.5395C37.9641 32.5395 37.887 32.4105 37.7074 32.4869C37.7074 32.4869 37.5491 32.5651 37.6142 32.7332C37.6142 32.7332 37.6721 32.8878 37.8629 32.8874C37.8629 32.8874 38.0065 32.8827 38.0984 32.7864C38.2417 32.6361 38.2495 32.3434 38.1231 32.1921C38.1231 32.1921 38.0037 32.0312 37.764 31.9332C37.6251 31.8764 37.3629 31.7624 37.0902 31.6555C36.8985 31.5803 36.7229 31.4903 36.6089 31.3553C36.6089 31.3553 36.5072 31.2421 36.4778 31.0479C36.4778 31.0479 36.4497 30.9023 36.5384 30.8704C36.5384 30.8704 36.5835 30.8502 36.6329 30.8569C36.6329 30.8569 36.6342 30.857 36.6346 30.8578C36.6347 30.8578 36.6367 30.8601 36.6317 30.8592V30.8592Z" fill="#F5CE00" stroke="black" stroke-width="0.0475345" stroke-miterlimit="2.613"/>
<path d="M36.6196 30.8582C36.6196 30.8582 36.4601 30.8295 36.3603 31.0192C36.3603 31.0192 36.3015 31.1414 36.292 31.2121" stroke="black" stroke-width="0.0475345" stroke-miterlimit="2.613"/>
<path d="M36.2401 30.5339C36.2401 30.5339 36.3998 30.5616 36.3175 30.7877C36.24 31.0007 36.096 31.0706 36.0532 31.1002" stroke="black" stroke-width="0.0475345" stroke-miterlimit="2.613"/>
<path d="M38.1038 24.2738C38.1038 24.2738 38.4901 24.032 38.8846 24.2998" stroke="black" stroke-width="0.0475345" stroke-miterlimit="2.613"/>
<path d="M35.906 26.6367C35.906 26.6367 35.9595 26.4209 35.7135 26.0434C35.7135 26.0434 35.553 25.6983 35.4675 25.4772" stroke="black" stroke-width="0.0356494" stroke-miterlimit="2.613"/>
<path d="M36.0236 25.2399C36.0236 25.2399 36.1629 25.5792 36.2108 25.7311C36.2108 25.7311 36.3835 26.1567 36.4202 26.243" stroke="black" stroke-width="0.0356494" stroke-miterlimit="2.613"/>
<path d="M36.0932 26.8739C36.0932 26.8739 36.2384 27.0303 36.222 27.2945" stroke="black" stroke-width="0.0356494" stroke-miterlimit="10"/>
<path d="M35.6119 26.7068C35.6119 26.7068 35.7723 26.7841 35.7617 27.2101C35.7617 27.2101 35.7456 27.5211 35.9862 27.6775" stroke="black" stroke-width="0.0356494" stroke-miterlimit="10"/>
<path d="M35.5901 27.7871C35.5901 27.7871 36.0923 27.7323 36.1199 28.0415C36.1199 28.0415 36.1306 28.3381 36.3017 28.3705C36.3017 28.3705 36.558 28.3947 36.6088 28.632" stroke="black" stroke-width="0.0356494" stroke-miterlimit="10"/>
<path d="M35.7482 28.1304C35.7482 28.1304 35.8365 28.2626 35.922 28.3192" stroke="black" stroke-width="0.0356494" stroke-miterlimit="10"/>
<path d="M36.3926 27.8042C36.3926 27.8042 36.5202 27.9974 36.5442 28.1107" stroke="black" stroke-width="0.0356494" stroke-miterlimit="10"/>
<path d="M36.9452 25.4772C36.9452 25.4772 37.0628 25.6372 37.1769 25.7126" stroke="black" stroke-width="0.0356494" stroke-miterlimit="10"/>
<path d="M37.4158 26.4246C37.4158 26.4246 37.6654 26.5468 37.6226 27.1759C37.6226 27.1759 37.5905 27.5449 37.6939 27.7463" stroke="black" stroke-width="0.0356494" stroke-miterlimit="10"/>
<path d="M36.2402 25.9976L36.2563 26.057C36.2563 26.057 36.7037 26.0759 36.9452 25.7711L36.9193 25.7127C36.9193 25.7127 36.529 25.6929 36.2402 25.9976V25.9976Z" fill="#784421" stroke="black" stroke-width="0.0356494"/>
<path d="M37.8521 28.398C37.8521 28.398 39.3995 27.9367 39.9958 27.6677" stroke="black" stroke-width="0.0356494" stroke-miterlimit="10"/>
<path d="M37.668 25.4934L38.4334 25.2022L38.4515 25.2534L37.6859 25.5442L37.668 25.4934Z" fill="#784421" stroke="black" stroke-width="0.0217673"/>
<path d="M37.7509 25.5195L38.2589 28.01" stroke="black" stroke-width="0.0356494" stroke-miterlimit="10"/>
<path d="M37.8391 25.486L38.4209 27.9651" stroke="black" stroke-width="0.0356494" stroke-miterlimit="10"/>
<path d="M37.938 25.4484L38.5744 27.9094" stroke="black" stroke-width="0.0356494" stroke-miterlimit="10"/>
<path d="M38.1875 25.3536L39.055 27.2009" stroke="black" stroke-width="0.0356494" stroke-miterlimit="10"/>
<path d="M38.3023 25.3101L39.2274 27.1465" stroke="black" stroke-width="0.0356494" stroke-miterlimit="10"/>
<path d="M38.3873 25.2778L39.388 27.0958" stroke="black" stroke-width="0.0356494" stroke-miterlimit="10"/>
<path d="M38.2245 28.0298L38.6172 27.9004" stroke="black" stroke-width="0.0356494" stroke-miterlimit="10"/>
<path d="M37.9272 27.7833C37.9272 27.7833 39.0782 27.4472 39.9493 27.0958" stroke="black" stroke-width="0.0356494" stroke-miterlimit="10"/>
<path d="M37.9118 27.9094C37.9118 27.9094 39.3705 27.5234 39.9493 27.2418" stroke="black" stroke-width="0.0356494" stroke-miterlimit="10"/>
<path d="M38.3569 29.0957L38.4333 29.3294L38.6421 29.2626L38.5708 29.031" stroke="black" stroke-width="0.0356494" stroke-miterlimit="10"/>
<path d="M38.9461 28.9279L39.0225 29.1615L39.2314 29.0947L39.16 28.8632" stroke="black" stroke-width="0.0356494" stroke-miterlimit="10"/>
<path d="M37.9561 27.548L37.938 27.2318L39.8507 26.6511L39.9541 26.9171" stroke="black" stroke-width="0.0356494" stroke-miterlimit="10"/>
<path d="M38.7491 26.9855L38.8533 27.2647" stroke="black" stroke-width="0.0356494" stroke-miterlimit="10"/>
<path d="M39.4178 26.7825L39.5396 27.0479" stroke="black" stroke-width="0.0356494" stroke-miterlimit="10"/>
<path d="M39.5764 26.7344L39.6903 26.9855" stroke="black" stroke-width="0.0356494" stroke-miterlimit="10"/>
<path d="M39.7278 26.6884L39.8476 26.9507" stroke="black" stroke-width="0.0356494" stroke-miterlimit="10"/>
<path d="M39.8507 26.651L40.0611 26.5324L40.1502 26.766" stroke="black" stroke-width="0.0356494" stroke-miterlimit="10"/>
<path d="M39.9541 26.5927L40.0612 26.8346" stroke="black" stroke-width="0.0356494" stroke-miterlimit="10"/>
<path d="M35.2107 30.2336C35.2107 30.2336 34.8364 29.8545 35.2107 29.4832C35.2107 29.4832 34.8044 29.2845 34.8685 28.9645" stroke="#012169" stroke-width="0.0475345" stroke-miterlimit="10"/>
<path d="M35.8792 30.534C35.8792 30.534 35.4915 30.5868 35.6065 29.8318C35.6065 29.8318 35.446 30.1311 35.3907 30.2849C35.3494 30.4001 35.3767 30.5859 35.5408 30.6864C35.6064 30.7266 35.954 30.8171 36.0663 30.5868" stroke="#012169" stroke-width="0.0475345" stroke-miterlimit="10"/>
<path d="M35.446 29.3788C35.446 29.3788 35.2883 29.5245 35.4006 29.7914" stroke="#012169" stroke-width="0.0475345" stroke-miterlimit="10"/>
<path d="M35.6091 29.4139C35.6091 29.4139 35.6278 29.6728 35.7562 29.8183" stroke="#012169" stroke-width="0.0475345" stroke-miterlimit="10"/>
<path d="M35.72 29.3115C35.72 29.3115 35.7188 29.6162 35.938 29.8049" stroke="#012169" stroke-width="0.0475345" stroke-miterlimit="10"/>
<path d="M35.829 29.2063C35.829 29.2063 35.8311 29.5487 36.0851 29.7591" stroke="#012169" stroke-width="0.0475345" stroke-miterlimit="10"/>
<path d="M37.0905 29.7078C37.0905 29.7078 37.2188 29.4273 37.4888 29.4408C37.4888 29.4408 37.3578 29.5002 37.3605 29.6314C37.3605 29.6314 37.3445 29.848 37.5771 29.8695C37.5771 29.8695 37.7642 29.8938 37.8578 29.7913" stroke="#012169" stroke-width="0.0475345" stroke-miterlimit="10"/>
<path d="M37.7295 30.9885C37.7295 30.9885 37.0637 30.6758 37.1333 30.2255C37.1333 30.2255 37.16 29.9505 37.4289 29.821" stroke="#012169" stroke-width="0.0475345" stroke-miterlimit="10"/>
<path d="M37.2883 30.1068C37.2883 30.1068 37.2295 30.301 37.3605 30.4358" stroke="#012169" stroke-width="0.0475345" stroke-miterlimit="10"/>
<path d="M37.438 29.9747C37.438 29.9747 37.3578 30.1878 37.4915 30.3468" stroke="#012169" stroke-width="0.0475345" stroke-miterlimit="10"/>
<path d="M37.5983 29.8713C37.5983 29.8713 37.5022 30.0475 37.6171 30.2066" stroke="#012169" stroke-width="0.0475345" stroke-miterlimit="10"/>
<path d="M36.9915 31.0344C36.9915 31.0344 37.3552 31.3499 37.6386 31.3526" stroke="#012169" stroke-width="0.0475345" stroke-miterlimit="10"/>
<path d="M36.8765 31.1342C36.8765 31.1342 37.2164 31.4092 37.4288 31.4496" stroke="#012169" stroke-width="0.0475345" stroke-miterlimit="10"/>
<path d="M36.7482 31.212C36.7482 31.212 37.1682 31.5817 37.4288 31.6087" stroke="#012169" stroke-width="0.0475345" stroke-miterlimit="10"/>
<path d="M38.4568 31.9485C38.4568 31.9485 38.0438 32.171 38.3639 32.4062" stroke="#012169" stroke-width="0.0475345" stroke-miterlimit="10"/>
<path d="M38.1947 31.7031C38.1947 31.7031 38.6626 31.4578 38.8658 31.3661" stroke="#012169" stroke-width="0.0475345" stroke-miterlimit="10"/>
<path d="M38.3632 31.8299C38.3632 31.8299 39.0396 31.4173 39.2401 31.3284" stroke="#012169" stroke-width="0.0475345" stroke-miterlimit="10"/>
<path d="M38.7108 31.8568C38.7108 31.8568 39.2883 31.4713 39.5984 31.3041" stroke="#012169" stroke-width="0.0475345" stroke-miterlimit="10"/>
<path d="M39.0931 31.8433C39.0931 31.8433 39.4915 31.5306 39.8765 31.3041" stroke="#012169" stroke-width="0.0475345" stroke-miterlimit="10"/>
<path d="M40.0129 30.9131C40.0129 30.9131 39.8177 30.6273 39.176 30.9131C39.176 30.9131 39.4113 30.6995 39.8765 30.534" stroke="#012169" stroke-width="0.0475345" stroke-miterlimit="10"/>
<path d="M40.5244 29.306C40.5244 29.306 40.5769 29.5379 40.5208 29.6781" stroke="#012169" stroke-width="0.0475345" stroke-miterlimit="10"/>
<path d="M39.4835 30.4305C39.4835 30.4305 39.6171 30.2336 39.9567 30.1366C39.9567 30.1366 40.0483 30.3657 40.3124 30.3145C40.3124 30.3145 40.7108 30.2363 40.5905 29.7995C40.5905 29.7995 40.5076 29.4732 40.0526 29.4409" stroke="#012169" stroke-width="0.0475345" stroke-miterlimit="10"/>
<path d="M41.406 28.8939C41.406 28.8939 41.8685 28.9771 41.8605 29.3546C41.8605 29.3546 41.898 29.9208 41.3017 30.0314" stroke="#012169" stroke-width="0.0475345" stroke-miterlimit="10"/>
<path d="M41.7949 29.1263C41.7949 29.1263 41.922 28.8504 42.2054 28.7371" stroke="#012169" stroke-width="0.0475345" stroke-miterlimit="10"/>
<path d="M41.861 28.5753C41.861 28.5753 41.9873 28.7779 42.0737 28.8074" stroke="#012169" stroke-width="0.0475345" stroke-miterlimit="10"/>
<path d="M41.7949 28.7371C41.7949 28.7371 41.9139 28.8826 41.9541 28.907" stroke="#012169" stroke-width="0.0475345" stroke-miterlimit="10"/>
<path d="M41.7562 28.8773C41.7562 28.8773 41.8189 28.97 41.8745 28.9991" stroke="#012169" stroke-width="0.0475345" stroke-miterlimit="10"/>
<path d="M39.3765 26.6883C39.3765 26.6883 39.4665 26.5422 39.6903 26.6043" stroke="#012169" stroke-width="0.0475345" stroke-miterlimit="10"/>
<path d="M40.6038 27.7833C40.6038 27.7833 40.7456 27.1921 41.2402 27.4105" stroke="#012169" stroke-width="0.0475345" stroke-miterlimit="10"/>
<path d="M41.0396 27.3621C41.0396 27.3621 41.0904 27.0895 40.9674 26.9507" stroke="#012169" stroke-width="0.0475345" stroke-miterlimit="10"/>
<path d="M40.7027 27.3431C40.7027 27.3431 40.7657 27.4558 40.7118 27.5479" stroke="#012169" stroke-width="0.0475345" stroke-miterlimit="10"/>
<path d="M41.7081 33.383C41.7081 33.383 42.2643 33.1295 42.0932 32.6981C42.0932 32.6981 42.0403 32.5524 41.917 32.5633C41.917 32.5633 41.7025 32.574 41.7454 32.8598C41.7454 32.8599 41.8097 33.1403 41.7081 33.383Z" fill="#64B4D1" stroke="#012169" stroke-width="0.0356494" stroke-miterlimit="2.613"/>
<path d="M41.9095 33.1277C41.9095 33.1277 42.0317 33.0106 42.0147 32.8006C42.0147 32.8006 42.0075 32.7557 42.03 32.7494C42.03 32.7494 42.0539 32.7394 42.0574 32.7915C42.0574 32.7915 42.0913 33.0109 41.9433 33.1367C41.9433 33.1367 41.9333 33.1492 41.9169 33.1456C41.917 33.1457 41.8994 33.1418 41.9095 33.1277Z" fill="white"/>
<path d="M42.4996 32.9947C42.4996 32.9947 42.8899 32.7493 42.6787 32.3368C42.6787 32.3368 42.6172 32.2181 42.4996 32.2424C42.4996 32.2424 42.2563 32.3179 42.4461 32.655C42.4461 32.655 42.5423 32.8734 42.4996 32.9947Z" fill="#64B4D1" stroke="#012169" stroke-width="0.0356494" stroke-miterlimit="2.613"/>
<path d="M42.5971 32.4352C42.5971 32.4352 42.5757 32.4068 42.5904 32.3947C42.5904 32.3947 42.5998 32.3812 42.6252 32.4136C42.6252 32.4136 42.7433 32.5456 42.6493 32.7486C42.6493 32.7486 42.6385 32.7776 42.6198 32.7681C42.6198 32.7681 42.6038 32.7601 42.6185 32.7358C42.6185 32.7358 42.7028 32.5687 42.5971 32.4352Z" fill="white"/>
<path d="M41.3311 33.2751C41.3311 33.2751 40.8953 33.1646 40.9754 32.7143C40.9754 32.7143 41.0182 32.5175 41.2027 32.5444C41.2027 32.5444 41.425 32.6012 41.2802 32.8874C41.2802 32.8874 41.1947 33.0917 41.3311 33.2751V33.2751Z" fill="#64B4D1" stroke="#012169" stroke-width="0.0356494" stroke-miterlimit="2.613"/>
<path d="M41.1626 32.7372C41.1626 32.7372 41.1466 32.7156 41.1653 32.7062C41.1653 32.7062 41.184 32.6981 41.1974 32.7244C41.1974 32.7244 41.2428 32.7965 41.2044 32.8952C41.2044 32.8952 41.168 32.9637 41.1857 33.0352C41.1857 33.0352 41.1881 33.0554 41.172 33.0581C41.172 33.0581 41.1566 33.0527 41.1536 33.0379C41.1536 33.0379 41.1319 32.9681 41.1693 32.8999C41.1693 32.8998 41.2148 32.7939 41.1626 32.7372Z" fill="white"/>
<path d="M41.6439 32.4228C41.6439 32.4228 41.8899 32.2846 42.0931 32.4464C42.0931 32.4464 42.0724 32.3565 41.917 32.317C41.917 32.317 41.8329 32.0797 41.5976 32.1012C41.5976 32.1012 41.6938 32.2163 41.8222 32.3134C41.8222 32.3134 41.6867 32.3274 41.6439 32.4228Z" fill="black"/>
<path d="M41.8257 31.7729C41.8257 31.7729 41.9928 31.8964 42.0608 31.9791C42.0608 31.9791 42.1288 31.8946 42.2179 31.8433C42.2179 31.8433 42.1153 31.8298 42.0608 31.876C42.0608 31.876 41.9754 31.7933 41.8257 31.7729Z" fill="black"/>
<path d="M40.8561 32.3027C40.8561 32.3027 40.8383 32.2416 40.8811 32.1768C40.8811 32.1768 40.9096 32.1301 40.8989 32.069" stroke="black" stroke-width="0.0475345" stroke-miterlimit="10"/>
<path d="M42.6493 28.463C42.6493 28.463 42.9095 28.445 42.9523 28.2437" stroke="black" stroke-width="0.0475345" stroke-miterlimit="10"/>
<path d="M43.4087 28.1107C43.4087 28.1107 43.318 28.1071 43.236 28.1898C43.236 28.1898 43.1734 28.2833 43.0842 28.2724" stroke="black" stroke-width="0.0475345" stroke-miterlimit="10"/>
<path d="M42.2643 27.6972C42.2643 27.6972 42.3997 27.6972 42.4746 27.6325C42.4746 27.6325 42.5531 27.5786 42.5994 27.6648C42.5994 27.6648 42.6707 27.787 42.5388 27.841C42.5388 27.841 42.3748 27.9237 42.6351 28.0891C42.6351 28.0891 42.3249 27.9776 42.4497 27.8266C42.4497 27.8266 42.5851 27.7296 42.5352 27.6936C42.5352 27.6936 42.521 27.6648 42.4675 27.7008C42.414 27.7367 42.307 27.7224 42.2643 27.6972V27.6972Z" fill="black"/>
<path d="M42.4485 24.4233C42.4485 24.4233 42.5097 24.3401 42.4847 24.0902C42.4597 23.8404 42.6766 23.8117 42.7601 23.8835C42.7601 23.8835 42.8463 23.9582 42.767 24.1166C42.7212 24.208 42.6481 24.3264 42.4485 24.4233V24.4233Z" fill="#64B4D1" stroke="#012169" stroke-width="0.0356494" stroke-miterlimit="2.613"/>
<path d="M42.53 24.2368C42.53 24.2368 42.6113 24.1493 42.5725 23.9595C42.5725 23.9595 42.5723 23.9408 42.583 23.9396C42.583 23.9396 42.6028 23.9346 42.6061 23.9533C42.6061 23.9533 42.6497 24.1556 42.558 24.2656C42.558 24.2656 42.5412 24.2818 42.53 24.2656C42.53 24.2655 42.5177 24.2539 42.53 24.2368V24.2368Z" fill="white"/>
<path d="M42.3792 24.3324C42.3792 24.3324 42.3728 24.2317 42.1988 24.0606C42.0247 23.8894 42.1678 23.7317 42.2744 23.733C42.2744 23.733 42.3849 23.7348 42.4246 23.903C42.4476 24.0003 42.467 24.1347 42.3792 24.3324Z" fill="#64B4D1" stroke="#012169" stroke-width="0.0356494" stroke-miterlimit="2.613"/>
<path d="M42.3521 24.1135C42.3521 24.1135 42.3552 23.9901 42.1976 23.8614C42.1976 23.8614 42.1848 23.8464 42.1921 23.8384C42.1921 23.8384 42.2038 23.8217 42.219 23.8346C42.219 23.8346 42.3888 23.9704 42.3929 24.1188C42.3929 24.1188 42.391 24.1427 42.3715 24.1368C42.3715 24.1367 42.3542 24.1353 42.3521 24.1135V24.1135Z" fill="white"/>
<path d="M42.1428 24.2567C42.1428 24.2567 42.0973 24.1747 41.8823 24.0984C41.6674 24.0221 41.7254 23.8343 41.8159 23.7941C41.8159 23.7941 41.9098 23.7528 42.0103 23.8787C42.0684 23.9515 42.1382 24.0567 42.1428 24.2567V24.2567Z" fill="#64B4D1" stroke="#012169" stroke-width="0.0356494" stroke-miterlimit="2.613"/>
<path d="M42.0487 24.1059C42.0487 24.1059 41.9998 23.9928 41.803 23.9432C41.803 23.9432 41.7851 23.9351 41.7884 23.9248C41.7884 23.9248 41.7919 23.9046 41.8111 23.9099C41.8111 23.9099 42.0219 23.9606 42.0878 24.0933C42.0878 24.0933 42.0961 24.1158 42.076 24.1188C42.076 24.1188 42.0597 24.1249 42.0487 24.1059V24.1059Z" fill="white"/>
<path d="M42.2775 24.3389C42.2775 24.3389 42.1773 24.3671 41.9471 24.256C41.7169 24.1449 41.616 24.3382 41.6564 24.4416C41.6564 24.4416 41.6986 24.5486 41.8767 24.5299C41.9796 24.519 42.1174 24.4921 42.2775 24.3389Z" fill="#64B4D1" stroke="#012169" stroke-width="0.0356494" stroke-miterlimit="2.613"/>
<path d="M41.7422 24.4123C41.7422 24.4123 41.8466 24.4767 42.036 24.4034C42.036 24.4034 42.0553 24.3997 42.0584 24.4101C42.0584 24.4101 42.067 24.4287 42.0482 24.4355C42.0482 24.4355 41.8467 24.5158 41.7173 24.4452C41.7173 24.4452 41.6976 24.4316 41.7124 24.4176C41.7125 24.4176 41.7224 24.4031 41.7422 24.4123V24.4123Z" fill="white"/>
<path d="M41.9407 23.6113C41.9407 23.6113 42.0557 23.6671 42.029 23.8019" stroke="black" stroke-width="0.0475345" stroke-miterlimit="2.613"/>
<path d="M42.4488 23.6302C42.4488 23.6302 42.4938 23.7726 42.4441 23.8493" stroke="black" stroke-width="0.0475345" stroke-miterlimit="10"/>
<path d="M34.5172 24.4233C34.5172 24.4233 34.456 24.3401 34.481 24.0902C34.506 23.8404 34.2891 23.8117 34.2057 23.8835C34.2057 23.8835 34.1195 23.9582 34.1988 24.1166C34.2445 24.208 34.3176 24.3264 34.5172 24.4233V24.4233Z" fill="#64B4D1" stroke="#012169" stroke-width="0.0356494" stroke-miterlimit="2.613"/>
<path d="M34.4356 24.2368C34.4356 24.2368 34.3543 24.1493 34.3931 23.9595C34.3931 23.9595 34.3934 23.9408 34.3826 23.9396C34.3826 23.9396 34.3629 23.9346 34.3596 23.9533C34.3596 23.9533 34.3159 24.1556 34.4077 24.2656C34.4077 24.2656 34.4245 24.2818 34.4357 24.2656C34.4356 24.2655 34.448 24.2539 34.4356 24.2368V24.2368Z" fill="white"/>
<path d="M34.5864 24.3324C34.5864 24.3324 34.5928 24.2317 34.7669 24.0606C34.941 23.8894 34.7978 23.7317 34.6912 23.733C34.6912 23.733 34.5808 23.7348 34.541 23.903C34.5181 24.0003 34.4986 24.1347 34.5864 24.3324Z" fill="#64B4D1" stroke="#012169" stroke-width="0.0356494" stroke-miterlimit="2.613"/>
<path d="M34.6136 24.1135C34.6136 24.1135 34.6105 23.9901 34.7681 23.8614C34.7681 23.8614 34.7809 23.8464 34.7736 23.8384C34.7736 23.8384 34.7619 23.8217 34.7467 23.8346C34.7467 23.8346 34.5769 23.9704 34.5728 24.1188C34.5728 24.1188 34.5747 24.1427 34.5942 24.1368C34.5942 24.1367 34.6114 24.1353 34.6136 24.1135V24.1135Z" fill="white"/>
<path d="M34.8228 24.2567C34.8228 24.2567 34.8683 24.1747 35.0833 24.0984C35.2983 24.0221 35.2402 23.8343 35.1497 23.7941C35.1497 23.7941 35.0558 23.7528 34.9553 23.8787C34.8973 23.9515 34.8274 24.0567 34.8228 24.2567V24.2567Z" fill="#64B4D1" stroke="#012169" stroke-width="0.0356494" stroke-miterlimit="2.613"/>
<path d="M34.917 24.1059C34.917 24.1059 34.9659 23.9928 35.1627 23.9432C35.1627 23.9432 35.1806 23.9351 35.1773 23.9248C35.1773 23.9248 35.1738 23.9046 35.1546 23.9099C35.1546 23.9099 34.9438 23.9606 34.8779 24.0933C34.8779 24.0933 34.8696 24.1158 34.8897 24.1188C34.8897 24.1188 34.906 24.1249 34.917 24.1059V24.1059Z" fill="white"/>
<path d="M34.6881 24.3389C34.6881 24.3389 34.7884 24.3671 35.0186 24.256C35.2488 24.1449 35.3496 24.3382 35.3093 24.4416C35.3093 24.4416 35.2671 24.5486 35.0889 24.5299C34.986 24.519 34.8482 24.4921 34.6881 24.3389Z" fill="#64B4D1" stroke="#012169" stroke-width="0.0356494" stroke-miterlimit="2.613"/>
<path d="M35.2234 24.4123C35.2234 24.4123 35.1191 24.4767 34.9297 24.4034C34.9297 24.4034 34.9104 24.3997 34.9072 24.4101C34.9072 24.4101 34.8986 24.4287 34.9174 24.4355C34.9174 24.4355 35.1189 24.5158 35.2483 24.4452C35.2483 24.4452 35.268 24.4316 35.2532 24.4176C35.2531 24.4176 35.2433 24.4031 35.2234 24.4123V24.4123Z" fill="white"/>
<path d="M35.0249 23.6113C35.0249 23.6113 34.91 23.6671 34.9367 23.8019" stroke="black" stroke-width="0.0475345" stroke-miterlimit="2.613"/>
<path d="M34.5169 23.6302C34.5169 23.6302 34.4719 23.7726 34.5216 23.8493" stroke="black" stroke-width="0.0475345" stroke-miterlimit="10"/>
<path d="M39.5076 22.3224C39.5076 22.3224 39.5804 22.5304 39.549 22.7188C39.5209 22.8873 39.5592 22.9309 39.6201 22.9643C39.6728 22.9931 39.7949 22.9426 39.8096 22.8105C39.8096 22.8105 39.954 23.0923 39.6733 23.2824C39.6733 23.2824 39.4714 23.4064 39.3003 23.2406C39.24 23.1822 39.2134 23.0208 39.2428 22.8712C39.2428 22.8712 39.287 22.6682 39.2134 22.46C39.2134 22.46 39.3283 22.5826 39.2989 22.8273C39.2989 22.8273 39.2401 23.2662 39.565 23.2446C39.565 23.2446 39.7895 23.2419 39.7962 22.9696C39.7962 22.9696 39.712 23.0666 39.6078 23.0343C39.5339 23.0114 39.466 22.9399 39.4781 22.8273C39.4907 22.7091 39.5236 22.5031 39.5076 22.3224V22.3224Z" fill="black"/>
<path d="M39.1395 23.0433C39.1395 23.0433 39.1216 23.3902 38.8044 23.4747C38.8044 23.4747 38.8489 23.4118 38.7776 23.2392C38.7776 23.2392 38.7081 23.1386 38.7135 22.9822C38.7135 22.9822 38.6125 23.0612 38.7277 23.2698C38.7973 23.3956 38.7367 23.5466 38.7153 23.552C38.6938 23.5574 39.2393 23.4801 39.1395 23.0433V23.0433Z" fill="black"/>
<path d="M38.7277 22.6982C38.7277 22.6982 38.6511 22.6119 38.6457 22.4123C38.6404 22.2128 38.6029 22.1643 38.5762 22.1409C38.5762 22.1409 38.6154 22.3135 38.6047 22.4195C38.594 22.5255 38.6118 22.5867 38.6261 22.637C38.6261 22.637 38.4531 22.6639 38.3444 22.4123C38.2405 22.1717 38.1358 22.1912 38.0842 22.1929C38.0842 22.1929 38.1444 22.1996 38.266 22.4194C38.3874 22.639 38.4211 22.6838 38.7277 22.6982Z" fill="black"/>
<path d="M37.9185 22.1768C37.9185 22.1768 38.0183 22.4159 38.0219 22.5417C38.0219 22.5417 37.7901 22.4644 37.7277 22.2631C37.7277 22.2631 37.48 22.3476 37.5709 22.6334C37.5709 22.6334 37.357 22.5579 37.2607 22.3835C37.2607 22.3835 37.3802 22.4734 37.4907 22.5129C37.4907 22.5129 37.4782 22.2829 37.7669 22.1966C37.7669 22.1966 37.8099 22.4027 37.9541 22.4518C37.9541 22.4519 37.9434 22.3224 37.9185 22.1768V22.1768Z" fill="black"/>
<path d="M38.2999 21.767C38.2999 21.767 38.3802 21.8839 38.5442 21.8893C38.6225 21.8918 38.7069 21.8741 38.7884 21.767C38.7884 21.767 38.7777 21.9702 38.5442 21.9719C38.5442 21.9719 38.2999 21.9809 38.2999 21.767Z" fill="black"/>
<path d="M37.2897 23.1556C37.2897 23.1556 37.4113 23.2662 37.4367 23.3026C37.4367 23.3026 37.5223 23.3862 37.5958 23.2781C37.5958 23.2781 37.6894 23.1052 37.8044 23.1098C37.8044 23.1098 37.7228 23.1664 37.6312 23.3298C37.6312 23.3298 37.6065 23.3902 37.5383 23.3969C37.5064 23.4001 37.4661 23.4104 37.4051 23.3467C37.4051 23.3467 37.3525 23.2824 37.2897 23.1556V23.1556Z" fill="black"/>
<path d="M38.5441 20.9527C38.2999 20.9526 38.5058 21.1414 38.5058 21.1414C38.5111 21.4407 38.271 21.5328 38.1074 21.4461C37.9439 21.3594 38.0718 21.1414 38.0718 21.1414C38.0718 21.1414 37.8873 21.2627 38.0049 21.438C38.1226 21.6133 38.4309 21.535 38.5441 21.3733C38.6573 21.535 38.9657 21.6133 39.0833 21.438C39.201 21.2627 39.0165 21.1414 39.0165 21.1414C39.0165 21.1414 39.1444 21.3594 38.9808 21.4461C38.8173 21.5328 38.5771 21.4407 38.5825 21.1414C38.5824 21.1415 38.7883 20.9526 38.5441 20.9527Z" fill="black"/>
<path d="M38.6921 20.6292C38.6921 20.6292 38.7776 20.7748 38.7589 20.9958C38.7589 20.9958 38.8364 20.7747 38.6921 20.6292Z" fill="black"/>
<path d="M37.9434 20.9715C37.9434 20.9715 37.9247 20.8125 37.7697 20.799C37.7697 20.799 37.9006 20.8934 37.9434 20.9715Z" fill="black"/>
<path d="M39.1466 20.9715C39.1466 20.9715 39.1653 20.8125 39.3204 20.799C39.3204 20.799 39.1894 20.8934 39.1466 20.9715Z" fill="black"/>
<path d="M37.6974 21.2142C37.6974 21.2142 37.8204 21.252 37.8953 21.1603C37.8953 21.1603 37.7535 21.198 37.6974 21.2142Z" fill="black"/>
<path d="M37.299 20.2381C37.299 20.2381 37.4421 20.2219 37.5851 20.435C37.5851 20.435 37.4434 20.5105 37.4086 20.5563C37.4086 20.5563 37.4086 20.4862 37.4782 20.4242C37.4781 20.4242 37.4514 20.3164 37.299 20.2381V20.2381Z" fill="black"/>
<path d="M39.6947 20.2381C39.6947 20.2381 39.5517 20.2219 39.4086 20.435C39.4086 20.435 39.5504 20.5105 39.5851 20.5563C39.5851 20.5563 39.5851 20.4862 39.5156 20.4242C39.5156 20.4242 39.5423 20.3164 39.6947 20.2381V20.2381Z" fill="black"/>
<path d="M38.5905 20.3971C38.5905 20.3971 38.7188 20.4323 38.8792 20.3433C38.8792 20.3433 39.0771 20.2381 39.2027 20.3433C39.2027 20.3433 39.0931 20.2945 38.8819 20.3971C38.8819 20.3971 38.6706 20.5129 38.5905 20.3971V20.3971Z" fill="black"/>
<path d="M38.7242 20.5267C38.7242 20.5267 38.8338 20.3344 39.1681 20.3726C39.1681 20.3726 39.0771 20.6399 38.7242 20.5267Z" fill="white"/>
<path d="M38.9547 20.5508C38.9912 20.5508 39.0208 20.5133 39.0208 20.467C39.0208 20.4207 38.9912 20.3832 38.9547 20.3832C38.9182 20.3832 38.8886 20.4207 38.8886 20.467C38.8886 20.5133 38.9182 20.5508 38.9547 20.5508Z" fill="#784421"/>
<path d="M38.9547 20.5184C38.9764 20.5184 38.994 20.4954 38.994 20.467C38.994 20.4387 38.9764 20.4156 38.9547 20.4156C38.933 20.4156 38.9155 20.4387 38.9155 20.467C38.9155 20.4954 38.933 20.5184 38.9547 20.5184Z" fill="black"/>
<path d="M38.0076 20.1168C38.0076 20.1168 38.2188 20.1303 38.3471 20.2112C38.3471 20.2112 38.4835 20.2921 38.6386 20.1761C38.6386 20.1761 38.8072 20.0791 38.9154 19.9442C38.9154 19.9442 38.6573 20.1222 38.561 20.1492C38.561 20.1492 38.4728 20.0818 38.438 19.9847C38.438 19.9847 38.4514 19.9119 38.5904 19.7771C38.5904 19.7771 38.4033 19.8337 38.3658 19.9928C38.3658 19.9928 38.4006 20.0899 38.4728 20.1654C38.4728 20.1654 38.438 20.1816 38.3471 20.125C38.3471 20.1249 38.1493 20.0575 38.0076 20.1168Z" fill="black"/>
<path d="M38.5442 21.3854C38.3614 21.5432 38.5442 21.527 38.5442 21.527C38.5442 21.527 38.7269 21.5432 38.5442 21.3854Z" fill="black"/>
<path d="M38.4384 20.3971C38.4384 20.3971 38.31 20.4323 38.1496 20.3433C38.1496 20.3433 37.9517 20.2381 37.826 20.3433C37.826 20.3433 37.9357 20.2945 38.1469 20.3971C38.147 20.3971 38.3582 20.5129 38.4384 20.3971Z" fill="black"/>
<path d="M38.3047 20.5267C38.3047 20.5267 38.1951 20.3344 37.8608 20.3726C37.8608 20.3726 37.9518 20.6399 38.3047 20.5267Z" fill="white"/>
<path d="M38.0741 20.5508C38.1107 20.5508 38.1402 20.5133 38.1402 20.467C38.1402 20.4207 38.1107 20.3832 38.0741 20.3832C38.0376 20.3832 38.0081 20.4207 38.0081 20.467C38.0081 20.5133 38.0376 20.5508 38.0741 20.5508Z" fill="#784421"/>
<path d="M38.0742 20.5184C38.0958 20.5184 38.1134 20.4954 38.1134 20.467C38.1134 20.4387 38.0958 20.4156 38.0742 20.4156C38.0525 20.4156 38.0349 20.4387 38.0349 20.467C38.0349 20.4954 38.0525 20.5184 38.0742 20.5184Z" fill="black"/>
<path d="M45 18.7971V30.9131C45 34.1494 38.5303 35.2009 38.5303 35.2009C38.5303 35.2009 32.0607 34.1494 32.0607 30.9131V18.7971H45Z" stroke="black" stroke-width="0.114444"/>
<mask id="mask1_1_36639" style="mask-type:alpha" maskUnits="userSpaceOnUse" x="3" y="9" width="24" height="18">
<rect x="3" y="9" width="24" height="18" fill="#C4C4C4"/>
</mask>
<g mask="url(#mask1_1_36639)">
<rect x="3" y="9" width="24" height="18" fill="#2E50A6"/>
<path d="M3 9L27 27L3 9ZM27 9L3 27Z" fill="black"/>
<path d="M27 9L3 27M3 9L27 27L3 9Z" stroke="white" stroke-width="2.4"/>
<path d="M3 9L27 27L3 9ZM27 9L3 27Z" fill="black"/>
<path d="M27 9L3 27M3 9L27 27L3 9Z" stroke="#EE5757" stroke-width="1.6"/>
<path d="M15 9V30V9ZM3 18H31Z" fill="black"/>
<path d="M3 18H31M15 9V30V9Z" stroke="white" stroke-width="4"/>
<path d="M15 9V30V9ZM3 18H31Z" fill="black"/>
<path d="M3 18H31M15 9V30V9Z" stroke="#EE5757" stroke-width="2.4"/>
</g>
</g>
</svg>
