<svg width="54" height="54" viewBox="0 0 54 54" fill="none" xmlns="http://www.w3.org/2000/svg">
<mask id="mask0_1_40164" style="mask-type:alpha" maskUnits="userSpaceOnUse" x="3" y="9" width="48" height="36">
<path d="M3.56934 18.1356C4.16681 13.4125 8.0415 10.0019 12.7861 9.60887C16.6412 9.28949 21.6196 9 27 9C32.3804 9 37.3588 9.28949 41.2139 9.60887C45.9585 10.0019 49.8332 13.4125 50.4307 18.1356C50.752 20.6759 51 23.704 51 27C51 30.296 50.752 33.3241 50.4307 35.8644C49.8332 40.5875 45.9585 43.9981 41.2139 44.3911C37.3588 44.7105 32.3804 45 27 45C21.6196 45 16.6412 44.7105 12.7861 44.3911C8.04151 43.9981 4.16681 40.5875 3.56934 35.8644C3.248 33.3241 3 30.296 3 27C3 23.704 3.248 20.6759 3.56934 18.1356Z" fill="#00D0BF"/>
</mask>
<g mask="url(#mask0_1_40164)">
<path d="M3 9H51V45H3V9Z" fill="#59C785"/>
<path d="M27 12L7 27L27 42L47 27L27 12Z" fill="#FCD95E"/>
</g>
<circle cx="27" cy="27" r="10" fill="#2E50A6"/>
<mask id="mask1_1_40164" style="mask-type:alpha" maskUnits="userSpaceOnUse" x="17" y="17" width="20" height="20">
<circle cx="27" cy="27" r="10" fill="#2E50A6"/>
</mask>
<g mask="url(#mask1_1_40164)">
<path fill-rule="evenodd" clip-rule="evenodd" d="M36.3804 31.7849C29.055 26.0017 19.7871 25.5145 16.1293 25.9916L15.8707 24.0084C19.8795 23.4855 29.745 23.9983 37.6196 30.2151L36.3804 31.7849Z" fill="#F5F5F5"/>
</g>
</svg>
