<svg width="54" height="48" viewBox="0 0 54 48" fill="none" xmlns="http://www.w3.org/2000/svg">
<mask id="mask0_1_40164" style="mask-type:alpha" maskUnits="userSpaceOnUse" x="3" y="6" width="48" height="36">
<path d="M3.56934 15.1356C4.16681 10.4125 8.0415 7.00193 12.7861 6.60887C16.6412 6.28949 21.6196 6 27 6C32.3804 6 37.3588 6.28949 41.2139 6.60887C45.9585 7.00193 49.8332 10.4125 50.4307 15.1356C50.752 17.6759 51 20.704 51 24C51 27.296 50.752 30.3241 50.4307 32.8644C49.8332 37.5875 45.9585 40.9981 41.2139 41.3911C37.3588 41.7105 32.3804 42 27 42C21.6196 42 16.6412 41.7105 12.7861 41.3911C8.0415 40.9981 4.16681 37.5875 3.56934 32.8644C3.248 30.3241 3 27.296 3 24C3 20.704 3.248 17.6759 3.56934 15.1356Z" fill="#00D0BF"/>
</mask>
<g mask="url(#mask0_1_40164)">
<path d="M3 6H51V42H3V6Z" fill="#59C785"/>
<path d="M27 9L7 24L27 39L47 24L27 9Z" fill="#FCD95E"/>
</g>
<circle cx="27" cy="24" r="10" fill="#2E50A6"/>
<mask id="mask1_1_40164" style="mask-type:alpha" maskUnits="userSpaceOnUse" x="17" y="14" width="20" height="20">
<circle cx="27" cy="24" r="10" fill="#2E50A6"/>
</mask>
<g mask="url(#mask1_1_40164)">
<path fill-rule="evenodd" clip-rule="evenodd" d="M36.3804 28.7849C29.055 23.0017 19.7871 22.5145 16.1293 22.9916L15.8707 21.0084C19.8795 20.4855 29.745 20.9983 37.6196 27.2151L36.3804 28.7849Z" fill="#F5F5F5"/>
</g>
</svg>
