<svg width="54" height="48" viewBox="0 0 54 48" fill="none" xmlns="http://www.w3.org/2000/svg">
<mask id="mask0_1_41609" style="mask-type:alpha" maskUnits="userSpaceOnUse" x="3" y="6" width="48" height="36">
<path d="M3.56934 15.1356C4.16681 10.4125 8.0415 7.00193 12.7861 6.60887C16.6412 6.28949 21.6196 6 27 6C32.3804 6 37.3588 6.28949 41.2139 6.60887C45.9585 7.00193 49.8332 10.4125 50.4307 15.1356C50.752 17.6759 51 20.704 51 24C51 27.296 50.752 30.3241 50.4307 32.8644C49.8332 37.5875 45.9585 40.9981 41.2139 41.3911C37.3588 41.7105 32.3804 42 27 42C21.6196 42 16.6412 41.7105 12.7861 41.3911C8.0415 40.9981 4.16681 37.5875 3.56934 32.8644C3.248 30.3241 3 27.296 3 24C3 20.704 3.248 17.6759 3.56934 15.1356Z" fill="#00D0BF"/>
</mask>
<g mask="url(#mask0_1_41609)">
<rect x="3" y="6" width="48" height="12" fill="#EE5757"/>
<rect x="3" y="6" width="16" height="36" fill="#2E50A6"/>
<rect x="19" y="6" width="16" height="36" fill="#FCD95E"/>
<path fill-rule="evenodd" clip-rule="evenodd" d="M27.0973 16.3016C27.1052 16.28 27.1131 16.2584 27.121 16.2369L27.125 16.3122L27.129 16.2369C27.1369 16.2584 27.1449 16.28 27.1528 16.3016C27.666 17.7017 28.1978 19.1522 29.3162 20.2667C28.9637 20.1505 28.3468 20.0463 27.9502 20.0564V26.0289L29.6366 26.2793C29.6967 26.2733 29.7168 26.1791 29.7168 26.051C29.879 24.1963 30.3176 22.6381 30.8223 21.0258C30.8335 20.9576 30.9024 20.83 30.9776 20.6906C31.1454 20.3796 31.3449 20.0101 31.0046 20.1124C30.988 20.1147 30.9257 20.1367 30.8465 20.1648C30.6388 20.2384 30.3143 20.3534 30.3897 20.2607C31.287 19.3313 32.5989 18.6624 33.8727 18.4641C33.9849 18.436 34.051 18.4921 33.9508 18.6223C32.2604 21.224 30.8464 24.2944 30.8584 27.9377C30.5302 27.9377 29.9685 27.8407 29.4063 27.7436C28.8434 27.6464 28.2799 27.5491 27.9502 27.5491V31.7632H27.119L26.2998 31.7631V27.5491C25.9701 27.5491 25.4067 27.6464 24.8437 27.7436C24.2816 27.8407 23.7199 27.9377 23.3917 27.9377C23.4037 24.2944 21.9896 21.224 20.2992 18.6223C20.1991 18.4921 20.2652 18.436 20.3773 18.4641C21.6512 18.6624 22.963 19.3313 23.8603 20.2606C23.9357 20.3534 23.6113 20.2384 23.4036 20.1648C23.3243 20.1367 23.262 20.1146 23.2455 20.1124C22.9052 20.0101 23.1046 20.3796 23.2725 20.6906C23.3477 20.83 23.4166 20.9576 23.4277 21.0257C23.9324 22.6381 24.3711 24.1963 24.5333 26.051C24.5333 26.1791 24.5533 26.2733 24.6134 26.2793L26.2998 26.0289V20.0564C25.9033 20.0463 25.2864 20.1505 24.9339 20.2667C26.0523 19.1522 26.584 17.7017 27.0973 16.3016Z" fill="#2C2929"/>
<rect x="35" y="6" width="16" height="36" fill="#2E50A6"/>
</g>
</svg>
