<svg width="54" height="54" viewBox="0 0 54 54" fill="none" xmlns="http://www.w3.org/2000/svg">
<mask id="mask0_1_41609" style="mask-type:alpha" maskUnits="userSpaceOnUse" x="3" y="9" width="48" height="36">
<path d="M3.56934 18.1356C4.16681 13.4125 8.0415 10.0019 12.7861 9.60887C16.6412 9.28949 21.6196 9 27 9C32.3804 9 37.3588 9.28949 41.2139 9.60887C45.9585 10.0019 49.8332 13.4125 50.4307 18.1356C50.752 20.6759 51 23.704 51 27C51 30.296 50.752 33.3241 50.4307 35.8644C49.8332 40.5875 45.9585 43.9981 41.2139 44.3911C37.3588 44.7105 32.3804 45 27 45C21.6196 45 16.6412 44.7105 12.7861 44.3911C8.04151 43.9981 4.16681 40.5875 3.56934 35.8644C3.248 33.3241 3 30.296 3 27C3 23.704 3.248 20.6759 3.56934 18.1356Z" fill="#00D0BF"/>
</mask>
<g mask="url(#mask0_1_41609)">
<rect x="3" y="9" width="48" height="12" fill="#EE5757"/>
<rect x="3" y="9" width="16" height="36" fill="#2E50A6"/>
<rect x="19" y="9" width="16" height="36" fill="#FCD95E"/>
<path fill-rule="evenodd" clip-rule="evenodd" d="M27.0973 19.3016C27.1052 19.28 27.1131 19.2584 27.121 19.2369L27.125 19.3122L27.129 19.2369C27.1369 19.2584 27.1449 19.28 27.1528 19.3016C27.666 20.7017 28.1978 22.1522 29.3162 23.2667C28.9637 23.1505 28.3468 23.0463 27.9502 23.0564V29.0289L29.6366 29.2793C29.6967 29.2733 29.7168 29.1791 29.7168 29.051C29.879 27.1963 30.3176 25.6381 30.8223 24.0258C30.8335 23.9576 30.9024 23.83 30.9776 23.6906C31.1454 23.3796 31.3449 23.0101 31.0046 23.1124C30.988 23.1147 30.9257 23.1367 30.8465 23.1648C30.6388 23.2384 30.3143 23.3534 30.3897 23.2607C31.287 22.3313 32.5989 21.6624 33.8727 21.4641C33.9849 21.436 34.051 21.4921 33.9508 21.6223C32.2604 24.224 30.8464 27.2944 30.8584 30.9377C30.5302 30.9377 29.9685 30.8407 29.4063 30.7436C28.8434 30.6464 28.2799 30.5491 27.9502 30.5491V34.7632H27.119L26.2998 34.7631V30.5491C25.9701 30.5491 25.4067 30.6464 24.8437 30.7436C24.2816 30.8407 23.7199 30.9377 23.3917 30.9377C23.4037 27.2944 21.9896 24.224 20.2992 21.6223C20.1991 21.4921 20.2652 21.436 20.3773 21.4641C21.6512 21.6624 22.963 22.3313 23.8603 23.2606C23.9357 23.3534 23.6113 23.2384 23.4036 23.1648C23.3243 23.1367 23.262 23.1146 23.2455 23.1124C22.9052 23.0101 23.1046 23.3796 23.2725 23.6906C23.3477 23.83 23.4166 23.9576 23.4277 24.0257C23.9324 25.6381 24.3711 27.1963 24.5333 29.051C24.5333 29.1791 24.5533 29.2733 24.6134 29.2793L26.2998 29.0289V23.0564C25.9033 23.0463 25.2864 23.1505 24.9339 23.2667C26.0523 22.1522 26.584 20.7017 27.0973 19.3016Z" fill="#2C2929"/>
<rect x="35" y="9" width="16" height="36" fill="#2E50A6"/>
</g>
</svg>
