<svg width="54" height="48" viewBox="0 0 54 48" fill="none" xmlns="http://www.w3.org/2000/svg">
<mask id="mask0_1_41621" style="mask-type:alpha" maskUnits="userSpaceOnUse" x="3" y="6" width="48" height="36">
<path d="M3.56934 15.1356C4.16681 10.4125 8.0415 7.00193 12.7861 6.60887C16.6412 6.28949 21.6196 6 27 6C32.3804 6 37.3588 6.28949 41.2139 6.60887C45.9585 7.00193 49.8332 10.4125 50.4307 15.1356C50.752 17.6759 51 20.704 51 24C51 27.296 50.752 30.3241 50.4307 32.8644C49.8332 37.5875 45.9585 40.9981 41.2139 41.3911C37.3588 41.7105 32.3804 42 27 42C21.6196 42 16.6412 41.7105 12.7861 41.3911C8.0415 40.9981 4.16681 37.5875 3.56934 32.8644C3.248 30.3241 3 27.296 3 24C3 20.704 3.248 17.6759 3.56934 15.1356Z" fill="#00D0BF"/>
</mask>
<g mask="url(#mask0_1_41621)">
<rect x="3" y="6" width="48" height="36" fill="#FCD95E"/>
<path d="M1 21V15L53 34V40L1 21Z" fill="black"/>
<path d="M1 15V9L53 28V34L1 15Z" fill="#F5F5F5"/>
<path d="M25.7628 33.3861C24.7977 33.2607 23.9128 32.96 23.2982 32.548C23.179 32.468 23.0669 32.4026 23.0494 32.4026C23.0315 32.4026 23.017 32.4914 23.017 32.6012C23.017 32.9122 22.8894 33.0689 22.5684 33.1504C22.2613 33.2285 21.7927 33.0708 21.4128 32.7623C21.0195 32.4426 20.5654 32.1985 20.181 32.1009C19.8645 32.0199 19.4442 32.0331 19.1406 32.1326C18.9995 32.179 18.839 32.2444 18.7832 32.2781C18.7279 32.3118 18.6655 32.3391 18.6456 32.3391C18.5918 32.3391 18.5992 32.0047 18.6556 31.8978C18.7298 31.7577 18.9128 31.6196 19.1262 31.5435C19.2338 31.5049 19.3221 31.4556 19.3221 31.4336C19.3221 31.4117 19.2857 31.3311 19.2413 31.2555C19.0967 31.0075 19.1561 30.7673 19.4083 30.5784C19.6665 30.3851 20.1037 30.352 20.4901 30.496C20.5873 30.5321 20.678 30.5618 20.6915 30.5618C20.7423 30.5618 20.7114 30.492 20.5713 30.2924C20.4098 30.061 20.3779 29.9468 20.3979 29.6715C20.4238 29.323 20.7139 29.0379 21.0693 29.0125C21.3595 28.992 21.5399 29.0877 21.9682 29.487C23.2468 30.681 24.6372 31.3389 26.2588 31.5171C26.6681 31.562 27.4916 31.5381 27.9747 31.4668C29.4338 31.2516 30.9039 30.533 32.052 29.4743C32.37 29.1809 32.5231 29.1033 32.7838 29.1024C33.0106 29.1014 33.1697 29.1731 33.3322 29.3489C33.4802 29.5099 33.5306 29.6627 33.5146 29.9073C33.5042 30.064 33.4782 30.1411 33.383 30.2929C33.2424 30.5169 33.2664 30.5374 33.5445 30.432C33.9204 30.2885 34.3835 30.3549 34.6333 30.5872C34.8531 30.7918 34.8741 30.9963 34.7031 31.2735C34.6408 31.3751 34.5899 31.4702 34.5899 31.4854C34.5899 31.5132 34.6373 31.5264 34.8656 31.5625C35.1642 31.6094 35.3352 31.8266 35.3352 32.1585C35.3352 32.2581 35.3227 32.3391 35.3073 32.3391C35.2923 32.3391 35.1791 32.2986 35.056 32.2488C34.708 32.1082 34.5101 32.0721 34.1034 32.0745C33.7938 32.0765 33.6871 32.0907 33.4712 32.1595C33.1407 32.2654 32.7873 32.4694 32.4992 32.7208C32.1816 32.9981 31.9817 33.0854 31.6726 33.083C31.3855 33.0801 31.1891 32.9986 31.0854 32.838C31.0301 32.7521 31.0221 32.6998 31.0355 32.5056C31.0445 32.3791 31.0425 32.2756 31.032 32.2756C31.0211 32.2756 30.9094 32.345 30.7833 32.4304C30.4523 32.653 30.2414 32.7633 29.8625 32.9102C28.707 33.3578 27.0395 33.5516 25.7628 33.3861Z" fill="#CF1126"/>
<path d="M26.2912 31.2115C24.3679 31.0307 22.5278 30.0499 21.4089 28.4948C20.194 26.8725 19.8111 24.7305 20.182 22.772C20.3791 21.8803 20.7766 20.9881 21.4554 20.3532C20.9145 21.476 20.7317 22.763 21.0202 23.9794C21.4683 26.408 23.5644 28.4638 26.0721 28.8195C27.0641 29.1007 28.0904 28.8037 29.038 28.5025C31.1285 27.7811 32.7209 25.8382 32.9152 23.6662C33.0816 22.4909 32.8973 21.2689 32.3566 20.2047C32.6648 20.3642 33.0538 20.9899 33.2832 21.4107C34.081 22.924 34.1174 24.7375 33.6478 26.3524C33.0107 28.4073 31.4062 30.2075 29.2853 30.8618C28.3228 31.1697 27.2991 31.2636 26.2913 31.2117L26.2912 31.2115Z" fill="#CF1126"/>
<path d="M16.6042 28.5136C16.4781 28.4943 16.3392 28.6157 16.3867 28.7429C16.4776 28.8714 16.6341 28.9343 16.7754 28.9957C17.114 29.1286 17.4823 29.1804 17.8458 29.1717C17.7205 29.1714 17.8888 29.173 17.9356 29.1717C18.2234 29.1725 18.5097 29.1217 18.7802 29.0262C18.9307 28.9744 19.1224 28.9274 19.1841 28.7645C19.2442 28.6583 19.1352 28.5523 19.0253 28.5736C18.8721 28.6063 18.729 28.6743 18.5771 28.713C18.2495 28.8035 17.9044 28.8385 17.565 28.8112C17.3168 28.7816 17.0763 28.7038 16.8466 28.609C16.767 28.5746 16.6923 28.5244 16.6041 28.5136L16.6042 28.5136Z" fill="#CF1126"/>
<path d="M16.7443 28.007C16.6168 27.9884 16.5071 28.132 16.5602 28.2466C16.6582 28.3856 16.8228 28.4596 16.9768 28.5247C17.2445 28.6296 17.5353 28.6735 17.823 28.6651C17.7137 28.6648 17.8605 28.6664 17.901 28.6651C18.1456 28.6654 18.389 28.618 18.6151 28.5269C18.7534 28.4742 18.9227 28.4232 18.9802 28.2742C19.0249 28.1923 18.9909 28.0732 18.8855 28.0668C18.7894 28.0622 18.7064 28.1221 18.6174 28.149C18.2942 28.2799 17.9384 28.3354 17.5898 28.3059C17.3726 28.2785 17.1651 28.2001 16.9682 28.1091C16.8942 28.0741 16.8276 28.0195 16.7443 28.007L16.7443 28.007Z" fill="#CF1126"/>
<path d="M16.9163 27.5213C16.8071 27.5085 16.7319 27.6291 16.7503 27.7254C16.7666 27.8101 16.8442 27.8669 16.9083 27.9188C17.174 28.109 17.5107 28.19 17.8368 28.1794C17.7101 28.179 18.0068 28.1815 17.9163 28.1791C18.1229 28.1783 18.327 28.1288 18.5128 28.0412C18.6369 27.9884 18.7826 27.9272 18.8244 27.7885C18.8444 27.7239 18.8569 27.631 18.7825 27.5947C18.7045 27.552 18.6271 27.6177 18.5562 27.6443C18.3175 27.7632 18.0515 27.8294 17.7832 27.8282C17.5514 27.8359 17.3329 27.7404 17.1317 27.6375C17.0588 27.6011 16.9986 27.5378 16.9163 27.5213L16.9163 27.5213Z" fill="#CF1126"/>
<path d="M15.0842 20.3522C14.9218 20.5114 15.0458 20.8048 15.0371 21.0133C15.1212 21.6556 15.2257 22.306 15.4706 22.9106C15.7705 23.5014 16.4074 23.8172 16.7933 24.3393C16.9313 24.5909 16.8823 24.8935 16.9114 25.1688C16.9342 25.9188 16.9271 26.6694 16.9137 27.4196C17.2596 27.5895 17.6352 27.7606 18.0331 27.6952C18.269 27.6401 18.7067 27.6058 18.7558 27.3758C18.7367 26.0823 18.7244 24.7883 18.7068 23.4949C18.5727 23.0987 18.1609 22.8936 17.8529 22.64C17.5987 22.3947 17.3622 22.1307 17.1456 21.8542C17.0149 21.6386 16.5041 21.5609 16.6889 21.936C16.7973 22.2608 17.0738 22.5028 17.143 22.8441C17.1581 23.0311 17.3862 23.3751 17.1915 23.4842C17.0677 23.2781 16.8883 23.1027 16.659 22.9981C16.4381 22.8368 16.0728 22.7697 15.9931 22.4848C15.9345 22.0806 15.7231 21.7144 15.4503 21.4116C15.5206 21.0486 15.4506 20.5946 15.1301 20.3626L15.0842 20.3522H15.0842L15.0842 20.3522Z" fill="#CF1126"/>
<path d="M15.5783 20.4249C15.4306 20.4483 15.4356 20.6326 15.5039 20.7295C15.5766 20.9388 15.5964 21.1661 15.5571 21.384C15.8197 21.685 16.023 22.0451 16.0843 22.4403C16.0858 22.5889 16.2454 22.638 16.349 22.7114C16.5918 22.8628 16.8648 22.9727 17.0811 23.1621C17.1266 23.2098 17.1609 23.2611 17.1287 23.1638C17.095 23.0395 17.0776 22.9023 16.9782 22.8082C16.8418 22.6648 16.6716 22.5367 16.473 22.4929C16.4565 22.2921 16.3588 22.1077 16.2686 21.93C16.1685 21.7602 16.064 21.5783 15.8926 21.4681C15.8995 21.1705 15.8946 20.8582 15.7637 20.5836C15.7254 20.513 15.6689 20.4292 15.5783 20.4249H15.5783Z" fill="#CF1126"/>
<path d="M15.9915 20.5436C15.8886 20.5735 15.9083 20.6978 15.9408 20.7738C15.9901 20.9845 15.9979 21.202 15.9938 21.4173C16.1828 21.5638 16.301 21.7761 16.4087 21.9829C16.4761 22.121 16.5401 22.2636 16.566 22.4156C16.7193 22.4653 16.8535 22.5594 16.9733 22.6634C16.9258 22.5228 16.8199 22.4139 16.7488 22.2854C16.6714 22.1518 16.5976 22.0125 16.5648 21.8611C16.4173 21.707 16.3361 21.4887 16.3684 21.2777C16.375 21.0446 16.2981 20.8037 16.1388 20.628C16.0986 20.5893 16.0507 20.5465 15.9915 20.5436L15.9915 20.5436Z" fill="#CF1126"/>
<path d="M16.4616 20.6095C16.4057 20.6192 16.3716 20.6713 16.3417 20.7138C16.3301 20.7564 16.3834 20.8022 16.3919 20.8485C16.4574 21.0092 16.4821 21.1855 16.4625 21.3574C16.4582 21.4795 16.5028 21.5988 16.5664 21.7023C16.5847 21.626 16.657 21.5711 16.7352 21.5636C16.7637 21.5587 16.8055 21.5728 16.789 21.5303C16.7691 21.2967 16.7327 21.0618 16.6493 20.8411C16.617 20.7623 16.5803 20.6793 16.5106 20.6254C16.4964 20.6155 16.4795 20.6071 16.4616 20.6095L16.4616 20.6095Z" fill="#CF1126"/>
<path d="M37.3958 28.5136C37.5219 28.4943 37.6608 28.6157 37.6133 28.7429C37.5224 28.8714 37.3659 28.9343 37.2246 28.9957C36.886 29.1286 36.5177 29.1804 36.1542 29.1717C36.2795 29.1714 36.1112 29.173 36.0644 29.1717C35.7766 29.1725 35.4903 29.1217 35.2198 29.0262C35.0693 28.9744 34.8776 28.9274 34.8159 28.7645C34.7558 28.6583 34.8648 28.5523 34.9747 28.5736C35.1279 28.6063 35.271 28.6743 35.4229 28.713C35.7505 28.8035 36.0956 28.8385 36.435 28.8112C36.6832 28.7816 36.9237 28.7038 37.1534 28.609C37.233 28.5746 37.3077 28.5244 37.3959 28.5136L37.3958 28.5136Z" fill="#CF1126"/>
<path d="M37.2557 28.007C37.3832 27.9884 37.4929 28.132 37.4398 28.2466C37.3418 28.3856 37.1772 28.4596 37.0232 28.5247C36.7555 28.6296 36.4647 28.6735 36.177 28.6651C36.2863 28.6648 36.1395 28.6664 36.099 28.6651C35.8544 28.6654 35.611 28.618 35.3849 28.5269C35.2466 28.4742 35.0773 28.4232 35.0198 28.2742C34.9751 28.1923 35.0091 28.0732 35.1145 28.0668C35.2106 28.0622 35.2936 28.1221 35.3826 28.149C35.7058 28.2799 36.0616 28.3354 36.4102 28.3059C36.6274 28.2785 36.8349 28.2001 37.0318 28.1091C37.1058 28.0741 37.1724 28.0195 37.2557 28.007L37.2557 28.007Z" fill="#CF1126"/>
<path d="M37.0837 27.5213C37.1929 27.5085 37.2681 27.6291 37.2497 27.7254C37.2334 27.8101 37.1558 27.8669 37.0917 27.9188C36.826 28.109 36.4893 28.19 36.1632 28.1794C36.2899 28.179 35.9932 28.1815 36.0837 28.1791C35.8771 28.1783 35.673 28.1288 35.4872 28.0412C35.3631 27.9884 35.2174 27.9272 35.1756 27.7885C35.1556 27.7239 35.1431 27.631 35.2175 27.5947C35.2955 27.552 35.3729 27.6177 35.4438 27.6443C35.6825 27.7632 35.9485 27.8294 36.2168 27.8282C36.4486 27.8359 36.6671 27.7404 36.8683 27.6375C36.9412 27.6011 37.0014 27.5378 37.0837 27.5213L37.0837 27.5213Z" fill="#CF1126"/>
<path d="M38.9158 20.3522C39.0782 20.5114 38.9542 20.8048 38.9629 21.0133C38.8788 21.6556 38.7743 22.306 38.5294 22.9106C38.2295 23.5014 37.5926 23.8172 37.2067 24.3393C37.0687 24.5909 37.1177 24.8935 37.0886 25.1688C37.0658 25.9188 37.0729 26.6694 37.0863 27.4196C36.7404 27.5895 36.3648 27.7606 35.9669 27.6952C35.731 27.6401 35.2933 27.6058 35.2442 27.3758C35.2633 26.0823 35.2756 24.7883 35.2932 23.4949C35.4273 23.0987 35.8391 22.8936 36.1471 22.64C36.4013 22.3947 36.6378 22.1307 36.8544 21.8542C36.9851 21.6386 37.4959 21.5609 37.3111 21.936C37.2027 22.2608 36.9262 22.5028 36.857 22.8441C36.8419 23.0311 36.6138 23.3751 36.8085 23.4842C36.9323 23.2781 37.1117 23.1027 37.341 22.9981C37.5619 22.8368 37.9272 22.7697 38.0069 22.4848C38.0655 22.0806 38.2769 21.7144 38.5497 21.4116C38.4794 21.0486 38.5494 20.5946 38.8699 20.3626L38.9158 20.3522H38.9158L38.9158 20.3522Z" fill="#CF1126"/>
<path d="M38.4217 20.4249C38.5694 20.4483 38.5644 20.6326 38.4961 20.7295C38.4234 20.9388 38.4036 21.1661 38.4429 21.384C38.1803 21.685 37.977 22.0451 37.9157 22.4403C37.9142 22.5889 37.7546 22.638 37.651 22.7114C37.4082 22.8628 37.1352 22.9727 36.9189 23.1621C36.8734 23.2098 36.8391 23.2611 36.8713 23.1638C36.905 23.0395 36.9224 22.9023 37.0218 22.8082C37.1582 22.6648 37.3284 22.5367 37.527 22.4929C37.5435 22.2921 37.6412 22.1077 37.7314 21.93C37.8315 21.7602 37.936 21.5783 38.1074 21.4681C38.1005 21.1705 38.1054 20.8582 38.2363 20.5836C38.2746 20.513 38.3311 20.4292 38.4217 20.4249H38.4217Z" fill="#CF1126"/>
<path d="M38.0085 20.5436C38.1114 20.5735 38.0917 20.6978 38.0592 20.7738C38.0099 20.9845 38.0021 21.202 38.0062 21.4173C37.8172 21.5638 37.699 21.7761 37.5913 21.9829C37.5239 22.121 37.4599 22.2636 37.434 22.4156C37.2807 22.4653 37.1465 22.5594 37.0267 22.6634C37.0742 22.5228 37.1801 22.4139 37.2512 22.2854C37.3286 22.1518 37.4024 22.0125 37.4352 21.8611C37.5827 21.707 37.6639 21.4887 37.6316 21.2777C37.625 21.0446 37.7019 20.8037 37.8612 20.628C37.9014 20.5893 37.9493 20.5465 38.0085 20.5436L38.0085 20.5436Z" fill="#CF1126"/>
<path d="M37.5384 20.6095C37.5943 20.6192 37.6284 20.6713 37.6583 20.7138C37.6699 20.7564 37.6166 20.8022 37.6081 20.8485C37.5426 21.0092 37.5179 21.1855 37.5375 21.3574C37.5418 21.4795 37.4972 21.5988 37.4336 21.7023C37.4153 21.626 37.343 21.5711 37.2648 21.5636C37.2363 21.5587 37.1945 21.5728 37.211 21.5303C37.2309 21.2967 37.2673 21.0618 37.3507 20.8411C37.383 20.7623 37.4197 20.6793 37.4894 20.6254C37.5036 20.6155 37.5205 20.6071 37.5384 20.6095L37.5384 20.6095Z" fill="#CF1126"/>
<path d="M26.7563 28.8105C26.0837 28.7478 25.4768 28.2677 25.2693 27.639C25.2805 27.5307 25.4182 27.6996 25.4832 27.7109C25.6054 27.7773 25.7375 27.832 25.8781 27.8405C26.0554 27.9151 26.1651 28.0862 26.3343 28.1755C26.4129 28.2354 26.691 28.3532 26.6393 28.1626C26.5742 28.063 26.5294 27.9368 26.5854 27.8228C26.6798 27.6202 26.8248 27.4438 26.9708 27.2748C27.0781 27.2396 27.15 27.4469 27.2268 27.5167C27.333 27.6768 27.4611 27.8721 27.3986 28.0709C27.3378 28.1445 27.2978 28.366 27.4604 28.2916C27.6609 28.2052 27.8251 28.0601 27.9914 27.9246C28.1369 27.8251 28.3231 27.8181 28.4756 27.7309C28.5463 27.7133 28.6935 27.5749 28.7241 27.6517C28.6406 27.8707 28.5007 28.0669 28.3512 28.2477C28.1089 28.5186 27.7813 28.7224 27.4147 28.7799C27.198 28.8187 26.9757 28.8269 26.7563 28.8105L26.7563 28.8105Z" fill="#CF1126"/>
<path d="M27.5469 28.0412C27.5617 27.909 27.531 27.774 27.462 27.6539C27.3562 27.4427 27.2067 27.2552 27.061 27.07C26.9235 26.9912 26.8472 27.2486 26.7558 27.3224C26.6134 27.5312 26.4346 27.745 26.426 28.0076C26.3459 28.1297 26.1964 27.9079 26.132 27.835C26.009 27.6646 25.9159 27.463 25.9312 27.2499C25.9166 26.9065 25.9839 26.5645 26.1116 26.2453C26.2081 25.9728 26.3647 25.708 26.3488 25.4103C26.3599 25.1863 26.3135 24.9389 26.1281 24.7882C25.9517 24.6527 26.2423 24.6239 26.3346 24.6941C26.4926 24.7045 26.578 24.96 26.7223 24.8968C26.7798 24.7633 26.7913 24.6041 26.9098 24.5C27.0261 24.344 27.1477 24.5662 27.1875 24.6702C27.2696 24.7616 27.1829 24.9878 27.3162 24.9938C27.476 24.8841 27.59 24.6998 27.7944 24.6597C27.8772 24.6134 28.0189 24.6535 27.9096 24.7468C27.7583 24.8856 27.6291 25.0592 27.6016 25.2657C27.5553 25.5248 27.6215 25.7875 27.7368 26.0208C27.9585 26.4792 28.1299 26.9969 28.0178 27.5069C27.9657 27.7335 27.8085 27.9289 27.6174 28.0604C27.5932 28.0747 27.5551 28.0737 27.5469 28.0412V28.0412Z" fill="#CF1126"/>
<path d="M27.3076 24.5955C27.2351 24.4674 27.1469 24.3412 27.0248 24.2541C26.9061 24.2539 26.8329 24.4005 26.7523 24.4773C26.6957 24.5803 26.627 24.7525 26.4878 24.6178C26.2662 24.4913 26.227 24.2139 26.2285 23.9853C26.2145 23.6148 26.3669 23.2691 26.5023 22.9316C26.5884 22.7204 26.5672 22.4826 26.5146 22.2661C26.4485 22.0176 26.2447 21.8452 26.0879 21.6513C26.0986 21.5763 26.299 21.6173 26.3744 21.6316C26.5419 21.6731 26.642 21.8183 26.7668 21.9208C26.8556 21.8945 26.8194 21.7188 26.8607 21.6361C26.8638 21.5198 27.0219 21.3665 27.0871 21.533C27.1847 21.6388 27.0839 21.8485 27.2101 21.9144C27.3303 21.8709 27.3896 21.7422 27.5026 21.684C27.6137 21.6098 27.7707 21.6016 27.8903 21.6598C27.9324 21.7678 27.7587 21.8577 27.7084 21.9516C27.5064 22.1959 27.4354 22.5329 27.5219 22.8357C27.5905 23.0731 27.712 23.2948 27.754 23.5402C27.8045 23.8161 27.8028 24.1059 27.7298 24.3778C27.6863 24.5429 27.5403 24.6531 27.3896 24.7217C27.3524 24.6878 27.3328 24.638 27.3076 24.5956L27.3076 24.5955Z" fill="#CF1126"/>
<path d="M26.5539 21.533C26.3864 21.413 26.3311 21.2982 26.3311 21.0713C26.3311 20.9551 26.353 20.8921 26.4313 20.7867C26.5464 20.6305 26.5255 20.5812 26.3625 20.6271C26.1003 20.7008 25.9751 20.6334 25.9662 20.4147C25.9622 20.3078 25.9851 20.2625 26.1322 20.0897C26.2498 19.951 26.2927 19.8783 26.2693 19.8554C26.2463 19.8329 26.1072 19.951 25.8216 20.2356C25.5938 20.4626 25.3375 20.6944 25.2523 20.7511C24.7618 21.0752 24.2932 21.1255 24.0793 20.876C23.9696 20.7486 23.9756 20.6769 24.1022 20.5997C24.1606 20.5646 24.2588 20.4836 24.3211 20.4196C24.4681 20.2698 24.9063 19.9603 25.1237 19.8529C25.3002 19.7655 25.342 19.7065 25.2274 19.7065C25.0788 19.7065 24.6022 20.0101 24.2408 20.3352C24.1346 20.4313 23.9816 20.5382 23.9013 20.5729C23.7209 20.651 23.3664 20.6798 23.2089 20.629C23.0977 20.5929 22.8949 20.4055 22.8949 20.3386C22.8949 20.321 22.9412 20.282 22.9975 20.2522C23.0539 20.2229 23.1551 20.1512 23.2219 20.0941C23.511 19.8456 24.0589 19.5898 24.4936 19.5005C24.6317 19.4722 24.5808 19.4038 24.4268 19.4107C24.1282 19.4234 23.5354 19.6953 23.1815 19.9813C22.7667 20.3161 22.1411 20.2844 21.9397 19.9183C21.9048 19.8554 21.8844 19.7963 21.8943 19.787C21.9038 19.7777 22.0269 19.7416 22.168 19.7065C22.3206 19.6689 22.6227 19.5464 22.9113 19.4053C23.3654 19.1837 23.5 19.1364 23.8126 19.0871C23.9532 19.0651 23.9607 18.9977 23.8241 18.9821C23.6481 18.9616 23.3784 19.048 22.9018 19.2774C22.2897 19.5722 22.1182 19.623 21.7956 19.6045C21.5015 19.5869 21.3355 19.5132 21.0967 19.2921C20.9407 19.1471 20.7194 18.779 20.7627 18.7366C20.7732 18.7263 20.845 18.7366 20.9223 18.7585C21.008 18.7834 21.2538 18.8 21.5499 18.8005C21.9641 18.8015 22.0743 18.7908 22.2951 18.7283C22.6645 18.6238 23.1556 18.3793 23.4916 18.1337C24.1341 17.6632 24.6581 17.4743 25.3261 17.4714C25.9427 17.4689 26.3351 17.6085 26.6825 17.9536C26.8002 18.0703 26.9004 18.146 26.9168 18.1298C26.9323 18.1147 26.9492 17.9107 26.9542 17.6764C26.9542 17.6764 27.1357 17.6593 27.1741 17.7091C27.1741 18.0893 27.1785 18.1191 27.2349 18.1191C27.2718 18.1191 27.3111 18.082 27.3356 18.0244C27.3884 17.8999 27.5838 17.7296 27.7927 17.6261C28.2439 17.4021 29.0245 17.3952 29.6516 17.6095C29.9158 17.7003 30.209 17.8624 30.4881 18.0732C30.7683 18.2841 31.3411 18.5662 31.6796 18.6604C32.022 18.7556 32.6257 18.7795 32.9353 18.7107C33.0629 18.6824 33.1826 18.659 33.2015 18.659C33.3157 18.659 33.1213 19.0314 32.8929 19.2496C32.4757 19.6489 31.9328 19.6469 31.1691 19.2437C30.693 18.9928 30.1237 18.8557 30.1237 18.9924C30.1237 19.0207 30.1536 19.0397 30.198 19.0397C30.3635 19.0397 30.6831 19.1486 31.1287 19.3555C31.6108 19.5801 31.8815 19.6748 32.042 19.6748C32.1586 19.6748 32.1621 19.7455 32.0535 19.9017C31.9383 20.0682 31.7429 20.1507 31.4667 20.1502C31.203 20.1492 31.0564 20.0926 30.8206 19.9008C30.4263 19.5796 29.4438 19.2213 29.4817 19.4126C29.4891 19.4507 29.5365 19.4741 29.6377 19.4893C29.9797 19.5405 30.381 19.728 30.7917 20.0291C30.9184 20.1224 31.05 20.2141 31.0834 20.2337C31.1397 20.2659 31.1407 20.2756 31.0963 20.3571C31.0225 20.4919 30.8366 20.5963 30.6352 20.6168C30.3745 20.6432 30.1477 20.567 29.9129 20.3747C29.4173 19.9686 28.9502 19.6748 28.8007 19.6748C28.6786 19.6748 28.7334 19.7406 28.9487 19.8524C29.2319 19.9994 29.523 20.198 29.7374 20.3908C29.8386 20.4826 29.9527 20.5734 29.9906 20.5934C30.0804 20.6403 30.0769 20.7091 29.9782 20.8355C29.8775 20.9644 29.711 21.021 29.4951 20.9985C29.0644 20.9541 28.7284 20.7506 28.2005 20.2141C27.9941 20.0047 27.8101 19.8334 27.7912 19.8334C27.7209 19.8334 27.7623 19.9266 27.8984 20.076C28.0669 20.2605 28.0993 20.3645 28.0355 20.5143C27.9791 20.6471 27.8854 20.6778 27.693 20.6271C27.4961 20.5749 27.4652 20.6222 27.5943 20.7794C27.7867 21.0142 27.7583 21.3017 27.5225 21.4994C27.4492 21.5604 27.3725 21.6106 27.3515 21.6106C27.3311 21.6106 27.2792 21.5584 27.2359 21.4945C27.0843 21.269 26.9512 21.2704 26.8037 21.4984C26.7523 21.5779 26.7089 21.6424 26.7074 21.6419C26.7055 21.6414 26.6362 21.5926 26.5539 21.533Z" fill="#CF1126"/>
<path d="M27.3047 16.9515L27.049 17.1497L26.8196 16.9803V18.3343L27.3047 18.3402V16.9515Z" fill="#CF1126"/>
<path d="M25.7204 15.5467C25.6696 16.1866 25.5036 16.6332 25.2728 17.1258L25.8261 16.6235L26.211 17.0711L26.6277 16.6157L27.0529 17.0003L27.4617 16.6001L27.8865 17.0867L28.2553 16.6865L28.8805 17.1258C28.6537 16.6332 28.3466 16.2159 28.385 15.5228C27.7793 15.9635 26.3401 16.0431 25.7204 15.5467Z" fill="#CF1126"/>
<path d="M26.8201 15.2201C26.5978 15.224 26.3635 15.2269 26.1526 15.2674C26.0066 15.2958 25.874 15.3421 25.7633 15.4188C25.7813 15.8351 27.8072 16.0089 28.3506 15.4266C28.2364 15.3451 28.0968 15.2967 27.9433 15.2674C27.7404 15.2289 27.5161 15.225 27.3032 15.2216C27.3032 15.3358 27.3042 15.4505 27.3042 15.5652L26.8201 15.5637V15.2201Z" fill="#CF1126"/>
<path d="M27.2164 13.0924L26.9019 13.0948V15.5052L27.2229 15.5067L27.2164 13.0924Z" fill="#CF1126"/>
<path d="M27.216 13.1544L27.0958 14.3083L28.3082 14.8882L27.6945 14.0847L28.5325 13.8187L27.216 13.1544Z" fill="#CF1126"/>
<path d="M27.0808 12.8537C26.8969 12.8537 26.7608 12.9211 26.7608 13.0011C26.7608 13.0812 26.8969 13.149 27.0808 13.149C27.2648 13.149 27.3999 13.0812 27.3999 13.0011C27.3999 12.9211 27.2648 12.8537 27.0808 12.8537Z" fill="#CF1126"/>
<path d="M26.526 33.0981C26.7249 33.0337 26.8381 32.9156 26.9193 32.6881C26.9597 32.5749 26.9871 32.4572 26.9801 32.4265C26.9632 32.3537 26.8774 32.3576 26.7827 32.4348C26.7179 32.488 26.7099 32.5148 26.7284 32.6232C26.7757 32.8965 26.6765 32.9644 26.1481 33.02C26.0958 33.0254 25.9442 33.0166 25.8106 33.0005C25.5594 32.9697 25.4696 32.9942 25.5609 33.0684C25.5883 33.0908 25.6581 33.1211 25.7159 33.1352C25.857 33.1709 26.3749 33.1469 26.526 33.0981Z" fill="#F7E017"/>
<path d="M27.6212 33.0527C27.6511 33.0258 27.7538 32.9795 27.8495 32.9492C27.9771 32.9092 28.0429 32.8662 28.0968 32.7876C28.2518 32.5616 28.2229 32.3669 27.9951 32.1043C27.8715 31.9617 27.8166 31.9656 27.7179 32.1238C27.6327 32.2605 27.6347 32.2692 27.7573 32.3005C27.8216 32.3166 27.8834 32.363 27.9173 32.4201C28.0509 32.6466 28.0115 32.7867 27.8136 32.7881C27.6342 32.7896 27.5848 32.8145 27.5365 32.9282C27.511 32.9873 27.4906 33.0502 27.4906 33.0683C27.4906 33.1161 27.5584 33.1078 27.6212 33.0527Z" fill="#F7E017"/>
<path d="M27.2617 32.797C27.2956 32.7071 27.3076 32.5456 27.3036 32.2161C27.3011 31.9652 27.2912 31.7524 27.2812 31.7426C27.2513 31.7133 27.1037 31.8066 27.0843 31.8666C27.0743 31.8978 27.0908 31.9701 27.1207 32.0267C27.1665 32.1141 27.1725 32.1956 27.1586 32.5378C27.1406 32.9702 27.1695 33.043 27.2617 32.797Z" fill="#F7E017"/>
<path d="M26.4183 32.591C26.4363 32.5104 26.4592 32.3454 26.4697 32.2249C26.4801 32.1043 26.5056 31.952 26.5255 31.8861C26.5763 31.7172 26.525 31.6728 26.3889 31.7675L26.2877 31.8383L26.3086 32.0809C26.3281 32.2996 26.2927 32.7071 26.2413 32.8653C26.2274 32.9073 26.2473 32.8965 26.3037 32.8321C26.349 32.7804 26.4009 32.6715 26.4183 32.591Z" fill="#F7E017"/>
<path d="M25.6701 32.7086C25.8521 32.5595 25.8312 32.3049 25.8714 32.0974C25.8673 31.9596 25.9614 31.7942 25.9007 31.6736C25.7306 31.7041 25.6257 31.8618 25.7128 32.0189C25.72 32.2014 25.7134 32.4001 25.6176 32.5614C25.5394 32.6669 25.2915 32.6406 25.3029 32.4911C25.3651 32.2662 25.09 32.3756 24.9826 32.4346C24.8995 32.4912 24.7242 32.4954 24.7851 32.3537C24.7449 32.165 24.497 32.283 24.3623 32.2822C24.2351 32.2799 24.3518 32.0298 24.1692 32.0737C23.83 32.0475 23.4554 32.0767 23.1617 31.876C22.9898 31.795 23.0153 31.5926 23.1048 31.4616C23.2117 31.2827 23.2422 31.059 23.4119 30.9201C23.5798 30.7624 23.2535 30.829 23.18 30.8822C23.0164 30.9698 23.1684 31.1957 23.0344 31.3209C22.9562 31.4508 22.8532 31.6302 22.672 31.6055C22.4108 31.5571 22.2602 31.3192 22.073 31.1597C21.9126 31.1284 22.0028 31.4146 22.0856 31.4748C22.2495 31.5949 22.441 31.6825 22.6385 31.7344C22.8351 31.7036 22.8415 31.9557 23.0096 31.9952C23.3181 32.136 23.6618 32.1781 23.9983 32.1953C24.1305 32.2061 24.0562 32.4366 24.2299 32.391C24.327 32.4157 24.5464 32.3556 24.5574 32.4661C24.4102 32.6372 24.6986 32.6334 24.8054 32.6028C24.9421 32.5823 25.1168 32.5312 25.1529 32.7147C25.267 32.8324 25.4765 32.8151 25.6155 32.7477C25.635 32.7366 25.6534 32.7235 25.67 32.7086L25.6701 32.7086Z" fill="#F7E017"/>
<path d="M22.6909 31.2311C22.7463 31.1622 22.829 31.0231 22.8749 30.9216C22.9203 30.8196 22.9886 30.7039 23.0259 30.6643C23.1137 30.5716 23.0648 30.5145 22.9233 30.5452C22.8485 30.5613 22.8181 30.5882 22.8056 30.6517C22.7632 30.8586 22.6865 31.0705 22.6182 31.1691C22.4945 31.3477 22.4915 31.355 22.5424 31.355C22.5688 31.355 22.6356 31.2994 22.6909 31.2311Z" fill="#F7E017"/>
<path d="M20.8235 30.0849C20.6839 30.0849 20.678 30.1713 20.8141 30.2177C20.8799 30.2401 20.9357 30.2943 20.9806 30.3827C21.1132 30.6409 21.1909 30.6868 21.5429 30.7165L21.7687 30.7365L21.7797 30.8708C21.7852 30.945 21.8031 31.0065 21.8205 31.0065C21.838 31.0065 21.9252 30.9694 22.0135 30.9254C22.179 30.8434 22.336 30.6521 22.336 30.5335C22.336 30.4559 22.2039 30.3719 22.0838 30.3719C22.0304 30.3719 21.9287 30.4139 21.8485 30.471C21.5972 30.6492 21.3285 30.613 21.1815 30.3812C21.0608 30.1898 20.9347 30.0849 20.8235 30.0849ZM22.0429 30.5608C22.1097 30.5608 22.1261 30.6091 22.0897 30.7014C22.0648 30.7649 21.9836 30.7668 21.9591 30.7043C21.9302 30.6306 21.9706 30.5608 22.0429 30.5608Z" fill="#F7E017"/>
<path d="M31.5006 30.2607C31.4094 30.2641 31.3825 30.2836 31.3246 30.3676C31.2299 30.5052 31.2204 30.8034 31.3077 30.9089C31.362 30.9743 31.37 30.9758 31.4852 30.9289C31.6457 30.863 31.6726 30.8654 31.6721 30.9499C31.6711 31.1656 31.355 31.5815 31.024 31.8026C30.9348 31.8622 30.855 31.9286 30.8466 31.9505C30.8226 32.012 30.9453 31.9984 31.0958 31.9232C31.3012 31.8207 31.5709 31.5513 31.6816 31.3389C31.7693 31.1695 31.7818 31.1119 31.7922 30.8156C31.8017 30.5428 31.7942 30.4627 31.7469 30.3719C31.694 30.2699 31.6771 30.2607 31.5445 30.2607C31.5285 30.2607 31.5141 30.2602 31.5006 30.2607ZM31.5116 30.451C31.5804 30.451 31.5923 30.4662 31.6003 30.5628C31.6073 30.6429 31.5928 30.6917 31.5475 30.7317C31.4857 30.7864 31.4807 30.7859 31.4258 30.7044C31.3491 30.5892 31.3964 30.451 31.5116 30.451Z" fill="#F7E017"/>
<path d="M29.9981 32.5343C30.2897 32.3937 30.4617 32.2356 30.5723 32.0067C30.6247 31.8978 30.6676 31.7953 30.6676 31.7777C30.6676 31.7382 30.524 31.6728 30.4377 31.6728C30.352 31.6728 30.3346 31.6147 30.3714 31.4541C30.4073 31.2974 30.364 31.1012 30.2937 31.1012C30.2683 31.1012 30.2234 31.1378 30.1935 31.1822C30.1476 31.2511 30.1451 31.2803 30.179 31.3804C30.2289 31.5288 30.1895 31.6396 30.0539 31.7343C29.9896 31.7792 29.9542 31.8309 29.9542 31.8812C29.9542 31.9237 29.9597 31.9583 29.9662 31.9583C29.9731 31.9583 30.0439 31.9222 30.1237 31.8788L30.2693 31.7992L30.355 31.8651C30.4019 31.9012 30.4407 31.9603 30.4407 31.9964C30.4407 32.1702 29.9348 32.4621 29.5873 32.4894C29.4023 32.5041 29.3709 32.4977 29.3066 32.4352C29.2543 32.384 29.2393 32.341 29.2523 32.2805C29.2623 32.2341 29.2802 32.1497 29.2922 32.0931C29.3241 31.9417 29.2578 31.9622 29.1431 32.1389C29.0489 32.2849 29.021 32.4406 29.0738 32.5226C29.1172 32.5895 29.4053 32.6534 29.6092 32.6412C29.7373 32.6339 29.864 32.5988 29.9981 32.5343Z" fill="#F7E017"/>
<path d="M31.9443 31.4712C32.1277 31.292 32.2055 31.0738 32.2065 30.7366L32.207 30.4832L32.3585 30.4129C32.5554 30.3212 32.7419 30.1386 32.7419 30.0371C32.7419 29.9326 32.6945 29.938 32.6088 30.0517C32.5465 30.1342 32.4632 30.184 32.1586 30.3212C32.0818 30.3558 32.0769 30.3744 32.0594 30.6897C32.039 31.0533 31.9886 31.1895 31.7812 31.438C31.6541 31.5893 31.6496 31.6093 31.7379 31.6093C31.7743 31.6093 31.867 31.5473 31.9443 31.4712Z" fill="#F7E017"/>
<path d="M29.9462 31.2681C29.9637 31.2159 29.8625 31.1788 29.8186 31.2212C29.8002 31.2393 29.7952 31.2705 29.8077 31.2906C29.8366 31.3359 29.9283 31.3208 29.9462 31.2681Z" fill="#F7E017"/>
<path d="M32.7015 30.5696C32.7195 30.5174 32.6178 30.4803 32.5744 30.5228C32.5555 30.5413 32.5505 30.5725 32.5629 30.5926C32.5918 30.6379 32.6836 30.6228 32.7015 30.5696Z" fill="#F7E017"/>
<path d="M29.3854 28.6787C29.3142 28.7119 29.2772 28.7872 29.2277 28.8448C29.192 28.8685 29.2206 28.8907 29.2411 28.913C29.3669 29.0457 29.4201 29.2248 29.4798 29.3918C29.5385 29.589 29.6124 29.8008 29.551 30.0063C29.5269 30.085 29.4636 30.1664 29.3692 30.1403C29.2182 30.1311 29.0695 30.0918 28.918 30.0934C28.7832 30.1003 28.6789 30.2204 28.5411 30.2073C28.453 30.213 28.4567 30.0307 28.3749 30.0795C28.3343 30.1745 28.3543 30.2805 28.3495 30.3811C28.3647 30.3955 28.4075 30.3829 28.4332 30.3871H28.7047C28.7238 30.4789 28.7214 30.5841 28.7888 30.6571C28.883 30.6899 28.989 30.6616 29.0785 30.6257C29.1745 30.582 29.1873 30.469 29.2145 30.3809C29.2433 30.2863 29.3698 30.3111 29.4445 30.2739C29.6272 30.2217 29.7469 30.0358 29.7362 29.8529C29.7244 29.5735 29.6156 29.3108 29.5331 29.0464C29.4915 28.93 29.4627 28.8085 29.4146 28.6948C29.4089 28.685 29.3973 28.6767 29.3854 28.6787L29.3854 28.6787ZM28.9333 30.2758C29.0348 30.2693 29.0789 30.3915 29.0574 30.4725C29.0194 30.5826 28.8812 30.512 28.8532 30.4326C28.8019 30.3618 28.8336 30.2665 28.9333 30.2758L28.9333 30.2758Z" fill="#F7E017"/>
<path d="M25.1745 29.3591C25.1291 29.3581 25.0783 29.3747 25.028 29.4094C24.7632 29.591 24.6954 29.8057 24.8754 29.8897C25.0075 29.9517 24.9741 30.0244 24.7662 30.1264C24.4686 30.2719 24.2059 30.2538 23.7069 30.0518C23.5843 30.002 23.5524 30.021 23.5808 30.1308C23.6082 30.2387 23.7089 30.2978 23.9591 30.3534C24.2283 30.4139 24.5539 30.3944 24.7632 30.3061C24.8654 30.2631 24.9866 30.1728 25.0888 30.064L25.2508 29.8897L25.4392 29.9126C25.6715 29.9405 25.676 29.9429 25.676 30.0518C25.676 30.1382 25.681 30.1401 25.8944 30.1596C26.0145 30.1709 26.1725 30.1811 26.2463 30.1811C26.3405 30.1816 26.3939 30.1977 26.4253 30.2407C26.4671 30.2978 26.4921 30.3007 26.843 30.2699C27.171 30.2407 27.2353 30.2431 27.3834 30.2924C27.4886 30.3275 27.6042 30.3417 27.692 30.3324C27.9432 30.3046 28.2897 30.1035 28.34 29.9556C28.346 29.9375 28.4373 29.9058 28.5424 29.8853C28.7962 29.8355 28.8071 29.7813 28.5704 29.7525C28.4677 29.7398 28.3136 29.7032 28.2279 29.67C28.1416 29.6369 28.024 29.609 27.9662 29.609C27.8385 29.609 27.7184 29.6871 27.7184 29.7677C27.7184 29.8204 27.7373 29.8258 27.8884 29.8106C28.0305 29.7965 28.0718 29.8043 28.1466 29.8624C28.196 29.9004 28.2289 29.9453 28.2184 29.9615C28.185 30.0147 27.8884 30.1469 27.7573 30.1674C27.6695 30.1811 27.5988 30.1718 27.53 30.1372C27.4148 30.0786 27.2453 30.0698 27.2134 30.1201C27.2 30.1421 27.1636 30.1279 27.1137 30.082L27.0359 30.0103L26.86 30.082C26.681 30.1548 26.6152 30.1518 26.6152 30.0684C26.6152 30.0303 26.5629 30.0259 26.2991 30.0425C26.0085 30.061 25.9781 30.0562 25.9238 29.9966C25.8734 29.9419 25.8724 29.9229 25.9083 29.8668C25.9412 29.815 25.9412 29.7926 25.9098 29.7618C25.8784 29.7311 25.8375 29.7315 25.7229 29.7618C25.4337 29.8375 25.352 29.795 25.352 29.5739C25.352 29.4411 25.2742 29.3606 25.1745 29.3591ZM25.1027 29.5622C25.1182 29.5622 25.1311 29.5714 25.1511 29.591C25.1765 29.6159 25.19 29.6593 25.179 29.6871C25.1531 29.753 25.0304 29.7506 25.0045 29.6842C24.9921 29.652 25.008 29.6159 25.0449 29.5895C25.0708 29.571 25.0873 29.5617 25.1027 29.5622Z" fill="#F7E017"/>
<path d="M24.5843 29.7681C24.7603 29.6588 24.7563 29.6671 24.7817 29.3634C24.7992 29.1492 24.7962 29.133 24.7368 29.133C24.6506 29.133 24.6057 29.2258 24.6057 29.4025C24.6057 29.5157 24.5878 29.5665 24.526 29.6265C24.3794 29.77 24.0155 29.7046 23.9696 29.5265C23.9542 29.4655 23.9741 29.4103 24.0504 29.3044C24.2094 29.0833 24.1735 29.0291 23.9786 29.197C23.8445 29.3117 23.8206 29.3151 23.846 29.216C23.8694 29.1247 23.8206 29.0886 23.7114 29.1155C23.6556 29.1291 23.6252 29.1633 23.6117 29.2297C23.5988 29.2946 23.5683 29.3307 23.5155 29.3434C23.4273 29.3654 23.2767 29.2834 23.2767 29.2136C23.2767 29.1618 23.502 28.8924 23.7912 28.5985C23.9003 28.4873 23.9896 28.3838 23.9896 28.3682C23.9896 28.3525 23.9313 28.3398 23.86 28.3398C23.7558 28.3398 23.7304 28.3511 23.7304 28.3984C23.7304 28.4306 23.5848 28.6176 23.4063 28.8143C23.0344 29.2243 23.0035 29.3097 23.1875 29.4191C23.3355 29.5079 23.5255 29.5011 23.6745 29.402L23.7952 29.3215V29.4674C23.7952 29.6539 23.8331 29.7207 23.9826 29.7984C24.1705 29.8955 24.3979 29.8838 24.5843 29.7681Z" fill="#F7E017"/>
<path d="M32.3889 27.2343C32.251 27.3149 32.3589 27.4843 32.3798 27.5969C32.3235 27.7504 32.122 27.7918 31.9751 27.8203C31.7671 27.854 31.6196 28.0245 31.5405 28.2055C31.4976 28.3231 31.3941 28.5055 31.2813 28.3264C31.1833 28.2291 31.003 28.152 30.8871 28.2656C30.799 28.3477 30.7767 28.4685 30.7438 28.5781C30.6919 28.4939 30.6686 28.3684 30.5584 28.3418C30.3825 28.366 30.4461 28.5831 30.5288 28.6726C30.6039 28.7769 30.6761 28.9146 30.6025 29.0385C30.5375 29.1875 30.3129 29.288 30.1809 29.1605C30.0577 29.0968 30.1401 28.8694 30.0187 28.8569C29.9587 28.8993 29.9537 29.1373 29.8576 29.0083C29.7883 28.8981 29.8251 28.7471 29.7403 28.6479C29.64 28.6601 29.5594 28.829 29.5928 28.9198C29.7265 29.0964 29.7815 29.3179 29.8336 29.5283C29.8661 29.6126 29.8289 29.7835 29.9094 29.8169C29.9652 29.6812 29.9134 29.5274 29.9573 29.3904C30.0878 29.3744 30.233 29.4327 30.3699 29.4017C30.5657 29.3768 30.717 29.215 30.7857 29.0427C30.8065 28.9131 30.7818 28.7816 30.7781 28.6513C30.9328 28.6748 31.0936 28.6743 31.2424 28.7235C31.3162 28.8344 31.219 28.9895 31.1986 29.1106C31.1209 29.3572 30.9236 29.5362 30.7317 29.7011C30.6514 29.7476 30.6406 29.8708 30.7592 29.8045C31.0171 29.6965 31.2093 29.4678 31.3199 29.2202C31.4006 29.0298 31.3357 28.8176 31.3884 28.6229C31.4663 28.4766 31.6537 28.5074 31.7924 28.5079C31.9359 28.5025 32.0584 28.3388 32.0105 28.2022C31.9648 28.0437 32.136 27.9674 32.253 27.9108C32.4082 27.8341 32.5271 27.6784 32.5151 27.5028C32.5087 27.4129 32.5133 27.2425 32.3889 27.2343L32.3889 27.2343ZM31.839 28.1495C32.0052 28.1927 31.8089 28.5035 31.7206 28.3066C31.6934 28.2315 31.758 28.1468 31.839 28.1495ZM31.0678 28.3721C31.2841 28.3597 31.2064 28.6689 31.0237 28.5285C30.929 28.4819 30.9603 28.3663 31.0678 28.3721Z" fill="#F7E017"/>
<path d="M23.2383 29.567C23.2443 29.5362 23.2284 29.5143 23.1999 29.5143C23.1396 29.5143 23.1032 29.566 23.1317 29.6109C23.1611 29.6573 23.2259 29.6309 23.2383 29.567Z" fill="#F7E017"/>
<path d="M25.7728 29.2898C25.7728 29.2444 25.7553 29.2273 25.7164 29.2346C25.6317 29.2502 25.6222 29.3557 25.7055 29.3557C25.7518 29.3557 25.7728 29.3352 25.7728 29.2898Z" fill="#F7E017"/>
<path d="M22.6366 27.8C22.5354 27.7797 22.4718 27.8635 22.4372 27.9434C22.3615 28.0679 22.2692 28.1952 22.1334 28.2611C22.0358 28.2877 21.9294 28.2513 21.8452 28.2021C21.7448 28.1531 21.7676 28.0348 21.7246 27.9531C21.6519 27.8972 21.5231 27.9771 21.526 28.064C21.518 28.1804 21.6292 28.2477 21.7216 28.2927C21.8001 28.3398 21.9139 28.366 21.9453 28.4613C21.9431 28.5423 21.9764 28.6349 22.0771 28.6037C22.1897 28.6018 22.2189 28.7362 22.1734 28.8168C22.1271 28.9077 22.0958 29.0141 22.118 29.1153C22.1718 29.1597 22.2268 29.0406 22.2658 29.0066C22.2923 28.9721 22.3188 28.9375 22.3453 28.9029C22.5446 28.9135 22.7437 28.9384 22.9435 28.9314C23.0856 28.9289 23.2066 28.843 23.297 28.7423C23.4248 28.6114 23.5298 28.4577 23.6757 28.3448C23.7796 28.32 23.7238 28.1284 23.6153 28.1838C23.5175 28.2197 23.4868 28.3278 23.419 28.3967C23.3036 28.5335 23.1859 28.6724 23.0405 28.7796C22.9345 28.8226 22.8126 28.8038 22.7038 28.7796C22.6584 28.7407 22.794 28.709 22.8129 28.6658C22.8753 28.6048 22.9494 28.5468 22.9856 28.4666C22.951 28.3927 22.8451 28.3867 22.7706 28.3852C22.5868 28.4068 22.4465 28.5578 22.2609 28.5721C22.1201 28.5769 22.1934 28.4275 22.2569 28.3766C22.3811 28.2321 22.5153 28.0961 22.645 27.9564C22.6818 27.9131 22.8149 27.8719 22.7298 27.811C22.7 27.8005 22.6678 27.8005 22.6366 27.8L22.6366 27.8ZM22.7269 28.5307C22.8196 28.5817 22.6678 28.6653 22.6039 28.6538C22.52 28.6785 22.5185 28.5947 22.593 28.578C22.6349 28.5567 22.6791 28.5344 22.7269 28.5307ZM22.4419 28.7214C22.4946 28.7204 22.6051 28.77 22.5013 28.8018C22.4291 28.8566 22.3475 28.7459 22.4419 28.7214Z" fill="#F7E017"/>
<path d="M24.6865 28.8476C24.6865 28.7787 24.5604 28.7885 24.5464 28.8583C24.5374 28.9032 24.5519 28.9139 24.6107 28.9056C24.6526 28.8998 24.6865 28.8739 24.6865 28.8476Z" fill="#F7E017"/>
<path d="M30.2723 28.3633C30.2852 28.2974 30.1915 28.2535 30.1422 28.3018C30.0928 28.3501 30.1382 28.4419 30.205 28.4292C30.2359 28.4233 30.2663 28.3936 30.2723 28.3633Z" fill="#F7E017"/>
<path d="M21.5793 27.6931C21.667 27.6194 21.668 27.6145 21.6301 27.4525C21.5763 27.2255 21.5798 27.2011 21.668 27.1796C21.7797 27.1518 22.0633 27.3007 22.1261 27.4198C22.175 27.512 22.1735 27.5184 22.0907 27.5935C22.0015 27.6741 22.002 27.7683 22.0912 27.7683C22.165 27.7683 22.3689 27.5794 22.3689 27.5115C22.3689 27.4173 22.1426 27.1947 21.9636 27.1132C21.853 27.0625 21.7423 27.039 21.6142 27.0385C21.3849 27.0385 21.3539 27.0869 21.4158 27.348C21.4885 27.6541 21.3898 27.6955 21.1381 27.4647C20.9512 27.2933 20.8774 27.1152 20.8784 26.8345C20.8789 26.5333 20.9965 26.3844 21.2617 26.3493C21.4377 26.3264 21.4332 26.2858 21.2523 26.2595C20.988 26.2204 20.7647 26.3932 20.68 26.7017C20.5857 27.0439 20.8016 27.4608 21.1835 27.6755C21.3834 27.7878 21.4631 27.7912 21.5793 27.6931Z" fill="#F7E017"/>
<path d="M31.9901 27.3177C32.0116 27.2968 32.029 27.2494 32.029 27.2128C32.029 27.1762 32.0654 27.0976 32.1098 27.0385C32.1546 26.9795 32.191 26.9189 32.191 26.9043C32.191 26.8443 32.0898 26.8462 32.0101 26.9082C31.9283 26.9707 31.867 26.9722 31.867 26.9111C31.867 26.896 31.9059 26.8648 31.9537 26.8418C32.0724 26.7852 32.0823 26.7291 31.9821 26.6842C31.8535 26.627 31.7244 26.7315 31.711 26.9038C31.7025 27.019 31.712 27.039 31.8027 27.0913C31.8854 27.1391 31.9009 27.1645 31.8869 27.2328C31.863 27.3514 31.9134 27.3929 31.9901 27.3177Z" fill="#F7E017"/>
<path d="M32.9687 27.2094C33.0405 27.1464 33.0988 27.0747 33.0988 27.0507C33.0988 27.0268 33.1606 26.9634 33.2364 26.9102C33.4512 26.7588 33.4986 26.6061 33.4024 26.3713C33.365 26.279 33.2474 26.1516 32.9916 25.9261C32.7952 25.7523 32.6142 25.6103 32.5908 25.6103C32.521 25.6103 32.5335 25.8617 32.6043 25.8836C32.7319 25.9237 32.8092 25.9749 33.0101 26.1521C33.2434 26.3586 33.351 26.5514 33.2922 26.6588C33.2359 26.7627 33.1611 26.7305 32.9552 26.5143C32.8471 26.4006 32.7399 26.3078 32.7179 26.3078C32.694 26.3083 32.6771 26.3493 32.6771 26.4069C32.6771 26.4791 32.7164 26.548 32.8231 26.6641C32.9971 26.8535 33.0141 26.9673 32.8834 27.0678C32.8366 27.1039 32.7882 27.1337 32.7763 27.1337C32.7648 27.1337 32.7264 27.0771 32.6915 27.0083C32.6187 26.8638 32.1736 26.4035 32.1068 26.4035C32.0764 26.4035 32.0614 26.4406 32.0614 26.5138C32.0614 26.6022 32.0793 26.6334 32.1511 26.6695C32.2394 26.7144 32.4577 26.9297 32.6771 27.1894C32.7399 27.2636 32.8017 27.3236 32.8151 27.3241C32.8281 27.3241 32.8974 27.2723 32.9687 27.2094Z" fill="#F7E017"/>
<path d="M33.4054 25.9857C33.3765 25.8944 32.7793 25.2925 32.718 25.2925C32.6861 25.2925 32.6761 25.3296 32.6836 25.4253C32.692 25.5415 32.705 25.5615 32.7868 25.5825C32.8376 25.5957 32.9951 25.7167 33.1362 25.851C33.2768 25.9852 33.4004 26.0872 33.4104 26.077C33.4204 26.0672 33.4184 26.0262 33.4054 25.9857Z" fill="#F7E017"/>
<path d="M29.8385 32.7598C29.8385 32.781 29.8292 32.8012 29.8125 32.8162C29.7959 32.8311 29.7733 32.8395 29.7498 32.8395C29.7262 32.8395 29.7037 32.8311 29.687 32.8162C29.6704 32.8012 29.661 32.781 29.661 32.7598C29.661 32.7387 29.6704 32.7185 29.687 32.7035C29.7037 32.6886 29.7262 32.6802 29.7498 32.6802C29.7733 32.6802 29.7959 32.6886 29.8125 32.7035C29.8292 32.7185 29.8385 32.7387 29.8385 32.7598Z" fill="#F7E017"/>
<path d="M30.1521 32.6573C30.1521 32.6784 30.1428 32.6987 30.1261 32.7136C30.1095 32.7286 30.0869 32.737 30.0634 32.737C30.0398 32.737 30.0173 32.7286 30.0006 32.7136C29.984 32.6987 29.9746 32.6784 29.9746 32.6573C29.9746 32.6362 29.984 32.6159 30.0006 32.601C30.0173 32.586 30.0398 32.5776 30.0634 32.5776C30.0869 32.5776 30.1095 32.586 30.1261 32.601C30.1428 32.6159 30.1521 32.6362 30.1521 32.6573Z" fill="#F7E017"/>
</g>
</svg>
