<svg width="54" height="54" viewBox="0 0 54 54" fill="none" xmlns="http://www.w3.org/2000/svg">
<mask id="mask0_1_41621" style="mask-type:alpha" maskUnits="userSpaceOnUse" x="3" y="9" width="48" height="36">
<path d="M3.56934 18.1356C4.16681 13.4125 8.0415 10.0019 12.7861 9.60887C16.6412 9.28949 21.6196 9 27 9C32.3804 9 37.3588 9.28949 41.2139 9.60887C45.9585 10.0019 49.8332 13.4125 50.4307 18.1356C50.752 20.6759 51 23.704 51 27C51 30.296 50.752 33.3241 50.4307 35.8644C49.8332 40.5875 45.9585 43.9981 41.2139 44.3911C37.3588 44.7105 32.3804 45 27 45C21.6196 45 16.6412 44.7105 12.7861 44.3911C8.04151 43.9981 4.16681 40.5875 3.56934 35.8644C3.248 33.3241 3 30.296 3 27C3 23.704 3.248 20.6759 3.56934 18.1356Z" fill="#00D0BF"/>
</mask>
<g mask="url(#mask0_1_41621)">
<rect x="3" y="9" width="48" height="36" fill="#FCD95E"/>
<path d="M1 24V18L53 37V43L1 24Z" fill="black"/>
<path d="M1 18V12L53 31V37L1 18Z" fill="#F5F5F5"/>
<path d="M25.7628 36.3861C24.7977 36.2607 23.9128 35.96 23.2982 35.548C23.179 35.468 23.0669 35.4026 23.0494 35.4026C23.0315 35.4026 23.017 35.4914 23.017 35.6012C23.017 35.9122 22.8894 36.0689 22.5684 36.1504C22.2613 36.2285 21.7927 36.0708 21.4128 35.7623C21.0195 35.4426 20.5654 35.1985 20.181 35.1009C19.8645 35.0199 19.4442 35.0331 19.1406 35.1326C18.9995 35.179 18.839 35.2444 18.7832 35.2781C18.7279 35.3118 18.6655 35.3391 18.6456 35.3391C18.5918 35.3391 18.5992 35.0047 18.6556 34.8978C18.7298 34.7577 18.9128 34.6196 19.1262 34.5435C19.2338 34.5049 19.3221 34.4556 19.3221 34.4336C19.3221 34.4117 19.2857 34.3311 19.2413 34.2555C19.0967 34.0075 19.1561 33.7673 19.4083 33.5784C19.6665 33.3851 20.1037 33.352 20.4901 33.496C20.5873 33.5321 20.678 33.5618 20.6915 33.5618C20.7423 33.5618 20.7114 33.492 20.5713 33.2924C20.4098 33.061 20.3779 32.9468 20.3979 32.6715C20.4238 32.323 20.7139 32.0379 21.0693 32.0125C21.3595 31.992 21.5399 32.0877 21.9682 32.487C23.2468 33.681 24.6372 34.3389 26.2588 34.5171C26.6681 34.562 27.4916 34.5381 27.9747 34.4668C29.4338 34.2516 30.9039 33.533 32.052 32.4743C32.37 32.1809 32.5231 32.1033 32.7838 32.1024C33.0106 32.1014 33.1697 32.1731 33.3322 32.3489C33.4802 32.5099 33.5306 32.6627 33.5146 32.9073C33.5042 33.064 33.4782 33.1411 33.383 33.2929C33.2424 33.5169 33.2664 33.5374 33.5445 33.432C33.9204 33.2885 34.3835 33.3549 34.6333 33.5872C34.8531 33.7918 34.8741 33.9963 34.7031 34.2735C34.6408 34.3751 34.5899 34.4702 34.5899 34.4854C34.5899 34.5132 34.6373 34.5264 34.8656 34.5625C35.1642 34.6094 35.3352 34.8266 35.3352 35.1585C35.3352 35.2581 35.3227 35.3391 35.3073 35.3391C35.2923 35.3391 35.1791 35.2986 35.056 35.2488C34.708 35.1082 34.5101 35.0721 34.1034 35.0745C33.7938 35.0765 33.6871 35.0907 33.4712 35.1595C33.1407 35.2654 32.7873 35.4694 32.4992 35.7208C32.1816 35.9981 31.9817 36.0854 31.6726 36.083C31.3855 36.0801 31.1891 35.9986 31.0854 35.838C31.0301 35.7521 31.0221 35.6998 31.0355 35.5056C31.0445 35.3791 31.0425 35.2756 31.032 35.2756C31.0211 35.2756 30.9094 35.345 30.7833 35.4304C30.4523 35.653 30.2414 35.7633 29.8625 35.9102C28.707 36.3578 27.0395 36.5516 25.7628 36.3861V36.3861Z" fill="#CF1126"/>
<path d="M26.2912 34.2115C24.3679 34.0307 22.5278 33.0499 21.4089 31.4948C20.194 29.8725 19.8111 27.7305 20.182 25.772C20.3791 24.8803 20.7766 23.9881 21.4554 23.3532C20.9145 24.476 20.7317 25.763 21.0202 26.9794C21.4683 29.408 23.5644 31.4638 26.0721 31.8195C27.0641 32.1007 28.0904 31.8037 29.038 31.5025C31.1285 30.7811 32.7209 28.8382 32.9152 26.6662C33.0816 25.4909 32.8973 24.2689 32.3566 23.2047C32.6648 23.3642 33.0538 23.9899 33.2832 24.4107C34.081 25.924 34.1174 27.7375 33.6478 29.3524C33.0107 31.4073 31.4062 33.2075 29.2853 33.8618C28.3228 34.1697 27.2991 34.2636 26.2913 34.2117L26.2912 34.2115Z" fill="#CF1126"/>
<path d="M16.6042 31.5136C16.4781 31.4943 16.3392 31.6157 16.3867 31.7429C16.4776 31.8714 16.6341 31.9343 16.7754 31.9957C17.114 32.1286 17.4823 32.1804 17.8458 32.1717C17.7205 32.1714 17.8888 32.173 17.9356 32.1717C18.2234 32.1725 18.5097 32.1217 18.7802 32.0262C18.9307 31.9744 19.1224 31.9274 19.1841 31.7645C19.2442 31.6583 19.1352 31.5523 19.0253 31.5736C18.8721 31.6063 18.729 31.6743 18.5771 31.713C18.2495 31.8035 17.9044 31.8385 17.565 31.8112C17.3168 31.7816 17.0763 31.7038 16.8466 31.609C16.767 31.5746 16.6923 31.5244 16.6041 31.5136L16.6042 31.5136Z" fill="#CF1126"/>
<path d="M16.7443 31.007C16.6168 30.9884 16.5071 31.132 16.5602 31.2466C16.6582 31.3856 16.8228 31.4596 16.9768 31.5247C17.2445 31.6296 17.5353 31.6735 17.823 31.6651C17.7137 31.6648 17.8605 31.6664 17.901 31.6651C18.1456 31.6654 18.389 31.618 18.6151 31.5269C18.7534 31.4742 18.9227 31.4232 18.9802 31.2742C19.0249 31.1923 18.9909 31.0732 18.8855 31.0668C18.7894 31.0622 18.7064 31.1221 18.6174 31.149C18.2942 31.2799 17.9384 31.3354 17.5898 31.3059C17.3726 31.2785 17.1651 31.2001 16.9682 31.1091C16.8942 31.0741 16.8276 31.0195 16.7443 31.007L16.7443 31.007Z" fill="#CF1126"/>
<path d="M16.9163 30.5213C16.8071 30.5085 16.7319 30.6291 16.7503 30.7254C16.7666 30.8101 16.8442 30.8669 16.9083 30.9188C17.174 31.109 17.5107 31.19 17.8368 31.1794C17.7101 31.179 18.0068 31.1815 17.9163 31.1791C18.1229 31.1783 18.327 31.1288 18.5128 31.0412C18.6369 30.9884 18.7826 30.9272 18.8244 30.7885C18.8444 30.7239 18.8569 30.631 18.7825 30.5947C18.7045 30.552 18.6271 30.6177 18.5562 30.6443C18.3175 30.7632 18.0515 30.8294 17.7832 30.8282C17.5514 30.8359 17.3329 30.7404 17.1317 30.6375C17.0588 30.6011 16.9986 30.5378 16.9163 30.5213L16.9163 30.5213Z" fill="#CF1126"/>
<path d="M15.0842 23.3522C14.9218 23.5114 15.0458 23.8048 15.0371 24.0133C15.1212 24.6556 15.2257 25.306 15.4706 25.9106C15.7705 26.5014 16.4074 26.8172 16.7933 27.3393C16.9313 27.5909 16.8823 27.8935 16.9114 28.1688C16.9342 28.9188 16.9271 29.6694 16.9137 30.4196C17.2596 30.5895 17.6352 30.7606 18.0331 30.6952C18.269 30.6401 18.7067 30.6058 18.7558 30.3758C18.7367 29.0823 18.7244 27.7883 18.7068 26.4949C18.5727 26.0987 18.1609 25.8936 17.8529 25.64C17.5987 25.3947 17.3622 25.1307 17.1456 24.8542C17.0149 24.6386 16.5041 24.5609 16.6889 24.936C16.7973 25.2608 17.0738 25.5028 17.143 25.8441C17.1581 26.0311 17.3862 26.3751 17.1915 26.4842C17.0677 26.2781 16.8883 26.1027 16.659 25.9981C16.4381 25.8368 16.0728 25.7697 15.9931 25.4848C15.9345 25.0806 15.7231 24.7144 15.4503 24.4116C15.5206 24.0486 15.4506 23.5946 15.1301 23.3626L15.0842 23.3522H15.0842L15.0842 23.3522Z" fill="#CF1126"/>
<path d="M15.5783 23.4249C15.4306 23.4483 15.4356 23.6326 15.5039 23.7295C15.5766 23.9388 15.5964 24.1661 15.5571 24.384C15.8197 24.685 16.023 25.0451 16.0843 25.4403C16.0858 25.5889 16.2454 25.638 16.349 25.7114C16.5918 25.8628 16.8648 25.9727 17.0811 26.1621C17.1266 26.2098 17.1609 26.2611 17.1287 26.1638C17.095 26.0395 17.0776 25.9023 16.9782 25.8082C16.8418 25.6648 16.6716 25.5367 16.473 25.4929C16.4565 25.2921 16.3588 25.1077 16.2686 24.93C16.1685 24.7602 16.064 24.5783 15.8926 24.4681C15.8995 24.1705 15.8946 23.8582 15.7637 23.5836C15.7254 23.513 15.6689 23.4292 15.5783 23.4249H15.5783Z" fill="#CF1126"/>
<path d="M15.9915 23.5436C15.8886 23.5735 15.9083 23.6978 15.9408 23.7738C15.9901 23.9845 15.9979 24.202 15.9938 24.4173C16.1828 24.5638 16.301 24.7761 16.4087 24.9829C16.4761 25.121 16.5401 25.2636 16.566 25.4156C16.7193 25.4653 16.8535 25.5594 16.9733 25.6634C16.9258 25.5228 16.8199 25.4139 16.7488 25.2854C16.6714 25.1518 16.5976 25.0125 16.5648 24.8611C16.4173 24.707 16.3361 24.4887 16.3684 24.2777C16.375 24.0446 16.2981 23.8037 16.1388 23.628C16.0986 23.5893 16.0507 23.5465 15.9915 23.5436L15.9915 23.5436Z" fill="#CF1126"/>
<path d="M16.4616 23.6095C16.4057 23.6192 16.3716 23.6713 16.3417 23.7138C16.3301 23.7564 16.3834 23.8022 16.3919 23.8485C16.4574 24.0092 16.4821 24.1855 16.4625 24.3574C16.4582 24.4795 16.5028 24.5988 16.5664 24.7023C16.5847 24.626 16.657 24.5711 16.7352 24.5636C16.7637 24.5587 16.8055 24.5728 16.789 24.5303C16.7691 24.2967 16.7327 24.0618 16.6493 23.8411C16.617 23.7623 16.5803 23.6793 16.5106 23.6254C16.4964 23.6155 16.4795 23.6071 16.4616 23.6095L16.4616 23.6095Z" fill="#CF1126"/>
<path d="M37.3958 31.5136C37.5219 31.4943 37.6608 31.6157 37.6133 31.7429C37.5224 31.8714 37.3659 31.9343 37.2246 31.9957C36.886 32.1286 36.5177 32.1804 36.1542 32.1717C36.2795 32.1714 36.1112 32.173 36.0644 32.1717C35.7766 32.1725 35.4903 32.1217 35.2198 32.0262C35.0693 31.9744 34.8776 31.9274 34.8159 31.7645C34.7558 31.6583 34.8648 31.5523 34.9747 31.5736C35.1279 31.6063 35.271 31.6743 35.4229 31.713C35.7505 31.8035 36.0956 31.8385 36.435 31.8112C36.6832 31.7816 36.9237 31.7038 37.1534 31.609C37.233 31.5746 37.3077 31.5244 37.3959 31.5136L37.3958 31.5136Z" fill="#CF1126"/>
<path d="M37.2557 31.007C37.3832 30.9884 37.4929 31.132 37.4398 31.2466C37.3418 31.3856 37.1772 31.4596 37.0232 31.5247C36.7555 31.6296 36.4647 31.6735 36.177 31.6651C36.2863 31.6648 36.1395 31.6664 36.099 31.6651C35.8544 31.6654 35.611 31.618 35.3849 31.5269C35.2466 31.4742 35.0773 31.4232 35.0198 31.2742C34.9751 31.1923 35.0091 31.0732 35.1145 31.0668C35.2106 31.0622 35.2936 31.1221 35.3826 31.149C35.7058 31.2799 36.0616 31.3354 36.4102 31.3059C36.6274 31.2785 36.8349 31.2001 37.0318 31.1091C37.1058 31.0741 37.1724 31.0195 37.2557 31.007L37.2557 31.007Z" fill="#CF1126"/>
<path d="M37.0837 30.5213C37.1929 30.5085 37.2681 30.6291 37.2497 30.7254C37.2334 30.8101 37.1558 30.8669 37.0917 30.9188C36.826 31.109 36.4893 31.19 36.1632 31.1794C36.2899 31.179 35.9932 31.1815 36.0837 31.1791C35.8771 31.1783 35.673 31.1288 35.4872 31.0412C35.3631 30.9884 35.2174 30.9272 35.1756 30.7885C35.1556 30.7239 35.1431 30.631 35.2175 30.5947C35.2955 30.552 35.3729 30.6177 35.4438 30.6443C35.6825 30.7632 35.9485 30.8294 36.2168 30.8282C36.4486 30.8359 36.6671 30.7404 36.8683 30.6375C36.9412 30.6011 37.0014 30.5378 37.0837 30.5213L37.0837 30.5213Z" fill="#CF1126"/>
<path d="M38.9158 23.3522C39.0782 23.5114 38.9542 23.8048 38.9629 24.0133C38.8788 24.6556 38.7743 25.306 38.5294 25.9106C38.2295 26.5014 37.5926 26.8172 37.2067 27.3393C37.0687 27.5909 37.1177 27.8935 37.0886 28.1688C37.0658 28.9188 37.0729 29.6694 37.0863 30.4196C36.7404 30.5895 36.3648 30.7606 35.9669 30.6952C35.731 30.6401 35.2933 30.6058 35.2442 30.3758C35.2633 29.0823 35.2756 27.7883 35.2932 26.4949C35.4273 26.0987 35.8391 25.8936 36.1471 25.64C36.4013 25.3947 36.6378 25.1307 36.8544 24.8542C36.9851 24.6386 37.4959 24.5609 37.3111 24.936C37.2027 25.2608 36.9262 25.5028 36.857 25.8441C36.8419 26.0311 36.6138 26.3751 36.8085 26.4842C36.9323 26.2781 37.1117 26.1027 37.341 25.9981C37.5619 25.8368 37.9272 25.7697 38.0069 25.4848C38.0655 25.0806 38.2769 24.7144 38.5497 24.4116C38.4794 24.0486 38.5494 23.5946 38.8699 23.3626L38.9158 23.3522H38.9158L38.9158 23.3522Z" fill="#CF1126"/>
<path d="M38.4217 23.4249C38.5694 23.4483 38.5644 23.6326 38.4961 23.7295C38.4234 23.9388 38.4036 24.1661 38.4429 24.384C38.1803 24.685 37.977 25.0451 37.9157 25.4403C37.9142 25.5889 37.7546 25.638 37.651 25.7114C37.4082 25.8628 37.1352 25.9727 36.9189 26.1621C36.8734 26.2098 36.8391 26.2611 36.8713 26.1638C36.905 26.0395 36.9224 25.9023 37.0218 25.8082C37.1582 25.6648 37.3284 25.5367 37.527 25.4929C37.5435 25.2921 37.6412 25.1077 37.7314 24.93C37.8315 24.7602 37.936 24.5783 38.1074 24.4681C38.1005 24.1705 38.1054 23.8582 38.2363 23.5836C38.2746 23.513 38.3311 23.4292 38.4217 23.4249H38.4217Z" fill="#CF1126"/>
<path d="M38.0085 23.5436C38.1114 23.5735 38.0917 23.6978 38.0592 23.7738C38.0099 23.9845 38.0021 24.202 38.0062 24.4173C37.8172 24.5638 37.699 24.7761 37.5913 24.9829C37.5239 25.121 37.4599 25.2636 37.434 25.4156C37.2807 25.4653 37.1465 25.5594 37.0267 25.6634C37.0742 25.5228 37.1801 25.4139 37.2512 25.2854C37.3286 25.1518 37.4024 25.0125 37.4352 24.8611C37.5827 24.707 37.6639 24.4887 37.6316 24.2777C37.625 24.0446 37.7019 23.8037 37.8612 23.628C37.9014 23.5893 37.9493 23.5465 38.0085 23.5436L38.0085 23.5436Z" fill="#CF1126"/>
<path d="M37.5384 23.6095C37.5943 23.6192 37.6284 23.6713 37.6583 23.7138C37.6699 23.7564 37.6166 23.8022 37.6081 23.8485C37.5426 24.0092 37.5179 24.1855 37.5375 24.3574C37.5418 24.4795 37.4972 24.5988 37.4336 24.7023C37.4153 24.626 37.343 24.5711 37.2648 24.5636C37.2363 24.5587 37.1945 24.5728 37.211 24.5303C37.2309 24.2967 37.2673 24.0618 37.3507 23.8411C37.383 23.7623 37.4197 23.6793 37.4894 23.6254C37.5036 23.6155 37.5205 23.6071 37.5384 23.6095L37.5384 23.6095Z" fill="#CF1126"/>
<path d="M26.7563 31.8105C26.0837 31.7478 25.4768 31.2677 25.2693 30.639C25.2805 30.5307 25.4182 30.6996 25.4832 30.7109C25.6054 30.7773 25.7375 30.832 25.8781 30.8405C26.0554 30.9151 26.1651 31.0862 26.3343 31.1755C26.4129 31.2354 26.691 31.3532 26.6393 31.1626C26.5742 31.063 26.5294 30.9368 26.5854 30.8228C26.6798 30.6202 26.8248 30.4438 26.9708 30.2748C27.0781 30.2396 27.15 30.4469 27.2268 30.5167C27.333 30.6768 27.4611 30.8721 27.3986 31.0709C27.3378 31.1445 27.2978 31.366 27.4604 31.2916C27.6609 31.2052 27.8251 31.0601 27.9914 30.9246C28.1369 30.8251 28.3231 30.8181 28.4756 30.7309C28.5463 30.7133 28.6935 30.5749 28.7241 30.6517C28.6406 30.8707 28.5007 31.0669 28.3512 31.2477C28.1089 31.5186 27.7813 31.7224 27.4147 31.7799C27.198 31.8187 26.9757 31.8269 26.7563 31.8105L26.7563 31.8105Z" fill="#CF1126"/>
<path d="M27.5469 31.0412C27.5617 30.909 27.531 30.774 27.462 30.6539C27.3562 30.4427 27.2067 30.2552 27.061 30.07C26.9235 29.9912 26.8472 30.2486 26.7558 30.3224C26.6134 30.5312 26.4346 30.745 26.426 31.0076C26.3459 31.1297 26.1964 30.9079 26.132 30.835C26.009 30.6646 25.9159 30.463 25.9312 30.2499C25.9166 29.9065 25.9839 29.5645 26.1116 29.2453C26.2081 28.9728 26.3647 28.708 26.3488 28.4103C26.3599 28.1863 26.3135 27.9389 26.1281 27.7882C25.9517 27.6527 26.2423 27.6239 26.3346 27.6941C26.4926 27.7045 26.578 27.96 26.7223 27.8968C26.7798 27.7633 26.7913 27.6041 26.9098 27.5C27.0261 27.344 27.1477 27.5662 27.1875 27.6702C27.2696 27.7616 27.1829 27.9878 27.3162 27.9938C27.476 27.8841 27.59 27.6998 27.7944 27.6597C27.8772 27.6134 28.0189 27.6535 27.9096 27.7468C27.7583 27.8856 27.6291 28.0592 27.6016 28.2657C27.5553 28.5248 27.6215 28.7875 27.7368 29.0208C27.9585 29.4792 28.1299 29.9969 28.0178 30.5069C27.9657 30.7335 27.8085 30.9289 27.6174 31.0604C27.5932 31.0747 27.5551 31.0737 27.5469 31.0412V31.0412Z" fill="#CF1126"/>
<path d="M27.3076 27.5955C27.2351 27.4674 27.1469 27.3412 27.0248 27.2541C26.9061 27.2539 26.8329 27.4005 26.7523 27.4773C26.6957 27.5803 26.627 27.7525 26.4878 27.6178C26.2662 27.4913 26.227 27.2139 26.2285 26.9853C26.2145 26.6148 26.3669 26.2691 26.5023 25.9316C26.5884 25.7204 26.5672 25.4826 26.5146 25.2661C26.4485 25.0176 26.2447 24.8452 26.0879 24.6513C26.0986 24.5763 26.299 24.6173 26.3744 24.6316C26.5419 24.6731 26.642 24.8183 26.7668 24.9208C26.8556 24.8945 26.8194 24.7188 26.8607 24.6361C26.8638 24.5198 27.0219 24.3665 27.0871 24.533C27.1847 24.6388 27.0839 24.8485 27.2101 24.9144C27.3303 24.8709 27.3896 24.7422 27.5026 24.684C27.6137 24.6098 27.7707 24.6016 27.8903 24.6598C27.9324 24.7678 27.7587 24.8577 27.7084 24.9516C27.5064 25.1959 27.4354 25.5329 27.5219 25.8357C27.5905 26.0731 27.712 26.2948 27.754 26.5402C27.8045 26.8161 27.8028 27.1059 27.7298 27.3778C27.6863 27.5429 27.5403 27.6531 27.3896 27.7217C27.3524 27.6878 27.3328 27.638 27.3076 27.5956L27.3076 27.5955Z" fill="#CF1126"/>
<path d="M26.5539 24.533C26.3864 24.413 26.3311 24.2982 26.3311 24.0713C26.3311 23.9551 26.353 23.8921 26.4313 23.7867C26.5464 23.6305 26.5255 23.5812 26.3625 23.6271C26.1003 23.7008 25.9751 23.6334 25.9662 23.4147C25.9622 23.3078 25.9851 23.2625 26.1322 23.0897C26.2498 22.951 26.2927 22.8783 26.2693 22.8554C26.2463 22.8329 26.1072 22.951 25.8216 23.2356C25.5938 23.4626 25.3375 23.6944 25.2523 23.7511C24.7618 24.0752 24.2932 24.1255 24.0793 23.876C23.9696 23.7486 23.9756 23.6769 24.1022 23.5997C24.1606 23.5646 24.2588 23.4836 24.3211 23.4196C24.4681 23.2698 24.9063 22.9603 25.1237 22.8529C25.3002 22.7655 25.342 22.7065 25.2274 22.7065C25.0788 22.7065 24.6022 23.0101 24.2408 23.3352C24.1346 23.4313 23.9816 23.5382 23.9013 23.5729C23.7209 23.651 23.3664 23.6798 23.2089 23.629C23.0977 23.5929 22.8949 23.4055 22.8949 23.3386C22.8949 23.321 22.9412 23.282 22.9975 23.2522C23.0539 23.2229 23.1551 23.1512 23.2219 23.0941C23.511 22.8456 24.0589 22.5898 24.4936 22.5005C24.6317 22.4722 24.5808 22.4038 24.4268 22.4107C24.1282 22.4234 23.5354 22.6953 23.1815 22.9813C22.7667 23.3161 22.1411 23.2844 21.9397 22.9183C21.9048 22.8554 21.8844 22.7963 21.8943 22.787C21.9038 22.7777 22.0269 22.7416 22.168 22.7065C22.3206 22.6689 22.6227 22.5464 22.9113 22.4053C23.3654 22.1837 23.5 22.1364 23.8126 22.0871C23.9532 22.0651 23.9607 21.9977 23.8241 21.9821C23.6481 21.9616 23.3784 22.048 22.9018 22.2774C22.2897 22.5722 22.1182 22.623 21.7956 22.6045C21.5015 22.5869 21.3355 22.5132 21.0967 22.2921C20.9407 22.1471 20.7194 21.779 20.7627 21.7366C20.7732 21.7263 20.845 21.7366 20.9223 21.7585C21.008 21.7834 21.2538 21.8 21.5499 21.8005C21.9641 21.8015 22.0743 21.7908 22.2951 21.7283C22.6645 21.6238 23.1556 21.3793 23.4916 21.1337C24.1341 20.6632 24.6581 20.4743 25.3261 20.4714C25.9427 20.4689 26.3351 20.6085 26.6825 20.9536C26.8002 21.0703 26.9004 21.146 26.9168 21.1298C26.9323 21.1147 26.9492 20.9107 26.9542 20.6764C26.9542 20.6764 27.1357 20.6593 27.1741 20.7091C27.1741 21.0893 27.1785 21.1191 27.2349 21.1191C27.2718 21.1191 27.3111 21.082 27.3356 21.0244C27.3884 20.8999 27.5838 20.7296 27.7927 20.6261C28.2439 20.4021 29.0245 20.3952 29.6516 20.6095C29.9158 20.7003 30.209 20.8624 30.4881 21.0732C30.7683 21.2841 31.3411 21.5662 31.6796 21.6604C32.022 21.7556 32.6257 21.7795 32.9353 21.7107C33.0629 21.6824 33.1826 21.659 33.2015 21.659C33.3157 21.659 33.1213 22.0314 32.8929 22.2496C32.4757 22.6489 31.9328 22.6469 31.1691 22.2437C30.693 21.9928 30.1237 21.8557 30.1237 21.9924C30.1237 22.0207 30.1536 22.0397 30.198 22.0397C30.3635 22.0397 30.6831 22.1486 31.1287 22.3555C31.6108 22.5801 31.8815 22.6748 32.042 22.6748C32.1586 22.6748 32.1621 22.7455 32.0535 22.9017C31.9383 23.0682 31.7429 23.1507 31.4667 23.1502C31.203 23.1492 31.0564 23.0926 30.8206 22.9008C30.4263 22.5796 29.4438 22.2213 29.4816 22.4126C29.4891 22.4507 29.5365 22.4741 29.6377 22.4893C29.9797 22.5405 30.381 22.728 30.7917 23.0291C30.9184 23.1224 31.05 23.2141 31.0834 23.2337C31.1397 23.2659 31.1407 23.2756 31.0963 23.3571C31.0225 23.4919 30.8366 23.5963 30.6352 23.6168C30.3745 23.6432 30.1477 23.567 29.9129 23.3747C29.4173 22.9686 28.9502 22.6748 28.8007 22.6748C28.6786 22.6748 28.7334 22.7406 28.9487 22.8524C29.2319 22.9994 29.523 23.198 29.7374 23.3908C29.8386 23.4826 29.9527 23.5734 29.9906 23.5934C30.0804 23.6403 30.0769 23.7091 29.9782 23.8355C29.8775 23.9644 29.711 24.021 29.4951 23.9985C29.0644 23.9541 28.7284 23.7506 28.2005 23.2141C27.9941 23.0047 27.8101 22.8334 27.7912 22.8334C27.7209 22.8334 27.7623 22.9266 27.8984 23.076C28.0669 23.2605 28.0993 23.3645 28.0355 23.5143C27.9791 23.6471 27.8854 23.6778 27.693 23.6271C27.4961 23.5749 27.4652 23.6222 27.5943 23.7794C27.7867 24.0142 27.7583 24.3017 27.5225 24.4994C27.4492 24.5604 27.3725 24.6106 27.3515 24.6106C27.3311 24.6106 27.2792 24.5584 27.2359 24.4945C27.0843 24.269 26.9512 24.2704 26.8037 24.4984C26.7523 24.5779 26.7089 24.6424 26.7074 24.6419C26.7055 24.6414 26.6362 24.5926 26.5539 24.533V24.533Z" fill="#CF1126"/>
<path d="M27.3047 19.9515L27.049 20.1497L26.8196 19.9803V21.3343L27.3047 21.3402V19.9515Z" fill="#CF1126"/>
<path d="M25.7204 18.5467C25.6696 19.1866 25.5036 19.6332 25.2728 20.1258L25.8261 19.6235L26.211 20.0711L26.6277 19.6157L27.0529 20.0003L27.4617 19.6001L27.8865 20.0867L28.2553 19.6865L28.8805 20.1258C28.6537 19.6332 28.3466 19.2159 28.385 18.5228C27.7793 18.9635 26.3401 19.0431 25.7204 18.5467V18.5467Z" fill="#CF1126"/>
<path d="M26.8201 18.2201C26.5978 18.224 26.3635 18.2269 26.1526 18.2674C26.0066 18.2958 25.874 18.3421 25.7633 18.4188C25.7813 18.8351 27.8072 19.0089 28.3506 18.4266C28.2364 18.3451 28.0968 18.2967 27.9433 18.2674C27.7404 18.2289 27.5161 18.225 27.3032 18.2216C27.3032 18.3358 27.3042 18.4505 27.3042 18.5652L26.8201 18.5637V18.2201Z" fill="#CF1126"/>
<path d="M27.2164 16.0924L26.9019 16.0948V18.5052L27.2229 18.5067L27.2164 16.0924Z" fill="#CF1126"/>
<path d="M27.216 16.1544L27.0958 17.3083L28.3082 17.8882L27.6945 17.0847L28.5325 16.8187L27.216 16.1544Z" fill="#CF1126"/>
<path d="M27.0808 15.8537C26.8969 15.8537 26.7608 15.9211 26.7608 16.0011C26.7608 16.0812 26.8969 16.149 27.0808 16.149C27.2648 16.149 27.3999 16.0812 27.3999 16.0011C27.3999 15.9211 27.2648 15.8537 27.0808 15.8537Z" fill="#CF1126"/>
<path d="M26.526 36.0981C26.7249 36.0337 26.8381 35.9156 26.9193 35.6881C26.9597 35.5749 26.9871 35.4572 26.9801 35.4265C26.9632 35.3537 26.8774 35.3576 26.7827 35.4348C26.7179 35.488 26.7099 35.5148 26.7284 35.6232C26.7757 35.8965 26.6765 35.9644 26.1481 36.02C26.0958 36.0254 25.9442 36.0166 25.8106 36.0005C25.5594 35.9697 25.4696 35.9942 25.5609 36.0684C25.5883 36.0908 25.6581 36.1211 25.7159 36.1352C25.857 36.1709 26.3749 36.1469 26.526 36.0981Z" fill="#F7E017"/>
<path d="M27.6212 36.0527C27.6511 36.0258 27.7538 35.9795 27.8495 35.9492C27.9771 35.9092 28.0429 35.8662 28.0968 35.7876C28.2518 35.5616 28.2229 35.3669 27.9951 35.1043C27.8715 34.9617 27.8166 34.9656 27.7179 35.1238C27.6327 35.2605 27.6347 35.2692 27.7573 35.3005C27.8216 35.3166 27.8834 35.363 27.9173 35.4201C28.0509 35.6466 28.0115 35.7867 27.8136 35.7881C27.6342 35.7896 27.5848 35.8145 27.5365 35.9282C27.511 35.9873 27.4906 36.0502 27.4906 36.0683C27.4906 36.1161 27.5584 36.1078 27.6212 36.0527V36.0527Z" fill="#F7E017"/>
<path d="M27.2617 35.797C27.2956 35.7071 27.3076 35.5456 27.3036 35.2161C27.3011 34.9652 27.2912 34.7524 27.2812 34.7426C27.2513 34.7133 27.1037 34.8066 27.0843 34.8666C27.0743 34.8978 27.0908 34.9701 27.1207 35.0267C27.1665 35.1141 27.1725 35.1956 27.1586 35.5378C27.1406 35.9702 27.1695 36.043 27.2617 35.797V35.797Z" fill="#F7E017"/>
<path d="M26.4183 35.591C26.4363 35.5104 26.4592 35.3454 26.4697 35.2249C26.4801 35.1043 26.5056 34.952 26.5255 34.8861C26.5763 34.7172 26.525 34.6728 26.3889 34.7675L26.2877 34.8383L26.3086 35.0809C26.3281 35.2996 26.2927 35.7071 26.2413 35.8653C26.2274 35.9073 26.2473 35.8965 26.3037 35.8321C26.349 35.7804 26.4009 35.6715 26.4183 35.591V35.591Z" fill="#F7E017"/>
<path d="M25.6701 35.7086C25.8521 35.5595 25.8312 35.3049 25.8714 35.0974C25.8673 34.9596 25.9614 34.7942 25.9007 34.6736C25.7306 34.7041 25.6257 34.8618 25.7128 35.0189C25.72 35.2014 25.7134 35.4001 25.6176 35.5614C25.5394 35.6669 25.2915 35.6406 25.3029 35.4911C25.3651 35.2662 25.09 35.3756 24.9826 35.4346C24.8995 35.4912 24.7242 35.4954 24.7851 35.3537C24.7449 35.165 24.497 35.283 24.3623 35.2822C24.2351 35.2799 24.3518 35.0298 24.1692 35.0737C23.83 35.0475 23.4554 35.0767 23.1617 34.876C22.9898 34.795 23.0153 34.5926 23.1048 34.4616C23.2117 34.2827 23.2422 34.059 23.4119 33.9201C23.5798 33.7624 23.2535 33.829 23.18 33.8822C23.0164 33.9698 23.1684 34.1957 23.0344 34.3209C22.9562 34.4508 22.8532 34.6302 22.672 34.6055C22.4108 34.5571 22.2602 34.3192 22.073 34.1597C21.9126 34.1284 22.0028 34.4146 22.0856 34.4748C22.2495 34.5949 22.441 34.6825 22.6385 34.7344C22.8351 34.7036 22.8415 34.9557 23.0096 34.9952C23.3181 35.136 23.6618 35.1781 23.9983 35.1953C24.1305 35.2061 24.0562 35.4366 24.2299 35.391C24.327 35.4157 24.5464 35.3556 24.5574 35.4661C24.4102 35.6372 24.6986 35.6334 24.8054 35.6028C24.9421 35.5823 25.1168 35.5312 25.1529 35.7147C25.267 35.8324 25.4765 35.8151 25.6155 35.7477C25.635 35.7366 25.6534 35.7235 25.67 35.7086L25.6701 35.7086Z" fill="#F7E017"/>
<path d="M22.6909 34.2311C22.7463 34.1622 22.829 34.0231 22.8749 33.9216C22.9203 33.8196 22.9886 33.7039 23.0259 33.6643C23.1137 33.5716 23.0648 33.5145 22.9233 33.5452C22.8485 33.5613 22.8181 33.5882 22.8056 33.6517C22.7632 33.8586 22.6865 34.0705 22.6182 34.1691C22.4945 34.3477 22.4915 34.355 22.5424 34.355C22.5688 34.355 22.6356 34.2994 22.6909 34.2311V34.2311Z" fill="#F7E017"/>
<path d="M20.8235 33.0849C20.6839 33.0849 20.678 33.1713 20.8141 33.2177C20.8799 33.2401 20.9357 33.2943 20.9806 33.3827C21.1132 33.6409 21.1909 33.6868 21.5429 33.7165L21.7687 33.7365L21.7797 33.8708C21.7852 33.945 21.8031 34.0065 21.8205 34.0065C21.838 34.0065 21.9252 33.9694 22.0135 33.9254C22.179 33.8434 22.336 33.6521 22.336 33.5335C22.336 33.4559 22.2039 33.3719 22.0838 33.3719C22.0304 33.3719 21.9287 33.4139 21.8485 33.471C21.5972 33.6492 21.3285 33.613 21.1815 33.3812C21.0608 33.1898 20.9347 33.0849 20.8235 33.0849V33.0849ZM22.0429 33.5608C22.1097 33.5608 22.1261 33.6091 22.0897 33.7014C22.0648 33.7649 21.9836 33.7668 21.9591 33.7043C21.9302 33.6306 21.9706 33.5608 22.0429 33.5608Z" fill="#F7E017"/>
<path d="M31.5006 33.2607C31.4094 33.2641 31.3825 33.2836 31.3246 33.3676C31.2299 33.5052 31.2204 33.8034 31.3077 33.9089C31.362 33.9743 31.37 33.9758 31.4852 33.9289C31.6457 33.863 31.6726 33.8654 31.6721 33.9499C31.6711 34.1656 31.355 34.5815 31.024 34.8026C30.9348 34.8622 30.855 34.9286 30.8466 34.9505C30.8226 35.012 30.9453 34.9984 31.0958 34.9232C31.3012 34.8207 31.5709 34.5513 31.6816 34.3389C31.7693 34.1695 31.7818 34.1119 31.7922 33.8156C31.8017 33.5428 31.7942 33.4627 31.7469 33.3719C31.694 33.2699 31.6771 33.2607 31.5445 33.2607C31.5285 33.2607 31.5141 33.2602 31.5006 33.2607V33.2607ZM31.5116 33.451C31.5804 33.451 31.5923 33.4662 31.6003 33.5628C31.6073 33.6429 31.5928 33.6917 31.5475 33.7317C31.4857 33.7864 31.4807 33.7859 31.4258 33.7044C31.3491 33.5892 31.3964 33.451 31.5116 33.451V33.451Z" fill="#F7E017"/>
<path d="M29.9981 35.5343C30.2897 35.3937 30.4617 35.2356 30.5723 35.0067C30.6247 34.8978 30.6676 34.7953 30.6676 34.7777C30.6676 34.7382 30.524 34.6728 30.4377 34.6728C30.352 34.6728 30.3346 34.6147 30.3714 34.4541C30.4073 34.2974 30.364 34.1012 30.2937 34.1012C30.2683 34.1012 30.2234 34.1378 30.1935 34.1822C30.1476 34.2511 30.1451 34.2803 30.179 34.3804C30.2289 34.5288 30.1895 34.6396 30.0539 34.7343C29.9896 34.7792 29.9542 34.8309 29.9542 34.8812C29.9542 34.9237 29.9597 34.9583 29.9662 34.9583C29.9731 34.9583 30.0439 34.9222 30.1237 34.8788L30.2693 34.7992L30.355 34.8651C30.4019 34.9012 30.4407 34.9603 30.4407 34.9964C30.4407 35.1702 29.9348 35.4621 29.5873 35.4894C29.4023 35.5041 29.3709 35.4977 29.3066 35.4352C29.2543 35.384 29.2393 35.341 29.2523 35.2805C29.2623 35.2341 29.2802 35.1497 29.2922 35.0931C29.3241 34.9417 29.2578 34.9622 29.1431 35.1389C29.0489 35.2849 29.021 35.4406 29.0738 35.5226C29.1172 35.5895 29.4053 35.6534 29.6092 35.6412C29.7373 35.6339 29.864 35.5988 29.9981 35.5343V35.5343Z" fill="#F7E017"/>
<path d="M31.9443 34.4712C32.1277 34.292 32.2055 34.0738 32.2065 33.7366L32.207 33.4832L32.3585 33.4129C32.5554 33.3212 32.7419 33.1386 32.7419 33.0371C32.7419 32.9326 32.6945 32.938 32.6088 33.0517C32.5465 33.1342 32.4632 33.184 32.1586 33.3212C32.0818 33.3558 32.0769 33.3744 32.0594 33.6897C32.039 34.0533 31.9886 34.1895 31.7812 34.438C31.6541 34.5893 31.6496 34.6093 31.7379 34.6093C31.7743 34.6093 31.867 34.5473 31.9443 34.4712Z" fill="#F7E017"/>
<path d="M29.9462 34.2681C29.9637 34.2159 29.8625 34.1788 29.8186 34.2212C29.8002 34.2393 29.7952 34.2705 29.8077 34.2906C29.8366 34.3359 29.9283 34.3208 29.9462 34.2681V34.2681Z" fill="#F7E017"/>
<path d="M32.7015 33.5696C32.7195 33.5174 32.6178 33.4803 32.5744 33.5228C32.5555 33.5413 32.5505 33.5725 32.5629 33.5926C32.5918 33.6379 32.6836 33.6228 32.7015 33.5696Z" fill="#F7E017"/>
<path d="M29.3854 31.6787C29.3142 31.7119 29.2772 31.7872 29.2277 31.8448C29.192 31.8685 29.2206 31.8907 29.2411 31.913C29.3669 32.0457 29.4201 32.2248 29.4798 32.3918C29.5385 32.589 29.6124 32.8008 29.551 33.0063C29.5269 33.085 29.4636 33.1664 29.3692 33.1403C29.2182 33.1311 29.0695 33.0918 28.918 33.0934C28.7832 33.1003 28.6789 33.2204 28.5411 33.2073C28.453 33.213 28.4567 33.0307 28.3749 33.0795C28.3343 33.1745 28.3543 33.2805 28.3495 33.3811C28.3647 33.3955 28.4075 33.3829 28.4332 33.3871H28.7047C28.7238 33.4789 28.7214 33.5841 28.7888 33.6571C28.883 33.6899 28.989 33.6616 29.0785 33.6257C29.1745 33.582 29.1873 33.469 29.2145 33.3809C29.2433 33.2863 29.3698 33.3111 29.4445 33.2739C29.6272 33.2217 29.7469 33.0358 29.7362 32.8529C29.7244 32.5735 29.6156 32.3108 29.5331 32.0464C29.4915 31.93 29.4627 31.8085 29.4146 31.6948C29.4089 31.685 29.3973 31.6767 29.3854 31.6787L29.3854 31.6787ZM28.9333 33.2758C29.0348 33.2693 29.0789 33.3915 29.0574 33.4725C29.0194 33.5826 28.8812 33.512 28.8532 33.4326C28.8019 33.3618 28.8336 33.2665 28.9333 33.2758L28.9333 33.2758Z" fill="#F7E017"/>
<path d="M25.1745 32.3591C25.1291 32.3581 25.0783 32.3747 25.028 32.4094C24.7632 32.591 24.6954 32.8057 24.8754 32.8897C25.0075 32.9517 24.9741 33.0244 24.7662 33.1264C24.4686 33.2719 24.2059 33.2538 23.7069 33.0518C23.5843 33.002 23.5524 33.021 23.5808 33.1308C23.6082 33.2387 23.7089 33.2978 23.9591 33.3534C24.2283 33.4139 24.5539 33.3944 24.7632 33.3061C24.8654 33.2631 24.9866 33.1728 25.0888 33.064L25.2508 32.8897L25.4392 32.9126C25.6715 32.9405 25.676 32.9429 25.676 33.0518C25.676 33.1382 25.681 33.1401 25.8944 33.1596C26.0145 33.1709 26.1725 33.1811 26.2463 33.1811C26.3405 33.1816 26.3939 33.1977 26.4253 33.2407C26.4671 33.2978 26.4921 33.3007 26.843 33.2699C27.171 33.2407 27.2353 33.2431 27.3834 33.2924C27.4886 33.3275 27.6042 33.3417 27.692 33.3324C27.9432 33.3046 28.2897 33.1035 28.34 32.9556C28.346 32.9375 28.4373 32.9058 28.5424 32.8853C28.7962 32.8355 28.8071 32.7813 28.5704 32.7525C28.4677 32.7398 28.3136 32.7032 28.2279 32.67C28.1416 32.6369 28.024 32.609 27.9662 32.609C27.8385 32.609 27.7184 32.6871 27.7184 32.7677C27.7184 32.8204 27.7373 32.8258 27.8884 32.8106C28.0305 32.7965 28.0718 32.8043 28.1466 32.8624C28.196 32.9004 28.2289 32.9453 28.2184 32.9615C28.185 33.0147 27.8884 33.1469 27.7573 33.1674C27.6696 33.1811 27.5988 33.1718 27.53 33.1372C27.4148 33.0786 27.2453 33.0698 27.2134 33.1201C27.2 33.1421 27.1636 33.1279 27.1137 33.082L27.0359 33.0103L26.86 33.082C26.681 33.1548 26.6152 33.1518 26.6152 33.0684C26.6152 33.0303 26.5629 33.0259 26.2991 33.0425C26.0085 33.061 25.9781 33.0562 25.9238 32.9966C25.8734 32.9419 25.8724 32.9229 25.9083 32.8668C25.9412 32.815 25.9412 32.7926 25.9098 32.7618C25.8784 32.7311 25.8375 32.7315 25.7229 32.7618C25.4337 32.8375 25.352 32.795 25.352 32.5739C25.352 32.4411 25.2742 32.3606 25.1745 32.3591V32.3591ZM25.1027 32.5622C25.1182 32.5622 25.1311 32.5714 25.1511 32.591C25.1765 32.6159 25.19 32.6593 25.179 32.6871C25.1531 32.753 25.0304 32.7506 25.0045 32.6842C24.9921 32.652 25.008 32.6159 25.0449 32.5895C25.0708 32.571 25.0873 32.5617 25.1027 32.5622V32.5622Z" fill="#F7E017"/>
<path d="M24.5843 32.7681C24.7603 32.6588 24.7563 32.6671 24.7817 32.3634C24.7992 32.1492 24.7962 32.133 24.7368 32.133C24.6506 32.133 24.6057 32.2258 24.6057 32.4025C24.6057 32.5157 24.5878 32.5665 24.526 32.6265C24.3794 32.77 24.0155 32.7046 23.9696 32.5265C23.9542 32.4655 23.9741 32.4103 24.0504 32.3044C24.2094 32.0833 24.1735 32.0291 23.9786 32.197C23.8445 32.3117 23.8206 32.3151 23.846 32.216C23.8694 32.1247 23.8206 32.0886 23.7114 32.1155C23.6556 32.1291 23.6252 32.1633 23.6117 32.2297C23.5988 32.2946 23.5683 32.3307 23.5155 32.3434C23.4273 32.3654 23.2767 32.2834 23.2767 32.2136C23.2767 32.1618 23.502 31.8924 23.7912 31.5985C23.9003 31.4873 23.9896 31.3838 23.9896 31.3682C23.9896 31.3525 23.9313 31.3398 23.86 31.3398C23.7558 31.3398 23.7304 31.3511 23.7304 31.3984C23.7304 31.4306 23.5848 31.6176 23.4063 31.8143C23.0344 32.2243 23.0035 32.3097 23.1875 32.4191C23.3355 32.5079 23.5255 32.5011 23.6745 32.402L23.7952 32.3215V32.4674C23.7952 32.6539 23.8331 32.7207 23.9826 32.7984C24.1705 32.8955 24.3979 32.8838 24.5843 32.7681V32.7681Z" fill="#F7E017"/>
<path d="M32.3889 30.2343C32.251 30.3149 32.3589 30.4843 32.3798 30.5969C32.3235 30.7504 32.122 30.7918 31.9751 30.8203C31.7671 30.854 31.6196 31.0245 31.5405 31.2055C31.4976 31.3231 31.3941 31.5055 31.2813 31.3264C31.1833 31.2291 31.003 31.152 30.8871 31.2656C30.799 31.3477 30.7767 31.4685 30.7438 31.5781C30.6919 31.4939 30.6686 31.3684 30.5584 31.3418C30.3825 31.366 30.4461 31.5831 30.5288 31.6726C30.6039 31.7769 30.6761 31.9146 30.6025 32.0385C30.5375 32.1875 30.3129 32.288 30.1809 32.1605C30.0577 32.0968 30.1401 31.8694 30.0187 31.8569C29.9587 31.8993 29.9537 32.1373 29.8576 32.0083C29.7883 31.8981 29.8251 31.7471 29.7403 31.6479C29.64 31.6601 29.5594 31.829 29.5928 31.9198C29.7265 32.0964 29.7815 32.3179 29.8336 32.5283C29.8661 32.6126 29.8289 32.7835 29.9094 32.8169C29.9652 32.6812 29.9134 32.5274 29.9573 32.3904C30.0878 32.3744 30.233 32.4327 30.3699 32.4017C30.5657 32.3768 30.717 32.215 30.7857 32.0427C30.8065 31.9131 30.7818 31.7816 30.7781 31.6513C30.9328 31.6748 31.0936 31.6743 31.2424 31.7235C31.3162 31.8344 31.219 31.9895 31.1986 32.1106C31.1209 32.3572 30.9236 32.5362 30.7317 32.7011C30.6514 32.7476 30.6406 32.8708 30.7592 32.8045C31.0171 32.6965 31.2093 32.4678 31.3199 32.2202C31.4006 32.0298 31.3357 31.8176 31.3884 31.6229C31.4663 31.4766 31.6537 31.5074 31.7924 31.5079C31.9359 31.5025 32.0584 31.3388 32.0105 31.2022C31.9648 31.0437 32.136 30.9674 32.253 30.9108C32.4082 30.8341 32.5271 30.6784 32.5151 30.5028C32.5087 30.4129 32.5133 30.2425 32.3889 30.2343L32.3889 30.2343ZM31.839 31.1495C32.0052 31.1927 31.8089 31.5035 31.7206 31.3066C31.6934 31.2315 31.758 31.1468 31.839 31.1495ZM31.0678 31.3721C31.2841 31.3597 31.2064 31.6689 31.0237 31.5285C30.929 31.4819 30.9603 31.3663 31.0678 31.3721Z" fill="#F7E017"/>
<path d="M23.2383 32.567C23.2443 32.5362 23.2284 32.5143 23.1999 32.5143C23.1396 32.5143 23.1032 32.566 23.1317 32.6109C23.1611 32.6573 23.2259 32.6309 23.2383 32.567V32.567Z" fill="#F7E017"/>
<path d="M25.7728 32.2898C25.7728 32.2444 25.7553 32.2273 25.7164 32.2346C25.6317 32.2502 25.6222 32.3557 25.7055 32.3557C25.7518 32.3557 25.7728 32.3352 25.7728 32.2898Z" fill="#F7E017"/>
<path d="M22.6366 30.8C22.5354 30.7797 22.4718 30.8635 22.4372 30.9434C22.3615 31.0679 22.2692 31.1952 22.1334 31.2611C22.0358 31.2877 21.9294 31.2513 21.8452 31.2021C21.7448 31.1531 21.7676 31.0348 21.7246 30.9531C21.6519 30.8972 21.5231 30.9771 21.526 31.064C21.518 31.1804 21.6292 31.2477 21.7216 31.2927C21.8001 31.3398 21.9139 31.366 21.9453 31.4613C21.9431 31.5423 21.9764 31.6349 22.0771 31.6037C22.1897 31.6018 22.2189 31.7362 22.1734 31.8168C22.1271 31.9077 22.0958 32.0141 22.118 32.1153C22.1718 32.1597 22.2268 32.0406 22.2658 32.0066C22.2923 31.9721 22.3188 31.9375 22.3453 31.9029C22.5446 31.9135 22.7437 31.9384 22.9435 31.9314C23.0856 31.9289 23.2066 31.843 23.297 31.7423C23.4248 31.6114 23.5298 31.4577 23.6757 31.3448C23.7796 31.32 23.7238 31.1284 23.6153 31.1838C23.5175 31.2197 23.4868 31.3278 23.419 31.3967C23.3036 31.5335 23.1859 31.6724 23.0405 31.7796C22.9345 31.8226 22.8126 31.8038 22.7038 31.7796C22.6584 31.7407 22.794 31.709 22.8129 31.6658C22.8753 31.6048 22.9494 31.5468 22.9856 31.4666C22.951 31.3927 22.8451 31.3867 22.7706 31.3852C22.5868 31.4068 22.4465 31.5578 22.2609 31.5721C22.1201 31.5769 22.1934 31.4275 22.2569 31.3766C22.3811 31.2321 22.5153 31.0961 22.645 30.9564C22.6818 30.9131 22.8149 30.8719 22.7298 30.811C22.7 30.8005 22.6678 30.8005 22.6366 30.8L22.6366 30.8ZM22.7269 31.5307C22.8196 31.5817 22.6678 31.6653 22.6039 31.6538C22.52 31.6785 22.5185 31.5947 22.593 31.578C22.6349 31.5567 22.6791 31.5344 22.7269 31.5307V31.5307ZM22.4419 31.7214C22.4946 31.7204 22.6051 31.77 22.5013 31.8018C22.4291 31.8566 22.3475 31.7459 22.4419 31.7214Z" fill="#F7E017"/>
<path d="M24.6865 31.8476C24.6865 31.7787 24.5604 31.7885 24.5464 31.8583C24.5374 31.9032 24.5519 31.9139 24.6107 31.9056C24.6526 31.8998 24.6865 31.8739 24.6865 31.8476V31.8476Z" fill="#F7E017"/>
<path d="M30.2723 31.3633C30.2852 31.2974 30.1915 31.2535 30.1422 31.3018C30.0928 31.3501 30.1382 31.4419 30.205 31.4292C30.2359 31.4233 30.2663 31.3936 30.2723 31.3633Z" fill="#F7E017"/>
<path d="M21.5793 30.6931C21.667 30.6194 21.668 30.6145 21.6301 30.4525C21.5763 30.2255 21.5798 30.2011 21.668 30.1796C21.7797 30.1518 22.0633 30.3007 22.1261 30.4198C22.175 30.512 22.1735 30.5184 22.0907 30.5935C22.0015 30.6741 22.002 30.7683 22.0912 30.7683C22.165 30.7683 22.3689 30.5794 22.3689 30.5115C22.3689 30.4173 22.1426 30.1947 21.9636 30.1132C21.853 30.0625 21.7423 30.039 21.6142 30.0385C21.3849 30.0385 21.3539 30.0869 21.4158 30.348C21.4885 30.6541 21.3898 30.6955 21.1381 30.4647C20.9512 30.2933 20.8774 30.1152 20.8784 29.8345C20.8789 29.5333 20.9965 29.3844 21.2617 29.3493C21.4377 29.3264 21.4332 29.2858 21.2523 29.2595C20.988 29.2204 20.7647 29.3932 20.68 29.7017C20.5857 30.0439 20.8016 30.4608 21.1835 30.6755C21.3834 30.7878 21.4631 30.7912 21.5793 30.6931Z" fill="#F7E017"/>
<path d="M31.9901 30.3177C32.0116 30.2968 32.029 30.2494 32.029 30.2128C32.029 30.1762 32.0654 30.0976 32.1098 30.0385C32.1546 29.9795 32.191 29.9189 32.191 29.9043C32.191 29.8443 32.0898 29.8462 32.0101 29.9082C31.9283 29.9707 31.867 29.9722 31.867 29.9111C31.867 29.896 31.9059 29.8648 31.9537 29.8418C32.0724 29.7852 32.0823 29.7291 31.9821 29.6842C31.8535 29.627 31.7244 29.7315 31.711 29.9038C31.7025 30.019 31.712 30.039 31.8027 30.0913C31.8854 30.1391 31.9009 30.1645 31.8869 30.2328C31.863 30.3514 31.9134 30.3929 31.9901 30.3177V30.3177Z" fill="#F7E017"/>
<path d="M32.9687 30.2094C33.0405 30.1464 33.0988 30.0747 33.0988 30.0507C33.0988 30.0268 33.1606 29.9634 33.2364 29.9102C33.4512 29.7588 33.4986 29.6061 33.4024 29.3713C33.365 29.279 33.2474 29.1516 32.9916 28.9261C32.7952 28.7523 32.6142 28.6103 32.5908 28.6103C32.521 28.6103 32.5335 28.8617 32.6043 28.8836C32.7319 28.9237 32.8092 28.9749 33.0101 29.1521C33.2434 29.3586 33.351 29.5514 33.2922 29.6588C33.2359 29.7627 33.1611 29.7305 32.9552 29.5143C32.8471 29.4006 32.7399 29.3078 32.7179 29.3078C32.694 29.3083 32.6771 29.3493 32.6771 29.4069C32.6771 29.4791 32.7164 29.548 32.8231 29.6641C32.9971 29.8535 33.0141 29.9673 32.8834 30.0678C32.8366 30.1039 32.7882 30.1337 32.7763 30.1337C32.7648 30.1337 32.7264 30.0771 32.6915 30.0083C32.6187 29.8638 32.1736 29.4035 32.1068 29.4035C32.0764 29.4035 32.0614 29.4406 32.0614 29.5138C32.0614 29.6022 32.0793 29.6334 32.1511 29.6695C32.2394 29.7144 32.4577 29.9297 32.6771 30.1894C32.7399 30.2636 32.8017 30.3236 32.8151 30.3241C32.8281 30.3241 32.8974 30.2723 32.9687 30.2094V30.2094Z" fill="#F7E017"/>
<path d="M33.4054 28.9857C33.3765 28.8944 32.7793 28.2925 32.718 28.2925C32.6861 28.2925 32.6761 28.3296 32.6836 28.4253C32.692 28.5415 32.705 28.5615 32.7868 28.5825C32.8376 28.5957 32.9951 28.7167 33.1362 28.851C33.2768 28.9852 33.4004 29.0872 33.4104 29.077C33.4204 29.0672 33.4184 29.0262 33.4054 28.9857V28.9857Z" fill="#F7E017"/>
<path d="M29.8385 35.7598C29.8385 35.781 29.8292 35.8012 29.8125 35.8162C29.7959 35.8311 29.7733 35.8395 29.7498 35.8395C29.7262 35.8395 29.7037 35.8311 29.687 35.8162C29.6704 35.8012 29.661 35.781 29.661 35.7598C29.661 35.7387 29.6704 35.7185 29.687 35.7035C29.7037 35.6886 29.7262 35.6802 29.7498 35.6802C29.7733 35.6802 29.7959 35.6886 29.8125 35.7035C29.8292 35.7185 29.8385 35.7387 29.8385 35.7598Z" fill="#F7E017"/>
<path d="M30.1521 35.6573C30.1521 35.6784 30.1428 35.6987 30.1261 35.7136C30.1095 35.7286 30.0869 35.737 30.0634 35.737C30.0398 35.737 30.0173 35.7286 30.0006 35.7136C29.984 35.6987 29.9746 35.6784 29.9746 35.6573C29.9746 35.6362 29.984 35.6159 30.0006 35.601C30.0173 35.586 30.0398 35.5776 30.0634 35.5776C30.0869 35.5776 30.1095 35.586 30.1261 35.601C30.1428 35.6159 30.1521 35.6362 30.1521 35.6573Z" fill="#F7E017"/>
</g>
</svg>
