<svg width="54" height="54" viewBox="0 0 54 54" fill="none" xmlns="http://www.w3.org/2000/svg">
<mask id="mask0_1_40572" style="mask-type:alpha" maskUnits="userSpaceOnUse" x="3" y="9" width="48" height="36">
<path d="M3.56934 18.1356C4.16681 13.4125 8.0415 10.0019 12.7861 9.60887C16.6412 9.28949 21.6196 9 27 9C32.3804 9 37.3588 9.28949 41.2139 9.60887C45.9585 10.0019 49.8332 13.4125 50.4307 18.1356C50.752 20.6759 51 23.704 51 27C51 30.296 50.752 33.3241 50.4307 35.8644C49.8332 40.5875 45.9585 43.9981 41.2139 44.3911C37.3588 44.7105 32.3804 45 27 45C21.6196 45 16.6412 44.7105 12.7861 44.3911C8.04151 43.9981 4.16681 40.5875 3.56934 35.8644C3.248 33.3241 3 30.296 3 27C3 23.704 3.248 20.6759 3.56934 18.1356Z" fill="#00D0BF"/>
</mask>
<g mask="url(#mask0_1_40572)">
<path d="M3 9H51L3 45V9Z" fill="#FCD95E"/>
<path d="M51 45L3 45L51 9L51 45Z" fill="#EE5757"/>
<path d="M27.8968 20.8437C27.6216 20.7604 27.4534 20.9095 27.4787 21.2603C27.5038 21.6111 27.6968 21.804 27.9613 21.6589L27.8968 20.8437L27.8968 20.8437Z" fill="white" stroke="black" stroke-width="0.0285386"/>
<path d="M28.1079 20.173C27.8739 20.0056 27.6672 20.0926 27.5792 20.4328C27.4912 20.773 27.6125 21.0177 27.9092 20.9656L28.1079 20.1731L28.1079 20.173Z" fill="white" stroke="black" stroke-width="0.0285386"/>
<path d="M28.4662 19.5199C28.2607 19.3153 28.04 19.3673 27.8949 19.6896C27.7501 20.0119 27.8298 20.2743 28.1346 20.2718L28.4662 19.5199ZM28.3454 22.6336C28.0146 22.772 27.9981 23.2314 28.2222 23.5035C28.446 23.7756 28.8373 23.8109 29.0355 23.4668L28.3455 22.6334L28.3454 22.6336Z" fill="white" stroke="black" stroke-width="0.0285386"/>
<path d="M27.9089 21.6952C27.5894 21.6056 27.3262 22.0439 27.2958 22.4291C27.2577 22.9146 26.5837 23.1063 26.9942 23.8158C27.0505 23.347 27.3444 23.0774 27.5881 23.0478C27.8319 23.0181 28.1964 22.9472 28.3394 22.6412L27.9089 21.6952ZM28.9943 23.5232C28.6315 23.6291 28.6024 24.123 28.8812 24.4609C29.1199 24.7502 29.8182 24.643 29.7866 24.3456L28.9943 23.5232ZM30.1751 26.4279C30.1774 26.1112 29.6651 26.0135 29.4233 26.0871C29.1815 26.1607 28.7107 26.1137 28.589 25.8559C28.5118 26.0708 28.6492 26.2926 29.0086 26.3891C29.2805 26.4621 29.2841 26.6568 29.2096 26.7484C29.4123 26.7736 30.0063 26.7441 30.1751 26.428L30.1751 26.4279Z" fill="white" stroke="black" stroke-width="0.0285386"/>
<path d="M29.7943 24.4357C29.4266 24.297 29.225 24.546 29.0987 24.7841C28.9135 25.1334 28.2688 24.7293 28.0804 25.1921C28.3598 25.0562 28.663 25.3015 28.8026 25.3831C29.2013 25.6162 29.9436 25.501 30.0199 24.9042L29.7943 24.4357V24.4357Z" fill="white" stroke="black" stroke-width="0.0285386"/>
<path d="M30.0188 24.8506C29.6719 25.1377 29.5472 25.4661 29.5668 25.683C29.5863 25.8998 29.9171 26.3625 30.2522 26.3722C30.4262 25.9717 30.4823 25.1414 30.0188 24.8506L30.0188 24.8506ZM28.6084 26.6012C28.602 26.4709 28.7927 26.4093 28.9264 26.4462C29.0604 26.4832 29.2687 26.6036 29.2053 26.7461L28.6084 26.6012V26.6012ZM26.5879 25.9864C26.5451 25.8317 26.7865 25.5498 27.1364 25.6807C27.486 25.8115 27.5442 26.0961 27.4091 26.216L26.5879 25.9864L26.5879 25.9864Z" fill="white" stroke="black" stroke-width="0.0285386"/>
<path d="M27.4307 26.202C27.4001 26.1166 27.6389 25.9318 28.0655 26.0154C28.4927 26.0992 28.609 26.362 28.6036 26.5715L27.4306 26.202L27.4307 26.202ZM26.5377 25.9581C26.7498 25.7831 26.6516 25.4751 26.4487 25.3893C26.0797 25.2332 26.1903 24.7765 25.9574 24.7008C25.7246 24.625 25.4972 24.4796 25.4809 24.3241C25.3769 24.5461 25.4568 24.742 25.6219 24.8731C25.7868 25.0042 25.5322 25.5806 25.7415 25.7183L26.5377 25.9581V25.9581ZM21.8164 26.0619C21.618 25.7848 21.1806 25.8578 21.0054 26.0658C20.8302 26.2739 20.8707 26.5672 21.0528 26.6887L21.8164 26.0619ZM22.8519 25.587C22.7633 25.2092 22.295 25.1881 22.0445 25.2955C21.7939 25.4029 21.6362 25.7925 21.8165 26.0618L22.852 25.587L22.8519 25.587Z" fill="white" stroke="black" stroke-width="0.0285386"/>
<path d="M23.5518 25.484C23.7022 25.1522 23.3547 24.6876 22.9835 24.6361C22.6736 24.5932 22.3109 24.6129 22.1779 24.3172C22.1164 24.5832 22.3216 24.7394 22.5565 24.8766C22.7914 25.0138 22.5389 25.4121 22.9174 25.6122L23.5518 25.484L23.5518 25.484Z" fill="white" stroke="black" stroke-width="0.0285386"/>
<path d="M23.521 25.5062C23.4328 25.2791 23.5733 24.9641 23.8895 24.97C24.2058 24.9758 24.3966 25.1943 24.2717 25.4856L23.5209 25.5062L23.521 25.5062Z" fill="white" stroke="black" stroke-width="0.0285386"/>
<path d="M24.2258 25.4951C24.1706 25.2578 24.3541 24.9653 24.6662 25.0151C24.9783 25.065 25.1362 25.3082 24.9717 25.5795L24.2258 25.4951Z" fill="white" stroke="black" stroke-width="0.0285386"/>
<path d="M24.8969 25.5775C24.8537 25.3373 25.0515 25.0539 25.3605 25.1193C25.6696 25.1847 25.815 25.4358 25.637 25.6989L24.8969 25.5775ZM19.807 29.8419C19.2199 29.8713 19.0834 30.0178 19.0288 30.6248C18.9607 31.3809 19.9902 31.4169 19.807 29.8419Z" fill="white" stroke="black" stroke-width="0.0285386"/>
<path d="M19.9495 29.0335C19.0305 28.738 18.6102 30.1863 17.7042 29.9778C18.0489 30.4684 18.799 29.9239 19.0908 29.9609C19.5856 30.0236 20.6365 29.7871 19.9495 29.0334L19.9495 29.0335ZM19.4584 31.0108C19.0018 30.8323 18.5536 31.5377 18.6558 31.8303C18.7857 32.2019 19.7893 31.8435 19.4584 31.0108ZM17.5185 34.0501C17.7673 34.1074 18.0719 34.2324 18.0427 34.7066C18.0133 35.1809 17.1673 36.1865 16.364 36.2793C15.5607 36.3722 15.3194 37.356 14.6141 37.1199C15.2562 36.9653 15.22 36.2315 15.7169 35.9791C15.3425 35.8664 15.1907 36.706 14.7178 36.7297C14.2447 36.7534 14.054 37.5158 13.4733 37.4923C12.8926 37.469 12.8794 38.4388 11.7233 38.5083C10.8389 38.5612 9.79487 39.6468 9.37874 39.2212C10.2311 39.0558 10.5542 38.5642 11.0405 38.017C11.8226 37.1374 12.7696 37.4664 13.0483 36.7082C12.6841 36.9803 12.2522 37.1244 11.8226 37.1374C11.2832 37.1533 10.7348 38.05 10.1114 37.6959C10.4596 37.6347 10.6801 37.4748 11.029 37.072C11.3863 36.6595 11.9517 36.8862 12.3688 36.4621C13.0211 35.7989 13.6338 36.2936 14.252 35.4745C14.0637 35.3965 13.6726 35.4773 13.3141 35.6879C12.9557 35.8985 12.4668 35.5989 12.0575 35.8472C12.0846 35.3293 13.0802 35.575 13.6759 35.1882C14.3481 34.7517 14.9277 34.8408 15.4775 34.8615C14.7152 34.8954 14.3819 34.1895 13.3411 34.4518C12.8871 34.5664 12.4867 33.8643 12.0492 34.2539C12.049 33.9826 12.5157 33.7403 13.0192 33.9778C13.5226 34.2152 13.6961 33.714 14.7024 34.2787C15.1178 34.5117 15.7896 34.0665 16.2409 34.3154C16.1758 34.1523 15.9209 34.0599 15.6286 34.0965C15.794 33.7118 16.9833 33.7003 17.5186 34.0501L17.5185 34.0501Z" fill="white" stroke="black" stroke-width="0.0285386"/>
<path d="M18.2896 33.4634C17.8889 33.1866 17.3713 33.5702 16.9959 33.4492C17.0079 33.6929 17.1489 34.0527 17.5594 34.1718C17.6779 34.0788 18.207 33.5723 18.2896 33.4634Z" fill="white" stroke="black" stroke-width="0.0285386"/>
<path d="M18.8602 32.5841C18.2404 32.309 18.1727 33.0734 17.6917 32.94C17.72 33.1573 17.9087 33.419 18.2973 33.4608L18.8603 32.5841L18.8602 32.5841Z" fill="white" stroke="black" stroke-width="0.0285386"/>
<path d="M19.2043 31.8659C18.2965 31.559 18.2238 32.4245 17.6917 32.2838C17.8282 32.576 18.587 32.6967 18.9664 32.5725L19.2043 31.8659ZM20.2483 28.0411C19.9965 27.7194 19.5115 28.016 19.4516 28.4148C19.3917 28.8135 19.6102 29.3568 19.9363 29.2175L20.2482 28.0411L20.2483 28.0411Z" fill="white" stroke="black" stroke-width="0.0285386"/>
<path d="M20.8275 26.9584C20.4117 26.8827 19.9415 26.9501 20.0136 27.3502C19.8595 27.4281 19.841 27.9467 20.2752 28.039L20.8275 26.9583L20.8275 26.9584Z" fill="white" stroke="black" stroke-width="0.0285386"/>
<path d="M21.096 26.6737C20.6705 26.217 20.2189 26.2488 19.9745 26.4605C19.5231 26.8517 19.0603 26.6613 19.0627 27.0316C19.3356 26.8029 19.5933 27.0513 19.8191 26.9615C20.0448 26.8718 20.2309 27.3042 20.8575 27.0903L21.096 26.6737V26.6737ZM20.4182 33.8219C20.4848 33.9335 20.8659 33.9689 21.0428 33.7668C21.2772 33.4988 20.9754 32.7997 20.5854 32.7647C20.1955 32.7297 20.1963 33.5852 20.4182 33.8219V33.8219Z" fill="white" stroke="black" stroke-width="0.0285386"/>
<path d="M19.9822 33.8621C20.5436 34.0354 20.7577 33.5691 20.4458 33.2956C20.3717 33.3957 20.1 33.7598 19.9822 33.8621Z" fill="white" stroke="black" stroke-width="0.0285386"/>
<path d="M18.0097 34.7185C17.9199 35.0373 17.3785 35.1166 16.8125 36.1224C16.2464 37.1283 15.6384 36.7482 15.5223 37.4261C16.2301 36.7974 16.8284 37.1619 17.2384 36.5552C17.8614 35.6337 18.4168 35.734 18.6454 35.1234C18.9717 34.2517 20.5871 34.1888 20.6086 32.8434C20.0594 32.766 18.411 34.297 18.0097 34.7184L18.0097 34.7185ZM31.2052 20.8634C31.9184 21.0549 31.9806 21.9596 32.8024 22.2156C33.6244 22.4715 33.7387 23.1816 34.388 22.9748C33.7657 22.8398 33.7747 22.1323 33.1256 21.99C32.3643 21.8231 32.024 20.7004 31.4185 20.5559L31.2052 20.8634ZM34.6591 25.4317C34.7957 25.7043 34.8027 26.2015 34.3704 26.354C34.6146 26.4902 34.9586 26.3334 35.1357 26.0017C34.8776 26.6517 35.0991 27.2169 35.5609 27.3074C35.3195 26.8742 35.8007 26.6408 35.6287 26.3612C35.9243 26.4688 36.198 26.848 36.2012 27.0922C36.558 26.6555 35.8723 26.1309 35.9758 25.733L34.6591 25.4318L34.6591 25.4317ZM30.335 30.1335C29.8866 29.7805 29.7264 30.2619 29.5069 30.1092C29.3021 29.9666 29.0378 29.9579 28.9445 30.1153C29.3137 30.1101 29.1476 30.402 29.8662 30.4362C29.1534 30.5196 29.3243 31.3055 28.844 31.2901C29.3767 31.7437 29.5951 30.825 30.0149 30.9526C29.8937 30.9935 30.2238 31.2652 30.0234 31.6592C30.3783 31.6329 30.499 31.138 30.5305 30.8833L30.335 30.1335V30.1335ZM21.0683 34.6711C20.9039 34.5484 20.4446 34.51 20.2743 34.6234C20.104 34.7364 20.1667 34.7595 20.3781 34.7666C20.5896 34.7735 20.8782 35.0981 20.423 35.1397C20.2128 35.1587 20.308 35.6604 19.871 35.7171C20.0616 35.9259 20.5678 35.7566 20.7402 35.5081C20.7148 35.7057 20.9868 35.8711 20.8932 36.1115C21.2196 36.1303 20.9969 35.4517 21.512 35.4609C21.3027 35.4975 21.4136 35.9634 21.7761 35.8231C21.5619 35.9386 21.6885 36.1854 21.9311 36.1123C21.7758 36.1724 21.733 36.3752 21.958 36.4777C22.1544 36.1798 21.8667 35.164 21.0683 34.6711L21.0683 34.6711ZM39.7044 24.1126C40.3759 24.0792 40.8936 23.5117 40.8606 22.8452C40.8277 22.1787 40.2566 21.6654 39.5851 21.6988C38.9133 21.7322 38.3956 22.2996 38.4285 22.9661C38.4615 23.6327 39.0326 24.146 39.7044 24.1126Z" fill="white" stroke="black" stroke-width="0.0285386"/>
<path d="M33.4496 25.9074C33.8009 25.5403 34.3536 25.3381 34.7523 25.5803C35.1511 25.8225 36.4473 26.0724 37.0572 25.6052C37.667 25.1379 37.9541 24.8965 38.2373 24.9348C38.4635 25.238 38.7251 25.3735 39.0422 25.3839C39.1438 25.4837 39.4902 25.5538 39.6819 25.518C39.966 25.5737 40.3038 25.4695 40.5609 25.1596C40.985 25.1997 41.364 24.8663 41.4899 24.3883C41.9345 24.3137 41.9363 23.8155 41.6394 23.4984C41.3736 23.4592 41.532 22.5689 40.5844 22.7909C41.0001 23.0148 40.717 23.5181 41.0617 23.7281C40.8336 23.7395 40.5446 23.85 40.4912 24.1935C40.5672 23.9538 40.4587 23.8019 40.3946 23.7527C40.3935 23.5518 39.9219 23.0817 39.5097 23.2814C39.8155 23.3316 39.6684 23.8239 39.8968 23.9959C39.7392 24.0125 39.5765 24.0993 39.4869 24.2435C39.363 24.0487 38.9493 23.8597 38.7028 23.8545C38.6993 23.7847 38.6793 23.646 38.6452 23.5779C38.5252 23.3741 38.4208 23.1303 38.4488 22.8101C38.2496 23.0471 38.0896 23.3696 37.9957 23.6014C37.6513 23.3915 36.8431 23.7638 36.4615 23.8701C36.0799 23.9765 34.7715 23.8321 34.4576 23.5332C34.1441 23.2343 33.5557 23.0715 33.0042 22.9417C32.2458 22.7633 32.199 21.951 31.3469 21.4343C31.3795 22.4461 33.0817 25.5762 33.4497 25.9073L33.4496 25.9074ZM25.2351 34.0396C25.8842 34.0072 26.3845 33.4581 26.3527 32.8132C26.3208 32.1683 25.7687 31.6717 25.1197 31.7041C24.4706 31.7364 23.9702 32.2855 24.0021 32.9304C24.034 33.5753 24.5861 34.072 25.2351 34.0396Z" fill="white" stroke="black" stroke-width="0.0285386"/>
<path d="M22.3177 33.2636C22.5689 33.5579 22.9707 33.5203 23.1357 33.4857C23.2938 33.8459 23.7397 33.8149 23.9421 34.0063C24.1445 34.1979 24.7999 34.1476 24.9869 34.024C24.8112 34.0154 24.5785 33.922 24.3506 33.7491C24.0756 33.5407 24.178 33.0915 23.9602 32.9446C24.1091 32.7617 24.1213 32.4718 24.0807 32.3598C24.2423 32.2553 24.3571 32.0917 24.3707 32.0121C24.6587 31.9801 24.9052 31.8187 25.0047 31.6998C25.1604 31.8322 25.5276 31.6297 25.7406 31.8557C25.756 31.2762 25.1896 30.9978 24.8314 31.2086C24.6787 31.1374 24.2876 31.2097 24.2227 31.3181C24.0976 31.2717 23.7648 31.4638 23.6128 31.5854C23.7832 31.4805 23.7952 31.1905 23.7201 31.089C23.8659 31.0203 24.0223 30.8108 24.0325 30.6613C24.2443 30.6857 24.5524 30.53 24.6941 30.558C24.4521 30.272 24.0706 30.1859 23.6868 30.2315C23.2896 30.2733 23.1327 30.5617 23.095 30.8661C22.8656 31.0179 22.81 31.4941 22.9056 31.6559C22.7697 31.6584 22.6493 31.796 22.6004 31.8729C22.4128 31.8034 22.1474 31.7597 21.9593 31.7692L22.3177 33.2636ZM22.0191 31.2884C21.9292 31.065 22.0235 30.855 22.0679 30.6722C22.181 30.2063 22.0921 30.0923 21.6838 30.1742C21.6595 30.3946 21.9047 31.1013 22.0191 31.2884V31.2884Z" fill="white" stroke="black" stroke-width="0.0285386"/>
<path d="M21.6665 30.1719C21.7765 30.2718 22.1504 30.3014 22.1736 29.9665C22.2003 29.582 22.0387 29.4418 21.7137 29.6074C21.6917 29.6963 21.6785 30.0571 21.6665 30.1719Z" fill="white" stroke="black" stroke-width="0.0285386"/>
<path d="M21.7218 29.5917C21.8646 29.6415 22.1722 29.7401 22.3225 29.4082C22.4487 29.1297 22.2552 28.9293 21.9673 28.9612C21.9011 29.0435 21.7748 29.3303 21.7218 29.5917V29.5917Z" fill="white" stroke="black" stroke-width="0.0285386"/>
<path d="M21.954 28.935C21.9942 29.0382 22.3702 29.3699 22.6203 29.1032C22.8705 28.8364 22.852 28.4604 22.4513 28.3402C22.3471 28.3629 22.05 28.746 21.954 28.935V28.935Z" fill="white" stroke="black" stroke-width="0.0285386"/>
<path d="M22.4572 28.3421C22.5468 28.5564 22.8106 28.9197 23.2576 28.7222C23.7045 28.5247 23.4838 27.9668 23.2679 27.8638C23.1457 27.8786 22.6575 28.1307 22.4572 28.3421V28.3421Z" fill="white" stroke="black" stroke-width="0.0285386"/>
<path d="M23.2738 27.8687C23.2482 28.0625 23.3091 28.5843 23.9309 28.5444C24.5527 28.5046 24.3418 27.7891 24.1788 27.6922C23.9246 27.7049 23.4957 27.7351 23.2738 27.8687V27.8687Z" fill="white" stroke="black" stroke-width="0.0285386"/>
<path d="M24.2107 27.7245C24.1479 27.8764 24.0381 28.8604 25.2435 28.5299C25.3995 28.4871 25.7672 27.568 24.2107 27.7245Z" fill="white" stroke="black" stroke-width="0.0285386"/>
<path d="M24.8839 27.7857C24.7674 27.9139 25.1316 28.8832 25.9478 28.6764C26.764 28.4696 26.0252 27.5715 24.8839 27.7857Z" fill="white" stroke="black" stroke-width="0.0285386"/>
<path d="M25.5951 27.9066C25.477 28.1835 25.7141 28.9759 26.731 28.9251C27.6526 28.8791 26.6306 27.8724 25.5951 27.9066Z" fill="white" stroke="black" stroke-width="0.0285386"/>
<path d="M26.4069 28.1113C26.3483 28.2644 26.3095 29.1186 27.5123 29.1309C28.3832 29.1399 28.1124 27.9301 26.4069 28.1113Z" fill="white" stroke="black" stroke-width="0.0285386"/>
<path d="M27.7173 28.4167C27.5813 28.6854 27.4555 29.3466 28.774 29.3334C29.6188 29.325 29.0518 28.3677 27.7173 28.4167Z" fill="white" stroke="black" stroke-width="0.0285386"/>
<path d="M28.8272 28.5693C28.6474 28.841 28.8147 29.3479 29.308 29.4208C29.9273 29.5124 29.9865 28.9315 29.5523 28.6731C29.1179 28.4146 28.8272 28.5693 28.8272 28.5693Z" fill="white" stroke="black" stroke-width="0.0285386"/>
<path d="M29.3703 28.6688C29.2423 28.921 29.358 29.5119 30.2859 29.4655C30.4783 29.4558 31.1765 28.6662 29.3703 28.6688ZM22.7459 40.445C23.4973 40.4074 24.0768 39.7671 24.0402 39.015C24.0035 38.2628 23.3645 37.6835 22.6131 37.7211C21.8616 37.7587 21.2821 38.399 21.3188 39.1513C21.3554 39.9034 21.9944 40.4827 22.7459 40.445Z" fill="white" stroke="black" stroke-width="0.0285386"/>
<path d="M31.8026 20.1392C31.7025 20.2492 31.4991 20.5743 31.4611 20.6986C31.0726 22.0826 32.3395 23.0385 33.1234 24.4641C33.7413 25.5879 33.7609 27.4062 32.9412 28.6018C32.6608 29.0108 32.7559 29.1184 32.39 29.5391C32.2497 29.7005 32.0917 29.9039 32.172 30.4597C32.4131 30.3602 32.7748 30.5695 32.8544 30.758C33.0254 30.662 33.2727 30.6846 33.3654 30.7849C33.6563 30.6304 33.9053 30.6879 34.182 30.954C34.4083 30.9077 34.6554 30.9303 34.8953 31.1632C35.006 30.9128 35.2471 30.8132 35.4249 30.8568C35.3919 30.5436 35.6962 30.301 35.9827 30.4091C35.8744 29.9946 36.2446 29.6612 36.6188 29.7649C36.9221 29.5049 37.5523 29.4559 37.886 29.8065C37.3172 29.6776 37.3642 30.27 36.8882 30.2413C37.0282 30.5842 36.7225 30.8007 36.4127 30.9298C36.6095 30.8238 36.823 30.6994 36.8992 30.818C37.0669 30.6566 37.4203 30.6958 37.5119 30.7699C37.7404 30.6842 37.9669 30.7297 38.0857 31.0036C38.4108 31.1798 38.6453 31.6579 38.4356 32.0358C38.3465 31.6554 38.0844 31.686 37.9714 31.5342C37.7302 31.6337 37.4847 31.646 37.4069 31.4924C37.2736 31.6391 36.8064 31.7849 36.5857 31.586C36.5223 31.9041 36.2635 32.1794 35.9479 32.1952C36.0477 32.4351 35.823 32.8663 35.6405 33.0853C35.9463 33.2274 35.8758 33.5809 35.816 33.7938C36.2752 33.8407 35.9094 34.2614 36.7111 34.4837C36.3317 34.6251 35.5718 34.5407 35.4433 34.0748C35.0568 34.0768 34.7748 33.7059 34.7727 33.3035C34.4608 33.0392 34.3972 32.6401 34.7954 32.3403C34.4498 32.4626 34.2294 31.9138 33.7322 32.1661C33.485 32.2916 32.8082 32.1336 32.8054 31.8975C32.7087 32.0773 32.0655 32.0395 31.963 31.7473C31.7583 31.8712 31.2579 31.7038 31.2525 31.4154C30.9868 31.5512 30.608 31.3515 30.6116 31.0713C30.3559 31.0491 30.3183 30.8236 30.3264 30.6308C30.0932 30.5374 30.1439 30.3163 30.2185 30.0501C30.0522 29.8835 30.1102 29.6357 30.2217 29.4027C30.0378 29.2369 30.0626 29.0257 30.1029 28.7788C29.2581 28.7511 28.194 28.6018 25.7407 27.9824C22.0393 27.0479 21.187 29.7146 22.0744 31.3147C23.0982 33.1609 22.083 33.6236 22.4684 35.0214C22.8049 35.0745 22.994 35.3449 22.9912 35.6425C23.1887 35.6412 23.338 35.8174 23.2852 36.1701C23.4502 36.1312 23.6673 36.1683 23.8144 36.3009C23.9259 36.068 24.3266 35.9954 24.5499 36.2467C25.0039 36.1889 25.2499 36.544 25.2548 36.9986C25.5217 37.4227 25.4604 37.9594 25.2142 38.3127C25.2315 38.1282 25.1923 37.8678 25.1759 37.7112C25.1453 37.4232 24.7378 37.3832 24.77 37.1454C24.5605 37.1733 24.3533 37.07 24.2754 36.9166C24.1579 37.0273 23.9843 37.071 23.8327 37.0261C24.0745 37.119 24.2793 37.5285 24.223 37.8112C24.3561 38.0146 24.3487 38.3999 24.2079 38.5731C24.1546 38.9167 23.8977 39.0521 23.5485 38.9208C23.7354 38.7892 23.7947 38.5675 23.7768 38.3845C23.649 38.2861 23.5777 38.0884 23.5629 37.9667C23.2237 38.0361 22.7361 37.7719 22.6432 37.6624C21.8902 37.7001 21.3097 38.3384 21.3468 39.0882C21.2979 38.8106 20.9295 38.5532 20.9617 38.3155C20.7195 37.6803 20.9877 37.0633 21.8407 36.8984C21.7235 36.6593 22.0791 36.3876 21.925 36.1156C21.7283 35.7679 21.3762 35.3207 20.8587 34.8043C21.1316 34.2833 21.0104 33.6072 20.8143 33.1971C20.5329 32.6083 20.3011 32.768 19.4553 33.7899C18.077 35.4554 16.1114 35.1118 14.4452 36.2447C14.0025 36.5458 13.5527 36.6742 14.0194 36.1612C14.4861 35.6479 15.7591 35.0946 16.5798 34.6335C18.1168 33.7704 19.3863 32.3939 19.7863 29.8198C20.7263 23.7707 25.3725 25.5167 28.3025 26.4898C31.0534 27.4034 30.4458 25.053 29.0077 23.6904C27.2794 22.0527 27.5413 20.6849 28.2592 19.5643C29.6345 19.3031 32.3141 19.6501 31.8023 20.1394L31.8026 20.1392Z" fill="white" stroke="black" stroke-width="0.0285386"/>
<path d="M37.4393 34.7325C38.2668 34.691 38.9048 33.9875 38.8642 33.1609C38.8236 32.3343 38.1198 31.6979 37.2924 31.7393C36.4649 31.7808 35.827 32.4845 35.8676 33.3111C35.9081 34.1377 36.6119 34.774 37.4393 34.7325Z" fill="white" stroke="black" stroke-width="0.0285386"/>
<path d="M31.0533 20.2097C30.7717 21.7041 31.0841 22.361 31.6107 22.991C32.6986 24.2932 33.6448 27.3316 32.5433 29.3905" stroke="black" stroke-width="0.0285386"/>
<path d="M31.3459 21.9616C31.4005 21.9275 31.5662 21.865 31.5384 21.7393M33.141 27.6054C33.2766 27.5446 33.5274 27.3628 33.5737 27.07L33.141 27.6054ZM33.2129 26.9598C33.2435 26.7032 33.6267 26.5706 33.6219 26.2985L33.2129 26.9598ZM33.1725 25.9688C33.1336 25.7075 33.5366 25.4463 33.463 25.1871L33.1725 25.9688ZM32.9014 25.0363C32.8594 24.8894 33.2256 24.5865 33.1104 24.3562L32.9014 25.0363ZM32.571 24.1336C32.485 23.9717 32.7346 23.7636 32.6137 23.5951L32.571 24.1336ZM32.1198 23.4219C32.0883 23.3096 32.2358 23.0504 32.1421 22.9067L32.1198 23.4219ZM31.6622 22.5797C31.6945 22.5338 31.8276 22.4205 31.7647 22.2925L31.6622 22.5797Z" stroke="black" stroke-width="0.0285386" stroke-linecap="round"/>
<path d="M39.8489 22.6779C39.5988 22.7031 39.3763 22.485 39.3808 22.2863C39.3903 22.4323 39.732 22.4787 39.8294 22.3774M23.5411 38.9125C23.1874 38.8151 22.7663 39.0156 22.6987 39.3134L23.5411 38.9125ZM22.9752 39.5624C22.9996 39.2677 23.4408 39.1089 23.588 39.2371C23.2927 39.1016 23.1899 39.6603 23.4417 39.661L22.9752 39.5624ZM25.3205 32.5847C25.1197 32.7015 25.0837 33.0834 25.3699 33.3492L25.3205 32.5847ZM25.637 32.65C25.498 32.78 25.5298 33.1401 25.7515 33.2117C25.5617 33.0949 25.7288 32.8596 25.858 32.8424C25.987 32.8252 26.0834 32.9741 25.9379 33.139L25.637 32.65ZM37.8397 32.6955C37.3474 32.5988 36.9943 33.1828 37.4673 33.6518C37.4277 33.1713 37.753 32.8308 38.1821 32.8885L37.8397 32.6955ZM38.0088 33.2341C37.8897 33.242 37.8288 33.3388 37.8346 33.4288C37.8408 33.5234 37.9287 33.6082 38.0628 33.5993C38.1493 33.5936 38.2121 33.4903 38.2071 33.4129L38.0088 33.2341ZM39.0349 22.5765C39.1316 22.8633 39.5458 22.9566 39.8611 22.8668L39.0349 22.5765Z" stroke="black" stroke-width="0.0285386" stroke-linecap="round" stroke-linejoin="round"/>
<path d="M40.2792 24.2186C40.2558 24.3271 40.1884 24.4981 40.0977 24.5768M23.284 33.597C23.2033 33.4313 23.4701 33.2428 23.4682 33.0805C23.4662 32.9182 23.7619 32.7707 24.0948 33.0566L23.284 33.597ZM23.828 31.2535C23.7689 31.283 23.719 31.3204 23.668 31.3409L23.828 31.2535ZM24.4886 32.1417C24.415 32.1508 24.2624 32.1523 24.1762 32.1023L24.4886 32.1417ZM24.206 32.4852C24.1471 32.519 24.0158 32.5789 23.9387 32.6011L24.206 32.4852ZM21.5638 37.8215C21.5652 37.9754 21.7362 38.1863 21.8275 38.2487L21.5638 37.8215ZM22.2176 37.4112C22.1391 37.5445 22.1016 37.7693 22.1637 37.919L22.2176 37.4112ZM23.5453 37.8374C23.3822 37.7454 23.4691 37.4746 23.4406 37.3056C23.412 37.1365 23.5939 36.8511 24 37.0553L23.5453 37.8374ZM22.0223 36.9625C22.177 36.9267 22.3426 36.9243 22.4496 36.9601L22.0223 36.9625ZM23.971 36.3476C23.9076 36.4457 23.897 36.5491 23.8928 36.6178L23.971 36.3476ZM24.6995 36.2829C24.5779 36.2909 24.4793 36.3827 24.4327 36.4714L24.6995 36.2829ZM22.7277 32.0349C22.8698 32.0727 23.2445 32.2661 23.2724 32.4909L22.7277 32.0349ZM24.132 30.8316C23.7057 30.8509 23.5127 30.4361 23.8342 30.4151L24.132 30.8316ZM24.9342 31.3516C24.7736 31.4305 24.8703 31.7063 25.1138 31.8271L24.9342 31.3516ZM24.0931 34.0911C24.0039 33.9944 24.0929 33.6895 24.3681 33.7611L24.0931 34.0911ZM24.9315 37.1567C24.9317 36.8961 25.2562 36.7209 25.4102 37.0057L24.9315 37.1567ZM23.7464 37.9777C23.7059 37.694 23.8475 37.5908 23.9767 37.5653C24.1059 37.5398 24.2997 37.6337 24.3989 37.8154L23.7464 37.9777ZM21.1716 38.3601C21.1778 38.1887 21.3138 38.0003 21.4718 38.0156L21.1716 38.3601ZM36.5731 29.7615C36.4653 29.8498 36.4153 30.2163 36.8475 30.2223L36.5731 29.7615ZM35.9522 30.4006C35.955 30.4431 36.0154 30.499 36.0519 30.5223L35.9522 30.4006ZM38.0472 30.9476C37.9287 30.8698 37.6602 31.2336 37.9418 31.4674L38.0472 30.9476ZM35.4726 33.9884C35.3915 33.7501 35.6175 33.6711 35.8381 33.708L35.4726 33.9884ZM34.8037 32.3052C34.9284 32.2115 35.0527 32.1094 35.2149 32.056L34.8037 32.3052ZM34.7956 33.2457C34.7822 33.0414 34.8752 32.8645 34.9673 32.8071L34.7956 33.2457ZM35.4054 30.8468C35.4044 31.0948 35.5244 31.3264 35.611 31.4489L35.4054 30.8468ZM37.4746 30.7285C37.351 30.7751 37.2411 30.8293 37.2002 30.9346L37.4746 30.7285ZM37.3812 31.4356C37.4388 31.3805 37.5044 31.3165 37.532 31.2719L37.3812 31.4356ZM40.1767 23.7893C40.1924 24.0277 39.8967 24.1752 39.687 24.0351L40.1767 23.7893ZM40.8378 23.7546C40.979 23.848 41.4373 23.7197 41.3114 23.4629L40.8378 23.7546ZM40.3629 25.1622C40.2662 25.1514 40.0944 25.06 40.0193 24.9795L40.3629 25.1622ZM41.2722 24.3932C41.1181 24.4375 41.0115 24.4102 40.931 24.3813L41.2722 24.3932ZM38.8607 25.4059C38.9475 25.4002 39.1537 25.3525 39.2925 25.2708L38.8607 25.4059ZM38.5011 23.9164C38.3873 23.9111 38.306 23.9377 38.2438 23.9846L38.5011 23.9164Z" stroke="black" stroke-width="0.0285386" stroke-linecap="round"/>
<path d="M39.5189 24.2607C39.4557 24.3593 39.4219 24.5077 39.4216 24.6365M38.4949 24.7066C38.7054 24.5983 39.0216 25.3077 39.5247 25.0168L38.4949 24.7066Z" stroke="black" stroke-width="0.0285386" stroke-linecap="round" stroke-linejoin="round"/>
<path d="M29.3412 23.3695C29.6577 23.7203 30.1251 23.9241 30.5244 23.2844M28.9307 23.5998C29.0005 23.5876 29.1221 23.5553 29.1441 23.4669L28.9307 23.5998ZM20.3029 32.1566C20.5735 32.2916 20.7702 32.5349 20.6746 32.915L20.3029 32.1566ZM31.9265 22.6475C32.0081 22.6959 32.3065 22.681 32.4701 22.6118L31.9265 22.6475ZM32.6899 22.7842C32.6871 22.9065 32.7451 23.3663 32.513 23.4739L32.6899 22.7842ZM32.5979 23.4086C32.8207 23.4673 33.2582 23.4194 33.3787 23.0118L32.5979 23.4086ZM33.0881 23.3663C33.2107 23.5348 33.2624 23.8727 32.9294 24.0726L33.0881 23.3663ZM33.19 23.6497C33.4487 23.7242 34.0371 23.7035 33.951 23.2103L33.19 23.6497ZM33.7694 23.6209C33.957 23.856 34.7434 24.1049 34.5955 23.606L33.7694 23.6209ZM33.0935 24.3611C33.3951 24.416 33.8065 24.1947 33.6052 23.681L33.0935 24.3611ZM34.4602 23.9005C34.5139 24.0986 35.5069 24.2587 35.353 23.8124L34.4602 23.9005ZM35.1817 24.0831C35.3867 24.492 36.3588 24.4087 36.0243 23.8666L35.1817 24.0831ZM35.8879 24.3094C36.0925 24.5349 36.9457 24.3527 36.5755 23.8037L35.8879 24.3094ZM36.5889 24.2658C37.1439 24.6398 37.7385 24.034 37.0422 23.6496L36.5889 24.2658ZM37.3722 24.0961C37.8647 24.447 38.4102 23.7389 37.9883 23.5679L37.3722 24.0961ZM33.6179 24.1257C33.7692 24.1618 34.0843 24.1287 34.1411 23.8553L33.6179 24.1257ZM34.0318 24.0438C34.034 24.441 34.7128 24.5599 34.8611 24.0942L34.0318 24.0438ZM34.6498 24.3536C34.7855 24.6088 35.3785 24.684 35.4564 24.3048L34.6498 24.3536ZM35.3687 24.4838C35.4781 24.7403 35.9857 24.6888 36.1127 24.4118L35.3687 24.4838ZM35.937 24.5954C36.1116 24.9272 36.7608 24.8949 36.8855 24.3911L35.937 24.5954ZM36.7826 24.6141C37.0447 24.7582 37.5858 24.6701 37.5177 24.1847L36.7826 24.6141ZM37.4296 24.5385C37.8218 24.8246 38.3425 24.5018 38.0539 24.0011L37.4296 24.5385ZM38.0723 24.9078C38.2725 24.8629 38.3579 24.4571 38.1421 24.3631L38.0723 24.9078ZM33.3994 25.2103C33.8092 24.963 33.8693 24.5759 33.5613 24.2158L33.3994 25.2103ZM33.7402 24.8094C34.0112 24.953 34.503 24.7628 34.5718 24.3752L33.7402 24.8094ZM34.102 24.8348C34.2605 25.0189 34.2985 25.2528 34.1162 25.4801L34.102 24.8348ZM34.2367 25.0727C34.6875 24.7622 35.2927 25.2646 34.8788 25.6082L34.2367 25.0727ZM34.7707 25.0201C34.8747 24.9887 35.0495 24.788 35.0562 24.5694L34.7707 25.0201ZM34.991 25.2098C35.1741 24.9998 36.5106 25.3437 35.6976 25.8031L34.991 25.2098ZM35.5781 24.6306C35.8372 24.7137 35.9865 25.0643 35.6065 25.2054L35.5781 24.6306ZM35.9547 25.485C36.2212 25.1837 37.1077 25.3228 36.8099 25.7044L35.9547 25.485ZM36.5808 25.34C36.7124 24.8009 37.6676 25.0851 37.3713 25.3181L36.5808 25.34ZM36.3616 24.8183C36.3931 24.9215 36.4147 25.1823 36.2462 25.3304L36.3616 24.8183ZM37.1462 24.6746C37.1855 24.76 37.185 24.9258 37.1111 25.0343L37.1462 24.6746ZM37.7429 24.6536C37.8003 24.7467 37.897 24.9253 37.7113 25.0829L37.7429 24.6536ZM30.0349 21.0215C30.068 21.5174 30.26 21.8396 30.9201 21.4925L30.0349 21.0215ZM30.2745 21.6034C29.9631 22.0641 30.364 22.5243 30.9984 22.0126L30.2745 21.6034ZM29.2584 21.872C29.7387 22.3369 30.5371 21.9393 29.9741 21.2252L29.2584 21.872ZM30.5779 22.2255C30.5137 22.7088 30.9133 22.785 31.2271 22.5511L30.5779 22.2255ZM28.859 21.9705C28.9659 22.4479 29.4807 22.8038 29.9486 22.4837L28.859 21.9705ZM29.4885 22.6029C29.5225 23.2909 30.4827 23.3217 30.6668 22.5967L29.4885 22.6029ZM30.346 23.0489C30.684 23.6606 31.3383 23.3748 31.5387 22.9808L30.346 23.0489ZM29.6206 22.0812C29.7585 22.3798 30.0211 22.7073 30.5788 22.4263L29.6206 22.0812ZM27.8588 22.0203C27.9503 22.2688 28.4216 22.551 28.9308 22.1764L27.8588 22.0203ZM28.1991 22.3265C27.9384 22.7498 28.5189 23.105 29.1644 22.4618L28.1991 22.3265ZM28.5576 22.8152C28.7 23.3843 28.9508 23.8345 29.739 23.0532L28.5576 22.8152Z" stroke="black" stroke-width="0.0285386"/>
<path d="M30.6325 27.4282C30.451 28.0354 30.6619 28.2362 31.134 28.2217M30.8626 23.3871C30.857 23.8273 30.9546 24.0424 31.2946 24.008C31.5625 23.9809 31.808 23.7539 31.9458 23.5184L30.8626 23.3871ZM31.2336 24.0115C31.2483 24.5123 31.66 24.8879 32.3699 24.3425L31.2336 24.0115ZM31.5668 24.5842C31.4448 24.9686 31.893 25.5623 32.6994 25.2058L31.5668 24.5842ZM29.7815 23.6695C29.7519 24.1548 30.2127 24.4576 30.8997 23.799L29.7815 23.6695ZM30.1562 24.1877C30.201 24.5814 30.6688 25.0334 31.2918 24.3163L30.1562 24.1877ZM30.494 24.6727C30.4733 25.3512 31.1027 25.5137 31.6024 24.97L30.494 24.6727ZM29.5359 24.2183C29.676 24.2202 29.7838 24.0917 29.8495 24.0004L29.5359 24.2183ZM29.8559 24.6949C29.9794 24.7152 30.1839 24.5908 30.2471 24.4469L29.8559 24.6949ZM30.1996 25.4787C30.3464 25.621 30.8131 25.4924 30.8646 25.2875L30.1996 25.4787ZM30.7234 25.4441C31.0145 26.0456 31.7119 25.9847 31.9675 25.277L30.7234 25.4441ZM31.848 25.5296C31.9959 25.883 32.3387 26.0948 32.8745 25.9452L31.848 25.5296ZM32.1274 25.8852C31.8453 26.4007 32.2748 26.9689 32.9288 26.356L32.1274 25.8852ZM32.3286 26.623C32.3087 26.9407 32.6139 27.2863 33.009 27.3108L32.3286 26.623ZM30.992 25.7653C30.9206 26.4815 31.4434 26.7988 32.0635 26.3898L30.992 25.7653ZM30.2658 26.1444C30.4379 26.2679 30.7359 26.2708 31.0104 26.1516L30.2658 26.1444ZM31.3704 26.5473C31.2412 27.152 31.8731 27.5519 32.3658 26.8589L31.3704 26.5473ZM30.5064 26.2292C30.5297 26.536 30.8425 26.8549 31.3532 26.7329L30.5064 26.2292ZM32.8234 27.2763C32.485 27.5305 32.4349 27.9553 32.9371 28.2032L32.8234 27.2763ZM31.9612 27.1953C31.9958 27.5543 32.1713 27.7481 32.566 27.7637L31.9612 27.1953ZM31.4376 27.0364C30.9362 27.5451 31.4779 28.0815 32.0759 27.5768L31.4376 27.0364ZM31.8383 27.7381C31.6896 28.2998 32.3606 28.601 32.6835 28.0219L31.8383 27.7381ZM30.6997 26.6154C30.5331 27.1691 30.7948 27.517 31.2386 27.4598L30.6997 26.6154ZM30.0045 26.5442C30.046 26.8677 30.3308 26.9681 30.6421 26.8823L30.0045 26.5442ZM30.2214 26.8768C30.007 27.3448 30.3768 27.573 30.8404 27.3741L30.2214 26.8768ZM32.3211 28.3215C32.256 28.615 32.3096 28.8236 32.7422 28.899L32.3211 28.3215ZM32.3666 28.733C31.8622 28.9955 31.8421 29.498 32.2592 29.8029L32.3666 28.733ZM31.9252 28.1962C31.6661 28.4554 31.7384 28.8785 32.0433 29.0306L31.9252 28.1962ZM29.5569 26.7074C29.2736 27.0161 29.5958 27.814 30.23 27.3385L29.5569 26.7074ZM31.3087 27.65C30.9224 28.0034 31.1345 28.6001 31.7905 28.4005L31.3087 27.65Z" stroke="black" stroke-width="0.0285386"/>
<path d="M28.445 27.9315C28.025 27.97 27.8514 28.1886 27.8657 28.4766M29.096 26.7003C28.75 26.9887 28.8653 27.3678 29.0318 27.5344C29.1982 27.7011 29.4922 27.6076 29.5774 27.3759L29.096 26.7003ZM28.3302 26.5028C27.9525 27.0378 28.3858 27.6283 28.9467 27.4166L28.3302 26.5028ZM30.5623 27.9217C30.1577 28.0907 29.8618 28.4787 30.1307 28.7917C30.2892 28.9762 30.9391 28.97 31.0865 28.2191L30.5623 27.9217ZM29.7932 27.4788C29.5734 27.8309 29.6681 28.1498 30.1146 28.2936L29.7932 27.4788ZM29.7986 28.1175C29.5512 28.2698 29.3928 28.444 29.4694 28.7463L29.7986 28.1175ZM29.2028 27.6137C29.1267 28.0286 29.253 28.276 29.5131 28.3854L29.2028 27.6137ZM29.2182 28.1025C28.8224 28.0961 28.6291 28.2719 28.7794 28.6493L29.2182 28.1025ZM28.7933 28.22C28.4008 28.0996 28.3229 27.7712 28.4722 27.4139L28.7933 28.22Z" stroke="black" stroke-width="0.0285386"/>
<path d="M24.9722 26.9797C24.4696 26.9436 24.4191 27.5234 24.5989 27.7855M27.785 26.2962C27.4847 26.4424 27.4086 26.8572 27.5336 27.0784C27.659 27.2995 28.0192 27.299 28.231 27.1396L27.785 26.2962ZM26.9104 26.0167C26.6455 26.3448 26.9998 26.9393 27.4923 26.7659L26.9104 26.0167ZM26.1796 25.8082C25.9347 26.1877 26.2541 26.7841 26.9205 26.5758L26.1796 25.8082ZM27.0394 28.2752C26.9478 27.8425 27.3893 27.5318 27.9785 28.0708L27.0394 28.2752ZM27.6633 27.2036C27.5042 27.3603 27.4371 27.5997 27.4726 27.7904L27.6633 27.2036ZM25.4505 25.635C25.1853 26.138 25.5581 26.5654 26.1718 26.3598L25.4505 25.635ZM27.1319 26.7662C26.7401 27.1969 26.9006 27.5999 27.219 27.8201L27.1319 26.7662ZM26.8926 27.2595C26.2708 27.2994 26.2711 28.0165 26.7908 28.218L26.8926 27.2595ZM26.3841 26.5678C26.1386 26.7551 26.0834 27.2388 26.5312 27.4088L26.3841 26.5678ZM26.4197 27.6418C26.1507 27.5328 25.8425 27.6969 25.8839 28.0009L26.4197 27.6418ZM26.0254 27.6702C25.7611 27.1237 25.0734 27.2543 25.1634 27.8271L26.0254 27.6702ZM26.1841 26.9712C26.0365 27.0048 25.7427 27.1069 25.64 27.3395L26.1841 26.9712ZM25.6363 26.3689C25.3714 26.697 25.6088 27.0612 25.8407 27.1283L25.6363 26.3689ZM24.7602 25.5294C24.7261 25.9071 24.8842 26.0829 25.3558 26.0243L24.7602 25.5294ZM24.95 26.0012C24.7882 26.4641 25.0436 26.6525 25.5156 26.6026L24.95 26.0012ZM25.0827 26.5542C24.8186 26.8997 25.0292 27.2478 25.3081 27.3825L25.0827 26.5542Z" stroke="black" stroke-width="0.0285386"/>
<path d="M24.3223 26.3446C24.0867 26.7435 24.3273 27.0223 24.6035 27.1234M24.4922 25.4737C24.1925 25.6204 24.0355 26.0155 24.2125 26.2446C24.3896 26.4737 24.718 26.3784 24.8958 26.2465L24.4922 25.4737Z" stroke="black" stroke-width="0.0285386"/>
<path d="M21.7848 29.5776C21.3852 29.4793 21.3536 29.0117 21.6951 28.8192M23.2776 25.4863C23.0866 25.7063 23.2301 26.1289 23.7206 26.113C24.1155 26.1003 24.2976 25.7158 24.1623 25.4595L23.2776 25.4863ZM23.6507 26.1164C23.5103 26.4742 23.625 26.8455 24.2171 26.7544L23.6507 26.1164ZM24.4979 27.293C24.1223 27.1453 23.6403 27.336 23.8718 27.7629L24.4979 27.293ZM23.7673 26.707C23.6288 26.9244 23.696 27.2192 23.8712 27.3946L23.7673 26.707ZM23.7687 27.268C23.5258 27.3241 23.2959 27.4672 23.4636 27.8446L23.7687 27.268ZM23.4127 27.5316C23.0929 27.4512 22.7015 27.6988 22.9624 28.0101L23.4127 27.5316ZM22.8954 27.7068C22.622 27.6767 22.3123 27.9816 22.589 28.2571L22.8954 27.7068ZM22.4723 28.026C22.2303 28.0995 21.9552 28.3939 22.2197 28.5999L22.4723 28.026ZM23.639 26.5909C23.2967 26.7659 23.281 27.1613 23.4614 27.4417L23.639 26.5909ZM23.2355 25.8833C22.7202 26.1109 22.7633 26.8103 23.3516 27L23.2355 25.8833ZM23.0988 26.8544C22.7928 27.0539 22.7487 27.4069 22.9699 27.6238L23.0988 26.8544ZM22.4876 25.6577C22.281 25.7383 22.3302 26.3847 22.8895 26.3391L22.4876 25.6577ZM21.921 25.9052C21.5147 26.2061 22.057 26.8892 22.7147 26.3477L21.921 25.9052ZM22.3467 26.5413C22.2996 26.8331 22.3938 27.1441 22.8593 27.1558L22.3467 26.5413ZM22.3917 26.9253C22.0652 27.0644 22.0373 27.7498 22.6437 27.772L22.3917 26.9253ZM21.3029 26.3573C20.8933 26.7724 21.6889 27.0745 21.9499 26.4914L21.3029 26.3573ZM20.7397 27.043C20.5421 27.3072 21.3097 27.9352 21.5792 26.808L20.7397 27.043ZM21.6569 26.7867C21.6872 27.0483 21.8525 27.1979 22.177 27.1991L21.6569 26.7867ZM22.1811 27.4534C21.6686 27.558 21.5341 28.2137 22.1184 28.3247L22.1811 27.4534ZM21.2227 27.4137C21.2172 27.6595 21.4808 27.848 21.7675 27.7898L21.2227 27.4137ZM22.0563 28.31C21.5888 28.4387 21.5576 29.0541 21.976 28.998L22.0563 28.31Z" stroke="black" stroke-width="0.0285386"/>
<path d="M22.9326 35.6571C22.7804 35.682 22.6277 35.7906 22.7563 36.1104C22.8455 36.3321 23.1824 36.3273 23.2242 36.1888M21.4086 29.1886C21.0859 29.4069 21.2392 29.8837 21.4172 29.9454C21.5953 30.0072 21.731 29.9125 21.7417 29.7623L21.4086 29.1886ZM21.7465 30.4401C21.792 30.6668 20.9446 30.6201 21.3444 29.8873L21.7465 30.4401ZM21.3678 30.4985C21.1044 30.9604 21.5844 31.3024 21.8596 30.906L21.3678 30.4985ZM21.4323 31.0369C21.3353 31.4026 21.7798 31.6408 22.0465 31.346L21.4323 31.0369ZM20.3328 27.7088C20.1904 28.0416 20.9826 28.1263 21.0043 27.4559L20.3328 27.7088ZM20.1368 28.203C20.0087 28.8433 21.1911 28.6536 20.8476 27.8514L20.1368 28.203ZM20.893 28.2718C21.0635 28.3603 21.5621 28.3448 21.6597 27.8029L20.893 28.2718ZM21.3222 28.2683C21.3648 28.4335 21.5227 28.6283 21.6653 28.6831L21.3222 28.2683ZM20.762 28.463C20.7253 28.8082 21.0791 29.0728 21.4712 29.0273L20.762 28.463ZM20.8382 28.7941C20.6581 29.0671 20.6204 29.5796 21.225 29.5854L20.8382 28.7941ZM19.9247 28.9267C19.8412 29.2037 20.4222 29.4572 20.7336 28.9929L19.9247 28.9267ZM19.7819 29.6289C19.7433 29.8378 20.2673 30.0896 20.5153 29.1969L19.7819 29.6289ZM20.3088 29.6563C20.4412 29.8699 20.8601 30.0257 21.0937 29.5828L20.3088 29.6563ZM20.695 29.8666C20.6043 30.1793 20.906 30.4551 21.2516 30.3503L20.695 29.8666ZM20.0365 29.8282C19.9868 30.2709 20.5054 30.501 20.8095 30.2572L20.0365 29.8282ZM19.7131 30.0376C19.5905 30.6072 20.3168 30.7831 20.5683 30.3481L19.7131 30.0376ZM20.3928 30.5241C20.4336 30.8391 20.9356 31.0876 21.308 30.8053L20.3928 30.5241ZM19.5309 30.8303C19.5024 30.9726 20.0945 31.0846 20.1591 30.5883L19.5309 30.8303ZM19.8775 30.9365C20.0339 31.2899 20.5099 31.3548 20.7606 30.9023L19.8775 30.9365ZM20.6113 31.0856C20.6879 31.4165 21.1246 31.5802 21.4899 31.3334L20.6113 31.0856ZM21.653 31.4577C21.5776 31.9105 22.0573 32.2481 22.3344 31.9881L21.653 31.4577ZM20.9067 31.4148C20.7896 31.9136 21.4142 32.1649 21.7425 31.876L20.9067 31.4148ZM20.1614 31.2044C20.1474 31.6629 20.5183 31.9179 20.9197 31.6957L20.1614 31.2044ZM19.3854 31.2865C19.2768 31.5912 19.9349 31.8057 20.229 31.536L19.3854 31.2865ZM19.0208 32.1232C19.1958 32.3083 19.7636 32.087 19.7962 31.6539L19.0208 32.1232ZM19.6539 31.9774C19.875 32.2133 20.3792 32.3207 20.556 31.7837L19.6539 31.9774ZM20.3936 32.065C20.4023 32.4432 21.0878 32.6828 21.2743 31.978L20.3936 32.065ZM22.0711 32.0757C22.0184 32.2631 22.1762 32.5504 22.4793 32.5709L22.0711 32.0757ZM21.511 31.9887C21.477 32.2016 21.7965 32.481 22.1144 32.3467L21.511 31.9887ZM22.18 32.4314C22.1031 32.6641 22.1925 32.9899 22.4982 32.9706L22.18 32.4314ZM22.23 32.8562C22.0117 33.0605 22.1236 33.3985 22.452 33.3958L22.23 32.8562ZM22.1272 33.1867C21.8139 33.4219 21.9498 33.8997 22.3768 33.8527L22.1272 33.1867ZM21.1054 32.3033C21.1273 32.7777 21.716 32.8194 21.8094 32.3746L21.1054 32.3033ZM21.595 32.6667C21.5205 32.9521 21.7603 33.2134 22.115 33.1169L21.595 32.6667ZM21.8213 36.0548C21.9053 36.1653 22.2197 35.9563 22.1234 35.7673C22.027 35.5782 21.6894 35.7 21.7353 35.9006L21.8213 36.0548ZM22.0407 35.6918C22.0666 35.3031 21.6093 35.2639 21.5111 35.6032L22.0407 35.6918ZM21.6682 35.402C21.773 35.2031 21.3763 34.9584 21.2319 35.2471L21.6682 35.402ZM21.3666 35.1257C21.4585 34.8393 21.0159 34.7378 20.9927 34.9942L21.3666 35.1257ZM20.8796 34.6298C20.9256 34.4867 21.419 34.5506 21.2226 34.8508L20.8796 34.6298ZM21.6147 35.1842C21.7989 34.999 21.4589 34.6546 21.264 34.7963L21.6147 35.1842Z" stroke="black" stroke-width="0.0285386"/>
<path d="M19.2051 32.7077C19.1962 32.8836 19.2983 33.1767 19.7385 33.0318M22.7128 35.8256C22.5594 35.7369 22.2435 35.915 22.4077 36.2226C22.5313 36.4541 22.8083 36.3428 22.846 36.2181L22.7128 35.8256ZM21.8989 36.3182C21.9796 36.4456 22.3487 36.3702 22.4073 36.2225L21.8989 36.3182ZM22.1316 35.8722C22.2077 35.8157 22.3552 35.8739 22.3891 35.9381L22.1316 35.8722ZM22 33.7167C21.7544 33.8956 21.9367 34.3953 22.324 34.2442L22 33.7167ZM21.9413 34.1321C21.7477 34.2996 21.9555 34.7805 22.3227 34.5779L21.9413 34.1321ZM22.0254 34.5927C21.8923 34.7397 22.0469 35.1222 22.4064 35.0297L22.0254 34.5927ZM21.9821 34.7877C21.9016 34.7566 21.6973 34.7931 21.6161 34.9287L21.9821 34.7877ZM21.6682 33.0271C21.4848 33.2205 21.595 33.5923 21.9552 33.6048L21.6682 33.0271ZM21.6169 33.4155C21.3479 33.565 21.3746 34.1117 21.927 34.106L21.6169 33.4155ZM21.6254 34.0335C21.4783 34.1637 21.5757 34.6325 21.9664 34.5513L21.6254 34.0335ZM21.7773 34.5436C21.7231 34.6033 21.7215 34.7482 21.7726 34.807L21.7773 34.5436ZM21.5935 34.373C21.4537 34.3843 21.2749 34.4943 21.2338 34.641L21.5935 34.373ZM20.9553 34.1461C21.0009 34.0035 21.4345 33.9906 21.4852 34.4004L20.9553 34.1461ZM21.5048 33.9082C21.4442 33.9245 21.3289 33.9873 21.3041 34.107L21.5048 33.9082ZM21.2541 32.636C21.0743 32.816 21.0088 33.3588 21.587 33.435L21.2541 32.636ZM20.928 33.7661C20.9209 33.6216 21.3043 33.4796 21.4504 33.6872L20.928 33.7661ZM20.6402 32.9953C20.7024 33.1019 20.9809 33.2371 21.1412 33.1062L20.6402 32.9953ZM19.1895 32.2088C19.1932 32.463 19.4143 32.68 19.7013 32.6305C19.9883 32.581 20.0372 32.3241 19.9415 32.1623L19.1895 32.2088ZM19.7455 32.637C19.5645 32.8829 19.817 33.2036 20.0311 33.0963L19.7455 32.637ZM19.9564 32.4597C20.068 32.4102 20.4416 32.3389 20.5639 32.5081L19.9564 32.4597ZM18.7434 32.5908C18.6623 32.7264 19.2112 32.8305 19.3825 32.5674L18.7434 32.5908Z" stroke="black" stroke-width="0.0285386"/>
<path d="M18.6253 32.7541C18.505 32.9876 19.0338 33.3768 19.3041 32.9783M19.8197 33.2802C19.8825 33.1283 19.5374 32.9006 19.2966 33.1839C19.0559 33.4672 19.3601 33.7582 19.5127 33.6455L19.8197 33.2802Z" stroke="black" stroke-width="0.0285386"/>
<path d="M18.3028 33.1596C18.128 33.3565 18.3729 33.6898 18.6438 33.5712C18.9146 33.4526 18.8742 33.166 18.8048 33.0951" stroke="black" stroke-width="0.0285386"/>
<path d="M22.4193 36.497C22.583 36.6113 22.8566 36.4577 22.8475 36.2742M18.0295 33.5231C17.8872 33.6658 18.0475 33.9771 18.2535 33.9668C18.4594 33.9565 18.5785 33.7888 18.5289 33.5856L18.0295 33.5231ZM18.8649 33.4551C18.8485 33.6572 19.1534 33.7819 19.3369 33.5847L18.8649 33.4551ZM19.3279 33.2173C19.3521 33.1723 19.3265 33.0992 19.281 33.0664L19.3279 33.2173ZM17.7233 33.8096C17.5592 33.9535 17.9458 34.3103 18.1609 33.9539L17.7233 33.8096ZM19.0381 33.6693C18.9337 33.7795 19.1226 34.0456 19.2937 33.9538L19.0381 33.6693ZM18.4477 33.8913C18.4832 34.0775 18.8582 34.1987 19.0762 33.8992L18.4477 33.8913ZM18.6584 34.0688C18.6073 34.1896 18.7305 34.3716 18.8694 34.3384L18.6584 34.0688ZM22.1994 34.9725C22.0768 35.2454 22.5258 35.5337 22.8253 35.1948L22.1994 34.9725ZM22.5342 35.3536C22.4756 35.5008 22.5644 35.6977 22.6863 35.7659L22.5342 35.3536ZM22.1375 35.6752C22.1617 35.5426 22.344 35.411 22.518 35.4636L22.1375 35.6752ZM21.8924 35.3417C21.9129 35.2228 22.0647 35.0969 22.1846 35.1217L21.8924 35.3417ZM31.9419 29.3786C31.3202 29.4185 31.6322 30.4004 32.1568 30.1728L31.9419 29.3786ZM31.7767 30.1223C31.6639 30.3292 31.9162 30.6359 32.1698 30.4351L31.7767 30.1223ZM32.1021 30.4778C31.933 30.7925 32.6134 31.2265 32.8525 30.7332L32.1021 30.4778ZM32.6514 30.9269C32.6742 31.2146 33.5246 31.3557 33.3737 30.7857L32.6514 30.9269ZM33.3101 31.1037C33.5283 31.434 34.2837 31.4312 34.1798 30.9289L33.3101 31.1037ZM34.0307 31.2867C34.1998 31.5057 34.9427 31.6084 34.8932 31.1385L34.0307 31.2867ZM30.9003 28.5649C31.0188 28.8302 31.3828 28.9083 31.7694 28.7314L30.9003 28.5649ZM30.6823 28.7683C30.9354 28.9131 30.6115 29.6468 30.2206 29.3776L30.6823 28.7683ZM30.7043 29.2134C30.9825 29.3307 31.3107 29.218 31.3881 28.8291L30.7043 29.2134ZM31.2362 29.134C31.2724 29.3335 31.5694 29.4761 31.9423 29.3786L31.2362 29.134ZM30.5716 29.3777C30.9369 29.6569 30.4587 30.2933 30.217 30.0254L30.5716 29.3777ZM30.7145 29.5977C30.887 29.7116 31.313 29.6202 31.3408 29.2951L30.7145 29.5977ZM31.1614 29.5753C31.2069 29.783 31.3773 29.8532 31.6143 29.8501L31.1614 29.5753ZM30.6324 29.8904C30.8196 30.1261 31.2612 30.1739 31.438 29.8414L30.6324 29.8904ZM31.2539 30.0343C31.2482 30.2709 31.5205 30.4497 31.7896 30.3837L31.2539 30.0343ZM30.325 30.6059C30.5583 30.7079 30.7826 30.268 30.5752 29.9809L30.325 30.6059ZM30.6103 31.0466C30.8829 31.0504 30.8976 30.6384 30.6324 30.4242L30.6103 31.0466ZM31.2511 31.3906C31.4765 31.3268 31.3816 30.8328 30.8273 30.8168L31.2511 31.3906ZM31.9611 31.723C32.1772 31.6509 31.9747 31.1098 31.3719 31.175L31.9611 31.723ZM32.8034 31.8732C32.941 31.6388 32.4314 31.2794 32.0383 31.5003L32.8034 31.8732ZM33.2305 32.1665C33.5061 32.2315 33.6547 31.5066 32.8016 31.663L33.2305 32.1665ZM33.7302 32.1415C33.964 32.0685 34.1093 31.6325 33.424 31.8068L33.7302 32.1415ZM34.2578 32.1504C34.4732 32.2446 34.5395 31.6288 33.9079 31.8267L34.2578 32.1504ZM30.632 30.4242C30.9022 30.5594 31.3055 30.3642 31.2539 30.0343L30.632 30.4242ZM31.1631 30.328C31.2587 30.4807 31.2386 30.788 31.076 30.8748L31.1631 30.328ZM31.2074 30.6932C31.3861 30.7543 31.6197 30.6813 31.7461 30.395L31.2074 30.6932ZM31.5144 30.6779C31.5728 30.7975 31.6026 31.0409 31.4945 31.1689L31.5144 30.6779ZM31.5688 30.8849C31.7668 30.98 31.9876 30.829 32.0741 30.6234L31.5688 30.8849ZM31.9599 30.8039C32.1044 30.8842 32.2474 31.2883 32.019 31.466L31.9599 30.8039ZM32.1411 31.2677C32.308 31.2681 32.5534 31.2558 32.7007 31.0384L32.1411 31.2677ZM32.5924 31.1576C32.7435 31.1938 32.9307 31.4295 32.8803 31.6507L32.5924 31.1576ZM32.8851 31.5713C33.051 31.5454 33.3343 31.4175 33.4033 31.2128L32.8851 31.5713ZM33.3309 31.3478C33.4752 31.4194 33.5797 31.5803 33.5715 31.7733L33.3309 31.3478ZM33.5643 31.6334C33.7304 31.6164 33.8751 31.5217 33.9098 31.3362L33.5643 31.6334ZM33.8723 31.4609C33.9972 31.4984 34.1531 31.6306 34.1701 31.7961L33.8723 31.4609ZM34.1473 31.6918C34.2691 31.6681 34.3528 31.5853 34.4258 31.459L34.1473 31.6918ZM34.7579 31.4253C34.9235 31.5745 34.7391 32.1087 34.4101 32.0289L34.7579 31.4253ZM30.8702 21.0152C30.5554 21.2234 29.6321 21.2085 30.0503 20.4263L30.8702 21.0152ZM30.9324 20.4957C30.3053 20.7808 29.4923 20.3316 30.2898 19.7579L30.9324 20.4957ZM30.0623 19.5946C29.5277 19.6214 29.2106 20.4948 29.9441 20.7555L30.0623 19.5946ZM28.0032 20.0565C27.8764 20.3341 28.3905 20.6058 28.7189 20.3181C28.9733 20.0953 28.9258 19.529 28.7573 19.3187L28.0032 20.0565ZM27.7634 20.7159C27.6166 21.3007 28.9066 21.271 28.6597 20.3647L27.7634 20.7159ZM27.7355 21.5749C27.8008 22.0092 28.9858 21.8098 28.5565 20.9476L27.7355 21.5749ZM28.6847 20.6958C28.7875 20.8219 29.0617 21.0356 29.5063 20.9696L28.6847 20.6958ZM28.8642 20.0655C28.9115 20.2206 29.1847 20.3295 29.5207 20.1946L28.8642 20.0655ZM17.563 33.9443C17.2713 34.1734 17.7523 34.4861 17.9048 34.1066L17.563 33.9443ZM17.3344 34.1221C17.0426 34.351 17.5237 34.6636 17.6762 34.2841L17.3344 34.1221ZM17.0925 34.2962C16.8007 34.5253 17.2818 34.8379 17.4343 34.4584L17.0925 34.2962ZM16.8369 34.4579C16.5552 34.6251 16.9111 34.9835 17.1883 34.6371L16.8369 34.4579ZM16.5593 34.6164C16.2776 34.7834 16.6336 35.142 16.9108 34.7955L16.5593 34.6164ZM18.0052 34.0928C18.0118 34.3156 18.4414 34.386 18.5783 34.0465L18.0052 34.0928ZM18.2827 34.2849C18.1594 34.4573 18.4106 34.6504 18.5384 34.5694L18.2827 34.2849ZM17.7156 34.2824C17.7116 34.4707 18.0851 34.5614 18.2547 34.3473L17.7156 34.2824ZM17.9272 34.4691C17.8164 34.6277 18.0588 34.8212 18.2048 34.7525L17.9272 34.4691ZM17.479 34.4649C17.4994 34.6126 17.7181 34.7722 17.9413 34.6648L17.479 34.4649ZM17.6244 34.6587C17.5407 34.7417 17.5936 34.9229 17.7191 34.9736L17.6244 34.6587ZM17.1682 34.6685C17.1398 34.8056 17.3839 35.0341 17.6128 34.865L17.1682 34.6685ZM17.2238 34.8233C17.0891 34.9395 17.1147 35.1044 17.2954 35.1171L17.2238 34.8233ZM16.886 34.8229C16.873 34.9153 16.9987 35.0577 17.1468 35.0329L16.886 34.8229ZM16.136 34.8517C15.9995 34.9329 16.3775 35.2946 16.5835 34.9299L16.136 34.8517ZM15.7975 35.0258C15.6263 35.1177 16.0809 35.5148 16.2525 35.0774L15.7975 35.0258ZM16.9317 34.9516C16.7973 34.9889 16.7194 35.1898 16.8372 35.2625L16.9317 34.9516ZM16.4925 35.0437C16.4789 35.1232 16.6519 35.2456 16.7854 35.191L16.4925 35.0437ZM16.3805 35.0846C16.2531 35.1742 16.3347 35.4017 16.4863 35.3592L16.3805 35.0846ZM15.9193 35.2605C15.8012 35.3581 15.8934 35.5373 16.0622 35.4852L15.9193 35.2605ZM16.1419 35.2363C16.1487 35.2839 16.2619 35.3528 16.3524 35.3177L16.1419 35.2363ZM15.4897 35.1901C15.3396 35.2633 15.3673 35.6469 15.874 35.4117L15.4897 35.1901ZM15.151 35.3604C14.9414 35.4759 15.0258 35.7605 15.481 35.462L15.151 35.3604ZM15.5215 35.482C15.4668 35.5285 15.4149 35.7236 15.6259 35.6385L15.5215 35.482ZM15.1319 35.5929C15.0482 35.6759 15.1131 35.8346 15.303 35.7637L15.1319 35.5929ZM14.6819 35.642C14.5288 35.7417 14.8809 35.8465 15.1011 35.5904L14.6819 35.642ZM14.7926 35.7501C14.7259 35.8234 14.7361 36.0285 14.9164 35.9452L14.7926 35.7501ZM14.3498 35.8554C14.2485 35.9393 14.4333 36.0351 14.7548 35.8745L14.3498 35.8554ZM14.4866 35.9622C14.3688 36.0686 14.3882 36.1945 14.5659 36.1462L14.4866 35.9622ZM14.1257 36.0373C13.996 36.1663 14.1972 36.2394 14.4288 36.127L14.1257 36.0373ZM14.1368 36.1726C13.9097 36.2889 14.02 36.4758 14.1608 36.3945L14.1368 36.1726ZM21.9253 36.4516C21.8772 36.5698 22.0584 36.6549 22.2236 36.6204C22.3823 36.5873 22.5288 36.4483 22.3995 36.2705L21.9253 36.4516Z" stroke="black" stroke-width="0.0285386"/>
<path d="M31.2773 17.4689C30.5572 17.1559 29.0669 16.5847 28.679 17.1255C29.0493 16.9509 30.1649 17.062 31.1196 17.8506L31.2772 17.4689L31.2773 17.4689Z" fill="white" stroke="black" stroke-width="0.0285386"/>
<path d="M31.7099 17.4066C30.8514 16.5116 30.3823 16.7437 29.7818 16.45C29.2177 16.1741 28.3395 16.1544 28.1931 16.6432C28.9774 16.2193 29.743 16.7766 30.1992 16.8265C30.8258 16.8951 31.1996 17.3521 31.392 17.5613L31.71 17.4066L31.7099 17.4066ZM34.769 17.1399C34.3008 16.2067 33.4101 16.499 32.9918 16.1132C32.3832 15.5516 30.8882 15.076 30.3009 15.5126C31.6342 15.379 32.2506 16.3292 32.9817 16.6349C33.5036 16.8532 34.0738 17.3471 34.769 17.1399L34.769 17.1399Z" fill="white" stroke="black" stroke-width="0.0285386"/>
<path d="M33.167 17.1158C32.4034 16.2639 31.2584 15.5355 30.7641 15.8565C31.4329 15.8583 31.6663 16.309 32.1551 16.5814C32.6436 16.8538 32.4541 17.2906 33.167 17.1158ZM29.8201 18.8515C29.0513 18.6104 27.5698 18.5441 26.927 19.4307C28.0777 19.5656 29.7931 19.3762 29.8201 18.8515Z" fill="white" stroke="black" stroke-width="0.0285386"/>
<path d="M29.6908 19.1839C28.9185 18.8732 28.3526 19.3883 27.6395 19.3548C26.281 19.2911 25.3189 19.417 25.2277 20.0666C25.9666 19.3414 27.294 19.8427 27.8139 19.6775C28.3339 19.5123 30.2892 19.538 30.9166 19.7685C30.5816 19.4015 30.0849 19.3214 29.6908 19.1839V19.1839ZM31.9633 17.0751C31.7596 16.5097 31.7383 15.9006 32.6097 15.9012C32.3769 15.6424 31.5623 15.5431 31.4802 16.5584C30.4889 15.9099 29.4379 15.8397 29.2745 16.4493C29.7455 16.0076 30.5244 16.2743 31.488 17.2555C31.565 17.2081 31.7714 17.1108 31.9633 17.0751L31.9633 17.0751Z" fill="white" stroke="black" stroke-width="0.0285386"/>
<path d="M30.6877 17.9307C30.1259 17.61 29.3601 17.0817 30.641 16.7929C30.0729 16.5247 29.2708 16.6944 29.408 17.6973C27.9028 17.1789 26.8523 17.43 26.6579 18.023C26.4432 18.6775 27.3747 18.9889 27.5128 18.5731C27.3493 18.6507 26.7688 18.4876 27.0496 18.1083C27.3307 17.7291 28.8753 17.9281 30.3685 18.6078C30.7828 18.7964 32.1695 18.6939 30.6876 17.9307L30.6877 17.9307Z" fill="white" stroke="black" stroke-width="0.0285386"/>
<path d="M30.3634 18.9328C29.9017 18.1057 28.5753 18.9414 28.2605 18.1338C27.9434 19.3548 30.2261 18.5768 30.3634 18.9328ZM39.0838 19.4308C39.3766 19.5572 39.6132 19.3246 39.1673 19.1728C39.4603 19.2991 39.6994 19.0718 39.2535 18.9199C39.5465 19.0462 39.7856 18.8189 39.3397 18.6671C39.2286 18.7887 39.0823 19.2221 39.0838 19.4308V19.4308ZM39.1535 17.7923C39.7543 17.1021 39.0578 16.9097 39.7982 16.1953C40.4041 15.6108 39.874 15.2666 40.4532 14.8066C40.6398 14.6584 41.0481 14.3601 41.0699 14.0807C41.3551 14.6931 40.3132 14.8308 40.4326 15.834C40.5085 16.4727 40.067 16.4381 39.9513 17.5274C39.927 17.7547 39.7934 18.2657 39.1535 17.7923V17.7923Z" fill="white" stroke="black" stroke-width="0.0285386"/>
<path d="M39.4622 18.1221C39.7765 17.3568 40.1804 17.3513 40.3598 17.049C40.7012 16.4742 41.5147 17.0879 42.1489 16.5597C42.0695 17.2698 41.1703 17.0613 40.8062 17.5327C40.4422 18.004 40.1363 18.2284 39.4622 18.1222L39.4622 18.1221Z" fill="white" stroke="black" stroke-width="0.0285386"/>
<path d="M39.5386 18.3848C40.1289 17.8667 40.5976 18.1696 41.0098 17.8928C42.0484 17.1953 42.5168 17.9489 43.4582 17.5967C43.2338 18.2189 41.7952 17.7665 41.2034 18.2498C40.6113 18.7331 38.4742 19.2756 39.5386 18.3848ZM37.92 21.9481C37.8973 21.6699 37.6165 21.3259 37.2457 21.3007C36.8752 21.2754 36.6982 20.9001 36.4166 20.8966C36.135 20.8931 35.9231 20.345 35.5374 20.3728C35.1517 20.4007 35.0183 20.9049 35.9444 21.3129C36.8707 21.7208 37.8968 22.1937 37.92 21.9481L37.92 21.9481ZM36.7907 22.24C36.4054 22.2766 36.3802 22.8365 36.0127 22.8722C36.5348 23.1169 36.8841 22.7068 37.1301 22.3454L36.7907 22.24Z" fill="white" stroke="black" stroke-width="0.0285386"/>
<path d="M37.086 22.3016C36.7673 22.5988 36.6992 23.1913 37.1878 23.3341C36.8804 22.9493 37.667 22.73 37.4047 22.3737L37.086 22.3016L37.086 22.3016Z" fill="white" stroke="black" stroke-width="0.0285386"/>
<path d="M37.4232 22.3066C37.1853 22.8284 37.8611 22.8564 37.7046 23.2512C38.0849 23.1444 38.1115 22.4132 37.7526 22.2375L37.4232 22.3066Z" fill="white" stroke="black" stroke-width="0.0285386"/>
<path d="M34.7903 21.3348C35.4207 21.2687 36.0154 21.5791 36.4301 22.1085C36.693 22.4444 37.525 22.5429 37.7923 22.2505C38.0594 21.9582 37.8723 21.3742 37.1794 21.6004C36.9893 21.3133 36.4852 21.4429 36.2275 21.2114C35.9697 20.9799 34.9872 20.3307 34.7903 21.3348Z" fill="white" stroke="black" stroke-width="0.0285386"/>
<path d="M37.1806 21.6046C37.0154 21.6476 36.9767 21.9368 37.0892 22.0794L37.1806 21.6046ZM37.5493 21.7607C37.6063 21.845 37.577 21.9684 37.5536 22.0305L37.5493 21.7607ZM35.7928 21.3156C36.1186 21.3171 36.1917 21.5486 36.5473 21.6183Z" fill="white"/>
<path d="M35.7928 21.3156C36.1186 21.3171 36.1917 21.5486 36.5473 21.6183M37.1806 21.6046C37.0154 21.6476 36.9767 21.9368 37.0892 22.0794L37.1806 21.6046ZM37.5493 21.7607C37.6063 21.845 37.577 21.9684 37.5536 22.0305L37.5493 21.7607Z" stroke="black" stroke-width="0.0285386" stroke-linecap="round"/>
<path d="M35.5442 20.5375C36.6819 20.762 37.5856 20.9628 38.1536 21.2487C38.7215 21.5346 39.5824 21.5812 40.3224 21.3382C41.0624 21.0952 42.4992 20.8371 42.4708 21.7586C42.8424 21.281 42.3192 20.8107 41.3155 20.7709C41.3125 20.3197 40.8036 19.9354 40.464 20.2204C40.7877 20.1619 41.0968 20.7464 40.4657 21.0189C40.5694 20.5627 40.0952 20.1769 39.6316 20.3983C39.9391 20.4707 40.2694 20.9571 39.5995 21.181C39.1766 21.3223 38.5446 21.1957 38.0676 20.9402C37.5906 20.6847 34.9375 19.8019 35.5442 20.5375V20.5375Z" fill="white" stroke="black" stroke-width="0.0285386"/>
<path d="M38.3544 19.9341C38.0122 20.1092 38.2575 20.4654 37.7254 20.7026C37.1931 20.9398 36.8405 21.44 36.983 21.8452C37.3113 21.0216 37.9604 21.0242 38.1723 20.6978C38.3846 20.3713 38.6943 19.8908 38.3544 19.9341Z" fill="white" stroke="black" stroke-width="0.0285386"/>
<path d="M38.4554 19.9845C38.4692 20.6243 37.9551 20.4167 38.1952 21.3049C38.2703 21.582 38.4061 22.0314 38.2359 22.4962C38.7801 22.0566 38.3749 21.2105 38.6126 20.8717C38.7275 20.708 38.8728 20.455 38.924 20.2419C38.8106 20.616 38.8527 21.2984 39.22 21.4555C38.8979 20.7872 39.938 20.1736 39.1646 19.4226C39.0691 19.6205 38.7531 19.9785 38.4554 19.9846L38.4554 19.9845ZM36.6395 19.4349C36.7336 19.5618 36.8371 19.8901 36.7673 20.0779C36.9373 19.964 37.1779 19.68 37.2475 19.4923C37.6087 19.5268 37.7704 19.9662 37.4388 20.1758C37.6487 20.1653 38.0074 20.1474 38.197 19.901C37.939 19.6419 37.1574 19.2598 36.6396 19.4349L36.6395 19.4349Z" fill="white" stroke="black" stroke-width="0.0285386"/>
<path d="M31.1031 18.4136C31.0437 18.3651 30.9454 18.3212 30.7715 18.2946C30.2341 18.2128 30.4858 17.7258 30.939 17.708C31.855 16.6197 32.4369 17.396 33.5987 17.0091C34.0053 16.8737 34.29 16.894 34.5192 16.979C35.0297 16.6063 35.653 16.6732 36.1213 17.0593C36.1673 16.9786 36.2313 16.9157 36.3239 16.8853C36.7314 16.7521 37.0823 17.0834 37.2184 17.5292C37.5375 17.4546 37.9129 17.594 38.1652 17.7992C38.4918 17.6132 38.7221 17.5944 38.8155 17.7648C39.1077 17.6115 39.4907 17.5056 39.7069 17.9648C39.9231 18.424 39.2659 18.3168 39.2085 19.3112C39.1731 19.9245 38.4941 20.1983 37.9312 19.8603C37.031 19.3196 36.1756 19.2671 35.7967 20.1728C35.418 21.0784 35.1124 21.6087 34.0753 21.3698C33.7012 21.2836 33.2331 21.4455 32.9538 21.8592C32.6743 22.2729 32.1991 21.9219 31.6563 21.9918C32.3367 21.8544 32.0659 21.6969 32.6608 21.6299C33.2041 21.5687 33.039 21.0722 33.387 20.9857C32.0327 21.3995 32.061 20.8936 30.9529 21.2954C31.4146 20.6467 32.2051 20.9562 32.5741 20.5729C31.5535 20.6051 31.0656 19.9696 30.6208 20.2677C29.9212 20.7367 30.2976 21.9566 28.4115 21.9408C27.4949 21.9331 26.9206 22.0828 26.402 22.6474C27.2568 20.6574 28.6001 21.6625 29.1948 21.0155C29.5463 20.6331 29.814 20.3417 29.9904 19.9853C30.0525 19.8598 30.1413 19.7855 30.255 19.7529C28.6668 19.3429 29.5762 18.54 31.1032 18.4136L31.1031 18.4136Z" fill="white" stroke="black" stroke-width="0.0285386"/>
<path d="M38.8285 17.7779C38.8546 17.826 38.8699 17.8893 38.8737 17.9685C38.8923 18.3541 38.3162 18.4004 38.3088 18.9719C38.3048 19.2709 38.2787 19.4391 38.0759 19.414C37.8733 19.389 37.6832 19.0821 37.8577 18.7044" fill="white"/>
<path d="M38.8285 17.7779C38.8546 17.826 38.8699 17.8893 38.8737 17.9685C38.8923 18.3541 38.3162 18.4004 38.3088 18.9719C38.3048 19.2709 38.2787 19.4391 38.0759 19.414C37.8733 19.389 37.6832 19.0821 37.8577 18.7044" stroke="black" stroke-width="0.0285386" stroke-linecap="round"/>
<path d="M31.3752 17.8309C31.2248 17.7368 31.0774 17.7029 30.9468 17.7081L31.3752 17.8309ZM34.5215 16.9725C34.9963 17.1489 35.2466 17.6162 35.9232 17.6063C36.5745 17.5968 37.0241 18.5111 38.0827 17.8485C38.1114 17.8305 38.1395 17.8137 38.1667 17.7981L34.5215 16.9725ZM36.1253 17.0547C36.0358 17.2124 36.0243 17.4268 36.0601 17.6128L36.1253 17.0547ZM34.0973 19.1265C33.2721 19.1672 33.0818 19.5951 33.1015 19.9952C33.1212 20.3954 33.5332 20.8982 34.2182 20.8644C34.9029 20.8306 35.2512 20.3948 35.2289 19.9425C35.2066 19.4902 34.7645 19.0935 34.0973 19.1265V19.1265Z" fill="white" stroke="black" stroke-width="0.0285386"/>
<path d="M34.3222 20.8601C34.2936 20.634 33.8833 20.6895 33.8922 20.514C33.9011 20.3385 34.1081 20.2581 34.096 20.0137C34.084 19.7692 34.451 19.7333 34.5832 19.9193C34.7154 20.1052 35.102 20.4622 35.1714 20.2662L34.3222 20.8601ZM34.5835 19.9195C34.4002 20.1212 34.3321 20.5184 34.6012 20.8114L34.5835 19.9195ZM34.8611 20.203C34.8063 20.3371 34.7987 20.5387 34.8749 20.6574Z" fill="white"/>
<path d="M34.8611 20.203C34.8063 20.3371 34.7987 20.5387 34.8749 20.6574M34.3222 20.8601C34.2936 20.634 33.8833 20.6895 33.8922 20.514C33.9011 20.3385 34.1081 20.2581 34.096 20.0137C34.084 19.7692 34.451 19.7333 34.5832 19.9193C34.7154 20.1052 35.102 20.4622 35.1714 20.2662L34.3222 20.8601ZM34.5835 19.9195C34.4002 20.1212 34.3321 20.5184 34.6012 20.8114L34.5835 19.9195Z" stroke="black" stroke-width="0.0285386"/>
<path d="M37.2447 17.5354C37.0076 17.2624 36.4908 17.1918 36.5116 17.7956M38.1301 19.4065C38.7761 19.4268 38.8508 18.7128 38.3672 18.6932L38.1301 19.4065Z" stroke="black" stroke-width="0.0285386"/>
<path d="M36.4695 18.469C36.2239 17.9423 35.6571 17.8911 35.3706 18.1738C35.1324 18.4092 35.154 18.9918 35.6965 19.0875C35.8709 18.8622 36.218 18.5591 36.4695 18.469L36.4695 18.469ZM36.2113 18.1425C35.8813 17.8803 35.4399 18.4267 35.8852 18.8874L36.2113 18.1425ZM30.2486 19.7417C30.4583 19.6821 30.773 19.7695 31.2588 19.967C31.5646 20.0914 32.476 20.3433 33.0249 20.0219C32.4541 20.2575 31.9731 19.412 31.5381 19.5369C31.1032 19.6618 30.3059 19.8604 29.9522 19.5602C30.7815 19.5729 31.1955 18.9066 32.1673 19.4201C32.4389 19.5635 32.7781 19.6516 33.0763 19.6201C32.2585 18.7385 31.266 19.3762 31.1248 18.6362C31.6147 19.1078 32.725 18.4472 33.3499 19.3466L30.2486 19.7417ZM31.2987 18.7667C31.1835 18.6384 31.2263 18.5031 31.1045 18.4035Z" fill="white"/>
<path d="M31.2987 18.7667C31.1835 18.6384 31.2263 18.5031 31.1045 18.4035M36.4695 18.469C36.2239 17.9423 35.6571 17.8911 35.3706 18.1738C35.1324 18.4092 35.154 18.9918 35.6965 19.0875C35.8709 18.8622 36.218 18.5591 36.4695 18.469L36.4695 18.469ZM36.2113 18.1425C35.8813 17.8803 35.4399 18.4267 35.8852 18.8874L36.2113 18.1425ZM30.2486 19.7417C30.4583 19.6821 30.773 19.7695 31.2588 19.967C31.5646 20.0914 32.476 20.3433 33.0249 20.0219C32.4541 20.2575 31.9731 19.412 31.5381 19.5369C31.1032 19.6618 30.3059 19.8604 29.9522 19.5602C30.7815 19.5729 31.1955 18.9066 32.1673 19.4201C32.4389 19.5635 32.7781 19.6516 33.0763 19.6201C32.2585 18.7385 31.266 19.3762 31.1248 18.6362C31.6147 19.1078 32.725 18.4472 33.3499 19.3466L30.2486 19.7417Z" stroke="black" stroke-width="0.0285386"/>
<path d="M37.2495 17.5269C37.047 17.3277 36.6304 17.5083 36.7665 17.9223C36.8512 17.7245 37.043 17.5531 37.2495 17.5269ZM36.0964 18.7061C36.226 18.6036 36.3606 18.5184 36.4753 18.4775C36.4055 18.3232 36.309 18.2085 36.2 18.1302C36.0962 18.0647 35.8222 18.4665 36.0964 18.7061Z" fill="black"/>
<path d="M34.0308 18.3007C33.6856 18.2568 33.4005 18.3668 33.5909 18.4795M35.5393 18.0164C35.213 17.8233 34.9241 17.8551 34.8361 18.0338C34.6076 18.0365 34.4268 18.211 34.4343 18.542L35.5393 18.0164ZM34.9285 18.6571C34.5385 18.4193 34.0251 18.5406 34.0886 19.113L34.9285 18.6571ZM33.8764 19.4503C34.0534 19.2932 34.3116 19.1759 34.5265 19.4268L33.8764 19.4503ZM36.667 18.7455C36.6015 18.8446 36.556 18.9951 36.6812 19.2157C36.5318 19.04 36.1807 19.0574 35.827 19.5632L36.667 18.7455ZM37.4996 18.6783C37.0457 18.7531 37.0691 19.0484 37.4441 19.1606L37.4996 18.6783ZM34.197 17.734C33.8068 17.6749 33.5371 17.915 34.0821 18.0798L34.197 17.734ZM34.9214 17.4365C34.3706 17.333 34.1579 17.483 34.4098 17.5927L34.9214 17.4365ZM33.4564 19.6807C33.4484 19.873 33.5659 20.12 33.8679 19.8173L33.4564 19.6807ZM33.5904 20.2493C33.593 20.3015 33.5871 20.3628 33.5541 20.4081L33.5904 20.2493ZM32.2002 17.763C31.8619 17.6839 31.7856 17.3824 32.1732 17.3894L32.2002 17.763ZM32.1209 18.4733C31.7461 18.3698 31.7286 18.0131 32.0375 18.0327L32.1209 18.4733ZM32.7969 18.2568C32.3616 18.1737 32.3296 17.8788 32.6567 17.9062L32.7969 18.2568ZM32.8047 17.3496C32.5758 17.3435 32.2369 17.6132 32.8325 17.7319L32.8047 17.3496ZM33.4709 17.8225C32.9315 17.7708 32.9511 17.9878 33.2738 18.1114L33.4709 17.8225ZM33.8497 17.2978C33.4331 17.24 33.3047 17.4905 33.5907 17.581L33.8497 17.2978ZM32.6247 18.8671C32.5195 18.7895 32.4168 18.3978 32.9052 18.4914L32.6247 18.8671ZM33.6195 18.696C33.2905 18.625 32.9986 18.9534 33.306 19.1213L33.6195 18.696Z" stroke="black" stroke-width="0.0285386" stroke-linecap="round"/>
<path d="M37.23 17.5276C37.0377 17.5715 36.8687 17.6926 36.7654 17.9223Z" fill="white"/>
<path d="M37.23 17.5276C37.0377 17.5715 36.8687 17.6926 36.7654 17.9223" stroke="black" stroke-width="0.0285386"/>
</g>
</svg>
