<svg width="54" height="48" viewBox="0 0 54 48" fill="none" xmlns="http://www.w3.org/2000/svg">
<mask id="mask0_1_40572" style="mask-type:alpha" maskUnits="userSpaceOnUse" x="3" y="6" width="48" height="36">
<path d="M3.56934 15.1356C4.16681 10.4125 8.0415 7.00193 12.7861 6.60887C16.6412 6.28949 21.6196 6 27 6C32.3804 6 37.3588 6.28949 41.2139 6.60887C45.9585 7.00193 49.8332 10.4125 50.4307 15.1356C50.752 17.6759 51 20.704 51 24C51 27.296 50.752 30.3241 50.4307 32.8644C49.8332 37.5875 45.9585 40.9981 41.2139 41.3911C37.3588 41.7105 32.3804 42 27 42C21.6196 42 16.6412 41.7105 12.7861 41.3911C8.0415 40.9981 4.16681 37.5875 3.56934 32.8644C3.248 30.3241 3 27.296 3 24C3 20.704 3.248 17.6759 3.56934 15.1356Z" fill="#00D0BF"/>
</mask>
<g mask="url(#mask0_1_40572)">
<path d="M3 6H51L3 42V6Z" fill="#FCD95E"/>
<path d="M51 42L3 42L51 6L51 42Z" fill="#EE5757"/>
<path d="M27.8882 17.8436C27.6175 17.7572 27.4544 17.9053 27.4832 18.2579C27.5118 18.6106 27.7033 18.8063 27.9609 18.6632L27.8882 17.8436L27.8882 17.8436Z" fill="white" stroke="black" stroke-width="0.0285386"/>
<path d="M28.0994 17.1736C27.8671 17.0028 27.6647 17.0883 27.582 17.4296C27.4994 17.7709 27.6215 18.0183 27.913 17.9689L28.0994 17.1737L28.0994 17.1736Z" fill="white" stroke="black" stroke-width="0.0285386"/>
<path d="M28.441 16.5163C28.2413 16.3092 28.0299 16.3591 27.8943 16.6806C27.7589 17.0022 27.8384 17.2659 28.1312 17.2664L28.441 16.5163ZM28.3608 19.6349C28.0446 19.7704 28.034 20.2305 28.2524 20.5053C28.4705 20.7802 28.8467 20.8193 29.0332 20.4765L28.3609 19.6347L28.3608 19.6349Z" fill="white" stroke="black" stroke-width="0.0285386"/>
<path d="M27.8895 18.6754C27.5743 18.5821 27.3206 19.0201 27.2952 19.4072C27.2633 19.895 26.6028 20.081 27.0147 20.7986C27.0646 20.3277 27.3504 20.0596 27.5896 20.0322C27.829 20.0048 28.1865 19.9372 28.3236 19.6309L27.8895 18.6754ZM28.9777 20.5243C28.6221 20.6272 28.5992 21.1235 28.8773 21.4661C29.1152 21.7594 29.8006 21.6586 29.766 21.3592L28.9777 20.5243ZM30.172 23.4569C30.1707 23.1385 29.6658 23.0352 29.4289 23.1067C29.1921 23.1783 28.7287 23.1263 28.6061 22.8659C28.5326 23.0812 28.6703 23.3056 29.0247 23.4062C29.2928 23.4824 29.2986 23.6782 29.2264 23.7696C29.426 23.7969 30.0098 23.7732 30.172 23.457L30.172 23.4569Z" fill="white" stroke="black" stroke-width="0.0285386"/>
<path d="M29.7838 21.4346C29.4167 21.2899 29.2191 21.5409 29.0963 21.7816C28.9162 22.1347 28.2705 21.7175 28.0886 22.1859C28.3648 22.0506 28.6691 22.3031 28.8089 22.3874C29.208 22.6284 29.9447 22.5188 30.0136 21.913L29.7838 21.4346Z" fill="white" stroke="black" stroke-width="0.0285386"/>
<path d="M29.9994 21.8476C29.6576 22.1365 29.5373 22.4697 29.5593 22.6907C29.5813 22.9118 29.9159 23.3864 30.2494 23.3997C30.4178 22.9935 30.4639 22.1484 29.9994 21.8476L29.9994 21.8476ZM28.6164 23.6162C28.6085 23.4834 28.7976 23.4226 28.9311 23.4616C29.0648 23.5006 29.2735 23.6253 29.2121 23.7698L28.6164 23.6162ZM26.5988 22.9695C26.5545 22.8116 26.7914 22.5269 27.141 22.6638C27.4905 22.8006 27.5517 23.091 27.4186 23.2118L26.5988 22.9696L26.5988 22.9695Z" fill="white" stroke="black" stroke-width="0.0285386"/>
<path d="M27.4298 23.2476C27.3984 23.1595 27.6342 22.972 28.0606 23.0623C28.4874 23.1528 28.6065 23.4241 28.6035 23.6394L27.4298 23.2476L27.4298 23.2476ZM26.5368 22.9879C26.7462 22.8101 26.6446 22.4925 26.4413 22.4023C26.0716 22.2381 26.1765 21.7698 25.9434 21.6896C25.7104 21.6093 25.482 21.4575 25.4639 21.2975C25.3629 21.5247 25.4448 21.7269 25.6109 21.8633C25.7769 21.9997 25.5299 22.5896 25.7401 22.7333L26.5368 22.9879ZM21.8311 23.0465C21.6301 22.7598 21.1948 22.8303 21.0226 23.0423C20.8504 23.2545 20.8942 23.5563 21.0772 23.6831L21.8311 23.0465ZM22.8579 22.5689C22.7651 22.1796 22.2979 22.1532 22.0494 22.2611C21.8009 22.369 21.6482 22.7679 21.8312 23.0464L22.8579 22.5689L22.8579 22.5689Z" fill="white" stroke="black" stroke-width="0.0285386"/>
<path d="M23.5512 22.4958C23.6962 22.1624 23.3469 21.6899 22.9788 21.6341C22.6717 21.5877 22.3128 21.6039 22.1777 21.3041C22.1199 21.572 22.3248 21.7317 22.559 21.8726C22.7931 22.0135 22.5477 22.413 22.9247 22.6188L23.5512 22.4958L23.5512 22.4958Z" fill="white" stroke="black" stroke-width="0.0285386"/>
<path d="M23.5266 22.5062C23.4364 22.275 23.5723 21.9571 23.8864 21.9662C24.2006 21.9753 24.3926 22.1988 24.272 22.4929L23.5265 22.5062L23.5266 22.5062Z" fill="white" stroke="black" stroke-width="0.0285386"/>
<path d="M24.2309 22.4936C24.1734 22.2526 24.3521 21.9582 24.6625 22.0119C24.9729 22.0655 25.1324 22.3135 24.9722 22.5866L24.2309 22.4936Z" fill="white" stroke="black" stroke-width="0.0285386"/>
<path d="M24.8456 22.5748C24.8 22.3316 24.9929 22.047 25.3 22.1162C25.6071 22.1854 25.7542 22.4408 25.5808 22.705L24.8456 22.5748ZM19.849 26.8351C19.2674 26.8589 19.1337 27.0056 19.0866 27.6188C19.0278 28.3826 20.0489 28.4294 19.849 26.8351Z" fill="white" stroke="black" stroke-width="0.0285386"/>
<path d="M19.843 26.0321C18.9289 25.7243 18.5292 27.1835 17.6291 26.9636C17.9763 27.4629 18.7132 26.9202 19.0028 26.9605C19.4939 27.029 20.5324 26.8005 19.843 26.032L19.843 26.0321ZM19.3793 28.0252C18.9247 27.8402 18.4888 28.5485 18.5935 28.8452C18.7264 29.222 19.7167 28.87 19.3793 28.0252ZM17.4922 31.0768C17.7393 31.1372 18.0427 31.2666 18.0192 31.7455C17.9956 32.2245 17.1689 33.232 16.374 33.3177C15.5791 33.4035 15.3514 34.3952 14.6498 34.1495C15.2843 33.9998 15.2399 33.2579 15.7294 33.0078C15.3571 32.8901 15.2164 33.737 14.748 33.7562C14.2796 33.7754 14.0994 34.5439 13.5237 34.5143C12.948 34.4849 12.9462 35.4647 11.8014 35.5233C10.9257 35.5678 9.90376 36.6542 9.48649 36.2199C10.3292 36.0615 10.6436 35.5679 11.1192 35.0199C11.8839 34.139 12.8261 34.481 13.0935 33.7176C12.7358 33.9889 12.3095 34.1302 11.8839 34.139C11.3497 34.1496 10.8166 35.0501 10.1948 34.686C10.5392 34.6277 10.7558 34.4684 11.0969 34.0649C11.4461 33.6517 12.009 33.8864 12.4174 33.4621C13.056 32.7985 13.6689 33.3046 14.272 32.4832C14.0845 32.4025 13.6978 32.4801 13.3451 32.6893C12.9923 32.8985 12.5044 32.5908 12.1018 32.8376C12.1226 32.3145 13.112 32.5728 13.6978 32.188C14.3588 31.7538 14.9341 31.8496 15.4792 31.8761C14.7242 31.9026 14.3858 31.186 13.3575 31.4405C12.909 31.5517 12.5041 30.8382 12.0751 31.2275C12.0717 30.9534 12.5314 30.7132 13.033 30.9582C13.5346 31.2033 13.7007 30.6985 14.7044 31.2793C15.1188 31.519 15.7792 31.0759 16.2293 31.332C16.1629 31.1665 15.9093 31.0706 15.6201 31.1046C15.7795 30.7176 16.9579 30.7179 17.4923 31.0768L17.4922 31.0768Z" fill="white" stroke="black" stroke-width="0.0285386"/>
<path d="M18.282 30.4653C17.8807 30.1803 17.3708 30.5644 16.9964 30.4377C17.0112 30.6852 17.1554 31.0517 17.5647 31.1768C17.6814 31.0836 18.2012 30.5749 18.282 30.4653Z" fill="white" stroke="black" stroke-width="0.0285386"/>
<path d="M18.8508 29.585C18.2327 29.3004 18.1745 30.073 17.6958 29.9332C17.7264 30.1534 17.9166 30.4201 18.3026 30.4663L18.8508 29.585L18.8508 29.585Z" fill="white" stroke="black" stroke-width="0.0285386"/>
<path d="M19.2186 28.8765C18.3231 28.559 18.2616 29.4284 17.7372 29.2815C17.8747 29.5767 18.6217 29.7056 18.993 29.5845L19.2186 28.8765ZM20.2003 25.0419C19.9492 24.716 19.4761 25.0094 19.4218 25.4096C19.3676 25.8099 19.5884 26.3582 19.9073 26.2214L20.2002 25.0419L20.2003 25.0419Z" fill="white" stroke="black" stroke-width="0.0285386"/>
<path d="M20.8159 23.9587C20.4043 23.8783 19.9405 23.9414 20.0164 24.3454C19.8651 24.4223 19.8528 24.9449 20.2828 25.0423L20.8159 23.9586L20.8159 23.9587Z" fill="white" stroke="black" stroke-width="0.0285386"/>
<path d="M21.0243 23.6747C20.6091 23.2128 20.1743 23.2403 19.9412 23.4501C19.5108 23.8376 19.0626 23.6423 19.0693 24.0134C19.3296 23.7869 19.5808 24.0383 19.7972 23.9506C20.0137 23.863 20.198 24.2981 20.7994 24.0898L21.0243 23.6747ZM20.4534 30.832C20.5188 30.9444 20.8864 30.9837 21.0545 30.7829C21.2773 30.5166 20.9785 29.813 20.6023 29.7741C20.2262 29.7352 20.2368 30.5925 20.4534 30.832Z" fill="white" stroke="black" stroke-width="0.0285386"/>
<path d="M19.9882 30.8617C20.546 31.0423 20.7525 30.5736 20.4406 30.2944C20.3684 30.3947 20.1036 30.7596 19.9882 30.8617Z" fill="white" stroke="black" stroke-width="0.0285386"/>
<path d="M18.1437 31.7038C18.0582 32.0263 17.5212 32.1014 16.9705 33.1163C16.4198 34.1312 15.8112 33.7394 15.7038 34.4261C16.3997 33.7952 16.9984 34.1712 17.3987 33.5597C18.007 32.631 18.56 32.7383 18.7801 32.1211C19.0941 31.2399 20.6984 31.1924 20.7041 29.8274C20.1576 29.7432 18.5376 31.2801 18.1437 31.7037L18.1437 31.7038ZM31.0937 17.7783C31.8045 17.9798 31.8769 18.8985 32.6963 19.1666C33.5161 19.4346 33.6379 20.1563 34.2807 19.953C33.6608 19.8098 33.6615 19.0919 33.0149 18.9409C32.2565 18.7638 31.9053 17.6212 31.302 17.4684L31.0937 17.7783ZM34.5786 22.4489C34.7175 22.7268 34.7302 23.2314 34.3025 23.3818C34.5467 23.5225 34.8866 23.3669 35.0588 23.032C34.8099 23.6891 35.0365 24.2648 35.4964 24.3613C35.2516 23.9193 35.7269 23.6873 35.5527 23.4019C35.8477 23.514 36.1241 23.9016 36.1301 24.1495C36.4795 23.7099 35.7921 23.1706 35.8903 22.7679L34.5786 22.4489L34.5786 22.4489ZM30.3368 27.1761C29.8871 26.8133 29.7336 27.3003 29.5138 27.143C29.3086 26.9963 29.0458 26.9848 28.955 27.1436C29.3218 27.142 29.1601 27.4366 29.8745 27.4785C29.1672 27.556 29.3462 28.3552 28.8689 28.3346C29.4034 28.8004 29.6097 27.8703 30.0283 28.004C29.9084 28.0443 30.2395 28.3233 30.0449 28.7211C30.3973 28.698 30.5114 28.197 30.5398 27.9389L30.3368 27.1761ZM21.1822 31.6867C21.0174 31.5605 20.5606 31.5169 20.3927 31.6302C20.2248 31.7432 20.2874 31.7673 20.4975 31.7766C20.7078 31.7857 20.9983 32.118 20.5465 32.1556C20.3378 32.1728 20.4382 32.6828 20.0047 32.736C20.1965 32.9498 20.6975 32.7831 20.866 32.5327C20.843 32.7329 21.1152 32.9035 21.025 33.1465C21.3495 33.1689 21.1204 32.4781 21.6322 32.4926C21.4247 32.5276 21.5404 33.0015 21.8989 32.8628C21.6874 32.9778 21.816 33.2295 22.0563 33.1578C21.9026 33.2173 21.8625 33.4226 22.0872 33.5288C22.2789 33.2286 21.9812 32.1949 21.1822 31.6867L21.1822 31.6867ZM39.5762 21.1614C40.2431 21.1343 40.7508 20.5638 40.7103 19.887C40.6699 19.2104 40.0964 18.6838 39.4296 18.7108C38.7625 18.7379 38.2547 19.3085 38.2952 19.9851C38.3357 20.6618 38.9091 21.1885 39.5762 21.1614Z" fill="white" stroke="black" stroke-width="0.0285386"/>
<path d="M33.427 22.8914C33.7715 22.523 34.3181 22.3236 34.7167 22.5731C35.1156 22.8227 36.4056 23.089 37.0059 22.6217C37.606 22.1543 37.8883 21.9124 38.1699 21.9541C38.3981 22.2638 38.6593 22.4037 38.9743 22.4175C39.0764 22.5196 39.4212 22.5942 39.6112 22.5598C39.8939 22.6192 40.2281 22.517 40.4798 22.2055C40.9015 22.2504 41.274 21.9163 41.3934 21.4331C41.834 21.362 41.83 20.8572 41.5315 20.5327C41.2671 20.4904 41.414 19.5896 40.4757 19.805C40.891 20.0361 40.6158 20.5434 40.9605 20.7597C40.7341 20.7689 40.4484 20.878 40.3994 21.2256C40.4721 20.9834 40.3626 20.8284 40.2983 20.7779C40.2949 20.5742 39.8212 20.093 39.4142 20.2912C39.7184 20.3452 39.5781 20.8427 39.8069 21.0193C39.6506 21.0346 39.49 21.1208 39.4027 21.2661C39.2774 21.0675 38.8644 20.8717 38.6196 20.8639C38.6153 20.7932 38.5938 20.6524 38.5592 20.583C38.4376 20.3753 38.3311 20.1271 38.3553 19.8028C38.1601 20.041 38.0051 20.3662 37.9145 20.6003C37.57 20.384 36.7718 20.7531 36.3941 20.8571C36.0164 20.961 34.7155 20.8014 34.4004 20.4953C34.0856 20.1892 33.4994 20.0182 32.9503 19.8811C32.1951 19.6926 32.1392 18.8688 31.2871 18.3365C31.3312 19.3623 33.0579 22.5521 33.4271 22.8914L33.427 22.8914ZM25.3645 31.0506C26.0086 31.0244 26.4991 30.473 26.4599 29.819C26.4208 29.165 25.8668 28.6561 25.2227 28.6823C24.5785 28.7085 24.0881 29.26 24.1272 29.9139C24.1664 30.5679 24.7203 31.0769 25.3645 31.0506Z" fill="white" stroke="black" stroke-width="0.0285386"/>
<path d="M22.3466 30.2592C22.5985 30.5587 22.9955 30.5248 23.1583 30.4915C23.3189 30.8565 23.7596 30.8297 23.962 31.0248C24.1645 31.2202 24.8122 31.176 24.9958 31.0532C24.8218 31.0428 24.5905 30.9462 24.3631 30.7695C24.0887 30.5564 24.1848 30.1043 23.9676 29.9539C24.1129 29.7709 24.1215 29.4786 24.0801 29.3652C24.2387 29.2614 24.3504 29.0975 24.363 29.0173C24.6475 28.988 24.8894 28.8276 24.9865 28.7087C25.142 28.8438 25.5029 28.6432 25.7162 28.8734C25.7248 28.2889 25.1613 28.0023 24.8094 28.2114C24.6575 28.138 24.2714 28.207 24.2085 28.3157C24.0842 28.2677 23.7573 28.4581 23.6083 28.5792C23.7756 28.4751 23.7842 28.1827 23.7087 28.0796C23.8521 28.0117 24.0044 27.8019 24.0127 27.6512C24.2225 27.678 24.5255 27.524 24.666 27.5536C24.4234 27.2627 24.045 27.172 23.6658 27.2141C23.2734 27.2523 23.1216 27.5417 23.0878 27.8484C22.8626 27.9992 22.8131 28.4791 22.9096 28.6433C22.7752 28.6444 22.6576 28.7819 22.6102 28.8591C22.4238 28.787 22.1608 28.7403 21.9748 28.748L22.3466 30.2592ZM22.0284 28.2635C21.9369 28.0372 22.0278 27.8264 22.0696 27.6424C22.1761 27.1735 22.0868 27.0576 21.6838 27.1361C21.6623 27.3582 21.9131 28.0736 22.0284 28.2635Z" fill="white" stroke="black" stroke-width="0.0285386"/>
<path d="M21.6732 27.1713C21.7828 27.273 22.1519 27.3065 22.1709 26.9696C22.1928 26.5828 22.0318 26.44 21.7132 26.6034C21.6926 26.6927 21.6837 27.0558 21.6732 27.1713Z" fill="white" stroke="black" stroke-width="0.0285386"/>
<path d="M21.7286 26.5911C21.8705 26.6428 22.1758 26.7453 22.3207 26.412C22.4423 26.1324 22.2485 25.9282 21.9641 25.9575C21.8996 26.0399 21.778 26.328 21.7286 26.5911Z" fill="white" stroke="black" stroke-width="0.0285386"/>
<path d="M21.9603 25.9322C22.0012 26.0367 22.377 26.3752 22.6214 26.1087C22.8658 25.842 22.8432 25.4625 22.4453 25.3371C22.3425 25.359 22.0531 25.7425 21.9603 25.9322Z" fill="white" stroke="black" stroke-width="0.0285386"/>
<path d="M22.4621 25.3369C22.5534 25.5544 22.819 25.9242 23.2597 25.7292C23.7004 25.5341 23.4752 24.9679 23.26 24.8616C23.1391 24.8753 22.6582 25.1252 22.4621 25.3369Z" fill="white" stroke="black" stroke-width="0.0285386"/>
<path d="M23.2752 24.8602C23.2521 25.0559 23.3185 25.5844 23.9348 25.5504C24.551 25.5164 24.3335 24.7903 24.1708 24.6907C23.9188 24.701 23.4937 24.7272 23.2752 24.8602Z" fill="white" stroke="black" stroke-width="0.0285386"/>
<path d="M24.2103 24.7136C24.1498 24.8666 24.0523 25.8615 25.2444 25.5392C25.3987 25.4975 25.7528 24.5709 24.2103 24.7136Z" fill="white" stroke="black" stroke-width="0.0285386"/>
<path d="M24.8839 24.7729C24.7697 24.9015 25.1426 25.8873 25.9504 25.686C26.7583 25.4848 26.0144 24.5674 24.8839 24.7729Z" fill="white" stroke="black" stroke-width="0.0285386"/>
<path d="M25.5948 24.8928C25.4808 25.172 25.7253 25.9768 26.734 25.9357C27.6482 25.8984 26.6221 24.8686 25.5948 24.8928Z" fill="white" stroke="black" stroke-width="0.0285386"/>
<path d="M26.4067 25.0967C26.3502 25.2512 26.3216 26.1165 27.5161 26.1411C28.3809 26.159 28.098 24.9304 26.4067 25.0967Z" fill="white" stroke="black" stroke-width="0.0285386"/>
<path d="M27.7166 25.4032C27.5846 25.6745 27.4674 26.3438 28.777 26.3437C29.616 26.3437 29.0417 25.3671 27.7166 25.4032Z" fill="white" stroke="black" stroke-width="0.0285386"/>
<path d="M28.8268 25.5603C28.6517 25.833 28.8234 26.3469 29.3131 26.4256C29.9278 26.5244 29.9797 25.938 29.5465 25.6725C29.1131 25.4069 28.8268 25.5603 28.8268 25.5603Z" fill="white" stroke="black" stroke-width="0.0285386"/>
<path d="M29.2605 25.6573C29.137 25.9102 29.2581 26.5069 30.174 26.4694C30.364 26.4616 31.0445 25.6728 29.2605 25.6573ZM22.8533 37.4582C23.5951 37.4278 24.1601 36.7884 24.1152 36.0301C24.0703 35.2716 23.4325 34.6814 22.6907 34.7118C21.9489 34.7421 21.3839 35.3816 21.4288 36.1401C21.4737 36.8983 22.1115 37.4885 22.8533 37.4582Z" fill="white" stroke="black" stroke-width="0.0285386"/>
<path d="M31.6496 17.0906C31.5516 17.2009 31.3536 17.5278 31.3174 17.6532C30.9481 19.0496 32.2158 20.0296 33.0099 21.4801C33.6359 22.6234 33.6764 24.4635 32.8772 25.665C32.6038 26.076 32.6994 26.1858 32.3413 26.6078C32.204 26.7696 32.0497 26.9739 32.1357 27.5371C32.3737 27.4388 32.735 27.6543 32.8161 27.8458C32.9846 27.7504 33.2302 27.7758 33.3232 27.8782C33.6101 27.7248 33.8577 27.7855 34.1352 28.0575C34.3592 28.013 34.6046 28.0384 34.8453 28.2764C34.9521 28.0242 35.1902 27.9259 35.367 27.9718C35.3306 27.6545 35.6297 27.4121 35.9151 27.5244C35.8029 27.1039 36.1662 26.7703 36.5387 26.879C36.8365 26.619 37.4611 26.5757 37.7962 26.9339C37.2305 26.7977 37.2839 27.3977 36.8114 27.3638C36.9542 27.7122 36.6535 27.9281 36.3478 28.0557C36.5417 27.9504 36.752 27.8267 36.829 27.9474C36.9935 27.7858 37.3445 27.829 37.4362 27.905C37.6619 27.8205 37.8871 27.8688 38.0081 28.1472C38.3326 28.3288 38.5707 28.8149 38.3671 29.1952C38.2743 28.8094 38.0147 28.8377 37.9009 28.6829C37.6628 28.7812 37.4194 28.7911 37.3405 28.635C37.2099 28.782 36.7482 28.9248 36.5269 28.7213C36.4677 29.0425 36.2142 29.3185 35.9013 29.3313C36.0031 29.5751 35.7852 30.0091 35.6067 30.2288C35.9117 30.3757 35.8459 30.7327 35.7891 30.9475C36.2451 30.9996 35.8871 31.4216 36.685 31.6546C36.3103 31.7939 35.5555 31.7007 35.4226 31.2281C35.0392 31.2261 34.7552 30.8481 34.7484 30.4408C34.436 30.1703 34.3683 29.7658 34.7598 29.4665C34.4184 29.5867 34.1934 29.0292 33.7032 29.2794C33.4594 29.4039 32.7862 29.2372 32.7807 28.9983C32.6868 29.1793 32.0484 29.1345 31.9434 28.8378C31.7417 28.9611 31.2434 28.7866 31.2347 28.4948C30.9727 28.6295 30.5947 28.4236 30.595 28.1402C30.3411 28.1151 30.3012 27.8865 30.3069 27.6915C30.0745 27.5947 30.1223 27.3714 30.1932 27.1029C30.0264 26.9326 30.081 26.6824 30.1889 26.4478C30.0045 26.2782 30.0267 26.0648 30.0638 25.8154C29.2254 25.7788 28.1683 25.617 25.7275 24.9654C22.0451 23.9824 21.2305 26.6721 22.1294 28.3001C23.1664 30.1785 22.1647 30.6364 22.5632 32.0547C22.8976 32.1118 23.0883 32.3873 23.0889 32.6884C23.2849 32.6891 23.435 32.8689 23.3867 33.2252C23.5499 33.1876 23.7658 33.2273 23.9132 33.3629C24.0211 33.1284 24.4177 33.059 24.6421 33.3156C25.0918 33.2616 25.3399 33.6235 25.3501 34.0835C25.6197 34.5153 25.5651 35.0577 25.3251 35.4127C25.34 35.2262 25.2981 34.9623 25.2801 34.8037C25.2464 34.512 24.8417 34.4674 24.8709 34.2271C24.6634 34.2532 24.4566 34.1466 24.3776 33.9906C24.2623 34.1014 24.0906 34.1439 23.9398 34.0969C24.1807 34.1934 24.3886 34.6098 24.336 34.8952C24.4703 35.1024 24.4675 35.4922 24.3299 35.666C24.2809 36.0132 24.0277 36.1475 23.6798 36.0111C23.8636 35.8799 23.9199 35.6562 23.9001 35.4709C23.7721 35.37 23.6991 35.1692 23.683 35.0459C23.3473 35.1127 22.8607 34.8404 22.7672 34.7287C22.0207 34.7592 21.4523 35.3992 21.4977 36.1583C21.4461 35.8769 21.0777 35.6128 21.1068 35.3725C20.8592 34.7274 21.1181 34.1058 21.9623 33.9475C21.8432 33.7044 22.1928 33.4332 22.0369 33.1563C21.8377 32.8025 21.4832 32.3465 20.9639 31.8188C21.2286 31.2943 21.1005 30.609 20.9013 30.1921C20.6153 29.5934 20.3872 29.7527 19.5601 30.7781C18.2122 32.4494 16.2585 32.0818 14.6189 33.2114C14.1832 33.5115 13.7385 33.6369 14.1954 33.1225C14.6524 32.6079 15.9088 32.0609 16.7175 31.6027C18.2321 30.7448 19.4755 29.3649 19.8424 26.7643C20.7047 20.6532 25.3337 22.4668 28.2514 23.481C30.9907 24.4333 30.3607 22.0489 28.9185 20.6556C27.185 18.9811 27.429 17.5997 28.1281 16.4731C29.4893 16.2227 32.1514 16.601 31.6493 17.0908L31.6496 17.0906Z" fill="white" stroke="black" stroke-width="0.0285386"/>
<path d="M37.4559 31.7468C38.2742 31.7133 38.8974 31.0098 38.8476 30.1753C38.7979 29.3407 38.0941 28.6913 37.2758 28.7248C36.4575 28.7583 35.8344 29.462 35.8841 30.2966C35.9338 31.1312 36.6376 31.7803 37.4559 31.7468Z" fill="white" stroke="black" stroke-width="0.0285386"/>
<path d="M31.0462 17.1933C30.7951 18.6872 31.1003 19.3482 31.6091 19.9843C32.6604 21.2991 33.5966 24.3514 32.5711 26.4029" stroke="black" stroke-width="0.0285386"/>
<path d="M31.3495 18.9295C31.4008 18.8962 31.5572 18.8361 31.5283 18.7093M33.1681 24.6299C33.2959 24.571 33.531 24.3925 33.5693 24.0991L33.1681 24.6299ZM33.2238 23.9824C33.2479 23.7251 33.6098 23.5981 33.6 23.3247L33.2238 23.9824ZM33.166 22.986C33.1238 22.7228 33.5021 22.467 33.427 22.2054L33.166 22.986ZM32.8898 22.0446C32.8469 21.8963 33.1894 21.598 33.0752 21.3646L32.8898 22.0446ZM32.5577 21.1321C32.4727 20.9681 32.7061 20.7631 32.5877 20.5917L32.5577 21.1321ZM32.1145 20.4096C32.0823 20.2963 32.2175 20.0383 32.1255 19.8923L32.1145 20.4096ZM31.6626 19.5558C31.6924 19.5103 31.8168 19.3986 31.7545 19.2689L31.6626 19.5558Z" stroke="black" stroke-width="0.0285386" stroke-linecap="round"/>
<path d="M39.5508 19.6855C39.3051 19.7068 39.0818 19.4813 39.0823 19.2793C39.0945 19.4279 39.4318 19.4809 39.5258 19.3795M23.8184 35.9132C23.4683 35.8082 23.0577 36.0048 22.9971 36.3065L23.8184 35.9132ZM23.2742 36.5643C23.2924 36.2651 23.7236 36.1112 23.8711 36.244C23.5777 36.1012 23.4875 36.6674 23.7354 36.6725L23.2742 36.5643ZM25.4447 29.5101C25.2494 29.6254 25.2215 30.0131 25.5085 30.2881L25.4447 29.5101ZM25.7576 29.5818C25.6233 29.7116 25.6618 30.0783 25.8815 30.1549C25.6922 30.0329 25.8521 29.7965 25.979 29.7812C26.1056 29.766 26.2034 29.9189 26.0635 30.0841L25.7576 29.5818ZM37.7715 29.836C37.2849 29.7293 36.9489 30.3171 37.4239 30.802C37.3754 30.3127 37.6888 29.972 38.1124 30.0381L37.7715 29.836ZM37.9487 30.3864C37.8316 30.3924 37.7736 30.4899 37.7811 30.5815C37.789 30.6777 37.8772 30.7654 38.009 30.7587C38.0942 30.7543 38.1539 30.6504 38.1475 30.5716L37.9487 30.3864ZM38.7475 19.5684C38.8484 19.8617 39.258 19.9637 39.5666 19.8777L38.7475 19.5684Z" stroke="black" stroke-width="0.0285386" stroke-linecap="round" stroke-linejoin="round"/>
<path d="M40.0458 21.2182C40.0248 21.3287 39.9616 21.5026 39.8734 21.5815M23.4255 30.5229C23.3424 30.3519 23.6026 30.1637 23.5974 29.9975C23.5922 29.8315 23.8817 29.6856 24.2166 29.9838L23.4255 30.5229ZM23.9168 28.1344C23.8589 28.1635 23.8103 28.201 23.7603 28.2211L23.9168 28.1344ZM24.5878 29.0545C24.5152 29.0626 24.3644 29.0614 24.2781 29.0088L24.5878 29.0545ZM24.3152 29.4011C24.2577 29.4347 24.129 29.4937 24.0532 29.515L24.3152 29.4011ZM21.8087 34.8157C21.8132 34.9732 21.9864 35.192 22.078 35.2573L21.8087 34.8157ZM22.4471 34.4071C22.3721 34.5422 22.3395 34.7715 22.4039 34.9258L22.4471 34.4071ZM23.7686 34.8659C23.6055 34.769 23.686 34.4934 23.6544 34.32C23.6228 34.1465 23.797 33.8576 24.2027 34.0735L23.7686 34.8659ZM22.2449 33.9447C22.3972 33.9107 22.5609 33.9111 22.6675 33.9495L22.2449 33.9447ZM24.1598 33.3488C24.0991 33.4482 24.0907 33.5538 24.0879 33.624L24.1598 33.3488ZM24.879 33.2952C24.7589 33.3012 24.6632 33.3935 24.6189 33.4834L24.879 33.2952ZM22.8442 28.9151C22.9855 28.9561 23.36 29.1605 23.392 29.3909L22.8442 28.9151ZM24.209 27.7079C23.7878 27.7204 23.5887 27.2926 23.9062 27.2766L24.209 27.7079ZM25.0127 28.2537C24.8555 28.3317 24.9566 28.6155 25.1998 28.7433L25.0127 28.2537ZM24.2356 31.0422C24.1454 30.9418 24.2274 30.6313 24.5009 30.7093L24.2356 31.0422ZM25.1259 34.1932C25.1209 33.9265 25.4383 33.7528 25.5963 34.0469L25.1259 34.1932ZM23.9703 35.0129C23.9246 34.7219 24.0625 34.6187 24.1898 34.5949C24.317 34.571 24.5106 34.6704 24.6123 34.8579L23.9703 35.0129ZM21.4316 35.3601C21.4343 35.1848 21.565 34.9944 21.7215 35.0128L21.4316 35.3601ZM36.4913 26.8259C36.3864 26.9144 36.3443 27.2886 36.7718 27.3021L36.4913 26.8259ZM35.89 27.4692C35.8936 27.5128 35.9545 27.571 35.9911 27.5955L35.89 27.4692ZM37.9728 28.0647C37.8541 27.9831 37.5958 28.3508 37.8789 28.5948L37.9728 28.0647ZM35.4873 31.1319C35.4023 30.8867 35.6243 30.8098 35.8431 30.8513L35.4873 31.1319ZM34.7922 29.3982C34.9136 29.3046 35.0345 29.2022 35.1939 29.1504L34.7922 29.3982ZM34.803 30.3604C34.7856 30.1512 34.874 29.9717 34.964 29.9147L34.803 30.3604ZM35.3582 27.9164C35.3621 28.1701 35.4854 28.4091 35.5735 28.536L35.3582 27.9164ZM37.4021 27.8308C37.2808 27.8763 37.1732 27.9299 37.1348 28.0369L37.4021 27.8308ZM37.3239 28.5527C37.3798 28.4973 37.4433 28.4329 37.4697 28.3878L37.3239 28.5527ZM39.9359 20.7772C39.9561 21.0213 39.6667 21.1672 39.4565 21.0202L39.9359 20.7772ZM40.589 20.753C40.7305 20.8509 41.1812 20.7275 41.0515 20.4626L40.589 20.753ZM40.1474 22.185C40.0516 22.1723 39.8798 22.0759 39.804 21.9922L40.1474 22.185ZM41.0313 21.4138C40.8799 21.4565 40.7739 21.4268 40.6937 21.3958L41.0313 21.4138ZM38.6667 22.4087C38.7524 22.4043 38.9554 22.3591 39.091 22.2778L38.6667 22.4087ZM38.2813 20.8786C38.1687 20.8712 38.0888 20.897 38.0282 20.9439L38.2813 20.8786Z" stroke="black" stroke-width="0.0285386" stroke-linecap="round"/>
<path d="M39.5035 21.2607C39.4431 21.3602 39.4127 21.5109 39.4149 21.6423M38.502 21.6979C38.7076 21.591 39.0336 22.3196 39.5243 22.0316L38.502 21.6979Z" stroke="black" stroke-width="0.0285386" stroke-linecap="round" stroke-linejoin="round"/>
<path d="M29.3006 20.3211C29.6191 20.6802 30.0859 20.8917 30.4752 20.2467M28.8955 20.5506C28.9647 20.5389 29.0851 20.5074 29.1059 20.4179L28.8955 20.5506ZM20.4233 29.1449C20.6937 29.2846 20.8919 29.5335 20.8014 29.9182L20.4233 29.1449ZM31.8607 19.6148C31.9424 19.6647 32.2387 19.6526 32.4005 19.5841L31.8607 19.6148ZM32.6208 19.7612C32.6194 19.8853 32.6824 20.3524 32.4531 20.4592L32.6208 19.7612ZM32.5366 20.3938C32.7587 20.4557 33.1928 20.4115 33.3078 19.9992L32.5366 20.3938ZM33.0232 20.3559C33.147 20.5281 33.2023 20.8714 32.8738 21.0709L33.0232 20.3559ZM33.1278 20.6445C33.3856 20.7226 33.97 20.7077 33.8787 20.2063L33.1278 20.6445ZM33.7031 20.6211C33.8921 20.8615 34.6764 21.1221 34.5236 20.6144L33.7031 20.6211ZM33.0402 21.3653C33.3404 21.424 33.7466 21.2037 33.5406 20.6804L33.0402 21.3653ZM34.3926 20.9118C34.4483 21.1134 35.4367 21.2859 35.2787 20.8315L34.3926 20.9118ZM35.1116 21.1045C35.3201 21.5213 36.2849 21.4467 35.9462 20.8933L35.1116 21.1045ZM35.8158 21.3412C36.0218 21.5721 36.8673 21.3959 36.4931 20.8351L35.8158 21.3412ZM36.5118 21.3041C37.0676 21.6891 37.6512 21.0805 36.955 20.6835L36.5118 21.3041ZM37.2881 21.1399C37.7814 21.5009 38.3152 20.7879 37.894 20.6101L37.2881 21.1399ZM33.5584 21.1318C33.7092 21.17 34.0218 21.1395 34.075 20.8627L33.5584 21.1318ZM33.9687 21.0529C33.9755 21.4559 34.6512 21.5835 34.7932 21.1124L33.9687 21.0529ZM34.5863 21.3735C34.7241 21.6338 35.3141 21.7161 35.3871 21.3321L34.5863 21.3735ZM35.302 21.5129C35.4137 21.7742 35.9175 21.7272 36.0404 21.4474L35.302 21.5129ZM35.8679 21.6319C36.0453 21.9703 36.69 21.9441 36.808 21.4342L35.8679 21.6319ZM36.7083 21.6594C36.9704 21.8083 37.5069 21.7244 37.4336 21.2312L36.7083 21.6594ZM37.3502 21.5893C37.7432 21.8835 38.2568 21.5613 37.9642 21.0504L37.3502 21.5893ZM37.9931 21.9705C38.1914 21.927 38.2715 21.5161 38.0561 21.4186L37.9931 21.9705ZM33.354 22.23C33.7583 21.9832 33.8135 21.5911 33.5032 21.2226L33.354 22.23ZM33.6879 21.8267C33.9588 21.9752 34.4452 21.7872 34.509 21.3946L33.6879 21.8267ZM34.0477 21.8562C34.2072 22.0446 34.2477 22.2822 34.0693 22.511L34.0477 21.8562ZM34.1843 22.0989C34.6285 21.7884 35.2357 22.3043 34.8284 22.6487L34.1843 22.0989ZM34.7141 22.0509C34.8172 22.0201 34.9885 21.8183 34.9925 21.5965L34.7141 22.0509ZM34.9352 22.2456C35.1147 22.0345 36.4466 22.3969 35.6442 22.8548L34.9352 22.2456ZM35.5118 21.664C35.7702 21.7509 35.9226 22.1081 35.5467 22.2475L35.5118 21.664ZM35.8959 22.5347C36.1572 22.2316 37.0396 22.3818 36.7481 22.7659L35.8959 22.5347ZM36.5163 22.3939C36.6407 21.8482 37.593 22.1463 37.3014 22.3797L36.5163 22.3939ZM36.2924 21.8624C36.3249 21.9674 36.3494 22.2323 36.1837 22.3808L36.2924 21.8624ZM37.0702 21.7245C37.1103 21.8115 37.1117 21.9798 37.0396 22.0891L37.0702 21.7245ZM37.6628 21.7093C37.721 21.8043 37.8191 21.9865 37.6364 22.1446L37.6628 21.7093ZM29.9624 17.9458C30.0011 18.4493 30.1956 18.7782 30.8474 18.4327L29.9624 17.9458ZM30.2073 18.5386C29.9033 19.0029 30.3069 19.4739 30.9313 18.9612L30.2073 18.5386ZM29.2009 18.8008C29.6835 19.2775 30.4721 18.8821 29.9044 18.1519L29.2009 18.8008ZM30.516 19.1729C30.4578 19.6627 30.8558 19.744 31.1648 19.5099L30.516 19.1729ZM28.8052 18.8967C28.917 19.3822 29.4326 19.7485 29.8938 19.4285L28.8052 18.8967ZM29.4381 19.5448C29.4798 20.2432 30.4342 20.2841 30.6086 19.5504L29.4381 19.5448ZM30.2951 20.006C30.6381 20.63 31.2848 20.3468 31.4794 19.949L30.2951 20.006ZM29.5632 19.0168C29.7037 19.3212 29.9684 19.6561 30.5192 19.3767L29.5632 19.0168ZM27.8121 18.9371C27.906 19.1902 28.3775 19.4813 28.879 19.1064L27.8121 18.9371ZM28.1537 19.2513C27.8997 19.6781 28.4806 20.0444 29.1144 19.3983L28.1537 19.2513ZM28.5156 19.7507C28.6638 20.3296 28.9182 20.7889 29.6922 20.0042L28.5156 19.7507Z" stroke="black" stroke-width="0.0285386"/>
<path d="M30.6527 24.4264C30.4817 25.0348 30.6909 25.2386 31.1539 25.2287M30.8318 20.3679C30.8314 20.8102 30.9297 21.0273 31.2627 20.9962C31.5253 20.9717 31.7635 20.746 31.896 20.5107L30.8318 20.3679ZM31.203 20.9991C31.2232 21.5025 31.6314 21.884 32.3216 21.3431L31.203 20.9991ZM31.5365 21.5779C31.4213 21.9629 31.8678 22.5641 32.6548 22.2139L31.5365 21.5779ZM29.7744 20.6408C29.751 21.1283 30.2066 21.4371 30.873 20.7822L29.7744 20.6408ZM30.148 21.1653C30.1965 21.5614 30.6607 22.0203 31.2636 21.306L30.148 21.1653ZM30.485 21.6561C30.4726 22.3377 31.0919 22.5073 31.5759 21.9659L30.485 21.6561ZM29.5398 21.1899C29.6773 21.1932 29.7815 21.0652 29.8449 20.9741L29.5398 21.1899ZM29.8592 21.672C29.9807 21.6937 30.1798 21.5706 30.2402 21.4267L29.8592 21.672ZM30.2055 22.463C30.3511 22.6075 30.8075 22.483 30.8557 22.2776L30.2055 22.463ZM30.719 22.4335C31.0115 23.0408 31.695 22.9867 31.9376 22.2781L30.719 22.4335ZM31.8232 22.5307C31.9724 22.8873 32.3112 23.1036 32.8352 22.9586L31.8232 22.5307ZM32.1015 22.8909C31.8307 23.406 32.2586 23.9814 32.8932 23.372L32.1015 22.8909ZM32.3074 23.6343C32.2915 23.9533 32.595 24.3037 32.9829 24.3323L32.3074 23.6343ZM30.9862 22.759C30.9244 23.4779 31.441 23.8021 32.0446 23.3973L30.9862 22.759ZM30.2781 23.1327C30.4484 23.2585 30.7407 23.2644 31.0087 23.1474L30.2781 23.1327ZM31.3665 23.5486C31.2467 24.155 31.8712 24.5632 32.3466 23.8717L31.3665 23.5486ZM30.5151 23.2203C30.5415 23.5288 30.8521 23.8524 31.3518 23.7349L30.5151 23.2203ZM32.8004 24.2957C32.4713 24.5478 32.4271 24.9741 32.9226 25.2283L32.8004 24.2957ZM31.9536 24.2057C31.9917 24.5668 32.1661 24.7632 32.5534 24.7829L31.9536 24.2057ZM31.438 24.0408C30.952 24.5469 31.4897 25.0913 32.0705 24.5902L31.438 24.0408ZM31.8393 24.7499C31.6999 25.3128 32.3616 25.6222 32.6717 25.0436L31.8393 24.7499ZM30.7093 23.6103C30.5522 24.165 30.8129 24.5172 31.2477 24.4643L30.7093 23.6103ZM30.0263 23.5318C30.0708 23.8573 30.3514 23.961 30.6558 23.8779L30.0263 23.5318ZM30.243 23.8682C30.0381 24.3363 30.4035 24.5693 30.8561 24.3741L30.243 23.8682ZM32.3196 25.341C32.2592 25.6353 32.3141 25.8454 32.7394 25.9255L32.3196 25.341ZM32.369 25.7549C31.8772 26.0136 31.8633 26.5184 32.276 26.8289L32.369 25.7549ZM31.9298 25.2111C31.6786 25.4689 31.7544 25.8948 32.0553 26.0507L31.9298 25.2111ZM29.5891 23.6913C29.3148 23.9987 29.6401 24.8037 30.2568 24.3322L29.5891 23.6913ZM31.3187 24.6561C30.9438 25.0073 31.1588 25.609 31.8 25.415L31.3187 24.6561Z" stroke="black" stroke-width="0.0285386"/>
<path d="M28.4559 24.9241C28.0397 24.9589 27.87 25.1783 27.8875 25.4698M29.0872 23.6849C28.7474 23.9733 28.8662 24.358 29.0333 24.5283C29.2002 24.6986 29.4908 24.607 29.5726 24.3734L29.0872 23.6849ZM28.3254 23.4773C27.957 24.0148 28.3936 24.6168 28.9475 24.4082L28.3254 23.4773ZM30.556 24.9357C30.1565 25.1026 29.8676 25.4922 30.1379 25.8117C30.2973 26 30.9419 26.0002 31.0793 25.2419L30.556 24.9357ZM29.7879 24.4797C29.574 24.8338 29.6716 25.1575 30.1161 25.3075L29.7879 24.4797ZM29.8006 25.1261C29.557 25.2777 29.4019 25.4523 29.4814 25.759L29.8006 25.1261ZM29.2038 24.6103C29.1331 25.0294 29.2613 25.2809 29.5206 25.3943L29.2038 24.6103ZM29.2248 25.105C28.8321 25.0945 28.6424 25.2705 28.7959 25.6539L29.2248 25.105ZM28.8047 25.2196C28.4139 25.0938 28.3328 24.7607 28.4768 24.4006L28.8047 25.2196Z" stroke="black" stroke-width="0.0285386"/>
<path d="M24.9843 23.9669C24.4853 23.9253 24.442 24.5115 24.6234 24.7786M27.7667 23.3037C27.4705 23.4487 27.3998 23.8677 27.5264 24.0928C27.6533 24.3178 28.0107 24.3209 28.219 24.1618L27.7667 23.3037ZM26.8958 23.012C26.6369 23.3414 26.9953 23.9466 27.4818 23.7761L26.8958 23.012ZM26.1684 22.7937C25.9299 23.1752 26.2538 23.7819 26.9124 23.5779L26.1684 22.7937ZM27.0501 25.2989C26.9541 24.86 27.3886 24.5502 27.9793 25.1016L27.0501 25.2989ZM27.6566 24.2208C27.5005 24.3777 27.4367 24.6194 27.4742 24.8127L27.6566 24.2208ZM25.4432 22.611C25.186 23.1174 25.5608 23.5536 26.1671 23.3517L25.4432 22.611ZM27.1243 23.7728C26.7407 24.2046 26.9046 24.6141 27.223 24.8401L27.1243 23.7728ZM26.8927 24.2696C26.2762 24.3036 26.285 25.0294 26.8028 25.2385L26.8927 24.2696ZM26.3802 23.5644C26.1388 23.7514 26.0897 24.2404 26.5359 24.417L26.3802 23.5644ZM26.428 24.6516C26.1598 24.5386 25.856 24.7016 25.9006 25.0096L26.428 24.6516ZM26.0371 24.6764C25.7687 24.1206 25.088 24.2459 25.1839 24.8264L26.0371 24.6764ZM26.1864 23.9706C26.0405 24.0031 25.7502 24.1035 25.651 24.3378L26.1864 23.9706ZM25.636 23.3556C25.3771 23.6849 25.6168 24.0559 25.8477 24.1261L25.636 23.3556ZM24.7572 22.4971C24.7277 22.879 24.8866 23.0585 25.3538 23.004L24.7572 22.4971ZM24.951 22.9765C24.7959 23.4433 25.0514 23.6365 25.519 23.5908L24.951 22.9765ZM25.089 23.5374C24.8311 23.8844 25.044 24.2388 25.3223 24.378L25.089 23.5374Z" stroke="black" stroke-width="0.0285386"/>
<path d="M24.3274 23.3427C24.1018 23.7409 24.3401 24.0232 24.6112 24.1274M24.4834 22.47C24.1922 22.6144 24.0433 23.0094 24.219 23.2412C24.3947 23.473 24.7145 23.3806 24.8868 23.25L24.4834 22.47Z" stroke="black" stroke-width="0.0285386"/>
<path d="M21.8178 26.5868C21.4215 26.4836 21.3848 26.0117 21.7202 25.821M23.2465 22.4754C23.0603 22.6954 23.207 23.123 23.6919 23.112C24.0822 23.1031 24.2579 22.7171 24.1211 22.4573L23.2465 22.4754ZM23.6228 23.1147C23.4881 23.4742 23.6058 23.8498 24.1902 23.7639L23.6228 23.1147ZM24.4742 24.31C24.1011 24.1572 23.6267 24.3447 23.8605 24.7776L24.4742 24.31ZM23.745 23.7116C23.6105 23.9294 23.6803 24.2275 23.8557 24.4061L23.745 23.7116ZM23.7528 24.2774C23.5132 24.3315 23.2876 24.4735 23.4578 24.8559L23.7528 24.2774ZM23.4038 24.5397C23.0867 24.4553 22.7025 24.7011 22.9641 25.0178L23.4038 24.5397ZM22.8943 24.7111C22.6236 24.678 22.3209 24.9824 22.5977 25.2631L22.8943 24.7111ZM22.4796 25.0288C22.2411 25.1005 21.9726 25.3947 22.2365 25.6051L22.4796 25.0288ZM23.6168 23.5931C23.2802 23.7662 23.2693 24.1649 23.4509 24.4494L23.6168 23.5931ZM23.2095 22.8754C22.7026 23.0997 22.7533 23.8056 23.3372 24.0028L23.2095 22.8754ZM23.0856 23.8535C22.7853 24.0516 22.7458 24.4072 22.967 24.6282L23.0856 23.8535ZM22.4674 22.6403C22.264 22.7195 22.3201 23.372 22.8726 23.3316L22.4674 22.6403ZM21.9099 22.8841C21.5116 23.1836 22.0558 23.8781 22.6999 23.3385L21.9099 22.8841ZM22.3383 23.5301C22.295 23.8239 22.3918 24.1385 22.8523 24.155L22.3383 23.5301ZM22.3872 23.9178C22.0659 24.0548 22.0463 24.7459 22.6462 24.7744L22.3872 23.9178ZM21.3039 23.3339C20.9037 23.7485 21.694 24.0612 21.9452 23.4758L21.3039 23.3339ZM20.755 24.0199C20.5626 24.2843 21.329 24.9255 21.5823 23.7913L20.755 24.0199ZM21.6589 23.7706C21.692 24.0348 21.8571 24.1873 22.1781 24.1918L21.6589 23.7706ZM22.185 24.4483C21.6795 24.5487 21.554 25.2086 22.1332 25.3265L22.185 24.4483ZM21.2369 24.3987C21.2343 24.6465 21.4972 24.8393 21.78 24.7835L21.2369 24.3987ZM22.0715 25.311C21.6108 25.4361 21.587 26.0565 22.0001 26.0042L22.0715 25.311Z" stroke="black" stroke-width="0.0285386"/>
<path d="M22.9321 32.6909C22.7837 32.7144 22.6357 32.822 22.7651 33.1443C22.8548 33.3678 23.184 33.3663 23.2232 33.2276M21.3683 26.1817C21.0554 26.3976 21.2107 26.8778 21.3854 26.9416C21.5601 27.0054 21.6917 26.9117 21.7004 26.761L21.3683 26.1817ZM21.7129 27.4415C21.76 27.6695 20.9313 27.6142 21.3136 26.8826L21.7129 27.4415ZM21.3435 27.4963C21.0914 27.9575 21.5644 28.3056 21.8287 27.9104L21.3435 27.4963ZM21.4127 28.0375C21.3221 28.4037 21.7593 28.6473 22.0165 28.3539L21.4127 28.0375ZM20.2998 24.6854C20.1645 25.018 20.9397 25.1109 20.9532 24.4382L20.2998 24.6854ZM20.114 25.1796C19.9962 25.821 21.1495 25.6424 20.8046 24.8336L20.114 25.1796ZM20.8538 25.2561C21.0214 25.3467 21.5085 25.3361 21.5977 24.7931L20.8538 25.2561ZM21.2732 25.257C21.3168 25.4232 21.4733 25.6204 21.6133 25.6768L21.2732 25.257ZM20.728 25.4468C20.6961 25.793 21.0449 26.0622 21.4275 26.0204L20.728 25.4468ZM20.8063 25.7799C20.6334 26.0522 20.6025 26.5664 21.1934 26.5782L20.8063 25.7799ZM19.9151 25.9039C19.8367 26.1812 20.4074 26.4415 20.7064 25.9785L19.9151 25.9039ZM19.7836 26.6075C19.7483 26.8168 20.2633 27.0748 20.4953 26.1811L19.7836 26.6075ZM20.2988 26.6402C20.4308 26.8561 20.8419 27.0166 21.065 26.5743L20.2988 26.6402ZM20.6787 26.8553C20.5936 27.1682 20.8917 27.4482 21.2282 27.3464L20.6787 26.8553ZM20.0347 26.8101C19.9913 27.2541 20.5007 27.4902 20.7951 27.2486L20.0347 26.8101ZM19.7211 27.0171C19.6078 27.5877 20.3197 27.7716 20.5604 27.3374L19.7211 27.0171ZM20.391 27.5123C20.4345 27.829 20.9279 28.0835 21.2886 27.8038L20.391 27.5123ZM19.5522 27.8112C19.526 27.9537 20.1059 28.0721 20.1634 27.5745L19.5522 27.8112ZM19.8921 27.9212C20.049 28.2776 20.515 28.3475 20.7547 27.8957L19.8921 27.9212ZM20.611 28.0783C20.6896 28.4112 21.1183 28.5799 21.4724 28.3358L20.611 28.0783ZM21.6333 28.4622C21.5648 28.916 22.0375 29.2598 22.3052 29.0015L21.6333 28.4622ZM20.9034 28.4116C20.7947 28.9113 21.4081 29.1698 21.7256 28.883L20.9034 28.4116ZM20.1726 28.193C20.1643 28.6532 20.5297 28.9128 20.9194 28.6938L20.1726 28.193ZM19.4153 28.2677C19.3127 28.5725 19.9583 28.7944 20.2426 28.5266L19.4153 28.2677ZM19.0686 29.104C19.2417 29.2917 19.7941 29.0751 19.821 28.6406L19.0686 29.104ZM19.6857 28.964C19.9044 29.203 20.3984 29.3159 20.5649 28.7786L19.6857 28.964ZM20.4095 29.0593C20.4224 29.4391 21.0951 29.6865 21.2692 28.9808L20.4095 29.0593ZM22.0489 29.0868C21.9996 29.2745 22.1572 29.5645 22.4536 29.588L22.0489 29.0868ZM21.5006 28.9938C21.4698 29.2073 21.7853 29.491 22.0944 29.3593L21.5006 28.9938ZM22.1595 29.445C22.087 29.6778 22.1782 30.0058 22.4767 29.9895L22.1595 29.445ZM22.2133 29.872C22.0023 30.0749 22.1155 30.4154 22.4364 30.4159L22.2133 29.872ZM22.1166 30.2027C21.8132 30.4358 21.9515 30.9168 22.3682 30.8738L22.1166 30.2027ZM21.1079 29.3056C21.1347 29.7822 21.7106 29.8299 21.7967 29.3843L21.1079 29.3056ZM21.5905 29.6754C21.521 29.9611 21.7584 30.2259 22.1038 30.1325L21.5905 29.6754ZM21.8507 33.0791C21.9341 33.1909 22.2389 32.9842 22.1426 32.7935C22.0463 32.6027 21.7177 32.7216 21.765 32.9234L21.8507 33.0791ZM22.061 32.7169C22.0818 32.3269 21.6345 32.2829 21.5424 32.6226L22.061 32.7169ZM21.6936 32.4222C21.7937 32.2236 21.4032 31.9739 21.2654 32.2624L21.6936 32.4222ZM21.3957 32.1418C21.4822 31.8552 21.0485 31.7489 21.0287 32.0061L21.3957 32.1418ZM20.914 31.6391C20.9573 31.4959 21.4402 31.5649 21.2518 31.8644L20.914 31.6391ZM21.6388 32.203C21.8167 32.019 21.4805 31.6698 21.2916 31.81L21.6388 32.203Z" stroke="black" stroke-width="0.0285386"/>
<path d="M19.205 29.6786C19.1982 29.8559 19.3025 30.1524 19.736 30.0108M22.7083 32.8579C22.5556 32.7669 22.2455 32.9432 22.4114 33.255C22.5362 33.4898 22.8087 33.3803 22.8446 33.2549L22.7083 32.8579ZM21.9095 33.3463C21.9908 33.4756 22.3548 33.4034 22.411 33.255L21.9095 33.3463ZM22.1343 32.899C22.209 32.8428 22.3555 32.903 22.3897 32.968L22.1343 32.899ZM21.9793 30.7242C21.7386 30.9022 21.9247 31.4078 22.3057 31.2594L21.9793 30.7242ZM21.9261 31.1425C21.7367 31.3095 21.9476 31.7965 22.3083 31.5959L21.9261 31.1425ZM22.0146 31.6078C21.8847 31.7546 22.042 32.1419 22.3962 32.0522L22.0146 31.6078ZM21.974 31.804C21.8941 31.7718 21.6926 31.8066 21.6139 31.9424L21.974 31.804ZM21.6434 30.0256C21.4643 30.2187 21.5775 30.5947 21.9337 30.611L21.6434 30.0256ZM21.5972 30.4167C21.333 30.5647 21.3658 31.1162 21.9116 31.1161L21.5972 30.4167ZM21.6127 31.0399C21.4688 31.1697 21.5705 31.6433 21.9558 31.5655L21.6127 31.0399ZM21.7687 31.5557C21.7159 31.6154 21.7159 31.7615 21.7672 31.8213L21.7687 31.5557ZM21.5851 31.3818C21.4471 31.3919 21.2716 31.5009 21.2326 31.6485L21.5851 31.3818ZM20.9516 31.1467C20.9951 31.0034 21.4235 30.9947 21.4784 31.4084L20.9516 31.1467ZM21.4921 30.9124C21.4324 30.9281 21.3191 30.9903 21.296 31.1107L21.4921 30.9124ZM21.2295 29.627C21.0539 29.8067 20.9954 30.3534 21.5678 30.436L21.2295 29.627ZM20.9202 30.7632C20.9116 30.6175 21.2889 30.4781 21.4357 30.6889L20.9202 30.7632ZM20.6269 29.9831C20.6896 30.0912 20.9664 30.2303 21.1233 30.1L20.6269 29.9831ZM19.1838 29.1754C19.1904 29.4317 19.4114 29.6528 19.6946 29.6058C19.9777 29.5588 20.023 29.3003 19.9266 29.1361L19.1838 29.1754ZM19.7383 29.6128C19.5623 29.8589 19.8156 30.1848 20.0259 30.0788L19.7383 29.6128ZM19.9447 29.4361C20.0545 29.3874 20.423 29.3192 20.5459 29.4911L19.9447 29.4361ZM18.7473 29.5561C18.6687 29.692 19.2125 29.8025 19.3787 29.539L18.7473 29.5561Z" stroke="black" stroke-width="0.0285386"/>
<path d="M18.6251 29.7428C18.5086 29.9778 19.0374 30.3768 19.3008 29.9765M19.8156 30.2871C19.8761 30.1341 19.5313 29.9003 19.2958 30.1844C19.0603 30.4684 19.3654 30.7659 19.5155 30.6534L19.8156 30.2871Z" stroke="black" stroke-width="0.0285386"/>
<path d="M18.3026 30.1548C18.1316 30.3522 18.3783 30.6918 18.6455 30.5747C18.9128 30.4575 18.8693 30.1671 18.7997 30.0947" stroke="black" stroke-width="0.0285386"/>
<path d="M22.5323 33.5757C22.6959 33.693 22.9654 33.5404 22.9543 33.3548M18.1449 30.5234C18.0054 30.6663 18.168 30.9828 18.3721 30.9745C18.5761 30.9661 18.6923 30.7977 18.6408 30.5917L18.1449 30.5234ZM18.9725 30.4632C18.9586 30.6674 19.2623 30.7966 19.442 30.599L18.9725 30.4632ZM19.4288 30.2273C19.4522 30.182 19.426 30.1078 19.3806 30.0743L19.4288 30.2273ZM17.8446 30.8102C17.6835 30.954 18.071 31.3188 18.2802 30.9605L17.8446 30.8102ZM19.1467 30.6816C19.0444 30.7919 19.2348 31.0629 19.4034 30.9719L19.1467 30.6816ZM18.5638 30.9001C18.6012 31.0887 18.9744 31.2151 19.1871 30.9145L18.5638 30.9001ZM18.7748 31.0818C18.7255 31.2034 18.8498 31.3888 18.9872 31.3565L18.7748 31.0818ZM22.2965 32.0317C22.1781 32.3064 22.6267 32.6025 22.9198 32.2629L22.2965 32.0317ZM22.6329 32.4205C22.5765 32.5688 22.6668 32.7688 22.7886 32.839L22.6329 32.4205ZM22.2433 32.7417C22.2658 32.6078 22.445 32.4766 22.6181 32.5315L22.2433 32.7417ZM21.9964 32.402C22.0153 32.2819 22.1644 32.1561 22.2836 32.1823L21.9964 32.402ZM31.8921 26.4727C31.2761 26.5067 31.5968 27.5029 32.1144 27.2781L31.8921 26.4727ZM31.7369 27.2231C31.6275 27.4313 31.8812 27.7441 32.1303 27.5435L31.7369 27.2231ZM32.0637 27.586C31.8997 27.9025 32.5794 28.3484 32.8108 27.852L32.0637 27.586ZM32.6136 28.0458C32.6396 28.337 33.4844 28.4883 33.3281 27.9103L32.6136 28.0458ZM33.2688 28.2313C33.489 28.5676 34.2381 28.5724 34.1292 28.0633L33.2688 28.2313ZM33.9855 28.4237C34.1557 28.6469 34.8936 28.7583 34.839 28.2825L33.9855 28.4237ZM30.8498 25.6391C30.9703 25.9087 31.3322 25.9913 31.7135 25.8163L30.8498 25.6391ZM30.636 25.8426C30.8887 25.9916 30.576 26.7304 30.1852 26.4542L30.636 25.8426ZM30.6629 26.293C30.9402 26.4145 31.2643 26.3039 31.3366 25.9113L30.6629 26.293ZM31.1895 26.2181C31.2277 26.4202 31.5239 26.5675 31.8925 26.4727L31.1895 26.2181ZM30.5333 26.4578C30.8988 26.7439 30.432 27.3828 30.1892 27.1093L30.5333 26.4578ZM30.6776 26.6818C30.8499 26.7987 31.2712 26.7107 31.295 26.3821L30.6776 26.6818ZM31.1205 26.6637C31.168 26.8742 31.3377 26.947 31.5727 26.9462L31.1205 26.6637ZM30.5995 26.9771C30.7879 27.2173 31.2264 27.2701 31.3978 26.9356L30.5995 26.9771ZM31.2175 27.1289C31.2145 27.3681 31.4866 27.5517 31.7528 27.4877L31.2175 27.1289ZM30.303 27.6976C30.5356 27.8031 30.7529 27.3605 30.5438 27.068L30.303 27.6976ZM30.5911 28.1461C30.8614 28.1528 30.8712 27.7363 30.6057 27.5169L30.5911 28.1461ZM31.2304 28.5006C31.4532 28.4383 31.3534 27.9377 30.8036 27.916L31.2304 28.5006ZM31.9383 28.844C32.1518 28.7733 31.9447 28.2239 31.3478 28.2838L31.9383 28.844ZM32.7754 29.0044C32.909 28.7688 32.3996 28.4001 32.0123 28.6195L32.7754 29.0044ZM33.2022 29.3054C33.4763 29.3739 33.6152 28.6422 32.7711 28.7918L33.2022 29.3054ZM33.6974 29.2852C33.9284 29.2137 34.0675 28.7742 33.3899 28.9435L33.6974 29.2852ZM34.2207 29.2995C34.4354 29.397 34.4939 28.7748 33.8699 28.9686L34.2207 29.2995ZM30.6053 27.5169C30.8749 27.6564 31.2725 27.4631 31.2175 27.1289L30.6053 27.5169ZM31.1309 27.425C31.2274 27.5804 31.2111 27.891 31.0508 27.9772L31.1309 27.425ZM31.179 27.7948C31.3569 27.8584 31.5877 27.787 31.7097 27.4987L31.179 27.7948ZM31.4833 27.7824C31.5426 27.9039 31.5749 28.1505 31.4693 28.2788L31.4833 27.7824ZM31.5396 27.9924C31.7371 28.0906 31.9543 27.94 32.0376 27.7329L31.5396 27.9924ZM31.9265 27.9144C32.0707 27.9971 32.2172 28.4072 31.9927 28.5846L31.9265 27.9144ZM32.1115 28.3853C32.277 28.3874 32.5203 28.3774 32.6638 28.1591L32.1115 28.3853ZM32.5578 28.2785C32.7081 28.3167 32.8964 28.5569 32.849 28.7802L32.5578 28.2785ZM32.8528 28.6999C33.017 28.6754 33.2964 28.5489 33.3625 28.3426L32.8528 28.6999ZM33.2922 28.4784C33.4362 28.5522 33.5417 28.7161 33.5358 28.9111L33.2922 28.4784ZM33.5271 28.7696C33.6915 28.7541 33.8339 28.6597 33.8662 28.4725L33.5271 28.7696ZM33.8305 28.5983C33.9547 28.6375 34.1109 28.7727 34.1297 28.9402L33.8305 28.5983ZM34.1058 28.8345C34.2263 28.8119 34.3083 28.7289 34.3792 28.602L34.1058 28.8345ZM34.7082 28.5712C34.8741 28.7238 34.6975 29.2623 34.3703 29.1782L34.7082 28.5712ZM30.7323 18.003C30.4225 18.2104 29.5068 18.1859 29.9124 17.3991L30.7323 18.003ZM30.7879 17.4782C30.1694 17.7602 29.358 17.2977 30.1422 16.7255L30.7879 17.4782ZM29.9146 16.558C29.3849 16.5797 29.0806 17.4598 29.8109 17.7309L29.9146 16.558ZM27.8782 17.0043C27.7557 17.2838 28.2686 17.5638 28.591 17.2762C28.8406 17.0533 28.7869 16.4802 28.6175 16.2657L27.8782 17.0043ZM27.6481 17.6688C27.5093 18.2587 28.7882 18.2419 28.5328 17.3227L27.6481 17.6688ZM27.6304 18.5374C27.7002 18.9772 28.873 18.7876 28.4372 17.9111L27.6304 18.5374ZM28.5614 17.6578C28.6648 17.7864 28.9392 18.0053 29.3793 17.9431L28.5614 17.6578ZM28.7321 17.0222C28.7808 17.1795 29.0529 17.2924 29.3846 17.1593L28.7321 17.0222ZM17.6872 30.9447C17.4006 31.1735 17.8812 31.4946 18.028 31.1123L17.6872 30.9447ZM17.4625 31.1222C17.1759 31.3508 17.6565 31.6719 17.8034 31.2896L17.4625 31.1222ZM17.2247 31.2958C16.938 31.5246 17.4187 31.8457 17.5655 31.4634L17.2247 31.2958ZM16.9731 31.4568C16.6958 31.6231 17.0529 31.9892 17.3237 31.6416L16.9731 31.4568ZM16.6997 31.6143C16.4224 31.7804 16.7795 32.1466 17.0503 31.7991L16.6997 31.6143ZM18.1274 31.0994C18.1365 31.3248 18.5633 31.4004 18.6951 31.0583L18.1274 31.0994ZM18.4048 31.2965C18.2845 31.4696 18.5358 31.6675 18.6616 31.5869L18.4048 31.2965ZM17.8424 31.2882C17.8407 31.4787 18.212 31.5742 18.3777 31.3594L17.8424 31.2882ZM18.0544 31.4792C17.9464 31.6385 18.189 31.8367 18.333 31.7686L18.0544 31.4792ZM17.6099 31.4704C17.6319 31.62 17.8506 31.7837 18.0706 31.6773L17.6099 31.4704ZM17.7564 31.6679C17.6743 31.751 17.7289 31.9348 17.8539 31.9873L17.7564 31.6679ZM17.3041 31.6732C17.2775 31.8116 17.5223 32.0451 17.7472 31.8764L17.3041 31.6732ZM17.3611 31.8304C17.2288 31.9465 17.2561 32.1135 17.4355 32.1282L17.3611 31.8304ZM17.0261 31.8265C17.0143 31.9198 17.1405 32.0651 17.2871 32.0415L17.0261 31.8265ZM16.2827 31.8481C16.1483 31.9287 16.5274 32.2984 16.7273 31.9316L16.2827 31.8481ZM15.9491 32.0207C15.7804 32.1119 16.2358 32.5181 16.4009 32.0775L15.9491 32.0207ZM17.0729 31.9571C16.9401 31.9935 16.8652 32.1959 16.9828 32.2706L17.0729 31.9571ZM16.6385 32.0458C16.6259 32.1261 16.7988 32.2517 16.9306 32.1978L16.6385 32.0458ZM16.5279 32.0861C16.4026 32.1753 16.4861 32.4063 16.636 32.3649L16.5279 32.0861ZM16.0726 32.2592C15.9566 32.3568 16.0502 32.539 16.2169 32.488L16.0726 32.2592ZM16.293 32.237C16.3003 32.2853 16.4133 32.3561 16.5027 32.3215L16.293 32.237ZM15.6458 32.1838C15.4978 32.2562 15.5298 32.6445 16.0295 32.4117L15.6458 32.1838ZM15.3119 32.3525C15.1054 32.4673 15.1924 32.7559 15.6404 32.4587L15.3119 32.3525ZM15.6808 32.4793C15.627 32.5257 15.5779 32.7225 15.786 32.6386L15.6808 32.4793ZM15.2957 32.5875C15.2136 32.6706 15.2799 32.8318 15.4673 32.7619L15.2957 32.5875ZM14.8501 32.6326C14.6994 32.7319 15.0497 32.8415 15.2651 32.5847L14.8501 32.6326ZM14.9611 32.743C14.8958 32.8166 14.9082 33.024 15.0861 32.9416L14.9611 32.743ZM14.5232 32.8451C14.4237 32.9289 14.6081 33.0277 14.9251 32.8685L14.5232 32.8451ZM14.6601 32.9544C14.5445 33.0609 14.5652 33.1884 14.7409 33.1413L14.6601 32.9544ZM14.3032 33.0268C14.176 33.156 14.3764 33.2319 14.6047 33.1206L14.3032 33.0268ZM14.3157 33.1638C14.0918 33.2791 14.2034 33.4692 14.3421 33.3884L14.3157 33.1638ZM22.042 33.5248C21.9955 33.6439 22.1762 33.7318 22.3397 33.6986C22.4966 33.6667 22.6403 33.5277 22.51 33.3464L22.042 33.5248Z" stroke="black" stroke-width="0.0285386"/>
<path d="M31.2729 14.4837C30.5521 14.1566 29.0612 13.5579 28.6812 14.1065C29.0479 13.9319 30.1603 14.0566 31.1203 14.8722L31.2729 14.4837L31.2729 14.4837Z" fill="white" stroke="black" stroke-width="0.0285386"/>
<path d="M31.7203 14.4338C30.8543 13.5073 30.3894 13.7406 29.7875 13.4334C29.2222 13.1448 28.3467 13.1156 28.2065 13.6155C28.9832 13.1887 29.7527 13.7679 30.2079 13.8237C30.8332 13.9003 31.2111 14.3728 31.4053 14.5892L31.7204 14.4338L31.7203 14.4338ZM34.766 14.1912C34.2885 13.2295 33.4041 13.5203 32.9827 13.1204C32.3696 12.5384 30.8742 12.0356 30.294 12.4773C31.6212 12.3539 32.2466 13.3344 32.9788 13.6553C33.5015 13.8844 34.0755 14.3966 34.766 14.1912L34.766 14.1912Z" fill="white" stroke="black" stroke-width="0.0285386"/>
<path d="M33.1433 14.1397C32.3742 13.2663 31.2274 12.5146 30.7396 12.8358C31.4046 12.8444 31.6418 13.3048 32.131 13.5865C32.6199 13.8682 32.4365 14.3101 33.1433 14.1397ZM29.8356 15.8698C29.0685 15.617 27.5946 15.5347 26.9658 16.4292C28.1115 16.5779 29.8149 16.4027 29.8356 15.8698Z" fill="white" stroke="black" stroke-width="0.0285386"/>
<path d="M29.7016 16.2138C28.9298 15.8901 28.373 16.4082 27.6633 16.367C26.3114 16.2884 25.356 16.4068 25.2727 17.0666C25.9993 16.3365 27.3253 16.8596 27.8405 16.6969C28.3558 16.5342 30.3009 16.5799 30.9275 16.8207C30.5901 16.4441 30.0952 16.3576 29.7016 16.2138ZM31.9374 14.092C31.7282 13.5149 31.7 12.8952 32.5667 12.9046C32.3322 12.6391 31.5209 12.5298 31.4509 13.5617C30.4574 12.8921 29.4113 12.8101 29.2558 13.4284C29.7192 12.984 30.4969 13.2631 31.4668 14.2707C31.5428 14.2233 31.7469 14.1263 31.9374 14.092L31.9374 14.092Z" fill="white" stroke="black" stroke-width="0.0285386"/>
<path d="M30.682 14.9515C30.119 14.6186 29.3504 14.0718 30.6223 13.79C30.0537 13.5106 29.257 13.6757 29.4052 14.7004C27.9006 14.1563 26.8577 14.4019 26.671 15.005C26.4648 15.6708 27.3959 15.9979 27.5286 15.575C27.3666 15.6526 26.7868 15.4803 27.062 15.0961C27.3374 14.712 28.8775 14.9306 30.3721 15.6392C30.7868 15.8359 32.1663 15.7453 30.682 14.9515L30.682 14.9515Z" fill="white" stroke="black" stroke-width="0.0285386"/>
<path d="M30.4031 15.9301C29.9336 15.0804 28.6223 15.9209 28.2994 15.0925C27.9978 16.337 30.2622 15.565 30.4031 15.9301ZM39.0938 16.527C39.3869 16.6591 39.6198 16.4239 39.1739 16.2643C39.4672 16.3963 39.7027 16.1664 39.2568 16.0068C39.5501 16.1388 39.7856 15.9089 39.3397 15.7493C39.2306 15.8724 39.0899 16.3138 39.0938 16.527ZM39.1441 14.8535C39.7345 14.1543 39.0386 13.9507 39.7676 13.2282C40.3643 12.637 39.8323 12.28 40.4038 11.8157C40.588 11.6662 40.9911 11.3656 41.0095 11.0803C41.3008 11.7089 40.2647 11.8391 40.3952 12.8654C40.4783 13.5188 40.0382 13.4789 39.9356 14.5909C39.9141 14.8229 39.7869 15.3437 39.1441 14.8535Z" fill="white" stroke="black" stroke-width="0.0285386"/>
<path d="M39.4783 15.1214C39.782 14.3463 40.1836 14.3448 40.3585 14.0392C40.6915 13.4581 41.5076 14.0904 42.1322 13.5596C42.0614 14.2809 41.1648 14.0599 40.8082 14.5355C40.4515 15.0111 40.15 15.2362 39.4783 15.1214L39.4783 15.1214Z" fill="white" stroke="black" stroke-width="0.0285386"/>
<path d="M39.5162 15.3584C40.0968 14.8385 40.5661 15.1506 40.9725 14.8739C41.9966 14.1764 42.4708 14.946 43.4022 14.598C43.1863 15.2272 41.7515 14.7536 41.169 15.2381C40.5863 15.7226 38.4688 16.2517 39.5162 15.3584ZM37.9489 18.9583C37.9232 18.6757 37.6401 18.3238 37.2714 18.2945C36.9029 18.2651 36.7227 17.8824 36.4428 17.8761C36.1629 17.8697 35.946 17.3112 35.563 17.3356C35.1801 17.36 35.0533 17.8704 35.9784 18.2937C36.9036 18.7171 37.9287 19.2073 37.9489 18.9583L37.9489 18.9583ZM36.83 19.2432C36.4476 19.2764 36.4291 19.8444 36.0643 19.8769C36.5859 20.1305 36.9283 19.7178 37.1686 19.3535L36.83 19.2432Z" fill="white" stroke="black" stroke-width="0.0285386"/>
<path d="M37.0811 19.298C36.7712 19.5937 36.711 20.1888 37.193 20.3373C36.8864 19.9472 37.6573 19.7346 37.3954 19.3737L37.0811 19.298L37.0811 19.298Z" fill="white" stroke="black" stroke-width="0.0285386"/>
<path d="M37.4226 19.3014C37.1946 19.8238 37.8595 19.8587 37.7102 20.254C38.0829 20.1504 38.1007 19.4155 37.7458 19.2352L37.4226 19.3014Z" fill="white" stroke="black" stroke-width="0.0285386"/>
<path d="M34.796 18.3147C35.4221 18.2539 36.017 18.5752 36.4354 19.1174C36.7007 19.4613 37.529 19.5697 37.7914 19.2753C38.0536 18.981 37.8608 18.3858 37.1745 18.6086C36.9821 18.315 36.4825 18.4416 36.2236 18.2037C35.9646 17.966 34.9802 17.2964 34.796 18.3147Z" fill="white" stroke="black" stroke-width="0.0285386"/>
<path d="M37.1773 18.6079C37.0134 18.65 36.9783 18.9444 37.0919 19.0908L37.1773 18.6079ZM37.5461 18.7707C37.6038 18.8572 37.576 18.9826 37.5535 19.0456L37.5461 18.7707ZM35.7928 18.2994C36.1171 18.3042 36.1925 18.5409 36.5472 18.6154L35.7928 18.2994Z" fill="white"/>
<path d="M35.7928 18.2994C36.1171 18.3042 36.1925 18.5409 36.5472 18.6154M37.1773 18.6079C37.0134 18.65 36.9783 18.9444 37.0919 19.0908L37.1773 18.6079ZM37.5461 18.7707C37.6038 18.8572 37.576 18.9826 37.5535 19.0456L37.5461 18.7707Z" stroke="black" stroke-width="0.0285386" stroke-linecap="round"/>
<path d="M35.5472 17.4868C36.6847 17.7302 37.5886 17.9467 38.1585 18.2478C38.7284 18.5488 39.5877 18.6055 40.3231 18.3621C41.0584 18.1187 42.4887 17.8666 42.4712 18.818C42.8362 18.3285 42.3088 17.8375 41.3071 17.7862C41.2988 17.3202 40.7866 16.9182 40.4511 17.2091C40.7734 17.1519 41.0886 17.7587 40.4622 18.0338C40.5604 17.5637 40.0828 17.1604 39.6229 17.3844C39.9305 17.4623 40.2657 17.968 39.6001 18.1924C39.1799 18.3341 38.548 18.1969 38.0692 17.9282C37.5903 17.6596 34.9333 16.721 35.5472 17.4868Z" fill="white" stroke="black" stroke-width="0.0285386"/>
<path d="M38.3361 16.9327C37.9999 17.1057 38.2464 17.4673 37.7233 17.701C37.2 17.9348 36.8572 18.4355 37.0028 18.8454C37.3177 18.0184 37.9592 18.0276 38.1649 17.7006C38.3709 17.3737 38.6715 16.8924 38.3361 16.9327Z" fill="white" stroke="black" stroke-width="0.0285386"/>
<path d="M38.4406 16.9806C38.4615 17.6256 37.9512 17.4112 38.1986 18.3089C38.276 18.5889 38.4154 19.0433 38.2525 19.5101C38.7852 19.0724 38.3751 18.2155 38.6061 17.8763C38.7177 17.7125 38.8585 17.459 38.9066 17.2447C38.7988 17.6207 38.8483 18.3089 39.213 18.4709C38.8871 17.794 39.9079 17.186 39.1349 16.4213C39.0428 16.6197 38.7347 16.9774 38.4406 16.9806L38.4406 16.9806ZM36.6399 16.4084C36.7343 16.5373 36.8404 16.8691 36.7735 17.0577C36.9402 16.9447 37.1747 16.6608 37.2413 16.4723C37.5986 16.5107 37.7635 16.9553 37.4382 17.1632C37.6455 17.1547 37.9998 17.1402 38.1842 16.8938C37.9263 16.6301 37.1496 16.2371 36.6399 16.4084L36.6399 16.4084Z" fill="white" stroke="black" stroke-width="0.0285386"/>
<path d="M31.0974 15.3685C31.0377 15.3184 30.9392 15.2725 30.7657 15.2436C30.2295 15.1546 30.4746 14.6595 30.9257 14.6459C31.8253 13.5431 32.4139 14.3422 33.5665 13.9585C33.9699 13.8243 34.2536 13.848 34.4829 13.9371C34.9869 13.5614 35.6086 13.6361 36.0794 14.0353C36.1243 13.9534 36.1873 13.8897 36.2792 13.8596C36.6835 13.7275 37.0368 14.0697 37.1776 14.5265C37.4945 14.4535 37.8699 14.5998 38.1236 14.812C38.4468 14.6252 38.6759 14.6084 38.7709 14.7834C39.0601 14.6297 39.4404 14.5254 39.661 14.9967C39.8816 15.4682 39.2259 15.352 39.1803 16.3675C39.1522 16.9939 38.4791 17.2668 37.9146 16.9157C37.0118 16.3541 36.1592 16.2919 35.7923 17.2135C35.4257 18.1351 35.1276 18.6739 34.0919 18.4193C33.7183 18.3274 33.254 18.4882 32.9807 18.9081C32.7071 19.328 32.2297 18.9646 31.69 19.0305C32.366 18.8969 32.0945 18.7332 32.6862 18.6708C33.2265 18.6137 33.0563 18.1048 33.402 18.0199C32.058 18.4291 32.0803 17.9124 30.9813 18.3117C31.4336 17.6535 32.2244 17.9778 32.5875 17.5899C31.5715 17.6125 31.0781 16.9582 30.6386 17.2583C29.9473 17.7305 30.3363 18.9808 28.4578 18.9456C27.5447 18.9285 26.9746 19.0757 26.4646 19.6473C27.2927 17.6225 28.6423 18.6632 29.2271 18.0081C29.5727 17.6209 29.8359 17.3258 30.0075 16.9633C30.0678 16.8357 30.1554 16.7607 30.2683 16.7285C28.6818 16.2936 29.5781 15.4823 31.0975 15.3686L31.0974 15.3685Z" fill="white" stroke="black" stroke-width="0.0285386"/>
<path d="M38.8118 14.7774C38.8381 14.8261 38.8539 14.89 38.8585 14.9697C38.8813 15.3579 38.3142 15.3988 38.3135 15.9739C38.3129 16.2747 38.2891 16.4437 38.089 16.4165C37.8891 16.3892 37.6983 16.0785 37.8659 15.7002" fill="white"/>
<path d="M38.8118 14.7774C38.8381 14.8261 38.8539 14.89 38.8585 14.9697C38.8813 15.3579 38.3142 15.3988 38.3135 15.9739C38.3129 16.2747 38.2891 16.4437 38.089 16.4165C37.8891 16.3892 37.6983 16.0785 37.8659 15.7002" stroke="black" stroke-width="0.0285386" stroke-linecap="round"/>
<path d="M31.3805 14.7802C31.2298 14.683 31.0828 14.647 30.9531 14.6511L31.3805 14.7802ZM34.4996 13.9392C34.9738 14.1233 35.2282 14.601 35.9009 14.5977C36.5485 14.5946 37.0062 15.5288 38.0513 14.8657C38.0797 14.8477 38.1073 14.8309 38.1343 14.8153L34.4996 13.9392ZM36.0955 14.0389C36.0083 14.1984 35.9993 14.4162 36.0371 14.6057L36.0955 14.0389ZM34.1026 16.1249C33.2825 16.158 33.0981 16.5911 33.1223 16.9982C33.1466 17.4052 33.5621 17.9206 34.243 17.8931C34.9235 17.8656 35.2648 17.4261 35.2375 16.966C35.2101 16.5059 34.7657 16.0981 34.1026 16.1249Z" fill="white" stroke="black" stroke-width="0.0285386"/>
<path d="M34.3301 17.8639C34.2991 17.635 33.893 17.687 33.8998 17.5097C33.9065 17.3323 34.1109 17.2531 34.0961 17.0058C34.0814 16.7586 34.4448 16.7259 34.578 16.9153C34.7112 17.1046 35.0986 17.4695 35.1653 17.272L34.3301 17.8639ZM34.5784 16.9155C34.3989 17.1176 34.336 17.5186 34.6061 17.8174L34.5784 16.9155ZM34.8568 17.205C34.8041 17.3399 34.7989 17.5438 34.8757 17.6645L34.8568 17.205Z" fill="white"/>
<path d="M34.8568 17.205C34.8041 17.3399 34.7989 17.5438 34.8757 17.6645M34.3301 17.8639C34.2991 17.635 33.893 17.687 33.8998 17.5097C33.9065 17.3323 34.1109 17.2531 34.0961 17.0058C34.0814 16.7586 34.4448 16.7259 34.578 16.9153C34.7112 17.1046 35.0986 17.4695 35.1653 17.272L34.3301 17.8639ZM34.5784 16.9155C34.3989 17.1176 34.336 17.5186 34.6061 17.8174L34.5784 16.9155Z" stroke="black" stroke-width="0.0285386"/>
<path d="M37.2388 14.5244C37.0011 14.2466 36.489 14.1702 36.5165 14.7796M38.1363 16.4211C38.7757 16.4481 38.8415 15.7285 38.3628 15.7039L38.1363 16.4211Z" stroke="black" stroke-width="0.0285386"/>
<path d="M36.4519 15.4831C36.2009 14.9392 35.6352 14.8808 35.3529 15.1686C35.1182 15.4082 35.1465 16.0073 35.6885 16.1113C35.8597 15.8813 36.2022 15.5732 36.4519 15.4832L36.4519 15.4831ZM36.1907 15.1449C35.8586 14.872 35.425 15.4292 35.8743 15.9074L36.1907 15.1449ZM30.2645 16.7288C30.4729 16.6697 30.7877 16.7627 31.2743 16.9706C31.5807 17.1016 32.4924 17.3698 33.0358 17.045C32.4695 17.2814 31.9801 16.4072 31.5478 16.5313C31.1156 16.6553 30.323 16.8514 29.9669 16.5392C30.7938 16.5606 31.1988 15.8798 32.1737 16.4176C32.4462 16.5677 32.7854 16.6617 33.0823 16.6323C32.2567 15.7177 31.2746 16.3633 31.1252 15.601C31.6191 16.0909 32.7184 15.4229 33.3519 16.3539L30.2645 16.7288ZM31.3001 15.737C31.1837 15.6039 31.2249 15.4653 31.1022 15.3616L31.3001 15.737Z" fill="white"/>
<path d="M31.3001 15.737C31.1837 15.6039 31.2249 15.4653 31.1022 15.3616M36.4519 15.4831C36.2009 14.9392 35.6352 14.8808 35.3529 15.1686C35.1182 15.4082 35.1465 16.0073 35.6885 16.1113C35.8597 15.8813 36.2022 15.5732 36.4519 15.4832L36.4519 15.4831ZM36.1907 15.1449C35.8586 14.872 35.425 15.4292 35.8743 15.9074L36.1907 15.1449ZM30.2645 16.7288C30.4729 16.6697 30.7877 16.7627 31.2743 16.9706C31.5807 17.1016 32.4924 17.3698 33.0358 17.045C32.4695 17.2814 31.9801 16.4072 31.5478 16.5313C31.1156 16.6553 30.323 16.8514 29.9669 16.5392C30.7938 16.5606 31.1988 15.8798 32.1737 16.4176C32.4462 16.5677 32.7854 16.6617 33.0823 16.6323C32.2567 15.7177 31.2746 16.3633 31.1252 15.601C31.6191 16.0909 32.7184 15.4229 33.3519 16.3539L30.2645 16.7288Z" stroke="black" stroke-width="0.0285386"/>
<path d="M37.2438 14.5273C37.0411 14.3262 36.6273 14.5057 36.765 14.9223C36.8483 14.724 37.0383 14.5527 37.2438 14.5273ZM36.1021 15.7066C36.2306 15.6042 36.3641 15.5192 36.4781 15.4786C36.4077 15.3233 36.3111 15.2077 36.2021 15.1285C36.0985 15.0622 35.8279 15.4646 36.1021 15.7066Z" fill="black"/>
<path d="M34.0287 15.286C33.6849 15.2379 33.4028 15.3468 33.5933 15.4632M35.5254 15.0123C35.1986 14.8127 34.9118 14.8421 34.8263 15.0229C34.5991 15.0232 34.4215 15.1989 34.4327 15.5354L35.5254 15.0123ZM34.9255 15.6574C34.5349 15.4116 34.0258 15.5297 34.0956 16.1122L34.9255 15.6574ZM33.8885 16.4529C34.0627 16.295 34.3181 16.1784 34.5347 16.4356L33.8885 16.4529ZM36.6551 15.7648C36.5911 15.8648 36.5477 16.0174 36.6748 16.2428C36.5241 16.0627 36.1753 16.0768 35.8294 16.5873L36.6551 15.7648ZM37.4822 15.7048C37.0318 15.7763 37.0585 16.0767 37.4326 16.1946L37.4822 15.7048ZM34.1873 14.7117C33.7987 14.6476 33.5333 14.8889 34.0771 15.062L34.1873 14.7117ZM34.9043 14.4167C34.3553 14.3058 34.1456 14.4562 34.3973 14.5702L34.9043 14.4167ZM33.4736 16.6828C33.4678 16.8782 33.5876 17.1304 33.8843 16.8258L33.4736 16.6828ZM33.6135 17.2621C33.6166 17.3152 33.6115 17.3775 33.5791 17.4231L33.6135 17.2621ZM32.2022 14.721C31.8649 14.6371 31.7855 14.3299 32.171 14.341L32.2022 14.721ZM32.1317 15.4421C31.7577 15.3331 31.7361 14.9704 32.0435 14.9934L32.1317 15.4421ZM32.8013 15.2288C32.3675 15.14 32.3322 14.8399 32.6578 14.8711L32.8013 15.2288ZM32.7985 14.3069C32.5708 14.2983 32.2369 14.569 32.8306 14.6957L32.7985 14.3069ZM33.4665 14.7943C32.9295 14.7362 32.9515 14.957 33.2737 15.0859L33.4665 14.7943ZM33.8369 14.2648C33.4221 14.2018 33.2973 14.4552 33.5827 14.55L33.8369 14.2648ZM32.6371 15.8475C32.5317 15.7675 32.425 15.3683 32.9117 15.4684L32.6371 15.8475ZM33.6243 15.6836C33.2963 15.6082 33.0099 15.939 33.3175 16.1127L33.6243 15.6836Z" stroke="black" stroke-width="0.0285386" stroke-linecap="round"/>
<path d="M37.228 14.5276C37.0366 14.5708 36.8689 14.6918 36.7672 14.9222L37.228 14.5276Z" fill="white"/>
<path d="M37.228 14.5276C37.0366 14.5708 36.8689 14.6918 36.7672 14.9222" stroke="black" stroke-width="0.0285386"/>
</g>
</svg>
