<svg width="54" height="48" viewBox="0 0 54 48" fill="none" xmlns="http://www.w3.org/2000/svg">
<mask id="mask0_1_32499" style="mask-type:alpha" maskUnits="userSpaceOnUse" x="3" y="6" width="48" height="36">
<path d="M3.56934 15.1356C4.16681 10.4125 8.0415 7.00193 12.7861 6.60887C16.6412 6.28949 21.6196 6 27 6C32.3804 6 37.3588 6.28949 41.2139 6.60887C45.9585 7.00193 49.8332 10.4125 50.4307 15.1356C50.752 17.6759 51 20.704 51 24C51 27.296 50.752 30.3241 50.4307 32.8644C49.8332 37.5875 45.9585 40.9981 41.2139 41.3911C37.3588 41.7105 32.3804 42 27 42C21.6196 42 16.6412 41.7105 12.7861 41.3911C8.0415 40.9981 4.16681 37.5875 3.56934 32.8644C3.248 30.3241 3 27.296 3 24C3 20.704 3.248 17.6759 3.56934 15.1356Z" fill="#00D0BF"/>
</mask>
<g mask="url(#mask0_1_32499)">
<rect x="3" width="13" height="49" fill="#EE5757"/>
<rect x="16" width="22" height="49" fill="#F5F5F5"/>
<path d="M27.4355 34.0417L27.2177 29.8659C27.2146 29.7972 27.2269 29.7287 27.2537 29.6654C27.2805 29.6021 27.3212 29.5456 27.3727 29.5001C27.4242 29.4546 27.4853 29.4213 27.5514 29.4025C27.6176 29.3837 27.6871 29.38 27.7548 29.3917L31.9113 30.1223L31.35 28.5739C31.3272 28.5123 31.3243 28.4451 31.3417 28.3818C31.359 28.3184 31.3958 28.2621 31.4468 28.2207L36 24.5336L34.9742 24.0546C34.9049 24.0219 34.85 23.9649 34.8197 23.8946C34.7894 23.8242 34.7858 23.7452 34.8097 23.6723L35.7097 20.9046L33.0871 21.461C33.016 21.4759 32.9421 21.4656 32.8777 21.4321C32.8133 21.3986 32.7625 21.3439 32.7339 21.2772L32.2258 20.082L30.179 22.2788C30.1322 22.3281 30.0707 22.361 30.0036 22.3724C29.9366 22.3839 29.8676 22.3732 29.8071 22.3422C29.7466 22.3111 29.6978 22.2613 29.668 22.2001C29.6382 22.1389 29.6291 22.0698 29.6419 22.003L30.629 16.9127L29.0468 17.8272C29.0096 17.8489 28.9684 17.8629 28.9257 17.868C28.8829 17.8732 28.8396 17.8696 28.7983 17.8573C28.757 17.8451 28.7187 17.8245 28.6857 17.7968C28.6527 17.7692 28.6257 17.735 28.6065 17.6965L27 14.5417L25.3935 17.6965C25.3743 17.735 25.3473 17.7692 25.3143 17.7968C25.2813 17.8245 25.243 17.8451 25.2017 17.8573C25.1604 17.8696 25.1171 17.8732 25.0743 17.868C25.0316 17.8629 24.9904 17.8489 24.9532 17.8272L23.371 16.9127L24.3581 22.003C24.3709 22.0698 24.3618 22.1389 24.332 22.2001C24.3022 22.2613 24.2534 22.3111 24.1929 22.3422C24.1324 22.3732 24.0634 22.3839 23.9964 22.3724C23.9293 22.361 23.8678 22.3281 23.821 22.2788L21.7742 20.082L21.2661 21.2772C21.2375 21.3439 21.1867 21.3986 21.1223 21.4321C21.0579 21.4656 20.984 21.4759 20.9129 21.461L18.2903 20.9046L19.1903 23.6723C19.2142 23.7452 19.2106 23.8242 19.1803 23.8946C19.15 23.9649 19.0951 24.0219 19.0258 24.0546L18 24.5336L22.5532 28.2207C22.6042 28.2621 22.641 28.3184 22.6583 28.3818C22.6757 28.4451 22.6728 28.5123 22.65 28.5739L22.0887 30.1223L26.2452 29.3917C26.3129 29.38 26.3824 29.3837 26.4486 29.4025C26.5147 29.4213 26.5758 29.4546 26.6273 29.5001C26.6788 29.5456 26.7195 29.6021 26.7463 29.6654C26.7731 29.7287 26.7854 29.7972 26.7823 29.8659L26.5645 34.0417H27.4355Z" fill="#EE5757"/>
<rect x="38" width="13" height="49" fill="#EE5757"/>
</g>
</svg>
