<svg width="54" height="54" viewBox="0 0 54 54" fill="none" xmlns="http://www.w3.org/2000/svg">
<mask id="mask0_1_32499" style="mask-type:alpha" maskUnits="userSpaceOnUse" x="3" y="9" width="48" height="36">
<path d="M3.56934 18.1356C4.16681 13.4125 8.0415 10.0019 12.7861 9.60887C16.6412 9.28949 21.6196 9 27 9C32.3804 9 37.3588 9.28949 41.2139 9.60887C45.9585 10.0019 49.8332 13.4125 50.4307 18.1356C50.752 20.6759 51 23.704 51 27C51 30.296 50.752 33.3241 50.4307 35.8644C49.8332 40.5875 45.9585 43.9981 41.2139 44.3911C37.3588 44.7105 32.3804 45 27 45C21.6196 45 16.6412 44.7105 12.7861 44.3911C8.04151 43.9981 4.16681 40.5875 3.56934 35.8644C3.248 33.3241 3 30.296 3 27C3 23.704 3.248 20.6759 3.56934 18.1356Z" fill="#00D0BF"/>
</mask>
<g mask="url(#mask0_1_32499)">
<rect x="3" y="3" width="13" height="49" fill="#EE5757"/>
<rect x="16" y="3" width="22" height="49" fill="#F5F5F5"/>
<path d="M27.4355 37.0417L27.2177 32.8659C27.2146 32.7972 27.2269 32.7287 27.2537 32.6654C27.2805 32.6021 27.3212 32.5456 27.3727 32.5001C27.4242 32.4546 27.4853 32.4213 27.5514 32.4025C27.6176 32.3837 27.6871 32.38 27.7548 32.3917L31.9113 33.1223L31.35 31.5739C31.3272 31.5123 31.3243 31.4451 31.3417 31.3818C31.359 31.3184 31.3958 31.2621 31.4468 31.2207L36 27.5336L34.9742 27.0546C34.9049 27.0219 34.85 26.9649 34.8197 26.8946C34.7894 26.8242 34.7858 26.7452 34.8097 26.6723L35.7097 23.9046L33.0871 24.461C33.016 24.4759 32.9421 24.4656 32.8777 24.4321C32.8133 24.3986 32.7625 24.3439 32.7339 24.2772L32.2258 23.082L30.179 25.2788C30.1322 25.3281 30.0707 25.361 30.0036 25.3724C29.9366 25.3839 29.8676 25.3732 29.8071 25.3422C29.7466 25.3111 29.6978 25.2613 29.668 25.2001C29.6382 25.1389 29.6291 25.0698 29.6419 25.003L30.629 19.9127L29.0468 20.8272C29.0096 20.8489 28.9684 20.8629 28.9257 20.868C28.8829 20.8732 28.8396 20.8696 28.7983 20.8573C28.757 20.8451 28.7187 20.8245 28.6857 20.7968C28.6527 20.7692 28.6257 20.735 28.6065 20.6965L27 17.5417L25.3935 20.6965C25.3743 20.735 25.3473 20.7692 25.3143 20.7968C25.2813 20.8245 25.243 20.8451 25.2017 20.8573C25.1604 20.8696 25.1171 20.8732 25.0743 20.868C25.0316 20.8629 24.9904 20.8489 24.9532 20.8272L23.371 19.9127L24.3581 25.003C24.3709 25.0698 24.3618 25.1389 24.332 25.2001C24.3022 25.2613 24.2534 25.3111 24.1929 25.3422C24.1324 25.3732 24.0634 25.3839 23.9964 25.3724C23.9293 25.361 23.8678 25.3281 23.821 25.2788L21.7742 23.082L21.2661 24.2772C21.2375 24.3439 21.1867 24.3986 21.1223 24.4321C21.0579 24.4656 20.984 24.4759 20.9129 24.461L18.2903 23.9046L19.1903 26.6723C19.2142 26.7452 19.2106 26.8242 19.1803 26.8946C19.15 26.9649 19.0951 27.0219 19.0258 27.0546L18 27.5336L22.5532 31.2207C22.6042 31.2621 22.641 31.3184 22.6583 31.3818C22.6757 31.4451 22.6728 31.5123 22.65 31.5739L22.0887 33.1223L26.2452 32.3917C26.3129 32.38 26.3824 32.3837 26.4486 32.4025C26.5147 32.4213 26.5758 32.4546 26.6273 32.5001C26.6788 32.5456 26.7195 32.6021 26.7463 32.6654C26.7731 32.7287 26.7854 32.7972 26.7823 32.8659L26.5645 37.0417H27.4355Z" fill="#EE5757"/>
<rect x="38" y="3" width="13" height="49" fill="#EE5757"/>
</g>
</svg>
