<svg width="54" height="48" viewBox="0 0 54 48" fill="none" xmlns="http://www.w3.org/2000/svg">
<mask id="mask0_1_34325" style="mask-type:alpha" maskUnits="userSpaceOnUse" x="3" y="6" width="48" height="36">
<path d="M3.56934 15.1356C4.16681 10.4125 8.0415 7.00193 12.7861 6.60887C16.6412 6.28949 21.6196 6 27 6C32.3804 6 37.3588 6.28949 41.2139 6.60887C45.9585 7.00193 49.8332 10.4125 50.4307 15.1356C50.752 17.6759 51 20.704 51 24C51 27.296 50.752 30.3241 50.4307 32.8644C49.8332 37.5875 45.9585 40.9981 41.2139 41.3911C37.3588 41.7105 32.3804 42 27 42C21.6196 42 16.6412 41.7105 12.7861 41.3911C8.0415 40.9981 4.16681 37.5875 3.56934 32.8644C3.248 30.3241 3 27.296 3 24C3 20.704 3.248 17.6759 3.56934 15.1356Z" fill="#00D0BF"/>
</mask>
<g mask="url(#mask0_1_34325)">
<rect x="3" width="48" height="49" fill="#59C785"/>
<path fill-rule="evenodd" clip-rule="evenodd" d="M32 28.6062C30.8932 29.6145 29.4215 30.2293 27.8062 30.2293C24.3659 30.2293 21.5769 27.4403 21.5769 24C21.5769 20.5596 24.3659 17.7706 27.8062 17.7706C29.4215 17.7706 30.8932 18.3854 32 19.3937C31.3204 19.0609 30.5563 18.8741 29.7486 18.8741C26.9177 18.8741 24.6228 21.169 24.6228 24C24.6228 26.8309 26.9177 29.1258 29.7486 29.1258C30.5563 29.1258 31.3204 28.939 32 28.6062Z" fill="#FCD95E"/>
<path d="M13 21C15.7614 21 18 18.7614 18 16C18 13.2386 15.7614 11 13 11C10.2386 11 8 13.2386 8 16C8 18.7614 10.2386 21 13 21Z" fill="#FCD95E"/>
<path d="M12.655 19.77H13.9035C13.9035 19.77 13.9599 19.6556 13.891 19.5983C13.822 19.5411 13.5536 19.5285 13.6261 19.3261C13.7752 18.91 13.796 19.0383 13.8897 18.0499C13.9833 17.0615 14.0284 15.5113 14.0284 15.5113H13.848C13.848 15.5113 13.8827 15.9933 13.7787 16.6211C13.6746 17.2488 13.6434 17.3042 13.529 17.7863C13.4145 18.2683 13.3972 18.31 13.2932 18.5909C13.1891 18.8718 13.1787 18.8857 13.0157 19.1457C12.8527 19.4058 12.9117 19.3087 12.8215 19.4648C12.7764 19.5428 12.7209 19.522 12.6906 19.5788C12.6602 19.6356 12.655 19.77 12.655 19.77L12.655 19.77Z" fill="#802000" stroke="#7B3100" stroke-width="0.106059"/>
<path d="M13.6077 12.3573C13.6181 12.5512 13.5986 12.8079 13.5182 13.0168C13.4367 13.2496 13.3481 13.4817 13.3525 13.7228C13.2229 13.7669 13.0894 13.4424 12.9647 13.6333C13.0584 13.897 13.2749 14.1058 13.4232 14.3434C13.4482 14.4171 13.6615 14.6094 13.5381 14.6541C13.2265 14.5475 13.151 14.1527 12.9577 13.913C12.7332 13.5095 12.3148 13.2244 11.8486 13.2047C11.6735 13.2093 11.1042 13.1613 11.2523 13.4612C11.4705 13.6095 11.7393 13.7062 11.9547 13.8727C12.1152 13.8877 12.4061 14.1556 12.3892 14.2569C12.1069 14.1425 11.9747 14.0055 11.6706 13.8852C11.2585 13.7261 10.6885 13.8218 10.4604 14.2308C10.4178 14.3373 10.3551 14.6477 10.4888 14.6773C10.6451 14.4333 10.8687 14.1605 11.1999 14.2337C11.4601 14.254 10.9096 14.7184 11.1202 14.625C11.1869 14.5954 11.341 14.4942 11.4479 14.4836C11.5548 14.4731 11.6145 14.5531 11.6957 14.5642C11.8579 14.5863 11.9025 14.6543 11.8875 14.6939C11.8698 14.7406 11.8182 14.7007 11.6533 14.753C11.5709 14.7791 11.5278 14.8516 11.4316 14.8848C11.3354 14.9179 11.1354 14.9203 11.0606 14.8909C10.799 14.7773 10.3702 14.797 10.2887 15.1248C10.2886 15.269 10.1603 15.1089 10.101 15.1712C10.0566 15.3285 10.0451 15.49 9.81179 15.4757C9.67018 15.6242 9.52516 15.7781 9.34534 15.8838C9.45086 16.126 9.86897 15.6405 9.84943 15.8452C9.66665 16.0944 9.94347 16.1469 10.0646 15.9551C10.2696 15.7385 10.5234 15.4749 10.8292 15.6932C10.9749 15.8303 11.0595 15.6206 11.165 15.6319C11.2314 15.8022 11.3149 15.6403 11.3903 15.5921C11.5137 15.5767 11.479 15.7462 11.6257 15.6418C11.9179 15.4484 12.2774 15.6109 12.5629 15.4227C12.8668 15.2843 12.6056 15.5343 12.5217 15.632C12.3882 15.8909 12.504 16.2309 12.2144 16.3917C12.0981 16.7003 12.3518 17.1071 12.093 17.3355C12.0553 17.4786 12.4259 17.4622 12.5299 17.5211C12.7121 17.5283 12.522 17.104 12.7028 17.0471C12.9453 17.1972 12.934 16.7787 12.8839 16.6496C12.9074 16.3562 12.924 16.0354 13.0698 15.7696C13.2248 15.4439 13.3682 15.9023 13.1947 16.0312C13.0962 16.3308 12.9527 16.7056 13.1768 16.9842C13.2414 16.9986 13.2944 17.1552 13.3781 17.2033C13.4617 17.2514 13.5759 17.1911 13.5968 17.0487C13.7041 16.6197 13.65 16.1584 13.8032 15.7412C13.9113 15.612 14.0605 15.7204 14.1276 15.8392C14.3422 16.0885 14.4931 16.4001 14.7531 16.6054C14.9897 16.7162 15.199 16.8837 15.3081 17.1273C15.3066 17.3153 15.8419 17.3441 15.682 17.1351C15.5285 16.9317 15.6297 16.7283 15.7852 16.593C15.8685 16.6136 15.8439 16.4645 15.7786 16.5234C15.6741 16.4988 15.6674 16.3075 15.8127 16.3984C16.0574 16.4774 15.7936 16.2213 15.7051 16.2135C15.4982 16.0852 15.2605 15.9377 15.1588 15.7147C15.4281 15.7175 15.7077 15.8628 15.983 15.7726C16.2036 15.6593 16.4274 15.7821 16.5044 15.9766C16.675 15.9494 16.6022 15.7783 16.5044 15.7214C16.6291 15.6699 16.7154 15.5632 16.5642 15.469C16.4843 15.3648 16.6713 15.187 16.4414 15.1944C16.4489 15.0188 16.3798 14.8581 16.1884 14.7975C15.9967 14.6351 15.4341 15.0367 15.4504 14.6707C15.3937 14.4715 15.679 14.6441 15.7587 14.5448C15.841 14.3348 15.3662 14.3553 15.5229 14.1925C15.6252 14.1266 16.1054 14.032 15.7288 13.9615C15.5409 14.0131 15.3796 13.9749 15.2317 13.8819C15.0969 14.1073 14.712 13.7594 14.7806 14.1603C14.7279 14.3113 14.3838 14.7038 14.2907 14.4031C14.3699 14.1675 14.7776 14.0904 14.6511 13.7727C14.6317 13.5743 14.4673 13.8072 14.3898 13.7924C14.3506 13.6689 14.5085 13.5234 14.6185 13.4941C14.8369 13.662 14.8435 13.2822 15.0511 13.3131C15.2028 13.2794 15.0022 13.2144 14.9599 13.1858C15.0015 13.0749 15.2342 13.0182 15.006 12.9218C14.8046 12.7724 14.6553 13.0705 14.4892 13.0864C14.3298 12.9064 14.634 12.8199 14.7179 12.7251C14.7225 12.6545 14.5406 12.7038 14.5953 12.6423C14.6428 12.5573 14.9649 12.551 14.8141 12.4235C14.5869 12.3456 14.2939 12.365 14.076 12.466C13.9387 12.5105 13.8983 12.8209 13.78 12.808C13.7243 12.6698 13.7981 12.3972 13.6076 12.3572L13.6077 12.3573ZM14.6816 15.39C14.8546 15.3607 14.6852 15.6528 14.602 15.6485C14.6094 15.5435 14.3517 15.5536 14.5116 15.4622C14.5634 15.4287 14.6212 15.4032 14.6816 15.39Z" fill="#008000"/>
<path d="M41.1913 17.1306L40.5033 16.4866L39.807 17.1216L39.8816 16.1825L38.9509 16.034L39.7319 15.5066L39.2676 14.6866L40.167 14.9682L40.5186 14.0939L40.8591 14.9727L41.762 14.7026L41.2872 15.5165L42.0613 16.0539L41.1288 16.1905L41.1913 17.1306L41.1913 17.1306Z" fill="#FCD95E"/>
<path d="M37.2403 24.0447L36.5523 23.4007L35.8561 24.0358L35.9307 23.0966L35 22.9481L35.781 22.4207L35.3167 21.6007L36.216 21.8824L36.5677 21.0081L36.9082 21.8868L37.8111 21.6167L37.3362 22.4307L38.1104 22.968L37.1779 23.1046L37.2404 24.0447L37.2403 24.0447Z" fill="#FCD95E"/>
<path d="M43.1667 32.9343L42.4787 32.2903L41.7825 32.9253L41.8571 31.9862L40.9264 31.8377L41.7074 31.3103L41.2431 30.4903L42.1424 30.772L42.4941 29.8976L42.8346 30.7764L43.7375 30.5063L43.2626 31.3203L44.0368 31.8576L43.1043 31.9942L43.1668 32.9343L43.1667 32.9343Z" fill="#FCD95E"/>
<path d="M46.13 20.0938L45.442 19.4498L44.7457 20.0848L44.8203 19.1457L43.8896 18.9972L44.6707 18.4698L44.2063 17.6498L45.1057 17.9314L45.4574 17.0571L45.7978 17.9359L46.7007 17.6657L46.2259 18.4797L47.0001 19.0171L46.0675 19.1537L46.13 20.0938L46.13 20.0938Z" fill="#FCD95E"/>
<path d="M43.6318 24.9321L42.8897 24.4375L42.1672 24.959L42.4214 24.119L41.6886 23.6109L42.5879 23.5869L42.857 22.7508L43.1589 23.5763L44.0582 23.5679L43.3454 24.1022L43.6318 24.9321L43.6318 24.9321Z" fill="#FCD95E"/>
</g>
</svg>
