<svg width="54" height="54" viewBox="0 0 54 54" fill="none" xmlns="http://www.w3.org/2000/svg">
<mask id="mask0_1_34325" style="mask-type:alpha" maskUnits="userSpaceOnUse" x="3" y="9" width="48" height="36">
<path d="M3.56934 18.1356C4.16681 13.4125 8.0415 10.0019 12.7861 9.60887C16.6412 9.28949 21.6196 9 27 9C32.3804 9 37.3588 9.28949 41.2139 9.60887C45.9585 10.0019 49.8332 13.4125 50.4307 18.1356C50.752 20.6759 51 23.704 51 27C51 30.296 50.752 33.3241 50.4307 35.8644C49.8332 40.5875 45.9585 43.9981 41.2139 44.3911C37.3588 44.7105 32.3804 45 27 45C21.6196 45 16.6412 44.7105 12.7861 44.3911C8.04151 43.9981 4.16681 40.5875 3.56934 35.8644C3.248 33.3241 3 30.296 3 27C3 23.704 3.248 20.6759 3.56934 18.1356Z" fill="#00D0BF"/>
</mask>
<g mask="url(#mask0_1_34325)">
<rect x="3" y="3" width="48" height="49" fill="#59C785"/>
<path fill-rule="evenodd" clip-rule="evenodd" d="M32 31.6062C30.8932 32.6145 29.4215 33.2293 27.8062 33.2293C24.3659 33.2293 21.5769 30.4403 21.5769 27C21.5769 23.5596 24.3659 20.7706 27.8062 20.7706C29.4215 20.7706 30.8932 21.3854 32 22.3937C31.3204 22.0609 30.5563 21.8741 29.7486 21.8741C26.9177 21.8741 24.6228 24.169 24.6228 27C24.6228 29.8309 26.9177 32.1258 29.7486 32.1258C30.5564 32.1258 31.3204 31.939 32 31.6062Z" fill="#FCD95E"/>
<path d="M13 24C15.7614 24 18 21.7614 18 19C18 16.2386 15.7614 14 13 14C10.2386 14 8 16.2386 8 19C8 21.7614 10.2386 24 13 24Z" fill="#FCD95E"/>
<path d="M12.655 22.77H13.9035C13.9035 22.77 13.9599 22.6556 13.891 22.5983C13.822 22.5411 13.5536 22.5285 13.6261 22.3261C13.7752 21.91 13.796 22.0383 13.8897 21.0499C13.9833 20.0615 14.0284 18.5113 14.0284 18.5113H13.848C13.848 18.5113 13.8827 18.9933 13.7787 19.6211C13.6746 20.2488 13.6434 20.3042 13.529 20.7863C13.4145 21.2683 13.3972 21.31 13.2932 21.5909C13.1891 21.8718 13.1787 21.8857 13.0157 22.1457C12.8527 22.4058 12.9117 22.3087 12.8215 22.4648C12.7764 22.5428 12.7209 22.522 12.6906 22.5788C12.6602 22.6356 12.655 22.77 12.655 22.77L12.655 22.77Z" fill="#802000" stroke="#7B3100" stroke-width="0.106059"/>
<path d="M13.6077 15.3573C13.6181 15.5512 13.5986 15.8079 13.5182 16.0168C13.4367 16.2496 13.3481 16.4817 13.3525 16.7228C13.2229 16.7669 13.0894 16.4424 12.9647 16.6333C13.0584 16.897 13.2749 17.1058 13.4232 17.3434C13.4482 17.4171 13.6615 17.6094 13.5381 17.6541C13.2265 17.5475 13.151 17.1527 12.9577 16.913C12.7332 16.5095 12.3148 16.2244 11.8486 16.2047C11.6735 16.2093 11.1042 16.1613 11.2523 16.4612C11.4705 16.6095 11.7393 16.7062 11.9547 16.8727C12.1152 16.8877 12.4061 17.1556 12.3892 17.2569C12.1069 17.1425 11.9747 17.0055 11.6706 16.8852C11.2585 16.7261 10.6885 16.8218 10.4604 17.2308C10.4178 17.3373 10.3551 17.6477 10.4888 17.6773C10.6451 17.4333 10.8687 17.1605 11.1999 17.2337C11.4601 17.254 10.9096 17.7184 11.1202 17.625C11.1869 17.5954 11.341 17.4942 11.4479 17.4836C11.5548 17.4731 11.6145 17.5531 11.6957 17.5642C11.8579 17.5863 11.9025 17.6543 11.8875 17.6939C11.8698 17.7406 11.8182 17.7007 11.6533 17.753C11.5709 17.7791 11.5278 17.8516 11.4316 17.8848C11.3354 17.9179 11.1354 17.9203 11.0606 17.8909C10.799 17.7773 10.3702 17.797 10.2887 18.1248C10.2886 18.269 10.1603 18.1089 10.101 18.1712C10.0566 18.3285 10.0451 18.49 9.81179 18.4757C9.67018 18.6242 9.52516 18.7781 9.34534 18.8838C9.45086 19.126 9.86897 18.6405 9.84943 18.8452C9.66665 19.0944 9.94347 19.1469 10.0646 18.9551C10.2696 18.7385 10.5234 18.4749 10.8292 18.6932C10.9749 18.8303 11.0595 18.6206 11.165 18.6319C11.2314 18.8022 11.3149 18.6403 11.3903 18.5921C11.5137 18.5767 11.479 18.7462 11.6257 18.6418C11.9179 18.4484 12.2774 18.6109 12.5629 18.4227C12.8668 18.2843 12.6056 18.5343 12.5217 18.632C12.3882 18.8909 12.504 19.2309 12.2144 19.3917C12.0981 19.7003 12.3518 20.1071 12.093 20.3355C12.0553 20.4786 12.4259 20.4622 12.5299 20.5211C12.7121 20.5283 12.522 20.104 12.7028 20.0471C12.9453 20.1972 12.934 19.7787 12.8839 19.6496C12.9074 19.3562 12.924 19.0354 13.0698 18.7696C13.2248 18.4439 13.3682 18.9023 13.1947 19.0312C13.0962 19.3308 12.9527 19.7056 13.1768 19.9842C13.2414 19.9986 13.2944 20.1552 13.3781 20.2033C13.4617 20.2514 13.5759 20.1911 13.5968 20.0487C13.7041 19.6197 13.65 19.1584 13.8032 18.7412C13.9113 18.612 14.0605 18.7204 14.1276 18.8392C14.3422 19.0885 14.4931 19.4001 14.7531 19.6054C14.9897 19.7162 15.199 19.8837 15.3081 20.1273C15.3066 20.3153 15.8419 20.3441 15.682 20.1351C15.5285 19.9317 15.6297 19.7283 15.7852 19.593C15.8685 19.6136 15.8439 19.4645 15.7786 19.5234C15.6741 19.4988 15.6674 19.3075 15.8127 19.3984C16.0574 19.4774 15.7936 19.2213 15.7051 19.2135C15.4982 19.0852 15.2605 18.9377 15.1588 18.7147C15.4281 18.7175 15.7077 18.8628 15.983 18.7726C16.2036 18.6593 16.4274 18.7821 16.5044 18.9766C16.675 18.9494 16.6022 18.7783 16.5044 18.7214C16.6291 18.6699 16.7154 18.5632 16.5642 18.469C16.4843 18.3648 16.6713 18.187 16.4414 18.1944C16.4489 18.0188 16.3798 17.8581 16.1884 17.7975C15.9967 17.6351 15.4341 18.0367 15.4504 17.6707C15.3937 17.4715 15.679 17.6441 15.7587 17.5448C15.841 17.3348 15.3662 17.3553 15.5229 17.1925C15.6252 17.1266 16.1054 17.032 15.7288 16.9615C15.5409 17.0131 15.3796 16.9749 15.2317 16.8819C15.0969 17.1073 14.712 16.7594 14.7806 17.1603C14.7279 17.3113 14.3838 17.7038 14.2907 17.4031C14.3699 17.1675 14.7776 17.0904 14.6511 16.7727C14.6317 16.5743 14.4673 16.8072 14.3898 16.7924C14.3506 16.6689 14.5085 16.5234 14.6185 16.4941C14.8369 16.662 14.8435 16.2822 15.0511 16.3131C15.2028 16.2794 15.0022 16.2144 14.9599 16.1858C15.0015 16.0749 15.2342 16.0182 15.006 15.9218C14.8046 15.7724 14.6553 16.0705 14.4892 16.0864C14.3298 15.9064 14.634 15.8199 14.7179 15.7251C14.7225 15.6545 14.5406 15.7038 14.5953 15.6423C14.6428 15.5573 14.9649 15.551 14.8141 15.4235C14.5869 15.3456 14.2939 15.365 14.076 15.466C13.9387 15.5105 13.8983 15.8209 13.78 15.808C13.7243 15.6698 13.7981 15.3972 13.6076 15.3572L13.6077 15.3573ZM14.6816 18.39C14.8546 18.3607 14.6852 18.6528 14.602 18.6485C14.6094 18.5435 14.3517 18.5536 14.5116 18.4622C14.5634 18.4287 14.6212 18.4032 14.6816 18.39Z" fill="#008000"/>
<path d="M41.1913 20.1306L40.5033 19.4866L39.807 20.1216L39.8816 19.1825L38.9509 19.034L39.7319 18.5066L39.2676 17.6866L40.167 17.9682L40.5186 17.0939L40.8591 17.9727L41.762 17.7026L41.2872 18.5165L42.0613 19.0539L41.1288 19.1905L41.1913 20.1306L41.1913 20.1306Z" fill="#FCD95E"/>
<path d="M37.2403 27.0447L36.5523 26.4007L35.8561 27.0358L35.9307 26.0966L35 25.9481L35.781 25.4207L35.3167 24.6007L36.216 24.8824L36.5677 24.0081L36.9082 24.8868L37.8111 24.6167L37.3362 25.4307L38.1104 25.968L37.1779 26.1046L37.2404 27.0447L37.2403 27.0447Z" fill="#FCD95E"/>
<path d="M43.1667 35.9343L42.4787 35.2903L41.7825 35.9253L41.8571 34.9862L40.9264 34.8377L41.7074 34.3103L41.2431 33.4903L42.1424 33.772L42.4941 32.8976L42.8346 33.7764L43.7375 33.5063L43.2626 34.3203L44.0368 34.8576L43.1043 34.9942L43.1668 35.9343L43.1667 35.9343Z" fill="#FCD95E"/>
<path d="M46.13 23.0938L45.442 22.4498L44.7457 23.0848L44.8203 22.1457L43.8896 21.9972L44.6707 21.4698L44.2063 20.6498L45.1057 20.9314L45.4574 20.0571L45.7978 20.9359L46.7007 20.6657L46.2259 21.4797L47.0001 22.0171L46.0675 22.1537L46.13 23.0938L46.13 23.0938Z" fill="#FCD95E"/>
<path d="M43.6318 27.9321L42.8897 27.4375L42.1672 27.959L42.4214 27.119L41.6886 26.6109L42.5879 26.5869L42.857 25.7508L43.1589 26.5763L44.0582 26.5679L43.3454 27.1022L43.6318 27.9321L43.6318 27.9321Z" fill="#FCD95E"/>
</g>
</svg>
