<svg width="54" height="54" viewBox="0 0 54 54" fill="none" xmlns="http://www.w3.org/2000/svg">
<mask id="mask0_1_28968" style="mask-type:alpha" maskUnits="userSpaceOnUse" x="3" y="9" width="48" height="36">
<path d="M3.56934 18.1356C4.16681 13.4125 8.0415 10.0019 12.7861 9.60887C16.6412 9.28949 21.6196 9 27 9C32.3804 9 37.3588 9.28949 41.2139 9.60887C45.9585 10.0019 49.8332 13.4125 50.4307 18.1356C50.752 20.6759 51 23.704 51 27C51 30.296 50.752 33.3241 50.4307 35.8644C49.8332 40.5875 45.9585 43.9981 41.2139 44.3911C37.3588 44.7105 32.3804 45 27 45C21.6196 45 16.6412 44.7105 12.7861 44.3911C8.04151 43.9981 4.16681 40.5875 3.56934 35.8644C3.248 33.3241 3 30.296 3 27C3 23.704 3.248 20.6759 3.56934 18.1356Z" fill="#00D0BF"/>
</mask>
<g mask="url(#mask0_1_28968)">
<rect x="51" y="45" width="48" height="36" transform="rotate(-180 51 45)" fill="#EE5757"/>
<path d="M13 13L14.3471 17.1459H18.7063L15.1796 19.7082L16.5267 23.8541L13 21.2918L9.47329 23.8541L10.8204 19.7082L7.29366 17.1459H11.6529L13 13Z" fill="#FCD95E"/>
<path d="M20.5 11L20.8368 12.0365H21.9266L21.0449 12.6771L21.3817 13.7135L20.5 13.0729L19.6183 13.7135L19.9551 12.6771L19.0734 12.0365H20.1632L20.5 11Z" fill="#FCD95E"/>
<path d="M20.5 23L20.8368 24.0365H21.9266L21.0449 24.6771L21.3817 25.7135L20.5 25.0729L19.6183 25.7135L19.9551 24.6771L19.0734 24.0365H20.1632L20.5 23Z" fill="#FCD95E"/>
<path d="M20.5 23L20.8368 24.0365H21.9266L21.0449 24.6771L21.3817 25.7135L20.5 25.0729L19.6183 25.7135L19.9551 24.6771L19.0734 24.0365H20.1632L20.5 23Z" fill="#FCD95E"/>
<path d="M24.5 19L24.8368 20.0365H25.9266L25.0449 20.6771L25.3817 21.7135L24.5 21.0729L23.6183 21.7135L23.9551 20.6771L23.0734 20.0365H24.1632L24.5 19Z" fill="#FCD95E"/>
<path d="M24.5 15L24.8368 16.0365H25.9266L25.0449 16.6771L25.3817 17.7135L24.5 17.0729L23.6183 17.7135L23.9551 16.6771L23.0734 16.0365H24.1632L24.5 15Z" fill="#FCD95E"/>
</g>
</svg>
