<svg width="54" height="48" viewBox="0 0 54 48" fill="none" xmlns="http://www.w3.org/2000/svg">
<mask id="mask0_1_28968" style="mask-type:alpha" maskUnits="userSpaceOnUse" x="3" y="6" width="48" height="36">
<path d="M3.56934 15.1356C4.16681 10.4125 8.0415 7.00193 12.7861 6.60887C16.6412 6.28949 21.6196 6 27 6C32.3804 6 37.3588 6.28949 41.2139 6.60887C45.9585 7.00193 49.8332 10.4125 50.4307 15.1356C50.752 17.6759 51 20.704 51 24C51 27.296 50.752 30.3241 50.4307 32.8644C49.8332 37.5875 45.9585 40.9981 41.2139 41.3911C37.3588 41.7105 32.3804 42 27 42C21.6196 42 16.6412 41.7105 12.7861 41.3911C8.0415 40.9981 4.16681 37.5875 3.56934 32.8644C3.248 30.3241 3 27.296 3 24C3 20.704 3.248 17.6759 3.56934 15.1356Z" fill="#00D0BF"/>
</mask>
<g mask="url(#mask0_1_28968)">
<rect x="51" y="42" width="48" height="36" transform="rotate(-180 51 42)" fill="#EE5757"/>
<path d="M13 10L14.3471 14.1459H18.7063L15.1796 16.7082L16.5267 20.8541L13 18.2918L9.47329 20.8541L10.8204 16.7082L7.29366 14.1459H11.6529L13 10Z" fill="#FCD95E"/>
<path d="M20.5 8L20.8368 9.03647H21.9266L21.0449 9.67705L21.3817 10.7135L20.5 10.0729L19.6183 10.7135L19.9551 9.67705L19.0734 9.03647H20.1632L20.5 8Z" fill="#FCD95E"/>
<path d="M20.5 20L20.8368 21.0365H21.9266L21.0449 21.6771L21.3817 22.7135L20.5 22.0729L19.6183 22.7135L19.9551 21.6771L19.0734 21.0365H20.1632L20.5 20Z" fill="#FCD95E"/>
<path d="M20.5 20L20.8368 21.0365H21.9266L21.0449 21.6771L21.3817 22.7135L20.5 22.0729L19.6183 22.7135L19.9551 21.6771L19.0734 21.0365H20.1632L20.5 20Z" fill="#FCD95E"/>
<path d="M24.5 16L24.8368 17.0365H25.9266L25.0449 17.6771L25.3817 18.7135L24.5 18.0729L23.6183 18.7135L23.9551 17.6771L23.0734 17.0365H24.1632L24.5 16Z" fill="#FCD95E"/>
<path d="M24.5 12L24.8368 13.0365H25.9266L25.0449 13.6771L25.3817 14.7135L24.5 14.0729L23.6183 14.7135L23.9551 13.6771L23.0734 13.0365H24.1632L24.5 12Z" fill="#FCD95E"/>
</g>
</svg>
