<svg width="54" height="54" viewBox="0 0 54 54" fill="none" xmlns="http://www.w3.org/2000/svg">
<mask id="mask0_1_40749" style="mask-type:alpha" maskUnits="userSpaceOnUse" x="3" y="9" width="48" height="36">
<path d="M3.56934 18.1356C4.16681 13.4125 8.0415 10.0019 12.7861 9.60887C16.6412 9.28949 21.6196 9 27 9C32.3804 9 37.3588 9.28949 41.2139 9.60887C45.9585 10.0019 49.8332 13.4125 50.4307 18.1356C50.752 20.6759 51 23.704 51 27C51 30.296 50.752 33.3241 50.4307 35.8644C49.8332 40.5875 45.9585 43.9981 41.2139 44.3911C37.3588 44.7105 32.3804 45 27 45C21.6196 45 16.6412 44.7105 12.7861 44.3911C8.04151 43.9981 4.16681 40.5875 3.56934 35.8644C3.248 33.3241 3 30.296 3 27C3 23.704 3.248 20.6759 3.56934 18.1356Z" fill="#00D0BF"/>
</mask>
<g mask="url(#mask0_1_40749)">
<rect x="3" y="9" width="48" height="36" fill="#2E50A6"/>
<mask id="mask1_1_40749" style="mask-type:alpha" maskUnits="userSpaceOnUse" x="3" y="9" width="24" height="18">
<rect x="3" y="9" width="24" height="18" fill="#C4C4C4"/>
</mask>
<g mask="url(#mask1_1_40749)">
<path d="M3 9L27 27L3 9ZM27 9L3 27Z" fill="black"/>
<path d="M27 9L3 27M3 9L27 27L3 9Z" stroke="white" stroke-width="2.4"/>
<path d="M3 9L27 27L3 9ZM27 9L3 27Z" fill="black"/>
<path d="M27 9L3 27M3 9L27 27L3 9Z" stroke="#EE5757" stroke-width="1.6"/>
<path d="M15 9V30V9ZM3 18H31Z" fill="black"/>
<path d="M3 18H31M15 9V30V9Z" stroke="white" stroke-width="4"/>
<path d="M15 9V30V9ZM3 18H31Z" fill="black"/>
<path d="M3 18H31M15 9V30V9Z" stroke="#EE5757" stroke-width="2.4"/>
</g>
</g>
<path d="M38.5 18L38.7726 18.8391H39.6548L38.9411 19.3576L39.2137 20.1967L38.5 19.6781L37.7863 20.1967L38.0589 19.3576L37.3451 18.8391H38.2274L38.5 18Z" fill="#F5F5F5"/>
<path d="M38.5 35L38.2274 34.1609L37.3452 34.1609L38.0589 33.6424L37.7863 32.8033L38.5 33.3219L39.2137 32.8033L38.9411 33.6424L39.6549 34.1609L38.7726 34.1609L38.5 35Z" fill="#F5F5F5"/>
<path d="M42.75 19.1388L42.5666 20.0017L43.3306 20.4428L42.4532 20.535L42.2698 21.398L41.911 20.592L41.0336 20.6843L41.6892 20.0939L41.3304 19.288L42.0944 19.7291L42.75 19.1388Z" fill="#F5F5F5"/>
<path d="M34.25 33.8612L34.4335 32.9983L33.6694 32.5571L34.5468 32.4649L34.7302 31.602L35.0891 32.4079L35.9665 32.3157L35.3109 32.906L35.6697 33.712L34.9057 33.2709L34.25 33.8612Z" fill="#F5F5F5"/>
<path d="M45.8612 22.25L45.2709 22.9056L45.712 23.6697L44.9061 23.3108L44.3157 23.9664L44.408 23.089L43.602 22.7302L44.4649 22.5468L44.5572 21.6694L44.9983 22.4334L45.8612 22.25Z" fill="#F5F5F5"/>
<path d="M31.1388 30.75L31.7291 30.0944L31.288 29.3303L32.0939 29.6892L32.6843 29.0336L32.592 29.911L33.398 30.2698L32.5351 30.4532L32.4428 31.3306L32.0017 30.5666L31.1388 30.75Z" fill="#F5F5F5"/>
<path d="M47 26.5L46.1609 26.7726L46.1609 27.6548L45.6424 26.9411L44.8033 27.2137L45.3219 26.5L44.8033 25.7863L45.6424 26.0589L46.1609 25.3451L46.1609 26.2274L47 26.5Z" fill="#F5F5F5"/>
<path d="M30 26.5L30.8391 26.2274L30.8391 25.3452L31.3576 26.0589L32.1967 25.7863L31.6781 26.5L32.1967 27.2137L31.3576 26.9411L30.8391 27.6549L30.8391 26.7726L30 26.5Z" fill="#F5F5F5"/>
<path d="M45.8612 30.75L44.9983 30.5666L44.5572 31.3306L44.465 30.4532L43.602 30.2698L44.408 29.9109L44.3157 29.0335L44.9061 29.6892L45.712 29.3303L45.2709 30.0944L45.8612 30.75Z" fill="#F5F5F5"/>
<path d="M31.1388 22.25L32.0017 22.4334L32.4428 21.6694L32.535 22.5468L33.398 22.7302L32.592 23.0891L32.6843 23.9665L32.0939 23.3108L31.288 23.6697L31.7291 22.9056L31.1388 22.25Z" fill="#F5F5F5"/>
<path d="M42.75 33.8612L42.0943 33.2709L41.3303 33.712L41.6891 32.906L41.0335 32.3157L41.9109 32.4079L42.2698 31.602L42.4532 32.4649L43.3306 32.5571L42.5665 32.9983L42.75 33.8612Z" fill="#F5F5F5"/>
<path d="M34.25 19.1388L34.9056 19.7291L35.6696 19.288L35.3108 20.094L35.9664 20.6843L35.089 20.5921L34.7302 21.398L34.5468 20.5351L33.6694 20.4429L34.4334 20.0017L34.25 19.1388Z" fill="#F5F5F5"/>
</svg>
