<svg width="54" height="48" viewBox="0 0 54 48" fill="none" xmlns="http://www.w3.org/2000/svg">
<mask id="mask0_1_40749" style="mask-type:alpha" maskUnits="userSpaceOnUse" x="3" y="6" width="48" height="36">
<path d="M3.56934 15.1356C4.16681 10.4125 8.0415 7.00193 12.7861 6.60887C16.6412 6.28949 21.6196 6 27 6C32.3804 6 37.3588 6.28949 41.2139 6.60887C45.9585 7.00193 49.8332 10.4125 50.4307 15.1356C50.752 17.6759 51 20.704 51 24C51 27.296 50.752 30.3241 50.4307 32.8644C49.8332 37.5875 45.9585 40.9981 41.2139 41.3911C37.3588 41.7105 32.3804 42 27 42C21.6196 42 16.6412 41.7105 12.7861 41.3911C8.0415 40.9981 4.16681 37.5875 3.56934 32.8644C3.248 30.3241 3 27.296 3 24C3 20.704 3.248 17.6759 3.56934 15.1356Z" fill="#00D0BF"/>
</mask>
<g mask="url(#mask0_1_40749)">
<rect x="3" y="6" width="48" height="36" fill="#2E50A6"/>
<mask id="mask1_1_40749" style="mask-type:alpha" maskUnits="userSpaceOnUse" x="3" y="6" width="24" height="18">
<rect x="3" y="6" width="24" height="18" fill="#C4C4C4"/>
</mask>
<g mask="url(#mask1_1_40749)">
<path d="M3 6L27 24L3 6ZM27 6L3 24L27 6Z" fill="black"/>
<path d="M27 6L3 24M3 6L27 24L3 6Z" stroke="white" stroke-width="2.4"/>
<path d="M3 6L27 24L3 6ZM27 6L3 24L27 6Z" fill="black"/>
<path d="M27 6L3 24M3 6L27 24L3 6Z" stroke="#EE5757" stroke-width="1.6"/>
<path d="M15 6V27V6ZM3 15H31H3Z" fill="black"/>
<path d="M3 15H31M15 6V27V6Z" stroke="white" stroke-width="4"/>
<path d="M15 6V27V6ZM3 15H31H3Z" fill="black"/>
<path d="M3 15H31M15 6V27V6Z" stroke="#EE5757" stroke-width="2.4"/>
</g>
</g>
<path d="M38.5 15L38.7726 15.8391H39.6548L38.9411 16.3576L39.2137 17.1967L38.5 16.6781L37.7863 17.1967L38.0589 16.3576L37.3451 15.8391H38.2274L38.5 15Z" fill="#F5F5F5"/>
<path d="M38.5 32L38.2274 31.1609L37.3452 31.1609L38.0589 30.6424L37.7863 29.8033L38.5 30.3219L39.2137 29.8033L38.9411 30.6424L39.6549 31.1609L38.7726 31.1609L38.5 32Z" fill="#F5F5F5"/>
<path d="M42.75 16.1388L42.5666 17.0017L43.3306 17.4428L42.4532 17.535L42.2698 18.398L41.911 17.592L41.0336 17.6843L41.6892 17.0939L41.3304 16.288L42.0944 16.7291L42.75 16.1388Z" fill="#F5F5F5"/>
<path d="M34.25 30.8612L34.4335 29.9983L33.6694 29.5571L34.5468 29.4649L34.7302 28.602L35.0891 29.4079L35.9665 29.3157L35.3109 29.906L35.6697 30.712L34.9057 30.2709L34.25 30.8612Z" fill="#F5F5F5"/>
<path d="M45.8612 19.25L45.2709 19.9056L45.712 20.6696L44.9061 20.3108L44.3157 20.9664L44.408 20.089L43.602 19.7302L44.4649 19.5468L44.5572 18.6694L44.9983 19.4334L45.8612 19.25Z" fill="#F5F5F5"/>
<path d="M31.1388 27.75L31.7291 27.0944L31.288 26.3303L32.0939 26.6892L32.6843 26.0336L32.592 26.911L33.398 27.2698L32.5351 27.4532L32.4428 28.3306L32.0017 27.5666L31.1388 27.75Z" fill="#F5F5F5"/>
<path d="M47 23.5L46.1609 23.7726L46.1609 24.6548L45.6424 23.9411L44.8033 24.2137L45.3219 23.5L44.8033 22.7863L45.6424 23.0589L46.1609 22.3451L46.1609 23.2274L47 23.5Z" fill="#F5F5F5"/>
<path d="M30 23.5L30.8391 23.2274L30.8391 22.3452L31.3576 23.0589L32.1967 22.7863L31.6781 23.5L32.1967 24.2137L31.3576 23.9411L30.8391 24.6549L30.8391 23.7726L30 23.5Z" fill="#F5F5F5"/>
<path d="M45.8612 27.75L44.9983 27.5666L44.5572 28.3306L44.465 27.4532L43.602 27.2698L44.408 26.9109L44.3157 26.0335L44.9061 26.6892L45.712 26.3303L45.2709 27.0944L45.8612 27.75Z" fill="#F5F5F5"/>
<path d="M31.1388 19.25L32.0017 19.4334L32.4428 18.6694L32.535 19.5468L33.398 19.7302L32.592 20.0891L32.6843 20.9665L32.0939 20.3108L31.288 20.6697L31.7291 19.9056L31.1388 19.25Z" fill="#F5F5F5"/>
<path d="M42.75 30.8612L42.0943 30.2709L41.3303 30.712L41.6891 29.906L41.0335 29.3157L41.9109 29.4079L42.2698 28.602L42.4532 29.4649L43.3306 29.5571L42.5665 29.9983L42.75 30.8612Z" fill="#F5F5F5"/>
<path d="M34.25 16.1388L34.9056 16.7291L35.6696 16.288L35.3108 17.0939L35.9664 17.6843L35.089 17.592L34.7302 18.398L34.5468 17.5351L33.6694 17.4428L34.4334 17.0017L34.25 16.1388Z" fill="#F5F5F5"/>
</svg>
