<svg width="54" height="48" viewBox="0 0 54 48" fill="none" xmlns="http://www.w3.org/2000/svg">
<mask id="mask0_1_34344" style="mask-type:alpha" maskUnits="userSpaceOnUse" x="3" y="6" width="48" height="36">
<path d="M3.56934 15.1356C4.16681 10.4125 8.0415 7.00193 12.7861 6.60887C16.6412 6.28949 21.6196 6 27 6C32.3804 6 37.3588 6.28949 41.2139 6.60887C45.9585 7.00193 49.8332 10.4125 50.4307 15.1356C50.752 17.6759 51 20.704 51 24C51 27.296 50.752 30.3241 50.4307 32.8644C49.8332 37.5875 45.9585 40.9981 41.2139 41.3911C37.3588 41.7105 32.3804 42 27 42C21.6196 42 16.6412 41.7105 12.7861 41.3911C8.0415 40.9981 4.16681 37.5875 3.56934 32.8644C3.248 30.3241 3 27.296 3 24C3 20.704 3.248 17.6759 3.56934 15.1356Z" fill="#00D0BF"/>
</mask>
<g mask="url(#mask0_1_34344)">
<rect x="3" y="33" width="48" height="9" fill="#3F6FEB"/>
<rect x="3" y="15" width="48" height="9" fill="#F5F5F5"/>
<rect x="3" y="24" width="48" height="9" fill="#EE5757"/>
<rect x="3" y="6" width="48" height="9" fill="#FCD95E"/>
<path d="M3 4L23 24L3 44V4Z" fill="#59C785"/>
</g>
<path fill-rule="evenodd" clip-rule="evenodd" d="M12.5 17.795C9.57792 18.3493 7.36841 20.9166 7.36841 24C7.36841 27.0834 9.57792 29.6506 12.5 30.2049C12.1164 30.2777 11.7205 30.3158 11.3158 30.3158C7.82768 30.3158 5 27.4881 5 24C5 20.5119 7.82768 17.6842 11.3158 17.6842C11.7205 17.6842 12.1164 17.7223 12.5 17.795Z" fill="#F5F5F5"/>
<path d="M13.5 18L13.8368 19.0365H14.9266L14.0449 19.6771L14.3817 20.7135L13.5 20.0729L12.6183 20.7135L12.9551 19.6771L12.0734 19.0365H13.1632L13.5 18Z" fill="#F5F5F5"/>
<path d="M13.5 21L13.8368 22.0365H14.9266L14.0449 22.6771L14.3817 23.7135L13.5 23.0729L12.6183 23.7135L12.9551 22.6771L12.0734 22.0365H13.1632L13.5 21Z" fill="#F5F5F5"/>
<path d="M13.5 24L13.8368 25.0365H14.9266L14.0449 25.6771L14.3817 26.7135L13.5 26.0729L12.6183 26.7135L12.9551 25.6771L12.0734 25.0365H13.1632L13.5 24Z" fill="#F5F5F5"/>
<path d="M13.5 27L13.8368 28.0365H14.9266L14.0449 28.6771L14.3817 29.7135L13.5 29.0729L12.6183 29.7135L12.9551 28.6771L12.0734 28.0365H13.1632L13.5 27Z" fill="#F5F5F5"/>
</svg>
