<svg width="54" height="54" viewBox="0 0 54 54" fill="none" xmlns="http://www.w3.org/2000/svg">
<mask id="mask0_1_34344" style="mask-type:alpha" maskUnits="userSpaceOnUse" x="3" y="9" width="48" height="36">
<path d="M3.56934 18.1356C4.16681 13.4125 8.0415 10.0019 12.7861 9.60887C16.6412 9.28949 21.6196 9 27 9C32.3804 9 37.3588 9.28949 41.2139 9.60887C45.9585 10.0019 49.8332 13.4125 50.4307 18.1356C50.752 20.6759 51 23.704 51 27C51 30.296 50.752 33.3241 50.4307 35.8644C49.8332 40.5875 45.9585 43.9981 41.2139 44.3911C37.3588 44.7105 32.3804 45 27 45C21.6196 45 16.6412 44.7105 12.7861 44.3911C8.04151 43.9981 4.16681 40.5875 3.56934 35.8644C3.248 33.3241 3 30.296 3 27C3 23.704 3.248 20.6759 3.56934 18.1356Z" fill="#00D0BF"/>
</mask>
<g mask="url(#mask0_1_34344)">
<rect x="3" y="36" width="48" height="9" fill="#3F6FEB"/>
<rect x="3" y="18" width="48" height="9" fill="#F5F5F5"/>
<rect x="3" y="27" width="48" height="9" fill="#EE5757"/>
<rect x="3" y="9" width="48" height="9" fill="#FCD95E"/>
<path d="M3 7L23 27L3 47V7Z" fill="#59C785"/>
</g>
<path fill-rule="evenodd" clip-rule="evenodd" d="M12.5 20.795C9.57792 21.3493 7.36841 23.9166 7.36841 27C7.36841 30.0834 9.57792 32.6506 12.5 33.2049C12.1164 33.2777 11.7205 33.3158 11.3158 33.3158C7.82768 33.3158 5 30.4881 5 27C5 23.5119 7.82768 20.6842 11.3158 20.6842C11.7205 20.6842 12.1164 20.7223 12.5 20.795Z" fill="#F5F5F5"/>
<path d="M13.5 21L13.8368 22.0365H14.9266L14.0449 22.6771L14.3817 23.7135L13.5 23.0729L12.6183 23.7135L12.9551 22.6771L12.0734 22.0365H13.1632L13.5 21Z" fill="#F5F5F5"/>
<path d="M13.5 24L13.8368 25.0365H14.9266L14.0449 25.6771L14.3817 26.7135L13.5 26.0729L12.6183 26.7135L12.9551 25.6771L12.0734 25.0365H13.1632L13.5 24Z" fill="#F5F5F5"/>
<path d="M13.5 27L13.8368 28.0365H14.9266L14.0449 28.6771L14.3817 29.7135L13.5 29.0729L12.6183 29.7135L12.9551 28.6771L12.0734 28.0365H13.1632L13.5 27Z" fill="#F5F5F5"/>
<path d="M13.5 30L13.8368 31.0365H14.9266L14.0449 31.6771L14.3817 32.7135L13.5 32.0729L12.6183 32.7135L12.9551 31.6771L12.0734 31.0365H13.1632L13.5 30Z" fill="#F5F5F5"/>
</svg>
