<svg width="54" height="48" viewBox="0 0 54 48" fill="none" xmlns="http://www.w3.org/2000/svg">
<mask id="mask0_1_37000" style="mask-type:alpha" maskUnits="userSpaceOnUse" x="3" y="6" width="48" height="36">
<path d="M3.56934 15.1356C4.16681 10.4125 8.0415 7.00193 12.7861 6.60887C16.6412 6.28949 21.6196 6 27 6C32.3804 6 37.3588 6.28949 41.2139 6.60887C45.9585 7.00193 49.8332 10.4125 50.4307 15.1356C50.752 17.6759 51 20.704 51 24C51 27.296 50.752 30.3241 50.4307 32.8644C49.8332 37.5875 45.9585 40.9981 41.2139 41.3911C37.3588 41.7105 32.3804 42 27 42C21.6196 42 16.6412 41.7105 12.7861 41.3911C8.0415 40.9981 4.16681 37.5875 3.56934 32.8644C3.248 30.3241 3 27.296 3 24C3 20.704 3.248 17.6759 3.56934 15.1356Z" fill="#00D0BF"/>
</mask>
<g mask="url(#mask0_1_37000)">
<rect x="3" y="6" width="48" height="36" fill="#2E50A6"/>
<rect x="3" y="31" width="48" height="3" fill="#F5F5F5"/>
<rect x="3" y="28" width="48" height="3" fill="#EE5757"/>
<rect x="3" y="25" width="48" height="3" fill="#F5F5F5"/>
</g>
<path d="M19.5 20L19.8368 21.0365H20.9266L20.0449 21.6771L20.3817 22.7135L19.5 22.0729L18.6183 22.7135L18.9551 21.6771L18.0734 21.0365H19.1632L19.5 20Z" fill="#FCD95E"/>
<path d="M24.5 22L24.8368 23.0365H25.9266L25.0449 23.6771L25.3817 24.7135L24.5 24.0729L23.6183 24.7135L23.9551 23.6771L23.0734 23.0365H24.1632L24.5 22Z" fill="#FCD95E"/>
<path d="M14.5 22L14.8368 23.0365H15.9266L15.0449 23.6771L15.3817 24.7135L14.5 24.0729L13.6183 24.7135L13.9551 23.6771L13.0734 23.0365H14.1632L14.5 22Z" fill="#FCD95E"/>
<path d="M27.5 26L27.8368 27.0365H28.9266L28.0449 27.6771L28.3817 28.7135L27.5 28.0729L26.6183 28.7135L26.9551 27.6771L26.0734 27.0365H27.1632L27.5 26Z" fill="#FCD95E"/>
<path d="M11.5 26L11.8368 27.0365H12.9266L12.0449 27.6771L12.3817 28.7135L11.5 28.0729L10.6183 28.7135L10.9551 27.6771L10.0734 27.0365H11.1632L11.5 26Z" fill="#FCD95E"/>
<path d="M19.5 36L19.8368 37.0365H20.9266L20.0449 37.6771L20.3817 38.7135L19.5 38.0729L18.6183 38.7135L18.9551 37.6771L18.0734 37.0365H19.1632L19.5 36Z" fill="#FCD95E"/>
<path d="M24.5 34L24.8368 35.0365H25.9266L25.0449 35.6771L25.3817 36.7135L24.5 36.0729L23.6183 36.7135L23.9551 35.6771L23.0734 35.0365H24.1632L24.5 34Z" fill="#FCD95E"/>
<path d="M14.5 34L14.8368 35.0365H15.9266L15.0449 35.6771L15.3817 36.7135L14.5 36.0729L13.6183 36.7135L13.9551 35.6771L13.0734 35.0365H14.1632L14.5 34Z" fill="#FCD95E"/>
<path d="M27.5 30L27.8368 31.0365H28.9266L28.0449 31.6771L28.3817 32.7135L27.5 32.0729L26.6183 32.7135L26.9551 31.6771L26.0734 31.0365H27.1632L27.5 30Z" fill="#FCD95E"/>
<path d="M11.5 30L11.8368 31.0365H12.9266L12.0449 31.6771L12.3817 32.7135L11.5 32.0729L10.6183 32.7135L10.9551 31.6771L10.0734 31.0365H11.1632L11.5 30Z" fill="#FCD95E"/>
</svg>
