<svg width="54" height="54" viewBox="0 0 54 54" fill="none" xmlns="http://www.w3.org/2000/svg">
<mask id="mask0_1_37000" style="mask-type:alpha" maskUnits="userSpaceOnUse" x="3" y="9" width="48" height="36">
<path d="M3.56934 18.1356C4.16681 13.4125 8.0415 10.0019 12.7861 9.60887C16.6412 9.28949 21.6196 9 27 9C32.3804 9 37.3588 9.28949 41.2139 9.60887C45.9585 10.0019 49.8332 13.4125 50.4307 18.1356C50.752 20.6759 51 23.704 51 27C51 30.296 50.752 33.3241 50.4307 35.8644C49.8332 40.5875 45.9585 43.9981 41.2139 44.3911C37.3588 44.7105 32.3804 45 27 45C21.6196 45 16.6412 44.7105 12.7861 44.3911C8.04151 43.9981 4.16681 40.5875 3.56934 35.8644C3.248 33.3241 3 30.296 3 27C3 23.704 3.248 20.6759 3.56934 18.1356Z" fill="#00D0BF"/>
</mask>
<g mask="url(#mask0_1_37000)">
<rect x="3" y="9" width="48" height="36" fill="#2E50A6"/>
<rect x="3" y="34" width="48" height="3" fill="#F5F5F5"/>
<rect x="3" y="31" width="48" height="3" fill="#EE5757"/>
<rect x="3" y="28" width="48" height="3" fill="#F5F5F5"/>
</g>
<path d="M19.5 23L19.8368 24.0365H20.9266L20.0449 24.6771L20.3817 25.7135L19.5 25.0729L18.6183 25.7135L18.9551 24.6771L18.0734 24.0365H19.1632L19.5 23Z" fill="#FCD95E"/>
<path d="M24.5 25L24.8368 26.0365H25.9266L25.0449 26.6771L25.3817 27.7135L24.5 27.0729L23.6183 27.7135L23.9551 26.6771L23.0734 26.0365H24.1632L24.5 25Z" fill="#FCD95E"/>
<path d="M14.5 25L14.8368 26.0365H15.9266L15.0449 26.6771L15.3817 27.7135L14.5 27.0729L13.6183 27.7135L13.9551 26.6771L13.0734 26.0365H14.1632L14.5 25Z" fill="#FCD95E"/>
<path d="M27.5 29L27.8368 30.0365H28.9266L28.0449 30.6771L28.3817 31.7135L27.5 31.0729L26.6183 31.7135L26.9551 30.6771L26.0734 30.0365H27.1632L27.5 29Z" fill="#FCD95E"/>
<path d="M11.5 29L11.8368 30.0365H12.9266L12.0449 30.6771L12.3817 31.7135L11.5 31.0729L10.6183 31.7135L10.9551 30.6771L10.0734 30.0365H11.1632L11.5 29Z" fill="#FCD95E"/>
<path d="M19.5 39L19.8368 40.0365H20.9266L20.0449 40.6771L20.3817 41.7135L19.5 41.0729L18.6183 41.7135L18.9551 40.6771L18.0734 40.0365H19.1632L19.5 39Z" fill="#FCD95E"/>
<path d="M24.5 37L24.8368 38.0365H25.9266L25.0449 38.6771L25.3817 39.7135L24.5 39.0729L23.6183 39.7135L23.9551 38.6771L23.0734 38.0365H24.1632L24.5 37Z" fill="#FCD95E"/>
<path d="M14.5 37L14.8368 38.0365H15.9266L15.0449 38.6771L15.3817 39.7135L14.5 39.0729L13.6183 39.7135L13.9551 38.6771L13.0734 38.0365H14.1632L14.5 37Z" fill="#FCD95E"/>
<path d="M27.5 33L27.8368 34.0365H28.9266L28.0449 34.6771L28.3817 35.7135L27.5 35.0729L26.6183 35.7135L26.9551 34.6771L26.0734 34.0365H27.1632L27.5 33Z" fill="#FCD95E"/>
<path d="M11.5 33L11.8368 34.0365H12.9266L12.0449 34.6771L12.3817 35.7135L11.5 35.0729L10.6183 35.7135L10.9551 34.6771L10.0734 34.0365H11.1632L11.5 33Z" fill="#FCD95E"/>
</svg>
