<svg width="54" height="48" viewBox="0 0 54 48" fill="none" xmlns="http://www.w3.org/2000/svg">
<mask id="mask0_1_35723" style="mask-type:alpha" maskUnits="userSpaceOnUse" x="3" y="6" width="48" height="36">
<path d="M3.56934 15.1356C4.16681 10.4125 8.0415 7.00193 12.7861 6.60887C16.6412 6.28949 21.6196 6 27 6C32.3804 6 37.3588 6.28949 41.2139 6.60887C45.9585 7.00193 49.8332 10.4125 50.4307 15.1356C50.752 17.6759 51 20.704 51 24C51 27.296 50.752 30.3241 50.4307 32.8644C49.8332 37.5875 45.9585 40.9981 41.2139 41.3911C37.3588 41.7105 32.3804 42 27 42C21.6196 42 16.6412 41.7105 12.7861 41.3911C8.0415 40.9981 4.16681 37.5875 3.56934 32.8644C3.248 30.3241 3 27.296 3 24C3 20.704 3.248 17.6759 3.56934 15.1356Z" fill="#00D0BF"/>
</mask>
<g mask="url(#mask0_1_35723)">
<rect x="3" y="6" width="48" height="36" fill="#2E50A6"/>
<path d="M16.5 17L17.2858 19.4184H19.8287L17.7714 20.9131L18.5572 23.3316L16.5 21.8369L14.4428 23.3316L15.2286 20.9131L13.1713 19.4184H15.7142L16.5 17Z" fill="#F5F5F5"/>
<path d="M11 11L11.6735 13.0729H13.8532L12.0898 14.3541L12.7634 16.4271L11 15.1459L9.23664 16.4271L9.91019 14.3541L8.14683 13.0729H10.3265L11 11Z" fill="#F5F5F5"/>
<rect x="3" y="28" width="48" height="4" fill="#FCD95E"/>
</g>
</svg>
