<svg width="54" height="48" viewBox="0 0 54 48" fill="none" xmlns="http://www.w3.org/2000/svg">
<mask id="mask0_1_32030" style="mask-type:alpha" maskUnits="userSpaceOnUse" x="3" y="6" width="48" height="36">
<path d="M3.56934 15.1356C4.16681 10.4125 8.0415 7.00193 12.7861 6.60887C16.6412 6.28949 21.6196 6 27 6C32.3804 6 37.3588 6.28949 41.2139 6.60887C45.9585 7.00193 49.8332 10.4125 50.4307 15.1356C50.752 17.6759 51 20.704 51 24C51 27.296 50.752 30.3241 50.4307 32.8644C49.8332 37.5875 45.9585 40.9981 41.2139 41.3911C37.3588 41.7105 32.3804 42 27 42C21.6196 42 16.6412 41.7105 12.7861 41.3911C8.0415 40.9981 4.16681 37.5875 3.56934 32.8644C3.248 30.3241 3 27.296 3 24C3 20.704 3.248 17.6759 3.56934 15.1356Z" fill="#00D0BF"/>
</mask>
<g mask="url(#mask0_1_32030)">
<rect x="3" width="48" height="49" fill="#59C785"/>
<path d="M45.4571 20.8232C45.3031 20.2175 43.9247 18.9132 42.8889 18.0832C42.6416 17.9157 42.4804 18.0155 42.5127 18.2542C42.6416 18.468 42.7383 18.703 42.8673 18.9167C42.9033 19.0592 42.9712 19.159 43.0073 19.3014C43.0073 19.3014 43.0179 19.5472 43.0395 19.5686C43.3619 19.9214 43.4051 20.2205 43.4051 20.2205C43.5914 20.5768 43.7564 20.8368 44.0826 21.1289C44.4482 21.357 44.1793 22.0657 44.1899 22.4434C44.1899 22.682 44.0181 22.6537 43.8675 22.6251C42.6811 21.5421 41.5053 21.5387 40.4694 21.2251C40.0643 21.1825 40.0571 21.3747 40.1899 21.4814C40.914 22.2511 41.5948 22.7747 42.491 23.2127C42.6416 23.3054 42.7922 23.3982 42.9428 23.4909C43.1146 23.6334 43.2868 23.7759 43.4586 23.9184C43.8565 24.1747 43.8891 24.4099 43.8891 24.431C43.8998 24.912 43.6415 25.2859 43.5664 25.4356C43.4306 25.9456 43.1579 26.0342 43.1579 26.0342C40.9424 27.5198 39.781 27.9042 36.1894 27.4447C36.1356 27.4165 35.7916 27.4734 36.1894 27.6159C37.1035 27.9186 39.3489 28.4041 41.5213 27.3818C42.0428 27.0184 42.3918 27.1375 42.7696 26.92C43.3901 26.5397 44.2761 26.0662 44.4373 26.0131C44.9213 25.7564 46.2761 25.468 46.5883 25.2113C46.9463 25.1826 47.3181 25.1359 47.3431 24.8298C47.4607 24.7541 47.6329 24.8095 47.7607 24.5599C48.0448 24.5109 47.997 24.4099 47.997 24.4099C47.9253 24.2105 47.6598 24.1283 47.4701 23.9824C47.1902 23.8897 46.9968 23.8611 46.7923 23.961C46.7279 23.9896 46.6634 24.0179 46.5989 24.0465C46.5989 24.0465 46.2977 24.0036 46.2977 23.9824C45.6287 23.9459 45.6939 21.7422 45.4572 20.8231L45.4571 20.8232Z" fill="#FCD95E"/>
<path d="M51 42L3 6V42H51Z" fill="#2E50A6"/>
<path d="M11.2682 20.0744L10.5716 19.4223L9.86671 20.0653L9.94226 19.1145L9 18.9641L9.79072 18.4302L9.32063 17.6L10.2311 17.8852L10.5872 17L10.9319 17.8897L11.846 17.6162L11.3653 18.4403L12.149 18.9843L11.2049 19.1226L11.2682 20.0744L11.2682 20.0744Z" fill="white"/>
<path d="M7.26815 27.0744L6.57161 26.4223L5.86671 27.0653L5.94226 26.1145L5 25.9641L5.79072 25.4302L5.32063 24.6L6.23114 24.8852L6.58718 24L6.93187 24.8897L7.846 24.6162L7.36525 25.4403L8.14904 25.9843L7.20492 26.1226L7.26821 27.0744L7.26815 27.0744Z" fill="white"/>
<path d="M13.2682 36.0744L12.5716 35.4223L11.8667 36.0653L11.9423 35.1145L11 34.9641L11.7907 34.4302L11.3206 33.6L12.2311 33.8852L12.5872 33L12.9319 33.8897L13.846 33.6162L13.3653 34.4403L14.149 34.9843L13.2049 35.1226L13.2682 36.0744L13.2682 36.0744Z" fill="white"/>
<path d="M16.2682 23.0744L15.5716 22.4223L14.8667 23.0653L14.9423 22.1145L14 21.9641L14.7907 21.4302L14.3206 20.6L15.2311 20.8852L15.5872 20L15.9319 20.8897L16.846 20.6162L16.3653 21.4403L17.149 21.9843L16.2049 22.1226L16.2682 23.0744L16.2682 23.0744Z" fill="white"/>
<path d="M13.7389 27.9728L12.9877 27.4721L12.2562 28L12.5135 27.1496L11.7716 26.6352L12.6821 26.6109L12.9546 25.7644L13.2602 26.6001L14.1706 26.5917L13.449 27.1326L13.7389 27.9728L13.7389 27.9728Z" fill="white"/>
<path d="M27 31C30.866 31 34 27.866 34 24C34 20.134 30.866 17 27 17C23.134 17 20 20.134 20 24C20 27.866 23.134 31 27 31Z" fill="#FCD95E"/>
<path d="M23.2574 21.288C23.6959 21.9121 24.3605 22.9586 24.895 22.6854C25.3121 22.6869 25.5274 22.7173 25.584 23.0053C26.5676 23.179 28.221 22.7485 29.2498 21.3585C29.2498 21.3585 29.3363 21.3703 29.3063 20.8419C29.312 20.6118 29.6096 20.6579 29.6168 20.7328C29.6583 20.8471 29.6511 20.9325 29.7069 20.9354C29.8335 20.8916 30.0067 20.597 30.1519 20.41C30.1913 20.3276 30.1698 20.2408 30.1791 20.1369C30.2556 19.9417 30.4467 19.984 30.4867 20.0864C30.5232 20.1524 30.5239 20.2029 30.5597 20.269C30.7536 20.4033 31.1034 20.2779 31.1306 20.2779C31.1649 20.1139 31.2665 20.1294 31.2665 20.1294C31.396 20.0997 31.3452 20.1116 31.4304 20.1576C31.3552 21.0416 31.5978 21.0809 31.5777 21.5343C31.5863 22.0405 31.4304 22.1845 31.4304 22.3774C31.4797 22.6134 32.1994 22.6216 31.9462 22.8212C31.7237 22.9444 31.9469 23.1752 31.6121 23.265C30.6377 23.7779 30.4509 24.218 30.4509 24.218C30.4509 24.218 30.2063 24.6974 30.1791 24.6974C30.016 25.0173 29.8092 24.8429 29.694 24.9988C29.6368 25.1947 29.5724 25.6288 29.6869 25.8545C29.7441 26.1647 29.6797 26.3339 29.6082 26.6441C29.5438 27.2913 29.2963 27.3893 29.2676 27.6164C29.1532 27.8591 29.292 28.999 29.1832 28.999C28.4578 29.0139 27.9019 28.855 27.615 28.7957C27.8947 27.5451 27.786 26.4467 27.786 26.3339C27.7145 25.4396 26.4947 25.6571 26.308 25.5383C26.1534 25.5042 26.0561 25.3736 26.0018 25.3172C25.8293 25.2979 25.7649 25.2571 25.5925 25.2385C25.5067 25.283 25.5582 25.3291 25.3665 25.3907C24.88 25.4515 24.6654 24.9506 24.6654 24.9506C24.689 24.7821 23.5715 24.9847 22.9641 24.8385C22.7151 24.9825 22.6064 25.4085 22.4025 25.4589C22.3967 25.591 22.0669 25.3506 22.0004 25.2207C21.9868 24.8429 22.318 24.676 22.318 24.676C22.5813 24.4837 22.7373 24.4526 22.8639 24.3197C22.9276 23.9909 22.8954 23.7475 23.0306 23.5003C23.1451 23.3118 23.3139 23.4001 23.4284 23.3155C23.5514 23.2309 23.6037 22.6773 23.4899 22.5259C23.4899 22.5259 22.9977 22.065 22.9705 22.0368C22.8103 21.5604 23.158 21.2531 23.2574 21.288L23.2574 21.288Z" fill="#59C785"/>
</g>
</svg>
