<svg width="54" height="54" viewBox="0 0 54 54" fill="none" xmlns="http://www.w3.org/2000/svg">
<mask id="mask0_1_32030" style="mask-type:alpha" maskUnits="userSpaceOnUse" x="3" y="9" width="48" height="36">
<path d="M3.56934 18.1356C4.16681 13.4125 8.0415 10.0019 12.7861 9.60887C16.6412 9.28949 21.6196 9 27 9C32.3804 9 37.3588 9.28949 41.2139 9.60887C45.9585 10.0019 49.8332 13.4125 50.4307 18.1356C50.752 20.6759 51 23.704 51 27C51 30.296 50.752 33.3241 50.4307 35.8644C49.8332 40.5875 45.9585 43.9981 41.2139 44.3911C37.3588 44.7105 32.3804 45 27 45C21.6196 45 16.6412 44.7105 12.7861 44.3911C8.04151 43.9981 4.16681 40.5875 3.56934 35.8644C3.248 33.3241 3 30.296 3 27C3 23.704 3.248 20.6759 3.56934 18.1356Z" fill="#00D0BF"/>
</mask>
<g mask="url(#mask0_1_32030)">
<rect x="3" y="3" width="48" height="49" fill="#59C785"/>
<path d="M45.4571 23.8232C45.3031 23.2175 43.9247 21.9132 42.8889 21.0832C42.6416 20.9157 42.4804 21.0155 42.5127 21.2542C42.6416 21.468 42.7383 21.703 42.8673 21.9167C42.9033 22.0592 42.9712 22.159 43.0073 22.3014C43.0073 22.3014 43.0179 22.5472 43.0395 22.5686C43.3619 22.9214 43.4051 23.2205 43.4051 23.2205C43.5914 23.5768 43.7564 23.8368 44.0826 24.1289C44.4482 24.357 44.1793 25.0657 44.1899 25.4434C44.1899 25.682 44.0181 25.6537 43.8675 25.6251C42.6811 24.5421 41.5053 24.5387 40.4694 24.2251C40.0643 24.1825 40.0571 24.3747 40.1899 24.4814C40.914 25.2511 41.5948 25.7747 42.491 26.2127C42.6416 26.3054 42.7922 26.3982 42.9428 26.4909C43.1146 26.6334 43.2868 26.7759 43.4586 26.9184C43.8565 27.1747 43.8891 27.4099 43.8891 27.431C43.8998 27.912 43.6415 28.2859 43.5664 28.4356C43.4306 28.9456 43.1579 29.0342 43.1579 29.0342C40.9424 30.5198 39.781 30.9042 36.1894 30.4447C36.1356 30.4165 35.7916 30.4734 36.1894 30.6159C37.1035 30.9186 39.3489 31.4041 41.5213 30.3818C42.0428 30.0184 42.3918 30.1375 42.7696 29.92C43.3901 29.5397 44.2761 29.0662 44.4373 29.0131C44.9213 28.7564 46.2761 28.468 46.5883 28.2113C46.9463 28.1826 47.3181 28.1359 47.3431 27.8298C47.4607 27.7541 47.6329 27.8095 47.7607 27.5599C48.0448 27.5109 47.997 27.4099 47.997 27.4099C47.9253 27.2105 47.6598 27.1283 47.4701 26.9824C47.1902 26.8897 46.9968 26.8611 46.7923 26.961C46.7279 26.9896 46.6634 27.0179 46.5989 27.0465C46.5989 27.0465 46.2977 27.0036 46.2977 26.9824C45.6287 26.9459 45.6939 24.7422 45.4572 23.8231L45.4571 23.8232Z" fill="#FCD95E"/>
<path d="M51 45L3 9V45H51Z" fill="#2E50A6"/>
<path d="M11.2682 23.0744L10.5716 22.4223L9.86671 23.0653L9.94226 22.1145L9 21.9641L9.79072 21.4302L9.32063 20.6L10.2311 20.8852L10.5872 20L10.9319 20.8897L11.846 20.6162L11.3653 21.4403L12.149 21.9843L11.2049 22.1226L11.2682 23.0744L11.2682 23.0744Z" fill="white"/>
<path d="M7.26815 30.0744L6.57161 29.4223L5.86671 30.0653L5.94226 29.1145L5 28.9641L5.79072 28.4302L5.32063 27.6L6.23114 27.8852L6.58718 27L6.93187 27.8897L7.846 27.6162L7.36525 28.4403L8.14904 28.9843L7.20492 29.1226L7.26821 30.0744L7.26815 30.0744Z" fill="white"/>
<path d="M13.2682 39.0744L12.5716 38.4223L11.8667 39.0653L11.9423 38.1145L11 37.9641L11.7907 37.4302L11.3206 36.6L12.2311 36.8852L12.5872 36L12.9319 36.8897L13.846 36.6162L13.3653 37.4403L14.149 37.9843L13.2049 38.1226L13.2682 39.0744L13.2682 39.0744Z" fill="white"/>
<path d="M16.2682 26.0744L15.5716 25.4223L14.8667 26.0653L14.9423 25.1145L14 24.9641L14.7907 24.4302L14.3206 23.6L15.2311 23.8852L15.5872 23L15.9319 23.8897L16.846 23.6162L16.3653 24.4403L17.149 24.9843L16.2049 25.1226L16.2682 26.0744L16.2682 26.0744Z" fill="white"/>
<path d="M13.7389 30.9728L12.9877 30.4721L12.2562 31L12.5135 30.1496L11.7716 29.6352L12.6821 29.6109L12.9546 28.7644L13.2602 29.6001L14.1706 29.5917L13.449 30.1326L13.7389 30.9728L13.7389 30.9728Z" fill="white"/>
<path d="M27 34C30.866 34 34 30.866 34 27C34 23.134 30.866 20 27 20C23.134 20 20 23.134 20 27C20 30.866 23.134 34 27 34Z" fill="#FCD95E"/>
<path d="M23.2574 24.288C23.6959 24.9121 24.3605 25.9586 24.895 25.6854C25.3121 25.6869 25.5274 25.7173 25.584 26.0053C26.5676 26.179 28.221 25.7485 29.2498 24.3585C29.2498 24.3585 29.3363 24.3703 29.3063 23.8419C29.312 23.6118 29.6096 23.6579 29.6168 23.7328C29.6583 23.8471 29.6511 23.9325 29.7069 23.9354C29.8335 23.8916 30.0067 23.597 30.1519 23.41C30.1913 23.3276 30.1698 23.2408 30.1791 23.1369C30.2556 22.9417 30.4467 22.984 30.4867 23.0864C30.5232 23.1524 30.5239 23.2029 30.5597 23.269C30.7536 23.4033 31.1034 23.2779 31.1306 23.2779C31.1649 23.1139 31.2665 23.1294 31.2665 23.1294C31.396 23.0997 31.3452 23.1116 31.4304 23.1576C31.3552 24.0416 31.5978 24.0809 31.5777 24.5343C31.5863 25.0405 31.4304 25.1845 31.4304 25.3774C31.4797 25.6134 32.1994 25.6216 31.9462 25.8212C31.7237 25.9444 31.9469 26.1752 31.6121 26.265C30.6377 26.7779 30.4509 27.218 30.4509 27.218C30.4509 27.218 30.2063 27.6974 30.1791 27.6974C30.016 28.0173 29.8092 27.8429 29.694 27.9988C29.6368 28.1947 29.5724 28.6288 29.6869 28.8545C29.7441 29.1647 29.6797 29.3339 29.6082 29.6441C29.5438 30.2913 29.2963 30.3893 29.2676 30.6164C29.1532 30.8591 29.292 31.999 29.1832 31.999C28.4578 32.0139 27.9019 31.855 27.615 31.7957C27.8947 30.5451 27.786 29.4467 27.786 29.3339C27.7145 28.4396 26.4947 28.6571 26.308 28.5383C26.1534 28.5042 26.0561 28.3736 26.0018 28.3172C25.8293 28.2979 25.7649 28.2571 25.5925 28.2385C25.5067 28.283 25.5582 28.3291 25.3665 28.3907C24.88 28.4515 24.6654 27.9506 24.6654 27.9506C24.689 27.7821 23.5715 27.9847 22.9641 27.8385C22.7151 27.9825 22.6064 28.4085 22.4025 28.4589C22.3967 28.591 22.0669 28.3506 22.0004 28.2207C21.9868 27.8429 22.318 27.676 22.318 27.676C22.5813 27.4837 22.7373 27.4526 22.8639 27.3197C22.9276 26.9909 22.8954 26.7475 23.0306 26.5003C23.1451 26.3118 23.3139 26.4001 23.4284 26.3155C23.5514 26.2309 23.6037 25.6773 23.4899 25.5259C23.4899 25.5259 22.9977 25.065 22.9705 25.0368C22.8103 24.5604 23.158 24.2531 23.2574 24.288L23.2574 24.288Z" fill="#59C785"/>
</g>
</svg>
