<svg width="54" height="54" viewBox="0 0 54 54" fill="none" xmlns="http://www.w3.org/2000/svg">
<mask id="mask0_1_32508" style="mask-type:alpha" maskUnits="userSpaceOnUse" x="3" y="9" width="48" height="36">
<path d="M3.56934 18.1356C4.16681 13.4125 8.0415 10.0019 12.7861 9.60887C16.6412 9.28949 21.6196 9 27 9C32.3804 9 37.3588 9.28949 41.2139 9.60887C45.9585 10.0019 49.8332 13.4125 50.4307 18.1356C50.752 20.6759 51 23.704 51 27C51 30.296 50.752 33.3241 50.4307 35.8644C49.8332 40.5875 45.9585 43.9981 41.2139 44.3911C37.3588 44.7105 32.3804 45 27 45C21.6196 45 16.6412 44.7105 12.7861 44.3911C8.04151 43.9981 4.16681 40.5875 3.56934 35.8644C3.248 33.3241 3 30.296 3 27C3 23.704 3.248 20.6759 3.56934 18.1356Z" fill="#00D0BF"/>
</mask>
<g mask="url(#mask0_1_32508)">
<rect x="3" y="9" width="48" height="36" fill="#2E50A6"/>
<path d="M43.5969 23.1351V27.9241C43.5969 32.0747 41.6322 33.4991 39.0044 34.6288C36.3765 33.4991 34.3872 32.0746 34.3872 27.9241V23.1351H43.5969H43.5969Z" fill="white" stroke="white" stroke-width="0.49197" stroke-linejoin="round"/>
<path d="M31.5383 34.2359C31.6856 34.6288 32.7417 35.1446 33.9697 34.4815C34.8047 34.0149 35.345 33.3518 35.8607 32.1729C36.0081 31.8782 36.0818 31.5098 35.7379 31.2888C35.4678 31.0923 35.0257 30.8713 34.8292 30.6748C34.731 30.5766 34.6328 30.5029 34.5591 30.4292C34.6082 30.4783 34.6573 30.5274 34.7064 30.6011C35.1976 31.1905 34.6819 32.0501 34.1416 32.5659C33.7486 32.9342 33.0364 33.8429 32.0049 32.9834C31.7839 32.7869 31.2681 33.5973 31.5383 34.2359L31.5383 34.2359Z" fill="#FCEA83" stroke="black" stroke-width="0.0736776"/>
<path d="M46.4702 34.2359C46.2983 34.6288 45.2423 35.1446 44.0389 34.4815C43.2039 34.0149 42.6635 33.3518 42.1232 32.1729C42.0004 31.8782 41.9268 31.5098 42.2706 31.2888C42.5407 31.0923 42.9828 30.8713 43.1793 30.6748C43.2775 30.5766 43.3512 30.5029 43.4494 30.4292C43.4003 30.4783 43.3512 30.5274 43.3021 30.6011C42.8109 31.1905 43.3266 32.0501 43.8424 32.5659C44.2353 32.9342 44.9721 33.8429 46.0036 32.9834C46.2246 32.7869 46.7158 33.5973 46.4702 34.2359V34.2359Z" fill="#FCEA83" stroke="black" stroke-width="0.0736776"/>
<path d="M39.0043 36.348C40.9691 36.348 43.9899 35.4639 45.6108 32.3694C45.8809 31.8537 45.6108 31.5835 45.2915 31.4116C44.9477 31.2643 44.5302 30.9204 44.3091 30.6994C44.7021 31.0924 44.6284 31.3625 44.3583 31.8046C43.1057 33.8921 41.3866 34.9482 39.0043 34.9482C36.6221 34.9482 34.9029 33.8921 33.6504 31.8046C33.3803 31.3625 33.3066 31.0924 33.675 30.6994C33.4785 30.9204 33.0364 31.2643 32.6926 31.4116C32.3733 31.5835 32.1032 31.8537 32.3733 32.3694C33.9942 35.4639 37.0396 36.348 39.0044 36.348H39.0043Z" fill="#FCEA83" stroke="black" stroke-width="0.0736776"/>
<path d="M34.4608 32.1975C34.4117 31.9519 34.0924 32.0501 33.9942 32.3449C33.8714 32.1729 33.7486 32.001 33.6504 31.8046C33.3557 31.3625 33.3065 31.0678 33.724 30.6503C33.9205 30.4538 34.3135 30.2328 34.5836 30.4783C35.1485 30.945 34.8538 31.7063 34.4608 32.1975V32.1975Z" fill="#C8102E" stroke="black" stroke-width="0.0736776"/>
<path d="M43.5233 32.1975C43.5724 31.9519 43.9162 32.0501 44.0144 32.3449C44.1372 32.1729 44.26 32.001 44.3583 31.8046C44.653 31.3625 44.7021 31.0678 44.26 30.6503C44.0881 30.4538 43.6952 30.2328 43.4005 30.4783C42.8602 30.945 43.1303 31.7063 43.5233 32.1975L43.5233 32.1975Z" fill="#C8102E" stroke="black" stroke-width="0.0736776"/>
<path d="M31.5383 34.2359C31.2927 33.8675 31.0962 32.9097 31.0471 32.6641C30.9734 32.4431 30.9489 32.2466 31.219 32.1483C31.4892 32.0501 31.7348 32.3939 31.8576 32.6886C31.9804 32.9834 32.1768 33.4254 32.3979 33.9657C31.8576 33.6465 31.4155 33.8675 31.5383 34.2359H31.5383Z" fill="#C8102E" stroke="black" stroke-width="0.0736776"/>
<path d="M46.4702 34.2359C46.6913 33.8675 46.8877 32.9097 46.9614 32.6641C47.0105 32.4431 47.0597 32.2466 46.7895 32.1483C46.5194 32.0501 46.2738 32.3939 46.151 32.6886C46.0282 32.9834 45.8317 33.4254 45.6107 33.9657C46.151 33.6465 46.5685 33.8675 46.4702 34.2359V34.2359Z" fill="#C8102E" stroke="black" stroke-width="0.0736776"/>
<path d="M32.9628 32.0256L32.7663 32.1238C32.7172 32.1484 32.7172 32.1975 32.7172 32.222H32.6926L32.5944 32.001H32.6189C32.6189 32.0256 32.6435 32.0501 32.6926 32.0256L33.1101 31.8045C33.1592 31.78 33.1592 31.7554 33.1347 31.7309L33.1592 31.7063L33.282 31.9519H33.2575C33.2329 31.9273 33.2083 31.9028 33.1592 31.9273L32.9873 32.0256L33.061 32.1729L33.2575 32.0992C33.3066 32.0747 33.282 32.0256 33.282 32.001H33.3066L33.4048 32.222C33.3803 32.1975 33.3557 32.1729 33.3066 32.1975L32.8891 32.4185C32.84 32.4431 32.84 32.4676 32.8645 32.4922L32.84 32.5168L32.7172 32.2957L32.7417 32.2712C32.7663 32.2957 32.7908 32.3203 32.84 32.2957L33.0364 32.1975L32.9628 32.0256Z" fill="#00493D"/>
<path d="M33.3803 32.3448C33.4294 32.3203 33.4294 32.2957 33.4048 32.2466H33.4294L33.675 32.615L33.5031 32.7378V32.7132C33.6013 32.6395 33.6013 32.5413 33.5768 32.5167C33.5522 32.4922 33.5276 32.4676 33.5276 32.4431C33.5031 32.4431 33.5031 32.4185 33.454 32.4676C33.4294 32.4922 33.282 32.5904 33.282 32.5904C33.3066 32.615 33.3312 32.6887 33.454 32.615H33.4785L33.2084 32.8114V32.7869C33.3312 32.6887 33.282 32.615 33.2575 32.5904L33.0856 32.7132C33.0365 32.7378 33.0365 32.7623 33.0365 32.7869C33.061 32.7869 33.061 32.8114 33.0856 32.836C33.1101 32.8851 33.1838 32.9342 33.3066 32.8851L33.3312 32.9097L33.1347 32.9834L32.8891 32.5904H32.9137C32.9382 32.615 32.9628 32.6395 33.0119 32.615L33.3803 32.3448Z" fill="#00493D"/>
<path d="M33.7732 33.2781L33.6013 33.4255C33.5767 33.45 33.5767 33.4992 33.6013 33.5237H33.5767L33.4048 33.3518L33.4293 33.3272C33.4539 33.3518 33.4785 33.3764 33.5276 33.3272L33.8469 33.008C33.896 32.9834 33.896 32.9588 33.8714 32.9097L34.0433 33.1062C34.0188 33.0816 33.9697 33.0816 33.9451 33.1062L33.7977 33.2536L33.9205 33.3764L34.0679 33.2536C34.117 33.2044 34.0924 33.1799 34.0679 33.1553L34.0924 33.1308L34.2644 33.3272H34.2398C34.2152 33.3272 34.1907 33.3027 34.1416 33.3518L33.8223 33.6465C33.7732 33.6956 33.7732 33.7202 33.7977 33.7447V33.7693L33.6258 33.5728C33.6504 33.5728 33.6995 33.5974 33.7241 33.5728L33.896 33.4009L33.7732 33.2781Z" fill="#00493D"/>
<path d="M34.1416 33.7938L34.2152 33.8675C34.3135 33.6465 34.3135 33.6465 34.3135 33.6465C34.3135 33.6465 34.2398 33.671 34.117 33.7447L34.1416 33.7938L34.117 33.8184L34.0679 33.7693C34.0433 33.7938 34.0188 33.7938 33.9942 33.8184C33.9205 33.8675 33.9451 33.8921 33.9697 33.9166V33.9412L33.8469 33.8184H33.8714L33.9697 33.7938C34.4608 33.5237 34.4608 33.5237 34.4608 33.5237L34.4854 33.5482C34.4854 33.5482 34.4608 33.5728 34.2398 34.064C34.2398 34.1131 34.2153 34.1377 34.2398 34.1868L34.0433 34.0149L34.0679 33.9903C34.0925 34.0394 34.1416 34.0394 34.1661 33.9903C34.1661 33.9658 34.1907 33.9166 34.1907 33.8921L34.117 33.8184L34.1416 33.7938V33.7938Z" fill="#00493D"/>
<path d="M34.3381 34.2851L34.3626 34.2605C34.3872 34.2851 34.4118 34.2851 34.4609 34.2605L34.7801 33.843L34.7556 33.8185C34.7065 33.7939 34.6328 33.7939 34.5591 33.8676V33.843L34.6573 33.7202L35.0257 33.9904L34.9029 34.1377H34.8784C34.9521 34.064 34.9275 33.9658 34.8784 33.9412V33.9167L34.5591 34.3342C34.51 34.3588 34.5345 34.4079 34.5591 34.4324H34.5345L34.3381 34.2851Z" fill="#00493D"/>
<path d="M34.9766 34.3833L34.8538 34.5552C34.8293 34.6043 34.8538 34.6289 34.8784 34.6535L34.8538 34.678L34.6573 34.5307V34.5061C34.7065 34.5307 34.731 34.5307 34.7556 34.4815L35.0257 34.1132C35.0503 34.064 35.0257 34.0395 35.0012 34.0149L35.0257 33.9904L35.2222 34.1377V34.1623C35.1731 34.1377 35.1485 34.1377 35.124 34.1868L35.0012 34.3587L35.1485 34.457L35.2713 34.2851C35.2959 34.2359 35.2713 34.2114 35.2468 34.1868L35.2713 34.1623L35.4678 34.3096V34.3342C35.4432 34.3096 35.3941 34.3096 35.3696 34.3587L35.124 34.7517C35.0749 34.7763 35.0994 34.8008 35.124 34.8254V34.8499L34.9029 34.7026H34.9275C34.9521 34.7026 34.9766 34.7026 35.0012 34.678L35.124 34.4815L34.9766 34.3833Z" fill="#00493D"/>
<path d="M35.4678 35.0709L35.4923 35.0463C35.5169 35.0709 35.566 35.0709 35.5906 35.0218L35.787 34.6043C35.8116 34.5552 35.787 34.5306 35.7625 34.506L36.18 34.7025L36.0818 34.899L36.0572 34.8744C36.1309 34.7762 36.0572 34.678 36.0326 34.6534C36.0081 34.6534 35.9835 34.6288 35.959 34.6288C35.9344 34.6288 35.9344 34.6288 35.9098 34.678C35.8853 34.7025 35.8116 34.8499 35.8116 34.8499C35.8362 34.8744 35.8853 34.9236 35.9835 34.8008H36.0081L35.8607 35.0955L35.8362 35.0709C35.9098 34.9235 35.8116 34.899 35.787 34.899L35.6888 35.0955C35.6643 35.1446 35.6888 35.1691 35.7134 35.1691V35.1937L35.4678 35.0709Z" fill="#00493D"/>
<path d="M36.18 35.4148C36.1063 35.3657 36.1063 35.2183 36.18 35.0709C36.2291 34.9236 36.3274 34.8008 36.4256 34.8499C36.4993 34.8745 36.4747 35.0218 36.4256 35.1692C36.3519 35.3411 36.2537 35.4393 36.18 35.4148H36.1554C36.3274 35.4885 36.4501 35.3902 36.5238 35.2183C36.5975 35.0709 36.5729 34.899 36.4256 34.8253C36.2782 34.7517 36.1309 34.8499 36.0572 35.0218C35.9835 35.1937 36.0081 35.3657 36.1554 35.4148H36.18Z" fill="#00493D"/>
<path d="M36.9413 35.4639L37.0396 35.1692C37.0641 35.1201 37.0396 35.0955 37.015 35.0709L37.1378 35.0955V35.1201C37.1133 35.1201 37.0887 35.1201 37.0641 35.1692L36.9659 35.4639C36.9168 35.5867 36.8431 35.6849 36.6957 35.6358C36.5975 35.6112 36.5238 35.4884 36.5729 35.3657L36.6957 35.0464C36.7203 34.9973 36.6957 34.9727 36.6712 34.9481V34.9236L36.8922 35.0218V35.0464C36.8677 35.0218 36.8185 35.0218 36.8185 35.0709L36.6957 35.3902C36.6712 35.4884 36.6712 35.5867 36.7449 35.6112C36.8185 35.6358 36.8922 35.5867 36.9413 35.4639V35.4639Z" fill="#00493D"/>
<path d="M37.1624 35.1446C37.1624 35.1201 37.1624 35.1201 37.1378 35.1201L37.3097 35.1446L37.4571 35.6112L37.5308 35.3165C37.5553 35.2674 37.5308 35.2429 37.5062 35.2183L37.6536 35.2429L37.629 35.2674C37.6045 35.2674 37.5799 35.2674 37.5553 35.3165L37.4325 35.8568H37.408L37.2115 35.2674L37.0887 35.6604C37.0887 35.734 37.1133 35.734 37.1378 35.7586V35.7832L36.9905 35.734V35.7095C37.015 35.734 37.0642 35.7095 37.0642 35.6604L37.187 35.2183L37.1624 35.1446V35.1446Z" fill="#00493D"/>
<path d="M37.9974 35.6358C37.9483 35.8568 37.85 35.906 37.8009 35.906H37.7518C37.7518 35.906 37.7272 35.8814 37.7518 35.8568L37.8255 35.3657C37.85 35.3411 37.85 35.3165 37.8746 35.3411H37.9237C37.9728 35.3411 38.0219 35.4393 37.9974 35.6358L38.0711 35.6604C38.1202 35.4148 38.0219 35.3165 37.8992 35.292C37.8009 35.2674 37.6536 35.2429 37.6536 35.2429V35.2674C37.6781 35.292 37.7272 35.292 37.7027 35.3657L37.629 35.8077C37.6044 35.8568 37.5799 35.8814 37.5553 35.8814H37.5308L37.7764 35.9305C37.8992 35.9551 38.0219 35.9305 38.0711 35.6604L37.9974 35.6358Z" fill="#00493D"/>
<path d="M38.2184 35.4393C38.2184 35.3902 38.1693 35.3656 38.1447 35.3656V35.3411L38.5868 35.3902L38.5622 35.5867C38.5622 35.4639 38.4886 35.4147 38.4394 35.4147C38.4149 35.3902 38.3903 35.3902 38.3658 35.3902C38.3412 35.3902 38.3412 35.3902 38.3412 35.4639C38.3412 35.4884 38.3166 35.6603 38.3166 35.6603C38.3412 35.6603 38.4149 35.6849 38.464 35.5375L38.4394 35.8568H38.4149C38.4149 35.7095 38.3412 35.7095 38.3166 35.7095L38.2921 35.9305C38.2921 35.9796 38.2921 35.9796 38.3166 35.9796L38.3658 36.0042C38.4394 36.0042 38.5131 35.9796 38.5622 35.8322H38.5868L38.5377 36.0287L38.071 35.9796C38.1202 35.9796 38.1447 35.955 38.1693 35.9059L38.2184 35.4393Z" fill="#00493D"/>
<path d="M39.0289 35.734C39.0289 35.9551 38.9553 36.0287 38.8816 36.0287C38.857 36.0042 38.857 36.0042 38.8325 36.0042L38.8079 35.9796L38.8325 35.4639C38.8325 35.4393 38.8325 35.4393 38.857 35.4393H38.9061C38.9553 35.4393 39.0289 35.513 39.0289 35.734H39.1272C39.1272 35.4884 39.0044 35.4148 38.8816 35.4148C38.7833 35.3902 38.636 35.3902 38.636 35.3902V35.4148C38.6605 35.4148 38.7097 35.4393 38.7097 35.4884L38.6851 35.9551C38.6851 36.0042 38.6605 36.0287 38.636 36.0287V36.0533H38.857C38.9798 36.0533 39.1026 36.0042 39.1272 35.734H39.0289V35.734Z" fill="#00493D"/>
<path d="M39.7411 35.9305C39.7411 35.9796 39.7657 35.9796 39.8148 35.9796V36.0042L39.5446 36.0288C39.5692 36.0042 39.6183 35.9796 39.6183 35.9305L39.5692 35.4639C39.5446 35.4148 39.5201 35.4148 39.4709 35.4148V35.3902L39.7411 35.3657C39.7165 35.3902 39.6674 35.4148 39.692 35.4639L39.7411 35.9305Z" fill="#00493D"/>
<path d="M39.9867 35.9797V35.9551C40.0113 35.9551 40.0358 35.9305 40.0358 35.8814L39.9376 35.3657H39.913C39.8639 35.3902 39.8148 35.4393 39.8393 35.5376H39.8148L39.7902 35.3657L40.2323 35.292L40.2568 35.4639H40.2323C40.2323 35.3657 40.1586 35.3411 40.0849 35.3411H40.0604L40.1586 35.8569C40.1586 35.906 40.1832 35.9305 40.2323 35.9305V35.9551L39.9867 35.9797Z" fill="#00493D"/>
<path d="M41.0427 35.4884L40.9445 35.1937C40.9445 35.1446 40.8954 35.1446 40.8708 35.1446V35.12L40.9936 35.0709V35.0955C40.9691 35.12 40.9691 35.12 40.9691 35.1692L41.0673 35.4884C41.0919 35.5867 41.0919 35.734 40.9445 35.7831C40.8463 35.8077 40.7235 35.7586 40.6989 35.6112L40.6007 35.292C40.5761 35.2428 40.5516 35.2428 40.527 35.2428L40.5024 35.2183L40.748 35.1446V35.1692C40.7235 35.1937 40.6989 35.2183 40.7235 35.2674L40.7972 35.5867C40.8217 35.6849 40.8954 35.734 40.9691 35.734C41.0427 35.7095 41.0673 35.6112 41.0427 35.4884V35.4884Z" fill="#00493D"/>
<path d="M41.3129 35.3166C41.4357 35.2674 41.4111 35.1938 41.3866 35.1201C41.362 35.0464 41.3129 34.9973 41.2638 35.0218C41.2392 35.0218 41.2147 35.0464 41.2392 35.071L41.3129 35.3166L41.3375 35.3411L41.3866 35.5376C41.4111 35.5867 41.4603 35.5867 41.4848 35.5621V35.5867L41.2638 35.6849L41.2392 35.6604C41.2883 35.6358 41.2883 35.6113 41.2883 35.5621L41.1164 35.1446C41.0919 35.071 41.0673 35.0955 41.0182 35.0955V35.071L41.2638 34.9727C41.362 34.9482 41.4603 34.9727 41.5094 35.071C41.5339 35.1938 41.4848 35.2674 41.3866 35.3166C41.362 35.3166 41.3375 35.3411 41.3375 35.3411L41.3129 35.3166Z" fill="#00493D"/>
<path d="M41.9269 35.3902C41.8532 35.4147 41.755 35.3165 41.6813 35.1446C41.6076 34.9972 41.6076 34.8499 41.6813 34.8253C41.755 34.8007 41.8532 34.899 41.9269 35.0463C42.0006 35.1937 42.0006 35.341 41.9269 35.3902C42.0743 35.341 42.1234 35.1691 42.0497 34.9972C41.976 34.8499 41.8287 34.7516 41.6813 34.8007C41.5339 34.8744 41.4848 35.0463 41.5585 35.1937C41.6322 35.3656 41.7795 35.4638 41.9269 35.3902Z" fill="#00493D"/>
<path d="M41.9515 34.7026H41.9269H41.9023L42.0497 34.6043L42.4918 34.8499L42.3444 34.5798C42.3199 34.5306 42.2707 34.5306 42.2462 34.5306V34.5061L42.369 34.457C42.3444 34.4815 42.3199 34.5061 42.369 34.5552L42.6146 35.0464L42.59 35.071L42.0497 34.7762L42.2462 35.1446C42.2707 35.1937 42.3198 35.1937 42.3444 35.1692V35.1937L42.2216 35.2674V35.2429C42.2462 35.2183 42.2462 35.1937 42.2216 35.1446L42.0251 34.7517L41.9515 34.7026V34.7026Z" fill="#00493D"/>
<path d="M43.0566 34.7763V34.7517C43.0566 34.7272 43.0811 34.7026 43.0566 34.6535L42.7619 34.236H42.7373C42.6882 34.2605 42.6636 34.3588 42.7373 34.4324L42.7127 34.457L42.6145 34.2851L42.9829 34.0395L43.0811 34.1868C43.0075 34.1132 42.9338 34.1132 42.8847 34.1377L42.8601 34.1623L43.1548 34.5798C43.1794 34.6289 43.2285 34.6289 43.253 34.6044V34.6289L43.0566 34.7763Z" fill="#00493D"/>
<path d="M43.3267 34.1868L43.4741 34.3587C43.4987 34.3833 43.5478 34.3833 43.5723 34.3587V34.3833L43.3759 34.5552V34.5307C43.4004 34.5061 43.4004 34.4815 43.3759 34.4324L43.0811 34.064C43.0566 34.0149 43.032 34.0395 42.9829 34.0395L43.1794 33.8676V33.8921C43.1794 33.9167 43.1548 33.9412 43.1794 33.9904L43.3022 34.1377L43.4495 34.0395L43.3267 33.8676C43.3022 33.8184 43.2531 33.843 43.2285 33.843L43.425 33.6711V33.6956C43.4004 33.7202 43.4004 33.7448 43.425 33.7939L43.7197 34.1623C43.7442 34.1868 43.7688 34.1868 43.7934 34.1623L43.8179 34.1868L43.6215 34.3587L43.5969 34.3342C43.6215 34.3096 43.646 34.2851 43.6215 34.2359L43.4741 34.064L43.3267 34.1868Z" fill="#00493D"/>
<path d="M43.5478 33.6711C43.5233 33.6465 43.4741 33.6465 43.4496 33.6711V33.6465L43.7689 33.3518L43.9162 33.4992H43.8917C43.818 33.4009 43.7197 33.45 43.6706 33.4746C43.6706 33.4992 43.6461 33.4992 43.6215 33.5237C43.6215 33.5237 43.6215 33.5483 43.6461 33.5974C43.6706 33.622 43.7934 33.7448 43.7934 33.7448C43.818 33.7202 43.8917 33.6711 43.7934 33.5483H43.818L44.0144 33.7693V33.7939C43.8917 33.6711 43.8425 33.7448 43.818 33.7693L43.9653 33.9167C43.9899 33.9658 44.0144 33.9658 44.0144 33.9658C44.039 33.9412 44.0636 33.9167 44.0881 33.8921C44.1127 33.8676 44.1372 33.7939 44.0881 33.6465H44.1127L44.2109 33.8184L43.8917 34.1377L43.8671 34.1131C43.8917 34.0886 43.9162 34.064 43.8671 34.0149L43.5478 33.6711Z" fill="#00493D"/>
<path d="M44.137 32.9834C44.1124 33.0079 44.1124 33.057 44.1615 33.0816C44.2106 33.1307 44.2598 33.1307 44.358 33.0816C44.4071 33.057 44.5054 33.0325 44.579 33.1062C44.7018 33.2289 44.6527 33.3272 44.6281 33.3763C44.6036 33.4009 44.5545 33.4254 44.5299 33.45C44.5054 33.45 44.5054 33.45 44.5054 33.4745V33.4991L44.3334 33.3517H44.358C44.4562 33.4009 44.5545 33.4254 44.6036 33.3517C44.6527 33.3026 44.6036 33.2535 44.579 33.2289C44.5299 33.1798 44.4808 33.1798 44.4071 33.2289C44.3334 33.2535 44.2352 33.2535 44.1615 33.2044C44.0633 33.1062 44.0633 33.0325 44.1124 32.9588C44.137 32.9342 44.1861 32.9097 44.2106 32.8851C44.2352 32.8851 44.2352 32.8851 44.2106 32.836L44.3826 32.9588H44.358C44.2352 32.9097 44.1615 32.9342 44.137 32.9834V32.9834Z" fill="#00493D"/>
<path d="M44.3584 32.7869C44.3093 32.7623 44.2847 32.7869 44.2602 32.8115H44.2356L44.5057 32.4185L44.6777 32.5413L44.6531 32.5659C44.5549 32.4922 44.4566 32.5413 44.4321 32.5659C44.4321 32.5904 44.4075 32.615 44.4075 32.6396C44.383 32.6396 44.383 32.6641 44.4321 32.6887C44.4566 32.7132 44.604 32.8115 44.604 32.8115C44.6285 32.7869 44.6777 32.7378 44.5794 32.6396V32.615L44.825 32.8115C44.6777 32.7378 44.6531 32.8115 44.6285 32.836L44.8005 32.9588C44.8496 32.9834 44.8741 32.9834 44.8741 32.9834C44.8741 32.9588 44.8987 32.9343 44.9233 32.9097C44.9478 32.8606 44.9724 32.7869 44.8741 32.6887L44.8987 32.6641L45.0215 32.8115L44.7759 33.1799H44.7513C44.7759 33.1307 44.7759 33.1062 44.7268 33.0571L44.3584 32.7869Z" fill="#00493D"/>
<path d="M45.0215 32.3448L44.9478 32.4676C44.8496 32.3694 44.8005 32.2957 44.8005 32.2957L45.0215 32.3448H45.0706C45.0952 32.3448 45.1443 32.3694 45.1689 32.3694C45.2426 32.394 45.218 32.4185 45.1934 32.4676H45.218L45.3408 32.2466C45.2917 32.2957 45.2671 32.2712 45.218 32.2712C44.7023 32.1729 44.6531 32.1484 44.6531 32.1484V32.1729L45.0461 32.615C45.0706 32.6396 45.0706 32.6887 45.0706 32.7132H45.0952L45.1689 32.5904L45.1443 32.5659C45.1198 32.615 45.0952 32.6396 45.0461 32.5659C45.0215 32.5413 44.997 32.5168 44.997 32.5168L45.0706 32.3448H45.0215Z" fill="#00493D"/>
<path d="M44.8739 31.8045C44.8493 31.8291 44.8493 31.8782 44.923 31.9028C44.9967 31.9273 45.0213 31.9028 45.0949 31.8537C45.1686 31.8045 45.2423 31.7554 45.3405 31.8045C45.4879 31.8782 45.4633 32.001 45.4388 32.0501C45.4142 32.0747 45.3897 32.1238 45.3651 32.1484V32.1729V32.1975L45.1686 32.0993C45.2914 32.1238 45.3897 32.0993 45.4142 32.0256C45.4388 31.9765 45.3897 31.9273 45.3651 31.9028C45.316 31.8782 45.2669 31.9028 45.1932 31.9519C45.1195 32.0256 45.0458 32.0501 44.9476 32.001C44.8493 31.9519 44.8002 31.8782 44.8493 31.8045C44.8493 31.7554 44.8985 31.7309 44.923 31.7063C44.923 31.6817 44.923 31.6817 44.8985 31.6572V31.6326L45.0949 31.7309H45.0704C44.9476 31.7063 44.8739 31.7554 44.8739 31.8045V31.8045Z" fill="#00493D"/>
<path d="M37.1133 23.1105C36.794 23.1842 36.573 23.2088 36.2783 22.9386C36.0818 22.7422 36.1309 22.3983 36.3274 22.2755C36.5484 22.1282 36.7449 22.0299 37.0151 22.1036C37.2852 22.1773 37.9974 22.8404 37.8255 22.8649C37.6536 22.8649 37.3834 23.0369 37.1133 23.1105L37.1133 23.1105Z" fill="white" stroke="black" stroke-width="0.0736776"/>
<path d="M37.8746 21.9317C37.9729 21.858 38.0957 21.8089 38.4149 21.7843C38.7097 21.7597 38.9307 21.7597 39.0044 21.9808C39.1026 22.2509 39.1763 22.5702 39.3728 22.7176C39.25 22.7912 38.636 22.8649 38.4149 22.7421C38.1202 22.5948 38.0465 22.0299 37.8746 21.9317H37.8746Z" fill="white" stroke="black" stroke-width="0.0736776"/>
<path d="M39.9868 21.9563C40.085 21.8826 40.2078 21.8826 40.5271 21.9071C40.8463 21.9317 40.9691 21.9563 41.0428 22.1773C41.1165 22.4229 41.0428 22.7422 41.1902 22.9632C41.0428 23.0123 40.5516 23.0123 40.3797 22.8404C40.1096 22.6439 40.1341 22.0791 39.9868 21.9563L39.9868 21.9563Z" fill="white" stroke="black" stroke-width="0.0736776"/>
<path d="M41.4603 22.1036C41.2392 22.0544 41.0919 22.0299 40.9937 22.1036C41.1164 22.2509 41.0182 22.8404 41.2638 23.0368C41.4357 23.1596 41.8778 23.1842 41.976 22.914C42.0988 22.6684 42.0988 22.3 41.4603 22.1036V22.1036Z" fill="#073163" stroke="black" stroke-width="0.0736776"/>
<path d="M38.9307 21.858C39.0044 21.7843 39.1518 21.7598 39.4465 21.7598C39.7657 21.7598 39.9622 21.8089 40.0605 22.0054C40.1587 22.251 40.1341 22.5702 40.306 22.7667C40.2324 22.8649 39.5693 22.8649 39.3728 22.7176C39.1026 22.5457 39.0781 21.9808 38.9307 21.858L38.9307 21.858Z" fill="#073163" stroke="black" stroke-width="0.0736776"/>
<path d="M36.8431 22.079C36.8431 21.9562 37.0151 21.9317 37.4571 21.9071C37.8992 21.858 37.9237 21.8825 38.0711 22.2018C38.1448 22.3737 38.243 22.6684 38.4395 22.7667C37.8992 22.8895 37.7273 22.9631 37.4326 22.7912C37.2115 22.6684 36.9659 22.3737 36.9168 22.2509C36.8923 22.1772 36.8923 22.1036 36.8431 22.079L36.8431 22.079Z" fill="#073163" stroke="black" stroke-width="0.0736776"/>
<path d="M38.0219 19.574C37.5062 19.1811 36.8922 18.8127 36.3273 18.739C36.6957 18.96 37.7272 19.7705 37.9974 20.0407" fill="#F9D050"/>
<path d="M38.0219 19.574C37.5062 19.1811 36.8922 18.8127 36.3273 18.739C36.6957 18.96 37.7272 19.7705 37.9974 20.0407" stroke="black" stroke-width="0.0331516"/>
<path d="M38.3167 19.2056C37.7027 18.7881 36.9905 18.3215 36.3028 18.2723C36.8185 18.5425 37.5799 19.181 37.9974 19.6968" fill="#F9D050"/>
<path d="M38.3167 19.2056C37.7027 18.7881 36.9905 18.3215 36.3028 18.2723C36.8185 18.5425 37.5799 19.181 37.9974 19.6968" stroke="black" stroke-width="0.0331516"/>
<path d="M39.1025 18.518C39.4464 17.7566 39.8148 17.3391 40.3059 16.8725C40.0603 17.3882 39.7902 18.4443 39.6674 18.8618" fill="#F9D050"/>
<path d="M39.1025 18.518C39.4464 17.7566 39.8148 17.3391 40.3059 16.8725C40.0603 17.3882 39.7902 18.4443 39.6674 18.8618" stroke="black" stroke-width="0.0331516"/>
<path d="M39.6429 18.3952C39.8885 17.8549 40.2569 17.3883 40.8954 17.0936C40.5761 17.4128 40.0849 18.3706 39.9622 18.8864" fill="#F9D050"/>
<path d="M39.6429 18.3952C39.8885 17.8549 40.2569 17.3883 40.8954 17.0936C40.5761 17.4128 40.0849 18.3706 39.9622 18.8864" stroke="black" stroke-width="0.0331516"/>
<path d="M39.8639 18.8864C40.1586 18.4688 40.748 17.683 41.8041 17.2654C41.1901 17.8794 40.2814 19.0092 40.0604 19.4512" fill="#F9D050"/>
<path d="M39.8639 18.8864C40.1586 18.4688 40.748 17.683 41.8041 17.2654C41.1901 17.8794 40.2814 19.0092 40.0604 19.4512" stroke="black" stroke-width="0.0331516"/>
<path d="M40.2077 19.4266C40.6498 19.181 41.5339 18.7881 42.1724 18.9109C41.7795 19.0583 40.6006 19.5986 40.0849 20.0897" fill="#F9D050"/>
<path d="M40.2077 19.4266C40.6498 19.181 41.5339 18.7881 42.1724 18.9109C41.7795 19.0583 40.6006 19.5986 40.0849 20.0897" stroke="black" stroke-width="0.0331516"/>
<path d="M40.1095 19.2547C40.527 18.8126 41.2883 18.1495 42.0988 17.8794C41.5093 18.4443 40.2568 19.7213 40.0849 19.9178" fill="#F9D050"/>
<path d="M40.1095 19.2547C40.527 18.8126 41.2883 18.1495 42.0988 17.8794C41.5093 18.4443 40.2568 19.7213 40.0849 19.9178" stroke="black" stroke-width="0.0331516"/>
<path d="M38.9306 18.9846C38.6359 18.0759 38.1939 17.2163 37.5308 16.9462C37.8992 17.4865 38.3658 18.2724 38.6114 19.4512" fill="#F9D050"/>
<path d="M38.9306 18.9846C38.6359 18.0759 38.1939 17.2163 37.5308 16.9462C37.8992 17.4865 38.3658 18.2724 38.6114 19.4512" stroke="black" stroke-width="0.0331516"/>
<path d="M38.3658 18.96C37.8746 18.3706 37.2115 17.7812 36.4501 17.6584C36.9659 17.9531 37.8255 18.8127 38.1447 19.6477" fill="#F9D050"/>
<path d="M38.3658 18.96C37.8746 18.3706 37.2115 17.7812 36.4501 17.6584C36.9659 17.9531 37.8255 18.8127 38.1447 19.6477" stroke="black" stroke-width="0.0331516"/>
<path d="M38.6359 18.9355C38.0219 17.8303 37.5553 17.6338 37.2852 17.4128C37.5062 17.8303 38.0465 18.9355 38.3658 19.4021" fill="#F9D050"/>
<path d="M38.6359 18.9355C38.0219 17.8303 37.5553 17.6338 37.2852 17.4128C37.5062 17.8303 38.0465 18.9355 38.3658 19.4021" stroke="black" stroke-width="0.0331516"/>
<path d="M37.408 18.8618C37.7027 19.0337 38.1447 19.4512 38.2921 19.7214" stroke="black" stroke-width="0.0331516"/>
<path d="M37.408 19.3776C37.5553 19.5004 37.8255 19.6477 38.0711 19.8687Z" fill="#F9D050"/>
<path d="M37.408 19.3776C37.5553 19.5004 37.8255 19.6477 38.0711 19.8687" stroke="black" stroke-width="0.0331516"/>
<path d="M40.3305 19.7459C40.5761 19.5494 41.1164 19.2301 41.3866 19.1319Z" fill="#F9D050"/>
<path d="M40.3305 19.7459C40.5761 19.5494 41.1164 19.2301 41.3866 19.1319" stroke="black" stroke-width="0.0331516"/>
<path d="M40.1586 19.574C40.4042 19.2548 40.8954 18.8127 41.0673 18.6653Z" fill="#F9D050"/>
<path d="M40.1586 19.574C40.4042 19.2548 40.8954 18.8127 41.0673 18.6653" stroke="black" stroke-width="0.0331516"/>
<path d="M40.8463 18.0513C40.6252 18.2969 40.1095 18.9109 39.913 19.2056Z" fill="#F9D050"/>
<path d="M40.8463 18.0513C40.6252 18.2969 40.1095 18.9109 39.913 19.2056" stroke="black" stroke-width="0.0331516"/>
<path d="M40.2077 17.8303C40.0358 18.0514 39.692 18.6899 39.5938 18.9109Z" fill="#F9D050"/>
<path d="M40.2077 17.8303C40.0358 18.0514 39.692 18.6899 39.5938 18.9109" stroke="black" stroke-width="0.0331516"/>
<path d="M38.2675 17.8795C38.4149 18.2724 38.685 18.9355 38.7833 19.2057Z" fill="#F9D050"/>
<path d="M38.2675 17.8795C38.4149 18.2724 38.685 18.9355 38.7833 19.2057" stroke="black" stroke-width="0.0331516"/>
<path d="M38.0465 18.2969C38.1447 18.4443 38.3412 18.7881 38.4149 19.0337Z" fill="#F9D050"/>
<path d="M38.0465 18.2969C38.1447 18.4443 38.3412 18.7881 38.4149 19.0337" stroke="black" stroke-width="0.0331516"/>
<path d="M38.8815 18.1741C38.8815 17.9531 39.0288 17.7075 39.1762 17.7075C39.3481 17.7075 39.4709 18.0022 39.4709 18.1741C39.4709 18.3706 39.3235 18.5425 39.1762 18.5425C39.0288 18.5425 38.8815 18.3951 38.8815 18.1741V18.1741Z" fill="#F9D050" stroke="black" stroke-width="0.0331516"/>
<path d="M38.5622 18.3706C38.5868 18.125 38.7587 17.9285 38.9061 17.9531C39.0534 17.9776 39.1271 18.2723 39.1025 18.4443C39.078 18.6407 38.9061 18.7881 38.7833 18.7635C38.6605 18.7635 38.5377 18.5916 38.5622 18.3706V18.3706Z" fill="#F9D050" stroke="black" stroke-width="0.0331516"/>
<path d="M39.2254 18.4443C39.1762 18.2233 39.2745 17.9777 39.4218 17.9531C39.5692 17.9286 39.7165 18.1742 39.7411 18.3706C39.7902 18.5671 39.6674 18.7636 39.5446 18.7636C39.4218 18.7881 39.2499 18.6653 39.2254 18.4443V18.4443Z" fill="#F9D050" stroke="black" stroke-width="0.0331516"/>
<path d="M38.8569 18.6408C38.8569 18.3952 39.0043 18.1741 39.1516 18.1741C39.3236 18.1741 39.4464 18.4443 39.4464 18.6408C39.4464 18.8372 39.299 19.0092 39.1516 19.0092C39.0043 19.0092 38.8569 18.8618 38.8569 18.6408V18.6408Z" fill="#F9D050" stroke="black" stroke-width="0.0331516"/>
<path d="M38.4149 18.7636C38.4149 18.5425 38.5868 18.2969 38.7342 18.2969C38.8815 18.2969 39.0289 18.5916 39.0289 18.7636C39.0289 18.96 38.857 19.132 38.7342 19.132C38.5868 19.132 38.4149 18.9846 38.4149 18.7636V18.7636Z" fill="#F9D050" stroke="black" stroke-width="0.0331516"/>
<path d="M39.3236 18.6653C39.3236 18.4443 39.471 18.1987 39.6183 18.1987C39.7902 18.1987 39.913 18.4934 39.913 18.6653C39.913 18.8618 39.7657 19.0337 39.6183 19.0337C39.471 19.0337 39.3236 18.8863 39.3236 18.6653Z" fill="#F9D050" stroke="black" stroke-width="0.0331516"/>
<path d="M39.2253 18.8618C39.2253 18.6162 39.3973 18.3951 39.5446 18.3951C39.692 18.3951 39.8393 18.6653 39.8393 18.8618C39.8393 19.0582 39.692 19.2302 39.5446 19.2302C39.3973 19.2302 39.2253 19.0828 39.2253 18.8618Z" fill="#F9D050" stroke="black" stroke-width="0.0331516"/>
<path d="M38.8324 19.0828C38.8324 18.8372 38.9798 18.6162 39.1271 18.6162C39.299 18.6162 39.4218 18.9109 39.4218 19.0828C39.4218 19.2793 39.2745 19.4512 39.1271 19.4512C38.9798 19.4512 38.8324 19.3039 38.8324 19.0828Z" fill="#F9D050" stroke="black" stroke-width="0.0331516"/>
<path d="M38.2184 19.0828C38.2184 18.8372 38.3412 18.6162 38.464 18.6162C38.5868 18.6162 38.685 18.9109 38.685 19.0828C38.685 19.2793 38.5622 19.4512 38.464 19.4512C38.3412 19.4512 38.2184 19.3039 38.2184 19.0828Z" fill="#F9D050" stroke="black" stroke-width="0.0331516"/>
<path d="M39.5938 19.0337C39.5938 18.8127 39.7165 18.5917 39.8393 18.5917C39.9621 18.5917 40.0849 18.8618 40.0849 19.0337C40.0849 19.2548 39.9376 19.4021 39.8393 19.4021C39.7165 19.4021 39.5938 19.2548 39.5938 19.0337V19.0337Z" fill="#F9D050" stroke="black" stroke-width="0.0331516"/>
<path d="M39.7411 19.4512C39.7903 19.2056 39.9376 19.0091 40.0358 19.0337C40.1341 19.0583 40.1586 19.353 40.1095 19.5249C40.085 19.7459 39.9376 19.8687 39.8394 19.8442C39.7411 19.8196 39.692 19.6477 39.7411 19.4512V19.4512Z" fill="#F9D050" stroke="black" stroke-width="0.0331516"/>
<path d="M39.2745 19.3775C39.299 19.1565 39.4464 18.9354 39.5692 18.96C39.7165 18.96 39.7902 19.2547 39.7656 19.4266C39.7411 19.6477 39.6183 19.795 39.4955 19.7705C39.3727 19.7705 39.2499 19.5985 39.2745 19.3775V19.3775Z" fill="#F9D050" stroke="black" stroke-width="0.0331516"/>
<path d="M38.5868 19.4513C38.5131 19.2057 38.3658 19.0337 38.2676 19.0583C38.1693 19.0829 38.1448 19.3776 38.1939 19.5495C38.243 19.746 38.3903 19.8688 38.4886 19.8442C38.5623 19.8196 38.6359 19.6477 38.5868 19.4513V19.4513Z" fill="#F9D050" stroke="black" stroke-width="0.0331516"/>
<path d="M38.4149 19.4021C38.4149 19.1811 38.5377 18.96 38.6605 18.96C38.8079 18.96 38.9061 19.2302 38.9061 19.4021C38.9061 19.6231 38.7833 19.7705 38.6605 19.7705C38.5623 19.7705 38.4149 19.6231 38.4149 19.4021V19.4021Z" fill="#F9D050" stroke="black" stroke-width="0.0331516"/>
<path d="M38.7833 19.5003C38.7833 19.2547 38.9306 19.0337 39.078 19.0337C39.2499 19.0337 39.3727 19.3038 39.3727 19.5003C39.3727 19.6968 39.2253 19.8687 39.078 19.8687C38.9306 19.8687 38.7833 19.7214 38.7833 19.5003Z" fill="#F9D050" stroke="black" stroke-width="0.0331516"/>
<path d="M38.9061 16.7988C38.857 16.9953 38.6851 17.1672 38.8079 17.4373C38.5868 17.3637 38.3904 17.3391 38.2184 17.5356C38.4395 17.511 38.636 17.5847 38.7342 17.732C38.5377 17.7075 38.4395 17.8057 38.3904 17.9285C38.5623 17.8794 38.7342 17.8303 38.8079 17.8548C38.7342 17.9285 38.6114 18.0513 38.5868 18.1496C38.7342 18.0268 38.9061 18.0513 39.0043 17.9776C38.9307 18.1496 39.078 18.3215 39.2008 18.4934C39.1763 18.2478 39.3236 18.0759 39.2499 17.9531C39.471 18.0022 39.4955 18.1987 39.8148 18.1987C39.692 18.125 39.6183 17.8794 39.471 17.8794C39.5446 17.8548 39.8394 17.8303 39.8885 17.8794C39.8394 17.7812 39.6674 17.6829 39.5692 17.6829C39.6674 17.5847 39.8394 17.3882 39.9622 17.3391C39.7902 17.3637 39.5201 17.3882 39.4218 17.5356C39.6674 17.3391 39.6183 16.9707 39.8885 16.9216C39.7411 16.897 39.5201 16.9953 39.3482 17.1672C39.4218 17.0198 39.4218 16.8233 39.5201 16.7742C39.3236 16.8233 39.1026 17.0689 39.0289 17.1917C39.0289 17.0689 38.9552 16.8725 38.9061 16.7988V16.7988Z" fill="#F9D050" stroke="black" stroke-width="0.0331516"/>
<path d="M39.0289 17.1918C39.0289 17.2655 39.0289 17.4128 39.0043 17.4619Z" fill="#F9D050"/>
<path d="M39.0289 17.1918C39.0289 17.2655 39.0289 17.4128 39.0043 17.4619" stroke="black" stroke-width="0.0331516"/>
<path d="M39.3482 17.1672C39.299 17.2163 39.2008 17.3882 39.2008 17.5356Z" fill="#F9D050"/>
<path d="M39.3482 17.1672C39.299 17.2163 39.2008 17.3882 39.2008 17.5356" stroke="black" stroke-width="0.0331516"/>
<path d="M39.4955 17.4619C39.4218 17.511 39.3481 17.5847 39.3235 17.6829" stroke="black" stroke-width="0.0331516"/>
<path d="M36.8922 19.8932C36.7203 19.8932 36.573 19.8196 36.4747 19.6968C36.3028 19.4757 35.8362 19.3775 35.6397 19.574C35.566 19.6231 35.4678 19.6231 35.3941 19.6476C35.2713 19.6476 35.124 19.7704 35.1731 20.016C35.2713 19.9424 35.2959 20.016 35.3696 20.016C35.4187 19.9915 35.3941 20.0406 35.3941 20.0897C35.3941 20.2125 35.6643 20.4581 35.9099 20.4335C36.18 20.4335 36.3028 20.5318 36.3519 20.5809C36.4256 20.6546 36.3765 20.63 36.4256 20.7528C36.4993 20.8265 36.5238 20.8511 36.401 20.9493C36.2291 21.0966 36.1063 21.4405 36.401 21.7106C36.7203 21.9562 37.5308 22.3246 38.4395 21.6124C39.3236 20.9247 40.6989 21.3177 40.7972 21.5633C40.92 21.8089 40.9691 21.9562 40.9936 22.079C41.0182 22.1773 41.141 22.2755 41.3129 22.2509C41.4848 22.2509 41.6813 22.3246 41.7795 22.3983C41.9023 22.472 42.0743 22.4474 42.0251 22.2264C41.9269 21.5387 41.5094 21.4405 41.4603 21.1212C41.7059 21.1458 41.8778 21.1458 41.976 21.0475C42.0497 20.9493 42.1479 20.7774 42.2462 20.7283C42.3198 20.6791 42.3198 20.63 42.2216 20.6546C42.0988 20.6791 42.0251 20.7283 41.8041 20.7037C40.6744 20.5809 37.5062 19.7213 36.8922 19.8932H36.8922Z" fill="#059334" stroke="black" stroke-width="0.0736776"/>
<path d="M41.9024 20.7283C41.7796 20.8019 41.6568 20.9247 41.4357 21.2195C41.1901 21.5387 40.4534 21.858 39.5447 21.858C38.6605 21.858 38.1202 21.7106 37.7273 21.3914C37.5062 21.2195 37.3343 21.1212 37.187 21.0475C36.9168 20.9247 36.8677 20.6546 36.9414 20.4336C36.8677 20.5563 36.8186 20.6791 36.6712 20.6546C36.573 20.6546 36.3765 20.6546 36.4256 20.7528C36.4011 20.7037 36.4011 20.63 36.3765 20.6055C36.352 20.5809 36.3274 20.5563 36.3274 20.5563C36.4011 20.6055 36.573 20.4581 36.6958 20.4581C36.794 20.4827 36.9168 20.3599 36.8923 20.2125C36.8677 20.0897 36.8431 19.9915 36.8186 19.8932C37.0151 19.795 39.5938 20.2616 40.1095 20.3108C40.6253 20.3353 42.0988 20.5563 41.9024 20.7283V20.7283Z" fill="black" stroke="black" stroke-width="0.0736776"/>
<path d="M37.2361 19.795C37.4817 19.5494 37.7764 19.4266 38.0711 19.5003H38.1448C38.2922 19.3775 38.636 19.3529 38.8325 19.4512H38.9307C39.2254 19.3529 39.7903 19.4512 39.9868 19.6477L40.0604 19.6968C40.7235 19.6477 41.1165 19.9424 41.5831 20.409C41.6322 20.4581 41.7059 20.5563 41.8287 20.5809C41.9761 20.6055 42.0006 20.6791 41.8778 20.7528C41.7305 20.8265 41.6077 20.9493 41.3621 21.2195C41.141 21.5142 40.4288 21.8089 39.5447 21.8089C38.6851 21.8089 38.1694 21.6615 37.7764 21.3668C37.5554 21.1949 37.3835 21.0967 37.2607 21.023C37.1133 20.9739 36.9168 20.7774 36.9905 20.5809C37.0396 20.3844 36.9168 20.1388 36.8186 19.8932C36.8923 19.8441 37.0888 19.7704 37.187 19.8196L37.2361 19.795L37.2361 19.795Z" fill="#059334" stroke="black" stroke-width="0.0736776"/>
<path d="M41.5831 20.409C41.1164 19.9424 40.7235 19.6477 40.0604 19.6968C40.0604 19.7214 40.0604 19.795 40.0358 19.8442C40.4288 19.9915 40.9936 20.4336 41.2392 20.7528C41.3375 20.6546 41.5094 20.5318 41.5831 20.409L41.5831 20.409Z" fill="#00493D" stroke="black" stroke-width="0.0736776"/>
<path d="M39.9867 19.6477C39.7902 19.4512 39.2254 19.353 38.9306 19.4512C38.9306 19.5494 38.9306 19.6968 38.8815 19.795C39.0534 19.8687 39.2008 20.0406 39.3482 20.2125C39.4464 20.188 39.692 20.1143 39.8148 20.0897C39.8639 19.9915 39.9621 19.7705 39.9867 19.6477H39.9867Z" fill="#00493D" stroke="black" stroke-width="0.0736776"/>
<path d="M38.8324 19.4512C38.636 19.3529 38.2921 19.3775 38.1448 19.5003C38.0957 19.5985 38.0711 19.795 38.0711 19.8932C38.1693 19.8932 38.3167 19.9669 38.3658 20.016C38.5132 19.9669 38.7096 19.8687 38.7833 19.795C38.8079 19.6968 38.857 19.5494 38.8324 19.4512V19.4512Z" fill="#00493D" stroke="black" stroke-width="0.0736776"/>
<path d="M37.2361 19.795C37.4817 19.5494 37.7764 19.4266 38.0711 19.5003C38.022 19.574 37.9974 19.7213 37.9974 19.8687C37.7273 19.8441 37.3834 19.9178 37.2361 20.016V19.795V19.795Z" fill="#00493D" stroke="black" stroke-width="0.0736776"/>
<path d="M41.141 20.802C40.92 20.4827 40.3797 20.1143 40.0113 19.9424C40.0113 19.9669 39.9622 20.0652 39.9376 20.1389C40.085 20.3599 40.3797 20.8511 40.5025 21.1212C40.6253 21.0721 40.9691 20.9248 41.141 20.802V20.802Z" fill="#00493D" stroke="black" stroke-width="0.0736776"/>
<path d="M39.2745 21.3423C39.3236 20.9984 39.3482 20.5072 39.3482 20.3353C39.471 20.3108 39.7165 20.2371 39.8148 20.2125C39.9376 20.409 40.2323 20.9247 40.3551 21.1703C40.0604 21.244 39.5692 21.3668 39.2745 21.3423V21.3423Z" fill="#00493D" stroke="black" stroke-width="0.0736776"/>
<path d="M38.4149 20.1634C38.5377 20.1143 38.7096 20.016 38.8324 19.9178C38.9307 19.9915 39.1271 20.1634 39.2008 20.2616C39.2008 20.4826 39.1271 21.1212 39.1026 21.3422C38.9061 21.3422 38.5868 21.2931 38.4149 21.1949C38.4395 20.8265 38.464 20.409 38.4149 20.1634L38.4149 20.1634Z" fill="#00493D" stroke="black" stroke-width="0.0736776"/>
<path d="M37.187 20.4581C37.2115 20.409 37.2361 20.237 37.2361 20.1634C37.4325 20.0406 37.9237 19.9178 38.2921 20.1142C38.3167 20.3598 38.2921 20.9738 38.2676 21.1212C37.9483 20.8756 37.4325 20.5317 37.187 20.4581L37.187 20.4581Z" fill="#00493D" stroke="black" stroke-width="0.0736776"/>
<path d="M35.959 20.016C35.9099 20.016 35.8853 19.8687 35.7871 19.8687C35.7625 19.8687 35.6889 19.8932 35.6643 19.8687C35.6643 19.9178 35.6889 19.9669 35.7134 19.9914C35.738 20.0651 35.8608 20.016 35.959 20.016V20.016Z" fill="black"/>
<path d="M35.959 20.4335C36.2537 20.4335 36.3028 20.0651 36.4502 20.0406" stroke="black" stroke-width="0.0736776"/>
<path d="M36.1309 20.4581C36.352 20.5563 36.5239 20.0406 36.6958 20.0651" stroke="black" stroke-width="0.0736776"/>
<path d="M35.6889 19.8196C35.7626 19.8196 35.8117 19.7213 35.9345 19.8441C35.9836 19.8932 36.0573 19.9178 36.1064 19.9178" stroke="black" stroke-width="0.0736776"/>
<path d="M36.0572 20.188C35.959 20.3353 35.7871 20.4336 35.6888 20.3845" stroke="black" stroke-width="0.0736776"/>
<path d="M35.6397 19.574C35.5661 19.6231 35.517 19.7213 35.4678 19.795" stroke="black" stroke-width="0.0736776"/>
<path d="M35.3942 19.9423V20.0651" stroke="black" stroke-width="0.0736776"/>
<path d="M43.5974 23.1341V27.9232C43.5974 32.0737 41.6327 33.4983 39.0048 34.6278C36.377 33.4981 34.3877 32.0737 34.3877 27.9232V23.1341H43.5973H43.5974Z" fill="white"/>
<path d="M39.0052 27.1856C39.2262 27.1856 39.57 26.9891 39.8647 26.6944C40.184 26.3506 40.7243 26.2278 41.2892 26.6944C41.854 27.161 42.1979 26.9646 42.4926 26.6944C42.7873 26.4243 43.0329 26.326 43.5978 26.326V23.1333H34.3882V26.326C34.953 26.326 35.1987 26.4243 35.4934 26.6944C35.7881 26.9646 36.1319 27.161 36.6968 26.6944C37.2862 26.2278 37.802 26.3506 38.1458 26.6944C38.416 26.9891 38.7598 27.1856 39.0054 27.1856H39.0052Z" fill="#CF142B"/>
<path d="M39.0042 29.6419C39.2989 29.6419 39.8883 29.3226 40.0357 29.2489C40.576 28.9297 40.9689 29.2244 41.2882 29.3717C41.632 29.5191 42.2706 29.691 42.6635 29.3717C43.0565 29.0525 43.2775 29.077 43.5476 29.077C43.5968 28.7086 43.5968 28.3402 43.5968 27.9227V27.628C43.2529 27.5543 43.081 27.6526 42.7126 27.9718C42.3443 28.2911 41.9267 28.2174 41.3864 28.021C40.8707 27.7999 40.3549 27.407 39.8392 28.021C39.6918 28.1929 39.348 28.4385 39.0042 28.4385C38.6358 28.4385 38.3165 28.1929 38.1691 28.021C37.6289 27.407 37.1376 27.7999 36.6219 28.021C36.0816 28.2174 35.6395 28.2911 35.2711 27.9718C34.9273 27.6526 34.7554 27.5543 34.387 27.628V27.9227C34.387 28.3402 34.4116 28.7087 34.4607 29.077C34.7309 29.077 34.9273 29.0525 35.3203 29.3717C35.7132 29.691 36.3763 29.5191 36.6956 29.3717C37.0394 29.2244 37.4324 28.9297 37.9727 29.2489C38.12 29.3226 38.6849 29.6419 39.0041 29.6419H39.0042Z" fill="#0B50A0"/>
<path d="M39.0042 30.6976C39.3726 30.6976 39.8147 30.5502 40.2076 30.3292C40.6988 30.059 41.0426 30.1818 41.5338 30.4274C42.0495 30.673 42.4671 30.5993 42.7618 30.4274C42.9091 30.3292 43.0319 30.1327 43.3512 30.2064C43.2039 30.8204 42.9828 31.3607 42.7127 31.8027C42.2215 31.9255 41.9514 31.9255 41.4356 31.7045C40.9199 31.4589 40.2813 31.3116 39.9375 31.5326C39.6182 31.7291 39.2744 31.8273 39.0043 31.8273C38.7341 31.8273 38.3903 31.7291 38.071 31.5326C37.7272 31.3116 37.0886 31.4589 36.5729 31.7045C36.0571 31.9255 35.787 31.9255 35.2958 31.8027C35.0257 31.3607 34.8046 30.8204 34.6573 30.2064C34.9766 30.1327 35.0994 30.3292 35.2467 30.4274C35.5169 30.5993 35.959 30.673 36.4501 30.4274C36.9659 30.1818 37.3097 30.059 37.8009 30.3292C38.1938 30.5502 38.6359 30.6976 39.0043 30.6976H39.0042Z" fill="#0B50A0"/>
<path d="M39.0042 34.6272C39.9865 34.2097 40.8953 33.7431 41.632 33.1045C41.4356 33.0308 41.3128 33.0799 41.1408 32.9571C40.9689 32.8343 40.4532 32.7852 40.0111 33.0308C39.5445 33.2518 39.348 33.3009 39.0042 33.3009C38.6603 33.3009 38.4639 33.2518 37.9972 33.0308C37.5551 32.7852 37.0394 32.8343 36.8675 32.9571C36.6956 33.0799 36.5728 33.0308 36.3763 33.1045C37.1131 33.743 37.9972 34.2097 39.0041 34.6272H39.0042Z" fill="#0B50A0"/>
<path d="M35.4682 30.8451L36.6961 27.063L37.9241 30.8451L34.7068 28.512H38.6855L35.4682 30.8451Z" fill="#F9D050"/>
<path d="M35.7136 30.5013L38.2678 28.6347H35.1242L37.6538 30.5013L36.696 27.505L35.7136 30.5013Z" fill="#024919"/>
<path d="M43.5974 23.1341V27.9232C43.5974 32.0737 41.6327 33.4983 39.0048 34.6278C36.377 33.4981 34.3877 32.0737 34.3877 27.9232V23.1341H43.5973H43.5974Z" stroke="black" stroke-width="0.0736776"/>
<path d="M37.0624 25.5807C37.0624 25.5807 36.9067 25.5794 36.8444 25.5429C36.7766 25.5033 36.7041 25.363 36.7041 25.363C36.7041 25.363 36.5325 25.3909 36.4536 25.3738C36.3711 25.3559 36.2532 25.2616 36.2532 25.2616C36.332 25.25 36.3908 25.2381 36.4671 25.1764C36.4671 25.1764 36.3152 25.1683 36.2287 25.135C36.1534 25.106 36.0305 25.0099 36.0305 25.0099C36.1007 24.9925 36.1767 24.9947 36.232 24.926C36.232 24.926 36.0832 24.9274 36.0158 24.9027C35.9485 24.8781 35.8417 24.7835 35.8417 24.7835C35.9234 24.7764 36.0012 24.7612 36.0538 24.6952C36.0538 24.6952 35.9031 24.7003 35.8392 24.6752C35.7511 24.6406 35.6162 24.5252 35.6162 24.5252C35.701 24.5189 35.7854 24.5115 35.8495 24.4634L35.8019 24.3666C35.7443 24.2498 35.6238 24.291 35.5436 24.2588C35.465 24.2271 35.4209 24.1409 35.4166 24.0925C35.409 24.0073 35.4526 23.877 35.645 23.9042C35.5493 23.7584 35.649 23.6536 35.7508 23.6117C35.8486 23.5713 35.935 23.5824 36.0014 23.742C36.0014 23.742 36.0907 23.6698 36.1391 23.6591C36.2064 23.6442 36.2823 23.6665 36.3063 23.7295C36.3161 23.7554 36.3197 23.8096 36.3032 23.842C36.2771 23.8932 36.2196 23.9282 36.2008 24.0031C36.1795 24.0879 36.2578 24.2357 36.2578 24.2357C36.2578 24.2357 36.6278 24.5288 36.7979 24.6893C36.8884 24.7747 37.0529 24.9595 37.0529 24.9595L37.062 24.9542H37.4286L37.4614 25.5729L37.0624 25.5807L37.0624 25.5807Z" fill="#E4C900" stroke="#806600" stroke-width="0.0357333"/>
<path d="M36.5804 24.6369C36.4717 24.5403 36.1813 24.3246 36.1813 24.3246C36.1813 24.3246 36.1149 24.1634 36.1061 24.0528C36.1023 24.0038 36.1124 23.9518 36.1351 23.9082C36.1583 23.8634 36.2263 23.8471 36.2392 23.7983C36.2432 23.7829 36.2378 23.7642 36.2276 23.752C36.2154 23.7375 36.1945 23.7277 36.1755 23.7289C36.1039 23.7331 35.9905 23.8388 35.9905 23.8388C35.9905 23.8388 35.9195 23.7113 35.8574 23.6826C35.8312 23.6705 35.7974 23.6715 35.7707 23.6826C35.7455 23.693 35.7207 23.7143 35.7128 23.7404C35.6879 23.8234 35.7649 23.9949 35.7649 23.9949C35.7649 23.9949 35.5979 23.9525 35.5335 23.9949C35.509 24.0111 35.4964 24.0466 35.4988 24.0759C35.5015 24.1079 35.5248 24.1382 35.5509 24.1569C35.6219 24.2078 35.8054 24.2205 35.8054 24.2205L36.0194 24.5097L35.7938 24.5733C35.8797 24.6201 35.947 24.6359 36.1813 24.6369C36.1336 24.7372 36.0636 24.7716 36.002 24.8162L36.3953 24.874C36.3611 24.9725 36.2583 24.9816 36.2102 25.0244C36.2856 25.0746 36.3941 25.0999 36.5119 25.1183C36.5306 25.1212 36.5495 25.1239 36.5686 25.1266C36.4906 25.1158 36.5039 24.6264 36.5804 24.6369L36.5804 24.6369Z" fill="#FEE46E"/>
<path d="M36.5007 24.7473C36.2911 24.3835 36.244 24.4417 35.9819 24.2572C36.1671 24.5858 36.1506 24.5589 36.5007 24.7473Z" fill="#FFEFA7"/>
<path d="M36.0418 23.5378C36.1119 23.6248 36.1199 23.6646 36.1039 23.7661C36.1371 23.8007 36.169 23.809 36.1965 23.8007C36.2519 23.7838 36.2777 23.7397 36.2648 23.6786C36.2237 23.6528 36.217 23.5752 36.0418 23.5378L36.0418 23.5378ZM35.623 23.5839C35.5941 23.5828 35.5589 23.5858 35.5152 23.5955C35.615 23.6456 35.6387 23.6785 35.6662 23.7776C35.7108 23.7952 35.7432 23.7897 35.7647 23.7707C35.8082 23.7324 35.8134 23.6815 35.7764 23.6312C35.7403 23.6264 35.7098 23.587 35.623 23.5839L35.623 23.5839ZM35.499 23.9773C35.4526 23.9914 35.3896 23.9456 35.2466 24.0536C35.3582 24.0575 35.3935 24.0776 35.4598 24.1561C35.5077 24.1537 35.5349 24.1351 35.5465 24.1088C35.5701 24.0559 35.5536 24.0075 35.499 23.9773H35.499Z" fill="#377BC8" stroke="#2C5AA0" stroke-width="0.0357333"/>
<path d="M38.8767 25.8647C38.8121 25.8458 38.7332 25.7609 38.6647 25.7613C38.5925 25.7617 38.5416 25.802 38.5053 25.8561C38.4879 25.8819 38.5151 25.9786 38.5421 25.9972L38.6665 26.0827C38.6665 26.0827 38.5887 26.1721 38.5828 26.2224C38.5776 26.2662 38.5996 26.3013 38.6309 26.3358C38.6718 26.3808 38.6819 26.3982 38.747 26.4077C38.7859 26.4134 38.8779 26.3964 38.8779 26.3964C38.8779 26.3964 38.8758 26.4682 38.8985 26.5013C38.9397 26.5613 39.0097 26.6142 39.0896 26.6057C39.152 26.5991 39.1723 26.5897 39.2053 26.5432C39.2314 26.5064 39.2262 26.4123 39.2686 26.3735L39.4414 26.2157C39.5159 26.2608 39.514 26.3281 39.5047 26.3975C39.5047 26.3975 39.6155 26.3275 39.6485 26.2773C39.6829 26.225 39.6965 26.1016 39.6965 26.1016C39.7667 26.1649 39.7899 26.2215 39.7748 26.2971C39.7748 26.2971 39.8877 26.2266 39.924 26.1769C39.9649 26.1209 40.0001 25.9999 40.0001 25.9999C40.0515 26.0499 40.0624 26.121 40.0428 26.2079C40.0428 26.2079 40.1689 26.1234 40.2026 26.0553C40.2292 26.0015 40.2452 25.9074 40.2452 25.9074C40.3984 25.9185 40.4974 25.8518 40.5042 25.7828C40.5094 25.7292 40.4488 25.6562 40.3254 25.6351C40.3254 25.6351 40.2798 25.567 40.2626 25.5167C40.2507 25.4822 40.2499 25.4429 40.2626 25.4085C40.2881 25.3398 40.3474 25.282 40.4081 25.2327C40.4915 25.1648 40.673 25.0793 40.673 25.0793L40.6199 24.8134L40.0016 24.7187L39.3182 24.8871C39.4428 24.9443 39.7218 25.1397 39.699 25.2137C39.6905 25.2415 39.6311 25.2677 39.6027 25.3048C39.5818 25.3321 39.5978 25.3758 39.6183 25.404C39.6471 25.4435 39.7157 25.4525 39.7378 25.4897C39.7577 25.5231 39.7667 25.5529 39.743 25.5844C39.6962 25.6465 39.5388 25.6726 39.4625 25.7061C39.3233 25.7672 39.0878 25.9002 39.0878 25.9002C39.0145 25.9098 38.9443 25.8844 38.8767 25.8647L38.8767 25.8647Z" fill="#E4C900" stroke="#806600" stroke-width="0.0357333"/>
<path d="M39.1173 25.9953C39.1173 25.9953 39.2891 25.9049 39.3803 25.8598C39.5241 25.7887 39.7756 25.77 39.8387 25.6225C39.8387 25.6225 39.8566 25.5898 39.8508 25.5443C39.842 25.4764 39.7235 25.4202 39.7606 25.3459L39.7907 25.2858C39.7907 25.2858 39.9167 25.3401 39.953 25.382C39.9824 25.4161 39.9867 25.4728 40.0251 25.4962C40.0646 25.5203 40.1634 25.5083 40.1634 25.5083L40.2235 25.6826C40.2235 25.6826 40.3151 25.6819 40.3498 25.7247C40.3599 25.7373 40.3619 25.7578 40.3558 25.7728C40.3461 25.7966 40.2905 25.8026 40.2663 25.8111C40.219 25.8277 40.1461 25.7742 40.1461 25.7742C40.1461 25.7742 40.1714 25.8925 40.1589 25.9308C40.1503 25.9572 40.1168 26.0029 40.1168 26.0029C40.0902 25.9577 40.073 25.9358 39.953 25.875C39.953 25.875 39.9385 25.9758 39.9063 26.0391C39.8914 26.0684 39.8462 26.1173 39.8462 26.1173C39.8462 26.1173 39.8188 26.0616 39.7981 26.0391C39.7593 25.9969 39.6464 25.9772 39.6464 25.9772C39.6464 25.9772 39.6241 26.1009 39.5924 26.1668C39.5807 26.1911 39.5607 26.2269 39.5607 26.2269C39.5607 26.2269 39.539 26.1701 39.5186 26.1487C39.4944 26.1234 39.4284 26.0946 39.4284 26.0946L39.1955 26.287C39.1955 26.287 39.1602 26.4008 39.1054 26.4374C39.0737 26.4586 39.0567 26.4483 39.0225 26.4314C39.006 26.4233 38.9911 26.4072 38.9865 26.3893C38.9716 26.3319 39.0091 26.2598 39.0091 26.2598C39.0091 26.2598 38.8838 26.3089 38.8014 26.2855C38.77 26.2766 38.7309 26.2519 38.7292 26.2194C38.7255 26.1442 38.8347 26.0734 38.8347 26.0734C38.8347 26.0734 38.7113 26.0444 38.6602 25.9741C38.6435 25.9512 38.6316 25.913 38.6481 25.89C38.6671 25.8635 38.7123 25.8656 38.7443 25.8719C38.8054 25.8841 38.8332 25.9569 38.8949 25.9652L39.1173 25.9952L39.1173 25.9953Z" fill="#FFE66F"/>
<path d="M39.9184 25.768C39.6156 25.7525 39.379 25.899 39.1372 26.0621C39.4474 26.0636 39.6851 25.96 39.9184 25.768Z" fill="#FFEFA7"/>
<path d="M40.1267 25.0277C40.1267 25.0277 40.1149 25.2488 40.0225 25.3055C39.9827 25.3298 39.927 25.3399 39.8836 25.3228C39.8416 25.3062 39.8122 25.2611 39.7968 25.2186C39.787 25.1914 39.7708 25.1232 39.7708 25.1232C39.7708 25.1232 39.6295 25.0585 39.5537 25.0537C39.4422 25.0466 39.2239 25.1145 39.2239 25.1145C39.2611 24.9986 39.3614 24.9037 39.4669 24.8106L39.8315 24.7846L40.1267 25.0277L40.1267 25.0277Z" fill="#EFD300" stroke="#806600" stroke-width="0.0357333"/>
<path d="M40.8328 23.5575C40.919 23.546 41.0962 23.5034 41.1556 23.433C41.1834 23.4002 41.2611 23.3086 41.2611 23.3086C41.2446 23.5155 41.157 23.6496 40.9712 23.7405C40.8228 23.813 40.6516 23.8298 40.4901 23.8137C40.3884 23.8036 40.2002 23.7405 40.2002 23.7405C40.3035 23.8745 40.251 23.9692 40.1211 24.0333C40.1211 24.0333 40.1404 23.9049 40.1013 23.8869C40.0172 23.848 39.9224 23.8987 39.833 23.9582C39.767 24.0021 39.6671 24.0226 39.5998 24.0217C39.4877 24.0202 39.4256 24.0187 39.3207 23.9745C39.2575 23.9479 39.1478 23.8464 39.1013 23.8565C39.001 23.8783 38.8743 23.8905 38.8172 23.9847C38.7974 24.0174 38.7998 24.0687 38.8172 24.1031C38.8562 24.1802 38.9439 24.2205 39.0214 24.2412C39.2518 24.3025 39.4399 24.3021 39.6674 24.2631C39.9018 24.223 40.1755 24.1427 40.4099 24.0942C40.6422 24.0461 40.9417 23.9552 41.1177 23.9113C41.4289 23.8338 41.5684 23.8231 41.8013 23.8272C42.209 23.8344 42.3425 24.0749 42.3301 24.3374C42.3174 24.6071 42.0717 24.7291 41.8613 24.8048C41.4914 24.9378 40.9836 24.8621 40.6644 24.853C40.6644 24.853 40.7714 24.9525 40.8199 24.998C40.8768 25.0513 40.9052 25.1628 40.9754 25.19C41.0718 25.2273 41.2192 25.1533 41.3211 25.1468C41.4635 25.1376 41.7056 25.1564 41.7056 25.1564C41.7427 25.1145 41.7667 25.0854 41.8052 25.0728C41.8328 25.0638 41.8763 25.0633 41.8984 25.0727C41.9423 25.0913 41.9718 25.1486 41.9534 25.2554C41.9534 25.2554 41.9838 25.3026 42.0302 25.3135C42.0793 25.3251 42.1367 25.3149 42.1647 25.3247C42.2108 25.3409 42.2856 25.3919 42.2856 25.3919C42.2856 25.3919 42.2064 25.4198 42.1734 25.4421C42.1508 25.4574 42.1207 25.5079 42.1207 25.5079C42.1207 25.5079 42.2293 25.51 42.2746 25.5323C42.3232 25.5563 42.3681 25.6239 42.3681 25.6239C42.3681 25.6239 42.3027 25.6188 42.2715 25.6406C42.2477 25.6573 42.2087 25.7033 42.2087 25.7033C42.2087 25.7033 42.3357 25.6919 42.3791 25.7339C42.4174 25.7711 42.4615 25.8377 42.4615 25.8377C42.4615 25.8377 42.393 25.8361 42.3605 25.8464C42.3394 25.8532 42.3021 25.8804 42.3021 25.8804C42.3021 25.8804 42.3899 25.9313 42.4285 25.9903C42.4594 26.0375 42.467 26.143 42.467 26.143C42.467 26.143 42.4153 26.0999 42.3835 26.0841C42.3636 26.0742 42.3186 26.0758 42.3186 26.0758L42.3392 26.2924C42.3442 26.3457 42.4115 26.4034 42.4234 26.4446C42.4386 26.4965 42.4348 26.516 42.4076 26.5616C42.3729 26.6199 42.3011 26.6318 42.2391 26.6201C42.2049 26.6136 42.1568 26.5656 42.1568 26.5656C42.1568 26.5656 42.1217 26.6375 42.0981 26.6595C42.0586 26.6964 42.0416 26.6918 41.99 26.6896C41.9504 26.6879 41.9152 26.6796 41.8878 26.6478C41.8563 26.6113 41.8344 26.5018 41.8344 26.5018L41.7127 26.5285C41.6863 26.5343 41.6062 26.4895 41.5973 26.4613C41.5786 26.4021 41.5768 26.3423 41.6131 26.2943C41.6476 26.2487 41.743 26.2464 41.7916 26.2213C41.8538 26.1891 41.9137 26.0961 41.9137 26.0961C41.9137 26.0961 41.7104 25.9223 41.6225 25.8143C41.5742 25.7549 41.491 25.616 41.491 25.616C41.491 25.616 41.2318 25.7028 41.134 25.7204C40.893 25.7639 40.6362 25.7204 40.6362 25.7204C40.2677 25.7204 40.0226 25.0918 39.6875 24.9482C39.5852 24.9044 39.5371 24.9113 39.4302 24.9378C39.0419 25.034 38.6274 25.5805 38.2428 25.6933C38.0849 25.7395 37.7544 25.7559 37.7544 25.7559C37.7544 25.7559 37.7002 25.8854 37.6491 25.9223C37.5934 25.9625 37.4536 25.9652 37.4536 25.9652C37.4536 25.9652 37.4179 26.12 37.377 26.1788C37.3342 26.2403 37.2166 26.2999 37.2166 26.2999C37.234 26.2292 37.2443 26.1752 37.2198 26.0859C37.2198 26.0859 37.1614 26.2095 37.1045 26.268C37.055 26.3189 36.9343 26.3818 36.9343 26.3818C36.944 26.316 36.9717 26.2534 36.9343 26.1788C36.9343 26.1788 36.8846 26.3037 36.8414 26.3498C36.7983 26.3958 36.6843 26.4459 36.6843 26.4459C36.7064 26.3747 36.7205 26.3035 36.6843 26.2323C36.6843 26.2323 36.637 26.3602 36.5947 26.4032C36.5362 26.4625 36.3956 26.5275 36.3956 26.5275C36.4193 26.454 36.4421 26.3805 36.4246 26.307L36.329 26.3068C36.2135 26.3066 36.2062 26.4243 36.1524 26.4779C36.0997 26.5306 36.0139 26.5317 35.9728 26.5153C35.9003 26.4864 35.8359 26.3847 35.9239 26.2352C35.7717 26.2548 35.6924 26.1397 35.6928 26.0374C35.6931 25.939 35.7227 25.8521 35.8763 25.8626C35.8763 25.8626 35.8564 25.7775 35.8641 25.7326C35.8749 25.6702 35.9191 25.6161 35.979 25.6221C36.0036 25.6246 36.0492 25.644 36.0701 25.6712C36.1032 25.7142 36.1123 25.7767 36.1672 25.8233C36.2294 25.8761 36.3774 25.8719 36.3774 25.8719C36.3774 25.8719 36.6649 25.684 36.8545 25.6082C36.9554 25.5679 37.242 25.507 37.242 25.507L37.251 24.6572C37.4232 24.67 37.3491 24.6718 37.4948 24.6665C37.7039 24.659 38.2535 24.7614 38.2535 24.7614L38.6448 24.729C38.6448 24.729 39.2975 24.6102 39.608 24.573C39.7644 24.5543 39.9225 24.5408 40.0796 24.5507C40.3162 24.5656 40.5194 24.6365 40.7418 24.651C40.9288 24.6633 41.0565 24.6863 41.2434 24.6733C41.5104 24.6548 41.9875 24.6765 42.1391 24.3852C42.1785 24.3096 42.1583 24.206 42.0995 24.1478C42.0221 24.071 41.967 24.042 41.8636 24.0684C41.8091 24.0824 41.7398 24.1286 41.733 24.1855C41.7293 24.2163 41.734 24.2548 41.7572 24.2912C41.7973 24.3538 41.8426 24.3727 41.8426 24.3727C41.8426 24.3727 41.7268 24.3914 41.674 24.3446C41.6185 24.2953 41.5687 24.1386 41.5687 24.1386C41.5426 24.1786 41.5234 24.2224 41.5278 24.2793C41.5316 24.3284 41.5277 24.3591 41.5771 24.4335C41.5771 24.4335 41.4546 24.424 41.396 24.3493C41.3565 24.299 41.3243 24.148 41.3243 24.148C41.2896 24.1861 41.2684 24.2478 41.2669 24.2933C41.2648 24.359 41.2904 24.3879 41.3033 24.4569C41.3033 24.4569 41.1825 24.4175 41.1348 24.3446C41.0977 24.288 41.0779 24.1394 41.0779 24.1394C40.939 24.1779 40.6739 24.2322 40.3851 24.3011C40.1817 24.3497 39.8711 24.4242 39.6515 24.4549C39.2744 24.5075 38.9999 24.4803 38.7681 24.371C38.6475 24.3141 38.5932 24.2594 38.5621 24.1303C38.5444 24.057 38.5704 23.9532 38.6303 23.8723C38.7138 23.7596 38.8587 23.6752 39.0207 23.6307C39.0207 23.6307 39.4496 23.5027 39.6994 23.4769C40.0999 23.4356 40.2628 23.4978 40.4302 23.5212C40.539 23.5364 40.656 23.5114 40.6903 23.466C40.7191 23.4278 40.7668 23.3866 40.7025 23.2944C40.7025 23.2944 40.7839 23.2962 40.838 23.4073C40.86 23.4526 40.8328 23.5575 40.8328 23.5575H40.8328L40.8328 23.5575Z" fill="#FEE46E"/>
<path d="M41.2615 23.3087C41.2615 23.3087 41.145 23.5069 41.0607 23.5661C40.9544 23.6408 40.8245 23.6821 40.7025 23.6997C40.5839 23.7168 40.4629 23.6869 40.3442 23.671C40.2065 23.6526 40.0016 23.5614 40.0016 23.5614C40.0431 23.6345 40.0852 23.7076 40.0961 23.7807C40.0961 23.7807 39.9665 23.7462 39.8982 23.7688C39.8444 23.7865 39.7422 23.8363 39.6901 23.8605C39.6093 23.8982 39.4795 23.8598 39.3934 23.8474C39.3046 23.8346 39.2734 23.7872 39.1935 23.8129L39.1157 23.8379L39.3677 23.9857L39.6197 24.0239L39.7772 23.9905L39.9504 23.8856L40.0882 23.8761L40.1276 23.9381L40.1315 24.0477L40.2221 23.9572L40.2457 23.8808L40.2181 23.7473L40.4032 23.8045L40.6395 23.8236L40.8836 23.7759L41.1001 23.671L41.2064 23.5375L41.2615 23.3087L41.2615 23.3087ZM41.9066 23.972C41.8517 23.9738 41.7952 23.9899 41.742 24.0243C41.6695 24.0939 41.6756 24.1771 41.6764 24.2467C41.6392 24.1821 41.6098 24.0704 41.5771 23.9789C41.4867 24.0716 41.4819 24.2052 41.4571 24.3149C41.4064 24.218 41.3831 24.103 41.3522 24.0062C41.2478 24.0939 41.2205 24.1998 41.1872 24.2876C41.1611 24.2313 41.1356 24.1726 41.1291 24.0334C41.1157 24.0384 41.1073 24.0422 41.0957 24.0467C40.7861 24.0888 40.0889 24.3162 39.5477 24.3707C39.2479 24.4009 38.9205 24.381 38.7316 24.2461C38.6483 24.1867 38.592 24.1049 38.5767 23.9953L38.5489 24.1233L38.6378 24.2916L38.838 24.4061L39.2161 24.4937L39.6277 24.4532L39.8612 24.4263L41.0838 24.1449L41.1104 24.3035L41.1929 24.4079L41.3034 24.4578L41.2603 24.3171L41.2772 24.2218L41.3203 24.1605L41.3822 24.3375L41.4665 24.4079L41.5808 24.4374L41.534 24.3511L41.5302 24.2377L41.5658 24.1537L41.6239 24.3035L41.6914 24.3602L41.8432 24.3738L41.7495 24.2672L41.7308 24.1718L41.7926 24.0946L41.935 24.0606L42.0456 24.1037L42.1318 24.1855L42.1581 24.3126L42.1355 24.4073C42.3488 24.2184 42.1425 23.9641 41.9066 23.972L41.9066 23.972ZM42.1355 24.4073C42.1336 24.409 42.132 24.4107 42.13 24.4124L42.1337 24.4147L42.1355 24.4073H42.1355ZM42.3233 24.1693C42.3118 24.3126 42.2622 24.425 42.1843 24.51C41.8151 24.9129 40.9909 24.7783 40.5955 24.6404L40.4175 24.6121C40.3922 24.6004 40.3643 24.5883 40.3291 24.5742C40.1969 24.5451 40.2254 24.5599 40.0796 24.5507C39.9226 24.5408 39.7645 24.5543 39.6081 24.573C39.2976 24.6102 38.6449 24.729 38.6449 24.729L38.2535 24.7614C38.2535 24.7614 37.704 24.659 37.4948 24.6666C37.3492 24.6718 37.4232 24.67 37.251 24.6571L37.2495 24.8004C37.2495 24.8004 37.4295 24.8477 37.5969 24.8816L37.5483 24.8849L37.3061 25.3126C37.2956 25.2324 37.2624 25.1125 37.2624 25.1125L37.2371 25.4345L37.1906 25.5166L36.9062 25.5877L36.6171 25.7189L36.39 25.8815L36.1628 25.819L36.0751 25.6627C36.0751 25.6627 36.0959 25.8433 36.1473 25.9002C36.2104 25.9702 36.3951 25.9815 36.3951 25.9815C36.3951 25.9815 36.6634 25.7914 36.8081 25.7252C36.871 25.6965 36.9361 25.6764 37.0018 25.6586C37.0246 25.6845 37.0549 25.7153 37.089 25.7399C37.1214 25.7633 37.1911 25.7998 37.1911 25.7998C37.1993 25.6034 37.3124 25.6057 37.4826 25.5028L37.5 25.6229C37.5 25.6229 37.8205 25.5135 37.9076 25.4157C37.9659 25.3504 38.0223 25.2736 38.0477 25.1825C38.0666 25.1147 38.0633 25.0004 38.0588 24.9248C38.1301 24.9243 38.2018 24.9223 38.2763 24.9196C38.6036 24.908 38.9546 24.7598 39.28 24.7159C39.5407 24.6807 39.8288 24.6296 40.066 24.6738C40.2651 24.7108 40.3416 24.7905 40.5134 24.918C40.6579 25.0253 40.8044 25.3139 40.9979 25.3139C40.9979 25.3139 41.1074 25.3072 41.1788 25.2971C41.2687 25.2843 41.332 25.2467 41.4222 25.2381C41.5451 25.2264 41.714 25.2511 41.714 25.2511C41.7936 25.1388 41.8343 25.1366 41.8572 25.1508C41.9075 25.1823 41.9144 25.252 41.869 25.3225C41.9191 25.3606 41.9511 25.4233 42.1035 25.4143C42.0364 25.4735 42.0161 25.503 41.9885 25.5758C42.0457 25.5549 42.1057 25.5747 42.1913 25.6021C42.1307 25.6594 42.114 25.7165 42.0931 25.767C42.15 25.7588 42.1925 25.7725 42.2946 25.7918C42.2363 25.8256 42.1925 25.8416 42.1827 25.8885C42.2493 25.9305 42.2431 25.9139 42.34 26.0048C42.2784 26.0137 42.2409 26.0138 42.2169 26.0616L42.3343 26.2684L42.3186 26.0758C42.3186 26.0758 42.3637 26.0742 42.3836 26.0841C42.4154 26.0999 42.4671 26.143 42.4671 26.143C42.4671 26.143 42.4594 26.0375 42.4286 25.9903C42.39 25.9313 42.3022 25.8804 42.3022 25.8804C42.3022 25.8804 42.3395 25.8532 42.3606 25.8464C42.393 25.8361 42.4616 25.8376 42.4616 25.8376C42.4616 25.8376 42.4175 25.771 42.3791 25.7338C42.3358 25.6918 42.2087 25.7033 42.2087 25.7033C42.2087 25.7033 42.2478 25.6573 42.2716 25.6406C42.3027 25.6188 42.3681 25.6239 42.3681 25.6239C42.3681 25.6239 42.3233 25.5562 42.2747 25.5323C42.2293 25.51 42.1208 25.5079 42.1208 25.5079C42.1208 25.5079 42.1509 25.4573 42.1734 25.4421C42.2064 25.4197 42.2857 25.3919 42.2857 25.3919C42.2857 25.3919 42.2109 25.3409 42.1647 25.3247C42.1367 25.3149 42.0794 25.3251 42.0303 25.3135C41.9839 25.3026 41.9535 25.2553 41.9535 25.2553C41.9719 25.1486 41.9423 25.0913 41.8985 25.0727C41.8763 25.0633 41.8328 25.0638 41.8052 25.0728C41.7667 25.0853 41.7427 25.1145 41.7057 25.1564C41.7057 25.1564 41.4636 25.1376 41.3211 25.1468C41.2193 25.1533 41.0719 25.2273 40.9755 25.19C40.9052 25.1628 40.8768 25.0513 40.82 24.998C40.7714 24.9525 40.6644 24.8529 40.6644 24.8529C40.6617 24.849 40.6597 24.8461 40.6571 24.8423L41.0207 24.865L41.387 24.8705H41.6177C41.883 24.8057 42.1919 24.7349 42.3188 24.4104L42.3233 24.1693L42.3233 24.1693ZM39.5801 24.7881C39.4841 24.7861 39.3749 24.8179 39.2882 24.8552C39.0404 24.9618 38.6519 25.2846 38.6519 25.2846C38.5421 25.3532 38.3842 25.4668 38.2669 25.5144C38.0878 25.5871 37.7045 25.5991 37.7045 25.5991C37.7045 25.5991 37.6525 25.7969 37.5826 25.8346C37.5207 25.8681 37.3823 25.7925 37.3823 25.7925C37.3823 25.7925 37.3846 25.9045 37.3765 25.9647C37.3692 26.0196 37.3156 26.1229 37.3156 26.1229C37.3156 26.1229 37.3017 26.0412 37.2836 26.0069C37.2571 25.9566 37.1763 25.8839 37.1763 25.8839C37.1763 25.8839 37.1545 25.9976 37.1327 26.0491C37.1046 26.1153 37.0224 26.2283 37.0224 26.2283C37.0224 26.2283 37.0115 26.1606 36.9992 26.1299C36.9768 26.074 36.9092 25.9788 36.9092 25.9788C36.9092 25.9788 36.8819 26.0964 36.8598 26.151C36.8411 26.1974 36.7902 26.2811 36.7902 26.2811C36.7902 26.2811 36.7768 26.2376 36.767 26.2178C36.7395 26.1628 36.6682 26.0666 36.6682 26.0666C36.6682 26.0666 36.6193 26.1924 36.587 26.2495C36.5668 26.2851 36.5173 26.3479 36.5173 26.3479C36.5173 26.3479 36.5163 26.2347 36.4854 26.2002C36.4565 26.168 36.3992 26.1541 36.3606 26.1615C36.2335 26.1859 36.1841 26.3117 36.0993 26.4236C36.0811 26.4477 36.0419 26.4616 36.0571 26.4342C36.0803 26.3921 36.0627 26.3531 36.0461 26.3313C36.0274 26.3068 35.9915 26.2921 35.9658 26.308C35.9265 26.3322 36.059 26.144 36.0558 26.144C36.0558 26.144 35.922 26.1485 35.8584 26.1334C35.8216 26.1247 35.8907 26.1454 35.8822 26.0349C35.8742 25.9308 35.7925 25.941 35.8151 25.9329C35.8775 25.9106 35.9803 25.9577 35.9803 25.9577C35.9803 25.9577 35.9327 25.9083 35.9542 25.8643C35.964 25.8442 36.0205 25.8033 36.0294 25.7515C36.0424 25.676 35.9813 25.6164 35.9789 25.6221C35.9521 25.6872 35.8748 25.6702 35.864 25.7326C35.8563 25.7774 35.8762 25.8626 35.8762 25.8626C35.7227 25.8521 35.693 25.9389 35.6927 26.0373C35.6923 26.1397 35.7716 26.2548 35.9238 26.2351C35.8358 26.3846 35.9003 26.4863 35.9727 26.5153C36.0138 26.5317 36.0996 26.5305 36.1524 26.4778C36.2061 26.4243 36.2135 26.3065 36.3289 26.3068L36.4245 26.307C36.4421 26.3804 36.4193 26.4539 36.3956 26.5274C36.3956 26.5274 36.5361 26.4625 36.5946 26.4031C36.6369 26.3602 36.6842 26.2322 36.6842 26.2322C36.7204 26.3034 36.7063 26.3746 36.6842 26.4459C36.6842 26.4459 36.7982 26.3958 36.8413 26.3497C36.8845 26.3036 36.9343 26.1788 36.9343 26.1788C36.9716 26.2534 36.9439 26.3159 36.9343 26.3818C36.9343 26.3818 37.055 26.3188 37.1044 26.2679C37.1613 26.2094 37.2197 26.0859 37.2197 26.0859C37.2443 26.1751 37.2339 26.2292 37.2165 26.2998C37.2165 26.2998 37.3341 26.2402 37.3769 26.1788C37.4178 26.1199 37.4536 25.9651 37.4536 25.9651C37.4536 25.9651 37.5933 25.9625 37.649 25.9223C37.7001 25.8853 37.7543 25.7558 37.7543 25.7558C37.7543 25.7558 38.0849 25.7395 38.2427 25.6932C38.6274 25.5805 39.0418 25.034 39.4301 24.9377C39.537 24.9112 39.5851 24.9043 39.6874 24.9481C40.0225 25.0916 40.2676 25.7203 40.6361 25.7203C40.802 25.7203 40.8929 25.7638 41.134 25.7203C41.2317 25.7027 41.4909 25.616 41.4909 25.616C41.4909 25.616 41.5741 25.7548 41.6224 25.8142C41.7103 25.9223 41.9136 26.096 41.9136 26.096C41.9136 26.096 41.8538 26.189 41.7915 26.2212C41.7429 26.2463 41.6475 26.2487 41.613 26.2942C41.5767 26.3422 41.5785 26.402 41.5972 26.4612C41.6061 26.4894 41.6862 26.5342 41.7126 26.5284L41.8343 26.5017C41.8343 26.5017 41.8562 26.6112 41.8877 26.6477C41.9151 26.6795 41.9503 26.701 41.9899 26.7027C42.0415 26.7049 42.0585 26.6963 42.098 26.6594C42.1216 26.6374 42.1567 26.5655 42.1567 26.5655C42.1567 26.5655 42.2048 26.6136 42.239 26.62C42.3011 26.6317 42.3728 26.6198 42.4076 26.5615C42.4347 26.5159 42.4005 26.402 42.3854 26.35C42.3854 26.35 42.384 26.4603 42.3936 26.4985C42.351 26.4025 42.2339 26.4054 42.1955 26.5023C42.1377 26.4659 42.1221 26.4029 42.1221 26.4029L42.092 26.5288C42.0766 26.5527 42.0886 26.5853 42.0588 26.6025C42.0543 26.4811 41.9752 26.4688 41.9055 26.5002C41.8836 26.4564 41.895 26.383 41.895 26.383C41.895 26.383 41.8266 26.4158 41.7773 26.4294C41.748 26.4375 41.7672 26.409 41.7593 26.3738C41.7501 26.3326 41.6917 26.3437 41.7034 26.3366C41.7659 26.2989 41.8327 26.2848 41.8922 26.2406C41.9466 26.2001 42.0126 26.0682 42.0126 26.0682C42.0126 26.0682 41.8011 25.8893 41.7044 25.7708C41.6267 25.6756 41.5336 25.4777 41.5336 25.4777C41.5336 25.4777 41.1517 25.5977 40.9381 25.6074C40.8108 25.6132 40.6313 25.608 40.5144 25.5465C40.3061 25.4369 40.1767 25.1655 39.9861 25.0155C39.8649 24.9201 39.7641 24.8103 39.6203 24.7911C39.6072 24.7893 39.5938 24.7884 39.5801 24.7881L39.5801 24.7881Z" fill="#E4C900"/>
<path d="M40.757 23.3062C40.757 23.3062 40.7593 23.3117 40.7603 23.3141L40.761 23.3111L40.757 23.3062H40.757ZM40.7603 23.3141L40.7408 23.3993L40.6478 23.4924L40.5385 23.5267L40.3564 23.5071L40.0814 23.4679H39.7739L39.43 23.5169L39.0943 23.6002L38.9041 23.6834C38.9041 23.6834 39.0334 23.707 39.0983 23.7031C39.2914 23.6914 39.477 23.6064 39.6687 23.5757C39.7841 23.5572 39.9003 23.537 40.0166 23.5414C40.1678 23.547 40.3146 23.6128 40.4657 23.6198C40.5454 23.6234 40.6325 23.642 40.7044 23.6002C40.7457 23.5762 40.7868 23.5317 40.7974 23.4777C40.8075 23.4259 40.7689 23.3338 40.7603 23.3141H40.7603ZM41.7274 23.8283L41.3289 23.8567L40.8542 23.9703C41.3977 24.0672 42.0509 23.6599 42.3018 24.207L42.3054 24.1218L42.1961 23.9561L42.0321 23.8622L41.7273 23.8283H41.7274ZM42.3018 24.207L42.3016 24.2115L42.3074 24.2187C42.3057 24.2146 42.3036 24.211 42.3018 24.207H42.3018ZM39.8089 24.7291C40.4155 25.1221 40.4884 25.719 41.2853 25.4552C40.5689 25.5118 40.5241 24.8131 39.8089 24.7291ZM39.1969 24.8222C38.4927 25.1012 38.312 25.0906 38.2228 25.1913C38.185 25.2339 38.1837 25.2906 38.1492 25.3495C38.1149 25.4081 38.0476 25.469 37.9679 25.5204C38.4658 25.5103 38.8587 24.9827 39.1969 24.8222L39.1969 24.8222ZM41.6026 25.4002C41.6744 25.6906 41.8539 25.8643 42.0478 26.0373C41.963 25.7446 41.8165 25.5555 41.6026 25.4002ZM36.9824 25.7705C36.5933 25.8047 36.5737 25.9594 36.4182 26.0312C36.831 25.9909 36.7983 25.9385 36.9824 25.7705Z" fill="#FFF1A1"/>
<path d="M40.8328 23.5575C40.919 23.546 41.0962 23.5034 41.1556 23.433C41.1834 23.4002 41.2611 23.3086 41.2611 23.3086C41.2446 23.5155 41.157 23.6496 40.9712 23.7405C40.8228 23.813 40.6516 23.8298 40.4901 23.8137C40.3884 23.8036 40.2002 23.7405 40.2002 23.7405C40.3035 23.8745 40.251 23.9692 40.1211 24.0333C40.1211 24.0333 40.1404 23.9049 40.1013 23.8869C40.0172 23.848 39.9224 23.8987 39.833 23.9582C39.767 24.0021 39.6671 24.0226 39.5998 24.0217C39.4877 24.0202 39.4256 24.0187 39.3207 23.9745C39.2575 23.9479 39.1478 23.8464 39.1013 23.8565C39.001 23.8783 38.8743 23.8905 38.8172 23.9847C38.7974 24.0174 38.7998 24.0687 38.8172 24.1031C38.8562 24.1802 38.9439 24.2205 39.0214 24.2412C39.2518 24.3025 39.4399 24.3021 39.6674 24.2631C39.9018 24.223 40.1755 24.1426 40.4099 24.0941C40.6422 24.0461 40.9417 23.9552 41.1177 23.9113C41.4289 23.8337 41.5684 23.8231 41.8013 23.8272C42.209 23.8344 42.3425 24.0749 42.3301 24.3374C42.3174 24.607 42.0717 24.7291 41.8613 24.8048C41.4914 24.9378 40.9836 24.862 40.6644 24.853C40.6644 24.853 40.7714 24.9525 40.8199 24.998C40.8768 25.0513 40.9052 25.1628 40.9754 25.19C41.0718 25.2273 41.2192 25.1533 41.3211 25.1468C41.4635 25.1376 41.7056 25.1564 41.7056 25.1564C41.7427 25.1145 41.7667 25.0854 41.8052 25.0728C41.8328 25.0638 41.8763 25.0633 41.8984 25.0727C41.9423 25.0913 41.9718 25.1486 41.9534 25.2553C41.9534 25.2553 41.9838 25.3026 42.0302 25.3135C42.0793 25.3251 42.1367 25.3149 42.1647 25.3247C42.2108 25.3409 42.2856 25.3919 42.2856 25.3919C42.2856 25.3919 42.2064 25.4198 42.1734 25.4421C42.1508 25.4574 42.1207 25.5079 42.1207 25.5079C42.1207 25.5079 42.2293 25.51 42.2746 25.5323C42.3232 25.5563 42.3681 25.6239 42.3681 25.6239C42.3681 25.6239 42.3027 25.6188 42.2715 25.6406C42.2477 25.6573 42.2087 25.7033 42.2087 25.7033C42.2087 25.7033 42.3357 25.6919 42.3791 25.7339C42.4174 25.771 42.4615 25.8377 42.4615 25.8377C42.4615 25.8377 42.393 25.8361 42.3605 25.8464C42.3394 25.8532 42.3021 25.8804 42.3021 25.8804C42.3021 25.8804 42.3899 25.9313 42.4285 25.9903C42.4594 26.0375 42.467 26.143 42.467 26.143C42.467 26.143 42.4153 26.0999 42.3835 26.0841C42.3636 26.0742 42.3186 26.0758 42.3186 26.0758L42.3392 26.2924C42.3442 26.3457 42.4115 26.4033 42.4234 26.4446C42.4386 26.4965 42.4348 26.516 42.4076 26.5616C42.3729 26.6199 42.3011 26.6318 42.2391 26.6201C42.2049 26.6136 42.1568 26.5656 42.1568 26.5656C42.1568 26.5656 42.1217 26.6375 42.0981 26.6595C42.0586 26.6964 42.0395 26.7066 41.9879 26.7044C41.9483 26.7027 41.9152 26.6796 41.8878 26.6478C41.8563 26.6113 41.8344 26.5017 41.8344 26.5017L41.7127 26.5285C41.6863 26.5343 41.6062 26.4895 41.5973 26.4613C41.5786 26.4021 41.5768 26.3423 41.6131 26.2943C41.6476 26.2487 41.743 26.2464 41.7916 26.2213C41.8538 26.1891 41.9137 26.0961 41.9137 26.0961C41.9137 26.0961 41.7104 25.9223 41.6225 25.8143C41.5742 25.7549 41.491 25.616 41.491 25.616C41.491 25.616 41.2318 25.7028 41.134 25.7204C40.893 25.7638 40.6362 25.7204 40.6362 25.7204C40.2677 25.7204 40.0226 25.0917 39.6875 24.9482C39.5852 24.9044 39.5371 24.9113 39.4302 24.9378C39.0419 25.034 38.6274 25.5805 38.2428 25.6933C38.0849 25.7395 37.7544 25.7559 37.7544 25.7559C37.7544 25.7559 37.7002 25.8854 37.6491 25.9223C37.5934 25.9625 37.4536 25.9652 37.4536 25.9652C37.4536 25.9652 37.4179 26.12 37.377 26.1788C37.3342 26.2403 37.2166 26.2999 37.2166 26.2999C37.234 26.2292 37.2443 26.1752 37.2198 26.0859C37.2198 26.0859 37.1614 26.2095 37.1045 26.268C37.055 26.3189 36.9343 26.3818 36.9343 26.3818C36.944 26.316 36.9717 26.2534 36.9343 26.1788C36.9343 26.1788 36.8846 26.3037 36.8414 26.3498C36.7983 26.3958 36.6843 26.4459 36.6843 26.4459C36.7064 26.3747 36.7205 26.3035 36.6843 26.2322C36.6843 26.2322 36.637 26.3602 36.5947 26.4032C36.5362 26.4625 36.3956 26.5275 36.3956 26.5275C36.4193 26.454 36.4421 26.3805 36.4246 26.307L36.329 26.3068C36.2135 26.3066 36.2062 26.4243 36.1524 26.4779C36.0997 26.5306 36.0139 26.5317 35.9728 26.5153C35.9003 26.4864 35.8359 26.3847 35.9239 26.2352C35.7717 26.2548 35.6924 26.1397 35.6928 26.0374C35.6931 25.939 35.7227 25.8521 35.8763 25.8626C35.8763 25.8626 35.8564 25.7775 35.8641 25.7326C35.8749 25.6702 35.9191 25.6161 35.979 25.6221C36.0036 25.6246 36.0492 25.644 36.0701 25.6712C36.1032 25.7142 36.1123 25.7767 36.1672 25.8233C36.2294 25.8761 36.3774 25.8718 36.3774 25.8718C36.3774 25.8718 36.6649 25.684 36.8545 25.6082C36.9554 25.5679 37.242 25.507 37.242 25.507L37.251 24.6572C37.4232 24.67 37.3491 24.6718 37.4948 24.6665C37.7039 24.659 38.2535 24.7614 38.2535 24.7614L38.6448 24.729C38.6448 24.729 39.2975 24.6102 39.608 24.573C39.7644 24.5543 39.9225 24.5408 40.0796 24.5507C40.3162 24.5656 40.5194 24.6365 40.7418 24.651C40.9288 24.6633 41.0565 24.6863 41.2434 24.6733C41.5104 24.6548 41.9875 24.6765 42.1391 24.3852C42.1785 24.3096 42.1583 24.206 42.0995 24.1478C42.0221 24.071 41.967 24.042 41.8636 24.0684C41.8091 24.0824 41.7398 24.1286 41.733 24.1855C41.7293 24.2163 41.734 24.2435 41.7572 24.2799C41.7973 24.3425 41.8426 24.3727 41.8426 24.3727C41.8426 24.3727 41.708 24.3801 41.6553 24.3332C41.5998 24.2839 41.5687 24.1386 41.5687 24.1386C41.5426 24.1786 41.5234 24.2224 41.5278 24.2793C41.5316 24.3284 41.5277 24.3591 41.5771 24.4335C41.5771 24.4335 41.4546 24.424 41.396 24.3493C41.3565 24.299 41.3243 24.148 41.3243 24.148C41.2896 24.1861 41.2684 24.2478 41.2669 24.2933C41.2648 24.359 41.2904 24.3879 41.3033 24.4569C41.3033 24.4569 41.1825 24.4175 41.1348 24.3446C41.0977 24.288 41.0779 24.1394 41.0779 24.1394C40.939 24.1779 40.6739 24.2323 40.3851 24.3011C40.1817 24.3497 39.8711 24.4242 39.6515 24.4549C39.2744 24.5075 38.9999 24.4803 38.7681 24.371C38.6475 24.3141 38.5932 24.2594 38.5621 24.1303C38.5444 24.057 38.5704 23.9532 38.6303 23.8723C38.7138 23.7596 38.8587 23.6752 39.0207 23.6307C39.0207 23.6307 39.4496 23.5027 39.6994 23.4769C40.0999 23.4356 40.2628 23.4978 40.4302 23.5212C40.539 23.5364 40.656 23.5114 40.6903 23.466C40.7191 23.4278 40.7668 23.3866 40.7025 23.2944C40.7025 23.2944 40.7839 23.2962 40.838 23.4073C40.86 23.4526 40.8328 23.5575 40.8328 23.5575H40.8328L40.8328 23.5575Z" stroke="#806600" stroke-width="0.0357333"/>
<path d="M37.9325 24.7679C38.0255 24.8258 38.1277 24.7499 38.1487 24.7422C38.1487 24.7422 38.1042 24.7111 38.074 24.6365C38.0538 24.5863 38.0468 24.4976 38.0449 24.456C38.038 24.3016 38.0996 24.2776 38.1016 24.2893C38.1016 24.2893 38.2039 24.2542 38.2463 24.2215C38.2866 24.1906 38.3051 24.1369 38.3162 24.0874C38.3329 24.0131 38.3036 23.9041 38.3036 23.9041C38.1549 23.8955 38.1171 23.9152 38.0823 23.9607C38.0823 23.9607 38.0792 23.8848 38.0586 23.8155C38.0483 23.781 38.0245 23.7296 38.0001 23.6963C37.9751 23.6621 37.9495 23.6465 37.9495 23.6465C37.9486 23.6859 37.9132 23.7219 37.8951 23.7494C37.8951 23.7494 37.88 23.5985 37.8422 23.5444C37.813 23.5026 37.7324 23.447 37.733 23.4472C37.7336 23.4474 37.6415 23.4525 37.5944 23.4719C37.5334 23.4971 37.4394 23.6161 37.4394 23.6161C37.439 23.5832 37.4285 23.5338 37.449 23.5001C37.449 23.5001 37.4191 23.4995 37.3795 23.5149C37.341 23.5298 37.2933 23.5603 37.266 23.5838C37.2113 23.6311 37.1679 23.6933 37.1679 23.6933C37.1654 23.6337 37.1451 23.5994 37.0119 23.5264C37.0119 23.5264 36.9285 23.6025 36.9025 23.674C36.8852 23.7217 36.872 23.777 36.8891 23.8247C36.9073 23.8751 36.9746 23.9598 36.9746 23.9598C36.9826 23.951 37.0216 24.0044 36.9325 24.1308C36.9086 24.1648 36.8549 24.2357 36.8108 24.2671C36.7452 24.3138 36.6909 24.316 36.6909 24.316C36.724 24.4022 36.7331 24.4374 36.8592 24.4541C36.5717 24.6604 36.5391 24.9895 36.7598 25.2699C36.7742 25.2362 36.8235 25.1597 36.8526 25.1304C36.8495 25.1279 36.8563 25.2924 36.9383 25.3761C36.965 25.4033 36.9779 25.5545 37.0164 25.6021C37.0515 25.6454 37.1008 25.6926 37.1008 25.6926C37.1008 25.6926 37.139 25.5727 37.1951 25.554C37.2516 25.5352 37.3571 25.505 37.3919 25.4941C37.462 25.472 37.5868 25.3227 37.5868 25.3227L37.5648 25.5052C37.943 25.3712 38.0293 25.1144 37.9325 24.7679L37.9325 24.7679Z" fill="#FEE46E"/>
<path d="M37.1993 24.3021C37.2158 24.4103 37.164 24.6244 37.1232 24.6828L37.369 24.7814L37.6116 24.8094C37.5918 24.71 37.689 24.5159 37.7375 24.4499L37.5592 24.4537L37.4796 24.3742L37.3339 24.4065L37.1993 24.3021L37.1993 24.3021Z" fill="#504416"/>
<path d="M37.2478 24.3635C37.2157 24.4798 37.2341 24.5013 37.2401 24.5473L37.311 24.3954L37.2478 24.3635V24.3635ZM37.592 24.4755L37.572 24.642C37.6014 24.6061 37.6284 24.5976 37.6625 24.4819L37.592 24.4755V24.4755ZM37.2405 24.5927C37.2112 24.6286 37.1841 24.6371 37.15 24.7528L37.2205 24.7592L37.2405 24.5927L37.2405 24.5927ZM37.5498 24.681L37.4789 24.8329L37.5421 24.8647C37.5742 24.7484 37.5558 24.727 37.5498 24.681V24.681Z" fill="white"/>
<path d="M37.4334 23.7022C37.3846 23.702 37.3373 23.7044 37.3022 23.71C37.2133 23.7241 37.2095 23.7611 37.2095 23.7611C37.3716 23.7652 37.4873 23.8264 37.5847 23.91L37.4918 24.0457C37.4918 24.0457 37.5204 24.0942 37.5449 24.1024C37.5694 24.1107 37.6213 24.0896 37.6213 24.0896L37.6072 23.9109C37.7471 23.91 37.8799 23.9342 38.0028 23.9928C38.0028 23.9928 38.0122 23.9538 37.9486 23.8967C37.8731 23.8287 37.7175 23.7393 37.6405 23.7196C37.6003 23.7094 37.5148 23.7024 37.4334 23.7022L37.4334 23.7022ZM37.3761 24.1815C37.3591 24.1813 37.3426 24.1865 37.329 24.1965C37.3155 24.2064 37.3056 24.2205 37.3011 24.2366C37.2983 24.2462 37.2975 24.2563 37.2987 24.2663C37.2999 24.2763 37.3032 24.286 37.3082 24.2948C37.3132 24.3036 37.3199 24.3114 37.3279 24.3176C37.336 24.3239 37.3452 24.3286 37.355 24.3314C37.3649 24.3342 37.3752 24.3351 37.3853 24.334C37.3955 24.3329 37.4053 24.3299 37.4142 24.325C37.4231 24.3202 37.4309 24.3137 37.4372 24.3058C37.4435 24.298 37.4482 24.289 37.451 24.2793C37.4565 24.2599 37.4539 24.2389 37.4438 24.2212C37.4337 24.2034 37.4168 24.1902 37.397 24.1845C37.3902 24.1826 37.3832 24.1816 37.3761 24.1815V24.1815ZM37.6096 24.2481C37.5926 24.2479 37.5761 24.2532 37.5625 24.2631C37.549 24.2731 37.5391 24.2872 37.5345 24.3032C37.5318 24.3129 37.531 24.323 37.5322 24.333C37.5334 24.3429 37.5367 24.3526 37.5417 24.3614C37.5467 24.3702 37.5534 24.378 37.5614 24.3843C37.5695 24.3906 37.5787 24.3953 37.5885 24.3981C37.5984 24.4009 37.6087 24.4018 37.6188 24.4007C37.629 24.3996 37.6388 24.3965 37.6477 24.3917C37.6566 24.3868 37.6644 24.3803 37.6707 24.3725C37.677 24.3646 37.6817 24.3556 37.6845 24.346C37.69 24.3265 37.6874 24.3056 37.6773 24.2878C37.6672 24.27 37.6503 24.2569 37.6305 24.2512C37.6237 24.2492 37.6167 24.2482 37.6096 24.2481V24.2481ZM37.1335 24.4867C36.9669 24.4868 36.7832 24.6993 36.7852 24.9486C36.9036 24.7855 37.1528 24.5967 37.1495 24.4874C37.1442 24.4869 37.1388 24.4867 37.1335 24.4867L37.1335 24.4867ZM37.7027 24.707C37.6816 24.8093 37.7674 25.0248 37.7428 25.2146C37.8524 24.9716 37.8162 24.7492 37.7027 24.707V24.707ZM37.061 24.8823C37.061 24.8823 37.0175 24.9708 37.0153 25.0425C37.0138 25.0905 37.0153 25.1408 37.0329 25.1855C37.0511 25.2317 37.1663 25.319 37.1663 25.319L37.1353 25.4271C37.1353 25.4271 37.2591 25.3736 37.2847 25.3318C37.3042 25.2998 37.3633 25.1682 37.3633 25.1682L37.2336 25.2692C37.2336 25.2692 37.1026 25.1657 37.0812 25.109C37.0483 25.0219 37.0611 24.8823 37.0611 24.8823H37.061H37.061Z" fill="#FFEFA7"/>
<path d="M37.2716 23.8761C37.2256 23.8735 37.1931 23.8902 37.1827 23.9268C37.1688 23.9756 37.2029 24.0281 37.2752 24.0487C37.3475 24.0694 37.4178 24.0325 37.4318 23.9837C37.4457 23.935 37.3942 23.9058 37.3219 23.8852C37.3038 23.88 37.287 23.877 37.2716 23.8761H37.2716ZM37.778 24.0227C37.7418 24.0212 37.7154 24.0317 37.7067 24.0622C37.6928 24.111 37.7331 24.1794 37.8054 24.2C37.8776 24.2206 37.9344 24.1941 37.9483 24.1453C37.9622 24.0965 37.9243 24.0571 37.852 24.0365C37.8249 24.0287 37.7997 24.0235 37.778 24.0227L37.778 24.0227Z" fill="white"/>
<path d="M37.2721 23.864C37.2554 23.8632 37.2399 23.8646 37.2263 23.8686C37.1991 23.8764 37.1792 23.8956 37.1712 23.9237C37.1632 23.9517 37.1695 23.9809 37.1872 24.0053C37.205 24.0298 37.2338 24.0502 37.2721 24.0611C37.35 24.0833 37.4263 24.0446 37.4428 23.987C37.451 23.9582 37.4386 23.9327 37.4161 23.9149C37.3936 23.8971 37.3625 23.8838 37.3257 23.8733C37.3069 23.868 37.2889 23.8648 37.2721 23.864H37.2721ZM37.2713 23.888C37.2856 23.8888 37.3017 23.8917 37.319 23.8966C37.3544 23.9067 37.3833 23.9201 37.4012 23.9342C37.419 23.9483 37.4252 23.9604 37.4195 23.9803C37.4081 24.0203 37.3453 24.0568 37.2787 24.0378C37.2447 24.0281 37.2207 24.0112 37.2068 23.9921C37.1928 23.9729 37.1886 23.9511 37.1945 23.9303C37.2004 23.9095 37.2132 23.8972 37.234 23.8912C37.2444 23.8882 37.257 23.8871 37.2713 23.888H37.2713ZM37.7785 24.011C37.7708 24.0108 37.7633 24.0111 37.7562 24.012C37.7277 24.0152 37.7037 24.0303 37.6955 24.0591C37.6791 24.1167 37.7235 24.1899 37.8014 24.2121C37.8397 24.2231 37.8749 24.221 37.9029 24.2096C37.9308 24.1982 37.9516 24.1767 37.9596 24.1487C37.9676 24.1207 37.9609 24.0938 37.9419 24.0728C37.9229 24.0518 37.8925 24.0351 37.855 24.0244C37.8274 24.0165 37.8016 24.0116 37.7785 24.011L37.7785 24.011ZM37.7773 24.0355C37.7974 24.036 37.8218 24.0401 37.8483 24.0477C37.8831 24.0576 37.9089 24.0719 37.9234 24.088C37.9379 24.104 37.9422 24.1213 37.9363 24.1421C37.9304 24.1628 37.9153 24.179 37.8933 24.188C37.8713 24.1969 37.8421 24.1986 37.8081 24.1888C37.7414 24.1698 37.7074 24.1058 37.7188 24.0658C37.7245 24.0458 37.7361 24.0389 37.7587 24.0363C37.7644 24.0356 37.7706 24.0354 37.7773 24.0355V24.0355Z" fill="#D1B948"/>
<path d="M37.2746 23.7678C37.2416 23.7633 37.2019 23.7689 37.1779 23.7921C37.1636 23.806 37.1613 23.8503 37.1613 23.8503L37.2131 23.8509L37.2713 23.8676L37.3969 23.9239L37.5345 23.9159C37.5345 23.9159 37.4593 23.8852 37.4226 23.8643C37.3729 23.8362 37.3312 23.7754 37.2746 23.7678L37.2746 23.7678ZM37.9339 23.9559C37.8864 23.9438 37.8319 23.969 37.782 23.9669C37.7398 23.9652 37.6568 23.9508 37.6568 23.9508L37.7695 24.0302L37.9059 24.0487L37.9626 24.0649L38.0069 24.0917C38.0069 24.0917 38.0284 24.0528 38.0235 24.0335C38.0154 24.0011 37.9847 23.9754 37.9543 23.9618C37.9478 23.9588 37.9407 23.9577 37.9339 23.9559V23.9559Z" fill="#E4C900"/>
<path d="M37.1352 24.6869C37.0031 25.0062 37.5139 25.1677 37.5886 24.8163C37.4515 24.8067 37.3079 24.7817 37.1352 24.6869Z" fill="#E4C900"/>
<path d="M37.123 24.6544L37.1126 24.6797C37.0773 24.7653 37.0852 24.8443 37.1192 24.9051C37.1531 24.9659 37.2122 25.0077 37.2778 25.0275C37.3435 25.0473 37.4161 25.0451 37.4789 25.0125C37.5416 24.9799 37.5919 24.9159 37.6119 24.8222L37.6179 24.7956L37.59 24.7939C37.4547 24.7845 37.3155 24.7602 37.1461 24.6672L37.123 24.6544H37.123H37.123ZM37.139 24.6934C37.2883 24.7698 37.4674 24.8074 37.5886 24.8182C37.5685 24.8832 37.5279 24.9609 37.4841 24.9837C37.4341 25.0096 37.3373 25.0165 37.2825 24.9999C37.2276 24.9834 37.1566 24.9152 37.1296 24.8669C37.1058 24.8243 37.1195 24.7561 37.139 24.6934L37.139 24.6934L37.139 24.6934Z" fill="#806600"/>
<path d="M37.3452 24.4073C37.2816 24.6174 37.2262 24.8548 37.2693 25.0735C37.4213 24.9105 37.4991 24.6816 37.5559 24.4696C37.5562 24.4611 37.5141 24.4421 37.5088 24.4354C37.4956 24.4187 37.4732 24.3795 37.4732 24.3795C37.4732 24.3795 37.4308 24.4063 37.4068 24.412C37.3863 24.4168 37.3452 24.4073 37.3452 24.4073L37.3452 24.4073Z" fill="#377BC8" stroke="#2C5AA0" stroke-width="0.0357333"/>
<path d="M37.7284 23.4459C37.729 23.4461 37.6369 23.4512 37.5899 23.4706C37.5288 23.4958 37.4349 23.6149 37.4349 23.6149C37.4344 23.5819 37.4239 23.5325 37.4444 23.4988C37.4444 23.4988 37.4145 23.4983 37.375 23.5136C37.3365 23.5285 37.2887 23.559 37.2615 23.5825C37.2067 23.6298 37.1633 23.692 37.1633 23.692C37.2115 23.6903 37.3188 23.5936 37.3602 23.603C37.3954 23.611 37.371 23.7051 37.405 23.7094C37.4513 23.7153 37.4925 23.6428 37.5501 23.592C37.6013 23.547 37.6723 23.5128 37.7062 23.5239C37.7404 23.5351 37.7828 23.6018 37.8009 23.6671C37.8222 23.7442 37.838 23.8272 37.8734 23.8446C37.9085 23.8618 37.939 23.7662 37.9749 23.7782C38.0174 23.7925 38.0371 23.938 38.0777 23.9594C38.0777 23.9594 38.0746 23.8835 38.054 23.8142C38.0437 23.7797 38.0199 23.7283 37.9955 23.695C37.9705 23.6608 37.945 23.6452 37.945 23.6452C37.944 23.6846 37.9086 23.7206 37.8905 23.7481C37.8905 23.7481 37.8755 23.5972 37.8376 23.5431C37.8084 23.5013 37.7279 23.4458 37.7284 23.4459H37.7284ZM37.1153 23.9843C37.0629 24.0732 37.1288 24.1586 37.2348 24.1776L37.1937 24.2821L37.2539 24.4L37.3636 24.4382L37.4674 24.3972L37.5364 24.4908L37.6327 24.5125L37.7567 24.438L37.8062 24.354L37.8836 24.3493L37.9498 24.3176L37.9733 24.2351C37.9118 24.2792 37.851 24.3223 37.7264 24.2705C37.7228 24.3365 37.7067 24.3775 37.6839 24.4009C37.6566 24.4288 37.6197 24.4317 37.5832 24.4221C37.5376 24.4101 37.4987 24.3586 37.4806 24.3313C37.4356 24.3583 37.397 24.3788 37.3692 24.3697C37.3109 24.3507 37.2783 24.3161 37.2687 24.2761C37.2586 24.2337 37.2745 24.1854 37.3133 24.1433C37.0826 24.0824 37.1653 24.021 37.1153 23.9843H37.1153ZM36.9962 24.0142C36.9722 24.0482 36.8548 24.2358 36.8107 24.2671C36.7451 24.3138 36.6909 24.316 36.6909 24.316C36.724 24.4021 36.733 24.4374 36.8591 24.4541C36.5717 24.6604 36.539 24.9895 36.7598 25.2699C36.7741 25.2362 36.8234 25.1597 36.8525 25.1304C36.8494 25.128 36.8562 25.2924 36.9383 25.3762C36.9649 25.4033 36.9779 25.5545 37.0164 25.602C37.0515 25.6454 37.1007 25.6926 37.1007 25.6926C37.1007 25.6926 37.139 25.5727 37.1951 25.554C37.2516 25.5352 37.3571 25.5051 37.3919 25.4941C37.4619 25.472 37.5867 25.3227 37.5867 25.3227L37.5648 25.5052C37.943 25.3712 38.0293 25.1144 37.9325 24.7679C38.0255 24.8258 38.1276 24.75 38.1486 24.7422C38.1486 24.7422 38.1041 24.7111 38.074 24.6365C38.0537 24.5863 38.0481 24.4975 38.0449 24.456L38.0359 24.3423C38.0359 24.3423 37.9931 24.47 37.983 24.5055C37.9728 24.5411 37.9866 24.6674 37.9866 24.6674C37.9251 24.6458 37.8633 24.6256 37.8091 24.5786C37.8091 24.5786 37.8741 24.835 37.8811 24.9571C37.8849 25.0231 37.8624 25.1403 37.837 25.2013C37.81 25.266 37.6787 25.3652 37.6787 25.3652C37.6787 25.3652 37.7102 25.2011 37.7096 25.1448C37.7087 25.0648 37.677 24.8618 37.677 24.8618C37.677 24.8618 37.6317 25.0699 37.5956 25.1319C37.5545 25.2025 37.4793 25.327 37.4793 25.327C37.5004 25.1279 37.4898 25.1165 37.4642 25.0412C37.4642 25.0412 37.417 25.2888 37.3296 25.3952C37.3077 25.4218 37.2249 25.4431 37.1775 25.4677C37.125 25.4951 37.1087 25.5246 37.1087 25.5246C37.1087 25.5246 37.0592 25.3861 37.0454 25.3541C37.0149 25.2832 36.9543 25.2087 36.9336 25.1344C36.9032 25.0251 37.0497 24.7902 37.0497 24.7902C36.9955 24.7911 36.9412 24.8549 36.8827 24.9251C36.8349 24.9824 36.7804 25.043 36.754 25.0867C36.754 25.0867 36.7072 24.9159 36.708 24.8653C36.709 24.7935 36.7361 24.7216 36.773 24.66C36.8328 24.5601 37.0961 24.3549 37.0961 24.3549C37.0237 24.3744 36.9581 24.4002 36.8207 24.3602C36.8207 24.3602 36.9294 24.2327 36.9472 24.2027C37.0018 24.1108 36.9812 24.076 36.9962 24.0142L36.9962 24.0142ZM37.4867 24.1191C37.4323 24.1181 37.3637 24.1254 37.3637 24.1254L37.3711 24.1725L37.4205 24.1916L37.4875 24.2912L37.658 24.2455L37.6806 24.2065C37.6806 24.2065 37.5844 24.1351 37.5335 24.1234C37.5215 24.1207 37.5049 24.1195 37.4867 24.1191L37.4867 24.1191Z" fill="#E4C900"/>
<path d="M37.9325 24.7679C38.0255 24.8258 38.1277 24.7499 38.1487 24.7422C38.1487 24.7422 38.1042 24.7111 38.074 24.6365C38.0538 24.5863 38.0468 24.4976 38.0449 24.456C38.038 24.3016 38.0996 24.2776 38.1016 24.2893C38.1016 24.2893 38.2039 24.2542 38.2463 24.2215C38.2866 24.1906 38.3051 24.1369 38.3162 24.0874C38.3329 24.0131 38.3036 23.9041 38.3036 23.9041C38.1549 23.8955 38.1171 23.9152 38.0823 23.9607C38.0823 23.9607 38.0792 23.8848 38.0586 23.8155C38.0483 23.781 38.0245 23.7296 38.0001 23.6963C37.9751 23.6621 37.9495 23.6465 37.9495 23.6465C37.9486 23.6859 37.9132 23.7219 37.8951 23.7494C37.8783 23.6101 37.8473 23.5306 37.733 23.4472C37.6003 23.4503 37.5237 23.5148 37.4394 23.6161C37.439 23.5832 37.4285 23.5338 37.449 23.5001C37.449 23.5001 37.4191 23.4995 37.3795 23.5149C37.341 23.5298 37.2933 23.5603 37.266 23.5838C37.2113 23.6311 37.1679 23.6933 37.1679 23.6933C37.1654 23.6337 37.1451 23.5993 37.0119 23.5264C37.0119 23.5264 36.9285 23.6025 36.9025 23.674C36.8852 23.7217 36.872 23.777 36.8891 23.8247C36.9073 23.8751 36.9746 23.9598 36.9746 23.9598C36.9826 23.951 37.0216 24.0044 36.9325 24.1308C36.9086 24.1648 36.8549 24.2357 36.8108 24.2671C36.7452 24.3138 36.6909 24.316 36.6909 24.316C36.724 24.4022 36.7331 24.4374 36.8592 24.4541C36.5717 24.6604 36.5391 24.9895 36.7598 25.2699C36.7742 25.2362 36.8235 25.1597 36.8526 25.1304C36.8495 25.1279 36.8563 25.2924 36.9383 25.3761C36.965 25.4033 36.9779 25.5545 37.0164 25.6021C37.0515 25.6454 37.1008 25.6926 37.1008 25.6926C37.1008 25.6926 37.139 25.5727 37.1951 25.554C37.2516 25.5352 37.3571 25.505 37.3919 25.4941C37.462 25.472 37.5868 25.3227 37.5868 25.3227L37.5648 25.5052C37.943 25.3712 38.0293 25.1144 37.9325 24.7679L37.9325 24.7679Z" stroke="#806600" stroke-width="0.0357333"/>
<path d="M37.0119 23.6296C37.0119 23.6296 36.9513 23.7232 36.9603 23.7842C36.9674 23.8327 37.0508 23.9418 37.0508 23.9418C37.0508 23.9418 37.1021 23.7833 37.094 23.7245C37.0881 23.6813 37.0119 23.6296 37.0119 23.6296L37.0119 23.6296ZM37.2169 23.8318C37.2061 23.8322 37.1951 23.8349 37.1838 23.8404C37.1612 23.8515 37.1458 23.8549 37.1362 23.8885C37.164 23.884 37.1819 23.8739 37.2047 23.8637C37.2102 23.861 37.2186 23.861 37.2331 23.8666C37.2622 23.8779 37.3026 23.9103 37.3473 23.9232C37.4112 23.9416 37.4939 23.9198 37.5265 23.9163C37.523 23.9297 37.5167 23.9692 37.5025 23.9898C37.4953 24.0003 37.4422 24.0207 37.4177 24.0439C37.4054 24.0555 37.3934 24.0674 37.3833 24.0784C37.3732 24.0895 37.3647 24.0983 37.3596 24.1123C37.3493 24.1405 37.355 24.1704 37.355 24.1704L37.3561 24.1864L37.3714 24.1913C37.4278 24.2097 37.4376 24.2303 37.4516 24.2741L37.4538 24.281L37.4589 24.285C37.4648 24.2903 37.4692 24.2945 37.4745 24.2978C37.4798 24.3012 37.4867 24.304 37.4929 24.3047C37.5052 24.3061 37.5075 24.3036 37.519 24.3043L37.5288 24.305L37.5364 24.2983C37.5714 24.2685 37.5911 24.2563 37.6487 24.2704L37.6637 24.2742L37.6737 24.2614C37.6737 24.2614 37.6938 24.2388 37.6999 24.2094C37.703 24.1949 37.6959 24.1873 37.6932 24.1726C37.6904 24.1579 37.6865 24.1415 37.6822 24.1252C37.6737 24.0925 37.6465 24.0329 37.6459 24.0202C37.6448 23.9952 37.6579 23.9618 37.662 23.9486C37.688 23.9688 37.7465 24.0373 37.8102 24.0553C37.8549 24.0679 37.9063 24.0617 37.937 24.0675C37.9523 24.0704 37.9594 24.0749 37.9626 24.08L38.0078 24.1373C38.0174 24.1037 38.006 24.0823 37.9926 24.061C37.9793 24.0396 37.9674 24.042 37.9459 24.0379C37.9028 24.0297 37.853 24.0348 37.8235 24.0265C37.7509 24.006 37.6811 23.9283 37.6811 23.9283L37.6606 23.9104L37.6453 23.9331C37.6453 23.9331 37.6174 23.9753 37.6204 24.0423C37.6216 24.0682 37.6473 24.1188 37.6556 24.1508C37.6598 24.1669 37.6636 24.1825 37.666 24.195C37.6683 24.2074 37.6679 24.2177 37.6679 24.2174C37.6668 24.2231 37.6614 24.231 37.6567 24.2387C37.6023 24.2308 37.5421 24.2565 37.5085 24.2831C37.5025 24.2832 37.4945 24.2828 37.495 24.2829C37.4942 24.2824 37.4921 24.2804 37.4904 24.279C37.4759 24.238 37.43 24.1752 37.379 24.153C37.379 24.1439 37.3787 24.1344 37.3806 24.129C37.3805 24.1293 37.386 24.1204 37.3946 24.1111C37.4032 24.1017 37.4147 24.0905 37.4267 24.079C37.4508 24.0562 37.5011 24.0338 37.5158 24.0124C37.5537 23.9572 37.5522 23.9066 37.5522 23.9066L37.5507 23.879L37.5239 23.8834C37.5239 23.8834 37.4309 23.9131 37.3584 23.8921C37.329 23.8836 37.2893 23.8531 37.2484 23.8373C37.2382 23.8333 37.2277 23.8314 37.2169 23.8318L37.2169 23.8318ZM37.1186 23.9617C37.0789 24.0152 37.0727 24.0725 37.0957 24.1168C37.1149 24.1537 37.1536 24.1771 37.1988 24.1921C37.1962 24.1993 37.1955 24.2005 37.1923 24.2111C37.1855 24.2341 37.1783 24.2611 37.1811 24.2871C37.1867 24.3405 37.2165 24.3834 37.2548 24.4161C37.2883 24.4447 37.3334 24.4567 37.3752 24.4546C37.401 24.4533 37.4238 24.4435 37.4421 24.434C37.4486 24.4307 37.4493 24.4298 37.4546 24.4267C37.4648 24.4475 37.4801 24.4729 37.5088 24.4927C37.5432 24.5166 37.5873 24.53 37.6308 24.5234C37.6807 24.5159 37.7286 24.4951 37.7615 24.4528C37.7776 24.4321 37.7858 24.4055 37.7921 24.3823C37.7944 24.374 37.7939 24.3736 37.7954 24.367C37.8439 24.3815 37.8898 24.3772 37.9244 24.3533C37.9656 24.3248 37.9879 24.2728 37.9865 24.2109C37.951 24.2289 37.9826 24.2818 37.9048 24.33C37.8795 24.3475 37.8428 24.3514 37.7953 24.3301L37.7591 24.3004L37.7615 24.3518C37.7615 24.3518 37.7583 24.3692 37.7527 24.3899C37.747 24.4107 37.7373 24.4349 37.7306 24.4436C37.7067 24.4743 37.6654 24.4897 37.6237 24.496C37.5957 24.5003 37.5614 24.4905 37.5364 24.4732C37.5124 24.4566 37.4906 24.4109 37.4895 24.4064L37.4777 24.3567L37.4526 24.3845C37.4465 24.3913 37.4292 24.3985 37.4143 24.4062C37.3994 24.4139 37.3817 24.4202 37.3673 24.4209C37.3369 24.4225 37.3021 24.4125 37.2806 24.3941C37.2485 24.3667 37.2186 24.3209 37.2145 24.2822C37.2133 24.2713 37.2179 24.2456 37.224 24.2249C37.2302 24.2043 37.2423 24.1878 37.2423 24.1878L37.2629 24.1613L37.2214 24.1639C37.1737 24.1537 37.1399 24.13 37.1257 24.1027C37.0742 24.0458 37.1207 24.0045 37.1186 23.9617L37.1186 23.9617ZM38.2409 23.9804C38.2409 23.9804 38.1489 23.9841 38.1211 24.0177C38.0832 24.0634 38.0432 24.225 38.0432 24.225C38.0432 24.225 38.1716 24.1763 38.2032 24.139C38.243 24.0919 38.2409 23.9804 38.2409 23.9804V23.9804Z" fill="#806600"/>
<path d="M37.3117 23.9089C37.3005 23.9089 37.2896 23.9124 37.2807 23.9191C37.2718 23.9258 37.2653 23.9352 37.2622 23.946C37.2604 23.9524 37.2598 23.9592 37.2606 23.9658C37.2614 23.9725 37.2634 23.9789 37.2667 23.9848C37.27 23.9906 37.2743 23.9958 37.2796 23.9999C37.2848 24.0041 37.2909 24.0072 37.2973 24.009C37.3103 24.0127 37.3243 24.0111 37.3361 24.0046C37.3479 23.998 37.3566 23.987 37.3604 23.974C37.3641 23.961 37.3625 23.947 37.3559 23.9352C37.3493 23.9234 37.3383 23.9146 37.3253 23.9109C37.3209 23.9096 37.3163 23.909 37.3117 23.9089L37.3117 23.9089ZM37.8207 24.0547C37.8098 24.0549 37.7992 24.0586 37.7906 24.0653C37.782 24.0719 37.7757 24.0812 37.7727 24.0917C37.7709 24.0981 37.7703 24.1049 37.7711 24.1115C37.7718 24.1182 37.7739 24.1246 37.7772 24.1305C37.7804 24.1363 37.7848 24.1415 37.7901 24.1457C37.7953 24.1498 37.8014 24.1529 37.8078 24.1548C37.8142 24.1566 37.821 24.1572 37.8276 24.1564C37.8343 24.1556 37.8407 24.1535 37.8466 24.1503C37.8525 24.147 37.8576 24.1426 37.8618 24.1374C37.8659 24.1321 37.869 24.1261 37.8709 24.1197C37.8746 24.1067 37.873 24.0927 37.8664 24.0809C37.8598 24.0691 37.8488 24.0603 37.8358 24.0566C37.8309 24.0552 37.8258 24.0546 37.8207 24.0547L37.8207 24.0547Z" fill="#2B2200"/>
<path d="M35.9223 25.6321C35.8849 25.6494 35.8304 25.6081 35.7188 25.7258C35.8109 25.722 35.8412 25.7395 35.9003 25.8132C35.9396 25.8075 35.9609 25.787 35.969 25.76C35.9854 25.7056 35.9691 25.6585 35.9223 25.6321V25.6321ZM38.5435 25.7828C38.4982 25.8003 38.432 25.7592 38.2973 25.8773C38.4089 25.8731 38.4457 25.8906 38.5175 25.9641C38.565 25.9581 38.5907 25.9376 38.6004 25.9105C38.6201 25.8561 38.6002 25.809 38.5435 25.7828V25.7828ZM35.7292 25.9576C35.7005 25.9915 35.6369 25.9796 35.5729 26.1411C35.6563 26.0935 35.6898 26.0951 35.7682 26.1346C35.8024 26.1104 35.8153 26.0815 35.8139 26.0528C35.8112 25.995 35.7807 25.9595 35.7292 25.9576V25.9576ZM38.5986 26.2081C38.566 26.244 38.4885 26.2369 38.4209 26.4028C38.5187 26.3491 38.5594 26.3483 38.6565 26.3818C38.6964 26.3552 38.7102 26.3254 38.7068 26.2968C38.7 26.2393 38.6611 26.2062 38.5986 26.2081L38.5986 26.2081ZM35.9318 26.3442C35.9165 26.3434 35.9 26.3482 35.8828 26.3588C35.8711 26.4052 35.8106 26.4319 35.8186 26.6108C35.8728 26.5205 35.9029 26.5023 35.9872 26.4913C36.0076 26.4502 36.0074 26.4173 35.9948 26.3929C35.979 26.3623 35.9571 26.3455 35.9318 26.3442L35.9318 26.3442ZM41.6329 26.3633C41.6221 26.3639 41.6106 26.3669 41.5985 26.3724C41.5827 26.417 41.5202 26.4355 41.512 26.6144C41.574 26.5318 41.6056 26.5177 41.6904 26.5179C41.7144 26.4797 41.7172 26.447 41.7068 26.4211C41.6913 26.382 41.6652 26.3617 41.6329 26.3633L41.6329 26.3633ZM38.9906 26.4843C38.9722 26.4854 38.9528 26.4923 38.9332 26.505C38.924 26.5527 38.854 26.5869 38.8825 26.7638C38.9382 26.667 38.9725 26.6452 39.073 26.6234C39.0932 26.58 39.0895 26.5472 39.0717 26.5246C39.0494 26.4961 39.0213 26.4823 38.9906 26.4843L38.9906 26.4843ZM42.3 26.4965C42.2691 26.4936 42.2419 26.5131 42.2231 26.554C42.2347 26.6004 42.1968 26.6633 42.2857 26.8065C42.2891 26.6949 42.3058 26.6596 42.3708 26.5935C42.3688 26.5456 42.3535 26.5185 42.3318 26.5067C42.3209 26.5008 42.3102 26.4974 42.3 26.4964V26.4965ZM41.9351 26.5484C41.9154 26.5502 41.8959 26.5622 41.8779 26.5846C41.8791 26.633 41.829 26.6817 41.8839 26.8481C41.9113 26.7415 41.935 26.7126 42.0119 26.6693C42.0204 26.6225 42.0115 26.5915 41.9931 26.5733C41.9745 26.555 41.9548 26.5466 41.9351 26.5484L41.9351 26.5484Z" fill="#377BC8" stroke="#2C5AA0" stroke-width="0.0357333"/>
<mask id="mask1_1_32508" style="mask-type:alpha" maskUnits="userSpaceOnUse" x="3" y="9" width="24" height="18">
<rect x="3" y="9" width="24" height="18" fill="#C4C4C4"/>
</mask>
<g mask="url(#mask1_1_32508)">
<path d="M3 9L27 27L3 9ZM27 9L3 27Z" fill="black"/>
<path d="M27 9L3 27M3 9L27 27L3 9Z" stroke="white" stroke-width="2.4"/>
<path d="M3 9L27 27L3 9ZM27 9L3 27Z" fill="black"/>
<path d="M27 9L3 27M3 9L27 27L3 9Z" stroke="#EE5757" stroke-width="1.6"/>
<path d="M15 9V30V9ZM3 18H31Z" fill="black"/>
<path d="M3 18H31M15 9V30V9Z" stroke="white" stroke-width="4"/>
<path d="M15 9V30V9ZM3 18H31Z" fill="black"/>
<path d="M3 18H31M15 9V30V9Z" stroke="#EE5757" stroke-width="2.4"/>
</g>
</g>
</svg>
