<svg width="54" height="48" viewBox="0 0 54 48" fill="none" xmlns="http://www.w3.org/2000/svg">
<mask id="mask0_1_32508" style="mask-type:alpha" maskUnits="userSpaceOnUse" x="3" y="6" width="48" height="36">
<path d="M3.56934 15.1356C4.16681 10.4125 8.0415 7.00193 12.7861 6.60887C16.6412 6.28949 21.6196 6 27 6C32.3804 6 37.3588 6.28949 41.2139 6.60887C45.9585 7.00193 49.8332 10.4125 50.4307 15.1356C50.752 17.6759 51 20.704 51 24C51 27.296 50.752 30.3241 50.4307 32.8644C49.8332 37.5875 45.9585 40.9981 41.2139 41.3911C37.3588 41.7105 32.3804 42 27 42C21.6196 42 16.6412 41.7105 12.7861 41.3911C8.0415 40.9981 4.16681 37.5875 3.56934 32.8644C3.248 30.3241 3 27.296 3 24C3 20.704 3.248 17.6759 3.56934 15.1356Z" fill="#00D0BF"/>
</mask>
<g mask="url(#mask0_1_32508)">
<rect x="3" y="6" width="48" height="36" fill="#2E50A6"/>
<path d="M43.5969 20.1351V24.9241C43.5969 29.0747 41.6322 30.4991 39.0044 31.6288C36.3765 30.4991 34.3872 29.0746 34.3872 24.9241V20.1351H43.5969H43.5969Z" fill="white" stroke="white" stroke-width="0.49197" stroke-linejoin="round"/>
<path d="M31.5383 31.2359C31.6856 31.6288 32.7417 32.1446 33.9697 31.4815C34.8047 31.0149 35.345 30.3518 35.8607 29.1729C36.0081 28.8782 36.0818 28.5098 35.7379 28.2888C35.4678 28.0923 35.0257 27.8713 34.8292 27.6748C34.731 27.5766 34.6328 27.5029 34.5591 27.4292C34.6082 27.4783 34.6573 27.5274 34.7064 27.6011C35.1976 28.1905 34.6819 29.0501 34.1416 29.5659C33.7486 29.9342 33.0364 30.8429 32.0049 29.9834C31.7839 29.7869 31.2681 30.5973 31.5383 31.2359L31.5383 31.2359Z" fill="#FCEA83" stroke="black" stroke-width="0.0736776"/>
<path d="M46.4702 31.2359C46.2983 31.6288 45.2423 32.1446 44.0389 31.4815C43.2039 31.0149 42.6635 30.3518 42.1232 29.1729C42.0004 28.8782 41.9268 28.5098 42.2706 28.2888C42.5407 28.0923 42.9828 27.8713 43.1793 27.6748C43.2775 27.5766 43.3512 27.5029 43.4494 27.4292C43.4003 27.4783 43.3512 27.5274 43.3021 27.6011C42.8109 28.1905 43.3266 29.0501 43.8424 29.5659C44.2353 29.9342 44.9721 30.8429 46.0036 29.9834C46.2246 29.7869 46.7158 30.5973 46.4702 31.2359V31.2359Z" fill="#FCEA83" stroke="black" stroke-width="0.0736776"/>
<path d="M39.0043 33.348C40.9691 33.348 43.9899 32.4639 45.6108 29.3694C45.8809 28.8537 45.6108 28.5835 45.2915 28.4116C44.9477 28.2643 44.5302 27.9204 44.3091 27.6994C44.7021 28.0924 44.6284 28.3625 44.3583 28.8046C43.1057 30.8921 41.3866 31.9482 39.0043 31.9482C36.6221 31.9482 34.9029 30.8921 33.6504 28.8046C33.3803 28.3625 33.3066 28.0924 33.675 27.6994C33.4785 27.9204 33.0364 28.2643 32.6926 28.4116C32.3733 28.5835 32.1032 28.8537 32.3733 29.3694C33.9942 32.4639 37.0396 33.348 39.0044 33.348H39.0043Z" fill="#FCEA83" stroke="black" stroke-width="0.0736776"/>
<path d="M34.4608 29.1975C34.4117 28.9519 34.0924 29.0501 33.9942 29.3449C33.8714 29.1729 33.7486 29.001 33.6504 28.8046C33.3557 28.3625 33.3065 28.0678 33.724 27.6503C33.9205 27.4538 34.3135 27.2328 34.5836 27.4783C35.1485 27.945 34.8538 28.7063 34.4608 29.1975V29.1975Z" fill="#C8102E" stroke="black" stroke-width="0.0736776"/>
<path d="M43.5233 29.1975C43.5724 28.9519 43.9162 29.0501 44.0144 29.3449C44.1372 29.1729 44.26 29.001 44.3583 28.8046C44.653 28.3625 44.7021 28.0678 44.26 27.6503C44.0881 27.4538 43.6952 27.2328 43.4005 27.4783C42.8602 27.945 43.1303 28.7063 43.5233 29.1975L43.5233 29.1975Z" fill="#C8102E" stroke="black" stroke-width="0.0736776"/>
<path d="M31.5383 31.2359C31.2927 30.8675 31.0962 29.9097 31.0471 29.6641C30.9734 29.4431 30.9489 29.2466 31.219 29.1483C31.4892 29.0501 31.7348 29.3939 31.8576 29.6886C31.9804 29.9834 32.1768 30.4254 32.3979 30.9657C31.8576 30.6465 31.4155 30.8675 31.5383 31.2359H31.5383Z" fill="#C8102E" stroke="black" stroke-width="0.0736776"/>
<path d="M46.4702 31.2359C46.6913 30.8675 46.8877 29.9097 46.9614 29.6641C47.0105 29.4431 47.0597 29.2466 46.7895 29.1483C46.5194 29.0501 46.2738 29.3939 46.151 29.6886C46.0282 29.9834 45.8317 30.4254 45.6107 30.9657C46.151 30.6465 46.5685 30.8675 46.4702 31.2359Z" fill="#C8102E" stroke="black" stroke-width="0.0736776"/>
<path d="M32.9628 29.0256L32.7663 29.1238C32.7172 29.1484 32.7172 29.1975 32.7172 29.222H32.6926L32.5944 29.001H32.6189C32.6189 29.0256 32.6435 29.0501 32.6926 29.0256L33.1101 28.8045C33.1592 28.78 33.1592 28.7554 33.1347 28.7309L33.1592 28.7063L33.282 28.9519H33.2575C33.2329 28.9273 33.2083 28.9028 33.1592 28.9273L32.9873 29.0256L33.061 29.1729L33.2575 29.0992C33.3066 29.0747 33.282 29.0256 33.282 29.001H33.3066L33.4048 29.222C33.3803 29.1975 33.3557 29.1729 33.3066 29.1975L32.8891 29.4185C32.84 29.4431 32.84 29.4676 32.8645 29.4922L32.84 29.5168L32.7172 29.2957L32.7417 29.2712C32.7663 29.2957 32.7908 29.3203 32.84 29.2957L33.0364 29.1975L32.9628 29.0256Z" fill="#00493D"/>
<path d="M33.3803 29.3448C33.4294 29.3203 33.4294 29.2957 33.4048 29.2466H33.4294L33.675 29.615L33.5031 29.7378V29.7132C33.6013 29.6395 33.6013 29.5413 33.5768 29.5167C33.5522 29.4922 33.5276 29.4676 33.5276 29.4431C33.5031 29.4431 33.5031 29.4185 33.454 29.4676C33.4294 29.4922 33.282 29.5904 33.282 29.5904C33.3066 29.615 33.3312 29.6887 33.454 29.615H33.4785L33.2084 29.8114V29.7869C33.3312 29.6887 33.282 29.615 33.2575 29.5904L33.0856 29.7132C33.0365 29.7378 33.0365 29.7623 33.0365 29.7869C33.061 29.7869 33.061 29.8114 33.0856 29.836C33.1101 29.8851 33.1838 29.9342 33.3066 29.8851L33.3312 29.9097L33.1347 29.9834L32.8891 29.5904H32.9137C32.9382 29.615 32.9628 29.6395 33.0119 29.615L33.3803 29.3448Z" fill="#00493D"/>
<path d="M33.7732 30.2781L33.6013 30.4255C33.5767 30.45 33.5767 30.4992 33.6013 30.5237H33.5767L33.4048 30.3518L33.4293 30.3272C33.4539 30.3518 33.4785 30.3764 33.5276 30.3272L33.8469 30.008C33.896 29.9834 33.896 29.9588 33.8714 29.9097L34.0433 30.1062C34.0188 30.0816 33.9697 30.0816 33.9451 30.1062L33.7977 30.2536L33.9205 30.3764L34.0679 30.2536C34.117 30.2044 34.0924 30.1799 34.0679 30.1553L34.0924 30.1308L34.2644 30.3272H34.2398C34.2152 30.3272 34.1907 30.3027 34.1416 30.3518L33.8223 30.6465C33.7732 30.6956 33.7732 30.7202 33.7977 30.7447V30.7693L33.6258 30.5728C33.6504 30.5728 33.6995 30.5974 33.7241 30.5728L33.896 30.4009L33.7732 30.2781Z" fill="#00493D"/>
<path d="M34.1416 30.7938L34.2152 30.8675C34.3135 30.6465 34.3135 30.6465 34.3135 30.6465C34.3135 30.6465 34.2398 30.671 34.117 30.7447L34.1416 30.7938L34.117 30.8184L34.0679 30.7693C34.0433 30.7938 34.0188 30.7938 33.9942 30.8184C33.9205 30.8675 33.9451 30.8921 33.9697 30.9166V30.9412L33.8469 30.8184H33.8714L33.9697 30.7938C34.4608 30.5237 34.4608 30.5237 34.4608 30.5237L34.4854 30.5482C34.4854 30.5482 34.4608 30.5728 34.2398 31.064C34.2398 31.1131 34.2153 31.1377 34.2398 31.1868L34.0433 31.0149L34.0679 30.9903C34.0925 31.0394 34.1416 31.0394 34.1661 30.9903C34.1661 30.9658 34.1907 30.9166 34.1907 30.8921L34.117 30.8184L34.1416 30.7938V30.7938Z" fill="#00493D"/>
<path d="M34.3381 31.2851L34.3626 31.2605C34.3872 31.2851 34.4118 31.2851 34.4609 31.2605L34.7801 30.843L34.7556 30.8185C34.7065 30.7939 34.6328 30.7939 34.5591 30.8676V30.843L34.6573 30.7202L35.0257 30.9904L34.9029 31.1377H34.8784C34.9521 31.064 34.9275 30.9658 34.8784 30.9412V30.9167L34.5591 31.3342C34.51 31.3588 34.5345 31.4079 34.5591 31.4324H34.5345L34.3381 31.2851Z" fill="#00493D"/>
<path d="M34.9766 31.3833L34.8538 31.5552C34.8293 31.6043 34.8538 31.6289 34.8784 31.6535L34.8538 31.678L34.6573 31.5307V31.5061C34.7065 31.5307 34.731 31.5307 34.7556 31.4815L35.0257 31.1132C35.0503 31.064 35.0257 31.0395 35.0012 31.0149L35.0257 30.9904L35.2222 31.1377V31.1623C35.1731 31.1377 35.1485 31.1377 35.124 31.1868L35.0012 31.3587L35.1485 31.457L35.2713 31.2851C35.2959 31.2359 35.2713 31.2114 35.2468 31.1868L35.2713 31.1623L35.4678 31.3096V31.3342C35.4432 31.3096 35.3941 31.3096 35.3696 31.3587L35.124 31.7517C35.0749 31.7763 35.0994 31.8008 35.124 31.8254V31.8499L34.9029 31.7026H34.9275C34.9521 31.7026 34.9766 31.7026 35.0012 31.678L35.124 31.4815L34.9766 31.3833Z" fill="#00493D"/>
<path d="M35.4678 32.0709L35.4923 32.0463C35.5169 32.0709 35.566 32.0709 35.5906 32.0218L35.787 31.6043C35.8116 31.5552 35.787 31.5306 35.7625 31.506L36.18 31.7025L36.0818 31.899L36.0572 31.8744C36.1309 31.7762 36.0572 31.678 36.0326 31.6534C36.0081 31.6534 35.9835 31.6288 35.959 31.6288C35.9344 31.6288 35.9344 31.6288 35.9098 31.678C35.8853 31.7025 35.8116 31.8499 35.8116 31.8499C35.8362 31.8744 35.8853 31.9236 35.9835 31.8008H36.0081L35.8607 32.0955L35.8362 32.0709C35.9098 31.9235 35.8116 31.899 35.787 31.899L35.6888 32.0955C35.6643 32.1446 35.6888 32.1691 35.7134 32.1691V32.1937L35.4678 32.0709Z" fill="#00493D"/>
<path d="M36.18 32.4148C36.1063 32.3657 36.1063 32.2183 36.18 32.0709C36.2291 31.9236 36.3274 31.8008 36.4256 31.8499C36.4993 31.8745 36.4747 32.0218 36.4256 32.1692C36.3519 32.3411 36.2537 32.4393 36.18 32.4148H36.1554C36.3274 32.4885 36.4501 32.3902 36.5238 32.2183C36.5975 32.0709 36.5729 31.899 36.4256 31.8253C36.2782 31.7517 36.1309 31.8499 36.0572 32.0218C35.9835 32.1937 36.0081 32.3657 36.1554 32.4148H36.18Z" fill="#00493D"/>
<path d="M36.9413 32.4639L37.0396 32.1692C37.0641 32.1201 37.0396 32.0955 37.015 32.0709L37.1378 32.0955V32.1201C37.1133 32.1201 37.0887 32.1201 37.0641 32.1692L36.9659 32.4639C36.9168 32.5867 36.8431 32.6849 36.6957 32.6358C36.5975 32.6112 36.5238 32.4884 36.5729 32.3657L36.6957 32.0464C36.7203 31.9973 36.6957 31.9727 36.6712 31.9481V31.9236L36.8922 32.0218V32.0464C36.8677 32.0218 36.8185 32.0218 36.8185 32.0709L36.6957 32.3902C36.6712 32.4884 36.6712 32.5867 36.7449 32.6112C36.8185 32.6358 36.8922 32.5867 36.9413 32.4639Z" fill="#00493D"/>
<path d="M37.1624 32.1446C37.1624 32.1201 37.1624 32.1201 37.1378 32.1201L37.3097 32.1446L37.4571 32.6112L37.5308 32.3165C37.5553 32.2674 37.5308 32.2429 37.5062 32.2183L37.6536 32.2429L37.629 32.2674C37.6045 32.2674 37.5799 32.2674 37.5553 32.3165L37.4325 32.8568H37.408L37.2115 32.2674L37.0887 32.6604C37.0887 32.734 37.1133 32.734 37.1378 32.7586V32.7832L36.9905 32.734V32.7095C37.015 32.734 37.0642 32.7095 37.0642 32.6604L37.187 32.2183L37.1624 32.1446V32.1446Z" fill="#00493D"/>
<path d="M37.9974 32.6358C37.9483 32.8568 37.85 32.906 37.8009 32.906H37.7518C37.7518 32.906 37.7272 32.8814 37.7518 32.8568L37.8255 32.3657C37.85 32.3411 37.85 32.3165 37.8746 32.3411H37.9237C37.9728 32.3411 38.0219 32.4393 37.9974 32.6358L38.0711 32.6604C38.1202 32.4148 38.0219 32.3165 37.8992 32.292C37.8009 32.2674 37.6536 32.2429 37.6536 32.2429V32.2674C37.6781 32.292 37.7272 32.292 37.7027 32.3657L37.629 32.8077C37.6044 32.8568 37.5799 32.8814 37.5553 32.8814H37.5308L37.7764 32.9305C37.8992 32.9551 38.0219 32.9305 38.0711 32.6604L37.9974 32.6358Z" fill="#00493D"/>
<path d="M38.2184 32.4393C38.2184 32.3902 38.1693 32.3656 38.1447 32.3656V32.3411L38.5868 32.3902L38.5622 32.5867C38.5622 32.4639 38.4886 32.4147 38.4394 32.4147C38.4149 32.3902 38.3903 32.3902 38.3658 32.3902C38.3412 32.3902 38.3412 32.3902 38.3412 32.4639C38.3412 32.4884 38.3166 32.6603 38.3166 32.6603C38.3412 32.6603 38.4149 32.6849 38.464 32.5375L38.4394 32.8568H38.4149C38.4149 32.7095 38.3412 32.7095 38.3166 32.7095L38.2921 32.9305C38.2921 32.9796 38.2921 32.9796 38.3166 32.9796L38.3658 33.0042C38.4394 33.0042 38.5131 32.9796 38.5622 32.8322H38.5868L38.5377 33.0287L38.071 32.9796C38.1202 32.9796 38.1447 32.955 38.1693 32.9059L38.2184 32.4393Z" fill="#00493D"/>
<path d="M39.0289 32.734C39.0289 32.9551 38.9553 33.0287 38.8816 33.0287C38.857 33.0042 38.857 33.0042 38.8325 33.0042L38.8079 32.9796L38.8325 32.4639C38.8325 32.4393 38.8325 32.4393 38.857 32.4393H38.9061C38.9553 32.4393 39.0289 32.513 39.0289 32.734H39.1272C39.1272 32.4884 39.0044 32.4148 38.8816 32.4148C38.7833 32.3902 38.636 32.3902 38.636 32.3902V32.4148C38.6605 32.4148 38.7097 32.4393 38.7097 32.4884L38.6851 32.9551C38.6851 33.0042 38.6605 33.0287 38.636 33.0287V33.0533H38.857C38.9798 33.0533 39.1026 33.0042 39.1272 32.734H39.0289V32.734Z" fill="#00493D"/>
<path d="M39.7411 32.9305C39.7411 32.9796 39.7657 32.9796 39.8148 32.9796V33.0042L39.5446 33.0288C39.5692 33.0042 39.6183 32.9796 39.6183 32.9305L39.5692 32.4639C39.5446 32.4148 39.5201 32.4148 39.4709 32.4148V32.3902L39.7411 32.3657C39.7165 32.3902 39.6674 32.4148 39.692 32.4639L39.7411 32.9305Z" fill="#00493D"/>
<path d="M39.9867 32.9797V32.9551C40.0113 32.9551 40.0358 32.9305 40.0358 32.8814L39.9376 32.3657H39.913C39.8639 32.3902 39.8148 32.4393 39.8393 32.5376H39.8148L39.7902 32.3657L40.2323 32.292L40.2568 32.4639H40.2323C40.2323 32.3657 40.1586 32.3411 40.0849 32.3411H40.0604L40.1586 32.8569C40.1586 32.906 40.1832 32.9305 40.2323 32.9305V32.9551L39.9867 32.9797Z" fill="#00493D"/>
<path d="M41.0427 32.4884L40.9445 32.1937C40.9445 32.1446 40.8954 32.1446 40.8708 32.1446V32.12L40.9936 32.0709V32.0955C40.9691 32.12 40.9691 32.12 40.9691 32.1692L41.0673 32.4884C41.0919 32.5867 41.0919 32.734 40.9445 32.7831C40.8463 32.8077 40.7235 32.7586 40.6989 32.6112L40.6007 32.292C40.5761 32.2428 40.5516 32.2428 40.527 32.2428L40.5024 32.2183L40.748 32.1446V32.1692C40.7235 32.1937 40.6989 32.2183 40.7235 32.2674L40.7972 32.5867C40.8217 32.6849 40.8954 32.734 40.9691 32.734C41.0427 32.7095 41.0673 32.6112 41.0427 32.4884Z" fill="#00493D"/>
<path d="M41.3129 32.3166C41.4357 32.2674 41.4111 32.1938 41.3866 32.1201C41.362 32.0464 41.3129 31.9973 41.2638 32.0218C41.2392 32.0218 41.2147 32.0464 41.2392 32.071L41.3129 32.3166L41.3375 32.3411L41.3866 32.5376C41.4111 32.5867 41.4603 32.5867 41.4848 32.5621V32.5867L41.2638 32.6849L41.2392 32.6604C41.2883 32.6358 41.2883 32.6113 41.2883 32.5621L41.1164 32.1446C41.0919 32.071 41.0673 32.0955 41.0182 32.0955V32.071L41.2638 31.9727C41.362 31.9482 41.4603 31.9727 41.5094 32.071C41.5339 32.1938 41.4848 32.2674 41.3866 32.3166C41.362 32.3166 41.3375 32.3411 41.3375 32.3411L41.3129 32.3166Z" fill="#00493D"/>
<path d="M41.9269 32.3902C41.8532 32.4147 41.755 32.3165 41.6813 32.1446C41.6076 31.9972 41.6076 31.8499 41.6813 31.8253C41.755 31.8007 41.8532 31.899 41.9269 32.0463C42.0006 32.1937 42.0006 32.341 41.9269 32.3902C42.0743 32.341 42.1234 32.1691 42.0497 31.9972C41.976 31.8499 41.8287 31.7516 41.6813 31.8007C41.5339 31.8744 41.4848 32.0463 41.5585 32.1937C41.6322 32.3656 41.7795 32.4638 41.9269 32.3902Z" fill="#00493D"/>
<path d="M41.9515 31.7026H41.9269H41.9023L42.0497 31.6043L42.4918 31.8499L42.3444 31.5798C42.3199 31.5306 42.2707 31.5306 42.2462 31.5306V31.5061L42.369 31.457C42.3444 31.4815 42.3199 31.5061 42.369 31.5552L42.6146 32.0464L42.59 32.071L42.0497 31.7762L42.2462 32.1446C42.2707 32.1937 42.3198 32.1937 42.3444 32.1692V32.1937L42.2216 32.2674V32.2429C42.2462 32.2183 42.2462 32.1937 42.2216 32.1446L42.0251 31.7517L41.9515 31.7026Z" fill="#00493D"/>
<path d="M43.0566 31.7763V31.7517C43.0566 31.7272 43.0811 31.7026 43.0566 31.6535L42.7619 31.236H42.7373C42.6882 31.2605 42.6636 31.3588 42.7373 31.4324L42.7127 31.457L42.6145 31.2851L42.9829 31.0395L43.0811 31.1868C43.0075 31.1132 42.9338 31.1132 42.8847 31.1377L42.8601 31.1623L43.1548 31.5798C43.1794 31.6289 43.2285 31.6289 43.253 31.6044V31.6289L43.0566 31.7763Z" fill="#00493D"/>
<path d="M43.3267 31.1868L43.4741 31.3587C43.4987 31.3833 43.5478 31.3833 43.5723 31.3587V31.3833L43.3759 31.5552V31.5307C43.4004 31.5061 43.4004 31.4815 43.3759 31.4324L43.0811 31.064C43.0566 31.0149 43.032 31.0395 42.9829 31.0395L43.1794 30.8676V30.8921C43.1794 30.9167 43.1548 30.9412 43.1794 30.9904L43.3022 31.1377L43.4495 31.0395L43.3267 30.8676C43.3022 30.8184 43.2531 30.843 43.2285 30.843L43.425 30.6711V30.6956C43.4004 30.7202 43.4004 30.7448 43.425 30.7939L43.7197 31.1623C43.7442 31.1868 43.7688 31.1868 43.7934 31.1623L43.8179 31.1868L43.6215 31.3587L43.5969 31.3342C43.6215 31.3096 43.646 31.2851 43.6215 31.2359L43.4741 31.064L43.3267 31.1868Z" fill="#00493D"/>
<path d="M43.5478 30.6711C43.5233 30.6465 43.4741 30.6465 43.4496 30.6711V30.6465L43.7689 30.3518L43.9162 30.4992H43.8917C43.818 30.4009 43.7197 30.45 43.6706 30.4746C43.6706 30.4992 43.6461 30.4992 43.6215 30.5237C43.6215 30.5237 43.6215 30.5483 43.6461 30.5974C43.6706 30.622 43.7934 30.7448 43.7934 30.7448C43.818 30.7202 43.8917 30.6711 43.7934 30.5483H43.818L44.0144 30.7693V30.7939C43.8917 30.6711 43.8425 30.7448 43.818 30.7693L43.9653 30.9167C43.9899 30.9658 44.0144 30.9658 44.0144 30.9658C44.039 30.9412 44.0636 30.9167 44.0881 30.8921C44.1127 30.8676 44.1372 30.7939 44.0881 30.6465H44.1127L44.2109 30.8184L43.8917 31.1377L43.8671 31.1131C43.8917 31.0886 43.9162 31.064 43.8671 31.0149L43.5478 30.6711Z" fill="#00493D"/>
<path d="M44.137 29.9834C44.1124 30.0079 44.1124 30.057 44.1615 30.0816C44.2106 30.1307 44.2598 30.1307 44.358 30.0816C44.4071 30.057 44.5054 30.0325 44.579 30.1062C44.7018 30.2289 44.6527 30.3272 44.6281 30.3763C44.6036 30.4009 44.5545 30.4254 44.5299 30.45C44.5054 30.45 44.5054 30.45 44.5054 30.4745V30.4991L44.3334 30.3517H44.358C44.4562 30.4009 44.5545 30.4254 44.6036 30.3517C44.6527 30.3026 44.6036 30.2535 44.579 30.2289C44.5299 30.1798 44.4808 30.1798 44.4071 30.2289C44.3334 30.2535 44.2352 30.2535 44.1615 30.2044C44.0633 30.1062 44.0633 30.0325 44.1124 29.9588C44.137 29.9342 44.1861 29.9097 44.2106 29.8851C44.2352 29.8851 44.2352 29.8851 44.2106 29.836L44.3826 29.9588H44.358C44.2352 29.9097 44.1615 29.9342 44.137 29.9834Z" fill="#00493D"/>
<path d="M44.3584 29.7869C44.3093 29.7623 44.2847 29.7869 44.2602 29.8115H44.2356L44.5057 29.4185L44.6777 29.5413L44.6531 29.5659C44.5549 29.4922 44.4566 29.5413 44.4321 29.5659C44.4321 29.5904 44.4075 29.615 44.4075 29.6396C44.383 29.6396 44.383 29.6641 44.4321 29.6887C44.4566 29.7132 44.604 29.8115 44.604 29.8115C44.6285 29.7869 44.6777 29.7378 44.5794 29.6396V29.615L44.825 29.8115C44.6777 29.7378 44.6531 29.8115 44.6285 29.836L44.8005 29.9588C44.8496 29.9834 44.8741 29.9834 44.8741 29.9834C44.8741 29.9588 44.8987 29.9343 44.9233 29.9097C44.9478 29.8606 44.9724 29.7869 44.8741 29.6887L44.8987 29.6641L45.0215 29.8115L44.7759 30.1799H44.7513C44.7759 30.1307 44.7759 30.1062 44.7268 30.0571L44.3584 29.7869Z" fill="#00493D"/>
<path d="M45.0215 29.3448L44.9478 29.4676C44.8496 29.3694 44.8005 29.2957 44.8005 29.2957L45.0215 29.3448H45.0706C45.0952 29.3448 45.1443 29.3694 45.1689 29.3694C45.2426 29.394 45.218 29.4185 45.1934 29.4676H45.218L45.3408 29.2466C45.2917 29.2957 45.2671 29.2712 45.218 29.2712C44.7023 29.1729 44.6531 29.1484 44.6531 29.1484V29.1729L45.0461 29.615C45.0706 29.6396 45.0706 29.6887 45.0706 29.7132H45.0952L45.1689 29.5904L45.1443 29.5659C45.1198 29.615 45.0952 29.6396 45.0461 29.5659C45.0215 29.5413 44.997 29.5168 44.997 29.5168L45.0706 29.3448H45.0215Z" fill="#00493D"/>
<path d="M44.8739 28.8045C44.8493 28.8291 44.8493 28.8782 44.923 28.9028C44.9967 28.9273 45.0213 28.9028 45.0949 28.8537C45.1686 28.8045 45.2423 28.7554 45.3405 28.8045C45.4879 28.8782 45.4633 29.001 45.4388 29.0501C45.4142 29.0747 45.3897 29.1238 45.3651 29.1484V29.1729V29.1975L45.1686 29.0993C45.2914 29.1238 45.3897 29.0993 45.4142 29.0256C45.4388 28.9765 45.3897 28.9273 45.3651 28.9028C45.316 28.8782 45.2669 28.9028 45.1932 28.9519C45.1195 29.0256 45.0458 29.0501 44.9476 29.001C44.8493 28.9519 44.8002 28.8782 44.8493 28.8045C44.8493 28.7554 44.8985 28.7309 44.923 28.7063C44.923 28.6817 44.923 28.6817 44.8985 28.6572V28.6326L45.0949 28.7309H45.0704C44.9476 28.7063 44.8739 28.7554 44.8739 28.8045Z" fill="#00493D"/>
<path d="M37.1133 20.1105C36.794 20.1842 36.573 20.2088 36.2783 19.9386C36.0818 19.7422 36.1309 19.3983 36.3274 19.2755C36.5484 19.1282 36.7449 19.0299 37.0151 19.1036C37.2852 19.1773 37.9974 19.8404 37.8255 19.8649C37.6536 19.8649 37.3834 20.0369 37.1133 20.1105L37.1133 20.1105Z" fill="white" stroke="black" stroke-width="0.0736776"/>
<path d="M37.8746 18.9317C37.9729 18.858 38.0957 18.8089 38.4149 18.7843C38.7097 18.7597 38.9307 18.7597 39.0044 18.9808C39.1026 19.2509 39.1763 19.5702 39.3728 19.7176C39.25 19.7912 38.636 19.8649 38.4149 19.7421C38.1202 19.5948 38.0465 19.0299 37.8746 18.9317H37.8746Z" fill="white" stroke="black" stroke-width="0.0736776"/>
<path d="M39.9868 18.9563C40.085 18.8826 40.2078 18.8826 40.5271 18.9071C40.8463 18.9317 40.9691 18.9563 41.0428 19.1773C41.1165 19.4229 41.0428 19.7422 41.1902 19.9632C41.0428 20.0123 40.5516 20.0123 40.3797 19.8404C40.1096 19.6439 40.1341 19.0791 39.9868 18.9563L39.9868 18.9563Z" fill="white" stroke="black" stroke-width="0.0736776"/>
<path d="M41.4603 19.1036C41.2392 19.0544 41.0919 19.0299 40.9937 19.1036C41.1164 19.2509 41.0182 19.8404 41.2638 20.0368C41.4357 20.1596 41.8778 20.1842 41.976 19.914C42.0988 19.6684 42.0988 19.3 41.4603 19.1036V19.1036Z" fill="#073163" stroke="black" stroke-width="0.0736776"/>
<path d="M38.9307 18.858C39.0044 18.7843 39.1518 18.7598 39.4465 18.7598C39.7657 18.7598 39.9622 18.8089 40.0605 19.0054C40.1587 19.251 40.1341 19.5702 40.306 19.7667C40.2324 19.8649 39.5693 19.8649 39.3728 19.7176C39.1026 19.5457 39.0781 18.9808 38.9307 18.858L38.9307 18.858Z" fill="#073163" stroke="black" stroke-width="0.0736776"/>
<path d="M36.8431 19.079C36.8431 18.9562 37.0151 18.9317 37.4571 18.9071C37.8992 18.858 37.9237 18.8825 38.0711 19.2018C38.1448 19.3737 38.243 19.6684 38.4395 19.7667C37.8992 19.8895 37.7273 19.9631 37.4326 19.7912C37.2115 19.6684 36.9659 19.3737 36.9168 19.2509C36.8923 19.1772 36.8923 19.1036 36.8431 19.079L36.8431 19.079Z" fill="#073163" stroke="black" stroke-width="0.0736776"/>
<path d="M38.0219 16.574C37.5062 16.1811 36.8922 15.8127 36.3273 15.739C36.6957 15.96 37.7272 16.7705 37.9974 17.0407" fill="#F9D050"/>
<path d="M38.0219 16.574C37.5062 16.1811 36.8922 15.8127 36.3273 15.739C36.6957 15.96 37.7272 16.7705 37.9974 17.0407" stroke="black" stroke-width="0.0331516"/>
<path d="M38.3167 16.2056C37.7027 15.7881 36.9905 15.3215 36.3028 15.2723C36.8185 15.5425 37.5799 16.181 37.9974 16.6968" fill="#F9D050"/>
<path d="M38.3167 16.2056C37.7027 15.7881 36.9905 15.3215 36.3028 15.2723C36.8185 15.5425 37.5799 16.181 37.9974 16.6968" stroke="black" stroke-width="0.0331516"/>
<path d="M39.1025 15.518C39.4464 14.7566 39.8148 14.3391 40.3059 13.8725C40.0603 14.3882 39.7902 15.4443 39.6674 15.8618" fill="#F9D050"/>
<path d="M39.1025 15.518C39.4464 14.7566 39.8148 14.3391 40.3059 13.8725C40.0603 14.3882 39.7902 15.4443 39.6674 15.8618" stroke="black" stroke-width="0.0331516"/>
<path d="M39.6429 15.3952C39.8885 14.8549 40.2569 14.3883 40.8954 14.0936C40.5761 14.4128 40.0849 15.3706 39.9622 15.8864" fill="#F9D050"/>
<path d="M39.6429 15.3952C39.8885 14.8549 40.2569 14.3883 40.8954 14.0936C40.5761 14.4128 40.0849 15.3706 39.9622 15.8864" stroke="black" stroke-width="0.0331516"/>
<path d="M39.8639 15.8864C40.1586 15.4688 40.748 14.683 41.8041 14.2654C41.1901 14.8794 40.2814 16.0092 40.0604 16.4512" fill="#F9D050"/>
<path d="M39.8639 15.8864C40.1586 15.4688 40.748 14.683 41.8041 14.2654C41.1901 14.8794 40.2814 16.0092 40.0604 16.4512" stroke="black" stroke-width="0.0331516"/>
<path d="M40.2077 16.4266C40.6498 16.181 41.5339 15.7881 42.1724 15.9109C41.7795 16.0583 40.6006 16.5986 40.0849 17.0897" fill="#F9D050"/>
<path d="M40.2077 16.4266C40.6498 16.181 41.5339 15.7881 42.1724 15.9109C41.7795 16.0583 40.6006 16.5986 40.0849 17.0897" stroke="black" stroke-width="0.0331516"/>
<path d="M40.1095 16.2547C40.527 15.8126 41.2883 15.1495 42.0988 14.8794C41.5093 15.4443 40.2568 16.7213 40.0849 16.9178" fill="#F9D050"/>
<path d="M40.1095 16.2547C40.527 15.8126 41.2883 15.1495 42.0988 14.8794C41.5093 15.4443 40.2568 16.7213 40.0849 16.9178" stroke="black" stroke-width="0.0331516"/>
<path d="M38.9306 15.9846C38.6359 15.0759 38.1939 14.2163 37.5308 13.9462C37.8992 14.4865 38.3658 15.2724 38.6114 16.4512" fill="#F9D050"/>
<path d="M38.9306 15.9846C38.6359 15.0759 38.1939 14.2163 37.5308 13.9462C37.8992 14.4865 38.3658 15.2724 38.6114 16.4512" stroke="black" stroke-width="0.0331516"/>
<path d="M38.3658 15.96C37.8746 15.3706 37.2115 14.7812 36.4501 14.6584C36.9659 14.9531 37.8255 15.8127 38.1447 16.6477" fill="#F9D050"/>
<path d="M38.3658 15.96C37.8746 15.3706 37.2115 14.7812 36.4501 14.6584C36.9659 14.9531 37.8255 15.8127 38.1447 16.6477" stroke="black" stroke-width="0.0331516"/>
<path d="M38.6359 15.9355C38.0219 14.8303 37.5553 14.6338 37.2852 14.4128C37.5062 14.8303 38.0465 15.9355 38.3658 16.4021" fill="#F9D050"/>
<path d="M38.6359 15.9355C38.0219 14.8303 37.5553 14.6338 37.2852 14.4128C37.5062 14.8303 38.0465 15.9355 38.3658 16.4021" stroke="black" stroke-width="0.0331516"/>
<path d="M37.408 15.8618C37.7027 16.0337 38.1447 16.4512 38.2921 16.7214" stroke="black" stroke-width="0.0331516"/>
<path d="M37.408 16.3776C37.5553 16.5004 37.8255 16.6477 38.0711 16.8687L37.408 16.3776Z" fill="#F9D050"/>
<path d="M37.408 16.3776C37.5553 16.5004 37.8255 16.6477 38.0711 16.8687" stroke="black" stroke-width="0.0331516"/>
<path d="M40.3305 16.7459C40.5761 16.5494 41.1164 16.2301 41.3866 16.1319L40.3305 16.7459Z" fill="#F9D050"/>
<path d="M40.3305 16.7459C40.5761 16.5494 41.1164 16.2301 41.3866 16.1319" stroke="black" stroke-width="0.0331516"/>
<path d="M40.1586 16.574C40.4042 16.2548 40.8954 15.8127 41.0673 15.6653L40.1586 16.574Z" fill="#F9D050"/>
<path d="M40.1586 16.574C40.4042 16.2548 40.8954 15.8127 41.0673 15.6653" stroke="black" stroke-width="0.0331516"/>
<path d="M40.8463 15.0513C40.6252 15.2969 40.1095 15.9109 39.913 16.2056L40.8463 15.0513Z" fill="#F9D050"/>
<path d="M40.8463 15.0513C40.6252 15.2969 40.1095 15.9109 39.913 16.2056" stroke="black" stroke-width="0.0331516"/>
<path d="M40.2077 14.8303C40.0358 15.0514 39.692 15.6899 39.5938 15.9109L40.2077 14.8303Z" fill="#F9D050"/>
<path d="M40.2077 14.8303C40.0358 15.0514 39.692 15.6899 39.5938 15.9109" stroke="black" stroke-width="0.0331516"/>
<path d="M38.2675 14.8795C38.4149 15.2724 38.685 15.9355 38.7833 16.2057L38.2675 14.8795Z" fill="#F9D050"/>
<path d="M38.2675 14.8795C38.4149 15.2724 38.685 15.9355 38.7833 16.2057" stroke="black" stroke-width="0.0331516"/>
<path d="M38.0465 15.2969C38.1447 15.4443 38.3412 15.7881 38.4149 16.0337L38.0465 15.2969Z" fill="#F9D050"/>
<path d="M38.0465 15.2969C38.1447 15.4443 38.3412 15.7881 38.4149 16.0337" stroke="black" stroke-width="0.0331516"/>
<path d="M38.8815 15.1741C38.8815 14.9531 39.0288 14.7075 39.1762 14.7075C39.3481 14.7075 39.4709 15.0022 39.4709 15.1741C39.4709 15.3706 39.3235 15.5425 39.1762 15.5425C39.0288 15.5425 38.8815 15.3951 38.8815 15.1741Z" fill="#F9D050" stroke="black" stroke-width="0.0331516"/>
<path d="M38.5622 15.3706C38.5868 15.125 38.7587 14.9285 38.9061 14.9531C39.0534 14.9776 39.1271 15.2723 39.1025 15.4443C39.078 15.6407 38.9061 15.7881 38.7833 15.7635C38.6605 15.7635 38.5377 15.5916 38.5622 15.3706Z" fill="#F9D050" stroke="black" stroke-width="0.0331516"/>
<path d="M39.2254 15.4443C39.1762 15.2233 39.2745 14.9777 39.4218 14.9531C39.5692 14.9286 39.7165 15.1742 39.7411 15.3706C39.7902 15.5671 39.6674 15.7636 39.5446 15.7636C39.4218 15.7881 39.2499 15.6653 39.2254 15.4443Z" fill="#F9D050" stroke="black" stroke-width="0.0331516"/>
<path d="M38.8569 15.6408C38.8569 15.3952 39.0043 15.1741 39.1516 15.1741C39.3236 15.1741 39.4464 15.4443 39.4464 15.6408C39.4464 15.8372 39.299 16.0092 39.1516 16.0092C39.0043 16.0092 38.8569 15.8618 38.8569 15.6408Z" fill="#F9D050" stroke="black" stroke-width="0.0331516"/>
<path d="M38.4149 15.7636C38.4149 15.5425 38.5868 15.2969 38.7342 15.2969C38.8815 15.2969 39.0289 15.5916 39.0289 15.7636C39.0289 15.96 38.857 16.132 38.7342 16.132C38.5868 16.132 38.4149 15.9846 38.4149 15.7636Z" fill="#F9D050" stroke="black" stroke-width="0.0331516"/>
<path d="M39.3236 15.6653C39.3236 15.4443 39.471 15.1987 39.6183 15.1987C39.7902 15.1987 39.913 15.4934 39.913 15.6653C39.913 15.8618 39.7657 16.0337 39.6183 16.0337C39.471 16.0337 39.3236 15.8863 39.3236 15.6653Z" fill="#F9D050" stroke="black" stroke-width="0.0331516"/>
<path d="M39.2253 15.8618C39.2253 15.6162 39.3973 15.3951 39.5446 15.3951C39.692 15.3951 39.8393 15.6653 39.8393 15.8618C39.8393 16.0582 39.692 16.2302 39.5446 16.2302C39.3973 16.2302 39.2253 16.0828 39.2253 15.8618Z" fill="#F9D050" stroke="black" stroke-width="0.0331516"/>
<path d="M38.8324 16.0828C38.8324 15.8372 38.9798 15.6162 39.1271 15.6162C39.299 15.6162 39.4218 15.9109 39.4218 16.0828C39.4218 16.2793 39.2745 16.4512 39.1271 16.4512C38.9798 16.4512 38.8324 16.3039 38.8324 16.0828Z" fill="#F9D050" stroke="black" stroke-width="0.0331516"/>
<path d="M38.2184 16.0828C38.2184 15.8372 38.3412 15.6162 38.464 15.6162C38.5868 15.6162 38.685 15.9109 38.685 16.0828C38.685 16.2793 38.5622 16.4512 38.464 16.4512C38.3412 16.4512 38.2184 16.3039 38.2184 16.0828Z" fill="#F9D050" stroke="black" stroke-width="0.0331516"/>
<path d="M39.5938 16.0337C39.5938 15.8127 39.7165 15.5917 39.8393 15.5917C39.9621 15.5917 40.0849 15.8618 40.0849 16.0337C40.0849 16.2548 39.9376 16.4021 39.8393 16.4021C39.7165 16.4021 39.5938 16.2548 39.5938 16.0337Z" fill="#F9D050" stroke="black" stroke-width="0.0331516"/>
<path d="M39.7411 16.4512C39.7903 16.2056 39.9376 16.0091 40.0358 16.0337C40.1341 16.0583 40.1586 16.353 40.1095 16.5249C40.085 16.7459 39.9376 16.8687 39.8394 16.8442C39.7411 16.8196 39.692 16.6477 39.7411 16.4512Z" fill="#F9D050" stroke="black" stroke-width="0.0331516"/>
<path d="M39.2745 16.3775C39.299 16.1565 39.4464 15.9354 39.5692 15.96C39.7165 15.96 39.7902 16.2547 39.7656 16.4266C39.7411 16.6477 39.6183 16.795 39.4955 16.7705C39.3727 16.7705 39.2499 16.5985 39.2745 16.3775Z" fill="#F9D050" stroke="black" stroke-width="0.0331516"/>
<path d="M38.5868 16.4513C38.5131 16.2057 38.3658 16.0337 38.2676 16.0583C38.1693 16.0829 38.1448 16.3776 38.1939 16.5495C38.243 16.746 38.3903 16.8688 38.4886 16.8442C38.5623 16.8196 38.6359 16.6477 38.5868 16.4513Z" fill="#F9D050" stroke="black" stroke-width="0.0331516"/>
<path d="M38.4149 16.4021C38.4149 16.1811 38.5377 15.96 38.6605 15.96C38.8079 15.96 38.9061 16.2302 38.9061 16.4021C38.9061 16.6231 38.7833 16.7705 38.6605 16.7705C38.5623 16.7705 38.4149 16.6231 38.4149 16.4021Z" fill="#F9D050" stroke="black" stroke-width="0.0331516"/>
<path d="M38.7833 16.5003C38.7833 16.2547 38.9306 16.0337 39.078 16.0337C39.2499 16.0337 39.3727 16.3038 39.3727 16.5003C39.3727 16.6968 39.2253 16.8687 39.078 16.8687C38.9306 16.8687 38.7833 16.7214 38.7833 16.5003Z" fill="#F9D050" stroke="black" stroke-width="0.0331516"/>
<path d="M38.9061 13.7988C38.857 13.9953 38.6851 14.1672 38.8079 14.4373C38.5868 14.3637 38.3904 14.3391 38.2184 14.5356C38.4395 14.511 38.636 14.5847 38.7342 14.732C38.5377 14.7075 38.4395 14.8057 38.3904 14.9285C38.5623 14.8794 38.7342 14.8303 38.8079 14.8548C38.7342 14.9285 38.6114 15.0513 38.5868 15.1496C38.7342 15.0268 38.9061 15.0513 39.0043 14.9776C38.9307 15.1496 39.078 15.3215 39.2008 15.4934C39.1763 15.2478 39.3236 15.0759 39.2499 14.9531C39.471 15.0022 39.4955 15.1987 39.8148 15.1987C39.692 15.125 39.6183 14.8794 39.471 14.8794C39.5446 14.8548 39.8394 14.8303 39.8885 14.8794C39.8394 14.7812 39.6674 14.6829 39.5692 14.6829C39.6674 14.5847 39.8394 14.3882 39.9622 14.3391C39.7902 14.3637 39.5201 14.3882 39.4218 14.5356C39.6674 14.3391 39.6183 13.9707 39.8885 13.9216C39.7411 13.897 39.5201 13.9953 39.3482 14.1672C39.4218 14.0198 39.4218 13.8233 39.5201 13.7742C39.3236 13.8233 39.1026 14.0689 39.0289 14.1917C39.0289 14.0689 38.9552 13.8725 38.9061 13.7988Z" fill="#F9D050" stroke="black" stroke-width="0.0331516"/>
<path d="M39.0289 14.1918C39.0289 14.2655 39.0289 14.4128 39.0043 14.4619L39.0289 14.1918Z" fill="#F9D050"/>
<path d="M39.0289 14.1918C39.0289 14.2655 39.0289 14.4128 39.0043 14.4619" stroke="black" stroke-width="0.0331516"/>
<path d="M39.3482 14.1672C39.299 14.2163 39.2008 14.3882 39.2008 14.5356L39.3482 14.1672Z" fill="#F9D050"/>
<path d="M39.3482 14.1672C39.299 14.2163 39.2008 14.3882 39.2008 14.5356" stroke="black" stroke-width="0.0331516"/>
<path d="M39.4955 14.4619C39.4218 14.511 39.3481 14.5847 39.3235 14.6829" stroke="black" stroke-width="0.0331516"/>
<path d="M36.8922 16.8932C36.7203 16.8932 36.573 16.8196 36.4747 16.6968C36.3028 16.4757 35.8362 16.3775 35.6397 16.574C35.566 16.6231 35.4678 16.6231 35.3941 16.6476C35.2713 16.6476 35.124 16.7704 35.1731 17.016C35.2713 16.9424 35.2959 17.016 35.3696 17.016C35.4187 16.9915 35.3941 17.0406 35.3941 17.0897C35.3941 17.2125 35.6643 17.4581 35.9099 17.4335C36.18 17.4335 36.3028 17.5318 36.3519 17.5809C36.4256 17.6546 36.3765 17.63 36.4256 17.7528C36.4993 17.8265 36.5238 17.8511 36.401 17.9493C36.2291 18.0966 36.1063 18.4405 36.401 18.7106C36.7203 18.9562 37.5308 19.3246 38.4395 18.6124C39.3236 17.9247 40.6989 18.3177 40.7972 18.5633C40.92 18.8089 40.9691 18.9562 40.9936 19.079C41.0182 19.1773 41.141 19.2755 41.3129 19.2509C41.4848 19.2509 41.6813 19.3246 41.7795 19.3983C41.9023 19.472 42.0743 19.4474 42.0251 19.2264C41.9269 18.5387 41.5094 18.4405 41.4603 18.1212C41.7059 18.1458 41.8778 18.1458 41.976 18.0475C42.0497 17.9493 42.1479 17.7774 42.2462 17.7283C42.3198 17.6791 42.3198 17.63 42.2216 17.6546C42.0988 17.6791 42.0251 17.7283 41.8041 17.7037C40.6744 17.5809 37.5062 16.7213 36.8922 16.8932H36.8922Z" fill="#059334" stroke="black" stroke-width="0.0736776"/>
<path d="M41.9024 17.7283C41.7796 17.8019 41.6568 17.9247 41.4357 18.2195C41.1901 18.5387 40.4534 18.858 39.5447 18.858C38.6605 18.858 38.1202 18.7106 37.7273 18.3914C37.5062 18.2195 37.3343 18.1212 37.187 18.0475C36.9168 17.9247 36.8677 17.6546 36.9414 17.4336C36.8677 17.5563 36.8186 17.6791 36.6712 17.6546C36.573 17.6546 36.3765 17.6546 36.4256 17.7528C36.4011 17.7037 36.4011 17.63 36.3765 17.6055C36.352 17.5809 36.3274 17.5563 36.3274 17.5563C36.4011 17.6055 36.573 17.4581 36.6958 17.4581C36.794 17.4827 36.9168 17.3599 36.8923 17.2125C36.8677 17.0897 36.8431 16.9915 36.8186 16.8932C37.0151 16.795 39.5938 17.2616 40.1095 17.3108C40.6253 17.3353 42.0988 17.5563 41.9024 17.7283V17.7283Z" fill="black" stroke="black" stroke-width="0.0736776"/>
<path d="M37.2361 16.795C37.4817 16.5494 37.7764 16.4266 38.0711 16.5003H38.1448C38.2922 16.3775 38.636 16.3529 38.8325 16.4512H38.9307C39.2254 16.3529 39.7903 16.4512 39.9868 16.6477L40.0604 16.6968C40.7235 16.6477 41.1165 16.9424 41.5831 17.409C41.6322 17.4581 41.7059 17.5563 41.8287 17.5809C41.9761 17.6055 42.0006 17.6791 41.8778 17.7528C41.7305 17.8265 41.6077 17.9493 41.3621 18.2195C41.141 18.5142 40.4288 18.8089 39.5447 18.8089C38.6851 18.8089 38.1694 18.6615 37.7764 18.3668C37.5554 18.1949 37.3835 18.0967 37.2607 18.023C37.1133 17.9739 36.9168 17.7774 36.9905 17.5809C37.0396 17.3844 36.9168 17.1388 36.8186 16.8932C36.8923 16.8441 37.0888 16.7704 37.187 16.8196L37.2361 16.795L37.2361 16.795Z" fill="#059334" stroke="black" stroke-width="0.0736776"/>
<path d="M41.5831 17.409C41.1164 16.9424 40.7235 16.6477 40.0604 16.6968C40.0604 16.7214 40.0604 16.795 40.0358 16.8442C40.4288 16.9915 40.9936 17.4336 41.2392 17.7528C41.3375 17.6546 41.5094 17.5318 41.5831 17.409L41.5831 17.409Z" fill="#00493D" stroke="black" stroke-width="0.0736776"/>
<path d="M39.9867 16.6477C39.7902 16.4512 39.2254 16.353 38.9306 16.4512C38.9306 16.5494 38.9306 16.6968 38.8815 16.795C39.0534 16.8687 39.2008 17.0406 39.3482 17.2125C39.4464 17.188 39.692 17.1143 39.8148 17.0897C39.8639 16.9915 39.9621 16.7705 39.9867 16.6477H39.9867Z" fill="#00493D" stroke="black" stroke-width="0.0736776"/>
<path d="M38.8324 16.4512C38.636 16.3529 38.2921 16.3775 38.1448 16.5003C38.0957 16.5985 38.0711 16.795 38.0711 16.8932C38.1693 16.8932 38.3167 16.9669 38.3658 17.016C38.5132 16.9669 38.7096 16.8687 38.7833 16.795C38.8079 16.6968 38.857 16.5494 38.8324 16.4512Z" fill="#00493D" stroke="black" stroke-width="0.0736776"/>
<path d="M37.2361 16.795C37.4817 16.5494 37.7764 16.4266 38.0711 16.5003C38.022 16.574 37.9974 16.7213 37.9974 16.8687C37.7273 16.8441 37.3834 16.9178 37.2361 17.016V16.795Z" fill="#00493D" stroke="black" stroke-width="0.0736776"/>
<path d="M41.141 17.802C40.92 17.4827 40.3797 17.1143 40.0113 16.9424C40.0113 16.9669 39.9622 17.0652 39.9376 17.1389C40.085 17.3599 40.3797 17.8511 40.5025 18.1212C40.6253 18.0721 40.9691 17.9248 41.141 17.802V17.802Z" fill="#00493D" stroke="black" stroke-width="0.0736776"/>
<path d="M39.2745 18.3423C39.3236 17.9984 39.3482 17.5072 39.3482 17.3353C39.471 17.3108 39.7165 17.2371 39.8148 17.2125C39.9376 17.409 40.2323 17.9247 40.3551 18.1703C40.0604 18.244 39.5692 18.3668 39.2745 18.3423V18.3423Z" fill="#00493D" stroke="black" stroke-width="0.0736776"/>
<path d="M38.4149 17.1634C38.5377 17.1143 38.7096 17.016 38.8324 16.9178C38.9307 16.9915 39.1271 17.1634 39.2008 17.2616C39.2008 17.4826 39.1271 18.1212 39.1026 18.3422C38.9061 18.3422 38.5868 18.2931 38.4149 18.1949C38.4395 17.8265 38.464 17.409 38.4149 17.1634L38.4149 17.1634Z" fill="#00493D" stroke="black" stroke-width="0.0736776"/>
<path d="M37.187 17.4581C37.2115 17.409 37.2361 17.237 37.2361 17.1634C37.4325 17.0406 37.9237 16.9178 38.2921 17.1142C38.3167 17.3598 38.2921 17.9738 38.2676 18.1212C37.9483 17.8756 37.4325 17.5317 37.187 17.4581L37.187 17.4581Z" fill="#00493D" stroke="black" stroke-width="0.0736776"/>
<path d="M35.959 17.016C35.9099 17.016 35.8853 16.8687 35.7871 16.8687C35.7625 16.8687 35.6889 16.8932 35.6643 16.8687C35.6643 16.9178 35.6889 16.9669 35.7134 16.9914C35.738 17.0651 35.8608 17.016 35.959 17.016Z" fill="black"/>
<path d="M35.959 17.4335C36.2537 17.4335 36.3028 17.0651 36.4502 17.0406" stroke="black" stroke-width="0.0736776"/>
<path d="M36.1309 17.4581C36.352 17.5563 36.5239 17.0406 36.6958 17.0651" stroke="black" stroke-width="0.0736776"/>
<path d="M35.6889 16.8196C35.7626 16.8196 35.8117 16.7213 35.9345 16.8441C35.9836 16.8932 36.0573 16.9178 36.1064 16.9178" stroke="black" stroke-width="0.0736776"/>
<path d="M36.0572 17.188C35.959 17.3353 35.7871 17.4336 35.6888 17.3845" stroke="black" stroke-width="0.0736776"/>
<path d="M35.6397 16.574C35.5661 16.6231 35.517 16.7213 35.4678 16.795" stroke="black" stroke-width="0.0736776"/>
<path d="M35.3942 16.9423V17.0651" stroke="black" stroke-width="0.0736776"/>
<path d="M43.5974 20.1341V24.9232C43.5974 29.0737 41.6327 30.4983 39.0048 31.6278C36.377 30.4981 34.3877 29.0737 34.3877 24.9232V20.1341H43.5973H43.5974Z" fill="white"/>
<path d="M39.0052 24.1856C39.2262 24.1856 39.57 23.9891 39.8647 23.6944C40.184 23.3506 40.7243 23.2278 41.2892 23.6944C41.854 24.161 42.1979 23.9646 42.4926 23.6944C42.7873 23.4243 43.0329 23.326 43.5978 23.326V20.1333H34.3882V23.326C34.953 23.326 35.1987 23.4243 35.4934 23.6944C35.7881 23.9646 36.1319 24.161 36.6968 23.6944C37.2862 23.2278 37.802 23.3506 38.1458 23.6944C38.416 23.9891 38.7598 24.1856 39.0054 24.1856H39.0052Z" fill="#CF142B"/>
<path d="M39.0042 26.6419C39.2989 26.6419 39.8883 26.3226 40.0357 26.2489C40.576 25.9297 40.9689 26.2244 41.2882 26.3717C41.632 26.5191 42.2706 26.691 42.6635 26.3717C43.0565 26.0525 43.2775 26.077 43.5476 26.077C43.5968 25.7086 43.5968 25.3402 43.5968 24.9227V24.628C43.2529 24.5543 43.081 24.6526 42.7126 24.9718C42.3443 25.2911 41.9267 25.2174 41.3864 25.021C40.8707 24.7999 40.3549 24.407 39.8392 25.021C39.6918 25.1929 39.348 25.4385 39.0042 25.4385C38.6358 25.4385 38.3165 25.1929 38.1691 25.021C37.6289 24.407 37.1376 24.7999 36.6219 25.021C36.0816 25.2174 35.6395 25.2911 35.2711 24.9718C34.9273 24.6526 34.7554 24.5543 34.387 24.628V24.9227C34.387 25.3402 34.4116 25.7087 34.4607 26.077C34.7309 26.077 34.9273 26.0525 35.3203 26.3717C35.7132 26.691 36.3763 26.5191 36.6956 26.3717C37.0394 26.2244 37.4324 25.9297 37.9727 26.2489C38.12 26.3226 38.6849 26.6419 39.0041 26.6419H39.0042Z" fill="#0B50A0"/>
<path d="M39.0042 27.6976C39.3726 27.6976 39.8147 27.5502 40.2076 27.3292C40.6988 27.059 41.0426 27.1818 41.5338 27.4274C42.0495 27.673 42.4671 27.5993 42.7618 27.4274C42.9091 27.3292 43.0319 27.1327 43.3512 27.2064C43.2039 27.8204 42.9828 28.3607 42.7127 28.8027C42.2215 28.9255 41.9514 28.9255 41.4356 28.7045C40.9199 28.4589 40.2813 28.3116 39.9375 28.5326C39.6182 28.7291 39.2744 28.8273 39.0043 28.8273C38.7341 28.8273 38.3903 28.7291 38.071 28.5326C37.7272 28.3116 37.0886 28.4589 36.5729 28.7045C36.0571 28.9255 35.787 28.9255 35.2958 28.8027C35.0257 28.3607 34.8046 27.8204 34.6573 27.2064C34.9766 27.1327 35.0994 27.3292 35.2467 27.4274C35.5169 27.5993 35.959 27.673 36.4501 27.4274C36.9659 27.1818 37.3097 27.059 37.8009 27.3292C38.1938 27.5502 38.6359 27.6976 39.0043 27.6976H39.0042Z" fill="#0B50A0"/>
<path d="M39.0042 31.6272C39.9865 31.2097 40.8953 30.7431 41.632 30.1045C41.4356 30.0308 41.3128 30.0799 41.1408 29.9571C40.9689 29.8343 40.4532 29.7852 40.0111 30.0308C39.5445 30.2518 39.348 30.3009 39.0042 30.3009C38.6603 30.3009 38.4639 30.2518 37.9972 30.0308C37.5551 29.7852 37.0394 29.8343 36.8675 29.9571C36.6956 30.0799 36.5728 30.0308 36.3763 30.1045C37.1131 30.743 37.9972 31.2097 39.0041 31.6272H39.0042Z" fill="#0B50A0"/>
<path d="M35.4682 27.8451L36.6961 24.063L37.9241 27.8451L34.7068 25.512H38.6855L35.4682 27.8451Z" fill="#F9D050"/>
<path d="M35.7136 27.5013L38.2678 25.6347H35.1242L37.6538 27.5013L36.696 24.505L35.7136 27.5013Z" fill="#024919"/>
<path d="M43.5974 20.1341V24.9232C43.5974 29.0737 41.6327 30.4983 39.0048 31.6278C36.377 30.4981 34.3877 29.0737 34.3877 24.9232V20.1341H43.5973H43.5974Z" stroke="black" stroke-width="0.0736776"/>
<path d="M37.0624 22.5807C37.0624 22.5807 36.9067 22.5794 36.8444 22.5429C36.7766 22.5033 36.7041 22.363 36.7041 22.363C36.7041 22.363 36.5325 22.3909 36.4536 22.3738C36.3711 22.3559 36.2532 22.2616 36.2532 22.2616C36.332 22.25 36.3908 22.2381 36.4671 22.1764C36.4671 22.1764 36.3152 22.1683 36.2287 22.135C36.1534 22.106 36.0305 22.0099 36.0305 22.0099C36.1007 21.9925 36.1767 21.9947 36.232 21.926C36.232 21.926 36.0832 21.9274 36.0158 21.9027C35.9485 21.8781 35.8417 21.7835 35.8417 21.7835C35.9234 21.7764 36.0012 21.7612 36.0538 21.6952C36.0538 21.6952 35.9031 21.7003 35.8392 21.6752C35.7511 21.6406 35.6162 21.5252 35.6162 21.5252C35.701 21.5189 35.7854 21.5115 35.8495 21.4634L35.8019 21.3666C35.7443 21.2498 35.6238 21.291 35.5436 21.2588C35.465 21.2271 35.4209 21.1409 35.4166 21.0925C35.409 21.0073 35.4526 20.877 35.645 20.9042C35.5493 20.7584 35.649 20.6536 35.7508 20.6117C35.8486 20.5713 35.935 20.5824 36.0014 20.742C36.0014 20.742 36.0907 20.6698 36.1391 20.6591C36.2064 20.6442 36.2823 20.6665 36.3063 20.7295C36.3161 20.7554 36.3197 20.8096 36.3032 20.842C36.2771 20.8932 36.2196 20.9282 36.2008 21.0031C36.1795 21.0879 36.2578 21.2357 36.2578 21.2357C36.2578 21.2357 36.6278 21.5288 36.7979 21.6893C36.8884 21.7747 37.0529 21.9595 37.0529 21.9595L37.062 21.9542H37.4286L37.4614 22.5729L37.0624 22.5807L37.0624 22.5807Z" fill="#E4C900" stroke="#806600" stroke-width="0.0357333"/>
<path d="M36.5804 21.6369C36.4717 21.5403 36.1813 21.3246 36.1813 21.3246C36.1813 21.3246 36.1149 21.1634 36.1061 21.0528C36.1023 21.0038 36.1124 20.9518 36.1351 20.9082C36.1583 20.8634 36.2263 20.8471 36.2392 20.7983C36.2432 20.7829 36.2378 20.7642 36.2276 20.752C36.2154 20.7375 36.1945 20.7277 36.1755 20.7289C36.1039 20.7331 35.9905 20.8388 35.9905 20.8388C35.9905 20.8388 35.9195 20.7113 35.8574 20.6826C35.8312 20.6705 35.7974 20.6715 35.7707 20.6826C35.7455 20.693 35.7207 20.7143 35.7128 20.7404C35.6879 20.8234 35.7649 20.9949 35.7649 20.9949C35.7649 20.9949 35.5979 20.9525 35.5335 20.9949C35.509 21.0111 35.4964 21.0466 35.4988 21.0759C35.5015 21.1079 35.5248 21.1382 35.5509 21.1569C35.6219 21.2078 35.8054 21.2205 35.8054 21.2205L36.0194 21.5097L35.7938 21.5733C35.8797 21.6201 35.947 21.6359 36.1813 21.6369C36.1336 21.7372 36.0636 21.7716 36.002 21.8162L36.3953 21.874C36.3611 21.9725 36.2583 21.9816 36.2102 22.0244C36.2856 22.0746 36.3941 22.0999 36.5119 22.1183C36.5306 22.1212 36.5495 22.1239 36.5686 22.1266C36.4906 22.1158 36.5039 21.6264 36.5804 21.6369L36.5804 21.6369Z" fill="#FEE46E"/>
<path d="M36.5007 21.7473C36.2911 21.3835 36.244 21.4417 35.9819 21.2572C36.1671 21.5858 36.1506 21.5589 36.5007 21.7473Z" fill="#FFEFA7"/>
<path d="M36.0418 20.5378C36.1119 20.6248 36.1199 20.6646 36.1039 20.7661C36.1371 20.8007 36.169 20.809 36.1965 20.8007C36.2519 20.7838 36.2777 20.7397 36.2648 20.6786C36.2237 20.6528 36.217 20.5752 36.0418 20.5378L36.0418 20.5378ZM35.623 20.5839C35.5941 20.5828 35.5589 20.5858 35.5152 20.5955C35.615 20.6456 35.6387 20.6785 35.6662 20.7776C35.7108 20.7952 35.7432 20.7897 35.7647 20.7707C35.8082 20.7324 35.8134 20.6815 35.7764 20.6312C35.7403 20.6264 35.7098 20.587 35.623 20.5839L35.623 20.5839ZM35.499 20.9773C35.4526 20.9914 35.3896 20.9456 35.2466 21.0536C35.3582 21.0575 35.3935 21.0776 35.4598 21.1561C35.5077 21.1537 35.5349 21.1351 35.5465 21.1088C35.5701 21.0559 35.5536 21.0075 35.499 20.9773H35.499Z" fill="#377BC8" stroke="#2C5AA0" stroke-width="0.0357333"/>
<path d="M38.8767 22.8647C38.8121 22.8458 38.7332 22.7609 38.6647 22.7613C38.5925 22.7617 38.5416 22.802 38.5053 22.8561C38.4879 22.8819 38.5151 22.9786 38.5421 22.9972L38.6665 23.0827C38.6665 23.0827 38.5887 23.1721 38.5828 23.2224C38.5776 23.2662 38.5996 23.3013 38.6309 23.3358C38.6718 23.3808 38.6819 23.3982 38.747 23.4077C38.7859 23.4134 38.8779 23.3964 38.8779 23.3964C38.8779 23.3964 38.8758 23.4682 38.8985 23.5013C38.9397 23.5613 39.0097 23.6142 39.0896 23.6057C39.152 23.5991 39.1723 23.5897 39.2053 23.5432C39.2314 23.5064 39.2262 23.4123 39.2686 23.3735L39.4414 23.2157C39.5159 23.2608 39.514 23.3281 39.5047 23.3975C39.5047 23.3975 39.6155 23.3275 39.6485 23.2773C39.6829 23.225 39.6965 23.1016 39.6965 23.1016C39.7667 23.1649 39.7899 23.2215 39.7748 23.2971C39.7748 23.2971 39.8877 23.2266 39.924 23.1769C39.9649 23.1209 40.0001 22.9999 40.0001 22.9999C40.0515 23.0499 40.0624 23.121 40.0428 23.2079C40.0428 23.2079 40.1689 23.1234 40.2026 23.0553C40.2292 23.0015 40.2452 22.9074 40.2452 22.9074C40.3984 22.9185 40.4974 22.8518 40.5042 22.7828C40.5094 22.7292 40.4488 22.6562 40.3254 22.6351C40.3254 22.6351 40.2798 22.567 40.2626 22.5167C40.2507 22.4822 40.2499 22.4429 40.2626 22.4085C40.2881 22.3398 40.3474 22.282 40.4081 22.2327C40.4915 22.1648 40.673 22.0793 40.673 22.0793L40.6199 21.8134L40.0016 21.7187L39.3182 21.8871C39.4428 21.9443 39.7218 22.1397 39.699 22.2137C39.6905 22.2415 39.6311 22.2677 39.6027 22.3048C39.5818 22.3321 39.5978 22.3758 39.6183 22.404C39.6471 22.4435 39.7157 22.4525 39.7378 22.4897C39.7577 22.5231 39.7667 22.5529 39.743 22.5844C39.6962 22.6465 39.5388 22.6726 39.4625 22.7061C39.3233 22.7672 39.0878 22.9002 39.0878 22.9002C39.0145 22.9098 38.9443 22.8844 38.8767 22.8647L38.8767 22.8647Z" fill="#E4C900" stroke="#806600" stroke-width="0.0357333"/>
<path d="M39.1173 22.9953C39.1173 22.9953 39.2891 22.9049 39.3803 22.8598C39.5241 22.7887 39.7756 22.77 39.8387 22.6225C39.8387 22.6225 39.8566 22.5898 39.8508 22.5443C39.842 22.4764 39.7235 22.4202 39.7606 22.3459L39.7907 22.2858C39.7907 22.2858 39.9167 22.3401 39.953 22.382C39.9824 22.4161 39.9867 22.4728 40.0251 22.4962C40.0646 22.5203 40.1634 22.5083 40.1634 22.5083L40.2235 22.6826C40.2235 22.6826 40.3151 22.6819 40.3498 22.7247C40.3599 22.7373 40.3619 22.7578 40.3558 22.7728C40.3461 22.7966 40.2905 22.8026 40.2663 22.8111C40.219 22.8277 40.1461 22.7742 40.1461 22.7742C40.1461 22.7742 40.1714 22.8925 40.1589 22.9308C40.1503 22.9572 40.1168 23.0029 40.1168 23.0029C40.0902 22.9577 40.073 22.9358 39.953 22.875C39.953 22.875 39.9385 22.9758 39.9063 23.0391C39.8914 23.0684 39.8462 23.1173 39.8462 23.1173C39.8462 23.1173 39.8188 23.0616 39.7981 23.0391C39.7593 22.9969 39.6464 22.9772 39.6464 22.9772C39.6464 22.9772 39.6241 23.1009 39.5924 23.1668C39.5807 23.1911 39.5607 23.2269 39.5607 23.2269C39.5607 23.2269 39.539 23.1701 39.5186 23.1487C39.4944 23.1234 39.4284 23.0946 39.4284 23.0946L39.1955 23.287C39.1955 23.287 39.1602 23.4008 39.1054 23.4374C39.0737 23.4586 39.0567 23.4483 39.0225 23.4314C39.006 23.4233 38.9911 23.4072 38.9865 23.3893C38.9716 23.3319 39.0091 23.2598 39.0091 23.2598C39.0091 23.2598 38.8838 23.3089 38.8014 23.2855C38.77 23.2766 38.7309 23.2519 38.7292 23.2194C38.7255 23.1442 38.8347 23.0734 38.8347 23.0734C38.8347 23.0734 38.7113 23.0444 38.6602 22.9741C38.6435 22.9512 38.6316 22.913 38.6481 22.89C38.6671 22.8635 38.7123 22.8656 38.7443 22.8719C38.8054 22.8841 38.8332 22.9569 38.8949 22.9652L39.1173 22.9952L39.1173 22.9953Z" fill="#FFE66F"/>
<path d="M39.9184 22.768C39.6156 22.7525 39.379 22.899 39.1372 23.0621C39.4474 23.0636 39.6851 22.96 39.9184 22.768Z" fill="#FFEFA7"/>
<path d="M40.1267 22.0277C40.1267 22.0277 40.1149 22.2488 40.0225 22.3055C39.9827 22.3298 39.927 22.3399 39.8836 22.3228C39.8416 22.3062 39.8122 22.2611 39.7968 22.2186C39.787 22.1914 39.7708 22.1232 39.7708 22.1232C39.7708 22.1232 39.6295 22.0585 39.5537 22.0537C39.4422 22.0466 39.2239 22.1145 39.2239 22.1145C39.2611 21.9986 39.3614 21.9037 39.4669 21.8106L39.8315 21.7846L40.1267 22.0277L40.1267 22.0277Z" fill="#EFD300" stroke="#806600" stroke-width="0.0357333"/>
<path d="M40.8328 20.5575C40.919 20.546 41.0962 20.5034 41.1556 20.433C41.1834 20.4002 41.2611 20.3086 41.2611 20.3086C41.2446 20.5155 41.157 20.6496 40.9712 20.7405C40.8228 20.813 40.6516 20.8298 40.4901 20.8137C40.3884 20.8036 40.2002 20.7405 40.2002 20.7405C40.3035 20.8745 40.251 20.9692 40.1211 21.0333C40.1211 21.0333 40.1404 20.9049 40.1013 20.8869C40.0172 20.848 39.9224 20.8987 39.833 20.9582C39.767 21.0021 39.6671 21.0226 39.5998 21.0217C39.4877 21.0202 39.4256 21.0187 39.3207 20.9745C39.2575 20.9479 39.1478 20.8464 39.1013 20.8565C39.001 20.8783 38.8743 20.8905 38.8172 20.9847C38.7974 21.0174 38.7998 21.0687 38.8172 21.1031C38.8562 21.1802 38.9439 21.2205 39.0214 21.2412C39.2518 21.3025 39.4399 21.3021 39.6674 21.2631C39.9018 21.223 40.1755 21.1427 40.4099 21.0942C40.6422 21.0461 40.9417 20.9552 41.1177 20.9113C41.4289 20.8338 41.5684 20.8231 41.8013 20.8272C42.209 20.8344 42.3425 21.0749 42.3301 21.3374C42.3174 21.6071 42.0717 21.7291 41.8613 21.8048C41.4914 21.9378 40.9836 21.8621 40.6644 21.853C40.6644 21.853 40.7714 21.9525 40.8199 21.998C40.8768 22.0513 40.9052 22.1628 40.9754 22.19C41.0718 22.2273 41.2192 22.1533 41.3211 22.1468C41.4635 22.1376 41.7056 22.1564 41.7056 22.1564C41.7427 22.1145 41.7667 22.0854 41.8052 22.0728C41.8328 22.0638 41.8763 22.0633 41.8984 22.0727C41.9423 22.0913 41.9718 22.1486 41.9534 22.2554C41.9534 22.2554 41.9838 22.3026 42.0302 22.3135C42.0793 22.3251 42.1367 22.3149 42.1647 22.3247C42.2108 22.3409 42.2856 22.3919 42.2856 22.3919C42.2856 22.3919 42.2064 22.4198 42.1734 22.4421C42.1508 22.4574 42.1207 22.5079 42.1207 22.5079C42.1207 22.5079 42.2293 22.51 42.2746 22.5323C42.3232 22.5563 42.3681 22.6239 42.3681 22.6239C42.3681 22.6239 42.3027 22.6188 42.2715 22.6406C42.2477 22.6573 42.2087 22.7033 42.2087 22.7033C42.2087 22.7033 42.3357 22.6919 42.3791 22.7339C42.4174 22.7711 42.4615 22.8377 42.4615 22.8377C42.4615 22.8377 42.393 22.8361 42.3605 22.8464C42.3394 22.8532 42.3021 22.8804 42.3021 22.8804C42.3021 22.8804 42.3899 22.9313 42.4285 22.9903C42.4594 23.0375 42.467 23.143 42.467 23.143C42.467 23.143 42.4153 23.0999 42.3835 23.0841C42.3636 23.0742 42.3186 23.0758 42.3186 23.0758L42.3392 23.2924C42.3442 23.3457 42.4115 23.4034 42.4234 23.4446C42.4386 23.4965 42.4348 23.516 42.4076 23.5616C42.3729 23.6199 42.3011 23.6318 42.2391 23.6201C42.2049 23.6136 42.1568 23.5656 42.1568 23.5656C42.1568 23.5656 42.1217 23.6375 42.0981 23.6595C42.0586 23.6964 42.0416 23.6918 41.99 23.6896C41.9504 23.6879 41.9152 23.6796 41.8878 23.6478C41.8563 23.6113 41.8344 23.5018 41.8344 23.5018L41.7127 23.5285C41.6863 23.5343 41.6062 23.4895 41.5973 23.4613C41.5786 23.4021 41.5768 23.3423 41.6131 23.2943C41.6476 23.2487 41.743 23.2464 41.7916 23.2213C41.8538 23.1891 41.9137 23.0961 41.9137 23.0961C41.9137 23.0961 41.7104 22.9223 41.6225 22.8143C41.5742 22.7549 41.491 22.616 41.491 22.616C41.491 22.616 41.2318 22.7028 41.134 22.7204C40.893 22.7639 40.6362 22.7204 40.6362 22.7204C40.2677 22.7204 40.0226 22.0918 39.6875 21.9482C39.5852 21.9044 39.5371 21.9113 39.4302 21.9378C39.0419 22.034 38.6274 22.5805 38.2428 22.6933C38.0849 22.7395 37.7544 22.7559 37.7544 22.7559C37.7544 22.7559 37.7002 22.8854 37.6491 22.9223C37.5934 22.9625 37.4536 22.9652 37.4536 22.9652C37.4536 22.9652 37.4179 23.12 37.377 23.1788C37.3342 23.2403 37.2166 23.2999 37.2166 23.2999C37.234 23.2292 37.2443 23.1752 37.2198 23.0859C37.2198 23.0859 37.1614 23.2095 37.1045 23.268C37.055 23.3189 36.9343 23.3818 36.9343 23.3818C36.944 23.316 36.9717 23.2534 36.9343 23.1788C36.9343 23.1788 36.8846 23.3037 36.8414 23.3498C36.7983 23.3958 36.6843 23.4459 36.6843 23.4459C36.7064 23.3747 36.7205 23.3035 36.6843 23.2323C36.6843 23.2323 36.637 23.3602 36.5947 23.4032C36.5362 23.4625 36.3956 23.5275 36.3956 23.5275C36.4193 23.454 36.4421 23.3805 36.4246 23.307L36.329 23.3068C36.2135 23.3066 36.2062 23.4243 36.1524 23.4779C36.0997 23.5306 36.0139 23.5317 35.9728 23.5153C35.9003 23.4864 35.8359 23.3847 35.9239 23.2352C35.7717 23.2548 35.6924 23.1397 35.6928 23.0374C35.6931 22.939 35.7227 22.8521 35.8763 22.8626C35.8763 22.8626 35.8564 22.7775 35.8641 22.7326C35.8749 22.6702 35.9191 22.6161 35.979 22.6221C36.0036 22.6246 36.0492 22.644 36.0701 22.6712C36.1032 22.7142 36.1123 22.7767 36.1672 22.8233C36.2294 22.8761 36.3774 22.8719 36.3774 22.8719C36.3774 22.8719 36.6649 22.684 36.8545 22.6082C36.9554 22.5679 37.242 22.507 37.242 22.507L37.251 21.6572C37.4232 21.67 37.3491 21.6718 37.4948 21.6665C37.7039 21.659 38.2535 21.7614 38.2535 21.7614L38.6448 21.729C38.6448 21.729 39.2975 21.6102 39.608 21.573C39.7644 21.5543 39.9225 21.5408 40.0796 21.5507C40.3162 21.5656 40.5194 21.6365 40.7418 21.651C40.9288 21.6633 41.0565 21.6863 41.2434 21.6733C41.5104 21.6548 41.9875 21.6765 42.1391 21.3852C42.1785 21.3096 42.1583 21.206 42.0995 21.1478C42.0221 21.071 41.967 21.042 41.8636 21.0684C41.8091 21.0824 41.7398 21.1286 41.733 21.1855C41.7293 21.2163 41.734 21.2548 41.7572 21.2912C41.7973 21.3538 41.8426 21.3727 41.8426 21.3727C41.8426 21.3727 41.7268 21.3914 41.674 21.3446C41.6185 21.2953 41.5687 21.1386 41.5687 21.1386C41.5426 21.1786 41.5234 21.2224 41.5278 21.2793C41.5316 21.3284 41.5277 21.3591 41.5771 21.4335C41.5771 21.4335 41.4546 21.424 41.396 21.3493C41.3565 21.299 41.3243 21.148 41.3243 21.148C41.2896 21.1861 41.2684 21.2478 41.2669 21.2933C41.2648 21.359 41.2904 21.3879 41.3033 21.4569C41.3033 21.4569 41.1825 21.4175 41.1348 21.3446C41.0977 21.288 41.0779 21.1394 41.0779 21.1394C40.939 21.1779 40.6739 21.2322 40.3851 21.3011C40.1817 21.3497 39.8711 21.4242 39.6515 21.4549C39.2744 21.5075 38.9999 21.4803 38.7681 21.371C38.6475 21.3141 38.5932 21.2594 38.5621 21.1303C38.5444 21.057 38.5704 20.9532 38.6303 20.8723C38.7138 20.7596 38.8587 20.6752 39.0207 20.6307C39.0207 20.6307 39.4496 20.5027 39.6994 20.4769C40.0999 20.4356 40.2628 20.4978 40.4302 20.5212C40.539 20.5364 40.656 20.5114 40.6903 20.466C40.7191 20.4278 40.7668 20.3866 40.7025 20.2944C40.7025 20.2944 40.7839 20.2962 40.838 20.4073C40.86 20.4526 40.8328 20.5575 40.8328 20.5575H40.8328L40.8328 20.5575Z" fill="#FEE46E"/>
<path d="M41.2615 20.3087C41.2615 20.3087 41.145 20.5069 41.0607 20.5661C40.9544 20.6408 40.8245 20.6821 40.7025 20.6997C40.5839 20.7168 40.4629 20.6869 40.3442 20.671C40.2065 20.6526 40.0016 20.5614 40.0016 20.5614C40.0431 20.6345 40.0852 20.7076 40.0961 20.7807C40.0961 20.7807 39.9665 20.7462 39.8982 20.7688C39.8444 20.7865 39.7422 20.8363 39.6901 20.8605C39.6093 20.8982 39.4795 20.8598 39.3934 20.8474C39.3046 20.8346 39.2734 20.7872 39.1935 20.8129L39.1157 20.8379L39.3677 20.9857L39.6197 21.0239L39.7772 20.9905L39.9504 20.8856L40.0882 20.8761L40.1276 20.9381L40.1315 21.0477L40.2221 20.9572L40.2457 20.8808L40.2181 20.7473L40.4032 20.8045L40.6395 20.8236L40.8836 20.7759L41.1001 20.671L41.2064 20.5375L41.2615 20.3087L41.2615 20.3087ZM41.9066 20.972C41.8517 20.9738 41.7952 20.9899 41.742 21.0243C41.6695 21.0939 41.6756 21.1771 41.6764 21.2467C41.6392 21.1821 41.6098 21.0704 41.5771 20.9789C41.4867 21.0716 41.4819 21.2052 41.4571 21.3149C41.4064 21.218 41.3831 21.103 41.3522 21.0062C41.2478 21.0939 41.2205 21.1998 41.1872 21.2876C41.1611 21.2313 41.1356 21.1726 41.1291 21.0334C41.1157 21.0384 41.1073 21.0422 41.0957 21.0467C40.7861 21.0888 40.0889 21.3162 39.5477 21.3707C39.2479 21.4009 38.9205 21.381 38.7316 21.2461C38.6483 21.1867 38.592 21.1049 38.5767 20.9953L38.5489 21.1233L38.6378 21.2916L38.838 21.4061L39.2161 21.4937L39.6277 21.4532L39.8612 21.4263L41.0838 21.1449L41.1104 21.3035L41.1929 21.4079L41.3034 21.4578L41.2603 21.3171L41.2772 21.2218L41.3203 21.1605L41.3822 21.3375L41.4665 21.4079L41.5808 21.4374L41.534 21.3511L41.5302 21.2377L41.5658 21.1537L41.6239 21.3035L41.6914 21.3602L41.8432 21.3738L41.7495 21.2672L41.7308 21.1718L41.7926 21.0946L41.935 21.0606L42.0456 21.1037L42.1318 21.1855L42.1581 21.3126L42.1355 21.4073C42.3488 21.2184 42.1425 20.9641 41.9066 20.972L41.9066 20.972ZM42.1355 21.4073C42.1336 21.409 42.132 21.4107 42.13 21.4124L42.1337 21.4147L42.1355 21.4073H42.1355ZM42.3233 21.1693C42.3118 21.3126 42.2622 21.425 42.1843 21.51C41.8151 21.9129 40.9909 21.7783 40.5955 21.6404L40.4175 21.6121C40.3922 21.6004 40.3643 21.5883 40.3291 21.5742C40.1969 21.5451 40.2254 21.5599 40.0796 21.5507C39.9226 21.5408 39.7645 21.5543 39.6081 21.573C39.2976 21.6102 38.6449 21.729 38.6449 21.729L38.2535 21.7614C38.2535 21.7614 37.704 21.659 37.4948 21.6666C37.3492 21.6718 37.4232 21.67 37.251 21.6571L37.2495 21.8004C37.2495 21.8004 37.4295 21.8477 37.5969 21.8816L37.5483 21.8849L37.3061 22.3126C37.2956 22.2324 37.2624 22.1125 37.2624 22.1125L37.2371 22.4345L37.1906 22.5166L36.9062 22.5877L36.6171 22.7189L36.39 22.8815L36.1628 22.819L36.0751 22.6627C36.0751 22.6627 36.0959 22.8433 36.1473 22.9002C36.2104 22.9702 36.3951 22.9815 36.3951 22.9815C36.3951 22.9815 36.6634 22.7914 36.8081 22.7252C36.871 22.6965 36.9361 22.6764 37.0018 22.6586C37.0246 22.6845 37.0549 22.7153 37.089 22.7399C37.1214 22.7633 37.1911 22.7998 37.1911 22.7998C37.1993 22.6034 37.3124 22.6057 37.4826 22.5028L37.5 22.6229C37.5 22.6229 37.8205 22.5135 37.9076 22.4157C37.9659 22.3504 38.0223 22.2736 38.0477 22.1825C38.0666 22.1147 38.0633 22.0004 38.0588 21.9248C38.1301 21.9243 38.2018 21.9223 38.2763 21.9196C38.6036 21.908 38.9546 21.7598 39.28 21.7159C39.5407 21.6807 39.8288 21.6296 40.066 21.6738C40.2651 21.7108 40.3416 21.7905 40.5134 21.918C40.6579 22.0253 40.8044 22.3139 40.9979 22.3139C40.9979 22.3139 41.1074 22.3072 41.1788 22.2971C41.2687 22.2843 41.332 22.2467 41.4222 22.2381C41.5451 22.2264 41.714 22.2511 41.714 22.2511C41.7936 22.1388 41.8343 22.1366 41.8572 22.1508C41.9075 22.1823 41.9144 22.252 41.869 22.3225C41.9191 22.3606 41.9511 22.4233 42.1035 22.4143C42.0364 22.4735 42.0161 22.503 41.9885 22.5758C42.0457 22.5549 42.1057 22.5747 42.1913 22.6021C42.1307 22.6594 42.114 22.7165 42.0931 22.767C42.15 22.7588 42.1925 22.7725 42.2946 22.7918C42.2363 22.8256 42.1925 22.8416 42.1827 22.8885C42.2493 22.9305 42.2431 22.9139 42.34 23.0048C42.2784 23.0137 42.2409 23.0138 42.2169 23.0616L42.3343 23.2684L42.3186 23.0758C42.3186 23.0758 42.3637 23.0742 42.3836 23.0841C42.4154 23.0999 42.4671 23.143 42.4671 23.143C42.4671 23.143 42.4594 23.0375 42.4286 22.9903C42.39 22.9313 42.3022 22.8804 42.3022 22.8804C42.3022 22.8804 42.3395 22.8532 42.3606 22.8464C42.393 22.8361 42.4616 22.8376 42.4616 22.8376C42.4616 22.8376 42.4175 22.771 42.3791 22.7338C42.3358 22.6918 42.2087 22.7033 42.2087 22.7033C42.2087 22.7033 42.2478 22.6573 42.2716 22.6406C42.3027 22.6188 42.3681 22.6239 42.3681 22.6239C42.3681 22.6239 42.3233 22.5562 42.2747 22.5323C42.2293 22.51 42.1208 22.5079 42.1208 22.5079C42.1208 22.5079 42.1509 22.4573 42.1734 22.4421C42.2064 22.4197 42.2857 22.3919 42.2857 22.3919C42.2857 22.3919 42.2109 22.3409 42.1647 22.3247C42.1367 22.3149 42.0794 22.3251 42.0303 22.3135C41.9839 22.3026 41.9535 22.2553 41.9535 22.2553C41.9719 22.1486 41.9423 22.0913 41.8985 22.0727C41.8763 22.0633 41.8328 22.0638 41.8052 22.0728C41.7667 22.0853 41.7427 22.1145 41.7057 22.1564C41.7057 22.1564 41.4636 22.1376 41.3211 22.1468C41.2193 22.1533 41.0719 22.2273 40.9755 22.19C40.9052 22.1628 40.8768 22.0513 40.82 21.998C40.7714 21.9525 40.6644 21.8529 40.6644 21.8529C40.6617 21.849 40.6597 21.8461 40.6571 21.8423L41.0207 21.865L41.387 21.8705H41.6177C41.883 21.8057 42.1919 21.7349 42.3188 21.4104L42.3233 21.1693L42.3233 21.1693ZM39.5801 21.7881C39.4841 21.7861 39.3749 21.8179 39.2882 21.8552C39.0404 21.9618 38.6519 22.2846 38.6519 22.2846C38.5421 22.3532 38.3842 22.4668 38.2669 22.5144C38.0878 22.5871 37.7045 22.5991 37.7045 22.5991C37.7045 22.5991 37.6525 22.7969 37.5826 22.8346C37.5207 22.8681 37.3823 22.7925 37.3823 22.7925C37.3823 22.7925 37.3846 22.9045 37.3765 22.9647C37.3692 23.0196 37.3156 23.1229 37.3156 23.1229C37.3156 23.1229 37.3017 23.0412 37.2836 23.0069C37.2571 22.9566 37.1763 22.8839 37.1763 22.8839C37.1763 22.8839 37.1545 22.9976 37.1327 23.0491C37.1046 23.1153 37.0224 23.2283 37.0224 23.2283C37.0224 23.2283 37.0115 23.1606 36.9992 23.1299C36.9768 23.074 36.9092 22.9788 36.9092 22.9788C36.9092 22.9788 36.8819 23.0964 36.8598 23.151C36.8411 23.1974 36.7902 23.2811 36.7902 23.2811C36.7902 23.2811 36.7768 23.2376 36.767 23.2178C36.7395 23.1628 36.6682 23.0666 36.6682 23.0666C36.6682 23.0666 36.6193 23.1924 36.587 23.2495C36.5668 23.2851 36.5173 23.3479 36.5173 23.3479C36.5173 23.3479 36.5163 23.2347 36.4854 23.2002C36.4565 23.168 36.3992 23.1541 36.3606 23.1615C36.2335 23.1859 36.1841 23.3117 36.0993 23.4236C36.0811 23.4477 36.0419 23.4616 36.0571 23.4342C36.0803 23.3921 36.0627 23.3531 36.0461 23.3313C36.0274 23.3068 35.9915 23.2921 35.9658 23.308C35.9265 23.3322 36.059 23.144 36.0558 23.144C36.0558 23.144 35.922 23.1485 35.8584 23.1334C35.8216 23.1247 35.8907 23.1454 35.8822 23.0349C35.8742 22.9308 35.7925 22.941 35.8151 22.9329C35.8775 22.9106 35.9803 22.9577 35.9803 22.9577C35.9803 22.9577 35.9327 22.9083 35.9542 22.8643C35.964 22.8442 36.0205 22.8033 36.0294 22.7515C36.0424 22.676 35.9813 22.6164 35.9789 22.6221C35.9521 22.6872 35.8748 22.6702 35.864 22.7326C35.8563 22.7774 35.8762 22.8626 35.8762 22.8626C35.7227 22.8521 35.693 22.9389 35.6927 23.0373C35.6923 23.1397 35.7716 23.2548 35.9238 23.2351C35.8358 23.3846 35.9003 23.4863 35.9727 23.5153C36.0138 23.5317 36.0996 23.5305 36.1524 23.4778C36.2061 23.4243 36.2135 23.3065 36.3289 23.3068L36.4245 23.307C36.4421 23.3804 36.4193 23.4539 36.3956 23.5274C36.3956 23.5274 36.5361 23.4625 36.5946 23.4031C36.6369 23.3602 36.6842 23.2322 36.6842 23.2322C36.7204 23.3034 36.7063 23.3746 36.6842 23.4459C36.6842 23.4459 36.7982 23.3958 36.8413 23.3497C36.8845 23.3036 36.9343 23.1788 36.9343 23.1788C36.9716 23.2534 36.9439 23.3159 36.9343 23.3818C36.9343 23.3818 37.055 23.3188 37.1044 23.2679C37.1613 23.2094 37.2197 23.0859 37.2197 23.0859C37.2443 23.1751 37.2339 23.2292 37.2165 23.2998C37.2165 23.2998 37.3341 23.2402 37.3769 23.1788C37.4178 23.1199 37.4536 22.9651 37.4536 22.9651C37.4536 22.9651 37.5933 22.9625 37.649 22.9223C37.7001 22.8853 37.7543 22.7558 37.7543 22.7558C37.7543 22.7558 38.0849 22.7395 38.2427 22.6932C38.6274 22.5805 39.0418 22.034 39.4301 21.9377C39.537 21.9112 39.5851 21.9043 39.6874 21.9481C40.0225 22.0916 40.2676 22.7203 40.6361 22.7203C40.802 22.7203 40.8929 22.7638 41.134 22.7203C41.2317 22.7027 41.4909 22.616 41.4909 22.616C41.4909 22.616 41.5741 22.7548 41.6224 22.8142C41.7103 22.9223 41.9136 23.096 41.9136 23.096C41.9136 23.096 41.8538 23.189 41.7915 23.2212C41.7429 23.2463 41.6475 23.2487 41.613 23.2942C41.5767 23.3422 41.5785 23.402 41.5972 23.4612C41.6061 23.4894 41.6862 23.5342 41.7126 23.5284L41.8343 23.5017C41.8343 23.5017 41.8562 23.6112 41.8877 23.6477C41.9151 23.6795 41.9503 23.701 41.9899 23.7027C42.0415 23.7049 42.0585 23.6963 42.098 23.6594C42.1216 23.6374 42.1567 23.5655 42.1567 23.5655C42.1567 23.5655 42.2048 23.6136 42.239 23.62C42.3011 23.6317 42.3728 23.6198 42.4076 23.5615C42.4347 23.5159 42.4005 23.402 42.3854 23.35C42.3854 23.35 42.384 23.4603 42.3936 23.4985C42.351 23.4025 42.2339 23.4054 42.1955 23.5023C42.1377 23.4659 42.1221 23.4029 42.1221 23.4029L42.092 23.5288C42.0766 23.5527 42.0886 23.5853 42.0588 23.6025C42.0543 23.4811 41.9752 23.4688 41.9055 23.5002C41.8836 23.4564 41.895 23.383 41.895 23.383C41.895 23.383 41.8266 23.4158 41.7773 23.4294C41.748 23.4375 41.7672 23.409 41.7593 23.3738C41.7501 23.3326 41.6917 23.3437 41.7034 23.3366C41.7659 23.2989 41.8327 23.2848 41.8922 23.2406C41.9466 23.2001 42.0126 23.0682 42.0126 23.0682C42.0126 23.0682 41.8011 22.8893 41.7044 22.7708C41.6267 22.6756 41.5336 22.4777 41.5336 22.4777C41.5336 22.4777 41.1517 22.5977 40.9381 22.6074C40.8108 22.6132 40.6313 22.608 40.5144 22.5465C40.3061 22.4369 40.1767 22.1655 39.9861 22.0155C39.8649 21.9201 39.7641 21.8103 39.6203 21.7911C39.6072 21.7893 39.5938 21.7884 39.5801 21.7881L39.5801 21.7881Z" fill="#E4C900"/>
<path d="M40.757 20.3062C40.757 20.3062 40.7593 20.3117 40.7603 20.3141L40.761 20.3111L40.757 20.3062H40.757ZM40.7603 20.3141L40.7408 20.3993L40.6478 20.4924L40.5385 20.5267L40.3564 20.5071L40.0814 20.4679H39.7739L39.43 20.5169L39.0943 20.6002L38.9041 20.6834C38.9041 20.6834 39.0334 20.707 39.0983 20.7031C39.2914 20.6914 39.477 20.6064 39.6687 20.5757C39.7841 20.5572 39.9003 20.537 40.0166 20.5414C40.1678 20.547 40.3146 20.6128 40.4657 20.6198C40.5454 20.6234 40.6325 20.642 40.7044 20.6002C40.7457 20.5762 40.7868 20.5317 40.7974 20.4777C40.8075 20.4259 40.7689 20.3338 40.7603 20.3141H40.7603ZM41.7274 20.8283L41.3289 20.8567L40.8542 20.9703C41.3977 21.0672 42.0509 20.6599 42.3018 21.207L42.3054 21.1218L42.1961 20.9561L42.0321 20.8622L41.7273 20.8283H41.7274ZM42.3018 21.207L42.3016 21.2115L42.3074 21.2187C42.3057 21.2146 42.3036 21.211 42.3018 21.207H42.3018ZM39.8089 21.7291C40.4155 22.1221 40.4884 22.719 41.2853 22.4552C40.5689 22.5118 40.5241 21.8131 39.8089 21.7291ZM39.1969 21.8222C38.4927 22.1012 38.312 22.0906 38.2228 22.1913C38.185 22.2339 38.1837 22.2906 38.1492 22.3495C38.1149 22.4081 38.0476 22.469 37.9679 22.5204C38.4658 22.5103 38.8587 21.9827 39.1969 21.8222L39.1969 21.8222ZM41.6026 22.4002C41.6744 22.6906 41.8539 22.8643 42.0478 23.0373C41.963 22.7446 41.8165 22.5555 41.6026 22.4002ZM36.9824 22.7705C36.5933 22.8047 36.5737 22.9594 36.4182 23.0312C36.831 22.9909 36.7983 22.9385 36.9824 22.7705Z" fill="#FFF1A1"/>
<path d="M40.8328 20.5575C40.919 20.546 41.0962 20.5034 41.1556 20.433C41.1834 20.4002 41.2611 20.3086 41.2611 20.3086C41.2446 20.5155 41.157 20.6496 40.9712 20.7405C40.8228 20.813 40.6516 20.8298 40.4901 20.8137C40.3884 20.8036 40.2002 20.7405 40.2002 20.7405C40.3035 20.8745 40.251 20.9692 40.1211 21.0333C40.1211 21.0333 40.1404 20.9049 40.1013 20.8869C40.0172 20.848 39.9224 20.8987 39.833 20.9582C39.767 21.0021 39.6671 21.0226 39.5998 21.0217C39.4877 21.0202 39.4256 21.0187 39.3207 20.9745C39.2575 20.9479 39.1478 20.8464 39.1013 20.8565C39.001 20.8783 38.8743 20.8905 38.8172 20.9847C38.7974 21.0174 38.7998 21.0687 38.8172 21.1031C38.8562 21.1802 38.9439 21.2205 39.0214 21.2412C39.2518 21.3025 39.4399 21.3021 39.6674 21.2631C39.9018 21.223 40.1755 21.1426 40.4099 21.0941C40.6422 21.0461 40.9417 20.9552 41.1177 20.9113C41.4289 20.8337 41.5684 20.8231 41.8013 20.8272C42.209 20.8344 42.3425 21.0749 42.3301 21.3374C42.3174 21.607 42.0717 21.7291 41.8613 21.8048C41.4914 21.9378 40.9836 21.862 40.6644 21.853C40.6644 21.853 40.7714 21.9525 40.8199 21.998C40.8768 22.0513 40.9052 22.1628 40.9754 22.19C41.0718 22.2273 41.2192 22.1533 41.3211 22.1468C41.4635 22.1376 41.7056 22.1564 41.7056 22.1564C41.7427 22.1145 41.7667 22.0854 41.8052 22.0728C41.8328 22.0638 41.8763 22.0633 41.8984 22.0727C41.9423 22.0913 41.9718 22.1486 41.9534 22.2553C41.9534 22.2553 41.9838 22.3026 42.0302 22.3135C42.0793 22.3251 42.1367 22.3149 42.1647 22.3247C42.2108 22.3409 42.2856 22.3919 42.2856 22.3919C42.2856 22.3919 42.2064 22.4198 42.1734 22.4421C42.1508 22.4574 42.1207 22.5079 42.1207 22.5079C42.1207 22.5079 42.2293 22.51 42.2746 22.5323C42.3232 22.5563 42.3681 22.6239 42.3681 22.6239C42.3681 22.6239 42.3027 22.6188 42.2715 22.6406C42.2477 22.6573 42.2087 22.7033 42.2087 22.7033C42.2087 22.7033 42.3357 22.6919 42.3791 22.7339C42.4174 22.771 42.4615 22.8377 42.4615 22.8377C42.4615 22.8377 42.393 22.8361 42.3605 22.8464C42.3394 22.8532 42.3021 22.8804 42.3021 22.8804C42.3021 22.8804 42.3899 22.9313 42.4285 22.9903C42.4594 23.0375 42.467 23.143 42.467 23.143C42.467 23.143 42.4153 23.0999 42.3835 23.0841C42.3636 23.0742 42.3186 23.0758 42.3186 23.0758L42.3392 23.2924C42.3442 23.3457 42.4115 23.4033 42.4234 23.4446C42.4386 23.4965 42.4348 23.516 42.4076 23.5616C42.3729 23.6199 42.3011 23.6318 42.2391 23.6201C42.2049 23.6136 42.1568 23.5656 42.1568 23.5656C42.1568 23.5656 42.1217 23.6375 42.0981 23.6595C42.0586 23.6964 42.0395 23.7066 41.9879 23.7044C41.9483 23.7027 41.9152 23.6796 41.8878 23.6478C41.8563 23.6113 41.8344 23.5017 41.8344 23.5017L41.7127 23.5285C41.6863 23.5343 41.6062 23.4895 41.5973 23.4613C41.5786 23.4021 41.5768 23.3423 41.6131 23.2943C41.6476 23.2487 41.743 23.2464 41.7916 23.2213C41.8538 23.1891 41.9137 23.0961 41.9137 23.0961C41.9137 23.0961 41.7104 22.9223 41.6225 22.8143C41.5742 22.7549 41.491 22.616 41.491 22.616C41.491 22.616 41.2318 22.7028 41.134 22.7204C40.893 22.7638 40.6362 22.7204 40.6362 22.7204C40.2677 22.7204 40.0226 22.0917 39.6875 21.9482C39.5852 21.9044 39.5371 21.9113 39.4302 21.9378C39.0419 22.034 38.6274 22.5805 38.2428 22.6933C38.0849 22.7395 37.7544 22.7559 37.7544 22.7559C37.7544 22.7559 37.7002 22.8854 37.6491 22.9223C37.5934 22.9625 37.4536 22.9652 37.4536 22.9652C37.4536 22.9652 37.4179 23.12 37.377 23.1788C37.3342 23.2403 37.2166 23.2999 37.2166 23.2999C37.234 23.2292 37.2443 23.1752 37.2198 23.0859C37.2198 23.0859 37.1614 23.2095 37.1045 23.268C37.055 23.3189 36.9343 23.3818 36.9343 23.3818C36.944 23.316 36.9717 23.2534 36.9343 23.1788C36.9343 23.1788 36.8846 23.3037 36.8414 23.3498C36.7983 23.3958 36.6843 23.4459 36.6843 23.4459C36.7064 23.3747 36.7205 23.3035 36.6843 23.2322C36.6843 23.2322 36.637 23.3602 36.5947 23.4032C36.5362 23.4625 36.3956 23.5275 36.3956 23.5275C36.4193 23.454 36.4421 23.3805 36.4246 23.307L36.329 23.3068C36.2135 23.3066 36.2062 23.4243 36.1524 23.4779C36.0997 23.5306 36.0139 23.5317 35.9728 23.5153C35.9003 23.4864 35.8359 23.3847 35.9239 23.2352C35.7717 23.2548 35.6924 23.1397 35.6928 23.0374C35.6931 22.939 35.7227 22.8521 35.8763 22.8626C35.8763 22.8626 35.8564 22.7775 35.8641 22.7326C35.8749 22.6702 35.9191 22.6161 35.979 22.6221C36.0036 22.6246 36.0492 22.644 36.0701 22.6712C36.1032 22.7142 36.1123 22.7767 36.1672 22.8233C36.2294 22.8761 36.3774 22.8718 36.3774 22.8718C36.3774 22.8718 36.6649 22.684 36.8545 22.6082C36.9554 22.5679 37.242 22.507 37.242 22.507L37.251 21.6572C37.4232 21.67 37.3491 21.6718 37.4948 21.6665C37.7039 21.659 38.2535 21.7614 38.2535 21.7614L38.6448 21.729C38.6448 21.729 39.2975 21.6102 39.608 21.573C39.7644 21.5543 39.9225 21.5408 40.0796 21.5507C40.3162 21.5656 40.5194 21.6365 40.7418 21.651C40.9288 21.6633 41.0565 21.6863 41.2434 21.6733C41.5104 21.6548 41.9875 21.6765 42.1391 21.3852C42.1785 21.3096 42.1583 21.206 42.0995 21.1478C42.0221 21.071 41.967 21.042 41.8636 21.0684C41.8091 21.0824 41.7398 21.1286 41.733 21.1855C41.7293 21.2163 41.734 21.2435 41.7572 21.2799C41.7973 21.3425 41.8426 21.3727 41.8426 21.3727C41.8426 21.3727 41.708 21.3801 41.6553 21.3332C41.5998 21.2839 41.5687 21.1386 41.5687 21.1386C41.5426 21.1786 41.5234 21.2224 41.5278 21.2793C41.5316 21.3284 41.5277 21.3591 41.5771 21.4335C41.5771 21.4335 41.4546 21.424 41.396 21.3493C41.3565 21.299 41.3243 21.148 41.3243 21.148C41.2896 21.1861 41.2684 21.2478 41.2669 21.2933C41.2648 21.359 41.2904 21.3879 41.3033 21.4569C41.3033 21.4569 41.1825 21.4175 41.1348 21.3446C41.0977 21.288 41.0779 21.1394 41.0779 21.1394C40.939 21.1779 40.6739 21.2323 40.3851 21.3011C40.1817 21.3497 39.8711 21.4242 39.6515 21.4549C39.2744 21.5075 38.9999 21.4803 38.7681 21.371C38.6475 21.3141 38.5932 21.2594 38.5621 21.1303C38.5444 21.057 38.5704 20.9532 38.6303 20.8723C38.7138 20.7596 38.8587 20.6752 39.0207 20.6307C39.0207 20.6307 39.4496 20.5027 39.6994 20.4769C40.0999 20.4356 40.2628 20.4978 40.4302 20.5212C40.539 20.5364 40.656 20.5114 40.6903 20.466C40.7191 20.4278 40.7668 20.3866 40.7025 20.2944C40.7025 20.2944 40.7839 20.2962 40.838 20.4073C40.86 20.4526 40.8328 20.5575 40.8328 20.5575H40.8328L40.8328 20.5575Z" stroke="#806600" stroke-width="0.0357333"/>
<path d="M37.9325 21.7679C38.0255 21.8258 38.1277 21.7499 38.1487 21.7422C38.1487 21.7422 38.1042 21.7111 38.074 21.6365C38.0538 21.5863 38.0468 21.4976 38.0449 21.456C38.038 21.3016 38.0996 21.2776 38.1016 21.2893C38.1016 21.2893 38.2039 21.2542 38.2463 21.2215C38.2866 21.1906 38.3051 21.1369 38.3162 21.0874C38.3329 21.0131 38.3036 20.9041 38.3036 20.9041C38.1549 20.8955 38.1171 20.9152 38.0823 20.9607C38.0823 20.9607 38.0792 20.8848 38.0586 20.8155C38.0483 20.781 38.0245 20.7296 38.0001 20.6963C37.9751 20.6621 37.9495 20.6465 37.9495 20.6465C37.9486 20.6859 37.9132 20.7219 37.8951 20.7494C37.8951 20.7494 37.88 20.5985 37.8422 20.5444C37.813 20.5026 37.7324 20.447 37.733 20.4472C37.7336 20.4474 37.6415 20.4525 37.5944 20.4719C37.5334 20.4971 37.4394 20.6161 37.4394 20.6161C37.439 20.5832 37.4285 20.5338 37.449 20.5001C37.449 20.5001 37.4191 20.4995 37.3795 20.5149C37.341 20.5298 37.2933 20.5603 37.266 20.5838C37.2113 20.6311 37.1679 20.6933 37.1679 20.6933C37.1654 20.6337 37.1451 20.5994 37.0119 20.5264C37.0119 20.5264 36.9285 20.6025 36.9025 20.674C36.8852 20.7217 36.872 20.777 36.8891 20.8247C36.9073 20.8751 36.9746 20.9598 36.9746 20.9598C36.9826 20.951 37.0216 21.0044 36.9325 21.1308C36.9086 21.1648 36.8549 21.2357 36.8108 21.2671C36.7452 21.3138 36.6909 21.316 36.6909 21.316C36.724 21.4022 36.7331 21.4374 36.8592 21.4541C36.5717 21.6604 36.5391 21.9895 36.7598 22.2699C36.7742 22.2362 36.8235 22.1597 36.8526 22.1304C36.8495 22.1279 36.8563 22.2924 36.9383 22.3761C36.965 22.4033 36.9779 22.5545 37.0164 22.6021C37.0515 22.6454 37.1008 22.6926 37.1008 22.6926C37.1008 22.6926 37.139 22.5727 37.1951 22.554C37.2516 22.5352 37.3571 22.505 37.3919 22.4941C37.462 22.472 37.5868 22.3227 37.5868 22.3227L37.5648 22.5052C37.943 22.3712 38.0293 22.1144 37.9325 21.7679L37.9325 21.7679Z" fill="#FEE46E"/>
<path d="M37.1993 21.3021C37.2158 21.4103 37.164 21.6244 37.1232 21.6828L37.369 21.7814L37.6116 21.8094C37.5918 21.71 37.689 21.5159 37.7375 21.4499L37.5592 21.4537L37.4796 21.3742L37.3339 21.4065L37.1993 21.3021L37.1993 21.3021Z" fill="#504416"/>
<path d="M37.2478 21.3635C37.2157 21.4798 37.2341 21.5013 37.2401 21.5473L37.311 21.3954L37.2478 21.3635V21.3635ZM37.592 21.4755L37.572 21.642C37.6014 21.6061 37.6284 21.5976 37.6625 21.4819L37.592 21.4755V21.4755ZM37.2405 21.5927C37.2112 21.6286 37.1841 21.6371 37.15 21.7528L37.2205 21.7592L37.2405 21.5927L37.2405 21.5927ZM37.5498 21.681L37.4789 21.8329L37.5421 21.8647C37.5742 21.7484 37.5558 21.727 37.5498 21.681V21.681Z" fill="white"/>
<path d="M37.4334 20.7022C37.3846 20.702 37.3373 20.7044 37.3022 20.71C37.2133 20.7241 37.2095 20.7611 37.2095 20.7611C37.3716 20.7652 37.4873 20.8264 37.5847 20.91L37.4918 21.0457C37.4918 21.0457 37.5204 21.0942 37.5449 21.1024C37.5694 21.1107 37.6213 21.0896 37.6213 21.0896L37.6072 20.9109C37.7471 20.91 37.8799 20.9342 38.0028 20.9928C38.0028 20.9928 38.0122 20.9538 37.9486 20.8967C37.8731 20.8287 37.7175 20.7393 37.6405 20.7196C37.6003 20.7094 37.5148 20.7024 37.4334 20.7022L37.4334 20.7022ZM37.3761 21.1815C37.3591 21.1813 37.3426 21.1865 37.329 21.1965C37.3155 21.2064 37.3056 21.2205 37.3011 21.2366C37.2983 21.2462 37.2975 21.2563 37.2987 21.2663C37.2999 21.2763 37.3032 21.286 37.3082 21.2948C37.3132 21.3036 37.3199 21.3114 37.3279 21.3176C37.336 21.3239 37.3452 21.3286 37.355 21.3314C37.3649 21.3342 37.3752 21.3351 37.3853 21.334C37.3955 21.3329 37.4053 21.3299 37.4142 21.325C37.4231 21.3202 37.4309 21.3137 37.4372 21.3058C37.4435 21.298 37.4482 21.289 37.451 21.2793C37.4565 21.2599 37.4539 21.2389 37.4438 21.2212C37.4337 21.2034 37.4168 21.1902 37.397 21.1845C37.3902 21.1826 37.3832 21.1816 37.3761 21.1815ZM37.6096 21.2481C37.5926 21.2479 37.5761 21.2532 37.5625 21.2631C37.549 21.2731 37.5391 21.2872 37.5345 21.3032C37.5318 21.3129 37.531 21.323 37.5322 21.333C37.5334 21.3429 37.5367 21.3526 37.5417 21.3614C37.5467 21.3702 37.5534 21.378 37.5614 21.3843C37.5695 21.3906 37.5787 21.3953 37.5885 21.3981C37.5984 21.4009 37.6087 21.4018 37.6188 21.4007C37.629 21.3996 37.6388 21.3965 37.6477 21.3917C37.6566 21.3868 37.6644 21.3803 37.6707 21.3725C37.677 21.3646 37.6817 21.3556 37.6845 21.346C37.69 21.3265 37.6874 21.3056 37.6773 21.2878C37.6672 21.27 37.6503 21.2569 37.6305 21.2512C37.6237 21.2492 37.6167 21.2482 37.6096 21.2481V21.2481ZM37.1335 21.4867C36.9669 21.4868 36.7832 21.6993 36.7852 21.9486C36.9036 21.7855 37.1528 21.5967 37.1495 21.4874C37.1442 21.4869 37.1388 21.4867 37.1335 21.4867L37.1335 21.4867ZM37.7027 21.707C37.6816 21.8093 37.7674 22.0248 37.7428 22.2146C37.8524 21.9716 37.8162 21.7492 37.7027 21.707ZM37.061 21.8823C37.061 21.8823 37.0175 21.9708 37.0153 22.0425C37.0138 22.0905 37.0153 22.1408 37.0329 22.1855C37.0511 22.2317 37.1663 22.319 37.1663 22.319L37.1353 22.4271C37.1353 22.4271 37.2591 22.3736 37.2847 22.3318C37.3042 22.2998 37.3633 22.1682 37.3633 22.1682L37.2336 22.2692C37.2336 22.2692 37.1026 22.1657 37.0812 22.109C37.0483 22.0219 37.0611 21.8823 37.0611 21.8823H37.061H37.061Z" fill="#FFEFA7"/>
<path d="M37.2716 20.8761C37.2256 20.8735 37.1931 20.8902 37.1827 20.9268C37.1688 20.9756 37.2029 21.0281 37.2752 21.0487C37.3475 21.0694 37.4178 21.0325 37.4318 20.9837C37.4457 20.935 37.3942 20.9058 37.3219 20.8852C37.3038 20.88 37.287 20.877 37.2716 20.8761H37.2716ZM37.778 21.0227C37.7418 21.0212 37.7154 21.0317 37.7067 21.0622C37.6928 21.111 37.7331 21.1794 37.8054 21.2C37.8776 21.2206 37.9344 21.1941 37.9483 21.1453C37.9622 21.0965 37.9243 21.0571 37.852 21.0365C37.8249 21.0287 37.7997 21.0235 37.778 21.0227L37.778 21.0227Z" fill="white"/>
<path d="M37.2721 20.864C37.2554 20.8632 37.2399 20.8646 37.2263 20.8686C37.1991 20.8764 37.1792 20.8956 37.1712 20.9237C37.1632 20.9517 37.1695 20.9809 37.1872 21.0053C37.205 21.0298 37.2338 21.0502 37.2721 21.0611C37.35 21.0833 37.4263 21.0446 37.4428 20.987C37.451 20.9582 37.4386 20.9327 37.4161 20.9149C37.3936 20.8971 37.3625 20.8838 37.3257 20.8733C37.3069 20.868 37.2889 20.8648 37.2721 20.864H37.2721ZM37.2713 20.888C37.2856 20.8888 37.3017 20.8917 37.319 20.8966C37.3544 20.9067 37.3833 20.9201 37.4012 20.9342C37.419 20.9483 37.4252 20.9604 37.4195 20.9803C37.4081 21.0203 37.3453 21.0568 37.2787 21.0378C37.2447 21.0281 37.2207 21.0112 37.2068 20.9921C37.1928 20.9729 37.1886 20.9511 37.1945 20.9303C37.2004 20.9095 37.2132 20.8972 37.234 20.8912C37.2444 20.8882 37.257 20.8871 37.2713 20.888H37.2713ZM37.7785 21.011C37.7708 21.0108 37.7633 21.0111 37.7562 21.012C37.7277 21.0152 37.7037 21.0303 37.6955 21.0591C37.6791 21.1167 37.7235 21.1899 37.8014 21.2121C37.8397 21.2231 37.8749 21.221 37.9029 21.2096C37.9308 21.1982 37.9516 21.1767 37.9596 21.1487C37.9676 21.1207 37.9609 21.0938 37.9419 21.0728C37.9229 21.0518 37.8925 21.0351 37.855 21.0244C37.8274 21.0165 37.8016 21.0116 37.7785 21.011L37.7785 21.011ZM37.7773 21.0355C37.7974 21.036 37.8218 21.0401 37.8483 21.0477C37.8831 21.0576 37.9089 21.0719 37.9234 21.088C37.9379 21.104 37.9422 21.1213 37.9363 21.1421C37.9304 21.1628 37.9153 21.179 37.8933 21.188C37.8713 21.1969 37.8421 21.1986 37.8081 21.1888C37.7414 21.1698 37.7074 21.1058 37.7188 21.0658C37.7245 21.0458 37.7361 21.0389 37.7587 21.0363C37.7644 21.0356 37.7706 21.0354 37.7773 21.0355V21.0355Z" fill="#D1B948"/>
<path d="M37.2746 20.7678C37.2416 20.7633 37.2019 20.7689 37.1779 20.7921C37.1636 20.806 37.1613 20.8503 37.1613 20.8503L37.2131 20.8509L37.2713 20.8676L37.3969 20.9239L37.5345 20.9159C37.5345 20.9159 37.4593 20.8852 37.4226 20.8643C37.3729 20.8362 37.3312 20.7754 37.2746 20.7678L37.2746 20.7678ZM37.9339 20.9559C37.8864 20.9438 37.8319 20.969 37.782 20.9669C37.7398 20.9652 37.6568 20.9508 37.6568 20.9508L37.7695 21.0302L37.9059 21.0487L37.9626 21.0649L38.0069 21.0917C38.0069 21.0917 38.0284 21.0528 38.0235 21.0335C38.0154 21.0011 37.9847 20.9754 37.9543 20.9618C37.9478 20.9588 37.9407 20.9577 37.9339 20.9559V20.9559Z" fill="#E4C900"/>
<path d="M37.1352 21.6869C37.0031 22.0062 37.5139 22.1677 37.5886 21.8163C37.4515 21.8067 37.3079 21.7817 37.1352 21.6869Z" fill="#E4C900"/>
<path d="M37.123 21.6544L37.1126 21.6797C37.0773 21.7653 37.0852 21.8443 37.1192 21.9051C37.1531 21.9659 37.2122 22.0077 37.2778 22.0275C37.3435 22.0473 37.4161 22.0451 37.4789 22.0125C37.5416 21.9799 37.5919 21.9159 37.6119 21.8222L37.6179 21.7956L37.59 21.7939C37.4547 21.7845 37.3155 21.7602 37.1461 21.6672L37.123 21.6544H37.123H37.123ZM37.139 21.6934C37.2883 21.7698 37.4674 21.8074 37.5886 21.8182C37.5685 21.8832 37.5279 21.9609 37.4841 21.9837C37.4341 22.0096 37.3373 22.0165 37.2825 21.9999C37.2276 21.9834 37.1566 21.9152 37.1296 21.8669C37.1058 21.8243 37.1195 21.7561 37.139 21.6934L37.139 21.6934L37.139 21.6934Z" fill="#806600"/>
<path d="M37.3452 21.4073C37.2816 21.6174 37.2262 21.8548 37.2693 22.0735C37.4213 21.9105 37.4991 21.6816 37.5559 21.4696C37.5562 21.4611 37.5141 21.4421 37.5088 21.4354C37.4956 21.4187 37.4732 21.3795 37.4732 21.3795C37.4732 21.3795 37.4308 21.4063 37.4068 21.412C37.3863 21.4168 37.3452 21.4073 37.3452 21.4073L37.3452 21.4073Z" fill="#377BC8" stroke="#2C5AA0" stroke-width="0.0357333"/>
<path d="M37.7284 20.4459C37.729 20.4461 37.6369 20.4512 37.5899 20.4706C37.5288 20.4958 37.4349 20.6149 37.4349 20.6149C37.4344 20.5819 37.4239 20.5325 37.4444 20.4988C37.4444 20.4988 37.4145 20.4983 37.375 20.5136C37.3365 20.5285 37.2887 20.559 37.2615 20.5825C37.2067 20.6298 37.1633 20.692 37.1633 20.692C37.2115 20.6903 37.3188 20.5936 37.3602 20.603C37.3954 20.611 37.371 20.7051 37.405 20.7094C37.4513 20.7153 37.4925 20.6428 37.5501 20.592C37.6013 20.547 37.6723 20.5128 37.7062 20.5239C37.7404 20.5351 37.7828 20.6018 37.8009 20.6671C37.8222 20.7442 37.838 20.8272 37.8734 20.8446C37.9085 20.8618 37.939 20.7662 37.9749 20.7782C38.0174 20.7925 38.0371 20.938 38.0777 20.9594C38.0777 20.9594 38.0746 20.8835 38.054 20.8142C38.0437 20.7797 38.0199 20.7283 37.9955 20.695C37.9705 20.6608 37.945 20.6452 37.945 20.6452C37.944 20.6846 37.9086 20.7206 37.8905 20.7481C37.8905 20.7481 37.8755 20.5972 37.8376 20.5431C37.8084 20.5013 37.7279 20.4458 37.7284 20.4459H37.7284ZM37.1153 20.9843C37.0629 21.0732 37.1288 21.1586 37.2348 21.1776L37.1937 21.2821L37.2539 21.4L37.3636 21.4382L37.4674 21.3972L37.5364 21.4908L37.6327 21.5125L37.7567 21.438L37.8062 21.354L37.8836 21.3493L37.9498 21.3176L37.9733 21.2351C37.9118 21.2792 37.851 21.3223 37.7264 21.2705C37.7228 21.3365 37.7067 21.3775 37.6839 21.4009C37.6566 21.4288 37.6197 21.4317 37.5832 21.4221C37.5376 21.4101 37.4987 21.3586 37.4806 21.3313C37.4356 21.3583 37.397 21.3788 37.3692 21.3697C37.3109 21.3507 37.2783 21.3161 37.2687 21.2761C37.2586 21.2337 37.2745 21.1854 37.3133 21.1433C37.0826 21.0824 37.1653 21.021 37.1153 20.9843H37.1153ZM36.9962 21.0142C36.9722 21.0482 36.8548 21.2358 36.8107 21.2671C36.7451 21.3138 36.6909 21.316 36.6909 21.316C36.724 21.4021 36.733 21.4374 36.8591 21.4541C36.5717 21.6604 36.539 21.9895 36.7598 22.2699C36.7741 22.2362 36.8234 22.1597 36.8525 22.1304C36.8494 22.128 36.8562 22.2924 36.9383 22.3762C36.9649 22.4033 36.9779 22.5545 37.0164 22.602C37.0515 22.6454 37.1007 22.6926 37.1007 22.6926C37.1007 22.6926 37.139 22.5727 37.1951 22.554C37.2516 22.5352 37.3571 22.5051 37.3919 22.4941C37.4619 22.472 37.5867 22.3227 37.5867 22.3227L37.5648 22.5052C37.943 22.3712 38.0293 22.1144 37.9325 21.7679C38.0255 21.8258 38.1276 21.75 38.1486 21.7422C38.1486 21.7422 38.1041 21.7111 38.074 21.6365C38.0537 21.5863 38.0481 21.4975 38.0449 21.456L38.0359 21.3423C38.0359 21.3423 37.9931 21.47 37.983 21.5055C37.9728 21.5411 37.9866 21.6674 37.9866 21.6674C37.9251 21.6458 37.8633 21.6256 37.8091 21.5786C37.8091 21.5786 37.8741 21.835 37.8811 21.9571C37.8849 22.0231 37.8624 22.1403 37.837 22.2013C37.81 22.266 37.6787 22.3652 37.6787 22.3652C37.6787 22.3652 37.7102 22.2011 37.7096 22.1448C37.7087 22.0648 37.677 21.8618 37.677 21.8618C37.677 21.8618 37.6317 22.0699 37.5956 22.1319C37.5545 22.2025 37.4793 22.327 37.4793 22.327C37.5004 22.1279 37.4898 22.1165 37.4642 22.0412C37.4642 22.0412 37.417 22.2888 37.3296 22.3952C37.3077 22.4218 37.2249 22.4431 37.1775 22.4677C37.125 22.4951 37.1087 22.5246 37.1087 22.5246C37.1087 22.5246 37.0592 22.3861 37.0454 22.3541C37.0149 22.2832 36.9543 22.2087 36.9336 22.1344C36.9032 22.0251 37.0497 21.7902 37.0497 21.7902C36.9955 21.7911 36.9412 21.8549 36.8827 21.9251C36.8349 21.9824 36.7804 22.043 36.754 22.0867C36.754 22.0867 36.7072 21.9159 36.708 21.8653C36.709 21.7935 36.7361 21.7216 36.773 21.66C36.8328 21.5601 37.0961 21.3549 37.0961 21.3549C37.0237 21.3744 36.9581 21.4002 36.8207 21.3602C36.8207 21.3602 36.9294 21.2327 36.9472 21.2027C37.0018 21.1108 36.9812 21.076 36.9962 21.0142L36.9962 21.0142ZM37.4867 21.1191C37.4323 21.1181 37.3637 21.1254 37.3637 21.1254L37.3711 21.1725L37.4205 21.1916L37.4875 21.2912L37.658 21.2455L37.6806 21.2065C37.6806 21.2065 37.5844 21.1351 37.5335 21.1234C37.5215 21.1207 37.5049 21.1195 37.4867 21.1191L37.4867 21.1191Z" fill="#E4C900"/>
<path d="M37.9325 21.7679C38.0255 21.8258 38.1277 21.7499 38.1487 21.7422C38.1487 21.7422 38.1042 21.7111 38.074 21.6365C38.0538 21.5863 38.0468 21.4976 38.0449 21.456C38.038 21.3016 38.0996 21.2776 38.1016 21.2893C38.1016 21.2893 38.2039 21.2542 38.2463 21.2215C38.2866 21.1906 38.3051 21.1369 38.3162 21.0874C38.3329 21.0131 38.3036 20.9041 38.3036 20.9041C38.1549 20.8955 38.1171 20.9152 38.0823 20.9607C38.0823 20.9607 38.0792 20.8848 38.0586 20.8155C38.0483 20.781 38.0245 20.7296 38.0001 20.6963C37.9751 20.6621 37.9495 20.6465 37.9495 20.6465C37.9486 20.6859 37.9132 20.7219 37.8951 20.7494C37.8783 20.6101 37.8473 20.5306 37.733 20.4472C37.6003 20.4503 37.5237 20.5148 37.4394 20.6161C37.439 20.5832 37.4285 20.5338 37.449 20.5001C37.449 20.5001 37.4191 20.4995 37.3795 20.5149C37.341 20.5298 37.2933 20.5603 37.266 20.5838C37.2113 20.6311 37.1679 20.6933 37.1679 20.6933C37.1654 20.6337 37.1451 20.5993 37.0119 20.5264C37.0119 20.5264 36.9285 20.6025 36.9025 20.674C36.8852 20.7217 36.872 20.777 36.8891 20.8247C36.9073 20.8751 36.9746 20.9598 36.9746 20.9598C36.9826 20.951 37.0216 21.0044 36.9325 21.1308C36.9086 21.1648 36.8549 21.2357 36.8108 21.2671C36.7452 21.3138 36.6909 21.316 36.6909 21.316C36.724 21.4022 36.7331 21.4374 36.8592 21.4541C36.5717 21.6604 36.5391 21.9895 36.7598 22.2699C36.7742 22.2362 36.8235 22.1597 36.8526 22.1304C36.8495 22.1279 36.8563 22.2924 36.9383 22.3761C36.965 22.4033 36.9779 22.5545 37.0164 22.6021C37.0515 22.6454 37.1008 22.6926 37.1008 22.6926C37.1008 22.6926 37.139 22.5727 37.1951 22.554C37.2516 22.5352 37.3571 22.505 37.3919 22.4941C37.462 22.472 37.5868 22.3227 37.5868 22.3227L37.5648 22.5052C37.943 22.3712 38.0293 22.1144 37.9325 21.7679L37.9325 21.7679Z" stroke="#806600" stroke-width="0.0357333"/>
<path d="M37.0119 20.6296C37.0119 20.6296 36.9513 20.7232 36.9603 20.7842C36.9674 20.8327 37.0508 20.9418 37.0508 20.9418C37.0508 20.9418 37.1021 20.7833 37.094 20.7245C37.0881 20.6813 37.0119 20.6296 37.0119 20.6296L37.0119 20.6296ZM37.2169 20.8318C37.2061 20.8322 37.1951 20.8349 37.1838 20.8404C37.1612 20.8515 37.1458 20.8549 37.1362 20.8885C37.164 20.884 37.1819 20.8739 37.2047 20.8637C37.2102 20.861 37.2186 20.861 37.2331 20.8666C37.2622 20.8779 37.3026 20.9103 37.3473 20.9232C37.4112 20.9416 37.4939 20.9198 37.5265 20.9163C37.523 20.9297 37.5167 20.9692 37.5025 20.9898C37.4953 21.0003 37.4422 21.0207 37.4177 21.0439C37.4054 21.0555 37.3934 21.0674 37.3833 21.0784C37.3732 21.0895 37.3647 21.0983 37.3596 21.1123C37.3493 21.1405 37.355 21.1704 37.355 21.1704L37.3561 21.1864L37.3714 21.1913C37.4278 21.2097 37.4376 21.2303 37.4516 21.2741L37.4538 21.281L37.4589 21.285C37.4648 21.2903 37.4692 21.2945 37.4745 21.2978C37.4798 21.3012 37.4867 21.304 37.4929 21.3047C37.5052 21.3061 37.5075 21.3036 37.519 21.3043L37.5288 21.305L37.5364 21.2983C37.5714 21.2685 37.5911 21.2563 37.6487 21.2704L37.6637 21.2742L37.6737 21.2614C37.6737 21.2614 37.6938 21.2388 37.6999 21.2094C37.703 21.1949 37.6959 21.1873 37.6932 21.1726C37.6904 21.1579 37.6865 21.1415 37.6822 21.1252C37.6737 21.0925 37.6465 21.0329 37.6459 21.0202C37.6448 20.9952 37.6579 20.9618 37.662 20.9486C37.688 20.9688 37.7465 21.0373 37.8102 21.0553C37.8549 21.0679 37.9063 21.0617 37.937 21.0675C37.9523 21.0704 37.9594 21.0749 37.9626 21.08L38.0078 21.1373C38.0174 21.1037 38.006 21.0823 37.9926 21.061C37.9793 21.0396 37.9674 21.042 37.9459 21.0379C37.9028 21.0297 37.853 21.0348 37.8235 21.0265C37.7509 21.006 37.6811 20.9283 37.6811 20.9283L37.6606 20.9104L37.6453 20.9331C37.6453 20.9331 37.6174 20.9753 37.6204 21.0423C37.6216 21.0682 37.6473 21.1188 37.6556 21.1508C37.6598 21.1669 37.6636 21.1825 37.666 21.195C37.6683 21.2074 37.6679 21.2177 37.6679 21.2174C37.6668 21.2231 37.6614 21.231 37.6567 21.2387C37.6023 21.2308 37.5421 21.2565 37.5085 21.2831C37.5025 21.2832 37.4945 21.2828 37.495 21.2829C37.4942 21.2824 37.4921 21.2804 37.4904 21.279C37.4759 21.238 37.43 21.1752 37.379 21.153C37.379 21.1439 37.3787 21.1344 37.3806 21.129C37.3805 21.1293 37.386 21.1204 37.3946 21.1111C37.4032 21.1017 37.4147 21.0905 37.4267 21.079C37.4508 21.0562 37.5011 21.0338 37.5158 21.0124C37.5537 20.9572 37.5522 20.9066 37.5522 20.9066L37.5507 20.879L37.5239 20.8834C37.5239 20.8834 37.4309 20.9131 37.3584 20.8921C37.329 20.8836 37.2893 20.8531 37.2484 20.8373C37.2382 20.8333 37.2277 20.8314 37.2169 20.8318L37.2169 20.8318ZM37.1186 20.9617C37.0789 21.0152 37.0727 21.0725 37.0957 21.1168C37.1149 21.1537 37.1536 21.1771 37.1988 21.1921C37.1962 21.1993 37.1955 21.2005 37.1923 21.2111C37.1855 21.2341 37.1783 21.2611 37.1811 21.2871C37.1867 21.3405 37.2165 21.3834 37.2548 21.4161C37.2883 21.4447 37.3334 21.4567 37.3752 21.4546C37.401 21.4533 37.4238 21.4435 37.4421 21.434C37.4486 21.4307 37.4493 21.4298 37.4546 21.4267C37.4648 21.4475 37.4801 21.4729 37.5088 21.4927C37.5432 21.5166 37.5873 21.53 37.6308 21.5234C37.6807 21.5159 37.7286 21.4951 37.7615 21.4528C37.7776 21.4321 37.7858 21.4055 37.7921 21.3823C37.7944 21.374 37.7939 21.3736 37.7954 21.367C37.8439 21.3815 37.8898 21.3772 37.9244 21.3533C37.9656 21.3248 37.9879 21.2728 37.9865 21.2109C37.951 21.2289 37.9826 21.2818 37.9048 21.33C37.8795 21.3475 37.8428 21.3514 37.7953 21.3301L37.7591 21.3004L37.7615 21.3518C37.7615 21.3518 37.7583 21.3692 37.7527 21.3899C37.747 21.4107 37.7373 21.4349 37.7306 21.4436C37.7067 21.4743 37.6654 21.4897 37.6237 21.496C37.5957 21.5003 37.5614 21.4905 37.5364 21.4732C37.5124 21.4566 37.4906 21.4109 37.4895 21.4064L37.4777 21.3567L37.4526 21.3845C37.4465 21.3913 37.4292 21.3985 37.4143 21.4062C37.3994 21.4139 37.3817 21.4202 37.3673 21.4209C37.3369 21.4225 37.3021 21.4125 37.2806 21.3941C37.2485 21.3667 37.2186 21.3209 37.2145 21.2822C37.2133 21.2713 37.2179 21.2456 37.224 21.2249C37.2302 21.2043 37.2423 21.1878 37.2423 21.1878L37.2629 21.1613L37.2214 21.1639C37.1737 21.1537 37.1399 21.13 37.1257 21.1027C37.0742 21.0458 37.1207 21.0045 37.1186 20.9617L37.1186 20.9617ZM38.2409 20.9804C38.2409 20.9804 38.1489 20.9841 38.1211 21.0177C38.0832 21.0634 38.0432 21.225 38.0432 21.225C38.0432 21.225 38.1716 21.1763 38.2032 21.139C38.243 21.0919 38.2409 20.9804 38.2409 20.9804Z" fill="#806600"/>
<path d="M37.3117 20.9089C37.3005 20.9089 37.2896 20.9124 37.2807 20.9191C37.2718 20.9258 37.2653 20.9352 37.2622 20.946C37.2604 20.9524 37.2598 20.9592 37.2606 20.9658C37.2614 20.9725 37.2634 20.9789 37.2667 20.9848C37.27 20.9906 37.2743 20.9958 37.2796 20.9999C37.2848 21.0041 37.2909 21.0072 37.2973 21.009C37.3103 21.0127 37.3243 21.0111 37.3361 21.0046C37.3479 20.998 37.3566 20.987 37.3604 20.974C37.3641 20.961 37.3625 20.947 37.3559 20.9352C37.3493 20.9234 37.3383 20.9146 37.3253 20.9109C37.3209 20.9096 37.3163 20.909 37.3117 20.9089L37.3117 20.9089ZM37.8207 21.0547C37.8098 21.0549 37.7992 21.0586 37.7906 21.0653C37.782 21.0719 37.7757 21.0812 37.7727 21.0917C37.7709 21.0981 37.7703 21.1049 37.7711 21.1115C37.7718 21.1182 37.7739 21.1246 37.7772 21.1305C37.7804 21.1363 37.7848 21.1415 37.7901 21.1457C37.7953 21.1498 37.8014 21.1529 37.8078 21.1548C37.8142 21.1566 37.821 21.1572 37.8276 21.1564C37.8343 21.1556 37.8407 21.1535 37.8466 21.1503C37.8525 21.147 37.8576 21.1426 37.8618 21.1374C37.8659 21.1321 37.869 21.1261 37.8709 21.1197C37.8746 21.1067 37.873 21.0927 37.8664 21.0809C37.8598 21.0691 37.8488 21.0603 37.8358 21.0566C37.8309 21.0552 37.8258 21.0546 37.8207 21.0547L37.8207 21.0547Z" fill="#2B2200"/>
<path d="M35.9223 22.6321C35.8849 22.6494 35.8304 22.6081 35.7188 22.7258C35.8109 22.722 35.8412 22.7395 35.9003 22.8132C35.9396 22.8075 35.9609 22.787 35.969 22.76C35.9854 22.7056 35.9691 22.6585 35.9223 22.6321V22.6321ZM38.5435 22.7828C38.4982 22.8003 38.432 22.7592 38.2973 22.8773C38.4089 22.8731 38.4457 22.8906 38.5175 22.9641C38.565 22.9581 38.5907 22.9376 38.6004 22.9105C38.6201 22.8561 38.6002 22.809 38.5435 22.7828ZM35.7292 22.9576C35.7005 22.9915 35.6369 22.9796 35.5729 23.1411C35.6563 23.0935 35.6898 23.0951 35.7682 23.1346C35.8024 23.1104 35.8153 23.0815 35.8139 23.0528C35.8112 22.995 35.7807 22.9595 35.7292 22.9576V22.9576ZM38.5986 23.2081C38.566 23.244 38.4885 23.2369 38.4209 23.4028C38.5187 23.3491 38.5594 23.3483 38.6565 23.3818C38.6964 23.3552 38.7102 23.3254 38.7068 23.2968C38.7 23.2393 38.6611 23.2062 38.5986 23.2081L38.5986 23.2081ZM35.9318 23.3442C35.9165 23.3434 35.9 23.3482 35.8828 23.3588C35.8711 23.4052 35.8106 23.4319 35.8186 23.6108C35.8728 23.5205 35.9029 23.5023 35.9872 23.4913C36.0076 23.4502 36.0074 23.4173 35.9948 23.3929C35.979 23.3623 35.9571 23.3455 35.9318 23.3442L35.9318 23.3442ZM41.6329 23.3633C41.6221 23.3639 41.6106 23.3669 41.5985 23.3724C41.5827 23.417 41.5202 23.4355 41.512 23.6144C41.574 23.5318 41.6056 23.5177 41.6904 23.5179C41.7144 23.4797 41.7172 23.447 41.7068 23.4211C41.6913 23.382 41.6652 23.3617 41.6329 23.3633L41.6329 23.3633ZM38.9906 23.4843C38.9722 23.4854 38.9528 23.4923 38.9332 23.505C38.924 23.5527 38.854 23.5869 38.8825 23.7638C38.9382 23.667 38.9725 23.6452 39.073 23.6234C39.0932 23.58 39.0895 23.5472 39.0717 23.5246C39.0494 23.4961 39.0213 23.4823 38.9906 23.4843L38.9906 23.4843ZM42.3 23.4965C42.2691 23.4936 42.2419 23.5131 42.2231 23.554C42.2347 23.6004 42.1968 23.6633 42.2857 23.8065C42.2891 23.6949 42.3058 23.6596 42.3708 23.5935C42.3688 23.5456 42.3535 23.5185 42.3318 23.5067C42.3209 23.5008 42.3102 23.4974 42.3 23.4964V23.4965ZM41.9351 23.5484C41.9154 23.5502 41.8959 23.5622 41.8779 23.5846C41.8791 23.633 41.829 23.6817 41.8839 23.8481C41.9113 23.7415 41.935 23.7126 42.0119 23.6693C42.0204 23.6225 42.0115 23.5915 41.9931 23.5733C41.9745 23.555 41.9548 23.5466 41.9351 23.5484L41.9351 23.5484Z" fill="#377BC8" stroke="#2C5AA0" stroke-width="0.0357333"/>
<mask id="mask1_1_32508" style="mask-type:alpha" maskUnits="userSpaceOnUse" x="3" y="6" width="24" height="18">
<rect x="3" y="6" width="24" height="18" fill="#C4C4C4"/>
</mask>
<g mask="url(#mask1_1_32508)">
<path d="M3 6L27 24L3 6ZM27 6L3 24L27 6Z" fill="black"/>
<path d="M27 6L3 24M3 6L27 24L3 6Z" stroke="white" stroke-width="2.4"/>
<path d="M3 6L27 24L3 6ZM27 6L3 24L27 6Z" fill="black"/>
<path d="M27 6L3 24M3 6L27 24L3 6Z" stroke="#EE5757" stroke-width="1.6"/>
<path d="M15 6V27V6ZM3 15H31H3Z" fill="black"/>
<path d="M3 15H31M15 6V27V6Z" stroke="white" stroke-width="4"/>
<path d="M15 6V27V6ZM3 15H31H3Z" fill="black"/>
<path d="M3 15H31M15 6V27V6Z" stroke="#EE5757" stroke-width="2.4"/>
</g>
</g>
</svg>
