<svg width="54" height="48" viewBox="0 0 54 48" fill="none" xmlns="http://www.w3.org/2000/svg">
<mask id="mask0_1_40342" style="mask-type:alpha" maskUnits="userSpaceOnUse" x="3" y="6" width="48" height="36">
<path d="M3.56934 15.1356C4.16681 10.4125 8.0415 7.00193 12.7861 6.60887C16.6412 6.28949 21.6196 6 27 6C32.3804 6 37.3588 6.28949 41.2139 6.60887C45.9585 7.00193 49.8332 10.4125 50.4307 15.1356C50.752 17.6759 51 20.704 51 24C51 27.296 50.752 30.3241 50.4307 32.8644C49.8332 37.5875 45.9585 40.9981 41.2139 41.3911C37.3588 41.7105 32.3804 42 27 42C21.6196 42 16.6412 41.7105 12.7861 41.3911C8.0415 40.9981 4.16681 37.5875 3.56934 32.8644C3.248 30.3241 3 27.296 3 24C3 20.704 3.248 17.6759 3.56934 15.1356Z" fill="#00D0BF"/>
</mask>
<g mask="url(#mask0_1_40342)">
<rect x="3" width="48" height="49" fill="#F5F5F5"/>
<path d="M27.6151 36.9999C27.6069 36.9965 27.5996 36.9913 27.5936 36.9848L27.5858 36.9775C27.5513 36.9453 27.5186 36.9113 27.4877 36.8756C27.4051 36.7818 27.2943 36.6444 27.1969 36.5231C27.0037 36.2823 26.8441 36.0748 26.814 36.0358L26.7648 35.9718L26.2832 35.8233L25.9315 35.6593L26.1194 35.4481L26.7648 35.7244L27.2465 35.8233L28.1372 36.4784C28.1354 36.4798 28.0069 36.5867 27.88 36.7022C27.8234 36.7536 27.752 36.82 27.7016 36.8747C27.6808 36.897 27.6615 36.9206 27.6439 36.9454C27.6333 36.963 27.6237 36.9812 27.6151 36.9999ZM24.3073 36.0066C23.8728 36.0026 23.4471 35.8835 23.0736 35.6613C23.119 35.5856 23.1794 35.5196 23.2516 35.4686C23.372 35.3802 23.5891 35.2746 23.94 35.2733H23.9472C24.3627 35.2733 24.8712 35.4145 25.4586 35.6932C25.1104 35.9001 24.7124 36.0084 24.3073 36.0066ZM22.486 35.6029C22.4117 35.6043 22.3403 35.5743 22.2894 35.5202C22.2455 35.4691 22.2152 35.4076 22.2014 35.3417C22.1815 35.256 22.1742 35.1679 22.1796 35.0802C22.2102 35.0669 22.2431 35.0594 22.2765 35.0582H22.2834C22.4391 35.0582 22.5619 35.1933 22.6144 35.3272C22.6431 35.3864 22.6492 35.454 22.6314 35.5173C22.605 35.5727 22.5472 35.6069 22.486 35.6029ZM25.6908 35.2314C24.6143 35.0777 24.1581 34.6885 23.9648 34.3891C23.8425 34.2074 23.7849 33.9899 23.8015 33.7714L23.8023 33.7706C23.8564 33.7582 23.9117 33.752 23.9671 33.7524C24.2535 33.7524 24.9857 33.897 25.6908 35.2314ZM23.4844 35.0181C23.0245 35.0181 22.6744 34.9387 22.4437 34.7824C22.3456 34.7196 22.2666 34.6311 22.2151 34.5266C22.1964 34.487 22.184 34.4447 22.1783 34.4012C22.3315 34.339 22.4946 34.3044 22.6598 34.2989C22.6836 34.2977 22.7075 34.2971 22.7326 34.297C23.0881 34.297 23.6286 34.413 24.199 34.9655C23.962 34.9982 23.7236 35.016 23.4844 35.0181ZM21.2575 34.9325C20.7726 34.9325 20.1064 34.7844 19.6909 34.369C20.0068 34.2944 20.33 34.2511 20.6543 34.2406C20.6846 34.2399 20.7151 34.2395 20.7458 34.2395C21.2005 34.2395 21.5485 34.3276 21.7803 34.5015C21.8451 34.5403 21.8932 34.6019 21.9154 34.674C21.9205 34.7273 21.8952 34.7789 21.8499 34.8074C21.7455 34.8862 21.5589 34.9282 21.2952 34.9324L21.258 34.9337L21.2575 34.9325ZM19.6861 34.1263C19.6267 34.1265 19.5702 34.0999 19.5324 34.054C19.4974 34.008 19.4739 33.9544 19.4637 33.8976C19.4479 33.8227 19.4418 33.7461 19.4457 33.6697V33.6686C19.4694 33.6577 19.4951 33.6519 19.5211 33.6516C19.582 33.6538 19.6395 33.6795 19.6817 33.7234C19.7286 33.7694 19.7644 33.8255 19.7864 33.8874C19.8083 33.9391 19.8123 33.9966 19.7975 34.0508C19.7794 34.0965 19.7353 34.1268 19.6861 34.1263ZM23.3157 34.0445C23.2415 34.0459 23.1701 34.0159 23.1192 33.9618C23.0752 33.9107 23.0449 33.8493 23.031 33.7834C23.0111 33.6977 23.0038 33.6096 23.0092 33.5218C23.0398 33.5086 23.0727 33.5011 23.1061 33.4999H23.113C23.2687 33.4999 23.3915 33.635 23.444 33.7688C23.4727 33.8281 23.4788 33.8957 23.461 33.959C23.4347 34.0144 23.3769 34.0486 23.3157 34.0445ZM21.5478 33.9713C20.5719 33.937 20.0657 33.6596 19.8124 33.4329C19.7041 33.338 19.6149 33.2233 19.5495 33.0951C19.5251 33.047 19.5062 32.9962 19.4932 32.9439L19.4945 32.9433C19.5726 32.9196 19.6538 32.9075 19.7354 32.9074H19.7582C20.0873 32.9074 20.7577 33.0458 21.5478 33.9713ZM22.6076 33.8727C21.8224 33.7532 21.3776 33.4161 21.1427 33.1543C20.9977 32.9986 20.8875 32.8139 20.8194 32.6124C20.8988 32.5943 20.9799 32.5845 21.0613 32.5833C21.0718 32.5833 21.0827 32.5829 21.0938 32.5829C21.1049 32.5829 21.1164 32.5829 21.1281 32.5833C21.523 32.592 22.2404 32.7712 22.6076 33.8727ZM18.5767 33.4957C18.3268 33.4965 18.0777 33.4667 17.8351 33.4069C17.424 33.3041 17.2476 33.1471 17.1721 33.0335C17.1395 32.9864 17.1178 32.9328 17.1082 32.8764C17.1047 32.8543 17.1041 32.832 17.1062 32.8098L17.1082 32.8091C17.3205 32.7565 17.5383 32.7288 17.7571 32.7268C17.7719 32.7268 17.7868 32.7264 17.802 32.7264C17.9803 32.7261 18.1582 32.7433 18.3331 32.7779C18.7298 32.8608 19.0833 33.0841 19.3286 33.4067C19.0826 33.4668 18.8299 33.4973 18.5767 33.4957ZM20.3993 32.8334C20.3253 32.8354 20.2539 32.8061 20.2026 32.7528C20.1585 32.701 20.1282 32.639 20.1145 32.5724C20.0946 32.4875 20.0873 32.4 20.0928 32.3129C20.1234 32.2996 20.1563 32.2922 20.1896 32.291H20.1966C20.352 32.291 20.4749 32.4261 20.5277 32.56C20.5557 32.6187 20.5611 32.6857 20.5427 32.7481C20.5175 32.8038 20.4602 32.8376 20.3993 32.8334ZM19.0288 32.6455C18.7679 32.5716 18.5183 32.4626 18.2867 32.3215C17.9429 32.1098 17.5223 31.7354 17.4711 31.1538C17.4972 31.1482 17.5245 31.145 17.5512 31.1442C17.5574 31.1442 17.5646 31.1438 17.5719 31.1438C17.6746 31.1438 17.8848 31.1727 18.1391 31.3661C18.4628 31.6129 18.7617 32.0433 19.029 32.6467L19.0288 32.6455ZM19.9237 32.6126C19.7107 32.5159 19.5129 32.3888 19.3365 32.2353C18.8804 31.8428 18.5249 31.3467 18.2999 30.7886C18.356 30.7622 18.4168 30.7472 18.4788 30.7441C18.485 30.7436 18.4912 30.7435 18.4978 30.7435C18.5071 30.7435 18.5167 30.7435 18.5265 30.7441C18.676 30.7483 18.9037 30.8104 19.1562 31.0828C19.4462 31.3958 19.705 31.9101 19.9251 32.6115L19.9258 32.6135L19.9237 32.6126ZM17.605 32.545C17.306 32.545 17.2037 32.3829 17.1736 32.3131C17.1436 32.2404 17.1318 32.1615 17.1392 32.0832V32.082C17.1879 32.0698 17.2379 32.0633 17.2881 32.0625H17.2983C17.4938 32.0577 17.6799 32.1461 17.7996 32.3007C17.8154 32.3242 17.8639 32.4057 17.8238 32.4694C17.7915 32.5197 17.7185 32.545 17.605 32.545ZM16.9427 31.7097C16.7112 31.7102 16.48 31.6904 16.2518 31.6506C15.9855 31.6022 15.8346 31.3758 15.7549 31.1944C15.7013 31.0705 15.6638 30.9401 15.6433 30.8066C16.4669 30.8308 16.8567 31.0715 17.038 31.2691C17.1503 31.3859 17.2203 31.5371 17.2368 31.6983C17.2368 31.6983 17.1194 31.7097 16.9427 31.7097ZM17.8003 30.8526C17.8003 30.8526 17.7052 30.7348 17.6123 30.5904C17.5147 30.4388 17.4245 30.2804 17.4245 30.1512C17.4245 30.0261 17.3951 29.7626 17.3775 29.6167C17.3553 29.4316 17.3329 29.2731 17.331 29.2597C17.3519 29.2673 17.847 29.4528 17.847 29.9164C17.847 30.3801 17.8008 30.848 17.8003 30.8526ZM17.1598 30.8086C17.1545 30.8086 17.1494 30.8081 17.1443 30.8073C16.9981 30.7829 16.7412 30.6713 16.4576 30.5085C16.1424 30.3278 15.8865 30.1342 15.737 29.9634C15.6006 29.8076 15.52 29.563 15.4964 29.2362C15.486 29.0883 15.4878 28.9397 15.5018 28.792C15.5281 28.7835 15.5557 28.7793 15.5833 28.7796C15.6927 28.7814 15.8095 28.8307 15.9671 28.9392C16.1108 29.0415 16.2454 29.1559 16.3696 29.2812C16.5272 29.4378 16.6762 29.6028 16.8161 29.7755L16.8181 29.778C16.8345 29.8074 16.9754 30.0614 17.0852 30.3087C17.14 30.4225 17.1821 30.542 17.2107 30.665C17.2215 30.701 17.2215 30.7394 17.2107 30.7754C17.2061 30.7871 17.1976 30.7969 17.1868 30.8032C17.1782 30.8069 17.1691 30.8087 17.1598 30.8086Z" fill="#1C6864"/>
<path d="M25.6762 36.9999C25.6844 36.9965 25.6917 36.9913 25.6977 36.9848L25.7055 36.9775C25.7399 36.9453 25.7727 36.9113 25.8036 36.8756C25.8862 36.7818 25.997 36.6444 26.0944 36.5231C26.2876 36.2823 26.4472 36.0748 26.4773 36.0358L26.5264 35.9718L27.0081 35.8233L27.3598 35.6593L27.1719 35.4481L26.5264 35.7244L26.0448 35.8233L25.1541 36.4784C25.1559 36.4798 25.2843 36.5867 25.4113 36.7022C25.4679 36.7536 25.5393 36.82 25.5897 36.8747C25.6105 36.897 25.6297 36.9206 25.6473 36.9454C25.658 36.963 25.6676 36.9812 25.6762 36.9999ZM28.9839 36.0066C29.4185 36.0026 29.8442 35.8835 30.2177 35.6613C30.1722 35.5856 30.1119 35.5196 30.0396 35.4686C29.9193 35.3802 29.7022 35.2746 29.3513 35.2733H29.344C28.9286 35.2733 28.4201 35.4145 27.8326 35.6932C28.1809 35.9001 28.5789 36.0084 28.9839 36.0066ZM30.8052 35.6029C30.8795 35.6043 30.9509 35.5743 31.0018 35.5202C31.0458 35.4691 31.0761 35.4076 31.0899 35.3417C31.1097 35.256 31.1171 35.1679 31.1116 35.0802C31.081 35.0669 31.0481 35.0594 31.0148 35.0582H31.0078C30.8521 35.0582 30.7294 35.1933 30.6768 35.3272C30.6482 35.3864 30.6421 35.454 30.6598 35.5173C30.6862 35.5727 30.744 35.6069 30.8052 35.6029ZM27.6004 35.2314C28.6769 35.0777 29.1332 34.6885 29.3264 34.3891C29.4488 34.2074 29.5063 33.9899 29.4898 33.7714L29.489 33.7706C29.4349 33.7582 29.3796 33.752 29.3241 33.7524C29.0378 33.7524 28.3055 33.897 27.6004 35.2314ZM29.8068 35.0181C30.2667 35.0181 30.6168 34.9387 30.8475 34.7824C30.9456 34.7196 31.0246 34.6311 31.0761 34.5266C31.0949 34.487 31.1073 34.4447 31.113 34.4012C30.9597 34.339 30.7967 34.3044 30.6314 34.2989C30.6077 34.2977 30.5837 34.2971 30.5586 34.297C30.2032 34.297 29.6627 34.413 29.0923 34.9655C29.3292 34.9982 29.5677 35.016 29.8068 35.0181ZM32.0337 34.9325C32.5187 34.9325 33.1849 34.7844 33.6003 34.369C33.2845 34.2944 32.9612 34.2511 32.6369 34.2406C32.6066 34.2399 32.5761 34.2395 32.5454 34.2395C32.0908 34.2395 31.7428 34.3276 31.5109 34.5015C31.4462 34.5403 31.3981 34.6019 31.3759 34.674C31.3707 34.7273 31.3961 34.7789 31.4414 34.8074C31.5457 34.8862 31.7323 34.9282 31.9961 34.9324L32.0333 34.9337L32.0337 34.9325ZM33.6051 34.1263C33.6646 34.1265 33.721 34.0999 33.7588 34.054C33.7938 34.008 33.8174 33.9544 33.8276 33.8976C33.8434 33.8227 33.8494 33.7461 33.8456 33.6697V33.6686C33.8219 33.6577 33.7962 33.6519 33.7701 33.6516C33.7093 33.6538 33.6517 33.6795 33.6096 33.7234C33.5626 33.7694 33.5269 33.8255 33.5049 33.8874C33.4829 33.9391 33.479 33.9966 33.4937 34.0508C33.5118 34.0965 33.5559 34.1268 33.6051 34.1263ZM29.9755 34.0445C30.0498 34.0459 30.1212 34.0159 30.1721 33.9618C30.2161 33.9107 30.2464 33.8493 30.2603 33.7834C30.2801 33.6977 30.2875 33.6096 30.282 33.5218C30.2514 33.5086 30.2185 33.5011 30.1852 33.4999H30.1782C30.0225 33.4999 29.8998 33.635 29.8472 33.7688C29.8186 33.8281 29.8125 33.8957 29.8302 33.959C29.8566 34.0144 29.9143 34.0486 29.9755 34.0445ZM31.7435 33.9713C32.7194 33.937 33.2256 33.6596 33.4789 33.4329C33.5871 33.338 33.6764 33.2233 33.7418 33.0951C33.7662 33.047 33.785 32.9962 33.7981 32.9439L33.7968 32.9433C33.7187 32.9196 33.6375 32.9075 33.5559 32.9074H33.5331C33.204 32.9074 32.5336 33.0458 31.7435 33.9713ZM30.6837 33.8727C31.4688 33.7532 31.9137 33.4161 32.1486 33.1543C32.2935 32.9986 32.4037 32.8139 32.4718 32.6124C32.3925 32.5943 32.3114 32.5845 32.23 32.5833C32.2195 32.5833 32.2086 32.5829 32.1975 32.5829C32.1864 32.5829 32.1749 32.5829 32.1632 32.5833C31.7683 32.592 31.0509 32.7712 30.6837 33.8727ZM34.7145 33.4957C34.9644 33.4965 35.2135 33.4667 35.4562 33.4069C35.8673 33.3041 36.0436 33.1471 36.1192 33.0335C36.1517 32.9864 36.1735 32.9328 36.1831 32.8764C36.1865 32.8543 36.1872 32.832 36.185 32.8098L36.1831 32.8091C35.9708 32.7565 35.753 32.7288 35.5342 32.7268C35.5194 32.7268 35.5044 32.7264 35.4892 32.7264C35.311 32.7261 35.133 32.7433 34.9582 32.7779C34.5615 32.8608 34.208 33.0841 33.9627 33.4067C34.2086 33.4668 34.4613 33.4973 34.7145 33.4957ZM32.892 32.8334C32.966 32.8354 33.0374 32.8061 33.0887 32.7528C33.1328 32.701 33.1631 32.639 33.1767 32.5724C33.1966 32.4875 33.204 32.4 33.1985 32.3129C33.1679 32.2996 33.135 32.2922 33.1016 32.291H33.0947C32.9393 32.291 32.8164 32.4261 32.7636 32.56C32.7355 32.6187 32.7302 32.6857 32.7485 32.7481C32.7737 32.8038 32.831 32.8376 32.892 32.8334ZM34.2624 32.6455C34.5234 32.5716 34.773 32.4626 35.0046 32.3215C35.3483 32.1098 35.7689 31.7354 35.8202 31.1538C35.7941 31.1482 35.7667 31.145 35.7401 31.1442C35.7339 31.1442 35.7266 31.1438 35.7194 31.1438C35.6167 31.1438 35.4065 31.1727 35.1521 31.3661C34.8284 31.6129 34.5295 32.0433 34.2623 32.6467L34.2624 32.6455ZM33.3676 32.6126C33.5806 32.5159 33.7783 32.3888 33.9548 32.2353C34.4109 31.8428 34.7664 31.3467 34.9914 30.7886C34.9352 30.7622 34.8744 30.7472 34.8124 30.7441C34.8062 30.7436 34.8 30.7435 34.7935 30.7435C34.7842 30.7435 34.7745 30.7435 34.7647 30.7441C34.6152 30.7483 34.3875 30.8104 34.1351 31.0828C33.8451 31.3958 33.5863 31.9101 33.3661 32.6115L33.3655 32.6135L33.3676 32.6126ZM35.6863 32.545C35.9852 32.545 36.0875 32.3829 36.1177 32.3131C36.1477 32.2404 36.1595 32.1615 36.152 32.0832V32.082C36.1034 32.0698 36.0534 32.0633 36.0032 32.0625H35.993C35.7975 32.0577 35.6114 32.1461 35.4917 32.3007C35.4758 32.3242 35.4274 32.4057 35.4675 32.4694C35.4997 32.5197 35.5728 32.545 35.6863 32.545ZM36.3486 31.7097C36.5801 31.7102 36.8113 31.6904 37.0394 31.6506C37.3057 31.6022 37.4567 31.3758 37.5363 31.1944C37.5899 31.0705 37.6274 30.9401 37.648 30.8066C36.8243 30.8308 36.4346 31.0715 36.2533 31.2691C36.141 31.3859 36.071 31.5371 36.0545 31.6983C36.0545 31.6983 36.1718 31.7097 36.3486 31.7097ZM35.4909 30.8526C35.4909 30.8526 35.5861 30.7348 35.679 30.5904C35.7765 30.4388 35.8668 30.2804 35.8668 30.1512C35.8668 30.0261 35.8962 29.7626 35.9137 29.6167C35.9359 29.4316 35.9584 29.2731 35.9602 29.2597C35.9393 29.2673 35.4442 29.4528 35.4442 29.9164C35.4442 30.3801 35.4905 30.848 35.4909 30.8526ZM36.1315 30.8086C36.1367 30.8086 36.1419 30.8081 36.147 30.8073C36.2931 30.7829 36.5501 30.6713 36.8337 30.5085C37.1488 30.3278 37.4047 30.1342 37.5543 29.9634C37.6907 29.8076 37.7713 29.563 37.7949 29.2362C37.8053 29.0883 37.8034 28.9397 37.7895 28.792C37.7631 28.7835 37.7356 28.7793 37.7079 28.7796C37.5985 28.7814 37.4818 28.8307 37.3241 28.9392C37.1804 29.0415 37.0458 29.1559 36.9217 29.2812C36.764 29.4378 36.615 29.6028 36.4752 29.7755L36.4732 29.778C36.4568 29.8074 36.3159 30.0614 36.2061 30.3087C36.1512 30.4225 36.1091 30.542 36.0806 30.665C36.0698 30.701 36.0698 30.7394 36.0806 30.7754C36.0852 30.7871 36.0936 30.7969 36.1045 30.8032C36.1131 30.8069 36.1221 30.8087 36.1315 30.8086Z" fill="#1C6864"/>
<path d="M43.9884 11.412L43.8423 11.4701L43.7851 11.4929L43.6081 11.4832L43.4423 11.5628L43.1484 11.7636L43.1354 11.7729L43.0259 11.8015L42.9241 11.7576L42.8663 11.7839L42.8464 11.903L42.7914 11.9885L42.7237 12.0361L42.4891 12.0601L42.2913 12.1621L42.0339 12.0932L41.9144 12.14L41.6601 12.3689L41.5302 12.4305L41.4848 12.4278L41.3125 12.419L41.2398 12.4428L41.1311 12.5478L40.9256 12.5638L40.8615 12.6081L40.7612 12.8103L40.6525 12.9224L40.5904 12.9355L40.523 12.9107L40.4724 12.9197L40.4494 13.049L40.4003 13.1032L40.2626 13.1506L40.1527 13.2422L40.0562 13.2918L39.927 13.2886H39.8973L39.7685 13.3596L39.5267 13.3809L39.426 13.4769L39.4038 13.4974L39.3568 13.5258L39.2799 13.5717L39.2613 13.5831L39.1682 13.5666L39.0597 13.6096L39.0158 13.542L38.9407 13.5871L38.8415 13.5914L38.7175 13.5363L38.6231 13.4942L38.5541 13.5042L38.5301 13.6245L38.5277 13.6373L38.4551 13.7338L38.3197 13.8159L38.3011 13.8399L38.147 14.0388L37.8541 14.3468L37.6065 14.4725L37.3499 14.5506L37.17 14.6982L36.6987 14.9318L35.9549 15.3022L35.8028 15.3509L35.5845 15.3858L35.1952 15.5292L34.8517 15.6328L34.8326 15.6386L34.7644 15.6592L34.28 15.8057L34.0546 15.7819L33.9211 15.8304L33.5735 15.7918L33.3317 15.7966L33.1787 15.8284L32.8911 15.9663L32.4058 16.1996L32.2454 16.3464L31.9957 16.4766L31.7033 16.5692L31.704 16.4463L31.7022 16.4411L31.6008 16.4732L31.5276 16.4963L31.2904 16.5329H31.1584L31.0765 16.5091L31.0641 16.5134L30.5793 16.6727L30.0386 16.7249L29.768 16.8117L29.5658 16.8085L29.4395 16.8461L29.1914 16.8764L29.1029 16.8528L29.0829 16.8473L28.3542 16.8789L28.0211 16.8413L27.8621 16.8774L27.5955 16.7878L27.2067 16.7427L27.1159 16.7155L26.9112 16.6548L26.8187 16.7081L26.7495 16.7155L26.5842 16.6555L26.5246 16.654L26.3882 16.7036L26.3096 16.6835L26.2366 16.6253L26.0654 16.5998L25.9611 16.5121L25.3782 16.5894L25.22 16.5429L24.6895 16.3883L24.6051 16.3926L24.4997 16.4714L24.3417 16.529L24.2045 16.5647L24.0178 16.5709L23.8007 16.514L23.5771 16.4056L23.4944 16.3859L23.31 16.4045L23.2536 16.4096L22.9146 16.2278L22.4779 15.9549L22.1816 15.8123L22.0704 15.7943L22.0554 15.8472L22.1106 16.0208L22.1292 16.1928L22.1236 16.3518L22.1206 16.4502L22.1482 16.5385L22.2552 16.6571L22.2998 16.7762L22.3324 17.1038L22.332 17.4364L22.28 17.9666L22.2624 18.0472L22.2004 18.322L22.1437 18.5743L21.9238 19.2461L21.8634 19.3294L21.7152 19.4305L21.3791 19.6592L21.1317 19.8018L21.0534 19.8343L20.8525 19.8495L20.7274 19.8433L20.5715 19.7589L20.4186 19.7195L20.2181 19.5754L19.9949 19.5292L19.7505 19.388L19.6869 19.3115L19.5538 19.2991L19.3692 19.2437V19.2434L19.3015 19.2231L19.2546 19.2095L19.019 19.2033L18.7995 19.102L18.6839 19.074L18.5259 19.066L18.3606 19.1429L18.2768 19.1819L18.171 19.1398L18.0944 19.1446L18.0076 19.2758L17.9969 19.2958L17.9371 19.3274L17.8627 19.3264L17.8045 19.3248L17.7415 19.3524L17.6566 19.3891L17.5817 19.4218L17.5451 19.4376L17.5445 19.437L17.522 19.4415L17.482 19.4485L17.4324 19.458L17.345 19.4069L17.2985 19.3795L17.2205 19.3636L17.1785 19.3939L17.1703 19.5365L17.1319 19.622L17.0103 19.7295L16.8867 19.8384L16.8006 19.9653L16.5727 20.4856L16.43 20.6955L16.3857 20.7444L16.2357 20.9094L16.1033 21.0121L15.7981 21.2487L15.5091 21.3567L15.2603 21.4075L15.1393 21.408L14.9099 21.3775L14.7038 21.3143L14.4774 21.1727L14.2294 20.9732L13.8701 20.6183L13.8192 20.5877L13.8086 20.5806L13.6955 20.5083L13.6115 20.5104L13.5786 20.5646L13.5606 20.643L13.5454 20.7124L13.5043 21.1073L13.5073 21.1301L13.529 21.2927L13.8018 21.6741L13.886 21.8767L13.8999 21.8998L13.9562 21.9944L13.999 22.0665L14.0033 22.0738L14.0963 22.3522L14.0308 22.5093L14.0639 22.6147L13.981 22.679L13.9658 22.7699L14.2108 23.077L14.2643 23.2125L14.2046 23.4004L14.1093 23.504L14.0827 23.5323L14.0961 23.6117L14.2089 23.7131L14.4004 23.8836L14.5026 24.137L14.5803 24.2052L14.6705 24.186L14.7208 24.2243L14.7969 24.223L14.8718 24.2979L14.9203 24.3214L14.997 24.3596L15.0576 24.4385L15.071 24.681L15.1839 24.9824L15.1857 25.1458L15.1863 25.169L15.2566 25.2898L15.2787 25.3852L15.2415 25.6375L15.3311 25.7185L15.4283 25.6987L15.491 25.7086L15.5919 25.7926L15.714 25.9786L15.8334 25.9611L15.9092 25.9976L16.2751 26.3284L16.3581 26.3703L16.3627 26.3729L16.4224 26.4029L16.4968 26.4778L16.6119 26.4014L16.6247 26.4001L16.7498 26.3891L16.8048 26.4263L16.9102 26.4975L17.0487 26.4957L17.3491 26.5878L17.4805 26.6215L17.7448 26.7857L17.8571 26.8551L17.9235 26.9092L18.0118 26.9811L18.1883 27.0571L18.3396 27.0933L18.4216 27.1127L18.4836 27.1366L18.4851 27.1327H18.486L18.4845 27.1366L18.8122 27.2621L18.9897 27.3035L19.1539 27.364L19.2734 27.4074L19.3611 27.4088L19.4851 27.3045L19.6052 27.2975L19.705 27.3223L19.8023 27.306L19.9564 27.2111L19.9865 27.1665L20.0958 27.1145L20.4644 27.0687L20.5721 27.1037L20.8487 26.9834L21.034 27.0349L21.198 26.9767L21.5564 27.0564L21.6516 27.1234L21.7581 27.2453L21.7711 27.2458L21.8897 27.2481L21.8401 27.3307L21.9965 27.4948L22.1379 27.7084L22.1474 27.7366L22.2502 28.0383L22.3266 28.1451L22.38 28.2943L22.3826 28.3915L22.2995 28.4549L22.2859 28.491L22.2812 28.5044L22.298 28.545L22.3294 28.5279L22.3891 28.4949L22.4618 28.4836L22.5899 28.4972L22.6745 28.5061L22.8081 28.4398L22.8966 28.3958L23.0388 28.457L23.195 28.4552L23.2607 28.4845L23.4467 28.5687L23.5415 28.5776L23.5765 28.5546L23.5989 28.5015L23.5874 28.4395L23.516 28.3577L23.3591 28.1755L23.2948 28.0819L23.2459 27.9463L23.2308 27.7729L23.22 27.656L23.2394 27.5024L23.2816 27.4476L23.3126 27.3256H23.3132L23.3212 27.2936L23.4084 27.1779L23.6393 27.0295L23.8874 26.8074L24.0834 26.6781L24.2856 26.5905L24.291 26.5657L24.3135 26.5748L24.8277 26.4L24.8362 26.399L25.0652 26.3591L26.6105 26.4679L26.6678 26.4506V26.4503L26.7193 26.3058L26.747 26.279L26.7656 26.2615L26.9355 26.1867L27.015 26.1754L27.2355 26.2298L27.3258 26.2521L27.4704 26.171L27.5729 26.1728L27.7848 26.057L27.9158 26.0603L27.9654 26.0404L28.2204 25.8572L28.466 25.7868L28.5299 25.7528L28.5524 25.7404L28.8041 25.6074L28.9641 25.4846L29.1021 25.4112L29.2533 25.3722L29.6489 25.3444L29.7285 25.2118L29.8987 25.1891L30.0014 25.0731L30.1192 25.0253L30.2035 24.9039L30.2742 24.8022L30.3728 24.745L30.6891 24.7252L31.0639 24.7716L31.1136 24.7416L31.1983 24.4393L31.2869 24.3825L31.5258 24.0345L31.5266 23.9077V23.8018L31.5658 23.6509L31.5392 23.3787L31.5708 23.1029L31.7192 22.7526L31.85 22.6112L32.0609 22.4686L32.1681 22.4219L32.3199 22.3964V22.3964L32.3423 22.3927L32.381 22.386L32.9039 22.3788C32.9112 22.3734 33.0941 22.3762 33.0941 22.3762L33.2685 22.3739L33.7098 22.4522L33.7412 22.4577L33.89 22.506L34.062 22.6398L34.2442 22.8177L34.2784 22.8509L34.3962 22.9005L34.4319 22.916L34.5293 22.9005L34.668 22.8282L34.7727 22.7397L34.9153 22.6618L34.9188 22.6568L34.9991 22.536L35.0015 22.5335L35.0032 22.534V22.5333H35.0019L35.0336 22.4852L35.3093 22.3778L35.6337 22.3592L35.6701 22.3394L35.6904 22.3286L35.7761 22.2279L35.8564 22.2273L36.0508 22.2976L36.1872 22.2705L36.2958 22.3139L36.3801 22.3039L36.5392 22.2853L36.7099 22.4054L36.8095 22.4178L37.1603 22.6231L37.1786 22.6261L37.188 22.6278L37.2081 22.6312L37.2497 22.6187L37.3117 22.6008L37.3199 22.5984L37.3277 22.6093L37.3676 22.6655L37.4223 22.6733L37.487 22.5869L37.4613 22.5477L37.4516 22.5335L37.3262 22.508L37.2137 22.3158L37.3208 22.2003L37.1527 21.9941L37.1248 21.9599L37.1153 21.9454L37.0572 21.8572L36.7629 21.4085L36.3795 21.1025L36.2453 20.9951L36.2444 20.9945L36.1974 20.9572L35.9928 20.749L35.8465 20.5549L35.8274 20.5131L35.7972 20.4473L35.7096 20.2564L35.5569 20.1386L35.4325 20.0027L35.4263 19.9947L35.1696 19.6458L35.1274 19.5873L35.0667 19.5523L34.9386 19.5514L34.9262 19.539L34.919 19.5315L34.9234 19.5269L34.9848 19.4658L35.0533 19.4486L35.0829 19.3811L34.9521 19.0028L34.9513 18.9896L34.9415 18.8687L35.0481 18.3195L35.0617 18.2526L35.2433 17.8832L35.3558 17.791L35.4786 17.5497L35.584 17.3954L35.6848 17.2973L35.7024 17.2868L35.8843 17.1767L36.0372 17.1552L36.1828 17.1347L36.437 17.213L36.6789 17.2083L36.7261 17.2033L36.8358 17.1909L37.0163 17.134L37.1016 17.0815L37.1458 17.0137L37.238 16.7044L37.2676 16.606L37.3245 16.4991L37.6535 16.1203L37.9023 15.8903L38.4616 15.4802L38.7353 15.3165L38.8751 15.233L40.1232 14.6782L40.4475 14.3496L40.6165 14.1785L40.9155 13.9779L41.2653 13.8346L41.5663 13.5964L41.632 13.5136L41.7149 13.247L41.7839 13.2303L41.8459 13.0955L41.8636 13.0572L42.1093 12.884L42.137 12.8702L43.0913 12.3921L43.2299 12.4111L43.3044 12.2999L43.582 12.2533L43.6331 12.2447L43.7013 12.2105L43.7595 12.1113V12.0917L43.7675 11.8267L43.8268 11.7551L43.8591 11.5804L43.8896 11.5401L43.9214 11.4982L44 11.443L43.9864 11.41L43.9884 11.412Z" fill="#FFA654"/>
</g>
</svg>
