<svg width="54" height="54" viewBox="0 0 54 54" fill="none" xmlns="http://www.w3.org/2000/svg">
<mask id="mask0_1_40342" style="mask-type:alpha" maskUnits="userSpaceOnUse" x="3" y="9" width="48" height="36">
<path d="M3.56934 18.1356C4.16681 13.4125 8.0415 10.0019 12.7861 9.60887C16.6412 9.28949 21.6196 9 27 9C32.3804 9 37.3588 9.28949 41.2139 9.60887C45.9585 10.0019 49.8332 13.4125 50.4307 18.1356C50.752 20.6759 51 23.704 51 27C51 30.296 50.752 33.3241 50.4307 35.8644C49.8332 40.5875 45.9585 43.9981 41.2139 44.3911C37.3588 44.7105 32.3804 45 27 45C21.6196 45 16.6412 44.7105 12.7861 44.3911C8.04151 43.9981 4.16681 40.5875 3.56934 35.8644C3.248 33.3241 3 30.296 3 27C3 23.704 3.248 20.6759 3.56934 18.1356Z" fill="#00D0BF"/>
</mask>
<g mask="url(#mask0_1_40342)">
<rect x="3" y="3" width="48" height="49" fill="#F5F5F5"/>
<path d="M27.6151 39.9999C27.6069 39.9965 27.5996 39.9913 27.5936 39.9848L27.5858 39.9775C27.5513 39.9453 27.5186 39.9113 27.4877 39.8756C27.4051 39.7818 27.2943 39.6444 27.1969 39.5231C27.0037 39.2823 26.8441 39.0748 26.814 39.0358L26.7648 38.9718L26.2832 38.8233L25.9315 38.6593L26.1194 38.4481L26.7648 38.7244L27.2465 38.8233L28.1372 39.4784C28.1354 39.4798 28.0069 39.5867 27.88 39.7022C27.8234 39.7536 27.752 39.82 27.7016 39.8747C27.6808 39.897 27.6615 39.9206 27.6439 39.9454C27.6333 39.963 27.6237 39.9812 27.6151 39.9999ZM24.3073 39.0066C23.8728 39.0026 23.4471 38.8835 23.0736 38.6613C23.119 38.5856 23.1794 38.5196 23.2516 38.4686C23.372 38.3802 23.5891 38.2746 23.94 38.2733H23.9472C24.3627 38.2733 24.8712 38.4145 25.4586 38.6932C25.1104 38.9001 24.7124 39.0084 24.3073 39.0066ZM22.486 38.6029C22.4117 38.6043 22.3403 38.5743 22.2894 38.5202C22.2455 38.4691 22.2152 38.4076 22.2014 38.3417C22.1815 38.256 22.1742 38.1679 22.1796 38.0802C22.2102 38.0669 22.2431 38.0594 22.2765 38.0582H22.2834C22.4391 38.0582 22.5619 38.1933 22.6144 38.3272C22.6431 38.3864 22.6492 38.454 22.6314 38.5173C22.605 38.5727 22.5472 38.6069 22.486 38.6029ZM25.6908 38.2314C24.6143 38.0777 24.1581 37.6885 23.9648 37.3891C23.8425 37.2074 23.7849 36.9899 23.8015 36.7714L23.8023 36.7706C23.8564 36.7582 23.9117 36.752 23.9671 36.7524C24.2535 36.7524 24.9857 36.897 25.6908 38.2314ZM23.4844 38.0181C23.0245 38.0181 22.6744 37.9387 22.4437 37.7824C22.3456 37.7196 22.2666 37.6311 22.2151 37.5266C22.1964 37.487 22.184 37.4447 22.1783 37.4012C22.3315 37.339 22.4946 37.3044 22.6598 37.2989C22.6836 37.2977 22.7075 37.2971 22.7326 37.297C23.0881 37.297 23.6286 37.413 24.199 37.9655C23.962 37.9982 23.7236 38.016 23.4844 38.0181ZM21.2575 37.9325C20.7726 37.9325 20.1064 37.7844 19.6909 37.369C20.0068 37.2944 20.33 37.2511 20.6543 37.2406C20.6846 37.2399 20.7151 37.2395 20.7458 37.2395C21.2005 37.2395 21.5485 37.3276 21.7803 37.5015C21.8451 37.5403 21.8932 37.6019 21.9154 37.674C21.9205 37.7273 21.8952 37.7789 21.8499 37.8074C21.7455 37.8862 21.5589 37.9282 21.2952 37.9324L21.258 37.9337L21.2575 37.9325ZM19.6861 37.1263C19.6267 37.1265 19.5702 37.0999 19.5324 37.054C19.4974 37.008 19.4739 36.9544 19.4637 36.8976C19.4479 36.8227 19.4418 36.7461 19.4457 36.6697V36.6686C19.4694 36.6577 19.4951 36.6519 19.5211 36.6516C19.582 36.6538 19.6395 36.6795 19.6817 36.7234C19.7286 36.7694 19.7644 36.8255 19.7864 36.8874C19.8083 36.9391 19.8123 36.9966 19.7975 37.0508C19.7794 37.0965 19.7353 37.1268 19.6861 37.1263ZM23.3157 37.0445C23.2415 37.0459 23.1701 37.0159 23.1192 36.9618C23.0752 36.9107 23.0449 36.8493 23.031 36.7834C23.0111 36.6977 23.0038 36.6096 23.0092 36.5218C23.0398 36.5086 23.0727 36.5011 23.1061 36.4999H23.113C23.2687 36.4999 23.3915 36.635 23.444 36.7688C23.4727 36.8281 23.4788 36.8957 23.461 36.959C23.4347 37.0144 23.3769 37.0486 23.3157 37.0445ZM21.5478 36.9713C20.5719 36.937 20.0657 36.6596 19.8124 36.4329C19.7041 36.338 19.6149 36.2233 19.5495 36.0951C19.5251 36.047 19.5062 35.9962 19.4932 35.9439L19.4945 35.9433C19.5726 35.9196 19.6538 35.9075 19.7354 35.9074H19.7582C20.0873 35.9074 20.7577 36.0458 21.5478 36.9713ZM22.6076 36.8727C21.8224 36.7532 21.3776 36.4161 21.1427 36.1543C20.9977 35.9986 20.8875 35.8139 20.8194 35.6124C20.8988 35.5943 20.9799 35.5845 21.0613 35.5833C21.0718 35.5833 21.0827 35.5829 21.0938 35.5829C21.1049 35.5829 21.1164 35.5829 21.1281 35.5833C21.523 35.592 22.2404 35.7712 22.6076 36.8727ZM18.5767 36.4957C18.3268 36.4965 18.0777 36.4667 17.8351 36.4069C17.424 36.3041 17.2476 36.1471 17.1721 36.0335C17.1395 35.9864 17.1178 35.9328 17.1082 35.8764C17.1047 35.8543 17.1041 35.832 17.1062 35.8098L17.1082 35.8091C17.3205 35.7565 17.5383 35.7288 17.7571 35.7268C17.7719 35.7268 17.7868 35.7264 17.802 35.7264C17.9803 35.7261 18.1582 35.7433 18.3331 35.7779C18.7298 35.8608 19.0833 36.0841 19.3286 36.4067C19.0826 36.4668 18.8299 36.4973 18.5767 36.4957ZM20.3993 35.8334C20.3253 35.8354 20.2539 35.8061 20.2026 35.7528C20.1585 35.701 20.1282 35.639 20.1145 35.5724C20.0946 35.4875 20.0873 35.4 20.0928 35.3129C20.1234 35.2996 20.1563 35.2922 20.1896 35.291H20.1966C20.352 35.291 20.4749 35.4261 20.5277 35.56C20.5557 35.6187 20.5611 35.6857 20.5427 35.7481C20.5176 35.8038 20.4602 35.8376 20.3993 35.8334ZM19.0288 35.6455C18.7679 35.5716 18.5183 35.4626 18.2867 35.3215C17.9429 35.1098 17.5223 34.7354 17.4711 34.1538C17.4972 34.1482 17.5245 34.145 17.5512 34.1442C17.5574 34.1442 17.5646 34.1438 17.5719 34.1438C17.6746 34.1438 17.8848 34.1727 18.1391 34.3661C18.4628 34.6129 18.7617 35.0433 19.029 35.6467L19.0288 35.6455ZM19.9237 35.6126C19.7107 35.5159 19.5129 35.3888 19.3365 35.2353C18.8804 34.8428 18.5249 34.3467 18.2999 33.7886C18.356 33.7622 18.4168 33.7472 18.4788 33.7441C18.485 33.7436 18.4912 33.7435 18.4978 33.7435C18.5071 33.7435 18.5167 33.7435 18.5265 33.7441C18.676 33.7483 18.9037 33.8104 19.1562 34.0828C19.4462 34.3958 19.705 34.9101 19.9251 35.6115L19.9258 35.6135L19.9237 35.6126ZM17.605 35.545C17.306 35.545 17.2037 35.3829 17.1736 35.3131C17.1436 35.2404 17.1318 35.1615 17.1392 35.0832V35.082C17.1879 35.0698 17.2379 35.0633 17.2881 35.0625H17.2983C17.4938 35.0577 17.6799 35.1461 17.7996 35.3007C17.8154 35.3242 17.8639 35.4057 17.8238 35.4694C17.7915 35.5197 17.7185 35.545 17.605 35.545ZM16.9427 34.7097C16.7112 34.7102 16.48 34.6904 16.2518 34.6506C15.9855 34.6022 15.8346 34.3758 15.7549 34.1944C15.7013 34.0705 15.6638 33.9401 15.6433 33.8066C16.4669 33.8308 16.8567 34.0715 17.038 34.2691C17.1503 34.3859 17.2203 34.5371 17.2368 34.6983C17.2368 34.6983 17.1194 34.7097 16.9427 34.7097ZM17.8003 33.8526C17.8003 33.8526 17.7052 33.7348 17.6123 33.5904C17.5147 33.4388 17.4245 33.2804 17.4245 33.1512C17.4245 33.0261 17.3951 32.7626 17.3775 32.6167C17.3553 32.4316 17.3329 32.2731 17.331 32.2597C17.3519 32.2673 17.847 32.4528 17.847 32.9164C17.847 33.3801 17.8008 33.848 17.8003 33.8526ZM17.1598 33.8086C17.1545 33.8086 17.1494 33.8081 17.1443 33.8073C16.9981 33.7829 16.7412 33.6713 16.4576 33.5085C16.1424 33.3278 15.8865 33.1342 15.737 32.9634C15.6006 32.8076 15.52 32.563 15.4964 32.2362C15.486 32.0883 15.4878 31.9397 15.5018 31.792C15.5281 31.7835 15.5557 31.7793 15.5833 31.7796C15.6927 31.7814 15.8095 31.8307 15.9671 31.9392C16.1108 32.0415 16.2454 32.1559 16.3696 32.2812C16.5272 32.4378 16.6762 32.6028 16.8161 32.7755L16.8181 32.778C16.8345 32.8074 16.9754 33.0614 17.0852 33.3087C17.14 33.4225 17.1821 33.542 17.2107 33.665C17.2215 33.701 17.2215 33.7394 17.2107 33.7754C17.2061 33.7871 17.1976 33.7969 17.1868 33.8032C17.1782 33.8069 17.1691 33.8087 17.1598 33.8086Z" fill="#1C6864"/>
<path d="M25.6762 39.9999C25.6844 39.9965 25.6917 39.9913 25.6977 39.9848L25.7055 39.9775C25.7399 39.9453 25.7727 39.9113 25.8036 39.8756C25.8862 39.7818 25.997 39.6444 26.0944 39.5231C26.2876 39.2823 26.4472 39.0748 26.4773 39.0358L26.5264 38.9718L27.0081 38.8233L27.3598 38.6593L27.1719 38.4481L26.5264 38.7244L26.0448 38.8233L25.1541 39.4784C25.1559 39.4798 25.2843 39.5867 25.4113 39.7022C25.4679 39.7536 25.5393 39.82 25.5897 39.8747C25.6105 39.897 25.6297 39.9206 25.6473 39.9454C25.658 39.963 25.6676 39.9812 25.6762 39.9999ZM28.9839 39.0066C29.4185 39.0026 29.8442 38.8835 30.2177 38.6613C30.1722 38.5856 30.1119 38.5196 30.0396 38.4686C29.9193 38.3802 29.7022 38.2746 29.3513 38.2733H29.344C28.9286 38.2733 28.4201 38.4145 27.8326 38.6932C28.1809 38.9001 28.5789 39.0084 28.9839 39.0066ZM30.8052 38.6029C30.8795 38.6043 30.9509 38.5743 31.0018 38.5202C31.0458 38.4691 31.0761 38.4076 31.0899 38.3417C31.1097 38.256 31.1171 38.1679 31.1116 38.0802C31.081 38.0669 31.0481 38.0594 31.0148 38.0582H31.0078C30.8521 38.0582 30.7294 38.1933 30.6768 38.3272C30.6482 38.3864 30.6421 38.454 30.6598 38.5173C30.6862 38.5727 30.744 38.6069 30.8052 38.6029ZM27.6004 38.2314C28.6769 38.0777 29.1332 37.6885 29.3264 37.3891C29.4488 37.2074 29.5063 36.9899 29.4898 36.7714L29.489 36.7706C29.4349 36.7582 29.3796 36.752 29.3241 36.7524C29.0378 36.7524 28.3055 36.897 27.6004 38.2314ZM29.8068 38.0181C30.2667 38.0181 30.6168 37.9387 30.8475 37.7824C30.9456 37.7196 31.0246 37.6311 31.0761 37.5266C31.0949 37.487 31.1073 37.4447 31.113 37.4012C30.9597 37.339 30.7967 37.3044 30.6314 37.2989C30.6077 37.2977 30.5837 37.2971 30.5586 37.297C30.2032 37.297 29.6627 37.413 29.0923 37.9655C29.3292 37.9982 29.5677 38.016 29.8068 38.0181ZM32.0337 37.9325C32.5187 37.9325 33.1849 37.7844 33.6003 37.369C33.2845 37.2944 32.9612 37.2511 32.6369 37.2406C32.6066 37.2399 32.5761 37.2395 32.5454 37.2395C32.0908 37.2395 31.7428 37.3276 31.5109 37.5015C31.4462 37.5403 31.3981 37.6019 31.3759 37.674C31.3707 37.7273 31.3961 37.7789 31.4414 37.8074C31.5457 37.8862 31.7323 37.9282 31.9961 37.9324L32.0333 37.9337L32.0337 37.9325ZM33.6051 37.1263C33.6646 37.1265 33.721 37.0999 33.7588 37.054C33.7938 37.008 33.8174 36.9544 33.8276 36.8976C33.8434 36.8227 33.8494 36.7461 33.8456 36.6697V36.6686C33.8219 36.6577 33.7962 36.6519 33.7701 36.6516C33.7093 36.6538 33.6517 36.6795 33.6096 36.7234C33.5626 36.7694 33.5269 36.8255 33.5049 36.8874C33.4829 36.9391 33.479 36.9966 33.4937 37.0508C33.5118 37.0965 33.5559 37.1268 33.6051 37.1263ZM29.9755 37.0445C30.0498 37.0459 30.1212 37.0159 30.1721 36.9618C30.2161 36.9107 30.2464 36.8493 30.2603 36.7834C30.2801 36.6977 30.2875 36.6096 30.282 36.5218C30.2514 36.5086 30.2185 36.5011 30.1852 36.4999H30.1782C30.0225 36.4999 29.8998 36.635 29.8472 36.7688C29.8186 36.8281 29.8125 36.8957 29.8302 36.959C29.8566 37.0144 29.9143 37.0486 29.9755 37.0445ZM31.7435 36.9713C32.7194 36.937 33.2256 36.6596 33.4789 36.4329C33.5871 36.338 33.6764 36.2233 33.7418 36.0951C33.7662 36.047 33.785 35.9962 33.7981 35.9439L33.7968 35.9433C33.7187 35.9196 33.6375 35.9075 33.5559 35.9074H33.5331C33.204 35.9074 32.5336 36.0458 31.7435 36.9713ZM30.6837 36.8727C31.4688 36.7532 31.9137 36.4161 32.1486 36.1543C32.2935 35.9986 32.4037 35.8139 32.4718 35.6124C32.3925 35.5943 32.3114 35.5845 32.23 35.5833C32.2195 35.5833 32.2086 35.5829 32.1975 35.5829C32.1864 35.5829 32.1749 35.5829 32.1632 35.5833C31.7683 35.592 31.0509 35.7712 30.6837 36.8727ZM34.7145 36.4957C34.9644 36.4965 35.2135 36.4667 35.4562 36.4069C35.8673 36.3041 36.0436 36.1471 36.1192 36.0335C36.1517 35.9864 36.1735 35.9328 36.1831 35.8764C36.1865 35.8543 36.1872 35.832 36.185 35.8098L36.1831 35.8091C35.9708 35.7565 35.753 35.7288 35.5342 35.7268C35.5194 35.7268 35.5044 35.7264 35.4892 35.7264C35.311 35.7261 35.133 35.7433 34.9582 35.7779C34.5615 35.8608 34.208 36.0841 33.9627 36.4067C34.2086 36.4668 34.4613 36.4973 34.7145 36.4957ZM32.892 35.8334C32.966 35.8354 33.0374 35.8061 33.0887 35.7528C33.1328 35.701 33.1631 35.639 33.1767 35.5724C33.1966 35.4875 33.204 35.4 33.1985 35.3129C33.1679 35.2996 33.135 35.2922 33.1016 35.291H33.0947C32.9393 35.291 32.8164 35.4261 32.7636 35.56C32.7355 35.6187 32.7302 35.6857 32.7485 35.7481C32.7737 35.8038 32.831 35.8376 32.892 35.8334ZM34.2624 35.6455C34.5234 35.5716 34.773 35.4626 35.0046 35.3215C35.3483 35.1098 35.7689 34.7354 35.8202 34.1538C35.7941 34.1482 35.7667 34.145 35.7401 34.1442C35.7339 34.1442 35.7266 34.1438 35.7194 34.1438C35.6167 34.1438 35.4065 34.1727 35.1521 34.3661C34.8284 34.6129 34.5295 35.0433 34.2623 35.6467L34.2624 35.6455ZM33.3676 35.6126C33.5806 35.5159 33.7783 35.3888 33.9548 35.2353C34.4109 34.8428 34.7664 34.3467 34.9914 33.7886C34.9352 33.7622 34.8744 33.7472 34.8124 33.7441C34.8062 33.7436 34.8 33.7435 34.7935 33.7435C34.7842 33.7435 34.7745 33.7435 34.7647 33.7441C34.6152 33.7483 34.3875 33.8104 34.1351 34.0828C33.8451 34.3958 33.5863 34.9101 33.3661 35.6115L33.3655 35.6135L33.3676 35.6126ZM35.6863 35.545C35.9852 35.545 36.0875 35.3829 36.1177 35.3131C36.1477 35.2404 36.1595 35.1615 36.152 35.0832V35.082C36.1034 35.0698 36.0534 35.0633 36.0032 35.0625H35.993C35.7975 35.0577 35.6114 35.1461 35.4917 35.3007C35.4758 35.3242 35.4274 35.4057 35.4675 35.4694C35.4997 35.5197 35.5728 35.545 35.6863 35.545ZM36.3486 34.7097C36.5801 34.7102 36.8113 34.6904 37.0394 34.6506C37.3057 34.6022 37.4567 34.3758 37.5363 34.1944C37.5899 34.0705 37.6274 33.9401 37.648 33.8066C36.8243 33.8308 36.4346 34.0715 36.2533 34.2691C36.141 34.3859 36.071 34.5371 36.0545 34.6983C36.0545 34.6983 36.1718 34.7097 36.3486 34.7097ZM35.4909 33.8526C35.4909 33.8526 35.5861 33.7348 35.679 33.5904C35.7765 33.4388 35.8668 33.2804 35.8668 33.1512C35.8668 33.0261 35.8962 32.7626 35.9137 32.6167C35.9359 32.4316 35.9584 32.2731 35.9602 32.2597C35.9393 32.2673 35.4442 32.4528 35.4442 32.9164C35.4442 33.3801 35.4905 33.848 35.4909 33.8526ZM36.1315 33.8086C36.1367 33.8086 36.1419 33.8081 36.147 33.8073C36.2931 33.7829 36.5501 33.6713 36.8337 33.5085C37.1488 33.3278 37.4047 33.1342 37.5543 32.9634C37.6907 32.8076 37.7713 32.563 37.7949 32.2362C37.8053 32.0883 37.8034 31.9397 37.7895 31.792C37.7631 31.7835 37.7356 31.7793 37.7079 31.7796C37.5985 31.7814 37.4818 31.8307 37.3241 31.9392C37.1804 32.0415 37.0458 32.1559 36.9217 32.2812C36.764 32.4378 36.615 32.6028 36.4752 32.7755L36.4732 32.778C36.4568 32.8074 36.3159 33.0614 36.2061 33.3087C36.1512 33.4225 36.1091 33.542 36.0806 33.665C36.0698 33.701 36.0698 33.7394 36.0806 33.7754C36.0852 33.7871 36.0936 33.7969 36.1045 33.8032C36.1131 33.8069 36.1221 33.8087 36.1315 33.8086Z" fill="#1C6864"/>
<path d="M43.9884 14.412L43.8423 14.4701L43.7851 14.4929L43.6081 14.4832L43.4423 14.5628L43.1484 14.7636L43.1354 14.7729L43.0259 14.8015L42.9241 14.7576L42.8663 14.7839L42.8464 14.903L42.7914 14.9885L42.7237 15.0361L42.4891 15.0601L42.2913 15.1621L42.0339 15.0932L41.9144 15.14L41.6601 15.3689L41.5302 15.4305L41.4848 15.4278L41.3125 15.419L41.2398 15.4428L41.1311 15.5478L40.9256 15.5638L40.8615 15.6081L40.7612 15.8103L40.6525 15.9224L40.5904 15.9355L40.523 15.9107L40.4724 15.9197L40.4494 16.049L40.4003 16.1032L40.2626 16.1506L40.1527 16.2422L40.0562 16.2918L39.927 16.2886H39.8973L39.7685 16.3596L39.5267 16.3809L39.426 16.4769L39.4038 16.4974L39.3568 16.5258L39.2799 16.5717L39.2613 16.5831L39.1682 16.5666L39.0597 16.6096L39.0158 16.542L38.9407 16.5871L38.8415 16.5914L38.7175 16.5363L38.6231 16.4942L38.5541 16.5042L38.5301 16.6245L38.5277 16.6373L38.4551 16.7338L38.3197 16.8159L38.3011 16.8399L38.147 17.0388L37.8541 17.3468L37.6065 17.4725L37.3499 17.5506L37.17 17.6982L36.6987 17.9318L35.9549 18.3022L35.8028 18.3509L35.5845 18.3858L35.1952 18.5292L34.8517 18.6328L34.8326 18.6386L34.7644 18.6592L34.28 18.8057L34.0546 18.7819L33.9211 18.8304L33.5735 18.7918L33.3317 18.7966L33.1787 18.8284L32.8912 18.9663L32.4058 19.1996L32.2454 19.3464L31.9957 19.4766L31.7033 19.5692L31.704 19.4463L31.7022 19.4411L31.6008 19.4732L31.5276 19.4963L31.2904 19.5329H31.1584L31.0765 19.5091L31.0641 19.5134L30.5793 19.6727L30.0386 19.7249L29.768 19.8117L29.5658 19.8085L29.4395 19.8461L29.1914 19.8764L29.1029 19.8528L29.0829 19.8473L28.3542 19.8789L28.0211 19.8413L27.8621 19.8774L27.5955 19.7878L27.2067 19.7427L27.1159 19.7155L26.9112 19.6548L26.8187 19.7081L26.7495 19.7155L26.5842 19.6555L26.5246 19.654L26.3882 19.7036L26.3096 19.6835L26.2366 19.6253L26.0654 19.5998L25.9611 19.5121L25.3782 19.5894L25.22 19.5429L24.6895 19.3883L24.6051 19.3926L24.4997 19.4714L24.3417 19.529L24.2045 19.5647L24.0178 19.5709L23.8007 19.514L23.5771 19.4056L23.4944 19.3859L23.31 19.4045L23.2536 19.4096L22.9146 19.2278L22.4779 18.9549L22.1816 18.8123L22.0704 18.7943L22.0554 18.8472L22.1106 19.0208L22.1292 19.1928L22.1236 19.3518L22.1206 19.4502L22.1482 19.5385L22.2552 19.6571L22.2998 19.7762L22.3324 20.1038L22.332 20.4364L22.28 20.9666L22.2624 21.0472L22.2004 21.322L22.1437 21.5743L21.9238 22.2461L21.8634 22.3294L21.7152 22.4305L21.3791 22.6592L21.1317 22.8018L21.0534 22.8343L20.8525 22.8495L20.7274 22.8433L20.5715 22.7589L20.4186 22.7195L20.2181 22.5754L19.9949 22.5292L19.7505 22.388L19.6869 22.3115L19.5538 22.2991L19.3692 22.2437V22.2434L19.3015 22.2231L19.2546 22.2095L19.019 22.2033L18.7995 22.102L18.6839 22.074L18.5259 22.066L18.3606 22.1429L18.2768 22.1819L18.171 22.1398L18.0944 22.1446L18.0076 22.2758L17.9969 22.2958L17.9371 22.3274L17.8627 22.3264L17.8045 22.3248L17.7415 22.3524L17.6566 22.3891L17.5817 22.4218L17.5451 22.4376L17.5445 22.437L17.522 22.4415L17.482 22.4485L17.4324 22.458L17.345 22.4069L17.2985 22.3795L17.2205 22.3636L17.1785 22.3939L17.1703 22.5365L17.1319 22.622L17.0103 22.7295L16.8867 22.8384L16.8006 22.9653L16.5727 23.4856L16.43 23.6955L16.3857 23.7444L16.2357 23.9094L16.1033 24.0121L15.7981 24.2487L15.5091 24.3567L15.2603 24.4075L15.1393 24.408L14.9099 24.3775L14.7038 24.3143L14.4774 24.1727L14.2294 23.9732L13.8701 23.6183L13.8192 23.5877L13.8086 23.5806L13.6955 23.5083L13.6115 23.5104L13.5786 23.5646L13.5606 23.643L13.5454 23.7124L13.5043 24.1073L13.5073 24.1301L13.529 24.2927L13.8018 24.6741L13.886 24.8767L13.8999 24.8998L13.9562 24.9944L13.999 25.0665L14.0033 25.0738L14.0963 25.3522L14.0308 25.5093L14.0639 25.6147L13.981 25.679L13.9658 25.7699L14.2108 26.077L14.2643 26.2125L14.2046 26.4004L14.1093 26.504L14.0827 26.5323L14.0961 26.6117L14.2089 26.7131L14.4004 26.8836L14.5026 27.137L14.5803 27.2052L14.6705 27.186L14.7208 27.2243L14.7969 27.223L14.8718 27.2979L14.9203 27.3214L14.997 27.3596L15.0576 27.4385L15.071 27.681L15.1839 27.9824L15.1857 28.1458L15.1863 28.169L15.2566 28.2898L15.2787 28.3852L15.2415 28.6375L15.3311 28.7185L15.4283 28.6987L15.491 28.7086L15.5919 28.7926L15.714 28.9786L15.8334 28.9611L15.9092 28.9976L16.2751 29.3284L16.3581 29.3703L16.3627 29.3729L16.4224 29.4029L16.4968 29.4778L16.6119 29.4014L16.6247 29.4001L16.7498 29.3891L16.8048 29.4263L16.9102 29.4975L17.0487 29.4957L17.3491 29.5878L17.4805 29.6215L17.7448 29.7857L17.8571 29.8551L17.9235 29.9092L18.0118 29.9811L18.1883 30.0571L18.3396 30.0933L18.4216 30.1127L18.4836 30.1366L18.4851 30.1327H18.486L18.4845 30.1366L18.8122 30.2621L18.9897 30.3035L19.1539 30.364L19.2734 30.4074L19.3611 30.4088L19.4851 30.3045L19.6052 30.2975L19.705 30.3223L19.8023 30.306L19.9564 30.2111L19.9865 30.1665L20.0958 30.1145L20.4644 30.0687L20.5721 30.1037L20.8487 29.9834L21.034 30.0349L21.198 29.9767L21.5564 30.0564L21.6516 30.1234L21.7581 30.2453L21.7711 30.2458L21.8897 30.2481L21.8401 30.3307L21.9965 30.4948L22.1379 30.7084L22.1474 30.7366L22.2502 31.0383L22.3266 31.1451L22.38 31.2943L22.3826 31.3915L22.2995 31.4549L22.2859 31.491L22.2812 31.5044L22.298 31.545L22.3294 31.5279L22.3891 31.4949L22.4618 31.4836L22.5899 31.4972L22.6745 31.5061L22.8081 31.4398L22.8966 31.3958L23.0388 31.457L23.195 31.4553L23.2607 31.4845L23.4467 31.5687L23.5415 31.5776L23.5765 31.5546L23.5989 31.5015L23.5874 31.4395L23.516 31.3577L23.3591 31.1755L23.2948 31.0819L23.2459 30.9463L23.2308 30.7729L23.22 30.656L23.2394 30.5024L23.2816 30.4476L23.3126 30.3256H23.3132L23.3212 30.2936L23.4084 30.1779L23.6393 30.0295L23.8874 29.8074L24.0834 29.6781L24.2856 29.5905L24.291 29.5657L24.3135 29.5748L24.8277 29.4L24.8362 29.399L25.0652 29.3591L26.6105 29.4679L26.6678 29.4506V29.4503L26.7193 29.3058L26.747 29.279L26.7656 29.2615L26.9355 29.1867L27.015 29.1754L27.2355 29.2298L27.3258 29.2521L27.4704 29.171L27.5729 29.1728L27.7848 29.057L27.9158 29.0603L27.9654 29.0404L28.2204 28.8572L28.466 28.7868L28.5299 28.7528L28.5524 28.7404L28.8041 28.6074L28.9641 28.4846L29.1021 28.4112L29.2533 28.3722L29.6489 28.3444L29.7285 28.2118L29.8987 28.1891L30.0014 28.0731L30.1192 28.0253L30.2035 27.9039L30.2742 27.8022L30.3728 27.745L30.6891 27.7252L31.0639 27.7716L31.1136 27.7416L31.1983 27.4393L31.2869 27.3825L31.5258 27.0345L31.5266 26.9077V26.8018L31.5658 26.6509L31.5392 26.3787L31.5708 26.1029L31.7192 25.7526L31.85 25.6112L32.0609 25.4686L32.1681 25.4219L32.3199 25.3964V25.3964L32.3423 25.3927L32.381 25.386L32.9039 25.3788C32.9112 25.3734 33.0941 25.3762 33.0941 25.3762L33.2685 25.3739L33.7098 25.4522L33.7412 25.4577L33.89 25.506L34.062 25.6398L34.2442 25.8177L34.2784 25.8509L34.3962 25.9005L34.4319 25.916L34.5293 25.9005L34.668 25.8282L34.7727 25.7397L34.9153 25.6618L34.9188 25.6568L34.9991 25.536L35.0015 25.5335L35.0032 25.534V25.5333H35.0019L35.0336 25.4852L35.3093 25.3778L35.6337 25.3592L35.6701 25.3394L35.6904 25.3286L35.7761 25.2279L35.8564 25.2273L36.0508 25.2976L36.1872 25.2705L36.2958 25.3139L36.3801 25.3039L36.5392 25.2853L36.7099 25.4054L36.8095 25.4178L37.1603 25.6231L37.1786 25.6261L37.188 25.6278L37.2081 25.6312L37.2497 25.6187L37.3117 25.6008L37.3199 25.5984L37.3277 25.6093L37.3676 25.6655L37.4223 25.6733L37.487 25.5869L37.4613 25.5477L37.4516 25.5335L37.3262 25.508L37.2137 25.3158L37.3208 25.2003L37.1527 24.9941L37.1248 24.9599L37.1153 24.9454L37.0572 24.8572L36.7629 24.4085L36.3795 24.1025L36.2453 23.9951L36.2444 23.9945L36.1974 23.9572L35.9928 23.749L35.8465 23.5549L35.8274 23.5131L35.7972 23.4473L35.7096 23.2564L35.5569 23.1386L35.4325 23.0027L35.4263 22.9947L35.1696 22.6458L35.1274 22.5873L35.0667 22.5523L34.9386 22.5514L34.9262 22.539L34.919 22.5315L34.9234 22.5269L34.9848 22.4658L35.0533 22.4486L35.0829 22.3811L34.9521 22.0028L34.9513 21.9896L34.9415 21.8687L35.0481 21.3195L35.0617 21.2526L35.2433 20.8832L35.3558 20.791L35.4786 20.5497L35.584 20.3954L35.6848 20.2973L35.7024 20.2868L35.8843 20.1767L36.0372 20.1552L36.1828 20.1347L36.437 20.213L36.6789 20.2083L36.7261 20.2033L36.8358 20.1909L37.0164 20.134L37.1016 20.0815L37.1458 20.0137L37.238 19.7044L37.2676 19.606L37.3245 19.4991L37.6535 19.1203L37.9023 18.8903L38.4616 18.4802L38.7353 18.3165L38.8751 18.233L40.1232 17.6782L40.4475 17.3496L40.6165 17.1785L40.9155 16.9779L41.2653 16.8346L41.5663 16.5964L41.632 16.5136L41.7149 16.247L41.7839 16.2303L41.8459 16.0955L41.8636 16.0572L42.1093 15.884L42.137 15.8702L43.0913 15.3921L43.2299 15.4111L43.3044 15.2999L43.582 15.2533L43.6331 15.2447L43.7013 15.2105L43.7595 15.1113V15.0917L43.7675 14.8267L43.8268 14.7551L43.8591 14.5804L43.8896 14.5401L43.9214 14.4982L44 14.443L43.9864 14.41L43.9884 14.412Z" fill="#FFA654"/>
</g>
</svg>
