<svg width="54" height="54" viewBox="0 0 54 54" fill="none" xmlns="http://www.w3.org/2000/svg">
<mask id="mask0_1_37213" style="mask-type:alpha" maskUnits="userSpaceOnUse" x="3" y="9" width="48" height="36">
<path d="M3.56934 18.1356C4.16681 13.4125 8.0415 10.0019 12.7861 9.60887C16.6412 9.28949 21.6196 9 27 9C32.3804 9 37.3588 9.28949 41.2139 9.60887C45.9585 10.0019 49.8332 13.4125 50.4307 18.1356C50.752 20.6759 51 23.704 51 27C51 30.296 50.752 33.3241 50.4307 35.8644C49.8332 40.5875 45.9585 43.9981 41.2139 44.3911C37.3588 44.7105 32.3804 45 27 45C21.6196 45 16.6412 44.7105 12.7861 44.3911C8.04151 43.9981 4.16681 40.5875 3.56934 35.8644C3.248 33.3241 3 30.296 3 27C3 23.704 3.248 20.6759 3.56934 18.1356Z" fill="#00D0BF"/>
</mask>
<g mask="url(#mask0_1_37213)">
<rect x="3" y="9" width="48" height="36" fill="#1C6864"/>
<rect x="3" y="25.5" width="48" height="3" fill="#2C2929"/>
<rect x="3" y="22.5" width="48" height="3" fill="#FCD95E"/>
<rect x="3" y="28.5" width="48" height="3" fill="#F5F5F5"/>
<rect x="25.5" y="45" width="36" height="3" transform="rotate(-90 25.5 45)" fill="#2C2929"/>
<rect x="22.5" y="51" width="48" height="3" transform="rotate(-90 22.5 51)" fill="#FCD95E"/>
<rect x="28.5" y="51" width="48" height="3" transform="rotate(-90 28.5 51)" fill="#F5F5F5"/>
<path d="M27 35.0534C31.4183 35.0534 35 31.4717 35 27.0534C35 22.6352 31.4183 19.0534 27 19.0534C22.5817 19.0534 19 22.6352 19 27.0534C19 31.4717 22.5817 35.0534 27 35.0534Z" fill="#D41C30"/>
<path d="M26.7435 20.7382L27 20.0065L27.2331 20.7265L28.0144 20.7382L27.3963 21.2102L27.6763 22.0129L27 21.5174L26.3355 21.9894L26.592 21.2102L25.9856 20.7499L26.7435 20.7382Z" fill="#006B3F" stroke="black" stroke-width="0.0533333"/>
<path d="M28.2646 31.5208C28.5273 31.4935 28.6651 30.4185 28.5724 29.1199C28.4796 27.8213 28.1914 26.7908 27.9287 26.8182C27.666 26.8456 27.5282 27.9205 27.6209 29.2191C27.7137 30.5177 28.0019 31.5482 28.2646 31.5208Z" fill="#006B3F" stroke="black" stroke-width="0.0347147"/>
<path d="M28.735 31.5155C29.0129 31.4866 29.1626 30.4105 29.0693 29.112C28.976 27.8135 28.6751 26.7842 28.3972 26.8131C28.1193 26.842 27.9697 27.9181 28.063 29.2166C28.1562 30.5152 28.4571 31.5444 28.735 31.5155Z" fill="#006B3F" stroke="black" stroke-width="0.0357013"/>
<path d="M28.5251 31.8896C28.7474 31.8661 28.8465 30.6833 28.7464 29.2478C28.6464 27.8122 28.385 26.6676 28.1627 26.691C27.9404 26.7145 27.8413 27.8973 27.9414 29.3329C28.0415 30.7684 28.3028 31.9131 28.5251 31.8896Z" fill="#006B3F" stroke="black" stroke-width="0.0335748"/>
<path d="M24.642 30.3902C25.0504 30.3732 24.873 30.1547 25.0793 30.0384C25.2854 29.9223 25.5787 29.9991 25.6668 30.1443C25.7548 30.2895 25.6842 30.4322 25.7974 30.4341C25.9108 30.4361 28.9936 30.3068 29.1047 30.4285C29.2158 30.5501 29.2342 30.7899 29.119 30.8831C29.0039 30.9775 25.1065 31.0211 24.9723 30.9225C24.8381 30.8252 24.6415 30.4142 24.642 30.3902V30.3902Z" fill="#9C4A00" stroke="black" stroke-width="0.035056"/>
<path d="M26.8199 30.6896C26.8125 30.9976 27.2681 30.9103 27.2744 31.1676C27.2606 31.4403 26.5104 31.1843 26.5032 30.6854C26.5344 30.187 27.2687 29.9407 27.2778 30.2254C27.2846 30.4619 26.8273 30.3815 26.8199 30.6896V30.6896Z" fill="#FCD116" stroke="black" stroke-width="0.0337387"/>
<path d="M27.0887 30.694C27.0813 31.0021 27.5369 30.9148 27.5432 31.1721C27.5294 31.4448 26.7792 31.1888 26.772 30.6899C26.8032 30.1915 27.5375 29.9452 27.5466 30.2299C27.5533 30.4664 27.0961 30.386 27.0887 30.694V30.694Z" fill="#FCD116" stroke="black" stroke-width="0.0337387"/>
<path d="M27.3772 30.6832C27.3698 30.9912 27.8253 30.904 27.8316 31.1612C27.8179 31.434 27.0676 31.1779 27.0604 30.679C27.0916 30.1806 27.826 29.9344 27.835 30.219C27.8418 30.4556 27.3846 30.3752 27.3772 30.6832Z" fill="#FCD116" stroke="black" stroke-width="0.0337387"/>
<path d="M27.646 30.6867C27.6385 30.9947 28.0941 30.9075 28.1004 31.1648C28.0867 31.4375 27.3364 31.1814 27.3292 30.6825C27.3604 30.1842 28.0948 29.9379 28.1038 30.2226C28.1106 30.4591 27.6534 30.3787 27.646 30.6867Z" fill="#FCD116" stroke="black" stroke-width="0.0337387"/>
<path d="M28.9227 30.9115C29.0664 30.9136 29.1853 30.7972 29.1884 30.6514C29.1914 30.5056 29.0775 30.3857 28.9338 30.3835C28.7902 30.3814 28.6713 30.4978 28.6682 30.6436C28.6651 30.7894 28.7791 30.9093 28.9227 30.9115Z" fill="#9C4A00" stroke="black" stroke-width="0.0301597"/>
<path d="M27.4203 30.2725C27.5475 30.2533 27.6262 30.01 27.5962 29.729C27.5661 29.448 27.4387 29.2357 27.3115 29.2549C27.1843 29.2741 27.1056 29.5174 27.1357 29.7985C27.1657 30.0795 27.2932 30.2917 27.4203 30.2725Z" fill="#006B3F" stroke="black" stroke-width="0.0384963"/>
<path d="M27.028 30.2416C27.1552 30.2224 27.2339 29.979 27.2038 29.698C27.1738 29.417 27.0463 29.2048 26.9192 29.224C26.792 29.2431 26.7133 29.4865 26.7433 29.7675C26.7734 30.0485 26.9008 30.2608 27.028 30.2416Z" fill="#006B3F" stroke="black" stroke-width="0.0384963"/>
<path d="M26.747 29.7393C26.8742 29.7202 26.9529 29.4768 26.9228 29.1958C26.8928 28.9148 26.7653 28.7025 26.6382 28.7217C26.511 28.7409 26.4323 28.9843 26.4623 29.2653C26.4924 29.5463 26.6198 29.7585 26.747 29.7393Z" fill="#006B3F" stroke="black" stroke-width="0.0384962"/>
<path d="M27.1499 29.77C27.2722 29.7507 27.3446 29.4837 27.3117 29.1737C27.2787 28.8636 27.1529 28.628 27.0306 28.6473C26.9084 28.6667 26.836 28.9337 26.8689 29.2437C26.9019 29.5537 27.0277 29.7893 27.1499 29.77Z" fill="#006B3F" stroke="black" stroke-width="0.0396681"/>
<path d="M27.6951 29.74C27.8174 29.7211 27.8914 29.4701 27.8605 29.1794C27.8295 28.8887 27.7052 28.6684 27.5829 28.6873C27.4606 28.7062 27.3866 28.9572 27.4175 29.2479C27.4485 29.5386 27.5728 29.7589 27.6951 29.74Z" fill="#006B3F" stroke="black" stroke-width="0.0384082"/>
<path d="M27.3936 29.5583C27.5159 29.5394 27.5899 29.2884 27.559 28.9977C27.528 28.7071 27.4037 28.4867 27.2814 28.5057C27.1591 28.5246 27.0851 28.7755 27.116 29.0662C27.147 29.3569 27.2713 29.5772 27.3936 29.5583Z" fill="#006B3F" stroke="black" stroke-width="0.0384082"/>
<path d="M27.0132 29.2962C27.1355 29.2773 27.2095 29.0263 27.1785 28.7356C27.1475 28.4449 27.0233 28.2246 26.901 28.2435C26.7787 28.2624 26.7046 28.5134 26.7356 28.8041C26.7666 29.0948 26.8908 29.3151 27.0132 29.2962Z" fill="#006B3F" stroke="black" stroke-width="0.0384082"/>
<path d="M26.6609 29.1373C26.7832 29.1184 26.8572 28.8674 26.8262 28.5768C26.7952 28.2861 26.671 28.0658 26.5487 28.0847C26.4264 28.1036 26.3523 28.3545 26.3833 28.6452C26.4143 28.9359 26.5385 29.1562 26.6609 29.1373Z" fill="#006B3F" stroke="black" stroke-width="0.0384082"/>
<path d="M26.2142 24.2435C26.2142 24.2435 25.4326 24.9219 25.5203 26.7578C25.6187 28.6042 27.2479 29.4722 27.2479 29.4722C27.2479 29.4722 27.6632 28.9481 27.615 27.4645C27.4985 25.2956 26.7292 24.3372 26.7292 24.3372L26.2142 24.2435Z" fill="#9461C9" stroke="black" stroke-width="0.0306613"/>
<path d="M27.9374 30.3332C28.066 30.337 28.1868 30.1115 28.2073 29.8297C28.2278 29.5478 28.1402 29.3162 28.0117 29.3125C27.8831 29.3087 27.7623 29.5341 27.7418 29.816C27.7213 30.0978 27.8089 30.3294 27.9374 30.3332Z" fill="#006B3F" stroke="black" stroke-width="0.0384963"/>
<path d="M27.5569 30.2328C27.6854 30.2366 27.8063 30.0112 27.8268 29.7293C27.8473 29.4475 27.7597 29.2159 27.6311 29.2121C27.5026 29.2083 27.3818 29.4338 27.3612 29.7156C27.3407 29.9975 27.4283 30.2291 27.5569 30.2328Z" fill="#006B3F" stroke="black" stroke-width="0.0384963"/>
<path d="M27.3699 29.6886C27.4985 29.6924 27.6193 29.4669 27.6398 29.1851C27.6603 28.9032 27.5727 28.6717 27.4442 28.6679C27.3156 28.6641 27.1948 28.8895 27.1743 29.1714C27.1538 29.4532 27.2414 29.6848 27.3699 29.6886Z" fill="#006B3F" stroke="black" stroke-width="0.0384962"/>
<path d="M27.7609 29.7906C27.8847 29.7933 28.0035 29.5435 28.0264 29.2326C28.0492 28.9217 27.9674 28.6674 27.8436 28.6646C27.7199 28.6618 27.6011 28.9117 27.5782 29.2226C27.5554 29.5335 27.6372 29.7878 27.7609 29.7906Z" fill="#006B3F" stroke="black" stroke-width="0.0396681"/>
<path d="M28.3027 29.8581C28.4264 29.8613 28.544 29.6276 28.5653 29.336C28.5866 29.0445 28.5036 28.8055 28.3799 28.8024C28.2562 28.7992 28.1386 29.0329 28.1173 29.3245C28.096 29.616 28.179 29.8549 28.3027 29.8581Z" fill="#006B3F" stroke="black" stroke-width="0.0384082"/>
<path d="M28.0384 29.6257C28.1621 29.6289 28.2797 29.3951 28.301 29.1036C28.3223 28.812 28.2393 28.5731 28.1156 28.5699C27.9919 28.5667 27.8743 28.8004 27.853 29.092C27.8317 29.3835 27.9147 29.6225 28.0384 29.6257Z" fill="#006B3F" stroke="black" stroke-width="0.0384082"/>
<path d="M27.7108 29.2999C27.8345 29.3031 27.9521 29.0694 27.9734 28.7778C27.9947 28.4863 27.9117 28.2473 27.788 28.2441C27.6643 28.2409 27.5467 28.4747 27.5254 28.7662C27.504 29.0578 27.587 29.2967 27.7108 29.2999Z" fill="#006B3F" stroke="black" stroke-width="0.0384082"/>
<path d="M27.3925 29.0808C27.5162 29.084 27.6338 28.8503 27.6551 28.5587C27.6764 28.2672 27.5934 28.0282 27.4697 28.025C27.346 28.0218 27.2284 28.2556 27.2071 28.5472C27.1857 28.8387 27.2687 29.0776 27.3925 29.0808Z" fill="#006B3F" stroke="black" stroke-width="0.0384082"/>
<path d="M28.6698 29.2588C29.0094 29.1276 28.9275 28.1881 28.4868 27.1604C28.046 26.1326 27.4134 25.4058 27.0737 25.537C26.734 25.6683 26.816 26.6078 27.2567 27.6355C27.6974 28.6633 28.3301 29.39 28.6698 29.2588Z" fill="#D41C30" stroke="black" stroke-width="0.0110828"/>
<path d="M27.36 25.7495C27.5188 25.7524 27.6496 25.641 27.6521 25.5007C27.6546 25.3605 27.5279 25.2445 27.369 25.2417C27.2102 25.2388 27.0794 25.3502 27.0769 25.4905C27.0744 25.6307 27.2011 25.7467 27.36 25.7495Z" fill="#006B3F" stroke="black" stroke-width="0.0334722"/>
<path d="M27.5763 25.3906C27.7186 25.3931 27.8359 25.2814 27.8384 25.1412C27.8409 25.001 27.7276 24.8852 27.5853 24.8827C27.443 24.8801 27.3256 24.9918 27.3231 25.132C27.3206 25.2723 27.434 25.388 27.5763 25.3906Z" fill="#006B3F" stroke="black" stroke-width="0.0334712"/>
<path d="M27.2287 25.3844C27.371 25.3869 27.4883 25.2753 27.4908 25.135C27.4933 24.9948 27.38 24.879 27.2377 24.8765C27.0954 24.8739 26.978 24.9856 26.9755 25.1258C26.973 25.2661 27.0864 25.3818 27.2287 25.3844Z" fill="#006B3F" stroke="black" stroke-width="0.0334712"/>
<path d="M27.3056 25.1058C27.4545 25.1084 27.5771 25.0039 27.5795 24.8722C27.5818 24.7405 27.463 24.6317 27.3141 24.629C27.1652 24.6264 27.0425 24.7309 27.0402 24.8626C27.0378 24.9943 27.1567 25.1031 27.3056 25.1058Z" fill="#006B3F" stroke="black" stroke-width="0.0334721"/>
<path d="M27.2749 24.8046C27.4239 24.8072 27.5465 24.7026 27.5488 24.571C27.5512 24.4393 27.4324 24.3304 27.2834 24.3278C27.1345 24.3251 27.0119 24.4297 27.0095 24.5614C27.0072 24.693 27.126 24.8019 27.2749 24.8046Z" fill="#006B3F" stroke="black" stroke-width="0.0334721"/>
<path d="M26.8966 25.1815C27.0389 25.184 27.1563 25.0724 27.1588 24.9321C27.1613 24.7919 27.048 24.6761 26.9057 24.6736C26.7634 24.6711 26.646 24.7827 26.6435 24.9229C26.641 25.0632 26.7543 25.1789 26.8966 25.1815Z" fill="#006B3F" stroke="black" stroke-width="0.0334712"/>
<path d="M26.9744 24.8511C27.1167 24.8536 27.2341 24.7443 27.2365 24.6069C27.239 24.4695 27.1256 24.3561 26.9833 24.3536C26.841 24.351 26.7237 24.4603 26.7212 24.5977C26.7188 24.7351 26.8321 24.8485 26.9744 24.8511Z" fill="#006B3F" stroke="black" stroke-width="0.0334728"/>
<path d="M26.5486 24.8642C26.7074 24.8671 26.8382 24.7557 26.8407 24.6154C26.8432 24.4752 26.7165 24.3592 26.5576 24.3563C26.3988 24.3535 26.268 24.4649 26.2655 24.6052C26.263 24.7454 26.3897 24.8614 26.5486 24.8642Z" fill="#006B3F" stroke="black" stroke-width="0.0334722"/>
<path d="M27.0779 24.4278C27.2268 24.4305 27.3494 24.3259 27.3518 24.1942C27.3541 24.0626 27.2353 23.9537 27.0864 23.951C26.9374 23.9484 26.8148 24.053 26.8125 24.1846C26.8101 24.3163 26.9289 24.4252 27.0779 24.4278Z" fill="#006B3F" stroke="black" stroke-width="0.0334721"/>
<path d="M26.7172 24.4836C26.8595 24.4861 26.9769 24.3768 26.9793 24.2394C26.9818 24.1021 26.8684 23.9886 26.7261 23.9861C26.5838 23.9836 26.4665 24.0929 26.464 24.2303C26.4616 24.3677 26.5749 24.4811 26.7172 24.4836Z" fill="#006B3F" stroke="black" stroke-width="0.0334728"/>
<path d="M26.1707 24.8783C26.313 24.8808 26.4304 24.7691 26.4329 24.6289C26.4354 24.4887 26.3221 24.3729 26.1798 24.3704C26.0375 24.3678 25.9201 24.4795 25.9176 24.6197C25.9151 24.76 26.0284 24.8757 26.1707 24.8783Z" fill="#006B3F" stroke="black" stroke-width="0.0334712"/>
<path d="M26.2604 24.6836C26.4027 24.6861 26.52 24.5768 26.5225 24.4394C26.5249 24.302 26.4116 24.1886 26.2693 24.1861C26.127 24.1835 26.0096 24.2929 26.0072 24.4302C26.0047 24.5676 26.1181 24.6811 26.2604 24.6836Z" fill="#006B3F" stroke="black" stroke-width="0.0334728"/>
<path d="M26.3697 24.4743C26.512 24.4768 26.6294 24.3675 26.6318 24.2301C26.6342 24.0927 26.5209 23.9793 26.3786 23.9768C26.2363 23.9742 26.1189 24.0835 26.1165 24.2209C26.114 24.3583 26.2274 24.4717 26.3697 24.4743Z" fill="#006B3F" stroke="black" stroke-width="0.0334728"/>
<path d="M29.016 29.2983C29.4517 29.1445 29.3785 28.0279 28.8525 26.8042C28.3266 25.5805 27.5471 24.7132 27.1114 24.867C26.6758 25.0208 26.749 26.1374 27.2749 27.3611C27.8009 28.5848 28.5804 29.4521 29.016 29.2983Z" fill="#006B3F" stroke="black" stroke-width="0.0306947"/>
<path d="M28.9577 27.9309C29.0384 27.8925 29.0116 27.6549 28.8978 27.4002C28.784 27.1455 28.6263 26.9701 28.5455 27.0085C28.4648 27.0469 28.4916 27.2845 28.6054 27.5392C28.7192 27.7939 28.8769 27.9693 28.9577 27.9309Z" fill="#006B3F" stroke="black" stroke-width="0.0306644"/>
<path d="M28.678 27.4693C29.3612 28.3012 29.275 28.8295 29.2037 29.2765C28.9891 28.7611 28.8719 28.4367 28.1885 27.6046C27.5052 26.7726 27.8462 26.1887 27.8932 25.8811C27.9959 26.1474 27.9947 26.6373 28.678 27.4693V27.4693Z" fill="#006B3F" stroke="black" stroke-width="0.0306613"/>
<path d="M28.7395 28.1413C29.4228 28.9732 29.3365 29.5014 29.2653 29.9484C29.0506 29.433 28.9334 29.1086 28.25 28.2765C27.5667 27.4445 27.9078 26.8607 27.9547 26.553C28.0574 26.8193 28.0562 27.3092 28.7395 28.1413V28.1413Z" fill="#006B3F" stroke="black" stroke-width="0.0306613"/>
<path d="M28.7601 28.6825C29.4599 29.4997 29.3842 30.0297 29.3219 30.478C29.0969 29.9673 28.9733 29.6455 28.2734 28.8281C27.5736 28.0108 27.9029 27.4199 27.9437 27.1113C28.0517 27.3753 28.0603 27.8651 28.7601 28.6825V28.6825Z" fill="#006B3F" stroke="black" stroke-width="0.0306613"/>
<path d="M28.6379 27.507C28.7979 27.4663 28.765 27.0654 28.5644 26.6116C28.3638 26.1577 28.0715 25.8228 27.9115 25.8636C27.7514 25.9043 27.7843 26.3052 27.9849 26.759C28.1855 27.2129 28.4779 27.5478 28.6379 27.507Z" fill="#006B3F" stroke="black" stroke-width="0.0308745"/>
<path d="M28.2859 27.8276C28.4298 27.8028 28.4201 27.4782 28.2641 27.1025C28.1082 26.7268 27.8651 26.4423 27.7211 26.467C27.5772 26.4918 27.5869 26.8164 27.7428 27.1921C27.8988 27.5678 28.1419 27.8523 28.2859 27.8276Z" fill="#006B3F" stroke="black" stroke-width="0.0310466"/>
<path d="M27.9478 28.1474C28.0923 28.1257 28.0893 27.8009 27.9412 27.422C27.7931 27.0431 27.5559 26.7536 27.4115 26.7753C27.267 26.797 27.27 27.1217 27.4181 27.5006C27.5662 27.8795 27.8034 28.1691 27.9478 28.1474Z" fill="#006B3F" stroke="black" stroke-width="0.031048"/>
<path d="M28.1904 26.8316C28.3068 26.8103 28.2925 26.566 28.1585 26.2859C28.0245 26.0058 27.8215 25.796 27.7052 25.8173C27.5888 25.8387 27.6031 26.083 27.7371 26.3631C27.8711 26.6431 28.074 26.8529 28.1904 26.8316Z" fill="#006B3F" stroke="black" stroke-width="0.03121"/>
<path d="M27.8838 27.0545C28.0013 27.0395 28.0023 26.7949 27.886 26.508C27.7696 26.2212 27.5801 26.0007 27.4625 26.0156C27.345 26.0305 27.3441 26.2752 27.4604 26.562C27.5767 26.8489 27.7663 27.0694 27.8838 27.0545Z" fill="#006B3F" stroke="black" stroke-width="0.0311846"/>
<path d="M27.4597 26.2125C27.6618 26.7061 27.7436 27.1499 27.6422 27.2033C27.5409 27.2566 27.2948 26.8992 27.0928 26.4056" fill="#006B3F"/>
<path d="M27.4597 26.2125C27.6618 26.7061 27.7436 27.1499 27.6422 27.2033C27.5409 27.2566 27.2948 26.8992 27.0928 26.4056" stroke="black" stroke-width="0.0306613"/>
<path d="M27.8506 26.4746C27.9681 26.4597 27.9691 26.2151 27.8528 25.9282C27.7364 25.6413 27.5469 25.4209 27.4293 25.4358C27.3118 25.4507 27.3109 25.6953 27.4272 25.9822C27.5435 26.2691 27.7331 26.4895 27.8506 26.4746Z" fill="#006B3F" stroke="black" stroke-width="0.0311846"/>
<path d="M27.5007 26.6414C27.6185 26.6288 27.625 26.3842 27.5151 26.0952C27.4052 25.8061 27.2206 25.582 27.1028 25.5946C26.9849 25.6072 26.9785 25.8517 27.0884 26.1408C27.1982 26.4299 27.3828 26.654 27.5007 26.6414Z" fill="#006B3F" stroke="black" stroke-width="0.0311751"/>
<path d="M27.1081 25.5421C27.3042 25.8756 27.4098 26.1871 27.3437 26.2374C27.2777 26.2876 27.0649 26.0577 26.8688 25.7242" fill="#006B3F"/>
<path d="M27.1081 25.5421C27.3042 25.8756 27.4098 26.1871 27.3437 26.2374C27.2777 26.2876 27.0649 26.0577 26.8688 25.7242" stroke="black" stroke-width="0.0306613"/>
<path d="M27.2439 25.3209C27.44 25.6544 27.5457 25.9659 27.4795 26.0162C27.4135 26.0664 27.2007 25.8365 27.0046 25.503" fill="#006B3F"/>
<path d="M27.2439 25.3209C27.44 25.6544 27.5457 25.9659 27.4795 26.0162C27.4135 26.0664 27.2007 25.8365 27.0046 25.503" stroke="black" stroke-width="0.0306613"/>
<path d="M27.8541 25.3677C28.1274 25.8233 28.2745 26.2488 28.1823 26.3176C28.0902 26.3864 27.7936 26.0724 27.5203 25.6168" fill="#006B3F"/>
<path d="M27.8541 25.3677C28.1274 25.8233 28.2745 26.2488 28.1823 26.3176C28.0902 26.3864 27.7936 26.0724 27.5203 25.6168" stroke="black" stroke-width="0.0306613"/>
<path d="M27.4508 25.129C27.6478 25.4973 27.7541 25.8409 27.6881 25.8962C27.6222 25.9515 27.4089 25.6975 27.2119 25.3292" fill="#006B3F"/>
<path d="M27.4508 25.129C27.6478 25.4973 27.7541 25.8409 27.6881 25.8962C27.6222 25.9515 27.4089 25.6975 27.2119 25.3292" stroke="black" stroke-width="0.0306613"/>
<path d="M27.4333 24.5955C27.3018 24.7279 27.4306 24.9754 27.5509 25.0649C27.6859 25.1872 28.4439 25.9868 28.9786 25.3141C28.5502 25.3063 27.7505 24.3005 27.4333 24.5955V24.5955Z" fill="#9461C9" stroke="black" stroke-width="0.0314933"/>
<path d="M27.3397 24.2008C27.2082 24.3332 27.337 24.5808 27.4573 24.6702C27.5923 24.7926 28.3502 25.5921 28.885 24.9194C28.4565 24.9116 27.6569 23.9058 27.3397 24.2008V24.2008Z" fill="#9461C9" stroke="black" stroke-width="0.0314933"/>
<path d="M27.2199 23.8227C27.0884 23.9551 27.2172 24.2026 27.3375 24.2921C27.4725 24.4145 28.2304 25.214 28.7652 24.5413C28.3367 24.5335 27.5371 23.5277 27.2199 23.8227V23.8227Z" fill="#9461C9" stroke="black" stroke-width="0.0314933"/>
<path d="M26.9596 23.3901C26.8281 23.5225 26.9568 23.7701 27.0772 23.8595C27.2121 23.9819 27.9701 24.7814 28.5049 24.1087C28.0764 24.1009 27.2768 23.0951 26.9596 23.3901V23.3901Z" fill="#9461C9" stroke="black" stroke-width="0.0314933"/>
<path d="M26.0255 22.9762C26.2965 22.7746 26.7941 22.7157 27.1819 22.9131C27.5048 23.0713 28.0431 23.7169 28.4477 23.8696C28.1629 23.9204 27.9896 23.8775 27.8076 23.79C27.4482 24.0503 27.3201 24.0893 26.9539 24.1404C26.4444 24.2139 26.0216 24.0813 25.873 23.8157C25.7216 23.565 25.7868 23.1629 26.0255 22.9762V22.9762Z" fill="#9461C9" stroke="black" stroke-width="0.033472"/>
<path d="M26.5977 23.5135C26.7266 23.5158 26.8321 23.4571 26.8334 23.3824C26.8348 23.3076 26.7314 23.2452 26.6025 23.2429C26.4737 23.2406 26.3681 23.2993 26.3668 23.374C26.3655 23.4488 26.4688 23.5112 26.5977 23.5135Z" fill="#D41C30" stroke="black" stroke-width="0.0305082"/>
<path d="M25.9575 24.1118C26.1258 24.0491 26.2315 23.9152 26.1934 23.8125C26.1553 23.7099 25.988 23.6774 25.8196 23.7401C25.6512 23.8027 25.5456 23.9367 25.5837 24.0393C25.6218 24.142 25.7891 24.1744 25.9575 24.1118Z" fill="#FCD116" stroke="black" stroke-width="0.0330185"/>
<path d="M26.587 23.4417C26.6334 23.4426 26.6715 23.4107 26.6722 23.3707C26.6729 23.3306 26.636 23.2975 26.5896 23.2966C26.5433 23.2958 26.5052 23.3276 26.5044 23.3677C26.5037 23.4078 26.5407 23.4409 26.587 23.4417Z" fill="black"/>
<path d="M26.0866 23.5593C26.108 23.6632 26.0309 23.8037 25.8636 23.8534C25.6932 23.924 25.564 24.0839 25.4894 24.3455C25.2305 23.749 25.395 23.4967 25.6701 23.4353C25.9067 23.3599 26.0493 23.3694 26.0866 23.5593Z" fill="#FCD116" stroke="black" stroke-width="0.0390293"/>
</g>
</svg>
