<svg width="54" height="48" viewBox="0 0 54 48" fill="none" xmlns="http://www.w3.org/2000/svg">
<mask id="mask0_1_37213" style="mask-type:alpha" maskUnits="userSpaceOnUse" x="3" y="6" width="48" height="36">
<path d="M3.56934 15.1356C4.16681 10.4125 8.0415 7.00193 12.7861 6.60887C16.6412 6.28949 21.6196 6 27 6C32.3804 6 37.3588 6.28949 41.2139 6.60887C45.9585 7.00193 49.8332 10.4125 50.4307 15.1356C50.752 17.6759 51 20.704 51 24C51 27.296 50.752 30.3241 50.4307 32.8644C49.8332 37.5875 45.9585 40.9981 41.2139 41.3911C37.3588 41.7105 32.3804 42 27 42C21.6196 42 16.6412 41.7105 12.7861 41.3911C8.0415 40.9981 4.16681 37.5875 3.56934 32.8644C3.248 30.3241 3 27.296 3 24C3 20.704 3.248 17.6759 3.56934 15.1356Z" fill="#00D0BF"/>
</mask>
<g mask="url(#mask0_1_37213)">
<rect x="3" y="6" width="48" height="36" fill="#1C6864"/>
<rect x="3" y="22.5" width="48" height="3" fill="#2C2929"/>
<rect x="3" y="19.5" width="48" height="3" fill="#FCD95E"/>
<rect x="3" y="25.5" width="48" height="3" fill="#F5F5F5"/>
<rect x="25.5" y="42" width="36" height="3" transform="rotate(-90 25.5 42)" fill="#2C2929"/>
<rect x="22.5" y="48" width="48" height="3" transform="rotate(-90 22.5 48)" fill="#FCD95E"/>
<rect x="28.5" y="48" width="48" height="3" transform="rotate(-90 28.5 48)" fill="#F5F5F5"/>
<path d="M27 32.0534C31.4183 32.0534 35 28.4717 35 24.0534C35 19.6352 31.4183 16.0534 27 16.0534C22.5817 16.0534 19 19.6352 19 24.0534C19 28.4717 22.5817 32.0534 27 32.0534Z" fill="#D41C30"/>
<path d="M26.7435 17.7382L27 17.0065L27.2331 17.7265L28.0144 17.7382L27.3963 18.2102L27.6763 19.0129L27 18.5174L26.3355 18.9894L26.592 18.2102L25.9856 17.7499L26.7435 17.7382Z" fill="#006B3F" stroke="black" stroke-width="0.0533333"/>
<path d="M28.2646 28.5208C28.5273 28.4935 28.6651 27.4185 28.5724 26.1199C28.4796 24.8213 28.1914 23.7908 27.9287 23.8182C27.666 23.8456 27.5282 24.9205 27.6209 26.2191C27.7137 27.5177 28.0019 28.5482 28.2646 28.5208Z" fill="#006B3F" stroke="black" stroke-width="0.0347147"/>
<path d="M28.735 28.5155C29.0129 28.4866 29.1626 27.4105 29.0693 26.112C28.976 24.8135 28.6751 23.7842 28.3972 23.8131C28.1193 23.842 27.9697 24.9181 28.063 26.2166C28.1562 27.5152 28.4571 28.5444 28.735 28.5155Z" fill="#006B3F" stroke="black" stroke-width="0.0357013"/>
<path d="M28.5251 28.8896C28.7474 28.8661 28.8465 27.6833 28.7464 26.2478C28.6464 24.8122 28.385 23.6676 28.1627 23.691C27.9404 23.7145 27.8413 24.8973 27.9414 26.3329C28.0415 27.7684 28.3028 28.9131 28.5251 28.8896Z" fill="#006B3F" stroke="black" stroke-width="0.0335748"/>
<path d="M24.642 27.3902C25.0504 27.3732 24.873 27.1547 25.0793 27.0384C25.2854 26.9223 25.5787 26.9991 25.6668 27.1443C25.7548 27.2895 25.6842 27.4322 25.7974 27.4341C25.9108 27.4361 28.9936 27.3068 29.1047 27.4285C29.2158 27.5501 29.2342 27.7899 29.119 27.8831C29.0039 27.9775 25.1065 28.0211 24.9723 27.9225C24.8381 27.8252 24.6415 27.4142 24.642 27.3902Z" fill="#9C4A00" stroke="black" stroke-width="0.035056"/>
<path d="M26.8199 27.6896C26.8125 27.9976 27.2681 27.9103 27.2744 28.1676C27.2606 28.4403 26.5104 28.1843 26.5032 27.6854C26.5344 27.187 27.2687 26.9407 27.2778 27.2254C27.2846 27.4619 26.8273 27.3815 26.8199 27.6896Z" fill="#FCD116" stroke="black" stroke-width="0.0337387"/>
<path d="M27.0887 27.694C27.0813 28.0021 27.5369 27.9148 27.5432 28.1721C27.5294 28.4448 26.7792 28.1888 26.772 27.6899C26.8032 27.1915 27.5375 26.9452 27.5466 27.2299C27.5533 27.4664 27.0961 27.386 27.0887 27.694Z" fill="#FCD116" stroke="black" stroke-width="0.0337387"/>
<path d="M27.3772 27.6832C27.3698 27.9912 27.8253 27.904 27.8316 28.1612C27.8179 28.434 27.0676 28.1779 27.0604 27.679C27.0916 27.1806 27.826 26.9344 27.835 27.219C27.8418 27.4556 27.3846 27.3752 27.3772 27.6832Z" fill="#FCD116" stroke="black" stroke-width="0.0337387"/>
<path d="M27.646 27.6867C27.6385 27.9947 28.0941 27.9075 28.1004 28.1648C28.0867 28.4375 27.3364 28.1814 27.3292 27.6825C27.3604 27.1842 28.0948 26.9379 28.1038 27.2226C28.1106 27.4591 27.6534 27.3787 27.646 27.6867Z" fill="#FCD116" stroke="black" stroke-width="0.0337387"/>
<path d="M28.9227 27.9115C29.0664 27.9136 29.1853 27.7972 29.1884 27.6514C29.1914 27.5056 29.0775 27.3857 28.9338 27.3835C28.7902 27.3814 28.6713 27.4978 28.6682 27.6436C28.6651 27.7894 28.7791 27.9093 28.9227 27.9115Z" fill="#9C4A00" stroke="black" stroke-width="0.0301597"/>
<path d="M27.4203 27.2725C27.5475 27.2533 27.6262 27.01 27.5962 26.729C27.5661 26.448 27.4387 26.2357 27.3115 26.2549C27.1843 26.2741 27.1056 26.5174 27.1357 26.7985C27.1657 27.0795 27.2932 27.2917 27.4203 27.2725Z" fill="#006B3F" stroke="black" stroke-width="0.0384963"/>
<path d="M27.028 27.2416C27.1552 27.2224 27.2339 26.979 27.2038 26.698C27.1738 26.417 27.0463 26.2048 26.9192 26.224C26.792 26.2431 26.7133 26.4865 26.7433 26.7675C26.7734 27.0485 26.9008 27.2608 27.028 27.2416Z" fill="#006B3F" stroke="black" stroke-width="0.0384963"/>
<path d="M26.747 26.7393C26.8742 26.7202 26.9529 26.4768 26.9228 26.1958C26.8928 25.9148 26.7653 25.7025 26.6382 25.7217C26.511 25.7409 26.4323 25.9843 26.4623 26.2653C26.4924 26.5463 26.6198 26.7585 26.747 26.7393Z" fill="#006B3F" stroke="black" stroke-width="0.0384962"/>
<path d="M27.1499 26.77C27.2722 26.7507 27.3446 26.4837 27.3117 26.1737C27.2787 25.8636 27.1529 25.628 27.0306 25.6473C26.9084 25.6667 26.836 25.9337 26.8689 26.2437C26.9019 26.5537 27.0277 26.7893 27.1499 26.77Z" fill="#006B3F" stroke="black" stroke-width="0.0396681"/>
<path d="M27.6951 26.74C27.8174 26.7211 27.8914 26.4701 27.8605 26.1794C27.8295 25.8887 27.7052 25.6684 27.5829 25.6873C27.4606 25.7062 27.3866 25.9572 27.4175 26.2479C27.4485 26.5386 27.5728 26.7589 27.6951 26.74Z" fill="#006B3F" stroke="black" stroke-width="0.0384082"/>
<path d="M27.3936 26.5583C27.5159 26.5394 27.5899 26.2884 27.559 25.9977C27.528 25.7071 27.4037 25.4867 27.2814 25.5057C27.1591 25.5246 27.0851 25.7755 27.116 26.0662C27.147 26.3569 27.2713 26.5772 27.3936 26.5583Z" fill="#006B3F" stroke="black" stroke-width="0.0384082"/>
<path d="M27.0132 26.2962C27.1355 26.2773 27.2095 26.0263 27.1785 25.7356C27.1475 25.4449 27.0233 25.2246 26.901 25.2435C26.7787 25.2624 26.7046 25.5134 26.7356 25.8041C26.7666 26.0948 26.8908 26.3151 27.0132 26.2962Z" fill="#006B3F" stroke="black" stroke-width="0.0384082"/>
<path d="M26.6609 26.1373C26.7832 26.1184 26.8572 25.8674 26.8262 25.5768C26.7952 25.2861 26.671 25.0658 26.5487 25.0847C26.4264 25.1036 26.3523 25.3545 26.3833 25.6452C26.4143 25.9359 26.5385 26.1562 26.6609 26.1373Z" fill="#006B3F" stroke="black" stroke-width="0.0384082"/>
<path d="M26.2142 21.2435C26.2142 21.2435 25.4326 21.9219 25.5203 23.7578C25.6187 25.6042 27.2479 26.4722 27.2479 26.4722C27.2479 26.4722 27.6632 25.9481 27.615 24.4645C27.4985 22.2956 26.7292 21.3372 26.7292 21.3372L26.2142 21.2435Z" fill="#9461C9" stroke="black" stroke-width="0.0306613"/>
<path d="M27.9374 27.3332C28.066 27.337 28.1868 27.1115 28.2073 26.8297C28.2278 26.5478 28.1402 26.3162 28.0117 26.3125C27.8831 26.3087 27.7623 26.5341 27.7418 26.816C27.7213 27.0978 27.8089 27.3294 27.9374 27.3332Z" fill="#006B3F" stroke="black" stroke-width="0.0384963"/>
<path d="M27.5569 27.2328C27.6854 27.2366 27.8063 27.0112 27.8268 26.7293C27.8473 26.4475 27.7597 26.2159 27.6311 26.2121C27.5026 26.2083 27.3818 26.4338 27.3612 26.7156C27.3407 26.9975 27.4283 27.2291 27.5569 27.2328Z" fill="#006B3F" stroke="black" stroke-width="0.0384963"/>
<path d="M27.3699 26.6886C27.4985 26.6924 27.6193 26.4669 27.6398 26.1851C27.6603 25.9032 27.5727 25.6717 27.4442 25.6679C27.3156 25.6641 27.1948 25.8895 27.1743 26.1714C27.1538 26.4532 27.2414 26.6848 27.3699 26.6886Z" fill="#006B3F" stroke="black" stroke-width="0.0384962"/>
<path d="M27.7609 26.7906C27.8847 26.7933 28.0035 26.5435 28.0264 26.2326C28.0492 25.9217 27.9674 25.6674 27.8436 25.6646C27.7199 25.6618 27.6011 25.9117 27.5782 26.2226C27.5554 26.5335 27.6372 26.7878 27.7609 26.7906Z" fill="#006B3F" stroke="black" stroke-width="0.0396681"/>
<path d="M28.3027 26.8581C28.4264 26.8613 28.544 26.6276 28.5653 26.336C28.5866 26.0445 28.5036 25.8055 28.3799 25.8024C28.2562 25.7992 28.1386 26.0329 28.1173 26.3245C28.096 26.616 28.179 26.8549 28.3027 26.8581Z" fill="#006B3F" stroke="black" stroke-width="0.0384082"/>
<path d="M28.0384 26.6257C28.1621 26.6289 28.2797 26.3951 28.301 26.1036C28.3223 25.812 28.2393 25.5731 28.1156 25.5699C27.9919 25.5667 27.8743 25.8004 27.853 26.092C27.8317 26.3835 27.9147 26.6225 28.0384 26.6257Z" fill="#006B3F" stroke="black" stroke-width="0.0384082"/>
<path d="M27.7108 26.2999C27.8345 26.3031 27.9521 26.0694 27.9734 25.7778C27.9947 25.4863 27.9117 25.2473 27.788 25.2441C27.6643 25.2409 27.5467 25.4747 27.5254 25.7662C27.504 26.0578 27.587 26.2967 27.7108 26.2999Z" fill="#006B3F" stroke="black" stroke-width="0.0384082"/>
<path d="M27.3925 26.0808C27.5162 26.084 27.6338 25.8503 27.6551 25.5587C27.6764 25.2672 27.5934 25.0282 27.4697 25.025C27.346 25.0218 27.2284 25.2556 27.2071 25.5472C27.1857 25.8387 27.2687 26.0776 27.3925 26.0808Z" fill="#006B3F" stroke="black" stroke-width="0.0384082"/>
<path d="M28.6698 26.2588C29.0094 26.1276 28.9275 25.1881 28.4868 24.1604C28.046 23.1326 27.4134 22.4058 27.0737 22.537C26.734 22.6683 26.816 23.6078 27.2567 24.6355C27.6974 25.6633 28.3301 26.39 28.6698 26.2588Z" fill="#D41C30" stroke="black" stroke-width="0.0110828"/>
<path d="M27.36 22.7495C27.5188 22.7524 27.6496 22.641 27.6521 22.5007C27.6546 22.3605 27.5279 22.2445 27.369 22.2417C27.2102 22.2388 27.0794 22.3502 27.0769 22.4905C27.0744 22.6307 27.2011 22.7467 27.36 22.7495Z" fill="#006B3F" stroke="black" stroke-width="0.0334722"/>
<path d="M27.5763 22.3906C27.7186 22.3931 27.8359 22.2814 27.8384 22.1412C27.8409 22.001 27.7276 21.8852 27.5853 21.8827C27.443 21.8801 27.3256 21.9918 27.3231 22.132C27.3206 22.2723 27.434 22.388 27.5763 22.3906Z" fill="#006B3F" stroke="black" stroke-width="0.0334712"/>
<path d="M27.2287 22.3844C27.371 22.3869 27.4883 22.2753 27.4908 22.135C27.4933 21.9948 27.38 21.879 27.2377 21.8765C27.0954 21.8739 26.978 21.9856 26.9755 22.1258C26.973 22.2661 27.0864 22.3818 27.2287 22.3844Z" fill="#006B3F" stroke="black" stroke-width="0.0334712"/>
<path d="M27.3056 22.1058C27.4545 22.1084 27.5771 22.0039 27.5795 21.8722C27.5818 21.7405 27.463 21.6317 27.3141 21.629C27.1652 21.6264 27.0425 21.7309 27.0402 21.8626C27.0378 21.9943 27.1567 22.1031 27.3056 22.1058Z" fill="#006B3F" stroke="black" stroke-width="0.0334721"/>
<path d="M27.2749 21.8046C27.4239 21.8072 27.5465 21.7026 27.5488 21.571C27.5512 21.4393 27.4324 21.3304 27.2834 21.3278C27.1345 21.3251 27.0119 21.4297 27.0095 21.5614C27.0072 21.693 27.126 21.8019 27.2749 21.8046Z" fill="#006B3F" stroke="black" stroke-width="0.0334721"/>
<path d="M26.8966 22.1815C27.0389 22.184 27.1563 22.0724 27.1588 21.9321C27.1613 21.7919 27.048 21.6761 26.9057 21.6736C26.7634 21.6711 26.646 21.7827 26.6435 21.9229C26.641 22.0632 26.7543 22.1789 26.8966 22.1815Z" fill="#006B3F" stroke="black" stroke-width="0.0334712"/>
<path d="M26.9744 21.8511C27.1167 21.8536 27.2341 21.7443 27.2365 21.6069C27.239 21.4695 27.1256 21.3561 26.9833 21.3536C26.841 21.351 26.7237 21.4603 26.7212 21.5977C26.7188 21.7351 26.8321 21.8485 26.9744 21.8511Z" fill="#006B3F" stroke="black" stroke-width="0.0334728"/>
<path d="M26.5486 21.8642C26.7074 21.8671 26.8382 21.7557 26.8407 21.6154C26.8432 21.4752 26.7165 21.3592 26.5576 21.3563C26.3988 21.3535 26.268 21.4649 26.2655 21.6052C26.263 21.7454 26.3897 21.8614 26.5486 21.8642Z" fill="#006B3F" stroke="black" stroke-width="0.0334722"/>
<path d="M27.0779 21.4278C27.2268 21.4305 27.3494 21.3259 27.3518 21.1942C27.3541 21.0626 27.2353 20.9537 27.0864 20.951C26.9374 20.9484 26.8148 21.053 26.8125 21.1846C26.8101 21.3163 26.9289 21.4252 27.0779 21.4278Z" fill="#006B3F" stroke="black" stroke-width="0.0334721"/>
<path d="M26.7172 21.4836C26.8595 21.4861 26.9769 21.3768 26.9793 21.2394C26.9818 21.1021 26.8684 20.9886 26.7261 20.9861C26.5838 20.9836 26.4665 21.0929 26.464 21.2303C26.4616 21.3677 26.5749 21.4811 26.7172 21.4836Z" fill="#006B3F" stroke="black" stroke-width="0.0334728"/>
<path d="M26.1707 21.8783C26.313 21.8808 26.4304 21.7691 26.4329 21.6289C26.4354 21.4887 26.3221 21.3729 26.1798 21.3704C26.0375 21.3678 25.9201 21.4795 25.9176 21.6197C25.9151 21.76 26.0284 21.8757 26.1707 21.8783Z" fill="#006B3F" stroke="black" stroke-width="0.0334712"/>
<path d="M26.2604 21.6836C26.4027 21.6861 26.52 21.5768 26.5225 21.4394C26.5249 21.302 26.4116 21.1886 26.2693 21.1861C26.127 21.1835 26.0096 21.2929 26.0072 21.4302C26.0047 21.5676 26.1181 21.6811 26.2604 21.6836Z" fill="#006B3F" stroke="black" stroke-width="0.0334728"/>
<path d="M26.3697 21.4743C26.512 21.4768 26.6294 21.3675 26.6318 21.2301C26.6342 21.0927 26.5209 20.9793 26.3786 20.9768C26.2363 20.9742 26.1189 21.0835 26.1165 21.2209C26.114 21.3583 26.2274 21.4717 26.3697 21.4743Z" fill="#006B3F" stroke="black" stroke-width="0.0334728"/>
<path d="M29.016 26.2983C29.4517 26.1445 29.3785 25.0279 28.8525 23.8042C28.3266 22.5805 27.5471 21.7132 27.1114 21.867C26.6758 22.0208 26.749 23.1374 27.2749 24.3611C27.8009 25.5848 28.5804 26.4521 29.016 26.2983Z" fill="#006B3F" stroke="black" stroke-width="0.0306947"/>
<path d="M28.9577 24.9309C29.0384 24.8925 29.0116 24.6549 28.8978 24.4002C28.784 24.1455 28.6263 23.9701 28.5455 24.0085C28.4648 24.0469 28.4916 24.2845 28.6054 24.5392C28.7192 24.7939 28.8769 24.9693 28.9577 24.9309Z" fill="#006B3F" stroke="black" stroke-width="0.0306644"/>
<path d="M28.678 24.4693C29.3612 25.3012 29.275 25.8295 29.2037 26.2765C28.9891 25.7611 28.8719 25.4367 28.1885 24.6046C27.5052 23.7726 27.8462 23.1887 27.8932 22.8811C27.9959 23.1474 27.9947 23.6373 28.678 24.4693Z" fill="#006B3F" stroke="black" stroke-width="0.0306613"/>
<path d="M28.7395 25.1413C29.4228 25.9732 29.3365 26.5014 29.2653 26.9484C29.0506 26.433 28.9334 26.1086 28.25 25.2765C27.5667 24.4445 27.9078 23.8607 27.9547 23.553C28.0574 23.8193 28.0562 24.3092 28.7395 25.1413Z" fill="#006B3F" stroke="black" stroke-width="0.0306613"/>
<path d="M28.7601 25.6825C29.4599 26.4997 29.3842 27.0297 29.3219 27.478C29.0969 26.9673 28.9733 26.6455 28.2734 25.8281C27.5736 25.0108 27.9029 24.4199 27.9437 24.1113C28.0517 24.3753 28.0603 24.8651 28.7601 25.6825Z" fill="#006B3F" stroke="black" stroke-width="0.0306613"/>
<path d="M28.6379 24.507C28.7979 24.4663 28.765 24.0654 28.5644 23.6116C28.3638 23.1577 28.0715 22.8228 27.9115 22.8636C27.7514 22.9043 27.7843 23.3052 27.9849 23.759C28.1855 24.2129 28.4779 24.5478 28.6379 24.507Z" fill="#006B3F" stroke="black" stroke-width="0.0308745"/>
<path d="M28.2859 24.8276C28.4298 24.8028 28.4201 24.4782 28.2641 24.1025C28.1082 23.7268 27.8651 23.4423 27.7211 23.467C27.5772 23.4918 27.5869 23.8164 27.7428 24.1921C27.8988 24.5678 28.1419 24.8523 28.2859 24.8276Z" fill="#006B3F" stroke="black" stroke-width="0.0310466"/>
<path d="M27.9478 25.1474C28.0923 25.1257 28.0893 24.8009 27.9412 24.422C27.7931 24.0431 27.5559 23.7536 27.4115 23.7753C27.267 23.797 27.27 24.1217 27.4181 24.5006C27.5662 24.8795 27.8034 25.1691 27.9478 25.1474Z" fill="#006B3F" stroke="black" stroke-width="0.031048"/>
<path d="M28.1904 23.8316C28.3068 23.8103 28.2925 23.566 28.1585 23.2859C28.0245 23.0058 27.8215 22.796 27.7052 22.8173C27.5888 22.8387 27.6031 23.083 27.7371 23.3631C27.8711 23.6431 28.074 23.8529 28.1904 23.8316Z" fill="#006B3F" stroke="black" stroke-width="0.03121"/>
<path d="M27.8838 24.0545C28.0013 24.0395 28.0023 23.7949 27.886 23.508C27.7696 23.2212 27.5801 23.0007 27.4625 23.0156C27.345 23.0305 27.3441 23.2752 27.4604 23.562C27.5767 23.8489 27.7663 24.0694 27.8838 24.0545Z" fill="#006B3F" stroke="black" stroke-width="0.0311846"/>
<path d="M27.4597 23.2125C27.6618 23.7061 27.7436 24.1499 27.6422 24.2033C27.5409 24.2566 27.2948 23.8992 27.0928 23.4056" fill="#006B3F"/>
<path d="M27.4597 23.2125C27.6618 23.7061 27.7436 24.1499 27.6422 24.2033C27.5409 24.2566 27.2948 23.8992 27.0928 23.4056" stroke="black" stroke-width="0.0306613"/>
<path d="M27.8506 23.4746C27.9681 23.4597 27.9691 23.2151 27.8528 22.9282C27.7364 22.6413 27.5469 22.4209 27.4293 22.4358C27.3118 22.4507 27.3109 22.6953 27.4272 22.9822C27.5435 23.2691 27.7331 23.4895 27.8506 23.4746Z" fill="#006B3F" stroke="black" stroke-width="0.0311846"/>
<path d="M27.5007 23.6414C27.6185 23.6288 27.625 23.3842 27.5151 23.0952C27.4052 22.8061 27.2206 22.582 27.1028 22.5946C26.9849 22.6072 26.9785 22.8517 27.0884 23.1408C27.1982 23.4299 27.3828 23.654 27.5007 23.6414Z" fill="#006B3F" stroke="black" stroke-width="0.0311751"/>
<path d="M27.1081 22.5421C27.3042 22.8756 27.4098 23.1871 27.3437 23.2374C27.2777 23.2876 27.0649 23.0577 26.8688 22.7242" fill="#006B3F"/>
<path d="M27.1081 22.5421C27.3042 22.8756 27.4098 23.1871 27.3437 23.2374C27.2777 23.2876 27.0649 23.0577 26.8688 22.7242" stroke="black" stroke-width="0.0306613"/>
<path d="M27.2439 22.3209C27.44 22.6544 27.5457 22.9659 27.4795 23.0162C27.4135 23.0664 27.2007 22.8365 27.0046 22.503" fill="#006B3F"/>
<path d="M27.2439 22.3209C27.44 22.6544 27.5457 22.9659 27.4795 23.0162C27.4135 23.0664 27.2007 22.8365 27.0046 22.503" stroke="black" stroke-width="0.0306613"/>
<path d="M27.8541 22.3677C28.1274 22.8233 28.2745 23.2488 28.1823 23.3176C28.0902 23.3864 27.7936 23.0724 27.5203 22.6168" fill="#006B3F"/>
<path d="M27.8541 22.3677C28.1274 22.8233 28.2745 23.2488 28.1823 23.3176C28.0902 23.3864 27.7936 23.0724 27.5203 22.6168" stroke="black" stroke-width="0.0306613"/>
<path d="M27.4508 22.129C27.6478 22.4973 27.7541 22.8409 27.6881 22.8962C27.6222 22.9515 27.4089 22.6975 27.2119 22.3292" fill="#006B3F"/>
<path d="M27.4508 22.129C27.6478 22.4973 27.7541 22.8409 27.6881 22.8962C27.6222 22.9515 27.4089 22.6975 27.2119 22.3292" stroke="black" stroke-width="0.0306613"/>
<path d="M27.4333 21.5955C27.3018 21.7279 27.4306 21.9754 27.5509 22.0649C27.6859 22.1872 28.4439 22.9868 28.9786 22.3141C28.5502 22.3063 27.7505 21.3005 27.4333 21.5955Z" fill="#9461C9" stroke="black" stroke-width="0.0314933"/>
<path d="M27.3397 21.2008C27.2082 21.3332 27.337 21.5808 27.4573 21.6702C27.5923 21.7926 28.3502 22.5921 28.885 21.9194C28.4565 21.9116 27.6569 20.9058 27.3397 21.2008Z" fill="#9461C9" stroke="black" stroke-width="0.0314933"/>
<path d="M27.2199 20.8227C27.0884 20.9551 27.2172 21.2026 27.3375 21.2921C27.4725 21.4145 28.2304 22.214 28.7652 21.5413C28.3367 21.5335 27.5371 20.5277 27.2199 20.8227Z" fill="#9461C9" stroke="black" stroke-width="0.0314933"/>
<path d="M26.9596 20.3901C26.8281 20.5225 26.9568 20.7701 27.0772 20.8595C27.2121 20.9819 27.9701 21.7814 28.5049 21.1087C28.0764 21.1009 27.2768 20.0951 26.9596 20.3901Z" fill="#9461C9" stroke="black" stroke-width="0.0314933"/>
<path d="M26.0255 19.9762C26.2965 19.7746 26.7941 19.7157 27.1819 19.9131C27.5048 20.0713 28.0431 20.7169 28.4477 20.8696C28.1629 20.9204 27.9896 20.8775 27.8076 20.79C27.4482 21.0503 27.3201 21.0893 26.9539 21.1404C26.4444 21.2139 26.0216 21.0813 25.873 20.8157C25.7216 20.565 25.7868 20.1629 26.0255 19.9762Z" fill="#9461C9" stroke="black" stroke-width="0.033472"/>
<path d="M26.5977 20.5135C26.7266 20.5158 26.8321 20.4571 26.8334 20.3824C26.8348 20.3076 26.7314 20.2452 26.6025 20.2429C26.4737 20.2406 26.3681 20.2993 26.3668 20.374C26.3655 20.4488 26.4688 20.5112 26.5977 20.5135Z" fill="#D41C30" stroke="black" stroke-width="0.0305082"/>
<path d="M25.9575 21.1118C26.1258 21.0491 26.2315 20.9152 26.1934 20.8125C26.1553 20.7099 25.988 20.6774 25.8196 20.7401C25.6512 20.8027 25.5456 20.9367 25.5837 21.0393C25.6218 21.142 25.7891 21.1744 25.9575 21.1118Z" fill="#FCD116" stroke="black" stroke-width="0.0330185"/>
<path d="M26.587 20.4417C26.6334 20.4426 26.6715 20.4107 26.6722 20.3707C26.6729 20.3306 26.636 20.2975 26.5896 20.2966C26.5433 20.2958 26.5052 20.3276 26.5044 20.3677C26.5037 20.4078 26.5407 20.4409 26.587 20.4417Z" fill="black"/>
<path d="M26.0866 20.5593C26.108 20.6632 26.0309 20.8037 25.8636 20.8534C25.6932 20.924 25.564 21.0839 25.4894 21.3455C25.2305 20.749 25.395 20.4967 25.6701 20.4353C25.9067 20.3599 26.0493 20.3694 26.0866 20.5593Z" fill="#FCD116" stroke="black" stroke-width="0.0390293"/>
</g>
</svg>
