<svg width="54" height="48" viewBox="0 0 54 48" fill="none" xmlns="http://www.w3.org/2000/svg">
<mask id="mask0_1_34056" style="mask-type:alpha" maskUnits="userSpaceOnUse" x="3" y="6" width="48" height="36">
<path d="M3.56934 15.1356C4.16681 10.4125 8.0415 7.00193 12.7861 6.60887C16.6412 6.28949 21.6196 6 27 6C32.3804 6 37.3588 6.28949 41.2139 6.60887C45.9585 7.00193 49.8332 10.4125 50.4307 15.1356C50.752 17.6759 51 20.704 51 24C51 27.296 50.752 30.3241 50.4307 32.8644C49.8332 37.5875 45.9585 40.9981 41.2139 41.3911C37.3588 41.7105 32.3804 42 27 42C21.6196 42 16.6412 41.7105 12.7861 41.3911C8.0415 40.9981 4.16681 37.5875 3.56934 32.8644C3.248 30.3241 3 27.296 3 24C3 20.704 3.248 17.6759 3.56934 15.1356Z" fill="#00D0BF"/>
</mask>
<g mask="url(#mask0_1_34056)">
<rect x="3" width="24" height="49" fill="#59C785"/>
<rect x="27" width="24" height="49" fill="#F5F5F5"/>
<path d="M36.6649 18.9731C35.5582 17.0563 33.8501 15.5583 31.8053 14.7114C29.7606 13.8644 27.4935 13.7158 25.3557 14.2886C23.2178 14.8615 21.3288 16.1237 19.9814 17.8796C18.6341 19.6354 17.9038 21.7868 17.9038 24.0001C17.9038 26.2133 18.6341 28.3647 19.9814 30.1206C21.3288 31.8764 23.2178 33.1387 25.3557 33.7115C27.4935 34.2843 29.7606 34.1357 31.8053 33.2888C33.8501 32.4418 35.5582 30.9438 36.6649 29.0271C35.6234 30.3279 34.2035 31.2732 32.6016 31.7322C30.9996 32.1912 29.2947 32.1413 27.7223 31.5894C26.1499 31.0375 24.7878 30.0108 23.8242 28.6513C22.8605 27.2918 22.3429 25.6665 22.3429 24.0001C22.3429 22.3337 22.8605 20.7084 23.8242 19.3489C24.7878 17.9893 26.1499 16.9627 27.7223 16.4108C29.2947 15.8589 30.9996 15.809 32.6016 16.268C34.2035 16.727 35.6234 17.6722 36.6649 18.9731ZM37 24.0001L27.9514 21.0509L33.5816 28.759V19.2412L27.9514 26.9492L37 24.0001Z" fill="#EE5757"/>
</g>
</svg>
