<svg width="54" height="54" viewBox="0 0 54 54" fill="none" xmlns="http://www.w3.org/2000/svg">
<mask id="mask0_1_34056" style="mask-type:alpha" maskUnits="userSpaceOnUse" x="3" y="9" width="48" height="36">
<path d="M3.56934 18.1356C4.16681 13.4125 8.0415 10.0019 12.7861 9.60887C16.6412 9.28949 21.6196 9 27 9C32.3804 9 37.3588 9.28949 41.2139 9.60887C45.9585 10.0019 49.8332 13.4125 50.4307 18.1356C50.752 20.6759 51 23.704 51 27C51 30.296 50.752 33.3241 50.4307 35.8644C49.8332 40.5875 45.9585 43.9981 41.2139 44.3911C37.3588 44.7105 32.3804 45 27 45C21.6196 45 16.6412 44.7105 12.7861 44.3911C8.04151 43.9981 4.16681 40.5875 3.56934 35.8644C3.248 33.3241 3 30.296 3 27C3 23.704 3.248 20.6759 3.56934 18.1356Z" fill="#00D0BF"/>
</mask>
<g mask="url(#mask0_1_34056)">
<rect x="3" y="3" width="24" height="49" fill="#59C785"/>
<rect x="27" y="3" width="24" height="49" fill="#F5F5F5"/>
<path d="M36.6649 21.9731C35.5582 20.0563 33.8501 18.5583 31.8053 17.7114C29.7606 16.8644 27.4935 16.7158 25.3557 17.2886C23.2178 17.8615 21.3288 19.1237 19.9814 20.8796C18.6341 22.6354 17.9038 24.7868 17.9038 27.0001C17.9038 29.2133 18.6341 31.3647 19.9814 33.1206C21.3288 34.8764 23.2178 36.1387 25.3557 36.7115C27.4935 37.2843 29.7606 37.1357 31.8053 36.2888C33.8501 35.4418 35.5582 33.9438 36.6649 32.0271C35.6234 33.3279 34.2035 34.2732 32.6016 34.7322C30.9996 35.1912 29.2947 35.1413 27.7223 34.5894C26.1499 34.0375 24.7878 33.0108 23.8242 31.6513C22.8605 30.2918 22.3429 28.6665 22.3429 27.0001C22.3429 25.3337 22.8605 23.7084 23.8242 22.3489C24.7878 20.9893 26.1499 19.9627 27.7223 19.4108C29.2947 18.8589 30.9996 18.809 32.6016 19.268C34.2035 19.727 35.6234 20.6722 36.6649 21.9731ZM37 27.0001L27.9514 24.0509L33.5816 31.759V22.2412L27.9514 29.9492L37 27.0001Z" fill="#EE5757"/>
</g>
</svg>
