<svg width="54" height="54" viewBox="0 0 54 54" fill="none" xmlns="http://www.w3.org/2000/svg">
<mask id="mask0_1_38717" style="mask-type:alpha" maskUnits="userSpaceOnUse" x="3" y="9" width="48" height="36">
<path d="M3.56934 18.1356C4.16681 13.4125 8.0415 10.0019 12.7861 9.60887C16.6412 9.28949 21.6196 9 27 9C32.3804 9 37.3588 9.28949 41.2139 9.60887C45.9585 10.0019 49.8332 13.4125 50.4307 18.1356C50.752 20.6759 51 23.704 51 27C51 30.296 50.752 33.3241 50.4307 35.8644C49.8332 40.5875 45.9585 43.9981 41.2139 44.3911C37.3588 44.7105 32.3804 45 27 45C21.6196 45 16.6412 44.7105 12.7861 44.3911C8.04151 43.9981 4.16681 40.5875 3.56934 35.8644C3.248 33.3241 3 30.296 3 27C3 23.704 3.248 20.6759 3.56934 18.1356Z" fill="#00D0BF"/>
</mask>
<g mask="url(#mask0_1_38717)">
<rect x="3" y="33" width="48" height="12" fill="#2C2929"/>
<rect x="3" y="21" width="48" height="12" fill="#F5F5F5"/>
<path d="M27.0412 26.8652L31 30.5403L30.7182 23.8657C30.6767 22.8542 29.7977 23.0862 29.1591 23.4512C28.5123 23.8657 27.7743 23.8657 26.9946 23.592C26.2152 23.8657 25.4771 23.8657 24.8302 23.4511C24.1917 23.0863 23.3128 22.8541 23.2713 23.8657L22.9893 30.5403L27.0412 26.8652Z" fill="white" stroke="#C09300" stroke-width="0.0734312" stroke-linejoin="round"/>
<path d="M23.7267 23.6334L23.453 30.1258L22.9886 30.5402L23.2706 23.8656C23.4032 23.7744 23.6355 23.6334 23.7267 23.6334V23.6334ZM24.2827 24.0981L24.0506 29.529L23.5863 30.0042L23.8682 23.7331C23.9595 23.8242 24.2332 24.0481 24.2827 24.0978V24.0981ZM24.7885 24.5126L24.6062 29.0421L24.233 29.4069L24.4653 24.2389C24.5563 24.3301 24.7387 24.4628 24.7885 24.5126ZM25.3359 24.7449L25.1535 28.6054L24.7886 28.9014L24.971 24.604C25.0623 24.6454 25.2447 24.7449 25.3359 24.7449V24.7449ZM25.8417 24.7449L25.7089 27.9621L25.3358 28.327L25.4769 24.7864C25.5679 24.7864 25.8001 24.7864 25.8417 24.7449V24.7449Z" fill="#C09300"/>
<path d="M30.2532 23.6334L30.5268 30.1258L30.9913 30.5402L30.7092 23.8656C30.5766 23.7744 30.3443 23.6334 30.2532 23.6334V23.6334ZM29.6971 24.0981L29.9293 29.529L30.3936 30.0042L30.1117 23.7331C30.0204 23.8242 29.7467 24.0481 29.6971 24.0978V24.0981ZM29.1913 24.5126L29.3737 29.0421L29.7468 29.4069L29.5146 24.2389C29.4236 24.3301 29.2412 24.4628 29.1913 24.5126ZM28.6439 24.7449L28.8264 28.6054L29.1913 28.9014L29.0088 24.604C28.9176 24.6454 28.7351 24.7449 28.6439 24.7449V24.7449ZM28.1382 24.7449L28.2709 27.9621L28.644 28.327L28.503 24.7864C28.412 24.7864 28.1797 24.7864 28.1382 24.7449V24.7449Z" fill="#C09300"/>
<path d="M27.1769 27.597L27.7326 30.1262L27.5501 30.3085L27.3593 30.1676L27.0442 27.9122L27.1769 30.1676L26.9944 30.3997L26.812 30.1676L26.9447 27.9122L26.6296 30.1676L26.4387 30.3085L26.2564 30.1262L26.812 27.597H27.1769V27.597Z" fill="#C09300" stroke="#C09300" stroke-width="0.0620729"/>
<path d="M25.7504 26.486L24.6475 30.3996L26.1651 30.6318L26.8118 27.6882L25.7503 26.486L25.7504 26.486Z" fill="white" stroke="#C09300" stroke-width="0.0687289" stroke-linejoin="round"/>
<path d="M25.3856 27.8213L25.5183 28.1446L26.2354 27.4597" stroke="#C09300" stroke-width="0.0734043" stroke-linejoin="round"/>
<path d="M26.3059 30.1263L26.1446 29.3634L26.0038 28.5875L25.6662 29.0446L25.5182 28.5175L25.0457 29.0022L25.286 29.8838L25.6176 29.3384L25.8 29.894L26.1405 29.3644M25.8821 27.0108L26.0322 28.4181L26.4883 27.8211L25.8821 27.0108ZM26.3058 28.053L26.555 28.9128L26.3058 28.053ZM26.6527 28.5969L26.1487 29.3623L26.6527 28.5969Z" stroke="#C09300" stroke-width="0.0734043" stroke-linejoin="round"/>
<path d="M24.9706 30.3085L25.2769 29.8782L25.4765 30.5405L25.7502 30.0762L25.9327 30.6319" stroke="#C09300" stroke-width="0.0734043" stroke-linejoin="round"/>
<path d="M28.2294 26.486L29.3323 30.3996L27.8147 30.6318L27.168 27.6882L28.2295 26.486L28.2294 26.486Z" fill="white" stroke="#C09300" stroke-width="0.0687289" stroke-linejoin="round"/>
<path d="M28.5942 27.8213L28.4615 28.1446L27.7444 27.4597" stroke="#C09300" stroke-width="0.0734043" stroke-linejoin="round"/>
<path d="M27.6739 30.1263L27.8352 29.3634L27.976 28.5875L28.3136 29.0446L28.4616 28.5175L28.9341 29.0022L28.6938 29.8838L28.3622 29.3384L28.1798 29.894L27.8393 29.3644M28.0977 27.0108L27.9476 28.4181L27.4915 27.8211L28.0977 27.0108ZM27.674 28.053L27.4248 28.9128L27.674 28.053ZM27.3271 28.5969L27.8311 29.3623L27.3271 28.5969Z" stroke="#C09300" stroke-width="0.0734043" stroke-linejoin="round"/>
<path d="M29.0092 30.3085L28.7029 29.8782L28.5033 30.5405L28.2296 30.0762L28.0471 30.6319" stroke="#C09300" stroke-width="0.0734043" stroke-linejoin="round"/>
<path d="M26.9943 32.149C28.1471 32.149 29.25 32.0578 29.8968 31.8754C30.1705 31.8257 30.1705 31.6848 30.1705 31.5022C30.4442 31.4111 30.3032 31.0878 30.4939 31.0878C30.3032 31.1376 30.2618 30.7644 30.0296 30.8143C30.0296 30.4908 29.7061 30.4494 29.4325 30.5404C28.8851 30.7229 27.9148 30.7644 26.9943 30.7644C26.0738 30.7229 25.1118 30.7229 24.5562 30.5404C24.2826 30.4494 23.9593 30.4908 23.9593 30.8143C23.727 30.7644 23.6856 31.1376 23.4949 31.0878C23.6856 31.0878 23.5446 31.4111 23.8182 31.5022C23.8182 31.6848 23.8182 31.8257 24.1002 31.8754C24.7386 32.0578 25.8417 32.149 26.9943 32.149H26.9943Z" fill="white" stroke="#C09300" stroke-width="0.137458" stroke-linecap="round" stroke-linejoin="round"/>
<path d="M25.4272 30.3993C25.8003 30.4491 26.215 30.4905 26.5385 30.4491C26.7208 30.4491 26.8535 30.7641 26.4887 30.814C26.1654 30.8553 25.6595 30.814 25.3858 30.7641C25.1536 30.7227 24.6477 30.6315 24.3243 30.5401C24.0009 30.3993 24.2332 30.1258 24.4154 30.1672C24.6974 30.2583 25.0624 30.3496 25.4273 30.3993L25.4272 30.3993ZM28.5619 30.3993C28.1887 30.4491 27.7742 30.4905 27.459 30.4491C27.2682 30.4491 27.1355 30.7641 27.5004 30.814C27.8239 30.8553 28.3297 30.814 28.6032 30.7641C28.8355 30.7227 29.3413 30.6315 29.6647 30.5401C29.9882 30.3993 29.7561 30.1258 29.5735 30.1672C29.2916 30.2583 28.9267 30.3496 28.5619 30.3993V30.3993Z" fill="white" stroke="#C09300" stroke-width="0.0734043" stroke-linecap="round" stroke-linejoin="round"/>
<path d="M24.2828 30.2172C24.0009 30.1675 23.8682 30.4907 23.9595 30.6731C24.0009 30.5819 24.1916 30.5819 24.2332 30.4907C24.2828 30.3499 24.1916 30.3499 24.2828 30.2172V30.2172ZM25.3857 31.0652C25.3857 30.883 25.568 30.9054 25.568 30.7229C25.568 30.6318 25.5184 30.4907 25.4271 30.4907C25.3359 30.4907 25.2446 30.5819 25.2446 30.6731C25.2031 30.8556 25.3857 30.883 25.3857 31.0652ZM26.6984 30.5404C26.9718 30.5404 26.9447 30.9053 26.812 31.0877C26.812 30.9551 26.5798 30.9053 26.5798 30.8142C26.5798 30.6731 26.7894 30.6731 26.6984 30.5404V30.5404ZM29.7059 30.2172C29.9878 30.1675 30.1206 30.4907 30.0293 30.6731C29.9878 30.5819 29.7971 30.5819 29.7557 30.4907C29.7059 30.3499 29.7972 30.3499 29.7059 30.2172V30.2172ZM28.603 31.0652C28.603 30.883 28.4207 30.9054 28.4207 30.7229C28.4207 30.6318 28.4704 30.4907 28.5617 30.4907C28.6528 30.4907 28.7441 30.5819 28.7441 30.6731C28.7856 30.8556 28.603 30.883 28.603 31.0652V31.0652ZM27.2903 30.5404C27.0167 30.5404 27.0439 30.9053 27.1766 31.0877C27.1766 30.9551 27.4087 30.9053 27.4087 30.8142C27.4087 30.6731 27.1991 30.6731 27.2903 30.5404H27.2903Z" fill="white" stroke="#C09300" stroke-width="0.0734043" stroke-linecap="round" stroke-linejoin="round"/>
<path d="M24.374 30.3085C24.4654 30.3085 24.6063 30.35 24.6478 30.3997L24.3738 30.3083L24.374 30.3085ZM24.8295 30.4496C24.8793 30.4496 25.0618 30.491 25.153 30.5406L24.8293 30.4493L24.8295 30.4496ZM26.4885 30.6316C26.3973 30.6316 26.2149 30.6316 26.1652 30.673L26.4883 30.6314L26.4885 30.6316ZM25.9827 30.6316C25.9331 30.5818 25.7506 30.5818 25.6594 30.6316H25.9825H25.9827ZM29.6151 30.3085C29.5239 30.3085 29.3911 30.35 29.3414 30.3997L29.6151 30.3085ZM29.159 30.4496C29.1093 30.4496 28.9268 30.491 28.8356 30.5406L29.1593 30.4493L29.159 30.4496ZM27.5001 30.6316C27.5914 30.6316 27.7738 30.6316 27.8235 30.673L27.4998 30.6314L27.5001 30.6316ZM28.0058 30.6316C28.0556 30.5818 28.2381 30.5818 28.3293 30.6316H28.0056H28.0058Z" fill="white" stroke="#C09300" stroke-width="0.0514962" stroke-linecap="round" stroke-linejoin="round"/>
<path d="M24.2972 31.0375C24.2664 31.0316 24.2501 31.0071 24.2579 30.9782C24.2674 30.943 24.2956 30.9229 24.3222 30.9323C24.3392 30.9383 24.3702 30.9696 24.3703 30.9808C24.3705 30.9937 24.3541 31.0243 24.347 31.0244C24.344 31.0244 24.3393 31.0271 24.3366 31.0303C24.3308 31.0371 24.3127 31.0404 24.2972 31.0374V31.0375ZM27.4724 31.264C27.4609 31.2598 27.4426 31.2341 27.4426 31.2222C27.4427 31.1998 27.4758 31.1634 27.4963 31.1632C27.5064 31.1631 27.5342 31.1775 27.5445 31.1883C27.5633 31.2078 27.5592 31.2399 27.5356 31.2581C27.524 31.2671 27.4893 31.2703 27.4724 31.264L27.4724 31.264ZM27.4932 31.4074C27.4689 31.3992 27.46 31.3873 27.458 31.3604C27.456 31.3323 27.4587 31.3279 27.4883 31.3118L27.5095 31.3002L27.5295 31.3092C27.5573 31.3216 27.5696 31.3349 27.5706 31.3535C27.5716 31.3736 27.5567 31.3942 27.5336 31.4046C27.5132 31.4137 27.512 31.4138 27.4932 31.4074V31.4074Z" fill="#C09300"/>
<path d="M24.5522 30.7779C24.5321 30.7773 24.5047 30.7957 24.4889 30.805C24.4514 30.8138 24.4077 30.8369 24.3715 30.8122C24.3358 30.8012 24.2884 30.8099 24.283 30.8538C24.2922 30.8915 24.345 30.913 24.3769 30.8881C24.4007 30.857 24.4655 30.8388 24.4727 30.8917C24.4463 30.9317 24.4493 30.9847 24.4275 31.0272C24.424 31.0536 24.413 31.0788 24.3986 31.1012C24.3719 31.1039 24.3435 31.1008 24.3209 31.1175C24.2848 31.1195 24.2478 31.1375 24.227 31.1681C24.2037 31.2015 24.1814 31.2354 24.1746 31.2765C24.1808 31.3184 24.2288 31.3304 24.2649 31.3325C24.3035 31.3431 24.3421 31.357 24.3806 31.3686C24.4433 31.3826 24.5021 31.4053 24.5648 31.4192C24.6564 31.4468 24.7525 31.4595 24.8448 31.4842C24.8545 31.4874 24.8635 31.4902 24.8737 31.4914C24.912 31.4994 24.9319 31.4577 24.9351 31.4264C24.9541 31.3594 24.9686 31.2912 24.9875 31.2241C25.0005 31.1972 25.0162 31.1364 24.964 31.15C24.9342 31.1679 24.909 31.1947 24.8719 31.197C24.8214 31.1999 24.8502 31.2516 24.8701 31.2728C24.8745 31.3068 24.8637 31.3474 24.8412 31.374C24.8111 31.3931 24.7735 31.3708 24.7418 31.3632C24.7086 31.3637 24.6422 31.3468 24.6732 31.3017C24.6842 31.2684 24.6852 31.2319 24.6985 31.1988C24.7154 31.1633 24.7179 31.1245 24.7256 31.0868C24.7047 31.0419 24.669 31.1016 24.6407 31.1067C24.6211 31.1202 24.5479 31.126 24.5865 31.1609C24.6197 31.1861 24.5942 31.23 24.5883 31.262C24.5861 31.3065 24.5399 31.3172 24.5034 31.3072C24.4671 31.3054 24.4166 31.2784 24.4474 31.2385C24.4544 31.2053 24.466 31.1726 24.4727 31.1392C24.4864 31.0989 24.4979 31.0604 24.5124 31.02C24.5187 30.9841 24.5316 30.9501 24.5485 30.9188C24.5495 30.8792 24.5761 30.8451 24.5756 30.805C24.5729 30.7854 24.5642 30.7783 24.5522 30.7779V30.7779ZM24.3444 31.197C24.3491 31.1962 24.3525 31.1969 24.3571 31.1988C24.3715 31.2049 24.3719 31.2167 24.3571 31.2295C24.3506 31.2351 24.3432 31.2405 24.3408 31.2403C24.3138 31.238 24.3058 31.234 24.3047 31.2241C24.3037 31.2153 24.3064 31.2128 24.3246 31.2042C24.3335 31.1999 24.3397 31.1978 24.3444 31.197V31.197ZM24.2845 31.4872C24.2559 31.4602 24.2605 31.4405 24.3029 31.4089C24.321 31.3954 24.332 31.3969 24.3528 31.4159C24.3847 31.445 24.386 31.4634 24.3578 31.4884C24.3439 31.5007 24.3378 31.5033 24.3215 31.5034C24.3046 31.5036 24.2998 31.5015 24.2845 31.4872V31.4872ZM24.4608 31.5403C24.4542 31.5388 24.448 31.5359 24.4426 31.5318C24.4372 31.5277 24.4326 31.5226 24.4292 31.5167C24.4259 31.5108 24.4237 31.5043 24.423 31.4975C24.4222 31.4908 24.4229 31.484 24.4249 31.4775C24.4323 31.4523 24.4366 31.4499 24.4734 31.4495C24.5147 31.4491 24.5228 31.456 24.5231 31.4924C24.5234 31.5129 24.5218 31.5176 24.5116 31.5271C24.4996 31.5382 24.4766 31.5442 24.4608 31.5403V31.5403ZM29.6117 31.545C29.5986 31.534 29.5959 31.5291 29.5958 31.5152C29.5956 31.4915 29.6093 31.4741 29.6389 31.4606C29.6783 31.4428 29.6944 31.4452 29.7092 31.4714C29.729 31.5061 29.728 31.5203 29.7044 31.5437C29.6913 31.5567 29.6889 31.5574 29.659 31.5577C29.6297 31.5579 29.6263 31.5571 29.6117 31.545V31.545ZM24.6949 31.6114C24.6739 31.6058 24.663 31.59 24.6627 31.5648C24.6625 31.5455 24.6639 31.5424 24.6774 31.5319C24.6861 31.525 24.6999 31.5192 24.7108 31.5177C24.7262 31.5156 24.7319 31.5169 24.7443 31.5256C24.7761 31.548 24.7829 31.5701 24.7645 31.5916C24.7448 31.6145 24.7262 31.6198 24.6949 31.6114V31.6114ZM25.962 31.6681C25.9573 31.6623 25.947 31.6588 25.9459 31.6515C25.9478 31.6194 25.9493 31.5869 25.9596 31.5562C25.9651 31.526 25.9602 31.4944 25.9708 31.465C25.9816 31.4114 25.9816 31.3561 25.994 31.3029C25.9946 31.2755 25.9972 31.2481 26.0051 31.2217C26.0143 31.1799 26.0059 31.1363 26.0182 31.0951C26.0169 31.0796 26.0347 31.0383 26.0504 31.0628C26.0731 31.0961 26.1031 31.1232 26.1325 31.1504C26.1578 31.165 26.1346 31.1865 26.1171 31.1937C26.0931 31.2032 26.0873 31.2296 26.089 31.2528C26.0856 31.2768 26.076 31.2994 26.075 31.3239C26.0699 31.3599 26.0709 31.3964 26.0662 31.4323C26.0557 31.4676 26.0598 31.5052 26.0562 31.5415C26.0567 31.5645 26.0458 31.5854 26.0473 31.6085C26.0445 31.632 26.0434 31.6602 26.0237 31.6763C26.0047 31.6859 25.9772 31.6843 25.962 31.6681H25.962ZM27.6787 31.1016C27.6509 31.1227 27.6259 31.1476 27.6011 31.1721C27.5668 31.198 27.6292 31.2131 27.6372 31.2353C27.6463 31.2692 27.6457 31.3053 27.648 31.3401C27.6584 31.3719 27.663 31.4059 27.6607 31.4394C27.6577 31.4754 27.6108 31.4678 27.5902 31.4882C27.5618 31.5001 27.5505 31.5281 27.5288 31.5478C27.5146 31.5757 27.5108 31.61 27.509 31.6417C27.511 31.6676 27.4915 31.6966 27.509 31.7194C27.5112 31.7226 27.5139 31.727 27.5162 31.7302C27.522 31.7386 27.536 31.7319 27.5451 31.7338C27.5742 31.7322 27.6045 31.7366 27.6318 31.7248C27.7017 31.7127 27.7723 31.7117 27.8431 31.7085C27.8864 31.7099 27.9281 31.6949 27.9714 31.6959C28.0053 31.7034 28.0206 31.6666 28.0202 31.6399C28.0009 31.6021 28.0175 31.5573 28.0021 31.5189C27.9885 31.48 27.9939 31.4363 27.9876 31.3961C27.9868 31.3643 27.9465 31.3526 27.9262 31.3762C27.9065 31.3961 27.8746 31.4001 27.8594 31.425C27.8422 31.4598 27.8956 31.4598 27.9045 31.4864C27.9147 31.5132 27.9114 31.543 27.9136 31.5713C27.9202 31.6055 27.883 31.6075 27.8594 31.611C27.8284 31.6226 27.7848 31.6304 27.7673 31.593C27.7562 31.5652 27.7577 31.5356 27.7546 31.5062C27.7538 31.4547 27.7415 31.404 27.7384 31.3527C27.7354 31.2893 27.7244 31.2263 27.7203 31.163C27.7197 31.1367 27.7162 31.0938 27.6787 31.1016V31.1016ZM27.6426 31.5785L27.6607 31.5803L27.6625 31.602L27.6643 31.6236L27.6408 31.6309C27.6284 31.6345 27.6175 31.6363 27.6173 31.6363C27.6136 31.634 27.61 31.6316 27.6065 31.6291C27.5938 31.6199 27.597 31.6068 27.6137 31.5893C27.6231 31.5795 27.6275 31.5776 27.6426 31.5785H27.6426ZM25.9105 31.0421C25.8886 31.0499 25.8607 31.0821 25.8383 31.0818C25.7874 31.0854 25.7945 31.1349 25.8311 31.1523C25.8359 31.1673 25.8314 31.1862 25.8329 31.2028C25.84 31.2485 25.8112 31.2852 25.8166 31.3311C25.8141 31.3814 25.7989 31.4304 25.7967 31.481C25.7825 31.5332 25.7823 31.5869 25.7733 31.64C25.7672 31.6876 25.7328 31.6708 25.7028 31.658C25.7026 31.6374 25.7012 31.6173 25.701 31.5966C25.7135 31.5494 25.6755 31.5356 25.6378 31.5298C25.5981 31.5335 25.5787 31.4996 25.5872 31.4648C25.6042 31.4445 25.6471 31.4501 25.6739 31.4467C25.7306 31.4585 25.7283 31.3824 25.6992 31.3564C25.6793 31.3196 25.6299 31.3038 25.6161 31.2661C25.6216 31.216 25.5884 31.1659 25.5475 31.1414C25.4845 31.137 25.437 31.1913 25.4138 31.2444C25.3876 31.252 25.3615 31.2598 25.3361 31.2697C25.2951 31.2799 25.2367 31.351 25.2928 31.3781C25.3242 31.3867 25.4199 31.4086 25.3777 31.4521C25.3538 31.493 25.3082 31.4937 25.2675 31.4828C25.2256 31.4829 25.1791 31.4625 25.1808 31.4142C25.1722 31.3708 25.1736 31.3241 25.1537 31.2841C25.1451 31.2356 25.09 31.247 25.0868 31.2913C25.0445 31.3222 25.0501 31.3721 25.0796 31.4088C25.098 31.4509 25.0798 31.5 25.0616 31.5388C25.0505 31.5894 24.9947 31.5911 24.955 31.6075C24.9355 31.615 24.8608 31.603 24.8881 31.6454C24.9317 31.6608 24.9837 31.6746 25.029 31.6634C25.0766 31.6576 25.1179 31.625 25.141 31.584C25.173 31.5516 25.2279 31.5686 25.2693 31.5677C25.3139 31.5676 25.3596 31.5991 25.4029 31.5786C25.4155 31.5459 25.4736 31.4921 25.4915 31.5478C25.4884 31.5977 25.5325 31.6245 25.5782 31.6183C25.6281 31.6155 25.6096 31.6536 25.6089 31.6833C25.6122 31.7374 25.647 31.7657 25.692 31.7881C25.7073 31.7922 25.7235 31.7908 25.7389 31.7881C25.7822 31.7745 25.8287 31.7552 25.8419 31.7068C25.8594 31.6675 25.8599 31.623 25.8726 31.5822C25.8828 31.5169 25.8961 31.4515 25.8979 31.3853C25.9138 31.3253 25.9093 31.2618 25.9214 31.201C25.929 31.1559 25.9347 31.1107 25.9394 31.0656C25.9341 31.0415 25.9237 31.0374 25.9105 31.0421V31.0421ZM25.5186 31.2823C25.5273 31.2834 25.5322 31.2941 25.533 31.313C25.5339 31.3341 25.5449 31.3512 25.5583 31.3546C25.5688 31.3572 25.5679 31.3684 25.5565 31.3762C25.5498 31.3808 25.5379 31.3836 25.5168 31.3835C25.4833 31.3833 25.4626 31.3746 25.4445 31.3564L25.4337 31.3455L25.4499 31.3347C25.4613 31.3257 25.4722 31.3161 25.4824 31.3058C25.4989 31.289 25.5098 31.2812 25.5186 31.2823ZM29.3354 30.827C29.3026 30.8285 29.2697 30.8339 29.2397 30.8415C29.1795 30.8377 29.1493 30.9009 29.2072 30.9318C29.2419 31.0205 29.2962 30.9135 29.3517 30.921C29.4347 30.9371 29.4418 31.0269 29.4546 31.0944C29.4593 31.1612 29.4786 31.2263 29.498 31.2895C29.5536 31.3513 29.4563 31.3901 29.4149 31.3418C29.3795 31.3034 29.3039 31.2563 29.2613 31.3093C29.2091 31.3315 29.207 31.4013 29.1638 31.4213C29.0939 31.4426 29.0851 31.3567 29.0482 31.3202C29.0142 31.2725 28.9493 31.2684 28.8964 31.2515C28.8717 31.2013 28.8846 31.1159 28.8332 31.0817C28.7901 31.0993 28.7111 31.1801 28.7772 31.2172C28.8418 31.2727 28.749 31.2982 28.7194 31.3364C28.6771 31.3835 28.6704 31.4483 28.6634 31.508C28.5906 31.5482 28.5765 31.4625 28.5677 31.4087C28.562 31.3444 28.5078 31.3633 28.4701 31.387C28.4151 31.4093 28.3876 31.4616 28.3491 31.5026C28.3445 31.5401 28.3513 31.581 28.3509 31.62C28.3634 31.6669 28.4204 31.6449 28.4557 31.6417C28.5123 31.618 28.5354 31.678 28.49 31.7122C28.4593 31.7512 28.3617 31.7308 28.3708 31.7934C28.4022 31.7971 28.435 31.7959 28.4665 31.7934C28.5296 31.7762 28.5972 31.7317 28.6038 31.6616C28.6121 31.6004 28.7002 31.6115 28.7483 31.5984C28.8085 31.581 28.881 31.5766 28.8946 31.6525C28.9356 31.6956 29.0246 31.7441 29.0699 31.6851C29.1158 31.657 29.1378 31.6077 29.1349 31.555C29.1255 31.5096 29.2082 31.508 29.2288 31.5333C29.2589 31.5829 29.3531 31.5683 29.3986 31.5406C29.4469 31.5049 29.4574 31.442 29.5269 31.4412C29.6299 31.4103 29.7369 31.3926 29.8376 31.3545C29.9191 31.3367 29.8254 31.2853 29.805 31.2551C29.743 31.2245 29.689 31.3501 29.619 31.2877C29.5649 31.2463 29.5686 31.1676 29.5485 31.107C29.5348 31.0286 29.5383 30.9381 29.4817 30.8758C29.4428 30.8345 29.39 30.8245 29.3354 30.827H29.3354ZM28.9416 31.3744C28.9489 31.3742 28.9571 31.3778 28.9705 31.3852C28.9958 31.3992 29.0139 31.4224 29.0139 31.4412C29.0138 31.4535 29.0107 31.4543 28.9922 31.4629C28.9808 31.4681 28.9678 31.4738 28.9633 31.4737C28.9528 31.4736 28.9272 31.4531 28.9272 31.4448C28.9271 31.4414 28.9238 31.4283 28.9199 31.4177C28.9131 31.3992 28.9142 31.3994 28.9235 31.387C28.9295 31.3791 28.9343 31.3746 28.9416 31.3744H28.9416ZM29.3191 31.3942C29.3407 31.3928 29.3534 31.3995 29.3625 31.4159C29.373 31.4349 29.3659 31.4495 29.339 31.4611C29.3272 31.4662 29.3155 31.4703 29.3137 31.4701C29.3119 31.4699 29.3022 31.4642 29.292 31.4575C29.2764 31.4472 29.2742 31.4422 29.274 31.4304C29.2738 31.4121 29.2942 31.3959 29.3191 31.3942H29.3191ZM28.8025 31.3996C28.8088 31.3987 28.8146 31.402 28.8224 31.4087C28.8328 31.4176 28.8361 31.4248 28.8386 31.443C28.8405 31.4557 28.8402 31.472 28.8386 31.4791C28.8358 31.4922 28.8356 31.4916 28.8061 31.4918C28.7691 31.4921 28.7657 31.4881 28.7664 31.4538C28.7668 31.4321 28.7671 31.4262 28.779 31.4141C28.7883 31.4047 28.7962 31.4006 28.8025 31.3996V31.3996ZM28.4846 31.4828C28.4961 31.4854 28.507 31.4942 28.5099 31.508C28.5137 31.5264 28.5103 31.5347 28.4954 31.5424C28.4826 31.5489 28.453 31.5511 28.4449 31.546C28.4422 31.5443 28.4368 31.54 28.434 31.5351C28.4301 31.5281 28.4308 31.5248 28.4358 31.5207C28.4393 31.5178 28.4431 31.5138 28.443 31.5117C28.443 31.5095 28.4469 31.5022 28.4521 31.4954C28.4605 31.4842 28.4731 31.48 28.4846 31.4828H28.4846ZM29.0193 31.5514C29.0296 31.5513 29.0383 31.5549 29.0446 31.5604C29.0553 31.5698 29.0549 31.5836 29.0428 31.5929C29.0349 31.599 28.9924 31.5984 28.9777 31.5929C28.9712 31.5905 28.9687 31.5872 28.9687 31.5803C28.9686 31.5722 28.9709 31.5671 28.985 31.5604C28.9968 31.5548 29.009 31.5515 29.0193 31.5514H29.0193ZM28.0267 31.8299C28.0212 31.8263 28.013 31.8232 28.0212 31.8171C28.0312 31.7996 28.0512 31.7936 28.0689 31.7871C28.1006 31.7734 28.1279 31.7501 28.1483 31.7224C28.1512 31.7032 28.1728 31.6927 28.1727 31.6726C28.1729 31.6452 28.1745 31.617 28.1678 31.5902C28.1604 31.5656 28.1417 31.5467 28.12 31.5339C28.1052 31.5222 28.0811 31.519 28.0756 31.4984C28.0726 31.4786 28.0903 31.4635 28.0964 31.4459C28.1093 31.4215 28.1202 31.3959 28.1341 31.3721C28.149 31.3555 28.1721 31.3712 28.1799 31.3873C28.1908 31.4034 28.2005 31.4206 28.206 31.4392C28.2234 31.4584 28.2389 31.4809 28.2452 31.5063C28.2538 31.5243 28.2674 31.5412 28.2666 31.5622C28.2666 31.5863 28.2801 31.6077 28.2793 31.6319C28.2801 31.6643 28.28 31.6981 28.2682 31.7287C28.2601 31.7457 28.2439 31.7558 28.2331 31.771C28.2147 31.7881 28.1944 31.8045 28.1707 31.8136C28.154 31.8189 28.1443 31.8382 28.1234 31.8335C28.0936 31.834 28.0635 31.8381 28.034 31.8333C28.0358 31.8364 28.0249 31.828 28.0267 31.83V31.8299ZM27.6308 31.8559C27.6167 31.8415 27.6137 31.8354 27.6135 31.8212C27.6134 31.8069 27.6161 31.8013 27.6299 31.7874C27.6552 31.7618 27.6676 31.7612 27.7113 31.7833C27.7531 31.8045 27.7672 31.8064 27.771 31.7914C27.7746 31.7769 27.7987 31.7637 27.8215 31.7636C27.836 31.7635 27.8441 31.7664 27.8557 31.7754C27.8703 31.7867 27.871 31.7885 27.8713 31.8146C27.8716 31.8414 27.8712 31.8424 27.8545 31.8572C27.8385 31.8713 27.8359 31.8722 27.8161 31.8702C27.7908 31.8676 27.7756 31.8561 27.7715 31.8362C27.7685 31.8217 27.7635 31.8183 27.7597 31.8281C27.7585 31.8312 27.7522 31.8351 27.7459 31.8367C27.7341 31.8397 27.7141 31.8523 27.7 31.8656C27.6946 31.8707 27.6852 31.8731 27.67 31.8732C27.6494 31.8734 27.6466 31.8722 27.6308 31.8559H27.6308ZM26.4851 31.3415C26.4467 31.3419 26.4053 31.3742 26.4002 31.4119C26.409 31.4554 26.4451 31.498 26.4219 31.5438C26.4379 31.6024 26.3779 31.6246 26.337 31.5908C26.3123 31.5346 26.2998 31.4731 26.2629 31.4228C26.2164 31.4096 26.1962 31.4839 26.1636 31.5095C26.1797 31.5531 26.2269 31.5923 26.2322 31.6468C26.2435 31.6997 26.2113 31.7584 26.1654 31.7859C26.1257 31.8237 26.0714 31.8102 26.0227 31.8184C25.9635 31.853 26.0661 31.8656 26.0931 31.8671C26.1537 31.8733 26.2165 31.8653 26.2611 31.8202C26.3056 31.799 26.3021 31.7221 26.355 31.7136C26.4469 31.7095 26.5379 31.7277 26.6296 31.7299C26.6787 31.7416 26.7547 31.724 26.7886 31.7606C26.7887 31.8246 26.8429 31.8641 26.8951 31.8888C26.924 31.8968 26.9543 31.8611 26.9837 31.8545C27.0394 31.8367 27.0225 31.7677 27.0559 31.7407C27.1513 31.7355 27.2476 31.7366 27.3431 31.7353C27.3613 31.7357 27.3667 31.7099 27.3793 31.6992C27.3772 31.6622 27.3758 31.6256 27.3702 31.589C27.3518 31.5423 27.3732 31.4823 27.3395 31.4426C27.2915 31.4296 27.2507 31.4735 27.2022 31.477C27.1487 31.5008 27.1036 31.5503 27.1011 31.6106C27.0694 31.6625 27.0186 31.6014 27.036 31.5583C27.034 31.5395 27.0401 31.5175 27.0342 31.5005C27.0049 31.4653 26.9536 31.4768 26.9132 31.4716C26.8543 31.4739 26.7969 31.4612 26.738 31.4625C26.6864 31.4586 26.6327 31.467 26.5826 31.4535C26.523 31.4518 26.5312 31.3935 26.5212 31.3523C26.5106 31.3445 26.4979 31.3414 26.4851 31.3415V31.3415ZM26.6007 31.5546C26.6205 31.5551 26.6392 31.5576 26.6585 31.5601C26.6834 31.5642 26.71 31.5515 26.7344 31.5601C26.7908 31.5697 26.8473 31.5674 26.9042 31.5727C26.9192 31.5725 26.9299 31.5834 26.9403 31.5926C26.9404 31.6321 26.9404 31.6723 26.9403 31.7118C26.9386 31.7267 26.9447 31.7464 26.9313 31.757C26.927 31.7599 26.9221 31.7632 26.9168 31.7642C26.9012 31.7601 26.8846 31.7498 26.8771 31.7353C26.8747 31.7146 26.8781 31.6946 26.8789 31.6739C26.8785 31.6685 26.8812 31.6602 26.8789 31.6558C26.8666 31.6471 26.8527 31.6414 26.8373 31.6413C26.7882 31.6397 26.7401 31.636 26.691 31.6341C26.6502 31.6315 26.6082 31.6376 26.5682 31.6269C26.5527 31.6212 26.5325 31.6232 26.523 31.607C26.5095 31.5913 26.529 31.5725 26.5429 31.5655C26.5613 31.5571 26.5809 31.5543 26.6007 31.5546L26.6007 31.5546ZM27.2528 31.5691C27.262 31.569 27.2649 31.572 27.2691 31.589C27.2717 31.5998 27.2748 31.6131 27.2763 31.6179C27.2784 31.6247 27.275 31.6269 27.2654 31.6305C27.2369 31.6413 27.2085 31.6402 27.1986 31.6269C27.1941 31.6209 27.1994 31.6018 27.2076 31.5944C27.2244 31.5794 27.2429 31.5691 27.2528 31.5691V31.5691Z" fill="#C09300"/>
<path d="M27.7058 24.0149C27.7444 24.0172 27.6537 23.8086 27.6537 23.8086C27.7557 23.9129 28.141 23.9378 28.141 23.9378C27.9098 23.8357 27.6787 23.0652 27.7058 22.4511C27.7308 21.8346 27.6175 21.5921 27.5268 21.5015C27.4112 21.3859 27.0396 21.2839 26.7948 21.2703C26.6565 21.2635 26.6792 21.3745 26.6792 21.3745C26.4231 21.3088 26.1671 21.2839 26.0515 21.3609C25.9426 21.4335 25.92 21.7961 25.9993 21.7326C26.1919 21.5785 26.3597 21.719 26.4752 21.8867C26.5772 22.0341 26.5704 22.4511 26.4231 22.9383C26.269 23.4505 25.8474 23.9627 25.8474 23.9627C26.0763 23.9627 26.3982 23.7588 26.3982 23.7588L26.3211 24.0783C26.5636 23.9627 26.7563 23.7837 26.7563 23.7837L26.9874 24.0261C27.0645 23.9242 27.2186 23.7837 27.2186 23.7837C27.2186 23.7837 27.4112 23.9877 27.7058 24.0149V24.0149Z" fill="white" stroke="#C09300" stroke-width="0.0704046"/>
<path d="M27.3839 22.6056C27.3839 22.6056 27.436 23.4895 27.6536 23.809M26.77 22.5397C26.77 22.5397 26.6408 23.4893 26.3983 23.759L26.77 22.5397ZM26.974 22.5149C26.974 22.5149 26.9242 23.4757 26.7565 23.784L26.974 22.5149ZM27.155 22.5536C27.155 22.5536 27.155 23.6052 27.2184 23.7842L27.155 22.5536Z" stroke="#C09300" stroke-width="0.0734103"/>
<path d="M26.5365 22.0796C26.5252 21.9958 26.5048 21.93 26.4753 21.8869C26.3597 21.7193 26.192 21.5787 25.9994 21.7328C25.9994 21.7328 26.0651 21.5288 26.2056 21.5221C26.3144 21.5153 26.5614 21.6036 26.779 21.9753C26.779 21.9753 26.6181 21.9391 26.5796 21.9731C26.507 22.0365 26.5365 22.0796 26.5365 22.0796V22.0796Z" fill="#C09300" stroke="#C09300" stroke-width="0.0204624"/>
<path d="M25.9793 21.4814C25.9951 21.4292 26.0201 21.3817 26.0518 21.3613C26.1674 21.2842 26.4235 21.3091 26.6796 21.3748C26.6796 21.3748 26.6569 21.2638 26.7952 21.2706C27.0399 21.2842 27.4116 21.3862 27.5272 21.5018C27.5543 21.5313 27.5861 21.5743 27.6133 21.64H27.6088C27.5521 21.5607 27.3912 21.5653 27.3527 21.5698C27.2914 21.5766 27.2529 21.5743 27.1713 21.5947C27.1328 21.6037 27.0739 21.6151 27.0421 21.64C27.0173 21.6604 26.9968 21.7352 26.9583 21.7352C26.8971 21.7352 26.9017 21.7194 26.8858 21.7012C26.8654 21.6763 26.854 21.64 26.8336 21.6422C26.7702 21.6536 26.6682 21.6037 26.5391 21.5018C26.4099 21.3998 26.36 21.3748 26.1923 21.3862C26.0269 21.3998 25.9747 21.4927 25.9747 21.4927L25.9793 21.4814Z" fill="#C09300" stroke="#C09300" stroke-width="0.0204624"/>
<path d="M26.9263 21.6309C26.9639 21.6309 26.9943 21.6005 26.9943 21.5629C26.9943 21.5254 26.9639 21.495 26.9263 21.495C26.8888 21.495 26.8583 21.5254 26.8583 21.5629C26.8583 21.6005 26.8888 21.6309 26.9263 21.6309Z" fill="white"/>
<path d="M26.9932 28.3004C28.88 26.8492 28.7182 24.7234 28.7182 24.7234C28.6684 24.7333 28.6211 24.7383 28.5713 24.7383C28.1755 24.7383 27.2316 24.5119 27.0113 24.2243C26.7754 24.4846 25.8107 24.7383 25.4174 24.7383C25.3677 24.7383 25.3179 24.7333 25.2706 24.7234C25.2706 24.7234 25.1063 26.8492 26.9931 28.3004H26.9932Z" fill="white" stroke="#C09300" stroke-width="0.0664743"/>
<mask id="mask1_1_38717" style="mask-type:alpha" maskUnits="userSpaceOnUse" x="25" y="24" width="4" height="5">
<path d="M28.5678 24.8791C28.5515 24.8801 28.5352 24.8806 28.5188 24.8806C28.1601 24.8806 27.3269 24.6965 27.0058 24.4206C26.6694 24.6755 25.8225 24.8806 25.4696 24.8806C25.453 24.8806 25.4367 24.8786 25.4205 24.8756C25.4196 24.956 25.4238 25.0393 25.4288 25.1151C25.4475 25.3984 25.4972 25.6827 25.5726 25.9563C25.8101 26.8172 26.2961 27.5489 26.993 28.104C27.6904 27.5485 28.177 26.8161 28.415 25.9545C28.4905 25.6809 28.5404 25.3967 28.5592 25.1134C28.5636 25.0341 28.5681 24.937 28.5678 24.8791V24.8791Z" fill="#FFA654" stroke="#C09300" stroke-width="0.0529482"/>
</mask>
<g mask="url(#mask1_1_38717)">
<path fill-rule="evenodd" clip-rule="evenodd" d="M25.4113 24.4005H26.4667V28.1177H25.4113V24.4005Z" fill="#C09300"/>
<path fill-rule="evenodd" clip-rule="evenodd" d="M26.4667 24.4005H27.5221V28.1177H26.4667V24.4005Z" fill="white"/>
<path fill-rule="evenodd" clip-rule="evenodd" d="M27.5221 24.4005H28.5775V28.1177H27.5221V24.4005Z" fill="#C09300"/>
</g>
<path d="M28.5677 24.8791C28.5515 24.8801 28.5351 24.8806 28.5187 24.8806C28.16 24.8806 27.3269 24.6965 27.0057 24.4206C26.6693 24.6755 25.8224 24.8806 25.4695 24.8806C25.453 24.8806 25.4366 24.8786 25.4204 24.8756C25.4196 24.956 25.4238 25.0393 25.4287 25.1151C25.4474 25.3984 25.4971 25.6827 25.5725 25.9563C25.81 26.8172 26.296 27.5489 26.9929 28.104C27.6903 27.5485 28.1769 26.8161 28.4149 25.9545C28.4905 25.6809 28.5403 25.3967 28.5592 25.1134C28.5636 25.0341 28.568 24.937 28.5677 24.8791V24.8791Z" stroke="#C09300" stroke-width="0.0529482"/>
<rect x="3" y="9" width="48" height="12" fill="#EE5757"/>
</g>
</svg>
