<svg width="54" height="48" viewBox="0 0 54 48" fill="none" xmlns="http://www.w3.org/2000/svg">
<mask id="mask0_1_38717" style="mask-type:alpha" maskUnits="userSpaceOnUse" x="3" y="6" width="48" height="36">
<path d="M3.56934 15.1356C4.16681 10.4125 8.0415 7.00193 12.7861 6.60887C16.6412 6.28949 21.6196 6 27 6C32.3804 6 37.3588 6.28949 41.2139 6.60887C45.9585 7.00193 49.8332 10.4125 50.4307 15.1356C50.752 17.6759 51 20.704 51 24C51 27.296 50.752 30.3241 50.4307 32.8644C49.8332 37.5875 45.9585 40.9981 41.2139 41.3911C37.3588 41.7105 32.3804 42 27 42C21.6196 42 16.6412 41.7105 12.7861 41.3911C8.0415 40.9981 4.16681 37.5875 3.56934 32.8644C3.248 30.3241 3 27.296 3 24C3 20.704 3.248 17.6759 3.56934 15.1356Z" fill="#00D0BF"/>
</mask>
<g mask="url(#mask0_1_38717)">
<rect x="3" y="30" width="48" height="12" fill="#2C2929"/>
<rect x="3" y="18" width="48" height="12" fill="#F5F5F5"/>
<path d="M27.0412 23.8652L31 27.5403L30.7182 20.8657C30.6767 19.8542 29.7977 20.0862 29.1591 20.4512C28.5123 20.8657 27.7743 20.8657 26.9946 20.592C26.2152 20.8657 25.4771 20.8657 24.8302 20.4511C24.1917 20.0863 23.3128 19.8541 23.2713 20.8657L22.9893 27.5403L27.0412 23.8652Z" fill="white" stroke="#C09300" stroke-width="0.0734312" stroke-linejoin="round"/>
<path d="M23.7267 20.6334L23.453 27.1258L22.9886 27.5402L23.2706 20.8656C23.4032 20.7744 23.6355 20.6334 23.7267 20.6334V20.6334ZM24.2827 21.0981L24.0506 26.529L23.5863 27.0042L23.8682 20.7331C23.9595 20.8242 24.2332 21.0481 24.2827 21.0978V21.0981ZM24.7885 21.5126L24.6062 26.0421L24.233 26.4069L24.4653 21.2389C24.5563 21.3301 24.7387 21.4628 24.7885 21.5126ZM25.3359 21.7449L25.1535 25.6054L24.7886 25.9014L24.971 21.604C25.0623 21.6454 25.2447 21.7449 25.3359 21.7449ZM25.8417 21.7449L25.7089 24.9621L25.3358 25.327L25.4769 21.7864C25.5679 21.7864 25.8001 21.7864 25.8417 21.7449Z" fill="#C09300"/>
<path d="M30.2532 20.6334L30.5268 27.1258L30.9913 27.5402L30.7092 20.8656C30.5766 20.7744 30.3443 20.6334 30.2532 20.6334V20.6334ZM29.6971 21.0981L29.9293 26.529L30.3936 27.0042L30.1117 20.7331C30.0204 20.8242 29.7467 21.0481 29.6971 21.0978V21.0981ZM29.1913 21.5126L29.3737 26.0421L29.7468 26.4069L29.5146 21.2389C29.4236 21.3301 29.2412 21.4628 29.1913 21.5126ZM28.6439 21.7449L28.8264 25.6054L29.1913 25.9014L29.0088 21.604C28.9176 21.6454 28.7351 21.7449 28.6439 21.7449ZM28.1382 21.7449L28.2709 24.9621L28.644 25.327L28.503 21.7864C28.412 21.7864 28.1797 21.7864 28.1382 21.7449Z" fill="#C09300"/>
<path d="M27.1769 24.597L27.7326 27.1262L27.5501 27.3085L27.3593 27.1676L27.0442 24.9122L27.1769 27.1676L26.9944 27.3997L26.812 27.1676L26.9447 24.9122L26.6296 27.1676L26.4387 27.3085L26.2564 27.1262L26.812 24.597H27.1769V24.597Z" fill="#C09300" stroke="#C09300" stroke-width="0.0620729"/>
<path d="M25.7504 23.486L24.6475 27.3996L26.1651 27.6318L26.8118 24.6882L25.7503 23.486L25.7504 23.486Z" fill="white" stroke="#C09300" stroke-width="0.0687289" stroke-linejoin="round"/>
<path d="M25.3856 24.8213L25.5183 25.1446L26.2354 24.4597" stroke="#C09300" stroke-width="0.0734043" stroke-linejoin="round"/>
<path d="M26.3059 27.1263L26.1446 26.3634L26.0038 25.5875L25.6662 26.0446L25.5182 25.5175L25.0457 26.0022L25.286 26.8838L25.6176 26.3384L25.8 26.894L26.1405 26.3644M25.8821 24.0108L26.0322 25.4181L26.4883 24.8211L25.8821 24.0108ZM26.3058 25.053L26.555 25.9128L26.3058 25.053ZM26.6527 25.5969L26.1487 26.3623L26.6527 25.5969Z" stroke="#C09300" stroke-width="0.0734043" stroke-linejoin="round"/>
<path d="M24.9706 27.3085L25.2769 26.8782L25.4765 27.5405L25.7502 27.0762L25.9327 27.6319" stroke="#C09300" stroke-width="0.0734043" stroke-linejoin="round"/>
<path d="M28.2294 23.486L29.3323 27.3996L27.8147 27.6318L27.168 24.6882L28.2295 23.486L28.2294 23.486Z" fill="white" stroke="#C09300" stroke-width="0.0687289" stroke-linejoin="round"/>
<path d="M28.5942 24.8213L28.4615 25.1446L27.7444 24.4597" stroke="#C09300" stroke-width="0.0734043" stroke-linejoin="round"/>
<path d="M27.6739 27.1263L27.8352 26.3634L27.976 25.5875L28.3136 26.0446L28.4616 25.5175L28.9341 26.0022L28.6938 26.8838L28.3622 26.3384L28.1798 26.894L27.8393 26.3644M28.0977 24.0108L27.9476 25.4181L27.4915 24.8211L28.0977 24.0108ZM27.674 25.053L27.4248 25.9128L27.674 25.053ZM27.3271 25.5969L27.8311 26.3623L27.3271 25.5969Z" stroke="#C09300" stroke-width="0.0734043" stroke-linejoin="round"/>
<path d="M29.0092 27.3085L28.7029 26.8782L28.5033 27.5405L28.2296 27.0762L28.0471 27.6319" stroke="#C09300" stroke-width="0.0734043" stroke-linejoin="round"/>
<path d="M26.9943 29.149C28.1471 29.149 29.25 29.0578 29.8968 28.8754C30.1705 28.8257 30.1705 28.6848 30.1705 28.5022C30.4442 28.4111 30.3032 28.0878 30.4939 28.0878C30.3032 28.1376 30.2618 27.7644 30.0296 27.8143C30.0296 27.4908 29.7061 27.4494 29.4325 27.5404C28.8851 27.7229 27.9148 27.7644 26.9943 27.7644C26.0738 27.7229 25.1118 27.7229 24.5562 27.5404C24.2826 27.4494 23.9593 27.4908 23.9593 27.8143C23.727 27.7644 23.6856 28.1376 23.4949 28.0878C23.6856 28.0878 23.5446 28.4111 23.8182 28.5022C23.8182 28.6848 23.8182 28.8257 24.1002 28.8754C24.7386 29.0578 25.8417 29.149 26.9943 29.149H26.9943Z" fill="white" stroke="#C09300" stroke-width="0.137458" stroke-linecap="round" stroke-linejoin="round"/>
<path d="M25.4272 27.3993C25.8003 27.4491 26.215 27.4905 26.5385 27.4491C26.7208 27.4491 26.8535 27.7641 26.4887 27.814C26.1654 27.8553 25.6595 27.814 25.3858 27.7641C25.1536 27.7227 24.6477 27.6315 24.3243 27.5401C24.0009 27.3993 24.2332 27.1258 24.4154 27.1672C24.6974 27.2583 25.0624 27.3496 25.4273 27.3993L25.4272 27.3993ZM28.5619 27.3993C28.1887 27.4491 27.7742 27.4905 27.459 27.4491C27.2682 27.4491 27.1355 27.7641 27.5004 27.814C27.8239 27.8553 28.3297 27.814 28.6032 27.7641C28.8355 27.7227 29.3413 27.6315 29.6647 27.5401C29.9882 27.3993 29.7561 27.1258 29.5735 27.1672C29.2916 27.2583 28.9267 27.3496 28.5619 27.3993V27.3993Z" fill="white" stroke="#C09300" stroke-width="0.0734043" stroke-linecap="round" stroke-linejoin="round"/>
<path d="M24.2828 27.2172C24.0009 27.1675 23.8682 27.4907 23.9595 27.6731C24.0009 27.5819 24.1916 27.5819 24.2332 27.4907C24.2828 27.3499 24.1916 27.3499 24.2828 27.2172V27.2172ZM25.3857 28.0652C25.3857 27.883 25.568 27.9054 25.568 27.7229C25.568 27.6318 25.5184 27.4907 25.4271 27.4907C25.3359 27.4907 25.2446 27.5819 25.2446 27.6731C25.2031 27.8556 25.3857 27.883 25.3857 28.0652ZM26.6984 27.5404C26.9718 27.5404 26.9447 27.9053 26.812 28.0877C26.812 27.9551 26.5798 27.9053 26.5798 27.8142C26.5798 27.6731 26.7894 27.6731 26.6984 27.5404ZM29.7059 27.2172C29.9878 27.1675 30.1206 27.4907 30.0293 27.6731C29.9878 27.5819 29.7971 27.5819 29.7557 27.4907C29.7059 27.3499 29.7972 27.3499 29.7059 27.2172V27.2172ZM28.603 28.0652C28.603 27.883 28.4207 27.9054 28.4207 27.7229C28.4207 27.6318 28.4704 27.4907 28.5617 27.4907C28.6528 27.4907 28.7441 27.5819 28.7441 27.6731C28.7856 27.8556 28.603 27.883 28.603 28.0652ZM27.2903 27.5404C27.0167 27.5404 27.0439 27.9053 27.1766 28.0877C27.1766 27.9551 27.4087 27.9053 27.4087 27.8142C27.4087 27.6731 27.1991 27.6731 27.2903 27.5404H27.2903Z" fill="white" stroke="#C09300" stroke-width="0.0734043" stroke-linecap="round" stroke-linejoin="round"/>
<path d="M24.374 27.3085C24.4654 27.3085 24.6063 27.35 24.6478 27.3997L24.3738 27.3083L24.374 27.3085ZM24.8295 27.4496C24.8794 27.4496 25.0618 27.491 25.153 27.5406L24.8293 27.4493L24.8295 27.4496ZM26.4885 27.6316C26.3973 27.6316 26.2149 27.6316 26.1652 27.673L26.4883 27.6314L26.4885 27.6316ZM25.9827 27.6316C25.9331 27.5818 25.7506 27.5818 25.6594 27.6316H25.9825H25.9827ZM29.6151 27.3085C29.5239 27.3085 29.3911 27.35 29.3414 27.3997L29.6151 27.3085ZM29.159 27.4496C29.1093 27.4496 28.9268 27.491 28.8356 27.5406L29.1593 27.4493L29.159 27.4496ZM27.5001 27.6316C27.5914 27.6316 27.7738 27.6316 27.8235 27.673L27.4998 27.6314L27.5001 27.6316ZM28.0058 27.6316C28.0556 27.5818 28.2381 27.5818 28.3293 27.6316H28.0056H28.0058Z" fill="white" stroke="#C09300" stroke-width="0.0514962" stroke-linecap="round" stroke-linejoin="round"/>
<path d="M24.2972 28.0375C24.2664 28.0316 24.2501 28.0071 24.2579 27.9782C24.2674 27.943 24.2956 27.9229 24.3222 27.9323C24.3392 27.9383 24.3702 27.9696 24.3703 27.9808C24.3705 27.9937 24.3541 28.0243 24.347 28.0244C24.344 28.0244 24.3393 28.0271 24.3366 28.0303C24.3308 28.0371 24.3127 28.0404 24.2972 28.0374V28.0375ZM27.4724 28.264C27.4609 28.2598 27.4426 28.2341 27.4426 28.2222C27.4427 28.1998 27.4758 28.1634 27.4963 28.1632C27.5064 28.1631 27.5342 28.1775 27.5445 28.1883C27.5633 28.2078 27.5592 28.2399 27.5356 28.2581C27.524 28.2671 27.4893 28.2703 27.4724 28.264L27.4724 28.264ZM27.4932 28.4074C27.4689 28.3992 27.46 28.3873 27.458 28.3604C27.456 28.3323 27.4587 28.3279 27.4883 28.3118L27.5095 28.3002L27.5295 28.3092C27.5573 28.3216 27.5696 28.3349 27.5706 28.3535C27.5716 28.3736 27.5567 28.3942 27.5336 28.4046C27.5132 28.4137 27.512 28.4138 27.4932 28.4074V28.4074Z" fill="#C09300"/>
<path d="M24.5522 27.7779C24.5321 27.7773 24.5047 27.7957 24.4889 27.805C24.4514 27.8138 24.4077 27.8369 24.3715 27.8122C24.3358 27.8012 24.2884 27.8099 24.283 27.8538C24.2922 27.8915 24.345 27.913 24.3769 27.8881C24.4007 27.857 24.4655 27.8388 24.4727 27.8917C24.4463 27.9317 24.4493 27.9847 24.4275 28.0272C24.424 28.0536 24.413 28.0788 24.3986 28.1012C24.3719 28.1039 24.3435 28.1008 24.3209 28.1175C24.2848 28.1195 24.2478 28.1375 24.227 28.1681C24.2037 28.2015 24.1814 28.2354 24.1746 28.2765C24.1808 28.3184 24.2288 28.3304 24.2649 28.3325C24.3035 28.3431 24.3421 28.357 24.3806 28.3686C24.4433 28.3826 24.5021 28.4053 24.5648 28.4192C24.6564 28.4468 24.7525 28.4595 24.8448 28.4842C24.8545 28.4874 24.8635 28.4902 24.8737 28.4914C24.912 28.4994 24.9319 28.4577 24.9351 28.4264C24.9541 28.3594 24.9686 28.2912 24.9875 28.2241C25.0005 28.1972 25.0162 28.1364 24.964 28.15C24.9342 28.1679 24.909 28.1947 24.8719 28.197C24.8214 28.1999 24.8502 28.2516 24.8701 28.2728C24.8745 28.3068 24.8637 28.3474 24.8412 28.374C24.8111 28.3931 24.7735 28.3708 24.7418 28.3632C24.7086 28.3637 24.6422 28.3468 24.6732 28.3017C24.6842 28.2684 24.6852 28.2319 24.6985 28.1988C24.7154 28.1633 24.7179 28.1245 24.7256 28.0868C24.7047 28.0419 24.669 28.1016 24.6407 28.1067C24.6211 28.1202 24.5479 28.126 24.5865 28.1609C24.6197 28.1861 24.5942 28.23 24.5883 28.262C24.5861 28.3065 24.5399 28.3172 24.5034 28.3072C24.4671 28.3054 24.4166 28.2784 24.4474 28.2385C24.4544 28.2053 24.466 28.1726 24.4727 28.1392C24.4864 28.0989 24.4979 28.0604 24.5124 28.02C24.5187 27.9841 24.5316 27.9501 24.5485 27.9188C24.5495 27.8792 24.5761 27.8451 24.5756 27.805C24.5729 27.7854 24.5642 27.7783 24.5522 27.7779ZM24.3444 28.197C24.3491 28.1962 24.3525 28.1969 24.3571 28.1988C24.3715 28.2049 24.3719 28.2167 24.3571 28.2295C24.3506 28.2351 24.3432 28.2405 24.3408 28.2403C24.3138 28.238 24.3058 28.234 24.3047 28.2241C24.3037 28.2153 24.3064 28.2128 24.3246 28.2042C24.3335 28.1999 24.3397 28.1978 24.3444 28.197ZM24.2845 28.4872C24.2559 28.4602 24.2605 28.4405 24.3029 28.4089C24.321 28.3954 24.332 28.3969 24.3528 28.4159C24.3847 28.445 24.386 28.4634 24.3578 28.4884C24.3439 28.5007 24.3378 28.5033 24.3215 28.5034C24.3046 28.5036 24.2998 28.5015 24.2845 28.4872ZM24.4608 28.5403C24.4542 28.5388 24.448 28.5359 24.4426 28.5318C24.4372 28.5277 24.4326 28.5226 24.4292 28.5167C24.4259 28.5108 24.4237 28.5043 24.423 28.4975C24.4222 28.4908 24.4229 28.484 24.4249 28.4775C24.4323 28.4523 24.4366 28.4499 24.4734 28.4495C24.5147 28.4491 24.5228 28.456 24.5231 28.4924C24.5234 28.5129 24.5218 28.5176 24.5116 28.5271C24.4996 28.5382 24.4766 28.5442 24.4608 28.5403V28.5403ZM29.6117 28.545C29.5986 28.534 29.5959 28.5291 29.5958 28.5152C29.5956 28.4915 29.6093 28.4741 29.6389 28.4606C29.6783 28.4428 29.6944 28.4452 29.7092 28.4714C29.729 28.5061 29.728 28.5203 29.7044 28.5437C29.6913 28.5567 29.6889 28.5574 29.659 28.5577C29.6297 28.5579 29.6263 28.5571 29.6117 28.545ZM24.6949 28.6114C24.6739 28.6058 24.663 28.59 24.6627 28.5648C24.6625 28.5455 24.6639 28.5424 24.6774 28.5319C24.6861 28.525 24.6999 28.5192 24.7108 28.5177C24.7262 28.5156 24.7319 28.5169 24.7443 28.5256C24.7761 28.548 24.7829 28.5701 24.7645 28.5916C24.7448 28.6145 24.7262 28.6198 24.6949 28.6114ZM25.962 28.6681C25.9573 28.6623 25.947 28.6588 25.9459 28.6515C25.9478 28.6194 25.9493 28.5869 25.9596 28.5562C25.9651 28.526 25.9602 28.4944 25.9708 28.465C25.9816 28.4114 25.9816 28.3561 25.994 28.3029C25.9946 28.2755 25.9972 28.2481 26.0051 28.2217C26.0143 28.1799 26.0059 28.1363 26.0182 28.0951C26.0169 28.0796 26.0347 28.0383 26.0504 28.0628C26.0731 28.0961 26.1031 28.1232 26.1325 28.1504C26.1578 28.165 26.1346 28.1865 26.1171 28.1937C26.0931 28.2032 26.0873 28.2296 26.089 28.2528C26.0856 28.2768 26.076 28.2994 26.075 28.3239C26.0699 28.3599 26.0709 28.3964 26.0662 28.4323C26.0557 28.4676 26.0598 28.5052 26.0562 28.5415C26.0567 28.5645 26.0458 28.5854 26.0473 28.6085C26.0445 28.632 26.0434 28.6602 26.0237 28.6763C26.0047 28.6859 25.9772 28.6843 25.962 28.6681H25.962ZM27.6787 28.1016C27.6509 28.1227 27.6259 28.1476 27.6011 28.1721C27.5668 28.198 27.6292 28.2131 27.6372 28.2353C27.6463 28.2692 27.6457 28.3053 27.648 28.3401C27.6584 28.3719 27.663 28.4059 27.6607 28.4394C27.6577 28.4754 27.6108 28.4678 27.5902 28.4882C27.5618 28.5001 27.5505 28.5281 27.5288 28.5478C27.5146 28.5757 27.5108 28.61 27.509 28.6417C27.511 28.6676 27.4915 28.6966 27.509 28.7194C27.5112 28.7226 27.5139 28.727 27.5162 28.7302C27.522 28.7386 27.536 28.7319 27.5451 28.7338C27.5742 28.7322 27.6045 28.7366 27.6318 28.7248C27.7017 28.7127 27.7723 28.7117 27.8431 28.7085C27.8864 28.7099 27.9281 28.6949 27.9714 28.6959C28.0053 28.7034 28.0206 28.6666 28.0202 28.6399C28.0009 28.6021 28.0175 28.5573 28.0021 28.5189C27.9885 28.48 27.9939 28.4363 27.9876 28.3961C27.9868 28.3643 27.9465 28.3526 27.9262 28.3762C27.9065 28.3961 27.8746 28.4001 27.8594 28.425C27.8422 28.4598 27.8956 28.4598 27.9045 28.4864C27.9147 28.5132 27.9114 28.543 27.9136 28.5713C27.9202 28.6055 27.883 28.6075 27.8594 28.611C27.8284 28.6226 27.7848 28.6304 27.7673 28.593C27.7562 28.5652 27.7577 28.5356 27.7546 28.5062C27.7538 28.4547 27.7415 28.404 27.7384 28.3527C27.7354 28.2893 27.7244 28.2263 27.7203 28.163C27.7197 28.1367 27.7162 28.0938 27.6787 28.1016V28.1016ZM27.6426 28.5785L27.6607 28.5803L27.6625 28.602L27.6643 28.6236L27.6408 28.6309C27.6284 28.6345 27.6175 28.6363 27.6173 28.6363C27.6136 28.634 27.61 28.6316 27.6065 28.6291C27.5938 28.6199 27.597 28.6068 27.6137 28.5893C27.6231 28.5795 27.6275 28.5776 27.6426 28.5785H27.6426ZM25.9105 28.0421C25.8886 28.0499 25.8607 28.0821 25.8383 28.0818C25.7874 28.0854 25.7945 28.1349 25.8311 28.1523C25.8359 28.1673 25.8314 28.1862 25.8329 28.2028C25.84 28.2485 25.8112 28.2852 25.8166 28.3311C25.8141 28.3814 25.7989 28.4304 25.7967 28.481C25.7825 28.5332 25.7823 28.5869 25.7733 28.64C25.7672 28.6876 25.7328 28.6708 25.7028 28.658C25.7026 28.6374 25.7012 28.6173 25.701 28.5966C25.7135 28.5494 25.6755 28.5356 25.6378 28.5298C25.5981 28.5335 25.5787 28.4996 25.5872 28.4648C25.6042 28.4445 25.6471 28.4501 25.6739 28.4467C25.7306 28.4585 25.7283 28.3824 25.6992 28.3564C25.6793 28.3196 25.6299 28.3038 25.6161 28.2661C25.6216 28.216 25.5884 28.1659 25.5475 28.1414C25.4845 28.137 25.437 28.1913 25.4138 28.2444C25.3876 28.252 25.3615 28.2598 25.3361 28.2697C25.2951 28.2799 25.2367 28.351 25.2928 28.3781C25.3242 28.3867 25.4199 28.4086 25.3777 28.4521C25.3538 28.493 25.3082 28.4937 25.2675 28.4828C25.2256 28.4829 25.1791 28.4625 25.1808 28.4142C25.1722 28.3708 25.1736 28.3241 25.1537 28.2841C25.1451 28.2356 25.09 28.247 25.0868 28.2913C25.0445 28.3222 25.0501 28.3721 25.0796 28.4088C25.098 28.4509 25.0798 28.5 25.0616 28.5388C25.0505 28.5894 24.9947 28.5911 24.955 28.6075C24.9355 28.615 24.8608 28.603 24.8881 28.6454C24.9317 28.6608 24.9837 28.6746 25.029 28.6634C25.0766 28.6576 25.1179 28.625 25.141 28.584C25.173 28.5516 25.2279 28.5686 25.2693 28.5677C25.3139 28.5676 25.3596 28.5991 25.4029 28.5786C25.4155 28.5459 25.4736 28.4921 25.4915 28.5478C25.4884 28.5977 25.5325 28.6245 25.5782 28.6183C25.6281 28.6155 25.6096 28.6536 25.6089 28.6833C25.6122 28.7374 25.647 28.7657 25.692 28.7881C25.7073 28.7922 25.7235 28.7908 25.7389 28.7881C25.7822 28.7745 25.8287 28.7552 25.8419 28.7068C25.8594 28.6675 25.8599 28.623 25.8726 28.5822C25.8828 28.5169 25.8961 28.4515 25.8979 28.3853C25.9138 28.3253 25.9093 28.2618 25.9214 28.201C25.929 28.1559 25.9347 28.1107 25.9394 28.0656C25.9341 28.0415 25.9237 28.0374 25.9105 28.0421V28.0421ZM25.5186 28.2823C25.5273 28.2834 25.5322 28.2941 25.533 28.313C25.5339 28.3341 25.5449 28.3512 25.5583 28.3546C25.5688 28.3572 25.5679 28.3684 25.5565 28.3762C25.5498 28.3808 25.5379 28.3836 25.5168 28.3835C25.4833 28.3833 25.4626 28.3746 25.4445 28.3564L25.4337 28.3455L25.4499 28.3347C25.4613 28.3257 25.4722 28.3161 25.4824 28.3058C25.4989 28.289 25.5098 28.2812 25.5186 28.2823ZM29.3354 27.827C29.3026 27.8285 29.2697 27.8339 29.2397 27.8415C29.1795 27.8377 29.1493 27.9009 29.2072 27.9318C29.2419 28.0205 29.2962 27.9135 29.3517 27.921C29.4347 27.9371 29.4418 28.0269 29.4546 28.0944C29.4593 28.1612 29.4786 28.2263 29.498 28.2895C29.5536 28.3513 29.4563 28.3901 29.4149 28.3418C29.3795 28.3034 29.3039 28.2563 29.2613 28.3093C29.2091 28.3315 29.207 28.4013 29.1638 28.4213C29.0939 28.4426 29.0851 28.3567 29.0482 28.3202C29.0142 28.2725 28.9493 28.2684 28.8964 28.2515C28.8717 28.2013 28.8846 28.1159 28.8332 28.0817C28.7901 28.0993 28.7111 28.1801 28.7772 28.2172C28.8418 28.2727 28.749 28.2982 28.7194 28.3364C28.6771 28.3835 28.6704 28.4483 28.6634 28.508C28.5906 28.5482 28.5765 28.4625 28.5677 28.4087C28.562 28.3444 28.5078 28.3633 28.4701 28.387C28.4151 28.4093 28.3876 28.4616 28.3491 28.5026C28.3445 28.5401 28.3513 28.581 28.3509 28.62C28.3634 28.6669 28.4204 28.6449 28.4557 28.6417C28.5123 28.618 28.5354 28.678 28.49 28.7122C28.4593 28.7512 28.3617 28.7308 28.3708 28.7934C28.4022 28.7971 28.435 28.7959 28.4665 28.7934C28.5296 28.7762 28.5972 28.7317 28.6038 28.6616C28.6121 28.6004 28.7002 28.6115 28.7483 28.5984C28.8085 28.581 28.881 28.5766 28.8946 28.6525C28.9356 28.6956 29.0246 28.7441 29.0699 28.6851C29.1158 28.657 29.1378 28.6077 29.1349 28.555C29.1255 28.5096 29.2082 28.508 29.2288 28.5333C29.2589 28.5829 29.3531 28.5683 29.3986 28.5406C29.4469 28.5049 29.4574 28.442 29.5269 28.4412C29.6299 28.4103 29.7369 28.3926 29.8376 28.3545C29.9191 28.3367 29.8254 28.2853 29.805 28.2551C29.743 28.2245 29.689 28.3501 29.619 28.2877C29.5649 28.2463 29.5686 28.1676 29.5485 28.107C29.5348 28.0286 29.5383 27.9381 29.4817 27.8758C29.4428 27.8345 29.39 27.8245 29.3354 27.827H29.3354ZM28.9416 28.3744C28.9489 28.3742 28.9571 28.3778 28.9705 28.3852C28.9958 28.3992 29.0139 28.4224 29.0139 28.4412C29.0138 28.4535 29.0107 28.4543 28.9922 28.4629C28.9808 28.4681 28.9678 28.4738 28.9633 28.4737C28.9528 28.4736 28.9272 28.4531 28.9272 28.4448C28.9271 28.4414 28.9238 28.4283 28.9199 28.4177C28.9131 28.3992 28.9142 28.3994 28.9235 28.387C28.9295 28.3791 28.9343 28.3746 28.9416 28.3744H28.9416ZM29.3191 28.3942C29.3407 28.3928 29.3534 28.3995 29.3625 28.4159C29.373 28.4349 29.3659 28.4495 29.339 28.4611C29.3272 28.4662 29.3155 28.4703 29.3137 28.4701C29.3119 28.4699 29.3022 28.4642 29.292 28.4575C29.2764 28.4472 29.2742 28.4422 29.274 28.4304C29.2738 28.4121 29.2942 28.3959 29.3191 28.3942H29.3191ZM28.8025 28.3996C28.8088 28.3987 28.8146 28.402 28.8224 28.4087C28.8328 28.4176 28.8361 28.4248 28.8386 28.443C28.8405 28.4557 28.8402 28.472 28.8386 28.4791C28.8358 28.4922 28.8356 28.4916 28.8061 28.4918C28.7691 28.4921 28.7657 28.4881 28.7664 28.4538C28.7668 28.4321 28.7671 28.4262 28.779 28.4141C28.7883 28.4047 28.7962 28.4006 28.8025 28.3996ZM28.4846 28.4828C28.4961 28.4854 28.507 28.4942 28.5099 28.508C28.5137 28.5264 28.5103 28.5347 28.4954 28.5424C28.4826 28.5489 28.453 28.5511 28.4449 28.546C28.4422 28.5443 28.4368 28.54 28.434 28.5351C28.4301 28.5281 28.4308 28.5248 28.4358 28.5207C28.4393 28.5178 28.4431 28.5138 28.443 28.5117C28.443 28.5095 28.4469 28.5022 28.4521 28.4954C28.4605 28.4842 28.4731 28.48 28.4846 28.4828H28.4846ZM29.0193 28.5514C29.0296 28.5513 29.0383 28.5549 29.0446 28.5604C29.0553 28.5698 29.0549 28.5836 29.0428 28.5929C29.0349 28.599 28.9924 28.5984 28.9777 28.5929C28.9712 28.5905 28.9687 28.5872 28.9687 28.5803C28.9686 28.5722 28.9709 28.5671 28.985 28.5604C28.9968 28.5548 29.009 28.5515 29.0193 28.5514H29.0193ZM28.0267 28.8299C28.0212 28.8263 28.013 28.8232 28.0212 28.8171C28.0312 28.7996 28.0512 28.7936 28.0689 28.7871C28.1006 28.7734 28.1279 28.7501 28.1483 28.7224C28.1512 28.7032 28.1728 28.6927 28.1727 28.6726C28.1729 28.6452 28.1745 28.617 28.1678 28.5902C28.1604 28.5656 28.1417 28.5467 28.12 28.5339C28.1052 28.5222 28.0811 28.519 28.0756 28.4984C28.0726 28.4786 28.0903 28.4635 28.0964 28.4459C28.1093 28.4215 28.1202 28.3959 28.1341 28.3721C28.149 28.3555 28.1721 28.3712 28.1799 28.3873C28.1908 28.4034 28.2005 28.4206 28.206 28.4392C28.2234 28.4584 28.2389 28.4809 28.2452 28.5063C28.2538 28.5243 28.2674 28.5412 28.2666 28.5622C28.2666 28.5863 28.2801 28.6077 28.2793 28.6319C28.2801 28.6643 28.28 28.6981 28.2682 28.7287C28.2601 28.7457 28.2439 28.7558 28.2331 28.771C28.2147 28.7881 28.1944 28.8045 28.1707 28.8136C28.154 28.8189 28.1443 28.8382 28.1234 28.8335C28.0936 28.834 28.0635 28.8381 28.034 28.8333C28.0358 28.8364 28.0249 28.828 28.0267 28.83V28.8299ZM27.6308 28.8559C27.6167 28.8415 27.6137 28.8354 27.6135 28.8212C27.6134 28.8069 27.6161 28.8013 27.6299 28.7874C27.6552 28.7618 27.6676 28.7612 27.7113 28.7833C27.7531 28.8045 27.7672 28.8064 27.771 28.7914C27.7746 28.7769 27.7987 28.7637 27.8215 28.7636C27.836 28.7635 27.8441 28.7664 27.8557 28.7754C27.8703 28.7867 27.871 28.7885 27.8713 28.8146C27.8716 28.8414 27.8712 28.8424 27.8545 28.8572C27.8385 28.8713 27.8359 28.8722 27.8161 28.8702C27.7908 28.8676 27.7756 28.8561 27.7715 28.8362C27.7685 28.8217 27.7635 28.8183 27.7597 28.8281C27.7585 28.8312 27.7522 28.8351 27.7459 28.8367C27.7341 28.8397 27.7141 28.8523 27.7 28.8656C27.6946 28.8707 27.6852 28.8731 27.67 28.8732C27.6494 28.8734 27.6466 28.8722 27.6308 28.8559H27.6308ZM26.4851 28.3415C26.4467 28.3419 26.4053 28.3742 26.4002 28.4119C26.409 28.4554 26.4451 28.498 26.4219 28.5438C26.4379 28.6024 26.3779 28.6246 26.337 28.5908C26.3123 28.5346 26.2998 28.4731 26.2629 28.4228C26.2164 28.4096 26.1962 28.4839 26.1636 28.5095C26.1797 28.5531 26.2269 28.5923 26.2322 28.6468C26.2435 28.6997 26.2113 28.7584 26.1654 28.7859C26.1257 28.8237 26.0714 28.8102 26.0227 28.8184C25.9635 28.853 26.0661 28.8656 26.0931 28.8671C26.1537 28.8733 26.2165 28.8653 26.2611 28.8202C26.3056 28.799 26.3021 28.7221 26.355 28.7136C26.4469 28.7095 26.5379 28.7277 26.6296 28.7299C26.6787 28.7416 26.7547 28.724 26.7886 28.7606C26.7887 28.8246 26.8429 28.8641 26.8951 28.8888C26.924 28.8968 26.9543 28.8611 26.9837 28.8545C27.0394 28.8367 27.0225 28.7677 27.0559 28.7407C27.1513 28.7355 27.2476 28.7366 27.3431 28.7353C27.3613 28.7357 27.3667 28.7099 27.3793 28.6992C27.3772 28.6622 27.3758 28.6256 27.3702 28.589C27.3518 28.5423 27.3732 28.4823 27.3395 28.4426C27.2915 28.4296 27.2507 28.4735 27.2022 28.477C27.1487 28.5008 27.1036 28.5503 27.1011 28.6106C27.0694 28.6625 27.0186 28.6014 27.036 28.5583C27.034 28.5395 27.0401 28.5175 27.0342 28.5005C27.0049 28.4653 26.9536 28.4768 26.9132 28.4716C26.8543 28.4739 26.7969 28.4612 26.738 28.4625C26.6864 28.4586 26.6327 28.467 26.5826 28.4535C26.523 28.4518 26.5312 28.3935 26.5212 28.3523C26.5106 28.3445 26.4979 28.3414 26.4851 28.3415ZM26.6007 28.5546C26.6205 28.5551 26.6392 28.5576 26.6585 28.5601C26.6834 28.5642 26.71 28.5515 26.7344 28.5601C26.7908 28.5697 26.8473 28.5674 26.9042 28.5727C26.9192 28.5725 26.9299 28.5834 26.9403 28.5926C26.9404 28.6321 26.9404 28.6723 26.9403 28.7118C26.9386 28.7267 26.9447 28.7464 26.9313 28.757C26.927 28.7599 26.9221 28.7632 26.9168 28.7642C26.9012 28.7601 26.8846 28.7498 26.8771 28.7353C26.8747 28.7146 26.8781 28.6946 26.8789 28.6739C26.8785 28.6685 26.8812 28.6602 26.8789 28.6558C26.8666 28.6471 26.8527 28.6414 26.8373 28.6413C26.7882 28.6397 26.7401 28.636 26.691 28.6341C26.6502 28.6315 26.6082 28.6376 26.5682 28.6269C26.5527 28.6212 26.5325 28.6232 26.523 28.607C26.5095 28.5913 26.529 28.5725 26.5429 28.5655C26.5613 28.5571 26.5809 28.5543 26.6007 28.5546L26.6007 28.5546ZM27.2528 28.5691C27.262 28.569 27.2649 28.572 27.2691 28.589C27.2717 28.5998 27.2748 28.6131 27.2763 28.6179C27.2784 28.6247 27.275 28.6269 27.2654 28.6305C27.2369 28.6413 27.2085 28.6402 27.1986 28.6269C27.1941 28.6209 27.1994 28.6018 27.2076 28.5944C27.2244 28.5794 27.2429 28.5691 27.2528 28.5691Z" fill="#C09300"/>
<path d="M27.7058 21.0149C27.7444 21.0172 27.6537 20.8086 27.6537 20.8086C27.7557 20.9129 28.141 20.9378 28.141 20.9378C27.9098 20.8357 27.6787 20.0652 27.7058 19.4511C27.7308 18.8346 27.6175 18.5921 27.5268 18.5015C27.4112 18.3859 27.0396 18.2839 26.7948 18.2703C26.6565 18.2635 26.6792 18.3745 26.6792 18.3745C26.4231 18.3088 26.1671 18.2839 26.0515 18.3609C25.9426 18.4335 25.92 18.7961 25.9993 18.7326C26.1919 18.5785 26.3597 18.719 26.4752 18.8867C26.5772 19.0341 26.5704 19.4511 26.4231 19.9383C26.269 20.4505 25.8474 20.9627 25.8474 20.9627C26.0763 20.9627 26.3982 20.7588 26.3982 20.7588L26.3211 21.0783C26.5636 20.9627 26.7563 20.7837 26.7563 20.7837L26.9874 21.0261C27.0645 20.9242 27.2186 20.7837 27.2186 20.7837C27.2186 20.7837 27.4112 20.9877 27.7058 21.0149Z" fill="white" stroke="#C09300" stroke-width="0.0704046"/>
<path d="M27.3839 19.6056C27.3839 19.6056 27.436 20.4895 27.6536 20.809M26.77 19.5397C26.77 19.5397 26.6408 20.4893 26.3983 20.759L26.77 19.5397ZM26.974 19.5149C26.974 19.5149 26.9242 20.4757 26.7565 20.784L26.974 19.5149ZM27.155 19.5536C27.155 19.5536 27.155 20.6052 27.2184 20.7842L27.155 19.5536Z" stroke="#C09300" stroke-width="0.0734103"/>
<path d="M26.5365 19.0796C26.5252 18.9958 26.5048 18.93 26.4753 18.8869C26.3597 18.7193 26.192 18.5787 25.9994 18.7328C25.9994 18.7328 26.0651 18.5288 26.2056 18.5221C26.3144 18.5153 26.5614 18.6036 26.779 18.9753C26.779 18.9753 26.6181 18.9391 26.5796 18.9731C26.507 19.0365 26.5365 19.0796 26.5365 19.0796Z" fill="#C09300" stroke="#C09300" stroke-width="0.0204624"/>
<path d="M25.9793 18.4814C25.9951 18.4292 26.0201 18.3817 26.0518 18.3613C26.1674 18.2842 26.4235 18.3091 26.6796 18.3748C26.6796 18.3748 26.6569 18.2638 26.7952 18.2706C27.0399 18.2842 27.4116 18.3862 27.5272 18.5018C27.5543 18.5313 27.5861 18.5743 27.6133 18.64H27.6088C27.5521 18.5607 27.3912 18.5653 27.3527 18.5698C27.2914 18.5766 27.2529 18.5743 27.1713 18.5947C27.1328 18.6037 27.0739 18.6151 27.0421 18.64C27.0173 18.6604 26.9968 18.7352 26.9583 18.7352C26.8971 18.7352 26.9017 18.7194 26.8858 18.7012C26.8654 18.6763 26.854 18.64 26.8336 18.6422C26.7702 18.6536 26.6682 18.6037 26.5391 18.5018C26.4099 18.3998 26.36 18.3748 26.1923 18.3862C26.0269 18.3998 25.9747 18.4927 25.9747 18.4927L25.9793 18.4814Z" fill="#C09300" stroke="#C09300" stroke-width="0.0204624"/>
<path d="M26.9263 18.6309C26.9639 18.6309 26.9943 18.6005 26.9943 18.5629C26.9943 18.5254 26.9639 18.495 26.9263 18.495C26.8888 18.495 26.8583 18.5254 26.8583 18.5629C26.8583 18.6005 26.8888 18.6309 26.9263 18.6309Z" fill="white"/>
<path d="M26.9932 25.3004C28.88 23.8492 28.7182 21.7234 28.7182 21.7234C28.6684 21.7333 28.6211 21.7383 28.5713 21.7383C28.1755 21.7383 27.2316 21.5119 27.0113 21.2243C26.7754 21.4846 25.8107 21.7383 25.4174 21.7383C25.3677 21.7383 25.3179 21.7333 25.2706 21.7234C25.2706 21.7234 25.1063 23.8492 26.9931 25.3004H26.9932Z" fill="white" stroke="#C09300" stroke-width="0.0664743"/>
<mask id="mask1_1_38717" style="mask-type:alpha" maskUnits="userSpaceOnUse" x="25" y="21" width="4" height="5">
<path d="M28.5678 21.8791C28.5515 21.8801 28.5352 21.8806 28.5188 21.8806C28.1601 21.8806 27.3269 21.6965 27.0058 21.4206C26.6694 21.6755 25.8225 21.8806 25.4696 21.8806C25.453 21.8806 25.4367 21.8786 25.4205 21.8756C25.4196 21.956 25.4238 22.0393 25.4288 22.1151C25.4475 22.3984 25.4972 22.6827 25.5726 22.9563C25.8101 23.8172 26.2961 24.5489 26.993 25.104C27.6904 24.5485 28.177 23.8161 28.415 22.9545C28.4905 22.6809 28.5404 22.3967 28.5592 22.1134C28.5636 22.0341 28.5681 21.937 28.5678 21.8791Z" fill="#FFA654" stroke="#C09300" stroke-width="0.0529482"/>
</mask>
<g mask="url(#mask1_1_38717)">
<path fill-rule="evenodd" clip-rule="evenodd" d="M25.4113 21.4005H26.4667V25.1177H25.4113V21.4005Z" fill="#C09300"/>
<path fill-rule="evenodd" clip-rule="evenodd" d="M26.4667 21.4005H27.5221V25.1177H26.4667V21.4005Z" fill="white"/>
<path fill-rule="evenodd" clip-rule="evenodd" d="M27.5221 21.4005H28.5775V25.1177H27.5221V21.4005Z" fill="#C09300"/>
</g>
<path d="M28.5677 21.8791C28.5515 21.8801 28.5351 21.8806 28.5187 21.8806C28.16 21.8806 27.3269 21.6965 27.0057 21.4206C26.6693 21.6755 25.8224 21.8806 25.4695 21.8806C25.453 21.8806 25.4366 21.8786 25.4204 21.8756C25.4196 21.956 25.4238 22.0393 25.4287 22.1151C25.4474 22.3984 25.4971 22.6827 25.5725 22.9563C25.81 23.8172 26.296 24.5489 26.9929 25.104C27.6903 24.5485 28.1769 23.8161 28.4149 22.9545C28.4905 22.6809 28.5403 22.3967 28.5592 22.1134C28.5636 22.0341 28.568 21.937 28.5677 21.8791V21.8791Z" stroke="#C09300" stroke-width="0.0529482"/>
<rect x="3" y="6" width="48" height="12" fill="#EE5757"/>
</g>
</svg>
