<svg width="54" height="54" viewBox="0 0 54 54" fill="none" xmlns="http://www.w3.org/2000/svg">
<mask id="mask0_1_37305" style="mask-type:alpha" maskUnits="userSpaceOnUse" x="3" y="9" width="48" height="36">
<path d="M3.56934 18.1356C4.16681 13.4125 8.0415 10.0019 12.7861 9.60887C16.6412 9.28949 21.6196 9 27 9C32.3804 9 37.3588 9.28949 41.2139 9.60887C45.9585 10.0019 49.8332 13.4125 50.4307 18.1356C50.752 20.6759 51 23.704 51 27C51 30.296 50.752 33.3241 50.4307 35.8644C49.8332 40.5875 45.9585 43.9981 41.2139 44.3911C37.3588 44.7105 32.3804 45 27 45C21.6196 45 16.6412 44.7105 12.7861 44.3911C8.04151 43.9981 4.16681 40.5875 3.56934 35.8644C3.248 33.3241 3 30.296 3 27C3 23.704 3.248 20.6759 3.56934 18.1356Z" fill="#00D0BF"/>
</mask>
<g mask="url(#mask0_1_37305)">
<rect x="3" y="27" width="48" height="18" fill="#75AAFA"/>
<rect x="3" y="9" width="48" height="18" fill="#59C785"/>
<path d="M3 7L51 27L3 47V7Z" fill="#EE5757"/>
<path d="M19.3488 33.8273C18.7377 33.996 18.3873 34.4702 18.3963 34.9175L21.4044 34.9054C21.4315 34.4247 21.036 33.9802 20.434 33.8051C23.3792 33.7443 25.9378 32.641 26.4028 31.9332C25.9427 31.7335 25.4107 32.0549 25.0314 31.9809C25.9318 31.5647 28.6295 29.8186 28.191 27.9467C27.85 28.9864 26.8172 29.8467 26.3773 30.0777C27.3851 28.5475 28.7611 26.9544 27.5673 25.7207C27.6276 26.4357 27.1129 27.2226 26.8856 27.2818C27.4702 25.6649 28.028 23.635 26.7614 22.2968C26.9277 22.7804 26.8606 24.1449 26.6315 24.2062C26.561 23.1068 26.3734 20.7943 25.2156 20.8272C25.5833 21.1546 25.7442 22.0481 25.7524 22.9506C25.4885 22.3323 25.1887 21.8668 24.5473 21.4103C24.0284 20.4152 23.1052 19.5907 22.1819 19C22.2855 19.7243 22.3713 20.2958 23.3826 21.047C22.8554 21.0142 22.3282 20.0146 21.7647 19.9869C21.3164 19.9653 20.9647 20.3931 20.2322 20.1469C20.3133 20.3887 20.655 20.4958 20.7272 20.6747C20.5703 20.783 20.1978 20.6578 19.8882 20.4965C20.3141 21.0767 20.9741 21.4178 21.5344 21.3027C22.2008 21.1746 22.9152 21.2423 23.5966 21.6301C23.4226 21.7194 22.7452 21.7189 22.3105 21.6645C22.7056 22.0645 22.9706 22.3297 23.6577 22.3253C24.2713 22.3213 24.5931 21.9979 24.7506 22.1982C25.1355 22.6543 25.3946 23.1101 25.7165 23.647C25.0053 23.7256 25.2197 22.8427 24.4277 22.3911C23.9826 23.3122 24.9395 24.4041 25.5909 24.858C25.5997 25.5504 25.7009 26.1297 25.9945 26.6568C26.1925 27.0285 26.4484 27.4089 26.3519 28.2476C25.962 27.9636 25.5809 27.0058 25.7211 26.2455C25.2331 26.3786 25.0422 27.2368 25.2723 27.6688C25.4441 27.9977 25.5588 28.6271 25.3606 28.9084C25.1675 29.1706 25.1473 29.1413 25.1498 29.7039C25.1567 30.0405 24.9686 30.4386 24.6623 30.7162C24.7263 30.479 24.7992 30.0709 24.7283 29.8158C24.4862 30.2265 23.8787 30.6515 23.6875 31.0931C23.4996 31.5358 23.452 32.3024 22.543 32.4792C21.3735 32.7113 20.9699 32.914 20.2174 33.2219C20.1338 32.6504 20.3838 31.4585 20.8617 31.5264C21.3284 31.6095 22.7432 31.039 22.2371 29.8471C22.1371 30.2227 21.8037 30.5893 21.4432 30.6055C21.8327 30.1002 22.5278 29.577 22.1892 28.7303C22.0011 29.0902 21.7051 29.5221 21.2563 29.7652C21.7374 28.8431 21.3122 28.5673 20.7408 29.3267C20.5251 29.6197 20.3947 30.2067 20.2576 30.9523C20.0332 30.3459 20.048 29.5476 19.7821 28.8995C19.5043 28.1985 20.1508 28.0134 20.455 28.0697C21.1999 28.2686 22.4448 28.2684 22.3524 27.0378C22.0306 27.4541 21.4664 27.5827 20.8571 27.4328C21.5414 26.9331 22.0817 25.9932 21.3192 25.5025C21.2938 26.0229 20.8911 26.6063 20.3534 26.875C20.2276 26.436 20.2276 25.97 20.3355 25.4592C20.0353 25.7751 19.816 26.4326 19.6417 27.1801C19.6285 26.4413 19.7683 25.9089 19.8719 25.5115C20.0291 24.931 20.4196 25.3087 21.0174 25.3515C21.5931 25.3842 22.3857 25.066 22.2342 24.2853C22.0376 24.5942 21.6341 24.7144 21.2219 24.6817C21.7182 24.381 22.583 23.8467 22.1087 23.0249C21.9095 23.3361 21.845 23.6024 21.2683 23.6979C21.4194 23.3505 21.4445 22.8593 21.892 22.6647C21.0936 22.5058 20.6365 23.0297 20.4042 23.8503C20.31 23.2814 20.1978 23.0719 20.1755 22.6558C20.6071 22.1764 20.6523 21.2387 19.7179 21.0291C19.6625 21.5127 19.6789 21.628 19.7852 22.0218C19.3466 21.7613 18.7285 21.6175 18.3169 21.986C18.5957 22.2869 19.0273 22.5518 19.6925 22.2236C19.5354 22.7377 19.1267 22.6497 18.5651 22.4537C18.9084 23.0984 19.3416 23.2129 19.8196 23.1386C20.0699 23.7985 20.0809 24.2999 19.3495 25.261C19.3833 24.6638 19.3409 24.2188 18.8664 23.736C18.4598 23.3377 18.1293 23.753 18.7647 24.6383C18.3792 24.3545 17.943 23.7783 17.8116 23.2022C17.6845 23.9139 17.7989 24.7527 18.1929 25.2229C18.0066 25.422 17.7947 25.2017 17.4812 24.7146C17.5998 26.2735 18.2649 26.5743 19.1588 26.2268C19.1842 27.0825 19.1842 27.8748 19.235 28.9084C18.7139 28.1587 18.0531 27.5995 17.6845 27.4597C17.5702 27.8791 18.0023 28.4255 18.2437 28.7305C17.8752 28.6542 17.0745 28.0443 17.0745 28.0443C16.994 28.739 17.8922 29.3829 18.4725 29.671C17.7905 29.6413 17.4896 29.3829 17.0491 28.9593C17.0576 30.8868 19.1375 30.5521 19.5273 30.2555C19.5782 31.2045 19.6506 32.3015 19.7015 33.2504C19.1135 33.1478 19.1597 32.971 18.6566 32.9245C17.2602 32.8701 16.1525 31.2482 15.7856 30.0551C15.6804 30.2515 15.7639 30.4569 15.6676 30.6981C15.4409 30.1125 15.1513 29.3562 14.7628 29.0043C14.8618 29.3457 14.8722 29.6926 14.8378 30.3306C14.7045 29.9172 14.5805 29.7905 14.5715 29.3052C14.5801 28.9326 14.931 28.6577 14.9116 28.1336C14.8972 27.7511 14.5482 26.9218 14.4969 26.2799C14.3279 26.9406 14.2219 27.6371 13.9631 28.0461C14.0917 27.3405 14.0504 26.8536 14.268 26.3788C14.5193 25.8789 14.733 25.4326 14.5657 24.9281C14.4052 25.1229 14.4604 25.3 14.0573 25.7734C13.9697 25.2586 14.5786 24.4345 15.1694 24.1032C15.5862 23.8837 16.1115 23.0983 15.7693 22.5599C15.3774 22.8414 15.2014 23.2217 14.6478 23.8715C15.0427 22.3278 16.0687 21.924 17.2971 21.9187C17.5689 21.9174 18.1169 21.8193 18.2707 21.4596C17.9244 21.5933 17.5151 21.6103 17.1508 21.5374C17.4159 21.1481 17.9742 21.1987 18.4945 21.1964C18.9026 21.1945 19.5397 21.1391 19.7973 20.5579C19.2995 20.7736 18.523 20.8184 18.0342 20.6657C18.8116 20.2629 20.0294 20.2195 20.654 19.6908C19.9421 19.1595 18.1607 19.8146 17.0355 20.5863C17.35 20.2988 17.847 19.7886 18.1212 19.3768C17.5059 19.0818 15.9496 20.8059 15.4134 21.8303C14.9042 22.1179 14.7005 22.5687 14.5028 22.8833C14.7741 21.9664 14.8029 21.3011 15.0292 20.5461C13.2837 21.147 14.0092 24.3722 13.6295 25.1438C13.6742 24.2919 13.638 23.1975 13.2873 22.6332C12.7497 23.0434 12.7063 25.4576 13.2111 27.4674C13.0288 26.9295 12.6847 26.4275 12.5743 25.7728C11.7786 27.2241 13.0408 28.9363 14.0963 30.2888C13.3017 29.8749 12.5161 28.9847 12 28.2384C12.1424 30.8359 14.855 31.3756 15.2761 32.014C14.7045 31.748 13.6118 31.2215 13.1481 31.7732C13.903 31.9474 14.5051 32.1488 14.9902 32.4669C15.6942 33.3458 17.0272 33.7302 19.3488 33.8273V33.8273Z" fill="#FCD95E"/>
</g>
</svg>
