<svg width="54" height="48" viewBox="0 0 54 48" fill="none" xmlns="http://www.w3.org/2000/svg">
<mask id="mask0_1_37305" style="mask-type:alpha" maskUnits="userSpaceOnUse" x="3" y="6" width="48" height="36">
<path d="M3.56934 15.1356C4.16681 10.4125 8.0415 7.00193 12.7861 6.60887C16.6412 6.28949 21.6196 6 27 6C32.3804 6 37.3588 6.28949 41.2139 6.60887C45.9585 7.00193 49.8332 10.4125 50.4307 15.1356C50.752 17.6759 51 20.704 51 24C51 27.296 50.752 30.3241 50.4307 32.8644C49.8332 37.5875 45.9585 40.9981 41.2139 41.3911C37.3588 41.7105 32.3804 42 27 42C21.6196 42 16.6412 41.7105 12.7861 41.3911C8.0415 40.9981 4.16681 37.5875 3.56934 32.8644C3.248 30.3241 3 27.296 3 24C3 20.704 3.248 17.6759 3.56934 15.1356Z" fill="#00D0BF"/>
</mask>
<g mask="url(#mask0_1_37305)">
<rect x="3" y="24" width="48" height="18" fill="#75AAFA"/>
<rect x="3" y="6" width="48" height="18" fill="#59C785"/>
<path d="M3 4L51 24L3 44V4Z" fill="#EE5757"/>
<path d="M19.3488 30.8273C18.7377 30.996 18.3873 31.4702 18.3963 31.9175L21.4044 31.9054C21.4315 31.4247 21.036 30.9802 20.434 30.8051C23.3792 30.7443 25.9378 29.641 26.4028 28.9332C25.9427 28.7335 25.4107 29.0549 25.0314 28.9809C25.9318 28.5647 28.6295 26.8186 28.191 24.9467C27.85 25.9864 26.8172 26.8467 26.3773 27.0777C27.3851 25.5475 28.7611 23.9544 27.5673 22.7207C27.6276 23.4357 27.1129 24.2226 26.8856 24.2818C27.4702 22.6649 28.028 20.635 26.7614 19.2968C26.9277 19.7804 26.8606 21.1449 26.6315 21.2062C26.561 20.1068 26.3734 17.7943 25.2156 17.8272C25.5833 18.1546 25.7442 19.0481 25.7524 19.9506C25.4885 19.3323 25.1887 18.8668 24.5473 18.4103C24.0284 17.4152 23.1052 16.5907 22.1819 16C22.2855 16.7243 22.3713 17.2958 23.3826 18.047C22.8554 18.0142 22.3282 17.0146 21.7647 16.9869C21.3164 16.9653 20.9647 17.3931 20.2322 17.1469C20.3133 17.3887 20.655 17.4958 20.7272 17.6747C20.5703 17.783 20.1978 17.6578 19.8882 17.4965C20.3141 18.0767 20.9741 18.4178 21.5344 18.3027C22.2008 18.1746 22.9152 18.2423 23.5966 18.6301C23.4226 18.7194 22.7452 18.7189 22.3105 18.6645C22.7056 19.0645 22.9706 19.3297 23.6577 19.3253C24.2713 19.3213 24.5931 18.9979 24.7506 19.1982C25.1355 19.6543 25.3946 20.1101 25.7165 20.647C25.0053 20.7256 25.2197 19.8427 24.4277 19.3911C23.9826 20.3122 24.9395 21.4041 25.5909 21.858C25.5997 22.5504 25.7009 23.1297 25.9945 23.6568C26.1925 24.0285 26.4484 24.4089 26.3519 25.2476C25.962 24.9636 25.5809 24.0058 25.7211 23.2455C25.2331 23.3786 25.0422 24.2368 25.2723 24.6688C25.4441 24.9977 25.5588 25.6271 25.3606 25.9084C25.1675 26.1706 25.1473 26.1413 25.1498 26.7039C25.1567 27.0405 24.9686 27.4386 24.6623 27.7162C24.7263 27.479 24.7992 27.0709 24.7283 26.8158C24.4862 27.2265 23.8787 27.6515 23.6875 28.0931C23.4996 28.5358 23.452 29.3024 22.543 29.4792C21.3735 29.7113 20.9699 29.914 20.2174 30.2219C20.1339 29.6504 20.3838 28.4585 20.8617 28.5264C21.3284 28.6095 22.7432 28.039 22.2371 26.8471C22.1371 27.2227 21.8037 27.5893 21.4432 27.6055C21.8327 27.1002 22.5278 26.577 22.1892 25.7303C22.0011 26.0902 21.7051 26.5221 21.2563 26.7652C21.7374 25.8431 21.3122 25.5673 20.7408 26.3267C20.5251 26.6197 20.3947 27.2067 20.2576 27.9523C20.0332 27.3459 20.048 26.5476 19.7821 25.8995C19.5043 25.1985 20.1508 25.0134 20.455 25.0697C21.1999 25.2686 22.4448 25.2684 22.3524 24.0378C22.0306 24.4541 21.4664 24.5827 20.8571 24.4328C21.5414 23.9331 22.0817 22.9932 21.3192 22.5025C21.2938 23.0229 20.8911 23.6063 20.3534 23.875C20.2276 23.436 20.2276 22.97 20.3355 22.4592C20.0353 22.7751 19.816 23.4326 19.6417 24.1801C19.6285 23.4413 19.7683 22.9089 19.8719 22.5115C20.0291 21.931 20.4196 22.3087 21.0174 22.3515C21.5931 22.3842 22.3857 22.066 22.2342 21.2853C22.0376 21.5942 21.6341 21.7144 21.2219 21.6817C21.7182 21.381 22.583 20.8467 22.1087 20.0249C21.9095 20.3361 21.845 20.6024 21.2683 20.6979C21.4194 20.3505 21.4445 19.8593 21.892 19.6647C21.0936 19.5058 20.6365 20.0297 20.4042 20.8503C20.31 20.2814 20.1978 20.0719 20.1755 19.6558C20.6071 19.1764 20.6523 18.2387 19.7179 18.0291C19.6625 18.5127 19.6789 18.628 19.7852 19.0218C19.3466 18.7613 18.7285 18.6175 18.3169 18.986C18.5957 19.2869 19.0273 19.5518 19.6925 19.2236C19.5354 19.7377 19.1267 19.6497 18.5651 19.4537C18.9084 20.0984 19.3416 20.2129 19.8196 20.1386C20.0699 20.7985 20.0809 21.2999 19.3495 22.261C19.3833 21.6638 19.3409 21.2188 18.8664 20.736C18.4598 20.3377 18.1293 20.753 18.7647 21.6383C18.3792 21.3545 17.943 20.7783 17.8116 20.2022C17.6845 20.9139 17.7989 21.7527 18.1929 22.2229C18.0066 22.422 17.7947 22.2017 17.4812 21.7146C17.5998 23.2735 18.2649 23.5743 19.1588 23.2268C19.1842 24.0825 19.1842 24.8748 19.235 25.9084C18.7139 25.1587 18.0531 24.5995 17.6845 24.4597C17.5702 24.8791 18.0023 25.4255 18.2437 25.7305C17.8752 25.6542 17.0745 25.0443 17.0745 25.0443C16.994 25.739 17.8922 26.3829 18.4725 26.671C17.7905 26.6413 17.4896 26.3829 17.0491 25.9593C17.0576 27.8868 19.1375 27.5521 19.5273 27.2555C19.5782 28.2045 19.6506 29.3015 19.7015 30.2504C19.1135 30.1478 19.1597 29.971 18.6566 29.9245C17.2602 29.8701 16.1525 28.2482 15.7856 27.0551C15.6804 27.2515 15.7639 27.4569 15.6676 27.6981C15.4409 27.1125 15.1513 26.3562 14.7628 26.0043C14.8618 26.3457 14.8722 26.6926 14.8378 27.3306C14.7045 26.9172 14.5805 26.7905 14.5715 26.3052C14.5801 25.9326 14.931 25.6577 14.9116 25.1336C14.8972 24.7511 14.5482 23.9218 14.4969 23.2799C14.3279 23.9406 14.2219 24.6371 13.9631 25.0461C14.0917 24.3405 14.0504 23.8536 14.268 23.3788C14.5193 22.8789 14.733 22.4326 14.5657 21.9281C14.4052 22.1229 14.4604 22.3 14.0573 22.7734C13.9697 22.2586 14.5786 21.4345 15.1694 21.1032C15.5862 20.8837 16.1115 20.0983 15.7693 19.5599C15.3774 19.8414 15.2014 20.2217 14.6478 20.8715C15.0427 19.3278 16.0687 18.924 17.2971 18.9187C17.5689 18.9174 18.1169 18.8193 18.2707 18.4596C17.9244 18.5933 17.5151 18.6103 17.1508 18.5374C17.4159 18.1481 17.9742 18.1987 18.4945 18.1964C18.9026 18.1945 19.5397 18.1391 19.7973 17.5579C19.2995 17.7736 18.523 17.8184 18.0342 17.6657C18.8116 17.2629 20.0294 17.2195 20.654 16.6908C19.9421 16.1595 18.1607 16.8146 17.0355 17.5863C17.35 17.2988 17.847 16.7886 18.1212 16.3768C17.5059 16.0818 15.9496 17.8059 15.4134 18.8303C14.9042 19.1179 14.7005 19.5687 14.5028 19.8833C14.7741 18.9664 14.8029 18.3011 15.0292 17.5461C13.2837 18.147 14.0092 21.3722 13.6295 22.1438C13.6742 21.2919 13.638 20.1975 13.2873 19.6332C12.7497 20.0434 12.7063 22.4576 13.2111 24.4674C13.0288 23.9295 12.6847 23.4275 12.5743 22.7728C11.7786 24.2241 13.0408 25.9363 14.0963 27.2888C13.3017 26.8749 12.5161 25.9847 12 25.2384C12.1424 27.8359 14.855 28.3756 15.2761 29.014C14.7045 28.748 13.6118 28.2215 13.1481 28.7732C13.903 28.9474 14.5051 29.1488 14.9902 29.4669C15.6942 30.3458 17.0272 30.7302 19.3488 30.8273Z" fill="#FCD95E"/>
</g>
</svg>
