<svg width="54" height="54" viewBox="0 0 54 54" fill="none" xmlns="http://www.w3.org/2000/svg">
<mask id="mask0_1_31929" style="mask-type:alpha" maskUnits="userSpaceOnUse" x="3" y="9" width="48" height="36">
<path d="M3.56934 18.1356C4.16681 13.4125 8.0415 10.0019 12.7861 9.60887C16.6412 9.28949 21.6196 9 27 9C32.3804 9 37.3588 9.28949 41.2139 9.60887C45.9585 10.0019 49.8332 13.4125 50.4307 18.1356C50.752 20.6759 51 23.704 51 27C51 30.296 50.752 33.3241 50.4307 35.8644C49.8332 40.5875 45.9585 43.9981 41.2139 44.3911C37.3588 44.7105 32.3804 45 27 45C21.6196 45 16.6412 44.7105 12.7861 44.3911C8.04151 43.9981 4.16681 40.5875 3.56934 35.8644C3.248 33.3241 3 30.296 3 27C3 23.704 3.248 20.6759 3.56934 18.1356Z" fill="#00D0BF"/>
</mask>
<g mask="url(#mask0_1_31929)">
<rect x="3" y="33" width="48" height="12" fill="#59C785"/>
<rect x="1" y="21" width="52" height="12" fill="#F5F5F5"/>
<path d="M33 24L33.6735 26.0729H35.8532L34.0898 27.3541L34.7634 29.4271L33 28.1459L31.2366 29.4271L31.9102 27.3541L30.1468 26.0729H32.3265L33 24Z" fill="#EE5757"/>
<path fill-rule="evenodd" clip-rule="evenodd" d="M32 22.2946C29.7841 22.715 28.1085 24.6618 28.1085 27C28.1085 29.3383 29.7841 31.2851 32 31.7055C31.7091 31.7607 31.4089 31.7895 31.102 31.7895C28.4568 31.7895 26.3125 29.6452 26.3125 27C26.3125 24.3549 28.4568 22.2106 31.102 22.2106C31.4089 22.2106 31.7091 22.2394 32 22.2946Z" fill="#EE5757"/>
<rect x="3" y="9" width="48" height="12" fill="#2C2929"/>
<path d="M22 27L2 9V45L22 27Z" fill="#EE5757"/>
</g>
</svg>
