<svg width="54" height="48" viewBox="0 0 54 48" fill="none" xmlns="http://www.w3.org/2000/svg">
<mask id="mask0_1_31929" style="mask-type:alpha" maskUnits="userSpaceOnUse" x="3" y="6" width="48" height="36">
<path d="M3.56934 15.1356C4.16681 10.4125 8.0415 7.00193 12.7861 6.60887C16.6412 6.28949 21.6196 6 27 6C32.3804 6 37.3588 6.28949 41.2139 6.60887C45.9585 7.00193 49.8332 10.4125 50.4307 15.1356C50.752 17.6759 51 20.704 51 24C51 27.296 50.752 30.3241 50.4307 32.8644C49.8332 37.5875 45.9585 40.9981 41.2139 41.3911C37.3588 41.7105 32.3804 42 27 42C21.6196 42 16.6412 41.7105 12.7861 41.3911C8.0415 40.9981 4.16681 37.5875 3.56934 32.8644C3.248 30.3241 3 27.296 3 24C3 20.704 3.248 17.6759 3.56934 15.1356Z" fill="#00D0BF"/>
</mask>
<g mask="url(#mask0_1_31929)">
<rect x="3" y="30" width="48" height="12" fill="#59C785"/>
<rect x="1" y="18" width="52" height="12" fill="#F5F5F5"/>
<path d="M33 21L33.6735 23.0729H35.8532L34.0898 24.3541L34.7634 26.4271L33 25.1459L31.2366 26.4271L31.9102 24.3541L30.1468 23.0729H32.3265L33 21Z" fill="#EE5757"/>
<path fill-rule="evenodd" clip-rule="evenodd" d="M32 19.2946C29.7841 19.715 28.1085 21.6618 28.1085 24C28.1085 26.3383 29.7841 28.2851 32 28.7055C31.7091 28.7607 31.4089 28.7895 31.102 28.7895C28.4568 28.7895 26.3125 26.6452 26.3125 24C26.3125 21.3549 28.4568 19.2106 31.102 19.2106C31.4089 19.2106 31.7091 19.2394 32 19.2946Z" fill="#EE5757"/>
<rect x="3" y="6" width="48" height="12" fill="#2C2929"/>
<path d="M22 24L2 6V42L22 24Z" fill="#EE5757"/>
</g>
</svg>
