<svg width="54" height="54" viewBox="0 0 54 54" fill="none" xmlns="http://www.w3.org/2000/svg">
<mask id="mask0_1_40775" style="mask-type:alpha" maskUnits="userSpaceOnUse" x="3" y="9" width="48" height="36">
<path d="M3.56934 18.1356C4.16681 13.4125 8.0415 10.0019 12.7861 9.60887C16.6412 9.28949 21.6196 9 27 9C32.3804 9 37.3588 9.28949 41.2139 9.60887C45.9585 10.0019 49.8332 13.4125 50.4307 18.1356C50.752 20.6759 51 23.704 51 27C51 30.296 50.752 33.3241 50.4307 35.8644C49.8332 40.5875 45.9585 43.9981 41.2139 44.3911C37.3588 44.7105 32.3804 45 27 45C21.6196 45 16.6412 44.7105 12.7861 44.3911C8.04151 43.9981 4.16681 40.5875 3.56934 35.8644C3.248 33.3241 3 30.296 3 27C3 23.704 3.248 20.6759 3.56934 18.1356Z" fill="#00D0BF"/>
</mask>
<g mask="url(#mask0_1_40775)">
<rect x="3" y="33" width="48" height="12" fill="#EE5757"/>
<rect x="3" y="21" width="48" height="12" fill="#FCD95E"/>
<rect x="3" y="9" width="48" height="12" fill="#59C785"/>
</g>
<path d="M27 38C33.0751 38 38 33.0751 38 27C38 20.9249 33.0751 16 27 16C20.9249 16 16 20.9249 16 27C16 33.0751 20.9249 38 27 38Z" fill="#0F47AF"/>
<path d="M27 18.2L26.6145 19.3866L28.2047 24.2807H26.0845L25.8463 25.014H32.6445L33.6538 24.2807H28.9757L27 18.2Z" fill="#FCDD09"/>
<path d="M29.3708 23.737L32.1726 19.8807Z" fill="black"/>
<path d="M29.3708 23.737L32.1726 19.8807" stroke="#FCDD09" stroke-width="0.366667"/>
<path d="M35.3927 24.3373L34.1026 24.2844L29.6249 27.1873L29.0624 25.1066L28.265 25.0739L30.0687 31.7455L31.0707 32.5349L29.8295 27.944L35.3927 24.3373Z" fill="#FCDD09"/>
<path d="M30.5686 28.268L35.102 29.741Z" fill="black"/>
<path d="M30.5686 28.268L35.102 29.741" stroke="#FCDD09" stroke-width="0.366667"/>
<path d="M31.7843 34.0895L31.4575 32.876L27.4296 29.6526L29.2162 28.4649L29.0143 27.715L23.2855 31.5232L22.8377 32.7051L26.7799 30.0845L31.7843 34.0895Z" fill="#FCDD09"/>
<path d="M27.8832 33.3466L27.6746 38.8026Z" fill="black"/>
<path d="M27.8832 33.3466L27.6746 38.8026" stroke="#FCDD09" stroke-width="0.366667"/>
<path d="M21.937 33.7055L22.9136 32.924L24.2615 27.919L26.0481 29.1067L26.6516 28.6237L20.9229 24.8154L19.6696 24.8665L23.6117 27.4871L21.937 33.7055Z" fill="#FCDD09"/>
<path d="M23.0496 27.8007L18.5163 29.2737Z" fill="black"/>
<path d="M23.0496 27.8007L18.5163 29.2737" stroke="#FCDD09" stroke-width="0.366667"/>
<path d="M18.6711 24.1799L19.7567 24.8837L25.0782 24.6655L24.5157 26.7461L25.1866 27.1811L26.9903 20.5095L26.524 19.3178L25.2828 23.9088L18.6711 24.1799Z" fill="#FCDD09"/>
<path d="M24.7201 23.4345L21.9183 19.5782Z" fill="black"/>
<path d="M24.7201 23.4345L21.9183 19.5782" stroke="#FCDD09" stroke-width="0.366667"/>
</svg>
