<svg width="54" height="48" viewBox="0 0 54 48" fill="none" xmlns="http://www.w3.org/2000/svg">
<mask id="mask0_1_40775" style="mask-type:alpha" maskUnits="userSpaceOnUse" x="3" y="6" width="48" height="36">
<path d="M3.56934 15.1356C4.16681 10.4125 8.0415 7.00193 12.7861 6.60887C16.6412 6.28949 21.6196 6 27 6C32.3804 6 37.3588 6.28949 41.2139 6.60887C45.9585 7.00193 49.8332 10.4125 50.4307 15.1356C50.752 17.6759 51 20.704 51 24C51 27.296 50.752 30.3241 50.4307 32.8644C49.8332 37.5875 45.9585 40.9981 41.2139 41.3911C37.3588 41.7105 32.3804 42 27 42C21.6196 42 16.6412 41.7105 12.7861 41.3911C8.0415 40.9981 4.16681 37.5875 3.56934 32.8644C3.248 30.3241 3 27.296 3 24C3 20.704 3.248 17.6759 3.56934 15.1356Z" fill="#00D0BF"/>
</mask>
<g mask="url(#mask0_1_40775)">
<rect x="3" y="30" width="48" height="12" fill="#EE5757"/>
<rect x="3" y="18" width="48" height="12" fill="#FCD95E"/>
<rect x="3" y="6" width="48" height="12" fill="#59C785"/>
</g>
<path d="M27 35C33.0751 35 38 30.0751 38 24C38 17.9249 33.0751 13 27 13C20.9249 13 16 17.9249 16 24C16 30.0751 20.9249 35 27 35Z" fill="#0F47AF"/>
<path d="M27 15.2L26.6144 16.3866L28.2046 21.2807H26.0845L25.8462 22.014H32.6444L33.6538 21.2807H28.9757L27 15.2Z" fill="#FCDD09"/>
<path d="M29.3707 20.737L32.1725 16.8807L29.3707 20.737Z" fill="black"/>
<path d="M29.3707 20.737L32.1725 16.8807" stroke="#FCDD09" stroke-width="0.366667"/>
<path d="M35.2278 21.3593L33.9618 21.2731L29.6625 24.0992L29.0474 21.9781L28.265 21.9248L30.2372 28.7263L31.2434 29.551L29.8862 24.8707L35.2278 21.3593Z" fill="#FCDD09"/>
<path d="M30.5686 25.268L35.102 26.741L30.5686 25.268Z" fill="black"/>
<path d="M30.5686 25.268L35.102 26.741" stroke="#FCDD09" stroke-width="0.366667"/>
<path d="M31.7993 31.1596L31.4499 29.9359L27.3698 26.6366L29.1288 25.4713L28.9129 24.715L23.2724 28.4516L22.8486 29.6317L26.73 27.0604L31.7993 31.1596Z" fill="#FCDD09"/>
<path d="M27.5628 29.4868L27.4429 34.6408L27.5628 29.4868Z" fill="black"/>
<path d="M27.5628 29.4868L27.4429 34.6408" stroke="#FCDD09" stroke-width="0.366667"/>
<path d="M21.8506 30.7176L22.8398 29.9177L24.2812 24.8704L26.0402 26.0358L26.6516 25.5414L21.0111 21.8048L19.76 21.8753L23.6414 24.4466L21.8506 30.7176Z" fill="#FCDD09"/>
<path d="M23.0496 24.8007L18.5162 26.2736L23.0496 24.8007Z" fill="black"/>
<path d="M23.0496 24.8007L18.5162 26.2736" stroke="#FCDD09" stroke-width="0.366667"/>
<path d="M18.6997 21.307L19.7421 21.9922L24.964 21.6365L24.3489 23.7576L24.9931 24.1811L26.9653 17.3796L26.5448 16.1847L25.1877 20.865L18.6997 21.307Z" fill="#FCDD09"/>
<path d="M24.72 20.4344L21.9183 16.5781L24.72 20.4344Z" fill="black"/>
<path d="M24.72 20.4344L21.9183 16.5781" stroke="#FCDD09" stroke-width="0.366667"/>
</svg>
