<svg width="54" height="54" viewBox="0 0 54 54" fill="none" xmlns="http://www.w3.org/2000/svg">
<mask id="mask0_1_32894" style="mask-type:alpha" maskUnits="userSpaceOnUse" x="3" y="9" width="48" height="36">
<path d="M3.56934 18.1356C4.16681 13.4125 8.0415 10.0019 12.7861 9.60887C16.6412 9.28949 21.6196 9 27 9C32.3804 9 37.3588 9.28949 41.2139 9.60887C45.9585 10.0019 49.8332 13.4125 50.4307 18.1356C50.752 20.6759 51 23.704 51 27C51 30.296 50.752 33.3241 50.4307 35.8644C49.8332 40.5875 45.9585 43.9981 41.2139 44.3911C37.3588 44.7105 32.3804 45 27 45C21.6196 45 16.6412 44.7105 12.7861 44.3911C8.04151 43.9981 4.16681 40.5875 3.56934 35.8644C3.248 33.3241 3 30.296 3 27C3 23.704 3.248 20.6759 3.56934 18.1356Z" fill="#00D0BF"/>
</mask>
<g mask="url(#mask0_1_32894)">
<rect x="3" y="9" width="48" height="36" fill="#75AAFA"/>
<path d="M33 20V30.153C33 33.4738 39 35.4455 39 35.4455C39 35.4455 45 33.4736 45 30.153V20H33Z" fill="white"/>
<path d="M38.1683 23.5674V28.1388H33V29.8022H38.1683V35.1289L39 35.4456L39.8317 35.1289V29.8022H45V28.1388H39.8317V23.5674H38.1683Z" fill="#C8102E"/>
<path d="M33 20H45V23.9208H33V20Z" fill="#C8102E"/>
<path d="M33.9619 22.9324C34.3343 22.9324 34.6363 22.6894 34.6363 22.3897C34.6363 22.09 34.3343 21.847 33.9619 21.847C33.5894 21.847 33.2875 22.09 33.2875 22.3897C33.2875 22.6894 33.5894 22.9324 33.9619 22.9324Z" fill="white" stroke="black" stroke-width="0.0397525" stroke-miterlimit="3"/>
<path d="M33.9619 22.4113C34.2931 22.4113 34.5616 22.2756 34.5616 22.1082C34.5616 21.9408 34.2931 21.8051 33.9619 21.8051C33.6307 21.8051 33.3622 21.9408 33.3622 22.1082C33.3622 22.2756 33.6307 22.4113 33.9619 22.4113Z" fill="white" stroke="black" stroke-width="0.0398515" stroke-miterlimit="3"/>
<path d="M33.9619 23.0174C34.2931 23.0174 34.5616 22.8817 34.5616 22.7143C34.5616 22.5469 34.2931 22.4112 33.9619 22.4112C33.6307 22.4112 33.3622 22.5469 33.3622 22.7143C33.3622 22.8817 33.6307 23.0174 33.9619 23.0174Z" fill="white" stroke="black" stroke-width="0.0398515" stroke-miterlimit="3"/>
<path d="M33.9619 22.6929C34.2931 22.6929 34.5616 22.5572 34.5616 22.3898C34.5616 22.2224 34.2931 22.0867 33.9619 22.0867C33.6307 22.0867 33.3622 22.2224 33.3622 22.3898C33.3622 22.5572 33.6307 22.6929 33.9619 22.6929Z" fill="white" stroke="black" stroke-width="0.0398515" stroke-miterlimit="3"/>
<path d="M44.703 23.1431L44.6047 22.872C44.6047 22.872 44.3357 22.7623 44.3152 22.6194C44.2673 22.2385 44.1313 22.0958 43.9276 22.0413C43.7234 21.9869 43.5876 22.0754 43.5876 22.0754C43.5262 22.1639 43.22 22.1639 43.05 22.1705C42.88 22.1775 42.8771 22.0967 42.8771 22.0967C42.745 22.0976 42.6895 22.0006 42.6895 22.0006C42.6031 21.8279 42.5387 21.7634 42.496 21.7415C42.7166 21.7448 42.8828 21.643 43.1319 21.3816C43.4038 21.0959 43.598 21.2064 43.598 21.2064C43.466 21.4732 43.6419 21.4496 43.6419 21.4496C44.0023 21.2661 43.6894 20.8035 43.5806 20.8239C43.4718 20.8443 43.4408 20.771 43.4408 20.771C43.4441 20.8541 43.32 20.8871 43.32 20.8871C43.4131 20.3587 43.0978 20.2186 43.0978 20.2186C43.0501 20.2662 43.0227 20.3613 43.0227 20.3613C42.9344 20.6811 42.642 20.6335 42.3153 20.4769C41.9889 20.3206 41.1183 20.6403 40.8464 20.7491C40.5741 20.8579 40.0777 21.028 39.6288 20.7763C39.18 20.5245 39.0709 20.5721 38.8942 20.6198C38.7172 20.6673 38.4047 20.7424 38.2891 20.681C38.1733 20.6198 38.0414 20.616 38.0414 20.616C38.0729 20.5984 38.0237 20.5246 38.0237 20.5246C37.8878 20.341 38.0414 20.2285 38.0414 20.2285C38.0414 20.2285 37.7883 20.2998 37.889 20.7319L37.9352 20.7967C37.9352 20.7967 37.9692 20.9326 38.0442 20.9735L38.0414 21.0033C38.0414 21.0033 38.1055 20.9735 38.1256 21.0619C38.1463 21.1503 38.2415 21.0687 38.2823 20.994C38.2823 20.994 38.2141 21.3885 38.704 21.4836C38.704 21.4836 38.6492 21.4224 38.6697 21.3816C38.69 21.3408 38.6087 21.3065 38.6155 21.2455C38.6223 21.1845 38.4933 21.1572 38.5951 21.1094C38.6969 21.0618 38.7448 20.9665 38.9624 21.0958C39.1799 21.225 39.3502 21.198 39.3502 21.198C39.3502 21.198 39.2174 20.9256 39.2906 20.9258C39.3637 20.9259 39.6927 21.3332 39.8546 21.313C40.0166 21.2931 40.3295 21.1094 40.486 21.1774C40.486 21.1774 40.4994 21.0958 41.0979 20.9937C41.6965 20.8917 42.4348 20.5934 42.7117 20.8548C42.7117 20.8548 42.7441 21.0618 42.8596 21.1163C42.8596 21.1163 42.8389 21.5447 42.0979 21.3065L41.8291 21.2358C41.8291 21.2358 41.7878 21.1056 40.3784 21.4681C40.3784 21.4681 40.2955 21.4971 40.2411 21.538C40.1865 21.5786 40.1116 21.5175 39.8328 21.6194C39.5542 21.7217 38.5133 22.0618 37.8742 21.9392L37.8733 21.9409C37.7326 21.8989 37.6007 21.9206 37.5953 21.8984C37.5884 21.8712 37.6702 21.9053 37.6702 21.9053C37.6227 21.8508 37.6022 21.8464 37.6022 21.8464C37.0648 21.7874 37.1598 21.5447 37.1598 21.5447L37.1872 21.6196C37.2757 21.504 37.1529 21.2319 37.1529 21.2319L37.1478 21.2328C37.1464 21.2244 37.1449 21.2161 37.1428 21.2081L37.1872 21.1774C37.4457 20.9597 37.7451 20.9189 37.7451 20.9189C37.5681 20.7013 37.1939 20.817 37.1939 20.817C37.2008 20.5517 37.092 20.2456 37.092 20.2456C36.7245 20.2864 36.5139 20.5924 36.5139 20.5924C36.5003 20.3204 36.1533 20.1641 36.1533 20.1641C36.2824 20.3204 36.201 20.6945 36.201 20.6945L36.2146 20.7013C36.1931 20.7008 36.1805 20.7013 36.1805 20.7013L36.1728 20.7815L36.1601 20.7762C36.1601 20.7762 36.031 20.8237 35.8814 21.1638C35.8814 21.1638 35.8663 21.2442 35.8084 21.3166C35.8079 21.3073 35.8089 21.2988 35.8077 21.289C35.8077 21.289 35.6406 21.5079 35.2545 21.289C35.2545 21.289 34.7298 20.9777 34.5454 20.9892C34.361 21.0007 34.2398 21.0872 34.2515 21.139C34.2515 21.139 33.8305 21.1044 33.6865 21.3464C33.6865 21.3464 33.3695 21.4617 33.6405 21.7211C33.6405 21.7211 33.6768 21.8339 33.7556 21.8943C33.7556 21.8943 33.7444 21.6575 33.8018 21.7271C33.8018 21.7271 33.8167 21.7504 33.8451 21.7668C33.8526 21.8 33.8781 21.8922 33.9344 21.9392L33.9749 21.9263C33.9811 21.8673 33.9939 21.7927 34.007 21.7613C34.0132 21.7621 34.0181 21.7628 34.0204 21.763C34.0186 21.7647 34.0169 21.7658 34.0152 21.7673L34.0901 21.8826L34.1765 21.8365C34.217 21.8306 34.2688 21.8711 34.2688 21.8711L34.3668 21.7904C34.3662 21.7895 34.3656 21.7893 34.365 21.7884C34.4615 21.8045 34.4879 21.6174 34.4879 21.6174C34.5746 21.6402 34.6557 21.6147 34.7248 21.5729C34.7668 21.728 35.1105 21.8944 35.1105 21.8944C35.1105 21.8944 35.1164 21.8939 35.1253 21.8932C35.0962 21.9118 35.0789 21.9257 35.0789 21.9257C35.2352 22.0347 35.5278 22.0075 35.5278 22.0075C35.4054 22.0552 35.4225 22.2816 35.4225 22.2816C35.3511 22.3109 35.3441 22.3815 35.3441 22.3815C35.5822 22.4765 35.7448 22.3978 35.7448 22.3978C35.7579 22.4753 35.7386 22.4836 35.7386 22.4836C35.6435 22.6876 35.6027 22.8848 35.6027 22.8848C35.6047 22.8857 35.6072 22.8862 35.6092 22.8869C35.6063 22.8922 35.6027 22.8974 35.6004 22.9029C35.6004 22.9029 35.1854 23.047 35.001 23.2488C35.001 23.2488 34.9836 23.191 34.9317 23.191C34.8798 23.191 34.7184 23.0586 34.6434 23.0354C34.5687 23.0125 34.4591 23.0586 34.4302 23.0241C34.4041 22.9926 34.4158 22.7565 34.3659 22.7184C34.3661 22.7184 34.3669 22.7186 34.3669 22.7186L34.3149 22.5745C34.2804 22.6494 34.1363 22.632 34.1363 22.632C34.1306 22.6355 34.1084 22.6516 34.0771 22.675C34.0483 22.6766 34.0152 22.6667 34.0152 22.6667C34.0004 22.6697 33.9858 22.7112 33.9751 22.7516C33.9693 22.7558 33.9634 22.7603 33.9576 22.7647V22.7243C33.9289 22.7473 33.8712 22.7128 33.8481 22.7128C33.8368 22.7128 33.8228 22.7458 33.8115 22.7797C33.7528 22.7906 33.6751 22.7935 33.6751 22.7935C33.6521 22.805 33.6693 22.9837 33.6693 22.9837C33.5022 23.076 33.5828 23.2143 33.5828 23.2143C33.6751 23.6639 34.4417 23.4621 34.4994 23.5199C34.5569 23.5776 34.6896 23.5889 34.7588 23.5889C34.8279 23.5889 34.9142 23.7562 35.0124 23.7735C35.1104 23.7908 35.0124 23.6409 35.4669 23.5323C35.9213 23.4237 36.0728 23.2374 36.0728 23.2374C36.2152 23.2099 36.2548 23.0369 36.2654 22.9671C36.2668 22.9993 36.2706 23.0349 36.2758 23.0755C36.2963 23.232 36.1881 23.2889 36.1881 23.2889L36.5819 23.1707C36.7382 23.1299 36.7179 22.9938 36.7179 22.9938C36.8675 23.4223 37.1396 23.4495 37.1396 23.4495C37.1941 23.2862 37.1874 23.2386 37.1874 23.2386L37.3097 23.2319C37.3147 23.1397 37.2333 23.0722 37.1861 23.0409L37.3777 23.1571L37.4524 23.1435C37.4524 23.2115 37.5544 23.2725 37.5544 23.2725L37.5682 23.1843C37.6567 23.2999 37.8198 23.2591 37.8198 23.2591C37.8166 23.2385 37.8116 23.2172 37.8054 23.1956C38.1539 23.4107 38.7107 23.1367 38.7107 23.1367C38.8602 23.1707 38.8807 23.0822 38.8807 23.0822C39.0507 23.1025 39.0901 22.9863 39.0901 22.9863C39.4903 22.9517 39.7719 22.6672 39.7719 22.6672C39.969 22.6536 39.9754 22.5127 39.9754 22.5127C39.9754 22.5127 40.173 22.5517 40.3635 22.3136C40.8055 21.6811 41.4665 22.0104 41.4665 22.0104L41.0843 22.0346C40.0846 22.0279 40.4991 22.7078 40.4991 22.7078L40.5607 22.7012C40.6559 22.7216 40.9822 22.9801 40.8619 23.1726C40.86 23.176 40.8574 23.1791 40.8552 23.1822C40.6514 23.4612 40.2739 23.1951 40.1663 22.9596C40.0574 22.7217 39.8397 22.7761 39.8397 22.7761C39.8397 22.7761 39.2752 22.8714 39.5064 23.3202L39.5149 23.3205C39.5192 23.43 39.5879 23.5548 39.7892 23.6789C39.9023 23.8389 40.2741 23.8556 40.5471 23.7964C40.6742 23.7686 41.3448 23.4804 41.3448 23.4804C41.394 23.3343 41.5606 23.368 41.7102 23.1571C41.8598 22.9463 41.4993 22.8714 41.4177 22.7559C41.336 22.6401 41.4382 22.6606 41.4382 22.6606C41.7645 22.8375 41.7917 22.2729 41.7917 22.2729C41.8258 22.5992 42.1114 22.6877 42.1114 22.6877C42.2884 22.5111 42.1593 22.1505 42.1593 22.1505C42.581 22.9054 42.8364 22.7852 42.8364 22.7852C42.6094 22.6447 42.7237 22.4565 42.7237 22.4565C42.9275 23.2591 43.7643 22.5586 43.7643 22.5586C43.7235 22.6741 43.7645 22.742 43.8393 22.8169C43.914 22.8917 44.0024 22.9258 43.9618 23.0618C43.9209 23.1978 43.5334 23.1707 43.5334 23.1707C43.5334 23.1707 43.1523 23.1504 43.1866 23.4701C43.2065 23.5447 43.4583 23.5719 43.5536 23.5516C43.5536 23.5516 43.5143 23.5602 43.6551 23.579C43.7023 23.5851 43.7592 23.5861 43.8172 23.5842C43.9795 23.5792 44.1524 23.5516 44.1524 23.5516C44.3698 23.5042 44.3359 23.4291 44.3359 23.4291C44.6689 23.3677 44.7031 23.1431 44.7031 23.1431L44.703 23.1431Z" fill="#FEDD00" stroke="black" stroke-width="0.0594059" stroke-miterlimit="3"/>
<path d="M33.6512 21.7503C33.6515 21.7499 33.6691 21.7083 33.7027 21.7033C33.7286 21.6994 33.76 21.7186 33.7932 21.759L33.8114 21.7453C33.8106 21.7439 33.7216 21.6143 33.7571 21.5228C33.7729 21.4819 33.8122 21.454 33.8738 21.4401L33.8688 21.4177C33.7993 21.4336 33.7546 21.4663 33.7358 21.5146C33.7288 21.5327 33.7258 21.5518 33.7258 21.5709C33.7258 21.6156 33.7416 21.6609 33.7577 21.6957C33.7376 21.6831 33.718 21.6779 33.6992 21.6807C33.665 21.6859 33.6484 21.7105 33.6393 21.7265L33.6512 21.7503Z" fill="black"/>
<path d="M44.1485 23.5317C43.9213 23.5678 43.5877 23.5877 43.5612 23.519C43.5566 23.5067 43.5557 23.4577 43.7418 23.3365L43.7201 23.3032C43.5649 23.4043 43.5024 23.4774 43.5241 23.5332C43.5717 23.657 44.0587 23.5863 44.1559 23.5708L44.1485 23.5317Z" fill="black"/>
<path d="M39.802 23.6629C39.7502 23.5837 39.7735 23.4751 39.8712 23.34L39.839 23.3167C39.7304 23.4661 39.7068 23.5902 39.7686 23.6848L39.802 23.6629Z" fill="black"/>
<path d="M39.4951 23.3208C39.5001 23.4579 39.5968 23.5851 39.7822 23.6986L39.803 23.6647C39.6295 23.5586 39.5395 23.4424 39.5348 23.3195C39.528 23.1307 39.7274 22.9852 39.7293 22.9836L39.7061 22.9513C39.6971 22.9576 39.4874 23.1105 39.4951 23.3208V23.3208Z" fill="black"/>
<path d="M43.3708 23.3718C43.3085 23.4639 43.3293 23.5753 43.3302 23.58L43.3692 23.5723C43.3689 23.5713 43.3508 23.4721 43.404 23.3939C43.436 23.3469 43.4875 23.3165 43.5573 23.3032L43.5502 23.2641C43.4692 23.2795 43.4091 23.3156 43.3708 23.3718V23.3718Z" fill="black"/>
<path d="M34.4911 21.6312L34.4788 21.6282L34.4772 21.6408C34.4768 21.6421 34.4595 21.7628 34.4047 21.7956C34.3894 21.8048 34.3728 21.8058 34.3538 21.7988L34.2608 21.7423C34.2423 21.7259 34.2263 21.7139 34.1996 21.7218C34.1942 21.7149 34.1729 21.686 34.1729 21.6395C34.1729 21.6343 34.1732 21.6288 34.174 21.6232C34.1806 21.5687 34.2186 21.5162 34.2874 21.4672L34.2743 21.4486C34.1998 21.5019 34.1586 21.5597 34.1513 21.6209C34.143 21.6918 34.184 21.74 34.1858 21.7421L34.1914 21.7485L34.1989 21.745C34.2196 21.7359 34.2256 21.7413 34.2457 21.7591L34.3461 21.8201C34.3715 21.8295 34.3951 21.8278 34.4164 21.815C34.4731 21.7811 34.493 21.6823 34.4976 21.6549C34.739 21.7068 34.9333 21.4133 34.9418 21.4007L34.9225 21.3882C34.9207 21.3913 34.7224 21.6919 34.4911 21.6312V21.6312Z" fill="black"/>
<path d="M33.9124 21.5862C33.9003 21.6351 33.9086 21.6831 33.9365 21.7289C33.9632 21.7723 33.9894 21.7954 34.0168 21.799C34.0502 21.8037 34.0769 21.7789 34.1004 21.7572C34.1175 21.7412 34.1338 21.7263 34.1471 21.7273L34.1679 21.7416L34.1858 21.7274L34.1487 21.7046C34.1254 21.7029 34.1058 21.721 34.0849 21.7405C34.064 21.7596 34.0426 21.7798 34.0198 21.7766C34.0001 21.7739 33.9787 21.7538 33.956 21.7169C33.9314 21.6766 33.924 21.6343 33.9344 21.5916C33.9604 21.4839 34.0892 21.4048 34.0906 21.404L34.0789 21.3846C34.0731 21.3879 33.9407 21.4692 33.9124 21.5862V21.5862Z" fill="black"/>
<path d="M33.5802 23.1238C33.5917 23.0821 33.6237 23.0467 33.6752 23.0181C33.665 23.019 33.7256 23.0684 33.7776 23.0628C33.7776 23.0628 33.7987 23.0515 33.8114 23.0446C33.8251 23.0565 33.9151 23.1384 33.9151 23.2422C33.9151 23.264 33.9112 23.2864 33.9014 23.3092L33.9224 23.318C33.9883 23.1621 33.8227 23.0238 33.8212 23.0223L33.8151 23.0176L33.8049 23.0242L33.7754 23.0402C33.7328 23.0447 33.6774 22.9997 33.677 22.9993C33.6071 23.0297 33.5714 23.0701 33.5582 23.118L33.5802 23.1238Z" fill="black"/>
<path d="M34.349 22.7258C34.2993 22.73 34.1608 22.7564 34.1156 22.8283C34.0993 22.8544 34.0969 22.8831 34.1087 22.9141L34.1269 22.9625C34.17 23.0785 34.2148 23.1984 34.2637 23.2254L34.2747 23.2056C34.2333 23.1826 34.1881 23.0614 34.1482 22.9546L34.1301 22.9062C34.1209 22.8817 34.1224 22.8602 34.1348 22.8404C34.172 22.7815 34.2965 22.7531 34.3509 22.7485C34.3827 22.746 34.393 22.8631 34.3993 22.9331L34.4219 22.931C34.4128 22.8278 34.4033 22.7213 34.349 22.7258Z" fill="black"/>
<path d="M33.9693 22.8396C33.9402 22.8657 33.9461 22.9049 33.9465 22.9066C33.9467 22.9173 33.9596 23.2069 34.0972 23.2668L34.1062 23.246C33.9817 23.1917 33.9692 22.9071 33.969 22.9043C33.969 22.9026 33.9649 22.8739 33.9847 22.8565C34.0056 22.838 34.047 22.8366 34.1045 22.8524L34.1106 22.8305C34.0442 22.8122 33.9967 22.8152 33.9693 22.8396V22.8396Z" fill="black"/>
<path d="M33.8604 22.8634C33.7996 22.9058 33.8021 23.0267 33.8022 23.0317L33.8249 23.0313C33.8249 23.0301 33.8226 22.9173 33.8734 22.8821C33.8924 22.869 33.9173 22.8685 33.9478 22.8807L33.9562 22.8597C33.9183 22.8442 33.886 22.8455 33.8604 22.8634V22.8634Z" fill="black"/>
<path d="M37.1352 21.2649C37.1362 21.2668 37.2 21.4107 37.2 21.5275C37.2 21.5483 37.1902 21.563 37.1856 21.5811C37.1831 21.5743 37.1608 21.5134 37.1608 21.5134L37.1416 21.5623C37.1407 21.565 37.1156 21.6308 37.1605 21.705C37.2199 21.8029 37.3677 21.8656 37.6003 21.891H37.6002C37.6002 21.8912 37.6031 21.8938 37.6034 21.8942C37.5938 21.8956 37.5866 21.8982 37.5844 21.9003L37.575 21.9082L37.5763 21.928C37.5823 21.9522 37.6098 21.9534 37.6646 21.9554C37.6738 21.956 37.6889 21.9582 37.6995 21.9587C37.7131 21.9625 37.7271 21.9663 37.7271 21.9663C37.7271 21.9663 37.7233 21.9619 37.7224 21.961C37.7754 21.9646 37.835 21.9777 37.8997 22.0018C37.8854 22.0056 37.8504 22.0143 37.8504 22.0143L37.9079 22.037C37.9123 22.0387 38.3361 22.209 38.5115 22.349C38.4617 22.3922 38.2491 22.551 37.881 22.4603L37.8193 22.4451L37.8611 22.4929C37.8637 22.4957 38.1035 22.7708 38.1532 22.9376C38.0697 22.9384 37.748 22.9355 37.6356 22.84L37.6065 22.8665C37.608 22.8689 37.7607 23.093 37.7948 23.2677C37.7511 23.2735 37.6463 23.2777 37.5843 23.1968L37.5558 23.1596C37.5558 23.1596 37.5442 23.2347 37.5402 23.2605C37.5103 23.2379 37.4726 23.2041 37.4726 23.168V23.1443C37.4726 23.1443 37.3938 23.1586 37.3819 23.1607C37.3714 23.1544 37.2408 23.0752 37.1955 23.0477C37.1794 23.0373 37.169 23.0314 37.1655 23.0297C37.1653 23.0295 37.1638 23.0285 37.1638 23.0285L37.1624 23.0278L37.1431 23.0627C37.1431 23.0627 37.1653 23.0759 37.1717 23.0799C37.2116 23.1059 37.2799 23.1626 37.2868 23.2378C37.2574 23.2395 37.1656 23.2445 37.1656 23.2445L37.1679 23.2656V23.2689C37.1679 23.2814 37.164 23.3335 37.1259 23.451C37.0686 23.4374 36.8601 23.3647 36.7369 23.0117L36.6985 23.0212C36.6987 23.0222 36.6992 23.0269 36.6992 23.0344C36.6992 23.0665 36.6878 23.1472 36.5772 23.1759C36.5765 23.1761 36.3717 23.2377 36.2577 23.2718C36.2791 23.2413 36.2985 23.1995 36.2985 23.1389C36.2985 23.126 36.2977 23.1122 36.296 23.0975C36.2891 23.0462 36.2849 23.0035 36.2849 22.9678C36.2849 22.8935 36.3032 22.8493 36.3545 22.8178L36.3366 22.7823C36.3318 22.7842 35.8605 22.9714 35.6268 22.8937C35.6375 22.8481 35.677 22.6877 35.7569 22.5167L35.7465 22.5265C35.7619 22.52 35.7775 22.496 35.7646 22.4193L35.7603 22.3931L35.7364 22.4047C35.7348 22.4054 35.5853 22.4721 35.3692 22.393C35.3736 22.3753 35.3851 22.3434 35.4303 22.3246L35.4436 22.3193L35.4423 22.3049C35.4423 22.3043 35.4418 22.2943 35.4418 22.2785C35.4418 22.2202 35.4509 22.0835 35.5349 22.0507L35.526 22.0123C35.5232 22.0126 35.2705 22.0328 35.1172 21.9476C35.1574 21.9198 35.2419 21.8688 35.3402 21.8546L35.3559 21.8524L35.3571 21.8366C35.3573 21.8358 35.3576 21.8312 35.3576 21.8238C35.3576 21.8038 35.3499 21.7634 35.3323 21.7227C35.3906 21.739 35.4606 21.7537 35.4853 21.7351L35.4938 21.7287L35.4865 21.5754L35.4468 21.5773C35.4468 21.5773 35.4516 21.679 35.4528 21.7041C35.4279 21.7055 35.3643 21.6927 35.3026 21.6731L35.2415 21.6537L35.2809 21.7044C35.3128 21.7454 35.3169 21.7964 35.3173 21.8198C35.1792 21.8455 35.071 21.9313 35.0664 21.9351L35.0461 21.9518L35.0676 21.9668C35.1864 22.0496 35.3722 22.0568 35.4676 22.0547C35.4114 22.118 35.4019 22.2241 35.4019 22.2771C35.4019 22.2879 35.4022 22.2908 35.4024 22.2962C35.3349 22.3326 35.3248 22.401 35.3243 22.4042L35.3229 22.4191L35.3368 22.4248C35.541 22.5062 35.6804 22.4669 35.7278 22.4494C35.7281 22.4557 35.7295 22.4644 35.7295 22.4689C35.7295 22.4876 35.726 22.4933 35.726 22.4933C35.6257 22.7036 35.5837 22.9035 35.5832 22.9054L35.5799 22.9219L35.5954 22.9281C35.7849 23.0038 36.1254 22.9004 36.2762 22.8472C36.2564 22.8813 36.2448 22.9196 36.2448 22.9674C36.2448 23.0075 36.2497 23.0525 36.2564 23.1026C36.2581 23.1153 36.2588 23.1271 36.2588 23.1384C36.2588 23.2513 36.1825 23.294 36.1789 23.2959L36.1941 23.3326L36.5879 23.2143C36.6789 23.1907 36.7131 23.1368 36.7276 23.0911C36.883 23.4596 37.127 23.4928 37.1378 23.494L37.1536 23.4954L37.1586 23.4804C37.1965 23.3672 37.2053 23.3097 37.207 23.282C37.2333 23.2808 37.3289 23.2754 37.3289 23.2754L37.3299 23.2576C37.3301 23.2545 37.3301 23.2515 37.3301 23.2486C37.3301 23.216 37.3199 23.1872 37.3059 23.1613C37.3304 23.1761 37.374 23.2025 37.374 23.2025C37.374 23.2025 37.4191 23.1943 37.4392 23.1907C37.4563 23.2565 37.5345 23.3082 37.5445 23.3143L37.5699 23.3296C37.5699 23.3296 37.5792 23.2696 37.5831 23.2434C37.6803 23.3304 37.8184 23.3045 37.8249 23.3029L37.8423 23.2985L37.8398 23.2808C37.82 23.1477 37.7307 22.9894 37.6782 22.9047C37.851 22.9833 38.1658 22.9776 38.1813 22.9771L38.2047 22.9763L38.2001 22.9533C38.1722 22.8134 37.9975 22.5933 37.9243 22.5057C38.3304 22.582 38.5484 22.3714 38.5578 22.3618L38.5721 22.3467L38.5564 22.3329C38.4199 22.214 38.1053 22.076 37.9789 22.0232C37.9858 22.0214 38.0232 22.012 38.0232 22.012L37.9794 21.9875C37.8738 21.9281 37.7617 21.9207 37.686 21.9175L37.6856 21.9169C37.6376 21.8619 37.6132 21.8531 37.607 21.8517C37.3324 21.8214 37.2318 21.7445 37.1952 21.6851C37.1921 21.6802 37.1937 21.6769 37.1914 21.6721C37.1973 21.6642 37.2035 21.6564 37.2035 21.6564C37.23 21.6219 37.2394 21.5757 37.2394 21.5268C37.2394 21.4008 37.1754 21.2567 37.1718 21.2484L37.1352 21.2649H37.1352Z" fill="black"/>
<path d="M35.8713 21.1842C35.8705 21.1881 35.8412 21.3386 35.7131 21.4091C35.6167 21.4621 35.4893 21.4577 35.3349 21.3959L35.3175 21.389L35.3193 21.4076C35.3197 21.4115 35.3299 21.4999 35.4133 21.5646C35.4827 21.6187 35.582 21.6376 35.7064 21.624C35.6648 21.6735 35.531 21.8444 35.531 22.0103C35.531 22.019 35.5315 22.0278 35.5324 22.0364C35.5494 22.0487 35.7591 22.1055 35.8563 21.9812C35.8598 22.0345 35.8751 22.205 35.9417 22.2717C35.9782 22.308 35.9868 22.3611 35.9868 22.4034C35.9868 22.4416 35.9795 22.4711 35.9795 22.4717L35.972 22.502L35.9973 22.4836C36.0054 22.4777 36.1981 22.3365 36.2597 22.1516C36.2595 22.1521 36.2906 22.1052 36.3501 22.086C36.3489 22.0941 36.3478 22.1024 36.3478 22.1139C36.3478 22.1854 36.3791 22.3151 36.5872 22.3946L36.6043 22.4012L36.6028 22.383C36.6026 22.3826 36.6014 22.3683 36.6014 22.3471C36.6014 22.2948 36.6086 22.1989 36.6584 22.1492C36.6911 22.1165 36.7009 22.0797 36.7009 22.0478C36.7009 22.0226 36.6954 22.0023 36.6897 21.9874C36.7317 21.998 36.831 22.03 36.8715 22.1057C36.9302 22.2157 37.1357 22.1281 37.1445 22.1245L37.1375 22.1028C37.1366 22.103 37.051 22.1222 36.997 22.0851C36.9733 22.0688 36.959 22.0437 36.954 22.0103L36.9445 21.896C36.9424 21.8442 36.9352 21.8113 36.9092 21.7836C36.9364 21.7811 36.991 21.782 37.0141 21.8331C37.0504 21.9132 37.175 21.9209 37.1802 21.9214L37.2228 21.9236L37.187 21.9004C37.1858 21.8997 37.0782 21.8283 37.0968 21.7353L37.1123 21.6672C37.1418 21.5444 37.1908 21.3388 37.1509 21.2126L37.1292 21.2196C37.1391 21.2511 37.1432 21.2884 37.1432 21.3283C37.1432 21.4402 37.1115 21.5731 37.0901 21.6619L37.0744 21.7309C37.0725 21.7399 37.0719 21.749 37.0719 21.7576C37.0719 21.8178 37.111 21.8638 37.1414 21.8915C37.1048 21.8836 37.054 21.8661 37.0349 21.8236C37.005 21.758 36.9246 21.755 36.8862 21.7627L36.8594 21.7681L36.8823 21.7834C36.9184 21.8075 36.9194 21.8355 36.922 21.8969L36.9316 22.0136C36.9373 22.0534 36.955 22.0838 36.9841 22.1039C37.0096 22.1213 37.0394 22.1237 37.0666 22.1256C37.0055 22.1416 36.9218 22.1515 36.8918 22.095C36.8351 21.9894 36.6793 21.9612 36.6728 21.96L36.649 21.9559L36.6609 21.9767C36.6622 21.979 36.6786 22.009 36.6786 22.0471C36.6786 22.0741 36.6704 22.1051 36.6423 22.133C36.5871 22.1887 36.5786 22.2898 36.5786 22.3457C36.5786 22.3566 36.5792 22.3582 36.5793 22.3648C36.4014 22.29 36.3699 22.1792 36.3699 22.1165C36.3699 22.0898 36.3751 22.0721 36.3758 22.0697L36.3809 22.0522L36.3629 22.0553C36.2764 22.0695 36.2405 22.1399 36.239 22.1429C36.1895 22.291 36.0553 22.4082 36.0067 22.4473C36.0083 22.4349 36.01 22.4205 36.01 22.403C36.01 22.3567 36 22.2977 35.958 22.2556C35.8873 22.1849 35.8776 21.9599 35.8776 21.9576L35.8761 21.917L35.8563 21.9523C35.778 22.0926 35.5494 22.0252 35.5472 22.0246C35.5375 21.8474 35.7386 21.6206 35.7407 21.6183L35.7617 21.595L35.7307 21.5995C35.5994 21.6186 35.4974 21.601 35.4276 21.547C35.3729 21.5046 35.3532 21.4506 35.3462 21.4234C35.4985 21.4801 35.6262 21.4832 35.7245 21.4289C35.8618 21.353 35.892 21.1975 35.8931 21.191C36.0374 20.8639 36.1634 20.8123 36.1648 20.8119L36.1569 20.7906C36.1512 20.7926 36.0212 20.8437 35.8713 21.1842V21.1842Z" fill="black"/>
<path d="M36.2005 20.6995L36.1909 20.6999L36.0739 20.8603L36.1086 20.8637C36.7437 20.9255 37.0795 21.3087 37.0828 21.3126L37.0975 21.3297L37.2126 21.2046L37.2042 21.1917C36.8821 20.6846 36.2074 20.6993 36.2005 20.6995L36.2005 20.6995ZM36.2114 20.7393C36.2899 20.7395 36.8684 20.7574 37.1613 21.2013C37.147 21.2168 37.1151 21.2517 37.098 21.2704C37.0293 21.1992 36.7038 20.8951 36.1457 20.8295C36.1673 20.7997 36.2033 20.7504 36.2114 20.7393V20.7393Z" fill="black"/>
<path d="M36.1089 21.0347C36.0547 21.1087 36.0043 21.2182 36.0043 21.2695C36.0043 21.2793 36.0061 21.287 36.0103 21.2919C36.0107 21.2924 36.0126 21.2925 36.0132 21.2933C35.9471 21.3526 35.9077 21.4515 35.9077 21.5634C35.9077 21.6249 35.9186 21.689 35.9415 21.7502L35.9542 21.7846C36.0165 21.9541 36.0702 22.1006 36.3397 22.0144C36.5993 21.9314 36.6095 21.9148 36.6749 21.807L36.6919 21.779C36.7276 21.7211 36.7665 21.7095 36.808 21.6972C36.8574 21.6824 36.9086 21.6672 36.9536 21.5784L36.9973 21.5129C37.0444 21.4479 37.1033 21.3674 37.1104 21.2642L37.0876 21.2627C37.0811 21.3592 37.0243 21.4369 36.9789 21.4994L36.9332 21.568C36.8926 21.6481 36.8484 21.6613 36.8014 21.6753C36.7576 21.6883 36.7127 21.7018 36.6724 21.767L36.6552 21.7951C36.5924 21.8989 36.5843 21.9122 36.3328 21.9928C36.084 22.0723 36.0385 21.9482 35.9755 21.7768L35.9628 21.742C35.8919 21.553 35.9473 21.3624 36.0395 21.2941L36.0712 21.2705C36.0712 21.2705 36.0319 21.2749 36.0273 21.2755C36.0268 21.2736 36.0263 21.272 36.0263 21.269C36.0263 21.2381 36.06 21.1397 36.1272 21.048C36.1845 20.9699 36.3198 20.8925 36.3212 20.8917L36.3098 20.872C36.3041 20.8754 36.169 20.9527 36.1089 21.0347V21.0347Z" fill="black"/>
<path d="M35.9882 21.7183C36.0327 21.7492 36.0954 21.7471 36.171 21.7183C36.1713 21.7453 36.1773 21.8025 36.2243 21.844C36.2795 21.8929 36.3711 21.9023 36.4966 21.8724L36.4912 21.8503C36.3736 21.8784 36.2888 21.8705 36.2394 21.8271C36.1863 21.7803 36.1938 21.7058 36.1939 21.7052L36.196 21.6857L36.178 21.6933C36.1019 21.7261 36.0423 21.7281 36.001 21.6995C35.927 21.6481 35.9325 21.5136 35.9327 21.5121L35.9099 21.511C35.9098 21.5171 35.9036 21.6596 35.9882 21.7183V21.7183Z" fill="black"/>
<path d="M36.1322 21.5371C36.0997 21.5449 36.0912 21.5721 36.0912 21.5931C36.0912 21.5982 36.0918 21.6029 36.0924 21.6069C36.0981 21.6654 36.1616 21.7044 36.2193 21.7211C36.2754 21.7373 36.3444 21.7384 36.3716 21.7034C36.3825 21.6895 36.3904 21.6643 36.3667 21.6237C36.28 21.4764 36.1399 21.5341 36.1322 21.5371ZM36.2256 21.6991C36.1752 21.6847 36.1196 21.6519 36.1151 21.6034C36.1141 21.5988 36.1086 21.5661 36.1373 21.5593L36.1396 21.5586C36.1448 21.5563 36.2689 21.5023 36.347 21.6353C36.3609 21.6591 36.3632 21.6772 36.3536 21.6894C36.3368 21.7112 36.2816 21.7155 36.2256 21.6991V21.6991ZM36.1299 21.538C36.1301 21.5378 36.1322 21.5371 36.1322 21.5371L36.1299 21.538Z" fill="black"/>
<path d="M36.2104 21.8337C36.1958 21.9582 36.2047 21.9611 36.2137 21.9639L36.2216 21.9664L36.2305 21.9559L36.3026 21.8609L36.2121 21.818L36.2104 21.8337V21.8337ZM36.2312 21.8523C36.2441 21.8584 36.256 21.864 36.2677 21.8695C36.2579 21.8821 36.2397 21.9064 36.2259 21.9245C36.2262 21.9058 36.2285 21.8793 36.2312 21.8523Z" fill="black"/>
<path d="M36.0228 21.7337L36.018 21.8513L36.1168 21.7319L36.0234 21.7215L36.0228 21.7337V21.7337ZM36.045 21.7469C36.0538 21.7479 36.06 21.7484 36.0724 21.7498C36.0627 21.7614 36.0563 21.7692 36.0434 21.7848C36.0444 21.7665 36.0447 21.7563 36.045 21.7469V21.7469Z" fill="black"/>
<path d="M35.957 21.6961C35.9578 21.6976 36.0305 21.8397 36.0433 21.8915C36.0516 21.9244 36.0936 21.9619 36.1437 21.9804C36.1936 21.9992 36.2404 21.9962 36.2753 21.9718L36.3409 21.9173C36.3628 21.8963 36.37 21.8904 36.3877 21.8934L36.3915 21.871C36.3618 21.866 36.3473 21.8798 36.3252 21.9008L36.2624 21.9532C36.2236 21.9802 36.1763 21.9687 36.1515 21.9592C36.1047 21.9418 36.0708 21.9083 36.0653 21.8859C36.0517 21.8317 35.9801 21.6919 35.9772 21.6859L35.957 21.6961V21.6961Z" fill="black"/>
<path d="M36.0515 21.2703C35.9713 21.3073 35.9374 21.4046 35.936 21.4087L35.9575 21.4162C35.9579 21.4153 35.9899 21.3237 36.0611 21.2909C36.0959 21.275 36.1348 21.2755 36.1772 21.2922L36.1856 21.2712C36.1374 21.2517 36.0923 21.2515 36.0515 21.2703Z" fill="black"/>
<path d="M36.5906 21.5258C36.597 21.5305 36.7485 21.6453 36.6614 21.7853L36.6807 21.7974C36.779 21.6395 36.6058 21.5087 36.6042 21.5074L36.5906 21.5258Z" fill="black"/>
<path d="M36.1352 21.5481C36.1352 21.5481 36.1116 21.6337 36.2321 21.6639C36.2321 21.6639 36.1188 21.663 36.1116 21.6337C36.104 21.6045 36.1122 21.5396 36.1352 21.5481Z" fill="black"/>
<path d="M36.5035 21.6505C36.5035 21.658 36.4974 21.6641 36.4901 21.6641C36.4828 21.6641 36.4766 21.658 36.4766 21.6505C36.4766 21.6432 36.4828 21.6371 36.4901 21.6371C36.4975 21.6371 36.5035 21.6432 36.5035 21.6505Z" fill="black"/>
<path d="M36.5168 21.704C36.5168 21.7114 36.5108 21.7176 36.5034 21.7176C36.4961 21.7176 36.4902 21.7114 36.4902 21.704C36.4902 21.6967 36.4961 21.6906 36.5034 21.6906C36.5108 21.6906 36.5168 21.6968 36.5168 21.704Z" fill="black"/>
<path d="M36.4263 21.6909C36.4337 21.6909 36.4396 21.6849 36.4396 21.6775C36.4396 21.6701 36.4337 21.6642 36.4263 21.6642C36.4189 21.6642 36.4129 21.6701 36.4129 21.6775C36.4129 21.6849 36.4189 21.6909 36.4263 21.6909Z" fill="black"/>
<path d="M36.4629 21.758C36.4629 21.7652 36.4568 21.7712 36.4495 21.7712C36.4422 21.7712 36.4362 21.7652 36.4362 21.758C36.4362 21.7505 36.4423 21.7444 36.4495 21.7444C36.4568 21.7444 36.4629 21.7504 36.4629 21.758Z" fill="black"/>
<path d="M36.1114 21.3956C36.1114 21.403 36.1054 21.4091 36.0978 21.4091C36.0905 21.4091 36.0844 21.403 36.0844 21.3956C36.0844 21.3884 36.0905 21.3822 36.0978 21.3822C36.1054 21.3822 36.1114 21.3884 36.1114 21.3956Z" fill="black"/>
<path d="M36.1114 21.4629C36.1188 21.4629 36.1248 21.4569 36.1248 21.4496C36.1248 21.4422 36.1188 21.4362 36.1114 21.4362C36.104 21.4362 36.098 21.4422 36.098 21.4496C36.098 21.4569 36.104 21.4629 36.1114 21.4629Z" fill="black"/>
<path d="M36.0342 21.4362C36.0416 21.4362 36.0475 21.4302 36.0475 21.4228C36.0475 21.4154 36.0416 21.4095 36.0342 21.4095C36.0268 21.4095 36.0208 21.4154 36.0208 21.4228C36.0208 21.4302 36.0268 21.4362 36.0342 21.4362Z" fill="black"/>
<path d="M36.0708 21.503C36.0708 21.5103 36.0646 21.5164 36.0572 21.5164C36.0499 21.5164 36.0439 21.5103 36.0439 21.503C36.0439 21.4955 36.05 21.4894 36.0572 21.4894C36.0646 21.4895 36.0708 21.4955 36.0708 21.503Z" fill="black"/>
<path d="M36.3055 21.0302C36.3055 21.0302 36.4797 21.1374 36.312 21.3385C36.312 21.3385 36.3945 21.2773 36.4029 21.1721C36.4117 21.067 36.3431 20.9832 36.3055 21.0302Z" fill="black"/>
<path d="M36.9738 21.3193C36.9177 21.3482 36.837 21.2948 36.7965 21.2444C36.7562 21.1939 36.6728 21.181 36.6208 21.2731C36.5689 21.3654 36.4941 21.4 36.4941 21.4C36.4941 21.4 36.5672 21.3568 36.6425 21.276C36.7173 21.1955 36.7606 21.2602 36.8341 21.2991C36.9075 21.338 36.9191 21.3466 36.9709 21.3264L36.9738 21.3193V21.3193Z" fill="black"/>
<path d="M36.9594 21.3327C36.9365 21.3499 36.8945 21.3644 36.85 21.3282C36.8054 21.2922 36.7679 21.2434 36.7117 21.2721C36.6554 21.301 36.5487 21.3816 36.5487 21.3816C36.5487 21.3816 36.7217 21.2619 36.7549 21.288C36.7879 21.314 36.8659 21.3773 36.9134 21.3587C36.961 21.3398 36.9594 21.3327 36.9594 21.3327V21.3327Z" fill="black"/>
<path d="M36.8268 21.406C36.772 21.3642 36.7173 21.4549 36.6712 21.4436C36.6251 21.4319 36.5875 21.3555 36.5875 21.3555C36.5875 21.3555 36.6309 21.4363 36.6913 21.4175C36.7519 21.3988 36.7937 21.3613 36.8311 21.39C36.8686 21.419 36.8268 21.406 36.8268 21.406V21.406Z" fill="black"/>
<path d="M36.7411 21.4173C36.6331 21.4285 36.6224 21.3276 36.6224 21.3266C36.6224 21.3266 36.6565 21.4147 36.752 21.3987L36.7411 21.4173V21.4173Z" fill="black"/>
<path d="M36.7376 21.3486C36.7447 21.3759 36.7432 21.3883 36.7142 21.3883C36.6851 21.3883 36.6653 21.3786 36.6653 21.3504C36.6653 21.3221 36.7334 21.331 36.7376 21.3486V21.3486Z" fill="black"/>
<path d="M36.3495 21.1985C36.3495 21.2173 36.334 21.2325 36.3149 21.2325C36.2957 21.2325 36.292 21.2196 36.292 21.201C36.292 21.1824 36.2957 21.1649 36.3149 21.1649C36.334 21.1649 36.3495 21.18 36.3495 21.1985Z" fill="black"/>
<path d="M36.2302 21.0778C36.2302 21.0778 36.4154 21.0797 36.3237 21.3114C36.3237 21.3114 36.3942 21.1961 36.35 21.1131C36.3055 21.0302 36.2359 21.0511 36.2359 21.0511C36.2359 21.0511 36.2189 21.0668 36.2302 21.0778Z" fill="black"/>
<path d="M36.2248 21.1703C36.2243 21.2168 36.2553 21.2647 36.3167 21.3127L36.3308 21.2949C36.2752 21.2516 36.2472 21.2097 36.2476 21.1708C36.2479 21.1319 36.2778 21.1088 36.2782 21.1085L36.2646 21.0901C36.263 21.0915 36.2255 21.12 36.2248 21.1703V21.1703Z" fill="black"/>
<path d="M36.2658 21.2095C36.2737 21.2361 36.2944 21.2563 36.3274 21.2695L36.3359 21.2484C36.3097 21.238 36.2935 21.2228 36.2877 21.2032C36.276 21.1638 36.3077 21.1179 36.308 21.1175L36.2896 21.1042C36.2878 21.1066 36.251 21.1597 36.2658 21.2095V21.2095Z" fill="black"/>
<path d="M36.5198 21.3381C36.5198 21.3381 36.5543 21.413 36.504 21.4937C36.4535 21.5745 36.4549 21.5702 36.4549 21.5702C36.4549 21.5702 36.5155 21.4592 36.4924 21.413C36.4696 21.3669 36.5198 21.3381 36.5198 21.3381Z" fill="black"/>
<path d="M37.2401 22.1198C37.4303 22.1557 37.8594 22.4921 37.8639 22.4956L37.8885 22.4641C37.8705 22.4501 37.4472 22.1183 37.2475 22.0807L37.2401 22.1198V22.1198Z" fill="black"/>
<path d="M37.4089 22.5946C37.4216 22.7634 37.6053 22.8683 37.6132 22.8725L37.6327 22.8379C37.6308 22.837 37.4598 22.7391 37.4485 22.5916L37.4089 22.5946V22.5946Z" fill="black"/>
<path d="M36.953 22.6297C36.953 22.8191 37.1304 23.0481 37.1381 23.0578L37.1694 23.0332C37.1676 23.0311 36.9927 22.8054 36.9927 22.6297H36.953Z" fill="black"/>
<path d="M36.3515 22.651C36.3828 22.7135 36.3795 22.7452 36.3714 22.7607C36.362 22.7782 36.3427 22.7808 36.342 22.781L36.3467 22.8206C36.3613 22.8189 36.3906 22.8088 36.4061 22.7802C36.425 22.7456 36.4186 22.6961 36.3871 22.6335L36.3515 22.651V22.651Z" fill="black"/>
<path d="M33.6465 21.7174C33.6465 21.7174 33.6581 21.8441 33.756 21.9193C33.756 21.9193 33.7445 21.7807 33.7734 21.7233C33.7734 21.7232 33.7216 21.6656 33.6465 21.7174Z" fill="white" stroke="black" stroke-width="0.0178218" stroke-miterlimit="3"/>
<path d="M33.8421 21.798C33.8421 21.798 33.8653 21.9132 33.9344 21.9651L33.975 21.9536C33.975 21.9536 33.9922 21.8094 34.0153 21.7921C34.0383 21.775 33.9173 21.844 33.8421 21.798V21.798Z" fill="white" stroke="black" stroke-width="0.0178218" stroke-miterlimit="3"/>
<path d="M34.0154 21.7921L34.0903 21.9074L34.1767 21.8613L34.1594 21.7231C34.1594 21.7231 34.1076 21.7114 34.0154 21.7921V21.7921Z" fill="white" stroke="black" stroke-width="0.0178218" stroke-miterlimit="3"/>
<path d="M34.3669 21.8154L34.2688 21.8961C34.2688 21.8961 34.217 21.8556 34.1766 21.8615L34.194 21.7346C34.194 21.7346 34.2631 21.6828 34.3669 21.8154V21.8154Z" fill="white" stroke="black" stroke-width="0.0178218" stroke-miterlimit="3"/>
<path d="M33.6693 23.0084C33.6693 23.0084 33.6521 22.8298 33.6752 22.8182C33.6752 22.8182 33.7442 22.8413 33.7731 22.8123C33.7731 22.8123 33.8135 22.9566 33.8019 23.0142C33.7904 23.0718 33.7213 23.0489 33.6693 23.0084Z" fill="white" stroke="black" stroke-width="0.0178218" stroke-miterlimit="3"/>
<path d="M34.1134 22.8238C34.1134 22.8238 34.1077 22.6739 34.1364 22.6565C34.1364 22.6565 34.2805 22.6739 34.3151 22.599L34.367 22.7431C34.367 22.7431 34.2056 22.7257 34.1134 22.8238Z" fill="white" stroke="black" stroke-width="0.0178218" stroke-miterlimit="3"/>
<path d="M33.9579 22.8525C33.9579 22.8525 33.9867 22.6969 34.0156 22.6912C34.0156 22.6912 34.0905 22.7141 34.1136 22.6852L34.1079 22.8756C34.1079 22.8756 34.1136 22.7948 33.9579 22.8525Z" fill="white" stroke="black" stroke-width="0.0173267" stroke-miterlimit="3"/>
<path d="M33.7906 22.8758C33.7906 22.8758 33.8252 22.7374 33.8483 22.7374C33.8714 22.7374 33.9291 22.772 33.9578 22.749V22.8527C33.9578 22.8527 33.8308 22.824 33.8137 22.9968L33.7906 22.8758V22.8758Z" fill="white" stroke="black" stroke-width="0.0173267" stroke-miterlimit="3"/>
<path d="M36.0376 25.7455C36.0376 25.7455 36.4294 26.1094 36.327 26.4266C36.327 26.4266 36.5788 25.8854 36.3084 25.7268C36.0376 25.5682 36.0283 25.6898 36.0376 25.7455V25.7455Z" fill="#00AD50" stroke="black" stroke-width="0.0386139" stroke-miterlimit="4.8"/>
<path d="M35.543 26.0995C35.543 26.0995 35.4405 26.2397 35.5523 26.3423C35.5523 26.3423 35.4312 26.5193 35.5246 26.6688C35.5246 26.6688 35.4498 26.8274 35.4685 26.9954C35.4685 26.9954 35.4031 27.2565 35.543 27.378C35.543 27.378 35.6924 27.4527 35.7578 27.3873C35.7578 27.3873 35.8883 27.1915 35.8043 26.9859C35.8043 26.9859 35.8976 26.8181 35.795 26.6035C35.795 26.6035 35.8231 26.4822 35.7391 26.3424C35.7391 26.3424 35.795 26.2489 35.7483 26.1744C35.7483 26.1744 35.5618 25.9783 35.543 26.0995V26.0995Z" fill="#862633" stroke="black" stroke-width="0.0386139" stroke-miterlimit="4.8"/>
<path d="M35.6549 25.6426C35.6549 25.6426 35.1885 24.747 34.8619 24.7095C34.5353 24.6721 34.5167 24.355 34.5167 24.355C34.5167 24.355 34.554 24.5043 34.8153 24.5043C35.0766 24.5043 35.5804 24.8681 35.6363 25.148C35.6922 25.4279 35.7484 25.3907 35.7484 25.3907L35.6549 25.6426L35.6549 25.6426Z" fill="#00AD50" stroke="black" stroke-width="0.0386139" stroke-miterlimit="4.8"/>
<path d="M35.6549 25.5772C35.6549 25.5772 35.8229 24.4483 36.5602 24.4295C37.297 24.4107 37.0547 24.4855 37.2318 24.3641C37.2318 24.3641 36.7375 24.6256 36.4294 24.6627C36.1216 24.7 35.8696 25.297 35.879 25.4092C35.8882 25.5211 35.7111 25.7358 35.6271 25.6612C35.5431 25.5866 35.655 25.5772 35.655 25.5772L35.6549 25.5772Z" fill="#00AD50" stroke="black" stroke-width="0.0386139" stroke-miterlimit="4.8"/>
<path d="M35.8227 25.9975C35.8227 25.9975 35.9906 25.5497 36.2799 25.6991C36.2799 25.6991 36.0558 25.2697 35.6547 25.6429C35.6547 25.6429 35.8321 25.8855 35.8227 25.9975H35.8227Z" fill="#00AD50" stroke="black" stroke-width="0.0386139" stroke-miterlimit="4.8"/>
<path d="M35.2628 25.549C35.2628 25.549 35.5055 26.5475 35.1322 26.8553C35.1322 26.8553 35.1414 26.3424 34.9175 26.0344C34.6938 25.7263 35.1415 25.3907 35.2628 25.549V25.549Z" fill="#00AD50" stroke="black" stroke-width="0.0386139" stroke-miterlimit="4.8"/>
<path d="M35.2911 25.7267C35.2911 25.7267 35.7297 26.1467 35.7578 26.2866C35.7858 26.4266 35.8883 25.8668 35.6831 25.7083C35.4778 25.5495 35.2539 25.5215 35.2539 25.5215L35.2911 25.7267Z" fill="#00AD50" stroke="black" stroke-width="0.0386139" stroke-miterlimit="4.8"/>
<path d="M34.4822 26.8272C34.4822 26.8272 34.5219 27.0035 34.6301 27.0376C34.6301 27.0376 34.6357 27.1685 34.7325 27.2083C34.7325 27.2083 34.6811 27.3164 34.7667 27.3845C34.7667 27.3845 34.7494 27.6007 34.8292 27.6463C34.8292 27.6463 35.0228 27.635 35.0908 27.578C35.0908 27.578 35.1307 27.436 35.0228 27.2935C35.0228 27.2935 35.0396 27.157 34.9315 27.0832C34.9315 27.0832 34.9657 26.9009 34.8291 26.8328C34.8291 26.8328 34.8065 26.6847 34.721 26.6109C34.721 26.6109 34.5561 26.8441 34.4822 26.8272Z" fill="#862633" stroke="black" stroke-width="0.0386139" stroke-miterlimit="4.8"/>
<path d="M34.698 26.6109C34.698 26.6109 34.1234 26.4004 33.8048 26.7019C33.8048 26.7019 34.294 26.7703 34.3566 26.867C34.4192 26.9635 34.7206 26.7078 34.698 26.6109H34.698Z" fill="#00AD50" stroke="black" stroke-width="0.0386139" stroke-miterlimit="4.8"/>
<path d="M34.5218 26.9693C34.5218 26.9693 34.4763 26.9296 34.4195 26.8897C34.3625 26.8499 33.8791 26.719 33.8106 27.1855C33.8106 27.1855 33.6342 26.7247 33.8902 26.6621C34.1464 26.5994 34.3512 26.7474 34.5217 26.9693" fill="#00AD50"/>
<path d="M34.5218 26.9693C34.5218 26.9693 34.4763 26.9296 34.4195 26.8897C34.3625 26.8499 33.8791 26.719 33.8106 27.1855C33.8106 27.1855 33.6342 26.7247 33.8902 26.6621C34.1464 26.5994 34.3512 26.7474 34.5217 26.9693" stroke="black" stroke-width="0.0386139" stroke-miterlimit="4.8"/>
<path d="M34.1436 26.0158C34.1436 26.0158 34.3206 26.3983 34.3861 26.4172C34.4514 26.4356 34.498 26.3706 34.498 26.3706C34.498 26.3706 34.2648 26.0253 34.1436 26.0158V26.0158Z" fill="#00AD50" stroke="black" stroke-width="0.0386139" stroke-miterlimit="4.8"/>
<path d="M34.0128 25.4282C34.0128 25.4282 33.8634 24.9338 33.6863 25.0644C33.509 25.195 33.5557 25.5494 33.5557 25.5494C33.5557 25.5494 33.2011 25.1857 33.4062 24.8963C33.6118 24.6072 34.0128 24.9244 34.0128 25.4282H34.0128Z" fill="#00AD50" stroke="black" stroke-width="0.0386139" stroke-miterlimit="4.8"/>
<path d="M34.4143 26.445C34.4143 26.445 34.4143 26.5383 34.4797 26.5662C34.545 26.5942 34.6662 26.6407 34.6662 26.585C34.6662 26.529 34.573 26.3144 34.5355 26.3424C34.4981 26.3705 34.4331 26.3702 34.4143 26.445Z" fill="#862633" stroke="black" stroke-width="0.0386139" stroke-miterlimit="4.8"/>
<path d="M34.3024 25.8668C34.3024 25.8668 34.2838 25.4377 34.5635 25.2789C34.5635 25.2789 34.6197 25.2885 34.6477 25.2046C34.6477 25.2046 34.4235 25.7455 34.4889 26.0161L34.4797 26.0535" fill="#00AD50"/>
<path d="M34.3024 25.8668C34.3024 25.8668 34.2838 25.4377 34.5635 25.2789C34.5635 25.2789 34.6197 25.2885 34.6477 25.2046C34.6477 25.2046 34.4235 25.7455 34.4889 26.0161L34.4797 26.0535" stroke="black" stroke-width="0.0386139" stroke-miterlimit="4.8"/>
<path d="M34.3584 25.3441C34.3584 25.3441 34.8622 24.2989 35.4781 24.6628C35.4781 24.6628 34.8343 24.7935 34.6012 25.2507L34.3678 25.5956L34.3584 25.344L34.3584 25.3441Z" fill="#00AD50" stroke="black" stroke-width="0.0386139" stroke-miterlimit="4.8"/>
<path d="M34.0876 25.7267C34.0876 25.7267 33.9382 25.027 33.845 24.9338C33.7516 24.8404 33.593 24.7378 33.4063 24.8964C33.4063 24.8964 33.733 24.607 34.0782 24.8498C34.4233 25.0924 34.3487 25.4749 34.3487 25.4749L34.3115 25.9601L34.0782 25.7455" fill="#00AD50"/>
<path d="M34.0876 25.7267C34.0876 25.7267 33.9382 25.027 33.845 24.9338C33.7516 24.8404 33.593 24.7378 33.4063 24.8964C33.4063 24.8964 33.733 24.607 34.0782 24.8498C34.4233 25.0924 34.3487 25.4749 34.3487 25.4749L34.3115 25.9601L34.0782 25.7455" stroke="black" stroke-width="0.0386139" stroke-miterlimit="4.8"/>
<path d="M34.6287 26.5569C34.6287 26.5569 34.0129 25.391 33.6118 26.2213C33.6118 26.2213 33.5369 26.4357 33.6209 26.5195C33.6209 26.5195 33.3969 26.3517 33.4996 25.9412C33.6021 25.5308 34.2832 25.7173 34.4793 26.0533C34.6752 26.3891 34.7313 26.5572 34.7033 26.5756C34.6752 26.5944 34.6287 26.5569 34.6287 26.5569L34.6287 26.5569Z" fill="#00AD50" stroke="black" stroke-width="0.0386139" stroke-miterlimit="4.8"/>
<path d="M36.3643 26.893C36.3643 26.893 36.8124 25.9693 37.0734 26.3891C37.0734 26.3891 37.148 26.5943 37.036 26.6785C37.036 26.6785 36.8589 26.4638 36.7003 26.7251C36.5416 26.9862 36.607 26.9678 36.607 26.9678C36.607 26.9678 36.439 27.0144 36.3643 26.893L36.3643 26.893Z" fill="#00AD50" stroke="black" stroke-width="0.0386139" stroke-miterlimit="4.8"/>
<path d="M37.0356 26.6782C37.0356 26.6782 37.2782 26.8086 37.1945 27.0699C37.1945 27.0699 37.5208 26.4449 37.0731 26.3888C37.0732 26.3888 37.1572 26.5849 37.0356 26.6782Z" fill="#00AD50" stroke="black" stroke-width="0.0386139" stroke-miterlimit="4.8"/>
<path d="M37.0638 26.044C37.0638 26.044 37.6518 26.2119 37.6704 26.464C37.6704 26.464 37.7731 25.9786 37.4371 25.8294C37.4372 25.8294 37.0358 25.8948 37.0638 26.044V26.044Z" fill="#00AD50" stroke="black" stroke-width="0.0386139" stroke-miterlimit="4.8"/>
<path d="M37.3252 25.2693C37.5772 24.7748 37.8944 25.4279 37.8944 25.4279C37.8944 25.4279 38.0063 24.9148 37.6892 24.8214C37.3718 24.7281 37.1666 25.9129 37.1666 25.9129L36.7933 25.9969C36.7933 25.9969 36.896 24.9615 37.4558 24.868L37.521 24.8774" fill="#00AD50"/>
<path d="M37.3252 25.2693C37.5772 24.7748 37.8944 25.4279 37.8944 25.4279C37.8944 25.4279 38.0063 24.9148 37.6892 24.8214C37.3718 24.7281 37.1666 25.9129 37.1666 25.9129L36.7933 25.9969C36.7933 25.9969 36.896 24.9615 37.4558 24.868L37.521 24.8774" stroke="black" stroke-width="0.0386139" stroke-miterlimit="4.8"/>
<path d="M36.8772 25.5678C36.8772 25.5678 36.5228 24.8401 36.2801 24.7655C36.0374 24.6909 36.4109 24.5789 36.5601 24.7188C36.7092 24.8586 36.9891 25.036 36.9612 25.4093L36.8772 25.5678L36.8772 25.5678Z" fill="#00AD50" stroke="black" stroke-width="0.0386139" stroke-miterlimit="4.8"/>
<path d="M36.5134 26.5663C36.5134 26.5663 36.616 26.072 36.8958 25.9226C37.1757 25.7732 37.437 25.8293 37.437 25.8293C37.437 25.8293 37.101 25.9038 37.0452 26.072C36.9891 26.2398 36.8958 26.2491 36.8958 26.2491L36.5134 26.5663V26.5663Z" fill="#00AD50" stroke="black" stroke-width="0.0386139" stroke-miterlimit="4.8"/>
<path d="M36.3643 26.8931C36.3643 26.8931 36.2058 27.1917 36.243 27.2382C36.243 27.2382 36.0751 27.4808 36.1404 27.6021C36.1404 27.6021 36.3084 27.7327 36.383 27.6766C36.383 27.6766 36.5787 27.4062 36.5228 27.2568C36.5228 27.2568 36.6534 27.0797 36.607 26.9678C36.607 26.9678 36.4111 26.9771 36.3643 26.8931Z" fill="#862633" stroke="black" stroke-width="0.0386139" stroke-miterlimit="4.8"/>
<path d="M35.5436 26.3599C35.5541 26.3652 35.6483 26.411 35.7117 26.3898L35.757 26.3511L35.7214 26.3334C35.6982 26.3795 35.5956 26.3415 35.5613 26.3245L35.5436 26.3599V26.3599Z" fill="black"/>
<path d="M35.5282 26.6495L35.5205 26.6886C35.5285 26.6901 35.7179 26.7268 35.8082 26.6466L35.7817 26.6169C35.7062 26.6839 35.5301 26.65 35.5282 26.6495Z" fill="black"/>
<path d="M35.4802 26.9792L35.4568 27.0114C35.4591 27.0131 35.6791 27.1698 35.8199 26.9987L35.789 26.9734C35.6721 27.1154 35.488 26.9849 35.4802 26.9792V26.9792Z" fill="black"/>
<path d="M34.6257 27.0267L34.634 27.048C34.6419 27.0448 34.8283 26.9699 34.8401 26.8336L34.8175 26.8315C34.8069 26.9539 34.6275 27.026 34.6257 27.0267Z" fill="black"/>
<path d="M34.7312 27.197L34.7328 27.2197C34.7401 27.2192 34.9122 27.2063 34.9422 27.086L34.92 27.0803C34.8941 27.1846 34.7329 27.1968 34.7312 27.197V27.197Z" fill="black"/>
<path d="M34.7668 27.3733L34.7656 27.3961C34.7738 27.3965 34.9666 27.4065 35.032 27.2997L35.0126 27.2877C34.9542 27.3831 34.7687 27.3734 34.7668 27.3733V27.3733Z" fill="black"/>
<path d="M36.2287 27.2525C36.2321 27.2561 36.3153 27.3382 36.4123 27.3346C36.4598 27.3328 36.502 27.311 36.5376 27.27L36.5075 27.2439C36.4795 27.2762 36.4469 27.2935 36.4111 27.2948C36.3316 27.2977 36.2574 27.2251 36.2567 27.2242L36.2287 27.2525V27.2525Z" fill="black"/>
<path d="M42.0228 27.9347C42.0125 27.9386 42.0021 27.9448 41.9927 27.9546L42.0228 27.9347Z" fill="#862633" stroke="black" stroke-width="0.0207921" stroke-miterlimit="4.8"/>
<path d="M42.7089 27.7629C42.7023 27.7458 42.6979 27.753 42.6891 27.7455C42.6766 27.7351 42.6694 27.7021 42.6583 27.6897C42.6518 27.6822 42.6442 27.6895 42.6372 27.6877C42.6211 27.6524 42.6022 27.6152 42.5854 27.5811C42.588 27.5772 42.5896 27.5725 42.59 27.5653C42.59 27.5639 42.5821 27.5367 42.5816 27.5355C42.5768 27.528 42.5691 27.5324 42.5645 27.5207C42.5593 27.509 42.5633 27.486 42.5614 27.4722C42.5601 27.4607 42.5555 27.4543 42.5563 27.4381C42.557 27.424 42.5645 27.4076 42.5636 27.3953C42.5633 27.3875 42.5542 27.3701 42.5514 27.3636C42.5404 27.3369 42.5311 27.3118 42.5298 27.2789C42.5284 27.2491 42.5344 27.2309 42.5366 27.205C42.5394 27.1741 42.523 27.1591 42.523 27.1305C42.5232 27.1086 42.5324 27.084 42.535 27.0644C42.5387 27.0376 42.539 26.9987 42.5367 26.9712C42.5347 26.9449 42.5273 26.929 42.5314 26.8994C42.5324 26.8922 42.5359 26.8863 42.5367 26.8762C42.5365 26.8689 42.5365 26.8619 42.5365 26.8549V26.8124C42.5365 26.7986 42.5379 26.7831 42.5367 26.7697C42.5355 26.7585 42.529 26.747 42.529 26.7382C42.529 26.723 42.5386 26.7158 42.5365 26.6953C42.5352 26.6805 42.5331 26.6771 42.5297 26.6642C42.5232 26.6397 42.5276 26.6151 42.5236 26.589C42.5217 26.5764 42.5178 26.5724 42.5166 26.5581C42.5149 26.5412 42.5201 26.5354 42.5217 26.5235C42.5235 26.5116 42.5252 26.496 42.5236 26.4834C42.5217 26.4682 42.5146 26.4575 42.5166 26.441L42.511 26.6283C42.5064 26.4649 42.4999 26.3137 42.4999 26.3137L42.2514 26.197C42.2514 26.197 42.2304 26.6531 42.2358 26.7166C42.2408 26.7803 42.2621 27.2154 42.2514 27.2684C42.2407 27.3215 42.2146 27.5867 42.2146 27.5867C42.2146 27.5867 42.0931 27.6716 42.0456 27.7669C41.9979 27.8624 42.0086 27.8943 41.9926 27.8943L42.1106 27.8759L42.0227 27.9345C42.0408 27.9277 42.0599 27.9292 42.0774 27.943C42.0795 27.9447 42.0926 27.9559 42.0943 27.9559C42.0989 27.9559 42.1053 27.9441 42.1109 27.942C42.1292 27.9359 42.1447 27.9701 42.162 27.9675C42.1714 27.9661 42.1841 27.9563 42.1917 27.9464C42.198 27.9379 42.2004 27.9231 42.207 27.9175C42.2131 27.9123 42.2279 27.9183 42.2342 27.9183C42.2516 27.9183 42.2691 27.9189 42.2865 27.9183C42.3096 27.9177 42.3283 27.8851 42.3496 27.8667C42.3695 27.85 42.3841 27.8441 42.4053 27.8454C42.4285 27.8471 42.4495 27.8688 42.4731 27.8701C42.491 27.871 42.5034 27.8732 42.5179 27.8545C42.5279 27.8414 42.5349 27.822 42.5444 27.8084L42.6031 27.7993C42.6147 27.8041 42.6266 27.8094 42.6366 27.8091C42.6515 27.8084 42.667 27.8065 42.6819 27.8089C42.6875 27.8096 42.6987 27.8228 42.7033 27.8196C42.7065 27.8171 42.7118 27.7993 42.715 27.7939C42.7137 27.7867 42.7115 27.7688 42.7089 27.7628V27.7629Z" fill="#862633" stroke="black" stroke-width="0.0207921" stroke-miterlimit="4.8"/>
<path d="M42.2065 27.9262C42.2215 27.9262 42.2352 27.9228 42.2478 27.9338C42.2499 27.9378 42.2517 27.9416 42.2537 27.9453C42.2578 27.9481 42.2621 27.9486 42.2661 27.947C42.2745 27.9527 42.2762 27.9559 42.2855 27.9581C42.2941 27.9599 42.3036 27.9577 42.3122 27.9579C42.3231 27.9582 42.3283 27.962 42.3385 27.9661C42.3562 27.9734 42.3679 27.9665 42.3832 27.9555C42.401 27.9424 42.4075 27.9524 42.4245 27.9688C42.4373 27.9809 42.4347 27.9798 42.4462 27.9715C42.4479 27.9676 42.4499 27.9638 42.4519 27.9604C42.4576 27.9581 42.4634 27.9565 42.4693 27.9555C42.4788 27.951 42.4882 27.9515 42.4972 27.9481C42.5066 27.9444 42.5135 27.9339 42.5235 27.9358C42.5321 27.9376 42.542 27.9446 42.5502 27.9472C42.5581 27.9499 42.5615 27.9515 42.5681 27.9563C42.5799 27.9319 42.6061 27.9246 42.6228 27.9128C42.6402 27.9007 42.6564 27.9153 42.6755 27.9155C42.6857 27.9155 42.6898 27.9096 42.697 27.9073C42.7051 27.9043 42.7144 27.9086 42.7221 27.9054C42.7304 27.9023 42.7319 27.8943 42.741 27.8933C42.7579 27.8912 42.7767 27.9187 42.7935 27.9239C42.803 27.9271 42.8468 27.9369 42.8404 27.9047C42.8342 27.874 42.8067 27.8952 42.8008 27.8737C42.7976 27.8615 42.8041 27.8441 42.8003 27.8303C42.797 27.8178 42.7832 27.8033 42.775 27.8006C42.7646 27.7973 42.7586 27.8081 42.7498 27.7997C42.7426 27.793 42.7398 27.7678 42.7335 27.7579C42.725 27.764 42.7197 27.7697 42.7085 27.7675C42.6958 27.7644 42.697 27.7601 42.6875 27.748C42.6668 27.7222 42.655 27.7635 42.6359 27.757C42.6214 27.7523 42.608 27.7159 42.5966 27.701C42.5906 27.6931 42.5735 27.6674 42.5648 27.6732C42.55 27.6828 42.5634 27.7107 42.5557 27.7231C42.5502 27.7317 42.5306 27.7229 42.5235 27.7242C42.5123 27.7267 42.5102 27.7296 42.5022 27.743C42.4858 27.77 42.4763 27.7915 42.4509 27.7885C42.4388 27.7871 42.4297 27.7749 42.418 27.7793C42.4054 27.7841 42.3984 27.7975 42.3846 27.7991C42.3746 27.7999 42.3631 27.8003 42.3533 27.7965C42.3437 27.7922 42.3328 27.7741 42.324 27.7692C42.3203 27.7661 42.3165 27.7654 42.3122 27.7669C42.3111 27.7664 42.2979 27.7586 42.2977 27.7586C42.2824 27.7542 42.2836 27.7547 42.2774 27.775C42.2737 27.7875 42.2724 27.8005 42.2677 27.8123C42.2633 27.8223 42.2535 27.8347 42.2478 27.8414C42.2371 27.8529 42.2319 27.8498 42.218 27.854C42.2069 27.8576 42.192 27.875 42.186 27.8526C42.1771 27.8189 42.2108 27.7684 42.1732 27.7772C42.1634 27.7795 42.1575 27.7813 42.1515 27.7958C42.1449 27.8125 42.1502 27.8233 42.1473 27.8416C42.1434 27.8647 42.0994 27.9034 42.1081 27.9243C42.1139 27.9389 42.1335 27.9164 42.1389 27.92C42.1478 27.9262 42.1453 27.9408 42.1516 27.9506C42.1649 27.971 42.2043 27.9192 42.2066 27.9472" fill="#862633"/>
<path d="M42.2065 27.9262C42.2215 27.9262 42.2352 27.9228 42.2478 27.9338C42.2499 27.9378 42.2517 27.9416 42.2537 27.9453C42.2578 27.9481 42.2621 27.9486 42.2661 27.947C42.2745 27.9527 42.2762 27.9559 42.2855 27.9581C42.2941 27.9599 42.3036 27.9577 42.3122 27.9579C42.3231 27.9582 42.3283 27.962 42.3385 27.9661C42.3562 27.9734 42.3679 27.9665 42.3832 27.9555C42.401 27.9424 42.4075 27.9524 42.4245 27.9688C42.4373 27.9809 42.4347 27.9798 42.4462 27.9715C42.4479 27.9676 42.4499 27.9638 42.4519 27.9604C42.4576 27.9581 42.4634 27.9565 42.4693 27.9555C42.4788 27.951 42.4882 27.9515 42.4972 27.9481C42.5066 27.9444 42.5135 27.9339 42.5235 27.9358C42.5321 27.9376 42.542 27.9446 42.5502 27.9472C42.5581 27.9499 42.5615 27.9515 42.5681 27.9563C42.5799 27.9319 42.6061 27.9246 42.6228 27.9128C42.6402 27.9007 42.6564 27.9153 42.6755 27.9155C42.6857 27.9155 42.6898 27.9096 42.697 27.9073C42.7051 27.9043 42.7144 27.9086 42.7221 27.9054C42.7304 27.9023 42.7319 27.8943 42.741 27.8933C42.7579 27.8912 42.7767 27.9187 42.7935 27.9239C42.803 27.9271 42.8468 27.9369 42.8404 27.9047C42.8342 27.874 42.8067 27.8952 42.8008 27.8737C42.7976 27.8615 42.8041 27.8441 42.8003 27.8303C42.797 27.8178 42.7832 27.8033 42.775 27.8006C42.7646 27.7973 42.7586 27.8081 42.7498 27.7997C42.7426 27.793 42.7398 27.7678 42.7335 27.7579C42.725 27.764 42.7197 27.7697 42.7085 27.7675C42.6958 27.7644 42.697 27.7601 42.6875 27.748C42.6668 27.7222 42.655 27.7635 42.6359 27.757C42.6214 27.7523 42.608 27.7159 42.5966 27.701C42.5906 27.6931 42.5735 27.6674 42.5648 27.6732C42.55 27.6828 42.5634 27.7107 42.5557 27.7231C42.5502 27.7317 42.5306 27.7229 42.5235 27.7242C42.5123 27.7267 42.5102 27.7296 42.5022 27.743C42.4858 27.77 42.4763 27.7915 42.4509 27.7885C42.4388 27.7871 42.4297 27.7749 42.418 27.7793C42.4054 27.7841 42.3984 27.7975 42.3846 27.7991C42.3746 27.7999 42.3631 27.8003 42.3533 27.7965C42.3437 27.7922 42.3328 27.7741 42.324 27.7692C42.3203 27.7661 42.3165 27.7654 42.3122 27.7669C42.3111 27.7664 42.2979 27.7586 42.2977 27.7586C42.2824 27.7542 42.2836 27.7547 42.2774 27.775C42.2737 27.7875 42.2724 27.8005 42.2677 27.8123C42.2633 27.8223 42.2535 27.8347 42.2478 27.8414C42.2371 27.8529 42.2319 27.8498 42.218 27.854C42.2069 27.8576 42.192 27.875 42.186 27.8526C42.1771 27.8189 42.2108 27.7684 42.1732 27.7772C42.1634 27.7795 42.1575 27.7813 42.1515 27.7958C42.1449 27.8125 42.1502 27.8233 42.1473 27.8416C42.1434 27.8647 42.0994 27.9034 42.1081 27.9243C42.1139 27.9389 42.1335 27.9164 42.1389 27.92C42.1478 27.9262 42.1453 27.9408 42.1516 27.9506C42.1649 27.971 42.2043 27.9192 42.2066 27.9472" stroke="black" stroke-width="0.0207921" stroke-miterlimit="4.8"/>
<path d="M42.0471 27.7455C42.047 27.7426 42.0464 27.7398 42.0462 27.7368C42.0357 27.7349 42.0238 27.7237 42.0142 27.7236C42.0051 27.723 41.9874 27.7452 41.9811 27.7559C41.9619 27.7877 41.9672 27.8311 41.9348 27.8304C41.9269 27.8302 41.9084 27.8249 41.9014 27.8297C41.8892 27.8383 41.8969 27.8638 41.8969 27.8812C41.8969 27.8975 41.9044 27.8812 41.8956 27.9024C41.893 27.9082 41.8851 27.9101 41.883 27.9179C41.8765 27.9456 41.8996 27.9368 41.9097 27.9365C41.9359 27.9363 41.9619 27.9363 41.9877 27.9365C42.0034 27.9368 42.0128 27.9313 42.0275 27.9256C42.0371 27.9223 42.0576 27.9225 42.0657 27.9139C42.0686 27.9106 42.0781 27.8888 42.0794 27.8836C42.0815 27.8729 42.0774 27.86 42.08 27.8511C42.0841 27.8354 42.0981 27.8414 42.1006 27.8203C42.1074 27.7684 42.052 27.8072 42.0607 27.7562" fill="#862633"/>
<path d="M42.0471 27.7455C42.047 27.7426 42.0464 27.7398 42.0462 27.7368C42.0357 27.7349 42.0238 27.7237 42.0142 27.7236C42.0051 27.723 41.9874 27.7452 41.9811 27.7559C41.9619 27.7877 41.9672 27.8311 41.9348 27.8304C41.9269 27.8302 41.9084 27.8249 41.9014 27.8297C41.8892 27.8383 41.8969 27.8638 41.8969 27.8812C41.8969 27.8975 41.9044 27.8812 41.8956 27.9024C41.893 27.9082 41.8851 27.9101 41.883 27.9179C41.8765 27.9456 41.8996 27.9368 41.9097 27.9365C41.9359 27.9363 41.9619 27.9363 41.9877 27.9365C42.0034 27.9368 42.0128 27.9313 42.0275 27.9256C42.0371 27.9223 42.0576 27.9225 42.0657 27.9139C42.0686 27.9106 42.0781 27.8888 42.0794 27.8836C42.0815 27.8729 42.0774 27.86 42.08 27.8511C42.0841 27.8354 42.0981 27.8414 42.1006 27.8203C42.1074 27.7684 42.052 27.8072 42.0607 27.7562" stroke="black" stroke-width="0.0207921" stroke-miterlimit="4.8"/>
<path d="M42.6737 26.304C42.6737 26.3711 42.6278 26.4252 42.5709 26.4252C42.5146 26.4252 42.4683 26.3711 42.4683 26.304C42.4683 26.237 42.5145 26.1826 42.5709 26.1826C42.6278 26.1827 42.6737 26.237 42.6737 26.304Z" fill="black" stroke="black" stroke-width="0.0386139" stroke-miterlimit="4.8"/>
<path d="M42.3381 26.1544C42.3381 26.2214 42.2921 26.2756 42.2355 26.2756C42.1787 26.2756 42.1326 26.2214 42.1326 26.1544C42.1326 26.0875 42.1787 26.0331 42.2355 26.0331C42.2921 26.0331 42.3381 26.0875 42.3381 26.1544Z" fill="black" stroke="black" stroke-width="0.0386139" stroke-miterlimit="4.8"/>
<path d="M42.5154 26.201C42.5154 26.2681 42.4694 26.3222 42.4127 26.3222C42.356 26.3222 42.3101 26.2681 42.3101 26.201C42.3101 26.1339 42.356 26.0797 42.4127 26.0797C42.4694 26.0797 42.5154 26.1339 42.5154 26.201Z" fill="black" stroke="black" stroke-width="0.0386139" stroke-miterlimit="4.8"/>
<path d="M42.3435 26.3119C42.3435 26.379 42.2974 26.4334 42.2408 26.4334C42.1842 26.4334 42.1382 26.379 42.1382 26.3119C42.1382 26.2449 42.1841 26.1907 42.2408 26.1907C42.2975 26.1907 42.3435 26.2449 42.3435 26.3119Z" fill="black" stroke="black" stroke-width="0.0386139" stroke-miterlimit="4.8"/>
<path d="M42.503 26.4045C42.503 26.4714 42.4567 26.5259 42.4003 26.5259C42.3436 26.5259 42.2975 26.4714 42.2975 26.4045C42.2975 26.3375 42.3436 26.2833 42.4003 26.2833C42.4566 26.2833 42.503 26.3375 42.503 26.4045Z" fill="black" stroke="black" stroke-width="0.0386139" stroke-miterlimit="4.8"/>
<path d="M42.5525 25.0812C42.5525 25.0812 43.588 23.6352 44.6984 25.1373C44.6984 25.1373 44.7077 25.2867 44.6051 25.4452L44.5771 25.324L44.5118 25.3426L44.4932 25.268L44.3716 25.2587L44.4092 25.1L44.2784 25.2027L44.2971 25.0906L44.1479 25.2402L44.1666 24.9228L44.0079 25.1934L44.0265 25.0069L43.9706 25.0907L43.9369 24.982L43.8868 25.0907L43.8119 25.0349V25.1095L43.6815 24.9975L43.6348 25.1467L43.5695 24.9882L43.5508 25.1001L43.4854 24.9695L43.4763 25.1095L43.2615 25.0161L43.3081 25.1467L43.2057 25.0722L43.2243 25.1467L43.0845 25.1189L43.0936 25.2027L42.9444 25.1747L42.9725 25.2493L42.7671 25.2215L42.8415 25.3054L42.8208 25.3396C42.8208 25.3396 43.9426 24.9696 44.0172 26.3691L43.8119 26.4717L43.868 26.36L43.8119 26.3225L43.6441 26.192L43.6907 26.0146L43.6348 26.0334L43.6254 25.9308L43.5975 25.9494L43.532 25.8468L43.5134 25.8841L43.4668 25.7626L43.4201 25.8468L43.392 25.6415L43.3175 25.7723L43.308 25.6976L43.28 25.7442L43.1867 25.6322L43.159 25.7069L43.1214 25.6509L43.0936 25.7161L42.9909 25.6227V25.6976L42.9257 25.6415L42.8974 25.6788L42.7391 25.5948L42.7294 25.6693L42.6457 25.5948L42.6176 25.6693C42.6176 25.6693 43.6348 26.248 43.3174 27.1904L43.2613 27.3115L43.2429 26.9945L43.1496 27.1623L43.2145 26.7985L43.1496 26.8637L43.14 26.7239L43.0563 26.8637L43.0279 26.7052L42.9909 26.7518L42.9346 26.5091L42.888 26.6119L42.8134 26.3413L42.7575 26.4532L42.7201 26.2201L42.6828 26.36L42.5707 26.1547L42.5523 26.2385L42.487 26.0707L42.4495 26.1268C42.4495 26.1268 42.2629 26.1173 42.207 26.0707C42.151 26.0242 41.9924 26.3507 41.9924 26.3507L42.0111 26.1547L41.9459 26.2851V26.1547L41.8245 26.5465L41.7964 26.2666L41.7312 26.5091L41.7031 26.4347L41.6845 26.5374L41.6471 26.4999L41.6145 26.61L41.5537 26.5653V26.7145L41.4977 26.6398L41.4511 26.8638L41.4232 26.7707V26.8731L41.3766 26.8174L41.3297 27.0414L41.2645 26.9481L41.2554 27.1065L41.2831 27.228L41.2086 27.1906L41.2367 27.3863C41.2367 27.3863 40.9474 26.8453 41.2927 26.3227C41.6377 25.8005 42.1043 25.6604 42.1043 25.6604L42.0575 25.6139L42.0482 25.5671L41.7683 25.707L41.7778 25.6228L41.703 25.6882L41.6845 25.595L41.6376 25.679L41.6286 25.6416L41.5631 25.7444L41.5256 25.595L41.4791 25.7724L41.4351 25.6483L41.3392 25.9121V25.7163L41.2645 25.9217L41.2366 25.6977L41.1807 25.9588V25.7256L41.0965 25.9588L41.0406 25.735L41.0032 25.9495L40.9473 25.7816L40.8912 26.0335L40.8074 25.8095L40.7607 26.1455L40.7048 26.0147L40.6954 26.2574L40.6303 26.1081L40.6954 26.4252L40.6114 26.304L40.6395 26.4999L40.5183 26.2852L40.5276 26.5374L40.4622 26.4532L40.4341 26.5465C40.4341 26.5465 40.4063 25.5762 41.0685 25.3895C41.7312 25.203 42.1604 25.4456 42.1604 25.4456L41.9085 25.2404L41.9365 25.175H41.8432L41.8805 25.1003L41.6846 25.1098L41.7405 25.0351L41.5911 25.0537V25.0071L41.4979 25.0816L41.5352 24.9977L41.4046 25.0816L41.3966 24.9575L41.3299 25.0631L41.2929 24.9511L40.9941 25.2495L41.078 24.9417L41.0221 25.0071L41.0129 24.9417L40.9289 25.0725L40.9102 24.9791L40.8728 25.0909L40.8447 24.9604L40.7796 25.0909L40.7142 24.9699L40.6863 25.1285L40.6395 25.0444L40.5836 25.1657L40.5091 25.0909L40.4996 25.1657L40.3503 25.1003L40.3877 25.2124L40.2757 25.1191L40.2476 25.2683L40.1824 25.1937L40.1358 25.3804L40.0892 25.203L40.0425 25.343C40.0425 25.343 40.626 23.8437 42.1022 24.8219C42.1022 24.8219 42.2629 24.9791 42.3003 25.091C42.3377 25.2031 42.3098 25.1099 42.3098 25.1099L42.2817 24.0742L42.3376 24.522L42.3749 24.3633L42.3657 24.5966L42.5148 24.27C42.5148 24.27 42.3377 24.8113 42.4028 25.0071C42.4028 25.0071 42.4683 24.3821 42.6924 24.3073L42.487 24.7551L42.5523 24.7458L42.5056 24.8392H42.5616L42.4939 24.9872L42.4589 25.0632L42.4961 25.1377L42.5525 25.0812L42.5525 25.0812Z" fill="#00AD50" stroke="black" stroke-width="0.0386139" stroke-miterlimit="4.8"/>
<path d="M42.399 25.6896L42.4285 25.7161C42.4324 25.712 42.5247 25.6137 42.6796 25.7445L42.7053 25.714C42.5201 25.5574 42.3999 25.6882 42.399 25.6896V25.6896Z" fill="black"/>
<path d="M42.354 25.1817L42.3479 25.2176C42.3479 25.2176 42.4012 25.1949 42.4199 25.1869C42.4083 25.2074 42.3704 25.2734 42.3704 25.2734C42.3704 25.2734 42.4487 25.2474 42.4777 25.2377C42.4309 25.299 42.3447 25.4118 42.3447 25.4118L42.3763 25.4363L42.5881 25.159C42.5881 25.159 42.4906 25.1916 42.4565 25.2029C42.4703 25.179 42.513 25.1036 42.513 25.1036C42.513 25.1036 42.4266 25.1408 42.3992 25.1525C42.4067 25.1066 42.4227 25.0103 42.4227 25.0103L42.3833 25.0037L42.354 25.1817Z" fill="black"/>
<path d="M42.1565 25.1931C42.1565 25.1931 42.1826 25.2509 42.2023 25.294C42.1938 25.2905 42.1293 25.2646 42.1293 25.2646L42.3446 25.6456C42.3446 25.6456 42.3706 25.6123 42.3721 25.6103C42.3504 25.6659 42.3288 25.7219 42.3288 25.7219L42.3659 25.7364L42.4587 25.4977L42.4245 25.4783C42.4245 25.4783 42.3736 25.5435 42.3498 25.574C42.3296 25.5381 42.2551 25.4063 42.2198 25.344C42.2243 25.3457 42.2796 25.3679 42.2796 25.3679C42.2796 25.3679 42.2389 25.2782 42.22 25.2366C42.2451 25.2523 42.3007 25.287 42.3007 25.287V25.1451H42.2609V25.2153C42.23 25.196 42.1291 25.133 42.1291 25.133L42.1565 25.1931V25.1931Z" fill="black"/>
<path d="M42.0208 25.6713L42.0367 25.7078C42.095 25.6828 42.143 25.6787 42.1795 25.6961C42.2222 25.7166 42.2351 25.7606 42.2352 25.7609L42.2736 25.7506C42.273 25.7481 42.2562 25.6888 42.1972 25.6604C42.1501 25.6377 42.0907 25.6414 42.0208 25.6713V25.6713Z" fill="black"/>
<path d="M42.1552 25.8661L42.1879 26.0747L42.2274 26.0685L42.1947 25.8599L42.1552 25.8661Z" fill="black"/>
<path d="M42.4213 25.881L42.4745 26.0404L42.5124 26.0277L42.4592 25.8684L42.4213 25.881Z" fill="black"/>
<path d="M42.5397 25.999L42.5797 26.1582L42.6184 26.1485L42.5785 25.9893L42.5397 25.999Z" fill="black"/>
<path d="M34.6144 30.9456C34.6144 30.9456 34.4394 30.8661 34.3597 30.9242C34.2801 30.9827 34.291 31.0675 34.222 31.0621C34.222 31.0621 34.4871 31.1205 34.5453 31.0514C34.6036 30.9827 34.6144 30.9614 34.6144 30.9614" fill="#00AD50"/>
<path d="M34.6144 30.9456C34.6144 30.9456 34.4394 30.8661 34.3597 30.9242C34.2801 30.9827 34.291 31.0675 34.222 31.0621C34.222 31.0621 34.4871 31.1205 34.5453 31.0514C34.6036 30.9827 34.6144 30.9614 34.6144 30.9614" stroke="black" stroke-width="0.0386139" stroke-miterlimit="4.8"/>
<path d="M34.6466 31.0188C34.6466 31.0188 34.5314 31.1727 34.5712 31.2629C34.6109 31.3531 34.6961 31.3608 34.676 31.427C34.676 31.427 34.7899 31.1808 34.7352 31.1089C34.6805 31.0375 34.6622 31.0225 34.6622 31.0225" fill="#00AD50"/>
<path d="M34.6466 31.0188C34.6466 31.0188 34.5314 31.1727 34.5712 31.2629C34.6109 31.3531 34.6961 31.3608 34.676 31.427C34.676 31.427 34.7899 31.1808 34.7352 31.1089C34.6805 31.0375 34.6622 31.0225 34.6622 31.0225" stroke="black" stroke-width="0.0386139" stroke-miterlimit="4.8"/>
<path d="M34.4525 30.5926C34.4525 30.5926 34.2688 30.6496 34.2482 30.7458C34.2271 30.8422 34.2917 30.8986 34.2367 30.9404C34.2367 30.9404 34.4734 30.8078 34.4712 30.7173C34.469 30.6271 34.4631 30.6043 34.4631 30.6043" fill="#00AD50"/>
<path d="M34.4525 30.5926C34.4525 30.5926 34.2688 30.6496 34.2482 30.7458C34.2271 30.8422 34.2917 30.8986 34.2367 30.9404C34.2367 30.9404 34.4734 30.8078 34.4712 30.7173C34.469 30.6271 34.4631 30.6043 34.4631 30.6043" stroke="black" stroke-width="0.0386139" stroke-miterlimit="4.8"/>
<path d="M34.5604 30.6559C34.5604 30.6559 34.6475 30.4843 34.5927 30.4026C34.538 30.3202 34.4525 30.3273 34.4609 30.2588C34.4609 30.2588 34.3909 30.521 34.4573 30.5824C34.5238 30.6433 34.5446 30.6551 34.5446 30.6551" fill="#00AD50"/>
<path d="M34.5604 30.6559C34.5604 30.6559 34.6475 30.4843 34.5927 30.4026C34.538 30.3202 34.4525 30.3273 34.4609 30.2588C34.4609 30.2588 34.3909 30.521 34.4573 30.5824C34.5238 30.6433 34.5446 30.6551 34.5446 30.6551" stroke="black" stroke-width="0.0386139" stroke-miterlimit="4.8"/>
<path d="M34.3802 30.5936C34.3802 30.5936 34.3844 30.4017 34.2994 30.3516C34.2145 30.3013 34.1406 30.3445 34.1183 30.2789C34.1183 30.2789 34.1691 30.5457 34.2556 30.5724C34.3421 30.5984 34.3659 30.5999 34.3659 30.5999" fill="#00AD50"/>
<path d="M34.3802 30.5936C34.3802 30.5936 34.3844 30.4017 34.2994 30.3516C34.2145 30.3013 34.1406 30.3445 34.1183 30.2789C34.1183 30.2789 34.1691 30.5457 34.2556 30.5724C34.3421 30.5984 34.3659 30.5999 34.3659 30.5999" stroke="black" stroke-width="0.0386139" stroke-miterlimit="4.8"/>
<path d="M34.6941 30.9134C34.6941 30.9134 34.8955 30.8442 34.9115 31.0618C34.9274 31.2791 34.9008 31.205 34.9008 31.205C34.9008 31.205 34.7948 30.9717 34.6782 30.9345L34.6941 30.9134V30.9134Z" fill="#00AD50" stroke="black" stroke-width="0.0386139" stroke-miterlimit="4.8"/>
<path d="M34.6431 31.0223C34.6431 31.0269 34.6642 31.1913 34.6642 31.1913L34.6925 31.1877L34.6712 31.0232C34.6719 31.0234 34.74 30.6618 34.74 30.6618L34.7119 30.6566L34.6431 31.0223V31.0223Z" fill="black"/>
<path d="M34.4599 30.9688L34.4505 30.9957C34.5468 31.0295 34.6812 30.9237 34.6868 30.9192L34.669 30.8971C34.6678 30.8979 34.5414 30.9978 34.4599 30.9688V30.9688Z" fill="black"/>
<path d="M34.2617 30.5287L34.7123 30.7567L34.7302 30.7211L34.2796 30.4932L34.2617 30.5287Z" fill="black"/>
<path d="M34.3576 30.6774L34.3856 30.7055L34.4758 30.6154L34.4477 30.5873L34.3576 30.6774Z" fill="black"/>
<path d="M34.4479 30.4547L34.5433 30.6617L34.5794 30.645L34.484 30.4381L34.4479 30.4547Z" fill="black"/>
<path d="M34.6768 30.9148L34.6793 30.9546C34.8019 30.9463 34.8318 31.0257 34.832 31.0266L34.8711 31.0184C34.8664 30.9958 34.8174 30.9054 34.6768 30.9148V30.9148Z" fill="black"/>
<path d="M36.7441 31.0064C36.8943 30.9223 36.9244 30.6274 36.9244 30.6274C36.8885 30.7358 36.612 30.844 36.612 30.844C36.8163 30.7174 37.0626 30.1467 37.0626 30.1467C36.9965 30.3511 36.4617 30.5193 36.119 30.7116C35.7763 30.9039 35.9567 31.4571 35.9567 31.4571C35.8606 31.3909 35.6742 31.0965 35.6383 30.8378C35.602 30.5795 35.4999 30.4774 35.2654 30.4473C35.0309 30.4172 34.8927 30.6815 34.8927 30.6815L34.5442 30.8621L34.8986 30.8739C34.8986 30.8739 35.1514 30.9583 35.1514 31.1566C35.1514 31.3551 34.929 32.1484 35.2954 32.5933C35.5505 32.9025 36.4918 33.0801 36.4918 33.0801" fill="white"/>
<path d="M36.7441 31.0064C36.8943 30.9223 36.9244 30.6274 36.9244 30.6274C36.8885 30.7358 36.612 30.844 36.612 30.844C36.8163 30.7174 37.0626 30.1467 37.0626 30.1467C36.9965 30.3511 36.4617 30.5193 36.119 30.7116C35.7763 30.9039 35.9567 31.4571 35.9567 31.4571C35.8606 31.3909 35.6742 31.0965 35.6383 30.8378C35.602 30.5795 35.4999 30.4774 35.2654 30.4473C35.0309 30.4172 34.8927 30.6815 34.8927 30.6815L34.5442 30.8621L34.8986 30.8739C34.8986 30.8739 35.1514 30.9583 35.1514 31.1566C35.1514 31.3551 34.929 32.1484 35.2954 32.5933C35.5505 32.9025 36.4918 33.0801 36.4918 33.0801" stroke="black" stroke-width="0.0495049" stroke-miterlimit="4.8"/>
<path d="M36.053 31.6193C36.053 31.6193 36.1251 31.2646 36.3595 31.2766C36.5939 31.2886 36.66 31.0123 36.7983 30.9701C36.9365 30.9281 37.6519 30.7359 37.73 30.3931C37.73 30.3931 37.6639 30.9582 37.0088 31.2407C37.0088 31.2407 37.5376 31.0663 37.5978 30.952C37.5978 30.952 37.3632 31.457 36.7923 31.5351C36.7923 31.5351 37.3272 31.4931 37.4054 31.3489C37.4054 31.3489 37.1649 31.6674 36.7683 31.7096C36.7683 31.7096 37.1349 31.8598 37.2312 31.7335C37.2312 31.7335 37.0328 31.9679 36.7862 31.9858L36.8525 32.0039C36.8525 32.0039 36.6181 32.2805 36.3596 32.0941C36.1012 31.9077 36.095 32.1424 36.095 32.1424" fill="white"/>
<path d="M36.053 31.6193C36.053 31.6193 36.1251 31.2646 36.3595 31.2766C36.5939 31.2886 36.66 31.0123 36.7983 30.9701C36.9365 30.9281 37.6519 30.7359 37.73 30.3931C37.73 30.3931 37.6639 30.9582 37.0088 31.2407C37.0088 31.2407 37.5376 31.0663 37.5978 30.952C37.5978 30.952 37.3632 31.457 36.7923 31.5351C36.7923 31.5351 37.3272 31.4931 37.4054 31.3489C37.4054 31.3489 37.1649 31.6674 36.7683 31.7096C36.7683 31.7096 37.1349 31.8598 37.2312 31.7335C37.2312 31.7335 37.0328 31.9679 36.7862 31.9858L36.8525 32.0039C36.8525 32.0039 36.6181 32.2805 36.3596 32.0941C36.1012 31.9077 36.095 32.1424 36.095 32.1424" stroke="black" stroke-width="0.0495049" stroke-miterlimit="4.8"/>
<path d="M36.5866 32.154C36.5866 32.154 36.8885 32.659 36.9187 32.9295C36.9187 32.9295 37.4958 33.5667 37.7121 33.6025C37.7121 33.6025 37.6099 33.6445 37.4235 33.4884C37.4235 33.4884 37.5798 33.6507 37.6099 33.6567C37.6398 33.6629 37.4836 33.6447 37.4595 33.6025C37.4595 33.6025 37.5257 33.6989 37.5677 33.7109C37.6099 33.723 37.5257 33.6989 37.5257 33.6989C37.5257 33.6989 37.4474 33.6868 37.4114 33.6567C37.3753 33.6268 37.3994 33.7347 37.3994 33.7347C37.3994 33.7347 37.3092 33.7107 37.2792 33.6807C37.2491 33.6507 37.2913 33.7469 37.2913 33.7469L37.2132 33.7288L37.1591 33.7648C37.1591 33.7648 37.1531 33.8009 37.1168 33.7708C37.0809 33.7411 37.0147 33.7708 37.0147 33.7708C37.0147 33.7708 36.9665 33.813 36.9426 33.7829C36.9187 33.7529 36.8276 33.8985 36.8276 33.8985L36.4491 32.9849" fill="white"/>
<path d="M36.5866 32.154C36.5866 32.154 36.8885 32.659 36.9187 32.9295C36.9187 32.9295 37.4958 33.5667 37.7121 33.6025C37.7121 33.6025 37.6099 33.6445 37.4235 33.4884C37.4235 33.4884 37.5798 33.6507 37.6099 33.6567C37.6398 33.6629 37.4836 33.6447 37.4595 33.6025C37.4595 33.6025 37.5257 33.6989 37.5677 33.7109C37.6099 33.723 37.5257 33.6989 37.5257 33.6989C37.5257 33.6989 37.4474 33.6868 37.4114 33.6567C37.3753 33.6268 37.3994 33.7347 37.3994 33.7347C37.3994 33.7347 37.3092 33.7107 37.2792 33.6807C37.2491 33.6507 37.2913 33.7469 37.2913 33.7469L37.2132 33.7288L37.1591 33.7648C37.1591 33.7648 37.1531 33.8009 37.1168 33.7708C37.0809 33.7411 37.0147 33.7708 37.0147 33.7708C37.0147 33.7708 36.9665 33.813 36.9426 33.7829C36.9187 33.7529 36.8276 33.8985 36.8276 33.8985L36.4491 32.9849" stroke="black" stroke-width="0.0495049" stroke-miterlimit="4.8"/>
<path d="M36.4675 32.9008L36.9458 33.8113L36.996 33.7849L36.5177 32.8744L36.4675 32.9008Z" fill="black"/>
<path d="M36.5454 32.8336L37.3638 33.7499L37.4063 33.712L36.5879 32.7957L36.5454 32.8336Z" fill="black"/>
<path d="M36.6165 32.7988L37.5504 33.6691L37.5892 33.6275L36.6553 32.7572L36.6165 32.7988Z" fill="black"/>
<path d="M35.2099 30.7376C35.2099 30.7376 35.149 30.6285 35.0959 30.6695C35.043 30.7103 35.0125 30.7178 35.0034 30.715C35.0034 30.715 35.0566 30.7179 35.0868 30.6891C35.1172 30.6601 35.1688 30.6784 35.2099 30.7376Z" fill="black"/>
<path d="M34.8802 30.6876C34.8802 30.6876 34.9136 30.7568 34.9141 30.758C34.9107 30.7582 34.8763 30.8698 34.8763 30.8698L34.9037 30.8782L34.9409 30.7567C34.9402 30.7462 34.906 30.6754 34.906 30.6754L34.8802 30.6876V30.6876Z" fill="black"/>
<path d="M35.196 30.7208C35.196 30.7208 35.1506 30.774 35.0883 30.7587C35.0263 30.7435 35.0263 30.7435 35.0263 30.7435C35.0263 30.7435 35.0791 30.7465 35.1142 30.7482C35.1489 30.7496 35.1944 30.7315 35.196 30.7208V30.7208Z" fill="black"/>
<path d="M35.1812 30.7317C35.1812 30.7317 35.1252 30.6725 35.0872 30.6892C35.0872 30.6892 35.154 30.6679 35.1919 30.7253L35.1812 30.7317Z" fill="black"/>
<path d="M35.1718 30.7207C35.1718 30.7207 35.1081 30.7646 35.0382 30.7163L35.0339 30.713L35.043 30.7101C35.0431 30.7102 35.131 30.7465 35.1718 30.7207V30.7207Z" fill="black"/>
<path d="M35.1175 30.729C35.1279 30.729 35.1364 30.7205 35.1364 30.7101C35.1364 30.6996 35.1279 30.6911 35.1175 30.6911C35.107 30.6911 35.0985 30.6996 35.0985 30.7101C35.0985 30.7205 35.107 30.729 35.1175 30.729Z" fill="black"/>
<path d="M35.1688 32.3891C35.1688 32.3891 35.1195 32.4799 35.1453 32.5346C35.1714 32.5892 35.2884 32.6175 35.304 32.6903C35.3196 32.7634 35.3587 32.7632 35.4133 32.753C35.468 32.7425 35.4783 32.7399 35.4783 32.7399C35.4783 32.7399 35.2494 32.6175 35.1895 32.4201L35.1688 32.3891V32.3891Z" fill="black"/>
<path d="M42.5688 30.5401C42.5688 30.5401 42.9855 29.9906 43.355 30.1349C43.7246 30.2793 43.9647 30.3489 43.9647 30.3489C43.9647 30.3489 43.9717 30.7189 43.7752 30.7189C43.5792 30.7189 43.3912 30.3493 43.2126 30.4592C43.0336 30.5688 42.8866 30.7191 42.875 30.7709C42.8635 30.8227 42.4017 30.8344 42.5688 30.5401H42.5688Z" fill="#862633" stroke="black" stroke-width="0.0237624" stroke-miterlimit="4.8"/>
<path d="M40.9871 33.1896C40.9871 33.1896 40.8719 33.3106 40.9239 33.3396C40.976 33.3684 41.0796 33.3336 41.0796 33.2934C41.0796 33.2527 41.0105 33.1781 40.9871 33.1896Z" fill="#862633" stroke="black" stroke-width="0.0386139" stroke-miterlimit="4.8"/>
<path d="M40.895 33.3049C40.895 33.3049 40.6816 33.1834 40.5141 33.4721C40.3465 33.7606 40.2081 34.2283 40.11 34.2919C40.0119 34.3553 41.0625 33.8301 41.0741 33.6108C41.0741 33.6108 41.1432 33.3278 41.0336 33.3335C40.924 33.3395 40.9181 33.3511 40.895 33.3049H40.895Z" fill="#862633" stroke="black" stroke-width="0.0386139" stroke-miterlimit="4.8"/>
<path d="M40.9238 33.3396C40.9238 33.3396 40.7045 33.3912 40.6583 33.7028C40.6122 34.0149 40.3061 34.1763 40.2889 34.1878" fill="#862633"/>
<path d="M40.9238 33.3396C40.9238 33.3396 40.7045 33.3912 40.6583 33.7028C40.6122 34.0149 40.3061 34.1763 40.2889 34.1878" stroke="black" stroke-width="0.0237624" stroke-miterlimit="4.8"/>
<path d="M43.9653 30.349C43.9653 30.349 43.6317 30.465 43.6894 30.696Z" fill="#862633"/>
<path d="M43.9653 30.349C43.9653 30.349 43.6317 30.465 43.6894 30.696" stroke="black" stroke-width="0.0237624" stroke-miterlimit="4.8"/>
<path d="M41.403 31.0247C41.403 31.0247 41.4144 30.2338 42.0606 30.2684C42.183 30.2798 42.1246 30.4242 42.1246 30.4242C42.1246 30.4242 42.2644 30.3263 42.3283 30.4819C42.3283 30.4819 42.5321 30.3896 42.5553 30.5917C42.5553 30.5917 42.7765 30.563 42.7473 30.7418C42.7473 30.7418 42.8986 30.7072 42.893 30.8342C42.893 30.8342 43.0675 30.7649 43.0499 30.9439C43.0499 30.9439 43.242 30.8169 43.2131 31.0477C43.2131 31.0477 43.4111 30.9093 43.4806 31.1402C43.5505 31.371 43.2829 31.8616 43.0209 31.9886" fill="#FEDD00"/>
<path d="M41.403 31.0247C41.403 31.0247 41.4144 30.2338 42.0606 30.2684C42.183 30.2798 42.1246 30.4242 42.1246 30.4242C42.1246 30.4242 42.2644 30.3263 42.3283 30.4819C42.3283 30.4819 42.5321 30.3896 42.5553 30.5917C42.5553 30.5917 42.7765 30.563 42.7473 30.7418C42.7473 30.7418 42.8986 30.7072 42.893 30.8342C42.893 30.8342 43.0675 30.7649 43.0499 30.9439C43.0499 30.9439 43.242 30.8169 43.2131 31.0477C43.2131 31.0477 43.4111 30.9093 43.4806 31.1402C43.5505 31.371 43.2829 31.8616 43.0209 31.9886" stroke="black" stroke-width="0.0237624" stroke-miterlimit="4.8"/>
<path d="M43.1985 31.0727C43.1994 31.0789 43.2856 31.6914 42.9382 31.9156L42.9505 31.9349C43.3104 31.7027 43.2218 31.0757 43.2211 31.0694L43.1985 31.0728V31.0727Z" fill="black"/>
<path d="M42.7802 31.7435L42.7962 31.7599C43.0162 31.5458 43.0635 30.969 43.0652 30.9446L43.0427 30.9427C43.0421 30.9487 42.9943 31.5354 42.7802 31.7435V31.7435Z" fill="black"/>
<path d="M42.5747 31.6064L42.5974 31.6082C42.6257 31.252 42.9041 30.8446 42.9071 30.8405L42.8883 30.8277C42.8854 30.8317 42.6036 31.2442 42.5747 31.6064V31.6064Z" fill="black"/>
<path d="M42.4133 31.5024L42.436 31.5047C42.4756 31.075 42.7594 30.7524 42.7622 30.7493L42.7453 30.7341C42.7424 30.7373 42.4537 31.0652 42.4133 31.5024V31.5024Z" fill="black"/>
<path d="M42.1881 31.3589L42.2108 31.3597C42.2334 30.8524 42.5662 30.6033 42.5696 30.6009L42.5561 30.5825C42.5529 30.585 42.2112 30.8399 42.1881 31.3589V31.3589Z" fill="black"/>
<path d="M41.9802 31.2327L42.0031 31.2319C41.9864 30.7702 42.3414 30.4937 42.3451 30.4909L42.3313 30.4728C42.3277 30.4758 41.9633 30.759 41.9802 31.2326V31.2327Z" fill="black"/>
<path d="M41.6054 31.0639L41.6279 31.0667C41.6898 30.5668 42.1347 30.4367 42.1391 30.4355L42.1329 30.4136C42.1285 30.4148 41.6689 30.5487 41.6054 31.0639V31.0639Z" fill="black"/>
<path d="M41.0218 31.9832C41.0218 31.9832 40.9123 31.2498 41.3509 31.0192C41.3509 31.0192 41.4319 31.0018 41.4779 31.1057C41.4779 31.1057 41.7089 31.0077 41.7148 31.2036C41.7148 31.2036 41.8301 31.1114 41.859 31.2383C41.859 31.2383 42.1072 31.1865 42.061 31.3711C42.061 31.3711 42.2688 31.3134 42.2514 31.4922C42.2514 31.4922 42.4593 31.4172 42.4245 31.5731C42.4245 31.5731 42.6438 31.5213 42.592 31.7002C42.592 31.7002 42.8634 31.6714 42.7826 31.8618C42.7826 31.8618 42.9846 31.8099 42.9383 31.9658C42.9383 31.9658 43.2039 32.012 43.0826 32.1794C42.9614 32.3466 42.6554 32.6006 42.3555 32.7103" fill="#00AD50"/>
<path d="M41.0218 31.9832C41.0218 31.9832 40.9123 31.2498 41.3509 31.0192C41.3509 31.0192 41.4319 31.0018 41.4779 31.1057C41.4779 31.1057 41.7089 31.0077 41.7148 31.2036C41.7148 31.2036 41.8301 31.1114 41.859 31.2383C41.859 31.2383 42.1072 31.1865 42.061 31.3711C42.061 31.3711 42.2688 31.3134 42.2514 31.4922C42.2514 31.4922 42.4593 31.4172 42.4245 31.5731C42.4245 31.5731 42.6438 31.5213 42.592 31.7002C42.592 31.7002 42.8634 31.6714 42.7826 31.8618C42.7826 31.8618 42.9846 31.8099 42.9383 31.9658C42.9383 31.9658 43.2039 32.012 43.0826 32.1794C42.9614 32.3466 42.6554 32.6006 42.3555 32.7103" stroke="black" stroke-width="0.0237624" stroke-miterlimit="4.8"/>
<path d="M40.7851 32.7218C40.7851 32.7218 40.6061 32.1102 40.947 31.954C40.947 31.954 41.0101 31.9366 41.0217 32.0003C41.0217 32.0003 41.0969 31.902 41.1547 31.9888C41.1547 31.9888 41.3277 31.9079 41.3683 32.0349C41.3683 32.0349 41.4836 31.9366 41.5415 32.0808C41.5415 32.0808 41.6512 32.0349 41.6512 32.1502C41.6512 32.1502 41.8012 32.0867 41.8012 32.2253C41.8012 32.2253 41.9453 32.1676 41.9165 32.3233C41.9165 32.3233 42.136 32.3579 42.0725 32.4618C42.0725 32.4618 42.269 32.5136 42.1936 32.5947C42.1936 32.5947 42.4071 32.5716 42.2917 32.7158C42.2917 32.7158 42.4534 32.664 42.3611 32.8431C42.2686 33.0219 41.9802 33.2181 41.7781 33.2412" fill="#00AD50"/>
<path d="M40.7851 32.7218C40.7851 32.7218 40.6061 32.1102 40.947 31.954C40.947 31.954 41.0101 31.9366 41.0217 32.0003C41.0217 32.0003 41.0969 31.902 41.1547 31.9888C41.1547 31.9888 41.3277 31.9079 41.3683 32.0349C41.3683 32.0349 41.4836 31.9366 41.5415 32.0808C41.5415 32.0808 41.6512 32.0349 41.6512 32.1502C41.6512 32.1502 41.8012 32.0867 41.8012 32.2253C41.8012 32.2253 41.9453 32.1676 41.9165 32.3233C41.9165 32.3233 42.136 32.3579 42.0725 32.4618C42.0725 32.4618 42.269 32.5136 42.1936 32.5947C42.1936 32.5947 42.4071 32.5716 42.2917 32.7158C42.2917 32.7158 42.4534 32.664 42.3611 32.8431C42.2686 33.0219 41.9802 33.2181 41.7781 33.2412" stroke="black" stroke-width="0.0237624" stroke-miterlimit="4.8"/>
<path d="M40.9985 33.2064C40.9985 33.2064 40.6176 32.837 40.7968 32.7274C40.7968 32.7274 40.8773 32.7503 40.9062 32.8312C40.9062 32.8312 40.9985 32.6985 41.0507 32.8369C41.0507 32.8369 41.1893 32.7908 41.1893 32.8834L41.2987 32.9642C41.2987 32.9642 41.4259 32.9526 41.4029 33.0334C41.4029 33.0334 41.5414 33.016 41.5355 33.0911C41.5355 33.0911 41.6569 33.0968 41.6454 33.1775C41.6454 33.1775 41.8529 33.2121 41.7607 33.3162C41.7607 33.3162 41.397 33.3911 41.1431 33.2873C41.1431 33.2873 41.01 33.241 40.9985 33.2064H40.9985Z" fill="#00AD50" stroke="black" stroke-width="0.0237624" stroke-miterlimit="4.8"/>
<path d="M42.3049 32.596L42.3131 32.6172C42.5388 32.5303 42.9308 31.9952 42.9475 31.9724L42.9291 31.9588C42.925 31.9646 42.5244 32.5115 42.3049 32.596L42.3049 32.596Z" fill="black"/>
<path d="M42.1767 32.4985L42.1878 32.5183C42.3842 32.4087 42.7753 31.8908 42.7917 31.8687L42.7736 31.855C42.7697 31.8605 42.369 32.3913 42.1767 32.4985L42.1767 32.4985Z" fill="black"/>
<path d="M42.0654 32.453L42.08 32.4704C42.2874 32.2982 42.5895 31.7295 42.6024 31.7054L42.5823 31.6947C42.5792 31.7006 42.2694 32.2836 42.0654 32.453L42.0654 32.453Z" fill="black"/>
<path d="M41.9634 32.3218L41.986 32.3249C42.0253 32.0375 42.4292 31.585 42.4331 31.5805L42.4162 31.5653C42.3995 31.5841 42.0037 32.0275 41.9634 32.3218V32.3218Z" fill="black"/>
<path d="M41.155 31.9723L41.1777 31.9702C41.1438 31.5642 41.4837 31.1169 41.4872 31.1125L41.4691 31.0988C41.4655 31.1032 41.1204 31.5572 41.155 31.9723V31.9723Z" fill="black"/>
<path d="M41.3688 32.0079L41.3914 32.004C41.3351 31.6784 41.7196 31.2154 41.7236 31.2109L41.7062 31.1961C41.69 31.2154 41.3109 31.6716 41.3688 32.0079V32.0079Z" fill="black"/>
<path d="M41.6975 32.1277L41.7203 32.1271C41.7091 31.7554 42.0657 31.3829 42.0694 31.3791L42.053 31.3632C42.0494 31.367 41.686 31.7465 41.6975 32.1277V32.1277Z" fill="black"/>
<path d="M40.9134 32.801L40.9347 32.793C40.8052 32.4496 41.03 32.0099 41.0323 32.0056L41.0118 31.9951C41.0095 31.9996 40.7802 32.448 40.9134 32.801V32.801Z" fill="black"/>
<path d="M41.0629 32.8233L41.0846 32.8163C40.9716 32.4665 41.163 31.9977 41.1651 31.9931L41.1439 31.9844C41.1421 31.9889 40.9476 32.4656 41.0629 32.8233V32.8233Z" fill="black"/>
<path d="M41.6817 33.1727L41.6895 33.1943C42.0578 33.0618 42.2986 32.7259 42.301 32.7227L42.2824 32.7094C42.2802 32.7127 42.0436 33.0429 41.6817 33.1727H41.6817Z" fill="black"/>
<path d="M41.6059 33.0926L41.6152 33.1134C41.9089 32.9809 42.1828 32.6111 42.1854 32.6073L42.1672 32.594C42.1644 32.5977 41.8942 32.9625 41.6059 33.0925L41.6059 33.0926Z" fill="black"/>
<path d="M41.5347 33.0648L41.548 33.0833C41.7778 32.9169 42.0729 32.4902 42.0761 32.4858L42.0573 32.4731C42.0543 32.4774 41.7614 32.9007 41.5347 33.0648L41.5347 33.0648Z" fill="black"/>
<path d="M41.1663 32.8505L41.1889 32.8472C41.1381 32.4802 41.3757 32.0448 41.3782 32.0405L41.3583 32.0295C41.3557 32.034 41.1145 32.4759 41.1663 32.8505V32.8505Z" fill="black"/>
<path d="M41.3262 32.95L41.3416 32.9669C41.5786 32.7529 41.6593 32.1762 41.6626 32.1518L41.64 32.1486C41.6393 32.1545 41.5572 32.7417 41.3262 32.95V32.95Z" fill="black"/>
<path d="M41.4886 33.0183L41.502 33.0367C41.8365 32.7948 41.9272 32.3301 41.928 32.3256L41.9057 32.3213C41.9048 32.3258 41.8159 32.7815 41.4886 33.0184V33.0183Z" fill="black"/>
<path d="M41.5272 32.0168C41.5272 32.0385 41.5283 32.0601 41.5303 32.0821C41.53 32.0802 41.2766 32.903 41.2766 32.903L41.2983 32.9097L41.5527 32.0843C41.5134 31.6852 41.8644 31.2497 41.8678 31.2454L41.8503 31.2311C41.8468 31.2351 41.5272 31.6318 41.5272 32.0168V32.0168Z" fill="black"/>
<path d="M41.7926 32.2178C41.7892 32.2293 41.712 32.7929 41.408 33.0009L41.4209 33.0196C41.7335 32.8058 41.8094 32.2501 41.8125 32.2267C41.9474 32.0661 42.2583 31.5032 42.2614 31.4976L42.2415 31.4866C42.2383 31.4922 41.9287 32.0534 41.7926 32.2178V32.2178Z" fill="black"/>
<path d="M40.895 32.8337C40.8973 32.8455 40.9481 33.1255 41.0062 33.2243L41.0258 33.2128C40.9696 33.1175 40.9181 32.8327 40.9176 32.8297L40.895 32.8337V32.8337Z" fill="black"/>
<path d="M41.0391 32.8371C41.0416 32.9765 41.0423 33.2053 41.0345 33.2256L41.0556 33.2339C41.0673 33.2046 41.0629 32.8981 41.062 32.8369L41.0391 32.8371V32.8371Z" fill="black"/>
<path d="M41.052 33.2367L41.0727 33.2459C41.1703 33.0335 41.2003 32.887 41.2007 32.8857L41.1784 32.8812C41.178 32.8824 41.1485 33.0268 41.052 33.2367V33.2367Z" fill="black"/>
<path d="M41.0737 33.2431L41.0853 33.2627C41.2663 33.1575 41.3083 32.9745 41.3098 32.9668L41.2876 32.9619C41.2871 32.9637 41.246 33.1431 41.0737 33.2431Z" fill="black"/>
<path d="M41.1074 33.2589L41.1097 33.2814C41.2871 33.2637 41.408 33.0482 41.4131 33.0391L41.3931 33.0281C41.392 33.0303 41.2729 33.2424 41.1074 33.2589Z" fill="black"/>
<path d="M41.1252 33.2703L41.1266 33.293C41.4115 33.2755 41.5397 33.1052 41.5448 33.098L41.5264 33.0845C41.5252 33.0861 41.3989 33.2536 41.1252 33.2703Z" fill="black"/>
<path d="M41.1455 33.2762L41.1409 33.2984C41.1562 33.3019 41.5192 33.3789 41.6434 33.1897L41.6244 33.1772C41.5088 33.3534 41.1491 33.2769 41.1455 33.2762V33.2762Z" fill="black"/>
<path d="M33 20V30.153C33 33.4738 39 35.4455 39 35.4455C39 35.4455 45 33.4736 45 30.153V20H33Z" stroke="black" stroke-width="0.207921" stroke-miterlimit="4.8"/>
<mask id="mask1_1_32894" style="mask-type:alpha" maskUnits="userSpaceOnUse" x="3" y="9" width="24" height="18">
<rect x="3" y="9" width="24" height="18" fill="#C4C4C4"/>
</mask>
<g mask="url(#mask1_1_32894)">
<rect x="3" y="9" width="24" height="18" fill="#2E50A6"/>
<path d="M3 9L27 27L3 9ZM27 9L3 27Z" fill="black"/>
<path d="M27 9L3 27M3 9L27 27L3 9Z" stroke="white" stroke-width="2.4"/>
<path d="M3 9L27 27L3 9ZM27 9L3 27Z" fill="black"/>
<path d="M27 9L3 27M3 9L27 27L3 9Z" stroke="#EE5757" stroke-width="1.6"/>
<path d="M15 9V30V9ZM3 18H31Z" fill="black"/>
<path d="M3 18H31M15 9V30V9Z" stroke="white" stroke-width="4"/>
<path d="M15 9V30V9ZM3 18H31Z" fill="black"/>
<path d="M3 18H31M15 9V30V9Z" stroke="#EE5757" stroke-width="2.4"/>
</g>
</g>
</svg>
