<svg width="54" height="48" viewBox="0 0 54 48" fill="none" xmlns="http://www.w3.org/2000/svg">
<mask id="mask0_1_32894" style="mask-type:alpha" maskUnits="userSpaceOnUse" x="3" y="6" width="48" height="36">
<path d="M3.56934 15.1356C4.16681 10.4125 8.0415 7.00193 12.7861 6.60887C16.6412 6.28949 21.6196 6 27 6C32.3804 6 37.3588 6.28949 41.2139 6.60887C45.9585 7.00193 49.8332 10.4125 50.4307 15.1356C50.752 17.6759 51 20.704 51 24C51 27.296 50.752 30.3241 50.4307 32.8644C49.8332 37.5875 45.9585 40.9981 41.2139 41.3911C37.3588 41.7105 32.3804 42 27 42C21.6196 42 16.6412 41.7105 12.7861 41.3911C8.0415 40.9981 4.16681 37.5875 3.56934 32.8644C3.248 30.3241 3 27.296 3 24C3 20.704 3.248 17.6759 3.56934 15.1356Z" fill="#00D0BF"/>
</mask>
<g mask="url(#mask0_1_32894)">
<rect x="3" y="6" width="48" height="36" fill="#75AAFA"/>
<path d="M33 17V27.153C33 30.4738 39 32.4455 39 32.4455C39 32.4455 45 30.4736 45 27.153V17H33Z" fill="white"/>
<path d="M38.1683 20.5674V25.1388H33V26.8022H38.1683V32.1289L39 32.4456L39.8317 32.1289V26.8022H45V25.1388H39.8317V20.5674H38.1683Z" fill="#C8102E"/>
<path d="M33 17H45V20.9208H33V17Z" fill="#C8102E"/>
<path d="M33.9619 19.9324C34.3343 19.9324 34.6363 19.6894 34.6363 19.3897C34.6363 19.09 34.3343 18.847 33.9619 18.847C33.5894 18.847 33.2875 19.09 33.2875 19.3897C33.2875 19.6894 33.5894 19.9324 33.9619 19.9324Z" fill="white" stroke="black" stroke-width="0.0397525" stroke-miterlimit="3"/>
<path d="M33.9619 19.4113C34.2931 19.4113 34.5616 19.2756 34.5616 19.1082C34.5616 18.9408 34.2931 18.8051 33.9619 18.8051C33.6307 18.8051 33.3622 18.9408 33.3622 19.1082C33.3622 19.2756 33.6307 19.4113 33.9619 19.4113Z" fill="white" stroke="black" stroke-width="0.0398515" stroke-miterlimit="3"/>
<path d="M33.9619 20.0174C34.2931 20.0174 34.5616 19.8817 34.5616 19.7143C34.5616 19.5469 34.2931 19.4112 33.9619 19.4112C33.6307 19.4112 33.3622 19.5469 33.3622 19.7143C33.3622 19.8817 33.6307 20.0174 33.9619 20.0174Z" fill="white" stroke="black" stroke-width="0.0398515" stroke-miterlimit="3"/>
<path d="M33.9619 19.6929C34.2931 19.6929 34.5616 19.5572 34.5616 19.3898C34.5616 19.2224 34.2931 19.0867 33.9619 19.0867C33.6307 19.0867 33.3622 19.2224 33.3622 19.3898C33.3622 19.5572 33.6307 19.6929 33.9619 19.6929Z" fill="white" stroke="black" stroke-width="0.0398515" stroke-miterlimit="3"/>
<path d="M44.703 20.1431L44.6047 19.872C44.6047 19.872 44.3357 19.7623 44.3152 19.6194C44.2673 19.2385 44.1313 19.0958 43.9276 19.0413C43.7234 18.9869 43.5876 19.0754 43.5876 19.0754C43.5262 19.1639 43.22 19.1639 43.05 19.1705C42.88 19.1775 42.8771 19.0967 42.8771 19.0967C42.745 19.0976 42.6895 19.0006 42.6895 19.0006C42.6031 18.8279 42.5387 18.7634 42.496 18.7415C42.7166 18.7448 42.8828 18.643 43.1319 18.3816C43.4038 18.0959 43.598 18.2064 43.598 18.2064C43.466 18.4732 43.6419 18.4496 43.6419 18.4496C44.0023 18.2661 43.6894 17.8035 43.5806 17.8239C43.4718 17.8443 43.4408 17.771 43.4408 17.771C43.4441 17.8541 43.32 17.8871 43.32 17.8871C43.4131 17.3587 43.0978 17.2186 43.0978 17.2186C43.0501 17.2662 43.0227 17.3613 43.0227 17.3613C42.9344 17.6811 42.642 17.6335 42.3153 17.4769C41.9889 17.3206 41.1183 17.6403 40.8464 17.7491C40.5741 17.8579 40.0777 18.028 39.6288 17.7763C39.18 17.5245 39.0709 17.5721 38.8942 17.6198C38.7172 17.6673 38.4047 17.7424 38.2891 17.681C38.1733 17.6198 38.0414 17.616 38.0414 17.616C38.0729 17.5984 38.0237 17.5246 38.0237 17.5246C37.8878 17.341 38.0414 17.2285 38.0414 17.2285C38.0414 17.2285 37.7883 17.2998 37.889 17.7319L37.9352 17.7967C37.9352 17.7967 37.9692 17.9326 38.0442 17.9735L38.0414 18.0033C38.0414 18.0033 38.1055 17.9735 38.1256 18.0619C38.1463 18.1503 38.2415 18.0687 38.2823 17.994C38.2823 17.994 38.2141 18.3885 38.704 18.4836C38.704 18.4836 38.6492 18.4224 38.6697 18.3816C38.69 18.3408 38.6087 18.3065 38.6155 18.2455C38.6223 18.1845 38.4933 18.1572 38.5951 18.1094C38.6969 18.0618 38.7448 17.9665 38.9624 18.0958C39.1799 18.225 39.3502 18.198 39.3502 18.198C39.3502 18.198 39.2174 17.9256 39.2906 17.9258C39.3637 17.9259 39.6927 18.3332 39.8546 18.313C40.0166 18.2931 40.3295 18.1094 40.486 18.1774C40.486 18.1774 40.4994 18.0958 41.0979 17.9937C41.6965 17.8917 42.4348 17.5934 42.7117 17.8548C42.7117 17.8548 42.7441 18.0618 42.8596 18.1163C42.8596 18.1163 42.8389 18.5447 42.0979 18.3065L41.8291 18.2358C41.8291 18.2358 41.7878 18.1056 40.3784 18.4681C40.3784 18.4681 40.2955 18.4971 40.2411 18.538C40.1865 18.5786 40.1116 18.5175 39.8328 18.6194C39.5542 18.7217 38.5133 19.0618 37.8742 18.9392L37.8733 18.9409C37.7326 18.8989 37.6007 18.9206 37.5953 18.8984C37.5884 18.8712 37.6702 18.9053 37.6702 18.9053C37.6227 18.8508 37.6022 18.8464 37.6022 18.8464C37.0648 18.7874 37.1598 18.5447 37.1598 18.5447L37.1872 18.6196C37.2757 18.504 37.1529 18.2319 37.1529 18.2319L37.1478 18.2328C37.1464 18.2244 37.1449 18.2161 37.1428 18.2081L37.1872 18.1774C37.4457 17.9597 37.7451 17.9189 37.7451 17.9189C37.5681 17.7013 37.1939 17.817 37.1939 17.817C37.2008 17.5517 37.092 17.2456 37.092 17.2456C36.7245 17.2864 36.5139 17.5924 36.5139 17.5924C36.5003 17.3204 36.1533 17.1641 36.1533 17.1641C36.2824 17.3204 36.201 17.6945 36.201 17.6945L36.2146 17.7013C36.1931 17.7008 36.1805 17.7013 36.1805 17.7013L36.1728 17.7815L36.1601 17.7762C36.1601 17.7762 36.031 17.8237 35.8814 18.1638C35.8814 18.1638 35.8663 18.2442 35.8084 18.3166C35.8079 18.3073 35.8089 18.2988 35.8077 18.289C35.8077 18.289 35.6406 18.5079 35.2545 18.289C35.2545 18.289 34.7298 17.9777 34.5454 17.9892C34.361 18.0007 34.2398 18.0872 34.2515 18.139C34.2515 18.139 33.8305 18.1044 33.6865 18.3464C33.6865 18.3464 33.3695 18.4617 33.6405 18.7211C33.6405 18.7211 33.6768 18.8339 33.7556 18.8943C33.7556 18.8943 33.7444 18.6575 33.8018 18.7271C33.8018 18.7271 33.8167 18.7504 33.8451 18.7668C33.8526 18.8 33.8781 18.8922 33.9344 18.9392L33.9749 18.9263C33.9811 18.8673 33.9939 18.7927 34.007 18.7613C34.0132 18.7621 34.0181 18.7628 34.0204 18.763C34.0186 18.7647 34.0169 18.7658 34.0152 18.7673L34.0901 18.8826L34.1765 18.8365C34.217 18.8306 34.2688 18.8711 34.2688 18.8711L34.3668 18.7904C34.3662 18.7895 34.3656 18.7893 34.365 18.7884C34.4615 18.8045 34.4879 18.6174 34.4879 18.6174C34.5746 18.6402 34.6557 18.6147 34.7248 18.5729C34.7668 18.728 35.1105 18.8944 35.1105 18.8944C35.1105 18.8944 35.1164 18.8939 35.1253 18.8932C35.0962 18.9118 35.0789 18.9257 35.0789 18.9257C35.2352 19.0347 35.5278 19.0075 35.5278 19.0075C35.4054 19.0552 35.4225 19.2816 35.4225 19.2816C35.3511 19.3109 35.3441 19.3815 35.3441 19.3815C35.5822 19.4765 35.7448 19.3978 35.7448 19.3978C35.7579 19.4753 35.7386 19.4836 35.7386 19.4836C35.6435 19.6876 35.6027 19.8848 35.6027 19.8848C35.6047 19.8857 35.6072 19.8862 35.6092 19.8869C35.6063 19.8922 35.6027 19.8974 35.6004 19.9029C35.6004 19.9029 35.1854 20.047 35.001 20.2488C35.001 20.2488 34.9836 20.191 34.9317 20.191C34.8798 20.191 34.7184 20.0586 34.6434 20.0354C34.5687 20.0125 34.4591 20.0586 34.4302 20.0241C34.4041 19.9926 34.4158 19.7565 34.3659 19.7184C34.3661 19.7184 34.3669 19.7186 34.3669 19.7186L34.3149 19.5745C34.2804 19.6494 34.1363 19.632 34.1363 19.632C34.1306 19.6355 34.1084 19.6516 34.0771 19.675C34.0483 19.6766 34.0152 19.6667 34.0152 19.6667C34.0004 19.6697 33.9858 19.7112 33.9751 19.7516C33.9693 19.7558 33.9634 19.7603 33.9576 19.7647V19.7243C33.9289 19.7473 33.8712 19.7128 33.8481 19.7128C33.8368 19.7128 33.8228 19.7458 33.8115 19.7797C33.7528 19.7906 33.6751 19.7935 33.6751 19.7935C33.6521 19.805 33.6693 19.9837 33.6693 19.9837C33.5022 20.076 33.5828 20.2143 33.5828 20.2143C33.6751 20.6639 34.4417 20.4621 34.4994 20.5199C34.5569 20.5776 34.6896 20.5889 34.7588 20.5889C34.8279 20.5889 34.9142 20.7562 35.0124 20.7735C35.1104 20.7908 35.0124 20.6409 35.4669 20.5323C35.9213 20.4237 36.0728 20.2374 36.0728 20.2374C36.2152 20.2099 36.2548 20.0369 36.2654 19.9671C36.2668 19.9993 36.2706 20.0349 36.2758 20.0755C36.2963 20.232 36.1881 20.2889 36.1881 20.2889L36.5819 20.1707C36.7382 20.1299 36.7179 19.9938 36.7179 19.9938C36.8675 20.4223 37.1396 20.4495 37.1396 20.4495C37.1941 20.2862 37.1874 20.2386 37.1874 20.2386L37.3097 20.2319C37.3147 20.1397 37.2333 20.0722 37.1861 20.0409L37.3777 20.1571L37.4524 20.1435C37.4524 20.2115 37.5544 20.2725 37.5544 20.2725L37.5682 20.1843C37.6567 20.2999 37.8198 20.2591 37.8198 20.2591C37.8166 20.2385 37.8116 20.2172 37.8054 20.1956C38.1539 20.4107 38.7107 20.1367 38.7107 20.1367C38.8602 20.1707 38.8807 20.0822 38.8807 20.0822C39.0507 20.1025 39.0901 19.9863 39.0901 19.9863C39.4903 19.9517 39.7719 19.6672 39.7719 19.6672C39.969 19.6536 39.9754 19.5127 39.9754 19.5127C39.9754 19.5127 40.173 19.5517 40.3635 19.3136C40.8055 18.6811 41.4665 19.0104 41.4665 19.0104L41.0843 19.0346C40.0846 19.0279 40.4991 19.7078 40.4991 19.7078L40.5607 19.7012C40.6559 19.7216 40.9822 19.9801 40.8619 20.1726C40.86 20.176 40.8574 20.1791 40.8552 20.1822C40.6514 20.4612 40.2739 20.1951 40.1663 19.9596C40.0574 19.7217 39.8397 19.7761 39.8397 19.7761C39.8397 19.7761 39.2752 19.8714 39.5064 20.3202L39.5149 20.3205C39.5192 20.43 39.5879 20.5548 39.7892 20.6789C39.9023 20.8389 40.2741 20.8556 40.5471 20.7964C40.6742 20.7686 41.3448 20.4804 41.3448 20.4804C41.394 20.3343 41.5606 20.368 41.7102 20.1571C41.8598 19.9463 41.4993 19.8714 41.4177 19.7559C41.336 19.6401 41.4382 19.6606 41.4382 19.6606C41.7645 19.8375 41.7917 19.2729 41.7917 19.2729C41.8258 19.5992 42.1114 19.6877 42.1114 19.6877C42.2884 19.5111 42.1593 19.1505 42.1593 19.1505C42.581 19.9054 42.8364 19.7852 42.8364 19.7852C42.6094 19.6447 42.7237 19.4565 42.7237 19.4565C42.9275 20.2591 43.7643 19.5586 43.7643 19.5586C43.7235 19.6741 43.7645 19.742 43.8393 19.8169C43.914 19.8917 44.0024 19.9258 43.9618 20.0618C43.9209 20.1978 43.5334 20.1707 43.5334 20.1707C43.5334 20.1707 43.1523 20.1504 43.1866 20.4701C43.2065 20.5447 43.4583 20.5719 43.5536 20.5516C43.5536 20.5516 43.5143 20.5602 43.6551 20.579C43.7023 20.5851 43.7592 20.5861 43.8172 20.5842C43.9795 20.5792 44.1524 20.5516 44.1524 20.5516C44.3698 20.5042 44.3359 20.4291 44.3359 20.4291C44.6689 20.3677 44.7031 20.1431 44.7031 20.1431L44.703 20.1431Z" fill="#FEDD00" stroke="black" stroke-width="0.0594059" stroke-miterlimit="3"/>
<path d="M33.6512 18.7503C33.6515 18.7499 33.6691 18.7083 33.7027 18.7033C33.7286 18.6994 33.76 18.7186 33.7932 18.759L33.8114 18.7453C33.8106 18.7439 33.7216 18.6143 33.7571 18.5228C33.7729 18.4819 33.8122 18.454 33.8738 18.4401L33.8688 18.4177C33.7993 18.4336 33.7546 18.4663 33.7358 18.5146C33.7288 18.5327 33.7258 18.5518 33.7258 18.5709C33.7258 18.6156 33.7416 18.6609 33.7577 18.6957C33.7376 18.6831 33.718 18.6779 33.6992 18.6807C33.665 18.6859 33.6484 18.7105 33.6393 18.7265L33.6512 18.7503Z" fill="black"/>
<path d="M44.1485 20.5317C43.9213 20.5678 43.5877 20.5877 43.5612 20.519C43.5566 20.5067 43.5557 20.4577 43.7418 20.3365L43.7201 20.3032C43.5649 20.4043 43.5024 20.4774 43.5241 20.5332C43.5717 20.657 44.0587 20.5863 44.1559 20.5708L44.1485 20.5317Z" fill="black"/>
<path d="M39.802 20.6629C39.7502 20.5837 39.7735 20.4751 39.8712 20.34L39.839 20.3167C39.7304 20.4661 39.7068 20.5902 39.7686 20.6848L39.802 20.6629Z" fill="black"/>
<path d="M39.4951 20.3208C39.5001 20.4579 39.5968 20.5851 39.7822 20.6986L39.803 20.6647C39.6295 20.5586 39.5395 20.4424 39.5348 20.3195C39.528 20.1307 39.7274 19.9852 39.7293 19.9836L39.7061 19.9513C39.6971 19.9576 39.4874 20.1105 39.4951 20.3208Z" fill="black"/>
<path d="M43.3708 20.3718C43.3085 20.4639 43.3293 20.5753 43.3302 20.58L43.3692 20.5723C43.3689 20.5713 43.3508 20.4721 43.404 20.3939C43.436 20.3469 43.4875 20.3165 43.5573 20.3032L43.5502 20.2641C43.4692 20.2795 43.4091 20.3156 43.3708 20.3718Z" fill="black"/>
<path d="M34.4911 18.6312L34.4788 18.6282L34.4772 18.6408C34.4768 18.6421 34.4595 18.7628 34.4047 18.7956C34.3894 18.8048 34.3728 18.8058 34.3538 18.7988L34.2608 18.7423C34.2423 18.7259 34.2263 18.7139 34.1996 18.7218C34.1942 18.7149 34.1729 18.686 34.1729 18.6395C34.1729 18.6343 34.1732 18.6288 34.174 18.6232C34.1806 18.5687 34.2186 18.5162 34.2874 18.4672L34.2743 18.4486C34.1998 18.5019 34.1586 18.5597 34.1513 18.6209C34.143 18.6918 34.184 18.74 34.1858 18.7421L34.1914 18.7485L34.1989 18.745C34.2196 18.7359 34.2256 18.7413 34.2457 18.7591L34.3461 18.8201C34.3715 18.8295 34.3951 18.8278 34.4164 18.815C34.4731 18.7811 34.493 18.6823 34.4976 18.6549C34.739 18.7068 34.9333 18.4133 34.9418 18.4007L34.9225 18.3882C34.9207 18.3913 34.7224 18.6919 34.4911 18.6312Z" fill="black"/>
<path d="M33.9124 18.5862C33.9003 18.6351 33.9086 18.6831 33.9365 18.7289C33.9632 18.7723 33.9894 18.7954 34.0168 18.799C34.0502 18.8037 34.0769 18.7789 34.1004 18.7572C34.1175 18.7412 34.1338 18.7263 34.1471 18.7273L34.1679 18.7416L34.1858 18.7274L34.1487 18.7046C34.1254 18.7029 34.1058 18.721 34.0849 18.7405C34.064 18.7596 34.0426 18.7798 34.0198 18.7766C34.0001 18.7739 33.9787 18.7538 33.956 18.7169C33.9314 18.6766 33.924 18.6343 33.9344 18.5916C33.9604 18.4839 34.0892 18.4048 34.0906 18.404L34.0789 18.3846C34.0731 18.3879 33.9407 18.4692 33.9124 18.5862Z" fill="black"/>
<path d="M33.5802 20.1238C33.5917 20.0821 33.6237 20.0467 33.6752 20.0181C33.665 20.019 33.7256 20.0684 33.7776 20.0628C33.7776 20.0628 33.7987 20.0515 33.8114 20.0446C33.8251 20.0565 33.9151 20.1384 33.9151 20.2422C33.9151 20.264 33.9112 20.2864 33.9014 20.3092L33.9224 20.318C33.9883 20.1621 33.8227 20.0238 33.8212 20.0223L33.8151 20.0176L33.8049 20.0242L33.7754 20.0402C33.7328 20.0447 33.6774 19.9997 33.677 19.9993C33.6071 20.0297 33.5714 20.0701 33.5582 20.118L33.5802 20.1238Z" fill="black"/>
<path d="M34.349 19.7258C34.2993 19.73 34.1608 19.7564 34.1156 19.8283C34.0993 19.8544 34.0969 19.8831 34.1087 19.9141L34.1269 19.9625C34.17 20.0785 34.2148 20.1984 34.2637 20.2254L34.2747 20.2056C34.2333 20.1826 34.1881 20.0614 34.1482 19.9546L34.1301 19.9062C34.1209 19.8817 34.1224 19.8602 34.1348 19.8404C34.172 19.7815 34.2965 19.7531 34.3509 19.7485C34.3827 19.746 34.393 19.8631 34.3993 19.9331L34.4219 19.931C34.4128 19.8278 34.4033 19.7213 34.349 19.7258Z" fill="black"/>
<path d="M33.9693 19.8396C33.9402 19.8657 33.9461 19.9049 33.9465 19.9066C33.9467 19.9173 33.9596 20.2069 34.0972 20.2668L34.1062 20.246C33.9817 20.1917 33.9692 19.9071 33.969 19.9043C33.969 19.9026 33.9649 19.8739 33.9847 19.8565C34.0056 19.838 34.047 19.8366 34.1045 19.8524L34.1106 19.8305C34.0442 19.8122 33.9967 19.8152 33.9693 19.8396Z" fill="black"/>
<path d="M33.8604 19.8634C33.7996 19.9058 33.8021 20.0267 33.8022 20.0317L33.8249 20.0313C33.8249 20.0301 33.8226 19.9173 33.8734 19.8821C33.8924 19.869 33.9173 19.8685 33.9478 19.8807L33.9562 19.8597C33.9183 19.8442 33.886 19.8455 33.8604 19.8634V19.8634Z" fill="black"/>
<path d="M37.1352 18.2649C37.1362 18.2668 37.2 18.4107 37.2 18.5275C37.2 18.5483 37.1902 18.563 37.1856 18.5811C37.1831 18.5743 37.1608 18.5134 37.1608 18.5134L37.1416 18.5623C37.1407 18.565 37.1156 18.6308 37.1605 18.705C37.2199 18.8029 37.3677 18.8656 37.6003 18.891H37.6002C37.6002 18.8912 37.6031 18.8938 37.6034 18.8942C37.5938 18.8956 37.5866 18.8982 37.5844 18.9003L37.575 18.9082L37.5763 18.928C37.5823 18.9522 37.6098 18.9534 37.6646 18.9554C37.6738 18.956 37.6889 18.9582 37.6995 18.9587C37.7131 18.9625 37.7271 18.9663 37.7271 18.9663C37.7271 18.9663 37.7233 18.9619 37.7224 18.961C37.7754 18.9646 37.835 18.9777 37.8997 19.0018C37.8854 19.0056 37.8504 19.0143 37.8504 19.0143L37.9079 19.037C37.9123 19.0387 38.3361 19.209 38.5115 19.349C38.4617 19.3922 38.2491 19.551 37.881 19.4603L37.8193 19.4451L37.8611 19.4929C37.8637 19.4957 38.1035 19.7708 38.1532 19.9376C38.0697 19.9384 37.748 19.9355 37.6356 19.84L37.6065 19.8665C37.608 19.8689 37.7607 20.093 37.7948 20.2677C37.7511 20.2735 37.6463 20.2777 37.5843 20.1968L37.5558 20.1596C37.5558 20.1596 37.5442 20.2347 37.5402 20.2605C37.5103 20.2379 37.4726 20.2041 37.4726 20.168V20.1443C37.4726 20.1443 37.3938 20.1586 37.3819 20.1607C37.3714 20.1544 37.2408 20.0752 37.1955 20.0477C37.1794 20.0373 37.169 20.0314 37.1655 20.0297C37.1653 20.0295 37.1638 20.0285 37.1638 20.0285L37.1624 20.0278L37.1431 20.0627C37.1431 20.0627 37.1653 20.0759 37.1717 20.0799C37.2116 20.1059 37.2799 20.1626 37.2868 20.2378C37.2574 20.2395 37.1656 20.2445 37.1656 20.2445L37.1679 20.2656V20.2689C37.1679 20.2814 37.164 20.3335 37.1259 20.451C37.0686 20.4374 36.8601 20.3647 36.7369 20.0117L36.6985 20.0212C36.6987 20.0222 36.6992 20.0269 36.6992 20.0344C36.6992 20.0665 36.6878 20.1472 36.5772 20.1759C36.5765 20.1761 36.3717 20.2377 36.2577 20.2718C36.2791 20.2413 36.2985 20.1995 36.2985 20.1389C36.2985 20.126 36.2977 20.1122 36.296 20.0975C36.2891 20.0462 36.2849 20.0035 36.2849 19.9678C36.2849 19.8935 36.3032 19.8493 36.3545 19.8178L36.3366 19.7823C36.3318 19.7842 35.8605 19.9714 35.6268 19.8937C35.6375 19.8481 35.677 19.6877 35.7569 19.5167L35.7465 19.5265C35.7619 19.52 35.7775 19.496 35.7646 19.4193L35.7603 19.3931L35.7364 19.4047C35.7348 19.4054 35.5853 19.4721 35.3692 19.393C35.3736 19.3753 35.3851 19.3434 35.4303 19.3246L35.4436 19.3193L35.4423 19.3049C35.4423 19.3043 35.4418 19.2943 35.4418 19.2785C35.4418 19.2202 35.4509 19.0835 35.5349 19.0507L35.526 19.0123C35.5232 19.0126 35.2705 19.0328 35.1172 18.9476C35.1574 18.9198 35.2419 18.8688 35.3402 18.8546L35.3559 18.8524L35.3571 18.8366C35.3573 18.8358 35.3576 18.8312 35.3576 18.8238C35.3576 18.8038 35.3499 18.7634 35.3323 18.7227C35.3906 18.739 35.4606 18.7537 35.4853 18.7351L35.4938 18.7287L35.4865 18.5754L35.4468 18.5773C35.4468 18.5773 35.4516 18.679 35.4528 18.7041C35.4279 18.7055 35.3643 18.6927 35.3026 18.6731L35.2415 18.6537L35.2809 18.7044C35.3128 18.7454 35.3169 18.7964 35.3173 18.8198C35.1792 18.8455 35.071 18.9313 35.0664 18.9351L35.0461 18.9518L35.0676 18.9668C35.1864 19.0496 35.3722 19.0568 35.4676 19.0547C35.4114 19.118 35.4019 19.2241 35.4019 19.2771C35.4019 19.2879 35.4022 19.2908 35.4024 19.2962C35.3349 19.3326 35.3248 19.401 35.3243 19.4042L35.3229 19.4191L35.3368 19.4248C35.541 19.5062 35.6804 19.4669 35.7278 19.4494C35.7281 19.4557 35.7295 19.4644 35.7295 19.4689C35.7295 19.4876 35.726 19.4933 35.726 19.4933C35.6257 19.7036 35.5837 19.9035 35.5832 19.9054L35.5799 19.9219L35.5954 19.9281C35.7849 20.0038 36.1254 19.9004 36.2762 19.8472C36.2564 19.8813 36.2448 19.9196 36.2448 19.9674C36.2448 20.0075 36.2497 20.0525 36.2564 20.1026C36.2581 20.1153 36.2588 20.1271 36.2588 20.1384C36.2588 20.2513 36.1825 20.294 36.1789 20.2959L36.1941 20.3326L36.5879 20.2143C36.6789 20.1907 36.7131 20.1368 36.7276 20.0911C36.883 20.4596 37.127 20.4928 37.1378 20.494L37.1536 20.4954L37.1586 20.4804C37.1965 20.3672 37.2053 20.3097 37.207 20.282C37.2333 20.2808 37.3289 20.2754 37.3289 20.2754L37.3299 20.2576C37.3301 20.2545 37.3301 20.2515 37.3301 20.2486C37.3301 20.216 37.3199 20.1872 37.3059 20.1613C37.3304 20.1761 37.374 20.2025 37.374 20.2025C37.374 20.2025 37.4191 20.1943 37.4392 20.1907C37.4563 20.2565 37.5345 20.3082 37.5445 20.3143L37.5699 20.3296C37.5699 20.3296 37.5792 20.2696 37.5831 20.2434C37.6803 20.3304 37.8184 20.3045 37.8249 20.3029L37.8423 20.2985L37.8398 20.2808C37.82 20.1477 37.7307 19.9894 37.6782 19.9047C37.851 19.9833 38.1658 19.9776 38.1813 19.9771L38.2047 19.9763L38.2001 19.9533C38.1722 19.8134 37.9975 19.5933 37.9243 19.5057C38.3304 19.582 38.5484 19.3714 38.5578 19.3618L38.5721 19.3467L38.5564 19.3329C38.4199 19.214 38.1053 19.076 37.9789 19.0232C37.9858 19.0214 38.0232 19.012 38.0232 19.012L37.9794 18.9875C37.8738 18.9281 37.7617 18.9207 37.686 18.9175L37.6856 18.9169C37.6376 18.8619 37.6132 18.8531 37.607 18.8517C37.3324 18.8214 37.2318 18.7445 37.1952 18.6851C37.1921 18.6802 37.1937 18.6769 37.1914 18.6721C37.1973 18.6642 37.2035 18.6564 37.2035 18.6564C37.23 18.6219 37.2394 18.5757 37.2394 18.5268C37.2394 18.4008 37.1754 18.2567 37.1718 18.2484L37.1352 18.2649H37.1352Z" fill="black"/>
<path d="M35.8713 18.1842C35.8705 18.1881 35.8412 18.3386 35.7131 18.4091C35.6167 18.4621 35.4893 18.4577 35.3349 18.3959L35.3175 18.389L35.3193 18.4076C35.3197 18.4115 35.3299 18.4999 35.4133 18.5646C35.4827 18.6187 35.582 18.6376 35.7064 18.624C35.6648 18.6735 35.531 18.8444 35.531 19.0103C35.531 19.019 35.5315 19.0278 35.5324 19.0364C35.5494 19.0487 35.7591 19.1055 35.8563 18.9812C35.8598 19.0345 35.8751 19.205 35.9417 19.2717C35.9782 19.308 35.9868 19.3611 35.9868 19.4034C35.9868 19.4416 35.9795 19.4711 35.9795 19.4717L35.972 19.502L35.9973 19.4836C36.0054 19.4777 36.1981 19.3365 36.2597 19.1516C36.2595 19.1521 36.2906 19.1052 36.3501 19.086C36.3489 19.0941 36.3478 19.1024 36.3478 19.1139C36.3478 19.1854 36.3791 19.3151 36.5872 19.3946L36.6043 19.4012L36.6028 19.383C36.6026 19.3826 36.6014 19.3683 36.6014 19.3471C36.6014 19.2948 36.6086 19.1989 36.6584 19.1492C36.6911 19.1165 36.7009 19.0797 36.7009 19.0478C36.7009 19.0226 36.6954 19.0023 36.6897 18.9874C36.7317 18.998 36.831 19.03 36.8715 19.1057C36.9302 19.2157 37.1357 19.1281 37.1445 19.1245L37.1375 19.1028C37.1366 19.103 37.051 19.1222 36.997 19.0851C36.9733 19.0688 36.959 19.0437 36.954 19.0103L36.9445 18.896C36.9424 18.8442 36.9352 18.8113 36.9092 18.7836C36.9364 18.7811 36.991 18.782 37.0141 18.8331C37.0504 18.9132 37.175 18.9209 37.1802 18.9214L37.2228 18.9236L37.187 18.9004C37.1858 18.8997 37.0782 18.8283 37.0968 18.7353L37.1123 18.6672C37.1418 18.5444 37.1908 18.3388 37.1509 18.2126L37.1292 18.2196C37.1391 18.2511 37.1432 18.2884 37.1432 18.3283C37.1432 18.4402 37.1115 18.5731 37.0901 18.6619L37.0744 18.7309C37.0725 18.7399 37.0719 18.749 37.0719 18.7576C37.0719 18.8178 37.111 18.8638 37.1414 18.8915C37.1048 18.8836 37.054 18.8661 37.0349 18.8236C37.005 18.758 36.9246 18.755 36.8862 18.7627L36.8594 18.7681L36.8823 18.7834C36.9184 18.8075 36.9194 18.8355 36.922 18.8969L36.9316 19.0136C36.9373 19.0534 36.955 19.0838 36.9841 19.1039C37.0096 19.1213 37.0394 19.1237 37.0666 19.1256C37.0055 19.1416 36.9218 19.1515 36.8918 19.095C36.8351 18.9894 36.6793 18.9612 36.6728 18.96L36.649 18.9559L36.6609 18.9767C36.6622 18.979 36.6786 19.009 36.6786 19.0471C36.6786 19.0741 36.6704 19.1051 36.6423 19.133C36.5871 19.1887 36.5786 19.2898 36.5786 19.3457C36.5786 19.3566 36.5792 19.3582 36.5793 19.3648C36.4014 19.29 36.3699 19.1792 36.3699 19.1165C36.3699 19.0898 36.3751 19.0721 36.3758 19.0697L36.3809 19.0522L36.3629 19.0553C36.2764 19.0695 36.2405 19.1399 36.239 19.1429C36.1895 19.291 36.0553 19.4082 36.0067 19.4473C36.0083 19.4349 36.01 19.4205 36.01 19.403C36.01 19.3567 36 19.2977 35.958 19.2556C35.8873 19.1849 35.8776 18.9599 35.8776 18.9576L35.8761 18.917L35.8563 18.9523C35.778 19.0926 35.5494 19.0252 35.5472 19.0246C35.5375 18.8474 35.7386 18.6206 35.7407 18.6183L35.7617 18.595L35.7307 18.5995C35.5994 18.6186 35.4974 18.601 35.4276 18.547C35.3729 18.5046 35.3532 18.4506 35.3462 18.4234C35.4985 18.4801 35.6262 18.4832 35.7245 18.4289C35.8618 18.353 35.892 18.1975 35.8931 18.191C36.0374 17.8639 36.1634 17.8123 36.1648 17.8119L36.1569 17.7906C36.1511 17.7926 36.0212 17.8437 35.8713 18.1842Z" fill="black"/>
<path d="M36.2005 17.6995L36.1909 17.6999L36.0739 17.8603L36.1086 17.8637C36.7437 17.9255 37.0795 18.3087 37.0828 18.3126L37.0975 18.3297L37.2126 18.2046L37.2042 18.1917C36.8821 17.6846 36.2074 17.6993 36.2005 17.6995L36.2005 17.6995ZM36.2114 17.7393C36.2899 17.7395 36.8684 17.7574 37.1613 18.2013C37.147 18.2168 37.1151 18.2517 37.098 18.2704C37.0293 18.1992 36.7038 17.8951 36.1457 17.8295C36.1673 17.7997 36.2033 17.7504 36.2114 17.7393Z" fill="black"/>
<path d="M36.1089 18.0347C36.0547 18.1087 36.0043 18.2182 36.0043 18.2695C36.0043 18.2793 36.0061 18.287 36.0103 18.2919C36.0107 18.2924 36.0126 18.2925 36.0132 18.2933C35.9471 18.3526 35.9077 18.4515 35.9077 18.5634C35.9077 18.6249 35.9186 18.689 35.9415 18.7502L35.9542 18.7846C36.0165 18.9541 36.0702 19.1006 36.3397 19.0144C36.5993 18.9314 36.6095 18.9148 36.6749 18.807L36.6919 18.779C36.7276 18.7211 36.7665 18.7095 36.808 18.6972C36.8574 18.6824 36.9086 18.6672 36.9536 18.5784L36.9973 18.5129C37.0444 18.4479 37.1033 18.3674 37.1104 18.2642L37.0876 18.2627C37.0811 18.3592 37.0243 18.4369 36.9789 18.4994L36.9332 18.568C36.8926 18.6481 36.8484 18.6613 36.8014 18.6753C36.7576 18.6883 36.7127 18.7018 36.6724 18.767L36.6552 18.7951C36.5924 18.8989 36.5843 18.9122 36.3328 18.9928C36.084 19.0723 36.0385 18.9482 35.9755 18.7768L35.9628 18.742C35.8919 18.553 35.9473 18.3624 36.0395 18.2941L36.0712 18.2705C36.0712 18.2705 36.0319 18.2749 36.0273 18.2755C36.0268 18.2736 36.0263 18.272 36.0263 18.269C36.0263 18.2381 36.06 18.1397 36.1272 18.048C36.1845 17.9699 36.3198 17.8925 36.3212 17.8917L36.3098 17.872C36.3041 17.8754 36.169 17.9527 36.1089 18.0347Z" fill="black"/>
<path d="M35.9882 18.7183C36.0327 18.7492 36.0954 18.7471 36.171 18.7183C36.1713 18.7453 36.1773 18.8025 36.2243 18.844C36.2795 18.8929 36.3711 18.9023 36.4966 18.8724L36.4912 18.8503C36.3736 18.8784 36.2888 18.8705 36.2394 18.8271C36.1863 18.7803 36.1938 18.7058 36.1939 18.7052L36.196 18.6857L36.178 18.6933C36.1019 18.7261 36.0423 18.7281 36.001 18.6995C35.927 18.6481 35.9325 18.5136 35.9327 18.5121L35.9099 18.511C35.9098 18.5171 35.9036 18.6596 35.9882 18.7183Z" fill="black"/>
<path d="M36.1322 18.5371C36.0997 18.5449 36.0912 18.5721 36.0912 18.5931C36.0912 18.5982 36.0918 18.6029 36.0924 18.6069C36.0981 18.6654 36.1616 18.7044 36.2193 18.7211C36.2754 18.7373 36.3444 18.7384 36.3716 18.7034C36.3825 18.6895 36.3904 18.6643 36.3667 18.6237C36.28 18.4764 36.1399 18.5341 36.1322 18.5371ZM36.2256 18.6991C36.1752 18.6847 36.1196 18.6519 36.1151 18.6034C36.1141 18.5988 36.1086 18.5661 36.1373 18.5593L36.1396 18.5586C36.1448 18.5563 36.2689 18.5023 36.347 18.6353C36.3609 18.6591 36.3632 18.6772 36.3536 18.6894C36.3368 18.7112 36.2816 18.7155 36.2256 18.6991ZM36.1299 18.538C36.1301 18.5378 36.1322 18.5371 36.1322 18.5371L36.1299 18.538Z" fill="black"/>
<path d="M36.2104 18.8337C36.1958 18.9582 36.2047 18.9611 36.2137 18.9639L36.2216 18.9664L36.2305 18.9559L36.3026 18.8609L36.2121 18.818L36.2104 18.8337ZM36.2312 18.8523C36.2441 18.8584 36.256 18.864 36.2677 18.8695C36.2579 18.8821 36.2397 18.9064 36.2259 18.9245C36.2262 18.9058 36.2285 18.8793 36.2312 18.8523Z" fill="black"/>
<path d="M36.0228 18.7337L36.018 18.8513L36.1168 18.7319L36.0234 18.7215L36.0228 18.7337ZM36.045 18.7469C36.0538 18.7479 36.06 18.7484 36.0724 18.7498C36.0627 18.7614 36.0563 18.7692 36.0434 18.7848C36.0444 18.7665 36.0447 18.7563 36.045 18.7469Z" fill="black"/>
<path d="M35.957 18.6961C35.9578 18.6976 36.0305 18.8397 36.0433 18.8915C36.0516 18.9244 36.0936 18.9619 36.1437 18.9804C36.1936 18.9992 36.2404 18.9962 36.2753 18.9718L36.3409 18.9173C36.3628 18.8963 36.37 18.8904 36.3877 18.8934L36.3915 18.871C36.3618 18.866 36.3473 18.8798 36.3252 18.9008L36.2624 18.9532C36.2236 18.9802 36.1763 18.9687 36.1515 18.9592C36.1047 18.9418 36.0708 18.9083 36.0653 18.8859C36.0517 18.8317 35.9801 18.6919 35.9772 18.6859L35.957 18.6961Z" fill="black"/>
<path d="M36.0515 18.2703C35.9713 18.3073 35.9374 18.4046 35.936 18.4087L35.9575 18.4162C35.9579 18.4153 35.9899 18.3237 36.0611 18.2909C36.0959 18.275 36.1348 18.2755 36.1772 18.2922L36.1856 18.2712C36.1374 18.2517 36.0923 18.2515 36.0515 18.2703Z" fill="black"/>
<path d="M36.5906 18.5258C36.597 18.5305 36.7485 18.6453 36.6614 18.7853L36.6807 18.7974C36.779 18.6395 36.6058 18.5087 36.6042 18.5074L36.5906 18.5258Z" fill="black"/>
<path d="M36.1352 18.5481C36.1352 18.5481 36.1116 18.6337 36.2321 18.6639C36.2321 18.6639 36.1188 18.663 36.1116 18.6337C36.104 18.6045 36.1122 18.5396 36.1352 18.5481Z" fill="black"/>
<path d="M36.5035 18.6505C36.5035 18.658 36.4974 18.6641 36.4901 18.6641C36.4828 18.6641 36.4766 18.658 36.4766 18.6505C36.4766 18.6432 36.4828 18.6371 36.4901 18.6371C36.4975 18.6371 36.5035 18.6432 36.5035 18.6505Z" fill="black"/>
<path d="M36.5168 18.704C36.5168 18.7114 36.5108 18.7176 36.5034 18.7176C36.4961 18.7176 36.4902 18.7114 36.4902 18.704C36.4902 18.6967 36.4961 18.6906 36.5034 18.6906C36.5108 18.6906 36.5168 18.6968 36.5168 18.704Z" fill="black"/>
<path d="M36.4263 18.6909C36.4337 18.6909 36.4396 18.6849 36.4396 18.6775C36.4396 18.6701 36.4337 18.6642 36.4263 18.6642C36.4189 18.6642 36.4129 18.6701 36.4129 18.6775C36.4129 18.6849 36.4189 18.6909 36.4263 18.6909Z" fill="black"/>
<path d="M36.4629 18.758C36.4629 18.7652 36.4568 18.7712 36.4495 18.7712C36.4422 18.7712 36.4362 18.7652 36.4362 18.758C36.4362 18.7505 36.4423 18.7444 36.4495 18.7444C36.4568 18.7444 36.4629 18.7504 36.4629 18.758Z" fill="black"/>
<path d="M36.1114 18.3956C36.1114 18.403 36.1054 18.4091 36.0978 18.4091C36.0905 18.4091 36.0844 18.403 36.0844 18.3956C36.0844 18.3884 36.0905 18.3822 36.0978 18.3822C36.1054 18.3822 36.1114 18.3884 36.1114 18.3956Z" fill="black"/>
<path d="M36.1114 18.4629C36.1188 18.4629 36.1248 18.4569 36.1248 18.4496C36.1248 18.4422 36.1188 18.4362 36.1114 18.4362C36.104 18.4362 36.098 18.4422 36.098 18.4496C36.098 18.4569 36.104 18.4629 36.1114 18.4629Z" fill="black"/>
<path d="M36.0342 18.4362C36.0416 18.4362 36.0475 18.4302 36.0475 18.4228C36.0475 18.4154 36.0416 18.4095 36.0342 18.4095C36.0268 18.4095 36.0208 18.4154 36.0208 18.4228C36.0208 18.4302 36.0268 18.4362 36.0342 18.4362Z" fill="black"/>
<path d="M36.0708 18.503C36.0708 18.5103 36.0646 18.5164 36.0572 18.5164C36.0499 18.5164 36.0439 18.5103 36.0439 18.503C36.0439 18.4955 36.05 18.4894 36.0572 18.4894C36.0646 18.4895 36.0708 18.4955 36.0708 18.503Z" fill="black"/>
<path d="M36.3055 18.0302C36.3055 18.0302 36.4797 18.1374 36.312 18.3385C36.312 18.3385 36.3945 18.2773 36.4029 18.1721C36.4117 18.067 36.3431 17.9832 36.3055 18.0302Z" fill="black"/>
<path d="M36.9738 18.3193C36.9177 18.3482 36.837 18.2948 36.7965 18.2444C36.7562 18.1939 36.6728 18.181 36.6208 18.2731C36.5689 18.3654 36.4941 18.4 36.4941 18.4C36.4941 18.4 36.5672 18.3568 36.6425 18.276C36.7173 18.1955 36.7606 18.2602 36.8341 18.2991C36.9075 18.338 36.9191 18.3466 36.9709 18.3264L36.9738 18.3193Z" fill="black"/>
<path d="M36.9594 18.3327C36.9365 18.3499 36.8945 18.3644 36.85 18.3282C36.8054 18.2922 36.7679 18.2434 36.7117 18.2721C36.6554 18.301 36.5487 18.3816 36.5487 18.3816C36.5487 18.3816 36.7217 18.2619 36.7549 18.288C36.7879 18.314 36.8659 18.3773 36.9134 18.3587C36.961 18.3398 36.9594 18.3327 36.9594 18.3327Z" fill="black"/>
<path d="M36.8268 18.406C36.772 18.3642 36.7173 18.4549 36.6712 18.4436C36.6251 18.4319 36.5875 18.3555 36.5875 18.3555C36.5875 18.3555 36.6309 18.4363 36.6913 18.4175C36.7519 18.3988 36.7937 18.3613 36.8311 18.39C36.8686 18.419 36.8268 18.406 36.8268 18.406Z" fill="black"/>
<path d="M36.7411 18.4173C36.6331 18.4285 36.6224 18.3276 36.6224 18.3266C36.6224 18.3266 36.6565 18.4147 36.752 18.3987L36.7411 18.4173Z" fill="black"/>
<path d="M36.7376 18.3486C36.7447 18.3759 36.7432 18.3883 36.7142 18.3883C36.6851 18.3883 36.6653 18.3786 36.6653 18.3504C36.6653 18.3221 36.7334 18.331 36.7376 18.3486Z" fill="black"/>
<path d="M36.3495 18.1985C36.3495 18.2173 36.334 18.2325 36.3149 18.2325C36.2957 18.2325 36.292 18.2196 36.292 18.201C36.292 18.1824 36.2957 18.1649 36.3149 18.1649C36.334 18.1649 36.3495 18.18 36.3495 18.1985Z" fill="black"/>
<path d="M36.2302 18.0778C36.2302 18.0778 36.4154 18.0797 36.3237 18.3114C36.3237 18.3114 36.3942 18.1961 36.35 18.1131C36.3055 18.0302 36.2359 18.0511 36.2359 18.0511C36.2359 18.0511 36.2189 18.0668 36.2302 18.0778Z" fill="black"/>
<path d="M36.2248 18.1703C36.2243 18.2168 36.2553 18.2647 36.3167 18.3127L36.3308 18.2949C36.2752 18.2516 36.2472 18.2097 36.2476 18.1708C36.2479 18.1319 36.2778 18.1088 36.2782 18.1085L36.2646 18.0901C36.263 18.0915 36.2255 18.12 36.2248 18.1703Z" fill="black"/>
<path d="M36.2658 18.2095C36.2737 18.2361 36.2944 18.2563 36.3274 18.2695L36.3359 18.2484C36.3097 18.238 36.2935 18.2228 36.2877 18.2032C36.276 18.1638 36.3077 18.1179 36.308 18.1175L36.2896 18.1042C36.2878 18.1066 36.251 18.1597 36.2658 18.2095Z" fill="black"/>
<path d="M36.5198 18.3381C36.5198 18.3381 36.5543 18.413 36.504 18.4937C36.4535 18.5745 36.4549 18.5702 36.4549 18.5702C36.4549 18.5702 36.5155 18.4592 36.4924 18.413C36.4696 18.3669 36.5198 18.3381 36.5198 18.3381Z" fill="black"/>
<path d="M37.2401 19.1198C37.4303 19.1557 37.8594 19.4921 37.8639 19.4956L37.8885 19.4641C37.8705 19.4501 37.4472 19.1183 37.2475 19.0807L37.2401 19.1198Z" fill="black"/>
<path d="M37.4089 19.5946C37.4216 19.7634 37.6053 19.8683 37.6132 19.8725L37.6327 19.8379C37.6308 19.837 37.4598 19.7391 37.4485 19.5916L37.4089 19.5946Z" fill="black"/>
<path d="M36.953 19.6297C36.953 19.8191 37.1304 20.0481 37.1381 20.0578L37.1694 20.0332C37.1676 20.0311 36.9927 19.8054 36.9927 19.6297H36.953Z" fill="black"/>
<path d="M36.3515 19.651C36.3828 19.7135 36.3795 19.7452 36.3714 19.7607C36.362 19.7782 36.3427 19.7808 36.342 19.781L36.3467 19.8206C36.3613 19.8189 36.3906 19.8088 36.4061 19.7802C36.425 19.7456 36.4186 19.6961 36.3871 19.6335L36.3515 19.651Z" fill="black"/>
<path d="M33.6465 18.7174C33.6465 18.7174 33.6581 18.8441 33.756 18.9193C33.756 18.9193 33.7445 18.7807 33.7734 18.7233C33.7734 18.7232 33.7216 18.6656 33.6465 18.7174Z" fill="white" stroke="black" stroke-width="0.0178218" stroke-miterlimit="3"/>
<path d="M33.8421 18.798C33.8421 18.798 33.8653 18.9132 33.9344 18.9651L33.975 18.9536C33.975 18.9536 33.9922 18.8094 34.0153 18.7921C34.0383 18.775 33.9173 18.844 33.8421 18.798Z" fill="white" stroke="black" stroke-width="0.0178218" stroke-miterlimit="3"/>
<path d="M34.0154 18.7921L34.0903 18.9074L34.1767 18.8613L34.1594 18.7231C34.1594 18.7231 34.1076 18.7114 34.0154 18.7921Z" fill="white" stroke="black" stroke-width="0.0178218" stroke-miterlimit="3"/>
<path d="M34.3669 18.8154L34.2688 18.8961C34.2688 18.8961 34.217 18.8556 34.1766 18.8615L34.194 18.7346C34.194 18.7346 34.2631 18.6828 34.3669 18.8154Z" fill="white" stroke="black" stroke-width="0.0178218" stroke-miterlimit="3"/>
<path d="M33.6693 20.0084C33.6693 20.0084 33.6521 19.8298 33.6752 19.8182C33.6752 19.8182 33.7442 19.8413 33.7731 19.8123C33.7731 19.8123 33.8135 19.9566 33.8019 20.0142C33.7904 20.0718 33.7213 20.0489 33.6693 20.0084Z" fill="white" stroke="black" stroke-width="0.0178218" stroke-miterlimit="3"/>
<path d="M34.1134 19.8238C34.1134 19.8238 34.1077 19.6739 34.1364 19.6565C34.1364 19.6565 34.2805 19.6739 34.3151 19.599L34.367 19.7431C34.367 19.7431 34.2056 19.7257 34.1134 19.8238Z" fill="white" stroke="black" stroke-width="0.0178218" stroke-miterlimit="3"/>
<path d="M33.9579 19.8525C33.9579 19.8525 33.9867 19.6969 34.0156 19.6912C34.0156 19.6912 34.0905 19.7141 34.1136 19.6852L34.1079 19.8756C34.1079 19.8756 34.1136 19.7948 33.9579 19.8525Z" fill="white" stroke="black" stroke-width="0.0173267" stroke-miterlimit="3"/>
<path d="M33.7906 19.8758C33.7906 19.8758 33.8252 19.7374 33.8483 19.7374C33.8714 19.7374 33.9291 19.772 33.9578 19.749V19.8527C33.9578 19.8527 33.8308 19.824 33.8137 19.9968L33.7906 19.8758Z" fill="white" stroke="black" stroke-width="0.0173267" stroke-miterlimit="3"/>
<path d="M36.0376 22.7455C36.0376 22.7455 36.4294 23.1094 36.327 23.4266C36.327 23.4266 36.5788 22.8854 36.3084 22.7268C36.0376 22.5682 36.0283 22.6898 36.0376 22.7455V22.7455Z" fill="#00AD50" stroke="black" stroke-width="0.0386139" stroke-miterlimit="4.8"/>
<path d="M35.543 23.0995C35.543 23.0995 35.4405 23.2397 35.5523 23.3423C35.5523 23.3423 35.4312 23.5193 35.5246 23.6688C35.5246 23.6688 35.4498 23.8274 35.4685 23.9954C35.4685 23.9954 35.4031 24.2565 35.543 24.378C35.543 24.378 35.6924 24.4527 35.7578 24.3873C35.7578 24.3873 35.8883 24.1915 35.8043 23.9859C35.8043 23.9859 35.8976 23.8181 35.795 23.6035C35.795 23.6035 35.8231 23.4822 35.7391 23.3424C35.7391 23.3424 35.795 23.2489 35.7483 23.1744C35.7483 23.1744 35.5618 22.9783 35.543 23.0995Z" fill="#862633" stroke="black" stroke-width="0.0386139" stroke-miterlimit="4.8"/>
<path d="M35.6549 22.6426C35.6549 22.6426 35.1885 21.747 34.8619 21.7095C34.5353 21.6721 34.5167 21.355 34.5167 21.355C34.5167 21.355 34.554 21.5043 34.8153 21.5043C35.0766 21.5043 35.5804 21.8681 35.6363 22.148C35.6922 22.4279 35.7484 22.3907 35.7484 22.3907L35.6549 22.6426L35.6549 22.6426Z" fill="#00AD50" stroke="black" stroke-width="0.0386139" stroke-miterlimit="4.8"/>
<path d="M35.6549 22.5772C35.6549 22.5772 35.8229 21.4483 36.5602 21.4295C37.297 21.4107 37.0547 21.4855 37.2318 21.3641C37.2318 21.3641 36.7375 21.6256 36.4294 21.6627C36.1216 21.7 35.8696 22.297 35.879 22.4092C35.8882 22.5211 35.7111 22.7358 35.6271 22.6612C35.5431 22.5866 35.655 22.5772 35.655 22.5772L35.6549 22.5772Z" fill="#00AD50" stroke="black" stroke-width="0.0386139" stroke-miterlimit="4.8"/>
<path d="M35.8227 22.9975C35.8227 22.9975 35.9906 22.5497 36.2799 22.6991C36.2799 22.6991 36.0558 22.2697 35.6547 22.6429C35.6547 22.6429 35.8321 22.8855 35.8227 22.9975H35.8227Z" fill="#00AD50" stroke="black" stroke-width="0.0386139" stroke-miterlimit="4.8"/>
<path d="M35.2628 22.549C35.2628 22.549 35.5055 23.5475 35.1322 23.8553C35.1322 23.8553 35.1414 23.3424 34.9175 23.0344C34.6938 22.7263 35.1415 22.3907 35.2628 22.549V22.549Z" fill="#00AD50" stroke="black" stroke-width="0.0386139" stroke-miterlimit="4.8"/>
<path d="M35.2911 22.7267C35.2911 22.7267 35.7297 23.1467 35.7578 23.2866C35.7858 23.4266 35.8883 22.8668 35.6831 22.7083C35.4778 22.5495 35.2539 22.5215 35.2539 22.5215L35.2911 22.7267Z" fill="#00AD50" stroke="black" stroke-width="0.0386139" stroke-miterlimit="4.8"/>
<path d="M34.4822 23.8272C34.4822 23.8272 34.5219 24.0035 34.6301 24.0376C34.6301 24.0376 34.6357 24.1685 34.7325 24.2083C34.7325 24.2083 34.6811 24.3164 34.7667 24.3845C34.7667 24.3845 34.7494 24.6007 34.8292 24.6463C34.8292 24.6463 35.0228 24.635 35.0908 24.578C35.0908 24.578 35.1307 24.436 35.0228 24.2935C35.0228 24.2935 35.0396 24.157 34.9315 24.0832C34.9315 24.0832 34.9657 23.9009 34.8291 23.8328C34.8291 23.8328 34.8065 23.6847 34.721 23.6109C34.721 23.6109 34.5561 23.8441 34.4822 23.8272Z" fill="#862633" stroke="black" stroke-width="0.0386139" stroke-miterlimit="4.8"/>
<path d="M34.698 23.6109C34.698 23.6109 34.1234 23.4004 33.8048 23.7019C33.8048 23.7019 34.294 23.7703 34.3566 23.867C34.4192 23.9635 34.7206 23.7078 34.698 23.6109H34.698Z" fill="#00AD50" stroke="black" stroke-width="0.0386139" stroke-miterlimit="4.8"/>
<path d="M34.5218 23.9693C34.5218 23.9693 34.4763 23.9296 34.4195 23.8897C34.3625 23.8499 33.8791 23.719 33.8106 24.1855C33.8106 24.1855 33.6342 23.7247 33.8902 23.6621C34.1464 23.5994 34.3512 23.7474 34.5217 23.9693" fill="#00AD50"/>
<path d="M34.5218 23.9693C34.5218 23.9693 34.4763 23.9296 34.4195 23.8897C34.3625 23.8499 33.8791 23.719 33.8106 24.1855C33.8106 24.1855 33.6342 23.7247 33.8902 23.6621C34.1464 23.5994 34.3512 23.7474 34.5217 23.9693" stroke="black" stroke-width="0.0386139" stroke-miterlimit="4.8"/>
<path d="M34.1436 23.0158C34.1436 23.0158 34.3206 23.3983 34.3861 23.4172C34.4514 23.4356 34.498 23.3706 34.498 23.3706C34.498 23.3706 34.2648 23.0253 34.1436 23.0158Z" fill="#00AD50" stroke="black" stroke-width="0.0386139" stroke-miterlimit="4.8"/>
<path d="M34.0128 22.4282C34.0128 22.4282 33.8634 21.9338 33.6863 22.0644C33.509 22.195 33.5557 22.5494 33.5557 22.5494C33.5557 22.5494 33.2011 22.1857 33.4062 21.8963C33.6118 21.6072 34.0128 21.9244 34.0128 22.4282H34.0128Z" fill="#00AD50" stroke="black" stroke-width="0.0386139" stroke-miterlimit="4.8"/>
<path d="M34.4143 23.445C34.4143 23.445 34.4143 23.5383 34.4797 23.5662C34.545 23.5942 34.6662 23.6407 34.6662 23.585C34.6662 23.529 34.573 23.3144 34.5355 23.3424C34.4981 23.3705 34.4331 23.3702 34.4143 23.445Z" fill="#862633" stroke="black" stroke-width="0.0386139" stroke-miterlimit="4.8"/>
<path d="M34.3024 22.8668C34.3024 22.8668 34.2838 22.4377 34.5635 22.2789C34.5635 22.2789 34.6197 22.2885 34.6477 22.2046C34.6477 22.2046 34.4235 22.7455 34.4889 23.0161L34.4797 23.0535" fill="#00AD50"/>
<path d="M34.3024 22.8668C34.3024 22.8668 34.2838 22.4377 34.5635 22.2789C34.5635 22.2789 34.6197 22.2885 34.6477 22.2046C34.6477 22.2046 34.4235 22.7455 34.4889 23.0161L34.4797 23.0535" stroke="black" stroke-width="0.0386139" stroke-miterlimit="4.8"/>
<path d="M34.3584 22.3441C34.3584 22.3441 34.8622 21.2989 35.4781 21.6628C35.4781 21.6628 34.8343 21.7935 34.6012 22.2507L34.3678 22.5956L34.3584 22.344L34.3584 22.3441Z" fill="#00AD50" stroke="black" stroke-width="0.0386139" stroke-miterlimit="4.8"/>
<path d="M34.0876 22.7267C34.0876 22.7267 33.9382 22.027 33.845 21.9338C33.7516 21.8404 33.593 21.7378 33.4063 21.8964C33.4063 21.8964 33.733 21.607 34.0782 21.8498C34.4233 22.0924 34.3487 22.4749 34.3487 22.4749L34.3115 22.9601L34.0782 22.7455" fill="#00AD50"/>
<path d="M34.0876 22.7267C34.0876 22.7267 33.9382 22.027 33.845 21.9338C33.7516 21.8404 33.593 21.7378 33.4063 21.8964C33.4063 21.8964 33.733 21.607 34.0782 21.8498C34.4233 22.0924 34.3487 22.4749 34.3487 22.4749L34.3115 22.9601L34.0782 22.7455" stroke="black" stroke-width="0.0386139" stroke-miterlimit="4.8"/>
<path d="M34.6287 23.5569C34.6287 23.5569 34.0129 22.391 33.6118 23.2213C33.6118 23.2213 33.5369 23.4357 33.6209 23.5195C33.6209 23.5195 33.3969 23.3517 33.4996 22.9412C33.6021 22.5308 34.2832 22.7173 34.4793 23.0533C34.6752 23.3891 34.7313 23.5572 34.7033 23.5756C34.6752 23.5944 34.6287 23.5569 34.6287 23.5569L34.6287 23.5569Z" fill="#00AD50" stroke="black" stroke-width="0.0386139" stroke-miterlimit="4.8"/>
<path d="M36.3643 23.893C36.3643 23.893 36.8124 22.9693 37.0734 23.3891C37.0734 23.3891 37.148 23.5943 37.036 23.6785C37.036 23.6785 36.8589 23.4638 36.7003 23.7251C36.5416 23.9862 36.607 23.9678 36.607 23.9678C36.607 23.9678 36.439 24.0144 36.3643 23.893L36.3643 23.893Z" fill="#00AD50" stroke="black" stroke-width="0.0386139" stroke-miterlimit="4.8"/>
<path d="M37.0356 23.6782C37.0356 23.6782 37.2782 23.8086 37.1945 24.0699C37.1945 24.0699 37.5208 23.4449 37.0731 23.3888C37.0732 23.3888 37.1572 23.5849 37.0356 23.6782Z" fill="#00AD50" stroke="black" stroke-width="0.0386139" stroke-miterlimit="4.8"/>
<path d="M37.0638 23.044C37.0638 23.044 37.6518 23.2119 37.6704 23.464C37.6704 23.464 37.7731 22.9786 37.4371 22.8294C37.4372 22.8294 37.0358 22.8948 37.0638 23.044V23.044Z" fill="#00AD50" stroke="black" stroke-width="0.0386139" stroke-miterlimit="4.8"/>
<path d="M37.3252 22.2693C37.5772 21.7748 37.8944 22.4279 37.8944 22.4279C37.8944 22.4279 38.0063 21.9148 37.6892 21.8214C37.3718 21.7281 37.1666 22.9129 37.1666 22.9129L36.7933 22.9969C36.7933 22.9969 36.896 21.9615 37.4558 21.868L37.521 21.8774" fill="#00AD50"/>
<path d="M37.3252 22.2693C37.5772 21.7748 37.8944 22.4279 37.8944 22.4279C37.8944 22.4279 38.0063 21.9148 37.6892 21.8214C37.3718 21.7281 37.1666 22.9129 37.1666 22.9129L36.7933 22.9969C36.7933 22.9969 36.896 21.9615 37.4558 21.868L37.521 21.8774" stroke="black" stroke-width="0.0386139" stroke-miterlimit="4.8"/>
<path d="M36.8772 22.5678C36.8772 22.5678 36.5228 21.8401 36.2801 21.7655C36.0374 21.6909 36.4109 21.5789 36.5601 21.7188C36.7092 21.8586 36.9891 22.036 36.9612 22.4093L36.8772 22.5678L36.8772 22.5678Z" fill="#00AD50" stroke="black" stroke-width="0.0386139" stroke-miterlimit="4.8"/>
<path d="M36.5134 23.5663C36.5134 23.5663 36.616 23.072 36.8958 22.9226C37.1757 22.7732 37.437 22.8293 37.437 22.8293C37.437 22.8293 37.101 22.9038 37.0452 23.072C36.9891 23.2398 36.8958 23.2491 36.8958 23.2491L36.5134 23.5663V23.5663Z" fill="#00AD50" stroke="black" stroke-width="0.0386139" stroke-miterlimit="4.8"/>
<path d="M36.3643 23.8931C36.3643 23.8931 36.2058 24.1917 36.243 24.2382C36.243 24.2382 36.0751 24.4808 36.1404 24.6021C36.1404 24.6021 36.3084 24.7327 36.383 24.6766C36.383 24.6766 36.5787 24.4062 36.5228 24.2568C36.5228 24.2568 36.6534 24.0797 36.607 23.9678C36.607 23.9678 36.4111 23.9771 36.3643 23.8931Z" fill="#862633" stroke="black" stroke-width="0.0386139" stroke-miterlimit="4.8"/>
<path d="M35.5436 23.3599C35.5541 23.3652 35.6483 23.411 35.7117 23.3898L35.757 23.3511L35.7214 23.3334C35.6982 23.3795 35.5956 23.3415 35.5613 23.3245L35.5436 23.3599Z" fill="black"/>
<path d="M35.5282 23.6495L35.5205 23.6886C35.5285 23.6901 35.7179 23.7268 35.8082 23.6466L35.7817 23.6169C35.7062 23.6839 35.5301 23.65 35.5282 23.6495Z" fill="black"/>
<path d="M35.4802 23.9792L35.4568 24.0114C35.4591 24.0131 35.6791 24.1698 35.8199 23.9987L35.789 23.9734C35.6721 24.1154 35.488 23.9849 35.4802 23.9792Z" fill="black"/>
<path d="M34.6257 24.0267L34.634 24.048C34.6419 24.0448 34.8283 23.9699 34.8401 23.8336L34.8175 23.8315C34.8069 23.9539 34.6275 24.026 34.6257 24.0267Z" fill="black"/>
<path d="M34.7312 24.197L34.7328 24.2197C34.7401 24.2192 34.9122 24.2063 34.9422 24.086L34.92 24.0803C34.8941 24.1846 34.7329 24.1968 34.7312 24.197Z" fill="black"/>
<path d="M34.7668 24.3733L34.7656 24.3961C34.7738 24.3965 34.9666 24.4065 35.032 24.2997L35.0126 24.2877C34.9542 24.3831 34.7687 24.3734 34.7668 24.3733Z" fill="black"/>
<path d="M36.2287 24.2525C36.2321 24.2561 36.3153 24.3382 36.4123 24.3346C36.4598 24.3328 36.502 24.311 36.5376 24.27L36.5075 24.2439C36.4795 24.2762 36.4469 24.2935 36.4111 24.2948C36.3316 24.2977 36.2574 24.2251 36.2567 24.2242L36.2287 24.2525Z" fill="black"/>
<path d="M42.0228 24.9347C42.0125 24.9386 42.0021 24.9448 41.9927 24.9546L42.0228 24.9347Z" fill="#862633" stroke="black" stroke-width="0.0207921" stroke-miterlimit="4.8"/>
<path d="M42.7089 24.7629C42.7023 24.7458 42.6979 24.753 42.6891 24.7455C42.6766 24.7351 42.6694 24.7021 42.6583 24.6897C42.6518 24.6822 42.6442 24.6895 42.6372 24.6877C42.6211 24.6524 42.6022 24.6152 42.5854 24.5811C42.588 24.5772 42.5896 24.5725 42.59 24.5653C42.59 24.5639 42.5821 24.5367 42.5816 24.5355C42.5768 24.528 42.5691 24.5324 42.5645 24.5207C42.5593 24.509 42.5633 24.486 42.5614 24.4722C42.5601 24.4607 42.5555 24.4543 42.5563 24.4381C42.557 24.424 42.5645 24.4076 42.5636 24.3953C42.5633 24.3875 42.5542 24.3701 42.5514 24.3636C42.5404 24.3369 42.5311 24.3118 42.5298 24.2789C42.5284 24.2491 42.5344 24.2309 42.5366 24.205C42.5394 24.1741 42.523 24.1591 42.523 24.1305C42.5232 24.1086 42.5324 24.084 42.535 24.0644C42.5387 24.0376 42.539 23.9987 42.5367 23.9712C42.5347 23.9449 42.5273 23.929 42.5314 23.8994C42.5324 23.8922 42.5359 23.8863 42.5367 23.8762C42.5365 23.8689 42.5365 23.8619 42.5365 23.8549V23.8124C42.5365 23.7986 42.5379 23.7831 42.5367 23.7697C42.5355 23.7585 42.529 23.747 42.529 23.7382C42.529 23.723 42.5386 23.7158 42.5365 23.6953C42.5352 23.6805 42.5331 23.6771 42.5297 23.6642C42.5232 23.6397 42.5276 23.6151 42.5236 23.589C42.5217 23.5764 42.5178 23.5724 42.5166 23.5581C42.5149 23.5412 42.5201 23.5354 42.5217 23.5235C42.5235 23.5116 42.5252 23.496 42.5236 23.4834C42.5217 23.4682 42.5146 23.4575 42.5166 23.441L42.511 23.6283C42.5064 23.4649 42.4999 23.3137 42.4999 23.3137L42.2514 23.197C42.2514 23.197 42.2304 23.6531 42.2358 23.7166C42.2408 23.7803 42.2621 24.2154 42.2514 24.2684C42.2407 24.3215 42.2146 24.5867 42.2146 24.5867C42.2146 24.5867 42.0931 24.6716 42.0456 24.7669C41.9979 24.8624 42.0086 24.8943 41.9926 24.8943L42.1106 24.8759L42.0227 24.9345C42.0408 24.9277 42.0599 24.9292 42.0774 24.943C42.0795 24.9447 42.0926 24.9559 42.0943 24.9559C42.0989 24.9559 42.1053 24.9441 42.1109 24.942C42.1292 24.9359 42.1447 24.9701 42.162 24.9675C42.1714 24.9661 42.1841 24.9563 42.1917 24.9464C42.198 24.9379 42.2004 24.9231 42.207 24.9175C42.2131 24.9123 42.2279 24.9183 42.2342 24.9183C42.2516 24.9183 42.2691 24.9189 42.2865 24.9183C42.3096 24.9177 42.3283 24.8851 42.3496 24.8667C42.3695 24.85 42.3841 24.8441 42.4053 24.8454C42.4285 24.8471 42.4495 24.8688 42.4731 24.8701C42.491 24.871 42.5034 24.8732 42.5179 24.8545C42.5279 24.8414 42.5349 24.822 42.5444 24.8084L42.6031 24.7993C42.6147 24.8041 42.6266 24.8094 42.6366 24.8091C42.6515 24.8084 42.667 24.8065 42.6819 24.8089C42.6875 24.8096 42.6987 24.8228 42.7033 24.8196C42.7065 24.8171 42.7118 24.7993 42.715 24.7939C42.7137 24.7867 42.7115 24.7688 42.7089 24.7628V24.7629Z" fill="#862633" stroke="black" stroke-width="0.0207921" stroke-miterlimit="4.8"/>
<path d="M42.2065 24.9262C42.2215 24.9262 42.2352 24.9228 42.2478 24.9338C42.2499 24.9378 42.2517 24.9416 42.2537 24.9453C42.2578 24.9481 42.2621 24.9486 42.2661 24.947C42.2745 24.9527 42.2762 24.9559 42.2855 24.9581C42.2941 24.9599 42.3036 24.9577 42.3122 24.9579C42.3231 24.9582 42.3283 24.962 42.3385 24.9661C42.3562 24.9734 42.3679 24.9665 42.3832 24.9555C42.401 24.9424 42.4075 24.9524 42.4245 24.9688C42.4373 24.9809 42.4347 24.9798 42.4462 24.9715C42.4479 24.9676 42.4499 24.9638 42.4519 24.9604C42.4576 24.9581 42.4634 24.9565 42.4693 24.9555C42.4788 24.951 42.4882 24.9515 42.4972 24.9481C42.5066 24.9444 42.5135 24.9339 42.5235 24.9358C42.5321 24.9376 42.542 24.9446 42.5502 24.9472C42.5581 24.9499 42.5615 24.9515 42.5681 24.9563C42.5799 24.9319 42.6061 24.9246 42.6228 24.9128C42.6402 24.9007 42.6564 24.9153 42.6755 24.9155C42.6857 24.9155 42.6898 24.9096 42.697 24.9073C42.7051 24.9043 42.7144 24.9086 42.7221 24.9054C42.7304 24.9023 42.7319 24.8943 42.741 24.8933C42.7579 24.8912 42.7767 24.9187 42.7935 24.9239C42.803 24.9271 42.8468 24.9369 42.8404 24.9047C42.8342 24.874 42.8067 24.8952 42.8008 24.8737C42.7976 24.8615 42.8041 24.8441 42.8003 24.8303C42.797 24.8178 42.7832 24.8033 42.775 24.8006C42.7646 24.7973 42.7586 24.8081 42.7498 24.7997C42.7426 24.793 42.7398 24.7678 42.7335 24.7579C42.725 24.764 42.7197 24.7697 42.7085 24.7675C42.6958 24.7644 42.697 24.7601 42.6875 24.748C42.6668 24.7222 42.655 24.7635 42.6359 24.757C42.6214 24.7523 42.608 24.7159 42.5966 24.701C42.5906 24.6931 42.5735 24.6674 42.5648 24.6732C42.55 24.6828 42.5634 24.7107 42.5557 24.7231C42.5502 24.7317 42.5306 24.7229 42.5235 24.7242C42.5123 24.7267 42.5102 24.7296 42.5022 24.743C42.4858 24.77 42.4763 24.7915 42.4509 24.7885C42.4388 24.7871 42.4297 24.7749 42.418 24.7793C42.4054 24.7841 42.3984 24.7975 42.3846 24.7991C42.3746 24.7999 42.3631 24.8003 42.3533 24.7965C42.3437 24.7922 42.3328 24.7741 42.324 24.7692C42.3203 24.7661 42.3165 24.7654 42.3122 24.7669C42.3111 24.7664 42.2979 24.7586 42.2977 24.7586C42.2824 24.7542 42.2836 24.7547 42.2774 24.775C42.2737 24.7875 42.2724 24.8005 42.2677 24.8123C42.2633 24.8223 42.2535 24.8347 42.2478 24.8414C42.2371 24.8529 42.2319 24.8498 42.218 24.854C42.2069 24.8576 42.192 24.875 42.186 24.8526C42.1771 24.8189 42.2108 24.7684 42.1732 24.7772C42.1634 24.7795 42.1575 24.7813 42.1515 24.7958C42.1449 24.8125 42.1502 24.8233 42.1473 24.8416C42.1434 24.8647 42.0994 24.9034 42.1081 24.9243C42.1139 24.9389 42.1335 24.9164 42.1389 24.92C42.1478 24.9262 42.1453 24.9408 42.1516 24.9506C42.1649 24.971 42.2043 24.9192 42.2066 24.9472" fill="#862633"/>
<path d="M42.2065 24.9262C42.2215 24.9262 42.2352 24.9228 42.2478 24.9338C42.2499 24.9378 42.2517 24.9416 42.2537 24.9453C42.2578 24.9481 42.2621 24.9486 42.2661 24.947C42.2745 24.9527 42.2762 24.9559 42.2855 24.9581C42.2941 24.9599 42.3036 24.9577 42.3122 24.9579C42.3231 24.9582 42.3283 24.962 42.3385 24.9661C42.3562 24.9734 42.3679 24.9665 42.3832 24.9555C42.401 24.9424 42.4075 24.9524 42.4245 24.9688C42.4373 24.9809 42.4347 24.9798 42.4462 24.9715C42.4479 24.9676 42.4499 24.9638 42.4519 24.9604C42.4576 24.9581 42.4634 24.9565 42.4693 24.9555C42.4788 24.951 42.4882 24.9515 42.4972 24.9481C42.5066 24.9444 42.5135 24.9339 42.5235 24.9358C42.5321 24.9376 42.542 24.9446 42.5502 24.9472C42.5581 24.9499 42.5615 24.9515 42.5681 24.9563C42.5799 24.9319 42.6061 24.9246 42.6228 24.9128C42.6402 24.9007 42.6564 24.9153 42.6755 24.9155C42.6857 24.9155 42.6898 24.9096 42.697 24.9073C42.7051 24.9043 42.7144 24.9086 42.7221 24.9054C42.7304 24.9023 42.7319 24.8943 42.741 24.8933C42.7579 24.8912 42.7767 24.9187 42.7935 24.9239C42.803 24.9271 42.8468 24.9369 42.8404 24.9047C42.8342 24.874 42.8067 24.8952 42.8008 24.8737C42.7976 24.8615 42.8041 24.8441 42.8003 24.8303C42.797 24.8178 42.7832 24.8033 42.775 24.8006C42.7646 24.7973 42.7586 24.8081 42.7498 24.7997C42.7426 24.793 42.7398 24.7678 42.7335 24.7579C42.725 24.764 42.7197 24.7697 42.7085 24.7675C42.6958 24.7644 42.697 24.7601 42.6875 24.748C42.6668 24.7222 42.655 24.7635 42.6359 24.757C42.6214 24.7523 42.608 24.7159 42.5966 24.701C42.5906 24.6931 42.5735 24.6674 42.5648 24.6732C42.55 24.6828 42.5634 24.7107 42.5557 24.7231C42.5502 24.7317 42.5306 24.7229 42.5235 24.7242C42.5123 24.7267 42.5102 24.7296 42.5022 24.743C42.4858 24.77 42.4763 24.7915 42.4509 24.7885C42.4388 24.7871 42.4297 24.7749 42.418 24.7793C42.4054 24.7841 42.3984 24.7975 42.3846 24.7991C42.3746 24.7999 42.3631 24.8003 42.3533 24.7965C42.3437 24.7922 42.3328 24.7741 42.324 24.7692C42.3203 24.7661 42.3165 24.7654 42.3122 24.7669C42.3111 24.7664 42.2979 24.7586 42.2977 24.7586C42.2824 24.7542 42.2836 24.7547 42.2774 24.775C42.2737 24.7875 42.2724 24.8005 42.2677 24.8123C42.2633 24.8223 42.2535 24.8347 42.2478 24.8414C42.2371 24.8529 42.2319 24.8498 42.218 24.854C42.2069 24.8576 42.192 24.875 42.186 24.8526C42.1771 24.8189 42.2108 24.7684 42.1732 24.7772C42.1634 24.7795 42.1575 24.7813 42.1515 24.7958C42.1449 24.8125 42.1502 24.8233 42.1473 24.8416C42.1434 24.8647 42.0994 24.9034 42.1081 24.9243C42.1139 24.9389 42.1335 24.9164 42.1389 24.92C42.1478 24.9262 42.1453 24.9408 42.1516 24.9506C42.1649 24.971 42.2043 24.9192 42.2066 24.9472" stroke="black" stroke-width="0.0207921" stroke-miterlimit="4.8"/>
<path d="M42.0471 24.7455C42.047 24.7426 42.0464 24.7398 42.0462 24.7368C42.0357 24.7349 42.0238 24.7237 42.0142 24.7236C42.0051 24.723 41.9874 24.7452 41.9811 24.7559C41.9619 24.7877 41.9672 24.8311 41.9348 24.8304C41.9269 24.8302 41.9084 24.8249 41.9014 24.8297C41.8892 24.8383 41.8969 24.8638 41.8969 24.8812C41.8969 24.8975 41.9044 24.8812 41.8956 24.9024C41.893 24.9082 41.8851 24.9101 41.883 24.9179C41.8765 24.9456 41.8996 24.9368 41.9097 24.9365C41.9359 24.9363 41.9619 24.9363 41.9877 24.9365C42.0034 24.9368 42.0128 24.9313 42.0275 24.9256C42.0371 24.9223 42.0576 24.9225 42.0657 24.9139C42.0686 24.9106 42.0781 24.8888 42.0794 24.8836C42.0815 24.8729 42.0774 24.86 42.08 24.8511C42.0841 24.8354 42.0981 24.8414 42.1006 24.8203C42.1074 24.7684 42.052 24.8072 42.0607 24.7562" fill="#862633"/>
<path d="M42.0471 24.7455C42.047 24.7426 42.0464 24.7398 42.0462 24.7368C42.0357 24.7349 42.0238 24.7237 42.0142 24.7236C42.0051 24.723 41.9874 24.7452 41.9811 24.7559C41.9619 24.7877 41.9672 24.8311 41.9348 24.8304C41.9269 24.8302 41.9084 24.8249 41.9014 24.8297C41.8892 24.8383 41.8969 24.8638 41.8969 24.8812C41.8969 24.8975 41.9044 24.8812 41.8956 24.9024C41.893 24.9082 41.8851 24.9101 41.883 24.9179C41.8765 24.9456 41.8996 24.9368 41.9097 24.9365C41.9359 24.9363 41.9619 24.9363 41.9877 24.9365C42.0034 24.9368 42.0128 24.9313 42.0275 24.9256C42.0371 24.9223 42.0576 24.9225 42.0657 24.9139C42.0686 24.9106 42.0781 24.8888 42.0794 24.8836C42.0815 24.8729 42.0774 24.86 42.08 24.8511C42.0841 24.8354 42.0981 24.8414 42.1006 24.8203C42.1074 24.7684 42.052 24.8072 42.0607 24.7562" stroke="black" stroke-width="0.0207921" stroke-miterlimit="4.8"/>
<path d="M42.6737 23.304C42.6737 23.3711 42.6278 23.4252 42.5709 23.4252C42.5146 23.4252 42.4683 23.3711 42.4683 23.304C42.4683 23.237 42.5145 23.1826 42.5709 23.1826C42.6278 23.1827 42.6737 23.237 42.6737 23.304Z" fill="black" stroke="black" stroke-width="0.0386139" stroke-miterlimit="4.8"/>
<path d="M42.3381 23.1544C42.3381 23.2214 42.2921 23.2756 42.2355 23.2756C42.1787 23.2756 42.1326 23.2214 42.1326 23.1544C42.1326 23.0875 42.1787 23.0331 42.2355 23.0331C42.2921 23.0331 42.3381 23.0875 42.3381 23.1544Z" fill="black" stroke="black" stroke-width="0.0386139" stroke-miterlimit="4.8"/>
<path d="M42.5154 23.201C42.5154 23.2681 42.4694 23.3222 42.4127 23.3222C42.356 23.3222 42.3101 23.2681 42.3101 23.201C42.3101 23.1339 42.356 23.0797 42.4127 23.0797C42.4694 23.0797 42.5154 23.1339 42.5154 23.201Z" fill="black" stroke="black" stroke-width="0.0386139" stroke-miterlimit="4.8"/>
<path d="M42.3435 23.3119C42.3435 23.379 42.2974 23.4334 42.2408 23.4334C42.1842 23.4334 42.1382 23.379 42.1382 23.3119C42.1382 23.2449 42.1841 23.1907 42.2408 23.1907C42.2975 23.1907 42.3435 23.2449 42.3435 23.3119Z" fill="black" stroke="black" stroke-width="0.0386139" stroke-miterlimit="4.8"/>
<path d="M42.503 23.4045C42.503 23.4714 42.4567 23.5259 42.4003 23.5259C42.3436 23.5259 42.2975 23.4714 42.2975 23.4045C42.2975 23.3375 42.3436 23.2833 42.4003 23.2833C42.4566 23.2833 42.503 23.3375 42.503 23.4045Z" fill="black" stroke="black" stroke-width="0.0386139" stroke-miterlimit="4.8"/>
<path d="M42.5525 22.0812C42.5525 22.0812 43.588 20.6352 44.6984 22.1373C44.6984 22.1373 44.7077 22.2867 44.6051 22.4452L44.5771 22.324L44.5118 22.3426L44.4932 22.268L44.3716 22.2587L44.4092 22.1L44.2784 22.2027L44.2971 22.0906L44.1479 22.2402L44.1666 21.9228L44.0079 22.1934L44.0265 22.0069L43.9706 22.0907L43.9369 21.982L43.8868 22.0907L43.8119 22.0349V22.1095L43.6815 21.9975L43.6348 22.1467L43.5695 21.9882L43.5508 22.1001L43.4854 21.9695L43.4763 22.1095L43.2615 22.0161L43.3081 22.1467L43.2057 22.0722L43.2243 22.1467L43.0845 22.1189L43.0936 22.2027L42.9444 22.1747L42.9725 22.2493L42.7671 22.2215L42.8415 22.3054L42.8208 22.3396C42.8208 22.3396 43.9426 21.9696 44.0172 23.3691L43.8119 23.4717L43.868 23.36L43.8119 23.3225L43.6441 23.192L43.6907 23.0146L43.6348 23.0334L43.6254 22.9308L43.5975 22.9494L43.532 22.8468L43.5134 22.8841L43.4668 22.7626L43.4201 22.8468L43.392 22.6415L43.3175 22.7723L43.308 22.6976L43.28 22.7442L43.1867 22.6322L43.159 22.7069L43.1214 22.6509L43.0936 22.7161L42.9909 22.6227V22.6976L42.9257 22.6415L42.8974 22.6788L42.7391 22.5948L42.7294 22.6693L42.6457 22.5948L42.6176 22.6693C42.6176 22.6693 43.6348 23.248 43.3174 24.1904L43.2613 24.3115L43.2429 23.9945L43.1496 24.1623L43.2145 23.7985L43.1496 23.8637L43.14 23.7239L43.0563 23.8637L43.0279 23.7052L42.9909 23.7518L42.9346 23.5091L42.888 23.6119L42.8134 23.3413L42.7575 23.4532L42.7201 23.2201L42.6828 23.36L42.5707 23.1547L42.5523 23.2385L42.487 23.0707L42.4495 23.1268C42.4495 23.1268 42.2629 23.1173 42.207 23.0707C42.151 23.0242 41.9924 23.3507 41.9924 23.3507L42.0111 23.1547L41.9459 23.2851V23.1547L41.8245 23.5465L41.7964 23.2666L41.7312 23.5091L41.7031 23.4347L41.6845 23.5374L41.6471 23.4999L41.6145 23.61L41.5537 23.5653V23.7145L41.4977 23.6398L41.4511 23.8638L41.4232 23.7707V23.8731L41.3766 23.8174L41.3297 24.0414L41.2645 23.9481L41.2554 24.1065L41.2831 24.228L41.2086 24.1906L41.2367 24.3863C41.2367 24.3863 40.9474 23.8453 41.2927 23.3227C41.6377 22.8005 42.1043 22.6604 42.1043 22.6604L42.0575 22.6139L42.0482 22.5671L41.7683 22.707L41.7778 22.6228L41.703 22.6882L41.6845 22.595L41.6376 22.679L41.6286 22.6416L41.5631 22.7444L41.5256 22.595L41.4791 22.7724L41.4351 22.6483L41.3392 22.9121V22.7163L41.2645 22.9217L41.2366 22.6977L41.1807 22.9588V22.7256L41.0965 22.9588L41.0406 22.735L41.0032 22.9495L40.9473 22.7816L40.8912 23.0335L40.8074 22.8095L40.7607 23.1455L40.7048 23.0147L40.6954 23.2574L40.6303 23.1081L40.6954 23.4252L40.6114 23.304L40.6395 23.4999L40.5183 23.2852L40.5276 23.5374L40.4622 23.4532L40.4341 23.5465C40.4341 23.5465 40.4063 22.5762 41.0685 22.3895C41.7312 22.203 42.1604 22.4456 42.1604 22.4456L41.9085 22.2404L41.9365 22.175H41.8432L41.8805 22.1003L41.6846 22.1098L41.7405 22.0351L41.5911 22.0537V22.0071L41.4979 22.0816L41.5352 21.9977L41.4046 22.0816L41.3966 21.9575L41.3299 22.0631L41.2929 21.9511L40.9941 22.2495L41.078 21.9417L41.0221 22.0071L41.0129 21.9417L40.9289 22.0725L40.9102 21.9791L40.8728 22.0909L40.8447 21.9604L40.7796 22.0909L40.7142 21.9699L40.6863 22.1285L40.6395 22.0444L40.5836 22.1657L40.5091 22.0909L40.4996 22.1657L40.3503 22.1003L40.3877 22.2124L40.2757 22.1191L40.2476 22.2683L40.1824 22.1937L40.1358 22.3804L40.0892 22.203L40.0425 22.343C40.0425 22.343 40.626 20.8437 42.1022 21.8219C42.1022 21.8219 42.2629 21.9791 42.3003 22.091C42.3377 22.2031 42.3098 22.1099 42.3098 22.1099L42.2817 21.0742L42.3376 21.522L42.3749 21.3633L42.3657 21.5966L42.5148 21.27C42.5148 21.27 42.3377 21.8113 42.4028 22.0071C42.4028 22.0071 42.4683 21.3821 42.6924 21.3073L42.487 21.7551L42.5523 21.7458L42.5056 21.8392H42.5616L42.4939 21.9872L42.4589 22.0632L42.4961 22.1377L42.5525 22.0812L42.5525 22.0812Z" fill="#00AD50" stroke="black" stroke-width="0.0386139" stroke-miterlimit="4.8"/>
<path d="M42.399 22.6896L42.4285 22.7161C42.4324 22.712 42.5247 22.6137 42.6796 22.7445L42.7053 22.714C42.5201 22.5574 42.3999 22.6882 42.399 22.6896Z" fill="black"/>
<path d="M42.354 22.1817L42.3479 22.2176C42.3479 22.2176 42.4012 22.1949 42.4199 22.1869C42.4083 22.2074 42.3704 22.2734 42.3704 22.2734C42.3704 22.2734 42.4487 22.2474 42.4777 22.2377C42.4309 22.299 42.3447 22.4118 42.3447 22.4118L42.3763 22.4363L42.5881 22.159C42.5881 22.159 42.4906 22.1916 42.4565 22.2029C42.4703 22.179 42.513 22.1036 42.513 22.1036C42.513 22.1036 42.4266 22.1408 42.3992 22.1525C42.4067 22.1066 42.4227 22.0103 42.4227 22.0103L42.3833 22.0037L42.354 22.1817Z" fill="black"/>
<path d="M42.1565 22.1931C42.1565 22.1931 42.1826 22.2509 42.2023 22.294C42.1938 22.2905 42.1293 22.2646 42.1293 22.2646L42.3446 22.6456C42.3446 22.6456 42.3706 22.6123 42.3721 22.6103C42.3504 22.6659 42.3288 22.7219 42.3288 22.7219L42.3659 22.7364L42.4587 22.4977L42.4245 22.4783C42.4245 22.4783 42.3736 22.5435 42.3498 22.574C42.3296 22.5381 42.2551 22.4063 42.2198 22.344C42.2243 22.3457 42.2796 22.3679 42.2796 22.3679C42.2796 22.3679 42.2389 22.2782 42.22 22.2366C42.2451 22.2523 42.3007 22.287 42.3007 22.287V22.1451H42.2609V22.2153C42.23 22.196 42.1291 22.133 42.1291 22.133L42.1565 22.1931Z" fill="black"/>
<path d="M42.0208 22.6713L42.0367 22.7078C42.095 22.6828 42.143 22.6787 42.1795 22.6961C42.2222 22.7166 42.2351 22.7606 42.2352 22.7609L42.2736 22.7506C42.273 22.7481 42.2562 22.6888 42.1972 22.6604C42.1501 22.6377 42.0907 22.6414 42.0208 22.6713Z" fill="black"/>
<path d="M42.1552 22.8661L42.1879 23.0747L42.2274 23.0685L42.1947 22.8599L42.1552 22.8661Z" fill="black"/>
<path d="M42.4213 22.881L42.4745 23.0404L42.5124 23.0277L42.4592 22.8684L42.4213 22.881Z" fill="black"/>
<path d="M42.5397 22.999L42.5797 23.1582L42.6184 23.1485L42.5785 22.9893L42.5397 22.999Z" fill="black"/>
<path d="M34.6144 27.9456C34.6144 27.9456 34.4394 27.8661 34.3597 27.9242C34.2801 27.9827 34.291 28.0675 34.222 28.0621C34.222 28.0621 34.4871 28.1205 34.5453 28.0514C34.6036 27.9827 34.6144 27.9614 34.6144 27.9614" fill="#00AD50"/>
<path d="M34.6144 27.9456C34.6144 27.9456 34.4394 27.8661 34.3597 27.9242C34.2801 27.9827 34.291 28.0675 34.222 28.0621C34.222 28.0621 34.4871 28.1205 34.5453 28.0514C34.6036 27.9827 34.6144 27.9614 34.6144 27.9614" stroke="black" stroke-width="0.0386139" stroke-miterlimit="4.8"/>
<path d="M34.6466 28.0188C34.6466 28.0188 34.5314 28.1727 34.5712 28.2629C34.6109 28.3531 34.6961 28.3608 34.676 28.427C34.676 28.427 34.7899 28.1808 34.7352 28.1089C34.6805 28.0375 34.6622 28.0225 34.6622 28.0225" fill="#00AD50"/>
<path d="M34.6466 28.0188C34.6466 28.0188 34.5314 28.1727 34.5712 28.2629C34.6109 28.3531 34.6961 28.3608 34.676 28.427C34.676 28.427 34.7899 28.1808 34.7352 28.1089C34.6805 28.0375 34.6622 28.0225 34.6622 28.0225" stroke="black" stroke-width="0.0386139" stroke-miterlimit="4.8"/>
<path d="M34.4525 27.5926C34.4525 27.5926 34.2688 27.6496 34.2482 27.7458C34.2271 27.8422 34.2917 27.8986 34.2367 27.9404C34.2367 27.9404 34.4734 27.8078 34.4712 27.7173C34.469 27.6271 34.4631 27.6043 34.4631 27.6043" fill="#00AD50"/>
<path d="M34.4525 27.5926C34.4525 27.5926 34.2688 27.6496 34.2482 27.7458C34.2271 27.8422 34.2917 27.8986 34.2367 27.9404C34.2367 27.9404 34.4734 27.8078 34.4712 27.7173C34.469 27.6271 34.4631 27.6043 34.4631 27.6043" stroke="black" stroke-width="0.0386139" stroke-miterlimit="4.8"/>
<path d="M34.5604 27.6559C34.5604 27.6559 34.6475 27.4843 34.5927 27.4026C34.538 27.3202 34.4525 27.3273 34.4609 27.2588C34.4609 27.2588 34.3909 27.521 34.4573 27.5824C34.5238 27.6433 34.5446 27.6551 34.5446 27.6551" fill="#00AD50"/>
<path d="M34.5604 27.6559C34.5604 27.6559 34.6475 27.4843 34.5927 27.4026C34.538 27.3202 34.4525 27.3273 34.4609 27.2588C34.4609 27.2588 34.3909 27.521 34.4573 27.5824C34.5238 27.6433 34.5446 27.6551 34.5446 27.6551" stroke="black" stroke-width="0.0386139" stroke-miterlimit="4.8"/>
<path d="M34.3802 27.5936C34.3802 27.5936 34.3844 27.4017 34.2994 27.3516C34.2145 27.3013 34.1406 27.3445 34.1183 27.2789C34.1183 27.2789 34.1691 27.5457 34.2556 27.5724C34.3421 27.5984 34.3659 27.5999 34.3659 27.5999" fill="#00AD50"/>
<path d="M34.3802 27.5936C34.3802 27.5936 34.3844 27.4017 34.2994 27.3516C34.2145 27.3013 34.1406 27.3445 34.1183 27.2789C34.1183 27.2789 34.1691 27.5457 34.2556 27.5724C34.3421 27.5984 34.3659 27.5999 34.3659 27.5999" stroke="black" stroke-width="0.0386139" stroke-miterlimit="4.8"/>
<path d="M34.6941 27.9134C34.6941 27.9134 34.8955 27.8442 34.9115 28.0618C34.9274 28.2791 34.9008 28.205 34.9008 28.205C34.9008 28.205 34.7948 27.9717 34.6782 27.9345L34.6941 27.9134Z" fill="#00AD50" stroke="black" stroke-width="0.0386139" stroke-miterlimit="4.8"/>
<path d="M34.6431 28.0223C34.6431 28.0269 34.6642 28.1913 34.6642 28.1913L34.6925 28.1877L34.6712 28.0232C34.6719 28.0234 34.74 27.6618 34.74 27.6618L34.7119 27.6566L34.6431 28.0223Z" fill="black"/>
<path d="M34.4599 27.9688L34.4505 27.9957C34.5468 28.0295 34.6812 27.9237 34.6868 27.9192L34.669 27.8971C34.6678 27.8979 34.5414 27.9978 34.4599 27.9688Z" fill="black"/>
<path d="M34.2617 27.5287L34.7123 27.7567L34.7302 27.7211L34.2796 27.4932L34.2617 27.5287Z" fill="black"/>
<path d="M34.3576 27.6774L34.3856 27.7055L34.4758 27.6154L34.4477 27.5873L34.3576 27.6774Z" fill="black"/>
<path d="M34.4479 27.4547L34.5433 27.6617L34.5794 27.645L34.484 27.4381L34.4479 27.4547Z" fill="black"/>
<path d="M34.6768 27.9148L34.6793 27.9546C34.8019 27.9463 34.8318 28.0257 34.832 28.0266L34.8711 28.0184C34.8664 27.9958 34.8174 27.9054 34.6768 27.9148Z" fill="black"/>
<path d="M36.7441 28.0064C36.8943 27.9223 36.9244 27.6274 36.9244 27.6274C36.8885 27.7358 36.612 27.844 36.612 27.844C36.8163 27.7174 37.0626 27.1467 37.0626 27.1467C36.9965 27.3511 36.4617 27.5193 36.119 27.7116C35.7763 27.9039 35.9567 28.4571 35.9567 28.4571C35.8606 28.3909 35.6742 28.0965 35.6383 27.8378C35.602 27.5795 35.4999 27.4774 35.2654 27.4473C35.0309 27.4172 34.8927 27.6815 34.8927 27.6815L34.5442 27.8621L34.8986 27.8739C34.8986 27.8739 35.1514 27.9583 35.1514 28.1566C35.1514 28.3551 34.929 29.1484 35.2954 29.5933C35.5505 29.9025 36.4918 30.0801 36.4918 30.0801" fill="white"/>
<path d="M36.7441 28.0064C36.8943 27.9223 36.9244 27.6274 36.9244 27.6274C36.8885 27.7358 36.612 27.844 36.612 27.844C36.8163 27.7174 37.0626 27.1467 37.0626 27.1467C36.9965 27.3511 36.4617 27.5193 36.119 27.7116C35.7763 27.9039 35.9567 28.4571 35.9567 28.4571C35.8606 28.3909 35.6742 28.0965 35.6383 27.8378C35.602 27.5795 35.4999 27.4774 35.2654 27.4473C35.0309 27.4172 34.8927 27.6815 34.8927 27.6815L34.5442 27.8621L34.8986 27.8739C34.8986 27.8739 35.1514 27.9583 35.1514 28.1566C35.1514 28.3551 34.929 29.1484 35.2954 29.5933C35.5505 29.9025 36.4918 30.0801 36.4918 30.0801" stroke="black" stroke-width="0.0495049" stroke-miterlimit="4.8"/>
<path d="M36.053 28.6193C36.053 28.6193 36.1251 28.2646 36.3595 28.2766C36.5939 28.2886 36.66 28.0123 36.7983 27.9701C36.9365 27.9281 37.6519 27.7359 37.73 27.3931C37.73 27.3931 37.6639 27.9582 37.0088 28.2407C37.0088 28.2407 37.5376 28.0663 37.5978 27.952C37.5978 27.952 37.3632 28.457 36.7923 28.5351C36.7923 28.5351 37.3272 28.4931 37.4054 28.3489C37.4054 28.3489 37.1649 28.6674 36.7683 28.7096C36.7683 28.7096 37.1349 28.8598 37.2312 28.7335C37.2312 28.7335 37.0328 28.9679 36.7862 28.9858L36.8525 29.0039C36.8525 29.0039 36.6181 29.2805 36.3596 29.0941C36.1012 28.9077 36.095 29.1424 36.095 29.1424" fill="white"/>
<path d="M36.053 28.6193C36.053 28.6193 36.1251 28.2646 36.3595 28.2766C36.5939 28.2886 36.66 28.0123 36.7983 27.9701C36.9365 27.9281 37.6519 27.7359 37.73 27.3931C37.73 27.3931 37.6639 27.9582 37.0088 28.2407C37.0088 28.2407 37.5376 28.0663 37.5978 27.952C37.5978 27.952 37.3632 28.457 36.7923 28.5351C36.7923 28.5351 37.3272 28.4931 37.4054 28.3489C37.4054 28.3489 37.1649 28.6674 36.7683 28.7096C36.7683 28.7096 37.1349 28.8598 37.2312 28.7335C37.2312 28.7335 37.0328 28.9679 36.7862 28.9858L36.8525 29.0039C36.8525 29.0039 36.6181 29.2805 36.3596 29.0941C36.1012 28.9077 36.095 29.1424 36.095 29.1424" stroke="black" stroke-width="0.0495049" stroke-miterlimit="4.8"/>
<path d="M36.5866 29.154C36.5866 29.154 36.8885 29.659 36.9187 29.9295C36.9187 29.9295 37.4958 30.5667 37.7121 30.6025C37.7121 30.6025 37.6099 30.6445 37.4235 30.4884C37.4235 30.4884 37.5798 30.6507 37.6099 30.6567C37.6398 30.6629 37.4836 30.6447 37.4595 30.6025C37.4595 30.6025 37.5257 30.6989 37.5677 30.7109C37.6099 30.723 37.5257 30.6989 37.5257 30.6989C37.5257 30.6989 37.4474 30.6868 37.4114 30.6567C37.3753 30.6268 37.3994 30.7347 37.3994 30.7347C37.3994 30.7347 37.3092 30.7107 37.2792 30.6807C37.2491 30.6507 37.2913 30.7469 37.2913 30.7469L37.2132 30.7288L37.1591 30.7648C37.1591 30.7648 37.1531 30.8009 37.1168 30.7708C37.0809 30.7411 37.0147 30.7708 37.0147 30.7708C37.0147 30.7708 36.9665 30.813 36.9426 30.7829C36.9187 30.7529 36.8276 30.8985 36.8276 30.8985L36.4491 29.9849" fill="white"/>
<path d="M36.5866 29.154C36.5866 29.154 36.8885 29.659 36.9187 29.9295C36.9187 29.9295 37.4958 30.5667 37.7121 30.6025C37.7121 30.6025 37.6099 30.6445 37.4235 30.4884C37.4235 30.4884 37.5798 30.6507 37.6099 30.6567C37.6398 30.6629 37.4836 30.6447 37.4595 30.6025C37.4595 30.6025 37.5257 30.6989 37.5677 30.7109C37.6099 30.723 37.5257 30.6989 37.5257 30.6989C37.5257 30.6989 37.4474 30.6868 37.4114 30.6567C37.3753 30.6268 37.3994 30.7347 37.3994 30.7347C37.3994 30.7347 37.3092 30.7107 37.2792 30.6807C37.2491 30.6507 37.2913 30.7469 37.2913 30.7469L37.2132 30.7288L37.1591 30.7648C37.1591 30.7648 37.1531 30.8009 37.1168 30.7708C37.0809 30.7411 37.0147 30.7708 37.0147 30.7708C37.0147 30.7708 36.9665 30.813 36.9426 30.7829C36.9187 30.7529 36.8276 30.8985 36.8276 30.8985L36.4491 29.9849" stroke="black" stroke-width="0.0495049" stroke-miterlimit="4.8"/>
<path d="M36.4675 29.9008L36.9458 30.8113L36.996 30.7849L36.5177 29.8744L36.4675 29.9008Z" fill="black"/>
<path d="M36.5454 29.8336L37.3638 30.7499L37.4063 30.712L36.5879 29.7957L36.5454 29.8336Z" fill="black"/>
<path d="M36.6165 29.7988L37.5504 30.6691L37.5892 30.6275L36.6553 29.7572L36.6165 29.7988Z" fill="black"/>
<path d="M35.2099 27.7376C35.2099 27.7376 35.149 27.6285 35.0959 27.6695C35.043 27.7103 35.0125 27.7178 35.0034 27.715C35.0034 27.715 35.0566 27.7179 35.0868 27.6891C35.1172 27.6601 35.1688 27.6784 35.2099 27.7376Z" fill="black"/>
<path d="M34.8802 27.6876C34.8802 27.6876 34.9136 27.7568 34.9141 27.758C34.9107 27.7582 34.8763 27.8698 34.8763 27.8698L34.9037 27.8782L34.9409 27.7567C34.9402 27.7462 34.906 27.6754 34.906 27.6754L34.8802 27.6876Z" fill="black"/>
<path d="M35.196 27.7208C35.196 27.7208 35.1506 27.774 35.0883 27.7587C35.0263 27.7435 35.0263 27.7435 35.0263 27.7435C35.0263 27.7435 35.0791 27.7465 35.1142 27.7482C35.1489 27.7496 35.1944 27.7315 35.196 27.7208Z" fill="black"/>
<path d="M35.1812 27.7317C35.1812 27.7317 35.1252 27.6725 35.0872 27.6892C35.0872 27.6892 35.154 27.6679 35.1919 27.7253L35.1812 27.7317Z" fill="black"/>
<path d="M35.1718 27.7207C35.1718 27.7207 35.1081 27.7646 35.0382 27.7163L35.0339 27.713L35.043 27.7101C35.0431 27.7102 35.131 27.7465 35.1718 27.7207Z" fill="black"/>
<path d="M35.1175 27.729C35.1279 27.729 35.1364 27.7205 35.1364 27.7101C35.1364 27.6996 35.1279 27.6911 35.1175 27.6911C35.107 27.6911 35.0985 27.6996 35.0985 27.7101C35.0985 27.7205 35.107 27.729 35.1175 27.729Z" fill="black"/>
<path d="M35.1688 29.3891C35.1688 29.3891 35.1195 29.4799 35.1453 29.5346C35.1714 29.5892 35.2884 29.6175 35.304 29.6903C35.3196 29.7634 35.3587 29.7632 35.4133 29.753C35.468 29.7425 35.4783 29.74 35.4783 29.74C35.4783 29.74 35.2494 29.6175 35.1895 29.4201L35.1688 29.3891Z" fill="black"/>
<path d="M42.5688 27.5401C42.5688 27.5401 42.9855 26.9906 43.355 27.1349C43.7246 27.2793 43.9647 27.3489 43.9647 27.3489C43.9647 27.3489 43.9717 27.7189 43.7752 27.7189C43.5792 27.7189 43.3912 27.3493 43.2126 27.4592C43.0336 27.5688 42.8866 27.7191 42.875 27.7709C42.8635 27.8227 42.4017 27.8344 42.5688 27.5401H42.5688Z" fill="#862633" stroke="black" stroke-width="0.0237624" stroke-miterlimit="4.8"/>
<path d="M40.9871 30.1896C40.9871 30.1896 40.8719 30.3106 40.9239 30.3396C40.976 30.3684 41.0796 30.3336 41.0796 30.2934C41.0796 30.2527 41.0105 30.1781 40.9871 30.1896Z" fill="#862633" stroke="black" stroke-width="0.0386139" stroke-miterlimit="4.8"/>
<path d="M40.895 30.3049C40.895 30.3049 40.6816 30.1834 40.5141 30.4721C40.3465 30.7606 40.2081 31.2283 40.11 31.2919C40.0119 31.3553 41.0625 30.8301 41.0741 30.6108C41.0741 30.6108 41.1432 30.3278 41.0336 30.3335C40.924 30.3395 40.9181 30.3511 40.895 30.3049H40.895Z" fill="#862633" stroke="black" stroke-width="0.0386139" stroke-miterlimit="4.8"/>
<path d="M40.9238 30.3396C40.9238 30.3396 40.7045 30.3912 40.6583 30.7028C40.6122 31.0149 40.3061 31.1763 40.2889 31.1878" fill="#862633"/>
<path d="M40.9238 30.3396C40.9238 30.3396 40.7045 30.3912 40.6583 30.7028C40.6122 31.0149 40.3061 31.1763 40.2889 31.1878" stroke="black" stroke-width="0.0237624" stroke-miterlimit="4.8"/>
<path d="M43.9653 27.349C43.9653 27.349 43.6317 27.465 43.6894 27.696L43.9653 27.349Z" fill="#862633"/>
<path d="M43.9653 27.349C43.9653 27.349 43.6317 27.465 43.6894 27.696" stroke="black" stroke-width="0.0237624" stroke-miterlimit="4.8"/>
<path d="M41.403 28.0247C41.403 28.0247 41.4144 27.2338 42.0606 27.2684C42.183 27.2798 42.1246 27.4242 42.1246 27.4242C42.1246 27.4242 42.2644 27.3263 42.3283 27.4819C42.3283 27.4819 42.5321 27.3896 42.5553 27.5917C42.5553 27.5917 42.7765 27.563 42.7473 27.7418C42.7473 27.7418 42.8986 27.7072 42.893 27.8342C42.893 27.8342 43.0675 27.7649 43.0499 27.9439C43.0499 27.9439 43.242 27.8169 43.2131 28.0477C43.2131 28.0477 43.4111 27.9093 43.4806 28.1402C43.5505 28.371 43.2829 28.8616 43.0209 28.9886" fill="#FEDD00"/>
<path d="M41.403 28.0247C41.403 28.0247 41.4144 27.2338 42.0606 27.2684C42.183 27.2798 42.1246 27.4242 42.1246 27.4242C42.1246 27.4242 42.2644 27.3263 42.3283 27.4819C42.3283 27.4819 42.5321 27.3896 42.5553 27.5917C42.5553 27.5917 42.7765 27.563 42.7473 27.7418C42.7473 27.7418 42.8986 27.7072 42.893 27.8342C42.893 27.8342 43.0675 27.7649 43.0499 27.9439C43.0499 27.9439 43.242 27.8169 43.2131 28.0477C43.2131 28.0477 43.4111 27.9093 43.4806 28.1402C43.5505 28.371 43.2829 28.8616 43.0209 28.9886" stroke="black" stroke-width="0.0237624" stroke-miterlimit="4.8"/>
<path d="M43.1985 28.0727C43.1994 28.0789 43.2856 28.6914 42.9382 28.9156L42.9505 28.9349C43.3104 28.7027 43.2218 28.0757 43.2211 28.0694L43.1985 28.0728V28.0727Z" fill="black"/>
<path d="M42.7802 28.7435L42.7962 28.7599C43.0162 28.5458 43.0635 27.969 43.0652 27.9446L43.0427 27.9427C43.0421 27.9487 42.9943 28.5354 42.7802 28.7435V28.7435Z" fill="black"/>
<path d="M42.5747 28.6064L42.5974 28.6082C42.6257 28.252 42.9041 27.8446 42.9071 27.8405L42.8883 27.8277C42.8854 27.8317 42.6036 28.2442 42.5747 28.6064V28.6064Z" fill="black"/>
<path d="M42.4133 28.5024L42.436 28.5047C42.4756 28.075 42.7594 27.7524 42.7622 27.7493L42.7453 27.7341C42.7424 27.7373 42.4537 28.0652 42.4133 28.5024V28.5024Z" fill="black"/>
<path d="M42.1881 28.3589L42.2108 28.3597C42.2334 27.8524 42.5662 27.6033 42.5696 27.6009L42.5561 27.5825C42.5529 27.585 42.2112 27.8399 42.1881 28.3589V28.3589Z" fill="black"/>
<path d="M41.9802 28.2327L42.0031 28.2319C41.9864 27.7702 42.3414 27.4937 42.3451 27.4909L42.3313 27.4728C42.3277 27.4758 41.9633 27.759 41.9802 28.2326V28.2327Z" fill="black"/>
<path d="M41.6054 28.0639L41.6279 28.0667C41.6898 27.5668 42.1347 27.4367 42.1391 27.4355L42.1329 27.4136C42.1285 27.4148 41.6689 27.5487 41.6054 28.0639V28.0639Z" fill="black"/>
<path d="M41.0218 28.9832C41.0218 28.9832 40.9123 28.2498 41.3509 28.0192C41.3509 28.0192 41.4319 28.0018 41.4779 28.1057C41.4779 28.1057 41.7089 28.0077 41.7148 28.2036C41.7148 28.2036 41.8301 28.1114 41.859 28.2383C41.859 28.2383 42.1072 28.1865 42.061 28.3711C42.061 28.3711 42.2688 28.3134 42.2514 28.4922C42.2514 28.4922 42.4593 28.4172 42.4245 28.5731C42.4245 28.5731 42.6438 28.5213 42.592 28.7002C42.592 28.7002 42.8634 28.6714 42.7826 28.8618C42.7826 28.8618 42.9846 28.8099 42.9383 28.9658C42.9383 28.9658 43.2039 29.012 43.0826 29.1794C42.9614 29.3466 42.6554 29.6006 42.3555 29.7103" fill="#00AD50"/>
<path d="M41.0218 28.9832C41.0218 28.9832 40.9123 28.2498 41.3509 28.0192C41.3509 28.0192 41.4319 28.0018 41.4779 28.1057C41.4779 28.1057 41.7089 28.0077 41.7148 28.2036C41.7148 28.2036 41.8301 28.1114 41.859 28.2383C41.859 28.2383 42.1072 28.1865 42.061 28.3711C42.061 28.3711 42.2688 28.3134 42.2514 28.4922C42.2514 28.4922 42.4593 28.4172 42.4245 28.5731C42.4245 28.5731 42.6438 28.5213 42.592 28.7002C42.592 28.7002 42.8634 28.6714 42.7826 28.8618C42.7826 28.8618 42.9846 28.8099 42.9383 28.9658C42.9383 28.9658 43.2039 29.012 43.0826 29.1794C42.9614 29.3466 42.6554 29.6006 42.3555 29.7103" stroke="black" stroke-width="0.0237624" stroke-miterlimit="4.8"/>
<path d="M40.7851 29.7218C40.7851 29.7218 40.6061 29.1102 40.947 28.954C40.947 28.954 41.0101 28.9366 41.0217 29.0003C41.0217 29.0003 41.0969 28.902 41.1547 28.9888C41.1547 28.9888 41.3277 28.9079 41.3683 29.0349C41.3683 29.0349 41.4836 28.9366 41.5415 29.0808C41.5415 29.0808 41.6512 29.0349 41.6512 29.1502C41.6512 29.1502 41.8012 29.0867 41.8012 29.2253C41.8012 29.2253 41.9453 29.1676 41.9165 29.3233C41.9165 29.3233 42.136 29.3579 42.0725 29.4618C42.0725 29.4618 42.269 29.5136 42.1936 29.5947C42.1936 29.5947 42.4071 29.5716 42.2917 29.7158C42.2917 29.7158 42.4534 29.664 42.3611 29.8431C42.2686 30.0219 41.9802 30.2181 41.7781 30.2412" fill="#00AD50"/>
<path d="M40.7851 29.7218C40.7851 29.7218 40.6061 29.1102 40.947 28.954C40.947 28.954 41.0101 28.9366 41.0217 29.0003C41.0217 29.0003 41.0969 28.902 41.1547 28.9888C41.1547 28.9888 41.3277 28.9079 41.3683 29.0349C41.3683 29.0349 41.4836 28.9366 41.5415 29.0808C41.5415 29.0808 41.6512 29.0349 41.6512 29.1502C41.6512 29.1502 41.8012 29.0867 41.8012 29.2253C41.8012 29.2253 41.9453 29.1676 41.9165 29.3233C41.9165 29.3233 42.136 29.3579 42.0725 29.4618C42.0725 29.4618 42.269 29.5136 42.1936 29.5947C42.1936 29.5947 42.4071 29.5716 42.2917 29.7158C42.2917 29.7158 42.4534 29.664 42.3611 29.8431C42.2686 30.0219 41.9802 30.2181 41.7781 30.2412" stroke="black" stroke-width="0.0237624" stroke-miterlimit="4.8"/>
<path d="M40.9985 30.2064C40.9985 30.2064 40.6176 29.837 40.7968 29.7274C40.7968 29.7274 40.8773 29.7503 40.9062 29.8312C40.9062 29.8312 40.9985 29.6985 41.0507 29.8369C41.0507 29.8369 41.1893 29.7908 41.1893 29.8834L41.2987 29.9642C41.2987 29.9642 41.4259 29.9526 41.4029 30.0334C41.4029 30.0334 41.5414 30.016 41.5355 30.0911C41.5355 30.0911 41.6569 30.0968 41.6454 30.1775C41.6454 30.1775 41.8529 30.2121 41.7607 30.3162C41.7607 30.3162 41.397 30.3911 41.1431 30.2873C41.1431 30.2873 41.01 30.241 40.9985 30.2064H40.9985Z" fill="#00AD50" stroke="black" stroke-width="0.0237624" stroke-miterlimit="4.8"/>
<path d="M42.3049 29.596L42.3131 29.6172C42.5388 29.5303 42.9308 28.9952 42.9475 28.9724L42.9291 28.9588C42.925 28.9646 42.5244 29.5115 42.3049 29.596L42.3049 29.596Z" fill="black"/>
<path d="M42.1767 29.4985L42.1878 29.5183C42.3842 29.4087 42.7753 28.8908 42.7917 28.8687L42.7736 28.855C42.7697 28.8605 42.369 29.3913 42.1767 29.4985L42.1767 29.4985Z" fill="black"/>
<path d="M42.0654 29.453L42.08 29.4704C42.2874 29.2982 42.5895 28.7295 42.6024 28.7054L42.5823 28.6947C42.5792 28.7006 42.2694 29.2836 42.0654 29.453L42.0654 29.453Z" fill="black"/>
<path d="M41.9634 29.3218L41.986 29.3249C42.0253 29.0375 42.4292 28.585 42.4331 28.5805L42.4162 28.5653C42.3995 28.5841 42.0037 29.0275 41.9634 29.3218V29.3218Z" fill="black"/>
<path d="M41.155 28.9723L41.1777 28.9702C41.1438 28.5642 41.4837 28.1169 41.4872 28.1125L41.4691 28.0988C41.4655 28.1032 41.1204 28.5572 41.155 28.9723Z" fill="black"/>
<path d="M41.3688 29.0079L41.3914 29.004C41.3351 28.6784 41.7196 28.2154 41.7236 28.2109L41.7062 28.1961C41.69 28.2154 41.3109 28.6716 41.3688 29.0079Z" fill="black"/>
<path d="M41.6975 29.1277L41.7203 29.1271C41.7091 28.7554 42.0657 28.3829 42.0694 28.3791L42.053 28.3632C42.0494 28.367 41.686 28.7465 41.6975 29.1277V29.1277Z" fill="black"/>
<path d="M40.9134 29.801L40.9347 29.793C40.8052 29.4496 41.03 29.0099 41.0323 29.0056L41.0118 28.9951C41.0095 28.9996 40.7802 29.448 40.9134 29.801V29.801Z" fill="black"/>
<path d="M41.0629 29.8233L41.0846 29.8163C40.9716 29.4665 41.163 28.9977 41.1651 28.9931L41.1439 28.9844C41.1421 28.9889 40.9476 29.4656 41.0629 29.8233Z" fill="black"/>
<path d="M41.6817 30.1727L41.6895 30.1943C42.0578 30.0618 42.2986 29.7259 42.301 29.7227L42.2824 29.7094C42.2802 29.7127 42.0436 30.0429 41.6817 30.1727H41.6817Z" fill="black"/>
<path d="M41.6059 30.0926L41.6152 30.1134C41.9089 29.9809 42.1828 29.6111 42.1854 29.6073L42.1672 29.594C42.1644 29.5977 41.8942 29.9625 41.6059 30.0925L41.6059 30.0926Z" fill="black"/>
<path d="M41.5347 30.0648L41.548 30.0833C41.7778 29.9169 42.0729 29.4902 42.0761 29.4858L42.0573 29.4731C42.0543 29.4774 41.7614 29.9007 41.5347 30.0648L41.5347 30.0648Z" fill="black"/>
<path d="M41.1663 29.8505L41.1889 29.8472C41.1381 29.4802 41.3757 29.0448 41.3782 29.0405L41.3583 29.0295C41.3557 29.034 41.1145 29.4759 41.1663 29.8505V29.8505Z" fill="black"/>
<path d="M41.3262 29.95L41.3416 29.9669C41.5786 29.7529 41.6593 29.1762 41.6626 29.1518L41.64 29.1486C41.6393 29.1545 41.5572 29.7417 41.3262 29.95V29.95Z" fill="black"/>
<path d="M41.4886 30.0183L41.502 30.0367C41.8365 29.7948 41.9272 29.3301 41.928 29.3256L41.9057 29.3213C41.9048 29.3258 41.8159 29.7815 41.4886 30.0184V30.0183Z" fill="black"/>
<path d="M41.5272 29.0168C41.5272 29.0385 41.5283 29.0601 41.5303 29.0821C41.53 29.0802 41.2766 29.903 41.2766 29.903L41.2983 29.9097L41.5527 29.0843C41.5134 28.6852 41.8644 28.2497 41.8678 28.2454L41.8503 28.2311C41.8468 28.2351 41.5272 28.6318 41.5272 29.0168V29.0168Z" fill="black"/>
<path d="M41.7926 29.2178C41.7892 29.2293 41.712 29.7929 41.408 30.0009L41.4209 30.0196C41.7335 29.8058 41.8094 29.2501 41.8125 29.2267C41.9474 29.0661 42.2583 28.5032 42.2614 28.4976L42.2415 28.4866C42.2383 28.4922 41.9287 29.0534 41.7926 29.2178V29.2178Z" fill="black"/>
<path d="M40.895 29.8337C40.8973 29.8455 40.9481 30.1255 41.0062 30.2243L41.0258 30.2128C40.9696 30.1175 40.9181 29.8327 40.9176 29.8297L40.895 29.8337Z" fill="black"/>
<path d="M41.0391 29.8371C41.0416 29.9765 41.0423 30.2053 41.0345 30.2256L41.0556 30.2339C41.0673 30.2046 41.0629 29.8981 41.062 29.8369L41.0391 29.8371V29.8371Z" fill="black"/>
<path d="M41.052 30.2367L41.0727 30.2459C41.1703 30.0335 41.2003 29.887 41.2007 29.8857L41.1784 29.8812C41.178 29.8824 41.1485 30.0268 41.052 30.2367Z" fill="black"/>
<path d="M41.0737 30.2431L41.0853 30.2627C41.2663 30.1575 41.3083 29.9745 41.3098 29.9668L41.2876 29.9619C41.2871 29.9637 41.246 30.1431 41.0737 30.2431Z" fill="black"/>
<path d="M41.1074 30.2589L41.1097 30.2814C41.2871 30.2637 41.408 30.0482 41.4131 30.0391L41.3931 30.0281C41.392 30.0303 41.2729 30.2424 41.1074 30.2589Z" fill="black"/>
<path d="M41.1252 30.2703L41.1266 30.293C41.4115 30.2755 41.5397 30.1052 41.5448 30.098L41.5264 30.0845C41.5252 30.0861 41.3989 30.2536 41.1252 30.2703Z" fill="black"/>
<path d="M41.1455 30.2762L41.1409 30.2984C41.1562 30.3019 41.5192 30.3789 41.6434 30.1897L41.6244 30.1772C41.5088 30.3534 41.1491 30.2769 41.1455 30.2762Z" fill="black"/>
<path d="M33 17V27.153C33 30.4738 39 32.4455 39 32.4455C39 32.4455 45 30.4736 45 27.153V17H33Z" stroke="black" stroke-width="0.207921" stroke-miterlimit="4.8"/>
<mask id="mask1_1_32894" style="mask-type:alpha" maskUnits="userSpaceOnUse" x="3" y="6" width="24" height="18">
<rect x="3" y="6" width="24" height="18" fill="#C4C4C4"/>
</mask>
<g mask="url(#mask1_1_32894)">
<rect x="3" y="6" width="24" height="18" fill="#2E50A6"/>
<path d="M3 6L27 24L3 6ZM27 6L3 24L27 6Z" fill="black"/>
<path d="M27 6L3 24M3 6L27 24L3 6Z" stroke="white" stroke-width="2.4"/>
<path d="M3 6L27 24L3 6ZM27 6L3 24L27 6Z" fill="black"/>
<path d="M27 6L3 24M3 6L27 24L3 6Z" stroke="#EE5757" stroke-width="1.6"/>
<path d="M15 6V27V6ZM3 15H31H3Z" fill="black"/>
<path d="M3 15H31M15 6V27V6Z" stroke="white" stroke-width="4"/>
<path d="M15 6V27V6ZM3 15H31H3Z" fill="black"/>
<path d="M3 15H31M15 6V27V6Z" stroke="#EE5757" stroke-width="2.4"/>
</g>
</g>
</svg>
