<svg width="54" height="54" viewBox="0 0 54 54" fill="none" xmlns="http://www.w3.org/2000/svg">
<mask id="mask0_1_35847" style="mask-type:alpha" maskUnits="userSpaceOnUse" x="3" y="9" width="48" height="36">
<path d="M3.56934 18.1356C4.16681 13.4125 8.0415 10.0019 12.7861 9.60887C16.6412 9.28949 21.6196 9 27 9C32.3804 9 37.3588 9.28949 41.2139 9.60887C45.9585 10.0019 49.8332 13.4125 50.4307 18.1356C50.752 20.6759 51 23.704 51 27C51 30.296 50.752 33.3241 50.4307 35.8644C49.8332 40.5875 45.9585 43.9981 41.2139 44.3911C37.3588 44.7105 32.3804 45 27 45C21.6196 45 16.6412 44.7105 12.7861 44.3911C8.04151 43.9981 4.16681 40.5875 3.56934 35.8644C3.248 33.3241 3 30.296 3 27C3 23.704 3.248 20.6759 3.56934 18.1356Z" fill="#00D0BF"/>
</mask>
<g mask="url(#mask0_1_35847)">
<rect x="3" y="3" width="48" height="49" fill="#75AAFA"/>
<path d="M27 15L27.6735 17.0729H29.8532L28.0898 18.3541L28.7634 20.4271L27 19.1459L25.2366 20.4271L25.9102 18.3541L24.1468 17.0729H26.3265L27 15Z" fill="#F5F5F5"/>
<path d="M27 39L26.3265 36.9271L24.1468 36.9271L25.9102 35.6459L25.2366 33.5729L27 34.8541L28.7634 33.5729L28.0898 35.6459L29.8532 36.9271L27.6735 36.9271L27 39Z" fill="#F5F5F5"/>
<path d="M39 27L36.9271 27.6735L36.9271 29.8532L35.6459 28.0898L33.5729 28.7634L34.8541 27L33.5729 25.2366L35.6459 25.9102L36.9271 24.1468L36.9271 26.3265L39 27Z" fill="#F5F5F5"/>
<path d="M15 27L17.0729 26.3265L17.0729 24.1468L18.3541 25.9102L20.4271 25.2366L19.1459 27L20.4271 28.7634L18.3541 28.0898L17.0729 29.8532L17.0729 27.6735L15 27Z" fill="#F5F5F5"/>
</g>
</svg>
