<svg width="54" height="48" viewBox="0 0 54 48" fill="none" xmlns="http://www.w3.org/2000/svg">
<mask id="mask0_1_35847" style="mask-type:alpha" maskUnits="userSpaceOnUse" x="3" y="6" width="48" height="36">
<path d="M3.56934 15.1356C4.16681 10.4125 8.0415 7.00193 12.7861 6.60887C16.6412 6.28949 21.6196 6 27 6C32.3804 6 37.3588 6.28949 41.2139 6.60887C45.9585 7.00193 49.8332 10.4125 50.4307 15.1356C50.752 17.6759 51 20.704 51 24C51 27.296 50.752 30.3241 50.4307 32.8644C49.8332 37.5875 45.9585 40.9981 41.2139 41.3911C37.3588 41.7105 32.3804 42 27 42C21.6196 42 16.6412 41.7105 12.7861 41.3911C8.0415 40.9981 4.16681 37.5875 3.56934 32.8644C3.248 30.3241 3 27.296 3 24C3 20.704 3.248 17.6759 3.56934 15.1356Z" fill="#00D0BF"/>
</mask>
<g mask="url(#mask0_1_35847)">
<rect x="3" width="48" height="49" fill="#75AAFA"/>
<path d="M27 12L27.6735 14.0729H29.8532L28.0898 15.3541L28.7634 17.4271L27 16.1459L25.2366 17.4271L25.9102 15.3541L24.1468 14.0729H26.3265L27 12Z" fill="#F5F5F5"/>
<path d="M27 36L26.3265 33.9271L24.1468 33.9271L25.9102 32.6459L25.2366 30.5729L27 31.8541L28.7634 30.5729L28.0898 32.6459L29.8532 33.9271L27.6735 33.9271L27 36Z" fill="#F5F5F5"/>
<path d="M39 24L36.9271 24.6735L36.9271 26.8532L35.6459 25.0898L33.5729 25.7634L34.8541 24L33.5729 22.2366L35.6459 22.9102L36.9271 21.1468L36.9271 23.3265L39 24Z" fill="#F5F5F5"/>
<path d="M15 24L17.0729 23.3265L17.0729 21.1468L18.3541 22.9102L20.4271 22.2366L19.1459 24L20.4271 25.7634L18.3541 25.0898L17.0729 26.8532L17.0729 24.6735L15 24Z" fill="#F5F5F5"/>
</g>
</svg>
