<svg width="54" height="54" viewBox="0 0 54 54" fill="none" xmlns="http://www.w3.org/2000/svg">
<mask id="mask0_1_32055" style="mask-type:alpha" maskUnits="userSpaceOnUse" x="3" y="9" width="48" height="36">
<path d="M3.56934 18.1356C4.16681 13.4125 8.0415 10.0019 12.7861 9.60887C16.6412 9.28949 21.6196 9 27 9C32.3804 9 37.3588 9.28949 41.2139 9.60887C45.9585 10.0019 49.8332 13.4125 50.4307 18.1356C50.752 20.6759 51 23.704 51 27C51 30.296 50.752 33.3241 50.4307 35.8644C49.8332 40.5875 45.9585 43.9981 41.2139 44.3911C37.3588 44.7105 32.3804 45 27 45C21.6196 45 16.6412 44.7105 12.7861 44.3911C8.04151 43.9981 4.16681 40.5875 3.56934 35.8644C3.248 33.3241 3 30.296 3 27C3 23.704 3.248 20.6759 3.56934 18.1356Z" fill="#00D0BF"/>
</mask>
<g mask="url(#mask0_1_32055)">
<rect x="3" y="3" width="48" height="49" fill="#F5F5F5"/>
<path d="M13.5455 12L15 12.5L16.4546 12L16 16L16.4546 20L15 19.5L13.5455 20L14 16L13.5455 12Z" fill="#EE5757"/>
<path d="M13.5455 34L15 34.5L16.4546 34L16 38L16.4546 42L15 41.5L13.5455 42L14 38L13.5455 34Z" fill="#EE5757"/>
<path d="M37.5455 12L39 12.5L40.4546 12L40 16L40.4546 20L39 19.5L37.5455 20L38 16L37.5455 12Z" fill="#EE5757"/>
<path d="M37.5455 34L39 34.5L40.4546 34L40 38L40.4546 42L39 41.5L37.5455 42L38 38L37.5455 34Z" fill="#EE5757"/>
<path d="M19 14.5454L18.5 16L19 17.4545L15 17L11 17.4545L11.5 16L11 14.5454L15 15L19 14.5454Z" fill="#EE5757"/>
<path d="M19 36.5454L18.5 38L19 39.4545L15 39L11 39.4545L11.5 38L11 36.5454L15 37L19 36.5454Z" fill="#EE5757"/>
<path d="M43 14.5454L42.5 16L43 17.4545L39 17L35 17.4545L35.5 16L35 14.5454L39 15L43 14.5454Z" fill="#EE5757"/>
<path d="M43 36.5454L42.5 38L43 39.4545L39 39L35 39.4545L35.5 38L35 36.5454L39 37L43 36.5454Z" fill="#EE5757"/>
<path d="M27 8V46" stroke="#EE5757" stroke-width="8"/>
<path d="M52 27L2 27" stroke="#EE5757" stroke-width="8"/>
</g>
</svg>
