<svg width="54" height="48" viewBox="0 0 54 48" fill="none" xmlns="http://www.w3.org/2000/svg">
<mask id="mask0_1_32055" style="mask-type:alpha" maskUnits="userSpaceOnUse" x="3" y="6" width="48" height="36">
<path d="M3.56934 15.1356C4.16681 10.4125 8.0415 7.00193 12.7861 6.60887C16.6412 6.28949 21.6196 6 27 6C32.3804 6 37.3588 6.28949 41.2139 6.60887C45.9585 7.00193 49.8332 10.4125 50.4307 15.1356C50.752 17.6759 51 20.704 51 24C51 27.296 50.752 30.3241 50.4307 32.8644C49.8332 37.5875 45.9585 40.9981 41.2139 41.3911C37.3588 41.7105 32.3804 42 27 42C21.6196 42 16.6412 41.7105 12.7861 41.3911C8.0415 40.9981 4.16681 37.5875 3.56934 32.8644C3.248 30.3241 3 27.296 3 24C3 20.704 3.248 17.6759 3.56934 15.1356Z" fill="#00D0BF"/>
</mask>
<g mask="url(#mask0_1_32055)">
<rect x="3" width="48" height="49" fill="#F5F5F5"/>
<path d="M13.5455 9L15 9.5L16.4546 9L16 13L16.4546 17L15 16.5L13.5455 17L14 13L13.5455 9Z" fill="#EE5757"/>
<path d="M13.5455 31L15 31.5L16.4546 31L16 35L16.4546 39L15 38.5L13.5455 39L14 35L13.5455 31Z" fill="#EE5757"/>
<path d="M37.5455 9L39 9.5L40.4546 9L40 13L40.4546 17L39 16.5L37.5455 17L38 13L37.5455 9Z" fill="#EE5757"/>
<path d="M37.5455 31L39 31.5L40.4546 31L40 35L40.4546 39L39 38.5L37.5455 39L38 35L37.5455 31Z" fill="#EE5757"/>
<path d="M19 11.5454L18.5 13L19 14.4545L15 14L11 14.4545L11.5 13L11 11.5454L15 12L19 11.5454Z" fill="#EE5757"/>
<path d="M19 33.5454L18.5 35L19 36.4545L15 36L11 36.4545L11.5 35L11 33.5454L15 34L19 33.5454Z" fill="#EE5757"/>
<path d="M43 11.5454L42.5 13L43 14.4545L39 14L35 14.4545L35.5 13L35 11.5454L39 12L43 11.5454Z" fill="#EE5757"/>
<path d="M43 33.5454L42.5 35L43 36.4545L39 36L35 36.4545L35.5 35L35 33.5454L39 34L43 33.5454Z" fill="#EE5757"/>
<path d="M27 5V43" stroke="#EE5757" stroke-width="8"/>
<path d="M52 24L2 24" stroke="#EE5757" stroke-width="8"/>
</g>
</svg>
