<svg width="54" height="48" viewBox="0 0 54 48" fill="none" xmlns="http://www.w3.org/2000/svg">
<mask id="mask0_1_33286" style="mask-type:alpha" maskUnits="userSpaceOnUse" x="3" y="6" width="48" height="36">
<path d="M3.56934 15.1356C4.16681 10.4125 8.0415 7.00193 12.7861 6.60887C16.6412 6.28949 21.6196 6 27 6C32.3804 6 37.3588 6.28949 41.2139 6.60887C45.9585 7.00193 49.8332 10.4125 50.4307 15.1356C50.752 17.6759 51 20.704 51 24C51 27.296 50.752 30.3241 50.4307 32.8644C49.8332 37.5875 45.9585 40.9981 41.2139 41.3911C37.3588 41.7105 32.3804 42 27 42C21.6196 42 16.6412 41.7105 12.7861 41.3911C8.0415 40.9981 4.16681 37.5875 3.56934 32.8644C3.248 30.3241 3 27.296 3 24C3 20.704 3.248 17.6759 3.56934 15.1356Z" fill="#00D0BF"/>
</mask>
<g mask="url(#mask0_1_33286)">
<rect x="3" width="48" height="49" fill="#F5F5F5"/>
<path d="M27 5V43" stroke="#EE5757" stroke-width="8"/>
<path d="M52 24L2 24" stroke="#EE5757" stroke-width="8"/>
</g>
<rect x="26" y="14" width="2" height="20" fill="#FCD95E"/>
<rect x="37" y="23" width="2" height="20" transform="rotate(90 37 23)" fill="#FCD95E"/>
<path d="M20 24L17 25.7321L17 22.2679L20 24Z" fill="#FCD95E"/>
<path d="M34 24L37 22.2679L37 25.7321L34 24Z" fill="#FCD95E"/>
<path d="M27 17L25.2679 14L28.7321 14L27 17Z" fill="#FCD95E"/>
<path d="M27 31L28.7321 34L25.2679 34L27 31Z" fill="#FCD95E"/>
</svg>
