<svg width="54" height="54" viewBox="0 0 54 54" fill="none" xmlns="http://www.w3.org/2000/svg">
<mask id="mask0_1_39809" style="mask-type:alpha" maskUnits="userSpaceOnUse" x="3" y="9" width="48" height="36">
<path d="M3.56934 18.1356C4.16681 13.4125 8.0415 10.0019 12.7861 9.60887C16.6412 9.28949 21.6196 9 27 9C32.3804 9 37.3588 9.28949 41.2139 9.60887C45.9585 10.0019 49.8332 13.4125 50.4307 18.1356C50.752 20.6759 51 23.704 51 27C51 30.296 50.752 33.3241 50.4307 35.8644C49.8332 40.5875 45.9585 43.9981 41.2139 44.3911C37.3588 44.7105 32.3804 45 27 45C21.6196 45 16.6412 44.7105 12.7861 44.3911C8.04151 43.9981 4.16681 40.5875 3.56934 35.8644C3.248 33.3241 3 30.296 3 27C3 23.704 3.248 20.6759 3.56934 18.1356Z" fill="#00D0BF"/>
</mask>
<g mask="url(#mask0_1_39809)">
<rect x="3" y="33" width="48" height="12" fill="#EE5757"/>
<rect x="3" y="21" width="48" height="12" fill="#F5F5F5"/>
<rect x="3" y="9" width="48" height="12" fill="#F5F5F5"/>
<path d="M27.8597 24.0583H19.5961V29.7386H27.8597V24.0583Z" fill="black"/>
<path d="M23.889 28.9082H18.8445L17.7263 29.6442V30.424H23.889" fill="#DA000C"/>
<path d="M23.889 28.9082H18.8445L17.7263 29.6442V30.424H23.889" stroke="black" stroke-width="0.129119" stroke-linecap="square"/>
<path d="M21.7779 25.6452C22.5042 25.6452 23.0973 26.2507 23.0973 26.997V28.9055H24.0456V21.6748H18.8445V28.9055H20.4585V26.997C20.4585 26.2799 21.0414 25.6452 21.7779 25.6452Z" fill="#DA000C" stroke="black" stroke-width="0.129119" stroke-linecap="square"/>
<path d="M23.0152 16.7835H20.6235V21.1683H23.0152V16.7835Z" fill="black"/>
<path d="M23.0086 20.4886H20.9157V19.7461H19.3812V20.4886H18.3401V19.7461H17.7188V21.0938H23.0086V20.4886ZM18.3401 21.0889H22.8555V21.6748H18.3401V21.0889Z" fill="#DA000C" stroke="black" stroke-width="0.129119" stroke-linecap="square"/>
<path d="M20.1317 15.1906V19.7461H20.9157V18.4953C20.9157 18.0267 21.2465 17.6432 21.7093 17.6197C21.7243 17.6189 21.7386 17.6197 21.7537 17.6197C22.2374 17.6197 22.6293 18.0116 22.6293 18.4953V19.7461H23.3758V15.1906H20.1317Z" fill="#DA000C" stroke="black" stroke-width="0.129119" stroke-linecap="square"/>
<path d="M19.8492 14.5733V15.1907H23.6259V14.5733H19.8492Z" fill="#DA000C" stroke="black" stroke-width="0.129119" stroke-linecap="square"/>
<path d="M19.365 13.3911V14.5733H23.8963V13.3911H23.1982V13.9923H22.3549V13.3911H21.0677V13.9923H20.2244V13.3911H19.365Z" fill="#DA000C" stroke="black" stroke-width="0.129119" stroke-linecap="square"/>
<path d="M17.7263 29.6441H23.9124Z" fill="#DA000C"/>
<path d="M17.7263 29.6441H23.9124" stroke="black" stroke-width="0.129119" stroke-linecap="square"/>
<path d="M27.9151 29.2888H23.7268L22.4639 29.8981V30.806H27.9151" fill="#DA000C"/>
<path d="M27.9151 29.2888H23.7268L22.4639 29.8981V30.806H27.9151" stroke="black" stroke-width="0.129119" stroke-linecap="square"/>
<path d="M22.4625 29.8965H28.0442Z" fill="#DA000C"/>
<path d="M22.4625 29.8965H28.0442" stroke="black" stroke-width="0.129119"/>
<path d="M26.859 24.0583H35.1226V29.7386H26.859V24.0583Z" fill="black"/>
<path d="M30.8297 28.9082H35.8742L36.9924 29.6442V30.424H30.8297" fill="#DA000C"/>
<path d="M30.8297 28.9082H35.8742L36.9924 29.6442V30.424H30.8297" stroke="black" stroke-width="0.129119" stroke-linecap="square"/>
<path d="M32.9408 25.6452C32.2146 25.6452 31.6214 26.2507 31.6214 26.997V28.9055H30.6732V21.6748H35.8743V28.9055H34.2603V26.997C34.2603 26.2799 33.6773 25.6452 32.9408 25.6452Z" fill="#DA000C" stroke="black" stroke-width="0.129119" stroke-linecap="square"/>
<path d="M31.7035 16.7835H34.0952V21.1683H31.7035V16.7835Z" fill="black"/>
<path d="M31.7102 20.4886H33.803V19.7461H35.3376V20.4886H36.3786V19.7461H37V21.0938H31.7102V20.4886ZM36.3786 21.0889H31.8633V21.6748H36.3786V21.0889Z" fill="#DA000C" stroke="black" stroke-width="0.129119" stroke-linecap="square"/>
<path d="M34.5871 15.1906V19.7461H33.803V18.4953C33.803 18.0267 33.4722 17.6432 33.0094 17.6197C32.9945 17.6189 32.9802 17.6197 32.965 17.6197C32.4813 17.6197 32.0895 18.0116 32.0895 18.4953V19.7461H31.343V15.1906H34.5871Z" fill="#DA000C" stroke="black" stroke-width="0.129119" stroke-linecap="square"/>
<path d="M34.8696 14.5733V15.1907H31.0928V14.5733H34.8696Z" fill="#DA000C" stroke="black" stroke-width="0.129119" stroke-linecap="square"/>
<path d="M35.3538 13.3911V14.5733H30.8225V13.3911H31.5205V13.9923H32.3639V13.3911H33.651V13.9923H34.4943V13.3911H35.3538Z" fill="#DA000C" stroke="black" stroke-width="0.129119" stroke-linecap="square"/>
<path d="M36.9924 29.6441H30.8063Z" fill="#DA000C"/>
<path d="M36.9924 29.6441H30.8063" stroke="black" stroke-width="0.129119" stroke-linecap="square"/>
<path d="M26.8036 29.2888H30.9919L32.2549 29.8981V30.806H26.8036" fill="#DA000C"/>
<path d="M26.8036 29.2888H30.9919L32.2549 29.8981V30.806H26.8036" stroke="black" stroke-width="0.129119" stroke-linecap="square"/>
<path d="M32.2562 29.8965H26.6745Z" fill="#DA000C"/>
<path d="M32.2562 29.8965H26.6745" stroke="black" stroke-width="0.129119"/>
<path d="M29.5029 28.4131C29.1602 28.5272 28.8504 28.719 28.5385 28.8977C28.1382 29.1342 27.75 29.3919 27.3888 29.6852C27.2617 29.769 27.1397 29.8609 27.0416 29.9787C26.9091 30.092 26.775 30.244 26.8003 30.4323C26.807 30.5153 26.9131 30.3348 26.9829 30.326C27.1045 30.2562 27.2519 30.2337 27.3886 30.2652C27.5527 30.0924 27.7643 29.9765 27.947 29.8254C28.335 29.5359 28.7523 29.2873 29.1769 29.0557C29.3251 28.9798 29.474 28.9026 29.632 28.8489C29.589 28.7037 29.5459 28.5584 29.5029 28.4131V28.4131Z" fill="#F8D80E" stroke="black" stroke-width="0.0991633" stroke-linecap="round"/>
<path d="M27.8377 29.3635V29.8686Z" fill="#F8D80E"/>
<path d="M27.8377 29.3635V29.8686" stroke="black" stroke-width="0.129119" stroke-linecap="round"/>
<path d="M28.1497 29.1432V29.6446Z" fill="#F8D80E"/>
<path d="M28.1497 29.1432V29.6446" stroke="black" stroke-width="0.129119" stroke-linecap="round"/>
<path d="M28.4617 28.9489V29.447Z" fill="#F8D80E"/>
<path d="M28.4617 28.9489V29.447" stroke="black" stroke-width="0.129119" stroke-linecap="round"/>
<path d="M28.7737 28.757V29.271Z" fill="#F8D80E"/>
<path d="M28.7737 28.757V29.271" stroke="black" stroke-width="0.129119" stroke-linecap="round"/>
<path d="M25.0604 28.4293C25.0093 28.5719 24.9582 28.7144 24.9071 28.857C25.622 29.1282 26.3027 29.4869 26.9469 29.8977C27.1652 30.0463 27.3946 30.1904 27.5661 30.3943C27.6039 30.499 27.4998 30.5866 27.3965 30.5549C27.3019 30.5228 27.2088 30.4863 27.109 30.5544C26.9662 30.6194 26.8371 30.8309 27.054 30.9019C27.353 31.1027 27.8393 31.0154 27.983 30.6636C28.0581 30.4827 28.0629 30.2511 27.9175 30.1027C27.6511 29.7974 27.298 29.5852 26.9592 29.3703C26.3537 29.0062 25.7232 28.6765 25.0604 28.4293L25.0604 28.4293Z" fill="#F8D80E" stroke="black" stroke-width="0.0991633" stroke-linecap="round"/>
<path d="M27.0178 29.4467L26.9774 29.8778Z" fill="#F8D80E"/>
<path d="M27.0178 29.4467L26.9774 29.8778" stroke="black" stroke-width="0.129119" stroke-linecap="round"/>
<path d="M27.3769 29.6667L27.2656 30.0888Z" fill="#F8D80E"/>
<path d="M27.3769 29.6667L27.2656 30.0888" stroke="black" stroke-width="0.129119" stroke-linecap="round"/>
<path d="M27.7607 29.9601L27.5272 30.2877Z" fill="#F8D80E"/>
<path d="M27.7607 29.9601L27.5272 30.2877" stroke="black" stroke-width="0.129119" stroke-linecap="round"/>
<path d="M27.8783 30.7566L27.5413 30.5758Z" fill="#F8D80E"/>
<path d="M27.8783 30.7566L27.5413 30.5758" stroke="black" stroke-width="0.129119" stroke-linecap="round"/>
<path d="M27.9833 30.4013L27.5965 30.4375Z" fill="#F8D80E"/>
<path d="M27.9833 30.4013L27.5965 30.4375" stroke="black" stroke-width="0.129119" stroke-linecap="round"/>
<path d="M27.4845 30.9611L27.458 30.6212Z" fill="#F8D80E"/>
<path d="M27.4845 30.9611L27.458 30.6212" stroke="black" stroke-width="0.129119" stroke-linecap="round"/>
<path d="M27.3429 30.5726L27.0236 30.8079Z" fill="#F8D80E"/>
<path d="M27.3429 30.5726L27.0236 30.8079" stroke="black" stroke-width="0.129119" stroke-linecap="round"/>
<path d="M25.8075 28.7883V29.1905Z" fill="#F8D80E"/>
<path d="M25.8075 28.7883V29.1905" stroke="black" stroke-width="0.129119" stroke-linecap="round"/>
<path d="M26.6192 29.2153V29.6717Z" fill="#F8D80E"/>
<path d="M26.6192 29.2153V29.6717" stroke="black" stroke-width="0.129119" stroke-linecap="round"/>
<path d="M26.2133 29.0022V29.4307Z" fill="#F8D80E"/>
<path d="M26.2133 29.0022V29.4307" stroke="black" stroke-width="0.129119" stroke-linecap="round"/>
<path d="M24.6589 38.424V39.4609H25.3085V38.9404H26.1922V39.4609H26.8902V38.424H24.6589ZM24.6589 39.8523V40.8933H26.8902V39.8523H26.1922V40.3728H25.3085V39.8523H24.6589Z" fill="#F8D80E" stroke="black" stroke-width="0.129119"/>
<path d="M27.5332 34.0454H26.8889V41.5491H27.5332V34.0454Z" fill="#F8D80E" stroke="black" stroke-width="0.129119"/>
<path d="M27.5332 34.6945H26.8889V41.1583H27.5332V34.6945Z" fill="#F8D80E" stroke="black" stroke-width="0.129119"/>
<path d="M27.211 32.2061L28.5829 33.005L27.211 33.7999L25.8391 33.005L27.211 32.2061ZM25.3751 32.7185H25.016V33.2915H25.3751L27.211 34.3567L29.0469 33.2915H29.406V32.7185H29.0469L27.211 31.6533L25.3751 32.7185Z" fill="#F8D80E" stroke="black" stroke-width="0.132218"/>
<path d="M27.1848 30.2531C26.8725 30.2969 26.6391 30.6056 26.6562 30.916C26.6574 31.3986 26.6538 31.8814 26.658 32.3639C26.6746 32.6748 26.9463 32.9535 27.2616 32.9563C27.5179 32.9806 27.7753 32.8308 27.8829 32.5974C27.8089 32.553 27.7349 32.5087 27.6609 32.4643C27.6036 32.6171 27.4384 32.7119 27.2776 32.6943C27.0665 32.7002 26.8955 32.4949 26.9145 32.2896C26.9157 31.8101 26.912 31.3305 26.9163 30.8511C26.928 30.6555 27.1145 30.4954 27.3099 30.5154C27.3908 30.4922 27.502 30.6028 27.5519 30.5073C27.6273 30.4002 27.4984 30.3166 27.4269 30.2572C27.3477 30.2463 27.2649 30.2561 27.1848 30.2531L27.1848 30.2531ZM27.9313 30.7575C27.8801 30.8538 27.7742 30.911 27.6892 30.9615V31.9317C27.7752 31.9814 27.8613 32.0312 27.9474 32.0809C27.9464 31.6673 27.9494 31.2535 27.9459 30.8399C27.9418 30.8145 27.9449 30.7756 27.9313 30.7575H27.9313Z" fill="#F8D80E" stroke="black" stroke-width="0.132218"/>
<path d="M29.0941 13.9932H25.3073V20.8694H29.0941V13.9932Z" fill="black"/>
<path d="M25.0422 13.9963V19.7501H26.2446V18.0433C26.2446 17.6497 26.4967 17.1032 27.2695 17.1032C28.0423 17.1032 28.2944 17.6497 28.2944 18.0433V19.7501H29.4968V13.9963H25.0422ZM27.0839 14.6419H27.4551V16.6109H27.0839V14.6419ZM26.0186 15.0292H26.3939V16.4697H26.0186V15.0292ZM28.1451 15.0292H28.5203V16.4697H28.1451V15.0292Z" fill="#DA000C" stroke="black" stroke-width="0.129119"/>
<path d="M24.6346 13.1691V13.9882H29.9043V13.1691H24.6346Z" fill="#DA000C" stroke="black" stroke-width="0.129119"/>
<path d="M24.1384 12.2169V13.1691H30.4006V12.2169H29.6138V12.7414H28.7261V12.2169H27.7133V12.7414H26.8257V12.2169H25.8129V12.7414H24.9252V12.2169H24.1384Z" fill="#DA000C" stroke="black" stroke-width="0.129119"/>
<path d="M22.9763 21.6748V22.2679H31.5627V21.6748H22.9763Z" fill="#DA000C" stroke="black" stroke-width="0.129119"/>
<path d="M22.6252 19.7461V21.6748H31.9137V19.7461H31.0341V20.4885H29.864V19.7461H28.2944V20.4885H26.2446V19.7461H24.675V20.4885H23.5049V19.7461H22.6252Z" fill="#DA000C" stroke="black" stroke-width="0.129119"/>
<path d="M23.7429 22.2679V29.2847H25.4013V26.658C25.4013 25.4207 26.2272 24.8382 27.2695 24.8382C28.2713 24.8382 29.1377 25.4207 29.1377 26.658V29.2847H30.796V22.2679H23.7429Z" fill="#DA000C" stroke="black" stroke-width="0.129119" stroke-linejoin="round"/>
</g>
</svg>
