<svg width="54" height="48" viewBox="0 0 54 48" fill="none" xmlns="http://www.w3.org/2000/svg">
<mask id="mask0_1_39809" style="mask-type:alpha" maskUnits="userSpaceOnUse" x="3" y="6" width="48" height="36">
<path d="M3.56934 15.1356C4.16681 10.4125 8.0415 7.00193 12.7861 6.60887C16.6412 6.28949 21.6196 6 27 6C32.3804 6 37.3588 6.28949 41.2139 6.60887C45.9585 7.00193 49.8332 10.4125 50.4307 15.1356C50.752 17.6759 51 20.704 51 24C51 27.296 50.752 30.3241 50.4307 32.8644C49.8332 37.5875 45.9585 40.9981 41.2139 41.3911C37.3588 41.7105 32.3804 42 27 42C21.6196 42 16.6412 41.7105 12.7861 41.3911C8.0415 40.9981 4.16681 37.5875 3.56934 32.8644C3.248 30.3241 3 27.296 3 24C3 20.704 3.248 17.6759 3.56934 15.1356Z" fill="#00D0BF"/>
</mask>
<g mask="url(#mask0_1_39809)">
<rect x="3" y="30" width="48" height="12" fill="#EE5757"/>
<rect x="3" y="18" width="48" height="12" fill="#F5F5F5"/>
<rect x="3" y="6" width="48" height="12" fill="#F5F5F5"/>
<path d="M27.8597 21.0583H19.5961V26.7386H27.8597V21.0583Z" fill="black"/>
<path d="M23.889 25.9082H18.8445L17.7263 26.6442V27.424H23.889" fill="#DA000C"/>
<path d="M23.889 25.9082H18.8445L17.7263 26.6442V27.424H23.889" stroke="black" stroke-width="0.129119" stroke-linecap="square"/>
<path d="M21.7779 22.6452C22.5042 22.6452 23.0973 23.2507 23.0973 23.997V25.9055H24.0456V18.6748H18.8445V25.9055H20.4585V23.997C20.4585 23.2799 21.0414 22.6452 21.7779 22.6452Z" fill="#DA000C" stroke="black" stroke-width="0.129119" stroke-linecap="square"/>
<path d="M23.0152 13.7835H20.6235V18.1683H23.0152V13.7835Z" fill="black"/>
<path d="M23.0086 17.4886H20.9157V16.7461H19.3812V17.4886H18.3401V16.7461H17.7188V18.0938H23.0086V17.4886ZM18.3401 18.0889H22.8555V18.6748H18.3401V18.0889Z" fill="#DA000C" stroke="black" stroke-width="0.129119" stroke-linecap="square"/>
<path d="M20.1317 12.1906V16.7461H20.9157V15.4953C20.9157 15.0267 21.2465 14.6432 21.7093 14.6197C21.7243 14.6189 21.7386 14.6197 21.7537 14.6197C22.2374 14.6197 22.6293 15.0116 22.6293 15.4953V16.7461H23.3758V12.1906H20.1317Z" fill="#DA000C" stroke="black" stroke-width="0.129119" stroke-linecap="square"/>
<path d="M19.8492 11.5733V12.1907H23.6259V11.5733H19.8492Z" fill="#DA000C" stroke="black" stroke-width="0.129119" stroke-linecap="square"/>
<path d="M19.365 10.3911V11.5733H23.8963V10.3911H23.1982V10.9923H22.3549V10.3911H21.0677V10.9923H20.2244V10.3911H19.365Z" fill="#DA000C" stroke="black" stroke-width="0.129119" stroke-linecap="square"/>
<path d="M17.7263 26.6441H23.9124H17.7263Z" fill="#DA000C"/>
<path d="M17.7263 26.6441H23.9124" stroke="black" stroke-width="0.129119" stroke-linecap="square"/>
<path d="M27.9151 26.2888H23.7268L22.4639 26.8981V27.806H27.9151" fill="#DA000C"/>
<path d="M27.9151 26.2888H23.7268L22.4639 26.8981V27.806H27.9151" stroke="black" stroke-width="0.129119" stroke-linecap="square"/>
<path d="M22.4625 26.8965H28.0442H22.4625Z" fill="#DA000C"/>
<path d="M22.4625 26.8965H28.0442" stroke="black" stroke-width="0.129119"/>
<path d="M26.859 21.0583H35.1226V26.7386H26.859V21.0583Z" fill="black"/>
<path d="M30.8297 25.9082H35.8742L36.9924 26.6442V27.424H30.8297" fill="#DA000C"/>
<path d="M30.8297 25.9082H35.8742L36.9924 26.6442V27.424H30.8297" stroke="black" stroke-width="0.129119" stroke-linecap="square"/>
<path d="M32.9408 22.6452C32.2146 22.6452 31.6214 23.2507 31.6214 23.997V25.9055H30.6732V18.6748H35.8743V25.9055H34.2603V23.997C34.2603 23.2799 33.6773 22.6452 32.9408 22.6452Z" fill="#DA000C" stroke="black" stroke-width="0.129119" stroke-linecap="square"/>
<path d="M31.7035 13.7835H34.0952V18.1683H31.7035V13.7835Z" fill="black"/>
<path d="M31.7102 17.4886H33.803V16.7461H35.3376V17.4886H36.3786V16.7461H37V18.0938H31.7102V17.4886ZM36.3786 18.0889H31.8633V18.6748H36.3786V18.0889Z" fill="#DA000C" stroke="black" stroke-width="0.129119" stroke-linecap="square"/>
<path d="M34.5871 12.1906V16.7461H33.803V15.4953C33.803 15.0267 33.4722 14.6432 33.0094 14.6197C32.9945 14.6189 32.9802 14.6197 32.965 14.6197C32.4813 14.6197 32.0895 15.0116 32.0895 15.4953V16.7461H31.343V12.1906H34.5871Z" fill="#DA000C" stroke="black" stroke-width="0.129119" stroke-linecap="square"/>
<path d="M34.8696 11.5733V12.1907H31.0928V11.5733H34.8696Z" fill="#DA000C" stroke="black" stroke-width="0.129119" stroke-linecap="square"/>
<path d="M35.3538 10.3911V11.5733H30.8225V10.3911H31.5205V10.9923H32.3639V10.3911H33.651V10.9923H34.4943V10.3911H35.3538Z" fill="#DA000C" stroke="black" stroke-width="0.129119" stroke-linecap="square"/>
<path d="M36.9924 26.6441H30.8063H36.9924Z" fill="#DA000C"/>
<path d="M36.9924 26.6441H30.8063" stroke="black" stroke-width="0.129119" stroke-linecap="square"/>
<path d="M26.8036 26.2888H30.9919L32.2549 26.8981V27.806H26.8036" fill="#DA000C"/>
<path d="M26.8036 26.2888H30.9919L32.2549 26.8981V27.806H26.8036" stroke="black" stroke-width="0.129119" stroke-linecap="square"/>
<path d="M32.2562 26.8965H26.6745H32.2562Z" fill="#DA000C"/>
<path d="M32.2562 26.8965H26.6745" stroke="black" stroke-width="0.129119"/>
<path d="M29.5029 25.4131C29.1602 25.5272 28.8504 25.719 28.5385 25.8977C28.1382 26.1342 27.75 26.3919 27.3888 26.6852C27.2617 26.769 27.1397 26.8609 27.0416 26.9787C26.9091 27.092 26.775 27.244 26.8003 27.4323C26.807 27.5153 26.9131 27.3348 26.9829 27.326C27.1045 27.2562 27.2519 27.2337 27.3886 27.2652C27.5527 27.0924 27.7643 26.9765 27.947 26.8254C28.335 26.5359 28.7523 26.2873 29.1769 26.0557C29.3251 25.9798 29.474 25.9026 29.632 25.8489C29.589 25.7037 29.5459 25.5584 29.5029 25.4131Z" fill="#F8D80E" stroke="black" stroke-width="0.0991633" stroke-linecap="round"/>
<path d="M27.8377 26.3635V26.8686V26.3635Z" fill="#F8D80E"/>
<path d="M27.8377 26.3635V26.8686" stroke="black" stroke-width="0.129119" stroke-linecap="round"/>
<path d="M28.1497 26.1432V26.6446V26.1432Z" fill="#F8D80E"/>
<path d="M28.1497 26.1432V26.6446" stroke="black" stroke-width="0.129119" stroke-linecap="round"/>
<path d="M28.4617 25.9489V26.447V25.9489Z" fill="#F8D80E"/>
<path d="M28.4617 25.9489V26.447" stroke="black" stroke-width="0.129119" stroke-linecap="round"/>
<path d="M28.7737 25.757V26.271V25.757Z" fill="#F8D80E"/>
<path d="M28.7737 25.757V26.271" stroke="black" stroke-width="0.129119" stroke-linecap="round"/>
<path d="M25.0604 25.4293C25.0093 25.5719 24.9582 25.7144 24.9071 25.857C25.622 26.1282 26.3027 26.4869 26.9469 26.8977C27.1652 27.0463 27.3946 27.1904 27.5661 27.3943C27.6039 27.499 27.4998 27.5866 27.3965 27.5549C27.3019 27.5228 27.2088 27.4863 27.109 27.5544C26.9662 27.6194 26.8371 27.8309 27.054 27.9019C27.353 28.1027 27.8393 28.0154 27.983 27.6636C28.0581 27.4827 28.0629 27.2511 27.9175 27.1027C27.6511 26.7974 27.298 26.5852 26.9592 26.3703C26.3537 26.0062 25.7232 25.6765 25.0604 25.4293L25.0604 25.4293Z" fill="#F8D80E" stroke="black" stroke-width="0.0991633" stroke-linecap="round"/>
<path d="M27.0178 26.4467L26.9774 26.8778L27.0178 26.4467Z" fill="#F8D80E"/>
<path d="M27.0178 26.4467L26.9774 26.8778" stroke="black" stroke-width="0.129119" stroke-linecap="round"/>
<path d="M27.3769 26.6667L27.2656 27.0888L27.3769 26.6667Z" fill="#F8D80E"/>
<path d="M27.3769 26.6667L27.2656 27.0888" stroke="black" stroke-width="0.129119" stroke-linecap="round"/>
<path d="M27.7607 26.9601L27.5272 27.2877L27.7607 26.9601Z" fill="#F8D80E"/>
<path d="M27.7607 26.9601L27.5272 27.2877" stroke="black" stroke-width="0.129119" stroke-linecap="round"/>
<path d="M27.8783 27.7566L27.5413 27.5758L27.8783 27.7566Z" fill="#F8D80E"/>
<path d="M27.8783 27.7566L27.5413 27.5758" stroke="black" stroke-width="0.129119" stroke-linecap="round"/>
<path d="M27.9833 27.4013L27.5965 27.4375L27.9833 27.4013Z" fill="#F8D80E"/>
<path d="M27.9833 27.4013L27.5965 27.4375" stroke="black" stroke-width="0.129119" stroke-linecap="round"/>
<path d="M27.4845 27.9611L27.458 27.6212L27.4845 27.9611Z" fill="#F8D80E"/>
<path d="M27.4845 27.9611L27.458 27.6212" stroke="black" stroke-width="0.129119" stroke-linecap="round"/>
<path d="M27.3429 27.5726L27.0236 27.8079L27.3429 27.5726Z" fill="#F8D80E"/>
<path d="M27.3429 27.5726L27.0236 27.8079" stroke="black" stroke-width="0.129119" stroke-linecap="round"/>
<path d="M25.8075 25.7883V26.1905V25.7883Z" fill="#F8D80E"/>
<path d="M25.8075 25.7883V26.1905" stroke="black" stroke-width="0.129119" stroke-linecap="round"/>
<path d="M26.6192 26.2153V26.6717V26.2153Z" fill="#F8D80E"/>
<path d="M26.6192 26.2153V26.6717" stroke="black" stroke-width="0.129119" stroke-linecap="round"/>
<path d="M26.2133 26.0022V26.4307V26.0022Z" fill="#F8D80E"/>
<path d="M26.2133 26.0022V26.4307" stroke="black" stroke-width="0.129119" stroke-linecap="round"/>
<path d="M24.6589 35.424V36.4609H25.3085V35.9404H26.1922V36.4609H26.8902V35.424H24.6589ZM24.6589 36.8523V37.8933H26.8902V36.8523H26.1922V37.3728H25.3085V36.8523H24.6589Z" fill="#F8D80E" stroke="black" stroke-width="0.129119"/>
<path d="M27.5332 31.0454H26.8889V38.5491H27.5332V31.0454Z" fill="#F8D80E" stroke="black" stroke-width="0.129119"/>
<path d="M27.5332 31.6945H26.8889V38.1583H27.5332V31.6945Z" fill="#F8D80E" stroke="black" stroke-width="0.129119"/>
<path d="M27.211 29.2061L28.5829 30.005L27.211 30.7999L25.8391 30.005L27.211 29.2061ZM25.3751 29.7185H25.016V30.2915H25.3751L27.211 31.3567L29.0469 30.2915H29.406V29.7185H29.0469L27.211 28.6533L25.3751 29.7185Z" fill="#F8D80E" stroke="black" stroke-width="0.132218"/>
<path d="M27.1848 27.2531C26.8725 27.2969 26.6391 27.6056 26.6562 27.916C26.6574 28.3986 26.6538 28.8814 26.658 29.3639C26.6746 29.6748 26.9463 29.9535 27.2616 29.9563C27.5179 29.9806 27.7753 29.8308 27.8829 29.5974C27.8089 29.553 27.7349 29.5087 27.6609 29.4643C27.6036 29.6171 27.4384 29.7119 27.2776 29.6943C27.0665 29.7002 26.8955 29.4949 26.9145 29.2896C26.9157 28.8101 26.912 28.3305 26.9163 27.8511C26.928 27.6555 27.1145 27.4954 27.3099 27.5154C27.3908 27.4922 27.502 27.6028 27.5519 27.5073C27.6273 27.4002 27.4984 27.3166 27.4269 27.2572C27.3477 27.2463 27.2649 27.2561 27.1848 27.2531L27.1848 27.2531ZM27.9313 27.7575C27.8801 27.8538 27.7742 27.911 27.6892 27.9615V28.9317C27.7752 28.9814 27.8613 29.0312 27.9474 29.0809C27.9464 28.6673 27.9494 28.2535 27.9459 27.8399C27.9418 27.8145 27.9449 27.7756 27.9313 27.7575H27.9313Z" fill="#F8D80E" stroke="black" stroke-width="0.132218"/>
<path d="M29.0941 10.9932H25.3073V17.8694H29.0941V10.9932Z" fill="black"/>
<path d="M25.0422 10.9963V16.7501H26.2446V15.0433C26.2446 14.6497 26.4967 14.1032 27.2695 14.1032C28.0422 14.1032 28.2944 14.6497 28.2944 15.0433V16.7501H29.4968V10.9963H25.0422ZM27.0839 11.6419H27.4551V13.6109H27.0839V11.6419ZM26.0186 12.0292H26.3939V13.4697H26.0186V12.0292ZM28.1451 12.0292H28.5203V13.4697H28.1451V12.0292Z" fill="#DA000C" stroke="black" stroke-width="0.129119"/>
<path d="M24.6346 10.1691V10.9882H29.9043V10.1691H24.6346Z" fill="#DA000C" stroke="black" stroke-width="0.129119"/>
<path d="M24.1384 9.21686V10.1691H30.4006V9.21686H29.6138V9.7414H28.7261V9.21686H27.7133V9.7414H26.8257V9.21686H25.8129V9.7414H24.9252V9.21686H24.1384Z" fill="#DA000C" stroke="black" stroke-width="0.129119"/>
<path d="M22.9763 18.6748V19.2679H31.5627V18.6748H22.9763Z" fill="#DA000C" stroke="black" stroke-width="0.129119"/>
<path d="M22.6252 16.7461V18.6748H31.9137V16.7461H31.0341V17.4885H29.864V16.7461H28.2944V17.4885H26.2446V16.7461H24.675V17.4885H23.5049V16.7461H22.6252Z" fill="#DA000C" stroke="black" stroke-width="0.129119"/>
<path d="M23.7429 19.2679V26.2847H25.4013V23.658C25.4013 22.4207 26.2272 21.8382 27.2695 21.8382C28.2713 21.8382 29.1377 22.4207 29.1377 23.658V26.2847H30.796V19.2679H23.7429Z" fill="#DA000C" stroke="black" stroke-width="0.129119" stroke-linejoin="round"/>
</g>
</svg>
