<svg width="54" height="54" viewBox="0 0 54 54" fill="none" xmlns="http://www.w3.org/2000/svg">
<mask id="mask0_1_37142" style="mask-type:alpha" maskUnits="userSpaceOnUse" x="3" y="9" width="48" height="36">
<path d="M3.56934 18.1356C4.16681 13.4125 8.0415 10.0019 12.7861 9.60887C16.6412 9.28949 21.6196 9 27 9C32.3804 9 37.3588 9.28949 41.2139 9.60887C45.9585 10.0019 49.8332 13.4125 50.4307 18.1356C50.752 20.6759 51 23.704 51 27C51 30.296 50.752 33.3241 50.4307 35.8644C49.8332 40.5875 45.9585 43.9981 41.2139 44.3911C37.3588 44.7105 32.3804 45 27 45C21.6196 45 16.6412 44.7105 12.7861 44.3911C8.04151 43.9981 4.16681 40.5875 3.56934 35.8644C3.248 33.3241 3 30.296 3 27C3 23.704 3.248 20.6759 3.56934 18.1356Z" fill="#00D0BF"/>
</mask>
<g mask="url(#mask0_1_37142)">
<rect x="3" y="33" width="48" height="12" fill="#EE5757"/>
<rect x="3" y="21" width="48" height="12" fill="#F5F5F5"/>
<path d="M24.5062 23.8899H29.5971V29.2227C29.5971 31.0172 27.2577 29.6348 27.0583 30.5918C26.7127 29.6082 24.5195 31.0305 24.5195 29.1164C24.5195 27.2555 24.5062 23.8899 24.5062 23.8899Z" fill="white" stroke="black" stroke-width="0.0638024"/>
<path d="M27.4173 29.7411C27.4173 29.7411 27.3508 29.8076 27.2312 29.7544C27.1116 29.7013 27.0983 26.3384 27.0983 26.3384C27.3641 26.0459 27.5768 25.9529 27.5768 25.9529L27.7363 26.0858C27.1381 26.3915 27.1913 26.8302 27.2445 27.5878C27.2578 27.867 27.2578 28.2258 27.3242 28.5714C27.4173 29.0101 27.6034 29.3823 27.6167 29.6614C27.63 29.8342 27.4173 29.7411 27.4173 29.7411Z" fill="#73452B" stroke="black" stroke-width="0.0132922"/>
<path d="M27.0052 25.8731H27.2445C27.0451 27.8005 27.2179 28.9436 27.2179 29.5019C27.2179 29.688 27.3242 29.7544 27.3109 29.7544C27.0717 30.0203 26.952 29.7412 26.952 29.7412L27.0052 25.8731Z" fill="#73452B" stroke="black" stroke-width="0.0132922"/>
<path d="M26.6329 29.7411C26.407 29.8475 26.3804 29.6348 26.3937 29.6082C26.8855 28.6113 27.0982 26.4181 26.6462 26.1788L26.6728 25.9662C26.8456 26.0193 27.0051 26.2453 27.0051 26.2453C27.0716 28.7043 27.0051 29.7145 26.9652 29.7544C26.726 30.007 26.6329 29.7145 26.6196 29.688" fill="#A36629"/>
<path d="M26.6329 29.7411C26.407 29.8475 26.3804 29.6348 26.3937 29.6082C26.8855 28.6113 27.0982 26.4181 26.6462 26.1788L26.6728 25.9662C26.8456 26.0193 27.0051 26.2453 27.0051 26.2453C27.0716 28.7043 27.0051 29.7145 26.9652 29.7544C26.726 30.007 26.6329 29.7145 26.6196 29.688" stroke="black" stroke-width="0.0132922"/>
<path d="M26.6197 29.7013C26.5798 29.4886 26.9653 28.9436 26.9387 28.372" stroke="black" stroke-width="0.0132922"/>
<path d="M27.271 28.8373C27.3906 29.1696 27.4438 29.462 27.4172 29.7411" stroke="black" stroke-width="0.0132922"/>
<path d="M27.7894 24.9693C27.8692 24.8762 27.8692 24.8762 28.0154 24.8762C28.042 24.6768 28.3743 24.6768 28.4009 24.9294C28.6667 24.8762 28.7199 25.0357 28.6136 25.1952C28.8661 25.1288 29.0921 25.1952 29.0256 25.4876C29.4775 25.6073 29.3048 25.9263 29.1054 25.9928C29.0788 26.1921 28.8927 26.2586 28.6401 26.1788C28.3211 26.4048 28.135 26.3251 27.9888 26.0991C27.6299 26.1523 27.6034 26.0725 27.4438 25.8731C27.1647 25.9928 27.1115 25.9928 26.8723 25.8465C26.859 26.0326 26.7925 25.9795 26.6729 25.9662C26.6862 26.2054 26.5932 26.3118 26.3805 26.232C26.54 26.5643 26.1279 26.7105 25.9285 26.4314C25.7425 26.4447 25.7292 26.3915 25.6361 26.3251C25.5564 26.5909 25.2639 26.551 25.2108 26.4048C24.8386 26.3516 24.8785 26.1523 25.1842 26.139C25.2108 25.9263 25.3969 25.9662 25.5165 25.9928C25.5298 25.8598 25.6095 25.8864 25.676 25.913C25.6361 25.82 25.6627 25.7668 25.7823 25.7402C25.6095 25.5142 25.7159 25.4345 25.8887 25.3547C25.7956 25.1421 25.9551 25.1553 26.0748 25.1421C26.0615 24.9161 26.1279 24.8762 26.3672 24.8496C26.3406 24.7699 26.3805 24.7034 26.5134 24.7034C26.4336 24.4774 26.54 24.4256 26.7792 24.4642C26.8191 24.1358 27.5236 24.2914 27.4704 24.7433C27.6698 24.7699 27.7363 24.8097 27.7894 24.9693Z" fill="#009A3B" stroke="black" stroke-width="0.0132922"/>
<path d="M26.3672 24.8496C26.4204 24.8762 26.4868 24.8496 26.5001 24.9958C26.6064 24.8097 26.7394 24.9161 26.7394 25.1287" stroke="black" stroke-width="0.0132922"/>
<path d="M27.4705 24.7433C27.4173 24.823 27.2179 24.823 27.2445 25.0357C27.178 24.9427 27.0451 24.9161 26.9919 25.0091" stroke="black" stroke-width="0.0132922"/>
<path d="M27.7895 24.9692C27.7895 25.0224 27.7762 25.1819 27.723 25.2617" stroke="black" stroke-width="0.0132922"/>
<path d="M28.6135 25.1952C28.6268 25.2085 28.4274 25.1952 28.3344 25.2617" stroke="black" stroke-width="0.0132922"/>
<path d="M29.1053 25.9928C29.0522 25.9662 28.9458 25.8997 28.8661 26.0061C28.8661 25.9529 28.8661 25.8067 28.7198 25.8067" stroke="black" stroke-width="0.0132922"/>
<path d="M28.6401 26.1788C28.6401 26.0459 28.6135 26.006 28.5869 25.9662" stroke="black" stroke-width="0.0132922"/>
<path d="M28.2014 25.9927C28.0951 25.913 27.9888 26.0326 27.9888 26.0991" stroke="black" stroke-width="0.0132922"/>
<path d="M27.4305 25.8731C27.4305 25.82 27.3906 25.7136 27.4837 25.6737" stroke="black" stroke-width="0.0132922"/>
<path d="M25.9152 26.4314C25.9418 26.2985 26.0349 26.2985 26.0216 26.232C26.0083 26.1257 25.8886 26.0326 25.7424 26.1788" stroke="black" stroke-width="0.0132922"/>
<path d="M26.0216 26.232C26.1014 26.2054 26.1811 26.2187 26.2077 26.2586" stroke="black" stroke-width="0.0132922"/>
<path d="M25.7957 25.7402C25.8488 25.687 25.9817 25.7003 26.0615 25.7402" stroke="black" stroke-width="0.0132922"/>
<path d="M26.0614 25.4212C26.1279 25.4212 26.2475 25.3946 26.2874 25.5142C26.4336 25.2883 26.5399 25.3149 26.5665 25.368" stroke="black" stroke-width="0.0132922"/>
<path d="M26.8324 25.3414C26.9387 25.3016 27.1248 25.4079 27.2312 25.594C27.2843 25.4478 27.3641 25.4744 27.4438 25.4611" stroke="black" stroke-width="0.0132922"/>
<path d="M27.949 25.594C28.1218 25.5142 28.2281 25.6737 28.2813 25.7402C28.361 25.6338 28.4275 25.6338 28.5072 25.6338" stroke="black" stroke-width="0.0132922"/>
<path d="M26.3406 25.913C26.3805 25.8465 26.4735 25.8332 26.54 25.8731C26.5267 25.7535 26.6064 25.7003 26.6596 25.7269" stroke="black" stroke-width="0.0132922"/>
<path d="M26.8857 23.1429L26.5932 23.1562L26.447 23.4181L26.2875 23.1682L25.9951 23.1801L26.128 22.9169L25.9685 22.6671L26.2742 22.6538L26.4071 22.3919L26.5667 22.6418L26.8591 22.6298L26.7262 22.893L26.8857 23.1429Z" fill="#FFD700" stroke="black" stroke-width="0.0465226"/>
<path d="M25.6362 23.2399L25.3438 23.3117L25.264 23.5948L25.0514 23.3822L24.7722 23.4513L24.852 23.1682L24.6526 22.9528L24.9317 22.8824L25.0115 22.5979L25.2242 22.8106L25.5166 22.7415L25.4235 23.0259L25.6362 23.2399Z" fill="#FFD700" stroke="black" stroke-width="0.0465226"/>
<path d="M24.4266 23.4885L24.1607 23.6201L24.1474 23.9152L23.8949 23.753L23.629 23.8833L23.6556 23.5882L23.4031 23.4247L23.6689 23.2918L23.6955 22.9967L23.9348 23.1589L24.2006 23.0286L24.1873 23.3237L24.4266 23.4885Z" fill="#FFD700" stroke="black" stroke-width="0.0465226"/>
<path d="M27.2711 23.1429L27.5635 23.1562L27.6965 23.4181L27.856 23.1682L28.1484 23.1801L28.0155 22.9169L28.175 22.6671L27.8826 22.6538L27.7363 22.3919L27.5768 22.6418L27.2844 22.6298L27.4173 22.893L27.2711 23.1429Z" fill="#FFD700" stroke="black" stroke-width="0.0465226"/>
<path d="M28.5205 23.2399L28.7996 23.3117L28.8794 23.5948L29.0921 23.3822L29.3712 23.4513L29.2915 23.1682L29.5041 22.9528L29.2117 22.8824L29.1319 22.5979L28.9193 22.8106L28.6401 22.7415L28.7199 23.0259L28.5205 23.2399Z" fill="#FFD700" stroke="black" stroke-width="0.0465226"/>
<path d="M29.7168 23.4885L29.9826 23.6201L29.9959 23.9152L30.2485 23.753L30.5143 23.8833L30.501 23.5882L30.7403 23.4247L30.4744 23.2918L30.4612 22.9967L30.2086 23.1589L29.9428 23.0286L29.9693 23.3237L29.7168 23.4885Z" fill="#FFD700" stroke="black" stroke-width="0.0465226"/>
<path d="M30.0757 29.1164L30.408 29.5949L30.7137 29.143L30.501 28.7575L30.0757 29.1164Z" fill="white" stroke="black" stroke-width="0.0465226"/>
<path d="M27.9623 30.5121L27.9889 30.9906C27.9889 30.9906 28.1218 30.9906 28.2414 30.9507C28.3478 30.9108 28.4408 30.8311 28.4408 30.8311L28.4275 30.5785L27.9623 30.5121Z" fill="white" stroke="black" stroke-width="0.0465226"/>
<path d="M26.181 30.5121L26.1544 30.9773C26.1544 30.9773 26.0348 30.9773 25.9152 30.9507C25.8089 30.9241 25.7158 30.8577 25.7158 30.8577L25.5829 30.5387L26.181 30.5121Z" fill="white" stroke="black" stroke-width="0.0465226"/>
<path d="M24.041 29.1164L23.6954 29.5949L23.3232 28.9835L23.6024 28.6911L24.041 29.1164Z" fill="white" stroke="black" stroke-width="0.0465226"/>
<path d="M25.7025 31.4691C25.7025 31.9211 28.4407 31.9211 28.4407 31.4691V30.8311C28.4407 31.1634 25.7025 31.097 25.7025 30.8311V31.4691Z" fill="white" stroke="black" stroke-width="0.0465226"/>
<path d="M23.2568 29.9937C23.4961 31.2166 25.7026 31.2431 25.7026 31.2431V30.8311C25.6494 30.6716 25.7425 30.6184 26.1014 30.5652C26.2476 30.552 26.1811 30.3393 26.1811 30.3393C26.1811 30.3393 25.2241 30.5121 24.5462 30.2462C23.629 29.8741 23.4961 29.1563 23.4961 29.1563C23.4961 29.1563 23.4296 29.7146 23.2568 29.9937Z" fill="white" stroke="black" stroke-width="0.0465226"/>
<path d="M30.8732 29.9937C30.6473 31.2166 28.4408 31.2431 28.4408 31.2431V30.8311C28.4807 30.6716 28.3876 30.6184 28.0287 30.5652C27.8825 30.552 27.9623 30.3393 27.9623 30.3393C27.9623 30.3393 28.9193 30.5121 29.5972 30.2462C30.5011 29.8741 30.6074 29.1563 30.6074 29.1563C30.6074 29.1563 30.7004 29.7146 30.8732 29.9937Z" fill="white" stroke="black" stroke-width="0.0465226"/>
<path d="M23.4296 29.5285C22.8182 29.1962 23.2967 28.8506 23.3499 27.8669C23.4429 28.4651 24.1208 28.7176 24.041 29.1031C23.7619 29.1164 23.629 28.6911 23.4961 29.1563L23.4296 29.5285Z" fill="white" stroke="black" stroke-width="0.0465226"/>
<path d="M30.7005 29.5285C31.3119 29.1829 30.8068 28.8506 30.7536 27.8669C30.6606 28.4651 29.996 28.7176 30.0757 29.1031C30.3416 29.1164 30.4745 28.6911 30.6074 29.1563L30.7005 29.5152V29.5285Z" fill="white" stroke="black" stroke-width="0.0465226"/>
<path d="M23.8018 29.9804L23.8682 30.0335L23.722 30.1931C23.6635 30.2569 23.6494 30.2991 23.69 30.338C23.7405 30.3862 23.7759 30.3695 23.8284 30.3127L23.9879 30.1399L24.041 30.1931L23.8817 30.379C23.7952 30.4799 23.7149 30.4568 23.6475 30.3939C23.5888 30.3391 23.5552 30.2596 23.6415 30.1619L23.8023 29.9811L23.8018 29.9804Z" fill="black"/>
<path d="M24.0676 30.2064L24.1341 30.2462L24.1208 30.5652L24.267 30.3393L24.3335 30.3792L24.1208 30.7248L24.0411 30.6849L24.0543 30.3659L23.9081 30.5918L23.8417 30.552L24.0676 30.2064Z" fill="black"/>
<path d="M24.1873 30.7646L24.3733 30.3924L24.4398 30.4323L24.267 30.7912L24.1873 30.7646Z" fill="black"/>
<path d="M24.4796 30.4456L24.3329 30.8308L24.4796 30.8843C24.6164 30.9341 24.6806 30.8739 24.7241 30.7582C24.7679 30.6406 24.7488 30.5541 24.612 30.4991L24.4796 30.4456ZM24.5323 30.5389C24.6698 30.5868 24.6782 30.639 24.6407 30.7335C24.6044 30.8232 24.5706 30.8583 24.4398 30.7909L24.5323 30.5389V30.5389Z" fill="black"/>
<path d="M24.9183 30.5918L24.6791 30.9507L24.7716 30.9778L24.825 30.8845L24.9845 30.9244L24.9981 31.0177L25.0906 31.0305L24.9981 30.6054L24.9183 30.5918ZM24.9447 30.6851L24.971 30.8446L24.8649 30.8311L24.9447 30.6851Z" fill="black"/>
<path d="M25.1456 30.6264L25.1312 31.0383L25.2877 31.0414C25.4331 31.0441 25.4745 30.9667 25.478 30.8432C25.4816 30.7176 25.4354 30.6418 25.288 30.6343L25.1456 30.6264L25.1456 30.6264ZM25.2254 30.6979C25.3712 30.6984 25.3961 30.745 25.3909 30.8467C25.3861 30.9433 25.365 30.9874 25.2197 30.9659L25.2254 30.6978L25.2254 30.6979Z" fill="black"/>
<path d="M26.5399 31.2032V31.6283H26.6333V31.4688C26.6333 31.4688 26.713 31.4736 26.7792 31.4561C26.8314 31.4425 26.8677 31.409 26.8689 31.3265C26.8701 31.2455 26.8231 31.2032 26.7417 31.2032H26.5397H26.5399ZM26.6333 31.2694L26.727 31.2706C26.8051 31.2706 26.7904 31.3891 26.7294 31.3891H26.6333V31.2694Z" fill="black"/>
<path d="M27.0185 31.2033L26.8455 31.6284H26.9388L26.9786 31.5223H27.1517L27.1916 31.6284H27.2841L27.1113 31.203H27.0183L27.0185 31.2033ZM27.0584 31.2966L27.1246 31.4561H27.005L27.0584 31.2966Z" fill="black"/>
<path d="M27.2843 31.5488L27.5103 31.2697H27.3109V31.2032H27.6299V31.2697L27.3906 31.5488H27.6299V31.6286H27.2843V31.5488Z" fill="black"/>
<path d="M28.6268 30.7247L28.7066 30.7115L28.7465 30.9507C28.7606 31.0358 28.7218 31.0938 28.6612 31.1161C28.5922 31.1416 28.5043 31.1183 28.4939 31.0039L28.5604 30.9906C28.5758 31.0591 28.6034 31.065 28.6353 31.0543C28.6606 31.0458 28.6737 31.0059 28.6667 30.964L28.6268 30.7247Z" fill="black"/>
<path d="M28.7598 30.7008L28.8385 30.6859L28.8749 30.885C28.8905 30.9702 28.9172 31.0064 28.9726 30.9968C29.0414 30.9848 29.0489 30.9462 29.0343 30.8703L28.9853 30.6579L29.0659 30.6458L29.1193 30.8667C29.1505 30.996 29.083 31.0472 28.9924 31.0641C28.9135 31.0789 28.8295 31.0588 28.802 30.9314L28.7598 30.7008Z" fill="black"/>
<path d="M29.1719 30.8842L29.2383 30.8577C29.2709 30.9162 29.3218 30.9132 29.3613 30.8957C29.4163 30.8714 29.4226 30.8234 29.3954 30.8071C29.3567 30.784 29.2642 30.8169 29.2144 30.7987C29.1549 30.777 29.1293 30.7435 29.1323 30.692C29.136 30.6299 29.1906 30.5958 29.2499 30.5774C29.3163 30.5568 29.3818 30.5641 29.4244 30.645L29.3447 30.6716C29.3187 30.6279 29.2853 30.6299 29.2556 30.6439C29.2308 30.6557 29.1921 30.6777 29.2128 30.7131C29.2298 30.7421 29.3275 30.7233 29.3789 30.7254C29.4322 30.7276 29.4752 30.7631 29.4824 30.8143C29.4924 30.8856 29.466 30.9243 29.3835 30.9565C29.2816 30.9962 29.1896 30.9517 29.1719 30.8842H29.1719Z" fill="black"/>
<path d="M29.5307 30.5519L29.4244 30.6051L29.3978 30.5386L29.6903 30.419L29.7168 30.4722L29.6105 30.5253L29.7301 30.8178L29.6637 30.8576L29.5307 30.5519Z" fill="black"/>
<path d="M29.7035 30.4057L29.77 30.3658L29.956 30.7114L29.8896 30.7513L29.7035 30.4057Z" fill="black"/>
<path d="M30.1554 30.4323L30.2352 30.4057C30.2727 30.4846 30.2164 30.6279 30.0786 30.625C29.8771 30.6206 29.8553 30.3986 29.887 30.3254C29.9402 30.2024 30.0893 30.2048 30.1554 30.2728L30.089 30.326C30.0468 30.2719 29.9532 30.306 29.9469 30.3557C29.9366 30.4369 29.9723 30.5124 30.0449 30.5482C30.1064 30.5786 30.2012 30.5022 30.1554 30.4323L30.1554 30.4323Z" fill="black"/>
<path d="M30.1156 30.1532L30.1821 30.1L30.4213 30.419L30.3549 30.4722L30.1156 30.1532Z" fill="black"/>
<path d="M30.3681 29.9538L30.3019 30.0072L30.4478 30.406L30.514 30.3398L30.4741 30.26L30.5938 30.1532L30.6735 30.1931L30.7405 30.1404L30.3681 29.9538ZM30.3944 30.0471L30.5276 30.1133L30.4478 30.1931L30.3944 30.0471Z" fill="black"/>
<rect x="3" y="9" width="48" height="12" fill="#59C785"/>
<path d="M16 27L3 9V45L16 27Z" fill="#3F6FEB"/>
</g>
</svg>
