<svg width="54" height="48" viewBox="0 0 54 48" fill="none" xmlns="http://www.w3.org/2000/svg">
<mask id="mask0_1_37142" style="mask-type:alpha" maskUnits="userSpaceOnUse" x="3" y="6" width="48" height="36">
<path d="M3.56934 15.1356C4.16681 10.4125 8.0415 7.00193 12.7861 6.60887C16.6412 6.28949 21.6196 6 27 6C32.3804 6 37.3588 6.28949 41.2139 6.60887C45.9585 7.00193 49.8332 10.4125 50.4307 15.1356C50.752 17.6759 51 20.704 51 24C51 27.296 50.752 30.3241 50.4307 32.8644C49.8332 37.5875 45.9585 40.9981 41.2139 41.3911C37.3588 41.7105 32.3804 42 27 42C21.6196 42 16.6412 41.7105 12.7861 41.3911C8.0415 40.9981 4.16681 37.5875 3.56934 32.8644C3.248 30.3241 3 27.296 3 24C3 20.704 3.248 17.6759 3.56934 15.1356Z" fill="#00D0BF"/>
</mask>
<g mask="url(#mask0_1_37142)">
<rect x="3" y="30" width="48" height="12" fill="#EE5757"/>
<rect x="3" y="18" width="48" height="12" fill="#F5F5F5"/>
<path d="M24.5062 20.8899H29.5971V26.2227C29.5971 28.0172 27.2577 26.6348 27.0583 27.5918C26.7127 26.6082 24.5195 28.0305 24.5195 26.1164C24.5195 24.2555 24.5062 20.8899 24.5062 20.8899Z" fill="white" stroke="black" stroke-width="0.0638024"/>
<path d="M27.4173 26.7411C27.4173 26.7411 27.3508 26.8076 27.2312 26.7544C27.1116 26.7013 27.0983 23.3384 27.0983 23.3384C27.3641 23.0459 27.5768 22.9529 27.5768 22.9529L27.7363 23.0858C27.1381 23.3915 27.1913 23.8302 27.2445 24.5878C27.2578 24.867 27.2578 25.2258 27.3242 25.5714C27.4173 26.0101 27.6034 26.3823 27.6167 26.6614C27.63 26.8342 27.4173 26.7411 27.4173 26.7411Z" fill="#73452B" stroke="black" stroke-width="0.0132922"/>
<path d="M27.0052 22.8731H27.2445C27.0451 24.8005 27.2179 25.9436 27.2179 26.5019C27.2179 26.688 27.3242 26.7544 27.3109 26.7544C27.0717 27.0203 26.952 26.7412 26.952 26.7412L27.0052 22.8731Z" fill="#73452B" stroke="black" stroke-width="0.0132922"/>
<path d="M26.6329 26.7411C26.407 26.8475 26.3804 26.6348 26.3937 26.6082C26.8855 25.6113 27.0982 23.4181 26.6462 23.1788L26.6728 22.9662C26.8456 23.0193 27.0051 23.2453 27.0051 23.2453C27.0716 25.7043 27.0051 26.7145 26.9652 26.7544C26.726 27.007 26.6329 26.7145 26.6196 26.688" fill="#A36629"/>
<path d="M26.6329 26.7411C26.407 26.8475 26.3804 26.6348 26.3937 26.6082C26.8855 25.6113 27.0982 23.4181 26.6462 23.1788L26.6728 22.9662C26.8456 23.0193 27.0051 23.2453 27.0051 23.2453C27.0716 25.7043 27.0051 26.7145 26.9652 26.7544C26.726 27.007 26.6329 26.7145 26.6196 26.688" stroke="black" stroke-width="0.0132922"/>
<path d="M26.6197 26.7013C26.5798 26.4886 26.9653 25.9436 26.9387 25.372" stroke="black" stroke-width="0.0132922"/>
<path d="M27.271 25.8373C27.3906 26.1696 27.4438 26.462 27.4172 26.7411" stroke="black" stroke-width="0.0132922"/>
<path d="M27.7894 21.9693C27.8692 21.8762 27.8692 21.8762 28.0154 21.8762C28.042 21.6768 28.3743 21.6768 28.4009 21.9294C28.6667 21.8762 28.7199 22.0357 28.6136 22.1952C28.8661 22.1288 29.0921 22.1952 29.0256 22.4876C29.4775 22.6073 29.3048 22.9263 29.1054 22.9928C29.0788 23.1921 28.8927 23.2586 28.6401 23.1788C28.3211 23.4048 28.135 23.3251 27.9888 23.0991C27.6299 23.1523 27.6034 23.0725 27.4438 22.8731C27.1647 22.9928 27.1115 22.9928 26.8723 22.8465C26.859 23.0326 26.7925 22.9795 26.6729 22.9662C26.6862 23.2054 26.5932 23.3118 26.3805 23.232C26.54 23.5643 26.1279 23.7105 25.9285 23.4314C25.7425 23.4447 25.7292 23.3915 25.6361 23.3251C25.5564 23.5909 25.2639 23.551 25.2108 23.4048C24.8386 23.3516 24.8785 23.1523 25.1842 23.139C25.2108 22.9263 25.3969 22.9662 25.5165 22.9928C25.5298 22.8598 25.6095 22.8864 25.676 22.913C25.6361 22.82 25.6627 22.7668 25.7823 22.7402C25.6095 22.5142 25.7159 22.4345 25.8887 22.3547C25.7956 22.1421 25.9551 22.1553 26.0748 22.1421C26.0615 21.9161 26.1279 21.8762 26.3672 21.8496C26.3406 21.7699 26.3805 21.7034 26.5134 21.7034C26.4336 21.4774 26.54 21.4256 26.7792 21.4642C26.8191 21.1358 27.5236 21.2914 27.4704 21.7433C27.6698 21.7699 27.7363 21.8097 27.7894 21.9693Z" fill="#009A3B" stroke="black" stroke-width="0.0132922"/>
<path d="M26.3672 21.8496C26.4204 21.8762 26.4868 21.8496 26.5001 21.9958C26.6064 21.8097 26.7394 21.9161 26.7394 22.1287" stroke="black" stroke-width="0.0132922"/>
<path d="M27.4705 21.7433C27.4173 21.823 27.2179 21.823 27.2445 22.0357C27.178 21.9427 27.0451 21.9161 26.9919 22.0091" stroke="black" stroke-width="0.0132922"/>
<path d="M27.7895 21.9692C27.7895 22.0224 27.7762 22.1819 27.723 22.2617" stroke="black" stroke-width="0.0132922"/>
<path d="M28.6135 22.1952C28.6268 22.2085 28.4274 22.1952 28.3344 22.2617" stroke="black" stroke-width="0.0132922"/>
<path d="M29.1053 22.9928C29.0522 22.9662 28.9458 22.8997 28.8661 23.0061C28.8661 22.9529 28.8661 22.8067 28.7198 22.8067" stroke="black" stroke-width="0.0132922"/>
<path d="M28.6401 23.1788C28.6401 23.0459 28.6135 23.006 28.5869 22.9662" stroke="black" stroke-width="0.0132922"/>
<path d="M28.2014 22.9927C28.0951 22.913 27.9888 23.0326 27.9888 23.0991" stroke="black" stroke-width="0.0132922"/>
<path d="M27.4305 22.8731C27.4305 22.82 27.3906 22.7136 27.4837 22.6737" stroke="black" stroke-width="0.0132922"/>
<path d="M25.9152 23.4314C25.9418 23.2985 26.0349 23.2985 26.0216 23.232C26.0083 23.1257 25.8886 23.0326 25.7424 23.1788" stroke="black" stroke-width="0.0132922"/>
<path d="M26.0216 23.232C26.1014 23.2054 26.1811 23.2187 26.2077 23.2586" stroke="black" stroke-width="0.0132922"/>
<path d="M25.7957 22.7402C25.8488 22.687 25.9817 22.7003 26.0615 22.7402" stroke="black" stroke-width="0.0132922"/>
<path d="M26.0614 22.4212C26.1279 22.4212 26.2475 22.3946 26.2874 22.5142C26.4336 22.2883 26.5399 22.3149 26.5665 22.368" stroke="black" stroke-width="0.0132922"/>
<path d="M26.8324 22.3414C26.9387 22.3016 27.1248 22.4079 27.2312 22.594C27.2843 22.4478 27.3641 22.4744 27.4438 22.4611" stroke="black" stroke-width="0.0132922"/>
<path d="M27.949 22.594C28.1218 22.5142 28.2281 22.6737 28.2813 22.7402C28.361 22.6338 28.4275 22.6338 28.5072 22.6338" stroke="black" stroke-width="0.0132922"/>
<path d="M26.3406 22.913C26.3805 22.8465 26.4735 22.8332 26.54 22.8731C26.5267 22.7535 26.6064 22.7003 26.6596 22.7269" stroke="black" stroke-width="0.0132922"/>
<path d="M26.8857 20.1429L26.5932 20.1562L26.447 20.4181L26.2875 20.1682L25.9951 20.1801L26.128 19.9169L25.9685 19.6671L26.2742 19.6538L26.4071 19.3919L26.5667 19.6418L26.8591 19.6298L26.7262 19.893L26.8857 20.1429Z" fill="#FFD700" stroke="black" stroke-width="0.0465226"/>
<path d="M25.6362 20.2399L25.3438 20.3117L25.264 20.5948L25.0514 20.3822L24.7722 20.4513L24.852 20.1682L24.6526 19.9528L24.9317 19.8824L25.0115 19.5979L25.2242 19.8106L25.5166 19.7415L25.4235 20.0259L25.6362 20.2399Z" fill="#FFD700" stroke="black" stroke-width="0.0465226"/>
<path d="M24.4266 20.4885L24.1607 20.6201L24.1474 20.9152L23.8949 20.753L23.629 20.8833L23.6556 20.5882L23.4031 20.4247L23.6689 20.2918L23.6955 19.9967L23.9348 20.1589L24.2006 20.0286L24.1873 20.3237L24.4266 20.4885Z" fill="#FFD700" stroke="black" stroke-width="0.0465226"/>
<path d="M27.2711 20.1429L27.5635 20.1562L27.6965 20.4181L27.856 20.1682L28.1484 20.1801L28.0155 19.9169L28.175 19.6671L27.8826 19.6538L27.7363 19.3919L27.5768 19.6418L27.2844 19.6298L27.4173 19.893L27.2711 20.1429Z" fill="#FFD700" stroke="black" stroke-width="0.0465226"/>
<path d="M28.5205 20.2399L28.7996 20.3117L28.8794 20.5948L29.0921 20.3822L29.3712 20.4513L29.2915 20.1682L29.5041 19.9528L29.2117 19.8824L29.1319 19.5979L28.9193 19.8106L28.6401 19.7415L28.7199 20.0259L28.5205 20.2399Z" fill="#FFD700" stroke="black" stroke-width="0.0465226"/>
<path d="M29.7168 20.4885L29.9826 20.6201L29.9959 20.9152L30.2485 20.753L30.5143 20.8833L30.501 20.5882L30.7403 20.4247L30.4744 20.2918L30.4612 19.9967L30.2086 20.1589L29.9428 20.0286L29.9693 20.3237L29.7168 20.4885Z" fill="#FFD700" stroke="black" stroke-width="0.0465226"/>
<path d="M30.0757 26.1164L30.408 26.5949L30.7137 26.143L30.501 25.7575L30.0757 26.1164Z" fill="white" stroke="black" stroke-width="0.0465226"/>
<path d="M27.9623 27.5121L27.9889 27.9906C27.9889 27.9906 28.1218 27.9906 28.2414 27.9507C28.3478 27.9108 28.4408 27.8311 28.4408 27.8311L28.4275 27.5785L27.9623 27.5121Z" fill="white" stroke="black" stroke-width="0.0465226"/>
<path d="M26.181 27.5121L26.1544 27.9773C26.1544 27.9773 26.0348 27.9773 25.9152 27.9507C25.8089 27.9241 25.7158 27.8577 25.7158 27.8577L25.5829 27.5387L26.181 27.5121Z" fill="white" stroke="black" stroke-width="0.0465226"/>
<path d="M24.041 26.1164L23.6954 26.5949L23.3232 25.9835L23.6024 25.6911L24.041 26.1164Z" fill="white" stroke="black" stroke-width="0.0465226"/>
<path d="M25.7025 28.4691C25.7025 28.9211 28.4407 28.9211 28.4407 28.4691V27.8311C28.4407 28.1634 25.7025 28.097 25.7025 27.8311V28.4691Z" fill="white" stroke="black" stroke-width="0.0465226"/>
<path d="M23.2568 26.9937C23.4961 28.2166 25.7026 28.2431 25.7026 28.2431V27.8311C25.6494 27.6716 25.7425 27.6184 26.1014 27.5652C26.2476 27.552 26.1811 27.3393 26.1811 27.3393C26.1811 27.3393 25.2241 27.5121 24.5462 27.2462C23.629 26.8741 23.4961 26.1563 23.4961 26.1563C23.4961 26.1563 23.4296 26.7146 23.2568 26.9937Z" fill="white" stroke="black" stroke-width="0.0465226"/>
<path d="M30.8732 26.9937C30.6473 28.2166 28.4408 28.2431 28.4408 28.2431V27.8311C28.4807 27.6716 28.3876 27.6184 28.0287 27.5652C27.8825 27.552 27.9623 27.3393 27.9623 27.3393C27.9623 27.3393 28.9193 27.5121 29.5972 27.2462C30.5011 26.8741 30.6074 26.1563 30.6074 26.1563C30.6074 26.1563 30.7004 26.7146 30.8732 26.9937Z" fill="white" stroke="black" stroke-width="0.0465226"/>
<path d="M23.4296 26.5285C22.8182 26.1962 23.2967 25.8506 23.3499 24.8669C23.4429 25.4651 24.1208 25.7176 24.041 26.1031C23.7619 26.1164 23.629 25.6911 23.4961 26.1563L23.4296 26.5285Z" fill="white" stroke="black" stroke-width="0.0465226"/>
<path d="M30.7005 26.5285C31.3119 26.1829 30.8068 25.8506 30.7536 24.8669C30.6606 25.4651 29.996 25.7176 30.0757 26.1031C30.3416 26.1164 30.4745 25.6911 30.6074 26.1563L30.7005 26.5152V26.5285Z" fill="white" stroke="black" stroke-width="0.0465226"/>
<path d="M23.8018 26.9804L23.8682 27.0335L23.722 27.1931C23.6635 27.2569 23.6494 27.2991 23.69 27.338C23.7405 27.3862 23.7759 27.3695 23.8284 27.3127L23.9879 27.1399L24.041 27.1931L23.8817 27.379C23.7952 27.4799 23.7149 27.4568 23.6475 27.3939C23.5888 27.3391 23.5552 27.2596 23.6415 27.1619L23.8023 26.9811L23.8018 26.9804Z" fill="black"/>
<path d="M24.0676 27.2064L24.1341 27.2462L24.1208 27.5652L24.267 27.3393L24.3335 27.3792L24.1208 27.7248L24.0411 27.6849L24.0543 27.3659L23.9081 27.5918L23.8417 27.552L24.0676 27.2064Z" fill="black"/>
<path d="M24.1873 27.7646L24.3733 27.3924L24.4398 27.4323L24.267 27.7912L24.1873 27.7646Z" fill="black"/>
<path d="M24.4796 27.4456L24.3329 27.8308L24.4796 27.8843C24.6164 27.9341 24.6806 27.8739 24.7241 27.7582C24.7679 27.6406 24.7488 27.5541 24.612 27.4991L24.4796 27.4456ZM24.5323 27.5389C24.6698 27.5868 24.6782 27.639 24.6407 27.7335C24.6044 27.8232 24.5706 27.8583 24.4398 27.7909L24.5323 27.5389Z" fill="black"/>
<path d="M24.9183 27.5918L24.6791 27.9507L24.7716 27.9778L24.825 27.8845L24.9845 27.9244L24.9981 28.0177L25.0906 28.0305L24.9981 27.6054L24.9183 27.5918ZM24.9447 27.6851L24.971 27.8446L24.8649 27.8311L24.9447 27.6851Z" fill="black"/>
<path d="M25.1456 27.6264L25.1312 28.0383L25.2877 28.0414C25.4331 28.0441 25.4745 27.9667 25.478 27.8432C25.4816 27.7176 25.4354 27.6418 25.288 27.6343L25.1456 27.6264L25.1456 27.6264ZM25.2254 27.6979C25.3712 27.6984 25.3961 27.745 25.3909 27.8467C25.3861 27.9433 25.365 27.9874 25.2197 27.9659L25.2254 27.6978L25.2254 27.6979Z" fill="black"/>
<path d="M26.5399 28.2032V28.6283H26.6333V28.4688C26.6333 28.4688 26.713 28.4736 26.7792 28.4561C26.8314 28.4425 26.8677 28.409 26.8689 28.3265C26.8701 28.2455 26.8231 28.2032 26.7417 28.2032H26.5397H26.5399ZM26.6333 28.2694L26.727 28.2706C26.8051 28.2706 26.7904 28.3891 26.7294 28.3891H26.6333V28.2694Z" fill="black"/>
<path d="M27.0185 28.2033L26.8455 28.6284H26.9388L26.9786 28.5223H27.1517L27.1916 28.6284H27.2841L27.1113 28.203H27.0183L27.0185 28.2033ZM27.0584 28.2966L27.1246 28.4561H27.005L27.0584 28.2966Z" fill="black"/>
<path d="M27.2843 28.5488L27.5103 28.2697H27.3109V28.2032H27.6299V28.2697L27.3906 28.5488H27.6299V28.6286H27.2843V28.5488Z" fill="black"/>
<path d="M28.6268 27.7247L28.7066 27.7115L28.7465 27.9507C28.7606 28.0358 28.7218 28.0938 28.6612 28.1161C28.5922 28.1416 28.5043 28.1183 28.4939 28.0039L28.5604 27.9906C28.5758 28.0591 28.6034 28.065 28.6353 28.0543C28.6606 28.0458 28.6737 28.0059 28.6667 27.964L28.6268 27.7247Z" fill="black"/>
<path d="M28.7598 27.7008L28.8385 27.6859L28.8749 27.885C28.8905 27.9702 28.9172 28.0064 28.9726 27.9968C29.0414 27.9848 29.0489 27.9462 29.0343 27.8703L28.9853 27.6579L29.0659 27.6458L29.1193 27.8667C29.1505 27.996 29.083 28.0472 28.9924 28.0641C28.9135 28.0789 28.8295 28.0588 28.802 27.9314L28.7598 27.7008Z" fill="black"/>
<path d="M29.1719 27.8842L29.2383 27.8577C29.2709 27.9162 29.3218 27.9132 29.3613 27.8957C29.4163 27.8714 29.4226 27.8234 29.3954 27.8071C29.3567 27.784 29.2642 27.8169 29.2144 27.7987C29.1549 27.777 29.1293 27.7435 29.1323 27.692C29.136 27.6299 29.1906 27.5958 29.2499 27.5774C29.3163 27.5568 29.3818 27.5641 29.4244 27.645L29.3447 27.6716C29.3187 27.6279 29.2853 27.6299 29.2556 27.6439C29.2308 27.6557 29.1921 27.6777 29.2128 27.7131C29.2298 27.7421 29.3275 27.7233 29.3789 27.7254C29.4322 27.7276 29.4752 27.7631 29.4824 27.8143C29.4924 27.8856 29.466 27.9243 29.3835 27.9565C29.2816 27.9962 29.1896 27.9517 29.1719 27.8842H29.1719Z" fill="black"/>
<path d="M29.5307 27.5519L29.4244 27.6051L29.3978 27.5386L29.6903 27.419L29.7168 27.4722L29.6105 27.5253L29.7301 27.8178L29.6637 27.8576L29.5307 27.5519Z" fill="black"/>
<path d="M29.7035 27.4057L29.77 27.3658L29.956 27.7114L29.8896 27.7513L29.7035 27.4057Z" fill="black"/>
<path d="M30.1554 27.4323L30.2352 27.4057C30.2727 27.4846 30.2164 27.6279 30.0786 27.625C29.8771 27.6206 29.8553 27.3986 29.887 27.3254C29.9402 27.2024 30.0893 27.2048 30.1554 27.2728L30.089 27.326C30.0468 27.2719 29.9532 27.306 29.9469 27.3557C29.9366 27.4369 29.9723 27.5124 30.0449 27.5482C30.1064 27.5786 30.2012 27.5022 30.1554 27.4323L30.1554 27.4323Z" fill="black"/>
<path d="M30.1156 27.1532L30.1821 27.1L30.4213 27.419L30.3549 27.4722L30.1156 27.1532Z" fill="black"/>
<path d="M30.3681 26.9538L30.3019 27.0072L30.4478 27.406L30.514 27.3398L30.4741 27.26L30.5938 27.1532L30.6735 27.1931L30.7405 27.1404L30.3681 26.9538ZM30.3944 27.0471L30.5276 27.1133L30.4478 27.1931L30.3944 27.0471Z" fill="black"/>
<rect x="3" y="6" width="48" height="12" fill="#59C785"/>
<path d="M16 24L3 6V42L16 24Z" fill="#3F6FEB"/>
</g>
</svg>
