<svg width="54" height="54" viewBox="0 0 54 54" fill="none" xmlns="http://www.w3.org/2000/svg">
<mask id="mask0_1_30708" style="mask-type:alpha" maskUnits="userSpaceOnUse" x="3" y="9" width="48" height="36">
<path d="M3.56934 18.1356C4.16681 13.4125 8.0415 10.0019 12.7861 9.60887C16.6412 9.28949 21.6196 9 27 9C32.3804 9 37.3588 9.28949 41.2139 9.60887C45.9585 10.0019 49.8332 13.4125 50.4307 18.1356C50.752 20.6759 51 23.704 51 27C51 30.296 50.752 33.3241 50.4307 35.8644C49.8332 40.5875 45.9585 43.9981 41.2139 44.3911C37.3588 44.7105 32.3804 45 27 45C21.6196 45 16.6412 44.7105 12.7861 44.3911C8.04151 43.9981 4.16681 40.5875 3.56934 35.8644C3.248 33.3241 3 30.296 3 27C3 23.704 3.248 20.6759 3.56934 18.1356Z" fill="#00D0BF"/>
</mask>
<g mask="url(#mask0_1_30708)">
<rect x="51" y="45" width="48" height="36" transform="rotate(-180 51 45)" fill="#EE5757"/>
<path d="M27 40L27.449 41.382H28.9021L27.7265 42.2361L28.1756 43.618L27 42.7639L25.8244 43.618L26.2735 42.2361L25.0979 41.382H26.551L27 40Z" fill="#FCD95E"/>
<path d="M27 10L27.449 11.382H28.9021L27.7265 12.2361L28.1756 13.618L27 12.7639L25.8244 13.618L26.2735 12.2361L25.0979 11.382H26.551L27 10Z" fill="#FCD95E"/>
<path d="M36 40L36.449 41.382H37.9021L36.7265 42.2361L37.1756 43.618L36 42.7639L34.8244 43.618L35.2735 42.2361L34.0979 41.382H35.551L36 40Z" fill="#FCD95E"/>
<path d="M36 10L36.449 11.382H37.9021L36.7265 12.2361L37.1756 13.618L36 12.7639L34.8244 13.618L35.2735 12.2361L34.0979 11.382H35.551L36 10Z" fill="#FCD95E"/>
<path d="M18 40L18.449 41.382H19.9021L18.7265 42.2361L19.1756 43.618L18 42.7639L16.8244 43.618L17.2735 42.2361L16.0979 41.382H17.551L18 40Z" fill="#FCD95E"/>
<path d="M18 10L18.449 11.382H19.9021L18.7265 12.2361L19.1756 13.618L18 12.7639L16.8244 13.618L17.2735 12.2361L16.0979 11.382H17.551L18 10Z" fill="#FCD95E"/>
<rect x="45" y="39" width="36" height="24" transform="rotate(-180 45 39)" fill="#FCD95E"/>
</g>
<path d="M27 27L9 15V39L27 27Z" fill="#59C785"/>
<path d="M27 27L45 39L45 15L27 27Z" fill="#59C785"/>
<circle cx="27" cy="27" r="4" fill="#EE5757"/>
<path d="M27 23L27.8981 25.7639H30.8042L28.4531 27.4721L29.3511 30.2361L27 28.5279L24.6489 30.2361L25.5469 27.4721L23.1958 25.7639H26.1019L27 23Z" fill="#FCD95E"/>
<path d="M13.8939 26.9322C14.3528 27.787 15.2454 28.7171 16.0249 29.0442C16.0374 28.1761 15.7294 27.0636 15.3083 26.1772L13.8939 26.9322V26.9322Z" fill="#EE5757"/>
<path d="M13.1158 24C13.781 25.3866 11.3906 28.6947 15.3731 29.4701C14.8818 28.7997 14.5651 27.6932 14.6849 26.8048C15.5204 27.1227 16.3996 28.0529 16.7549 28.764C17.7971 24.9791 14.0815 25.2093 13.1158 24V24Z" fill="#FCD95E"/>
</svg>
