<svg width="54" height="48" viewBox="0 0 54 48" fill="none" xmlns="http://www.w3.org/2000/svg">
<mask id="mask0_1_30708" style="mask-type:alpha" maskUnits="userSpaceOnUse" x="3" y="6" width="48" height="36">
<path d="M3.56934 15.1356C4.16681 10.4125 8.0415 7.00193 12.7861 6.60887C16.6412 6.28949 21.6196 6 27 6C32.3804 6 37.3588 6.28949 41.2139 6.60887C45.9585 7.00193 49.8332 10.4125 50.4307 15.1356C50.752 17.6759 51 20.704 51 24C51 27.296 50.752 30.3241 50.4307 32.8644C49.8332 37.5875 45.9585 40.9981 41.2139 41.3911C37.3588 41.7105 32.3804 42 27 42C21.6196 42 16.6412 41.7105 12.7861 41.3911C8.0415 40.9981 4.16681 37.5875 3.56934 32.8644C3.248 30.3241 3 27.296 3 24C3 20.704 3.248 17.6759 3.56934 15.1356Z" fill="#00D0BF"/>
</mask>
<g mask="url(#mask0_1_30708)">
<rect x="51" y="42" width="48" height="36" transform="rotate(-180 51 42)" fill="#EE5757"/>
<path d="M27 37L27.449 38.382H28.9021L27.7265 39.2361L28.1756 40.618L27 39.7639L25.8244 40.618L26.2735 39.2361L25.0979 38.382H26.551L27 37Z" fill="#FCD95E"/>
<path d="M27 7L27.449 8.38197H28.9021L27.7265 9.23607L28.1756 10.618L27 9.76393L25.8244 10.618L26.2735 9.23607L25.0979 8.38197H26.551L27 7Z" fill="#FCD95E"/>
<path d="M36 37L36.449 38.382H37.9021L36.7265 39.2361L37.1756 40.618L36 39.7639L34.8244 40.618L35.2735 39.2361L34.0979 38.382H35.551L36 37Z" fill="#FCD95E"/>
<path d="M36 7L36.449 8.38197H37.9021L36.7265 9.23607L37.1756 10.618L36 9.76393L34.8244 10.618L35.2735 9.23607L34.0979 8.38197H35.551L36 7Z" fill="#FCD95E"/>
<path d="M18 37L18.449 38.382H19.9021L18.7265 39.2361L19.1756 40.618L18 39.7639L16.8244 40.618L17.2735 39.2361L16.0979 38.382H17.551L18 37Z" fill="#FCD95E"/>
<path d="M18 7L18.449 8.38197H19.9021L18.7265 9.23607L19.1756 10.618L18 9.76393L16.8244 10.618L17.2735 9.23607L16.0979 8.38197H17.551L18 7Z" fill="#FCD95E"/>
<rect x="45" y="36" width="36" height="24" transform="rotate(-180 45 36)" fill="#FCD95E"/>
</g>
<path d="M27 24L9 12V36L27 24Z" fill="#59C785"/>
<path d="M27 24L45 36L45 12L27 24Z" fill="#59C785"/>
<circle cx="27" cy="24" r="4" fill="#EE5757"/>
<path d="M27 20L27.8981 22.7639H30.8042L28.4531 24.4721L29.3511 27.2361L27 25.5279L24.6489 27.2361L25.5469 24.4721L23.1958 22.7639H26.1019L27 20Z" fill="#FCD95E"/>
<path d="M13.8939 23.9322C14.3528 24.787 15.2454 25.7171 16.0249 26.0442C16.0374 25.1761 15.7294 24.0636 15.3083 23.1772L13.8939 23.9322Z" fill="#EE5757"/>
<path d="M13.1158 21C13.781 22.3866 11.3906 25.6947 15.3731 26.4701C14.8818 25.7997 14.5651 24.6932 14.6849 23.8048C15.5204 24.1227 16.3996 25.0529 16.7549 25.764C17.7971 21.9791 14.0815 22.2093 13.1158 21Z" fill="#FCD95E"/>
</svg>
