<svg width="54" height="54" viewBox="0 0 54 54" fill="none" xmlns="http://www.w3.org/2000/svg">
<mask id="mask0_1_33104" style="mask-type:alpha" maskUnits="userSpaceOnUse" x="3" y="9" width="48" height="36">
<path d="M3.56934 18.1356C4.16681 13.4125 8.0415 10.0019 12.7861 9.60887C16.6412 9.28949 21.6196 9 27 9C32.3804 9 37.3588 9.28949 41.2139 9.60887C45.9585 10.0019 49.8332 13.4125 50.4307 18.1356C50.752 20.6759 51 23.704 51 27C51 30.296 50.752 33.3241 50.4307 35.8644C49.8332 40.5875 45.9585 43.9981 41.2139 44.3911C37.3588 44.7105 32.3804 45 27 45C21.6196 45 16.6412 44.7105 12.7861 44.3911C8.04151 43.9981 4.16681 40.5875 3.56934 35.8644C3.248 33.3241 3 30.296 3 27C3 23.704 3.248 20.6759 3.56934 18.1356Z" fill="#00D0BF"/>
</mask>
<g mask="url(#mask0_1_33104)">
<rect x="51" y="45" width="48" height="36" transform="rotate(-180 51 45)" fill="#EE5757"/>
<rect x="49" y="43" width="44" height="32" rx="10" transform="rotate(-180 49 43)" fill="#2E50A6"/>
<path fill-rule="evenodd" clip-rule="evenodd" d="M27.0215 16.1666C27.0215 16.1666 20.3868 21.4458 20.3868 26.9297C20.3868 32.4143 27.0215 37.8334 27.0215 37.8334C27.0215 37.8334 33.6138 32.809 33.6138 26.9297C33.6138 21.0512 27.0215 16.1666 27.0215 16.1666H27.0215Z" fill="#92DBFC"/>
<path fill-rule="evenodd" clip-rule="evenodd" d="M21.1208 30.277C22.8475 34.4241 27.0215 37.8333 27.0215 37.8333C27.0215 37.8333 31.2697 34.5954 32.9456 30.2767" fill="#008CE7"/>
<path fill-rule="evenodd" clip-rule="evenodd" d="M32.9687 29.0802C31.9458 29.812 26.1903 29.4606 26.1903 29.4606L25.8685 30.2799L32.7216 30.3011C32.7501 30.1887 32.8186 30.0551 32.8424 29.9416L32.9687 29.0802Z" fill="#9C8431"/>
<path fill-rule="evenodd" clip-rule="evenodd" d="M22.6702 32.4714C22.9616 32.4809 23.2519 32.5424 23.5126 32.6823C23.9786 32.9268 24.2488 32.925 24.7511 32.9327C25.2768 32.9407 25.6894 33.3277 26.2576 33.3438C27.3043 33.3731 27.7444 33.893 26.9305 33.8926C26.5461 33.8922 25.722 33.6341 25.3237 33.6883C24.7182 33.7498 24.3682 33.7959 23.92 34.1522C23.4932 33.6396 23.0663 33.0758 22.6702 32.4714V32.4714ZM24.7409 35.081C25.0004 34.9034 25.1791 34.7646 25.431 34.757C25.9204 34.742 26.0874 34.4392 26.653 34.4395C27.2959 34.5574 28.1672 34.3623 28.6772 34.2492C29.5826 34.0405 29.1531 33.4071 28.6051 33.1772C28.1621 32.9876 27.3318 33.1677 26.8167 32.9795C26.4268 32.8272 26.7482 32.5845 26.958 32.5329C27.1696 32.4941 27.3966 32.564 27.6598 32.6068C28.1299 32.6482 28.7204 32.6043 29.1334 32.5402C29.9868 32.4095 29.9516 32.1591 30.3635 32.1532C30.664 32.1393 30.8929 32.05 31.0979 31.9035C31.3388 31.7428 31.5896 31.413 31.881 31.4261L32.0523 31.4335C30.2525 34.9151 27.0202 37.2007 27.0202 37.2007C27.0202 37.2007 25.9757 36.4011 24.7409 35.081V35.081Z" fill="#FFDE52"/>
<path fill-rule="evenodd" clip-rule="evenodd" d="M28.8782 32.5307C28.9898 32.9627 29.1081 33.1095 29.5621 33.2204C30.0102 33.3314 30.6948 32.8957 30.2705 32.4728C29.8667 32.0796 29.4412 31.979 29.0795 31.6249C28.5183 31.0685 27.7484 29.9182 27.3826 28.8305C26.9825 27.6414 27.052 24.2937 27.07 22.5979C27.0704 22.5781 27.1187 22.5664 27.1242 22.5584C27.1502 22.521 27.1751 22.5705 27.1344 22.3219C27.1238 22.2582 27.0733 22.1923 27.0736 22.1278C27.074 22.0129 26.6768 22.2534 26.5721 22.4584C26.5483 22.5053 26.6482 22.6389 26.6482 22.6653C26.6618 24.2922 26.4868 27.5044 26.9188 28.9586C27.186 29.8589 27.6737 30.5541 28.1152 31.1973C28.3799 31.6096 28.7628 32.0544 28.8782 32.5307V32.5307Z" fill="#8C4200"/>
<path d="M23.9277 27.7673C23.9226 27.7665 23.9024 27.764 23.883 27.7614C23.745 27.7446 23.5975 27.6864 23.4895 27.6058C23.3357 27.4913 23.2339 27.3078 23.1999 27.0827C23.1904 27.0197 23.1907 26.8575 23.2003 26.7957C23.2274 26.6218 23.2911 26.4684 23.3826 26.3563C23.4097 26.3234 23.4617 26.2729 23.4935 26.2491C23.5686 26.192 23.6656 26.1473 23.7677 26.1224C23.8409 26.1041 23.886 26.0986 23.9738 26.096C24.0961 26.0931 24.1821 26.1041 24.2788 26.1363C24.4025 26.1769 24.4985 26.2428 24.5662 26.3329C24.612 26.3937 24.6713 26.5288 24.6797 26.591C24.6841 26.6251 24.6705 26.6503 24.6405 26.6631C24.631 26.6672 24.5834 26.6814 24.5343 26.6946C24.4359 26.721 24.4219 26.7217 24.4 26.7034C24.3853 26.691 24.3802 26.6814 24.3674 26.6415C24.3615 26.6247 24.3473 26.5903 24.3352 26.5657C24.3165 26.528 24.3088 26.5167 24.2836 26.4914C24.2583 26.4658 24.2473 26.4581 24.2096 26.4398C24.1261 26.3992 24.0324 26.3853 23.9244 26.3984C23.8453 26.408 23.7597 26.4402 23.7058 26.4808C23.5861 26.5709 23.5195 26.7488 23.5265 26.9589C23.5356 27.2456 23.6572 27.4034 23.9072 27.4535C23.9552 27.4631 24.0599 27.4631 24.1111 27.4535C24.1858 27.4396 24.2953 27.3968 24.3571 27.3573L24.3795 27.3433V27.2522L24.3798 27.1607L24.1825 27.1592L23.9852 27.1577L23.9727 27.149C23.9658 27.1438 23.9563 27.1343 23.9515 27.1274C23.9427 27.1153 23.9427 27.1134 23.9427 27.0062C23.9431 26.8989 23.9431 26.8971 23.9519 26.885C23.9566 26.878 23.9665 26.8685 23.9735 26.8638L23.9859 26.8546L24.3238 26.8554L24.6621 26.8562L24.6742 26.8649C24.6812 26.8697 24.6907 26.8803 24.6958 26.8884L24.7046 26.9026L24.7053 27.1827C24.7061 27.4811 24.7053 27.4932 24.6874 27.5148C24.6823 27.521 24.6588 27.54 24.6358 27.5569C24.4761 27.6744 24.3063 27.7443 24.1316 27.7645C24.0866 27.7696 23.9555 27.7714 23.9277 27.7674L23.9277 27.7673ZM25.6956 27.7823C25.5188 27.7688 25.3852 27.716 25.2878 27.622C25.1919 27.5293 25.1443 27.4133 25.123 27.22C25.1168 27.1662 25.1164 27.1094 25.1168 26.6723C25.1175 26.2015 25.1179 26.1839 25.1252 26.1696C25.1293 26.1616 25.1388 26.1502 25.1461 26.1444L25.16 26.1341L25.2761 26.133C25.3881 26.1322 25.3929 26.1322 25.4093 26.1403C25.4196 26.1455 25.4298 26.1546 25.4353 26.163L25.4441 26.1773L25.4456 26.6825C25.4467 27.1277 25.4474 27.1925 25.4529 27.2277C25.4675 27.3192 25.4822 27.3532 25.525 27.3961C25.5788 27.4495 25.6348 27.4693 25.741 27.473C25.8388 27.4759 25.9058 27.4649 25.9632 27.4367C26.0295 27.4045 26.0595 27.3536 26.0822 27.2372C26.0906 27.1933 26.0906 27.1863 26.0939 26.6877C26.0972 26.1228 26.0947 26.1696 26.1251 26.1466L26.1393 26.1359H26.2602C26.3949 26.1363 26.3909 26.1356 26.4125 26.1641L26.4234 26.1784L26.4238 26.6317C26.4242 27.0864 26.422 27.1815 26.4099 27.2672C26.3839 27.4495 26.3235 27.5648 26.2071 27.6549C26.1679 27.6853 26.1518 27.6955 26.1133 27.7146C26.0544 27.7442 25.9863 27.7644 25.9091 27.7754C25.8688 27.7812 25.7366 27.7852 25.6956 27.7823L25.6956 27.7823ZM27.2779 27.7578C27.2728 27.7567 27.2614 27.7483 27.2523 27.7395C27.2336 27.7208 27.2285 27.7036 27.234 27.6802C27.2409 27.6512 27.8135 26.1737 27.8227 26.1619C27.8406 26.1378 27.8457 26.137 27.9797 26.1374C28.1137 26.1374 28.1189 26.1385 28.1372 26.1623C28.1419 26.1693 28.284 26.513 28.4527 26.9271C28.7207 27.585 28.7592 27.682 28.7592 27.6996C28.7592 27.7219 28.7504 27.7373 28.7295 27.7523C28.7171 27.7611 28.7167 27.7611 28.5827 27.7607H28.4484L28.4337 27.7494C28.415 27.7351 28.4154 27.7365 28.3286 27.5096C28.2891 27.406 28.2551 27.3181 28.2529 27.3144C28.2496 27.3078 28.2327 27.3075 27.9838 27.3071C27.7345 27.3067 27.718 27.3071 27.7154 27.3133C27.7139 27.317 27.6803 27.4093 27.6404 27.5183C27.6008 27.6271 27.5649 27.7219 27.5606 27.7289C27.5562 27.7358 27.547 27.7453 27.5404 27.7501C27.5283 27.7589 27.5261 27.7589 27.4075 27.7592C27.3413 27.7596 27.283 27.7589 27.2779 27.7578V27.7578ZM28.1357 27.0014C28.1298 26.9849 27.9878 26.6049 27.9841 26.5958C27.9827 26.5917 27.9808 26.5936 27.9779 26.6016C27.9713 26.6214 27.826 27.0091 27.8241 27.0124C27.823 27.0139 27.8941 27.0153 27.9816 27.0157H28.1412L28.1357 27.0014ZM29.349 27.7563C29.3321 27.7512 29.3138 27.7318 29.3091 27.7138C29.3065 27.7036 29.3058 27.4528 29.3076 26.9373L29.3102 26.1762L29.3204 26.1623C29.3409 26.1356 29.3391 26.1359 29.5225 26.1363C29.6752 26.1367 29.688 26.1371 29.7008 26.1436C29.7081 26.1477 29.718 26.1564 29.7224 26.163C29.7268 26.1693 29.8121 26.42 29.9117 26.7195C30.0116 27.019 30.094 27.2643 30.0951 27.2643C30.0962 27.2643 30.1811 27.0208 30.284 26.7235C30.4008 26.3853 30.4747 26.1769 30.481 26.1674C30.5015 26.1378 30.4996 26.1381 30.6677 26.1385C30.8108 26.1385 30.8174 26.1389 30.831 26.1466C30.8386 26.151 30.8493 26.1612 30.8548 26.1689L30.8643 26.1835L30.8632 26.9491C30.8617 27.6707 30.8614 27.7153 30.8548 27.727C30.8511 27.7336 30.8416 27.7442 30.8335 27.7501L30.8193 27.7611L30.7025 27.7607C30.5868 27.7607 30.5857 27.7607 30.5732 27.7515C30.5663 27.7468 30.5568 27.7373 30.552 27.7303L30.5428 27.7179L30.5417 27.2785L30.5407 26.8396L30.5202 26.8978C30.5088 26.93 30.4392 27.1292 30.3657 27.3404C30.2364 27.7105 30.2309 27.7255 30.2159 27.7409C30.2068 27.7504 30.1954 27.7578 30.1877 27.7592C30.1804 27.7607 30.1317 27.7618 30.079 27.7618C29.9871 27.7614 29.9823 27.761 29.9659 27.7526C29.9564 27.7479 29.945 27.7384 29.9406 27.7318C29.9362 27.7252 29.8648 27.5191 29.7821 27.2738C29.6993 27.0288 29.6302 26.8282 29.6287 26.8282C29.6269 26.8282 29.6254 27.0266 29.6247 27.2697C29.6239 27.7643 29.6261 27.7281 29.5954 27.7486L29.5796 27.7589L29.4705 27.7592C29.4105 27.7596 29.3559 27.7581 29.3494 27.756L29.349 27.7563Z" fill="white"/>
<path d="M23.9175 27.6996C23.719 27.6769 23.5404 27.589 23.4327 27.4609C23.3419 27.3532 23.2834 27.2112 23.264 27.0516C23.2577 26.9988 23.2581 26.8744 23.2647 26.8238C23.2874 26.6499 23.3562 26.4878 23.4547 26.3761C23.6228 26.1854 23.9716 26.1085 24.255 26.2C24.4337 26.2575 24.5398 26.3666 24.6002 26.5537C24.6087 26.5796 24.6149 26.6016 24.6142 26.6027C24.612 26.6042 24.4597 26.6455 24.4483 26.6477C24.4417 26.6488 24.4384 26.6426 24.4285 26.6133C24.4004 26.5306 24.3575 26.4618 24.3099 26.4237C24.206 26.3409 24.0595 26.3106 23.8878 26.3366C23.778 26.3534 23.6689 26.4098 23.6063 26.4823C23.5122 26.591 23.4657 26.7243 23.4598 26.9004C23.4543 27.0746 23.4858 27.2075 23.5587 27.3173C23.6769 27.496 23.9522 27.5758 24.1972 27.5026C24.2755 27.4792 24.3608 27.4385 24.4209 27.3957L24.4487 27.3759L24.4491 27.235V27.0937L24.2279 27.0933L24.0064 27.0929L24.0068 27.0065V26.9201L24.3231 26.9209L24.6394 26.9212L24.6387 27.1966L24.6383 27.4719L24.6035 27.4975C24.4611 27.6022 24.3183 27.6655 24.1657 27.6926C24.1093 27.7025 23.9746 27.7062 23.9175 27.6996V27.6996ZM25.67 27.7131C25.5265 27.6974 25.4148 27.6512 25.3357 27.5743C25.2636 27.5044 25.2223 27.4177 25.2007 27.2914C25.1853 27.2006 25.1842 27.1537 25.1849 26.6704L25.1856 26.1971L25.2827 26.1975H25.3793L25.3801 26.7023C25.3808 27.2394 25.3804 27.2306 25.4009 27.3115C25.4269 27.4147 25.5038 27.4913 25.6136 27.5231C25.7015 27.5487 25.8201 27.5491 25.9201 27.5242C26.0387 27.4946 26.1024 27.4309 26.1346 27.31C26.1595 27.2174 26.1591 27.2262 26.1617 26.6913L26.1642 26.1989L26.2613 26.1993H26.3579L26.3568 26.6558C26.3565 26.9187 26.3543 27.138 26.3517 27.1731C26.3352 27.4045 26.2752 27.5297 26.135 27.6245C26.0797 27.6623 26.0046 27.6908 25.9219 27.7062C25.886 27.7128 25.711 27.7175 25.67 27.7131L25.67 27.7131ZM27.3079 27.6714C27.3127 27.6593 27.4419 27.3243 27.5953 26.9267L27.8747 26.204L27.9794 26.2032L28.0845 26.2022L28.3854 26.9417C28.5509 27.3484 28.6874 27.6845 28.6889 27.6885C28.6915 27.6955 28.6849 27.6959 28.582 27.6959L28.4722 27.6955L28.4531 27.646C28.4425 27.619 28.4041 27.5175 28.3671 27.4213L28.3001 27.2463L27.9845 27.2448L27.6689 27.243L27.5869 27.4685L27.5049 27.694L27.402 27.6936H27.2995L27.3079 27.6714ZM28.2357 27.0764C28.2346 27.0724 28.1914 26.9571 28.1401 26.8202C28.0888 26.6833 28.031 26.5244 28.012 26.4665C27.9929 26.409 27.9765 26.3611 27.9757 26.36C27.9746 26.3589 27.9673 26.3841 27.9596 26.416C27.9344 26.5218 27.9102 26.5943 27.8201 26.8323C27.7714 26.9622 27.7301 27.0717 27.7286 27.0757C27.7257 27.0827 27.7396 27.083 27.9816 27.0834C28.2232 27.0838 28.2375 27.0834 28.2357 27.0765V27.0764ZM29.375 26.9468L29.3764 26.2004L29.5229 26.2018L29.669 26.2033L29.8666 26.7982C29.9754 27.1251 30.0706 27.4133 30.0779 27.4385C30.0856 27.4634 30.0925 27.4832 30.0936 27.4825C30.0944 27.4814 30.1189 27.4107 30.1478 27.325C30.1771 27.2397 30.276 26.9527 30.3678 26.6873L30.5352 26.2048L30.6662 26.204L30.7973 26.2032L30.7958 26.9493L30.7944 27.6958L30.7017 27.6954H30.6091L30.6102 27.0683C30.611 26.7234 30.6098 26.4433 30.6076 26.4455C30.6058 26.4477 30.5139 26.7084 30.4037 27.0247C30.2935 27.341 30.1958 27.6211 30.1866 27.6471L30.1698 27.6943H29.9948L29.7817 27.0624C29.6646 26.715 29.5672 26.428 29.5653 26.4243C29.5635 26.421 29.5613 26.7051 29.5606 27.0558L29.5591 27.6932H29.4665L29.3739 27.6928L29.375 26.9468Z" fill="#BD0728"/>
<path fill-rule="evenodd" clip-rule="evenodd" d="M22.8979 22.1172C22.9261 22.156 22.922 22.3234 22.922 22.3234C22.9451 22.3373 23.3193 22.0048 23.3193 22.0199C23.3196 22.0898 23.3281 22.234 23.3281 22.234C23.3281 22.234 23.7154 21.8657 23.7315 21.9045C23.7494 21.9481 23.73 22.1615 23.73 22.1615C23.73 22.1615 23.9878 21.8774 24.035 21.8262C24.069 21.7896 24.0636 21.8723 24.0669 22.0059C24.0676 22.0297 24.4893 21.6948 24.515 21.6889C24.5695 21.6772 24.5864 21.8628 24.5834 21.9093C24.5812 21.9437 24.9726 21.686 24.9554 21.72L24.9843 21.9181C25.0934 21.9031 25.3533 21.806 25.5097 21.8313C25.5598 21.8394 25.5573 21.8646 25.5126 21.8829C24.7592 22.1879 24.1796 22.6477 23.8421 23.2884C23.7271 23.5066 23.692 23.697 23.7223 23.7449C23.7223 23.7449 23.8578 23.4535 24.0105 23.4078C24.031 23.4019 24.0445 23.5945 24.0654 23.5835C24.0654 23.5835 24.1811 23.2913 24.2645 23.1837C24.2869 23.1548 24.3242 23.3371 24.348 23.31C24.348 23.31 24.4081 23.1145 24.5256 22.9783C24.5424 22.9589 24.5728 23.1632 24.5915 23.146C24.7134 23.0336 24.828 22.7517 24.8737 22.7308C24.9056 22.7059 24.9111 22.9651 24.9415 22.9428C24.9415 22.9428 25.1154 22.5935 25.2193 22.5302C25.286 22.4892 25.2834 22.7209 25.2834 22.7209C25.4159 22.5902 25.562 22.3735 25.6312 22.2794C25.6631 22.2362 25.6455 22.565 25.6795 22.5778C25.7231 22.5946 26.0087 22.3259 26.0409 22.3204C26.0621 22.3168 26.087 22.3969 26.0314 22.4614C26.027 22.4665 25.6784 22.8685 25.6784 22.8685C25.7462 22.8813 25.7725 22.8623 25.8212 22.8751C25.9658 22.9131 25.5503 23.1515 25.5573 23.1961C25.5573 23.1961 25.7575 23.1925 25.6905 23.2313C25.6422 23.2595 25.3775 23.6003 25.3775 23.5882C25.3775 23.582 25.5104 23.5912 25.5097 23.6292C25.5086 23.6999 25.2896 24.0642 25.2874 24.062C25.2754 24.0499 25.405 24.0462 25.4225 24.0821C25.4548 24.1484 25.1977 24.4431 25.2479 24.4933C25.2549 24.5002 25.3947 24.4954 25.4569 24.5094C25.487 24.5159 25.5712 25.0446 25.5499 25.0234C25.5452 25.0182 25.64 24.5277 25.6975 24.3783C25.7326 24.2879 25.845 24.5149 25.8542 24.4947C25.8494 24.4947 25.8315 24.1722 25.8472 24.0254C25.8516 23.9844 25.9325 24.0682 25.9314 24.029C25.9285 23.9401 25.9212 23.8449 25.9395 23.7581C25.9534 23.6926 26.0222 23.8764 26.0489 23.8269C26.0489 23.8269 25.9655 23.5077 26.0002 23.4176C26.0233 23.3583 26.079 23.5612 26.1156 23.5692C26.1156 23.5692 26.0951 23.321 26.1335 23.2569L26.2496 23.3814C26.2748 23.3415 26.2701 22.9549 26.2935 22.9186C26.3129 22.8883 26.4333 23.0636 26.4513 23.0362C26.4674 23.0113 26.4004 22.7242 26.4154 22.7015C26.4366 22.669 26.5688 22.7813 26.5714 22.7792C26.6252 22.725 26.6234 22.5899 26.6461 22.5397C26.7068 22.4039 27.0554 22.3863 27.0964 22.483C27.1165 22.5298 27.1026 22.5902 27.0945 22.6631C27.0978 22.666 27.2692 22.6785 27.2706 22.6653C27.2706 22.6653 27.2501 22.8253 27.2622 23.0014C27.264 23.0248 27.4361 22.9955 27.4383 23.019C27.454 23.1848 27.416 23.2002 27.416 23.2002C27.4174 23.2123 27.532 23.1826 27.5339 23.1954C27.5463 23.2763 27.5203 23.3748 27.4691 23.4696C27.4614 23.4832 27.6331 23.4564 27.6356 23.4722C27.6565 23.5967 27.6605 23.6955 27.6389 23.8712C27.6371 23.8855 27.807 23.7471 27.8095 23.7614C27.8352 23.9093 27.8055 24.0689 27.8209 24.222C27.8245 24.2575 27.9333 24.1162 27.9432 24.1572C27.953 24.1974 27.919 24.4903 27.9355 24.5068C27.9355 24.5068 28.1174 24.4976 28.1335 24.513C28.2778 24.6485 28.2503 24.885 28.2503 24.885C28.2899 24.8557 28.2748 24.5709 28.2349 24.3102C28.2305 24.2827 28.3748 24.2934 28.3704 24.2677C28.3704 24.2677 28.2122 24.1725 28.1603 23.9075C28.1493 23.8507 28.3129 23.8625 28.3129 23.8625C28.2675 23.7581 28.1877 23.7383 28.12 23.638C28.098 23.6051 28.2899 23.5901 28.2899 23.5806C28.2902 23.4806 28.128 23.433 28.0442 23.329C28.0083 23.2847 28.2192 23.2825 28.2192 23.2825C28.1573 23.1965 27.9534 23.1588 27.8494 23.0449C27.7927 22.9831 28.0563 22.9223 28.053 22.9117C28.0241 22.8205 27.7762 22.792 27.6561 22.6891C27.6312 22.6679 27.8128 22.5961 27.8128 22.5961C27.7945 22.5573 27.3988 22.297 27.6001 22.3208C27.6851 22.331 27.8575 22.4519 27.871 22.4336C27.871 22.4336 27.8637 22.2816 27.8813 22.2633C27.9476 22.1945 28.176 22.5555 28.2536 22.5408C28.2536 22.5408 28.2822 22.2824 28.3173 22.2754C28.4008 22.2597 28.5026 22.6517 28.5849 22.6517C28.5959 22.6517 28.6021 22.4251 28.6446 22.4127C28.6926 22.3988 28.7464 22.6668 28.8072 22.7261C28.8635 22.7806 28.8643 22.5167 28.8972 22.5668C28.9532 22.6477 28.9668 22.8165 29.0433 22.8908C29.0931 22.9391 29.1022 22.658 29.1575 22.6957C29.2216 22.7392 29.2066 22.885 29.2787 22.9567C29.3131 22.9908 29.3362 22.7711 29.3754 22.8033C29.4101 22.8315 29.4336 23.1002 29.4709 23.1427C29.5185 23.1969 29.5734 23.001 29.6228 23.0321C29.6584 23.0548 29.6499 23.2873 29.6829 23.3371C29.7502 23.4403 29.7854 23.2123 29.8301 23.2474C29.8612 23.2712 29.9285 23.5385 29.9567 23.5597C30.0193 23.6073 30.0537 23.4381 30.1013 23.4619C30.1358 23.4788 30.2053 23.8229 30.2339 23.8141C30.2525 23.8083 30.2987 23.0299 29.9992 22.7015C29.5112 22.1663 28.6373 21.8573 27.9241 21.8496C27.9241 21.8496 28.2825 21.7782 28.2921 21.7189C28.3111 21.6007 28.489 21.6146 28.6131 21.6417C28.6351 21.6464 28.6234 21.4326 28.6263 21.4315C28.7372 21.429 28.8365 21.4945 28.9426 21.5589C28.9756 21.5791 28.8756 21.3448 28.9108 21.3649C29.047 21.4436 29.1985 21.4667 29.2904 21.5622C29.3146 21.5875 29.2626 21.3817 29.2626 21.3817C29.3307 21.3653 29.4651 21.4634 29.5178 21.5553C29.5434 21.6007 29.5163 21.3155 29.5364 21.366C29.5364 21.366 29.7737 21.4465 29.7993 21.5465C29.7993 21.5465 29.8187 21.3656 29.8506 21.3751C29.9457 21.4 30.0292 21.5608 30.1035 21.5838C30.1035 21.5838 30.0728 21.4227 30.0969 21.429C30.2756 21.474 30.4696 21.5846 30.4693 21.5838C30.3686 21.3319 29.9868 21.068 29.315 20.9973C29.1916 20.9845 28.6911 20.964 28.2668 21.0625C27.919 21.143 27.6444 21.1888 27.7008 21.1339C27.9307 20.9087 28.3023 20.8813 28.4045 20.8289C28.4777 20.7916 28.1581 20.6682 28.2214 20.6506C28.2844 20.6356 28.5699 20.6118 28.5699 20.6118C28.6318 20.5635 28.3623 20.469 28.4026 20.3987C28.4832 20.2578 28.9595 20.3859 29.0001 20.3325C29.0133 20.3145 28.7954 20.1857 28.8046 20.1666C28.8394 20.0952 29.2633 20.2194 29.2732 20.1571C29.2732 20.1571 29.1447 20.0612 29.0532 19.9825C29.0422 19.973 29.4317 19.8683 29.4317 19.8683C29.4244 19.8609 29.3651 19.8192 29.2758 19.7844C29.1941 19.7526 29.6177 19.6424 29.6177 19.6424C29.081 19.3971 27.688 20.0949 27.4116 20.819C27.3398 20.9918 27.3376 20.804 27.3526 20.6576C27.3669 20.5002 27.3867 20.3621 27.3698 20.2175C27.3647 20.1747 27.256 20.3314 27.2487 20.2896C27.2208 20.1359 27.3032 19.9671 27.2655 19.7965C27.2531 19.739 27.1088 19.966 27.0898 19.9085C27.0371 19.7507 27.1293 19.5289 27.092 19.3114C27.0773 19.2265 26.9408 19.4934 26.895 19.4172C26.8416 19.329 26.865 19.0021 26.8397 18.9526C26.8192 18.9131 26.6977 19.1093 26.6874 19.0724C26.5227 18.473 26.7416 18.3984 26.4253 18.7363C26.4143 18.748 26.344 18.3819 26.3319 18.3943C26.2023 18.6718 25.99 18.1966 25.9175 18.2409C25.8633 18.2746 26.0654 18.4584 26.0676 18.5411C26.0687 18.581 25.8816 18.5836 25.8816 18.5836C25.8857 18.6521 26.2375 18.8439 26.2488 18.919C26.258 18.9808 25.9999 18.9655 25.9999 18.9655C26.0079 19.0493 26.3012 19.1291 26.3173 19.2181C26.3264 19.2671 26.18 19.2781 26.1848 19.3279C26.1925 19.4044 26.4681 19.5556 26.4773 19.6336C26.4835 19.6878 26.3012 19.7101 26.2968 19.7606C26.2913 19.8218 26.6629 20.0268 26.6633 20.0843C26.6636 20.1655 26.5154 20.1238 26.448 20.1648C26.3532 20.2223 26.7522 20.4551 26.7691 20.5214C26.7822 20.5796 26.6094 20.5283 26.6036 20.5814C26.5963 20.651 26.7991 20.7561 26.8456 20.8754C26.8921 20.9933 26.8445 21.0233 26.7779 20.9765C26.6442 20.8824 26.1053 20.3098 25.9622 20.1571C25.7542 19.9353 25.3284 19.6867 24.9038 19.672C24.8595 19.6856 25.1322 19.8785 25.134 19.9484C25.1344 19.9664 25.0114 19.9931 25.0169 19.9986C25.0923 20.074 25.327 20.1637 25.327 20.1637L25.2596 20.2849C25.2754 20.3204 25.3867 20.3299 25.565 20.3885C25.565 20.3885 25.4313 20.4712 25.4412 20.4789C25.5357 20.5543 25.7187 20.61 25.7187 20.61L25.5386 20.6704C25.528 20.7052 25.9439 20.8718 25.9439 20.8718C25.9439 20.8718 25.8139 20.9838 25.8198 20.9896C25.8516 21.0215 26.1573 21.0921 26.1573 21.0921C26.1624 21.0973 25.9413 21.1661 25.9428 21.1676C26.0229 21.2477 26.2441 21.2737 26.2957 21.4063C26.2957 21.4063 26.3261 21.4817 26.2386 21.4674C25.8944 21.3426 25.3614 21.0841 24.3279 21.1855C23.2713 21.3232 22.4662 22.2417 22.4802 22.3332C22.4802 22.3332 22.858 22.0623 22.8979 22.1172L22.8979 22.1172Z" fill="#109421"/>
<path d="M26.8536 22.3806C26.9573 22.3139 26.984 22.1706 26.9132 22.0607C26.8424 21.9507 26.701 21.9157 26.5973 21.9825C26.4936 22.0492 26.4669 22.1925 26.5377 22.3024C26.6084 22.4124 26.7499 22.4474 26.8536 22.3806Z" fill="#8C4200"/>
<path d="M26.9473 22.6246C26.8289 22.5484 26.7984 22.3848 26.8793 22.2592C26.9602 22.1337 27.1218 22.0937 27.2402 22.17C27.3586 22.2462 27.3891 22.4098 27.3082 22.5354C27.2273 22.6609 27.0658 22.7009 26.9473 22.6246Z" fill="#8C4200"/>
<path d="M26.6354 22.8514C26.509 22.77 26.4764 22.5954 26.5628 22.4613C26.6491 22.3273 26.8216 22.2846 26.948 22.366C27.0744 22.4474 27.107 22.6221 27.0206 22.7561C26.9343 22.8901 26.7618 22.9328 26.6354 22.8514Z" fill="#8C4200"/>
<path fill-rule="evenodd" clip-rule="evenodd" d="M24.7013 31.2094H25.0377V31.4609H24.7013V31.2094Z" fill="black"/>
<path fill-rule="evenodd" clip-rule="evenodd" d="M23.0187 31.3712C23.0187 31.3712 25.2289 31.5396 26.5842 31.2486C26.5842 31.2486 26.6981 31.3258 26.5344 31.5169C26.3708 31.7077 25.9567 31.7487 25.7293 31.7897C25.7293 31.7897 25.6748 31.9123 25.6792 31.976C25.6839 32.0397 25.8227 32.0332 25.8908 32.0192L25.9589 32.0057C25.9589 32.0057 25.927 32.2444 25.0905 32.2762C24.8159 32.2869 23.9105 32.3059 23.7191 32.0375C23.7191 32.0375 23.8849 32.0511 23.9281 32.0375C23.9713 32.024 23.9398 31.8512 23.9237 31.8259C23.908 31.801 23.3369 31.8259 23.037 31.5484C22.9627 31.4694 22.9272 31.3852 22.9272 31.3551C22.9272 31.3526 23.0187 31.3712 23.0187 31.3712ZM24.1705 31.8351C24.1705 31.8351 24.7753 31.9123 25.4712 31.8351C25.4712 31.8351 25.4895 31.9669 25.4577 32.017C25.4258 32.0672 24.623 32.1056 24.2181 32.0354C24.1529 32.0145 24.1507 31.9347 24.1705 31.8351V31.8351Z" fill="#8C4200"/>
<path fill-rule="evenodd" clip-rule="evenodd" d="M23.3262 31.2636C23.3262 31.2636 24.1463 30.3916 23.8952 28.572C23.8952 28.572 24.7496 28.7921 25.6206 30.0489C25.6206 30.0489 25.8747 30.3041 26.1734 31.2142L23.3262 31.2636Z" fill="#FDF9FF"/>
<path fill-rule="evenodd" clip-rule="evenodd" d="M27.0228 15.534C27.0228 15.534 20.0005 20.7616 20.0005 26.9257C20.0005 33.0905 27.0228 38.466 27.0228 38.466C27.0228 38.466 34 33.5338 34 26.9257C34 20.3179 27.0228 15.534 27.0228 15.534ZM27.0202 16.7992C27.0202 16.7992 20.773 21.4498 20.773 26.9337C20.773 32.4183 27.0202 37.2007 27.0202 37.2007C27.0202 37.2007 33.2275 32.813 33.2275 26.9337C33.2275 21.0552 27.0202 16.7992 27.0202 16.7992Z" fill="#EE5757"/>
</g>
</svg>
