<svg width="54" height="48" viewBox="0 0 54 48" fill="none" xmlns="http://www.w3.org/2000/svg">
<mask id="mask0_1_33104" style="mask-type:alpha" maskUnits="userSpaceOnUse" x="3" y="6" width="48" height="36">
<path d="M3.56934 15.1356C4.16681 10.4125 8.0415 7.00193 12.7861 6.60887C16.6412 6.28949 21.6196 6 27 6C32.3804 6 37.3588 6.28949 41.2139 6.60887C45.9585 7.00193 49.8332 10.4125 50.4307 15.1356C50.752 17.6759 51 20.704 51 24C51 27.296 50.752 30.3241 50.4307 32.8644C49.8332 37.5875 45.9585 40.9981 41.2139 41.3911C37.3588 41.7105 32.3804 42 27 42C21.6196 42 16.6412 41.7105 12.7861 41.3911C8.0415 40.9981 4.16681 37.5875 3.56934 32.8644C3.248 30.3241 3 27.296 3 24C3 20.704 3.248 17.6759 3.56934 15.1356Z" fill="#00D0BF"/>
</mask>
<g mask="url(#mask0_1_33104)">
<rect x="51" y="42" width="48" height="36" transform="rotate(-180 51 42)" fill="#EE5757"/>
<rect x="49" y="40" width="44" height="32" rx="10" transform="rotate(-180 49 40)" fill="#2E50A6"/>
<path fill-rule="evenodd" clip-rule="evenodd" d="M27.0215 13.1666C27.0215 13.1666 20.3868 18.4458 20.3868 23.9297C20.3868 29.4143 27.0215 34.8334 27.0215 34.8334C27.0215 34.8334 33.6138 29.809 33.6138 23.9297C33.6138 18.0512 27.0215 13.1666 27.0215 13.1666H27.0215Z" fill="#92DBFC"/>
<path fill-rule="evenodd" clip-rule="evenodd" d="M21.1208 27.277C22.8475 31.4241 27.0215 34.8333 27.0215 34.8333C27.0215 34.8333 31.2697 31.5954 32.9456 27.2767" fill="#008CE7"/>
<path fill-rule="evenodd" clip-rule="evenodd" d="M32.9687 26.0802C31.9458 26.812 26.1903 26.4606 26.1903 26.4606L25.8685 27.2799L32.7216 27.3011C32.7501 27.1887 32.8186 27.0551 32.8424 26.9416L32.9687 26.0802Z" fill="#9C8431"/>
<path fill-rule="evenodd" clip-rule="evenodd" d="M22.6702 29.4714C22.9616 29.4809 23.2519 29.5424 23.5126 29.6823C23.9786 29.9268 24.2488 29.925 24.7511 29.9327C25.2768 29.9407 25.6894 30.3277 26.2576 30.3438C27.3043 30.3731 27.7444 30.893 26.9305 30.8926C26.5461 30.8922 25.722 30.6341 25.3237 30.6883C24.7182 30.7498 24.3682 30.7959 23.92 31.1522C23.4932 30.6396 23.0663 30.0758 22.6702 29.4714ZM24.7409 32.081C25.0004 31.9034 25.1791 31.7646 25.431 31.757C25.9204 31.742 26.0874 31.4392 26.653 31.4395C27.2959 31.5574 28.1672 31.3623 28.6772 31.2492C29.5826 31.0405 29.1531 30.4071 28.6051 30.1772C28.1621 29.9876 27.3318 30.1677 26.8167 29.9795C26.4268 29.8272 26.7482 29.5845 26.958 29.5329C27.1696 29.4941 27.3966 29.564 27.6598 29.6068C28.1299 29.6482 28.7204 29.6043 29.1334 29.5402C29.9868 29.4095 29.9516 29.1591 30.3635 29.1532C30.664 29.1393 30.8929 29.05 31.0979 28.9035C31.3388 28.7428 31.5896 28.413 31.881 28.4261L32.0523 28.4335C30.2525 31.9151 27.0202 34.2007 27.0202 34.2007C27.0202 34.2007 25.9757 33.4011 24.7409 32.081Z" fill="#FFDE52"/>
<path fill-rule="evenodd" clip-rule="evenodd" d="M28.8782 29.5307C28.9898 29.9627 29.1081 30.1095 29.5621 30.2204C30.0102 30.3314 30.6948 29.8957 30.2705 29.4728C29.8667 29.0796 29.4412 28.979 29.0795 28.6249C28.5183 28.0685 27.7484 26.9182 27.3826 25.8305C26.9825 24.6414 27.052 21.2937 27.07 19.5979C27.0704 19.5781 27.1187 19.5664 27.1242 19.5584C27.1502 19.521 27.1751 19.5705 27.1344 19.3219C27.1238 19.2582 27.0733 19.1923 27.0736 19.1278C27.074 19.0129 26.6768 19.2534 26.5721 19.4584C26.5483 19.5053 26.6482 19.6389 26.6482 19.6653C26.6618 21.2922 26.4868 24.5044 26.9188 25.9586C27.186 26.8589 27.6737 27.5541 28.1152 28.1973C28.3799 28.6096 28.7628 29.0544 28.8782 29.5307Z" fill="#8C4200"/>
<path d="M23.9277 24.7673C23.9226 24.7665 23.9024 24.764 23.883 24.7614C23.745 24.7446 23.5975 24.6864 23.4895 24.6058C23.3357 24.4913 23.2339 24.3078 23.1999 24.0827C23.1904 24.0197 23.1907 23.8575 23.2003 23.7957C23.2274 23.6218 23.2911 23.4684 23.3826 23.3563C23.4097 23.3234 23.4617 23.2729 23.4935 23.2491C23.5686 23.192 23.6656 23.1473 23.7677 23.1224C23.8409 23.1041 23.886 23.0986 23.9738 23.096C24.0961 23.0931 24.1821 23.1041 24.2788 23.1363C24.4025 23.1769 24.4985 23.2428 24.5662 23.3329C24.612 23.3937 24.6713 23.5288 24.6797 23.591C24.6841 23.6251 24.6705 23.6503 24.6405 23.6631C24.631 23.6672 24.5834 23.6814 24.5343 23.6946C24.4359 23.721 24.4219 23.7217 24.4 23.7034C24.3853 23.691 24.3802 23.6814 24.3674 23.6415C24.3615 23.6247 24.3473 23.5903 24.3352 23.5657C24.3165 23.528 24.3088 23.5167 24.2836 23.4914C24.2583 23.4658 24.2473 23.4581 24.2096 23.4398C24.1261 23.3992 24.0324 23.3853 23.9244 23.3984C23.8453 23.408 23.7597 23.4402 23.7058 23.4808C23.5861 23.5709 23.5195 23.7488 23.5265 23.9589C23.5356 24.2456 23.6572 24.4034 23.9072 24.4535C23.9552 24.4631 24.0599 24.4631 24.1111 24.4535C24.1858 24.4396 24.2953 24.3968 24.3571 24.3573L24.3795 24.3433V24.2522L24.3798 24.1607L24.1825 24.1592L23.9852 24.1577L23.9727 24.149C23.9658 24.1438 23.9563 24.1343 23.9515 24.1274C23.9427 24.1153 23.9427 24.1134 23.9427 24.0062C23.9431 23.8989 23.9431 23.8971 23.9519 23.885C23.9566 23.878 23.9665 23.8685 23.9735 23.8638L23.9859 23.8546L24.3238 23.8554L24.6621 23.8562L24.6742 23.8649C24.6812 23.8697 24.6907 23.8803 24.6958 23.8884L24.7046 23.9026L24.7053 24.1827C24.7061 24.4811 24.7053 24.4932 24.6874 24.5148C24.6823 24.521 24.6588 24.54 24.6358 24.5569C24.4761 24.6744 24.3063 24.7443 24.1316 24.7645C24.0866 24.7696 23.9555 24.7714 23.9277 24.7674L23.9277 24.7673ZM25.6956 24.7823C25.5188 24.7688 25.3852 24.716 25.2878 24.622C25.1919 24.5293 25.1443 24.4133 25.123 24.22C25.1168 24.1662 25.1164 24.1094 25.1168 23.6723C25.1175 23.2015 25.1179 23.1839 25.1252 23.1696C25.1293 23.1616 25.1388 23.1502 25.1461 23.1444L25.16 23.1341L25.2761 23.133C25.3881 23.1322 25.3929 23.1322 25.4093 23.1403C25.4196 23.1455 25.4298 23.1546 25.4353 23.163L25.4441 23.1773L25.4456 23.6825C25.4467 24.1277 25.4474 24.1925 25.4529 24.2277C25.4675 24.3192 25.4822 24.3532 25.525 24.3961C25.5788 24.4495 25.6348 24.4693 25.741 24.473C25.8388 24.4759 25.9058 24.4649 25.9632 24.4367C26.0295 24.4045 26.0595 24.3536 26.0822 24.2372C26.0906 24.1933 26.0906 24.1863 26.0939 23.6877C26.0972 23.1228 26.0947 23.1696 26.1251 23.1466L26.1393 23.1359H26.2602C26.3949 23.1363 26.3909 23.1356 26.4125 23.1641L26.4234 23.1784L26.4238 23.6317C26.4242 24.0864 26.422 24.1815 26.4099 24.2672C26.3839 24.4495 26.3235 24.5648 26.2071 24.6549C26.1679 24.6853 26.1518 24.6955 26.1133 24.7146C26.0544 24.7442 25.9863 24.7644 25.9091 24.7754C25.8688 24.7812 25.7366 24.7852 25.6956 24.7823L25.6956 24.7823ZM27.2779 24.7578C27.2728 24.7567 27.2614 24.7483 27.2523 24.7395C27.2336 24.7208 27.2285 24.7036 27.234 24.6802C27.2409 24.6512 27.8135 23.1737 27.8227 23.1619C27.8406 23.1378 27.8457 23.137 27.9797 23.1374C28.1137 23.1374 28.1189 23.1385 28.1372 23.1623C28.1419 23.1693 28.284 23.513 28.4527 23.9271C28.7207 24.585 28.7592 24.682 28.7592 24.6996C28.7592 24.7219 28.7504 24.7373 28.7295 24.7523C28.7171 24.7611 28.7167 24.7611 28.5827 24.7607H28.4484L28.4337 24.7494C28.415 24.7351 28.4154 24.7365 28.3286 24.5096C28.2891 24.406 28.2551 24.3181 28.2529 24.3144C28.2496 24.3078 28.2327 24.3075 27.9838 24.3071C27.7345 24.3067 27.718 24.3071 27.7154 24.3133C27.7139 24.317 27.6803 24.4093 27.6404 24.5183C27.6008 24.6271 27.5649 24.7219 27.5606 24.7289C27.5562 24.7358 27.547 24.7453 27.5404 24.7501C27.5283 24.7589 27.5261 24.7589 27.4075 24.7592C27.3413 24.7596 27.283 24.7589 27.2779 24.7578V24.7578ZM28.1357 24.0014C28.1298 23.9849 27.9878 23.6049 27.9841 23.5958C27.9827 23.5917 27.9808 23.5936 27.9779 23.6016C27.9713 23.6214 27.826 24.0091 27.8241 24.0124C27.823 24.0139 27.8941 24.0153 27.9816 24.0157H28.1412L28.1357 24.0014ZM29.349 24.7563C29.3321 24.7512 29.3138 24.7318 29.3091 24.7138C29.3065 24.7036 29.3058 24.4528 29.3076 23.9373L29.3102 23.1762L29.3204 23.1623C29.3409 23.1356 29.3391 23.1359 29.5225 23.1363C29.6752 23.1367 29.688 23.1371 29.7008 23.1436C29.7081 23.1477 29.718 23.1564 29.7224 23.163C29.7268 23.1693 29.8121 23.42 29.9117 23.7195C30.0116 24.019 30.094 24.2643 30.0951 24.2643C30.0962 24.2643 30.1811 24.0208 30.284 23.7235C30.4008 23.3853 30.4747 23.1769 30.481 23.1674C30.5015 23.1378 30.4996 23.1381 30.6677 23.1385C30.8108 23.1385 30.8174 23.1389 30.831 23.1466C30.8386 23.151 30.8493 23.1612 30.8548 23.1689L30.8643 23.1835L30.8632 23.9491C30.8617 24.6707 30.8614 24.7153 30.8548 24.727C30.8511 24.7336 30.8416 24.7442 30.8335 24.7501L30.8193 24.7611L30.7025 24.7607C30.5868 24.7607 30.5857 24.7607 30.5732 24.7515C30.5663 24.7468 30.5568 24.7373 30.552 24.7303L30.5428 24.7179L30.5417 24.2785L30.5407 23.8396L30.5202 23.8978C30.5088 23.93 30.4392 24.1292 30.3657 24.3404C30.2364 24.7105 30.2309 24.7255 30.2159 24.7409C30.2068 24.7504 30.1954 24.7578 30.1877 24.7592C30.1804 24.7607 30.1317 24.7618 30.079 24.7618C29.9871 24.7614 29.9823 24.761 29.9659 24.7526C29.9563 24.7479 29.945 24.7384 29.9406 24.7318C29.9362 24.7252 29.8648 24.5191 29.7821 24.2738C29.6993 24.0288 29.6302 23.8282 29.6287 23.8282C29.6269 23.8282 29.6254 24.0266 29.6247 24.2697C29.6239 24.7643 29.6261 24.7281 29.5954 24.7486L29.5796 24.7589L29.4705 24.7592C29.4105 24.7596 29.3559 24.7581 29.3494 24.756L29.349 24.7563Z" fill="white"/>
<path d="M23.9175 24.6996C23.719 24.6769 23.5404 24.589 23.4327 24.4609C23.3419 24.3532 23.2834 24.2112 23.264 24.0516C23.2577 23.9988 23.2581 23.8744 23.2647 23.8238C23.2874 23.6499 23.3562 23.4878 23.4547 23.3761C23.6228 23.1854 23.9716 23.1085 24.255 23.2C24.4337 23.2575 24.5398 23.3666 24.6002 23.5537C24.6087 23.5796 24.6149 23.6016 24.6142 23.6027C24.612 23.6042 24.4597 23.6455 24.4483 23.6477C24.4417 23.6488 24.4384 23.6426 24.4285 23.6133C24.4004 23.5306 24.3575 23.4618 24.3099 23.4237C24.206 23.3409 24.0595 23.3106 23.8878 23.3366C23.778 23.3534 23.6689 23.4098 23.6063 23.4823C23.5122 23.591 23.4657 23.7243 23.4598 23.9004C23.4543 24.0746 23.4858 24.2075 23.5587 24.3173C23.6769 24.496 23.9522 24.5758 24.1972 24.5026C24.2755 24.4792 24.3608 24.4385 24.4209 24.3957L24.4487 24.3759L24.4491 24.235V24.0937L24.2279 24.0933L24.0064 24.0929L24.0068 24.0065V23.9201L24.3231 23.9209L24.6394 23.9212L24.6387 24.1966L24.6383 24.4719L24.6035 24.4975C24.4611 24.6022 24.3183 24.6655 24.1657 24.6926C24.1093 24.7025 23.9746 24.7062 23.9175 24.6996V24.6996ZM25.67 24.7131C25.5265 24.6974 25.4148 24.6512 25.3357 24.5743C25.2636 24.5044 25.2223 24.4177 25.2007 24.2914C25.1853 24.2006 25.1842 24.1537 25.1849 23.6704L25.1856 23.1971L25.2827 23.1975H25.3793L25.3801 23.7023C25.3808 24.2394 25.3804 24.2306 25.4009 24.3115C25.4269 24.4147 25.5038 24.4913 25.6136 24.5231C25.7015 24.5487 25.8201 24.5491 25.9201 24.5242C26.0387 24.4946 26.1024 24.4309 26.1346 24.31C26.1595 24.2174 26.1591 24.2262 26.1617 23.6913L26.1642 23.1989L26.2613 23.1993H26.3579L26.3568 23.6558C26.3565 23.9187 26.3543 24.138 26.3517 24.1731C26.3352 24.4045 26.2752 24.5297 26.135 24.6245C26.0797 24.6623 26.0046 24.6908 25.9219 24.7062C25.886 24.7128 25.711 24.7175 25.67 24.7131L25.67 24.7131ZM27.3079 24.6714C27.3127 24.6593 27.4419 24.3243 27.5953 23.9267L27.8747 23.204L27.9794 23.2032L28.0845 23.2022L28.3854 23.9417C28.5509 24.3484 28.6874 24.6845 28.6889 24.6885C28.6915 24.6955 28.6849 24.6959 28.582 24.6959L28.4722 24.6955L28.4531 24.646C28.4425 24.619 28.4041 24.5175 28.3671 24.4213L28.3001 24.2463L27.9845 24.2448L27.6689 24.243L27.5869 24.4685L27.5049 24.694L27.402 24.6936H27.2995L27.3079 24.6714ZM28.2357 24.0764C28.2346 24.0724 28.1914 23.9571 28.1401 23.8202C28.0888 23.6833 28.031 23.5244 28.012 23.4665C27.9929 23.409 27.9765 23.3611 27.9757 23.36C27.9746 23.3589 27.9673 23.3841 27.9596 23.416C27.9344 23.5218 27.9102 23.5943 27.8201 23.8323C27.7714 23.9622 27.7301 24.0717 27.7286 24.0757C27.7257 24.0827 27.7396 24.083 27.9816 24.0834C28.2232 24.0838 28.2375 24.0834 28.2357 24.0765V24.0764ZM29.375 23.9468L29.3764 23.2004L29.5229 23.2018L29.669 23.2033L29.8666 23.7982C29.9754 24.1251 30.0706 24.4133 30.0779 24.4385C30.0856 24.4634 30.0925 24.4832 30.0936 24.4825C30.0944 24.4814 30.1189 24.4107 30.1478 24.325C30.1771 24.2397 30.276 23.9527 30.3678 23.6873L30.5352 23.2048L30.6662 23.204L30.7973 23.2032L30.7958 23.9493L30.7944 24.6958L30.7017 24.6954H30.6091L30.6102 24.0683C30.611 23.7234 30.6098 23.4433 30.6076 23.4455C30.6058 23.4477 30.5139 23.7084 30.4037 24.0247C30.2935 24.341 30.1958 24.6211 30.1866 24.6471L30.1698 24.6943H29.9948L29.7817 24.0624C29.6646 23.715 29.5672 23.428 29.5653 23.4243C29.5635 23.421 29.5613 23.7051 29.5606 24.0558L29.5591 24.6932H29.4665L29.3739 24.6928L29.375 23.9468Z" fill="#BD0728"/>
<path fill-rule="evenodd" clip-rule="evenodd" d="M22.8979 19.1172C22.9261 19.156 22.922 19.3234 22.922 19.3234C22.9451 19.3373 23.3193 19.0048 23.3193 19.0199C23.3196 19.0898 23.3281 19.234 23.3281 19.234C23.3281 19.234 23.7154 18.8657 23.7315 18.9045C23.7494 18.9481 23.73 19.1615 23.73 19.1615C23.73 19.1615 23.9878 18.8774 24.035 18.8262C24.069 18.7896 24.0636 18.8723 24.0669 19.0059C24.0676 19.0297 24.4893 18.6948 24.515 18.6889C24.5695 18.6772 24.5864 18.8628 24.5834 18.9093C24.5812 18.9437 24.9726 18.686 24.9554 18.72L24.9843 18.9181C25.0934 18.9031 25.3533 18.806 25.5097 18.8313C25.5598 18.8394 25.5573 18.8646 25.5126 18.8829C24.7592 19.1879 24.1796 19.6477 23.8421 20.2884C23.7271 20.5066 23.692 20.697 23.7223 20.7449C23.7223 20.7449 23.8578 20.4535 24.0105 20.4078C24.031 20.4019 24.0445 20.5945 24.0654 20.5835C24.0654 20.5835 24.1811 20.2913 24.2645 20.1837C24.2869 20.1548 24.3242 20.3371 24.348 20.31C24.348 20.31 24.4081 20.1145 24.5256 19.9783C24.5424 19.9589 24.5728 20.1632 24.5915 20.146C24.7134 20.0336 24.828 19.7517 24.8737 19.7308C24.9056 19.7059 24.9111 19.9651 24.9415 19.9428C24.9415 19.9428 25.1154 19.5935 25.2193 19.5302C25.286 19.4892 25.2834 19.7209 25.2834 19.7209C25.4159 19.5902 25.562 19.3735 25.6312 19.2794C25.6631 19.2362 25.6455 19.565 25.6795 19.5778C25.7231 19.5946 26.0087 19.3259 26.0409 19.3204C26.0621 19.3168 26.087 19.3969 26.0314 19.4614C26.027 19.4665 25.6784 19.8685 25.6784 19.8685C25.7462 19.8813 25.7725 19.8623 25.8212 19.8751C25.9658 19.9131 25.5503 20.1515 25.5573 20.1961C25.5573 20.1961 25.7575 20.1925 25.6905 20.2313C25.6422 20.2595 25.3775 20.6003 25.3775 20.5882C25.3775 20.582 25.5104 20.5912 25.5097 20.6292C25.5086 20.6999 25.2896 21.0642 25.2874 21.062C25.2754 21.0499 25.405 21.0462 25.4225 21.0821C25.4548 21.1484 25.1977 21.4431 25.2479 21.4933C25.2549 21.5002 25.3947 21.4954 25.4569 21.5094C25.487 21.5159 25.5712 22.0446 25.5499 22.0234C25.5452 22.0182 25.64 21.5277 25.6975 21.3783C25.7326 21.2879 25.845 21.5149 25.8542 21.4947C25.8494 21.4947 25.8315 21.1722 25.8472 21.0254C25.8516 20.9844 25.9325 21.0682 25.9314 21.029C25.9285 20.9401 25.9212 20.8449 25.9395 20.7581C25.9534 20.6926 26.0222 20.8764 26.0489 20.8269C26.0489 20.8269 25.9655 20.5077 26.0002 20.4176C26.0233 20.3583 26.079 20.5612 26.1156 20.5692C26.1156 20.5692 26.0951 20.321 26.1335 20.2569L26.2496 20.3814C26.2748 20.3415 26.2701 19.9549 26.2935 19.9186C26.3129 19.8883 26.4333 20.0636 26.4513 20.0362C26.4674 20.0113 26.4004 19.7242 26.4154 19.7015C26.4366 19.669 26.5688 19.7813 26.5714 19.7792C26.6252 19.725 26.6234 19.5899 26.6461 19.5397C26.7068 19.4039 27.0554 19.3863 27.0964 19.483C27.1165 19.5298 27.1026 19.5902 27.0945 19.6631C27.0978 19.666 27.2692 19.6785 27.2706 19.6653C27.2706 19.6653 27.2501 19.8253 27.2622 20.0014C27.264 20.0248 27.4361 19.9955 27.4383 20.019C27.454 20.1848 27.416 20.2002 27.416 20.2002C27.4174 20.2123 27.532 20.1826 27.5339 20.1954C27.5463 20.2763 27.5203 20.3748 27.4691 20.4696C27.4614 20.4832 27.6331 20.4564 27.6356 20.4722C27.6565 20.5967 27.6605 20.6955 27.6389 20.8712C27.6371 20.8855 27.807 20.7471 27.8095 20.7614C27.8352 20.9093 27.8055 21.0689 27.8209 21.222C27.8245 21.2575 27.9333 21.1162 27.9432 21.1572C27.953 21.1974 27.919 21.4903 27.9355 21.5068C27.9355 21.5068 28.1174 21.4976 28.1335 21.513C28.2778 21.6485 28.2503 21.885 28.2503 21.885C28.2899 21.8557 28.2748 21.5709 28.2349 21.3102C28.2305 21.2827 28.3748 21.2934 28.3704 21.2677C28.3704 21.2677 28.2122 21.1725 28.1603 20.9075C28.1493 20.8507 28.3129 20.8625 28.3129 20.8625C28.2675 20.7581 28.1877 20.7383 28.12 20.638C28.098 20.6051 28.2899 20.5901 28.2899 20.5806C28.2902 20.4806 28.128 20.433 28.0442 20.329C28.0083 20.2847 28.2192 20.2825 28.2192 20.2825C28.1573 20.1965 27.9534 20.1588 27.8494 20.0449C27.7927 19.9831 28.0563 19.9223 28.053 19.9117C28.0241 19.8205 27.7762 19.792 27.6561 19.6891C27.6312 19.6679 27.8128 19.5961 27.8128 19.5961C27.7945 19.5573 27.3988 19.297 27.6001 19.3208C27.6851 19.331 27.8575 19.4519 27.871 19.4336C27.871 19.4336 27.8637 19.2816 27.8813 19.2633C27.9476 19.1945 28.176 19.5555 28.2536 19.5408C28.2536 19.5408 28.2822 19.2824 28.3173 19.2754C28.4008 19.2597 28.5026 19.6517 28.5849 19.6517C28.5959 19.6517 28.6021 19.4251 28.6446 19.4127C28.6926 19.3988 28.7464 19.6668 28.8072 19.7261C28.8635 19.7806 28.8643 19.5167 28.8972 19.5668C28.9532 19.6477 28.9668 19.8165 29.0433 19.8908C29.0931 19.9391 29.1022 19.658 29.1575 19.6957C29.2216 19.7392 29.2066 19.885 29.2787 19.9567C29.3131 19.9908 29.3362 19.7711 29.3754 19.8033C29.4101 19.8315 29.4336 20.1002 29.4709 20.1427C29.5185 20.1969 29.5734 20.001 29.6228 20.0321C29.6584 20.0548 29.6499 20.2873 29.6829 20.3371C29.7502 20.4403 29.7854 20.2123 29.8301 20.2474C29.8612 20.2712 29.9285 20.5385 29.9567 20.5597C30.0193 20.6073 30.0537 20.4381 30.1013 20.4619C30.1358 20.4788 30.2053 20.8229 30.2339 20.8141C30.2525 20.8083 30.2987 20.0299 29.9992 19.7015C29.5112 19.1663 28.6373 18.8573 27.9241 18.8496C27.9241 18.8496 28.2825 18.7782 28.2921 18.7189C28.3111 18.6007 28.489 18.6146 28.6131 18.6417C28.6351 18.6464 28.6234 18.4326 28.6263 18.4315C28.7372 18.429 28.8365 18.4945 28.9426 18.5589C28.9756 18.5791 28.8756 18.3448 28.9108 18.3649C29.047 18.4436 29.1985 18.4667 29.2904 18.5622C29.3146 18.5875 29.2626 18.3817 29.2626 18.3817C29.3307 18.3653 29.4651 18.4634 29.5178 18.5553C29.5434 18.6007 29.5163 18.3155 29.5364 18.366C29.5364 18.366 29.7737 18.4465 29.7993 18.5465C29.7993 18.5465 29.8187 18.3656 29.8506 18.3751C29.9457 18.4 30.0292 18.5608 30.1035 18.5838C30.1035 18.5838 30.0728 18.4227 30.0969 18.429C30.2756 18.474 30.4696 18.5846 30.4693 18.5838C30.3686 18.3319 29.9868 18.068 29.315 17.9973C29.1916 17.9845 28.6911 17.964 28.2668 18.0625C27.919 18.143 27.6444 18.1888 27.7008 18.1339C27.9307 17.9087 28.3023 17.8813 28.4045 17.8289C28.4777 17.7916 28.1581 17.6682 28.2214 17.6506C28.2844 17.6356 28.5699 17.6118 28.5699 17.6118C28.6318 17.5635 28.3623 17.469 28.4026 17.3987C28.4832 17.2578 28.9595 17.3859 29.0001 17.3325C29.0133 17.3145 28.7954 17.1857 28.8046 17.1666C28.8394 17.0952 29.2633 17.2194 29.2732 17.1571C29.2732 17.1571 29.1447 17.0612 29.0532 16.9825C29.0422 16.973 29.4317 16.8683 29.4317 16.8683C29.4244 16.8609 29.3651 16.8192 29.2758 16.7844C29.1941 16.7526 29.6177 16.6424 29.6177 16.6424C29.081 16.3971 27.688 17.0949 27.4116 17.819C27.3398 17.9918 27.3376 17.804 27.3526 17.6576C27.3669 17.5002 27.3867 17.3621 27.3698 17.2175C27.3647 17.1747 27.256 17.3314 27.2487 17.2896C27.2208 17.1359 27.3032 16.9671 27.2655 16.7965C27.2531 16.739 27.1088 16.966 27.0898 16.9085C27.0371 16.7507 27.1293 16.5289 27.092 16.3114C27.0773 16.2265 26.9408 16.4934 26.895 16.4172C26.8416 16.329 26.865 16.0021 26.8397 15.9526C26.8192 15.9131 26.6977 16.1093 26.6874 16.0724C26.5227 15.473 26.7416 15.3984 26.4253 15.7363C26.4143 15.748 26.344 15.3819 26.3319 15.3943C26.2023 15.6718 25.99 15.1966 25.9175 15.2409C25.8633 15.2746 26.0654 15.4584 26.0676 15.5411C26.0687 15.581 25.8816 15.5836 25.8816 15.5836C25.8857 15.6521 26.2375 15.8439 26.2488 15.919C26.258 15.9808 25.9999 15.9655 25.9999 15.9655C26.0079 16.0493 26.3012 16.1291 26.3173 16.2181C26.3264 16.2671 26.18 16.2781 26.1848 16.3279C26.1925 16.4044 26.4681 16.5556 26.4773 16.6336C26.4835 16.6878 26.3012 16.7101 26.2968 16.7606C26.2913 16.8218 26.6629 17.0268 26.6633 17.0843C26.6636 17.1655 26.5154 17.1238 26.448 17.1648C26.3532 17.2223 26.7522 17.4551 26.7691 17.5214C26.7822 17.5796 26.6094 17.5283 26.6036 17.5814C26.5963 17.651 26.7991 17.7561 26.8456 17.8754C26.8921 17.9933 26.8445 18.0233 26.7779 17.9765C26.6442 17.8824 26.1053 17.3098 25.9622 17.1571C25.7542 16.9353 25.3284 16.6867 24.9038 16.672C24.8595 16.6856 25.1322 16.8785 25.134 16.9484C25.1344 16.9664 25.0114 16.9931 25.0169 16.9986C25.0923 17.074 25.327 17.1637 25.327 17.1637L25.2596 17.2849C25.2754 17.3204 25.3867 17.3299 25.565 17.3885C25.565 17.3885 25.4313 17.4712 25.4412 17.4789C25.5357 17.5543 25.7187 17.61 25.7187 17.61L25.5386 17.6704C25.528 17.7052 25.9439 17.8718 25.9439 17.8718C25.9439 17.8718 25.8139 17.9838 25.8198 17.9896C25.8516 18.0215 26.1573 18.0921 26.1573 18.0921C26.1624 18.0973 25.9413 18.1661 25.9428 18.1676C26.0229 18.2477 26.2441 18.2737 26.2957 18.4063C26.2957 18.4063 26.3261 18.4817 26.2386 18.4674C25.8944 18.3426 25.3614 18.0841 24.3279 18.1855C23.2713 18.3232 22.4662 19.2417 22.4802 19.3332C22.4802 19.3332 22.858 19.0623 22.8979 19.1172L22.8979 19.1172Z" fill="#109421"/>
<path d="M26.8536 19.3806C26.9573 19.3139 26.984 19.1706 26.9132 19.0607C26.8424 18.9507 26.701 18.9157 26.5973 18.9825C26.4936 19.0492 26.4669 19.1925 26.5377 19.3024C26.6084 19.4124 26.7499 19.4474 26.8536 19.3806Z" fill="#8C4200"/>
<path d="M26.9473 19.6246C26.8289 19.5484 26.7984 19.3848 26.8793 19.2592C26.9602 19.1337 27.1218 19.0937 27.2402 19.17C27.3586 19.2462 27.3891 19.4098 27.3082 19.5354C27.2273 19.6609 27.0658 19.7009 26.9473 19.6246Z" fill="#8C4200"/>
<path d="M26.6354 19.8514C26.509 19.77 26.4764 19.5954 26.5628 19.4613C26.6491 19.3273 26.8216 19.2846 26.948 19.366C27.0744 19.4474 27.107 19.6221 27.0206 19.7561C26.9343 19.8901 26.7618 19.9328 26.6354 19.8514Z" fill="#8C4200"/>
<path fill-rule="evenodd" clip-rule="evenodd" d="M24.7013 28.2094H25.0377V28.4609H24.7013V28.2094Z" fill="black"/>
<path fill-rule="evenodd" clip-rule="evenodd" d="M23.0187 28.3712C23.0187 28.3712 25.2289 28.5396 26.5842 28.2486C26.5842 28.2486 26.6981 28.3258 26.5344 28.5169C26.3708 28.7077 25.9567 28.7487 25.7293 28.7897C25.7293 28.7897 25.6748 28.9123 25.6792 28.976C25.6839 29.0397 25.8227 29.0332 25.8908 29.0192L25.9589 29.0057C25.9589 29.0057 25.927 29.2444 25.0905 29.2762C24.8159 29.2869 23.9105 29.3059 23.7191 29.0375C23.7191 29.0375 23.8849 29.0511 23.9281 29.0375C23.9713 29.024 23.9398 28.8512 23.9237 28.8259C23.908 28.801 23.3369 28.8259 23.037 28.5484C22.9627 28.4694 22.9272 28.3852 22.9272 28.3551C22.9272 28.3526 23.0187 28.3712 23.0187 28.3712ZM24.1705 28.8351C24.1705 28.8351 24.7753 28.9123 25.4712 28.8351C25.4712 28.8351 25.4895 28.9669 25.4577 29.017C25.4258 29.0672 24.623 29.1056 24.2181 29.0354C24.1529 29.0145 24.1507 28.9347 24.1705 28.8351Z" fill="#8C4200"/>
<path fill-rule="evenodd" clip-rule="evenodd" d="M23.3262 28.2636C23.3262 28.2636 24.1463 27.3916 23.8952 25.572C23.8952 25.572 24.7496 25.7921 25.6206 27.0489C25.6206 27.0489 25.8747 27.3041 26.1734 28.2142L23.3262 28.2636Z" fill="#FDF9FF"/>
<path fill-rule="evenodd" clip-rule="evenodd" d="M27.0228 12.534C27.0228 12.534 20.0005 17.7616 20.0005 23.9257C20.0005 30.0905 27.0228 35.466 27.0228 35.466C27.0228 35.466 34 30.5338 34 23.9257C34 17.3179 27.0228 12.534 27.0228 12.534ZM27.0202 13.7992C27.0202 13.7992 20.773 18.4498 20.773 23.9337C20.773 29.4183 27.0202 34.2007 27.0202 34.2007C27.0202 34.2007 33.2275 29.813 33.2275 23.9337C33.2275 18.0552 27.0202 13.7992 27.0202 13.7992Z" fill="#EE5757"/>
</g>
</svg>
