<svg width="54" height="48" viewBox="0 0 54 48" fill="none" xmlns="http://www.w3.org/2000/svg">
<mask id="mask0_1_32084" style="mask-type:alpha" maskUnits="userSpaceOnUse" x="3" y="6" width="48" height="36">
<path d="M3.56934 15.1356C4.16681 10.4125 8.0415 7.00193 12.7861 6.60887C16.6412 6.28949 21.6196 6 27 6C32.3804 6 37.3588 6.28949 41.2139 6.60887C45.9585 7.00193 49.8332 10.4125 50.4307 15.1356C50.752 17.6759 51 20.704 51 24C51 27.296 50.752 30.3241 50.4307 32.8644C49.8332 37.5875 45.9585 40.9981 41.2139 41.3911C37.3588 41.7105 32.3804 42 27 42C21.6196 42 16.6412 41.7105 12.7861 41.3911C8.0415 40.9981 4.16681 37.5875 3.56934 32.8644C3.248 30.3241 3 27.296 3 24C3 20.704 3.248 17.6759 3.56934 15.1356Z" fill="#00D0BF"/>
</mask>
<g mask="url(#mask0_1_32084)">
<rect x="51" y="42" width="48" height="36" transform="rotate(-180 51 42)" fill="#EE5757"/>
<path d="M26.5034 24.0208C19.2704 20.964 22.4767 11.5437 29.3941 12.0172C27.9947 12.7364 27.7919 14.0785 28.5911 15.3217C29.486 16.7135 28.5087 18.9531 27.2989 19.4972C25.3106 20.3922 24.9126 22.7783 26.5034 24.0208Z" fill="white"/>
<path d="M26.1123 17.2186L25.7055 17.8572L25.5581 17.1142L24.8244 16.9246L25.4857 16.5542L25.4396 15.7984L25.9952 16.313L26.6999 16.0353L26.3831 16.723L26.8642 17.3075L26.1123 17.2186Z" fill="#EE5757"/>
<path d="M26.5444 23.9415C25.6696 23.4925 24.9642 22.5566 24.6569 21.4382C24.3054 20.1553 24.5076 18.7761 25.2123 17.6564L25.0606 17.5606C24.3295 18.7238 24.1197 20.154 24.4844 21.4854C24.8093 22.6688 25.5298 23.6223 26.4625 24.101L26.5444 23.9415Z" fill="#EE5757"/>
<path d="M26.6603 23.7058C27.5283 15.432 37.5277 16.287 39.0586 23.5604C37.9635 22.3017 36.6119 22.4424 35.6434 23.5929C34.5592 24.8812 32.1202 24.4556 31.2482 23.3472C29.8146 21.5258 27.4008 21.7373 26.6603 23.7058Z" fill="white"/>
<path d="M33.0853 21.4638L32.3479 21.2169L33.026 20.8796L32.9973 20.0931L33.5482 20.6644L34.268 20.4258L33.9298 21.1157L34.4036 21.7542L33.6445 21.6103L33.2171 22.2431L33.0853 21.4638Z" fill="#EE5757"/>
<path d="M26.7783 23.9654C26.9629 22.9079 27.6629 21.9015 28.6503 21.2727C29.7832 20.5524 31.1648 20.3995 32.4387 20.8544L32.4879 20.6662C31.1647 20.1946 29.7321 20.3531 28.5563 21.1005C27.5115 21.7656 26.7989 22.7929 26.6021 23.9203L26.7783 23.9654Z" fill="#EE5757"/>
<path d="M26.7803 23.7583C34.5939 22.4206 37.2741 32.0375 31.1983 35.3686C31.9627 34.0122 31.3678 32.779 29.9882 32.1685C28.4434 31.4852 27.9868 29.083 28.6919 27.9753C29.8503 26.1545 28.8239 23.9417 26.7803 23.7583Z" fill="white"/>
<path d="M31.0101 29.2054L30.9873 28.4405L31.53 28.9909L32.2474 28.7504L31.9068 29.4268L32.3724 30.0434L31.6195 29.9104L31.1904 30.532L31.0651 29.7745L30.3345 29.5415L31.0101 29.2054Z" fill="#EE5757"/>
<path d="M26.7041 23.9253C27.7033 23.8318 28.8387 24.2316 29.7418 24.9943C30.7769 25.8696 31.3984 27.1194 31.445 28.4215L31.6286 28.4201C31.5793 27.0679 30.935 25.7719 29.8608 24.8634C28.9054 24.0562 27.7471 23.6499 26.6819 23.7497L26.7041 23.9253Z" fill="#EE5757"/>
<path d="M26.441 24.2064C30.7687 30.664 22.7065 36.8254 17.1706 32.7011C18.7552 32.8529 19.6907 31.8383 19.7287 30.3665C19.7712 28.7187 21.8684 27.3698 23.1941 27.5661C25.3731 27.888 27.0677 26.1042 26.441 24.2064Z" fill="white"/>
<path d="M22.8685 30.0759L23.5679 29.7562L23.2703 30.4679L23.7733 31.0304L23.0139 30.983L22.6249 31.6501L22.4539 30.909L21.7107 30.7593L22.3631 30.3486L22.2934 29.589L22.8685 30.0759Z" fill="#EE5757"/>
<path d="M26.4024 24.3909C26.8853 25.2281 26.9449 26.3783 26.5624 27.468C26.1227 28.7173 25.1587 29.7519 23.9182 30.3042L23.9916 30.4642C25.2796 29.8899 26.2793 28.8171 26.7356 27.5206C27.1406 26.3678 27.0783 25.195 26.5634 24.3025L26.4024 24.3909Z" fill="#EE5757"/>
<path d="M26.7622 23.9682C21.7384 30.6462 13.5812 24.8733 16.0247 17.8471C16.3158 19.4812 17.5509 20.0412 18.9785 19.5396C20.577 18.9779 22.4544 20.5727 22.6313 21.9652C22.9226 24.2538 25.1077 25.288 26.7622 23.9682Z" fill="white"/>
<path d="M20.1114 22.5403L20.613 23.112L19.8495 23.0713L19.4529 23.7614L19.2853 23.0018L18.5388 22.8559L19.199 22.4278L19.1338 21.648L19.7092 22.1417L20.4156 21.8062L20.1114 22.5403Z" fill="#EE5757"/>
<path d="M26.635 23.9808C25.9573 24.7977 24.8596 25.3025 23.699 25.3321C22.3679 25.3649 21.1004 24.7787 20.2237 23.7238L20.089 23.8607C21 24.9556 22.3144 25.5635 23.6957 25.5295C24.9237 25.4986 26.0425 24.9822 26.7651 24.1113L26.635 23.9808Z" fill="#EE5757"/>
</g>
</svg>
