<svg width="54" height="54" viewBox="0 0 54 54" fill="none" xmlns="http://www.w3.org/2000/svg">
<mask id="mask0_1_32084" style="mask-type:alpha" maskUnits="userSpaceOnUse" x="3" y="9" width="48" height="36">
<path d="M3.56934 18.1356C4.16681 13.4125 8.0415 10.0019 12.7861 9.60887C16.6412 9.28949 21.6196 9 27 9C32.3804 9 37.3588 9.28949 41.2139 9.60887C45.9585 10.0019 49.8332 13.4125 50.4307 18.1356C50.752 20.6759 51 23.704 51 27C51 30.296 50.752 33.3241 50.4307 35.8644C49.8332 40.5875 45.9585 43.9981 41.2139 44.3911C37.3588 44.7105 32.3804 45 27 45C21.6196 45 16.6412 44.7105 12.7861 44.3911C8.04151 43.9981 4.16681 40.5875 3.56934 35.8644C3.248 33.3241 3 30.296 3 27C3 23.704 3.248 20.6759 3.56934 18.1356Z" fill="#00D0BF"/>
</mask>
<g mask="url(#mask0_1_32084)">
<rect x="51" y="45" width="48" height="36" transform="rotate(-180 51 45)" fill="#EE5757"/>
<path d="M26.5034 27.0208C19.2704 23.964 22.4767 14.5437 29.3941 15.0172C27.9947 15.7364 27.7919 17.0785 28.5911 18.3217C29.486 19.7135 28.5087 21.9531 27.2989 22.4972C25.3106 23.3922 24.9126 25.7783 26.5034 27.0208Z" fill="white"/>
<path d="M26.1123 20.2186L25.7055 20.8572L25.5581 20.1142L24.8244 19.9246L25.4857 19.5542L25.4396 18.7984L25.9952 19.313L26.6999 19.0353L26.3831 19.723L26.8642 20.3075L26.1123 20.2186Z" fill="#EE5757"/>
<path d="M26.5444 26.9415C25.6696 26.4925 24.9642 25.5566 24.6569 24.4382C24.3054 23.1553 24.5076 21.7761 25.2123 20.6564L25.0606 20.5606C24.3295 21.7238 24.1197 23.154 24.4844 24.4854C24.8093 25.6688 25.5298 26.6223 26.4625 27.101L26.5444 26.9415Z" fill="#EE5757"/>
<path d="M26.5417 26.7964C27.6704 18.6936 37.7356 19.2764 39.0584 26.3416C37.9916 25.1399 36.6233 25.3114 35.6108 26.4595C34.4773 27.7452 32.0288 27.391 31.1828 26.3305C29.7916 24.5877 27.3491 24.8551 26.5417 26.7964Z" fill="white"/>
<path d="M33.0685 24.4664L32.3253 24.2417L33.0261 23.8918L33.0211 23.1169L33.5644 23.6663L34.3047 23.4126L33.9391 24.1016L34.4018 24.7192L33.6334 24.5966L33.1787 25.2314L33.0685 24.4664Z" fill="#EE5757"/>
<path d="M26.7092 26.963C26.9264 25.9369 27.6589 24.9473 28.6682 24.3152C29.8261 23.5911 31.2162 23.4089 32.4799 23.8166L32.535 23.6336C31.2224 23.211 29.7809 23.3999 28.5792 24.1512C27.5111 24.8197 26.7654 25.8299 26.5338 26.9239L26.7092 26.963Z" fill="#EE5757"/>
<path d="M26.834 26.8138C34.7489 25.3541 37.2678 34.9402 31.0686 38.3687C31.8668 36.999 31.2901 35.7737 29.9091 35.1838C28.3628 34.5235 27.9485 32.1257 28.682 31.006C29.887 29.1652 28.8938 26.9659 26.834 26.8138Z" fill="white"/>
<path d="M31.0118 32.2128L31.0037 31.4504L31.5381 31.9909L32.2632 31.7401L31.908 32.4198L32.3637 33.0274L31.6101 32.9064L31.1672 33.5327L31.056 32.7794L30.3268 32.5582L31.0118 32.2128Z" fill="#EE5757"/>
<path d="M26.703 26.9589C27.7185 26.8496 28.8627 27.2335 29.7642 27.9856C30.7973 28.8488 31.4034 30.0943 31.4253 31.4014L31.6115 31.3972C31.588 30.0398 30.9596 28.7482 29.8874 27.8523C28.9339 27.0564 27.7665 26.6662 26.6838 26.7829L26.703 26.9589Z" fill="#EE5757"/>
<path d="M26.3649 27.2455C30.86 33.777 22.84 39.8208 17.1705 35.6066C18.7733 35.783 19.698 34.7818 19.7078 33.3089C19.7186 31.6599 21.8098 30.3419 23.1521 30.5588C25.3583 30.9147 27.0345 29.1551 26.3649 27.2455Z" fill="white"/>
<path d="M22.8592 33.0773L23.5554 32.7692L23.2703 33.4743L23.7864 34.0429L23.0228 33.984L22.6451 34.6432L22.4589 33.9016L21.7098 33.7409L22.3569 33.3414L22.2722 32.5829L22.8592 33.0773Z" fill="#EE5757"/>
<path d="M26.3527 27.3901C26.8591 28.2384 26.942 29.3946 26.5752 30.4831C26.1535 31.731 25.1957 32.7552 23.9478 33.2908L24.0255 33.4527C25.321 32.8957 26.3144 31.8337 26.752 30.5386C27.1404 29.3871 27.0542 28.2081 26.5143 27.3037L26.3527 27.3901Z" fill="#EE5757"/>
<path d="M26.8458 27.0966C21.9799 33.4922 13.5714 27.6481 15.8228 20.8474C16.1665 22.4508 17.43 23.0288 18.8554 22.575C20.4514 22.0667 22.3948 23.6716 22.6158 25.0361C22.9797 27.2787 25.2165 28.344 26.8458 27.0966Z" fill="white"/>
<path d="M20.1145 25.5543L20.6428 26.1308L19.8641 26.0712L19.4816 26.7417L19.2876 25.9883L18.523 25.8255L19.182 25.4201L19.0916 24.6495L19.6927 25.151L20.4016 24.8381L20.1145 25.5543Z" fill="#EE5757"/>
<path d="M26.6333 27.0756C25.9784 27.8477 24.893 28.3081 23.73 28.3076C22.3962 28.3061 21.1072 27.7083 20.1961 26.6673L20.0651 26.7962C21.012 27.8766 22.3485 28.4966 23.7327 28.4983C24.9633 28.499 26.0695 28.0281 26.7677 27.2049L26.6333 27.0756Z" fill="#EE5757"/>
</g>
</svg>
