<svg width="54" height="54" viewBox="0 0 54 54" fill="none" xmlns="http://www.w3.org/2000/svg">
<mask id="mask0_1_32111" style="mask-type:alpha" maskUnits="userSpaceOnUse" x="3" y="9" width="48" height="36">
<path d="M3.56934 18.1356C4.16681 13.4125 8.0415 10.0019 12.7861 9.60887C16.6412 9.28949 21.6196 9 27 9C32.3804 9 37.3588 9.28949 41.2139 9.60887C45.9585 10.0019 49.8332 13.4125 50.4307 18.1356C50.752 20.6759 51 23.704 51 27C51 30.296 50.752 33.3241 50.4307 35.8644C49.8332 40.5875 45.9585 43.9981 41.2139 44.3911C37.3588 44.7105 32.3804 45 27 45C21.6196 45 16.6412 44.7105 12.7861 44.3911C8.04151 43.9981 4.16681 40.5875 3.56934 35.8644C3.248 33.3241 3 30.296 3 27C3 23.704 3.248 20.6759 3.56934 18.1356Z" fill="#00D0BF"/>
</mask>
<g mask="url(#mask0_1_32111)">
<rect x="3" y="9" width="48" height="36" fill="#2E50A6"/>
<path d="M38.7391 19.7958L37.8791 18.9908L37.0088 19.7846L37.1021 18.6107L35.9387 18.4251L36.915 17.7658L36.3346 16.7408L37.4588 17.0929L37.8984 16L38.3239 17.0985L39.4526 16.7608L38.859 17.7783L39.8267 18.45L38.6611 18.6207L38.7392 19.7959L38.7391 19.7958Z" fill="white"/>
<path d="M33.8004 28.4385L32.9404 27.6335L32.0701 28.4273L32.1634 27.2534L31 27.0678L31.9763 26.4085L31.3959 25.3835L32.5201 25.7356L32.9596 24.6427L33.3852 25.7412L34.5139 25.4035L33.9203 26.421L34.888 27.0927L33.7223 27.2634L33.8005 28.4386L33.8004 28.4385Z" fill="white"/>
<path d="M41.2084 39.5505L40.3484 38.7455L39.4781 39.5393L39.5713 38.3654L38.408 38.1797L39.3842 37.5205L38.8038 36.4955L39.928 36.8476L40.3676 35.7547L40.7932 36.8532L41.9218 36.5155L41.3283 37.533L42.296 38.2047L41.1303 38.3754L41.2084 39.5506L41.2084 39.5505Z" fill="white"/>
<path d="M44.9125 23.4999L44.0525 22.6948L43.1822 23.4887L43.2754 22.3148L42.1121 22.1291L43.0883 21.4699L42.5079 20.4449L43.6321 20.7969L44.0717 19.704L44.4973 20.8025L45.6259 20.4648L45.0324 21.4823L46.0001 22.154L44.8344 22.3247L44.9125 23.4999L44.9125 23.4999Z" fill="white"/>
<path d="M19.3216 36.9999L17.9945 35.7275L16.6514 36.9822L16.7953 35.1267L15 34.8332L16.5066 33.7912L15.6109 32.171L17.3458 32.7275L18.0241 31L18.6809 32.7364L20.4226 32.2025L19.5066 33.8108L21 34.8726L19.2011 35.1424L19.3217 37L19.3216 36.9999Z" fill="white"/>
<path d="M41.7895 29.5478L40.862 28.9296L39.9589 29.5814L40.2766 28.5314L39.3606 27.8963L40.4847 27.8663L40.8212 26.8212L41.1985 27.853L42.3226 27.8425L41.4316 28.5104L41.7896 29.5479L41.7895 29.5478Z" fill="white"/>
<mask id="mask1_1_32111" style="mask-type:alpha" maskUnits="userSpaceOnUse" x="3" y="9" width="24" height="18">
<rect x="3" y="9" width="24" height="18" fill="#C4C4C4"/>
</mask>
<g mask="url(#mask1_1_32111)">
<path d="M3 9L27 27L3 9ZM27 9L3 27Z" fill="black"/>
<path d="M27 9L3 27M3 9L27 27L3 9Z" stroke="white" stroke-width="2.4"/>
<path d="M3 9L27 27L3 9ZM27 9L3 27Z" fill="black"/>
<path d="M27 9L3 27M3 9L27 27L3 9Z" stroke="#EE5757" stroke-width="1.6"/>
<path d="M15 9V30V9ZM3 18H31Z" fill="black"/>
<path d="M3 18H31M15 9V30V9Z" stroke="white" stroke-width="4"/>
<path d="M15 9V30V9ZM3 18H31Z" fill="black"/>
<path d="M3 18H31M15 9V30V9Z" stroke="#EE5757" stroke-width="2.4"/>
</g>
</g>
</svg>
