<svg width="54" height="48" viewBox="0 0 54 48" fill="none" xmlns="http://www.w3.org/2000/svg">
<mask id="mask0_1_32111" style="mask-type:alpha" maskUnits="userSpaceOnUse" x="3" y="6" width="48" height="36">
<path d="M3.56934 15.1356C4.16681 10.4125 8.0415 7.00193 12.7861 6.60887C16.6412 6.28949 21.6196 6 27 6C32.3804 6 37.3588 6.28949 41.2139 6.60887C45.9585 7.00193 49.8332 10.4125 50.4307 15.1356C50.752 17.6759 51 20.704 51 24C51 27.296 50.752 30.3241 50.4307 32.8644C49.8332 37.5875 45.9585 40.9981 41.2139 41.3911C37.3588 41.7105 32.3804 42 27 42C21.6196 42 16.6412 41.7105 12.7861 41.3911C8.0415 40.9981 4.16681 37.5875 3.56934 32.8644C3.248 30.3241 3 27.296 3 24C3 20.704 3.248 17.6759 3.56934 15.1356Z" fill="#00D0BF"/>
</mask>
<g mask="url(#mask0_1_32111)">
<rect x="3" y="6" width="48" height="36" fill="#2E50A6"/>
<path d="M38.7391 16.7958L37.8791 15.9908L37.0088 16.7846L37.1021 15.6107L35.9387 15.4251L36.915 14.7658L36.3346 13.7408L37.4588 14.0929L37.8984 13L38.3239 14.0985L39.4526 13.7608L38.859 14.7783L39.8267 15.45L38.6611 15.6207L38.7392 16.7959L38.7391 16.7958Z" fill="white"/>
<path d="M33.8004 25.4385L32.9404 24.6335L32.0701 25.4273L32.1634 24.2534L31 24.0678L31.9763 23.4085L31.3959 22.3835L32.5201 22.7356L32.9596 21.6427L33.3852 22.7412L34.5139 22.4035L33.9203 23.421L34.888 24.0927L33.7223 24.2634L33.8005 25.4386L33.8004 25.4385Z" fill="white"/>
<path d="M41.2084 36.5505L40.3484 35.7455L39.4781 36.5393L39.5713 35.3654L38.408 35.1797L39.3842 34.5205L38.8038 33.4955L39.928 33.8476L40.3676 32.7547L40.7932 33.8532L41.9218 33.5155L41.3283 34.533L42.296 35.2047L41.1303 35.3754L41.2084 36.5506L41.2084 36.5505Z" fill="white"/>
<path d="M44.9125 20.4999L44.0525 19.6948L43.1822 20.4887L43.2754 19.3148L42.1121 19.1291L43.0883 18.4699L42.5079 17.4449L43.6321 17.7969L44.0717 16.704L44.4973 17.8025L45.6259 17.4648L45.0324 18.4823L46.0001 19.154L44.8344 19.3247L44.9125 20.4999L44.9125 20.4999Z" fill="white"/>
<path d="M19.3216 33.9999L17.9945 32.7275L16.6514 33.9822L16.7953 32.1267L15 31.8332L16.5066 30.7912L15.6109 29.171L17.3458 29.7275L18.0241 28L18.6809 29.7364L20.4226 29.2025L19.5066 30.8108L21 31.8726L19.2011 32.1424L19.3217 34L19.3216 33.9999Z" fill="white"/>
<path d="M41.7895 26.5478L40.862 25.9296L39.9589 26.5814L40.2766 25.5314L39.3606 24.8963L40.4847 24.8663L40.8212 23.8212L41.1985 24.853L42.3226 24.8425L41.4316 25.5104L41.7896 26.5479L41.7895 26.5478Z" fill="white"/>
<mask id="mask1_1_32111" style="mask-type:alpha" maskUnits="userSpaceOnUse" x="3" y="6" width="24" height="18">
<rect x="3" y="6" width="24" height="18" fill="#C4C4C4"/>
</mask>
<g mask="url(#mask1_1_32111)">
<path d="M3 6L27 24L3 6ZM27 6L3 24L27 6Z" fill="black"/>
<path d="M27 6L3 24M3 6L27 24L3 6Z" stroke="white" stroke-width="2.4"/>
<path d="M3 6L27 24L3 6ZM27 6L3 24L27 6Z" fill="black"/>
<path d="M27 6L3 24M3 6L27 24L3 6Z" stroke="#EE5757" stroke-width="1.6"/>
<path d="M15 6V27V6ZM3 15H31H3Z" fill="black"/>
<path d="M3 15H31M15 6V27V6Z" stroke="white" stroke-width="4"/>
<path d="M15 6V27V6ZM3 15H31H3Z" fill="black"/>
<path d="M3 15H31M15 6V27V6Z" stroke="#EE5757" stroke-width="2.4"/>
</g>
</g>
</svg>
