<svg width="54" height="48" viewBox="0 0 54 48" fill="none" xmlns="http://www.w3.org/2000/svg">
<mask id="mask0_1_32071" style="mask-type:alpha" maskUnits="userSpaceOnUse" x="3" y="6" width="48" height="36">
<path d="M3.56934 15.1356C4.16681 10.4125 8.0415 7.00193 12.7861 6.60887C16.6412 6.28949 21.6196 6 27 6C32.3804 6 37.3588 6.28949 41.2139 6.60887C45.9585 7.00193 49.8332 10.4125 50.4307 15.1356C50.752 17.6759 51 20.704 51 24C51 27.296 50.752 30.3241 50.4307 32.8644C49.8332 37.5875 45.9585 40.9981 41.2139 41.3911C37.3588 41.7105 32.3804 42 27 42C21.6196 42 16.6412 41.7105 12.7861 41.3911C8.0415 40.9981 4.16681 37.5875 3.56934 32.8644C3.248 30.3241 3 27.296 3 24C3 20.704 3.248 17.6759 3.56934 15.1356Z" fill="#00D0BF"/>
</mask>
<g mask="url(#mask0_1_32071)">
<rect x="3" y="30" width="48" height="12" fill="#2E50A6"/>
<rect x="3" y="17" width="48" height="14" fill="#F5F5F5"/>
<path d="M27 22L27.449 23.382H28.9021L27.7265 24.2361L28.1756 25.618L27 24.7639L25.8244 25.618L26.2735 24.2361L25.0979 23.382H26.551L27 22Z" fill="#2E50A6"/>
<path d="M18 18L18.449 19.382H19.9021L18.7265 20.2361L19.1756 21.618L18 20.7639L16.8244 21.618L17.2735 20.2361L16.0979 19.382H17.551L18 18Z" fill="#2E50A6"/>
<path d="M36 18L36.449 19.382H37.9021L36.7265 20.2361L37.1756 21.618L36 20.7639L34.8244 21.618L35.2735 20.2361L34.0979 19.382H35.551L36 18Z" fill="#2E50A6"/>
<path d="M18 26L18.449 27.382H19.9021L18.7265 28.2361L19.1756 29.618L18 28.7639L16.8244 29.618L17.2735 28.2361L16.0979 27.382H17.551L18 26Z" fill="#2E50A6"/>
<path d="M36 26L36.449 27.382H37.9021L36.7265 28.2361L37.1756 29.618L36 28.7639L34.8244 29.618L35.2735 28.2361L34.0979 27.382H35.551L36 26Z" fill="#2E50A6"/>
<rect x="3" y="6" width="48" height="11" fill="#2E50A6"/>
</g>
</svg>
