<svg width="54" height="54" viewBox="0 0 54 54" fill="none" xmlns="http://www.w3.org/2000/svg">
<mask id="mask0_1_32071" style="mask-type:alpha" maskUnits="userSpaceOnUse" x="3" y="9" width="48" height="36">
<path d="M3.56934 18.1356C4.16681 13.4125 8.0415 10.0019 12.7861 9.60887C16.6412 9.28949 21.6196 9 27 9C32.3804 9 37.3588 9.28949 41.2139 9.60887C45.9585 10.0019 49.8332 13.4125 50.4307 18.1356C50.752 20.6759 51 23.704 51 27C51 30.296 50.752 33.3241 50.4307 35.8644C49.8332 40.5875 45.9585 43.9981 41.2139 44.3911C37.3588 44.7105 32.3804 45 27 45C21.6196 45 16.6412 44.7105 12.7861 44.3911C8.04151 43.9981 4.16681 40.5875 3.56934 35.8644C3.248 33.3241 3 30.296 3 27C3 23.704 3.248 20.6759 3.56934 18.1356Z" fill="#00D0BF"/>
</mask>
<g mask="url(#mask0_1_32071)">
<rect x="3" y="33" width="48" height="12" fill="#2E50A6"/>
<rect x="3" y="20" width="48" height="14" fill="#F5F5F5"/>
<path d="M27 25L27.449 26.382H28.9021L27.7265 27.2361L28.1756 28.618L27 27.7639L25.8244 28.618L26.2735 27.2361L25.0979 26.382H26.551L27 25Z" fill="#2E50A6"/>
<path d="M18 21L18.449 22.382H19.9021L18.7265 23.2361L19.1756 24.618L18 23.7639L16.8244 24.618L17.2735 23.2361L16.0979 22.382H17.551L18 21Z" fill="#2E50A6"/>
<path d="M36 21L36.449 22.382H37.9021L36.7265 23.2361L37.1756 24.618L36 23.7639L34.8244 24.618L35.2735 23.2361L34.0979 22.382H35.551L36 21Z" fill="#2E50A6"/>
<path d="M18 29L18.449 30.382H19.9021L18.7265 31.2361L19.1756 32.618L18 31.7639L16.8244 32.618L17.2735 31.2361L16.0979 30.382H17.551L18 29Z" fill="#2E50A6"/>
<path d="M36 29L36.449 30.382H37.9021L36.7265 31.2361L37.1756 32.618L36 31.7639L34.8244 32.618L35.2735 31.2361L34.0979 30.382H35.551L36 29Z" fill="#2E50A6"/>
<rect x="3" y="9" width="48" height="11" fill="#2E50A6"/>
</g>
</svg>
