<svg width="54" height="54" viewBox="0 0 54 54" fill="none" xmlns="http://www.w3.org/2000/svg">
<mask id="mask0_1_40376" style="mask-type:alpha" maskUnits="userSpaceOnUse" x="3" y="9" width="48" height="36">
<path d="M3.56934 18.1356C4.16681 13.4125 8.0415 10.0019 12.7861 9.60887C16.6412 9.28949 21.6196 9 27 9C32.3804 9 37.3588 9.28949 41.2139 9.60887C45.9585 10.0019 49.8332 13.4125 50.4307 18.1356C50.752 20.6759 51 23.704 51 27C51 30.296 50.752 33.3241 50.4307 35.8644C49.8332 40.5875 45.9585 43.9981 41.2139 44.3911C37.3588 44.7105 32.3804 45 27 45C21.6196 45 16.6412 44.7105 12.7861 44.3911C8.04151 43.9981 4.16681 40.5875 3.56934 35.8644C3.248 33.3241 3 30.296 3 27C3 23.704 3.248 20.6759 3.56934 18.1356Z" fill="#00D0BF"/>
</mask>
<g mask="url(#mask0_1_40376)">
<rect x="51" y="45" width="48" height="36" transform="rotate(-180 51 45)" fill="#EE5757"/>
<path d="M18.5617 23.5406C18.5858 23.5653 18.876 23.7406 18.881 23.7309C18.886 23.7212 19.6404 23.5472 19.6354 23.5569C19.6303 23.5666 19.2127 24.063 19.2321 24.0731C19.2514 24.0831 19.6685 24.5825 19.6782 24.5875C19.6879 24.5925 18.8884 24.5218 18.8884 24.5218L18.3596 24.9482L18.2412 24.3948C18.2412 24.3948 17.576 24.1601 17.5663 24.1551C17.5567 24.1501 18.1356 23.9587 18.1356 23.9587L18.3084 23.5074C18.3084 23.5074 18.5323 23.5499 18.5617 23.5406V23.5406Z" fill="#F9DD16" stroke="black" stroke-width="0.110005"/>
<path d="M28.2967 24.625C28.2982 24.1586 27.3798 22.0483 27.2286 21.7238C26.9472 21.3717 26.6496 20.8141 26.5216 20.3325C26.4388 19.8464 26.1788 19.4652 25.8122 19.3359C25.3893 19.1113 24.9762 19.1994 24.5786 19.2339C24.3836 19.2754 24.2168 19.3807 24.1226 19.5358C23.908 19.8429 23.7912 19.8195 23.6427 19.9519C22.4202 20.1424 21.2641 20.7732 20.3845 21.2032C19.9188 21.5265 19.5234 21.7143 19.3403 21.7538C18.8437 21.7556 18.4826 21.5203 18.3101 21.3952C17.7477 20.8839 17.1854 20.3724 16.623 19.8611C16.1355 19.4973 16.015 20.0224 16.1086 20.1027C16.2713 20.4524 15.919 20.6653 17.2568 21.9255C17.4257 22.2725 17.5946 22.6196 17.7635 22.9665C17.7635 22.9665 17.7354 23.2512 17.759 23.2635C18.0032 23.8453 18.3912 23.7003 18.5743 23.5371C18.7068 23.4164 18.8393 23.2957 18.9718 23.175C18.9718 23.175 19.7595 22.9257 19.7717 22.9021C20.6164 23.0279 22.793 22.6132 23.1519 22.4429C23.4753 22.2617 23.496 22.4152 23.7762 22.1869C24.0104 22.0319 23.8816 22.1553 24.3144 21.7598C24.4476 21.6453 24.553 21.8308 24.5778 21.9605C24.6019 23.1892 24.7525 23.9743 24.8645 25.1993L26.7052 26.1425L28.2967 24.625Z" fill="white" stroke="black" stroke-width="0.143006"/>
<path d="M17.6673 20.8934C17.6841 20.9083 17.3632 21.9528 17.3632 21.9528C17.3632 21.9528 17.0674 21.6579 17.07 21.653L17.277 20.5555L17.6673 20.8934V20.8934Z" fill="#F9DD16"/>
<path d="M17.1762 20.3756C17.1827 20.3891 17.2064 20.4839 17.2099 20.545C17.1987 20.609 17.1809 20.8385 17.1564 20.916C17.1369 21.0023 17.1199 21.0893 17.1084 21.176C17.0839 21.2702 17.0743 21.3321 17.0467 21.4289C17.0404 21.5126 17.0253 21.5907 17.0065 21.6738M17.6763 20.8546C17.6617 20.9252 17.5995 21.2401 17.5706 21.3261C17.5464 21.4214 17.5248 21.5176 17.5087 21.613C17.479 21.7172 17.4661 21.7855 17.433 21.8927C17.4225 21.9846 17.4032 22.0708 17.3798 22.1628L17.6763 20.8546Z" stroke="black" stroke-width="0.124305"/>
<path d="M22.5502 20.2723C22.9438 20.7103 23.0658 21.4222 22.9945 21.8208" stroke="black" stroke-width="0.110005"/>
<path d="M21.0274 22.8669C21.0298 22.8623 21.0322 22.8578 21.0345 22.8532C21.0122 22.8961 21.0295 22.8716 20.9874 22.7765C20.9427 22.7272 20.9113 22.4877 20.98 22.3553C21.0063 22.2879 21.0504 22.1862 21.0837 22.1222C21.0931 22.104 21.1199 22.0859 21.1294 22.0676" stroke="black" stroke-width="0.110005"/>
<path d="M18.2126 21.3881C18.2102 21.3927 18.2079 21.3972 18.2055 21.4018C18.215 21.3835 18.1865 21.4383 18.177 21.4565C18.1402 21.5276 18.0905 21.5923 18.0567 21.6549C18.0211 21.7234 17.9661 21.7819 17.9306 21.8504C17.8849 21.9144 17.8448 21.9994 17.7975 22.0656C17.7532 22.1444 17.7039 22.2006 17.6606 22.284C17.6231 22.35 17.593 22.3805 17.5543 22.455L17.6606 22.284C17.6231 22.35 17.593 22.3805 17.5543 22.455" stroke="black" stroke-width="0.110005"/>
<path d="M16.7833 20.0548C16.7901 20.0676 16.8167 20.157 16.8223 20.2141C16.8135 20.2735 16.8039 20.4871 16.7825 20.5587C16.7663 20.6385 16.7527 20.7192 16.7443 20.7997C16.7235 20.8868 16.7162 20.9443 16.6924 21.0336C16.6891 21.1116 16.677 21.184 16.6614 21.2609" stroke="black" stroke-width="0.110005"/>
<path d="M18.4982 22.5737C18.4059 22.4765 18.3516 22.512 18.2922 22.5076C18.2265 22.5193 18.1069 22.5743 17.9856 22.6963C17.9413 22.7446 17.9041 22.7801 17.8455 22.8322C17.8191 22.8732 17.7974 22.8888 17.7683 22.9139" stroke="black" stroke-width="0.110005"/>
<path d="M25.4376 19.296C25.4353 19.3005 25.4329 19.3052 25.4305 19.3097C25.4528 19.2667 25.4367 19.2911 25.4569 19.393C25.4835 19.4633 25.4868 19.5121 25.5162 19.5802" stroke="black" stroke-width="0.110005"/>
<path d="M24.0013 19.6763C23.9966 19.6855 23.9846 20.6793 24.0257 20.8074C24.038 20.8895 24.0602 20.9583 24.0716 21.0562C24.0717 21.1153 24.0856 21.1648 24.0898 21.2222C24.1234 21.2856 24.1306 21.3493 24.165 21.4003C24.1818 21.4705 24.238 21.4733 24.2682 21.5387C24.3103 21.5841 24.3794 21.6641 24.4208 21.6999" stroke="black" stroke-width="0.110005"/>
<path d="M23.3109 22.3973C23.2803 22.3869 23.2018 22.3247 23.1347 22.2914C23.0591 22.2487 22.8727 22.0262 22.8638 21.8695" stroke="black" stroke-width="0.110005"/>
<path d="M24.0545 20.9867C24.0521 20.9913 23.9508 21.091 23.7851 21.2594C23.5732 21.4556 22.9965 21.7931 22.9271 21.8203C22.8607 21.8504 22.7778 21.9228 22.7122 21.933C22.6368 21.963 22.5617 21.9748 22.4904 21.9918C22.4034 22.0101 22.3296 22.0259 22.262 22.0297C22.0593 22.1179 20.9911 22.0835 20.9359 22.0716C20.8788 22.0711 20.8011 22.0669 20.7497 22.0618C20.6989 22.074 20.6387 22.069 20.57 22.0729C20.487 22.0662 20.4394 22.0821 20.3695 22.0906C20.3145 22.1196 20.2229 22.1496 20.1609 22.191C20.076 22.2253 20.0245 22.2721 19.966 22.2984C19.905 22.3488 19.0738 22.8338 19.0336 22.8554C18.9463 22.8939 18.6331 22.9869 18.5547 22.7667C18.5345 22.6801 18.4946 22.5908 18.4922 22.5245C18.467 22.4451 18.4813 22.3603 18.4854 22.2863C18.5582 21.9112 18.6786 21.7634 18.7118 21.6994C18.7237 21.6766 18.7356 21.6538 18.7474 21.6309" stroke="black" stroke-width="0.110005"/>
<path d="M26.4724 20.2506C26.47 20.2551 26.4676 20.2598 26.4653 20.2643C26.4845 20.2273 26.4755 20.2467 26.4231 20.312C26.3696 20.3552 26.3037 20.4236 26.2551 20.4682C26.2061 20.5168 26.159 20.5855 26.1149 20.6041C26.0707 20.662 26.015 20.6803 25.9545 20.7121C25.8728 20.7426 25.8165 20.7691 25.7459 20.8125C25.6557 20.8604 25.5995 20.9062 25.5159 20.954C25.4644 21.0198 25.412 21.0606 25.3682 21.1381C25.3248 21.2099 25.2816 21.2715 25.2407 21.3502C25.2075 21.4141 25.1743 21.478 25.1411 21.542L25.2407 21.3502C25.2075 21.4141 25.1743 21.478 25.1411 21.542" stroke="black" stroke-width="0.110005"/>
<path d="M25.7779 25.5072C25.7827 25.4981 25.7874 25.4889 25.7922 25.4798C25.7659 25.5305 25.7751 25.5172 25.7998 25.4316C25.8 25.329 25.8244 25.2049 25.8254 25.1144C25.8408 25.0186 25.8565 24.9151 25.8575 24.8181C25.8517 24.7045 25.8519 24.6028 25.8349 24.4933C25.8336 24.3925 25.8218 24.288 25.8188 24.1893C25.8169 24.0915 25.8096 24.0077 25.7884 23.9127C25.7865 23.8416 25.7821 23.7441 25.7648 23.6569C25.774 23.5883 25.7545 23.5251 25.7399 23.4702C25.7133 23.3644 25.7031 23.3027 25.6751 23.193C25.6583 23.1343 25.6418 23.0592 25.6164 22.9713C25.6073 22.8879 25.5627 22.7797 25.5445 22.7079C25.5197 22.655 25.4948 22.5834 25.4852 22.5206C25.4592 22.4626 25.4223 22.3918 25.4122 22.3261C25.3849 22.2761 25.3558 22.1983 25.3255 22.1246C25.2995 22.0641 25.2803 21.9895 25.2526 21.9303C25.2246 21.8553 25.1905 21.7913 25.173 21.715C25.1463 21.6891 25.1402 21.6607 25.1259 21.6384" stroke="black" stroke-width="0.110005"/>
<path d="M25.5932 19.7333C25.5002 19.9458 25.2608 20.2563 25.2572 20.2631C25.2572 20.2632 25.0293 20.7187 25.0293 20.7187C24.929 20.9681 24.993 21.0679 25.0368 21.1399C25.1275 21.3001 25.1435 21.3866 25.2106 21.5085C25.2359 21.6607 24.9659 21.7119 24.9624 21.7187C24.4002 21.9137 24.1151 21.3744 24.1121 21.3468C24.0358 21.0638 24.0458 21.0167 24.2181 20.9584C24.4155 20.913 24.4949 20.9108 24.5926 20.8398C24.7777 20.7012 24.9083 20.282 24.9119 20.2751C24.9154 20.2683 24.9396 20.0374 24.9396 20.0374C24.9541 19.926 24.9026 19.8239 24.9595 19.6477C25.0333 19.4774 25.0778 19.4309 25.2529 19.4174C25.4809 19.3968 25.658 19.5582 25.5932 19.7333V19.7333Z" fill="#F9DD16" stroke="black" stroke-width="0.110005"/>
<path d="M27.2133 28.2734C27.0182 28.174 26.8693 28.1542 26.7982 28.2023C26.6852 27.5702 26.5857 26.9374 26.4405 26.3072C25.2419 25.8082 24.9886 25.6942 24.5953 25.5232C24.7789 25.4039 24.8705 25.2849 24.8644 25.1993C25.4683 25.4174 26.0662 25.6477 26.6845 25.837C27.716 25.0485 27.9413 24.8861 28.286 24.6311C28.2976 24.8497 28.3548 24.9886 28.432 25.0261C27.9412 25.44 27.4428 25.8426 26.9697 26.2834C27.1368 27.571 27.1648 27.8473 27.2133 28.2734L27.2133 28.2734Z" fill="#F9DD16" stroke="black" stroke-width="0.143006"/>
<path d="M33.0387 20.2809C33.0046 20.2915 32.7094 20.4744 32.7163 20.4833C32.7232 20.4922 32.5497 21.25 32.5428 21.2411C32.5359 21.2322 32.2547 20.6332 32.2366 20.6462C32.2184 20.6591 31.5609 20.811 31.5518 20.8175C31.5428 20.8239 31.9673 20.1352 31.9673 20.1352L31.802 19.4675L32.3768 19.609C32.3768 19.609 32.8958 19.1148 32.9049 19.1083C32.9139 19.1018 32.8352 19.7094 32.8352 19.7094L33.1834 20.0675C33.1834 20.0675 33.0431 20.2502 33.0387 20.2809V20.2809Z" fill="#F9DD16" stroke="black" stroke-width="0.110005"/>
<path d="M27.3123 28.5015C27.7554 28.7108 30.178 28.8279 30.555 28.837C31.017 28.7416 31.6819 28.7232 32.1979 28.8232C32.6978 28.9656 33.1779 28.9024 33.4664 28.6313C33.871 28.352 33.9736 27.9423 34.1202 27.5703C34.1687 27.377 34.1438 27.1804 34.0387 27.0268C33.8434 26.6973 33.9184 26.6031 33.8594 26.4109C34.2299 25.2295 34.1514 23.9114 34.1392 22.9309C34.0418 22.369 34.0416 21.9307 34.0866 21.7488C34.309 21.3027 34.6959 21.0837 34.8928 20.9847C35.6332 20.7083 36.3736 20.432 37.114 20.1556C37.6802 19.8806 37.2349 19.5384 37.1163 19.5866C36.71 19.5766 36.6665 19.1657 34.8636 19.8037C34.4572 19.8005 34.0507 19.7972 33.6443 19.794C33.6443 19.794 33.3861 19.6419 33.3638 19.6576C32.6999 19.6172 32.6628 20.0299 32.7355 20.2669C32.7905 20.4395 32.8455 20.6121 32.9006 20.7848C32.9006 20.7848 32.7823 21.6024 32.7992 21.6238C32.2983 22.3254 31.7106 24.4623 31.7106 24.8601C31.737 25.231 31.5817 25.1811 31.6724 25.5341C31.7143 25.8133 31.655 25.6428 31.8359 26.2073C31.8848 26.3778 31.6607 26.3896 31.5261 26.3541C30.3461 25.8279 29.5311 25.6129 28.3149 25.1672L26.5867 26.3976L27.3123 28.5015Z" fill="white" stroke="black" stroke-width="0.143006"/>
<path d="M35.7637 20.8781C35.7432 20.8869 34.9401 20.0962 34.9401 20.0962C34.9401 20.0962 35.3304 19.956 35.3337 19.9607L36.2325 20.6692L35.7637 20.8781V20.8781Z" fill="#F9DD16"/>
<path d="M36.4365 20.6608C36.4217 20.6606 36.3268 20.6385 36.2705 20.6131C36.2179 20.5725 36.0197 20.4478 35.9605 20.3881C35.8914 20.3291 35.8204 20.2722 35.7476 20.2206C35.6734 20.1531 35.622 20.115 35.5469 20.0434C35.4745 19.9981 35.4108 19.9471 35.3442 19.8902M35.7975 20.9091C35.7403 20.862 35.4842 20.6552 35.4192 20.5874C35.3439 20.5197 35.2669 20.4541 35.1881 20.394C35.1071 20.3169 35.0514 20.2726 34.9691 20.191C34.8912 20.1378 34.822 20.079 34.7494 20.0137L35.7975 20.9091Z" stroke="black" stroke-width="0.124305"/>
<path d="M33.8254 25.3654C33.2715 25.5339 32.5862 25.3134 32.2605 25.0566" stroke="black" stroke-width="0.110005"/>
<path d="M32.3309 22.7989C32.334 22.8035 32.337 22.8079 32.3401 22.8123C32.3112 22.7704 32.3258 22.7987 32.4275 22.8035C32.4896 22.7839 32.7149 22.8679 32.8041 22.9973C32.853 23.0548 32.9251 23.1459 32.9682 23.2084C32.9804 23.2262 32.9854 23.2606 32.9977 23.2785" stroke="black" stroke-width="0.110005"/>
<path d="M35.0746 21.0922C35.0715 21.0879 35.0684 21.0836 35.0652 21.0793C35.0778 21.0966 35.0401 21.0448 35.0276 21.0276C34.9788 20.9606 34.9412 20.8846 34.8987 20.8243C34.8516 20.7597 34.822 20.6817 34.775 20.617C34.7363 20.5451 34.6762 20.4687 34.6362 20.3942C34.5835 20.3166 34.5535 20.245 34.4962 20.1663C34.4522 20.101 34.4374 20.059 34.3862 19.9887L34.4962 20.1663C34.4522 20.101 34.4374 20.059 34.3862 19.9887" stroke="black" stroke-width="0.110005"/>
<path d="M36.9089 20.5166C36.8949 20.5171 36.8056 20.4999 36.7531 20.4777C36.7045 20.4403 36.5207 20.3274 36.4664 20.2717C36.4028 20.2171 36.3374 20.1646 36.27 20.1174C36.2018 20.0547 36.1543 20.0198 36.0853 19.9531C36.0181 19.9121 35.9594 19.8651 35.8981 19.8125" stroke="black" stroke-width="0.110005"/>
<path d="M33.8883 20.7507C34.0226 20.7111 34.0132 20.6465 34.0441 20.5953C34.0626 20.5311 34.064 20.3994 34.0023 20.2364C33.9762 20.1751 33.9591 20.1259 33.9358 20.0502C33.9086 20.0083 33.9035 19.9819 33.8927 19.9446" stroke="black" stroke-width="0.110005"/>
<path d="M33.2275 28.3885C33.2245 28.3841 33.2214 28.3797 33.2183 28.3753C33.2473 28.4169 33.2323 28.39 33.1331 28.361C33.0595 28.3532 33.0146 28.3331 32.9417 28.3289" stroke="black" stroke-width="0.110005"/>
<path d="M33.6163 26.9186C33.6102 26.9097 32.7356 26.4224 32.6053 26.4009C32.5277 26.3735 32.4578 26.362 32.3664 26.3262C32.314 26.2981 32.2646 26.2878 32.212 26.2644C32.1421 26.2666 32.0828 26.243 32.0236 26.2519C31.9546 26.2346 31.9291 26.2876 31.8588 26.2855C31.8014 26.3045 31.7023 26.3331 31.6536 26.3561" stroke="black" stroke-width="0.110005"/>
<path d="M31.6048 25.0257C31.6277 25.0024 31.7191 24.9588 31.779 24.9125C31.8512 24.8627 32.1373 24.7933 32.2854 24.8567" stroke="black" stroke-width="0.110005"/>
<path d="M32.6727 26.3522C32.6693 26.348 32.6183 26.2145 32.5297 25.9937C32.4352 25.7196 32.3703 25.06 32.3756 24.9865C32.3768 24.9144 32.3441 24.809 32.3644 24.7464C32.3697 24.6663 32.3928 24.5946 32.409 24.5238C32.4311 24.4386 32.4496 24.3662 32.4771 24.3046C32.4841 24.0861 33.0101 23.1533 33.0472 23.1097C33.074 23.0592 33.114 22.9921 33.1426 22.9487C33.1541 22.8983 33.1868 22.8471 33.2146 22.7844C33.2594 22.7137 33.2658 22.6644 33.2897 22.5988C33.2866 22.5372 33.2994 22.4428 33.2874 22.3697C33.293 22.2793 33.2709 22.2131 33.272 22.1496C33.2508 22.0734 33.1588 21.1233 33.1562 21.0781C33.1587 20.9839 33.2119 20.6652 33.4638 20.6922C33.5579 20.7122 33.6638 20.716 33.7299 20.7429C33.8192 20.7553 33.8956 20.8052 33.9663 20.8413C34.3002 21.0703 34.3894 21.242 34.4368 21.2995C34.4537 21.32 34.4706 21.3405 34.4875 21.3611" stroke="black" stroke-width="0.110005"/>
<path d="M31.9638 28.8143C31.9606 28.8101 31.9573 28.8058 31.9542 28.8016C31.9801 28.8359 31.966 28.819 31.9284 28.7416C31.9118 28.6732 31.8772 28.5821 31.8572 28.5176C31.8335 28.451 31.7904 28.3769 31.7925 28.3283C31.7582 28.2618 31.7657 28.2027 31.7627 28.1331C31.7702 28.0448 31.7703 27.9816 31.761 27.8975C31.7562 27.7936 31.7384 27.7217 31.7307 27.6238C31.6922 27.547 31.6773 27.4807 31.6246 27.4057C31.5769 27.3336 31.5388 27.2663 31.4836 27.1933C31.4388 27.1341 31.3941 27.0749 31.3493 27.0156L31.4836 27.1933C31.4388 27.1341 31.3941 27.0749 31.3493 27.0156" stroke="black" stroke-width="0.110005"/>
<path d="M27.6707 25.6532C27.6768 25.6622 27.683 25.6712 27.6891 25.6802C27.6551 25.6303 27.6631 25.6456 27.7285 25.7107C27.8191 25.7602 27.9188 25.8435 27.9983 25.8879C28.0766 25.9489 28.1617 26.0137 28.247 26.0613C28.3497 26.1102 28.4394 26.1592 28.5431 26.1953C28.6327 26.2424 28.7298 26.2811 28.8182 26.3256C28.9054 26.3707 28.9824 26.4039 29.0749 26.4288C29.1385 26.4611 29.2265 26.5036 29.3105 26.5287C29.3674 26.5706 29.4312 26.582 29.4857 26.5942C29.59 26.6192 29.6487 26.6388 29.7569 26.6643C29.8157 26.6762 29.8887 26.6961 29.9768 26.7138C30.0542 26.7449 30.168 26.7535 30.2388 26.7703C30.2957 26.7716 30.3691 26.7817 30.4285 26.8026C30.4903 26.8052 30.568 26.8033 30.6301 26.825C30.6854 26.8225 30.7661 26.8316 30.8435 26.8376C30.9076 26.8413 30.9813 26.8585 31.0449 26.86C31.1225 26.8688 31.193 26.8664 31.2675 26.8861C31.3014 26.8725 31.3289 26.8803 31.3545 26.877" stroke="black" stroke-width="0.110005"/>
<path d="M32.861 28.323C32.7075 28.139 32.528 27.7743 32.5233 27.7678C32.5232 27.7678 32.2065 27.3469 32.2065 27.3469C32.0226 27.139 31.904 27.1522 31.8195 27.1596C31.6345 27.1696 31.5487 27.1445 31.4087 27.1504C31.2591 27.1036 31.329 26.8302 31.3243 26.8238C31.3891 26.2138 32.0035 26.1987 32.03 26.2086C32.3207 26.2686 32.3593 26.2995 32.3381 26.4858C32.2942 26.6894 32.262 26.7638 32.2845 26.887C32.331 27.1221 32.6565 27.4363 32.6613 27.4428C32.666 27.4493 32.8659 27.5781 32.8659 27.5781C32.9611 27.6428 33.0763 27.6423 33.2124 27.7761C33.3357 27.923 33.3589 27.9856 33.2956 28.1538C33.216 28.3743 32.9926 28.4637 32.861 28.323L32.861 28.323Z" fill="#F9DD16" stroke="black" stroke-width="0.110005"/>
<path d="M24.5021 25.5477C24.681 25.4166 24.7661 25.2909 24.7537 25.2044C25.386 25.3919 26.0129 25.592 26.6578 25.7494C27.6548 24.893 27.8733 24.7159 28.2071 24.4382C28.2345 24.6591 28.3029 24.7966 28.3844 24.8304C27.9128 25.2772 27.4326 25.7129 26.981 26.1859C27.2437 27.4814 27.292 27.7599 27.372 28.1889C27.1657 28.0991 27.0122 28.0873 26.9431 28.14C26.7824 27.5058 26.6356 26.87 26.4423 26.2395C25.1827 25.8005 24.9159 25.6991 24.5021 25.5477L24.5021 25.5477Z" fill="#F9DD16" stroke="black" stroke-width="0.143006"/>
<path d="M28.424 34.3837C28.4365 34.3508 28.4719 34.0107 28.4605 34.0105C28.4491 34.0103 27.9474 33.4086 27.9588 33.4088C27.9702 33.4089 28.6252 33.5626 28.626 33.5406C28.6268 33.5187 28.911 32.9189 28.9114 32.9079C28.9118 32.897 29.2029 33.6491 29.2029 33.6491L29.8416 33.9344L29.3728 34.2893C29.3728 34.2893 29.4493 34.994 29.4489 35.005C29.4485 35.0159 29.009 34.5801 29.009 34.5801L28.506 34.6268C28.506 34.6268 28.4459 34.406 28.424 34.3837V34.3837Z" fill="#F9DD16" stroke="black" stroke-width="0.110005"/>
<path d="M25.0166 25.3618C24.5721 25.5683 22.9785 27.3329 22.7381 27.6131C22.53 28.0224 22.1338 28.538 21.7333 28.8674C21.3081 29.1584 21.0627 29.5616 21.1051 29.948C21.0824 30.4274 21.3526 30.7587 21.5649 31.0999C21.6923 31.2562 21.8678 31.3589 22.0579 31.3742C22.447 31.4298 22.4774 31.5449 22.6704 31.6191C23.4034 32.6306 24.5255 33.3862 25.3316 33.9834C25.8494 34.257 26.2065 34.5278 26.3268 34.6745C26.5526 35.119 26.4918 35.5478 26.4506 35.7583C26.2178 36.4907 25.9849 37.223 25.7522 37.9554C25.626 38.5547 26.1802 38.4287 26.2142 38.309C26.4736 38.0071 26.8352 38.2282 27.4305 36.4666C27.6845 36.1604 27.9385 35.8542 28.1924 35.548C28.1924 35.548 28.476 35.4463 28.477 35.4197C28.9204 34.9412 28.6073 34.6579 28.3694 34.5664C28.1947 34.5014 28.0201 34.4364 27.8454 34.3714C27.8454 34.3714 27.2527 33.776 27.2248 33.7756C26.9632 32.9619 25.5863 31.1947 25.2622 30.9488C24.9439 30.7395 25.0806 30.6525 24.7369 30.503C24.4837 30.362 24.6592 30.4226 24.0876 30.2107C23.9185 30.1423 24.0474 29.9651 24.1597 29.8849C25.3179 29.3156 25.997 28.8306 27.1121 28.1839L27.1788 26.1126L25.0166 25.3618Z" fill="white" stroke="black" stroke-width="0.143006"/>
<path d="M26.6457 36.4813C26.6519 36.4585 27.7267 36.2715 27.7267 36.2715C27.7267 36.2715 27.5868 36.6877 27.5813 36.6876L26.5072 37.0065L26.6457 36.4813V36.4813Z" fill="#F9DD16"/>
<path d="M26.3912 37.1857C26.4005 37.1731 26.4756 37.1062 26.5289 37.0741C26.591 37.0546 26.8041 36.9636 26.8839 36.9504C26.9694 36.9283 27.0545 36.9034 27.137 36.8736C27.2318 36.8525 27.2913 36.8325 27.3896 36.8131C27.4672 36.7797 27.5436 36.7573 27.626 36.736M26.611 36.4873C26.6804 36.468 26.9887 36.3788 27.078 36.3657C27.1736 36.3439 27.2688 36.3191 27.361 36.2895C27.467 36.2686 27.5335 36.2487 27.6435 36.2296C27.7303 36.1964 27.8157 36.1741 27.9079 36.1531L26.611 36.4873Z" stroke="black" stroke-width="0.124305"/>
<path d="M23.6158 32.597C23.843 32.0139 24.427 31.5603 24.8119 31.4396" stroke="black" stroke-width="0.110005"/>
<path d="M26.6714 32.6282C26.6663 32.6281 26.6613 32.628 26.6563 32.6279C26.7035 32.6289 26.6747 32.6239 26.6077 32.7099C26.5823 32.7765 26.3828 32.921 26.2371 32.9179C26.1665 32.9248 26.0581 32.9308 25.9877 32.9293C25.9677 32.9289 25.9407 32.9117 25.9206 32.9113" stroke="black" stroke-width="0.110005"/>
<path d="M26.7905 35.7549C26.7956 35.755 26.8008 35.7551 26.806 35.7552C26.7853 35.7548 26.8473 35.7559 26.868 35.7563C26.9485 35.7577 27.0286 35.7738 27.1001 35.7763C27.1777 35.7776 27.2545 35.8016 27.332 35.803C27.4099 35.8158 27.5044 35.8137 27.585 35.827C27.6757 35.8317 27.7479 35.8514 27.8424 35.8531C27.9185 35.8574 27.9591 35.8712 28.0436 35.8726L27.8424 35.8531C27.9185 35.8574 27.9591 35.8712 28.0436 35.8726" stroke="black" stroke-width="0.110005"/>
<path d="M26.3466 37.6858C26.3551 37.6728 26.423 37.6035 26.4709 37.5703C26.5267 37.5502 26.7183 37.4561 26.7898 37.4425C26.8665 37.4197 26.9429 37.394 27.017 37.3632C27.102 37.3414 27.1555 37.3207 27.2436 37.3008C27.3135 37.2663 27.382 37.2431 27.4559 37.2211" stroke="black" stroke-width="0.110005"/>
<path d="M27.6803 34.9367C27.6292 35.0628 27.6876 35.0957 27.7101 35.1509C27.7509 35.2046 27.8572 35.2873 28.0283 35.3418C28.0943 35.36 28.145 35.3775 28.2211 35.4069C28.2721 35.4123 28.2968 35.4248 28.3338 35.4397" stroke="black" stroke-width="0.110005"/>
<path d="M21.3596 30.5839C21.3646 30.584 21.3697 30.5841 21.3747 30.5842C21.3272 30.5833 21.3556 30.5872 21.438 30.5196C21.4896 30.4609 21.5318 30.4347 21.5803 30.3743" stroke="black" stroke-width="0.110005"/>
<path d="M22.3755 31.6376C22.3855 31.6378 23.2701 31.1737 23.3666 31.0725C23.4342 31.0214 23.486 30.967 23.568 30.909C23.6203 30.8807 23.6584 30.8436 23.7075 30.812C23.7499 30.7491 23.8033 30.7117 23.8344 30.654C23.8896 30.6042 23.8691 30.5484 23.9147 30.4879C23.9376 30.4255 23.98 30.3203 23.9948 30.263" stroke="black" stroke-width="0.110005"/>
<path d="M25.1445 30.8757C25.1482 30.9085 25.125 31.0089 25.1235 31.0856C25.117 31.1744 24.9931 31.4471 24.8527 31.5268" stroke="black" stroke-width="0.110005"/>
<path d="M23.5218 30.819C23.5275 30.8191 23.6718 30.8652 23.9132 30.9383C24.2032 31.0403 24.7997 31.4039 24.8583 31.4535C24.9184 31.4992 25.0276 31.5411 25.0678 31.5948C25.132 31.6485 25.178 31.71 25.2276 31.7658C25.2856 31.835 25.3351 31.8935 25.3699 31.9518C25.5497 32.0929 26.0081 33.0557 26.0218 33.1099C26.0477 33.1608 26.0794 33.2316 26.0981 33.2794C26.1334 33.3191 26.1562 33.3747 26.1917 33.4339C26.2233 33.5105 26.2609 33.5458 26.3014 33.6041C26.3552 33.6402 26.4268 33.7082 26.4959 33.7451C26.5686 33.8053 26.6382 33.8306 26.691 33.8709C26.7685 33.903 27.6268 34.4277 27.6665 34.4539C27.7444 34.5144 27.9799 34.7515 27.8001 34.9176C27.7245 34.9735 27.6553 35.0481 27.5915 35.0793C27.5253 35.1364 27.4356 35.1609 27.3611 35.1898C26.9599 35.2897 26.7595 35.2477 26.6815 35.2463C26.6537 35.2458 26.6258 35.2453 26.598 35.2448" stroke="black" stroke-width="0.110005"/>
<path d="M21.6756 29.1515C21.6809 29.1516 21.6862 29.1516 21.6915 29.1517C21.6487 29.151 21.6706 29.1504 21.7543 29.1685C21.8179 29.1976 21.9104 29.2266 21.9731 29.2507C22.0398 29.2732 22.1242 29.285 22.1609 29.3167C22.234 29.3307 22.2755 29.3732 22.3316 29.4138C22.3958 29.4744 22.4451 29.5136 22.5164 29.5583C22.6005 29.6187 22.6677 29.6491 22.7488 29.7036C22.8325 29.7207 22.8934 29.7499 22.9846 29.7546C23.0704 29.7615 23.1465 29.773 23.2376 29.7745C23.3116 29.7757 23.3855 29.777 23.4595 29.7782L23.2376 29.7745C23.3116 29.7757 23.3855 29.777 23.4595 29.7782" stroke="black" stroke-width="0.110005"/>
<path d="M26.6351 27.1925C26.6251 27.1922 26.6151 27.192 26.605 27.1918C26.6605 27.193 26.645 27.1904 26.5594 27.2075C26.4686 27.2566 26.3491 27.2925 26.2687 27.3349C26.1778 27.366 26.0799 27.4005 25.9938 27.4461C25.8959 27.5063 25.8059 27.5549 25.7161 27.624C25.6276 27.6736 25.5401 27.7353 25.4541 27.7856C25.3684 27.8343 25.2974 27.8817 25.2221 27.9478C25.1601 27.9839 25.0757 28.035 25.0058 28.0936C24.9414 28.1176 24.8935 28.1669 24.851 28.2074C24.7683 28.284 24.718 28.3237 24.6325 28.4034C24.5875 28.4479 24.5279 28.5001 24.4605 28.5669C24.3906 28.6158 24.3132 28.7111 24.2571 28.7632C24.2205 28.8127 24.1675 28.8713 24.1159 28.9108C24.0752 28.9638 24.0277 29.0337 23.9739 29.075C23.9408 29.1256 23.8839 29.1912 23.8311 29.2559C23.7883 29.3103 23.7302 29.3647 23.6892 29.4201C23.6344 29.4832 23.5918 29.5471 23.5315 29.6007C23.5195 29.6391 23.4969 29.6586 23.483 29.6833" stroke="black" stroke-width="0.110005"/>
<path d="M21.6804 30.1531C21.9142 30.1411 22.3003 30.2195 22.308 30.2196C22.3081 30.2196 22.8214 30.2203 22.8214 30.2203C23.092 30.1982 23.1553 30.0929 23.202 30.0192C23.3087 29.8614 23.3807 29.8067 23.4628 29.6884C23.5905 29.5948 23.7537 29.821 23.7614 29.8211C24.1816 30.2513 23.8132 30.7638 23.7894 30.7793C23.5644 30.9804 23.5173 30.9929 23.3898 30.8604C23.2633 30.6986 23.227 30.6262 23.1202 30.5685C22.914 30.4613 22.4758 30.5337 22.468 30.5336C22.4602 30.5334 22.2394 30.6175 22.2394 30.6175C22.1317 30.6555 22.0609 30.7502 21.8758 30.7789C21.6888 30.7891 21.6272 30.7694 21.5395 30.6136C21.4222 30.4121 21.4929 30.1738 21.6804 30.1531L21.6804 30.1531Z" fill="#F9DD16" stroke="black" stroke-width="0.110005"/>
<path d="M28.3872 24.6059C28.3834 24.8282 28.4319 24.9721 28.5081 25.0144C27.9773 25.4065 27.4396 25.7868 26.9249 26.2071C27.0035 27.5212 27.0123 27.8028 27.0315 28.2373C26.8393 28.1258 26.6887 28.0974 26.6126 28.1422C26.5424 27.4953 26.486 26.8485 26.3828 26.2018C25.1945 25.6293 24.944 25.4998 24.5547 25.3046C24.7507 25.1939 24.8527 25.0784 24.8526 24.9913C25.4537 25.246 26.0477 25.5126 26.6656 25.7389C27.7753 24.9973 28.017 24.8453 28.3872 24.606L28.3872 24.6059Z" fill="#F9DD16" stroke="black" stroke-width="0.143006"/>
</g>
</svg>
