<svg width="54" height="48" viewBox="0 0 54 48" fill="none" xmlns="http://www.w3.org/2000/svg">
<mask id="mask0_1_40376" style="mask-type:alpha" maskUnits="userSpaceOnUse" x="3" y="6" width="48" height="36">
<path d="M3.56934 15.1356C4.16681 10.4125 8.0415 7.00193 12.7861 6.60887C16.6412 6.28949 21.6196 6 27 6C32.3804 6 37.3588 6.28949 41.2139 6.60887C45.9585 7.00193 49.8332 10.4125 50.4307 15.1356C50.752 17.6759 51 20.704 51 24C51 27.296 50.752 30.3241 50.4307 32.8644C49.8332 37.5875 45.9585 40.9981 41.2139 41.3911C37.3588 41.7105 32.3804 42 27 42C21.6196 42 16.6412 41.7105 12.7861 41.3911C8.0415 40.9981 4.16681 37.5875 3.56934 32.8644C3.248 30.3241 3 27.296 3 24C3 20.704 3.248 17.6759 3.56934 15.1356Z" fill="#00D0BF"/>
</mask>
<g mask="url(#mask0_1_40376)">
<rect x="51" y="42" width="48" height="36" transform="rotate(-180 51 42)" fill="#EE5757"/>
<path d="M18.5617 20.5406C18.5858 20.5653 18.876 20.7406 18.881 20.7309C18.886 20.7212 19.6404 20.5472 19.6354 20.5569C19.6303 20.5666 19.2127 21.063 19.2321 21.0731C19.2514 21.0831 19.6685 21.5825 19.6782 21.5875C19.6879 21.5925 18.8884 21.5218 18.8884 21.5218L18.3596 21.9482L18.2412 21.3948C18.2412 21.3948 17.576 21.1601 17.5663 21.1551C17.5567 21.1501 18.1356 20.9587 18.1356 20.9587L18.3084 20.5074C18.3084 20.5074 18.5323 20.5499 18.5617 20.5406Z" fill="#F9DD16" stroke="black" stroke-width="0.110005"/>
<path d="M28.2967 21.625C28.2982 21.1586 27.3798 19.0483 27.2286 18.7238C26.9472 18.3717 26.6496 17.8141 26.5216 17.3325C26.4388 16.8464 26.1788 16.4652 25.8122 16.3359C25.3893 16.1113 24.9762 16.1994 24.5786 16.2339C24.3836 16.2754 24.2168 16.3807 24.1226 16.5358C23.908 16.8429 23.7912 16.8195 23.6427 16.9519C22.4202 17.1424 21.2641 17.7732 20.3845 18.2032C19.9188 18.5265 19.5234 18.7143 19.3403 18.7538C18.8437 18.7556 18.4826 18.5203 18.3101 18.3952C17.7477 17.8839 17.1854 17.3724 16.623 16.8611C16.1355 16.4973 16.015 17.0224 16.1086 17.1027C16.2713 17.4524 15.919 17.6653 17.2568 18.9255C17.4257 19.2725 17.5946 19.6196 17.7635 19.9665C17.7635 19.9665 17.7354 20.2512 17.759 20.2635C18.0032 20.8453 18.3912 20.7003 18.5743 20.5371C18.7068 20.4164 18.8393 20.2957 18.9718 20.175C18.9718 20.175 19.7595 19.9257 19.7717 19.9021C20.6164 20.0279 22.793 19.6132 23.1519 19.4429C23.4753 19.2617 23.496 19.4152 23.7762 19.1869C24.0104 19.0319 23.8816 19.1553 24.3144 18.7598C24.4476 18.6453 24.553 18.8308 24.5778 18.9605C24.6019 20.1892 24.7524 20.9743 24.8645 22.1993L26.7052 23.1425L28.2967 21.625Z" fill="white" stroke="black" stroke-width="0.143006"/>
<path d="M17.6673 17.8934C17.6841 17.9083 17.3632 18.9528 17.3632 18.9528C17.3632 18.9528 17.0674 18.6579 17.07 18.653L17.277 17.5555L17.6673 17.8934Z" fill="#F9DD16"/>
<path d="M17.1762 17.3756C17.1827 17.3891 17.2064 17.4839 17.2099 17.545C17.1987 17.609 17.1809 17.8385 17.1564 17.916C17.1369 18.0023 17.1199 18.0893 17.1084 18.176C17.0839 18.2702 17.0743 18.3321 17.0467 18.4289C17.0404 18.5126 17.0253 18.5907 17.0065 18.6738M17.6763 17.8546C17.6617 17.9252 17.5995 18.2401 17.5706 18.3261C17.5464 18.4214 17.5248 18.5176 17.5087 18.613C17.479 18.7172 17.4661 18.7855 17.433 18.8927C17.4225 18.9846 17.4032 19.0708 17.3798 19.1628L17.6763 17.8546Z" stroke="black" stroke-width="0.124305"/>
<path d="M22.5502 17.2723C22.9438 17.7103 23.0658 18.4222 22.9945 18.8208" stroke="black" stroke-width="0.110005"/>
<path d="M21.0274 19.8669C21.0298 19.8623 21.0322 19.8578 21.0345 19.8532C21.0122 19.8961 21.0295 19.8716 20.9874 19.7765C20.9427 19.7272 20.9113 19.4877 20.98 19.3553C21.0063 19.2879 21.0504 19.1862 21.0837 19.1222C21.0931 19.104 21.1199 19.0859 21.1294 19.0676" stroke="black" stroke-width="0.110005"/>
<path d="M18.2126 18.3881C18.2102 18.3927 18.2079 18.3972 18.2055 18.4018C18.215 18.3835 18.1865 18.4383 18.177 18.4565C18.1402 18.5276 18.0905 18.5923 18.0567 18.6549C18.0211 18.7234 17.9661 18.7819 17.9306 18.8504C17.8849 18.9144 17.8448 18.9994 17.7975 19.0656C17.7532 19.1444 17.7039 19.2006 17.6606 19.284C17.6231 19.35 17.593 19.3805 17.5543 19.455L17.6606 19.284C17.6231 19.35 17.593 19.3805 17.5543 19.455" stroke="black" stroke-width="0.110005"/>
<path d="M16.7833 17.0548C16.7901 17.0676 16.8167 17.157 16.8223 17.2141C16.8135 17.2735 16.8039 17.4871 16.7825 17.5587C16.7663 17.6385 16.7527 17.7192 16.7443 17.7997C16.7235 17.8868 16.7162 17.9443 16.6924 18.0336C16.6891 18.1116 16.677 18.184 16.6614 18.2609" stroke="black" stroke-width="0.110005"/>
<path d="M18.4982 19.5737C18.4059 19.4765 18.3516 19.512 18.2922 19.5076C18.2265 19.5193 18.1069 19.5743 17.9856 19.6963C17.9413 19.7446 17.9041 19.7801 17.8455 19.8322C17.8191 19.8732 17.7974 19.8888 17.7683 19.9139" stroke="black" stroke-width="0.110005"/>
<path d="M25.4376 16.296C25.4353 16.3005 25.4329 16.3052 25.4305 16.3097C25.4528 16.2667 25.4367 16.2911 25.4569 16.393C25.4835 16.4633 25.4868 16.5121 25.5162 16.5802" stroke="black" stroke-width="0.110005"/>
<path d="M24.0013 16.6763C23.9966 16.6855 23.9846 17.6793 24.0257 17.8074C24.038 17.8895 24.0602 17.9583 24.0716 18.0562C24.0717 18.1153 24.0856 18.1648 24.0898 18.2222C24.1234 18.2856 24.1306 18.3493 24.165 18.4003C24.1818 18.4705 24.238 18.4733 24.2682 18.5387C24.3103 18.5841 24.3794 18.6641 24.4208 18.6999" stroke="black" stroke-width="0.110005"/>
<path d="M23.3109 19.3973C23.2803 19.3869 23.2018 19.3247 23.1347 19.2914C23.0591 19.2487 22.8727 19.0262 22.8638 18.8695" stroke="black" stroke-width="0.110005"/>
<path d="M24.0545 17.9867C24.0521 17.9913 23.9508 18.091 23.7851 18.2594C23.5732 18.4556 22.9965 18.7931 22.9271 18.8203C22.8607 18.8504 22.7778 18.9228 22.7122 18.933C22.6368 18.963 22.5617 18.9748 22.4904 18.9918C22.4034 19.0101 22.3296 19.0259 22.262 19.0297C22.0593 19.1179 20.9911 19.0835 20.9359 19.0716C20.8788 19.0711 20.8011 19.0669 20.7497 19.0618C20.6989 19.074 20.6387 19.069 20.57 19.0729C20.487 19.0662 20.4394 19.0821 20.3695 19.0906C20.3145 19.1196 20.2229 19.1496 20.1609 19.191C20.076 19.2253 20.0245 19.2721 19.966 19.2984C19.905 19.3488 19.0738 19.8338 19.0336 19.8554C18.9463 19.8939 18.6331 19.9869 18.5547 19.7667C18.5345 19.6801 18.4946 19.5908 18.4922 19.5245C18.467 19.4451 18.4813 19.3603 18.4854 19.2863C18.5582 18.9112 18.6786 18.7634 18.7118 18.6994C18.7237 18.6766 18.7356 18.6538 18.7474 18.6309" stroke="black" stroke-width="0.110005"/>
<path d="M26.4724 17.2506C26.47 17.2551 26.4676 17.2598 26.4653 17.2643C26.4845 17.2273 26.4755 17.2467 26.4231 17.312C26.3696 17.3552 26.3037 17.4236 26.2551 17.4682C26.2061 17.5168 26.159 17.5855 26.1149 17.6041C26.0707 17.662 26.015 17.6803 25.9545 17.7121C25.8728 17.7426 25.8165 17.7691 25.7459 17.8125C25.6557 17.8604 25.5995 17.9062 25.5159 17.954C25.4644 18.0198 25.412 18.0606 25.3682 18.1381C25.3248 18.2099 25.2816 18.2715 25.2407 18.3502C25.2075 18.4141 25.1743 18.478 25.1411 18.542L25.2407 18.3502C25.2075 18.4141 25.1743 18.478 25.1411 18.542" stroke="black" stroke-width="0.110005"/>
<path d="M25.7779 22.5072C25.7827 22.4981 25.7874 22.4889 25.7922 22.4798C25.7659 22.5305 25.7751 22.5172 25.7998 22.4316C25.8 22.329 25.8244 22.2049 25.8254 22.1144C25.8408 22.0186 25.8565 21.9151 25.8575 21.8181C25.8517 21.7045 25.8519 21.6028 25.8349 21.4933C25.8336 21.3925 25.8218 21.288 25.8188 21.1893C25.8169 21.0915 25.8096 21.0077 25.7884 20.9127C25.7865 20.8416 25.7821 20.7441 25.7648 20.6569C25.774 20.5883 25.7545 20.5251 25.7399 20.4702C25.7133 20.3644 25.7031 20.3027 25.6751 20.193C25.6583 20.1343 25.6418 20.0592 25.6164 19.9713C25.6073 19.8879 25.5627 19.7797 25.5445 19.7079C25.5197 19.655 25.4948 19.5834 25.4852 19.5206C25.4592 19.4626 25.4223 19.3918 25.4122 19.3261C25.3849 19.2761 25.3558 19.1983 25.3255 19.1246C25.2995 19.0641 25.2803 18.9895 25.2526 18.9303C25.2246 18.8553 25.1905 18.7913 25.173 18.715C25.1463 18.6891 25.1402 18.6607 25.1259 18.6384" stroke="black" stroke-width="0.110005"/>
<path d="M25.5932 16.7333C25.5002 16.9458 25.2608 17.2563 25.2572 17.2631C25.2572 17.2632 25.0293 17.7187 25.0293 17.7187C24.929 17.9681 24.993 18.0679 25.0368 18.1399C25.1275 18.3001 25.1435 18.3866 25.2106 18.5085C25.2359 18.6607 24.9659 18.7119 24.9624 18.7187C24.4002 18.9137 24.1151 18.3744 24.1121 18.3468C24.0358 18.0638 24.0458 18.0167 24.2181 17.9584C24.4155 17.913 24.4949 17.9108 24.5926 17.8398C24.7777 17.7012 24.9083 17.282 24.9119 17.2751C24.9154 17.2683 24.9396 17.0374 24.9396 17.0374C24.9541 16.926 24.9026 16.8239 24.9595 16.6477C25.0333 16.4774 25.0778 16.4309 25.2529 16.4174C25.4809 16.3968 25.658 16.5582 25.5932 16.7333V16.7333Z" fill="#F9DD16" stroke="black" stroke-width="0.110005"/>
<path d="M27.2133 25.2734C27.0182 25.174 26.8693 25.1542 26.7982 25.2023C26.6852 24.5702 26.5857 23.9374 26.4405 23.3072C25.2419 22.8082 24.9886 22.6942 24.5953 22.5232C24.7789 22.4039 24.8705 22.2849 24.8644 22.1993C25.4683 22.4174 26.0662 22.6477 26.6845 22.837C27.716 22.0485 27.9413 21.8861 28.286 21.6311C28.2976 21.8497 28.3548 21.9886 28.432 22.0261C27.9412 22.44 27.4428 22.8426 26.9697 23.2834C27.1368 24.571 27.1648 24.8473 27.2133 25.2734L27.2133 25.2734Z" fill="#F9DD16" stroke="black" stroke-width="0.143006"/>
<path d="M33.0188 17.2647C32.9849 17.2763 32.689 17.4674 32.6955 17.4762C32.702 17.4849 32.5072 18.2503 32.5007 18.2416C32.4942 18.2328 32.2372 17.6385 32.2189 17.652C32.2007 17.6654 31.5498 17.8347 31.5406 17.8414C31.5316 17.8481 31.9706 17.1458 31.9706 17.1458L31.8296 16.4795L32.3898 16.6069C32.3898 16.6069 32.9155 16.0975 32.9247 16.0907C32.9338 16.084 32.837 16.6961 32.837 16.6961L33.1677 17.0468C33.1677 17.0468 33.024 17.2339 33.0188 17.2647Z" fill="#F9DD16" stroke="black" stroke-width="0.110005"/>
<path d="M27.2608 25.6279C27.6881 25.8265 30.0569 25.8823 30.4258 25.8818C30.8813 25.7746 31.5331 25.7393 32.0352 25.8263C32.5203 25.9563 32.9925 25.8808 33.2837 25.6019C33.6888 25.3118 33.8024 24.8986 33.9578 24.5221C34.0115 24.3272 33.9934 24.1309 33.8953 23.9797C33.7145 23.6545 33.791 23.5582 33.7394 23.3671C34.1399 22.1739 34.105 20.8552 34.1244 19.873C34.0469 19.3125 34.0606 18.8734 34.1105 18.69C34.3426 18.2373 34.7284 18.008 34.9244 17.9039C35.6583 17.6081 36.3923 17.3125 37.1262 17.0167C37.6894 16.7268 37.2642 16.3952 37.1466 16.4465C36.749 16.4468 36.7195 16.0362 34.9335 16.7212C34.5356 16.7283 34.1376 16.7354 33.7397 16.7425C33.7397 16.7425 33.4917 16.5966 33.4693 16.6129C32.8205 16.5893 32.7709 17.0037 32.8345 17.2393C32.883 17.4109 32.9313 17.5825 32.9798 17.7541C32.9798 17.7541 32.8378 18.5763 32.8537 18.5974C32.3408 19.313 31.697 21.4691 31.6844 21.8677C31.6985 22.2386 31.5479 22.1926 31.6255 22.5441C31.6576 22.8228 31.6049 22.6534 31.7642 23.2144C31.8066 23.384 31.5868 23.4015 31.456 23.3693C30.3172 22.8721 29.5259 22.6773 28.349 22.2616L26.6172 23.5383L27.2608 25.6279Z" fill="white" stroke="black" stroke-width="0.143006"/>
<path d="M35.7493 17.8826C35.7285 17.8922 34.9495 17.1053 34.9495 17.1053C34.9495 17.1053 35.3452 16.952 35.3483 16.9567L36.2259 17.657L35.7493 17.8826Z" fill="#F9DD16"/>
<path d="M36.4308 17.6441C36.416 17.6443 36.3214 17.6242 36.2658 17.5997C36.2143 17.5594 36.0196 17.437 35.9621 17.3775C35.8947 17.319 35.8254 17.2626 35.754 17.2116C35.6818 17.1445 35.6314 17.1068 35.5584 17.0355C35.4872 16.9911 35.425 16.9405 35.36 16.8841M35.7813 17.9151C35.7255 17.8684 35.4753 17.6635 35.4123 17.5958C35.339 17.5285 35.2638 17.4633 35.1867 17.4039C35.108 17.3271 35.0535 17.2833 34.9737 17.2019C34.8972 17.1495 34.8297 17.0912 34.759 17.0261L35.7813 17.9151Z" stroke="black" stroke-width="0.124305"/>
<path d="M33.8253 22.3485C33.2624 22.5361 32.5803 22.3279 32.2611 22.0728" stroke="black" stroke-width="0.110005"/>
<path d="M32.3343 19.8023C32.3373 19.8069 32.3402 19.8114 32.3432 19.8159C32.3154 19.7735 32.3292 19.8022 32.4316 19.8044C32.4949 19.7826 32.7193 19.8632 32.8049 19.994C32.8524 20.052 32.922 20.1439 32.9634 20.2071C32.9752 20.2251 32.9791 20.2604 32.9909 20.2785" stroke="black" stroke-width="0.110005"/>
<path d="M35.0554 18.0922C35.0524 18.088 35.0494 18.0837 35.0464 18.0793C35.0584 18.0966 35.0225 18.045 35.0106 18.0278C34.9641 17.961 34.9291 17.8847 34.8888 17.8246C34.8439 17.7601 34.817 17.6816 34.7722 17.6171C34.736 17.545 34.6786 17.4689 34.6411 17.3943C34.5912 17.3168 34.5636 17.2448 34.509 17.1663C34.4674 17.1011 34.454 17.0589 34.4052 16.9887L34.509 17.1663C34.4674 17.1011 34.454 17.0589 34.4052 16.9887" stroke="black" stroke-width="0.110005"/>
<path d="M36.9042 17.5148C36.8899 17.5157 36.8001 17.5003 36.7477 17.4787C36.6997 17.4412 36.5173 17.3292 36.4642 17.2729C36.4016 17.2181 36.3371 17.1655 36.2705 17.1184C36.2035 17.0553 36.1566 17.0203 36.089 16.9531C36.0223 16.9124 35.9644 16.8653 35.904 16.8125" stroke="black" stroke-width="0.110005"/>
<path d="M33.8763 17.7523C34.009 17.7092 34.0019 17.6448 34.0338 17.5927C34.054 17.5279 34.0596 17.3959 34.0045 17.2341C33.9809 17.1734 33.9658 17.1246 33.9454 17.0493C33.9201 17.008 33.916 16.9817 33.9066 16.9446" stroke="black" stroke-width="0.110005"/>
<path d="M33.2272 25.3857C33.2243 25.3813 33.2213 25.3768 33.2184 25.3724C33.2462 25.4144 33.232 25.3871 33.1332 25.36C33.0593 25.3538 33.0148 25.3344 32.9416 25.3321" stroke="black" stroke-width="0.110005"/>
<path d="M33.616 23.9015C33.6101 23.8924 32.7435 23.4131 32.6127 23.3944C32.5353 23.3682 32.465 23.3583 32.374 23.3238C32.3221 23.2961 32.2725 23.2868 32.2202 23.2641C32.1496 23.2682 32.0905 23.2455 32.0304 23.2562C31.9614 23.2402 31.9338 23.2956 31.863 23.2952C31.8044 23.3164 31.7034 23.3485 31.6535 23.3735" stroke="black" stroke-width="0.110005"/>
<path d="M31.6046 22.0355C31.628 22.0114 31.7201 21.9649 31.781 21.9165C31.8543 21.8642 32.1403 21.7866 32.2852 21.8469" stroke="black" stroke-width="0.110005"/>
<path d="M32.5897 23.3522C32.5865 23.3481 32.5413 23.2163 32.4625 22.9984C32.3796 22.7276 32.3378 22.0716 32.3453 21.9982C32.3488 21.9263 32.3205 21.8221 32.3421 21.7591C32.3498 21.6792 32.3746 21.607 32.3926 21.5361C32.4168 21.4505 32.4371 21.3779 32.4658 21.3158C32.4796 21.0978 33.02 20.1544 33.0574 20.11C33.085 20.0589 33.1259 19.991 33.1551 19.947C33.1678 19.8965 33.2012 19.8446 33.2302 19.7814C33.276 19.7098 33.2837 19.6605 33.309 19.5944C33.3081 19.5331 33.3235 19.4387 33.3143 19.3661C33.3225 19.2759 33.3032 19.2104 33.3064 19.147C33.2883 19.0716 33.2295 18.1268 33.2284 18.0818C33.2339 17.9878 33.2958 17.6687 33.5393 17.6891C33.63 17.7068 33.7326 17.7078 33.7959 17.7329C33.8822 17.7431 33.9547 17.7908 34.0221 17.825C34.3388 18.0448 34.4199 18.2137 34.464 18.2698C34.4797 18.2899 34.4954 18.3099 34.5112 18.3299" stroke="black" stroke-width="0.110005"/>
<path d="M31.9308 25.8144C31.9278 25.8102 31.9248 25.806 31.9218 25.8018C31.9463 25.8358 31.9329 25.819 31.8982 25.7419C31.884 25.6734 31.8528 25.5824 31.8351 25.5178C31.8139 25.4512 31.7737 25.3776 31.7773 25.3285C31.7456 25.2623 31.7549 25.2024 31.7542 25.1323C31.7645 25.0431 31.7667 24.9793 31.7603 24.8947C31.7588 24.79 31.7436 24.7178 31.7392 24.6193C31.7036 24.5429 31.6911 24.4763 31.6414 24.402C31.5966 24.3305 31.5611 24.2636 31.5089 24.1914C31.4666 24.1328 31.4242 24.0742 31.3819 24.0156L31.5089 24.1914C31.4666 24.1328 31.4242 24.0742 31.3819 24.0156" stroke="black" stroke-width="0.110005"/>
<path d="M27.6733 22.6807C27.6792 22.6898 27.6851 22.6989 27.691 22.7081C27.6583 22.6575 27.6659 22.6731 27.7299 22.7385C27.8197 22.7872 27.9176 22.8705 27.9965 22.9142C28.0736 22.9751 28.1574 23.0398 28.242 23.0866C28.3441 23.1344 28.4331 23.1826 28.5367 23.2171C28.6256 23.2633 28.7224 23.3007 28.8103 23.3443C28.8968 23.3886 28.9735 23.4207 29.0662 23.4441C29.1294 23.4756 29.2168 23.5172 29.3009 23.5409C29.3569 23.5826 29.421 23.5927 29.4756 23.6038C29.5802 23.6268 29.6388 23.6455 29.7474 23.669C29.8063 23.6797 29.8795 23.6983 29.9678 23.7142C30.045 23.7443 30.1596 23.7501 30.2307 23.7657C30.288 23.7655 30.3619 23.774 30.4212 23.7939C30.4836 23.795 30.5621 23.791 30.6241 23.8118C30.6801 23.8077 30.7613 23.8149 30.8393 23.8191C30.9039 23.8212 30.9778 23.837 31.0421 23.8369C31.1202 23.8439 31.1915 23.8395 31.2661 23.8579C31.3007 23.843 31.3283 23.8502 31.3542 23.8462" stroke="black" stroke-width="0.110005"/>
<path d="M32.8237 25.3279C32.6768 25.1451 32.5097 24.7795 32.5053 24.7731C32.5052 24.773 32.2033 24.3539 32.2033 24.3539C32.0269 24.1476 31.9083 24.1641 31.8239 24.1737C31.6393 24.1887 31.5547 24.1654 31.4151 24.175C31.2676 24.1314 31.346 23.852 31.3415 23.8456C31.4258 23.2247 32.0382 23.1935 32.0643 23.2029C32.352 23.2563 32.3894 23.2867 32.3622 23.4763C32.312 23.6842 32.2775 23.7606 32.2959 23.885C32.3347 24.1225 32.6487 24.433 32.6532 24.4395C32.6577 24.446 32.8526 24.5716 32.8526 24.5716C32.9455 24.6348 33.0602 24.6313 33.1914 24.7637C33.3094 24.9096 33.3305 24.9726 33.2621 25.1449C33.1757 25.3709 32.9502 25.4674 32.8237 25.3279L32.8237 25.3279Z" fill="#F9DD16" stroke="black" stroke-width="0.110005"/>
<path d="M24.5277 22.5914C24.7086 22.4553 24.7963 22.3267 24.7866 22.24C25.4072 22.4144 26.0221 22.6017 26.656 22.7457C27.6672 21.8604 27.8886 21.6771 28.2268 21.3898C28.2477 21.6117 28.3115 21.7487 28.3913 21.7808C27.9117 22.2415 27.424 22.6913 26.9636 23.1779C27.1868 24.4768 27.2268 24.7562 27.2938 25.1865C27.0921 25.1007 26.9405 25.0923 26.8706 25.147C26.7296 24.5118 26.6023 23.8748 26.4288 23.2442C25.1943 22.8305 24.9331 22.7345 24.5277 22.5914L24.5277 22.5914Z" fill="#F9DD16" stroke="black" stroke-width="0.143006"/>
<path d="M28.4464 31.3694C28.4577 31.3367 28.4816 30.9961 28.4704 30.9956C28.4592 30.9951 27.947 30.3781 27.9582 30.3786C27.9694 30.3791 28.6179 30.5501 28.618 30.528C28.618 30.506 28.8781 29.9109 28.8781 29.8999C28.8782 29.889 29.1883 30.6516 29.1883 30.6516L29.8249 30.9543L29.3757 31.2988C29.3757 31.2988 29.4733 32.0084 29.4733 32.0194C29.4732 32.0303 29.0274 31.5815 29.0274 31.5815L28.5348 31.6156C28.5348 31.6156 28.4686 31.3923 28.4464 31.3694Z" fill="#F9DD16" stroke="black" stroke-width="0.110005"/>
<path d="M24.8325 22.3265C24.4037 22.5221 22.8993 24.2498 22.6727 24.5245C22.482 24.9293 22.1104 25.4358 21.7287 25.7558C21.3216 26.0366 21.0941 26.4344 21.148 26.8225C21.141 27.3024 21.4162 27.6411 21.635 27.9884C21.7647 28.1483 21.9399 28.2556 22.1266 28.2758C22.5094 28.3414 22.5428 28.4575 22.7342 28.5368C23.4844 29.5689 24.6073 30.3545 25.4158 30.9733C25.9317 31.2605 26.2901 31.541 26.4126 31.691C26.6479 32.1422 26.6019 32.5703 26.5683 32.7801C26.3637 33.508 26.159 34.2359 25.9544 34.9638C25.85 35.5612 26.3886 35.449 26.4182 35.3299C26.6625 35.034 27.0237 35.2647 27.5506 33.5147C27.7895 33.2143 28.0285 32.9139 28.2675 32.6136C28.2675 32.6136 28.5419 32.5189 28.5421 32.4923C28.9611 32.0241 28.6454 31.7322 28.4095 31.6345C28.2364 31.565 28.0632 31.4954 27.8901 31.4258C27.8901 31.4258 27.2907 30.8143 27.2633 30.8131C26.9812 29.9912 25.5763 28.1855 25.2511 27.9309C24.9327 27.713 25.0638 27.6294 24.7225 27.4708C24.47 27.3232 24.6438 27.3883 24.0772 27.1615C23.9094 27.0887 24.0301 26.9144 24.1374 26.8369C25.2536 26.2958 25.9032 25.8271 26.9747 25.2075L26.974 23.1337L24.8325 22.3265Z" fill="white" stroke="black" stroke-width="0.143006"/>
<path d="M26.6412 33.4672C26.6467 33.4441 27.7175 33.281 27.7175 33.281C27.7175 33.281 27.5908 33.7025 27.5854 33.7022L26.5195 34.0001L26.6412 33.4672Z" fill="#F9DD16"/>
<path d="M26.4076 34.18C26.4166 34.1674 26.4897 34.1008 26.5422 34.0694C26.6038 34.0511 26.8147 33.9636 26.8943 33.9521C26.9794 33.9318 27.064 33.9086 27.1458 33.8802C27.2402 33.8611 27.2993 33.8422 27.3973 33.825C27.4741 33.7928 27.55 33.7719 27.632 33.7523M26.6051 33.471C26.6742 33.453 26.9806 33.3698 27.0698 33.3588C27.165 33.3389 27.2598 33.3161 27.3514 33.2883C27.457 33.2696 27.5232 33.2511 27.6328 33.2344C27.7189 33.2027 27.8038 33.1821 27.8957 33.163L26.6051 33.471Z" stroke="black" stroke-width="0.124305"/>
<path d="M23.6317 29.597C23.8409 29.0043 24.4135 28.554 24.7968 28.4403" stroke="black" stroke-width="0.110005"/>
<path d="M26.6683 29.6321C26.6632 29.6319 26.6581 29.6317 26.6531 29.6314C26.7007 29.6337 26.6715 29.6278 26.6068 29.7146C26.5834 29.7825 26.387 29.926 26.24 29.919C26.169 29.9242 26.0599 29.9275 25.9889 29.9241C25.9687 29.9231 25.9409 29.9048 25.9206 29.9038" stroke="black" stroke-width="0.110005"/>
<path d="M26.7904 32.7376C26.7955 32.7378 26.8006 32.738 26.8058 32.7382C26.7852 32.7373 26.8471 32.74 26.8677 32.741C26.9479 32.7445 27.0284 32.763 27.0998 32.7674C27.1772 32.7708 27.2545 32.7972 27.3318 32.8006C27.4099 32.8156 27.504 32.816 27.5848 32.8316C27.6754 32.8388 27.748 32.8607 27.8423 32.8649C27.9183 32.8712 27.9592 32.8863 28.0435 32.89L27.8423 32.8649C27.9183 32.8712 27.9592 32.8863 28.0435 32.89" stroke="black" stroke-width="0.110005"/>
<path d="M26.3481 34.6802C26.3563 34.667 26.4226 34.597 26.4701 34.5639C26.5259 34.5446 26.7168 34.4522 26.7888 34.44C26.8656 34.4185 26.9422 34.3939 27.0162 34.3639C27.1016 34.3436 27.155 34.3237 27.2436 34.3053C27.3132 34.2714 27.3818 34.2493 27.4559 34.2285" stroke="black" stroke-width="0.110005"/>
<path d="M27.6779 31.9287C27.632 32.0537 27.6902 32.0881 27.714 32.144C27.7556 32.1989 27.8624 32.2845 28.0316 32.3434C28.0968 32.3634 28.147 32.3823 28.2225 32.4137C28.2725 32.4203 28.2971 32.4335 28.3338 32.4494" stroke="black" stroke-width="0.110005"/>
<path d="M21.3621 27.5838C21.3671 27.584 21.3723 27.5842 21.3773 27.5845C21.3295 27.5822 21.3582 27.587 21.4389 27.5198C21.4888 27.4608 21.5304 27.435 21.5772 27.3743" stroke="black" stroke-width="0.110005"/>
<path d="M22.3907 28.6374C22.4008 28.6379 23.2783 28.1828 23.3724 28.081C23.4389 28.0301 23.4894 27.9754 23.5702 27.9178C23.622 27.8899 23.6593 27.8527 23.7078 27.8215C23.7485 27.7577 23.8012 27.7206 23.8306 27.6619C23.8847 27.612 23.8621 27.554 23.9061 27.4928C23.9272 27.429 23.9666 27.3217 23.9796 27.263" stroke="black" stroke-width="0.110005"/>
<path d="M25.1326 27.8757C25.1373 27.9089 25.1176 28.0099 25.1186 28.0875C25.1151 28.1772 25.0011 28.4498 24.8644 28.5268" stroke="black" stroke-width="0.110005"/>
<path d="M23.5218 27.7684C23.5273 27.7687 23.6688 27.8183 23.9054 27.8974C24.1901 28.0065 24.7806 28.3841 24.8391 28.4351C24.8988 28.4822 25.0061 28.5267 25.0468 28.5813C25.1108 28.6365 25.1575 28.6989 25.2074 28.7559C25.266 28.8263 25.3159 28.8859 25.3515 28.9449C25.5305 29.0902 26.0063 30.0618 26.0213 30.1161C26.0481 30.1675 26.0811 30.2389 26.1008 30.2871C26.1364 30.3276 26.1602 30.3836 26.1966 30.4436C26.2297 30.5207 26.2673 30.5568 26.3085 30.616C26.3618 30.6533 26.4335 30.723 26.5018 30.7615C26.5743 30.8234 26.6426 30.8504 26.6952 30.892C26.7713 30.9259 27.6211 31.4709 27.6605 31.498C27.738 31.5603 27.9741 31.8027 27.805 31.9638C27.7335 32.0176 27.6687 32.0901 27.6078 32.1196C27.5454 32.1749 27.4591 32.197 27.3878 32.2239C27.0016 32.3133 26.8059 32.2663 26.7302 32.2629C26.7031 32.2617 26.6761 32.2605 26.6491 32.2593" stroke="black" stroke-width="0.110005"/>
<path d="M21.6755 26.1256C21.6807 26.1258 21.686 26.126 21.6912 26.1263C21.6489 26.1244 21.6705 26.1244 21.7538 26.1448C21.8177 26.1759 21.9101 26.2075 21.9729 26.2334C22.0395 26.2579 22.1234 26.2719 22.1606 26.3049C22.2334 26.3209 22.2758 26.3649 22.3326 26.4073C22.398 26.4701 22.448 26.511 22.52 26.5579C22.6051 26.621 22.6725 26.6535 22.7544 26.7105C22.8377 26.7299 22.8989 26.761 22.9892 26.7681C23.0742 26.7773 23.1499 26.7909 23.24 26.7947C23.3131 26.7979 23.3862 26.8011 23.4594 26.8042L23.24 26.7947C23.3131 26.7979 23.3862 26.8011 23.4594 26.8042" stroke="black" stroke-width="0.110005"/>
<path d="M26.6113 24.1958C26.6012 24.1953 26.591 24.1948 26.5809 24.1943C26.637 24.197 26.6213 24.194 26.5353 24.2093C26.4453 24.2575 26.3257 24.2915 26.2459 24.3331C26.155 24.3628 26.0574 24.3958 25.9719 24.4406C25.8749 24.5001 25.7857 24.5479 25.6972 24.6168C25.6095 24.6658 25.5231 24.7271 25.4379 24.7767C25.353 24.8247 25.2828 24.8717 25.209 24.938C25.1475 24.9736 25.064 25.0241 24.9953 25.0828C24.931 25.1058 24.8843 25.1554 24.8426 25.1961C24.7617 25.273 24.7122 25.3126 24.6284 25.3927C24.5844 25.4374 24.526 25.4896 24.4601 25.5568C24.3911 25.6055 24.3161 25.7018 24.2612 25.7541C24.2259 25.8042 24.1742 25.8632 24.1234 25.9026C24.0841 25.9563 24.0384 26.0272 23.9854 26.0684C23.9537 26.1197 23.8984 26.186 23.8472 26.2514C23.8058 26.3063 23.7489 26.361 23.7093 26.417C23.656 26.4808 23.6151 26.5456 23.556 26.5993C23.5451 26.6386 23.5229 26.6582 23.5098 26.6833" stroke="black" stroke-width="0.110005"/>
<path d="M21.675 27.1199C21.9074 27.1138 22.2945 27.2033 22.3023 27.2037C22.3024 27.2037 22.8137 27.2176 22.8137 27.2176C23.0824 27.2021 23.1421 27.0969 23.1862 27.0232C23.2874 26.8659 23.3574 26.8122 23.4353 26.6942C23.5595 26.6025 23.7293 26.8363 23.7371 26.8366C24.1695 27.2842 23.8191 27.7949 23.7958 27.8101C23.5783 28.0084 23.5317 28.0199 23.4004 27.8821C23.2692 27.7145 23.2308 27.6401 23.1225 27.5788C22.9137 27.4646 22.4795 27.5268 22.4717 27.5265C22.464 27.5262 22.2468 27.6058 22.2468 27.6058C22.1407 27.6416 22.0733 27.7359 21.8899 27.7602C21.7039 27.7658 21.6419 27.7442 21.5495 27.5838C21.4262 27.3762 21.4889 27.1362 21.675 27.1199L21.675 27.1199Z" fill="#F9DD16" stroke="black" stroke-width="0.110005"/>
<path d="M28.3318 21.6263C28.3343 21.85 28.3865 21.996 28.463 22.0404C27.9487 22.4233 27.4272 22.7941 26.9297 23.2058C27.0448 24.5311 27.0615 24.8149 27.0928 25.253C26.8994 25.1363 26.7495 25.1043 26.6755 25.1476C26.5876 24.4946 26.5134 23.8418 26.3929 23.1882C25.2004 22.5846 24.9487 22.4484 24.5577 22.243C24.7486 22.136 24.8464 22.0219 24.8438 21.9342C25.4461 22.2043 26.0416 22.4864 26.6597 22.7283C27.7371 22.0066 27.9721 21.8589 28.3318 21.6263L28.3318 21.6263Z" fill="#F9DD16" stroke="black" stroke-width="0.143006"/>
</g>
</svg>
