<svg width="54" height="48" viewBox="0 0 54 48" fill="none" xmlns="http://www.w3.org/2000/svg">
<mask id="mask0_1_41232" style="mask-type:alpha" maskUnits="userSpaceOnUse" x="3" y="6" width="48" height="36">
<path d="M3.56934 15.1356C4.16681 10.4125 8.0415 7.00193 12.7861 6.60887C16.6412 6.28949 21.6196 6 27 6C32.3804 6 37.3588 6.28949 41.2139 6.60887C45.9585 7.00193 49.8332 10.4125 50.4307 15.1356C50.752 17.6759 51 20.704 51 24C51 27.296 50.752 30.3241 50.4307 32.8644C49.8332 37.5875 45.9585 40.9981 41.2139 41.3911C37.3588 41.7105 32.3804 42 27 42C21.6196 42 16.6412 41.7105 12.7861 41.3911C8.0415 40.9981 4.16681 37.5875 3.56934 32.8644C3.248 30.3241 3 27.296 3 24C3 20.704 3.248 17.6759 3.56934 15.1356Z" fill="#00D0BF"/>
</mask>
<g mask="url(#mask0_1_41232)">
<rect x="3" y="30" width="48" height="12" fill="#59C785"/>
<rect x="3" y="18" width="48" height="12" fill="#F5F5F5"/>
<path d="M27 29C29.7614 29 32 26.7614 32 24C32 21.2386 29.7614 19 27 19C24.2386 19 22 21.2386 22 24C22 26.7614 24.2386 29 27 29Z" fill="#2E50A6"/>
<path d="M27 28.375C29.4162 28.375 31.375 26.4162 31.375 24C31.375 21.5838 29.4162 19.625 27 19.625C24.5838 19.625 22.625 21.5838 22.625 24C22.625 26.4162 24.5838 28.375 27 28.375Z" fill="white"/>
<path d="M27 24.875C27.4832 24.875 27.875 24.4832 27.875 24C27.875 23.5168 27.4832 23.125 27 23.125C26.5168 23.125 26.125 23.5168 26.125 24C26.125 24.4832 26.5168 24.875 27 24.875Z" fill="#2E50A6"/>
<path d="M31.309 24.788C31.4288 24.8037 31.5387 24.7194 31.5544 24.5997C31.5702 24.4799 31.4859 24.37 31.3661 24.3542C31.2463 24.3385 31.1364 24.4228 31.1207 24.5425C31.1049 24.6623 31.1892 24.7722 31.309 24.788Z" fill="#2E50A6"/>
<path d="M22.5919 23.6707C22.7117 23.6865 22.8216 23.6021 22.8373 23.4824C22.8531 23.3626 22.7688 23.2527 22.649 23.2369C22.5292 23.2212 22.4193 23.3055 22.4036 23.4253C22.3878 23.545 22.4721 23.6549 22.5919 23.6707Z" fill="#2E50A6"/>
<path d="M26.3343 28.4201C26.3224 28.5398 26.4108 28.6471 26.5316 28.6598C26.6525 28.6725 26.7602 28.5858 26.7721 28.4661C26.784 28.3464 26.6956 28.2391 26.5748 28.2264C26.4539 28.2137 26.3462 28.3004 26.3343 28.4201Z" fill="#2E50A6"/>
<path d="M27.2041 19.6748C27.1922 19.7945 27.2805 19.9018 27.4014 19.9145C27.5223 19.9272 27.6299 19.8405 27.6418 19.7208C27.6537 19.6011 27.5654 19.4938 27.4445 19.4811C27.3236 19.4684 27.216 19.5551 27.2041 19.6748Z" fill="#2E50A6"/>
<path d="M29.3393 27.7453C29.408 27.8456 29.5444 27.8717 29.6441 27.8037C29.7438 27.7357 29.7689 27.5993 29.7003 27.499C29.6316 27.3987 29.4952 27.3725 29.3955 27.4406C29.2959 27.5086 29.2707 27.645 29.3393 27.7453Z" fill="#2E50A6"/>
<path d="M24.2619 20.572C24.3305 20.6723 24.467 20.6985 24.5666 20.6304C24.6663 20.5624 24.6915 20.426 24.6228 20.3257C24.5542 20.2254 24.4177 20.1993 24.3181 20.2673C24.2184 20.3353 24.1932 20.4718 24.2619 20.572Z" fill="#2E50A6"/>
<path d="M23.3219 26.5367C23.2248 26.6085 23.2044 26.7456 23.2764 26.8429C23.3484 26.9402 23.4854 26.9609 23.5825 26.8891C23.6796 26.8173 23.7 26.6803 23.628 26.583C23.5561 26.4857 23.419 26.465 23.3219 26.5367Z" fill="#2E50A6"/>
<path d="M30.3484 21.258C30.2513 21.3297 30.2309 21.4668 30.3029 21.5641C30.3749 21.6614 30.5119 21.6821 30.609 21.6103C30.7061 21.5385 30.7265 21.4015 30.6545 21.3042C30.5826 21.2069 30.4455 21.1862 30.3484 21.258Z" fill="#2E50A6"/>
<path d="M30.3655 26.855C30.465 26.9214 30.6022 26.892 30.672 26.7892C30.7418 26.6864 30.7178 26.5492 30.6184 26.4827C30.519 26.4162 30.3818 26.4457 30.3119 26.5485C30.2421 26.6513 30.2661 26.7885 30.3655 26.855Z" fill="#2E50A6"/>
<path d="M23.3437 21.57C23.4431 21.6365 23.5803 21.607 23.6502 21.5042C23.72 21.4014 23.696 21.2642 23.5965 21.1978C23.4971 21.1313 23.3599 21.1608 23.2901 21.2636C23.2203 21.3664 23.2443 21.5036 23.3437 21.57Z" fill="#2E50A6"/>
<path d="M24.249 27.5427C24.1819 27.6478 24.2098 27.7844 24.3112 27.8479C24.4127 27.9114 24.5493 27.8777 24.6164 27.7726C24.6835 27.6676 24.6556 27.531 24.5542 27.4675C24.4527 27.404 24.3161 27.4377 24.249 27.5427Z" fill="#2E50A6"/>
<path d="M29.3328 20.3739C29.2657 20.479 29.2936 20.6156 29.395 20.6791C29.4965 20.7425 29.6331 20.7089 29.7002 20.6038C29.7673 20.4988 29.7394 20.3621 29.638 20.2987C29.5365 20.2352 29.3999 20.2689 29.3328 20.3739Z" fill="#2E50A6"/>
<path d="M27.1826 28.4296C27.1923 28.5558 27.2991 28.6535 27.421 28.648C27.543 28.6424 27.6338 28.5356 27.6241 28.4095C27.6143 28.2833 27.5075 28.1856 27.3856 28.1912C27.2637 28.1967 27.1728 28.3035 27.1826 28.4296Z" fill="#2E50A6"/>
<path d="M26.3204 19.6836C26.3302 19.8097 26.437 19.9075 26.5589 19.9019C26.6808 19.8963 26.7717 19.7896 26.7619 19.6634C26.7521 19.5373 26.6454 19.4395 26.5235 19.4451C26.4015 19.4507 26.3106 19.5574 26.3204 19.6836Z" fill="#2E50A6"/>
<path d="M22.5723 24.3907C22.4502 24.399 22.3614 24.5082 22.374 24.6347C22.3866 24.7612 22.4958 24.8571 22.618 24.8489C22.7401 24.8406 22.8289 24.7314 22.8163 24.6049C22.8037 24.4784 22.6945 24.3825 22.5723 24.3907Z" fill="#2E50A6"/>
<path d="M31.2905 23.2811C31.1683 23.2893 31.0795 23.3986 31.0921 23.5251C31.1047 23.6516 31.214 23.7475 31.3361 23.7392C31.4582 23.731 31.547 23.6218 31.5344 23.4953C31.5218 23.3688 31.4126 23.2729 31.2905 23.2811Z" fill="#2E50A6"/>
<path d="M30.8459 25.8764C30.9567 25.9172 31.083 25.8572 31.1278 25.7424C31.1726 25.6275 31.1191 25.5013 31.0082 25.4604C30.8974 25.4196 30.7711 25.4796 30.7263 25.5945C30.6815 25.7093 30.735 25.8355 30.8459 25.8764Z" fill="#2E50A6"/>
<path d="M22.825 22.5862C22.9359 22.627 23.0621 22.567 23.1069 22.4522C23.1518 22.3373 23.0982 22.2111 22.9874 22.1702C22.8765 22.1294 22.7503 22.1894 22.7054 22.3042C22.6606 22.4191 22.7141 22.5453 22.825 22.5862Z" fill="#2E50A6"/>
<path d="M25.2427 27.9949C25.2006 28.1105 25.2571 28.2352 25.3689 28.2735C25.4806 28.3117 25.6053 28.2491 25.6474 28.1335C25.6895 28.0179 25.633 27.8932 25.5212 27.855C25.4095 27.8167 25.2848 27.8794 25.2427 27.9949Z" fill="#2E50A6"/>
<path d="M28.3043 19.8841C28.2622 19.9996 28.3187 20.1243 28.4304 20.1626C28.5422 20.2008 28.6669 20.1382 28.709 20.0226C28.751 19.907 28.6946 19.7824 28.5828 19.7441C28.4711 19.7058 28.3464 19.7685 28.3043 19.8841Z" fill="#2E50A6"/>
<path d="M28.2232 28.1219C28.2595 28.2421 28.3834 28.3131 28.4999 28.2804C28.6165 28.2477 28.6815 28.1238 28.6452 28.0036C28.6089 27.8834 28.485 27.8124 28.3684 27.8451C28.2519 27.8777 28.1868 28.0017 28.2232 28.1219Z" fill="#2E50A6"/>
<path d="M25.2165 19.9905C25.2528 20.1107 25.3767 20.1817 25.4933 20.149C25.6098 20.1164 25.6749 19.9924 25.6386 19.8722C25.6023 19.752 25.4783 19.681 25.3618 19.7137C25.2452 19.7463 25.1802 19.8703 25.2165 19.9905Z" fill="#2E50A6"/>
<path d="M22.9093 25.4254C22.7941 25.4616 22.7329 25.5872 22.7725 25.7058C22.8121 25.8244 22.9376 25.8912 23.0528 25.855C23.168 25.8188 23.2293 25.6933 23.1897 25.5747C23.15 25.4561 23.0245 25.3892 22.9093 25.4254Z" fill="#2E50A6"/>
<path d="M30.9523 22.1895C30.8371 22.2257 30.7758 22.3513 30.8154 22.4699C30.855 22.5885 30.9805 22.6553 31.0957 22.6191C31.2109 22.5829 31.2722 22.4574 31.2326 22.3388C31.193 22.2202 31.0674 22.1533 30.9523 22.1895Z" fill="#2E50A6"/>
<path d="M30.8459 25.8764C30.9567 25.9173 31.083 25.8573 31.1278 25.7424C31.1726 25.6275 31.1191 25.5013 31.0082 25.4605C30.8974 25.4196 30.7711 25.4796 30.7263 25.5945C30.6815 25.7093 30.735 25.8356 30.8459 25.8764Z" fill="#2E50A6"/>
<path d="M22.825 22.5862C22.9359 22.627 23.0621 22.567 23.1069 22.4522C23.1518 22.3373 23.0982 22.2111 22.9874 22.1702C22.8765 22.1294 22.7503 22.1894 22.7054 22.3042C22.6606 22.4191 22.7141 22.5453 22.825 22.5862Z" fill="#2E50A6"/>
<path d="M25.2427 27.9949C25.2006 28.1105 25.2571 28.2352 25.3689 28.2735C25.4806 28.3117 25.6053 28.2491 25.6474 28.1335C25.6895 28.0179 25.633 27.8932 25.5212 27.855C25.4095 27.8167 25.2848 27.8794 25.2427 27.9949Z" fill="#2E50A6"/>
<path d="M28.3043 19.8841C28.2622 19.9996 28.3187 20.1243 28.4304 20.1626C28.5422 20.2008 28.6669 20.1382 28.709 20.0226C28.751 19.907 28.6946 19.7824 28.5828 19.7441C28.4711 19.7058 28.3464 19.7685 28.3043 19.8841Z" fill="#2E50A6"/>
<path d="M28.2232 28.1219C28.2595 28.2421 28.3834 28.3131 28.4999 28.2804C28.6165 28.2477 28.6815 28.1238 28.6452 28.0036C28.6089 27.8834 28.485 27.8124 28.3684 27.8451C28.2519 27.8777 28.1868 28.0017 28.2232 28.1219Z" fill="#2E50A6"/>
<path d="M25.2165 19.9905C25.2528 20.1107 25.3767 20.1817 25.4933 20.149C25.6098 20.1164 25.6749 19.9924 25.6386 19.8722C25.6023 19.752 25.4783 19.681 25.3618 19.7137C25.2452 19.7463 25.1802 19.8703 25.2165 19.9905Z" fill="#2E50A6"/>
<path d="M22.9093 25.4254C22.7941 25.4616 22.7329 25.5872 22.7725 25.7058C22.8121 25.8244 22.9376 25.8912 23.0528 25.855C23.168 25.8188 23.2293 25.6933 23.1897 25.5747C23.15 25.4561 23.0245 25.3892 22.9093 25.4254Z" fill="#2E50A6"/>
<path d="M30.9523 22.1895C30.8371 22.2257 30.7758 22.3513 30.8154 22.4699C30.855 22.5885 30.9805 22.6553 31.0957 22.6191C31.2109 22.5829 31.2722 22.4574 31.2326 22.3388C31.193 22.2202 31.0674 22.1533 30.9523 22.1895Z" fill="#2E50A6"/>
<path d="M27 28.375L27.15 25.75L27 24.5L26.85 25.75L27 28.375Z" fill="#2E50A6"/>
<path d="M27 19.625L26.85 22.25L27 23.5L27.15 22.25L27 19.625Z" fill="#2E50A6"/>
<path d="M22.625 24.0001L25.25 24.1501L26.5 24.0001L25.25 23.8501L22.625 24.0001Z" fill="#2E50A6"/>
<path d="M31.375 24.0001L28.75 23.8501L27.5 24.0001L28.75 24.1501L31.375 24.0001Z" fill="#2E50A6"/>
<path d="M23.9064 27.0936L25.8687 25.3435L26.6465 24.3535L25.6565 25.1314L23.9064 27.0936Z" fill="#2E50A6"/>
<path d="M30.0936 20.9064L28.1314 22.6565L27.3536 23.6465L28.3435 22.8686L30.0936 20.9064Z" fill="#2E50A6"/>
<path d="M23.9064 20.9064L25.6565 22.8686L26.6464 23.6464L25.8686 22.6565L23.9064 20.9064Z" fill="#2E50A6"/>
<path d="M30.0936 27.0936L28.3435 25.1314L27.3536 24.3536L28.1314 25.3435L30.0936 27.0936Z" fill="#2E50A6"/>
<path d="M25.8925 28.2382L26.708 25.7127L26.8456 24.4708L26.3684 25.6594L25.8925 28.2382Z" fill="#2E50A6"/>
<path d="M28.1074 19.7619L27.292 22.2874L27.1543 23.5293L27.6316 22.3406L28.1074 19.7619Z" fill="#2E50A6"/>
<path d="M22.7681 22.9059L25.2789 23.7167L26.523 23.8324L25.3446 23.3504L22.7681 22.9059Z" fill="#2E50A6"/>
<path d="M31.2319 25.0941L28.7211 24.2834L27.477 24.1677L28.6554 24.6497L31.2319 25.0941Z" fill="#2E50A6"/>
<path d="M23.2034 26.164L25.5545 25.0368L26.5748 24.2735L25.42 24.7299L23.2034 26.164Z" fill="#2E50A6"/>
<path d="M30.7967 21.8361L28.4456 22.9632L27.4253 23.7265L28.58 23.2701L30.7967 21.8361Z" fill="#2E50A6"/>
<path d="M24.8269 20.1972L25.9755 22.5505L26.7355 23.5809L26.2642 22.4283L24.8269 20.1972Z" fill="#2E50A6"/>
<path d="M29.173 27.8028L28.0244 25.4495L27.2644 24.4191L27.7357 25.5717L29.173 27.8028Z" fill="#2E50A6"/>
<path d="M24.8269 27.8028L26.2642 25.5717L26.7355 24.4191L25.9755 25.4496L24.8269 27.8028Z" fill="#2E50A6"/>
<path d="M29.1731 20.1973L27.7358 22.4284L27.2645 23.5809L28.0245 22.5505L29.1731 20.1973Z" fill="#2E50A6"/>
<path d="M23.2033 21.836L25.42 23.2701L26.5747 23.7265L25.5544 22.9632L23.2033 21.836Z" fill="#2E50A6"/>
<path d="M30.7967 26.164L28.58 24.7299L27.4253 24.2735L28.4456 25.0368L30.7967 26.164Z" fill="#2E50A6"/>
<path d="M22.7681 25.0941L25.3446 24.6496L26.523 24.1677L25.2789 24.2834L22.7681 25.0941Z" fill="#2E50A6"/>
<path d="M31.2319 22.9059L28.6554 23.3504L27.477 23.8324L28.7211 23.7166L31.2319 22.9059Z" fill="#2E50A6"/>
<path d="M25.8926 19.762L26.3685 22.3407L26.8457 23.5293L26.708 22.2874L25.8926 19.762Z" fill="#2E50A6"/>
<path d="M28.1074 28.2382L27.6315 25.6595L27.1543 24.4708L27.292 25.7127L28.1074 28.2382Z" fill="#2E50A6"/>
<rect x="3" y="6" width="48" height="12" fill="#FFA654"/>
</g>
</svg>
