<svg width="54" height="54" viewBox="0 0 54 54" fill="none" xmlns="http://www.w3.org/2000/svg">
<mask id="mask0_1_41232" style="mask-type:alpha" maskUnits="userSpaceOnUse" x="3" y="9" width="48" height="36">
<path d="M3.56934 18.1356C4.16681 13.4125 8.0415 10.0019 12.7861 9.60887C16.6412 9.28949 21.6196 9 27 9C32.3804 9 37.3588 9.28949 41.2139 9.60887C45.9585 10.0019 49.8332 13.4125 50.4307 18.1356C50.752 20.6759 51 23.704 51 27C51 30.296 50.752 33.3241 50.4307 35.8644C49.8332 40.5875 45.9585 43.9981 41.2139 44.3911C37.3588 44.7105 32.3804 45 27 45C21.6196 45 16.6412 44.7105 12.7861 44.3911C8.04151 43.9981 4.16681 40.5875 3.56934 35.8644C3.248 33.3241 3 30.296 3 27C3 23.704 3.248 20.6759 3.56934 18.1356Z" fill="#00D0BF"/>
</mask>
<g mask="url(#mask0_1_41232)">
<rect x="3" y="33" width="48" height="12" fill="#59C785"/>
<rect x="3" y="21" width="48" height="12" fill="#F5F5F5"/>
<path d="M27 32C29.7614 32 32 29.7614 32 27C32 24.2386 29.7614 22 27 22C24.2386 22 22 24.2386 22 27C22 29.7614 24.2386 32 27 32Z" fill="#2E50A6"/>
<path d="M27 31.375C29.4162 31.375 31.375 29.4162 31.375 27C31.375 24.5838 29.4162 22.625 27 22.625C24.5838 22.625 22.625 24.5838 22.625 27C22.625 29.4162 24.5838 31.375 27 31.375Z" fill="white"/>
<path d="M27 27.875C27.4832 27.875 27.875 27.4832 27.875 27C27.875 26.5168 27.4832 26.125 27 26.125C26.5168 26.125 26.125 26.5168 26.125 27C26.125 27.4832 26.5168 27.875 27 27.875Z" fill="#2E50A6"/>
<path d="M31.309 27.788C31.4288 27.8038 31.5387 27.7194 31.5544 27.5997C31.5702 27.4799 31.4859 27.37 31.3661 27.3542C31.2463 27.3385 31.1364 27.4228 31.1207 27.5426C31.1049 27.6623 31.1892 27.7722 31.309 27.788Z" fill="#2E50A6"/>
<path d="M22.5919 26.6707C22.7117 26.6865 22.8216 26.6022 22.8373 26.4824C22.8531 26.3626 22.7688 26.2527 22.649 26.2369C22.5292 26.2212 22.4193 26.3055 22.4036 26.4253C22.3878 26.545 22.4721 26.6549 22.5919 26.6707Z" fill="#2E50A6"/>
<path d="M26.335 31.4207C26.3227 31.5408 26.4104 31.6481 26.5309 31.6604C26.6514 31.6728 26.759 31.5855 26.7713 31.4655C26.7836 31.3454 26.6959 31.2381 26.5754 31.2257C26.4549 31.2134 26.3473 31.3007 26.335 31.4207Z" fill="#2E50A6"/>
<path d="M27.2048 22.6754C27.1925 22.7954 27.2802 22.9028 27.4007 22.9151C27.5212 22.9275 27.6288 22.8402 27.6411 22.7202C27.6534 22.6001 27.5657 22.4928 27.4452 22.4804C27.3247 22.4681 27.2171 22.5554 27.2048 22.6754Z" fill="#2E50A6"/>
<path d="M29.3386 30.746C29.4067 30.8459 29.5432 30.8715 29.6433 30.8031C29.7435 30.7346 29.7694 30.5982 29.7012 30.4983C29.6331 30.3984 29.4966 30.3729 29.3965 30.4413C29.2963 30.5097 29.2704 30.6461 29.3386 30.746Z" fill="#2E50A6"/>
<path d="M24.261 23.5727C24.3292 23.6726 24.4656 23.6982 24.5658 23.6298C24.6659 23.5614 24.6919 23.4249 24.6237 23.325C24.5556 23.2251 24.4191 23.1996 24.319 23.268C24.2188 23.3364 24.1929 23.4728 24.261 23.5727Z" fill="#2E50A6"/>
<path d="M23.3222 29.537C23.2249 29.6089 23.2043 29.7459 23.2761 29.8431C23.3479 29.9403 23.485 29.9608 23.5823 29.8889C23.6795 29.817 23.7001 29.6799 23.6283 29.5828C23.5565 29.4856 23.4195 29.4651 23.3222 29.537Z" fill="#2E50A6"/>
<path d="M30.3487 24.2582C30.2514 24.3301 30.2308 24.4672 30.3026 24.5643C30.3744 24.6615 30.5115 24.682 30.6088 24.6101C30.706 24.5382 30.7266 24.4012 30.6548 24.304C30.583 24.2068 30.4459 24.1863 30.3487 24.2582Z" fill="#2E50A6"/>
<path d="M30.3701 29.8513C30.4721 29.9198 30.6093 29.8936 30.6766 29.7929C30.7439 29.6921 30.7158 29.5549 30.6139 29.4864C30.5119 29.4179 30.3747 29.4441 30.3074 29.5448C30.2401 29.6456 30.2682 29.7828 30.3701 29.8513Z" fill="#2E50A6"/>
<path d="M23.3483 24.5664C23.4502 24.6349 23.5875 24.6087 23.6548 24.5079C23.7221 24.4072 23.694 24.2699 23.592 24.2015C23.4901 24.133 23.3528 24.1591 23.2855 24.2599C23.2182 24.3607 23.2463 24.4979 23.3483 24.5664Z" fill="#2E50A6"/>
<path d="M24.2442 30.5388C24.1798 30.6417 24.212 30.7783 24.3161 30.844C24.4202 30.9096 24.5568 30.8794 24.6212 30.7766C24.6856 30.6737 24.6534 30.5371 24.5493 30.4714C24.4452 30.4058 24.3086 30.4359 24.2442 30.5388Z" fill="#2E50A6"/>
<path d="M29.328 23.37C29.2636 23.4729 29.2958 23.6095 29.3999 23.6751C29.504 23.7408 29.6406 23.7106 29.705 23.6077C29.7694 23.5049 29.7372 23.3682 29.6331 23.3026C29.529 23.2369 29.3924 23.2671 29.328 23.37Z" fill="#2E50A6"/>
<path d="M27.1772 31.4341C27.184 31.5578 27.2908 31.6515 27.4157 31.6435C27.5406 31.6354 27.6363 31.5287 27.6295 31.405C27.6227 31.2813 27.5159 31.1876 27.391 31.1957C27.2661 31.2037 27.1704 31.3105 27.1772 31.4341Z" fill="#2E50A6"/>
<path d="M26.3151 22.6881C26.3219 22.8117 26.4287 22.9054 26.5536 22.8974C26.6785 22.8894 26.7742 22.7826 26.7674 22.6589C26.7605 22.5353 26.6538 22.4415 26.5289 22.4496C26.404 22.4576 26.3083 22.5644 26.3151 22.6881Z" fill="#2E50A6"/>
<path d="M22.5781 27.3955C22.4528 27.4064 22.3589 27.5156 22.3683 27.6395C22.3777 27.7634 22.4869 27.855 22.6123 27.8441C22.7376 27.8332 22.8315 27.724 22.8221 27.6001C22.8127 27.4763 22.7035 27.3846 22.5781 27.3955Z" fill="#2E50A6"/>
<path d="M31.2963 26.2859C31.171 26.2967 31.077 26.406 31.0864 26.5298C31.0958 26.6537 31.2051 26.7453 31.3304 26.7345C31.4557 26.7236 31.5497 26.6144 31.5403 26.4905C31.5308 26.3666 31.4216 26.275 31.2963 26.2859Z" fill="#2E50A6"/>
<path d="M30.8506 28.8724C30.9641 28.9155 31.0904 28.859 31.1326 28.7464C31.1748 28.6337 31.1171 28.5075 31.0036 28.4644C30.8901 28.4214 30.7639 28.4778 30.7217 28.5905C30.6794 28.7032 30.7372 28.8294 30.8506 28.8724Z" fill="#2E50A6"/>
<path d="M22.8298 25.5822C22.9432 25.6253 23.0695 25.5688 23.1117 25.4561C23.154 25.3435 23.0962 25.2172 22.9827 25.1742C22.8693 25.1312 22.743 25.1876 22.7008 25.3003C22.6586 25.4129 22.7163 25.5392 22.8298 25.5822Z" fill="#2E50A6"/>
<path d="M25.2383 30.9912C25.1987 31.1047 25.2591 31.2294 25.3733 31.2697C25.4874 31.3101 25.6121 31.2507 25.6518 31.1372C25.6914 31.0237 25.631 30.899 25.5168 30.8587C25.4027 30.8184 25.278 30.8777 25.2383 30.9912Z" fill="#2E50A6"/>
<path d="M28.2999 22.8803C28.2603 22.9938 28.3207 23.1185 28.4348 23.1589C28.549 23.1992 28.6737 23.1399 28.7134 23.0264C28.753 22.9129 28.6926 22.7882 28.5784 22.7478C28.4643 22.7075 28.3396 22.7668 28.2999 22.8803Z" fill="#2E50A6"/>
<path d="M28.2176 31.1263C28.2509 31.2441 28.3748 31.3111 28.4944 31.276C28.6141 31.2409 28.6841 31.1169 28.6508 30.9992C28.6176 30.8814 28.4937 30.8144 28.374 30.8495C28.2544 30.8846 28.1844 31.0085 28.2176 31.1263Z" fill="#2E50A6"/>
<path d="M25.211 22.9949C25.2442 23.1127 25.3682 23.1797 25.4878 23.1446C25.6074 23.1095 25.6774 22.9856 25.6442 22.8678C25.6109 22.75 25.487 22.683 25.3674 22.7181C25.2478 22.7532 25.1777 22.8771 25.211 22.9949Z" fill="#2E50A6"/>
<path d="M22.9145 28.4296C22.7965 28.4681 22.7306 28.5936 22.7673 28.7099C22.8041 28.8263 22.9296 28.8894 23.0476 28.8509C23.1657 28.8124 23.2316 28.6869 23.1949 28.5706C23.1581 28.4542 23.0326 28.3911 22.9145 28.4296Z" fill="#2E50A6"/>
<path d="M30.9574 25.1937C30.8394 25.2322 30.7735 25.3577 30.8102 25.474C30.847 25.5904 30.9725 25.6535 31.0905 25.615C31.2086 25.5765 31.2745 25.451 31.2378 25.3347C31.201 25.2183 31.0755 25.1552 30.9574 25.1937Z" fill="#2E50A6"/>
<path d="M30.8506 28.8724C30.9641 28.9155 31.0904 28.859 31.1326 28.7464C31.1748 28.6337 31.1171 28.5075 31.0036 28.4644C30.8901 28.4214 30.7639 28.4778 30.7217 28.5905C30.6794 28.7032 30.7372 28.8294 30.8506 28.8724Z" fill="#2E50A6"/>
<path d="M22.8298 25.5822C22.9432 25.6253 23.0695 25.5688 23.1117 25.4561C23.154 25.3435 23.0962 25.2172 22.9827 25.1742C22.8693 25.1312 22.743 25.1876 22.7008 25.3003C22.6586 25.4129 22.7163 25.5392 22.8298 25.5822Z" fill="#2E50A6"/>
<path d="M25.2383 30.9912C25.1987 31.1047 25.2591 31.2294 25.3733 31.2697C25.4874 31.3101 25.6121 31.2507 25.6518 31.1372C25.6914 31.0237 25.631 30.899 25.5168 30.8587C25.4027 30.8184 25.278 30.8777 25.2383 30.9912Z" fill="#2E50A6"/>
<path d="M28.2999 22.8803C28.2603 22.9938 28.3207 23.1185 28.4348 23.1589C28.549 23.1992 28.6737 23.1399 28.7134 23.0264C28.753 22.9129 28.6926 22.7882 28.5784 22.7478C28.4643 22.7075 28.3396 22.7668 28.2999 22.8803Z" fill="#2E50A6"/>
<path d="M28.2176 31.1263C28.2509 31.2441 28.3748 31.3111 28.4944 31.276C28.6141 31.2409 28.6841 31.1169 28.6508 30.9992C28.6176 30.8814 28.4937 30.8144 28.374 30.8495C28.2544 30.8846 28.1844 31.0085 28.2176 31.1263Z" fill="#2E50A6"/>
<path d="M25.211 22.9949C25.2442 23.1127 25.3682 23.1797 25.4878 23.1446C25.6074 23.1095 25.6774 22.9856 25.6442 22.8678C25.6109 22.75 25.487 22.683 25.3674 22.7181C25.2478 22.7532 25.1777 22.8771 25.211 22.9949Z" fill="#2E50A6"/>
<path d="M22.9145 28.4296C22.7965 28.4681 22.7306 28.5936 22.7673 28.7099C22.8041 28.8263 22.9296 28.8894 23.0476 28.8509C23.1657 28.8124 23.2316 28.6869 23.1949 28.5706C23.1581 28.4542 23.0326 28.3911 22.9145 28.4296Z" fill="#2E50A6"/>
<path d="M30.9574 25.1937C30.8394 25.2322 30.7735 25.3577 30.8102 25.474C30.847 25.5904 30.9725 25.6535 31.0905 25.615C31.2086 25.5765 31.2745 25.451 31.2378 25.3347C31.201 25.2183 31.0755 25.1552 30.9574 25.1937Z" fill="#2E50A6"/>
<path d="M27 31.375L27.15 28.75L27 27.5L26.85 28.75L27 31.375Z" fill="#2E50A6"/>
<path d="M27 22.625L26.85 25.25L27 26.5L27.15 25.25L27 22.625Z" fill="#2E50A6"/>
<path d="M22.625 27.0001L25.25 27.1501L26.5 27.0001L25.25 26.8501L22.625 27.0001Z" fill="#2E50A6"/>
<path d="M31.375 27.0001L28.75 26.8501L27.5 27.0001L28.75 27.1501L31.375 27.0001Z" fill="#2E50A6"/>
<path d="M23.9064 30.0936L25.8687 28.3435L26.6465 27.3536L25.6565 28.1314L23.9064 30.0936Z" fill="#2E50A6"/>
<path d="M30.0936 23.9064L28.1314 25.6565L27.3536 26.6465L28.3435 25.8686L30.0936 23.9064Z" fill="#2E50A6"/>
<path d="M23.9064 23.9064L25.6565 25.8686L26.6464 26.6465L25.8686 25.6565L23.9064 23.9064Z" fill="#2E50A6"/>
<path d="M30.0936 30.0936L28.3435 28.1314L27.3536 27.3536L28.1314 28.3435L30.0936 30.0936Z" fill="#2E50A6"/>
<path d="M25.9078 31.234L26.7179 28.7184L26.8303 27.475L26.3476 28.6568L25.9078 31.234Z" fill="#2E50A6"/>
<path d="M28.0921 22.7661L27.2821 25.2818L27.1696 26.5251L27.6523 25.3433L28.0921 22.7661Z" fill="#2E50A6"/>
<path d="M22.7629 25.8937L25.2859 26.7087L26.5282 26.8447L25.3413 26.3671L22.7629 25.8937Z" fill="#2E50A6"/>
<path d="M31.2371 28.1065L28.7141 27.2914L27.4718 27.1554L28.6587 27.633L31.2371 28.1065Z" fill="#2E50A6"/>
<path d="M23.1982 29.1705L25.5511 28.028L26.5799 27.267L25.4269 27.7341L23.1982 29.1705Z" fill="#2E50A6"/>
<path d="M30.8018 24.8295L28.4489 25.972L27.4201 26.733L28.5731 26.2659L30.8018 24.8295Z" fill="#2E50A6"/>
<path d="M24.835 23.2012L25.9645 25.5531L26.7274 26.5769L26.2694 25.4229L24.835 23.2012Z" fill="#2E50A6"/>
<path d="M29.165 30.7988L28.0355 28.447L27.2726 27.4231L27.7306 28.5771L29.165 30.7988Z" fill="#2E50A6"/>
<path d="M24.835 30.7988L26.2694 28.5772L26.7275 27.4231L25.9646 28.447L24.835 30.7988Z" fill="#2E50A6"/>
<path d="M29.1649 23.2013L27.7305 25.423L27.2725 26.577L28.0354 25.5531L29.1649 23.2013Z" fill="#2E50A6"/>
<path d="M23.1982 24.8296L25.4269 26.2659L26.5799 26.733L25.5511 25.972L23.1982 24.8296Z" fill="#2E50A6"/>
<path d="M30.8018 29.1705L28.5731 27.7341L27.4201 27.2671L28.4489 28.028L30.8018 29.1705Z" fill="#2E50A6"/>
<path d="M22.7629 28.1064L25.3413 27.633L26.5282 27.1554L25.2859 27.2913L22.7629 28.1064Z" fill="#2E50A6"/>
<path d="M31.2371 25.8936L28.6587 26.3671L27.4718 26.8447L28.7141 26.7087L31.2371 25.8936Z" fill="#2E50A6"/>
<path d="M25.9079 22.7661L26.3477 25.3433L26.8304 26.5251L26.7179 25.2818L25.9079 22.7661Z" fill="#2E50A6"/>
<path d="M28.0921 31.234L27.6524 28.6568L27.1697 27.475L27.2821 28.7184L28.0921 31.234Z" fill="#2E50A6"/>
<rect x="3" y="9" width="48" height="12" fill="#FFA654"/>
</g>
</svg>
