<svg width="54" height="48" viewBox="0 0 54 48" fill="none" xmlns="http://www.w3.org/2000/svg">
<mask id="mask0_1_40176" style="mask-type:alpha" maskUnits="userSpaceOnUse" x="3" y="6" width="48" height="36">
<path d="M3.56934 15.1356C4.16681 10.4125 8.0415 7.00193 12.7861 6.60887C16.6412 6.28949 21.6196 6 27 6C32.3804 6 37.3588 6.28949 41.2139 6.60887C45.9585 7.00193 49.8332 10.4125 50.4307 15.1356C50.752 17.6759 51 20.704 51 24C51 27.296 50.752 30.3241 50.4307 32.8644C49.8332 37.5875 45.9585 40.9981 41.2139 41.3911C37.3588 41.7105 32.3804 42 27 42C21.6196 42 16.6412 41.7105 12.7861 41.3911C8.0415 40.9981 4.16681 37.5875 3.56934 32.8644C3.248 30.3241 3 27.296 3 24C3 20.704 3.248 17.6759 3.56934 15.1356Z" fill="#00D0BF"/>
</mask>
<g mask="url(#mask0_1_40176)">
<rect x="3" y="6" width="48" height="36" fill="#F5F5F5"/>
<path d="M53 38.555C52.4173 38.9056 51.9168 39.7248 50.3688 39.7248C47.2738 39.7248 46.4999 38 44.1785 38C42.6309 38 41.8571 39.7248 40.3096 39.7248C37.2143 39.7248 36.4405 38 34.1191 38C32.5715 38 31.7976 39.7248 30.25 39.7248C27.1548 39.7248 26.3809 38 24.0596 38C22.5119 38 21.7381 39.7248 20.1905 39.7248C17.0953 39.7248 16.3215 38 14 38C12.4523 38 11.6785 39.7248 10.1309 39.7248C7.03573 39.7248 6.26188 38 3.94051 38C2.39282 38 1.92855 39.2291 1 39.2291V41.4496C1.92855 41.4496 2.39282 40.2206 3.94051 40.2206C6.26188 40.2206 7.03573 41.9453 10.1309 41.9453C11.6785 41.9453 12.4523 40.2206 14 40.2206C16.3214 40.2206 17.0953 41.9453 20.1905 41.9453C21.7381 41.9453 22.5119 40.2206 24.0596 40.2206C26.3809 40.2206 27.1548 41.9453 30.25 41.9453C31.7976 41.9453 32.5715 40.2206 34.1191 40.2206C36.4405 40.2206 37.2143 41.9453 40.3096 41.9453C41.8571 41.9453 42.6309 40.2206 44.1785 40.2206C46.4999 40.2206 47.2738 41.9453 50.3688 41.9453C51.9168 41.9453 52.4173 41.4565 53 41.106V38.555Z" fill="#2E50A6"/>
<path d="M53 32.555C52.4173 32.9056 51.9168 33.7248 50.3688 33.7248C47.2738 33.7248 46.4999 32 44.1785 32C42.6309 32 41.8571 33.7248 40.3096 33.7248C37.2143 33.7248 36.4405 32 34.1191 32C32.5715 32 31.7976 33.7248 30.25 33.7248C27.1548 33.7248 26.3809 32 24.0596 32C22.5119 32 21.7381 33.7248 20.1905 33.7248C17.0953 33.7248 16.3215 32 14 32C12.4523 32 11.6785 33.7248 10.1309 33.7248C7.03573 33.7248 6.26188 32 3.94051 32C2.39282 32 1.92855 33.2291 1 33.2291V35.4496C1.92855 35.4496 2.39282 34.2206 3.94051 34.2206C6.26188 34.2206 7.03573 35.9453 10.1309 35.9453C11.6785 35.9453 12.4523 34.2206 14 34.2206C16.3214 34.2206 17.0953 35.9453 20.1905 35.9453C21.7381 35.9453 22.5119 34.2206 24.0596 34.2206C26.3809 34.2206 27.1548 35.9453 30.25 35.9453C31.7976 35.9453 32.5715 34.2206 34.1191 34.2206C36.4405 34.2206 37.2143 35.9453 40.3096 35.9453C41.8571 35.9453 42.6309 34.2206 44.1785 34.2206C46.4999 34.2206 47.2738 35.9453 50.3688 35.9453C51.9168 35.9453 52.4173 35.4565 53 35.106V32.555Z" fill="#2E50A6"/>
<path d="M53 26.555C52.4173 26.9056 51.9168 27.7248 50.3688 27.7248C47.2738 27.7248 46.4999 26 44.1785 26C42.6309 26 41.8571 27.7248 40.3096 27.7248C37.2143 27.7248 36.4405 26 34.1191 26C32.5715 26 31.7976 27.7248 30.25 27.7248C27.1548 27.7248 26.3809 26 24.0596 26C22.5119 26 21.7381 27.7248 20.1905 27.7248C17.0953 27.7248 16.3215 26 14 26C12.4523 26 11.6785 27.7248 10.1309 27.7248C7.03573 27.7248 6.26188 26 3.94051 26C2.39282 26 1.92855 27.2291 1 27.2291V29.4496C1.92855 29.4496 2.39282 28.2206 3.94051 28.2206C6.26188 28.2206 7.03573 29.9453 10.1309 29.9453C11.6785 29.9453 12.4523 28.2206 14 28.2206C16.3214 28.2206 17.0953 29.9453 20.1905 29.9453C21.7381 29.9453 22.5119 28.2206 24.0596 28.2206C26.3809 28.2206 27.1548 29.9453 30.25 29.9453C31.7976 29.9453 32.5715 28.2206 34.1191 28.2206C36.4405 28.2206 37.2143 29.9453 40.3096 29.9453C41.8571 29.9453 42.6309 28.2206 44.1785 28.2206C46.4999 28.2206 47.2738 29.9453 50.3688 29.9453C51.9168 29.9453 52.4173 29.4565 53 29.106V26.555Z" fill="#2E50A6"/>
<path d="M53 20.555C52.4173 20.9056 51.9168 21.7248 50.3688 21.7248C47.2738 21.7248 46.4999 20 44.1785 20C42.6309 20 41.8571 21.7248 40.3096 21.7248C37.2143 21.7248 36.4405 20 34.1191 20C32.5715 20 31.7976 21.7248 30.25 21.7248C27.1548 21.7248 26.3809 20 24.0596 20C22.5119 20 21.7381 21.7248 20.1905 21.7248C17.0953 21.7248 16.3215 20 14 20C12.4523 20 11.6785 21.7248 10.1309 21.7248C7.03573 21.7248 6.26188 20 3.94051 20C2.39282 20 1.92855 21.2291 1 21.2291V23.4496C1.92855 23.4496 2.39282 22.2206 3.94051 22.2206C6.26188 22.2206 7.03573 23.9453 10.1309 23.9453C11.6785 23.9453 12.4523 22.2206 14 22.2206C16.3214 22.2206 17.0953 23.9453 20.1905 23.9453C21.7381 23.9453 22.5119 22.2206 24.0596 22.2206C26.3809 22.2206 27.1548 23.9453 30.25 23.9453C31.7976 23.9453 32.5715 22.2206 34.1191 22.2206C36.4405 22.2206 37.2143 23.9453 40.3096 23.9453C41.8571 23.9453 42.6309 22.2206 44.1785 22.2206C46.4999 22.2206 47.2738 23.9453 50.3688 23.9453C51.9168 23.9453 52.4173 23.4565 53 23.106V20.555Z" fill="#2E50A6"/>
<path d="M53 14.555C52.4173 14.9056 51.9168 15.7248 50.3688 15.7248C47.2738 15.7248 46.4999 14 44.1785 14C42.6309 14 41.8571 15.7248 40.3096 15.7248C37.2143 15.7248 36.4405 14 34.1191 14C32.5715 14 31.7976 15.7248 30.25 15.7248C27.1548 15.7248 26.3809 14 24.0596 14C22.5119 14 21.7381 15.7248 20.1905 15.7248C17.0953 15.7248 16.3215 14 14 14C12.4523 14 11.6785 15.7248 10.1309 15.7248C7.03573 15.7248 6.26188 14 3.94051 14C2.39282 14 1.92855 15.2291 1 15.2291V17.4496C1.92855 17.4496 2.39282 16.2206 3.94051 16.2206C6.26188 16.2206 7.03573 17.9453 10.1309 17.9453C11.6785 17.9453 12.4523 16.2206 14 16.2206C16.3214 16.2206 17.0953 17.9453 20.1905 17.9453C21.7381 17.9453 22.5119 16.2206 24.0596 16.2206C26.3809 16.2206 27.1548 17.9453 30.25 17.9453C31.7976 17.9453 32.5715 16.2206 34.1191 16.2206C36.4405 16.2206 37.2143 17.9453 40.3096 17.9453C41.8571 17.9453 42.6309 16.2206 44.1785 16.2206C46.4999 16.2206 47.2738 17.9453 50.3688 17.9453C51.9168 17.9453 52.4173 17.4565 53 17.106V14.555Z" fill="#2E50A6"/>
<path d="M53 8.55501C52.4173 8.90558 51.9168 9.72484 50.3688 9.72484C47.2738 9.72484 46.4999 8 44.1785 8C42.6309 8 41.8571 9.72484 40.3096 9.72484C37.2143 9.72484 36.4405 8 34.1191 8C32.5715 8 31.7976 9.72484 30.25 9.72484C27.1548 9.72484 26.3809 8 24.0596 8C22.5119 8 21.7381 9.72484 20.1905 9.72484C17.0953 9.72484 16.3215 8 14 8C12.4523 8 11.6785 9.72484 10.1309 9.72484C7.03573 9.72484 6.26188 8 3.94051 8C2.39282 8 1.92855 9.22911 1 9.22911V11.4496C1.92855 11.4496 2.39282 10.2206 3.94051 10.2206C6.26188 10.2206 7.03573 11.9453 10.1309 11.9453C11.6785 11.9453 12.4523 10.2206 14 10.2206C16.3214 10.2206 17.0953 11.9453 20.1905 11.9453C21.7381 11.9453 22.5119 10.2206 24.0596 10.2206C26.3809 10.2206 27.1548 11.9453 30.25 11.9453C31.7976 11.9453 32.5715 10.2206 34.1191 10.2206C36.4405 10.2206 37.2143 11.9453 40.3096 11.9453C41.8571 11.9453 42.6309 10.2206 44.1785 10.2206C46.4999 10.2206 47.2738 11.9453 50.3688 11.9453C51.9168 11.9453 52.4173 11.4565 53 11.106V8.55501Z" fill="#2E50A6"/>
<path d="M38.8431 16.8555L38.6288 37.2169C38.6288 38.2886 39.5978 38.2886 39.7005 37.2169L39.4861 16.8555H38.8431Z" fill="#A24300" stroke="white" stroke-width="0.129297"/>
<path d="M40.9428 24.4973L40.2726 23.7171L40.023 24.4431L39.8007 23.3526L39.452 23.8707L39.5033 22.729L39.1545 23.2472L39.2058 22.1055L38.8571 22.6236L38.8091 21.274L38.4604 21.7922L38.4125 20.4426L38.0638 20.9608L38.0159 19.6112L37.9919 18.9364L38.1662 18.6773L38.539 18.834L39.11 19.4063L40.252 20.551L39.5066 20.2378L40.6486 21.3824L39.9032 21.0692L41.0453 22.2139L40.2999 21.9006L41.3427 22.8374L40.5974 22.5242L41.6402 23.461L40.8949 23.1477L41.6642 24.1358L40.8197 23.6146L40.9428 24.4973Z" fill="#006D00" stroke="white" stroke-width="0.112423"/>
<path d="M41.0592 24.4221L38.0499 18.7525" stroke="black" stroke-width="0.0136271"/>
<path d="M40.1024 20.5995L38.5118 19.5113L38.083 21.0574" stroke="black" stroke-width="0.0136271"/>
<path d="M40.5322 21.4095L38.9417 20.3213L38.5129 21.8673" stroke="black" stroke-width="0.0136271"/>
<path d="M40.9622 22.2194L39.3716 21.1312L38.9428 22.6773" stroke="black" stroke-width="0.0136271"/>
<path d="M41.2845 22.8218L39.7973 21.9437L39.2734 23.2848" stroke="black" stroke-width="0.0136271"/>
<path d="M41.607 23.4293L40.1198 22.5511L39.5959 23.8922" stroke="black" stroke-width="0.0136271"/>
<path d="M41.685 24.0924L40.3371 22.9633L40.1579 24.4296" stroke="black" stroke-width="0.0136271"/>
<path d="M43.877 12.8141L42.761 13.5971L42.4912 12.8226L41.8952 13.9365L41.7196 13.4209L41.2545 14.5569L41.1249 14.0491L40.7907 15.2072L40.4842 14.6695L40.1723 16.0743L39.8659 15.5366L39.554 16.9415L39.2475 16.4038L38.9356 17.8086L38.7797 18.511L38.9329 18.7799L39.3953 18.6151L40.1669 18.0168L41.7101 16.8203L40.7853 17.1497L42.3284 15.9532L41.4036 16.2826L42.9468 15.0861L42.022 15.4155L43.5875 14.4656L42.4857 14.7651L44.1821 13.8375L43.1264 14.1447L44.3381 13.135L43.2587 13.6813L43.877 12.8141Z" fill="#006D00" stroke="white" stroke-width="0.129542"/>
<path d="M43.5255 13.2719L41.8681 14.6845L38.8275 18.7362" stroke="black" stroke-width="0.015702"/>
<path d="M41.2457 16.9525L39.512 17.8943L39.2671 16.571" stroke="black" stroke-width="0.015702"/>
<path d="M41.9249 16.1095L40.1639 17.0465L39.9191 15.7224" stroke="black" stroke-width="0.015702"/>
<path d="M42.5636 15.2584L40.816 16.1975L40.585 14.8769" stroke="black" stroke-width="0.015702"/>
<path d="M43.0932 14.6375L41.4609 15.3483L41.1907 14.2655" stroke="black" stroke-width="0.015702"/>
<path d="M43.7037 14.0297L41.9465 14.7161L41.8029 13.658" stroke="black" stroke-width="0.015702"/>
<path d="M43.9459 13.4673L42.3212 14.395L42.5507 13.0847" stroke="black" stroke-width="0.015702"/>
<path d="M31.6653 19.8892L33.1103 18.7756L32.3852 18.406L33.6528 18.5895L33.2167 17.9973L34.4489 18.4402L34.0127 17.848L35.2449 18.2909L34.8088 17.6986L36.2945 18.1783L35.8584 17.586L37.3086 18.3251L36.8725 17.7328L38.3582 18.2124L39.0833 18.582L39.3014 18.8781L39.0124 19.1008L38.2163 19.2501L36.9323 19.858L37.1668 19.3628L35.5747 19.6614L36.1527 19.216L34.5251 19.774L35.1031 19.3286L33.729 19.9234L34.3425 19.2185L32.933 20.0727L33.5464 19.3678L32.3905 20.2587L33.0394 19.2944L31.6653 19.8892Z" fill="#006D00" stroke="white" stroke-width="0.117138"/>
<path d="M32.1235 19.6149L33.6152 18.8432L34.4107 18.6854L35.0753 18.6454L36.2212 18.6758L37.2541 18.6826L39.3003 18.8517" stroke="black" stroke-width="0.0141986"/>
<path d="M37.1297 19.6787L38.2718 18.9262L37.109 18.0328" stroke="black" stroke-width="0.0141986"/>
<path d="M35.8466 19.5817L37.256 18.7685L36.0929 17.8763" stroke="black" stroke-width="0.0141986"/>
<path d="M34.933 19.5573L36.2236 18.7227L35.051 17.8973" stroke="black" stroke-width="0.0141986"/>
<path d="M33.2218 19.7615L34.4146 18.6621L33.4532 18.1578" stroke="black" stroke-width="0.0141986"/>
<path d="M32.692 19.8248L33.6186 18.7789L32.8793 18.5253" stroke="black" stroke-width="0.0141986"/>
<path d="M34.0178 19.6478L35.1954 18.6534L34.2504 18.0354" stroke="black" stroke-width="0.0141986"/>
<path d="M46.3654 18.401L45.0608 18.0826L45.5197 17.3635L44.2641 17.657L44.572 17.1813L43.3778 17.5881L43.7074 17.1523L42.5746 17.6723L42.8211 17.0834L41.5036 17.7846L41.7501 17.1957L40.4327 17.8969L40.6792 17.308L39.3617 18.0092L38.703 18.3598L38.5797 18.6543L38.9919 18.8927L39.9397 19.0748L41.8351 19.4392L41.0106 18.9625L42.906 19.3269L42.0816 18.8502L43.977 19.2146L43.1525 18.7379L44.8632 19.2835L43.9557 18.6537L45.7279 19.3126L44.842 18.7226L46.3866 18.9619L45.2944 18.5134L46.3654 18.401Z" fill="#006D00" stroke="white" stroke-width="0.129542"/>
<path d="M45.7559 18.3517L43.6623 18.0729L38.6095 18.6612" stroke="black" stroke-width="0.015702"/>
<path d="M41.5108 19.3135L39.6545 18.5988L40.5098 17.6017" stroke="black" stroke-width="0.015702"/>
<path d="M42.5867 19.1986L40.716 18.46L41.5714 17.4632" stroke="black" stroke-width="0.015702"/>
<path d="M43.6408 19.0484L41.7775 18.3216L42.6398 17.3366" stroke="black" stroke-width="0.015702"/>
<path d="M44.4586 18.9726L42.8418 18.1856L43.4893 17.3256" stroke="black" stroke-width="0.015702"/>
<path d="M45.3201 18.9749L43.6397 18.0798L44.3517 17.3293" stroke="black" stroke-width="0.015702"/>
<path d="M45.8913 18.7418L44.1255 18.113L45.2915 17.4598" stroke="black" stroke-width="0.015702"/>
<path d="M33.3753 13.5959L35.0864 14.1319L34.9272 13.3337L35.554 14.4655L35.737 13.7745L36.1469 15.0254L36.33 14.3344L36.7399 15.5853L36.9229 14.8943L37.4582 16.3715L37.6412 15.6805L37.9596 17.2769L38.1426 16.5859L38.6779 18.0632L38.8371 18.8614L38.7456 19.207L38.4033 19.0997L37.8104 18.5398L36.5775 17.8458L37.0921 17.7535L35.9062 16.6338L36.5907 16.8481L35.1879 15.8475L35.8724 16.0619L34.595 15.2876L35.4963 15.3828L34.002 14.7277L34.9034 14.8229L33.5345 14.3941L34.6527 14.3702L33.3753 13.5959Z" fill="#006D00" stroke="white" stroke-width="0.117138"/>
<path d="M33.8679 13.8088L35.3356 14.5949L35.9321 15.1518L36.363 15.667L37.033 16.6093L37.6521 17.4475L38.7643 19.1923" stroke="black" stroke-width="0.0141986"/>
<path d="M36.894 17.8285L38.1577 18.3138L38.1515 16.813" stroke="black" stroke-width="0.0141986"/>
<path d="M36.162 16.7632L37.632 17.4323L37.6259 15.9299" stroke="black" stroke-width="0.0141986"/>
<path d="M35.5945 16.0501L37.0102 16.6081L36.9461 15.1397" stroke="black" stroke-width="0.0141986"/>
<path d="M34.3473 14.8626L35.9082 15.1782L35.7255 14.0742" stroke="black" stroke-width="0.0141986"/>
<path d="M33.9556 14.5064L35.3163 14.634L35.0727 13.8658" stroke="black" stroke-width="0.0141986"/>
<path d="M34.9417 15.4039L36.4124 15.7711L36.3274 14.611" stroke="black" stroke-width="0.0141986"/>
<path d="M33.4616 22.1453L34.4435 21.9263L34.1393 22.6125L35.0131 21.9118L34.915 22.4957L35.6316 21.6052L35.5336 22.1892L36.2501 21.2986L36.1521 21.8826L37.0749 20.8898L36.9768 21.4738L37.8996 20.4811L37.8016 21.0651L38.7243 20.0723L39.1857 19.5759L39.2347 19.2839L38.8713 19.1963L38.0956 19.3131L36.5442 19.5467L37.2709 19.7219L35.7195 19.9554L36.4462 20.1307L34.8948 20.3642L35.6215 20.5394L34.2762 20.6708L35.0029 20.846L33.6577 20.9773L34.3844 21.1526L33.1963 21.4737L34.1292 21.5467L33.4616 22.1453Z" fill="#006D00" stroke="white" stroke-width="0.112423"/>
<path d="M33.4521 22.0977L39.2443 19.3316" stroke="black" stroke-width="0.013627"/>
<path d="M36.5565 19.556L38.4102 19.7051L37.808 21.1263" stroke="black" stroke-width="0.013627"/>
<path d="M35.729 19.9511L37.5827 20.1003L36.9805 21.5215" stroke="black" stroke-width="0.013627"/>
<path d="M34.9016 20.3463L36.7553 20.4954L36.1531 21.9166" stroke="black" stroke-width="0.013627"/>
<path d="M34.2809 20.6373L35.9284 20.8933L35.5313 22.213" stroke="black" stroke-width="0.013627"/>
<path d="M33.6604 20.9336L35.3078 21.1896L34.9108 22.5093" stroke="black" stroke-width="0.013627"/>
<path d="M33.1946 21.4332L34.8945 21.3865L34.1345 22.604" stroke="black" stroke-width="0.013627"/>
<path d="M37.7117 10.7748L38.1549 12.024L38.7166 11.4384L38.6252 12.7463L38.9962 12.3545L38.799 13.6209L39.1328 13.2145L38.8299 14.4393L39.3066 14.0891L38.8711 15.5306L39.3478 15.1804L38.9123 16.6218L39.389 16.2716L38.9535 17.7131L38.7357 18.4339L38.4974 18.609L38.2384 18.2385L37.9589 17.3223L37.3998 15.49L37.9177 16.2311L37.3586 14.3988L37.8765 15.1398L37.3174 13.3075L37.8353 14.0485L37.1436 12.4329L37.8044 13.2301L37.007 11.5729L37.6306 12.3555L37.2247 10.8522L37.7529 11.866L37.7117 10.7748Z" fill="#006D00" stroke="white" stroke-width="0.129542"/>
<path d="M37.8713 11.4014L38.2564 13.4526L38.429 18.5434" stroke="black" stroke-width="0.015702"/>
<path d="M37.4883 15.7501L38.4281 17.531L39.2597 16.4114" stroke="black" stroke-width="0.015702"/>
<path d="M37.4436 14.6691L38.4087 16.4608L39.2403 15.3399" stroke="black" stroke-width="0.015702"/>
<path d="M37.4371 13.6043L38.3894 15.3898L39.2085 14.2656" stroke="black" stroke-width="0.015702"/>
<path d="M37.3845 12.7853L38.366 14.3118L39.0999 13.4274" stroke="black" stroke-width="0.015702"/>
<path d="M37.2556 11.9335L38.3496 13.502L38.9694 12.575" stroke="black" stroke-width="0.015702"/>
<path d="M37.4106 11.3389L38.2426 13.0204L38.696 11.6834" stroke="black" stroke-width="0.015702"/>
<path d="M43.888 23.8867L43.2669 22.1717L44.073 22.2646L42.9101 21.7197L43.592 21.4697L42.3207 21.1588L43.0026 20.9087L41.7313 20.5978L42.4132 20.3478L40.9093 19.9279L41.5912 19.6778L39.979 19.492L40.6609 19.2419L39.157 18.822L38.3509 18.7291L38.0099 18.8541L38.1342 19.1971L38.7236 19.7581L39.4789 20.9663L39.5455 20.428L40.7243 21.5499L40.4759 20.8639L41.5463 22.2198L41.2979 21.5339L42.1357 22.7808L41.9956 21.8608L42.7251 23.3417L42.585 22.4218L43.0819 23.7937L43.0502 22.6397L43.888 23.8867Z" fill="#006D00" stroke="white" stroke-width="0.117138"/>
<path d="M43.6517 23.4151L42.7923 21.9574L42.2054 21.3865L41.6686 20.9844L40.6928 20.3721L39.8236 19.8033L38.0229 18.8034" stroke="black" stroke-width="0.0141986"/>
<path d="M39.4793 20.6106L38.9298 19.38L40.4295 19.2586" stroke="black" stroke-width="0.0141986"/>
<path d="M40.5816 21.2789L39.8377 19.8576L41.3391 19.7363" stroke="black" stroke-width="0.0141986"/>
<path d="M41.3238 21.8111L40.6938 20.4341L42.1641 20.3738" stroke="black" stroke-width="0.0141986"/>
<path d="M42.5759 22.9906L42.1799 21.4518L43.2924 21.5419" stroke="black" stroke-width="0.0141986"/>
<path d="M42.9526 23.3626L42.7545 22.0103L43.5347 22.1896" stroke="black" stroke-width="0.0141986"/>
<path d="M42.004 22.4255L41.561 20.9818L42.7245 20.9691" stroke="black" stroke-width="0.0141986"/>
<path d="M36.7315 31.1515L39.2283 30.7035L41.8291 31.1515L40.6223 31.6532L38.396 31.6891L36.7315 31.1515Z" fill="#9D9D9D" stroke="black" stroke-width="0.0255414"/>
<path d="M39.2473 27.1168C38.8109 27.2685 38.3274 26.9033 37.5405 27.4993C37.5405 27.4993 36.1685 26.9124 36.0643 28.2688C36.0601 28.3238 36.2815 28.6546 36.3123 28.6309C36.4847 28.4986 36.2304 28.7595 36.2304 28.7972C36.2304 28.8352 36.2557 28.8563 36.2643 28.873C36.2727 28.8899 36.2937 28.9152 36.298 28.9869C36.3021 29.0586 36.1424 29.2541 36.2099 29.3257C36.2772 29.3974 36.2814 29.604 36.2814 29.663C36.2814 29.7219 36.3236 29.8864 36.3531 29.9202C36.3826 29.9539 36.4332 30.0381 36.4332 30.1098C36.4332 30.1815 36.4626 30.3796 36.4499 30.43C36.4373 30.4806 36.5258 30.5439 36.606 30.5691C36.686 30.5944 37.7192 30.6124 39.1693 30.5871C40.6195 30.5618 41.1034 30.7912 41.7025 30.5733C41.7951 30.5397 41.812 30.4638 41.8037 30.4216C41.7951 30.3796 41.8037 30.2448 41.829 30.2109C41.8542 30.1773 42.0229 29.9075 41.989 29.8569C42.0209 29.8282 42.2574 29.9935 42.1067 29.8459C42.0681 29.808 42.1284 29.4096 42.1491 29.3257C42.1701 29.2416 42.2022 29.0838 42.2409 29.0544C42.2797 29.0251 42.1751 28.9154 42.1825 28.8956C42.19 28.8756 42.2182 28.8138 42.2575 28.7856C42.2575 28.7856 42.3306 28.4428 42.2856 28.2743C42.2408 28.1057 42.076 27.3474 41.0475 27.4993C41.0475 27.4993 39.6706 26.9697 39.2473 27.1168Z" fill="#C8102E" stroke="black" stroke-width="0.0412767"/>
<path d="M37.4705 27.9796C37.405 28.0026 37.3497 28.5863 37.4102 28.7761C37.4521 28.9075 37.5013 28.9967 37.5297 29.0516C37.4712 28.9601 37.3395 28.7845 37.1945 28.7953C37.0121 28.8087 37.072 29.4165 37.0819 29.4551C37.0819 29.4553 37.0819 29.4557 37.082 29.4558C37.082 29.4559 37.0824 29.4563 37.0825 29.4564C37.0825 29.4564 37.0829 29.4564 37.0829 29.4564C37.0891 29.4413 37.1284 29.1853 37.3087 29.172C37.4274 29.1633 37.5396 29.2988 37.5819 29.3569C37.5845 29.376 37.5874 29.3945 37.5901 29.4132C37.5712 29.4724 37.5728 29.6093 37.5138 29.7861C37.4424 29.9998 37.1398 30.0435 37.0888 30.0494L37.7498 30.0006C37.7504 30.0005 37.7512 30.0005 37.7518 30.0004C37.7521 30.0004 37.7524 30.0003 37.7527 30.0003C37.7533 30.0004 37.7541 30.0002 37.7548 30.0002L38.4157 29.9514C38.3641 29.9531 38.0498 29.9549 37.9216 29.756C37.8155 29.5913 37.7856 29.4565 37.751 29.4013C37.7486 29.3826 37.7463 29.3641 37.7437 29.3449C37.7693 29.2818 37.8422 29.1326 37.9609 29.1239C38.1413 29.1105 38.2496 29.3556 38.2597 29.3695C38.2598 29.3695 38.2601 29.3694 38.2601 29.3694C38.2602 29.3693 38.2605 29.3688 38.2605 29.3688C38.2605 29.3686 38.2604 29.3683 38.2604 29.3681C38.2595 29.3288 38.1524 28.7245 37.9701 28.738C37.8251 28.7487 37.7439 28.94 37.7115 29.0381C37.7244 28.9802 37.7449 28.8604 37.7491 28.7511C37.7567 28.5532 37.5418 27.9745 37.4738 27.9793C37.4727 27.9794 37.4715 27.9792 37.4705 27.9796ZM37.5319 29.0553C37.538 29.0648 37.5433 29.0731 37.5476 29.0803C37.5476 29.0804 37.5631 29.14 37.5632 29.1401C37.5633 29.1414 37.6266 29.3437 37.6268 29.345C37.6222 29.3373 37.5381 29.0671 37.5319 29.0553ZM37.7104 29.0421C37.7075 29.0546 37.6959 29.3318 37.6935 29.34C37.6933 29.3387 37.7022 29.0708 37.7019 29.0695C37.7019 29.0693 37.7044 29.1299 37.7043 29.1297C37.7066 29.122 37.707 29.0523 37.7104 29.0421Z" fill="#F7D917" stroke="black" stroke-width="0.0206379"/>
<path d="M37.5477 29.3476C37.5477 29.3476 37.596 29.3055 37.6499 29.3013C37.7038 29.2972 37.7631 29.3311 37.7631 29.3311L37.7777 29.4325C37.7777 29.4325 37.7184 29.3986 37.6645 29.4027C37.6106 29.4068 37.5622 29.4489 37.5622 29.4489L37.5477 29.3476Z" fill="#F7D917" stroke="black" stroke-width="0.0206379"/>
<path d="M36.2451 28.9861L36.5117 28.661C36.5117 28.661 36.5365 28.6932 36.5117 28.661C35.9651 27.9545 35.9375 27.5491 35.999 27.3439C36.0605 27.1386 36.1836 26.9162 36.5117 26.6425C36.8398 26.3688 37.0662 26.5209 37.3738 26.5209C37.6814 26.5209 37.7635 26.5893 38.03 26.6236C38.2966 26.6578 39.0144 26.692 39.0144 26.692V26.5038C39.0144 26.5038 39.0427 26.5091 39.0144 26.5038C38.6975 26.4447 38.2966 26.5038 38.03 26.4354C37.7635 26.367 37.5379 26.3499 37.2508 26.3499C36.9637 26.3499 36.7578 26.2661 36.5732 26.3859C36.3886 26.5056 36.163 26.7109 35.999 26.882C35.8349 27.0531 35.7529 27.3952 35.7734 27.6175C35.7939 27.8399 35.876 28.0281 35.999 28.1992C36.1221 28.3702 36.1015 28.5071 36.1426 28.6268C36.1836 28.7466 36.2451 29.0031 36.2451 28.9861Z" fill="#F7D917" stroke="black" stroke-width="0.0196712"/>
<path d="M42.1588 28.9861L41.8922 28.661C41.8673 28.6932 41.8922 28.661 41.8922 28.661C42.4387 27.9545 42.4664 27.5491 42.4048 27.3439C42.3433 27.1386 42.2203 26.9162 41.8922 26.6425C41.5641 26.3688 41.3376 26.5209 41.03 26.5209C40.7224 26.5209 40.6404 26.5893 40.3738 26.6236C40.1072 26.6578 39.3895 26.692 39.3895 26.692V26.5038C39.3612 26.5091 39.3895 26.5038 39.3895 26.5038C39.7064 26.4447 40.1072 26.5038 40.3738 26.4354C40.6404 26.367 40.866 26.3499 41.1531 26.3499C41.4402 26.3499 41.6461 26.2661 41.8307 26.3859C42.0152 26.5056 42.2408 26.7109 42.4048 26.882C42.5689 27.0531 42.6509 27.3952 42.6304 27.6175C42.6099 27.8399 42.5279 28.0281 42.4048 28.1992C42.2818 28.3702 42.3023 28.5071 42.2613 28.6268C42.2203 28.7466 42.1588 29.0031 42.1588 28.9861Z" fill="#F7D917" stroke="black" stroke-width="0.0196712"/>
<path d="M38.7554 26.3488H39.7063V28.2992H38.7554V26.3488Z" fill="#F7D917" stroke="black" stroke-width="0.0229727"/>
<path d="M38.8695 24.6293C38.8695 24.6293 38.9719 24.7126 39.0504 24.8197C39.129 24.9268 39.1837 25.0577 39.1837 25.0577C39.1837 25.0577 39.0528 25.003 38.9457 24.9244C38.8386 24.8459 38.7552 24.7435 38.7552 24.7435V25.4672C38.7552 25.4672 38.8386 25.3648 38.9457 25.2863C39.0528 25.2077 39.1837 25.1529 39.1837 25.1529C39.1837 25.1529 39.1415 25.261 39.1143 25.391C39.0898 25.5079 38.8892 25.7779 38.8892 25.7779L39.4752 25.8172C39.4752 25.8172 39.3778 25.5079 39.3385 25.391C39.2963 25.2651 39.2789 25.1529 39.2789 25.1529C39.2789 25.1529 39.4098 25.2077 39.517 25.2863C39.6241 25.3648 39.7074 25.4672 39.7074 25.4672V24.7435C39.7074 24.7435 39.6241 24.8459 39.517 24.9244C39.4098 25.003 39.2789 25.0577 39.2789 25.0577C39.2789 25.0577 39.3337 24.9268 39.4122 24.8197C39.4908 24.7126 39.5931 24.6293 39.5931 24.6293H38.8695Z" fill="#F7D917" stroke="black" stroke-width="0.0137561"/>
<path d="M39.7026 25.9189C39.7026 26.044 39.6529 26.164 39.5644 26.2524C39.476 26.3409 39.356 26.3905 39.2309 26.3905C39.1058 26.3905 38.9859 26.3409 38.8974 26.2524C38.809 26.164 38.7593 26.044 38.7593 25.9189C38.7593 25.7938 38.809 25.6739 38.8974 25.5854C38.9859 25.497 39.1058 25.4473 39.2309 25.4473C39.356 25.4473 39.476 25.497 39.5644 25.5854C39.6529 25.6739 39.7026 25.7938 39.7026 25.9189Z" fill="#F7D917" stroke="black" stroke-width="0.0137561"/>
<path d="M38.7698 25.9866H39.708C39.708 25.9866 39.7216 25.8051 39.6537 25.7372C39.5883 25.7372 39.3622 25.7372 39.3622 25.7372L39.3573 25.4651H39.2488H39.081L39.0761 25.7372C39.0761 25.7372 38.88 25.747 38.7897 25.747C38.7487 25.8582 38.755 25.8675 38.755 25.8675L38.7698 25.9866Z" fill="#F7D917" stroke="black" stroke-width="0.0137561"/>
<path d="M38.6268 28.2339C38.6268 28.2339 38.7977 28.373 38.9289 28.5518C39.06 28.7307 39.1514 28.9493 39.1514 28.9493C39.1514 28.9493 38.9328 28.8579 38.754 28.7267C38.5751 28.5956 38.436 28.4247 38.436 28.4247V29.6329C38.436 29.6329 38.5751 29.462 38.754 29.3308C38.9328 29.1997 39.1514 29.1083 39.1514 29.1083C39.1514 29.1083 39.06 29.3269 38.9289 29.5057C38.7977 29.6846 38.6268 29.8237 38.6268 29.8237H39.835C39.835 29.8237 39.6641 29.6846 39.533 29.5057C39.4018 29.3269 39.3104 29.1083 39.3104 29.1083C39.3104 29.1083 39.529 29.1997 39.7078 29.3308C39.8867 29.462 40.0258 29.6329 40.0258 29.6329V28.4247C40.0258 28.4247 39.8867 28.5956 39.7078 28.7267C39.529 28.8579 39.3104 28.9493 39.3104 28.9493C39.3104 28.9493 39.4018 28.7307 39.533 28.5518C39.6641 28.373 39.835 28.2339 39.835 28.2339H38.6268Z" fill="#F7D917" stroke="black" stroke-width="0.0206342"/>
<path d="M36.3257 30.2852L36.9207 30.1803C36.9207 30.1803 36.7282 30.0729 36.568 29.9196C36.4078 29.7662 36.2798 29.5668 36.2798 29.5668C36.2798 29.5668 36.511 29.6189 36.7099 29.717C36.9088 29.8151 37.0754 29.9593 37.0754 29.9593L36.8656 28.7694C36.8656 28.7694 36.7583 28.9618 36.605 29.1221C36.4516 29.2823 36.2522 29.4102 36.2522 29.4102C36.2522 29.4102 36.3043 29.1791 36.4024 28.9802C36.5005 28.7813 36.6446 28.6146 36.6446 28.6146L36.0497 28.7195L36.3257 30.2852Z" fill="#F7D917" stroke="black" stroke-width="0.0206342"/>
<path d="M41.8172 28.6146C41.8172 28.6146 41.9613 28.7813 42.0594 28.9802C42.1575 29.1791 42.2096 29.4102 42.2096 29.4102C42.2096 29.4102 42.0102 29.2823 41.8568 29.1221C41.7035 28.9618 41.5962 28.7694 41.5962 28.7694L41.3864 29.9593C41.3864 29.9593 41.553 29.8151 41.7519 29.717C41.9508 29.6189 42.182 29.5668 42.182 29.5668C42.182 29.5668 42.054 29.7662 41.8938 29.9196C41.7336 30.0729 41.5411 30.1803 41.5411 30.1803L42.1361 30.2852L42.4121 28.7195L41.8172 28.6146Z" fill="#F7D917" stroke="black" stroke-width="0.0206342"/>
<path d="M36.3319 30.2234L36.336 31.0902C36.336 31.0902 37.7845 30.5969 39.233 30.5969C40.6814 30.5969 42.1299 31.0902 42.1299 31.0902V30.2234C42.1299 30.2234 40.6804 29.7301 39.2309 29.7301C37.7814 29.7301 36.3319 30.2234 36.3319 30.2234Z" fill="#F7D917" stroke="black" stroke-width="0.0206342"/>
<path d="M36.1976 28.5246C36.1979 28.5537 36.1924 28.5826 36.1814 28.6096C36.1705 28.6366 36.1543 28.6611 36.1338 28.6818C36.1133 28.7025 36.0889 28.7189 36.062 28.7301C36.0351 28.7413 36.0062 28.7471 35.9771 28.7471C35.948 28.7471 35.9191 28.7413 35.8923 28.7301C35.8654 28.7189 35.841 28.7025 35.8205 28.6818C35.8 28.6611 35.7838 28.6366 35.7728 28.6096C35.7618 28.5826 35.7563 28.5537 35.7566 28.5246C35.7563 28.4955 35.7618 28.4666 35.7728 28.4396C35.7838 28.4126 35.8 28.3881 35.8205 28.3674C35.841 28.3467 35.8654 28.3302 35.8923 28.319C35.9191 28.3078 35.948 28.3021 35.9771 28.3021C36.0062 28.3021 36.0351 28.3078 36.062 28.319C36.0889 28.3302 36.1133 28.3467 36.1338 28.3674C36.1543 28.3881 36.1705 28.4126 36.1814 28.4396C36.1924 28.4666 36.1979 28.4955 36.1976 28.5246Z" fill="white" stroke="black" stroke-width="0.018192"/>
<path d="M39.5137 28.9787C39.5137 29.0542 39.4837 29.1267 39.4303 29.1802C39.3768 29.2336 39.3044 29.2636 39.2288 29.2636C39.1532 29.2636 39.0807 29.2336 39.0273 29.1802C38.9739 29.1267 38.9438 29.0542 38.9438 28.9787C38.9438 28.9031 38.9739 28.8306 39.0273 28.7772C39.0807 28.7237 39.1532 28.6937 39.2288 28.6937C39.3044 28.6937 39.3768 28.7237 39.4303 28.7772C39.4837 28.8306 39.5137 28.9031 39.5137 28.9787Z" fill="white" stroke="black" stroke-width="0.0275122"/>
<path d="M38.8165 29.9459H39.6974V30.3299H38.8165V29.9459Z" fill="#012169" stroke="black" stroke-width="0.0213098"/>
<path d="M40.2193 30.2302C40.2207 30.2853 40.2636 30.3423 40.3387 30.3888C40.4137 30.4352 40.5148 30.4673 40.6196 30.4779C40.7244 30.4886 40.8243 30.4769 40.8975 30.4455C40.9706 30.4141 41.0109 30.3655 41.0096 30.3104C41.0082 30.2553 40.9652 30.1983 40.8902 30.1518C40.8151 30.1054 40.7141 30.0733 40.6093 30.0627C40.5045 30.052 40.4045 30.0637 40.3314 30.0951C40.2582 30.1266 40.2179 30.1751 40.2193 30.2302Z" fill="#3E8225" stroke="black" stroke-width="0.0307138"/>
<path d="M36.3371 30.4322L36.1164 30.6528L36.3723 30.8006L36.9676 30.6411L36.8615 30.304L36.3371 30.4322Z" fill="#C8102E" stroke="black" stroke-width="0.0275178"/>
<path d="M42.1768 30.4322L42.3975 30.6528L42.1415 30.8006L41.5463 30.6411L41.6524 30.304L42.1768 30.4322Z" fill="#C8102E" stroke="black" stroke-width="0.0275178"/>
<path d="M38.2946 30.2302C38.2933 30.2853 38.2503 30.3423 38.1752 30.3888C38.1002 30.4352 37.9991 30.4673 37.8943 30.4779C37.7895 30.4886 37.6896 30.4769 37.6164 30.4455C37.5433 30.4141 37.503 30.3655 37.5044 30.3104C37.5057 30.2553 37.5487 30.1983 37.6237 30.1518C37.6988 30.1054 37.7999 30.0733 37.9047 30.0627C38.0095 30.052 38.1094 30.0637 38.1825 30.0951C38.2557 30.1266 38.296 30.1751 38.2946 30.2302Z" fill="#3E8225" stroke="black" stroke-width="0.0307138"/>
<path d="M38.626 29.9746C38.626 30.0034 38.6146 30.0309 38.5943 30.0513C38.574 30.0716 38.5464 30.083 38.5176 30.083C38.4889 30.083 38.4613 30.0716 38.441 30.0513C38.4207 30.0309 38.4092 30.0034 38.4092 29.9746C38.4092 29.9459 38.4207 29.9183 38.441 29.898C38.4613 29.8776 38.4889 29.8662 38.5176 29.8662C38.5464 29.8662 38.574 29.8776 38.5943 29.898C38.6146 29.9183 38.626 29.9459 38.626 29.9746Z" fill="white" stroke="black" stroke-width="0.0253387"/>
<path d="M41.4454 31.7325C41.5282 31.7181 42.0276 31.5994 42.1328 31.5358C42.0649 31.4135 41.9431 31.3178 42.0379 31.358C42.0889 31.3797 42.1293 31.2111 41.9812 31.0822C41.5511 31.2233 40.5196 31.481 39.2236 31.481C37.8972 31.481 36.8528 31.2097 36.4228 31.0687C36.2746 31.1975 36.3208 31.3439 36.3118 31.3986C36.3118 31.3991 36.3119 31.4677 36.3389 31.5223C36.4847 31.6807 36.957 31.7587 37.0398 31.7731C37.4288 31.8407 37.8179 31.9428 39.2227 31.9428C40.5223 31.9428 41.0564 31.8 41.4454 31.7325Z" fill="white" stroke="black" stroke-width="0.0434305"/>
<path d="M36.9966 30.8402C36.9138 30.8546 36.3873 31.0411 36.2822 31.1046C36.2823 31.105 36.2821 31.1059 36.2822 31.1063C36.2911 31.161 36.1908 31.4159 36.3389 31.5447C36.769 31.4037 37.9766 30.9833 39.2726 30.9833C40.599 30.9833 41.6976 31.4037 42.1276 31.5447C42.2758 31.4159 42.1754 31.161 42.1844 31.1063C42.1845 31.1059 42.1843 31.105 42.1844 31.1046C42.0792 31.0411 41.5527 30.8546 41.4699 30.8402C41.0809 30.7727 40.6784 30.5215 39.2735 30.5215C37.9739 30.5215 37.3856 30.7727 36.9966 30.8402Z" fill="white" stroke="black" stroke-width="0.0434143"/>
<path d="M36.6171 31.1567C36.6179 31.1612 36.6177 31.1656 36.6167 31.1699C36.6157 31.1742 36.6137 31.1781 36.611 31.1816C36.6083 31.185 36.6049 31.1879 36.6009 31.19C36.597 31.1921 36.5926 31.1934 36.588 31.1938C36.5834 31.1942 36.5787 31.1938 36.5742 31.1924C36.5697 31.1911 36.5655 31.1889 36.5618 31.1861C36.5581 31.1832 36.555 31.1797 36.5527 31.1757C36.5503 31.1718 36.5488 31.1674 36.5482 31.163C36.5474 31.1586 36.5476 31.1541 36.5486 31.1499C36.5496 31.1456 36.5516 31.1416 36.5543 31.1382C36.557 31.1347 36.5604 31.1319 36.5644 31.1298C36.5683 31.1277 36.5727 31.1264 36.5773 31.126C36.5819 31.1255 36.5866 31.126 36.5911 31.1273C36.5956 31.1287 36.5998 31.1308 36.6035 31.1337C36.6072 31.1366 36.6103 31.1401 36.6126 31.144C36.615 31.148 36.6165 31.1523 36.6171 31.1567Z" fill="black" stroke="black" stroke-width="0.0183271"/>
<path d="M36.5893 31.233L36.8959 31.0899L36.7496 31.1907L36.8507 31.179L36.7623 31.2296L36.9149 31.2267L36.5893 31.233Z" fill="black" stroke="black" stroke-width="0.0366835"/>
<mask id="mask1_1_40176" style="mask-type:alpha" maskUnits="userSpaceOnUse" x="3" y="6" width="24" height="18">
<rect x="3" y="6" width="24" height="18" fill="#C4C4C4"/>
</mask>
<g mask="url(#mask1_1_40176)">
<rect x="3" y="6" width="24" height="18" fill="#2E50A6"/>
<path d="M3 6L27 24L3 6ZM27 6L3 24L27 6Z" fill="black"/>
<path d="M27 6L3 24M3 6L27 24L3 6Z" stroke="white" stroke-width="2.4"/>
<path d="M3 6L27 24L3 6ZM27 6L3 24L27 6Z" fill="black"/>
<path d="M27 6L3 24M3 6L27 24L3 6Z" stroke="#EE5757" stroke-width="1.6"/>
<path d="M15 6V27V6ZM3 15H31H3Z" fill="black"/>
<path d="M3 15H31M15 6V27V6Z" stroke="white" stroke-width="4"/>
<path d="M15 6V27V6ZM3 15H31H3Z" fill="black"/>
<path d="M3 15H31M15 6V27V6Z" stroke="#EE5757" stroke-width="2.4"/>
</g>
</g>
</svg>
