<svg width="54" height="54" viewBox="0 0 54 54" fill="none" xmlns="http://www.w3.org/2000/svg">
<mask id="mask0_1_40176" style="mask-type:alpha" maskUnits="userSpaceOnUse" x="3" y="9" width="48" height="36">
<path d="M3.56934 18.1356C4.16681 13.4125 8.0415 10.0019 12.7861 9.60887C16.6412 9.28949 21.6196 9 27 9C32.3804 9 37.3588 9.28949 41.2139 9.60887C45.9585 10.0019 49.8332 13.4125 50.4307 18.1356C50.752 20.6759 51 23.704 51 27C51 30.296 50.752 33.3241 50.4307 35.8644C49.8332 40.5875 45.9585 43.9981 41.2139 44.3911C37.3588 44.7105 32.3804 45 27 45C21.6196 45 16.6412 44.7105 12.7861 44.3911C8.04151 43.9981 4.16681 40.5875 3.56934 35.8644C3.248 33.3241 3 30.296 3 27C3 23.704 3.248 20.6759 3.56934 18.1356Z" fill="#00D0BF"/>
</mask>
<g mask="url(#mask0_1_40176)">
<rect x="3" y="9" width="48" height="36" fill="#F5F5F5"/>
<path d="M53 41.555C52.4173 41.9056 51.9168 42.7248 50.3688 42.7248C47.2738 42.7248 46.4999 41 44.1785 41C42.6309 41 41.8571 42.7248 40.3096 42.7248C37.2143 42.7248 36.4405 41 34.1191 41C32.5715 41 31.7976 42.7248 30.25 42.7248C27.1548 42.7248 26.3809 41 24.0596 41C22.5119 41 21.7381 42.7248 20.1905 42.7248C17.0953 42.7248 16.3215 41 14 41C12.4523 41 11.6785 42.7248 10.1309 42.7248C7.03573 42.7248 6.26188 41 3.94051 41C2.39282 41 1.92855 42.2291 1 42.2291V44.4496C1.92855 44.4496 2.39282 43.2206 3.94051 43.2206C6.26188 43.2206 7.03573 44.9453 10.1309 44.9453C11.6785 44.9453 12.4523 43.2206 14 43.2206C16.3214 43.2206 17.0953 44.9453 20.1905 44.9453C21.7381 44.9453 22.5119 43.2206 24.0596 43.2206C26.3809 43.2206 27.1548 44.9453 30.25 44.9453C31.7976 44.9453 32.5715 43.2206 34.1191 43.2206C36.4405 43.2206 37.2143 44.9453 40.3096 44.9453C41.8571 44.9453 42.6309 43.2206 44.1785 43.2206C46.4999 43.2206 47.2738 44.9453 50.3688 44.9453C51.9168 44.9453 52.4173 44.4565 53 44.106V41.555Z" fill="#2E50A6"/>
<path d="M53 35.555C52.4173 35.9056 51.9168 36.7248 50.3688 36.7248C47.2738 36.7248 46.4999 35 44.1785 35C42.6309 35 41.8571 36.7248 40.3096 36.7248C37.2143 36.7248 36.4405 35 34.1191 35C32.5715 35 31.7976 36.7248 30.25 36.7248C27.1548 36.7248 26.3809 35 24.0596 35C22.5119 35 21.7381 36.7248 20.1905 36.7248C17.0953 36.7248 16.3215 35 14 35C12.4523 35 11.6785 36.7248 10.1309 36.7248C7.03573 36.7248 6.26188 35 3.94051 35C2.39282 35 1.92855 36.2291 1 36.2291V38.4496C1.92855 38.4496 2.39282 37.2206 3.94051 37.2206C6.26188 37.2206 7.03573 38.9453 10.1309 38.9453C11.6785 38.9453 12.4523 37.2206 14 37.2206C16.3214 37.2206 17.0953 38.9453 20.1905 38.9453C21.7381 38.9453 22.5119 37.2206 24.0596 37.2206C26.3809 37.2206 27.1548 38.9453 30.25 38.9453C31.7976 38.9453 32.5715 37.2206 34.1191 37.2206C36.4405 37.2206 37.2143 38.9453 40.3096 38.9453C41.8571 38.9453 42.6309 37.2206 44.1785 37.2206C46.4999 37.2206 47.2738 38.9453 50.3688 38.9453C51.9168 38.9453 52.4173 38.4565 53 38.106V35.555Z" fill="#2E50A6"/>
<path d="M53 29.555C52.4173 29.9056 51.9168 30.7248 50.3688 30.7248C47.2738 30.7248 46.4999 29 44.1785 29C42.6309 29 41.8571 30.7248 40.3096 30.7248C37.2143 30.7248 36.4405 29 34.1191 29C32.5715 29 31.7976 30.7248 30.25 30.7248C27.1548 30.7248 26.3809 29 24.0596 29C22.5119 29 21.7381 30.7248 20.1905 30.7248C17.0953 30.7248 16.3215 29 14 29C12.4523 29 11.6785 30.7248 10.1309 30.7248C7.03573 30.7248 6.26188 29 3.94051 29C2.39282 29 1.92855 30.2291 1 30.2291V32.4496C1.92855 32.4496 2.39282 31.2206 3.94051 31.2206C6.26188 31.2206 7.03573 32.9453 10.1309 32.9453C11.6785 32.9453 12.4523 31.2206 14 31.2206C16.3214 31.2206 17.0953 32.9453 20.1905 32.9453C21.7381 32.9453 22.5119 31.2206 24.0596 31.2206C26.3809 31.2206 27.1548 32.9453 30.25 32.9453C31.7976 32.9453 32.5715 31.2206 34.1191 31.2206C36.4405 31.2206 37.2143 32.9453 40.3096 32.9453C41.8571 32.9453 42.6309 31.2206 44.1785 31.2206C46.4999 31.2206 47.2738 32.9453 50.3688 32.9453C51.9168 32.9453 52.4173 32.4565 53 32.106V29.555Z" fill="#2E50A6"/>
<path d="M53 23.555C52.4173 23.9056 51.9168 24.7248 50.3688 24.7248C47.2738 24.7248 46.4999 23 44.1785 23C42.6309 23 41.8571 24.7248 40.3096 24.7248C37.2143 24.7248 36.4405 23 34.1191 23C32.5715 23 31.7976 24.7248 30.25 24.7248C27.1548 24.7248 26.3809 23 24.0596 23C22.5119 23 21.7381 24.7248 20.1905 24.7248C17.0953 24.7248 16.3215 23 14 23C12.4523 23 11.6785 24.7248 10.1309 24.7248C7.03573 24.7248 6.26188 23 3.94051 23C2.39282 23 1.92855 24.2291 1 24.2291V26.4496C1.92855 26.4496 2.39282 25.2206 3.94051 25.2206C6.26188 25.2206 7.03573 26.9453 10.1309 26.9453C11.6785 26.9453 12.4523 25.2206 14 25.2206C16.3214 25.2206 17.0953 26.9453 20.1905 26.9453C21.7381 26.9453 22.5119 25.2206 24.0596 25.2206C26.3809 25.2206 27.1548 26.9453 30.25 26.9453C31.7976 26.9453 32.5715 25.2206 34.1191 25.2206C36.4405 25.2206 37.2143 26.9453 40.3096 26.9453C41.8571 26.9453 42.6309 25.2206 44.1785 25.2206C46.4999 25.2206 47.2738 26.9453 50.3688 26.9453C51.9168 26.9453 52.4173 26.4565 53 26.106V23.555Z" fill="#2E50A6"/>
<path d="M53 17.555C52.4173 17.9056 51.9168 18.7248 50.3688 18.7248C47.2738 18.7248 46.4999 17 44.1785 17C42.6309 17 41.8571 18.7248 40.3096 18.7248C37.2143 18.7248 36.4405 17 34.1191 17C32.5715 17 31.7976 18.7248 30.25 18.7248C27.1548 18.7248 26.3809 17 24.0596 17C22.5119 17 21.7381 18.7248 20.1905 18.7248C17.0953 18.7248 16.3215 17 14 17C12.4523 17 11.6785 18.7248 10.1309 18.7248C7.03573 18.7248 6.26188 17 3.94051 17C2.39282 17 1.92855 18.2291 1 18.2291V20.4496C1.92855 20.4496 2.39282 19.2206 3.94051 19.2206C6.26188 19.2206 7.03573 20.9453 10.1309 20.9453C11.6785 20.9453 12.4523 19.2206 14 19.2206C16.3214 19.2206 17.0953 20.9453 20.1905 20.9453C21.7381 20.9453 22.5119 19.2206 24.0596 19.2206C26.3809 19.2206 27.1548 20.9453 30.25 20.9453C31.7976 20.9453 32.5715 19.2206 34.1191 19.2206C36.4405 19.2206 37.2143 20.9453 40.3096 20.9453C41.8571 20.9453 42.6309 19.2206 44.1785 19.2206C46.4999 19.2206 47.2738 20.9453 50.3688 20.9453C51.9168 20.9453 52.4173 20.4565 53 20.106V17.555Z" fill="#2E50A6"/>
<path d="M53 11.555C52.4173 11.9056 51.9168 12.7248 50.3688 12.7248C47.2738 12.7248 46.4999 11 44.1785 11C42.6309 11 41.8571 12.7248 40.3096 12.7248C37.2143 12.7248 36.4405 11 34.1191 11C32.5715 11 31.7976 12.7248 30.25 12.7248C27.1548 12.7248 26.3809 11 24.0596 11C22.5119 11 21.7381 12.7248 20.1905 12.7248C17.0953 12.7248 16.3215 11 14 11C12.4523 11 11.6785 12.7248 10.1309 12.7248C7.03573 12.7248 6.26188 11 3.94051 11C2.39282 11 1.92855 12.2291 1 12.2291V14.4496C1.92855 14.4496 2.39282 13.2206 3.94051 13.2206C6.26188 13.2206 7.03573 14.9453 10.1309 14.9453C11.6785 14.9453 12.4523 13.2206 14 13.2206C16.3214 13.2206 17.0953 14.9453 20.1905 14.9453C21.7381 14.9453 22.5119 13.2206 24.0596 13.2206C26.3809 13.2206 27.1548 14.9453 30.25 14.9453C31.7976 14.9453 32.5715 13.2206 34.1191 13.2206C36.4405 13.2206 37.2143 14.9453 40.3096 14.9453C41.8571 14.9453 42.6309 13.2206 44.1785 13.2206C46.4999 13.2206 47.2738 14.9453 50.3688 14.9453C51.9168 14.9453 52.4173 14.4565 53 14.106V11.555Z" fill="#2E50A6"/>
<path d="M38.8431 19.8555L38.6288 40.217C38.6288 41.2886 39.5978 41.2886 39.7005 40.217L39.4861 19.8555H38.8431Z" fill="#A24300" stroke="white" stroke-width="0.129297"/>
<path d="M40.866 27.4708L40.1985 26.7048L39.8941 27.4384L39.7185 26.3507L39.3203 26.8783L39.4375 25.7328L39.0393 26.2604L39.1564 25.1149L38.7583 25.6425L38.7818 24.2911L38.3836 24.8187L38.4071 23.4672L38.0089 23.9948L38.0324 22.6433L38.0441 21.9676L38.2431 21.7038L38.6296 21.8519L39.2033 22.412L40.3508 23.5321L39.578 23.2359L40.7255 24.356L39.9527 24.0597L41.1002 25.1799L40.3274 24.8836L41.3812 25.7978L40.6084 25.5015L41.6622 26.4156L40.8894 26.1194L41.6505 27.0914L40.784 26.5891L40.866 27.4708Z" fill="#006D00" stroke="white" stroke-width="0.112423"/>
<path d="M41.0592 27.4221L38.0499 21.7525" stroke="black" stroke-width="0.0136271"/>
<path d="M40.1024 23.5612L38.5415 22.5305L38.0236 24.0574" stroke="black" stroke-width="0.0136271"/>
<path d="M40.5323 24.3712L38.9714 23.3405L38.4535 24.8674" stroke="black" stroke-width="0.0136271"/>
<path d="M40.9622 25.1811L39.4013 24.1504L38.8834 25.6773" stroke="black" stroke-width="0.0136271"/>
<path d="M41.2846 25.7856L39.8233 24.9618L39.2217 26.2848" stroke="black" stroke-width="0.0136271"/>
<path d="M41.607 26.3931L40.1457 25.5693L39.5441 26.8922" stroke="black" stroke-width="0.0136271"/>
<path d="M41.685 27.0612L40.3646 25.9789L40.1031 27.4296" stroke="black" stroke-width="0.0136271"/>
<path d="M43.8245 15.842L42.7027 16.6115L42.3742 15.8304L41.8164 16.9395L41.602 16.4196L41.1825 17.5527L41.0168 17.0413L40.7357 18.1986L40.3829 17.6546L40.1399 19.0597L39.7871 18.5157L39.544 19.9208L39.1913 19.3768L38.9482 20.782L38.8267 21.4846L39.0031 21.7566L39.4774 21.598L40.2496 21.0089L41.794 19.8306L40.8454 20.1477L42.3898 18.9695L41.4412 19.2866L42.9856 18.1083L42.0371 18.4255L43.6195 17.4951L42.4839 17.7796L44.2047 16.8733L43.1178 17.1664L44.3263 16.1708L43.2287 16.7032L43.8245 15.842Z" fill="#006D00" stroke="white" stroke-width="0.129542"/>
<path d="M43.5255 16.2805L41.8368 17.6821L38.8275 21.7276" stroke="black" stroke-width="0.015702"/>
<path d="M41.2457 19.9764L39.5389 20.8825L39.2138 19.5711" stroke="black" stroke-width="0.015702"/>
<path d="M41.9249 19.1337L40.1904 20.0344L39.8655 18.7224" stroke="black" stroke-width="0.015702"/>
<path d="M42.5637 18.2823L40.8425 19.1855L40.5317 17.8769" stroke="black" stroke-width="0.015702"/>
<path d="M43.0933 17.6592L41.4815 18.3365L41.1457 17.2655" stroke="black" stroke-width="0.015702"/>
<path d="M43.7038 17.0514L41.9642 17.7028L41.7579 16.658" stroke="black" stroke-width="0.015702"/>
<path d="M43.9505 16.485L42.3414 17.3833L42.5003 16.0848" stroke="black" stroke-width="0.015702"/>
<path d="M31.661 22.8021L33.0934 21.7444L32.3586 21.373L33.6351 21.5729L33.1868 20.9899L34.4322 21.4413L33.9839 20.8583L35.2293 21.3097L34.781 20.7267L36.2817 21.2181L35.8334 20.6351L37.303 21.378L36.8546 20.795L38.3554 21.2864L39.0902 21.6578L39.3144 21.9493L39.0279 22.1609L38.2307 22.2924L36.9514 22.8613L37.1784 22.384L35.5842 22.6472L36.1571 22.2241L34.5318 22.7388L35.1047 22.3157L33.7347 22.8704L34.3388 22.1958L32.9376 23.002L33.5417 22.3274L32.3958 23.1735L33.0311 22.2474L31.661 22.8021Z" fill="#006D00" stroke="white" stroke-width="0.117138"/>
<path d="M32.1234 22.5392L33.6046 21.8238L34.3989 21.6856L35.064 21.6584L36.2125 21.7069L37.2474 21.7308L39.3002 21.9274" stroke="black" stroke-width="0.0141986"/>
<path d="M37.1345 22.6626L38.2824 21.9374L37.0848 21.0328" stroke="black" stroke-width="0.0141986"/>
<path d="M35.8466 22.5614L37.2666 21.7803L36.0675 20.8763" stroke="black" stroke-width="0.0141986"/>
<path d="M34.9353 22.539L36.2333 21.7349L35.0264 20.8973" stroke="black" stroke-width="0.0141986"/>
<path d="M33.2218 22.7451L34.4198 21.6748L33.4299 21.1578" stroke="black" stroke-width="0.0141986"/>
<path d="M32.692 22.8123L33.6208 21.7899L32.8606 21.5254" stroke="black" stroke-width="0.0141986"/>
<path d="M34.0178 22.6313L35.2023 21.665L34.227 21.0354" stroke="black" stroke-width="0.0141986"/>
<path d="M46.3667 21.3704L45.0623 21.0669L45.5226 20.355L44.266 20.6538L44.5749 20.1829L43.3796 20.5927L43.71 20.1609L42.5759 20.6819L42.8236 20.0999L41.5044 20.8008L41.7521 20.2187L40.4329 20.9196L40.6806 20.3376L39.3614 21.0385L38.7018 21.3889L38.5779 21.68L38.9899 21.9115L39.9376 22.0837L41.833 22.4279L41.0091 21.9648L42.9045 22.309L42.0806 21.8459L43.976 22.1902L43.1521 21.727L44.8624 22.2512L43.9558 21.6379L45.7273 22.2732L44.8422 21.6989L46.3869 21.9227L45.2952 21.4893L46.3667 21.3704Z" fill="#006D00" stroke="white" stroke-width="0.129542"/>
<path d="M45.7559 21.3309L43.663 21.0786L38.6096 21.6821" stroke="black" stroke-width="0.015702"/>
<path d="M41.5108 22.3031L39.6536 21.604L40.5116 20.6018" stroke="black" stroke-width="0.015702"/>
<path d="M42.5867 22.1882L40.715 21.4653L41.5733 20.4633" stroke="black" stroke-width="0.015702"/>
<path d="M43.6408 22.038L41.7765 21.3268L42.6416 20.3366" stroke="black" stroke-width="0.015702"/>
<path d="M44.4586 21.9642L42.841 21.1903L43.4909 20.3257" stroke="black" stroke-width="0.015702"/>
<path d="M45.3201 21.9664L43.6391 21.0849L44.3533 20.3293" stroke="black" stroke-width="0.015702"/>
<path d="M45.8911 21.732L44.1248 21.1195L45.2931 20.4598" stroke="black" stroke-width="0.015702"/>
<path d="M33.3788 16.6195L35.1002 17.1404L34.9488 16.3427L35.5684 17.47L35.7613 16.7765L36.1605 18.0251L36.3534 17.3316L36.7526 18.5802L36.9455 17.8867L37.4686 19.3608L37.6615 18.6673L37.9642 20.2626L38.1571 19.5691L38.6802 21.0432L38.8315 21.8409L38.7351 22.1877L38.3908 22.0835L37.7987 21.5284L36.562 20.845L37.0827 20.7478L35.8985 19.6376L36.5871 19.846L35.1825 18.8571L35.8711 19.0654L34.5904 18.302L35.4993 18.389L33.9983 17.7469L34.9072 17.8339L33.5301 17.4172L34.6594 17.383L33.3788 16.6195Z" fill="#006D00" stroke="white" stroke-width="0.117138"/>
<path d="M33.8678 16.8243L35.3453 17.5989L35.943 18.1519L36.3734 18.6645L37.041 19.603L37.6582 20.4377L38.7642 22.1769" stroke="black" stroke-width="0.0141986"/>
<path d="M36.8915 20.8364L38.1522 21.3083L38.1636 19.8131" stroke="black" stroke-width="0.0141986"/>
<path d="M36.162 19.7735L37.6268 20.4265L37.6382 18.93" stroke="black" stroke-width="0.0141986"/>
<path d="M35.5933 19.0591L37.0053 19.602L36.9583 18.1397" stroke="black" stroke-width="0.0141986"/>
<path d="M34.3472 17.8715L35.9058 18.1713L35.7358 17.0742" stroke="black" stroke-width="0.0141986"/>
<path d="M33.9555 17.5134L35.3153 17.6279L35.0806 16.8659" stroke="black" stroke-width="0.0141986"/>
<path d="M34.9417 18.4128L36.4093 18.7649L36.3378 17.611" stroke="black" stroke-width="0.0141986"/>
<path d="M33.4712 25.1296L34.4527 24.9191L34.1553 25.6098L35.0233 24.9107L34.9314 25.5003L35.6398 24.6075L35.5479 25.1971L36.2563 24.3043L36.1644 24.8939L37.0783 23.9001L36.9864 24.4897L37.9003 23.4958L37.8084 24.0854L38.7223 23.0915L39.1792 22.5946L39.2252 22.2998L38.8601 22.2071L38.0841 22.3166L36.5319 22.5355L37.2621 22.7208L35.7099 22.9397L36.4401 23.1251L34.8879 23.344L35.6181 23.5293L34.2714 23.6472L35.0015 23.8325L33.6549 23.9504L34.3851 24.1357L33.198 24.4473L34.1336 24.5316L33.4712 25.1296Z" fill="#006D00" stroke="white" stroke-width="0.112423"/>
<path d="M33.4521 25.0977L39.2443 22.3316" stroke="black" stroke-width="0.013627"/>
<path d="M36.5565 22.5424L38.4042 22.712L37.8198 24.1264" stroke="black" stroke-width="0.013627"/>
<path d="M35.729 22.9375L37.5768 23.1071L36.9924 24.5215" stroke="black" stroke-width="0.013627"/>
<path d="M34.9016 23.3326L36.7493 23.5023L36.1649 24.9167" stroke="black" stroke-width="0.013627"/>
<path d="M34.2809 23.6254L35.923 23.8992L35.5421 25.213" stroke="black" stroke-width="0.013627"/>
<path d="M33.6604 23.9218L35.3024 24.1956L34.9215 25.5094" stroke="black" stroke-width="0.013627"/>
<path d="M33.1946 24.4207L34.8895 24.3928L34.1446 25.6041" stroke="black" stroke-width="0.013627"/>
<path d="M37.675 13.7987L38.1141 15.0505L38.6348 14.4916L38.5701 15.7821L38.9139 15.4081L38.7487 16.6536L39.0571 16.2637L38.7914 17.4644L39.2357 17.1352L38.8483 18.5454L39.2927 18.2162L38.9053 19.6264L39.3496 19.2972L38.9622 20.7074L38.7686 21.4125L38.5464 21.5771L38.2957 21.2012L38.0166 20.2847L37.4584 18.4519L37.9597 19.2037L37.4015 17.3709L37.9027 18.1227L37.3445 16.2899L37.8458 17.0417L37.1659 15.4184L37.8031 16.2309L37.0227 14.5627L37.6245 15.3595L37.2164 13.8576L37.7319 14.8797L37.675 13.7987Z" fill="#006D00" stroke="white" stroke-width="0.129542"/>
<path d="M37.8713 14.4014L38.2152 16.4608L38.429 21.5434" stroke="black" stroke-width="0.015702"/>
<path d="M37.4883 18.7501L38.44 20.5095L39.2359 19.454" stroke="black" stroke-width="0.015702"/>
<path d="M37.4436 17.669L38.4205 19.4393L39.2165 18.3829" stroke="black" stroke-width="0.015702"/>
<path d="M37.4371 16.6043L38.4012 18.3687L39.1848 17.3082" stroke="black" stroke-width="0.015702"/>
<path d="M37.3845 15.7853L38.3748 17.2941L39.0805 16.4661" stroke="black" stroke-width="0.015702"/>
<path d="M37.2556 14.9335L38.3571 16.4869L38.95 15.6137" stroke="black" stroke-width="0.015702"/>
<path d="M37.4128 14.3358L38.2524 16.0065L38.6715 14.7181" stroke="black" stroke-width="0.015702"/>
<path d="M43.9343 26.8911L43.2834 25.1893L44.0906 25.2923L42.9189 24.7381L43.5959 24.5008L42.3201 24.1761L42.997 23.9387L41.7212 23.6141L42.3982 23.3767L40.8881 22.9412L41.565 22.7038L39.9508 22.4978L40.6277 22.2605L39.1176 21.825L38.3105 21.722L37.9719 21.8406L38.1022 22.181L38.701 22.7431L39.4771 23.9465L39.5342 23.4159L40.7319 24.54L40.4715 23.8593L41.565 25.2129L41.3047 24.5322L42.1639 25.7749L42.0076 24.8647L42.7627 26.3369L42.6065 25.4267L43.1272 26.7882L43.0751 25.6484L43.9343 26.8911Z" fill="#006D00" stroke="white" stroke-width="0.117138"/>
<path d="M43.682 26.4151L42.8001 24.9701L42.2053 24.4008L41.6634 23.9981L40.6804 23.3826L39.8043 22.8114L37.9926 21.8034" stroke="black" stroke-width="0.0141986"/>
<path d="M39.495 23.6076L38.9188 22.3734L40.4295 22.2735" stroke="black" stroke-width="0.0141986"/>
<path d="M40.6021 24.2789L39.8259 22.8513L41.3391 22.7514" stroke="black" stroke-width="0.0141986"/>
<path d="M41.3418 24.8097L40.6817 23.4282L42.1641 23.3888" stroke="black" stroke-width="0.0141986"/>
<path d="M42.5939 25.9906L42.1659 24.449L43.2924 24.5545" stroke="black" stroke-width="0.0141986"/>
<path d="M42.9667 26.3626L42.742 25.0092L43.5347 25.1993" stroke="black" stroke-width="0.0141986"/>
<path d="M42.022 25.4255L41.5483 23.978L42.7245 23.9817" stroke="black" stroke-width="0.0141986"/>
<path d="M36.7316 34.1515L39.2283 33.7035L41.8292 34.1515L40.6224 34.6532L38.3961 34.6891L36.7316 34.1515Z" fill="#9D9D9D" stroke="black" stroke-width="0.0255414"/>
<path d="M39.2473 30.1168C38.8109 30.2685 38.3275 29.9033 37.5405 30.4993C37.5405 30.4993 36.1686 29.9124 36.0644 31.2688C36.0602 31.3238 36.2815 31.6546 36.3124 31.6309C36.4848 31.4986 36.2305 31.7595 36.2305 31.7972C36.2305 31.8352 36.2558 31.8563 36.2643 31.873C36.2727 31.8899 36.2938 31.9152 36.298 31.9869C36.3022 32.0586 36.1425 32.2541 36.21 32.3257C36.2773 32.3974 36.2815 32.604 36.2815 32.663C36.2815 32.7219 36.3237 32.8864 36.3532 32.9202C36.3826 32.9539 36.4332 33.0381 36.4332 33.1098C36.4332 33.1815 36.4627 33.3796 36.45 33.43C36.4374 33.4806 36.5258 33.5439 36.6061 33.5691C36.6861 33.5944 37.7193 33.6124 39.1694 33.5871C40.6196 33.5618 41.1034 33.7912 41.7026 33.5733C41.7952 33.5397 41.8121 33.4638 41.8037 33.4216C41.7952 33.3796 41.8037 33.2448 41.829 33.2109C41.8543 33.1773 42.0229 32.9075 41.9891 32.8569C42.0209 32.8282 42.2574 32.9935 42.1068 32.8459C42.0682 32.808 42.1284 32.4096 42.1492 32.3257C42.1701 32.2416 42.2023 32.0838 42.2409 32.0544C42.2798 32.0251 42.1751 31.9154 42.1825 31.8956C42.1901 31.8756 42.2183 31.8138 42.2576 31.7856C42.2576 31.7856 42.3307 31.4428 42.2856 31.2743C42.2408 31.1057 42.0761 30.3474 41.0475 30.4993C41.0475 30.4993 39.6706 29.9697 39.2473 30.1168V30.1168Z" fill="#C8102E" stroke="black" stroke-width="0.0412767"/>
<path d="M37.4958 30.9915C37.4273 31.0155 37.3525 31.5949 37.4094 31.7818C37.4488 31.9113 37.4971 31.9987 37.5249 32.0525C37.467 31.963 37.3358 31.7915 37.1853 31.8048C36.996 31.8215 37.0397 32.4226 37.0488 32.4607C37.0488 32.4608 37.0488 32.4612 37.0489 32.4613C37.0489 32.4614 37.0493 32.4618 37.0494 32.4619C37.0494 32.4619 37.0498 32.4619 37.0498 32.4619C37.0567 32.4468 37.1051 32.1925 37.2923 32.176C37.4156 32.1651 37.5277 32.2973 37.5698 32.3541C37.5719 32.373 37.5743 32.3912 37.5765 32.4097C37.5552 32.4687 37.5528 32.6043 37.4863 32.7806C37.4059 32.9936 37.0911 33.0425 37.038 33.0493L37.7243 32.9887C37.725 32.9886 37.7258 32.9886 37.7265 32.9885C37.7268 32.9885 37.727 32.9884 37.7273 32.9884C37.728 32.9884 37.7289 32.9883 37.7295 32.9882L38.4158 32.9275C38.3623 32.9302 38.0366 32.9379 37.9098 32.7431C37.8048 32.582 37.7779 32.449 37.7437 32.3949C37.7417 32.3764 37.7399 32.3581 37.7378 32.3392C37.7662 32.2762 37.8462 32.127 37.9695 32.1161C38.1567 32.0996 38.2616 32.3403 38.2717 32.3539C38.2717 32.3539 38.2721 32.3538 38.2721 32.3538C38.2721 32.3538 38.2725 32.3533 38.2725 32.3532C38.2725 32.3531 38.2724 32.3527 38.2724 32.3526C38.2727 32.3136 38.1799 31.7169 37.9906 31.7336C37.84 31.7469 37.7502 31.938 37.7137 32.0358C37.7288 31.9782 37.7536 31.8591 37.7612 31.7507C37.775 31.5545 37.5698 30.9851 37.4993 30.9912C37.4981 30.9913 37.4969 30.9911 37.4958 30.9915V30.9915ZM37.5271 32.0561C37.5331 32.0655 37.5383 32.0735 37.5425 32.0806C37.5426 32.0808 37.5568 32.1395 37.5569 32.1396C37.557 32.1409 37.6165 32.3401 37.6166 32.3414C37.6121 32.3339 37.5331 32.0677 37.5271 32.0561V32.0561ZM37.7124 32.0397C37.709 32.0522 37.6887 32.3271 37.6859 32.3353C37.6857 32.334 37.703 32.0684 37.7028 32.0671C37.7028 32.0669 37.7035 32.1269 37.7035 32.1267C37.706 32.119 37.7086 32.05 37.7124 32.0397V32.0397Z" fill="#F7D917" stroke="black" stroke-width="0.0206379"/>
<path d="M37.5467 32.3502C37.5467 32.3502 37.5971 32.3081 37.6519 32.3031C37.7067 32.2981 37.7659 32.3301 37.7659 32.3301L37.7778 32.4289C37.7778 32.4289 37.7185 32.3968 37.6637 32.4018C37.6089 32.4068 37.5585 32.4489 37.5585 32.4489L37.5467 32.3502Z" fill="#F7D917" stroke="black" stroke-width="0.0206379"/>
<path d="M36.2451 31.9861L36.5117 31.661C36.5117 31.661 36.5366 31.6932 36.5117 31.661C35.9652 30.9545 35.9375 30.5491 35.9991 30.3439C36.0606 30.1386 36.1836 29.9162 36.5117 29.6425C36.8399 29.3688 37.0663 29.5209 37.3739 29.5209C37.6815 29.5209 37.7635 29.5893 38.0301 29.6236C38.2967 29.6578 39.0144 29.692 39.0144 29.692V29.5038C39.0144 29.5038 39.0427 29.5091 39.0144 29.5038C38.6975 29.4447 38.2967 29.5038 38.0301 29.4354C37.7635 29.367 37.5379 29.3499 37.2508 29.3499C36.9637 29.3499 36.7578 29.2661 36.5733 29.3859C36.3887 29.5056 36.1631 29.7109 35.9991 29.882C35.835 30.0531 35.753 30.3952 35.7735 30.6175C35.794 30.8399 35.876 31.0281 35.9991 31.1992C36.1221 31.3702 36.1016 31.5071 36.1426 31.6268C36.1836 31.7466 36.2451 32.0031 36.2451 31.9861V31.9861Z" fill="#F7D917" stroke="black" stroke-width="0.0196712"/>
<path d="M42.1588 31.9861L41.8922 31.661C41.8922 31.661 41.8674 31.6932 41.8922 31.661C42.4388 30.9545 42.4664 30.5491 42.4049 30.3439C42.3434 30.1386 42.2203 29.9162 41.8922 29.6425C41.5641 29.3688 41.3377 29.5209 41.0301 29.5209C40.7225 29.5209 40.6405 29.5893 40.3739 29.6236C40.1073 29.6578 39.3895 29.692 39.3895 29.692V29.5038C39.3895 29.5038 39.3612 29.5091 39.3895 29.5038C39.7064 29.4447 40.1073 29.5038 40.3739 29.4354C40.6405 29.367 40.866 29.3499 41.1531 29.3499C41.4402 29.3499 41.6461 29.2661 41.8307 29.3859C42.0153 29.5056 42.2408 29.7109 42.4049 29.882C42.569 30.0531 42.651 30.3952 42.6305 30.6175C42.61 30.8399 42.5279 31.0281 42.4049 31.1992C42.2819 31.3702 42.3024 31.5071 42.2614 31.6268C42.2203 31.7466 42.1588 32.0031 42.1588 31.9861Z" fill="#F7D917" stroke="black" stroke-width="0.0196712"/>
<path d="M38.7555 29.3488H39.7064V31.2992H38.7555V29.3488Z" fill="#F7D917" stroke="black" stroke-width="0.0229727"/>
<path d="M38.8696 27.6293C38.8696 27.6293 38.9719 27.7126 39.0505 27.8197C39.129 27.9268 39.1838 28.0577 39.1838 28.0577C39.1838 28.0577 39.0529 28.003 38.9457 27.9244C38.8386 27.8459 38.7553 27.7435 38.7553 27.7435V28.4672C38.7553 28.4672 38.8386 28.3648 38.9457 28.2863C39.0529 28.2077 39.1838 28.1529 39.1838 28.1529C39.1838 28.1529 39.1416 28.261 39.1143 28.391C39.0898 28.5079 38.8892 28.7779 38.8892 28.7779L39.4753 28.8172C39.4753 28.8172 39.3779 28.5079 39.3386 28.391C39.2963 28.2651 39.279 28.1529 39.279 28.1529C39.279 28.1529 39.4099 28.2077 39.517 28.2863C39.6241 28.3648 39.7075 28.4672 39.7075 28.4672V27.7435C39.7075 27.7435 39.6241 27.8459 39.517 27.9244C39.4099 28.003 39.279 28.0577 39.279 28.0577C39.279 28.0577 39.3337 27.9268 39.4123 27.8197C39.4908 27.7126 39.5932 27.6293 39.5932 27.6293H38.8696Z" fill="#F7D917" stroke="black" stroke-width="0.0137561"/>
<path d="M39.7026 28.9189C39.7026 29.044 39.6529 29.164 39.5645 29.2524C39.476 29.3409 39.3561 29.3905 39.231 29.3905C39.1059 29.3905 38.9859 29.3409 38.8975 29.2524C38.809 29.164 38.7593 29.044 38.7593 28.9189C38.7593 28.7938 38.809 28.6739 38.8975 28.5854C38.9859 28.497 39.1059 28.4473 39.231 28.4473C39.3561 28.4473 39.476 28.497 39.5645 28.5854C39.6529 28.6739 39.7026 28.7938 39.7026 28.9189V28.9189Z" fill="#F7D917" stroke="black" stroke-width="0.0137561"/>
<path d="M38.7699 28.9866H39.7081C39.7081 28.9866 39.7217 28.8051 39.6538 28.7372C39.5883 28.7372 39.3623 28.7372 39.3623 28.7372L39.3574 28.4651H39.2488H39.0811L39.0762 28.7372C39.0762 28.7372 38.8801 28.747 38.7898 28.747C38.7488 28.8582 38.7551 28.8675 38.7551 28.8675L38.7699 28.9866Z" fill="#F7D917" stroke="black" stroke-width="0.0137561"/>
<path d="M38.6269 31.2339C38.6269 31.2339 38.7978 31.373 38.9289 31.5518C39.0601 31.7307 39.1515 31.9493 39.1515 31.9493C39.1515 31.9493 38.9329 31.8579 38.7541 31.7267C38.5752 31.5956 38.4361 31.4247 38.4361 31.4247V32.6329C38.4361 32.6329 38.5752 32.462 38.7541 32.3308C38.9329 32.1997 39.1515 32.1083 39.1515 32.1083C39.1515 32.1083 39.0601 32.3269 38.9289 32.5057C38.7978 32.6846 38.6269 32.8237 38.6269 32.8237H39.8351C39.8351 32.8237 39.6642 32.6846 39.533 32.5057C39.4019 32.3269 39.3105 32.1083 39.3105 32.1083C39.3105 32.1083 39.5291 32.1997 39.7079 32.3308C39.8868 32.462 40.0259 32.6329 40.0259 32.6329V31.4247C40.0259 31.4247 39.8868 31.5956 39.7079 31.7267C39.5291 31.8579 39.3105 31.9493 39.3105 31.9493C39.3105 31.9493 39.4019 31.7307 39.533 31.5518C39.6642 31.373 39.8351 31.2339 39.8351 31.2339H38.6269Z" fill="#F7D917" stroke="black" stroke-width="0.0206342"/>
<path d="M36.3258 33.2852L36.9208 33.1803C36.9208 33.1803 36.7283 33.0729 36.5681 32.9196C36.4078 32.7662 36.2799 32.5668 36.2799 32.5668C36.2799 32.5668 36.511 32.6189 36.7099 32.717C36.9088 32.8151 37.0755 32.9593 37.0755 32.9593L36.8657 31.7694C36.8657 31.7694 36.7584 31.9618 36.605 32.1221C36.4517 32.2823 36.2523 32.4102 36.2523 32.4102C36.2523 32.4102 36.3043 32.1791 36.4024 31.9802C36.5005 31.7813 36.6447 31.6146 36.6447 31.6146L36.0497 31.7195L36.3258 33.2852Z" fill="#F7D917" stroke="black" stroke-width="0.0206342"/>
<path d="M41.8172 31.6146C41.8172 31.6146 41.9614 31.7813 42.0595 31.9802C42.1576 32.1791 42.2097 32.4102 42.2097 32.4102C42.2097 32.4102 42.0103 32.2823 41.8569 32.1221C41.7035 31.9618 41.5962 31.7694 41.5962 31.7694L41.3864 32.9593C41.3864 32.9593 41.5531 32.8151 41.752 32.717C41.9509 32.6189 42.1821 32.5668 42.1821 32.5668C42.1821 32.5668 42.0541 32.7662 41.8938 32.9196C41.7336 33.0729 41.5412 33.1803 41.5412 33.1803L42.1361 33.2852L42.4122 31.7195L41.8172 31.6146Z" fill="#F7D917" stroke="black" stroke-width="0.0206342"/>
<path d="M36.332 33.2234L36.3361 34.0902C36.3361 34.0902 37.7846 33.5969 39.233 33.5969C40.6815 33.5969 42.1299 34.0902 42.1299 34.0902V33.2234C42.1299 33.2234 40.6805 32.7301 39.231 32.7301C37.7815 32.7301 36.332 33.2234 36.332 33.2234V33.2234Z" fill="#F7D917" stroke="black" stroke-width="0.0206342"/>
<path d="M36.1977 31.5246C36.198 31.5537 36.1924 31.5826 36.1815 31.6096C36.1705 31.6366 36.1543 31.6611 36.1338 31.6818C36.1133 31.7025 36.0889 31.7189 36.062 31.7301C36.0351 31.7413 36.0063 31.7471 35.9772 31.7471C35.948 31.7471 35.9192 31.7413 35.8923 31.7301C35.8654 31.7189 35.841 31.7025 35.8205 31.6818C35.8 31.6611 35.7838 31.6366 35.7729 31.6096C35.7619 31.5826 35.7564 31.5537 35.7567 31.5246C35.7564 31.4955 35.7619 31.4666 35.7729 31.4396C35.7838 31.4126 35.8 31.3881 35.8205 31.3674C35.841 31.3467 35.8654 31.3302 35.8923 31.319C35.9192 31.3078 35.948 31.3021 35.9772 31.3021C36.0063 31.3021 36.0351 31.3078 36.062 31.319C36.0889 31.3302 36.1133 31.3467 36.1338 31.3674C36.1543 31.3881 36.1705 31.4126 36.1815 31.4396C36.1924 31.4666 36.198 31.4955 36.1977 31.5246V31.5246Z" fill="white" stroke="black" stroke-width="0.018192"/>
<path d="M39.5138 31.9787C39.5138 32.0542 39.4838 32.1267 39.4303 32.1802C39.3769 32.2336 39.3044 32.2636 39.2289 32.2636C39.1533 32.2636 39.0808 32.2336 39.0274 32.1802C38.9739 32.1267 38.9439 32.0542 38.9439 31.9787C38.9439 31.9031 38.9739 31.8306 39.0274 31.7772C39.0808 31.7237 39.1533 31.6937 39.2289 31.6937C39.3044 31.6937 39.3769 31.7237 39.4303 31.7772C39.4838 31.8306 39.5138 31.9031 39.5138 31.9787V31.9787Z" fill="white" stroke="black" stroke-width="0.0275122"/>
<path d="M38.8166 32.9459H39.6974V33.3299H38.8166V32.9459Z" fill="#012169" stroke="black" stroke-width="0.0213098"/>
<path d="M40.2194 33.2302C40.2207 33.2853 40.2637 33.3423 40.3387 33.3888C40.4138 33.4352 40.5149 33.4673 40.6197 33.4779C40.7244 33.4886 40.8244 33.4769 40.8975 33.4455C40.9707 33.4141 41.011 33.3655 41.0096 33.3104C41.0083 33.2553 40.9653 33.1983 40.8902 33.1518C40.8152 33.1054 40.7141 33.0733 40.6093 33.0627C40.5045 33.052 40.4046 33.0637 40.3314 33.0951C40.2583 33.1266 40.218 33.1751 40.2194 33.2302V33.2302Z" fill="#3E8225" stroke="black" stroke-width="0.0307138"/>
<path d="M36.3371 33.4322L36.1165 33.6528L36.3724 33.8006L36.9677 33.6411L36.8616 33.304L36.3371 33.4322Z" fill="#C8102E" stroke="black" stroke-width="0.0275178"/>
<path d="M42.1769 33.4322L42.3976 33.6528L42.1417 33.8006L41.5464 33.6411L41.6525 33.304L42.1769 33.4322Z" fill="#C8102E" stroke="black" stroke-width="0.0275178"/>
<path d="M38.2947 33.2302C38.2933 33.2853 38.2504 33.3423 38.1753 33.3888C38.1002 33.4352 37.9992 33.4673 37.8944 33.4779C37.7896 33.4886 37.6896 33.4769 37.6165 33.4455C37.5434 33.4141 37.503 33.3655 37.5044 33.3104C37.5058 33.2553 37.5487 33.1983 37.6238 33.1518C37.6989 33.1054 37.7999 33.0733 37.9047 33.0627C38.0095 33.052 38.1095 33.0637 38.1826 33.0951C38.2557 33.1266 38.2961 33.1751 38.2947 33.2302V33.2302Z" fill="#3E8225" stroke="black" stroke-width="0.0307138"/>
<path d="M38.6261 32.9746C38.6261 33.0034 38.6147 33.0309 38.5944 33.0513C38.574 33.0716 38.5464 33.083 38.5177 33.083C38.489 33.083 38.4614 33.0716 38.4411 33.0513C38.4207 33.0309 38.4093 33.0034 38.4093 32.9746C38.4093 32.9459 38.4207 32.9183 38.4411 32.898C38.4614 32.8776 38.489 32.8662 38.5177 32.8662C38.5464 32.8662 38.574 32.8776 38.5944 32.898C38.6147 32.9183 38.6261 32.9459 38.6261 32.9746V32.9746Z" fill="white" stroke="black" stroke-width="0.0253387"/>
<path d="M41.4455 34.7325C41.5282 34.7181 42.0277 34.5994 42.1328 34.5358C42.065 34.4135 41.9432 34.3178 42.0379 34.358C42.089 34.3797 42.1293 34.2111 41.9812 34.0822C41.5511 34.2233 40.5197 34.481 39.2236 34.481C37.8973 34.481 36.8529 34.2097 36.4228 34.0687C36.2747 34.1975 36.3208 34.3439 36.3119 34.3986C36.3118 34.3991 36.312 34.4677 36.339 34.5223C36.4848 34.6807 36.9571 34.7587 37.0399 34.7731C37.4289 34.8407 37.8179 34.9428 39.2228 34.9428C40.5224 34.9428 41.0564 34.8 41.4455 34.7325Z" fill="white" stroke="black" stroke-width="0.0434305"/>
<path d="M36.9967 33.8402C36.9139 33.8546 36.3874 34.0411 36.2822 34.1046C36.2823 34.105 36.2822 34.1059 36.2822 34.1063C36.2912 34.161 36.1908 34.4159 36.339 34.5447C36.769 34.4037 37.9766 33.9833 39.2727 33.9833C40.599 33.9833 41.6976 34.4037 42.1277 34.5447C42.2758 34.4159 42.1755 34.161 42.1845 34.1063C42.1845 34.1059 42.1843 34.105 42.1845 34.1046C42.0793 34.0411 41.5528 33.8546 41.47 33.8402C41.081 33.7727 40.6784 33.5215 39.2736 33.5215C37.974 33.5215 37.3857 33.7727 36.9967 33.8402Z" fill="white" stroke="black" stroke-width="0.0434143"/>
<path d="M36.6185 34.1558C36.6191 34.1601 36.6188 34.1644 36.6175 34.1686C36.6163 34.1728 36.6141 34.1768 36.6112 34.1802C36.6082 34.1837 36.6045 34.1866 36.6004 34.1887C36.5962 34.1909 36.5916 34.1923 36.5868 34.1929C36.5821 34.1934 36.5772 34.1931 36.5727 34.1919C36.5681 34.1908 36.5638 34.1888 36.5601 34.1861C36.5564 34.1834 36.5533 34.1801 36.5511 34.1763C36.5489 34.1725 36.5475 34.1683 36.5471 34.164C36.5464 34.1597 36.5468 34.1554 36.548 34.1512C36.5493 34.147 36.5514 34.143 36.5544 34.1396C36.5573 34.1361 36.561 34.1332 36.5652 34.1311C36.5694 34.1289 36.574 34.1275 36.5787 34.1269C36.5835 34.1264 36.5883 34.1267 36.5929 34.1279C36.5975 34.129 36.6017 34.131 36.6054 34.1337C36.6092 34.1364 36.6122 34.1397 36.6144 34.1435C36.6167 34.1473 36.618 34.1515 36.6185 34.1558Z" fill="black" stroke="black" stroke-width="0.0183271"/>
<path d="M36.5862 34.2339L36.8997 34.0899L36.7491 34.1899L36.8515 34.1766L36.7609 34.2271L36.9149 34.2213L36.5862 34.2339Z" fill="black" stroke="black" stroke-width="0.0366835"/>
<mask id="mask1_1_40176" style="mask-type:alpha" maskUnits="userSpaceOnUse" x="3" y="9" width="24" height="18">
<rect x="3" y="9" width="24" height="18" fill="#C4C4C4"/>
</mask>
<g mask="url(#mask1_1_40176)">
<rect x="3" y="9" width="24" height="18" fill="#2E50A6"/>
<path d="M3 9L27 27L3 9ZM27 9L3 27Z" fill="black"/>
<path d="M27 9L3 27M3 9L27 27L3 9Z" stroke="white" stroke-width="2.4"/>
<path d="M3 9L27 27L3 9ZM27 9L3 27Z" fill="black"/>
<path d="M27 9L3 27M3 9L27 27L3 9Z" stroke="#EE5757" stroke-width="1.6"/>
<path d="M15 9V30V9ZM3 18H31Z" fill="black"/>
<path d="M3 18H31M15 9V30V9Z" stroke="white" stroke-width="4"/>
<path d="M15 9V30V9ZM3 18H31Z" fill="black"/>
<path d="M3 18H31M15 9V30V9Z" stroke="#EE5757" stroke-width="2.4"/>
</g>
</g>
</svg>
