<svg width="54" height="54" viewBox="0 0 54 54" fill="none" xmlns="http://www.w3.org/2000/svg">
<mask id="mask0_1_33301" style="mask-type:alpha" maskUnits="userSpaceOnUse" x="3" y="9" width="48" height="36">
<path d="M3.56934 18.1356C4.16681 13.4125 8.0415 10.0019 12.7861 9.60887C16.6412 9.28949 21.6196 9 27 9C32.3804 9 37.3588 9.28949 41.2139 9.60887C45.9585 10.0019 49.8332 13.4125 50.4307 18.1356C50.752 20.6759 51 23.704 51 27C51 30.296 50.752 33.3241 50.4307 35.8644C49.8332 40.5875 45.9585 43.9981 41.2139 44.3911C37.3588 44.7105 32.3804 45 27 45C21.6196 45 16.6412 44.7105 12.7861 44.3911C8.04151 43.9981 4.16681 40.5875 3.56934 35.8644C3.248 33.3241 3 30.296 3 27C3 23.704 3.248 20.6759 3.56934 18.1356Z" fill="#00D0BF"/>
</mask>
<g mask="url(#mask0_1_33301)">
<rect x="3" y="33" width="48" height="12" fill="#EE5757"/>
<rect x="3" y="21" width="48" height="12" fill="#F5F5F5"/>
<path d="M24.8073 30.2023C25.609 30.4628 26.4761 30.4376 27.2612 30.1311C28.0464 29.8246 28.7013 29.2557 29.1145 28.521C29.5277 27.7864 29.6737 26.9313 29.5278 26.1011C29.3819 25.271 28.9531 24.5169 28.3141 23.9672C28.7299 24.5824 28.9662 25.3011 28.9966 26.043C29.027 26.7849 28.8504 27.5206 28.4864 28.1678C28.1224 28.8149 27.5854 29.348 26.9357 29.7073C26.2859 30.0667 25.549 30.238 24.8073 30.2023" fill="#EE5757"/>
<path d="M29.1926 30.2023C28.3909 30.4628 27.5238 30.4376 26.7386 30.1311C25.9534 29.8246 25.2986 29.2557 24.8854 28.521C24.4722 27.7864 24.3261 26.9313 24.472 26.1011C24.6179 25.271 25.0468 24.5169 25.6857 23.9672C25.27 24.5824 25.0337 25.3011 25.0033 26.043C24.9729 26.7849 25.1495 27.5206 25.5135 28.1678C25.8775 28.8149 26.4144 29.348 27.0642 29.7073C27.714 30.0667 28.4509 30.238 29.1926 30.2023" fill="#EE5757"/>
<path d="M29.4733 29.5024C30.0002 29.1979 30.4241 28.743 30.6908 28.1961C30.9575 27.6491 31.0549 27.0349 30.9704 26.4323C30.8858 25.8297 30.6233 25.266 30.2164 24.8135C29.8095 24.361 29.2768 24.0403 28.6865 23.8925C29.1071 24.2087 29.4612 24.6048 29.7285 25.0582C29.9958 25.5115 30.171 26.013 30.2441 26.5342C30.3171 27.0553 30.2867 27.5857 30.1544 28.0951C30.0222 28.6044 29.7907 29.0827 29.4733 29.5024" fill="#EE5757"/>
<path d="M24.5266 29.5024C23.9997 29.1979 23.5758 28.743 23.309 28.1961C23.0423 27.6491 22.945 27.0349 23.0295 26.4323C23.114 25.8297 23.3766 25.266 23.7834 24.8135C24.1903 24.361 24.7231 24.0403 25.3134 23.8925C24.8927 24.2087 24.5386 24.6048 24.2714 25.0582C24.0041 25.5115 23.8289 26.013 23.7558 26.5342C23.6827 27.0553 23.7132 27.5857 23.8454 28.0951C23.9777 28.6044 24.2092 29.0827 24.5266 29.5024" fill="#EE5757"/>
<path d="M26.9999 30.8568L26.7999 26.8567L26.9999 23.7076C27.1214 23.8773 27.2838 24.0137 27.4721 24.1039V26.4551L27.3112 30.4284L26.9999 30.8568Z" fill="#EE5757"/>
<path d="M27.0276 30.8948L27.2276 26.8947L27.0276 23.7456C26.9061 23.9153 26.7437 24.0517 26.5555 24.1419V26.4931L26.7164 30.4664L27.0276 30.8948Z" fill="#EE5757"/>
<path d="M26.9199 23.4567L26.9999 23.5318C27.0813 23.6475 27.2023 23.7293 27.34 23.7617C27.4777 23.794 27.6225 23.7747 27.7469 23.7073C27.8713 23.64 27.9666 23.5293 28.0148 23.3963C28.063 23.2633 28.0606 23.1172 28.0082 22.9859C27.9876 23.0953 27.9339 23.1958 27.8545 23.2738C27.7751 23.3519 27.6737 23.4037 27.564 23.4225C27.4542 23.4412 27.3413 23.426 27.2405 23.3787C27.1397 23.3315 27.0557 23.2545 26.9999 23.1582" fill="#EE5757"/>
<path d="M27.08 23.4567L27 23.5318C26.9186 23.6475 26.7975 23.7293 26.6598 23.7617C26.5221 23.794 26.3773 23.7747 26.253 23.7073C26.1286 23.64 26.0332 23.5293 25.9851 23.3963C25.9369 23.2633 25.9392 23.1172 25.9916 22.9859C26.0123 23.0953 26.0659 23.1958 26.1453 23.2738C26.2248 23.3519 26.3262 23.4037 26.4359 23.4225C26.5457 23.4412 26.6585 23.426 26.7594 23.3787C26.8602 23.3315 26.9441 23.2545 27 23.1582" fill="#EE5757"/>
<rect x="3" y="9" width="48" height="12" fill="#59C785"/>
<path d="M7.432 19.0317V19.9677M3.99982 19.1357H6.70396H3.99982ZM4.10382 20.0717V19.5517H4.93587V19.9677H5.76791V19.5517H5.24788L4.10382 20.0717ZM4.41584 19.9677H4.62385H4.41584ZM6.70396 19.9677H6.18394V19.5517H7.01598L6.70396 19.9677ZM7.01598 19.0317V19.9677H7.84803V19.0317H7.01598Z" stroke="white" stroke-width="0.208011"/>
<path d="M6.07993 20.4878H7.95203M3.99982 20.4878H5.87192H3.99982Z" stroke="white" stroke-width="0.416023"/>
<path d="M7.432 33V33.9361M3.99982 33.104H6.70396H3.99982ZM4.10382 34.0401V33.52H4.93587V33.9361H5.76791V33.52H5.24788L4.10382 34.0401ZM4.41584 33.9361H4.62385H4.41584ZM6.70396 33.9361H6.18394V33.52H7.01598L6.70396 33.9361ZM7.01598 33V33.9361H7.84803V33H7.01598Z" stroke="white" stroke-width="0.208011"/>
<path d="M6.07993 34.4561H7.95203M3.99982 34.4561H5.87192H3.99982Z" stroke="white" stroke-width="0.416023"/>
<path d="M11.6368 19.0317V19.9677M8.20459 19.1357H10.9087H8.20459ZM8.3086 20.0717V19.5517H9.14064V19.9677H9.97269V19.5517H9.45266L8.3086 20.0717ZM8.62061 19.9677H8.82862H8.62061ZM10.9087 19.9677H10.3887V19.5517H11.2208L10.9087 19.9677ZM11.2208 19.0317V19.9677H12.0528V19.0317H11.2208Z" stroke="white" stroke-width="0.208011"/>
<path d="M10.2847 20.4878H12.1568M8.20459 20.4878H10.0767H8.20459Z" stroke="white" stroke-width="0.416023"/>
<path d="M11.6368 33V33.9361M8.20459 33.104H10.9087H8.20459ZM8.3086 34.0401V33.52H9.14064V33.9361H9.97269V33.52H9.45266L8.3086 34.0401ZM8.62061 33.9361H8.82862H8.62061ZM10.9087 33.9361H10.3887V33.52H11.2208L10.9087 33.9361ZM11.2208 33V33.9361H12.0528V33H11.2208Z" stroke="white" stroke-width="0.208011"/>
<path d="M10.2847 34.4561H12.1568M8.20459 34.4561H10.0767H8.20459Z" stroke="white" stroke-width="0.416023"/>
<path d="M15.8415 19.0317V19.9677M12.4094 19.1357H15.1135H12.4094ZM12.5134 20.0717V19.5517H13.3454V19.9677H14.1775V19.5517H13.6574L12.5134 20.0717ZM12.8254 19.9677H13.0334H12.8254ZM15.1135 19.9677H14.5935V19.5517H15.4255L15.1135 19.9677ZM15.4255 19.0317V19.9677H16.2576V19.0317H15.4255Z" stroke="white" stroke-width="0.208011"/>
<path d="M14.4895 20.4878H16.3616M12.4094 20.4878H14.2815H12.4094Z" stroke="white" stroke-width="0.416023"/>
<path d="M15.8415 33V33.9361M12.4094 33.104H15.1135H12.4094ZM12.5134 34.0401V33.52H13.3454V33.9361H14.1775V33.52H13.6574L12.5134 34.0401ZM12.8254 33.9361H13.0334H12.8254ZM15.1135 33.9361H14.5935V33.52H15.4255L15.1135 33.9361ZM15.4255 33V33.9361H16.2576V33H15.4255Z" stroke="white" stroke-width="0.208011"/>
<path d="M14.4895 34.4561H16.3616M12.4094 34.4561H14.2815H12.4094Z" stroke="white" stroke-width="0.416023"/>
<path d="M20.0464 19.0317V19.9677M16.6142 19.1357H19.3183H16.6142ZM16.7182 20.0717V19.5517H17.5502V19.9677H18.3823V19.5517H17.8623L16.7182 20.0717ZM17.0302 19.9677H17.2382H17.0302ZM19.3183 19.9677H18.7983V19.5517H19.6304L19.3183 19.9677ZM19.6304 19.0317V19.9677H20.4624V19.0317H19.6304Z" stroke="white" stroke-width="0.208011"/>
<path d="M18.6943 20.4878H20.5664M16.6142 20.4878H18.4863H16.6142Z" stroke="white" stroke-width="0.416023"/>
<path d="M20.0464 33V33.9361M16.6142 33.104H19.3183H16.6142ZM16.7182 34.0401V33.52H17.5502V33.9361H18.3823V33.52H17.8623L16.7182 34.0401ZM17.0302 33.9361H17.2382H17.0302ZM19.3183 33.9361H18.7983V33.52H19.6304L19.3183 33.9361ZM19.6304 33V33.9361H20.4624V33H19.6304Z" stroke="white" stroke-width="0.208011"/>
<path d="M18.6943 34.4561H20.5664M16.6142 34.4561H18.4863H16.6142Z" stroke="white" stroke-width="0.416023"/>
<path d="M24.2512 19.0317V19.9677M20.819 19.1357H23.5231H20.819ZM20.923 20.0717V19.5517H21.755V19.9677H22.5871V19.5517H22.067L20.923 20.0717ZM21.235 19.9677H21.443H21.235ZM23.5231 19.9677H23.0031V19.5517H23.8351L23.5231 19.9677ZM23.8351 19.0317V19.9677H24.6672V19.0317H23.8351Z" stroke="white" stroke-width="0.208011"/>
<path d="M22.8991 20.4878H24.7712M20.819 20.4878H22.6911H20.819Z" stroke="white" stroke-width="0.416023"/>
<path d="M24.2512 33V33.9361M20.819 33.104H23.5231H20.819ZM20.923 34.0401V33.52H21.755V33.9361H22.5871V33.52H22.067L20.923 34.0401ZM21.235 33.9361H21.443H21.235ZM23.5231 33.9361H23.0031V33.52H23.8351L23.5231 33.9361ZM23.8351 33V33.9361H24.6672V33H23.8351Z" stroke="white" stroke-width="0.208011"/>
<path d="M22.8991 34.4561H24.7712M20.819 34.4561H22.6911H20.819Z" stroke="white" stroke-width="0.416023"/>
<path d="M28.456 19.0317V19.9677M25.0238 19.1357H27.728H25.0238ZM25.1278 20.0717V19.5517H25.9599V19.9677H26.7919V19.5517H26.2719L25.1278 20.0717ZM25.4398 19.9677H25.6478H25.4398ZM27.728 19.9677H27.2079V19.5517H28.04L27.728 19.9677ZM28.04 19.0317V19.9677H28.872V19.0317H28.04Z" stroke="white" stroke-width="0.208011"/>
<path d="M27.1039 20.4878H28.976M25.0238 20.4878H26.8959H25.0238Z" stroke="white" stroke-width="0.416023"/>
<path d="M28.456 33V33.9361M25.0238 33.104H27.728H25.0238ZM25.1278 34.0401V33.52H25.9599V33.9361H26.7919V33.52H26.2719L25.1278 34.0401ZM25.4398 33.9361H25.6478H25.4398ZM27.728 33.9361H27.2079V33.52H28.04L27.728 33.9361ZM28.04 33V33.9361H28.872V33H28.04Z" stroke="white" stroke-width="0.208011"/>
<path d="M27.1039 34.4561H28.976M25.0238 34.4561H26.8959H25.0238Z" stroke="white" stroke-width="0.416023"/>
<path d="M32.6608 19.0317V19.9677M29.2286 19.1357H31.9327H29.2286ZM29.3326 20.0717V19.5517H30.1646V19.9677H30.9967V19.5517H30.4766L29.3326 20.0717ZM29.6446 19.9677H29.8526H29.6446ZM31.9327 19.9677H31.4127V19.5517H32.2447L31.9327 19.9677ZM32.2447 19.0317V19.9677H33.0768V19.0317H32.2447Z" stroke="white" stroke-width="0.208011"/>
<path d="M31.3087 20.4878H33.1808M29.2286 20.4878H31.1007H29.2286Z" stroke="white" stroke-width="0.416023"/>
<path d="M32.6608 33V33.9361M29.2286 33.104H31.9327H29.2286ZM29.3326 34.0401V33.52H30.1646V33.9361H30.9967V33.52H30.4766L29.3326 34.0401ZM29.6446 33.9361H29.8526H29.6446ZM31.9327 33.9361H31.4127V33.52H32.2447L31.9327 33.9361ZM32.2447 33V33.9361H33.0768V33H32.2447Z" stroke="white" stroke-width="0.208011"/>
<path d="M31.3087 34.4561H33.1808M29.2286 34.4561H31.1007H29.2286Z" stroke="white" stroke-width="0.416023"/>
<path d="M36.8655 19.0317V19.9677M33.4333 19.1357H36.1375H33.4333ZM33.5374 20.0717V19.5517H34.3694V19.9677H35.2014V19.5517H34.6814L33.5374 20.0717ZM33.8494 19.9677H34.0574H33.8494ZM36.1375 19.9677H35.6175V19.5517H36.4495L36.1375 19.9677ZM36.4495 19.0317V19.9677H37.2816V19.0317H36.4495Z" stroke="white" stroke-width="0.208011"/>
<path d="M35.5135 20.4878H37.3856M33.4333 20.4878H35.3055H33.4333Z" stroke="white" stroke-width="0.416023"/>
<path d="M36.8655 33V33.9361M33.4333 33.104H36.1375H33.4333ZM33.5374 34.0401V33.52H34.3694V33.9361H35.2014V33.52H34.6814L33.5374 34.0401ZM33.8494 33.9361H34.0574H33.8494ZM36.1375 33.9361H35.6175V33.52H36.4495L36.1375 33.9361ZM36.4495 33V33.9361H37.2816V33H36.4495Z" stroke="white" stroke-width="0.208011"/>
<path d="M35.5135 34.4561H37.3856M33.4333 34.4561H35.3055H33.4333Z" stroke="white" stroke-width="0.416023"/>
<path d="M41.0704 19.0317V19.9677M37.6382 19.1357H40.3423H37.6382ZM37.7422 20.0717V19.5517H38.5742V19.9677H39.4063V19.5517H38.8863L37.7422 20.0717ZM38.0542 19.9677H38.2622H38.0542ZM40.3423 19.9677H39.8223V19.5517H40.6543L40.3423 19.9677ZM40.6543 19.0317V19.9677H41.4864V19.0317H40.6543Z" stroke="white" stroke-width="0.208011"/>
<path d="M39.7183 20.4878H41.5904M37.6382 20.4878H39.5103H37.6382Z" stroke="white" stroke-width="0.416023"/>
<path d="M41.0704 33V33.9361M37.6382 33.104H40.3423H37.6382ZM37.7422 34.0401V33.52H38.5742V33.9361H39.4063V33.52H38.8863L37.7422 34.0401ZM38.0542 33.9361H38.2622H38.0542ZM40.3423 33.9361H39.8223V33.52H40.6543L40.3423 33.9361ZM40.6543 33V33.9361H41.4864V33H40.6543Z" stroke="white" stroke-width="0.208011"/>
<path d="M39.7183 34.4561H41.5904M37.6382 34.4561H39.5103H37.6382Z" stroke="white" stroke-width="0.416023"/>
<path d="M45.2752 19.0317V19.9677M41.843 19.1357H44.5472H41.843ZM41.947 20.0717V19.5517H42.7791V19.9677H43.6111V19.5517H43.0911L41.947 20.0717ZM42.259 19.9677H42.4671H42.259ZM44.5472 19.9677H44.0271V19.5517H44.8592L44.5472 19.9677ZM44.8592 19.0317V19.9677H45.6912V19.0317H44.8592Z" stroke="white" stroke-width="0.208011"/>
<path d="M43.9231 20.4878H45.7952M41.843 20.4878H43.7151H41.843Z" stroke="white" stroke-width="0.416023"/>
<path d="M45.2752 33V33.9361M41.843 33.104H44.5472H41.843ZM41.947 34.0401V33.52H42.7791V33.9361H43.6111V33.52H43.0911L41.947 34.0401ZM42.259 33.9361H42.4671H42.259ZM44.5472 33.9361H44.0271V33.52H44.8592L44.5472 33.9361ZM44.8592 33V33.9361H45.6912V33H44.8592Z" stroke="white" stroke-width="0.208011"/>
<path d="M43.9231 34.4561H45.7952M41.843 34.4561H43.7151H41.843Z" stroke="white" stroke-width="0.416023"/>
<path d="M49.48 19.0317V19.9677M46.0478 19.1357H48.7519H46.0478ZM46.1518 20.0717V19.5517H46.9838V19.9677H47.8159V19.5517H47.2959L46.1518 20.0717ZM46.4638 19.9677H46.6718H46.4638ZM48.7519 19.9677H48.2319V19.5517H49.064L48.7519 19.9677ZM49.064 19.0317V19.9677H49.896V19.0317H49.064Z" stroke="white" stroke-width="0.208011"/>
<path d="M48.1279 20.4878H50M46.0478 20.4878H47.9199H46.0478Z" stroke="white" stroke-width="0.416023"/>
<path d="M49.48 33V33.9361M46.0478 33.104H48.7519H46.0478ZM46.1518 34.0401V33.52H46.9838V33.9361H47.8159V33.52H47.2959L46.1518 34.0401ZM46.4638 33.9361H46.6718H46.4638ZM48.7519 33.9361H48.2319V33.52H49.064L48.7519 33.9361ZM49.064 33V33.9361H49.896V33H49.064Z" stroke="white" stroke-width="0.208011"/>
<path d="M48.1279 34.4561H50M46.0478 34.4561H47.9199H46.0478Z" stroke="white" stroke-width="0.416023"/>
</g>
</svg>
