<svg width="54" height="48" viewBox="0 0 54 48" fill="none" xmlns="http://www.w3.org/2000/svg">
<mask id="mask0_1_33301" style="mask-type:alpha" maskUnits="userSpaceOnUse" x="3" y="6" width="48" height="36">
<path d="M3.56934 15.1356C4.16681 10.4125 8.0415 7.00193 12.7861 6.60887C16.6412 6.28949 21.6196 6 27 6C32.3804 6 37.3588 6.28949 41.2139 6.60887C45.9585 7.00193 49.8332 10.4125 50.4307 15.1356C50.752 17.6759 51 20.704 51 24C51 27.296 50.752 30.3241 50.4307 32.8644C49.8332 37.5875 45.9585 40.9981 41.2139 41.3911C37.3588 41.7105 32.3804 42 27 42C21.6196 42 16.6412 41.7105 12.7861 41.3911C8.0415 40.9981 4.16681 37.5875 3.56934 32.8644C3.248 30.3241 3 27.296 3 24C3 20.704 3.248 17.6759 3.56934 15.1356Z" fill="#00D0BF"/>
</mask>
<g mask="url(#mask0_1_33301)">
<rect x="3" y="30" width="48" height="12" fill="#EE5757"/>
<rect x="3" y="18" width="48" height="12" fill="#F5F5F5"/>
<path d="M24.8073 27.2023C25.609 27.4628 26.4761 27.4376 27.2612 27.1311C28.0464 26.8246 28.7013 26.2557 29.1145 25.521C29.5277 24.7864 29.6737 23.9313 29.5278 23.1011C29.3819 22.271 28.9531 21.5169 28.3141 20.9672C28.7299 21.5824 28.9662 22.3011 28.9966 23.043C29.027 23.7849 28.8504 24.5206 28.4864 25.1678C28.1224 25.8149 27.5854 26.348 26.9357 26.7073C26.2859 27.0667 25.549 27.238 24.8073 27.2023Z" fill="#EE5757"/>
<path d="M29.1926 27.2023C28.3909 27.4628 27.5238 27.4376 26.7386 27.1311C25.9534 26.8246 25.2986 26.2557 24.8854 25.521C24.4722 24.7864 24.3261 23.9313 24.472 23.1011C24.6179 22.271 25.0468 21.5169 25.6857 20.9672C25.27 21.5824 25.0337 22.3011 25.0033 23.043C24.9729 23.7849 25.1495 24.5206 25.5135 25.1678C25.8775 25.8149 26.4144 26.348 27.0642 26.7073C27.714 27.0667 28.4509 27.238 29.1926 27.2023Z" fill="#EE5757"/>
<path d="M29.4733 26.5024C30.0002 26.1979 30.4241 25.743 30.6908 25.1961C30.9575 24.6491 31.0549 24.0349 30.9704 23.4323C30.8858 22.8297 30.6233 22.266 30.2164 21.8135C29.8095 21.361 29.2768 21.0403 28.6865 20.8925C29.1071 21.2087 29.4612 21.6048 29.7285 22.0582C29.9958 22.5115 30.171 23.013 30.2441 23.5342C30.3171 24.0553 30.2867 24.5857 30.1544 25.0951C30.0222 25.6044 29.7907 26.0827 29.4733 26.5024Z" fill="#EE5757"/>
<path d="M24.5266 26.5024C23.9997 26.1979 23.5758 25.743 23.309 25.1961C23.0423 24.6491 22.945 24.0349 23.0295 23.4323C23.114 22.8297 23.3766 22.266 23.7834 21.8135C24.1903 21.361 24.7231 21.0403 25.3134 20.8925C24.8927 21.2087 24.5386 21.6048 24.2714 22.0582C24.0041 22.5115 23.8289 23.013 23.7558 23.5342C23.6827 24.0553 23.7132 24.5857 23.8454 25.0951C23.9777 25.6044 24.2092 26.0827 24.5266 26.5024Z" fill="#EE5757"/>
<path d="M26.9999 27.8568L26.7999 23.8567L26.9999 20.7076C27.1214 20.8773 27.2838 21.0137 27.4721 21.1039V23.4551L27.3112 27.4284L26.9999 27.8568Z" fill="#EE5757"/>
<path d="M27.0276 27.8948L27.2276 23.8947L27.0276 20.7456C26.9061 20.9153 26.7437 21.0517 26.5555 21.1419V23.4931L26.7164 27.4664L27.0276 27.8948Z" fill="#EE5757"/>
<path d="M26.9199 20.4567L26.9999 20.5318C27.0813 20.6475 27.2023 20.7293 27.34 20.7617C27.4777 20.794 27.6225 20.7747 27.7469 20.7073C27.8713 20.64 27.9666 20.5293 28.0148 20.3963C28.063 20.2633 28.0606 20.1172 28.0082 19.9859C27.9876 20.0953 27.9339 20.1958 27.8545 20.2738C27.7751 20.3519 27.6737 20.4037 27.564 20.4225C27.4542 20.4412 27.3413 20.426 27.2405 20.3787C27.1397 20.3315 27.0557 20.2545 26.9999 20.1582" fill="#EE5757"/>
<path d="M27.08 20.4567L27 20.5318C26.9186 20.6475 26.7975 20.7293 26.6598 20.7617C26.5221 20.794 26.3773 20.7747 26.253 20.7073C26.1286 20.64 26.0332 20.5293 25.9851 20.3963C25.9369 20.2633 25.9392 20.1172 25.9916 19.9859C26.0123 20.0953 26.0659 20.1958 26.1453 20.2738C26.2248 20.3519 26.3262 20.4037 26.4359 20.4225C26.5457 20.4412 26.6585 20.426 26.7594 20.3787C26.8602 20.3315 26.9441 20.2545 27 20.1582" fill="#EE5757"/>
<rect x="3" y="6" width="48" height="12" fill="#59C785"/>
<path d="M7.432 16.0317V16.9677M3.99982 16.1357H6.70396H3.99982ZM4.10382 17.0717V16.5517H4.93587V16.9677H5.76791V16.5517H5.24788L4.10382 17.0717ZM4.41584 16.9677H4.62385H4.41584ZM6.70396 16.9677H6.18394V16.5517H7.01598L6.70396 16.9677ZM7.01598 16.0317V16.9677H7.84803V16.0317H7.01598Z" stroke="white" stroke-width="0.208011"/>
<path d="M6.07993 17.4878H7.95203M3.99982 17.4878H5.87192H3.99982Z" stroke="white" stroke-width="0.416023"/>
<path d="M7.432 30V30.9361M3.99982 30.104H6.70396H3.99982ZM4.10382 31.0401V30.52H4.93587V30.9361H5.76791V30.52H5.24788L4.10382 31.0401ZM4.41584 30.9361H4.62385H4.41584ZM6.70396 30.9361H6.18394V30.52H7.01598L6.70396 30.9361ZM7.01598 30V30.9361H7.84803V30H7.01598Z" stroke="white" stroke-width="0.208011"/>
<path d="M6.07993 31.4561H7.95203M3.99982 31.4561H5.87192H3.99982Z" stroke="white" stroke-width="0.416023"/>
<path d="M11.6368 16.0317V16.9677M8.20459 16.1357H10.9087H8.20459ZM8.3086 17.0717V16.5517H9.14064V16.9677H9.97269V16.5517H9.45266L8.3086 17.0717ZM8.62061 16.9677H8.82862H8.62061ZM10.9087 16.9677H10.3887V16.5517H11.2208L10.9087 16.9677ZM11.2208 16.0317V16.9677H12.0528V16.0317H11.2208Z" stroke="white" stroke-width="0.208011"/>
<path d="M10.2847 17.4878H12.1568M8.20459 17.4878H10.0767H8.20459Z" stroke="white" stroke-width="0.416023"/>
<path d="M11.6368 30V30.9361M8.20459 30.104H10.9087H8.20459ZM8.3086 31.0401V30.52H9.14064V30.9361H9.97269V30.52H9.45266L8.3086 31.0401ZM8.62061 30.9361H8.82862H8.62061ZM10.9087 30.9361H10.3887V30.52H11.2208L10.9087 30.9361ZM11.2208 30V30.9361H12.0528V30H11.2208Z" stroke="white" stroke-width="0.208011"/>
<path d="M10.2847 31.4561H12.1568M8.20459 31.4561H10.0767H8.20459Z" stroke="white" stroke-width="0.416023"/>
<path d="M15.8415 16.0317V16.9677M12.4094 16.1357H15.1135H12.4094ZM12.5134 17.0717V16.5517H13.3454V16.9677H14.1775V16.5517H13.6574L12.5134 17.0717ZM12.8254 16.9677H13.0334H12.8254ZM15.1135 16.9677H14.5935V16.5517H15.4255L15.1135 16.9677ZM15.4255 16.0317V16.9677H16.2576V16.0317H15.4255Z" stroke="white" stroke-width="0.208011"/>
<path d="M14.4895 17.4878H16.3616M12.4094 17.4878H14.2815H12.4094Z" stroke="white" stroke-width="0.416023"/>
<path d="M15.8415 30V30.9361M12.4094 30.104H15.1135H12.4094ZM12.5134 31.0401V30.52H13.3454V30.9361H14.1775V30.52H13.6574L12.5134 31.0401ZM12.8254 30.9361H13.0334H12.8254ZM15.1135 30.9361H14.5935V30.52H15.4255L15.1135 30.9361ZM15.4255 30V30.9361H16.2576V30H15.4255Z" stroke="white" stroke-width="0.208011"/>
<path d="M14.4895 31.4561H16.3616M12.4094 31.4561H14.2815H12.4094Z" stroke="white" stroke-width="0.416023"/>
<path d="M20.0464 16.0317V16.9677M16.6142 16.1357H19.3183H16.6142ZM16.7182 17.0717V16.5517H17.5502V16.9677H18.3823V16.5517H17.8623L16.7182 17.0717ZM17.0302 16.9677H17.2382H17.0302ZM19.3183 16.9677H18.7983V16.5517H19.6304L19.3183 16.9677ZM19.6304 16.0317V16.9677H20.4624V16.0317H19.6304Z" stroke="white" stroke-width="0.208011"/>
<path d="M18.6943 17.4878H20.5664M16.6142 17.4878H18.4863H16.6142Z" stroke="white" stroke-width="0.416023"/>
<path d="M20.0464 30V30.9361M16.6142 30.104H19.3183H16.6142ZM16.7182 31.0401V30.52H17.5502V30.9361H18.3823V30.52H17.8623L16.7182 31.0401ZM17.0302 30.9361H17.2382H17.0302ZM19.3183 30.9361H18.7983V30.52H19.6304L19.3183 30.9361ZM19.6304 30V30.9361H20.4624V30H19.6304Z" stroke="white" stroke-width="0.208011"/>
<path d="M18.6943 31.4561H20.5664M16.6142 31.4561H18.4863H16.6142Z" stroke="white" stroke-width="0.416023"/>
<path d="M24.2512 16.0317V16.9677M20.819 16.1357H23.5231H20.819ZM20.923 17.0717V16.5517H21.755V16.9677H22.5871V16.5517H22.067L20.923 17.0717ZM21.235 16.9677H21.443H21.235ZM23.5231 16.9677H23.0031V16.5517H23.8351L23.5231 16.9677ZM23.8351 16.0317V16.9677H24.6672V16.0317H23.8351Z" stroke="white" stroke-width="0.208011"/>
<path d="M22.8991 17.4878H24.7712M20.819 17.4878H22.6911H20.819Z" stroke="white" stroke-width="0.416023"/>
<path d="M24.2512 30V30.9361M20.819 30.104H23.5231H20.819ZM20.923 31.0401V30.52H21.755V30.9361H22.5871V30.52H22.067L20.923 31.0401ZM21.235 30.9361H21.443H21.235ZM23.5231 30.9361H23.0031V30.52H23.8351L23.5231 30.9361ZM23.8351 30V30.9361H24.6672V30H23.8351Z" stroke="white" stroke-width="0.208011"/>
<path d="M22.8991 31.4561H24.7712M20.819 31.4561H22.6911H20.819Z" stroke="white" stroke-width="0.416023"/>
<path d="M28.456 16.0317V16.9677M25.0238 16.1357H27.728H25.0238ZM25.1278 17.0717V16.5517H25.9599V16.9677H26.7919V16.5517H26.2719L25.1278 17.0717ZM25.4398 16.9677H25.6478H25.4398ZM27.728 16.9677H27.2079V16.5517H28.04L27.728 16.9677ZM28.04 16.0317V16.9677H28.872V16.0317H28.04Z" stroke="white" stroke-width="0.208011"/>
<path d="M27.1039 17.4878H28.976M25.0238 17.4878H26.8959H25.0238Z" stroke="white" stroke-width="0.416023"/>
<path d="M28.456 30V30.9361M25.0238 30.104H27.728H25.0238ZM25.1278 31.0401V30.52H25.9599V30.9361H26.7919V30.52H26.2719L25.1278 31.0401ZM25.4398 30.9361H25.6478H25.4398ZM27.728 30.9361H27.2079V30.52H28.04L27.728 30.9361ZM28.04 30V30.9361H28.872V30H28.04Z" stroke="white" stroke-width="0.208011"/>
<path d="M27.1039 31.4561H28.976M25.0238 31.4561H26.8959H25.0238Z" stroke="white" stroke-width="0.416023"/>
<path d="M32.6608 16.0317V16.9677M29.2286 16.1357H31.9327H29.2286ZM29.3326 17.0717V16.5517H30.1646V16.9677H30.9967V16.5517H30.4766L29.3326 17.0717ZM29.6446 16.9677H29.8526H29.6446ZM31.9327 16.9677H31.4127V16.5517H32.2447L31.9327 16.9677ZM32.2447 16.0317V16.9677H33.0768V16.0317H32.2447Z" stroke="white" stroke-width="0.208011"/>
<path d="M31.3087 17.4878H33.1808M29.2286 17.4878H31.1007H29.2286Z" stroke="white" stroke-width="0.416023"/>
<path d="M32.6608 30V30.9361M29.2286 30.104H31.9327H29.2286ZM29.3326 31.0401V30.52H30.1646V30.9361H30.9967V30.52H30.4766L29.3326 31.0401ZM29.6446 30.9361H29.8526H29.6446ZM31.9327 30.9361H31.4127V30.52H32.2447L31.9327 30.9361ZM32.2447 30V30.9361H33.0768V30H32.2447Z" stroke="white" stroke-width="0.208011"/>
<path d="M31.3087 31.4561H33.1808M29.2286 31.4561H31.1007H29.2286Z" stroke="white" stroke-width="0.416023"/>
<path d="M36.8655 16.0317V16.9677M33.4333 16.1357H36.1375H33.4333ZM33.5374 17.0717V16.5517H34.3694V16.9677H35.2014V16.5517H34.6814L33.5374 17.0717ZM33.8494 16.9677H34.0574H33.8494ZM36.1375 16.9677H35.6175V16.5517H36.4495L36.1375 16.9677ZM36.4495 16.0317V16.9677H37.2816V16.0317H36.4495Z" stroke="white" stroke-width="0.208011"/>
<path d="M35.5135 17.4878H37.3856M33.4333 17.4878H35.3055H33.4333Z" stroke="white" stroke-width="0.416023"/>
<path d="M36.8655 30V30.9361M33.4333 30.104H36.1375H33.4333ZM33.5374 31.0401V30.52H34.3694V30.9361H35.2014V30.52H34.6814L33.5374 31.0401ZM33.8494 30.9361H34.0574H33.8494ZM36.1375 30.9361H35.6175V30.52H36.4495L36.1375 30.9361ZM36.4495 30V30.9361H37.2816V30H36.4495Z" stroke="white" stroke-width="0.208011"/>
<path d="M35.5135 31.4561H37.3856M33.4333 31.4561H35.3055H33.4333Z" stroke="white" stroke-width="0.416023"/>
<path d="M41.0704 16.0317V16.9677M37.6382 16.1357H40.3423H37.6382ZM37.7422 17.0717V16.5517H38.5742V16.9677H39.4063V16.5517H38.8863L37.7422 17.0717ZM38.0542 16.9677H38.2622H38.0542ZM40.3423 16.9677H39.8223V16.5517H40.6543L40.3423 16.9677ZM40.6543 16.0317V16.9677H41.4864V16.0317H40.6543Z" stroke="white" stroke-width="0.208011"/>
<path d="M39.7183 17.4878H41.5904M37.6382 17.4878H39.5103H37.6382Z" stroke="white" stroke-width="0.416023"/>
<path d="M41.0704 30V30.9361M37.6382 30.104H40.3423H37.6382ZM37.7422 31.0401V30.52H38.5742V30.9361H39.4063V30.52H38.8863L37.7422 31.0401ZM38.0542 30.9361H38.2622H38.0542ZM40.3423 30.9361H39.8223V30.52H40.6543L40.3423 30.9361ZM40.6543 30V30.9361H41.4864V30H40.6543Z" stroke="white" stroke-width="0.208011"/>
<path d="M39.7183 31.4561H41.5904M37.6382 31.4561H39.5103H37.6382Z" stroke="white" stroke-width="0.416023"/>
<path d="M45.2752 16.0317V16.9677M41.843 16.1357H44.5472H41.843ZM41.947 17.0717V16.5517H42.7791V16.9677H43.6111V16.5517H43.0911L41.947 17.0717ZM42.259 16.9677H42.4671H42.259ZM44.5472 16.9677H44.0271V16.5517H44.8592L44.5472 16.9677ZM44.8592 16.0317V16.9677H45.6912V16.0317H44.8592Z" stroke="white" stroke-width="0.208011"/>
<path d="M43.9231 17.4878H45.7952M41.843 17.4878H43.7151H41.843Z" stroke="white" stroke-width="0.416023"/>
<path d="M45.2752 30V30.9361M41.843 30.104H44.5472H41.843ZM41.947 31.0401V30.52H42.7791V30.9361H43.6111V30.52H43.0911L41.947 31.0401ZM42.259 30.9361H42.4671H42.259ZM44.5472 30.9361H44.0271V30.52H44.8592L44.5472 30.9361ZM44.8592 30V30.9361H45.6912V30H44.8592Z" stroke="white" stroke-width="0.208011"/>
<path d="M43.9231 31.4561H45.7952M41.843 31.4561H43.7151H41.843Z" stroke="white" stroke-width="0.416023"/>
<path d="M49.48 16.0317V16.9677M46.0478 16.1357H48.7519H46.0478ZM46.1518 17.0717V16.5517H46.9838V16.9677H47.8159V16.5517H47.2959L46.1518 17.0717ZM46.4638 16.9677H46.6718H46.4638ZM48.7519 16.9677H48.2319V16.5517H49.064L48.7519 16.9677ZM49.064 16.0317V16.9677H49.896V16.0317H49.064Z" stroke="white" stroke-width="0.208011"/>
<path d="M48.1279 17.4878H50M46.0478 17.4878H47.9199H46.0478Z" stroke="white" stroke-width="0.416023"/>
<path d="M49.48 30V30.9361M46.0478 30.104H48.7519H46.0478ZM46.1518 31.0401V30.52H46.9838V30.9361H47.8159V30.52H47.2959L46.1518 31.0401ZM46.4638 30.9361H46.6718H46.4638ZM48.7519 30.9361H48.2319V30.52H49.064L48.7519 30.9361ZM49.064 30V30.9361H49.896V30H49.064Z" stroke="white" stroke-width="0.208011"/>
<path d="M48.1279 31.4561H50M46.0478 31.4561H47.9199H46.0478Z" stroke="white" stroke-width="0.416023"/>
</g>
</svg>
