<svg width="54" height="54" viewBox="0 0 54 54" fill="none" xmlns="http://www.w3.org/2000/svg">
<mask id="mask0_1_35801" style="mask-type:alpha" maskUnits="userSpaceOnUse" x="3" y="9" width="48" height="36">
<path d="M3.56934 18.1356C4.16681 13.4125 8.0415 10.0019 12.7861 9.60887C16.6412 9.28949 21.6196 9 27 9C32.3804 9 37.3588 9.28949 41.2139 9.60887C45.9585 10.0019 49.8332 13.4125 50.4307 18.1356C50.752 20.6759 51 23.704 51 27C51 30.296 50.752 33.3241 50.4307 35.8644C49.8332 40.5875 45.9585 43.9981 41.2139 44.3911C37.3588 44.7105 32.3804 45 27 45C21.6196 45 16.6412 44.7105 12.7861 44.3911C8.04151 43.9981 4.16681 40.5875 3.56934 35.8644C3.248 33.3241 3 30.296 3 27C3 23.704 3.248 20.6759 3.56934 18.1356Z" fill="#00D0BF"/>
</mask>
<g mask="url(#mask0_1_35801)">
<rect x="3" y="33" width="48" height="12" fill="#2C2929"/>
<rect x="3" y="21" width="48" height="12" fill="#F5F5F5"/>
<path d="M33.8483 24.0794C33.753 24.029 33.6456 23.9481 33.6099 23.8992C33.5562 23.8244 33.5873 23.8213 33.8087 23.8815C34.2049 23.9892 34.4606 23.9469 34.7143 23.7322L34.9379 23.5437L35.2011 23.6777C35.3461 23.7509 35.4999 23.8016 35.5444 23.7898C35.6584 23.7598 35.8948 23.4565 35.8871 23.3516C35.8779 23.2216 35.9875 23.2545 36.0403 23.3967C36.1454 23.6753 35.9924 23.9953 35.7215 24.0664C35.5893 24.1006 35.4671 24.0881 35.2668 24.0186C35.021 23.9327 34.9789 23.9341 34.8557 24.0285C34.5791 24.2404 34.1941 24.2601 33.8482 24.0797L33.8483 24.0794ZM34.8285 23.1833C34.7323 23.0608 34.6165 22.5981 34.6541 22.4846C34.687 22.3861 34.7225 22.3649 34.8104 22.3945C34.9673 22.4435 35.0035 22.5517 34.9801 22.9182C34.9618 23.2169 34.9176 23.2953 34.8287 23.1832L34.8285 23.1833ZM23.2874 22.8524C23.2558 23.0746 23.6849 23.6333 23.8785 23.7341C23.7469 23.7931 23.5832 23.7662 23.4625 23.8326C22.7876 24.5074 20.3229 26.9105 19.8728 27.4848C21.2061 27.5112 22.6844 27.4667 23.9343 27.4096C23.9331 26.5037 24.792 26.4572 25.3667 26.1272C25.6625 26.5931 26.4052 26.5573 26.498 27.2583L26.4997 30.2747H15.1091C14.9087 31.1595 14.1101 31.8345 12.9973 31.5568C13.3416 31.1971 13.9212 31.0735 14.1289 30.5766C14.304 29.4886 13.7792 28.8166 13.44 28.1995C14.0014 27.9953 14.0865 27.9441 14.6571 27.5607C14.2564 28.7778 15.6998 28.6441 16.7687 28.6163C16.8029 28.2031 16.7858 27.7154 16.4668 27.6549C16.8764 27.5062 16.9444 27.4553 17.5985 26.9007V28.5405L25.4855 28.5235C25.4855 28.0103 25.6214 27.186 25.2155 27.186C24.8274 27.186 25.1972 28.2412 24.8958 28.2412H18.8053L18.8013 27.1942C19.0578 26.9378 19.0287 26.9583 20.7924 25.1948C20.9682 25.0187 22.2054 23.9011 23.2881 22.8507L23.2874 22.8524ZM38.5112 22.8073C38.9363 23.0363 39.2731 23.3543 39.7936 23.4863C39.7331 23.7016 39.5413 23.7871 39.491 24.0139V28.6122C40.0725 28.7404 40.1949 28.4108 40.4717 28.2353C40.5472 28.9715 41.0163 29.6934 40.9995 30.2694H38.5105L38.5108 22.8039L38.5112 22.8073ZM35.1929 25.2708L36.0982 24.4772V28.4915L36.7502 28.4905L36.73 23.9883C36.9946 23.7233 37.5129 23.3387 37.6425 23.0724V30.2621L31.9258 30.2641C31.8415 28.7718 31.8272 27.2265 33.5668 27.5589V26.9498C33.5155 26.8472 33.4184 26.9749 33.3962 26.8395C33.6723 26.5631 33.7659 26.4925 34.5138 25.8392L34.5275 28.4888L35.1868 28.4894C35.187 28.4898 35.1929 25.3738 35.1929 25.2707V25.2708ZM33.0473 28.4506C33.1697 28.6344 33.5865 28.6311 33.567 28.3216C33.4986 28.0664 32.9489 28.1636 33.0473 28.4506Z" fill="#1C6864"/>
<path d="M16.4983 31.4696C16.6911 31.4696 16.8474 31.3133 16.8474 31.1205C16.8474 30.9277 16.6911 30.7715 16.4983 30.7715C16.3056 30.7715 16.1493 30.9277 16.1493 31.1205C16.1493 31.3133 16.3056 31.4696 16.4983 31.4696Z" fill="#1C6864"/>
<path d="M27.2713 22.8148C27.6966 23.0439 28.0332 23.3601 28.5537 23.4934C28.4934 23.7088 28.3014 23.7943 28.2515 24.0211V28.6211C28.8327 28.7493 28.9552 28.4194 29.232 28.244C29.3072 28.9804 29.7764 29.7017 29.7599 30.2781H27.271L27.2713 22.8128V22.8148Z" fill="#1C6864"/>
<rect x="3" y="9" width="48" height="12" fill="#EE5757"/>
</g>
</svg>
