<svg width="54" height="48" viewBox="0 0 54 48" fill="none" xmlns="http://www.w3.org/2000/svg">
<mask id="mask0_1_35801" style="mask-type:alpha" maskUnits="userSpaceOnUse" x="3" y="6" width="48" height="36">
<path d="M3.56934 15.1356C4.16681 10.4125 8.0415 7.00193 12.7861 6.60887C16.6412 6.28949 21.6196 6 27 6C32.3804 6 37.3588 6.28949 41.2139 6.60887C45.9585 7.00193 49.8332 10.4125 50.4307 15.1356C50.752 17.6759 51 20.704 51 24C51 27.296 50.752 30.3241 50.4307 32.8644C49.8332 37.5875 45.9585 40.9981 41.2139 41.3911C37.3588 41.7105 32.3804 42 27 42C21.6196 42 16.6412 41.7105 12.7861 41.3911C8.0415 40.9981 4.16681 37.5875 3.56934 32.8644C3.248 30.3241 3 27.296 3 24C3 20.704 3.248 17.6759 3.56934 15.1356Z" fill="#00D0BF"/>
</mask>
<g mask="url(#mask0_1_35801)">
<rect x="3" y="30" width="48" height="12" fill="#2C2929"/>
<rect x="3" y="18" width="48" height="12" fill="#F5F5F5"/>
<path d="M33.8483 21.0794C33.753 21.029 33.6456 20.9481 33.6099 20.8992C33.5562 20.8244 33.5873 20.8213 33.8087 20.8815C34.2049 20.9892 34.4606 20.9469 34.7143 20.7322L34.9379 20.5437L35.2011 20.6777C35.3461 20.7509 35.4999 20.8016 35.5444 20.7898C35.6584 20.7598 35.8948 20.4565 35.8871 20.3516C35.8779 20.2216 35.9875 20.2545 36.0403 20.3967C36.1454 20.6753 35.9924 20.9953 35.7215 21.0664C35.5893 21.1006 35.4671 21.0881 35.2668 21.0186C35.021 20.9327 34.9789 20.9341 34.8557 21.0285C34.5791 21.2404 34.1941 21.2601 33.8482 21.0797L33.8483 21.0794ZM34.8285 20.1833C34.7323 20.0608 34.6165 19.5981 34.6541 19.4846C34.687 19.3861 34.7225 19.3649 34.8104 19.3945C34.9673 19.4435 35.0035 19.5517 34.9801 19.9182C34.9618 20.2169 34.9176 20.2953 34.8287 20.1832L34.8285 20.1833ZM23.2874 19.8524C23.2558 20.0746 23.6849 20.6333 23.8785 20.7341C23.7469 20.7931 23.5832 20.7662 23.4625 20.8326C22.7876 21.5074 20.3229 23.9105 19.8728 24.4848C21.2061 24.5112 22.6844 24.4667 23.9343 24.4096C23.9331 23.5037 24.792 23.4572 25.3667 23.1272C25.6625 23.5931 26.4052 23.5573 26.498 24.2583L26.4997 27.2747H15.1091C14.9087 28.1595 14.1101 28.8345 12.9973 28.5568C13.3416 28.1971 13.9212 28.0735 14.1289 27.5766C14.304 26.4886 13.7792 25.8166 13.44 25.1995C14.0014 24.9953 14.0865 24.9441 14.6571 24.5607C14.2564 25.7778 15.6998 25.6441 16.7687 25.6163C16.8029 25.2031 16.7858 24.7154 16.4668 24.6549C16.8764 24.5062 16.9444 24.4553 17.5985 23.9007V25.5405L25.4855 25.5235C25.4855 25.0103 25.6214 24.186 25.2155 24.186C24.8274 24.186 25.1972 25.2412 24.8958 25.2412H18.8053L18.8013 24.1942C19.0578 23.9378 19.0287 23.9583 20.7924 22.1948C20.9682 22.0187 22.2054 20.9011 23.2881 19.8507L23.2874 19.8524ZM38.5112 19.8073C38.9363 20.0363 39.2731 20.3543 39.7936 20.4863C39.7331 20.7016 39.5413 20.7871 39.491 21.0139V25.6122C40.0725 25.7404 40.1949 25.4108 40.4717 25.2353C40.5472 25.9715 41.0163 26.6934 40.9995 27.2694H38.5105L38.5108 19.8039L38.5112 19.8073ZM35.1929 22.2708L36.0982 21.4772V25.4915L36.7502 25.4905L36.73 20.9883C36.9946 20.7233 37.5129 20.3387 37.6425 20.0724V27.2621L31.9258 27.2641C31.8415 25.7718 31.8272 24.2265 33.5668 24.5589V23.9498C33.5155 23.8472 33.4184 23.9749 33.3962 23.8395C33.6723 23.5631 33.7659 23.4925 34.5138 22.8392L34.5275 25.4888L35.1868 25.4894C35.187 25.4898 35.1929 22.3738 35.1929 22.2707V22.2708ZM33.0473 25.4506C33.1697 25.6344 33.5865 25.6311 33.567 25.3216C33.4986 25.0664 32.9489 25.1636 33.0473 25.4506Z" fill="#1C6864"/>
<path d="M16.4983 28.4696C16.6911 28.4696 16.8474 28.3133 16.8474 28.1205C16.8474 27.9277 16.6911 27.7715 16.4983 27.7715C16.3056 27.7715 16.1493 27.9277 16.1493 28.1205C16.1493 28.3133 16.3056 28.4696 16.4983 28.4696Z" fill="#1C6864"/>
<path d="M27.2713 19.8148C27.6966 20.0439 28.0332 20.3601 28.5537 20.4934C28.4934 20.7088 28.3014 20.7943 28.2515 21.0211V25.6211C28.8327 25.7493 28.9552 25.4194 29.232 25.244C29.3072 25.9804 29.7764 26.7017 29.7599 27.2781H27.271L27.2713 19.8128V19.8148Z" fill="#1C6864"/>
<rect x="3" y="6" width="48" height="12" fill="#EE5757"/>
</g>
</svg>
