<svg width="54" height="54" viewBox="0 0 54 54" fill="none" xmlns="http://www.w3.org/2000/svg">
<mask id="mask0_1_41745" style="mask-type:alpha" maskUnits="userSpaceOnUse" x="3" y="9" width="48" height="36">
<path d="M3.56934 18.1356C4.16681 13.4125 8.0415 10.0019 12.7861 9.60887C16.6412 9.28949 21.6196 9 27 9C32.3804 9 37.3588 9.28949 41.2139 9.60887C45.9585 10.0019 49.8332 13.4125 50.4307 18.1356C50.752 20.6759 51 23.704 51 27C51 30.296 50.752 33.3241 50.4307 35.8644C49.8332 40.5875 45.9585 43.9981 41.2139 44.3911C37.3588 44.7105 32.3804 45 27 45C21.6196 45 16.6412 44.7105 12.7861 44.3911C8.04151 43.9981 4.16681 40.5875 3.56934 35.8644C3.248 33.3241 3 30.296 3 27C3 23.704 3.248 20.6759 3.56934 18.1356Z" fill="#00D0BF"/>
</mask>
<g mask="url(#mask0_1_41745)">
<rect x="3" y="3" width="48" height="49" fill="#F5F5F5"/>
<rect x="3" y="11" width="48" height="6" fill="#75AAFA"/>
<rect x="3" y="37" width="48" height="6" fill="#75AAFA"/>
</g>
<path d="M27.7217 21.5833L27 20.3333L26.2783 21.5833L21.9482 29.0833L21.2265 30.3333H22.6699H31.3301H32.7735L32.0518 29.0833L27.7217 21.5833Z" stroke="#75AAFA" stroke-width="1.66667"/>
<path d="M26.2783 32.4167L27 33.6667L27.7217 32.4167L32.0518 24.9167L32.7735 23.6667L31.3301 23.6667L22.6699 23.6667L21.2265 23.6667L21.9482 24.9167L26.2783 32.4167Z" stroke="#75AAFA" stroke-width="1.66667"/>
</svg>
