<svg width="54" height="48" viewBox="0 0 54 48" fill="none" xmlns="http://www.w3.org/2000/svg">
<mask id="mask0_1_41745" style="mask-type:alpha" maskUnits="userSpaceOnUse" x="3" y="6" width="48" height="36">
<path d="M3.56934 15.1356C4.16681 10.4125 8.0415 7.00193 12.7861 6.60887C16.6412 6.28949 21.6196 6 27 6C32.3804 6 37.3588 6.28949 41.2139 6.60887C45.9585 7.00193 49.8332 10.4125 50.4307 15.1356C50.752 17.6759 51 20.704 51 24C51 27.296 50.752 30.3241 50.4307 32.8644C49.8332 37.5875 45.9585 40.9981 41.2139 41.3911C37.3588 41.7105 32.3804 42 27 42C21.6196 42 16.6412 41.7105 12.7861 41.3911C8.0415 40.9981 4.16681 37.5875 3.56934 32.8644C3.248 30.3241 3 27.296 3 24C3 20.704 3.248 17.6759 3.56934 15.1356Z" fill="#00D0BF"/>
</mask>
<g mask="url(#mask0_1_41745)">
<rect x="3" width="48" height="49" fill="#F5F5F5"/>
<rect x="3" y="8" width="48" height="6" fill="#75AAFA"/>
<rect x="3" y="34" width="48" height="6" fill="#75AAFA"/>
</g>
<path d="M27.7217 18.5833L27 17.3333L26.2783 18.5833L21.9482 26.0833L21.2265 27.3333H22.6699H31.3301H32.7735L32.0518 26.0833L27.7217 18.5833Z" stroke="#75AAFA" stroke-width="1.66667"/>
<path d="M26.2783 29.4167L27 30.6667L27.7217 29.4167L32.0518 21.9167L32.7735 20.6667L31.3301 20.6667L22.6699 20.6667L21.2265 20.6667L21.9482 21.9167L26.2783 29.4167Z" stroke="#75AAFA" stroke-width="1.66667"/>
</svg>
