<svg width="54" height="48" viewBox="0 0 54 48" fill="none" xmlns="http://www.w3.org/2000/svg">
<mask id="mask0_1_41332" style="mask-type:alpha" maskUnits="userSpaceOnUse" x="3" y="6" width="48" height="36">
<path d="M3.56934 15.1356C4.16681 10.4125 8.0415 7.00193 12.7861 6.60887C16.6412 6.28949 21.6196 6 27 6C32.3804 6 37.3588 6.28949 41.2139 6.60887C45.9585 7.00193 49.8332 10.4125 50.4307 15.1356C50.752 17.6759 51 20.704 51 24C51 27.296 50.752 30.3241 50.4307 32.8644C49.8332 37.5875 45.9585 40.9981 41.2139 41.3911C37.3588 41.7105 32.3804 42 27 42C21.6196 42 16.6412 41.7105 12.7861 41.3911C8.0415 40.9981 4.16681 37.5875 3.56934 32.8644C3.248 30.3241 3 27.296 3 24C3 20.704 3.248 17.6759 3.56934 15.1356Z" fill="#00D0BF"/>
</mask>
<g mask="url(#mask0_1_41332)">
<rect x="3" width="48" height="49" fill="#18BEBE"/>
<path d="M31.9368 26.19C34.5399 26.19 36.6501 24.0798 36.6501 21.4767C36.6501 18.8736 34.5399 16.7633 31.9368 16.7633C29.3337 16.7633 27.2234 18.8736 27.2234 21.4767C27.2234 24.0798 29.3337 26.19 31.9368 26.19Z" fill="#FCD95E"/>
<path d="M31.9368 16.1205C32.217 16.117 32.3221 15.9419 32.3221 15.7317C32.3221 15.4514 31.9368 14.1168 31.9368 14.1168C31.9368 14.1168 31.5515 15.4514 31.5515 15.7317C31.5515 15.9419 31.6565 16.1205 31.9368 16.1205Z" fill="#FCD95E"/>
<path d="M31.9368 26.6612C31.6566 26.6647 31.5515 26.8398 31.5515 27.05C31.5515 27.3303 31.9368 28.6649 31.9368 28.6649C31.9368 28.6649 32.3221 27.3303 32.3221 27.05C32.3221 26.8398 32.2171 26.6612 31.9368 26.6612Z" fill="#FCD95E"/>
<path d="M32.866 16.2163C33.1464 16.2516 33.2811 16.0913 33.3168 15.8814C33.3644 15.6015 33.2066 14.2153 33.2066 14.2153C33.2066 14.2153 32.595 15.4948 32.5474 15.7746C32.5116 15.9845 32.5862 16.1775 32.866 16.2163Z" fill="#FCD95E"/>
<path d="M31.0075 26.5654C30.7271 26.5301 30.5924 26.6904 30.5567 26.9003C30.509 27.1802 30.6669 28.5665 30.6669 28.5665C30.6669 28.5665 31.2785 27.287 31.3261 27.0071C31.3618 26.7972 31.2873 26.6042 31.0075 26.5654Z" fill="#FCD95E"/>
<path d="M33.7583 16.466C34.0384 16.5376 34.1991 16.3961 34.2664 16.1926C34.3561 15.9212 34.3999 14.5257 34.3999 14.5257C34.3999 14.5257 33.589 15.7151 33.4992 15.9865C33.4319 16.19 33.4793 16.3911 33.7583 16.466Z" fill="#FCD95E"/>
<path d="M30.1152 26.3157C29.8352 26.2441 29.6745 26.3856 29.6072 26.5892C29.5174 26.8605 29.4737 28.256 29.4737 28.256C29.4737 28.256 30.2846 27.0667 30.3743 26.7953C30.4416 26.5917 30.3942 26.3906 30.1152 26.3157Z" fill="#FCD95E"/>
<path d="M34.5971 16.858C34.8568 16.974 35.0375 16.862 35.1383 16.674C35.2727 16.4233 35.5581 15.0654 35.5581 15.0654C35.5581 15.0654 34.5632 16.0955 34.4288 16.3462C34.328 16.5343 34.3391 16.7388 34.5971 16.858Z" fill="#FCD95E"/>
<path d="M29.2765 25.9237C29.0168 25.8077 28.8361 25.9197 28.7353 26.1077C28.6009 26.3585 28.3155 27.7163 28.3155 27.7163C28.3155 27.7163 29.3104 26.6862 29.4448 26.4355C29.5456 26.2474 29.5345 26.0429 29.2765 25.9237Z" fill="#FCD95E"/>
<path d="M35.2727 17.3177C35.4989 17.4812 35.6919 17.4052 35.8226 17.2391C35.9969 17.0176 36.5189 15.7344 36.5189 15.7344C36.5189 15.7344 35.3807 16.5604 35.2064 16.7818C35.0757 16.9479 35.0486 17.1514 35.2727 17.3177Z" fill="#FCD95E"/>
<path d="M28.6009 25.464C28.3746 25.3005 28.1816 25.3766 28.0509 25.5426C27.8766 25.7641 27.3546 27.0473 27.3546 27.0473C27.3546 27.0473 28.4928 26.2213 28.6671 25.9999C28.7979 25.8338 28.825 25.6303 28.6009 25.464Z" fill="#FCD95E"/>
<path d="M35.8824 17.8929C36.0667 18.1078 36.2671 18.0751 36.4257 17.938C36.6372 17.7553 37.3949 16.5864 37.3949 16.5864C37.3949 16.5864 36.1376 17.1579 35.926 17.3407C35.7674 17.4777 35.7007 17.6757 35.8824 17.8929Z" fill="#FCD95E"/>
<path d="M27.9911 24.8889C27.8068 24.6739 27.6064 24.7067 27.4478 24.8437C27.2362 25.0265 26.4786 26.1954 26.4786 26.1954C26.4786 26.1954 27.7359 25.6238 27.9474 25.4411C28.1061 25.304 28.1728 25.1061 27.9911 24.8889Z" fill="#FCD95E"/>
<path d="M36.4229 18.6139C36.5609 18.8773 36.7637 18.8918 36.9463 18.7899C37.1899 18.654 38.1641 17.6425 38.1641 17.6425C38.1641 17.6425 36.8188 17.9249 36.5753 18.0608C36.3927 18.1627 36.288 18.3487 36.4229 18.6139Z" fill="#FCD95E"/>
<path d="M27.4505 24.1679C27.3126 23.9045 27.1098 23.8899 26.9271 23.9918C26.6836 24.1277 25.7094 25.1393 25.7094 25.1393C25.7094 25.1393 27.0547 24.8568 27.2982 24.7209C27.4808 24.6191 27.5855 24.433 27.4505 24.1679Z" fill="#FCD95E"/>
<path d="M36.8283 19.4167C36.9246 19.7093 37.1248 19.7632 37.3231 19.6957C37.5876 19.6058 38.7192 18.7737 38.7192 18.7737C38.7192 18.7737 37.3318 18.7983 37.0673 18.8882C36.869 18.9557 36.7352 19.1231 36.8283 19.4167Z" fill="#FCD95E"/>
<path d="M27.0453 23.365C26.9489 23.0725 26.7488 23.0185 26.5504 23.086C26.2859 23.1759 25.1543 24.008 25.1543 24.008C25.1543 24.008 26.5418 23.9835 26.8062 23.8935C27.0046 23.8261 27.1383 23.6586 27.0453 23.365Z" fill="#FCD95E"/>
<path d="M37.1005 20.3197C37.1573 20.6158 37.3495 20.6977 37.5561 20.6626C37.8316 20.6157 39.0702 19.9843 39.0702 19.9843C39.0702 19.9843 37.6848 19.7997 37.4093 19.8466C37.2027 19.8818 37.0471 20.0229 37.1005 20.3197Z" fill="#FCD95E"/>
<path d="M26.7729 22.4621C26.7161 22.1659 26.5239 22.084 26.3173 22.1192C26.0418 22.1661 24.8032 22.7974 24.8032 22.7974C24.8032 22.7974 26.1886 22.982 26.4641 22.9351C26.6707 22.8999 26.8263 22.7588 26.7729 22.4621Z" fill="#FCD95E"/>
<path d="M37.2042 21.1739C37.2199 21.4576 37.3992 21.5579 37.609 21.5506C37.8886 21.5408 39.2036 21.1039 39.2036 21.1039C39.2036 21.1039 37.855 20.7603 37.5754 20.7701C37.3656 20.7775 37.1919 20.8901 37.2042 21.1739Z" fill="#FCD95E"/>
<path d="M26.6694 21.6078C26.6537 21.3241 26.4743 21.2238 26.2646 21.2311C25.9849 21.2409 24.6699 21.6778 24.6699 21.6778C24.6699 21.6778 26.0185 22.0214 26.2982 22.0116C26.5079 22.0042 26.6816 21.8916 26.6694 21.6078Z" fill="#FCD95E"/>
<path d="M37.163 22.0942C37.1297 22.3867 37.2895 22.5155 37.4978 22.5387C37.7756 22.5696 39.1488 22.3152 39.1488 22.3152C39.1488 22.3152 37.8766 21.7664 37.5988 21.7355C37.3905 21.7124 37.1997 21.8022 37.163 22.0942Z" fill="#FCD95E"/>
<path d="M26.7104 20.6875C26.7437 20.3951 26.5839 20.2662 26.3756 20.2431C26.0978 20.2122 24.7246 20.4666 24.7246 20.4666C24.7246 20.4666 25.9968 21.0153 26.2746 21.0462C26.4829 21.0694 26.6737 20.9796 26.7104 20.6875Z" fill="#FCD95E"/>
<path d="M36.9523 23.0225C36.878 23.3213 37.0176 23.4784 37.2199 23.5329C37.4898 23.6056 38.8816 23.5423 38.8816 23.5423C38.8816 23.5423 37.7033 22.7864 37.4335 22.7137C37.2311 22.6592 37.03 22.7246 36.9523 23.0225Z" fill="#FCD95E"/>
<path d="M26.9212 19.7593C26.9955 19.4605 26.856 19.3034 26.6536 19.2488C26.3838 19.1761 24.9919 19.2395 24.9919 19.2395C24.9919 19.2395 26.1702 19.9953 26.4401 20.0681C26.6424 20.1226 26.8436 20.0572 26.9212 19.7593Z" fill="#FCD95E"/>
<path d="M36.599 23.8605C36.4845 24.1412 36.5985 24.3192 36.7884 24.4072C37.0415 24.5246 38.4089 24.6995 38.4089 24.6995C38.4089 24.6995 37.3651 23.7566 37.112 23.6393C36.9221 23.5513 36.7166 23.5812 36.599 23.8605Z" fill="#FCD95E"/>
<path d="M27.2745 18.9213C27.389 18.6406 27.2749 18.4625 27.0851 18.3745C26.8319 18.2572 25.4646 18.0823 25.4646 18.0823C25.4646 18.0823 26.5083 19.0251 26.7615 19.1425C26.9513 19.2305 27.1568 19.2006 27.2745 18.9213Z" fill="#FCD95E"/>
<path d="M36.1076 24.6202C35.9472 24.8597 36.0266 25.0517 36.1955 25.1753C36.4206 25.3401 37.7174 25.7988 37.7174 25.7988C37.7174 25.7988 36.8697 24.6874 36.6445 24.5226C36.4757 24.399 36.2709 24.3829 36.1076 24.6202Z" fill="#FCD95E"/>
<path d="M27.7658 18.1615C27.9263 17.9221 27.8468 17.7301 27.678 17.6064C27.4528 17.4416 26.1561 16.9829 26.1561 16.9829C26.1561 16.9829 27.0038 18.0943 27.2289 18.2591C27.3978 18.3828 27.6026 18.3989 27.7658 18.1615Z" fill="#FCD95E"/>
<path d="M35.5608 25.2156C35.3578 25.4076 35.4007 25.6067 35.5446 25.7602C35.7365 25.965 36.9327 26.6798 36.9327 26.6798C36.9327 26.6798 36.3013 25.4439 36.1094 25.2391C35.9655 25.0855 35.7662 25.0261 35.5608 25.2156Z" fill="#FCD95E"/>
<path d="M28.3127 17.5662C28.5157 17.3741 28.4728 17.1751 28.3289 17.0215C28.137 16.8167 26.9408 16.102 26.9408 16.102C26.9408 16.102 27.5721 17.3378 27.764 17.5426C27.9079 17.6962 28.1073 17.7557 28.3127 17.5662Z" fill="#FCD95E"/>
<path d="M36.9523 23.0225C36.878 23.3213 37.0176 23.4784 37.2199 23.5329C37.4898 23.6056 38.8816 23.5423 38.8816 23.5423C38.8816 23.5423 37.7033 22.7864 37.4335 22.7137C37.2311 22.6592 37.03 22.7246 36.9523 23.0225Z" fill="#FCD95E"/>
<path d="M26.9212 19.7593C26.9955 19.4605 26.856 19.3034 26.6536 19.2488C26.3838 19.1761 24.9919 19.2395 24.9919 19.2395C24.9919 19.2395 26.1702 19.9953 26.4401 20.0681C26.6424 20.1226 26.8436 20.0572 26.9212 19.7593Z" fill="#FCD95E"/>
<path d="M36.599 23.8605C36.4845 24.1412 36.5985 24.3192 36.7884 24.4072C37.0415 24.5246 38.4089 24.6995 38.4089 24.6995C38.4089 24.6995 37.3651 23.7566 37.112 23.6393C36.9221 23.5513 36.7166 23.5812 36.599 23.8605Z" fill="#FCD95E"/>
<path d="M27.2745 18.9213C27.389 18.6406 27.2749 18.4625 27.0851 18.3745C26.8319 18.2572 25.4646 18.0823 25.4646 18.0823C25.4646 18.0823 26.5083 19.0251 26.7615 19.1425C26.9513 19.2305 27.1568 19.2006 27.2745 18.9213Z" fill="#FCD95E"/>
<path d="M36.1076 24.6202C35.9472 24.8597 36.0266 25.0517 36.1955 25.1753C36.4206 25.3401 37.7174 25.7988 37.7174 25.7988C37.7174 25.7988 36.8697 24.6874 36.6445 24.5226C36.4757 24.399 36.2709 24.3829 36.1076 24.6202Z" fill="#FCD95E"/>
<path d="M27.7658 18.1615C27.9263 17.9221 27.8468 17.7301 27.678 17.6064C27.4528 17.4416 26.1561 16.9829 26.1561 16.9829C26.1561 16.9829 27.0038 18.0943 27.2289 18.2591C27.3978 18.3828 27.6026 18.3989 27.7658 18.1615Z" fill="#FCD95E"/>
<path d="M35.5608 25.2156C35.3578 25.4076 35.4007 25.6067 35.5446 25.7602C35.7365 25.965 36.9327 26.6798 36.9327 26.6798C36.9327 26.6798 36.3013 25.4439 36.1094 25.2391C35.9655 25.0856 35.7662 25.0261 35.5608 25.2156Z" fill="#FCD95E"/>
<path d="M28.3127 17.5662C28.5157 17.3741 28.4728 17.1751 28.3289 17.0215C28.137 16.8167 26.9408 16.102 26.9408 16.102C26.9408 16.102 27.5721 17.3378 27.764 17.5426C27.9079 17.6962 28.1073 17.7557 28.3127 17.5662Z" fill="#FCD95E"/>
<path d="M34.7405 25.8385C34.4902 25.9698 34.4849 26.1714 34.5919 26.3555C34.7345 26.6011 35.7603 27.5941 35.7603 27.5941C35.7603 27.5941 35.4275 26.2483 35.2849 26.0028C35.1779 25.8186 34.9925 25.7102 34.7405 25.8385Z" fill="#FCD95E"/>
<path d="M29.133 16.9433C29.3832 16.812 29.3886 16.6104 29.2816 16.4262C29.139 16.1807 28.1131 15.1876 28.1131 15.1876C28.1131 15.1876 28.4459 16.5334 28.5886 16.779C28.6956 16.9631 28.881 17.0716 29.133 16.9433Z" fill="#FCD95E"/>
<path d="M33.9179 26.2538C33.6424 26.3395 33.5997 26.5382 33.673 26.7397C33.7708 27.0082 34.6169 28.1741 34.6169 28.1741C34.6169 28.1741 34.5319 26.7818 34.4341 26.5133C34.3608 26.3118 34.1947 26.1715 33.9179 26.2538Z" fill="#FCD95E"/>
<path d="M29.9555 16.5279C30.231 16.4423 30.2737 16.2435 30.2004 16.0421C30.1027 15.7735 29.2565 14.6077 29.2565 14.6077C29.2565 14.6077 29.3415 15.9999 29.4393 16.2685C29.5126 16.4699 29.6787 16.6103 29.9555 16.5279Z" fill="#FCD95E"/>
<path d="M33.108 26.5131C32.8278 26.5647 32.7592 26.7569 32.8033 26.9658C32.8622 27.2444 33.5286 28.505 33.5286 28.505C33.5286 28.505 33.6346 27.112 33.5758 26.8334C33.5317 26.6245 33.3889 26.4649 33.108 26.5131Z" fill="#FCD95E"/>
<path d="M30.7655 16.2686C31.0457 16.217 31.1143 16.0248 31.0701 15.8159C31.0113 15.5373 30.3449 14.2767 30.3449 14.2767C30.3449 14.2767 30.2388 15.6697 30.2977 15.9483C30.3418 16.1572 30.4846 16.3168 30.7655 16.2686Z" fill="#FCD95E"/>
<path d="M31.0959 31.6869C30.9698 31.6939 30.8472 31.7102 30.7269 31.7487C30.5622 31.7709 30.4046 31.8282 30.2412 31.855L30.1757 31.8655L30.066 31.876C30.073 31.9064 30.0777 31.9367 30.0777 31.9671C30.0777 31.9986 30.0742 32.029 30.066 32.0547C30.059 32.0792 30.0368 32.1096 30.0193 32.1283C29.9959 32.1539 29.9714 32.1761 29.9422 32.1901C29.9142 32.2041 29.8826 32.21 29.8511 32.2123C29.8196 32.2135 29.7869 32.2123 29.7565 32.2006C29.725 32.1901 29.6958 32.1703 29.669 32.1469C29.6363 32.1551 29.6024 32.1609 29.5709 32.1644C29.5382 32.1679 29.5078 32.1679 29.4786 32.1644C29.446 32.1551 29.4121 32.1446 29.3806 32.1318C29.3488 32.1186 29.3183 32.1026 29.2895 32.0839C29.1704 32.1539 29.0373 32.2205 28.9649 32.3431C28.924 32.3991 28.9158 32.4634 28.9065 32.5299C28.9006 32.6117 28.9217 32.6981 28.9567 32.774C28.9695 32.7961 28.9801 32.6934 29.0197 32.6794C29.0863 32.6245 29.1692 32.5848 29.2533 32.5626C29.3245 32.5264 29.3152 32.5649 29.286 32.621C29.279 32.6502 29.2393 32.7611 29.293 32.7051C29.53 32.6 29.7928 32.579 30.0485 32.5591C30.4198 32.5206 30.7923 32.5124 31.1648 32.5077C31.5151 32.5124 31.8654 32.5171 32.2157 32.5299C32.3827 32.5346 32.5508 32.572 32.7155 32.5439C32.7551 32.5334 32.817 32.5311 32.8404 32.5077C32.7657 32.4646 32.6781 32.4634 32.5952 32.4529H31.9273C31.7416 32.4342 31.5478 32.4318 31.3726 32.3618C31.3259 32.3431 31.2827 32.2987 31.2383 32.3466C31.1718 32.37 31.1006 32.3863 31.0305 32.391C30.9079 32.4003 30.7853 32.3746 30.672 32.3291C30.7537 32.2158 30.8518 32.1166 30.9418 32.0115C30.8694 31.9998 30.7993 31.9846 30.7269 31.9671C30.8542 31.8795 30.9721 31.7803 31.0959 31.6869Z" fill="#FCD95E"/>
<path d="M36.5513 32.8969C36.2975 33.0493 36.1038 32.7792 35.8916 32.6981C35.7401 32.7804 35.726 33.0557 35.5844 33.1861C35.415 33.3788 35.2075 33.1323 35.2229 32.9421C35.0204 33.1129 34.9179 33.4999 34.5904 33.4482C34.4352 33.3215 34.3199 33.0558 34.2013 33.3583C34.1046 33.5062 33.8472 33.7167 33.7138 33.4934C33.6726 33.2961 33.5737 33.0642 33.4664 33.3775C33.3928 33.599 33.1564 33.762 32.9277 33.665C32.8025 33.5627 33.0281 33.1842 32.8687 33.2111C32.6305 33.3686 32.492 33.7596 32.1596 33.7283C32.0305 33.5834 32.2379 33.3379 32.0963 33.1771C31.9293 33.3916 31.7438 33.7057 31.4548 33.7283C31.3151 33.6151 31.4603 33.2904 31.371 33.2423C31.0744 33.4202 30.7615 33.7372 30.3884 33.638C30.5338 33.0819 31.1412 32.8868 31.6521 32.8435C32.531 32.7354 33.4556 32.9341 34.3012 32.6168C34.4379 32.5337 34.7689 32.4158 34.651 32.223C34.5466 32.0707 34.9226 32.1303 34.9588 31.9524C34.9364 31.7272 35.1314 31.7582 35.3218 31.7384C36.1757 31.7016 37.0192 31.8814 37.8706 31.912C37.9349 32.3268 37.4747 32.6181 37.1042 32.49C36.9273 32.5187 36.6619 32.0831 36.7139 32.4C36.6783 32.5663 36.7032 32.7859 36.5513 32.897V32.8969ZM29.286 32.0476C29.4836 32.2285 29.6223 32.0135 29.807 31.9349C30.4268 31.7218 30.9675 31.3492 31.5006 30.977C31.8236 30.7098 32.1036 30.3631 32.5374 30.2764C33.3836 30.0206 34.2831 30.0517 35.1325 29.8155C35.7793 28.93 36.8779 28.614 37.7982 28.105C38.0048 28.0408 38.0847 27.8707 38.1507 27.683C38.5019 27.1284 38.9805 26.6371 39.5464 26.3014C39.8142 26.1551 40.1337 26.0708 40.4368 26.1377C40.4151 26.4988 40.208 26.8188 39.9579 27.0685C40.1626 27.064 40.3384 26.9347 40.5453 26.942C40.6161 27.3126 40.216 27.5065 40.0031 27.7372C40.1216 27.7648 40.5759 27.7991 40.3284 27.9179C40.0129 28.1369 39.6527 28.2872 39.3614 28.5414C39.6301 28.5897 39.6607 28.6468 39.3875 28.744C39.2396 28.8442 38.9552 28.8793 38.9277 29.0745C39.1307 29.1993 38.8342 29.3232 38.7199 29.3637C38.5012 29.4147 38.2716 29.5096 38.562 29.6757C38.4522 29.8417 38.2164 29.8771 38.0241 29.8607C38.0825 30.0488 38.1669 30.2593 37.9228 30.3423C37.3755 30.756 36.7331 31.057 36.0452 31.1258C36.9046 31.1919 37.7899 31.0324 38.5243 30.565C38.6213 30.4503 39.1297 30.3271 38.8453 30.2307C38.7115 30.175 38.4244 30.1131 38.405 30.011C38.8028 29.7656 39.304 29.8529 39.732 29.7071C39.743 29.5685 39.4065 29.6071 39.281 29.5756C38.9817 29.551 38.9993 29.4747 39.2878 29.4464C39.6529 29.3497 40.0664 29.3307 40.3735 29.0926C40.1235 28.9768 39.809 29.0788 39.5422 28.9842C39.9944 28.7862 40.528 28.7664 40.9338 28.4691C41.1186 28.2635 40.697 28.3277 40.5741 28.3327C40.3237 28.3763 40.2079 28.2564 40.4924 28.1523C40.9783 27.7941 41.5936 27.5614 41.9349 27.042C42.0157 26.9257 42.1252 26.5754 41.8673 26.7014C41.5282 26.8142 41.2298 27.1954 40.8434 27.0775C41.6048 26.4874 42.3292 25.8157 42.8495 24.9991C42.8764 24.7636 42.5068 24.7381 42.4105 24.923C41.9214 25.3943 41.4787 25.9506 40.8525 26.2461C41.4522 25.6672 41.9481 24.9818 42.3807 24.2714C42.4735 24.0601 42.7228 23.806 42.5875 23.5714C42.3694 23.3909 42.0966 23.5561 41.9833 23.7721C41.603 24.2685 41.3143 24.8478 40.8254 25.2521C41.2534 24.4352 41.6966 23.5655 41.7074 22.6232C41.7061 22.4292 41.6671 22.1435 41.4037 22.1798C41.1949 22.2172 41.2445 22.5298 41.1584 22.6879C40.9688 23.3316 40.8798 24.0288 40.491 24.5925C40.5785 24.0694 40.7316 23.524 40.6141 22.9958C40.5592 22.7597 40.1779 22.8613 40.227 23.0949C39.7716 25.402 38.2235 27.4198 36.1989 28.587C35.2719 29.1115 34.2364 29.4497 33.1829 29.6029C32.8995 29.665 32.593 29.6286 32.3222 29.7252C31.6658 30.2285 31.2684 31.0706 30.4374 31.3343C30.065 31.5194 29.5793 31.557 29.313 31.903C29.29 31.9472 29.285 31.9985 29.2859 32.0476" fill="#FCD95E"/>
<path d="M31.7731 29.7071C31.6505 29.9296 31.5783 30.1855 31.4207 30.3848C30.9464 29.9532 30.2587 29.9674 29.657 29.9387C29.1604 29.9122 28.6203 29.8664 28.2361 29.5122C27.8319 29.1811 27.5019 28.7512 27.0502 28.4825C26.638 28.3704 26.2224 28.2302 25.8909 27.9476C25.1826 27.3702 24.7769 26.5135 24.0848 25.9182C23.9529 25.7883 23.7972 25.6876 23.6494 25.5774C23.5089 25.6117 23.5725 25.9148 23.4006 25.7603C23.3071 25.6937 23.0732 25.6872 23.0521 25.7802C23.2637 26.0591 23.4755 26.3775 23.5048 26.7341C23.3605 26.7489 23.1039 26.7036 23.0324 26.7574C23.224 27.0446 23.4697 27.2994 23.7488 27.5022C23.6149 27.5237 23.3511 27.512 23.2998 27.566C23.5769 27.7918 23.874 28.0226 24.2368 28.0806C24.311 28.1784 24.1282 28.3675 24.282 28.451C24.3711 28.4875 24.6653 28.5484 24.4627 28.6498C24.3236 28.7435 24.3752 28.962 24.5531 28.9571C24.6655 29.0145 24.918 29.0286 24.9377 29.128C24.8381 29.2294 24.5279 29.3497 24.7919 29.4447C25.0385 29.5814 25.3197 29.6702 25.6013 29.68C25.46 29.7989 25.2859 29.8663 25.1404 29.9782C25.7902 30.3592 26.5106 30.6098 27.2224 30.8511C27.5058 30.9458 27.7925 31.0341 28.0862 31.0897C27.2326 31.0404 26.4075 30.7877 25.6301 30.4418C25.2271 30.2651 24.8214 30.0943 24.4085 29.9421C24.5895 29.8478 24.799 29.8248 24.9868 29.7433C24.597 29.6652 24.1711 29.6396 23.8284 29.4253C23.881 29.3316 24.08 29.3272 24.1901 29.2794C24.3972 29.2298 24.5257 29.1697 24.2337 29.1517C23.9393 29.0717 23.6016 29.1076 23.3421 28.93C23.3588 28.8235 23.6304 28.8606 23.741 28.8146C23.8802 28.7907 24.0351 28.7707 24.1464 28.677C23.6912 28.4882 23.0958 28.622 22.7393 28.22C22.657 28.0668 22.9946 28.1902 23.0907 28.1647C23.335 28.1647 23.5975 28.2423 23.8301 28.1438C23.1668 27.8526 22.4564 27.58 21.9505 27.0414C21.8944 26.9548 21.7261 26.7182 21.8619 26.689C22.2556 26.7411 22.5406 27.1708 22.9617 27.1039C23.0176 27.0285 22.717 26.9049 22.642 26.7971C22.028 26.2702 21.4321 25.6984 21.0017 25.0082C20.9721 24.7777 21.3344 24.7432 21.4298 24.9212C21.8994 25.3735 22.3236 25.9012 22.9084 26.21C23.1159 26.3106 22.7892 26.0909 22.7457 26.0112C22.2053 25.3837 21.6909 24.7209 21.3132 23.9818C21.2456 23.8486 21.1335 23.6075 21.3358 23.5366C21.538 23.4353 21.7387 23.5733 21.8412 23.747C22.2385 24.2481 22.5309 24.8437 23.0258 25.2612C22.6042 24.4429 22.154 23.5816 22.1431 22.64C22.153 22.4574 22.1647 22.1813 22.4122 22.1888C22.6201 22.1573 22.5873 22.4234 22.6554 22.5503C22.8601 23.242 22.9494 23.9908 23.3602 24.6015C23.2695 24.0884 23.1359 23.5599 23.2247 23.0382C23.2451 22.8669 23.438 22.8151 23.5638 22.9186C23.6656 23.1677 23.6868 23.4753 23.7795 23.7415C24.3071 25.5463 25.4916 27.1336 27.0353 28.1988C28.3066 29.0707 29.8154 29.5912 31.3552 29.682C31.4943 29.6941 31.6339 29.6983 31.7732 29.7069" fill="#FCD95E"/>
<path d="M29.8184 32.0998C29.8642 32.0998 29.9013 32.0626 29.9013 32.0169C29.9013 31.9711 29.8642 31.9339 29.8184 31.9339C29.7726 31.9339 29.7355 31.9711 29.7355 32.0169C29.7355 32.0626 29.7726 32.0998 29.8184 32.0998Z" fill="#FCD95E"/>
<path d="M29.8114 32.0374C29.8301 32.0374 29.8452 32.0222 29.8452 32.0035C29.8452 31.9849 29.8301 31.9697 29.8114 31.9697C29.7927 31.9697 29.7776 31.9849 29.7776 32.0035C29.7776 32.0222 29.7927 32.0374 29.8114 32.0374Z" fill="#FCD95E" stroke="#00AFCA" stroke-width="0.0133466"/>
<path d="M11.1495 8.82108C11.1495 8.82108 10.8052 8.53177 10.6883 8.67689C10.5002 8.91028 11.2665 10.0729 11.2665 10.4823C11.2665 11.1543 10.8181 11.337 10.2644 11.433C9.89286 11.4974 9.28787 11.406 9.28787 11.406C9.40179 11.253 9.47588 11.2079 9.66782 11.1956C9.45413 11.0847 9.23654 10.8439 9.23654 10.469C9.23654 9.89088 9.47452 9.65258 9.47452 9.00084C9.47452 8.63928 9.17804 8.17902 9.17804 8.17902C9.7021 8.23146 9.96182 8.71669 9.81405 9.10448C9.89745 9.11648 9.97318 9.09768 10.0382 9.03606C10.0766 9.14353 10.016 9.2683 9.93496 9.37581C10.0003 9.4107 10.0482 9.38978 10.1523 9.36829C10.1424 9.47905 10.076 9.5967 9.91368 9.70746C10.3848 9.58513 10.6747 9.91349 10.6747 10.2572C10.6747 10.5169 10.4927 10.703 10.3149 10.703C10.2574 10.703 10.173 10.6793 10.1254 10.6437C10.0918 10.7152 10.1091 10.8109 10.1436 10.8823C10.0133 10.8479 9.93055 10.7705 9.98944 10.6093C9.88932 10.6001 9.80968 10.5663 9.75552 10.5019C9.8104 10.4315 9.89369 10.391 9.98944 10.3943C9.91654 10.2439 9.99779 10.1597 10.1162 10.0914C10.1162 10.0914 10.0409 10.3943 10.2332 10.3943C10.3196 10.3943 10.3984 10.3662 10.3984 10.2388C10.3984 10.1278 10.3014 9.97414 10.0772 9.98392C9.85299 9.99369 9.67122 10.1385 9.67122 10.4964C9.67122 10.8266 9.93753 10.9908 10.2885 11.0014C10.6049 11.0112 10.8437 10.8397 10.8437 10.5133C10.8437 10.0788 10.2165 9.08847 10.2165 8.70132C10.2165 8.41079 10.4778 8.24866 10.7334 8.24866C11.0648 8.24866 11.3444 8.57684 11.3444 8.57684L11.1497 8.82097L11.1495 8.82108Z" fill="#FCD95E"/>
<path d="M11.2218 16.6743C11.2218 17.4004 10.5699 17.7736 10.0577 17.7736C9.36748 17.7736 9 17.361 9 16.8208C9 16.5146 9.0561 16.3224 9.19728 16.0294C9.19728 16.0294 10.3358 13.6617 10.779 12.746C10.8343 12.6318 10.8521 12.5018 10.8521 12.3112C10.8521 12.0168 10.5666 11.7762 10.2672 11.7689C9.99432 11.7621 9.69698 12.0233 9.69698 12.321C9.69698 12.6825 9.88456 12.8437 10.0771 12.8437C10.3142 12.8437 10.4086 12.7463 10.4086 12.5799C10.4086 12.4639 10.3526 12.4138 10.2721 12.4138C10.0688 12.4138 10.1259 12.6874 10.1259 12.6874C10.0249 12.6653 9.94198 12.5621 9.98941 12.4333C9.91276 12.4164 9.84356 12.3753 9.79202 12.3161C9.84651 12.2632 9.90902 12.2225 9.98941 12.2086C9.9418 12.0514 10.0054 11.9746 10.143 11.9423C10.1152 12.0028 10.1143 12.0584 10.1235 12.1109C10.3399 12.0493 10.6718 12.1473 10.6718 12.5213C10.6718 12.8926 10.4141 13.2052 9.93091 13.1271C10.0458 13.1821 10.1043 13.2945 10.1161 13.4203C10.0284 13.3861 9.93091 13.3812 9.93091 13.3812C9.98741 13.4808 10.0659 13.5667 10.0625 13.7623C9.97293 13.7215 9.88971 13.6461 9.77494 13.6938C9.95513 14.0484 9.73374 14.5361 9.17056 14.6515C9.37668 14.4099 9.4776 14.149 9.4776 13.8893C9.4776 13.0476 9.24367 12.9061 9.24367 12.3209C9.24367 12.0761 9.36952 11.8117 9.61896 11.632V11.6418C9.4541 11.5976 9.34849 11.5164 9.28777 11.4061C9.66446 11.2993 10.212 11.3013 10.506 11.417C10.8439 11.4561 11.0799 11.7154 11.1494 11.847C11.2189 11.9785 11.3539 12.4543 11.1494 12.8827C10.9255 13.3516 9.87005 15.5896 9.54097 16.2931C9.47119 16.4423 9.42884 16.6005 9.42884 16.7719C9.42884 17.2028 9.82362 17.3533 10.0479 17.3533C10.3159 17.3533 10.5889 17.1491 10.5889 16.894C10.5889 16.7324 10.5011 16.6351 10.3744 16.6351C10.0714 16.6351 10.0898 16.8928 10.1502 17.0553C9.96165 16.9705 9.85203 16.8191 9.88216 16.6595C9.7754 16.6449 9.67377 16.5943 9.57998 16.4885C9.65378 16.3954 9.74377 16.3249 9.88216 16.3224C9.82172 16.0748 9.98748 15.9701 10.1502 15.912C10.0987 16.0937 10.065 16.3029 10.3744 16.3029C10.6001 16.3029 10.7777 16.342 10.8813 16.4885C10.8874 16.2931 10.9057 15.5211 10.9057 15.5211C10.9187 15.231 10.5174 15.2393 10.2624 15.3257C10.3586 14.9915 10.556 14.8109 11.0129 14.8566C10.902 14.8102 10.7838 14.7059 10.7838 14.5048C10.7839 14.2328 11.0046 13.9315 11.1495 13.8424L11.2219 16.6743L11.2218 16.6743Z" fill="#FCD95E"/>
<path d="M11.1295 8.82107C11.1295 8.82107 11.4738 8.53176 11.5907 8.67688C11.7788 8.91028 11.0125 10.0729 11.0125 10.4822C11.0125 11.1543 11.4609 11.337 12.0146 11.433C12.3861 11.4974 12.9911 11.406 12.9911 11.406C12.8772 11.253 12.8031 11.2079 12.6112 11.1956C12.8249 11.0847 13.0425 10.8439 13.0425 10.469C13.0425 9.89087 12.8045 9.65258 12.8045 9.00084C12.8045 8.63927 13.101 8.17901 13.101 8.17901C12.5769 8.23145 12.3172 8.71668 12.4649 9.10447C12.3815 9.11648 12.3058 9.09767 12.2408 9.03605C12.2024 9.14352 12.263 9.2683 12.344 9.3758C12.2787 9.41069 12.2308 9.38977 12.1267 9.36828C12.1366 9.47905 12.203 9.59669 12.3653 9.70746C11.8942 9.58512 11.6043 9.91348 11.6043 10.2572C11.6043 10.5169 11.7863 10.703 11.9641 10.703C12.0216 10.703 12.106 10.6793 12.1536 10.6437C12.1872 10.7152 12.1699 10.8109 12.1354 10.8823C12.2657 10.8479 12.3484 10.7704 12.2895 10.6093C12.3897 10.6001 12.4693 10.5663 12.5235 10.5018C12.4686 10.4315 12.3853 10.391 12.2895 10.3943C12.3624 10.2439 12.2812 10.1597 12.1628 10.0914C12.1628 10.0914 12.2381 10.3943 12.0458 10.3943C11.9594 10.3943 11.8806 10.3662 11.8806 10.2388C11.8806 10.1278 11.9776 9.97413 12.2018 9.98391C12.426 9.99369 12.6078 10.1385 12.6078 10.4964C12.6078 10.8265 12.3415 10.9908 11.9905 11.0014C11.6741 11.0111 11.4353 10.8397 11.4353 10.5133C11.4353 10.0788 12.0625 9.08846 12.0625 8.70132C12.0625 8.41079 11.8012 8.24865 11.5456 8.24865C11.2142 8.24865 10.9346 8.57683 10.9346 8.57683L11.1293 8.82097L11.1295 8.82107Z" fill="#FCD95E"/>
<path d="M11.0571 16.6742C11.0571 17.4004 11.7091 17.7736 12.2213 17.7736C12.9115 17.7736 13.279 17.3609 13.279 16.8208C13.279 16.5145 13.2229 16.3224 13.0817 16.0293C13.0817 16.0293 11.9432 13.6617 11.5 12.746C11.4447 12.6318 11.4269 12.5018 11.4269 12.3112C11.4269 12.0168 11.7124 11.7762 12.0118 11.7689C12.2847 11.762 12.582 12.0233 12.582 12.321C12.582 12.6825 12.3944 12.8437 12.2018 12.8437C11.9648 12.8437 11.8704 12.7463 11.8704 12.5799C11.8704 12.4639 11.9264 12.4138 12.0069 12.4138C12.2102 12.4138 12.1531 12.6874 12.1531 12.6874C12.254 12.6653 12.337 12.5621 12.2896 12.4333C12.3662 12.4164 12.4354 12.3753 12.487 12.3161C12.4325 12.2632 12.37 12.2225 12.2896 12.2086C12.3372 12.0514 12.2736 11.9746 12.136 11.9423C12.1638 12.0027 12.1647 12.0584 12.1555 12.1109C11.939 12.0493 11.6072 12.1473 11.6072 12.5213C11.6072 12.8926 11.8649 13.2052 12.3481 13.1271C12.2332 13.1821 12.1747 13.2945 12.1629 13.4202C12.2506 13.3861 12.3481 13.3812 12.3481 13.3812C12.2916 13.4808 12.2131 13.5667 12.2165 13.7623C12.3061 13.7215 12.3893 13.6461 12.5041 13.6938C12.3239 14.0484 12.5453 14.5361 13.1084 14.6515C12.9023 14.4099 12.8014 14.149 12.8014 13.8893C12.8014 13.0476 13.0353 12.9061 13.0353 12.3209C13.0353 12.0761 12.9095 11.8117 12.66 11.632V11.6418C12.8249 11.5976 12.9305 11.5164 12.9912 11.4061C12.6145 11.2993 12.067 11.3013 11.773 11.417C11.435 11.4561 11.1991 11.7154 11.1296 11.847C11.0601 11.9785 10.9251 12.4543 11.1296 12.8827C11.3535 13.3516 12.4089 15.5895 12.738 16.293C12.8078 16.4423 12.8501 16.6005 12.8501 16.7719C12.8501 17.2028 12.4554 17.3533 12.2311 17.3533C11.963 17.3533 11.6901 17.1491 11.6901 16.894C11.6901 16.7324 11.7779 16.6351 11.9046 16.6351C12.2076 16.6351 12.1892 16.8928 12.1288 17.0553C12.3173 16.9705 12.427 16.8191 12.3968 16.6595C12.5036 16.6449 12.6052 16.5943 12.699 16.4885C12.6252 16.3954 12.5352 16.3249 12.3968 16.3224C12.4573 16.0748 12.2915 15.9701 12.1288 15.912C12.1802 16.0937 12.214 16.3029 11.9046 16.3029C11.6789 16.3029 11.5013 16.3419 11.3977 16.4885C11.3916 16.2931 11.3733 15.5211 11.3733 15.5211C11.3603 15.231 11.7616 15.2393 12.0166 15.3257C11.9204 14.9915 11.723 14.8109 11.2661 14.8566C11.377 14.8102 11.4952 14.7059 11.4952 14.5048C11.4951 14.2328 11.2744 13.9315 11.1295 13.8424L11.0571 16.6743L11.0571 16.6742Z" fill="#FCD95E"/>
<path d="M11.1295 39.5929C11.1295 39.5929 11.4738 39.8822 11.5907 39.7371C11.7788 39.5037 11.0125 38.3411 11.0125 37.9318C11.0125 37.2597 11.4609 37.077 12.0146 36.981C12.3861 36.9166 12.9911 37.008 12.9911 37.008C12.8772 37.161 12.8031 37.2061 12.6112 37.2184C12.8249 37.3293 13.0425 37.5701 13.0425 37.945C13.0425 38.5231 12.8045 38.7614 12.8045 39.4132C12.8045 39.7747 13.101 40.235 13.101 40.235C12.5769 40.1825 12.3172 39.6973 12.4649 39.3095C12.3815 39.2975 12.3058 39.3163 12.2408 39.378C12.2024 39.2705 12.263 39.1457 12.344 39.0382C12.2787 39.0033 12.2308 39.0242 12.1267 39.0457C12.1366 38.935 12.203 38.8173 12.3653 38.7065C11.8942 38.8289 11.6043 38.5005 11.6043 38.1568C11.6043 37.8971 11.7863 37.711 11.9641 37.711C12.0216 37.711 12.106 37.7347 12.1536 37.7703C12.1872 37.6988 12.1699 37.6031 12.1354 37.5317C12.2657 37.5661 12.3484 37.6436 12.2895 37.8047C12.3897 37.8139 12.4693 37.8477 12.5235 37.9122C12.4686 37.9825 12.3853 38.023 12.2895 38.0197C12.3624 38.1701 12.2812 38.2543 12.1628 38.3226C12.1628 38.3226 12.2381 38.0197 12.0458 38.0197C11.9594 38.0197 11.8806 38.0478 11.8806 38.1752C11.8806 38.2862 11.9776 38.4399 12.2018 38.4301C12.426 38.4203 12.6078 38.2755 12.6078 37.9176C12.6078 37.5875 12.3415 37.4232 11.9905 37.4126C11.6741 37.4029 11.4353 37.5743 11.4353 37.9007C11.4353 38.3352 12.0625 39.3255 12.0625 39.7127C12.0625 40.0032 11.8012 40.1654 11.5456 40.1654C11.2142 40.1654 10.9346 39.8372 10.9346 39.8372L11.1293 39.593L11.1295 39.5929Z" fill="#FCD95E"/>
<path d="M11.0571 31.7398C11.0571 31.0136 11.7091 30.6404 12.2213 30.6404C12.9115 30.6404 13.279 31.0531 13.279 31.5932C13.279 31.8995 13.2229 32.0916 13.0817 32.3847C13.0817 32.3847 11.9432 34.7523 11.5 35.668C11.4447 35.7822 11.4269 35.9122 11.4269 36.1028C11.4269 36.3972 11.7124 36.6378 12.0118 36.6451C12.2847 36.652 12.582 36.3907 12.582 36.093C12.582 35.7315 12.3944 35.5703 12.2018 35.5703C11.9648 35.5703 11.8704 35.6677 11.8704 35.8341C11.8704 35.9501 11.9264 36.0002 12.0069 36.0002C12.2102 36.0002 12.1531 35.7266 12.1531 35.7266C12.254 35.7487 12.337 35.8519 12.2896 35.9807C12.3662 35.9976 12.4354 36.0387 12.487 36.0979C12.4325 36.1508 12.37 36.1916 12.2896 36.2054C12.3372 36.3626 12.2736 36.4394 12.136 36.4717C12.1638 36.4113 12.1647 36.3556 12.1555 36.3031C11.939 36.3647 11.6072 36.2667 11.6072 35.8927C11.6072 35.5214 11.8649 35.2088 12.3481 35.2869C12.2332 35.2319 12.1747 35.1195 12.1629 34.9938C12.2506 35.0279 12.3481 35.0328 12.3481 35.0328C12.2916 34.9332 12.2131 34.8473 12.2165 34.6517C12.3061 34.6925 12.3893 34.7679 12.5041 34.7202C12.3239 34.3656 12.5453 33.8779 13.1084 33.7625C12.9023 34.0041 12.8014 34.265 12.8014 34.5247C12.8014 35.3664 13.0353 35.5079 13.0353 36.0931C13.0353 36.3379 12.9095 36.6023 12.66 36.782L12.66 36.7722C12.8249 36.8164 12.9305 36.8976 12.9912 37.0079C12.6145 37.1147 12.067 37.1127 11.773 36.997C11.435 36.9579 11.1991 36.6986 11.1296 36.567C11.0601 36.4355 10.9251 35.9597 11.1296 35.5313C11.3535 35.0624 12.4089 32.8245 12.738 32.121C12.8078 31.9717 12.8501 31.8135 12.8501 31.6421C12.8501 31.2112 12.4554 31.0607 12.2311 31.0607C11.963 31.0607 11.6901 31.2649 11.6901 31.52C11.6901 31.6816 11.7779 31.7789 11.9046 31.7789C12.2076 31.7789 12.1892 31.5212 12.1288 31.3587C12.3173 31.4435 12.427 31.5949 12.3968 31.7545C12.5036 31.7691 12.6052 31.8198 12.699 31.9255C12.6252 32.0186 12.5352 32.0891 12.3968 32.0916C12.4573 32.3392 12.2915 32.4439 12.1288 32.502C12.1802 32.3203 12.214 32.1111 11.9046 32.1111C11.6789 32.1111 11.5013 32.0721 11.3977 31.9255C11.3916 32.1209 11.3733 32.8929 11.3733 32.8929C11.3603 33.183 11.7616 33.1747 12.0166 33.0883C11.9204 33.4225 11.723 33.6031 11.2661 33.5574C11.377 33.6038 11.4952 33.7081 11.4952 33.9092C11.4951 34.1812 11.2744 34.4825 11.1295 34.5716L11.0571 31.7397L11.0571 31.7398Z" fill="#FCD95E"/>
<path d="M11.1495 39.5929C11.1495 39.5929 10.8052 39.8822 10.6883 39.7371C10.5002 39.5037 11.2665 38.3411 11.2665 37.9317C11.2665 37.2597 10.8181 37.077 10.2644 36.981C9.89286 36.9166 9.28787 37.0079 9.28787 37.0079C9.40179 37.161 9.47588 37.2061 9.66782 37.2183C9.45413 37.3293 9.23654 37.5701 9.23654 37.945C9.23654 38.5231 9.47452 38.7614 9.47452 39.4131C9.47452 39.7747 9.17804 40.235 9.17804 40.235C9.7021 40.1825 9.96182 39.6973 9.81405 39.3095C9.89745 39.2975 9.97318 39.3163 10.0382 39.3779C10.0766 39.2705 10.016 39.1457 9.93496 39.0382C10.0003 39.0033 10.0482 39.0242 10.1523 39.0457C10.1424 38.9349 10.076 38.8173 9.91368 38.7065C10.3848 38.8289 10.6747 38.5005 10.6747 38.1567C10.6747 37.8971 10.4927 37.711 10.3149 37.711C10.2574 37.711 10.173 37.7347 10.1254 37.7702C10.0918 37.6988 10.1091 37.6031 10.1436 37.5317C10.0133 37.5661 9.93055 37.6435 9.98944 37.8047C9.88932 37.8139 9.80968 37.8477 9.75552 37.9121C9.8104 37.9825 9.89369 38.0229 9.98944 38.0196C9.91654 38.1701 9.99779 38.2543 10.1162 38.3226C10.1162 38.3226 10.0409 38.0196 10.2332 38.0196C10.3196 38.0196 10.3984 38.0478 10.3984 38.1752C10.3984 38.2862 10.3014 38.4399 10.0772 38.4301C9.85299 38.4203 9.67122 38.2755 9.67122 37.9176C9.67122 37.5874 9.93754 37.4232 10.2885 37.4126C10.6049 37.4028 10.8437 37.5742 10.8437 37.9007C10.8437 38.3352 10.2165 39.3255 10.2165 39.7127C10.2165 40.0032 10.4778 40.1653 10.7334 40.1653C11.0648 40.1653 11.3444 39.8371 11.3444 39.8371L11.1497 39.593L11.1495 39.5929Z" fill="#FCD95E"/>
<path d="M11.2218 31.7397C11.2219 31.0136 10.5699 30.6404 10.0577 30.6404C9.36748 30.6404 9 31.053 9 31.5932C9 31.8994 9.0561 32.0916 9.19728 32.3846C9.19728 32.3846 10.3358 34.7522 10.779 35.668C10.8343 35.7822 10.8521 35.9122 10.8521 36.1028C10.8521 36.3972 10.5666 36.6377 10.2672 36.6451C9.99432 36.6519 9.69698 36.3907 9.69698 36.093C9.69698 35.7314 9.88456 35.5702 10.0771 35.5702C10.3142 35.5702 10.4086 35.6677 10.4086 35.8341C10.4086 35.95 10.3526 36.0002 10.2721 36.0002C10.0688 36.0002 10.1259 35.7266 10.1259 35.7266C10.0249 35.7487 9.94198 35.8518 9.98941 35.9807C9.91276 35.9976 9.84356 36.0387 9.79202 36.0979C9.84651 36.1508 9.90902 36.1915 9.98941 36.2054C9.9418 36.3626 10.0054 36.4394 10.143 36.4717C10.1152 36.4112 10.1143 36.3556 10.1235 36.3031C10.3399 36.3647 10.6718 36.2667 10.6718 35.8927C10.6718 35.5214 10.4141 35.2087 9.93091 35.2869C10.0458 35.2319 10.1043 35.1195 10.1161 34.9937C10.0284 35.0279 9.93091 35.0328 9.93091 35.0328C9.98741 34.9332 10.0659 34.8473 10.0625 34.6517C9.97293 34.6925 9.88971 34.7679 9.77494 34.7201C9.95513 34.3656 9.73374 33.8779 9.17056 33.7625C9.37669 34.0041 9.4776 34.265 9.4776 34.5247C9.4776 35.3664 9.24367 35.5079 9.24367 36.093C9.24367 36.3379 9.36952 36.6023 9.61896 36.782L9.61896 36.7722C9.4541 36.8164 9.34849 36.8975 9.28777 37.0078C9.66446 37.1147 10.212 37.1127 10.506 36.997C10.8439 36.9579 11.0799 36.6986 11.1494 36.567C11.2189 36.4355 11.3539 35.9597 11.1494 35.5313C10.9255 35.0624 9.87005 32.8244 9.54097 32.1209C9.47119 31.9717 9.42884 31.8135 9.42884 31.6421C9.42884 31.2112 9.82362 31.0607 10.0479 31.0607C10.3159 31.0607 10.5889 31.2649 10.5889 31.52C10.5889 31.6816 10.5011 31.7789 10.3744 31.7789C10.0714 31.7789 10.0898 31.5211 10.1502 31.3587C9.96165 31.4435 9.85203 31.5949 9.88216 31.7545C9.7754 31.7691 9.67377 31.8197 9.57998 31.9255C9.65378 32.0186 9.74377 32.0891 9.88216 32.0916C9.82172 32.3392 9.98748 32.4439 10.1502 32.502C10.0987 32.3203 10.065 32.1111 10.3744 32.1111C10.6001 32.1111 10.7777 32.072 10.8813 31.9254C10.8874 32.1209 10.9057 32.8929 10.9057 32.8929C10.9187 33.183 10.5174 33.1747 10.2624 33.0883C10.3586 33.4224 10.556 33.6031 11.0129 33.5574C10.902 33.6037 10.7838 33.7081 10.7838 33.9091C10.7839 34.1811 11.0046 34.4825 11.1495 34.5716L11.2219 31.7397L11.2218 31.7397Z" fill="#FCD95E"/>
<path d="M11.0571 18.8433C11.0571 18.1172 11.7091 17.7439 12.2213 17.7439C12.9115 17.7439 13.279 18.1566 13.279 18.6968C13.279 19.003 13.2229 19.1951 13.0817 19.4882C13.0817 19.4882 11.9432 21.8558 11.5 22.7715C11.4447 22.8857 11.4269 23.0158 11.4269 23.2064C11.4269 23.5007 11.7124 23.7413 12.0118 23.7487C12.2847 23.7555 12.582 23.4943 12.582 23.1966C12.582 22.835 12.3944 22.6738 12.2018 22.6738C11.9648 22.6738 11.8704 22.7712 11.8704 22.9376C11.8704 23.0536 11.9264 23.1038 12.0069 23.1038C12.2102 23.1038 12.1531 22.8301 12.1531 22.8301C12.254 22.8522 12.337 22.9554 12.2896 23.0842C12.3662 23.1012 12.4354 23.1423 12.487 23.2015C12.4325 23.2543 12.37 23.2951 12.2896 23.309C12.3372 23.4661 12.2736 23.5429 12.136 23.5752C12.1638 23.5148 12.1647 23.4592 12.1555 23.4067C11.939 23.4683 11.6072 23.3703 11.6072 22.9963C11.6072 22.625 11.8649 22.3123 12.3481 22.3904C12.2332 22.3355 12.1747 22.223 12.1629 22.0973C12.2506 22.1315 12.3481 22.1363 12.3481 22.1363C12.2916 22.0368 12.2131 21.9509 12.2165 21.7553C12.3061 21.796 12.3893 21.8714 12.5041 21.8237C12.3239 21.4691 12.5453 20.9814 13.1084 20.866C12.9023 21.1077 12.8014 21.3685 12.8014 21.6283C12.8014 22.47 13.0353 22.6114 13.0353 23.1966C13.0353 23.4415 12.9095 23.7058 12.66 23.8855L12.66 23.8758C12.8249 23.9199 12.9305 24.0011 12.9912 24.1114C12.6145 24.2182 12.067 24.2163 11.773 24.1006C11.435 24.0614 11.1991 23.8022 11.1296 23.6706C11.0601 23.5391 10.9251 23.0632 11.1296 22.6348C11.3535 22.166 12.4089 19.928 12.738 19.2245C12.8078 19.0753 12.8501 18.917 12.8501 18.7457C12.8501 18.3147 12.4554 18.1643 12.2311 18.1643C11.963 18.1643 11.6901 18.3685 11.6901 18.6235C11.6901 18.7851 11.7779 18.8824 11.9046 18.8824C12.2076 18.8825 12.1892 18.6247 12.1288 18.4623C12.3173 18.5471 12.427 18.6984 12.3968 18.858C12.5036 18.8727 12.6052 18.9233 12.699 19.029C12.6252 19.1222 12.5352 19.1926 12.3968 19.1952C12.4573 19.4428 12.2915 19.5475 12.1288 19.6055C12.1802 19.4238 12.214 19.2147 11.9046 19.2147C11.6789 19.2147 11.5013 19.1756 11.3977 19.029C11.3916 19.2245 11.3733 19.9964 11.3733 19.9964C11.3603 20.2865 11.7616 20.2782 12.0166 20.1919C11.9204 20.526 11.723 20.7067 11.2661 20.6609C11.377 20.7073 11.4952 20.8117 11.4952 21.0127C11.4951 21.2847 11.2744 21.5861 11.1295 21.6751L11.0571 18.8433L11.0571 18.8433Z" fill="#FCD95E"/>
<path d="M11.2218 18.8433C11.2219 18.1171 10.5699 17.7439 10.0577 17.7439C9.36748 17.7439 9 18.1566 9 18.6968C9 19.003 9.0561 19.1951 9.19728 19.4882C9.19728 19.4882 10.3358 21.8558 10.779 22.7715C10.8343 22.8857 10.8521 23.0158 10.8521 23.2063C10.8521 23.5007 10.5666 23.7413 10.2672 23.7487C9.99432 23.7555 9.69698 23.4943 9.69698 23.1966C9.69698 22.835 9.88456 22.6738 10.0771 22.6738C10.3142 22.6738 10.4086 22.7712 10.4086 22.9376C10.4086 23.0536 10.3526 23.1037 10.2721 23.1037C10.0688 23.1037 10.1259 22.8301 10.1259 22.8301C10.0249 22.8522 9.94198 22.9554 9.98941 23.0842C9.91276 23.1012 9.84356 23.1423 9.79202 23.2015C9.84651 23.2543 9.90902 23.2951 9.98941 23.3089C9.9418 23.4661 10.0054 23.5429 10.143 23.5752C10.1152 23.5148 10.1143 23.4591 10.1235 23.4067C10.3399 23.4682 10.6718 23.3703 10.6718 22.9963C10.6718 22.625 10.4141 22.3123 9.93091 22.3904C10.0458 22.3355 10.1043 22.223 10.1161 22.0973C10.0284 22.1315 9.93091 22.1363 9.93091 22.1363C9.98741 22.0367 10.0659 21.9509 10.0625 21.7553C9.97293 21.796 9.88971 21.8714 9.77494 21.8237C9.95513 21.4691 9.73374 20.9814 9.17056 20.866C9.37669 21.1077 9.4776 21.3685 9.4776 21.6282C9.4776 22.47 9.24367 22.6114 9.24367 23.1966C9.24367 23.4414 9.36952 23.7058 9.61896 23.8855L9.61896 23.8757C9.4541 23.9199 9.34849 24.0011 9.28777 24.1114C9.66446 24.2182 10.212 24.2162 10.506 24.1006C10.8439 24.0614 11.0799 23.8022 11.1494 23.6705C11.2189 23.5391 11.3539 23.0632 11.1494 22.6348C10.9255 22.166 9.87005 19.928 9.54097 19.2245C9.47119 19.0753 9.42884 18.917 9.42884 18.7457C9.42884 18.3147 9.82362 18.1642 10.0479 18.1642C10.3159 18.1642 10.5889 18.3684 10.5889 18.6235C10.5889 18.7851 10.5011 18.8824 10.3744 18.8824C10.0714 18.8824 10.0898 18.6247 10.1502 18.4623C9.96165 18.5471 9.85203 18.6984 9.88216 18.858C9.7754 18.8727 9.67377 18.9233 9.57998 19.029C9.65378 19.1222 9.74377 19.1926 9.88216 19.1951C9.82172 19.4428 9.98748 19.5475 10.1502 19.6055C10.0987 19.4238 10.065 19.2147 10.3744 19.2147C10.6001 19.2147 10.7777 19.1756 10.8813 19.029C10.8874 19.2244 10.9057 19.9964 10.9057 19.9964C10.9187 20.2865 10.5174 20.2782 10.2624 20.1919C10.3586 20.526 10.556 20.7066 11.0129 20.6609C10.902 20.7073 10.7838 20.8116 10.7838 21.0127C10.7839 21.2847 11.0046 21.586 11.1495 21.6751L11.2219 18.8432L11.2218 18.8433Z" fill="#FCD95E"/>
<path d="M11.2218 29.5384C11.2218 30.2645 10.5699 30.6377 10.0577 30.6377C9.36748 30.6377 9 30.2251 9 29.6849C9 29.3787 9.0561 29.1866 9.19728 28.8935C9.19728 28.8935 10.3358 26.5259 10.779 25.6102C10.8343 25.4959 10.8521 25.3659 10.8521 25.1753C10.8521 24.881 10.5666 24.6404 10.2672 24.633C9.99432 24.6262 9.69698 24.8874 9.69698 25.1851C9.69698 25.5467 9.88456 25.7079 10.0771 25.7079C10.3142 25.7079 10.4086 25.6104 10.4086 25.444C10.4086 25.3281 10.3526 25.2779 10.2721 25.2779C10.0688 25.2779 10.1259 25.5515 10.1259 25.5515C10.0249 25.5294 9.94198 25.4263 9.98941 25.2975C9.91276 25.2805 9.84356 25.2394 9.79202 25.1802C9.84651 25.1274 9.90902 25.0866 9.98941 25.0727C9.9418 24.9155 10.0054 24.8388 10.143 24.8065C10.1152 24.8669 10.1143 24.9225 10.1235 24.975C10.3399 24.9134 10.6718 25.0114 10.6718 25.3854C10.6718 25.7567 10.4141 26.0694 9.93091 25.9912C10.0458 26.0462 10.1043 26.1586 10.1161 26.2844C10.0284 26.2502 9.93091 26.2453 9.93091 26.2453C9.98741 26.3449 10.0659 26.4308 10.0625 26.6264C9.97293 26.5857 9.88971 26.5103 9.77494 26.558C9.95513 26.9126 9.73374 27.4003 9.17056 27.5156C9.37668 27.274 9.4776 27.0131 9.4776 26.7534C9.4776 25.9117 9.24367 25.7703 9.24367 25.1851C9.24367 24.9402 9.36952 24.6758 9.61896 24.4961V24.5059C9.4541 24.4618 9.34849 24.3806 9.28777 24.2703C9.66446 24.1635 10.212 24.1654 10.506 24.2811C10.8439 24.3203 11.0799 24.5795 11.1494 24.7111C11.2189 24.8426 11.3539 25.3184 11.1494 25.7469C10.9255 26.2157 9.87005 28.4537 9.54097 29.1572C9.47119 29.3064 9.42884 29.4647 9.42884 29.636C9.42884 30.067 9.82362 30.2174 10.0479 30.2174C10.3159 30.2174 10.5889 30.0132 10.5889 29.7582C10.5889 29.5966 10.5011 29.4992 10.3744 29.4992C10.0714 29.4992 10.0898 29.757 10.1502 29.9194C9.96165 29.8346 9.85203 29.6833 9.88216 29.5237C9.7754 29.509 9.67377 29.4584 9.57998 29.3526C9.65378 29.2595 9.74377 29.189 9.88216 29.1865C9.82172 28.9389 9.98748 28.8342 10.1502 28.7761C10.0987 28.9579 10.065 29.167 10.3744 29.167C10.6001 29.167 10.7777 29.2061 10.8813 29.3527C10.8874 29.1572 10.9057 28.3853 10.9057 28.3853C10.9187 28.0952 10.5174 28.1034 10.2624 28.1898C10.3586 27.8557 10.556 27.675 11.0129 27.7208C10.902 27.6744 10.7838 27.57 10.7838 27.369C10.7839 27.097 11.0046 26.7956 11.1495 26.7065L11.2219 29.5384L11.2218 29.5384Z" fill="#FCD95E"/>
<path d="M11.0571 29.5384C11.0571 30.2645 11.7091 30.6377 12.2213 30.6377C12.9115 30.6377 13.279 30.2251 13.279 29.6849C13.279 29.3787 13.2229 29.1866 13.0817 28.8935C13.0817 28.8935 11.9432 26.5259 11.5 25.6101C11.4447 25.4959 11.4269 25.3659 11.4269 25.1753C11.4269 24.881 11.7124 24.6404 12.0118 24.633C12.2847 24.6262 12.582 24.8874 12.582 25.1851C12.582 25.5467 12.3944 25.7079 12.2018 25.7079C11.9648 25.7079 11.8704 25.6104 11.8704 25.444C11.8704 25.3281 11.9264 25.2779 12.0069 25.2779C12.2102 25.2779 12.1531 25.5515 12.1531 25.5515C12.254 25.5294 12.337 25.4263 12.2896 25.2974C12.3662 25.2805 12.4354 25.2394 12.487 25.1802C12.4325 25.1273 12.37 25.0866 12.2896 25.0727C12.3372 24.9155 12.2736 24.8388 12.136 24.8064C12.1638 24.8669 12.1647 24.9225 12.1555 24.975C11.939 24.9134 11.6072 25.0114 11.6072 25.3854C11.6072 25.7567 11.8649 26.0694 12.3481 25.9912C12.2332 26.0462 12.1747 26.1586 12.1629 26.2844C12.2506 26.2502 12.3481 26.2453 12.3481 26.2453C12.2916 26.3449 12.2131 26.4308 12.2165 26.6264C12.3061 26.5857 12.3893 26.5102 12.5041 26.558C12.3239 26.9125 12.5453 27.4002 13.1084 27.5156C12.9023 27.274 12.8014 27.0131 12.8014 26.7534C12.8014 25.9117 13.0353 25.7702 13.0353 25.1851C13.0353 24.9402 12.9095 24.6758 12.66 24.4961V24.5059C12.8249 24.4617 12.9305 24.3806 12.9912 24.2703C12.6145 24.1634 12.067 24.1654 11.773 24.2811C11.435 24.3202 11.1991 24.5795 11.1296 24.7111C11.0601 24.8426 10.9251 25.3184 11.1296 25.7468C11.3535 26.2157 12.4089 28.4537 12.738 29.1572C12.8078 29.3064 12.8501 29.4646 12.8501 29.636C12.8501 30.0669 12.4554 30.2174 12.2311 30.2174C11.963 30.2174 11.6901 30.0132 11.6901 29.7582C11.6901 29.5966 11.7779 29.4992 11.9046 29.4992C12.2076 29.4992 12.1892 29.757 12.1288 29.9194C12.3173 29.8346 12.427 29.6832 12.3968 29.5237C12.5036 29.509 12.6052 29.4584 12.699 29.3526C12.6252 29.2595 12.5352 29.189 12.3968 29.1865C12.4573 28.9389 12.2915 28.8342 12.1288 28.7761C12.1802 28.9579 12.214 29.167 11.9046 29.167C11.6789 29.167 11.5013 29.2061 11.3977 29.3527C11.3916 29.1572 11.3733 28.3852 11.3733 28.3852C11.3603 28.0951 11.7616 28.1034 12.0166 28.1898C11.9204 27.8557 11.723 27.675 11.2661 27.7208C11.377 27.6744 11.4952 27.57 11.4952 27.369C11.4951 27.097 11.2744 26.7956 11.1295 26.7065L11.0571 29.5384L11.0571 29.5384Z" fill="#FCD95E"/>
</g>
</svg>
