<svg width="54" height="54" viewBox="0 0 54 54" fill="none" xmlns="http://www.w3.org/2000/svg">
<mask id="mask0_1_41332" style="mask-type:alpha" maskUnits="userSpaceOnUse" x="3" y="9" width="48" height="36">
<path d="M3.56934 18.1356C4.16681 13.4125 8.0415 10.0019 12.7861 9.60887C16.6412 9.28949 21.6196 9 27 9C32.3804 9 37.3588 9.28949 41.2139 9.60887C45.9585 10.0019 49.8332 13.4125 50.4307 18.1356C50.752 20.6759 51 23.704 51 27C51 30.296 50.752 33.3241 50.4307 35.8644C49.8332 40.5875 45.9585 43.9981 41.2139 44.3911C37.3588 44.7105 32.3804 45 27 45C21.6196 45 16.6412 44.7105 12.7861 44.3911C8.04151 43.9981 4.16681 40.5875 3.56934 35.8644C3.248 33.3241 3 30.296 3 27C3 23.704 3.248 20.6759 3.56934 18.1356Z" fill="#00D0BF"/>
</mask>
<g mask="url(#mask0_1_41332)">
<rect x="3" y="3" width="48" height="49" fill="#18BEBE"/>
<path d="M31.9368 29.19C34.5399 29.19 36.6501 27.0798 36.6501 24.4767C36.6501 21.8736 34.5399 19.7633 31.9368 19.7633C29.3337 19.7633 27.2234 21.8736 27.2234 24.4767C27.2234 27.0798 29.3337 29.19 31.9368 29.19Z" fill="#FCD95E"/>
<path d="M31.9368 19.1205C32.217 19.117 32.3221 18.9419 32.3221 18.7317C32.3221 18.4515 31.9368 17.1168 31.9368 17.1168C31.9368 17.1168 31.5515 18.4515 31.5515 18.7317C31.5515 18.9419 31.6565 19.1205 31.9368 19.1205Z" fill="#FCD95E"/>
<path d="M31.9368 29.6612C31.6566 29.6647 31.5515 29.8399 31.5515 30.05C31.5515 30.3303 31.9368 31.6649 31.9368 31.6649C31.9368 31.6649 32.3221 30.3303 32.3221 30.05C32.3221 29.8399 32.2171 29.6612 31.9368 29.6612Z" fill="#FCD95E"/>
<path d="M32.881 19.2097C33.1723 19.2498 33.3084 19.0925 33.341 18.884C33.3845 18.6059 33.1916 17.2219 33.1916 17.2219C33.1916 17.2219 32.585 18.4859 32.5416 18.7639C32.509 18.9724 32.5903 19.166 32.881 19.2097Z" fill="#FCD95E"/>
<path d="M30.9926 29.572C30.7013 29.5319 30.5652 29.6893 30.5326 29.8978C30.4891 30.1758 30.682 31.5598 30.682 31.5598C30.682 31.5598 31.2885 30.2958 31.332 30.0178C31.3646 29.8093 31.2833 29.6157 30.9926 29.572Z" fill="#FCD95E"/>
<path d="M33.7771 19.456C34.0708 19.5349 34.2333 19.3979 34.2967 19.1965C34.3811 18.9279 34.381 17.5357 34.381 17.5357C34.381 17.5357 33.5764 18.7017 33.4919 18.9703C33.4285 19.1717 33.4844 19.3738 33.7771 19.456Z" fill="#FCD95E"/>
<path d="M30.0964 29.3257C29.8027 29.2468 29.6402 29.3838 29.5768 29.5853C29.4923 29.8538 29.4925 31.246 29.4925 31.246C29.4925 31.246 30.2971 30.08 30.3816 29.8114C30.4449 29.61 30.389 29.408 30.0964 29.3257Z" fill="#FCD95E"/>
<path d="M34.6108 19.8494C34.8803 19.9717 35.0624 19.8635 35.1604 19.6773C35.2909 19.429 35.5443 18.074 35.5443 18.074C35.5443 18.074 34.5541 19.0841 34.4235 19.3324C34.3256 19.5186 34.3428 19.724 34.6108 19.8494Z" fill="#FCD95E"/>
<path d="M29.2628 28.9323C28.9932 28.81 28.8111 28.9182 28.7132 29.1044C28.5826 29.3527 28.3292 30.7078 28.3292 30.7078C28.3292 30.7078 29.3195 29.6976 29.45 29.4493C29.548 29.2631 29.5307 29.0577 29.2628 28.9323Z" fill="#FCD95E"/>
<path d="M35.2781 20.3138C35.5083 20.4801 35.7018 20.4059 35.8314 20.2406C36.0042 20.0203 36.5134 18.7383 36.5134 18.7383C36.5134 18.7383 35.377 19.5551 35.2042 19.7755C35.0746 19.9407 35.05 20.1446 35.2781 20.3138Z" fill="#FCD95E"/>
<path d="M28.5953 28.4679C28.3651 28.3016 28.1716 28.3758 28.042 28.5411C27.8692 28.7614 27.36 30.0434 27.36 30.0434C27.36 30.0434 28.4964 29.2266 28.6692 29.0062C28.7988 28.841 28.8234 28.6371 28.5953 28.4679Z" fill="#FCD95E"/>
<path d="M35.8793 20.8955C36.0614 21.1085 36.2614 21.0746 36.4207 20.937C36.6331 20.7536 37.398 19.5837 37.398 19.5837C37.398 19.5837 36.1397 20.1614 35.9273 20.3449C35.768 20.4825 35.6999 20.6802 35.8793 20.8955Z" fill="#FCD95E"/>
<path d="M27.9942 27.8862C27.8122 27.6732 27.6121 27.7071 27.4528 27.8447C27.2404 28.0282 26.4755 29.198 26.4755 29.198C26.4755 29.198 27.7338 28.6203 27.9462 28.4369C28.1055 28.2993 28.1737 28.1016 27.9942 27.8862Z" fill="#FCD95E"/>
<path d="M36.4128 21.624C36.5433 21.88 36.7451 21.89 36.9299 21.786C37.1763 21.6473 38.1744 20.6323 38.1744 20.6323C38.1744 20.6323 36.8257 20.9384 36.5793 21.0771C36.3946 21.1812 36.2853 21.3662 36.4128 21.624Z" fill="#FCD95E"/>
<path d="M27.4608 27.1577C27.3302 26.9017 27.1285 26.8918 26.9437 26.9958C26.6973 27.1345 25.6992 28.1494 25.6992 28.1494C25.6992 28.1494 27.0479 27.8433 27.2943 27.7046C27.479 27.6006 27.5883 27.4155 27.4608 27.1577Z" fill="#FCD95E"/>
<path d="M36.8156 22.432C36.9028 22.7134 37.1018 22.7605 37.3028 22.6898C37.5708 22.5956 38.7318 21.7585 38.7318 21.7585C38.7318 21.7585 37.3402 21.8185 37.0722 21.9127C36.8712 21.9834 36.7318 22.1494 36.8156 22.432Z" fill="#FCD95E"/>
<path d="M27.0578 26.3498C26.9706 26.0684 26.7717 26.0213 26.5707 26.0919C26.3027 26.1861 25.1417 27.0232 25.1417 27.0232C25.1417 27.0232 26.5333 26.9632 26.8013 26.869C27.0023 26.7984 27.1417 26.6323 27.0578 26.3498Z" fill="#FCD95E"/>
<path d="M37.0917 23.3334C37.1422 23.6195 37.3335 23.6953 37.542 23.6572C37.8199 23.6065 39.0791 22.9706 39.0791 22.9706C39.0791 22.9706 37.6908 22.818 37.4128 22.8687C37.2044 22.9067 37.0448 23.0466 37.0917 23.3334Z" fill="#FCD95E"/>
<path d="M26.7818 25.4484C26.7314 25.1623 26.54 25.0864 26.3316 25.1245C26.0536 25.1752 24.7944 25.8111 24.7944 25.8111C24.7944 25.8111 26.1828 25.9638 26.4607 25.913C26.6692 25.875 26.8288 25.7351 26.7818 25.4484Z" fill="#FCD95E"/>
<path d="M37.2022 24.178C37.2165 24.4587 37.3957 24.5572 37.6059 24.549C37.886 24.5381 39.2055 24.0998 39.2055 24.0998C39.2055 24.0998 37.8563 23.7657 37.5761 23.7766C37.366 23.7848 37.1914 23.8971 37.2022 24.178Z" fill="#FCD95E"/>
<path d="M26.6713 24.6037C26.6569 24.323 26.4778 24.2245 26.2676 24.2327C25.9874 24.2436 24.6679 24.6819 24.6679 24.6819C24.6679 24.6819 26.0172 25.016 26.2974 25.0051C26.5075 24.9969 26.6821 24.8846 26.6713 24.6037Z" fill="#FCD95E"/>
<path d="M37.157 25.0836C37.1282 25.3684 37.2907 25.4962 37.5003 25.5216C37.7797 25.5555 39.1549 25.3258 39.1549 25.3258C39.1549 25.3258 37.8685 24.7735 37.5891 24.7396C37.3795 24.7142 37.1893 24.7993 37.157 25.0836Z" fill="#FCD95E"/>
<path d="M26.7166 23.6981C26.7454 23.4133 26.5829 23.2855 26.3733 23.2601C26.0938 23.2263 24.7186 23.456 24.7186 23.456C24.7186 23.456 26.005 24.0083 26.2844 24.0421C26.494 24.0675 26.6843 23.9825 26.7166 23.6981Z" fill="#FCD95E"/>
<path d="M36.9404 26.0068C36.8748 26.2943 37.0197 26.4499 37.2245 26.5077C37.4977 26.5848 38.8935 26.5579 38.8935 26.5579C38.8935 26.5579 37.6875 25.7969 37.4144 25.7198C37.2095 25.662 37.0095 25.7203 36.9404 26.0068Z" fill="#FCD95E"/>
<path d="M26.9331 22.775C26.9987 22.4875 26.8539 22.3318 26.649 22.274C26.3758 22.197 24.98 22.2238 24.98 22.2238C24.98 22.2238 26.186 22.9849 26.4592 23.062C26.664 23.1198 26.8641 23.0615 26.9331 22.775Z" fill="#FCD95E"/>
<path d="M36.5871 26.8478C36.4813 27.1194 36.6007 27.2962 36.793 27.3868C37.0495 27.5077 38.4207 27.7122 38.4207 27.7122C38.4207 27.7122 37.3493 26.7651 37.0929 26.6442C36.9005 26.5535 36.6962 26.5777 36.5871 26.8478Z" fill="#FCD95E"/>
<path d="M27.2864 21.934C27.3922 21.6624 27.2728 21.4856 27.0805 21.3949C26.824 21.274 25.4527 21.0696 25.4527 21.0696C25.4527 21.0696 26.5241 22.0167 26.7806 22.1376C26.9729 22.2282 27.1773 22.204 27.2864 21.934Z" fill="#FCD95E"/>
<path d="M36.1014 27.6146C35.9455 27.85 36.0278 28.0415 36.1979 28.1663C36.4248 28.3327 37.7237 28.8044 37.7237 28.8044C37.7237 28.8044 36.8613 27.6912 36.6344 27.5248C36.4642 27.4 36.2601 27.3814 36.1014 27.6146Z" fill="#FCD95E"/>
<path d="M27.7721 21.1671C27.928 20.9317 27.8457 20.7403 27.6755 20.6155C27.4486 20.4491 26.1498 19.9773 26.1498 19.9773C26.1498 19.9773 27.0122 21.0906 27.2391 21.257C27.4092 21.3818 27.6134 21.4004 27.7721 21.1671Z" fill="#FCD95E"/>
<path d="M35.5622 28.2167C35.3582 28.4095 35.4004 28.6087 35.544 28.7621C35.7355 28.9665 36.9313 29.6786 36.9313 29.6786C36.9313 29.6786 36.3033 28.4432 36.1118 28.2387C35.9682 28.0854 35.7687 28.0264 35.5622 28.2167Z" fill="#FCD95E"/>
<path d="M28.3112 20.5651C28.5153 20.3722 28.473 20.173 28.3294 20.0197C28.138 19.8152 26.9422 19.1031 26.9422 19.1031C26.9422 19.1031 27.5702 20.3386 27.7617 20.543C27.9053 20.6964 28.1048 20.7554 28.3112 20.5651Z" fill="#FCD95E"/>
<path d="M36.9404 26.0068C36.8748 26.2943 37.0197 26.4499 37.2245 26.5077C37.4977 26.5848 38.8935 26.5579 38.8935 26.5579C38.8935 26.5579 37.6875 25.7969 37.4144 25.7198C37.2095 25.662 37.0095 25.7203 36.9404 26.0068Z" fill="#FCD95E"/>
<path d="M26.9331 22.775C26.9987 22.4875 26.8539 22.3318 26.649 22.274C26.3758 22.197 24.98 22.2238 24.98 22.2238C24.98 22.2238 26.186 22.9849 26.4592 23.062C26.664 23.1198 26.8641 23.0615 26.9331 22.775Z" fill="#FCD95E"/>
<path d="M36.5871 26.8478C36.4813 27.1194 36.6007 27.2962 36.793 27.3868C37.0495 27.5077 38.4207 27.7122 38.4207 27.7122C38.4207 27.7122 37.3493 26.7651 37.0929 26.6442C36.9005 26.5535 36.6962 26.5777 36.5871 26.8478Z" fill="#FCD95E"/>
<path d="M27.2864 21.934C27.3922 21.6624 27.2728 21.4856 27.0805 21.3949C26.824 21.274 25.4527 21.0696 25.4527 21.0696C25.4527 21.0696 26.5241 22.0167 26.7806 22.1376C26.9729 22.2282 27.1773 22.204 27.2864 21.934Z" fill="#FCD95E"/>
<path d="M36.1014 27.6146C35.9455 27.85 36.0278 28.0415 36.1979 28.1663C36.4248 28.3327 37.7237 28.8044 37.7237 28.8044C37.7237 28.8044 36.8613 27.6912 36.6344 27.5248C36.4642 27.4 36.2601 27.3814 36.1014 27.6146Z" fill="#FCD95E"/>
<path d="M27.7721 21.1671C27.928 20.9317 27.8457 20.7403 27.6755 20.6155C27.4486 20.4491 26.1498 19.9773 26.1498 19.9773C26.1498 19.9773 27.0122 21.0906 27.2391 21.257C27.4092 21.3818 27.6134 21.4004 27.7721 21.1671Z" fill="#FCD95E"/>
<path d="M35.5622 28.2167C35.3582 28.4095 35.4004 28.6087 35.544 28.7621C35.7355 28.9665 36.9313 29.6786 36.9313 29.6786C36.9313 29.6786 36.3033 28.4432 36.1118 28.2387C35.9682 28.0854 35.7687 28.0264 35.5622 28.2167Z" fill="#FCD95E"/>
<path d="M28.3112 20.5651C28.5153 20.3722 28.473 20.173 28.3294 20.0197C28.138 19.8152 26.9422 19.1031 26.9422 19.1031C26.9422 19.1031 27.5702 20.3386 27.7617 20.543C27.9053 20.6964 28.1048 20.7554 28.3112 20.5651Z" fill="#FCD95E"/>
<path d="M34.7526 28.8463C34.4935 28.9833 34.4827 29.1857 34.5871 29.3682C34.7264 29.6115 35.7482 30.5863 35.7482 30.5863C35.7482 30.5863 35.4437 29.2431 35.3045 28.9997C35.2001 28.8172 35.0135 28.7123 34.7526 28.8463Z" fill="#FCD95E"/>
<path d="M29.1209 19.9354C29.38 19.7984 29.3908 19.5961 29.2863 19.4136C29.1471 19.1702 28.1253 18.1955 28.1253 18.1955C28.1253 18.1955 28.4297 19.5387 28.569 19.782C28.6734 19.9645 28.86 20.0694 29.1209 19.9354Z" fill="#FCD95E"/>
<path d="M33.9364 29.264C33.6474 29.357 33.5965 29.5567 33.6659 29.756C33.7585 30.0217 34.5985 31.1639 34.5985 31.1639C34.5985 31.1639 34.5565 29.7751 34.4639 29.5093C34.3945 29.31 34.2266 29.1743 33.9364 29.264Z" fill="#FCD95E"/>
<path d="M29.9371 19.5178C30.2261 19.4248 30.2771 19.2251 30.2076 19.0258C30.115 18.76 29.275 17.6178 29.275 17.6178C29.275 17.6178 29.317 19.0067 29.4096 19.2724C29.479 19.4717 29.6469 19.6075 29.9371 19.5178Z" fill="#FCD95E"/>
<path d="M33.125 29.5211C32.8324 29.5785 32.7562 29.7714 32.7967 29.9787C32.8508 30.255 33.5115 31.497 33.5115 31.497C33.5115 31.497 33.6573 30.1067 33.6032 29.8303C33.5627 29.6231 33.4182 29.4671 33.125 29.5211Z" fill="#FCD95E"/>
<path d="M30.7485 19.2607C31.0411 19.2033 31.1173 19.0103 31.0767 18.803C31.0227 18.5267 30.3619 17.2847 30.3619 17.2847C30.3619 17.2847 30.2162 18.675 30.2702 18.9514C30.3108 19.1586 30.4552 19.3146 30.7485 19.2607Z" fill="#FCD95E"/>
<path d="M31.0959 34.6869C30.9698 34.6939 30.8472 34.7102 30.7269 34.7487C30.5622 34.7709 30.4046 34.8282 30.2412 34.855L30.1757 34.8655L30.066 34.876C30.073 34.9064 30.0777 34.9367 30.0777 34.9671C30.0777 34.9986 30.0742 35.029 30.066 35.0547C30.059 35.0792 30.0368 35.1096 30.0193 35.1283C29.9959 35.1539 29.9714 35.1761 29.9422 35.1901C29.9142 35.2041 29.8826 35.21 29.8511 35.2123C29.8196 35.2135 29.7869 35.2123 29.7565 35.2006C29.725 35.1901 29.6958 35.1703 29.669 35.1469C29.6363 35.1551 29.6024 35.1609 29.5709 35.1644C29.5382 35.1679 29.5078 35.1679 29.4786 35.1644C29.446 35.1551 29.4121 35.1446 29.3806 35.1318C29.3488 35.1186 29.3183 35.1026 29.2895 35.0839C29.1704 35.1539 29.0373 35.2205 28.9649 35.3431C28.924 35.3991 28.9158 35.4634 28.9065 35.5299C28.9006 35.6117 28.9217 35.6981 28.9567 35.774C28.9695 35.7961 28.9801 35.6934 29.0197 35.6794C29.0863 35.6245 29.1692 35.5848 29.2533 35.5626C29.3245 35.5264 29.3152 35.5649 29.286 35.621C29.279 35.6502 29.2393 35.7611 29.293 35.7051C29.53 35.6 29.7928 35.579 30.0485 35.5591C30.4198 35.5206 30.7923 35.5124 31.1648 35.5077C31.5151 35.5124 31.8654 35.5171 32.2157 35.5299C32.3827 35.5346 32.5508 35.572 32.7155 35.5439C32.7551 35.5334 32.817 35.5311 32.8404 35.5077C32.7657 35.4646 32.6781 35.4634 32.5952 35.4529H31.9273C31.7416 35.4342 31.5478 35.4318 31.3726 35.3618C31.3259 35.3431 31.2827 35.2987 31.2383 35.3466C31.1718 35.37 31.1006 35.3863 31.0305 35.391C30.9079 35.4003 30.7853 35.3746 30.672 35.3291C30.7537 35.2158 30.8518 35.1166 30.9418 35.0115C30.8694 34.9998 30.7993 34.9846 30.7269 34.9671C30.8542 34.8795 30.9721 34.7803 31.0959 34.6869V34.6869Z" fill="#FCD95E"/>
<path d="M36.5513 35.8969C36.2975 36.0493 36.1038 35.7792 35.8916 35.6981C35.7401 35.7804 35.726 36.0557 35.5844 36.1861C35.415 36.3788 35.2075 36.1323 35.2229 35.9421C35.0204 36.1129 34.9179 36.4999 34.5904 36.4482C34.4352 36.3215 34.3199 36.0558 34.2013 36.3583C34.1046 36.5062 33.8472 36.7167 33.7138 36.4934C33.6726 36.2961 33.5737 36.0642 33.4664 36.3775C33.3928 36.599 33.1564 36.762 32.9277 36.665C32.8025 36.5627 33.0281 36.1842 32.8687 36.2111C32.6305 36.3686 32.492 36.7596 32.1596 36.7283C32.0305 36.5834 32.2379 36.3379 32.0963 36.1771C31.9293 36.3916 31.7438 36.7057 31.4548 36.7283C31.3151 36.6151 31.4603 36.2904 31.371 36.2423C31.0744 36.4202 30.7615 36.7372 30.3884 36.638C30.5338 36.0819 31.1412 35.8868 31.6521 35.8435C32.531 35.7354 33.4556 35.9341 34.3012 35.6168C34.4379 35.5337 34.7689 35.4158 34.651 35.223C34.5466 35.0707 34.9226 35.1303 34.9588 34.9524C34.9364 34.7272 35.1314 34.7582 35.3218 34.7384C36.1757 34.7016 37.0192 34.8814 37.8706 34.912C37.9349 35.3268 37.4747 35.6181 37.1042 35.49C36.9273 35.5187 36.6619 35.0831 36.7139 35.4C36.6783 35.5663 36.7032 35.7859 36.5513 35.897V35.8969ZM29.286 35.0476C29.4836 35.2285 29.6223 35.0135 29.807 34.9349C30.4268 34.7218 30.9675 34.3492 31.5006 33.977C31.8236 33.7098 32.1036 33.3631 32.5374 33.2764C33.3836 33.0206 34.2831 33.0517 35.1325 32.8155C35.7793 31.93 36.8779 31.614 37.7982 31.105C38.0048 31.0408 38.0847 30.8707 38.1507 30.683C38.5019 30.1284 38.9805 29.6371 39.5464 29.3014C39.8142 29.1551 40.1337 29.0708 40.4368 29.1377C40.4151 29.4988 40.208 29.8188 39.9579 30.0685C40.1626 30.064 40.3384 29.9347 40.5453 29.942C40.6161 30.3126 40.216 30.5065 40.0031 30.7372C40.1216 30.7648 40.5759 30.7991 40.3284 30.9179C40.0129 31.1369 39.6527 31.2872 39.3614 31.5414C39.6301 31.5897 39.6607 31.6468 39.3875 31.744C39.2396 31.8442 38.9552 31.8793 38.9277 32.0745C39.1307 32.1993 38.8342 32.3232 38.7199 32.3637C38.5012 32.4147 38.2716 32.5096 38.562 32.6757C38.4522 32.8417 38.2164 32.8771 38.0241 32.8607C38.0825 33.0488 38.1669 33.2593 37.9228 33.3423C37.3755 33.756 36.7331 34.057 36.0452 34.1258C36.9046 34.1919 37.7899 34.0324 38.5243 33.565C38.6213 33.4503 39.1297 33.3271 38.8453 33.2307C38.7115 33.175 38.4244 33.1131 38.405 33.011C38.8028 32.7656 39.304 32.8529 39.732 32.7071C39.743 32.5685 39.4065 32.6071 39.281 32.5756C38.9817 32.551 38.9993 32.4747 39.2878 32.4464C39.6529 32.3497 40.0664 32.3307 40.3735 32.0926C40.1235 31.9768 39.809 32.0788 39.5422 31.9842C39.9944 31.7862 40.528 31.7664 40.9338 31.4691C41.1186 31.2635 40.697 31.3277 40.5741 31.3327C40.3237 31.3763 40.2079 31.2564 40.4924 31.1523C40.9783 30.7941 41.5936 30.5614 41.9349 30.042C42.0157 29.9257 42.1252 29.5754 41.8673 29.7014C41.5282 29.8142 41.2298 30.1954 40.8434 30.0775C41.6048 29.4874 42.3292 28.8157 42.8495 27.9991C42.8764 27.7636 42.5068 27.7381 42.4105 27.923C41.9214 28.3943 41.4787 28.9506 40.8525 29.2461C41.4522 28.6672 41.9481 27.9818 42.3807 27.2714C42.4735 27.0601 42.7228 26.806 42.5875 26.5714C42.3694 26.3909 42.0966 26.5561 41.9833 26.7721C41.603 27.2685 41.3143 27.8478 40.8254 28.2521C41.2534 27.4352 41.6966 26.5655 41.7074 25.6232C41.7061 25.4292 41.6671 25.1435 41.4037 25.1798C41.1949 25.2172 41.2445 25.5298 41.1584 25.6879C40.9688 26.3316 40.8798 27.0288 40.491 27.5925C40.5785 27.0694 40.7316 26.524 40.6141 25.9958C40.5592 25.7597 40.1779 25.8613 40.227 26.0949C39.7716 28.402 38.2235 30.4198 36.1989 31.587C35.2719 32.1115 34.2364 32.4497 33.1829 32.6029C32.8995 32.665 32.593 32.6286 32.3222 32.7252C31.6658 33.2285 31.2684 34.0706 30.4374 34.3343C30.065 34.5194 29.5793 34.557 29.313 34.903C29.29 34.9472 29.285 34.9985 29.2859 35.0476" fill="#FCD95E"/>
<path d="M31.7731 32.7071C31.6505 32.9296 31.5783 33.1855 31.4207 33.3848C30.9464 32.9532 30.2587 32.9674 29.657 32.9387C29.1604 32.9122 28.6203 32.8664 28.2361 32.5122C27.8319 32.1811 27.5019 31.7512 27.0502 31.4825C26.638 31.3704 26.2224 31.2302 25.8909 30.9476C25.1826 30.3702 24.7769 29.5135 24.0848 28.9182C23.9529 28.7883 23.7972 28.6876 23.6494 28.5774C23.5089 28.6117 23.5725 28.9148 23.4006 28.7603C23.3071 28.6937 23.0732 28.6872 23.0521 28.7802C23.2637 29.0591 23.4755 29.3775 23.5048 29.7341C23.3605 29.7489 23.1039 29.7036 23.0324 29.7574C23.224 30.0446 23.4697 30.2994 23.7488 30.5022C23.6149 30.5237 23.3511 30.512 23.2998 30.566C23.5769 30.7918 23.874 31.0226 24.2368 31.0806C24.311 31.1784 24.1282 31.3675 24.282 31.451C24.3711 31.4875 24.6653 31.5484 24.4627 31.6498C24.3236 31.7435 24.3752 31.962 24.5531 31.9571C24.6655 32.0145 24.918 32.0286 24.9377 32.128C24.8381 32.2294 24.5279 32.3497 24.7919 32.4447C25.0385 32.5814 25.3197 32.6702 25.6013 32.68C25.46 32.7989 25.2859 32.8663 25.1404 32.9782C25.7902 33.3592 26.5106 33.6098 27.2224 33.8511C27.5058 33.9458 27.7925 34.0341 28.0862 34.0897C27.2326 34.0404 26.4075 33.7877 25.6301 33.4418C25.2271 33.2651 24.8214 33.0943 24.4085 32.9421C24.5895 32.8478 24.799 32.8248 24.9868 32.7433C24.597 32.6652 24.1711 32.6396 23.8284 32.4253C23.881 32.3316 24.08 32.3272 24.1901 32.2794C24.3972 32.2298 24.5257 32.1697 24.2337 32.1517C23.9393 32.0717 23.6016 32.1076 23.3421 31.93C23.3588 31.8235 23.6304 31.8606 23.741 31.8146C23.8802 31.7907 24.0351 31.7707 24.1464 31.677C23.6912 31.4882 23.0958 31.622 22.7393 31.22C22.657 31.0668 22.9946 31.1902 23.0907 31.1647C23.335 31.1647 23.5975 31.2423 23.8301 31.1438C23.1668 30.8526 22.4564 30.58 21.9505 30.0414C21.8944 29.9548 21.7261 29.7182 21.8619 29.689C22.2556 29.7411 22.5406 30.1708 22.9617 30.1039C23.0176 30.0285 22.717 29.9049 22.642 29.7971C22.028 29.2702 21.4321 28.6984 21.0017 28.0082C20.9721 27.7777 21.3344 27.7432 21.4298 27.9212C21.8994 28.3735 22.3236 28.9012 22.9084 29.21C23.1159 29.3106 22.7892 29.0909 22.7457 29.0112C22.2053 28.3837 21.6909 27.7209 21.3132 26.9818C21.2456 26.8486 21.1335 26.6075 21.3358 26.5366C21.538 26.4353 21.7387 26.5733 21.8412 26.747C22.2385 27.2481 22.5309 27.8437 23.0258 28.2612C22.6042 27.4429 22.154 26.5816 22.1431 25.64C22.153 25.4574 22.1647 25.1813 22.4122 25.1888C22.6201 25.1573 22.5873 25.4234 22.6554 25.5503C22.8601 26.242 22.9494 26.9908 23.3602 27.6015C23.2695 27.0884 23.1359 26.5599 23.2247 26.0382C23.2451 25.8669 23.438 25.8151 23.5638 25.9186C23.6656 26.1677 23.6868 26.4753 23.7795 26.7415C24.3071 28.5463 25.4916 30.1336 27.0353 31.1988C28.3066 32.0707 29.8154 32.5912 31.3552 32.682C31.4943 32.6941 31.6339 32.6983 31.7732 32.7069" fill="#FCD95E"/>
<path d="M29.8184 35.0998C29.8642 35.0998 29.9013 35.0626 29.9013 35.0169C29.9013 34.9711 29.8642 34.9339 29.8184 34.9339C29.7726 34.9339 29.7355 34.9711 29.7355 35.0169C29.7355 35.0626 29.7726 35.0998 29.8184 35.0998Z" fill="#FCD95E"/>
<path d="M29.8114 35.0374C29.8301 35.0374 29.8452 35.0222 29.8452 35.0035C29.8452 34.9849 29.8301 34.9697 29.8114 34.9697C29.7927 34.9697 29.7776 34.9849 29.7776 35.0035C29.7776 35.0222 29.7927 35.0374 29.8114 35.0374Z" fill="#FCD95E" stroke="#00AFCA" stroke-width="0.0133466"/>
<path d="M11.1495 11.8211C11.1495 11.8211 10.8052 11.5318 10.6883 11.6769C10.5002 11.9103 11.2665 13.0729 11.2665 13.4823C11.2665 14.1543 10.8181 14.337 10.2644 14.433C9.89286 14.4974 9.28787 14.406 9.28787 14.406C9.40179 14.253 9.47588 14.2079 9.66782 14.1956C9.45413 14.0847 9.23654 13.8439 9.23654 13.469C9.23654 12.8909 9.47452 12.6526 9.47452 12.0008C9.47452 11.6393 9.17804 11.179 9.17804 11.179C9.7021 11.2315 9.96182 11.7167 9.81405 12.1045C9.89745 12.1165 9.97318 12.0977 10.0382 12.0361C10.0766 12.1435 10.016 12.2683 9.93496 12.3758C10.0003 12.4107 10.0482 12.3898 10.1523 12.3683C10.1424 12.4791 10.076 12.5967 9.91368 12.7075C10.3848 12.5851 10.6747 12.9135 10.6747 13.2572C10.6747 13.5169 10.4927 13.703 10.3149 13.703C10.2574 13.703 10.173 13.6793 10.1254 13.6437C10.0918 13.7152 10.1091 13.8109 10.1436 13.8823C10.0133 13.8479 9.93055 13.7705 9.98944 13.6093C9.88932 13.6001 9.80968 13.5663 9.75552 13.5019C9.8104 13.4315 9.89369 13.391 9.98944 13.3943C9.91654 13.2439 9.99779 13.1597 10.1162 13.0914C10.1162 13.0914 10.0409 13.3943 10.2332 13.3943C10.3196 13.3943 10.3984 13.3662 10.3984 13.2388C10.3984 13.1278 10.3014 12.9741 10.0772 12.9839C9.85299 12.9937 9.67122 13.1385 9.67122 13.4964C9.67122 13.8266 9.93753 13.9908 10.2885 14.0014C10.6049 14.0112 10.8437 13.8397 10.8437 13.5133C10.8437 13.0788 10.2165 12.0885 10.2165 11.7013C10.2165 11.4108 10.4778 11.2487 10.7334 11.2487C11.0648 11.2487 11.3444 11.5768 11.3444 11.5768L11.1497 11.821L11.1495 11.8211Z" fill="#FCD95E"/>
<path d="M11.2218 19.6743C11.2218 20.4004 10.5699 20.7736 10.0577 20.7736C9.36748 20.7736 9 20.361 9 19.8208C9 19.5146 9.0561 19.3224 9.19728 19.0294C9.19728 19.0294 10.3358 16.6617 10.779 15.746C10.8343 15.6318 10.8521 15.5018 10.8521 15.3112C10.8521 15.0168 10.5666 14.7762 10.2672 14.7689C9.99432 14.7621 9.69698 15.0233 9.69698 15.321C9.69698 15.6825 9.88456 15.8437 10.0771 15.8437C10.3142 15.8437 10.4086 15.7463 10.4086 15.5799C10.4086 15.4639 10.3526 15.4138 10.2721 15.4138C10.0688 15.4138 10.1259 15.6874 10.1259 15.6874C10.0249 15.6653 9.94198 15.5621 9.98941 15.4333C9.91276 15.4164 9.84356 15.3753 9.79202 15.3161C9.84651 15.2632 9.90902 15.2225 9.98941 15.2086C9.9418 15.0514 10.0054 14.9746 10.143 14.9423C10.1152 15.0028 10.1143 15.0584 10.1235 15.1109C10.3399 15.0493 10.6718 15.1473 10.6718 15.5213C10.6718 15.8926 10.4141 16.2052 9.93091 16.1271C10.0458 16.1821 10.1043 16.2945 10.1161 16.4203C10.0284 16.3861 9.93091 16.3812 9.93091 16.3812C9.98741 16.4808 10.0659 16.5667 10.0625 16.7623C9.97293 16.7215 9.88971 16.6461 9.77494 16.6938C9.95513 17.0484 9.73374 17.5361 9.17056 17.6515C9.37668 17.4099 9.4776 17.149 9.4776 16.8893C9.4776 16.0476 9.24367 15.9061 9.24367 15.3209C9.24367 15.0761 9.36952 14.8117 9.61896 14.632V14.6418C9.4541 14.5976 9.34849 14.5164 9.28777 14.4061C9.66446 14.2993 10.212 14.3013 10.506 14.417C10.8439 14.4561 11.0799 14.7154 11.1494 14.847C11.2189 14.9785 11.3539 15.4543 11.1494 15.8827C10.9255 16.3516 9.87005 18.5896 9.54097 19.2931C9.47119 19.4423 9.42884 19.6005 9.42884 19.7719C9.42884 20.2028 9.82362 20.3533 10.0479 20.3533C10.3159 20.3533 10.5889 20.1491 10.5889 19.894C10.5889 19.7324 10.5011 19.6351 10.3744 19.6351C10.0714 19.6351 10.0898 19.8928 10.1502 20.0553C9.96165 19.9705 9.85203 19.8191 9.88216 19.6595C9.7754 19.6449 9.67377 19.5943 9.57998 19.4885C9.65378 19.3954 9.74377 19.3249 9.88216 19.3224C9.82172 19.0748 9.98748 18.9701 10.1502 18.912C10.0987 19.0937 10.065 19.3029 10.3744 19.3029C10.6001 19.3029 10.7777 19.342 10.8813 19.4885C10.8874 19.2931 10.9057 18.5211 10.9057 18.5211C10.9187 18.231 10.5174 18.2393 10.2624 18.3257C10.3586 17.9915 10.556 17.8109 11.0129 17.8566C10.902 17.8102 10.7838 17.7059 10.7838 17.5048C10.7839 17.2328 11.0046 16.9315 11.1495 16.8424L11.2219 19.6743L11.2218 19.6743Z" fill="#FCD95E"/>
<path d="M11.1295 11.8211C11.1295 11.8211 11.4738 11.5318 11.5907 11.6769C11.7788 11.9103 11.0125 13.0729 11.0125 13.4822C11.0125 14.1543 11.4609 14.337 12.0146 14.433C12.3861 14.4974 12.9911 14.406 12.9911 14.406C12.8772 14.253 12.8031 14.2079 12.6112 14.1956C12.8249 14.0847 13.0425 13.8439 13.0425 13.469C13.0425 12.8909 12.8045 12.6526 12.8045 12.0008C12.8045 11.6393 13.101 11.179 13.101 11.179C12.5769 11.2315 12.3172 11.7167 12.4649 12.1045C12.3815 12.1165 12.3058 12.0977 12.2408 12.0361C12.2024 12.1435 12.263 12.2683 12.344 12.3758C12.2787 12.4107 12.2308 12.3898 12.1267 12.3683C12.1366 12.479 12.203 12.5967 12.3653 12.7075C11.8942 12.5851 11.6043 12.9135 11.6043 13.2572C11.6043 13.5169 11.7863 13.703 11.9641 13.703C12.0216 13.703 12.106 13.6793 12.1536 13.6437C12.1872 13.7152 12.1699 13.8109 12.1354 13.8823C12.2657 13.8479 12.3484 13.7704 12.2895 13.6093C12.3897 13.6001 12.4693 13.5663 12.5235 13.5018C12.4686 13.4315 12.3853 13.391 12.2895 13.3943C12.3624 13.2439 12.2812 13.1597 12.1628 13.0914C12.1628 13.0914 12.2381 13.3943 12.0458 13.3943C11.9594 13.3943 11.8806 13.3662 11.8806 13.2388C11.8806 13.1278 11.9776 12.9741 12.2018 12.9839C12.426 12.9937 12.6078 13.1385 12.6078 13.4964C12.6078 13.8265 12.3415 13.9908 11.9905 14.0014C11.6741 14.0111 11.4353 13.8397 11.4353 13.5133C11.4353 13.0788 12.0625 12.0885 12.0625 11.7013C12.0625 11.4108 11.8012 11.2486 11.5456 11.2486C11.2142 11.2486 10.9346 11.5768 10.9346 11.5768L11.1293 11.821L11.1295 11.8211Z" fill="#FCD95E"/>
<path d="M11.0571 19.6742C11.0571 20.4004 11.7091 20.7736 12.2213 20.7736C12.9115 20.7736 13.279 20.3609 13.279 19.8208C13.279 19.5145 13.2229 19.3224 13.0817 19.0293C13.0817 19.0293 11.9432 16.6617 11.5 15.746C11.4447 15.6318 11.4269 15.5018 11.4269 15.3112C11.4269 15.0168 11.7124 14.7762 12.0118 14.7689C12.2847 14.762 12.582 15.0233 12.582 15.321C12.582 15.6825 12.3944 15.8437 12.2018 15.8437C11.9648 15.8437 11.8704 15.7463 11.8704 15.5799C11.8704 15.4639 11.9264 15.4138 12.0069 15.4138C12.2102 15.4138 12.1531 15.6874 12.1531 15.6874C12.254 15.6653 12.337 15.5621 12.2896 15.4333C12.3662 15.4164 12.4354 15.3753 12.487 15.3161C12.4325 15.2632 12.37 15.2225 12.2896 15.2086C12.3372 15.0514 12.2736 14.9746 12.136 14.9423C12.1638 15.0027 12.1647 15.0584 12.1555 15.1109C11.939 15.0493 11.6072 15.1473 11.6072 15.5213C11.6072 15.8926 11.8649 16.2052 12.3481 16.1271C12.2332 16.1821 12.1747 16.2945 12.1629 16.4202C12.2506 16.3861 12.3481 16.3812 12.3481 16.3812C12.2916 16.4808 12.2131 16.5667 12.2165 16.7623C12.3061 16.7215 12.3893 16.6461 12.5041 16.6938C12.3239 17.0484 12.5453 17.5361 13.1084 17.6515C12.9023 17.4099 12.8014 17.149 12.8014 16.8893C12.8014 16.0476 13.0353 15.9061 13.0353 15.3209C13.0353 15.0761 12.9095 14.8117 12.66 14.632V14.6418C12.8249 14.5976 12.9305 14.5164 12.9912 14.4061C12.6145 14.2993 12.067 14.3013 11.773 14.417C11.435 14.4561 11.1991 14.7154 11.1296 14.847C11.0601 14.9785 10.9251 15.4543 11.1296 15.8827C11.3535 16.3516 12.4089 18.5895 12.738 19.293C12.8078 19.4423 12.8501 19.6005 12.8501 19.7719C12.8501 20.2028 12.4554 20.3533 12.2311 20.3533C11.963 20.3533 11.6901 20.1491 11.6901 19.894C11.6901 19.7324 11.7779 19.6351 11.9046 19.6351C12.2076 19.6351 12.1892 19.8928 12.1288 20.0553C12.3173 19.9705 12.427 19.8191 12.3968 19.6595C12.5036 19.6449 12.6052 19.5943 12.699 19.4885C12.6252 19.3954 12.5352 19.3249 12.3968 19.3224C12.4573 19.0748 12.2915 18.9701 12.1288 18.912C12.1802 19.0937 12.214 19.3029 11.9046 19.3029C11.6789 19.3029 11.5013 19.3419 11.3977 19.4885C11.3916 19.2931 11.3733 18.5211 11.3733 18.5211C11.3603 18.231 11.7616 18.2393 12.0166 18.3257C11.9204 17.9915 11.723 17.8109 11.2661 17.8566C11.377 17.8102 11.4952 17.7059 11.4952 17.5048C11.4951 17.2328 11.2744 16.9315 11.1295 16.8424L11.0571 19.6743L11.0571 19.6742Z" fill="#FCD95E"/>
<path d="M11.1295 42.5929C11.1295 42.5929 11.4738 42.8822 11.5907 42.7371C11.7788 42.5037 11.0125 41.3411 11.0125 40.9318C11.0125 40.2597 11.4609 40.077 12.0146 39.981C12.3861 39.9166 12.9911 40.008 12.9911 40.008C12.8772 40.161 12.8031 40.2061 12.6112 40.2184C12.8249 40.3293 13.0425 40.5701 13.0425 40.945C13.0425 41.5231 12.8045 41.7614 12.8045 42.4132C12.8045 42.7747 13.101 43.235 13.101 43.235C12.5769 43.1825 12.3172 42.6973 12.4649 42.3095C12.3815 42.2975 12.3058 42.3163 12.2408 42.3779C12.2024 42.2705 12.263 42.1457 12.344 42.0382C12.2787 42.0033 12.2308 42.0242 12.1267 42.0457C12.1366 41.935 12.203 41.8173 12.3653 41.7065C11.8942 41.8289 11.6043 41.5005 11.6043 41.1568C11.6043 40.8971 11.7863 40.711 11.9641 40.711C12.0216 40.711 12.106 40.7347 12.1536 40.7703C12.1872 40.6988 12.1699 40.6031 12.1354 40.5317C12.2657 40.5661 12.3484 40.6436 12.2895 40.8047C12.3897 40.8139 12.4693 40.8477 12.5235 40.9122C12.4686 40.9825 12.3853 41.023 12.2895 41.0197C12.3624 41.1701 12.2812 41.2543 12.1628 41.3226C12.1628 41.3226 12.2381 41.0197 12.0458 41.0197C11.9594 41.0197 11.8806 41.0478 11.8806 41.1752C11.8806 41.2862 11.9776 41.4399 12.2018 41.4301C12.426 41.4203 12.6078 41.2755 12.6078 40.9176C12.6078 40.5875 12.3415 40.4232 11.9905 40.4126C11.6741 40.4029 11.4353 40.5743 11.4353 40.9007C11.4353 41.3352 12.0625 42.3255 12.0625 42.7127C12.0625 43.0032 11.8012 43.1654 11.5456 43.1654C11.2142 43.1654 10.9346 42.8372 10.9346 42.8372L11.1293 42.593L11.1295 42.5929Z" fill="#FCD95E"/>
<path d="M11.0571 34.7398C11.0571 34.0136 11.7091 33.6404 12.2213 33.6404C12.9115 33.6404 13.279 34.0531 13.279 34.5932C13.279 34.8995 13.2229 35.0916 13.0817 35.3847C13.0817 35.3847 11.9432 37.7523 11.5 38.668C11.4447 38.7822 11.4269 38.9122 11.4269 39.1028C11.4269 39.3972 11.7124 39.6378 12.0118 39.6451C12.2847 39.652 12.582 39.3907 12.582 39.093C12.582 38.7315 12.3944 38.5703 12.2018 38.5703C11.9648 38.5703 11.8704 38.6677 11.8704 38.8341C11.8704 38.9501 11.9264 39.0002 12.0069 39.0002C12.2102 39.0002 12.1531 38.7266 12.1531 38.7266C12.254 38.7487 12.337 38.8519 12.2896 38.9807C12.3662 38.9976 12.4354 39.0387 12.487 39.0979C12.4325 39.1508 12.37 39.1916 12.2896 39.2054C12.3372 39.3626 12.2736 39.4394 12.136 39.4717C12.1638 39.4113 12.1647 39.3556 12.1555 39.3031C11.939 39.3647 11.6072 39.2667 11.6072 38.8927C11.6072 38.5214 11.8649 38.2088 12.3481 38.2869C12.2332 38.2319 12.1747 38.1195 12.1629 37.9938C12.2506 38.0279 12.3481 38.0328 12.3481 38.0328C12.2916 37.9332 12.2131 37.8473 12.2165 37.6517C12.3061 37.6925 12.3893 37.7679 12.5041 37.7202C12.3239 37.3656 12.5453 36.8779 13.1084 36.7625C12.9023 37.0041 12.8014 37.265 12.8014 37.5247C12.8014 38.3664 13.0353 38.5079 13.0353 39.0931C13.0353 39.3379 12.9095 39.6023 12.66 39.782L12.66 39.7722C12.8249 39.8164 12.9305 39.8976 12.9912 40.0079C12.6145 40.1147 12.067 40.1127 11.773 39.997C11.435 39.9579 11.1991 39.6986 11.1296 39.567C11.0601 39.4355 10.9251 38.9597 11.1296 38.5313C11.3535 38.0624 12.4089 35.8245 12.738 35.121C12.8078 34.9717 12.8501 34.8135 12.8501 34.6421C12.8501 34.2112 12.4554 34.0607 12.2311 34.0607C11.963 34.0607 11.6901 34.2649 11.6901 34.52C11.6901 34.6816 11.7779 34.7789 11.9046 34.7789C12.2076 34.7789 12.1892 34.5212 12.1288 34.3587C12.3173 34.4435 12.427 34.5949 12.3968 34.7545C12.5036 34.7691 12.6052 34.8198 12.699 34.9255C12.6252 35.0186 12.5352 35.0891 12.3968 35.0916C12.4573 35.3392 12.2915 35.4439 12.1288 35.502C12.1802 35.3203 12.214 35.1111 11.9046 35.1111C11.6789 35.1111 11.5013 35.0721 11.3977 34.9255C11.3916 35.1209 11.3733 35.8929 11.3733 35.8929C11.3603 36.183 11.7616 36.1747 12.0166 36.0883C11.9204 36.4225 11.723 36.6031 11.2661 36.5574C11.377 36.6038 11.4952 36.7081 11.4952 36.9092C11.4951 37.1812 11.2744 37.4825 11.1295 37.5716L11.0571 34.7397L11.0571 34.7398Z" fill="#FCD95E"/>
<path d="M11.1495 42.5929C11.1495 42.5929 10.8052 42.8822 10.6883 42.7371C10.5002 42.5037 11.2665 41.3411 11.2665 40.9317C11.2665 40.2597 10.8181 40.077 10.2644 39.981C9.89286 39.9166 9.28787 40.0079 9.28787 40.0079C9.40179 40.161 9.47588 40.2061 9.66782 40.2183C9.45413 40.3293 9.23654 40.5701 9.23654 40.945C9.23654 41.5231 9.47452 41.7614 9.47452 42.4131C9.47452 42.7747 9.17804 43.235 9.17804 43.235C9.7021 43.1825 9.96182 42.6973 9.81405 42.3095C9.89745 42.2975 9.97318 42.3163 10.0382 42.3779C10.0766 42.2705 10.016 42.1457 9.93496 42.0382C10.0003 42.0033 10.0482 42.0242 10.1523 42.0457C10.1424 41.9349 10.076 41.8173 9.91368 41.7065C10.3848 41.8289 10.6747 41.5005 10.6747 41.1567C10.6747 40.8971 10.4927 40.711 10.3149 40.711C10.2574 40.711 10.173 40.7347 10.1254 40.7702C10.0918 40.6988 10.1091 40.6031 10.1436 40.5317C10.0133 40.5661 9.93055 40.6435 9.98944 40.8047C9.88932 40.8139 9.80968 40.8477 9.75552 40.9121C9.8104 40.9825 9.89369 41.0229 9.98944 41.0196C9.91654 41.1701 9.99779 41.2543 10.1162 41.3226C10.1162 41.3226 10.0409 41.0196 10.2332 41.0196C10.3196 41.0196 10.3984 41.0478 10.3984 41.1752C10.3984 41.2862 10.3014 41.4399 10.0772 41.4301C9.85299 41.4203 9.67122 41.2755 9.67122 40.9176C9.67122 40.5874 9.93754 40.4232 10.2885 40.4126C10.6049 40.4028 10.8437 40.5742 10.8437 40.9007C10.8437 41.3352 10.2165 42.3255 10.2165 42.7127C10.2165 43.0032 10.4778 43.1653 10.7334 43.1653C11.0648 43.1653 11.3444 42.8371 11.3444 42.8371L11.1497 42.593L11.1495 42.5929Z" fill="#FCD95E"/>
<path d="M11.2218 34.7397C11.2218 34.0136 10.5699 33.6404 10.0577 33.6404C9.36748 33.6404 9 34.053 9 34.5932C9 34.8994 9.0561 35.0916 9.19728 35.3846C9.19728 35.3846 10.3358 37.7522 10.779 38.668C10.8343 38.7822 10.8521 38.9122 10.8521 39.1028C10.8521 39.3972 10.5666 39.6377 10.2672 39.6451C9.99432 39.6519 9.69698 39.3907 9.69698 39.093C9.69698 38.7314 9.88456 38.5702 10.0771 38.5702C10.3142 38.5702 10.4086 38.6677 10.4086 38.8341C10.4086 38.95 10.3526 39.0002 10.2721 39.0002C10.0688 39.0002 10.1259 38.7266 10.1259 38.7266C10.0249 38.7487 9.94198 38.8518 9.98941 38.9807C9.91276 38.9976 9.84356 39.0387 9.79202 39.0979C9.84651 39.1508 9.90902 39.1915 9.98941 39.2054C9.9418 39.3626 10.0054 39.4394 10.143 39.4717C10.1152 39.4112 10.1143 39.3556 10.1235 39.3031C10.3399 39.3647 10.6718 39.2667 10.6718 38.8927C10.6718 38.5214 10.4141 38.2087 9.93091 38.2869C10.0458 38.2319 10.1043 38.1195 10.1161 37.9937C10.0284 38.0279 9.93091 38.0328 9.93091 38.0328C9.98741 37.9332 10.0659 37.8473 10.0625 37.6517C9.97293 37.6925 9.88971 37.7679 9.77494 37.7201C9.95513 37.3656 9.73374 36.8779 9.17056 36.7625C9.37669 37.0041 9.4776 37.265 9.4776 37.5247C9.4776 38.3664 9.24367 38.5079 9.24367 39.093C9.24367 39.3379 9.36952 39.6023 9.61896 39.782L9.61896 39.7722C9.4541 39.8164 9.34849 39.8975 9.28777 40.0078C9.66446 40.1147 10.212 40.1127 10.506 39.997C10.8439 39.9579 11.0799 39.6986 11.1494 39.567C11.2189 39.4355 11.3539 38.9597 11.1494 38.5313C10.9255 38.0624 9.87005 35.8244 9.54097 35.1209C9.47119 34.9717 9.42884 34.8135 9.42884 34.6421C9.42884 34.2112 9.82362 34.0607 10.0479 34.0607C10.3159 34.0607 10.5889 34.2649 10.5889 34.52C10.5889 34.6816 10.5011 34.7789 10.3744 34.7789C10.0714 34.7789 10.0898 34.5211 10.1502 34.3587C9.96165 34.4435 9.85203 34.5949 9.88216 34.7545C9.7754 34.7691 9.67377 34.8197 9.57998 34.9255C9.65378 35.0186 9.74377 35.0891 9.88216 35.0916C9.82172 35.3392 9.98748 35.4439 10.1502 35.502C10.0987 35.3203 10.065 35.1111 10.3744 35.1111C10.6001 35.1111 10.7777 35.072 10.8813 34.9254C10.8874 35.1209 10.9057 35.8929 10.9057 35.8929C10.9187 36.183 10.5174 36.1747 10.2624 36.0883C10.3586 36.4224 10.556 36.6031 11.0129 36.5574C10.902 36.6037 10.7838 36.7081 10.7838 36.9091C10.7839 37.1811 11.0046 37.4825 11.1495 37.5716L11.2219 34.7397L11.2218 34.7397Z" fill="#FCD95E"/>
<path d="M11.0571 21.8433C11.0571 21.1172 11.7091 20.7439 12.2213 20.7439C12.9115 20.7439 13.279 21.1566 13.279 21.6968C13.279 22.003 13.2229 22.1951 13.0817 22.4882C13.0817 22.4882 11.9432 24.8558 11.5 25.7715C11.4447 25.8857 11.4269 26.0158 11.4269 26.2064C11.4269 26.5007 11.7124 26.7413 12.0118 26.7487C12.2847 26.7555 12.582 26.4943 12.582 26.1966C12.582 25.835 12.3944 25.6738 12.2018 25.6738C11.9648 25.6738 11.8704 25.7712 11.8704 25.9376C11.8704 26.0536 11.9264 26.1038 12.0069 26.1038C12.2102 26.1038 12.1531 25.8301 12.1531 25.8301C12.254 25.8522 12.337 25.9554 12.2896 26.0842C12.3662 26.1012 12.4354 26.1423 12.487 26.2015C12.4325 26.2543 12.37 26.2951 12.2896 26.309C12.3372 26.4661 12.2736 26.5429 12.136 26.5752C12.1638 26.5148 12.1647 26.4592 12.1555 26.4067C11.939 26.4683 11.6072 26.3703 11.6072 25.9963C11.6072 25.625 11.8649 25.3123 12.3481 25.3904C12.2332 25.3355 12.1747 25.223 12.1629 25.0973C12.2506 25.1315 12.3481 25.1363 12.3481 25.1363C12.2916 25.0368 12.2131 24.9509 12.2165 24.7553C12.3061 24.796 12.3893 24.8714 12.5041 24.8237C12.3239 24.4691 12.5453 23.9814 13.1084 23.866C12.9023 24.1077 12.8014 24.3685 12.8014 24.6283C12.8014 25.47 13.0353 25.6114 13.0353 26.1966C13.0353 26.4415 12.9095 26.7058 12.66 26.8855L12.66 26.8758C12.8249 26.9199 12.9305 27.0011 12.9912 27.1114C12.6145 27.2182 12.067 27.2163 11.773 27.1006C11.435 27.0614 11.1991 26.8022 11.1296 26.6706C11.0601 26.5391 10.9251 26.0632 11.1296 25.6348C11.3535 25.166 12.4089 22.928 12.738 22.2245C12.8078 22.0753 12.8501 21.917 12.8501 21.7457C12.8501 21.3147 12.4554 21.1643 12.2311 21.1643C11.963 21.1643 11.6901 21.3685 11.6901 21.6235C11.6901 21.7851 11.7779 21.8824 11.9046 21.8824C12.2076 21.8824 12.1892 21.6247 12.1288 21.4623C12.3173 21.5471 12.427 21.6984 12.3968 21.858C12.5036 21.8727 12.6052 21.9233 12.699 22.029C12.6252 22.1222 12.5352 22.1926 12.3968 22.1952C12.4573 22.4428 12.2915 22.5475 12.1288 22.6055C12.1802 22.4238 12.214 22.2147 11.9046 22.2147C11.6789 22.2147 11.5013 22.1756 11.3977 22.029C11.3916 22.2245 11.3733 22.9964 11.3733 22.9964C11.3603 23.2865 11.7616 23.2782 12.0166 23.1919C11.9204 23.526 11.723 23.7067 11.2661 23.6609C11.377 23.7073 11.4952 23.8117 11.4952 24.0127C11.4951 24.2847 11.2744 24.5861 11.1295 24.6751L11.0571 21.8433L11.0571 21.8433Z" fill="#FCD95E"/>
<path d="M11.2218 21.8433C11.2218 21.1171 10.5699 20.7439 10.0577 20.7439C9.36748 20.7439 9 21.1566 9 21.6968C9 22.003 9.0561 22.1951 9.19728 22.4882C9.19728 22.4882 10.3358 24.8558 10.779 25.7715C10.8343 25.8857 10.8521 26.0158 10.8521 26.2063C10.8521 26.5007 10.5666 26.7413 10.2672 26.7487C9.99432 26.7555 9.69698 26.4943 9.69698 26.1966C9.69698 25.835 9.88456 25.6738 10.0771 25.6738C10.3142 25.6738 10.4086 25.7712 10.4086 25.9376C10.4086 26.0536 10.3526 26.1037 10.2721 26.1037C10.0688 26.1037 10.1259 25.8301 10.1259 25.8301C10.0249 25.8522 9.94198 25.9554 9.98941 26.0842C9.91276 26.1012 9.84356 26.1423 9.79202 26.2015C9.84651 26.2543 9.90902 26.2951 9.98941 26.3089C9.9418 26.4661 10.0054 26.5429 10.143 26.5752C10.1152 26.5148 10.1143 26.4591 10.1235 26.4067C10.3399 26.4682 10.6718 26.3703 10.6718 25.9963C10.6718 25.625 10.4141 25.3123 9.93091 25.3904C10.0458 25.3355 10.1043 25.223 10.1161 25.0973C10.0284 25.1315 9.93091 25.1363 9.93091 25.1363C9.98741 25.0367 10.0659 24.9509 10.0625 24.7553C9.97293 24.796 9.88971 24.8714 9.77494 24.8237C9.95513 24.4691 9.73374 23.9814 9.17056 23.866C9.37669 24.1077 9.4776 24.3685 9.4776 24.6282C9.4776 25.47 9.24367 25.6114 9.24367 26.1966C9.24367 26.4414 9.36952 26.7058 9.61896 26.8855L9.61896 26.8757C9.4541 26.9199 9.34849 27.0011 9.28777 27.1114C9.66446 27.2182 10.212 27.2162 10.506 27.1006C10.8439 27.0614 11.0799 26.8022 11.1494 26.6705C11.2189 26.5391 11.3539 26.0632 11.1494 25.6348C10.9255 25.166 9.87005 22.928 9.54097 22.2245C9.47119 22.0753 9.42884 21.917 9.42884 21.7457C9.42884 21.3147 9.82362 21.1642 10.0479 21.1642C10.3159 21.1642 10.5889 21.3684 10.5889 21.6235C10.5889 21.7851 10.5011 21.8824 10.3744 21.8824C10.0714 21.8824 10.0898 21.6247 10.1502 21.4623C9.96165 21.5471 9.85203 21.6984 9.88216 21.858C9.7754 21.8727 9.67377 21.9233 9.57998 22.029C9.65378 22.1222 9.74377 22.1926 9.88216 22.1951C9.82172 22.4428 9.98748 22.5475 10.1502 22.6055C10.0987 22.4238 10.065 22.2147 10.3744 22.2147C10.6001 22.2147 10.7777 22.1756 10.8813 22.029C10.8874 22.2244 10.9057 22.9964 10.9057 22.9964C10.9187 23.2865 10.5174 23.2782 10.2624 23.1919C10.3586 23.526 10.556 23.7066 11.0129 23.6609C10.902 23.7073 10.7838 23.8116 10.7838 24.0127C10.7839 24.2847 11.0046 24.586 11.1495 24.6751L11.2219 21.8432L11.2218 21.8433Z" fill="#FCD95E"/>
<path d="M11.2218 32.5384C11.2218 33.2645 10.5699 33.6377 10.0577 33.6377C9.36748 33.6377 9 33.2251 9 32.6849C9 32.3787 9.0561 32.1866 9.19728 31.8935C9.19728 31.8935 10.3358 29.5259 10.779 28.6102C10.8343 28.4959 10.8521 28.3659 10.8521 28.1753C10.8521 27.881 10.5666 27.6404 10.2672 27.633C9.99432 27.6262 9.69698 27.8874 9.69698 28.1851C9.69698 28.5467 9.88456 28.7079 10.0771 28.7079C10.3142 28.7079 10.4086 28.6104 10.4086 28.444C10.4086 28.3281 10.3526 28.2779 10.2721 28.2779C10.0688 28.2779 10.1259 28.5515 10.1259 28.5515C10.0249 28.5294 9.94198 28.4263 9.98941 28.2975C9.91276 28.2805 9.84356 28.2394 9.79202 28.1802C9.84651 28.1274 9.90902 28.0866 9.98941 28.0727C9.9418 27.9155 10.0054 27.8388 10.143 27.8065C10.1152 27.8669 10.1143 27.9225 10.1235 27.975C10.3399 27.9134 10.6718 28.0114 10.6718 28.3854C10.6718 28.7567 10.4141 29.0694 9.93091 28.9912C10.0458 29.0462 10.1043 29.1586 10.1161 29.2844C10.0284 29.2502 9.93091 29.2453 9.93091 29.2453C9.98741 29.3449 10.0659 29.4308 10.0625 29.6264C9.97293 29.5857 9.88971 29.5103 9.77494 29.558C9.95513 29.9126 9.73374 30.4003 9.17056 30.5156C9.37668 30.274 9.4776 30.0131 9.4776 29.7534C9.4776 28.9117 9.24367 28.7703 9.24367 28.1851C9.24367 27.9402 9.36952 27.6758 9.61896 27.4961V27.5059C9.4541 27.4618 9.34849 27.3806 9.28777 27.2703C9.66446 27.1635 10.212 27.1654 10.506 27.2811C10.8439 27.3203 11.0799 27.5795 11.1494 27.7111C11.2189 27.8426 11.3539 28.3184 11.1494 28.7469C10.9255 29.2157 9.87005 31.4537 9.54097 32.1572C9.47119 32.3064 9.42884 32.4647 9.42884 32.636C9.42884 33.067 9.82362 33.2174 10.0479 33.2174C10.3159 33.2174 10.5889 33.0132 10.5889 32.7582C10.5889 32.5966 10.5011 32.4992 10.3744 32.4992C10.0714 32.4992 10.0898 32.757 10.1502 32.9194C9.96165 32.8346 9.85203 32.6833 9.88216 32.5237C9.7754 32.509 9.67377 32.4584 9.57998 32.3526C9.65378 32.2595 9.74377 32.189 9.88216 32.1865C9.82172 31.9389 9.98748 31.8342 10.1502 31.7761C10.0987 31.9579 10.065 32.167 10.3744 32.167C10.6001 32.167 10.7777 32.2061 10.8813 32.3527C10.8874 32.1572 10.9057 31.3853 10.9057 31.3853C10.9187 31.0952 10.5174 31.1034 10.2624 31.1898C10.3586 30.8557 10.556 30.675 11.0129 30.7208C10.902 30.6744 10.7838 30.57 10.7838 30.369C10.7839 30.097 11.0046 29.7956 11.1495 29.7065L11.2219 32.5384L11.2218 32.5384Z" fill="#FCD95E"/>
<path d="M11.0571 32.5384C11.0571 33.2645 11.7091 33.6377 12.2213 33.6377C12.9115 33.6377 13.279 33.2251 13.279 32.6849C13.279 32.3787 13.2229 32.1866 13.0817 31.8935C13.0817 31.8935 11.9432 29.5259 11.5 28.6101C11.4447 28.4959 11.4269 28.3659 11.4269 28.1753C11.4269 27.881 11.7124 27.6404 12.0118 27.633C12.2847 27.6262 12.582 27.8874 12.582 28.1851C12.582 28.5467 12.3944 28.7079 12.2018 28.7079C11.9648 28.7079 11.8704 28.6104 11.8704 28.444C11.8704 28.3281 11.9264 28.2779 12.0069 28.2779C12.2102 28.2779 12.1531 28.5515 12.1531 28.5515C12.254 28.5294 12.337 28.4263 12.2896 28.2974C12.3662 28.2805 12.4354 28.2394 12.487 28.1802C12.4325 28.1273 12.37 28.0866 12.2896 28.0727C12.3372 27.9155 12.2736 27.8388 12.136 27.8064C12.1638 27.8669 12.1647 27.9225 12.1555 27.975C11.939 27.9134 11.6072 28.0114 11.6072 28.3854C11.6072 28.7567 11.8649 29.0694 12.3481 28.9912C12.2332 29.0462 12.1747 29.1586 12.1629 29.2844C12.2506 29.2502 12.3481 29.2453 12.3481 29.2453C12.2916 29.3449 12.2131 29.4308 12.2165 29.6264C12.3061 29.5857 12.3893 29.5102 12.5041 29.558C12.3239 29.9125 12.5453 30.4002 13.1084 30.5156C12.9023 30.274 12.8014 30.0131 12.8014 29.7534C12.8014 28.9117 13.0353 28.7702 13.0353 28.1851C13.0353 27.9402 12.9095 27.6758 12.66 27.4961V27.5059C12.8249 27.4617 12.9305 27.3806 12.9912 27.2703C12.6145 27.1634 12.067 27.1654 11.773 27.2811C11.435 27.3202 11.1991 27.5795 11.1296 27.7111C11.0601 27.8426 10.9251 28.3184 11.1296 28.7468C11.3535 29.2157 12.4089 31.4537 12.738 32.1572C12.8078 32.3064 12.8501 32.4646 12.8501 32.636C12.8501 33.0669 12.4554 33.2174 12.2311 33.2174C11.963 33.2174 11.6901 33.0132 11.6901 32.7582C11.6901 32.5966 11.7779 32.4992 11.9046 32.4992C12.2076 32.4992 12.1892 32.757 12.1288 32.9194C12.3173 32.8346 12.427 32.6832 12.3968 32.5236C12.5036 32.509 12.6052 32.4584 12.699 32.3526C12.6252 32.2595 12.5352 32.189 12.3968 32.1865C12.4573 31.9389 12.2915 31.8342 12.1288 31.7761C12.1802 31.9579 12.214 32.167 11.9046 32.167C11.6789 32.167 11.5013 32.2061 11.3977 32.3527C11.3916 32.1572 11.3733 31.3852 11.3733 31.3852C11.3603 31.0951 11.7616 31.1034 12.0166 31.1898C11.9204 30.8557 11.723 30.675 11.2661 30.7208C11.377 30.6744 11.4952 30.57 11.4952 30.369C11.4951 30.097 11.2744 29.7956 11.1295 29.7065L11.0571 32.5384L11.0571 32.5384Z" fill="#FCD95E"/>
</g>
</svg>
