<svg width="54" height="54" viewBox="0 0 54 54" fill="none" xmlns="http://www.w3.org/2000/svg">
<mask id="mask0_1_30735" style="mask-type:alpha" maskUnits="userSpaceOnUse" x="3" y="9" width="48" height="36">
<path d="M3.56934 18.1356C4.16681 13.4125 8.0415 10.0019 12.7861 9.60887C16.6412 9.28949 21.6196 9 27 9C32.3804 9 37.3588 9.28949 41.2139 9.60887C45.9585 10.0019 49.8332 13.4125 50.4307 18.1356C50.752 20.6759 51 23.704 51 27C51 30.296 50.752 33.3241 50.4307 35.8644C49.8332 40.5875 45.9585 43.9981 41.2139 44.3911C37.3588 44.7105 32.3804 45 27 45C21.6196 45 16.6412 44.7105 12.7861 44.3911C8.04151 43.9981 4.16681 40.5875 3.56934 35.8644C3.248 33.3241 3 30.296 3 27C3 23.704 3.248 20.6759 3.56934 18.1356Z" fill="#00D0BF"/>
</mask>
<g mask="url(#mask0_1_30735)">
<rect x="3" y="29" width="48" height="16" fill="#59C785"/>
<rect x="3" y="9" width="48" height="16" fill="#2C2929"/>
<rect x="2" y="20" width="50" height="14" fill="#EE5757" stroke="#F5F5F5" stroke-width="2"/>
<path d="M19.4065 37.8188L19.8275 38.0619L31.3151 18.1647C31.9821 17.9819 32.351 17.3429 32.7199 16.704C32.9658 16.2781 33.9495 14.5743 34.3831 12.3646C32.6864 13.845 31.7027 15.5488 31.4568 15.9748C31.0879 16.6137 30.719 17.2526 30.8941 17.9216L19.4065 37.8188Z" fill="white"/>
<path d="M34.1726 38.0619L34.5937 37.8188L23.1061 17.9217C23.2812 17.2527 22.9123 16.6138 22.5434 15.9748C22.2975 15.5489 21.3138 13.8451 19.617 12.3647C20.0507 14.5744 21.0344 16.2781 21.2803 16.7041C21.6492 17.343 22.0181 17.9819 22.685 18.1648L34.1726 38.0619Z" fill="white"/>
<path d="M22.3815 33.0979C23.1107 35.0653 25.5416 39 27.0001 39C28.4586 39 30.8894 35.0653 31.6187 33.0979V21.2938C30.8894 19.3264 28.4586 15.3917 27.0001 15.3917C25.5416 15.3917 23.1107 19.3264 22.3815 21.2938V33.0979Z" fill="#EE5757"/>
<path d="M31.6187 33.098C32.348 31.1306 32.8342 29.1633 32.8342 27.1959C32.8342 25.2285 32.348 23.2612 31.6187 21.2938C30.8895 23.2612 30.4033 25.2285 30.4033 27.1959C30.4033 29.1633 30.8895 31.1306 31.6187 33.098Z" fill="black"/>
<path d="M22.5112 33.098C23.2404 31.1306 23.7266 29.1633 23.7266 27.1959C23.7266 25.2285 23.2404 23.2612 22.5112 21.2938C21.7819 23.2612 21.2958 25.2285 21.2958 27.1959C21.2958 29.1633 21.7819 31.1306 22.5112 33.098Z" fill="black"/>
<path d="M27 28.6714C27.5371 28.6714 27.9724 28.0108 27.9724 27.1959C27.9724 26.3809 27.5371 25.7203 27 25.7203C26.463 25.7203 26.0277 26.3809 26.0277 27.1959C26.0277 28.0108 26.463 28.6714 27 28.6714Z" fill="white"/>
<path d="M27.2432 28.6345C27.2432 28.6345 28.2155 30.6019 28.2155 33.7989C28.2155 36.9958 27.2432 38.9632 27.2432 38.9632V28.6345Z" fill="white"/>
<path d="M27.2432 15.4306C27.2432 15.4306 28.2155 17.398 28.2155 20.5949C28.2155 23.7919 27.2432 25.7592 27.2432 25.7592V15.4306Z" fill="white"/>
<path d="M26.9352 38.9631C26.9352 38.9631 25.9628 36.9958 25.9628 33.7988C25.9628 30.6018 26.9352 28.6345 26.9352 28.6345L26.9352 38.9631Z" fill="white"/>
<path d="M26.9352 25.7592C26.9352 25.7592 25.9628 23.7918 25.9628 20.5949C25.9628 17.3979 26.9352 15.4306 26.9352 15.4306L26.9352 25.7592Z" fill="white"/>
</g>
</svg>
