<svg width="54" height="48" viewBox="0 0 54 48" fill="none" xmlns="http://www.w3.org/2000/svg">
<mask id="mask0_1_30735" style="mask-type:alpha" maskUnits="userSpaceOnUse" x="3" y="6" width="48" height="36">
<path d="M3.56934 15.1356C4.16681 10.4125 8.0415 7.00193 12.7861 6.60887C16.6412 6.28949 21.6196 6 27 6C32.3804 6 37.3588 6.28949 41.2139 6.60887C45.9585 7.00193 49.8332 10.4125 50.4307 15.1356C50.752 17.6759 51 20.704 51 24C51 27.296 50.752 30.3241 50.4307 32.8644C49.8332 37.5875 45.9585 40.9981 41.2139 41.3911C37.3588 41.7105 32.3804 42 27 42C21.6196 42 16.6412 41.7105 12.7861 41.3911C8.0415 40.9981 4.16681 37.5875 3.56934 32.8644C3.248 30.3241 3 27.296 3 24C3 20.704 3.248 17.6759 3.56934 15.1356Z" fill="#00D0BF"/>
</mask>
<g mask="url(#mask0_1_30735)">
<rect x="3" y="26" width="48" height="16" fill="#59C785"/>
<rect x="3" y="6" width="48" height="16" fill="#2C2929"/>
<rect x="2" y="17" width="50" height="14" fill="#EE5757" stroke="#F5F5F5" stroke-width="2"/>
<path d="M19.4065 34.8188L19.8275 35.0619L31.3151 15.1647C31.9821 14.9819 32.351 14.3429 32.7199 13.704C32.9658 13.2781 33.9495 11.5743 34.3831 9.36463C32.6864 10.845 31.7027 12.5488 31.4568 12.9748C31.0879 13.6137 30.719 14.2526 30.8941 14.9216L19.4065 34.8188Z" fill="white"/>
<path d="M34.1726 35.0619L34.5937 34.8188L23.1061 14.9217C23.2812 14.2527 22.9123 13.6138 22.5434 12.9748C22.2975 12.5489 21.3138 10.8451 19.617 9.3647C20.0507 11.5744 21.0344 13.2781 21.2803 13.7041C21.6492 14.343 22.0181 14.9819 22.685 15.1648L34.1726 35.0619Z" fill="white"/>
<path d="M22.3815 30.0979C23.1107 32.0653 25.5416 36 27.0001 36C28.4586 36 30.8894 32.0653 31.6187 30.0979V18.2938C30.8894 16.3264 28.4586 12.3917 27.0001 12.3917C25.5416 12.3917 23.1107 16.3264 22.3815 18.2938V30.0979Z" fill="#EE5757"/>
<path d="M31.6187 30.098C32.348 28.1306 32.8342 26.1633 32.8342 24.1959C32.8342 22.2285 32.348 20.2612 31.6187 18.2938C30.8895 20.2612 30.4033 22.2285 30.4033 24.1959C30.4033 26.1633 30.8895 28.1306 31.6187 30.098Z" fill="black"/>
<path d="M22.5112 30.098C23.2404 28.1306 23.7266 26.1633 23.7266 24.1959C23.7266 22.2285 23.2404 20.2612 22.5112 18.2938C21.7819 20.2612 21.2958 22.2285 21.2958 24.1959C21.2958 26.1633 21.7819 28.1306 22.5112 30.098Z" fill="black"/>
<path d="M27 25.6714C27.5371 25.6714 27.9724 25.0108 27.9724 24.1959C27.9724 23.3809 27.5371 22.7203 27 22.7203C26.463 22.7203 26.0277 23.3809 26.0277 24.1959C26.0277 25.0108 26.463 25.6714 27 25.6714Z" fill="white"/>
<path d="M27.2432 25.6345C27.2432 25.6345 28.2155 27.6019 28.2155 30.7989C28.2155 33.9958 27.2432 35.9632 27.2432 35.9632V25.6345Z" fill="white"/>
<path d="M27.2432 12.4306C27.2432 12.4306 28.2155 14.398 28.2155 17.5949C28.2155 20.7919 27.2432 22.7592 27.2432 22.7592V12.4306Z" fill="white"/>
<path d="M26.9352 35.9631C26.9352 35.9631 25.9628 33.9958 25.9628 30.7988C25.9628 27.6018 26.9352 25.6345 26.9352 25.6345L26.9352 35.9631Z" fill="white"/>
<path d="M26.9352 22.7592C26.9352 22.7592 25.9628 20.7918 25.9628 17.5949C25.9628 14.3979 26.9352 12.4306 26.9352 12.4306L26.9352 22.7592Z" fill="white"/>
</g>
</svg>
