<svg width="54" height="54" viewBox="0 0 54 54" fill="none" xmlns="http://www.w3.org/2000/svg">
<mask id="mask0_1_40443" style="mask-type:alpha" maskUnits="userSpaceOnUse" x="3" y="9" width="48" height="36">
<path d="M3.56934 18.1356C4.16681 13.4125 8.0415 10.0019 12.7861 9.60887C16.6412 9.28949 21.6196 9 27 9C32.3804 9 37.3588 9.28949 41.2139 9.60887C45.9585 10.0019 49.8332 13.4125 50.4307 18.1356C50.752 20.6759 51 23.704 51 27C51 30.296 50.752 33.3241 50.4307 35.8644C49.8332 40.5875 45.9585 43.9981 41.2139 44.3911C37.3588 44.7105 32.3804 45 27 45C21.6196 45 16.6412 44.7105 12.7861 44.3911C8.04151 43.9981 4.16681 40.5875 3.56934 35.8644C3.248 33.3241 3 30.296 3 27C3 23.704 3.248 20.6759 3.56934 18.1356Z" fill="#00D0BF"/>
</mask>
<g mask="url(#mask0_1_40443)">
<rect x="51" y="45" width="48" height="36" transform="rotate(-180 51 45)" fill="#EE5757"/>
<path d="M23.8406 23.9993C23.0387 23.5012 22.1882 23.0881 21.3134 22.7479C20.5601 23.8657 20.1227 25.2022 20.1227 26.648C20.1227 27.3649 20.2321 28.0574 20.4386 28.7135C20.8031 27.8752 21.2648 27.0611 21.8237 26.2835C22.4191 25.433 23.0994 24.6676 23.8406 23.9993ZM21.7022 22.2376C22.6499 22.5656 23.5611 22.9909 24.4359 23.489C24.6303 23.3189 24.8369 23.1731 25.0313 23.0273C24.1079 22.517 23.1237 22.1039 22.1153 21.788C21.9695 21.9338 21.8237 22.0796 21.7022 22.2376V22.2376ZM22.5527 21.3749C23.6462 21.6665 24.6911 22.0675 25.6752 22.5899C25.9061 22.4441 26.1369 22.3105 26.3556 22.1768C25.3107 21.6422 24.2051 21.2534 23.063 20.974C22.8808 21.0955 22.7107 21.2291 22.5527 21.3749ZM23.5854 20.646C24.7883 20.8889 25.9547 21.2777 27.0482 21.8123C28.1538 21.2777 29.3202 20.8889 30.5109 20.646C29.5025 20.0506 28.3118 19.7104 27.0482 19.7104C25.7846 19.7104 24.606 20.0506 23.5854 20.646ZM31.0334 20.9861C29.8913 21.2534 28.7856 21.6544 27.7407 22.1768C27.9716 22.3105 28.1903 22.4441 28.4211 22.5899C29.4174 22.0675 30.4623 21.6665 31.5436 21.3749C31.3857 21.2291 31.2156 21.0955 31.0334 20.9861V20.9861ZM31.981 21.8002C30.9726 22.1039 30.0006 22.517 29.0651 23.0273C29.2716 23.1731 29.4782 23.3311 29.6726 23.489C30.5352 22.9909 31.4464 22.5656 32.3941 22.2376C32.2726 22.0796 32.139 21.9338 31.981 21.8002V21.8002ZM32.7829 22.76C31.9081 23.0881 31.0698 23.5012 30.2679 23.9993C31.0091 24.6676 31.6773 25.433 32.2848 26.2835C32.8315 27.0611 33.2932 27.8752 33.6699 28.7135C33.8643 28.0453 33.9736 27.3649 33.9736 26.648C33.9736 25.2022 33.5362 23.8657 32.7829 22.76V22.76ZM32.1876 27.5228C31.4586 26.3443 30.5838 25.2994 29.6118 24.4124C29.3931 24.5704 29.1623 24.7283 28.9557 24.8863C30.596 26.4172 31.9203 28.3369 32.7586 30.5724C32.953 30.2808 33.1353 29.9771 33.2811 29.6733C32.9773 28.9444 32.6128 28.2275 32.1876 27.5228ZM28.3361 24.3638C28.5548 24.2059 28.7735 24.0479 29.0043 23.9021C28.8099 23.732 28.6034 23.5741 28.3968 23.4161C28.166 23.5619 27.9351 23.7077 27.7043 23.8657H27.7164C27.923 24.0236 28.1295 24.1937 28.3361 24.3638ZM27.0482 23.3918C27.279 23.246 27.522 23.1002 27.7407 22.9666C27.5099 22.8208 27.279 22.675 27.0482 22.5413C26.8173 22.675 26.5986 22.8208 26.3678 22.9666C26.5986 23.1002 26.8173 23.246 27.0482 23.3918ZM26.3921 23.8657C26.1612 23.7077 25.9425 23.5619 25.7117 23.4161C25.5051 23.5741 25.2986 23.732 25.092 23.89C25.3229 24.0479 25.5416 24.1937 25.7603 24.3517C25.9668 24.1816 26.1734 24.0236 26.3921 23.8657V23.8657ZM27.0482 24.3517C26.8416 24.5096 26.6351 24.6797 26.4164 24.862C26.6351 25.0321 26.8416 25.2143 27.0482 25.3966C27.2547 25.2143 27.4613 25.0321 27.68 24.862C27.4734 24.6919 27.2669 24.5096 27.0482 24.3517ZM27.0482 26.6237C26.1248 27.62 25.3107 28.7621 24.6546 30.0378C24.2051 30.8883 23.8527 31.7753 23.5854 32.6622C24.606 33.2333 25.7846 33.5735 27.0482 33.5735C28.3118 33.5735 29.4903 33.2333 30.5109 32.6622C30.2436 31.7753 29.8913 30.8883 29.4417 30.0378C28.7856 28.7621 27.9837 27.62 27.0482 26.6237V26.6237ZM23.0387 31.2285C23.8284 29.2117 24.9948 27.4499 26.4285 25.9919C26.222 25.7975 26.0154 25.6153 25.7967 25.4209C24.1322 27.0368 22.7957 29.0416 21.9817 31.3622C22.2125 31.6173 22.4555 31.8482 22.7228 32.0669C22.82 31.7874 22.9293 31.508 23.0387 31.2285V31.2285ZM27.6678 25.9919C29.1015 27.4499 30.2679 29.2117 31.0698 31.2285C31.1792 31.508 31.2764 31.7874 31.3736 32.0669C31.6409 31.8482 31.896 31.6173 32.1268 31.3622C31.3007 29.0416 29.9642 27.0368 28.2996 25.4209C28.0809 25.6153 27.8744 25.7975 27.6678 25.9919V25.9919ZM21.3377 30.5724C22.1761 28.3369 23.5004 26.4293 25.1528 24.8984C24.9341 24.7283 24.7154 24.5704 24.4845 24.4124C23.5125 25.3115 22.6378 26.3564 21.9088 27.535C21.4835 28.2275 21.119 28.9444 20.8153 29.6733C20.9611 29.9892 21.1433 30.2808 21.3377 30.5724V30.5724ZM27.0846 19.1515C31.3614 19.1515 34.8484 22.6385 34.8484 26.9153C34.8484 31.1921 31.3614 34.6791 27.0846 34.6791C22.8078 34.6791 19.3208 31.1921 19.3208 26.9153C19.3208 22.6385 22.8078 19.1515 27.0846 19.1515V19.1515ZM30.5109 17.4505C30.2922 17.7057 30.0492 18.0337 29.8062 18.5562C29.7455 18.4225 29.7455 18.2646 29.7819 18.0945C29.8427 17.5356 30.0006 17.1954 30.2922 16.7215C30.3894 16.5514 30.4866 16.4056 30.5352 16.2234C30.7175 15.6766 30.681 14.9476 30.2801 14.3766C30.3408 15.0205 30.1464 15.5551 29.9277 15.8832C29.8913 15.9439 29.8548 15.9804 29.8062 16.029C29.5754 16.2598 29.3202 16.4907 28.9922 17.0253C28.8099 17.3169 28.6277 17.6692 28.4576 18.2281C28.3847 18.1066 28.3604 17.9608 28.3725 17.7907C28.3482 17.2197 28.4454 16.8673 28.652 16.3449C28.7249 16.1626 28.7978 16.0047 28.8221 15.8103C28.9071 15.2514 28.7613 14.5345 28.2753 14.0364C28.4333 14.656 28.3361 15.2149 28.166 15.5794C28.1295 15.6402 28.1052 15.6888 28.0688 15.7374C27.8744 16.0047 27.6678 16.272 27.4127 16.843C27.2912 17.1711 27.1575 17.5477 27.0846 18.1188C26.9874 18.0094 26.9388 17.8636 26.9267 17.6935C26.8173 17.1346 26.8538 16.7701 26.9753 16.2234C27.0239 16.0411 27.0725 15.871 27.0603 15.6766C27.0603 15.1056 26.8052 14.4252 26.2463 13.9999C26.5014 14.5953 26.4893 15.1663 26.3799 15.5551C26.3556 15.6037 26.3313 15.6645 26.307 15.7131C26.1612 16.0168 25.9911 16.3084 25.8332 16.9159C25.7603 17.2561 25.6874 17.6571 25.6995 18.2281C25.6023 18.1309 25.5294 17.9973 25.4808 17.8393C25.2864 17.2926 25.2621 16.9402 25.3107 16.3692C25.3229 16.1748 25.335 16.0047 25.3107 15.8224C25.2135 15.2514 24.849 14.6196 24.2415 14.2915C24.5817 14.8383 24.6546 15.4093 24.606 15.7981C24.5939 15.8589 24.5817 15.9196 24.5696 15.9804C24.4724 16.2963 24.3509 16.6122 24.2901 17.244C24.2658 17.5842 24.2537 17.9851 24.363 18.5562C24.2415 18.4711 24.1565 18.3496 24.0836 18.2038C23.8041 17.6935 23.7312 17.3412 23.6826 16.7823C23.6705 16.5879 23.6583 16.4178 23.5854 16.2355C23.4153 15.6888 22.9537 15.1177 22.2976 14.899C22.7228 15.3729 22.8929 15.9196 22.8929 16.3206C22.8929 16.3813 22.8929 16.4421 22.8808 16.5028C22.8322 16.8309 22.7714 17.1711 22.8079 17.7907C22.8443 18.1309 22.8929 18.5319 23.0873 19.0786C22.9536 19.0179 22.8443 18.9085 22.7471 18.7749C22.3948 18.3253 22.2733 17.9851 22.1396 17.4384C22.091 17.244 22.0546 17.086 21.9574 16.9038C21.7022 16.4056 21.1555 15.9075 20.4751 15.786C20.9611 16.1991 21.2162 16.7215 21.2891 17.1103C21.3013 17.1711 21.3013 17.2318 21.3013 17.2926C21.3134 17.6206 21.3013 17.9608 21.4349 18.5805C21.52 18.9085 21.6293 19.2973 21.9088 19.7955C21.7751 19.759 21.6536 19.674 21.5321 19.5525C21.1069 19.1637 20.9246 18.8478 20.7181 18.3253C20.6452 18.1431 20.5723 17.9851 20.4629 17.8272C20.1227 17.3776 19.5152 16.9767 18.8105 16.9645C19.3694 17.2926 19.6975 17.7543 19.8311 18.1309C19.8433 18.1917 19.8554 18.2524 19.8676 18.3132C19.9283 18.6412 19.9648 18.9814 20.1956 19.5646C20.3293 19.8805 20.5115 20.245 20.8639 20.6946C20.7181 20.6824 20.5844 20.6095 20.4508 20.5123C19.9769 20.1964 19.7461 19.9048 19.4423 19.431C19.3451 19.2609 19.2601 19.1151 19.1143 18.9814C18.7133 18.5805 18.0451 18.2767 17.3525 18.3739C17.9479 18.6169 18.3488 19.03 18.5432 19.3824C18.5675 19.431 18.5918 19.4917 18.6161 19.5525C18.7255 19.8562 18.8105 20.1843 19.1264 20.731C19.3087 21.0226 19.5395 21.3506 19.9648 21.7516C19.819 21.7516 19.6732 21.703 19.5274 21.6301C19.0049 21.3871 18.7376 21.1441 18.3731 20.7189C18.2395 20.5731 18.1301 20.4394 17.9722 20.3179C17.5105 19.9899 16.8058 19.7955 16.1375 20.002C16.7693 20.1478 17.231 20.488 17.4619 20.8039C17.5105 20.8525 17.5348 20.9011 17.5591 20.9618C17.717 21.2534 17.8628 21.5693 18.2638 22.0432C18.4825 22.3105 18.7619 22.6021 19.2358 22.9301C19.1021 22.9544 18.9563 22.9301 18.7862 22.8694C18.2395 22.7236 17.9357 22.517 17.5105 22.1525C17.3647 22.031 17.231 21.9217 17.0609 21.8245C16.5506 21.5693 15.8216 21.4964 15.1898 21.8002C15.8338 21.8366 16.3441 22.1161 16.6357 22.3834C16.6721 22.432 16.7086 22.4684 16.745 22.5292C16.9516 22.7843 17.1338 23.0759 17.6077 23.489C17.8628 23.7077 18.1909 23.9507 18.7133 24.2059C18.5797 24.2545 18.4217 24.2545 18.2638 24.218C17.6927 24.1573 17.3647 23.9993 16.8787 23.7077C16.7086 23.6105 16.5628 23.5133 16.3805 23.4647C15.8338 23.2825 15.1169 23.3189 14.5459 23.7199C15.1777 23.6591 15.7244 23.8535 16.0525 24.0722C16.1011 24.1087 16.1497 24.1451 16.1861 24.1937C16.4291 24.4246 16.66 24.6797 17.1824 25.0078C17.474 25.19 17.8385 25.3844 18.3853 25.5424C18.2638 25.6153 18.118 25.6396 17.9479 25.6396C17.3768 25.6517 17.0245 25.5545 16.502 25.348C16.3198 25.2751 16.1618 25.2022 15.9674 25.1779C15.4085 25.0928 14.6917 25.2386 14.1936 25.7246C14.8132 25.5667 15.3842 25.6639 15.7366 25.834C15.7973 25.8704 15.8459 25.8947 15.8945 25.9312C16.1618 26.1256 16.4291 26.3321 17.0123 26.5873C17.3282 26.7088 17.7049 26.8424 18.2759 26.9153C18.1666 27.0125 18.0208 27.0611 17.8628 27.0733C17.2918 27.1948 16.9394 27.1462 16.3805 27.0247C16.1983 26.9761 16.0282 26.9396 15.8338 26.9396C15.2627 26.9396 14.5823 27.1948 14.1693 27.7537C14.7524 27.4985 15.3235 27.5107 15.7123 27.62C15.773 27.6443 15.8216 27.6686 15.8824 27.6929C16.174 27.8387 16.4777 28.0088 17.0852 28.1668C17.4133 28.2397 17.8142 28.3126 18.3853 28.3004C18.2881 28.3976 18.1544 28.4705 17.9965 28.5191C17.4619 28.7135 17.0974 28.7378 16.5385 28.6892C16.3441 28.6771 16.174 28.6649 15.9796 28.6892C15.4207 28.7864 14.7889 29.1509 14.4608 29.7705C14.9954 29.4182 15.5665 29.3453 15.9674 29.3939C16.0282 29.406 16.0768 29.4182 16.1375 29.4303C16.4534 29.5397 16.7693 29.649 17.4011 29.7098C17.7413 29.7341 18.1423 29.7462 18.7133 29.6369C18.6283 29.7584 18.5068 29.8434 18.361 29.9163C17.8628 30.1958 17.4983 30.2687 16.9394 30.3173C16.745 30.3416 16.5749 30.3537 16.3927 30.4145C15.8459 30.5846 15.287 31.0463 15.0562 31.7024C15.5422 31.2771 16.0889 31.1192 16.4899 31.107C16.5506 31.107 16.6114 31.107 16.6721 31.1192C16.988 31.1678 17.3282 31.2285 17.96 31.1921C18.3002 31.1678 18.7012 31.107 19.2358 30.9126C19.1872 31.0463 19.0778 31.1556 18.932 31.2528C18.4825 31.6052 18.1423 31.7267 17.5955 31.8603C17.4133 31.9089 17.2432 31.9454 17.0731 32.0426C16.5628 32.2977 16.0768 32.8445 15.9553 33.5249C16.3562 33.0389 16.8787 32.7837 17.2675 32.7108C17.3282 32.6987 17.389 32.6987 17.4497 32.6987C17.7778 32.6865 18.1301 32.6987 18.7376 32.565C19.0657 32.48 19.4545 32.3706 19.9648 32.0912C19.9283 32.2248 19.8311 32.3585 19.7096 32.4678C19.3208 32.8931 19.0049 33.0753 18.4825 33.2819C18.3124 33.3669 18.1544 33.4277 17.9965 33.537C17.5348 33.8772 17.1338 34.4847 17.1217 35.1894C17.4497 34.6305 17.9236 34.3025 18.3002 34.1688C18.361 34.1567 18.4096 34.1445 18.4703 34.1324C18.7984 34.0716 19.1386 34.0352 19.7218 33.8043C20.0377 33.6707 20.4022 33.4884 20.8639 33.1482C20.8396 33.2819 20.7788 33.4155 20.6695 33.5492C20.3536 34.023 20.0741 34.2539 19.5881 34.5576C19.4302 34.6548 19.2844 34.7399 19.1386 34.8857C18.7376 35.2866 18.446 35.9549 18.5432 36.6474C18.7741 36.0521 19.1872 35.6511 19.5395 35.4567C19.6003 35.4324 19.6489 35.4081 19.7096 35.3838C20.0255 35.2866 20.3536 35.1894 20.8882 34.8735C21.1798 34.6913 21.5078 34.4604 21.9088 34.0352C21.9209 34.181 21.8723 34.3268 21.7873 34.4726C21.5443 34.995 21.3013 35.2623 20.876 35.6268C20.7302 35.7605 20.5966 35.8698 20.4872 36.0278C20.1592 36.4895 19.9648 37.1942 20.1713 37.8624C20.305 37.2306 20.6452 36.7689 20.9732 36.5381C21.0218 36.5016 21.0704 36.4652 21.119 36.4409C21.4106 36.2829 21.7265 36.1371 22.2125 35.7362C22.4677 35.5175 22.7593 35.238 23.0873 34.7642C23.1116 34.8978 23.0873 35.0558 23.0387 35.2137C22.8808 35.7605 22.6864 36.0642 22.3097 36.4895C22.1882 36.6353 22.0789 36.7689 21.9938 36.9512C21.7387 37.4615 21.6536 38.1783 21.9574 38.8101C22.006 38.1661 22.2733 37.6559 22.5527 37.3764C22.5892 37.3278 22.6378 37.2914 22.6864 37.2549C22.9537 37.0484 23.2331 36.8661 23.6462 36.3923C23.8649 36.1371 24.1079 35.8091 24.363 35.2866C24.4116 35.4203 24.4116 35.5782 24.3873 35.7362C24.3144 36.3072 24.1686 36.6353 23.877 37.1213C23.7677 37.2914 23.6826 37.4372 23.6219 37.6194C23.4518 38.1661 23.4882 38.8951 23.8892 39.4662C23.8284 38.8222 24.0107 38.2755 24.2415 37.9474C24.278 37.8988 24.3144 37.8502 24.3509 37.8138C24.5817 37.5708 24.8369 37.34 25.1771 36.8175C25.3472 36.5259 25.5416 36.1614 25.6995 35.6147C25.7724 35.7362 25.7967 35.882 25.7967 36.0521C25.821 36.6231 25.7238 36.9755 25.5051 37.4979C25.4322 37.6802 25.3715 37.8381 25.335 38.0325C25.25 38.5914 25.3958 39.3082 25.8818 39.8064C25.7238 39.1867 25.821 38.6157 26.0033 38.2633C26.0276 38.2026 26.0519 38.154 26.0883 38.1054C26.2827 37.8381 26.5014 37.5708 26.7444 36.9876C26.8781 36.6717 27.0117 36.2951 27.0846 35.724C27.1697 35.8334 27.2183 35.9792 27.2426 36.1371C27.3519 36.7082 27.3155 37.0605 27.1818 37.6194C27.1332 37.8017 27.0968 37.9717 27.0968 38.1661C27.0968 38.7372 27.3641 39.4176 27.923 39.8307C27.6678 39.2475 27.6678 38.6764 27.7893 38.2876C27.8015 38.2269 27.8258 38.1783 27.8501 38.1175C27.9959 37.826 28.166 37.5222 28.3239 36.9147C28.3968 36.5867 28.4697 36.1857 28.4576 35.6147C28.5669 35.7119 28.6277 35.8455 28.6763 36.0035C28.8828 36.5381 28.895 36.9026 28.8585 37.4736C28.8342 37.6559 28.8221 37.8259 28.8585 38.0203C28.9436 38.5914 29.3081 39.2232 29.9277 39.5512C29.5875 39.0045 29.5025 38.4334 29.5632 38.0446C29.5632 37.9839 29.5754 37.9232 29.5997 37.8624C29.6969 37.5465 29.8184 37.2306 29.8791 36.5988C29.8913 36.2586 29.9034 35.8577 29.8062 35.2866C29.9156 35.3717 30.0128 35.4932 30.0857 35.639C30.3651 36.1371 30.438 36.5016 30.4866 37.0605C30.4988 37.2549 30.5109 37.425 30.5717 37.6073C30.7539 38.154 31.2035 38.7129 31.8717 38.9437C31.4464 38.4577 31.2763 37.911 31.2642 37.5101C31.2642 37.4493 31.2642 37.3886 31.2764 37.3278C31.325 37.0119 31.3979 36.6717 31.3493 36.0399C31.325 35.6997 31.2642 35.2988 31.082 34.7642C31.2034 34.8249 31.3128 34.9221 31.41 35.0679C31.7624 35.5175 31.896 35.8577 32.0296 36.4044C32.0661 36.5867 32.1147 36.7568 32.1997 36.9269C32.467 37.4372 33.0016 37.9231 33.6942 38.0446C33.196 37.6437 32.9409 37.1213 32.868 36.7325C32.8558 36.6717 32.8558 36.611 32.8558 36.5502C32.8558 36.2222 32.868 35.882 32.7343 35.2623C32.6493 34.9343 32.5278 34.5455 32.2483 34.0352C32.3941 34.0716 32.5156 34.1688 32.625 34.2903C33.0502 34.6791 33.2325 34.995 33.4512 35.5175C33.5241 35.6876 33.5848 35.8455 33.7063 36.0035C34.0465 36.4652 34.654 36.8661 35.3466 36.8783C34.7998 36.5502 34.4718 36.0764 34.3381 35.6997C34.3138 35.639 34.3017 35.5904 34.2895 35.5296C34.2409 35.2016 34.1923 34.8614 33.9615 34.2782C33.8278 33.9623 33.6577 33.5978 33.3054 33.1482C33.4512 33.1604 33.5848 33.2211 33.7185 33.3305C34.1923 33.6464 34.4232 33.9258 34.7148 34.4118C34.812 34.5698 34.9092 34.7277 35.0428 34.8614C35.4438 35.2623 36.112 35.5539 36.8046 35.4567C36.2092 35.2259 35.8083 34.8128 35.626 34.4604C35.5896 34.3997 35.5653 34.3511 35.5531 34.2903C35.4438 33.9744 35.3466 33.6464 35.0307 33.1118C34.8484 32.8202 34.6176 32.4921 34.2045 32.0912C34.3381 32.0912 34.4839 32.1276 34.6419 32.2127C35.1522 32.4557 35.4316 32.6987 35.7961 33.1239C35.9176 33.2697 36.027 33.4034 36.1849 33.5127C36.6466 33.8529 37.3513 34.0352 38.0196 33.8408C37.3999 33.695 36.9382 33.3548 36.6952 33.0267C36.6588 32.9781 36.6223 32.9295 36.598 32.8809C36.4401 32.5893 36.3064 32.2734 35.9055 31.7874C35.6746 31.5323 35.3952 31.2407 34.9213 30.9126C35.0671 30.8883 35.2129 30.9126 35.3709 30.9612C35.9176 31.1192 36.2214 31.3257 36.6588 31.6902C36.8046 31.8117 36.9382 31.9211 37.1083 32.0061C37.6186 32.2613 38.3355 32.3463 38.9673 32.0426C38.3233 31.994 37.8252 31.7267 37.5336 31.4472C37.485 31.4108 37.4485 31.3622 37.4121 31.3136C37.2177 31.0463 37.0233 30.7668 36.5616 30.3537C36.2943 30.135 35.9662 29.892 35.4559 29.6369C35.5896 29.5883 35.7354 29.5883 35.9055 29.6126C36.4644 29.6855 36.8046 29.8313 37.2784 30.135C37.4485 30.2322 37.5943 30.3173 37.7766 30.378C38.3233 30.5481 39.0523 30.5117 39.6234 30.1107C38.9794 30.1715 38.4448 29.9892 38.1168 29.7584C38.0682 29.7219 38.0196 29.6855 37.971 29.649C37.7401 29.4182 37.5093 29.1631 36.9747 28.8229C36.6831 28.6528 36.3307 28.4584 35.7718 28.3004C35.8933 28.2275 36.0513 28.2032 36.2092 28.2032C36.7924 28.1789 37.1448 28.2761 37.6551 28.4948C37.8373 28.5677 37.9953 28.6285 38.1897 28.6649C38.7486 28.75 39.4654 28.6042 39.9635 28.1182C39.3439 28.2761 38.785 28.1789 38.4205 27.9967C38.3719 27.9724 38.3112 27.9481 38.2626 27.9116C37.9953 27.7172 37.728 27.5107 37.1569 27.2555C36.841 27.134 36.4522 27.0004 35.8812 26.9153C35.9905 26.8303 36.1363 26.7817 36.3064 26.7574C36.8653 26.648 37.2298 26.6845 37.7766 26.8181C37.9588 26.8667 38.1289 26.9032 38.3233 26.9032C38.8944 26.9032 39.5748 26.6359 40 26.0891C39.4047 26.3321 38.8336 26.3321 38.457 26.2106C38.3962 26.1985 38.3355 26.1742 38.2869 26.1499C37.9831 26.0041 37.6915 25.834 37.084 25.676C36.7438 25.6031 36.355 25.5302 35.7718 25.5424C35.869 25.433 36.0027 25.3723 36.1606 25.3237C36.7074 25.1171 37.0719 25.105 37.6308 25.1414C37.8252 25.1657 37.9953 25.1779 38.1897 25.1414C38.7486 25.0564 39.3804 24.6919 39.7084 24.0722C39.1617 24.4124 38.6028 24.4975 38.2018 24.4489C38.1411 24.4367 38.0803 24.4246 38.0196 24.4003C37.7037 24.3031 37.3878 24.1816 36.7681 24.1208C36.4279 24.1087 36.0148 24.0965 35.4559 24.2059C35.5288 24.0844 35.6503 23.9872 35.8083 23.9143C36.3064 23.6348 36.6588 23.5619 37.2177 23.5133C37.4121 23.5012 37.5822 23.489 37.7644 23.4283C38.3112 23.246 38.8822 22.7965 39.1009 22.1282C38.6271 22.5535 38.0803 22.7236 37.6794 22.7357C37.6186 22.7357 37.5579 22.7357 37.4971 22.7236C37.1691 22.675 36.8289 22.6021 36.2092 22.6507C35.869 22.675 35.4681 22.7357 34.9213 22.9301C34.9821 22.7965 35.0914 22.6871 35.2251 22.5899C35.6746 22.2376 36.0148 22.1039 36.5616 21.9703C36.756 21.9338 36.9139 21.8852 37.0962 21.8002C37.5943 21.5329 38.0925 20.9983 38.214 20.3058C37.8009 20.8039 37.2906 21.059 36.8896 21.1319C36.8289 21.1441 36.7681 21.1441 36.7074 21.1441C36.3793 21.1441 36.0391 21.1319 35.4316 21.2656C35.0914 21.3506 34.7026 21.4721 34.2045 21.7516C34.2409 21.6058 34.326 21.4843 34.4475 21.3749C34.8363 20.9497 35.1522 20.7674 35.6746 20.5488C35.8569 20.4759 36.0148 20.4151 36.1728 20.2936C36.6223 19.9534 37.0233 19.3459 37.0354 18.6534C36.7074 19.2001 36.2457 19.5282 35.869 19.6618C35.8083 19.6861 35.7475 19.6983 35.6868 19.7104C35.3587 19.7712 35.0185 19.8076 34.4353 20.0385C34.1316 20.1721 33.7671 20.3422 33.3054 20.6946C33.3175 20.5609 33.3904 20.4151 33.4876 20.2815C33.8035 19.8076 34.0951 19.5768 34.569 19.2852C34.7391 19.188 34.8849 19.0908 35.0185 18.9571C35.4195 18.5562 35.7232 17.8879 35.626 17.1954C35.383 17.7907 34.9699 18.1917 34.6176 18.3861C34.569 18.4104 34.5082 18.4347 34.4596 18.4468C34.1437 18.5562 33.8157 18.6534 33.2689 18.9693C32.9773 19.1515 32.6493 19.3824 32.2483 19.7955C32.2483 19.6618 32.2969 19.516 32.3698 19.3702C32.6128 18.8478 32.8558 18.5805 33.2811 18.2038C33.4269 18.0823 33.5605 17.973 33.682 17.815C34.0101 17.3533 34.2045 16.6486 33.9979 15.9804C33.8521 16.6 33.5119 17.0617 33.196 17.3047C33.1474 17.3412 33.0988 17.3776 33.0381 17.4019C32.7465 17.5599 32.4306 17.6935 31.9567 18.0945C31.6895 18.3253 31.3978 18.6048 31.082 19.0786C31.0455 18.945 31.0698 18.787 31.1306 18.6291C31.2885 18.0823 31.4829 17.7786 31.8474 17.3412C31.9689 17.1954 32.0904 17.0739 32.1754 16.8916C32.4306 16.3813 32.5035 15.6645 32.1997 15.0327C32.1633 15.6766 31.896 16.1748 31.6166 16.4664C31.568 16.515 31.5315 16.5514 31.4829 16.5879C31.2156 16.7823 30.924 16.9767 30.5109 17.4505V17.4505Z" fill="#FCD95E"/>
</g>
</svg>
