<svg width="54" height="48" viewBox="0 0 54 48" fill="none" xmlns="http://www.w3.org/2000/svg">
<mask id="mask0_1_40443" style="mask-type:alpha" maskUnits="userSpaceOnUse" x="3" y="6" width="48" height="36">
<path d="M3.56934 15.1356C4.16681 10.4125 8.0415 7.00193 12.7861 6.60887C16.6412 6.28949 21.6196 6 27 6C32.3804 6 37.3588 6.28949 41.2139 6.60887C45.9585 7.00193 49.8332 10.4125 50.4307 15.1356C50.752 17.6759 51 20.704 51 24C51 27.296 50.752 30.3241 50.4307 32.8644C49.8332 37.5875 45.9585 40.9981 41.2139 41.3911C37.3588 41.7105 32.3804 42 27 42C21.6196 42 16.6412 41.7105 12.7861 41.3911C8.0415 40.9981 4.16681 37.5875 3.56934 32.8644C3.248 30.3241 3 27.296 3 24C3 20.704 3.248 17.6759 3.56934 15.1356Z" fill="#00D0BF"/>
</mask>
<g mask="url(#mask0_1_40443)">
<rect x="51" y="42" width="48" height="36" transform="rotate(-180 51 42)" fill="#EE5757"/>
<path d="M23.8406 20.9993C23.0387 20.5012 22.1882 20.0881 21.3134 19.7479C20.5601 20.8657 20.1227 22.2022 20.1227 23.648C20.1227 24.3649 20.2321 25.0574 20.4386 25.7135C20.8031 24.8752 21.2648 24.0611 21.8237 23.2835C22.4191 22.433 23.0994 21.6676 23.8406 20.9993ZM21.7022 19.2376C22.6499 19.5656 23.5611 19.9909 24.4359 20.489C24.6303 20.3189 24.8369 20.1731 25.0313 20.0273C24.1079 19.517 23.1237 19.1039 22.1153 18.788C21.9695 18.9338 21.8237 19.0796 21.7022 19.2376ZM22.5527 18.3749C23.6462 18.6665 24.6911 19.0675 25.6752 19.5899C25.9061 19.4441 26.1369 19.3105 26.3556 19.1768C25.3107 18.6422 24.2051 18.2534 23.063 17.974C22.8808 18.0955 22.7107 18.2291 22.5527 18.3749ZM23.5854 17.646C24.7883 17.8889 25.9547 18.2777 27.0482 18.8123C28.1538 18.2777 29.3202 17.8889 30.5109 17.646C29.5025 17.0506 28.3118 16.7104 27.0482 16.7104C25.7846 16.7104 24.606 17.0506 23.5854 17.646ZM31.0334 17.9861C29.8913 18.2534 28.7856 18.6544 27.7407 19.1768C27.9716 19.3105 28.1903 19.4441 28.4211 19.5899C29.4174 19.0675 30.4623 18.6665 31.5436 18.3749C31.3857 18.2291 31.2156 18.0955 31.0334 17.9861ZM31.981 18.8002C30.9726 19.1039 30.0006 19.517 29.0651 20.0273C29.2716 20.1731 29.4782 20.3311 29.6726 20.489C30.5352 19.9909 31.4464 19.5656 32.3941 19.2376C32.2726 19.0796 32.139 18.9338 31.981 18.8002ZM32.7829 19.76C31.9081 20.0881 31.0698 20.5012 30.2679 20.9993C31.0091 21.6676 31.6773 22.433 32.2848 23.2835C32.8315 24.0611 33.2932 24.8752 33.6699 25.7135C33.8643 25.0453 33.9736 24.3649 33.9736 23.648C33.9736 22.2022 33.5362 20.8657 32.7829 19.76ZM32.1876 24.5228C31.4586 23.3443 30.5838 22.2994 29.6118 21.4124C29.3931 21.5704 29.1623 21.7283 28.9557 21.8863C30.596 23.4172 31.9203 25.3369 32.7586 27.5724C32.953 27.2808 33.1353 26.9771 33.2811 26.6733C32.9773 25.9444 32.6128 25.2275 32.1876 24.5228ZM28.3361 21.3638C28.5548 21.2059 28.7735 21.0479 29.0043 20.9021C28.8099 20.732 28.6034 20.5741 28.3968 20.4161C28.166 20.5619 27.9351 20.7077 27.7043 20.8657H27.7164C27.923 21.0236 28.1295 21.1937 28.3361 21.3638ZM27.0482 20.3918C27.279 20.246 27.522 20.1002 27.7407 19.9666C27.5099 19.8208 27.279 19.675 27.0482 19.5413C26.8173 19.675 26.5986 19.8208 26.3678 19.9666C26.5986 20.1002 26.8173 20.246 27.0482 20.3918ZM26.3921 20.8657C26.1612 20.7077 25.9425 20.5619 25.7117 20.4161C25.5051 20.5741 25.2986 20.732 25.092 20.89C25.3229 21.0479 25.5416 21.1937 25.7603 21.3517C25.9668 21.1816 26.1734 21.0236 26.3921 20.8657ZM27.0482 21.3517C26.8416 21.5096 26.6351 21.6797 26.4164 21.862C26.6351 22.0321 26.8416 22.2143 27.0482 22.3966C27.2547 22.2143 27.4613 22.0321 27.68 21.862C27.4734 21.6919 27.2669 21.5096 27.0482 21.3517ZM27.0482 23.6237C26.1248 24.62 25.3107 25.7621 24.6546 27.0378C24.2051 27.8883 23.8527 28.7753 23.5854 29.6622C24.606 30.2333 25.7846 30.5735 27.0482 30.5735C28.3118 30.5735 29.4903 30.2333 30.5109 29.6622C30.2436 28.7753 29.8913 27.8883 29.4417 27.0378C28.7856 25.7621 27.9837 24.62 27.0482 23.6237ZM23.0387 28.2285C23.8284 26.2117 24.9948 24.4499 26.4285 22.9919C26.222 22.7975 26.0154 22.6153 25.7967 22.4209C24.1322 24.0368 22.7957 26.0416 21.9817 28.3622C22.2125 28.6173 22.4555 28.8482 22.7228 29.0669C22.82 28.7874 22.9293 28.508 23.0387 28.2285ZM27.6678 22.9919C29.1015 24.4499 30.2679 26.2117 31.0698 28.2285C31.1792 28.508 31.2764 28.7874 31.3736 29.0669C31.6409 28.8482 31.896 28.6173 32.1268 28.3622C31.3007 26.0416 29.9642 24.0368 28.2996 22.4209C28.0809 22.6153 27.8744 22.7975 27.6678 22.9919ZM21.3377 27.5724C22.1761 25.3369 23.5004 23.4293 25.1528 21.8984C24.9341 21.7283 24.7154 21.5704 24.4845 21.4124C23.5125 22.3115 22.6378 23.3564 21.9088 24.535C21.4835 25.2275 21.119 25.9444 20.8153 26.6733C20.9611 26.9892 21.1433 27.2808 21.3377 27.5724ZM27.0846 16.1515C31.3614 16.1515 34.8484 19.6385 34.8484 23.9153C34.8484 28.1921 31.3614 31.6791 27.0846 31.6791C22.8078 31.6791 19.3208 28.1921 19.3208 23.9153C19.3208 19.6385 22.8078 16.1515 27.0846 16.1515ZM30.5109 14.4505C30.2922 14.7057 30.0492 15.0337 29.8062 15.5562C29.7455 15.4225 29.7455 15.2646 29.7819 15.0945C29.8427 14.5356 30.0006 14.1954 30.2922 13.7215C30.3894 13.5514 30.4866 13.4056 30.5352 13.2234C30.7175 12.6766 30.681 11.9476 30.2801 11.3766C30.3408 12.0205 30.1464 12.5551 29.9277 12.8832C29.8913 12.9439 29.8548 12.9804 29.8062 13.029C29.5754 13.2598 29.3202 13.4907 28.9922 14.0253C28.8099 14.3169 28.6277 14.6692 28.4576 15.2281C28.3847 15.1066 28.3604 14.9608 28.3725 14.7907C28.3482 14.2197 28.4454 13.8673 28.652 13.3449C28.7249 13.1626 28.7978 13.0047 28.8221 12.8103C28.9071 12.2514 28.7613 11.5345 28.2753 11.0364C28.4333 11.656 28.3361 12.2149 28.166 12.5794C28.1295 12.6402 28.1052 12.6888 28.0688 12.7374C27.8744 13.0047 27.6678 13.272 27.4127 13.843C27.2912 14.1711 27.1575 14.5477 27.0846 15.1188C26.9874 15.0094 26.9388 14.8636 26.9267 14.6935C26.8173 14.1346 26.8538 13.7701 26.9753 13.2234C27.0239 13.0411 27.0725 12.871 27.0603 12.6766C27.0603 12.1056 26.8052 11.4252 26.2463 10.9999C26.5014 11.5953 26.4893 12.1663 26.3799 12.5551C26.3556 12.6037 26.3313 12.6645 26.307 12.7131C26.1612 13.0168 25.9911 13.3084 25.8332 13.9159C25.7603 14.2561 25.6874 14.6571 25.6995 15.2281C25.6023 15.1309 25.5294 14.9973 25.4808 14.8393C25.2864 14.2926 25.2621 13.9402 25.3107 13.3692C25.3229 13.1748 25.335 13.0047 25.3107 12.8224C25.2135 12.2514 24.849 11.6196 24.2415 11.2915C24.5817 11.8383 24.6546 12.4093 24.606 12.7981C24.5939 12.8589 24.5817 12.9196 24.5696 12.9804C24.4724 13.2963 24.3509 13.6122 24.2901 14.244C24.2658 14.5842 24.2537 14.9851 24.363 15.5562C24.2415 15.4711 24.1565 15.3496 24.0836 15.2038C23.8041 14.6935 23.7312 14.3412 23.6826 13.7823C23.6705 13.5879 23.6583 13.4178 23.5854 13.2355C23.4153 12.6888 22.9537 12.1177 22.2976 11.899C22.7228 12.3729 22.8929 12.9196 22.8929 13.3206C22.8929 13.3813 22.8929 13.4421 22.8808 13.5028C22.8322 13.8309 22.7714 14.1711 22.8079 14.7907C22.8443 15.1309 22.8929 15.5319 23.0873 16.0786C22.9536 16.0179 22.8443 15.9085 22.7471 15.7749C22.3948 15.3253 22.2733 14.9851 22.1396 14.4384C22.091 14.244 22.0546 14.086 21.9574 13.9038C21.7022 13.4056 21.1555 12.9075 20.4751 12.786C20.9611 13.1991 21.2162 13.7215 21.2891 14.1103C21.3013 14.1711 21.3013 14.2318 21.3013 14.2926C21.3134 14.6206 21.3013 14.9608 21.4349 15.5805C21.52 15.9085 21.6293 16.2973 21.9088 16.7955C21.7751 16.759 21.6536 16.674 21.5321 16.5525C21.1069 16.1637 20.9246 15.8478 20.7181 15.3253C20.6452 15.1431 20.5723 14.9851 20.4629 14.8272C20.1227 14.3776 19.5152 13.9767 18.8105 13.9645C19.3694 14.2926 19.6975 14.7543 19.8311 15.1309C19.8433 15.1917 19.8554 15.2524 19.8676 15.3132C19.9283 15.6412 19.9648 15.9814 20.1956 16.5646C20.3293 16.8805 20.5115 17.245 20.8639 17.6946C20.7181 17.6824 20.5844 17.6095 20.4508 17.5123C19.9769 17.1964 19.7461 16.9048 19.4423 16.431C19.3451 16.2609 19.2601 16.1151 19.1143 15.9814C18.7133 15.5805 18.0451 15.2767 17.3525 15.3739C17.9479 15.6169 18.3488 16.03 18.5432 16.3824C18.5675 16.431 18.5918 16.4917 18.6161 16.5525C18.7255 16.8562 18.8105 17.1843 19.1264 17.731C19.3087 18.0226 19.5395 18.3506 19.9648 18.7516C19.819 18.7516 19.6732 18.703 19.5274 18.6301C19.0049 18.3871 18.7376 18.1441 18.3731 17.7189C18.2395 17.5731 18.1301 17.4394 17.9722 17.3179C17.5105 16.9899 16.8058 16.7955 16.1375 17.002C16.7693 17.1478 17.231 17.488 17.4619 17.8039C17.5105 17.8525 17.5348 17.9011 17.5591 17.9618C17.717 18.2534 17.8628 18.5693 18.2638 19.0432C18.4825 19.3105 18.7619 19.6021 19.2358 19.9301C19.1021 19.9544 18.9563 19.9301 18.7862 19.8694C18.2395 19.7236 17.9357 19.517 17.5105 19.1525C17.3647 19.031 17.231 18.9217 17.0609 18.8245C16.5506 18.5693 15.8216 18.4964 15.1898 18.8002C15.8338 18.8366 16.3441 19.1161 16.6357 19.3834C16.6721 19.432 16.7086 19.4684 16.745 19.5292C16.9516 19.7843 17.1338 20.0759 17.6077 20.489C17.8628 20.7077 18.1909 20.9507 18.7133 21.2059C18.5797 21.2545 18.4217 21.2545 18.2638 21.218C17.6927 21.1573 17.3647 20.9993 16.8787 20.7077C16.7086 20.6105 16.5628 20.5133 16.3805 20.4647C15.8338 20.2825 15.1169 20.3189 14.5459 20.7199C15.1777 20.6591 15.7244 20.8535 16.0525 21.0722C16.1011 21.1087 16.1497 21.1451 16.1861 21.1937C16.4291 21.4246 16.66 21.6797 17.1824 22.0078C17.474 22.19 17.8385 22.3844 18.3853 22.5424C18.2638 22.6153 18.118 22.6396 17.9479 22.6396C17.3768 22.6517 17.0245 22.5545 16.502 22.348C16.3198 22.2751 16.1618 22.2022 15.9674 22.1779C15.4085 22.0928 14.6917 22.2386 14.1936 22.7246C14.8132 22.5667 15.3842 22.6639 15.7366 22.834C15.7973 22.8704 15.8459 22.8947 15.8945 22.9312C16.1618 23.1256 16.4291 23.3321 17.0123 23.5873C17.3282 23.7088 17.7049 23.8424 18.2759 23.9153C18.1666 24.0125 18.0208 24.0611 17.8628 24.0733C17.2918 24.1948 16.9394 24.1462 16.3805 24.0247C16.1983 23.9761 16.0282 23.9396 15.8338 23.9396C15.2627 23.9396 14.5823 24.1948 14.1693 24.7537C14.7524 24.4985 15.3235 24.5107 15.7123 24.62C15.773 24.6443 15.8216 24.6686 15.8824 24.6929C16.174 24.8387 16.4777 25.0088 17.0852 25.1668C17.4133 25.2397 17.8142 25.3126 18.3853 25.3004C18.2881 25.3976 18.1544 25.4705 17.9965 25.5191C17.4619 25.7135 17.0974 25.7378 16.5385 25.6892C16.3441 25.6771 16.174 25.6649 15.9796 25.6892C15.4207 25.7864 14.7889 26.1509 14.4608 26.7705C14.9954 26.4182 15.5665 26.3453 15.9674 26.3939C16.0282 26.406 16.0768 26.4182 16.1375 26.4303C16.4534 26.5397 16.7693 26.649 17.4011 26.7098C17.7413 26.7341 18.1423 26.7462 18.7133 26.6369C18.6283 26.7584 18.5068 26.8434 18.361 26.9163C17.8628 27.1958 17.4983 27.2687 16.9394 27.3173C16.745 27.3416 16.5749 27.3537 16.3927 27.4145C15.8459 27.5846 15.287 28.0463 15.0562 28.7024C15.5422 28.2771 16.0889 28.1192 16.4899 28.107C16.5506 28.107 16.6114 28.107 16.6721 28.1192C16.988 28.1678 17.3282 28.2285 17.96 28.1921C18.3002 28.1678 18.7012 28.107 19.2358 27.9126C19.1872 28.0463 19.0778 28.1556 18.932 28.2528C18.4825 28.6052 18.1423 28.7267 17.5955 28.8603C17.4133 28.9089 17.2432 28.9454 17.0731 29.0426C16.5628 29.2977 16.0768 29.8445 15.9553 30.5249C16.3562 30.0389 16.8787 29.7837 17.2675 29.7108C17.3282 29.6987 17.389 29.6987 17.4497 29.6987C17.7778 29.6865 18.1301 29.6987 18.7376 29.565C19.0657 29.48 19.4545 29.3706 19.9648 29.0912C19.9283 29.2248 19.8311 29.3585 19.7096 29.4678C19.3208 29.8931 19.0049 30.0753 18.4825 30.2819C18.3124 30.3669 18.1544 30.4277 17.9965 30.537C17.5348 30.8772 17.1338 31.4847 17.1217 32.1894C17.4497 31.6305 17.9236 31.3025 18.3002 31.1688C18.361 31.1567 18.4096 31.1445 18.4703 31.1324C18.7984 31.0716 19.1386 31.0352 19.7218 30.8043C20.0377 30.6707 20.4022 30.4884 20.8639 30.1482C20.8396 30.2819 20.7788 30.4155 20.6695 30.5492C20.3536 31.023 20.0741 31.2539 19.5881 31.5576C19.4302 31.6548 19.2844 31.7399 19.1386 31.8857C18.7376 32.2866 18.446 32.9549 18.5432 33.6474C18.7741 33.0521 19.1872 32.6511 19.5395 32.4567C19.6003 32.4324 19.6489 32.4081 19.7096 32.3838C20.0255 32.2866 20.3536 32.1894 20.8882 31.8735C21.1798 31.6913 21.5078 31.4604 21.9088 31.0352C21.9209 31.181 21.8723 31.3268 21.7873 31.4726C21.5443 31.995 21.3013 32.2623 20.876 32.6268C20.7302 32.7605 20.5966 32.8698 20.4872 33.0278C20.1592 33.4895 19.9648 34.1942 20.1713 34.8624C20.305 34.2306 20.6452 33.7689 20.9732 33.5381C21.0218 33.5016 21.0704 33.4652 21.119 33.4409C21.4106 33.2829 21.7265 33.1371 22.2125 32.7362C22.4677 32.5175 22.7593 32.238 23.0873 31.7642C23.1116 31.8978 23.0873 32.0558 23.0387 32.2137C22.8807 32.7605 22.6864 33.0642 22.3097 33.4895C22.1882 33.6353 22.0789 33.7689 21.9938 33.9512C21.7387 34.4615 21.6536 35.1783 21.9574 35.8101C22.006 35.1661 22.2733 34.6559 22.5527 34.3764C22.5892 34.3278 22.6378 34.2914 22.6864 34.2549C22.9537 34.0484 23.2331 33.8661 23.6462 33.3923C23.8649 33.1371 24.1079 32.8091 24.363 32.2866C24.4116 32.4203 24.4116 32.5782 24.3873 32.7362C24.3144 33.3072 24.1686 33.6353 23.877 34.1213C23.7677 34.2914 23.6826 34.4372 23.6219 34.6194C23.4518 35.1661 23.4882 35.8951 23.8892 36.4662C23.8284 35.8222 24.0107 35.2755 24.2415 34.9474C24.278 34.8988 24.3144 34.8502 24.3509 34.8138C24.5817 34.5708 24.8369 34.34 25.1771 33.8175C25.3472 33.5259 25.5416 33.1614 25.6995 32.6147C25.7724 32.7362 25.7967 32.882 25.7967 33.0521C25.821 33.6231 25.7238 33.9755 25.5051 34.4979C25.4322 34.6802 25.3715 34.8381 25.335 35.0325C25.25 35.5914 25.3958 36.3082 25.8818 36.8064C25.7238 36.1867 25.821 35.6157 26.0033 35.2633C26.0276 35.2026 26.0519 35.154 26.0883 35.1054C26.2827 34.8381 26.5014 34.5708 26.7444 33.9876C26.8781 33.6717 27.0117 33.2951 27.0846 32.724C27.1697 32.8334 27.2183 32.9792 27.2426 33.1371C27.3519 33.7082 27.3155 34.0605 27.1818 34.6194C27.1332 34.8017 27.0968 34.9717 27.0968 35.1661C27.0968 35.7372 27.3641 36.4176 27.923 36.8307C27.6678 36.2475 27.6678 35.6764 27.7893 35.2876C27.8015 35.2269 27.8258 35.1783 27.8501 35.1175C27.9959 34.826 28.166 34.5222 28.3239 33.9147C28.3968 33.5867 28.4697 33.1857 28.4576 32.6147C28.5669 32.7119 28.6277 32.8455 28.6763 33.0035C28.8828 33.5381 28.895 33.9026 28.8585 34.4736C28.8342 34.6558 28.8221 34.8259 28.8585 35.0203C28.9436 35.5914 29.3081 36.2232 29.9277 36.5512C29.5875 36.0045 29.5025 35.4334 29.5632 35.0446C29.5632 34.9839 29.5754 34.9232 29.5997 34.8624C29.6969 34.5465 29.8184 34.2306 29.8791 33.5988C29.8913 33.2586 29.9034 32.8577 29.8062 32.2866C29.9156 32.3717 30.0128 32.4932 30.0857 32.639C30.3651 33.1371 30.438 33.5016 30.4866 34.0605C30.4988 34.2549 30.5109 34.425 30.5717 34.6073C30.7539 35.154 31.2035 35.7129 31.8717 35.9437C31.4464 35.4577 31.2764 34.911 31.2642 34.5101C31.2642 34.4493 31.2642 34.3886 31.2764 34.3278C31.325 34.0119 31.3979 33.6717 31.3493 33.0399C31.325 32.6997 31.2642 32.2988 31.082 31.7642C31.2034 31.8249 31.3128 31.9221 31.41 32.0679C31.7624 32.5175 31.896 32.8577 32.0296 33.4044C32.0661 33.5867 32.1147 33.7568 32.1997 33.9269C32.467 34.4372 33.0016 34.9231 33.6942 35.0446C33.196 34.6437 32.9409 34.1213 32.868 33.7325C32.8558 33.6717 32.8558 33.611 32.8558 33.5502C32.8558 33.2222 32.868 32.882 32.7343 32.2623C32.6493 31.9343 32.5278 31.5455 32.2483 31.0352C32.3941 31.0716 32.5156 31.1688 32.625 31.2903C33.0502 31.6791 33.2325 31.995 33.4512 32.5175C33.5241 32.6876 33.5848 32.8455 33.7063 33.0035C34.0465 33.4652 34.654 33.8661 35.3466 33.8783C34.7998 33.5502 34.4718 33.0764 34.3381 32.6997C34.3138 32.639 34.3017 32.5904 34.2895 32.5296C34.2409 32.2016 34.1923 31.8614 33.9615 31.2782C33.8278 30.9623 33.6577 30.5978 33.3054 30.1482C33.4512 30.1604 33.5848 30.2211 33.7185 30.3305C34.1923 30.6464 34.4232 30.9258 34.7148 31.4118C34.812 31.5698 34.9092 31.7277 35.0428 31.8614C35.4438 32.2623 36.112 32.5539 36.8046 32.4567C36.2092 32.2259 35.8083 31.8128 35.626 31.4604C35.5896 31.3997 35.5653 31.3511 35.5531 31.2903C35.4438 30.9744 35.3466 30.6464 35.0307 30.1118C34.8484 29.8202 34.6176 29.4921 34.2045 29.0912C34.3381 29.0912 34.4839 29.1276 34.6419 29.2127C35.1522 29.4557 35.4316 29.6987 35.7961 30.1239C35.9176 30.2697 36.027 30.4034 36.1849 30.5127C36.6466 30.8529 37.3513 31.0352 38.0196 30.8408C37.3999 30.695 36.9382 30.3548 36.6952 30.0267C36.6588 29.9781 36.6223 29.9295 36.598 29.8809C36.4401 29.5893 36.3064 29.2734 35.9055 28.7874C35.6746 28.5323 35.3952 28.2407 34.9213 27.9126C35.0671 27.8883 35.2129 27.9126 35.3709 27.9612C35.9176 28.1192 36.2214 28.3257 36.6588 28.6902C36.8046 28.8117 36.9382 28.9211 37.1083 29.0061C37.6186 29.2613 38.3355 29.3463 38.9673 29.0426C38.3233 28.994 37.8252 28.7267 37.5336 28.4472C37.485 28.4108 37.4485 28.3622 37.4121 28.3136C37.2177 28.0463 37.0233 27.7668 36.5616 27.3537C36.2943 27.135 35.9662 26.892 35.4559 26.6369C35.5896 26.5883 35.7354 26.5883 35.9055 26.6126C36.4644 26.6855 36.8046 26.8313 37.2784 27.135C37.4485 27.2322 37.5943 27.3173 37.7766 27.378C38.3233 27.5481 39.0523 27.5117 39.6234 27.1107C38.9794 27.1715 38.4448 26.9892 38.1168 26.7584C38.0682 26.7219 38.0196 26.6855 37.971 26.649C37.7401 26.4182 37.5093 26.1631 36.9747 25.8229C36.6831 25.6528 36.3307 25.4584 35.7718 25.3004C35.8933 25.2275 36.0513 25.2032 36.2092 25.2032C36.7924 25.1789 37.1448 25.2761 37.6551 25.4948C37.8373 25.5677 37.9953 25.6285 38.1897 25.6649C38.7486 25.75 39.4654 25.6042 39.9635 25.1182C39.3439 25.2761 38.785 25.1789 38.4205 24.9967C38.3719 24.9724 38.3112 24.9481 38.2626 24.9116C37.9953 24.7172 37.728 24.5107 37.1569 24.2555C36.841 24.134 36.4522 24.0004 35.8812 23.9153C35.9905 23.8303 36.1363 23.7817 36.3064 23.7574C36.8653 23.648 37.2298 23.6845 37.7766 23.8181C37.9588 23.8667 38.1289 23.9032 38.3233 23.9032C38.8944 23.9032 39.5748 23.6359 40 23.0891C39.4047 23.3321 38.8336 23.3321 38.457 23.2106C38.3962 23.1985 38.3355 23.1742 38.2869 23.1499C37.9831 23.0041 37.6915 22.834 37.084 22.676C36.7438 22.6031 36.355 22.5302 35.7718 22.5424C35.869 22.433 36.0027 22.3723 36.1606 22.3237C36.7074 22.1171 37.0719 22.105 37.6308 22.1414C37.8252 22.1657 37.9953 22.1779 38.1897 22.1414C38.7486 22.0564 39.3804 21.6919 39.7084 21.0722C39.1617 21.4124 38.6028 21.4975 38.2018 21.4489C38.1411 21.4367 38.0803 21.4246 38.0196 21.4003C37.7037 21.3031 37.3878 21.1816 36.7681 21.1208C36.4279 21.1087 36.0148 21.0965 35.4559 21.2059C35.5288 21.0844 35.6503 20.9872 35.8083 20.9143C36.3064 20.6348 36.6588 20.5619 37.2177 20.5133C37.4121 20.5012 37.5822 20.489 37.7644 20.4283C38.3112 20.246 38.8822 19.7965 39.1009 19.1282C38.6271 19.5535 38.0803 19.7236 37.6794 19.7357C37.6186 19.7357 37.5579 19.7357 37.4971 19.7236C37.1691 19.675 36.8289 19.6021 36.2092 19.6507C35.869 19.675 35.4681 19.7357 34.9213 19.9301C34.9821 19.7965 35.0914 19.6871 35.2251 19.5899C35.6746 19.2376 36.0148 19.1039 36.5616 18.9703C36.756 18.9338 36.9139 18.8852 37.0962 18.8002C37.5943 18.5329 38.0925 17.9983 38.214 17.3058C37.8009 17.8039 37.2906 18.059 36.8896 18.1319C36.8289 18.1441 36.7681 18.1441 36.7074 18.1441C36.3793 18.1441 36.0391 18.1319 35.4316 18.2656C35.0914 18.3506 34.7026 18.4721 34.2045 18.7516C34.2409 18.6058 34.326 18.4843 34.4475 18.3749C34.8363 17.9497 35.1522 17.7674 35.6746 17.5488C35.8569 17.4759 36.0148 17.4151 36.1728 17.2936C36.6223 16.9534 37.0233 16.3459 37.0354 15.6534C36.7074 16.2001 36.2457 16.5282 35.869 16.6618C35.8083 16.6861 35.7475 16.6983 35.6868 16.7104C35.3587 16.7712 35.0185 16.8076 34.4353 17.0385C34.1316 17.1721 33.7671 17.3422 33.3054 17.6946C33.3175 17.5609 33.3904 17.4151 33.4876 17.2815C33.8035 16.8076 34.0951 16.5768 34.569 16.2852C34.7391 16.188 34.8849 16.0908 35.0185 15.9571C35.4195 15.5562 35.7232 14.8879 35.626 14.1954C35.383 14.7907 34.9699 15.1917 34.6176 15.3861C34.569 15.4104 34.5082 15.4347 34.4596 15.4468C34.1437 15.5562 33.8157 15.6534 33.2689 15.9693C32.9773 16.1515 32.6493 16.3824 32.2483 16.7955C32.2483 16.6618 32.2969 16.516 32.3698 16.3702C32.6128 15.8478 32.8558 15.5805 33.2811 15.2038C33.4269 15.0823 33.5605 14.973 33.682 14.815C34.0101 14.3533 34.2045 13.6486 33.9979 12.9804C33.8521 13.6 33.5119 14.0617 33.196 14.3047C33.1474 14.3412 33.0988 14.3776 33.0381 14.4019C32.7465 14.5599 32.4306 14.6935 31.9567 15.0945C31.6895 15.3253 31.3978 15.6048 31.082 16.0786C31.0455 15.945 31.0698 15.787 31.1306 15.6291C31.2885 15.0823 31.4829 14.7786 31.8474 14.3412C31.9689 14.1954 32.0904 14.0739 32.1754 13.8916C32.4306 13.3813 32.5035 12.6645 32.1997 12.0327C32.1633 12.6766 31.896 13.1748 31.6166 13.4664C31.568 13.515 31.5315 13.5514 31.4829 13.5879C31.2156 13.7823 30.924 13.9767 30.5109 14.4505Z" fill="#FCD95E"/>
</g>
</svg>
