<svg width="54" height="48" viewBox="0 0 54 48" fill="none" xmlns="http://www.w3.org/2000/svg">
<mask id="mask0_1_40660" style="mask-type:alpha" maskUnits="userSpaceOnUse" x="3" y="6" width="48" height="36">
<path d="M3.56934 15.1356C4.16681 10.4125 8.0415 7.00193 12.7861 6.60887C16.6412 6.28949 21.6196 6 27 6C32.3804 6 37.3588 6.28949 41.2139 6.60887C45.9585 7.00193 49.8332 10.4125 50.4307 15.1356C50.752 17.6759 51 20.704 51 24C51 27.296 50.752 30.3241 50.4307 32.8644C49.8332 37.5875 45.9585 40.9981 41.2139 41.3911C37.3588 41.7105 32.3804 42 27 42C21.6196 42 16.6412 41.7105 12.7861 41.3911C8.0415 40.9981 4.16681 37.5875 3.56934 32.8644C3.248 30.3241 3 27.296 3 24C3 20.704 3.248 17.6759 3.56934 15.1356Z" fill="#00D0BF"/>
</mask>
<g mask="url(#mask0_1_40660)">
<rect x="3" y="33" width="48" height="9" fill="#2E50A6"/>
<rect x="3" y="15" width="48" height="18" fill="#EE5757"/>
<path d="M22.2008 23.0325H31.8949V26.7626H22.2008V23.0325Z" fill="white" stroke="black" stroke-width="0.085488" stroke-linejoin="bevel"/>
<path d="M31.3949 25.0923H31.7003V26.4975H31.3949V25.0923ZM22.2008 24.3981H31.8949V24.8317H22.2008V24.3981ZM22.2008 23.8103H31.8949V24.1928H22.2008V23.8103Z" fill="white" stroke="black" stroke-width="0.085488" stroke-linejoin="bevel"/>
<path d="M22.2008 23.2233H31.8949V23.5942H22.2008V23.2233Z" fill="white" stroke="black" stroke-width="0.0841522" stroke-linejoin="bevel"/>
<path d="M24.753 25.0923H25.0584V26.4975H24.753V25.0923ZM28.9262 25.0923H29.2317V26.4975H28.9262V25.0923ZM22.2775 25.0923H22.5829V26.4975H22.2775V25.0923ZM22.8763 25.0923H23.1818V26.4975H22.8763V25.0923ZM23.5152 25.0923H23.8207V26.4975H23.5152V25.0923ZM24.1541 25.0923H24.4596V26.4975H24.1541V25.0923ZM29.5055 25.0923H29.8109V26.4975H29.5055V25.0923ZM30.1443 25.0923H30.4498V26.4975H30.1443V25.0923ZM30.7832 25.0923H31.0887V26.4975H30.7832V25.0923Z" fill="white" stroke="black" stroke-width="0.085488" stroke-linejoin="bevel"/>
<path d="M18.4092 26.9587C18.5591 26.8823 18.7301 26.7045 18.786 26.5056H35.2328C35.2888 26.7045 35.4598 26.8823 35.6097 26.9587H18.4092Z" fill="white" stroke="black" stroke-width="0.085488"/>
<path d="M26.7991 17.3541C26.7991 17.3541 26.7869 17.0038 26.9908 17C27.1949 17.0037 27.1825 17.3541 27.1825 17.3541H26.7991ZM25.7352 22.0001V21.5285C25.7283 21.2928 25.5 21.2757 25.4934 21.1038C25.4934 21.1038 25.4639 20.846 25.5319 20.7283C25.6242 21.0731 25.7922 21.0098 25.7922 20.868C25.7922 20.7442 25.6971 20.6292 25.5019 20.3288C25.4396 20.2327 25.4781 19.9318 25.5656 19.8242C25.5994 20.0858 25.6381 20.211 25.7504 20.211C25.819 20.211 25.8749 20.1663 25.8749 20.0353C25.8749 19.8686 25.7621 19.7845 25.7065 19.6328C25.6418 19.4558 25.6864 19.2754 25.7939 19.1745C25.8401 19.4326 25.8263 19.5355 25.9411 19.5355C26.1722 19.4624 25.9411 19.1278 25.8916 19.0433C25.8349 18.945 25.9681 18.7486 25.9681 18.7486C26.0416 18.9777 26.0652 18.9965 26.1444 18.9752C26.2444 18.9484 26.2315 18.8001 26.1095 18.6802C26.0325 18.6044 26.0406 18.4918 26.1234 18.4013C26.2064 18.5636 26.3127 18.5538 26.3229 18.4574L26.2562 18.0832H27.726L27.6531 18.4453C27.6322 18.5488 27.772 18.5713 27.8589 18.4014C27.9417 18.4919 27.9498 18.6046 27.8728 18.6803C27.7508 18.8001 27.7379 18.9484 27.8379 18.9753C27.9171 18.9966 27.9408 18.9778 28.0142 18.7487C28.0142 18.7487 28.1337 18.8824 28.0906 19.0434C28.0412 19.1278 27.8101 19.4625 28.0412 19.5355C28.1559 19.5355 28.1422 19.4326 28.1882 19.1746C28.2958 19.2755 28.3404 19.4559 28.2756 19.6329C28.2203 19.7845 28.1073 19.8687 28.1073 20.0354C28.1073 20.1664 28.1633 20.2111 28.2317 20.2111C28.3441 20.2111 28.3829 20.0858 28.4168 19.8243C28.5041 19.9319 28.5427 20.2328 28.4803 20.3288C28.2853 20.6292 28.19 20.7442 28.19 20.868C28.19 21.0098 28.3579 21.0731 28.4504 20.7283C28.5183 20.8459 28.4887 21.1038 28.4887 21.1038C28.4821 21.2757 28.2538 21.2928 28.247 21.5285V22.0001H25.7352ZM26.3502 18.0799L26.3164 17.8137H27.6655L27.6318 18.0799H26.3502ZM26.4405 17.8082L26.4115 17.5892H27.5703L27.5413 17.8082H26.4405ZM26.6245 17.5816L26.6052 17.3626H27.3768L27.3575 17.5816H26.6245ZM29.4373 26.9588C29.2646 26.8923 29.0134 26.71 29.0134 26.5269V24.4571L29.2381 24.1711H24.7424L24.9579 24.4573V26.527C24.9579 26.7101 24.7853 26.8924 24.6127 26.9589L29.4373 26.9588Z" fill="white" stroke="black" stroke-width="0.085488"/>
<path d="M25.5417 25.0923H25.8472V26.4975H25.5417V25.0923ZM28.1246 25.0923H28.43V26.4975H28.1246V25.0923Z" fill="white" stroke="black" stroke-width="0.085488" stroke-linejoin="bevel"/>
<path d="M24.6617 21.8153V24.1712H29.2637V23.6637L29.2704 21.8152C29.0823 21.8891 29.0492 22.0597 29.0492 22.0597V23.063H24.8964V22.0598C24.8964 22.0598 24.8501 21.8892 24.6618 21.8153H24.6617Z" fill="white" stroke="black" stroke-width="0.085488"/>
<path d="M28.6392 26.9588C28.4887 26.8923 28.1611 26.71 28.1611 26.5269V24.2107C28.1933 24.0814 28.3686 24.005 28.4814 23.9246H25.4299C25.5751 24.0015 25.7371 24.0653 25.7949 24.2108V26.527C25.7949 26.7102 25.5359 26.8925 25.3855 26.9589L28.6392 26.9588Z" fill="white" stroke="black" stroke-width="0.085488"/>
<path d="M29.0489 23.9491V22.2806H28.6307V22.1179H25.3221V22.2806H24.9038V23.9491H29.0489ZM27.9799 26.9588C27.8325 26.8923 27.6178 26.71 27.6178 26.5269V24.5494L27.739 24.3696H26.232L26.353 24.5494V26.5269C26.353 26.7103 26.1383 26.8924 25.9909 26.9588L27.9799 26.9588Z" fill="white" stroke="black" stroke-width="0.085488"/>
<path d="M26.604 24.37H27.3678V26.9577H26.604V24.37Z" fill="white" stroke="black" stroke-width="0.087358"/>
<path d="M27.7685 23.8009C27.7702 23.6306 28.2658 23.6229 28.5208 23.4777H25.4583C25.7133 23.6228 26.1972 23.6347 26.1972 23.8009L26.3009 24.1316L27.5687 24.1826L27.7685 23.8009Z" fill="white" stroke="black" stroke-width="0.085488" stroke-linejoin="bevel"/>
<path d="M28.3674 22.0001C28.3674 21.5827 28.3849 21.4221 28.5131 21.4221V22.7493C28.1988 22.8634 27.9743 23.2646 27.9743 23.2646H25.9971C25.9971 23.2646 25.7727 22.8634 25.4583 22.7493V21.4221C25.6163 21.4221 25.6173 21.5901 25.6173 22.0001H28.3674ZM28.5131 21.8289C28.5131 21.3503 28.9262 21.2965 28.9262 21.2965V21.7224C28.7691 21.7156 28.6932 21.8569 28.6932 22.0669C28.6932 22.277 28.8198 22.2804 28.8198 22.2804V23.4892H28.5132L28.5131 21.8289Z" fill="white" stroke="black" stroke-width="0.085488"/>
<path d="M25.46 21.8289C25.46 21.3503 25.0469 21.2965 25.0469 21.2965V21.7224C25.204 21.7156 25.2799 21.8569 25.2799 22.0669C25.2799 22.277 25.1533 22.2804 25.1533 22.2804V23.4892H25.4599L25.46 21.8289Z" fill="white" stroke="black" stroke-width="0.085488"/>
<path d="M25.6901 20.9856H28.2819M26.2744 18.5314H27.7335H26.2744ZM26.1015 18.9871H27.8836H26.1015ZM25.9286 19.54H28.05H25.9286ZM25.748 20.2155H28.264H25.748Z" stroke="black" stroke-width="0.07124"/>
<path d="M24.9038 23.4977H29.0489H24.9038ZM26.2191 23.4985H27.7555V24.0633H26.2191V23.4985Z" stroke="black" stroke-width="0.085488"/>
<path d="M26.0265 22.2471C26.2812 22.5529 26.2576 23.0717 26.2548 23.3775H27.7321C27.7291 23.0717 27.7055 22.5529 27.9602 22.2471H26.0265ZM26.857 18.7434L26.6546 18.6392V18.3413C26.7373 18.366 26.8303 18.3762 26.8393 18.5081C26.8681 18.3198 26.9201 18.329 27.0018 18.2557C27.0833 18.3289 27.1353 18.3198 27.1641 18.5081C27.1732 18.3762 27.266 18.3661 27.3489 18.3411V18.6391L27.1463 18.7434L26.857 18.7434Z" fill="white" stroke="black" stroke-width="0.085488"/>
<path d="M26.8433 19.2324L26.5072 19.0013V18.7268C26.625 18.754 26.7573 18.7651 26.7703 18.9099C26.8113 18.7034 26.8853 18.5968 27.0015 18.5164C27.1178 18.5968 27.1918 18.7034 27.2328 18.9099C27.2458 18.7651 27.3781 18.754 27.496 18.7268V19.0013L27.1597 19.2324H26.8433Z" fill="white" stroke="black" stroke-width="0.085488"/>
<path d="M26.8196 19.9948L26.433 19.6554V19.2519C26.5685 19.292 26.7207 19.3083 26.7356 19.5208C26.7827 19.2175 26.8678 19.0608 27.0014 18.9426C27.1351 19.0608 27.2203 19.2174 27.2674 19.5207C27.2823 19.3082 27.4344 19.2919 27.5698 19.2518V19.6551L27.1834 19.9946L26.8196 19.9948ZM27.5326 20.4455L27.183 20.929H26.7872L26.4376 20.4455H27.5326ZM26.2361 21.2573C26.411 21.3529 26.4755 21.5433 26.4942 21.9007H27.4781C27.4968 21.5433 27.5613 21.3529 27.7362 21.2573H26.2361Z" fill="white" stroke="black" stroke-width="0.085488"/>
<path d="M27.7506 20.4455V19.9597C27.5845 20.0055 27.4769 20.1037 27.4289 20.2373C27.4289 20.076 27.2168 19.7043 26.9854 19.5192C26.7533 19.7263 26.5376 20.0626 26.5419 20.2373C26.5025 20.1102 26.3864 20.0056 26.2203 19.9597V20.4455H27.7506Z" fill="white" stroke="black" stroke-width="0.085488" stroke-linejoin="bevel"/>
<path d="M27.8247 21.2573V20.7716C27.6426 20.8173 27.5247 20.9155 27.4721 21.0491C27.4721 20.8879 27.2395 20.516 26.9859 20.331C26.7316 20.5382 26.495 20.8745 26.4998 21.0491C26.4565 20.922 26.3292 20.8174 26.1471 20.7716V21.2573H27.8247Z" fill="white" stroke="black" stroke-width="0.085488" stroke-linejoin="bevel"/>
<path d="M28.0292 22.2539V21.6937C27.8026 21.7522 27.6619 21.9197 27.5905 22.0174C27.5905 21.7141 27.248 21.2516 26.9857 21.1001C26.7165 21.2556 26.3808 21.7335 26.3808 22.0174C26.3076 21.9203 26.1687 21.7522 25.9421 21.6937V22.2539H28.0292Z" fill="white" stroke="black" stroke-width="0.085488" stroke-linejoin="bevel"/>
<path d="M27.9065 23.4977V22.9216C27.7067 23 27.6469 23.1925 27.584 23.3234C27.6087 22.7391 27.255 22.1113 26.9857 21.952C26.7162 22.1113 26.3559 22.7527 26.3873 23.3234C26.3228 23.1934 26.2647 23 26.0648 22.9216V23.4977H27.9065Z" fill="white" stroke="black" stroke-width="0.085488" stroke-linejoin="bevel"/>
<path d="M27.7668 24.3699V23.7939C27.5574 23.8438 27.5445 23.9208 27.4779 24.05C27.5026 23.701 27.2555 23.3029 26.9861 23.1436C26.7166 23.3029 26.4695 23.7011 26.4942 24.05C26.4278 23.9209 26.4195 23.8438 26.2054 23.7939V24.3699H27.7668Z" fill="white" stroke="black" stroke-width="0.085488"/>
<path d="M18.7862 26.5056V24.7644C18.7291 24.5427 18.5408 24.3466 18.3994 24.3073V22.7745L18.718 22.9469L19.0819 24.5492V26.5056H18.7862Z" fill="white" stroke="black" stroke-width="0.085488"/>
<path d="M18.7862 26.5124V24.7644C18.7291 24.5427 18.5408 24.3466 18.3994 24.3074V22.6682C18.6132 22.6682 18.718 22.947 18.718 22.947L19.0819 24.5493V26.4989L18.7862 26.5124Z" fill="white" stroke="black" stroke-width="0.085488"/>
<path d="M18.5596 26.9588C18.7069 26.8923 18.9216 26.71 18.9216 26.5269V24.3507L18.8205 24.1711H22.528L22.3834 24.3507V26.5269C22.3834 26.71 22.5307 26.8923 22.6781 26.9588H18.5596Z" fill="white" stroke="black" stroke-width="0.085488"/>
<path d="M21.9299 26.9588C21.7826 26.8923 21.5679 26.71 21.5679 26.5269V24.4571L21.8763 24.1709L19.3558 24.1711L19.6642 24.4571V26.5269C19.6642 26.71 19.4495 26.8923 19.3021 26.9588H21.9299Z" fill="white" stroke="black" stroke-width="0.085488"/>
<path d="M21.5764 26.9588C21.429 26.8923 21.2144 26.71 21.2144 26.5269V24.6558L21.4162 24.3696H19.8149L20.0168 24.6558V26.5269C20.0168 26.71 19.8022 26.8923 19.6548 26.9588H21.5764Z" fill="white" stroke="black" stroke-width="0.085488"/>
<path d="M20.233 24.37H20.9982V26.959H20.233V24.37Z" fill="white" stroke="black" stroke-width="0.085488"/>
<path d="M19.1921 25.0923H19.4975V26.4975H19.1921V25.0923ZM21.8115 25.0923H22.117V26.4975H21.8115V25.0923ZM18.9314 22.7225H19.2994V24.163H18.9314V22.7225ZM18.9314 22.4516H19.2973V22.7191H18.9314V22.4516Z" fill="white" stroke="black" stroke-width="0.085488" stroke-linejoin="bevel"/>
<path d="M21.958 23.0326H22.4828V24.1446H21.958V23.0326Z" fill="white" stroke="black" stroke-width="0.0920777" stroke-linejoin="bevel"/>
<path d="M19.2934 24.1519V21.6867C19.3984 21.6867 19.4145 22.0479 19.6554 22.0479C19.7807 22.0479 19.7674 21.8983 19.697 21.7764C19.6347 21.6684 19.5576 21.5193 19.6623 21.2414C19.7342 21.454 19.9275 21.5215 19.8918 21.3882C19.8305 21.1592 19.6537 21.1215 19.7862 20.7662C19.8324 21.0626 20.0225 21.0496 19.9763 20.8772C19.9244 20.683 19.8168 20.6034 19.9494 20.3297C20.0238 20.6406 20.1242 20.6223 20.1242 20.4293C20.1242 20.1443 20.1133 19.8368 20.4823 19.7227C20.4823 19.7227 20.5036 19.4614 20.6366 19.4614C20.7697 19.4614 20.7911 19.7227 20.7911 19.7227C21.1599 19.8369 21.149 20.1444 21.149 20.4294C21.149 20.6224 21.2495 20.6407 21.3238 20.3297C21.4565 20.6035 21.3489 20.6831 21.297 20.8773C21.2506 21.0496 21.4409 21.0628 21.4869 20.7662C21.6195 21.1216 21.4428 21.1593 21.3813 21.3883C21.3457 21.5216 21.5389 21.4541 21.6108 21.2416C21.7156 21.5193 21.6385 21.6684 21.5761 21.7765C21.5058 21.8984 21.4924 22.048 21.6179 22.048C21.8586 22.048 21.8748 21.6868 21.9797 21.6868V24.1521L19.2934 24.1519ZM18.717 22.2898V24.1707H18.9309V22.285C18.8538 22.2461 18.7814 22.2401 18.717 22.2898Z" fill="white" stroke="black" stroke-width="0.085488"/>
<path d="M18.7238 23.5071C18.9889 23.6425 19.2515 23.7995 19.3179 24.1709H18.7238V23.5071ZM22.401 22.944V24.1713H22.5743V22.9409C22.5202 22.9155 22.4463 22.9115 22.401 22.944Z" fill="white" stroke="black" stroke-width="0.085488"/>
<path d="M22.5748 23.4977C22.3097 23.6331 22.047 23.7901 21.9806 24.1615H22.5748V23.4977Z" fill="white" stroke="black" stroke-width="0.085488"/>
<path d="M20.8216 20.6312L20.9761 20.5013V20.3349C20.9195 20.3404 20.8887 20.3599 20.847 20.4146C20.8114 20.3043 20.7333 20.2183 20.6287 20.1648C20.5239 20.2183 20.4459 20.3005 20.4104 20.4107C20.3687 20.356 20.3378 20.3404 20.2812 20.3349V20.5013L20.4359 20.6312H20.8216Z" fill="white" stroke="black" stroke-width="0.085488"/>
<path d="M20.9042 21.0477L20.976 20.8923V20.6759C20.9194 20.6816 20.8886 20.7013 20.8468 20.7568C20.8113 20.645 20.7332 20.5577 20.6286 20.5035C20.5238 20.5577 20.4458 20.6411 20.4103 20.7529C20.3685 20.6975 20.3377 20.6817 20.2811 20.6761V20.8924L20.353 21.0478L20.9042 21.0477Z" fill="white" stroke="black" stroke-width="0.085488"/>
<path d="M20.9153 21.6125L21.1449 21.3325V21.0562C21.0609 21.0656 21.015 21.0991 20.953 21.1931C20.9002 21.0038 20.7843 20.9624 20.6288 20.8705C20.4733 20.9624 20.3573 20.997 20.3046 21.1863C20.2426 21.0924 20.1967 21.0657 20.1129 21.0562V21.3325L20.3423 21.6125H20.9153Z" fill="white" stroke="black" stroke-width="0.085488"/>
<path d="M20.9826 22.1671C20.9826 22.1671 21.2501 21.9337 21.266 21.8055V21.5102C21.1624 21.5223 21.0643 21.5492 20.9877 21.6705C20.9226 21.426 20.8208 21.3579 20.6289 21.2393C20.437 21.3579 20.3353 21.426 20.2701 21.6705C20.1935 21.5491 20.0955 21.5223 19.9918 21.5101V21.8054C20.0256 21.9335 20.2751 22.1669 20.2751 22.1669L20.9826 22.1671Z" fill="white" stroke="black" stroke-width="0.085488"/>
<path d="M21.0967 23.191C21.0967 23.191 21.463 22.7855 21.4715 22.6274V22.1669C21.3344 22.1859 21.2047 22.2802 21.1035 22.4693C21.0173 22.0882 20.8829 21.8224 20.629 21.6376C20.3752 21.8224 20.2406 22.0882 20.1545 22.4694C20.0532 22.2801 19.9234 22.1857 19.7864 22.1668V22.6273C19.8126 22.7854 20.1612 23.1909 20.1612 23.1909L21.0967 23.191Z" fill="white" stroke="black" stroke-width="0.085488"/>
<path d="M21.0967 23.7967C21.0967 23.7967 21.4098 23.4779 21.4715 23.3396V22.8791C21.3344 22.8981 21.2047 22.9924 21.1035 23.1815C21.0173 22.8004 20.8829 22.5821 20.629 22.3973C20.3752 22.5821 20.2406 22.8004 20.1545 23.1816C20.0532 22.9922 19.9234 22.8979 19.7864 22.879V23.3395C19.8659 23.4779 20.1612 23.7966 20.1612 23.7966L21.0967 23.7967Z" fill="white" stroke="black" stroke-width="0.085488"/>
<path d="M21.2228 24.1485C21.1314 23.7508 21.0528 23.4559 20.6126 23.1569C20.1725 23.4559 20.0938 23.7508 20.0024 24.1485H21.2228Z" fill="white" stroke="black" stroke-width="0.085488"/>
<path d="M21.4494 24.37V23.794C21.2496 23.8723 21.0689 23.9882 21.0022 24.1172C20.9279 23.7975 20.7845 23.6566 20.6059 23.463C20.4273 23.6566 20.3078 23.7975 20.2332 24.1172C20.1666 23.9882 19.986 23.8723 19.786 23.794V24.37H21.4494Z" fill="white" stroke="black" stroke-width="0.085488"/>
<path d="M31.5181 26.4542V24.713C31.461 24.4913 31.2728 24.2952 31.1313 24.2559V22.7231L31.4499 22.8955L31.8139 24.4978V26.4542H31.5181Z" fill="white" stroke="black" stroke-width="0.085488"/>
<path d="M31.5181 26.461V24.713C31.461 24.4913 31.2728 24.2953 31.1313 24.256V22.6168C31.3452 22.6168 31.4499 22.8956 31.4499 22.8956L31.8139 24.4979V26.4475L31.5181 26.461Z" fill="white" stroke="black" stroke-width="0.085488"/>
<path d="M31.2915 26.9074C31.4389 26.8409 31.6535 26.6586 31.6535 26.4755V24.2993L31.5524 24.1197H35.26L35.1153 24.2993V26.4755C35.1153 26.6586 35.2627 26.8409 35.4101 26.9074H31.2915Z" fill="white" stroke="black" stroke-width="0.085488"/>
<path d="M34.6619 26.9074C34.5145 26.8409 34.2998 26.6586 34.2998 26.4755V24.4057L34.6082 24.1195L32.0877 24.1197L32.3961 24.4057V26.4755C32.3961 26.6586 32.1814 26.8409 32.0341 26.9074H34.6619Z" fill="white" stroke="black" stroke-width="0.085488"/>
<path d="M34.3083 26.9074C34.161 26.8409 33.9463 26.6586 33.9463 26.4755V24.6044L34.1482 24.3182H32.5469L32.7488 24.6044V26.4755C32.7488 26.6586 32.5341 26.8409 32.3867 26.9074H34.3083Z" fill="white" stroke="black" stroke-width="0.085488"/>
<path d="M32.965 24.3186H33.7301V26.9076H32.965V24.3186Z" fill="white" stroke="black" stroke-width="0.085488"/>
<path d="M31.924 25.041H32.2295V26.4461H31.924V25.041ZM34.5435 25.041H34.8489V26.4461H34.5435V25.041ZM31.6633 22.6711H32.0313V24.1116H31.6633V22.6711ZM31.6633 22.4002H32.0292V22.6677H31.6633V22.4002Z" fill="white" stroke="black" stroke-width="0.085488" stroke-linejoin="bevel"/>
<path d="M34.6899 22.9812H35.2147V24.0932H34.6899V22.9812Z" fill="white" stroke="black" stroke-width="0.0920777" stroke-linejoin="bevel"/>
<path d="M32.0253 24.1005V21.6353C32.1303 21.6353 32.1465 21.9965 32.3874 21.9965C32.5126 21.9965 32.4993 21.8469 32.4289 21.725C32.3666 21.617 32.2895 21.4679 32.3943 21.19C32.4662 21.4026 32.6595 21.4701 32.6238 21.3368C32.5624 21.1078 32.3857 21.0702 32.5181 20.7148C32.5643 21.0112 32.7544 20.9982 32.7083 20.8258C32.6563 20.6316 32.5487 20.5521 32.6814 20.2783C32.7557 20.5892 32.8562 20.5709 32.8562 20.3779C32.8562 20.0929 32.8452 19.7854 33.2142 19.6713C33.2142 19.6713 33.2355 19.41 33.3685 19.41C33.5016 19.41 33.523 19.6713 33.523 19.6713C33.8918 19.7855 33.8809 20.093 33.8809 20.378C33.8809 20.571 33.9815 20.5893 34.0557 20.2784C34.1885 20.5521 34.0809 20.6317 34.0289 20.8259C33.9826 20.9983 34.1729 21.0114 34.2189 20.7148C34.3514 21.0702 34.1747 21.1079 34.1132 21.3369C34.0776 21.4702 34.2708 21.4027 34.3427 21.1902C34.4475 21.4679 34.3704 21.617 34.3081 21.7251C34.2377 21.847 34.2243 21.9966 34.3498 21.9966C34.5905 21.9966 34.6067 21.6354 34.7117 21.6354V24.1007L32.0253 24.1005ZM31.449 22.2384V24.1193H31.6628V22.2336C31.5858 22.1947 31.5134 22.1887 31.449 22.2384Z" fill="white" stroke="black" stroke-width="0.085488"/>
<path d="M31.4558 23.4557C31.7209 23.5911 31.9835 23.7481 32.05 24.1195H31.4558V23.4557ZM35.133 22.8926V24.1199H35.3064V22.8895C35.2523 22.8642 35.1783 22.8602 35.133 22.8926Z" fill="white" stroke="black" stroke-width="0.085488"/>
<path d="M35.3067 23.4463C35.0416 23.5817 34.779 23.7387 34.7125 24.1101H35.3067V23.4463Z" fill="white" stroke="black" stroke-width="0.085488"/>
<path d="M33.5536 20.5798L33.7082 20.4499V20.2835C33.6516 20.2891 33.6208 20.3085 33.579 20.3633C33.5435 20.2529 33.4654 20.1669 33.3608 20.1134C33.256 20.1669 33.178 20.2491 33.1424 20.3593C33.1007 20.3046 33.0699 20.2891 33.0133 20.2835V20.4499L33.1679 20.5798H33.5536Z" fill="white" stroke="black" stroke-width="0.085488"/>
<path d="M33.6362 20.9963L33.708 20.8409V20.6245C33.6515 20.6302 33.6206 20.6499 33.5789 20.7054C33.5434 20.5936 33.4653 20.5063 33.3607 20.4521C33.2559 20.5064 33.1778 20.5897 33.1423 20.7015C33.1006 20.6461 33.0697 20.6303 33.0132 20.6247V20.841L33.0851 20.9964L33.6362 20.9963Z" fill="white" stroke="black" stroke-width="0.085488"/>
<path d="M33.6473 21.5611L33.8769 21.2811V21.0049C33.7929 21.0142 33.7471 21.0477 33.6851 21.1417C33.6323 20.9524 33.5164 20.911 33.3609 20.8192C33.2054 20.911 33.0894 20.9457 33.0366 21.1349C32.9746 21.041 32.9288 21.0143 32.845 21.0049V21.2811L33.0744 21.5611H33.6473Z" fill="white" stroke="black" stroke-width="0.085488"/>
<path d="M33.7147 22.1157C33.7147 22.1157 33.9822 21.8823 33.9981 21.7542V21.4588C33.8944 21.4709 33.7964 21.4978 33.7198 21.6191C33.6546 21.3747 33.5528 21.3065 33.361 21.1879C33.1691 21.3065 33.0673 21.3747 33.0022 21.6191C32.9255 21.4977 32.8275 21.4709 32.7239 21.4587V21.754C32.7576 21.8821 33.0072 22.1155 33.0072 22.1155L33.7147 22.1157Z" fill="white" stroke="black" stroke-width="0.085488"/>
<path d="M33.8288 23.1396C33.8288 23.1396 34.1951 22.7341 34.2036 22.576V22.1155C34.0664 22.1345 33.9368 22.2288 33.8356 22.4179C33.7494 22.0368 33.6149 21.771 33.3611 21.5862C33.1072 21.771 32.9726 22.0368 32.8866 22.418C32.7852 22.2287 32.6555 22.1344 32.5184 22.1154V22.576C32.5447 22.734 32.8932 23.1395 32.8932 23.1395L33.8288 23.1396Z" fill="white" stroke="black" stroke-width="0.085488"/>
<path d="M33.8288 23.7453C33.8288 23.7453 34.1419 23.4266 34.2036 23.2882V22.8277C34.0664 22.8467 33.9368 22.941 33.8356 23.1301C33.7494 22.749 33.6149 22.5307 33.3611 22.3459C33.1072 22.5307 32.9726 22.749 32.8866 23.1302C32.7852 22.9408 32.6555 22.8465 32.5184 22.8276V23.2881C32.5979 23.4265 32.8932 23.7452 32.8932 23.7452L33.8288 23.7453Z" fill="white" stroke="black" stroke-width="0.085488"/>
<path d="M33.9549 24.0971C33.8635 23.6994 33.7848 23.4045 33.3447 23.1055C32.9045 23.4045 32.8259 23.6994 32.7345 24.0971H33.9549Z" fill="white" stroke="black" stroke-width="0.085488"/>
<path d="M34.1815 24.3186V23.7426C33.9816 23.8209 33.801 23.9368 33.7343 24.0658C33.66 23.7461 33.5165 23.6052 33.338 23.4116C33.1593 23.6052 33.0398 23.7461 32.9653 24.0658C32.8987 23.9368 32.7181 23.8209 32.5181 23.7426V24.3186H34.1815Z" fill="white" stroke="black" stroke-width="0.085488"/>
<path d="M17.9749 26.9358V27.4616H36.0249V26.9357L17.9749 26.9358ZM17.6482 27.4665V28.1522H36.3515V27.4665H17.6482ZM36.3515 28.1522L17.6482 28.1573L17.1014 28.1522V29.057H36.8984V28.1524L36.3515 28.1522ZM16.5507 29.0628L16.5509 30.1285H37.4494L37.4493 29.0628H16.5507ZM37.4494 30.1285V30.1302H16.5509V30.1285H16V31.1942H38V30.1285H37.4494Z" fill="white" stroke="black" stroke-width="0.085488"/>
<path d="M19.934 26.9383H21.2974V31.192H19.934V26.9383Z" fill="white" stroke="black" stroke-width="0.0930572"/>
<path d="M20.2356 26.9383H20.9952V31.1921H20.2356V26.9383Z" fill="white" stroke="black" stroke-width="0.0928791"/>
<path d="M26.2948 26.9383H27.6583V31.192H26.2948V26.9383Z" fill="white" stroke="black" stroke-width="0.0930572"/>
<path d="M26.6057 26.9383H27.3653V31.1921H26.6057V26.9383Z" fill="white" stroke="black" stroke-width="0.0928791"/>
<path d="M32.6931 26.9383H34.0565V31.192H32.6931V26.9383Z" fill="white" stroke="black" stroke-width="0.0930572"/>
<path d="M32.9946 26.9383H33.7542V31.1921H32.9946V26.9383Z" fill="white" stroke="black" stroke-width="0.0928791"/>
<path d="M32.981 27.4631H33.7685M18.7861 26.5056H35.2329H18.7861ZM20.2219 30.6576H21.0094H20.2219ZM20.2219 30.1251H21.0094H20.2219ZM20.2219 29.5927H21.0094H20.2219ZM20.2219 29.0603H21.0094H20.2219ZM20.2219 28.5279H21.0094H20.2219ZM20.2219 27.9955H21.0094H20.2219ZM20.2219 27.4631H21.0094H20.2219ZM26.6091 30.6584H27.3423H26.6091ZM26.6091 30.1257H27.3423H26.6091ZM26.6091 29.593H27.3423H26.6091ZM26.6091 29.0603H27.3423H26.6091ZM26.6091 28.5277H27.3423H26.6091ZM26.6091 27.995H27.3423H26.6091ZM26.6091 27.4623H27.3423H26.6091ZM32.981 30.6576H33.7685H32.981ZM32.981 30.1251H33.7685H32.981ZM32.981 29.5927H33.7685H32.981ZM32.981 29.0603H33.7685H32.981ZM32.981 28.5279H33.7685H32.981ZM32.981 27.9955H33.7685H32.981Z" stroke="black" stroke-width="0.085488"/>
<rect x="3" y="6" width="48" height="9" fill="#2E50A6"/>
</g>
</svg>
