<svg width="54" height="54" viewBox="0 0 54 54" fill="none" xmlns="http://www.w3.org/2000/svg">
<mask id="mask0_1_40660" style="mask-type:alpha" maskUnits="userSpaceOnUse" x="3" y="9" width="48" height="36">
<path d="M3.56934 18.1356C4.16681 13.4125 8.0415 10.0019 12.7861 9.60887C16.6412 9.28949 21.6196 9 27 9C32.3804 9 37.3588 9.28949 41.2139 9.60887C45.9585 10.0019 49.8332 13.4125 50.4307 18.1356C50.752 20.6759 51 23.704 51 27C51 30.296 50.752 33.3241 50.4307 35.8644C49.8332 40.5875 45.9585 43.9981 41.2139 44.3911C37.3588 44.7105 32.3804 45 27 45C21.6196 45 16.6412 44.7105 12.7861 44.3911C8.04151 43.9981 4.16681 40.5875 3.56934 35.8644C3.248 33.3241 3 30.296 3 27C3 23.704 3.248 20.6759 3.56934 18.1356Z" fill="#00D0BF"/>
</mask>
<g mask="url(#mask0_1_40660)">
<rect x="3" y="36" width="48" height="9" fill="#2E50A6"/>
<rect x="3" y="18" width="48" height="18" fill="#EE5757"/>
<path d="M22.2008 26.0325H31.8949V29.7626H22.2008V26.0325Z" fill="white" stroke="black" stroke-width="0.085488" stroke-linejoin="bevel"/>
<path d="M31.3949 28.0923H31.7003V29.4975H31.3949V28.0923ZM22.2008 27.3981H31.8949V27.8317H22.2008V27.3981ZM22.2008 26.8103H31.8949V27.1928H22.2008V26.8103Z" fill="white" stroke="black" stroke-width="0.085488" stroke-linejoin="bevel"/>
<path d="M22.2008 26.2233H31.8949V26.5942H22.2008V26.2233Z" fill="white" stroke="black" stroke-width="0.0841522" stroke-linejoin="bevel"/>
<path d="M24.753 28.0923H25.0584V29.4975H24.753V28.0923ZM28.9262 28.0923H29.2317V29.4975H28.9262V28.0923ZM22.2775 28.0923H22.5829V29.4975H22.2775V28.0923ZM22.8763 28.0923H23.1818V29.4975H22.8763V28.0923ZM23.5152 28.0923H23.8207V29.4975H23.5152V28.0923ZM24.1541 28.0923H24.4596V29.4975H24.1541V28.0923ZM29.5055 28.0923H29.8109V29.4975H29.5055V28.0923ZM30.1443 28.0923H30.4498V29.4975H30.1443V28.0923ZM30.7832 28.0923H31.0887V29.4975H30.7832V28.0923Z" fill="white" stroke="black" stroke-width="0.085488" stroke-linejoin="bevel"/>
<path d="M18.4092 29.9587C18.5591 29.8823 18.7301 29.7045 18.786 29.5056H35.2328C35.2888 29.7045 35.4598 29.8823 35.6097 29.9587H18.4092Z" fill="white" stroke="black" stroke-width="0.085488"/>
<path d="M26.7991 20.3541C26.7991 20.3541 26.7869 20.0038 26.9908 20C27.1949 20.0037 27.1825 20.3541 27.1825 20.3541H26.7991ZM25.7352 25.0001V24.5285C25.7283 24.2928 25.5 24.2757 25.4934 24.1038C25.4934 24.1038 25.4639 23.846 25.5319 23.7283C25.6242 24.0731 25.7922 24.0098 25.7922 23.868C25.7922 23.7442 25.6971 23.6292 25.5019 23.3288C25.4396 23.2327 25.4781 22.9318 25.5656 22.8242C25.5994 23.0858 25.6381 23.211 25.7504 23.211C25.819 23.211 25.8749 23.1663 25.8749 23.0353C25.8749 22.8686 25.7621 22.7845 25.7065 22.6328C25.6418 22.4558 25.6864 22.2754 25.7939 22.1745C25.8401 22.4326 25.8263 22.5355 25.9411 22.5355C26.1722 22.4624 25.9411 22.1278 25.8916 22.0433C25.8349 21.945 25.9681 21.7486 25.9681 21.7486C26.0416 21.9777 26.0652 21.9965 26.1444 21.9752C26.2444 21.9484 26.2315 21.8001 26.1095 21.6802C26.0325 21.6044 26.0406 21.4918 26.1234 21.4013C26.2064 21.5636 26.3127 21.5538 26.3229 21.4574L26.2562 21.0832H27.726L27.6531 21.4453C27.6322 21.5488 27.772 21.5713 27.8589 21.4014C27.9417 21.4919 27.9498 21.6046 27.8728 21.6803C27.7508 21.8001 27.7379 21.9484 27.8379 21.9753C27.9171 21.9966 27.9408 21.9778 28.0142 21.7487C28.0142 21.7487 28.1337 21.8824 28.0906 22.0434C28.0412 22.1278 27.8101 22.4625 28.0412 22.5355C28.1559 22.5355 28.1422 22.4326 28.1882 22.1746C28.2958 22.2755 28.3404 22.4559 28.2756 22.6329C28.2203 22.7845 28.1073 22.8687 28.1073 23.0354C28.1073 23.1664 28.1633 23.2111 28.2317 23.2111C28.3441 23.2111 28.3829 23.0858 28.4168 22.8243C28.5041 22.9319 28.5427 23.2328 28.4803 23.3288C28.2853 23.6292 28.19 23.7442 28.19 23.868C28.19 24.0098 28.3579 24.0731 28.4504 23.7283C28.5183 23.8459 28.4887 24.1038 28.4887 24.1038C28.4821 24.2757 28.2538 24.2928 28.247 24.5285V25.0001H25.7352ZM26.3502 21.0799L26.3164 20.8137H27.6655L27.6318 21.0799H26.3502ZM26.4405 20.8082L26.4115 20.5892H27.5703L27.5413 20.8082H26.4405ZM26.6245 20.5816L26.6052 20.3626H27.3768L27.3575 20.5816H26.6245ZM29.4373 29.9588C29.2647 29.8923 29.0134 29.71 29.0134 29.5269V27.4571L29.2381 27.1711H24.7424L24.9579 27.4573V29.527C24.9579 29.7101 24.7853 29.8924 24.6127 29.9589L29.4373 29.9588Z" fill="white" stroke="black" stroke-width="0.085488"/>
<path d="M25.5417 28.0923H25.8472V29.4975H25.5417V28.0923ZM28.1246 28.0923H28.43V29.4975H28.1246V28.0923Z" fill="white" stroke="black" stroke-width="0.085488" stroke-linejoin="bevel"/>
<path d="M24.6617 24.8153V27.1712H29.2637V26.6637L29.2704 24.8152C29.0823 24.8891 29.0492 25.0597 29.0492 25.0597V26.063H24.8964V25.0598C24.8964 25.0598 24.8501 24.8892 24.6618 24.8153H24.6617Z" fill="white" stroke="black" stroke-width="0.085488"/>
<path d="M28.6392 29.9588C28.4887 29.8923 28.1611 29.71 28.1611 29.5269V27.2107C28.1933 27.0814 28.3686 27.005 28.4814 26.9246H25.4299C25.5751 27.0015 25.7371 27.0653 25.7949 27.2108V29.527C25.7949 29.7102 25.5359 29.8925 25.3855 29.9589L28.6392 29.9588Z" fill="white" stroke="black" stroke-width="0.085488"/>
<path d="M29.0489 26.9491V25.2806H28.6307V25.1179H25.3221V25.2806H24.9038V26.9491H29.0489ZM27.9799 29.9588C27.8325 29.8923 27.6178 29.71 27.6178 29.5269V27.5494L27.739 27.3696H26.232L26.353 27.5494V29.5269C26.353 29.7103 26.1383 29.8924 25.9909 29.9588L27.9799 29.9588Z" fill="white" stroke="black" stroke-width="0.085488"/>
<path d="M26.604 27.37H27.3678V29.9577H26.604V27.37Z" fill="white" stroke="black" stroke-width="0.087358"/>
<path d="M27.7685 26.8009C27.7702 26.6306 28.2658 26.6229 28.5208 26.4777H25.4583C25.7133 26.6228 26.1972 26.6347 26.1972 26.8009L26.3009 27.1316L27.5687 27.1826L27.7685 26.8009Z" fill="white" stroke="black" stroke-width="0.085488" stroke-linejoin="bevel"/>
<path d="M28.3674 25.0001C28.3674 24.5827 28.3849 24.4221 28.5131 24.4221V25.7493C28.1988 25.8634 27.9743 26.2646 27.9743 26.2646H25.9971C25.9971 26.2646 25.7727 25.8634 25.4583 25.7493V24.4221C25.6163 24.4221 25.6173 24.5901 25.6173 25.0001H28.3674ZM28.5131 24.8289C28.5131 24.3503 28.9262 24.2965 28.9262 24.2965V24.7224C28.7691 24.7156 28.6932 24.8569 28.6932 25.0669C28.6932 25.277 28.8198 25.2804 28.8198 25.2804V26.4892H28.5132L28.5131 24.8289Z" fill="white" stroke="black" stroke-width="0.085488"/>
<path d="M25.46 24.8289C25.46 24.3503 25.0469 24.2965 25.0469 24.2965V24.7224C25.204 24.7156 25.2799 24.8569 25.2799 25.0669C25.2799 25.277 25.1533 25.2804 25.1533 25.2804V26.4892H25.4599L25.46 24.8289Z" fill="white" stroke="black" stroke-width="0.085488"/>
<path d="M25.6901 23.9856H28.2819M26.2744 21.5314H27.7335H26.2744ZM26.1015 21.9871H27.8836H26.1015ZM25.9286 22.54H28.05H25.9286ZM25.748 23.2155H28.264H25.748Z" stroke="black" stroke-width="0.07124"/>
<path d="M24.9038 26.4977H29.0489H24.9038ZM26.2191 26.4985H27.7555V27.0633H26.2191V26.4985Z" stroke="black" stroke-width="0.085488"/>
<path d="M26.0265 25.2471C26.2812 25.5529 26.2576 26.0717 26.2548 26.3775H27.7321C27.7291 26.0717 27.7055 25.5529 27.9602 25.2471H26.0265ZM26.857 21.7434L26.6546 21.6392V21.3413C26.7373 21.366 26.8303 21.3762 26.8393 21.5081C26.8681 21.3198 26.9201 21.329 27.0018 21.2557C27.0833 21.3289 27.1353 21.3198 27.1641 21.5081C27.1732 21.3762 27.266 21.3661 27.3489 21.3411V21.6391L27.1463 21.7434L26.857 21.7434Z" fill="white" stroke="black" stroke-width="0.085488"/>
<path d="M26.8433 22.2324L26.5072 22.0013V21.7268C26.625 21.754 26.7573 21.7651 26.7703 21.9099C26.8113 21.7034 26.8853 21.5968 27.0015 21.5164C27.1178 21.5968 27.1918 21.7034 27.2328 21.9099C27.2458 21.7651 27.3781 21.754 27.496 21.7268V22.0013L27.1597 22.2324H26.8433Z" fill="white" stroke="black" stroke-width="0.085488"/>
<path d="M26.8196 22.9948L26.433 22.6554V22.2519C26.5685 22.292 26.7207 22.3083 26.7356 22.5208C26.7827 22.2175 26.8678 22.0608 27.0014 21.9426C27.1351 22.0608 27.2203 22.2174 27.2674 22.5207C27.2823 22.3082 27.4344 22.2919 27.5698 22.2518V22.6551L27.1834 22.9946L26.8196 22.9948ZM27.5326 23.4455L27.183 23.929H26.7872L26.4376 23.4455H27.5326ZM26.2361 24.2573C26.411 24.3529 26.4755 24.5433 26.4942 24.9007H27.4781C27.4968 24.5433 27.5613 24.3529 27.7362 24.2573H26.2361Z" fill="white" stroke="black" stroke-width="0.085488"/>
<path d="M27.7506 23.4455V22.9597C27.5845 23.0055 27.4769 23.1037 27.4289 23.2373C27.4289 23.076 27.2168 22.7043 26.9854 22.5192C26.7533 22.7263 26.5376 23.0626 26.5419 23.2373C26.5025 23.1102 26.3864 23.0056 26.2203 22.9597V23.4455H27.7506Z" fill="white" stroke="black" stroke-width="0.085488" stroke-linejoin="bevel"/>
<path d="M27.8247 24.2573V23.7716C27.6426 23.8173 27.5247 23.9155 27.4721 24.0491C27.4721 23.8879 27.2395 23.516 26.9859 23.331C26.7316 23.5382 26.495 23.8745 26.4998 24.0491C26.4565 23.922 26.3292 23.8174 26.1471 23.7716V24.2573H27.8247Z" fill="white" stroke="black" stroke-width="0.085488" stroke-linejoin="bevel"/>
<path d="M28.0292 25.2539V24.6937C27.8026 24.7522 27.6619 24.9197 27.5905 25.0174C27.5905 24.7141 27.248 24.2516 26.9857 24.1001C26.7165 24.2556 26.3808 24.7335 26.3808 25.0174C26.3076 24.9203 26.1687 24.7522 25.9421 24.6937V25.2539H28.0292Z" fill="white" stroke="black" stroke-width="0.085488" stroke-linejoin="bevel"/>
<path d="M27.9065 26.4977V25.9216C27.7067 26 27.6469 26.1925 27.584 26.3234C27.6087 25.7391 27.255 25.1113 26.9857 24.952C26.7162 25.1113 26.3559 25.7527 26.3873 26.3234C26.3228 26.1934 26.2647 26 26.0648 25.9216V26.4977H27.9065Z" fill="white" stroke="black" stroke-width="0.085488" stroke-linejoin="bevel"/>
<path d="M27.7668 27.3699V26.7939C27.5574 26.8438 27.5445 26.9208 27.4779 27.05C27.5026 26.701 27.2555 26.3029 26.9861 26.1436C26.7166 26.3029 26.4695 26.7011 26.4942 27.05C26.4278 26.9209 26.4195 26.8438 26.2054 26.7939V27.3699H27.7668Z" fill="white" stroke="black" stroke-width="0.085488"/>
<path d="M18.7862 29.5056V27.7644C18.7291 27.5427 18.5408 27.3466 18.3994 27.3073V25.7745L18.718 25.9469L19.0819 27.5492V29.5056H18.7862Z" fill="white" stroke="black" stroke-width="0.085488"/>
<path d="M18.7862 29.5124V27.7644C18.7291 27.5427 18.5408 27.3466 18.3994 27.3074V25.6682C18.6132 25.6682 18.718 25.947 18.718 25.947L19.0819 27.5493V29.4989L18.7862 29.5124Z" fill="white" stroke="black" stroke-width="0.085488"/>
<path d="M18.5596 29.9588C18.7069 29.8923 18.9216 29.71 18.9216 29.5269V27.3507L18.8205 27.1711H22.528L22.3834 27.3507V29.5269C22.3834 29.71 22.5307 29.8923 22.6781 29.9588H18.5596Z" fill="white" stroke="black" stroke-width="0.085488"/>
<path d="M21.9299 29.9588C21.7826 29.8923 21.5679 29.71 21.5679 29.5269V27.4571L21.8763 27.1709L19.3558 27.1711L19.6642 27.4571V29.5269C19.6642 29.71 19.4495 29.8923 19.3021 29.9588H21.9299Z" fill="white" stroke="black" stroke-width="0.085488"/>
<path d="M21.5764 29.9588C21.429 29.8923 21.2144 29.71 21.2144 29.5269V27.6558L21.4162 27.3696H19.8149L20.0168 27.6558V29.5269C20.0168 29.71 19.8022 29.8923 19.6548 29.9588H21.5764Z" fill="white" stroke="black" stroke-width="0.085488"/>
<path d="M20.233 27.37H20.9982V29.959H20.233V27.37Z" fill="white" stroke="black" stroke-width="0.085488"/>
<path d="M19.1921 28.0923H19.4975V29.4975H19.1921V28.0923ZM21.8115 28.0923H22.117V29.4975H21.8115V28.0923ZM18.9314 25.7225H19.2994V27.163H18.9314V25.7225ZM18.9314 25.4516H19.2973V25.7191H18.9314V25.4516Z" fill="white" stroke="black" stroke-width="0.085488" stroke-linejoin="bevel"/>
<path d="M21.958 26.0326H22.4828V27.1446H21.958V26.0326Z" fill="white" stroke="black" stroke-width="0.0920777" stroke-linejoin="bevel"/>
<path d="M19.2934 27.1519V24.6867C19.3984 24.6867 19.4145 25.0479 19.6554 25.0479C19.7807 25.0479 19.7674 24.8983 19.697 24.7764C19.6347 24.6684 19.5576 24.5193 19.6623 24.2414C19.7342 24.454 19.9275 24.5215 19.8918 24.3882C19.8305 24.1592 19.6537 24.1215 19.7862 23.7662C19.8324 24.0626 20.0225 24.0496 19.9763 23.8772C19.9244 23.683 19.8168 23.6034 19.9494 23.3297C20.0238 23.6406 20.1242 23.6223 20.1242 23.4293C20.1242 23.1443 20.1133 22.8368 20.4823 22.7227C20.4823 22.7227 20.5036 22.4614 20.6366 22.4614C20.7697 22.4614 20.7911 22.7227 20.7911 22.7227C21.1599 22.8369 21.149 23.1444 21.149 23.4294C21.149 23.6224 21.2495 23.6407 21.3238 23.3297C21.4565 23.6035 21.3489 23.6831 21.297 23.8773C21.2506 24.0496 21.4409 24.0628 21.4869 23.7662C21.6195 24.1216 21.4428 24.1593 21.3813 24.3883C21.3457 24.5216 21.5389 24.4541 21.6108 24.2416C21.7156 24.5193 21.6385 24.6684 21.5761 24.7765C21.5058 24.8984 21.4924 25.048 21.6179 25.048C21.8586 25.048 21.8748 24.6868 21.9797 24.6868V27.1521L19.2934 27.1519ZM18.717 25.2898V27.1707H18.9309V25.285C18.8538 25.2461 18.7814 25.2401 18.717 25.2898V25.2898Z" fill="white" stroke="black" stroke-width="0.085488"/>
<path d="M18.7238 26.5071C18.9889 26.6425 19.2515 26.7995 19.3179 27.1709H18.7238V26.5071ZM22.401 25.944V27.1713H22.5743V25.9409C22.5202 25.9155 22.4463 25.9115 22.401 25.944Z" fill="white" stroke="black" stroke-width="0.085488"/>
<path d="M22.5748 26.4977C22.3097 26.6331 22.047 26.7901 21.9806 27.1615H22.5748V26.4977Z" fill="white" stroke="black" stroke-width="0.085488"/>
<path d="M20.8216 23.6312L20.9761 23.5013V23.3349C20.9195 23.3404 20.8887 23.3599 20.847 23.4146C20.8114 23.3043 20.7333 23.2183 20.6287 23.1648C20.5239 23.2183 20.4459 23.3005 20.4104 23.4107C20.3687 23.356 20.3378 23.3404 20.2812 23.3349V23.5013L20.4359 23.6312H20.8216Z" fill="white" stroke="black" stroke-width="0.085488"/>
<path d="M20.9042 24.0477L20.976 23.8923V23.6759C20.9194 23.6816 20.8886 23.7013 20.8468 23.7568C20.8113 23.645 20.7332 23.5577 20.6286 23.5035C20.5238 23.5577 20.4458 23.6411 20.4103 23.7529C20.3685 23.6975 20.3377 23.6817 20.2811 23.6761V23.8924L20.353 24.0478L20.9042 24.0477Z" fill="white" stroke="black" stroke-width="0.085488"/>
<path d="M20.9153 24.6125L21.1449 24.3325V24.0562C21.0609 24.0656 21.015 24.0991 20.953 24.1931C20.9002 24.0038 20.7843 23.9624 20.6288 23.8705C20.4733 23.9624 20.3573 23.997 20.3046 24.1863C20.2426 24.0924 20.1967 24.0657 20.1129 24.0562V24.3325L20.3423 24.6125H20.9153Z" fill="white" stroke="black" stroke-width="0.085488"/>
<path d="M20.9826 25.1671C20.9826 25.1671 21.2501 24.9337 21.266 24.8055V24.5102C21.1624 24.5223 21.0643 24.5492 20.9877 24.6705C20.9226 24.426 20.8208 24.3579 20.6289 24.2393C20.437 24.3579 20.3353 24.426 20.2701 24.6705C20.1935 24.5491 20.0955 24.5223 19.9918 24.5101V24.8054C20.0256 24.9335 20.2751 25.1669 20.2751 25.1669L20.9826 25.1671Z" fill="white" stroke="black" stroke-width="0.085488"/>
<path d="M21.0967 26.191C21.0967 26.191 21.463 25.7855 21.4715 25.6274V25.1669C21.3344 25.1859 21.2047 25.2802 21.1035 25.4693C21.0173 25.0882 20.8829 24.8224 20.629 24.6376C20.3752 24.8224 20.2406 25.0882 20.1545 25.4694C20.0532 25.2801 19.9234 25.1857 19.7864 25.1668V25.6273C19.8126 25.7854 20.1612 26.1909 20.1612 26.1909L21.0967 26.191Z" fill="white" stroke="black" stroke-width="0.085488"/>
<path d="M21.0967 26.7967C21.0967 26.7967 21.4098 26.4779 21.4715 26.3396V25.8791C21.3344 25.8981 21.2047 25.9924 21.1035 26.1815C21.0173 25.8004 20.8829 25.5821 20.629 25.3973C20.3752 25.5821 20.2406 25.8004 20.1545 26.1816C20.0532 25.9922 19.9234 25.8979 19.7864 25.879V26.3395C19.8659 26.4779 20.1612 26.7966 20.1612 26.7966L21.0967 26.7967Z" fill="white" stroke="black" stroke-width="0.085488"/>
<path d="M21.2228 27.1485C21.1314 26.7508 21.0528 26.4559 20.6126 26.1569C20.1725 26.4559 20.0938 26.7508 20.0024 27.1485H21.2228Z" fill="white" stroke="black" stroke-width="0.085488"/>
<path d="M21.4494 27.37V26.794C21.2496 26.8723 21.0689 26.9882 21.0022 27.1172C20.9279 26.7975 20.7845 26.6566 20.6059 26.463C20.4273 26.6566 20.3078 26.7975 20.2332 27.1172C20.1666 26.9882 19.986 26.8723 19.786 26.794V27.37H21.4494Z" fill="white" stroke="black" stroke-width="0.085488"/>
<path d="M31.5181 29.4542V27.713C31.461 27.4913 31.2728 27.2952 31.1313 27.2559V25.7231L31.4499 25.8955L31.8139 27.4978V29.4542H31.5181Z" fill="white" stroke="black" stroke-width="0.085488"/>
<path d="M31.5181 29.461V27.713C31.461 27.4913 31.2728 27.2953 31.1313 27.256V25.6168C31.3452 25.6168 31.4499 25.8956 31.4499 25.8956L31.8139 27.4979V29.4475L31.5181 29.461Z" fill="white" stroke="black" stroke-width="0.085488"/>
<path d="M31.2915 29.9074C31.4389 29.8409 31.6535 29.6586 31.6535 29.4755V27.2993L31.5524 27.1197H35.26L35.1153 27.2993V29.4755C35.1153 29.6586 35.2627 29.8409 35.4101 29.9074H31.2915Z" fill="white" stroke="black" stroke-width="0.085488"/>
<path d="M34.6619 29.9074C34.5145 29.8409 34.2998 29.6586 34.2998 29.4755V27.4057L34.6082 27.1195L32.0877 27.1197L32.3961 27.4057V29.4755C32.3961 29.6586 32.1814 29.8409 32.0341 29.9074H34.6619Z" fill="white" stroke="black" stroke-width="0.085488"/>
<path d="M34.3083 29.9074C34.161 29.8409 33.9463 29.6586 33.9463 29.4755V27.6044L34.1482 27.3182H32.5469L32.7488 27.6044V29.4755C32.7488 29.6586 32.5341 29.8409 32.3867 29.9074H34.3083Z" fill="white" stroke="black" stroke-width="0.085488"/>
<path d="M32.965 27.3186H33.7301V29.9076H32.965V27.3186Z" fill="white" stroke="black" stroke-width="0.085488"/>
<path d="M31.924 28.041H32.2295V29.4461H31.924V28.041ZM34.5435 28.041H34.8489V29.4461H34.5435V28.041ZM31.6633 25.6711H32.0313V27.1116H31.6633V25.6711ZM31.6633 25.4002H32.0292V25.6677H31.6633V25.4002Z" fill="white" stroke="black" stroke-width="0.085488" stroke-linejoin="bevel"/>
<path d="M34.6899 25.9812H35.2147V27.0932H34.6899V25.9812Z" fill="white" stroke="black" stroke-width="0.0920777" stroke-linejoin="bevel"/>
<path d="M32.0253 27.1005V24.6353C32.1303 24.6353 32.1465 24.9965 32.3874 24.9965C32.5126 24.9965 32.4993 24.8469 32.4289 24.725C32.3666 24.617 32.2895 24.4679 32.3943 24.19C32.4662 24.4026 32.6595 24.4701 32.6238 24.3368C32.5624 24.1078 32.3857 24.0702 32.5181 23.7148C32.5643 24.0112 32.7544 23.9982 32.7083 23.8258C32.6563 23.6316 32.5487 23.5521 32.6814 23.2783C32.7557 23.5892 32.8562 23.5709 32.8562 23.3779C32.8562 23.0929 32.8452 22.7854 33.2142 22.6713C33.2142 22.6713 33.2355 22.41 33.3685 22.41C33.5016 22.41 33.523 22.6713 33.523 22.6713C33.8918 22.7855 33.8809 23.093 33.8809 23.378C33.8809 23.571 33.9815 23.5893 34.0557 23.2784C34.1885 23.5521 34.0809 23.6317 34.0289 23.8259C33.9826 23.9983 34.1729 24.0114 34.2189 23.7148C34.3514 24.0702 34.1747 24.1079 34.1132 24.3369C34.0776 24.4702 34.2708 24.4027 34.3427 24.1902C34.4475 24.4679 34.3704 24.617 34.3081 24.7251C34.2377 24.847 34.2243 24.9966 34.3498 24.9966C34.5905 24.9966 34.6067 24.6354 34.7117 24.6354V27.1007L32.0253 27.1005ZM31.449 25.2384V27.1193H31.6628V25.2336C31.5858 25.1947 31.5134 25.1887 31.449 25.2384V25.2384Z" fill="white" stroke="black" stroke-width="0.085488"/>
<path d="M31.4558 26.4557C31.7209 26.5911 31.9835 26.7481 32.05 27.1195H31.4558V26.4557ZM35.133 25.8926V27.1199H35.3064V25.8895C35.2523 25.8642 35.1783 25.8602 35.133 25.8926Z" fill="white" stroke="black" stroke-width="0.085488"/>
<path d="M35.3067 26.4463C35.0416 26.5817 34.779 26.7387 34.7125 27.1101H35.3067V26.4463Z" fill="white" stroke="black" stroke-width="0.085488"/>
<path d="M33.5536 23.5798L33.7082 23.4499V23.2835C33.6516 23.2891 33.6208 23.3085 33.579 23.3633C33.5435 23.2529 33.4654 23.1669 33.3608 23.1134C33.256 23.1669 33.178 23.2491 33.1424 23.3593C33.1007 23.3046 33.0699 23.2891 33.0133 23.2835V23.4499L33.1679 23.5798H33.5536Z" fill="white" stroke="black" stroke-width="0.085488"/>
<path d="M33.6362 23.9963L33.708 23.8409V23.6245C33.6515 23.6302 33.6206 23.6499 33.5789 23.7054C33.5434 23.5936 33.4653 23.5063 33.3607 23.4521C33.2559 23.5064 33.1778 23.5897 33.1423 23.7015C33.1006 23.6461 33.0697 23.6303 33.0132 23.6247V23.841L33.0851 23.9964L33.6362 23.9963Z" fill="white" stroke="black" stroke-width="0.085488"/>
<path d="M33.6473 24.5611L33.8769 24.2811V24.0049C33.7929 24.0142 33.7471 24.0477 33.6851 24.1417C33.6323 23.9524 33.5164 23.911 33.3609 23.8192C33.2054 23.911 33.0894 23.9457 33.0366 24.1349C32.9746 24.041 32.9288 24.0143 32.845 24.0049V24.2811L33.0744 24.5611H33.6473Z" fill="white" stroke="black" stroke-width="0.085488"/>
<path d="M33.7147 25.1157C33.7147 25.1157 33.9822 24.8823 33.9981 24.7542V24.4588C33.8944 24.4709 33.7964 24.4978 33.7198 24.6191C33.6546 24.3747 33.5528 24.3065 33.361 24.1879C33.1691 24.3065 33.0673 24.3747 33.0022 24.6191C32.9255 24.4977 32.8275 24.4709 32.7239 24.4587V24.754C32.7576 24.8821 33.0072 25.1155 33.0072 25.1155L33.7147 25.1157Z" fill="white" stroke="black" stroke-width="0.085488"/>
<path d="M33.8288 26.1396C33.8288 26.1396 34.1951 25.7341 34.2036 25.576V25.1155C34.0664 25.1345 33.9368 25.2288 33.8356 25.4179C33.7494 25.0368 33.6149 24.771 33.3611 24.5862C33.1072 24.771 32.9726 25.0368 32.8866 25.418C32.7852 25.2287 32.6555 25.1344 32.5184 25.1154V25.576C32.5447 25.734 32.8932 26.1395 32.8932 26.1395L33.8288 26.1396Z" fill="white" stroke="black" stroke-width="0.085488"/>
<path d="M33.8288 26.7453C33.8288 26.7453 34.1419 26.4266 34.2036 26.2882V25.8277C34.0664 25.8467 33.9368 25.941 33.8356 26.1301C33.7494 25.749 33.6149 25.5307 33.3611 25.3459C33.1072 25.5307 32.9726 25.749 32.8866 26.1302C32.7852 25.9408 32.6555 25.8465 32.5184 25.8276V26.2881C32.5979 26.4265 32.8932 26.7452 32.8932 26.7452L33.8288 26.7453Z" fill="white" stroke="black" stroke-width="0.085488"/>
<path d="M33.9549 27.0971C33.8635 26.6994 33.7848 26.4045 33.3447 26.1055C32.9045 26.4045 32.8259 26.6994 32.7345 27.0971H33.9549Z" fill="white" stroke="black" stroke-width="0.085488"/>
<path d="M34.1815 27.3186V26.7426C33.9816 26.8209 33.801 26.9368 33.7343 27.0658C33.66 26.7461 33.5165 26.6052 33.338 26.4116C33.1593 26.6052 33.0398 26.7461 32.9653 27.0658C32.8987 26.9368 32.7181 26.8209 32.5181 26.7426V27.3186H34.1815Z" fill="white" stroke="black" stroke-width="0.085488"/>
<path d="M17.9749 29.9358V30.4616H36.0249V29.9357L17.9749 29.9358ZM17.6482 30.4665V31.1522H36.3515V30.4665H17.6482ZM36.3515 31.1522L17.6482 31.1573L17.1014 31.1522V32.057H36.8984V31.1524L36.3515 31.1522ZM16.5507 32.0628L16.5509 33.1285H37.4494L37.4493 32.0628H16.5507ZM37.4494 33.1285V33.1302H16.5509V33.1285H16V34.1942H38V33.1285H37.4494Z" fill="white" stroke="black" stroke-width="0.085488"/>
<path d="M19.934 29.9383H21.2974V34.192H19.934V29.9383Z" fill="white" stroke="black" stroke-width="0.0930572"/>
<path d="M20.2356 29.9383H20.9952V34.1921H20.2356V29.9383Z" fill="white" stroke="black" stroke-width="0.0928791"/>
<path d="M26.2948 29.9383H27.6583V34.192H26.2948V29.9383Z" fill="white" stroke="black" stroke-width="0.0930572"/>
<path d="M26.6057 29.9383H27.3653V34.1921H26.6057V29.9383Z" fill="white" stroke="black" stroke-width="0.0928791"/>
<path d="M32.6931 29.9383H34.0565V34.192H32.6931V29.9383Z" fill="white" stroke="black" stroke-width="0.0930572"/>
<path d="M32.9946 29.9383H33.7542V34.1921H32.9946V29.9383Z" fill="white" stroke="black" stroke-width="0.0928791"/>
<path d="M32.981 30.4631H33.7685M18.7861 29.5056H35.2329H18.7861ZM20.2219 33.6576H21.0094H20.2219ZM20.2219 33.1251H21.0094H20.2219ZM20.2219 32.5927H21.0094H20.2219ZM20.2219 32.0603H21.0094H20.2219ZM20.2219 31.5279H21.0094H20.2219ZM20.2219 30.9955H21.0094H20.2219ZM20.2219 30.4631H21.0094H20.2219ZM26.6091 33.6584H27.3423H26.6091ZM26.6091 33.1257H27.3423H26.6091ZM26.6091 32.593H27.3423H26.6091ZM26.6091 32.0603H27.3423H26.6091ZM26.6091 31.5277H27.3423H26.6091ZM26.6091 30.995H27.3423H26.6091ZM26.6091 30.4623H27.3423H26.6091ZM32.981 33.6576H33.7685H32.981ZM32.981 33.1251H33.7685H32.981ZM32.981 32.5927H33.7685H32.981ZM32.981 32.0603H33.7685H32.981ZM32.981 31.5279H33.7685H32.981ZM32.981 30.9955H33.7685H32.981Z" stroke="black" stroke-width="0.085488"/>
<rect x="3" y="9" width="48" height="9" fill="#2E50A6"/>
</g>
</svg>
