<svg width="54" height="54" viewBox="0 0 54 54" fill="none" xmlns="http://www.w3.org/2000/svg">
<mask id="mask0_1_33385" style="mask-type:alpha" maskUnits="userSpaceOnUse" x="3" y="9" width="48" height="36">
<path d="M3.56934 18.1356C4.16681 13.4125 8.0415 10.0019 12.7861 9.60887C16.6412 9.28949 21.6196 9 27 9C32.3804 9 37.3588 9.28949 41.2139 9.60887C45.9585 10.0019 49.8332 13.4125 50.4307 18.1356C50.752 20.6759 51 23.704 51 27C51 30.296 50.752 33.3241 50.4307 35.8644C49.8332 40.5875 45.9585 43.9981 41.2139 44.3911C37.3588 44.7105 32.3804 45 27 45C21.6196 45 16.6412 44.7105 12.7861 44.3911C8.04151 43.9981 4.16681 40.5875 3.56934 35.8644C3.248 33.3241 3 30.296 3 27C3 23.704 3.248 20.6759 3.56934 18.1356Z" fill="#00D0BF"/>
</mask>
<g mask="url(#mask0_1_33385)">
<rect x="1" y="8" width="52" height="22" fill="#EE5757"/>
<path d="M27.1126 14.194C24.8336 13.2516 23.4385 13.0784 21.8797 13.0629C19.6222 13.0784 18.5448 14.0483 16.3923 14.1379C17.2452 15.0564 20.3364 15.281 21.6396 14.0746C23.577 14.2765 24.0166 14.7996 24.5362 15.4506C23.7275 15.3228 22.7958 15.0899 22.023 15.9451C21.3708 16.0765 21.0686 15.9451 19.953 15.9451C19.4322 15.9451 19.2519 16.2007 19.259 16.6618C19.5959 16.196 21.9239 16.4707 22.4948 16.6618C22.9332 16.8087 23.399 17.4167 23.9545 17.5158C25.4105 17.775 27.4996 17.0142 29.4263 16.4958L33.5926 15.9451H30.7342L34.3092 15.2284C32.6454 15.2284 31.5488 15.2284 30.4225 15.2284C30.34 15.1341 30.143 15.0122 29.9853 14.9083C30.9851 14.2645 31.869 13.0939 32.0947 12.529C33.8972 12.511 35.0606 12.3438 36.4593 12.0165C27.2404 10.9965 29.3391 12.0966 27.1126 14.194Z" fill="#F8D000" stroke="black" stroke-width="0.0549452" stroke-miterlimit="22.9256"/>
<path d="M22.8496 15.6931C22.9487 15.6931 23.0287 15.7731 23.0287 15.8723C23.0287 15.9714 22.9487 16.0514 22.8496 16.0514C22.7516 16.0514 22.6704 15.9714 22.6704 15.8723C22.6704 15.7731 22.7516 15.6931 22.8496 15.6931Z" fill="black"/>
<path d="M22.8496 15.6931C22.9487 15.6931 23.0287 15.7731 23.0287 15.8723C23.0287 15.9714 22.9487 16.0514 22.8496 16.0514C22.7516 16.0514 22.6704 15.9714 22.6704 15.8723C22.6704 15.7731 22.7516 15.6931 22.8496 15.6931Z" stroke="black" stroke-width="0.0179169" stroke-miterlimit="22.9256"/>
<path d="M25.2469 15.502C25.2469 15.502 24.498 15.9451 24.0011 15.9451" stroke="black" stroke-width="0.0549452" stroke-miterlimit="22.9256"/>
<path d="M29.4263 16.4958C29.4263 16.4958 30.1107 15.9451 30.7342 15.9451" stroke="black" stroke-width="0.0549452" stroke-miterlimit="22.9256"/>
<path d="M18.5209 13.8668C18.5209 13.8668 19.0775 13.5753 19.3403 13.4977" stroke="black" stroke-width="0.0549452" stroke-miterlimit="22.9256"/>
<path d="M20.8274 13.4511C20.8274 13.4511 21.7101 13.0701 22.6931 13.0892" stroke="black" stroke-width="0.0549452" stroke-miterlimit="22.9256"/>
<path d="M23.2139 13.5443C23.2139 13.5443 24.3713 13.3496 25.4403 13.5873" stroke="black" stroke-width="0.0549452" stroke-miterlimit="22.9256"/>
<path d="M24.5446 13.8238C24.5446 13.8238 25.5049 13.6625 26.4258 13.9229" stroke="black" stroke-width="0.0549452" stroke-miterlimit="22.9256"/>
<path d="M25.5323 14.1164C25.5323 14.1164 26.5106 14.1295 26.9968 14.3183" stroke="black" stroke-width="0.0549452" stroke-miterlimit="22.9256"/>
<path d="M16.3923 14.1379C16.3923 14.1379 17.7648 14.513 18.8804 13.9766" stroke="black" stroke-width="0.0549452" stroke-miterlimit="22.9256"/>
<path d="M16.5668 14.3003C16.5668 14.3003 18.3489 14.7399 19.1635 13.9241" stroke="black" stroke-width="0.0549452" stroke-miterlimit="22.9256"/>
<path d="M17.1639 14.6085C17.1639 14.6085 18.5065 15.0409 19.5624 13.9253" stroke="black" stroke-width="0.0549452" stroke-miterlimit="22.9256"/>
<path d="M18.411 14.8797C18.411 14.8797 19.4956 14.5691 19.9065 13.9301" stroke="black" stroke-width="0.0549452" stroke-miterlimit="22.9256"/>
<path d="M19.259 14.8976C19.259 14.8976 19.9865 14.3935 20.248 13.9444" stroke="black" stroke-width="0.0549452" stroke-miterlimit="22.9256"/>
<path d="M28.6307 14.329C28.6307 14.329 28.915 14.6862 29.9853 14.9083" stroke="black" stroke-width="0.0549452" stroke-miterlimit="22.9256"/>
<path d="M28.8195 14.1606C28.8195 14.1606 29.2793 14.6205 30.2373 14.7327" stroke="black" stroke-width="0.0549452" stroke-miterlimit="22.9256"/>
<path d="M29.0513 13.9444C29.0513 13.9444 29.5183 14.3457 30.5348 14.4951" stroke="black" stroke-width="0.0549452" stroke-miterlimit="22.9256"/>
<path d="M29.2817 13.7139C29.2817 13.7139 29.996 14.1905 30.8095 14.2454" stroke="black" stroke-width="0.0549452" stroke-miterlimit="22.9256"/>
<path d="M29.5636 13.4129C29.5636 13.4129 30.0641 13.8799 31.0567 13.9958" stroke="black" stroke-width="0.0549452" stroke-miterlimit="22.9256"/>
<path d="M29.7739 13.1728C29.7739 13.1728 30.3604 13.6768 31.2825 13.7461" stroke="black" stroke-width="0.0549452" stroke-miterlimit="22.9256"/>
<path d="M29.9805 12.9219C29.9805 12.9219 30.34 13.3376 31.5261 13.4463" stroke="black" stroke-width="0.0549452" stroke-miterlimit="22.9256"/>
<path d="M30.1908 12.6508C30.1908 12.6508 30.5909 13.0904 31.7173 13.1859" stroke="black" stroke-width="0.0549452" stroke-miterlimit="22.9256"/>
<path d="M30.3544 12.4274C30.3544 12.4274 31.0591 12.959 31.8749 12.9482" stroke="black" stroke-width="0.0549452" stroke-miterlimit="22.9256"/>
<path d="M30.4941 12.2244C30.4941 12.2244 31.4258 12.7834 31.9812 12.7655" stroke="black" stroke-width="0.0549452" stroke-miterlimit="22.9256"/>
<path d="M30.6637 11.9664C30.6637 11.9664 31.4043 12.4274 32.0947 12.529" stroke="black" stroke-width="0.0549452" stroke-miterlimit="22.9256"/>
<path d="M27.4817 14.5572C27.4817 14.5572 27.7803 14.7829 28.0598 14.7734" stroke="black" stroke-width="0.0549452" stroke-miterlimit="22.9256"/>
<path d="M27.6537 14.3899C27.6537 14.3899 27.9129 14.6109 28.2688 14.6097" stroke="black" stroke-width="0.0549452" stroke-miterlimit="22.9256"/>
<path d="M27.8628 14.1845C27.8628 14.1845 28.1566 14.4592 28.509 14.4091" stroke="black" stroke-width="0.0549452" stroke-miterlimit="22.9256"/>
<path d="M28.061 13.9862C28.061 13.9862 28.4122 14.2251 28.7264 14.2179" stroke="black" stroke-width="0.0549452" stroke-miterlimit="22.9256"/>
<path d="M28.2808 13.7605C28.2808 13.7605 28.5412 13.9862 28.9532 14.0077" stroke="black" stroke-width="0.0549452" stroke-miterlimit="22.9256"/>
<path d="M28.4767 13.512C28.4767 13.512 28.7825 13.7832 29.1719 13.7927" stroke="black" stroke-width="0.0549452" stroke-miterlimit="22.9256"/>
<path d="M28.6833 13.3328C28.6833 13.3328 28.9796 13.5228 29.3988 13.5586" stroke="black" stroke-width="0.0549452" stroke-miterlimit="22.9256"/>
<path d="M28.8708 13.1238C28.8708 13.1238 29.271 13.2648 29.6377 13.2994" stroke="black" stroke-width="0.0549452" stroke-miterlimit="22.9256"/>
<path d="M29.087 12.8682C29.087 12.8682 29.363 13.0617 29.8527 13.0498" stroke="black" stroke-width="0.0549452" stroke-miterlimit="22.9256"/>
<path d="M29.2817 12.6126C29.2817 12.6126 29.609 12.83 30.0295 12.8347" stroke="black" stroke-width="0.0549452" stroke-miterlimit="22.9256"/>
<path d="M29.425 12.3701C29.425 12.3701 29.8646 12.6162 30.2433 12.5612" stroke="black" stroke-width="0.0549452" stroke-miterlimit="22.9256"/>
<path d="M29.5852 12.0798C29.5852 12.0798 29.8635 12.3844 30.3819 12.3737" stroke="black" stroke-width="0.0549452" stroke-miterlimit="22.9256"/>
<path d="M29.6974 11.9485C29.6974 11.9485 30.1967 12.2292 30.5347 12.1575" stroke="black" stroke-width="0.0549452" stroke-miterlimit="22.9256"/>
<path d="M29.9088 11.7896C29.9088 11.7896 30.2875 12.0201 30.6339 12.0106" stroke="black" stroke-width="0.0549452" stroke-miterlimit="22.9256"/>
<path d="M30.2935 11.6737C30.2935 11.6737 30.9683 12.0177 31.8809 11.6451" stroke="black" stroke-width="0.0549452" stroke-miterlimit="22.9256"/>
<path d="M30.868 11.9186C30.868 11.9186 32.2321 12.2315 32.8234 11.6845" stroke="black" stroke-width="0.0549452" stroke-miterlimit="22.9256"/>
<path d="M31.9382 11.9998C31.9382 11.9998 32.8759 12.0978 33.9246 11.7657" stroke="black" stroke-width="0.0549452" stroke-miterlimit="22.9256"/>
<path d="M32.5618 12.0058C32.5618 12.0058 33.9856 12.2925 36.4593 12.0165" stroke="black" stroke-width="0.0549452" stroke-miterlimit="22.9256"/>
<path d="M19.646 14.8653C19.646 14.8653 20.2826 14.4461 20.5466 13.9635" stroke="black" stroke-width="0.0549452" stroke-miterlimit="22.9256"/>
<path d="M20.1227 14.7877C20.1227 14.7877 20.6351 14.2908 20.7844 13.9826" stroke="black" stroke-width="0.0549452" stroke-miterlimit="22.9256"/>
<path d="M20.5957 14.6599C20.5957 14.6599 21.0173 14.2812 21.1105 14.0161" stroke="black" stroke-width="0.0549452" stroke-miterlimit="22.9256"/>
<path d="M18.5364 13.9934C18.5364 13.9934 19.4513 13.7939 21.6396 14.0746" stroke="black" stroke-width="0.0549452" stroke-miterlimit="22.9256"/>
<path d="M19.3821 13.6279C19.3821 13.6279 20.1489 13.2564 20.8322 13.1429" stroke="black" stroke-width="0.0549452" stroke-miterlimit="22.9256"/>
<path d="M20.1442 13.4738C20.1442 13.4738 20.7044 13.2098 21.5309 13.0784" stroke="black" stroke-width="0.0549452" stroke-miterlimit="22.9256"/>
<path d="M21.4175 13.4236C21.4175 13.4236 22.1927 13.0928 23.1411 13.1238" stroke="black" stroke-width="0.0549452" stroke-miterlimit="22.9256"/>
<path d="M22.3981 13.4296C22.3981 13.4296 23.4611 13.1919 24.4406 13.3257" stroke="black" stroke-width="0.0549452" stroke-miterlimit="22.9256"/>
<path d="M25.2445 13.9492C25.2445 13.9492 26.0555 13.9121 26.9884 14.1439" stroke="black" stroke-width="0.0549452" stroke-miterlimit="22.9256"/>
<path d="M23.8577 13.6231C23.8577 13.6231 25.0199 13.561 25.8166 13.7079" stroke="black" stroke-width="0.0549452" stroke-miterlimit="22.9256"/>
<path d="M31.0448 11.952C31.0448 11.952 31.4461 12.2996 32.5642 12.5206" stroke="black" stroke-width="0.0549452" stroke-miterlimit="22.9256"/>
<path d="M31.6754 12.0082C31.6754 12.0082 32.3037 12.3653 33.2951 12.4895" stroke="black" stroke-width="0.0549452" stroke-miterlimit="22.9256"/>
<path d="M32.3348 12.013C32.3348 12.013 33.2163 12.3964 34.148 12.4203" stroke="black" stroke-width="0.0549452" stroke-miterlimit="22.9256"/>
<path d="M33.3107 12.0966C33.3107 12.0966 34.2089 12.3128 35.3221 12.2542" stroke="black" stroke-width="0.0549452" stroke-miterlimit="22.9256"/>
<path d="M21.9358 13.4105C21.9358 13.4105 22.545 13.1596 23.6248 13.1799" stroke="black" stroke-width="0.0549452" stroke-miterlimit="22.9256"/>
<path d="M25.9528 14.323C25.9528 14.323 26.3183 14.2788 26.7722 14.495" stroke="black" stroke-width="0.0549452" stroke-miterlimit="22.9256"/>
<path d="M24.5361 15.4506C24.7882 15.49 25.0283 15.5199 25.2468 15.502C26.1021 15.0349 26.6862 14.5966 27.1126 14.194" stroke="black" stroke-width="0.0549452" stroke-miterlimit="22.9256"/>
<path d="M20.3785 28.7045C19.5448 28.5831 18.7461 28.2884 18.0349 27.8397C17.3237 27.391 16.716 26.7985 16.252 26.1011C16.9806 26.5216 17.7904 26.7847 18.6281 26.8733C19.4659 26.9618 20.3126 26.8737 21.1126 26.6147" fill="#F8D000"/>
<path d="M20.3785 28.7045C19.5448 28.5831 18.7461 28.2884 18.0349 27.8397C17.3237 27.391 16.716 26.7985 16.252 26.1011C16.9806 26.5216 17.7904 26.7847 18.6281 26.8733C19.4659 26.9618 20.3126 26.8737 21.1126 26.6147" stroke="black" stroke-width="0.0549452" stroke-miterlimit="22.9256"/>
<path d="M20.3668 30.124L15.3615 28.5319L20.5668 27.9054" fill="#F8D000"/>
<path d="M20.3668 30.124L15.3615 28.5319L20.5668 27.9054" stroke="black" stroke-width="0.0549452" stroke-miterlimit="22.9256"/>
<path d="M21.5393 26.5627C20.8182 26.1333 20.1936 25.5516 19.7066 24.856C19.2196 24.1605 18.8813 23.3667 18.7139 22.527C19.2273 23.2022 19.8739 23.7579 20.611 24.1576C21.3481 24.5572 22.1591 24.7918 22.9906 24.8459" fill="#F8D000"/>
<path d="M21.5393 26.5627C20.8182 26.1333 20.1936 25.5516 19.7066 24.856C19.2196 24.1605 18.8813 23.3667 18.7139 22.527C19.2273 23.2022 19.8739 23.7579 20.611 24.1576C21.3481 24.5572 22.1591 24.7918 22.9906 24.8459" stroke="black" stroke-width="0.0549452" stroke-miterlimit="22.9256"/>
<path d="M32.3483 31.898C33.2032 32.1092 34.087 32.1204 34.9415 31.9308C35.7961 31.7412 36.602 31.3551 37.3062 30.7978C36.4451 30.9501 35.562 30.9005 34.715 30.6524C33.868 30.4042 33.0763 29.9631 32.3921 29.3581" fill="#F8D000"/>
<path d="M32.3483 31.898C33.2032 32.1092 34.087 32.1204 34.9415 31.9308C35.7961 31.7412 36.602 31.3551 37.3062 30.7978C36.4451 30.9501 35.562 30.9005 34.715 30.6524C33.868 30.4042 33.0763 29.9631 32.3921 29.3581" stroke="black" stroke-width="0.0549452" stroke-miterlimit="22.9256"/>
<path d="M20.9496 27.8434L16.8906 24.3849L21.9462 25.7628" fill="#F8D000"/>
<path d="M20.9496 27.8434L16.8906 24.3849L21.9462 25.7628" stroke="black" stroke-width="0.0549452" stroke-miterlimit="22.9256"/>
<path d="M31.7953 33.0982L37.0776 33.4318L32.3778 30.7785" fill="#F8D000"/>
<path d="M31.7953 33.0982L37.0776 33.4318L32.3778 30.7785" stroke="black" stroke-width="0.0549452" stroke-miterlimit="22.9256"/>
<path d="M22.9911 24.5199C22.6285 23.7333 22.4495 22.884 22.4659 22.0277C22.4822 21.1715 22.6935 20.3278 23.0859 19.5521C23.1061 20.4082 23.3212 21.2502 23.7171 22.0228C24.113 22.7953 24.6807 23.4809 25.3828 24.0344" fill="#F8D000"/>
<path d="M22.9911 24.5199C22.6285 23.7333 22.4495 22.884 22.4659 22.0277C22.4822 21.1715 22.6935 20.3278 23.0859 19.5521C23.1061 20.4082 23.3212 21.2502 23.7171 22.0228C24.113 22.7953 24.6807 23.4809 25.3828 24.0344" stroke="black" stroke-width="0.0549452" stroke-miterlimit="22.9256"/>
<path d="M30.1769 34.1669C30.719 34.7994 31.3948 35.3152 32.1598 35.6806C32.9248 36.046 33.7615 36.2525 34.6151 36.2867C33.8658 35.8926 33.2119 35.3516 32.6963 34.6991C32.1807 34.0467 31.8152 33.2976 31.6238 32.5012" fill="#F8D000"/>
<path d="M30.1769 34.1669C30.719 34.7994 31.3948 35.3152 32.1598 35.6806C32.9248 36.046 33.7615 36.2525 34.6151 36.2867C33.8658 35.8926 33.2119 35.3516 32.6963 34.6991C32.1807 34.0467 31.8152 33.2976 31.6238 32.5012" stroke="black" stroke-width="0.0549452" stroke-miterlimit="22.9256"/>
<path d="M21.8659 25.3047L20.5632 20.2374L23.9961 24.3315" fill="#F8D000"/>
<path d="M21.8659 25.3047L20.5632 20.2374L23.9961 24.3315" stroke="black" stroke-width="0.0549452" stroke-miterlimit="22.9256"/>
<path d="M29.0307 35.0164L33.1319 38.3944L30.8899 33.7048" fill="#F8D000"/>
<path d="M29.0307 35.0164L33.1319 38.3944L30.8899 33.7048" stroke="black" stroke-width="0.0549452" stroke-miterlimit="22.9256"/>
<path d="M26.0579 23.5425C26.0758 22.7064 26.2653 21.8839 26.6139 21.1292C26.9626 20.3745 27.4626 19.7047 28.0809 19.1638C27.7616 19.9322 27.6039 20.7618 27.6183 21.598C27.6327 22.4343 27.8187 23.2582 28.1642 24.0155" fill="#F8D000"/>
<path d="M26.0579 23.5425C26.0758 22.7064 26.2653 21.8839 26.6139 21.1292C26.9626 20.3745 27.4626 19.7047 28.0809 19.1638C27.7616 19.9322 27.6039 20.7618 27.6183 21.598C27.6327 22.4343 27.8187 23.2582 28.1642 24.0155" stroke="black" stroke-width="0.0549452" stroke-miterlimit="22.9256"/>
<path d="M28.8451 24.2892C29.2176 23.5316 29.7428 22.8634 30.3864 22.3286C31.0299 21.7938 31.7771 21.4044 32.5788 21.1862C31.9566 21.7467 31.4577 22.4357 31.1149 23.2078C30.7722 23.9799 30.5933 24.8177 30.5902 25.6659" fill="#F8D000"/>
<path d="M28.8451 24.2892C29.2176 23.5316 29.7428 22.8634 30.3864 22.3286C31.0299 21.7938 31.7771 21.4044 32.5788 21.1862C31.9566 21.7467 31.4577 22.4357 31.1149 23.2078C30.7722 23.9799 30.5933 24.8177 30.5902 25.6659" stroke="black" stroke-width="0.0549452" stroke-miterlimit="22.9256"/>
<path d="M31.1282 25.9589C31.8044 25.4431 32.5795 25.0801 33.4025 24.8937C34.2256 24.7074 35.0779 24.702 35.9034 24.8779C35.0882 25.0976 34.3278 25.4919 33.6721 26.0348C33.0164 26.5778 32.4804 27.2571 32.0992 28.0281" fill="#F8D000"/>
<path d="M31.1282 25.9589C31.8044 25.4431 32.5795 25.0801 33.4025 24.8937C34.2256 24.7074 35.0779 24.702 35.9034 24.8779C35.0882 25.0976 34.3278 25.4919 33.6721 26.0348C33.0164 26.5778 32.4804 27.2571 32.0992 28.0281" stroke="black" stroke-width="0.0549452" stroke-miterlimit="22.9256"/>
<path d="M27.7697 35.4185C27.979 36.2372 28.3637 37.0037 28.8985 37.6675C29.4333 38.3314 30.106 38.8777 30.8724 39.2703C30.365 38.5863 30.0118 37.8056 29.836 36.9795C29.6601 36.1534 29.6656 35.3007 29.8522 34.4775" fill="#F8D000"/>
<path d="M27.7697 35.4185C27.979 36.2372 28.3637 37.0037 28.8985 37.6675C29.4333 38.3314 30.106 38.8777 30.8724 39.2703C30.365 38.5863 30.0118 37.8056 29.836 36.9795C29.6601 36.1534 29.6656 35.3007 29.8522 34.4775" stroke="black" stroke-width="0.0549452" stroke-miterlimit="22.9256"/>
<path d="M24.4851 23.7732L25.596 18.5627L26.8866 23.7421" fill="#F8D000"/>
<path d="M24.4851 23.7732L25.596 18.5627L26.8866 23.7421" stroke="black" stroke-width="0.0549452" stroke-miterlimit="22.9256"/>
<path d="M27.5009 23.8386L30.5314 19.6296L29.4864 24.7575" fill="#F8D000"/>
<path d="M27.5009 23.8386L30.5314 19.6296L29.4864 24.7575" stroke="black" stroke-width="0.0549452" stroke-miterlimit="22.9256"/>
<path d="M30.1287 24.961L34.7623 22.5613L31.5289 26.7265" fill="#F8D000"/>
<path d="M30.1287 24.961L34.7623 22.5613L31.5289 26.7265" stroke="black" stroke-width="0.0549452" stroke-miterlimit="22.9256"/>
<path d="M32.303 28.6449C33.1335 28.578 33.9698 28.6806 34.7569 28.9461C35.5441 29.2115 36.2641 29.6337 36.8697 30.1848C36.0724 29.9496 35.2325 29.8788 34.4055 29.9773C33.5786 30.0758 32.7831 30.3412 32.0716 30.7561" fill="#F8D000"/>
<path d="M32.303 28.6449C33.1335 28.578 33.9698 28.6806 34.7569 28.9461C35.5441 29.2115 36.2641 29.6337 36.8697 30.1848C36.0724 29.9496 35.2325 29.8788 34.4055 29.9773C33.5786 30.0758 32.7831 30.3412 32.0716 30.7561" stroke="black" stroke-width="0.0549452" stroke-miterlimit="22.9256"/>
<path d="M31.9204 27.1291L37.1898 27.6298L32.2017 29.476" fill="#F8D000"/>
<path d="M31.9204 27.1291L37.1898 27.6298L32.2017 29.476" stroke="black" stroke-width="0.0549452" stroke-miterlimit="22.9256"/>
<path d="M26.3639 35.6487L28.5824 40.4824L28.6631 35.204" fill="#F8D000"/>
<path d="M26.3639 35.6487L28.5824 40.4824L28.6631 35.204" stroke="black" stroke-width="0.0549452" stroke-miterlimit="22.9256"/>
<path d="M26.4259 35.6537C29.7902 35.6537 32.5176 32.9264 32.5176 29.562C32.5176 26.1976 29.7902 23.4702 26.4259 23.4702C23.0615 23.4702 20.3341 26.1976 20.3341 29.562C20.3341 32.9264 23.0615 35.6537 26.4259 35.6537Z" fill="#F8D000" stroke="black" stroke-width="0.0549452" stroke-miterlimit="22.9256"/>
<rect x="3" y="31" width="48" height="22" fill="#2E50A6"/>
<path d="M-5 30.5714C-3.09524 29.8095 -1.19048 29.8095 0.714286 30.5714C2.61905 31.3333 4.52381 31.3333 6.42857 30.5714C8.33333 29.8095 10.2381 29.8095 12.1429 30.5714C14.0476 31.3333 15.9524 31.3333 17.8571 30.5714C19.7619 29.8095 21.7619 29.8095 23.8571 30.5714C25.9524 31.3333 28.0476 31.3333 30.1429 30.5714C32.2381 29.8095 34.2381 29.8095 36.1429 30.5714C38.0476 31.3333 39.9524 31.3333 41.8571 30.5714C43.7619 29.8095 45.6667 29.8095 47.5714 30.5714C49.4762 31.3333 51.381 31.3333 53.2857 30.5714C55.1905 29.8095 57.0952 29.8095 59 30.5714" stroke="white" stroke-width="2.28571"/>
<path d="M-5 35.5714C-3.09524 34.8095 -1.19048 34.8095 0.714286 35.5714C2.61905 36.3333 4.52381 36.3333 6.42857 35.5714C8.33333 34.8095 10.2381 34.8095 12.1429 35.5714C14.0476 36.3333 15.9524 36.3333 17.8571 35.5714C19.7619 34.8095 21.7619 34.8095 23.8571 35.5714C25.9524 36.3333 28.0476 36.3333 30.1429 35.5714C32.2381 34.8095 34.2381 34.8095 36.1429 35.5714C38.0476 36.3333 39.9524 36.3333 41.8571 35.5714C43.7619 34.8095 45.6667 34.8095 47.5714 35.5714C49.4762 36.3333 51.381 36.3333 53.2857 35.5714C55.1905 34.8095 57.0952 34.8095 59 35.5714" stroke="white" stroke-width="2.28571"/>
<path d="M-5 40.5714C-3.09524 39.8095 -1.19048 39.8095 0.714286 40.5714C2.61905 41.3333 4.52381 41.3333 6.42857 40.5714C8.33333 39.8095 10.2381 39.8095 12.1429 40.5714C14.0476 41.3333 15.9524 41.3333 17.8571 40.5714C19.7619 39.8095 21.7619 39.8095 23.8571 40.5714C25.9524 41.3333 28.0476 41.3333 30.1429 40.5714C32.2381 39.8095 34.2381 39.8095 36.1429 40.5714C38.0476 41.3333 39.9524 41.3333 41.8571 40.5714C43.7619 39.8095 45.6667 39.8095 47.5714 40.5714C49.4762 41.3333 51.381 41.3333 53.2857 40.5714C55.1905 39.8095 57.0952 39.8095 59 40.5714" stroke="white" stroke-width="2.28571"/>
</g>
</svg>
