<svg width="54" height="48" viewBox="0 0 54 48" fill="none" xmlns="http://www.w3.org/2000/svg">
<mask id="mask0_1_33385" style="mask-type:alpha" maskUnits="userSpaceOnUse" x="3" y="6" width="48" height="36">
<path d="M3.56934 15.1356C4.16681 10.4125 8.0415 7.00193 12.7861 6.60887C16.6412 6.28949 21.6196 6 27 6C32.3804 6 37.3588 6.28949 41.2139 6.60887C45.9585 7.00193 49.8332 10.4125 50.4307 15.1356C50.752 17.6759 51 20.704 51 24C51 27.296 50.752 30.3241 50.4307 32.8644C49.8332 37.5875 45.9585 40.9981 41.2139 41.3911C37.3588 41.7105 32.3804 42 27 42C21.6196 42 16.6412 41.7105 12.7861 41.3911C8.0415 40.9981 4.16681 37.5875 3.56934 32.8644C3.248 30.3241 3 27.296 3 24C3 20.704 3.248 17.6759 3.56934 15.1356Z" fill="#00D0BF"/>
</mask>
<g mask="url(#mask0_1_33385)">
<rect x="1" y="5" width="52" height="22" fill="#EE5757"/>
<path d="M27.1126 11.194C24.8336 10.2516 23.4385 10.0784 21.8797 10.0629C19.6222 10.0784 18.5448 11.0483 16.3923 11.1379C17.2452 12.0564 20.3364 12.281 21.6396 11.0746C23.577 11.2765 24.0166 11.7996 24.5362 12.4506C23.7275 12.3228 22.7958 12.0899 22.023 12.9451C21.3708 13.0765 21.0686 12.9451 19.953 12.9451C19.4322 12.9451 19.2519 13.2007 19.259 13.6618C19.5959 13.196 21.9239 13.4707 22.4948 13.6618C22.9332 13.8087 23.399 14.4167 23.9545 14.5158C25.4105 14.775 27.4996 14.0142 29.4263 13.4958L33.5926 12.9451H30.7342L34.3092 12.2284C32.6454 12.2284 31.5488 12.2284 30.4225 12.2284C30.34 12.1341 30.143 12.0122 29.9853 11.9083C30.9851 11.2645 31.869 10.0939 32.0947 9.52896C33.8972 9.51105 35.0606 9.34382 36.4593 9.01654C27.2404 7.99647 29.3391 9.09657 27.1126 11.194Z" fill="#F8D000" stroke="black" stroke-width="0.0549452" stroke-miterlimit="22.9256"/>
<path d="M22.8496 12.6931C22.9487 12.6931 23.0287 12.7731 23.0287 12.8723C23.0287 12.9714 22.9487 13.0514 22.8496 13.0514C22.7516 13.0514 22.6704 12.9714 22.6704 12.8723C22.6704 12.7731 22.7516 12.6931 22.8496 12.6931Z" fill="black"/>
<path d="M22.8496 12.6931C22.9487 12.6931 23.0287 12.7731 23.0287 12.8723C23.0287 12.9714 22.9487 13.0514 22.8496 13.0514C22.7516 13.0514 22.6704 12.9714 22.6704 12.8723C22.6704 12.7731 22.7516 12.6931 22.8496 12.6931Z" stroke="black" stroke-width="0.0179169" stroke-miterlimit="22.9256"/>
<path d="M25.2469 12.502C25.2469 12.502 24.498 12.9451 24.0011 12.9451" stroke="black" stroke-width="0.0549452" stroke-miterlimit="22.9256"/>
<path d="M29.4263 13.4958C29.4263 13.4958 30.1107 12.9451 30.7342 12.9451" stroke="black" stroke-width="0.0549452" stroke-miterlimit="22.9256"/>
<path d="M18.5209 10.8668C18.5209 10.8668 19.0775 10.5753 19.3403 10.4977" stroke="black" stroke-width="0.0549452" stroke-miterlimit="22.9256"/>
<path d="M20.8274 10.4511C20.8274 10.4511 21.7101 10.0701 22.6931 10.0892" stroke="black" stroke-width="0.0549452" stroke-miterlimit="22.9256"/>
<path d="M23.2139 10.5443C23.2139 10.5443 24.3713 10.3496 25.4403 10.5873" stroke="black" stroke-width="0.0549452" stroke-miterlimit="22.9256"/>
<path d="M24.5446 10.8238C24.5446 10.8238 25.5049 10.6625 26.4258 10.9229" stroke="black" stroke-width="0.0549452" stroke-miterlimit="22.9256"/>
<path d="M25.5323 11.1164C25.5323 11.1164 26.5106 11.1295 26.9968 11.3183" stroke="black" stroke-width="0.0549452" stroke-miterlimit="22.9256"/>
<path d="M16.3923 11.1379C16.3923 11.1379 17.7648 11.513 18.8804 10.9766" stroke="black" stroke-width="0.0549452" stroke-miterlimit="22.9256"/>
<path d="M16.5668 11.3003C16.5668 11.3003 18.3489 11.7399 19.1635 10.9241" stroke="black" stroke-width="0.0549452" stroke-miterlimit="22.9256"/>
<path d="M17.1639 11.6085C17.1639 11.6085 18.5065 12.0409 19.5624 10.9253" stroke="black" stroke-width="0.0549452" stroke-miterlimit="22.9256"/>
<path d="M18.411 11.8797C18.411 11.8797 19.4956 11.5691 19.9065 10.9301" stroke="black" stroke-width="0.0549452" stroke-miterlimit="22.9256"/>
<path d="M19.259 11.8976C19.259 11.8976 19.9865 11.3935 20.248 10.9444" stroke="black" stroke-width="0.0549452" stroke-miterlimit="22.9256"/>
<path d="M28.6307 11.329C28.6307 11.329 28.915 11.6862 29.9853 11.9083" stroke="black" stroke-width="0.0549452" stroke-miterlimit="22.9256"/>
<path d="M28.8195 11.1606C28.8195 11.1606 29.2793 11.6205 30.2373 11.7327" stroke="black" stroke-width="0.0549452" stroke-miterlimit="22.9256"/>
<path d="M29.0513 10.9444C29.0513 10.9444 29.5183 11.3457 30.5348 11.4951" stroke="black" stroke-width="0.0549452" stroke-miterlimit="22.9256"/>
<path d="M29.2817 10.7139C29.2817 10.7139 29.996 11.1905 30.8095 11.2454" stroke="black" stroke-width="0.0549452" stroke-miterlimit="22.9256"/>
<path d="M29.5636 10.4129C29.5636 10.4129 30.0641 10.8799 31.0567 10.9958" stroke="black" stroke-width="0.0549452" stroke-miterlimit="22.9256"/>
<path d="M29.7739 10.1728C29.7739 10.1728 30.3604 10.6768 31.2825 10.7461" stroke="black" stroke-width="0.0549452" stroke-miterlimit="22.9256"/>
<path d="M29.9805 9.92194C29.9805 9.92194 30.34 10.3376 31.5261 10.4463" stroke="black" stroke-width="0.0549452" stroke-miterlimit="22.9256"/>
<path d="M30.1908 9.6508C30.1908 9.6508 30.5909 10.0904 31.7173 10.1859" stroke="black" stroke-width="0.0549452" stroke-miterlimit="22.9256"/>
<path d="M30.3544 9.42744C30.3544 9.42744 31.0591 9.95897 31.8749 9.94822" stroke="black" stroke-width="0.0549452" stroke-miterlimit="22.9256"/>
<path d="M30.4941 9.22438C30.4941 9.22438 31.4258 9.78339 31.9812 9.76547" stroke="black" stroke-width="0.0549452" stroke-miterlimit="22.9256"/>
<path d="M30.6637 8.96638C30.6637 8.96638 31.4043 9.42744 32.0947 9.52897" stroke="black" stroke-width="0.0549452" stroke-miterlimit="22.9256"/>
<path d="M27.4817 11.5572C27.4817 11.5572 27.7803 11.7829 28.0598 11.7734" stroke="black" stroke-width="0.0549452" stroke-miterlimit="22.9256"/>
<path d="M27.6537 11.3899C27.6537 11.3899 27.9129 11.6109 28.2688 11.6097" stroke="black" stroke-width="0.0549452" stroke-miterlimit="22.9256"/>
<path d="M27.8628 11.1845C27.8628 11.1845 28.1566 11.4592 28.509 11.4091" stroke="black" stroke-width="0.0549452" stroke-miterlimit="22.9256"/>
<path d="M28.061 10.9862C28.061 10.9862 28.4122 11.2251 28.7264 11.2179" stroke="black" stroke-width="0.0549452" stroke-miterlimit="22.9256"/>
<path d="M28.2808 10.7605C28.2808 10.7605 28.5412 10.9862 28.9532 11.0077" stroke="black" stroke-width="0.0549452" stroke-miterlimit="22.9256"/>
<path d="M28.4767 10.512C28.4767 10.512 28.7825 10.7832 29.1719 10.7927" stroke="black" stroke-width="0.0549452" stroke-miterlimit="22.9256"/>
<path d="M28.6833 10.3328C28.6833 10.3328 28.9796 10.5228 29.3988 10.5586" stroke="black" stroke-width="0.0549452" stroke-miterlimit="22.9256"/>
<path d="M28.8708 10.1238C28.8708 10.1238 29.271 10.2648 29.6377 10.2994" stroke="black" stroke-width="0.0549452" stroke-miterlimit="22.9256"/>
<path d="M29.087 9.86819C29.087 9.86819 29.363 10.0617 29.8527 10.0498" stroke="black" stroke-width="0.0549452" stroke-miterlimit="22.9256"/>
<path d="M29.2817 9.61258C29.2817 9.61258 29.609 9.82997 30.0295 9.83475" stroke="black" stroke-width="0.0549452" stroke-miterlimit="22.9256"/>
<path d="M29.425 9.3701C29.425 9.3701 29.8646 9.61616 30.2433 9.56122" stroke="black" stroke-width="0.0549452" stroke-miterlimit="22.9256"/>
<path d="M29.5852 9.07985C29.5852 9.07985 29.8635 9.38444 30.3819 9.37369" stroke="black" stroke-width="0.0549452" stroke-miterlimit="22.9256"/>
<path d="M29.6974 8.94846C29.6974 8.94846 30.1967 9.22915 30.5347 9.15749" stroke="black" stroke-width="0.0549452" stroke-miterlimit="22.9256"/>
<path d="M29.9088 8.7896C29.9088 8.7896 30.2875 9.02013 30.6339 9.01057" stroke="black" stroke-width="0.0549452" stroke-miterlimit="22.9256"/>
<path d="M30.2935 8.67373C30.2935 8.67373 30.9683 9.01774 31.8809 8.64507" stroke="black" stroke-width="0.0549452" stroke-miterlimit="22.9256"/>
<path d="M30.868 8.91859C30.868 8.91859 32.2321 9.23154 32.8234 8.68448" stroke="black" stroke-width="0.0549452" stroke-miterlimit="22.9256"/>
<path d="M31.9382 8.99982C31.9382 8.99982 32.8759 9.09776 33.9246 8.7657" stroke="black" stroke-width="0.0549452" stroke-miterlimit="22.9256"/>
<path d="M32.5618 9.00579C32.5618 9.00579 33.9856 9.29246 36.4593 9.01654" stroke="black" stroke-width="0.0549452" stroke-miterlimit="22.9256"/>
<path d="M19.646 11.8653C19.646 11.8653 20.2826 11.4461 20.5466 10.9635" stroke="black" stroke-width="0.0549452" stroke-miterlimit="22.9256"/>
<path d="M20.1227 11.7877C20.1227 11.7877 20.6351 11.2908 20.7844 10.9826" stroke="black" stroke-width="0.0549452" stroke-miterlimit="22.9256"/>
<path d="M20.5957 11.6599C20.5957 11.6599 21.0173 11.2812 21.1105 11.0161" stroke="black" stroke-width="0.0549452" stroke-miterlimit="22.9256"/>
<path d="M18.5364 10.9934C18.5364 10.9934 19.4513 10.7939 21.6396 11.0746" stroke="black" stroke-width="0.0549452" stroke-miterlimit="22.9256"/>
<path d="M19.3821 10.6279C19.3821 10.6279 20.1489 10.2564 20.8322 10.1429" stroke="black" stroke-width="0.0549452" stroke-miterlimit="22.9256"/>
<path d="M20.1442 10.4738C20.1442 10.4738 20.7044 10.2098 21.5309 10.0784" stroke="black" stroke-width="0.0549452" stroke-miterlimit="22.9256"/>
<path d="M21.4175 10.4236C21.4175 10.4236 22.1927 10.0928 23.1411 10.1238" stroke="black" stroke-width="0.0549452" stroke-miterlimit="22.9256"/>
<path d="M22.3981 10.4296C22.3981 10.4296 23.4611 10.1919 24.4406 10.3257" stroke="black" stroke-width="0.0549452" stroke-miterlimit="22.9256"/>
<path d="M25.2445 10.9492C25.2445 10.9492 26.0555 10.9121 26.9884 11.1439" stroke="black" stroke-width="0.0549452" stroke-miterlimit="22.9256"/>
<path d="M23.8577 10.6231C23.8577 10.6231 25.0199 10.561 25.8166 10.7079" stroke="black" stroke-width="0.0549452" stroke-miterlimit="22.9256"/>
<path d="M31.0448 8.95204C31.0448 8.95204 31.4461 9.29963 32.5642 9.5206" stroke="black" stroke-width="0.0549452" stroke-miterlimit="22.9256"/>
<path d="M31.6754 9.00818C31.6754 9.00818 32.3037 9.36532 33.2951 9.48955" stroke="black" stroke-width="0.0549452" stroke-miterlimit="22.9256"/>
<path d="M32.3348 9.01295C32.3348 9.01295 33.2163 9.39638 34.148 9.42027" stroke="black" stroke-width="0.0549452" stroke-miterlimit="22.9256"/>
<path d="M33.3107 9.09657C33.3107 9.09657 34.2089 9.31277 35.3221 9.25424" stroke="black" stroke-width="0.0549452" stroke-miterlimit="22.9256"/>
<path d="M21.9358 10.4105C21.9358 10.4105 22.545 10.1596 23.6248 10.1799" stroke="black" stroke-width="0.0549452" stroke-miterlimit="22.9256"/>
<path d="M25.9528 11.323C25.9528 11.323 26.3183 11.2788 26.7722 11.495" stroke="black" stroke-width="0.0549452" stroke-miterlimit="22.9256"/>
<path d="M24.5361 12.4506C24.7882 12.49 25.0283 12.5199 25.2468 12.502C26.1021 12.0349 26.6862 11.5966 27.1126 11.194" stroke="black" stroke-width="0.0549452" stroke-miterlimit="22.9256"/>
<path d="M20.3318 25.7017C19.5033 25.5948 18.7137 25.3103 18.015 24.867C17.3162 24.4236 16.7241 23.8315 16.2776 23.1296C16.9943 23.5437 17.7957 23.7958 18.6291 23.8691C19.4624 23.9425 20.3088 23.8355 21.1126 23.5552" fill="#F8D000"/>
<path d="M20.3318 25.7017C19.5033 25.5948 18.7137 25.3103 18.015 24.867C17.3162 24.4236 16.7241 23.8315 16.2776 23.1296C16.9943 23.5437 17.7957 23.7958 18.6291 23.8691C19.4624 23.9425 20.3088 23.8355 21.1126 23.5552" stroke="black" stroke-width="0.0549452" stroke-miterlimit="22.9256"/>
<path d="M20.3158 27.124L15.387 25.5745L20.5668 24.8203" fill="#F8D000"/>
<path d="M20.3158 27.124L15.387 25.5745L20.5668 24.8203" stroke="black" stroke-width="0.0549452" stroke-miterlimit="22.9256"/>
<path d="M21.4636 23.5597C20.7508 23.1461 20.141 22.5757 19.6742 21.886C19.2075 21.1963 18.8943 20.403 18.7554 19.5582C19.2496 20.2265 19.8825 20.77 20.6125 21.153C21.3425 21.536 22.153 21.7499 22.9906 21.7805" fill="#F8D000"/>
<path d="M21.4636 23.5597C20.7508 23.1461 20.141 22.5757 19.6742 21.886C19.2075 21.1963 18.8943 20.403 18.7554 19.5582C19.2496 20.2265 19.8825 20.77 20.6125 21.153C21.3425 21.536 22.153 21.7499 22.9906 21.7805" stroke="black" stroke-width="0.0549452" stroke-miterlimit="22.9256"/>
<path d="M32.3529 29.0228C33.184 29.2202 34.0509 29.2071 34.8966 28.9842C35.7423 28.7612 36.5476 28.3336 37.2595 27.7294C36.4087 27.9133 35.5438 27.8862 34.7218 27.6499C33.8998 27.4135 33.1393 26.9733 32.4903 26.3581" fill="#F8D000"/>
<path d="M32.3529 29.0228C33.184 29.2202 34.0509 29.2071 34.8966 28.9842C35.7423 28.7612 36.5476 28.3336 37.2595 27.7294C36.4087 27.9133 35.5438 27.8862 34.7218 27.6499C33.8998 27.4135 33.1393 26.9733 32.4903 26.3581" stroke="black" stroke-width="0.0549452" stroke-miterlimit="22.9256"/>
<path d="M20.872 24.8434L16.9296 21.4229L21.9463 22.6867" fill="#F8D000"/>
<path d="M20.872 24.8434L16.9296 21.4229L21.9463 22.6867" stroke="black" stroke-width="0.0549452" stroke-miterlimit="22.9256"/>
<path d="M31.7954 30.1915L37.0367 30.3851L32.4596 27.7785" fill="#F8D000"/>
<path d="M31.7954 30.1915L37.0367 30.3851L32.4596 27.7785" stroke="black" stroke-width="0.0549452" stroke-miterlimit="22.9256"/>
<path d="M23.0588 21.5215C22.6887 20.7269 22.4965 19.8718 22.4947 19.0126C22.4929 18.1534 22.6817 17.3095 23.0486 16.5364C23.086 17.396 23.3134 18.2441 23.7157 19.0251C24.118 19.806 24.6861 20.5021 25.3827 21.0674" fill="#F8D000"/>
<path d="M23.0588 21.5215C22.6887 20.7269 22.4965 19.8718 22.4947 19.0126C22.4929 18.1534 22.6817 17.3095 23.0486 16.5364C23.086 17.396 23.3134 18.2441 23.7157 19.0251C24.118 19.806 24.6861 20.5021 25.3827 21.0674" stroke="black" stroke-width="0.0549452" stroke-miterlimit="22.9256"/>
<path d="M30.1748 31.1353C30.7274 31.7713 31.4106 32.2933 32.1794 32.6671C32.9482 33.0409 33.7853 33.258 34.6355 33.304C33.8817 32.902 33.2198 32.3552 32.6933 31.6998C32.1668 31.0443 31.7877 30.2951 31.5809 29.5012" fill="#F8D000"/>
<path d="M30.1748 31.1353C30.7274 31.7713 31.4106 32.2933 32.1794 32.6671C32.9482 33.0409 33.7853 33.258 34.6355 33.304C33.8817 32.902 33.2198 32.3552 32.6933 31.6998C32.1668 31.0443 31.7877 30.2951 31.5809 29.5012" stroke="black" stroke-width="0.0549452" stroke-miterlimit="22.9256"/>
<path d="M21.921 22.3047L20.5354 17.2222L23.996 21.3619" fill="#F8D000"/>
<path d="M21.921 22.3047L20.5354 17.2222L23.996 21.3619" stroke="black" stroke-width="0.0549452" stroke-miterlimit="22.9256"/>
<path d="M29.0306 31.9857L33.1556 35.4098L30.8423 30.7048" fill="#F8D000"/>
<path d="M29.0306 31.9857L33.1556 35.4098L30.8423 30.7048" stroke="black" stroke-width="0.0549452" stroke-miterlimit="22.9256"/>
<path d="M26.0565 20.5581C26.0815 19.7203 26.2761 18.8948 26.6274 18.1359C26.9787 17.377 27.4789 16.702 28.095 16.1552C27.7725 16.9276 27.6094 17.76 27.6162 18.5977C27.6231 19.4354 27.7998 20.2595 28.1348 21.0155" fill="#F8D000"/>
<path d="M26.0565 20.5581C26.0815 19.7203 26.2761 18.8948 26.6274 18.1359C26.9787 17.377 27.4789 16.702 28.095 16.1552C27.7725 16.9276 27.6094 17.76 27.6162 18.5977C27.6231 19.4354 27.7998 20.2595 28.1348 21.0155" stroke="black" stroke-width="0.0549452" stroke-miterlimit="22.9256"/>
<path d="M28.8441 21.3052C29.2215 20.5458 29.7503 19.8745 30.3957 19.3354C31.0411 18.7963 31.7884 18.4017 32.5885 18.1774C31.9641 18.742 31.4614 19.4339 31.1134 20.2075C30.7654 20.9811 30.58 21.819 30.5695 22.6659" fill="#F8D000"/>
<path d="M28.8441 21.3052C29.2215 20.5458 29.7503 19.8745 30.3957 19.3354C31.0411 18.7963 31.7884 18.4017 32.5885 18.1774C31.9641 18.742 31.4614 19.4339 31.1134 20.2075C30.7654 20.9811 30.58 21.819 30.5695 22.6659" stroke="black" stroke-width="0.0549452" stroke-miterlimit="22.9256"/>
<path d="M31.1274 22.9792C31.8081 22.4611 32.5864 22.0941 33.4112 21.9024C34.2359 21.7107 35.0883 21.6985 35.9124 21.8668C35.0952 22.0916 34.3313 22.4895 33.6708 23.0344C33.0104 23.5793 32.4684 24.2588 32.0805 25.0281" fill="#F8D000"/>
<path d="M31.1274 22.9792C31.8081 22.4611 32.5864 22.0941 33.4112 21.9024C34.2359 21.7107 35.0883 21.6985 35.9124 21.8668C35.0952 22.0916 34.3313 22.4895 33.6708 23.0344C33.0104 23.5793 32.4684 24.2588 32.0805 25.0281" stroke="black" stroke-width="0.0549452" stroke-miterlimit="22.9256"/>
<path d="M27.7708 32.435C27.9744 33.2518 28.355 34.0151 28.8876 34.6746C29.4203 35.3341 30.0928 35.8748 30.8611 36.2612C30.3562 35.5814 30.0074 34.8037 29.8375 33.9792C29.6677 33.1547 29.6807 32.3021 29.8757 31.4775" fill="#F8D000"/>
<path d="M27.7708 32.435C27.9744 33.2518 28.355 34.0151 28.8876 34.6746C29.4203 35.3341 30.0928 35.8748 30.8611 36.2612C30.3562 35.5814 30.0074 34.8037 29.8375 33.9792C29.6677 33.1547 29.6807 32.3021 29.8757 31.4775" stroke="black" stroke-width="0.0549452" stroke-miterlimit="22.9256"/>
<path d="M24.4415 20.7733L25.6178 15.5724L26.8866 20.7228" fill="#F8D000"/>
<path d="M24.4415 20.7733L25.6178 15.5724L26.8866 20.7228" stroke="black" stroke-width="0.0549452" stroke-miterlimit="22.9256"/>
<path d="M27.5008 20.8544L30.5435 16.6217L29.4621 21.7575" fill="#F8D000"/>
<path d="M27.5008 20.8544L30.5435 16.6217L29.4621 21.7575" stroke="black" stroke-width="0.0549452" stroke-miterlimit="22.9256"/>
<path d="M30.1286 21.9792L34.7716 19.5522L31.51 23.7265" fill="#F8D000"/>
<path d="M30.1286 21.9792L34.7716 19.5522L31.51 23.7265" stroke="black" stroke-width="0.0549452" stroke-miterlimit="22.9256"/>
<path d="M32.321 25.6463C33.1495 25.572 33.9823 25.6693 34.7646 25.932C35.5469 26.1946 36.261 26.6166 36.8599 27.1702C36.0671 26.9381 35.2305 26.8731 34.4052 26.9794C33.5799 27.0858 32.7846 27.361 32.0716 27.787" fill="#F8D000"/>
<path d="M32.321 25.6463C33.1495 25.572 33.9823 25.6693 34.7646 25.932C35.5469 26.1946 36.261 26.6166 36.8599 27.1702C36.0671 26.9381 35.2305 26.8731 34.4052 26.9794C33.5799 27.0858 32.7846 27.361 32.0716 27.787" stroke="black" stroke-width="0.0549452" stroke-miterlimit="22.9256"/>
<path d="M31.9203 24.1614L37.1995 24.6137L32.1821 26.476" fill="#F8D000"/>
<path d="M31.9203 24.1614L37.1995 24.6137L32.1821 26.476" stroke="black" stroke-width="0.0549452" stroke-miterlimit="22.9256"/>
<path d="M26.3639 32.6664L28.5667 37.4736L28.6944 32.204" fill="#F8D000"/>
<path d="M26.3639 32.6664L28.5667 37.4736L28.6944 32.204" stroke="black" stroke-width="0.0549452" stroke-miterlimit="22.9256"/>
<path d="M26.4259 32.6537C29.7902 32.6537 32.5176 29.9264 32.5176 26.562C32.5176 23.1976 29.7902 20.4702 26.4259 20.4702C23.0615 20.4702 20.3341 23.1976 20.3341 26.562C20.3341 29.9264 23.0615 32.6537 26.4259 32.6537Z" fill="#F8D000" stroke="black" stroke-width="0.0549452" stroke-miterlimit="22.9256"/>
<rect x="3" y="28" width="48" height="22" fill="#2E50A6"/>
<path d="M-5 27.5714C-3.09524 26.8095 -1.19048 26.8095 0.714286 27.5714C2.61905 28.3333 4.52381 28.3333 6.42857 27.5714C8.33333 26.8095 10.2381 26.8095 12.1429 27.5714C14.0476 28.3333 15.9524 28.3333 17.8571 27.5714C19.7619 26.8095 21.7619 26.8095 23.8571 27.5714C25.9524 28.3333 28.0476 28.3333 30.1429 27.5714C32.2381 26.8095 34.2381 26.8095 36.1429 27.5714C38.0476 28.3333 39.9524 28.3333 41.8571 27.5714C43.7619 26.8095 45.6667 26.8095 47.5714 27.5714C49.4762 28.3333 51.381 28.3333 53.2857 27.5714C55.1905 26.8095 57.0952 26.8095 59 27.5714" stroke="white" stroke-width="2.28571"/>
<path d="M-5 32.5714C-3.09524 31.8095 -1.19048 31.8095 0.714286 32.5714C2.61905 33.3333 4.52381 33.3333 6.42857 32.5714C8.33333 31.8095 10.2381 31.8095 12.1429 32.5714C14.0476 33.3333 15.9524 33.3333 17.8571 32.5714C19.7619 31.8095 21.7619 31.8095 23.8571 32.5714C25.9524 33.3333 28.0476 33.3333 30.1429 32.5714C32.2381 31.8095 34.2381 31.8095 36.1429 32.5714C38.0476 33.3333 39.9524 33.3333 41.8571 32.5714C43.7619 31.8095 45.6667 31.8095 47.5714 32.5714C49.4762 33.3333 51.381 33.3333 53.2857 32.5714C55.1905 31.8095 57.0952 31.8095 59 32.5714" stroke="white" stroke-width="2.28571"/>
<path d="M-5 37.5714C-3.09524 36.8095 -1.19048 36.8095 0.714286 37.5714C2.61905 38.3333 4.52381 38.3333 6.42857 37.5714C8.33333 36.8095 10.2381 36.8095 12.1429 37.5714C14.0476 38.3333 15.9524 38.3333 17.8571 37.5714C19.7619 36.8095 21.7619 36.8095 23.8571 37.5714C25.9524 38.3333 28.0476 38.3333 30.1429 37.5714C32.2381 36.8095 34.2381 36.8095 36.1429 37.5714C38.0476 38.3333 39.9524 38.3333 41.8571 37.5714C43.7619 36.8095 45.6667 36.8095 47.5714 37.5714C49.4762 38.3333 51.381 38.3333 53.2857 37.5714C55.1905 36.8095 57.0952 36.8095 59 37.5714" stroke="white" stroke-width="2.28571"/>
</g>
</svg>
