<svg width="54" height="48" viewBox="0 0 54 48" fill="none" xmlns="http://www.w3.org/2000/svg">
<mask id="mask0_1_32450" style="mask-type:alpha" maskUnits="userSpaceOnUse" x="3" y="6" width="48" height="36">
<path d="M3.56934 15.1356C4.16681 10.4125 8.0415 7.00193 12.7861 6.60887C16.6412 6.28949 21.6196 6 27 6C32.3804 6 37.3588 6.28949 41.2139 6.60887C45.9585 7.00193 49.8332 10.4125 50.4307 15.1356C50.752 17.6759 51 20.704 51 24C51 27.296 50.752 30.3241 50.4307 32.8644C49.8332 37.5875 45.9585 40.9981 41.2139 41.3911C37.3588 41.7105 32.3804 42 27 42C21.6196 42 16.6412 41.7105 12.7861 41.3911C8.0415 40.9981 4.16681 37.5875 3.56934 32.8644C3.248 30.3241 3 27.296 3 24C3 20.704 3.248 17.6759 3.56934 15.1356Z" fill="#00D0BF"/>
</mask>
<g mask="url(#mask0_1_32450)">
<rect x="3" width="48" height="49" fill="#EE5757"/>
<path d="M3 -1H48L11.5 48H3V-1Z" fill="#59C785"/>
<path d="M38 4L-1 44H16L55 4H38Z" fill="#2C2929" stroke="#FCD95E" stroke-width="2"/>
<path d="M30.8284 14.8284L33.4178 16.1478L35.4728 14.0928L35.0182 16.9632L37.6076 18.2826L34.7372 18.7372L34.2826 21.6076L32.9632 19.0182L30.0928 19.4728L32.1478 17.4178L30.8284 14.8284Z" fill="#F5F5F5"/>
<path d="M17.8284 27.8284L20.4178 29.1478L22.4728 27.0928L22.0182 29.9632L24.6076 31.2826L21.7372 31.7372L21.2826 34.6076L19.9632 32.0182L17.0928 32.4728L19.1478 30.4178L17.8284 27.8284Z" fill="#F5F5F5"/>
</g>
</svg>
