<svg width="54" height="48" viewBox="0 0 54 48" fill="none" xmlns="http://www.w3.org/2000/svg">
<mask id="mask0_1_35823" style="mask-type:alpha" maskUnits="userSpaceOnUse" x="3" y="6" width="48" height="36">
<path d="M3.56934 15.1356C4.16681 10.4125 8.0415 7.00193 12.7861 6.60887C16.6412 6.28949 21.6196 6 27 6C32.3804 6 37.3588 6.28949 41.2139 6.60887C45.9585 7.00193 49.8332 10.4125 50.4307 15.1356C50.752 17.6759 51 20.704 51 24C51 27.296 50.752 30.3241 50.4307 32.8644C49.8332 37.5875 45.9585 40.9981 41.2139 41.3911C37.3588 41.7105 32.3804 42 27 42C21.6196 42 16.6412 41.7105 12.7861 41.3911C8.0415 40.9981 4.16681 37.5875 3.56934 32.8644C3.248 30.3241 3 27.296 3 24C3 20.704 3.248 17.6759 3.56934 15.1356Z" fill="#00D0BF"/>
</mask>
<g mask="url(#mask0_1_35823)">
<rect x="3" width="48" height="49" fill="#F5F5F5"/>
<path d="M9.23804 18.4788L14.1971 11.3459L9.23804 18.4788ZM10.9172 19.6652L15.8763 12.5323L10.9172 19.6652ZM12.5965 20.8516L17.5555 13.7187L12.5965 20.8516Z" fill="black"/>
<path d="M12.5965 20.8516L17.5555 13.7187M9.23804 18.4788L14.1971 11.3459L9.23804 18.4788ZM10.9172 19.6652L15.8763 12.5323L10.9172 19.6652Z" stroke="black" stroke-width="1.42805"/>
<path d="M35.3782 35.8405L40.3372 28.7076L35.3782 35.8405ZM37.0574 37.0269L42.0165 29.894L37.0574 37.0269ZM38.7366 38.2133L43.6957 31.0804L38.7366 38.2133Z" fill="black"/>
<path d="M38.7366 38.2133L43.6957 31.0804M35.3782 35.8405L40.3372 28.7076L35.3782 35.8405ZM37.0574 37.0269L42.0165 29.894L37.0574 37.0269Z" stroke="black" stroke-width="1.42805"/>
<path d="M14.0156 38.236L9.46435 31.1136L14.0156 38.236ZM15.9108 37.0475L11.3595 29.9251L15.9108 37.0475ZM17.806 35.859L13.2547 28.7365L17.806 35.859Z" fill="black"/>
<path d="M17.806 35.859L13.2547 28.7365M14.0156 38.236L9.46435 31.1136L14.0156 38.236ZM15.9108 37.0475L11.3595 29.9251L15.9108 37.0475Z" stroke="black" stroke-width="1.42805"/>
<path d="M39.9294 20.831L35.3782 13.7086L39.9294 20.831ZM41.8246 19.6425L37.2734 12.52L41.8246 19.6425ZM43.7198 18.4539L39.1686 11.3315L43.7198 18.4539Z" fill="black"/>
<path d="M43.7198 18.4539L39.1686 11.3315M39.9294 20.831L35.3782 13.7086L39.9294 20.831ZM41.8246 19.6425L37.2734 12.52L41.8246 19.6425Z" stroke="black" stroke-width="1.42805"/>
<path d="M36.567 31.5455L42.5081 35.5062L36.567 31.5455Z" fill="black"/>
<path d="M36.567 31.5455L42.5081 35.5062" stroke="white" stroke-width="0.714027"/>
<path d="M12.5056 34.12L14.2879 32.9318L12.5056 34.12ZM36.5669 18.0791L38.6463 16.6929L36.5669 18.0791ZM40.4286 15.5046L42.2109 14.3164L40.4286 15.5046Z" fill="black"/>
<path d="M40.4286 15.5046L42.2109 14.3164M12.5056 34.12L14.2879 32.9318L12.5056 34.12ZM36.5669 18.0791L38.6463 16.6929L36.5669 18.0791Z" stroke="white" stroke-width="0.714027"/>
<path d="M34.3838 28.0298C36.4153 24.1459 34.7564 19.1932 30.6785 16.9676C26.6006 14.742 21.6479 16.0863 19.6163 19.9702C17.5848 23.8541 19.2437 28.8068 23.3216 31.0324C27.3995 33.258 32.3522 31.9137 34.3838 28.0298Z" fill="#EE5757"/>
<path d="M19.5821 19.9624C19.0989 20.8955 19.0208 22.0027 19.3652 23.0405C19.7096 24.0783 20.4481 24.9617 21.4184 25.4964C22.3886 26.0311 23.5111 26.1732 24.5389 25.8915C25.5667 25.6098 26.4156 24.9273 26.8989 23.9943C27.3821 23.0612 28.231 22.3788 29.2588 22.0971C30.2866 21.8154 31.4091 21.9575 32.3794 22.4922C33.3496 23.0268 34.0882 23.9102 34.4325 24.948C34.7769 25.9859 34.6988 27.0931 34.2156 28.0261C33.2491 29.8922 31.5513 31.2571 29.4957 31.8205C27.4401 32.3839 25.1951 32.0997 23.2546 31.0304C21.3141 29.9611 19.837 28.1942 19.1483 26.1186C18.4596 24.043 18.6156 21.8285 19.5821 19.9624Z" fill="#2E50A6"/>
</g>
</svg>
