<svg width="54" height="54" viewBox="0 0 54 54" fill="none" xmlns="http://www.w3.org/2000/svg">
<mask id="mask0_1_35823" style="mask-type:alpha" maskUnits="userSpaceOnUse" x="3" y="9" width="48" height="36">
<path d="M3.56934 18.1356C4.16681 13.4125 8.0415 10.0019 12.7861 9.60887C16.6412 9.28949 21.6196 9 27 9C32.3804 9 37.3588 9.28949 41.2139 9.60887C45.9585 10.0019 49.8332 13.4125 50.4307 18.1356C50.752 20.6759 51 23.704 51 27C51 30.296 50.752 33.3241 50.4307 35.8644C49.8332 40.5875 45.9585 43.9981 41.2139 44.3911C37.3588 44.7105 32.3804 45 27 45C21.6196 45 16.6412 44.7105 12.7861 44.3911C8.04151 43.9981 4.16681 40.5875 3.56934 35.8644C3.248 33.3241 3 30.296 3 27C3 23.704 3.248 20.6759 3.56934 18.1356Z" fill="#00D0BF"/>
</mask>
<g mask="url(#mask0_1_35823)">
<rect x="3" y="3" width="48" height="49" fill="#F5F5F5"/>
<path d="M9.23804 21.5667L14.2707 14.3459L9.23804 21.5667ZM10.8805 22.7091L15.9131 15.4883L10.8805 22.7091ZM12.5229 23.8516L17.5555 16.6307Z" fill="black"/>
<path d="M12.5229 23.8516L17.5555 16.6307M9.23804 21.5667L14.2707 14.3459L9.23804 21.5667ZM10.8805 22.7091L15.9131 15.4883L10.8805 22.7091Z" stroke="black" stroke-width="1.42805"/>
<path d="M35.3782 38.9284L40.4108 31.7076L35.3782 38.9284ZM37.0206 40.0709L42.0532 32.85L37.0206 40.0709ZM38.663 41.2133L43.6957 33.9925Z" fill="black"/>
<path d="M38.663 41.2133L43.6957 33.9925M35.3782 38.9284L40.4108 31.7076L35.3782 38.9284ZM37.0206 40.0709L42.0532 32.85L37.0206 40.0709Z" stroke="black" stroke-width="1.42805"/>
<path d="M13.9364 41.236L9.46435 34.2073L13.9364 41.236ZM15.8712 40.0006L11.3992 32.9719L15.8712 40.0006ZM17.806 38.7652L13.334 31.7365Z" fill="black"/>
<path d="M17.806 38.7652L13.334 31.7365M13.9364 41.236L9.46435 34.2073L13.9364 41.236ZM15.8712 40.0006L11.3992 32.9719L15.8712 40.0006Z" stroke="black" stroke-width="1.42805"/>
<path d="M39.8502 23.831L35.3782 16.8023L39.8502 23.831ZM41.785 22.5956L37.313 15.5669L41.785 22.5956ZM43.7198 21.3602L39.2478 14.3315Z" fill="black"/>
<path d="M43.7198 21.3602L39.2478 14.3315M39.8502 23.831L35.3782 16.8023L39.8502 23.831ZM41.785 22.5956L37.313 15.5669L41.785 22.5956Z" stroke="black" stroke-width="1.42805"/>
<path d="M36.5669 34.5455L42.508 38.5062Z" fill="black"/>
<path d="M36.5669 34.5455L42.508 38.5062" stroke="white" stroke-width="0.714027"/>
<path d="M12.5056 37.12L14.2879 35.9318L12.5056 37.12ZM36.5669 21.0791L38.6463 19.6929L36.5669 21.0791ZM40.4286 18.5046L42.2109 17.3164Z" fill="black"/>
<path d="M40.4286 18.5046L42.2109 17.3164M12.5056 37.12L14.2879 35.9318L12.5056 37.12ZM36.5669 21.0791L38.6463 19.6929L36.5669 21.0791Z" stroke="white" stroke-width="0.714027"/>
<path d="M34.5115 31.2028C36.4725 27.4145 34.6991 22.4618 30.5505 20.1406C26.402 17.8195 21.4493 19.0089 19.4883 22.7972C17.5274 26.5856 19.3008 31.5383 23.4493 33.8594C27.5979 36.1806 32.5506 34.9911 34.5115 31.2028Z" fill="#EE5757"/>
<path d="M19.4429 22.861C18.9781 23.7671 18.9233 24.8566 19.2904 25.8896C19.6576 26.9227 20.4168 27.8147 21.4009 28.3696C22.3849 28.9244 23.5134 29.0966 24.5379 28.8482C25.5624 28.5998 26.3992 27.9511 26.864 27.045C27.3288 26.1389 28.1655 25.4903 29.19 25.2419C30.2146 24.9934 31.343 25.1656 32.3271 25.7204C33.3112 26.2753 34.0703 27.1673 34.4375 28.2004C34.8047 29.2335 34.7498 30.3229 34.285 31.229C33.3554 33.0413 31.682 34.3385 29.6329 34.8353C27.5838 35.3322 25.327 34.9879 23.3588 33.8782C21.3906 32.7685 19.8723 30.9844 19.138 28.9182C18.4036 26.8521 18.5133 24.6733 19.4429 22.861V22.861Z" fill="#2E50A6"/>
</g>
</svg>
