<svg width="54" height="48" viewBox="0 0 54 48" fill="none" xmlns="http://www.w3.org/2000/svg">
<mask id="mask0_1_32425" style="mask-type:alpha" maskUnits="userSpaceOnUse" x="3" y="6" width="48" height="36">
<path d="M3.56934 15.1356C4.16681 10.4125 8.0415 7.00193 12.7861 6.60887C16.6412 6.28949 21.6196 6 27 6C32.3804 6 37.3588 6.28949 41.2139 6.60887C45.9585 7.00193 49.8332 10.4125 50.4307 15.1356C50.752 17.6759 51 20.704 51 24C51 27.296 50.752 30.3241 50.4307 32.8644C49.8332 37.5875 45.9585 40.9981 41.2139 41.3911C37.3588 41.7105 32.3804 42 27 42C21.6196 42 16.6412 41.7105 12.7861 41.3911C8.0415 40.9981 4.16681 37.5875 3.56934 32.8644C3.248 30.3241 3 27.296 3 24C3 20.704 3.248 17.6759 3.56934 15.1356Z" fill="#00D0BF"/>
</mask>
<g mask="url(#mask0_1_32425)">
<rect x="3" width="48" height="49" fill="#F5F5F5"/>
<path d="M26.628 16.6583C26.319 17.309 25.7371 17.7637 25.181 18.1941C25.0895 18.2739 24.862 18.4287 25.027 18.5465C25.1684 18.3885 25.5564 18.5977 25.3309 18.7677C25.1289 18.9567 24.8508 19.026 24.6265 19.182C24.4278 19.29 24.2263 19.4026 24.0688 19.5678C24.0581 19.826 24.389 19.6831 24.5233 19.7906C24.6982 19.9776 24.4492 20.2928 24.2196 20.2207C23.9262 20.2297 23.7235 20.4879 23.6124 20.7343C23.3829 21.0893 22.9479 21.1944 22.6015 21.3964C22.4033 21.5119 22.2111 21.6398 22.0266 21.7745C21.7888 21.9372 21.9957 22.2592 22.2488 22.1801C22.522 22.1529 22.7677 21.9382 23.0506 22.0001C23.307 22.0902 23.379 22.4254 23.2916 22.6595C23.2269 22.8468 23.07 22.9788 22.9443 23.1252C22.7402 23.3319 22.4733 23.4661 22.1919 23.5302C21.92 23.6215 21.6756 23.7881 21.4972 24.013C21.2902 24.2214 21.0839 24.4332 20.8459 24.607C20.7708 24.7988 20.9829 24.9622 21.1597 24.9571C21.5325 24.9336 21.7907 24.6287 22.1081 24.4719C22.3715 24.3535 22.6815 24.6374 22.6171 24.9118C22.5967 25.1788 22.3467 25.3142 22.1245 25.3964C21.4712 25.7248 20.904 26.201 20.4004 26.7264C20.2962 26.9389 20.0098 26.8764 19.8556 27.0245C19.7552 27.2119 20.0073 27.3108 20.1577 27.2915C20.804 27.2138 21.4071 26.9406 21.9785 26.64C22.1909 26.5384 22.3904 26.4048 22.6113 26.3238C22.8188 26.2725 23.1082 26.3627 23.1452 26.5988C23.145 26.8482 22.898 26.9862 22.7024 27.0836C22.0993 27.4005 21.4374 27.5757 20.7927 27.7852C20.5514 27.7177 20.3695 28.1471 20.6343 28.2243C20.9142 28.3203 21.2119 28.2433 21.4982 28.2307C22.3837 28.0951 23.1582 27.6159 23.9858 27.3062C24.33 27.194 24.7361 27.3505 24.9059 27.673C25.0766 27.9604 25.0609 28.3383 24.881 28.6176C24.5966 29.2261 24.1641 29.7854 23.5837 30.1353C23.2193 30.3157 22.794 30.3847 22.4817 30.6609C22.1928 30.7561 22.6265 31.1464 22.6891 30.8366C22.8627 30.5999 23.1688 30.5291 23.4464 30.5193C23.8637 30.4739 24.3069 30.397 24.6311 30.1081C24.9218 29.8824 25.2082 29.571 25.6029 29.5661C25.8211 29.592 26.0368 29.7673 26.2584 29.6603C26.4522 29.5715 26.7563 29.6235 26.8069 29.8619C26.8995 30.1407 27.1868 30.2676 27.4147 30.4167C27.4972 30.5326 27.7713 30.8313 27.8345 30.5679C27.7835 30.3801 27.8564 30.0926 28.1028 30.1554C28.3181 30.165 28.5232 30.2444 28.738 30.2574C29.0241 30.3166 29.2628 30.5125 29.4252 30.749C29.537 30.9034 29.7818 31.1685 29.9637 30.9639C30.0765 30.7522 29.8611 30.5757 29.6857 30.5001C29.4299 30.3416 29.2113 30.1306 28.9876 29.9307C28.658 29.6229 28.3734 29.2313 28.321 28.7715C28.2501 28.313 28.2874 27.8453 28.3473 27.3881C28.4226 27.0937 28.7991 26.9329 29.0623 27.0894C29.4327 27.2584 29.8005 27.5002 30.2251 27.474C30.8387 27.4872 31.4693 27.3697 32.0689 27.5475C32.6525 27.7313 33.0697 28.2238 33.6381 28.4369C33.7653 28.5142 33.9281 28.4406 33.9748 28.3047C34.0311 28.1825 33.9913 28.0263 33.8737 27.9567C33.2149 27.2917 32.3146 26.9687 31.5523 26.4491C31.3124 26.3882 31.2687 26.002 31.4905 25.8906C31.7822 25.6786 32.1949 25.7773 32.4536 25.9959C32.6721 26.1238 32.9183 26.2197 33.1747 26.2199C33.4373 26.1377 33.31 25.7578 33.0749 25.7292C32.6488 25.4886 32.3437 25.0939 31.9746 24.781C31.762 24.6011 31.5294 24.4189 31.2438 24.384C31.0877 24.3556 30.9281 24.3494 30.7699 24.36C30.6215 24.1988 30.8192 23.9519 31.011 23.9721C31.2079 23.9854 31.4035 24 31.6001 23.9726C31.8198 23.9565 32.0393 23.9338 32.2597 23.9323C32.4377 24.0534 32.7933 23.8441 32.6327 23.6352C32.4572 23.4814 32.2035 23.4948 31.9939 23.4159C31.6258 23.2956 31.2509 23.197 30.8712 23.1208C30.6057 23.105 30.6385 22.7556 30.8719 22.717C31.0246 22.66 31.1573 22.7774 31.3039 22.7955C31.5543 22.8494 31.8128 22.8487 32.063 22.9032C32.2752 22.7985 32.1112 22.4885 31.9193 22.4704C31.4664 22.3085 31.075 22.0162 30.6923 21.7319C30.2699 21.4142 29.8867 21.0468 29.4591 20.7364C29.3039 20.6403 29.0496 20.6126 29.0088 20.3995C28.9944 20.2035 29.2251 20.1142 29.3887 20.16C29.6208 20.2285 29.837 20.3479 30.0735 20.4065C30.2591 20.438 30.4504 20.4929 30.6293 20.4696C30.8563 20.3269 30.5318 20.2357 30.4144 20.1862C30.1118 20.0229 29.8428 19.8054 29.5703 19.598C29.3401 19.4015 29.7656 19.3147 29.912 19.3904C30.1567 19.4927 30.1846 19.1361 30.0016 19.0464C29.7861 18.9548 29.6008 18.8027 29.4054 18.6699C29.0522 18.4186 28.6523 18.2196 28.2183 18.1644C27.7316 18.1155 27.2774 17.8356 27.0192 17.4194C26.8591 17.1823 26.7416 16.9199 26.628 16.6583ZM25.0298 19.3886C25.2806 19.396 25.2421 19.8481 24.9951 19.8179C24.7553 19.8025 24.77 19.34 25.0298 19.3886ZM27.3957 19.632C27.6398 19.5884 27.6915 20.0337 27.4477 20.0547C27.1935 20.1001 27.0994 19.6038 27.3957 19.632ZM26.7028 19.6901C26.9502 19.7387 26.9062 20.1698 26.6565 20.1736C26.4738 20.2143 26.2768 20.339 26.092 20.2455C25.9417 20.0865 26.159 19.8515 26.3267 19.7998C26.4554 19.7738 26.5739 19.7154 26.7028 19.6901ZM28.2976 19.692C28.5361 19.7789 28.452 20.1999 28.2004 20.1945C27.9626 20.2264 27.8518 19.8296 28.0736 19.7355C28.1454 19.7101 28.2206 19.6886 28.2976 19.692ZM25.6073 20.1694C25.7826 20.3363 25.679 20.6584 25.4628 20.7353C25.307 20.822 25.0946 21.0271 24.9249 20.8583C24.8327 20.6522 25.0639 20.4971 25.1999 20.3827C25.3212 20.2883 25.4552 20.2027 25.6073 20.1694ZM27.6097 21.1001C27.8608 21.2187 27.7333 21.6711 27.4578 21.643C27.2315 21.5856 27.2611 21.1975 27.489 21.1666C27.5321 21.15 27.5716 21.1258 27.6097 21.1001ZM26.8132 21.1451C27.048 21.255 26.8687 21.6468 26.6322 21.5903C26.387 21.5615 26.3915 21.1305 26.6619 21.1694C26.7129 21.1669 26.7655 21.1655 26.8132 21.1451ZM28.5303 21.3698C28.7876 21.29 29.0974 21.555 29.0139 21.8239C28.8993 22.0323 28.6157 22.0587 28.4125 21.9808C28.1792 21.9693 28.0223 21.6186 28.2301 21.4701C28.3161 21.4052 28.4245 21.3784 28.5303 21.3698ZM24.7292 21.4372C24.942 21.3214 25.1679 21.6694 24.9869 21.8228C24.8671 21.999 24.5593 22.071 24.4236 21.8751C24.3108 21.6837 24.4932 21.3621 24.7292 21.4372H24.7292ZM23.7475 21.602C23.9888 21.635 24.1461 21.8542 24.2353 22.063C24.2571 22.3174 23.8817 22.4569 23.718 22.2719C23.5339 22.1564 23.3727 21.9188 23.4692 21.6983C23.5287 21.6108 23.6472 21.5746 23.7475 21.602H23.7475ZM29.6207 22.5214C29.8827 22.4524 30.0728 22.871 29.8479 23.0225C29.6422 23.2092 29.2423 22.9618 29.3496 22.6953C29.4029 22.5964 29.5095 22.5308 29.6207 22.5214H29.6207ZM26.2866 22.9989C26.5063 23.0269 26.4351 23.4076 26.232 23.3948C26.0141 23.3544 26.064 22.9775 26.2866 22.9989ZM25.1725 23.2012C25.3516 23.0744 25.5827 23.3838 25.4337 23.5279C25.2551 23.6538 25.0234 23.3493 25.1725 23.2012ZM26.944 23.2386C27.1516 23.3648 27.2749 23.6001 27.3007 23.8374C27.2012 24.0592 26.8168 24.0058 26.7735 23.7696C26.6976 23.5828 26.7676 23.3425 26.9439 23.2387L26.944 23.2386ZM27.5622 23.6057C27.8298 23.5385 27.7337 24.0978 27.5103 23.9038C27.436 23.8156 27.4758 23.6705 27.5621 23.6057H27.5622ZM23.6796 23.9951C23.8568 23.9433 24.1151 23.9978 24.164 24.2012C24.1846 24.3923 23.9744 24.4917 23.8204 24.5391C23.5736 24.6153 23.3322 24.7403 23.0668 24.7235C22.8678 24.6098 22.7964 24.3771 22.7255 24.1741C22.9175 23.9941 23.2002 24.0469 23.4382 24.0019C23.5186 23.9977 23.5991 23.9958 23.6796 23.9951ZM29.7022 24.8715C29.9282 24.7607 30.1713 25.1195 29.9821 25.2871C29.7454 25.5595 29.2897 25.6101 29.0066 25.3813C28.9727 25.1402 29.2134 24.9651 29.4274 24.9305C29.5174 24.905 29.6069 24.8671 29.7022 24.8715ZM30.9726 25.1468C31.2295 25.1026 31.4318 25.469 31.2483 25.6586C31.0748 25.9203 30.6608 25.9889 30.4242 25.7744C30.3319 25.5574 30.5191 25.3314 30.7183 25.2617C30.8039 25.2253 30.885 25.1786 30.9726 25.1468ZM24.5848 25.5363C24.8227 25.5128 25.0405 25.7488 25.0093 25.9833C25.1815 26.1527 24.8766 26.4684 24.7051 26.2929C24.554 26.1098 24.5547 25.8613 24.4962 25.6421C24.4935 25.5934 24.5296 25.5303 24.5848 25.5363ZM26.4106 25.673C26.6565 25.5667 26.9746 25.8609 26.8408 26.1099C26.7451 26.3127 26.3723 26.2447 26.3847 26.0098C26.3841 25.8974 26.375 25.7821 26.4106 25.673V25.673ZM25.5224 25.8322C25.7689 25.7757 25.9951 26.0953 25.8581 26.3085C25.6123 26.3304 25.4847 26.0387 25.5224 25.8322Z" fill="#59C785"/>
<rect x="3" y="6" width="48" height="8" fill="#EE5757"/>
<rect x="3" y="34" width="48" height="8" fill="#EE5757"/>
</g>
</svg>
