<svg width="54" height="54" viewBox="0 0 54 54" fill="none" xmlns="http://www.w3.org/2000/svg">
<mask id="mask0_1_32425" style="mask-type:alpha" maskUnits="userSpaceOnUse" x="3" y="9" width="48" height="36">
<path d="M3.56934 18.1356C4.16681 13.4125 8.0415 10.0019 12.7861 9.60887C16.6412 9.28949 21.6196 9 27 9C32.3804 9 37.3588 9.28949 41.2139 9.60887C45.9585 10.0019 49.8332 13.4125 50.4307 18.1356C50.752 20.6759 51 23.704 51 27C51 30.296 50.752 33.3241 50.4307 35.8644C49.8332 40.5875 45.9585 43.9981 41.2139 44.3911C37.3588 44.7105 32.3804 45 27 45C21.6196 45 16.6412 44.7105 12.7861 44.3911C8.04151 43.9981 4.16681 40.5875 3.56934 35.8644C3.248 33.3241 3 30.296 3 27C3 23.704 3.248 20.6759 3.56934 18.1356Z" fill="#00D0BF"/>
</mask>
<g mask="url(#mask0_1_32425)">
<rect x="3" y="3" width="48" height="49" fill="#F5F5F5"/>
<path d="M26.628 19.6583C26.319 20.309 25.7371 20.7637 25.181 21.1941C25.0895 21.274 24.862 21.4287 25.027 21.5465C25.1684 21.3885 25.5564 21.5977 25.3309 21.7677C25.1289 21.9567 24.8508 22.026 24.6265 22.182C24.4278 22.29 24.2263 22.4026 24.0688 22.5678C24.0581 22.826 24.389 22.6831 24.5233 22.7906C24.6982 22.9776 24.4492 23.2928 24.2196 23.2207C23.9262 23.2297 23.7235 23.4879 23.6124 23.7343C23.3829 24.0893 22.9479 24.1944 22.6015 24.3964C22.4033 24.5119 22.2111 24.6398 22.0266 24.7745C21.7888 24.9372 21.9957 25.2592 22.2488 25.1801C22.522 25.1529 22.7677 24.9382 23.0506 25.0001C23.307 25.0902 23.379 25.4254 23.2916 25.6595C23.2269 25.8468 23.07 25.9788 22.9443 26.1252C22.7402 26.3319 22.4733 26.4661 22.1919 26.5302C21.92 26.6215 21.6756 26.7881 21.4972 27.013C21.2902 27.2214 21.0839 27.4332 20.8459 27.607C20.7708 27.7988 20.9829 27.9622 21.1597 27.9571C21.5325 27.9336 21.7907 27.6287 22.1081 27.4719C22.3715 27.3535 22.6815 27.6374 22.6171 27.9118C22.5967 28.1788 22.3467 28.3142 22.1245 28.3964C21.4712 28.7248 20.904 29.201 20.4004 29.7264C20.2962 29.9389 20.0098 29.8764 19.8556 30.0245C19.7552 30.2119 20.0073 30.3108 20.1577 30.2915C20.804 30.2138 21.4071 29.9406 21.9785 29.64C22.1909 29.5384 22.3904 29.4048 22.6113 29.3238C22.8188 29.2725 23.1082 29.3627 23.1452 29.5988C23.145 29.8482 22.898 29.9862 22.7024 30.0836C22.0993 30.4005 21.4374 30.5757 20.7927 30.7852C20.5514 30.7177 20.3695 31.1471 20.6343 31.2243C20.9142 31.3203 21.2119 31.2433 21.4982 31.2307C22.3837 31.0951 23.1582 30.6159 23.9858 30.3062C24.33 30.194 24.7361 30.3505 24.9059 30.673C25.0766 30.9604 25.0609 31.3383 24.881 31.6176C24.5966 32.2261 24.1641 32.7854 23.5837 33.1353C23.2193 33.3157 22.794 33.3847 22.4817 33.6609C22.1928 33.7561 22.6265 34.1464 22.6891 33.8366C22.8627 33.5999 23.1688 33.5291 23.4464 33.5193C23.8637 33.4739 24.3069 33.397 24.6311 33.1081C24.9218 32.8824 25.2082 32.571 25.6029 32.5661C25.8211 32.592 26.0368 32.7673 26.2584 32.6603C26.4522 32.5715 26.7563 32.6235 26.8069 32.8619C26.8995 33.1407 27.1868 33.2676 27.4147 33.4167C27.4972 33.5326 27.7713 33.8313 27.8345 33.5679C27.7835 33.3801 27.8564 33.0926 28.1028 33.1554C28.3181 33.165 28.5232 33.2444 28.738 33.2574C29.0241 33.3166 29.2628 33.5125 29.4252 33.749C29.537 33.9034 29.7818 34.1685 29.9637 33.9639C30.0765 33.7522 29.8611 33.5757 29.6857 33.5001C29.4299 33.3416 29.2113 33.1306 28.9876 32.9307C28.658 32.6229 28.3734 32.2313 28.321 31.7715C28.2501 31.313 28.2874 30.8453 28.3473 30.3881C28.4226 30.0937 28.7991 29.9329 29.0623 30.0894C29.4327 30.2584 29.8005 30.5002 30.2251 30.474C30.8387 30.4872 31.4693 30.3697 32.0689 30.5475C32.6525 30.7313 33.0697 31.2238 33.6381 31.4369C33.7653 31.5142 33.9281 31.4406 33.9748 31.3047C34.0311 31.1825 33.9913 31.0263 33.8737 30.9567C33.2149 30.2917 32.3146 29.9687 31.5523 29.4491C31.3124 29.3882 31.2687 29.002 31.4905 28.8906C31.7822 28.6786 32.1949 28.7773 32.4536 28.9959C32.6721 29.1238 32.9183 29.2197 33.1747 29.2199C33.4373 29.1377 33.31 28.7578 33.0749 28.7292C32.6488 28.4886 32.3437 28.0939 31.9746 27.781C31.762 27.6011 31.5294 27.4189 31.2438 27.384C31.0877 27.3556 30.9281 27.3494 30.7699 27.36C30.6215 27.1988 30.8192 26.9519 31.011 26.9721C31.2079 26.9854 31.4035 27 31.6001 26.9726C31.8198 26.9565 32.0393 26.9338 32.2597 26.9323C32.4377 27.0534 32.7933 26.8441 32.6327 26.6352C32.4572 26.4814 32.2035 26.4948 31.9939 26.4159C31.6258 26.2956 31.2509 26.197 30.8712 26.1208C30.6057 26.105 30.6385 25.7556 30.8719 25.717C31.0246 25.66 31.1573 25.7774 31.3039 25.7955C31.5543 25.8494 31.8128 25.8487 32.063 25.9032C32.2752 25.7985 32.1112 25.4885 31.9193 25.4704C31.4664 25.3085 31.075 25.0162 30.6923 24.7319C30.2699 24.4142 29.8867 24.0468 29.4591 23.7364C29.3039 23.6403 29.0496 23.6126 29.0088 23.3995C28.9944 23.2035 29.2251 23.1142 29.3887 23.16C29.6208 23.2285 29.837 23.3479 30.0735 23.4065C30.2591 23.438 30.4504 23.4929 30.6293 23.4696C30.8563 23.3269 30.5318 23.2357 30.4144 23.1862C30.1118 23.0229 29.8428 22.8054 29.5703 22.598C29.3401 22.4015 29.7656 22.3147 29.912 22.3904C30.1567 22.4927 30.1846 22.1361 30.0016 22.0464C29.7861 21.9548 29.6008 21.8027 29.4054 21.6699C29.0522 21.4186 28.6523 21.2196 28.2183 21.1644C27.7316 21.1155 27.2774 20.8356 27.0192 20.4194C26.8591 20.1823 26.7416 19.9199 26.628 19.6583V19.6583ZM25.0298 22.3886C25.2806 22.396 25.2421 22.8481 24.9951 22.8179C24.7553 22.8025 24.77 22.34 25.0298 22.3886ZM27.3957 22.632C27.6398 22.5884 27.6915 23.0337 27.4477 23.0547C27.1935 23.1001 27.0994 22.6038 27.3957 22.632ZM26.7028 22.6901C26.9502 22.7387 26.9062 23.1698 26.6565 23.1736C26.4738 23.2143 26.2768 23.339 26.092 23.2455C25.9417 23.0865 26.159 22.8515 26.3267 22.7998C26.4554 22.7738 26.5739 22.7154 26.7028 22.6901ZM28.2976 22.692C28.5361 22.7789 28.452 23.1999 28.2004 23.1945C27.9626 23.2264 27.8518 22.8296 28.0736 22.7355C28.1454 22.7101 28.2206 22.6886 28.2976 22.692V22.692ZM25.6073 23.1694C25.7826 23.3363 25.679 23.6584 25.4628 23.7353C25.307 23.822 25.0946 24.0271 24.9249 23.8583C24.8327 23.6522 25.0639 23.4971 25.1999 23.3827C25.3212 23.2883 25.4552 23.2027 25.6073 23.1694V23.1694ZM27.6097 24.1001C27.8608 24.2187 27.7333 24.6711 27.4578 24.643C27.2315 24.5856 27.2611 24.1975 27.489 24.1666C27.5321 24.15 27.5716 24.1258 27.6097 24.1001ZM26.8132 24.1451C27.048 24.255 26.8687 24.6468 26.6322 24.5903C26.387 24.5615 26.3915 24.1305 26.6619 24.1694C26.7129 24.1669 26.7655 24.1655 26.8132 24.1451ZM28.5303 24.3698C28.7876 24.29 29.0974 24.555 29.0139 24.8239C28.8993 25.0323 28.6157 25.0587 28.4125 24.9808C28.1792 24.9693 28.0223 24.6186 28.2301 24.4701C28.3161 24.4052 28.4245 24.3784 28.5303 24.3698V24.3698ZM24.7292 24.4372C24.942 24.3214 25.1679 24.6694 24.9869 24.8228C24.8671 24.999 24.5593 25.071 24.4236 24.8751C24.3108 24.6837 24.4932 24.3621 24.7292 24.4372H24.7292ZM23.7475 24.602C23.9888 24.635 24.1461 24.8542 24.2353 25.063C24.2571 25.3174 23.8817 25.4569 23.718 25.2719C23.5339 25.1564 23.3727 24.9188 23.4692 24.6983C23.5287 24.6108 23.6472 24.5746 23.7475 24.602H23.7475ZM29.6207 25.5214C29.8827 25.4524 30.0728 25.871 29.8479 26.0225C29.6422 26.2092 29.2423 25.9618 29.3496 25.6953C29.4029 25.5964 29.5095 25.5308 29.6207 25.5214H29.6207ZM26.2866 25.9989C26.5063 26.0269 26.4351 26.4076 26.232 26.3948C26.0141 26.3544 26.064 25.9775 26.2866 25.9989ZM25.1725 26.2012C25.3516 26.0744 25.5827 26.3838 25.4337 26.5279C25.2551 26.6538 25.0234 26.3493 25.1725 26.2012ZM26.944 26.2386C27.1516 26.3648 27.2749 26.6001 27.3007 26.8374C27.2012 27.0593 26.8168 27.0058 26.7735 26.7696C26.6976 26.5828 26.7676 26.3425 26.9439 26.2387L26.944 26.2386ZM27.5622 26.6057C27.8298 26.5385 27.7337 27.0978 27.5103 26.9038C27.436 26.8156 27.4758 26.6705 27.5621 26.6057H27.5622ZM23.6796 26.9951C23.8568 26.9433 24.1151 26.9978 24.164 27.2012C24.1846 27.3923 23.9744 27.4917 23.8204 27.5391C23.5736 27.6153 23.3322 27.7403 23.0668 27.7235C22.8678 27.6098 22.7964 27.3771 22.7255 27.1741C22.9175 26.9941 23.2002 27.0469 23.4382 27.0019C23.5186 26.9977 23.5991 26.9958 23.6796 26.9951V26.9951ZM29.7022 27.8715C29.9282 27.7607 30.1713 28.1195 29.9821 28.2871C29.7454 28.5595 29.2897 28.6101 29.0066 28.3813C28.9727 28.1402 29.2134 27.9651 29.4274 27.9305C29.5174 27.905 29.6069 27.8671 29.7022 27.8715V27.8715ZM30.9726 28.1468C31.2295 28.1026 31.4318 28.469 31.2483 28.6586C31.0748 28.9203 30.6608 28.9889 30.4242 28.7744C30.3319 28.5574 30.5191 28.3314 30.7183 28.2617C30.8039 28.2253 30.885 28.1786 30.9726 28.1468V28.1468ZM24.5848 28.5363C24.8227 28.5128 25.0405 28.7488 25.0093 28.9833C25.1815 29.1527 24.8766 29.4684 24.7051 29.2929C24.554 29.1098 24.5547 28.8613 24.4962 28.6421C24.4935 28.5934 24.5296 28.5303 24.5848 28.5363V28.5363ZM26.4106 28.673C26.6565 28.5667 26.9746 28.8609 26.8408 29.1099C26.7451 29.3127 26.3723 29.2447 26.3847 29.0098C26.3841 28.8974 26.375 28.7821 26.4106 28.673V28.673ZM25.5224 28.8322C25.7689 28.7757 25.9951 29.0953 25.8581 29.3085C25.6123 29.3304 25.4847 29.0387 25.5224 28.8322Z" fill="#59C785"/>
<rect x="3" y="9" width="48" height="8" fill="#EE5757"/>
<rect x="3" y="37" width="48" height="8" fill="#EE5757"/>
</g>
</svg>
