<svg width="54" height="48" viewBox="0 0 54 48" fill="none" xmlns="http://www.w3.org/2000/svg">
<mask id="mask0_1_41448" style="mask-type:alpha" maskUnits="userSpaceOnUse" x="3" y="6" width="48" height="36">
<path d="M3.56934 15.1356C4.16681 10.4125 8.0415 7.00193 12.7861 6.60887C16.6412 6.28949 21.6196 6 27 6C32.3804 6 37.3588 6.28949 41.2139 6.60887C45.9585 7.00193 49.8332 10.4125 50.4307 15.1356C50.752 17.6759 51 20.704 51 24C51 27.296 50.752 30.3241 50.4307 32.8644C49.8332 37.5875 45.9585 40.9981 41.2139 41.3911C37.3588 41.7105 32.3804 42 27 42C21.6196 42 16.6412 41.7105 12.7861 41.3911C8.0415 40.9981 4.16681 37.5875 3.56934 32.8644C3.248 30.3241 3 27.296 3 24C3 20.704 3.248 17.6759 3.56934 15.1356Z" fill="#00D0BF"/>
</mask>
<g mask="url(#mask0_1_41448)">
<rect x="3" width="48" height="49" fill="#2C2929"/>
<path d="M31.5065 20.3552C30.7042 18.9655 29.4657 17.8794 27.9831 17.2653C26.5006 16.6512 24.8568 16.5434 23.3068 16.9588C21.7567 17.3741 20.3871 18.2893 19.4102 19.5624C18.4333 20.8355 17.9038 22.3953 17.9038 24.0001C17.9038 25.6048 18.4333 27.1646 19.4102 28.4377C20.3871 29.7108 21.7567 30.626 23.3068 31.0413C24.8568 31.4567 26.5006 31.3489 27.9831 30.7348C29.4657 30.1207 30.7042 29.0346 31.5065 27.6449C30.7514 28.5881 29.7219 29.2734 28.5604 29.6062C27.3989 29.939 26.1627 29.9028 25.0227 29.5027C23.8827 29.1025 22.895 28.3581 22.1964 27.3724C21.4977 26.3867 21.1224 25.2083 21.1224 24.0001C21.1224 22.7918 21.4977 21.6134 22.1964 20.6277C22.895 19.642 23.8827 18.8976 25.0227 18.4974C26.1627 18.0973 27.3989 18.0611 28.5604 18.3939C29.7219 18.7267 30.7514 19.412 31.5065 20.3552ZM37 24.0001L30.4393 21.8618L34.5215 27.4505V20.5496L30.4393 26.1384L37 24.0001Z" fill="#F5F5F5"/>
<rect x="3" y="6" width="48" height="8" fill="#EE5757"/>
<rect x="3" y="34" width="48" height="8" fill="#59C785"/>
</g>
</svg>
