<svg width="54" height="54" viewBox="0 0 54 54" fill="none" xmlns="http://www.w3.org/2000/svg">
<mask id="mask0_1_41448" style="mask-type:alpha" maskUnits="userSpaceOnUse" x="3" y="9" width="48" height="36">
<path d="M3.56934 18.1356C4.16681 13.4125 8.0415 10.0019 12.7861 9.60887C16.6412 9.28949 21.6196 9 27 9C32.3804 9 37.3588 9.28949 41.2139 9.60887C45.9585 10.0019 49.8332 13.4125 50.4307 18.1356C50.752 20.6759 51 23.704 51 27C51 30.296 50.752 33.3241 50.4307 35.8644C49.8332 40.5875 45.9585 43.9981 41.2139 44.3911C37.3588 44.7105 32.3804 45 27 45C21.6196 45 16.6412 44.7105 12.7861 44.3911C8.04151 43.9981 4.16681 40.5875 3.56934 35.8644C3.248 33.3241 3 30.296 3 27C3 23.704 3.248 20.6759 3.56934 18.1356Z" fill="#00D0BF"/>
</mask>
<g mask="url(#mask0_1_41448)">
<rect x="3" y="3" width="48" height="49" fill="#2C2929"/>
<path d="M31.5065 23.3552C30.7042 21.9655 29.4657 20.8794 27.9831 20.2653C26.5006 19.6512 24.8568 19.5434 23.3068 19.9588C21.7567 20.3741 20.3871 21.2893 19.4102 22.5624C18.4333 23.8355 17.9038 25.3953 17.9038 27.0001C17.9038 28.6048 18.4333 30.1646 19.4102 31.4377C20.3871 32.7108 21.7567 33.626 23.3068 34.0413C24.8568 34.4567 26.5006 34.3489 27.9831 33.7348C29.4657 33.1207 30.7042 32.0346 31.5065 30.6449C30.7514 31.5881 29.7219 32.2734 28.5604 32.6062C27.3989 32.939 26.1627 32.9028 25.0227 32.5027C23.8827 32.1025 22.895 31.3581 22.1964 30.3724C21.4977 29.3867 21.1224 28.2083 21.1224 27.0001C21.1224 25.7918 21.4977 24.6134 22.1964 23.6277C22.895 22.642 23.8827 21.8976 25.0227 21.4974C26.1627 21.0973 27.3989 21.0611 28.5604 21.3939C29.7219 21.7267 30.7514 22.412 31.5065 23.3552ZM37 27.0001L30.4393 24.8618L34.5215 30.4505V23.5496L30.4393 29.1384L37 27.0001Z" fill="#F5F5F5"/>
<rect x="3" y="9" width="48" height="8" fill="#EE5757"/>
<rect x="3" y="37" width="48" height="8" fill="#59C785"/>
</g>
</svg>
