<svg width="54" height="54" viewBox="0 0 54 54" fill="none" xmlns="http://www.w3.org/2000/svg">
<mask id="mask0_1_41457" style="mask-type:alpha" maskUnits="userSpaceOnUse" x="3" y="9" width="48" height="36">
<path d="M3.56934 18.1356C4.16681 13.4125 8.0415 10.0019 12.7861 9.60887C16.6412 9.28949 21.6196 9 27 9C32.3804 9 37.3588 9.28949 41.2139 9.60887C45.9585 10.0019 49.8332 13.4125 50.4307 18.1356C50.752 20.6759 51 23.704 51 27C51 30.296 50.752 33.3241 50.4307 35.8644C49.8332 40.5875 45.9585 43.9981 41.2139 44.3911C37.3588 44.7105 32.3804 45 27 45C21.6196 45 16.6412 44.7105 12.7861 44.3911C8.04151 43.9981 4.16681 40.5875 3.56934 35.8644C3.248 33.3241 3 30.296 3 27C3 23.704 3.248 20.6759 3.56934 18.1356Z" fill="#00D0BF"/>
</mask>
<g mask="url(#mask0_1_41457)">
<rect x="3" y="27" width="48" height="18" fill="#EE5757"/>
<rect x="3" y="9" width="48" height="18" fill="#2E50A6"/>
<path d="M15.6458 16.767L15.5191 21.0747H11.148C10.6103 20.0293 10.1661 19.1414 10.1661 17.939C10.1661 16.9327 10.9576 16.1335 12.0983 16.1335C13.3058 16.1335 14.6325 16.5404 15.6458 16.767Z" fill="#FFD83D"/>
<path d="M10.6887 16.965V19.4515Z" fill="#FFD83D"/>
<path d="M10.6887 16.965V19.4515" stroke="black" stroke-width="0.103385" stroke-linecap="round" stroke-linejoin="round"/>
<path d="M11.0398 16.7113V20.0219Z" fill="#FFD83D"/>
<path d="M11.0398 16.7113V20.0219" stroke="black" stroke-width="0.103385" stroke-linecap="round" stroke-linejoin="round"/>
<path d="M11.3909 16.5371V20.4812Z" fill="#FFD83D"/>
<path d="M11.3909 16.5371V20.4812" stroke="black" stroke-width="0.103385" stroke-linecap="round" stroke-linejoin="round"/>
<path d="M11.7419 16.4557V19.549Z" fill="#FFD83D"/>
<path d="M11.7419 16.4557V19.549" stroke="black" stroke-width="0.103385" stroke-linecap="round" stroke-linejoin="round"/>
<path d="M12.093 16.4403V19.5644Z" fill="#FFD83D"/>
<path d="M12.093 16.4403V19.5644" stroke="black" stroke-width="0.103385" stroke-linecap="round" stroke-linejoin="round"/>
<path d="M12.4441 16.3312V19.5627Z" fill="#FFD83D"/>
<path d="M12.4441 16.3312V19.5627" stroke="black" stroke-width="0.103385" stroke-linecap="round" stroke-linejoin="round"/>
<path d="M12.795 16.3312V19.5627Z" fill="#FFD83D"/>
<path d="M12.795 16.3312V19.5627" stroke="black" stroke-width="0.103385" stroke-linecap="round" stroke-linejoin="round"/>
<path d="M13.1461 16.3629V19.5943Z" fill="#FFD83D"/>
<path d="M13.1461 16.3629V19.5943" stroke="black" stroke-width="0.103385" stroke-linecap="round" stroke-linejoin="round"/>
<path d="M13.4972 16.3945V19.626Z" fill="#FFD83D"/>
<path d="M13.4972 16.3945V19.626" stroke="black" stroke-width="0.103385" stroke-linecap="round" stroke-linejoin="round"/>
<path d="M13.8483 16.6004V19.8319Z" fill="#FFD83D"/>
<path d="M13.8483 16.6004V19.8319" stroke="black" stroke-width="0.103385" stroke-linecap="round" stroke-linejoin="round"/>
<path d="M14.1993 16.6321V20.2753Z" fill="#FFD83D"/>
<path d="M14.1993 16.6321V20.2753" stroke="black" stroke-width="0.103385" stroke-linecap="round" stroke-linejoin="round"/>
<path d="M14.5504 16.6321V19.8636Z" fill="#FFD83D"/>
<path d="M14.5504 16.6321V19.8636" stroke="black" stroke-width="0.103385" stroke-linecap="round" stroke-linejoin="round"/>
<path d="M14.9015 16.6321V19.8636Z" fill="#FFD83D"/>
<path d="M14.9015 16.6321V19.8636" stroke="black" stroke-width="0.103385" stroke-linecap="round" stroke-linejoin="round"/>
<path d="M12.8901 16.4662C13.632 16.5885 15.2615 17.3509 15.0756 18.3824C14.8123 19.8443 13.9586 19.2576 12.8268 19.0476L11.9716 19.3327C11.6656 19.645 11.2149 19.9312 10.9105 19.5544H10.4037V21.534H16.01V16.7512L12.8901 16.4662Z" fill="black" stroke="black" stroke-width="0.103385" stroke-linecap="round" stroke-linejoin="round"/>
<path d="M15.4003 16.4661C15.5884 16.4661 15.7408 16.3137 15.7408 16.1256C15.7408 15.9376 15.5884 15.7851 15.4003 15.7851C15.2123 15.7851 15.0598 15.9376 15.0598 16.1256C15.0598 16.3137 15.2123 16.4661 15.4003 16.4661Z" fill="#FFD83D" stroke="black" stroke-width="0.137847" stroke-linecap="round" stroke-linejoin="round"/>
<path d="M14.6351 16.282C14.8231 16.282 14.9756 16.1295 14.9756 15.9415C14.9756 15.7534 14.8231 15.601 14.6351 15.601C14.447 15.601 14.2946 15.7534 14.2946 15.9415C14.2946 16.1295 14.447 16.282 14.6351 16.282Z" fill="#FFD83D" stroke="black" stroke-width="0.137847" stroke-linecap="round" stroke-linejoin="round"/>
<path d="M13.8588 16.087C14.0469 16.087 14.1993 15.9345 14.1993 15.7465C14.1993 15.5584 14.0469 15.406 13.8588 15.406C13.6708 15.406 13.5183 15.5584 13.5183 15.7465C13.5183 15.9345 13.6708 16.087 13.8588 16.087Z" fill="#FFD83D" stroke="black" stroke-width="0.137847" stroke-linecap="round" stroke-linejoin="round"/>
<path d="M13.0795 15.957C13.2676 15.957 13.42 15.8046 13.42 15.6165C13.42 15.4285 13.2676 15.276 13.0795 15.276C12.8915 15.276 12.739 15.4285 12.739 15.6165C12.739 15.8046 12.8915 15.957 13.0795 15.957Z" fill="#FFD83D" stroke="black" stroke-width="0.137847" stroke-linecap="round" stroke-linejoin="round"/>
<path d="M12.3002 15.8802C12.4883 15.8802 12.6407 15.7277 12.6407 15.5397C12.6407 15.3516 12.4883 15.1992 12.3002 15.1992C12.1122 15.1992 11.9597 15.3516 11.9597 15.5397C11.9597 15.7277 12.1122 15.8802 12.3002 15.8802Z" fill="#FFD83D" stroke="black" stroke-width="0.137847" stroke-linecap="round" stroke-linejoin="round"/>
<path d="M11.5361 15.9237C11.7241 15.9237 11.8766 15.7713 11.8766 15.5832C11.8766 15.3952 11.7241 15.2427 11.5361 15.2427C11.348 15.2427 11.1956 15.3952 11.1956 15.5832C11.1956 15.7713 11.348 15.9237 11.5361 15.9237Z" fill="#FFD83D" stroke="black" stroke-width="0.137847" stroke-linecap="round" stroke-linejoin="round"/>
<path d="M10.8075 16.1731C10.9956 16.1731 11.148 16.0207 11.148 15.8326C11.148 15.6446 10.9956 15.4921 10.8075 15.4921C10.6195 15.4921 10.467 15.6446 10.467 15.8326C10.467 16.0207 10.6195 16.1731 10.8075 16.1731Z" fill="#FFD83D" stroke="black" stroke-width="0.137847" stroke-linecap="round" stroke-linejoin="round"/>
<path d="M10.1939 16.6245C10.3819 16.6245 10.5344 16.4721 10.5344 16.284C10.5344 16.0959 10.3819 15.9435 10.1939 15.9435C10.0058 15.9435 9.85339 16.0959 9.85339 16.284C9.85339 16.4721 10.0058 16.6245 10.1939 16.6245Z" fill="#FFD83D" stroke="black" stroke-width="0.137847" stroke-linecap="round" stroke-linejoin="round"/>
<path d="M9.75835 17.254C9.9464 17.254 10.0988 17.1016 10.0988 16.9135C10.0988 16.7255 9.9464 16.573 9.75835 16.573C9.57029 16.573 9.41785 16.7255 9.41785 16.9135C9.41785 17.1016 9.57029 17.254 9.75835 17.254Z" fill="#FFD83D" stroke="black" stroke-width="0.137847" stroke-linecap="round" stroke-linejoin="round"/>
<path d="M9.54851 17.9944C9.73656 17.9944 9.88901 17.842 9.88901 17.6539C9.88901 17.4659 9.73656 17.3134 9.54851 17.3134C9.36045 17.3134 9.20801 17.4659 9.20801 17.6539C9.20801 17.842 9.36045 17.9944 9.54851 17.9944Z" fill="#FFD83D" stroke="black" stroke-width="0.137847" stroke-linecap="round" stroke-linejoin="round"/>
<path d="M9.55644 18.7625C9.74449 18.7625 9.89694 18.6101 9.89694 18.422C9.89694 18.234 9.74449 18.0815 9.55644 18.0815C9.36839 18.0815 9.21594 18.234 9.21594 18.422C9.21594 18.6101 9.36839 18.7625 9.55644 18.7625Z" fill="#FFD83D" stroke="black" stroke-width="0.137847" stroke-linecap="round" stroke-linejoin="round"/>
<path d="M9.70293 19.5148C9.89098 19.5148 10.0434 19.3623 10.0434 19.1743C10.0434 18.9862 9.89098 18.8338 9.70293 18.8338C9.51487 18.8338 9.36243 18.9862 9.36243 19.1743C9.36243 19.3623 9.51487 19.5148 9.70293 19.5148Z" fill="#FFD83D" stroke="black" stroke-width="0.137847" stroke-linecap="round" stroke-linejoin="round"/>
<path d="M15.5508 16.577L15.5191 17.0204C14.672 16.8906 13.4711 16.4186 12.3517 16.4186C11.3174 16.4186 10.5146 16.8323 10.5146 17.8756C10.5146 18.9039 10.95 19.8389 11.5282 20.7897L10.9264 21.0747C10.3886 20.0293 9.94446 19.1414 9.94446 17.939C9.94446 16.9327 10.7359 15.9435 12.0983 15.9435C13.3058 15.9435 14.5375 16.3504 15.5508 16.577Z" fill="#FFD83D" stroke="black" stroke-width="0.137847" stroke-linecap="round" stroke-linejoin="round"/>
<path d="M16.3977 16.767L16.5244 21.0747H20.8954C21.4332 20.0293 21.8773 19.1414 21.8773 17.939C21.8773 16.9327 21.0859 16.1335 19.9452 16.1335C18.7377 16.1335 17.411 16.5404 16.3977 16.767Z" fill="#FFD83D"/>
<path d="M21.3547 16.965V19.4515Z" fill="#FFD83D"/>
<path d="M21.3547 16.965V19.4515" stroke="black" stroke-width="0.103385" stroke-linecap="round" stroke-linejoin="round"/>
<path d="M21.0037 16.7113V20.0219Z" fill="#FFD83D"/>
<path d="M21.0037 16.7113V20.0219" stroke="black" stroke-width="0.103385" stroke-linecap="round" stroke-linejoin="round"/>
<path d="M20.6526 16.5371V20.4812Z" fill="#FFD83D"/>
<path d="M20.6526 16.5371V20.4812" stroke="black" stroke-width="0.103385" stroke-linecap="round" stroke-linejoin="round"/>
<path d="M20.3015 16.4557V19.549Z" fill="#FFD83D"/>
<path d="M20.3015 16.4557V19.549" stroke="black" stroke-width="0.103385" stroke-linecap="round" stroke-linejoin="round"/>
<path d="M19.9504 16.4403V19.5644Z" fill="#FFD83D"/>
<path d="M19.9504 16.4403V19.5644" stroke="black" stroke-width="0.103385" stroke-linecap="round" stroke-linejoin="round"/>
<path d="M19.5994 16.3312V19.5627Z" fill="#FFD83D"/>
<path d="M19.5994 16.3312V19.5627" stroke="black" stroke-width="0.103385" stroke-linecap="round" stroke-linejoin="round"/>
<path d="M19.2484 16.3312V19.5627Z" fill="#FFD83D"/>
<path d="M19.2484 16.3312V19.5627" stroke="black" stroke-width="0.103385" stroke-linecap="round" stroke-linejoin="round"/>
<path d="M18.8973 16.3629V19.5943Z" fill="#FFD83D"/>
<path d="M18.8973 16.3629V19.5943" stroke="black" stroke-width="0.103385" stroke-linecap="round" stroke-linejoin="round"/>
<path d="M18.5463 16.3945V19.626Z" fill="#FFD83D"/>
<path d="M18.5463 16.3945V19.626" stroke="black" stroke-width="0.103385" stroke-linecap="round" stroke-linejoin="round"/>
<path d="M18.1952 16.6004V19.8319Z" fill="#FFD83D"/>
<path d="M18.1952 16.6004V19.8319" stroke="black" stroke-width="0.103385" stroke-linecap="round" stroke-linejoin="round"/>
<path d="M17.8441 16.6321V20.2753Z" fill="#FFD83D"/>
<path d="M17.8441 16.6321V20.2753" stroke="black" stroke-width="0.103385" stroke-linecap="round" stroke-linejoin="round"/>
<path d="M17.493 16.6321V19.8636Z" fill="#FFD83D"/>
<path d="M17.493 16.6321V19.8636" stroke="black" stroke-width="0.103385" stroke-linecap="round" stroke-linejoin="round"/>
<path d="M17.142 16.6321V19.8636Z" fill="#FFD83D"/>
<path d="M17.142 16.6321V19.8636" stroke="black" stroke-width="0.103385" stroke-linecap="round" stroke-linejoin="round"/>
<path d="M19.1533 16.4662C18.4115 16.5885 16.782 17.3509 16.9678 18.3824C17.2312 19.8443 18.0849 19.2576 19.2167 19.0476L20.0719 19.3327C20.3779 19.645 20.8285 19.9312 21.133 19.5544H21.6398V21.534H16.0334V16.7512L19.1533 16.4662Z" fill="black" stroke="black" stroke-width="0.103385" stroke-linecap="round" stroke-linejoin="round"/>
<path d="M16.6431 16.4661C16.4551 16.4661 16.3026 16.3137 16.3026 16.1256C16.3026 15.9376 16.4551 15.7851 16.6431 15.7851C16.8312 15.7851 16.9836 15.9376 16.9836 16.1256C16.9836 16.3137 16.8312 16.4661 16.6431 16.4661Z" fill="#FFD83D" stroke="black" stroke-width="0.137847" stroke-linecap="round" stroke-linejoin="round"/>
<path d="M17.4084 16.282C17.2204 16.282 17.0679 16.1295 17.0679 15.9415C17.0679 15.7534 17.2204 15.601 17.4084 15.601C17.5965 15.601 17.7489 15.7534 17.7489 15.9415C17.7489 16.1295 17.5965 16.282 17.4084 16.282Z" fill="#FFD83D" stroke="black" stroke-width="0.137847" stroke-linecap="round" stroke-linejoin="round"/>
<path d="M18.1846 16.087C17.9966 16.087 17.8441 15.9345 17.8441 15.7465C17.8441 15.5584 17.9966 15.406 18.1846 15.406C18.3727 15.406 18.5251 15.5584 18.5251 15.7465C18.5251 15.9345 18.3727 16.087 18.1846 16.087Z" fill="#FFD83D" stroke="black" stroke-width="0.137847" stroke-linecap="round" stroke-linejoin="round"/>
<path d="M18.9639 15.957C18.7759 15.957 18.6234 15.8046 18.6234 15.6165C18.6234 15.4285 18.7759 15.276 18.9639 15.276C19.152 15.276 19.3044 15.4285 19.3044 15.6165C19.3044 15.8046 19.152 15.957 18.9639 15.957Z" fill="#FFD83D" stroke="black" stroke-width="0.137847" stroke-linecap="round" stroke-linejoin="round"/>
<path d="M19.7432 15.8802C19.5552 15.8802 19.4027 15.7277 19.4027 15.5397C19.4027 15.3516 19.5552 15.1992 19.7432 15.1992C19.9313 15.1992 20.0837 15.3516 20.0837 15.5397C20.0837 15.7277 19.9313 15.8802 19.7432 15.8802Z" fill="#FFD83D" stroke="black" stroke-width="0.137847" stroke-linecap="round" stroke-linejoin="round"/>
<path d="M20.5074 15.9237C20.3193 15.9237 20.1669 15.7713 20.1669 15.5832C20.1669 15.3952 20.3193 15.2427 20.5074 15.2427C20.6955 15.2427 20.8479 15.3952 20.8479 15.5832C20.8479 15.7713 20.6955 15.9237 20.5074 15.9237Z" fill="#FFD83D" stroke="black" stroke-width="0.137847" stroke-linecap="round" stroke-linejoin="round"/>
<path d="M21.2359 16.1731C21.0479 16.1731 20.8954 16.0207 20.8954 15.8326C20.8954 15.6446 21.0479 15.4921 21.2359 15.4921C21.424 15.4921 21.5764 15.6446 21.5764 15.8326C21.5764 16.0207 21.424 16.1731 21.2359 16.1731Z" fill="#FFD83D" stroke="black" stroke-width="0.137847" stroke-linecap="round" stroke-linejoin="round"/>
<path d="M21.8496 16.6245C21.6615 16.6245 21.5091 16.4721 21.5091 16.284C21.5091 16.0959 21.6615 15.9435 21.8496 15.9435C22.0376 15.9435 22.1901 16.0959 22.1901 16.284C22.1901 16.4721 22.0376 16.6245 21.8496 16.6245Z" fill="#FFD83D" stroke="black" stroke-width="0.137847" stroke-linecap="round" stroke-linejoin="round"/>
<path d="M22.2851 17.254C22.0971 17.254 21.9446 17.1016 21.9446 16.9135C21.9446 16.7255 22.0971 16.573 22.2851 16.573C22.4732 16.573 22.6256 16.7255 22.6256 16.9135C22.6256 17.1016 22.4732 17.254 22.2851 17.254Z" fill="#FFD83D" stroke="black" stroke-width="0.137847" stroke-linecap="round" stroke-linejoin="round"/>
<path d="M22.495 17.9944C22.3069 17.9944 22.1545 17.842 22.1545 17.6539C22.1545 17.4659 22.3069 17.3134 22.495 17.3134C22.683 17.3134 22.8354 17.4659 22.8354 17.6539C22.8354 17.842 22.683 17.9944 22.495 17.9944Z" fill="#FFD83D" stroke="black" stroke-width="0.137847" stroke-linecap="round" stroke-linejoin="round"/>
<path d="M22.487 18.7625C22.299 18.7625 22.1465 18.6101 22.1465 18.422C22.1465 18.234 22.299 18.0815 22.487 18.0815C22.6751 18.0815 22.8275 18.234 22.8275 18.422C22.8275 18.6101 22.6751 18.7625 22.487 18.7625Z" fill="#FFD83D" stroke="black" stroke-width="0.137847" stroke-linecap="round" stroke-linejoin="round"/>
<path d="M22.3405 19.5148C22.1525 19.5148 22 19.3623 22 19.1743C22 18.9862 22.1525 18.8338 22.3405 18.8338C22.5286 18.8338 22.681 18.9862 22.681 19.1743C22.681 19.3623 22.5286 19.5148 22.3405 19.5148Z" fill="#FFD83D" stroke="black" stroke-width="0.137847" stroke-linecap="round" stroke-linejoin="round"/>
<path d="M16.4926 16.577L16.5243 17.0204C17.3715 16.8906 18.5724 16.4186 19.6918 16.4186C20.726 16.4186 21.5289 16.8323 21.5289 17.8756C21.5289 18.9039 21.0934 19.8389 20.5153 20.7897L21.1171 21.0747C21.6549 20.0293 22.099 19.1414 22.099 17.939C22.099 16.9327 21.3075 15.9435 19.9451 15.9435C18.7376 15.9435 17.506 16.3504 16.4926 16.577Z" fill="#FFD83D" stroke="black" stroke-width="0.137847" stroke-linecap="round" stroke-linejoin="round"/>
<path d="M16.0313 12L15.6759 12.6656L16.0313 13.3289L16.3867 12.6656L16.0313 12ZM16.0313 13.68L15.6759 14.3434L16.0313 15.009L16.3867 14.3434L16.0313 13.68Z" fill="#FFD83D" stroke="black" stroke-width="0.137847" stroke-linecap="round" stroke-linejoin="round"/>
<path d="M14.7643 13.5045L15.3247 13.8599L15.8834 13.5045L15.3247 13.1491L14.7643 13.5045ZM16.179 13.5045L16.7376 13.8599L17.2981 13.5045L16.7376 13.1491L16.179 13.5045Z" fill="#FFD83D" stroke="black" stroke-width="0.137847" stroke-linecap="round" stroke-linejoin="round"/>
<path d="M16.0312 13.7817C16.1799 13.7817 16.3004 13.6612 16.3004 13.5125C16.3004 13.3638 16.1799 13.2432 16.0312 13.2432C15.8825 13.2432 15.762 13.3638 15.762 13.5125C15.762 13.6612 15.8825 13.7817 16.0312 13.7817Z" fill="#FFD83D" stroke="black" stroke-width="0.137847" stroke-linecap="round" stroke-linejoin="round"/>
<path d="M16.0313 15.9514C16.4292 15.9514 16.7518 15.6288 16.7518 15.2308C16.7518 14.8328 16.4292 14.5102 16.0313 14.5102C15.6333 14.5102 15.3107 14.8328 15.3107 15.2308C15.3107 15.6288 15.6333 15.9514 16.0313 15.9514Z" fill="#FFD83D" stroke="black" stroke-width="0.137847" stroke-linecap="round" stroke-linejoin="round"/>
<path d="M15.3334 15.4074C15.5605 15.3695 15.7934 15.3493 16.0312 15.3493C16.2691 15.3493 16.502 15.3695 16.7291 15.4074M15.8503 14.533C15.8503 14.7476 15.8488 14.8723 15.8481 14.9896C15.6744 14.9973 15.5031 15.0155 15.3355 15.0434L15.8503 14.533ZM16.7269 15.0434C16.5593 15.0155 16.388 14.9973 16.2143 14.9896C16.2143 14.8725 16.2143 14.7481 16.2143 14.533L16.7269 15.0434Z" stroke="black" stroke-width="0.103385" stroke-linecap="round" stroke-linejoin="round"/>
<path d="M15.3269 16.4499C15.2586 17.6272 15.1196 18.8263 14.6614 19.6979L15.4066 19.3963C15.6669 18.4088 15.7216 17.1327 15.8008 16.5296L15.3269 16.4499ZM16.7355 16.4499L16.2617 16.5296C16.3409 17.1327 16.3956 18.4088 16.6558 19.3963L17.4011 19.6979C16.9429 18.8263 16.8039 17.6272 16.7355 16.4499Z" fill="#FFD83D" stroke="black" stroke-width="0.137847" stroke-linecap="round" stroke-linejoin="round"/>
<path d="M16.0302 19C15.1401 19 14.4863 19.4195 14.4471 20.4884C14.2295 20.1055 13.3092 18.9013 12.4505 19.0625C11.9398 19.1584 11.4885 19.8666 11.5652 20.6779C11.1424 19.4628 9.90372 19.2637 9 19.9822C9.80242 20.642 10.1594 22.5899 10.8351 23.4348H16.0302H21.2253C21.901 22.5899 22.2601 20.642 23.0625 19.9822C22.1588 19.2637 20.9201 19.4628 20.4973 20.6779C20.574 19.8666 20.1206 19.1584 19.6099 19.0625C18.7512 18.9013 17.833 20.1055 17.6154 20.4884C17.5761 19.4195 16.9202 19 16.0302 19Z" fill="#FFD83D" stroke="black" stroke-width="0.137847" stroke-linecap="round" stroke-linejoin="round"/>
<path d="M21.21 23.4344C21.21 23.8191 18.89 24.2421 16.0313 24.2421C13.1726 24.2421 10.8525 23.8191 10.8525 23.4344C10.8525 23.0498 13.1726 22.8485 16.0313 22.8485C18.89 22.8485 21.21 23.0498 21.21 23.4344Z" fill="black" stroke="black" stroke-width="0.103385" stroke-linecap="round" stroke-linejoin="round"/>
<path d="M16.0313 16.4679C16.1647 16.4679 16.2728 16.3597 16.2728 16.2264C16.2728 16.093 16.1647 15.9848 16.0313 15.9848C15.8979 15.9848 15.7898 16.093 15.7898 16.2264C15.7898 16.3597 15.8979 16.4679 16.0313 16.4679Z" fill="#FFD83D" stroke="black" stroke-width="0.103385" stroke-linecap="round" stroke-linejoin="round"/>
<path d="M16.0313 17.0063C16.1734 17.0063 16.2886 16.8911 16.2886 16.749C16.2886 16.6068 16.1734 16.4916 16.0313 16.4916C15.8891 16.4916 15.7739 16.6068 15.7739 16.749C15.7739 16.8911 15.8891 17.0063 16.0313 17.0063Z" fill="#FFD83D" stroke="black" stroke-width="0.103385" stroke-linecap="round" stroke-linejoin="round"/>
<path d="M16.0312 17.5923C16.1865 17.5923 16.3123 17.4664 16.3123 17.3112C16.3123 17.1559 16.1865 17.0301 16.0312 17.0301C15.876 17.0301 15.7501 17.1559 15.7501 17.3112C15.7501 17.4664 15.876 17.5923 16.0312 17.5923Z" fill="#FFD83D" stroke="black" stroke-width="0.103385" stroke-linecap="round" stroke-linejoin="round"/>
<path d="M16.0313 18.2575C16.2084 18.2575 16.352 18.1139 16.352 17.9368C16.352 17.7596 16.2084 17.6161 16.0313 17.6161C15.8542 17.6161 15.7106 17.7596 15.7106 17.9368C15.7106 18.1139 15.8542 18.2575 16.0313 18.2575Z" fill="#FFD83D" stroke="black" stroke-width="0.103385" stroke-linecap="round" stroke-linejoin="round"/>
<path d="M16.0312 18.986C16.2258 18.986 16.3836 18.8282 16.3836 18.6336C16.3836 18.439 16.2258 18.2812 16.0312 18.2812C15.8366 18.2812 15.6788 18.439 15.6788 18.6336C15.6788 18.8282 15.8366 18.986 16.0312 18.986Z" fill="#FFD83D" stroke="black" stroke-width="0.103385" stroke-linecap="round" stroke-linejoin="round"/>
<path d="M15.8913 19.3114C15.8532 19.311 15.8171 19.3431 15.8266 19.4041C15.8379 19.476 15.8519 19.6105 15.8654 19.7013C15.8806 19.8042 15.9406 19.7792 15.9559 19.6991C15.9711 19.6191 15.965 19.5678 15.9688 19.4191C15.9707 19.3448 15.9294 19.3119 15.8913 19.3114ZM16.1713 19.3114C16.1332 19.3119 16.0918 19.3448 16.0937 19.4191C16.0975 19.5678 16.0914 19.6191 16.1067 19.6991C16.1219 19.7792 16.1819 19.8042 16.1971 19.7013C16.2106 19.6105 16.2247 19.476 16.2359 19.4041C16.2454 19.3431 16.2094 19.311 16.1713 19.3114ZM15.6414 19.3502C15.6066 19.3551 15.5704 19.3902 15.5725 19.4278C15.5763 19.4963 15.5953 19.5786 15.6026 19.6819C15.6103 19.7886 15.6855 19.7472 15.6931 19.6862C15.7007 19.6252 15.7093 19.5351 15.7017 19.417C15.6989 19.3727 15.6795 19.3532 15.6565 19.3502C15.6517 19.3496 15.6464 19.3495 15.6414 19.3502ZM16.406 19.3502C16.383 19.3532 16.3637 19.3727 16.3608 19.417C16.3532 19.5351 16.3618 19.6252 16.3694 19.6862C16.3771 19.7472 16.4523 19.7886 16.4599 19.6819C16.4673 19.5786 16.4862 19.4963 16.49 19.4278C16.4921 19.3902 16.456 19.3551 16.4211 19.3502C16.4161 19.3495 16.4108 19.3496 16.406 19.3502ZM15.342 19.4708C15.3101 19.4791 15.2808 19.5175 15.2903 19.5613C15.3094 19.649 15.327 19.7459 15.327 19.8348C15.327 19.9111 15.3921 19.8839 15.3959 19.8305C15.3997 19.7772 15.4066 19.6642 15.4066 19.5613C15.4066 19.4845 15.374 19.4626 15.342 19.4708ZM16.699 19.4708C16.6763 19.4771 16.6559 19.5037 16.6559 19.5613C16.6559 19.6642 16.6629 19.7772 16.6667 19.8305C16.6705 19.8839 16.7356 19.9111 16.7356 19.8348C16.7356 19.7459 16.7531 19.649 16.7722 19.5613C16.7817 19.5175 16.7524 19.4791 16.7205 19.4708C16.7125 19.4688 16.7065 19.4687 16.699 19.4708ZM12.626 19.4826C12.5878 19.4813 12.561 19.5332 12.5873 19.5903C12.6292 19.6818 12.6737 19.7395 12.7165 19.838C12.7546 19.9257 12.8131 19.871 12.794 19.81C12.775 19.749 12.7543 19.6811 12.6971 19.5515C12.6757 19.5029 12.6489 19.4834 12.626 19.4826ZM19.4365 19.4826C19.4136 19.4834 19.3869 19.5029 19.3654 19.5515C19.3083 19.6811 19.2876 19.749 19.2685 19.81C19.2495 19.871 19.3079 19.9257 19.346 19.838C19.3888 19.7395 19.4334 19.6818 19.4753 19.5903C19.5015 19.5332 19.4747 19.4813 19.4365 19.4826ZM12.9017 19.4869C12.8736 19.4955 12.8566 19.5312 12.8737 19.5731C12.908 19.6569 12.9576 19.7429 12.9922 19.8337C13.0227 19.9137 13.0905 19.891 13.0676 19.8186C13.0447 19.7462 13.0379 19.7038 12.9922 19.5666C12.9693 19.498 12.9298 19.4783 12.9017 19.4869ZM19.1393 19.4869C19.1152 19.4921 19.0875 19.5152 19.0703 19.5666C19.0246 19.7038 19.0178 19.7462 18.995 19.8186C18.9721 19.891 19.0399 19.9137 19.0703 19.8337C19.105 19.7429 19.1545 19.6569 19.1888 19.5731C19.206 19.5312 19.1889 19.4955 19.1608 19.4869C19.1538 19.4848 19.1473 19.4852 19.1393 19.4869ZM13.2463 19.5537C13.2109 19.5604 13.1835 19.6145 13.2076 19.6808C13.2381 19.7646 13.2815 19.844 13.3196 19.9392C13.3577 20.0345 13.421 20.0153 13.4057 19.9543C13.3905 19.8933 13.3718 19.7923 13.326 19.6398C13.306 19.5731 13.2739 19.5484 13.2463 19.5537ZM18.8162 19.5537C18.7886 19.5484 18.7565 19.5731 18.7365 19.6398C18.6907 19.7923 18.6721 19.8933 18.6568 19.9543C18.6416 20.0153 18.7048 20.0345 18.743 19.9392C18.7811 19.844 18.8245 19.7646 18.855 19.6808C18.8791 19.6145 18.8516 19.5604 18.8162 19.5537ZM12.3934 19.6011C12.355 19.605 12.3201 19.6676 12.3439 19.7152C12.382 19.7915 12.4062 19.8174 12.4429 19.8983C12.4811 19.9822 12.5228 19.9172 12.5076 19.8638C12.4923 19.8105 12.4728 19.7484 12.4537 19.6722C12.4398 19.6163 12.4164 19.5987 12.3934 19.6011ZM19.6691 19.6011C19.6461 19.5987 19.6228 19.6163 19.6088 19.6722C19.5898 19.7484 19.5702 19.8105 19.555 19.8638C19.5397 19.9172 19.5815 19.9822 19.6196 19.8983C19.6564 19.8174 19.6805 19.7915 19.7187 19.7152C19.7425 19.6676 19.7075 19.605 19.6691 19.6011ZM15.0491 19.7939C15.0089 19.7939 14.9659 19.8473 14.9802 19.8973C15.003 19.9773 15.0384 20.0483 15.0642 20.1515C15.087 20.2429 15.152 20.1974 15.1482 20.1364C15.1444 20.0754 15.1339 19.9924 15.1073 19.8628C15.0973 19.8142 15.0732 19.7939 15.0491 19.7939ZM17.0134 19.7939C16.9893 19.7939 16.9653 19.8142 16.9553 19.8628C16.9286 19.9924 16.9182 20.0754 16.9143 20.1364C16.9105 20.1974 16.9755 20.2429 16.9983 20.1515C17.0241 20.0483 17.0595 19.9773 17.0823 19.8973C17.0966 19.8473 17.0537 19.7939 17.0134 19.7939ZM16.0313 19.8758C15.9817 19.8758 15.9748 19.9423 15.9731 19.9964C15.9674 20.1736 15.8939 20.3457 15.831 20.4315C15.7681 20.5172 15.6755 20.4944 15.5897 20.4487C15.504 20.403 15.4529 20.3687 15.3614 20.3001C15.2699 20.2315 15.2006 20.2716 15.3097 20.4271C15.628 20.8807 15.9731 21.2683 15.9731 22.0081C15.9731 22.1037 15.9898 22.133 16.0313 22.133C16.0727 22.133 16.0916 22.1037 16.0916 22.0081C16.0916 21.2683 16.4346 20.8807 16.7528 20.4271C16.862 20.2716 16.7926 20.2315 16.7011 20.3001C16.6097 20.3687 16.5586 20.403 16.4728 20.4487C16.387 20.4944 16.2944 20.5172 16.2316 20.4315C16.1687 20.3457 16.0951 20.1736 16.0894 19.9964C16.0877 19.9423 16.0808 19.8758 16.0313 19.8758ZM13.5996 19.7648C13.5952 19.7647 13.5905 19.7657 13.5866 19.7669C13.5681 19.7728 13.5558 19.7951 13.563 19.8337C13.5757 19.9028 13.6236 20.0382 13.6426 20.1029C13.6617 20.1677 13.7414 20.1539 13.7223 20.0663C13.7033 19.9786 13.7043 19.9522 13.6814 19.8531C13.6689 19.7989 13.6299 19.7656 13.5996 19.7648ZM18.463 19.7648C18.4326 19.7656 18.3936 19.7989 18.3811 19.8531C18.3583 19.9522 18.3593 19.9786 18.3402 20.0663C18.3212 20.1539 18.4008 20.1677 18.4199 20.1029C18.4389 20.0382 18.4868 19.9028 18.4996 19.8337C18.5067 19.7951 18.4944 19.7728 18.4759 19.7669C18.472 19.7657 18.4673 19.7647 18.463 19.7648ZM12.1543 19.7928C12.1144 19.7959 12.0858 19.846 12.1263 19.9198C12.17 19.9996 12.245 20.0996 12.2793 20.1568C12.3136 20.2139 12.3729 20.1754 12.3309 20.1029C12.289 20.0305 12.275 19.9473 12.2254 19.8445C12.2068 19.8059 12.1783 19.7909 12.1543 19.7928ZM19.9082 19.7928C19.8843 19.7909 19.8557 19.8059 19.8371 19.8445C19.7876 19.9473 19.7735 20.0305 19.7316 20.1029C19.6896 20.1754 19.749 20.2139 19.7833 20.1568C19.8176 20.0996 19.8925 19.9996 19.9362 19.9198C19.9767 19.846 19.9481 19.7959 19.9082 19.7928ZM9.97033 20.0222C9.9243 20.0198 9.90987 20.1029 9.95309 20.1579C10.016 20.2379 10.0598 20.2804 10.1319 20.3453C10.1891 20.3967 10.2057 20.33 10.1771 20.2785C10.1485 20.2271 10.1072 20.1748 10.05 20.089C10.0187 20.042 9.99125 20.0233 9.97033 20.0222ZM22.0922 20.0222C22.0713 20.0233 22.0438 20.042 22.0125 20.089C21.9554 20.1748 21.914 20.2271 21.8854 20.2785C21.8569 20.33 21.8735 20.3967 21.9307 20.3453C22.0028 20.2804 22.0465 20.2379 22.1094 20.1579C22.1527 20.1029 22.1382 20.0198 22.0922 20.0222ZM10.3171 20.0911C10.2804 20.0916 10.2562 20.1187 10.2848 20.1816C10.3257 20.2716 10.3797 20.3736 10.414 20.4422C10.4483 20.5108 10.5528 20.5338 10.5109 20.4271C10.469 20.3204 10.4607 20.2656 10.4226 20.1665C10.4036 20.117 10.3538 20.0907 10.3171 20.0911ZM21.7454 20.0911C21.7088 20.0907 21.659 20.117 21.6399 20.1665C21.6018 20.2656 21.5935 20.3204 21.5516 20.4271C21.5097 20.5338 21.6142 20.5108 21.6485 20.4422C21.6828 20.3736 21.7368 20.2716 21.7777 20.1816C21.8063 20.1187 21.7821 20.0916 21.7454 20.0911ZM9.64509 20.1148C9.59176 20.1154 9.58717 20.1688 9.63432 20.2031C9.69723 20.2489 9.77219 20.2996 9.8454 20.3582C9.93114 20.4268 9.96436 20.3637 9.91863 20.3065C9.87291 20.2494 9.82836 20.1914 9.71402 20.1342C9.68543 20.1199 9.66287 20.1147 9.64509 20.1148ZM22.4174 20.1148C22.3997 20.1147 22.3771 20.1199 22.3485 20.1342C22.2342 20.1914 22.1896 20.2494 22.1439 20.3065C22.0982 20.3637 22.1314 20.4268 22.2171 20.3582C22.2903 20.2996 22.3653 20.2489 22.4282 20.2031C22.4754 20.1688 22.4708 20.1154 22.4174 20.1148ZM14.8596 20.1644C14.8297 20.1685 14.804 20.2024 14.8165 20.2462C14.8394 20.3262 14.8653 20.411 14.8811 20.4939C14.8964 20.574 14.989 20.5749 14.9737 20.5025C14.9585 20.4301 14.9508 20.3395 14.9242 20.229C14.9142 20.1875 14.8933 20.1676 14.8725 20.1644C14.8682 20.1637 14.8638 20.1638 14.8596 20.1644ZM17.19 20.1644C17.1692 20.1676 17.1484 20.1875 17.1383 20.229C17.1117 20.3395 17.104 20.4301 17.0888 20.5025C17.0736 20.5749 17.1662 20.574 17.1814 20.4939C17.1972 20.411 17.2232 20.3262 17.246 20.2462C17.2585 20.2024 17.2328 20.1685 17.203 20.1644C17.1987 20.1638 17.1944 20.1637 17.19 20.1644ZM12.7854 20.0275C12.762 20.034 12.7485 20.0788 12.766 20.1417C12.8632 20.4904 12.893 20.6741 12.8759 20.7599C12.8587 20.8456 12.8117 20.8574 12.7488 20.8288C12.6859 20.8002 12.6121 20.7589 12.5549 20.7189C12.4978 20.6789 12.4383 20.7268 12.5205 20.7943C12.9378 21.1373 13.2271 21.5293 13.3389 22.0048C13.3618 22.1019 13.4229 22.1134 13.4057 22.0048C13.3111 21.4058 13.2929 20.9135 13.4359 20.6048C13.4896 20.4888 13.4355 20.3774 13.3497 20.566C13.2926 20.6918 13.2001 20.7414 13.1257 20.6328C13.0514 20.5242 12.8979 20.2344 12.8522 20.1029C12.835 20.0536 12.8139 20.0308 12.7962 20.0275C12.7925 20.0269 12.7888 20.0266 12.7854 20.0275ZM19.2663 20.0275C19.2487 20.0308 19.2275 20.0536 19.2103 20.1029C19.1646 20.2344 19.0111 20.5242 18.9368 20.6328C18.8625 20.7414 18.77 20.6918 18.7128 20.566C18.627 20.3774 18.5729 20.4888 18.6267 20.6048C18.7696 20.9135 18.7514 21.4058 18.6568 22.0048C18.6397 22.1134 18.7007 22.1019 18.7236 22.0048C18.8355 21.5293 19.1247 21.1373 19.542 20.7943C19.6242 20.7268 19.5647 20.6789 19.5076 20.7189C19.4504 20.7589 19.3766 20.8002 19.3137 20.8288C19.2509 20.8574 19.2038 20.8456 19.1867 20.7599C19.1695 20.6741 19.1993 20.4904 19.2965 20.1417C19.314 20.0788 19.3006 20.034 19.2771 20.0275C19.2738 20.0266 19.27 20.0269 19.2663 20.0275ZM10.6876 20.1945C10.6499 20.195 10.6187 20.2214 10.6359 20.2785C10.6634 20.3701 10.7202 20.4691 10.7393 20.5262C10.7583 20.5834 10.8196 20.5567 10.8082 20.4767C10.7967 20.3967 10.7911 20.349 10.7759 20.2613C10.7682 20.2175 10.7252 20.194 10.6876 20.1945ZM21.375 20.1945C21.3373 20.194 21.2943 20.2175 21.2867 20.2613C21.2714 20.349 21.2658 20.3967 21.2544 20.4767C21.2429 20.5567 21.3042 20.5834 21.3233 20.5262C21.3423 20.4691 21.3992 20.3701 21.4267 20.2785C21.4438 20.2214 21.4126 20.195 21.375 20.1945ZM11.982 20.0749C11.9383 20.0671 11.932 20.18 11.9691 20.2257C12.0186 20.2867 12.0875 20.3604 12.1565 20.4432C12.2136 20.5119 12.249 20.4509 12.2146 20.3937C12.1803 20.3365 12.1295 20.2757 12.038 20.1309C12.0152 20.0947 11.9966 20.0775 11.982 20.0749ZM20.0805 20.0749C20.0659 20.0775 20.0474 20.0947 20.0245 20.1309C19.9331 20.2757 19.8822 20.3365 19.8479 20.3937C19.8136 20.4509 19.8489 20.5119 19.906 20.4432C19.9751 20.3604 20.0439 20.2867 20.0934 20.2257C20.1306 20.18 20.1243 20.0671 20.0805 20.0749ZM10.9826 20.3475C10.9555 20.3455 10.9324 20.3676 10.9439 20.4228C10.9598 20.4998 10.9829 20.5637 11.002 20.6361C11.0211 20.7085 11.0709 20.6961 11.0709 20.6275C11.0709 20.5589 11.0587 20.4823 11.0473 20.4099C11.0415 20.3737 11.0098 20.3494 10.9826 20.3475ZM21.0799 20.3475C21.0527 20.3494 21.021 20.3737 21.0153 20.4099C21.0038 20.4823 20.9916 20.5589 20.9916 20.6275C20.9916 20.6961 21.0415 20.7085 21.0605 20.6361C21.0796 20.5637 21.1027 20.4998 21.1187 20.4228C21.1301 20.3676 21.1071 20.3455 21.0799 20.3475ZM11.8851 20.4454C11.8424 20.4518 11.8049 20.4931 11.8549 20.5574C11.935 20.6603 12.0226 20.7325 12.0531 20.7706C12.0836 20.8087 12.1608 20.7947 12.1113 20.7146C12.0606 20.6328 11.984 20.5344 11.9497 20.4734C11.9369 20.4505 11.9107 20.4415 11.8851 20.4454ZM20.1602 20.4454C20.1414 20.4474 20.1225 20.4562 20.1128 20.4734C20.0785 20.5344 20.0019 20.6328 19.9513 20.7146C19.9017 20.7947 19.979 20.8087 20.0094 20.7706C20.0399 20.7325 20.1276 20.6603 20.2076 20.5574C20.2576 20.4931 20.2201 20.4518 20.1774 20.4454C20.171 20.4444 20.1665 20.4447 20.1602 20.4454ZM10.4614 20.733C10.4278 20.7299 10.4161 20.7571 10.4614 20.8191C10.5643 20.9601 10.6778 21.1735 10.6854 21.265C10.693 21.3565 10.6478 21.3555 10.6057 21.3555C10.4799 21.3555 10.4185 21.2636 10.3042 21.237C10.1898 21.2103 10.1732 21.2704 10.2546 21.3296C10.6738 21.6345 11.094 21.9747 11.2626 22.2838C11.3312 22.4095 11.424 22.4555 11.3725 22.3355C11.2149 21.9676 11.1766 21.6561 11.2109 21.4675C11.2453 21.2788 11.292 21.1518 11.2863 21.0431C11.2806 20.9345 11.219 20.942 11.1937 21.0431C11.1766 21.1118 11.1433 21.2027 11.1205 21.237C11.0976 21.2713 11.0057 21.2905 10.918 21.1724C10.8304 21.0542 10.6092 20.8268 10.5368 20.7696C10.5096 20.7482 10.4816 20.7348 10.4614 20.733ZM21.6011 20.733C21.5809 20.7348 21.5529 20.7482 21.5257 20.7696C21.4533 20.8268 21.2322 21.0542 21.1445 21.1724C21.0568 21.2905 20.9649 21.2713 20.942 21.237C20.9192 21.2027 20.886 21.1118 20.8688 21.0431C20.8435 20.942 20.7819 20.9345 20.7762 21.0431C20.7705 21.1518 20.8173 21.2788 20.8516 21.4675C20.8859 21.6561 20.8477 21.9676 20.69 22.3355C20.6386 22.4555 20.7313 22.4095 20.7999 22.2838C20.9685 21.9747 21.3887 21.6345 21.8079 21.3296C21.8893 21.2704 21.8727 21.2103 21.7584 21.237C21.644 21.2636 21.5826 21.3555 21.4568 21.3555C21.4147 21.3555 21.3695 21.3565 21.3771 21.265C21.3847 21.1735 21.4982 20.9601 21.6011 20.8191C21.6464 20.7571 21.6348 20.7299 21.6011 20.733Z" fill="black"/>
<path d="M11.0797 22.9951L11.2141 23.4206L11.0797 22.9951ZM11.3561 22.9144L11.4752 23.3445L11.3561 22.9144ZM11.6547 22.8653L11.7365 23.304L11.6547 22.8653ZM11.9318 22.8099L12.0194 23.2475L11.9318 22.8099ZM12.2872 22.7748L12.3583 23.2153L12.2872 22.7748ZM12.6652 22.7753L12.7418 23.2149L12.6652 22.7753ZM13.0342 22.6505L13.0895 23.0933L13.0342 22.6505ZM13.3813 22.6729L13.4367 23.1157L13.3813 22.6729ZM13.7173 22.6281L13.7727 23.0709L13.7173 22.6281ZM14.0545 22.5933L14.085 23.0385L14.0545 22.5933ZM14.4149 22.5932L14.4413 23.0386L14.4149 22.5932ZM14.7416 22.5706L14.7641 23.0163L14.7416 22.5706ZM15.1018 22.5482L15.1205 22.994L15.1018 22.5482ZM15.5162 22.537L15.5349 22.9828L15.5162 22.537ZM20.9829 22.9951L20.8485 23.4206L20.9829 22.9951ZM20.7064 22.9144L20.5874 23.3445L20.7064 22.9144ZM20.4079 22.8653L20.326 23.304L20.4079 22.8653ZM20.1308 22.8099L20.0432 23.2475L20.1308 22.8099ZM19.7754 22.7748L19.7042 23.2153L19.7754 22.7748ZM19.3974 22.7753L19.3207 23.2149L19.3974 22.7753ZM19.0284 22.6505L18.973 23.0933L19.0284 22.6505ZM18.6813 22.6729L18.6259 23.1157L18.6813 22.6729ZM18.3453 22.6281L18.2899 23.0709L18.3453 22.6281ZM18.0081 22.5933L17.9776 23.0385L18.0081 22.5933ZM17.6477 22.5932L17.6213 23.0386L17.6477 22.5932ZM17.321 22.5706L17.2985 23.0163L17.321 22.5706ZM16.9607 22.5482L16.942 22.994L16.9607 22.5482ZM16.5464 22.537L16.5277 22.9828L16.5464 22.537ZM16.0313 22.508V22.9989Z" fill="#FFD83D"/>
<path d="M16.0313 22.508V22.9989M11.0797 22.9951L11.2141 23.4206L11.0797 22.9951ZM11.3561 22.9144L11.4752 23.3445L11.3561 22.9144ZM11.6547 22.8653L11.7365 23.304L11.6547 22.8653ZM11.9318 22.8099L12.0194 23.2475L11.9318 22.8099ZM12.2872 22.7748L12.3583 23.2153L12.2872 22.7748ZM12.6652 22.7753L12.7418 23.2149L12.6652 22.7753ZM13.0342 22.6505L13.0895 23.0933L13.0342 22.6505ZM13.3813 22.6729L13.4367 23.1157L13.3813 22.6729ZM13.7173 22.6281L13.7727 23.0709L13.7173 22.6281ZM14.0545 22.5933L14.085 23.0385L14.0545 22.5933ZM14.4149 22.5932L14.4413 23.0386L14.4149 22.5932ZM14.7416 22.5706L14.7641 23.0163L14.7416 22.5706ZM15.1018 22.5482L15.1205 22.994L15.1018 22.5482ZM15.5162 22.537L15.5349 22.9828L15.5162 22.537ZM20.9829 22.9951L20.8485 23.4206L20.9829 22.9951ZM20.7064 22.9144L20.5874 23.3445L20.7064 22.9144ZM20.4079 22.8653L20.326 23.304L20.4079 22.8653ZM20.1308 22.8099L20.0432 23.2475L20.1308 22.8099ZM19.7754 22.7748L19.7042 23.2153L19.7754 22.7748ZM19.3974 22.7753L19.3207 23.2149L19.3974 22.7753ZM19.0284 22.6505L18.973 23.0933L19.0284 22.6505ZM18.6813 22.6729L18.6259 23.1157L18.6813 22.6729ZM18.3453 22.6281L18.2899 23.0709L18.3453 22.6281ZM18.0081 22.5933L17.9776 23.0385L18.0081 22.5933ZM17.6477 22.5932L17.6213 23.0386L17.6477 22.5932ZM17.321 22.5706L17.2985 23.0163L17.321 22.5706ZM16.9607 22.5482L16.942 22.994L16.9607 22.5482ZM16.5464 22.537L16.5277 22.9828L16.5464 22.537Z" stroke="black" stroke-width="0.103385" stroke-linecap="round" stroke-linejoin="round"/>
</g>
</svg>
