<svg width="54" height="48" viewBox="0 0 54 48" fill="none" xmlns="http://www.w3.org/2000/svg">
<mask id="mask0_1_41457" style="mask-type:alpha" maskUnits="userSpaceOnUse" x="3" y="6" width="48" height="36">
<path d="M3.56934 15.1356C4.16681 10.4125 8.0415 7.00193 12.7861 6.60887C16.6412 6.28949 21.6196 6 27 6C32.3804 6 37.3588 6.28949 41.2139 6.60887C45.9585 7.00193 49.8332 10.4125 50.4307 15.1356C50.752 17.6759 51 20.704 51 24C51 27.296 50.752 30.3241 50.4307 32.8644C49.8332 37.5875 45.9585 40.9981 41.2139 41.3911C37.3588 41.7105 32.3804 42 27 42C21.6196 42 16.6412 41.7105 12.7861 41.3911C8.0415 40.9981 4.16681 37.5875 3.56934 32.8644C3.248 30.3241 3 27.296 3 24C3 20.704 3.248 17.6759 3.56934 15.1356Z" fill="#00D0BF"/>
</mask>
<g mask="url(#mask0_1_41457)">
<rect x="3" y="24" width="48" height="18" fill="#EE5757"/>
<rect x="3" y="6" width="48" height="18" fill="#2E50A6"/>
<path d="M15.6458 13.767L15.5191 18.0747H11.148C10.6103 17.0293 10.1661 16.1414 10.1661 14.939C10.1661 13.9327 10.9576 13.1335 12.0983 13.1335C13.3058 13.1335 14.6325 13.5404 15.6458 13.767Z" fill="#FFD83D"/>
<path d="M10.6887 13.965V16.4515V13.965Z" fill="#FFD83D"/>
<path d="M10.6887 13.965V16.4515" stroke="black" stroke-width="0.103385" stroke-linecap="round" stroke-linejoin="round"/>
<path d="M11.0398 13.7113V17.0219V13.7113Z" fill="#FFD83D"/>
<path d="M11.0398 13.7113V17.0219" stroke="black" stroke-width="0.103385" stroke-linecap="round" stroke-linejoin="round"/>
<path d="M11.3909 13.5371V17.4812V13.5371Z" fill="#FFD83D"/>
<path d="M11.3909 13.5371V17.4812" stroke="black" stroke-width="0.103385" stroke-linecap="round" stroke-linejoin="round"/>
<path d="M11.7419 13.4557V16.549V13.4557Z" fill="#FFD83D"/>
<path d="M11.7419 13.4557V16.549" stroke="black" stroke-width="0.103385" stroke-linecap="round" stroke-linejoin="round"/>
<path d="M12.093 13.4403V16.5644V13.4403Z" fill="#FFD83D"/>
<path d="M12.093 13.4403V16.5644" stroke="black" stroke-width="0.103385" stroke-linecap="round" stroke-linejoin="round"/>
<path d="M12.4441 13.3312V16.5627V13.3312Z" fill="#FFD83D"/>
<path d="M12.4441 13.3312V16.5627" stroke="black" stroke-width="0.103385" stroke-linecap="round" stroke-linejoin="round"/>
<path d="M12.795 13.3312V16.5627V13.3312Z" fill="#FFD83D"/>
<path d="M12.795 13.3312V16.5627" stroke="black" stroke-width="0.103385" stroke-linecap="round" stroke-linejoin="round"/>
<path d="M13.1461 13.3629V16.5943V13.3629Z" fill="#FFD83D"/>
<path d="M13.1461 13.3629V16.5943" stroke="black" stroke-width="0.103385" stroke-linecap="round" stroke-linejoin="round"/>
<path d="M13.4972 13.3945V16.626V13.3945Z" fill="#FFD83D"/>
<path d="M13.4972 13.3945V16.626" stroke="black" stroke-width="0.103385" stroke-linecap="round" stroke-linejoin="round"/>
<path d="M13.8483 13.6004V16.8319V13.6004Z" fill="#FFD83D"/>
<path d="M13.8483 13.6004V16.8319" stroke="black" stroke-width="0.103385" stroke-linecap="round" stroke-linejoin="round"/>
<path d="M14.1993 13.6321V17.2753V13.6321Z" fill="#FFD83D"/>
<path d="M14.1993 13.6321V17.2753" stroke="black" stroke-width="0.103385" stroke-linecap="round" stroke-linejoin="round"/>
<path d="M14.5504 13.6321V16.8636V13.6321Z" fill="#FFD83D"/>
<path d="M14.5504 13.6321V16.8636" stroke="black" stroke-width="0.103385" stroke-linecap="round" stroke-linejoin="round"/>
<path d="M14.9015 13.6321V16.8636V13.6321Z" fill="#FFD83D"/>
<path d="M14.9015 13.6321V16.8636" stroke="black" stroke-width="0.103385" stroke-linecap="round" stroke-linejoin="round"/>
<path d="M12.8901 13.4662C13.632 13.5885 15.2615 14.3509 15.0756 15.3824C14.8123 16.8443 13.9586 16.2576 12.8268 16.0476L11.9716 16.3327C11.6656 16.645 11.2149 16.9312 10.9105 16.5544H10.4037V18.534H16.01V13.7512L12.8901 13.4662Z" fill="black" stroke="black" stroke-width="0.103385" stroke-linecap="round" stroke-linejoin="round"/>
<path d="M15.4003 13.4661C15.5884 13.4661 15.7408 13.3137 15.7408 13.1256C15.7408 12.9376 15.5884 12.7851 15.4003 12.7851C15.2123 12.7851 15.0598 12.9376 15.0598 13.1256C15.0598 13.3137 15.2123 13.4661 15.4003 13.4661Z" fill="#FFD83D" stroke="black" stroke-width="0.137847" stroke-linecap="round" stroke-linejoin="round"/>
<path d="M14.6351 13.282C14.8231 13.282 14.9756 13.1295 14.9756 12.9415C14.9756 12.7534 14.8231 12.601 14.6351 12.601C14.447 12.601 14.2946 12.7534 14.2946 12.9415C14.2946 13.1295 14.447 13.282 14.6351 13.282Z" fill="#FFD83D" stroke="black" stroke-width="0.137847" stroke-linecap="round" stroke-linejoin="round"/>
<path d="M13.8588 13.087C14.0469 13.087 14.1993 12.9345 14.1993 12.7465C14.1993 12.5584 14.0469 12.406 13.8588 12.406C13.6708 12.406 13.5183 12.5584 13.5183 12.7465C13.5183 12.9345 13.6708 13.087 13.8588 13.087Z" fill="#FFD83D" stroke="black" stroke-width="0.137847" stroke-linecap="round" stroke-linejoin="round"/>
<path d="M13.0795 12.957C13.2676 12.957 13.42 12.8046 13.42 12.6165C13.42 12.4285 13.2676 12.276 13.0795 12.276C12.8915 12.276 12.739 12.4285 12.739 12.6165C12.739 12.8046 12.8915 12.957 13.0795 12.957Z" fill="#FFD83D" stroke="black" stroke-width="0.137847" stroke-linecap="round" stroke-linejoin="round"/>
<path d="M12.3002 12.8802C12.4883 12.8802 12.6407 12.7277 12.6407 12.5397C12.6407 12.3516 12.4883 12.1992 12.3002 12.1992C12.1122 12.1992 11.9597 12.3516 11.9597 12.5397C11.9597 12.7277 12.1122 12.8802 12.3002 12.8802Z" fill="#FFD83D" stroke="black" stroke-width="0.137847" stroke-linecap="round" stroke-linejoin="round"/>
<path d="M11.5361 12.9237C11.7241 12.9237 11.8766 12.7713 11.8766 12.5832C11.8766 12.3952 11.7241 12.2427 11.5361 12.2427C11.348 12.2427 11.1956 12.3952 11.1956 12.5832C11.1956 12.7713 11.348 12.9237 11.5361 12.9237Z" fill="#FFD83D" stroke="black" stroke-width="0.137847" stroke-linecap="round" stroke-linejoin="round"/>
<path d="M10.8075 13.1731C10.9956 13.1731 11.148 13.0207 11.148 12.8326C11.148 12.6446 10.9956 12.4921 10.8075 12.4921C10.6195 12.4921 10.467 12.6446 10.467 12.8326C10.467 13.0207 10.6195 13.1731 10.8075 13.1731Z" fill="#FFD83D" stroke="black" stroke-width="0.137847" stroke-linecap="round" stroke-linejoin="round"/>
<path d="M10.1939 13.6245C10.3819 13.6245 10.5344 13.4721 10.5344 13.284C10.5344 13.0959 10.3819 12.9435 10.1939 12.9435C10.0058 12.9435 9.85339 13.0959 9.85339 13.284C9.85339 13.4721 10.0058 13.6245 10.1939 13.6245Z" fill="#FFD83D" stroke="black" stroke-width="0.137847" stroke-linecap="round" stroke-linejoin="round"/>
<path d="M9.75835 14.254C9.9464 14.254 10.0988 14.1016 10.0988 13.9135C10.0988 13.7255 9.9464 13.573 9.75835 13.573C9.57029 13.573 9.41785 13.7255 9.41785 13.9135C9.41785 14.1016 9.57029 14.254 9.75835 14.254Z" fill="#FFD83D" stroke="black" stroke-width="0.137847" stroke-linecap="round" stroke-linejoin="round"/>
<path d="M9.54851 14.9944C9.73656 14.9944 9.88901 14.842 9.88901 14.6539C9.88901 14.4659 9.73656 14.3134 9.54851 14.3134C9.36045 14.3134 9.20801 14.4659 9.20801 14.6539C9.20801 14.842 9.36045 14.9944 9.54851 14.9944Z" fill="#FFD83D" stroke="black" stroke-width="0.137847" stroke-linecap="round" stroke-linejoin="round"/>
<path d="M9.55644 15.7625C9.74449 15.7625 9.89694 15.6101 9.89694 15.422C9.89694 15.234 9.74449 15.0815 9.55644 15.0815C9.36839 15.0815 9.21594 15.234 9.21594 15.422C9.21594 15.6101 9.36839 15.7625 9.55644 15.7625Z" fill="#FFD83D" stroke="black" stroke-width="0.137847" stroke-linecap="round" stroke-linejoin="round"/>
<path d="M9.70293 16.5148C9.89098 16.5148 10.0434 16.3623 10.0434 16.1743C10.0434 15.9862 9.89098 15.8338 9.70293 15.8338C9.51487 15.8338 9.36243 15.9862 9.36243 16.1743C9.36243 16.3623 9.51487 16.5148 9.70293 16.5148Z" fill="#FFD83D" stroke="black" stroke-width="0.137847" stroke-linecap="round" stroke-linejoin="round"/>
<path d="M15.5508 13.577L15.5191 14.0204C14.672 13.8906 13.4711 13.4186 12.3517 13.4186C11.3174 13.4186 10.5146 13.8323 10.5146 14.8756C10.5146 15.9039 10.95 16.8389 11.5282 17.7897L10.9264 18.0747C10.3886 17.0293 9.94446 16.1414 9.94446 14.939C9.94446 13.9327 10.7359 12.9435 12.0983 12.9435C13.3058 12.9435 14.5375 13.3504 15.5508 13.577Z" fill="#FFD83D" stroke="black" stroke-width="0.137847" stroke-linecap="round" stroke-linejoin="round"/>
<path d="M16.3977 13.767L16.5244 18.0747H20.8954C21.4332 17.0293 21.8773 16.1414 21.8773 14.939C21.8773 13.9327 21.0859 13.1335 19.9452 13.1335C18.7377 13.1335 17.411 13.5404 16.3977 13.767Z" fill="#FFD83D"/>
<path d="M21.3547 13.965V16.4515V13.965Z" fill="#FFD83D"/>
<path d="M21.3547 13.965V16.4515" stroke="black" stroke-width="0.103385" stroke-linecap="round" stroke-linejoin="round"/>
<path d="M21.0037 13.7113V17.0219V13.7113Z" fill="#FFD83D"/>
<path d="M21.0037 13.7113V17.0219" stroke="black" stroke-width="0.103385" stroke-linecap="round" stroke-linejoin="round"/>
<path d="M20.6526 13.5371V17.4812V13.5371Z" fill="#FFD83D"/>
<path d="M20.6526 13.5371V17.4812" stroke="black" stroke-width="0.103385" stroke-linecap="round" stroke-linejoin="round"/>
<path d="M20.3015 13.4557V16.549V13.4557Z" fill="#FFD83D"/>
<path d="M20.3015 13.4557V16.549" stroke="black" stroke-width="0.103385" stroke-linecap="round" stroke-linejoin="round"/>
<path d="M19.9504 13.4403V16.5644V13.4403Z" fill="#FFD83D"/>
<path d="M19.9504 13.4403V16.5644" stroke="black" stroke-width="0.103385" stroke-linecap="round" stroke-linejoin="round"/>
<path d="M19.5994 13.3312V16.5627V13.3312Z" fill="#FFD83D"/>
<path d="M19.5994 13.3312V16.5627" stroke="black" stroke-width="0.103385" stroke-linecap="round" stroke-linejoin="round"/>
<path d="M19.2484 13.3312V16.5627V13.3312Z" fill="#FFD83D"/>
<path d="M19.2484 13.3312V16.5627" stroke="black" stroke-width="0.103385" stroke-linecap="round" stroke-linejoin="round"/>
<path d="M18.8973 13.3629V16.5943V13.3629Z" fill="#FFD83D"/>
<path d="M18.8973 13.3629V16.5943" stroke="black" stroke-width="0.103385" stroke-linecap="round" stroke-linejoin="round"/>
<path d="M18.5463 13.3945V16.626V13.3945Z" fill="#FFD83D"/>
<path d="M18.5463 13.3945V16.626" stroke="black" stroke-width="0.103385" stroke-linecap="round" stroke-linejoin="round"/>
<path d="M18.1952 13.6004V16.8319V13.6004Z" fill="#FFD83D"/>
<path d="M18.1952 13.6004V16.8319" stroke="black" stroke-width="0.103385" stroke-linecap="round" stroke-linejoin="round"/>
<path d="M17.8441 13.6321V17.2753V13.6321Z" fill="#FFD83D"/>
<path d="M17.8441 13.6321V17.2753" stroke="black" stroke-width="0.103385" stroke-linecap="round" stroke-linejoin="round"/>
<path d="M17.493 13.6321V16.8636V13.6321Z" fill="#FFD83D"/>
<path d="M17.493 13.6321V16.8636" stroke="black" stroke-width="0.103385" stroke-linecap="round" stroke-linejoin="round"/>
<path d="M17.142 13.6321V16.8636V13.6321Z" fill="#FFD83D"/>
<path d="M17.142 13.6321V16.8636" stroke="black" stroke-width="0.103385" stroke-linecap="round" stroke-linejoin="round"/>
<path d="M19.1533 13.4662C18.4115 13.5885 16.782 14.3509 16.9678 15.3824C17.2312 16.8443 18.0849 16.2576 19.2167 16.0476L20.0719 16.3327C20.3779 16.645 20.8285 16.9312 21.133 16.5544H21.6398V18.534H16.0334V13.7512L19.1533 13.4662Z" fill="black" stroke="black" stroke-width="0.103385" stroke-linecap="round" stroke-linejoin="round"/>
<path d="M16.6431 13.4661C16.4551 13.4661 16.3026 13.3137 16.3026 13.1256C16.3026 12.9376 16.4551 12.7851 16.6431 12.7851C16.8312 12.7851 16.9836 12.9376 16.9836 13.1256C16.9836 13.3137 16.8312 13.4661 16.6431 13.4661Z" fill="#FFD83D" stroke="black" stroke-width="0.137847" stroke-linecap="round" stroke-linejoin="round"/>
<path d="M17.4084 13.282C17.2204 13.282 17.0679 13.1295 17.0679 12.9415C17.0679 12.7534 17.2204 12.601 17.4084 12.601C17.5965 12.601 17.7489 12.7534 17.7489 12.9415C17.7489 13.1295 17.5965 13.282 17.4084 13.282Z" fill="#FFD83D" stroke="black" stroke-width="0.137847" stroke-linecap="round" stroke-linejoin="round"/>
<path d="M18.1846 13.087C17.9966 13.087 17.8441 12.9345 17.8441 12.7465C17.8441 12.5584 17.9966 12.406 18.1846 12.406C18.3727 12.406 18.5251 12.5584 18.5251 12.7465C18.5251 12.9345 18.3727 13.087 18.1846 13.087Z" fill="#FFD83D" stroke="black" stroke-width="0.137847" stroke-linecap="round" stroke-linejoin="round"/>
<path d="M18.9639 12.957C18.7759 12.957 18.6234 12.8046 18.6234 12.6165C18.6234 12.4285 18.7759 12.276 18.9639 12.276C19.152 12.276 19.3044 12.4285 19.3044 12.6165C19.3044 12.8046 19.152 12.957 18.9639 12.957Z" fill="#FFD83D" stroke="black" stroke-width="0.137847" stroke-linecap="round" stroke-linejoin="round"/>
<path d="M19.7432 12.8802C19.5552 12.8802 19.4027 12.7277 19.4027 12.5397C19.4027 12.3516 19.5552 12.1992 19.7432 12.1992C19.9313 12.1992 20.0837 12.3516 20.0837 12.5397C20.0837 12.7277 19.9313 12.8802 19.7432 12.8802Z" fill="#FFD83D" stroke="black" stroke-width="0.137847" stroke-linecap="round" stroke-linejoin="round"/>
<path d="M20.5074 12.9237C20.3193 12.9237 20.1669 12.7713 20.1669 12.5832C20.1669 12.3952 20.3193 12.2427 20.5074 12.2427C20.6955 12.2427 20.8479 12.3952 20.8479 12.5832C20.8479 12.7713 20.6955 12.9237 20.5074 12.9237Z" fill="#FFD83D" stroke="black" stroke-width="0.137847" stroke-linecap="round" stroke-linejoin="round"/>
<path d="M21.2359 13.1731C21.0479 13.1731 20.8954 13.0207 20.8954 12.8326C20.8954 12.6446 21.0479 12.4921 21.2359 12.4921C21.424 12.4921 21.5764 12.6446 21.5764 12.8326C21.5764 13.0207 21.424 13.1731 21.2359 13.1731Z" fill="#FFD83D" stroke="black" stroke-width="0.137847" stroke-linecap="round" stroke-linejoin="round"/>
<path d="M21.8496 13.6245C21.6615 13.6245 21.5091 13.4721 21.5091 13.284C21.5091 13.0959 21.6615 12.9435 21.8496 12.9435C22.0376 12.9435 22.1901 13.0959 22.1901 13.284C22.1901 13.4721 22.0376 13.6245 21.8496 13.6245Z" fill="#FFD83D" stroke="black" stroke-width="0.137847" stroke-linecap="round" stroke-linejoin="round"/>
<path d="M22.2851 14.254C22.0971 14.254 21.9446 14.1016 21.9446 13.9135C21.9446 13.7255 22.0971 13.573 22.2851 13.573C22.4732 13.573 22.6256 13.7255 22.6256 13.9135C22.6256 14.1016 22.4732 14.254 22.2851 14.254Z" fill="#FFD83D" stroke="black" stroke-width="0.137847" stroke-linecap="round" stroke-linejoin="round"/>
<path d="M22.495 14.9944C22.3069 14.9944 22.1545 14.842 22.1545 14.6539C22.1545 14.4659 22.3069 14.3134 22.495 14.3134C22.683 14.3134 22.8354 14.4659 22.8354 14.6539C22.8354 14.842 22.683 14.9944 22.495 14.9944Z" fill="#FFD83D" stroke="black" stroke-width="0.137847" stroke-linecap="round" stroke-linejoin="round"/>
<path d="M22.487 15.7625C22.299 15.7625 22.1465 15.6101 22.1465 15.422C22.1465 15.234 22.299 15.0815 22.487 15.0815C22.6751 15.0815 22.8275 15.234 22.8275 15.422C22.8275 15.6101 22.6751 15.7625 22.487 15.7625Z" fill="#FFD83D" stroke="black" stroke-width="0.137847" stroke-linecap="round" stroke-linejoin="round"/>
<path d="M22.3405 16.5148C22.1525 16.5148 22 16.3623 22 16.1743C22 15.9862 22.1525 15.8338 22.3405 15.8338C22.5286 15.8338 22.681 15.9862 22.681 16.1743C22.681 16.3623 22.5286 16.5148 22.3405 16.5148Z" fill="#FFD83D" stroke="black" stroke-width="0.137847" stroke-linecap="round" stroke-linejoin="round"/>
<path d="M16.4926 13.577L16.5243 14.0204C17.3715 13.8906 18.5724 13.4186 19.6918 13.4186C20.726 13.4186 21.5289 13.8323 21.5289 14.8756C21.5289 15.9039 21.0934 16.8389 20.5153 17.7897L21.1171 18.0747C21.6549 17.0293 22.099 16.1414 22.099 14.939C22.099 13.9327 21.3075 12.9435 19.9451 12.9435C18.7376 12.9435 17.506 13.3504 16.4926 13.577Z" fill="#FFD83D" stroke="black" stroke-width="0.137847" stroke-linecap="round" stroke-linejoin="round"/>
<path d="M16.0313 9.00002L15.6759 9.66556L16.0313 10.3289L16.3867 9.66556L16.0313 9.00002ZM16.0313 10.68L15.6759 11.3434L16.0313 12.009L16.3867 11.3434L16.0313 10.68Z" fill="#FFD83D" stroke="black" stroke-width="0.137847" stroke-linecap="round" stroke-linejoin="round"/>
<path d="M14.7643 10.5045L15.3247 10.8599L15.8834 10.5045L15.3247 10.1491L14.7643 10.5045ZM16.179 10.5045L16.7376 10.8599L17.2981 10.5045L16.7376 10.1491L16.179 10.5045Z" fill="#FFD83D" stroke="black" stroke-width="0.137847" stroke-linecap="round" stroke-linejoin="round"/>
<path d="M16.0312 10.7817C16.1799 10.7817 16.3004 10.6612 16.3004 10.5125C16.3004 10.3638 16.1799 10.2432 16.0312 10.2432C15.8825 10.2432 15.762 10.3638 15.762 10.5125C15.762 10.6612 15.8825 10.7817 16.0312 10.7817Z" fill="#FFD83D" stroke="black" stroke-width="0.137847" stroke-linecap="round" stroke-linejoin="round"/>
<path d="M16.0313 12.9514C16.4292 12.9514 16.7518 12.6288 16.7518 12.2308C16.7518 11.8328 16.4292 11.5102 16.0313 11.5102C15.6333 11.5102 15.3107 11.8328 15.3107 12.2308C15.3107 12.6288 15.6333 12.9514 16.0313 12.9514Z" fill="#FFD83D" stroke="black" stroke-width="0.137847" stroke-linecap="round" stroke-linejoin="round"/>
<path d="M15.3334 12.4074C15.5605 12.3695 15.7934 12.3493 16.0312 12.3493C16.2691 12.3493 16.502 12.3695 16.7291 12.4074M15.8503 11.533C15.8503 11.7476 15.8488 11.8723 15.8481 11.9896C15.6744 11.9973 15.5031 12.0155 15.3355 12.0434L15.8503 11.533ZM16.7269 12.0434C16.5593 12.0155 16.388 11.9973 16.2143 11.9896C16.2143 11.8725 16.2143 11.7481 16.2143 11.533L16.7269 12.0434Z" stroke="black" stroke-width="0.103385" stroke-linecap="round" stroke-linejoin="round"/>
<path d="M15.3269 13.4499C15.2586 14.6272 15.1196 15.8263 14.6614 16.6979L15.4066 16.3963C15.6669 15.4088 15.7216 14.1327 15.8008 13.5296L15.3269 13.4499ZM16.7355 13.4499L16.2617 13.5296C16.3409 14.1327 16.3956 15.4088 16.6558 16.3963L17.4011 16.6979C16.9429 15.8263 16.8039 14.6272 16.7355 13.4499Z" fill="#FFD83D" stroke="black" stroke-width="0.137847" stroke-linecap="round" stroke-linejoin="round"/>
<path d="M16.0302 16C15.1401 16 14.4864 16.4195 14.4471 17.4884C14.2295 17.1055 13.3092 15.9013 12.4505 16.0625C11.9398 16.1584 11.4885 16.8666 11.5652 17.6779C11.1424 16.4628 9.90372 16.2637 9 16.9822C9.80242 17.642 10.1594 19.5899 10.8351 20.4348H16.0302H21.2253C21.901 19.5899 22.2601 17.642 23.0625 16.9822C22.1588 16.2637 20.9201 16.4628 20.4973 17.6779C20.574 16.8666 20.1206 16.1584 19.6099 16.0625C18.7512 15.9013 17.833 17.1055 17.6154 17.4884C17.5761 16.4195 16.9202 16 16.0302 16Z" fill="#FFD83D" stroke="black" stroke-width="0.137847" stroke-linecap="round" stroke-linejoin="round"/>
<path d="M21.21 20.4344C21.21 20.8191 18.89 21.2421 16.0313 21.2421C13.1726 21.2421 10.8525 20.8191 10.8525 20.4344C10.8525 20.0498 13.1726 19.8485 16.0313 19.8485C18.89 19.8485 21.21 20.0498 21.21 20.4344Z" fill="black" stroke="black" stroke-width="0.103385" stroke-linecap="round" stroke-linejoin="round"/>
<path d="M16.0313 13.4679C16.1647 13.4679 16.2728 13.3597 16.2728 13.2264C16.2728 13.093 16.1647 12.9848 16.0313 12.9848C15.8979 12.9848 15.7898 13.093 15.7898 13.2264C15.7898 13.3597 15.8979 13.4679 16.0313 13.4679Z" fill="#FFD83D" stroke="black" stroke-width="0.103385" stroke-linecap="round" stroke-linejoin="round"/>
<path d="M16.0313 14.0063C16.1734 14.0063 16.2886 13.8911 16.2886 13.749C16.2886 13.6068 16.1734 13.4916 16.0313 13.4916C15.8891 13.4916 15.7739 13.6068 15.7739 13.749C15.7739 13.8911 15.8891 14.0063 16.0313 14.0063Z" fill="#FFD83D" stroke="black" stroke-width="0.103385" stroke-linecap="round" stroke-linejoin="round"/>
<path d="M16.0312 14.5923C16.1865 14.5923 16.3123 14.4664 16.3123 14.3112C16.3123 14.1559 16.1865 14.0301 16.0312 14.0301C15.876 14.0301 15.7501 14.1559 15.7501 14.3112C15.7501 14.4664 15.876 14.5923 16.0312 14.5923Z" fill="#FFD83D" stroke="black" stroke-width="0.103385" stroke-linecap="round" stroke-linejoin="round"/>
<path d="M16.0313 15.2575C16.2084 15.2575 16.352 15.1139 16.352 14.9368C16.352 14.7596 16.2084 14.6161 16.0313 14.6161C15.8542 14.6161 15.7106 14.7596 15.7106 14.9368C15.7106 15.1139 15.8542 15.2575 16.0313 15.2575Z" fill="#FFD83D" stroke="black" stroke-width="0.103385" stroke-linecap="round" stroke-linejoin="round"/>
<path d="M16.0312 15.986C16.2258 15.986 16.3836 15.8282 16.3836 15.6336C16.3836 15.439 16.2258 15.2812 16.0312 15.2812C15.8366 15.2812 15.6788 15.439 15.6788 15.6336C15.6788 15.8282 15.8366 15.986 16.0312 15.986Z" fill="#FFD83D" stroke="black" stroke-width="0.103385" stroke-linecap="round" stroke-linejoin="round"/>
<path d="M15.8913 16.3114C15.8532 16.311 15.8171 16.3431 15.8266 16.4041C15.8379 16.476 15.8519 16.6105 15.8654 16.7013C15.8806 16.8042 15.9406 16.7792 15.9559 16.6991C15.9711 16.6191 15.965 16.5678 15.9688 16.4191C15.9707 16.3448 15.9294 16.3119 15.8913 16.3114ZM16.1713 16.3114C16.1332 16.3119 16.0918 16.3448 16.0937 16.4191C16.0975 16.5678 16.0914 16.6191 16.1066 16.6991C16.1219 16.7792 16.1819 16.8042 16.1971 16.7013C16.2106 16.6105 16.2247 16.476 16.2359 16.4041C16.2454 16.3431 16.2094 16.311 16.1713 16.3114ZM15.6414 16.3502C15.6066 16.3551 15.5704 16.3902 15.5725 16.4278C15.5763 16.4963 15.5953 16.5786 15.6026 16.6819C15.6103 16.7886 15.6855 16.7472 15.6931 16.6862C15.7007 16.6252 15.7093 16.5351 15.7017 16.417C15.6989 16.3727 15.6795 16.3532 15.6565 16.3502C15.6517 16.3496 15.6464 16.3495 15.6414 16.3502ZM16.406 16.3502C16.383 16.3532 16.3637 16.3727 16.3608 16.417C16.3532 16.5351 16.3618 16.6252 16.3694 16.6862C16.3771 16.7472 16.4523 16.7886 16.4599 16.6819C16.4673 16.5786 16.4862 16.4963 16.49 16.4278C16.4921 16.3902 16.456 16.3551 16.4211 16.3502C16.4161 16.3495 16.4108 16.3496 16.406 16.3502ZM15.342 16.4708C15.3101 16.4791 15.2808 16.5175 15.2903 16.5613C15.3094 16.649 15.327 16.7459 15.327 16.8348C15.327 16.9111 15.3921 16.8839 15.3959 16.8305C15.3997 16.7772 15.4066 16.6642 15.4066 16.5613C15.4066 16.4845 15.374 16.4626 15.342 16.4708ZM16.699 16.4708C16.6763 16.4771 16.6559 16.5037 16.6559 16.5613C16.6559 16.6642 16.6629 16.7772 16.6667 16.8305C16.6705 16.8839 16.7356 16.9111 16.7356 16.8348C16.7356 16.7459 16.7531 16.649 16.7722 16.5613C16.7817 16.5175 16.7524 16.4791 16.7205 16.4708C16.7125 16.4688 16.7065 16.4687 16.699 16.4708ZM12.626 16.4826C12.5878 16.4813 12.561 16.5332 12.5873 16.5903C12.6292 16.6818 12.6737 16.7395 12.7165 16.838C12.7546 16.9257 12.8131 16.871 12.794 16.81C12.775 16.749 12.7543 16.6811 12.6971 16.5515C12.6757 16.5029 12.6489 16.4834 12.626 16.4826ZM19.4365 16.4826C19.4136 16.4834 19.3869 16.5029 19.3654 16.5515C19.3083 16.6811 19.2876 16.749 19.2685 16.81C19.2495 16.871 19.3079 16.9257 19.346 16.838C19.3888 16.7395 19.4334 16.6818 19.4753 16.5903C19.5015 16.5332 19.4747 16.4813 19.4365 16.4826ZM12.9017 16.4869C12.8736 16.4955 12.8566 16.5312 12.8737 16.5731C12.908 16.6569 12.9576 16.7429 12.9922 16.8337C13.0227 16.9137 13.0905 16.891 13.0676 16.8186C13.0447 16.7462 13.0379 16.7038 12.9922 16.5666C12.9693 16.498 12.9298 16.4783 12.9017 16.4869ZM19.1393 16.4869C19.1152 16.4921 19.0875 16.5152 19.0703 16.5666C19.0246 16.7038 19.0178 16.7462 18.995 16.8186C18.9721 16.891 19.0399 16.9137 19.0703 16.8337C19.105 16.7429 19.1545 16.6569 19.1888 16.5731C19.206 16.5312 19.1889 16.4955 19.1608 16.4869C19.1538 16.4848 19.1473 16.4852 19.1393 16.4869ZM13.2463 16.5537C13.2109 16.5604 13.1835 16.6145 13.2076 16.6808C13.2381 16.7646 13.2815 16.844 13.3196 16.9392C13.3577 17.0345 13.421 17.0153 13.4057 16.9543C13.3905 16.8933 13.3718 16.7923 13.326 16.6398C13.306 16.5731 13.2739 16.5484 13.2463 16.5537ZM18.8162 16.5537C18.7886 16.5484 18.7565 16.5731 18.7365 16.6398C18.6907 16.7923 18.6721 16.8933 18.6568 16.9543C18.6416 17.0153 18.7048 17.0345 18.743 16.9392C18.7811 16.844 18.8245 16.7646 18.855 16.6808C18.8791 16.6145 18.8516 16.5604 18.8162 16.5537ZM12.3934 16.6011C12.355 16.605 12.3201 16.6676 12.3439 16.7152C12.382 16.7915 12.4062 16.8174 12.4429 16.8983C12.4811 16.9822 12.5228 16.9172 12.5076 16.8638C12.4923 16.8105 12.4728 16.7484 12.4537 16.6722C12.4398 16.6163 12.4164 16.5987 12.3934 16.6011ZM19.6691 16.6011C19.6461 16.5987 19.6228 16.6163 19.6088 16.6722C19.5898 16.7484 19.5702 16.8105 19.555 16.8638C19.5397 16.9172 19.5815 16.9822 19.6196 16.8983C19.6564 16.8174 19.6805 16.7915 19.7187 16.7152C19.7425 16.6676 19.7075 16.605 19.6691 16.6011ZM15.0491 16.7939C15.0089 16.7939 14.9659 16.8473 14.9802 16.8973C15.003 16.9773 15.0384 17.0483 15.0642 17.1515C15.087 17.2429 15.152 17.1974 15.1482 17.1364C15.1444 17.0754 15.1339 16.9924 15.1073 16.8628C15.0973 16.8142 15.0732 16.7939 15.0491 16.7939ZM17.0134 16.7939C16.9893 16.7939 16.9653 16.8142 16.9553 16.8628C16.9286 16.9924 16.9182 17.0754 16.9143 17.1364C16.9105 17.1974 16.9755 17.2429 16.9983 17.1515C17.0241 17.0483 17.0595 16.9773 17.0823 16.8973C17.0966 16.8473 17.0537 16.7939 17.0134 16.7939ZM16.0313 16.8758C15.9817 16.8758 15.9748 16.9423 15.9731 16.9964C15.9674 17.1736 15.8939 17.3457 15.831 17.4315C15.7681 17.5172 15.6755 17.4944 15.5897 17.4487C15.504 17.403 15.4529 17.3687 15.3614 17.3001C15.2699 17.2315 15.2006 17.2716 15.3097 17.4271C15.628 17.8807 15.9731 18.2683 15.9731 19.0081C15.9731 19.1037 15.9898 19.133 16.0313 19.133C16.0727 19.133 16.0916 19.1037 16.0916 19.0081C16.0916 18.2683 16.4346 17.8807 16.7528 17.4271C16.862 17.2716 16.7926 17.2315 16.7011 17.3001C16.6097 17.3687 16.5586 17.403 16.4728 17.4487C16.387 17.4944 16.2944 17.5172 16.2316 17.4315C16.1687 17.3457 16.0951 17.1736 16.0894 16.9964C16.0877 16.9423 16.0808 16.8758 16.0313 16.8758ZM13.5996 16.7648C13.5952 16.7647 13.5905 16.7657 13.5866 16.7669C13.5681 16.7728 13.5558 16.7951 13.563 16.8337C13.5757 16.9028 13.6236 17.0382 13.6426 17.1029C13.6617 17.1677 13.7414 17.1539 13.7223 17.0663C13.7033 16.9786 13.7043 16.9522 13.6814 16.8531C13.6689 16.7989 13.6299 16.7656 13.5996 16.7648ZM18.463 16.7648C18.4326 16.7656 18.3936 16.7989 18.3811 16.8531C18.3583 16.9522 18.3593 16.9786 18.3402 17.0663C18.3212 17.1539 18.4008 17.1677 18.4199 17.1029C18.4389 17.0382 18.4868 16.9028 18.4996 16.8337C18.5067 16.7951 18.4944 16.7728 18.4759 16.7669C18.472 16.7657 18.4673 16.7647 18.463 16.7648ZM12.1543 16.7928C12.1144 16.7959 12.0858 16.846 12.1263 16.9198C12.17 16.9996 12.245 17.0996 12.2793 17.1568C12.3136 17.2139 12.3729 17.1754 12.3309 17.1029C12.289 17.0305 12.275 16.9473 12.2254 16.8445C12.2068 16.8059 12.1783 16.7909 12.1543 16.7928ZM19.9082 16.7928C19.8843 16.7909 19.8557 16.8059 19.8371 16.8445C19.7876 16.9473 19.7735 17.0305 19.7316 17.1029C19.6896 17.1754 19.749 17.2139 19.7833 17.1568C19.8176 17.0996 19.8925 16.9996 19.9362 16.9198C19.9767 16.846 19.9481 16.7959 19.9082 16.7928ZM9.97033 17.0222C9.9243 17.0198 9.90987 17.1029 9.95309 17.1579C10.016 17.2379 10.0598 17.2804 10.1319 17.3453C10.1891 17.3967 10.2057 17.33 10.1771 17.2785C10.1485 17.2271 10.1072 17.1748 10.05 17.089C10.0187 17.042 9.99125 17.0233 9.97033 17.0222ZM22.0922 17.0222C22.0713 17.0233 22.0438 17.042 22.0125 17.089C21.9554 17.1748 21.914 17.2271 21.8854 17.2785C21.8569 17.33 21.8735 17.3967 21.9307 17.3453C22.0028 17.2804 22.0465 17.2379 22.1094 17.1579C22.1527 17.1029 22.1382 17.0198 22.0922 17.0222ZM10.3171 17.0911C10.2804 17.0916 10.2562 17.1187 10.2848 17.1816C10.3257 17.2716 10.3797 17.3736 10.414 17.4422C10.4483 17.5108 10.5528 17.5338 10.5109 17.4271C10.469 17.3204 10.4607 17.2656 10.4226 17.1665C10.4036 17.117 10.3538 17.0907 10.3171 17.0911ZM21.7454 17.0911C21.7088 17.0907 21.659 17.117 21.6399 17.1665C21.6018 17.2656 21.5935 17.3204 21.5516 17.4271C21.5097 17.5338 21.6142 17.5108 21.6485 17.4422C21.6828 17.3736 21.7368 17.2716 21.7777 17.1816C21.8063 17.1187 21.7821 17.0916 21.7454 17.0911ZM9.64509 17.1148C9.59176 17.1154 9.58717 17.1688 9.63432 17.2031C9.69723 17.2489 9.77219 17.2996 9.8454 17.3582C9.93114 17.4268 9.96436 17.3637 9.91863 17.3065C9.87291 17.2494 9.82836 17.1914 9.71402 17.1342C9.68543 17.1199 9.66287 17.1147 9.64509 17.1148ZM22.4174 17.1148C22.3997 17.1147 22.3771 17.1199 22.3485 17.1342C22.2342 17.1914 22.1896 17.2494 22.1439 17.3065C22.0982 17.3637 22.1314 17.4268 22.2171 17.3582C22.2903 17.2996 22.3653 17.2489 22.4282 17.2031C22.4754 17.1688 22.4708 17.1154 22.4174 17.1148ZM14.8596 17.1644C14.8297 17.1685 14.804 17.2024 14.8165 17.2462C14.8394 17.3262 14.8653 17.411 14.8811 17.4939C14.8964 17.574 14.989 17.5749 14.9737 17.5025C14.9585 17.4301 14.9508 17.3395 14.9242 17.229C14.9142 17.1875 14.8933 17.1676 14.8725 17.1644C14.8682 17.1637 14.8638 17.1638 14.8596 17.1644ZM17.19 17.1644C17.1692 17.1676 17.1484 17.1875 17.1383 17.229C17.1117 17.3395 17.104 17.4301 17.0888 17.5025C17.0736 17.5749 17.1662 17.574 17.1814 17.4939C17.1972 17.411 17.2232 17.3262 17.246 17.2462C17.2585 17.2024 17.2328 17.1685 17.203 17.1644C17.1987 17.1638 17.1944 17.1637 17.19 17.1644ZM12.7854 17.0275C12.762 17.034 12.7485 17.0788 12.766 17.1417C12.8632 17.4904 12.893 17.6741 12.8759 17.7599C12.8587 17.8456 12.8117 17.8574 12.7488 17.8288C12.6859 17.8002 12.6121 17.7589 12.5549 17.7189C12.4978 17.6789 12.4383 17.7268 12.5205 17.7943C12.9378 18.1373 13.2271 18.5293 13.3389 19.0048C13.3618 19.1019 13.4229 19.1134 13.4057 19.0048C13.3111 18.4058 13.2929 17.9135 13.4359 17.6048C13.4896 17.4888 13.4355 17.3774 13.3497 17.566C13.2926 17.6918 13.2001 17.7414 13.1257 17.6328C13.0514 17.5242 12.8979 17.2344 12.8522 17.1029C12.835 17.0536 12.8139 17.0308 12.7962 17.0275C12.7925 17.0269 12.7888 17.0266 12.7854 17.0275ZM19.2663 17.0275C19.2487 17.0308 19.2275 17.0536 19.2104 17.1029C19.1646 17.2344 19.0111 17.5242 18.9368 17.6328C18.8625 17.7414 18.77 17.6918 18.7128 17.566C18.627 17.3774 18.5729 17.4888 18.6267 17.6048C18.7696 17.9135 18.7514 18.4058 18.6568 19.0048C18.6397 19.1134 18.7007 19.1019 18.7236 19.0048C18.8355 18.5293 19.1247 18.1373 19.542 17.7943C19.6242 17.7268 19.5647 17.6789 19.5076 17.7189C19.4504 17.7589 19.3766 17.8002 19.3137 17.8288C19.2509 17.8574 19.2038 17.8456 19.1867 17.7599C19.1695 17.6741 19.1993 17.4904 19.2965 17.1417C19.314 17.0788 19.3006 17.034 19.2771 17.0275C19.2738 17.0266 19.27 17.0269 19.2663 17.0275ZM10.6876 17.1945C10.6499 17.195 10.6187 17.2214 10.6359 17.2785C10.6634 17.3701 10.7202 17.4691 10.7393 17.5262C10.7583 17.5834 10.8196 17.5567 10.8082 17.4767C10.7967 17.3967 10.7911 17.349 10.7759 17.2613C10.7682 17.2175 10.7252 17.194 10.6876 17.1945ZM21.375 17.1945C21.3373 17.194 21.2943 17.2175 21.2867 17.2613C21.2714 17.349 21.2658 17.3967 21.2544 17.4767C21.2429 17.5567 21.3042 17.5834 21.3233 17.5262C21.3423 17.4691 21.3992 17.3701 21.4267 17.2785C21.4438 17.2214 21.4126 17.195 21.375 17.1945ZM11.982 17.0749C11.9383 17.0671 11.932 17.18 11.9691 17.2257C12.0186 17.2867 12.0875 17.3604 12.1565 17.4432C12.2136 17.5119 12.249 17.4509 12.2146 17.3937C12.1803 17.3365 12.1295 17.2757 12.038 17.1309C12.0152 17.0947 11.9966 17.0775 11.982 17.0749ZM20.0805 17.0749C20.0659 17.0775 20.0474 17.0947 20.0245 17.1309C19.9331 17.2757 19.8822 17.3365 19.8479 17.3937C19.8136 17.4509 19.8489 17.5119 19.906 17.4432C19.9751 17.3604 20.0439 17.2867 20.0934 17.2257C20.1306 17.18 20.1243 17.0671 20.0805 17.0749ZM10.9826 17.3475C10.9555 17.3455 10.9324 17.3676 10.9439 17.4228C10.9598 17.4998 10.9829 17.5637 11.002 17.6361C11.0211 17.7085 11.0709 17.6961 11.0709 17.6275C11.0709 17.5589 11.0587 17.4823 11.0473 17.4099C11.0415 17.3737 11.0098 17.3494 10.9826 17.3475ZM21.0799 17.3475C21.0527 17.3494 21.021 17.3737 21.0153 17.4099C21.0038 17.4823 20.9916 17.5589 20.9916 17.6275C20.9916 17.6961 21.0415 17.7085 21.0605 17.6361C21.0796 17.5637 21.1027 17.4998 21.1187 17.4228C21.1301 17.3676 21.1071 17.3455 21.0799 17.3475ZM11.8851 17.4454C11.8424 17.4518 11.8049 17.4931 11.8549 17.5574C11.935 17.6603 12.0226 17.7325 12.0531 17.7706C12.0836 17.8087 12.1608 17.7947 12.1113 17.7146C12.0606 17.6328 11.984 17.5344 11.9497 17.4734C11.9369 17.4505 11.9107 17.4415 11.8851 17.4454ZM20.1602 17.4454C20.1414 17.4474 20.1225 17.4562 20.1128 17.4734C20.0785 17.5344 20.0019 17.6328 19.9513 17.7146C19.9017 17.7947 19.979 17.8087 20.0094 17.7706C20.0399 17.7325 20.1276 17.6603 20.2076 17.5574C20.2576 17.4931 20.2201 17.4518 20.1774 17.4454C20.171 17.4444 20.1665 17.4447 20.1602 17.4454ZM10.4614 17.733C10.4278 17.7299 10.4161 17.7571 10.4614 17.8191C10.5643 17.9601 10.6778 18.1735 10.6854 18.265C10.693 18.3565 10.6478 18.3555 10.6057 18.3555C10.4799 18.3555 10.4185 18.2636 10.3042 18.237C10.1898 18.2103 10.1732 18.2704 10.2546 18.3296C10.6738 18.6345 11.094 18.9747 11.2626 19.2838C11.3312 19.4095 11.424 19.4555 11.3725 19.3355C11.2149 18.9676 11.1766 18.6561 11.2109 18.4675C11.2453 18.2788 11.292 18.1518 11.2863 18.0431C11.2806 17.9345 11.219 17.942 11.1937 18.0431C11.1766 18.1118 11.1433 18.2027 11.1205 18.237C11.0976 18.2713 11.0057 18.2905 10.918 18.1724C10.8304 18.0542 10.6092 17.8268 10.5368 17.7696C10.5096 17.7482 10.4816 17.7348 10.4614 17.733ZM21.6011 17.733C21.5809 17.7348 21.5529 17.7482 21.5257 17.7696C21.4533 17.8268 21.2322 18.0542 21.1445 18.1724C21.0568 18.2905 20.9649 18.2713 20.942 18.237C20.9192 18.2027 20.886 18.1118 20.8688 18.0431C20.8435 17.942 20.7819 17.9345 20.7762 18.0431C20.7705 18.1518 20.8173 18.2788 20.8516 18.4675C20.8859 18.6561 20.8477 18.9676 20.69 19.3355C20.6386 19.4555 20.7313 19.4095 20.7999 19.2838C20.9685 18.9747 21.3887 18.6345 21.8079 18.3296C21.8893 18.2704 21.8727 18.2103 21.7584 18.237C21.644 18.2636 21.5826 18.3555 21.4568 18.3555C21.4147 18.3555 21.3695 18.3565 21.3771 18.265C21.3847 18.1735 21.4982 17.9601 21.6011 17.8191C21.6464 17.7571 21.6348 17.7299 21.6011 17.733Z" fill="black"/>
<path d="M11.0797 19.9951L11.2141 20.4206L11.0797 19.9951ZM11.3561 19.9144L11.4752 20.3445L11.3561 19.9144ZM11.6547 19.8653L11.7365 20.304L11.6547 19.8653ZM11.9318 19.8099L12.0194 20.2475L11.9318 19.8099ZM12.2872 19.7748L12.3583 20.2153L12.2872 19.7748ZM12.6652 19.7753L12.7418 20.2149L12.6652 19.7753ZM13.0342 19.6505L13.0895 20.0933L13.0342 19.6505ZM13.3813 19.6729L13.4367 20.1157L13.3813 19.6729ZM13.7173 19.6281L13.7727 20.0709L13.7173 19.6281ZM14.0545 19.5933L14.085 20.0385L14.0545 19.5933ZM14.4149 19.5932L14.4413 20.0386L14.4149 19.5932ZM14.7416 19.5706L14.7641 20.0163L14.7416 19.5706ZM15.1018 19.5482L15.1205 19.994L15.1018 19.5482ZM15.5162 19.537L15.5349 19.9828L15.5162 19.537ZM20.9829 19.9951L20.8485 20.4206L20.9829 19.9951ZM20.7064 19.9144L20.5874 20.3445L20.7064 19.9144ZM20.4079 19.8653L20.326 20.304L20.4079 19.8653ZM20.1308 19.8099L20.0432 20.2475L20.1308 19.8099ZM19.7754 19.7748L19.7042 20.2153L19.7754 19.7748ZM19.3974 19.7753L19.3207 20.2149L19.3974 19.7753ZM19.0284 19.6505L18.973 20.0933L19.0284 19.6505ZM18.6813 19.6729L18.6259 20.1157L18.6813 19.6729ZM18.3453 19.6281L18.2899 20.0709L18.3453 19.6281ZM18.0081 19.5933L17.9776 20.0385L18.0081 19.5933ZM17.6477 19.5932L17.6213 20.0386L17.6477 19.5932ZM17.321 19.5706L17.2985 20.0163L17.321 19.5706ZM16.9607 19.5482L16.942 19.994L16.9607 19.5482ZM16.5464 19.537L16.5277 19.9828L16.5464 19.537ZM16.0313 19.508V19.9989V19.508Z" fill="#FFD83D"/>
<path d="M16.0313 19.508V19.9989M11.0797 19.9951L11.2141 20.4206L11.0797 19.9951ZM11.3561 19.9144L11.4752 20.3445L11.3561 19.9144ZM11.6547 19.8653L11.7365 20.304L11.6547 19.8653ZM11.9318 19.8099L12.0194 20.2475L11.9318 19.8099ZM12.2872 19.7748L12.3583 20.2153L12.2872 19.7748ZM12.6652 19.7753L12.7418 20.2149L12.6652 19.7753ZM13.0342 19.6505L13.0895 20.0933L13.0342 19.6505ZM13.3813 19.6729L13.4367 20.1157L13.3813 19.6729ZM13.7173 19.6281L13.7727 20.0709L13.7173 19.6281ZM14.0545 19.5933L14.085 20.0385L14.0545 19.5933ZM14.4149 19.5932L14.4413 20.0386L14.4149 19.5932ZM14.7416 19.5706L14.7641 20.0163L14.7416 19.5706ZM15.1018 19.5482L15.1205 19.994L15.1018 19.5482ZM15.5162 19.537L15.5349 19.9828L15.5162 19.537ZM20.9829 19.9951L20.8485 20.4206L20.9829 19.9951ZM20.7064 19.9144L20.5874 20.3445L20.7064 19.9144ZM20.4079 19.8653L20.326 20.304L20.4079 19.8653ZM20.1308 19.8099L20.0432 20.2475L20.1308 19.8099ZM19.7754 19.7748L19.7042 20.2153L19.7754 19.7748ZM19.3974 19.7753L19.3207 20.2149L19.3974 19.7753ZM19.0284 19.6505L18.973 20.0933L19.0284 19.6505ZM18.6813 19.6729L18.6259 20.1157L18.6813 19.6729ZM18.3453 19.6281L18.2899 20.0709L18.3453 19.6281ZM18.0081 19.5933L17.9776 20.0385L18.0081 19.5933ZM17.6477 19.5932L17.6213 20.0386L17.6477 19.5932ZM17.321 19.5706L17.2985 20.0163L17.321 19.5706ZM16.9607 19.5482L16.942 19.994L16.9607 19.5482ZM16.5464 19.537L16.5277 19.9828L16.5464 19.537Z" stroke="black" stroke-width="0.103385" stroke-linecap="round" stroke-linejoin="round"/>
</g>
</svg>
