<svg width="54" height="48" viewBox="0 0 54 48" fill="none" xmlns="http://www.w3.org/2000/svg">
<mask id="mask0_1_29776" style="mask-type:alpha" maskUnits="userSpaceOnUse" x="3" y="6" width="48" height="36">
<path d="M3.56934 15.1356C4.16681 10.4125 8.0415 7.00193 12.7861 6.60887C16.6412 6.28949 21.6196 6 27 6C32.3804 6 37.3588 6.28949 41.2139 6.60887C45.9585 7.00193 49.8332 10.4125 50.4307 15.1356C50.752 17.6759 51 20.704 51 24C51 27.296 50.752 30.3241 50.4307 32.8644C49.8332 37.5875 45.9585 40.9981 41.2139 41.3911C37.3588 41.7105 32.3804 42 27 42C21.6196 42 16.6412 41.7105 12.7861 41.3911C8.0415 40.9981 4.16681 37.5875 3.56934 32.8644C3.248 30.3241 3 27.296 3 24C3 20.704 3.248 17.6759 3.56934 15.1356Z" fill="#00D0BF"/>
</mask>
<g mask="url(#mask0_1_29776)">
<rect x="49" y="40" width="44" height="32" rx="10" transform="rotate(-180 49 40)" fill="#8D0E44"/>
<path d="M31.8596 32.3186L32.0419 32.2134L32.1198 32.3188C32.2237 32.4593 32.511 32.4577 32.7017 32.3156L32.8475 32.207L32.9696 32.3156C33.1301 32.4584 33.4299 32.4586 33.6213 32.3161C33.7553 32.2163 33.774 32.2143 33.8626 32.2902C33.9154 32.3355 34.0704 32.387 34.2069 32.4048C34.4528 32.4367 34.4565 32.4349 34.6004 32.2191C34.7209 32.0383 34.7398 31.9652 34.711 31.7898C34.6919 31.6736 34.6714 31.4865 34.6654 31.3741C34.6545 31.1706 34.6556 31.1693 34.9521 31.0661C35.1158 31.0091 35.3054 30.9326 35.3733 30.8961C35.4917 30.8326 35.8182 30.4489 35.8182 30.3733C35.8182 30.3533 35.6906 30.3226 35.5348 30.3051C34.9147 30.2355 34.8097 29.9026 35.2128 29.2842C35.8701 28.2757 36.2668 27.2935 36.2694 26.6678C36.2706 26.3882 36.2865 26.2943 36.3225 26.3551C36.4693 26.6036 36.2062 27.6457 35.8077 28.3941L35.6472 28.6954L35.8003 28.6602C35.8846 28.6408 36.3797 28.4319 36.9007 28.1959C38.3267 27.55 38.8165 27.4235 39.7394 27.4623C40.5126 27.4949 40.8418 27.646 41.3877 28.2185C41.6769 28.5218 41.9555 28.7389 42.4651 29.0578C43.5509 29.7375 43.5962 29.7963 43.6478 30.5956C43.7001 31.4054 43.6741 31.4493 43.0616 31.5846C42.5381 31.7003 42.2099 31.9443 42.1219 32.2834C42.0749 32.4645 42.1738 32.4697 42.4377 32.3L42.6312 32.1757L42.7172 32.3C42.8302 32.4635 43.0706 32.4641 43.2702 32.3015L43.4209 32.1787L43.575 32.3015C43.8145 32.4923 44.133 32.4461 44.2228 32.2074C44.2401 32.1615 44.2862 32.1762 44.3796 32.2574C44.5545 32.4094 45.003 32.4746 45.0514 32.3551C45.0699 32.3095 45.0348 32.1968 44.9734 32.1047C44.7124 31.7135 44.6308 31.5269 44.6274 31.314C44.6227 31.0178 44.7111 30.8749 45.048 30.634C45.4572 30.3413 45.5837 29.9638 45.2725 29.9638C45.0803 29.9638 44.8866 29.7939 44.7631 29.5171C44.5119 28.9544 44.5611 28.3236 44.9381 27.2742C45.3209 26.2083 45.3634 26.0118 45.3649 25.2989C45.3661 24.7226 45.3516 24.6229 45.2205 24.3069C45.1403 24.1136 44.9776 23.826 44.8589 23.6676L44.6432 23.3796L44.9202 23.1501C45.766 22.4494 45.593 21.3026 44.5748 20.8607C44.2633 20.7256 44.1855 20.7136 43.6396 20.7173C43.3122 20.7195 42.8128 20.7626 42.53 20.8131C42.2417 20.8645 41.7536 20.9059 41.4188 20.9072C40.8869 20.9094 40.7966 20.8962 40.5916 20.7871C40.3779 20.6734 40.3412 20.6194 40.2994 20.3564C40.2908 20.3023 40.253 20.2484 40.2154 20.2366C40.1427 20.2136 39.807 20.505 39.7573 20.6341C39.7329 20.6978 39.7129 20.6934 39.6411 20.6084C39.5934 20.5521 39.5269 20.4225 39.4932 20.3205C39.4084 20.0641 39.5125 19.8718 39.8139 19.7277L40.0478 19.616L39.9099 19.5304C39.6253 19.3538 39.1414 19.4746 38.9664 19.7659C38.9169 19.8483 38.8629 19.9159 38.8464 19.9161C38.8299 19.9162 38.7358 19.8377 38.6373 19.7414C38.2699 19.3824 38.3962 18.8512 38.8877 18.689C39.1498 18.6025 39.3817 18.6685 39.4299 18.8432C39.5036 19.11 39.7326 18.7593 39.6915 18.4426C39.6642 18.2321 39.6683 18.2248 39.814 18.2248C40.0167 18.2248 40.4479 18.4907 40.5813 18.6979C40.7362 18.9386 40.725 19.3175 40.5545 19.5999L40.4206 19.8217L40.5957 19.7866C40.8525 19.7352 41.102 19.5757 41.2282 19.3823C41.3616 19.1779 41.376 18.7798 41.2577 18.5649C41.143 18.3567 41.1561 18.3237 41.3257 18.394C41.6139 18.5137 41.7681 18.6457 41.8837 18.8719C41.9878 19.0756 41.9936 19.1262 41.9372 19.3382C41.9025 19.469 41.8251 19.6411 41.7653 19.7206C41.6722 19.8444 41.669 19.8652 41.7432 19.8652C41.8813 19.8652 42.1698 19.7344 42.2723 19.6254C42.3241 19.5703 42.3995 19.4346 42.44 19.3239L42.5136 19.1226L42.5982 19.276C42.7177 19.493 42.9502 19.6883 43.2337 19.8098C43.5385 19.9405 43.6655 19.9479 43.5061 19.8256C43.3986 19.7432 43.2005 19.1619 43.2605 19.1051C43.2958 19.0716 43.7097 19.3901 44.1823 19.8143C44.6294 20.2156 44.9103 20.3471 45.3209 20.3471C45.8454 20.3471 46.1508 19.8905 45.915 19.4588C45.7776 19.2071 45.4714 19.1721 45.2924 19.3877C45.21 19.4868 45.1874 19.5657 45.2116 19.6696C45.2411 19.797 45.2296 19.814 45.1135 19.814C44.9611 19.814 44.6605 19.6189 44.1268 19.1736C43.3129 18.4944 42.324 17.9187 41.6098 17.7085C41.1516 17.5735 40.1726 17.5209 39.7068 17.6061C39.2026 17.6983 38.6062 17.9869 38.2813 18.2957C37.7057 18.8431 37.6965 19.5714 38.257 20.2346L38.4176 20.4246L38.3089 20.5935C38.1508 20.8391 38.1643 21.1697 38.3425 21.4132C38.421 21.5204 38.5001 21.6081 38.5184 21.6081C38.5367 21.608 38.5567 21.5391 38.5629 21.4548C38.5787 21.2418 38.6701 21.0991 38.827 21.0426C38.9684 20.9917 39.0598 21.0157 39.707 21.274C40.3879 21.5458 41.5076 21.5645 42.6982 21.3239C43.2819 21.206 43.9702 21.213 44.273 21.3398C44.8281 21.5723 44.9567 22.1773 44.5487 22.6365C44.3721 22.8353 44.2017 22.9163 43.6298 23.0733C43.1946 23.1927 43.0915 23.2006 42.1023 23.1908C41.2572 23.1823 40.9535 23.1985 40.6085 23.2706C40.234 23.3488 40.0036 23.3567 38.9035 23.3289L37.6315 23.2969L37.7725 23.4137C37.8501 23.4779 37.9597 23.557 38.0161 23.5893C38.112 23.6444 38.1088 23.6518 37.9662 23.7047C37.8824 23.7357 37.6964 23.7612 37.5529 23.7612H37.2919L37.2568 23.9829C37.2375 24.1049 37.239 24.2473 37.26 24.2994C37.2912 24.3762 37.2796 24.3873 37.1986 24.3578C37.1437 24.3379 36.9909 24.2987 36.8589 24.2707C36.727 24.2426 36.5494 24.1856 36.4643 24.1439C36.3211 24.0738 36.3052 24.0757 36.2525 24.169C36.2054 24.2523 35.7633 24.5813 35.6984 24.5813C35.688 24.5813 35.6745 24.5179 35.6684 24.4404C35.6624 24.3628 35.5986 24.161 35.5267 23.9918C35.4548 23.8227 35.3797 23.6381 35.3599 23.5817C35.3299 23.4967 35.3163 23.4923 35.2802 23.5561C35.2562 23.5984 35.2213 23.7137 35.2025 23.8124C35.1837 23.9111 35.1171 24.0714 35.0545 24.1686L34.9406 24.3455L34.868 24.1943C34.79 24.032 34.6606 23.8637 34.6137 23.8637C34.5979 23.8637 34.571 23.9156 34.5539 23.979C34.5182 24.1115 34.2112 24.4788 34.1363 24.4788C34.1087 24.4788 34.0861 24.375 34.0861 24.2481C34.0861 24.1213 34.0617 24.0174 34.032 24.0174C34.0022 24.0174 33.9778 24.0503 33.9778 24.0904C33.9778 24.1879 33.7157 24.4788 33.6278 24.4788C33.5895 24.4788 33.5277 24.5134 33.4907 24.5557C33.3941 24.666 33.315 24.6505 33.3556 24.5293C33.3747 24.4724 33.3623 24.3398 33.3281 24.2345C33.2939 24.1292 33.2576 24.0172 33.2473 23.9855C33.2344 23.9456 33.1405 23.9562 32.9417 24.0199C32.6205 24.1229 32.5128 24.1047 32.678 23.9753C32.7384 23.928 32.8303 23.7641 32.8821 23.6112C32.934 23.4582 33.0106 23.3225 33.0523 23.3096C33.1106 23.2915 33.1075 23.3139 33.0387 23.4069C32.9896 23.4733 32.9493 23.5629 32.9491 23.6059C32.9491 23.649 32.9119 23.7511 32.8669 23.8328C32.8219 23.9146 32.7936 23.9895 32.804 23.9994C32.8145 24.0093 32.9367 23.9628 33.0757 23.8962L33.3283 23.7751L33.3293 23.8834C33.3299 23.943 33.3604 24.1003 33.397 24.2329L33.4636 24.4739L33.6356 24.3949C33.8113 24.3141 33.9778 24.0261 33.9778 23.8028C33.9778 23.6924 34.041 23.7094 34.0669 23.8267C34.0745 23.8611 34.1142 23.9903 34.1551 24.1138L34.2295 24.3384L34.3473 24.1966C34.412 24.1186 34.4932 23.9657 34.5277 23.8567C34.5875 23.6676 34.6815 23.5862 34.6815 23.7236C34.6815 23.8226 34.9516 24.1776 35.0037 24.1471C35.0289 24.1323 35.079 23.9991 35.1151 23.851C35.1903 23.543 35.3114 23.3335 35.3884 23.3786C35.4173 23.3955 35.4286 23.4284 35.4134 23.4516C35.3983 23.4749 35.4605 23.6751 35.5517 23.8966C35.6429 24.1181 35.7345 24.3411 35.7552 24.3922C35.7886 24.4743 35.8187 24.4624 36.0142 24.2897C36.1359 24.1822 36.2463 24.0619 36.2596 24.0224C36.2797 23.9626 36.3068 23.9648 36.4206 24.0354C36.5797 24.1341 37.1147 24.2932 37.156 24.2541C37.1715 24.2394 37.1874 24.0989 37.1913 23.9418L37.1984 23.6563L37.3522 23.6882C37.4369 23.7057 37.6148 23.7046 37.7476 23.6858L37.9891 23.6515L37.7739 23.5038C37.6555 23.4226 37.5358 23.3175 37.5079 23.2702C37.4781 23.2199 37.3728 23.1772 37.2534 23.167C36.931 23.1396 36.3594 22.8191 36.3594 22.6656C36.3594 22.6368 36.4386 22.6858 36.5353 22.7745C36.75 22.9712 37.0482 23.0947 37.3086 23.0947H37.5035L37.3829 22.9344C37.3137 22.8422 37.2516 22.6675 37.237 22.5238C37.2137 22.2947 37.1895 22.2583 36.9503 22.092C36.8066 21.9921 36.6286 21.8423 36.5548 21.7592L36.4205 21.6081L36.352 21.7875C36.3144 21.8862 36.2683 21.9669 36.2497 21.9669C36.2311 21.9669 36.1587 21.9093 36.0888 21.8388C36.0189 21.7683 35.9476 21.7109 35.9305 21.7112C35.9133 21.7115 35.8514 21.8065 35.7928 21.9222L35.6864 22.1326L35.6041 22.0113C35.5588 21.9446 35.4519 21.8266 35.3665 21.7491C35.2811 21.6715 35.2362 21.6081 35.2667 21.6081C35.2972 21.6081 35.4026 21.6889 35.501 21.7876L35.6797 21.9671L35.7525 21.8356C35.7956 21.7575 35.8118 21.6377 35.7923 21.5408C35.7637 21.3995 35.7678 21.3913 35.8219 21.4799C35.8564 21.5363 35.9609 21.6444 36.0543 21.7202L36.2241 21.8579L36.3412 21.6433C36.4578 21.4297 36.4587 21.4293 36.5117 21.5568C36.5827 21.7274 37.0961 22.1483 37.5332 22.3942C37.6006 22.4321 37.5721 22.3018 37.4477 22.0021C37.4148 21.9227 37.3878 21.7796 37.3878 21.6841C37.3878 21.5424 37.3469 21.4793 37.1657 21.3414C36.9041 21.1423 36.8195 21.0007 36.7702 20.6795C36.7502 20.5494 36.7044 20.4047 36.6684 20.3579C36.615 20.2885 36.6062 20.3274 36.6205 20.5689C36.6301 20.7316 36.6089 20.934 36.5734 21.0186L36.5089 21.1724L36.459 21.0442C36.4315 20.9737 36.3101 20.8512 36.1892 20.7718C36.0683 20.6925 35.9834 20.6143 36.0006 20.598C36.0178 20.5817 36.1422 20.654 36.2771 20.7586C36.4825 20.9181 36.5277 20.9353 36.5562 20.8651C36.5896 20.7826 36.5562 20.4236 36.4916 20.1728C36.4593 20.0475 36.4622 20.0482 36.6167 20.2027C36.7307 20.3166 36.7937 20.4526 36.8425 20.6897C36.9045 20.9909 36.9358 21.0411 37.2144 21.2856C37.3816 21.4325 37.5272 21.5444 37.5379 21.5344C37.5485 21.5243 37.5696 21.1443 37.5848 20.69C37.6138 19.8189 37.581 19.6116 37.3712 19.3425L37.2634 19.2042L37.4328 19.0214C37.6539 18.7829 37.7554 18.5918 37.7994 18.331L37.8352 18.1189L37.644 18.3C37.4874 18.4483 37.4126 18.4811 37.2313 18.4811C37.0517 18.4811 36.9815 18.4511 36.8605 18.3221C36.7153 18.1674 36.458 18.0185 36.2105 17.946C36.1191 17.9193 36.0887 17.9309 36.0887 17.9927C36.0887 18.0381 36.0383 18.1689 35.9765 18.2834L35.8644 18.4917L35.6293 18.2593C35.4851 18.1168 35.314 18.0059 35.1867 17.9724C34.8614 17.8869 34.8438 17.8954 34.8438 18.1377C34.8438 18.5052 34.6869 18.5737 34.4044 18.3294C34.1891 18.1432 34.0105 18.1027 33.6023 18.1476L33.2869 18.1822L33.3437 18.3246C33.3911 18.4435 33.3804 18.4935 33.2789 18.6286C33.1142 18.8476 32.9 18.9425 32.5704 18.9425C32.4186 18.9425 32.2286 18.9739 32.1482 19.0123C32.0679 19.0507 31.8681 19.0949 31.7044 19.1106C31.5406 19.1263 31.3661 19.1543 31.3166 19.1728C31.239 19.2017 31.2305 19.1779 31.2555 19.0015C31.2937 18.7315 31.1051 18.5324 30.8113 18.5324C30.43 18.5324 30.2541 18.8734 30.4034 19.3233C30.4322 19.4099 30.4698 19.5465 30.487 19.6268C30.5049 19.7101 30.6766 19.9312 30.887 20.1417C31.0897 20.3445 31.2814 20.5557 31.3128 20.6108C31.3443 20.6659 31.4483 20.7544 31.5439 20.8074L31.7179 20.9038L31.6949 20.7177C31.6697 20.5132 31.7143 20.4811 31.8231 20.6254C31.862 20.677 31.9608 20.7604 32.0427 20.8107C32.1716 20.89 32.1915 20.8916 32.1915 20.8228C32.1915 20.7791 32.2178 20.6784 32.2499 20.599L32.3084 20.4547L32.4097 20.6511C32.4655 20.7591 32.6468 21.0045 32.8126 21.1965C33.1344 21.569 33.3305 21.9853 33.2293 22.0811C33.1883 22.12 33.0773 22.117 32.8474 22.0707C32.6691 22.0349 32.4486 22.016 32.3574 22.0287C32.1711 22.0545 32.1564 22.0305 32.271 21.887C32.3919 21.7356 32.3727 21.7106 32.1351 21.7106C31.8602 21.7106 31.1778 21.5789 30.9159 21.4752C30.6612 21.3744 30.6024 21.3995 30.5274 21.6411C30.4937 21.7498 30.4319 21.9468 30.3901 22.0789L30.3142 22.319L30.5898 22.2925C30.7414 22.2779 30.9363 22.2447 31.023 22.2187C31.1097 22.1928 31.1885 22.179 31.1981 22.1881C31.2077 22.1972 31.1691 22.291 31.1122 22.3966L31.0089 22.5885L31.1807 22.5535C31.2752 22.5343 31.4174 22.4871 31.4966 22.4488C31.6346 22.382 31.6457 22.3869 31.7545 22.5615C31.8882 22.7763 31.9953 22.7674 32.019 22.5397C32.0436 22.3043 32.121 22.3391 32.2667 22.6511C32.4068 22.9511 32.5525 23.057 32.5806 22.8792C32.5898 22.8201 32.6653 22.724 32.7483 22.6656C32.916 22.5474 33.0425 22.5828 33.1149 22.7684C33.19 22.9605 33.0226 23.1585 32.5359 23.4535C31.5608 24.0446 30.994 24.853 30.8322 25.8833C30.6863 26.8126 31.1421 27.773 32.0566 28.4627C32.4942 28.7928 33.1893 29.1412 33.1452 29.0082C32.9576 28.4437 32.9637 27.3666 33.1556 27.1849C33.1844 27.1576 33.1745 27.27 33.1336 27.4346C32.9812 28.0479 33.0474 28.5366 33.438 29.6819C33.7912 30.7178 33.7423 31.1605 33.2424 31.4532C33.0818 31.5471 32.9784 31.5626 32.5467 31.5574C32.0783 31.5517 32.0272 31.5611 31.8768 31.681C31.731 31.7972 31.542 32.1786 31.542 32.3567C31.542 32.4531 31.6491 32.4403 31.8595 32.3188L31.8596 32.3186Z" fill="#FCD95E"/>
<path d="M39.4635 32.2978L39.66 32.1715L39.7934 32.2978C39.9681 32.4632 40.1728 32.4595 40.3407 32.2879C40.414 32.213 40.4798 32.1611 40.487 32.1725C40.4941 32.184 40.5268 32.2395 40.5596 32.2959C40.6011 32.3673 40.6865 32.4032 40.8406 32.4141C41.0263 32.4272 41.0761 32.4092 41.1499 32.3026L41.2378 32.1754L41.4313 32.2998C41.9608 32.6401 42.243 32.283 42.0064 31.572C41.886 31.2104 41.9522 31.0072 42.3401 30.547C42.5036 30.353 42.6376 30.1458 42.6377 30.0867C42.6377 29.9925 42.6075 29.9799 42.3898 29.9842C42.1815 29.9884 42.1206 29.966 42.0109 29.8453C41.8326 29.649 41.8432 29.4242 42.0425 29.1747L42.2018 28.9754L41.9192 28.7836C41.7638 28.6781 41.4836 28.4286 41.2964 28.2291C40.8762 27.7811 40.463 27.5686 39.9181 27.5204L39.5527 27.4881L39.5533 27.7646C39.554 28.1206 39.7211 28.4631 40.1771 29.0432C40.6956 29.7028 40.7318 29.8049 40.7529 30.667L40.7706 31.3961L40.6206 31.5384C40.485 31.667 40.4238 31.6835 39.9863 31.7087C39.5698 31.7327 39.4823 31.7542 39.3601 31.8625C39.1978 32.0063 39.1492 32.0845 39.0991 32.2831C39.0699 32.3989 39.0817 32.4241 39.1652 32.4241C39.2212 32.4241 39.3554 32.3673 39.4635 32.2978L39.4635 32.2978Z" fill="#FCD95E"/>
<path d="M28.3184 30.4135C28.3647 30.3508 28.4026 30.2496 28.4026 30.1886C28.4026 30.0964 28.4438 30.0718 28.6464 30.043L28.8902 30.0084L28.7276 29.8789C28.5345 29.725 28.5166 29.6047 28.6868 29.6045C28.8564 29.6045 29.1435 29.4284 29.1871 29.2982C29.2074 29.2376 29.1947 29.1567 29.1583 29.1152C29.0632 29.0068 28.8845 29.0231 28.8513 29.1433C28.8157 29.2725 28.7559 29.2729 28.6205 29.1446C28.4168 28.9517 28.4122 28.5523 28.6111 28.3198C28.7048 28.2102 28.7039 28.203 28.5845 28.0899C28.456 27.9682 28.3642 27.7273 28.4246 27.6701C28.4438 27.6519 28.5453 27.6664 28.6502 27.7023C28.7992 27.7533 28.8581 27.7541 28.9195 27.7058C29.1055 27.5597 28.904 27.3717 28.6057 27.4131C28.4856 27.4298 28.436 27.4131 28.4188 27.3509C28.4058 27.3036 28.3008 27.242 28.1825 27.2121C27.9711 27.1586 27.9696 27.1593 27.9696 27.3049C27.9696 27.4645 27.8785 27.4946 27.7054 27.3922C27.5647 27.309 27.4283 27.3736 27.4283 27.5234C27.4283 27.6632 27.5689 27.7321 27.8208 27.7159C28.014 27.7034 28.0211 27.8471 27.8377 28.0536L27.7057 28.2021L27.8102 28.3523C27.9651 28.5747 27.952 28.9441 27.7829 29.1275L27.6503 29.2714L27.5633 29.156C27.4424 28.9958 27.2771 29.0065 27.2317 29.1776C27.202 29.2896 27.2266 29.3408 27.3669 29.4595C27.4612 29.5393 27.5988 29.6046 27.6728 29.6046C27.8558 29.6046 27.8486 29.7485 27.6584 29.8939L27.5095 30.0077L27.7396 30.0434C27.8661 30.063 27.9696 30.0999 27.9696 30.1254C27.9696 30.2232 28.129 30.5273 28.1803 30.5273C28.2099 30.5273 28.272 30.476 28.3184 30.4134L28.3184 30.4135Z" fill="#FCD95E"/>
<path d="M31.3138 29.1151C31.5228 29.0327 31.9751 28.6497 31.9751 28.5551C31.9751 28.5253 31.8502 28.388 31.6976 28.2499C31.3765 27.9594 31.0272 27.4701 30.9367 27.184C30.8895 27.0348 30.6615 26.7794 30.0192 26.1565L29.1644 25.3275L28.9181 25.3899C28.7826 25.4242 28.6173 25.4531 28.5507 25.4542C28.436 25.4559 28.4381 25.4625 28.5906 25.5805L28.7515 25.705L28.977 25.5798C29.1957 25.4585 29.2034 25.4577 29.2304 25.5554C29.2462 25.6126 29.2121 25.7116 29.1517 25.7844C29.0931 25.855 29.0597 25.935 29.0775 25.9623C29.0953 25.9895 29.039 26.0465 28.9524 26.0889C28.7919 26.1675 28.6805 26.4263 28.8072 26.4263C28.9211 26.4263 29.1724 26.1163 29.1434 26.0114C29.1286 25.9577 29.1358 25.9025 29.1594 25.8887C29.2572 25.8314 29.2511 26.0748 29.1517 26.1945C29.0931 26.265 29.0597 26.3451 29.0775 26.3723C29.0953 26.3996 29.039 26.4566 28.9524 26.499C28.793 26.5771 28.6804 26.8364 28.806 26.8364C28.929 26.8364 29.1762 26.5401 29.1456 26.4293C29.1296 26.3713 29.1358 26.3126 29.1594 26.2988C29.2253 26.2602 29.2608 26.4523 29.2052 26.5465C29.1754 26.5969 29.1757 26.6658 29.2059 26.7204C29.2606 26.8193 29.2051 27.0092 29.1043 27.0683C29.061 27.0936 29.0903 27.1432 29.1952 27.2224C29.347 27.3371 29.3499 27.3491 29.3499 27.8549C29.3499 28.2776 29.367 28.3867 29.4446 28.4602C29.5318 28.5428 29.5394 28.5431 29.5394 28.4639C29.5394 28.3774 29.6912 28.2717 29.8153 28.2717C29.852 28.2717 30.0809 28.4657 30.3239 28.7028C30.5685 28.9413 30.8244 29.1442 30.8969 29.1571C30.9689 29.17 31.0469 29.1836 31.0702 29.1875C31.0935 29.1913 31.2031 29.1588 31.3137 29.1151L31.3138 29.1151Z" fill="#FCD95E"/>
<path d="M28.7004 27.0702C28.7004 26.9339 28.4194 26.7885 28.0832 26.7508C27.8118 26.7203 27.8073 26.722 27.8073 26.8576C27.8073 26.9699 27.85 27.014 28.0374 27.0956C28.3384 27.2267 28.7004 27.2128 28.7004 27.0702L28.7004 27.0702Z" fill="#FCD95E"/>
<path d="M29.0084 27.0578C29.1455 26.9334 29.2105 26.7854 29.128 26.7854C29.0332 26.7854 28.7814 27.0113 28.7814 27.0965C28.7814 27.2293 28.8281 27.2214 29.0084 27.0578V27.0578Z" fill="#FCD95E"/>
<path d="M28.7163 26.6548C28.7279 26.5779 28.6804 26.5266 28.5378 26.4622C28.2304 26.3233 27.8628 26.259 27.7742 26.3286C27.6112 26.4568 27.7198 26.6289 27.9833 26.6598C28.0894 26.6723 28.2333 26.7046 28.303 26.7317C28.5056 26.8104 28.6982 26.7745 28.7163 26.6548Z" fill="#FCD95E"/>
<path d="M28.7163 26.2431C28.7329 26.1334 28.6627 26.0942 28.0902 25.8926C27.6628 25.7422 27.4736 25.8132 27.6102 26.0726C27.6578 26.163 27.7377 26.2043 27.9168 26.2311C28.05 26.2511 28.232 26.2901 28.3214 26.3178C28.56 26.3919 28.6978 26.3658 28.7163 26.2431L28.7163 26.2431Z" fill="#FCD95E"/>
<path d="M29.0031 25.8572C29.0895 25.7696 29.1601 25.6663 29.1601 25.6276C29.1601 25.5019 28.819 25.7242 28.7755 25.8782C28.7233 26.0629 28.8079 26.0551 29.0031 25.8572L29.0031 25.8572Z" fill="#FCD95E"/>
<path d="M28.7163 25.8313C28.7351 25.7064 28.5274 25.5936 28.1188 25.5068C27.8191 25.4432 27.6868 25.4793 27.7093 25.6186C27.7215 25.6946 27.8214 25.7502 28.1046 25.8386C28.5578 25.98 28.6941 25.9784 28.7163 25.8313L28.7163 25.8313Z" fill="#FCD95E"/>
<path d="M29.1159 25.2498C29.6394 25.0168 29.6847 24.4291 29.191 24.2748C28.9861 24.2107 28.8552 24.2453 28.7768 24.3841C28.7167 24.4904 28.7569 24.6837 28.839 24.6837C28.8668 24.6837 28.8895 24.7195 28.8895 24.7632C28.8895 24.9673 28.0902 25.0597 27.7624 24.8936C27.6472 24.8352 27.5971 24.6837 27.6929 24.6837C27.7645 24.6837 27.8141 24.5293 27.7775 24.4201C27.7276 24.2713 27.5777 24.2198 27.3602 24.2767C26.8694 24.405 26.8832 24.9816 27.3829 25.2263C27.7925 25.427 28.6907 25.4392 29.1159 25.2499L29.1159 25.2498Z" fill="#FCD95E"/>
<path d="M28.7903 24.798C28.8206 24.7693 28.8075 24.7252 28.7566 24.6852C28.6453 24.5977 28.6513 24.4676 28.7733 24.3187C28.865 24.2068 28.8765 24.0394 28.908 22.351C28.9624 19.4412 29.1788 17.2526 29.464 16.7276C29.5775 16.5186 29.5616 16.5177 29.2682 16.7174C28.8902 16.9745 28.6025 17.3094 28.3475 17.7887C27.8661 18.6938 27.6989 19.9114 27.6989 22.5105C27.6989 23.9862 27.7089 24.1793 27.793 24.318C27.8728 24.4498 27.8771 24.4985 27.821 24.6392C27.7846 24.7304 27.7681 24.8176 27.7843 24.833C27.8918 24.9347 28.6747 24.9077 28.7903 24.7983V24.798Z" fill="#FCD95E"/>
<path d="M33.1889 22.0233C33.2053 21.9982 33.1691 21.8713 33.1084 21.7414C33.0138 21.5388 32.9757 21.5051 32.8409 21.5051C32.4186 21.5051 31.7398 21.3164 31.04 21.0045C30.6359 20.8244 30.4963 20.783 30.4479 20.8289C30.3242 20.946 30.5297 21.224 30.848 21.37C31.1303 21.4997 31.9195 21.6589 32.2795 21.6589C32.4884 21.6589 32.4933 21.6683 32.3745 21.8401L32.287 21.9665L32.5233 21.9726C32.6533 21.9759 32.8326 21.9962 32.922 22.0178C33.1539 22.0737 33.1561 22.0737 33.189 22.0233L33.1889 22.0233Z" fill="#FCD95E"/>
<path d="M35.6555 23.3346C35.6555 23.2594 35.4347 23.0556 35.2108 22.9243C35.0351 22.8211 35.0061 22.818 35.0057 22.9021C35.0051 23.0298 34.8915 23.3507 34.8469 23.3507C34.8218 23.3507 34.7846 23.288 34.7643 23.2113C34.744 23.1347 34.6588 22.9837 34.5749 22.8757L34.4225 22.6795L34.3038 22.8613C34.1932 23.0309 34.0016 23.1969 33.9165 23.1969C33.8962 23.1969 33.8922 23.1076 33.9077 22.9985C33.9245 22.8799 33.9115 22.7859 33.8755 22.7648C33.8423 22.7454 33.8152 22.7521 33.8152 22.7798C33.8152 22.8437 33.549 23.1456 33.4927 23.1456C33.4695 23.1456 33.437 23.0591 33.4205 22.9534C33.404 22.8477 33.376 22.6804 33.3582 22.5817C33.3404 22.4831 33.3783 22.55 33.4424 22.7304L33.559 23.0586L33.6868 22.8586C33.7571 22.7486 33.8147 22.6284 33.8149 22.5915C33.8149 22.5546 33.8388 22.5383 33.8677 22.5552C33.8966 22.5721 33.9369 22.7043 33.9571 22.849L33.994 23.112L34.1346 22.9578C34.212 22.873 34.3026 22.7595 34.336 22.7055C34.3957 22.6092 34.3991 22.6093 34.5177 22.7099C34.5842 22.7663 34.6864 22.9012 34.7449 23.0096C34.8033 23.1181 34.859 23.1988 34.8685 23.189C34.8781 23.1793 34.8995 23.0675 34.9161 22.9406C34.9328 22.8137 34.9476 22.7052 34.9491 22.6994C34.9574 22.668 35.3727 22.938 35.5264 23.0747C35.6252 23.1626 35.719 23.2222 35.7349 23.2071C35.7508 23.1921 35.7638 23.0625 35.7638 22.919C35.7638 22.6968 35.7402 22.6372 35.6043 22.5157C35.448 22.376 35.4436 22.3753 35.3859 22.4775C35.3109 22.6101 35.2225 22.612 35.2225 22.481C35.2225 22.3854 34.9272 22.0179 34.8503 22.0179C34.8304 22.0179 34.7682 22.0986 34.7121 22.1973C34.656 22.2959 34.5956 22.3766 34.578 22.3765C34.5022 22.376 34.0858 21.9118 34.086 21.828C34.086 21.7613 34.1141 21.7784 34.1871 21.8897C34.2426 21.9743 34.3534 22.1005 34.4333 22.1703C34.5952 22.3115 34.6541 22.2772 34.7165 22.005C34.7343 21.9275 34.7653 21.8641 34.7853 21.8641C34.8545 21.8641 35.2169 22.249 35.2679 22.3767L35.3191 22.5048L35.3579 22.3639C35.4053 22.1915 35.4576 22.1851 35.5333 22.3424C35.5649 22.4081 35.721 22.5447 35.8803 22.646L36.1698 22.8301L36.2279 22.6449C36.2598 22.5431 36.3022 22.4845 36.3219 22.5148C36.3514 22.56 36.2762 22.8669 36.2194 22.9329C36.2109 22.9428 36.1171 22.8882 36.0109 22.8115L35.8179 22.6721L35.8172 22.9217C35.8166 23.0589 35.8018 23.2231 35.7838 23.2866C35.7487 23.4106 35.6555 23.4455 35.6555 23.3346L35.6555 23.3346Z" fill="black"/>
<path d="M34.2122 21.3449C33.8681 21.0576 33.8159 20.9919 33.8235 20.8557L33.8316 20.7108L33.854 20.8508C33.8672 20.9325 33.9588 21.055 34.0743 21.1452L34.2721 21.2995L34.3936 21.159C34.4605 21.0817 34.516 20.9896 34.5171 20.9543C34.5199 20.8624 34.5364 20.8701 34.7693 21.0723C34.9763 21.2518 34.9795 21.2527 35.0103 21.1363C35.0275 21.0715 35.0214 20.9493 34.9968 20.8649C34.9292 20.633 34.9424 20.598 35.0449 20.7379C35.096 20.8076 35.178 20.9061 35.2273 20.9569C35.3131 21.0452 35.3183 21.0441 35.3503 20.9312C35.3686 20.8664 35.3839 20.7477 35.3843 20.6675L35.3851 20.5217L35.5717 20.7332C35.746 20.9308 35.7621 20.9381 35.8153 20.844C35.8466 20.7886 35.8726 20.6552 35.8731 20.5476C35.8737 20.4086 35.8883 20.3736 35.9237 20.4265C35.9827 20.5148 35.9417 20.7554 35.8327 20.9605L35.7545 21.1076L35.6518 20.9477C35.5205 20.7431 35.4768 20.7464 35.3925 20.9671C35.3128 21.1757 35.2611 21.1916 35.1835 21.0312C35.1332 20.9274 35.1237 20.9401 35.088 21.1582L35.0484 21.4005L34.8111 21.2163L34.5737 21.0321L34.467 21.1534C34.4083 21.2201 34.3595 21.3035 34.3585 21.3388C34.3563 21.4152 34.2992 21.4175 34.2122 21.3449L34.2122 21.3449Z" fill="black"/>
<path d="M37.2727 20.2748C37.1475 20.162 37.0612 20.0544 37.081 20.0356C37.1008 20.0169 37.1231 20.0115 37.1305 20.0237C37.138 20.0359 37.2403 20.1435 37.358 20.2629C37.629 20.5378 37.5733 20.5456 37.2727 20.2748V20.2748Z" fill="black"/>
<path d="M33.196 19.8535C33.0821 19.6995 33.09 19.5974 33.2286 19.4305C33.3289 19.3098 33.3746 19.2934 33.5496 19.3157C33.6619 19.3299 33.9034 19.4291 34.0864 19.5361C34.2977 19.6596 34.5163 19.7423 34.6856 19.7629C34.8322 19.7807 34.9521 19.7874 34.9521 19.7778C34.9521 19.7682 34.8912 19.669 34.8168 19.5574C34.64 19.2922 34.6461 19.2637 34.8454 19.4226C35.0501 19.5857 35.2948 19.6334 35.8418 19.6167L36.109 19.6086L35.954 19.4554C35.7372 19.241 35.8039 19.2218 36.0433 19.4296C36.2679 19.6245 36.2538 19.6383 35.7812 19.6854C35.5803 19.7055 35.3644 19.6909 35.1848 19.6453C34.9162 19.577 34.9058 19.578 34.9567 19.6681C34.986 19.7199 35.0335 19.7624 35.0622 19.7624C35.091 19.7624 35.1145 19.7887 35.1145 19.8208C35.1145 19.9197 34.5343 19.8328 34.2571 19.6924C33.6238 19.3717 33.5441 19.344 33.3933 19.3915C33.3095 19.4179 33.2255 19.4953 33.1966 19.5728C33.1001 19.8314 33.4668 20.0325 33.6181 19.8038C33.662 19.7376 33.6517 19.6923 33.5747 19.6116C33.4691 19.5012 33.479 19.4854 33.6215 19.5372C33.7227 19.574 33.7363 19.8168 33.6422 19.9059C33.5345 20.0079 33.2888 19.979 33.196 19.8535L33.196 19.8535Z" fill="black"/>
<path d="M35.6906 19.2148C35.6114 19.1398 35.6735 19.1214 36.0286 19.1148C36.4678 19.1066 36.7346 19.0334 37.0493 18.8347C37.3015 18.6755 37.3699 18.7068 37.1305 18.8719C36.9122 19.0225 36.5716 19.1383 36.2427 19.1737C36.0835 19.1908 35.902 19.2145 35.8395 19.2264C35.7769 19.2383 35.7099 19.2331 35.6906 19.2148L35.6906 19.2148Z" fill="black"/>
<rect x="6" y="9" width="8" height="32" fill="#1C6864"/>
<rect x="14" y="9" width="8" height="32" fill="#FFA654"/>
<rect x="22" y="9" width="3" height="32" fill="#FCD95E"/>
<rect x="49.5" y="40.5" width="45" height="33" rx="8.5" transform="rotate(-180 49.5 40.5)" stroke="#FCD95E" stroke-width="3"/>
</g>
</svg>
