<svg width="54" height="54" viewBox="0 0 54 54" fill="none" xmlns="http://www.w3.org/2000/svg">
<mask id="mask0_1_29776" style="mask-type:alpha" maskUnits="userSpaceOnUse" x="3" y="9" width="48" height="36">
<path d="M3.56934 18.1356C4.16681 13.4125 8.0415 10.0019 12.7861 9.60887C16.6412 9.28949 21.6196 9 27 9C32.3804 9 37.3588 9.28949 41.2139 9.60887C45.9585 10.0019 49.8332 13.4125 50.4307 18.1356C50.752 20.6759 51 23.704 51 27C51 30.296 50.752 33.3241 50.4307 35.8644C49.8332 40.5875 45.9585 43.9981 41.2139 44.3911C37.3588 44.7105 32.3804 45 27 45C21.6196 45 16.6412 44.7105 12.7861 44.3911C8.04151 43.9981 4.16681 40.5875 3.56934 35.8644C3.248 33.3241 3 30.296 3 27C3 23.704 3.248 20.6759 3.56934 18.1356Z" fill="#00D0BF"/>
</mask>
<g mask="url(#mask0_1_29776)">
<rect x="49" y="43" width="44" height="32" rx="10" transform="rotate(-180 49 43)" fill="#8D0E44"/>
<path d="M31.8596 35.3186L32.0419 35.2134L32.1198 35.3188C32.2237 35.4593 32.511 35.4577 32.7017 35.3156L32.8475 35.207L32.9696 35.3156C33.1301 35.4584 33.4299 35.4586 33.6213 35.3161C33.7553 35.2163 33.774 35.2143 33.8626 35.2902C33.9154 35.3355 34.0704 35.387 34.2069 35.4048C34.4528 35.4367 34.4565 35.4349 34.6004 35.2191C34.7209 35.0383 34.7398 34.9652 34.711 34.7898C34.6919 34.6736 34.6714 34.4865 34.6654 34.3741C34.6545 34.1706 34.6556 34.1693 34.9521 34.0661C35.1158 34.0091 35.3054 33.9326 35.3733 33.8961C35.4917 33.8326 35.8182 33.4489 35.8182 33.3733C35.8182 33.3533 35.6906 33.3226 35.5348 33.3051C34.9147 33.2355 34.8097 32.9026 35.2128 32.2842C35.8701 31.2757 36.2668 30.2935 36.2694 29.6678C36.2706 29.3882 36.2865 29.2943 36.3225 29.3551C36.4693 29.6036 36.2062 30.6457 35.8077 31.3941L35.6472 31.6954L35.8003 31.6602C35.8846 31.6408 36.3797 31.4319 36.9007 31.1959C38.3267 30.55 38.8165 30.4235 39.7394 30.4623C40.5126 30.4949 40.8418 30.646 41.3877 31.2185C41.6769 31.5218 41.9555 31.7389 42.4651 32.0578C43.5509 32.7375 43.5962 32.7963 43.6478 33.5956C43.7001 34.4054 43.6741 34.4493 43.0616 34.5846C42.5381 34.7003 42.2099 34.9443 42.1219 35.2834C42.0749 35.4645 42.1738 35.4697 42.4377 35.3L42.6312 35.1757L42.7172 35.3C42.8302 35.4635 43.0706 35.4641 43.2702 35.3015L43.4209 35.1787L43.575 35.3015C43.8145 35.4923 44.133 35.4461 44.2228 35.2074C44.2401 35.1615 44.2862 35.1762 44.3796 35.2574C44.5545 35.4094 45.003 35.4746 45.0514 35.3551C45.0699 35.3095 45.0348 35.1968 44.9734 35.1047C44.7124 34.7135 44.6308 34.5269 44.6274 34.314C44.6227 34.0178 44.7111 33.8749 45.048 33.634C45.4572 33.3413 45.5837 32.9638 45.2725 32.9638C45.0803 32.9638 44.8866 32.7939 44.7631 32.5171C44.5119 31.9544 44.5611 31.3236 44.9381 30.2742C45.3209 29.2083 45.3634 29.0118 45.3649 28.2989C45.3661 27.7226 45.3516 27.6229 45.2205 27.3069C45.1403 27.1136 44.9776 26.826 44.8589 26.6676L44.6432 26.3796L44.9202 26.1501C45.766 25.4494 45.593 24.3026 44.5748 23.8607C44.2633 23.7256 44.1855 23.7136 43.6396 23.7173C43.3122 23.7195 42.8128 23.7626 42.53 23.8131C42.2417 23.8645 41.7536 23.9059 41.4188 23.9072C40.8869 23.9094 40.7966 23.8962 40.5916 23.7871C40.3779 23.6734 40.3412 23.6194 40.2994 23.3564C40.2908 23.3023 40.253 23.2484 40.2154 23.2366C40.1427 23.2136 39.807 23.505 39.7573 23.6341C39.7329 23.6978 39.7129 23.6934 39.6411 23.6084C39.5934 23.5521 39.5269 23.4225 39.4932 23.3205C39.4084 23.0641 39.5125 22.8718 39.8139 22.7277L40.0478 22.616L39.9099 22.5304C39.6253 22.3538 39.1414 22.4746 38.9664 22.7659C38.9169 22.8483 38.8629 22.9159 38.8464 22.9161C38.8299 22.9162 38.7358 22.8377 38.6373 22.7414C38.2699 22.3824 38.3962 21.8512 38.8877 21.689C39.1498 21.6025 39.3817 21.6685 39.4299 21.8432C39.5036 22.11 39.7326 21.7593 39.6915 21.4426C39.6642 21.2321 39.6683 21.2248 39.814 21.2248C40.0167 21.2248 40.4479 21.4907 40.5813 21.6979C40.7362 21.9386 40.725 22.3175 40.5545 22.5999L40.4206 22.8217L40.5957 22.7866C40.8525 22.7352 41.102 22.5757 41.2282 22.3823C41.3616 22.1779 41.376 21.7798 41.2577 21.5649C41.143 21.3567 41.1561 21.3237 41.3257 21.394C41.6139 21.5137 41.7681 21.6457 41.8837 21.8719C41.9878 22.0756 41.9936 22.1262 41.9372 22.3382C41.9025 22.469 41.8251 22.6411 41.7653 22.7206C41.6722 22.8444 41.669 22.8652 41.7432 22.8652C41.8813 22.8652 42.1698 22.7344 42.2723 22.6254C42.3241 22.5703 42.3995 22.4346 42.44 22.3239L42.5136 22.1226L42.5982 22.276C42.7177 22.493 42.9502 22.6883 43.2337 22.8098C43.5385 22.9405 43.6655 22.9479 43.5061 22.8256C43.3986 22.7432 43.2005 22.1619 43.2605 22.1051C43.2958 22.0716 43.7097 22.3901 44.1823 22.8143C44.6294 23.2156 44.9103 23.3471 45.3209 23.3471C45.8454 23.3471 46.1508 22.8905 45.915 22.4588C45.7776 22.2071 45.4714 22.1721 45.2924 22.3877C45.21 22.4868 45.1874 22.5657 45.2116 22.6696C45.2411 22.797 45.2296 22.814 45.1135 22.814C44.9611 22.814 44.6605 22.6189 44.1268 22.1736C43.3129 21.4944 42.324 20.9187 41.6098 20.7085C41.1516 20.5735 40.1726 20.5209 39.7068 20.6061C39.2026 20.6983 38.6062 20.9869 38.2813 21.2957C37.7057 21.8431 37.6965 22.5714 38.257 23.2346L38.4176 23.4246L38.3089 23.5935C38.1508 23.8391 38.1643 24.1697 38.3425 24.4132C38.421 24.5204 38.5001 24.6081 38.5184 24.6081C38.5367 24.608 38.5567 24.5391 38.5629 24.4548C38.5787 24.2418 38.6701 24.0991 38.827 24.0426C38.9684 23.9917 39.0598 24.0157 39.707 24.274C40.3879 24.5458 41.5076 24.5645 42.6982 24.3239C43.2819 24.206 43.9702 24.213 44.273 24.3398C44.8281 24.5723 44.9567 25.1773 44.5487 25.6365C44.3721 25.8353 44.2017 25.9163 43.6298 26.0733C43.1946 26.1927 43.0915 26.2006 42.1023 26.1908C41.2572 26.1823 40.9535 26.1985 40.6085 26.2706C40.234 26.3488 40.0036 26.3567 38.9035 26.3289L37.6315 26.2969L37.7725 26.4137C37.8501 26.4779 37.9597 26.557 38.0161 26.5893C38.112 26.6444 38.1088 26.6518 37.9662 26.7047C37.8824 26.7357 37.6964 26.7612 37.5529 26.7612H37.2919L37.2568 26.9829C37.2375 27.1049 37.239 27.2473 37.26 27.2994C37.2912 27.3762 37.2796 27.3873 37.1986 27.3578C37.1437 27.3379 36.9909 27.2987 36.8589 27.2707C36.727 27.2426 36.5494 27.1856 36.4643 27.1439C36.3211 27.0738 36.3052 27.0757 36.2525 27.169C36.2054 27.2523 35.7633 27.5813 35.6984 27.5813C35.688 27.5813 35.6745 27.5179 35.6684 27.4404C35.6624 27.3628 35.5986 27.161 35.5267 26.9918C35.4548 26.8227 35.3797 26.6381 35.3599 26.5817C35.3299 26.4967 35.3163 26.4923 35.2802 26.5561C35.2562 26.5984 35.2213 26.7137 35.2025 26.8124C35.1837 26.9111 35.1171 27.0714 35.0545 27.1686L34.9406 27.3455L34.868 27.1943C34.79 27.032 34.6606 26.8637 34.6137 26.8637C34.5979 26.8637 34.571 26.9156 34.5539 26.979C34.5182 27.1115 34.2112 27.4788 34.1363 27.4788C34.1087 27.4788 34.0861 27.375 34.0861 27.2481C34.0861 27.1213 34.0617 27.0174 34.032 27.0174C34.0022 27.0174 33.9778 27.0503 33.9778 27.0904C33.9778 27.1879 33.7157 27.4788 33.6278 27.4788C33.5895 27.4788 33.5277 27.5134 33.4907 27.5557C33.3941 27.666 33.315 27.6505 33.3556 27.5293C33.3747 27.4724 33.3623 27.3398 33.3281 27.2345C33.2939 27.1292 33.2576 27.0172 33.2473 26.9855C33.2344 26.9456 33.1405 26.9562 32.9417 27.0199C32.6205 27.1229 32.5128 27.1047 32.678 26.9753C32.7384 26.928 32.8303 26.7641 32.8821 26.6112C32.934 26.4582 33.0106 26.3225 33.0523 26.3096C33.1106 26.2915 33.1075 26.3139 33.0387 26.4069C32.9896 26.4733 32.9493 26.5629 32.9491 26.6059C32.9491 26.649 32.9119 26.7511 32.8669 26.8328C32.8219 26.9146 32.7936 26.9895 32.804 26.9994C32.8145 27.0093 32.9367 26.9628 33.0757 26.8962L33.3283 26.7751L33.3293 26.8834C33.3299 26.943 33.3604 27.1003 33.397 27.2329L33.4636 27.4739L33.6356 27.3949C33.8113 27.3141 33.9778 27.0261 33.9778 26.8028C33.9778 26.6924 34.041 26.7094 34.0669 26.8267C34.0745 26.8611 34.1142 26.9903 34.1551 27.1138L34.2295 27.3384L34.3473 27.1966C34.412 27.1186 34.4932 26.9657 34.5277 26.8567C34.5875 26.6676 34.6815 26.5862 34.6815 26.7236C34.6815 26.8226 34.9516 27.1776 35.0037 27.1471C35.0289 27.1323 35.079 26.9991 35.1152 26.851C35.1903 26.543 35.3114 26.3335 35.3884 26.3786C35.4173 26.3955 35.4286 26.4284 35.4134 26.4516C35.3983 26.4749 35.4605 26.6751 35.5517 26.8966C35.6429 27.1181 35.7345 27.3411 35.7552 27.3922C35.7886 27.4743 35.8187 27.4624 36.0142 27.2897C36.1359 27.1822 36.2463 27.0619 36.2596 27.0224C36.2797 26.9626 36.3068 26.9648 36.4206 27.0354C36.5797 27.1341 37.1147 27.2932 37.156 27.2541C37.1715 27.2394 37.1874 27.0989 37.1913 26.9418L37.1984 26.6563L37.3522 26.6882C37.4369 26.7057 37.6148 26.7046 37.7476 26.6858L37.9891 26.6515L37.7739 26.5038C37.6555 26.4226 37.5358 26.3175 37.5079 26.2702C37.4781 26.2199 37.3728 26.1772 37.2534 26.167C36.931 26.1396 36.3594 25.8191 36.3594 25.6656C36.3594 25.6368 36.4386 25.6858 36.5353 25.7745C36.75 25.9712 37.0482 26.0947 37.3086 26.0947H37.5035L37.3829 25.9344C37.3137 25.8422 37.2516 25.6675 37.237 25.5238C37.2137 25.2947 37.1895 25.2583 36.9503 25.092C36.8066 24.9921 36.6286 24.8423 36.5548 24.7592L36.4205 24.6081L36.352 24.7875C36.3144 24.8862 36.2683 24.9669 36.2497 24.9669C36.2311 24.9669 36.1587 24.9093 36.0888 24.8388C36.0189 24.7683 35.9476 24.7109 35.9305 24.7112C35.9133 24.7115 35.8514 24.8065 35.7928 24.9222L35.6864 25.1326L35.6041 25.0113C35.5588 24.9446 35.4519 24.8266 35.3665 24.7491C35.2811 24.6715 35.2362 24.6081 35.2667 24.6081C35.2972 24.6081 35.4026 24.6889 35.501 24.7876L35.6797 24.9671L35.7525 24.8356C35.7956 24.7575 35.8118 24.6377 35.7923 24.5408C35.7637 24.3995 35.7678 24.3913 35.8219 24.4799C35.8564 24.5363 35.9609 24.6444 36.0543 24.7202L36.2241 24.8579L36.3412 24.6433C36.4578 24.4297 36.4587 24.4293 36.5117 24.5568C36.5827 24.7274 37.0961 25.1483 37.5332 25.3942C37.6006 25.4321 37.5721 25.3018 37.4477 25.0021C37.4148 24.9227 37.3878 24.7796 37.3878 24.6841C37.3878 24.5424 37.3469 24.4793 37.1657 24.3414C36.9041 24.1423 36.8195 24.0007 36.7702 23.6795C36.7502 23.5494 36.7044 23.4047 36.6684 23.3579C36.615 23.2885 36.6062 23.3274 36.6205 23.5689C36.6301 23.7316 36.6089 23.934 36.5734 24.0186L36.5089 24.1724L36.459 24.0442C36.4315 23.9737 36.3101 23.8512 36.1892 23.7718C36.0683 23.6925 35.9834 23.6143 36.0006 23.598C36.0178 23.5817 36.1422 23.654 36.2771 23.7586C36.4825 23.9181 36.5277 23.9353 36.5562 23.8651C36.5896 23.7826 36.5562 23.4236 36.4916 23.1728C36.4593 23.0475 36.4622 23.0482 36.6167 23.2027C36.7307 23.3166 36.7937 23.4526 36.8425 23.6897C36.9045 23.9909 36.9358 24.0411 37.2144 24.2856C37.3816 24.4325 37.5272 24.5444 37.5379 24.5344C37.5485 24.5243 37.5696 24.1443 37.5848 23.69C37.6138 22.8189 37.581 22.6116 37.3712 22.3425L37.2634 22.2042L37.4328 22.0214C37.6539 21.7829 37.7554 21.5918 37.7994 21.331L37.8352 21.1189L37.644 21.3C37.4874 21.4483 37.4126 21.4811 37.2313 21.4811C37.0517 21.4811 36.9815 21.4511 36.8605 21.3221C36.7153 21.1674 36.458 21.0185 36.2105 20.946C36.1191 20.9193 36.0887 20.9309 36.0887 20.9927C36.0887 21.0381 36.0383 21.1689 35.9765 21.2834L35.8644 21.4917L35.6293 21.2593C35.4851 21.1168 35.314 21.0059 35.1867 20.9724C34.8614 20.8869 34.8438 20.8954 34.8438 21.1377C34.8438 21.5052 34.6869 21.5737 34.4044 21.3294C34.1891 21.1432 34.0105 21.1027 33.6023 21.1476L33.2869 21.1822L33.3437 21.3246C33.3911 21.4435 33.3804 21.4935 33.2789 21.6286C33.1142 21.8476 32.9 21.9425 32.5704 21.9425C32.4186 21.9425 32.2286 21.9739 32.1482 22.0123C32.0679 22.0507 31.8681 22.0949 31.7044 22.1106C31.5406 22.1263 31.3661 22.1543 31.3166 22.1728C31.239 22.2017 31.2305 22.1779 31.2555 22.0015C31.2937 21.7315 31.1051 21.5324 30.8113 21.5324C30.43 21.5324 30.2541 21.8734 30.4034 22.3233C30.4322 22.4099 30.4698 22.5465 30.487 22.6268C30.5049 22.7101 30.6766 22.9312 30.887 23.1417C31.0897 23.3445 31.2814 23.5557 31.3128 23.6108C31.3443 23.6659 31.4483 23.7544 31.5439 23.8074L31.7179 23.9038L31.6949 23.7177C31.6697 23.5132 31.7143 23.4811 31.8231 23.6254C31.862 23.677 31.9608 23.7604 32.0427 23.8107C32.1716 23.89 32.1915 23.8916 32.1915 23.8228C32.1915 23.7791 32.2178 23.6784 32.2499 23.599L32.3084 23.4547L32.4097 23.6511C32.4655 23.7591 32.6468 24.0045 32.8126 24.1965C33.1344 24.569 33.3305 24.9853 33.2293 25.0811C33.1883 25.12 33.0773 25.117 32.8474 25.0707C32.6691 25.0349 32.4486 25.016 32.3574 25.0287C32.1711 25.0545 32.1564 25.0305 32.271 24.887C32.3919 24.7356 32.3727 24.7106 32.1351 24.7106C31.8602 24.7106 31.1778 24.5789 30.9159 24.4752C30.6612 24.3744 30.6024 24.3995 30.5274 24.6411C30.4937 24.7498 30.4319 24.9468 30.3901 25.0789L30.3142 25.319L30.5898 25.2925C30.7414 25.2779 30.9363 25.2447 31.023 25.2187C31.1097 25.1928 31.1885 25.179 31.1981 25.1881C31.2077 25.1972 31.1691 25.291 31.1122 25.3966L31.0089 25.5885L31.1807 25.5535C31.2752 25.5343 31.4174 25.4871 31.4966 25.4488C31.6346 25.382 31.6457 25.3869 31.7545 25.5615C31.8882 25.7763 31.9953 25.7674 32.019 25.5397C32.0436 25.3043 32.121 25.3391 32.2667 25.6511C32.4068 25.9511 32.5525 26.057 32.5806 25.8792C32.5898 25.8201 32.6653 25.724 32.7483 25.6656C32.916 25.5474 33.0425 25.5828 33.1149 25.7684C33.19 25.9605 33.0226 26.1585 32.5359 26.4535C31.5608 27.0446 30.994 27.853 30.8322 28.8833C30.6863 29.8126 31.1421 30.773 32.0566 31.4627C32.4942 31.7928 33.1893 32.1412 33.1452 32.0082C32.9576 31.4437 32.9637 30.3666 33.1556 30.1849C33.1844 30.1576 33.1745 30.27 33.1336 30.4346C32.9812 31.0479 33.0474 31.5366 33.438 32.6819C33.7912 33.7178 33.7423 34.1605 33.2424 34.4532C33.0818 34.5471 32.9784 34.5626 32.5467 34.5574C32.0783 34.5517 32.0272 34.5611 31.8768 34.681C31.731 34.7972 31.542 35.1786 31.542 35.3567C31.542 35.4531 31.6491 35.4403 31.8595 35.3188L31.8596 35.3186Z" fill="#FCD95E"/>
<path d="M39.4635 35.2978L39.66 35.1715L39.7934 35.2978C39.9681 35.4632 40.1728 35.4595 40.3407 35.2879C40.414 35.213 40.4798 35.1611 40.487 35.1725C40.4941 35.184 40.5268 35.2395 40.5596 35.2959C40.6011 35.3673 40.6865 35.4032 40.8406 35.4141C41.0263 35.4272 41.0761 35.4092 41.1499 35.3026L41.2378 35.1754L41.4313 35.2998C41.9608 35.6401 42.243 35.283 42.0064 34.572C41.886 34.2104 41.9522 34.0072 42.3401 33.547C42.5036 33.353 42.6376 33.1458 42.6377 33.0867C42.6377 32.9925 42.6075 32.9799 42.3898 32.9842C42.1815 32.9884 42.1206 32.966 42.0109 32.8453C41.8326 32.649 41.8432 32.4242 42.0425 32.1747L42.2018 31.9754L41.9192 31.7836C41.7638 31.6781 41.4836 31.4286 41.2964 31.2291C40.8762 30.7811 40.463 30.5686 39.9181 30.5204L39.5527 30.4881L39.5533 30.7646C39.554 31.1206 39.7211 31.4631 40.1771 32.0432C40.6956 32.7028 40.7318 32.8049 40.7529 33.667L40.7706 34.3961L40.6206 34.5384C40.485 34.667 40.4238 34.6835 39.9863 34.7087C39.5698 34.7327 39.4823 34.7542 39.3601 34.8625C39.1978 35.0063 39.1492 35.0845 39.0991 35.2831C39.0699 35.3989 39.0817 35.4241 39.1652 35.4241C39.2212 35.4241 39.3554 35.3673 39.4635 35.2978L39.4635 35.2978Z" fill="#FCD95E"/>
<path d="M28.3184 33.4135C28.3647 33.3508 28.4026 33.2496 28.4026 33.1886C28.4026 33.0964 28.4438 33.0718 28.6464 33.043L28.8902 33.0084L28.7276 32.8789C28.5345 32.725 28.5166 32.6047 28.6868 32.6045C28.8564 32.6045 29.1435 32.4284 29.1871 32.2982C29.2074 32.2376 29.1947 32.1567 29.1583 32.1152C29.0632 32.0068 28.8845 32.0231 28.8513 32.1433C28.8157 32.2725 28.7559 32.2729 28.6205 32.1446C28.4168 31.9517 28.4122 31.5523 28.6111 31.3198C28.7048 31.2102 28.7039 31.203 28.5845 31.0899C28.456 30.9682 28.3642 30.7273 28.4246 30.6701C28.4438 30.6519 28.5453 30.6664 28.6502 30.7023C28.7992 30.7533 28.8581 30.7541 28.9195 30.7058C29.1055 30.5597 28.904 30.3717 28.6057 30.4131C28.4856 30.4298 28.436 30.4131 28.4188 30.3509C28.4058 30.3036 28.3008 30.242 28.1825 30.2121C27.9711 30.1586 27.9696 30.1593 27.9696 30.3049C27.9696 30.4645 27.8785 30.4946 27.7054 30.3922C27.5647 30.309 27.4283 30.3736 27.4283 30.5234C27.4283 30.6632 27.5689 30.7321 27.8208 30.7159C28.014 30.7034 28.0211 30.8471 27.8377 31.0536L27.7057 31.2021L27.8102 31.3523C27.9651 31.5747 27.952 31.9441 27.7829 32.1275L27.6503 32.2714L27.5633 32.156C27.4424 31.9958 27.2771 32.0065 27.2317 32.1776C27.202 32.2896 27.2266 32.3408 27.3669 32.4595C27.4612 32.5393 27.5988 32.6046 27.6728 32.6046C27.8558 32.6046 27.8486 32.7485 27.6584 32.8939L27.5095 33.0077L27.7396 33.0434C27.8661 33.063 27.9696 33.0999 27.9696 33.1254C27.9696 33.2232 28.129 33.5273 28.1803 33.5273C28.2099 33.5273 28.272 33.476 28.3184 33.4134L28.3184 33.4135Z" fill="#FCD95E"/>
<path d="M31.3138 32.1151C31.5228 32.0327 31.9751 31.6497 31.9751 31.5551C31.9751 31.5253 31.8502 31.388 31.6976 31.2499C31.3765 30.9594 31.0272 30.4701 30.9367 30.184C30.8895 30.0348 30.6615 29.7794 30.0192 29.1565L29.1644 28.3275L28.9181 28.3899C28.7826 28.4242 28.6173 28.4531 28.5507 28.4542C28.436 28.4559 28.4381 28.4625 28.5906 28.5805L28.7515 28.705L28.977 28.5798C29.1957 28.4585 29.2034 28.4577 29.2304 28.5554C29.2462 28.6126 29.2121 28.7116 29.1517 28.7844C29.0931 28.855 29.0597 28.935 29.0775 28.9623C29.0953 28.9895 29.039 29.0465 28.9524 29.0889C28.7919 29.1675 28.6805 29.4263 28.8072 29.4263C28.9211 29.4263 29.1724 29.1163 29.1434 29.0114C29.1286 28.9577 29.1358 28.9025 29.1594 28.8887C29.2572 28.8314 29.2511 29.0748 29.1517 29.1945C29.0931 29.265 29.0597 29.3451 29.0775 29.3723C29.0953 29.3996 29.039 29.4566 28.9524 29.499C28.793 29.5771 28.6804 29.8364 28.806 29.8364C28.929 29.8364 29.1762 29.5401 29.1456 29.4293C29.1296 29.3713 29.1358 29.3126 29.1594 29.2988C29.2253 29.2602 29.2608 29.4523 29.2052 29.5465C29.1754 29.5969 29.1757 29.6658 29.2059 29.7204C29.2606 29.8193 29.2051 30.0092 29.1043 30.0683C29.061 30.0936 29.0903 30.1432 29.1952 30.2224C29.347 30.3371 29.3499 30.3491 29.3499 30.8549C29.3499 31.2776 29.367 31.3867 29.4446 31.4602C29.5318 31.5428 29.5394 31.5431 29.5394 31.4639C29.5394 31.3774 29.6912 31.2717 29.8153 31.2717C29.852 31.2717 30.0809 31.4657 30.3239 31.7028C30.5685 31.9413 30.8244 32.1442 30.8969 32.1571C30.9689 32.17 31.0469 32.1836 31.0702 32.1875C31.0935 32.1913 31.2031 32.1588 31.3137 32.1151L31.3138 32.1151Z" fill="#FCD95E"/>
<path d="M28.7004 30.0702C28.7004 29.9339 28.4194 29.7885 28.0832 29.7508C27.8118 29.7203 27.8073 29.722 27.8073 29.8576C27.8073 29.9699 27.85 30.014 28.0374 30.0956C28.3384 30.2267 28.7004 30.2128 28.7004 30.0702L28.7004 30.0702Z" fill="#FCD95E"/>
<path d="M29.0084 30.0578C29.1455 29.9334 29.2105 29.7854 29.128 29.7854C29.0332 29.7854 28.7814 30.0113 28.7814 30.0965C28.7814 30.2293 28.8281 30.2214 29.0084 30.0578V30.0578Z" fill="#FCD95E"/>
<path d="M28.7163 29.6548C28.7279 29.5779 28.6804 29.5266 28.5378 29.4622C28.2304 29.3233 27.8628 29.259 27.7742 29.3286C27.6112 29.4568 27.7198 29.6289 27.9833 29.6598C28.0894 29.6723 28.2333 29.7046 28.303 29.7317C28.5056 29.8104 28.6982 29.7745 28.7163 29.6548V29.6548Z" fill="#FCD95E"/>
<path d="M28.7163 29.2431C28.7329 29.1334 28.6627 29.0942 28.0902 28.8926C27.6628 28.7422 27.4736 28.8132 27.6102 29.0726C27.6578 29.163 27.7377 29.2043 27.9168 29.2311C28.05 29.2511 28.232 29.2901 28.3214 29.3178C28.56 29.3919 28.6978 29.3658 28.7163 29.2431L28.7163 29.2431Z" fill="#FCD95E"/>
<path d="M29.0031 28.8572C29.0895 28.7696 29.1601 28.6663 29.1601 28.6276C29.1601 28.5019 28.819 28.7242 28.7755 28.8782C28.7233 29.0629 28.8079 29.0551 29.0031 28.8572L29.0031 28.8572Z" fill="#FCD95E"/>
<path d="M28.7163 28.8313C28.7351 28.7064 28.5274 28.5936 28.1188 28.5068C27.8191 28.4432 27.6868 28.4793 27.7093 28.6186C27.7215 28.6946 27.8214 28.7502 28.1046 28.8386C28.5578 28.98 28.6941 28.9784 28.7163 28.8313L28.7163 28.8313Z" fill="#FCD95E"/>
<path d="M29.1159 28.2498C29.6394 28.0168 29.6847 27.4291 29.191 27.2748C28.9861 27.2107 28.8552 27.2453 28.7768 27.3841C28.7167 27.4904 28.7569 27.6837 28.839 27.6837C28.8668 27.6837 28.8895 27.7195 28.8895 27.7632C28.8895 27.9673 28.0902 28.0597 27.7624 27.8936C27.6472 27.8352 27.5971 27.6837 27.6929 27.6837C27.7645 27.6837 27.8141 27.5293 27.7775 27.4201C27.7276 27.2713 27.5777 27.2198 27.3602 27.2767C26.8694 27.405 26.8832 27.9816 27.3829 28.2263C27.7925 28.427 28.6907 28.4392 29.1159 28.2499L29.1159 28.2498Z" fill="#FCD95E"/>
<path d="M28.7903 27.798C28.8206 27.7693 28.8075 27.7252 28.7566 27.6852C28.6453 27.5977 28.6513 27.4676 28.7733 27.3187C28.865 27.2068 28.8765 27.0394 28.908 25.351C28.9624 22.4412 29.1788 20.2526 29.464 19.7276C29.5775 19.5186 29.5616 19.5177 29.2682 19.7174C28.8902 19.9745 28.6025 20.3094 28.3475 20.7887C27.8661 21.6938 27.6989 22.9114 27.6989 25.5105C27.6989 26.9862 27.7089 27.1793 27.793 27.318C27.8728 27.4498 27.8771 27.4985 27.821 27.6392C27.7846 27.7304 27.7681 27.8176 27.7843 27.833C27.8918 27.9347 28.6747 27.9077 28.7903 27.7983V27.798Z" fill="#FCD95E"/>
<path d="M33.1889 25.0233C33.2053 24.9982 33.1691 24.8713 33.1084 24.7414C33.0138 24.5388 32.9757 24.5051 32.8409 24.5051C32.4186 24.5051 31.7398 24.3164 31.04 24.0045C30.6359 23.8244 30.4963 23.783 30.4479 23.8289C30.3242 23.946 30.5297 24.224 30.848 24.37C31.1303 24.4997 31.9195 24.6589 32.2795 24.6589C32.4884 24.6589 32.4933 24.6683 32.3745 24.8401L32.287 24.9665L32.5233 24.9726C32.6533 24.9759 32.8326 24.9962 32.922 25.0178C33.1539 25.0737 33.1561 25.0737 33.189 25.0233L33.1889 25.0233Z" fill="#FCD95E"/>
<path d="M35.6555 26.3346C35.6555 26.2594 35.4347 26.0556 35.2108 25.9243C35.0351 25.8211 35.0061 25.818 35.0057 25.9021C35.0051 26.0298 34.8915 26.3507 34.8469 26.3507C34.8218 26.3507 34.7846 26.288 34.7643 26.2113C34.744 26.1347 34.6588 25.9837 34.5749 25.8757L34.4225 25.6795L34.3039 25.8613C34.1932 26.0309 34.0016 26.1969 33.9165 26.1969C33.8962 26.1969 33.8922 26.1076 33.9077 25.9985C33.9245 25.8799 33.9115 25.7859 33.8755 25.7648C33.8423 25.7454 33.8152 25.7521 33.8152 25.7798C33.8152 25.8437 33.549 26.1456 33.4927 26.1456C33.4695 26.1456 33.437 26.0591 33.4205 25.9534C33.404 25.8477 33.376 25.6804 33.3582 25.5817C33.3404 25.4831 33.3783 25.55 33.4424 25.7304L33.559 26.0586L33.6868 25.8586C33.7571 25.7486 33.8147 25.6284 33.8149 25.5915C33.8149 25.5546 33.8388 25.5383 33.8677 25.5552C33.8966 25.5721 33.9369 25.7043 33.9571 25.849L33.994 26.112L34.1346 25.9578C34.212 25.873 34.3026 25.7595 34.336 25.7055C34.3957 25.6092 34.3991 25.6093 34.5177 25.7099C34.5842 25.7663 34.6864 25.9012 34.7449 26.0096C34.8033 26.1181 34.859 26.1988 34.8685 26.189C34.8781 26.1793 34.8995 26.0675 34.9161 25.9406C34.9328 25.8137 34.9476 25.7052 34.9491 25.6994C34.9574 25.668 35.3727 25.938 35.5264 26.0747C35.6252 26.1626 35.719 26.2222 35.7349 26.2071C35.7508 26.1921 35.7638 26.0625 35.7638 25.919C35.7638 25.6968 35.7402 25.6372 35.6043 25.5157C35.448 25.376 35.4436 25.3753 35.3859 25.4775C35.3109 25.6101 35.2225 25.612 35.2225 25.481C35.2225 25.3854 34.9272 25.0179 34.8503 25.0179C34.8304 25.0179 34.7682 25.0986 34.7121 25.1973C34.656 25.2959 34.5956 25.3766 34.578 25.3765C34.5022 25.376 34.0858 24.9118 34.086 24.828C34.086 24.7613 34.1141 24.7784 34.1871 24.8897C34.2426 24.9743 34.3534 25.1005 34.4333 25.1703C34.5952 25.3115 34.6541 25.2772 34.7165 25.005C34.7343 24.9275 34.7653 24.8641 34.7853 24.8641C34.8545 24.8641 35.2169 25.249 35.2679 25.3767L35.3191 25.5048L35.3579 25.3639C35.4053 25.1915 35.4576 25.1851 35.5333 25.3424C35.5649 25.4081 35.721 25.5447 35.8803 25.646L36.1698 25.8301L36.2279 25.6449C36.2598 25.5431 36.3022 25.4845 36.3219 25.5148C36.3514 25.56 36.2762 25.8669 36.2194 25.9329C36.2109 25.9428 36.1171 25.8882 36.0109 25.8115L35.8179 25.6721L35.8172 25.9217C35.8166 26.0589 35.8018 26.2231 35.7838 26.2866C35.7487 26.4106 35.6555 26.4455 35.6555 26.3346L35.6555 26.3346Z" fill="black"/>
<path d="M34.2122 24.3449C33.8681 24.0576 33.8159 23.9919 33.8235 23.8557L33.8316 23.7108L33.854 23.8508C33.8672 23.9325 33.9588 24.055 34.0743 24.1452L34.2721 24.2995L34.3936 24.159C34.4605 24.0817 34.516 23.9896 34.5171 23.9543C34.5199 23.8624 34.5364 23.8701 34.7693 24.0723C34.9763 24.2518 34.9795 24.2527 35.0103 24.1363C35.0275 24.0715 35.0214 23.9493 34.9968 23.8649C34.9292 23.633 34.9424 23.598 35.0449 23.7379C35.096 23.8076 35.178 23.9061 35.2273 23.9569C35.3131 24.0452 35.3183 24.0441 35.3503 23.9312C35.3686 23.8664 35.3839 23.7477 35.3843 23.6675L35.3851 23.5217L35.5717 23.7332C35.746 23.9308 35.7621 23.9381 35.8153 23.844C35.8466 23.7886 35.8726 23.6552 35.8731 23.5476C35.8737 23.4086 35.8883 23.3736 35.9237 23.4265C35.9827 23.5148 35.9417 23.7554 35.8327 23.9605L35.7545 24.1076L35.6518 23.9477C35.5205 23.7431 35.4768 23.7464 35.3925 23.9671C35.3128 24.1757 35.2611 24.1916 35.1835 24.0312C35.1332 23.9274 35.1237 23.9401 35.088 24.1582L35.0484 24.4005L34.8111 24.2163L34.5737 24.0321L34.467 24.1534C34.4083 24.2201 34.3595 24.3035 34.3585 24.3388C34.3563 24.4152 34.2992 24.4175 34.2122 24.3449L34.2122 24.3449Z" fill="black"/>
<path d="M37.2727 23.2748C37.1475 23.162 37.0612 23.0544 37.081 23.0356C37.1008 23.0169 37.1231 23.0115 37.1305 23.0237C37.138 23.0359 37.2403 23.1435 37.358 23.2629C37.629 23.5378 37.5733 23.5456 37.2727 23.2748V23.2748Z" fill="black"/>
<path d="M33.196 22.8535C33.0821 22.6995 33.09 22.5974 33.2286 22.4305C33.3289 22.3098 33.3746 22.2934 33.5496 22.3157C33.6619 22.3299 33.9034 22.4291 34.0864 22.5361C34.2977 22.6596 34.5163 22.7423 34.6856 22.7629C34.8322 22.7807 34.9521 22.7874 34.9521 22.7778C34.9521 22.7682 34.8912 22.669 34.8168 22.5574C34.64 22.2922 34.6461 22.2637 34.8454 22.4226C35.0501 22.5857 35.2948 22.6334 35.8418 22.6167L36.109 22.6086L35.954 22.4554C35.7372 22.241 35.8039 22.2218 36.0433 22.4296C36.2679 22.6245 36.2538 22.6383 35.7812 22.6854C35.5803 22.7055 35.3644 22.6909 35.1848 22.6453C34.9162 22.577 34.9058 22.578 34.9567 22.6681C34.986 22.7199 35.0335 22.7624 35.0622 22.7624C35.091 22.7624 35.1145 22.7887 35.1145 22.8208C35.1145 22.9197 34.5343 22.8328 34.2571 22.6924C33.6238 22.3717 33.5441 22.344 33.3933 22.3915C33.3095 22.4179 33.2255 22.4953 33.1966 22.5728C33.1001 22.8314 33.4668 23.0325 33.6181 22.8038C33.662 22.7376 33.6517 22.6923 33.5747 22.6116C33.4691 22.5012 33.479 22.4854 33.6215 22.5372C33.7227 22.574 33.7363 22.8168 33.6422 22.9059C33.5345 23.0079 33.2888 22.979 33.196 22.8535L33.196 22.8535Z" fill="black"/>
<path d="M35.6906 22.2148C35.6114 22.1398 35.6735 22.1214 36.0286 22.1148C36.4678 22.1066 36.7346 22.0334 37.0493 21.8347C37.3015 21.6755 37.3699 21.7068 37.1305 21.8719C36.9122 22.0225 36.5716 22.1383 36.2427 22.1737C36.0835 22.1908 35.902 22.2145 35.8395 22.2264C35.7769 22.2383 35.7099 22.2331 35.6906 22.2148L35.6906 22.2148Z" fill="black"/>
<rect x="6" y="12" width="8" height="32" fill="#1C6864"/>
<rect x="14" y="12" width="8" height="32" fill="#FFA654"/>
<rect x="22" y="12" width="3" height="32" fill="#FCD95E"/>
<rect x="49.5" y="43.5" width="45" height="33" rx="8.5" transform="rotate(-180 49.5 43.5)" stroke="#FCD95E" stroke-width="3"/>
</g>
</svg>
