<svg width="54" height="54" viewBox="0 0 54 54" fill="none" xmlns="http://www.w3.org/2000/svg">
<mask id="mask0_1_34395" style="mask-type:alpha" maskUnits="userSpaceOnUse" x="3" y="9" width="48" height="36">
<path d="M3.56934 18.1356C4.16681 13.4125 8.0415 10.0019 12.7861 9.60887C16.6412 9.28949 21.6196 9 27 9C32.3804 9 37.3588 9.28949 41.2139 9.60887C45.9585 10.0019 49.8332 13.4125 50.4307 18.1356C50.752 20.6759 51 23.704 51 27C51 30.296 50.752 33.3241 50.4307 35.8644C49.8332 40.5875 45.9585 43.9981 41.2139 44.3911C37.3588 44.7105 32.3804 45 27 45C21.6196 45 16.6412 44.7105 12.7861 44.3911C8.04151 43.9981 4.16681 40.5875 3.56934 35.8644C3.248 33.3241 3 30.296 3 27C3 23.704 3.248 20.6759 3.56934 18.1356Z" fill="#00D0BF"/>
</mask>
<g mask="url(#mask0_1_34395)">
<rect x="3" y="3" width="48" height="49" fill="#F5F5F5"/>
<path d="M27.4856 18.5057L27.412 18.5072C27.252 18.5107 27.1107 18.5956 27.0068 18.6744C26.9029 18.7531 26.8336 18.8318 26.8336 18.8318L26.8177 18.8501C26.273 18.9459 25.7761 19.1811 25.3802 19.5655C24.856 20.0745 24.522 20.8242 24.4169 21.7792C24.3092 22.7583 24.5775 23.85 24.858 24.7178C25.1385 25.5857 25.4453 26.2322 25.4453 26.2322L25.4998 26.347L21.9664 31.1049L21.256 30.8593L19.9766 33.5883L20.0345 33.6248C20.0345 33.6248 23.0733 35.5276 27.4786 35.4756C32.3087 35.4181 34.9466 33.5349 34.9466 33.5349L35 33.4969L33.6769 30.8011L33.0473 31.075L29.3802 26.2247L29.4087 26.2359C29.4087 26.2359 29.7307 25.5746 30.0184 24.6895C30.3062 23.8043 30.5765 22.6918 30.435 21.6959C30.3013 20.7548 30.0053 20.0164 29.4793 19.5145C29.0947 19.1475 28.601 18.9308 28.0256 18.8444V18.8291L28.0038 18.8068C28.0038 18.8068 27.9311 18.7311 27.8237 18.6569C27.7342 18.595 27.6155 18.5404 27.4868 18.5226L27.4856 18.5057ZM28.0239 19.6239C28.4125 19.6968 28.7092 19.847 28.9463 20.0732C29.3018 20.4125 29.551 20.9649 29.6703 21.8045C29.7795 22.5732 29.5543 23.6188 29.2839 24.4508C29.1178 24.9616 28.9718 25.316 28.8694 25.5489L28.314 24.8144L28.3076 23.0722H29.2238L28.0189 21.9406L28.0239 19.6239ZM26.8201 19.6353L26.837 21.9771L25.7473 23.1186H26.649L26.6427 24.808L26.0338 25.628C25.955 25.4572 25.7971 25.1125 25.5929 24.4804C25.3285 23.6623 25.0999 22.6313 25.1844 21.8637C25.275 21.04 25.5472 20.4798 25.9181 20.1197C26.1677 19.8773 26.4684 19.7166 26.8201 19.6353V19.6353ZM33.0975 31.7553L33.2934 32.0402L32.7415 32.8591L32.1718 32.1292L33.0975 31.7553ZM21.7032 32.0226L21.9346 32.7347L21.2581 32.8771C21.2581 32.8771 21.6498 32.0938 21.7032 32.0226ZM22.4153 32.0395L23.4122 32.3422L23.6437 32.8407L22.7713 33.0899L22.4153 32.0395ZM31.5307 32.36L31.8155 32.6627L30.9788 33.3215L30.4625 32.6805L31.5307 32.36ZM33.4714 32.4674L33.8096 33.1439L33.1331 33.3753L33.0797 33.0549L33.4714 32.4674ZM24.2486 32.5739L25.2456 32.7876L25.5306 33.2148L24.6581 33.5531L24.2486 32.5739ZM29.6612 32.7528L29.9282 33.1445L28.9312 33.6251L28.504 32.8952L29.6612 32.7528ZM26.1176 32.8597L27.7378 32.9309L27.8802 33.2691L26.6161 33.732L26.1176 32.8597ZM31.9932 33.0187L32.5095 33.7132L31.4057 33.998L31.192 33.6242L31.9932 33.0187ZM22.094 33.0373L22.2364 33.607L21.3819 33.2688L22.094 33.0373ZM23.7857 33.1981L24.2484 34.1773L23.0912 33.8925L22.9666 33.4652L23.7857 33.1981ZM30.1412 33.4467L30.7465 34.1588L29.4113 34.3725L29.1442 33.9452L30.1412 33.4467ZM28.0943 33.5892L28.6819 34.4616L27.1153 34.515L26.8481 34.0521L28.0943 33.5892ZM25.7444 33.5895L26.3142 34.4797L24.961 34.284L24.8186 33.91L25.7444 33.5895Z" fill="#2C2929"/>
<rect x="3" y="9" width="48" height="8" fill="#3F6FEB"/>
<rect x="3" y="37" width="48" height="8" fill="#59C785"/>
</g>
</svg>
