<svg width="54" height="48" viewBox="0 0 54 48" fill="none" xmlns="http://www.w3.org/2000/svg">
<mask id="mask0_1_34395" style="mask-type:alpha" maskUnits="userSpaceOnUse" x="3" y="6" width="48" height="36">
<path d="M3.56934 15.1356C4.16681 10.4125 8.0415 7.00193 12.7861 6.60887C16.6412 6.28949 21.6196 6 27 6C32.3804 6 37.3588 6.28949 41.2139 6.60887C45.9585 7.00193 49.8332 10.4125 50.4307 15.1356C50.752 17.6759 51 20.704 51 24C51 27.296 50.752 30.3241 50.4307 32.8644C49.8332 37.5875 45.9585 40.9981 41.2139 41.3911C37.3588 41.7105 32.3804 42 27 42C21.6196 42 16.6412 41.7105 12.7861 41.3911C8.0415 40.9981 4.16681 37.5875 3.56934 32.8644C3.248 30.3241 3 27.296 3 24C3 20.704 3.248 17.6759 3.56934 15.1356Z" fill="#00D0BF"/>
</mask>
<g mask="url(#mask0_1_34395)">
<rect x="3" width="48" height="49" fill="#F5F5F5"/>
<path d="M27.4856 15.5057L27.412 15.5072C27.252 15.5107 27.1107 15.5956 27.0068 15.6744C26.9029 15.7531 26.8336 15.8318 26.8336 15.8318L26.8177 15.8501C26.273 15.9459 25.7761 16.1811 25.3802 16.5655C24.856 17.0745 24.522 17.8242 24.4169 18.7792C24.3092 19.7583 24.5775 20.85 24.858 21.7178C25.1385 22.5857 25.4453 23.2322 25.4453 23.2322L25.4998 23.347L21.9664 28.1049L21.256 27.8593L19.9766 30.5883L20.0345 30.6248C20.0345 30.6248 23.0733 32.5276 27.4786 32.4756C32.3087 32.4181 34.9466 30.5349 34.9466 30.5349L35 30.4969L33.6769 27.8011L33.0473 28.075L29.3802 23.2247L29.4087 23.2359C29.4087 23.2359 29.7307 22.5746 30.0184 21.6895C30.3062 20.8043 30.5765 19.6918 30.435 18.6959C30.3013 17.7548 30.0053 17.0164 29.4793 16.5145C29.0947 16.1475 28.601 15.9308 28.0256 15.8444V15.8291L28.0038 15.8068C28.0038 15.8068 27.9311 15.7311 27.8237 15.6569C27.7342 15.595 27.6155 15.5404 27.4868 15.5226L27.4856 15.5057ZM28.0239 16.6239C28.4125 16.6968 28.7092 16.847 28.9463 17.0732C29.3018 17.4125 29.551 17.9649 29.6703 18.8045C29.7795 19.5732 29.5543 20.6188 29.2839 21.4508C29.1178 21.9616 28.9718 22.316 28.8694 22.5489L28.314 21.8144L28.3076 20.0722H29.2238L28.0189 18.9406L28.0239 16.6239ZM26.8201 16.6353L26.837 18.9771L25.7473 20.1186H26.649L26.6427 21.808L26.0338 22.628C25.955 22.4572 25.7971 22.1125 25.5929 21.4804C25.3285 20.6623 25.0999 19.6313 25.1844 18.8637C25.275 18.04 25.5472 17.4798 25.9181 17.1197C26.1677 16.8773 26.4684 16.7166 26.8201 16.6353ZM33.0975 28.7553L33.2934 29.0402L32.7415 29.8591L32.1718 29.1292L33.0975 28.7553ZM21.7032 29.0226L21.9346 29.7347L21.2581 29.8771C21.2581 29.8771 21.6498 29.0938 21.7032 29.0226ZM22.4153 29.0395L23.4122 29.3422L23.6437 29.8407L22.7713 30.0899L22.4153 29.0395ZM31.5307 29.36L31.8155 29.6627L30.9788 30.3215L30.4625 29.6805L31.5307 29.36ZM33.4714 29.4674L33.8096 30.1439L33.1331 30.3753L33.0797 30.0549L33.4714 29.4674ZM24.2486 29.5739L25.2456 29.7876L25.5306 30.2148L24.6581 30.5531L24.2486 29.5739ZM29.6613 29.7528L29.9282 30.1445L28.9312 30.6251L28.504 29.8952L29.6613 29.7528ZM26.1176 29.8597L27.7378 29.9309L27.8802 30.2691L26.6161 30.732L26.1176 29.8597ZM31.9932 30.0187L32.5095 30.7132L31.4057 30.998L31.192 30.6242L31.9932 30.0187ZM22.094 30.0373L22.2364 30.607L21.3819 30.2688L22.094 30.0373ZM23.7857 30.1981L24.2484 31.1773L23.0912 30.8925L22.9666 30.4652L23.7857 30.1981ZM30.1412 30.4467L30.7465 31.1588L29.4113 31.3725L29.1442 30.9452L30.1412 30.4467ZM28.0943 30.5892L28.6819 31.4616L27.1153 31.515L26.8481 31.0521L28.0943 30.5892ZM25.7444 30.5895L26.3142 31.4797L24.961 31.284L24.8186 30.91L25.7444 30.5895Z" fill="#2C2929"/>
<rect x="3" y="6" width="48" height="8" fill="#3F6FEB"/>
<rect x="3" y="34" width="48" height="8" fill="#59C785"/>
</g>
</svg>
