<svg width="54" height="54" viewBox="0 0 54 54" fill="none" xmlns="http://www.w3.org/2000/svg">
<mask id="mask0_1_30764" style="mask-type:alpha" maskUnits="userSpaceOnUse" x="3" y="9" width="48" height="36">
<path d="M3.56934 18.1356C4.16681 13.4125 8.0415 10.0019 12.7861 9.60887C16.6412 9.28949 21.6196 9 27 9C32.3804 9 37.3588 9.28949 41.2139 9.60887C45.9585 10.0019 49.8332 13.4125 50.4307 18.1356C50.752 20.6759 51 23.704 51 27C51 30.296 50.752 33.3241 50.4307 35.8644C49.8332 40.5875 45.9585 43.9981 41.2139 44.3911C37.3588 44.7105 32.3804 45 27 45C21.6196 45 16.6412 44.7105 12.7861 44.3911C8.04151 43.9981 4.16681 40.5875 3.56934 35.8644C3.248 33.3241 3 30.296 3 27C3 23.704 3.248 20.6759 3.56934 18.1356Z" fill="#00D0BF"/>
</mask>
<g mask="url(#mask0_1_30764)">
<rect x="3" y="3" width="48" height="49" fill="#1C6864"/>
<path d="M27.7892 17.0443L29.0664 16.1165H27.4877L27 14.6151L26.5122 16.1165H24.9336L26.2108 17.0443L25.7232 18.5452L27 17.6177L28.2767 18.5452L27.7892 17.0443Z" fill="#FFDE23"/>
<path d="M19.0375 22.4343L19.9924 21.9045L18.9086 21.7716L18.7002 20.6999L18.239 21.6894L17.155 21.5564L17.9538 22.3013L17.4923 23.2914L18.4474 22.7616L19.246 23.5064L19.0375 22.4343Z" fill="#FFDE23"/>
<path d="M21.9609 18.9504L23.0531 18.9694L22.1807 18.3123L22.5363 17.2794L21.6414 17.9061L20.7692 17.2491L21.0884 18.2933L20.1938 18.9198L21.2857 18.9387L21.6052 19.9836L21.9609 18.9504Z" fill="#FFDE23"/>
<path d="M19.2871 35.1571C19.4958 35.3359 19.7105 35.5077 19.9313 35.6719H27H34.0687C34.2896 35.5077 34.5043 35.3359 34.7129 35.1571H27H19.2871Z" fill="white"/>
<path d="M20.6823 36.1867C21.0649 36.4281 21.4619 36.6485 21.8723 36.8457H27H32.1278C32.5382 36.6485 32.9352 36.4281 33.3177 36.1867H27H20.6823Z" fill="white"/>
<path d="M22.6251 37.1752C23.9791 37.7133 25.4551 38.0092 27 38.0092C28.5449 38.0092 30.0209 37.7133 31.3749 37.1752H27H22.6251V37.1752Z" fill="white"/>
<path d="M18.2451 34.148C18.3474 34.2598 18.4522 34.3697 18.5586 34.4775H27H35.4414C35.5478 34.3697 35.6526 34.2598 35.7548 34.148H27H18.2451Z" fill="white"/>
<path d="M29.6766 32.5242C28.3637 32.127 27.4737 31.4087 27 30.9605C26.5264 31.4087 25.6364 32.127 24.3235 32.5242C23.7105 32.7097 23.0604 32.8093 22.3871 32.8093H17.1866C17.3399 33.0346 17.5006 33.2545 17.6686 33.4683H22.696C24.3352 33.4684 25.837 32.877 27 31.8962C28.163 32.877 29.6648 33.4684 31.3041 33.4683H36.3315C36.4995 33.2545 36.6602 33.0346 36.8135 32.8093H31.6129C30.9396 32.8093 30.2895 32.7097 29.6766 32.5242Z" fill="white"/>
<path d="M31.3863 31.7385C30.9809 31.7385 30.5838 31.7023 30.1983 31.633C30.3795 31.6479 30.5629 31.6562 30.7479 31.6562C33.605 31.6562 36.0448 29.8599 37 27.3361C36.0705 26.9484 35.0507 26.7344 33.9812 26.7344C32.0673 26.7344 30.3126 27.4201 28.9493 28.5588C30.3769 27.0696 32.384 26.1405 34.6074 26.1371C34.7497 25.8614 34.9385 25.6138 35.1635 25.4041C35.0447 25.3988 34.9251 25.3958 34.805 25.3958C32.5699 25.3958 30.5521 26.3309 29.1212 27.8309C29.9428 26.7209 30.4289 25.3478 30.4289 23.8615C30.4289 22.6666 30.1146 21.5451 29.5646 20.5743C29.443 20.9796 29.2276 21.3442 28.9442 21.6438C29.3547 22.51 29.5845 23.4783 29.5845 24.4999C29.5845 26.038 29.0638 27.455 28.1893 28.5845C28.9014 27.5221 29.3168 26.2447 29.3168 24.8706C29.3168 24.2087 29.2203 23.5691 29.0408 22.9652C28.561 21.3521 27.5432 20.2999 27 19.813C26.4568 20.2999 25.439 21.3521 24.9592 22.9652C24.7797 23.5691 24.6832 24.2087 24.6832 24.8706C24.6832 26.2447 25.0986 27.5221 25.8107 28.5845C24.9362 27.455 24.4155 26.038 24.4155 24.4999C24.4155 23.4783 24.6453 22.51 25.0558 21.6438C24.7724 21.3442 24.557 20.9796 24.4354 20.5743C23.8854 21.5451 23.5711 22.6666 23.5711 23.8615C23.5711 25.3478 24.0572 26.7209 24.8788 27.8309C23.4479 26.3309 21.4301 25.3958 19.195 25.3958C19.0749 25.3958 18.9553 25.3988 18.8365 25.4041C19.0615 25.6138 19.2503 25.8614 19.3926 26.1371C21.616 26.1405 23.6231 27.0696 25.0507 28.5588C23.6874 27.4201 21.9327 26.7344 20.0188 26.7344C18.9493 26.7344 17.9295 26.9484 17 27.3361C17.9552 29.8599 20.395 31.6562 23.2521 31.6562C23.4371 31.6562 23.6205 31.6479 23.8017 31.633C23.4162 31.7023 23.0191 31.7385 22.6137 31.7385C20.811 31.7385 19.1748 31.0236 17.9723 29.862C17.722 29.9584 17.4536 30.0185 17.1737 30.0351C18.3984 31.4203 20.1881 32.2946 22.1811 32.2946C24.0742 32.2946 25.7838 31.5061 27 30.2397C28.2162 31.5061 29.9258 32.2946 31.8189 32.2946C33.8119 32.2946 35.6016 31.4203 36.8263 30.0351C36.5464 30.0185 36.278 29.9584 36.0277 29.862C34.8252 31.0236 33.189 31.7385 31.3863 31.7385Z" fill="white"/>
<path d="M36.0462 22.3013L36.845 21.5564L35.761 21.6894L35.2998 20.6999L35.0914 21.7716L34.0076 21.9045L34.9625 22.4343L34.7541 23.5064L35.5526 22.7616L36.5077 23.2914L36.0462 22.3013Z" fill="#FFDE23"/>
<path d="M32.7142 18.9387L33.8062 18.9198L32.9116 18.2933L33.2308 17.2491L32.3586 17.9061L31.4636 17.2794L31.8193 18.3123L30.9468 18.9694L32.039 18.9504L32.3948 19.9836L32.7142 18.9387Z" fill="#FFDE23"/>
</g>
</svg>
