<svg width="54" height="48" viewBox="0 0 54 48" fill="none" xmlns="http://www.w3.org/2000/svg">
<mask id="mask0_1_30764" style="mask-type:alpha" maskUnits="userSpaceOnUse" x="3" y="6" width="48" height="36">
<path d="M3.56934 15.1356C4.16681 10.4125 8.0415 7.00193 12.7861 6.60887C16.6412 6.28949 21.6196 6 27 6C32.3804 6 37.3588 6.28949 41.2139 6.60887C45.9585 7.00193 49.8332 10.4125 50.4307 15.1356C50.752 17.6759 51 20.704 51 24C51 27.296 50.752 30.3241 50.4307 32.8644C49.8332 37.5875 45.9585 40.9981 41.2139 41.3911C37.3588 41.7105 32.3804 42 27 42C21.6196 42 16.6412 41.7105 12.7861 41.3911C8.0415 40.9981 4.16681 37.5875 3.56934 32.8644C3.248 30.3241 3 27.296 3 24C3 20.704 3.248 17.6759 3.56934 15.1356Z" fill="#00D0BF"/>
</mask>
<g mask="url(#mask0_1_30764)">
<rect x="3" width="48" height="49" fill="#1C6864"/>
<path d="M27.7892 14.0443L29.0664 13.1165H27.4877L27 11.6151L26.5122 13.1165H24.9336L26.2108 14.0443L25.7232 15.5452L27 14.6177L28.2767 15.5452L27.7892 14.0443Z" fill="#FFDE23"/>
<path d="M19.0375 19.4343L19.9924 18.9045L18.9086 18.7716L18.7002 17.6999L18.239 18.6894L17.155 18.5564L17.9538 19.3013L17.4923 20.2914L18.4474 19.7616L19.246 20.5064L19.0375 19.4343Z" fill="#FFDE23"/>
<path d="M21.9609 15.9504L23.0531 15.9694L22.1807 15.3123L22.5363 14.2794L21.6414 14.9061L20.7692 14.2491L21.0884 15.2933L20.1938 15.9198L21.2857 15.9387L21.6052 16.9836L21.9609 15.9504Z" fill="#FFDE23"/>
<path d="M19.2871 32.1571C19.4958 32.3359 19.7105 32.5077 19.9313 32.6719H27H34.0687C34.2896 32.5077 34.5043 32.3359 34.7129 32.1571H27H19.2871Z" fill="white"/>
<path d="M20.6823 33.1867C21.0649 33.4281 21.4619 33.6485 21.8723 33.8457H27H32.1278C32.5382 33.6485 32.9352 33.4281 33.3177 33.1867H27H20.6823Z" fill="white"/>
<path d="M22.6251 34.1752C23.9791 34.7133 25.4551 35.0092 27 35.0092C28.5449 35.0092 30.0209 34.7133 31.3749 34.1752H27H22.6251Z" fill="white"/>
<path d="M18.2451 31.148C18.3474 31.2598 18.4522 31.3697 18.5586 31.4775H27H35.4414C35.5478 31.3697 35.6526 31.2598 35.7548 31.148H27H18.2451Z" fill="white"/>
<path d="M29.6766 29.5242C28.3637 29.127 27.4737 28.4087 27 27.9605C26.5264 28.4087 25.6364 29.127 24.3235 29.5242C23.7105 29.7097 23.0604 29.8093 22.3871 29.8093H17.1866C17.3399 30.0346 17.5006 30.2545 17.6686 30.4683H22.696C24.3352 30.4684 25.837 29.877 27 28.8962C28.163 29.877 29.6648 30.4684 31.3041 30.4683H36.3315C36.4995 30.2545 36.6602 30.0346 36.8135 29.8093H31.6129C30.9396 29.8093 30.2895 29.7097 29.6766 29.5242Z" fill="white"/>
<path d="M31.3863 28.7385C30.9809 28.7385 30.5838 28.7023 30.1983 28.633C30.3795 28.6479 30.5629 28.6562 30.7479 28.6562C33.605 28.6562 36.0448 26.8599 37 24.3361C36.0705 23.9484 35.0507 23.7344 33.9812 23.7344C32.0673 23.7344 30.3126 24.4201 28.9493 25.5588C30.3769 24.0696 32.384 23.1405 34.6074 23.1371C34.7497 22.8614 34.9385 22.6138 35.1635 22.4041C35.0447 22.3988 34.9251 22.3958 34.805 22.3958C32.5699 22.3958 30.5521 23.3309 29.1212 24.8309C29.9428 23.7209 30.4289 22.3478 30.4289 20.8615C30.4289 19.6666 30.1146 18.5451 29.5646 17.5743C29.443 17.9796 29.2276 18.3442 28.9442 18.6438C29.3547 19.51 29.5845 20.4783 29.5845 21.4999C29.5845 23.038 29.0638 24.455 28.1893 25.5845C28.9014 24.5221 29.3168 23.2447 29.3168 21.8706C29.3168 21.2087 29.2203 20.5691 29.0408 19.9652C28.561 18.3521 27.5432 17.2999 27 16.813C26.4568 17.2999 25.439 18.3521 24.9592 19.9652C24.7797 20.5691 24.6832 21.2087 24.6832 21.8706C24.6832 23.2447 25.0986 24.5221 25.8107 25.5845C24.9362 24.455 24.4155 23.038 24.4155 21.4999C24.4155 20.4783 24.6453 19.51 25.0558 18.6438C24.7724 18.3442 24.557 17.9796 24.4354 17.5743C23.8854 18.5451 23.5711 19.6666 23.5711 20.8615C23.5711 22.3478 24.0572 23.7209 24.8788 24.8309C23.4479 23.3309 21.4301 22.3958 19.195 22.3958C19.0749 22.3958 18.9553 22.3988 18.8365 22.4041C19.0615 22.6138 19.2503 22.8614 19.3926 23.1371C21.616 23.1405 23.6231 24.0696 25.0507 25.5588C23.6874 24.4201 21.9327 23.7344 20.0188 23.7344C18.9493 23.7344 17.9295 23.9484 17 24.3361C17.9552 26.8599 20.395 28.6562 23.2521 28.6562C23.4371 28.6562 23.6205 28.6479 23.8017 28.633C23.4162 28.7023 23.0191 28.7385 22.6137 28.7385C20.811 28.7385 19.1748 28.0236 17.9723 26.862C17.722 26.9584 17.4536 27.0185 17.1737 27.0351C18.3984 28.4203 20.1881 29.2946 22.1811 29.2946C24.0742 29.2946 25.7838 28.5061 27 27.2397C28.2162 28.5061 29.9258 29.2946 31.8189 29.2946C33.8119 29.2946 35.6016 28.4203 36.8263 27.0351C36.5464 27.0185 36.278 26.9584 36.0277 26.862C34.8252 28.0236 33.189 28.7385 31.3863 28.7385Z" fill="white"/>
<path d="M36.0462 19.3013L36.845 18.5564L35.761 18.6894L35.2998 17.6999L35.0914 18.7716L34.0076 18.9045L34.9625 19.4343L34.7541 20.5064L35.5526 19.7616L36.5077 20.2914L36.0462 19.3013Z" fill="#FFDE23"/>
<path d="M32.7142 15.9387L33.8062 15.9198L32.9116 15.2933L33.2308 14.2491L32.3586 14.9061L31.4636 14.2794L31.8193 15.3123L30.9468 15.9694L32.039 15.9504L32.3948 16.9836L32.7142 15.9387Z" fill="#FFDE23"/>
</g>
</svg>
