<svg width="54" height="48" viewBox="0 0 54 48" fill="none" xmlns="http://www.w3.org/2000/svg">
<mask id="mask0_1_35857" style="mask-type:alpha" maskUnits="userSpaceOnUse" x="3" y="6" width="48" height="36">
<path d="M50.4307 32.8644C49.8332 37.5875 45.9585 40.9981 41.2139 41.3911C37.3588 41.7105 32.3804 42 27 42C21.6196 42 16.6412 41.7105 12.7861 41.3911C8.0415 40.9981 4.16681 37.5875 3.56934 32.8644C3.248 30.3241 3 27.296 3 24C3 20.704 3.248 17.6759 3.56934 15.1356C4.16682 10.4125 8.04151 7.00193 12.7861 6.60886C16.6412 6.28948 21.6196 6 27 6C32.3804 6 37.3588 6.28948 41.2139 6.60887C45.9585 7.00193 49.8332 10.4125 50.4307 15.1356C50.752 17.6759 51 20.704 51 24C51 27.296 50.752 30.3241 50.4307 32.8644Z" fill="#00D0BF"/>
</mask>
<g mask="url(#mask0_1_35857)">
<rect x="51" y="48" width="16" height="49" transform="rotate(-180 51 48)" fill="#EE5757"/>
<rect x="35" y="48" width="16" height="49" transform="rotate(-180 35 48)" fill="#FCD95E"/>
<path d="M25.4142 16.6661C25.3174 16.6661 25.2328 16.6908 25.1834 16.7292C25.2618 16.752 25.3189 16.8243 25.3189 16.9123L25.3189 17.1353L25.0958 17.1353C25.0084 17.1353 24.9361 17.0791 24.9127 17.0015C24.8743 17.0508 24.8496 17.1354 24.8496 17.2323C24.8496 17.3291 24.8743 17.4138 24.9127 17.463C24.9356 17.3846 25.0078 17.3276 25.0958 17.3276L25.3189 17.3276L25.3189 18.3999C25.3189 18.4842 25.2661 18.5542 25.1927 18.5799C25.2991 18.5944 25.3907 18.7372 25.4158 18.8153C25.4409 18.7374 25.5325 18.5944 25.6389 18.5799C25.5646 18.5546 25.5111 18.4848 25.5111 18.3999L25.5111 17.3276L25.7342 17.3276C25.8216 17.3276 25.894 17.3838 25.9173 17.4615C25.9557 17.4121 25.9804 17.3275 25.9804 17.2307C25.9804 17.1338 25.9558 17.0492 25.9173 16.9999C25.8945 17.0783 25.8222 17.1353 25.7342 17.1353L25.5111 17.1353L25.5111 16.9122C25.5111 16.8248 25.5673 16.7525 25.645 16.7291C25.5957 16.6907 25.5111 16.666 25.4142 16.666L25.4142 16.6661Z" fill="black"/>
<path d="M25.4143 16.7124C25.3639 16.7124 25.3195 16.7218 25.2821 16.7339C25.3321 16.7774 25.3651 16.8404 25.3651 16.9124L25.3651 17.1354C25.3651 17.1386 25.3642 17.1417 25.3636 17.1447L25.3636 17.1801L25.3282 17.1801C25.3252 17.1807 25.3221 17.1816 25.319 17.1816L25.0958 17.1816C25.0247 17.1816 24.9624 17.1491 24.919 17.1001C24.9065 17.1379 24.8959 17.1811 24.8959 17.2324C24.8959 17.2828 24.9053 17.3273 24.9174 17.3647C24.9609 17.3147 25.0239 17.2817 25.0958 17.2817L25.3651 17.2817C25.3648 17.2863 25.3635 17.2908 25.3635 17.2955L25.3635 17.3185C25.3642 17.3216 25.3651 17.3246 25.3651 17.3278L25.3651 18.4001C25.3651 18.4697 25.3292 18.5245 25.282 18.5678C25.3157 18.5886 25.3448 18.6148 25.3697 18.6447C25.3918 18.6713 25.4006 18.6974 25.4158 18.7247C25.4311 18.6974 25.4399 18.6713 25.462 18.6447C25.4865 18.6153 25.5151 18.59 25.5482 18.5693C25.5006 18.5261 25.4651 18.47 25.4651 18.4001L25.4651 17.2831L25.502 17.2831C25.505 17.2825 25.508 17.2816 25.5112 17.2816L25.7343 17.2816C25.8054 17.2816 25.8677 17.3142 25.9112 17.3631C25.9237 17.3253 25.9343 17.2821 25.9343 17.2308C25.9343 17.1804 25.9248 17.136 25.9128 17.0985C25.8693 17.1485 25.8063 17.1816 25.7343 17.1816L25.5112 17.1816C25.5081 17.1816 25.505 17.1806 25.502 17.18L25.4666 17.18L25.4666 17.1446C25.466 17.1417 25.4651 17.1386 25.465 17.1354L25.465 16.9123C25.465 16.8412 25.4976 16.779 25.5466 16.7354C25.5087 16.723 25.4656 16.7123 25.4143 16.7123" fill="#F5D402"/>
<path d="M28.2067 20.5954C28.0704 20.4986 27.9586 20.3891 27.879 20.2615C27.6875 19.9542 27.6067 19.5771 27.6067 19.1938C27.6067 19.0318 27.7882 18.8494 27.7882 18.7184C27.7882 18.5203 27.7698 18.4015 27.7698 18.4015C27.8342 18.4103 27.9467 18.5246 27.9467 18.5246C27.9467 18.5246 27.9428 18.1958 27.839 18.1384C27.839 18.1384 27.881 18.0952 28.0328 18.0907C27.9902 17.9827 27.779 17.8507 27.779 17.8507C27.7896 17.8318 27.8091 17.8155 27.8344 17.8015C27.8874 17.7722 27.962 17.7528 28.019 17.7415C27.9582 17.7289 27.8882 17.7096 27.8113 17.6845C27.6357 17.6273 27.4291 17.5434 27.2359 17.4507C26.8833 17.2816 26.6148 17.2707 26.4667 17.2707C26.3592 17.2707 26.201 17.2737 26.1083 17.3354C26.0234 17.3917 26.0303 17.465 26.0005 17.4908C25.9305 17.5513 25.8106 17.5492 25.7528 17.5492C25.379 17.5492 25.3651 17.9492 25.3651 17.9492C25.3651 17.9492 25.4607 17.8046 25.6297 17.8046C25.9107 17.8046 26.1236 17.9577 26.1236 18.0153C26.1236 18.0387 26.0946 18.043 26.0928 18.043C25.9093 18.043 25.6322 17.9374 25.4851 17.9323L25.4851 18.0046C25.8136 18.1188 26.1466 18.2807 26.1466 18.9938C26.1466 19.4429 26.0929 19.9011 25.8682 20.2615C25.7886 20.3891 25.6753 20.4983 25.539 20.5954L26.8728 20.8358L28.2067 20.5954Z" fill="black"/>
<path d="M26.8728 20.2949L25.539 20.5954C25.4783 20.5771 25.193 20.4884 24.9928 20.377C24.6404 20.1807 24.4577 19.9853 24.0389 19.9662L24.0389 19.6477C24.0389 19.4775 24.1005 19.3242 24.1005 19.1615C23.924 19.1142 23.434 18.5151 22.982 18.2492C22.317 18.6799 21.802 19.3871 21.802 19.7123C21.802 19.7123 21.822 26.6998 21.802 29.1341C21.802 29.2744 21.7174 29.4726 21.7174 29.4726C21.9602 29.3699 22.4052 28.7609 22.499 28.5295L22.499 28.6403C22.8656 28.4731 23.1341 28.0337 23.2544 27.8064C23.2565 27.8392 23.2621 27.9217 23.2621 27.9217C23.5896 27.6346 24.0067 25.9371 24.0067 25.9371L24.7016 26.6201C24.7016 26.6201 24.4503 27.1302 24.3524 27.2216C24.3524 27.2216 24.418 27.2299 24.4923 27.2293C24.4466 27.2951 24.0972 27.798 23.9877 27.9878C23.8852 28.1653 23.8129 28.0862 23.6554 28.0862C23.5248 28.0862 23.2287 28.2944 23.18 28.3786C23.1289 28.4671 23.0908 28.5746 23.0908 28.6632C23.0908 28.7606 23.1939 28.894 23.1939 28.894C23.205 28.8474 23.2247 28.8309 23.2247 28.8309C23.2247 28.8309 23.4955 29.1683 23.5354 29.2124C23.5665 29.2468 23.7051 29.2691 23.7539 29.2248C23.8761 29.1137 23.9944 29.036 24.1032 28.8755C24.1591 28.7928 24.1634 28.6981 24.2278 28.6093C24.443 28.3124 24.8713 27.7438 24.9693 27.6139C24.9759 27.6501 24.9815 27.6802 24.9877 27.717C25.0987 27.4929 25.6323 27.0647 25.6323 27.0647L26.1907 27.3216C26.1907 27.3216 25.1482 29.7179 24.2229 30.0863C24.2229 30.0863 24.6255 30.2574 25.1199 30.514C25.192 30.5515 25.2663 30.5917 25.3414 30.6325C25.4037 30.5576 25.4692 30.4743 25.5337 30.3879C25.8293 29.9924 26.1184 29.534 26.1184 29.534C26.1385 29.6531 25.9824 30.0207 25.7184 30.4741C25.6665 30.5632 25.6123 30.6563 25.5522 30.751C25.6192 30.7892 25.6857 30.8279 25.7522 30.8679C26.2419 31.1626 26.7018 31.5014 26.8722 31.8126L26.9924 31.5118L26.8722 31.211L26.8722 20.6939L26.9323 20.5436L26.8728 20.2949Z" fill="black"/>
<path d="M26.8721 31.2109C26.6994 31.0235 26.3381 30.7946 25.9322 30.5833C26.423 29.7022 26.6663 28.3096 26.5521 28.0324C26.5521 28.0324 26.3506 28.7547 26.1044 29.1663C25.8764 29.5474 25.5958 29.9762 25.3244 30.294C25.1012 30.1988 24.8847 30.1189 24.6998 30.0632C25.513 29.4368 26.3444 27.3662 26.3444 27.3662L25.4846 26.9677C25.4846 26.9677 25.1629 27.3428 25.0584 27.4124C25.0584 27.4124 25.0138 27.2259 24.9877 27.1601C24.9877 27.1601 24.8644 27.2533 24.797 27.2555C24.797 27.2555 24.7768 27.1289 24.7615 27.0462C24.6767 27.1028 24.5354 27.0909 24.5354 27.0909C24.6594 27.0321 24.8062 26.6724 24.8062 26.6724L23.9851 25.5802C23.9851 25.5802 23.6967 26.9661 23.3682 27.251L23.3682 21.2831L23.6282 21.5247L24.022 21.157L24.022 20.877L23.6728 21.2031L23.6728 20.3585C23.7254 20.2789 23.7603 20.2194 23.7866 20.1723C23.8431 20.2709 24.0258 20.5729 24.2404 20.7585C24.2758 20.6149 24.5081 20.4785 24.5081 20.4785C24.5081 20.4785 24.5914 20.7041 24.7189 20.76C24.7637 20.681 25.0312 20.5062 25.0312 20.5062C25.0312 20.5062 24.8024 20.5409 24.7097 20.6277C24.6301 20.6099 24.6097 20.2954 24.6097 20.2954C24.6097 20.2954 24.2729 20.4595 24.2143 20.5769C24.1501 20.5596 24.0501 20.3068 24.0112 20.2031C24.0699 20.1967 24.1529 20.1893 24.262 20.1893C24.358 20.1893 24.4809 20.2348 24.6096 20.2954C24.7511 20.362 24.8991 20.4463 25.0312 20.5062C25.2005 20.5828 25.4565 20.5984 25.5312 20.6016C25.4457 20.6617 25.3517 20.7166 25.2497 20.7677C25.2497 20.7677 25.6527 20.764 25.9359 20.6231C26.0369 20.5581 26.1417 20.4934 26.2312 20.4169C26.1924 20.5249 26.1319 20.6525 26.0373 20.7616C26.4531 20.7264 26.6602 20.4889 26.7189 20.4093C26.7465 20.4806 26.7956 20.5952 26.8727 20.6938L27.023 20.6938L27.023 30.9117L26.8721 31.2109Z" fill="#B07F55"/>
<path d="M23.8081 19.1923L23.8158 19.383L23.8158 19.9446C23.6649 19.8927 23.4754 19.6449 23.3835 19.5138L23.3835 19.4369C23.3835 19.3645 23.4261 19.3117 23.4573 19.2831L23.3666 19.2508C23.3319 19.2903 23.2943 19.3489 23.2943 19.4246L23.2943 19.4692L23.0235 19.76L22.7574 19.3569L22.7574 19.2585C22.7574 19.1921 22.8084 19.1181 22.8512 19.0677L22.762 19.0354C22.7169 19.0938 22.6696 19.1724 22.6696 19.2462L22.6696 19.3261C22.607 19.3909 22.3635 19.6416 22.3635 19.6416C22.3635 19.6416 22.2413 19.379 22.2081 19.3077C22.3946 19.0494 22.697 18.7602 22.9819 18.5527C22.9819 18.5527 23.6 19.1201 23.8081 19.1923Z" fill="#B07F55"/>
<path d="M22.2418 19.7369L22.2418 20.2L22.0264 20.4L22.0264 19.7123C22.0264 19.6465 22.054 19.5671 22.1002 19.48L22.2418 19.7369Z" fill="#B07F55"/>
<path d="M22.9126 19.9153L22.9126 20.2015L22.6649 20.4338L22.6649 19.5385L22.9126 19.9153Z" fill="#B07F55"/>
<path d="M22.5772 20.4323L22.3295 20.2015L22.3295 19.8662L22.5772 19.6062L22.5772 20.4323Z" fill="#B07F55"/>
<path d="M23.7079 20.0846C23.6504 20.1659 23.4997 20.3647 23.3372 20.4523L23.3372 19.6661C23.3745 19.7282 23.5455 20.005 23.7079 20.0846Z" fill="#B07F55"/>
<path d="M23.2494 19.7061L23.2494 20.4323L23.0017 20.2015L23.0017 19.9446L23.2494 19.7061Z" fill="#B07F55"/>
<path d="M22.2418 20.48L22.2418 21.2046L22.0264 21.0031L22.0264 20.6815L22.2418 20.48Z" fill="#B07F55"/>
<path d="M22.577 20.7123L22.577 20.9723L22.3292 21.203L22.3292 20.4815L22.577 20.7123Z" fill="#B07F55"/>
<path d="M22.9123 20.4816L22.9123 21.2031L22.6647 20.9708L22.6647 20.7139L22.9123 20.4816Z" fill="#B07F55"/>
<path d="M23.2493 20.7139L23.2493 20.9708L23.0016 21.2031L23.0016 20.4816L23.2493 20.7139Z" fill="#B07F55"/>
<path d="M23.5847 21.2046L23.3369 20.9723L23.3369 20.7308C23.4224 20.6787 23.5083 20.5828 23.5847 20.4816L23.5847 21.2046Z" fill="#B07F55"/>
<path d="M22.957 21.5246L23.2185 21.2815L23.2185 27.2509C23.2185 27.2509 23.2367 27.5471 23.2493 27.7401C23.133 27.8577 22.6954 28.3001 22.6954 28.3001L22.6954 21.2799L22.957 21.5246Z" fill="#B07F55"/>
<path d="M22.5461 28.077C22.5461 28.2689 22.1957 28.7163 22.0261 28.8186L22.0261 21.2832L22.2846 21.5247L22.5461 21.2816L22.5461 28.077Z" fill="#B07F55"/>
<path d="M24.7184 27.4293L24.9091 27.2985C24.9091 27.2985 24.9219 27.3617 24.9384 27.4478C24.8567 27.5595 24.3875 28.1999 24.1553 28.5124C24.0975 28.5901 24.0491 28.7878 24.0491 28.7878C24.0491 28.7878 23.9645 28.7478 23.9645 28.6755C23.9645 28.6045 23.9738 28.5201 23.9738 28.5201C23.9738 28.5201 23.9106 28.5924 23.8014 28.5924C23.8014 28.5052 23.9701 28.4106 23.9768 28.2863C23.8481 28.3817 23.7364 28.3327 23.5876 28.3786C23.4255 28.4286 23.3804 28.4967 23.3307 28.494C23.3014 28.4924 23.2749 28.442 23.2861 28.4109C23.3054 28.3572 23.5059 28.2086 23.646 28.1817C23.6796 28.1753 23.9436 28.2392 23.9968 28.1571C24.2159 27.819 24.5717 27.27 24.606 27.2171C24.6286 27.2117 24.6494 27.206 24.666 27.1955C24.666 27.1955 24.664 27.3684 24.7184 27.4293Z" fill="#D10429"/>
<path d="M23.4917 28.4831C23.5023 28.4954 23.5014 28.5133 23.4901 28.5231L23.404 28.5984C23.3927 28.6082 23.3746 28.6061 23.364 28.5938C23.3534 28.5816 23.3543 28.5636 23.3656 28.5538L23.4517 28.4784C23.4574 28.4735 23.4646 28.4714 23.4717 28.4723C23.4789 28.4731 23.4864 28.4769 23.4917 28.4831Z" fill="#D10429"/>
<path d="M23.6226 28.5739C23.6483 28.6036 23.6467 28.6456 23.6195 28.6693L23.4102 28.8523C23.383 28.876 23.3391 28.8713 23.3133 28.8416C23.2875 28.8119 23.2891 28.7683 23.3164 28.7447L23.5256 28.5631C23.5358 28.5542 23.5497 28.5488 23.5625 28.5477C23.5839 28.546 23.6064 28.5554 23.6226 28.5739Z" fill="#D10429"/>
<path d="M23.7424 28.7154C23.7682 28.7451 23.7665 28.7871 23.7393 28.8108L23.5286 28.9939C23.5014 29.0175 23.459 29.0128 23.4332 28.9831C23.4074 28.9535 23.409 28.9099 23.4363 28.8862L23.6455 28.7047C23.6557 28.6958 23.668 28.6904 23.6809 28.6893C23.7023 28.6875 23.7263 28.6968 23.7424 28.7154Z" fill="#D10429"/>
<path d="M23.8147 28.8277C23.8361 28.826 23.8586 28.8338 23.8747 28.8523C23.9005 28.882 23.8988 28.9256 23.8716 28.9493L23.6623 29.1308C23.6351 29.1545 23.5927 29.1497 23.567 29.12C23.5412 29.0904 23.5413 29.0483 23.5685 29.0246L23.7793 28.8416C23.7894 28.8327 23.8018 28.8287 23.8147 28.8277Z" fill="#D10429"/>
<path d="M26.5636 17.3692C26.908 17.3692 27.1501 17.5262 27.476 17.6707C27.5614 17.7086 27.6398 17.7393 27.7098 17.763C27.6659 17.8019 27.6318 17.8409 27.6221 17.8738C27.6221 17.8738 27.7681 17.9009 27.8344 18.0231C27.8344 18.0231 27.6955 18.0388 27.6728 18.12C27.7506 18.1258 27.8279 18.2239 27.8282 18.3185L27.6313 18.2569C27.6313 18.2569 27.679 18.478 27.679 18.7185C27.679 18.8412 27.5021 18.9857 27.5021 19.1939C27.5021 19.847 27.6666 20.0981 27.7837 20.3C27.8294 20.379 27.8666 20.4699 27.9437 20.5385C27.6065 20.359 27.3559 20.1346 27.3559 19.9262L27.3559 19.1369L27.2683 19.1369L27.2683 19.9262C27.2683 20.0773 27.3052 20.1477 27.3052 20.1477C27.3581 20.3149 27.4651 20.573 27.5313 20.6769C27.2212 20.5093 27.0636 20.2994 27.0636 20.2216L27.0636 19.1369L26.9759 19.1369L26.9759 20.2369L26.9928 20.3123C26.9552 20.3688 26.9064 20.4357 26.8728 20.4584C26.8394 20.4357 26.792 20.3687 26.7543 20.3123L26.7713 20.2369L26.7713 19.1369L26.6836 19.1369L26.6836 20.2216C26.6836 20.2994 26.526 20.5093 26.2159 20.6769C26.2821 20.573 26.3891 20.3149 26.442 20.1477C26.442 20.1477 26.4789 20.0773 26.4789 19.9262L26.4789 19.1369L26.3912 19.1369L26.3912 19.9262C26.3912 20.1343 26.1416 20.3591 25.8051 20.5385C25.8813 20.4699 25.918 20.3786 25.9635 20.3C26.0915 20.0792 26.2497 19.7986 26.2497 19C26.2497 18.7002 26.2053 18.4965 26.1281 18.3538C26.1046 18.3068 26.073 18.1815 26.2527 18.1815C26.3458 18.1815 26.5589 18.3461 26.5589 18.3461C26.5589 18.3461 26.5501 18.2148 26.442 18.14C26.424 18.1276 26.3943 18.0885 26.3943 18.0522C26.3943 18.0251 26.4409 17.958 26.4773 17.9415C26.5024 17.9301 26.1112 17.862 26.1112 17.6846C26.1112 17.6476 26.1344 17.623 26.2158 17.623C26.3223 17.623 26.4956 17.7507 26.6497 17.7507C26.7635 17.7507 26.8084 17.723 26.925 17.723C27.0675 17.723 27.3648 17.9928 27.4665 17.983C27.3529 17.9116 27.1692 17.6414 26.8912 17.6414C26.7947 17.6414 26.7074 17.663 26.6173 17.663C26.5019 17.663 26.3882 17.5568 26.2634 17.5568C26.1798 17.5568 26.0865 17.5615 26.0726 17.5399C26.0484 17.5021 26.0702 17.4803 26.0927 17.4491C26.135 17.3903 26.2539 17.3732 26.3712 17.3691C26.4063 17.3679 26.4414 17.3673 26.4743 17.3676C26.5071 17.368 26.5374 17.3692 26.5636 17.3692Z" fill="#B07F55"/>
<path d="M25.4455 17.7915C25.4455 17.7915 25.5182 17.6539 25.702 17.6539C25.7788 17.6539 26.0323 17.6486 26.0323 17.6486C26.0661 17.7363 26.2201 17.883 26.2201 18.0356C26.2201 18.0356 26.0638 17.7538 25.6274 17.7538C25.5177 17.7538 25.4454 17.7915 25.4454 17.7915L25.4455 17.7915Z" fill="#CC092F"/>
<path d="M26.1551 18.0894C26.1551 18.0894 26.0622 18.1873 26.042 18.2395C25.95 18.2047 25.7896 18.0394 25.7896 18.0394C25.7896 18.0394 25.9255 18.1188 26.1551 18.0894L26.1551 18.0894Z" fill="#D10429"/>
<path d="M26.0079 17.83C26.0079 17.83 25.9006 17.7956 25.9006 17.7596C25.9006 17.7138 25.9527 17.7138 25.9838 17.7495C26.0053 17.7741 26.0078 17.83 26.0078 17.83L26.0079 17.83Z" fill="black"/>
<path d="M26.4694 17.9542C26.5543 17.9542 26.6231 17.8998 26.6231 17.8327C26.6231 17.7656 26.5543 17.7112 26.4694 17.7112C26.3846 17.7112 26.3158 17.7656 26.3158 17.8327C26.3158 17.8998 26.3846 17.9542 26.4694 17.9542Z" fill="black"/>
<path d="M26.4694 17.9397C26.5285 17.9397 26.5764 17.8918 26.5764 17.8327C26.5764 17.7736 26.5285 17.7257 26.4694 17.7257C26.4103 17.7257 26.3624 17.7736 26.3624 17.8327C26.3624 17.8918 26.4103 17.9397 26.4694 17.9397Z" fill="#F5D402"/>
<path d="M26.4694 17.8781C26.4944 17.8781 26.5148 17.8578 26.5148 17.8327C26.5148 17.8076 26.4944 17.7873 26.4694 17.7873C26.4443 17.7873 26.424 17.8076 26.424 17.8327C26.424 17.8578 26.4443 17.8781 26.4694 17.8781Z" fill="black"/>
<path d="M26.8661 20.2949L28.1999 20.5954C28.2606 20.5771 28.5459 20.4884 28.7461 20.3769C29.0985 20.1806 29.2812 19.9853 29.7 19.9662L29.7 19.6477C29.7 19.4775 29.6384 19.3242 29.6384 19.1615C29.8149 19.1142 30.3049 18.5151 30.7569 18.2492C31.4219 18.6799 31.9369 19.3871 31.9369 19.7123C31.9369 19.7123 31.9169 26.6998 31.9369 29.1341C31.9369 29.2744 32.0215 29.4726 32.0215 29.4726C31.7787 29.3698 31.3336 28.7609 31.2399 28.5294L31.2399 28.6402C30.8733 28.473 30.6048 28.0337 30.4845 27.8064C30.4824 27.8392 30.4768 27.9217 30.4768 27.9217C30.1492 27.6346 29.7322 25.9371 29.7322 25.9371L29.0373 26.6201C29.0373 26.6201 29.2886 27.1302 29.3865 27.2216C29.3865 27.2216 29.3209 27.2299 29.2466 27.2293C29.2923 27.295 29.6417 27.798 29.7512 27.9877C29.8536 28.1652 29.9259 28.0862 30.0835 28.0862C30.2141 28.0862 30.5102 28.2943 30.5589 28.3786C30.61 28.4671 30.6481 28.5746 30.6481 28.6632C30.6481 28.7605 30.545 28.894 30.545 28.894C30.5339 28.8473 30.5142 28.8309 30.5142 28.8309C30.5142 28.8309 30.2434 29.1683 30.2035 29.2124C30.1724 29.2467 30.0338 29.2691 29.985 29.2247C29.8628 29.1136 29.7445 29.036 29.6357 28.8755C29.5797 28.7928 29.5755 28.6981 29.5111 28.6093C29.2959 28.3124 28.8676 27.7438 28.7696 27.6139C28.763 27.6501 28.7574 27.6802 28.7512 27.717C28.6402 27.4929 28.1065 27.0647 28.1065 27.0647L27.5482 27.3216C27.5482 27.3216 28.5907 29.7179 29.5159 30.0863C29.5159 30.0863 29.1134 30.2573 28.619 30.514C28.5469 30.5515 28.4726 30.5917 28.3975 30.6325C28.3352 30.5576 28.2697 30.4743 28.2052 30.3879C27.9096 29.9924 27.6205 29.534 27.6205 29.534C27.6004 29.653 27.7565 30.0207 28.0205 30.4741C28.0724 30.5632 28.1266 30.6563 28.1867 30.751C28.1197 30.7892 28.0532 30.8279 27.9867 30.8679C27.497 31.1626 27.0371 31.5013 26.8667 31.8125L26.7465 31.5117L26.8667 31.2109L26.8667 20.6938L26.8066 20.5436L26.8661 20.2949Z" fill="black"/>
<path d="M26.8667 31.2109C27.0395 31.0235 27.4008 30.7946 27.8067 30.5833C27.3159 29.7022 27.0726 28.3096 27.1867 28.0324C27.1867 28.0324 27.3883 28.7547 27.6345 29.1663C27.8625 29.5474 28.1431 29.9762 28.4145 30.294C28.6377 30.1988 28.8542 30.1189 29.0391 30.0632C28.2259 29.4368 27.3944 27.3662 27.3944 27.3662L28.2543 26.9677C28.2543 26.9677 28.576 27.3428 28.6805 27.4124C28.6805 27.4124 28.7251 27.2259 28.7512 27.1601C28.7512 27.1601 28.8745 27.2533 28.9419 27.2555C28.9419 27.2555 28.9621 27.1289 28.9773 27.0462C29.0622 27.1028 29.2035 27.0909 29.2035 27.0909C29.0795 27.0321 28.9327 26.6724 28.9327 26.6724L29.7538 25.5802C29.7538 25.5802 30.0422 26.9661 30.3707 27.251L30.3707 21.2831L30.1107 21.5247L29.7169 21.157L29.7169 20.877L30.0661 21.2031L30.0661 20.3585C30.0135 20.2789 29.9786 20.2194 29.9523 20.1723C29.8957 20.2709 29.7131 20.5729 29.4985 20.7585C29.4631 20.6149 29.2307 20.4785 29.2307 20.4785C29.2307 20.4785 29.1475 20.7041 29.02 20.76C28.9752 20.681 28.7077 20.5062 28.7077 20.5062C28.7077 20.5062 28.9365 20.5409 29.0292 20.6277C29.1088 20.6099 29.1292 20.2954 29.1292 20.2954C29.1292 20.2954 29.466 20.4595 29.5246 20.5769C29.5888 20.5596 29.6888 20.3068 29.7277 20.2031C29.669 20.1967 29.586 20.1893 29.4769 20.1893C29.3809 20.1893 29.258 20.2348 29.1293 20.2954C28.9878 20.362 28.8398 20.4463 28.7077 20.5062C28.5384 20.5828 28.2823 20.5984 28.2077 20.6016C28.2932 20.6617 28.3872 20.7166 28.4892 20.7677C28.4892 20.7677 28.0862 20.764 27.803 20.6231C27.702 20.5581 27.5972 20.4934 27.5077 20.4169C27.5465 20.5249 27.607 20.6525 27.7016 20.7616C27.2857 20.7264 27.0787 20.4889 27.02 20.4093C26.9924 20.4806 26.9433 20.5952 26.8662 20.6938L26.7159 20.6938L26.7159 30.9117L26.8667 31.2109Z" fill="#B07F55"/>
<path d="M29.9308 19.1922L29.9231 19.383L29.9231 19.9446C30.074 19.8927 30.2635 19.6449 30.3554 19.5138L30.3554 19.4369C30.3554 19.3645 30.3128 19.3117 30.2816 19.2831L30.3723 19.2508C30.4069 19.2902 30.4446 19.3488 30.4446 19.4246L30.4446 19.4692L30.7154 19.76L30.9815 19.3569L30.9815 19.2585C30.9815 19.1921 30.9305 19.1181 30.8877 19.0677L30.9769 19.0354C31.022 19.0938 31.0692 19.1724 31.0692 19.2462L31.0692 19.3261C31.1318 19.3909 31.3754 19.6416 31.3754 19.6416C31.3754 19.6416 31.4976 19.379 31.5308 19.3077C31.3443 19.0494 31.0419 18.7602 30.7569 18.5526C30.7569 18.5526 30.1389 19.12 29.9308 19.1922Z" fill="#B07F55"/>
<path d="M31.4971 19.7369L31.4971 20.2L31.7125 20.4L31.7125 19.7123C31.7125 19.6465 31.6849 19.5671 31.6387 19.48L31.4971 19.7369Z" fill="#B07F55"/>
<path d="M30.8263 19.9153L30.8263 20.2015L31.074 20.4338L31.074 19.5384L30.8263 19.9153Z" fill="#B07F55"/>
<path d="M31.1617 20.4323L31.4094 20.2015L31.4094 19.8662L31.1617 19.6062L31.1617 20.4323Z" fill="#B07F55"/>
<path d="M30.031 20.0846C30.0885 20.1659 30.2391 20.3647 30.4017 20.4523L30.4017 19.6661C30.3644 19.7282 30.1933 20.0049 30.031 20.0846Z" fill="#B07F55"/>
<path d="M30.4895 19.7061L30.4895 20.4323L30.7372 20.2015L30.7372 19.9446L30.4895 19.7061Z" fill="#B07F55"/>
<path d="M31.4971 20.4799L31.4971 21.2046L31.7125 21.003L31.7125 20.6815L31.4971 20.4799Z" fill="#B07F55"/>
<path d="M31.1619 20.7123L31.1619 20.9723L31.4097 21.203L31.4097 20.4815L31.1619 20.7123Z" fill="#B07F55"/>
<path d="M30.8266 20.4816L30.8266 21.2031L31.0742 20.9708L31.0742 20.7139L30.8266 20.4816Z" fill="#B07F55"/>
<path d="M30.4896 20.7139L30.4896 20.9708L30.7373 21.2031L30.7373 20.4815L30.4896 20.7139Z" fill="#B07F55"/>
<path d="M30.1542 21.2046L30.402 20.9723L30.402 20.7308C30.3165 20.6786 30.2306 20.5828 30.1542 20.4815L30.1542 21.2046Z" fill="#B07F55"/>
<path d="M30.7819 21.5246L30.5204 21.2815L30.5204 27.2509C30.5204 27.2509 30.5022 27.5471 30.4896 27.7401C30.6059 27.8576 31.0435 28.3001 31.0435 28.3001L31.0435 21.2799L30.7819 21.5246Z" fill="#B07F55"/>
<path d="M31.1928 28.077C31.1928 28.2689 31.5432 28.7163 31.7128 28.8186L31.7128 21.2832L31.4543 21.5247L31.1928 21.2816L31.1928 28.077Z" fill="#B07F55"/>
<path d="M29.0205 27.4293L28.8298 27.2985C28.8298 27.2985 28.817 27.3616 28.8005 27.4478C28.8822 27.5595 29.3514 28.1998 29.5836 28.5124C29.6414 28.5901 29.6898 28.7878 29.6898 28.7878C29.6898 28.7878 29.7744 28.7478 29.7744 28.6755C29.7744 28.6045 29.7651 28.5201 29.7651 28.5201C29.7651 28.5201 29.8283 28.5924 29.9375 28.5924C29.9375 28.5052 29.7688 28.4105 29.7621 28.2863C29.8908 28.3817 30.0025 28.3327 30.1513 28.3786C30.3134 28.4285 30.3585 28.4966 30.4082 28.494C30.4375 28.4924 30.464 28.4419 30.4528 28.4109C30.4335 28.3572 30.233 28.2086 30.0929 28.1817C30.0593 28.1753 29.7953 28.2392 29.7421 28.1571C29.5229 27.819 29.1672 27.27 29.1329 27.2171C29.1103 27.2117 29.0895 27.206 29.0729 27.1955C29.0729 27.1955 29.0749 27.3683 29.0205 27.4293Z" fill="#D10429"/>
<path d="M30.2472 28.4831C30.2366 28.4953 30.2375 28.5133 30.2488 28.5231L30.3349 28.5984C30.3462 28.6082 30.3642 28.6061 30.3749 28.5938C30.3855 28.5815 30.3846 28.5636 30.3733 28.5538L30.2872 28.4784C30.2815 28.4735 30.2743 28.4714 30.2672 28.4723C30.26 28.4731 30.2525 28.4769 30.2472 28.4831Z" fill="#D10429"/>
<path d="M30.1163 28.5738C30.0906 28.6035 30.0922 28.6456 30.1194 28.6693L30.3287 28.8523C30.3559 28.876 30.3998 28.8712 30.4256 28.8416C30.4514 28.8119 30.4497 28.7683 30.4225 28.7447L30.2133 28.5631C30.2031 28.5542 30.1892 28.5488 30.1764 28.5477C30.155 28.546 30.1325 28.5553 30.1163 28.5738Z" fill="#D10429"/>
<path d="M29.9965 28.7154C29.9707 28.7451 29.9724 28.7871 29.9996 28.8108L30.2103 28.9939C30.2375 29.0175 30.2799 29.0128 30.3057 28.9831C30.3315 28.9534 30.3299 28.9098 30.3026 28.8862L30.0934 28.7047C30.0832 28.6958 30.0709 28.6904 30.058 28.6893C30.0366 28.6875 30.0126 28.6968 29.9965 28.7154Z" fill="#D10429"/>
<path d="M29.9242 28.8277C29.9028 28.8259 29.8803 28.8337 29.8642 28.8523C29.8384 28.882 29.8401 28.9256 29.8673 28.9492L30.0765 29.1308C30.1038 29.1545 30.1461 29.1497 30.1719 29.12C30.1977 29.0903 30.1976 29.0482 30.1704 29.0246L29.9596 28.8415C29.9495 28.8327 29.9371 28.8287 29.9242 28.8277Z" fill="#D10429"/>
<path d="M24.5092 29.2145L24.0223 28.9489L23.9042 29.4907L24.3911 29.7563L24.5092 29.2145Z" fill="black"/>
<path d="M21.7541 23.7431L21.5787 23.8232L23.5603 28.1634L23.7711 28.1634L21.7541 23.7431ZM24.0911 28.8617L23.948 29.0094L24.0372 29.2063L24.2111 29.1263L24.0911 28.8617Z" fill="black"/>
<path d="M22.3699 27.1652C22.3699 27.1652 22.5368 27.51 22.6637 27.5572C22.5981 27.5394 22.385 27.6175 22.385 27.6175C22.385 27.6175 22.7607 27.9531 23.0793 27.9751C23.3494 27.9937 23.4806 27.8589 23.4806 27.8589L23.4265 27.5726C23.4265 27.5726 23.2612 27.373 22.9967 27.2809C22.7294 27.1878 22.3699 27.1653 22.3699 27.1653L22.3699 27.1652Z" fill="black"/>
<path d="M23.6282 26.5476C23.6282 26.5476 23.3977 26.7449 23.3346 26.9735C23.2715 27.202 23.3757 27.4617 23.3757 27.4617L23.5694 27.823C23.5694 27.823 23.8378 27.6801 23.952 27.4666C24.0661 27.2529 24.0243 26.9647 24.0243 26.9647C24.0243 26.9647 23.8117 27.0439 23.7846 27.0789C23.8295 26.842 23.6281 26.5476 23.6281 26.5476L23.6282 26.5476Z" fill="black"/>
<path d="M22.8874 26.4554C22.8874 26.4554 22.6253 26.544 22.3707 26.5286C22.1283 26.514 21.9266 26.3104 21.9266 26.3104C21.9266 26.3104 22.1276 26.1744 22.2268 26.1925C22.1177 26.1526 21.9595 25.8793 21.9595 25.8793C21.9595 25.8793 22.1843 25.8113 22.3837 25.8865C22.5831 25.9617 22.7569 26.1801 22.7569 26.1801L22.8874 26.4554L22.8874 26.4554Z" fill="black"/>
<path d="M22.9776 25.1751C22.9776 25.1751 23.1087 25.4466 23.0776 25.5409C23.1183 25.4781 23.2721 25.3803 23.2721 25.3803C23.2721 25.3803 23.3652 25.8198 23.2762 26.0912C23.1873 26.3626 22.9164 26.466 22.9164 26.466L22.6175 25.8848C22.6175 25.8848 22.5731 25.6695 22.6662 25.499C22.7594 25.3286 22.9776 25.1751 22.9776 25.1751L22.9776 25.1751Z" fill="black"/>
<path d="M21.2721 24.4566C21.2721 24.4566 21.5554 24.4268 21.8146 24.5342C22.0313 24.6241 22.0977 24.7876 22.0977 24.7876L22.2044 25.0737C22.2044 25.0737 21.8961 25.1894 21.6524 25.101C21.4088 25.0125 21.2297 24.7199 21.2297 24.7199C21.2297 24.7199 21.4 24.6553 21.4648 24.6795C21.3704 24.6378 21.2722 24.4566 21.2722 24.4566L21.2722 24.4566L21.2721 24.4566Z" fill="black"/>
<path d="M22.1632 23.9256C22.1632 23.9256 22.2876 24.0852 22.2913 24.2689C22.3244 24.1712 22.4797 24.0633 22.4797 24.0633C22.4797 24.0633 22.6393 24.4496 22.6043 24.7239C22.5692 24.9982 22.3395 25.1605 22.3395 25.1605L22.0531 24.6168C22.0531 24.6168 21.9597 24.394 21.9872 24.2211C22.0148 24.0483 22.1632 23.9255 22.1632 23.9255L22.1632 23.9256Z" fill="black"/>
<path d="M21.182 22.8857C21.182 22.8857 21.1306 23.1819 21.218 23.3525C21.2961 23.5047 21.3458 23.5381 21.3458 23.5381C21.1969 23.4398 20.9718 23.4313 20.9718 23.4313C20.9718 23.4313 21.0519 23.7535 21.2434 23.9005C21.4349 24.0475 21.7301 24.0132 21.7301 24.0132C21.7301 24.0132 21.9242 23.7547 21.9107 23.4763C21.8972 23.1978 21.6761 22.8994 21.6761 22.8994C21.6761 22.8994 21.5888 23.0803 21.5811 23.2153C21.5247 23.0761 21.1819 22.8858 21.1819 22.8858L21.182 22.8857Z" fill="black"/>
<path d="M23.496 27.8465L23.504 27.9528C23.6806 27.9544 23.7069 27.9369 23.7521 27.9925C23.7823 28.0296 23.854 28.062 23.926 28.029C23.9982 27.9961 24.0305 27.9095 23.9975 27.8374C23.9646 27.7653 23.8976 27.7497 23.833 27.7624C23.7934 27.7702 23.7673 27.8019 23.7337 27.8192C23.6697 27.8524 23.496 27.8465 23.496 27.8465L23.496 27.8465Z" fill="black"/>
<path d="M23.4807 27.7654L23.5666 27.8283C23.4745 27.979 23.4457 27.992 23.4689 28.0599C23.4844 28.1051 23.4739 28.183 23.4078 28.2267C23.3416 28.2705 23.2511 28.252 23.2073 28.1859C23.1636 28.1198 23.1859 28.0547 23.2309 28.0067C23.2585 27.9772 23.2991 27.9718 23.3316 27.9525C23.3936 27.9157 23.4807 27.7653 23.4807 27.7653L23.4807 27.7654Z" fill="black"/>
<path d="M22.8826 26.5032L22.8906 26.6095C23.0672 26.6111 23.0934 26.5935 23.1387 26.6492C23.1688 26.6862 23.2405 26.7186 23.3126 26.6857C23.3847 26.6528 23.4171 26.5662 23.3841 26.4941C23.3512 26.422 23.2842 26.4063 23.2196 26.4191C23.1799 26.4269 23.1539 26.4585 23.1203 26.4759C23.0563 26.509 22.8826 26.5032 22.8826 26.5032L22.8826 26.5032Z" fill="black"/>
<path d="M22.9183 26.5407L22.9935 26.6164C22.879 26.7508 22.8485 26.7592 22.8609 26.8299C22.8692 26.877 22.8467 26.9523 22.7745 26.9852C22.7024 27.0181 22.6159 26.9859 22.5829 26.9137C22.55 26.8416 22.5821 26.7808 22.634 26.7403C22.6659 26.7155 22.7069 26.7165 22.742 26.7025C22.809 26.6758 22.9183 26.5408 22.9183 26.5408L22.9183 26.5407Z" fill="black"/>
<path d="M22.2882 25.2455L22.2962 25.3517C22.4728 25.3534 22.4991 25.3358 22.5443 25.3915C22.5745 25.4285 22.6462 25.4609 22.7183 25.428C22.7904 25.3951 22.8227 25.3085 22.7898 25.2363C22.7568 25.1642 22.6898 25.1486 22.6252 25.1613C22.5855 25.1692 22.5595 25.2008 22.5259 25.2182C22.4619 25.2513 22.2882 25.2454 22.2882 25.2454L22.2882 25.2455Z" fill="black"/>
<path d="M22.3372 25.2232L22.4123 25.2988C22.2978 25.4333 22.2673 25.4417 22.2797 25.5124C22.288 25.5594 22.2655 25.6348 22.1934 25.6677C22.1213 25.7006 22.0347 25.6683 22.0017 25.5962C21.9689 25.5241 22.0009 25.4632 22.0529 25.4228C22.0847 25.3979 22.1257 25.3989 22.1609 25.3849C22.2278 25.3582 22.3372 25.2232 22.3372 25.2232Z" fill="black"/>
<path d="M21.655 23.9177L21.6629 24.024C21.8395 24.0257 21.8658 24.0081 21.911 24.0637C21.9412 24.1008 22.0129 24.1332 22.085 24.1003C22.1571 24.0673 22.1894 23.9808 22.1565 23.9086C22.1236 23.8365 22.0565 23.8208 21.9919 23.8336C21.9523 23.8415 21.9262 23.8731 21.8926 23.8904C21.8286 23.9235 21.6549 23.9177 21.6549 23.9177L21.655 23.9177Z" fill="black"/>
<path d="M21.704 23.8955L21.779 23.9711C21.6646 24.1056 21.6341 24.114 21.6465 24.1847C21.6548 24.2317 21.6323 24.3071 21.5602 24.34C21.488 24.3729 21.4015 24.3406 21.3686 24.2685C21.3357 24.1964 21.3677 24.1355 21.4196 24.0951C21.4516 24.0703 21.4925 24.0712 21.5277 24.0572C21.5946 24.0306 21.7039 23.8955 21.7039 23.8955L21.704 23.8955Z" fill="black"/>
<path d="M24.3945 29.2672L24.0925 29.1024L24.0193 29.4385L24.3213 29.6033L24.3945 29.2672Z" fill="#F5D402"/>
<path d="M22.7706 26.1882C22.7073 26.2144 22.6134 25.9389 22.5445 25.7879C22.4737 25.633 22.3301 25.3942 22.3709 25.3756C22.4157 25.3552 22.4746 25.4806 22.547 25.6391C22.6194 25.7976 22.8299 26.1635 22.7706 26.1881L22.7706 26.1882Z" fill="#F5D402"/>
<path d="M22.1205 24.737C22.0573 24.7633 21.988 24.5829 21.9191 24.4319C21.8484 24.277 21.7795 24.1676 21.8203 24.149C21.8651 24.1285 21.9312 24.2643 21.9891 24.391C22.0451 24.5139 22.1798 24.7123 22.1205 24.737L22.1205 24.737Z" fill="#F5D402"/>
<path d="M23.6243 28.0274C23.5747 28.0407 23.3578 27.5868 23.1825 27.2027C23.0072 26.8187 22.8766 26.5079 22.9174 26.4894C22.9622 26.4689 23.1041 26.8317 23.2795 27.2158C23.4549 27.5999 23.6616 28.0174 23.6244 28.0274L23.6243 28.0274Z" fill="#F5D402"/>
<path d="M21.2692 23.0658C21.2692 23.0658 21.2615 23.2822 21.3331 23.4049C21.4047 23.5277 21.5646 23.5766 21.5646 23.5766C21.5646 23.5766 21.5722 23.3603 21.5007 23.2376C21.429 23.1148 21.2692 23.0658 21.2692 23.0658Z" fill="#097754"/>
<path d="M21.1195 23.5553C21.1195 23.5553 21.3075 23.5664 21.4161 23.6495C21.5246 23.7327 21.5666 23.906 21.5666 23.906C21.5666 23.906 21.442 23.9187 21.3335 23.8355C21.225 23.7523 21.1195 23.5553 21.1195 23.5553Z" fill="#097754"/>
<path d="M21.7094 23.1183C21.7094 23.1183 21.6469 23.2617 21.6541 23.4162C21.6613 23.5708 21.7515 23.7449 21.7515 23.7449C21.7515 23.7449 21.833 23.5594 21.8259 23.4048C21.8187 23.2502 21.7313 23.1621 21.7094 23.1183Z" fill="#097754"/>
<path d="M21.3929 24.5116C21.3929 24.5116 21.4852 24.6404 21.6273 24.7107C21.7694 24.7809 21.9811 24.7836 21.9811 24.7836C21.9811 24.7836 21.8755 24.6465 21.7333 24.5762C21.5913 24.506 21.3929 24.5115 21.3929 24.5115L21.3929 24.5116Z" fill="#097754"/>
<path d="M21.4386 24.8109C21.4386 24.8109 21.5065 24.9438 21.6305 25.0007C21.7546 25.0577 22.0084 25.053 22.0084 25.053C22.0084 25.053 21.911 24.9289 21.7869 24.8719C21.6629 24.8149 21.4386 24.8109 21.4386 24.8109L21.4386 24.8109Z" fill="#097754"/>
<path d="M22.153 24.1023C22.153 24.1023 22.078 24.2262 22.0853 24.3627C22.0927 24.4993 22.1823 24.6485 22.1823 24.6485C22.1823 24.6485 22.2453 24.4774 22.238 24.3409C22.2306 24.2043 22.153 24.1023 22.153 24.1023L22.153 24.1023Z" fill="#097754"/>
<path d="M22.4292 24.2775C22.4292 24.2775 22.3009 24.4497 22.2825 24.6267C22.2641 24.8037 22.3554 24.9856 22.3554 24.9856C22.3554 24.9856 22.5104 24.83 22.5289 24.653C22.5473 24.4759 22.4292 24.2775 22.4292 24.2775L22.4292 24.2775Z" fill="#097754"/>
<path d="M22.0754 25.9123C22.0754 25.9123 22.0909 25.976 22.1445 26.0436C22.1981 26.1112 22.2898 26.1828 22.2898 26.1828C22.2898 26.1828 22.3784 26.1543 22.4886 26.1781C22.5987 26.202 22.7452 26.3001 22.7452 26.3001C22.7452 26.3001 22.5876 26.0648 22.4238 25.9733C22.2601 25.8818 22.0755 25.9123 22.0755 25.9123L22.0754 25.9123Z" fill="#097754"/>
<path d="M22.0592 26.3168C22.0592 26.3168 22.2634 26.2296 22.4315 26.2521C22.5996 26.2746 22.7512 26.4075 22.7512 26.4075C22.7512 26.4075 22.524 26.4862 22.3559 26.4637C22.1877 26.4412 22.0592 26.3168 22.0592 26.3168L22.0592 26.3168Z" fill="#097754"/>
<path d="M22.922 25.3678C22.922 25.3678 22.7415 25.559 22.7263 25.725C22.7112 25.891 22.8727 26.0456 22.8727 26.0456C22.8727 26.0456 22.8648 25.9392 22.8926 25.8691C22.9204 25.799 22.9795 25.7242 22.9795 25.7242C22.9795 25.7242 23.0047 25.6388 22.995 25.5702C22.9814 25.4745 22.922 25.3678 22.922 25.3678Z" fill="#097754"/>
<path d="M23.1811 25.5893C23.1811 25.5893 23.0109 25.7614 22.966 25.9458C22.921 26.1302 23.0011 26.3268 23.0011 26.3268C23.0011 26.3268 23.1559 26.2047 23.2009 26.0203C23.2459 25.836 23.1811 25.5893 23.1811 25.5893L23.1811 25.5893Z" fill="#097754"/>
<path d="M23.6073 26.7006C23.6073 26.7006 23.6843 26.8615 23.7039 26.9961C23.7235 27.1307 23.7053 27.1772 23.7053 27.1772C23.7053 27.1772 23.6256 27.2556 23.5899 27.3017C23.544 27.3609 23.5372 27.4692 23.5372 27.4692C23.5372 27.4692 23.3772 27.2313 23.4019 27.0574C23.4265 26.8835 23.6073 26.7006 23.6073 26.7006L23.6073 26.7006Z" fill="#097754"/>
<path d="M23.9445 27.073C23.9445 27.073 23.7396 27.2083 23.6583 27.3471C23.5769 27.4859 23.6191 27.6281 23.6191 27.6281C23.6191 27.6281 23.7651 27.6152 23.8465 27.4765C23.9278 27.3377 23.9444 27.0729 23.9444 27.0729L23.9445 27.073Z" fill="#097754"/>
<path d="M22.5981 27.6446C22.5981 27.6446 22.8933 27.6365 23.0738 27.6809C23.2543 27.7252 23.32 27.822 23.32 27.822C23.32 27.822 23.1171 27.917 22.9366 27.8727C22.7561 27.8283 22.598 27.6445 22.598 27.6445L22.5981 27.6446Z" fill="#097754"/>
<path d="M22.5482 27.2941C22.5482 27.2941 22.6814 27.5007 22.8537 27.5756C23.091 27.6789 23.3659 27.6288 23.3659 27.6288C23.3659 27.6288 23.2166 27.4458 23.0111 27.3651C22.8056 27.2843 22.5482 27.2942 22.5482 27.2942L22.5482 27.2941Z" fill="#097754"/>
<path d="M32.6584 23.2387L32.6969 23.3202C32.6969 23.3202 32.6344 23.3416 32.6061 23.3971C32.5778 23.4526 32.6245 23.531 32.6245 23.531C32.6245 23.531 32.2999 23.5026 32.2492 23.5356C32.2032 23.5653 32.2686 23.7903 32.2384 23.9802C32.1962 24.245 32.0919 24.2227 32.0876 24.274C32.0835 24.3239 32.1276 24.4017 32.1276 24.4017C32.1276 24.4017 32.0667 24.4209 32.0537 24.4464C32.0328 24.4873 32.0683 24.5628 32.043 24.6125C31.9017 24.8897 31.6932 25.2988 31.5553 25.5695C31.536 25.6072 31.4843 25.6217 31.4583 25.6725C31.4344 25.7195 31.4537 25.7879 31.4537 25.7879C31.4537 25.7879 31.3623 25.7934 31.3306 25.8556C31.2969 25.9217 31.3168 26.011 31.3168 26.011C31.3168 26.011 31.259 26.0184 31.2306 26.0741C31.2003 26.1336 31.2516 26.1648 31.2384 26.191C31.053 26.5547 30.8347 26.9834 30.7014 27.2449C30.6524 27.341 30.4809 27.3603 30.3814 27.5557C30.2848 27.7452 30.4229 27.8849 30.4229 27.8849C30.4229 27.8849 30.2795 27.8979 30.2414 27.9726C30.2026 28.0488 30.2333 28.1645 30.3368 28.2172C30.4403 28.2699 30.5534 28.2272 30.5922 28.1511C30.6303 28.0763 30.5537 27.9526 30.5537 27.9526C30.5537 27.9526 30.7479 27.9806 30.8445 27.791C30.944 27.5957 30.8601 27.4472 30.9091 27.351C31.0423 27.0896 31.2607 26.6609 31.446 26.2971C31.4594 26.271 31.5142 26.2936 31.5445 26.2341C31.5729 26.1784 31.5445 26.1279 31.5445 26.1279C31.5445 26.1279 31.6293 26.091 31.663 26.0248C31.6947 25.9626 31.6461 25.8849 31.6461 25.8849C31.6461 25.8849 31.7129 25.8611 31.7368 25.8141C31.7627 25.7632 31.7437 25.7134 31.7629 25.6756C31.9009 25.4049 32.1095 24.9958 32.2507 24.7187C32.276 24.669 32.3575 24.6519 32.3784 24.611C32.3913 24.5855 32.3707 24.5248 32.3707 24.5248C32.3707 24.5248 32.4605 24.5159 32.4984 24.4833C32.5374 24.4497 32.4582 24.3776 32.6476 24.1879C32.7835 24.0518 33.0028 23.9717 32.9999 23.9171C32.9968 23.8567 32.783 23.611 32.783 23.611C32.783 23.611 32.8732 23.6034 32.9015 23.5479C32.9297 23.4924 32.9107 23.4279 32.9107 23.4279L32.9999 23.4125L32.9999 22.9894L32.6584 23.2387ZM29.7092 29.1312C29.6957 29.1575 29.6932 29.1936 29.7092 29.225C29.7092 29.225 29.6015 29.1913 29.5645 29.2096C29.5297 29.2268 29.5645 29.7343 29.5645 29.7343C29.5645 29.7343 29.9941 29.4632 29.9876 29.425C29.9807 29.3844 29.8907 29.3158 29.8907 29.3158C29.9255 29.3102 29.9526 29.2884 29.9661 29.2619C29.9802 29.2341 29.9821 29.1547 29.8845 29.105C29.848 29.0863 29.8154 29.0808 29.7891 29.0835C29.7454 29.0879 29.718 29.1138 29.7092 29.1312Z" fill="black"/>
<path d="M32.7366 23.2557L32.9396 23.3588L32.9366 23.1142L32.7366 23.2557Z" fill="#F5D402"/>
<path d="M32.6581 23.4034C32.632 23.4546 32.6573 23.5202 32.715 23.5495C32.7727 23.5789 32.8397 23.5608 32.8658 23.5096C32.8919 23.4584 32.8665 23.3928 32.8089 23.3634C32.7872 23.3524 32.7645 23.3481 32.7427 23.3496C32.7064 23.352 32.6744 23.3714 32.6581 23.4034Z" fill="#F5D402"/>
<path d="M32.3089 23.5896C32.2876 23.6034 32.3166 23.7863 32.3105 23.9419C32.3047 24.0886 32.2577 24.1299 32.232 24.1803C32.2083 24.2269 32.1228 24.2819 32.1228 24.2819L32.1935 24.3526C32.1935 24.3526 32.2396 24.2809 32.312 24.1387C32.3975 23.9711 32.3947 23.6673 32.4198 23.6511C32.4415 23.637 32.6198 23.5926 32.6198 23.5926C32.6197 23.5926 32.4562 23.5837 32.3659 23.5849C32.3358 23.5853 32.3139 23.5864 32.3089 23.5896Z" fill="#F5D402"/>
<path d="M32.3275 24.4342C32.3275 24.4342 32.3512 24.3684 32.4337 24.2065C32.5332 24.0112 32.7456 23.8695 32.7506 23.8342C32.7557 23.7977 32.6767 23.6265 32.6767 23.6265C32.6767 23.6265 32.4893 23.6624 32.4628 23.688C32.4372 23.7128 32.4485 23.9665 32.349 24.1619C32.2665 24.3238 32.226 24.3834 32.226 24.3834L32.3275 24.4342Z" fill="#F5D402"/>
<path d="M32.8059 23.848C32.8075 23.8777 32.5606 24.0542 32.4751 24.2218C32.4027 24.364 32.3721 24.4434 32.3721 24.4434L32.4706 24.4588C32.4706 24.4588 32.4638 24.3576 32.4875 24.3111C32.5131 24.2607 32.5199 24.199 32.6352 24.108C32.7574 24.0116 32.9227 23.9273 32.9213 23.9018C32.9201 23.8783 32.7367 23.6511 32.7367 23.6511C32.7367 23.6511 32.8045 23.8221 32.8059 23.848Z" fill="#F5D402"/>
<path d="M32.0829 24.9449C32.2312 24.6538 32.2765 24.634 32.2952 24.5973C32.3153 24.5578 32.3105 24.5048 32.2444 24.4711C32.2197 24.4585 32.1984 24.4553 32.1798 24.4573C32.1488 24.4606 32.1262 24.4803 32.1137 24.5049C32.095 24.5417 32.1051 24.5907 31.9567 24.8819L31.6198 25.5419C31.6198 25.5419 31.5845 25.6067 31.6505 25.6404C31.7166 25.674 31.7459 25.6065 31.7459 25.6065L32.0829 24.9449Z" fill="#F5D402"/>
<path d="M31.4875 25.7019C31.4692 25.738 31.5006 25.791 31.5583 25.8204C31.616 25.8497 31.6784 25.8442 31.6968 25.8081C31.7151 25.772 31.6822 25.719 31.6245 25.6896C31.5956 25.6749 31.5663 25.6689 31.5414 25.6712C31.5164 25.6733 31.4967 25.6839 31.4875 25.7019Z" fill="#F5D402"/>
<path d="M31.3628 25.8896C31.339 25.9363 31.3761 26.0033 31.4459 26.0389C31.5157 26.0744 31.5913 26.0655 31.6151 26.0188C31.6389 25.9721 31.6018 25.9052 31.532 25.8696C31.5058 25.8563 31.4799 25.8492 31.4551 25.848C31.4138 25.8461 31.3777 25.8604 31.3628 25.8896Z" fill="#F5D402"/>
<path d="M31.2844 26.0989C31.266 26.1349 31.2975 26.1879 31.3552 26.2173C31.4128 26.2467 31.4752 26.2411 31.4937 26.205C31.512 26.169 31.4805 26.1159 31.4229 26.0866C31.394 26.0718 31.3632 26.0659 31.3383 26.0681C31.3134 26.0703 31.2936 26.0808 31.2844 26.0989Z" fill="#F5D402"/>
<path d="M31.2336 26.2989C31.2336 26.2989 30.8595 27.0352 30.7275 27.2942C30.6853 27.377 30.5078 27.4286 30.4382 27.565C30.3682 27.7023 30.4176 27.8308 30.509 27.8773C30.6003 27.9239 30.7344 27.8901 30.8044 27.7527C30.8739 27.6163 30.8115 27.4416 30.8536 27.3589C30.9856 27.0997 31.3598 26.3635 31.3598 26.3635C31.3598 26.3635 31.3966 26.2987 31.3305 26.265C31.314 26.2566 31.2996 26.2558 31.2875 26.2573C31.251 26.262 31.2336 26.2989 31.2336 26.2989Z" fill="#F5D402"/>
<path d="M30.2872 28.0081C30.2592 28.0631 30.2913 28.1364 30.3595 28.1711C30.4278 28.2059 30.5069 28.1892 30.5349 28.1342C30.563 28.0792 30.5293 28.0059 30.4611 27.9711C30.4355 27.9581 30.4094 27.952 30.3842 27.9527C30.3421 27.9539 30.3047 27.9737 30.2872 28.0081Z" fill="#F5D402"/>
<path d="M29.7889 29.1327C29.7675 29.1335 29.7499 29.1402 29.7427 29.1543C29.7284 29.1824 29.758 29.2268 29.8089 29.2527C29.8598 29.2786 29.913 29.2762 29.9274 29.2481C29.9417 29.2199 29.912 29.1756 29.8612 29.1497C29.8358 29.1367 29.8103 29.132 29.7889 29.1327L29.7889 29.1327Z" fill="#F5D402"/>
<path d="M29.6135 29.2711L29.6135 29.6342L29.9089 29.4219C29.9089 29.4219 29.8689 29.3512 29.7812 29.3065C29.6936 29.2619 29.6135 29.2711 29.6135 29.2711L29.6135 29.2711Z" fill="#F5D402"/>
<path d="M29.8006 21.1847C29.8006 20.9855 30.0621 20.7893 30.0621 20.7893L23.6836 20.7893C23.6836 20.7893 23.9451 20.9855 23.9451 21.1847L23.9451 25.9326C23.9451 26.0576 23.9838 26.1391 24.0452 26.2187C24.1065 26.3044 24.2372 26.4229 24.3728 26.511C24.7918 26.7831 25.4922 27.07 26.0221 27.311C26.4637 27.5119 26.6433 27.593 26.8729 27.8772C27.1024 27.593 27.2836 27.5119 27.7252 27.311C28.255 27.07 28.9555 26.7831 29.3744 26.511C29.5101 26.4229 29.6408 26.3045 29.7021 26.2187C29.7635 26.1391 29.8006 26.0576 29.8006 25.9326L29.8006 21.1847Z" fill="#F5D402"/>
<path d="M24.0959 23.8709L24.0959 21.1847C24.0959 21.0326 24.0189 20.9401 24.0189 20.9401L29.7267 20.9401C29.7267 20.9401 29.6498 21.0327 29.6498 21.1847L29.6514 23.8709L26.8737 24.7124L24.0959 23.8709Z" fill="#D10429"/>
<path d="M29.6515 23.8709L27.9315 23.8386L25.816 23.8386L24.0959 23.8709L24.0959 25.9325C24.0959 26.0362 24.2035 26.2789 24.8237 26.5879C25.8488 27.0987 26.6367 27.3372 26.8729 27.6279C27.1091 27.3372 27.897 27.0987 28.9222 26.5879C29.5423 26.2789 29.6499 26.0362 29.6499 25.9325L29.6515 23.8709Z" fill="#0B45BB"/>
<path d="M27.8899 23.7633C27.8899 23.7633 28.8822 23.5131 28.8822 22.4525C28.8822 21.6242 27.8873 21.2132 27.8591 21.0156C27.7618 21.3576 28.1914 21.83 28.1914 22.3894C28.1914 23.1133 27.6575 23.1479 27.6575 23.1479C27.5326 23.1479 27.482 23.2371 27.4329 23.2371C27.3278 23.2262 27.2783 23.0925 27.1744 23.0925C27.0768 23.0925 27.0019 23.2433 26.8729 23.2433C26.7439 23.2433 26.6705 23.0925 26.5729 23.0925C26.469 23.0925 26.4195 23.2262 26.3144 23.2371C26.2653 23.2371 26.2147 23.1479 26.0898 23.1479C26.0898 23.1479 25.5559 23.1133 25.5559 22.3894C25.5559 21.83 25.9855 21.3575 25.8883 21.0156C25.8601 21.2132 24.8652 21.6241 24.8652 22.4525C24.8652 23.5131 25.8575 23.7633 25.8575 23.7633L25.5744 24.2787C25.5744 24.2787 25.9845 24.2992 26.2022 24.4849C26.4646 24.7087 26.4391 25.183 26.4391 25.528C26.4391 25.7998 26.4047 26.0866 26.2652 26.2049C26.0779 26.3637 25.9513 26.3754 25.9513 26.5618C25.9513 26.7173 26.0709 26.7485 26.2652 26.8511C26.5143 26.9825 26.5027 27.1588 26.8729 27.1588C27.2432 27.1588 27.2331 26.9825 27.4821 26.8511C27.6765 26.7485 27.796 26.7173 27.796 26.5618C27.796 26.3754 27.6694 26.3637 27.4821 26.2049C27.3427 26.0866 27.3083 25.7998 27.3083 25.528C27.3083 25.183 27.2828 24.7087 27.5452 24.4849C27.7629 24.2992 28.1729 24.2787 28.1729 24.2787L27.8899 23.7633Z" fill="black"/>
<path d="M26.8728 21.0892L26.7005 21.5785L26.2312 21.3554L26.4543 21.8246L25.9651 21.9985L26.4543 22.1723L26.2312 22.64L26.7005 22.417L26.8728 22.9062L27.0467 22.417L27.5159 22.64L27.2929 22.1723L27.7821 21.9985L27.2929 21.8246L27.5159 21.3554L27.0467 21.5785L26.8728 21.0892Z" fill="black"/>
<path d="M25.8159 23.8387C25.8159 23.8387 25.2032 23.6889 24.9743 23.3864C24.5742 23.7463 24.0958 23.871 24.0958 23.871C24.0958 23.871 24.5949 24.0964 24.9743 24.3834C25.1491 24.1328 25.8159 23.8387 25.8159 23.8387Z" fill="black"/>
<path d="M27.9313 23.8387C27.9313 23.8387 28.598 24.1328 28.7729 24.3834C29.1522 24.0964 29.6513 23.871 29.6513 23.871C29.6513 23.871 29.1729 23.7463 28.7729 23.3864C28.544 23.6889 27.9313 23.8387 27.9313 23.8387Z" fill="black"/>
<path d="M26.0668 24.4909L25.8284 24.7293L26.0668 24.9678L26.3053 24.7293L26.0668 24.4909Z" fill="black"/>
<path d="M27.6806 24.4909L27.4421 24.7293L27.6806 24.9678L27.919 24.7293L27.6806 24.4909Z" fill="black"/>
<path d="M26.0068 25.8832C26.0068 26.1845 25.9775 26.3432 25.9775 26.3432C25.9775 26.3432 26.3137 26.2442 26.3807 25.9032C26.412 25.7433 26.447 25.1544 26.2853 25.0539L25.8468 24.9678C25.8941 25.085 26.0068 25.4479 26.0068 25.8832Z" fill="black"/>
<path d="M27.4621 25.054C27.3004 25.1544 27.3353 25.7433 27.3667 25.9032C27.4336 26.2443 27.7698 26.3432 27.7698 26.3432C27.7698 26.3432 27.7406 26.1845 27.7406 25.8832C27.7406 25.448 27.8532 25.085 27.9006 24.9678L27.4621 25.054Z" fill="black"/>
<path d="M24.973 25.071C24.8218 25.1089 24.7304 25.2629 24.7684 25.4141C24.7742 25.4372 24.7837 25.4586 24.7945 25.4787C24.7725 25.4714 24.7495 25.4665 24.7253 25.4649C24.7156 25.4642 24.7056 25.4645 24.6961 25.4649C24.553 25.4697 24.4337 25.5822 24.4238 25.728C24.4131 25.8835 24.5313 26.0173 24.6869 26.028C24.7101 26.0295 24.7326 26.0287 24.7545 26.0249C24.7411 26.0432 24.7296 26.0628 24.7207 26.0849C24.6625 26.2295 24.733 26.3959 24.8776 26.4542C25.0223 26.5123 25.1871 26.4403 25.2453 26.2957C25.2542 26.2736 25.2592 26.2521 25.2623 26.2295C25.2756 26.248 25.2916 26.2649 25.3099 26.2803C25.4295 26.3803 25.6084 26.3644 25.7084 26.2449C25.8084 26.1254 25.7926 25.948 25.673 25.848C25.6549 25.8328 25.6348 25.8209 25.6145 25.8111C25.6363 25.8041 25.6574 25.7945 25.6776 25.7819C25.8097 25.6991 25.8496 25.5231 25.7668 25.391C25.7099 25.3003 25.6099 25.2536 25.5099 25.2603C25.4644 25.2633 25.4189 25.2775 25.3776 25.3034C25.3574 25.316 25.3395 25.3301 25.3237 25.3464C25.3238 25.3237 25.3218 25.3003 25.3161 25.2772C25.2829 25.1449 25.1613 25.0577 25.0299 25.0634C25.0111 25.0642 24.9919 25.0663 24.973 25.071Z" fill="black"/>
<path d="M27.9728 25.8925C28.0034 26.1806 28.2375 26.422 28.5267 26.491C28.4773 26.4102 28.4445 26.3202 28.4343 26.2248C28.3981 25.8831 28.6624 25.6063 29.0236 25.6063C29.0805 25.6063 29.1356 25.6133 29.1897 25.6264C29.0624 25.4176 28.8226 25.2725 28.562 25.2725C28.2008 25.2725 27.9365 25.5509 27.9728 25.8925Z" fill="black"/>
<path d="M25.4113 22.3894C25.4113 22.9342 25.7018 23.2555 26.0898 23.2555C26.1638 23.2555 26.2447 23.3556 26.3144 23.3556C26.4281 23.3556 26.5037 23.2294 26.5729 23.2294C26.6609 23.2294 26.7201 23.3679 26.8729 23.3679C27.0256 23.3679 27.0865 23.2294 27.1744 23.2294C27.2436 23.2294 27.3192 23.3556 27.4329 23.3556C27.5026 23.3556 27.5835 23.2555 27.6575 23.2555C28.0455 23.2555 28.336 22.9342 28.336 22.3894C28.336 21.9451 27.9629 21.4034 28.0037 21.3155C28.0037 21.3155 28.7314 21.8375 28.7314 22.4525C28.7314 23.4431 27.7268 23.6879 27.7268 23.6879L27.9529 24.1971C27.9529 24.1971 27.6415 24.2438 27.4514 24.3971C27.1977 24.6016 27.1944 25.1542 27.1944 25.5279C27.1944 25.9681 27.2108 26.1546 27.3698 26.2741C27.5375 26.4001 27.6636 26.4272 27.6636 26.5556C27.6636 26.6675 27.5331 26.7133 27.3636 26.7879C27.1709 26.8729 27.1517 27.0203 26.8729 27.0203C26.594 27.0203 26.5763 26.8729 26.3836 26.7879C26.2142 26.7133 26.0836 26.6675 26.0836 26.5556C26.0836 26.4272 26.2097 26.4001 26.3774 26.2741C26.5365 26.1546 26.5528 25.9681 26.5528 25.5279C26.5528 25.1542 26.5495 24.6016 26.2959 24.3971C26.1057 24.2437 25.7943 24.1971 25.7943 24.1971L26.0205 23.6879C26.0205 23.6879 25.0159 23.4431 25.0159 22.4525C25.0159 21.8375 25.7436 21.3155 25.7436 21.3155C25.7844 21.4034 25.4113 21.9451 25.4113 22.3894ZM26.4928 26.4803C26.2955 26.4803 26.1698 26.522 26.1698 26.5819C26.1698 26.6418 26.2955 26.6819 26.4928 26.6819C26.5454 26.6819 26.6051 26.6513 26.6051 26.5819C26.6051 26.5125 26.5454 26.4803 26.4928 26.4803ZM27.2544 26.4803C27.2018 26.4803 27.1421 26.5125 27.1421 26.5819C27.142 26.6513 27.2018 26.6819 27.2544 26.6819C27.4517 26.6819 27.5774 26.6418 27.5774 26.5819C27.5774 26.522 27.4517 26.4803 27.2544 26.4803Z" fill="#FFD200"/>
<path d="M26.8745 21.4186L26.9853 21.731L27.2838 21.5879L27.1422 21.8879L27.453 21.9987L27.1422 22.1094L27.2838 22.4079L26.9853 22.2663L26.873 22.5771L26.7622 22.2663L26.4638 22.4079L26.6053 22.1094L26.2946 21.9987L26.6053 21.8879L26.4638 21.5879L26.7622 21.731L26.8745 21.4186Z" fill="#FFD200"/>
<path d="M25.4881 23.8573C25.488 23.8573 24.9742 24.2388 24.9742 24.2388L24.968 24.2465L24.9573 24.2373L24.3881 23.8803C24.3881 23.8803 24.7513 23.7551 24.965 23.5373C25.1672 23.7688 25.4881 23.8573 25.4881 23.8573Z" fill="#FFD200"/>
<path d="M29.3589 23.8803C29.3589 23.8803 28.98 24.0691 28.7896 24.2373L28.7789 24.2465L28.7727 24.2388C28.5929 24.0323 28.2589 23.8573 28.2589 23.8573C28.2589 23.8573 28.5798 23.7688 28.782 23.5373C28.9957 23.7551 29.3589 23.8803 29.3589 23.8803Z" fill="#FFD200"/>
<path d="M26.0667 24.6048L26.1913 24.7293L26.0667 24.8555L25.9406 24.7293L26.0667 24.6048Z" fill="#FFD200"/>
<path d="M27.6805 24.6048L27.8067 24.7293L27.6805 24.8555L27.5559 24.7293L27.6805 24.6048Z" fill="#FFD200"/>
<path d="M26.236 25.1493C26.3231 25.2694 26.3083 25.4637 26.3083 25.734C26.3083 26.0064 26.1037 26.1108 26.1037 26.1108C26.1037 25.4559 26.0362 25.2984 26.0006 25.1L26.236 25.1493Z" fill="#FFD200"/>
<path d="M27.7466 25.1C27.711 25.2984 27.6436 25.4559 27.6436 26.1108C27.6436 26.1108 27.4389 26.0064 27.4389 25.7339C27.4389 25.4637 27.4242 25.2695 27.5112 25.1493L27.7466 25.1Z" fill="#FFD200"/>
<path d="M25.2682 25.3479C25.2743 25.3724 25.275 25.3965 25.2728 25.4202C25.271 25.4399 25.2658 25.4577 25.259 25.4756C25.2249 25.4631 25.1881 25.4571 25.1498 25.4571C25.0548 25.4571 24.9698 25.4989 24.9113 25.5648C24.8959 25.5513 24.8826 25.5362 24.8713 25.5187C24.8587 25.4992 24.848 25.4778 24.8421 25.4541C24.8126 25.3365 24.8845 25.2174 25.0021 25.1879C25.0167 25.1842 25.0321 25.1823 25.0467 25.1817C25.1486 25.1774 25.2424 25.245 25.2682 25.3479Z" fill="#FFD200"/>
<path d="M25.1498 25.9912C25.2671 25.9912 25.3621 25.8961 25.3621 25.7788C25.3621 25.6616 25.2671 25.5665 25.1498 25.5665C25.0326 25.5665 24.9375 25.6616 24.9375 25.7788C24.9375 25.8961 25.0326 25.9912 25.1498 25.9912Z" fill="#FFD200"/>
<path d="M28.8773 25.4926C28.5248 25.5607 28.2712 25.8721 28.3081 26.2357C28.1957 26.1426 28.1135 26.0173 28.0988 25.8787C28.0703 25.6089 28.2663 25.4003 28.5619 25.4003C28.675 25.4003 28.7836 25.4349 28.8773 25.4926Z" fill="#FFD200"/>
<rect x="19" y="48" width="16" height="49" transform="rotate(-180 19 48)" fill="#3F6FEB"/>
</g>
</svg>
