<svg width="54" height="54" viewBox="0 0 54 54" fill="none" xmlns="http://www.w3.org/2000/svg">
<mask id="mask0_1_35857" style="mask-type:alpha" maskUnits="userSpaceOnUse" x="3" y="9" width="48" height="36">
<path d="M50.4307 35.8644C49.8332 40.5875 45.9585 43.9981 41.2139 44.3911C37.3588 44.7105 32.3804 45 27 45C21.6196 45 16.6412 44.7105 12.7861 44.3911C8.04151 43.9981 4.16681 40.5875 3.56934 35.8644C3.248 33.3241 3 30.296 3 27C3 23.704 3.248 20.6759 3.56934 18.1356C4.16682 13.4125 8.04151 10.0019 12.7861 9.60887C16.6412 9.28948 21.6196 9 27 9C32.3804 9 37.3588 9.28949 41.2139 9.60887C45.9585 10.0019 49.8332 13.4125 50.4307 18.1356C50.752 20.6759 51 23.704 51 27C51 30.296 50.752 33.3241 50.4307 35.8644Z" fill="#00D0BF"/>
</mask>
<g mask="url(#mask0_1_35857)">
<rect x="51" y="51" width="16" height="49" transform="rotate(-180 51 51)" fill="#EE5757"/>
<rect x="35" y="51" width="16" height="49" transform="rotate(-180 35 51)" fill="#FCD95E"/>
<path d="M25.4142 19.6661C25.3174 19.6661 25.2328 19.6908 25.1834 19.7292C25.2618 19.752 25.3189 19.8243 25.3189 19.9123L25.3189 20.1353L25.0958 20.1353C25.0084 20.1353 24.9361 20.0791 24.9127 20.0015C24.8743 20.0508 24.8496 20.1354 24.8496 20.2323C24.8496 20.3291 24.8743 20.4138 24.9127 20.463C24.9356 20.3846 25.0078 20.3276 25.0958 20.3276L25.3189 20.3276L25.3189 21.3999C25.3189 21.4842 25.2661 21.5542 25.1927 21.5799C25.2991 21.5944 25.3907 21.7372 25.4158 21.8153C25.4409 21.7374 25.5325 21.5944 25.6389 21.5799C25.5646 21.5546 25.5111 21.4848 25.5111 21.3999L25.5111 20.3276L25.7342 20.3276C25.8216 20.3276 25.894 20.3838 25.9173 20.4615C25.9557 20.4121 25.9804 20.3275 25.9804 20.2307C25.9804 20.1338 25.9558 20.0492 25.9173 19.9999C25.8945 20.0783 25.8222 20.1353 25.7342 20.1353L25.5111 20.1353L25.5111 19.9122C25.5111 19.8248 25.5673 19.7525 25.645 19.7291C25.5957 19.6907 25.5111 19.666 25.4142 19.666L25.4142 19.6661Z" fill="black"/>
<path d="M25.4143 19.7124C25.3639 19.7124 25.3195 19.7218 25.2821 19.7339C25.3321 19.7774 25.3651 19.8404 25.3651 19.9124L25.3651 20.1354C25.3651 20.1386 25.3642 20.1417 25.3636 20.1447L25.3636 20.1801L25.3282 20.1801C25.3252 20.1807 25.3221 20.1816 25.319 20.1816L25.0958 20.1816C25.0247 20.1816 24.9624 20.1491 24.919 20.1001C24.9065 20.1379 24.8959 20.1811 24.8959 20.2324C24.8959 20.2828 24.9053 20.3273 24.9174 20.3647C24.9609 20.3147 25.0239 20.2817 25.0958 20.2817L25.3651 20.2817C25.3648 20.2863 25.3635 20.2908 25.3635 20.2955L25.3635 20.3185C25.3642 20.3216 25.3651 20.3246 25.3651 20.3278L25.3651 21.4001C25.3651 21.4697 25.3292 21.5245 25.282 21.5678C25.3157 21.5886 25.3448 21.6148 25.3697 21.6447C25.3918 21.6713 25.4006 21.6974 25.4158 21.7247C25.4311 21.6974 25.4399 21.6713 25.462 21.6447C25.4865 21.6153 25.5151 21.59 25.5482 21.5693C25.5006 21.5261 25.4651 21.47 25.4651 21.4001L25.4651 20.2831L25.502 20.2831C25.505 20.2825 25.508 20.2816 25.5112 20.2816L25.7343 20.2816C25.8054 20.2816 25.8677 20.3142 25.9112 20.3631C25.9237 20.3253 25.9343 20.2821 25.9343 20.2308C25.9343 20.1804 25.9248 20.136 25.9128 20.0985C25.8693 20.1485 25.8063 20.1816 25.7343 20.1816L25.5112 20.1816C25.5081 20.1816 25.505 20.1806 25.502 20.18L25.4666 20.18L25.4666 20.1446C25.466 20.1417 25.4651 20.1386 25.465 20.1354L25.465 19.9123C25.465 19.8412 25.4976 19.779 25.5466 19.7354C25.5087 19.723 25.4656 19.7123 25.4143 19.7123" fill="#F5D402"/>
<path d="M28.2067 23.5954C28.0704 23.4986 27.9586 23.3891 27.879 23.2615C27.6875 22.9542 27.6067 22.5771 27.6067 22.1938C27.6067 22.0318 27.7882 21.8494 27.7882 21.7184C27.7882 21.5203 27.7698 21.4015 27.7698 21.4015C27.8342 21.4103 27.9467 21.5246 27.9467 21.5246C27.9467 21.5246 27.9428 21.1958 27.839 21.1384C27.839 21.1384 27.881 21.0952 28.0328 21.0907C27.9902 20.9827 27.779 20.8507 27.779 20.8507C27.7896 20.8318 27.8091 20.8155 27.8344 20.8015C27.8874 20.7722 27.962 20.7528 28.019 20.7415C27.9582 20.7289 27.8882 20.7096 27.8113 20.6845C27.6357 20.6273 27.4291 20.5434 27.2359 20.4507C26.8833 20.2816 26.6148 20.2707 26.4667 20.2707C26.3592 20.2707 26.201 20.2737 26.1083 20.3354C26.0234 20.3917 26.0303 20.465 26.0005 20.4908C25.9305 20.5513 25.8106 20.5492 25.7528 20.5492C25.379 20.5492 25.3651 20.9492 25.3651 20.9492C25.3651 20.9492 25.4607 20.8046 25.6297 20.8046C25.9107 20.8046 26.1236 20.9577 26.1236 21.0153C26.1236 21.0387 26.0946 21.043 26.0928 21.043C25.9093 21.043 25.6322 20.9374 25.4851 20.9323L25.4851 21.0046C25.8136 21.1188 26.1466 21.2807 26.1466 21.9938C26.1466 22.4429 26.0929 22.9011 25.8682 23.2615C25.7886 23.3891 25.6753 23.4983 25.539 23.5954L26.8728 23.8358L28.2067 23.5954Z" fill="black"/>
<path d="M26.8728 23.2949L25.539 23.5954C25.4783 23.5771 25.193 23.4884 24.9928 23.377C24.6404 23.1807 24.4577 22.9853 24.0389 22.9662L24.0389 22.6477C24.0389 22.4775 24.1005 22.3242 24.1005 22.1615C23.924 22.1142 23.434 21.5151 22.982 21.2492C22.317 21.6799 21.802 22.3871 21.802 22.7123C21.802 22.7123 21.822 29.6998 21.802 32.1341C21.802 32.2744 21.7174 32.4726 21.7174 32.4726C21.9602 32.3699 22.4052 31.7609 22.499 31.5295L22.499 31.6403C22.8656 31.4731 23.1341 31.0337 23.2544 30.8064C23.2565 30.8392 23.2621 30.9217 23.2621 30.9217C23.5896 30.6346 24.0067 28.9371 24.0067 28.9371L24.7016 29.6201C24.7016 29.6201 24.4503 30.1302 24.3524 30.2216C24.3524 30.2216 24.418 30.2299 24.4923 30.2293C24.4466 30.2951 24.0972 30.798 23.9877 30.9878C23.8852 31.1653 23.8129 31.0862 23.6554 31.0862C23.5248 31.0862 23.2287 31.2944 23.18 31.3786C23.1289 31.4671 23.0908 31.5746 23.0908 31.6632C23.0908 31.7606 23.1939 31.894 23.1939 31.894C23.205 31.8474 23.2247 31.8309 23.2247 31.8309C23.2247 31.8309 23.4955 32.1683 23.5354 32.2124C23.5665 32.2468 23.7051 32.2691 23.7539 32.2248C23.8761 32.1137 23.9944 32.036 24.1032 31.8755C24.1591 31.7928 24.1634 31.6981 24.2278 31.6093C24.443 31.3124 24.8713 30.7438 24.9693 30.6139C24.9759 30.6501 24.9815 30.6802 24.9877 30.717C25.0987 30.4929 25.6324 30.0647 25.6324 30.0647L26.1907 30.3216C26.1907 30.3216 25.1482 32.7179 24.2229 33.0863C24.2229 33.0863 24.6255 33.2574 25.1199 33.514C25.192 33.5515 25.2663 33.5917 25.3414 33.6325C25.4037 33.5576 25.4692 33.4743 25.5337 33.3879C25.8293 32.9924 26.1184 32.534 26.1184 32.534C26.1385 32.6531 25.9824 33.0207 25.7184 33.4741C25.6665 33.5632 25.6123 33.6563 25.5522 33.751C25.6192 33.7892 25.6857 33.8279 25.7522 33.8679C26.2419 34.1626 26.7018 34.5014 26.8722 34.8126L26.9924 34.5118L26.8722 34.211L26.8722 23.6939L26.9323 23.5436L26.8728 23.2949Z" fill="black"/>
<path d="M26.8721 34.2109C26.6994 34.0235 26.3381 33.7946 25.9322 33.5833C26.423 32.7023 26.6663 31.3096 26.5521 31.0324C26.5521 31.0324 26.3506 31.7547 26.1044 32.1663C25.8764 32.5474 25.5958 32.9762 25.3244 33.294C25.1012 33.1988 24.8847 33.1189 24.6998 33.0632C25.513 32.4368 26.3444 30.3662 26.3444 30.3662L25.4846 29.9677C25.4846 29.9677 25.1629 30.3428 25.0584 30.4124C25.0584 30.4124 25.0138 30.2259 24.9877 30.1601C24.9877 30.1601 24.8644 30.2533 24.797 30.2555C24.797 30.2555 24.7768 30.1289 24.7615 30.0462C24.6767 30.1028 24.5354 30.0909 24.5354 30.0909C24.6594 30.0321 24.8062 29.6724 24.8062 29.6724L23.9851 28.5802C23.9851 28.5802 23.6967 29.9661 23.3682 30.251L23.3682 24.2831L23.6282 24.5247L24.022 24.157L24.022 23.877L23.6728 24.2031L23.6728 23.3585C23.7254 23.2789 23.7603 23.2194 23.7866 23.1723C23.8431 23.2709 24.0258 23.5729 24.2404 23.7585C24.2758 23.6149 24.5081 23.4785 24.5081 23.4785C24.5081 23.4785 24.5914 23.7041 24.7189 23.76C24.7637 23.681 25.0312 23.5062 25.0312 23.5062C25.0312 23.5062 24.8024 23.5409 24.7097 23.6277C24.6301 23.6099 24.6097 23.2954 24.6097 23.2954C24.6097 23.2954 24.2729 23.4595 24.2143 23.5769C24.1501 23.5596 24.0501 23.3068 24.0112 23.2031C24.0699 23.1967 24.1529 23.1893 24.262 23.1893C24.358 23.1893 24.4809 23.2348 24.6096 23.2954C24.7511 23.362 24.8991 23.4463 25.0312 23.5062C25.2005 23.5828 25.4565 23.5984 25.5312 23.6016C25.4457 23.6617 25.3517 23.7166 25.2497 23.7677C25.2497 23.7677 25.6527 23.764 25.9359 23.6231C26.0369 23.5581 26.1417 23.4934 26.2312 23.4169C26.1924 23.5249 26.1319 23.6525 26.0373 23.7616C26.4531 23.7264 26.6602 23.4889 26.7189 23.4093C26.7465 23.4806 26.7956 23.5952 26.8727 23.6938L27.023 23.6938L27.023 33.9117L26.8721 34.2109Z" fill="#B07F55"/>
<path d="M23.8081 22.1923L23.8158 22.383L23.8158 22.9446C23.6649 22.8927 23.4754 22.6449 23.3835 22.5138L23.3835 22.4369C23.3835 22.3645 23.4261 22.3117 23.4573 22.2831L23.3666 22.2508C23.3319 22.2903 23.2943 22.3489 23.2943 22.4246L23.2943 22.4692L23.0235 22.76L22.7574 22.3569L22.7574 22.2585C22.7574 22.1921 22.8084 22.1181 22.8512 22.0677L22.762 22.0354C22.7169 22.0938 22.6696 22.1724 22.6696 22.2462L22.6696 22.3261C22.607 22.3909 22.3635 22.6416 22.3635 22.6416C22.3635 22.6416 22.2413 22.379 22.2081 22.3077C22.3946 22.0494 22.697 21.7602 22.9819 21.5527C22.9819 21.5527 23.6 22.1201 23.8081 22.1923Z" fill="#B07F55"/>
<path d="M22.2418 22.7369L22.2418 23.2L22.0264 23.4L22.0264 22.7123C22.0264 22.6465 22.054 22.5671 22.1002 22.48L22.2418 22.7369Z" fill="#B07F55"/>
<path d="M22.9126 22.9153L22.9126 23.2015L22.6649 23.4338L22.6649 22.5385L22.9126 22.9153Z" fill="#B07F55"/>
<path d="M22.5772 23.4323L22.3295 23.2015L22.3295 22.8662L22.5772 22.6062L22.5772 23.4323Z" fill="#B07F55"/>
<path d="M23.7079 23.0846C23.6504 23.1659 23.4997 23.3647 23.3372 23.4523L23.3372 22.6661C23.3745 22.7282 23.5455 23.005 23.7079 23.0846Z" fill="#B07F55"/>
<path d="M23.2494 22.7061L23.2494 23.4323L23.0017 23.2015L23.0017 22.9446L23.2494 22.7061Z" fill="#B07F55"/>
<path d="M22.2418 23.48L22.2418 24.2046L22.0264 24.0031L22.0264 23.6815L22.2418 23.48Z" fill="#B07F55"/>
<path d="M22.577 23.7123L22.577 23.9723L22.3292 24.203L22.3292 23.4815L22.577 23.7123Z" fill="#B07F55"/>
<path d="M22.9123 23.4816L22.9123 24.2031L22.6647 23.9708L22.6647 23.7139L22.9123 23.4816Z" fill="#B07F55"/>
<path d="M23.2493 23.7139L23.2493 23.9708L23.0016 24.2031L23.0016 23.4816L23.2493 23.7139Z" fill="#B07F55"/>
<path d="M23.5847 24.2046L23.3369 23.9723L23.3369 23.7308C23.4224 23.6787 23.5083 23.5828 23.5847 23.4816L23.5847 24.2046Z" fill="#B07F55"/>
<path d="M22.957 24.5246L23.2185 24.2815L23.2185 30.2509C23.2185 30.2509 23.2367 30.5471 23.2493 30.7401C23.133 30.8577 22.6954 31.3001 22.6954 31.3001L22.6954 24.2799L22.957 24.5246Z" fill="#B07F55"/>
<path d="M22.5461 31.077C22.5461 31.2689 22.1957 31.7163 22.0261 31.8186L22.0261 24.2832L22.2846 24.5247L22.5461 24.2816L22.5461 31.077Z" fill="#B07F55"/>
<path d="M24.7184 30.4293L24.9091 30.2985C24.9091 30.2985 24.9219 30.3617 24.9384 30.4478C24.8567 30.5595 24.3875 31.1999 24.1553 31.5124C24.0975 31.5901 24.0491 31.7878 24.0491 31.7878C24.0491 31.7878 23.9645 31.7478 23.9645 31.6755C23.9645 31.6045 23.9738 31.5201 23.9738 31.5201C23.9738 31.5201 23.9106 31.5924 23.8014 31.5924C23.8014 31.5052 23.9701 31.4106 23.9768 31.2863C23.8481 31.3817 23.7364 31.3327 23.5876 31.3786C23.4255 31.4286 23.3804 31.4967 23.3307 31.494C23.3014 31.4924 23.2749 31.442 23.2861 31.4109C23.3054 31.3572 23.5059 31.2086 23.646 31.1817C23.6796 31.1753 23.9436 31.2392 23.9968 31.1571C24.2159 30.819 24.5717 30.27 24.606 30.2171C24.6286 30.2117 24.6494 30.206 24.666 30.1955C24.666 30.1955 24.664 30.3684 24.7184 30.4293V30.4293Z" fill="#D10429"/>
<path d="M23.4917 31.4831C23.5023 31.4954 23.5014 31.5133 23.4901 31.5231L23.404 31.5984C23.3927 31.6082 23.3746 31.6061 23.364 31.5938C23.3534 31.5816 23.3543 31.5636 23.3656 31.5538L23.4517 31.4784C23.4574 31.4735 23.4646 31.4714 23.4717 31.4723C23.4789 31.4731 23.4864 31.4769 23.4917 31.4831V31.4831Z" fill="#D10429"/>
<path d="M23.6226 31.5739C23.6483 31.6036 23.6467 31.6456 23.6195 31.6693L23.4102 31.8523C23.383 31.876 23.3391 31.8713 23.3133 31.8416C23.2875 31.8119 23.2891 31.7683 23.3164 31.7447L23.5256 31.5631C23.5358 31.5542 23.5497 31.5488 23.5625 31.5477C23.5839 31.546 23.6064 31.5554 23.6226 31.5739V31.5739Z" fill="#D10429"/>
<path d="M23.7424 31.7154C23.7682 31.7451 23.7665 31.7871 23.7393 31.8108L23.5286 31.9939C23.5014 32.0175 23.459 32.0128 23.4332 31.9831C23.4074 31.9535 23.409 31.9099 23.4363 31.8862L23.6455 31.7047C23.6557 31.6958 23.668 31.6904 23.6809 31.6893C23.7023 31.6875 23.7263 31.6968 23.7424 31.7154V31.7154Z" fill="#D10429"/>
<path d="M23.8147 31.8277C23.8361 31.826 23.8586 31.8338 23.8747 31.8523C23.9005 31.882 23.8988 31.9256 23.8716 31.9493L23.6623 32.1308C23.6351 32.1545 23.5927 32.1497 23.567 32.12C23.5412 32.0904 23.5413 32.0483 23.5685 32.0246L23.7793 31.8416C23.7894 31.8327 23.8018 31.8287 23.8147 31.8277V31.8277Z" fill="#D10429"/>
<path d="M26.5636 20.3692C26.908 20.3692 27.1501 20.5262 27.476 20.6707C27.5614 20.7086 27.6398 20.7393 27.7098 20.763C27.6659 20.8019 27.6318 20.8409 27.6221 20.8738C27.6221 20.8738 27.7681 20.9009 27.8344 21.0231C27.8344 21.0231 27.6955 21.0388 27.6728 21.12C27.7506 21.1258 27.8279 21.2239 27.8282 21.3185L27.6313 21.2569C27.6313 21.2569 27.679 21.478 27.679 21.7185C27.679 21.8412 27.5021 21.9857 27.5021 22.1939C27.5021 22.847 27.6666 23.0981 27.7837 23.3C27.8294 23.379 27.8666 23.4699 27.9437 23.5385C27.6065 23.359 27.3559 23.1346 27.3559 22.9262L27.3559 22.1369L27.2683 22.1369L27.2683 22.9262C27.2683 23.0773 27.3052 23.1477 27.3052 23.1477C27.3581 23.3149 27.4651 23.573 27.5313 23.6769C27.2212 23.5093 27.0636 23.2994 27.0636 23.2216L27.0636 22.1369L26.9759 22.1369L26.9759 23.2369L26.9928 23.3123C26.9552 23.3688 26.9064 23.4357 26.8728 23.4584C26.8394 23.4357 26.792 23.3687 26.7543 23.3123L26.7713 23.2369L26.7713 22.1369L26.6836 22.1369L26.6836 23.2216C26.6836 23.2994 26.526 23.5093 26.2159 23.6769C26.2821 23.573 26.3891 23.3149 26.442 23.1477C26.442 23.1477 26.4789 23.0773 26.4789 22.9262L26.4789 22.1369L26.3912 22.1369L26.3912 22.9262C26.3912 23.1343 26.1416 23.3591 25.8051 23.5385C25.8813 23.4699 25.918 23.3786 25.9635 23.3C26.0915 23.0792 26.2497 22.7986 26.2497 22C26.2497 21.7002 26.2053 21.4965 26.1281 21.3538C26.1046 21.3068 26.073 21.1815 26.2527 21.1815C26.3458 21.1815 26.5589 21.3461 26.5589 21.3461C26.5589 21.3461 26.5501 21.2148 26.442 21.14C26.424 21.1276 26.3943 21.0885 26.3943 21.0522C26.3943 21.0251 26.4409 20.958 26.4773 20.9415C26.5024 20.9301 26.1112 20.862 26.1112 20.6846C26.1112 20.6476 26.1344 20.623 26.2158 20.623C26.3223 20.623 26.4956 20.7507 26.6497 20.7507C26.7635 20.7507 26.8084 20.723 26.925 20.723C27.0675 20.723 27.3648 20.9928 27.4665 20.983C27.3529 20.9116 27.1692 20.6414 26.8912 20.6414C26.7947 20.6414 26.7074 20.663 26.6173 20.663C26.5019 20.663 26.3882 20.5568 26.2634 20.5568C26.1798 20.5568 26.0865 20.5615 26.0726 20.5399C26.0484 20.5021 26.0702 20.4803 26.0927 20.4491C26.135 20.3903 26.2539 20.3732 26.3712 20.3691C26.4063 20.3679 26.4414 20.3673 26.4743 20.3676C26.5071 20.368 26.5374 20.3692 26.5636 20.3692V20.3692Z" fill="#B07F55"/>
<path d="M25.4455 20.7915C25.4455 20.7915 25.5182 20.6539 25.702 20.6539C25.7788 20.6539 26.0323 20.6486 26.0323 20.6486C26.0661 20.7363 26.2201 20.883 26.2201 21.0356C26.2201 21.0356 26.0638 20.7538 25.6274 20.7538C25.5177 20.7538 25.4454 20.7915 25.4454 20.7915L25.4455 20.7915Z" fill="#CC092F"/>
<path d="M26.1551 21.0894C26.1551 21.0894 26.0622 21.1873 26.042 21.2395C25.95 21.2047 25.7896 21.0394 25.7896 21.0394C25.7896 21.0394 25.9255 21.1188 26.1551 21.0894L26.1551 21.0894Z" fill="#D10429"/>
<path d="M26.0079 20.83C26.0079 20.83 25.9006 20.7956 25.9006 20.7596C25.9006 20.7138 25.9527 20.7138 25.9838 20.7495C26.0053 20.7741 26.0078 20.83 26.0078 20.83L26.0079 20.83Z" fill="black"/>
<path d="M26.4694 20.9542C26.5543 20.9542 26.6231 20.8998 26.6231 20.8327C26.6231 20.7656 26.5543 20.7112 26.4694 20.7112C26.3846 20.7112 26.3158 20.7656 26.3158 20.8327C26.3158 20.8998 26.3846 20.9542 26.4694 20.9542Z" fill="black"/>
<path d="M26.4694 20.9397C26.5285 20.9397 26.5764 20.8918 26.5764 20.8327C26.5764 20.7736 26.5285 20.7257 26.4694 20.7257C26.4103 20.7257 26.3624 20.7736 26.3624 20.8327C26.3624 20.8918 26.4103 20.9397 26.4694 20.9397Z" fill="#F5D402"/>
<path d="M26.4694 20.8781C26.4944 20.8781 26.5148 20.8578 26.5148 20.8327C26.5148 20.8076 26.4944 20.7873 26.4694 20.7873C26.4443 20.7873 26.424 20.8076 26.424 20.8327C26.424 20.8578 26.4443 20.8781 26.4694 20.8781Z" fill="black"/>
<path d="M26.8661 23.2949L28.1999 23.5954C28.2606 23.5771 28.5459 23.4884 28.7461 23.3769C29.0985 23.1806 29.2812 22.9853 29.7 22.9662L29.7 22.6477C29.7 22.4775 29.6384 22.3242 29.6384 22.1615C29.8149 22.1142 30.3049 21.5151 30.7569 21.2492C31.4219 21.6799 31.9369 22.3871 31.9369 22.7123C31.9369 22.7123 31.9169 29.6998 31.9369 32.1341C31.9369 32.2744 32.0215 32.4726 32.0215 32.4726C31.7787 32.3698 31.3336 31.7609 31.2399 31.5294L31.2399 31.6402C30.8733 31.473 30.6048 31.0337 30.4845 30.8064C30.4824 30.8392 30.4768 30.9217 30.4768 30.9217C30.1492 30.6346 29.7322 28.9371 29.7322 28.9371L29.0373 29.6201C29.0373 29.6201 29.2886 30.1302 29.3865 30.2216C29.3865 30.2216 29.3209 30.2299 29.2466 30.2293C29.2923 30.295 29.6417 30.798 29.7512 30.9877C29.8536 31.1652 29.9259 31.0862 30.0835 31.0862C30.2141 31.0862 30.5102 31.2943 30.5589 31.3786C30.61 31.4671 30.6481 31.5746 30.6481 31.6632C30.6481 31.7605 30.545 31.894 30.545 31.894C30.5339 31.8473 30.5142 31.8309 30.5142 31.8309C30.5142 31.8309 30.2434 32.1683 30.2035 32.2124C30.1724 32.2467 30.0338 32.2691 29.985 32.2247C29.8628 32.1136 29.7445 32.036 29.6357 31.8755C29.5797 31.7928 29.5755 31.6981 29.5111 31.6093C29.2959 31.3124 28.8676 30.7438 28.7696 30.6139C28.763 30.6501 28.7574 30.6802 28.7512 30.717C28.6402 30.4929 28.1065 30.0647 28.1065 30.0647L27.5482 30.3216C27.5482 30.3216 28.5907 32.7179 29.5159 33.0863C29.5159 33.0863 29.1134 33.2573 28.619 33.514C28.5469 33.5515 28.4726 33.5917 28.3975 33.6325C28.3352 33.5576 28.2697 33.4743 28.2052 33.3879C27.9096 32.9924 27.6205 32.534 27.6205 32.534C27.6004 32.653 27.7565 33.0207 28.0205 33.4741C28.0724 33.5632 28.1266 33.6563 28.1867 33.751C28.1197 33.7892 28.0532 33.8279 27.9867 33.8679C27.497 34.1626 27.0371 34.5013 26.8667 34.8125L26.7465 34.5117L26.8667 34.2109L26.8667 23.6938L26.8066 23.5436L26.8661 23.2949Z" fill="black"/>
<path d="M26.8667 34.2109C27.0395 34.0235 27.4008 33.7946 27.8067 33.5833C27.3159 32.7022 27.0726 31.3096 27.1867 31.0324C27.1867 31.0324 27.3883 31.7547 27.6345 32.1663C27.8625 32.5474 28.1431 32.9762 28.4145 33.294C28.6377 33.1988 28.8542 33.1189 29.0391 33.0632C28.2259 32.4368 27.3944 30.3662 27.3944 30.3662L28.2543 29.9677C28.2543 29.9677 28.576 30.3428 28.6805 30.4124C28.6805 30.4124 28.7251 30.2259 28.7512 30.1601C28.7512 30.1601 28.8745 30.2533 28.9419 30.2555C28.9419 30.2555 28.9621 30.1289 28.9773 30.0462C29.0622 30.1028 29.2035 30.0909 29.2035 30.0909C29.0795 30.0321 28.9327 29.6724 28.9327 29.6724L29.7538 28.5802C29.7538 28.5802 30.0422 29.9661 30.3707 30.251L30.3707 24.2831L30.1107 24.5247L29.7169 24.157L29.7169 23.877L30.0661 24.2031L30.0661 23.3585C30.0135 23.2789 29.9786 23.2194 29.9523 23.1723C29.8957 23.2709 29.7131 23.5729 29.4985 23.7585C29.4631 23.6149 29.2307 23.4785 29.2307 23.4785C29.2307 23.4785 29.1475 23.7041 29.02 23.76C28.9752 23.681 28.7077 23.5062 28.7077 23.5062C28.7077 23.5062 28.9365 23.5409 29.0292 23.6277C29.1088 23.6099 29.1292 23.2954 29.1292 23.2954C29.1292 23.2954 29.466 23.4595 29.5246 23.5769C29.5888 23.5596 29.6888 23.3068 29.7277 23.2031C29.669 23.1967 29.586 23.1893 29.4769 23.1893C29.3809 23.1893 29.258 23.2348 29.1293 23.2954C28.9878 23.362 28.8398 23.4463 28.7077 23.5062C28.5384 23.5828 28.2823 23.5984 28.2077 23.6016C28.2932 23.6617 28.3872 23.7166 28.4892 23.7677C28.4892 23.7677 28.0862 23.764 27.803 23.6231C27.702 23.5581 27.5972 23.4934 27.5077 23.4169C27.5465 23.5249 27.607 23.6525 27.7016 23.7616C27.2857 23.7264 27.0787 23.4889 27.02 23.4093C26.9924 23.4806 26.9433 23.5952 26.8662 23.6938L26.7159 23.6938L26.7159 33.9117L26.8667 34.2109Z" fill="#B07F55"/>
<path d="M29.9308 22.1922L29.9231 22.383L29.9231 22.9446C30.074 22.8927 30.2635 22.6449 30.3554 22.5138L30.3554 22.4369C30.3554 22.3645 30.3128 22.3117 30.2816 22.2831L30.3723 22.2508C30.4069 22.2902 30.4446 22.3488 30.4446 22.4246L30.4446 22.4692L30.7154 22.76L30.9815 22.3569L30.9815 22.2585C30.9815 22.1921 30.9305 22.1181 30.8877 22.0677L30.9769 22.0354C31.022 22.0938 31.0692 22.1724 31.0692 22.2462L31.0692 22.3261C31.1318 22.3909 31.3754 22.6416 31.3754 22.6416C31.3754 22.6416 31.4976 22.379 31.5308 22.3077C31.3443 22.0494 31.0419 21.7602 30.7569 21.5526C30.7569 21.5526 30.1389 22.12 29.9308 22.1922Z" fill="#B07F55"/>
<path d="M31.4971 22.7369L31.4971 23.2L31.7125 23.4L31.7125 22.7123C31.7125 22.6465 31.6849 22.5671 31.6387 22.48L31.4971 22.7369Z" fill="#B07F55"/>
<path d="M30.8263 22.9153L30.8263 23.2015L31.074 23.4338L31.074 22.5384L30.8263 22.9153Z" fill="#B07F55"/>
<path d="M31.1617 23.4323L31.4094 23.2015L31.4094 22.8662L31.1617 22.6062L31.1617 23.4323Z" fill="#B07F55"/>
<path d="M30.031 23.0846C30.0885 23.1659 30.2391 23.3647 30.4017 23.4523L30.4017 22.6661C30.3644 22.7282 30.1933 23.0049 30.031 23.0846Z" fill="#B07F55"/>
<path d="M30.4895 22.7061L30.4895 23.4323L30.7372 23.2015L30.7372 22.9446L30.4895 22.7061Z" fill="#B07F55"/>
<path d="M31.4971 23.4799L31.4971 24.2046L31.7125 24.003L31.7125 23.6815L31.4971 23.4799Z" fill="#B07F55"/>
<path d="M31.1619 23.7123L31.1619 23.9723L31.4097 24.203L31.4097 23.4815L31.1619 23.7123Z" fill="#B07F55"/>
<path d="M30.8266 23.4816L30.8266 24.2031L31.0742 23.9708L31.0742 23.7139L30.8266 23.4816Z" fill="#B07F55"/>
<path d="M30.4896 23.7139L30.4896 23.9708L30.7373 24.2031L30.7373 23.4815L30.4896 23.7139Z" fill="#B07F55"/>
<path d="M30.1542 24.2046L30.402 23.9723L30.402 23.7308C30.3165 23.6786 30.2306 23.5828 30.1542 23.4815L30.1542 24.2046Z" fill="#B07F55"/>
<path d="M30.7819 24.5246L30.5204 24.2815L30.5204 30.2509C30.5204 30.2509 30.5022 30.5471 30.4896 30.7401C30.6059 30.8576 31.0435 31.3001 31.0435 31.3001L31.0435 24.2799L30.7819 24.5246Z" fill="#B07F55"/>
<path d="M31.1928 31.077C31.1928 31.2689 31.5432 31.7163 31.7128 31.8186L31.7128 24.2832L31.4543 24.5247L31.1928 24.2816L31.1928 31.077Z" fill="#B07F55"/>
<path d="M29.0205 30.4293L28.8298 30.2985C28.8298 30.2985 28.817 30.3616 28.8005 30.4478C28.8822 30.5595 29.3514 31.1998 29.5836 31.5124C29.6414 31.5901 29.6898 31.7878 29.6898 31.7878C29.6898 31.7878 29.7744 31.7478 29.7744 31.6755C29.7744 31.6045 29.7651 31.5201 29.7651 31.5201C29.7651 31.5201 29.8283 31.5924 29.9375 31.5924C29.9375 31.5052 29.7688 31.4105 29.7621 31.2863C29.8908 31.3817 30.0025 31.3327 30.1513 31.3786C30.3134 31.4285 30.3585 31.4966 30.4082 31.494C30.4375 31.4924 30.464 31.4419 30.4528 31.4109C30.4335 31.3572 30.233 31.2086 30.0929 31.1817C30.0593 31.1753 29.7953 31.2392 29.7421 31.1571C29.5229 30.819 29.1672 30.27 29.1329 30.2171C29.1103 30.2117 29.0895 30.206 29.0729 30.1955C29.0729 30.1955 29.0749 30.3683 29.0205 30.4293V30.4293Z" fill="#D10429"/>
<path d="M30.2472 31.4831C30.2366 31.4953 30.2375 31.5133 30.2488 31.5231L30.3349 31.5984C30.3462 31.6082 30.3642 31.6061 30.3749 31.5938C30.3855 31.5815 30.3846 31.5636 30.3733 31.5538L30.2872 31.4784C30.2815 31.4735 30.2743 31.4714 30.2672 31.4723C30.26 31.4731 30.2525 31.4769 30.2472 31.4831V31.4831Z" fill="#D10429"/>
<path d="M30.1163 31.5738C30.0906 31.6035 30.0922 31.6456 30.1194 31.6693L30.3287 31.8523C30.3559 31.876 30.3998 31.8712 30.4256 31.8416C30.4514 31.8119 30.4497 31.7683 30.4225 31.7447L30.2133 31.5631C30.2031 31.5542 30.1892 31.5488 30.1764 31.5477C30.155 31.546 30.1325 31.5553 30.1163 31.5738V31.5738Z" fill="#D10429"/>
<path d="M29.9965 31.7154C29.9707 31.7451 29.9724 31.7871 29.9996 31.8108L30.2103 31.9939C30.2375 32.0175 30.2799 32.0128 30.3057 31.9831C30.3315 31.9534 30.3299 31.9098 30.3026 31.8862L30.0934 31.7047C30.0832 31.6958 30.0709 31.6904 30.058 31.6893C30.0366 31.6875 30.0126 31.6968 29.9965 31.7154V31.7154Z" fill="#D10429"/>
<path d="M29.9242 31.8277C29.9028 31.8259 29.8803 31.8337 29.8642 31.8523C29.8384 31.882 29.8401 31.9256 29.8673 31.9492L30.0765 32.1308C30.1038 32.1545 30.1461 32.1497 30.1719 32.12C30.1977 32.0903 30.1976 32.0482 30.1704 32.0246L29.9596 31.8415C29.9495 31.8327 29.9371 31.8287 29.9242 31.8277V31.8277Z" fill="#D10429"/>
<path d="M24.5092 32.2145L24.0223 31.9489L23.9042 32.4907L24.3911 32.7563L24.5092 32.2145Z" fill="black"/>
<path d="M21.7541 26.7431L21.5787 26.8232L23.5603 31.1634L23.7711 31.1634L21.7541 26.7431ZM24.0911 31.8617L23.948 32.0094L24.0372 32.2063L24.2111 32.1263L24.0911 31.8617Z" fill="black"/>
<path d="M22.3699 30.1652C22.3699 30.1652 22.5368 30.51 22.6637 30.5572C22.5981 30.5394 22.385 30.6175 22.385 30.6175C22.385 30.6175 22.7607 30.9531 23.0793 30.9751C23.3494 30.9937 23.4806 30.8589 23.4806 30.8589L23.4265 30.5726C23.4265 30.5726 23.2612 30.373 22.9967 30.2809C22.7294 30.1878 22.3699 30.1653 22.3699 30.1653L22.3699 30.1652Z" fill="black"/>
<path d="M23.6282 29.5476C23.6282 29.5476 23.3977 29.7449 23.3346 29.9735C23.2715 30.202 23.3757 30.4617 23.3757 30.4617L23.5694 30.823C23.5694 30.823 23.8378 30.6801 23.952 30.4666C24.0661 30.2529 24.0243 29.9647 24.0243 29.9647C24.0243 29.9647 23.8117 30.0439 23.7846 30.0789C23.8295 29.842 23.6281 29.5476 23.6281 29.5476L23.6282 29.5476Z" fill="black"/>
<path d="M22.8874 29.4554C22.8874 29.4554 22.6253 29.544 22.3707 29.5286C22.1283 29.514 21.9266 29.3104 21.9266 29.3104C21.9266 29.3104 22.1276 29.1744 22.2268 29.1925C22.1177 29.1526 21.9595 28.8793 21.9595 28.8793C21.9595 28.8793 22.1843 28.8113 22.3837 28.8865C22.5831 28.9617 22.7569 29.1801 22.7569 29.1801L22.8874 29.4554L22.8874 29.4554Z" fill="black"/>
<path d="M22.9776 28.1751C22.9776 28.1751 23.1087 28.4466 23.0776 28.5409C23.1183 28.4781 23.2721 28.3803 23.2721 28.3803C23.2721 28.3803 23.3652 28.8198 23.2762 29.0912C23.1873 29.3626 22.9164 29.466 22.9164 29.466L22.6175 28.8848C22.6175 28.8848 22.5731 28.6695 22.6662 28.499C22.7594 28.3286 22.9776 28.1751 22.9776 28.1751L22.9776 28.1751Z" fill="black"/>
<path d="M21.2721 27.4566C21.2721 27.4566 21.5554 27.4268 21.8146 27.5342C22.0313 27.6241 22.0977 27.7876 22.0977 27.7876L22.2044 28.0737C22.2044 28.0737 21.8961 28.1894 21.6524 28.101C21.4088 28.0125 21.2297 27.7199 21.2297 27.7199C21.2297 27.7199 21.4 27.6553 21.4648 27.6795C21.3704 27.6378 21.2722 27.4566 21.2722 27.4566L21.2722 27.4566L21.2721 27.4566Z" fill="black"/>
<path d="M22.1632 26.9256C22.1632 26.9256 22.2876 27.0852 22.2913 27.2689C22.3244 27.1712 22.4797 27.0633 22.4797 27.0633C22.4797 27.0633 22.6393 27.4496 22.6043 27.7239C22.5692 27.9982 22.3395 28.1605 22.3395 28.1605L22.0531 27.6168C22.0531 27.6168 21.9597 27.394 21.9872 27.2211C22.0148 27.0483 22.1632 26.9255 22.1632 26.9255L22.1632 26.9256Z" fill="black"/>
<path d="M21.182 25.8857C21.182 25.8857 21.1306 26.1819 21.218 26.3525C21.2961 26.5047 21.3458 26.5381 21.3458 26.5381C21.1969 26.4398 20.9718 26.4313 20.9718 26.4313C20.9718 26.4313 21.0519 26.7535 21.2434 26.9005C21.4349 27.0475 21.7301 27.0132 21.7301 27.0132C21.7301 27.0132 21.9242 26.7547 21.9107 26.4763C21.8972 26.1978 21.6761 25.8994 21.6761 25.8994C21.6761 25.8994 21.5888 26.0803 21.5811 26.2153C21.5247 26.0761 21.1819 25.8858 21.1819 25.8858L21.182 25.8857Z" fill="black"/>
<path d="M23.496 30.8465L23.504 30.9528C23.6806 30.9544 23.7069 30.9369 23.7521 30.9925C23.7823 31.0296 23.854 31.062 23.926 31.029C23.9982 30.9961 24.0305 30.9095 23.9975 30.8374C23.9646 30.7653 23.8976 30.7497 23.833 30.7624C23.7934 30.7702 23.7673 30.8019 23.7337 30.8192C23.6697 30.8524 23.496 30.8465 23.496 30.8465L23.496 30.8465Z" fill="black"/>
<path d="M23.4807 30.7654L23.5666 30.8283C23.4745 30.979 23.4457 30.992 23.4689 31.0599C23.4844 31.1051 23.4739 31.183 23.4078 31.2267C23.3416 31.2705 23.2511 31.252 23.2073 31.1859C23.1636 31.1198 23.1859 31.0547 23.2309 31.0067C23.2585 30.9772 23.2991 30.9718 23.3316 30.9525C23.3936 30.9157 23.4807 30.7653 23.4807 30.7653L23.4807 30.7654Z" fill="black"/>
<path d="M22.8826 29.5032L22.8906 29.6095C23.0672 29.6111 23.0934 29.5935 23.1387 29.6492C23.1688 29.6862 23.2405 29.7186 23.3126 29.6857C23.3847 29.6528 23.4171 29.5662 23.3841 29.4941C23.3512 29.422 23.2842 29.4063 23.2196 29.4191C23.1799 29.4269 23.1539 29.4585 23.1203 29.4759C23.0563 29.509 22.8826 29.5032 22.8826 29.5032L22.8826 29.5032Z" fill="black"/>
<path d="M22.9183 29.5407L22.9935 29.6164C22.879 29.7508 22.8485 29.7592 22.8609 29.8299C22.8692 29.877 22.8467 29.9523 22.7745 29.9852C22.7024 30.0181 22.6159 29.9859 22.5829 29.9137C22.55 29.8416 22.5821 29.7808 22.634 29.7403C22.6659 29.7155 22.7069 29.7165 22.742 29.7025C22.809 29.6758 22.9183 29.5408 22.9183 29.5408L22.9183 29.5407Z" fill="black"/>
<path d="M22.2882 28.2455L22.2962 28.3517C22.4728 28.3534 22.4991 28.3358 22.5443 28.3915C22.5745 28.4285 22.6462 28.4609 22.7183 28.428C22.7904 28.3951 22.8227 28.3085 22.7898 28.2363C22.7568 28.1642 22.6898 28.1486 22.6252 28.1613C22.5855 28.1692 22.5595 28.2008 22.5259 28.2182C22.4619 28.2513 22.2882 28.2454 22.2882 28.2454L22.2882 28.2455Z" fill="black"/>
<path d="M22.3372 28.2232L22.4123 28.2988C22.2978 28.4333 22.2673 28.4417 22.2797 28.5124C22.288 28.5594 22.2655 28.6348 22.1934 28.6677C22.1213 28.7006 22.0347 28.6683 22.0017 28.5962C21.9689 28.5241 22.0009 28.4632 22.0529 28.4228C22.0847 28.3979 22.1257 28.3989 22.1609 28.3849C22.2278 28.3582 22.3372 28.2232 22.3372 28.2232V28.2232Z" fill="black"/>
<path d="M21.655 26.9177L21.6629 27.024C21.8395 27.0257 21.8658 27.0081 21.911 27.0637C21.9412 27.1008 22.0129 27.1332 22.085 27.1003C22.1571 27.0673 22.1894 26.9808 22.1565 26.9086C22.1236 26.8365 22.0565 26.8208 21.9919 26.8336C21.9523 26.8415 21.9262 26.8731 21.8926 26.8904C21.8286 26.9235 21.6549 26.9177 21.6549 26.9177L21.655 26.9177Z" fill="black"/>
<path d="M21.704 26.8955L21.779 26.9711C21.6646 27.1056 21.6341 27.114 21.6465 27.1847C21.6548 27.2317 21.6323 27.3071 21.5602 27.34C21.488 27.3729 21.4015 27.3406 21.3686 27.2685C21.3357 27.1964 21.3677 27.1355 21.4196 27.0951C21.4516 27.0703 21.4925 27.0712 21.5277 27.0572C21.5946 27.0306 21.7039 26.8955 21.7039 26.8955L21.704 26.8955Z" fill="black"/>
<path d="M24.3945 32.2672L24.0925 32.1024L24.0193 32.4385L24.3213 32.6033L24.3945 32.2672Z" fill="#F5D402"/>
<path d="M22.7706 29.1882C22.7073 29.2144 22.6134 28.9389 22.5445 28.7879C22.4737 28.633 22.3301 28.3942 22.3709 28.3756C22.4157 28.3552 22.4746 28.4806 22.547 28.6391C22.6194 28.7976 22.8299 29.1635 22.7706 29.1881L22.7706 29.1882Z" fill="#F5D402"/>
<path d="M22.1205 27.737C22.0573 27.7633 21.988 27.5829 21.9191 27.4319C21.8484 27.277 21.7795 27.1676 21.8203 27.149C21.8651 27.1285 21.9312 27.2643 21.9891 27.391C22.0451 27.5139 22.1798 27.7123 22.1205 27.737L22.1205 27.737Z" fill="#F5D402"/>
<path d="M23.6243 31.0274C23.5747 31.0407 23.3578 30.5868 23.1825 30.2027C23.0072 29.8187 22.8766 29.5079 22.9174 29.4894C22.9622 29.4689 23.1041 29.8317 23.2795 30.2158C23.4549 30.5999 23.6616 31.0174 23.6244 31.0274L23.6243 31.0274Z" fill="#F5D402"/>
<path d="M21.2692 26.0658C21.2692 26.0658 21.2615 26.2822 21.3331 26.4049C21.4047 26.5277 21.5646 26.5766 21.5646 26.5766C21.5646 26.5766 21.5722 26.3603 21.5007 26.2376C21.429 26.1148 21.2692 26.0658 21.2692 26.0658V26.0658Z" fill="#097754"/>
<path d="M21.1195 26.5553C21.1195 26.5553 21.3075 26.5664 21.4161 26.6495C21.5246 26.7327 21.5666 26.906 21.5666 26.906C21.5666 26.906 21.442 26.9187 21.3335 26.8355C21.225 26.7523 21.1195 26.5553 21.1195 26.5553V26.5553Z" fill="#097754"/>
<path d="M21.7094 26.1183C21.7094 26.1183 21.6469 26.2617 21.6541 26.4162C21.6613 26.5708 21.7515 26.7449 21.7515 26.7449C21.7515 26.7449 21.833 26.5594 21.8259 26.4048C21.8187 26.2502 21.7313 26.1621 21.7094 26.1183Z" fill="#097754"/>
<path d="M21.3929 27.5116C21.3929 27.5116 21.4852 27.6404 21.6273 27.7107C21.7694 27.7809 21.9811 27.7836 21.9811 27.7836C21.9811 27.7836 21.8755 27.6465 21.7333 27.5762C21.5913 27.506 21.3929 27.5115 21.3929 27.5115L21.3929 27.5116Z" fill="#097754"/>
<path d="M21.4386 27.8109C21.4386 27.8109 21.5065 27.9438 21.6305 28.0007C21.7546 28.0577 22.0084 28.053 22.0084 28.053C22.0084 28.053 21.911 27.9289 21.7869 27.8719C21.6629 27.8149 21.4386 27.8109 21.4386 27.8109L21.4386 27.8109Z" fill="#097754"/>
<path d="M22.153 27.1023C22.153 27.1023 22.078 27.2262 22.0853 27.3627C22.0927 27.4993 22.1823 27.6485 22.1823 27.6485C22.1823 27.6485 22.2453 27.4774 22.238 27.3409C22.2306 27.2043 22.153 27.1023 22.153 27.1023L22.153 27.1023Z" fill="#097754"/>
<path d="M22.4292 27.2775C22.4292 27.2775 22.3009 27.4497 22.2825 27.6267C22.2641 27.8037 22.3554 27.9856 22.3554 27.9856C22.3554 27.9856 22.5104 27.83 22.5289 27.653C22.5473 27.4759 22.4292 27.2775 22.4292 27.2775L22.4292 27.2775Z" fill="#097754"/>
<path d="M22.0754 28.9123C22.0754 28.9123 22.0909 28.976 22.1445 29.0436C22.1981 29.1112 22.2898 29.1828 22.2898 29.1828C22.2898 29.1828 22.3784 29.1543 22.4886 29.1781C22.5987 29.202 22.7452 29.3001 22.7452 29.3001C22.7452 29.3001 22.5876 29.0648 22.4238 28.9733C22.2601 28.8818 22.0755 28.9123 22.0755 28.9123L22.0754 28.9123Z" fill="#097754"/>
<path d="M22.0592 29.3168C22.0592 29.3168 22.2634 29.2296 22.4315 29.2521C22.5996 29.2746 22.7512 29.4075 22.7512 29.4075C22.7512 29.4075 22.524 29.4862 22.3559 29.4637C22.1877 29.4412 22.0592 29.3168 22.0592 29.3168L22.0592 29.3168Z" fill="#097754"/>
<path d="M22.922 28.3678C22.922 28.3678 22.7415 28.559 22.7263 28.725C22.7112 28.891 22.8727 29.0456 22.8727 29.0456C22.8727 29.0456 22.8648 28.9392 22.8926 28.8691C22.9204 28.799 22.9795 28.7242 22.9795 28.7242C22.9795 28.7242 23.0047 28.6388 22.995 28.5702C22.9814 28.4745 22.922 28.3678 22.922 28.3678V28.3678Z" fill="#097754"/>
<path d="M23.1811 28.5893C23.1811 28.5893 23.0109 28.7614 22.966 28.9458C22.921 29.1302 23.0011 29.3268 23.0011 29.3268C23.0011 29.3268 23.1559 29.2047 23.2009 29.0203C23.2459 28.836 23.1811 28.5893 23.1811 28.5893L23.1811 28.5893Z" fill="#097754"/>
<path d="M23.6073 29.7006C23.6073 29.7006 23.6843 29.8615 23.7039 29.9961C23.7235 30.1307 23.7053 30.1772 23.7053 30.1772C23.7053 30.1772 23.6256 30.2556 23.5899 30.3017C23.544 30.3609 23.5372 30.4692 23.5372 30.4692C23.5372 30.4692 23.3772 30.2313 23.4019 30.0574C23.4265 29.8835 23.6073 29.7006 23.6073 29.7006L23.6073 29.7006Z" fill="#097754"/>
<path d="M23.9445 30.073C23.9445 30.073 23.7396 30.2083 23.6583 30.3471C23.5769 30.4859 23.6191 30.6281 23.6191 30.6281C23.6191 30.6281 23.7651 30.6152 23.8465 30.4765C23.9278 30.3377 23.9444 30.0729 23.9444 30.0729L23.9445 30.073Z" fill="#097754"/>
<path d="M22.5981 30.6446C22.5981 30.6446 22.8933 30.6365 23.0738 30.6809C23.2543 30.7252 23.32 30.822 23.32 30.822C23.32 30.822 23.1171 30.917 22.9366 30.8727C22.7561 30.8283 22.598 30.6445 22.598 30.6445L22.5981 30.6446Z" fill="#097754"/>
<path d="M22.5482 30.2941C22.5482 30.2941 22.6814 30.5007 22.8537 30.5756C23.091 30.6789 23.3659 30.6288 23.3659 30.6288C23.3659 30.6288 23.2166 30.4458 23.0111 30.3651C22.8056 30.2843 22.5482 30.2942 22.5482 30.2942L22.5482 30.2941Z" fill="#097754"/>
<path d="M32.6584 26.2387L32.6969 26.3202C32.6969 26.3202 32.6344 26.3416 32.6061 26.3971C32.5778 26.4526 32.6245 26.531 32.6245 26.531C32.6245 26.531 32.2999 26.5026 32.2492 26.5356C32.2032 26.5653 32.2686 26.7903 32.2384 26.9802C32.1962 27.245 32.0919 27.2227 32.0876 27.274C32.0835 27.3239 32.1276 27.4017 32.1276 27.4017C32.1276 27.4017 32.0667 27.4209 32.0537 27.4464C32.0328 27.4873 32.0683 27.5628 32.043 27.6125C31.9017 27.8897 31.6932 28.2988 31.5553 28.5695C31.536 28.6072 31.4843 28.6217 31.4583 28.6725C31.4344 28.7195 31.4537 28.7879 31.4537 28.7879C31.4537 28.7879 31.3623 28.7934 31.3306 28.8556C31.2969 28.9217 31.3168 29.011 31.3168 29.011C31.3168 29.011 31.259 29.0184 31.2306 29.0741C31.2003 29.1336 31.2516 29.1648 31.2384 29.191C31.053 29.5547 30.8347 29.9834 30.7014 30.2449C30.6524 30.341 30.4809 30.3603 30.3814 30.5557C30.2848 30.7452 30.4229 30.8849 30.4229 30.8849C30.4229 30.8849 30.2795 30.8979 30.2414 30.9726C30.2026 31.0488 30.2333 31.1645 30.3368 31.2172C30.4403 31.2699 30.5534 31.2272 30.5922 31.1511C30.6303 31.0763 30.5537 30.9526 30.5537 30.9526C30.5537 30.9526 30.7479 30.9806 30.8445 30.791C30.944 30.5957 30.8601 30.4472 30.9091 30.351C31.0423 30.0896 31.2607 29.6609 31.446 29.2971C31.4594 29.271 31.5142 29.2936 31.5445 29.2341C31.5729 29.1784 31.5445 29.1279 31.5445 29.1279C31.5445 29.1279 31.6293 29.091 31.663 29.0248C31.6947 28.9626 31.6461 28.8849 31.6461 28.8849C31.6461 28.8849 31.7129 28.8611 31.7368 28.8141C31.7627 28.7632 31.7437 28.7134 31.7629 28.6756C31.9009 28.4049 32.1095 27.9958 32.2507 27.7187C32.276 27.669 32.3575 27.6519 32.3784 27.611C32.3913 27.5855 32.3707 27.5248 32.3707 27.5248C32.3707 27.5248 32.4605 27.5159 32.4984 27.4833C32.5374 27.4497 32.4582 27.3776 32.6476 27.1879C32.7835 27.0518 33.0028 26.9717 32.9999 26.9171C32.9968 26.8567 32.783 26.611 32.783 26.611C32.783 26.611 32.8732 26.6034 32.9015 26.5479C32.9297 26.4924 32.9107 26.4279 32.9107 26.4279L32.9999 26.4125L32.9999 25.9894L32.6584 26.2387ZM29.7092 32.1312C29.6957 32.1575 29.6932 32.1936 29.7092 32.225C29.7092 32.225 29.6015 32.1913 29.5645 32.2096C29.5297 32.2268 29.5645 32.7343 29.5645 32.7343C29.5645 32.7343 29.9941 32.4632 29.9876 32.425C29.9807 32.3844 29.8907 32.3158 29.8907 32.3158C29.9255 32.3102 29.9526 32.2884 29.9661 32.2619C29.9802 32.2341 29.9821 32.1547 29.8845 32.105C29.848 32.0863 29.8154 32.0808 29.7891 32.0835C29.7454 32.0879 29.718 32.1138 29.7092 32.1312Z" fill="black"/>
<path d="M32.7366 26.2557L32.9396 26.3588L32.9366 26.1142L32.7366 26.2557Z" fill="#F5D402"/>
<path d="M32.6581 26.4034C32.632 26.4546 32.6573 26.5202 32.715 26.5495C32.7727 26.5789 32.8397 26.5608 32.8658 26.5096C32.8919 26.4584 32.8665 26.3928 32.8089 26.3634C32.7872 26.3524 32.7645 26.3481 32.7427 26.3496C32.7064 26.352 32.6744 26.3714 32.6581 26.4034V26.4034Z" fill="#F5D402"/>
<path d="M32.3089 26.5896C32.2876 26.6034 32.3166 26.7863 32.3105 26.9419C32.3047 27.0886 32.2577 27.1299 32.232 27.1803C32.2083 27.2269 32.1228 27.2819 32.1228 27.2819L32.1935 27.3526C32.1935 27.3526 32.2396 27.2809 32.312 27.1387C32.3975 26.9711 32.3947 26.6673 32.4198 26.6511C32.4415 26.637 32.6198 26.5926 32.6198 26.5926C32.6197 26.5926 32.4562 26.5837 32.3659 26.5849C32.3358 26.5853 32.3139 26.5864 32.3089 26.5896Z" fill="#F5D402"/>
<path d="M32.3275 27.4342C32.3275 27.4342 32.3512 27.3684 32.4337 27.2065C32.5332 27.0112 32.7456 26.8695 32.7506 26.8342C32.7557 26.7977 32.6767 26.6265 32.6767 26.6265C32.6767 26.6265 32.4893 26.6624 32.4628 26.688C32.4372 26.7128 32.4485 26.9665 32.349 27.1619C32.2665 27.3238 32.226 27.3834 32.226 27.3834L32.3275 27.4342Z" fill="#F5D402"/>
<path d="M32.8059 26.848C32.8075 26.8777 32.5606 27.0542 32.4751 27.2218C32.4027 27.364 32.3721 27.4434 32.3721 27.4434L32.4706 27.4588C32.4706 27.4588 32.4638 27.3576 32.4875 27.3111C32.5131 27.2607 32.5199 27.199 32.6352 27.108C32.7574 27.0116 32.9227 26.9273 32.9213 26.9018C32.9201 26.8783 32.7367 26.6511 32.7367 26.6511C32.7367 26.6511 32.8045 26.8221 32.8059 26.848Z" fill="#F5D402"/>
<path d="M32.0829 27.9449C32.2312 27.6538 32.2765 27.634 32.2952 27.5973C32.3153 27.5578 32.3105 27.5048 32.2444 27.4711C32.2197 27.4585 32.1984 27.4553 32.1798 27.4573C32.1488 27.4606 32.1262 27.4803 32.1137 27.5049C32.095 27.5417 32.1051 27.5907 31.9567 27.8819L31.6198 28.5419C31.6198 28.5419 31.5845 28.6067 31.6505 28.6404C31.7166 28.674 31.7459 28.6065 31.7459 28.6065L32.0829 27.9449Z" fill="#F5D402"/>
<path d="M31.4875 28.7019C31.4692 28.738 31.5006 28.791 31.5583 28.8204C31.616 28.8497 31.6784 28.8442 31.6968 28.8081C31.7151 28.772 31.6822 28.719 31.6245 28.6896C31.5956 28.6749 31.5663 28.6689 31.5414 28.6712C31.5164 28.6733 31.4967 28.6839 31.4875 28.7019Z" fill="#F5D402"/>
<path d="M31.3628 28.8896C31.339 28.9363 31.3761 29.0033 31.4459 29.0389C31.5157 29.0744 31.5913 29.0655 31.6151 29.0188C31.6389 28.9721 31.6018 28.9052 31.532 28.8696C31.5058 28.8563 31.4799 28.8492 31.4551 28.848C31.4138 28.8461 31.3777 28.8604 31.3628 28.8896V28.8896Z" fill="#F5D402"/>
<path d="M31.2844 29.0989C31.266 29.1349 31.2975 29.1879 31.3552 29.2173C31.4128 29.2467 31.4752 29.2411 31.4937 29.205C31.512 29.169 31.4805 29.1159 31.4229 29.0866C31.394 29.0718 31.3632 29.0659 31.3383 29.0681C31.3134 29.0703 31.2936 29.0808 31.2844 29.0989V29.0989Z" fill="#F5D402"/>
<path d="M31.2336 29.2989C31.2336 29.2989 30.8595 30.0352 30.7275 30.2942C30.6853 30.377 30.5078 30.4286 30.4382 30.565C30.3682 30.7023 30.4176 30.8308 30.509 30.8773C30.6003 30.9239 30.7344 30.8901 30.8044 30.7527C30.8739 30.6163 30.8115 30.4416 30.8536 30.3589C30.9856 30.0997 31.3598 29.3635 31.3598 29.3635C31.3598 29.3635 31.3966 29.2987 31.3305 29.265C31.314 29.2566 31.2996 29.2558 31.2875 29.2573C31.251 29.262 31.2336 29.2989 31.2336 29.2989V29.2989Z" fill="#F5D402"/>
<path d="M30.2872 31.0081C30.2592 31.0631 30.2913 31.1364 30.3595 31.1711C30.4278 31.2059 30.5069 31.1892 30.5349 31.1342C30.563 31.0792 30.5293 31.0059 30.4611 30.9711C30.4355 30.9581 30.4094 30.952 30.3842 30.9527C30.3421 30.9539 30.3047 30.9737 30.2872 31.0081Z" fill="#F5D402"/>
<path d="M29.7889 32.1327C29.7675 32.1335 29.7499 32.1402 29.7427 32.1543C29.7284 32.1824 29.758 32.2268 29.8089 32.2527C29.8598 32.2786 29.913 32.2762 29.9274 32.2481C29.9417 32.2199 29.912 32.1756 29.8612 32.1497C29.8358 32.1367 29.8103 32.132 29.7889 32.1327L29.7889 32.1327Z" fill="#F5D402"/>
<path d="M29.6135 32.2711L29.6135 32.6342L29.9089 32.4219C29.9089 32.4219 29.8689 32.3512 29.7812 32.3065C29.6936 32.2619 29.6135 32.2711 29.6135 32.2711L29.6135 32.2711Z" fill="#F5D402"/>
<path d="M29.8006 24.1847C29.8006 23.9855 30.0621 23.7893 30.0621 23.7893L23.6836 23.7893C23.6836 23.7893 23.9451 23.9855 23.9451 24.1847L23.9451 28.9326C23.9451 29.0576 23.9838 29.1391 24.0452 29.2187C24.1065 29.3044 24.2372 29.4229 24.3728 29.511C24.7918 29.7831 25.4922 30.07 26.0221 30.311C26.4637 30.5119 26.6433 30.593 26.8729 30.8772C27.1024 30.593 27.2836 30.5119 27.7252 30.311C28.255 30.07 28.9555 29.7831 29.3744 29.511C29.5101 29.4229 29.6408 29.3045 29.7021 29.2187C29.7635 29.1391 29.8006 29.0576 29.8006 28.9326L29.8006 24.1847Z" fill="#F5D402"/>
<path d="M24.0959 26.8709L24.0959 24.1847C24.0959 24.0326 24.0189 23.9401 24.0189 23.9401L29.7267 23.9401C29.7267 23.9401 29.6498 24.0327 29.6498 24.1847L29.6514 26.8709L26.8737 27.7124L24.0959 26.8709Z" fill="#D10429"/>
<path d="M29.6515 26.8709L27.9315 26.8386L25.816 26.8386L24.0959 26.8709L24.0959 28.9325C24.0959 29.0362 24.2035 29.2789 24.8237 29.5879C25.8488 30.0987 26.6367 30.3372 26.8729 30.6279C27.1091 30.3372 27.897 30.0987 28.9222 29.5879C29.5423 29.2789 29.6499 29.0362 29.6499 28.9325L29.6515 26.8709Z" fill="#0B45BB"/>
<path d="M27.8899 26.7633C27.8899 26.7633 28.8822 26.5131 28.8822 25.4525C28.8822 24.6242 27.8873 24.2132 27.8591 24.0156C27.7618 24.3576 28.1914 24.83 28.1914 25.3894C28.1914 26.1133 27.6575 26.1479 27.6575 26.1479C27.5326 26.1479 27.482 26.2371 27.4329 26.2371C27.3278 26.2262 27.2783 26.0925 27.1744 26.0925C27.0768 26.0925 27.0019 26.2433 26.8729 26.2433C26.7439 26.2433 26.6705 26.0925 26.5729 26.0925C26.469 26.0925 26.4195 26.2262 26.3144 26.2371C26.2653 26.2371 26.2147 26.1479 26.0898 26.1479C26.0898 26.1479 25.5559 26.1133 25.5559 25.3894C25.5559 24.83 25.9855 24.3575 25.8883 24.0156C25.8601 24.2132 24.8652 24.6241 24.8652 25.4525C24.8652 26.5131 25.8575 26.7633 25.8575 26.7633L25.5744 27.2787C25.5744 27.2787 25.9845 27.2992 26.2022 27.4849C26.4646 27.7087 26.4391 28.183 26.4391 28.528C26.4391 28.7998 26.4047 29.0866 26.2652 29.2049C26.0779 29.3637 25.9513 29.3754 25.9513 29.5618C25.9513 29.7173 26.0709 29.7485 26.2652 29.8511C26.5143 29.9825 26.5027 30.1588 26.8729 30.1588C27.2432 30.1588 27.2331 29.9825 27.4821 29.8511C27.6765 29.7485 27.796 29.7173 27.796 29.5618C27.796 29.3754 27.6694 29.3637 27.4821 29.2049C27.3427 29.0866 27.3083 28.7998 27.3083 28.528C27.3083 28.183 27.2828 27.7087 27.5452 27.4849C27.7629 27.2992 28.1729 27.2787 28.1729 27.2787L27.8899 26.7633Z" fill="black"/>
<path d="M26.8728 24.0892L26.7005 24.5785L26.2312 24.3554L26.4543 24.8246L25.9651 24.9985L26.4543 25.1723L26.2312 25.64L26.7005 25.417L26.8728 25.9062L27.0467 25.417L27.5159 25.64L27.2929 25.1723L27.7821 24.9985L27.2929 24.8246L27.5159 24.3554L27.0467 24.5785L26.8728 24.0892Z" fill="black"/>
<path d="M25.8159 26.8387C25.8159 26.8387 25.2032 26.6889 24.9743 26.3864C24.5742 26.7463 24.0958 26.871 24.0958 26.871C24.0958 26.871 24.5949 27.0964 24.9743 27.3834C25.1491 27.1328 25.8159 26.8387 25.8159 26.8387Z" fill="black"/>
<path d="M27.9313 26.8387C27.9313 26.8387 28.598 27.1328 28.7729 27.3834C29.1522 27.0964 29.6513 26.871 29.6513 26.871C29.6513 26.871 29.1729 26.7463 28.7729 26.3864C28.544 26.6889 27.9313 26.8387 27.9313 26.8387Z" fill="black"/>
<path d="M26.0668 27.4909L25.8284 27.7293L26.0668 27.9678L26.3053 27.7293L26.0668 27.4909Z" fill="black"/>
<path d="M27.6806 27.4909L27.4421 27.7293L27.6806 27.9678L27.919 27.7293L27.6806 27.4909Z" fill="black"/>
<path d="M26.0068 28.8832C26.0068 29.1845 25.9775 29.3432 25.9775 29.3432C25.9775 29.3432 26.3137 29.2442 26.3807 28.9032C26.412 28.7433 26.447 28.1544 26.2853 28.0539L25.8468 27.9678C25.8941 28.085 26.0068 28.4479 26.0068 28.8832V28.8832Z" fill="black"/>
<path d="M27.4621 28.054C27.3004 28.1544 27.3353 28.7433 27.3667 28.9032C27.4336 29.2443 27.7698 29.3432 27.7698 29.3432C27.7698 29.3432 27.7406 29.1845 27.7406 28.8832C27.7406 28.448 27.8532 28.085 27.9006 27.9678L27.4621 28.054Z" fill="black"/>
<path d="M24.973 28.071C24.8218 28.1089 24.7304 28.2629 24.7684 28.4141C24.7742 28.4372 24.7837 28.4586 24.7945 28.4787C24.7725 28.4714 24.7495 28.4665 24.7253 28.4649C24.7156 28.4642 24.7056 28.4645 24.6961 28.4649C24.553 28.4697 24.4337 28.5822 24.4238 28.728C24.4131 28.8835 24.5313 29.0173 24.6869 29.028C24.7101 29.0295 24.7326 29.0287 24.7545 29.0249C24.7411 29.0432 24.7296 29.0628 24.7207 29.0849C24.6625 29.2295 24.733 29.3959 24.8776 29.4542C25.0223 29.5123 25.1871 29.4403 25.2453 29.2957C25.2542 29.2736 25.2592 29.2521 25.2623 29.2295C25.2756 29.248 25.2916 29.2649 25.3099 29.2803C25.4295 29.3803 25.6084 29.3644 25.7084 29.2449C25.8084 29.1254 25.7926 28.948 25.673 28.848C25.6549 28.8328 25.6348 28.8209 25.6145 28.8111C25.6363 28.8041 25.6574 28.7945 25.6776 28.7819C25.8097 28.6991 25.8496 28.5231 25.7668 28.391C25.7099 28.3003 25.6099 28.2536 25.5099 28.2603C25.4644 28.2633 25.4189 28.2775 25.3776 28.3034C25.3574 28.316 25.3395 28.3301 25.3237 28.3464C25.3238 28.3237 25.3218 28.3003 25.3161 28.2772C25.2829 28.1449 25.1613 28.0577 25.0299 28.0634C25.0111 28.0642 24.9919 28.0663 24.973 28.071V28.071Z" fill="black"/>
<path d="M27.9728 28.8925C28.0034 29.1806 28.2375 29.422 28.5267 29.491C28.4773 29.4102 28.4445 29.3202 28.4343 29.2248C28.3981 28.8831 28.6624 28.6063 29.0236 28.6063C29.0805 28.6063 29.1356 28.6133 29.1897 28.6264C29.0624 28.4176 28.8226 28.2725 28.562 28.2725C28.2008 28.2725 27.9365 28.5509 27.9728 28.8925V28.8925Z" fill="black"/>
<path d="M25.4113 25.3894C25.4113 25.9342 25.7018 26.2555 26.0898 26.2555C26.1638 26.2555 26.2447 26.3556 26.3144 26.3556C26.4281 26.3556 26.5037 26.2294 26.5729 26.2294C26.6609 26.2294 26.7201 26.3679 26.8729 26.3679C27.0256 26.3679 27.0865 26.2294 27.1744 26.2294C27.2436 26.2294 27.3192 26.3556 27.4329 26.3556C27.5026 26.3556 27.5835 26.2555 27.6575 26.2555C28.0455 26.2555 28.336 25.9342 28.336 25.3894C28.336 24.9451 27.9629 24.4034 28.0037 24.3155C28.0037 24.3155 28.7314 24.8375 28.7314 25.4525C28.7314 26.4431 27.7268 26.6879 27.7268 26.6879L27.9529 27.1971C27.9529 27.1971 27.6415 27.2438 27.4514 27.3971C27.1977 27.6016 27.1944 28.1542 27.1944 28.5279C27.1944 28.9681 27.2108 29.1546 27.3698 29.2741C27.5375 29.4001 27.6636 29.4272 27.6636 29.5556C27.6636 29.6675 27.5331 29.7133 27.3636 29.7879C27.1709 29.8729 27.1517 30.0203 26.8729 30.0203C26.594 30.0203 26.5763 29.8729 26.3836 29.7879C26.2142 29.7133 26.0836 29.6675 26.0836 29.5556C26.0836 29.4272 26.2097 29.4001 26.3774 29.2741C26.5365 29.1546 26.5528 28.9681 26.5528 28.5279C26.5528 28.1542 26.5495 27.6016 26.2959 27.3971C26.1057 27.2437 25.7943 27.1971 25.7943 27.1971L26.0205 26.6879C26.0205 26.6879 25.0159 26.4431 25.0159 25.4525C25.0159 24.8375 25.7436 24.3155 25.7436 24.3155C25.7844 24.4034 25.4113 24.9451 25.4113 25.3894V25.3894ZM26.4928 29.4803C26.2955 29.4803 26.1698 29.522 26.1698 29.5819C26.1698 29.6418 26.2955 29.6819 26.4928 29.6819C26.5454 29.6819 26.6051 29.6513 26.6051 29.5819C26.6051 29.5125 26.5454 29.4803 26.4928 29.4803ZM27.2544 29.4803C27.2018 29.4803 27.1421 29.5125 27.1421 29.5819C27.142 29.6513 27.2018 29.6819 27.2544 29.6819C27.4517 29.6819 27.5774 29.6418 27.5774 29.5819C27.5774 29.522 27.4517 29.4803 27.2544 29.4803Z" fill="#FFD200"/>
<path d="M26.8745 24.4186L26.9853 24.731L27.2838 24.5879L27.1422 24.8879L27.453 24.9987L27.1422 25.1094L27.2838 25.4079L26.9853 25.2663L26.873 25.5771L26.7622 25.2663L26.4638 25.4079L26.6053 25.1094L26.2946 24.9987L26.6053 24.8879L26.4638 24.5879L26.7622 24.731L26.8745 24.4186V24.4186Z" fill="#FFD200"/>
<path d="M25.4881 26.8573C25.488 26.8573 24.9742 27.2388 24.9742 27.2388L24.968 27.2465L24.9573 27.2373L24.3881 26.8803C24.3881 26.8803 24.7513 26.7551 24.965 26.5373C25.1672 26.7688 25.4881 26.8573 25.4881 26.8573Z" fill="#FFD200"/>
<path d="M29.3589 26.8803C29.3589 26.8803 28.98 27.0691 28.7896 27.2373L28.7789 27.2465L28.7727 27.2388C28.5929 27.0323 28.2589 26.8573 28.2589 26.8573C28.2589 26.8573 28.5798 26.7688 28.782 26.5373C28.9957 26.7551 29.3589 26.8803 29.3589 26.8803V26.8803Z" fill="#FFD200"/>
<path d="M26.0667 27.6048L26.1913 27.7293L26.0667 27.8555L25.9406 27.7293L26.0667 27.6048Z" fill="#FFD200"/>
<path d="M27.6805 27.6048L27.8067 27.7293L27.6805 27.8555L27.5559 27.7293L27.6805 27.6048Z" fill="#FFD200"/>
<path d="M26.236 28.1493C26.3231 28.2694 26.3083 28.4637 26.3083 28.734C26.3083 29.0064 26.1037 29.1108 26.1037 29.1108C26.1037 28.4559 26.0362 28.2984 26.0006 28.1L26.236 28.1493Z" fill="#FFD200"/>
<path d="M27.7466 28.1C27.711 28.2984 27.6436 28.4559 27.6436 29.1108C27.6436 29.1108 27.4389 29.0064 27.4389 28.7339C27.4389 28.4637 27.4242 28.2695 27.5112 28.1493L27.7466 28.1Z" fill="#FFD200"/>
<path d="M25.2682 28.3479C25.2743 28.3724 25.275 28.3965 25.2728 28.4202C25.271 28.4399 25.2658 28.4577 25.259 28.4756C25.2249 28.4631 25.1881 28.4571 25.1498 28.4571C25.0548 28.4571 24.9698 28.4989 24.9113 28.5648C24.8959 28.5513 24.8826 28.5362 24.8713 28.5187C24.8587 28.4992 24.848 28.4778 24.8421 28.4541C24.8126 28.3365 24.8845 28.2174 25.0021 28.1879C25.0167 28.1842 25.0321 28.1823 25.0467 28.1817C25.1486 28.1774 25.2424 28.245 25.2682 28.3479Z" fill="#FFD200"/>
<path d="M25.1498 28.9912C25.2671 28.9912 25.3621 28.8961 25.3621 28.7788C25.3621 28.6616 25.2671 28.5665 25.1498 28.5665C25.0326 28.5665 24.9375 28.6616 24.9375 28.7788C24.9375 28.8961 25.0326 28.9912 25.1498 28.9912Z" fill="#FFD200"/>
<path d="M28.8773 28.4926C28.5248 28.5607 28.2712 28.8721 28.3081 29.2357C28.1957 29.1426 28.1135 29.0173 28.0988 28.8787C28.0703 28.6089 28.2663 28.4003 28.5619 28.4003C28.675 28.4003 28.7836 28.4349 28.8773 28.4926V28.4926Z" fill="#FFD200"/>
<rect x="19" y="51" width="16" height="49" transform="rotate(-180 19 51)" fill="#3F6FEB"/>
</g>
</svg>
