<svg width="54" height="48" viewBox="0 0 54 48" fill="none" xmlns="http://www.w3.org/2000/svg">
<mask id="mask0_1_29445" style="mask-type:alpha" maskUnits="userSpaceOnUse" x="3" y="6" width="48" height="36">
<path d="M3.56934 15.1356C4.16681 10.4125 8.0415 7.00193 12.7861 6.60887C16.6412 6.28949 21.6196 6 27 6C32.3804 6 37.3588 6.28949 41.2139 6.60887C45.9585 7.00193 49.8332 10.4125 50.4307 15.1356C50.752 17.6759 51 20.704 51 24C51 27.296 50.752 30.3241 50.4307 32.8644C49.8332 37.5875 45.9585 40.9981 41.2139 41.3911C37.3588 41.7105 32.3804 42 27 42C21.6196 42 16.6412 41.7105 12.7861 41.3911C8.0415 40.9981 4.16681 37.5875 3.56934 32.8644C3.248 30.3241 3 27.296 3 24C3 20.704 3.248 17.6759 3.56934 15.1356Z" fill="#00D0BF"/>
</mask>
<g mask="url(#mask0_1_29445)">
<rect x="51" y="42" width="48" height="36" transform="rotate(-180 51 42)" fill="#EE5757"/>
<rect x="43" y="34" width="32" height="20" transform="rotate(-180 43 34)" fill="#59C785"/>
<path fill-rule="evenodd" clip-rule="evenodd" d="M30.5 17.795C27.5779 18.3493 25.3684 20.9166 25.3684 24C25.3684 27.0834 27.5779 29.6507 30.5 30.2049C30.1164 30.2777 29.7205 30.3158 29.3158 30.3158C25.8277 30.3158 23 27.4881 23 24C23 20.5119 25.8277 17.6842 29.3158 17.6842C29.7205 17.6842 30.1164 17.7223 30.5 17.795Z" fill="#F5F5F5"/>
</g>
</svg>
