<svg width="54" height="54" viewBox="0 0 54 54" fill="none" xmlns="http://www.w3.org/2000/svg">
<mask id="mask0_1_29445" style="mask-type:alpha" maskUnits="userSpaceOnUse" x="3" y="9" width="48" height="36">
<path d="M3.56934 18.1356C4.16681 13.4125 8.0415 10.0019 12.7861 9.60887C16.6412 9.28949 21.6196 9 27 9C32.3804 9 37.3588 9.28949 41.2139 9.60887C45.9585 10.0019 49.8332 13.4125 50.4307 18.1356C50.752 20.6759 51 23.704 51 27C51 30.296 50.752 33.3241 50.4307 35.8644C49.8332 40.5875 45.9585 43.9981 41.2139 44.3911C37.3588 44.7105 32.3804 45 27 45C21.6196 45 16.6412 44.7105 12.7861 44.3911C8.04151 43.9981 4.16681 40.5875 3.56934 35.8644C3.248 33.3241 3 30.296 3 27C3 23.704 3.248 20.6759 3.56934 18.1356Z" fill="#00D0BF"/>
</mask>
<g mask="url(#mask0_1_29445)">
<rect x="51" y="45" width="48" height="36" transform="rotate(-180 51 45)" fill="#EE5757"/>
<rect x="43" y="37" width="32" height="20" transform="rotate(-180 43 37)" fill="#59C785"/>
<path fill-rule="evenodd" clip-rule="evenodd" d="M30.5 20.795C27.5779 21.3493 25.3684 23.9166 25.3684 27C25.3684 30.0834 27.5779 32.6506 30.5 33.2049C30.1164 33.2777 29.7205 33.3158 29.3158 33.3158C25.8277 33.3158 23 30.4881 23 27C23 23.5119 25.8277 20.6842 29.3158 20.6842C29.7205 20.6842 30.1164 20.7223 30.5 20.795Z" fill="#F5F5F5"/>
</g>
</svg>
