<svg width="54" height="48" viewBox="0 0 54 48" fill="none" xmlns="http://www.w3.org/2000/svg">
<mask id="mask0_1_39912" style="mask-type:alpha" maskUnits="userSpaceOnUse" x="3" y="6" width="48" height="36">
<path d="M3.56934 15.1356C4.16681 10.4125 8.0415 7.00193 12.7861 6.60887C16.6412 6.28949 21.6196 6 27 6C32.3804 6 37.3588 6.28949 41.2139 6.60887C45.9585 7.00193 49.8332 10.4125 50.4307 15.1356C50.752 17.6759 51 20.704 51 24C51 27.296 50.752 30.3241 50.4307 32.8644C49.8332 37.5875 45.9585 40.9981 41.2139 41.3911C37.3588 41.7105 32.3804 42 27 42C21.6196 42 16.6412 41.7105 12.7861 41.3911C8.0415 40.9981 4.16681 37.5875 3.56934 32.8644C3.248 30.3241 3 27.296 3 24C3 20.704 3.248 17.6759 3.56934 15.1356Z" fill="#00D0BF"/>
</mask>
<g mask="url(#mask0_1_39912)">
<rect x="3" width="48" height="49" fill="#2E50A6"/>
<path d="M15 10L14.7097 16.1935L13.3548 12.8065L13.9355 16.3871L11.8065 13.4839L13.2581 16.7742L10.4516 14.4516L12.7742 17.2581L9.48387 15.8065L12.3871 17.9355L8.80645 17.3548L12.1935 18.7097L6 19L12.1935 19.3871L8.80645 20.7419L12.3871 20.1613L9.48387 22.2903L12.7742 20.7419L10.4516 23.5484L13.2581 21.3226L11.8065 24.6129L13.9355 21.7097L13.3548 25.2903L14.7097 21.8065L15 28L15.3871 21.8065L16.7419 25.2903L16.1613 21.7097L18.2903 24.6129L16.7419 21.3226L19.5484 23.5484L17.3226 20.7419L20.6129 22.2903L17.7097 20.1613L21.2903 20.7419L17.8065 19.3871L24 19L17.8065 18.7097L21.2903 17.3548L17.7097 17.9355L20.6129 15.8065L17.3226 17.2581L19.5484 14.4516L16.7419 16.7742L18.2903 13.4839L16.1613 16.3871L16.7419 12.8065L15.3871 16.1935L15 10Z" fill="white"/>
<path d="M3 41.3189L51 6V13.2973L3 42V41.3189Z" fill="#FFA654"/>
<path d="M3 41.4229L51 13V20.0697L3 42V41.4229Z" fill="#F5F5F5"/>
</g>
</svg>
