<svg width="54" height="54" viewBox="0 0 54 54" fill="none" xmlns="http://www.w3.org/2000/svg">
<mask id="mask0_1_39912" style="mask-type:alpha" maskUnits="userSpaceOnUse" x="3" y="9" width="48" height="36">
<path d="M3.56934 18.1356C4.16681 13.4125 8.0415 10.0019 12.7861 9.60887C16.6412 9.28949 21.6196 9 27 9C32.3804 9 37.3588 9.28949 41.2139 9.60887C45.9585 10.0019 49.8332 13.4125 50.4307 18.1356C50.752 20.6759 51 23.704 51 27C51 30.296 50.752 33.3241 50.4307 35.8644C49.8332 40.5875 45.9585 43.9981 41.2139 44.3911C37.3588 44.7105 32.3804 45 27 45C21.6196 45 16.6412 44.7105 12.7861 44.3911C8.04151 43.9981 4.16681 40.5875 3.56934 35.8644C3.248 33.3241 3 30.296 3 27C3 23.704 3.248 20.6759 3.56934 18.1356Z" fill="#00D0BF"/>
</mask>
<g mask="url(#mask0_1_39912)">
<rect x="3" y="3" width="48" height="49" fill="#2E50A6"/>
<path d="M15 13L14.7097 19.1935L13.3548 15.8065L13.9355 19.3871L11.8065 16.4839L13.2581 19.7742L10.4516 17.4516L12.7742 20.2581L9.48387 18.8065L12.3871 20.9355L8.80645 20.3548L12.1935 21.7097L6 22L12.1935 22.3871L8.80645 23.7419L12.3871 23.1613L9.48387 25.2903L12.7742 23.7419L10.4516 26.5484L13.2581 24.3226L11.8065 27.6129L13.9355 24.7097L13.3548 28.2903L14.7097 24.8065L15 31L15.3871 24.8065L16.7419 28.2903L16.1613 24.7097L18.2903 27.6129L16.7419 24.3226L19.5484 26.5484L17.3226 23.7419L20.6129 25.2903L17.7097 23.1613L21.2903 23.7419L17.8065 22.3871L24 22L17.8065 21.7097L21.2903 20.3548L17.7097 20.9355L20.6129 18.8065L17.3226 20.2581L19.5484 17.4516L16.7419 19.7742L18.2903 16.4839L16.1613 19.3871L16.7419 15.8065L15.3871 19.1935L15 13Z" fill="white"/>
<path d="M3 44.3189L51 9V16.2973L3 45V44.3189Z" fill="#FFA654"/>
<path d="M3 44.4229L51 16V23.0697L3 45V44.4229Z" fill="#F5F5F5"/>
</g>
</svg>
