<svg width="54" height="48" viewBox="0 0 54 48" fill="none" xmlns="http://www.w3.org/2000/svg">
<mask id="mask0_1_33504" style="mask-type:alpha" maskUnits="userSpaceOnUse" x="3" y="6" width="48" height="36">
<path d="M3.56934 15.1356C4.16681 10.4125 8.0415 7.00193 12.7861 6.60887C16.6412 6.28949 21.6196 6 27 6C32.3804 6 37.3588 6.28949 41.2139 6.60887C45.9585 7.00193 49.8332 10.4125 50.4307 15.1356C50.752 17.6759 51 20.704 51 24C51 27.296 50.752 30.3241 50.4307 32.8644C49.8332 37.5875 45.9585 40.9981 41.2139 41.3911C37.3588 41.7105 32.3804 42 27 42C21.6196 42 16.6412 41.7105 12.7861 41.3911C8.0415 40.9981 4.16681 37.5875 3.56934 32.8644C3.248 30.3241 3 27.296 3 24C3 20.704 3.248 17.6759 3.56934 15.1356Z" fill="#00D0BF"/>
</mask>
<g mask="url(#mask0_1_33504)">
<rect x="51" y="42" width="48" height="36" transform="rotate(-180 51 42)" fill="#EE5757"/>
<path d="M-18 28.5V19.5L72 28.5V19.5L-18 28.5ZM22.5 1.5H31.5L27 19.1786L22.5 1.5ZM31.5 46.5H22.5L27 28.8214L31.5 46.5ZM-18 1.5H-4.5L31.1336 26.4814L-18 1.5ZM-18 46.5H-4.5L31.1336 21.5186L-18 46.5ZM72 1.5H58.5L22.8664 26.4814L72 1.5ZM72 46.5H58.5L22.8664 21.5186L72 46.5Z" fill="#FCD95E"/>
<path d="M27 32.0357C31.438 32.0357 35.0357 28.438 35.0357 24C35.0357 19.562 31.438 15.9643 27 15.9643C22.562 15.9643 18.9643 19.562 18.9643 24C18.9643 28.438 22.562 32.0357 27 32.0357Z" fill="#EE5757"/>
<path d="M27 30.4286C30.5504 30.4286 33.4286 27.5504 33.4286 24C33.4286 20.4496 30.5504 17.5714 27 17.5714C23.4496 17.5714 20.5714 20.4496 20.5714 24C20.5714 27.5504 23.4496 30.4286 27 30.4286Z" fill="#FCD95E"/>
</g>
</svg>
