<svg width="54" height="54" viewBox="0 0 54 54" fill="none" xmlns="http://www.w3.org/2000/svg">
<mask id="mask0_1_33504" style="mask-type:alpha" maskUnits="userSpaceOnUse" x="3" y="9" width="48" height="36">
<path d="M3.56934 18.1356C4.16681 13.4125 8.0415 10.0019 12.7861 9.60887C16.6412 9.28949 21.6196 9 27 9C32.3804 9 37.3588 9.28949 41.2139 9.60887C45.9585 10.0019 49.8332 13.4125 50.4307 18.1356C50.752 20.6759 51 23.704 51 27C51 30.296 50.752 33.3241 50.4307 35.8644C49.8332 40.5875 45.9585 43.9981 41.2139 44.3911C37.3588 44.7105 32.3804 45 27 45C21.6196 45 16.6412 44.7105 12.7861 44.3911C8.04151 43.9981 4.16681 40.5875 3.56934 35.8644C3.248 33.3241 3 30.296 3 27C3 23.704 3.248 20.6759 3.56934 18.1356Z" fill="#00D0BF"/>
</mask>
<g mask="url(#mask0_1_33504)">
<rect x="51" y="45" width="48" height="36" transform="rotate(-180 51 45)" fill="#EE5757"/>
<path d="M-18 31.5V22.5L72 31.5V22.5L-18 31.5ZM22.5 4.5H31.5L27 22.1786L22.5 4.5ZM31.5 49.5H22.5L27 31.8214L31.5 49.5ZM-18 4.5H-4.5L31.1336 29.4814L-18 4.5ZM-18 49.5H-4.5L31.1336 24.5186L-18 49.5ZM72 4.5H58.5L22.8664 29.4814L72 4.5ZM72 49.5H58.5L22.8664 24.5186L72 49.5Z" fill="#FCD95E"/>
<path d="M27 35.0357C31.438 35.0357 35.0357 31.438 35.0357 27C35.0357 22.562 31.438 18.9643 27 18.9643C22.562 18.9643 18.9643 22.562 18.9643 27C18.9643 31.438 22.562 35.0357 27 35.0357Z" fill="#EE5757"/>
<path d="M27 33.4286C30.5504 33.4286 33.4286 30.5504 33.4286 27C33.4286 23.4496 30.5504 20.5714 27 20.5714C23.4496 20.5714 20.5714 23.4496 20.5714 27C20.5714 30.5504 23.4496 33.4286 27 33.4286Z" fill="#FCD95E"/>
</g>
</svg>
