<svg width="54" height="54" viewBox="0 0 54 54" fill="none" xmlns="http://www.w3.org/2000/svg">
<mask id="mask0_1_34404" style="mask-type:alpha" maskUnits="userSpaceOnUse" x="3" y="9" width="48" height="36">
<path d="M3.56934 18.1356C4.16681 13.4125 8.0415 10.0019 12.7861 9.60887C16.6412 9.28949 21.6196 9 27 9C32.3804 9 37.3588 9.28949 41.2139 9.60887C45.9585 10.0019 49.8332 13.4125 50.4307 18.1356C50.752 20.6759 51 23.704 51 27C51 30.296 50.752 33.3241 50.4307 35.8644C49.8332 40.5875 45.9585 43.9981 41.2139 44.3911C37.3588 44.7105 32.3804 45 27 45C21.6196 45 16.6412 44.7105 12.7861 44.3911C8.04151 43.9981 4.16681 40.5875 3.56934 35.8644C3.248 33.3241 3 30.296 3 27C3 23.704 3.248 20.6759 3.56934 18.1356Z" fill="#00D0BF"/>
</mask>
<g mask="url(#mask0_1_34404)">
<rect x="3" y="3" width="24" height="49" fill="#F5F5F5"/>
<path d="M7 16.6363V19.3637H9.72731C9.72731 19.8182 10.1819 20.2728 10.6364 20.2728V23.0001H13.3636V20.2728C13.8181 20.2728 14.2727 19.8182 14.2727 19.3637H17V16.6363H14.2727C14.2727 16.1819 13.8181 15.7273 13.3636 15.7273V13H10.6364V15.7273C10.1819 15.7273 9.72731 16.1818 9.72731 16.6363H7V16.6363Z" fill="#E60D2E"/>
<path d="M7.18188 16.818V19.1818H9.90902C9.90902 19.6363 10.3636 20.0908 10.8181 20.0908V22.8181H13.1817V20.0908C13.6362 20.0908 14.0908 19.6362 14.0908 19.1818H16.8179V16.818H14.0908C14.0908 16.3636 13.6362 15.9089 13.1817 15.9089V13.1817H10.8181V15.9089C10.3636 15.9089 9.90902 16.3635 9.90902 16.818H7.18188V16.818Z" fill="#96877D"/>
<path d="M7.27283 16.909V19.0909H9.99996C9.99996 19.5453 10.4545 20 10.9091 20V22.7273H13.0908V20C13.5454 20 13.9999 19.5453 13.9999 19.0909H16.7271V16.909H13.9999C13.9999 16.4546 13.5454 16 13.0908 16V13.2728H10.9091V16C10.4545 16 9.99996 16.4546 9.99996 16.909H7.27283V16.909Z" fill="#CCCCCC"/>
<path d="M10.7389 15.9675C10.8987 16.1272 10.8555 16.4294 10.6425 16.6425C10.4295 16.8555 10.1273 16.8987 9.96754 16.7389C9.80779 16.5792 9.85096 16.2769 10.064 16.0639C10.277 15.8509 10.5792 15.8077 10.7389 15.9675Z" fill="#96877D"/>
<path d="M9.93531 16.4495L9.99958 16.3852L10.2567 16.5137L10.1281 16.2566L10.1924 16.1922L10.4496 16.7065L9.9353 16.4494L9.93531 16.4495Z" fill="#D0D0D0"/>
<path d="M10.321 16.0639L10.3853 15.9996L10.771 16.3853L10.7067 16.4496L10.321 16.0639Z" fill="#D0D0D0"/>
<path d="M11.9999 19.9094C13.0544 19.9094 13.9092 19.0545 13.9092 18C13.9092 16.9456 13.0544 16.0907 11.9999 16.0907C10.9454 16.0907 10.0906 16.9456 10.0906 18C10.0906 19.0545 10.9454 19.9094 11.9999 19.9094Z" stroke="#96877D" stroke-width="0.0308401"/>
<path d="M11.9999 19.4548C12.8033 19.4548 13.4546 18.8035 13.4546 18.0001C13.4546 17.1967 12.8033 16.5454 11.9999 16.5454C11.1965 16.5454 10.5452 17.1967 10.5452 18.0001C10.5452 18.8035 11.1965 19.4548 11.9999 19.4548Z" stroke="#96877D" stroke-width="0.0308401"/>
<path d="M11.2727 19.6361C11.3229 19.6361 11.3636 19.5954 11.3636 19.5452C11.3636 19.495 11.3229 19.4543 11.2727 19.4543C11.2225 19.4543 11.1818 19.495 11.1818 19.5452C11.1818 19.5954 11.2225 19.6361 11.2727 19.6361Z" fill="black"/>
<path d="M12.7273 19.6361C12.7775 19.6361 12.8182 19.5954 12.8182 19.5452C12.8182 19.495 12.7775 19.4543 12.7273 19.4543C12.677 19.4543 12.6364 19.495 12.6364 19.5452C12.6364 19.5954 12.677 19.6361 12.7273 19.6361Z" fill="black"/>
<path d="M11.9397 19.5452V19.64H11.8185C11.6972 19.64 11.6972 19.7348 11.8185 19.7348H11.9397V19.8296C11.9401 19.9278 12.0455 19.9397 12.0532 19.8378L12.0609 19.7353H12.1821C12.3033 19.7353 12.3033 19.6405 12.1821 19.6405H12.0609V19.5457C12.0609 19.451 11.9397 19.451 11.9397 19.5457L11.9397 19.5452Z" fill="black"/>
<path d="M10.2239 18.4706L10.3489 18.4408L10.3351 18.3829C10.3319 18.3696 10.3267 18.3605 10.3193 18.3558C10.312 18.351 10.2994 18.3496 10.2816 18.3517L10.2795 18.3431L10.3872 18.3174L10.3892 18.3261C10.3769 18.3292 10.3682 18.3329 10.3632 18.3374C10.3581 18.3418 10.3548 18.3471 10.3532 18.3531C10.3516 18.3592 10.352 18.3676 10.3546 18.3782L10.3684 18.4362L10.4683 18.4123C10.4844 18.4085 10.4948 18.4049 10.4995 18.4017C10.503 18.3992 10.5056 18.3951 10.5072 18.3894C10.5093 18.3817 10.5095 18.374 10.5077 18.3665L10.5049 18.355L10.5136 18.3529L10.5462 18.4894L10.5375 18.4915L10.5348 18.4803C10.5317 18.4671 10.5256 18.4585 10.5165 18.4544C10.5106 18.4518 10.4981 18.4528 10.479 18.4574L10.2736 18.5063C10.2575 18.5102 10.2471 18.5137 10.2424 18.517C10.2389 18.5195 10.2363 18.5235 10.2346 18.529C10.2324 18.5366 10.2323 18.5443 10.2341 18.5519L10.2368 18.5632L10.2281 18.5653L10.1717 18.3286L10.2409 18.3089L10.2428 18.3171C10.2289 18.3247 10.2192 18.3321 10.2135 18.3391C10.2078 18.3462 10.2044 18.354 10.2031 18.3626C10.2019 18.3713 10.2032 18.3839 10.2072 18.4005L10.2239 18.4706L10.2239 18.4706ZM10.1434 17.9065C10.1458 17.8641 10.1639 17.8283 10.1978 17.799C10.2318 17.7698 10.2728 17.7565 10.321 17.7593C10.3706 17.7621 10.4108 17.78 10.4418 17.8132C10.4728 17.8463 10.487 17.8851 10.4845 17.9296C10.482 17.9745 10.4639 18.0114 10.4302 18.0401C10.3966 18.0689 10.3544 18.0819 10.3037 18.079C10.2518 18.0761 10.2105 18.056 10.1798 18.0189C10.1531 17.9866 10.141 17.9492 10.1434 17.9065L10.1434 17.9065ZM10.1607 17.912C10.159 17.9412 10.1685 17.9653 10.1892 17.9842C10.2149 18.0077 10.2538 18.0209 10.3058 18.0238C10.3591 18.0268 10.4007 18.0177 10.4308 17.9966C10.4536 17.9803 10.4658 17.9578 10.4674 17.9291C10.4691 17.8984 10.4586 17.8724 10.4358 17.8511C10.413 17.8298 10.3759 17.8177 10.3243 17.8148C10.2685 17.8116 10.2262 17.8203 10.1975 17.8407C10.1747 17.8571 10.1624 17.8809 10.1607 17.912L10.1607 17.912ZM10.6343 17.315L10.6033 17.3965L10.421 17.4456C10.4184 17.4534 10.4162 17.4597 10.4143 17.4645C10.4136 17.4664 10.4128 17.4685 10.4118 17.4707C10.4109 17.473 10.4099 17.4752 10.4088 17.4776L10.4976 17.5114C10.5169 17.5187 10.5296 17.5212 10.5359 17.5187C10.5446 17.5155 10.5512 17.5082 10.5555 17.4968L10.5601 17.4849L10.5684 17.488L10.5186 17.619L10.5103 17.6158L10.5146 17.6043C10.5195 17.5914 10.5189 17.5805 10.5126 17.5718C10.5091 17.5668 10.4987 17.5611 10.4812 17.5544L10.2838 17.4793C10.2646 17.472 10.2519 17.4695 10.2456 17.4719C10.2368 17.4753 10.2301 17.4827 10.2257 17.4943L10.2214 17.5058L10.213 17.5026L10.2554 17.3913C10.2677 17.3589 10.2792 17.3358 10.2898 17.3222C10.3004 17.3086 10.3141 17.2989 10.3309 17.293C10.3477 17.2871 10.3649 17.2875 10.3824 17.2942C10.4012 17.3013 10.4152 17.3136 10.4243 17.3311C10.4335 17.3486 10.436 17.3713 10.432 17.3992L10.5437 17.3695C10.5693 17.3627 10.5874 17.3554 10.5979 17.3475C10.6085 17.3397 10.6178 17.3278 10.626 17.3118L10.6343 17.315V17.315ZM10.3946 17.4722C10.3957 17.4693 10.3967 17.4669 10.3976 17.4648C10.3985 17.4627 10.3992 17.461 10.3997 17.4597C10.4108 17.4305 10.4128 17.4061 10.4058 17.3865C10.3988 17.3669 10.3856 17.3534 10.3661 17.346C10.347 17.3387 10.3292 17.3388 10.3127 17.3462C10.2962 17.3536 10.2842 17.3671 10.2767 17.3868C10.2734 17.3955 10.2704 17.4078 10.2675 17.4238L10.3946 17.4722L10.3946 17.4722ZM11.0904 16.389L11.1536 16.471L11.1465 16.4756C11.1254 16.4587 11.1056 16.4484 11.0872 16.4448C11.0606 16.4396 11.0345 16.4453 11.0089 16.4619C10.974 16.4845 10.9563 16.5156 10.956 16.555C10.9559 16.5882 10.9663 16.621 10.9872 16.6532C11.0041 16.6794 11.0247 16.7 11.0488 16.715C11.0729 16.7301 11.0964 16.7373 11.1193 16.7367C11.1422 16.7362 11.1623 16.7303 11.1795 16.7191C11.1896 16.7126 11.1986 16.7049 11.2064 16.6963C11.2142 16.6876 11.2208 16.6779 11.2264 16.6672L11.175 16.5879C11.1661 16.5741 11.1592 16.5658 11.1543 16.5629C11.1495 16.56 11.1442 16.5589 11.1383 16.5595C11.1325 16.5601 11.1241 16.564 11.113 16.5711L11.108 16.5635L11.2143 16.4946L11.2193 16.5023L11.2142 16.5056C11.2037 16.5124 11.1987 16.5206 11.1994 16.5302C11.1999 16.5369 11.2049 16.5476 11.2144 16.5623L11.2688 16.6463C11.2587 16.6647 11.2474 16.6808 11.2348 16.6945C11.2223 16.7082 11.2067 16.721 11.1882 16.733C11.1352 16.7673 11.0839 16.7764 11.0344 16.7602C10.9972 16.7481 10.9678 16.7254 10.9463 16.6921C10.9306 16.6679 10.9214 16.641 10.9187 16.6114C10.9154 16.5761 10.9212 16.5437 10.9361 16.514C10.9486 16.4892 10.9685 16.4679 10.9959 16.4502C11.0059 16.4437 11.0155 16.4387 11.0247 16.435C11.0339 16.4313 11.0478 16.4274 11.0663 16.4232C11.0757 16.4212 11.0817 16.4193 11.0843 16.4177C11.0868 16.416 11.0883 16.4134 11.0886 16.4099C11.0889 16.4063 11.087 16.401 11.0829 16.3938L11.0904 16.389V16.389ZM11.6228 16.4259L11.5005 16.4584L11.4923 16.514C11.4903 16.5276 11.4901 16.5375 11.4917 16.5436C11.493 16.5484 11.4964 16.552 11.5019 16.5544C11.5075 16.5569 11.518 16.5566 11.5335 16.5537L11.5358 16.5623L11.4363 16.5887L11.434 16.5801C11.4466 16.5743 11.4544 16.569 11.4572 16.5642C11.4632 16.5546 11.4679 16.5372 11.4715 16.5118L11.5135 16.2221L11.5217 16.22L11.7015 16.4536C11.716 16.4724 11.7277 16.4839 11.7366 16.4883C11.7455 16.4927 11.7565 16.4935 11.7696 16.4909L11.7719 16.4995L11.6472 16.5327L11.6449 16.524C11.6573 16.5201 11.6653 16.5157 11.6688 16.5109C11.6722 16.5062 11.6733 16.5013 11.6719 16.4961C11.6701 16.4893 11.6641 16.4793 11.654 16.4662L11.6228 16.4259L11.6228 16.4259ZM11.6117 16.4104L11.5242 16.2969L11.5031 16.4392L11.6117 16.4104L11.6117 16.4104ZM12.189 16.4087L12.1968 16.4107L12.1654 16.4982L11.9125 16.4884L11.9128 16.4795L11.9251 16.48C11.9389 16.4805 11.949 16.4764 11.9553 16.4676C11.9588 16.4626 11.961 16.4508 11.9617 16.4322L11.9699 16.2213C11.9707 16.2009 11.969 16.1881 11.9647 16.1828C11.9587 16.1754 11.9495 16.1716 11.9371 16.1711L11.9248 16.1706L11.9252 16.1617L12.0731 16.1674L12.0728 16.1763C12.0554 16.1755 12.0432 16.1766 12.0361 16.1797C12.029 16.1828 12.024 16.1869 12.0213 16.192C12.0185 16.197 12.0167 16.2092 12.016 16.2287L12.008 16.434C12.0074 16.4473 12.0084 16.4565 12.0108 16.4616C12.0126 16.465 12.0154 16.4676 12.0194 16.4694C12.0233 16.4712 12.0358 16.4724 12.0569 16.4733L12.0807 16.4742C12.1058 16.4752 12.1235 16.474 12.1337 16.4707C12.144 16.4674 12.1535 16.4612 12.1622 16.4521C12.1709 16.4431 12.1798 16.4286 12.189 16.4087L12.189 16.4087ZM12.6244 16.5252L12.6314 16.5293L12.577 16.6048L12.3366 16.5253L12.3394 16.5168L12.3511 16.5207C12.3642 16.525 12.375 16.5238 12.3835 16.5171C12.3883 16.5133 12.3937 16.5026 12.3995 16.4849L12.4658 16.2845C12.4722 16.2652 12.474 16.2523 12.4714 16.246C12.4676 16.2373 12.4599 16.231 12.4482 16.2272L12.4365 16.2233L12.4393 16.2148L12.5799 16.2613L12.577 16.2698C12.5606 16.2642 12.5485 16.2619 12.5409 16.2629C12.5332 16.2639 12.5273 16.2664 12.5232 16.2705C12.5192 16.2746 12.5141 16.2859 12.508 16.3043L12.4435 16.4994C12.4393 16.5121 12.4376 16.5212 12.4385 16.5267C12.4393 16.5305 12.4413 16.5338 12.4446 16.5366C12.4479 16.5394 12.4596 16.5441 12.4796 16.5507L12.5022 16.5582C12.5261 16.5661 12.5433 16.5698 12.5541 16.5695C12.5649 16.5692 12.5757 16.5659 12.5866 16.5596C12.5975 16.5533 12.6101 16.5418 12.6244 16.5252L12.6244 16.5252ZM12.9753 16.711L12.872 16.6379L12.8241 16.6672C12.8123 16.6744 12.8046 16.6806 12.8009 16.6857C12.7981 16.6897 12.7975 16.6947 12.7992 16.7005C12.8009 16.7063 12.8078 16.7143 12.82 16.7243L12.8149 16.7316L12.7308 16.6721L12.736 16.6648C12.7485 16.6707 12.7575 16.6733 12.763 16.6724C12.7742 16.6709 12.7907 16.6633 12.8125 16.6498L13.0618 16.4966L13.0687 16.5015L13.0044 16.7892C12.9993 16.8124 12.9979 16.8288 13.0002 16.8384C13.0026 16.848 13.009 16.857 13.0194 16.8654L13.0142 16.8727L12.9089 16.7982L12.9141 16.7909C12.9251 16.7979 12.9335 16.8012 12.9394 16.8008C12.9453 16.8004 12.9497 16.7981 12.9528 16.7938C12.9569 16.788 12.9607 16.777 12.9643 16.7608L12.9753 16.711L12.9753 16.711ZM12.9801 16.6926L13.0112 16.5527L12.8884 16.6276L12.9801 16.6925L12.9801 16.6926ZM13.3679 16.764L13.4207 16.8353L13.3428 17.1419L13.4942 17.0296C13.5104 17.0177 13.5191 17.0084 13.5204 17.0018C13.5223 16.993 13.5194 16.9834 13.5118 16.9731L13.505 16.964L13.5122 16.9587L13.58 17.0501L13.5728 17.0554L13.5659 17.0461C13.5577 17.035 13.5485 17.0297 13.5383 17.03C13.5321 17.0302 13.5216 17.0358 13.5069 17.0467L13.2854 17.2108L13.2803 17.2038L13.3634 16.8739L13.2017 16.9937C13.1856 17.0057 13.1768 17.0149 13.1754 17.0214C13.1736 17.0303 13.1765 17.0399 13.184 17.0501L13.1909 17.0594L13.1837 17.0647L13.116 16.9732L13.1231 16.9679L13.1299 16.977C13.1382 16.9883 13.1475 16.9937 13.1576 16.9934C13.1639 16.9932 13.1743 16.9876 13.1891 16.9767L13.3717 16.8413C13.375 16.8271 13.3766 16.8169 13.3765 16.8109C13.3764 16.8048 13.3748 16.7971 13.3716 16.7877C13.37 16.7831 13.3664 16.7769 13.3607 16.7693L13.3679 16.764L13.3679 16.764ZM13.7801 17.5237L13.7091 17.5527L13.706 17.5441C13.7182 17.5379 13.7264 17.5324 13.7309 17.5276C13.738 17.5198 13.7423 17.5113 13.7437 17.502C13.7451 17.4927 13.7436 17.4817 13.739 17.469L13.7237 17.4256L13.4882 17.5089C13.4692 17.5156 13.4581 17.5218 13.4549 17.5276C13.4506 17.5356 13.4505 17.5456 13.4548 17.5575L13.4585 17.5682L13.4501 17.5712L13.4039 17.4405L13.4123 17.4375L13.4162 17.4484C13.4208 17.4615 13.428 17.4693 13.4378 17.472C13.4438 17.4736 13.4555 17.4713 13.4727 17.4652L13.7082 17.3819L13.6951 17.3449C13.6901 17.3305 13.6854 17.3206 13.6811 17.3153C13.6754 17.3084 13.6675 17.3036 13.6574 17.3009C13.6472 17.2982 13.6349 17.2988 13.6206 17.3027L13.6176 17.294L13.6911 17.2721L13.7802 17.5237L13.7801 17.5237ZM13.5213 18.1037L13.5168 18.0165L13.6637 17.8981C13.663 17.8899 13.6625 17.8832 13.6622 17.8781C13.6621 17.876 13.662 17.8738 13.662 17.8714C13.6619 17.8689 13.6619 17.8664 13.6619 17.8639L13.5671 17.8688C13.5465 17.8699 13.5339 17.8728 13.5291 17.8775C13.5224 17.884 13.5193 17.8933 13.52 17.9055L13.5206 17.9183L13.5117 17.9188L13.5044 17.7789L13.5133 17.7784L13.514 17.7907C13.5147 17.8045 13.5197 17.8141 13.529 17.8196C13.5342 17.8227 13.546 17.8238 13.5647 17.8228L13.7756 17.8118C13.7962 17.8108 13.8088 17.8079 13.8135 17.8031C13.8203 17.7965 13.8233 17.787 13.8227 17.7746L13.8221 17.7623L13.831 17.7619L13.8371 17.8808C13.8389 17.9155 13.8377 17.9412 13.8335 17.9579C13.8293 17.9746 13.8208 17.9891 13.8078 18.0013C13.7948 18.0134 13.7789 18.02 13.7602 18.021C13.7401 18.022 13.7223 18.0164 13.7069 18.0041C13.6914 17.9918 13.68 17.972 13.6724 17.9449L13.5823 18.0172C13.5615 18.0337 13.5479 18.0477 13.5415 18.0592C13.535 18.0706 13.5312 18.0853 13.5302 18.1032L13.5213 18.1037L13.5213 18.1037ZM13.6771 17.8631C13.6773 17.8661 13.6774 17.8688 13.6774 17.871C13.6775 17.8733 13.6775 17.8751 13.6776 17.8766C13.6792 17.9077 13.6872 17.9308 13.7015 17.946C13.7158 17.9611 13.7334 17.9681 13.7542 17.967C13.7746 17.9659 13.7909 17.9587 13.803 17.9453C13.8151 17.9318 13.8206 17.9146 13.8195 17.8936C13.819 17.8843 13.8168 17.8717 13.8129 17.856L13.6771 17.8631H13.6771ZM13.7668 18.5357L13.7378 18.646L13.7292 18.6437L13.7308 18.6377C13.7318 18.6336 13.7316 18.6272 13.7301 18.6185C13.7285 18.6098 13.7252 18.6014 13.7202 18.5933C13.7152 18.5851 13.7064 18.5744 13.6938 18.5611L13.5937 18.4534L13.5144 18.4326C13.4949 18.4275 13.4822 18.4265 13.4763 18.4295C13.4682 18.4337 13.4625 18.4422 13.4591 18.455L13.4564 18.4652L13.4478 18.463L13.4831 18.3286L13.4917 18.3309L13.4887 18.3421C13.4852 18.3554 13.4868 18.366 13.4934 18.3737C13.4975 18.3784 13.5084 18.3831 13.5261 18.3878L13.601 18.4074L13.7562 18.3554C13.7745 18.3492 13.786 18.3448 13.7908 18.3422C13.7957 18.3396 13.8023 18.3332 13.8108 18.3231C13.8132 18.3204 13.8151 18.3161 13.8167 18.3102L13.8253 18.3125L13.7898 18.4478L13.7812 18.4455L13.783 18.4385C13.7849 18.4312 13.785 18.424 13.7832 18.417C13.7814 18.4099 13.7771 18.4055 13.7702 18.4037C13.7646 18.4022 13.7533 18.4043 13.7362 18.41L13.6169 18.4492L13.6982 18.5369C13.7103 18.55 13.72 18.5576 13.7271 18.5594C13.7315 18.5606 13.7357 18.5605 13.7397 18.5591C13.7437 18.5578 13.7472 18.5552 13.7503 18.5516C13.7533 18.5479 13.7559 18.5418 13.7581 18.5334L13.7668 18.5357L13.7668 18.5357Z" fill="black"/>
<path d="M13.0377 18.278C13.0696 18.2699 13.1223 18.2765 13.1223 18.2765C13.1223 18.2765 13.1269 18.2984 13.113 18.3057C13.1284 18.3145 13.1838 18.3118 13.1838 18.3118C13.1838 18.3118 13.1622 18.3283 13.1515 18.3349C13.1715 18.3368 13.1961 18.3625 13.1961 18.3625C13.1961 18.3625 13.1499 18.3702 13.13 18.3595C13.1423 18.3841 13.1407 18.4056 13.1407 18.4056C13.1407 18.4056 13.0662 18.3871 13.0393 18.3379" fill="#96877D"/>
<path d="M13.0377 18.278C13.0696 18.2699 13.1223 18.2765 13.1223 18.2765C13.1223 18.2765 13.1269 18.2984 13.113 18.3057C13.1284 18.3145 13.1838 18.3118 13.1838 18.3118C13.1838 18.3118 13.1622 18.3283 13.1515 18.3349C13.1715 18.3368 13.1961 18.3625 13.1961 18.3625C13.1961 18.3625 13.1499 18.3702 13.13 18.3595C13.1423 18.3841 13.1407 18.4056 13.1407 18.4056C13.1407 18.4056 13.0662 18.3871 13.0393 18.3379" stroke="black" stroke-width="0.01218"/>
<path d="M12.9129 18.2359C12.8948 18.2805 12.7622 18.1975 12.7622 18.1975C12.7622 18.1975 12.8206 18.2901 12.9082 18.3005" fill="#96877D"/>
<path d="M12.9129 18.2359C12.8948 18.2805 12.7622 18.1975 12.7622 18.1975C12.7622 18.1975 12.8206 18.2901 12.9082 18.3005" stroke="black" stroke-width="0.01218"/>
<path d="M11.2576 19.0862H12.8102L12.9301 18.9909L12.7303 18.8833L12.4228 18.7788L12.2998 18.7111L12.0723 18.7234L11.8817 18.8249L11.6203 18.8556L11.5589 18.9263L11.3652 18.9417L11.0608 18.9356L11.5681 19.0155L11.15 18.994L11.2576 19.0862L11.2576 19.0862Z" fill="#96877D" stroke="black" stroke-width="0.01218"/>
<path d="M12.0939 18.6404C11.8995 18.5359 11.8426 18.7934 11.7588 18.8556C11.8718 18.8748 11.9571 18.7688 12.0539 18.7173C12.1274 18.9172 12.243 18.7849 12.243 18.7849C12.243 18.7849 12.3637 18.9763 12.5243 18.8894C12.5682 18.9225 12.6166 18.8925 12.6166 18.8925C12.6166 18.8925 12.675 18.9033 12.6873 18.8771C12.718 18.8879 12.7519 18.8495 12.7519 18.8495C12.7519 18.8495 12.8187 18.8502 12.8318 18.8156C12.931 18.8333 13.0624 18.6127 13.0624 18.6127L13.1024 18.5359L13.1608 18.5236C13.1608 18.5236 13.1646 18.4851 13.1331 18.4867C13.1323 18.4636 13.1123 18.4513 13.0839 18.4559C13.0893 18.4421 13.0685 18.4313 13.0685 18.4313C13.0132 18.4452 13.0101 18.585 13.0101 18.585C13.0101 18.585 12.9133 18.6588 12.8779 18.6773C12.8764 18.5973 12.7426 18.489 12.7703 18.4375C12.798 18.386 12.8848 18.5166 12.9609 18.4928C13.037 18.469 13.0744 18.37 13.0778 18.293C13.0562 18.2407 13.004 18.1546 13.004 18.1546L12.9548 18.1515L12.9117 18.047C12.9117 18.047 12.821 18.1062 12.8226 18.1577C12.8241 18.2092 12.9179 18.253 12.9179 18.253C12.9179 18.253 12.8638 18.2868 12.8133 18.2714C12.8087 18.3237 12.8748 18.3137 12.8994 18.3145C12.9117 18.3522 12.9486 18.3729 12.9486 18.3729C12.9486 18.3729 12.9717 18.4306 12.9117 18.4252C12.8518 18.4198 12.781 18.2817 12.6965 18.3452C12.6066 18.4129 12.7365 18.5359 12.7365 18.5359C12.7365 18.5359 12.6573 18.5774 12.6104 18.6834C12.419 18.522 12.3068 18.5973 12.0939 18.6404L12.0939 18.6404Z" fill="#96877D" stroke="black" stroke-width="0.01218"/>
<path d="M11.8143 18.3668C11.8942 18.4421 11.8385 18.5673 11.8696 18.5912C11.9027 18.6166 11.9496 18.5789 11.9496 18.5789C12.0333 18.6012 12.1832 18.5544 12.1832 18.5544C12.2492 18.5912 12.2232 18.5368 12.2632 18.539C12.2985 18.6297 12.4169 18.6128 12.4169 18.6128C12.4169 18.6128 12.3085 18.5021 12.2417 18.4713C12.1902 18.5021 12.0403 18.5067 12.0141 18.5021C11.985 18.4969 12.0034 18.4613 11.9895 18.4406C12.0447 18.387 12.0011 18.2538 11.9711 18.2039C11.8489 18.1225 11.703 18.2619 11.8143 18.3668L11.8143 18.3668Z" fill="#96877D" stroke="black" stroke-width="0.01218"/>
<path d="M11.2826 18.1417C11.1821 18.1689 11.0076 18.0118 10.9261 18.0722C10.8446 18.1325 10.8826 18.2809 10.937 18.3548C10.9901 18.427 10.8592 18.4532 10.8239 18.4961C10.7907 18.5365 10.8348 18.5831 10.8348 18.5831L10.8717 18.607L10.8652 18.6613L10.8848 18.7266C10.8848 18.7266 10.9027 18.7423 10.9087 18.7222C10.9255 18.739 10.9105 18.7878 10.9522 18.7939C10.9372 18.7627 10.963 18.6765 10.963 18.6765C10.963 18.6765 11.0359 18.682 11.0544 18.6505C11.0728 18.6189 11.037 18.5505 11.037 18.5505H11.0587C11.0342 18.5336 11.0261 18.4831 11.0261 18.4831C11.0261 18.4831 11.1272 18.451 11.1261 18.3744C11.125 18.2977 10.962 18.2162 11.0217 18.1765C11.0881 18.1325 11.2033 18.2907 11.3022 18.2178C11.4001 18.1458 11.337 18.2157 11.337 18.2157C11.337 18.2157 11.3817 18.115 11.2826 18.1417L11.2826 18.1417Z" fill="#96877D" stroke="black" stroke-width="0.01218"/>
<path d="M11.8017 17.0649C11.6672 17.0088 11.3924 17.0053 11.2391 16.9296C11.1718 16.9338 11.1418 16.9869 11.1392 17.008C11.0688 17.0045 11.0212 17.1152 11.0315 17.1371C10.9036 17.0852 10.844 17.2878 10.8855 17.3293C10.7764 17.3339 10.7898 17.4734 10.7794 17.5122C10.7445 17.5972 10.7872 17.6257 10.8563 17.5952C10.8667 17.6321 10.8521 17.6528 10.8209 17.6598C11.0104 17.8766 11.1175 17.5264 11.2837 17.5276C11.4911 17.4669 11.5727 17.3646 11.5727 17.3646L11.6541 17.3754L11.8017 17.0649L11.8017 17.0649Z" fill="#96877D" stroke="black" stroke-width="0.01218"/>
<path d="M11.9754 17.1079C12.0849 17.1079 12.1737 17.0191 12.1737 16.9096C12.1737 16.8001 12.0849 16.7113 11.9754 16.7113C11.8659 16.7113 11.7771 16.8001 11.7771 16.9096C11.7771 17.0191 11.8659 17.1079 11.9754 17.1079Z" fill="#96877D" stroke="black" stroke-width="0.01218"/>
<path d="M11.6265 18.4712C11.5035 18.4489 11.2998 18.3213 11.2791 18.1545C11.3936 17.7049 11.9844 17.9397 12.0353 17.6015C12.0223 17.3783 12.0623 17.1575 12.186 16.9708C12.2437 16.8978 12.3182 16.8786 12.3182 16.8786C12.3182 16.8786 12.3316 16.9262 12.3121 16.9585C12.4097 16.9477 12.5434 17.0023 12.6349 17.0077C12.6618 17.0623 12.6595 17.0823 12.6533 17.1153C12.6472 17.1484 12.6103 17.1399 12.6103 17.1399C12.5864 17.1625 12.5578 17.1856 12.4935 17.1737C12.445 17.2106 12.3428 17.2198 12.3428 17.2198C12.3428 17.2198 12.5565 17.4451 12.5211 17.515C12.5657 17.5358 12.6318 17.6349 12.6318 17.6349C12.6318 17.6349 12.7779 17.558 12.8255 17.4873C12.9101 17.4873 13.0484 17.5757 13.1176 17.5857C13.2021 17.6541 13.2867 17.7241 13.2867 17.7241C13.2867 17.7241 13.186 17.7902 13.1422 17.7025C13.0891 17.7072 12.9746 17.5803 12.8163 17.6195C12.8117 17.7602 12.6564 17.8593 12.6564 17.8593C12.6564 17.8593 12.8013 17.8391 12.8808 17.887C12.9631 17.9562 13.0838 18.05 13.0838 18.05L13.1914 18.2344C13.1914 18.2344 13.093 18.2513 13.0561 18.1238C13.0192 18.2267 13.0177 18.06 12.8716 17.9823C12.8271 17.9877 12.8048 17.9908 12.7671 17.9608C12.6618 17.9892 12.5373 18.0507 12.3889 18.0346C12.2836 18.0676 12.2068 18.1553 12.0999 18.2037C11.9931 18.2521 11.9616 18.2283 11.9616 18.2283L11.8755 18.2314C11.8631 18.2832 11.8701 18.362 11.8232 18.3759C11.8532 18.4081 11.8017 18.5457 11.7494 18.5696C11.774 18.6579 11.8461 18.685 11.9216 18.7294C11.9216 18.7294 11.9885 18.6987 12.0323 18.7387C12.0761 18.7786 12.1214 18.8924 12.1214 18.8924C12.1214 18.8924 12.0303 18.8985 12.0015 18.8862C11.9728 18.8739 11.97 18.844 11.937 18.8524C11.7287 18.6672 11.6188 18.7409 11.5988 18.6987C11.5782 18.6555 11.648 18.5427 11.6264 18.4712L11.6265 18.4712Z" fill="#96877D" stroke="black" stroke-width="0.01218"/>
<path d="M11.1261 17.6459C11.1369 17.6323 11.213 17.6611 11.213 17.6611L11.3522 17.7481L11.6348 17.9307L11.7348 18.0763L11.5544 18.0177L11.3043 17.8024L11.1696 17.7155C11.1696 17.7155 11.1152 17.6595 11.1261 17.6459L11.1261 17.6459Z" fill="#96877D" stroke="black" stroke-width="0.01218"/>
<path d="M12.7977 18.1088C12.7001 18.0842 12.4595 18.3763 12.4595 18.3763L12.6409 18.5731C12.6409 18.5731 12.6463 18.2379 12.7977 18.1088Z" fill="#96877D" stroke="black" stroke-width="0.01218"/>
<path d="M11.6081 17.2939C11.5549 17.3621 11.5501 17.4996 11.6194 17.5551C11.6259 17.6385 11.6969 17.8069 11.7526 17.8227C11.8136 17.84 12.057 17.8965 12.1523 17.8811C12.1341 18.0356 12.2553 18.1596 12.3675 18.2408C12.3667 18.2547 12.3665 18.2716 12.3795 18.2888C12.3921 18.3054 12.451 18.3084 12.4536 18.2993C12.4798 18.336 12.6065 18.3521 12.6156 18.3358C12.6246 18.3198 12.4293 18.1839 12.386 18.1425C12.3492 18.0738 12.2795 17.9208 12.263 17.7981C12.1672 17.6841 12.0026 17.6864 12.0026 17.6864L12.0078 17.463L12.017 17.2109L11.9279 17.1648C11.9279 17.1648 11.9459 17.1566 11.9556 17.1463C11.9772 17.1556 12.0179 17.1121 12.0232 17.0998C12.0437 17.1071 12.0623 17.107 12.0659 17.096C12.069 17.0863 12.0727 17.0433 12.0802 17.021C12.1474 16.9618 12.0704 16.8362 11.9675 16.8341C11.8657 16.8321 11.8429 16.9555 11.8449 16.9649C11.8544 17.0036 11.8524 17.0232 11.8449 17.0325C11.8372 17.0421 11.8018 17.0633 11.8018 17.0633C11.8018 17.0633 11.745 17.0364 11.6758 17.0633C11.6066 17.0902 11.529 17.1263 11.5251 17.1709C11.4936 17.1755 11.4421 17.2163 11.4329 17.2508C11.4052 17.2455 11.3691 17.2685 11.3099 17.3646C11.2038 17.4115 11.1977 17.6382 11.1977 17.6382C11.1977 17.6382 11.1691 17.6799 11.1677 17.702C11.1664 17.7241 11.1777 17.7443 11.1915 17.7405C11.1931 17.7551 11.2123 17.7681 11.2207 17.7635C11.2238 17.7781 11.2449 17.7863 11.2576 17.7843C11.2588 17.7943 11.2997 17.7918 11.303 17.7827C11.3066 17.7728 11.2989 17.7229 11.3038 17.7189C11.3082 17.7153 11.3422 17.7412 11.3514 17.7343C11.3606 17.7274 11.3497 17.7052 11.3445 17.6966C11.3399 17.689 11.3107 17.6805 11.3038 17.6444C11.2968 17.6083 11.3222 17.5583 11.3222 17.5583C11.3222 17.5583 11.4375 17.4676 11.4506 17.39C11.5374 17.3984 11.5833 17.3225 11.6081 17.2939L11.6081 17.2939Z" fill="#96877D" stroke="black" stroke-width="0.01218"/>
<path d="M11.4075 16.9688C11.4338 16.9044 11.5289 16.9103 11.5289 16.9103C11.5289 16.9103 11.5629 16.8208 11.6911 16.8742C11.7393 16.8369 11.8663 16.8904 11.8663 16.8904C11.8663 16.8904 11.9139 16.827 11.9763 16.8342C12.0917 16.8477 12.111 16.9536 12.1039 16.9718C12.0406 16.9878 11.9311 16.9205 11.8479 16.9395C11.7993 16.967 11.7205 16.996 11.6911 17.0356C11.614 17.0437 11.5318 16.9647 11.4075 16.9688V16.9688Z" fill="#96877D" stroke="black" stroke-width="0.01218"/>
<path d="M11.6481 17.0756C11.6769 17.0579 11.7476 17.0269 11.7956 17.0648C11.846 17.119 11.9232 17.1694 11.9232 17.1694L12.0109 17.2063L12.0508 17.2309L12.0247 17.6321C11.9436 17.5491 11.8676 17.5346 11.8095 17.4369C11.7783 17.395 11.8022 17.2943 11.748 17.2278C11.6938 17.1613 11.6362 17.1163 11.6481 17.0756L11.6481 17.0756Z" fill="#96877D" stroke="black" stroke-width="0.01218"/>
<path d="M11.8588 17.1915C11.8588 17.1915 11.9047 17.1828 11.9175 17.1936C11.9335 17.1991 11.949 17.2037 11.9533 17.2176C11.9707 17.2227 11.9827 17.2317 11.9827 17.2447C11.999 17.2491 12.0055 17.2784 12.0055 17.2784L11.9903 17.3013C11.9903 17.3013 11.9729 17.285 11.9707 17.2676C11.9597 17.2621 11.9354 17.2564 11.9294 17.2404C11.9104 17.2385 11.8982 17.2287 11.8946 17.2121C11.877 17.2162 11.8588 17.1915 11.8588 17.1915V17.1915Z" fill="#96877D" stroke="black" stroke-width="0.01218"/>
<path d="M12.2475 16.9296C12.2214 16.9004 12.1753 16.9219 12.1753 16.9219L12.0523 17.1341L11.9985 17.1786L11.9939 17.3447L12.0385 17.4999L12.0231 17.6198C12.0231 17.6198 12.085 17.5617 12.0923 17.5291C12.0992 17.498 12.0692 17.3969 12.0692 17.3969C12.0692 17.3969 12.0323 17.3339 12.0769 17.2171C12.1215 17.1002 12.223 17.0034 12.2475 16.9296L12.2475 16.9296Z" fill="#96877D" stroke="black" stroke-width="0.01218"/>
<path d="M12.5512 17.1186C12.5512 17.1186 12.3591 17.393 12.0448 17.4907C11.9579 17.5114 11.9894 17.2877 11.9894 17.2877L11.9679 17.2939C11.9679 17.2939 11.9195 17.5129 12.0355 17.5152C12.3515 17.453 12.5885 17.1204 12.5885 17.1204L12.5507 17.1187L12.5512 17.1186Z" fill="#96877D" stroke="black" stroke-width="0.01218"/>
<path d="M12.6813 18.6962C12.6813 18.6962 12.6521 18.7177 12.6136 18.6962C12.5936 18.65 12.5398 18.647 12.5398 18.647C12.5398 18.647 12.5052 18.5474 12.4507 18.5763C12.4422 18.5248 12.383 18.5517 12.383 18.5517C12.383 18.5517 12.3815 18.4771 12.3123 18.4871C12.3354 18.4018 12.217 18.4072 12.217 18.4072C12.217 18.4072 12.2132 18.3111 12.0387 18.3303C12.4146 18.162 12.712 18.5947 12.712 18.5947" fill="#96877D"/>
<path d="M12.6813 18.6962C12.6813 18.6962 12.6521 18.7177 12.6136 18.6962C12.5936 18.65 12.5398 18.647 12.5398 18.647C12.5398 18.647 12.5052 18.5474 12.4507 18.5763C12.4422 18.5248 12.383 18.5517 12.383 18.5517C12.383 18.5517 12.3815 18.4771 12.3123 18.4871C12.3354 18.4018 12.217 18.4072 12.217 18.4072C12.217 18.4072 12.2132 18.3111 12.0387 18.3303C12.4146 18.162 12.712 18.5947 12.712 18.5947" stroke="black" stroke-width="0.01218"/>
<path d="M12.8595 18.7327C12.8595 18.7327 12.9464 18.8304 12.9917 18.8311C13.0371 18.8319 13.0409 18.7358 13.0409 18.7358C13.0409 18.7358 13.0555 18.7773 13.0778 18.7666C13.0755 18.7958 13.1055 18.8035 13.1055 18.8035C13.1055 18.8035 13.0271 18.9856 12.8042 18.8127" fill="#96877D"/>
<path d="M12.8595 18.7327C12.8595 18.7327 12.9464 18.8304 12.9917 18.8311C13.0371 18.8319 13.0409 18.7358 13.0409 18.7358C13.0409 18.7358 13.0555 18.7773 13.0778 18.7666C13.0755 18.7958 13.1055 18.8035 13.1055 18.8035C13.1055 18.8035 13.0271 18.9856 12.8042 18.8127" stroke="black" stroke-width="0.01218"/>
<path d="M12.1797 18.7699L12.1489 18.896C12.1489 18.896 12.1097 18.9314 12.1213 18.939C12.1328 18.9467 12.1951 18.9267 12.1951 18.9267C12.1951 18.9267 12.2919 18.9152 12.3211 18.8868C12.3411 18.9321 12.3857 18.936 12.3857 18.936C12.3857 18.936 12.3887 18.9167 12.3826 18.9052C12.4041 18.9091 12.4226 18.9021 12.4226 18.9021C12.4226 18.9021 12.4349 18.8668 12.4072 18.853C12.4103 18.8268 12.4233 18.8038 12.3765 18.8068C12.3419 18.8437 12.2565 18.886 12.235 18.8714C12.2135 18.8568 12.3196 18.8099 12.2904 18.7484" fill="#96877D"/>
<path d="M12.1797 18.7699L12.1489 18.896C12.1489 18.896 12.1097 18.9314 12.1213 18.939C12.1328 18.9467 12.1951 18.9267 12.1951 18.9267C12.1951 18.9267 12.2919 18.9152 12.3211 18.8868C12.3411 18.9321 12.3857 18.936 12.3857 18.936C12.3857 18.936 12.3887 18.9167 12.3826 18.9052C12.4041 18.9091 12.4226 18.9021 12.4226 18.9021C12.4226 18.9021 12.4349 18.8668 12.4072 18.853C12.4103 18.8268 12.4233 18.8038 12.3765 18.8068C12.3419 18.8437 12.2565 18.886 12.235 18.8714C12.2135 18.8568 12.3196 18.8099 12.2904 18.7484" stroke="black" stroke-width="0.01218"/>
<rect x="27" y="3" width="24" height="49" fill="#EE5757"/>
</g>
</svg>
