<svg width="54" height="48" viewBox="0 0 54 48" fill="none" xmlns="http://www.w3.org/2000/svg">
<mask id="mask0_1_34404" style="mask-type:alpha" maskUnits="userSpaceOnUse" x="3" y="6" width="48" height="36">
<path d="M3.56934 15.1356C4.16681 10.4125 8.0415 7.00193 12.7861 6.60887C16.6412 6.28949 21.6196 6 27 6C32.3804 6 37.3588 6.28949 41.2139 6.60887C45.9585 7.00193 49.8332 10.4125 50.4307 15.1356C50.752 17.6759 51 20.704 51 24C51 27.296 50.752 30.3241 50.4307 32.8644C49.8332 37.5875 45.9585 40.9981 41.2139 41.3911C37.3588 41.7105 32.3804 42 27 42C21.6196 42 16.6412 41.7105 12.7861 41.3911C8.0415 40.9981 4.16681 37.5875 3.56934 32.8644C3.248 30.3241 3 27.296 3 24C3 20.704 3.248 17.6759 3.56934 15.1356Z" fill="#00D0BF"/>
</mask>
<g mask="url(#mask0_1_34404)">
<rect x="3" width="24" height="49" fill="#F5F5F5"/>
<path d="M7 13.6363V16.3637H9.72731C9.72731 16.8182 10.1819 17.2728 10.6364 17.2728V20.0001H13.3636V17.2728C13.8181 17.2728 14.2727 16.8182 14.2727 16.3637H17V13.6363H14.2727C14.2727 13.1819 13.8181 12.7273 13.3636 12.7273V10H10.6364V12.7273C10.1819 12.7273 9.72731 13.1818 9.72731 13.6363H7Z" fill="#E60D2E"/>
<path d="M7.18188 13.818V16.1818H9.90902C9.90902 16.6363 10.3636 17.0908 10.8181 17.0908V19.8181H13.1817V17.0908C13.6362 17.0908 14.0908 16.6362 14.0908 16.1818H16.8179V13.818H14.0908C14.0908 13.3636 13.6362 12.9089 13.1817 12.9089V10.1817H10.8181V12.9089C10.3636 12.9089 9.90902 13.3635 9.90902 13.818H7.18188Z" fill="#96877D"/>
<path d="M7.27283 13.909V16.0909H9.99996C9.99996 16.5453 10.4545 17 10.9091 17V19.7273H13.0908V17C13.5454 17 13.9999 16.5453 13.9999 16.0909H16.7271V13.909H13.9999C13.9999 13.4546 13.5454 13 13.0908 13V10.2728H10.9091V13C10.4545 13 9.99996 13.4546 9.99996 13.909H7.27283Z" fill="#CCCCCC"/>
<path d="M10.7389 12.9675C10.8987 13.1272 10.8555 13.4294 10.6425 13.6425C10.4295 13.8555 10.1273 13.8987 9.96754 13.7389C9.80779 13.5792 9.85096 13.2769 10.064 13.0639C10.277 12.8509 10.5792 12.8077 10.7389 12.9675Z" fill="#96877D"/>
<path d="M9.93531 13.4495L9.99958 13.3852L10.2567 13.5137L10.1281 13.2566L10.1924 13.1922L10.4496 13.7065L9.9353 13.4494L9.93531 13.4495Z" fill="#D0D0D0"/>
<path d="M10.321 13.0639L10.3853 12.9996L10.771 13.3853L10.7067 13.4496L10.321 13.0639Z" fill="#D0D0D0"/>
<path d="M11.9999 16.9094C13.0544 16.9094 13.9092 16.0545 13.9092 15C13.9092 13.9456 13.0544 13.0907 11.9999 13.0907C10.9454 13.0907 10.0906 13.9456 10.0906 15C10.0906 16.0545 10.9454 16.9094 11.9999 16.9094Z" stroke="#96877D" stroke-width="0.0308401"/>
<path d="M11.9999 16.4548C12.8033 16.4548 13.4546 15.8035 13.4546 15.0001C13.4546 14.1967 12.8033 13.5454 11.9999 13.5454C11.1965 13.5454 10.5452 14.1967 10.5452 15.0001C10.5452 15.8035 11.1965 16.4548 11.9999 16.4548Z" stroke="#96877D" stroke-width="0.0308401"/>
<path d="M11.2727 16.6361C11.3229 16.6361 11.3636 16.5954 11.3636 16.5452C11.3636 16.495 11.3229 16.4543 11.2727 16.4543C11.2225 16.4543 11.1818 16.495 11.1818 16.5452C11.1818 16.5954 11.2225 16.6361 11.2727 16.6361Z" fill="black"/>
<path d="M12.7273 16.6361C12.7775 16.6361 12.8182 16.5954 12.8182 16.5452C12.8182 16.495 12.7775 16.4543 12.7273 16.4543C12.677 16.4543 12.6364 16.495 12.6364 16.5452C12.6364 16.5954 12.677 16.6361 12.7273 16.6361Z" fill="black"/>
<path d="M11.9397 16.5452V16.64H11.8185C11.6972 16.64 11.6972 16.7348 11.8185 16.7348H11.9397V16.8296C11.9401 16.9278 12.0455 16.9397 12.0532 16.8378L12.0609 16.7353H12.1821C12.3033 16.7353 12.3033 16.6405 12.1821 16.6405H12.0609V16.5457C12.0609 16.451 11.9397 16.451 11.9397 16.5457L11.9397 16.5452Z" fill="black"/>
<path d="M10.2239 15.4706L10.3489 15.4408L10.3351 15.3829C10.3319 15.3696 10.3267 15.3605 10.3193 15.3558C10.312 15.351 10.2994 15.3496 10.2816 15.3517L10.2795 15.3431L10.3872 15.3174L10.3892 15.3261C10.3769 15.3292 10.3682 15.3329 10.3632 15.3374C10.3581 15.3418 10.3548 15.3471 10.3532 15.3531C10.3516 15.3592 10.352 15.3676 10.3546 15.3782L10.3684 15.4362L10.4683 15.4123C10.4844 15.4085 10.4948 15.4049 10.4995 15.4017C10.503 15.3992 10.5056 15.3951 10.5072 15.3894C10.5093 15.3817 10.5095 15.374 10.5077 15.3665L10.5049 15.355L10.5136 15.3529L10.5462 15.4894L10.5375 15.4915L10.5348 15.4803C10.5317 15.4671 10.5256 15.4585 10.5165 15.4544C10.5106 15.4518 10.4981 15.4528 10.479 15.4574L10.2736 15.5063C10.2575 15.5102 10.2471 15.5137 10.2424 15.517C10.2389 15.5195 10.2363 15.5235 10.2346 15.529C10.2324 15.5366 10.2323 15.5443 10.2341 15.5519L10.2368 15.5632L10.2281 15.5653L10.1717 15.3286L10.2409 15.3089L10.2428 15.3171C10.2289 15.3247 10.2192 15.3321 10.2135 15.3391C10.2078 15.3462 10.2044 15.354 10.2031 15.3626C10.2019 15.3713 10.2032 15.3839 10.2072 15.4005L10.2239 15.4706L10.2239 15.4706ZM10.1434 14.9065C10.1458 14.8641 10.1639 14.8283 10.1978 14.799C10.2318 14.7698 10.2728 14.7565 10.321 14.7593C10.3706 14.7621 10.4108 14.78 10.4418 14.8132C10.4728 14.8463 10.487 14.8851 10.4845 14.9296C10.482 14.9745 10.4639 15.0114 10.4302 15.0401C10.3966 15.0689 10.3544 15.0819 10.3037 15.079C10.2518 15.0761 10.2105 15.056 10.1798 15.0189C10.1531 14.9866 10.141 14.9492 10.1434 14.9065L10.1434 14.9065ZM10.1607 14.912C10.159 14.9412 10.1685 14.9653 10.1892 14.9842C10.2149 15.0077 10.2538 15.0209 10.3058 15.0238C10.3591 15.0268 10.4007 15.0177 10.4308 14.9966C10.4536 14.9803 10.4658 14.9578 10.4674 14.9291C10.4691 14.8984 10.4586 14.8724 10.4358 14.8511C10.413 14.8298 10.3759 14.8177 10.3243 14.8148C10.2685 14.8116 10.2262 14.8203 10.1975 14.8407C10.1747 14.8571 10.1624 14.8809 10.1607 14.912L10.1607 14.912ZM10.6343 14.315L10.6033 14.3965L10.421 14.4456C10.4184 14.4534 10.4162 14.4597 10.4143 14.4645C10.4136 14.4664 10.4128 14.4685 10.4118 14.4707C10.4109 14.473 10.4099 14.4752 10.4088 14.4776L10.4976 14.5114C10.5169 14.5187 10.5296 14.5212 10.5359 14.5187C10.5446 14.5155 10.5512 14.5082 10.5555 14.4968L10.5601 14.4849L10.5684 14.488L10.5186 14.619L10.5103 14.6158L10.5146 14.6043C10.5195 14.5914 10.5189 14.5805 10.5126 14.5718C10.5091 14.5668 10.4987 14.5611 10.4812 14.5544L10.2838 14.4793C10.2646 14.472 10.2519 14.4695 10.2456 14.4719C10.2368 14.4753 10.2301 14.4827 10.2257 14.4943L10.2214 14.5058L10.213 14.5026L10.2554 14.3913C10.2677 14.3589 10.2792 14.3358 10.2898 14.3222C10.3004 14.3086 10.3141 14.2989 10.3309 14.293C10.3477 14.2871 10.3649 14.2875 10.3824 14.2942C10.4012 14.3013 10.4152 14.3136 10.4243 14.3311C10.4335 14.3486 10.436 14.3713 10.432 14.3992L10.5437 14.3695C10.5693 14.3627 10.5874 14.3554 10.5979 14.3475C10.6085 14.3397 10.6178 14.3278 10.626 14.3118L10.6343 14.315V14.315ZM10.3946 14.4722C10.3957 14.4693 10.3967 14.4669 10.3976 14.4648C10.3985 14.4627 10.3992 14.461 10.3997 14.4597C10.4108 14.4305 10.4128 14.4061 10.4058 14.3865C10.3988 14.3669 10.3856 14.3534 10.3661 14.346C10.347 14.3387 10.3292 14.3388 10.3127 14.3462C10.2962 14.3536 10.2842 14.3671 10.2767 14.3868C10.2734 14.3955 10.2704 14.4078 10.2675 14.4238L10.3946 14.4722L10.3946 14.4722ZM11.0904 13.389L11.1536 13.471L11.1465 13.4756C11.1254 13.4587 11.1056 13.4484 11.0872 13.4448C11.0606 13.4396 11.0345 13.4453 11.0089 13.4619C10.974 13.4845 10.9563 13.5156 10.956 13.555C10.9559 13.5882 10.9663 13.621 10.9872 13.6532C11.0041 13.6794 11.0247 13.7 11.0488 13.715C11.0729 13.7301 11.0964 13.7373 11.1193 13.7367C11.1422 13.7362 11.1623 13.7303 11.1795 13.7191C11.1896 13.7126 11.1986 13.7049 11.2064 13.6963C11.2142 13.6876 11.2208 13.6779 11.2264 13.6672L11.175 13.5879C11.1661 13.5741 11.1592 13.5658 11.1543 13.5629C11.1495 13.56 11.1442 13.5589 11.1383 13.5595C11.1325 13.5601 11.1241 13.564 11.113 13.5711L11.108 13.5635L11.2143 13.4946L11.2193 13.5023L11.2142 13.5056C11.2037 13.5124 11.1987 13.5206 11.1994 13.5302C11.1999 13.5369 11.2049 13.5476 11.2144 13.5623L11.2688 13.6463C11.2587 13.6647 11.2474 13.6808 11.2348 13.6945C11.2223 13.7082 11.2067 13.721 11.1882 13.733C11.1352 13.7673 11.0839 13.7764 11.0344 13.7602C10.9972 13.7481 10.9678 13.7254 10.9463 13.6921C10.9306 13.6679 10.9214 13.641 10.9187 13.6114C10.9154 13.5761 10.9212 13.5437 10.9361 13.514C10.9486 13.4892 10.9685 13.4679 10.9959 13.4502C11.0059 13.4437 11.0155 13.4387 11.0247 13.435C11.0339 13.4313 11.0478 13.4274 11.0663 13.4232C11.0757 13.4212 11.0817 13.4193 11.0843 13.4177C11.0868 13.416 11.0883 13.4134 11.0886 13.4099C11.0889 13.4063 11.087 13.401 11.0829 13.3938L11.0904 13.389V13.389ZM11.6228 13.4259L11.5005 13.4584L11.4923 13.514C11.4903 13.5276 11.4901 13.5375 11.4917 13.5436C11.493 13.5484 11.4964 13.552 11.5019 13.5544C11.5075 13.5569 11.518 13.5566 11.5335 13.5537L11.5358 13.5623L11.4363 13.5887L11.434 13.5801C11.4466 13.5743 11.4544 13.569 11.4572 13.5642C11.4632 13.5546 11.4679 13.5372 11.4715 13.5118L11.5135 13.2221L11.5217 13.22L11.7015 13.4536C11.716 13.4724 11.7277 13.4839 11.7366 13.4883C11.7455 13.4927 11.7565 13.4935 11.7696 13.4909L11.7719 13.4995L11.6472 13.5327L11.6449 13.524C11.6573 13.5201 11.6653 13.5157 11.6688 13.5109C11.6722 13.5062 11.6733 13.5013 11.6719 13.4961C11.6701 13.4893 11.6641 13.4793 11.654 13.4662L11.6228 13.4259L11.6228 13.4259ZM11.6117 13.4104L11.5242 13.2969L11.5031 13.4392L11.6117 13.4104L11.6117 13.4104ZM12.189 13.4087L12.1968 13.4107L12.1654 13.4982L11.9125 13.4884L11.9128 13.4795L11.9251 13.48C11.9389 13.4805 11.949 13.4764 11.9553 13.4676C11.9588 13.4626 11.961 13.4508 11.9617 13.4322L11.9699 13.2213C11.9707 13.2009 11.969 13.1881 11.9647 13.1828C11.9587 13.1754 11.9495 13.1716 11.9371 13.1711L11.9248 13.1706L11.9252 13.1617L12.0731 13.1674L12.0728 13.1763C12.0554 13.1755 12.0432 13.1766 12.0361 13.1797C12.029 13.1828 12.024 13.1869 12.0213 13.192C12.0185 13.197 12.0167 13.2092 12.016 13.2287L12.008 13.434C12.0074 13.4473 12.0084 13.4565 12.0108 13.4616C12.0126 13.465 12.0154 13.4676 12.0194 13.4694C12.0233 13.4712 12.0358 13.4724 12.0569 13.4733L12.0807 13.4742C12.1058 13.4752 12.1235 13.474 12.1337 13.4707C12.144 13.4674 12.1535 13.4612 12.1622 13.4521C12.1709 13.4431 12.1798 13.4286 12.189 13.4087L12.189 13.4087ZM12.6244 13.5252L12.6314 13.5293L12.577 13.6048L12.3366 13.5253L12.3394 13.5168L12.3511 13.5207C12.3642 13.525 12.375 13.5238 12.3835 13.5171C12.3883 13.5133 12.3937 13.5026 12.3995 13.4849L12.4658 13.2845C12.4722 13.2652 12.474 13.2523 12.4714 13.246C12.4676 13.2373 12.4599 13.231 12.4482 13.2272L12.4365 13.2233L12.4393 13.2148L12.5798 13.2613L12.577 13.2698C12.5606 13.2642 12.5485 13.2619 12.5409 13.2629C12.5332 13.2639 12.5273 13.2664 12.5232 13.2705C12.5192 13.2746 12.5141 13.2859 12.508 13.3043L12.4435 13.4994C12.4393 13.5121 12.4376 13.5212 12.4385 13.5267C12.4393 13.5305 12.4413 13.5338 12.4446 13.5366C12.4479 13.5394 12.4596 13.5441 12.4796 13.5507L12.5022 13.5582C12.5261 13.5661 12.5433 13.5698 12.5541 13.5695C12.5649 13.5692 12.5757 13.5659 12.5866 13.5596C12.5975 13.5533 12.6101 13.5418 12.6244 13.5252L12.6244 13.5252ZM12.9753 13.711L12.872 13.6379L12.8241 13.6672C12.8123 13.6744 12.8046 13.6806 12.8009 13.6857C12.7981 13.6897 12.7975 13.6947 12.7992 13.7005C12.8009 13.7063 12.8078 13.7143 12.82 13.7243L12.8149 13.7316L12.7308 13.6721L12.736 13.6648C12.7485 13.6707 12.7575 13.6733 12.763 13.6724C12.7742 13.6709 12.7907 13.6633 12.8125 13.6498L13.0618 13.4966L13.0687 13.5015L13.0044 13.7892C12.9993 13.8124 12.9979 13.8288 13.0002 13.8384C13.0026 13.848 13.009 13.857 13.0194 13.8654L13.0142 13.8727L12.9089 13.7982L12.9141 13.7909C12.9251 13.7979 12.9335 13.8012 12.9394 13.8008C12.9453 13.8004 12.9497 13.7981 12.9528 13.7938C12.9569 13.788 12.9607 13.777 12.9643 13.7608L12.9753 13.711L12.9753 13.711ZM12.9801 13.6926L13.0112 13.5527L12.8884 13.6276L12.9801 13.6925L12.9801 13.6926ZM13.3679 13.764L13.4207 13.8353L13.3428 14.1419L13.4942 14.0296C13.5104 14.0177 13.5191 14.0084 13.5204 14.0018C13.5223 13.993 13.5194 13.9834 13.5118 13.9731L13.505 13.964L13.5122 13.9587L13.58 14.0501L13.5728 14.0554L13.5659 14.0461C13.5577 14.035 13.5485 14.0297 13.5383 14.03C13.5321 14.0302 13.5216 14.0358 13.5069 14.0467L13.2854 14.2108L13.2803 14.2038L13.3634 13.8739L13.2017 13.9937C13.1856 14.0057 13.1768 14.0149 13.1754 14.0214C13.1736 14.0303 13.1765 14.0399 13.184 14.0501L13.1909 14.0594L13.1837 14.0647L13.116 13.9732L13.1231 13.9679L13.1299 13.977C13.1382 13.9883 13.1475 13.9937 13.1576 13.9934C13.1639 13.9932 13.1743 13.9876 13.1891 13.9767L13.3717 13.8413C13.375 13.8271 13.3766 13.8169 13.3765 13.8109C13.3764 13.8048 13.3748 13.7971 13.3716 13.7877C13.37 13.7831 13.3664 13.7769 13.3607 13.7693L13.3679 13.764L13.3679 13.764ZM13.7801 14.5237L13.7091 14.5527L13.706 14.5441C13.7182 14.5379 13.7264 14.5324 13.7309 14.5276C13.738 14.5198 13.7423 14.5113 13.7437 14.502C13.7451 14.4927 13.7436 14.4817 13.739 14.469L13.7237 14.4256L13.4882 14.5089C13.4692 14.5156 13.4581 14.5218 13.4549 14.5276C13.4506 14.5356 13.4505 14.5456 13.4548 14.5575L13.4585 14.5682L13.4501 14.5712L13.4039 14.4405L13.4123 14.4375L13.4162 14.4484C13.4208 14.4615 13.428 14.4693 13.4378 14.472C13.4438 14.4736 13.4555 14.4713 13.4727 14.4652L13.7082 14.3819L13.6951 14.3449C13.6901 14.3305 13.6854 14.3206 13.6811 14.3153C13.6754 14.3084 13.6675 14.3036 13.6574 14.3009C13.6472 14.2982 13.6349 14.2988 13.6206 14.3027L13.6176 14.294L13.6911 14.2721L13.7802 14.5237L13.7801 14.5237ZM13.5213 15.1037L13.5168 15.0165L13.6637 14.8981C13.663 14.8899 13.6625 14.8832 13.6622 14.8781C13.6621 14.876 13.662 14.8738 13.662 14.8714C13.6619 14.8689 13.6619 14.8664 13.6619 14.8639L13.5671 14.8688C13.5465 14.8699 13.5339 14.8728 13.5291 14.8775C13.5224 14.884 13.5193 14.8933 13.52 14.9055L13.5206 14.9183L13.5117 14.9188L13.5044 14.7789L13.5133 14.7784L13.514 14.7907C13.5147 14.8045 13.5197 14.8141 13.529 14.8196C13.5342 14.8227 13.546 14.8238 13.5647 14.8228L13.7756 14.8118C13.7962 14.8108 13.8088 14.8079 13.8135 14.8031C13.8203 14.7965 13.8233 14.787 13.8227 14.7746L13.8221 14.7623L13.831 14.7619L13.8371 14.8808C13.8389 14.9155 13.8377 14.9412 13.8335 14.9579C13.8293 14.9746 13.8208 14.9891 13.8078 15.0013C13.7948 15.0134 13.7789 15.02 13.7602 15.021C13.7401 15.022 13.7223 15.0164 13.7069 15.0041C13.6914 14.9918 13.68 14.972 13.6724 14.9449L13.5823 15.0172C13.5615 15.0337 13.5479 15.0477 13.5415 15.0592C13.535 15.0706 13.5312 15.0853 13.5302 15.1032L13.5213 15.1037L13.5213 15.1037ZM13.6771 14.8631C13.6773 14.8661 13.6774 14.8688 13.6774 14.871C13.6775 14.8733 13.6775 14.8751 13.6776 14.8766C13.6792 14.9077 13.6872 14.9308 13.7015 14.946C13.7158 14.9611 13.7334 14.9681 13.7542 14.967C13.7746 14.9659 13.7909 14.9587 13.803 14.9453C13.8151 14.9318 13.8206 14.9146 13.8195 14.8936C13.819 14.8843 13.8168 14.8717 13.8129 14.856L13.6771 14.8631H13.6771ZM13.7668 15.5357L13.7378 15.646L13.7292 15.6437L13.7308 15.6377C13.7318 15.6336 13.7316 15.6272 13.7301 15.6185C13.7285 15.6098 13.7252 15.6014 13.7202 15.5933C13.7152 15.5851 13.7064 15.5744 13.6938 15.5611L13.5937 15.4534L13.5144 15.4326C13.4949 15.4275 13.4822 15.4265 13.4763 15.4295C13.4682 15.4337 13.4625 15.4422 13.4591 15.455L13.4564 15.4652L13.4478 15.463L13.4831 15.3286L13.4917 15.3309L13.4887 15.3421C13.4852 15.3554 13.4868 15.366 13.4934 15.3737C13.4975 15.3784 13.5084 15.3831 13.5261 15.3878L13.601 15.4074L13.7562 15.3554C13.7745 15.3492 13.786 15.3448 13.7908 15.3422C13.7957 15.3396 13.8023 15.3332 13.8108 15.3231C13.8132 15.3204 13.8151 15.3161 13.8167 15.3102L13.8253 15.3125L13.7898 15.4478L13.7812 15.4455L13.783 15.4385C13.7849 15.4312 13.785 15.424 13.7832 15.417C13.7814 15.4099 13.7771 15.4055 13.7702 15.4037C13.7646 15.4022 13.7533 15.4043 13.7362 15.41L13.6169 15.4492L13.6982 15.5369C13.7103 15.55 13.72 15.5576 13.7271 15.5594C13.7315 15.5606 13.7357 15.5605 13.7397 15.5591C13.7437 15.5578 13.7472 15.5552 13.7503 15.5516C13.7533 15.5479 13.7559 15.5418 13.7581 15.5334L13.7668 15.5357L13.7668 15.5357Z" fill="black"/>
<path d="M13.0377 15.278C13.0696 15.2699 13.1223 15.2765 13.1223 15.2765C13.1223 15.2765 13.1269 15.2984 13.113 15.3057C13.1284 15.3145 13.1838 15.3118 13.1838 15.3118C13.1838 15.3118 13.1622 15.3283 13.1515 15.3349C13.1715 15.3368 13.1961 15.3625 13.1961 15.3625C13.1961 15.3625 13.1499 15.3702 13.13 15.3595C13.1423 15.3841 13.1407 15.4056 13.1407 15.4056C13.1407 15.4056 13.0662 15.3871 13.0393 15.3379" fill="#96877D"/>
<path d="M13.0377 15.278C13.0696 15.2699 13.1223 15.2765 13.1223 15.2765C13.1223 15.2765 13.1269 15.2984 13.113 15.3057C13.1284 15.3145 13.1838 15.3118 13.1838 15.3118C13.1838 15.3118 13.1622 15.3283 13.1515 15.3349C13.1715 15.3368 13.1961 15.3625 13.1961 15.3625C13.1961 15.3625 13.1499 15.3702 13.13 15.3595C13.1423 15.3841 13.1407 15.4056 13.1407 15.4056C13.1407 15.4056 13.0662 15.3871 13.0393 15.3379" stroke="black" stroke-width="0.01218"/>
<path d="M12.9129 15.2359C12.8948 15.2805 12.7622 15.1975 12.7622 15.1975C12.7622 15.1975 12.8206 15.2901 12.9082 15.3005" fill="#96877D"/>
<path d="M12.9129 15.2359C12.8948 15.2805 12.7622 15.1975 12.7622 15.1975C12.7622 15.1975 12.8206 15.2901 12.9082 15.3005" stroke="black" stroke-width="0.01218"/>
<path d="M11.2576 16.0862H12.8102L12.9301 15.9909L12.7303 15.8833L12.4228 15.7788L12.2998 15.7111L12.0723 15.7234L11.8817 15.8249L11.6203 15.8556L11.5589 15.9263L11.3652 15.9417L11.0608 15.9356L11.5681 16.0155L11.15 15.994L11.2576 16.0862L11.2576 16.0862Z" fill="#96877D" stroke="black" stroke-width="0.01218"/>
<path d="M12.0939 15.6404C11.8995 15.5359 11.8426 15.7934 11.7588 15.8556C11.8718 15.8748 11.9571 15.7688 12.0539 15.7173C12.1274 15.9172 12.243 15.7849 12.243 15.7849C12.243 15.7849 12.3637 15.9763 12.5243 15.8894C12.5682 15.9225 12.6166 15.8925 12.6166 15.8925C12.6166 15.8925 12.675 15.9033 12.6873 15.8771C12.718 15.8879 12.7519 15.8495 12.7519 15.8495C12.7519 15.8495 12.8187 15.8502 12.8318 15.8156C12.931 15.8333 13.0624 15.6127 13.0624 15.6127L13.1024 15.5359L13.1608 15.5236C13.1608 15.5236 13.1646 15.4851 13.1331 15.4867C13.1323 15.4636 13.1123 15.4513 13.0839 15.4559C13.0893 15.4421 13.0685 15.4313 13.0685 15.4313C13.0132 15.4452 13.0101 15.585 13.0101 15.585C13.0101 15.585 12.9133 15.6588 12.8779 15.6773C12.8764 15.5973 12.7426 15.489 12.7703 15.4375C12.798 15.386 12.8848 15.5166 12.9609 15.4928C13.037 15.469 13.0744 15.37 13.0778 15.293C13.0562 15.2407 13.004 15.1546 13.004 15.1546L12.9548 15.1515L12.9117 15.047C12.9117 15.047 12.821 15.1062 12.8226 15.1577C12.8241 15.2092 12.9179 15.253 12.9179 15.253C12.9179 15.253 12.8638 15.2868 12.8133 15.2714C12.8087 15.3237 12.8748 15.3137 12.8994 15.3145C12.9117 15.3522 12.9486 15.3729 12.9486 15.3729C12.9486 15.3729 12.9717 15.4306 12.9117 15.4252C12.8518 15.4198 12.781 15.2817 12.6965 15.3452C12.6066 15.4129 12.7365 15.5359 12.7365 15.5359C12.7365 15.5359 12.6573 15.5774 12.6104 15.6834C12.419 15.522 12.3068 15.5973 12.0939 15.6404L12.0939 15.6404Z" fill="#96877D" stroke="black" stroke-width="0.01218"/>
<path d="M11.8143 15.3668C11.8942 15.4421 11.8385 15.5673 11.8696 15.5912C11.9027 15.6166 11.9496 15.5789 11.9496 15.5789C12.0333 15.6012 12.1832 15.5544 12.1832 15.5544C12.2492 15.5912 12.2232 15.5368 12.2632 15.539C12.2985 15.6297 12.4169 15.6128 12.4169 15.6128C12.4169 15.6128 12.3085 15.5021 12.2417 15.4713C12.1902 15.5021 12.0403 15.5067 12.0141 15.5021C11.985 15.4969 12.0034 15.4613 11.9895 15.4406C12.0447 15.387 12.0011 15.2538 11.9711 15.2039C11.8489 15.1225 11.703 15.2619 11.8143 15.3668L11.8143 15.3668Z" fill="#96877D" stroke="black" stroke-width="0.01218"/>
<path d="M11.2826 15.1417C11.1821 15.1689 11.0076 15.0118 10.9261 15.0722C10.8446 15.1325 10.8826 15.2809 10.937 15.3548C10.9901 15.427 10.8592 15.4532 10.8239 15.4961C10.7907 15.5365 10.8348 15.5831 10.8348 15.5831L10.8717 15.607L10.8652 15.6613L10.8848 15.7266C10.8848 15.7266 10.9027 15.7423 10.9087 15.7222C10.9255 15.739 10.9105 15.7878 10.9522 15.7939C10.9372 15.7627 10.963 15.6765 10.963 15.6765C10.963 15.6765 11.0359 15.682 11.0544 15.6505C11.0728 15.6189 11.037 15.5505 11.037 15.5505H11.0587C11.0342 15.5336 11.0261 15.4831 11.0261 15.4831C11.0261 15.4831 11.1272 15.451 11.1261 15.3744C11.125 15.2977 10.962 15.2162 11.0217 15.1765C11.0881 15.1325 11.2033 15.2907 11.3022 15.2178C11.4001 15.1458 11.337 15.2157 11.337 15.2157C11.337 15.2157 11.3817 15.115 11.2826 15.1417L11.2826 15.1417Z" fill="#96877D" stroke="black" stroke-width="0.01218"/>
<path d="M11.8017 14.0649C11.6672 14.0088 11.3924 14.0053 11.2391 13.9296C11.1718 13.9338 11.1418 13.9869 11.1392 14.008C11.0688 14.0045 11.0212 14.1152 11.0315 14.1371C10.9036 14.0852 10.844 14.2878 10.8855 14.3293C10.7764 14.3339 10.7898 14.4734 10.7794 14.5122C10.7445 14.5972 10.7872 14.6257 10.8563 14.5952C10.8667 14.6321 10.8521 14.6528 10.8209 14.6598C11.0104 14.8766 11.1175 14.5264 11.2837 14.5276C11.4911 14.4668 11.5727 14.3646 11.5727 14.3646L11.6541 14.3754L11.8017 14.0649L11.8017 14.0649Z" fill="#96877D" stroke="black" stroke-width="0.01218"/>
<path d="M11.9754 14.1079C12.0849 14.1079 12.1737 14.0191 12.1737 13.9096C12.1737 13.8001 12.0849 13.7113 11.9754 13.7113C11.8659 13.7113 11.7771 13.8001 11.7771 13.9096C11.7771 14.0191 11.8659 14.1079 11.9754 14.1079Z" fill="#96877D" stroke="black" stroke-width="0.01218"/>
<path d="M11.6265 15.4712C11.5035 15.4489 11.2998 15.3213 11.2791 15.1545C11.3936 14.7049 11.9844 14.9397 12.0353 14.6015C12.0223 14.3783 12.0623 14.1575 12.186 13.9708C12.2437 13.8978 12.3182 13.8786 12.3182 13.8786C12.3182 13.8786 12.3316 13.9262 12.3121 13.9585C12.4097 13.9477 12.5434 14.0023 12.6349 14.0077C12.6618 14.0623 12.6595 14.0823 12.6533 14.1153C12.6472 14.1484 12.6103 14.1399 12.6103 14.1399C12.5864 14.1625 12.5578 14.1856 12.4935 14.1737C12.445 14.2106 12.3428 14.2198 12.3428 14.2198C12.3428 14.2198 12.5565 14.4451 12.5211 14.515C12.5657 14.5358 12.6318 14.6349 12.6318 14.6349C12.6318 14.6349 12.7779 14.558 12.8255 14.4873C12.9101 14.4873 13.0484 14.5757 13.1176 14.5857C13.2021 14.6541 13.2867 14.7241 13.2867 14.7241C13.2867 14.7241 13.186 14.7902 13.1422 14.7025C13.0891 14.7072 12.9746 14.5803 12.8163 14.6195C12.8117 14.7602 12.6564 14.8593 12.6564 14.8593C12.6564 14.8593 12.8013 14.8391 12.8808 14.887C12.9631 14.9562 13.0838 15.05 13.0838 15.05L13.1914 15.2344C13.1914 15.2344 13.093 15.2513 13.0561 15.1238C13.0192 15.2267 13.0177 15.06 12.8716 14.9823C12.8271 14.9877 12.8048 14.9908 12.7671 14.9608C12.6618 14.9892 12.5373 15.0507 12.3889 15.0346C12.2836 15.0676 12.2068 15.1553 12.0999 15.2037C11.9931 15.2521 11.9616 15.2283 11.9616 15.2283L11.8755 15.2314C11.8631 15.2832 11.8701 15.362 11.8232 15.3759C11.8532 15.4081 11.8017 15.5457 11.7494 15.5696C11.774 15.6579 11.8461 15.685 11.9216 15.7294C11.9216 15.7294 11.9885 15.6987 12.0323 15.7387C12.0761 15.7786 12.1214 15.8924 12.1214 15.8924C12.1214 15.8924 12.0303 15.8985 12.0015 15.8862C11.9728 15.8739 11.97 15.844 11.937 15.8524C11.7287 15.6672 11.6188 15.7409 11.5988 15.6987C11.5782 15.6555 11.648 15.5427 11.6264 15.4712L11.6265 15.4712Z" fill="#96877D" stroke="black" stroke-width="0.01218"/>
<path d="M11.1261 14.6459C11.1369 14.6323 11.213 14.6611 11.213 14.6611L11.3522 14.7481L11.6348 14.9307L11.7348 15.0763L11.5544 15.0177L11.3043 14.8024L11.1696 14.7155C11.1696 14.7155 11.1152 14.6595 11.1261 14.6459L11.1261 14.6459Z" fill="#96877D" stroke="black" stroke-width="0.01218"/>
<path d="M12.7977 15.1088C12.7001 15.0842 12.4595 15.3763 12.4595 15.3763L12.6409 15.5731C12.6409 15.5731 12.6463 15.2379 12.7977 15.1088Z" fill="#96877D" stroke="black" stroke-width="0.01218"/>
<path d="M11.6081 14.2939C11.5549 14.3621 11.5501 14.4996 11.6194 14.5551C11.6259 14.6385 11.6969 14.8069 11.7526 14.8227C11.8136 14.84 12.057 14.8965 12.1523 14.8811C12.1341 15.0356 12.2553 15.1596 12.3675 15.2408C12.3667 15.2547 12.3665 15.2716 12.3795 15.2888C12.3921 15.3054 12.451 15.3084 12.4536 15.2993C12.4798 15.336 12.6065 15.3521 12.6156 15.3358C12.6246 15.3198 12.4293 15.1839 12.386 15.1425C12.3492 15.0738 12.2795 14.9208 12.263 14.7981C12.1672 14.6841 12.0026 14.6864 12.0026 14.6864L12.0078 14.463L12.017 14.2109L11.9279 14.1648C11.9279 14.1648 11.9459 14.1566 11.9556 14.1463C11.9772 14.1556 12.0179 14.1121 12.0232 14.0998C12.0437 14.1071 12.0623 14.107 12.0659 14.096C12.069 14.0863 12.0727 14.0433 12.0802 14.021C12.1474 13.9618 12.0704 13.8362 11.9675 13.8341C11.8657 13.8321 11.8429 13.9555 11.8449 13.9649C11.8544 14.0036 11.8524 14.0232 11.8449 14.0325C11.8372 14.0421 11.8018 14.0633 11.8018 14.0633C11.8018 14.0633 11.745 14.0364 11.6758 14.0633C11.6066 14.0902 11.529 14.1263 11.5251 14.1709C11.4936 14.1755 11.4421 14.2163 11.4329 14.2508C11.4052 14.2455 11.3691 14.2685 11.3099 14.3646C11.2038 14.4115 11.1977 14.6382 11.1977 14.6382C11.1977 14.6382 11.1691 14.6799 11.1677 14.702C11.1664 14.7241 11.1777 14.7443 11.1915 14.7405C11.1931 14.7551 11.2123 14.7681 11.2207 14.7635C11.2238 14.7781 11.2449 14.7863 11.2576 14.7843C11.2588 14.7943 11.2997 14.7918 11.303 14.7827C11.3066 14.7728 11.2989 14.7229 11.3038 14.7189C11.3082 14.7153 11.3422 14.7412 11.3514 14.7343C11.3606 14.7274 11.3497 14.7052 11.3445 14.6966C11.3399 14.689 11.3107 14.6805 11.3038 14.6444C11.2968 14.6083 11.3222 14.5583 11.3222 14.5583C11.3222 14.5583 11.4375 14.4676 11.4506 14.39C11.5374 14.3984 11.5833 14.3225 11.6081 14.2939L11.6081 14.2939Z" fill="#96877D" stroke="black" stroke-width="0.01218"/>
<path d="M11.4075 13.9688C11.4338 13.9044 11.5289 13.9103 11.5289 13.9103C11.5289 13.9103 11.5629 13.8208 11.6911 13.8742C11.7393 13.8369 11.8663 13.8904 11.8663 13.8904C11.8663 13.8904 11.9139 13.827 11.9763 13.8342C12.0917 13.8477 12.111 13.9536 12.1039 13.9718C12.0406 13.9878 11.9311 13.9205 11.8479 13.9395C11.7993 13.967 11.7205 13.996 11.6911 14.0356C11.614 14.0437 11.5318 13.9647 11.4075 13.9688V13.9688Z" fill="#96877D" stroke="black" stroke-width="0.01218"/>
<path d="M11.6481 14.0756C11.6769 14.0579 11.7476 14.0269 11.7956 14.0648C11.846 14.119 11.9232 14.1694 11.9232 14.1694L12.0109 14.2063L12.0508 14.2309L12.0247 14.6321C11.9436 14.5491 11.8676 14.5346 11.8095 14.4369C11.7783 14.395 11.8022 14.2943 11.748 14.2278C11.6938 14.1613 11.6362 14.1163 11.6481 14.0756L11.6481 14.0756Z" fill="#96877D" stroke="black" stroke-width="0.01218"/>
<path d="M11.8588 14.1915C11.8588 14.1915 11.9047 14.1828 11.9175 14.1936C11.9335 14.1991 11.949 14.2037 11.9533 14.2176C11.9707 14.2227 11.9827 14.2317 11.9827 14.2447C11.999 14.2491 12.0055 14.2784 12.0055 14.2784L11.9903 14.3013C11.9903 14.3013 11.9729 14.285 11.9707 14.2676C11.9597 14.2621 11.9354 14.2564 11.9294 14.2404C11.9104 14.2385 11.8982 14.2287 11.8946 14.2121C11.877 14.2162 11.8588 14.1915 11.8588 14.1915V14.1915Z" fill="#96877D" stroke="black" stroke-width="0.01218"/>
<path d="M12.2475 13.9296C12.2214 13.9004 12.1753 13.9219 12.1753 13.9219L12.0523 14.1341L11.9985 14.1786L11.9939 14.3447L12.0385 14.4999L12.0231 14.6198C12.0231 14.6198 12.085 14.5617 12.0923 14.5291C12.0992 14.498 12.0692 14.3969 12.0692 14.3969C12.0692 14.3969 12.0323 14.3339 12.0769 14.2171C12.1215 14.1002 12.223 14.0034 12.2475 13.9296L12.2475 13.9296Z" fill="#96877D" stroke="black" stroke-width="0.01218"/>
<path d="M12.5512 14.1186C12.5512 14.1186 12.3591 14.393 12.0448 14.4907C11.9579 14.5114 11.9894 14.2877 11.9894 14.2877L11.9679 14.2939C11.9679 14.2939 11.9195 14.5129 12.0355 14.5152C12.3515 14.453 12.5885 14.1204 12.5885 14.1204L12.5507 14.1187L12.5512 14.1186Z" fill="#96877D" stroke="black" stroke-width="0.01218"/>
<path d="M12.6813 15.6962C12.6813 15.6962 12.6521 15.7177 12.6136 15.6962C12.5936 15.65 12.5398 15.647 12.5398 15.647C12.5398 15.647 12.5052 15.5474 12.4507 15.5763C12.4422 15.5248 12.383 15.5517 12.383 15.5517C12.383 15.5517 12.3815 15.4771 12.3123 15.4871C12.3354 15.4018 12.217 15.4072 12.217 15.4072C12.217 15.4072 12.2132 15.3111 12.0387 15.3303C12.4146 15.162 12.712 15.5947 12.712 15.5947" fill="#96877D"/>
<path d="M12.6813 15.6962C12.6813 15.6962 12.6521 15.7177 12.6136 15.6962C12.5936 15.65 12.5398 15.647 12.5398 15.647C12.5398 15.647 12.5052 15.5474 12.4507 15.5763C12.4422 15.5248 12.383 15.5517 12.383 15.5517C12.383 15.5517 12.3815 15.4771 12.3123 15.4871C12.3354 15.4018 12.217 15.4072 12.217 15.4072C12.217 15.4072 12.2132 15.3111 12.0387 15.3303C12.4146 15.162 12.712 15.5947 12.712 15.5947" stroke="black" stroke-width="0.01218"/>
<path d="M12.8595 15.7327C12.8595 15.7327 12.9464 15.8304 12.9917 15.8311C13.0371 15.8319 13.0409 15.7358 13.0409 15.7358C13.0409 15.7358 13.0555 15.7773 13.0778 15.7666C13.0755 15.7958 13.1055 15.8035 13.1055 15.8035C13.1055 15.8035 13.0271 15.9856 12.8042 15.8127" fill="#96877D"/>
<path d="M12.8595 15.7327C12.8595 15.7327 12.9464 15.8304 12.9917 15.8311C13.0371 15.8319 13.0409 15.7358 13.0409 15.7358C13.0409 15.7358 13.0555 15.7773 13.0778 15.7666C13.0755 15.7958 13.1055 15.8035 13.1055 15.8035C13.1055 15.8035 13.0271 15.9856 12.8042 15.8127" stroke="black" stroke-width="0.01218"/>
<path d="M12.1797 15.7699L12.1489 15.896C12.1489 15.896 12.1097 15.9314 12.1213 15.939C12.1328 15.9467 12.1951 15.9267 12.1951 15.9267C12.1951 15.9267 12.2919 15.9152 12.3211 15.8868C12.3411 15.9321 12.3857 15.936 12.3857 15.936C12.3857 15.936 12.3887 15.9167 12.3826 15.9052C12.4041 15.9091 12.4226 15.9021 12.4226 15.9021C12.4226 15.9021 12.4349 15.8668 12.4072 15.853C12.4103 15.8268 12.4233 15.8038 12.3765 15.8068C12.3419 15.8437 12.2565 15.886 12.235 15.8714C12.2135 15.8568 12.3196 15.8099 12.2904 15.7484" fill="#96877D"/>
<path d="M12.1797 15.7699L12.1489 15.896C12.1489 15.896 12.1097 15.9314 12.1213 15.939C12.1328 15.9467 12.1951 15.9267 12.1951 15.9267C12.1951 15.9267 12.2919 15.9152 12.3211 15.8868C12.3411 15.9321 12.3857 15.936 12.3857 15.936C12.3857 15.936 12.3887 15.9167 12.3826 15.9052C12.4041 15.9091 12.4226 15.9021 12.4226 15.9021C12.4226 15.9021 12.4349 15.8668 12.4072 15.853C12.4103 15.8268 12.4233 15.8038 12.3765 15.8068C12.3419 15.8437 12.2565 15.886 12.235 15.8714C12.2135 15.8568 12.3196 15.8099 12.2904 15.7484" stroke="black" stroke-width="0.01218"/>
<rect x="27" width="24" height="49" fill="#EE5757"/>
</g>
</svg>
