<svg width="54" height="48" viewBox="0 0 54 48" fill="none" xmlns="http://www.w3.org/2000/svg">
<mask id="mask0_1_41790" style="mask-type:alpha" maskUnits="userSpaceOnUse" x="3" y="6" width="48" height="36">
<path d="M50.4307 32.8644C49.8332 37.5875 45.9585 40.9981 41.2139 41.3911C37.3588 41.7105 32.3804 42 27 42C21.6196 42 16.6412 41.7105 12.7861 41.3911C8.0415 40.9981 4.16681 37.5875 3.56934 32.8644C3.248 30.3241 3 27.296 3 24C3 20.704 3.248 17.6759 3.56934 15.1356C4.16682 10.4125 8.04151 7.00193 12.7861 6.60886C16.6412 6.28948 21.6196 6 27 6C32.3804 6 37.3588 6.28948 41.2139 6.60887C45.9585 7.00193 49.8332 10.4125 50.4307 15.1356C50.752 17.6759 51 20.704 51 24C51 27.296 50.752 30.3241 50.4307 32.8644Z" fill="#00D0BF"/>
</mask>
<g mask="url(#mask0_1_41790)">
<rect x="51" y="48" width="16" height="49" transform="rotate(-180 51 48)" fill="#EE5757"/>
<rect x="35" y="48" width="16" height="49" transform="rotate(-180 35 48)" fill="#3F6FEB"/>
<rect x="19" y="48" width="16" height="49" transform="rotate(-180 19 48)" fill="#EE5757"/>
<path d="M7 26.6369L8.81841 26.6369L8.81841 35.3652L7 35.3652L7 26.6369ZM13.1826 26.6369L15.001 26.6369L15.001 35.3652L13.1826 35.3652L13.1826 26.6369ZM9.18209 34.2742L11.0005 35.3652L12.8189 34.2742L9.18209 34.2742ZM9.18209 33.1832L12.8189 33.1832L12.8189 33.9105L9.18209 33.9105L9.18209 33.1832ZM9.18209 26.6369L11.0005 27.7279L12.8189 26.6369L9.18209 26.6369ZM9.18209 28.0916L12.8189 28.0916L12.8189 28.819L9.18209 28.819L9.18209 28.0916ZM11.8642 29.4028C11.9995 29.5867 12.0727 29.8089 12.073 30.0372C12.0733 30.6297 11.593 31.1103 11.0005 31.1104C10.7738 31.1105 10.5565 31.2005 10.3963 31.3607C10.236 31.521 10.146 31.7383 10.1459 31.965C10.146 32.1916 10.236 32.4089 10.3963 32.5692C10.5565 32.7294 10.7739 32.8194 11.0005 32.8195C12.0047 32.8195 12.8189 32.0053 12.8189 31.0011C12.8189 30.3335 12.4516 29.7199 11.8642 29.4028ZM11.0005 31.6013C11.0969 31.6013 11.1894 31.6396 11.2576 31.7078C11.3258 31.776 11.3642 31.8685 11.3642 31.965C11.3642 32.0614 11.3258 32.1539 11.2576 32.2221C11.1894 32.2903 11.0969 32.3286 11.0005 32.3286C10.904 32.3286 10.8115 32.2903 10.7433 32.2221C10.6751 32.1539 10.6368 32.0614 10.6368 31.965C10.6368 31.8685 10.6751 31.776 10.7433 31.7078C10.8115 31.6396 10.904 31.6013 11.0005 31.6013Z" fill="#FCD95E"/>
<path d="M10.1368 32.5993C10.0015 32.4155 9.92832 32.1932 9.92794 31.965C9.92767 31.3724 10.408 30.8919 11.0005 30.8917C11.2271 30.8917 11.4445 30.8016 11.6047 30.6414C11.765 30.4811 11.855 30.2638 11.8551 30.0372C11.855 29.8105 11.765 29.5932 11.6047 29.433C11.4445 29.2727 11.2271 29.1827 11.0005 29.1827C9.99628 29.1827 9.1821 29.9968 9.1821 31.0011C9.1821 31.6686 9.54935 32.2822 10.1368 32.5993ZM11.0005 30.4009C10.9041 30.4009 10.8116 30.3625 10.7433 30.2943C10.6751 30.2261 10.6368 30.1336 10.6368 30.0372C10.6368 29.9407 10.6751 29.8482 10.7433 29.78C10.8116 29.7118 10.9041 29.6735 11.0005 29.6735C11.097 29.6735 11.1895 29.7118 11.2577 29.78C11.3259 29.8482 11.3642 29.9407 11.3642 30.0372C11.3642 30.1336 11.3259 30.2261 11.2577 30.2943C11.1895 30.3625 11.097 30.4009 11.0005 30.4009ZM9.00388 24.2331C9.00254 24.2464 9.00132 24.2597 9.00024 24.273C9.00024 24.8035 9.21098 25.3122 9.5861 25.6874C9.96122 26.0625 10.47 26.2732 11.0005 26.2732C11.531 26.2732 12.0398 26.0625 12.4149 25.6874C12.79 25.3122 13.0007 24.8035 13.0007 24.273C13.0009 24.2608 13.0009 24.2487 13.0007 24.2366C12.831 24.6255 12.5514 24.9565 12.1964 25.189C11.8414 25.4216 11.4263 25.5455 11.0019 25.5457C10.5773 25.5451 10.162 25.4205 9.80709 25.1874C9.45218 24.9542 9.17301 24.6225 9.00381 24.233L9.00388 24.2331Z" fill="#FCD95E"/>
<path d="M11.002 25.1821C11.8054 25.1821 12.4567 24.5308 12.4567 23.7274C12.4567 22.924 11.8054 22.2727 11.002 22.2727C10.1985 22.2727 9.54724 22.924 9.54724 23.7274C9.54724 24.5308 10.1985 25.1821 11.002 25.1821Z" fill="#FCD95E"/>
<path d="M11.1533 19C10.9726 19.082 10.9051 19.2299 10.8905 19.3772C10.8814 19.5012 10.9362 19.6409 10.9416 19.7622C10.9416 19.9709 10.7257 20.0396 10.7257 20.3375C10.7257 20.4399 10.8202 20.5527 10.8202 20.8184C10.8038 20.9579 10.726 20.9894 10.6384 21.0003C10.5901 21.0003 10.5439 20.9811 10.5098 20.947C10.4757 20.9129 10.4565 20.8666 10.4565 20.8184C10.4567 20.7718 10.4747 20.727 10.5069 20.6933C10.5126 20.6868 10.5188 20.6807 10.5254 20.6751C10.5669 20.6333 10.6238 20.6171 10.6235 20.5067C10.6235 20.45 10.5867 20.3984 10.5516 20.2979C10.5185 20.2005 10.5425 20.0375 10.6213 19.9413C10.494 19.9904 10.4155 20.1124 10.3755 20.2219C10.3333 20.3565 10.3701 20.434 10.3123 20.5458C10.277 20.6182 10.235 20.6482 10.1951 20.7086C10.1481 20.7744 10.0928 20.9283 10.0928 20.9998C10.0928 21.1192 10.1163 21.2374 10.162 21.3477C10.2077 21.458 10.2746 21.5583 10.3591 21.6427C10.4435 21.7271 10.5437 21.7941 10.654 21.8398C10.7643 21.8855 10.8826 21.909 11.002 21.909C11.2431 21.909 11.4744 21.8132 11.6449 21.6427C11.8154 21.4722 11.9112 21.2409 11.9112 20.9998C11.9112 20.9283 11.8566 20.7744 11.8095 20.7086C11.7697 20.6482 11.727 20.6182 11.6917 20.5458C11.6346 20.434 11.6713 20.3565 11.6291 20.2219C11.5891 20.1124 11.5106 19.9905 11.3834 19.9413C11.4621 20.0375 11.4861 20.2005 11.453 20.2979C11.4177 20.3983 11.3806 20.4499 11.3806 20.5067C11.3806 20.6171 11.4372 20.6333 11.4787 20.6751C11.4853 20.6807 11.4915 20.6868 11.4972 20.6933C11.5294 20.727 11.5474 20.7718 11.5476 20.8184C11.5476 20.8666 11.5284 20.9129 11.4943 20.947C11.4602 20.9811 11.414 21.0003 11.3657 21.0003C11.2652 20.9875 11.193 20.9406 11.1839 20.8184C11.1839 20.4683 11.3337 20.446 11.3337 20.187C11.3337 19.8171 11.002 19.6419 11.002 19.3715C11.002 19.2799 11.0235 19.1237 11.1533 19L11.1533 19Z" fill="#FCD95E"/>
</g>
</svg>
