<svg width="54" height="54" viewBox="0 0 54 54" fill="none" xmlns="http://www.w3.org/2000/svg">
<mask id="mask0_1_41790" style="mask-type:alpha" maskUnits="userSpaceOnUse" x="3" y="9" width="48" height="36">
<path d="M50.4307 35.8644C49.8332 40.5875 45.9585 43.9981 41.2139 44.3911C37.3588 44.7105 32.3804 45 27 45C21.6196 45 16.6412 44.7105 12.7861 44.3911C8.04151 43.9981 4.16681 40.5875 3.56934 35.8644C3.248 33.3241 3 30.296 3 27C3 23.704 3.248 20.6759 3.56934 18.1356C4.16682 13.4125 8.04151 10.0019 12.7861 9.60887C16.6412 9.28948 21.6196 9 27 9C32.3804 9 37.3588 9.28949 41.2139 9.60887C45.9585 10.0019 49.8332 13.4125 50.4307 18.1356C50.752 20.6759 51 23.704 51 27C51 30.296 50.752 33.3241 50.4307 35.8644Z" fill="#00D0BF"/>
</mask>
<g mask="url(#mask0_1_41790)">
<rect x="51" y="51" width="16" height="49" transform="rotate(-180 51 51)" fill="#EE5757"/>
<rect x="35" y="51" width="16" height="49" transform="rotate(-180 35 51)" fill="#3F6FEB"/>
<rect x="19" y="51" width="16" height="49" transform="rotate(-180 19 51)" fill="#EE5757"/>
<path d="M7 29.6369L8.81841 29.6369L8.81841 38.3652L7 38.3652L7 29.6369ZM13.1826 29.6369L15.001 29.6369L15.001 38.3652L13.1826 38.3652L13.1826 29.6369ZM9.18209 37.2742L11.0005 38.3652L12.8189 37.2742L9.18209 37.2742ZM9.18209 36.1832L12.8189 36.1832L12.8189 36.9105L9.18209 36.9105L9.18209 36.1832ZM9.18209 29.6369L11.0005 30.7279L12.8189 29.6369L9.18209 29.6369ZM9.18209 31.0916L12.8189 31.0916L12.8189 31.819L9.18209 31.819L9.18209 31.0916ZM11.8642 32.4028C11.9995 32.5867 12.0727 32.8089 12.073 33.0372C12.0733 33.6297 11.593 34.1103 11.0005 34.1104C10.7738 34.1105 10.5565 34.2005 10.3963 34.3607C10.236 34.521 10.146 34.7383 10.1459 34.965C10.146 35.1916 10.236 35.4089 10.3963 35.5692C10.5565 35.7294 10.7739 35.8194 11.0005 35.8195C12.0047 35.8195 12.8189 35.0053 12.8189 34.0011C12.8189 33.3335 12.4516 32.7199 11.8642 32.4028ZM11.0005 34.6013C11.0969 34.6013 11.1894 34.6396 11.2576 34.7078C11.3258 34.776 11.3642 34.8685 11.3642 34.965C11.3642 35.0614 11.3258 35.1539 11.2576 35.2221C11.1894 35.2903 11.0969 35.3286 11.0005 35.3286C10.904 35.3286 10.8115 35.2903 10.7433 35.2221C10.6751 35.1539 10.6368 35.0614 10.6368 34.965C10.6368 34.8685 10.6751 34.776 10.7433 34.7078C10.8115 34.6396 10.904 34.6013 11.0005 34.6013Z" fill="#FCD95E"/>
<path d="M10.1368 35.5993C10.0015 35.4155 9.92832 35.1932 9.92794 34.965C9.92767 34.3724 10.408 33.8919 11.0005 33.8917C11.2271 33.8917 11.4445 33.8016 11.6047 33.6414C11.765 33.4811 11.855 33.2638 11.8551 33.0372C11.855 32.8105 11.765 32.5932 11.6047 32.433C11.4445 32.2727 11.2271 32.1827 11.0005 32.1827C9.99628 32.1827 9.1821 32.9968 9.1821 34.0011C9.1821 34.6686 9.54935 35.2822 10.1368 35.5993ZM11.0005 33.4009C10.9041 33.4009 10.8116 33.3625 10.7433 33.2943C10.6751 33.2261 10.6368 33.1336 10.6368 33.0372C10.6368 32.9407 10.6751 32.8482 10.7433 32.78C10.8116 32.7118 10.9041 32.6735 11.0005 32.6735C11.097 32.6735 11.1895 32.7118 11.2577 32.78C11.3259 32.8482 11.3642 32.9407 11.3642 33.0372C11.3642 33.1336 11.3259 33.2261 11.2577 33.2943C11.1895 33.3625 11.097 33.4009 11.0005 33.4009ZM9.00388 27.2331C9.00254 27.2464 9.00132 27.2597 9.00024 27.273C9.00024 27.8035 9.21098 28.3122 9.5861 28.6874C9.96122 29.0625 10.47 29.2732 11.0005 29.2732C11.531 29.2732 12.0398 29.0625 12.4149 28.6874C12.79 28.3122 13.0007 27.8035 13.0007 27.273C13.0009 27.2608 13.0009 27.2487 13.0007 27.2366C12.831 27.6255 12.5514 27.9565 12.1964 28.189C11.8414 28.4216 11.4263 28.5455 11.0019 28.5457C10.5773 28.5451 10.162 28.4205 9.80709 28.1874C9.45218 27.9542 9.17301 27.6225 9.00381 27.233L9.00388 27.2331Z" fill="#FCD95E"/>
<path d="M11.002 28.1821C11.8054 28.1821 12.4567 27.5308 12.4567 26.7274C12.4567 25.924 11.8054 25.2727 11.002 25.2727C10.1985 25.2727 9.54724 25.924 9.54724 26.7274C9.54724 27.5308 10.1985 28.1821 11.002 28.1821Z" fill="#FCD95E"/>
<path d="M11.1533 22C10.9726 22.082 10.9051 22.2299 10.8905 22.3772C10.8814 22.5012 10.9362 22.6409 10.9416 22.7622C10.9416 22.9709 10.7257 23.0396 10.7257 23.3375C10.7257 23.4399 10.8202 23.5527 10.8202 23.8184C10.8038 23.9579 10.726 23.9894 10.6384 24.0003C10.5901 24.0003 10.5439 23.9811 10.5098 23.947C10.4757 23.9129 10.4565 23.8666 10.4565 23.8184C10.4567 23.7718 10.4747 23.727 10.5069 23.6933C10.5126 23.6868 10.5188 23.6807 10.5254 23.6751C10.5669 23.6333 10.6238 23.6171 10.6235 23.5067C10.6235 23.45 10.5867 23.3984 10.5516 23.2979C10.5185 23.2005 10.5425 23.0375 10.6213 22.9413C10.494 22.9904 10.4155 23.1124 10.3755 23.2219C10.3333 23.3565 10.3701 23.434 10.3123 23.5458C10.277 23.6182 10.235 23.6482 10.1951 23.7086C10.1481 23.7744 10.0928 23.9283 10.0928 23.9998C10.0928 24.1192 10.1163 24.2374 10.162 24.3477C10.2077 24.458 10.2746 24.5583 10.3591 24.6427C10.4435 24.7271 10.5437 24.7941 10.654 24.8398C10.7643 24.8855 10.8826 24.909 11.002 24.909C11.2431 24.909 11.4744 24.8132 11.6449 24.6427C11.8154 24.4722 11.9112 24.2409 11.9112 23.9998C11.9112 23.9283 11.8566 23.7744 11.8095 23.7086C11.7697 23.6482 11.727 23.6182 11.6917 23.5458C11.6346 23.434 11.6713 23.3565 11.6291 23.2219C11.5891 23.1124 11.5106 22.9905 11.3834 22.9413C11.4621 23.0375 11.4861 23.2005 11.453 23.2979C11.4177 23.3983 11.3806 23.4499 11.3806 23.5067C11.3806 23.6171 11.4372 23.6333 11.4787 23.6751C11.4853 23.6807 11.4915 23.6868 11.4972 23.6933C11.5294 23.727 11.5474 23.7718 11.5476 23.8184C11.5476 23.8666 11.5284 23.9129 11.4943 23.947C11.4602 23.9811 11.414 24.0003 11.3657 24.0003C11.2652 23.9875 11.193 23.9406 11.1839 23.8184C11.1839 23.4683 11.3337 23.446 11.3337 23.187C11.3337 22.8171 11.002 22.6419 11.002 22.3715C11.002 22.2799 11.0235 22.1237 11.1533 22L11.1533 22Z" fill="#FCD95E"/>
</g>
</svg>
