<svg width="54" height="48" viewBox="0 0 54 48" fill="none" xmlns="http://www.w3.org/2000/svg">
<mask id="mask0_1_40039" style="mask-type:alpha" maskUnits="userSpaceOnUse" x="3" y="6" width="48" height="36">
<path d="M3.56934 15.1356C4.16681 10.4125 8.0415 7.00193 12.7861 6.60887C16.6412 6.28949 21.6196 6 27 6C32.3804 6 37.3588 6.28949 41.2139 6.60887C45.9585 7.00193 49.8332 10.4125 50.4307 15.1356C50.752 17.6759 51 20.704 51 24C51 27.296 50.752 30.3241 50.4307 32.8644C49.8332 37.5875 45.9585 40.9981 41.2139 41.3911C37.3588 41.7105 32.3804 42 27 42C21.6196 42 16.6412 41.7105 12.7861 41.3911C8.0415 40.9981 4.16681 37.5875 3.56934 32.8644C3.248 30.3241 3 27.296 3 24C3 20.704 3.248 17.6759 3.56934 15.1356Z" fill="#00D0BF"/>
</mask>
<g mask="url(#mask0_1_40039)">
<rect x="3" y="6" width="48" height="12" fill="#1C6864"/>
<rect x="3" y="30" width="48" height="12" fill="#FCD95E"/>
<rect x="2" y="18" width="50" height="12" fill="#2C2929" stroke="#F5F5F5" stroke-width="2"/>
<path d="M28 24L2 6V42L28 24Z" fill="#EE5757"/>
<path d="M15.3728 28.9711L11.8435 26.3871L8.31905 28.9718L9.68592 24.8168L6.13862 22.2636L10.5127 22.2796L11.8448 18.1169L13.1812 22.2818L17.5518 22.2624L14.0037 24.8204L15.3728 28.9711Z" fill="#FCD95E"/>
<path fill-rule="evenodd" clip-rule="evenodd" d="M8.7804 26.0737H11.3228C11.5274 26.3032 11.9838 26.3968 12.4185 26.0709C13.2154 25.6346 14.757 26.0737 14.757 26.0737L15.0606 25.7512L14.3206 23.3226L14.055 23.038C14.055 23.038 13.4858 22.6965 12.4043 22.8103C11.3228 22.9241 10.9433 22.7724 10.9433 22.7724C10.9433 22.7724 9.99469 22.8862 9.72906 23.019C9.69986 23.0426 9.42549 23.3226 9.42549 23.3226L8.7804 26.0737Z" fill="white" stroke="#2C2929" stroke-width="0.0759677" stroke-linecap="round" stroke-linejoin="round"/>
<path d="M9.29266 25.4475C9.29266 25.4475 11.7212 25.144 12.4233 26.0736C12.0268 26.3449 11.6777 26.3673 11.3038 26.0927C11.3634 25.9934 12.1766 25.144 14.2447 25.4286" stroke="#2C2929" stroke-width="0.0759677" stroke-linecap="round" stroke-linejoin="round"/>
<path d="M11.892 23.019L11.8731 25.6943L11.892 23.019ZM14.055 23.0569L14.5104 25.1819L14.055 23.0569ZM9.75412 23.0236L9.5014 24.1194L9.75412 23.0236Z" fill="#2C2929"/>
<path d="M9.75412 23.0236L9.5014 24.1194M11.892 23.019L11.8731 25.6943L11.892 23.019ZM14.055 23.0569L14.5104 25.1819L14.055 23.0569Z" stroke="#2C2929" stroke-width="0.0759677" stroke-linecap="round" stroke-linejoin="round"/>
<path fill-rule="evenodd" clip-rule="evenodd" d="M7.12915 26.365L7.72706 27.066C7.79727 27.1079 7.85964 27.1052 7.922 27.066L8.80812 26.0027L9.18029 25.5419C9.23792 25.4736 9.25631 25.3975 9.25118 25.3292L9.96268 24.697C10.0209 24.701 10.0556 24.7076 10.1138 24.7115C10.045 24.6937 9.99454 24.6602 10.0487 24.5849L10.2082 24.4608L10.3322 24.6203C10.3322 24.6203 10.155 24.8507 10.1373 24.8507C10.1196 24.8507 9.94235 24.8507 9.94235 24.8507L9.57018 25.1875L9.73287 25.3313L9.97779 26.0027L10.2791 25.79L10.0841 25.0989L10.5095 24.6381L10.35 24.3899L10.4563 24.2481C10.4563 24.2481 11.9284 25.1749 12.4955 24.9269C12.5108 24.9324 12.5298 24.2659 12.5298 24.2659C12.5298 24.2659 11.0057 24.1064 10.9702 23.8051C10.9348 23.5038 11.307 23.4684 11.307 23.4684L11.1474 23.238L11.1829 23.1139L11.4488 23.4507L12.0513 22.9367L15.5957 26.9774C15.7892 26.8989 15.8306 26.8516 15.8439 26.6584C15.8389 26.6535 12.3703 22.6709 12.3703 22.6709L12.6362 22.3874C12.6885 22.3283 12.707 22.3032 12.707 22.2101L13.1146 21.8557C13.2372 21.8978 13.3154 21.9712 13.3805 22.0683L14.5011 21.1186C14.5306 21.1481 14.6203 21.1777 14.6812 21.1444L16.5339 19.3661L14.5147 20.7923L14.4438 20.7391C14.4438 20.6801 14.5171 20.6655 14.4438 20.5619C14.3654 20.4678 14.2489 20.6505 14.2312 20.6505C14.2134 20.6505 13.9389 20.5535 13.8787 20.4306L13.859 20.7569L13.345 21.2354L12.9552 21.2177L12.388 21.767L12.3172 21.9797L12.4058 22.157C12.4058 22.157 12.1044 22.4228 12.1044 22.405C12.1044 22.3874 12.0435 22.3267 12.0409 22.3189L12.2994 22.086L12.3348 21.9265L12.2486 21.7919C12.2225 21.8109 11.8918 22.157 11.874 22.1215C11.8445 22.0884 10.9171 21.0404 10.9171 21.0404L10.9702 20.8455L10.3677 20.1898C10.148 20.1139 9.80057 20.1011 9.72968 20.5796C9.67448 20.692 9.21573 20.5974 9.21573 20.5974L8.96762 20.6505L7.56756 22.6354L8.34734 23.5747L9.94235 21.5544L9.9897 20.982L10.3244 21.3562C10.4359 21.3706 10.5422 21.3718 10.6434 21.3208L11.5883 22.3756L11.431 22.5291C11.4842 22.5882 11.5208 22.6259 11.5739 22.685C11.6271 22.6495 11.6779 22.607 11.731 22.5715C11.7488 22.5952 11.7783 22.6401 11.7961 22.6638C11.7169 22.7068 11.6613 22.7642 11.5821 22.8073C11.4554 22.7247 11.3331 22.6219 11.3424 22.4582L10.8107 22.9013L10.793 22.9899L9.21573 24.3013L9.07395 24.3191L9.03851 24.7267L10.0664 23.876V23.7519L10.1727 23.8405L10.9702 23.2026C10.9702 23.2026 11.0234 23.2734 11.0057 23.2734C10.988 23.2734 10.2968 23.9115 10.2968 23.9115L10.2791 23.9823L10.155 24.0887L10.0841 24.0355L9.12712 24.8861H8.98534L8.45367 25.4179C8.31654 25.4298 8.19772 25.4443 8.08151 25.5242L7.12915 26.365Z" fill="#2C2929" stroke="#2C2929" stroke-width="0.0759677" stroke-linecap="round" stroke-linejoin="round"/>
</g>
</svg>
