<svg width="54" height="54" viewBox="0 0 54 54" fill="none" xmlns="http://www.w3.org/2000/svg">
<mask id="mask0_1_40039" style="mask-type:alpha" maskUnits="userSpaceOnUse" x="3" y="9" width="48" height="36">
<path d="M3.56934 18.1356C4.16681 13.4125 8.0415 10.0019 12.7861 9.60887C16.6412 9.28949 21.6196 9 27 9C32.3804 9 37.3588 9.28949 41.2139 9.60887C45.9585 10.0019 49.8332 13.4125 50.4307 18.1356C50.752 20.6759 51 23.704 51 27C51 30.296 50.752 33.3241 50.4307 35.8644C49.8332 40.5875 45.9585 43.9981 41.2139 44.3911C37.3588 44.7105 32.3804 45 27 45C21.6196 45 16.6412 44.7105 12.7861 44.3911C8.04151 43.9981 4.16681 40.5875 3.56934 35.8644C3.248 33.3241 3 30.296 3 27C3 23.704 3.248 20.6759 3.56934 18.1356Z" fill="#00D0BF"/>
</mask>
<g mask="url(#mask0_1_40039)">
<rect x="3" y="9" width="48" height="12" fill="#1C6864"/>
<rect x="3" y="33" width="48" height="12" fill="#FCD95E"/>
<rect x="2" y="21" width="50" height="12" fill="#2C2929" stroke="#F5F5F5" stroke-width="2"/>
<path d="M28 27L2 9V45L28 27Z" fill="#EE5757"/>
<path d="M15.3728 31.9711L11.8435 29.3871L8.31905 31.9718L9.68592 27.8168L6.13862 25.2636L10.5127 25.2796L11.8448 21.1169L13.1812 25.2818L17.5518 25.2624L14.0037 27.8204L15.3728 31.9711Z" fill="#FCD95E"/>
<path fill-rule="evenodd" clip-rule="evenodd" d="M8.7804 29.0737H11.3228C11.5274 29.3032 11.9838 29.3968 12.4185 29.0709C13.2154 28.6346 14.757 29.0737 14.757 29.0737L15.0606 28.7512L14.3206 26.3226L14.055 26.038C14.055 26.038 13.4858 25.6965 12.4043 25.8103C11.3228 25.9241 10.9433 25.7724 10.9433 25.7724C10.9433 25.7724 9.99469 25.8862 9.72906 26.019C9.69986 26.0426 9.42549 26.3226 9.42549 26.3226L8.7804 29.0737Z" fill="white" stroke="#2C2929" stroke-width="0.0759677" stroke-linecap="round" stroke-linejoin="round"/>
<path d="M9.29266 28.4475C9.29266 28.4475 11.7212 28.144 12.4233 29.0736C12.0268 29.3449 11.6777 29.3673 11.3038 29.0927C11.3634 28.9934 12.1766 28.144 14.2447 28.4286" stroke="#2C2929" stroke-width="0.0759677" stroke-linecap="round" stroke-linejoin="round"/>
<path d="M11.892 26.019L11.8731 28.6943L11.892 26.019ZM14.055 26.0569L14.5104 28.1819L14.055 26.0569ZM9.75412 26.0236L9.5014 27.1194Z" fill="#2C2929"/>
<path d="M9.75412 26.0236L9.5014 27.1194M11.892 26.019L11.8731 28.6943L11.892 26.019ZM14.055 26.0569L14.5104 28.1819L14.055 26.0569Z" stroke="#2C2929" stroke-width="0.0759677" stroke-linecap="round" stroke-linejoin="round"/>
<path fill-rule="evenodd" clip-rule="evenodd" d="M7.12915 29.365L7.72706 30.066C7.79727 30.1079 7.85964 30.1052 7.922 30.066L8.80812 29.0027L9.18029 28.5419C9.23792 28.4736 9.25631 28.3975 9.25118 28.3293L9.96268 27.697C10.0209 27.701 10.0556 27.7076 10.1138 27.7115C10.045 27.6937 9.99454 27.6602 10.0487 27.5849L10.2082 27.4608L10.3322 27.6203C10.3322 27.6203 10.155 27.8507 10.1373 27.8507C10.1196 27.8507 9.94235 27.8507 9.94235 27.8507L9.57018 28.1875L9.73287 28.3313L9.97779 29.0027L10.2791 28.79L10.0841 28.0989L10.5095 27.6381L10.35 27.3899L10.4563 27.2481C10.4563 27.2481 11.9284 28.1749 12.4955 27.9269C12.5108 27.9324 12.5298 27.2659 12.5298 27.2659C12.5298 27.2659 11.0057 27.1064 10.9702 26.8051C10.9348 26.5038 11.307 26.4684 11.307 26.4684L11.1474 26.238L11.1829 26.1139L11.4488 26.4507L12.0513 25.9367L15.5957 29.9774C15.7892 29.8989 15.8306 29.8516 15.8439 29.6584C15.8389 29.6535 12.3703 25.6709 12.3703 25.6709L12.6362 25.3874C12.6885 25.3283 12.707 25.3032 12.707 25.2101L13.1146 24.8557C13.2372 24.8978 13.3154 24.9712 13.3805 25.0683L14.5011 24.1186C14.5306 24.1481 14.6203 24.1777 14.6812 24.1444L16.5339 22.3661L14.5147 23.7923L14.4438 23.7391C14.4438 23.6801 14.5171 23.6655 14.4438 23.5619C14.3654 23.4678 14.2489 23.6505 14.2312 23.6505C14.2134 23.6505 13.9389 23.5535 13.8787 23.4306L13.859 23.7569L13.345 24.2354L12.9552 24.2177L12.388 24.767L12.3172 24.9797L12.4058 25.157C12.4058 25.157 12.1044 25.4228 12.1044 25.405C12.1044 25.3874 12.0435 25.3267 12.0409 25.3189L12.2994 25.086L12.3348 24.9265L12.2486 24.7919C12.2225 24.8109 11.8918 25.157 11.874 25.1215C11.8445 25.0884 10.9171 24.0404 10.9171 24.0404L10.9702 23.8455L10.3677 23.1898C10.148 23.1139 9.80057 23.1011 9.72968 23.5796C9.67448 23.692 9.21573 23.5974 9.21573 23.5974L8.96762 23.6505L7.56756 25.6354L8.34734 26.5747L9.94235 24.5544L9.9897 23.982L10.3244 24.3562C10.4359 24.3706 10.5422 24.3718 10.6434 24.3208L11.5883 25.3756L11.431 25.5291C11.4842 25.5882 11.5208 25.6259 11.5739 25.685C11.6271 25.6495 11.6779 25.607 11.731 25.5715C11.7488 25.5952 11.7783 25.6401 11.7961 25.6638C11.7169 25.7068 11.6613 25.7642 11.5822 25.8073C11.4554 25.7247 11.3331 25.6219 11.3424 25.4582L10.8107 25.9013L10.793 25.9899L9.21573 27.3013L9.07395 27.3191L9.03851 27.7267L10.0664 26.876V26.7519L10.1727 26.8405L10.9702 26.2026C10.9702 26.2026 11.0234 26.2734 11.0057 26.2734C10.988 26.2734 10.2968 26.9115 10.2968 26.9115L10.2791 26.9823L10.155 27.0887L10.0841 27.0355L9.12712 27.8861H8.98534L8.45367 28.4179C8.31654 28.4298 8.19772 28.4443 8.08151 28.5242L7.12915 29.365Z" fill="#2C2929" stroke="#2C2929" stroke-width="0.0759677" stroke-linecap="round" stroke-linejoin="round"/>
</g>
</svg>
