<svg width="54" height="48" viewBox="0 0 54 48" fill="none" xmlns="http://www.w3.org/2000/svg">
<mask id="mask0_1_41541" style="mask-type:alpha" maskUnits="userSpaceOnUse" x="3" y="6" width="48" height="36">
<path d="M3.56934 15.1356C4.16681 10.4125 8.0415 7.00193 12.7861 6.60887C16.6412 6.28949 21.6196 6 27 6C32.3804 6 37.3588 6.28949 41.2139 6.60887C45.9585 7.00193 49.8332 10.4125 50.4307 15.1356C50.752 17.6759 51 20.704 51 24C51 27.296 50.752 30.3241 50.4307 32.8644C49.8332 37.5875 45.9585 40.9981 41.2139 41.3911C37.3588 41.7105 32.3804 42 27 42C21.6196 42 16.6412 41.7105 12.7861 41.3911C8.0415 40.9981 4.16681 37.5875 3.56934 32.8644C3.248 30.3241 3 27.296 3 24C3 20.704 3.248 17.6759 3.56934 15.1356Z" fill="#00D0BF"/>
</mask>
<g mask="url(#mask0_1_41541)">
<rect x="51" y="42" width="48" height="36" transform="rotate(-180 51 42)" fill="#EE5757"/>
<rect x="51" y="34" width="48" height="20" transform="rotate(-180 51 34)" fill="#59C785"/>
<path d="M27 17L27.8981 19.7639H30.8042L28.4531 21.4721L29.3511 24.2361L27 22.5279L24.6489 24.2361L25.5469 21.4721L23.1958 19.7639H26.1019L27 17Z" fill="#FCD95E"/>
<path fill-rule="evenodd" clip-rule="evenodd" d="M18.1579 22.25C18.9478 25.1721 22.6062 27.3816 27 27.3816C31.3938 27.3816 35.0522 25.1721 35.8421 22.25C35.9457 22.6336 36 23.0295 36 23.4342C36 26.9223 31.9706 29.75 27 29.75C22.0294 29.75 18 26.9223 18 23.4342C18 23.0295 18.0543 22.6336 18.1579 22.25Z" fill="#FCD95E"/>
</g>
</svg>
