<svg width="54" height="54" viewBox="0 0 54 54" fill="none" xmlns="http://www.w3.org/2000/svg">
<mask id="mask0_1_41541" style="mask-type:alpha" maskUnits="userSpaceOnUse" x="3" y="9" width="48" height="36">
<path d="M3.56934 18.1356C4.16681 13.4125 8.0415 10.0019 12.7861 9.60887C16.6412 9.28949 21.6196 9 27 9C32.3804 9 37.3588 9.28949 41.2139 9.60887C45.9585 10.0019 49.8332 13.4125 50.4307 18.1356C50.752 20.6759 51 23.704 51 27C51 30.296 50.752 33.3241 50.4307 35.8644C49.8332 40.5875 45.9585 43.9981 41.2139 44.3911C37.3588 44.7105 32.3804 45 27 45C21.6196 45 16.6412 44.7105 12.7861 44.3911C8.04151 43.9981 4.16681 40.5875 3.56934 35.8644C3.248 33.3241 3 30.296 3 27C3 23.704 3.248 20.6759 3.56934 18.1356Z" fill="#00D0BF"/>
</mask>
<g mask="url(#mask0_1_41541)">
<rect x="51" y="45" width="48" height="36" transform="rotate(-180 51 45)" fill="#EE5757"/>
<rect x="51" y="37" width="48" height="20" transform="rotate(-180 51 37)" fill="#59C785"/>
<path d="M27 20L27.8981 22.7639H30.8042L28.4531 24.4721L29.3511 27.2361L27 25.5279L24.6489 27.2361L25.5469 24.4721L23.1958 22.7639H26.1019L27 20Z" fill="#FCD95E"/>
<path fill-rule="evenodd" clip-rule="evenodd" d="M18.1579 25.25C18.9478 28.1721 22.6062 30.3816 27 30.3816C31.3938 30.3816 35.0522 28.1721 35.8421 25.25C35.9457 25.6336 36 26.0295 36 26.4342C36 29.9223 31.9706 32.75 27 32.75C22.0294 32.75 18 29.9223 18 26.4342C18 26.0295 18.0543 25.6336 18.1579 25.25Z" fill="#FCD95E"/>
</g>
</svg>
