<svg width="54" height="48" viewBox="0 0 54 48" fill="none" xmlns="http://www.w3.org/2000/svg">
<mask id="mask0_1_39933" style="mask-type:alpha" maskUnits="userSpaceOnUse" x="3" y="6" width="48" height="36">
<path d="M3.56934 15.1356C4.16681 10.4125 8.0415 7.00193 12.7861 6.60887C16.6412 6.28949 21.6196 6 27 6C32.3804 6 37.3588 6.28949 41.2139 6.60887C45.9585 7.00193 49.8332 10.4125 50.4307 15.1356C50.752 17.6759 51 20.704 51 24C51 27.296 50.752 30.3241 50.4307 32.8644C49.8332 37.5875 45.9585 40.9981 41.2139 41.3911C37.3588 41.7105 32.3804 42 27 42C21.6196 42 16.6412 41.7105 12.7861 41.3911C8.0415 40.9981 4.16681 37.5875 3.56934 32.8644C3.248 30.3241 3 27.296 3 24C3 20.704 3.248 17.6759 3.56934 15.1356Z" fill="#00D0BF"/>
</mask>
<g mask="url(#mask0_1_39933)">
<rect x="3" y="6" width="48" height="36" fill="#2E50A6"/>
<path d="M34.0133 17H45.514L45.5003 25.1835C45.596 28.4733 43.5455 30.5147 39.7727 31.4351C37.0939 30.7698 34.0046 29.3937 34 25.2769L34.0137 17H34.0133Z" fill="white"/>
<path d="M34.2679 17.2467H45.2588L45.2457 25.0885C45.3371 28.2408 43.3776 30.1969 39.772 31.0789C37.2117 30.4415 34.2593 29.1228 34.2549 25.1779L34.268 17.2467H34.2679Z" fill="#00A2BD" stroke="black" stroke-width="0.0811471"/>
<path d="M45.1735 26.0174C44.7736 29.0264 42.4562 30.3412 39.7717 31.039C37.3955 30.4015 34.8391 29.3839 34.3435 26.0325L45.1736 26.0174L45.1735 26.0174Z" fill="#A53D08"/>
<path d="M39.3365 18.7075L39.3212 17.7191L40.1027 17.7268L40.1103 18.7075H42.2478L42.2555 19.4736L40.1103 19.4813L40.0932 28.5167L39.3309 28.5215L39.3212 19.4736L37.1909 19.4813L37.1913 18.6998L39.3365 18.7075Z" fill="black"/>
<path fill-rule="evenodd" clip-rule="evenodd" d="M37.6061 26.3902L39.5627 28.4201C40.2393 27.6764 39.77 24.8968 38.8801 24.3848C38.7734 24.714 38.592 25.1086 38.3992 25.2359C37.975 25.5249 36.9356 25.8629 37.283 26.0793C37.3622 25.9696 37.5695 25.866 37.667 26.1099C37.7828 26.4939 37.2342 26.5183 37.2342 26.5183C37.2342 26.5183 36.8868 26.4755 36.8258 26.122C36.7649 25.7685 37.3434 25.4457 37.3927 25.4211C37.4415 25.4028 38.1973 25.2016 38.3253 24.5311C38.4838 23.8728 38.6484 23.9703 38.6789 23.9581C39.6663 24.0556 40.3124 25.8234 40.349 27.0668C40.3856 28.3103 39.8431 29.1332 39.7456 29.188C39.6481 29.2429 37.3927 26.5122 37.3927 26.5122L37.6061 26.3902L37.6061 26.3902Z" fill="#FF9A08" stroke="black" stroke-width="0.0433202"/>
<path d="M39.0324 24.5006L39.0446 28.164L39.0324 24.5006Z" fill="#FF9A08"/>
<path d="M39.0324 24.5006L39.0446 28.164" stroke="black" stroke-width="0.0433202"/>
<path d="M38.813 24.5677C38.813 24.5738 38.8251 27.8959 38.8251 27.8959L38.813 24.5677Z" fill="#FF9A08"/>
<path d="M38.813 24.5677C38.813 24.5738 38.8251 27.8959 38.8251 27.8959" stroke="black" stroke-width="0.0433202"/>
<path d="M38.5753 25.0492L38.5874 27.6947L38.5753 25.0492Z" fill="#FF9A08"/>
<path d="M38.5753 25.0492L38.5874 27.6947" stroke="black" stroke-width="0.0433202"/>
<path d="M38.3802 25.2382L38.3924 27.4265L38.3802 25.2382Z" fill="#FF9A08"/>
<path d="M38.3802 25.2382L38.3924 27.4265" stroke="black" stroke-width="0.0433202"/>
<path d="M38.173 25.3357V27.1827V25.3357Z" fill="#FF9A08"/>
<path d="M38.173 25.3357V27.1827" stroke="black" stroke-width="0.0433202"/>
<path d="M37.9474 25.4821V26.9449V25.4821Z" fill="#FF9A08"/>
<path d="M37.9474 25.4821V26.9449" stroke="black" stroke-width="0.0433202"/>
<path d="M37.7524 25.5979V26.7194V25.5979Z" fill="#FF9A08"/>
<path d="M37.7524 25.5979V26.7194" stroke="black" stroke-width="0.0433202"/>
<path d="M37.5756 26.6218L39.5932 28.932" stroke="#FFDF00" stroke-width="0.0433202" stroke-linecap="round"/>
<path d="M39.6907 25.1651C39.6907 25.1651 40.6051 27.1644 39.7577 28.8102" stroke="#FFDF00" stroke-width="0.0811471" stroke-linecap="round"/>
<path d="M37.3378 26.2013C37.3378 26.2013 37.4049 26.0245 37.4902 26.0977" stroke="#FFDF00" stroke-width="0.0811471" stroke-linecap="round"/>
<path d="M37.1794 25.6893C37.1794 25.6893 36.8137 26.0123 37.0148 26.2196" stroke="#FFDF00" stroke-width="0.0811471" stroke-linecap="round"/>
<path d="M40.1161 20.6048C40.2516 20.4887 40.3218 20.4176 40.4057 20.4306C40.4896 20.4435 40.6038 20.437 40.6877 20.4112C40.7718 20.3853 41.1881 20.3337 41.3592 20.3918C41.4173 20.3983 41.4947 20.4306 41.614 20.5306C41.7336 20.6306 41.9078 20.805 41.8497 21.2891C41.7917 21.7732 41.8106 21.9803 41.7851 22.2509C41.7401 22.7286 41.6341 23.122 41.4431 23.0901C41.7013 23.542 41.7271 23.9293 41.8948 24.2392C42.0628 24.549 42.166 25.1816 42.1014 25.8659C42.0371 26.5502 41.8563 28.0865 42.3983 29.1194C42.308 29.1839 42.0886 29.1194 41.8948 28.9128C41.7013 28.7062 41.6163 28.713 41.4559 28.8353C40.9654 29.2097 40.506 29.661 39.8294 29.2097C39.6744 29.1064 39.6253 28.9826 39.739 28.6675C40.0229 27.88 40.1609 26.7994 40.1161 26.2919V20.6048V20.6048Z" fill="#008021" stroke="black" stroke-width="0.0178501"/>
<path d="M40.5814 20.1207C40.6169 20.2304 40.6361 20.3724 40.578 20.5015C40.5199 20.6306 40.5072 20.7856 40.6038 20.9728C40.7588 20.7533 40.9784 20.7985 41.1074 20.6694C41.2366 20.5403 41.2624 20.4176 41.3593 20.3918C41.2624 20.3079 41.1139 20.2175 41.1462 19.9722C41.1785 19.7269 41.5205 19.5268 41.2108 19.1524C41.0107 18.9107 40.72 18.9781 40.5942 19.0717C40.535 19.1157 40.4845 19.1782 40.4653 19.2201C40.4457 19.2621 40.4701 19.3576 40.423 19.4138C40.391 19.4525 40.3519 19.491 40.3069 19.5235C40.278 19.5445 40.2598 19.5751 40.2907 19.6107C40.3032 19.6249 40.3258 19.628 40.3508 19.6366C40.3363 19.6657 40.3199 19.6946 40.3037 19.7156C40.2884 19.7353 40.295 19.7541 40.3134 19.7701C40.289 19.8476 40.336 19.856 40.3037 19.9141C40.2757 19.9644 40.2377 20.0238 40.3426 20.0819C40.3715 20.0981 40.5089 20.1299 40.5814 20.1207V20.1207Z" fill="#FFE1CF" stroke="black" stroke-width="0.0178501"/>
<path d="M39.3258 21.4053C39.145 21.4505 38.8546 21.3731 38.635 21.3988C38.5381 21.4103 38.4607 21.3601 38.4737 21.2633C38.4865 21.1665 38.4995 21.018 38.48 20.8824C38.4499 20.6712 38.5511 20.3789 38.6931 20.0561C38.835 19.7334 38.9061 19.5527 38.9061 19.4009C38.9061 19.3009 38.9158 19.1879 39.0062 19.1298C39.073 19.0869 39.0858 19.0452 39.1096 19.0104C39.1643 18.9297 39.2159 18.9104 39.2224 18.9588C39.2263 18.9876 39.2159 19.0136 39.1901 19.0524C39.2482 19.004 39.3468 18.9474 39.3692 18.9313C39.3918 18.9152 39.5066 18.8345 39.5128 18.9104C39.5582 18.8878 39.5888 18.8894 39.6001 18.9136C39.6123 18.9397 39.6049 18.9507 39.5823 18.9701C39.6146 18.9636 39.6517 19.0201 39.5871 19.0701C39.6211 19.0588 39.6548 19.1153 39.5953 19.1669C39.5335 19.2202 39.463 19.2573 39.4403 19.2993C39.4176 19.3412 39.2643 19.4591 39.2031 19.4849C39.1416 19.5107 39.1385 19.5461 39.1385 19.6366C39.1385 20.6307 39.0192 20.5499 39.0192 20.7888C39.0192 20.8534 39.0062 20.9115 39.0708 20.8921C39.1354 20.8727 39.2289 20.8437 39.3258 20.8437V21.4053V21.4053Z" fill="#FFE1CF" stroke="black" stroke-width="0.0178501"/>
<path d="M39.3644 23.5484C39.6562 23.4025 39.9906 23.3483 40.1649 23.3031C40.3392 23.2579 40.6168 23.1224 40.7523 23.0514C40.888 22.9804 40.9977 22.8835 41.075 22.8577C41.1527 22.8319 41.2394 22.7785 41.2881 22.6834C41.5398 22.1928 41.6755 21.7991 41.6755 21.4569C41.6755 21.231 41.6174 20.9792 41.3978 21.16C41.1915 21.3299 40.9668 21.6574 40.9073 21.8959C40.8169 22.2574 40.7395 22.3349 40.72 22.4058C40.7007 22.4769 40.6276 22.4768 40.5392 22.4962C40.1584 22.5802 40.068 22.6382 39.784 22.8513C39.5001 23.0643 39.1901 23.2515 38.9835 23.3677C38.777 23.4839 38.7384 23.4968 38.6931 23.5904C38.648 23.684 38.6061 23.755 38.5673 23.797C38.5284 23.8389 38.5174 23.888 38.5253 23.939C38.5318 23.9809 38.5123 24.1746 38.5092 24.2391C38.5058 24.3037 38.5219 24.3199 38.548 24.3231C38.5738 24.3263 38.6092 24.3134 38.6222 24.2359C38.6092 24.3134 38.7158 24.2875 38.7223 24.2295C38.7189 24.3134 38.8319 24.265 38.8385 24.1875C38.8385 24.2424 38.924 24.2044 38.932 24.1778C38.9512 24.1133 38.9674 24.0423 38.9932 23.9906C39.0309 23.9157 39.0711 23.8186 39.1451 23.7647C39.2289 23.7034 39.1901 23.6356 39.3644 23.5484V23.5484Z" fill="#FFE1CF" stroke="black" stroke-width="0.0178501"/>
<path d="M41.4559 28.8354C41.4754 28.9064 41.5108 28.9871 41.5236 29.0355C41.5366 29.0839 41.514 29.099 41.5012 29.1259C41.4335 29.2679 41.3607 29.4943 41.3493 29.6165C41.3431 29.6875 41.2946 29.7553 41.272 29.7972C41.247 29.8435 41.2567 29.8792 41.3139 29.9231C41.3414 29.9441 41.4301 29.9166 41.4397 29.8715C41.472 29.9037 41.5301 29.8908 41.5559 29.8424C41.5851 29.8715 41.6335 29.8521 41.6658 29.8037C41.6947 29.823 41.7367 29.7843 41.7528 29.7585C41.7982 29.7811 41.8466 29.7536 41.848 29.6649C41.8483 29.6471 41.8594 29.6165 41.8724 29.5955C41.8852 29.5745 41.89 29.5342 41.8886 29.4986C41.8869 29.4631 41.9095 29.3922 41.9401 29.3421C41.9707 29.2921 42.024 29.2033 42.0013 29.1194C41.9804 29.0412 41.9467 29.0484 41.9175 28.9355C41.8466 28.8612 41.7497 28.7579 41.6497 28.7514C41.5497 28.745 41.4916 28.8128 41.4559 28.8354Z" fill="#FFE1CF" stroke="black" stroke-width="0.0178501"/>
<path d="M39.6194 29.3905C39.7098 29.4809 39.9132 29.4841 40.0552 29.3324C40.0036 29.3098 39.8906 29.2582 39.839 29.2162C39.7679 29.2872 39.6871 29.3679 39.6194 29.3905Z" fill="#FFE1CF" stroke="black" stroke-width="0.0178501"/>
<path d="M40.533 19.1266C40.5684 18.8974 40.7307 18.9029 40.833 18.9265C40.875 18.9362 40.9784 18.9458 41.075 18.92C41.2666 18.869 41.4108 18.9362 41.3916 19.1202C41.4431 19.1589 41.4978 19.2492 41.4882 19.3267C41.4785 19.4042 41.4947 19.4365 41.5658 19.4461C41.6367 19.4558 41.7886 19.543 41.6882 19.6656C41.7852 19.7237 41.8594 19.8722 41.8078 19.9722C41.7562 20.0723 41.6012 20.0885 41.5366 19.9981C41.4658 20.0303 41.3493 20.0368 41.2785 19.9626C41.23 20.0206 41.1073 20.0142 41.0847 19.9626C41.0623 19.9109 41.024 19.8833 40.9784 19.869C40.9266 19.8528 40.9234 19.7108 41.0008 19.6947C40.9912 19.6527 40.9946 19.6043 41.0138 19.5817C41.0331 19.5591 41.0169 19.5172 40.9719 19.4816C40.9266 19.4461 40.888 19.3106 40.9331 19.2363C40.8557 19.2622 40.6846 19.1879 40.6491 19.1363C40.6134 19.0846 40.5653 19.0814 40.533 19.1266Z" fill="#870F00" stroke="black" stroke-width="0.0178501"/>
<path d="M40.5814 20.1207C40.7072 20.1045 40.7492 20.0271 40.8427 20.0335" stroke="black" stroke-width="0.0178501"/>
<path d="M40.3134 19.7701C40.3216 19.7774 40.3321 19.7833 40.344 19.7898C40.3695 19.8036 40.3972 19.8052 40.423 19.8084" stroke="black" stroke-width="0.0178501"/>
<path d="M40.3508 19.6366C40.3683 19.6426 40.387 19.6515 40.4038 19.6688" stroke="black" stroke-width="0.0178501"/>
<path d="M40.6426 19.1266C40.5684 19.0556 40.7684 18.9103 40.9784 19.1169C41.0175 19.1554 41.117 19.1556 41.1462 19.1459" stroke="black" stroke-width="0.0178501"/>
<path d="M40.9331 19.2363C41.03 19.2137 41.1751 19.2137 41.217 19.3234C41.2593 19.4332 41.3431 19.3622 41.4109 19.4913C41.4786 19.6204 41.5851 19.7656 41.6883 19.6656" stroke="black" stroke-width="0.0178501"/>
<path d="M41.2785 19.9625C41.2493 19.9238 41.2365 19.8398 41.2558 19.7817C41.217 19.7366 41.2331 19.643 41.2558 19.5978" stroke="black" stroke-width="0.0178501"/>
<path d="M41.0008 19.6946C41.0042 19.7333 41.0558 19.8043 41.1365 19.8172" stroke="black" stroke-width="0.0178501"/>
<path d="M41.5366 19.998C41.4916 19.94 41.4978 19.8883 41.5077 19.8173" stroke="black" stroke-width="0.0178501"/>
<path d="M41.0654 19.3557C41.0623 19.4138 41.0977 19.4913 41.1589 19.5171C41.172 19.5494 41.2366 19.6398 41.3655 19.6269" stroke="black" stroke-width="0.0178501"/>
<path d="M41.3916 19.1201C41.3207 19.0652 41.2247 18.9974 41.0977 18.9807" stroke="black" stroke-width="0.0178501"/>
<path d="M40.6038 20.9727C40.4941 21.1212 40.423 21.3277 40.4749 21.6183C40.5264 21.9088 40.6103 22.3348 40.3972 22.5284" stroke="black" stroke-width="0.0178501"/>
<path d="M41.4431 23.0901C41.2946 23.0578 41.0815 23.0578 40.9654 23.1417C40.8492 23.2256 40.6554 23.2321 40.5264 23.1675" stroke="black" stroke-width="0.0178501"/>
<path d="M41.13 23.0804C41.0008 23.103 40.9396 23.1933 40.9396 23.4322C40.9396 23.671 40.888 24.0196 40.9331 24.3617" stroke="black" stroke-width="0.0178501"/>
<path d="M40.8943 23.1805C40.8104 23.2031 40.7234 23.2063 40.7396 23.4322" stroke="black" stroke-width="0.0178501"/>
<path d="M40.4587 23.4387C40.4619 23.2999 40.5103 23.1708 40.6007 23.1933" stroke="black" stroke-width="0.0178501"/>
<path d="M41.3882 23.4645C41.3947 23.1579 41.327 23.0708 41.2366 23.074C41.3593 23.0772 41.4429 23.0922 41.4947 23.5936C41.5335 23.968 41.6117 24.1006 41.7013 24.3941C41.9337 25.1558 41.8175 26.3307 41.9337 26.7438" stroke="black" stroke-width="0.0178501"/>
<path d="M41.2107 23.5549C41.4558 24.265 41.585 25.0525 41.1849 26.3177C41.4558 27.0665 41.727 27.6088 41.7786 27.9186" stroke="black" stroke-width="0.0178501"/>
<path d="M40.436 25.2332C40.4811 25.0719 40.3199 25.0525 40.4618 24.4844C40.5233 24.2384 40.5329 24.0907 40.4941 24.0132" stroke="black" stroke-width="0.0178501"/>
<path d="M40.4942 24.3489C40.4361 24.6007 40.6815 25.0719 40.5588 25.414" stroke="black" stroke-width="0.0178501"/>
<path d="M40.2552 25.4786C40.2552 25.698 40.3068 25.9821 40.2941 26.2016C40.281 26.421 40.3706 26.5227 40.4749 26.7309C40.8492 27.4797 41.1039 28.014 41.0685 28.7191C41.0623 28.8482 41.1073 29.1194 40.9719 29.1968" stroke="black" stroke-width="0.0178501"/>
<path d="M40.2649 29.3872C40.3037 29.3904 40.3457 29.3711 40.3941 29.2549C40.4426 29.1387 40.5976 28.4415 40.533 27.9638" stroke="black" stroke-width="0.0178501"/>
<path d="M40.6103 28.5061C40.6296 28.6545 40.6296 28.9579 40.533 29.1968" stroke="black" stroke-width="0.0178501"/>
<path d="M40.8557 28.0606C40.9138 28.377 40.9073 28.661 40.8622 28.8611" stroke="black" stroke-width="0.0178501"/>
<path d="M40.7265 28.8611C40.733 28.9902 40.7911 29.313 40.6942 29.3388" stroke="black" stroke-width="0.0178501"/>
<path d="M41.2108 27.3635C41.4493 27.7379 41.6367 28.661 41.8367 28.8546" stroke="black" stroke-width="0.0178501"/>
<path d="M41.4173 28.7062C41.4108 28.6029 41.4043 28.4609 41.3462 28.3963" stroke="black" stroke-width="0.0178501"/>
<path d="M38.8384 24.1875C38.8416 24.1165 38.8288 24.0487 38.9062 23.939" stroke="black" stroke-width="0.0178501"/>
<path d="M38.7222 24.2295C38.7319 23.9809 38.7285 23.9583 38.7996 23.8905" stroke="black" stroke-width="0.0178501"/>
<path d="M38.6222 24.2359C38.6254 24.0584 38.6027 23.997 38.6738 23.8841" stroke="black" stroke-width="0.0178501"/>
<path d="M39.5129 18.9103C39.4854 18.9281 39.3241 19.0507 39.2564 19.1024" stroke="black" stroke-width="0.0178501"/>
<path d="M39.5822 18.97C39.5516 18.9748 39.4629 19.0475 39.3048 19.1701" stroke="black" stroke-width="0.0178501"/>
<path d="M39.5871 19.0701C39.5372 19.0927 39.442 19.1847 39.3547 19.246" stroke="black" stroke-width="0.0178501"/>
<path d="M39.1901 19.0523C39.166 19.0701 39.1193 19.1217 39.0966 19.1395" stroke="black" stroke-width="0.0178501"/>
<path d="M41.4398 29.8714C41.4253 29.8553 41.4253 29.7988 41.4511 29.7359" stroke="black" stroke-width="0.0178501"/>
<path d="M41.5559 29.8423C41.5383 29.8246 41.5559 29.7471 41.5738 29.6971" stroke="black" stroke-width="0.0178501"/>
<path d="M41.6659 29.8036C41.6449 29.7939 41.6384 29.7487 41.669 29.6874" stroke="black" stroke-width="0.0178501"/>
<path d="M41.7529 29.7584C41.7384 29.7536 41.7319 29.7293 41.7577 29.6584" stroke="black" stroke-width="0.0178501"/>
<path d="M40.4828 19.3299C40.5296 19.3912 40.578 19.3847 40.5865 19.4242C40.595 19.4638 40.6013 19.4666 40.6103 19.4784C40.6194 19.4901 40.5882 19.4877 40.5729 19.4814C40.5579 19.4751 40.52 19.4757 40.4967 19.4761C40.4738 19.4764 40.4463 19.4493 40.4636 19.4461C40.4806 19.4429 40.4783 19.4375 40.4757 19.4255C40.4732 19.4135 40.4854 19.3945 40.4925 19.391C40.4998 19.3875 40.4947 19.3881 40.4882 19.372C40.4814 19.3559 40.4729 19.3167 40.4828 19.3299L40.4828 19.3299Z" fill="black"/>
<path d="M40.5112 19.2737C40.5636 19.2799 40.654 19.3082 40.703 19.3624C40.7415 19.4051 40.7101 19.3938 40.6905 19.3954C40.671 19.397 40.6327 19.3832 40.6135 19.3589C40.5945 19.3347 40.5375 19.304 40.5072 19.296C40.4888 19.2912 40.4715 19.269 40.5112 19.2737Z" fill="black"/>
<mask id="mask1_1_39933" style="mask-type:alpha" maskUnits="userSpaceOnUse" x="3" y="6" width="24" height="18">
<rect x="3" y="6" width="24" height="18" fill="#C4C4C4"/>
</mask>
<g mask="url(#mask1_1_39933)">
<path d="M3 6L27 24L3 6ZM27 6L3 24L27 6Z" fill="black"/>
<path d="M27 6L3 24M3 6L27 24L3 6Z" stroke="white" stroke-width="2.4"/>
<path d="M3 6L27 24L3 6ZM27 6L3 24L27 6Z" fill="black"/>
<path d="M27 6L3 24M3 6L27 24L3 6Z" stroke="#EE5757" stroke-width="1.6"/>
<path d="M15 6V27V6ZM3 15H31H3Z" fill="black"/>
<path d="M3 15H31M15 6V27V6Z" stroke="white" stroke-width="4"/>
<path d="M15 6V27V6ZM3 15H31H3Z" fill="black"/>
<path d="M3 15H31M15 6V27V6Z" stroke="#EE5757" stroke-width="2.4"/>
</g>
</g>
</svg>
