<svg width="54" height="54" viewBox="0 0 54 54" fill="none" xmlns="http://www.w3.org/2000/svg">
<mask id="mask0_1_39933" style="mask-type:alpha" maskUnits="userSpaceOnUse" x="3" y="9" width="48" height="36">
<path d="M3.56934 18.1356C4.16681 13.4125 8.0415 10.0019 12.7861 9.60887C16.6412 9.28949 21.6196 9 27 9C32.3804 9 37.3588 9.28949 41.2139 9.60887C45.9585 10.0019 49.8332 13.4125 50.4307 18.1356C50.752 20.6759 51 23.704 51 27C51 30.296 50.752 33.3241 50.4307 35.8644C49.8332 40.5875 45.9585 43.9981 41.2139 44.3911C37.3588 44.7105 32.3804 45 27 45C21.6196 45 16.6412 44.7105 12.7861 44.3911C8.04151 43.9981 4.16681 40.5875 3.56934 35.8644C3.248 33.3241 3 30.296 3 27C3 23.704 3.248 20.6759 3.56934 18.1356Z" fill="#00D0BF"/>
</mask>
<g mask="url(#mask0_1_39933)">
<rect x="3" y="9" width="48" height="36" fill="#2E50A6"/>
<path d="M34.0133 20H45.514L45.5003 28.1835C45.596 31.4733 43.5455 33.5147 39.7727 34.4351C37.0939 33.7698 34.0046 32.3937 34 28.2769L34.0137 20H34.0133Z" fill="white"/>
<path d="M34.2679 20.2467H45.2588L45.2457 28.0885C45.3371 31.2408 43.3776 33.1969 39.772 34.0789C37.2117 33.4415 34.2593 32.1228 34.2549 28.1779L34.268 20.2467H34.2679Z" fill="#00A2BD" stroke="black" stroke-width="0.0811471"/>
<path d="M45.1735 29.0174C44.7736 32.0264 42.4562 33.3412 39.7717 34.039C37.3955 33.4015 34.8391 32.3839 34.3435 29.0325L45.1736 29.0174L45.1735 29.0174Z" fill="#A53D08"/>
<path d="M39.3365 21.7075L39.3212 20.7191L40.1027 20.7268L40.1103 21.7075H42.2478L42.2555 22.4736L40.1103 22.4813L40.0932 31.5167L39.3309 31.5215L39.3212 22.4736L37.1909 22.4813L37.1913 21.6998L39.3365 21.7075Z" fill="black"/>
<path fill-rule="evenodd" clip-rule="evenodd" d="M37.6061 29.3902L39.5627 31.4201C40.2393 30.6764 39.77 27.8968 38.8801 27.3848C38.7734 27.714 38.592 28.1086 38.3992 28.2359C37.975 28.5249 36.9356 28.8629 37.283 29.0793C37.3622 28.9696 37.5695 28.866 37.667 29.1099C37.7828 29.4939 37.2342 29.5183 37.2342 29.5183C37.2342 29.5183 36.8868 29.4755 36.8258 29.122C36.7649 28.7685 37.3434 28.4457 37.3927 28.4211C37.4415 28.4028 38.1973 28.2016 38.3253 27.5311C38.4838 26.8728 38.6484 26.9703 38.6789 26.9581C39.6663 27.0556 40.3124 28.8234 40.349 30.0668C40.3856 31.3103 39.8431 32.1332 39.7456 32.188C39.6481 32.2429 37.3927 29.5122 37.3927 29.5122L37.6061 29.3902L37.6061 29.3902Z" fill="#FF9A08" stroke="black" stroke-width="0.0433202"/>
<path d="M39.0324 27.5006L39.0446 31.164Z" fill="#FF9A08"/>
<path d="M39.0324 27.5006L39.0446 31.164" stroke="black" stroke-width="0.0433202"/>
<path d="M38.813 27.5677C38.813 27.5738 38.8251 30.8959 38.8251 30.8959Z" fill="#FF9A08"/>
<path d="M38.813 27.5677C38.813 27.5738 38.8251 30.8959 38.8251 30.8959" stroke="black" stroke-width="0.0433202"/>
<path d="M38.5753 28.0492L38.5874 30.6947Z" fill="#FF9A08"/>
<path d="M38.5753 28.0492L38.5874 30.6947" stroke="black" stroke-width="0.0433202"/>
<path d="M38.3802 28.2382L38.3924 30.4265Z" fill="#FF9A08"/>
<path d="M38.3802 28.2382L38.3924 30.4265" stroke="black" stroke-width="0.0433202"/>
<path d="M38.173 28.3357V30.1827Z" fill="#FF9A08"/>
<path d="M38.173 28.3357V30.1827" stroke="black" stroke-width="0.0433202"/>
<path d="M37.9474 28.4821V29.9449Z" fill="#FF9A08"/>
<path d="M37.9474 28.4821V29.9449" stroke="black" stroke-width="0.0433202"/>
<path d="M37.7524 28.5979V29.7194Z" fill="#FF9A08"/>
<path d="M37.7524 28.5979V29.7194" stroke="black" stroke-width="0.0433202"/>
<path d="M37.5756 29.6218L39.5932 31.932" stroke="#FFDF00" stroke-width="0.0433202" stroke-linecap="round"/>
<path d="M39.6907 28.1651C39.6907 28.1651 40.6051 30.1644 39.7577 31.8102" stroke="#FFDF00" stroke-width="0.0811471" stroke-linecap="round"/>
<path d="M37.3378 29.2013C37.3378 29.2013 37.4049 29.0245 37.4902 29.0977" stroke="#FFDF00" stroke-width="0.0811471" stroke-linecap="round"/>
<path d="M37.1794 28.6893C37.1794 28.6893 36.8137 29.0123 37.0148 29.2196" stroke="#FFDF00" stroke-width="0.0811471" stroke-linecap="round"/>
<path d="M40.1161 23.6048C40.2516 23.4887 40.3218 23.4176 40.4057 23.4306C40.4896 23.4435 40.6038 23.437 40.6877 23.4112C40.7718 23.3853 41.1881 23.3337 41.3592 23.3918C41.4173 23.3983 41.4947 23.4306 41.614 23.5306C41.7336 23.6306 41.9078 23.805 41.8497 24.2891C41.7917 24.7732 41.8106 24.9803 41.7851 25.2509C41.7401 25.7286 41.6341 26.122 41.4431 26.0901C41.7013 26.542 41.7271 26.9293 41.8948 27.2392C42.0628 27.549 42.166 28.1816 42.1014 28.8659C42.0371 29.5502 41.8563 31.0865 42.3983 32.1194C42.3079 32.1839 42.0886 32.1194 41.8948 31.9128C41.7013 31.7062 41.6163 31.713 41.4559 31.8353C40.9654 32.2097 40.506 32.661 39.8294 32.2097C39.6744 32.1064 39.6253 31.9826 39.739 31.6675C40.0229 30.88 40.1609 29.7994 40.1161 29.2919V23.6048V23.6048Z" fill="#008021" stroke="black" stroke-width="0.0178501"/>
<path d="M40.5814 23.1207C40.6169 23.2304 40.6361 23.3724 40.578 23.5015C40.5199 23.6306 40.5072 23.7856 40.6038 23.9728C40.7588 23.7533 40.9784 23.7985 41.1074 23.6694C41.2366 23.5403 41.2624 23.4176 41.3593 23.3918C41.2624 23.3079 41.1139 23.2175 41.1462 22.9722C41.1785 22.7269 41.5205 22.5268 41.2108 22.1524C41.0107 21.9107 40.72 21.9781 40.5942 22.0717C40.535 22.1157 40.4845 22.1782 40.4653 22.2201C40.4457 22.2621 40.4701 22.3576 40.423 22.4138C40.391 22.4525 40.3519 22.491 40.3069 22.5235C40.278 22.5445 40.2598 22.5751 40.2907 22.6107C40.3032 22.6249 40.3258 22.628 40.3508 22.6366C40.3363 22.6657 40.3199 22.6946 40.3037 22.7156C40.2884 22.7353 40.295 22.7541 40.3134 22.7701C40.289 22.8476 40.336 22.856 40.3037 22.9141C40.2757 22.9644 40.2377 23.0238 40.3426 23.0819C40.3715 23.0981 40.5089 23.1299 40.5814 23.1207V23.1207Z" fill="#FFE1CF" stroke="black" stroke-width="0.0178501"/>
<path d="M39.3258 24.4053C39.145 24.4505 38.8546 24.3731 38.635 24.3988C38.5381 24.4103 38.4607 24.3601 38.4737 24.2633C38.4865 24.1665 38.4995 24.018 38.48 23.8824C38.4499 23.6712 38.5511 23.3789 38.6931 23.0561C38.835 22.7334 38.9061 22.5527 38.9061 22.4009C38.9061 22.3009 38.9158 22.1879 39.0062 22.1298C39.073 22.0869 39.0858 22.0452 39.1096 22.0104C39.1643 21.9297 39.2159 21.9104 39.2224 21.9588C39.2263 21.9876 39.2159 22.0136 39.1901 22.0524C39.2482 22.004 39.3468 21.9474 39.3692 21.9313C39.3918 21.9152 39.5066 21.8345 39.5128 21.9104C39.5582 21.8878 39.5888 21.8894 39.6001 21.9136C39.6123 21.9397 39.6049 21.9507 39.5823 21.9701C39.6146 21.9636 39.6517 22.0201 39.5871 22.0701C39.6211 22.0588 39.6548 22.1153 39.5953 22.1669C39.5335 22.2202 39.463 22.2573 39.4403 22.2993C39.4176 22.3412 39.2643 22.4591 39.2031 22.4849C39.1416 22.5107 39.1385 22.5461 39.1385 22.6366C39.1385 23.6307 39.0192 23.5499 39.0192 23.7888C39.0192 23.8534 39.0062 23.9115 39.0708 23.8921C39.1354 23.8727 39.2289 23.8437 39.3258 23.8437V24.4053V24.4053Z" fill="#FFE1CF" stroke="black" stroke-width="0.0178501"/>
<path d="M39.3644 26.5484C39.6562 26.4025 39.9906 26.3483 40.1649 26.3031C40.3392 26.2579 40.6168 26.1224 40.7523 26.0514C40.888 25.9804 40.9977 25.8835 41.075 25.8577C41.1527 25.8319 41.2394 25.7785 41.2881 25.6834C41.5398 25.1928 41.6755 24.7991 41.6755 24.4569C41.6755 24.231 41.6174 23.9792 41.3978 24.16C41.1915 24.3299 40.9668 24.6574 40.9073 24.8959C40.8169 25.2574 40.7395 25.3349 40.72 25.4058C40.7007 25.4769 40.6276 25.4768 40.5392 25.4962C40.1584 25.5802 40.068 25.6382 39.784 25.8513C39.5001 26.0643 39.1901 26.2515 38.9835 26.3677C38.777 26.4839 38.7384 26.4968 38.6931 26.5904C38.648 26.684 38.6061 26.755 38.5673 26.797C38.5284 26.8389 38.5174 26.888 38.5253 26.939C38.5318 26.9809 38.5123 27.1746 38.5092 27.2391C38.5058 27.3037 38.5219 27.3199 38.548 27.3231C38.5738 27.3263 38.6092 27.3134 38.6222 27.2359C38.6092 27.3134 38.7158 27.2875 38.7223 27.2295C38.7189 27.3134 38.8319 27.265 38.8385 27.1875C38.8385 27.2424 38.924 27.2044 38.932 27.1778C38.9512 27.1133 38.9674 27.0423 38.9932 26.9906C39.0309 26.9157 39.0711 26.8186 39.1451 26.7647C39.2289 26.7034 39.1901 26.6356 39.3644 26.5484V26.5484Z" fill="#FFE1CF" stroke="black" stroke-width="0.0178501"/>
<path d="M41.4559 31.8354C41.4754 31.9064 41.5108 31.9871 41.5236 32.0355C41.5366 32.0839 41.514 32.099 41.5012 32.1259C41.4335 32.2679 41.3607 32.4943 41.3493 32.6165C41.3431 32.6875 41.2946 32.7553 41.272 32.7972C41.247 32.8435 41.2567 32.8792 41.3139 32.9231C41.3414 32.9441 41.4301 32.9166 41.4397 32.8715C41.472 32.9037 41.5301 32.8908 41.5559 32.8424C41.5851 32.8715 41.6335 32.8521 41.6658 32.8037C41.6947 32.823 41.7367 32.7843 41.7528 32.7585C41.7982 32.7811 41.8466 32.7536 41.848 32.6649C41.8483 32.6471 41.8594 32.6165 41.8724 32.5955C41.8852 32.5745 41.89 32.5342 41.8886 32.4986C41.8869 32.4631 41.9095 32.3922 41.9401 32.3421C41.9707 32.2921 42.024 32.2033 42.0013 32.1194C41.9804 32.0412 41.9467 32.0484 41.9175 31.9355C41.8466 31.8612 41.7497 31.7579 41.6497 31.7514C41.5497 31.745 41.4916 31.8128 41.4559 31.8354V31.8354Z" fill="#FFE1CF" stroke="black" stroke-width="0.0178501"/>
<path d="M39.6194 32.3905C39.7098 32.4809 39.9132 32.4841 40.0552 32.3324C40.0036 32.3098 39.8906 32.2582 39.839 32.2162C39.7679 32.2872 39.6871 32.3679 39.6194 32.3905V32.3905Z" fill="#FFE1CF" stroke="black" stroke-width="0.0178501"/>
<path d="M40.533 22.1266C40.5684 21.8974 40.7307 21.9029 40.833 21.9265C40.875 21.9362 40.9784 21.9458 41.075 21.92C41.2666 21.869 41.4108 21.9362 41.3916 22.1202C41.4431 22.1589 41.4978 22.2492 41.4882 22.3267C41.4785 22.4042 41.4947 22.4365 41.5658 22.4461C41.6367 22.4558 41.7886 22.543 41.6882 22.6656C41.7852 22.7237 41.8594 22.8722 41.8078 22.9722C41.7562 23.0723 41.6012 23.0885 41.5366 22.9981C41.4658 23.0303 41.3493 23.0368 41.2785 22.9626C41.23 23.0206 41.1073 23.0142 41.0847 22.9626C41.0623 22.9109 41.024 22.8833 40.9784 22.869C40.9266 22.8528 40.9234 22.7108 41.0008 22.6947C40.9912 22.6527 40.9946 22.6043 41.0138 22.5817C41.0331 22.5591 41.0169 22.5172 40.9719 22.4816C40.9266 22.4461 40.888 22.3106 40.9331 22.2363C40.8557 22.2622 40.6846 22.1879 40.6491 22.1363C40.6134 22.0846 40.5653 22.0814 40.533 22.1266V22.1266Z" fill="#870F00" stroke="black" stroke-width="0.0178501"/>
<path d="M40.5814 23.1207C40.7072 23.1045 40.7492 23.0271 40.8427 23.0335" stroke="black" stroke-width="0.0178501"/>
<path d="M40.3134 22.7701C40.3216 22.7774 40.3321 22.7833 40.344 22.7898C40.3695 22.8036 40.3972 22.8052 40.423 22.8084" stroke="black" stroke-width="0.0178501"/>
<path d="M40.3508 22.6366C40.3683 22.6426 40.387 22.6515 40.4038 22.6688" stroke="black" stroke-width="0.0178501"/>
<path d="M40.6426 22.1266C40.5684 22.0556 40.7684 21.9103 40.9784 22.1169C41.0175 22.1554 41.117 22.1556 41.1462 22.1459" stroke="black" stroke-width="0.0178501"/>
<path d="M40.9331 22.2363C41.03 22.2137 41.1751 22.2137 41.217 22.3234C41.2593 22.4332 41.3431 22.3622 41.4109 22.4913C41.4786 22.6204 41.5851 22.7656 41.6883 22.6656" stroke="black" stroke-width="0.0178501"/>
<path d="M41.2785 22.9625C41.2493 22.9238 41.2365 22.8398 41.2558 22.7817C41.217 22.7366 41.2331 22.643 41.2558 22.5978" stroke="black" stroke-width="0.0178501"/>
<path d="M41.0008 22.6946C41.0042 22.7333 41.0558 22.8043 41.1365 22.8172" stroke="black" stroke-width="0.0178501"/>
<path d="M41.5366 22.998C41.4916 22.94 41.4978 22.8883 41.5077 22.8173" stroke="black" stroke-width="0.0178501"/>
<path d="M41.0654 22.3557C41.0623 22.4138 41.0977 22.4913 41.1589 22.5171C41.172 22.5494 41.2366 22.6398 41.3655 22.6269" stroke="black" stroke-width="0.0178501"/>
<path d="M41.3916 22.1201C41.3207 22.0652 41.2247 21.9974 41.0977 21.9807" stroke="black" stroke-width="0.0178501"/>
<path d="M40.6038 23.9727C40.4941 24.1212 40.423 24.3277 40.4749 24.6183C40.5264 24.9088 40.6103 25.3348 40.3972 25.5284" stroke="black" stroke-width="0.0178501"/>
<path d="M41.4431 26.0901C41.2946 26.0578 41.0815 26.0578 40.9654 26.1417C40.8492 26.2256 40.6554 26.2321 40.5264 26.1675" stroke="black" stroke-width="0.0178501"/>
<path d="M41.13 26.0804C41.0008 26.103 40.9396 26.1933 40.9396 26.4322C40.9396 26.671 40.888 27.0196 40.9331 27.3617" stroke="black" stroke-width="0.0178501"/>
<path d="M40.8943 26.1805C40.8104 26.2031 40.7234 26.2063 40.7396 26.4322" stroke="black" stroke-width="0.0178501"/>
<path d="M40.4587 26.4387C40.4619 26.2999 40.5103 26.1708 40.6007 26.1933" stroke="black" stroke-width="0.0178501"/>
<path d="M41.3882 26.4645C41.3947 26.1579 41.327 26.0708 41.2366 26.074C41.3593 26.0772 41.4429 26.0922 41.4947 26.5936C41.5335 26.968 41.6117 27.1006 41.7013 27.3941C41.9337 28.1558 41.8175 29.3307 41.9337 29.7438" stroke="black" stroke-width="0.0178501"/>
<path d="M41.2107 26.5549C41.4558 27.265 41.585 28.0525 41.1849 29.3177C41.4558 30.0665 41.727 30.6088 41.7786 30.9186" stroke="black" stroke-width="0.0178501"/>
<path d="M40.436 28.2332C40.4811 28.0719 40.3199 28.0525 40.4618 27.4844C40.5233 27.2384 40.5329 27.0907 40.4941 27.0132" stroke="black" stroke-width="0.0178501"/>
<path d="M40.4942 27.3489C40.4361 27.6007 40.6815 28.0719 40.5588 28.414" stroke="black" stroke-width="0.0178501"/>
<path d="M40.2552 28.4786C40.2552 28.698 40.3068 28.9821 40.2941 29.2016C40.281 29.421 40.3706 29.5227 40.4749 29.7309C40.8492 30.4797 41.1039 31.014 41.0685 31.7191C41.0623 31.8482 41.1073 32.1194 40.9719 32.1968" stroke="black" stroke-width="0.0178501"/>
<path d="M40.2649 32.3872C40.3037 32.3904 40.3457 32.3711 40.3941 32.2549C40.4426 32.1387 40.5976 31.4415 40.533 30.9638" stroke="black" stroke-width="0.0178501"/>
<path d="M40.6103 31.5061C40.6296 31.6545 40.6296 31.9579 40.533 32.1968" stroke="black" stroke-width="0.0178501"/>
<path d="M40.8557 31.0606C40.9138 31.377 40.9073 31.661 40.8622 31.8611" stroke="black" stroke-width="0.0178501"/>
<path d="M40.7265 31.8611C40.733 31.9902 40.7911 32.313 40.6942 32.3388" stroke="black" stroke-width="0.0178501"/>
<path d="M41.2108 30.3635C41.4493 30.7379 41.6367 31.661 41.8367 31.8546" stroke="black" stroke-width="0.0178501"/>
<path d="M41.4173 31.7062C41.4108 31.6029 41.4043 31.4609 41.3462 31.3963" stroke="black" stroke-width="0.0178501"/>
<path d="M38.8384 27.1875C38.8416 27.1165 38.8288 27.0487 38.9062 26.939" stroke="black" stroke-width="0.0178501"/>
<path d="M38.7222 27.2295C38.7319 26.9809 38.7285 26.9583 38.7996 26.8905" stroke="black" stroke-width="0.0178501"/>
<path d="M38.6222 27.2359C38.6254 27.0584 38.6027 26.997 38.6738 26.8841" stroke="black" stroke-width="0.0178501"/>
<path d="M39.5129 21.9103C39.4854 21.9281 39.3241 22.0507 39.2564 22.1024" stroke="black" stroke-width="0.0178501"/>
<path d="M39.5822 21.97C39.5516 21.9748 39.4629 22.0475 39.3048 22.1701" stroke="black" stroke-width="0.0178501"/>
<path d="M39.5871 22.0701C39.5372 22.0927 39.442 22.1847 39.3547 22.246" stroke="black" stroke-width="0.0178501"/>
<path d="M39.1901 22.0523C39.166 22.0701 39.1193 22.1217 39.0966 22.1395" stroke="black" stroke-width="0.0178501"/>
<path d="M41.4398 32.8714C41.4253 32.8553 41.4253 32.7988 41.4511 32.7359" stroke="black" stroke-width="0.0178501"/>
<path d="M41.5559 32.8423C41.5383 32.8246 41.5559 32.7471 41.5738 32.6971" stroke="black" stroke-width="0.0178501"/>
<path d="M41.6659 32.8036C41.6449 32.7939 41.6384 32.7487 41.669 32.6874" stroke="black" stroke-width="0.0178501"/>
<path d="M41.7529 32.7584C41.7384 32.7536 41.7319 32.7293 41.7577 32.6584" stroke="black" stroke-width="0.0178501"/>
<path d="M40.4828 22.3299C40.5296 22.3912 40.578 22.3847 40.5865 22.4242C40.595 22.4638 40.6013 22.4666 40.6103 22.4784C40.6194 22.4901 40.5882 22.4877 40.5729 22.4814C40.5579 22.4751 40.52 22.4757 40.4967 22.4761C40.4738 22.4764 40.4463 22.4493 40.4636 22.4461C40.4806 22.4429 40.4783 22.4375 40.4757 22.4255C40.4732 22.4135 40.4854 22.3945 40.4925 22.391C40.4998 22.3875 40.4947 22.3881 40.4882 22.372C40.4814 22.3559 40.4729 22.3167 40.4828 22.3299L40.4828 22.3299Z" fill="black"/>
<path d="M40.5112 22.2737C40.5636 22.2799 40.654 22.3082 40.703 22.3624C40.7415 22.4051 40.7101 22.3938 40.6905 22.3954C40.671 22.397 40.6327 22.3832 40.6135 22.3589C40.5945 22.3347 40.5375 22.304 40.5072 22.296C40.4888 22.2912 40.4715 22.269 40.5112 22.2737V22.2737Z" fill="black"/>
<mask id="mask1_1_39933" style="mask-type:alpha" maskUnits="userSpaceOnUse" x="3" y="9" width="24" height="18">
<rect x="3" y="9" width="24" height="18" fill="#C4C4C4"/>
</mask>
<g mask="url(#mask1_1_39933)">
<path d="M3 9L27 27L3 9ZM27 9L3 27Z" fill="black"/>
<path d="M27 9L3 27M3 9L27 27L3 9Z" stroke="white" stroke-width="2.4"/>
<path d="M3 9L27 27L3 9ZM27 9L3 27Z" fill="black"/>
<path d="M27 9L3 27M3 9L27 27L3 9Z" stroke="#EE5757" stroke-width="1.6"/>
<path d="M15 9V30V9ZM3 18H31Z" fill="black"/>
<path d="M3 18H31M15 9V30V9Z" stroke="white" stroke-width="4"/>
<path d="M15 9V30V9ZM3 18H31Z" fill="black"/>
<path d="M3 18H31M15 9V30V9Z" stroke="#EE5757" stroke-width="2.4"/>
</g>
</g>
</svg>
