<svg width="54" height="48" viewBox="0 0 54 48" fill="none" xmlns="http://www.w3.org/2000/svg">
<mask id="mask0_1_39921" style="mask-type:alpha" maskUnits="userSpaceOnUse" x="3" y="6" width="48" height="36">
<path d="M3.56934 15.1356C4.16681 10.4125 8.0415 7.00193 12.7861 6.60887C16.6412 6.28949 21.6196 6 27 6C32.3804 6 37.3588 6.28949 41.2139 6.60887C45.9585 7.00193 49.8332 10.4125 50.4307 15.1356C50.752 17.6759 51 20.704 51 24C51 27.296 50.752 30.3241 50.4307 32.8644C49.8332 37.5875 45.9585 40.9981 41.2139 41.3911C37.3588 41.7105 32.3804 42 27 42C21.6196 42 16.6412 41.7105 12.7861 41.3911C8.0415 40.9981 4.16681 37.5875 3.56934 32.8644C3.248 30.3241 3 27.296 3 24C3 20.704 3.248 17.6759 3.56934 15.1356Z" fill="#00D0BF"/>
</mask>
<g mask="url(#mask0_1_39921)">
<rect x="3" width="48" height="49" fill="#2E50A6"/>
<path d="M12.9906 9.20203C12.7012 9.33469 12.472 9.52766 12.472 9.62414C12.472 9.73268 12.6409 9.73268 12.4238 9.80504C12.2187 9.87741 11.664 9.97389 11.278 9.96183C11.1454 9.96183 10.8318 9.87741 10.7474 9.87741C10.6509 9.88947 11.1574 10.0945 10.9645 10.0462C10.6992 9.97389 10.5424 9.94977 10.7474 10.0824C10.9042 10.1789 11.2539 10.1789 11.7484 10.1186C11.9414 10.0945 12.4479 9.98595 12.6288 9.96183C12.7494 9.94977 12.7494 10.0583 12.8218 10.0583C13.473 10.0945 14.6308 10.0704 15.1373 9.99801C15.5594 9.93771 15.7162 9.96183 15.8368 10.1066C16.078 10.3839 15.8248 10.6251 15.1373 10.7699C14.2931 10.9508 13.9434 11.1076 13.6177 11.4573C12.8338 12.3015 13.7504 13.2543 15.463 13.3869C16.464 13.4714 17.1152 13.6643 16.9584 13.8211C16.8981 13.8814 16.2348 13.9779 15.475 14.0382C13.8228 14.1709 13.0871 14.4 12.46 15.003C12.1102 15.3407 11.9896 15.5457 11.9896 15.8231C11.9896 16.2091 11.9896 16.2091 11.3504 16.2091C11.0127 16.2091 10.5424 16.1608 10.3253 16.0885C9.9876 16.004 9.93936 16.004 10.06 16.1488C10.3012 16.4382 10.9886 16.6915 11.5554 16.6915C11.9896 16.6915 12.2308 16.7759 12.6167 17.0533C13.3886 17.6201 14.269 17.8372 15.7283 17.8251C17.6459 17.8131 18.7434 17.3065 18.7434 16.4503C18.7434 15.8111 18.0197 15.4372 16.5122 15.3045C15.7524 15.2322 14.2569 15.3528 13.6057 15.5457C13.4851 15.5819 13.6177 15.4975 13.9072 15.3528C14.2569 15.1839 14.8358 15.0633 15.6197 14.991C17.3564 14.8462 18.1403 14.4603 18.1403 13.7367C18.1403 13.0372 17.3685 12.6392 15.7162 12.4824C14.0881 12.3377 13.9675 12.0483 15.3424 11.6261C16.3192 11.3367 16.8137 10.9025 16.8137 10.3116C16.8137 9.40705 16.3192 9.10555 14.667 9.02112C13.666 8.97288 13.4248 8.997 12.9906 9.20203ZM13.8589 9.4553C13.8228 9.5156 13.7263 9.5759 13.666 9.5759C13.5936 9.5759 13.5816 9.5156 13.6177 9.4553C13.6539 9.38293 13.7504 9.33469 13.8107 9.33469C13.8831 9.33469 13.8951 9.38293 13.8589 9.4553ZM17.3444 16.2091C17.5735 16.2935 17.6579 16.3779 17.5856 16.4503C17.3806 16.6553 16.0539 16.8362 15.2459 16.7759C14.3534 16.6915 13.3886 16.402 13.678 16.2814C14.4861 15.9678 16.6087 15.9317 17.3444 16.2091Z" fill="white"/>
<path d="M37.9906 9.20203C37.7012 9.33469 37.472 9.52766 37.472 9.62414C37.472 9.73268 37.6409 9.73268 37.4238 9.80504C37.2187 9.87741 36.664 9.97389 36.278 9.96183C36.1454 9.96183 35.8318 9.87741 35.7474 9.87741C35.6509 9.88947 36.1574 10.0945 35.9645 10.0462C35.6992 9.97389 35.5424 9.94977 35.7474 10.0824C35.9042 10.1789 36.2539 10.1789 36.7484 10.1186C36.9414 10.0945 37.4479 9.98595 37.6288 9.96183C37.7494 9.94977 37.7494 10.0583 37.8218 10.0583C38.473 10.0945 39.6308 10.0704 40.1373 9.99801C40.5594 9.93771 40.7162 9.96183 40.8368 10.1066C41.078 10.3839 40.8248 10.6251 40.1373 10.7699C39.2931 10.9508 38.9434 11.1076 38.6177 11.4573C37.8338 12.3015 38.7504 13.2543 40.463 13.3869C41.464 13.4714 42.1152 13.6643 41.9584 13.8211C41.8981 13.8814 41.2348 13.9779 40.475 14.0382C38.8228 14.1709 38.0871 14.4 37.46 15.003C37.1102 15.3407 36.9896 15.5457 36.9896 15.8231C36.9896 16.2091 36.9896 16.2091 36.3504 16.2091C36.0127 16.2091 35.5424 16.1608 35.3253 16.0885C34.9876 16.004 34.9394 16.004 35.06 16.1488C35.3012 16.4382 35.9886 16.6915 36.5554 16.6915C36.9896 16.6915 37.2308 16.7759 37.6167 17.0533C38.3886 17.6201 39.269 17.8372 40.7283 17.8251C42.6459 17.8131 43.7434 17.3065 43.7434 16.4503C43.7434 15.8111 43.0197 15.4372 41.5122 15.3045C40.7524 15.2322 39.2569 15.3528 38.6057 15.5457C38.4851 15.5819 38.6177 15.4975 38.9072 15.3528C39.2569 15.1839 39.8358 15.0633 40.6197 14.991C42.3564 14.8462 43.1403 14.4603 43.1403 13.7367C43.1403 13.0372 42.3685 12.6392 40.7162 12.4824C39.0881 12.3377 38.9675 12.0483 40.3424 11.6261C41.3192 11.3367 41.8137 10.9025 41.8137 10.3116C41.8137 9.40705 41.3192 9.10555 39.667 9.02112C38.666 8.97288 38.4248 8.997 37.9906 9.20203ZM38.8589 9.4553C38.8228 9.5156 38.7263 9.5759 38.666 9.5759C38.5936 9.5759 38.5816 9.5156 38.6177 9.4553C38.6539 9.38293 38.7504 9.33469 38.8107 9.33469C38.8831 9.33469 38.8951 9.38293 38.8589 9.4553ZM42.3444 16.2091C42.5735 16.2935 42.6579 16.3779 42.5856 16.4503C42.3806 16.6553 41.0539 16.8362 40.2459 16.7759C39.3534 16.6915 38.3886 16.402 38.678 16.2814C39.4861 15.9678 41.6087 15.9317 42.3444 16.2091Z" fill="white"/>
<path d="M12.9906 30.202C12.7012 30.3347 12.472 30.5277 12.472 30.6241C12.472 30.7327 12.6409 30.7327 12.4238 30.805C12.2187 30.8774 11.664 30.9739 11.278 30.9618C11.1454 30.9618 10.8318 30.8774 10.7474 30.8774C10.6509 30.8895 11.1574 31.0945 10.9645 31.0462C10.6992 30.9739 10.5424 30.9498 10.7474 31.0824C10.9042 31.1789 11.2539 31.1789 11.7484 31.1186C11.9414 31.0945 12.4479 30.9859 12.6288 30.9618C12.7494 30.9498 12.7494 31.0583 12.8218 31.0583C13.473 31.0945 14.6308 31.0704 15.1373 30.998C15.5594 30.9377 15.7162 30.9618 15.8368 31.1066C16.078 31.3839 15.8248 31.6251 15.1373 31.7699C14.2931 31.9508 13.9434 32.1076 13.6177 32.4573C12.8338 33.3015 13.7504 34.2543 15.463 34.3869C16.464 34.4714 17.1152 34.6643 16.9584 34.8211C16.8981 34.8814 16.2348 34.9779 15.475 35.0382C13.8228 35.1709 13.0871 35.4 12.46 36.003C12.1102 36.3407 11.9896 36.5457 11.9896 36.8231C11.9896 37.2091 11.9896 37.2091 11.3504 37.2091C11.0127 37.2091 10.5424 37.1608 10.3253 37.0885C9.9876 37.004 9.93936 37.004 10.06 37.1488C10.3012 37.4382 10.9886 37.6915 11.5554 37.6915C11.9896 37.6915 12.2308 37.7759 12.6167 38.0533C13.3886 38.6201 14.269 38.8372 15.7283 38.8251C17.6459 38.8131 18.7434 38.3065 18.7434 37.4503C18.7434 36.8111 18.0197 36.4372 16.5122 36.3045C15.7524 36.2322 14.2569 36.3528 13.6057 36.5457C13.4851 36.5819 13.6177 36.4975 13.9072 36.3528C14.2569 36.1839 14.8358 36.0633 15.6197 35.991C17.3564 35.8462 18.1403 35.4603 18.1403 34.7367C18.1403 34.0372 17.3685 33.6392 15.7162 33.4824C14.0881 33.3377 13.9675 33.0483 15.3424 32.6261C16.3192 32.3367 16.8137 31.9025 16.8137 31.3116C16.8137 30.4071 16.3192 30.1055 14.667 30.0211C13.666 29.9729 13.4248 29.997 12.9906 30.202ZM13.8589 30.4553C13.8228 30.5156 13.7263 30.5759 13.666 30.5759C13.5936 30.5759 13.5816 30.5156 13.6177 30.4553C13.6539 30.3829 13.7504 30.3347 13.8107 30.3347C13.8831 30.3347 13.8951 30.3829 13.8589 30.4553ZM17.3444 37.2091C17.5735 37.2935 17.6579 37.3779 17.5856 37.4503C17.3806 37.6553 16.0539 37.8362 15.2459 37.7759C14.3534 37.6915 13.3886 37.402 13.678 37.2814C14.4861 36.9678 16.6087 36.9317 17.3444 37.2091Z" fill="white"/>
<path d="M37.9906 30.202C37.7012 30.3347 37.472 30.5277 37.472 30.6241C37.472 30.7327 37.6409 30.7327 37.4238 30.805C37.2187 30.8774 36.664 30.9739 36.278 30.9618C36.1454 30.9618 35.8318 30.8774 35.7474 30.8774C35.6509 30.8895 36.1574 31.0945 35.9645 31.0462C35.6992 30.9739 35.5424 30.9498 35.7474 31.0824C35.9042 31.1789 36.2539 31.1789 36.7484 31.1186C36.9414 31.0945 37.4479 30.9859 37.6288 30.9618C37.7494 30.9498 37.7494 31.0583 37.8218 31.0583C38.473 31.0945 39.6308 31.0704 40.1373 30.998C40.5594 30.9377 40.7162 30.9618 40.8368 31.1066C41.078 31.3839 40.8248 31.6251 40.1373 31.7699C39.2931 31.9508 38.9434 32.1076 38.6177 32.4573C37.8338 33.3015 38.7504 34.2543 40.463 34.3869C41.464 34.4714 42.1152 34.6643 41.9584 34.8211C41.8981 34.8814 41.2348 34.9779 40.475 35.0382C38.8228 35.1709 38.0871 35.4 37.46 36.003C37.1102 36.3407 36.9896 36.5457 36.9896 36.8231C36.9896 37.2091 36.9896 37.2091 36.3504 37.2091C36.0127 37.2091 35.5424 37.1608 35.3253 37.0885C34.9876 37.004 34.9394 37.004 35.06 37.1488C35.3012 37.4382 35.9886 37.6915 36.5554 37.6915C36.9896 37.6915 37.2308 37.7759 37.6167 38.0533C38.3886 38.6201 39.269 38.8372 40.7283 38.8251C42.6459 38.8131 43.7434 38.3065 43.7434 37.4503C43.7434 36.8111 43.0197 36.4372 41.5122 36.3045C40.7524 36.2322 39.2569 36.3528 38.6057 36.5457C38.4851 36.5819 38.6177 36.4975 38.9072 36.3528C39.2569 36.1839 39.8358 36.0633 40.6197 35.991C42.3564 35.8462 43.1403 35.4603 43.1403 34.7367C43.1403 34.0372 42.3685 33.6392 40.7162 33.4824C39.0881 33.3377 38.9675 33.0483 40.3424 32.6261C41.3192 32.3367 41.8137 31.9025 41.8137 31.3116C41.8137 30.4071 41.3192 30.1055 39.667 30.0211C38.666 29.9729 38.4248 29.997 37.9906 30.202ZM38.8589 30.4553C38.8228 30.5156 38.7263 30.5759 38.666 30.5759C38.5936 30.5759 38.5816 30.5156 38.6177 30.4553C38.6539 30.3829 38.7504 30.3347 38.8107 30.3347C38.8831 30.3347 38.8951 30.3829 38.8589 30.4553ZM42.3444 37.2091C42.5735 37.2935 42.6579 37.3779 42.5856 37.4503C42.3806 37.6553 41.0539 37.8362 40.2459 37.7759C39.3534 37.6915 38.3886 37.402 38.678 37.2814C39.4861 36.9678 41.6087 36.9317 42.3444 37.2091Z" fill="white"/>
<path d="M27 5V43" stroke="#F5F5F5" stroke-width="6"/>
<path d="M52 24L2 24" stroke="#F5F5F5" stroke-width="6"/>
</g>
</svg>
