<svg width="54" height="54" viewBox="0 0 54 54" fill="none" xmlns="http://www.w3.org/2000/svg">
<mask id="mask0_1_39921" style="mask-type:alpha" maskUnits="userSpaceOnUse" x="3" y="9" width="48" height="36">
<path d="M3.56934 18.1356C4.16681 13.4125 8.0415 10.0019 12.7861 9.60887C16.6412 9.28949 21.6196 9 27 9C32.3804 9 37.3588 9.28949 41.2139 9.60887C45.9585 10.0019 49.8332 13.4125 50.4307 18.1356C50.752 20.6759 51 23.704 51 27C51 30.296 50.752 33.3241 50.4307 35.8644C49.8332 40.5875 45.9585 43.9981 41.2139 44.3911C37.3588 44.7105 32.3804 45 27 45C21.6196 45 16.6412 44.7105 12.7861 44.3911C8.04151 43.9981 4.16681 40.5875 3.56934 35.8644C3.248 33.3241 3 30.296 3 27C3 23.704 3.248 20.6759 3.56934 18.1356Z" fill="#00D0BF"/>
</mask>
<g mask="url(#mask0_1_39921)">
<rect x="3" y="3" width="48" height="49" fill="#2E50A6"/>
<path d="M12.9906 12.202C12.7012 12.3347 12.472 12.5277 12.472 12.6241C12.472 12.7327 12.6409 12.7327 12.4238 12.805C12.2187 12.8774 11.664 12.9739 11.278 12.9618C11.1454 12.9618 10.8318 12.8774 10.7474 12.8774C10.6509 12.8895 11.1574 13.0945 10.9645 13.0462C10.6992 12.9739 10.5424 12.9498 10.7474 13.0824C10.9042 13.1789 11.2539 13.1789 11.7484 13.1186C11.9414 13.0945 12.4479 12.9859 12.6288 12.9618C12.7494 12.9498 12.7494 13.0583 12.8218 13.0583C13.473 13.0945 14.6308 13.0704 15.1373 12.998C15.5594 12.9377 15.7162 12.9618 15.8368 13.1066C16.078 13.3839 15.8248 13.6251 15.1373 13.7699C14.2931 13.9508 13.9434 14.1076 13.6177 14.4573C12.8338 15.3015 13.7504 16.2543 15.463 16.3869C16.464 16.4714 17.1152 16.6643 16.9584 16.8211C16.8981 16.8814 16.2348 16.9779 15.475 17.0382C13.8228 17.1709 13.0871 17.4 12.46 18.003C12.1102 18.3407 11.9896 18.5457 11.9896 18.8231C11.9896 19.2091 11.9896 19.2091 11.3504 19.2091C11.0127 19.2091 10.5424 19.1608 10.3253 19.0885C9.9876 19.004 9.93936 19.004 10.06 19.1488C10.3012 19.4382 10.9886 19.6915 11.5554 19.6915C11.9896 19.6915 12.2308 19.7759 12.6167 20.0533C13.3886 20.6201 14.269 20.8372 15.7283 20.8251C17.6459 20.8131 18.7434 20.3065 18.7434 19.4503C18.7434 18.8111 18.0197 18.4372 16.5122 18.3045C15.7524 18.2322 14.2569 18.3528 13.6057 18.5457C13.4851 18.5819 13.6177 18.4975 13.9072 18.3528C14.2569 18.1839 14.8358 18.0633 15.6197 17.991C17.3564 17.8462 18.1403 17.4603 18.1403 16.7367C18.1403 16.0372 17.3685 15.6392 15.7162 15.4824C14.0881 15.3377 13.9675 15.0483 15.3424 14.6261C16.3192 14.3367 16.8137 13.9025 16.8137 13.3116C16.8137 12.4071 16.3192 12.1055 14.667 12.0211C13.666 11.9729 13.4248 11.997 12.9906 12.202V12.202ZM13.8589 12.4553C13.8228 12.5156 13.7263 12.5759 13.666 12.5759C13.5936 12.5759 13.5816 12.5156 13.6177 12.4553C13.6539 12.3829 13.7504 12.3347 13.8107 12.3347C13.8831 12.3347 13.8951 12.3829 13.8589 12.4553ZM17.3444 19.2091C17.5735 19.2935 17.6579 19.3779 17.5856 19.4503C17.3806 19.6553 16.0539 19.8362 15.2459 19.7759C14.3534 19.6915 13.3886 19.402 13.678 19.2814C14.4861 18.9678 16.6087 18.9317 17.3444 19.2091V19.2091Z" fill="white"/>
<path d="M37.9906 12.202C37.7012 12.3347 37.472 12.5277 37.472 12.6241C37.472 12.7327 37.6409 12.7327 37.4238 12.805C37.2187 12.8774 36.664 12.9739 36.278 12.9618C36.1454 12.9618 35.8318 12.8774 35.7474 12.8774C35.6509 12.8895 36.1574 13.0945 35.9645 13.0462C35.6992 12.9739 35.5424 12.9498 35.7474 13.0824C35.9042 13.1789 36.2539 13.1789 36.7484 13.1186C36.9414 13.0945 37.4479 12.9859 37.6288 12.9618C37.7494 12.9498 37.7494 13.0583 37.8218 13.0583C38.473 13.0945 39.6308 13.0704 40.1373 12.998C40.5594 12.9377 40.7162 12.9618 40.8368 13.1066C41.078 13.3839 40.8248 13.6251 40.1373 13.7699C39.2931 13.9508 38.9434 14.1076 38.6177 14.4573C37.8338 15.3015 38.7504 16.2543 40.463 16.3869C41.464 16.4714 42.1152 16.6643 41.9584 16.8211C41.8981 16.8814 41.2348 16.9779 40.475 17.0382C38.8228 17.1709 38.0871 17.4 37.46 18.003C37.1102 18.3407 36.9896 18.5457 36.9896 18.8231C36.9896 19.2091 36.9896 19.2091 36.3504 19.2091C36.0127 19.2091 35.5424 19.1608 35.3253 19.0885C34.9876 19.004 34.9394 19.004 35.06 19.1488C35.3012 19.4382 35.9886 19.6915 36.5554 19.6915C36.9896 19.6915 37.2308 19.7759 37.6167 20.0533C38.3886 20.6201 39.269 20.8372 40.7283 20.8251C42.6459 20.8131 43.7434 20.3065 43.7434 19.4503C43.7434 18.8111 43.0197 18.4372 41.5122 18.3045C40.7524 18.2322 39.2569 18.3528 38.6057 18.5457C38.4851 18.5819 38.6177 18.4975 38.9072 18.3528C39.2569 18.1839 39.8358 18.0633 40.6197 17.991C42.3564 17.8462 43.1403 17.4603 43.1403 16.7367C43.1403 16.0372 42.3685 15.6392 40.7162 15.4824C39.0881 15.3377 38.9675 15.0483 40.3424 14.6261C41.3192 14.3367 41.8137 13.9025 41.8137 13.3116C41.8137 12.4071 41.3192 12.1055 39.667 12.0211C38.666 11.9729 38.4248 11.997 37.9906 12.202V12.202ZM38.8589 12.4553C38.8228 12.5156 38.7263 12.5759 38.666 12.5759C38.5936 12.5759 38.5816 12.5156 38.6177 12.4553C38.6539 12.3829 38.7504 12.3347 38.8107 12.3347C38.8831 12.3347 38.8951 12.3829 38.8589 12.4553ZM42.3444 19.2091C42.5735 19.2935 42.6579 19.3779 42.5856 19.4503C42.3806 19.6553 41.0539 19.8362 40.2459 19.7759C39.3534 19.6915 38.3886 19.402 38.678 19.2814C39.4861 18.9678 41.6087 18.9317 42.3444 19.2091V19.2091Z" fill="white"/>
<path d="M12.9906 33.202C12.7012 33.3347 12.472 33.5277 12.472 33.6241C12.472 33.7327 12.6409 33.7327 12.4238 33.805C12.2187 33.8774 11.664 33.9739 11.278 33.9618C11.1454 33.9618 10.8318 33.8774 10.7474 33.8774C10.6509 33.8895 11.1574 34.0945 10.9645 34.0462C10.6992 33.9739 10.5424 33.9498 10.7474 34.0824C10.9042 34.1789 11.2539 34.1789 11.7484 34.1186C11.9414 34.0945 12.4479 33.9859 12.6288 33.9618C12.7494 33.9498 12.7494 34.0583 12.8218 34.0583C13.473 34.0945 14.6308 34.0704 15.1373 33.998C15.5594 33.9377 15.7162 33.9618 15.8368 34.1066C16.078 34.3839 15.8248 34.6251 15.1373 34.7699C14.2931 34.9508 13.9434 35.1076 13.6177 35.4573C12.8338 36.3015 13.7504 37.2543 15.463 37.3869C16.464 37.4714 17.1152 37.6643 16.9584 37.8211C16.8981 37.8814 16.2348 37.9779 15.475 38.0382C13.8228 38.1709 13.0871 38.4 12.46 39.003C12.1102 39.3407 11.9896 39.5457 11.9896 39.8231C11.9896 40.2091 11.9896 40.2091 11.3504 40.2091C11.0127 40.2091 10.5424 40.1608 10.3253 40.0885C9.9876 40.004 9.93936 40.004 10.06 40.1488C10.3012 40.4382 10.9886 40.6915 11.5554 40.6915C11.9896 40.6915 12.2308 40.7759 12.6167 41.0533C13.3886 41.6201 14.269 41.8372 15.7283 41.8251C17.6459 41.8131 18.7434 41.3065 18.7434 40.4503C18.7434 39.8111 18.0197 39.4372 16.5122 39.3045C15.7524 39.2322 14.2569 39.3528 13.6057 39.5457C13.4851 39.5819 13.6177 39.4975 13.9072 39.3528C14.2569 39.1839 14.8358 39.0633 15.6197 38.991C17.3564 38.8462 18.1403 38.4603 18.1403 37.7367C18.1403 37.0372 17.3685 36.6392 15.7162 36.4824C14.0881 36.3377 13.9675 36.0483 15.3424 35.6261C16.3192 35.3367 16.8137 34.9025 16.8137 34.3116C16.8137 33.4071 16.3192 33.1055 14.667 33.0211C13.666 32.9729 13.4248 32.997 12.9906 33.202V33.202ZM13.8589 33.4553C13.8228 33.5156 13.7263 33.5759 13.666 33.5759C13.5936 33.5759 13.5816 33.5156 13.6177 33.4553C13.6539 33.3829 13.7504 33.3347 13.8107 33.3347C13.8831 33.3347 13.8951 33.3829 13.8589 33.4553ZM17.3444 40.2091C17.5735 40.2935 17.6579 40.3779 17.5856 40.4503C17.3806 40.6553 16.0539 40.8362 15.2459 40.7759C14.3534 40.6915 13.3886 40.402 13.678 40.2814C14.4861 39.9678 16.6087 39.9317 17.3444 40.2091V40.2091Z" fill="white"/>
<path d="M37.9906 33.202C37.7012 33.3347 37.472 33.5277 37.472 33.6241C37.472 33.7327 37.6409 33.7327 37.4238 33.805C37.2187 33.8774 36.664 33.9739 36.278 33.9618C36.1454 33.9618 35.8318 33.8774 35.7474 33.8774C35.6509 33.8895 36.1574 34.0945 35.9645 34.0462C35.6992 33.9739 35.5424 33.9498 35.7474 34.0824C35.9042 34.1789 36.2539 34.1789 36.7484 34.1186C36.9414 34.0945 37.4479 33.9859 37.6288 33.9618C37.7494 33.9498 37.7494 34.0583 37.8218 34.0583C38.473 34.0945 39.6308 34.0704 40.1373 33.998C40.5594 33.9377 40.7162 33.9618 40.8368 34.1066C41.078 34.3839 40.8248 34.6251 40.1373 34.7699C39.2931 34.9508 38.9434 35.1076 38.6177 35.4573C37.8338 36.3015 38.7504 37.2543 40.463 37.3869C41.464 37.4714 42.1152 37.6643 41.9584 37.8211C41.8981 37.8814 41.2348 37.9779 40.475 38.0382C38.8228 38.1709 38.0871 38.4 37.46 39.003C37.1102 39.3407 36.9896 39.5457 36.9896 39.8231C36.9896 40.2091 36.9896 40.2091 36.3504 40.2091C36.0127 40.2091 35.5424 40.1608 35.3253 40.0885C34.9876 40.004 34.9394 40.004 35.06 40.1488C35.3012 40.4382 35.9886 40.6915 36.5554 40.6915C36.9896 40.6915 37.2308 40.7759 37.6167 41.0533C38.3886 41.6201 39.269 41.8372 40.7283 41.8251C42.6459 41.8131 43.7434 41.3065 43.7434 40.4503C43.7434 39.8111 43.0197 39.4372 41.5122 39.3045C40.7524 39.2322 39.2569 39.3528 38.6057 39.5457C38.4851 39.5819 38.6177 39.4975 38.9072 39.3528C39.2569 39.1839 39.8358 39.0633 40.6197 38.991C42.3564 38.8462 43.1403 38.4603 43.1403 37.7367C43.1403 37.0372 42.3685 36.6392 40.7162 36.4824C39.0881 36.3377 38.9675 36.0483 40.3424 35.6261C41.3192 35.3367 41.8137 34.9025 41.8137 34.3116C41.8137 33.4071 41.3192 33.1055 39.667 33.0211C38.666 32.9729 38.4248 32.997 37.9906 33.202V33.202ZM38.8589 33.4553C38.8228 33.5156 38.7263 33.5759 38.666 33.5759C38.5936 33.5759 38.5816 33.5156 38.6177 33.4553C38.6539 33.3829 38.7504 33.3347 38.8107 33.3347C38.8831 33.3347 38.8951 33.3829 38.8589 33.4553ZM42.3444 40.2091C42.5735 40.2935 42.6579 40.3779 42.5856 40.4503C42.3806 40.6553 41.0539 40.8362 40.2459 40.7759C39.3534 40.6915 38.3886 40.402 38.678 40.2814C39.4861 39.9678 41.6087 39.9317 42.3444 40.2091V40.2091Z" fill="white"/>
<path d="M27 8V46" stroke="#F5F5F5" stroke-width="6"/>
<path d="M52 27L2 27" stroke="#F5F5F5" stroke-width="6"/>
</g>
</svg>
