<svg width="54" height="54" viewBox="0 0 54 54" fill="none" xmlns="http://www.w3.org/2000/svg">
<mask id="mask0_1_40450" style="mask-type:alpha" maskUnits="userSpaceOnUse" x="3" y="9" width="48" height="36">
<path d="M3.56934 18.1356C4.16681 13.4125 8.0415 10.0019 12.7861 9.60887C16.6412 9.28949 21.6196 9 27 9C32.3804 9 37.3588 9.28949 41.2139 9.60887C45.9585 10.0019 49.8332 13.4125 50.4307 18.1356C50.752 20.6759 51 23.704 51 27C51 30.296 50.752 33.3241 50.4307 35.8644C49.8332 40.5875 45.9585 43.9981 41.2139 44.3911C37.3588 44.7105 32.3804 45 27 45C21.6196 45 16.6412 44.7105 12.7861 44.3911C8.04151 43.9981 4.16681 40.5875 3.56934 35.8644C3.248 33.3241 3 30.296 3 27C3 23.704 3.248 20.6759 3.56934 18.1356Z" fill="#00D0BF"/>
</mask>
<g mask="url(#mask0_1_40450)">
<path d="M3.56934 18.1356C4.16681 13.4125 8.0415 10.0019 12.7861 9.60887C16.6412 9.28949 21.6196 9 27 9C32.3804 9 37.3588 9.28949 41.2139 9.60887C45.9585 10.0019 49.8332 13.4125 50.4307 18.1356C50.752 20.6759 51 23.704 51 27C51 30.296 50.752 33.3241 50.4307 35.8644C49.8332 40.5875 45.9585 43.9981 41.2139 44.3911C37.3588 44.7105 32.3804 45 27 45C21.6196 45 16.6412 44.7105 12.7861 44.3911C8.04151 43.9981 4.16681 40.5875 3.56934 35.8644C3.248 33.3241 3 30.296 3 27C3 23.704 3.248 20.6759 3.56934 18.1356Z" fill="#EE5757"/>
<rect x="3" y="33" width="48" height="12" fill="#59C785"/>
<rect x="3" y="9" width="48" height="12" fill="#2C2929"/>
<path d="M26.7475 26.7703C29.7188 26.7703 32.1276 24.3616 32.1276 21.3903C32.1276 18.4189 29.7188 16.0102 26.7475 16.0102C23.7762 16.0102 21.3674 18.4189 21.3674 21.3903C21.3674 24.3616 23.7762 26.7703 26.7475 26.7703Z" fill="#EE5757"/>
<path d="M26.7475 12.8823C26.5668 12.8823 26.4973 13.1534 26.4973 13.4244C26.4973 14.0778 26.5773 14.4194 26.7475 15.3846C26.9177 14.4194 26.9977 14.0778 26.9977 13.4244C26.9977 13.1534 26.9282 12.8823 26.7475 12.8823Z" fill="#EE5757"/>
<path d="M27.6715 12.9317C27.4918 12.9125 27.3938 13.1746 27.3648 13.4441C27.2951 14.0938 27.3382 14.4419 27.4043 15.4198C27.6766 14.4783 27.7927 14.1472 27.8624 13.4975C27.8914 13.228 27.8512 12.951 27.6715 12.9317Z" fill="#EE5757"/>
<path d="M25.788 12.9356C25.6084 12.9556 25.5694 13.2328 25.5994 13.5022C25.6719 14.1515 25.7893 14.4822 26.0654 15.4225C26.1276 14.4444 26.1692 14.0961 26.0968 13.4467C26.0667 13.1773 25.9676 12.9156 25.788 12.9356Z" fill="#EE5757"/>
<path d="M28.5908 13.0809C28.4142 13.0424 28.2886 13.2924 28.2308 13.5573C28.0917 14.1957 28.0971 14.5465 28.0578 15.5258C28.4297 14.619 28.5806 14.3023 28.7198 13.6639C28.7776 13.399 28.7674 13.1194 28.5908 13.0809Z" fill="#EE5757"/>
<path d="M29.6054 13.3678C29.4348 13.3081 29.2797 13.541 29.1901 13.7969C28.9744 14.4137 28.9371 14.7625 28.779 15.7298C29.2584 14.8749 29.4468 14.5789 29.6625 13.9622C29.7521 13.7063 29.776 13.4275 29.6054 13.3678Z" fill="#EE5757"/>
<path d="M31.3473 14.206C31.1943 14.1099 30.9913 14.3026 30.8472 14.5322C30.4999 15.0857 30.3861 15.4175 30.0173 16.3256C30.6744 15.5985 30.9238 15.3517 31.2711 14.7982C31.4152 14.5686 31.5004 14.302 31.3473 14.206Z" fill="#EE5757"/>
<path d="M32.1038 14.7391C31.9618 14.6272 31.7394 14.7971 31.5717 15.01C31.1672 15.5232 31.0187 15.8411 30.555 16.7045C31.286 16.0517 31.5603 15.833 31.9647 15.3198C32.1325 15.1069 32.2457 14.8509 32.1038 14.7391Z" fill="#EE5757"/>
<path d="M30.5063 13.7412C30.3435 13.6627 30.1631 13.8767 30.0454 14.1209C29.7616 14.7094 29.6853 15.0519 29.4194 15.9952C29.9919 15.1997 30.2124 14.9268 30.4962 14.3383C30.6139 14.0941 30.6691 13.8197 30.5063 13.7412Z" fill="#EE5757"/>
<path d="M32.8031 15.354C32.674 15.2275 32.4346 15.3725 32.2449 15.5662C31.7877 16.033 31.6059 16.333 31.0521 17.1416C31.849 16.5712 32.1453 16.3832 32.6025 15.9164C32.7922 15.7227 32.9322 15.4804 32.8031 15.354Z" fill="#EE5757"/>
<path d="M33.51 16.1363C33.3973 15.9951 33.142 16.1099 32.9302 16.2791C32.4196 16.6868 32.2026 16.9625 31.5546 17.6978C32.415 17.2285 32.7319 17.0779 33.2425 16.6702C33.4543 16.501 33.6228 16.2776 33.51 16.1363Z" fill="#EE5757"/>
<path d="M22.1261 14.2195C21.9733 14.3161 22.0593 14.5824 22.204 14.8116C22.5529 15.364 22.803 15.6101 23.4624 16.3352C23.0908 15.4283 22.9761 15.0967 22.6272 14.5443C22.4824 14.3151 22.2789 14.123 22.1261 14.2195Z" fill="#EE5757"/>
<path d="M22.9338 13.7679C22.7716 13.8475 22.8286 14.1215 22.9481 14.3649C23.236 14.9514 23.4584 15.2227 24.0366 16.0142C23.764 15.0727 23.6853 14.7308 23.3974 14.1443C23.2779 13.901 23.096 13.6883 22.9338 13.7679Z" fill="#EE5757"/>
<path d="M21.3434 14.777C21.2022 14.8899 21.3172 15.145 21.4865 15.3568C21.8945 15.8671 22.1704 16.0839 22.906 16.7315C22.4362 15.8714 22.2854 15.5546 21.8774 15.0442C21.7081 14.8325 21.4846 14.6642 21.3434 14.777Z" fill="#EE5757"/>
<path d="M23.7906 13.4031C23.6207 13.4648 23.648 13.7434 23.7407 13.9981C23.9639 14.6122 24.1559 14.9059 24.6456 15.7548C24.4758 14.7896 24.4343 14.4412 24.211 13.8271C24.1184 13.5724 23.9604 13.3413 23.7906 13.4031Z" fill="#EE5757"/>
<path d="M24.8017 13.1039C24.6256 13.1445 24.6188 13.4243 24.6798 13.6884C24.8267 14.3251 24.9815 14.6399 25.3643 15.5421C25.3131 14.5634 25.3143 14.2126 25.1674 13.5759C25.1065 13.3117 24.9778 13.0632 24.8017 13.1039Z" fill="#EE5757"/>
<path d="M18.9126 17.8612C18.8359 18.0248 19.0518 18.2029 19.2972 18.318C19.8887 18.5955 20.232 18.6681 21.1781 18.9239C20.3765 18.3599 20.1013 18.1424 19.5097 17.8649C19.2643 17.7498 18.9893 17.6976 18.9126 17.8612Z" fill="#EE5757"/>
<path d="M19.3498 17.0456C19.256 17.2001 19.4517 17.4002 19.6834 17.5409C20.242 17.8799 20.5755 17.9887 21.4889 18.3441C20.7521 17.6978 20.5017 17.4521 19.9431 17.113C19.7114 16.9724 19.4436 16.8911 19.3498 17.0456Z" fill="#EE5757"/>
<path d="M18.5535 18.7525C18.4953 18.9236 18.7296 19.0766 18.9863 19.1638C19.605 19.374 19.9542 19.4081 20.9228 19.5574C20.0637 19.0858 19.766 18.9001 19.1473 18.69C18.8906 18.6028 18.6116 18.5814 18.5535 18.7525Z" fill="#EE5757"/>
<path d="M19.8752 16.2767C19.7653 16.4202 19.9384 16.6402 20.1536 16.8049C20.6725 17.202 20.9924 17.3461 21.8623 17.7975C21.1993 17.0758 20.9767 16.8046 20.4578 16.4075C20.2425 16.2427 19.985 16.1332 19.8752 16.2767Z" fill="#EE5757"/>
<path d="M20.5659 15.48C20.4394 15.6091 20.5844 15.8484 20.778 16.0381C21.2448 16.4954 21.5448 16.6773 22.3533 17.2312C21.783 16.4341 21.595 16.1379 21.1283 15.6806C20.9346 15.4909 20.6923 15.3509 20.5659 15.48Z" fill="#EE5757"/>
<path d="M34.5661 17.8267C34.4886 17.6634 34.2139 17.7168 33.969 17.833C33.3786 18.1131 33.1043 18.3318 32.3053 18.8993C33.2502 18.6394 33.5932 18.5653 34.1835 18.2852C34.4284 18.169 34.6435 17.99 34.5661 17.8267Z" fill="#EE5757"/>
<path d="M34.9175 18.6828C34.8579 18.5122 34.579 18.5359 34.3231 18.6253C33.7063 18.8408 33.4102 19.029 32.5551 19.5079C33.5224 19.3503 33.8713 19.3132 34.4881 19.0978C34.7441 19.0084 34.9771 18.8534 34.9175 18.6828Z" fill="#EE5757"/>
<path d="M34.1066 16.9827C34.0116 16.829 33.7444 16.9126 33.5139 17.0552C32.9583 17.399 32.7099 17.6468 31.9787 18.2994C32.889 17.9363 33.2216 17.8246 33.7773 17.4808C34.0078 17.3382 34.2017 17.1364 34.1066 16.9827Z" fill="#EE5757"/>
</g>
<rect x="17" y="20" width="20" height="1" fill="#2C2929"/>
</svg>
