<svg width="54" height="48" viewBox="0 0 54 48" fill="none" xmlns="http://www.w3.org/2000/svg">
<mask id="mask0_1_40450" style="mask-type:alpha" maskUnits="userSpaceOnUse" x="3" y="6" width="48" height="36">
<path d="M3.56934 15.1356C4.16681 10.4125 8.0415 7.00193 12.7861 6.60887C16.6412 6.28949 21.6196 6 27 6C32.3804 6 37.3588 6.28949 41.2139 6.60887C45.9585 7.00193 49.8332 10.4125 50.4307 15.1356C50.752 17.6759 51 20.704 51 24C51 27.296 50.752 30.3241 50.4307 32.8644C49.8332 37.5875 45.9585 40.9981 41.2139 41.3911C37.3588 41.7105 32.3804 42 27 42C21.6196 42 16.6412 41.7105 12.7861 41.3911C8.0415 40.9981 4.16681 37.5875 3.56934 32.8644C3.248 30.3241 3 27.296 3 24C3 20.704 3.248 17.6759 3.56934 15.1356Z" fill="#00D0BF"/>
</mask>
<g mask="url(#mask0_1_40450)">
<path d="M3.56934 15.1356C4.16681 10.4125 8.0415 7.00193 12.7861 6.60887C16.6412 6.28949 21.6196 6 27 6C32.3804 6 37.3588 6.28949 41.2139 6.60887C45.9585 7.00193 49.8332 10.4125 50.4307 15.1356C50.752 17.6759 51 20.704 51 24C51 27.296 50.752 30.3241 50.4307 32.8644C49.8332 37.5875 45.9585 40.9981 41.2139 41.3911C37.3588 41.7105 32.3804 42 27 42C21.6196 42 16.6412 41.7105 12.7861 41.3911C8.0415 40.9981 4.16681 37.5875 3.56934 32.8644C3.248 30.3241 3 27.296 3 24C3 20.704 3.248 17.6759 3.56934 15.1356Z" fill="#EE5757"/>
<rect x="3" y="30" width="48" height="12" fill="#59C785"/>
<rect x="3" y="6" width="48" height="12" fill="#2C2929"/>
<path d="M26.7475 23.7703C29.7188 23.7703 32.1276 21.3616 32.1276 18.3903C32.1276 15.4189 29.7188 13.0102 26.7475 13.0102C23.7762 13.0102 21.3674 15.4189 21.3674 18.3903C21.3674 21.3616 23.7762 23.7703 26.7475 23.7703Z" fill="#EE5757"/>
<path d="M26.7475 9.88227C26.5668 9.88227 26.4973 10.1534 26.4973 10.4244C26.4973 11.0778 26.5773 11.4194 26.7475 12.3846C26.9177 11.4194 26.9977 11.0778 26.9977 10.4244C26.9977 10.1534 26.9282 9.88227 26.7475 9.88227Z" fill="#EE5757"/>
<path d="M27.6715 9.93176C27.4918 9.91246 27.3938 10.1746 27.3648 10.4441C27.2951 11.0938 27.3382 11.442 27.4043 12.4198C27.6766 11.4783 27.7927 11.1472 27.8624 10.4976C27.8914 10.228 27.8512 9.95105 27.6715 9.93176Z" fill="#EE5757"/>
<path d="M25.788 9.93561C25.6084 9.95565 25.5694 10.2328 25.5994 10.5022C25.6719 11.1516 25.7893 11.4822 26.0654 12.4225C26.1276 11.4444 26.1692 11.0961 26.0968 10.4467C26.0667 10.1773 25.9676 9.91558 25.788 9.93561Z" fill="#EE5757"/>
<path d="M28.5908 10.0809C28.4142 10.0424 28.2886 10.2924 28.2308 10.5573C28.0917 11.1957 28.0971 11.5465 28.0578 12.5258C28.4297 11.619 28.5806 11.3023 28.7198 10.6639C28.7776 10.399 28.7674 10.1194 28.5908 10.0809Z" fill="#EE5757"/>
<path d="M29.6054 10.3678C29.4348 10.3081 29.2797 10.5411 29.1901 10.7969C28.9744 11.4137 28.9371 11.7625 28.779 12.7298C29.2584 11.8749 29.4468 11.5789 29.6625 10.9622C29.7521 10.7063 29.776 10.4275 29.6054 10.3678Z" fill="#EE5757"/>
<path d="M31.3473 11.206C31.1943 11.1099 30.9913 11.3026 30.8472 11.5322C30.4999 12.0857 30.3861 12.4175 30.0173 13.3256C30.6744 12.5985 30.9238 12.3517 31.2711 11.7982C31.4152 11.5686 31.5004 11.302 31.3473 11.206Z" fill="#EE5757"/>
<path d="M32.1038 11.7391C31.9618 11.6272 31.7394 11.7971 31.5717 12.01C31.1672 12.5232 31.0187 12.8411 30.555 13.7045C31.286 13.0517 31.5603 12.833 31.9647 12.3198C32.1325 12.1069 32.2457 11.8509 32.1038 11.7391Z" fill="#EE5757"/>
<path d="M30.5063 10.7412C30.3435 10.6627 30.1631 10.8767 30.0454 11.1209C29.7616 11.7094 29.6853 12.0519 29.4194 12.9952C29.9919 12.1997 30.2124 11.9268 30.4962 11.3383C30.6139 11.0941 30.6691 10.8197 30.5063 10.7412Z" fill="#EE5757"/>
<path d="M32.8031 12.354C32.674 12.2275 32.4346 12.3725 32.2449 12.5662C31.7877 13.033 31.6059 13.333 31.0521 14.1416C31.849 13.5712 32.1453 13.3832 32.6025 12.9164C32.7922 12.7227 32.9322 12.4804 32.8031 12.354Z" fill="#EE5757"/>
<path d="M33.51 13.1363C33.3973 12.9951 33.142 13.11 32.9302 13.2791C32.4196 13.6868 32.2026 13.9625 31.5546 14.6978C32.415 14.2285 32.7319 14.0779 33.2425 13.6702C33.4543 13.501 33.6228 13.2776 33.51 13.1363Z" fill="#EE5757"/>
<path d="M22.1261 11.2195C21.9733 11.3161 22.0593 11.5824 22.204 11.8116C22.5529 12.364 22.803 12.6101 23.4624 13.3352C23.0908 12.4283 22.9761 12.0967 22.6272 11.5443C22.4824 11.3151 22.2789 11.123 22.1261 11.2195Z" fill="#EE5757"/>
<path d="M22.9338 10.7679C22.7716 10.8475 22.8286 11.1215 22.9481 11.3649C23.236 11.9514 23.4584 12.2227 24.0366 13.0142C23.764 12.0727 23.6853 11.7308 23.3974 11.1443C23.2779 10.901 23.096 10.6883 22.9338 10.7679Z" fill="#EE5757"/>
<path d="M21.3434 11.777C21.2022 11.8899 21.3172 12.145 21.4865 12.3568C21.8945 12.8671 22.1704 13.0839 22.906 13.7315C22.4362 12.8714 22.2854 12.5546 21.8774 12.0442C21.7081 11.8325 21.4846 11.6642 21.3434 11.777Z" fill="#EE5757"/>
<path d="M23.7906 10.4031C23.6207 10.4648 23.648 10.7434 23.7407 10.9981C23.9639 11.6122 24.1559 11.9059 24.6456 12.7548C24.4758 11.7896 24.4343 11.4412 24.211 10.8271C24.1184 10.5724 23.9604 10.3413 23.7906 10.4031Z" fill="#EE5757"/>
<path d="M24.8017 10.1039C24.6256 10.1445 24.6188 10.4243 24.6798 10.6884C24.8267 11.3251 24.9815 11.6399 25.3643 12.5421C25.3131 11.5634 25.3143 11.2126 25.1674 10.5759C25.1065 10.3118 24.9778 10.0632 24.8017 10.1039Z" fill="#EE5757"/>
<path d="M18.9126 14.8612C18.8359 15.0248 19.0518 15.2029 19.2972 15.318C19.8887 15.5955 20.232 15.6681 21.1781 15.9239C20.3765 15.3599 20.1013 15.1424 19.5097 14.8649C19.2643 14.7498 18.9893 14.6976 18.9126 14.8612Z" fill="#EE5757"/>
<path d="M19.3498 14.0456C19.256 14.2001 19.4517 14.4002 19.6834 14.5409C20.242 14.8799 20.5755 14.9887 21.4889 15.3441C20.7521 14.6978 20.5017 14.4521 19.9431 14.113C19.7114 13.9724 19.4436 13.8911 19.3498 14.0456Z" fill="#EE5757"/>
<path d="M18.5535 15.7525C18.4953 15.9236 18.7296 16.0766 18.9863 16.1638C19.605 16.374 19.9542 16.4081 20.9228 16.5574C20.0637 16.0858 19.766 15.9001 19.1473 15.69C18.8906 15.6028 18.6116 15.5814 18.5535 15.7525Z" fill="#EE5757"/>
<path d="M19.8752 13.2767C19.7653 13.4202 19.9384 13.6402 20.1536 13.8049C20.6725 14.202 20.9924 14.3461 21.8623 14.7975C21.1993 14.0758 20.9767 13.8046 20.4578 13.4075C20.2425 13.2427 19.985 13.1332 19.8752 13.2767Z" fill="#EE5757"/>
<path d="M20.5659 12.48C20.4394 12.6091 20.5844 12.8484 20.778 13.0381C21.2448 13.4954 21.5448 13.6773 22.3533 14.2312C21.783 13.4341 21.595 13.1379 21.1283 12.6806C20.9346 12.4909 20.6923 12.3509 20.5659 12.48Z" fill="#EE5757"/>
<path d="M34.5661 14.8267C34.4886 14.6634 34.2139 14.7168 33.969 14.833C33.3786 15.1131 33.1043 15.3318 32.3053 15.8993C33.2502 15.6394 33.5932 15.5653 34.1835 15.2852C34.4284 15.169 34.6435 14.99 34.5661 14.8267Z" fill="#EE5757"/>
<path d="M34.9175 15.6828C34.8579 15.5122 34.579 15.5359 34.3231 15.6253C33.7063 15.8408 33.4102 16.029 32.5551 16.5079C33.5224 16.3503 33.8713 16.3132 34.4881 16.0978C34.7441 16.0084 34.9771 15.8534 34.9175 15.6828Z" fill="#EE5757"/>
<path d="M34.1066 13.9827C34.0116 13.8291 33.7444 13.9126 33.5139 14.0552C32.9583 14.399 32.7099 14.6468 31.9787 15.2994C32.889 14.9363 33.2216 14.8246 33.7773 14.4808C34.0078 14.3382 34.2017 14.1364 34.1066 13.9827Z" fill="#EE5757"/>
</g>
<rect x="17" y="17" width="20" height="1" fill="#2C2929"/>
</svg>
