<svg width="54" height="48" viewBox="0 0 54 48" fill="none" xmlns="http://www.w3.org/2000/svg">
<mask id="mask0_1_41766" style="mask-type:alpha" maskUnits="userSpaceOnUse" x="3" y="6" width="48" height="36">
<path d="M3.56934 15.1356C4.16681 10.4125 8.0415 7.00193 12.7861 6.60887C16.6412 6.28949 21.6196 6 27 6C32.3804 6 37.3588 6.28949 41.2139 6.60887C45.9585 7.00193 49.8332 10.4125 50.4307 15.1356C50.752 17.6759 51 20.704 51 24C51 27.296 50.752 30.3241 50.4307 32.8644C49.8332 37.5875 45.9585 40.9981 41.2139 41.3911C37.3588 41.7105 32.3804 42 27 42C21.6196 42 16.6412 41.7105 12.7861 41.3911C8.0415 40.9981 4.16681 37.5875 3.56934 32.8644C3.248 30.3241 3 27.296 3 24C3 20.704 3.248 17.6759 3.56934 15.1356Z" fill="#00D0BF"/>
</mask>
<g mask="url(#mask0_1_41766)">
<rect x="3" y="31.7143" width="48" height="2.57143" fill="#EE5757"/>
<rect x="3" y="39.4286" width="48" height="2.57143" fill="#F5F5F5"/>
<rect x="3" y="29.1428" width="48" height="2.57143" fill="#F5F5F5"/>
<rect x="3" y="36.8571" width="48" height="2.57143" fill="#EE5757"/>
<rect x="3" y="26.5714" width="48" height="2.57143" fill="#EE5757"/>
<rect x="3" y="34.2857" width="48" height="2.57143" fill="#F5F5F5"/>
<rect x="3" y="24" width="48" height="2.57143" fill="#F5F5F5"/>
<rect x="3" y="21.4286" width="48" height="2.57143" fill="#EE5757"/>
<rect x="3" y="18.8571" width="48" height="2.57143" fill="#F5F5F5"/>
<rect x="3" y="16.2857" width="48" height="2.57143" fill="#EE5757"/>
<rect x="3" y="13.7143" width="48" height="2.57143" fill="#F5F5F5"/>
<rect x="3" y="11.1429" width="48" height="2.57143" fill="#EE5757"/>
<rect x="3" y="8.57141" width="48" height="2.57143" fill="#F5F5F5"/>
<rect x="3" y="6" width="48" height="2.57143" fill="#EE5757"/>
<rect x="3" y="6" width="27" height="20.57" fill="#2E50A6"/>
<path d="M23.5 13L23.9801 14.7082L25.25 13.4689L24.8117 15.1883L26.5311 14.75L25.2918 16.0199L27 16.5L25.2918 16.9801L26.5311 18.25L24.8117 17.8117L25.25 19.5311L23.9801 18.2918L23.5 20L23.0199 18.2918L21.75 19.5311L22.1883 17.8117L20.4689 18.25L21.7082 16.9801L20 16.5L21.7082 16.0199L20.4689 14.75L22.1883 15.1883L21.75 13.4689L23.0199 14.7082L23.5 13Z" fill="#FCD95E"/>
<path d="M20 13.3013C19.2922 12.0817 18.1996 11.1285 16.8917 10.5896C15.5839 10.0507 14.1338 9.95611 12.7664 10.3206C11.399 10.6851 10.1907 11.4883 9.3289 12.6055C8.46712 13.7228 8 15.0917 8 16.5C8 17.9083 8.46712 19.2772 9.3289 20.3945C10.1907 21.5117 11.399 22.3149 12.7664 22.6794C14.1338 23.0439 15.5839 22.9493 16.8917 22.4104C18.1996 21.8715 19.2922 20.9183 20 19.6987C19.3338 20.5264 18.4257 21.1279 17.401 21.4199C16.3764 21.712 15.2858 21.6802 14.2801 21.3291C13.2744 20.9779 12.4032 20.3246 11.7868 19.4596C11.1704 18.5945 10.8394 17.5603 10.8394 16.5C10.8394 15.4397 11.1704 14.4055 11.7868 13.5404C12.4032 12.6754 13.2744 12.0221 14.2801 11.6709C15.2858 11.3198 16.3764 11.288 17.401 11.5801C18.4257 11.8721 19.3338 12.4736 20 13.3013Z" fill="#FCD95E"/>
</g>
</svg>
