<svg width="54" height="54" viewBox="0 0 54 54" fill="none" xmlns="http://www.w3.org/2000/svg">
<mask id="mask0_1_41766" style="mask-type:alpha" maskUnits="userSpaceOnUse" x="3" y="9" width="48" height="36">
<path d="M3.56934 18.1356C4.16681 13.4125 8.0415 10.0019 12.7861 9.60887C16.6412 9.28949 21.6196 9 27 9C32.3804 9 37.3588 9.28949 41.2139 9.60887C45.9585 10.0019 49.8332 13.4125 50.4307 18.1356C50.752 20.6759 51 23.704 51 27C51 30.296 50.752 33.3241 50.4307 35.8644C49.8332 40.5875 45.9585 43.9981 41.2139 44.3911C37.3588 44.7105 32.3804 45 27 45C21.6196 45 16.6412 44.7105 12.7861 44.3911C8.04151 43.9981 4.16681 40.5875 3.56934 35.8644C3.248 33.3241 3 30.296 3 27C3 23.704 3.248 20.6759 3.56934 18.1356Z" fill="#00D0BF"/>
</mask>
<g mask="url(#mask0_1_41766)">
<rect x="3" y="34.7143" width="48" height="2.57143" fill="#EE5757"/>
<rect x="3" y="42.4286" width="48" height="2.57143" fill="#F5F5F5"/>
<rect x="3" y="32.1428" width="48" height="2.57143" fill="#F5F5F5"/>
<rect x="3" y="39.8571" width="48" height="2.57143" fill="#EE5757"/>
<rect x="3" y="29.5714" width="48" height="2.57143" fill="#EE5757"/>
<rect x="3" y="37.2857" width="48" height="2.57143" fill="#F5F5F5"/>
<rect x="3" y="27" width="48" height="2.57143" fill="#F5F5F5"/>
<rect x="3" y="24.4286" width="48" height="2.57143" fill="#EE5757"/>
<rect x="3" y="21.8571" width="48" height="2.57143" fill="#F5F5F5"/>
<rect x="3" y="19.2857" width="48" height="2.57143" fill="#EE5757"/>
<rect x="3" y="16.7143" width="48" height="2.57143" fill="#F5F5F5"/>
<rect x="3" y="14.1429" width="48" height="2.57143" fill="#EE5757"/>
<rect x="3" y="11.5714" width="48" height="2.57143" fill="#F5F5F5"/>
<rect x="3" y="9" width="48" height="2.57143" fill="#EE5757"/>
<rect x="3" y="9" width="27" height="20.57" fill="#2E50A6"/>
<path d="M23.5 16L23.9801 17.7082L25.25 16.4689L24.8117 18.1883L26.5311 17.75L25.2918 19.0199L27 19.5L25.2918 19.9801L26.5311 21.25L24.8117 20.8117L25.25 22.5311L23.9801 21.2918L23.5 23L23.0199 21.2918L21.75 22.5311L22.1883 20.8117L20.4689 21.25L21.7082 19.9801L20 19.5L21.7082 19.0199L20.4689 17.75L22.1883 18.1883L21.75 16.4689L23.0199 17.7082L23.5 16Z" fill="#FCD95E"/>
<path d="M20 16.3013C19.2922 15.0817 18.1996 14.1285 16.8917 13.5896C15.5839 13.0507 14.1338 12.9561 12.7664 13.3206C11.399 13.6851 10.1907 14.4883 9.3289 15.6055C8.46712 16.7228 8 18.0917 8 19.5C8 20.9083 8.46712 22.2772 9.3289 23.3945C10.1907 24.5118 11.399 25.3149 12.7664 25.6794C14.1338 26.0439 15.5839 25.9493 16.8917 25.4104C18.1996 24.8715 19.2922 23.9183 20 22.6987C19.3338 23.5264 18.4257 24.1279 17.401 24.4199C16.3764 24.712 15.2858 24.6803 14.2801 24.3291C13.2744 23.9779 12.4032 23.3246 11.7868 22.4596C11.1704 21.5945 10.8394 20.5603 10.8394 19.5C10.8394 18.4397 11.1704 17.4055 11.7868 16.5404C12.4032 15.6754 13.2744 15.0221 14.2801 14.6709C15.2858 14.3198 16.3764 14.288 17.401 14.5801C18.4257 14.8721 19.3338 15.4736 20 16.3013Z" fill="#FCD95E"/>
</g>
</svg>
