<svg width="54" height="54" viewBox="0 0 54 54" fill="none" xmlns="http://www.w3.org/2000/svg">
<mask id="mask0_1_40079" style="mask-type:alpha" maskUnits="userSpaceOnUse" x="3" y="9" width="48" height="36">
<path d="M3.56934 18.1356C4.16681 13.4125 8.0415 10.0019 12.7861 9.60887C16.6412 9.28949 21.6196 9 27 9C32.3804 9 37.3588 9.28949 41.2139 9.60887C45.9585 10.0019 49.8332 13.4125 50.4307 18.1356C50.752 20.6759 51 23.704 51 27C51 30.296 50.752 33.3241 50.4307 35.8644C49.8332 40.5875 45.9585 43.9981 41.2139 44.3911C37.3588 44.7105 32.3804 45 27 45C21.6196 45 16.6412 44.7105 12.7861 44.3911C8.04151 43.9981 4.16681 40.5875 3.56934 35.8644C3.248 33.3241 3 30.296 3 27C3 23.704 3.248 20.6759 3.56934 18.1356Z" fill="#00D0BF"/>
</mask>
<g mask="url(#mask0_1_40079)">
<rect x="3" y="3" width="48" height="49" fill="#59C785"/>
<path d="M3 2L58.5 3L0 49.5L3 51V2Z" fill="#3F6FEB"/>
<path d="M15 13L15.93 15.52L18 13.804L17.544 16.456L20.196 16L18.48 18.07L21 19L18.48 19.93L20.196 22L17.544 21.544L18 24.196L15.93 22.48L15 25L14.07 22.48L12 24.196L12.456 21.544L9.804 22L11.52 19.93L9 19L11.52 18.07L9.804 16L12.456 16.456L12 13.804L14.07 15.52L15 13Z" fill="#FCD95E"/>
<path d="M15 22.3C16.8226 22.3 18.3 20.8226 18.3 19C18.3 17.1775 16.8226 15.7 15 15.7C13.1775 15.7 11.7 17.1775 11.7 19C11.7 20.8226 13.1775 22.3 15 22.3Z" fill="#FCD95E" stroke="#3F6FEB" stroke-width="0.6"/>
<path d="M1 47L53 7" stroke="#F5F5F5" stroke-width="10"/>
<path d="M1 47L53 7" stroke="#EE5757" stroke-width="6"/>
</g>
</svg>
