<svg width="54" height="48" viewBox="0 0 54 48" fill="none" xmlns="http://www.w3.org/2000/svg">
<mask id="mask0_1_40079" style="mask-type:alpha" maskUnits="userSpaceOnUse" x="3" y="6" width="48" height="36">
<path d="M3.56934 15.1356C4.16681 10.4125 8.0415 7.00193 12.7861 6.60887C16.6412 6.28949 21.6196 6 27 6C32.3804 6 37.3588 6.28949 41.2139 6.60887C45.9585 7.00193 49.8332 10.4125 50.4307 15.1356C50.752 17.6759 51 20.704 51 24C51 27.296 50.752 30.3241 50.4307 32.8644C49.8332 37.5875 45.9585 40.9981 41.2139 41.3911C37.3588 41.7105 32.3804 42 27 42C21.6196 42 16.6412 41.7105 12.7861 41.3911C8.0415 40.9981 4.16681 37.5875 3.56934 32.8644C3.248 30.3241 3 27.296 3 24C3 20.704 3.248 17.6759 3.56934 15.1356Z" fill="#00D0BF"/>
</mask>
<g mask="url(#mask0_1_40079)">
<rect x="3" width="48" height="49" fill="#59C785"/>
<path d="M3 -1L58.5 0L0 46.5L3 48V-1Z" fill="#3F6FEB"/>
<path d="M15 10L15.93 12.52L18 10.804L17.544 13.456L20.196 13L18.48 15.07L21 16L18.48 16.93L20.196 19L17.544 18.544L18 21.196L15.93 19.48L15 22L14.07 19.48L12 21.196L12.456 18.544L9.804 19L11.52 16.93L9 16L11.52 15.07L9.804 13L12.456 13.456L12 10.804L14.07 12.52L15 10Z" fill="#FCD95E"/>
<path d="M15 19.3C16.8226 19.3 18.3 17.8226 18.3 16C18.3 14.1775 16.8226 12.7 15 12.7C13.1775 12.7 11.7 14.1775 11.7 16C11.7 17.8226 13.1775 19.3 15 19.3Z" fill="#FCD95E" stroke="#3F6FEB" stroke-width="0.6"/>
<path d="M1 44L53 4" stroke="#F5F5F5" stroke-width="10"/>
<path d="M1 44L53 4" stroke="#EE5757" stroke-width="6"/>
</g>
</svg>
