<svg width="54" height="48" viewBox="0 0 54 48" fill="none" xmlns="http://www.w3.org/2000/svg">
<mask id="mask0_1_34469" style="mask-type:alpha" maskUnits="userSpaceOnUse" x="3" y="6" width="48" height="36">
<path d="M3.56934 15.1356C4.16681 10.4125 8.0415 7.00193 12.7861 6.60887C16.6412 6.28949 21.6196 6 27 6C32.3804 6 37.3588 6.28949 41.2139 6.60887C45.9585 7.00193 49.8332 10.4125 50.4307 15.1356C50.752 17.6759 51 20.704 51 24C51 27.296 50.752 30.3241 50.4307 32.8644C49.8332 37.5875 45.9585 40.9981 41.2139 41.3911C37.3588 41.7105 32.3804 42 27 42C21.6196 42 16.6412 41.7105 12.7861 41.3911C8.0415 40.9981 4.16681 37.5875 3.56934 32.8644C3.248 30.3241 3 27.296 3 24C3 20.704 3.248 17.6759 3.56934 15.1356Z" fill="#00D0BF"/>
</mask>
<g mask="url(#mask0_1_34469)">
<rect x="3" width="16" height="49" fill="#1C6864"/>
<rect x="19" width="16" height="49" fill="#F5F5F5"/>
<path d="M27.1894 12.4998C27.143 13.0017 27.0965 13.5039 27.0502 14.0058C26.8802 14.0314 26.7103 14.0569 26.5403 14.0826C26.5403 14.0826 26.8944 14.2814 26.9562 14.4812C26.9661 14.5132 26.9622 14.5396 26.9479 14.5596C26.9432 14.5658 26.9359 14.5727 26.9294 14.5779C26.8268 14.6567 26.5235 14.6196 26.5235 14.6196C26.5235 14.6196 26.9253 14.9586 26.9562 15.0816C26.9569 15.0845 26.9579 15.0871 26.9579 15.0899C26.9579 15.0922 26.9584 15.096 26.9579 15.0983C26.9575 15.1 26.9553 15.1032 26.9546 15.1049C26.9518 15.111 26.9469 15.1178 26.9411 15.1233C26.8467 15.2105 26.401 15.235 26.401 15.235C26.401 15.235 26.8951 15.5873 26.926 15.7871C26.9541 15.9681 26.9306 16.0741 26.926 16.0923C26.8915 16.0628 26.0948 15.3932 25.5808 15.5886C25.5552 15.6019 25.5401 15.6146 25.5339 15.6269C25.5311 15.6331 25.5306 15.6408 25.5322 15.647C25.5682 15.7583 26.295 15.8724 26.8019 16.3108C26.7893 16.4205 25.3571 15.9618 25.3041 16.2491C25.3489 16.3301 26.8455 16.5458 26.9562 16.7411C26.4051 16.7616 25.2664 16.6198 25.3041 16.8011C25.1889 17.0105 26.3796 16.8922 26.8791 17.063C27.0255 17.2284 27.0114 17.3674 26.7566 17.3848C26.2752 17.1559 25.1976 16.9859 25.1951 17.2781C25.1951 17.2785 25.195 17.2795 25.1951 17.2798C25.1952 17.2801 25.1966 17.2812 25.1967 17.2814C25.1972 17.2824 25.1976 17.2839 25.1984 17.2848C25.2001 17.2864 25.204 17.2883 25.2068 17.2898C25.3285 17.3505 26.3319 17.3209 26.7097 17.57C26.1741 17.6911 24.3579 17.3242 24.3463 17.5033C24.3981 17.5869 24.6855 17.9539 25.18 17.9386C25.6745 17.9232 26.8185 18.1385 26.8959 18.2921C26.8983 18.2969 26.8983 18.3019 26.8976 18.3055C26.8641 18.4126 25.3909 17.9786 24.8244 18.2454C24.2372 18.522 26.5082 18.3544 26.8791 18.6924C27.25 19.0304 26.1377 18.6607 26.1377 18.6607C26.1377 18.6607 24.5932 18.4464 24.3614 18.554C24.1296 18.6616 23.8666 18.9075 23.8666 18.9075C23.8666 18.9075 24.0207 19.2141 24.1753 19.1527C24.1988 19.1433 24.2149 19.1414 24.2239 19.1444C24.2241 19.1445 24.2254 19.1443 24.2256 19.1444C24.2258 19.1445 24.2271 19.1459 24.2273 19.146C24.2276 19.1463 24.2286 19.1474 24.229 19.1477C24.2292 19.1481 24.2304 19.1491 24.2306 19.1494C24.2307 19.1495 24.2322 19.1509 24.2323 19.151C24.233 19.1526 24.2337 19.1558 24.234 19.1577C24.2376 19.2038 24.1283 19.3378 24.1283 19.3378C24.1283 19.3378 26.2927 19.8592 26.7717 20.3202C27.2508 20.7812 24.021 19.598 24.021 19.598C24.021 19.598 22.7229 20.0743 24.0981 20.105C23.9449 20.328 24.1616 20.4652 24.1753 20.4736C24.1753 20.4736 26.4629 20.9504 26.6946 21.3192C26.9264 21.6879 25.134 20.9652 24.7322 20.7655C24.3446 20.5727 23.2656 20.8674 23.2042 20.9572C23.2037 20.9579 23.2028 20.9599 23.2025 20.9606C23.2024 20.9609 23.2026 20.9619 23.2025 20.9623C23.2024 20.9629 23.2025 20.965 23.2025 20.9656C23.2026 20.9659 23.2025 20.967 23.2025 20.9673C23.2026 20.9676 23.2024 20.9686 23.2025 20.9689C23.2026 20.9693 23.204 20.9703 23.2042 20.9706C23.2043 20.9709 23.2041 20.972 23.2042 20.9723C23.2049 20.9735 23.2066 20.976 23.2075 20.9773C23.2078 20.9776 23.2089 20.9786 23.2092 20.9789C23.2783 21.0547 23.76 21.159 23.7745 21.2891C23.7745 21.2897 23.7744 21.2903 23.7745 21.2908C23.7747 21.2978 23.7725 21.306 23.7694 21.3125C23.7088 21.4295 23.1342 21.4792 23.1102 21.5894C23.1099 21.5912 23.1085 21.5941 23.1085 21.596C23.1085 21.719 25.9991 22.3183 26.7718 22.9636C27.5444 23.609 24.5007 22.1947 24.5007 22.1947C24.5007 22.1947 24.6707 22.4251 24.5007 22.4866C24.3307 22.548 23.7269 21.6262 22.7379 22.1947C22.5577 22.4287 23.6014 22.6143 23.8667 22.64C23.7761 22.8717 23.6971 22.9483 24.068 23.1787C24.1085 23.2039 24.1313 23.2192 24.1401 23.2271C24.1403 23.2273 24.1415 23.2285 24.1418 23.2288L24.1435 23.2304C24.1436 23.2306 24.1434 23.232 24.1435 23.2321C24.1434 23.2322 24.1435 23.2337 24.1435 23.2338C24.1433 23.2338 24.142 23.2338 24.1418 23.2338C24.1416 23.2338 24.1404 23.2338 24.1401 23.2338C24.0827 23.2249 23.4164 22.8844 23.3467 22.8702C23.346 22.8701 23.3439 22.8702 23.3434 22.8702C23.3431 22.8702 23.3418 22.8702 23.3417 22.8702C23.3417 22.9009 23.4188 23.2705 23.4188 23.2705C23.0765 22.9939 22.6626 22.9105 22.2749 23.1938C22.2744 23.2101 22.2715 23.4753 22.6607 23.6391C22.4414 24.0848 22.9086 23.9464 23.6504 24.3612C22.548 24.0748 22.4597 24.6069 23.2478 24.7298C24.0359 24.8527 26.1998 24.9297 26.7098 25.5904C26.8173 25.7298 26.8465 25.7998 26.8255 25.8222C26.7405 25.8989 25.958 25.3361 25.8443 25.3152C25.8441 25.3153 25.8429 25.315 25.8426 25.3152C25.8424 25.3154 25.8412 25.3166 25.8409 25.3169C25.8395 25.3187 25.8373 25.3223 25.8359 25.3252C25.8081 25.3864 25.7822 25.6521 25.7822 25.6521C25.4525 25.4624 25.1501 25.2922 24.7557 25.2118C24.7248 25.2732 24.7313 25.3605 24.7004 25.422C24.3425 25.1654 24.0308 24.985 23.5112 24.96C23.4905 25.042 23.4697 25.1248 23.4491 25.2068C23.4491 25.2068 23.0159 24.669 22.1659 25.2068C21.6913 25.5451 23.9588 25.3293 24.3296 25.7288C24.7005 26.1283 24.4068 26.1891 24.4068 26.1891C24.0977 26.0765 23.79 25.9649 23.4809 25.8523C23.4809 25.8523 22.3827 25.6515 22.0737 25.8973C21.7646 26.1432 26.5858 26.7426 26.7248 27.4033C26.8186 27.7617 25.5921 27.0281 24.5309 26.7129C24.4898 26.8302 24.4478 26.9475 24.4068 27.0648C24.3816 27.04 23.9711 26.643 23.5111 26.5745C23.5109 26.5747 23.5095 26.5757 23.5094 26.5761C23.5093 26.5767 23.5094 26.5787 23.5094 26.5795C23.5101 26.6299 23.6033 26.9897 23.6033 26.9897C23.6033 26.9897 22.4146 26.436 21.812 26.7279C21.2093 27.0198 23.913 27.1734 24.1602 27.4501C24.1872 27.4803 24.1985 27.5024 24.1971 27.5168C24.1966 27.5193 24.195 27.5231 24.1938 27.5251C24.134 27.6121 23.3278 27.2909 23.2478 27.4501C23.155 27.6345 21.8418 27.1125 21.8573 27.3583C21.8727 27.6042 22.0435 27.7419 22.0435 27.7419C22.0435 27.7419 24.7786 28.003 24.8714 28.3256C24.9641 28.6483 23.3568 28.1422 23.3568 28.1422C23.3568 28.1422 23.2013 28.3715 23.3249 28.4791C23.3298 28.4833 23.3336 28.4873 23.335 28.4891C23.335 28.4892 23.335 28.4907 23.335 28.4907C23.3349 28.4907 23.3335 28.4908 23.3333 28.4907C23.2774 28.4724 22.4066 27.9052 22.4913 28.3406C22.1505 28.2057 21.2707 27.7878 21.3943 28.1105C21.5161 28.4284 23.8109 28.8811 23.8784 28.8944C23.8177 28.8991 22.8473 28.9798 22.8922 29.2329C21.5915 28.445 21.5946 28.9175 21.6241 28.9544C21.6242 28.9545 21.6241 28.956 21.6241 28.9561C21.5511 28.9446 19.9509 28.5482 21.2233 29.2329C21.9056 29.6001 22.072 29.7433 22.0754 29.7983C22.0754 29.7995 22.0755 29.8022 22.0754 29.8033C22.0751 29.8048 22.0742 29.807 22.0737 29.8083C22.0736 29.8087 22.0722 29.8097 22.072 29.81C22.0714 29.8109 22.071 29.8125 22.0703 29.8133C22.0701 29.8136 22.0689 29.8147 22.0686 29.815C22.0684 29.8152 22.0672 29.8164 22.067 29.8167C22.0667 29.8169 22.0656 29.8181 22.0653 29.8184C22.0649 29.8186 22.0639 29.8198 22.0636 29.82C22.0372 29.8369 21.9732 29.8298 21.9546 29.83C21.9538 29.8301 21.9518 29.83 21.9512 29.83C21.9509 29.8301 21.9496 29.8315 21.9496 29.8317L21.9512 29.8334C21.9694 29.8602 22.0692 30.1312 22.0636 30.1786C22.0635 30.1794 22.0621 30.1813 22.0619 30.1819C22.0618 30.1822 22.062 30.1834 22.0619 30.1836C22.0619 30.1837 22.0603 30.1835 22.0602 30.1836C22.0601 30.1837 22.0604 30.1852 22.0602 30.1853C22.0601 30.1853 22.0587 30.1853 22.0586 30.1853C22.0584 30.1853 22.0571 30.1853 22.0569 30.1853C22.0011 30.1713 21.1583 29.7235 20.8693 29.6933C20.5757 29.6625 19.1846 30.077 20.668 30.7223C22.1515 31.3676 23.0627 30.5684 23.8817 30.6606C24.7007 30.7528 25.0878 30.8914 25.0106 31.1526C24.9333 31.4138 24.1728 30.2962 23.3735 31.2627C22.4643 31.0838 21.8475 30.9803 22.3168 31.6446C20.832 31.0929 19.9253 31.8129 21.7952 32.1049C23.6326 32.1588 24.7623 31.6596 24.7623 31.6596C24.7623 31.6596 25.0723 32.2293 25.5205 31.8297C25.9476 31.449 25.9812 31.9336 25.9968 31.9798C25.997 31.9805 25.9982 31.9811 25.9985 31.9815C25.9986 31.9816 25.9984 31.9831 25.9985 31.9832C25.9986 31.9832 26 31.9832 26.0002 31.9832C26.0332 31.9749 26.4312 31.7981 26.4312 31.7981C26.4673 31.7981 26.5042 31.7981 26.5403 31.7981V35.4856C27.0399 35.4907 27.5384 35.4954 28.0381 35.5006C28.0381 35.5006 27.559 32.29 27.8217 31.8598C28.0762 31.443 28.3168 31.488 28.3316 31.4912C28.3316 31.4912 29.3053 31.7825 29.4134 31.7364C29.4147 31.7358 29.4173 31.7353 29.4185 31.7347C29.4193 31.7342 29.4211 31.7335 29.4218 31.733C29.4237 31.7318 29.4268 31.7294 29.4285 31.728C29.4289 31.7278 29.4299 31.7266 29.4302 31.7263C29.5094 31.6545 29.4287 31.3711 29.9234 31.4145C30.0761 31.3592 30.0178 31.1171 30.1162 31.0575C30.118 31.0565 30.1211 31.0551 30.123 31.0542C30.1267 31.0525 30.1322 31.0505 30.1364 31.0492C30.1421 31.0476 30.1499 31.0465 30.1565 31.0459C30.311 31.0305 33.2932 31.8749 33.9422 31.0759C33.7722 30.6303 33.1842 31.0455 33.0297 31.0609C32.8906 31.0609 32.3029 30.7843 31.9629 31.0609C31.6539 30.8304 30.2487 30.6773 30.2487 30.6773C30.0633 30.4929 33.602 30.7689 33.8029 30.6306C34.2201 30.2157 33.0306 30.2622 32.8451 30.4004C32.5155 30.2007 32.1012 30.2155 31.8488 30.3537C31.7278 30.0659 30.5787 30.1905 29.9401 30.1086C29.7356 29.9893 29.7697 29.9209 29.9082 29.8467C31.2423 29.9031 32.5696 30.0763 33.9102 30.0168C34.2726 29.5471 33.4541 29.37 32.9525 29.77C32.658 29.2885 32.056 29.7544 31.6543 29.7083C31.2525 29.6622 31.4379 29.1712 31.9478 29.248C32.4578 29.3248 33.3696 29.2166 33.5395 28.9861C33.7095 28.7557 33.4381 28.5222 32.5969 28.741C32.3122 28.4643 31.6862 28.7405 31.3926 28.8327C31.0019 28.616 30.0931 28.8025 29.784 28.8794C29.4815 28.6924 31.3758 28.3874 31.3758 28.3874C32.107 28.3745 32.5194 28.2487 32.7512 28.1873C33.8565 27.5982 32.7358 27.5356 32.1557 27.9638C31.7957 27.6843 31.4538 27.9879 31.1293 28.0955C30.825 28.1964 30.2624 28.2698 30.1933 28.2406C30.1925 28.2403 30.1906 28.2394 30.19 28.239C30.1898 28.2388 30.1884 28.2374 30.1883 28.2373L30.1866 28.2356C30.1865 28.2355 30.1866 28.2341 30.1866 28.2339C30.1866 28.2338 30.1866 28.2325 30.1866 28.2323C30.1868 28.2316 30.1878 28.2297 30.1883 28.2289C30.2338 28.1587 31.0672 27.6502 31.0672 27.6502C31.0672 27.6502 32.149 27.5725 32.3654 27.5418C32.4972 27.523 32.9593 27.3055 32.9591 27.2249C32.9553 27.1748 32.7628 27.1794 32.1792 27.3266C31.6538 27.3727 31.3452 27.3429 31.1443 27.3583C30.8212 27.3251 30.6851 27.2912 30.6579 27.2616C30.6568 27.2603 30.6552 27.2578 30.6545 27.2566C30.6523 27.2512 30.6537 27.245 30.6579 27.2399C30.6589 27.2387 30.6615 27.2361 30.6629 27.2349C30.7421 27.172 31.2533 27.1265 31.2533 27.1265C31.2533 27.1265 32.814 26.9842 32.9172 26.903C32.9175 26.9027 32.9185 26.9017 32.9189 26.9013C32.9194 26.9006 32.9202 26.8986 32.9205 26.898C32.9207 26.8977 32.9221 26.8966 32.9222 26.8963C32.9543 26.2619 31.5982 26.5548 31.562 26.5594C31.5658 26.1133 30.338 26.5529 30.2805 26.5594C30.2804 26.5594 30.2789 26.5595 30.2788 26.5594C30.226 26.5285 30.203 26.4958 30.1983 26.466C30.1968 26.4547 30.1983 26.4419 30.2017 26.431C30.2324 26.339 30.4181 26.2676 30.4181 26.2676C30.758 26.1856 31.2664 26.1601 31.3993 26.0524C31.3993 26.0524 32.3588 26.044 32.4728 25.7906C32.2373 25.1446 30.4421 25.9049 30.2017 26.0207C30.1535 26.0207 30.124 26.0087 30.1094 25.989C30.0305 25.8744 30.4201 25.4967 30.4332 25.4837C30.4333 25.4836 30.4345 25.4822 30.4348 25.482C30.4942 25.4653 31.9275 25.3924 32.612 24.4697C32.6603 23.8991 31.7934 24.7916 31.7934 24.7916C31.7287 24.0516 30.8508 24.8385 30.3409 24.9C29.831 24.9614 29.8161 24.6692 30.1715 24.6231C30.5268 24.5771 30.9283 24.6072 31.1292 24.0694C31.3301 23.5316 31.9335 24.1007 32.0417 23.901C32.1465 23.7074 31.8443 23.5425 31.8253 23.5324C31.8253 23.5324 32.2732 23.07 31.5469 23.0854C30.828 23.1006 29.8985 22.9958 29.8797 22.9937C29.9248 22.9766 30.657 22.7019 31.3456 22.7168C32.0565 22.7322 31.67 22.2098 30.99 22.2098C30.3101 22.2098 29.9551 21.9796 29.9551 21.9796C30.3415 21.8362 30.7278 21.6928 31.1142 21.5494C31.0884 21.4418 31.0628 21.335 31.037 21.2275C31.037 21.2275 31.7167 20.6893 30.7586 20.8122C29.8005 20.9351 29.6918 20.9506 29.6918 20.9506C29.6918 20.9506 27.8058 21.238 27.7612 21.2425C27.7611 21.2425 27.7597 21.2425 27.7595 21.2425C27.7413 21.2396 27.5545 21.1819 27.5197 21.1107C27.5186 21.1084 27.5171 21.1047 27.5163 21.1024C27.5155 21.0995 27.5149 21.0953 27.5146 21.0924C27.5144 21.089 27.5141 21.0841 27.5146 21.0807C27.5224 21.0432 27.5806 21.0026 27.7293 20.9656C28.2238 20.8427 29.9709 20.4898 30.2336 20.582C30.2674 20.5939 30.2922 20.5912 30.3074 20.5787C30.4059 20.4901 30.0782 19.9249 29.2741 19.8449C28.347 19.7527 27.7763 20.075 27.7763 20.075C27.7763 20.075 27.173 19.8592 27.7294 19.6748C28.2856 19.4904 29.1668 19.7365 29.1668 19.7365C29.1668 19.7365 30.1552 19.4441 29.3362 19.3212C28.5172 19.1982 28.259 19.4317 27.8837 19.4446C27.7339 19.2587 29.1695 19.2148 29.259 19.061C29.1076 18.7844 28.2194 19.061 27.6991 19.061C27.4778 18.9677 27.4632 18.8158 27.7142 18.7225C28.2448 18.702 28.7435 18.7329 29.2741 18.7125C29.2587 18.4308 29.2745 18.0968 29.259 17.8152C28.5861 17.6929 27.7969 17.9047 27.419 17.8869C27.5201 17.5796 28.9731 17.5002 29.1349 17.4166C29.4688 17.0017 27.7413 17.4102 27.6992 17.4166C27.3925 17.3716 27.4111 17.1788 27.6053 17.063C28.0534 17.0118 29.0583 17.1283 28.9823 16.8262C28.9241 16.5431 28.2856 16.6947 28.0229 16.7561C27.7602 16.8176 27.3738 16.7712 27.3738 16.7712C27.2056 16.546 28.8887 16.638 28.8733 16.4643C28.8514 16.2648 27.8064 16.4022 27.4509 16.4176C27.1776 16.23 28.7361 16.1053 28.8095 16.0807C28.8099 16.0805 28.811 16.0792 28.8112 16.079C28.8695 15.5682 27.7294 16.079 27.513 16.079C27.4758 16.079 27.4477 16.0698 27.4275 16.054C27.4229 16.0504 27.4178 16.0449 27.414 16.0407C27.3398 15.9545 27.4056 15.7571 27.4056 15.7571C27.4056 15.7571 27.8119 15.5756 27.8367 15.532C27.8368 15.5316 27.8383 15.5306 27.8384 15.5303C27.8384 15.5302 27.8384 15.5288 27.8384 15.5286C27.8384 15.5285 27.8384 15.5271 27.8384 15.527C27.8383 15.5267 27.8369 15.5256 27.8367 15.5253C27.8358 15.524 27.8335 15.5218 27.8317 15.5203C27.784 15.4838 27.5045 15.3916 27.4677 15.3885C27.4675 15.3885 27.4663 15.3885 27.466 15.3885C27.4658 15.3884 27.4646 15.387 27.4644 15.3869C27.4639 15.3865 27.4631 15.3857 27.4627 15.3852C27.4624 15.385 27.4612 15.3839 27.461 15.3835C27.4399 15.3406 27.466 15.035 27.466 15.035C27.466 15.035 27.788 14.7951 27.8082 14.6997C27.8083 14.6989 27.8081 14.6972 27.8082 14.6964C27.8083 14.6956 27.8082 14.6938 27.8082 14.6931C27.8082 14.6924 27.8082 14.6904 27.8082 14.6897C27.8081 14.689 27.8083 14.6871 27.8082 14.6864C27.8081 14.686 27.8082 14.685 27.8082 14.6847C27.808 14.6838 27.8069 14.6823 27.8065 14.6814C27.8064 14.681 27.8066 14.68 27.8065 14.6797C27.8064 14.6795 27.805 14.6783 27.8048 14.678C27.8045 14.6775 27.8035 14.6769 27.8031 14.6764C27.8026 14.6756 27.8021 14.6737 27.8015 14.673C27.8012 14.6728 27.8001 14.6716 27.7998 14.6714C27.7985 14.6703 27.7963 14.669 27.7947 14.668C27.7941 14.6677 27.7921 14.6667 27.7914 14.6664C27.7101 14.6275 27.3737 14.7431 27.3737 14.7431C27.3737 14.6406 27.3737 14.5386 27.3737 14.4362C27.3737 14.4362 27.6682 14.4044 27.6991 14.2661C27.701 14.258 27.7001 14.25 27.6991 14.2427C27.6987 14.2398 27.6983 14.2355 27.6975 14.2327C27.6955 14.2268 27.6926 14.2198 27.6891 14.2144C27.6885 14.2136 27.6863 14.2118 27.6857 14.211C27.6183 14.1246 27.3435 14.1126 27.3435 14.1126C27.292 13.5749 27.2408 13.0377 27.1892 12.4999L27.1894 12.4998ZM26.9143 17.7667V17.9785C26.9143 17.9785 26.5678 17.9609 26.5034 17.9068C26.503 17.9066 26.502 17.9054 26.5017 17.9051C26.5015 17.9049 26.5003 17.9037 26.5 17.9035C26.4998 17.9032 26.4986 17.9021 26.4983 17.9018C26.4981 17.9016 26.4969 17.9004 26.4966 17.9001C26.4961 17.8993 26.4954 17.8976 26.495 17.8968C26.4948 17.8966 26.4951 17.8954 26.495 17.8951C26.4948 17.8949 26.4934 17.8937 26.4933 17.8935C26.4932 17.8932 26.4933 17.8921 26.4933 17.8918C26.4932 17.8912 26.4933 17.889 26.4933 17.8884C26.4933 17.8881 26.4933 17.8871 26.4933 17.8868C26.4933 17.8864 26.4932 17.8854 26.4933 17.8851C26.4936 17.8839 26.4943 17.8814 26.495 17.8801C26.4951 17.8798 26.4965 17.8788 26.4966 17.8784C26.4974 17.8772 26.4989 17.8747 26.5 17.8734C26.5003 17.8731 26.5014 17.8721 26.5017 17.8718C26.5024 17.8711 26.5043 17.8691 26.505 17.8684C26.5074 17.8664 26.5104 17.8639 26.5134 17.8618C26.6297 17.7808 26.8618 17.7827 26.9076 17.77C26.9079 17.7699 26.9089 17.7701 26.9093 17.77C26.9096 17.7699 26.9107 17.7685 26.9109 17.7684C26.9112 17.7682 26.9124 17.7685 26.9126 17.7684C26.9129 17.7682 26.9141 17.7668 26.9143 17.7667L26.9143 17.7667ZM27.4058 18.0486C27.4177 18.0486 28.096 18.0544 28.1555 18.1419C28.156 18.1426 28.1568 18.1445 28.1572 18.1453C28.1576 18.1464 28.1586 18.1491 28.1589 18.1503C28.159 18.1511 28.1588 18.1528 28.1589 18.1536C28.1589 18.1548 28.1591 18.1574 28.1589 18.1586C28.1585 18.1599 28.1577 18.1624 28.1572 18.1636C28.1054 18.2731 27.4192 18.3388 27.4192 18.3388L27.4057 18.0486L27.4058 18.0486ZM27.3672 18.4672C27.3674 18.4673 27.3686 18.4671 27.3689 18.4672C27.3691 18.4673 27.3702 18.4671 27.3705 18.4672C27.4108 18.4777 27.6918 18.4868 27.7261 18.5339C27.7265 18.5343 27.7276 18.5351 27.7278 18.5355C27.7279 18.5358 27.7277 18.537 27.7278 18.5372C27.728 18.5377 27.7293 18.5384 27.7295 18.5389C27.7296 18.5391 27.7295 18.5403 27.7295 18.5405C27.7295 18.5408 27.7295 18.542 27.7295 18.5422C27.7295 18.5424 27.7295 18.5436 27.7295 18.5439C27.7295 18.5441 27.7295 18.5453 27.7295 18.5455C27.7295 18.5458 27.7296 18.547 27.7295 18.5472C27.7294 18.5474 27.7279 18.5486 27.7278 18.5489C27.7277 18.5491 27.7279 18.5503 27.7278 18.5505C27.7274 18.5513 27.7267 18.5531 27.7261 18.5539C27.7259 18.5541 27.7247 18.5553 27.7245 18.5555C27.7242 18.5558 27.7247 18.5569 27.7245 18.5572C27.6662 18.628 27.407 18.6473 27.394 18.6473C27.3939 18.6473 27.3924 18.6473 27.3923 18.6473C27.3922 18.6472 27.3925 18.6457 27.3923 18.6456C27.3921 18.6453 27.3909 18.6443 27.3907 18.6439C27.3788 18.62 27.3672 18.4672 27.3672 18.4672L27.3672 18.4672ZM25.2991 19.0242C25.5205 19.0128 25.96 19.0646 26.7851 19.2911C26.7851 19.3085 26.8019 19.5213 26.7952 19.5562C26.7952 19.5565 26.7936 19.5577 26.7935 19.5579C26.7935 19.5581 26.7936 19.5594 26.7935 19.5596C26.7934 19.5597 26.792 19.5612 26.7918 19.5612C26.7789 19.5548 25.2907 19.1295 25.1548 19.136C25.1511 19.1361 25.1466 19.1363 25.143 19.136C25.14 19.1356 25.1358 19.1349 25.133 19.1343C25.1293 19.1334 25.1245 19.1308 25.1212 19.1293C25.12 19.1287 25.1173 19.1282 25.1162 19.1276C25.1158 19.1274 25.1149 19.1262 25.1145 19.1259C25.11 19.1229 25.1055 19.1183 25.1028 19.1143C25.1025 19.1139 25.1013 19.1129 25.1011 19.1126C25.1007 19.1119 25.0997 19.1099 25.0994 19.1093C25.0993 19.1089 25.0995 19.1079 25.0994 19.1076C25.0992 19.1069 25.0979 19.105 25.0977 19.1043C25.0977 19.1039 25.0978 19.1029 25.0977 19.1026C25.0977 19.1019 25.0977 19.1 25.0977 19.0993C25.0977 19.0986 25.0977 19.0967 25.0977 19.0959C25.098 19.0941 25.0988 19.0911 25.0994 19.0892C25.1012 19.0847 25.105 19.0788 25.1095 19.0742C25.1322 19.0521 25.1892 19.0299 25.299 19.0242L25.2991 19.0242ZM26.0706 19.653C26.3078 19.6445 26.8761 19.7805 26.9076 19.773C26.9076 19.8181 26.9327 20.0311 26.9042 20.0749C26.904 20.0753 26.9028 20.0762 26.9025 20.0766C26.9023 20.0769 26.9012 20.078 26.9009 20.0783C26.9005 20.0785 26.8995 20.0797 26.8992 20.0799C26.8986 20.0803 26.8965 20.0813 26.8958 20.0816C26.8955 20.0817 26.8945 20.0815 26.8941 20.0816C26.8934 20.0816 26.8915 20.0816 26.8908 20.0816C26.8904 20.0815 26.8895 20.0817 26.8891 20.0816C26.8408 20.0696 26.002 19.8047 25.9699 19.6963C25.9695 19.6945 25.9699 19.6914 25.9699 19.6896C25.9703 19.6859 25.9721 19.6813 25.975 19.678C25.9753 19.6776 25.9763 19.6766 25.9766 19.6763C25.977 19.676 25.9779 19.675 25.9783 19.6746C25.9944 19.662 26.0277 19.6545 26.0706 19.653L26.0706 19.653ZM28.4054 20.2367C28.6319 20.2323 28.7919 20.2516 28.7325 20.3201C28.5707 20.5066 27.4527 20.6603 27.4527 20.6603L27.4326 20.3201C27.4566 20.3166 28.0246 20.2441 28.4054 20.2367H28.4054ZM25.2051 21.2974C25.3952 21.2874 25.838 21.3912 26.8237 21.8061L26.8304 22.0513C26.8304 22.0513 25.1611 21.5478 25.1028 21.4642C25.0742 21.423 25.0209 21.3072 25.2051 21.2974L25.2051 21.2974ZM28.4758 21.6627C28.5266 21.6601 28.5624 21.6652 28.5748 21.6777C28.5752 21.678 28.5762 21.679 28.5765 21.6793C28.5772 21.6805 28.5778 21.6831 28.5782 21.6843C28.5784 21.6856 28.5799 21.688 28.5798 21.6894C28.5792 21.6964 28.5739 21.7059 28.5648 21.716C28.4094 21.8898 27.5751 22.0629 27.5751 22.0629C27.5751 22.0629 27.5751 21.8442 27.5751 21.8378C27.5752 21.8378 27.5766 21.8378 27.5768 21.8378C27.6148 21.8365 28.2272 21.6752 28.4758 21.6627L28.4758 21.6627ZM24.816 21.6927C25.0652 21.6795 25.6279 21.811 26.8891 22.4048C26.8891 22.411 26.9004 22.6158 26.8958 22.635C26.8957 22.635 26.8943 22.635 26.8941 22.635C26.8194 22.611 24.6247 21.8445 24.6247 21.8445C24.6224 21.8361 24.5894 21.7047 24.816 21.6927L24.816 21.6927ZM28.9941 22.6517C29.0579 22.649 29.0997 22.6545 29.1098 22.6684C29.1108 22.67 29.1114 22.6732 29.1115 22.6751C29.1113 22.6817 29.1057 22.6902 29.0948 22.7001C28.8957 22.8788 27.6269 23.0953 27.5818 23.0987C27.5816 23.0987 27.5804 23.0987 27.5802 23.0987C27.58 23.0986 27.5787 23.0988 27.5785 23.0987C27.5784 23.0986 27.577 23.0972 27.5768 23.097C27.5763 23.0964 27.5755 23.0945 27.5751 23.0937C27.575 23.0933 27.5752 23.0923 27.5751 23.092C27.5749 23.0913 27.5736 23.0894 27.5734 23.0887C27.5654 23.0472 27.5916 22.9022 27.5936 22.8819C27.5936 22.8815 27.5936 22.8804 27.5936 22.8802C27.5936 22.8802 27.5951 22.8801 27.5952 22.8802C27.5955 22.8802 27.5966 22.8818 27.5969 22.8819C27.5973 22.8819 27.5982 22.8819 27.5986 22.8819C27.6798 22.8805 28.6522 22.6659 28.9941 22.6517H28.9941ZM25.2638 23.2104C25.6415 23.191 26.7861 23.7129 26.8422 23.7291C26.8423 23.7291 26.8438 23.7291 26.8439 23.7291C26.838 23.7524 26.837 23.9408 26.8321 23.9709C26.832 23.9717 26.8322 23.9738 26.8321 23.9743C26.8321 23.9744 26.8305 23.9742 26.8304 23.9743C26.7996 23.9578 25.231 23.3105 25.1615 23.3622C25.1183 23.2602 25.1631 23.2156 25.2639 23.2104L25.2638 23.2104ZM28.6385 23.3472C28.7171 23.3437 28.7747 23.3472 28.7928 23.3572C28.795 23.3586 28.7971 23.3605 28.7979 23.3622C28.798 23.3624 28.7978 23.3636 28.7979 23.3639C28.7979 23.3642 28.7979 23.3652 28.7979 23.3655C28.7978 23.3662 28.7982 23.3682 28.7979 23.3689C28.7977 23.3692 28.7965 23.3702 28.7962 23.3705C28.795 23.372 28.793 23.3739 28.7912 23.3755C28.6747 23.4785 27.5936 23.6907 27.5936 23.6907C27.5936 23.6907 27.5885 23.4916 27.5885 23.4723C27.6192 23.4657 28.3172 23.3613 28.6385 23.3472L28.6385 23.3472ZM28.5513 24.036C28.6274 24.0334 28.6813 24.0378 28.6939 24.051L28.6956 24.0526C28.6959 24.0532 28.6954 24.0554 28.6956 24.056C28.6956 24.0563 28.6972 24.0573 28.6972 24.0576C28.6972 24.058 28.6956 24.059 28.6956 24.0593C28.6954 24.06 28.6959 24.0619 28.6956 24.0626C28.6953 24.063 28.6941 24.0639 28.6939 24.0643C28.693 24.0658 28.6919 24.0678 28.6905 24.0693C28.6895 24.0705 28.6868 24.0731 28.6855 24.0743C28.5688 24.1745 27.6523 24.3662 27.6523 24.3662C27.6523 24.3662 27.6271 24.1475 27.6271 24.141C27.6525 24.1416 28.2653 24.0454 28.5513 24.036L28.5513 24.036ZM24.6835 24.091C24.9046 24.0771 25.4526 24.1677 26.8052 24.6564L26.8505 24.9199C26.8505 24.9199 24.5983 24.197 24.5342 24.1744C24.5343 24.1744 24.5341 24.1729 24.5342 24.1727C24.5342 24.1713 24.5338 24.1679 24.5342 24.1643C24.535 24.1577 24.5384 24.1473 24.5459 24.1377C24.5618 24.1183 24.5981 24.0963 24.6835 24.091L24.6835 24.091ZM27.6506 24.663C27.6777 24.6688 28.0554 24.6813 28.1253 24.7398C28.1256 24.74 28.1266 24.7412 28.127 24.7414C28.1272 24.7417 28.1283 24.7428 28.1286 24.7431C28.1289 24.7433 28.1301 24.7445 28.1303 24.7448C28.131 24.7457 28.1315 24.7472 28.132 24.7481C28.1321 24.7485 28.1335 24.7495 28.1337 24.7498C28.1343 24.751 28.1351 24.7536 28.1354 24.7548C28.1354 24.7551 28.1353 24.7561 28.1354 24.7565C28.1354 24.7568 28.1353 24.7578 28.1354 24.7581C28.1354 24.7588 28.1354 24.7608 28.1354 24.7615C28.1353 24.7618 28.1354 24.7628 28.1354 24.7632C28.1352 24.7638 28.1339 24.7658 28.1337 24.7665C28.1336 24.7668 28.1338 24.7678 28.1337 24.7682C28.1333 24.7688 28.1324 24.7708 28.132 24.7715C28.0738 24.8616 27.6791 24.8949 27.6791 24.8949C27.6791 24.8949 27.6597 24.7184 27.6506 24.6631L27.6506 24.663ZM28.5647 25.1767C28.6527 25.1746 28.7158 25.1846 28.7291 25.2101C28.7366 25.2273 28.7222 25.2528 28.6805 25.2868C28.3569 25.5506 27.6523 25.602 27.6523 25.602V25.3118C27.6524 25.3118 27.6536 25.3118 27.6539 25.3118C27.694 25.3071 28.2728 25.1837 28.5648 25.1767H28.5647ZM29.4621 25.4469C29.5738 25.4427 29.6219 25.4613 29.6366 25.4869C29.6377 25.4892 29.6392 25.4929 29.6399 25.4953C29.6409 25.4996 29.6419 25.5057 29.6416 25.5103C29.638 25.5434 29.602 25.583 29.5745 25.6087C29.4645 25.7117 27.711 26.2642 27.711 26.2642C27.711 26.2642 27.6978 25.8977 27.7043 25.8656C28.7295 25.5566 29.2309 25.4556 29.4621 25.4469L29.4621 25.4469ZM28.3282 26.4843C28.4397 26.4802 28.5269 26.4867 28.553 26.5127C28.5546 26.5144 28.557 26.5174 28.5581 26.5193C28.5586 26.5205 28.5593 26.5231 28.5597 26.5243C28.5601 26.5256 28.5596 26.528 28.5597 26.5293C28.5598 26.5316 28.5603 26.5353 28.5597 26.5377C28.5585 26.5426 28.5551 26.5486 28.5513 26.5544C28.4013 26.7008 27.6724 26.7228 27.6724 26.7228V26.541C27.8093 26.5364 28.114 26.4923 28.3282 26.4843L28.3282 26.4843ZM29.0579 26.7828C29.0925 26.782 29.1136 26.7876 29.1166 26.7978C29.1167 26.7987 29.1167 26.8003 29.1166 26.8012C29.1148 26.8097 29.1046 26.8226 29.083 26.8379C28.7918 27.0437 27.6976 27.2548 27.6976 27.2548C27.6976 27.2548 27.7111 27.111 27.7177 27.0764C27.7481 27.0759 28.796 26.7892 29.0578 26.7828L29.0579 26.7828ZM29.6717 27.0113C29.8007 27.0101 29.8991 27.029 29.9552 27.0697C29.9553 27.0697 29.9568 27.0697 29.9569 27.0697C29.9569 27.0698 29.9569 27.0712 29.9569 27.0714C29.9569 27.0716 29.9569 27.0728 29.9569 27.073C29.9569 27.0736 29.9569 27.0757 29.9569 27.0764C29.9514 27.1163 29.8694 27.3039 29.5812 27.3849C29.2216 27.353 27.6958 27.8015 27.6657 27.8085C27.6656 27.8084 27.6641 27.8087 27.664 27.8085C27.6639 27.808 27.6641 27.806 27.664 27.8052C27.6632 27.7765 27.6841 27.6217 27.6841 27.6217C28.2101 27.309 29.1659 27.0161 29.6717 27.0113L29.6717 27.0113ZM25.7653 27.8919C25.7687 27.8919 25.7718 27.8919 25.7754 27.8919C26.4354 27.9627 26.6819 28.2084 26.7516 28.3072C26.62 28.5368 25.5769 28.0218 25.6865 27.9119C25.6991 27.9008 25.7249 27.8927 25.7653 27.8919L25.7653 27.8919ZM29.5476 27.9353C29.5738 27.9342 29.5978 27.9396 29.6147 27.9503C29.6216 27.9549 29.6285 27.9615 29.6332 27.9686C29.6395 27.9789 29.6438 27.9927 29.6449 28.0087C29.576 28.1146 29.2194 28.0683 29.1971 28.0654C29.215 28.059 29.4209 27.9401 29.5476 27.9353H29.5476ZM28.1337 28.6491C28.1826 28.6471 28.2233 28.652 28.2461 28.6658C28.2488 28.6675 28.2523 28.6703 28.2544 28.6724C28.2551 28.6731 28.2572 28.675 28.2578 28.6758C28.2587 28.6769 28.2604 28.6795 28.2612 28.6808C28.2618 28.682 28.2623 28.6844 28.2628 28.6858C28.267 28.6982 28.2654 28.7155 28.2545 28.7358C28.1509 28.9289 27.6976 28.8576 27.6976 28.8576V28.7225C27.6977 28.7225 27.6992 28.7224 27.6993 28.7225C27.7248 28.7246 27.9746 28.6556 28.1337 28.6491L28.1337 28.6491ZM25.4634 29.1578C25.6029 29.1508 25.7248 29.2417 25.8526 29.3145C26.1373 29.2566 26.7214 29.3596 26.7214 29.3596V29.6164C26.7214 29.6166 26.7201 29.6179 26.7197 29.6181C26.7195 29.6182 26.7184 29.618 26.718 29.6181C26.6649 29.6273 25.9803 29.5975 25.8274 29.5013C25.7027 29.5013 25.3497 29.3161 25.3225 29.2211C25.3223 29.2203 25.321 29.2186 25.3209 29.2178C25.3206 29.2166 25.321 29.214 25.3209 29.2128C25.3208 29.212 25.3208 29.2102 25.3209 29.2095C25.3209 29.2088 25.3207 29.2068 25.3209 29.2061C25.3209 29.2058 25.3208 29.2048 25.3209 29.2045C25.321 29.2038 25.3223 29.2018 25.3225 29.2011C25.3227 29.2008 25.3224 29.1998 25.3225 29.1995C25.3713 29.1736 25.4189 29.16 25.4634 29.1578L25.4634 29.1578ZM28.4574 29.2845C28.5645 29.2788 28.6099 29.3117 28.5262 29.4296C28.2933 29.7577 27.6909 29.6231 27.6909 29.6231L27.6657 29.4196C27.8782 29.4279 28.2665 29.2947 28.4574 29.2845L28.4574 29.2845ZM26.2065 29.9499C26.45 29.9387 26.7147 30.035 26.7147 30.035C26.7209 30.0474 26.8456 30.2917 26.7348 30.3736C26.7307 30.3765 26.7262 30.3794 26.7214 30.3819C26.5855 30.4527 25.936 30.3266 25.8979 30.0667C25.9743 29.9865 26.0875 29.9555 26.2065 29.9499H26.2065ZM23.6956 30.0767C23.9183 30.0634 24.1671 30.1999 24.1954 30.2135C24.1958 30.2136 24.1969 30.2134 24.1971 30.2135C24.1971 30.2212 24.1887 30.4603 24.1887 30.4603C24.1887 30.4603 23.7477 30.3381 23.6083 30.0917C23.6363 30.0841 23.6661 30.0785 23.6955 30.0767H23.6956ZM27.9375 30.1101C28.1859 30.1085 28.4861 30.1665 28.5296 30.2502C28.5378 30.2673 28.5353 30.2861 28.5195 30.3052C28.3965 30.4531 27.6976 30.3185 27.6976 30.3185V30.1384C27.7598 30.1203 27.8455 30.1106 27.9375 30.1101L27.9375 30.1101Z" fill="#1C6864"/>
<rect x="35" width="16" height="49" fill="#1C6864"/>
</g>
</svg>
