<svg width="54" height="54" viewBox="0 0 54 54" fill="none" xmlns="http://www.w3.org/2000/svg">
<mask id="mask0_1_34469" style="mask-type:alpha" maskUnits="userSpaceOnUse" x="3" y="9" width="48" height="36">
<path d="M3.56934 18.1356C4.16681 13.4125 8.0415 10.0019 12.7861 9.60887C16.6412 9.28949 21.6196 9 27 9C32.3804 9 37.3588 9.28949 41.2139 9.60887C45.9585 10.0019 49.8332 13.4125 50.4307 18.1356C50.752 20.6759 51 23.704 51 27C51 30.296 50.752 33.3241 50.4307 35.8644C49.8332 40.5875 45.9585 43.9981 41.2139 44.3911C37.3588 44.7105 32.3804 45 27 45C21.6196 45 16.6412 44.7105 12.7861 44.3911C8.04151 43.9981 4.16681 40.5875 3.56934 35.8644C3.248 33.3241 3 30.296 3 27C3 23.704 3.248 20.6759 3.56934 18.1356Z" fill="#00D0BF"/>
</mask>
<g mask="url(#mask0_1_34469)">
<rect x="3" y="3" width="16" height="49" fill="#1C6864"/>
<rect x="19" y="3" width="16" height="49" fill="#F5F5F5"/>
<path d="M27.1894 15.4998C27.143 16.0017 27.0965 16.5039 27.0502 17.0058C26.8802 17.0314 26.7103 17.0569 26.5403 17.0826C26.5403 17.0826 26.8944 17.2814 26.9562 17.4812C26.9661 17.5132 26.9622 17.5396 26.9479 17.5595C26.9432 17.5658 26.936 17.5727 26.9294 17.5779C26.8268 17.6567 26.5235 17.6196 26.5235 17.6196C26.5235 17.6196 26.9253 17.9586 26.9562 18.0816C26.9569 18.0845 26.9579 18.0871 26.9579 18.0899C26.9579 18.0922 26.9584 18.096 26.9579 18.0983C26.9575 18.1 26.9553 18.1032 26.9546 18.1049C26.9518 18.111 26.9469 18.1178 26.9411 18.1233C26.8467 18.2105 26.401 18.235 26.401 18.235C26.401 18.235 26.8951 18.5873 26.926 18.7871C26.9541 18.9681 26.9306 19.0741 26.926 19.0923C26.8915 19.0628 26.0948 18.3932 25.5808 18.5886C25.5552 18.6019 25.5401 18.6146 25.5339 18.6269C25.5311 18.6331 25.5306 18.6408 25.5322 18.647C25.5682 18.7583 26.295 18.8724 26.8019 19.3108C26.7893 19.4205 25.3571 18.9618 25.3041 19.2491C25.3489 19.3301 26.8455 19.5458 26.9562 19.7411C26.4051 19.7616 25.2664 19.6198 25.3041 19.8011C25.1889 20.0105 26.3796 19.8922 26.8791 20.063C27.0255 20.2284 27.0114 20.3674 26.7566 20.3848C26.2752 20.1559 25.1976 19.9859 25.1951 20.2781C25.1951 20.2785 25.195 20.2795 25.1951 20.2798C25.1952 20.2801 25.1966 20.2812 25.1967 20.2814C25.1972 20.2824 25.1976 20.2839 25.1984 20.2848C25.2001 20.2864 25.204 20.2883 25.2068 20.2898C25.3285 20.3505 26.3319 20.3209 26.7097 20.57C26.1741 20.6911 24.3579 20.3242 24.3463 20.5033C24.3981 20.5869 24.6855 20.9539 25.18 20.9386C25.6745 20.9232 26.8185 21.1385 26.8959 21.2921C26.8983 21.2969 26.8983 21.3019 26.8976 21.3055C26.8641 21.4126 25.3909 20.9786 24.8244 21.2454C24.2372 21.522 26.5082 21.3544 26.8791 21.6924C27.25 22.0304 26.1377 21.6607 26.1377 21.6607C26.1377 21.6607 24.5932 21.4464 24.3614 21.554C24.1296 21.6616 23.8666 21.9075 23.8666 21.9075C23.8666 21.9075 24.0207 22.2141 24.1753 22.1527C24.1988 22.1433 24.2149 22.1414 24.2239 22.1444C24.2241 22.1445 24.2254 22.1443 24.2256 22.1444C24.2258 22.1445 24.2271 22.1459 24.2273 22.146C24.2276 22.1463 24.2286 22.1474 24.229 22.1477C24.2292 22.1481 24.2304 22.1491 24.2306 22.1494C24.2307 22.1495 24.2322 22.1509 24.2323 22.151C24.233 22.1526 24.2337 22.1558 24.234 22.1577C24.2376 22.2038 24.1283 22.3378 24.1283 22.3378C24.1283 22.3378 26.2927 22.8592 26.7717 23.3202C27.2508 23.7812 24.021 22.598 24.021 22.598C24.021 22.598 22.7229 23.0743 24.0981 23.105C23.9449 23.328 24.1616 23.4652 24.1753 23.4736C24.1753 23.4736 26.4629 23.9504 26.6946 24.3192C26.9264 24.6879 25.134 23.9652 24.7322 23.7655C24.3446 23.5727 23.2656 23.8674 23.2042 23.9572C23.2037 23.9579 23.2028 23.9599 23.2025 23.9606C23.2024 23.9609 23.2026 23.9619 23.2025 23.9623C23.2024 23.9629 23.2025 23.965 23.2025 23.9656C23.2026 23.9659 23.2025 23.967 23.2025 23.9673C23.2026 23.9676 23.2024 23.9686 23.2025 23.9689C23.2026 23.9693 23.204 23.9703 23.2042 23.9706C23.2043 23.9709 23.2041 23.972 23.2042 23.9723C23.2049 23.9735 23.2066 23.976 23.2075 23.9773C23.2078 23.9776 23.2089 23.9786 23.2092 23.9789C23.2783 24.0547 23.76 24.159 23.7745 24.2891C23.7745 24.2897 23.7744 24.2903 23.7745 24.2908C23.7747 24.2978 23.7725 24.306 23.7694 24.3125C23.7088 24.4295 23.1342 24.4792 23.1102 24.5894C23.1099 24.5912 23.1085 24.5941 23.1085 24.596C23.1085 24.719 25.9991 25.3183 26.7718 25.9636C27.5444 26.609 24.5007 25.1947 24.5007 25.1947C24.5007 25.1947 24.6707 25.4251 24.5007 25.4866C24.3307 25.548 23.7269 24.6262 22.7379 25.1947C22.5577 25.4287 23.6014 25.6143 23.8667 25.64C23.7761 25.8717 23.6971 25.9483 24.068 26.1787C24.1085 26.2039 24.1313 26.2192 24.1401 26.2271C24.1403 26.2273 24.1415 26.2285 24.1418 26.2288L24.1435 26.2304C24.1436 26.2306 24.1434 26.232 24.1435 26.2321C24.1434 26.2322 24.1435 26.2337 24.1435 26.2338C24.1433 26.2338 24.142 26.2338 24.1418 26.2338C24.1416 26.2338 24.1404 26.2338 24.1401 26.2338C24.0827 26.2249 23.4164 25.8844 23.3467 25.8702C23.346 25.8701 23.3439 25.8702 23.3434 25.8702C23.3431 25.8702 23.3418 25.8702 23.3417 25.8702C23.3417 25.9009 23.4188 26.2705 23.4188 26.2705C23.0765 25.9939 22.6626 25.9105 22.2749 26.1938C22.2744 26.2101 22.2715 26.4753 22.6607 26.6391C22.4414 27.0848 22.9086 26.9464 23.6504 27.3612C22.548 27.0748 22.4597 27.6069 23.2478 27.7298C24.0359 27.8527 26.1998 27.9297 26.7098 28.5904C26.8173 28.7298 26.8465 28.7998 26.8255 28.8222C26.7405 28.8989 25.958 28.3361 25.8443 28.3152C25.8441 28.3153 25.8429 28.315 25.8426 28.3152C25.8424 28.3154 25.8412 28.3166 25.8409 28.3169C25.8395 28.3187 25.8373 28.3222 25.8359 28.3252C25.8081 28.3864 25.7822 28.6521 25.7822 28.6521C25.4525 28.4624 25.1501 28.2922 24.7557 28.2118C24.7248 28.2732 24.7313 28.3605 24.7004 28.422C24.3425 28.1654 24.0308 27.985 23.5112 27.96C23.4905 28.042 23.4697 28.1248 23.4491 28.2068C23.4491 28.2068 23.0159 27.669 22.1659 28.2068C21.6913 28.5451 23.9588 28.3293 24.3296 28.7288C24.7005 29.1283 24.4068 29.1891 24.4068 29.1891C24.0977 29.0765 23.79 28.9649 23.4809 28.8523C23.4809 28.8523 22.3827 28.6515 22.0737 28.8973C21.7646 29.1432 26.5858 29.7426 26.7248 30.4033C26.8186 30.7617 25.5921 30.0281 24.5309 29.7129C24.4898 29.8302 24.4478 29.9475 24.4068 30.0648C24.3816 30.04 23.9711 29.643 23.5111 29.5745C23.5109 29.5747 23.5095 29.5757 23.5094 29.5761C23.5093 29.5767 23.5094 29.5787 23.5094 29.5795C23.5101 29.6299 23.6033 29.9897 23.6033 29.9897C23.6033 29.9897 22.4146 29.436 21.812 29.7279C21.2093 30.0198 23.913 30.1734 24.1602 30.4501C24.1872 30.4803 24.1985 30.5024 24.1971 30.5168C24.1966 30.5193 24.195 30.5231 24.1938 30.5251C24.134 30.6121 23.3278 30.2909 23.2478 30.4501C23.155 30.6345 21.8418 30.1125 21.8573 30.3583C21.8727 30.6042 22.0435 30.7419 22.0435 30.7419C22.0435 30.7419 24.7786 31.003 24.8714 31.3256C24.9641 31.6483 23.3568 31.1422 23.3568 31.1422C23.3568 31.1422 23.2013 31.3715 23.3249 31.4791C23.3298 31.4833 23.3336 31.4873 23.335 31.4891C23.335 31.4892 23.335 31.4907 23.335 31.4907C23.3349 31.4907 23.3335 31.4908 23.3333 31.4907C23.2774 31.4724 22.4066 30.9052 22.4913 31.3406C22.1505 31.2057 21.2707 30.7878 21.3943 31.1105C21.5161 31.4284 23.8109 31.8811 23.8784 31.8944C23.8177 31.8991 22.8473 31.9798 22.8922 32.2329C21.5915 31.445 21.5946 31.9175 21.6241 31.9544C21.6242 31.9545 21.6241 31.956 21.6241 31.9561C21.5511 31.9446 19.9509 31.5482 21.2233 32.2329C21.9056 32.6001 22.072 32.7433 22.0754 32.7983C22.0754 32.7995 22.0755 32.8022 22.0754 32.8033C22.0751 32.8048 22.0742 32.807 22.0737 32.8083C22.0736 32.8087 22.0722 32.8097 22.072 32.81C22.0714 32.8109 22.071 32.8125 22.0703 32.8133C22.0701 32.8136 22.0689 32.8147 22.0686 32.815C22.0684 32.8152 22.0672 32.8164 22.067 32.8167C22.0667 32.8169 22.0656 32.8181 22.0653 32.8184C22.0649 32.8186 22.0639 32.8198 22.0636 32.82C22.0372 32.8369 21.9732 32.8298 21.9546 32.83C21.9538 32.8301 21.9518 32.83 21.9512 32.83C21.9509 32.8301 21.9496 32.8315 21.9496 32.8317L21.9512 32.8334C21.9694 32.8602 22.0692 33.1312 22.0636 33.1786C22.0635 33.1794 22.0621 33.1813 22.0619 33.1819C22.0618 33.1822 22.062 33.1834 22.0619 33.1836C22.0619 33.1837 22.0603 33.1835 22.0602 33.1836C22.0601 33.1837 22.0604 33.1852 22.0602 33.1853C22.0601 33.1853 22.0587 33.1853 22.0586 33.1853C22.0584 33.1853 22.0571 33.1853 22.0569 33.1853C22.0011 33.1713 21.1583 32.7235 20.8693 32.6933C20.5757 32.6625 19.1846 33.077 20.668 33.7223C22.1515 34.3676 23.0627 33.5684 23.8817 33.6606C24.7007 33.7528 25.0878 33.8914 25.0106 34.1526C24.9333 34.4138 24.1728 33.2962 23.3735 34.2627C22.4643 34.0838 21.8475 33.9803 22.3168 34.6446C20.832 34.0929 19.9253 34.8129 21.7952 35.1049C23.6326 35.1588 24.7623 34.6596 24.7623 34.6596C24.7623 34.6596 25.0723 35.2293 25.5205 34.8297C25.9476 34.449 25.9812 34.9336 25.9968 34.9798C25.997 34.9805 25.9982 34.9811 25.9985 34.9815C25.9986 34.9816 25.9984 34.9831 25.9985 34.9832C25.9986 34.9832 26 34.9832 26.0002 34.9832C26.0332 34.9749 26.4312 34.7981 26.4312 34.7981C26.4673 34.7981 26.5042 34.7981 26.5403 34.7981V38.4856C27.0399 38.4907 27.5384 38.4954 28.0381 38.5006C28.0381 38.5006 27.559 35.29 27.8217 34.8598C28.0762 34.443 28.3168 34.488 28.3316 34.4912C28.3316 34.4912 29.3053 34.7825 29.4134 34.7364C29.4147 34.7358 29.4173 34.7353 29.4185 34.7347C29.4193 34.7342 29.4211 34.7335 29.4218 34.733C29.4237 34.7318 29.4268 34.7294 29.4285 34.728C29.4289 34.7278 29.4299 34.7266 29.4302 34.7263C29.5094 34.6545 29.4287 34.3711 29.9234 34.4145C30.0761 34.3592 30.0178 34.1171 30.1162 34.0575C30.118 34.0565 30.1211 34.0551 30.123 34.0542C30.1267 34.0525 30.1322 34.0505 30.1364 34.0492C30.1421 34.0476 30.1499 34.0465 30.1565 34.0459C30.311 34.0305 33.2932 34.8749 33.9422 34.0759C33.7722 33.6303 33.1842 34.0455 33.0297 34.0609C32.8906 34.0609 32.3029 33.7843 31.9629 34.0609C31.6539 33.8304 30.2487 33.6773 30.2487 33.6773C30.0633 33.4929 33.602 33.7689 33.8029 33.6306C34.2201 33.2157 33.0306 33.2622 32.8451 33.4004C32.5155 33.2007 32.1012 33.2155 31.8488 33.3537C31.7278 33.0659 30.5787 33.1905 29.9401 33.1086C29.7356 32.9893 29.7697 32.9209 29.9082 32.8467C31.2423 32.9031 32.5696 33.0763 33.9102 33.0168C34.2726 32.5471 33.4541 32.37 32.9525 32.77C32.658 32.2885 32.056 32.7544 31.6543 32.7083C31.2525 32.6622 31.4379 32.1712 31.9478 32.248C32.4578 32.3248 33.3696 32.2166 33.5395 31.9861C33.7095 31.7557 33.4381 31.5222 32.5969 31.741C32.3122 31.4643 31.6862 31.7405 31.3926 31.8327C31.0019 31.616 30.0931 31.8025 29.784 31.8794C29.4815 31.6924 31.3758 31.3874 31.3758 31.3874C32.107 31.3745 32.5194 31.2487 32.7512 31.1873C33.8565 30.5982 32.7358 30.5356 32.1557 30.9638C31.7957 30.6843 31.4538 30.9879 31.1293 31.0955C30.825 31.1964 30.2624 31.2698 30.1933 31.2406C30.1925 31.2403 30.1906 31.2394 30.19 31.239C30.1898 31.2388 30.1884 31.2374 30.1883 31.2373L30.1866 31.2356C30.1865 31.2355 30.1866 31.2341 30.1866 31.2339C30.1866 31.2338 30.1866 31.2325 30.1866 31.2323C30.1868 31.2316 30.1878 31.2297 30.1883 31.2289C30.2338 31.1587 31.0672 30.6502 31.0672 30.6502C31.0672 30.6502 32.149 30.5725 32.3654 30.5418C32.4972 30.523 32.9593 30.3055 32.9591 30.2249C32.9553 30.1748 32.7628 30.1794 32.1792 30.3266C31.6538 30.3727 31.3452 30.3429 31.1443 30.3583C30.8212 30.3251 30.6851 30.2912 30.6579 30.2616C30.6568 30.2603 30.6552 30.2578 30.6545 30.2566C30.6523 30.2512 30.6537 30.245 30.6579 30.2399C30.6589 30.2387 30.6615 30.2361 30.6629 30.2349C30.7421 30.172 31.2533 30.1265 31.2533 30.1265C31.2533 30.1265 32.814 29.9842 32.9172 29.903C32.9175 29.9027 32.9185 29.9017 32.9189 29.9013C32.9194 29.9006 32.9202 29.8986 32.9205 29.898C32.9207 29.8977 32.9221 29.8966 32.9222 29.8963C32.9543 29.2619 31.5982 29.5548 31.562 29.5594C31.5658 29.1133 30.338 29.5529 30.2805 29.5594C30.2804 29.5594 30.2789 29.5595 30.2788 29.5594C30.226 29.5285 30.203 29.4958 30.1983 29.466C30.1968 29.4547 30.1983 29.4419 30.2017 29.431C30.2324 29.339 30.4181 29.2676 30.4181 29.2676C30.758 29.1856 31.2664 29.1601 31.3993 29.0524C31.3993 29.0524 32.3588 29.044 32.4728 28.7906C32.2373 28.1446 30.4421 28.9049 30.2017 29.0207C30.1535 29.0207 30.124 29.0087 30.1094 28.989C30.0305 28.8744 30.4201 28.4967 30.4332 28.4837C30.4333 28.4836 30.4345 28.4822 30.4348 28.482C30.4942 28.4653 31.9275 28.3924 32.612 27.4697C32.6603 26.8991 31.7934 27.7916 31.7934 27.7916C31.7287 27.0516 30.8508 27.8385 30.3409 27.9C29.831 27.9614 29.8161 27.6692 30.1715 27.6231C30.5269 27.5771 30.9283 27.6072 31.1292 27.0694C31.3301 26.5316 31.9335 27.1007 32.0417 26.901C32.1465 26.7074 31.8443 26.5425 31.8253 26.5324C31.8253 26.5324 32.2732 26.07 31.5469 26.0854C30.828 26.1006 29.8985 25.9958 29.8797 25.9937C29.9248 25.9766 30.657 25.7019 31.3456 25.7168C32.0565 25.7322 31.67 25.2098 30.99 25.2098C30.3101 25.2098 29.9551 24.9796 29.9551 24.9796C30.3415 24.8362 30.7278 24.6928 31.1142 24.5494C31.0884 24.4418 31.0628 24.335 31.037 24.2275C31.037 24.2275 31.7167 23.6893 30.7586 23.8122C29.8005 23.9351 29.6918 23.9506 29.6918 23.9506C29.6918 23.9506 27.8058 24.238 27.7612 24.2425C27.7611 24.2425 27.7597 24.2425 27.7595 24.2425C27.7413 24.2396 27.5545 24.1819 27.5197 24.1107C27.5186 24.1084 27.5171 24.1047 27.5163 24.1024C27.5155 24.0995 27.5149 24.0953 27.5146 24.0924C27.5144 24.089 27.5141 24.0841 27.5146 24.0807C27.5224 24.0432 27.5806 24.0026 27.7293 23.9656C28.2238 23.8427 29.9709 23.4898 30.2336 23.582C30.2674 23.5939 30.2922 23.5912 30.3074 23.5787C30.4059 23.4901 30.0782 22.9249 29.2741 22.8449C28.347 22.7527 27.7763 23.075 27.7763 23.075C27.7763 23.075 27.173 22.8592 27.7294 22.6748C28.2856 22.4904 29.1668 22.7365 29.1668 22.7365C29.1668 22.7365 30.1552 22.4441 29.3362 22.3212C28.5172 22.1982 28.259 22.4317 27.8837 22.4446C27.7339 22.2587 29.1695 22.2148 29.259 22.061C29.1076 21.7844 28.2194 22.061 27.6991 22.061C27.4778 21.9677 27.4632 21.8158 27.7142 21.7225C28.2448 21.702 28.7435 21.7329 29.2741 21.7125C29.2587 21.4308 29.2745 21.0968 29.259 20.8152C28.5861 20.6929 27.7969 20.9047 27.419 20.8869C27.5201 20.5796 28.9731 20.5002 29.1349 20.4166C29.4688 20.0017 27.7413 20.4102 27.6992 20.4166C27.3925 20.3716 27.4111 20.1788 27.6053 20.063C28.0534 20.0118 29.0583 20.1283 28.9823 19.8262C28.9241 19.5431 28.2856 19.6947 28.0229 19.7561C27.7602 19.8176 27.3738 19.7712 27.3738 19.7712C27.2056 19.546 28.8887 19.638 28.8733 19.4643C28.8514 19.2648 27.8064 19.4022 27.4509 19.4176C27.1776 19.23 28.7361 19.1053 28.8095 19.0807C28.8099 19.0805 28.811 19.0792 28.8112 19.079C28.8695 18.5682 27.7294 19.079 27.513 19.079C27.4758 19.079 27.4477 19.0698 27.4275 19.054C27.4229 19.0504 27.4178 19.0449 27.414 19.0407C27.3398 18.9545 27.4056 18.7571 27.4056 18.7571C27.4056 18.7571 27.8119 18.5756 27.8367 18.532C27.8368 18.5316 27.8383 18.5306 27.8384 18.5303C27.8384 18.5302 27.8384 18.5288 27.8384 18.5286C27.8384 18.5285 27.8384 18.5271 27.8384 18.527C27.8383 18.5267 27.8369 18.5256 27.8367 18.5253C27.8358 18.524 27.8335 18.5218 27.8317 18.5203C27.784 18.4838 27.5045 18.3916 27.4677 18.3885C27.4675 18.3885 27.4663 18.3885 27.466 18.3885C27.4658 18.3884 27.4646 18.387 27.4644 18.3869C27.4639 18.3865 27.4631 18.3857 27.4627 18.3852C27.4624 18.385 27.4612 18.3839 27.461 18.3835C27.4399 18.3406 27.466 18.035 27.466 18.035C27.466 18.035 27.788 17.7951 27.8082 17.6997C27.8083 17.6989 27.8081 17.6972 27.8082 17.6964C27.8083 17.6956 27.8082 17.6938 27.8082 17.6931C27.8082 17.6924 27.8082 17.6904 27.8082 17.6897C27.8081 17.689 27.8083 17.6871 27.8082 17.6864C27.8081 17.686 27.8082 17.685 27.8082 17.6847C27.808 17.6838 27.8069 17.6823 27.8065 17.6814C27.8064 17.681 27.8066 17.68 27.8065 17.6797C27.8064 17.6795 27.805 17.6783 27.8048 17.678C27.8045 17.6775 27.8035 17.6769 27.8031 17.6764C27.8026 17.6756 27.8021 17.6737 27.8015 17.673C27.8012 17.6728 27.8001 17.6716 27.7998 17.6714C27.7985 17.6703 27.7963 17.669 27.7947 17.668C27.7941 17.6677 27.7921 17.6667 27.7914 17.6664C27.7101 17.6275 27.3737 17.7431 27.3737 17.7431C27.3737 17.6406 27.3737 17.5386 27.3737 17.4362C27.3737 17.4362 27.6682 17.4044 27.6991 17.2661C27.701 17.258 27.7001 17.25 27.6991 17.2427C27.6987 17.2398 27.6983 17.2355 27.6975 17.2327C27.6955 17.2268 27.6926 17.2198 27.6891 17.2144C27.6885 17.2136 27.6863 17.2118 27.6857 17.211C27.6183 17.1246 27.3435 17.1126 27.3435 17.1126C27.292 16.5749 27.2408 16.0377 27.1892 15.4999L27.1894 15.4998ZM26.9143 20.7667V20.9785C26.9143 20.9785 26.5678 20.9609 26.5034 20.9068C26.503 20.9066 26.502 20.9054 26.5017 20.9051C26.5015 20.9049 26.5003 20.9037 26.5 20.9035C26.4998 20.9032 26.4986 20.9021 26.4983 20.9018C26.4981 20.9016 26.4969 20.9004 26.4966 20.9001C26.4961 20.8993 26.4954 20.8976 26.495 20.8968C26.4948 20.8966 26.4951 20.8954 26.495 20.8951C26.4948 20.8949 26.4934 20.8937 26.4933 20.8935C26.4932 20.8932 26.4933 20.8921 26.4933 20.8918C26.4932 20.8912 26.4933 20.889 26.4933 20.8884C26.4933 20.8881 26.4933 20.8871 26.4933 20.8868C26.4933 20.8864 26.4932 20.8854 26.4933 20.8851C26.4936 20.8839 26.4943 20.8814 26.495 20.8801C26.4951 20.8798 26.4965 20.8788 26.4966 20.8784C26.4974 20.8772 26.4989 20.8747 26.5 20.8734C26.5003 20.8731 26.5014 20.8721 26.5017 20.8718C26.5024 20.8711 26.5043 20.8691 26.505 20.8684C26.5074 20.8664 26.5104 20.8639 26.5134 20.8618C26.6297 20.7808 26.8618 20.7827 26.9076 20.77C26.9079 20.7699 26.9089 20.7701 26.9093 20.77C26.9096 20.7699 26.9107 20.7685 26.9109 20.7684C26.9112 20.7682 26.9124 20.7685 26.9126 20.7684C26.9129 20.7682 26.9141 20.7668 26.9143 20.7667L26.9143 20.7667ZM27.4058 21.0486C27.4177 21.0486 28.096 21.0544 28.1555 21.1419C28.156 21.1426 28.1568 21.1445 28.1572 21.1453C28.1576 21.1464 28.1586 21.1491 28.1589 21.1503C28.159 21.1511 28.1588 21.1528 28.1589 21.1536C28.1589 21.1548 28.1591 21.1574 28.1589 21.1586C28.1585 21.1599 28.1577 21.1624 28.1572 21.1636C28.1054 21.2731 27.4192 21.3388 27.4192 21.3388L27.4057 21.0486L27.4058 21.0486ZM27.3672 21.4672C27.3674 21.4673 27.3686 21.4671 27.3689 21.4672C27.3691 21.4673 27.3702 21.4671 27.3705 21.4672C27.4108 21.4777 27.6918 21.4868 27.7261 21.5339C27.7265 21.5343 27.7276 21.5351 27.7278 21.5355C27.7279 21.5358 27.7277 21.537 27.7278 21.5372C27.728 21.5377 27.7293 21.5384 27.7295 21.5389C27.7296 21.5391 27.7295 21.5403 27.7295 21.5405C27.7295 21.5408 27.7295 21.542 27.7295 21.5422C27.7295 21.5424 27.7295 21.5436 27.7295 21.5439C27.7295 21.5441 27.7295 21.5453 27.7295 21.5455C27.7295 21.5458 27.7296 21.547 27.7295 21.5472C27.7294 21.5474 27.7279 21.5486 27.7278 21.5489C27.7277 21.5491 27.7279 21.5503 27.7278 21.5505C27.7274 21.5513 27.7267 21.5531 27.7261 21.5539C27.7259 21.5541 27.7247 21.5553 27.7245 21.5555C27.7242 21.5558 27.7247 21.5569 27.7245 21.5572C27.6662 21.628 27.407 21.6473 27.394 21.6473C27.3939 21.6473 27.3924 21.6473 27.3923 21.6473C27.3922 21.6472 27.3925 21.6457 27.3923 21.6456C27.3921 21.6453 27.3909 21.6443 27.3907 21.6439C27.3788 21.62 27.3672 21.4672 27.3672 21.4672L27.3672 21.4672ZM25.2991 22.0242C25.5205 22.0128 25.96 22.0646 26.7851 22.2911C26.7851 22.3085 26.8019 22.5213 26.7952 22.5562C26.7952 22.5565 26.7936 22.5577 26.7935 22.5579C26.7935 22.5581 26.7936 22.5594 26.7935 22.5596C26.7934 22.5597 26.792 22.5612 26.7918 22.5612C26.7789 22.5548 25.2907 22.1295 25.1548 22.136C25.1511 22.1361 25.1466 22.1363 25.143 22.136C25.14 22.1356 25.1358 22.1349 25.133 22.1343C25.1293 22.1334 25.1245 22.1308 25.1212 22.1293C25.12 22.1287 25.1173 22.1282 25.1162 22.1276C25.1158 22.1274 25.1149 22.1262 25.1145 22.1259C25.11 22.1229 25.1055 22.1183 25.1028 22.1143C25.1025 22.1139 25.1013 22.1129 25.1011 22.1126C25.1007 22.1119 25.0997 22.1099 25.0994 22.1093C25.0993 22.1089 25.0995 22.1079 25.0994 22.1076C25.0992 22.1069 25.0979 22.105 25.0977 22.1043C25.0977 22.1039 25.0978 22.1029 25.0977 22.1026C25.0977 22.1019 25.0977 22.1 25.0977 22.0993C25.0977 22.0986 25.0977 22.0967 25.0977 22.0959C25.098 22.0941 25.0988 22.0911 25.0994 22.0892C25.1012 22.0847 25.105 22.0788 25.1095 22.0742C25.1322 22.0521 25.1892 22.0299 25.299 22.0242L25.2991 22.0242ZM26.0706 22.653C26.3078 22.6445 26.8761 22.7805 26.9076 22.773C26.9076 22.8181 26.9327 23.0311 26.9042 23.0749C26.904 23.0753 26.9028 23.0762 26.9025 23.0766C26.9023 23.0769 26.9012 23.078 26.9009 23.0783C26.9005 23.0785 26.8995 23.0797 26.8992 23.0799C26.8986 23.0803 26.8965 23.0813 26.8958 23.0816C26.8955 23.0817 26.8945 23.0815 26.8941 23.0816C26.8934 23.0816 26.8915 23.0816 26.8908 23.0816C26.8904 23.0815 26.8895 23.0817 26.8891 23.0816C26.8408 23.0696 26.002 22.8047 25.9699 22.6963C25.9695 22.6945 25.9699 22.6914 25.9699 22.6896C25.9703 22.6859 25.9721 22.6813 25.975 22.678C25.9753 22.6776 25.9763 22.6766 25.9766 22.6763C25.977 22.676 25.9779 22.675 25.9783 22.6746C25.9944 22.662 26.0277 22.6545 26.0706 22.653L26.0706 22.653ZM28.4054 23.2367C28.6319 23.2323 28.7919 23.2516 28.7325 23.3201C28.5707 23.5066 27.4527 23.6603 27.4527 23.6603L27.4326 23.3201C27.4566 23.3166 28.0246 23.2441 28.4054 23.2367H28.4054ZM25.2051 24.2974C25.3952 24.2874 25.838 24.3912 26.8237 24.8061L26.8304 25.0513C26.8304 25.0513 25.1611 24.5478 25.1028 24.4642C25.0742 24.423 25.0209 24.3072 25.2051 24.2974L25.2051 24.2974ZM28.4758 24.6627C28.5266 24.6601 28.5624 24.6652 28.5748 24.6777C28.5752 24.678 28.5762 24.679 28.5765 24.6793C28.5772 24.6805 28.5778 24.6831 28.5782 24.6843C28.5784 24.6856 28.5799 24.688 28.5798 24.6894C28.5792 24.6964 28.5739 24.7059 28.5648 24.716C28.4094 24.8898 27.5751 25.0629 27.5751 25.0629C27.5751 25.0629 27.5751 24.8442 27.5751 24.8378C27.5752 24.8378 27.5766 24.8378 27.5768 24.8378C27.6148 24.8365 28.2272 24.6752 28.4758 24.6627L28.4758 24.6627ZM24.816 24.6927C25.0652 24.6795 25.6279 24.811 26.8891 25.4048C26.8891 25.411 26.9004 25.6158 26.8958 25.635C26.8957 25.635 26.8943 25.635 26.8941 25.635C26.8194 25.611 24.6247 24.8445 24.6247 24.8445C24.6224 24.8361 24.5894 24.7047 24.816 24.6927L24.816 24.6927ZM28.9941 25.6517C29.0579 25.649 29.0997 25.6545 29.1098 25.6684C29.1108 25.67 29.1114 25.6732 29.1115 25.6751C29.1113 25.6817 29.1057 25.6902 29.0948 25.7001C28.8957 25.8788 27.6269 26.0953 27.5818 26.0987C27.5816 26.0987 27.5804 26.0987 27.5802 26.0987C27.58 26.0986 27.5787 26.0988 27.5785 26.0987C27.5784 26.0986 27.577 26.0972 27.5768 26.097C27.5763 26.0964 27.5755 26.0945 27.5751 26.0937C27.575 26.0933 27.5752 26.0923 27.5751 26.092C27.5749 26.0913 27.5736 26.0894 27.5734 26.0887C27.5654 26.0472 27.5916 25.9022 27.5936 25.8819C27.5936 25.8815 27.5936 25.8804 27.5936 25.8802C27.5936 25.8802 27.5951 25.8801 27.5952 25.8802C27.5955 25.8802 27.5966 25.8818 27.5969 25.8819C27.5973 25.8819 27.5982 25.8819 27.5986 25.8819C27.6798 25.8805 28.6522 25.6659 28.9941 25.6517H28.9941ZM25.2638 26.2104C25.6415 26.191 26.7861 26.7129 26.8422 26.7291C26.8423 26.7291 26.8437 26.7291 26.8439 26.7291C26.838 26.7524 26.837 26.9408 26.8321 26.9709C26.832 26.9717 26.8322 26.9738 26.8321 26.9743C26.8321 26.9744 26.8305 26.9742 26.8304 26.9743C26.7996 26.9578 25.231 26.3105 25.1615 26.3622C25.1183 26.2602 25.1631 26.2156 25.2639 26.2104L25.2638 26.2104ZM28.6385 26.3472C28.7171 26.3437 28.7747 26.3472 28.7928 26.3572C28.795 26.3586 28.7971 26.3605 28.7979 26.3622C28.798 26.3624 28.7978 26.3636 28.7979 26.3639C28.7979 26.3642 28.7979 26.3652 28.7979 26.3655C28.7978 26.3662 28.7982 26.3682 28.7979 26.3689C28.7977 26.3692 28.7965 26.3702 28.7962 26.3705C28.795 26.372 28.793 26.3739 28.7912 26.3755C28.6747 26.4785 27.5936 26.6907 27.5936 26.6907C27.5936 26.6907 27.5885 26.4916 27.5885 26.4723C27.6192 26.4657 28.3172 26.3613 28.6385 26.3472L28.6385 26.3472ZM28.5513 27.036C28.6274 27.0334 28.6813 27.0378 28.6939 27.051L28.6956 27.0526C28.6959 27.0532 28.6954 27.0554 28.6956 27.056C28.6956 27.0563 28.6972 27.0573 28.6972 27.0576C28.6972 27.058 28.6956 27.059 28.6956 27.0593C28.6954 27.06 28.6959 27.0619 28.6956 27.0626C28.6953 27.063 28.6941 27.0639 28.6939 27.0643C28.693 27.0658 28.6919 27.0678 28.6905 27.0693C28.6895 27.0705 28.6868 27.0731 28.6855 27.0743C28.5688 27.1745 27.6523 27.3662 27.6523 27.3662C27.6523 27.3662 27.6271 27.1475 27.6271 27.141C27.6525 27.1416 28.2653 27.0454 28.5513 27.036L28.5513 27.036ZM24.6835 27.091C24.9046 27.0771 25.4526 27.1677 26.8052 27.6564L26.8505 27.9199C26.8505 27.9199 24.5983 27.197 24.5342 27.1744C24.5343 27.1744 24.5341 27.1729 24.5342 27.1727C24.5342 27.1713 24.5338 27.1679 24.5342 27.1643C24.535 27.1577 24.5384 27.1473 24.5459 27.1377C24.5618 27.1183 24.5981 27.0963 24.6835 27.091L24.6835 27.091ZM27.6506 27.6631C27.6777 27.6688 28.0554 27.6813 28.1253 27.7398C28.1256 27.74 28.1266 27.7412 28.127 27.7414C28.1272 27.7417 28.1283 27.7428 28.1286 27.7431C28.1289 27.7433 28.1301 27.7445 28.1303 27.7448C28.131 27.7457 28.1315 27.7472 28.132 27.7481C28.1321 27.7485 28.1335 27.7495 28.1337 27.7498C28.1343 27.751 28.1351 27.7536 28.1354 27.7548C28.1354 27.7551 28.1353 27.7561 28.1354 27.7565C28.1354 27.7568 28.1353 27.7578 28.1354 27.7581C28.1354 27.7588 28.1354 27.7608 28.1354 27.7615C28.1353 27.7618 28.1354 27.7628 28.1354 27.7632C28.1352 27.7638 28.1339 27.7658 28.1337 27.7665C28.1336 27.7668 28.1338 27.7678 28.1337 27.7682C28.1333 27.7688 28.1324 27.7708 28.132 27.7715C28.0738 27.8616 27.6791 27.8949 27.6791 27.8949C27.6791 27.8949 27.6597 27.7184 27.6506 27.6631L27.6506 27.6631ZM28.5647 28.1767C28.6527 28.1746 28.7158 28.1846 28.7291 28.2101C28.7366 28.2273 28.7222 28.2528 28.6805 28.2868C28.3569 28.5506 27.6523 28.602 27.6523 28.602V28.3118C27.6524 28.3118 27.6536 28.3118 27.6539 28.3118C27.694 28.3071 28.2728 28.1837 28.5648 28.1767H28.5647ZM29.4621 28.4469C29.5738 28.4427 29.6219 28.4613 29.6366 28.4869C29.6377 28.4892 29.6392 28.4929 29.6399 28.4953C29.6409 28.4996 29.6419 28.5057 29.6416 28.5103C29.638 28.5434 29.602 28.583 29.5745 28.6087C29.4645 28.7117 27.711 29.2642 27.711 29.2642C27.711 29.2642 27.6978 28.8977 27.7043 28.8656C28.7295 28.5566 29.2309 28.4556 29.4621 28.4469L29.4621 28.4469ZM28.3283 29.4843C28.4397 29.4802 28.5269 29.4867 28.553 29.5127C28.5546 29.5144 28.557 29.5174 28.558 29.5193C28.5586 29.5205 28.5593 29.5231 28.5597 29.5243C28.5601 29.5256 28.5596 29.528 28.5597 29.5293C28.5598 29.5316 28.5603 29.5353 28.5597 29.5377C28.5585 29.5426 28.5551 29.5486 28.5513 29.5544C28.4013 29.7008 27.6724 29.7228 27.6724 29.7228V29.541C27.8093 29.5364 28.114 29.4923 28.3282 29.4843L28.3283 29.4843ZM29.0579 29.7828C29.0925 29.782 29.1136 29.7876 29.1166 29.7978C29.1167 29.7987 29.1167 29.8003 29.1166 29.8012C29.1148 29.8097 29.1046 29.8226 29.083 29.8379C28.7918 30.0437 27.6976 30.2548 27.6976 30.2548C27.6976 30.2548 27.7111 30.111 27.7177 30.0764C27.7481 30.0759 28.796 29.7892 29.0578 29.7828L29.0579 29.7828ZM29.6717 30.0113C29.8007 30.0101 29.8991 30.029 29.9552 30.0697C29.9553 30.0697 29.9568 30.0697 29.9569 30.0697C29.9569 30.0698 29.9569 30.0712 29.9569 30.0714C29.9569 30.0716 29.9569 30.0728 29.9569 30.073C29.9569 30.0736 29.9569 30.0757 29.9569 30.0764C29.9514 30.1163 29.8694 30.3039 29.5812 30.3849C29.2216 30.353 27.6958 30.8015 27.6657 30.8085C27.6656 30.8084 27.6641 30.8087 27.664 30.8085C27.6639 30.808 27.6641 30.806 27.664 30.8052C27.6632 30.7765 27.6841 30.6217 27.6841 30.6217C28.2101 30.309 29.1659 30.0161 29.6717 30.0113L29.6717 30.0113ZM25.7653 30.8919C25.7687 30.8919 25.7718 30.8919 25.7754 30.8919C26.4354 30.9627 26.6819 31.2084 26.7516 31.3072C26.62 31.5368 25.5769 31.0218 25.6865 30.9119C25.6991 30.9008 25.7249 30.8928 25.7653 30.8919L25.7653 30.8919ZM29.5476 30.9353C29.5738 30.9342 29.5978 30.9396 29.6147 30.9503C29.6216 30.9549 29.6285 30.9615 29.6332 30.9686C29.6395 30.9789 29.6438 30.9927 29.6449 31.0087C29.576 31.1146 29.2194 31.0683 29.1971 31.0654C29.215 31.059 29.4209 30.9401 29.5476 30.9353H29.5476ZM28.1337 31.6491C28.1826 31.6471 28.2233 31.652 28.2461 31.6658C28.2488 31.6675 28.2523 31.6703 28.2544 31.6724C28.2551 31.6731 28.2572 31.675 28.2578 31.6758C28.2587 31.6769 28.2604 31.6795 28.2612 31.6808C28.2618 31.682 28.2623 31.6844 28.2628 31.6858C28.267 31.6982 28.2654 31.7155 28.2545 31.7358C28.1509 31.9289 27.6976 31.8576 27.6976 31.8576V31.7225C27.6977 31.7225 27.6992 31.7224 27.6993 31.7225C27.7248 31.7246 27.9746 31.6556 28.1337 31.6491L28.1337 31.6491ZM25.4634 32.1578C25.6029 32.1508 25.7248 32.2417 25.8526 32.3145C26.1373 32.2566 26.7214 32.3596 26.7214 32.3596V32.6164C26.7214 32.6166 26.7201 32.6179 26.7197 32.6181C26.7195 32.6182 26.7184 32.618 26.718 32.6181C26.6649 32.6273 25.9803 32.5975 25.8274 32.5013C25.7027 32.5013 25.3497 32.3161 25.3225 32.2211C25.3223 32.2203 25.321 32.2186 25.3209 32.2178C25.3206 32.2166 25.321 32.214 25.3209 32.2128C25.3208 32.212 25.3208 32.2102 25.3209 32.2095C25.3209 32.2088 25.3207 32.2068 25.3209 32.2061C25.3209 32.2058 25.3208 32.2048 25.3209 32.2045C25.321 32.2038 25.3223 32.2018 25.3225 32.2011C25.3227 32.2008 25.3224 32.1998 25.3225 32.1995C25.3713 32.1736 25.4189 32.16 25.4634 32.1578L25.4634 32.1578ZM28.4574 32.2845C28.5645 32.2788 28.6099 32.3117 28.5262 32.4296C28.2933 32.7577 27.6909 32.6231 27.6909 32.6231L27.6657 32.4196C27.8782 32.4279 28.2665 32.2947 28.4574 32.2845L28.4574 32.2845ZM26.2065 32.9499C26.45 32.9387 26.7147 33.035 26.7147 33.035C26.7209 33.0474 26.8456 33.2917 26.7348 33.3736C26.7307 33.3765 26.7262 33.3794 26.7214 33.3819C26.5855 33.4527 25.936 33.3266 25.8979 33.0667C25.9743 32.9865 26.0875 32.9555 26.2065 32.9499H26.2065ZM23.6956 33.0767C23.9183 33.0634 24.1671 33.1999 24.1954 33.2135C24.1958 33.2136 24.1969 33.2134 24.1971 33.2135C24.1971 33.2212 24.1887 33.4603 24.1887 33.4603C24.1887 33.4603 23.7477 33.3381 23.6083 33.0917C23.6363 33.0841 23.6661 33.0785 23.6955 33.0767H23.6956ZM27.9375 33.1101C28.1859 33.1085 28.4861 33.1665 28.5296 33.2502C28.5378 33.2673 28.5353 33.2861 28.5195 33.3052C28.3965 33.4531 27.6976 33.3185 27.6976 33.3185V33.1384C27.7598 33.1203 27.8455 33.1106 27.9375 33.1101L27.9375 33.1101Z" fill="#1C6864"/>
<rect x="35" y="3" width="16" height="49" fill="#1C6864"/>
</g>
</svg>
