<svg width="54" height="48" viewBox="0 0 54 48" fill="none" xmlns="http://www.w3.org/2000/svg">
<mask id="mask0_1_41803" style="mask-type:alpha" maskUnits="userSpaceOnUse" x="3" y="6" width="48" height="36">
<path d="M3.56934 15.1356C4.16681 10.4125 8.0415 7.00193 12.7861 6.60887C16.6412 6.28949 21.6196 6 27 6C32.3804 6 37.3588 6.28949 41.2139 6.60887C45.9585 7.00193 49.8332 10.4125 50.4307 15.1356C50.752 17.6759 51 20.704 51 24C51 27.296 50.752 30.3241 50.4307 32.8644C49.8332 37.5875 45.9585 40.9981 41.2139 41.3911C37.3588 41.7105 32.3804 42 27 42C21.6196 42 16.6412 41.7105 12.7861 41.3911C8.0415 40.9981 4.16681 37.5875 3.56934 32.8644C3.248 30.3241 3 27.296 3 24C3 20.704 3.248 17.6759 3.56934 15.1356Z" fill="#00D0BF"/>
</mask>
<g mask="url(#mask0_1_41803)">
<rect x="3" y="30" width="48" height="12" fill="#3F6FEB"/>
<rect x="3" y="18" width="48" height="12" fill="#F5F5F5"/>
<path d="M22 23.9622L22.5544 23.9993C22.5562 23.9723 22.5579 23.9453 22.5598 23.9183L22.3418 23.9037C22.3473 23.8147 22.3547 23.7257 22.3587 23.6365C22.4358 23.5807 22.513 23.5251 22.5898 23.4689L22.5967 23.3662L22.3529 23.5432C22.3447 23.4856 22.3128 23.4262 22.2549 23.4061C22.2042 23.3878 22.142 23.3846 22.0981 23.4208C22.0423 23.4618 22.0323 23.5352 22.0251 23.599C22.0153 23.72 22.0086 23.8412 22 23.9622ZM22.0844 23.8866C22.0911 23.7956 22.0952 23.7043 22.1039 23.6136C22.1108 23.5687 22.119 23.5168 22.1583 23.4882C22.1939 23.4646 22.2463 23.4822 22.2609 23.5223C22.2899 23.5916 22.277 23.668 22.2733 23.7406L22.2627 23.8985C22.2033 23.8946 22.1438 23.8906 22.0844 23.8866H22.0844ZM22.0722 23.111L22.6132 23.2373L22.7361 22.7107L22.6593 22.6927L22.5547 23.1407L22.39 23.1022L22.4842 22.6986L22.4077 22.6807L22.3135 23.0844L22.1678 23.0503L22.2684 22.6192L22.1912 22.6012L22.0722 23.111ZM22.2671 22.3845L22.7918 22.567L22.8184 22.4903L22.6121 22.4185C22.639 22.3391 22.6685 22.2606 22.6933 22.1805C22.7111 22.1151 22.7248 22.0387 22.6863 21.9779C22.6551 21.933 22.5995 21.9042 22.5446 21.9059C22.4842 21.9085 22.4349 21.953 22.4081 22.0045C22.3684 22.0791 22.3462 22.1611 22.3173 22.2401L22.2671 22.3845ZM22.3684 22.3338C22.3966 22.2551 22.4219 22.1753 22.4523 22.0975C22.4712 22.0558 22.4943 22.0065 22.5422 21.9933C22.5815 21.9842 22.6228 22.0145 22.6262 22.0548C22.6358 22.1291 22.6034 22.1991 22.5806 22.268L22.5373 22.3925L22.3684 22.3338ZM22.5569 21.7125C22.6558 21.7698 22.7539 21.8287 22.8534 21.8851C22.9096 21.9152 22.9807 21.9325 23.0394 21.8987C23.1194 21.8544 23.1696 21.7726 23.2088 21.6927C23.2399 21.6255 23.2623 21.542 23.2228 21.4733C23.1803 21.4047 23.1031 21.3731 23.0371 21.3322L22.8451 21.2198L22.8043 21.2895C22.8984 21.345 22.9932 21.3992 23.0868 21.4554C23.1317 21.4827 23.1688 21.5321 23.1611 21.587C23.1522 21.6525 23.1148 21.7098 23.0776 21.7628C23.0468 21.8056 22.9952 21.8402 22.9403 21.8286C22.8832 21.8177 22.8367 21.7803 22.7865 21.7532L22.5976 21.6427L22.5569 21.7125ZM22.9571 21.0585L23.3983 21.3961C23.4667 21.3067 23.5349 21.2171 23.6039 21.1281C23.6434 21.0713 23.6799 20.9976 23.6531 20.9279C23.6287 20.8725 23.5717 20.8296 23.5104 20.8268C23.4828 20.8229 23.4468 20.8438 23.4319 20.8531C23.4476 20.7938 23.3991 20.7382 23.3446 20.7225C23.2789 20.6992 23.2123 20.7413 23.1688 20.788C23.1177 20.8436 23.0751 20.9062 23.0283 20.9655L22.9571 21.0585ZM23.0689 21.042C23.1206 20.9758 23.1695 20.9075 23.2236 20.8433C23.2487 20.8153 23.2891 20.7836 23.3281 20.8041C23.3637 20.8195 23.3724 20.8644 23.3554 20.8967C23.3285 20.9545 23.284 21.0013 23.2469 21.0525L23.1863 21.1317L23.0689 21.042ZM23.2487 21.1795C23.3023 21.111 23.3528 21.0399 23.4093 20.9738C23.4382 20.9436 23.4744 20.9055 23.5202 20.9142C23.5594 20.9232 23.5878 20.9657 23.5743 21.0051C23.5523 21.0778 23.4979 21.1335 23.4541 21.1938L23.3852 21.2839L23.2487 21.1795ZM23.4573 20.4692L23.8388 20.8731L24.1656 20.5643L24.1114 20.5069L23.85 20.7539L23.8433 20.7602L23.8384 20.7551L23.5159 20.4138L23.4573 20.4692ZM23.9464 20.0413L24.285 20.4817L24.3511 20.4309L24.0124 19.9905L23.9464 20.0413ZM24.4439 19.7034C24.3891 19.7376 24.3448 19.7776 24.3107 19.8243C24.2768 19.8708 24.2584 19.9193 24.2558 19.97C24.2532 20.0206 24.2667 20.0696 24.2965 20.1176C24.3233 20.1609 24.3612 20.1963 24.4063 20.22C24.4518 20.2444 24.5011 20.2534 24.5549 20.2474C24.6086 20.2414 24.6691 20.2177 24.7366 20.1756C24.8013 20.1353 24.8472 20.0888 24.8755 20.0354C24.9026 19.9841 24.9102 19.9296 24.8986 19.8716L24.8218 19.9018C24.8419 20.0128 24.7703 20.0661 24.6901 20.117C24.5646 20.1933 24.4423 20.1878 24.3674 20.0731C24.2898 19.9438 24.3747 19.837 24.4814 19.7676C24.5572 19.7203 24.6318 19.688 24.7029 19.7332L24.7631 19.6797C24.7217 19.6511 24.6746 19.6379 24.6211 19.6408C24.5649 19.6439 24.5062 19.6646 24.4439 19.7034ZM25.1004 19.3758L25.0423 19.9983L25.1288 19.9635L25.1463 19.7705L25.1466 19.7703L25.4276 19.657L25.5741 19.7838L25.6606 19.749L25.1869 19.3409L25.1004 19.3758H25.1004ZM25.1764 19.4396L25.3612 19.5995L25.1543 19.6829L25.1764 19.4396V19.4396ZM26.3181 19.0323L26.3528 19.5868C26.4531 19.5801 26.5534 19.5753 26.6536 19.5671C26.7323 19.558 26.8168 19.5376 26.8707 19.4748C26.9402 19.3978 26.9501 19.2826 26.9196 19.1866C26.8941 19.1022 26.8181 19.0382 26.7321 19.022C26.6474 19.0057 26.5611 19.0186 26.4758 19.0225L26.3181 19.0323ZM26.4037 19.1061C26.4834 19.1019 26.5631 19.0941 26.6431 19.0936C26.6886 19.0921 26.7333 19.1058 26.7702 19.1326C26.8257 19.1706 26.8584 19.239 26.8511 19.3062C26.8471 19.3834 26.7903 19.4545 26.7153 19.474C26.6724 19.4851 26.6277 19.4882 26.5838 19.4931L26.4284 19.5028L26.4036 19.1061L26.4037 19.1061ZM27.0924 18.9995L27.0608 19.5542L27.6006 19.585L27.6051 19.5062C27.452 19.4975 27.2989 19.4887 27.1458 19.48C27.1491 19.4237 27.1523 19.3675 27.1555 19.3111L27.5693 19.3348L27.5738 19.2564C27.4359 19.2485 27.2979 19.2406 27.1599 19.2327L27.1685 19.0833C27.3158 19.0917 27.4632 19.1002 27.6105 19.1086L27.6151 19.0294L27.0924 18.9995ZM28.543 19.231L28.3421 19.7489L28.4136 19.7767L28.5728 19.366L28.5811 19.3446L28.59 19.3683L28.7816 19.9193L28.8751 19.9556L29.076 19.4377L29.0043 19.4099L28.8452 19.8204L28.8371 19.8413L28.8283 19.8179L28.6364 19.2672L28.543 19.231ZM29.2893 19.5516L29.0368 20.0464L28.9626 20.0085L29.2151 19.5137L29.2893 19.5516ZM29.7084 19.7971C29.6544 19.7615 29.5996 19.7379 29.5429 19.7265C29.4866 19.715 29.4348 19.7186 29.3877 19.7373C29.3405 19.756 29.3016 19.7887 29.2704 19.8359C29.2423 19.8783 29.2259 19.9275 29.2232 19.9784C29.2201 20.03 29.2323 20.0784 29.2603 20.1249C29.2881 20.1711 29.335 20.2163 29.4013 20.26C29.465 20.3021 29.5263 20.3243 29.5867 20.3278C29.6447 20.331 29.6973 20.3152 29.7452 20.2805L29.6857 20.2232C29.5932 20.2878 29.5149 20.245 29.4352 20.1933C29.3135 20.1111 29.2674 19.9977 29.3404 19.8818C29.4256 19.7572 29.5581 19.7898 29.6657 19.8579C29.7403 19.9071 29.8008 19.9614 29.7893 20.0449L29.8631 20.0772C29.8718 20.0276 29.8642 19.9794 29.8392 19.932C29.8129 19.8822 29.7696 19.8375 29.7084 19.7971ZM30.2373 20.1961L29.6566 20.4277L29.7271 20.4888L29.9068 20.4166L29.9071 20.4168L30.1359 20.6155L30.0897 20.8036L30.1601 20.8648L30.3078 20.2572L30.2373 20.1961V20.1961ZM30.2151 20.2928L30.1569 20.53L29.9884 20.3838L30.2151 20.2928ZM30.6569 20.5821L30.2283 20.9356L30.2799 20.9982L30.4485 20.8591C30.5056 20.9277 30.5612 20.9976 30.6196 21.0651C30.6017 21.1586 30.5838 21.2521 30.5664 21.3456L30.6319 21.4251L30.6878 21.129C30.7358 21.1683 30.8059 21.1881 30.8633 21.1569C30.9127 21.1336 30.9561 21.0887 30.9587 21.0315C30.9647 20.9549 30.9101 20.8928 30.8663 20.836C30.7966 20.7513 30.7267 20.6667 30.6569 20.5821ZM30.6475 20.6951C30.7075 20.7692 30.7705 20.841 30.8278 20.9172C30.8542 20.9565 30.8872 21.0117 30.8569 21.0576C30.8319 21.0969 30.7772 21.0935 30.7436 21.068C30.6756 21.0222 30.6306 20.9521 30.5775 20.8911L30.5096 20.8087L30.6475 20.6951ZM31.3068 21.4662L30.6822 21.4948L30.7288 21.5757L30.9223 21.5663L30.9225 21.5666L31.0736 21.8292L30.9683 21.9919L31.0148 22.0727L31.3533 21.5471L31.3068 21.4662ZM31.2542 21.5503L31.1214 21.7554L31.0102 21.5621L31.2542 21.5504V21.5503ZM31.6633 22.2016C31.6286 22.1073 31.5738 22.0108 31.4811 21.9637C31.3779 21.9119 31.2406 21.9371 31.1675 22.0279C31.1038 22.1035 31.1005 22.2102 31.1175 22.303C31.1376 22.4096 31.1865 22.511 31.2599 22.5911L31.2184 22.606L31.245 22.68L31.5052 22.5865L31.404 22.3054L31.3439 22.3271L31.4183 22.5342L31.3302 22.5658C31.2524 22.499 31.2091 22.4003 31.1865 22.3021C31.1698 22.2283 31.1691 22.14 31.225 22.0821C31.2892 22.0153 31.4029 21.9946 31.4798 22.0515C31.5558 22.1071 31.5987 22.1971 31.6203 22.2867C31.6351 22.3456 31.6327 22.4156 31.5881 22.4615C31.5756 22.4708 31.5953 22.4839 31.5987 22.4951L31.6199 22.5302C31.6434 22.5117 31.6623 22.4881 31.6753 22.4612C31.6882 22.4343 31.6948 22.4047 31.6946 22.3748C31.6962 22.3157 31.6832 22.2571 31.6633 22.2016ZM31.8228 22.6355L31.5121 22.6959C31.4545 22.7071 31.4113 22.7253 31.3824 22.7497C31.3537 22.774 31.3352 22.8081 31.3264 22.8536C31.3176 22.8986 31.3188 22.9538 31.3318 23.0208C31.3319 23.0214 31.332 23.0219 31.3321 23.0225C31.3452 23.0895 31.3647 23.1411 31.3898 23.1795C31.4151 23.2184 31.4449 23.2432 31.4807 23.2548C31.5165 23.2666 31.5634 23.2673 31.6211 23.2561L31.9318 23.1957L31.9164 23.1164L31.6132 23.1754C31.4771 23.2018 31.4312 23.1302 31.4078 23.0077L31.4076 23.0061C31.3833 22.8838 31.3989 22.8002 31.5351 22.7737L31.8383 22.7147L31.8228 22.6355ZM31.9933 23.581L31.4184 23.3352L31.4251 23.4282L31.6036 23.5039V23.5043L31.6254 23.8065L31.4598 23.9071L31.4666 24.0002L32 23.6741L31.9933 23.581ZM31.9093 23.6338L31.7006 23.7608L31.6844 23.5383L31.9093 23.6339V23.6338ZM22.4307 25.0181L22.3501 25.0393L22.4392 25.3778L22.5197 25.3566L22.4307 25.0181ZM31.5713 25.0181L31.6518 25.0393L31.5628 25.3778L31.4822 25.3566L31.5713 25.0181ZM23.2898 26.4433L22.6687 26.5148L22.7207 26.5923L22.9131 26.5696L22.9133 26.5699L23.0822 26.8216L22.9882 26.991L23.0402 27.0685L23.3418 26.5208L23.2898 26.4433ZM23.2431 26.5309L23.1247 26.7446L23.0004 26.5594L23.2431 26.5309ZM23.5276 26.7827L23.1317 27.153L23.1846 27.2096L23.5182 26.8975L23.3432 27.3792L23.4038 27.444L23.8822 27.2988L23.5546 27.6052L23.6074 27.6617L24.0033 27.2915L23.9231 27.2056L23.4369 27.3508L23.6189 26.8803L23.5276 26.7827ZM24.1043 27.3711L23.7701 27.8149L24.2021 28.1402L24.2496 28.0771L23.8821 27.8005L23.9838 27.6653L24.3149 27.9147L24.3622 27.852L24.0311 27.6026L24.1211 27.4831L24.4748 27.7494L24.5226 27.6861L24.1043 27.3711ZM24.6479 27.769L24.3862 28.2591C24.4101 28.2719 24.434 28.2846 24.4578 28.2973L24.5607 28.1046C24.6396 28.1462 24.7177 28.1896 24.7974 28.2298C24.8165 28.323 24.8356 28.4163 24.8551 28.5095L24.9459 28.5579L24.8848 28.2629C24.9442 28.281 25.0166 28.2725 25.0577 28.2218C25.0927 28.1826 25.1165 28.1277 25.0997 28.0751C25.0802 28.0027 25.0089 27.9648 24.9488 27.9297C24.8486 27.8759 24.7481 27.8226 24.6479 27.769ZM24.6822 27.877C24.7659 27.9227 24.8515 27.9651 24.9336 28.0137C24.9716 28.0394 25.0198 28.0745 25.0151 28.1263C25.0108 28.1717 24.9618 28.196 24.9204 28.1863C24.8393 28.1729 24.771 28.1246 24.6988 28.0885L24.598 28.0347L24.6822 27.877ZM25.2754 28.0971L25.0654 28.6115L25.1427 28.6429L25.3526 28.1286L25.2754 28.0971ZM25.7764 28.2701C25.715 28.2497 25.656 28.2412 25.5983 28.2448C25.5408 28.2485 25.4918 28.2653 25.4511 28.2957C25.4104 28.326 25.3813 28.3677 25.3636 28.4213C25.3474 28.4696 25.3444 28.5214 25.3549 28.5712C25.3653 28.6218 25.3897 28.6655 25.4288 28.7031C25.4677 28.7405 25.5246 28.772 25.6 28.797C25.6724 28.821 25.7375 28.8266 25.7967 28.8142C25.8534 28.8023 25.9002 28.7734 25.9374 28.7274L25.8652 28.6875C25.7926 28.774 25.7058 28.753 25.6154 28.7237C25.4766 28.676 25.4027 28.5784 25.4431 28.4475C25.4929 28.3051 25.6293 28.3022 25.7509 28.34C25.8357 28.3681 25.9083 28.4048 25.9189 28.4885L25.9985 28.5005C25.9941 28.4503 25.9742 28.4057 25.9377 28.3665C25.8994 28.3252 25.846 28.2932 25.7764 28.2701ZM26.3349 28.3952L25.9716 28.9041L26.0639 28.9174L26.1761 28.7593H26.1765L26.4764 28.8028L26.5392 28.9861L26.6315 28.9995L26.4273 28.4085L26.3349 28.3952ZM26.3686 28.4885L26.4478 28.7196L26.2271 28.6877L26.3686 28.4886V28.4885ZM27.6372 28.3991C27.5737 28.4113 27.5181 28.4328 27.4696 28.4642C27.4212 28.4955 27.3867 28.5342 27.3661 28.5806C27.3455 28.6269 27.3405 28.6776 27.3512 28.733C27.3607 28.7831 27.3834 28.8297 27.417 28.868C27.4508 28.9071 27.4935 28.9331 27.546 28.9468C27.5982 28.9604 27.6632 28.9599 27.7413 28.9448C27.8162 28.9304 27.8756 28.9035 27.9212 28.8637C27.9649 28.8255 27.9916 28.7773 28.0014 28.7191L27.9189 28.7196C27.8979 28.8306 27.812 28.8547 27.7189 28.8735C27.5744 28.8998 27.4622 28.8508 27.4333 28.7169C27.4071 28.5683 27.5247 28.499 27.6492 28.4725C27.7369 28.4555 27.8182 28.4521 27.8683 28.5198L27.9437 28.4913C27.9152 28.4498 27.8761 28.4206 27.8251 28.4042C27.7714 28.387 27.7092 28.3852 27.6372 28.3991ZM28.0082 28.3334L28.1662 28.866L28.6846 28.7122L28.6622 28.6365L28.2212 28.7673L28.1731 28.6052L28.5705 28.4873L28.5482 28.4121L28.1508 28.53L28.1082 28.3865L28.5327 28.2606L28.5101 28.1845L28.0082 28.3334ZM28.6092 28.1445L28.8424 28.6487L28.912 28.6165L28.7175 28.196C28.8973 28.2776 29.0761 28.3616 29.2555 28.444C29.2674 28.4544 29.2794 28.4475 29.2914 28.4411L29.3613 28.4087L29.1281 27.9045L29.0584 27.9367L29.2527 28.3567C29.068 28.273 28.8843 28.1871 28.7001 28.1025L28.6092 28.1445ZM29.2193 27.858L29.2628 27.9241L29.4612 27.7935L29.4688 27.7885L29.4725 27.7942L29.7307 28.1865L29.7981 28.1421L29.5399 27.7498L29.5362 27.7441L29.5439 27.7391L29.7433 27.6078L29.6998 27.5417L29.2193 27.858ZM29.7783 27.4752L30.1548 27.8838L30.2145 27.8288L30.0664 27.6681C30.1317 27.6073 30.1984 27.548 30.2626 27.486C30.3569 27.4986 30.4513 27.5113 30.5457 27.5236L30.6213 27.4539L30.3227 27.4143C30.3593 27.3642 30.3752 27.2931 30.3409 27.2375C30.3149 27.1896 30.2677 27.1486 30.2104 27.1492C30.1337 27.1475 30.0747 27.2054 30.0203 27.2522C29.9397 27.3265 29.8589 27.401 29.7783 27.4752ZM29.8916 27.4784C29.9623 27.4145 30.0305 27.3476 30.1035 27.2862C30.1413 27.2576 30.1946 27.2217 30.2422 27.2494C30.2827 27.2722 30.2823 27.3271 30.2587 27.362C30.2167 27.4325 30.149 27.4812 30.0911 27.5377L30.0127 27.6099L29.8916 27.4784ZM30.4246 26.8283L30.6731 27.402L30.7322 27.3298L30.6547 27.1522L30.6549 27.1519L30.8467 26.9174L31.0362 26.9582L31.0953 26.886L30.4836 26.7561L30.4246 26.8283V26.8283ZM30.5219 26.8477L30.7608 26.899L30.6196 27.0716L30.5219 26.8477ZM30.6666 26.5136L31.1327 26.8158L31.3773 26.4386L31.3111 26.3957L31.1154 26.6974L31.1104 26.7052L31.1045 26.7013L30.7105 26.4458L30.6666 26.5136Z" fill="#C8A400"/>
<path d="M27 19.911L25.2512 22.9408L24.3945 24.4242H29.6055L28.7881 23.0084L27.0001 19.911H27Z" fill="#75AAFA"/>
<path opacity="0.62" d="M27 19.911L26.8691 20.1378L27 23.1921L27.131 20.1378L27 19.911Z" fill="#17C0EB" stroke="#17C0EB" stroke-width="0.00716667"/>
<path d="M27 22.748L26.9926 22.7482L27 22.921L27.0074 22.7482L27 22.748Z" fill="white"/>
<path d="M27 22.1019C26.4091 22.1011 25.8378 22.3131 25.3906 22.6992L24.5763 24.1106C24.5483 24.2618 24.5344 24.4152 24.5347 24.5689H24.8142C24.8142 23.3619 25.793 22.3832 27 22.3832C28.207 22.3832 29.1857 23.3619 29.1857 24.5689H29.4652C29.4652 24.4127 29.4513 24.2588 29.4236 24.1106L28.6093 22.6992C28.1621 22.3132 27.5908 22.1011 27 22.1019Z" fill="#FF0000"/>
<path d="M27 22.1471C26.3464 22.1471 25.7533 22.4068 25.3177 22.8277L24.6493 23.9856C24.602 24.1765 24.5781 24.3724 24.5781 24.569H24.8142C24.8142 23.362 25.793 22.3832 27 22.3832C28.207 22.3832 29.1857 23.362 29.1857 24.569H29.4218C29.4218 24.3676 29.397 24.171 29.3507 23.9839L28.6823 22.8277C28.2467 22.4069 27.6535 22.1471 27 22.1471Z" fill="#FF6600"/>
<path d="M27 22.1923C26.2943 22.1923 25.6611 22.499 25.2256 22.9874L24.7413 23.8259C24.6627 24.0658 24.6228 24.3166 24.6232 24.569H24.8142C24.8142 23.362 25.793 22.3832 27 22.3832C28.207 22.3832 29.1857 23.362 29.1857 24.569H29.3767C29.3767 24.3094 29.3356 24.0598 29.2586 23.8259L28.7742 22.9873C28.3389 22.4991 27.7055 22.1922 26.9999 22.1922L27 22.1923Z" fill="#FFFF00"/>
<path d="M27 22.2356C26.1916 22.2356 25.4793 22.6475 25.0607 23.2721L24.9045 23.5429C24.7476 23.8622 24.6663 24.2133 24.6666 24.569H24.8142C24.8142 23.362 25.7929 22.3832 26.9999 22.3832C28.207 22.3832 29.1857 23.362 29.1857 24.569H29.3333C29.3333 24.2138 29.252 23.8635 29.0955 23.5447L28.9375 23.2704C28.5188 22.6467 27.8076 22.2357 27 22.2357V22.2356Z" fill="#00FF00"/>
<path d="M27 22.2808C25.7362 22.2808 24.7117 23.3052 24.7117 24.569H24.8142C24.8142 23.3619 25.793 22.3832 27 22.3832C28.207 22.3832 29.1857 23.3619 29.1857 24.569H29.2882C29.2882 23.3052 28.2637 22.2808 27 22.2808Z" fill="#00CCFF"/>
<path d="M27 22.3242C25.7607 22.3242 24.7569 23.3297 24.7569 24.569H24.8316C24.8316 23.3712 25.8022 22.4006 27 22.4006C28.1977 22.4006 29.1683 23.3712 29.1683 24.569H29.2447C29.2447 23.3297 28.2392 22.3242 27 22.3242Z" fill="#0000FF"/>
<path d="M27 22.3694C25.7853 22.3694 24.8006 23.3541 24.8006 24.5687C24.8006 24.5824 24.8008 24.596 24.801 24.6095H24.8455C24.8452 24.5959 24.8451 24.5823 24.8451 24.5687C24.8451 23.3786 25.8099 22.4139 27 22.4139C28.1901 22.4139 29.1549 23.3786 29.1549 24.5687C29.1549 24.5824 29.1548 24.596 29.1545 24.6095H29.1988C29.199 24.596 29.1992 24.5824 29.1992 24.5687C29.1992 23.3541 28.2147 22.3694 27 22.3694Z" fill="#800080"/>
<path d="M27.0219 23.3403C26.9862 23.3334 26.9538 23.3134 26.9233 23.3064C26.8813 23.3466 26.8769 23.3873 26.8827 23.4219C26.8973 23.4297 26.8999 23.4415 26.9315 23.4697C26.9631 23.4979 26.9591 23.5126 26.9572 23.5789C26.9563 23.6068 26.9611 23.6667 26.9893 23.6723C27.0198 23.6784 27.0411 23.6531 27.0499 23.6079C27.0583 23.564 27.0731 23.5403 27.0887 23.5133C27.1057 23.4104 27.0779 23.374 27.0219 23.3403Z" fill="#510000"/>
<path d="M26.8435 23.0841C26.8104 23.085 26.7586 23.1403 26.7355 23.1105C26.7223 23.0934 26.72 23.0604 26.7335 23.0327C26.7645 22.9688 26.7959 22.9374 26.8539 22.9033C26.986 22.8255 27.07 22.8505 27.1358 22.9623C27.1968 23.0608 27.2553 23.1696 27.2605 23.2607C27.2622 23.2886 27.2763 23.339 27.2519 23.3641C27.177 23.4413 26.9965 23.2843 26.8909 23.3092C26.8554 23.3175 26.8144 23.3435 26.7809 23.3213C26.7548 23.3041 26.7766 23.2659 26.796 23.2494C26.83 23.2205 26.8794 23.118 26.8727 23.0736C26.869 23.0488 26.8683 23.0835 26.8435 23.0841Z" fill="#FF0000"/>
<path d="M26.8293 23.0299C26.7691 23.0547 26.7756 23.0897 26.7454 23.1183C26.754 23.1215 26.788 23.1355 26.8212 23.1016C26.8355 23.0897 26.8516 23.0853 26.8588 23.0814C26.8419 23.0937 26.8298 23.1122 26.8208 23.1194C26.7984 23.1377 26.7634 23.1796 26.7464 23.222C26.7293 23.2644 26.7225 23.3149 26.7255 23.321C26.7286 23.3271 26.7491 23.3643 26.8125 23.3894C26.9253 23.4343 26.9468 23.5249 27.0612 23.5249C27.1509 23.5249 27.1365 23.4663 27.2082 23.4787C27.2704 23.4895 27.3034 23.4401 27.2435 23.4103C27.1674 23.3843 27.0162 23.3996 26.9451 23.4121C26.9221 23.1853 26.942 23.2649 26.9366 23.1674C26.9313 23.0699 26.902 23.0641 26.9406 22.9851C26.9085 23.0336 26.8697 23.0259 26.8293 23.0299Z" fill="url(#paint0_linear_1_41803)"/>
<path d="M27.0521 22.877C27.0499 22.8894 27.0478 22.9056 27.049 22.9103C27.0538 22.9291 27.0587 22.9488 27.0644 22.9655C27.0708 22.9842 27.0734 22.9978 27.0778 23.0171C27.0823 23.0371 27.1 23.0449 27.1163 23.0572C27.1369 23.0728 27.121 23.1148 27.1338 23.1166C27.144 23.118 27.1609 23.057 27.161 23.0473C27.1614 23.0353 27.1607 23.0233 27.159 23.0114C27.1516 22.995 27.1437 22.9788 27.1353 22.9629C27.1352 22.9627 27.1349 22.9626 27.1348 22.9624C27.1315 22.9561 27.1279 22.9501 27.124 22.9442C27.1118 22.9263 27.0971 22.9101 27.0804 22.8963L27.0773 22.8936C27.0726 22.8901 27.0678 22.8864 27.0629 22.8833C27.0594 22.881 27.0557 22.879 27.0521 22.877Z" fill="#FF2A2A"/>
<path d="M27.0694 23.2994C27.0295 23.2889 26.9902 23.2692 26.9562 23.2591C26.8896 23.2391 26.8185 23.1961 26.7692 23.2139C26.7516 23.2216 26.7532 23.2392 26.7476 23.2644C26.7452 23.294 26.7145 23.3378 26.74 23.3234C26.7781 23.3021 26.8783 23.3641 26.912 23.3849C26.9279 23.3947 26.9615 23.414 26.9721 23.4416C26.9826 23.4693 26.9772 23.5392 26.9743 23.5692C26.9714 23.6006 26.981 23.6711 27.0125 23.6796C27.0464 23.6886 27.0723 23.6616 27.0856 23.6113C27.0983 23.5623 27.1081 23.5342 27.1276 23.5049C27.1472 23.4755 27.1696 23.4629 27.201 23.4569C27.2323 23.451 27.2777 23.4826 27.2777 23.4456C27.2777 23.4214 27.2564 23.3981 27.2655 23.3649C27.2726 23.3386 27.2432 23.3439 27.2187 23.3331C27.1612 23.3154 27.1093 23.3098 27.0694 23.2994Z" fill="url(#paint1_linear_1_41803)"/>
<path d="M26.9091 23.3829C26.8909 23.373 26.7805 23.3008 26.74 23.3234C26.7272 23.3305 26.7224 23.3225 26.7222 23.3091C26.722 23.2958 26.7283 23.2761 26.7325 23.261C26.7366 23.2459 26.7433 23.217 26.7611 23.202C26.7993 23.1698 26.8872 23.234 26.9338 23.2513C26.9298 23.2755 26.9077 23.3821 26.9091 23.3829Z" fill="#910000"/>
<path d="M27.098 23.5195C27.1489 23.4305 27.1817 23.4419 27.2431 23.4432C27.2636 23.4437 27.2696 23.4249 27.265 23.4062C27.2495 23.4408 27.1726 23.4023 27.1308 23.4208C27.0434 23.4592 27.0597 23.6302 27.0182 23.6469C27.0613 23.683 27.0806 23.5499 27.098 23.5195Z" fill="#FF3A3A"/>
<path d="M24.3946 24.4242L23.8416 25.3818H30.1587L29.6056 24.4242H24.3946Z" fill="white"/>
<path d="M24.2058 25.1864C24.1137 25.1864 24.0282 25.1957 23.9442 25.206L23.9172 25.253C24.0523 25.241 24.1781 25.217 24.3138 25.2136C24.4968 25.2181 24.6629 25.2597 24.8575 25.2597C24.9418 25.2605 25.0257 25.2581 25.109 25.2597C25.3034 25.2597 25.4695 25.2181 25.6525 25.2136C25.8355 25.2181 26.0027 25.2597 26.1971 25.2597C26.2814 25.26 26.3736 25.2584 26.4487 25.2597C26.6432 25.2597 26.8084 25.2181 26.9912 25.2136C27.1742 25.2181 27.3396 25.2597 27.534 25.2597C27.619 25.2605 27.7025 25.2581 27.7863 25.2597C27.9808 25.2597 28.1469 25.2181 28.3301 25.2136C28.5132 25.2181 28.679 25.2597 28.8735 25.2597C28.9577 25.2605 29.0419 25.2581 29.1252 25.2597C29.3196 25.2597 29.4849 25.2181 29.6677 25.2136C29.8093 25.2171 29.941 25.2424 30.0836 25.2539L30.055 25.2042C29.977 25.1949 29.8975 25.1864 29.8123 25.1864C29.7273 25.1853 29.6436 25.1881 29.5597 25.1864C29.3652 25.1864 29.2 25.228 29.0172 25.2325C28.8341 25.228 28.6681 25.1864 28.4735 25.1864C28.3895 25.1853 28.3052 25.1881 28.2221 25.1864C28.0276 25.1864 27.8613 25.228 27.6784 25.2325C27.4954 25.228 27.3293 25.1864 27.1349 25.1864C27.0503 25.1853 26.9659 25.1881 26.8823 25.1864C26.6878 25.1864 26.5225 25.228 26.3398 25.2325C26.1568 25.228 25.9915 25.1864 25.7971 25.1864C25.7125 25.1852 25.629 25.1881 25.5456 25.1864C25.3511 25.1864 25.1851 25.228 25.002 25.2325C24.819 25.228 24.6529 25.1864 24.4585 25.1864C24.374 25.1853 24.2894 25.1881 24.2058 25.1864Z" fill="url(#paint2_linear_1_41803)"/>
<path d="M24.4016 24.4138L24.3948 24.4258H29.6054L29.5985 24.4138H24.4016ZM24.3895 24.4348L24.3824 24.447H29.6177L29.6106 24.4348H24.3895H24.3895ZM24.3784 24.454L24.367 24.4738H29.6332L29.6218 24.454H24.3783H24.3784ZM24.3607 24.4846L24.3468 24.5087H29.6534L29.6395 24.4846H24.3607V24.4846ZM24.3385 24.523L24.3246 24.5471H29.6755L29.6616 24.523H24.3385ZM24.3164 24.5614L24.3026 24.5853H29.6975L29.6838 24.5614H24.3164ZM24.2943 24.5998L24.2804 24.6237H29.7198L29.7059 24.5998H24.2943ZM24.2704 24.6412L24.2535 24.6706H29.7466L29.7298 24.6412H24.2704ZM24.6309 24.6821C24.8226 24.7189 24.841 24.6821 24.841 24.6821H24.6309ZM29.1589 24.6821C29.1589 24.6821 29.1773 24.7189 29.369 24.6821H29.1589Z" fill="url(#paint3_linear_1_41803)"/>
<path d="M28.7017 23.8352C28.6068 23.8352 28.5777 23.8831 28.5777 23.8831C28.4257 24.4707 27.9218 25.0683 27.3222 25.0683H26.8733V25.6665C26.8733 25.6667 26.8738 25.6665 26.8742 25.6665H30.2907L29.947 25.058C29.4077 24.9775 28.967 24.4261 28.8267 23.8831C28.8267 23.8831 28.7967 23.8352 28.7017 23.8352H28.7017Z" fill="url(#paint4_linear_1_41803)"/>
<path d="M28.7017 23.8587C28.6582 23.8587 28.6317 23.8687 28.6163 23.8785C28.6016 23.8876 28.5988 23.8938 28.5984 23.8945C28.5984 23.8948 28.5976 23.895 28.5975 23.8953C28.5197 24.1911 28.3557 24.4881 28.1345 24.7124C27.9116 24.9385 27.6306 25.0918 27.3231 25.0918H26.8967V25.6431H30.2776L29.962 25.0843C29.7016 25.0503 29.4635 24.9086 29.2699 24.7124C29.0484 24.4881 28.8848 24.1911 28.8069 23.8953L28.806 23.8945C28.8056 23.8938 28.8021 23.8886 28.7872 23.8794C28.7715 23.8696 28.7453 23.8587 28.7017 23.8587Z" fill="#97C924"/>
<path d="M28.7017 23.8587C28.7098 23.8587 28.7172 23.8599 28.7242 23.8606C28.7256 24.0282 28.7242 24.3112 28.7242 24.4607C28.7226 24.5907 28.6781 24.6953 28.6124 24.8185C28.5821 24.9048 28.5577 24.872 28.4819 24.9772C28.3802 25.0136 28.3049 25.0277 28.1964 25.0448C28.0566 25.0669 27.7453 25.0865 27.5916 25.0523C27.7939 24.993 27.9783 24.8707 28.1344 24.7123C28.1762 24.67 28.2157 24.6255 28.2528 24.579C28.3151 24.5007 28.371 24.4174 28.42 24.3301C28.4396 24.2953 28.4581 24.2608 28.4754 24.225C28.5013 24.1713 28.5244 24.1166 28.5448 24.0616C28.5517 24.0432 28.5584 24.0246 28.5646 24.0062C28.5769 23.9693 28.5878 23.9323 28.5975 23.8953C28.5976 23.895 28.5983 23.8948 28.5984 23.8944C28.5987 23.8937 28.6016 23.8876 28.6162 23.8785C28.6238 23.8737 28.6347 23.869 28.6482 23.8653H28.6491C28.6631 23.8616 28.6799 23.8587 28.7017 23.8587Z" fill="#EDE71F"/>
<path d="M28.6632 23.9386C28.6404 24.2738 28.5367 24.6715 28.2941 24.928C28.2049 25.0023 28.0908 25.0697 27.9805 25.0533C28.3566 24.7472 28.5852 24.2785 28.6632 23.9386Z" fill="#C6CB24"/>
<path d="M28.3608 24.5152C28.3052 24.6663 28.0948 24.8899 27.8697 25.0732C27.8058 25.0752 27.7719 25.0788 27.7139 25.0753C27.851 25.0628 28.1707 24.7929 28.3608 24.5152Z" fill="#9ECB34"/>
<path d="M27.1232 23.8835C27.2752 24.471 27.7782 25.0686 28.3778 25.0686H28.8272V25.6669C28.8272 25.667 28.8264 25.6669 28.8263 25.6669H25.171C25.1707 25.6669 25.17 25.667 25.17 25.6669V25.0686H25.6185C26.218 25.0686 26.722 24.471 26.874 23.8835C26.874 23.8835 26.9037 23.8354 26.9987 23.8354C27.0936 23.8354 27.1233 23.8835 27.1233 23.8835H27.1232Z" fill="url(#paint5_linear_1_41803)"/>
<path d="M26.9986 23.8587C27.0422 23.8587 27.0683 23.8696 27.084 23.8794C27.099 23.8886 27.1025 23.8938 27.1029 23.8944L27.1038 23.8953C27.1817 24.191 27.3454 24.488 27.5668 24.7124C27.7899 24.9385 28.0716 25.0918 28.3792 25.0918H28.8036V25.643H25.1936V25.0918H25.62C25.9275 25.0918 26.2085 24.9384 26.4314 24.7123C26.6526 24.488 26.8166 24.191 26.8944 23.8953C26.8945 23.8949 26.8952 23.8948 26.8953 23.8944C26.8957 23.8938 26.8985 23.8876 26.9131 23.8784C26.9287 23.8688 26.955 23.8587 26.9986 23.8587Z" fill="#97C924"/>
<path d="M26.959 23.8623C26.9545 23.8632 26.95 23.8642 26.9456 23.8654H26.9446C26.9334 23.8682 26.9227 23.8726 26.9128 23.8785C26.8981 23.8877 26.8953 23.8937 26.895 23.8944C26.8948 23.8947 26.8941 23.8949 26.894 23.8953C26.8843 23.9323 26.8735 23.9694 26.8611 24.0063C26.855 24.0247 26.8481 24.0432 26.8413 24.0616C26.8208 24.1166 26.7978 24.1713 26.7719 24.225C26.7545 24.2606 26.736 24.2957 26.7165 24.3302C26.6675 24.4175 26.6115 24.5006 26.5492 24.5789C26.5121 24.6255 26.4726 24.67 26.4309 24.7124C26.2748 24.8708 26.0905 24.993 25.8882 25.0523C26.0418 25.0864 26.1122 25.0492 26.252 25.0271C26.3605 25.0099 26.4859 24.9958 26.5877 24.9594C26.6635 24.8542 26.6377 24.8872 26.6681 24.8009C26.7337 24.6777 26.8295 24.5663 26.8533 24.4297C26.9432 24.2618 26.959 23.9512 26.959 23.8623Z" fill="#EDE71F"/>
<path d="M26.9597 23.9385C26.9368 24.2738 26.8332 24.6714 26.5906 24.928C26.5014 25.0023 26.3872 25.0696 26.2769 25.0533C26.653 24.7471 26.8816 24.2784 26.9597 23.9385Z" fill="#C6CB24"/>
<path d="M26.6573 24.5152C26.6017 24.6663 26.3913 24.89 26.1662 25.0732C26.1023 25.0752 26.0684 25.0788 26.0104 25.0753C26.1475 25.0628 26.4672 24.7929 26.6573 24.5152Z" fill="#9ECB34"/>
<path d="M27.0528 23.8653H27.0538C27.0673 23.869 27.078 23.8737 27.0855 23.8784C27.1002 23.8876 27.103 23.8937 27.1034 23.8943C27.1035 23.8947 27.1043 23.8949 27.1044 23.8953C27.1141 23.9323 27.1249 23.9694 27.1373 24.0062C27.1434 24.0247 27.1503 24.0432 27.1571 24.0615C27.1775 24.1165 27.2005 24.1713 27.2265 24.2249C27.2438 24.2608 27.2623 24.2954 27.2819 24.3302C27.3309 24.4175 27.3868 24.5006 27.4492 24.5789C27.4862 24.6254 27.5257 24.67 27.5675 24.7124C27.7236 24.8707 27.9079 25.0149 28.1101 25.0742C27.7076 25.0757 27.533 25.0392 27.3867 24.851C27.2404 24.6629 27.1864 24.5806 27.1567 24.4657C27.127 24.3508 27.0442 24.1007 27.0528 23.8653Z" fill="#EDE71F"/>
<path d="M27.082 23.9385C27.1049 24.2738 27.2053 24.6055 27.4479 24.8621C27.5372 24.9364 27.6512 25.0038 27.7616 24.9874C27.3541 24.7095 27.16 24.2784 27.082 23.9385Z" fill="#C6CB24"/>
<path d="M26.1527 23.8352C26.0577 23.8352 26.0278 23.8831 26.0278 23.8831C25.8877 24.4246 25.3709 25.123 24.8336 25.2059L24.5674 25.6665H27.2905V25.036C26.8002 24.9043 26.4077 24.3899 26.2767 23.8831C26.2767 23.8831 26.2477 23.8352 26.1527 23.8352Z" fill="url(#paint6_linear_1_41803)"/>
<path d="M26.1527 23.8587C26.1092 23.8587 26.083 23.8696 26.0673 23.8794C26.0524 23.8886 26.0489 23.8938 26.0485 23.8944L26.0476 23.8953C25.9697 24.191 25.7877 24.49 25.5987 24.7281C25.4097 24.966 25.0587 25.2068 24.8186 25.2323L24.5807 25.643H27.2507V25.049C27.0532 24.9884 26.8729 24.8675 26.72 24.7123C26.4988 24.488 26.3348 24.191 26.257 23.8953C26.2569 23.8949 26.2562 23.8948 26.2561 23.8944C26.2557 23.8938 26.2529 23.8876 26.2382 23.8784C26.2227 23.8688 26.1963 23.8587 26.1527 23.8587Z" fill="#97C924"/>
<path d="M26.0803 23.9386C26.046 24.441 25.7662 25.0749 25.4503 25.1841C25.3472 25.2197 25.167 25.2321 25.1043 25.2401C25.657 24.9773 25.9836 24.3594 26.0803 23.9386Z" fill="#93BC30"/>
<path d="M26.1526 23.8587C26.1444 23.8587 26.137 23.8598 26.13 23.8606C26.1287 24.0282 26.13 24.3111 26.13 24.4606C26.1317 24.5906 26.1762 24.6952 26.2418 24.8185C26.2456 24.8292 26.2494 24.8381 26.2531 24.8457C26.2759 24.906 26.2927 24.927 26.3799 24.9931C26.6569 25.2035 27.0004 25.235 27.2025 25.2176C27.1392 25.1677 27.0715 25.1223 27.0119 25.0805C27.107 25.0774 27.198 25.0666 27.2626 25.0523C27.0604 24.993 26.876 24.8706 26.7199 24.7123C26.6929 24.6844 26.6669 24.6556 26.6419 24.626C26.6303 24.6097 26.6141 24.5872 26.609 24.5808C26.5469 24.5031 26.4833 24.4171 26.4343 24.3301C26.4147 24.2956 26.3963 24.2605 26.3789 24.2249C26.3446 24.1539 26.3148 24.0808 26.2897 24.0061C26.2775 23.9695 26.2665 23.9326 26.2568 23.8953C26.2567 23.895 26.256 23.8947 26.2559 23.8943C26.2555 23.8937 26.2527 23.8876 26.238 23.8784C26.2281 23.8725 26.2173 23.8681 26.2061 23.8652H26.2051C26.188 23.8607 26.1703 23.8585 26.1526 23.8587Z" fill="#EDE71F"/>
<path d="M26.1915 23.9385C26.2144 24.2738 26.318 24.6714 26.5606 24.928C26.6498 25.0023 26.7639 25.0696 26.8742 25.0533C26.4981 24.7471 26.2695 24.2784 26.1915 23.9385Z" fill="#CCD11E"/>
<path d="M26.423 24.4021C26.5546 24.7264 26.888 25.0294 27.2309 25.2329C27.2948 25.2349 27.3138 25.2331 27.3719 25.2296C27.1264 25.0979 26.7308 24.9099 26.423 24.4021Z" fill="#9ECB34"/>
<path d="M30.1389 25.3713C30.107 25.3825 29.8933 25.3607 29.7815 25.3688L29.7104 25.3875C29.648 25.387 29.586 25.3888 29.5254 25.3875C29.3253 25.3875 29.156 25.4402 28.9656 25.4402C28.7749 25.4402 28.6062 25.3875 28.4059 25.3875C28.3437 25.387 28.2818 25.3889 28.2209 25.3875C28.0208 25.3875 27.8516 25.4402 27.6611 25.4402C27.4706 25.4402 27.3015 25.3875 27.1014 25.3875C27.0386 25.3871 26.9769 25.3888 26.9154 25.3875C26.7153 25.3875 26.547 25.4402 26.3566 25.4402C26.1661 25.4402 25.998 25.3875 25.7979 25.3875C25.783 25.3875 25.7692 25.388 25.7548 25.3884C25.7449 25.3882 25.7338 25.3875 25.7238 25.3875C25.7171 25.3875 25.7115 25.3873 25.7049 25.3875C25.6985 25.3873 25.6918 25.3875 25.6852 25.3875C25.6751 25.3875 25.666 25.3882 25.6561 25.3884C25.6417 25.388 25.6278 25.3875 25.6128 25.3875C25.4125 25.3875 25.2438 25.4402 25.0531 25.4402C24.8626 25.4402 24.6935 25.3875 24.4934 25.3875C24.4788 25.3875 24.4644 25.388 24.4503 25.3884C24.4403 25.3882 24.4314 25.3875 24.4213 25.3875C24.4144 25.3875 24.4073 25.3873 24.4005 25.3875C24.394 25.3873 24.3873 25.3875 24.3807 25.3875C24.3706 25.3875 24.3606 25.3882 24.3507 25.3884C24.3363 25.388 24.3224 25.3875 24.3076 25.3875C24.1476 25.3875 23.9621 25.4212 23.8111 25.4347L23.4626 26.0379L26.9611 26.0375L30.5375 26.0379L30.1389 25.3713Z" fill="#2E50A6"/>
<path d="M29.6663 25.2834C29.6551 25.2834 29.6441 25.2834 29.6331 25.2838C29.4531 25.2891 29.324 25.3458 29.0109 25.3458C28.6977 25.3458 28.6654 25.2892 28.3118 25.2969C27.9814 25.3042 27.8428 25.3671 27.6635 25.3646C27.4841 25.3621 27.1928 25.3258 26.9685 25.3493C26.7442 25.3728 26.478 25.4206 26.3033 25.421C26.0861 25.4201 25.8689 25.3804 25.6419 25.403C25.4148 25.4256 25.3087 25.4863 25.0273 25.4855C24.7853 25.4848 24.5226 25.4467 24.3191 25.4469C24.1283 25.4471 23.9154 25.5001 23.7588 25.5271L23.712 25.6084C23.8368 25.5939 24.187 25.5407 24.3121 25.5374C24.4423 25.5341 24.9075 25.5643 25.164 25.5555C25.4206 25.5467 25.4506 25.4904 25.7539 25.4904C25.9651 25.4904 26.1243 25.5126 26.3409 25.5126C26.4761 25.5126 26.5989 25.4436 26.8044 25.4436C26.8564 25.4421 26.908 25.4402 26.9596 25.4385C27.1329 25.4099 27.4254 25.441 27.629 25.4514C27.8131 25.461 27.9321 25.4172 28.1242 25.4108C28.2073 25.4071 28.2908 25.4072 28.3728 25.4026C28.565 25.3962 28.7295 25.4382 28.9105 25.4373C29.0911 25.4262 29.2663 25.3861 29.4583 25.3797C29.5423 25.3757 29.6249 25.3757 29.7078 25.3714C29.8348 25.3672 30.032 25.3758 30.1674 25.3993L30.1207 25.3187C29.9885 25.3145 29.8256 25.2834 29.6663 25.2834Z" fill="url(#paint7_linear_1_41803)"/>
<path d="M24.2395 25.93C24.0475 25.93 23.8838 25.9773 23.7033 25.9825C23.6361 25.9806 23.5718 25.9723 23.5069 25.9633L23.4797 26.0105C23.5067 26.0123 23.5338 26.014 23.5623 26.014C23.6458 26.015 23.7285 26.012 23.8109 26.014C24.003 26.014 24.1655 25.9667 24.3461 25.9615C24.5269 25.9666 24.6909 26.014 24.8831 26.014C24.9665 26.0151 25.0494 26.012 25.1317 26.014C25.3237 26.014 25.4879 25.9666 25.6687 25.9615C25.8496 25.9666 26.0148 26.014 26.2068 26.014C26.2899 26.015 26.3731 26.012 26.4552 26.014C26.6472 26.014 26.8108 25.9666 26.9914 25.9615C27.1721 25.9666 27.3353 26.014 27.5275 26.014C27.6115 26.0151 27.6941 26.012 27.7769 26.014C27.969 26.014 28.133 25.9666 28.314 25.9615C28.4949 25.9666 28.659 26.014 28.8512 26.014C28.9342 26.015 29.0173 26.012 29.0995 26.014C29.2915 26.014 29.4551 25.9666 29.6357 25.9615C29.8164 25.9666 29.9807 26.014 30.1727 26.014C30.256 26.015 30.3391 26.012 30.4212 26.014C30.4548 26.014 30.4877 26.0121 30.52 26.0097L30.4943 25.9655C30.4352 25.9735 30.3758 25.9808 30.3146 25.9825C30.1338 25.9773 29.9704 25.93 29.7783 25.93C29.6945 25.9288 29.6118 25.9316 29.5289 25.93C29.3368 25.93 29.1735 25.9773 28.9928 25.9825C28.8119 25.9774 28.6481 25.93 28.4558 25.93C28.3727 25.9288 28.2896 25.9316 28.2073 25.93C28.0152 25.93 27.8511 25.9773 27.6703 25.9825C27.4895 25.9773 27.3253 25.93 27.1333 25.93C27.0498 25.9288 26.9665 25.9316 26.8838 25.93C26.6917 25.93 26.5283 25.9773 26.3477 25.9825C26.167 25.9773 26.0036 25.93 25.8116 25.93C25.7279 25.9288 25.6455 25.9316 25.563 25.93C25.3708 25.93 25.207 25.9774 25.026 25.9825C24.8452 25.9773 24.6811 25.93 24.489 25.93C24.4056 25.9288 24.322 25.9316 24.2396 25.93H24.2395Z" fill="url(#paint8_linear_1_41803)"/>
<path d="M23.8803 25.372L23.7455 25.6048C23.9032 25.5787 24.14 25.5102 24.3363 25.51C24.5398 25.5099 24.7853 25.5602 25.0273 25.5609C25.3087 25.5617 25.4148 25.501 25.6419 25.4784C25.8689 25.4558 26.0862 25.5077 26.3033 25.5087C26.478 25.5083 26.7442 25.4481 26.9685 25.4247C27.1928 25.4013 27.3983 25.441 27.6687 25.4452C27.939 25.4494 27.9814 25.3796 28.3118 25.3724C28.6654 25.3646 28.6977 25.4211 29.0109 25.4211C29.2465 25.4339 29.4488 25.3737 29.659 25.3589C29.8692 25.344 29.9667 25.3613 30.1204 25.3649L30.0183 25.1842C30.0166 25.1842 30.0149 25.1844 30.0131 25.1844L24.3884 25.3081L23.8803 25.372Z" fill="#97C924"/>
<path d="M29.7815 25.3688C29.7815 25.3688 29.932 25.377 29.9952 25.3842C30.0499 25.3897 30.1046 25.3944 30.1594 25.3982L30.1388 25.3713C30.107 25.3825 29.8933 25.3607 29.7815 25.3688Z" fill="white"/>
<path d="M27 19.8259L25.2144 22.9195L23.3889 26.0806L26.961 26.0802L30.6111 26.0806L28.8249 22.9871L27 19.8259ZM27 19.9926L28.7528 23.0289L30.4667 25.9971L26.961 25.9969L23.5332 25.9971L25.2865 22.9613L27 19.9926Z" fill="#C8A400"/>
<rect x="3" y="6" width="48" height="12" fill="#3F6FEB"/>
</g>
<defs>
<linearGradient id="paint0_linear_1_41803" x1="26.9299" y1="23.3914" x2="27.0348" y2="23.0784" gradientUnits="userSpaceOnUse">
<stop stop-color="#510000"/>
<stop offset="0.3" stop-color="#8A0000"/>
<stop offset="1" stop-color="#AA0000"/>
</linearGradient>
<linearGradient id="paint1_linear_1_41803" x1="27.0802" y1="23.5202" x2="27.1626" y2="23.3022" gradientUnits="userSpaceOnUse">
<stop stop-color="#FF2A2A"/>
<stop offset="1" stop-color="#FF0000"/>
</linearGradient>
<linearGradient id="paint2_linear_1_41803" x1="23.9172" y1="24.971" x2="34.4673" y2="24.971" gradientUnits="userSpaceOnUse">
<stop stop-color="#002255"/>
<stop offset="0.5" stop-color="#0044AA"/>
<stop offset="1" stop-color="#002255"/>
</linearGradient>
<linearGradient id="paint3_linear_1_41803" x1="23.9171" y1="24.971" x2="34.4673" y2="24.971" gradientUnits="userSpaceOnUse">
<stop stop-color="#002255"/>
<stop offset="0.5" stop-color="#0044AA"/>
<stop offset="1" stop-color="#002255"/>
</linearGradient>
<linearGradient id="paint4_linear_1_41803" x1="26.1536" y1="24.65" x2="26.1536" y2="24.9799" gradientUnits="userSpaceOnUse">
<stop stop-color="#F5F549"/>
<stop offset="1" stop-color="#97C924"/>
</linearGradient>
<linearGradient id="paint5_linear_1_41803" x1="26.1535" y1="24.65" x2="26.1535" y2="24.9799" gradientUnits="userSpaceOnUse">
<stop stop-color="#F5F549"/>
<stop offset="1" stop-color="#97C924"/>
</linearGradient>
<linearGradient id="paint6_linear_1_41803" x1="26.1536" y1="24.65" x2="26.1536" y2="24.9799" gradientUnits="userSpaceOnUse">
<stop stop-color="#F5F549"/>
<stop offset="1" stop-color="#97C924"/>
</linearGradient>
<linearGradient id="paint7_linear_1_41803" x1="23.712" y1="25.2834" x2="30.1674" y2="25.2834" gradientUnits="userSpaceOnUse">
<stop stop-color="#002255"/>
<stop offset="0.5" stop-color="#0044AA"/>
<stop offset="1" stop-color="#002255"/>
</linearGradient>
<linearGradient id="paint8_linear_1_41803" x1="23.4797" y1="25.9297" x2="30.52" y2="25.9297" gradientUnits="userSpaceOnUse">
<stop stop-color="#002255"/>
<stop offset="0.5" stop-color="#0044AA"/>
<stop offset="1" stop-color="#002255"/>
</linearGradient>
</defs>
</svg>
