<svg width="54" height="54" viewBox="0 0 54 54" fill="none" xmlns="http://www.w3.org/2000/svg">
<mask id="mask0_1_41803" style="mask-type:alpha" maskUnits="userSpaceOnUse" x="3" y="9" width="48" height="36">
<path d="M3.56934 18.1356C4.16681 13.4125 8.0415 10.0019 12.7861 9.60887C16.6412 9.28949 21.6196 9 27 9C32.3804 9 37.3588 9.28949 41.2139 9.60887C45.9585 10.0019 49.8332 13.4125 50.4307 18.1356C50.752 20.6759 51 23.704 51 27C51 30.296 50.752 33.3241 50.4307 35.8644C49.8332 40.5875 45.9585 43.9981 41.2139 44.3911C37.3588 44.7105 32.3804 45 27 45C21.6196 45 16.6412 44.7105 12.7861 44.3911C8.04151 43.9981 4.16681 40.5875 3.56934 35.8644C3.248 33.3241 3 30.296 3 27C3 23.704 3.248 20.6759 3.56934 18.1356Z" fill="#00D0BF"/>
</mask>
<g mask="url(#mask0_1_41803)">
<rect x="3" y="33" width="48" height="12" fill="#3F6FEB"/>
<rect x="3" y="21" width="48" height="12" fill="#F5F5F5"/>
<path d="M22 26.9622L22.5544 26.9993C22.5562 26.9723 22.5579 26.9453 22.5598 26.9183L22.3418 26.9037C22.3473 26.8147 22.3547 26.7257 22.3587 26.6365C22.4358 26.5807 22.513 26.5251 22.5898 26.4689L22.5967 26.3662L22.3529 26.5432C22.3447 26.4856 22.3128 26.4262 22.2549 26.4061C22.2042 26.3878 22.142 26.3846 22.0981 26.4208C22.0423 26.4618 22.0323 26.5352 22.0251 26.599C22.0153 26.72 22.0086 26.8412 22 26.9622V26.9622ZM22.0844 26.8866C22.0911 26.7956 22.0952 26.7043 22.1039 26.6136C22.1108 26.5687 22.119 26.5168 22.1583 26.4882C22.1939 26.4646 22.2463 26.4822 22.2609 26.5223C22.2899 26.5916 22.277 26.668 22.2733 26.7406L22.2627 26.8985C22.2033 26.8946 22.1438 26.8906 22.0844 26.8866H22.0844ZM22.0722 26.111L22.6132 26.2373L22.7361 25.7107L22.6593 25.6927L22.5547 26.1407L22.39 26.1022L22.4842 25.6986L22.4077 25.6807L22.3135 26.0844L22.1678 26.0503L22.2684 25.6192L22.1912 25.6012L22.0722 26.111V26.111ZM22.2671 25.3845L22.7918 25.567L22.8184 25.4903L22.6121 25.4185C22.639 25.3391 22.6685 25.2606 22.6933 25.1805C22.7111 25.1151 22.7248 25.0387 22.6863 24.9779C22.6551 24.933 22.5995 24.9042 22.5446 24.9059C22.4842 24.9085 22.4349 24.953 22.4081 25.0045C22.3684 25.0791 22.3462 25.1611 22.3173 25.2401L22.2671 25.3845V25.3845ZM22.3684 25.3338C22.3966 25.2551 22.4219 25.1753 22.4523 25.0975C22.4712 25.0558 22.4943 25.0065 22.5422 24.9933C22.5815 24.9842 22.6228 25.0145 22.6262 25.0548C22.6358 25.1291 22.6034 25.1991 22.5806 25.268L22.5373 25.3925L22.3684 25.3338V25.3338ZM22.5569 24.7125C22.6558 24.7698 22.7539 24.8287 22.8534 24.8851C22.9096 24.9152 22.9807 24.9325 23.0394 24.8987C23.1194 24.8544 23.1696 24.7726 23.2088 24.6927C23.2399 24.6255 23.2623 24.542 23.2228 24.4733C23.1803 24.4047 23.1031 24.3731 23.0371 24.3322L22.8451 24.2198L22.8043 24.2895C22.8984 24.345 22.9932 24.3992 23.0868 24.4554C23.1317 24.4827 23.1688 24.5321 23.1611 24.587C23.1522 24.6525 23.1148 24.7098 23.0776 24.7628C23.0468 24.8056 22.9952 24.8402 22.9403 24.8286C22.8832 24.8177 22.8367 24.7803 22.7865 24.7532L22.5976 24.6427L22.5569 24.7125V24.7125ZM22.9571 24.0585L23.3983 24.3961C23.4667 24.3067 23.5349 24.2171 23.6039 24.1281C23.6434 24.0713 23.6799 23.9976 23.6531 23.9279C23.6287 23.8725 23.5717 23.8296 23.5104 23.8268C23.4828 23.8229 23.4468 23.8438 23.4319 23.8531C23.4476 23.7938 23.3991 23.7382 23.3446 23.7225C23.2789 23.6992 23.2123 23.7413 23.1688 23.788C23.1177 23.8436 23.0751 23.9062 23.0283 23.9655L22.9571 24.0585V24.0585ZM23.0689 24.042C23.1206 23.9758 23.1695 23.9075 23.2236 23.8433C23.2487 23.8153 23.2891 23.7836 23.3281 23.8041C23.3637 23.8195 23.3724 23.8644 23.3554 23.8967C23.3285 23.9545 23.284 24.0013 23.2469 24.0525L23.1863 24.1317L23.0689 24.042V24.042ZM23.2487 24.1795C23.3023 24.111 23.3528 24.0399 23.4093 23.9738C23.4382 23.9436 23.4744 23.9055 23.5202 23.9142C23.5594 23.9232 23.5878 23.9657 23.5743 24.0051C23.5523 24.0778 23.4979 24.1335 23.4541 24.1938L23.3852 24.2839L23.2487 24.1795V24.1795ZM23.4573 23.4692L23.8388 23.8731L24.1656 23.5643L24.1114 23.5069L23.85 23.7539L23.8433 23.7602L23.8384 23.7551L23.5159 23.4138L23.4573 23.4692ZM23.9464 23.0413L24.285 23.4817L24.3511 23.4309L24.0124 22.9905L23.9464 23.0413ZM24.4439 22.7034C24.3891 22.7376 24.3448 22.7776 24.3107 22.8243C24.2768 22.8708 24.2584 22.9193 24.2558 22.97C24.2532 23.0206 24.2667 23.0696 24.2965 23.1176C24.3233 23.1609 24.3612 23.1963 24.4063 23.22C24.4518 23.2444 24.5011 23.2534 24.5549 23.2474C24.6086 23.2414 24.6691 23.2177 24.7366 23.1756C24.8013 23.1353 24.8472 23.0888 24.8755 23.0354C24.9026 22.9841 24.9102 22.9296 24.8986 22.8716L24.8218 22.9018C24.8419 23.0128 24.7703 23.0661 24.6901 23.117C24.5646 23.1933 24.4423 23.1878 24.3674 23.0731C24.2898 22.9438 24.3747 22.837 24.4814 22.7676C24.5572 22.7203 24.6318 22.688 24.7029 22.7332L24.7631 22.6797C24.7217 22.6511 24.6746 22.6379 24.6211 22.6408C24.5649 22.6439 24.5062 22.6646 24.4439 22.7034V22.7034ZM25.1004 22.3758L25.0423 22.9983L25.1288 22.9635L25.1463 22.7705L25.1466 22.7703L25.4276 22.657L25.5741 22.7838L25.6606 22.749L25.1869 22.3409L25.1004 22.3758H25.1004ZM25.1764 22.4396L25.3612 22.5995L25.1543 22.6829L25.1764 22.4396V22.4396ZM26.3181 22.0323L26.3528 22.5868C26.4531 22.5801 26.5534 22.5753 26.6536 22.5671C26.7323 22.558 26.8168 22.5376 26.8707 22.4748C26.9402 22.3978 26.9501 22.2826 26.9196 22.1866C26.8941 22.1022 26.8181 22.0382 26.7321 22.022C26.6474 22.0057 26.5611 22.0186 26.4758 22.0225L26.3181 22.0323V22.0323ZM26.4037 22.1061C26.4834 22.1019 26.5631 22.0941 26.6431 22.0936C26.6886 22.0921 26.7333 22.1058 26.7702 22.1326C26.8257 22.1706 26.8584 22.239 26.8511 22.3062C26.8471 22.3834 26.7903 22.4545 26.7153 22.474C26.6724 22.4851 26.6277 22.4882 26.5838 22.4931L26.4284 22.5028L26.4036 22.1061L26.4037 22.1061ZM27.0924 21.9995L27.0608 22.5542L27.6006 22.585L27.6051 22.5062C27.452 22.4975 27.2989 22.4887 27.1458 22.48C27.1491 22.4237 27.1523 22.3675 27.1555 22.3111L27.5693 22.3348L27.5738 22.2564C27.4359 22.2485 27.2979 22.2406 27.1599 22.2327L27.1685 22.0833C27.3158 22.0917 27.4632 22.1002 27.6105 22.1086L27.6151 22.0294L27.0924 21.9995V21.9995ZM28.543 22.231L28.3421 22.7489L28.4136 22.7767L28.5728 22.366L28.5811 22.3446L28.59 22.3683L28.7816 22.9193L28.8751 22.9556L29.076 22.4377L29.0043 22.4099L28.8452 22.8204L28.8371 22.8413L28.8283 22.8179L28.6364 22.2672L28.543 22.231ZM29.2893 22.5516L29.0368 23.0464L28.9626 23.0085L29.2151 22.5137L29.2893 22.5516ZM29.7084 22.7971C29.6544 22.7615 29.5996 22.7379 29.5429 22.7265C29.4866 22.715 29.4348 22.7186 29.3877 22.7373C29.3405 22.756 29.3016 22.7887 29.2704 22.8359C29.2423 22.8783 29.2259 22.9275 29.2232 22.9784C29.2201 23.03 29.2323 23.0784 29.2603 23.1249C29.2881 23.1711 29.335 23.2163 29.4013 23.26C29.465 23.3021 29.5263 23.3243 29.5867 23.3278C29.6447 23.331 29.6973 23.3152 29.7452 23.2805L29.6857 23.2232C29.5932 23.2878 29.5149 23.245 29.4352 23.1933C29.3135 23.1111 29.2674 22.9977 29.3404 22.8818C29.4256 22.7572 29.5581 22.7898 29.6657 22.8579C29.7403 22.9071 29.8008 22.9614 29.7893 23.0449L29.8631 23.0772C29.8718 23.0276 29.8642 22.9794 29.8392 22.932C29.8129 22.8822 29.7696 22.8375 29.7084 22.7971V22.7971ZM30.2373 23.1961L29.6566 23.4277L29.7271 23.4888L29.9068 23.4166L29.9071 23.4168L30.1359 23.6155L30.0897 23.8036L30.1601 23.8648L30.3078 23.2572L30.2373 23.1961V23.1961ZM30.2151 23.2928L30.1569 23.53L29.9884 23.3838L30.2151 23.2928ZM30.6569 23.5821L30.2283 23.9356L30.2799 23.9982L30.4485 23.8591C30.5056 23.9277 30.5612 23.9976 30.6196 24.0651C30.6017 24.1586 30.5838 24.2521 30.5664 24.3456L30.6319 24.4251L30.6878 24.129C30.7358 24.1683 30.8059 24.1881 30.8633 24.1569C30.9127 24.1336 30.9561 24.0887 30.9587 24.0315C30.9647 23.9549 30.9101 23.8928 30.8663 23.836C30.7966 23.7513 30.7267 23.6667 30.6569 23.5821V23.5821ZM30.6475 23.6951C30.7075 23.7692 30.7705 23.841 30.8278 23.9172C30.8542 23.9565 30.8872 24.0117 30.8569 24.0576C30.8319 24.0969 30.7772 24.0935 30.7436 24.068C30.6756 24.0222 30.6306 23.9521 30.5775 23.8911L30.5096 23.8087L30.6475 23.6951ZM31.3068 24.4662L30.6822 24.4948L30.7288 24.5757L30.9223 24.5663L30.9225 24.5666L31.0736 24.8292L30.9683 24.9919L31.0148 25.0727L31.3533 24.5471L31.3068 24.4662V24.4662ZM31.2542 24.5503L31.1214 24.7554L31.0102 24.5621L31.2542 24.5504V24.5503ZM31.6633 25.2016C31.6286 25.1073 31.5738 25.0108 31.4811 24.9637C31.3779 24.9119 31.2406 24.9371 31.1675 25.0279C31.1038 25.1035 31.1005 25.2102 31.1175 25.303C31.1376 25.4096 31.1865 25.511 31.2599 25.5911L31.2184 25.606L31.245 25.68L31.5052 25.5865L31.404 25.3054L31.3439 25.3271L31.4183 25.5342L31.3302 25.5658C31.2524 25.499 31.2091 25.4003 31.1865 25.3021C31.1698 25.2283 31.1691 25.14 31.225 25.0821C31.2892 25.0153 31.4029 24.9946 31.4798 25.0515C31.5558 25.1071 31.5987 25.1971 31.6203 25.2867C31.6351 25.3456 31.6327 25.4156 31.5881 25.4615C31.5756 25.4708 31.5953 25.4839 31.5987 25.4951L31.6199 25.5302C31.6434 25.5117 31.6623 25.4881 31.6753 25.4612C31.6882 25.4343 31.6948 25.4047 31.6946 25.3748C31.6962 25.3157 31.6832 25.2571 31.6633 25.2016V25.2016ZM31.8228 25.6355L31.5121 25.6959C31.4545 25.7071 31.4113 25.7253 31.3824 25.7497C31.3537 25.774 31.3352 25.8081 31.3264 25.8536C31.3176 25.8986 31.3188 25.9538 31.3318 26.0208C31.3319 26.0214 31.332 26.0219 31.3321 26.0225C31.3452 26.0895 31.3647 26.1411 31.3898 26.1795C31.4151 26.2184 31.4449 26.2432 31.4807 26.2548C31.5165 26.2666 31.5634 26.2673 31.6211 26.2561L31.9318 26.1957L31.9164 26.1164L31.6132 26.1754C31.4771 26.2018 31.4312 26.1302 31.4078 26.0077L31.4076 26.0061C31.3833 25.8838 31.3989 25.8002 31.5351 25.7737L31.8383 25.7147L31.8228 25.6355V25.6355ZM31.9933 26.581L31.4184 26.3352L31.4251 26.4282L31.6036 26.5039V26.5043L31.6254 26.8065L31.4598 26.9071L31.4666 27.0002L32 26.6741L31.9933 26.581ZM31.9093 26.6338L31.7006 26.7608L31.6844 26.5383L31.9093 26.6339V26.6338ZM22.4307 28.0181L22.3501 28.0393L22.4392 28.3778L22.5197 28.3566L22.4307 28.0181ZM31.5713 28.0181L31.6518 28.0393L31.5628 28.3778L31.4822 28.3566L31.5713 28.0181ZM23.2898 29.4433L22.6687 29.5148L22.7207 29.5923L22.9131 29.5696L22.9133 29.5699L23.0822 29.8216L22.9882 29.991L23.0402 30.0685L23.3418 29.5208L23.2898 29.4433V29.4433ZM23.2431 29.5309L23.1247 29.7446L23.0004 29.5594L23.2431 29.5309ZM23.5276 29.7827L23.1317 30.153L23.1846 30.2096L23.5182 29.8975L23.3432 30.3792L23.4038 30.444L23.8822 30.2988L23.5546 30.6052L23.6074 30.6617L24.0033 30.2915L23.9231 30.2056L23.4369 30.3508L23.6189 29.8803L23.5276 29.7827ZM24.1043 30.3711L23.7701 30.8149L24.2021 31.1402L24.2496 31.0771L23.8821 30.8005L23.9838 30.6653L24.3149 30.9147L24.3622 30.852L24.0311 30.6026L24.1211 30.4831L24.4748 30.7494L24.5226 30.6861L24.1043 30.3711ZM24.6479 30.769L24.3862 31.2591C24.4101 31.2719 24.434 31.2846 24.4578 31.2973L24.5607 31.1046C24.6396 31.1462 24.7177 31.1896 24.7974 31.2298C24.8165 31.323 24.8356 31.4163 24.8551 31.5095L24.9459 31.5579L24.8848 31.2629C24.9442 31.281 25.0166 31.2725 25.0577 31.2218C25.0927 31.1826 25.1165 31.1277 25.0997 31.0751C25.0802 31.0027 25.0089 30.9648 24.9488 30.9297C24.8486 30.8759 24.7481 30.8226 24.6479 30.769V30.769ZM24.6822 30.877C24.7659 30.9227 24.8515 30.9651 24.9336 31.0137C24.9716 31.0394 25.0198 31.0745 25.0151 31.1263C25.0108 31.1717 24.9618 31.196 24.9204 31.1863C24.8393 31.1729 24.771 31.1246 24.6988 31.0885L24.598 31.0347L24.6822 30.877V30.877ZM25.2754 31.0971L25.0654 31.6115L25.1427 31.6429L25.3526 31.1286L25.2754 31.0971ZM25.7764 31.2701C25.715 31.2497 25.656 31.2412 25.5983 31.2448C25.5408 31.2485 25.4918 31.2653 25.4511 31.2957C25.4104 31.326 25.3813 31.3677 25.3636 31.4213C25.3474 31.4696 25.3444 31.5214 25.3549 31.5712C25.3653 31.6218 25.3897 31.6655 25.4288 31.7031C25.4677 31.7405 25.5246 31.772 25.6 31.797C25.6724 31.821 25.7375 31.8266 25.7967 31.8142C25.8534 31.8023 25.9002 31.7734 25.9374 31.7274L25.8652 31.6875C25.7926 31.774 25.7058 31.753 25.6154 31.7237C25.4766 31.676 25.4027 31.5784 25.4431 31.4475C25.4929 31.3051 25.6293 31.3022 25.7509 31.34C25.8357 31.3681 25.9083 31.4048 25.9189 31.4885L25.9985 31.5005C25.9941 31.4503 25.9742 31.4057 25.9377 31.3665C25.8994 31.3252 25.846 31.2932 25.7764 31.2701V31.2701ZM26.3349 31.3952L25.9716 31.9041L26.0639 31.9174L26.1761 31.7593H26.1765L26.4764 31.8028L26.5392 31.9861L26.6315 31.9995L26.4273 31.4085L26.3349 31.3952ZM26.3686 31.4885L26.4478 31.7196L26.2271 31.6877L26.3686 31.4886V31.4885ZM27.6372 31.3991C27.5737 31.4113 27.5181 31.4328 27.4696 31.4642C27.4212 31.4955 27.3867 31.5342 27.3661 31.5806C27.3455 31.6269 27.3405 31.6776 27.3512 31.733C27.3607 31.7831 27.3834 31.8297 27.417 31.868C27.4508 31.9071 27.4935 31.9331 27.546 31.9468C27.5982 31.9604 27.6632 31.9599 27.7413 31.9448C27.8162 31.9304 27.8756 31.9035 27.9212 31.8637C27.9649 31.8255 27.9916 31.7773 28.0014 31.7191L27.9189 31.7196C27.8979 31.8306 27.812 31.8547 27.7189 31.8735C27.5744 31.8998 27.4622 31.8508 27.4333 31.7169C27.4071 31.5683 27.5247 31.499 27.6492 31.4725C27.7369 31.4555 27.8182 31.4521 27.8683 31.5198L27.9437 31.4913C27.9152 31.4498 27.8761 31.4206 27.8251 31.4042C27.7714 31.387 27.7092 31.3852 27.6372 31.3991V31.3991ZM28.0082 31.3334L28.1662 31.866L28.6846 31.7122L28.6622 31.6365L28.2212 31.7673L28.1731 31.6052L28.5705 31.4873L28.5482 31.4121L28.1508 31.53L28.1082 31.3865L28.5327 31.2606L28.5101 31.1845L28.0082 31.3334V31.3334ZM28.6092 31.1445L28.8424 31.6487L28.912 31.6165L28.7175 31.196C28.8973 31.2776 29.0761 31.3616 29.2555 31.444C29.2674 31.4544 29.2794 31.4475 29.2914 31.4411L29.3613 31.4087L29.1281 30.9045L29.0584 30.9367L29.2527 31.3567C29.068 31.273 28.8843 31.1871 28.7001 31.1025L28.6092 31.1445V31.1445ZM29.2193 30.858L29.2628 30.9241L29.4612 30.7935L29.4688 30.7885L29.4725 30.7942L29.7307 31.1865L29.7981 31.1421L29.5399 30.7498L29.5362 30.7441L29.5439 30.7391L29.7433 30.6078L29.6998 30.5417L29.2193 30.858ZM29.7783 30.4752L30.1548 30.8838L30.2145 30.8288L30.0664 30.6681C30.1317 30.6073 30.1984 30.548 30.2626 30.486C30.3569 30.4986 30.4513 30.5113 30.5457 30.5236L30.6213 30.4539L30.3227 30.4143C30.3593 30.3642 30.3752 30.2931 30.3409 30.2375C30.3149 30.1896 30.2677 30.1486 30.2104 30.1492C30.1337 30.1475 30.0747 30.2054 30.0203 30.2522C29.9397 30.3265 29.8589 30.401 29.7783 30.4752V30.4752ZM29.8916 30.4784C29.9623 30.4145 30.0305 30.3476 30.1035 30.2862C30.1413 30.2576 30.1946 30.2217 30.2422 30.2494C30.2827 30.2722 30.2823 30.3271 30.2587 30.362C30.2167 30.4325 30.149 30.4812 30.0911 30.5377L30.0127 30.6099L29.8916 30.4784V30.4784ZM30.4246 29.8283L30.6731 30.402L30.7322 30.3298L30.6547 30.1522L30.6549 30.1519L30.8467 29.9174L31.0362 29.9582L31.0953 29.886L30.4836 29.7561L30.4246 29.8283V29.8283ZM30.5219 29.8477L30.7608 29.899L30.6196 30.0716L30.5219 29.8477V29.8477ZM30.6666 29.5136L31.1327 29.8158L31.3773 29.4386L31.3111 29.3957L31.1154 29.6974L31.1104 29.7052L31.1045 29.7013L30.7105 29.4458L30.6666 29.5136Z" fill="#C8A400"/>
<path d="M27 22.911L25.2512 25.9408L24.3945 27.4242H29.6055L28.7881 26.0084L27.0001 22.911H27Z" fill="#75AAFA"/>
<path opacity="0.62" d="M27 22.911L26.8691 23.1378L27 26.1921L27.131 23.1378L27 22.911Z" fill="#17C0EB" stroke="#17C0EB" stroke-width="0.00716667"/>
<path d="M27 25.748L26.9926 25.7482L27 25.921L27.0074 25.7482L27 25.748Z" fill="white"/>
<path d="M27 25.1019C26.4091 25.1011 25.8378 25.3131 25.3906 25.6992L24.5763 27.1106C24.5483 27.2618 24.5344 27.4152 24.5347 27.5689H24.8142C24.8142 26.3619 25.793 25.3832 27 25.3832C28.207 25.3832 29.1857 26.3619 29.1857 27.5689H29.4652C29.4652 27.4127 29.4513 27.2588 29.4236 27.1106L28.6093 25.6992C28.1621 25.3132 27.5908 25.1011 27 25.1019V25.1019Z" fill="#FF0000"/>
<path d="M27 25.1471C26.3464 25.1471 25.7533 25.4068 25.3177 25.8277L24.6493 26.9856C24.602 27.1765 24.5781 27.3724 24.5781 27.569H24.8142C24.8142 26.362 25.793 25.3832 27 25.3832C28.207 25.3832 29.1857 26.362 29.1857 27.569H29.4218C29.4218 27.3676 29.397 27.171 29.3507 26.9839L28.6823 25.8277C28.2467 25.4069 27.6535 25.1471 27 25.1471V25.1471Z" fill="#FF6600"/>
<path d="M27 25.1923C26.2943 25.1923 25.6611 25.499 25.2256 25.9874L24.7413 26.8259C24.6627 27.0658 24.6228 27.3166 24.6232 27.569H24.8142C24.8142 26.362 25.793 25.3832 27 25.3832C28.207 25.3832 29.1857 26.362 29.1857 27.569H29.3767C29.3767 27.3094 29.3356 27.0598 29.2586 26.8259L28.7742 25.9873C28.3389 25.4991 27.7055 25.1922 26.9999 25.1922L27 25.1923Z" fill="#FFFF00"/>
<path d="M27 25.2356C26.1916 25.2356 25.4793 25.6475 25.0607 26.2721L24.9045 26.5429C24.7476 26.8622 24.6663 27.2133 24.6666 27.569H24.8142C24.8142 26.362 25.7929 25.3832 26.9999 25.3832C28.207 25.3832 29.1857 26.362 29.1857 27.569H29.3333C29.3333 27.2138 29.252 26.8635 29.0955 26.5447L28.9375 26.2704C28.5188 25.6467 27.8076 25.2357 27 25.2357V25.2356Z" fill="#00FF00"/>
<path d="M27 25.2808C25.7362 25.2808 24.7117 26.3052 24.7117 27.569H24.8142C24.8142 26.3619 25.793 25.3832 27 25.3832C28.207 25.3832 29.1857 26.3619 29.1857 27.569H29.2882C29.2882 26.3052 28.2637 25.2808 27 25.2808V25.2808Z" fill="#00CCFF"/>
<path d="M27 25.3242C25.7607 25.3242 24.7569 26.3297 24.7569 27.569H24.8316C24.8316 26.3712 25.8022 25.4006 27 25.4006C28.1977 25.4006 29.1683 26.3712 29.1683 27.569H29.2447C29.2447 26.3297 28.2392 25.3242 27 25.3242V25.3242Z" fill="#0000FF"/>
<path d="M27 25.3694C25.7853 25.3694 24.8006 26.3541 24.8006 27.5687C24.8006 27.5824 24.8008 27.596 24.801 27.6095H24.8455C24.8452 27.5959 24.8451 27.5823 24.8451 27.5687C24.8451 26.3786 25.8099 25.4139 27 25.4139C28.1901 25.4139 29.1549 26.3786 29.1549 27.5687C29.1549 27.5824 29.1548 27.596 29.1545 27.6095H29.1988C29.199 27.596 29.1992 27.5824 29.1992 27.5687C29.1992 26.3541 28.2147 25.3694 27 25.3694V25.3694Z" fill="#800080"/>
<path d="M27.0219 26.3403C26.9862 26.3334 26.9538 26.3134 26.9233 26.3064C26.8813 26.3466 26.8769 26.3873 26.8827 26.4219C26.8973 26.4297 26.8999 26.4415 26.9315 26.4697C26.9631 26.4979 26.9591 26.5126 26.9572 26.5789C26.9563 26.6068 26.9611 26.6667 26.9893 26.6723C27.0198 26.6784 27.0411 26.6531 27.0499 26.6079C27.0583 26.564 27.0731 26.5403 27.0887 26.5133C27.1057 26.4104 27.0779 26.374 27.0219 26.3403V26.3403Z" fill="#510000"/>
<path d="M26.8435 26.0841C26.8104 26.085 26.7586 26.1403 26.7355 26.1105C26.7223 26.0934 26.72 26.0604 26.7335 26.0327C26.7645 25.9688 26.7959 25.9374 26.8539 25.9033C26.986 25.8255 27.07 25.8505 27.1358 25.9623C27.1968 26.0608 27.2553 26.1696 27.2605 26.2607C27.2622 26.2886 27.2763 26.339 27.2519 26.3641C27.177 26.4413 26.9965 26.2843 26.8909 26.3092C26.8554 26.3175 26.8144 26.3435 26.7809 26.3213C26.7548 26.3041 26.7766 26.2659 26.796 26.2494C26.83 26.2205 26.8794 26.118 26.8727 26.0736C26.869 26.0488 26.8683 26.0835 26.8435 26.0841V26.0841Z" fill="#FF0000"/>
<path d="M26.8293 26.0299C26.7691 26.0547 26.7756 26.0897 26.7454 26.1183C26.754 26.1215 26.788 26.1355 26.8212 26.1016C26.8355 26.0897 26.8516 26.0853 26.8588 26.0814C26.8419 26.0937 26.8298 26.1122 26.8208 26.1194C26.7984 26.1377 26.7634 26.1796 26.7464 26.222C26.7293 26.2644 26.7225 26.3149 26.7255 26.321C26.7286 26.3271 26.7491 26.3643 26.8125 26.3894C26.9253 26.4343 26.9468 26.5249 27.0612 26.5249C27.1509 26.5249 27.1365 26.4663 27.2082 26.4787C27.2704 26.4895 27.3034 26.4401 27.2435 26.4103C27.1674 26.3843 27.0162 26.3996 26.9451 26.4121C26.9221 26.1853 26.942 26.2649 26.9366 26.1674C26.9313 26.0699 26.902 26.0641 26.9406 25.9851C26.9085 26.0336 26.8697 26.0259 26.8293 26.0299V26.0299Z" fill="url(#paint0_linear_1_41803)"/>
<path d="M27.0521 25.877C27.0499 25.8894 27.0478 25.9056 27.049 25.9103C27.0538 25.9291 27.0587 25.9488 27.0644 25.9655C27.0708 25.9842 27.0734 25.9978 27.0778 26.0171C27.0823 26.0371 27.1 26.0449 27.1163 26.0572C27.1369 26.0728 27.121 26.1148 27.1338 26.1166C27.144 26.118 27.1609 26.057 27.161 26.0473C27.1614 26.0353 27.1607 26.0233 27.159 26.0114C27.1516 25.995 27.1437 25.9788 27.1353 25.9629C27.1352 25.9627 27.1349 25.9626 27.1348 25.9624C27.1315 25.9561 27.1279 25.9501 27.124 25.9442C27.1118 25.9263 27.0971 25.9101 27.0804 25.8963L27.0773 25.8936C27.0726 25.8901 27.0678 25.8864 27.0629 25.8833C27.0594 25.881 27.0557 25.879 27.0521 25.877V25.877Z" fill="#FF2A2A"/>
<path d="M27.0694 26.2994C27.0295 26.2889 26.9902 26.2692 26.9562 26.2591C26.8896 26.2391 26.8185 26.1961 26.7692 26.2139C26.7516 26.2216 26.7532 26.2392 26.7476 26.2644C26.7452 26.294 26.7145 26.3378 26.74 26.3234C26.7781 26.3021 26.8783 26.3641 26.912 26.3849C26.9279 26.3947 26.9615 26.414 26.9721 26.4416C26.9826 26.4693 26.9772 26.5392 26.9743 26.5692C26.9714 26.6006 26.981 26.6711 27.0125 26.6796C27.0464 26.6886 27.0723 26.6616 27.0856 26.6113C27.0983 26.5623 27.1081 26.5342 27.1276 26.5049C27.1472 26.4755 27.1696 26.4629 27.201 26.4569C27.2323 26.451 27.2777 26.4826 27.2777 26.4456C27.2777 26.4214 27.2564 26.3981 27.2655 26.3649C27.2726 26.3386 27.2432 26.3439 27.2187 26.3331C27.1612 26.3154 27.1093 26.3098 27.0694 26.2994V26.2994Z" fill="url(#paint1_linear_1_41803)"/>
<path d="M26.9091 26.3829C26.8909 26.373 26.7805 26.3008 26.74 26.3234C26.7272 26.3305 26.7224 26.3225 26.7222 26.3091C26.722 26.2958 26.7283 26.2761 26.7325 26.261C26.7366 26.2459 26.7433 26.217 26.7611 26.202C26.7993 26.1698 26.8872 26.234 26.9338 26.2513C26.9298 26.2755 26.9077 26.3821 26.9091 26.3829V26.3829Z" fill="#910000"/>
<path d="M27.098 26.5195C27.1489 26.4305 27.1817 26.4419 27.2431 26.4432C27.2636 26.4437 27.2696 26.4249 27.265 26.4062C27.2495 26.4408 27.1726 26.4023 27.1308 26.4208C27.0434 26.4592 27.0597 26.6302 27.0182 26.6469C27.0613 26.683 27.0806 26.5499 27.098 26.5195V26.5195Z" fill="#FF3A3A"/>
<path d="M24.3946 27.4242L23.8416 28.3818H30.1587L29.6056 27.4242H24.3946V27.4242Z" fill="white"/>
<path d="M24.2058 28.1864C24.1137 28.1864 24.0282 28.1957 23.9442 28.206L23.9172 28.253C24.0523 28.241 24.1781 28.217 24.3138 28.2136C24.4968 28.2181 24.6629 28.2597 24.8575 28.2597C24.9418 28.2605 25.0257 28.2581 25.109 28.2597C25.3034 28.2597 25.4695 28.2181 25.6525 28.2136C25.8355 28.2181 26.0027 28.2597 26.1971 28.2597C26.2814 28.26 26.3736 28.2584 26.4487 28.2597C26.6432 28.2597 26.8084 28.2181 26.9912 28.2136C27.1742 28.2181 27.3396 28.2597 27.534 28.2597C27.619 28.2605 27.7025 28.2581 27.7863 28.2597C27.9808 28.2597 28.1469 28.2181 28.3301 28.2136C28.5132 28.2181 28.679 28.2597 28.8735 28.2597C28.9577 28.2605 29.0419 28.2581 29.1252 28.2597C29.3196 28.2597 29.4849 28.2181 29.6677 28.2136C29.8093 28.2171 29.941 28.2424 30.0836 28.2539L30.055 28.2042C29.977 28.1949 29.8975 28.1864 29.8123 28.1864C29.7273 28.1853 29.6436 28.1881 29.5597 28.1864C29.3652 28.1864 29.2 28.228 29.0172 28.2325C28.8341 28.228 28.6681 28.1864 28.4735 28.1864C28.3895 28.1853 28.3052 28.1881 28.2221 28.1864C28.0276 28.1864 27.8613 28.228 27.6784 28.2325C27.4954 28.228 27.3293 28.1864 27.1349 28.1864C27.0503 28.1853 26.9659 28.1881 26.8823 28.1864C26.6878 28.1864 26.5225 28.228 26.3398 28.2325C26.1568 28.228 25.9915 28.1864 25.7971 28.1864C25.7125 28.1852 25.629 28.1881 25.5456 28.1864C25.3511 28.1864 25.1851 28.228 25.002 28.2325C24.819 28.228 24.6529 28.1864 24.4585 28.1864C24.374 28.1853 24.2894 28.1881 24.2058 28.1864V28.1864Z" fill="url(#paint2_linear_1_41803)"/>
<path d="M24.4016 27.4138L24.3948 27.4258H29.6054L29.5985 27.4138H24.4016ZM24.3895 27.4348L24.3824 27.447H29.6177L29.6106 27.4348H24.3895H24.3895ZM24.3784 27.454L24.367 27.4738H29.6332L29.6218 27.454H24.3783H24.3784ZM24.3607 27.4846L24.3468 27.5087H29.6534L29.6395 27.4846H24.3607V27.4846ZM24.3385 27.523L24.3246 27.5471H29.6755L29.6616 27.523H24.3385ZM24.3164 27.5614L24.3026 27.5853H29.6975L29.6838 27.5614H24.3164V27.5614ZM24.2943 27.5998L24.2804 27.6237H29.7198L29.7059 27.5998H24.2943ZM24.2704 27.6412L24.2535 27.6706H29.7466L29.7298 27.6412H24.2704V27.6412ZM24.6309 27.6821C24.8226 27.7189 24.841 27.6821 24.841 27.6821H24.6309ZM29.1589 27.6821C29.1589 27.6821 29.1773 27.7189 29.369 27.6821H29.1589Z" fill="url(#paint3_linear_1_41803)"/>
<path d="M28.7017 26.8352C28.6068 26.8352 28.5777 26.8831 28.5777 26.8831C28.4257 27.4707 27.9218 28.0683 27.3222 28.0683H26.8733V28.6665C26.8733 28.6667 26.8738 28.6665 26.8742 28.6665H30.2907L29.947 28.058C29.4077 27.9775 28.967 27.4261 28.8267 26.8831C28.8267 26.8831 28.7967 26.8352 28.7017 26.8352H28.7017Z" fill="url(#paint4_linear_1_41803)"/>
<path d="M28.7017 26.8587C28.6582 26.8587 28.6317 26.8687 28.6163 26.8785C28.6016 26.8876 28.5988 26.8938 28.5984 26.8945C28.5984 26.8948 28.5976 26.895 28.5975 26.8953C28.5197 27.1911 28.3557 27.4881 28.1345 27.7124C27.9116 27.9385 27.6306 28.0918 27.3231 28.0918H26.8967V28.6431H30.2776L29.962 28.0843C29.7016 28.0503 29.4635 27.9086 29.2699 27.7124C29.0484 27.4881 28.8848 27.1911 28.8069 26.8953L28.806 26.8945C28.8056 26.8938 28.8021 26.8886 28.7872 26.8794C28.7715 26.8696 28.7453 26.8587 28.7017 26.8587V26.8587Z" fill="#97C924"/>
<path d="M28.7017 26.8587C28.7098 26.8587 28.7172 26.8599 28.7242 26.8606C28.7256 27.0282 28.7242 27.3112 28.7242 27.4607C28.7226 27.5907 28.6781 27.6953 28.6124 27.8185C28.5821 27.9048 28.5577 27.872 28.4819 27.9772C28.3802 28.0136 28.3049 28.0277 28.1964 28.0448C28.0566 28.0669 27.7453 28.0865 27.5916 28.0523C27.7939 27.993 27.9783 27.8707 28.1344 27.7123C28.1762 27.67 28.2157 27.6255 28.2528 27.579C28.3151 27.5007 28.371 27.4174 28.42 27.3301C28.4396 27.2953 28.4581 27.2608 28.4754 27.225C28.5013 27.1713 28.5244 27.1166 28.5448 27.0616C28.5517 27.0432 28.5584 27.0246 28.5646 27.0062C28.5769 26.9693 28.5878 26.9323 28.5975 26.8953C28.5976 26.895 28.5983 26.8948 28.5984 26.8944C28.5987 26.8937 28.6016 26.8876 28.6162 26.8785C28.6238 26.8737 28.6347 26.869 28.6482 26.8653H28.6491C28.6631 26.8616 28.6799 26.8587 28.7017 26.8587V26.8587Z" fill="#EDE71F"/>
<path d="M28.6632 26.9386C28.6404 27.2738 28.5367 27.6715 28.2941 27.928C28.2049 28.0023 28.0908 28.0697 27.9805 28.0533C28.3566 27.7472 28.5852 27.2785 28.6632 26.9386Z" fill="#C6CB24"/>
<path d="M28.3608 27.5152C28.3052 27.6663 28.0948 27.8899 27.8697 28.0732C27.8058 28.0752 27.7719 28.0788 27.7139 28.0753C27.851 28.0628 28.1707 27.7929 28.3608 27.5152Z" fill="#9ECB34"/>
<path d="M27.1232 26.8835C27.2752 27.471 27.7782 28.0686 28.3778 28.0686H28.8272V28.6669C28.8272 28.667 28.8264 28.6669 28.8263 28.6669H25.171C25.1707 28.6669 25.17 28.667 25.17 28.6669V28.0686H25.6185C26.218 28.0686 26.722 27.471 26.874 26.8835C26.874 26.8835 26.9037 26.8354 26.9987 26.8354C27.0936 26.8354 27.1233 26.8835 27.1233 26.8835H27.1232Z" fill="url(#paint5_linear_1_41803)"/>
<path d="M26.9986 26.8587C27.0422 26.8587 27.0683 26.8696 27.084 26.8794C27.099 26.8886 27.1025 26.8938 27.1029 26.8944L27.1038 26.8953C27.1817 27.191 27.3454 27.488 27.5668 27.7124C27.7899 27.9385 28.0716 28.0918 28.3792 28.0918H28.8036V28.643H25.1936V28.0918H25.62C25.9275 28.0918 26.2085 27.9384 26.4314 27.7123C26.6526 27.488 26.8166 27.191 26.8944 26.8953C26.8945 26.8949 26.8952 26.8948 26.8953 26.8944C26.8957 26.8938 26.8985 26.8876 26.9131 26.8784C26.9287 26.8688 26.955 26.8587 26.9986 26.8587V26.8587Z" fill="#97C924"/>
<path d="M26.959 26.8623C26.9545 26.8632 26.95 26.8642 26.9456 26.8654H26.9446C26.9334 26.8682 26.9227 26.8726 26.9128 26.8785C26.8981 26.8877 26.8953 26.8937 26.895 26.8944C26.8948 26.8947 26.8941 26.8949 26.894 26.8953C26.8843 26.9323 26.8735 26.9694 26.8611 27.0063C26.855 27.0247 26.8481 27.0432 26.8413 27.0616C26.8208 27.1166 26.7978 27.1713 26.7719 27.225C26.7545 27.2606 26.736 27.2957 26.7165 27.3302C26.6675 27.4175 26.6115 27.5006 26.5492 27.5789C26.5121 27.6255 26.4726 27.67 26.4309 27.7124C26.2748 27.8708 26.0905 27.993 25.8882 28.0523C26.0418 28.0864 26.1122 28.0492 26.252 28.0271C26.3605 28.0099 26.4859 27.9958 26.5877 27.9594C26.6635 27.8542 26.6377 27.8872 26.6681 27.8009C26.7337 27.6777 26.8295 27.5663 26.8533 27.4297C26.9432 27.2618 26.959 26.9512 26.959 26.8623V26.8623Z" fill="#EDE71F"/>
<path d="M26.9597 26.9385C26.9368 27.2738 26.8332 27.6714 26.5906 27.928C26.5014 28.0023 26.3872 28.0696 26.2769 28.0533C26.653 27.7471 26.8816 27.2784 26.9597 26.9385Z" fill="#C6CB24"/>
<path d="M26.6573 27.5152C26.6017 27.6663 26.3913 27.89 26.1662 28.0732C26.1023 28.0752 26.0684 28.0788 26.0104 28.0753C26.1475 28.0628 26.4672 27.7929 26.6573 27.5152V27.5152Z" fill="#9ECB34"/>
<path d="M27.0528 26.8653H27.0538C27.0673 26.869 27.078 26.8737 27.0855 26.8784C27.1002 26.8876 27.103 26.8937 27.1034 26.8943C27.1035 26.8947 27.1043 26.8949 27.1044 26.8953C27.1141 26.9323 27.1249 26.9694 27.1373 27.0062C27.1434 27.0247 27.1503 27.0432 27.1571 27.0615C27.1775 27.1165 27.2005 27.1713 27.2265 27.2249C27.2438 27.2608 27.2623 27.2954 27.2819 27.3302C27.3309 27.4175 27.3868 27.5006 27.4492 27.5789C27.4862 27.6254 27.5257 27.67 27.5675 27.7124C27.7236 27.8707 27.9079 28.0149 28.1101 28.0742C27.7076 28.0757 27.533 28.0392 27.3867 27.851C27.2404 27.6629 27.1864 27.5806 27.1567 27.4657C27.127 27.3508 27.0442 27.1007 27.0528 26.8653V26.8653Z" fill="#EDE71F"/>
<path d="M27.082 26.9385C27.1049 27.2738 27.2053 27.6055 27.4479 27.8621C27.5372 27.9364 27.6512 28.0038 27.7616 27.9874C27.3541 27.7095 27.16 27.2784 27.082 26.9385V26.9385Z" fill="#C6CB24"/>
<path d="M26.1527 26.8352C26.0577 26.8352 26.0278 26.8831 26.0278 26.8831C25.8877 27.4246 25.3709 28.123 24.8336 28.2059L24.5674 28.6665H27.2905V28.036C26.8002 27.9043 26.4077 27.3899 26.2767 26.8831C26.2767 26.8831 26.2477 26.8352 26.1527 26.8352V26.8352Z" fill="url(#paint6_linear_1_41803)"/>
<path d="M26.1527 26.8587C26.1092 26.8587 26.083 26.8696 26.0673 26.8794C26.0524 26.8886 26.0489 26.8938 26.0485 26.8944L26.0476 26.8953C25.9697 27.191 25.7877 27.49 25.5987 27.7281C25.4097 27.966 25.0587 28.2068 24.8186 28.2323L24.5807 28.643H27.2507V28.049C27.0532 27.9884 26.8729 27.8675 26.72 27.7123C26.4988 27.488 26.3348 27.191 26.257 26.8953C26.2569 26.8949 26.2562 26.8948 26.2561 26.8944C26.2557 26.8938 26.2529 26.8876 26.2382 26.8784C26.2227 26.8688 26.1963 26.8587 26.1527 26.8587V26.8587Z" fill="#97C924"/>
<path d="M26.0803 26.9386C26.046 27.441 25.7662 28.0749 25.4503 28.1841C25.3472 28.2197 25.167 28.2321 25.1043 28.2401C25.657 27.9773 25.9836 27.3594 26.0803 26.9386V26.9386Z" fill="#93BC30"/>
<path d="M26.1526 26.8587C26.1444 26.8587 26.137 26.8598 26.13 26.8606C26.1287 27.0282 26.13 27.3111 26.13 27.4606C26.1317 27.5906 26.1762 27.6952 26.2418 27.8185C26.2456 27.8292 26.2494 27.8381 26.2531 27.8457C26.2759 27.906 26.2927 27.927 26.3799 27.9931C26.6569 28.2035 27.0004 28.235 27.2025 28.2176C27.1392 28.1677 27.0715 28.1223 27.0119 28.0805C27.107 28.0774 27.198 28.0666 27.2626 28.0523C27.0604 27.993 26.876 27.8706 26.7199 27.7123C26.6929 27.6844 26.6669 27.6556 26.6419 27.626C26.6303 27.6097 26.6141 27.5872 26.609 27.5808C26.5469 27.5031 26.4833 27.4171 26.4343 27.3301C26.4147 27.2956 26.3963 27.2605 26.3789 27.2249C26.3446 27.1539 26.3148 27.0808 26.2897 27.0061C26.2775 26.9695 26.2665 26.9326 26.2568 26.8953C26.2567 26.895 26.256 26.8947 26.2559 26.8943C26.2555 26.8937 26.2527 26.8876 26.238 26.8784C26.2281 26.8725 26.2173 26.8681 26.2061 26.8652H26.2051C26.188 26.8607 26.1703 26.8585 26.1526 26.8587V26.8587Z" fill="#EDE71F"/>
<path d="M26.1915 26.9385C26.2144 27.2738 26.318 27.6714 26.5606 27.928C26.6498 28.0023 26.7639 28.0696 26.8742 28.0533C26.4981 27.7471 26.2695 27.2784 26.1915 26.9385Z" fill="#CCD11E"/>
<path d="M26.423 27.4021C26.5546 27.7264 26.888 28.0294 27.2309 28.2329C27.2948 28.2349 27.3138 28.2331 27.3719 28.2296C27.1264 28.0979 26.7308 27.9099 26.423 27.4021Z" fill="#9ECB34"/>
<path d="M30.1389 28.3713C30.107 28.3825 29.8933 28.3607 29.7815 28.3688L29.7104 28.3875C29.648 28.387 29.586 28.3888 29.5254 28.3875C29.3253 28.3875 29.156 28.4402 28.9656 28.4402C28.7749 28.4402 28.6062 28.3875 28.4059 28.3875C28.3437 28.387 28.2818 28.3889 28.2209 28.3875C28.0208 28.3875 27.8516 28.4402 27.6611 28.4402C27.4706 28.4402 27.3015 28.3875 27.1014 28.3875C27.0386 28.3871 26.9769 28.3888 26.9154 28.3875C26.7153 28.3875 26.547 28.4402 26.3566 28.4402C26.1661 28.4402 25.998 28.3875 25.7979 28.3875C25.783 28.3875 25.7692 28.388 25.7548 28.3884C25.7449 28.3882 25.7338 28.3875 25.7238 28.3875C25.7171 28.3875 25.7115 28.3873 25.7049 28.3875C25.6985 28.3873 25.6918 28.3875 25.6852 28.3875C25.6751 28.3875 25.666 28.3882 25.6561 28.3884C25.6417 28.388 25.6278 28.3875 25.6128 28.3875C25.4125 28.3875 25.2438 28.4402 25.0531 28.4402C24.8626 28.4402 24.6935 28.3875 24.4934 28.3875C24.4788 28.3875 24.4644 28.388 24.4503 28.3884C24.4403 28.3882 24.4314 28.3875 24.4213 28.3875C24.4144 28.3875 24.4073 28.3873 24.4005 28.3875C24.394 28.3873 24.3873 28.3875 24.3807 28.3875C24.3706 28.3875 24.3606 28.3882 24.3507 28.3884C24.3363 28.388 24.3224 28.3875 24.3076 28.3875C24.1476 28.3875 23.9621 28.4212 23.8111 28.4347L23.4626 29.0379L26.9611 29.0375L30.5375 29.0379L30.1389 28.3713Z" fill="#2E50A6"/>
<path d="M29.6663 28.2834C29.6551 28.2834 29.6441 28.2834 29.6331 28.2838C29.4531 28.2891 29.324 28.3458 29.0109 28.3458C28.6977 28.3458 28.6654 28.2892 28.3118 28.2969C27.9814 28.3042 27.8428 28.3671 27.6635 28.3646C27.4841 28.3621 27.1928 28.3258 26.9685 28.3493C26.7442 28.3728 26.478 28.4206 26.3033 28.421C26.0861 28.4201 25.8689 28.3804 25.6419 28.403C25.4148 28.4256 25.3087 28.4863 25.0273 28.4855C24.7853 28.4848 24.5226 28.4467 24.3191 28.4469C24.1283 28.4471 23.9154 28.5001 23.7588 28.5271L23.712 28.6084C23.8368 28.5939 24.187 28.5407 24.3121 28.5374C24.4423 28.5341 24.9075 28.5643 25.164 28.5555C25.4206 28.5467 25.4506 28.4904 25.7539 28.4904C25.9651 28.4904 26.1243 28.5126 26.3409 28.5126C26.4761 28.5126 26.5989 28.4436 26.8044 28.4436C26.8564 28.4421 26.908 28.4402 26.9596 28.4385C27.1329 28.4099 27.4254 28.441 27.629 28.4514C27.8131 28.461 27.9321 28.4172 28.1242 28.4108C28.2073 28.4071 28.2908 28.4072 28.3728 28.4026C28.565 28.3962 28.7295 28.4382 28.9105 28.4373C29.0911 28.4262 29.2663 28.3861 29.4583 28.3797C29.5423 28.3757 29.6249 28.3757 29.7078 28.3714C29.8348 28.3672 30.032 28.3758 30.1674 28.3993L30.1207 28.3187C29.9885 28.3145 29.8256 28.2834 29.6663 28.2834V28.2834Z" fill="url(#paint7_linear_1_41803)"/>
<path d="M24.2395 28.93C24.0475 28.93 23.8838 28.9773 23.7033 28.9825C23.6361 28.9806 23.5718 28.9723 23.5069 28.9633L23.4797 29.0105C23.5067 29.0123 23.5338 29.014 23.5623 29.014C23.6458 29.015 23.7285 29.012 23.8109 29.014C24.003 29.014 24.1655 28.9667 24.3461 28.9615C24.5269 28.9666 24.6909 29.014 24.8831 29.014C24.9665 29.0151 25.0494 29.012 25.1317 29.014C25.3237 29.014 25.4879 28.9666 25.6687 28.9615C25.8496 28.9666 26.0148 29.014 26.2068 29.014C26.2899 29.015 26.3731 29.012 26.4552 29.014C26.6472 29.014 26.8108 28.9666 26.9914 28.9615C27.1721 28.9666 27.3353 29.014 27.5275 29.014C27.6115 29.0151 27.6941 29.012 27.7769 29.014C27.969 29.014 28.133 28.9666 28.314 28.9615C28.4949 28.9666 28.659 29.014 28.8512 29.014C28.9342 29.015 29.0173 29.012 29.0995 29.014C29.2915 29.014 29.4551 28.9666 29.6357 28.9615C29.8164 28.9666 29.9807 29.014 30.1727 29.014C30.256 29.015 30.3391 29.012 30.4212 29.014C30.4548 29.014 30.4877 29.0121 30.52 29.0097L30.4943 28.9655C30.4352 28.9735 30.3758 28.9808 30.3146 28.9825C30.1338 28.9773 29.9704 28.93 29.7783 28.93C29.6945 28.9288 29.6118 28.9316 29.5289 28.93C29.3368 28.93 29.1735 28.9773 28.9928 28.9825C28.8119 28.9774 28.6481 28.93 28.4558 28.93C28.3727 28.9288 28.2896 28.9316 28.2073 28.93C28.0152 28.93 27.8511 28.9773 27.6703 28.9825C27.4895 28.9773 27.3253 28.93 27.1333 28.93C27.0498 28.9288 26.9665 28.9316 26.8838 28.93C26.6917 28.93 26.5283 28.9773 26.3477 28.9825C26.167 28.9773 26.0036 28.93 25.8116 28.93C25.7279 28.9288 25.6455 28.9316 25.563 28.93C25.3708 28.93 25.207 28.9774 25.026 28.9825C24.8452 28.9773 24.6811 28.93 24.489 28.93C24.4056 28.9288 24.322 28.9316 24.2396 28.93H24.2395Z" fill="url(#paint8_linear_1_41803)"/>
<path d="M23.8803 28.372L23.7455 28.6048C23.9032 28.5787 24.14 28.5102 24.3363 28.51C24.5398 28.5099 24.7853 28.5602 25.0273 28.5609C25.3087 28.5617 25.4148 28.501 25.6419 28.4784C25.8689 28.4558 26.0862 28.5077 26.3033 28.5087C26.478 28.5083 26.7442 28.4481 26.9685 28.4247C27.1928 28.4013 27.3983 28.441 27.6687 28.4452C27.939 28.4494 27.9814 28.3796 28.3118 28.3724C28.6654 28.3646 28.6977 28.4211 29.0109 28.4211C29.2465 28.4339 29.4488 28.3737 29.659 28.3589C29.8692 28.344 29.9667 28.3613 30.1204 28.3649L30.0183 28.1842C30.0166 28.1842 30.0149 28.1844 30.0131 28.1844L24.3884 28.3081L23.8803 28.372Z" fill="#97C924"/>
<path d="M29.7815 28.3688C29.7815 28.3688 29.932 28.377 29.9952 28.3842C30.0499 28.3897 30.1046 28.3944 30.1594 28.3982L30.1388 28.3713C30.107 28.3825 29.8933 28.3607 29.7815 28.3688Z" fill="white"/>
<path d="M27 22.8259L25.2144 25.9195L23.3889 29.0806L26.961 29.0802L30.6111 29.0806L28.8249 25.9871L27 22.8259ZM27 22.9926L28.7528 26.0289L30.4667 28.9971L26.961 28.9969L23.5332 28.9971L25.2865 25.9613L27 22.9926Z" fill="#C8A400"/>
<rect x="3" y="9" width="48" height="12" fill="#3F6FEB"/>
</g>
<defs>
<linearGradient id="paint0_linear_1_41803" x1="26.9299" y1="26.3914" x2="27.0348" y2="26.0784" gradientUnits="userSpaceOnUse">
<stop stop-color="#510000"/>
<stop offset="0.3" stop-color="#8A0000"/>
<stop offset="1" stop-color="#AA0000"/>
</linearGradient>
<linearGradient id="paint1_linear_1_41803" x1="27.0802" y1="26.5202" x2="27.1626" y2="26.3022" gradientUnits="userSpaceOnUse">
<stop stop-color="#FF2A2A"/>
<stop offset="1" stop-color="#FF0000"/>
</linearGradient>
<linearGradient id="paint2_linear_1_41803" x1="23.9172" y1="27.971" x2="34.4673" y2="27.971" gradientUnits="userSpaceOnUse">
<stop stop-color="#002255"/>
<stop offset="0.5" stop-color="#0044AA"/>
<stop offset="1" stop-color="#002255"/>
</linearGradient>
<linearGradient id="paint3_linear_1_41803" x1="23.9171" y1="27.971" x2="34.4673" y2="27.971" gradientUnits="userSpaceOnUse">
<stop stop-color="#002255"/>
<stop offset="0.5" stop-color="#0044AA"/>
<stop offset="1" stop-color="#002255"/>
</linearGradient>
<linearGradient id="paint4_linear_1_41803" x1="26.1536" y1="27.65" x2="26.1536" y2="27.9799" gradientUnits="userSpaceOnUse">
<stop stop-color="#F5F549"/>
<stop offset="1" stop-color="#97C924"/>
</linearGradient>
<linearGradient id="paint5_linear_1_41803" x1="26.1535" y1="27.65" x2="26.1535" y2="27.9799" gradientUnits="userSpaceOnUse">
<stop stop-color="#F5F549"/>
<stop offset="1" stop-color="#97C924"/>
</linearGradient>
<linearGradient id="paint6_linear_1_41803" x1="26.1536" y1="27.65" x2="26.1536" y2="27.9799" gradientUnits="userSpaceOnUse">
<stop stop-color="#F5F549"/>
<stop offset="1" stop-color="#97C924"/>
</linearGradient>
<linearGradient id="paint7_linear_1_41803" x1="23.712" y1="28.2834" x2="30.1674" y2="28.2834" gradientUnits="userSpaceOnUse">
<stop stop-color="#002255"/>
<stop offset="0.5" stop-color="#0044AA"/>
<stop offset="1" stop-color="#002255"/>
</linearGradient>
<linearGradient id="paint8_linear_1_41803" x1="23.4797" y1="28.9297" x2="30.52" y2="28.9297" gradientUnits="userSpaceOnUse">
<stop stop-color="#002255"/>
<stop offset="0.5" stop-color="#0044AA"/>
<stop offset="1" stop-color="#002255"/>
</linearGradient>
</defs>
</svg>
