<svg width="54" height="54" viewBox="0 0 54 54" fill="none" xmlns="http://www.w3.org/2000/svg">
<mask id="mask0_1_40029" style="mask-type:alpha" maskUnits="userSpaceOnUse" x="3" y="9" width="48" height="36">
<path d="M3.56934 18.1356C4.16681 13.4125 8.0415 10.0019 12.7861 9.60886C16.6412 9.28947 21.6196 8.99998 27 8.99998C32.3804 8.99998 37.3588 9.28947 41.2139 9.60886C45.9585 10.0019 49.8332 13.4125 50.4307 18.1356C50.752 20.6759 51 23.704 51 27C51 30.296 50.752 33.3241 50.4307 35.8643C49.8332 40.5875 45.9585 43.9981 41.2139 44.3911C37.3588 44.7105 32.3804 45 27 45C21.6196 45 16.6412 44.7105 12.7861 44.3911C8.04151 43.9981 4.16681 40.5875 3.56934 35.8643C3.248 33.3241 3 30.296 3 27C3 23.704 3.248 20.6759 3.56934 18.1356Z" fill="#00D0BF"/>
</mask>
<g mask="url(#mask0_1_40029)">
<rect x="3" y="2.99998" width="48" height="49" fill="#F5F5F5"/>
<path d="M15.5188 26.1495V26.6307V41V41.4812H16H37H38.1618L37.3403 40.6597L23.3113 26.6307H37H38.6753L37.2554 25.7416L16.2554 12.5921L15.5188 12.1309V13V18.8382V20V26.1495Z" fill="#EE5757" stroke="#2E50A6" stroke-width="0.962447"/>
<path d="M21.2334 25.2078C23.5361 25.2078 25.4027 23.3412 25.4027 21.0385C25.0363 21.9701 24.3734 22.7411 23.5291 23.2435L23.1732 22.9784L23.871 22.455L23.0267 22.2387L23.4733 21.4816L22.6011 21.6072L22.7301 20.742L21.9731 21.1955L21.7567 20.3407L21.2334 21.0385L20.7101 20.3407L20.4903 21.192L19.7367 20.7454L19.8657 21.6177L18.9935 21.4886L19.4471 22.2457L18.5958 22.462L19.2936 22.9853L18.9447 23.254C18.1178 22.7655 17.4444 22.0119 17.0676 21.049C17.0676 23.3517 18.9342 25.2182 21.2369 25.2182L21.2334 25.2078Z" fill="#F5F5F5"/>
<path d="M19.2237 31.3483L17.3536 31.118L18.4875 32.6183L16.7535 33.3579L18.4875 34.0906L17.3536 35.5908L19.2237 35.3606L18.9934 37.2341L20.4937 36.1002L21.2333 37.8377L21.966 36.1002L23.4732 37.2376L23.2429 35.3675L25.113 35.6013L23.9791 34.1011L25.7131 33.3684L23.9791 32.6287L25.113 31.1285L23.2429 31.3553L23.4732 29.4852L21.973 30.6191L21.2333 28.8781L20.5006 30.6121L18.9934 29.4782L19.2237 31.3483Z" fill="#F5F5F5"/>
</g>
</svg>
