<svg width="54" height="48" viewBox="0 0 54 48" fill="none" xmlns="http://www.w3.org/2000/svg">
<mask id="mask0_1_40029" style="mask-type:alpha" maskUnits="userSpaceOnUse" x="3" y="6" width="48" height="36">
<path d="M3.56934 15.1356C4.16681 10.4125 8.0415 7.00192 12.7861 6.60886C16.6412 6.28947 21.6196 5.99998 27 5.99998C32.3804 5.99998 37.3588 6.28947 41.2139 6.60886C45.9585 7.00192 49.8332 10.4125 50.4307 15.1356C50.752 17.6759 51 20.704 51 24C51 27.296 50.752 30.3241 50.4307 32.8643C49.8332 37.5875 45.9585 40.9981 41.2139 41.3911C37.3588 41.7105 32.3804 42 27 42C21.6196 42 16.6412 41.7105 12.7861 41.3911C8.0415 40.9981 4.16681 37.5875 3.56934 32.8643C3.248 30.3241 3 27.296 3 24C3 20.704 3.248 17.6759 3.56934 15.1356Z" fill="#00D0BF"/>
</mask>
<g mask="url(#mask0_1_40029)">
<rect x="3" y="-1.52588e-05" width="48" height="49" fill="#F5F5F5"/>
<path d="M15.5188 23.1495V23.6307V38V38.4812H16H37H38.1618L37.3403 37.6597L23.3113 23.6307H37H38.6753L37.2554 22.7416L16.2554 9.59214L15.5188 9.13089V10V15.8382V17V23.1495Z" fill="#EE5757" stroke="#2E50A6" stroke-width="0.962447"/>
<path d="M21.2334 22.2078C23.5361 22.2078 25.4027 20.3412 25.4027 18.0385C25.0363 18.9701 24.3734 19.7411 23.5291 20.2435L23.1732 19.9784L23.871 19.455L23.0267 19.2387L23.4733 18.4816L22.6011 18.6072L22.7301 17.742L21.9731 18.1955L21.7567 17.3407L21.2334 18.0385L20.7101 17.3407L20.4903 18.192L19.7367 17.7454L19.8657 18.6177L18.9935 18.4886L19.4471 19.2457L18.5958 19.462L19.2936 19.9853L18.9447 20.254C18.1178 19.7655 17.4444 19.0119 17.0676 18.049C17.0676 20.3517 18.9342 22.2182 21.2369 22.2182L21.2334 22.2078Z" fill="#F5F5F5"/>
<path d="M19.2237 28.3483L17.3536 28.118L18.4875 29.6183L16.7535 30.3579L18.4875 31.0906L17.3536 32.5908L19.2237 32.3606L18.9934 34.2341L20.4937 33.1002L21.2333 34.8377L21.966 33.1002L23.4732 34.2376L23.2429 32.3675L25.113 32.6013L23.9791 31.1011L25.7131 30.3684L23.9791 29.6287L25.113 28.1285L23.2429 28.3553L23.4732 26.4852L21.973 27.6191L21.2333 25.8781L20.5006 27.6121L18.9934 26.4782L19.2237 28.3483Z" fill="#F5F5F5"/>
</g>
</svg>
