<svg width="54" height="54" viewBox="0 0 54 54" fill="none" xmlns="http://www.w3.org/2000/svg">
<mask id="mask0_1_40014" style="mask-type:alpha" maskUnits="userSpaceOnUse" x="3" y="9" width="48" height="36">
<path d="M3.56934 18.1356C4.16681 13.4125 8.0415 10.0019 12.7861 9.60887C16.6412 9.28949 21.6196 9 27 9C32.3804 9 37.3588 9.28949 41.2139 9.60887C45.9585 10.0019 49.8332 13.4125 50.4307 18.1356C50.752 20.6759 51 23.704 51 27C51 30.296 50.752 33.3241 50.4307 35.8644C49.8332 40.5875 45.9585 43.9981 41.2139 44.3911C37.3588 44.7105 32.3804 45 27 45C21.6196 45 16.6412 44.7105 12.7861 44.3911C8.04151 43.9981 4.16681 40.5875 3.56934 35.8644C3.248 33.3241 3 30.296 3 27C3 23.704 3.248 20.6759 3.56934 18.1356Z" fill="#00D0BF"/>
</mask>
<g mask="url(#mask0_1_40014)">
<rect x="3" y="9" width="48" height="36" fill="#2E50A6"/>
<path d="M18 29L18.6859 31.4403L20.5 29.6699L19.8738 32.1262L22.3301 31.5L20.5597 33.3141L23 34L20.5597 34.6859L22.3301 36.5L19.8738 35.8738L20.5 38.3301L18.6859 36.5597L18 39L17.3141 36.5597L15.5 38.3301L16.1262 35.8738L13.6699 36.5L15.4403 34.6859L13 34L15.4403 33.3141L13.6699 31.5L16.1262 32.1262L15.5 29.6699L17.3141 31.4403L18 29Z" fill="#F5F5F5"/>
<rect x="3" y="25" width="48" height="4" fill="#FCD95E"/>
</g>
</svg>
