<svg width="54" height="48" viewBox="0 0 54 48" fill="none" xmlns="http://www.w3.org/2000/svg">
<mask id="mask0_1_40492" style="mask-type:alpha" maskUnits="userSpaceOnUse" x="3" y="6" width="48" height="36">
<path d="M3.56934 15.1356C4.16681 10.4125 8.0415 7.00193 12.7861 6.60887C16.6412 6.28949 21.6196 6 27 6C32.3804 6 37.3588 6.28949 41.2139 6.60887C45.9585 7.00193 49.8332 10.4125 50.4307 15.1356C50.752 17.6759 51 20.704 51 24C51 27.296 50.752 30.3241 50.4307 32.8644C49.8332 37.5875 45.9585 40.9981 41.2139 41.3911C37.3588 41.7105 32.3804 42 27 42C21.6196 42 16.6412 41.7105 12.7861 41.3911C8.0415 40.9981 4.16681 37.5875 3.56934 32.8644C3.248 30.3241 3 27.296 3 24C3 20.704 3.248 17.6759 3.56934 15.1356Z" fill="#00D0BF"/>
</mask>
<g mask="url(#mask0_1_40492)">
<rect x="3" y="6" width="48" height="36" fill="#2E50A6"/>
<mask id="mask1_1_40492" style="mask-type:alpha" maskUnits="userSpaceOnUse" x="3" y="6" width="24" height="18">
<rect x="3" y="6" width="24" height="18" fill="#C4C4C4"/>
</mask>
<g mask="url(#mask1_1_40492)">
<path d="M3 6L27 24L3 6ZM27 6L3 24L27 6Z" fill="black"/>
<path d="M27 6L3 24M3 6L27 24L3 6Z" stroke="white" stroke-width="2.4"/>
<path d="M3 6L27 24L3 6ZM27 6L3 24L27 6Z" fill="black"/>
<path d="M27 6L3 24M3 6L27 24L3 6Z" stroke="#EE5757" stroke-width="1.6"/>
<path d="M15 6V27V6ZM3 15H31H3Z" fill="black"/>
<path d="M3 15H31M15 6V27V6Z" stroke="white" stroke-width="4"/>
<path d="M15 6V27V6ZM3 15H31H3Z" fill="black"/>
<path d="M3 15H31M15 6V27V6Z" stroke="#EE5757" stroke-width="2.4"/>
</g>
<path d="M39.676 15.2647L39.3082 16.1663L39.2848 16.2237L39.2229 16.2283L38.2518 16.2994L38.9956 16.9278L39.043 16.9678L39.0282 17.0281L38.7958 17.9736L39.6233 17.4604L39.676 17.4277L39.7287 17.4604L40.5561 17.9736L40.3237 17.0281L40.3089 16.9678L40.3563 16.9278L41.1001 16.2994L40.129 16.2283L40.0672 16.2237L40.0437 16.1663L39.676 15.2647Z" fill="#EE5757" stroke="#F5F5F5" stroke-width="0.2"/>
<path d="M33.676 22.2648L33.3082 23.1664L33.2848 23.2238L33.2229 23.2283L32.2518 23.2995L32.9956 23.9278L33.043 23.9679L33.0282 24.0281L32.7958 24.9737L33.6233 24.4604L33.676 24.4277L33.7287 24.4604L34.5561 24.9737L34.3237 24.0281L34.3089 23.9679L34.3563 23.9278L35.1001 23.2995L34.129 23.2283L34.0672 23.2238L34.0437 23.1664L33.676 22.2648Z" fill="#EE5757" stroke="#F5F5F5" stroke-width="0.2"/>
<path d="M42.676 33.2647L42.3082 34.1663L42.2848 34.2237L42.2229 34.2282L41.2518 34.2994L41.9956 34.9278L42.043 34.9678L42.0282 35.028L41.7958 35.9736L42.6233 35.4604L42.676 35.4277L42.7287 35.4604L43.5561 35.9736L43.3237 35.028L43.3089 34.9678L43.3563 34.9278L44.1001 34.2994L43.129 34.2282L43.0672 34.2237L43.0437 34.1663L42.676 33.2647Z" fill="#EE5757" stroke="#F5F5F5" stroke-width="0.2"/>
<path d="M44.676 21.2648L44.3082 22.1664L44.2848 22.2238L44.2229 22.2284L43.2518 22.2995L43.9956 22.9279L44.043 22.9679L44.0282 23.0281L43.7958 23.9737L44.6233 23.4605L44.676 23.4278L44.7287 23.4605L45.5561 23.9737L45.3237 23.0281L45.3089 22.9679L45.3563 22.9279L46.1001 22.2995L45.129 22.2284L45.0672 22.2238L45.0437 22.1664L44.676 21.2648Z" fill="#EE5757" stroke="#F5F5F5" stroke-width="0.2"/>
</g>
</svg>
