<svg width="54" height="54" viewBox="0 0 54 54" fill="none" xmlns="http://www.w3.org/2000/svg">
<mask id="mask0_1_40492" style="mask-type:alpha" maskUnits="userSpaceOnUse" x="3" y="9" width="48" height="36">
<path d="M3.56934 18.1356C4.16681 13.4125 8.0415 10.0019 12.7861 9.60887C16.6412 9.28949 21.6196 9 27 9C32.3804 9 37.3588 9.28949 41.2139 9.60887C45.9585 10.0019 49.8332 13.4125 50.4307 18.1356C50.752 20.6759 51 23.704 51 27C51 30.296 50.752 33.3241 50.4307 35.8644C49.8332 40.5875 45.9585 43.9981 41.2139 44.3911C37.3588 44.7105 32.3804 45 27 45C21.6196 45 16.6412 44.7105 12.7861 44.3911C8.04151 43.9981 4.16681 40.5875 3.56934 35.8644C3.248 33.3241 3 30.296 3 27C3 23.704 3.248 20.6759 3.56934 18.1356Z" fill="#00D0BF"/>
</mask>
<g mask="url(#mask0_1_40492)">
<rect x="3" y="9" width="48" height="36" fill="#2E50A6"/>
<mask id="mask1_1_40492" style="mask-type:alpha" maskUnits="userSpaceOnUse" x="3" y="9" width="24" height="18">
<rect x="3" y="9" width="24" height="18" fill="#C4C4C4"/>
</mask>
<g mask="url(#mask1_1_40492)">
<path d="M3 9L27 27L3 9ZM27 9L3 27Z" fill="black"/>
<path d="M27 9L3 27M3 9L27 27L3 9Z" stroke="white" stroke-width="2.4"/>
<path d="M3 9L27 27L3 9ZM27 9L3 27Z" fill="black"/>
<path d="M27 9L3 27M3 9L27 27L3 9Z" stroke="#EE5757" stroke-width="1.6"/>
<path d="M15 9V30V9ZM3 18H31Z" fill="black"/>
<path d="M3 18H31M15 9V30V9Z" stroke="white" stroke-width="4"/>
<path d="M15 9V30V9ZM3 18H31Z" fill="black"/>
<path d="M3 18H31M15 9V30V9Z" stroke="#EE5757" stroke-width="2.4"/>
</g>
<path d="M39.676 18.2647L39.3082 19.1663L39.2848 19.2237L39.2229 19.2283L38.2518 19.2994L38.9956 19.9278L39.043 19.9678L39.0282 20.0281L38.7958 20.9736L39.6233 20.4604L39.676 20.4277L39.7287 20.4604L40.5561 20.9736L40.3237 20.0281L40.3089 19.9678L40.3563 19.9278L41.1001 19.2994L40.129 19.2283L40.0672 19.2237L40.0437 19.1663L39.676 18.2647Z" fill="#EE5757" stroke="#F5F5F5" stroke-width="0.2"/>
<path d="M33.676 25.2648L33.3082 26.1664L33.2848 26.2238L33.2229 26.2283L32.2518 26.2995L32.9956 26.9278L33.043 26.9679L33.0282 27.0281L32.7958 27.9737L33.6233 27.4604L33.676 27.4277L33.7287 27.4604L34.5561 27.9737L34.3237 27.0281L34.3089 26.9679L34.3563 26.9278L35.1001 26.2995L34.129 26.2283L34.0672 26.2238L34.0437 26.1664L33.676 25.2648Z" fill="#EE5757" stroke="#F5F5F5" stroke-width="0.2"/>
<path d="M42.676 36.2647L42.3082 37.1663L42.2848 37.2237L42.2229 37.2282L41.2518 37.2994L41.9956 37.9278L42.043 37.9678L42.0282 38.028L41.7958 38.9736L42.6233 38.4604L42.676 38.4277L42.7287 38.4604L43.5561 38.9736L43.3237 38.028L43.3089 37.9678L43.3563 37.9278L44.1001 37.2994L43.129 37.2282L43.0672 37.2237L43.0437 37.1663L42.676 36.2647Z" fill="#EE5757" stroke="#F5F5F5" stroke-width="0.2"/>
<path d="M44.676 24.2648L44.3082 25.1664L44.2848 25.2238L44.2229 25.2284L43.2518 25.2995L43.9956 25.9279L44.043 25.9679L44.0282 26.0281L43.7958 26.9737L44.6233 26.4605L44.676 26.4278L44.7287 26.4605L45.5561 26.9737L45.3237 26.0281L45.3089 25.9679L45.3563 25.9279L46.1001 25.2995L45.129 25.2284L45.0672 25.2238L45.0437 25.1664L44.676 24.2648Z" fill="#EE5757" stroke="#F5F5F5" stroke-width="0.2"/>
</g>
</svg>
