<svg width="54" height="54" viewBox="0 0 54 54" fill="none" xmlns="http://www.w3.org/2000/svg">
<mask id="mask0_1_30800" style="mask-type:alpha" maskUnits="userSpaceOnUse" x="3" y="9" width="48" height="36">
<path d="M3.56934 18.1356C4.16681 13.4125 8.0415 10.0019 12.7861 9.60887C16.6412 9.28949 21.6196 9 27 9C32.3804 9 37.3588 9.28949 41.2139 9.60887C45.9585 10.0019 49.8332 13.4125 50.4307 18.1356C50.752 20.6759 51 23.704 51 27C51 30.296 50.752 33.3241 50.4307 35.8644C49.8332 40.5875 45.9585 43.9981 41.2139 44.3911C37.3588 44.7105 32.3804 45 27 45C21.6196 45 16.6412 44.7105 12.7861 44.3911C8.04151 43.9981 4.16681 40.5875 3.56934 35.8644C3.248 33.3241 3 30.296 3 27C3 23.704 3.248 20.6759 3.56934 18.1356Z" fill="#00D0BF"/>
</mask>
<g mask="url(#mask0_1_30800)">
<rect x="3" y="33" width="48" height="12" fill="#59C785"/>
<rect x="1" y="21" width="52" height="12" fill="#EE5757"/>
<rect x="3" y="9" width="48" height="12" fill="#F5F5F5"/>
<rect x="3" y="9" width="18" height="36" fill="#EE5757"/>
<path d="M10.5788 15.7067H8.90996C8.81804 15.7067 8.74353 15.7765 8.74353 15.8627V16.6489C8.74353 16.7351 8.81804 16.805 8.90996 16.805H10.5788C10.6707 16.805 10.7452 16.7351 10.7452 16.6489V15.8627C10.7452 15.7765 10.6707 15.7067 10.5788 15.7067Z" fill="white" stroke="#DB161B" stroke-width="0.0195673"/>
<path d="M10.5361 15.7522H8.95281C8.86561 15.7522 8.79492 15.8163 8.79492 15.8953V16.6159C8.79492 16.6949 8.86561 16.759 8.95281 16.759H10.5361C10.6233 16.759 10.694 16.6949 10.694 16.6159V15.8953C10.694 15.8163 10.6233 15.7522 10.5361 15.7522Z" fill="white" stroke="#DB161B" stroke-width="0.0182214"/>
<path fill-rule="evenodd" clip-rule="evenodd" d="M9.67784 16.0272L9.77376 16.0303L9.77811 16.0737L9.85659 16.1136L9.91767 16.0639L9.99175 16.1038L9.92202 16.1473L9.93947 16.2073L10.0266 16.2042V16.2844L9.95691 16.2808L9.92202 16.331L10.0005 16.388L9.93947 16.4346L9.87403 16.3843L9.77811 16.4045L9.78246 16.478L9.67784 16.4848L9.66475 16.4144L9.57757 16.3776L9.52959 16.4278L9.45546 16.3911L9.4991 16.3341L9.44676 16.2974H9.37263L9.36829 16.1938L9.44241 16.2006L9.4947 16.1405L9.43367 16.0939L9.51214 16.0401L9.56882 16.0836L9.66475 16.0706L9.67784 16.0272Z" fill="white" stroke="#DB161B" stroke-width="0.0114919"/>
<path d="M9.70691 16.334C9.76508 16.334 9.81225 16.2936 9.81225 16.2438C9.81225 16.194 9.76508 16.1537 9.70691 16.1537C9.64873 16.1537 9.60156 16.194 9.60156 16.2438C9.60156 16.2936 9.64873 16.334 9.70691 16.334Z" fill="white" stroke="#DB161B" stroke-width="0.0123953"/>
<path fill-rule="evenodd" clip-rule="evenodd" d="M9.05141 15.7983L8.89746 15.9355L9.05141 15.7983ZM9.15406 15.7983L9.00011 15.9355L9.15406 15.7983ZM9.25671 15.7983L9.10276 15.9355L9.25671 15.7983ZM9.35936 15.7983L9.20541 15.9355L9.35936 15.7983ZM9.46201 15.7983L9.30806 15.9355L9.46201 15.7983ZM9.56467 15.7983L9.41072 15.9355L9.56467 15.7983ZM9.66737 15.7983L9.51337 15.9355L9.66737 15.7983ZM9.77002 15.7983L9.61602 15.9355L9.77002 15.7983ZM9.87267 15.7983L9.71867 15.9355L9.87267 15.7983ZM9.97532 15.7983L9.82132 15.9355L9.97532 15.7983ZM10.078 15.7983L9.92397 15.9355L10.078 15.7983ZM10.1806 15.7983L10.0266 15.9355L10.1806 15.7983ZM9.77002 15.7983L9.61602 15.9355L9.77002 15.7983ZM10.2833 15.7983L10.1293 15.9355L10.2833 15.7983ZM10.3859 15.7983L10.2319 15.9355L10.3859 15.7983ZM10.4886 15.7983L10.3346 15.9355L10.4886 15.7983ZM10.5913 15.7983L10.4372 15.9355L10.5913 15.7983ZM10.4372 15.7983L10.5913 15.9355L10.4372 15.7983ZM10.3346 15.7983L10.4886 15.9355L10.3346 15.7983ZM10.2319 15.7983L10.3859 15.9355L10.2319 15.7983ZM10.1293 15.7983L10.2833 15.9355L10.1293 15.7983ZM10.0266 15.7983L10.1806 15.9355L10.0266 15.7983ZM9.92397 15.7983L10.078 15.9355L9.92397 15.7983ZM9.82132 15.7983L9.97532 15.9355L9.82132 15.7983ZM9.71867 15.7983L9.87267 15.9355L9.71867 15.7983ZM9.61602 15.7983L9.77002 15.9355L9.61602 15.7983ZM9.51337 15.7983L9.66737 15.9355L9.51337 15.7983ZM9.41072 15.7983L9.56472 15.9355L9.41072 15.7983ZM9.30806 15.7983L9.46201 15.9355L9.30806 15.7983ZM9.71867 15.7983L9.87267 15.9355L9.71867 15.7983ZM9.20541 15.7983L9.35936 15.9355L9.20541 15.7983ZM9.10276 15.7983L9.25671 15.9355L9.10276 15.7983ZM9.00011 15.7983L9.15406 15.9355L9.00011 15.7983ZM8.89746 15.7983L9.05141 15.9355L8.89746 15.7983ZM9.05141 16.5758L8.89746 16.7135L9.05141 16.5758ZM9.15406 16.5758L9.00011 16.7135L9.15406 16.5758ZM9.25671 16.5758L9.10276 16.7135L9.25671 16.5758ZM9.35936 16.5758L9.20541 16.7135L9.35936 16.5758ZM9.46201 16.5758L9.30806 16.7135L9.46201 16.5758ZM9.56467 16.5758L9.41072 16.7135L9.56467 16.5758ZM9.66737 16.5758L9.51337 16.7135L9.66737 16.5758ZM9.77002 16.5758L9.61602 16.7135L9.77002 16.5758ZM9.87267 16.5758L9.71867 16.7135L9.87267 16.5758ZM9.97532 16.5758L9.82132 16.7135L9.97532 16.5758ZM10.078 16.5758L9.92397 16.7135L10.078 16.5758ZM10.1806 16.5758L10.0266 16.7135L10.1806 16.5758ZM9.77002 16.5758L9.61602 16.7135L9.77002 16.5758ZM10.2833 16.5758L10.1293 16.7135L10.2833 16.5758ZM10.3859 16.5758L10.2319 16.7135L10.3859 16.5758ZM10.4886 16.5758L10.3346 16.7135L10.4886 16.5758ZM10.5913 16.5758L10.4372 16.7135L10.5913 16.5758ZM10.4372 16.5758L10.5913 16.7135L10.4372 16.5758ZM10.3346 16.5758L10.4886 16.7135L10.3346 16.5758ZM10.2319 16.5758L10.3859 16.7135L10.2319 16.5758ZM10.1293 16.5758L10.2833 16.7135L10.1293 16.5758ZM10.0266 16.5758L10.1806 16.7135L10.0266 16.5758ZM9.92397 16.5758L10.078 16.7135L9.92397 16.5758ZM9.82132 16.5758L9.97532 16.7135L9.82132 16.5758ZM9.71867 16.5758L9.87267 16.7135L9.71867 16.5758ZM9.61602 16.5758L9.77002 16.7135L9.61602 16.5758ZM9.51337 16.5758L9.66737 16.7135L9.51337 16.5758ZM9.41072 16.5758L9.56472 16.7135L9.41072 16.5758ZM9.30806 16.5758L9.46201 16.7135L9.30806 16.5758ZM9.71867 16.5758L9.87267 16.7135L9.71867 16.5758ZM9.20541 16.5758L9.35936 16.7135L9.20541 16.5758ZM9.10276 16.5758L9.25671 16.7135L9.10276 16.5758ZM9.00011 16.5758L9.15406 16.7135L9.00011 16.5758ZM8.89746 16.5758L9.05141 16.7135Z" fill="white"/>
<path d="M8.89746 16.5758L9.05141 16.7135M9.05141 15.7983L8.89746 15.9355L9.05141 15.7983ZM9.15406 15.7983L9.00011 15.9355L9.15406 15.7983ZM9.25671 15.7983L9.10276 15.9355L9.25671 15.7983ZM9.35936 15.7983L9.20541 15.9355L9.35936 15.7983ZM9.46201 15.7983L9.30806 15.9355L9.46201 15.7983ZM9.56467 15.7983L9.41072 15.9355L9.56467 15.7983ZM9.66737 15.7983L9.51337 15.9355L9.66737 15.7983ZM9.77002 15.7983L9.61602 15.9355L9.77002 15.7983ZM9.87267 15.7983L9.71867 15.9355L9.87267 15.7983ZM9.97532 15.7983L9.82132 15.9355L9.97532 15.7983ZM10.078 15.7983L9.92397 15.9355L10.078 15.7983ZM10.1806 15.7983L10.0266 15.9355L10.1806 15.7983ZM9.77002 15.7983L9.61602 15.9355L9.77002 15.7983ZM10.2833 15.7983L10.1293 15.9355L10.2833 15.7983ZM10.3859 15.7983L10.2319 15.9355L10.3859 15.7983ZM10.4886 15.7983L10.3346 15.9355L10.4886 15.7983ZM10.5913 15.7983L10.4372 15.9355L10.5913 15.7983ZM10.4372 15.7983L10.5913 15.9355L10.4372 15.7983ZM10.3346 15.7983L10.4886 15.9355L10.3346 15.7983ZM10.2319 15.7983L10.3859 15.9355L10.2319 15.7983ZM10.1293 15.7983L10.2833 15.9355L10.1293 15.7983ZM10.0266 15.7983L10.1806 15.9355L10.0266 15.7983ZM9.92397 15.7983L10.078 15.9355L9.92397 15.7983ZM9.82132 15.7983L9.97532 15.9355L9.82132 15.7983ZM9.71867 15.7983L9.87267 15.9355L9.71867 15.7983ZM9.61602 15.7983L9.77002 15.9355L9.61602 15.7983ZM9.51337 15.7983L9.66737 15.9355L9.51337 15.7983ZM9.41072 15.7983L9.56472 15.9355L9.41072 15.7983ZM9.30806 15.7983L9.46201 15.9355L9.30806 15.7983ZM9.71867 15.7983L9.87267 15.9355L9.71867 15.7983ZM9.20541 15.7983L9.35936 15.9355L9.20541 15.7983ZM9.10276 15.7983L9.25671 15.9355L9.10276 15.7983ZM9.00011 15.7983L9.15406 15.9355L9.00011 15.7983ZM8.89746 15.7983L9.05141 15.9355L8.89746 15.7983ZM9.05141 16.5758L8.89746 16.7135L9.05141 16.5758ZM9.15406 16.5758L9.00011 16.7135L9.15406 16.5758ZM9.25671 16.5758L9.10276 16.7135L9.25671 16.5758ZM9.35936 16.5758L9.20541 16.7135L9.35936 16.5758ZM9.46201 16.5758L9.30806 16.7135L9.46201 16.5758ZM9.56467 16.5758L9.41072 16.7135L9.56467 16.5758ZM9.66737 16.5758L9.51337 16.7135L9.66737 16.5758ZM9.77002 16.5758L9.61602 16.7135L9.77002 16.5758ZM9.87267 16.5758L9.71867 16.7135L9.87267 16.5758ZM9.97532 16.5758L9.82132 16.7135L9.97532 16.5758ZM10.078 16.5758L9.92397 16.7135L10.078 16.5758ZM10.1806 16.5758L10.0266 16.7135L10.1806 16.5758ZM9.77002 16.5758L9.61602 16.7135L9.77002 16.5758ZM10.2833 16.5758L10.1293 16.7135L10.2833 16.5758ZM10.3859 16.5758L10.2319 16.7135L10.3859 16.5758ZM10.4886 16.5758L10.3346 16.7135L10.4886 16.5758ZM10.5913 16.5758L10.4372 16.7135L10.5913 16.5758ZM10.4372 16.5758L10.5913 16.7135L10.4372 16.5758ZM10.3346 16.5758L10.4886 16.7135L10.3346 16.5758ZM10.2319 16.5758L10.3859 16.7135L10.2319 16.5758ZM10.1293 16.5758L10.2833 16.7135L10.1293 16.5758ZM10.0266 16.5758L10.1806 16.7135L10.0266 16.5758ZM9.92397 16.5758L10.078 16.7135L9.92397 16.5758ZM9.82132 16.5758L9.97532 16.7135L9.82132 16.5758ZM9.71867 16.5758L9.87267 16.7135L9.71867 16.5758ZM9.61602 16.5758L9.77002 16.7135L9.61602 16.5758ZM9.51337 16.5758L9.66737 16.7135L9.51337 16.5758ZM9.41072 16.5758L9.56472 16.7135L9.41072 16.5758ZM9.30806 16.5758L9.46201 16.7135L9.30806 16.5758ZM9.71867 16.5758L9.87267 16.7135L9.71867 16.5758ZM9.20541 16.5758L9.35936 16.7135L9.20541 16.5758ZM9.10276 16.5758L9.25671 16.7135L9.10276 16.5758ZM9.00011 16.5758L9.15406 16.7135L9.00011 16.5758Z" stroke="#DB161B" stroke-width="0.0182214"/>
<path fill-rule="evenodd" clip-rule="evenodd" d="M11.8834 18.0092C9.3928 20.4448 8.33037 20.7528 8.82897 20.949C9.32758 21.1452 10.9315 19.8883 12.6004 18.2183C14.2693 16.5489 15.2912 15.0629 14.7927 14.8667C14.2942 14.6704 14.5323 15.4186 11.8834 18.0092Z" fill="white" stroke="#DB161B" stroke-width="0.0292475"/>
<path fill-rule="evenodd" clip-rule="evenodd" d="M9.78681 19.779L10.6592 20.0078C9.83811 20.7859 8.91425 21.1063 8.65765 20.9691C8.401 20.8319 9.11955 20.5115 9.78681 19.779V19.779Z" fill="white" stroke="#DB161B" stroke-width="0.0170826"/>
<path fill-rule="evenodd" clip-rule="evenodd" d="M9.78677 19.8706L10.5053 20.0539C9.70539 20.8019 8.91421 21.0147 8.70948 20.9235C8.50361 20.8319 9.1368 20.5746 9.78677 19.8706V19.8706Z" fill="white" stroke="#DB161B" stroke-width="0.0170826"/>
<path d="M9.85071 20.0337V20.042C9.85071 20.0203 9.85014 20.0312 9.85977 20.0741C9.87685 20.0933 9.91692 20.0984 9.9503 20.0902C9.9796 20.0689 9.97867 20.0524 10.0318 20.042C10.0831 20.0451 10.1027 20.0586 10.1314 20.0741C10.1654 20.0891 10.1812 20.0969 10.2038 20.1305C10.215 20.158 10.2213 20.1766 10.1857 20.187C10.1574 20.2051 10.1237 20.2149 10.0861 20.2196C10.0443 20.2196 10.0141 20.2149 9.99555 20.2356C9.96682 20.262 9.96842 20.2781 9.96842 20.3241C9.95874 20.3386 9.95683 20.3811 9.9503 20.3971C9.92515 20.4075 9.91039 20.4132 9.86883 20.4132C9.85904 20.3883 9.84822 20.3433 9.84165 20.3164C9.83456 20.2874 9.83238 20.247 9.81447 20.2273C9.79698 20.2048 9.7755 20.1857 9.75111 20.1709C9.74003 20.1569 9.71891 20.1456 9.69681 20.1388C9.73232 20.1549 9.73739 20.1725 9.74205 20.2113C9.71084 20.2253 9.7025 20.2351 9.65151 20.2356C9.60141 20.232 9.58929 20.2206 9.57004 20.1952C9.56657 20.2356 9.55202 20.2491 9.54291 20.2843C9.52428 20.3086 9.51636 20.3335 9.49762 20.3645C9.50559 20.4039 9.52277 20.4054 9.52479 20.4536C9.53654 20.4851 9.53525 20.5152 9.56098 20.5343C9.57247 20.5467 9.58106 20.5493 9.60627 20.5504C9.55383 20.5504 9.52329 20.5452 9.48856 20.526C9.46169 20.5115 9.4414 20.4929 9.41614 20.4779C9.38409 20.4572 9.34449 20.438 9.30748 20.4292C9.26566 20.4292 9.23553 20.4251 9.21694 20.4453C9.19132 20.4618 9.17408 20.4898 9.16264 20.526C9.15426 20.568 9.15105 20.5959 9.1717 20.6228C9.18702 20.6544 9.19049 20.6663 9.1717 20.7036C9.15063 20.73 9.11931 20.7331 9.0721 20.744C9.04135 20.7427 9.0109 20.7373 8.98157 20.7279M12.4673 17.9026C12.4653 17.9145 12.4596 17.9667 12.4544 17.9875C12.4544 18.0164 12.4513 18.0382 12.4482 18.061C12.4399 18.0806 12.4415 18.0987 12.4161 18.106C12.399 18.1298 12.3881 18.136 12.3654 18.1459C12.3498 18.1578 12.326 18.1697 12.3012 18.1795C12.2758 18.1893 12.2525 18.1904 12.2251 18.1852C12.2023 18.1712 12.1863 18.1572 12.1676 18.1459C12.163 18.1277 12.1593 18.1013 12.1547 18.0837C12.1614 18.1019 12.1666 18.1308 12.1676 18.1567C12.165 18.1852 12.1547 18.1976 12.1423 18.2188L12.4673 17.9026ZM12.2313 18.281C12.2292 18.2794 12.2272 18.2773 12.2251 18.2753C12.2401 18.2887 12.2339 18.2825 12.1992 18.2644C12.1749 18.253 12.1485 18.2468 12.1164 18.2416H12.0273C11.9927 18.2416 11.9694 18.2463 11.9445 18.253C11.9264 18.2691 11.8995 18.2779 11.8808 18.2924C11.8612 18.3043 11.8529 18.3182 11.8425 18.3374C11.8249 18.3529 11.8135 18.3767 11.7975 18.3886C11.7908 18.4145 11.7758 18.4135 11.7659 18.4337C11.7959 18.4357 11.8203 18.4394 11.8358 18.4559C11.8627 18.4684 11.8135 18.444 11.8042 18.4337C11.783 18.428 11.7778 18.4223 11.7468 18.4223C11.7178 18.414 11.7002 18.429 11.6702 18.4337C11.6531 18.4425 11.6479 18.4451 11.6256 18.4451L12.2313 18.281ZM11.8871 18.5636C11.8741 18.5641 11.8146 18.574 11.7913 18.5636C11.7654 18.5574 11.7499 18.545 11.7338 18.5237C11.7261 18.5087 11.7338 18.5512 11.7338 18.5693C11.7312 18.6024 11.7199 18.6029 11.7023 18.6257C11.6836 18.6361 11.6639 18.6511 11.6448 18.6594C11.6287 18.6718 11.6091 18.6801 11.5873 18.6878C11.5682 18.6956 11.5454 18.7039 11.5299 18.7158C11.5087 18.7293 11.5107 18.7458 11.4983 18.7665C11.5004 18.7945 11.5055 18.81 11.5237 18.8235C11.5309 18.8421 11.548 18.8613 11.562 18.8742C11.5775 18.9001 11.5951 18.912 11.5552 18.9192C11.5335 18.9275 11.5216 18.9208 11.4983 18.9192L11.8871 18.5636ZM11.4854 18.9586C11.4698 18.9555 11.4139 18.9389 11.3896 18.9306H11.3006C11.2659 18.9327 11.2591 18.942 11.2302 18.9529C11.2115 18.97 11.1986 18.9819 11.1727 18.9927C11.1592 19.0083 11.1323 19.0347 11.122 19.0549C11.1142 19.074 11.109 19.0999 11.109 19.1284C11.1095 19.161 11.1194 19.1667 11.122 19.1962C11.1292 19.22 11.1406 19.2422 11.1603 19.2635C11.1629 19.2707 11.1649 19.2728 11.1727 19.2749L11.4854 18.9586ZM11.1815 19.3489C11.1789 19.3489 11.1727 19.3634 11.1634 19.3758C11.1432 19.3965 11.1406 19.3981 11.109 19.3981C11.0811 19.397 11.0837 19.3872 11.064 19.3799C11.0547 19.366 11.0428 19.3546 11.0324 19.3354C11.0252 19.324 11.0184 19.3059 11.0096 19.2956C11.0013 19.2821 10.991 19.2723 10.9822 19.2598C10.9739 19.2562 10.9708 19.2526 10.9599 19.251C10.9858 19.2552 10.9879 19.264 11.005 19.2774C11.0127 19.2904 11.021 19.3033 11.0278 19.3178C11.0303 19.337 11.0366 19.352 11.0366 19.3758C11.0366 19.4001 11.0366 19.4177 11.0278 19.4379C11.0169 19.4493 11.0091 19.4607 10.9962 19.4695C10.9853 19.4793 10.9724 19.4928 10.9641 19.5047C10.9501 19.5135 10.9397 19.5207 10.9237 19.5316C10.9097 19.5394 10.8952 19.5477 10.874 19.5497C10.8471 19.5477 10.8393 19.5404 10.8197 19.5316C10.8026 19.5192 10.7891 19.5114 10.7741 19.5006C10.7622 19.4923 10.7503 19.4762 10.7425 19.4648C10.7182 19.4586 10.7027 19.4612 10.6882 19.4736C10.6757 19.4819 10.6649 19.4928 10.6566 19.5047C10.6488 19.5083 10.6369 19.5192 10.6292 19.5228L11.1815 19.3489ZM10.683 19.5332C10.6902 19.5363 10.7161 19.5544 10.728 19.5611C10.7353 19.5844 10.7467 19.5974 10.7503 19.6222C10.7565 19.6465 10.756 19.6729 10.756 19.7004C10.7498 19.7288 10.7379 19.7495 10.728 19.7723C10.7099 19.7847 10.7011 19.793 10.6773 19.806C10.655 19.8091 10.6328 19.8117 10.6043 19.8117C10.5867 19.8174 10.5536 19.8199 10.5365 19.8117C10.5116 19.808 10.4929 19.7982 10.4747 19.7894C10.4539 19.7775 10.4411 19.7666 10.4184 19.7558C10.4073 19.7397 10.3902 19.7252 10.3734 19.7055C10.3594 19.6869 10.3491 19.6766 10.3396 19.6559C10.3479 19.6797 10.3605 19.7004 10.3677 19.7226C10.3805 19.7459 10.388 19.7547 10.3903 19.7837C10.3981 19.807 10.3959 19.835 10.3959 19.8614C10.3934 19.8795 10.3921 19.9136 10.3846 19.9281V19.9452L10.683 19.5332Z" stroke="#DB161B" stroke-width="0.0170826"/>
<path fill-rule="evenodd" clip-rule="evenodd" d="M14.7254 15.8111C15.8306 13.9032 16.5641 12.2796 16.3622 12.1868C16.1608 12.0941 15.1007 13.5671 13.9955 15.4749L14.7254 15.8111Z" fill="white" stroke="#DB161B" stroke-width="0.0231391"/>
<path fill-rule="evenodd" clip-rule="evenodd" d="M14.6524 15.7775C15.7182 13.9369 16.4528 12.383 16.2918 12.3088C16.1308 12.2347 15.1348 13.6681 14.0685 15.5085" fill="white"/>
<path d="M14.6524 15.7775C15.7182 13.9369 16.4528 12.383 16.2918 12.3088C16.1308 12.2347 15.1348 13.6681 14.0685 15.5085" stroke="#DB161B" stroke-width="0.0203438"/>
<path fill-rule="evenodd" clip-rule="evenodd" d="M14.4691 14.8173C14.3392 15.0324 14.202 15.2784 14.0685 15.5084L14.6524 15.7775C14.7854 15.5472 14.9309 15.3048 15.0525 15.0861L14.4691 14.8173Z" fill="white" stroke="#DB161B" stroke-width="0.0230874"/>
<path fill-rule="evenodd" clip-rule="evenodd" d="M14.5183 14.8915C14.3889 15.1067 14.2983 15.2714 14.1653 15.5014L14.6027 15.703C14.7363 15.473 14.8346 15.3119 14.9563 15.0932L14.5183 14.8915Z" fill="white" stroke="#DB161B" stroke-width="0.0230874"/>
<path d="M14.8358 15.1407L14.544 15.0064L14.2849 15.4536L14.5767 15.588L14.8358 15.1407Z" fill="white" stroke="#DB161B" stroke-width="0.0231391"/>
<path fill-rule="evenodd" clip-rule="evenodd" d="M14.8361 15.1409L14.2853 15.4537L14.8361 15.1409ZM14.5767 15.588L14.5441 15.0065L14.5767 15.588ZM16.155 12.864L15.8631 12.7296Z" fill="white"/>
<path d="M16.155 12.864L15.8631 12.7296M14.8361 15.1409L14.2853 15.4537L14.8361 15.1409ZM14.5767 15.588L14.5441 15.0065L14.5767 15.588Z" stroke="#DB161B" stroke-width="0.0230874"/>
<path d="M16.1554 12.6531C16.1099 12.6646 16.0647 12.6415 16.0545 12.6016C16.0442 12.5617 16.0727 12.5201 16.1182 12.5086C16.1637 12.4971 16.2089 12.5202 16.2191 12.5601C16.2294 12.6 16.2009 12.6416 16.1554 12.6531Z" fill="#DB161B" stroke="#DB161B" stroke-width="0.0299447"/>
<path fill-rule="evenodd" clip-rule="evenodd" d="M13.1166 18.0092C15.6072 20.4448 16.6696 20.7528 16.171 20.949C15.6724 21.1452 14.0685 19.8883 12.3996 18.2183C10.7307 16.5489 9.70884 15.0629 10.2073 14.8667C10.7058 14.6704 10.4677 15.4186 13.1166 18.0092Z" fill="white" stroke="#DB161B" stroke-width="0.0292475"/>
<path fill-rule="evenodd" clip-rule="evenodd" d="M15.2132 19.779L14.3408 20.0078C15.1619 20.7859 16.0857 21.1063 16.3423 20.9691C16.599 20.8319 15.8804 20.5115 15.2132 19.779V19.779Z" fill="white" stroke="#DB161B" stroke-width="0.0170826"/>
<path fill-rule="evenodd" clip-rule="evenodd" d="M15.2132 19.8706L14.4947 20.0539C15.2946 20.8019 16.0858 21.0147 16.2905 20.9235C16.4964 20.8319 15.8632 20.5746 15.2132 19.8706V19.8706Z" fill="white" stroke="#DB161B" stroke-width="0.0170826"/>
<path d="M15.1493 20.0337V20.042C15.1493 20.0203 15.1499 20.0312 15.1402 20.0741C15.1232 20.0933 15.0831 20.0984 15.0497 20.0902C15.0204 20.0689 15.0213 20.0524 14.9682 20.042C14.9169 20.0451 14.8973 20.0586 14.8686 20.0741C14.8346 20.0891 14.8188 20.0969 14.7962 20.1305C14.785 20.158 14.7787 20.1766 14.8143 20.187C14.8426 20.2051 14.8763 20.2149 14.9139 20.2196C14.9557 20.2196 14.9859 20.2149 15.0045 20.2356C15.0332 20.262 15.0316 20.2781 15.0316 20.3241C15.0413 20.3386 15.0432 20.3811 15.0497 20.3971C15.0749 20.4075 15.0896 20.4132 15.1312 20.4132C15.141 20.3883 15.1518 20.3433 15.1584 20.3164C15.1654 20.2874 15.1676 20.247 15.1855 20.2273C15.203 20.2048 15.2245 20.1857 15.2489 20.1709C15.26 20.1569 15.2811 20.1456 15.3032 20.1388C15.2677 20.1549 15.2626 20.1725 15.2579 20.2113C15.2892 20.2253 15.2975 20.2351 15.3485 20.2356C15.3986 20.232 15.4107 20.2206 15.43 20.1952C15.4334 20.2356 15.448 20.2491 15.4571 20.2843C15.4757 20.3086 15.4836 20.3335 15.5024 20.3645C15.4944 20.4039 15.4772 20.4054 15.4752 20.4536C15.4635 20.4851 15.4648 20.5152 15.439 20.5343C15.4275 20.5467 15.4189 20.5493 15.3937 20.5504C15.4462 20.5504 15.4767 20.5452 15.5114 20.526C15.5383 20.5115 15.5586 20.4929 15.5839 20.4779C15.6159 20.4572 15.6555 20.438 15.6925 20.4292C15.7343 20.4292 15.7645 20.4251 15.7831 20.4453C15.8087 20.4618 15.8259 20.4898 15.8374 20.526C15.8457 20.568 15.849 20.5959 15.8283 20.6228C15.813 20.6544 15.8095 20.6663 15.8283 20.7036C15.8494 20.73 15.8807 20.7331 15.9279 20.744C15.9587 20.7427 15.9891 20.7373 16.0184 20.7279M12.5327 17.9026C12.5347 17.9145 12.5404 17.9667 12.5456 17.9875C12.5456 18.0164 12.5487 18.0382 12.5518 18.061C12.5601 18.0806 12.5585 18.0987 12.5839 18.106C12.601 18.1298 12.6119 18.136 12.6346 18.1459C12.6502 18.1578 12.674 18.1697 12.6988 18.1795C12.7242 18.1893 12.7475 18.1904 12.7749 18.1852C12.7977 18.1712 12.8137 18.1572 12.8324 18.1459C12.837 18.1277 12.8407 18.1013 12.8453 18.0837C12.8386 18.1019 12.8334 18.1308 12.8324 18.1567C12.835 18.1852 12.8453 18.1976 12.8577 18.2188L12.5327 17.9026ZM12.7687 18.281C12.7708 18.2794 12.7728 18.2773 12.7749 18.2753C12.7599 18.2887 12.7661 18.2825 12.8008 18.2644C12.8251 18.253 12.8515 18.2468 12.8836 18.2416H12.9727C13.0073 18.2416 13.0306 18.2463 13.0555 18.253C13.0736 18.2691 13.1005 18.2779 13.1192 18.2924C13.1388 18.3043 13.1471 18.3182 13.1575 18.3374C13.1751 18.3529 13.1865 18.3767 13.2025 18.3886C13.2092 18.4145 13.2242 18.4135 13.2341 18.4337C13.2041 18.4357 13.1797 18.4394 13.1642 18.4559C13.1373 18.4684 13.1865 18.444 13.1958 18.4337C13.217 18.428 13.2222 18.4223 13.2532 18.4223C13.2822 18.414 13.2998 18.429 13.3298 18.4337C13.3469 18.4425 13.3521 18.4451 13.3744 18.4451L12.7687 18.281ZM13.1129 18.5636C13.1259 18.5641 13.1854 18.574 13.2087 18.5636C13.2346 18.5574 13.2501 18.545 13.2662 18.5237C13.2739 18.5087 13.2662 18.5512 13.2662 18.5693C13.2688 18.6024 13.2801 18.6029 13.2977 18.6257C13.3164 18.6361 13.3361 18.6511 13.3552 18.6594C13.3713 18.6718 13.3909 18.6801 13.4127 18.6878C13.4318 18.6956 13.4546 18.7039 13.4701 18.7158C13.4913 18.7293 13.4893 18.7458 13.5017 18.7665C13.4996 18.7945 13.4945 18.81 13.4763 18.8235C13.4691 18.8421 13.452 18.8613 13.438 18.8742C13.4225 18.9001 13.4049 18.912 13.4448 18.9192C13.4665 18.9275 13.4784 18.9208 13.5017 18.9192L13.1129 18.5636ZM13.5146 18.9586C13.5302 18.9555 13.5861 18.9389 13.6104 18.9306H13.6994C13.7341 18.9327 13.7409 18.942 13.7698 18.9529C13.7885 18.97 13.8014 18.9819 13.8273 18.9927C13.8408 19.0083 13.8677 19.0347 13.878 19.0549C13.8858 19.074 13.891 19.0999 13.891 19.1284C13.8905 19.161 13.8806 19.1667 13.878 19.1962C13.8708 19.22 13.8594 19.2422 13.8397 19.2635C13.8371 19.2707 13.8351 19.2728 13.8273 19.2749L13.5146 18.9586ZM13.8185 19.3489C13.8211 19.3489 13.8273 19.3634 13.8366 19.3758C13.8568 19.3965 13.8594 19.3981 13.891 19.3981C13.9189 19.397 13.9163 19.3872 13.936 19.3799C13.9453 19.366 13.9572 19.3546 13.9676 19.3354C13.9748 19.324 13.9816 19.3059 13.9904 19.2956C13.9987 19.2821 14.009 19.2723 14.0178 19.2598C14.0261 19.2562 14.0292 19.2526 14.0401 19.251C14.0142 19.2552 14.0121 19.264 13.995 19.2774C13.9873 19.2904 13.979 19.3033 13.9722 19.3178C13.9697 19.337 13.9634 19.352 13.9634 19.3758C13.9634 19.4001 13.9634 19.4177 13.9722 19.4379C13.9831 19.4493 13.9909 19.4607 14.0038 19.4695C14.0147 19.4793 14.0276 19.4928 14.0359 19.5047C14.0499 19.5135 14.0603 19.5207 14.0763 19.5316C14.0903 19.5394 14.1048 19.5477 14.126 19.5497C14.1529 19.5477 14.1607 19.5404 14.1803 19.5316C14.1974 19.5192 14.2109 19.5114 14.2259 19.5006C14.2378 19.4923 14.2497 19.4762 14.2575 19.4648C14.2818 19.4586 14.2973 19.4612 14.3118 19.4736C14.3243 19.4819 14.3351 19.4928 14.3434 19.5047C14.3512 19.5083 14.3631 19.5192 14.3708 19.5228L13.8185 19.3489ZM14.317 19.5332C14.3098 19.5363 14.2839 19.5544 14.272 19.5611C14.2647 19.5844 14.2533 19.5974 14.2497 19.6222C14.2435 19.6465 14.244 19.6729 14.244 19.7004C14.2502 19.7288 14.2621 19.7495 14.272 19.7723C14.2901 19.7847 14.2989 19.793 14.3227 19.806C14.345 19.8091 14.3672 19.8117 14.3957 19.8117C14.4133 19.8174 14.4464 19.8199 14.4635 19.8117C14.4884 19.808 14.5071 19.7982 14.5253 19.7894C14.5461 19.7775 14.5589 19.7666 14.5816 19.7558C14.5927 19.7397 14.6098 19.7252 14.6266 19.7055C14.6406 19.6869 14.6509 19.6766 14.6604 19.6559C14.6521 19.6797 14.6395 19.7004 14.6323 19.7226C14.6195 19.7459 14.612 19.7547 14.6097 19.7837C14.6019 19.807 14.6041 19.835 14.6041 19.8614C14.6066 19.8795 14.6079 19.9136 14.6154 19.9281V19.9452L14.317 19.5332Z" stroke="#DB161B" stroke-width="0.0170826"/>
<path fill-rule="evenodd" clip-rule="evenodd" d="M10.2746 15.8111C9.16943 13.9032 8.43592 12.2796 8.6378 12.1868C8.83917 12.0941 9.89933 13.5671 11.0045 15.4749L10.2746 15.8111Z" fill="white" stroke="#DB161B" stroke-width="0.0231391"/>
<path fill-rule="evenodd" clip-rule="evenodd" d="M10.3476 15.7775C9.28176 13.9369 8.5472 12.383 8.70819 12.3088C8.86918 12.2347 9.86515 13.6681 10.9315 15.5085" fill="white"/>
<path d="M10.3476 15.7775C9.28176 13.9369 8.5472 12.383 8.70819 12.3088C8.86918 12.2347 9.86515 13.6681 10.9315 15.5085" stroke="#DB161B" stroke-width="0.0203438"/>
<path fill-rule="evenodd" clip-rule="evenodd" d="M10.5309 14.8173C10.6608 15.0324 10.798 15.2784 10.9315 15.5084L10.3476 15.7775C10.2146 15.5472 10.0691 15.3048 9.94746 15.0861L10.5309 14.8173Z" fill="white" stroke="#DB161B" stroke-width="0.0230874"/>
<path fill-rule="evenodd" clip-rule="evenodd" d="M10.4817 14.8915C10.6111 15.1067 10.7017 15.2714 10.8347 15.5014L10.3973 15.703C10.2637 15.473 10.1654 15.3119 10.0437 15.0932L10.4817 14.8915Z" fill="white" stroke="#DB161B" stroke-width="0.0230874"/>
<path d="M10.1642 15.1407L10.456 15.0064L10.7151 15.4536L10.4233 15.588L10.1642 15.1407Z" fill="white" stroke="#DB161B" stroke-width="0.0231391"/>
<path fill-rule="evenodd" clip-rule="evenodd" d="M10.1639 15.1409L10.7147 15.4537L10.1639 15.1409ZM10.4233 15.588L10.4559 15.0065L10.4233 15.588ZM8.84496 12.864L9.13691 12.7296Z" fill="white"/>
<path d="M8.84496 12.864L9.13691 12.7296M10.1639 15.1409L10.7147 15.4537L10.1639 15.1409ZM10.4233 15.588L10.4559 15.0065L10.4233 15.588Z" stroke="#DB161B" stroke-width="0.0230874"/>
<path d="M8.84461 12.6531C8.89009 12.6646 8.93528 12.6415 8.94555 12.6016C8.95581 12.5617 8.92727 12.5201 8.88179 12.5086C8.83631 12.4971 8.79112 12.5202 8.78085 12.5601C8.77059 12.6 8.79913 12.6416 8.84461 12.6531Z" fill="#DB161B" stroke="#DB161B" stroke-width="0.0299447"/>
<path fill-rule="evenodd" clip-rule="evenodd" d="M12.3364 14.7913C12.3364 16.393 12.3457 16.9966 12.2277 17.0794C12.1159 17.1679 9.00024 17.0794 9.00024 17.537C9.00024 17.9946 11.5667 18.4522 12.3364 18.4522C13.3629 18.4522 13.8764 17.9946 13.8764 17.0794V14.7913H12.3364Z" fill="white" stroke="#DB161B" stroke-width="0.0210685"/>
<path fill-rule="evenodd" clip-rule="evenodd" d="M12.3364 15.2489V15.4777C12.8469 15.554 13.3659 15.554 13.8764 15.4777V15.2489C13.3659 15.3252 12.8469 15.3252 12.3364 15.2489V15.2489ZM12.3364 14.7913V15.0201C12.8469 15.0963 13.3659 15.0963 13.8764 15.0201V14.7913C13.3659 14.8675 12.8469 14.8675 12.3364 14.7913Z" fill="white" stroke="#DB161B" stroke-width="0.0182214"/>
<path fill-rule="evenodd" clip-rule="evenodd" d="M12.3364 15.0201V15.2489C12.8469 15.3252 13.3659 15.3252 13.8764 15.2489V15.0201C13.3659 15.0963 12.8469 15.0963 12.3364 15.0201ZM12.3364 15.4777V15.7066C12.8499 15.7827 13.3629 15.7827 13.8764 15.7066V15.4777C13.3659 15.554 12.8469 15.554 12.3364 15.4777V15.4777Z" fill="white" stroke="#DB161B" stroke-width="0.0182214"/>
<path d="M12.4064 15.1995C12.4451 15.1995 12.4764 15.1774 12.4764 15.1502C12.4764 15.1229 12.4451 15.1008 12.4064 15.1008C12.3678 15.1008 12.3364 15.1229 12.3364 15.1502C12.3364 15.1774 12.3678 15.1995 12.4064 15.1995Z" fill="white" stroke="#DB161B" stroke-width="0.0170967"/>
<path d="M12.6863 15.2242C12.725 15.2242 12.7563 15.2021 12.7563 15.1748C12.7563 15.1476 12.725 15.1255 12.6863 15.1255C12.6477 15.1255 12.6163 15.1476 12.6163 15.1748C12.6163 15.2021 12.6477 15.2242 12.6863 15.2242Z" fill="white" stroke="#DB161B" stroke-width="0.0170967"/>
<path d="M12.9663 15.2489C13.005 15.2489 13.0363 15.2268 13.0363 15.1995C13.0363 15.1723 13.005 15.1502 12.9663 15.1502C12.9277 15.1502 12.8964 15.1723 12.8964 15.1995C12.8964 15.2268 12.9277 15.2489 12.9663 15.2489Z" fill="white" stroke="#DB161B" stroke-width="0.0170967"/>
<path d="M13.2463 15.2489C13.2849 15.2489 13.3162 15.2268 13.3162 15.1995C13.3162 15.1723 13.2849 15.1502 13.2463 15.1502C13.2076 15.1502 13.1763 15.1723 13.1763 15.1995C13.1763 15.2268 13.2076 15.2489 13.2463 15.2489Z" fill="white" stroke="#DB161B" stroke-width="0.0170967"/>
<path d="M13.5262 15.2242C13.5648 15.2242 13.5962 15.2021 13.5962 15.1748C13.5962 15.1476 13.5648 15.1255 13.5262 15.1255C13.4875 15.1255 13.4562 15.1476 13.4562 15.1748C13.4562 15.2021 13.4875 15.2242 13.5262 15.2242Z" fill="white" stroke="#DB161B" stroke-width="0.0170967"/>
<path d="M13.8062 15.1995C13.8448 15.1995 13.8762 15.1774 13.8762 15.1502C13.8762 15.1229 13.8448 15.1008 13.8062 15.1008C13.7675 15.1008 13.7362 15.1229 13.7362 15.1502C13.7362 15.1774 13.7675 15.1995 13.8062 15.1995Z" fill="white" stroke="#DB161B" stroke-width="0.0170967"/>
<path fill-rule="evenodd" clip-rule="evenodd" d="M12.3364 15.9355L13.8764 17.1711L12.3364 15.9355ZM12.4901 15.9355L13.8764 17.0334L12.4901 15.9355ZM12.6956 15.981L13.8764 16.8962L12.6956 15.981ZM12.8499 15.981L13.8764 16.759L12.8499 15.981ZM13.0036 15.981L13.8764 16.6219L13.0036 15.981ZM13.1574 15.981L13.8764 16.4847L13.1574 15.981ZM13.3116 15.981L13.8764 16.347L13.3116 15.981ZM13.4654 15.981L13.8764 16.2559L13.4654 15.981ZM13.6196 15.981L13.8764 16.1643L13.6196 15.981ZM13.7734 15.981L13.8764 16.0726L13.7734 15.981ZM12.3364 16.0726L13.8764 17.3083L12.3364 16.0726ZM13.8764 15.9355L12.1826 17.3083L13.8764 15.9355ZM13.7221 15.9355L12.2339 17.125L13.7221 15.9355ZM13.5171 15.981L12.3364 16.8962L13.5171 15.981ZM13.3629 15.981L12.3364 16.759L13.3629 15.981ZM13.2091 15.981L12.3364 16.6219L13.2091 15.981ZM13.0549 15.981L12.3364 16.4847L13.0549 15.981ZM12.9011 15.981L12.3364 16.347L12.9011 15.981ZM12.7469 15.981L12.3364 16.2559L12.7469 15.981ZM12.5931 15.981L12.3364 16.1643L12.5931 15.981ZM12.4389 15.981L12.3364 16.0726L12.4389 15.981ZM13.8764 16.0726L12.1826 17.4455L13.8764 16.0726ZM13.8764 16.2098L12.1826 17.5826L13.8764 16.2098ZM13.8764 16.347L12.1826 17.7203L13.8764 16.347ZM13.8764 16.4847L12.1826 17.8575L13.8764 16.4847ZM13.8764 16.6219L12.1826 17.9947L13.8764 16.6219ZM13.8764 16.759L12.1826 18.1319L13.8764 16.759ZM13.8764 16.8962L12.1826 18.269L13.8764 16.8962ZM13.8764 17.0339L12.1826 18.4067L13.8764 17.0339ZM13.8764 17.1711L12.2851 18.4523L13.8764 17.1711ZM13.8764 17.3083L12.4389 18.4523L13.8764 17.3083ZM13.8246 17.4915L12.6956 18.4067L13.8246 17.4915ZM13.7734 17.6743L12.8499 18.4067L13.7734 17.6743ZM13.6709 17.9031L13.2091 18.269L13.6709 17.9031ZM12.3364 16.2098L13.8246 17.3999L12.3364 16.2098ZM12.3364 16.347L13.8246 17.5371L12.3364 16.347ZM12.3364 16.4847L13.7734 17.6287L12.3364 16.4847ZM12.3364 16.6219L13.7734 17.7659L12.3364 16.6219ZM12.3364 16.759L13.7221 17.8575L12.3364 16.759ZM12.2851 16.8507L13.6709 17.9491L12.2851 16.8507ZM12.2851 16.9878L13.5684 17.9947L12.2851 16.9878ZM12.2339 17.0795L13.5171 18.0863L12.2339 17.0795ZM12.1826 17.1711L13.4141 18.1319L12.1826 17.1711ZM12.1826 17.3083L13.3629 18.2235L12.1826 17.3083ZM12.1826 17.4455L13.2091 18.269Z" fill="white"/>
<path d="M12.1826 17.4455L13.2091 18.269M12.3364 15.9355L13.8764 17.1711L12.3364 15.9355ZM12.4901 15.9355L13.8764 17.0334L12.4901 15.9355ZM12.6956 15.981L13.8764 16.8962L12.6956 15.981ZM12.8499 15.981L13.8764 16.759L12.8499 15.981ZM13.0036 15.981L13.8764 16.6219L13.0036 15.981ZM13.1574 15.981L13.8764 16.4847L13.1574 15.981ZM13.3116 15.981L13.8764 16.347L13.3116 15.981ZM13.4654 15.981L13.8764 16.2559L13.4654 15.981ZM13.6196 15.981L13.8764 16.1643L13.6196 15.981ZM13.7734 15.981L13.8764 16.0726L13.7734 15.981ZM12.3364 16.0726L13.8764 17.3083L12.3364 16.0726ZM13.8764 15.9355L12.1826 17.3083L13.8764 15.9355ZM13.7221 15.9355L12.2339 17.125L13.7221 15.9355ZM13.5171 15.981L12.3364 16.8962L13.5171 15.981ZM13.3629 15.981L12.3364 16.759L13.3629 15.981ZM13.2091 15.981L12.3364 16.6219L13.2091 15.981ZM13.0549 15.981L12.3364 16.4847L13.0549 15.981ZM12.9011 15.981L12.3364 16.347L12.9011 15.981ZM12.7469 15.981L12.3364 16.2559L12.7469 15.981ZM12.5931 15.981L12.3364 16.1643L12.5931 15.981ZM12.4389 15.981L12.3364 16.0726L12.4389 15.981ZM13.8764 16.0726L12.1826 17.4455L13.8764 16.0726ZM13.8764 16.2098L12.1826 17.5826L13.8764 16.2098ZM13.8764 16.347L12.1826 17.7203L13.8764 16.347ZM13.8764 16.4847L12.1826 17.8575L13.8764 16.4847ZM13.8764 16.6219L12.1826 17.9947L13.8764 16.6219ZM13.8764 16.759L12.1826 18.1319L13.8764 16.759ZM13.8764 16.8962L12.1826 18.269L13.8764 16.8962ZM13.8764 17.0339L12.1826 18.4067L13.8764 17.0339ZM13.8764 17.1711L12.2851 18.4523L13.8764 17.1711ZM13.8764 17.3083L12.4389 18.4523L13.8764 17.3083ZM13.8246 17.4915L12.6956 18.4067L13.8246 17.4915ZM13.7734 17.6743L12.8499 18.4067L13.7734 17.6743ZM13.6709 17.9031L13.2091 18.269L13.6709 17.9031ZM12.3364 16.2098L13.8246 17.3999L12.3364 16.2098ZM12.3364 16.347L13.8246 17.5371L12.3364 16.347ZM12.3364 16.4847L13.7734 17.6287L12.3364 16.4847ZM12.3364 16.6219L13.7734 17.7659L12.3364 16.6219ZM12.3364 16.759L13.7221 17.8575L12.3364 16.759ZM12.2851 16.8507L13.6709 17.9491L12.2851 16.8507ZM12.2851 16.9878L13.5684 17.9947L12.2851 16.9878ZM12.2339 17.0795L13.5171 18.0863L12.2339 17.0795ZM12.1826 17.1711L13.4141 18.1319L12.1826 17.1711ZM12.1826 17.3083L13.3629 18.2235L12.1826 17.3083Z" stroke="#DB161B" stroke-width="0.0182214"/>
<path fill-rule="evenodd" clip-rule="evenodd" d="M12.3364 15.7067V15.9355C12.8499 16.0116 13.3629 16.0116 13.8764 15.9355V15.7067C13.3629 15.7828 12.8499 15.7828 12.3364 15.7067ZM12.1826 17.5826L13.1061 18.3151L12.1826 17.5826ZM12.1826 17.7203L13.0036 18.3607L12.1826 17.7203ZM12.1826 17.8575L12.9011 18.4067L12.1826 17.8575ZM12.1826 17.9947L12.6956 18.4067L12.1826 17.9947ZM12.1826 18.1319L12.5931 18.4523L12.1826 18.1319ZM12.1826 18.2691L12.4389 18.4523Z" fill="white"/>
<path d="M12.1826 18.2691L12.4389 18.4523M12.3364 15.7067V15.9355C12.8499 16.0116 13.3629 16.0116 13.8764 15.9355V15.7067C13.3629 15.7828 12.8499 15.7828 12.3364 15.7067ZM12.1826 17.5826L13.1061 18.3151L12.1826 17.5826ZM12.1826 17.7203L13.0036 18.3607L12.1826 17.7203ZM12.1826 17.8575L12.9011 18.4067L12.1826 17.8575ZM12.1826 17.9947L12.6956 18.4067L12.1826 17.9947ZM12.1826 18.1319L12.5931 18.4523L12.1826 18.1319Z" stroke="#DB161B" stroke-width="0.0182214"/>
<path d="M12.4064 15.886C12.4451 15.886 12.4764 15.8639 12.4764 15.8367C12.4764 15.8094 12.4451 15.7873 12.4064 15.7873C12.3678 15.7873 12.3364 15.8094 12.3364 15.8367C12.3364 15.8639 12.3678 15.886 12.4064 15.886Z" fill="white" stroke="#DB161B" stroke-width="0.0170967"/>
<path d="M12.6863 15.9106C12.725 15.9106 12.7563 15.8885 12.7563 15.8613C12.7563 15.834 12.725 15.8119 12.6863 15.8119C12.6477 15.8119 12.6163 15.834 12.6163 15.8613C12.6163 15.8885 12.6477 15.9106 12.6863 15.9106Z" fill="white" stroke="#DB161B" stroke-width="0.0170967"/>
<path d="M12.9663 15.9354C13.005 15.9354 13.0363 15.9133 13.0363 15.886C13.0363 15.8587 13.005 15.8366 12.9663 15.8366C12.9277 15.8366 12.8964 15.8587 12.8964 15.886C12.8964 15.9133 12.9277 15.9354 12.9663 15.9354Z" fill="white" stroke="#DB161B" stroke-width="0.0170967"/>
<path d="M13.2463 15.9354C13.2849 15.9354 13.3162 15.9133 13.3162 15.886C13.3162 15.8587 13.2849 15.8366 13.2463 15.8366C13.2076 15.8366 13.1763 15.8587 13.1763 15.886C13.1763 15.9133 13.2076 15.9354 13.2463 15.9354Z" fill="white" stroke="#DB161B" stroke-width="0.0170967"/>
<path d="M13.5262 15.9106C13.5648 15.9106 13.5962 15.8885 13.5962 15.8613C13.5962 15.834 13.5648 15.8119 13.5262 15.8119C13.4875 15.8119 13.4562 15.834 13.4562 15.8613C13.4562 15.8885 13.4875 15.9106 13.5262 15.9106Z" fill="white" stroke="#DB161B" stroke-width="0.0170967"/>
<path d="M13.8062 15.886C13.8448 15.886 13.8762 15.8639 13.8762 15.8367C13.8762 15.8094 13.8448 15.7873 13.8062 15.7873C13.7675 15.7873 13.7362 15.8094 13.7362 15.8367C13.7362 15.8639 13.7675 15.886 13.8062 15.886Z" fill="white" stroke="#DB161B" stroke-width="0.0170967"/>
<path fill-rule="evenodd" clip-rule="evenodd" d="M10.1294 18.0863L11.9771 17.125L10.1294 18.0863ZM10.0267 18.0402L11.7716 17.125L10.0267 18.0402ZM9.97541 17.9491L11.5666 17.125L9.97541 17.9491ZM9.92406 17.8575L11.3099 17.125L9.92406 17.8575ZM9.82141 17.7659L11.1044 17.125L9.82141 17.7659ZM9.87276 17.6287L10.7451 17.1711L9.87276 17.6287ZM9.82141 17.5371L10.4887 17.1711L9.82141 17.5371ZM9.82141 17.3999L10.2834 17.1711L9.82141 17.3999ZM10.2834 18.1319L12.0284 17.2167L10.2834 18.1319ZM10.4373 18.1779L12.0796 17.3083L10.4373 18.1779ZM10.5914 18.2235L12.1309 17.3999L10.5914 18.2235ZM10.7451 18.269L12.0284 17.5826L10.7451 18.269ZM10.9506 18.269L12.0796 17.6743L10.9506 18.269ZM11.1044 18.3151L12.0796 17.8114L11.1044 18.3151ZM11.2586 18.3607L12.0284 17.9491L11.2586 18.3607ZM11.4636 18.3607L12.0796 18.0402L11.4636 18.3607ZM11.6691 18.4067L12.0796 18.1779L11.6691 18.4067ZM11.8746 18.4067L12.1309 18.269Z" fill="white"/>
<path d="M11.8746 18.4067L12.1309 18.269M10.1294 18.0863L11.9771 17.125L10.1294 18.0863ZM10.0267 18.0402L11.7716 17.125L10.0267 18.0402ZM9.97541 17.9491L11.5666 17.125L9.97541 17.9491ZM9.92406 17.8575L11.3099 17.125L9.92406 17.8575ZM9.82141 17.7659L11.1044 17.125L9.82141 17.7659ZM9.87276 17.6287L10.7451 17.1711L9.87276 17.6287ZM9.82141 17.5371L10.4887 17.1711L9.82141 17.5371ZM9.82141 17.3999L10.2834 17.1711L9.82141 17.3999ZM10.2834 18.1319L12.0284 17.2167L10.2834 18.1319ZM10.4373 18.1779L12.0796 17.3083L10.4373 18.1779ZM10.5914 18.2235L12.1309 17.3999L10.5914 18.2235ZM10.7451 18.269L12.0284 17.5826L10.7451 18.269ZM10.9506 18.269L12.0796 17.6743L10.9506 18.269ZM11.1044 18.3151L12.0796 17.8114L11.1044 18.3151ZM11.2586 18.3607L12.0284 17.9491L11.2586 18.3607ZM11.4636 18.3607L12.0796 18.0402L11.4636 18.3607ZM11.6691 18.4067L12.0796 18.1779L11.6691 18.4067Z" stroke="#DB161B" stroke-width="0.0182214"/>
<path fill-rule="evenodd" clip-rule="evenodd" d="M12.2338 17.0795H11.9771C11.8917 17.5331 11.8917 17.9987 11.9771 18.4523H12.2338C12.1479 17.9987 12.1479 17.533 12.2338 17.0795V17.0795ZM9.20544 17.7203L9.82135 17.2627L9.20544 17.7203ZM9.20544 17.3999L9.82135 17.9491Z" fill="white"/>
<path d="M9.20544 17.3999L9.82135 17.9491M12.2338 17.0795H11.9771C11.8917 17.5331 11.8917 17.9987 11.9771 18.4523H12.2338C12.1479 17.9987 12.1479 17.533 12.2338 17.0795V17.0795ZM9.20544 17.7203L9.82135 17.2627L9.20544 17.7203Z" stroke="#DB161B" stroke-width="0.0182214"/>
<path fill-rule="evenodd" clip-rule="evenodd" d="M10.1294 17.1711L9.82147 17.2167C9.75303 17.5066 9.75303 17.7504 9.82147 18.0403L10.1294 18.1319C10.061 17.842 10.061 17.461 10.1294 17.1711Z" fill="white" stroke="#DB161B" stroke-width="0.0129931"/>
<path fill-rule="evenodd" clip-rule="evenodd" d="M13.8744 14.8829V14.6522C13.644 14.6541 13.4898 14.5168 13.4898 14.3776L12.721 14.3795C12.721 14.5168 12.5673 14.6541 12.3364 14.6541V14.8829H13.8744Z" fill="white" stroke="#DB161B" stroke-width="0.0223109"/>
<path d="M12.7759 14.1049H13.4351V14.3794H12.7759V14.1049ZM12.8308 13.8303H13.3801V14.1049H12.8308V13.8303ZM12.8308 13.5558H13.3801V13.8303H12.8308V13.5558Z" fill="white" stroke="#DB161B" stroke-width="0.0188426"/>
<path d="M12.8856 13.1897H13.3251V13.5558H12.8856V13.1897Z" fill="white" stroke="#DB161B" stroke-width="0.0188426"/>
<path d="M12.8669 12.8694H13.3443V13.1897H12.8669V12.8694Z" fill="white" stroke="#DB161B" stroke-width="0.0196709"/>
<path d="M13.1319 13.0068C13.4835 13.0068 13.7684 12.8121 13.7684 12.572C13.7684 12.3319 13.4835 12.1373 13.1319 12.1373C12.7804 12.1373 12.4955 12.3319 12.4955 12.572C12.4955 12.8121 12.7804 13.0068 13.1319 13.0068Z" fill="white" stroke="#DB161B" stroke-width="0.0185342"/>
<path fill-rule="evenodd" clip-rule="evenodd" d="M13.4504 12.549C13.4504 12.6691 13.6093 12.8694 13.6093 12.8694C13.4939 12.9481 13.3075 13.0067 13.1321 13.0067C12.9566 13.0067 12.7376 12.974 12.6548 12.8694C12.6548 12.8694 12.8137 12.6691 12.8137 12.549C12.8137 12.429 12.6548 12.2745 12.6548 12.2745C12.7697 12.1958 12.9566 12.1372 13.1321 12.1372C13.3075 12.1372 13.4939 12.1958 13.6093 12.2745C13.6093 12.2745 13.4504 12.429 13.4504 12.549Z" fill="white" stroke="#DB161B" stroke-width="0.018532"/>
<path fill-rule="evenodd" clip-rule="evenodd" d="M13.3443 12.549C13.3443 12.6691 13.5032 12.9152 13.5032 12.9152C13.3883 12.9938 13.3075 13.0067 13.132 13.0067C12.9565 13.0067 12.8437 13.0198 12.7609 12.9152C12.7609 12.9152 12.9198 12.6691 12.9198 12.549C12.9198 12.429 12.7609 12.2287 12.7609 12.2287C12.8758 12.15 12.9565 12.1372 13.132 12.1372C13.3075 12.1372 13.3883 12.15 13.5032 12.2287C13.5032 12.2287 13.3443 12.429 13.3443 12.549Z" fill="white" stroke="#DB161B" stroke-width="0.018532"/>
<path d="M12.4955 12.7322C12.5834 12.7322 12.6547 12.6707 12.6547 12.5949C12.6547 12.519 12.5834 12.4576 12.4955 12.4576C12.4077 12.4576 12.3364 12.519 12.3364 12.5949C12.3364 12.6707 12.4077 12.7322 12.4955 12.7322Z" fill="white" stroke="#DB161B" stroke-width="0.0185342"/>
<path d="M13.7684 12.7322C13.8562 12.7322 13.9275 12.6707 13.9275 12.5949C13.9275 12.519 13.8562 12.4576 13.7684 12.4576C13.6805 12.4576 13.6093 12.519 13.6093 12.5949C13.6093 12.6707 13.6805 12.7322 13.7684 12.7322Z" fill="white" stroke="#DB161B" stroke-width="0.0185342"/>
<path d="M13.132 12.7322C13.2199 12.7322 13.2911 12.6707 13.2911 12.5949C13.2911 12.519 13.2199 12.4576 13.132 12.4576C13.0441 12.4576 12.9729 12.519 12.9729 12.5949C12.9729 12.6707 13.0441 12.7322 13.132 12.7322Z" fill="white" stroke="#DB161B" stroke-width="0.0185342"/>
<path d="M13.132 12.2746C13.2199 12.2746 13.2911 12.2131 13.2911 12.1373C13.2911 12.0615 13.2199 12 13.132 12C13.0441 12 12.9729 12.0615 12.9729 12.1373C12.9729 12.2131 13.0441 12.2746 13.132 12.2746Z" fill="white" stroke="#DB161B" stroke-width="0.0185342"/>
<path d="M12.6659 14.883C12.7569 14.883 12.8307 14.8215 12.8307 14.7457C12.8307 14.6698 12.7569 14.6084 12.6659 14.6084C12.5749 14.6084 12.5011 14.6698 12.5011 14.7457C12.5011 14.8215 12.5749 14.883 12.6659 14.883Z" fill="white" stroke="#DB161B" stroke-width="0.0188621"/>
<path d="M13.5448 14.883C13.6358 14.883 13.7096 14.8215 13.7096 14.7457C13.7096 14.6698 13.6358 14.6084 13.5448 14.6084C13.4538 14.6084 13.38 14.6698 13.38 14.7457C13.38 14.8215 13.4538 14.883 13.5448 14.883Z" fill="white" stroke="#DB161B" stroke-width="0.0188621"/>
<path fill-rule="evenodd" clip-rule="evenodd" d="M12.7211 14.3794H13.4898L13.1057 14.7913L12.7211 14.3794Z" fill="white" stroke="#DB161B" stroke-width="0.0188426"/>
<path d="M13.1053 14.883C13.2267 14.883 13.3251 14.801 13.3251 14.6999C13.3251 14.5988 13.2267 14.5169 13.1053 14.5169C12.984 14.5169 12.8856 14.5988 12.8856 14.6999C12.8856 14.801 12.984 14.883 13.1053 14.883Z" fill="white" stroke="#DB161B" stroke-width="0.0251493"/>
<path d="M13.3757 16.0732H12.3234C12.288 16.0732 12.2593 16.0949 12.2593 16.1217V16.2992C12.2593 16.326 12.288 16.3477 12.3234 16.3477H13.3757C13.4111 16.3477 13.4398 16.326 13.4398 16.2992V16.1217C13.4398 16.0949 13.4111 16.0732 13.3757 16.0732Z" fill="white" stroke="#DB161B" stroke-width="0.0170826"/>
<path fill-rule="evenodd" clip-rule="evenodd" d="M13.7993 15.8444C13.6569 15.8444 13.5425 15.951 13.5425 16.0835V16.2916C13.5425 16.4241 13.6569 16.5308 13.7993 16.5308C13.9416 16.5308 14.056 16.4241 14.056 16.2916V16.0835C14.056 15.951 13.9416 15.8444 13.7993 15.8444ZM13.7993 15.936C13.7139 15.936 13.645 16.0214 13.645 16.1275V16.2481C13.645 16.3542 13.7139 16.4391 13.7993 16.4391C13.8847 16.4391 13.953 16.3542 13.953 16.2481V16.1275C13.953 16.0214 13.8847 15.936 13.7993 15.936ZM12.4648 15.8904C12.3794 15.8904 12.311 15.9753 12.311 16.0814V16.2937C12.311 16.3998 12.3794 16.4852 12.4648 16.4852C12.5502 16.4852 12.6185 16.3998 12.6185 16.2937V16.0814C12.6185 15.9753 12.5502 15.8904 12.4648 15.8904ZM12.4648 15.7988C12.3224 15.7988 12.208 15.9054 12.208 16.038V16.3377C12.208 16.4702 12.3224 16.5768 12.4648 16.5768C12.6071 16.5768 12.7215 16.4702 12.7215 16.3377V16.038C12.7215 15.9054 12.6071 15.7988 12.4648 15.7988Z" fill="white" stroke="#DB161B" stroke-width="0.0170826"/>
<path fill-rule="evenodd" clip-rule="evenodd" d="M12.0542 15.9815C11.9688 15.9815 11.9 16.067 11.9 16.1731V16.2228C11.9 16.3289 11.9688 16.4143 12.0542 16.4143C12.1397 16.4143 12.208 16.3289 12.208 16.2228V16.1731C12.208 16.067 12.1397 15.9815 12.0542 15.9815ZM12.0542 15.8904C11.9119 15.8904 11.7975 15.9971 11.7975 16.1296V16.2668C11.7975 16.3993 11.9119 16.5059 12.0542 16.5059C12.1961 16.5059 12.311 16.3993 12.311 16.2668V16.1296C12.311 15.9971 12.1961 15.8904 12.0542 15.8904Z" fill="white" stroke="#DB161B" stroke-width="0.0170826"/>
<path fill-rule="evenodd" clip-rule="evenodd" d="M11.4382 15.8552C11.2844 15.8552 11.1612 15.9505 11.1612 16.069V16.3061C11.1612 16.4247 11.2844 16.5199 11.4382 16.5199C11.5919 16.5199 11.7151 16.4247 11.7151 16.3061V16.069C11.7151 15.9505 11.5919 15.8552 11.4382 15.8552ZM11.4382 15.7527C11.1825 15.7527 10.9764 15.8723 10.9764 16.0204V16.3553C10.9764 16.5033 11.1825 16.6224 11.4382 16.6224C11.6939 16.6224 11.8999 16.5033 11.8999 16.3553V16.0204C11.8999 15.8723 11.6939 15.7527 11.4382 15.7527ZM14.7745 15.9008C14.6207 15.9008 14.497 15.9966 14.497 16.1151V16.3522C14.497 16.4707 14.6207 16.566 14.7745 16.566C14.9277 16.566 15.0514 16.4707 15.0514 16.3522V16.1151C15.0514 15.9966 14.9277 15.9008 14.7745 15.9008ZM14.7745 15.7988C14.5182 15.7988 14.3122 15.9179 14.3122 16.0659V16.4008C14.3122 16.5489 14.5182 16.668 14.7745 16.668C15.0302 16.668 15.2362 16.5489 15.2362 16.4008V16.0659C15.2362 15.9179 15.0302 15.7988 14.7745 15.7988Z" fill="white" stroke="#DB161B" stroke-width="0.0170826"/>
<path d="M14.4842 16.0732H13.9352C13.9167 16.0732 13.9017 16.0949 13.9017 16.1217V16.2992C13.9017 16.326 13.9167 16.3477 13.9352 16.3477H14.4842C14.5027 16.3477 14.5176 16.326 14.5176 16.2992V16.1217C14.5176 16.0949 14.5027 16.0732 14.4842 16.0732Z" fill="white" stroke="#DB161B" stroke-width="0.0170826"/>
<path d="M13.6773 16.0276H13.357C13.3463 16.0276 13.3375 16.0566 13.3375 16.0923V16.3289C13.3375 16.3647 13.3463 16.3937 13.357 16.3937H13.6773C13.6881 16.3937 13.6968 16.3647 13.6968 16.3289V16.0923C13.6968 16.0566 13.6881 16.0276 13.6773 16.0276Z" fill="white" stroke="#DB161B" stroke-width="0.0170826"/>
<path d="M11.9836 16.0276H11.6633C11.6525 16.0276 11.6438 16.0566 11.6438 16.0923V16.3289C11.6438 16.3647 11.6525 16.3937 11.6633 16.3937H11.9836C11.9944 16.3937 12.0031 16.3647 12.0031 16.3289V16.0923C12.0031 16.0566 11.9944 16.0276 11.9836 16.0276Z" fill="white" stroke="#DB161B" stroke-width="0.0170826"/>
<path d="M11.1939 15.9815H10.5533C10.5317 15.9815 10.5143 16.0177 10.5143 16.0624V16.3582C10.5143 16.4029 10.5317 16.4391 10.5533 16.4391H11.1939C11.2154 16.4391 11.2328 16.4029 11.2328 16.3582V16.0624C11.2328 16.0177 11.2154 15.9815 11.1939 15.9815Z" fill="white" stroke="#DB161B" stroke-width="0.0170826"/>
<path d="M15.6105 16.0276H15.0157C14.9957 16.0276 14.9795 16.0638 14.9795 16.1085V16.4043C14.9795 16.449 14.9957 16.4852 15.0157 16.4852H15.6105C15.6305 16.4852 15.6467 16.449 15.6467 16.4043V16.1085C15.6467 16.0638 15.6305 16.0276 15.6105 16.0276Z" fill="white" stroke="#DB161B" stroke-width="0.0170826"/>
</g>
</svg>
