<svg width="54" height="48" viewBox="0 0 54 48" fill="none" xmlns="http://www.w3.org/2000/svg">
<mask id="mask0_1_30800" style="mask-type:alpha" maskUnits="userSpaceOnUse" x="3" y="6" width="48" height="36">
<path d="M3.56934 15.1356C4.16681 10.4125 8.0415 7.00193 12.7861 6.60887C16.6412 6.28949 21.6196 6 27 6C32.3804 6 37.3588 6.28949 41.2139 6.60887C45.9585 7.00193 49.8332 10.4125 50.4307 15.1356C50.752 17.6759 51 20.704 51 24C51 27.296 50.752 30.3241 50.4307 32.8644C49.8332 37.5875 45.9585 40.9981 41.2139 41.3911C37.3588 41.7105 32.3804 42 27 42C21.6196 42 16.6412 41.7105 12.7861 41.3911C8.0415 40.9981 4.16681 37.5875 3.56934 32.8644C3.248 30.3241 3 27.296 3 24C3 20.704 3.248 17.6759 3.56934 15.1356Z" fill="#00D0BF"/>
</mask>
<g mask="url(#mask0_1_30800)">
<rect x="3" y="30" width="48" height="12" fill="#59C785"/>
<rect x="1" y="18" width="52" height="12" fill="#EE5757"/>
<rect x="3" y="6" width="48" height="12" fill="#F5F5F5"/>
<rect x="3" y="6" width="18" height="36" fill="#EE5757"/>
<path d="M10.5788 12.7067H8.90996C8.81804 12.7067 8.74353 12.7765 8.74353 12.8627V13.6489C8.74353 13.7351 8.81804 13.805 8.90996 13.805H10.5788C10.6707 13.805 10.7452 13.7351 10.7452 13.6489V12.8627C10.7452 12.7765 10.6707 12.7067 10.5788 12.7067Z" fill="white" stroke="#DB161B" stroke-width="0.0195673"/>
<path d="M10.5361 12.7522H8.95281C8.86561 12.7522 8.79492 12.8163 8.79492 12.8953V13.6159C8.79492 13.6949 8.86561 13.759 8.95281 13.759H10.5361C10.6233 13.759 10.694 13.6949 10.694 13.6159V12.8953C10.694 12.8163 10.6233 12.7522 10.5361 12.7522Z" fill="white" stroke="#DB161B" stroke-width="0.0182214"/>
<path fill-rule="evenodd" clip-rule="evenodd" d="M9.67784 13.0272L9.77376 13.0303L9.77811 13.0737L9.85659 13.1136L9.91767 13.0639L9.99175 13.1038L9.92202 13.1473L9.93947 13.2073L10.0266 13.2042V13.2844L9.95691 13.2808L9.92202 13.331L10.0005 13.388L9.93947 13.4346L9.87403 13.3843L9.77811 13.4045L9.78246 13.478L9.67784 13.4848L9.66475 13.4144L9.57757 13.3776L9.52959 13.4278L9.45546 13.3911L9.4991 13.3341L9.44676 13.2974H9.37263L9.36829 13.1938L9.44241 13.2006L9.4947 13.1405L9.43367 13.0939L9.51214 13.0401L9.56882 13.0836L9.66475 13.0706L9.67784 13.0272Z" fill="white" stroke="#DB161B" stroke-width="0.0114919"/>
<path d="M9.70691 13.334C9.76508 13.334 9.81225 13.2936 9.81225 13.2438C9.81225 13.194 9.76508 13.1537 9.70691 13.1537C9.64873 13.1537 9.60156 13.194 9.60156 13.2438C9.60156 13.2936 9.64873 13.334 9.70691 13.334Z" fill="white" stroke="#DB161B" stroke-width="0.0123953"/>
<path fill-rule="evenodd" clip-rule="evenodd" d="M9.05141 12.7983L8.89746 12.9355L9.05141 12.7983ZM9.15406 12.7983L9.00011 12.9355L9.15406 12.7983ZM9.25671 12.7983L9.10276 12.9355L9.25671 12.7983ZM9.35936 12.7983L9.20541 12.9355L9.35936 12.7983ZM9.46201 12.7983L9.30806 12.9355L9.46201 12.7983ZM9.56467 12.7983L9.41071 12.9355L9.56467 12.7983ZM9.66737 12.7983L9.51337 12.9355L9.66737 12.7983ZM9.77002 12.7983L9.61602 12.9355L9.77002 12.7983ZM9.87267 12.7983L9.71867 12.9355L9.87267 12.7983ZM9.97532 12.7983L9.82132 12.9355L9.97532 12.7983ZM10.078 12.7983L9.92397 12.9355L10.078 12.7983ZM10.1806 12.7983L10.0266 12.9355L10.1806 12.7983ZM9.77002 12.7983L9.61602 12.9355L9.77002 12.7983ZM10.2833 12.7983L10.1293 12.9355L10.2833 12.7983ZM10.3859 12.7983L10.2319 12.9355L10.3859 12.7983ZM10.4886 12.7983L10.3346 12.9355L10.4886 12.7983ZM10.5913 12.7983L10.4372 12.9355L10.5913 12.7983ZM10.4372 12.7983L10.5913 12.9355L10.4372 12.7983ZM10.3346 12.7983L10.4886 12.9355L10.3346 12.7983ZM10.2319 12.7983L10.3859 12.9355L10.2319 12.7983ZM10.1293 12.7983L10.2833 12.9355L10.1293 12.7983ZM10.0266 12.7983L10.1806 12.9355L10.0266 12.7983ZM9.92397 12.7983L10.078 12.9355L9.92397 12.7983ZM9.82132 12.7983L9.97532 12.9355L9.82132 12.7983ZM9.71867 12.7983L9.87267 12.9355L9.71867 12.7983ZM9.61602 12.7983L9.77002 12.9355L9.61602 12.7983ZM9.51337 12.7983L9.66737 12.9355L9.51337 12.7983ZM9.41071 12.7983L9.56472 12.9355L9.41071 12.7983ZM9.30806 12.7983L9.46201 12.9355L9.30806 12.7983ZM9.71867 12.7983L9.87267 12.9355L9.71867 12.7983ZM9.20541 12.7983L9.35936 12.9355L9.20541 12.7983ZM9.10276 12.7983L9.25671 12.9355L9.10276 12.7983ZM9.00011 12.7983L9.15406 12.9355L9.00011 12.7983ZM8.89746 12.7983L9.05141 12.9355L8.89746 12.7983ZM9.05141 13.5758L8.89746 13.7135L9.05141 13.5758ZM9.15406 13.5758L9.00011 13.7135L9.15406 13.5758ZM9.25671 13.5758L9.10276 13.7135L9.25671 13.5758ZM9.35936 13.5758L9.20541 13.7135L9.35936 13.5758ZM9.46201 13.5758L9.30806 13.7135L9.46201 13.5758ZM9.56467 13.5758L9.41071 13.7135L9.56467 13.5758ZM9.66737 13.5758L9.51337 13.7135L9.66737 13.5758ZM9.77002 13.5758L9.61602 13.7135L9.77002 13.5758ZM9.87267 13.5758L9.71867 13.7135L9.87267 13.5758ZM9.97532 13.5758L9.82132 13.7135L9.97532 13.5758ZM10.078 13.5758L9.92397 13.7135L10.078 13.5758ZM10.1806 13.5758L10.0266 13.7135L10.1806 13.5758ZM9.77002 13.5758L9.61602 13.7135L9.77002 13.5758ZM10.2833 13.5758L10.1293 13.7135L10.2833 13.5758ZM10.3859 13.5758L10.2319 13.7135L10.3859 13.5758ZM10.4886 13.5758L10.3346 13.7135L10.4886 13.5758ZM10.5913 13.5758L10.4372 13.7135L10.5913 13.5758ZM10.4372 13.5758L10.5913 13.7135L10.4372 13.5758ZM10.3346 13.5758L10.4886 13.7135L10.3346 13.5758ZM10.2319 13.5758L10.3859 13.7135L10.2319 13.5758ZM10.1293 13.5758L10.2833 13.7135L10.1293 13.5758ZM10.0266 13.5758L10.1806 13.7135L10.0266 13.5758ZM9.92397 13.5758L10.078 13.7135L9.92397 13.5758ZM9.82132 13.5758L9.97532 13.7135L9.82132 13.5758ZM9.71867 13.5758L9.87267 13.7135L9.71867 13.5758ZM9.61602 13.5758L9.77002 13.7135L9.61602 13.5758ZM9.51337 13.5758L9.66737 13.7135L9.51337 13.5758ZM9.41071 13.5758L9.56472 13.7135L9.41071 13.5758ZM9.30806 13.5758L9.46201 13.7135L9.30806 13.5758ZM9.71867 13.5758L9.87267 13.7135L9.71867 13.5758ZM9.20541 13.5758L9.35936 13.7135L9.20541 13.5758ZM9.10276 13.5758L9.25671 13.7135L9.10276 13.5758ZM9.00011 13.5758L9.15406 13.7135L9.00011 13.5758ZM8.89746 13.5758L9.05141 13.7135L8.89746 13.5758Z" fill="white"/>
<path d="M8.89746 13.5758L9.05141 13.7135M9.05141 12.7983L8.89746 12.9355L9.05141 12.7983ZM9.15406 12.7983L9.00011 12.9355L9.15406 12.7983ZM9.25671 12.7983L9.10276 12.9355L9.25671 12.7983ZM9.35936 12.7983L9.20541 12.9355L9.35936 12.7983ZM9.46201 12.7983L9.30806 12.9355L9.46201 12.7983ZM9.56467 12.7983L9.41072 12.9355L9.56467 12.7983ZM9.66737 12.7983L9.51337 12.9355L9.66737 12.7983ZM9.77002 12.7983L9.61602 12.9355L9.77002 12.7983ZM9.87267 12.7983L9.71867 12.9355L9.87267 12.7983ZM9.97532 12.7983L9.82132 12.9355L9.97532 12.7983ZM10.078 12.7983L9.92397 12.9355L10.078 12.7983ZM10.1806 12.7983L10.0266 12.9355L10.1806 12.7983ZM9.77002 12.7983L9.61602 12.9355L9.77002 12.7983ZM10.2833 12.7983L10.1293 12.9355L10.2833 12.7983ZM10.3859 12.7983L10.2319 12.9355L10.3859 12.7983ZM10.4886 12.7983L10.3346 12.9355L10.4886 12.7983ZM10.5913 12.7983L10.4372 12.9355L10.5913 12.7983ZM10.4372 12.7983L10.5913 12.9355L10.4372 12.7983ZM10.3346 12.7983L10.4886 12.9355L10.3346 12.7983ZM10.2319 12.7983L10.3859 12.9355L10.2319 12.7983ZM10.1293 12.7983L10.2833 12.9355L10.1293 12.7983ZM10.0266 12.7983L10.1806 12.9355L10.0266 12.7983ZM9.92397 12.7983L10.078 12.9355L9.92397 12.7983ZM9.82132 12.7983L9.97532 12.9355L9.82132 12.7983ZM9.71867 12.7983L9.87267 12.9355L9.71867 12.7983ZM9.61602 12.7983L9.77002 12.9355L9.61602 12.7983ZM9.51337 12.7983L9.66737 12.9355L9.51337 12.7983ZM9.41072 12.7983L9.56472 12.9355L9.41072 12.7983ZM9.30806 12.7983L9.46201 12.9355L9.30806 12.7983ZM9.71867 12.7983L9.87267 12.9355L9.71867 12.7983ZM9.20541 12.7983L9.35936 12.9355L9.20541 12.7983ZM9.10276 12.7983L9.25671 12.9355L9.10276 12.7983ZM9.00011 12.7983L9.15406 12.9355L9.00011 12.7983ZM8.89746 12.7983L9.05141 12.9355L8.89746 12.7983ZM9.05141 13.5758L8.89746 13.7135L9.05141 13.5758ZM9.15406 13.5758L9.00011 13.7135L9.15406 13.5758ZM9.25671 13.5758L9.10276 13.7135L9.25671 13.5758ZM9.35936 13.5758L9.20541 13.7135L9.35936 13.5758ZM9.46201 13.5758L9.30806 13.7135L9.46201 13.5758ZM9.56467 13.5758L9.41072 13.7135L9.56467 13.5758ZM9.66737 13.5758L9.51337 13.7135L9.66737 13.5758ZM9.77002 13.5758L9.61602 13.7135L9.77002 13.5758ZM9.87267 13.5758L9.71867 13.7135L9.87267 13.5758ZM9.97532 13.5758L9.82132 13.7135L9.97532 13.5758ZM10.078 13.5758L9.92397 13.7135L10.078 13.5758ZM10.1806 13.5758L10.0266 13.7135L10.1806 13.5758ZM9.77002 13.5758L9.61602 13.7135L9.77002 13.5758ZM10.2833 13.5758L10.1293 13.7135L10.2833 13.5758ZM10.3859 13.5758L10.2319 13.7135L10.3859 13.5758ZM10.4886 13.5758L10.3346 13.7135L10.4886 13.5758ZM10.5913 13.5758L10.4372 13.7135L10.5913 13.5758ZM10.4372 13.5758L10.5913 13.7135L10.4372 13.5758ZM10.3346 13.5758L10.4886 13.7135L10.3346 13.5758ZM10.2319 13.5758L10.3859 13.7135L10.2319 13.5758ZM10.1293 13.5758L10.2833 13.7135L10.1293 13.5758ZM10.0266 13.5758L10.1806 13.7135L10.0266 13.5758ZM9.92397 13.5758L10.078 13.7135L9.92397 13.5758ZM9.82132 13.5758L9.97532 13.7135L9.82132 13.5758ZM9.71867 13.5758L9.87267 13.7135L9.71867 13.5758ZM9.61602 13.5758L9.77002 13.7135L9.61602 13.5758ZM9.51337 13.5758L9.66737 13.7135L9.51337 13.5758ZM9.41072 13.5758L9.56472 13.7135L9.41072 13.5758ZM9.30806 13.5758L9.46201 13.7135L9.30806 13.5758ZM9.71867 13.5758L9.87267 13.7135L9.71867 13.5758ZM9.20541 13.5758L9.35936 13.7135L9.20541 13.5758ZM9.10276 13.5758L9.25671 13.7135L9.10276 13.5758ZM9.00011 13.5758L9.15406 13.7135L9.00011 13.5758Z" stroke="#DB161B" stroke-width="0.0182214"/>
<path fill-rule="evenodd" clip-rule="evenodd" d="M11.8834 15.0092C9.3928 17.4448 8.33037 17.7528 8.82897 17.949C9.32758 18.1452 10.9315 16.8883 12.6004 15.2183C14.2693 13.5489 15.2912 12.0629 14.7927 11.8667C14.2942 11.6704 14.5323 12.4186 11.8834 15.0092Z" fill="white" stroke="#DB161B" stroke-width="0.0292475"/>
<path fill-rule="evenodd" clip-rule="evenodd" d="M9.78681 16.779L10.6592 17.0078C9.83811 17.7859 8.91425 18.1063 8.65765 17.9691C8.401 17.8319 9.11955 17.5115 9.78681 16.779Z" fill="white" stroke="#DB161B" stroke-width="0.0170826"/>
<path fill-rule="evenodd" clip-rule="evenodd" d="M9.78677 16.8706L10.5053 17.0539C9.70539 17.8019 8.91421 18.0147 8.70948 17.9235C8.50361 17.8319 9.1368 17.5746 9.78677 16.8706Z" fill="white" stroke="#DB161B" stroke-width="0.0170826"/>
<path d="M9.85071 17.0337V17.042C9.85071 17.0203 9.85014 17.0312 9.85977 17.0741C9.87685 17.0933 9.91692 17.0984 9.9503 17.0902C9.9796 17.0689 9.97867 17.0524 10.0318 17.042C10.0831 17.0451 10.1027 17.0586 10.1314 17.0741C10.1654 17.0891 10.1812 17.0969 10.2038 17.1305C10.215 17.158 10.2213 17.1766 10.1857 17.187C10.1574 17.2051 10.1237 17.2149 10.0861 17.2196C10.0443 17.2196 10.0141 17.2149 9.99555 17.2356C9.96682 17.262 9.96842 17.2781 9.96842 17.3241C9.95874 17.3386 9.95683 17.3811 9.9503 17.3971C9.92515 17.4075 9.91039 17.4132 9.86883 17.4132C9.85904 17.3883 9.84822 17.3433 9.84165 17.3164C9.83456 17.2874 9.83238 17.247 9.81447 17.2273C9.79698 17.2048 9.7755 17.1857 9.75111 17.1709C9.74003 17.1569 9.71891 17.1456 9.69681 17.1388C9.73232 17.1549 9.73739 17.1725 9.74205 17.2113C9.71084 17.2253 9.7025 17.2351 9.65151 17.2356C9.60141 17.232 9.58929 17.2206 9.57004 17.1952C9.56657 17.2356 9.55202 17.2491 9.54291 17.2843C9.52428 17.3086 9.51636 17.3335 9.49762 17.3645C9.50559 17.4039 9.52277 17.4054 9.52479 17.4536C9.53654 17.4851 9.53525 17.5152 9.56098 17.5343C9.57247 17.5467 9.58106 17.5493 9.60627 17.5504C9.55383 17.5504 9.52329 17.5452 9.48856 17.526C9.46169 17.5115 9.4414 17.4929 9.41614 17.4779C9.38409 17.4572 9.34449 17.438 9.30748 17.4292C9.26566 17.4292 9.23553 17.4251 9.21694 17.4453C9.19132 17.4618 9.17408 17.4898 9.16264 17.526C9.15426 17.568 9.15105 17.5959 9.1717 17.6228C9.18702 17.6544 9.19049 17.6663 9.1717 17.7036C9.15063 17.73 9.11931 17.7331 9.0721 17.744C9.04135 17.7427 9.0109 17.7373 8.98157 17.7279M12.4673 14.9026C12.4653 14.9145 12.4596 14.9667 12.4544 14.9875C12.4544 15.0164 12.4513 15.0382 12.4482 15.061C12.4399 15.0806 12.4415 15.0987 12.4161 15.106C12.399 15.1298 12.3881 15.136 12.3654 15.1459C12.3498 15.1578 12.326 15.1697 12.3012 15.1795C12.2758 15.1893 12.2525 15.1904 12.2251 15.1852C12.2023 15.1712 12.1863 15.1572 12.1676 15.1459C12.163 15.1277 12.1593 15.1013 12.1547 15.0837C12.1614 15.1019 12.1666 15.1308 12.1676 15.1567C12.165 15.1852 12.1547 15.1976 12.1423 15.2188L12.4673 14.9026ZM12.2313 15.281C12.2292 15.2794 12.2272 15.2773 12.2251 15.2753C12.2401 15.2887 12.2339 15.2825 12.1992 15.2644C12.1749 15.253 12.1485 15.2468 12.1164 15.2416H12.0273C11.9927 15.2416 11.9694 15.2463 11.9445 15.253C11.9264 15.2691 11.8995 15.2779 11.8808 15.2924C11.8612 15.3043 11.8529 15.3182 11.8425 15.3374C11.8249 15.3529 11.8135 15.3767 11.7975 15.3886C11.7908 15.4145 11.7758 15.4135 11.7659 15.4337C11.7959 15.4357 11.8203 15.4394 11.8358 15.4559C11.8627 15.4684 11.8135 15.444 11.8042 15.4337C11.783 15.428 11.7778 15.4223 11.7468 15.4223C11.7178 15.414 11.7002 15.429 11.6702 15.4337C11.6531 15.4425 11.6479 15.4451 11.6256 15.4451L12.2313 15.281ZM11.8871 15.5636C11.8741 15.5641 11.8146 15.574 11.7913 15.5636C11.7654 15.5574 11.7499 15.545 11.7338 15.5237C11.7261 15.5087 11.7338 15.5512 11.7338 15.5693C11.7312 15.6024 11.7199 15.6029 11.7023 15.6257C11.6836 15.6361 11.6639 15.6511 11.6448 15.6594C11.6287 15.6718 11.6091 15.6801 11.5873 15.6878C11.5682 15.6956 11.5454 15.7039 11.5299 15.7158C11.5087 15.7293 11.5107 15.7458 11.4983 15.7665C11.5004 15.7945 11.5055 15.81 11.5237 15.8235C11.5309 15.8421 11.548 15.8613 11.562 15.8742C11.5775 15.9001 11.5951 15.912 11.5552 15.9192C11.5335 15.9275 11.5216 15.9208 11.4983 15.9192L11.8871 15.5636ZM11.4854 15.9586C11.4698 15.9555 11.4139 15.9389 11.3896 15.9306H11.3006C11.2659 15.9327 11.2591 15.942 11.2302 15.9529C11.2115 15.97 11.1986 15.9819 11.1727 15.9927C11.1592 16.0083 11.1323 16.0347 11.122 16.0549C11.1142 16.074 11.109 16.0999 11.109 16.1284C11.1095 16.161 11.1194 16.1667 11.122 16.1962C11.1292 16.22 11.1406 16.2422 11.1603 16.2635C11.1629 16.2707 11.1649 16.2728 11.1727 16.2749L11.4854 15.9586ZM11.1815 16.3489C11.1789 16.3489 11.1727 16.3634 11.1634 16.3758C11.1432 16.3965 11.1406 16.3981 11.109 16.3981C11.0811 16.397 11.0837 16.3872 11.064 16.3799C11.0547 16.366 11.0428 16.3546 11.0324 16.3354C11.0252 16.324 11.0184 16.3059 11.0096 16.2956C11.0013 16.2821 10.991 16.2723 10.9822 16.2598C10.9739 16.2562 10.9708 16.2526 10.9599 16.251C10.9858 16.2552 10.9879 16.264 11.005 16.2774C11.0127 16.2904 11.021 16.3033 11.0278 16.3178C11.0303 16.337 11.0366 16.352 11.0366 16.3758C11.0366 16.4001 11.0366 16.4177 11.0278 16.4379C11.0169 16.4493 11.0091 16.4607 10.9962 16.4695C10.9853 16.4793 10.9724 16.4928 10.9641 16.5047C10.9501 16.5135 10.9397 16.5207 10.9237 16.5316C10.9097 16.5394 10.8952 16.5477 10.874 16.5497C10.8471 16.5477 10.8393 16.5404 10.8197 16.5316C10.8026 16.5192 10.7891 16.5114 10.7741 16.5006C10.7622 16.4923 10.7503 16.4762 10.7425 16.4648C10.7182 16.4586 10.7027 16.4612 10.6882 16.4736C10.6757 16.4819 10.6649 16.4928 10.6566 16.5047C10.6488 16.5083 10.6369 16.5192 10.6292 16.5228L11.1815 16.3489ZM10.683 16.5332C10.6902 16.5363 10.7161 16.5544 10.728 16.5611C10.7353 16.5844 10.7467 16.5974 10.7503 16.6222C10.7565 16.6465 10.756 16.6729 10.756 16.7004C10.7498 16.7288 10.7379 16.7495 10.728 16.7723C10.7099 16.7847 10.7011 16.793 10.6773 16.806C10.655 16.8091 10.6328 16.8117 10.6043 16.8117C10.5867 16.8174 10.5536 16.8199 10.5365 16.8117C10.5116 16.808 10.4929 16.7982 10.4747 16.7894C10.4539 16.7775 10.4411 16.7666 10.4184 16.7558C10.4073 16.7397 10.3902 16.7252 10.3734 16.7055C10.3594 16.6869 10.3491 16.6766 10.3396 16.6559C10.3479 16.6797 10.3605 16.7004 10.3677 16.7226C10.3805 16.7459 10.388 16.7547 10.3903 16.7837C10.3981 16.807 10.3959 16.835 10.3959 16.8614C10.3934 16.8795 10.3921 16.9136 10.3846 16.9281V16.9452L10.683 16.5332Z" stroke="#DB161B" stroke-width="0.0170826"/>
<path fill-rule="evenodd" clip-rule="evenodd" d="M14.7254 12.8111C15.8306 10.9032 16.5641 9.27959 16.3622 9.18683C16.1608 9.09411 15.1007 10.5671 13.9955 12.4749L14.7254 12.8111Z" fill="white" stroke="#DB161B" stroke-width="0.0231391"/>
<path fill-rule="evenodd" clip-rule="evenodd" d="M14.6524 12.7775C15.7182 10.9369 16.4528 9.38303 16.2918 9.30885C16.1308 9.23467 15.1348 10.6681 14.0685 12.5085" fill="white"/>
<path d="M14.6524 12.7775C15.7182 10.9369 16.4528 9.38303 16.2918 9.30885C16.1308 9.23467 15.1348 10.6681 14.0685 12.5085" stroke="#DB161B" stroke-width="0.0203438"/>
<path fill-rule="evenodd" clip-rule="evenodd" d="M14.4691 11.8173C14.3392 12.0324 14.202 12.2784 14.0685 12.5084L14.6524 12.7775C14.7854 12.5472 14.9309 12.3048 15.0525 12.0861L14.4691 11.8173Z" fill="white" stroke="#DB161B" stroke-width="0.0230874"/>
<path fill-rule="evenodd" clip-rule="evenodd" d="M14.5183 11.8915C14.3889 12.1067 14.2983 12.2714 14.1653 12.5014L14.6027 12.703C14.7363 12.473 14.8346 12.3119 14.9563 12.0932L14.5183 11.8915Z" fill="white" stroke="#DB161B" stroke-width="0.0230874"/>
<path d="M14.8358 12.1407L14.544 12.0064L14.2849 12.4536L14.5767 12.588L14.8358 12.1407Z" fill="white" stroke="#DB161B" stroke-width="0.0231391"/>
<path fill-rule="evenodd" clip-rule="evenodd" d="M14.8361 12.1409L14.2853 12.4537L14.8361 12.1409ZM14.5767 12.588L14.5441 12.0065L14.5767 12.588ZM16.155 9.86399L15.8631 9.72955L16.155 9.86399Z" fill="white"/>
<path d="M16.155 9.86399L15.8631 9.72955M14.8361 12.1409L14.2853 12.4537L14.8361 12.1409ZM14.5767 12.588L14.5441 12.0065L14.5767 12.588Z" stroke="#DB161B" stroke-width="0.0230874"/>
<path d="M16.1554 9.65309C16.1099 9.66456 16.0647 9.64151 16.0545 9.60161C16.0442 9.56172 16.0727 9.52008 16.1182 9.50862C16.1637 9.49715 16.2089 9.5202 16.2191 9.56009C16.2294 9.59999 16.2009 9.64162 16.1554 9.65309Z" fill="#DB161B" stroke="#DB161B" stroke-width="0.0299447"/>
<path fill-rule="evenodd" clip-rule="evenodd" d="M13.1166 15.0092C15.6072 17.4448 16.6696 17.7528 16.171 17.949C15.6724 18.1452 14.0685 16.8883 12.3996 15.2183C10.7307 13.5489 9.70884 12.0629 10.2073 11.8667C10.7058 11.6704 10.4677 12.4186 13.1166 15.0092Z" fill="white" stroke="#DB161B" stroke-width="0.0292475"/>
<path fill-rule="evenodd" clip-rule="evenodd" d="M15.2132 16.779L14.3408 17.0078C15.1619 17.7859 16.0857 18.1063 16.3423 17.9691C16.599 17.8319 15.8804 17.5115 15.2132 16.779Z" fill="white" stroke="#DB161B" stroke-width="0.0170826"/>
<path fill-rule="evenodd" clip-rule="evenodd" d="M15.2132 16.8706L14.4947 17.0539C15.2946 17.8019 16.0858 18.0147 16.2905 17.9235C16.4964 17.8319 15.8632 17.5746 15.2132 16.8706Z" fill="white" stroke="#DB161B" stroke-width="0.0170826"/>
<path d="M15.1493 17.0337V17.042C15.1493 17.0203 15.1499 17.0312 15.1402 17.0741C15.1232 17.0933 15.0831 17.0984 15.0497 17.0902C15.0204 17.0689 15.0213 17.0524 14.9682 17.042C14.9169 17.0451 14.8973 17.0586 14.8686 17.0741C14.8346 17.0891 14.8188 17.0969 14.7962 17.1305C14.785 17.158 14.7787 17.1766 14.8143 17.187C14.8426 17.2051 14.8763 17.2149 14.9139 17.2196C14.9557 17.2196 14.9859 17.2149 15.0045 17.2356C15.0332 17.262 15.0316 17.2781 15.0316 17.3241C15.0413 17.3386 15.0432 17.3811 15.0497 17.3971C15.0749 17.4075 15.0896 17.4132 15.1312 17.4132C15.141 17.3883 15.1518 17.3433 15.1584 17.3164C15.1654 17.2874 15.1676 17.247 15.1855 17.2273C15.203 17.2048 15.2245 17.1857 15.2489 17.1709C15.26 17.1569 15.2811 17.1456 15.3032 17.1388C15.2677 17.1549 15.2626 17.1725 15.2579 17.2113C15.2892 17.2253 15.2975 17.2351 15.3485 17.2356C15.3986 17.232 15.4107 17.2206 15.43 17.1952C15.4334 17.2356 15.448 17.2491 15.4571 17.2843C15.4757 17.3086 15.4836 17.3335 15.5024 17.3645C15.4944 17.4039 15.4772 17.4054 15.4752 17.4536C15.4635 17.4851 15.4648 17.5152 15.439 17.5343C15.4275 17.5467 15.4189 17.5493 15.3937 17.5504C15.4462 17.5504 15.4767 17.5452 15.5114 17.526C15.5383 17.5115 15.5586 17.4929 15.5839 17.4779C15.6159 17.4572 15.6555 17.438 15.6925 17.4292C15.7343 17.4292 15.7645 17.4251 15.7831 17.4453C15.8087 17.4618 15.8259 17.4898 15.8374 17.526C15.8457 17.568 15.849 17.5959 15.8283 17.6228C15.813 17.6544 15.8095 17.6663 15.8283 17.7036C15.8494 17.73 15.8807 17.7331 15.9279 17.744C15.9587 17.7427 15.9891 17.7373 16.0184 17.7279M12.5327 14.9026C12.5347 14.9145 12.5404 14.9667 12.5456 14.9875C12.5456 15.0164 12.5487 15.0382 12.5518 15.061C12.5601 15.0806 12.5585 15.0987 12.5839 15.106C12.601 15.1298 12.6119 15.136 12.6346 15.1459C12.6502 15.1578 12.674 15.1697 12.6988 15.1795C12.7242 15.1893 12.7475 15.1904 12.7749 15.1852C12.7977 15.1712 12.8137 15.1572 12.8324 15.1459C12.837 15.1277 12.8407 15.1013 12.8453 15.0837C12.8386 15.1019 12.8334 15.1308 12.8324 15.1567C12.835 15.1852 12.8453 15.1976 12.8577 15.2188L12.5327 14.9026ZM12.7687 15.281C12.7708 15.2794 12.7728 15.2773 12.7749 15.2753C12.7599 15.2887 12.7661 15.2825 12.8008 15.2644C12.8251 15.253 12.8515 15.2468 12.8836 15.2416H12.9727C13.0073 15.2416 13.0306 15.2463 13.0555 15.253C13.0736 15.2691 13.1005 15.2779 13.1192 15.2924C13.1388 15.3043 13.1471 15.3182 13.1575 15.3374C13.1751 15.3529 13.1865 15.3767 13.2025 15.3886C13.2092 15.4145 13.2242 15.4135 13.2341 15.4337C13.2041 15.4357 13.1797 15.4394 13.1642 15.4559C13.1373 15.4684 13.1865 15.444 13.1958 15.4337C13.217 15.428 13.2222 15.4223 13.2532 15.4223C13.2822 15.414 13.2998 15.429 13.3298 15.4337C13.3469 15.4425 13.3521 15.4451 13.3744 15.4451L12.7687 15.281ZM13.1129 15.5636C13.1259 15.5641 13.1854 15.574 13.2087 15.5636C13.2346 15.5574 13.2501 15.545 13.2662 15.5237C13.2739 15.5087 13.2662 15.5512 13.2662 15.5693C13.2688 15.6024 13.2801 15.6029 13.2977 15.6257C13.3164 15.6361 13.3361 15.6511 13.3552 15.6594C13.3713 15.6718 13.3909 15.6801 13.4127 15.6878C13.4318 15.6956 13.4546 15.7039 13.4701 15.7158C13.4913 15.7293 13.4893 15.7458 13.5017 15.7665C13.4996 15.7945 13.4945 15.81 13.4763 15.8235C13.4691 15.8421 13.452 15.8613 13.438 15.8742C13.4225 15.9001 13.4049 15.912 13.4448 15.9192C13.4665 15.9275 13.4784 15.9208 13.5017 15.9192L13.1129 15.5636ZM13.5146 15.9586C13.5302 15.9555 13.5861 15.9389 13.6104 15.9306H13.6994C13.7341 15.9327 13.7409 15.942 13.7698 15.9529C13.7885 15.97 13.8014 15.9819 13.8273 15.9927C13.8408 16.0083 13.8677 16.0347 13.878 16.0549C13.8858 16.074 13.891 16.0999 13.891 16.1284C13.8905 16.161 13.8806 16.1667 13.878 16.1962C13.8708 16.22 13.8594 16.2422 13.8397 16.2635C13.8371 16.2707 13.8351 16.2728 13.8273 16.2749L13.5146 15.9586ZM13.8185 16.3489C13.8211 16.3489 13.8273 16.3634 13.8366 16.3758C13.8568 16.3965 13.8594 16.3981 13.891 16.3981C13.9189 16.397 13.9163 16.3872 13.936 16.3799C13.9453 16.366 13.9572 16.3546 13.9676 16.3354C13.9748 16.324 13.9816 16.3059 13.9904 16.2956C13.9987 16.2821 14.009 16.2723 14.0178 16.2598C14.0261 16.2562 14.0292 16.2526 14.0401 16.251C14.0142 16.2552 14.0121 16.264 13.995 16.2774C13.9873 16.2904 13.979 16.3033 13.9722 16.3178C13.9697 16.337 13.9634 16.352 13.9634 16.3758C13.9634 16.4001 13.9634 16.4177 13.9722 16.4379C13.9831 16.4493 13.9909 16.4607 14.0038 16.4695C14.0147 16.4793 14.0276 16.4928 14.0359 16.5047C14.0499 16.5135 14.0603 16.5207 14.0763 16.5316C14.0903 16.5394 14.1048 16.5477 14.126 16.5497C14.1529 16.5477 14.1607 16.5404 14.1803 16.5316C14.1974 16.5192 14.2109 16.5114 14.2259 16.5006C14.2378 16.4923 14.2497 16.4762 14.2575 16.4648C14.2818 16.4586 14.2973 16.4612 14.3118 16.4736C14.3243 16.4819 14.3351 16.4928 14.3434 16.5047C14.3512 16.5083 14.3631 16.5192 14.3708 16.5228L13.8185 16.3489ZM14.317 16.5332C14.3098 16.5363 14.2839 16.5544 14.272 16.5611C14.2647 16.5844 14.2533 16.5974 14.2497 16.6222C14.2435 16.6465 14.244 16.6729 14.244 16.7004C14.2502 16.7288 14.2621 16.7495 14.272 16.7723C14.2901 16.7847 14.2989 16.793 14.3227 16.806C14.345 16.8091 14.3672 16.8117 14.3957 16.8117C14.4133 16.8174 14.4464 16.8199 14.4635 16.8117C14.4884 16.808 14.5071 16.7982 14.5253 16.7894C14.5461 16.7775 14.5589 16.7666 14.5816 16.7558C14.5927 16.7397 14.6098 16.7252 14.6266 16.7055C14.6406 16.6869 14.6509 16.6766 14.6604 16.6559C14.6521 16.6797 14.6395 16.7004 14.6323 16.7226C14.6195 16.7459 14.612 16.7547 14.6097 16.7837C14.6019 16.807 14.6041 16.835 14.6041 16.8614C14.6066 16.8795 14.6079 16.9136 14.6154 16.9281V16.9452L14.317 16.5332Z" stroke="#DB161B" stroke-width="0.0170826"/>
<path fill-rule="evenodd" clip-rule="evenodd" d="M10.2746 12.8111C9.16943 10.9032 8.43592 9.27959 8.6378 9.18683C8.83917 9.09411 9.89933 10.5671 11.0045 12.4749L10.2746 12.8111Z" fill="white" stroke="#DB161B" stroke-width="0.0231391"/>
<path fill-rule="evenodd" clip-rule="evenodd" d="M10.3476 12.7775C9.28176 10.9369 8.5472 9.38303 8.70819 9.30885C8.86918 9.23467 9.86515 10.6681 10.9315 12.5085" fill="white"/>
<path d="M10.3476 12.7775C9.28176 10.9369 8.5472 9.38303 8.70819 9.30885C8.86918 9.23467 9.86515 10.6681 10.9315 12.5085" stroke="#DB161B" stroke-width="0.0203438"/>
<path fill-rule="evenodd" clip-rule="evenodd" d="M10.5309 11.8173C10.6608 12.0324 10.798 12.2784 10.9315 12.5084L10.3476 12.7775C10.2146 12.5472 10.0691 12.3048 9.94746 12.0861L10.5309 11.8173Z" fill="white" stroke="#DB161B" stroke-width="0.0230874"/>
<path fill-rule="evenodd" clip-rule="evenodd" d="M10.4817 11.8915C10.6111 12.1067 10.7017 12.2714 10.8347 12.5014L10.3973 12.703C10.2637 12.473 10.1654 12.3119 10.0437 12.0932L10.4817 11.8915Z" fill="white" stroke="#DB161B" stroke-width="0.0230874"/>
<path d="M10.1642 12.1407L10.456 12.0064L10.7151 12.4536L10.4233 12.588L10.1642 12.1407Z" fill="white" stroke="#DB161B" stroke-width="0.0231391"/>
<path fill-rule="evenodd" clip-rule="evenodd" d="M10.1639 12.1409L10.7147 12.4537L10.1639 12.1409ZM10.4233 12.588L10.4559 12.0065L10.4233 12.588ZM8.84496 9.86399L9.13691 9.72955L8.84496 9.86399Z" fill="white"/>
<path d="M8.84496 9.86399L9.13691 9.72955M10.1639 12.1409L10.7147 12.4537L10.1639 12.1409ZM10.4233 12.588L10.4559 12.0065L10.4233 12.588Z" stroke="#DB161B" stroke-width="0.0230874"/>
<path d="M8.84461 9.65309C8.89009 9.66456 8.93528 9.64151 8.94555 9.60161C8.95581 9.56172 8.92727 9.52008 8.88179 9.50862C8.83631 9.49715 8.79112 9.5202 8.78085 9.56009C8.77059 9.59999 8.79913 9.64162 8.84461 9.65309Z" fill="#DB161B" stroke="#DB161B" stroke-width="0.0299447"/>
<path fill-rule="evenodd" clip-rule="evenodd" d="M12.3364 11.7913C12.3364 13.393 12.3457 13.9966 12.2277 14.0794C12.1159 14.1679 9.00024 14.0794 9.00024 14.537C9.00024 14.9946 11.5667 15.4522 12.3364 15.4522C13.3629 15.4522 13.8764 14.9946 13.8764 14.0794V11.7913H12.3364Z" fill="white" stroke="#DB161B" stroke-width="0.0210685"/>
<path fill-rule="evenodd" clip-rule="evenodd" d="M12.3364 12.2489V12.4777C12.8469 12.554 13.3659 12.554 13.8764 12.4777V12.2489C13.3659 12.3252 12.8469 12.3252 12.3364 12.2489ZM12.3364 11.7913V12.0201C12.8469 12.0963 13.3659 12.0963 13.8764 12.0201V11.7913C13.3659 11.8675 12.8469 11.8675 12.3364 11.7913Z" fill="white" stroke="#DB161B" stroke-width="0.0182214"/>
<path fill-rule="evenodd" clip-rule="evenodd" d="M12.3364 12.0201V12.2489C12.8469 12.3252 13.3659 12.3252 13.8764 12.2489V12.0201C13.3659 12.0963 12.8469 12.0963 12.3364 12.0201ZM12.3364 12.4777V12.7066C12.8499 12.7827 13.3629 12.7827 13.8764 12.7066V12.4777C13.3659 12.554 12.8469 12.554 12.3364 12.4777Z" fill="white" stroke="#DB161B" stroke-width="0.0182214"/>
<path d="M12.4064 12.1995C12.4451 12.1995 12.4764 12.1774 12.4764 12.1502C12.4764 12.1229 12.4451 12.1008 12.4064 12.1008C12.3678 12.1008 12.3364 12.1229 12.3364 12.1502C12.3364 12.1774 12.3678 12.1995 12.4064 12.1995Z" fill="white" stroke="#DB161B" stroke-width="0.0170967"/>
<path d="M12.6863 12.2242C12.725 12.2242 12.7563 12.2021 12.7563 12.1748C12.7563 12.1476 12.725 12.1255 12.6863 12.1255C12.6477 12.1255 12.6163 12.1476 12.6163 12.1748C12.6163 12.2021 12.6477 12.2242 12.6863 12.2242Z" fill="white" stroke="#DB161B" stroke-width="0.0170967"/>
<path d="M12.9663 12.2489C13.005 12.2489 13.0363 12.2268 13.0363 12.1995C13.0363 12.1723 13.005 12.1502 12.9663 12.1502C12.9277 12.1502 12.8964 12.1723 12.8964 12.1995C12.8964 12.2268 12.9277 12.2489 12.9663 12.2489Z" fill="white" stroke="#DB161B" stroke-width="0.0170967"/>
<path d="M13.2463 12.2489C13.2849 12.2489 13.3162 12.2268 13.3162 12.1995C13.3162 12.1723 13.2849 12.1502 13.2463 12.1502C13.2076 12.1502 13.1763 12.1723 13.1763 12.1995C13.1763 12.2268 13.2076 12.2489 13.2463 12.2489Z" fill="white" stroke="#DB161B" stroke-width="0.0170967"/>
<path d="M13.5262 12.2242C13.5648 12.2242 13.5962 12.2021 13.5962 12.1748C13.5962 12.1476 13.5648 12.1255 13.5262 12.1255C13.4875 12.1255 13.4562 12.1476 13.4562 12.1748C13.4562 12.2021 13.4875 12.2242 13.5262 12.2242Z" fill="white" stroke="#DB161B" stroke-width="0.0170967"/>
<path d="M13.8062 12.1995C13.8448 12.1995 13.8762 12.1774 13.8762 12.1502C13.8762 12.1229 13.8448 12.1008 13.8062 12.1008C13.7675 12.1008 13.7362 12.1229 13.7362 12.1502C13.7362 12.1774 13.7675 12.1995 13.8062 12.1995Z" fill="white" stroke="#DB161B" stroke-width="0.0170967"/>
<path fill-rule="evenodd" clip-rule="evenodd" d="M12.3364 12.9355L13.8764 14.1711L12.3364 12.9355ZM12.4901 12.9355L13.8764 14.0334L12.4901 12.9355ZM12.6956 12.981L13.8764 13.8962L12.6956 12.981ZM12.8499 12.981L13.8764 13.759L12.8499 12.981ZM13.0036 12.981L13.8764 13.6219L13.0036 12.981ZM13.1574 12.981L13.8764 13.4847L13.1574 12.981ZM13.3116 12.981L13.8764 13.347L13.3116 12.981ZM13.4654 12.981L13.8764 13.2559L13.4654 12.981ZM13.6196 12.981L13.8764 13.1643L13.6196 12.981ZM13.7734 12.981L13.8764 13.0726L13.7734 12.981ZM12.3364 13.0726L13.8764 14.3083L12.3364 13.0726ZM13.8764 12.9355L12.1826 14.3083L13.8764 12.9355ZM13.7221 12.9355L12.2339 14.125L13.7221 12.9355ZM13.5171 12.981L12.3364 13.8962L13.5171 12.981ZM13.3629 12.981L12.3364 13.759L13.3629 12.981ZM13.2091 12.981L12.3364 13.6219L13.2091 12.981ZM13.0549 12.981L12.3364 13.4847L13.0549 12.981ZM12.9011 12.981L12.3364 13.347L12.9011 12.981ZM12.7469 12.981L12.3364 13.2559L12.7469 12.981ZM12.5931 12.981L12.3364 13.1643L12.5931 12.981ZM12.4389 12.981L12.3364 13.0726L12.4389 12.981ZM13.8764 13.0726L12.1826 14.4455L13.8764 13.0726ZM13.8764 13.2098L12.1826 14.5826L13.8764 13.2098ZM13.8764 13.347L12.1826 14.7203L13.8764 13.347ZM13.8764 13.4847L12.1826 14.8575L13.8764 13.4847ZM13.8764 13.6219L12.1826 14.9947L13.8764 13.6219ZM13.8764 13.759L12.1826 15.1319L13.8764 13.759ZM13.8764 13.8962L12.1826 15.269L13.8764 13.8962ZM13.8764 14.0339L12.1826 15.4067L13.8764 14.0339ZM13.8764 14.1711L12.2851 15.4523L13.8764 14.1711ZM13.8764 14.3083L12.4389 15.4523L13.8764 14.3083ZM13.8246 14.4915L12.6956 15.4067L13.8246 14.4915ZM13.7734 14.6743L12.8499 15.4067L13.7734 14.6743ZM13.6709 14.9031L13.2091 15.269L13.6709 14.9031ZM12.3364 13.2098L13.8246 14.3999L12.3364 13.2098ZM12.3364 13.347L13.8246 14.5371L12.3364 13.347ZM12.3364 13.4847L13.7734 14.6287L12.3364 13.4847ZM12.3364 13.6219L13.7734 14.7659L12.3364 13.6219ZM12.3364 13.759L13.7221 14.8575L12.3364 13.759ZM12.2851 13.8507L13.6709 14.9491L12.2851 13.8507ZM12.2851 13.9878L13.5684 14.9947L12.2851 13.9878ZM12.2339 14.0795L13.5171 15.0863L12.2339 14.0795ZM12.1826 14.1711L13.4141 15.1319L12.1826 14.1711ZM12.1826 14.3083L13.3629 15.2235L12.1826 14.3083ZM12.1826 14.4455L13.2091 15.269L12.1826 14.4455Z" fill="white"/>
<path d="M12.1826 14.4455L13.2091 15.269M12.3364 12.9355L13.8764 14.1711L12.3364 12.9355ZM12.4901 12.9355L13.8764 14.0334L12.4901 12.9355ZM12.6956 12.981L13.8764 13.8962L12.6956 12.981ZM12.8499 12.981L13.8764 13.759L12.8499 12.981ZM13.0036 12.981L13.8764 13.6219L13.0036 12.981ZM13.1574 12.981L13.8764 13.4847L13.1574 12.981ZM13.3116 12.981L13.8764 13.347L13.3116 12.981ZM13.4654 12.981L13.8764 13.2559L13.4654 12.981ZM13.6196 12.981L13.8764 13.1643L13.6196 12.981ZM13.7734 12.981L13.8764 13.0726L13.7734 12.981ZM12.3364 13.0726L13.8764 14.3083L12.3364 13.0726ZM13.8764 12.9355L12.1826 14.3083L13.8764 12.9355ZM13.7221 12.9355L12.2339 14.125L13.7221 12.9355ZM13.5171 12.981L12.3364 13.8962L13.5171 12.981ZM13.3629 12.981L12.3364 13.759L13.3629 12.981ZM13.2091 12.981L12.3364 13.6219L13.2091 12.981ZM13.0549 12.981L12.3364 13.4847L13.0549 12.981ZM12.9011 12.981L12.3364 13.347L12.9011 12.981ZM12.7469 12.981L12.3364 13.2559L12.7469 12.981ZM12.5931 12.981L12.3364 13.1643L12.5931 12.981ZM12.4389 12.981L12.3364 13.0726L12.4389 12.981ZM13.8764 13.0726L12.1826 14.4455L13.8764 13.0726ZM13.8764 13.2098L12.1826 14.5826L13.8764 13.2098ZM13.8764 13.347L12.1826 14.7203L13.8764 13.347ZM13.8764 13.4847L12.1826 14.8575L13.8764 13.4847ZM13.8764 13.6219L12.1826 14.9947L13.8764 13.6219ZM13.8764 13.759L12.1826 15.1319L13.8764 13.759ZM13.8764 13.8962L12.1826 15.269L13.8764 13.8962ZM13.8764 14.0339L12.1826 15.4067L13.8764 14.0339ZM13.8764 14.1711L12.2851 15.4523L13.8764 14.1711ZM13.8764 14.3083L12.4389 15.4523L13.8764 14.3083ZM13.8246 14.4915L12.6956 15.4067L13.8246 14.4915ZM13.7734 14.6743L12.8499 15.4067L13.7734 14.6743ZM13.6709 14.9031L13.2091 15.269L13.6709 14.9031ZM12.3364 13.2098L13.8246 14.3999L12.3364 13.2098ZM12.3364 13.347L13.8246 14.5371L12.3364 13.347ZM12.3364 13.4847L13.7734 14.6287L12.3364 13.4847ZM12.3364 13.6219L13.7734 14.7659L12.3364 13.6219ZM12.3364 13.759L13.7221 14.8575L12.3364 13.759ZM12.2851 13.8507L13.6709 14.9491L12.2851 13.8507ZM12.2851 13.9878L13.5684 14.9947L12.2851 13.9878ZM12.2339 14.0795L13.5171 15.0863L12.2339 14.0795ZM12.1826 14.1711L13.4141 15.1319L12.1826 14.1711ZM12.1826 14.3083L13.3629 15.2235L12.1826 14.3083Z" stroke="#DB161B" stroke-width="0.0182214"/>
<path fill-rule="evenodd" clip-rule="evenodd" d="M12.3364 12.7067V12.9355C12.8499 13.0116 13.3629 13.0116 13.8764 12.9355V12.7067C13.3629 12.7828 12.8499 12.7828 12.3364 12.7067ZM12.1826 14.5826L13.1061 15.3151L12.1826 14.5826ZM12.1826 14.7203L13.0036 15.3607L12.1826 14.7203ZM12.1826 14.8575L12.9011 15.4067L12.1826 14.8575ZM12.1826 14.9947L12.6956 15.4067L12.1826 14.9947ZM12.1826 15.1319L12.5931 15.4523L12.1826 15.1319ZM12.1826 15.2691L12.4389 15.4523L12.1826 15.2691Z" fill="white"/>
<path d="M12.1826 15.2691L12.4389 15.4523M12.3364 12.7067V12.9355C12.8499 13.0116 13.3629 13.0116 13.8764 12.9355V12.7067C13.3629 12.7828 12.8499 12.7828 12.3364 12.7067ZM12.1826 14.5826L13.1061 15.3151L12.1826 14.5826ZM12.1826 14.7203L13.0036 15.3607L12.1826 14.7203ZM12.1826 14.8575L12.9011 15.4067L12.1826 14.8575ZM12.1826 14.9947L12.6956 15.4067L12.1826 14.9947ZM12.1826 15.1319L12.5931 15.4523L12.1826 15.1319Z" stroke="#DB161B" stroke-width="0.0182214"/>
<path d="M12.4064 12.886C12.4451 12.886 12.4764 12.8639 12.4764 12.8367C12.4764 12.8094 12.4451 12.7873 12.4064 12.7873C12.3678 12.7873 12.3364 12.8094 12.3364 12.8367C12.3364 12.8639 12.3678 12.886 12.4064 12.886Z" fill="white" stroke="#DB161B" stroke-width="0.0170967"/>
<path d="M12.6863 12.9106C12.725 12.9106 12.7563 12.8885 12.7563 12.8613C12.7563 12.834 12.725 12.8119 12.6863 12.8119C12.6477 12.8119 12.6163 12.834 12.6163 12.8613C12.6163 12.8885 12.6477 12.9106 12.6863 12.9106Z" fill="white" stroke="#DB161B" stroke-width="0.0170967"/>
<path d="M12.9663 12.9354C13.005 12.9354 13.0363 12.9133 13.0363 12.886C13.0363 12.8587 13.005 12.8366 12.9663 12.8366C12.9277 12.8366 12.8964 12.8587 12.8964 12.886C12.8964 12.9133 12.9277 12.9354 12.9663 12.9354Z" fill="white" stroke="#DB161B" stroke-width="0.0170967"/>
<path d="M13.2463 12.9354C13.2849 12.9354 13.3162 12.9133 13.3162 12.886C13.3162 12.8587 13.2849 12.8366 13.2463 12.8366C13.2076 12.8366 13.1763 12.8587 13.1763 12.886C13.1763 12.9133 13.2076 12.9354 13.2463 12.9354Z" fill="white" stroke="#DB161B" stroke-width="0.0170967"/>
<path d="M13.5262 12.9106C13.5648 12.9106 13.5962 12.8885 13.5962 12.8613C13.5962 12.834 13.5648 12.8119 13.5262 12.8119C13.4875 12.8119 13.4562 12.834 13.4562 12.8613C13.4562 12.8885 13.4875 12.9106 13.5262 12.9106Z" fill="white" stroke="#DB161B" stroke-width="0.0170967"/>
<path d="M13.8062 12.886C13.8448 12.886 13.8762 12.8639 13.8762 12.8367C13.8762 12.8094 13.8448 12.7873 13.8062 12.7873C13.7675 12.7873 13.7362 12.8094 13.7362 12.8367C13.7362 12.8639 13.7675 12.886 13.8062 12.886Z" fill="white" stroke="#DB161B" stroke-width="0.0170967"/>
<path fill-rule="evenodd" clip-rule="evenodd" d="M10.1294 15.0863L11.9771 14.125L10.1294 15.0863ZM10.0267 15.0402L11.7716 14.125L10.0267 15.0402ZM9.97541 14.9491L11.5666 14.125L9.97541 14.9491ZM9.92406 14.8575L11.3099 14.125L9.92406 14.8575ZM9.82141 14.7659L11.1044 14.125L9.82141 14.7659ZM9.87276 14.6287L10.7451 14.1711L9.87276 14.6287ZM9.82141 14.5371L10.4887 14.1711L9.82141 14.5371ZM9.82141 14.3999L10.2834 14.1711L9.82141 14.3999ZM10.2834 15.1319L12.0284 14.2167L10.2834 15.1319ZM10.4373 15.1779L12.0796 14.3083L10.4373 15.1779ZM10.5914 15.2235L12.1309 14.3999L10.5914 15.2235ZM10.7451 15.269L12.0284 14.5826L10.7451 15.269ZM10.9506 15.269L12.0796 14.6743L10.9506 15.269ZM11.1044 15.3151L12.0796 14.8114L11.1044 15.3151ZM11.2586 15.3607L12.0284 14.9491L11.2586 15.3607ZM11.4636 15.3607L12.0796 15.0402L11.4636 15.3607ZM11.6691 15.4067L12.0796 15.1779L11.6691 15.4067ZM11.8746 15.4067L12.1309 15.269L11.8746 15.4067Z" fill="white"/>
<path d="M11.8746 15.4067L12.1309 15.269M10.1294 15.0863L11.9771 14.125L10.1294 15.0863ZM10.0267 15.0402L11.7716 14.125L10.0267 15.0402ZM9.97541 14.9491L11.5666 14.125L9.97541 14.9491ZM9.92406 14.8575L11.3099 14.125L9.92406 14.8575ZM9.82141 14.7659L11.1044 14.125L9.82141 14.7659ZM9.87276 14.6287L10.7451 14.1711L9.87276 14.6287ZM9.82141 14.5371L10.4887 14.1711L9.82141 14.5371ZM9.82141 14.3999L10.2834 14.1711L9.82141 14.3999ZM10.2834 15.1319L12.0284 14.2167L10.2834 15.1319ZM10.4373 15.1779L12.0796 14.3083L10.4373 15.1779ZM10.5914 15.2235L12.1309 14.3999L10.5914 15.2235ZM10.7451 15.269L12.0284 14.5826L10.7451 15.269ZM10.9506 15.269L12.0796 14.6743L10.9506 15.269ZM11.1044 15.3151L12.0796 14.8114L11.1044 15.3151ZM11.2586 15.3607L12.0284 14.9491L11.2586 15.3607ZM11.4636 15.3607L12.0796 15.0402L11.4636 15.3607ZM11.6691 15.4067L12.0796 15.1779L11.6691 15.4067Z" stroke="#DB161B" stroke-width="0.0182214"/>
<path fill-rule="evenodd" clip-rule="evenodd" d="M12.2338 14.0795H11.9771C11.8917 14.5331 11.8917 14.9987 11.9771 15.4523H12.2338C12.1479 14.9987 12.1479 14.533 12.2338 14.0795ZM9.20544 14.7203L9.82135 14.2627L9.20544 14.7203ZM9.20544 14.3999L9.82135 14.9491L9.20544 14.3999Z" fill="white"/>
<path d="M9.20544 14.3999L9.82135 14.9491M12.2338 14.0795H11.9771C11.8917 14.5331 11.8917 14.9987 11.9771 15.4523H12.2338C12.1479 14.9987 12.1479 14.533 12.2338 14.0795V14.0795ZM9.20544 14.7203L9.82135 14.2627L9.20544 14.7203Z" stroke="#DB161B" stroke-width="0.0182214"/>
<path fill-rule="evenodd" clip-rule="evenodd" d="M10.1294 14.1711L9.82147 14.2167C9.75303 14.5066 9.75303 14.7504 9.82147 15.0403L10.1294 15.1319C10.061 14.842 10.061 14.461 10.1294 14.1711Z" fill="white" stroke="#DB161B" stroke-width="0.0129931"/>
<path fill-rule="evenodd" clip-rule="evenodd" d="M13.8744 11.8829V11.6522C13.644 11.6541 13.4898 11.5168 13.4898 11.3776L12.721 11.3795C12.721 11.5168 12.5673 11.6541 12.3364 11.6541V11.8829H13.8744Z" fill="white" stroke="#DB161B" stroke-width="0.0223109"/>
<path d="M12.7759 11.1049H13.4351V11.3794H12.7759V11.1049ZM12.8308 10.8303H13.3801V11.1049H12.8308V10.8303ZM12.8308 10.5558H13.3801V10.8303H12.8308V10.5558Z" fill="white" stroke="#DB161B" stroke-width="0.0188426"/>
<path d="M12.8856 10.1897H13.3251V10.5558H12.8856V10.1897Z" fill="white" stroke="#DB161B" stroke-width="0.0188426"/>
<path d="M12.8669 9.86938H13.3443V10.1897H12.8669V9.86938Z" fill="white" stroke="#DB161B" stroke-width="0.0196709"/>
<path d="M13.1319 10.0068C13.4835 10.0068 13.7684 9.81212 13.7684 9.57202C13.7684 9.33191 13.4835 9.13727 13.1319 9.13727C12.7804 9.13727 12.4955 9.33191 12.4955 9.57202C12.4955 9.81212 12.7804 10.0068 13.1319 10.0068Z" fill="white" stroke="#DB161B" stroke-width="0.0185342"/>
<path fill-rule="evenodd" clip-rule="evenodd" d="M13.4504 9.54902C13.4504 9.66907 13.6093 9.8694 13.6093 9.8694C13.4939 9.94808 13.3075 10.0067 13.1321 10.0067C12.9566 10.0067 12.7376 9.97402 12.6548 9.8694C12.6548 9.8694 12.8137 9.66907 12.8137 9.54902C12.8137 9.42903 12.6548 9.27446 12.6548 9.27446C12.7697 9.19577 12.9566 9.13718 13.1321 9.13718C13.3075 9.13718 13.4939 9.19577 13.6093 9.27446C13.6093 9.27446 13.4504 9.42903 13.4504 9.54902Z" fill="white" stroke="#DB161B" stroke-width="0.018532"/>
<path fill-rule="evenodd" clip-rule="evenodd" d="M13.3443 9.54902C13.3443 9.66907 13.5032 9.91516 13.5032 9.91516C13.3883 9.99384 13.3075 10.0067 13.132 10.0067C12.9565 10.0067 12.8437 10.0198 12.7609 9.91516C12.7609 9.91516 12.9198 9.66907 12.9198 9.54902C12.9198 9.42903 12.7609 9.2287 12.7609 9.2287C12.8758 9.15001 12.9565 9.13718 13.132 9.13718C13.3075 9.13718 13.3883 9.15001 13.5032 9.2287C13.5032 9.2287 13.3443 9.42903 13.3443 9.54902Z" fill="white" stroke="#DB161B" stroke-width="0.018532"/>
<path d="M12.4955 9.73216C12.5834 9.73216 12.6547 9.6707 12.6547 9.59487C12.6547 9.51905 12.5834 9.45758 12.4955 9.45758C12.4077 9.45758 12.3364 9.51905 12.3364 9.59487C12.3364 9.6707 12.4077 9.73216 12.4955 9.73216Z" fill="white" stroke="#DB161B" stroke-width="0.0185342"/>
<path d="M13.7684 9.73216C13.8562 9.73216 13.9275 9.6707 13.9275 9.59487C13.9275 9.51905 13.8562 9.45758 13.7684 9.45758C13.6805 9.45758 13.6093 9.51905 13.6093 9.59487C13.6093 9.6707 13.6805 9.73216 13.7684 9.73216Z" fill="white" stroke="#DB161B" stroke-width="0.0185342"/>
<path d="M13.132 9.73216C13.2199 9.73216 13.2911 9.6707 13.2911 9.59487C13.2911 9.51905 13.2199 9.45758 13.132 9.45758C13.0441 9.45758 12.9729 9.51905 12.9729 9.59487C12.9729 9.6707 13.0441 9.73216 13.132 9.73216Z" fill="white" stroke="#DB161B" stroke-width="0.0185342"/>
<path d="M13.132 9.27458C13.2199 9.27458 13.2911 9.21312 13.2911 9.13729C13.2911 9.06147 13.2199 9 13.132 9C13.0441 9 12.9729 9.06147 12.9729 9.13729C12.9729 9.21312 13.0441 9.27458 13.132 9.27458Z" fill="white" stroke="#DB161B" stroke-width="0.0185342"/>
<path d="M12.6659 11.883C12.7569 11.883 12.8307 11.8215 12.8307 11.7457C12.8307 11.6698 12.7569 11.6084 12.6659 11.6084C12.5749 11.6084 12.5011 11.6698 12.5011 11.7457C12.5011 11.8215 12.5749 11.883 12.6659 11.883Z" fill="white" stroke="#DB161B" stroke-width="0.0188621"/>
<path d="M13.5448 11.883C13.6358 11.883 13.7096 11.8215 13.7096 11.7457C13.7096 11.6698 13.6358 11.6084 13.5448 11.6084C13.4538 11.6084 13.38 11.6698 13.38 11.7457C13.38 11.8215 13.4538 11.883 13.5448 11.883Z" fill="white" stroke="#DB161B" stroke-width="0.0188621"/>
<path fill-rule="evenodd" clip-rule="evenodd" d="M12.7211 11.3794H13.4898L13.1057 11.7913L12.7211 11.3794Z" fill="white" stroke="#DB161B" stroke-width="0.0188426"/>
<path d="M13.1053 11.883C13.2267 11.883 13.3251 11.801 13.3251 11.6999C13.3251 11.5988 13.2267 11.5169 13.1053 11.5169C12.984 11.5169 12.8856 11.5988 12.8856 11.6999C12.8856 11.801 12.984 11.883 13.1053 11.883Z" fill="white" stroke="#DB161B" stroke-width="0.0251493"/>
<path d="M13.3757 13.0732H12.3234C12.288 13.0732 12.2593 13.0949 12.2593 13.1217V13.2992C12.2593 13.326 12.288 13.3477 12.3234 13.3477H13.3757C13.4111 13.3477 13.4398 13.326 13.4398 13.2992V13.1217C13.4398 13.0949 13.4111 13.0732 13.3757 13.0732Z" fill="white" stroke="#DB161B" stroke-width="0.0170826"/>
<path fill-rule="evenodd" clip-rule="evenodd" d="M13.7993 12.8444C13.6569 12.8444 13.5425 12.951 13.5425 13.0835V13.2916C13.5425 13.4241 13.6569 13.5308 13.7993 13.5308C13.9416 13.5308 14.056 13.4241 14.056 13.2916V13.0835C14.056 12.951 13.9416 12.8444 13.7993 12.8444ZM13.7993 12.936C13.7139 12.936 13.645 13.0214 13.645 13.1275V13.2481C13.645 13.3542 13.7139 13.4391 13.7993 13.4391C13.8847 13.4391 13.953 13.3542 13.953 13.2481V13.1275C13.953 13.0214 13.8847 12.936 13.7993 12.936ZM12.4648 12.8904C12.3794 12.8904 12.311 12.9753 12.311 13.0814V13.2937C12.311 13.3998 12.3794 13.4852 12.4648 13.4852C12.5502 13.4852 12.6185 13.3998 12.6185 13.2937V13.0814C12.6185 12.9753 12.5502 12.8904 12.4648 12.8904ZM12.4648 12.7988C12.3224 12.7988 12.208 12.9054 12.208 13.038V13.3377C12.208 13.4702 12.3224 13.5768 12.4648 13.5768C12.6071 13.5768 12.7215 13.4702 12.7215 13.3377V13.038C12.7215 12.9054 12.6071 12.7988 12.4648 12.7988Z" fill="white" stroke="#DB161B" stroke-width="0.0170826"/>
<path fill-rule="evenodd" clip-rule="evenodd" d="M12.0542 12.9815C11.9688 12.9815 11.9 13.0669 11.9 13.1731V13.2227C11.9 13.3289 11.9688 13.4143 12.0542 13.4143C12.1397 13.4143 12.208 13.3289 12.208 13.2227V13.1731C12.208 13.0669 12.1397 12.9815 12.0542 12.9815ZM12.0542 12.8904C11.9119 12.8904 11.7975 12.997 11.7975 13.1296V13.2667C11.7975 13.3993 11.9119 13.5059 12.0542 13.5059C12.1961 13.5059 12.311 13.3993 12.311 13.2667V13.1296C12.311 12.997 12.1961 12.8904 12.0542 12.8904Z" fill="white" stroke="#DB161B" stroke-width="0.0170826"/>
<path fill-rule="evenodd" clip-rule="evenodd" d="M11.4382 12.8552C11.2844 12.8552 11.1612 12.9505 11.1612 13.069V13.3061C11.1612 13.4247 11.2844 13.5199 11.4382 13.5199C11.5919 13.5199 11.7151 13.4247 11.7151 13.3061V13.069C11.7151 12.9505 11.5919 12.8552 11.4382 12.8552ZM11.4382 12.7527C11.1825 12.7527 10.9764 12.8723 10.9764 13.0204V13.3553C10.9764 13.5033 11.1825 13.6224 11.4382 13.6224C11.6939 13.6224 11.8999 13.5033 11.8999 13.3553V13.0204C11.8999 12.8723 11.6939 12.7527 11.4382 12.7527ZM14.7745 12.9008C14.6207 12.9008 14.497 12.9966 14.497 13.1151V13.3522C14.497 13.4707 14.6207 13.566 14.7745 13.566C14.9277 13.566 15.0514 13.4707 15.0514 13.3522V13.1151C15.0514 12.9966 14.9277 12.9008 14.7745 12.9008ZM14.7745 12.7988C14.5182 12.7988 14.3122 12.9179 14.3122 13.0659V13.4008C14.3122 13.5489 14.5182 13.668 14.7745 13.668C15.0302 13.668 15.2362 13.5489 15.2362 13.4008V13.0659C15.2362 12.9179 15.0302 12.7988 14.7745 12.7988Z" fill="white" stroke="#DB161B" stroke-width="0.0170826"/>
<path d="M14.4842 13.0732H13.9352C13.9167 13.0732 13.9017 13.0949 13.9017 13.1217V13.2992C13.9017 13.326 13.9167 13.3477 13.9352 13.3477H14.4842C14.5027 13.3477 14.5176 13.326 14.5176 13.2992V13.1217C14.5176 13.0949 14.5027 13.0732 14.4842 13.0732Z" fill="white" stroke="#DB161B" stroke-width="0.0170826"/>
<path d="M13.6773 13.0276H13.357C13.3463 13.0276 13.3375 13.0566 13.3375 13.0923V13.3289C13.3375 13.3647 13.3463 13.3937 13.357 13.3937H13.6773C13.6881 13.3937 13.6968 13.3647 13.6968 13.3289V13.0923C13.6968 13.0566 13.6881 13.0276 13.6773 13.0276Z" fill="white" stroke="#DB161B" stroke-width="0.0170826"/>
<path d="M11.9836 13.0276H11.6633C11.6525 13.0276 11.6438 13.0566 11.6438 13.0923V13.3289C11.6438 13.3647 11.6525 13.3937 11.6633 13.3937H11.9836C11.9944 13.3937 12.0031 13.3647 12.0031 13.3289V13.0923C12.0031 13.0566 11.9944 13.0276 11.9836 13.0276Z" fill="white" stroke="#DB161B" stroke-width="0.0170826"/>
<path d="M11.1939 12.9815H10.5533C10.5317 12.9815 10.5143 13.0177 10.5143 13.0624V13.3582C10.5143 13.4029 10.5317 13.4391 10.5533 13.4391H11.1939C11.2154 13.4391 11.2328 13.4029 11.2328 13.3582V13.0624C11.2328 13.0177 11.2154 12.9815 11.1939 12.9815Z" fill="white" stroke="#DB161B" stroke-width="0.0170826"/>
<path d="M15.6105 13.0276H15.0157C14.9957 13.0276 14.9795 13.0638 14.9795 13.1085V13.4043C14.9795 13.449 14.9957 13.4852 15.0157 13.4852H15.6105C15.6305 13.4852 15.6467 13.449 15.6467 13.4043V13.1085C15.6467 13.0638 15.6305 13.0276 15.6105 13.0276Z" fill="white" stroke="#DB161B" stroke-width="0.0170826"/>
</g>
</svg>
