<svg width="54" height="48" viewBox="0 0 54 48" fill="none" xmlns="http://www.w3.org/2000/svg">
<mask id="mask0_1_33908" style="mask-type:alpha" maskUnits="userSpaceOnUse" x="3" y="6" width="48" height="36">
<path d="M3.56934 15.1356C4.16681 10.4125 8.0415 7.00193 12.7861 6.60887C16.6412 6.28949 21.6196 6 27 6C32.3804 6 37.3588 6.28949 41.2139 6.60887C45.9585 7.00193 49.8332 10.4125 50.4307 15.1356C50.752 17.6759 51 20.704 51 24C51 27.296 50.752 30.3241 50.4307 32.8644C49.8332 37.5875 45.9585 40.9981 41.2139 41.3911C37.3588 41.7105 32.3804 42 27 42C21.6196 42 16.6412 41.7105 12.7861 41.3911C8.0415 40.9981 4.16681 37.5875 3.56934 32.8644C3.248 30.3241 3 27.296 3 24C3 20.704 3.248 17.6759 3.56934 15.1356Z" fill="#00D0BF"/>
</mask>
<g mask="url(#mask0_1_33908)">
<rect x="3" width="12" height="49" fill="#F5F5F5"/>
<rect x="15" width="36" height="49" fill="#1C6864"/>
</g>
<path fill-rule="evenodd" clip-rule="evenodd" d="M40.0938 30.0063C36.1626 31.3519 31.6589 29.5155 29.6621 25.584C27.8376 21.9916 28.6891 17.798 31.4817 15.3522C31.156 15.4637 30.8342 15.5971 30.5181 15.7528C26.3869 17.789 24.7908 22.8908 26.953 27.1481C29.1152 31.4054 34.217 33.206 38.3482 31.1698C38.9935 30.8518 39.5769 30.459 40.0938 30.0063Z" fill="#F5F5F5"/>
<path d="M36.1827 19.4009L37.609 20.6851L39.2711 19.7255L38.4905 21.4788L39.9167 22.763L38.008 22.5624L37.2274 24.3157L36.8284 22.4384L34.9196 22.2378L36.5817 21.2782L36.1827 19.4009Z" fill="#F5F5F5"/>
</svg>
