<svg width="54" height="54" viewBox="0 0 54 54" fill="none" xmlns="http://www.w3.org/2000/svg">
<mask id="mask0_1_33908" style="mask-type:alpha" maskUnits="userSpaceOnUse" x="3" y="9" width="48" height="36">
<path d="M3.56934 18.1356C4.16681 13.4125 8.0415 10.0019 12.7861 9.60887C16.6412 9.28949 21.6196 9 27 9C32.3804 9 37.3588 9.28949 41.2139 9.60887C45.9585 10.0019 49.8332 13.4125 50.4307 18.1356C50.752 20.6759 51 23.704 51 27C51 30.296 50.752 33.3241 50.4307 35.8644C49.8332 40.5875 45.9585 43.9981 41.2139 44.3911C37.3588 44.7105 32.3804 45 27 45C21.6196 45 16.6412 44.7105 12.7861 44.3911C8.04151 43.9981 4.16681 40.5875 3.56934 35.8644C3.248 33.3241 3 30.296 3 27C3 23.704 3.248 20.6759 3.56934 18.1356Z" fill="#00D0BF"/>
</mask>
<g mask="url(#mask0_1_33908)">
<rect x="3" y="3" width="12" height="49" fill="#F5F5F5"/>
<rect x="15" y="3" width="36" height="49" fill="#1C6864"/>
</g>
<path fill-rule="evenodd" clip-rule="evenodd" d="M31.661 18.4849C31.3363 18.6013 31.0148 18.7385 30.6982 18.8968C26.4675 21.0125 24.7102 26.1143 26.773 30.2921C28.8358 34.4698 33.9376 36.1415 38.1683 34.0258C38.8085 33.7056 39.3922 33.3171 39.9145 32.8736C35.9001 34.3131 31.3905 32.593 29.4821 28.7279C27.7315 25.1824 28.7322 20.9714 31.661 18.4849Z" fill="#F5F5F5"/>
<path d="M36.1827 22.4009L37.609 23.6851L39.2711 22.7255L38.4905 24.4788L39.9167 25.763L38.008 25.5624L37.2274 27.3157L36.8284 25.4384L34.9196 25.2378L36.5817 24.2782L36.1827 22.4009Z" fill="#F5F5F5"/>
</svg>
