<svg width="54" height="54" viewBox="0 0 54 54" fill="none" xmlns="http://www.w3.org/2000/svg">
<mask id="mask0_1_41931" style="mask-type:alpha" maskUnits="userSpaceOnUse" x="3" y="9" width="48" height="36">
<path d="M3.56934 18.1356C4.16681 13.4125 8.0415 10.0019 12.7861 9.60887C16.6412 9.28949 21.6196 9 27 9C32.3804 9 37.3588 9.28949 41.2139 9.60887C45.9585 10.0019 49.8332 13.4125 50.4307 18.1356C50.752 20.6759 51 23.704 51 27C51 30.296 50.752 33.3241 50.4307 35.8644C49.8332 40.5875 45.9585 43.9981 41.2139 44.3911C37.3588 44.7105 32.3804 45 27 45C21.6196 45 16.6412 44.7105 12.7861 44.3911C8.04151 43.9981 4.16681 40.5875 3.56934 35.8644C3.248 33.3241 3 30.296 3 27C3 23.704 3.248 20.6759 3.56934 18.1356Z" fill="#00D0BF"/>
</mask>
<g mask="url(#mask0_1_41931)">
<rect x="3" y="9" width="48" height="36" fill="#2E50A6"/>
<path d="M33.8969 27.7437C33.3686 28.1911 32.8652 28.8448 32.7414 29.4357C32.3931 31.098 31.9309 31.4677 31.2178 31.1112C31.2178 32.0042 32.0002 32.0719 32.3436 31.5503C32.3436 32.3872 32.6473 33.1135 33.3323 33.7325C33.6212 33.9933 33.6757 33.815 33.5387 33.5262C33.4017 33.2373 33.4017 32.3046 33.1276 31.7698C33.5667 32.0851 34.2121 31.9068 34.1577 31.0418C33.5948 31.372 33.0352 31.3588 32.9774 30.5747C32.9064 29.6553 33.2646 28.3198 33.8969 27.7437Z" fill="#F7E017" stroke="black" stroke-width="0.0247605"/>
<path d="M33.2283 21.1326C33.2663 20.8025 33.1953 20.4641 32.9543 20.2511C32.4888 19.8418 32.0332 19.9771 31.6932 20.3073C31.1848 20.0332 30.9157 21.0055 30.3396 20.8421C30.4353 21.1574 30.5872 21.2944 30.8744 21.1854C30.5723 21.4594 30.8744 21.7896 30.5179 22.1181C31.1633 22.3244 31.5066 21.9679 31.4786 21.3488C31.7262 21.5684 32.1092 21.5552 32.3155 21.3076C31.9721 21.197 31.9705 20.8999 32.1092 20.6209C32.3155 20.2099 33.2828 20.2264 33.2283 21.1326Z" fill="#F7E017" stroke="black" stroke-width="0.0247605"/>
<path d="M34.7172 25.9081C33.9893 26.2927 32.6588 26.1277 32.535 25.1802C32.4112 24.2327 33.3306 23.8068 33.5782 23.6846C33.9629 23.4915 34.2649 23.8348 34.1411 24.2343C34.567 24.0841 34.6628 23.5889 34.4564 23.3017C35.0193 23.3429 35.5409 22.9171 35.7605 22.3129C35.5624 22.5011 35.0243 22.374 34.5819 22.3459C34.7189 22.1957 34.7172 21.9019 34.676 21.75C34.2105 22.2287 33.537 22.0092 32.6456 23.3958C32.7826 22.9154 33.0434 21.9547 33.1953 21.3225C33.2101 21.2597 33.2217 21.197 33.2299 21.1326C33.2828 20.2264 32.3171 20.2099 32.1108 20.6226C32.3369 20.8768 32.2181 21.1739 32.1372 21.6246C32.0414 22.1594 31.8351 23.3958 31.6568 23.8068C31.6023 23.1614 31.1765 23.1201 31.0939 22.8048C30.9701 22.8873 30.9024 23.1069 30.9289 23.2571C30.777 23.092 30.2554 23.2984 30.0639 23.0508C29.8576 23.4618 30.1877 23.8745 30.531 24.0527C30.3313 24.0659 30.2834 24.3069 30.0639 24.3069C30.3594 24.6503 30.6614 24.7873 31.0114 24.8154C31.3613 24.8434 31.6222 24.9738 31.8351 25.3981C32.1784 26.0864 33.4858 26.5321 34.7172 25.9081Z" fill="#337321" stroke="black" stroke-width="0.0247605"/>
<path d="M36.5296 25.0696C36.1186 26.2086 34.9928 27.0191 34.4844 27.1429C33.6195 27.3525 31.8565 28.2092 31.3844 28.65C31.3101 28.6335 31.2408 28.6071 31.1896 28.5708C30.9569 28.4057 30.7637 27.8709 31.1764 27.4169C32.4673 26.2086 33.8539 26.7302 34.7188 25.9065C33.9909 26.2911 32.6604 26.1261 32.5366 25.1786C33.319 25.3849 34.7337 25.3981 35.8578 24.1898C36.008 24.3565 36.4471 24.8781 36.5296 25.0696Z" fill="#F7E017" stroke="black" stroke-width="0.0247605"/>
<path d="M33.8968 27.7437C33.2448 28.2967 32.9064 29.6552 32.9757 30.5747C32.9955 30.8305 33.0665 31.0039 33.1754 31.1095C33.2233 30.5879 33.5865 29.2393 34.5125 28.6384C35.2949 28.13 36.5165 26.991 36.9704 25.6869C36.8879 25.4542 36.7509 25.2891 36.49 25.1241C36.0394 26.3555 34.836 26.9464 33.8968 27.7437Z" fill="#337321" stroke="black" stroke-width="0.0247605"/>
<path d="M36.1104 24.5413C35.8776 24.8913 35.3478 25.3716 34.841 25.5648C34.95 25.441 34.9846 25.2841 34.9912 25.1537C34.3458 25.4013 33.0549 25.3733 32.5333 25.1818C33.3158 25.3881 34.7304 25.4013 35.8545 24.193C35.9668 24.3152 36.0625 24.4241 36.1104 24.5413Z" fill="#316D3A" stroke="black" stroke-width="0.0247605"/>
<path d="M31.1765 27.4168C30.1266 28.399 30.8199 29.2557 31.231 29.4489C31.122 30.1355 31.7658 30.053 31.7526 30.6291C32.0134 30.4789 32.0827 30.0794 32.0415 29.7641C32.3716 30.1207 33.2085 29.7229 33.3868 30.3815C33.4974 29.6535 32.9345 28.9272 32.2346 28.9949C32.5235 28.7341 32.3584 28.3082 32.0844 28.1993C32.0299 28.7341 31.4257 28.7341 31.1913 28.5707C30.9569 28.4056 30.7638 27.8708 31.1765 27.4168Z" fill="#337321" stroke="black" stroke-width="0.0247605"/>
<path d="M33.4479 33.6631C33.334 33.7291 33.3422 33.876 33.4132 33.9718C33.5568 34.1633 33.3108 34.599 33.7763 34.6931C33.9134 34.7212 34.019 34.637 34.0718 34.4802C34.2154 34.0477 33.7565 33.9998 33.7153 33.7935C33.674 33.5872 33.5436 33.6086 33.4479 33.6631Z" fill="#F7E017" stroke="black" stroke-width="0.0247605"/>
<path d="M33.8391 34.4736C33.6856 34.5446 33.5502 34.6453 33.6129 35.1389C33.6377 35.3436 33.6262 35.8388 33.4479 35.8454C33.5568 35.8998 33.7912 35.9593 33.887 35.8322C33.9794 35.9873 34.189 35.9428 34.2716 35.7496C34.3805 35.8388 34.5324 35.6885 34.5324 35.5581C34.6281 35.6192 34.8213 35.5301 34.7717 35.2363C34.8889 35.2775 35.0392 35.195 35.0936 35.1191C34.922 35.0844 34.4895 34.8516 34.3871 34.6668C34.2848 34.4802 34.0174 34.3911 33.8391 34.4736Z" fill="#F7E017" stroke="black" stroke-width="0.0247605"/>
<path d="M31.4603 20.5896C31.5297 20.4872 31.6072 20.3915 31.6931 20.3073" stroke="black" stroke-width="0.0247605"/>
<path d="M34.0718 22.4069C34.1923 22.3376 34.3772 22.3294 34.5818 22.3426" stroke="black" stroke-width="0.0247605"/>
<path d="M33.8869 35.8322C33.839 35.7629 33.8208 35.4756 33.8555 35.3007" stroke="black" stroke-width="0.0247605"/>
<path d="M34.2715 35.7496C34.1956 35.6918 34.052 35.4921 34.0272 35.3171" stroke="black" stroke-width="0.0247605"/>
<path d="M34.5323 35.5582C34.4366 35.5136 34.2022 35.2115 34.151 35.0167" stroke="black" stroke-width="0.0247605"/>
<path d="M34.7716 35.2346C34.6577 35.2099 34.3111 34.9837 34.1675 34.7444" stroke="black" stroke-width="0.0247605"/>
<path d="M41.1004 27.4317C42.7891 28.8464 42.8981 29.9705 42.6373 30.6308C42.5002 30.0134 41.8003 29.0527 41.0724 28.8051L41.1004 27.4317Z" fill="#F7E017" stroke="black" stroke-width="0.0247605"/>
<path d="M38.0813 26.6345H41.211C41.211 26.6345 41.211 27.4582 41.211 30.3403C41.211 33.4981 39.4547 35.365 37.6686 36.3521C35.8842 35.3634 34.1262 33.4964 34.1262 30.3403C34.1262 27.4582 34.1262 26.6345 34.1262 26.6345H36.3233C36.3266 26.8259 36.3448 27.1148 36.5709 27.4037C37.0892 27.3525 37.6752 26.9646 38.0813 26.6345Z" fill="#337321" stroke="black" stroke-width="0.0247605"/>
<path d="M41.211 26.6345C41.211 26.6345 41.211 27.4582 41.211 30.3403C41.211 31.2927 41.0509 32.1296 40.7785 32.8576L37.6703 27.1544L34.562 32.8576C34.2896 32.128 34.1295 31.2927 34.1295 30.3403C34.1295 27.4582 34.1295 26.6345 34.1295 26.6345H41.211V26.6345Z" fill="#006EC7" stroke="black" stroke-width="0.0247605"/>
<path d="M40.8727 32.5852C40.8183 32.7536 40.7176 33.0259 40.6416 33.1943L37.6704 27.6711L34.6991 33.1943C34.6215 33.0259 34.5225 32.7536 34.468 32.5852L37.672 26.646L40.8727 32.5852Z" fill="#F7E017"/>
<path d="M39.0816 34.6173C39.1642 34.6585 39.316 34.7345 39.3837 34.7625C39.5488 34.4324 39.5752 33.9669 39.5207 33.5542C39.3425 34.0082 38.7383 33.9933 38.5732 34.2673C38.6739 34.3185 38.768 34.3845 38.8489 34.4423C38.6426 34.6486 38.1605 34.9936 37.8865 35.0762V32.1313C37.8865 31.925 37.8172 31.7533 37.8172 31.5816C37.8172 31.5816 37.8172 31.1095 37.8172 30.9725C37.8172 30.8355 37.7891 30.6358 37.667 30.6358C37.5432 30.6358 37.5168 30.8355 37.5168 30.9725C37.5168 31.1095 37.5168 31.5816 37.5168 31.5816C37.5168 31.7533 37.4474 31.953 37.4474 32.1313V35.0762C37.2972 34.6371 36.7046 34.7873 36.4306 34.3482C36.5379 34.3218 36.6518 34.3135 36.7608 34.335C36.5544 33.6351 35.9915 33.5806 35.8826 33.3743C35.8826 33.6632 35.7588 34.335 35.9519 34.6239C35.9948 34.5727 36.0592 34.5182 36.1384 34.472C36.3712 34.9804 37.421 34.9821 37.6686 35.819C37.8667 35.5103 38.5815 35.1537 39.0816 34.6173Z" fill="#F7E017" stroke="black" stroke-width="0.0247605"/>
<path d="M37.6687 32.1675C37.9014 32.1675 38.6426 32.0916 38.9116 32.0916C38.981 32.0916 39.0387 31.9876 39.0387 31.8589C39.0387 31.7301 38.9826 31.6261 38.9116 31.6261C38.6442 31.6261 37.9031 31.5502 37.6687 31.5502C37.4359 31.5502 36.6948 31.6261 36.4257 31.6261C36.3564 31.6261 36.2986 31.7301 36.2986 31.8589C36.2986 31.9876 36.3547 32.0916 36.4257 32.0916C36.6948 32.0916 37.4359 32.1675 37.6687 32.1675Z" fill="#F7E017" stroke="black" stroke-width="0.0247605"/>
<path d="M37.5185 30.961C37.469 30.9213 37.4046 30.8966 37.332 30.8966C37.1768 30.8966 37.0497 31.0121 37.0497 31.1541C37.0497 31.296 37.1752 31.4116 37.332 31.4116C37.4871 31.4116 37.6126 31.296 37.6126 31.1541C37.6126 31.0435 37.7727 31.0435 37.7727 31.1541C37.7727 31.3769 37.5746 31.5569 37.332 31.5569C37.0877 31.5569 36.8912 31.3769 36.8912 31.1541C36.8912 30.9312 37.0893 30.7513 37.332 30.7513C37.4046 30.7513 37.4739 30.7678 37.535 30.7959C37.5301 30.8322 37.5185 30.9015 37.5185 30.961Z" fill="#F7E017" stroke="black" stroke-width="0.0247605"/>
<path d="M36.4274 32.0916C36.4967 32.0916 36.5528 31.9876 36.5528 31.8589C36.5528 31.7301 36.4967 31.6261 36.4274 31.6261" fill="#F7E017"/>
<path d="M36.4274 32.0916C36.4967 32.0916 36.5528 31.9876 36.5528 31.8589C36.5528 31.7301 36.4967 31.6261 36.4274 31.6261" stroke="black" stroke-width="0.0247605"/>
<path d="M36.5297 32.0916C36.599 32.0916 36.6551 31.9876 36.6551 31.8589C36.6551 31.7301 36.599 31.6261 36.5297 31.6261" fill="#F7E017"/>
<path d="M36.5297 32.0916C36.599 32.0916 36.6551 31.9876 36.6551 31.8589C36.6551 31.7301 36.599 31.6261 36.5297 31.6261" stroke="black" stroke-width="0.0247605"/>
<path d="M37.2081 32.1395C37.2923 32.1395 37.36 32.0141 37.36 31.8589C37.36 31.7037 37.2923 31.5783 37.2081 31.5783" fill="#F7E017"/>
<path d="M37.2081 32.1395C37.2923 32.1395 37.36 32.0141 37.36 31.8589C37.36 31.7037 37.2923 31.5783 37.2081 31.5783" stroke="black" stroke-width="0.0247605"/>
<path d="M37.365 32.1511C37.4525 32.1511 37.5235 32.019 37.5235 31.8572C37.5235 31.6955 37.4525 31.5634 37.365 31.5634" fill="#F7E017"/>
<path d="M37.365 32.1511C37.4525 32.1511 37.5235 32.019 37.5235 31.8572C37.5235 31.6955 37.4525 31.5634 37.365 31.5634" stroke="black" stroke-width="0.0247605"/>
<path d="M37.8932 32.1544C37.9823 32.1544 38.0533 32.0207 38.0533 31.8573C38.0533 31.6939 37.9807 31.5602 37.8932 31.5602" fill="#F7E017"/>
<path d="M37.8932 32.1544C37.9823 32.1544 38.0533 32.0207 38.0533 31.8573C38.0533 31.6939 37.9807 31.5602 37.8932 31.5602" stroke="black" stroke-width="0.0247605"/>
<path d="M38.0582 32.1461C38.1457 32.1461 38.2167 32.0173 38.2167 31.8589C38.2167 31.7004 38.1457 31.5717 38.0582 31.5717" fill="#F7E017"/>
<path d="M38.0582 32.1461C38.1457 32.1461 38.2167 32.0173 38.2167 31.8589C38.2167 31.7004 38.1457 31.5717 38.0582 31.5717" stroke="black" stroke-width="0.0247605"/>
<path d="M38.7961 32.0949C38.8671 32.0949 38.9249 31.9893 38.9249 31.8572C38.9249 31.7252 38.8671 31.6195 38.7961 31.6195" fill="#F7E017"/>
<path d="M38.7961 32.0949C38.8671 32.0949 38.9249 31.9893 38.9249 31.8572C38.9249 31.7252 38.8671 31.6195 38.7961 31.6195" stroke="black" stroke-width="0.0247605"/>
<path d="M36.1384 34.472C36.2226 34.4208 36.325 34.3746 36.4323 34.3499Z" fill="#F7E017"/>
<path d="M36.1384 34.472C36.2226 34.4208 36.325 34.3746 36.4323 34.3499" stroke="black" stroke-width="0.0247605"/>
<path d="M38.9315 34.5C38.9067 34.4818 38.8786 34.4637 38.8506 34.4422Z" fill="#F7E017"/>
<path d="M38.9315 34.5C38.9067 34.4818 38.8786 34.4637 38.8506 34.4422" stroke="black" stroke-width="0.0247605"/>
<path d="M39.0817 34.6173C39.2731 34.4109 39.4333 34.1782 39.5224 33.9108Z" fill="#F7E017"/>
<path d="M39.0817 34.6173C39.2731 34.4109 39.4333 34.1782 39.5224 33.9108" stroke="black" stroke-width="0.0247605"/>
<path d="M37.0398 29.2558C37.0398 29.1881 37.0943 29.16 37.1586 29.1121C37.2362 29.0544 37.2676 29.0263 37.3369 29.0263H38.2382C38.3042 29.0263 38.3207 29.0428 38.3207 29.1055V30.3287C38.3207 30.3898 38.3059 30.4079 38.2382 30.4079H37.0398V29.2425" fill="white"/>
<path d="M37.0398 29.2558C37.0398 29.1881 37.0943 29.16 37.1586 29.1121C37.2362 29.0544 37.2676 29.0263 37.3369 29.0263H38.2382C38.3042 29.0263 38.3207 29.0428 38.3207 29.1055V30.3287C38.3207 30.3898 38.3059 30.4079 38.2382 30.4079H37.0398V29.2425" stroke="black" stroke-width="0.0247605"/>
<path d="M38.0153 30.5152C38.1342 30.5152 38.1127 30.5119 38.1953 30.4294C38.2828 30.3435 38.2745 30.3501 38.2745 30.2709V29.1501C38.2745 29.0923 38.2596 29.0758 38.1986 29.0758H37.365C37.2989 29.0758 37.2709 29.1022 37.1999 29.1567C37.1405 29.2012 37.0909 29.2293 37.0909 29.292V30.5152H38.0153Z" fill="#E5E5E5" stroke="black" stroke-width="0.0247605"/>
<path d="M38.1045 30.4889C38.1045 30.5499 38.0896 30.5681 38.022 30.5681H37.1207C37.053 30.5681 37.0398 30.5516 37.0398 30.4889V29.264C37.0398 29.203 37.0547 29.1848 37.1207 29.1848H38.022C38.0896 29.1848 38.1045 29.2013 38.1045 29.264V30.4889Z" fill="white" stroke="black" stroke-width="0.0247605"/>
<path d="M39.8509 25.9163C40.0258 26.1127 40.0836 26.3752 39.9879 26.6327H39.7271C39.836 26.3026 39.7683 25.9889 39.3012 25.9477C38.6029 25.8866 37.7908 27.2385 36.5693 27.4019C36.2127 26.9761 36.2309 26.1656 36.6848 25.781C36.4504 25.1058 35.9569 24.363 35.6135 24.0428C35.389 24.0065 35.1299 23.9883 34.9631 23.9982C35.1414 23.6136 35.6498 23.2092 36.0625 23.0441C36.1285 22.9467 36.2012 22.8526 36.2672 22.7684C36.3085 22.2402 38.8208 22.4878 39.3557 22.8163C39.3573 23.4089 39.5901 25.3815 39.8509 25.9163Z" fill="#96877D" stroke="black" stroke-width="0.0247605"/>
<path d="M36.8071 26.2778C36.7476 25.3633 36.3779 24.609 35.8579 24.0956C36.1055 24.1649 36.6123 24.1649 36.9556 23.9173C37.4079 23.6153 38.5898 23.087 39.0223 23.3132C39.057 23.3891 39.0768 23.5608 39.0504 23.6697C38.948 23.3957 37.8074 23.8199 37.4855 23.9503C37.1768 24.094 37.0398 24.2871 37.1488 24.7196C36.9705 24.5694 37.0316 24.4241 36.8467 24.3152C36.921 24.4934 36.982 24.8153 37.0035 25.0761C36.9342 24.8912 36.812 24.4934 36.543 24.259C36.7757 24.7113 36.9787 25.7991 36.883 26.3769C37.0679 26.3769 37.4772 26.1953 37.6407 26.0649C37.4971 26.2712 37.0811 26.4148 36.8137 26.4693C36.6932 26.6129 36.6106 26.9843 36.6172 27.1907C36.5991 26.9365 36.6783 26.3175 36.8071 26.2778Z" fill="black"/>
<path d="M39.8509 25.9163C39.6231 25.6638 39.1989 25.5268 38.6575 25.6737C38.74 25.6324 38.9183 25.5631 39.0767 25.5367C39.0569 25.3931 38.9265 24.774 38.9051 24.6238L39.0569 24.5628C39.1329 24.9342 39.2286 25.3584 39.2897 25.5301C39.3376 25.5433 39.4482 25.5647 39.5439 25.6126C39.5026 25.469 39.2699 24.4323 39.2765 24.3217L39.4828 24.2112C39.5637 24.774 39.6941 25.5911 39.8509 25.9163Z" fill="black"/>
<path d="M39.7287 26.6344C39.8376 26.3043 39.77 25.9907 39.3028 25.9494C38.9413 25.918 38.5484 26.2696 38.0846 26.6344H39.7287Z" fill="#96877D" stroke="black" stroke-width="0.0247605"/>
<path d="M36.6948 23.6763C36.4884 23.7044 36.0295 23.6631 35.7951 23.5872C35.8083 23.5245 35.8331 23.4618 35.8628 23.3924C35.7192 23.4882 35.4452 23.6763 35.3412 23.8068C35.6713 23.8761 36.3514 23.9107 36.6948 23.6763Z" fill="#96877D" stroke="black" stroke-width="0.0247605"/>
<path d="M36.6865 25.7827C36.7625 26.0022 36.812 26.2135 36.8186 26.4017" stroke="black" stroke-width="0.0247605"/>
<path d="M36.0642 23.0458C35.9404 23.2274 35.8315 23.4221 35.7952 23.5872C36.0279 23.6631 36.4885 23.7044 36.6948 23.6763" stroke="black" stroke-width="0.0247605"/>
<path d="M35.6152 24.0445C35.7044 24.0593 35.7869 24.0759 35.8579 24.0957C36.1055 24.165 36.6123 24.165 36.9556 23.9174C37.299 23.6698 38.2316 22.9022 39.2897 22.8197" stroke="black" stroke-width="0.0247605"/>
<path d="M35.3428 23.8067C35.6729 23.8761 36.353 23.9091 36.6947 23.6763C37.4903 23.1349 38.2596 22.818 39.0288 22.7767" stroke="black" stroke-width="0.0247605"/>
<path d="M41.1005 27.4317C42.2527 28.2273 43.1044 28.9966 43.352 30.2313C43.5996 31.466 44.0668 31.7962 44.6429 31.466C44.5059 32.1791 43.7911 32.2617 43.1886 31.7136C43.2431 32.5373 42.9146 33.5261 42.0628 33.8826C42.0084 33.3891 42.3352 32.9979 42.2411 32.5918C42.1998 32.4135 42.1866 32.0008 42.4194 31.8094C41.9671 31.9596 41.2523 31.6724 41.1847 30.9989C41.7063 31.2465 42.3781 31.2877 42.6389 30.6275C42.8981 29.9705 42.7891 28.8447 41.1005 27.4317Z" fill="#337321" stroke="black" stroke-width="0.0247605"/>
<path d="M42.5564 21.0071C42.9129 20.0745 43.8472 20.1702 44.1625 20.568C45.082 20.0464 45.2058 21.2267 45.9882 20.9939C45.975 21.2135 45.7142 21.4198 45.4253 21.405C45.7274 21.679 45.3015 22.0916 45.9469 22.3376C45.3973 22.6116 44.6297 22.3244 44.4233 21.5684C44.2451 21.9249 43.5996 21.9249 43.3388 21.6377C43.9017 21.4875 43.8605 20.9659 43.5452 20.7595C43.2266 20.5515 42.6653 20.6357 42.5564 21.0071Z" fill="#337321" stroke="black" stroke-width="0.0247605"/>
<path d="M39.7717 23.0623C40.0276 23.8876 40.5575 24.6569 41.1286 25.1801C41.7872 25.7843 42.7826 25.6324 43.3389 25.0563C43.3521 26.2052 42.1619 26.2944 41.5 25.9345C41.2078 25.776 40.9718 25.8586 41.2524 26.1128C41.6783 26.4974 42.6093 26.783 43.7086 27.019C45.6301 27.43 44.945 28.9553 44.3821 28.9404C44.5439 28.9371 44.676 28.7688 44.4432 28.5591C42.776 27.0586 39.3855 27.6496 39.4399 24.3003C39.0834 25.1785 37.6143 24.8351 38.3009 23.7919C38.5205 23.9702 38.9051 23.9834 39.0157 23.7094C39.1015 23.4964 39.0454 23.125 38.6608 22.8048C38.7235 22.7998 38.8605 22.8048 38.8457 22.6463C38.8622 22.7387 38.9464 22.8757 39.1626 22.8295C39.2237 22.9269 39.2897 22.9913 39.3772 22.9566C39.3937 22.95 39.4465 22.9236 39.4251 22.8262C39.4416 23.0111 39.6578 23.0755 39.7717 23.0623Z" fill="#337321" stroke="black" stroke-width="0.0247605"/>
<path d="M41.4983 25.9346C42.294 26.4562 43.1952 26.4562 44.0239 25.4955C44.2847 25.1934 44.6957 24.9326 44.9846 24.9046C45.2735 24.8765 45.2586 24.6025 45.4782 24.548C45.3412 24.5067 45.2867 24.3417 45.0804 24.3631C45.5954 24.1848 45.4435 23.7722 45.6977 23.5741C45.4914 23.65 45.1695 23.3413 44.874 23.7326C44.9499 23.5543 44.846 23.3413 44.7717 23.2588C44.7997 23.4651 44.3672 23.5064 44.2847 24.028C44.2385 24.3202 44.0784 24.302 44.052 23.8498C44.0322 23.518 43.8737 22.6002 43.6822 22.1347C43.4907 21.6675 43.4462 21.0271 43.707 20.9313C43.6674 20.8653 43.6129 20.8059 43.5452 20.7629C43.2266 20.555 42.667 20.6391 42.5564 21.0105C42.1999 21.9432 43.2019 22.4797 43.1193 23.4949C42.9691 22.7405 41.7459 22.5474 41.7608 21.8062C41.363 21.9845 41.4174 22.3146 41.5693 22.5754C41.3217 22.1908 40.7588 22.823 40.2785 22.3014C40.224 22.9881 40.8281 23.2489 41.3217 23.2753C41.0741 23.7144 41.4042 24.0858 41.7327 24.208C41.7459 23.4387 43.3224 23.754 43.3389 25.0729C43.3521 26.1954 42.1438 26.2911 41.4983 25.9346Z" fill="#F7E017" stroke="black" stroke-width="0.0247605"/>
<path d="M43.7086 27.0191C45.63 27.4301 44.9449 28.9553 44.3821 28.9405C44.0238 28.9322 43.6822 28.6318 43.6607 28.371C43.2497 28.5905 43.3586 29.023 43.6739 29.1947C42.8089 29.0924 42.4458 29.6618 42.4243 30.2858C42.5828 29.9969 43.0631 29.9771 43.2414 30.0382C43.4197 30.0993 43.8802 30.1339 44.0651 29.9276C43.9132 30.058 44.1609 30.3601 43.9479 30.5928C44.6693 30.5648 44.9846 29.8929 44.8608 29.5975C45.7951 28.749 45.6168 27.3624 43.7086 27.0191Z" fill="#F7E017" stroke="black" stroke-width="0.0247605"/>
<path d="M42.2461 33.541C42.3715 33.6186 42.355 33.7836 42.2709 33.8876C42.1008 34.0956 42.3567 34.5925 41.8334 34.6767C41.6783 34.7014 41.5644 34.6024 41.5132 34.4258C41.3712 33.9372 41.8862 33.9042 41.9407 33.6747C41.9968 33.4469 42.1404 33.475 42.2461 33.541Z" fill="#F7E017" stroke="black" stroke-width="0.0247605"/>
<path d="M41.774 34.4273C41.9424 34.5132 42.0876 34.632 41.9985 35.1801C41.9605 35.4078 41.9523 35.9608 42.152 35.9757C42.0265 36.0318 41.7641 36.0863 41.6617 35.941C41.5511 36.1094 41.32 36.05 41.2359 35.8321C41.1088 35.9262 40.947 35.7512 40.9536 35.6059C40.843 35.6703 40.6334 35.563 40.6994 35.2362C40.5673 35.2774 40.4023 35.1784 40.3445 35.0926C40.5376 35.0612 41.0295 34.8202 41.1533 34.6172C41.2755 34.4158 41.5776 34.3283 41.774 34.4273Z" fill="#F7E017" stroke="black" stroke-width="0.0247605"/>
<path d="M41.66 35.9427C41.7162 35.8684 41.7492 35.5465 41.7178 35.3501" stroke="black" stroke-width="0.0247605"/>
<path d="M41.2358 35.8338C41.3233 35.7727 41.4917 35.5565 41.5264 35.3617" stroke="black" stroke-width="0.0247605"/>
<path d="M40.9519 35.6076C41.0609 35.5614 41.3349 35.2346 41.4009 35.0183" stroke="black" stroke-width="0.0247605"/>
<path d="M40.6978 35.2379C40.8249 35.2164 41.2227 34.9787 41.3927 34.7162" stroke="black" stroke-width="0.0247605"/>
<path d="M39.4399 24.302C39.4168 25.7084 40.0011 26.4215 40.8116 26.8837C40.5112 26.7037 40.6416 26.0864 40.2355 25.8866C40.3313 25.88 40.4831 26.0171 40.7225 25.9626C40.6053 25.7018 40.4138 25.3039 39.9681 25.2495C40.0853 25.2363 40.3395 25.2775 40.5029 25.2148C40.2702 24.8566 39.6528 25.0283 39.4399 24.302Z" fill="#F7E017" stroke="black" stroke-width="0.0247605"/>
<path d="M39.2947 22.9633C39.2451 22.9468 39.2039 22.8973 39.1626 22.8329C38.9464 22.8791 38.8622 22.7421 38.8457 22.6497C38.8589 22.8081 38.7235 22.8015 38.6591 22.8065C39.0454 23.1267 39.1015 23.4981 39.0157 23.7111C38.9051 23.9851 38.5221 23.9719 38.3009 23.7936C38.2729 24.3763 39.0289 24.5694 39.3029 23.8349C39.3029 23.9587 39.4614 23.9455 39.5026 24.1089C39.6974 23.7936 39.5489 23.3397 39.2947 22.9633Z" fill="#F7E017" stroke="black" stroke-width="0.0247605"/>
<path d="M38.0879 20.1769C37.7446 19.8616 37.5861 19.3334 37.601 19.0313C37.6142 18.7292 37.738 18.3991 38.1771 18.5377C38.0401 18.5377 38.1358 18.8117 37.9922 18.8398C38.1094 18.8811 38.2662 18.7853 38.2877 18.7226C38.3157 18.8184 38.494 18.7919 38.5072 18.9009C38.5766 18.8464 38.5006 18.579 38.3983 18.5229C38.4742 18.4816 38.5155 18.2687 38.4808 18.1663C38.4115 18.1795 38.3091 18.2769 38.2893 18.4139C38.324 18.3033 38.2827 18.0293 38.0896 17.988C38.0351 18.064 38.0203 18.2489 38.0962 18.3512C37.9179 18.3099 37.6571 18.4271 37.5944 18.5773C37.6076 18.3958 37.634 18.1366 37.7463 17.9732C37.7842 17.9187 37.6918 17.823 37.6192 17.9534C37.4854 17.6926 37.1289 17.5556 36.9704 17.686C36.812 17.8164 36.6007 17.6249 36.4703 17.8296C36.3399 18.0359 35.8975 18.0574 35.9206 18.2753C35.9338 18.4057 35.9024 18.6071 35.838 18.6797C35.6796 18.858 35.914 18.9884 35.9552 19.1468C35.9272 18.6252 36.7575 17.61 37.5894 18.0079C37.5135 18.1383 37.4475 18.3991 37.4244 18.7144C37.3897 19.1815 37.459 19.8401 37.9113 20.2247L38.0879 20.1769Z" fill="#337321" stroke="black" stroke-width="0.0247605"/>
<path d="M38.3339 18.5427C38.329 18.4189 38.5436 18.2587 38.8308 18.262C39.1775 18.2653 39.4449 18.5806 39.7222 18.5509C39.9995 18.5196 39.8625 18.6747 39.8047 18.716C39.7469 18.7573 39.7123 18.8183 39.7321 18.8943C39.7519 18.9702 39.7172 19.0197 39.605 18.9487C39.3574 18.7936 39.1114 19.0098 38.7846 18.891C38.5056 18.7853 38.3422 18.7275 38.3339 18.5427Z" fill="#C8102E" stroke="black" stroke-width="0.0247605"/>
<path d="M36.9209 21.783C36.7839 21.3505 36.2623 20.8768 36.0081 20.7678L35.9949 20.5351C36.1319 20.4806 36.462 20.2198 36.6122 20.0746C37.6423 20.5681 39.0421 19.8682 39.6875 19.1419L39.9351 19.2921L39.8113 19.4572L39.6809 19.3879C39.5224 19.5793 38.9331 20.134 38.7548 20.2512C38.9942 20.3123 39.3227 20.3535 39.4135 20.3486C39.9896 19.9359 40.4419 19.5661 40.6614 19.5381L40.8463 19.7857L40.6812 19.9029L40.5508 19.8269C39.9334 20.3354 39.2336 21.4463 38.9579 22.1875C38.5749 22.1049 37.2015 22.1594 36.9209 21.783Z" fill="#96877D" stroke="black" stroke-width="0.0247605"/>
<path d="M38.7549 20.2512C38.6657 20.2281 38.5898 20.2033 38.5419 20.1769C38.4313 20.2792 38.1573 20.3684 37.8074 20.3832" stroke="black" stroke-width="0.0247605"/>
<path d="M36.9754 21.6311C36.8829 21.1194 37.0299 20.5532 37.2907 20.3816C37.8602 20.7596 38.8357 20.7596 39.4118 20.3469" stroke="black" stroke-width="0.0247605"/>
<path d="M36.9753 21.3638C37.4144 21.3506 38.3685 21.4248 38.6013 21.4595C38.834 21.4942 39.2252 21.5899 39.1708 21.7071" stroke="black" stroke-width="0.0247605"/>
<path d="M37.1784 21.2911L37.3055 21.1656L37.1784 21.0402L37.053 21.164L37.1784 21.2911Z" stroke="black" stroke-width="0.0247605"/>
<path d="M37.4771 18.7358C37.3187 18.5163 36.8845 18.447 36.7904 18.7424C36.7492 18.8728 36.6881 19.0098 36.5841 19.0726C36.4818 19.1336 36.5049 19.3218 36.5494 19.4027C36.6584 19.6024 36.5626 19.7939 36.7756 19.9243C36.7756 19.7659 37.0083 19.6024 37.2081 19.5612C37.4078 19.5199 37.7082 19.3416 37.7495 19.1419C37.7924 18.9405 37.8618 18.7754 37.4771 18.7358Z" fill="#337321" stroke="black" stroke-width="0.0247605"/>
<path d="M36.4884 20.7117H36.5428L36.5445 21.0864C36.5561 21.0897 36.5676 21.0963 36.5775 21.1029L36.901 20.9164L36.9291 20.9642L36.6039 21.1524C36.6056 21.164 36.6072 21.1772 36.6056 21.1887L36.9291 21.3753L36.901 21.4231L36.5742 21.2382C36.566 21.2465 36.5544 21.2548 36.5428 21.2581V21.6311H36.4884V21.2564C36.4768 21.2531 36.4653 21.2465 36.4554 21.2399L36.1318 21.4264L36.1038 21.3786L36.4289 21.1904C36.4273 21.1788 36.4256 21.1656 36.4273 21.1541L36.1038 20.9675L36.1318 20.9197L36.457 21.1062C36.4653 21.0979 36.4768 21.0897 36.4884 21.0864V20.7117Z" fill="#96877D" stroke="black" stroke-width="0.0247605"/>
<path d="M36.9771 21.6295C36.8599 21.7484 36.6965 21.821 36.5149 21.821C36.155 21.821 35.8645 21.5305 35.8645 21.1706C35.8645 20.8108 36.155 20.5203 36.5149 20.5203C36.7262 20.5203 36.9127 20.621 37.0315 20.7761C36.9985 20.8587 36.9589 21.0419 36.9556 21.1244C36.9325 20.8999 36.7443 20.725 36.5132 20.725C36.2673 20.725 36.0692 20.9247 36.0692 21.169C36.0692 21.4149 36.2689 21.613 36.5132 21.613C36.7179 21.613 36.8962 21.4694 36.9474 21.2796C36.949 21.3654 36.9523 21.5619 36.9771 21.6295Z" fill="#96877D" stroke="black" stroke-width="0.0247605"/>
<path d="M36.2408 22.2485C36.1995 22.2006 36.1236 22.0702 36.1318 21.9745C36.1929 21.9679 36.3101 22.0091 36.3646 22.0636C36.358 21.9943 36.3299 21.8441 36.3448 21.7747C36.4207 21.8028 36.5775 21.8919 36.6337 21.9943C36.6205 21.925 36.5924 21.7467 36.6205 21.6377C36.703 21.6856 36.84 21.816 36.8681 21.9052C36.8747 21.7681 36.9225 21.542 36.9638 21.4859C37.0249 21.5469 37.1223 21.6031 37.1833 21.6856C37.1966 21.575 37.2527 21.4446 37.3336 21.4116C37.3946 21.4809 37.492 21.6377 37.5118 21.816C37.5729 21.7962 37.6554 21.6922 37.6901 21.6377C37.7248 21.6922 37.7594 21.788 37.738 21.9052C37.8139 21.8358 37.9031 21.7401 37.9229 21.6575C37.9773 21.6988 38.0813 21.8012 38.1077 21.9118C38.0945 21.8226 38.1011 21.6641 38.0731 21.575C38.1754 21.6295 38.258 21.7252 38.2794 21.8292C38.3075 21.7335 38.3685 21.5618 38.423 21.5205C38.4775 21.6311 38.5336 21.7615 38.5254 21.8705C38.56 21.8012 38.6145 21.679 38.669 21.6509C38.7168 21.7269 38.7102 21.8919 38.697 21.9811C38.7449 21.9118 38.834 21.8309 38.8885 21.8028C38.8951 21.8441 38.9017 21.9266 38.8885 21.9877C38.9496 21.953 39.0536 21.7681 39.0883 21.6724C39.184 21.7203 39.2797 21.8853 39.288 21.9679C39.3573 21.9398 39.4943 21.8177 39.5356 21.7483C39.5356 21.7962 39.5571 21.9266 39.529 22.029C39.5703 21.9877 39.6115 21.9052 39.6313 21.8705C39.6594 21.9398 39.6379 22.1032 39.6099 22.1924C39.671 22.1379 39.7617 22.1032 39.8162 22.1032C39.8228 22.2204 39.7403 22.4251 39.6643 22.577C39.0074 22.3938 37.6274 22.3244 36.2408 22.2485Z" fill="#337321" stroke="black" stroke-width="0.0247605"/>
<path d="M38.5386 18.6137C38.5353 18.5625 38.6476 18.4486 38.8506 18.4502C39.0933 18.4519 39.3178 18.6302 39.5109 18.617C39.7057 18.6038 39.61 18.6681 39.5687 18.6846C39.5274 18.7012 39.5043 18.7276 39.5175 18.7573C39.5324 18.7886 39.5076 18.8084 39.4284 18.7804C39.255 18.7177 39.0817 18.8051 38.8539 18.7573C38.6575 18.7127 38.5436 18.6896 38.5386 18.6137Z" fill="#F7E017"/>
<path d="M36.4538 22.6612C36.2474 22.9089 36.0427 22.8676 36.0015 22.7091C35.9602 22.5507 36.1121 22.4764 36.0559 22.3377C36.0015 22.2007 36.1451 22.138 36.2144 22.2007C36.2837 22.2618 36.5033 22.0637 36.599 22.27C36.6948 22.4764 36.7707 22.62 36.7162 22.7025C36.6601 22.7851 36.495 22.7438 36.4538 22.6612Z" fill="#F7E017" stroke="black" stroke-width="0.0247605"/>
<path d="M37.3386 22.2898C37.3006 22.199 37.5136 22.0257 37.6242 22.1495C37.7347 22.2733 37.9064 22.0158 38.0022 22.2106C38.0979 22.407 38.1293 22.5093 38.1771 22.6183C38.225 22.7289 37.9163 22.7867 37.8206 22.6909C37.8338 22.7553 37.5532 22.8065 37.4772 22.6216C37.436 22.5242 37.3914 22.4103 37.3386 22.2898Z" fill="#F7E017" stroke="black" stroke-width="0.0247605"/>
<path d="M38.7664 22.4036C38.7153 22.3079 38.9662 22.1709 39.0966 22.3459C39.1312 22.2732 39.3788 22.26 39.3953 22.4697C39.4119 22.6793 39.4201 22.8031 39.4267 22.8857C39.4333 22.9682 39.2765 23.0441 39.1626 22.8345C38.9596 22.8757 38.8671 22.7618 38.844 22.643C38.8192 22.5208 38.7945 22.4614 38.7664 22.4036Z" fill="#F7E017" stroke="black" stroke-width="0.0247605"/>
<path d="M36.5874 22.2667C36.5561 22.1974 36.7624 22.0604 36.9027 22.1643C37.043 22.2667 37.2378 22.0752 37.322 22.2601C37.4904 22.6348 37.5003 22.6612 37.4491 22.7338C37.3979 22.8065 37.1784 22.7784 37.1223 22.6794C37.1123 22.7487 36.9225 22.7371 36.8235 22.6827C36.7112 22.6199 36.632 22.3905 36.5874 22.2667Z" fill="#337321" stroke="black" stroke-width="0.0247605"/>
<path d="M38.0319 22.2832C37.984 22.1775 38.3059 22.0834 38.4479 22.27C38.5205 22.2039 38.6773 22.2006 38.7665 22.4037C38.8556 22.6067 38.8688 22.7189 38.8044 22.7701C38.7582 22.8064 38.5915 22.8345 38.537 22.7421C38.4611 22.7899 38.2283 22.7487 38.1772 22.6183C38.126 22.4895 38.0814 22.3756 38.0319 22.2832Z" fill="#337321" stroke="black" stroke-width="0.0247605"/>
<path d="M39.3986 22.4863C39.392 22.3905 39.567 22.346 39.6314 22.4863C39.6974 22.6266 39.9054 22.4995 39.9235 22.7339C39.9268 22.7784 39.8988 22.9501 39.8344 23.0326C39.77 23.1152 39.4498 23.0326 39.43 22.8577C39.4085 22.681 39.4019 22.582 39.3986 22.4863Z" fill="#337321" stroke="black" stroke-width="0.0247605"/>
<path d="M36.4538 22.6612C36.3779 22.5589 36.2755 22.3938 36.1451 22.5721" stroke="black" stroke-width="0.0247605"/>
<path d="M37.124 22.6777C37.0795 22.6199 37.0217 22.5226 37.0002 22.4483" stroke="black" stroke-width="0.0247605"/>
<path d="M37.8206 22.6926C37.7727 22.6579 37.7001 22.5902 37.6621 22.5176" stroke="black" stroke-width="0.0247605"/>
<path d="M37.7579 22.3311C37.8784 22.3443 37.961 22.4582 37.9973 22.5094C38.0353 22.5606 38.1145 22.653 38.1756 22.6646" stroke="black" stroke-width="0.0247605"/>
<path d="M38.537 22.7438C38.4958 22.6777 38.4545 22.62 38.4446 22.5721" stroke="black" stroke-width="0.0247605"/>
<path d="M38.4479 22.27C38.4891 22.3278 38.5205 22.3757 38.5436 22.4318" stroke="black" stroke-width="0.0247605"/>
<path d="M39.1609 22.8329C39.1065 22.7305 39.0206 22.6298 38.948 22.5968" stroke="black" stroke-width="0.0247605"/>
<path d="M39.1345 22.4549C39.1411 22.6579 39.4118 22.6711 39.4234 22.8147" stroke="black" stroke-width="0.0247605"/>
<path d="M39.6315 22.4863C39.6595 22.5374 39.6694 22.5886 39.6727 22.6744" stroke="black" stroke-width="0.0247605"/>
<mask id="mask1_1_41931" style="mask-type:alpha" maskUnits="userSpaceOnUse" x="3" y="9" width="24" height="18">
<rect x="3" y="9" width="24" height="18" fill="#C4C4C4"/>
</mask>
<g mask="url(#mask1_1_41931)">
<path d="M3 9L27 27L3 9ZM27 9L3 27Z" fill="black"/>
<path d="M27 9L3 27M3 9L27 27L3 9Z" stroke="white" stroke-width="2.4"/>
<path d="M3 9L27 27L3 9ZM27 9L3 27Z" fill="black"/>
<path d="M27 9L3 27M3 9L27 27L3 9Z" stroke="#EE5757" stroke-width="1.6"/>
<path d="M15 9V30V9ZM3 18H31Z" fill="black"/>
<path d="M3 18H31M15 9V30V9Z" stroke="white" stroke-width="4"/>
<path d="M15 9V30V9ZM3 18H31Z" fill="black"/>
<path d="M3 18H31M15 9V30V9Z" stroke="#EE5757" stroke-width="2.4"/>
</g>
</g>
</svg>
