<svg width="54" height="48" viewBox="0 0 54 48" fill="none" xmlns="http://www.w3.org/2000/svg">
<mask id="mask0_1_41931" style="mask-type:alpha" maskUnits="userSpaceOnUse" x="3" y="6" width="48" height="36">
<path d="M3.56934 15.1356C4.16681 10.4125 8.0415 7.00193 12.7861 6.60887C16.6412 6.28949 21.6196 6 27 6C32.3804 6 37.3588 6.28949 41.2139 6.60887C45.9585 7.00193 49.8332 10.4125 50.4307 15.1356C50.752 17.6759 51 20.704 51 24C51 27.296 50.752 30.3241 50.4307 32.8644C49.8332 37.5875 45.9585 40.9981 41.2139 41.3911C37.3588 41.7105 32.3804 42 27 42C21.6196 42 16.6412 41.7105 12.7861 41.3911C8.0415 40.9981 4.16681 37.5875 3.56934 32.8644C3.248 30.3241 3 27.296 3 24C3 20.704 3.248 17.6759 3.56934 15.1356Z" fill="#00D0BF"/>
</mask>
<g mask="url(#mask0_1_41931)">
<rect x="3" y="6" width="48" height="36" fill="#2E50A6"/>
<path d="M33.8969 24.7437C33.3686 25.1911 32.8652 25.8448 32.7414 26.4357C32.3931 28.098 31.9309 28.4677 31.2178 28.1112C31.2178 29.0042 32.0002 29.0719 32.3436 28.5503C32.3436 29.3872 32.6473 30.1135 33.3323 30.7325C33.6212 30.9933 33.6757 30.815 33.5387 30.5262C33.4017 30.2373 33.4017 29.3046 33.1276 28.7698C33.5667 29.0851 34.2121 28.9068 34.1577 28.0418C33.5948 28.372 33.0352 28.3588 32.9774 27.5747C32.9064 26.6553 33.2646 25.3198 33.8969 24.7437Z" fill="#F7E017" stroke="black" stroke-width="0.0247605"/>
<path d="M33.2283 18.1326C33.2663 17.8025 33.1953 17.4641 32.9543 17.2511C32.4888 16.8418 32.0332 16.9771 31.6932 17.3073C31.1848 17.0332 30.9157 18.0055 30.3396 17.8421C30.4353 18.1574 30.5872 18.2944 30.8744 18.1854C30.5723 18.4594 30.8744 18.7896 30.5179 19.1181C31.1633 19.3244 31.5066 18.9679 31.4786 18.3488C31.7262 18.5684 32.1092 18.5552 32.3155 18.3076C31.9721 18.197 31.9705 17.8999 32.1092 17.6209C32.3155 17.2099 33.2828 17.2264 33.2283 18.1326Z" fill="#F7E017" stroke="black" stroke-width="0.0247605"/>
<path d="M34.7172 22.9081C33.9893 23.2927 32.6588 23.1277 32.535 22.1802C32.4112 21.2327 33.3306 20.8068 33.5782 20.6846C33.9629 20.4915 34.2649 20.8348 34.1411 21.2343C34.567 21.0841 34.6628 20.5889 34.4564 20.3017C35.0193 20.3429 35.5409 19.9171 35.7605 19.3129C35.5624 19.5011 35.0243 19.374 34.5819 19.3459C34.7189 19.1957 34.7172 18.9019 34.676 18.75C34.2105 19.2287 33.537 19.0092 32.6456 20.3958C32.7826 19.9154 33.0434 18.9547 33.1953 18.3225C33.2101 18.2597 33.2217 18.197 33.2299 18.1326C33.2828 17.2264 32.3171 17.2099 32.1108 17.6226C32.3369 17.8768 32.2181 18.1739 32.1372 18.6246C32.0414 19.1594 31.8351 20.3958 31.6568 20.8068C31.6023 20.1614 31.1765 20.1201 31.0939 19.8048C30.9701 19.8873 30.9024 20.1069 30.9289 20.2571C30.777 20.092 30.2554 20.2984 30.0639 20.0508C29.8576 20.4618 30.1877 20.8745 30.531 21.0527C30.3313 21.0659 30.2834 21.3069 30.0639 21.3069C30.3594 21.6503 30.6614 21.7873 31.0114 21.8154C31.3613 21.8434 31.6222 21.9738 31.8351 22.3981C32.1784 23.0864 33.4858 23.5321 34.7172 22.9081Z" fill="#337321" stroke="black" stroke-width="0.0247605"/>
<path d="M36.5296 22.0696C36.1186 23.2086 34.9928 24.0191 34.4844 24.1429C33.6195 24.3525 31.8565 25.2092 31.3844 25.65C31.3101 25.6335 31.2408 25.6071 31.1896 25.5708C30.9569 25.4057 30.7637 24.8709 31.1764 24.4169C32.4673 23.2086 33.8539 23.7302 34.7188 22.9065C33.9909 23.2911 32.6604 23.1261 32.5366 22.1786C33.319 22.3849 34.7337 22.3981 35.8578 21.1898C36.008 21.3565 36.4471 21.8781 36.5296 22.0696Z" fill="#F7E017" stroke="black" stroke-width="0.0247605"/>
<path d="M33.8968 24.7437C33.2448 25.2967 32.9064 26.6552 32.9757 27.5747C32.9955 27.8305 33.0665 28.0039 33.1754 28.1095C33.2233 27.5879 33.5865 26.2393 34.5125 25.6384C35.2949 25.13 36.5165 23.991 36.9704 22.6869C36.8879 22.4542 36.7509 22.2891 36.49 22.1241C36.0394 23.3555 34.836 23.9464 33.8968 24.7437Z" fill="#337321" stroke="black" stroke-width="0.0247605"/>
<path d="M36.1104 21.5413C35.8776 21.8913 35.3478 22.3716 34.841 22.5648C34.95 22.441 34.9846 22.2841 34.9912 22.1537C34.3458 22.4013 33.0549 22.3733 32.5333 22.1818C33.3158 22.3881 34.7304 22.4013 35.8545 21.193C35.9668 21.3152 36.0625 21.4241 36.1104 21.5413Z" fill="#316D3A" stroke="black" stroke-width="0.0247605"/>
<path d="M31.1765 24.4168C30.1266 25.399 30.8199 26.2557 31.231 26.4489C31.122 27.1355 31.7658 27.053 31.7526 27.6291C32.0134 27.4789 32.0827 27.0794 32.0415 26.7641C32.3716 27.1207 33.2085 26.7229 33.3868 27.3815C33.4974 26.6535 32.9345 25.9272 32.2346 25.9949C32.5235 25.7341 32.3584 25.3082 32.0844 25.1993C32.0299 25.7341 31.4257 25.7341 31.1913 25.5707C30.9569 25.4056 30.7638 24.8708 31.1765 24.4168Z" fill="#337321" stroke="black" stroke-width="0.0247605"/>
<path d="M33.4479 30.6631C33.334 30.7291 33.3422 30.876 33.4132 30.9718C33.5568 31.1633 33.3108 31.599 33.7763 31.6931C33.9134 31.7212 34.019 31.637 34.0718 31.4802C34.2154 31.0477 33.7565 30.9998 33.7153 30.7935C33.674 30.5872 33.5436 30.6086 33.4479 30.6631Z" fill="#F7E017" stroke="black" stroke-width="0.0247605"/>
<path d="M33.8391 31.4736C33.6856 31.5446 33.5502 31.6453 33.6129 32.1389C33.6377 32.3436 33.6262 32.8388 33.4479 32.8454C33.5568 32.8998 33.7912 32.9593 33.887 32.8322C33.9794 32.9873 34.189 32.9428 34.2716 32.7496C34.3805 32.8388 34.5324 32.6885 34.5324 32.5581C34.6281 32.6192 34.8213 32.5301 34.7717 32.2363C34.8889 32.2775 35.0392 32.195 35.0936 32.1191C34.922 32.0844 34.4895 31.8516 34.3871 31.6668C34.2848 31.4802 34.0174 31.3911 33.8391 31.4736Z" fill="#F7E017" stroke="black" stroke-width="0.0247605"/>
<path d="M31.4603 17.5896C31.5297 17.4872 31.6072 17.3915 31.6931 17.3073" stroke="black" stroke-width="0.0247605"/>
<path d="M34.0718 19.4069C34.1923 19.3376 34.3772 19.3294 34.5818 19.3426" stroke="black" stroke-width="0.0247605"/>
<path d="M33.8869 32.8322C33.839 32.7629 33.8208 32.4756 33.8555 32.3007" stroke="black" stroke-width="0.0247605"/>
<path d="M34.2715 32.7496C34.1956 32.6918 34.052 32.4921 34.0272 32.3171" stroke="black" stroke-width="0.0247605"/>
<path d="M34.5323 32.5582C34.4366 32.5136 34.2022 32.2115 34.151 32.0167" stroke="black" stroke-width="0.0247605"/>
<path d="M34.7716 32.2346C34.6577 32.2099 34.3111 31.9837 34.1675 31.7444" stroke="black" stroke-width="0.0247605"/>
<path d="M41.1004 24.4317C42.7891 25.8464 42.8981 26.9705 42.6373 27.6308C42.5002 27.0134 41.8003 26.0527 41.0724 25.8051L41.1004 24.4317Z" fill="#F7E017" stroke="black" stroke-width="0.0247605"/>
<path d="M38.0813 23.6345H41.211C41.211 23.6345 41.211 24.4582 41.211 27.3403C41.211 30.4981 39.4547 32.365 37.6686 33.3521C35.8842 32.3634 34.1262 30.4964 34.1262 27.3403C34.1262 24.4582 34.1262 23.6345 34.1262 23.6345H36.3233C36.3266 23.8259 36.3448 24.1148 36.5709 24.4037C37.0892 24.3525 37.6752 23.9646 38.0813 23.6345Z" fill="#337321" stroke="black" stroke-width="0.0247605"/>
<path d="M41.211 23.6345C41.211 23.6345 41.211 24.4582 41.211 27.3403C41.211 28.2927 41.0509 29.1296 40.7785 29.8576L37.6703 24.1544L34.562 29.8576C34.2896 29.128 34.1295 28.2927 34.1295 27.3403C34.1295 24.4582 34.1295 23.6345 34.1295 23.6345H41.211Z" fill="#006EC7" stroke="black" stroke-width="0.0247605"/>
<path d="M40.8727 29.5852C40.8183 29.7536 40.7176 30.0259 40.6416 30.1943L37.6704 24.6711L34.6991 30.1943C34.6215 30.0259 34.5225 29.7536 34.468 29.5852L37.672 23.646L40.8727 29.5852Z" fill="#F7E017"/>
<path d="M39.0816 31.6173C39.1642 31.6585 39.316 31.7345 39.3837 31.7625C39.5488 31.4324 39.5752 30.9669 39.5207 30.5542C39.3425 31.0082 38.7383 30.9933 38.5732 31.2673C38.6739 31.3185 38.768 31.3845 38.8489 31.4423C38.6426 31.6486 38.1605 31.9936 37.8865 32.0762V29.1313C37.8865 28.925 37.8172 28.7533 37.8172 28.5816C37.8172 28.5816 37.8172 28.1095 37.8172 27.9725C37.8172 27.8355 37.7891 27.6358 37.667 27.6358C37.5432 27.6358 37.5168 27.8355 37.5168 27.9725C37.5168 28.1095 37.5168 28.5816 37.5168 28.5816C37.5168 28.7533 37.4474 28.953 37.4474 29.1313V32.0762C37.2972 31.6371 36.7046 31.7873 36.4306 31.3482C36.5379 31.3218 36.6518 31.3135 36.7608 31.335C36.5544 30.6351 35.9915 30.5806 35.8826 30.3743C35.8826 30.6632 35.7588 31.335 35.9519 31.6239C35.9948 31.5727 36.0592 31.5182 36.1384 31.472C36.3712 31.9804 37.421 31.9821 37.6686 32.819C37.8667 32.5103 38.5815 32.1537 39.0816 31.6173Z" fill="#F7E017" stroke="black" stroke-width="0.0247605"/>
<path d="M37.6687 29.1675C37.9014 29.1675 38.6426 29.0916 38.9116 29.0916C38.981 29.0916 39.0387 28.9876 39.0387 28.8589C39.0387 28.7301 38.9826 28.6261 38.9116 28.6261C38.6442 28.6261 37.9031 28.5502 37.6687 28.5502C37.4359 28.5502 36.6948 28.6261 36.4257 28.6261C36.3564 28.6261 36.2986 28.7301 36.2986 28.8589C36.2986 28.9876 36.3547 29.0916 36.4257 29.0916C36.6948 29.0916 37.4359 29.1675 37.6687 29.1675Z" fill="#F7E017" stroke="black" stroke-width="0.0247605"/>
<path d="M37.5185 27.961C37.469 27.9213 37.4046 27.8966 37.332 27.8966C37.1768 27.8966 37.0497 28.0121 37.0497 28.1541C37.0497 28.296 37.1752 28.4116 37.332 28.4116C37.4871 28.4116 37.6126 28.296 37.6126 28.1541C37.6126 28.0435 37.7727 28.0435 37.7727 28.1541C37.7727 28.3769 37.5746 28.5569 37.332 28.5569C37.0877 28.5569 36.8912 28.3769 36.8912 28.1541C36.8912 27.9312 37.0893 27.7513 37.332 27.7513C37.4046 27.7513 37.4739 27.7678 37.535 27.7959C37.5301 27.8322 37.5185 27.9015 37.5185 27.961Z" fill="#F7E017" stroke="black" stroke-width="0.0247605"/>
<path d="M36.4274 29.0916C36.4967 29.0916 36.5528 28.9876 36.5528 28.8589C36.5528 28.7301 36.4967 28.6261 36.4274 28.6261" fill="#F7E017"/>
<path d="M36.4274 29.0916C36.4967 29.0916 36.5528 28.9876 36.5528 28.8589C36.5528 28.7301 36.4967 28.6261 36.4274 28.6261" stroke="black" stroke-width="0.0247605"/>
<path d="M36.5297 29.0916C36.599 29.0916 36.6551 28.9876 36.6551 28.8589C36.6551 28.7301 36.599 28.6261 36.5297 28.6261" fill="#F7E017"/>
<path d="M36.5297 29.0916C36.599 29.0916 36.6551 28.9876 36.6551 28.8589C36.6551 28.7301 36.599 28.6261 36.5297 28.6261" stroke="black" stroke-width="0.0247605"/>
<path d="M37.2081 29.1395C37.2923 29.1395 37.36 29.0141 37.36 28.8589C37.36 28.7037 37.2923 28.5783 37.2081 28.5783" fill="#F7E017"/>
<path d="M37.2081 29.1395C37.2923 29.1395 37.36 29.0141 37.36 28.8589C37.36 28.7037 37.2923 28.5783 37.2081 28.5783" stroke="black" stroke-width="0.0247605"/>
<path d="M37.365 29.1511C37.4525 29.1511 37.5235 29.019 37.5235 28.8572C37.5235 28.6955 37.4525 28.5634 37.365 28.5634" fill="#F7E017"/>
<path d="M37.365 29.1511C37.4525 29.1511 37.5235 29.019 37.5235 28.8572C37.5235 28.6955 37.4525 28.5634 37.365 28.5634" stroke="black" stroke-width="0.0247605"/>
<path d="M37.8932 29.1544C37.9823 29.1544 38.0533 29.0207 38.0533 28.8573C38.0533 28.6939 37.9807 28.5602 37.8932 28.5602" fill="#F7E017"/>
<path d="M37.8932 29.1544C37.9823 29.1544 38.0533 29.0207 38.0533 28.8573C38.0533 28.6939 37.9807 28.5602 37.8932 28.5602" stroke="black" stroke-width="0.0247605"/>
<path d="M38.0582 29.1461C38.1457 29.1461 38.2167 29.0173 38.2167 28.8589C38.2167 28.7004 38.1457 28.5717 38.0582 28.5717" fill="#F7E017"/>
<path d="M38.0582 29.1461C38.1457 29.1461 38.2167 29.0173 38.2167 28.8589C38.2167 28.7004 38.1457 28.5717 38.0582 28.5717" stroke="black" stroke-width="0.0247605"/>
<path d="M38.7961 29.0949C38.8671 29.0949 38.9249 28.9893 38.9249 28.8572C38.9249 28.7252 38.8671 28.6195 38.7961 28.6195" fill="#F7E017"/>
<path d="M38.7961 29.0949C38.8671 29.0949 38.9249 28.9893 38.9249 28.8572C38.9249 28.7252 38.8671 28.6195 38.7961 28.6195" stroke="black" stroke-width="0.0247605"/>
<path d="M36.1384 31.472C36.2226 31.4208 36.325 31.3746 36.4323 31.3499L36.1384 31.472Z" fill="#F7E017"/>
<path d="M36.1384 31.472C36.2226 31.4208 36.325 31.3746 36.4323 31.3499" stroke="black" stroke-width="0.0247605"/>
<path d="M38.9315 31.5C38.9067 31.4818 38.8786 31.4637 38.8506 31.4422L38.9315 31.5Z" fill="#F7E017"/>
<path d="M38.9315 31.5C38.9067 31.4818 38.8786 31.4637 38.8506 31.4422" stroke="black" stroke-width="0.0247605"/>
<path d="M39.0817 31.6173C39.2731 31.4109 39.4333 31.1782 39.5224 30.9108L39.0817 31.6173Z" fill="#F7E017"/>
<path d="M39.0817 31.6173C39.2731 31.4109 39.4333 31.1782 39.5224 30.9108" stroke="black" stroke-width="0.0247605"/>
<path d="M37.0398 26.2558C37.0398 26.1881 37.0943 26.16 37.1586 26.1121C37.2362 26.0544 37.2676 26.0263 37.3369 26.0263H38.2382C38.3042 26.0263 38.3207 26.0428 38.3207 26.1055V27.3287C38.3207 27.3898 38.3059 27.4079 38.2382 27.4079H37.0398V26.2425" fill="white"/>
<path d="M37.0398 26.2558C37.0398 26.1881 37.0943 26.16 37.1586 26.1121C37.2362 26.0544 37.2676 26.0263 37.3369 26.0263H38.2382C38.3042 26.0263 38.3207 26.0428 38.3207 26.1055V27.3287C38.3207 27.3898 38.3059 27.4079 38.2382 27.4079H37.0398V26.2425" stroke="black" stroke-width="0.0247605"/>
<path d="M38.0153 27.5152C38.1342 27.5152 38.1127 27.5119 38.1953 27.4294C38.2828 27.3435 38.2745 27.3501 38.2745 27.2709V26.1501C38.2745 26.0923 38.2596 26.0758 38.1986 26.0758H37.365C37.2989 26.0758 37.2709 26.1022 37.1999 26.1567C37.1405 26.2012 37.0909 26.2293 37.0909 26.292V27.5152H38.0153Z" fill="#E5E5E5" stroke="black" stroke-width="0.0247605"/>
<path d="M38.1045 27.4889C38.1045 27.5499 38.0896 27.5681 38.022 27.5681H37.1207C37.053 27.5681 37.0398 27.5516 37.0398 27.4889V26.264C37.0398 26.203 37.0547 26.1848 37.1207 26.1848H38.022C38.0896 26.1848 38.1045 26.2013 38.1045 26.264V27.4889Z" fill="white" stroke="black" stroke-width="0.0247605"/>
<path d="M39.8509 22.9163C40.0258 23.1127 40.0836 23.3752 39.9879 23.6327H39.7271C39.836 23.3026 39.7683 22.9889 39.3012 22.9477C38.6029 22.8866 37.7908 24.2385 36.5693 24.4019C36.2127 23.9761 36.2309 23.1656 36.6848 22.781C36.4504 22.1058 35.9569 21.363 35.6135 21.0428C35.389 21.0065 35.1299 20.9883 34.9631 20.9982C35.1414 20.6136 35.6498 20.2092 36.0625 20.0441C36.1285 19.9467 36.2012 19.8526 36.2672 19.7684C36.3085 19.2402 38.8208 19.4878 39.3557 19.8163C39.3573 20.4089 39.5901 22.3815 39.8509 22.9163Z" fill="#96877D" stroke="black" stroke-width="0.0247605"/>
<path d="M36.8071 23.2778C36.7476 22.3633 36.3779 21.609 35.8579 21.0956C36.1055 21.1649 36.6123 21.1649 36.9556 20.9173C37.4079 20.6153 38.5898 20.087 39.0223 20.3132C39.057 20.3891 39.0768 20.5608 39.0504 20.6697C38.948 20.3957 37.8074 20.8199 37.4855 20.9503C37.1768 21.094 37.0398 21.2871 37.1488 21.7196C36.9705 21.5694 37.0316 21.4241 36.8467 21.3152C36.921 21.4934 36.982 21.8153 37.0035 22.0761C36.9342 21.8912 36.812 21.4934 36.543 21.259C36.7757 21.7113 36.9787 22.7991 36.883 23.3769C37.0679 23.3769 37.4772 23.1953 37.6407 23.0649C37.4971 23.2712 37.0811 23.4148 36.8137 23.4693C36.6932 23.6129 36.6106 23.9843 36.6172 24.1907C36.5991 23.9365 36.6783 23.3175 36.8071 23.2778Z" fill="black"/>
<path d="M39.8509 22.9163C39.6231 22.6638 39.1989 22.5268 38.6575 22.6737C38.74 22.6324 38.9183 22.5631 39.0767 22.5367C39.0569 22.3931 38.9265 21.774 38.9051 21.6238L39.0569 21.5628C39.1329 21.9342 39.2286 22.3584 39.2897 22.5301C39.3376 22.5433 39.4482 22.5647 39.5439 22.6126C39.5026 22.469 39.2699 21.4323 39.2765 21.3217L39.4828 21.2112C39.5637 21.774 39.6941 22.5911 39.8509 22.9163Z" fill="black"/>
<path d="M39.7287 23.6344C39.8376 23.3043 39.77 22.9907 39.3028 22.9494C38.9413 22.918 38.5484 23.2696 38.0846 23.6344H39.7287Z" fill="#96877D" stroke="black" stroke-width="0.0247605"/>
<path d="M36.6948 20.6763C36.4884 20.7044 36.0295 20.6631 35.7951 20.5872C35.8083 20.5245 35.8331 20.4618 35.8628 20.3924C35.7192 20.4882 35.4452 20.6763 35.3412 20.8068C35.6713 20.8761 36.3514 20.9107 36.6948 20.6763Z" fill="#96877D" stroke="black" stroke-width="0.0247605"/>
<path d="M36.6865 22.7827C36.7625 23.0022 36.812 23.2135 36.8186 23.4017" stroke="black" stroke-width="0.0247605"/>
<path d="M36.0642 20.0458C35.9404 20.2274 35.8315 20.4221 35.7952 20.5872C36.0279 20.6631 36.4885 20.7044 36.6948 20.6763" stroke="black" stroke-width="0.0247605"/>
<path d="M35.6152 21.0445C35.7044 21.0593 35.7869 21.0759 35.8579 21.0957C36.1055 21.165 36.6123 21.165 36.9556 20.9174C37.299 20.6698 38.2316 19.9022 39.2897 19.8197" stroke="black" stroke-width="0.0247605"/>
<path d="M35.3428 20.8067C35.6729 20.8761 36.353 20.9091 36.6947 20.6763C37.4903 20.1349 38.2596 19.818 39.0288 19.7767" stroke="black" stroke-width="0.0247605"/>
<path d="M41.1005 24.4317C42.2527 25.2273 43.1044 25.9966 43.352 27.2313C43.5996 28.466 44.0668 28.7962 44.6429 28.466C44.5059 29.1791 43.7911 29.2617 43.1886 28.7136C43.2431 29.5373 42.9146 30.5261 42.0628 30.8826C42.0084 30.3891 42.3352 29.9979 42.2411 29.5918C42.1998 29.4135 42.1866 29.0008 42.4194 28.8094C41.9671 28.9596 41.2523 28.6724 41.1847 27.9989C41.7063 28.2465 42.3781 28.2877 42.6389 27.6275C42.8981 26.9705 42.7891 25.8447 41.1005 24.4317Z" fill="#337321" stroke="black" stroke-width="0.0247605"/>
<path d="M42.5564 18.0071C42.9129 17.0745 43.8472 17.1702 44.1625 17.568C45.082 17.0464 45.2058 18.2267 45.9882 17.9939C45.975 18.2135 45.7142 18.4198 45.4253 18.405C45.7274 18.679 45.3015 19.0916 45.9469 19.3376C45.3973 19.6116 44.6297 19.3244 44.4233 18.5684C44.2451 18.9249 43.5996 18.9249 43.3388 18.6377C43.9017 18.4875 43.8605 17.9659 43.5452 17.7595C43.2266 17.5515 42.6653 17.6357 42.5564 18.0071Z" fill="#337321" stroke="black" stroke-width="0.0247605"/>
<path d="M39.7717 20.0623C40.0276 20.8876 40.5575 21.6569 41.1286 22.1801C41.7872 22.7843 42.7826 22.6324 43.3389 22.0563C43.3521 23.2052 42.1619 23.2944 41.5 22.9345C41.2078 22.776 40.9718 22.8586 41.2524 23.1128C41.6783 23.4974 42.6093 23.783 43.7086 24.019C45.6301 24.43 44.945 25.9553 44.3821 25.9404C44.5439 25.9371 44.676 25.7688 44.4432 25.5591C42.776 24.0586 39.3855 24.6496 39.4399 21.3003C39.0834 22.1785 37.6143 21.8351 38.3009 20.7919C38.5205 20.9702 38.9051 20.9834 39.0157 20.7094C39.1015 20.4964 39.0454 20.125 38.6608 19.8048C38.7235 19.7998 38.8605 19.8048 38.8457 19.6463C38.8622 19.7387 38.9464 19.8757 39.1626 19.8295C39.2237 19.9269 39.2897 19.9913 39.3772 19.9566C39.3937 19.95 39.4465 19.9236 39.4251 19.8262C39.4416 20.0111 39.6578 20.0755 39.7717 20.0623Z" fill="#337321" stroke="black" stroke-width="0.0247605"/>
<path d="M41.4983 22.9346C42.294 23.4562 43.1952 23.4562 44.0239 22.4955C44.2847 22.1934 44.6957 21.9326 44.9846 21.9046C45.2735 21.8765 45.2586 21.6025 45.4782 21.548C45.3412 21.5067 45.2867 21.3417 45.0804 21.3631C45.5954 21.1848 45.4435 20.7722 45.6977 20.5741C45.4914 20.65 45.1695 20.3413 44.874 20.7326C44.9499 20.5543 44.846 20.3413 44.7717 20.2588C44.7997 20.4651 44.3672 20.5064 44.2847 21.028C44.2385 21.3202 44.0784 21.302 44.052 20.8498C44.0322 20.518 43.8737 19.6002 43.6822 19.1347C43.4907 18.6675 43.4462 18.0271 43.707 17.9313C43.6674 17.8653 43.6129 17.8059 43.5452 17.7629C43.2266 17.555 42.667 17.6391 42.5564 18.0105C42.1999 18.9432 43.2019 19.4797 43.1193 20.4949C42.9691 19.7405 41.7459 19.5474 41.7608 18.8062C41.363 18.9845 41.4174 19.3146 41.5693 19.5754C41.3217 19.1908 40.7588 19.823 40.2785 19.3014C40.224 19.9881 40.8281 20.2489 41.3217 20.2753C41.0741 20.7144 41.4042 21.0858 41.7327 21.208C41.7459 20.4387 43.3224 20.754 43.3389 22.0729C43.3521 23.1954 42.1438 23.2911 41.4983 22.9346Z" fill="#F7E017" stroke="black" stroke-width="0.0247605"/>
<path d="M43.7086 24.0191C45.63 24.4301 44.9449 25.9553 44.3821 25.9405C44.0238 25.9322 43.6822 25.6318 43.6607 25.371C43.2497 25.5905 43.3586 26.023 43.6739 26.1947C42.8089 26.0924 42.4458 26.6618 42.4243 27.2858C42.5828 26.9969 43.0631 26.9771 43.2414 27.0382C43.4197 27.0993 43.8802 27.1339 44.0651 26.9276C43.9132 27.058 44.1609 27.3601 43.9479 27.5928C44.6693 27.5648 44.9846 26.8929 44.8608 26.5975C45.7951 25.749 45.6168 24.3624 43.7086 24.0191Z" fill="#F7E017" stroke="black" stroke-width="0.0247605"/>
<path d="M42.2461 30.541C42.3715 30.6186 42.355 30.7836 42.2709 30.8876C42.1008 31.0956 42.3567 31.5925 41.8334 31.6767C41.6783 31.7014 41.5644 31.6024 41.5132 31.4258C41.3712 30.9372 41.8862 30.9042 41.9407 30.6747C41.9968 30.4469 42.1404 30.475 42.2461 30.541Z" fill="#F7E017" stroke="black" stroke-width="0.0247605"/>
<path d="M41.774 31.4273C41.9424 31.5132 42.0876 31.632 41.9985 32.1801C41.9605 32.4078 41.9523 32.9608 42.152 32.9757C42.0265 33.0318 41.7641 33.0863 41.6617 32.941C41.5511 33.1094 41.32 33.05 41.2359 32.8321C41.1088 32.9262 40.947 32.7512 40.9536 32.6059C40.843 32.6703 40.6334 32.563 40.6994 32.2362C40.5673 32.2774 40.4023 32.1784 40.3445 32.0926C40.5376 32.0612 41.0295 31.8202 41.1533 31.6172C41.2755 31.4158 41.5776 31.3283 41.774 31.4273Z" fill="#F7E017" stroke="black" stroke-width="0.0247605"/>
<path d="M41.66 32.9427C41.7162 32.8684 41.7492 32.5465 41.7178 32.3501" stroke="black" stroke-width="0.0247605"/>
<path d="M41.2358 32.8338C41.3233 32.7727 41.4917 32.5565 41.5264 32.3617" stroke="black" stroke-width="0.0247605"/>
<path d="M40.9519 32.6076C41.0609 32.5614 41.3349 32.2346 41.4009 32.0183" stroke="black" stroke-width="0.0247605"/>
<path d="M40.6978 32.2379C40.8249 32.2164 41.2227 31.9787 41.3927 31.7162" stroke="black" stroke-width="0.0247605"/>
<path d="M39.4399 21.302C39.4168 22.7084 40.0011 23.4215 40.8116 23.8837C40.5112 23.7037 40.6416 23.0864 40.2355 22.8866C40.3313 22.88 40.4831 23.0171 40.7225 22.9626C40.6053 22.7018 40.4138 22.3039 39.9681 22.2495C40.0853 22.2363 40.3395 22.2775 40.5029 22.2148C40.2702 21.8566 39.6528 22.0283 39.4399 21.302Z" fill="#F7E017" stroke="black" stroke-width="0.0247605"/>
<path d="M39.2947 19.9633C39.2451 19.9468 39.2039 19.8973 39.1626 19.8329C38.9464 19.8791 38.8622 19.7421 38.8457 19.6497C38.8589 19.8081 38.7235 19.8015 38.6591 19.8065C39.0454 20.1267 39.1015 20.4981 39.0157 20.7111C38.9051 20.9851 38.5221 20.9719 38.3009 20.7936C38.2729 21.3763 39.0289 21.5694 39.3029 20.8349C39.3029 20.9587 39.4614 20.9455 39.5026 21.1089C39.6974 20.7936 39.5489 20.3397 39.2947 19.9633Z" fill="#F7E017" stroke="black" stroke-width="0.0247605"/>
<path d="M38.0879 17.1769C37.7446 16.8616 37.5861 16.3334 37.601 16.0313C37.6142 15.7292 37.738 15.3991 38.1771 15.5377C38.0401 15.5377 38.1358 15.8117 37.9922 15.8398C38.1094 15.8811 38.2662 15.7853 38.2877 15.7226C38.3157 15.8184 38.494 15.7919 38.5072 15.9009C38.5766 15.8464 38.5006 15.579 38.3983 15.5229C38.4742 15.4816 38.5155 15.2687 38.4808 15.1663C38.4115 15.1795 38.3091 15.2769 38.2893 15.4139C38.324 15.3033 38.2827 15.0293 38.0896 14.988C38.0351 15.064 38.0203 15.2489 38.0962 15.3512C37.9179 15.3099 37.6571 15.4271 37.5944 15.5773C37.6076 15.3958 37.634 15.1366 37.7463 14.9732C37.7842 14.9187 37.6918 14.823 37.6192 14.9534C37.4854 14.6926 37.1289 14.5556 36.9704 14.686C36.812 14.8164 36.6007 14.6249 36.4703 14.8296C36.3399 15.0359 35.8975 15.0574 35.9206 15.2753C35.9338 15.4057 35.9024 15.6071 35.838 15.6797C35.6796 15.858 35.914 15.9884 35.9552 16.1468C35.9272 15.6252 36.7575 14.61 37.5894 15.0079C37.5135 15.1383 37.4475 15.3991 37.4244 15.7144C37.3897 16.1815 37.459 16.8401 37.9113 17.2247L38.0879 17.1769Z" fill="#337321" stroke="black" stroke-width="0.0247605"/>
<path d="M38.3339 15.5427C38.329 15.4189 38.5436 15.2587 38.8308 15.262C39.1775 15.2653 39.4449 15.5806 39.7222 15.5509C39.9995 15.5196 39.8625 15.6747 39.8047 15.716C39.7469 15.7573 39.7123 15.8183 39.7321 15.8943C39.7519 15.9702 39.7172 16.0197 39.605 15.9487C39.3574 15.7936 39.1114 16.0098 38.7846 15.891C38.5056 15.7853 38.3422 15.7275 38.3339 15.5427Z" fill="#C8102E" stroke="black" stroke-width="0.0247605"/>
<path d="M36.9209 18.783C36.7839 18.3505 36.2623 17.8768 36.0081 17.7678L35.9949 17.5351C36.1319 17.4806 36.462 17.2198 36.6122 17.0746C37.6423 17.5681 39.0421 16.8682 39.6875 16.1419L39.9351 16.2921L39.8113 16.4572L39.6809 16.3879C39.5224 16.5793 38.9331 17.134 38.7548 17.2512C38.9942 17.3123 39.3227 17.3535 39.4135 17.3486C39.9896 16.9359 40.4419 16.5661 40.6614 16.5381L40.8463 16.7857L40.6812 16.9029L40.5508 16.8269C39.9334 17.3354 39.2336 18.4463 38.9579 19.1875C38.5749 19.1049 37.2015 19.1594 36.9209 18.783Z" fill="#96877D" stroke="black" stroke-width="0.0247605"/>
<path d="M38.7549 17.2512C38.6657 17.2281 38.5898 17.2033 38.5419 17.1769C38.4313 17.2792 38.1573 17.3684 37.8074 17.3832" stroke="black" stroke-width="0.0247605"/>
<path d="M36.9754 18.6311C36.8829 18.1194 37.0299 17.5532 37.2907 17.3816C37.8602 17.7596 38.8357 17.7596 39.4118 17.3469" stroke="black" stroke-width="0.0247605"/>
<path d="M36.9753 18.3638C37.4144 18.3506 38.3685 18.4248 38.6013 18.4595C38.834 18.4942 39.2252 18.5899 39.1708 18.7071" stroke="black" stroke-width="0.0247605"/>
<path d="M37.1784 18.2911L37.3055 18.1656L37.1784 18.0402L37.053 18.164L37.1784 18.2911Z" stroke="black" stroke-width="0.0247605"/>
<path d="M37.4771 15.7358C37.3187 15.5163 36.8845 15.447 36.7904 15.7424C36.7492 15.8728 36.6881 16.0098 36.5841 16.0726C36.4818 16.1336 36.5049 16.3218 36.5494 16.4027C36.6584 16.6024 36.5626 16.7939 36.7756 16.9243C36.7756 16.7659 37.0083 16.6024 37.2081 16.5612C37.4078 16.5199 37.7082 16.3416 37.7495 16.1419C37.7924 15.9405 37.8618 15.7754 37.4771 15.7358Z" fill="#337321" stroke="black" stroke-width="0.0247605"/>
<path d="M36.4884 17.7117H36.5428L36.5445 18.0864C36.5561 18.0897 36.5676 18.0963 36.5775 18.1029L36.901 17.9164L36.9291 17.9642L36.6039 18.1524C36.6056 18.164 36.6072 18.1772 36.6056 18.1887L36.9291 18.3753L36.901 18.4231L36.5742 18.2382C36.566 18.2465 36.5544 18.2548 36.5428 18.2581V18.6311H36.4884V18.2564C36.4768 18.2531 36.4653 18.2465 36.4554 18.2399L36.1318 18.4264L36.1038 18.3786L36.4289 18.1904C36.4273 18.1788 36.4256 18.1656 36.4273 18.1541L36.1038 17.9675L36.1318 17.9197L36.457 18.1062C36.4653 18.0979 36.4768 18.0897 36.4884 18.0864V17.7117Z" fill="#96877D" stroke="black" stroke-width="0.0247605"/>
<path d="M36.9771 18.6295C36.8599 18.7484 36.6965 18.821 36.5149 18.821C36.155 18.821 35.8645 18.5305 35.8645 18.1706C35.8645 17.8108 36.155 17.5203 36.5149 17.5203C36.7262 17.5203 36.9127 17.621 37.0315 17.7761C36.9985 17.8587 36.9589 18.0419 36.9556 18.1244C36.9325 17.8999 36.7443 17.725 36.5132 17.725C36.2673 17.725 36.0692 17.9247 36.0692 18.169C36.0692 18.4149 36.2689 18.613 36.5132 18.613C36.7179 18.613 36.8962 18.4694 36.9474 18.2796C36.949 18.3654 36.9523 18.5619 36.9771 18.6295Z" fill="#96877D" stroke="black" stroke-width="0.0247605"/>
<path d="M36.2408 19.2485C36.1995 19.2006 36.1236 19.0702 36.1318 18.9745C36.1929 18.9679 36.3101 19.0091 36.3646 19.0636C36.358 18.9943 36.3299 18.8441 36.3448 18.7747C36.4207 18.8028 36.5775 18.8919 36.6337 18.9943C36.6205 18.925 36.5924 18.7467 36.6205 18.6377C36.703 18.6856 36.84 18.816 36.8681 18.9052C36.8747 18.7681 36.9225 18.542 36.9638 18.4859C37.0249 18.5469 37.1223 18.6031 37.1833 18.6856C37.1966 18.575 37.2527 18.4446 37.3336 18.4116C37.3946 18.4809 37.492 18.6377 37.5118 18.816C37.5729 18.7962 37.6554 18.6922 37.6901 18.6377C37.7248 18.6922 37.7594 18.788 37.738 18.9052C37.8139 18.8358 37.9031 18.7401 37.9229 18.6575C37.9773 18.6988 38.0813 18.8012 38.1077 18.9118C38.0945 18.8226 38.1011 18.6641 38.0731 18.575C38.1754 18.6295 38.258 18.7252 38.2794 18.8292C38.3075 18.7335 38.3685 18.5618 38.423 18.5205C38.4775 18.6311 38.5336 18.7615 38.5254 18.8705C38.56 18.8012 38.6145 18.679 38.669 18.6509C38.7168 18.7269 38.7102 18.8919 38.697 18.9811C38.7449 18.9118 38.834 18.8309 38.8885 18.8028C38.8951 18.8441 38.9017 18.9266 38.8885 18.9877C38.9496 18.953 39.0536 18.7681 39.0883 18.6724C39.184 18.7203 39.2797 18.8853 39.288 18.9679C39.3573 18.9398 39.4943 18.8177 39.5356 18.7483C39.5356 18.7962 39.5571 18.9266 39.529 19.029C39.5703 18.9877 39.6115 18.9052 39.6313 18.8705C39.6594 18.9398 39.6379 19.1032 39.6099 19.1924C39.671 19.1379 39.7617 19.1032 39.8162 19.1032C39.8228 19.2204 39.7403 19.4251 39.6643 19.577C39.0074 19.3938 37.6274 19.3244 36.2408 19.2485Z" fill="#337321" stroke="black" stroke-width="0.0247605"/>
<path d="M38.5386 15.6137C38.5353 15.5625 38.6476 15.4486 38.8506 15.4502C39.0933 15.4519 39.3178 15.6302 39.5109 15.617C39.7057 15.6038 39.61 15.6681 39.5687 15.6846C39.5274 15.7012 39.5043 15.7276 39.5175 15.7573C39.5324 15.7886 39.5076 15.8084 39.4284 15.7804C39.255 15.7177 39.0817 15.8051 38.8539 15.7573C38.6575 15.7127 38.5436 15.6896 38.5386 15.6137Z" fill="#F7E017"/>
<path d="M36.4538 19.6612C36.2474 19.9089 36.0427 19.8676 36.0015 19.7091C35.9602 19.5507 36.1121 19.4764 36.0559 19.3377C36.0015 19.2007 36.1451 19.138 36.2144 19.2007C36.2837 19.2618 36.5033 19.0637 36.599 19.27C36.6948 19.4764 36.7707 19.62 36.7162 19.7025C36.6601 19.7851 36.495 19.7438 36.4538 19.6612Z" fill="#F7E017" stroke="black" stroke-width="0.0247605"/>
<path d="M37.3386 19.2898C37.3006 19.199 37.5136 19.0257 37.6242 19.1495C37.7347 19.2733 37.9064 19.0158 38.0022 19.2106C38.0979 19.407 38.1293 19.5093 38.1771 19.6183C38.225 19.7289 37.9163 19.7867 37.8206 19.6909C37.8338 19.7553 37.5532 19.8065 37.4772 19.6216C37.436 19.5242 37.3914 19.4103 37.3386 19.2898Z" fill="#F7E017" stroke="black" stroke-width="0.0247605"/>
<path d="M38.7664 19.4036C38.7153 19.3079 38.9662 19.1709 39.0966 19.3459C39.1312 19.2732 39.3788 19.26 39.3953 19.4697C39.4119 19.6793 39.4201 19.8031 39.4267 19.8857C39.4333 19.9682 39.2765 20.0441 39.1626 19.8345C38.9596 19.8757 38.8671 19.7618 38.844 19.643C38.8192 19.5208 38.7945 19.4614 38.7664 19.4036Z" fill="#F7E017" stroke="black" stroke-width="0.0247605"/>
<path d="M36.5874 19.2667C36.5561 19.1974 36.7624 19.0604 36.9027 19.1643C37.043 19.2667 37.2378 19.0752 37.322 19.2601C37.4904 19.6348 37.5003 19.6612 37.4491 19.7338C37.3979 19.8065 37.1784 19.7784 37.1223 19.6794C37.1123 19.7487 36.9225 19.7371 36.8235 19.6827C36.7112 19.6199 36.632 19.3905 36.5874 19.2667Z" fill="#337321" stroke="black" stroke-width="0.0247605"/>
<path d="M38.0319 19.2832C37.984 19.1775 38.3059 19.0834 38.4479 19.27C38.5205 19.2039 38.6773 19.2006 38.7665 19.4037C38.8556 19.6067 38.8688 19.7189 38.8044 19.7701C38.7582 19.8064 38.5915 19.8345 38.537 19.7421C38.4611 19.7899 38.2283 19.7487 38.1772 19.6183C38.126 19.4895 38.0814 19.3756 38.0319 19.2832Z" fill="#337321" stroke="black" stroke-width="0.0247605"/>
<path d="M39.3986 19.4863C39.392 19.3905 39.567 19.346 39.6314 19.4863C39.6974 19.6266 39.9054 19.4995 39.9235 19.7339C39.9268 19.7784 39.8988 19.9501 39.8344 20.0326C39.77 20.1152 39.4498 20.0326 39.43 19.8577C39.4085 19.681 39.4019 19.582 39.3986 19.4863Z" fill="#337321" stroke="black" stroke-width="0.0247605"/>
<path d="M36.4538 19.6612C36.3779 19.5589 36.2755 19.3938 36.1451 19.5721" stroke="black" stroke-width="0.0247605"/>
<path d="M37.124 19.6777C37.0795 19.6199 37.0217 19.5226 37.0002 19.4483" stroke="black" stroke-width="0.0247605"/>
<path d="M37.8206 19.6926C37.7727 19.6579 37.7001 19.5902 37.6621 19.5176" stroke="black" stroke-width="0.0247605"/>
<path d="M37.7579 19.3311C37.8784 19.3443 37.961 19.4582 37.9973 19.5094C38.0353 19.5606 38.1145 19.653 38.1756 19.6646" stroke="black" stroke-width="0.0247605"/>
<path d="M38.537 19.7438C38.4958 19.6777 38.4545 19.62 38.4446 19.5721" stroke="black" stroke-width="0.0247605"/>
<path d="M38.4479 19.27C38.4891 19.3278 38.5205 19.3757 38.5436 19.4318" stroke="black" stroke-width="0.0247605"/>
<path d="M39.1609 19.8329C39.1065 19.7305 39.0206 19.6298 38.948 19.5968" stroke="black" stroke-width="0.0247605"/>
<path d="M39.1345 19.4549C39.1411 19.6579 39.4118 19.6711 39.4234 19.8147" stroke="black" stroke-width="0.0247605"/>
<path d="M39.6315 19.4863C39.6595 19.5374 39.6694 19.5886 39.6727 19.6744" stroke="black" stroke-width="0.0247605"/>
<mask id="mask1_1_41931" style="mask-type:alpha" maskUnits="userSpaceOnUse" x="3" y="6" width="24" height="18">
<rect x="3" y="6" width="24" height="18" fill="#C4C4C4"/>
</mask>
<g mask="url(#mask1_1_41931)">
<path d="M3 6L27 24L3 6ZM27 6L3 24L27 6Z" fill="black"/>
<path d="M27 6L3 24M3 6L27 24L3 6Z" stroke="white" stroke-width="2.4"/>
<path d="M3 6L27 24L3 6ZM27 6L3 24L27 6Z" fill="black"/>
<path d="M27 6L3 24M3 6L27 24L3 6Z" stroke="#EE5757" stroke-width="1.6"/>
<path d="M15 6V27V6ZM3 15H31H3Z" fill="black"/>
<path d="M3 15H31M15 6V27V6Z" stroke="white" stroke-width="4"/>
<path d="M15 6V27V6ZM3 15H31H3Z" fill="black"/>
<path d="M3 15H31M15 6V27V6Z" stroke="#EE5757" stroke-width="2.4"/>
</g>
</g>
</svg>
