<svg width="54" height="48" viewBox="0 0 54 48" fill="none" xmlns="http://www.w3.org/2000/svg">
<mask id="mask0_1_41919" style="mask-type:alpha" maskUnits="userSpaceOnUse" x="3" y="6" width="48" height="36">
<path d="M3.56934 15.1356C4.16681 10.4125 8.0415 7.00193 12.7861 6.60887C16.6412 6.28949 21.6196 6 27 6C32.3804 6 37.3588 6.28949 41.2139 6.60887C45.9585 7.00193 49.8332 10.4125 50.4307 15.1356C50.752 17.6759 51 20.704 51 24C51 27.296 50.752 30.3241 50.4307 32.8644C49.8332 37.5875 45.9585 40.9981 41.2139 41.3911C37.3588 41.7105 32.3804 42 27 42C21.6196 42 16.6412 41.7105 12.7861 41.3911C8.0415 40.9981 4.16681 37.5875 3.56934 32.8644C3.248 30.3241 3 27.296 3 24C3 20.704 3.248 17.6759 3.56934 15.1356Z" fill="#00D0BF"/>
</mask>
<g mask="url(#mask0_1_41919)">
<rect x="3" y="24" width="48" height="18" fill="#EE5757"/>
<rect x="3" y="6" width="48" height="18" fill="#2E50A6"/>
<path d="M3 4L32 24L3 44V4Z" fill="#F5F5F5"/>
<path d="M6.8343 11.0162L7.7797 11.8332L8.87429 11.2306L8.38944 12.3822L9.30076 13.237L8.05572 13.1317L7.52435 14.2626L7.23972 13.046L6 12.8901L7.06914 12.2434L6.8343 11.0162Z" fill="#FCD116"/>
<path d="M28.1173 22.3405L28.1428 23.5898L29.323 24L28.1428 24.4103L28.1173 25.6595L27.3625 24.6638L26.1665 25.0256L26.8802 24L26.1665 22.9744L27.3625 23.3362L28.1173 22.3405Z" fill="#FCD116"/>
<path d="M7.52435 33.7375L8.05572 34.8684L9.30076 34.7631L8.38944 35.6179L8.87429 36.7695L7.7797 36.1669L6.8343 36.9839L7.06914 35.7567L6 35.11L7.23972 34.9541L7.52435 33.7375Z" fill="#FCD116"/>
<path d="M15.0352 17.3695L14.6274 17.7773L14.8296 20.8658C14.7609 20.8703 14.6928 20.8769 14.6253 20.8857L14.254 18.0673L13.9212 18.4001L14.4223 20.9193C14.0101 21.0008 13.6271 21.1627 13.2901 21.3884L11.8633 19.253H11.3925L13.1231 21.5086C13.0688 21.5503 13.0162 21.594 12.9648 21.6391L10.9234 19.3114H10.3466V19.8882L12.6743 21.9296C12.6291 21.9811 12.5855 22.034 12.5438 22.0883L10.2882 20.3573V20.8281L12.424 22.2553C12.1984 22.5923 12.036 22.975 11.9545 23.3871L9.4353 22.8861L9.10253 23.2188L11.9209 23.5901C11.9121 23.6576 11.9054 23.7257 11.901 23.7944L8.81244 23.5922L8.40466 24L8.81244 24.4078L11.901 24.2055C11.9055 24.2743 11.9121 24.3428 11.9209 24.4102L9.10253 24.7811L9.4353 25.1139L11.9545 24.6129C12.036 25.025 12.1979 25.408 12.4236 25.7451L10.2881 27.1719V27.6426L12.5438 25.9121C12.5855 25.9664 12.6292 26.0189 12.6743 26.0704L10.3466 28.1117V28.6886H10.9234L12.9648 26.3609C13.0163 26.4061 13.0691 26.4496 13.1235 26.4914L11.3925 28.747H11.8633L13.2905 26.6112C13.6274 26.837 14.0102 26.9996 14.4223 27.0811L13.9212 29.5999L14.254 29.9326L14.6253 27.1143C14.6928 27.123 14.7609 27.1297 14.8296 27.1341L14.6274 30.2227L15.0352 30.6305L15.443 30.2227L15.2407 27.1341C15.3095 27.1297 15.3775 27.123 15.445 27.1143L15.8163 29.9326L16.1491 29.5999L15.6481 27.0807C16.0602 26.9991 16.4432 26.8372 16.7802 26.6116L18.207 28.747H18.6778L16.9472 26.4914C17.0015 26.4497 17.0541 26.406 17.1056 26.3609L19.1469 28.6886H19.7238V28.1117L17.3961 26.0704C17.4412 26.0189 17.4848 25.966 17.5266 25.9116L19.7822 27.6426V27.1719L17.6464 25.7446C17.872 25.4077 18.0344 25.0249 18.1159 24.6129L20.6351 25.1139L20.9678 24.7811L18.1494 24.4098C18.1582 24.3423 18.1649 24.2743 18.1693 24.2055L21.2579 24.4078L21.6657 24L21.2579 23.5922L18.1693 23.7944C18.1649 23.7257 18.1582 23.6576 18.1494 23.5901L20.9678 23.2188L20.6351 22.8861L18.1159 23.3871C18.0343 22.975 17.8724 22.5919 17.6468 22.2549L19.7822 20.8281V20.3573L17.5266 22.0879C17.4848 22.0336 17.4412 21.981 17.3961 21.9296L19.7238 19.8882V19.3114H19.1469L17.1056 21.6391C17.0541 21.5939 17.0012 21.5504 16.9468 21.5086L18.6778 19.253H18.207L16.7798 21.3888C16.4429 21.1632 16.0601 21.0008 15.6481 20.9193L16.1491 18.4001L15.8163 18.0673L15.445 20.8857C15.3775 20.8769 15.3095 20.8703 15.2407 20.8658L15.443 17.7773L15.0352 17.3695Z" fill="#FCD116"/>
</g>
</svg>
