<svg width="54" height="54" viewBox="0 0 54 54" fill="none" xmlns="http://www.w3.org/2000/svg">
<mask id="mask0_1_41919" style="mask-type:alpha" maskUnits="userSpaceOnUse" x="3" y="9" width="48" height="36">
<path d="M3.56934 18.1356C4.16681 13.4125 8.0415 10.0019 12.7861 9.60887C16.6412 9.28949 21.6196 9 27 9C32.3804 9 37.3588 9.28949 41.2139 9.60887C45.9585 10.0019 49.8332 13.4125 50.4307 18.1356C50.752 20.6759 51 23.704 51 27C51 30.296 50.752 33.3241 50.4307 35.8644C49.8332 40.5875 45.9585 43.9981 41.2139 44.3911C37.3588 44.7105 32.3804 45 27 45C21.6196 45 16.6412 44.7105 12.7861 44.3911C8.04151 43.9981 4.16681 40.5875 3.56934 35.8644C3.248 33.3241 3 30.296 3 27C3 23.704 3.248 20.6759 3.56934 18.1356Z" fill="#00D0BF"/>
</mask>
<g mask="url(#mask0_1_41919)">
<rect x="3" y="27" width="48" height="18" fill="#EE5757"/>
<rect x="3" y="9" width="48" height="18" fill="#2E50A6"/>
<path d="M3 7L32 27L3 47V7Z" fill="#F5F5F5"/>
<path d="M6.8343 14.0162L7.7797 14.8332L8.87429 14.2306L8.38944 15.3822L9.30076 16.237L8.05572 16.1317L7.52435 17.2626L7.23972 16.046L6 15.8901L7.06914 15.2434L6.8343 14.0162Z" fill="#FCD116"/>
<path d="M28.1173 25.3405L28.1428 26.5898L29.323 27L28.1428 27.4103L28.1173 28.6595L27.3625 27.6638L26.1665 28.0256L26.8802 27L26.1665 25.9744L27.3625 26.3362L28.1173 25.3405Z" fill="#FCD116"/>
<path d="M7.52435 36.7375L8.05572 37.8684L9.30076 37.7631L8.38944 38.6179L8.87429 39.7695L7.7797 39.1669L6.8343 39.9839L7.06914 38.7567L6 38.11L7.23972 37.9541L7.52435 36.7375Z" fill="#FCD116"/>
<path d="M15.0352 20.3695L14.6274 20.7773L14.8296 23.8658C14.7609 23.8703 14.6928 23.8769 14.6253 23.8857L14.254 21.0673L13.9212 21.4001L14.4223 23.9193C14.0101 24.0008 13.6271 24.1627 13.2901 24.3884L11.8633 22.253H11.3925L13.1231 24.5086C13.0688 24.5503 13.0162 24.594 12.9648 24.6391L10.9234 22.3114H10.3466V22.8882L12.6743 24.9296C12.6291 24.9811 12.5855 25.034 12.5438 25.0883L10.2882 23.3573V23.8281L12.424 25.2553C12.1984 25.5923 12.036 25.975 11.9545 26.3871L9.4353 25.8861L9.10253 26.2188L11.9209 26.5901C11.9121 26.6576 11.9054 26.7257 11.901 26.7944L8.81244 26.5922L8.40466 27L8.81244 27.4078L11.901 27.2055C11.9055 27.2743 11.9121 27.3428 11.9209 27.4102L9.10253 27.7811L9.4353 28.1139L11.9545 27.6129C12.036 28.025 12.1979 28.408 12.4236 28.7451L10.2881 30.1719V30.6426L12.5438 28.9121C12.5855 28.9664 12.6292 29.0189 12.6743 29.0704L10.3466 31.1117V31.6886H10.9234L12.9648 29.3609C13.0163 29.4061 13.0691 29.4496 13.1235 29.4914L11.3925 31.747H11.8633L13.2905 29.6112C13.6274 29.837 14.0102 29.9996 14.4223 30.0811L13.9212 32.5999L14.254 32.9326L14.6253 30.1143C14.6928 30.123 14.7609 30.1297 14.8296 30.1341L14.6274 33.2227L15.0352 33.6305L15.443 33.2227L15.2407 30.1341C15.3095 30.1297 15.3775 30.123 15.445 30.1143L15.8163 32.9326L16.1491 32.5999L15.6481 30.0807C16.0602 29.9991 16.4432 29.8372 16.7802 29.6116L18.207 31.747H18.6778L16.9472 29.4914C17.0015 29.4497 17.0541 29.406 17.1056 29.3609L19.1469 31.6886H19.7238V31.1117L17.3961 29.0704C17.4412 29.0189 17.4848 28.966 17.5266 28.9116L19.7822 30.6426V30.1719L17.6464 28.7446C17.872 28.4077 18.0344 28.0249 18.1159 27.6129L20.6351 28.1139L20.9678 27.7811L18.1494 27.4098C18.1582 27.3423 18.1649 27.2743 18.1693 27.2055L21.2579 27.4078L21.6657 27L21.2579 26.5922L18.1693 26.7944C18.1649 26.7257 18.1582 26.6576 18.1494 26.5901L20.9678 26.2188L20.6351 25.8861L18.1159 26.3871C18.0343 25.975 17.8724 25.5919 17.6468 25.2549L19.7822 23.8281V23.3573L17.5266 25.0879C17.4848 25.0336 17.4412 24.981 17.3961 24.9296L19.7238 22.8882V22.3114H19.1469L17.1056 24.6391C17.0541 24.5939 17.0012 24.5504 16.9468 24.5086L18.6778 22.253H18.207L16.7798 24.3888C16.4429 24.1632 16.0601 24.0008 15.6481 23.9193L16.1491 21.4001L15.8163 21.0673L15.445 23.8857C15.3775 23.8769 15.3095 23.8703 15.2407 23.8658L15.443 20.7773L15.0352 20.3695Z" fill="#FCD116"/>
</g>
</svg>
