<svg width="54" height="54" viewBox="0 0 54 54" fill="none" xmlns="http://www.w3.org/2000/svg">
<mask id="mask0_4790_22" style="mask-type:alpha" maskUnits="userSpaceOnUse" x="3" y="9" width="48" height="36">
<path d="M3.56934 18.1356C4.16681 13.4125 8.0415 10.0019 12.7861 9.60887C16.6412 9.28949 21.6196 9 27 9C32.3804 9 37.3588 9.28949 41.2139 9.60887C45.9585 10.0019 49.8332 13.4125 50.4307 18.1356C50.752 20.6759 51 23.704 51 27C51 30.296 50.752 33.3241 50.4307 35.8644C49.8332 40.5875 45.9585 43.9981 41.2139 44.3911C37.3588 44.7105 32.3804 45 27 45C21.6196 45 16.6412 44.7105 12.7861 44.3911C8.04151 43.9981 4.16681 40.5875 3.56934 35.8644C3.248 33.3241 3 30.296 3 27C3 23.704 3.248 20.6759 3.56934 18.1356Z" fill="#00D0BF"/>
</mask>
<g mask="url(#mask0_4790_22)">
<path d="M50.961 7H2.3927C-0.585604 7 -3 9.42338 -3 12.4128V41.5872C-3 44.5766 -0.585604 47 2.3927 47H50.961C53.9393 47 56.3537 44.5766 56.3537 41.5872V12.4128C56.3537 9.42338 53.9393 7 50.961 7Z" fill="#F5F5F5"/>
<path d="M25.3484 30.48V27.36C26.415 27.32 27.2217 27.12 27.7684 26.76C28.3284 26.3867 28.6084 25.8133 28.6084 25.04V24.76C28.6084 24.2 28.4417 23.7667 28.1084 23.46C27.775 23.1533 27.3284 23 26.7684 23C26.1684 23 25.6817 23.18 25.3084 23.54C24.9484 23.8867 24.695 24.34 24.5484 24.9L22.4084 24.02C22.5284 23.6067 22.7017 23.2067 22.9284 22.82C23.155 22.4333 23.4484 22.0933 23.8084 21.8C24.1684 21.4933 24.6017 21.2533 25.1084 21.08C25.615 20.8933 26.2017 20.8 26.8684 20.8C27.5484 20.8 28.1617 20.9 28.7084 21.1C29.255 21.2867 29.7217 21.56 30.1084 21.92C30.495 22.2667 30.795 22.6867 31.0084 23.18C31.2217 23.6733 31.3284 24.22 31.3284 24.82C31.3284 25.4067 31.2284 25.9333 31.0284 26.4C30.8417 26.8533 30.5817 27.2533 30.2484 27.6C29.915 27.9333 29.535 28.2067 29.1084 28.42C28.6817 28.62 28.2417 28.76 27.7884 28.84V30.48H25.3484ZM26.5884 35.24C26.0284 35.24 25.6217 35.1067 25.3684 34.84C25.115 34.5733 24.9884 34.2333 24.9884 33.82V33.42C24.9884 33.0067 25.115 32.6667 25.3684 32.4C25.6217 32.1333 26.0284 32 26.5884 32C27.1617 32 27.575 32.1333 27.8284 32.4C28.0817 32.6667 28.2084 33.0067 28.2084 33.42V33.82C28.2084 34.2333 28.0817 34.5733 27.8284 34.84C27.575 35.1067 27.1617 35.24 26.5884 35.24Z" fill="#404040"/>
</g>
</svg>
