<svg width="54" height="48" viewBox="0 0 54 48" fill="none" xmlns="http://www.w3.org/2000/svg">
<mask id="mask0_1_42243" style="mask-type:alpha" maskUnits="userSpaceOnUse" x="3" y="6" width="48" height="36">
<path d="M3.56934 15.1356C4.16681 10.4125 8.0415 7.00193 12.7861 6.60887C16.6412 6.28949 21.6196 6 27 6C32.3804 6 37.3588 6.28949 41.2139 6.60887C45.9585 7.00193 49.8332 10.4125 50.4307 15.1356C50.752 17.6759 51 20.704 51 24C51 27.296 50.752 30.3241 50.4307 32.8644C49.8332 37.5875 45.9585 40.9981 41.2139 41.3911C37.3588 41.7105 32.3804 42 27 42C21.6196 42 16.6412 41.7105 12.7861 41.3911C8.0415 40.9981 4.16681 37.5875 3.56934 32.8644C3.248 30.3241 3 27.296 3 24C3 20.704 3.248 17.6759 3.56934 15.1356Z" fill="#00D0BF"/>
</mask>
<g mask="url(#mask0_1_42243)">
<rect x="3" width="48" height="49" fill="#EE5757"/>
<path d="M33.4758 17.8259C33.159 18.2351 32.4093 17.4142 31.5111 17.3955C30.613 17.3767 29.9768 18.2562 29.7148 18.5556C29.4529 18.855 28.6109 20.4267 28.6296 20.5951C28.6483 20.7635 29.1535 20.1274 29.3406 20.0151C29.3593 20.2396 29.1348 20.5016 29.1909 20.5765C29.2471 20.6513 29.8458 20.1274 30.0516 20.1087C30.1078 20.2584 29.9394 20.408 29.9955 20.6326C30.0704 20.7074 30.4072 20.2583 30.6317 20.1648C30.6691 20.3332 30.4259 20.6513 30.5568 20.8571C30.6504 20.8758 31.2117 20.221 31.3989 20.1461C31.586 20.0712 31.3053 20.7635 31.3989 20.8197C31.5673 20.7074 32.0912 20.1086 32.2596 20.0338C32.428 19.959 32.2409 20.801 32.3158 20.801C32.5216 20.6513 33.0455 19.9403 33.1016 19.828C33.1578 19.7157 33.0455 20.9133 33.6256 21.5495C34.2056 22.1857 35.0851 22.9154 35.1786 22.9154C35.2909 22.7096 35.1412 22.2792 35.2348 22.2979C35.4967 22.5786 35.9832 22.9902 36.0955 22.9902C36.2077 22.9902 36.0206 22.5412 36.1703 22.5412C36.4697 22.8218 37.3304 23.9258 39.0145 24.431C38.9022 24.1129 38.6589 23.8323 38.6402 23.6826C38.7525 23.7013 39.1455 23.8884 39.2203 23.8697C39.2951 23.8509 38.397 22.747 38.4531 22.5973C38.659 22.5786 38.7525 22.7096 38.8274 22.616C38.7338 22.4663 37.9479 21.5869 37.9479 21.381C37.9479 21.1752 38.1912 21.4185 38.266 21.381C38.3409 21.3436 37.9667 20.5577 38.0415 20.4642C38.1163 20.3707 38.9396 20.9694 39.1454 20.9694C39.3513 20.9694 39.2016 20.2396 39.2951 20.2022C39.3887 20.1648 40.0811 20.5951 40.2307 20.5951C40.3804 20.5951 40.3617 20.277 40.4178 20.3145C40.474 20.3519 42.1019 21.9798 41.5405 23.8884C40.9792 25.2544 39.8565 25.9841 38.2099 25.3853C38.3034 25.535 39.1829 26.2648 40.1372 26.0028C41.0914 25.7408 42.2515 24.9924 42.1206 23.1213C41.9896 21.2501 41.3721 20.9881 41.2785 20.7075C41.185 20.4268 41.4283 20.7823 41.6341 20.8572C41.8399 20.9321 41.5967 20.4642 41.5405 20.2583C41.4844 20.0525 42.158 20.6887 42.3264 20.7449C42.4948 20.801 41.9335 19.2105 41.7651 19.0983C41.5967 18.986 41.9335 19.1356 42.0457 19.1731C42.158 19.2105 41.0166 17.4329 40.7733 17.4329C40.5301 17.4329 40.9791 17.3393 41.1101 17.3393C41.2412 17.3393 39.8004 16.1792 39.5571 16.1792C39.3138 16.1792 40.081 15.8798 40.1558 15.8611C40.2869 15.8798 38.4906 14.9068 36.8814 15.8798C36.7878 15.805 37.6392 15.2156 37.6672 14.963C37.6766 14.8975 37.3866 14.7572 37.3679 14.6823C37.3491 14.6075 37.8169 14.383 37.8356 14.2146C37.7234 14.0648 37.5175 14.121 37.4053 14.0836C37.3772 13.9433 37.7983 13.5971 37.7608 13.4474C37.7327 13.3632 37.4239 13.3352 37.3491 13.3913C37.2743 13.4474 37.5456 12.9983 37.4988 12.8674C37.4614 12.8113 37.3117 12.8487 37.162 12.8861C37.0684 12.8674 37.6485 12.0628 37.5363 11.9505C37.424 11.8382 35.8522 12.7738 35.2721 13.8216C34.6921 14.8695 35.1412 15.7115 35.0664 16.067C34.9915 16.4225 34.8979 16.7781 34.6547 16.7781C34.4114 16.7781 33.8501 16.4038 33.663 16.2167C33.4758 16.0296 33.4385 15.8986 33.1765 15.8238C32.9145 15.7489 32.3158 15.9735 32.0912 15.9922C31.8667 16.0109 30.9872 15.8238 30.9311 15.8799C30.875 15.936 31.7918 16.2728 31.9976 16.3851C32.2035 16.4974 32.2222 16.6471 32.3719 16.7406C32.5216 16.8341 33.9249 17.2458 33.4758 17.8259ZM38.9583 20.4642C39.4074 20.9133 42.4387 22.9341 42.4387 25.404C42.4387 27.8739 40.2307 27.7992 39.5945 27.7243C40.3056 28.323 43 28.2107 43 25.404C43 22.9341 39.5197 20.4642 39.0706 20.2396C38.6215 20.0151 38.5093 20.0151 38.9583 20.4642Z" fill="#FCD95E"/>
<path d="M51 42L3 6V42H51Z" fill="#2C2929"/>
<path d="M17.7389 30.9729L16.9877 30.4721L16.2562 31L16.5135 30.1496L15.7716 29.6353L16.6821 29.6109L16.9546 28.7644L17.2602 29.6002L18.1706 29.5917L17.449 30.1326L17.7389 30.9729L17.7389 30.9729Z" fill="white"/>
<path d="M11.64 27.9636L10.6319 27.2916L9.65024 28L9.99563 26.8588L9 26.1686L10.2218 26.136L10.5874 25L10.9975 26.1215L12.2193 26.1101L11.251 26.836L11.64 27.9636L11.64 27.9636Z" fill="white"/>
<path d="M16.64 21.9636L15.6319 21.2916L14.6502 22L14.9956 20.8588L14 20.1686L15.2218 20.136L15.5874 19L15.9975 20.1215L17.2193 20.1101L16.251 20.836L16.64 21.9636L16.64 21.9636Z" fill="white"/>
<path d="M21.64 26.9636L20.6319 26.2916L19.6502 27L19.9956 25.8588L19 25.1686L20.2218 25.136L20.5874 24L20.9975 25.1215L22.2193 25.1101L21.251 25.836L21.64 26.9636L21.64 26.9636Z" fill="white"/>
<path d="M16.64 37.9636L15.6319 37.2916L14.6502 38L14.9956 36.8588L14 36.1686L15.2218 36.136L15.5874 35L15.9975 36.1215L17.2193 36.1101L16.251 36.836L16.64 37.9636L16.64 37.9636Z" fill="white"/>
</g>
</svg>
