<svg width="54" height="54" viewBox="0 0 54 54" fill="none" xmlns="http://www.w3.org/2000/svg">
<mask id="mask0_1_42243" style="mask-type:alpha" maskUnits="userSpaceOnUse" x="3" y="9" width="48" height="36">
<path d="M3.56934 18.1356C4.16681 13.4125 8.0415 10.0019 12.7861 9.60887C16.6412 9.28949 21.6196 9 27 9C32.3804 9 37.3588 9.28949 41.2139 9.60887C45.9585 10.0019 49.8332 13.4125 50.4307 18.1356C50.752 20.6759 51 23.704 51 27C51 30.296 50.752 33.3241 50.4307 35.8644C49.8332 40.5875 45.9585 43.9981 41.2139 44.3911C37.3588 44.7105 32.3804 45 27 45C21.6196 45 16.6412 44.7105 12.7861 44.3911C8.04151 43.9981 4.16681 40.5875 3.56934 35.8644C3.248 33.3241 3 30.296 3 27C3 23.704 3.248 20.6759 3.56934 18.1356Z" fill="#00D0BF"/>
</mask>
<g mask="url(#mask0_1_42243)">
<rect x="3" y="3" width="48" height="49" fill="#EE5757"/>
<path d="M33.4758 20.8259C33.159 21.2351 32.4093 20.4142 31.5111 20.3955C30.613 20.3767 29.9768 21.2562 29.7148 21.5556C29.4529 21.855 28.6109 23.4267 28.6296 23.5951C28.6483 23.7635 29.1535 23.1274 29.3406 23.0151C29.3593 23.2396 29.1348 23.5016 29.1909 23.5765C29.2471 23.6513 29.8458 23.1274 30.0516 23.1087C30.1078 23.2584 29.9394 23.408 29.9955 23.6326C30.0704 23.7074 30.4072 23.2583 30.6317 23.1648C30.6691 23.3332 30.4259 23.6513 30.5568 23.8571C30.6504 23.8758 31.2117 23.221 31.3989 23.1461C31.586 23.0712 31.3053 23.7635 31.3989 23.8197C31.5673 23.7074 32.0912 23.1086 32.2596 23.0338C32.428 22.959 32.2409 23.801 32.3158 23.801C32.5216 23.6513 33.0455 22.9403 33.1016 22.828C33.1578 22.7157 33.0455 23.9133 33.6256 24.5495C34.2056 25.1857 35.0851 25.9154 35.1786 25.9154C35.2909 25.7096 35.1412 25.2792 35.2348 25.2979C35.4967 25.5786 35.9832 25.9902 36.0955 25.9902C36.2077 25.9902 36.0206 25.5412 36.1703 25.5412C36.4697 25.8218 37.3304 26.9258 39.0145 27.431C38.9022 27.1129 38.6589 26.8323 38.6402 26.6826C38.7525 26.7013 39.1455 26.8884 39.2203 26.8697C39.2951 26.8509 38.397 25.747 38.4531 25.5973C38.659 25.5786 38.7525 25.7096 38.8274 25.616C38.7338 25.4663 37.9479 24.5869 37.9479 24.381C37.9479 24.1752 38.1912 24.4185 38.266 24.381C38.3409 24.3436 37.9667 23.5577 38.0415 23.4642C38.1163 23.3707 38.9396 23.9694 39.1454 23.9694C39.3513 23.9694 39.2016 23.2396 39.2951 23.2022C39.3887 23.1648 40.0811 23.5951 40.2307 23.5951C40.3804 23.5951 40.3617 23.277 40.4178 23.3145C40.474 23.3519 42.1019 24.9798 41.5405 26.8884C40.9792 28.2544 39.8565 28.9841 38.2099 28.3853C38.3034 28.535 39.1829 29.2648 40.1372 29.0028C41.0914 28.7408 42.2515 27.9924 42.1206 26.1213C41.9896 24.2501 41.3721 23.9881 41.2785 23.7075C41.185 23.4268 41.4283 23.7823 41.6341 23.8572C41.8399 23.9321 41.5967 23.4642 41.5405 23.2583C41.4844 23.0525 42.158 23.6887 42.3264 23.7449C42.4948 23.801 41.9335 22.2105 41.7651 22.0983C41.5967 21.986 41.9335 22.1356 42.0457 22.1731C42.158 22.2105 41.0166 20.4329 40.7733 20.4329C40.5301 20.4329 40.9791 20.3393 41.1101 20.3393C41.2412 20.3393 39.8004 19.1792 39.5571 19.1792C39.3138 19.1792 40.081 18.8798 40.1558 18.8611C40.2869 18.8798 38.4906 17.9068 36.8814 18.8798C36.7878 18.805 37.6392 18.2156 37.6672 17.963C37.6766 17.8975 37.3866 17.7572 37.3679 17.6823C37.3491 17.6075 37.8169 17.383 37.8356 17.2146C37.7234 17.0648 37.5175 17.121 37.4053 17.0836C37.3772 16.9433 37.7983 16.5971 37.7608 16.4474C37.7327 16.3632 37.4239 16.3352 37.3491 16.3913C37.2743 16.4474 37.5456 15.9983 37.4988 15.8674C37.4614 15.8113 37.3117 15.8487 37.162 15.8861C37.0684 15.8674 37.6485 15.0628 37.5363 14.9505C37.424 14.8382 35.8522 15.7738 35.2721 16.8216C34.6921 17.8695 35.1412 18.7115 35.0664 19.067C34.9915 19.4225 34.8979 19.7781 34.6547 19.7781C34.4114 19.7781 33.8501 19.4038 33.663 19.2167C33.4758 19.0296 33.4385 18.8986 33.1765 18.8238C32.9145 18.7489 32.3158 18.9735 32.0912 18.9922C31.8667 19.0109 30.9872 18.8238 30.9311 18.8799C30.875 18.936 31.7918 19.2728 31.9976 19.3851C32.2035 19.4974 32.2222 19.6471 32.3719 19.7406C32.5216 19.8341 33.9249 20.2458 33.4758 20.8259ZM38.9583 23.4642C39.4074 23.9133 42.4387 25.9341 42.4387 28.404C42.4387 30.8739 40.2307 30.7992 39.5945 30.7243C40.3056 31.323 43 31.2107 43 28.404C43 25.9341 39.5197 23.4642 39.0706 23.2396C38.6215 23.0151 38.5093 23.0151 38.9583 23.4642Z" fill="#FCD95E"/>
<path d="M51 45L3 9V45H51Z" fill="#2C2929"/>
<path d="M17.7389 33.9729L16.9877 33.4721L16.2562 34L16.5135 33.1496L15.7716 32.6353L16.6821 32.6109L16.9546 31.7644L17.2602 32.6002L18.1706 32.5917L17.449 33.1326L17.7389 33.9729L17.7389 33.9729Z" fill="white"/>
<path d="M11.64 30.9636L10.6319 30.2916L9.65024 31L9.99563 29.8588L9 29.1686L10.2218 29.136L10.5874 28L10.9975 29.1215L12.2193 29.1101L11.251 29.836L11.64 30.9636L11.64 30.9636Z" fill="white"/>
<path d="M16.64 24.9636L15.6319 24.2916L14.6502 25L14.9956 23.8588L14 23.1686L15.2218 23.136L15.5874 22L15.9975 23.1215L17.2193 23.1101L16.251 23.836L16.64 24.9636L16.64 24.9636Z" fill="white"/>
<path d="M21.64 29.9636L20.6319 29.2916L19.6502 30L19.9956 28.8588L19 28.1686L20.2218 28.136L20.5874 27L20.9975 28.1215L22.2193 28.1101L21.251 28.836L21.64 29.9636L21.64 29.9636Z" fill="white"/>
<path d="M16.64 40.9636L15.6319 40.2916L14.6502 41L14.9956 39.8588L14 39.1686L15.2218 39.136L15.5874 38L15.9975 39.1215L17.2193 39.1101L16.251 39.836L16.64 40.9636L16.64 40.9636Z" fill="white"/>
</g>
</svg>
