<svg width="54" height="48" viewBox="0 0 54 48" fill="none" xmlns="http://www.w3.org/2000/svg">
<mask id="mask0_1_42056" style="mask-type:alpha" maskUnits="userSpaceOnUse" x="3" y="6" width="48" height="36">
<path d="M3.56934 15.1356C4.16681 10.4125 8.0415 7.00193 12.7861 6.60887C16.6412 6.28949 21.6196 6 27 6C32.3804 6 37.3588 6.28949 41.2139 6.60887C45.9585 7.00193 49.8332 10.4125 50.4307 15.1356C50.752 17.6759 51 20.704 51 24C51 27.296 50.752 30.3241 50.4307 32.8644C49.8332 37.5875 45.9585 40.9981 41.2139 41.3911C37.3588 41.7105 32.3804 42 27 42C21.6196 42 16.6412 41.7105 12.7861 41.3911C8.0415 40.9981 4.16681 37.5875 3.56934 32.8644C3.248 30.3241 3 27.296 3 24C3 20.704 3.248 17.6759 3.56934 15.1356Z" fill="#00D0BF"/>
</mask>
<g mask="url(#mask0_1_42056)">
<rect x="3" width="24" height="49" fill="#59C785"/>
<rect x="21" width="30" height="49" fill="#EE5757"/>
<path fill-rule="evenodd" clip-rule="evenodd" d="M28.9987 30.4076C25.9539 30.3159 11.9914 21.6006 11.8956 20.2127L12.6666 18.9269C14.0516 20.9393 28.3254 29.4151 29.7274 29.1148L28.9987 30.4072" fill="#FFFF00"/>
<path d="M28.9987 30.4076C25.9539 30.3159 11.9914 21.6006 11.8956 20.2127L12.6666 18.9269C14.0516 20.9393 28.3254 29.4151 29.7274 29.1148L28.9987 30.4072" stroke="black" stroke-width="0.0577528" stroke-linecap="round" stroke-linejoin="round"/>
<path fill-rule="evenodd" clip-rule="evenodd" d="M12.5044 18.7522C12.2312 19.4874 16.1478 21.9088 20.8602 24.7749C25.5723 27.6407 29.6355 29.4118 29.9367 29.1578C29.9551 29.125 30.0848 28.9017 30.0729 28.9035C30.0165 28.9886 29.8791 29.0154 29.6647 28.9536C28.3916 28.5864 25.0711 27.0623 20.959 24.5687C16.847 22.0748 13.2693 19.7767 12.7133 18.8002C12.6746 18.7326 12.647 18.6091 12.6526 18.5131L12.6391 18.5129L12.5207 18.7199L12.5045 18.7523H12.5044L12.5044 18.7522ZM29.0703 30.4479C29.0186 30.5416 28.9224 30.5447 28.7395 30.5246C27.6006 30.3986 24.1446 28.718 20.0552 26.27C15.2969 23.4217 11.3671 20.8263 11.7934 20.148L11.9094 19.9429L11.9323 19.95C11.5489 21.0996 19.6879 25.7533 20.167 26.0501C24.8764 28.9676 28.8466 30.6714 29.198 30.2286L29.0701 30.4485V30.4482L29.0703 30.4479Z" fill="#FFFF00" stroke="black" stroke-width="0.0577528" stroke-linecap="round" stroke-linejoin="round"/>
<path fill-rule="evenodd" clip-rule="evenodd" d="M21.1301 21.0533C24.1776 21.0292 27.9384 20.6369 30.1027 19.7743L29.6364 19.0167C28.3572 19.7247 24.5757 20.1903 21.1043 20.2599C16.9985 20.2221 14.1004 19.8398 12.6483 18.8655L12.2081 19.6723C14.8775 20.8018 17.6128 21.0417 21.1301 21.0534" fill="#FFFF00"/>
<path d="M21.1301 21.0533C24.1776 21.0292 27.9384 20.6369 30.1027 19.7743L29.6364 19.0167C28.3572 19.7247 24.5757 20.1903 21.1043 20.2599C16.9985 20.2221 14.1004 19.8398 12.6483 18.8655L12.2081 19.6723C14.8775 20.8018 17.6128 21.0417 21.1301 21.0534" stroke="black" stroke-width="0.0577528" stroke-linecap="round" stroke-linejoin="round"/>
<path fill-rule="evenodd" clip-rule="evenodd" d="M30.2284 19.7914C30.1539 19.9105 28.7424 20.3973 26.6631 20.7565C25.2533 20.9714 23.4142 21.1552 21.1192 21.1574C18.9388 21.1594 17.1577 21.0042 15.8092 20.8215C13.6265 20.4792 12.5 20.0031 12.0835 19.8348C12.1233 19.7556 12.1489 19.7 12.1873 19.6261C13.3862 20.1034 14.518 20.3912 15.8439 20.5952C17.1835 20.7767 18.9432 20.9341 21.1128 20.9321C23.3971 20.9297 25.2159 20.732 26.6176 20.5235C28.7498 20.1796 29.9145 19.737 30.0781 19.5315L30.2287 19.7914H30.2285H30.2284ZM29.8191 19.0231C29.588 19.2087 28.4365 19.6171 26.4105 19.9407C25.0584 20.1344 23.3392 20.3079 21.1427 20.31C19.0559 20.312 17.3511 20.1714 16.0543 19.9825C13.9968 19.7138 12.9017 19.2291 12.5069 19.0877C12.5462 19.0198 12.5862 18.9525 12.6272 18.8848C12.9344 19.0395 13.9912 19.4685 16.0769 19.7639C17.3589 19.9457 19.0664 20.0812 21.1428 20.0791C23.3289 20.0768 25.0286 19.9 26.3721 19.7073C28.4086 19.4271 29.5044 18.9063 29.6708 18.7759L29.8192 19.0229V19.0231L29.8191 19.0231Z" fill="#FFFF00" stroke="black" stroke-width="0.0577528" stroke-linecap="round" stroke-linejoin="round"/>
<path fill-rule="evenodd" clip-rule="evenodd" d="M11.1226 24.7251C12.9971 25.7333 17.1604 26.2414 21.1002 26.2763C24.6875 26.282 29.3608 25.7218 31.1084 24.7957L31.0603 23.7866C30.5136 24.6411 25.5055 25.4606 21.0613 25.4271C16.6172 25.3936 12.4903 24.7071 11.1146 23.8186L11.1226 24.7248" fill="#FFFF00"/>
<path d="M11.1226 24.7251C12.9971 25.7333 17.1604 26.2414 21.1002 26.2763C24.6875 26.282 29.3608 25.7218 31.1084 24.7957L31.0603 23.7866C30.5136 24.6411 25.5055 25.4606 21.0613 25.4271C16.6172 25.3936 12.4903 24.7071 11.1146 23.8186L11.1226 24.7248" stroke="black" stroke-width="0.0577528" stroke-linecap="round" stroke-linejoin="round"/>
<path fill-rule="evenodd" clip-rule="evenodd" d="M31.204 24.58L31.2041 24.8206C30.9414 25.1346 29.2945 25.6093 27.2292 25.9436C25.6574 26.1846 23.6081 26.3664 21.0546 26.3664C18.6287 26.3664 16.6941 26.1934 15.1939 25.9631C12.8224 25.6177 11.3055 25.013 11.001 24.8325L11.0023 24.5518C11.917 25.1599 14.395 25.6047 15.2271 25.7409C16.7176 25.9697 18.6407 26.1414 21.0545 26.1414C23.5961 26.1414 25.6338 25.9608 27.1958 25.7214C28.6775 25.5074 30.7883 24.9507 31.2039 24.5801H31.204L31.204 24.58ZM31.205 23.724L31.2051 23.9647C30.9424 24.2785 29.2955 24.7532 27.2302 25.0875C25.6584 25.3285 23.6091 25.5102 21.0556 25.5102C18.6297 25.5102 16.6951 25.3374 15.1949 25.1069C12.8234 24.7618 11.3065 24.157 11.002 23.9765L11.0033 23.6957C11.918 24.3038 14.396 24.7487 15.2281 24.8847C16.7186 25.1136 18.6417 25.2854 21.0555 25.2854C23.5971 25.2854 25.6348 25.1048 27.1968 24.8652C28.6785 24.6511 30.7894 24.0945 31.2049 23.7238L31.205 23.724L31.205 23.724Z" fill="#FFFF00" stroke="black" stroke-width="0.0577528" stroke-linecap="round" stroke-linejoin="round"/>
<path fill-rule="evenodd" clip-rule="evenodd" d="M21.0918 30.2343C16.7808 30.2086 13.0869 29.0592 12.3069 28.8692L12.8757 29.7596C14.2535 30.3392 17.8571 31.2029 21.1331 31.1073C24.4092 31.0117 27.2723 30.758 29.2899 29.7758L29.8731 28.853C28.4981 29.5005 23.8188 30.2276 21.0917 30.2343" fill="#FFFF00"/>
<path d="M21.0918 30.2343C16.7808 30.2086 13.0869 29.0592 12.3069 28.8692L12.8757 29.7596C14.2535 30.3392 17.8571 31.2029 21.1331 31.1073C24.4092 31.0117 27.2723 30.758 29.2899 29.7758L29.8731 28.853C28.4981 29.5005 23.8188 30.2276 21.0917 30.2343" stroke="black" stroke-width="0.0577528" stroke-linecap="round" stroke-linejoin="round"/>
<path fill-rule="evenodd" clip-rule="evenodd" d="M29.5087 29.569C29.423 29.7 29.3356 29.8293 29.247 29.955C28.2954 30.2905 26.7959 30.6428 26.1631 30.7456C24.8706 31.0119 22.8708 31.2086 21.096 31.2095C17.277 31.1536 14.151 30.406 12.6804 29.7683L12.5617 29.5643L12.5811 29.5336L12.7824 29.6117C15.3977 30.5474 18.335 30.9206 21.1175 30.9877C22.8852 30.9939 24.6547 30.7851 26.0857 30.5292C28.28 30.0895 29.1672 29.7581 29.4395 29.6079L29.5087 29.569H29.5086L29.5087 29.569ZM30.0144 28.7349C30.0166 28.7375 30.0188 28.74 30.0209 28.7428C29.9569 28.8509 29.8908 28.961 29.8232 29.0716C29.3156 29.253 27.9382 29.656 25.9267 29.9373C24.6014 30.1178 23.7777 30.2927 21.1413 30.3439C16.2011 30.2182 13.0025 29.2522 12.2426 29.014L12.13 28.7979C14.9931 29.5453 17.9176 30.0671 21.1415 30.1204C23.5535 30.069 24.5796 29.8914 25.8939 29.7122C28.2394 29.3475 29.4212 28.9614 29.7759 28.8499C29.7714 28.8435 29.7662 28.8367 29.7603 28.8298L30.0146 28.7348L30.0144 28.735L30.0144 28.7349Z" fill="#FFFF00" stroke="black" stroke-width="0.0554346" stroke-linecap="round" stroke-linejoin="round"/>
<path fill-rule="evenodd" clip-rule="evenodd" d="M30.0661 23.9289C30.0801 26.7648 28.6288 29.3097 27.4599 30.4324C25.8061 32.0207 23.6134 33.0424 21.0527 33.0895C18.1933 33.142 15.4972 31.2779 14.774 30.459C13.3601 28.8579 12.209 26.8248 12.1721 24.0847C12.3472 20.9895 13.5623 18.8335 15.3236 17.355C17.0849 15.8765 19.4301 15.1565 21.3832 15.208C23.6367 15.2675 26.269 16.3729 28.0879 18.5675C29.2795 20.0054 29.7956 21.5658 30.0661 23.9289ZM21.077 14.2185C26.5686 14.2185 31.0851 18.6874 31.0851 24.1668C31.0851 29.6462 26.5686 34.1152 21.077 34.1152C15.5855 34.1152 11.1064 29.6463 11.1064 24.1668C11.1064 18.6874 15.5855 14.2185 21.077 14.2185Z" fill="#FFFF00"/>
<path d="M21.077 14.2185C26.5686 14.2185 31.0851 18.6874 31.0851 24.1668C31.0851 29.6462 26.5686 34.1152 21.077 34.1152C15.5855 34.1152 11.1064 29.6463 11.1064 24.1668C11.1064 18.6874 15.5855 14.2185 21.077 14.2185M30.0661 23.9289C30.0801 26.7648 28.6288 29.3097 27.4599 30.4324C25.8061 32.0207 23.6134 33.0424 21.0527 33.0895C18.1933 33.142 15.4972 31.2779 14.774 30.459C13.3601 28.8579 12.209 26.8248 12.1721 24.0847C12.3472 20.9895 13.5623 18.8335 15.3236 17.355C17.0849 15.8765 19.4301 15.1565 21.3832 15.208C23.6367 15.2675 26.269 16.3729 28.0879 18.5675C29.2795 20.0054 29.7956 21.5658 30.0661 23.9289Z" stroke="black" stroke-width="0.0577528" stroke-linecap="round" stroke-linejoin="round"/>
<path fill-rule="evenodd" clip-rule="evenodd" d="M21.1039 14.1844C26.6004 14.1844 31.0832 18.6678 31.0832 24.1648C31.0832 29.6617 26.6003 34.1451 21.1039 34.1451C15.6074 34.1451 11.1245 29.6618 11.1245 24.1648C11.1245 18.6678 15.6075 14.1844 21.1039 14.1844ZM11.3441 24.1649C11.3441 29.533 15.7523 33.9256 21.1039 33.9256C26.4555 33.9256 30.8637 29.533 30.8637 24.1649C30.8637 18.7966 26.4554 14.4039 21.1039 14.4039C15.7523 14.4039 11.3441 18.7968 11.3441 24.1649Z" fill="#FFFF00" stroke="black" stroke-width="0.0577528" stroke-linecap="round" stroke-linejoin="round"/>
<path fill-rule="evenodd" clip-rule="evenodd" d="M21.1119 15.0139C26.1243 15.0139 30.2529 19.1283 30.2529 24.156C30.2529 29.1838 26.1242 33.298 21.1119 33.298C16.0996 33.298 11.9709 29.1838 11.9709 24.156C11.9709 19.1283 16.0997 15.0139 21.1119 15.0139ZM12.1905 24.156C12.1905 29.0629 16.22 33.0783 21.1119 33.0783C26.0039 33.0783 30.0334 29.0629 30.0334 24.156C30.0334 19.2489 26.004 15.2335 21.1119 15.2335C16.22 15.2335 12.1905 19.2489 12.1905 24.156Z" fill="#FFFF00" stroke="black" stroke-width="0.0577528" stroke-linecap="round" stroke-linejoin="round"/>
<path fill-rule="evenodd" clip-rule="evenodd" d="M21.5141 14.1441H20.6588L20.6598 34.1974H21.518L21.5141 14.1441Z" fill="#FFFF00" stroke="black" stroke-width="0.0577528" stroke-linecap="round" stroke-linejoin="round"/>
<path fill-rule="evenodd" clip-rule="evenodd" d="M21.4284 14.0298H21.6461L21.6479 34.3139H21.4301L21.4285 14.0298H21.4284ZM20.5796 14.03H20.799L20.7993 34.314H20.5797V14.03H20.5796Z" fill="#FFFF00" stroke="black" stroke-width="0.0577528" stroke-linecap="round" stroke-linejoin="round"/>
<path fill-rule="evenodd" clip-rule="evenodd" d="M31.0901 24.5512V23.8099L30.4864 23.2475L27.0595 22.3403L22.1208 21.8364L16.1742 22.1388L11.941 23.1467L11.0863 23.7796V24.5212L13.2513 23.5498L18.3916 22.7435H23.3303L26.9588 23.1467L29.4785 23.7514L31.0901 24.5512Z" fill="#FFFF00" stroke="black" stroke-width="0.0577528" stroke-linecap="round" stroke-linejoin="round"/>
<path fill-rule="evenodd" clip-rule="evenodd" d="M21.1079 22.6195C23.4646 22.6152 25.7513 22.8428 27.565 23.196C29.4366 23.5701 30.7537 24.0382 31.204 24.5638L31.2035 24.8241C30.6604 24.1699 28.8881 23.6904 27.5228 23.4163C25.7229 23.0661 23.4516 22.8401 21.1079 22.8444C18.6347 22.849 16.3317 23.0833 14.5581 23.4293C13.1349 23.7117 11.237 24.2727 11 24.8261V24.555C11.1301 24.172 12.5434 23.5996 14.526 23.2027C16.313 22.8543 18.6201 22.6241 21.1079 22.6195V22.6195ZM21.1089 21.7636C23.4656 21.7593 25.7523 21.9871 27.566 22.3401C29.4376 22.7144 30.7547 23.1822 31.205 23.7079L31.2045 23.9682C30.6614 23.3142 28.8891 22.8346 27.5239 22.5605C25.7239 22.2102 23.4526 21.9842 21.1089 21.9887C18.6357 21.9931 16.3439 22.2275 14.5701 22.5734C13.1967 22.8338 11.2212 23.417 11.0009 23.9704V23.6992C11.131 23.3203 12.5729 22.7274 14.5271 22.3469C16.314 21.9984 18.6212 21.7683 21.1089 21.7636V21.7636Z" fill="#FFFF00" stroke="black" stroke-width="0.0577528" stroke-linecap="round" stroke-linejoin="round"/>
<path fill-rule="evenodd" clip-rule="evenodd" d="M21.0604 17.3976C24.7745 17.379 28.014 17.9169 29.4961 18.6761L30.0367 19.6113C28.7485 18.9171 25.2536 18.1952 21.0659 18.3032C17.6537 18.3242 14.0078 18.6788 12.1786 19.6548L12.824 18.5754C14.3253 17.7969 17.8657 17.4019 21.0606 17.3978" fill="#FFFF00"/>
<path d="M21.0604 17.3976C24.7745 17.379 28.014 17.9169 29.4961 18.6761L30.0367 19.6113C28.7485 18.9171 25.2536 18.1952 21.0659 18.3032C17.6537 18.3242 14.0078 18.6788 12.1786 19.6548L12.824 18.5754C14.3253 17.7969 17.8657 17.4019 21.0606 17.3978" stroke="black" stroke-width="0.0577528" stroke-linecap="round" stroke-linejoin="round"/>
<path fill-rule="evenodd" clip-rule="evenodd" d="M21.1099 18.1697C23.2282 18.1641 25.2751 18.2836 26.9029 18.5773C28.4189 18.8594 29.8647 19.2829 30.0714 19.5106L30.2317 19.7938C29.7289 19.4656 28.4778 19.1 26.8714 18.7954C25.2582 18.4922 23.2127 18.3918 21.1062 18.3973C18.7153 18.3891 16.8577 18.5153 15.2635 18.7933C13.5775 19.1088 12.4077 19.5594 12.1191 19.7736L12.2762 19.4742C12.8369 19.1881 13.7266 18.8433 15.2216 18.5742C16.8702 18.273 18.7475 18.1827 21.1101 18.1697H21.11L21.1099 18.1697ZM21.109 17.3146C23.1362 17.3092 25.1378 17.4222 26.698 17.7027C27.9286 17.9422 29.1455 18.3162 29.5911 18.649L29.8255 19.0215C29.427 18.5785 27.927 18.1588 26.6029 17.9237C25.0546 17.6566 23.1362 17.5509 21.109 17.5341C18.9815 17.54 17.0154 17.6703 15.4897 17.9481C14.0342 18.2251 13.0949 18.553 12.6975 18.8091L12.9037 18.498C13.4521 18.2093 14.3381 17.9441 15.4539 17.7273C16.9909 17.4475 18.9691 17.3205 21.1091 17.3146H21.109Z" fill="#FFFF00" stroke="black" stroke-width="0.0577528" stroke-linecap="round" stroke-linejoin="round"/>
<path fill-rule="evenodd" clip-rule="evenodd" d="M26.0667 28.3132C24.2305 27.9705 22.391 27.9207 21.1061 27.9358C14.9169 28.0084 12.9175 29.2067 12.6735 29.5695L12.2109 28.8155C13.7867 27.6733 17.157 27.0328 21.1396 27.0983C23.2077 27.1322 24.9923 27.2695 26.4935 27.5603L26.0666 28.3134" fill="#FFFF00"/>
<path d="M26.0667 28.3132C24.2305 27.9705 22.391 27.9207 21.1061 27.9358C14.9169 28.0084 12.9175 29.2067 12.6735 29.5695L12.2109 28.8155C13.7867 27.6733 17.157 27.0328 21.1396 27.0983C23.2077 27.1322 24.9923 27.2695 26.4935 27.5603L26.0666 28.3134" stroke="black" stroke-width="0.0577528" stroke-linecap="round" stroke-linejoin="round"/>
<path fill-rule="evenodd" clip-rule="evenodd" d="M21.0705 27.8294C22.7922 27.8551 24.4822 27.9262 26.1134 28.2304L25.9952 28.4389C24.4803 28.1593 22.8652 28.0523 21.0764 28.061C18.7922 28.0431 16.4818 28.2564 14.4705 28.8337C13.8358 29.0103 12.7852 29.4184 12.678 29.7555L12.5605 29.5617C12.5944 29.3624 13.2294 28.9488 14.4165 28.6153C16.7203 27.9556 18.8753 27.8444 21.0705 27.8292V27.8294L21.0705 27.8294ZM21.1486 26.963C22.9324 26.9963 24.7746 27.0788 26.5651 27.4335L26.4421 27.6506C24.8252 27.3296 23.2804 27.2225 21.1592 27.1899C18.8677 27.1941 16.437 27.3575 14.227 28C13.5135 28.2078 12.2821 28.6572 12.241 29.0129L12.1235 28.8048C12.1503 28.4816 13.2163 28.0601 14.1754 27.7811C16.4025 27.1337 18.8395 26.9672 21.1487 26.963L21.1486 26.963Z" fill="#FFFF00" stroke="black" stroke-width="0.0554346" stroke-linecap="round" stroke-linejoin="round"/>
<path fill-rule="evenodd" clip-rule="evenodd" d="M29.9401 28.93L29.1963 30.084L27.0595 28.1862L21.516 24.457L15.267 21.0301L12.0226 19.9204L12.714 18.6383L12.9488 18.5103L14.9647 19.0143L21.6168 22.4412L25.4468 24.8601L28.6721 27.1783L29.9824 28.6902L29.9401 28.93Z" fill="#FFFF00" stroke="black" stroke-width="0.0577528" stroke-linecap="round" stroke-linejoin="round"/>
<path fill-rule="evenodd" clip-rule="evenodd" d="M11.9057 19.9506C12.4748 19.5647 16.6569 21.4277 21.0328 24.0663C25.3971 26.7125 29.5674 29.7026 29.1909 30.2622L29.0671 30.4569L29.0103 30.5017C29.0225 30.493 29.0852 30.4163 29.0042 30.2089C28.8182 29.597 25.86 27.2364 20.9516 24.2728C16.1666 21.4195 12.1788 19.6999 11.78 20.1914L11.9057 19.9506H11.9056L11.9057 19.9506ZM30.0923 28.9136C30.4521 28.2028 26.5731 25.2807 21.7638 22.4356C16.8439 19.6472 13.298 18.0058 12.6503 18.4952L12.5064 18.7572C12.5052 18.7716 12.5117 18.7393 12.5421 18.7159C12.6599 18.6131 12.8551 18.62 12.9431 18.6184C14.0584 18.6351 17.2436 20.101 21.7125 22.6629C23.6707 23.8034 29.9845 27.8527 29.9604 28.9915C29.9621 29.0893 29.9685 29.1095 29.9317 29.158L30.0923 28.9137V28.9135L30.0923 28.9136Z" fill="#FFFF00" stroke="black" stroke-width="0.0577528" stroke-linecap="round" stroke-linejoin="round"/>
<path d="M15.1259 25.2643C15.1259 26.9043 15.7975 28.3875 16.8854 29.4715C17.9755 30.5578 19.4568 31.2433 21.0994 31.2433C22.7504 31.2433 24.2487 30.5728 25.3342 29.4906C26.4196 28.4086 27.0922 26.9152 27.0925 25.2695H27.0923V17.2881L15.1245 17.2738L15.1258 25.2643H15.126L15.1259 25.2643Z" fill="white" stroke="black" stroke-width="0.0675668"/>
<path d="M15.3497 25.2754V25.28C15.3497 26.8479 15.9989 28.2758 17.0404 29.3125C18.084 30.3511 19.5213 30.9969 21.0936 30.9969C22.6741 30.9969 24.1084 30.3558 25.1476 29.3211C26.1865 28.2865 26.8305 26.8585 26.8307 25.2851H26.8305V17.5418L15.3565 17.5399L15.3495 25.2754L15.3497 25.2754ZM24.5236 19.8582L24.524 24.7859L24.5198 25.3072H24.5199C24.5199 25.4443 24.5117 25.6007 24.4957 25.7339C24.4024 26.5129 24.0441 27.192 23.5135 27.7202C22.8922 28.3387 22.0348 28.7222 21.0898 28.7222C20.1497 28.7222 19.3119 28.3253 18.688 27.7042C18.048 27.0672 17.6771 26.1938 17.6771 25.2906L17.6758 19.8456L24.5235 19.858L24.5237 19.8582L24.5236 19.8582Z" fill="#FF0000" stroke="black" stroke-width="0.0511349"/>
<path d="M16.0924 19.5617C16.106 19.0052 16.5008 18.8735 16.5037 18.8715C16.5065 18.8696 16.9302 19.0134 16.9288 19.5668L16.0924 19.5617" fill="#FFFF00"/>
<path d="M15.7518 18.8823L15.6831 19.5218L16.1004 19.5227C16.1044 18.9936 16.501 18.9056 16.5106 18.9076C16.5195 18.9071 16.9126 19.0245 16.9231 19.5227H17.3415L17.2659 18.8783L15.7519 18.8821V18.8823L15.7518 18.8823Z" fill="#FFFF00" stroke="black" stroke-width="0.0503951"/>
<path d="M15.655 19.5244H17.363C17.399 19.5244 17.4284 19.5599 17.4284 19.6034C17.4284 19.6468 17.399 19.6821 17.363 19.6821H15.655C15.619 19.6821 15.5896 19.6468 15.5896 19.6034C15.5896 19.5599 15.619 19.5244 15.655 19.5244Z" fill="#FFFF00" stroke="black" stroke-width="0.0503951"/>
<path d="M16.2759 19.5213C16.2777 19.1874 16.5039 19.0929 16.505 19.0931C16.5051 19.0931 16.7411 19.1905 16.743 19.5213H16.2759" fill="#FFFF00"/>
<path d="M16.2759 19.5213C16.2777 19.1874 16.5039 19.0929 16.505 19.0931C16.5051 19.0931 16.7411 19.1905 16.743 19.5213H16.2759" stroke="black" stroke-width="0.0503951"/>
<path d="M15.6913 18.6162H17.3286C17.3631 18.6162 17.3914 18.6483 17.3914 18.6873C17.3914 18.7263 17.3631 18.7583 17.3286 18.7583H15.6913C15.6568 18.7583 15.6285 18.7265 15.6285 18.6873C15.6285 18.6483 15.6568 18.6162 15.6913 18.6162Z" fill="#FFFF00" stroke="black" stroke-width="0.0503951"/>
<path d="M15.7255 18.7593H17.2916C17.3246 18.7593 17.3516 18.7912 17.3516 18.8302C17.3516 18.8694 17.3246 18.9013 17.2916 18.9013H15.7255C15.6925 18.9013 15.6655 18.8694 15.6655 18.8302C15.6655 18.7912 15.6925 18.7593 15.7255 18.7593Z" fill="#FFFF00" stroke="black" stroke-width="0.0503951"/>
<path d="M16.2315 17.6919L16.3551 17.6921V17.78H16.4453V17.6902L16.572 17.6906V17.78H16.6625V17.6902H16.7892L16.789 17.893C16.789 17.9248 16.7634 17.9454 16.7338 17.9454H16.2891C16.2593 17.9454 16.2317 17.9215 16.2316 17.8924L16.2313 17.692H16.2314L16.2315 17.6919Z" fill="#FFFF00" stroke="black" stroke-width="0.0503951"/>
<path d="M16.6972 17.963L16.7251 18.6133L16.2914 18.6117L16.3201 17.9613L16.6971 17.963" fill="#FFFF00"/>
<path d="M16.6972 17.963L16.7251 18.6133L16.2914 18.6117L16.3201 17.9613L16.6971 17.963" stroke="black" stroke-width="0.0503951"/>
<path d="M16.1681 18.2644L16.1813 18.6149L15.7655 18.6151L15.7772 18.2644H16.1682H16.1681L16.1681 18.2644Z" fill="#FFFF00" stroke="black" stroke-width="0.0503951"/>
<path d="M17.2467 18.2644L17.2599 18.6149L16.8441 18.6151L16.8558 18.2644H17.2468H17.2467L17.2467 18.2644Z" fill="#FFFF00" stroke="black" stroke-width="0.0503951"/>
<path d="M15.7003 18.0105L15.8212 18.0108V18.0987H15.9097V18.0087L16.0336 18.0091V18.0987H16.1222V18.0088L16.2462 18.009L16.246 18.2117C16.246 18.2434 16.2209 18.264 16.192 18.264H15.7569C15.7277 18.264 15.7006 18.2403 15.7005 18.211L15.7002 18.0106H15.7003L15.7003 18.0105Z" fill="#FFFF00" stroke="black" stroke-width="0.0503951"/>
<path d="M16.779 18.0105L16.8998 18.0108V18.0987H16.9883V18.0087L17.1122 18.0091V18.0987H17.2008V18.0088L17.3248 18.009L17.3246 18.2117C17.3246 18.2434 17.2995 18.264 17.2706 18.264H16.8355C16.8063 18.264 16.7792 18.2403 16.7791 18.211L16.7788 18.0106H16.7789L16.779 18.0105Z" fill="#FFFF00" stroke="black" stroke-width="0.0503951"/>
<path d="M16.4664 18.1687C16.4637 18.1055 16.5547 18.1048 16.5537 18.1687V18.3235H16.4664V18.1687" fill="black"/>
<path d="M15.9292 18.3934C15.9289 18.3323 16.0136 18.3311 16.0125 18.3934V18.513H15.9292V18.3934" fill="black"/>
<path d="M17.0078 18.3934C17.0075 18.3323 17.0922 18.3311 17.0911 18.3934V18.513H17.0078V18.3934" fill="black"/>
<path d="M16.0924 23.8087C16.106 23.2522 16.5008 23.1205 16.5037 23.1185C16.5065 23.1167 16.9302 23.2604 16.9288 23.8139L16.0924 23.8087" fill="#FFFF00"/>
<path d="M15.7518 23.1293L15.6831 23.7688L16.1004 23.7697C16.1044 23.2407 16.501 23.1527 16.5106 23.1546C16.5195 23.1541 16.9126 23.2716 16.9231 23.7697H17.3415L17.2659 23.1254L15.7519 23.1292V23.1294L15.7518 23.1293Z" fill="#FFFF00" stroke="black" stroke-width="0.0503951"/>
<path d="M15.655 23.7714H17.363C17.399 23.7714 17.4284 23.8069 17.4284 23.8504C17.4284 23.8938 17.399 23.9292 17.363 23.9292H15.655C15.619 23.9292 15.5896 23.8938 15.5896 23.8504C15.5896 23.8069 15.619 23.7714 15.655 23.7714Z" fill="#FFFF00" stroke="black" stroke-width="0.0503951"/>
<path d="M16.2759 23.7683C16.2777 23.4345 16.5039 23.34 16.505 23.3401C16.5051 23.3401 16.7411 23.4376 16.743 23.7683H16.2759" fill="#FFFF00"/>
<path d="M16.2759 23.7683C16.2777 23.4345 16.5039 23.34 16.505 23.3401C16.5051 23.3401 16.7411 23.4376 16.743 23.7683H16.2759" stroke="black" stroke-width="0.0503951"/>
<path d="M15.6913 22.8633H17.3286C17.3631 22.8633 17.3914 22.8954 17.3914 22.9343C17.3914 22.9733 17.3631 23.0053 17.3286 23.0053H15.6913C15.6568 23.0053 15.6285 22.9735 15.6285 22.9343C15.6285 22.8954 15.6568 22.8633 15.6913 22.8633Z" fill="#FFFF00" stroke="black" stroke-width="0.0503951"/>
<path d="M15.7255 23.0064H17.2916C17.3246 23.0064 17.3516 23.0384 17.3516 23.0774C17.3516 23.1165 17.3246 23.1484 17.2916 23.1484H15.7255C15.6925 23.1484 15.6655 23.1165 15.6655 23.0774C15.6655 23.0384 15.6925 23.0064 15.7255 23.0064Z" fill="#FFFF00" stroke="black" stroke-width="0.0503951"/>
<path d="M16.2315 21.939L16.3551 21.9392V22.027H16.4453V21.9372L16.572 21.9376V22.0271H16.6625V21.9373H16.7892L16.789 22.14C16.789 22.1719 16.7634 22.1925 16.7338 22.1925H16.2891C16.2593 22.1925 16.2317 22.1686 16.2316 22.1394L16.2313 21.9391H16.2314L16.2315 21.939Z" fill="#FFFF00" stroke="black" stroke-width="0.0503951"/>
<path d="M16.6972 22.2102L16.7251 22.8604L16.2914 22.8588L16.3201 22.2085L16.6971 22.2102" fill="#FFFF00"/>
<path d="M16.6972 22.2102L16.7251 22.8604L16.2914 22.8588L16.3201 22.2085L16.6971 22.2102" stroke="black" stroke-width="0.0503951"/>
<path d="M16.1681 22.5115L16.1813 22.862L15.7655 22.8622L15.7772 22.5116H16.1682H16.1681L16.1681 22.5115Z" fill="#FFFF00" stroke="black" stroke-width="0.0503951"/>
<path d="M17.2467 22.5115L17.2599 22.862L16.8441 22.8622L16.8558 22.5116H17.2468H17.2467L17.2467 22.5115Z" fill="#FFFF00" stroke="black" stroke-width="0.0503951"/>
<path d="M15.7003 22.2575L15.8212 22.2578V22.3457H15.9097V22.2558L16.0336 22.2562V22.3458H16.1222V22.2558L16.2462 22.256L16.246 22.4588C16.246 22.4904 16.2209 22.511 16.192 22.511H15.7569C15.7277 22.511 15.7006 22.4873 15.7005 22.4581L15.7002 22.2576H15.7003L15.7003 22.2575Z" fill="#FFFF00" stroke="black" stroke-width="0.0503951"/>
<path d="M16.779 22.2575L16.8998 22.2578V22.3457H16.9883V22.2558L17.1122 22.2562V22.3458H17.2008V22.2558L17.3248 22.256L17.3246 22.4588C17.3246 22.4904 17.2995 22.511 17.2706 22.511H16.8355C16.8063 22.511 16.7792 22.4873 16.7791 22.4581L16.7788 22.2576H16.7789L16.779 22.2575Z" fill="#FFFF00" stroke="black" stroke-width="0.0503951"/>
<path d="M16.4664 22.4157C16.4637 22.3525 16.5547 22.3518 16.5537 22.4157V22.5706H16.4664V22.4157" fill="black"/>
<path d="M15.9292 22.6405C15.9289 22.5795 16.0136 22.5782 16.0125 22.6405V22.7602H15.9292V22.6405" fill="black"/>
<path d="M17.0078 22.6405C17.0075 22.5795 17.0922 22.5782 17.0911 22.6405V22.7602H17.0078V22.6405" fill="black"/>
<path d="M18.3252 29.5918C17.9413 29.1887 18.1274 28.8164 18.128 28.813C18.1287 28.8097 18.5299 28.6118 18.9202 29.0041L18.3252 29.5918" fill="#FFFF00"/>
<path d="M17.6039 29.3523L18.0075 29.8531L18.3032 29.5586C17.9319 29.1817 18.1501 28.839 18.1583 28.8336C18.1643 28.8269 18.5253 28.6321 18.8849 28.9769L19.1808 28.6811L18.6717 28.2788L17.6038 29.3522L17.6039 29.3523L17.6039 29.3523Z" fill="#FFFF00" stroke="black" stroke-width="0.0503951"/>
<path d="M17.9895 29.8748L19.1972 28.667C19.2227 28.6416 19.2686 28.6459 19.2994 28.6766C19.33 28.7073 19.3343 28.7531 19.3088 28.7786L18.1011 29.9863C18.0756 30.0118 18.0298 30.0076 17.9991 29.9769C17.9684 29.9462 17.964 29.9002 17.9895 29.8748Z" fill="#FFFF00" stroke="black" stroke-width="0.0503951"/>
<path d="M18.4264 29.4336C18.1917 29.1962 18.2847 28.9695 18.2857 28.9688C18.2858 28.9687 18.5215 28.8707 18.7567 29.1033L18.4264 29.4336" fill="#FFFF00"/>
<path d="M18.4264 29.4336C18.1917 29.1962 18.2847 28.9695 18.2857 28.9688C18.2858 28.9687 18.5215 28.8707 18.7567 29.1033L18.4264 29.4336" stroke="black" stroke-width="0.0503951"/>
<path d="M17.373 29.207L18.5308 28.0492C18.5551 28.0248 18.5978 28.0275 18.6254 28.055C18.653 28.0826 18.6556 28.1253 18.6312 28.1496L17.4734 29.3074C17.449 29.3318 17.4066 29.3293 17.3788 29.3016C17.3513 29.274 17.3486 29.2314 17.373 29.207Z" fill="#FFFF00" stroke="black" stroke-width="0.0503951"/>
<path d="M17.4985 29.2839L18.6059 28.1765C18.6292 28.1532 18.6709 28.1567 18.6985 28.1843C18.7261 28.2119 18.7296 28.2536 18.7062 28.2769L17.5989 29.3843C17.5755 29.4076 17.5339 29.4042 17.5062 29.3765C17.4786 29.3489 17.4752 29.3072 17.4985 29.2839Z" fill="#FFFF00" stroke="black" stroke-width="0.0503951"/>
<path d="M17.1014 28.1714L17.189 28.0841L17.2511 28.1462L17.3149 28.0824L17.2514 28.0189L17.3413 27.9296L17.4045 27.9928L17.4685 27.9289L17.405 27.8654L17.4946 27.7758L17.6379 27.9193C17.6604 27.9418 17.6569 27.9745 17.6359 27.9954L17.3215 28.3098C17.3004 28.331 17.264 28.3335 17.2433 28.313L17.1014 28.1715L17.1015 28.1715L17.1014 28.1714Z" fill="#FFFF00" stroke="black" stroke-width="0.0503951"/>
<path d="M17.6225 28.0339L18.102 28.4739L17.7942 28.7795L17.3547 28.2993L17.6225 28.0339" fill="#FFFF00"/>
<path d="M17.6225 28.0339L18.102 28.4739L17.7942 28.7795L17.3547 28.2993L17.6225 28.0339" stroke="black" stroke-width="0.0503951"/>
<path d="M17.4614 28.6211L17.7186 28.8595L17.4247 29.1537L17.1851 28.8974L17.4615 28.621L17.4614 28.6211L17.4614 28.6211Z" fill="#FFFF00" stroke="black" stroke-width="0.0503951"/>
<path d="M18.2241 27.8583L18.4813 28.0968L18.1874 28.391L17.9478 28.1347L18.2242 27.8583L18.2241 27.8584L18.2241 27.8583Z" fill="#FFFF00" stroke="black" stroke-width="0.0503951"/>
<path d="M16.9512 28.7721L17.0369 28.6869L17.099 28.749L17.1616 28.6865L17.098 28.6229L17.1859 28.5355L17.2492 28.5989L17.3119 28.5362L17.2483 28.4726L17.3361 28.3851L17.4793 28.5286C17.5017 28.551 17.4986 28.5833 17.4781 28.6038L17.1704 28.9114C17.1498 28.9321 17.1138 28.9344 17.0931 28.9138L16.9511 28.7723L16.9512 28.7722L16.9512 28.7721Z" fill="#FFFF00" stroke="black" stroke-width="0.0503951"/>
<path d="M17.7139 28.0095L17.7996 27.9243L17.8617 27.9864L17.9243 27.9239L17.8606 27.8603L17.9486 27.7729L18.0119 27.8363L18.0746 27.7736L18.011 27.71L18.0988 27.6225L18.242 27.766C18.2644 27.7884 18.2612 27.8207 18.2408 27.8412L17.9331 28.1488C17.9125 28.1695 17.8765 28.1718 17.8558 28.1512L17.7138 28.0097L17.7139 28.0096L17.7139 28.0095Z" fill="#FFFF00" stroke="black" stroke-width="0.0503951"/>
<path d="M17.6047 28.3425C17.5581 28.2997 17.622 28.2348 17.6664 28.2808L17.7759 28.3902L17.7142 28.452L17.6047 28.3425" fill="black"/>
<path d="M17.3838 28.8813C17.3404 28.8383 17.3994 28.7775 17.4427 28.8224L17.5273 28.907L17.4684 28.9658L17.3838 28.8812" fill="black"/>
<path d="M18.1464 28.1186C18.103 28.0756 18.162 28.0149 18.2053 28.0597L18.2899 28.1443L18.231 28.2031L18.1464 28.1185" fill="black"/>
<path d="M20.7085 19.5617C20.7221 19.0052 21.1169 18.8735 21.1198 18.8715C21.1226 18.8696 21.5463 19.0134 21.5448 19.5668L20.7085 19.5617" fill="#FFFF00"/>
<path d="M20.3679 18.8823L20.2992 19.5218L20.7165 19.5227C20.7205 18.9936 21.1171 18.9056 21.1267 18.9076C21.1356 18.9071 21.5287 19.0245 21.5392 19.5227H21.9576L21.882 18.8783L20.3679 18.8821V18.8823L20.3679 18.8823Z" fill="#FFFF00" stroke="black" stroke-width="0.0503951"/>
<path d="M20.2711 19.5244H21.9791C22.0151 19.5244 22.0445 19.5599 22.0445 19.6034C22.0445 19.6468 22.0151 19.6821 21.9791 19.6821H20.2711C20.2351 19.6821 20.2057 19.6468 20.2057 19.6034C20.2057 19.5599 20.2351 19.5244 20.2711 19.5244Z" fill="#FFFF00" stroke="black" stroke-width="0.0503951"/>
<path d="M20.892 19.5213C20.8938 19.1874 21.12 19.0929 21.1211 19.0931C21.1212 19.0931 21.3572 19.1905 21.3591 19.5213H20.892" fill="#FFFF00"/>
<path d="M20.892 19.5213C20.8938 19.1874 21.12 19.0929 21.1211 19.0931C21.1212 19.0931 21.3572 19.1905 21.3591 19.5213H20.892" stroke="black" stroke-width="0.0503951"/>
<path d="M20.3074 18.6162H21.9447C21.9792 18.6162 22.0075 18.6483 22.0075 18.6873C22.0075 18.7263 21.9792 18.7583 21.9447 18.7583H20.3074C20.2729 18.7583 20.2446 18.7265 20.2446 18.6873C20.2446 18.6483 20.2729 18.6162 20.3074 18.6162Z" fill="#FFFF00" stroke="black" stroke-width="0.0503951"/>
<path d="M20.3416 18.7593H21.9077C21.9407 18.7593 21.9677 18.7912 21.9677 18.8302C21.9677 18.8694 21.9407 18.9013 21.9077 18.9013H20.3416C20.3086 18.9013 20.2816 18.8694 20.2816 18.8302C20.2816 18.7912 20.3086 18.7593 20.3416 18.7593Z" fill="#FFFF00" stroke="black" stroke-width="0.0503951"/>
<path d="M20.8476 17.6919L20.9712 17.6921V17.78H21.0614V17.6902L21.1881 17.6906V17.78H21.2786V17.6902H21.4053L21.4051 17.893C21.4051 17.9248 21.3795 17.9454 21.3498 17.9454H20.9052C20.8754 17.9454 20.8478 17.9215 20.8477 17.8924L20.8474 17.692H20.8475L20.8476 17.6919Z" fill="#FFFF00" stroke="black" stroke-width="0.0503951"/>
<path d="M21.3132 17.963L21.3412 18.6133L20.9075 18.6117L20.9362 17.9613L21.3132 17.963" fill="#FFFF00"/>
<path d="M21.3132 17.963L21.3412 18.6133L20.9075 18.6117L20.9362 17.9613L21.3132 17.963" stroke="black" stroke-width="0.0503951"/>
<path d="M20.7842 18.2644L20.7974 18.6149L20.3816 18.6151L20.3933 18.2644H20.7842H20.7842L20.7842 18.2644Z" fill="#FFFF00" stroke="black" stroke-width="0.0503951"/>
<path d="M21.8628 18.2644L21.876 18.6149L21.4602 18.6151L21.4719 18.2644H21.8629H21.8628L21.8628 18.2644Z" fill="#FFFF00" stroke="black" stroke-width="0.0503951"/>
<path d="M20.3164 18.0105L20.4373 18.0108V18.0987H20.5258V18.0087L20.6497 18.0091V18.0987H20.7383V18.0088L20.8623 18.009L20.8621 18.2117C20.8621 18.2434 20.837 18.264 20.808 18.264H20.3729C20.3438 18.264 20.3167 18.2403 20.3166 18.211L20.3163 18.0106H20.3164L20.3164 18.0105Z" fill="#FFFF00" stroke="black" stroke-width="0.0503951"/>
<path d="M21.395 18.0105L21.5159 18.0108V18.0987H21.6044V18.0087L21.7283 18.0091V18.0987H21.8169V18.0088L21.9409 18.009L21.9407 18.2117C21.9407 18.2434 21.9156 18.264 21.8867 18.264H21.4516C21.4224 18.264 21.3953 18.2403 21.3952 18.211L21.3949 18.0106H21.395L21.395 18.0105Z" fill="#FFFF00" stroke="black" stroke-width="0.0503951"/>
<path d="M21.0825 18.1687C21.0798 18.1055 21.1708 18.1048 21.1697 18.1687V18.3235H21.0825V18.1687" fill="black"/>
<path d="M20.5453 18.3934C20.545 18.3323 20.6296 18.3311 20.6286 18.3934V18.513H20.5453V18.3934" fill="black"/>
<path d="M21.6239 18.3934C21.6236 18.3323 21.7083 18.3311 21.7072 18.3934V18.513H21.6239V18.3934" fill="black"/>
<path d="M25.1433 19.5617C25.1569 19.0052 25.5518 18.8735 25.5546 18.8715C25.5574 18.8696 25.9811 19.0134 25.9797 19.5668L25.1433 19.5617" fill="#FFFF00"/>
<path d="M24.8026 18.8823L24.7339 19.5218L25.1512 19.5227C25.1552 18.9936 25.5517 18.9056 25.5613 18.9076C25.5703 18.9071 25.9634 19.0245 25.9739 19.5227H26.3923L26.3167 18.8783L24.8026 18.8821V18.8823L24.8026 18.8823Z" fill="#FFFF00" stroke="black" stroke-width="0.0503951"/>
<path d="M24.7059 19.5244H26.4139C26.4499 19.5244 26.4793 19.5599 26.4793 19.6034C26.4793 19.6468 26.4499 19.6821 26.4139 19.6821H24.7059C24.6699 19.6821 24.6405 19.6468 24.6405 19.6034C24.6405 19.5599 24.6699 19.5244 24.7059 19.5244Z" fill="#FFFF00" stroke="black" stroke-width="0.0503951"/>
<path d="M25.3268 19.5213C25.3286 19.1874 25.5548 19.0929 25.5559 19.0931C25.556 19.0931 25.792 19.1905 25.7939 19.5213H25.3268" fill="#FFFF00"/>
<path d="M25.3268 19.5213C25.3286 19.1874 25.5548 19.0929 25.5559 19.0931C25.556 19.0931 25.792 19.1905 25.7939 19.5213H25.3268" stroke="black" stroke-width="0.0503951"/>
<path d="M24.7422 18.6162H26.3795C26.414 18.6162 26.4423 18.6483 26.4423 18.6873C26.4423 18.7263 26.414 18.7583 26.3795 18.7583H24.7422C24.7077 18.7583 24.6794 18.7265 24.6794 18.6873C24.6794 18.6483 24.7077 18.6162 24.7422 18.6162Z" fill="#FFFF00" stroke="black" stroke-width="0.0503951"/>
<path d="M24.7764 18.7593H26.3425C26.3755 18.7593 26.4025 18.7912 26.4025 18.8302C26.4025 18.8694 26.3755 18.9013 26.3425 18.9013H24.7764C24.7435 18.9013 24.7164 18.8694 24.7164 18.8302C24.7164 18.7912 24.7435 18.7593 24.7764 18.7593Z" fill="#FFFF00" stroke="black" stroke-width="0.0503951"/>
<path d="M25.2825 17.6919L25.4061 17.6921V17.78H25.4964V17.6902L25.623 17.6906V17.78H25.7135V17.6902H25.8403L25.8401 17.893C25.8401 17.9248 25.8145 17.9454 25.7848 17.9454H25.3402C25.3103 17.9454 25.2827 17.9215 25.2827 17.8924L25.2823 17.692H25.2824L25.2825 17.6919Z" fill="#FFFF00" stroke="black" stroke-width="0.0503951"/>
<path d="M25.7481 17.963L25.776 18.6133L25.3423 18.6117L25.371 17.9613L25.7481 17.963" fill="#FFFF00"/>
<path d="M25.7481 17.963L25.776 18.6133L25.3423 18.6117L25.371 17.9613L25.7481 17.963" stroke="black" stroke-width="0.0503951"/>
<path d="M25.219 18.2644L25.2322 18.6149L24.8164 18.6151L24.8281 18.2644H25.2191H25.219L25.219 18.2644Z" fill="#FFFF00" stroke="black" stroke-width="0.0503951"/>
<path d="M26.2976 18.2644L26.3108 18.6149L25.895 18.6151L25.9068 18.2644H26.2977H26.2976L26.2976 18.2644Z" fill="#FFFF00" stroke="black" stroke-width="0.0503951"/>
<path d="M24.7512 18.0105L24.8721 18.0108V18.0987H24.9606V18.0087L25.0845 18.0091V18.0987H25.1731V18.0088L25.2971 18.009L25.2969 18.2117C25.2969 18.2434 25.2718 18.264 25.2429 18.264H24.8078C24.7786 18.264 24.7515 18.2403 24.7514 18.211L24.7511 18.0106H24.7512L24.7512 18.0105Z" fill="#FFFF00" stroke="black" stroke-width="0.0503951"/>
<path d="M25.8299 18.0105L25.9507 18.0108V18.0987H26.0392V18.0087L26.1631 18.0091V18.0987H26.2517V18.0088L26.3757 18.009L26.3755 18.2117C26.3755 18.2434 26.3504 18.264 26.3215 18.264H25.8864C25.8572 18.264 25.8301 18.2403 25.83 18.211L25.8297 18.0106H25.8298L25.8299 18.0105Z" fill="#FFFF00" stroke="black" stroke-width="0.0503951"/>
<path d="M25.5173 18.1687C25.5146 18.1055 25.6056 18.1048 25.6046 18.1687V18.3235H25.5173V18.1687" fill="black"/>
<path d="M24.9801 18.3934C24.9798 18.3323 25.0645 18.3311 25.0634 18.3934V18.513H24.9801V18.3934" fill="black"/>
<path d="M26.0587 18.3934C26.0584 18.3323 26.1431 18.3311 26.142 18.3934V18.513H26.0588V18.3934" fill="black"/>
<path d="M25.1433 23.8087C25.1569 23.2522 25.5518 23.1205 25.5546 23.1185C25.5574 23.1167 25.9811 23.2604 25.9797 23.8139L25.1433 23.8087" fill="#FFFF00"/>
<path d="M24.8026 23.1293L24.7339 23.7688L25.1512 23.7697C25.1552 23.2407 25.5517 23.1527 25.5613 23.1546C25.5703 23.1541 25.9634 23.2716 25.9739 23.7697H26.3923L26.3167 23.1254L24.8026 23.1292V23.1294L24.8026 23.1293Z" fill="#FFFF00" stroke="black" stroke-width="0.0503951"/>
<path d="M24.7059 23.7714H26.4139C26.4499 23.7714 26.4793 23.8069 26.4793 23.8504C26.4793 23.8938 26.4499 23.9292 26.4139 23.9292H24.7059C24.6699 23.9292 24.6405 23.8938 24.6405 23.8504C24.6405 23.8069 24.6699 23.7714 24.7059 23.7714Z" fill="#FFFF00" stroke="black" stroke-width="0.0503951"/>
<path d="M25.3268 23.7683C25.3286 23.4345 25.5548 23.34 25.5559 23.3401C25.556 23.3401 25.792 23.4376 25.7939 23.7683H25.3268" fill="#FFFF00"/>
<path d="M25.3268 23.7683C25.3286 23.4345 25.5548 23.34 25.5559 23.3401C25.556 23.3401 25.792 23.4376 25.7939 23.7683H25.3268" stroke="black" stroke-width="0.0503951"/>
<path d="M24.7422 22.8633H26.3795C26.414 22.8633 26.4423 22.8954 26.4423 22.9343C26.4423 22.9733 26.414 23.0053 26.3795 23.0053H24.7422C24.7077 23.0053 24.6794 22.9735 24.6794 22.9343C24.6794 22.8954 24.7077 22.8633 24.7422 22.8633Z" fill="#FFFF00" stroke="black" stroke-width="0.0503951"/>
<path d="M24.7764 23.0064H26.3425C26.3755 23.0064 26.4025 23.0384 26.4025 23.0774C26.4025 23.1165 26.3755 23.1484 26.3425 23.1484H24.7764C24.7435 23.1484 24.7164 23.1165 24.7164 23.0774C24.7164 23.0384 24.7435 23.0064 24.7764 23.0064Z" fill="#FFFF00" stroke="black" stroke-width="0.0503951"/>
<path d="M25.2825 21.939L25.4061 21.9392V22.027H25.4964V21.9372L25.623 21.9376V22.0271H25.7135V21.9373H25.8403L25.8401 22.14C25.8401 22.1719 25.8145 22.1925 25.7848 22.1925H25.3402C25.3103 22.1925 25.2827 22.1686 25.2827 22.1394L25.2823 21.9391H25.2824L25.2825 21.939Z" fill="#FFFF00" stroke="black" stroke-width="0.0503951"/>
<path d="M25.7481 22.2102L25.776 22.8604L25.3423 22.8588L25.371 22.2085L25.7481 22.2102" fill="#FFFF00"/>
<path d="M25.7481 22.2102L25.776 22.8604L25.3423 22.8588L25.371 22.2085L25.7481 22.2102" stroke="black" stroke-width="0.0503951"/>
<path d="M25.219 22.5115L25.2322 22.862L24.8164 22.8622L24.8281 22.5116H25.2191H25.219L25.219 22.5115Z" fill="#FFFF00" stroke="black" stroke-width="0.0503951"/>
<path d="M26.2976 22.5115L26.3108 22.862L25.895 22.8622L25.9068 22.5116H26.2977H26.2976L26.2976 22.5115Z" fill="#FFFF00" stroke="black" stroke-width="0.0503951"/>
<path d="M24.7512 22.2575L24.8721 22.2578V22.3457H24.9606V22.2558L25.0845 22.2562V22.3458H25.1731V22.2558L25.2971 22.256L25.2969 22.4588C25.2969 22.4904 25.2718 22.511 25.2429 22.511H24.8078C24.7786 22.511 24.7515 22.4873 24.7514 22.4581L24.7511 22.2576H24.7512L24.7512 22.2575Z" fill="#FFFF00" stroke="black" stroke-width="0.0503951"/>
<path d="M25.8299 22.2575L25.9507 22.2578V22.3457H26.0392V22.2558L26.1631 22.2562V22.3458H26.2517V22.2558L26.3757 22.256L26.3755 22.4588C26.3755 22.4904 26.3504 22.511 26.3215 22.511H25.8864C25.8572 22.511 25.8301 22.4873 25.83 22.4581L25.8297 22.2576H25.8298L25.8299 22.2575Z" fill="#FFFF00" stroke="black" stroke-width="0.0503951"/>
<path d="M25.5173 22.4157C25.5146 22.3525 25.6056 22.3518 25.6046 22.4157V22.5706H25.5173V22.4157" fill="black"/>
<path d="M24.9801 22.6405C24.9798 22.5795 25.0645 22.5782 25.0634 22.6405V22.7602H24.9801V22.6405" fill="black"/>
<path d="M26.0587 22.6405C26.0584 22.5795 26.1431 22.5782 26.142 22.6405V22.7602H26.0588V22.6405" fill="black"/>
<path d="M23.1663 29.0028C23.5694 28.6189 23.9417 28.8049 23.9451 28.8056C23.9484 28.8063 24.1464 29.2075 23.754 29.5978L23.1663 29.0028" fill="#FFFF00"/>
<path d="M23.4056 28.2815L22.9049 28.6851L23.1993 28.9809C23.5763 28.6096 23.9189 28.8277 23.9243 28.8359C23.931 28.8419 24.1259 29.2029 23.781 29.5626L24.0769 29.8584L24.4791 29.3494L23.4058 28.2814L23.4056 28.2816L23.4056 28.2815Z" fill="#FFFF00" stroke="black" stroke-width="0.0503951"/>
<path d="M22.8833 28.6671L24.091 29.8748C24.1165 29.9003 24.1121 29.9462 24.0814 29.9769C24.0507 30.0076 24.0049 30.0118 23.9795 29.9864L22.7717 28.7786C22.7463 28.7532 22.7505 28.7074 22.7812 28.6767C22.8119 28.646 22.8578 28.6416 22.8833 28.6671Z" fill="#FFFF00" stroke="black" stroke-width="0.0503951"/>
<path d="M23.3244 29.104C23.5618 28.8692 23.7885 28.9623 23.7892 28.9632C23.7893 28.9633 23.8873 29.199 23.6547 29.4343L23.3244 29.104" fill="#FFFF00"/>
<path d="M23.3244 29.104C23.5618 28.8692 23.7885 28.9623 23.7892 28.9632C23.7893 28.9633 23.8873 29.199 23.6547 29.4343L23.3244 29.104" stroke="black" stroke-width="0.0503951"/>
<path d="M23.5511 28.0506L24.7089 29.2084C24.7332 29.2328 24.7305 29.2755 24.703 29.303C24.6754 29.3306 24.6328 29.3332 24.6084 29.3088L23.4506 28.1511C23.4263 28.1267 23.4288 28.0842 23.4565 28.0565C23.484 28.0289 23.5267 28.0262 23.5511 28.0506Z" fill="#FFFF00" stroke="black" stroke-width="0.0503951"/>
<path d="M23.4741 28.1761L24.5815 29.2834C24.6048 29.3068 24.6013 29.3484 24.5737 29.376C24.5461 29.4037 24.5044 29.4071 24.4811 29.3838L23.3737 28.2764C23.3504 28.2531 23.3538 28.2115 23.3815 28.1838C23.4091 28.1562 23.4507 28.1527 23.4741 28.1761Z" fill="#FFFF00" stroke="black" stroke-width="0.0503951"/>
<path d="M24.5866 27.7791L24.6739 27.8666L24.6118 27.9287L24.6756 27.9925L24.7391 27.929L24.8284 28.0189L24.7651 28.0821L24.8291 28.1461L24.8926 28.0826L24.9822 28.1723L24.8387 28.3155C24.8162 28.338 24.7835 28.3345 24.7625 28.3135L24.4482 27.9991C24.427 27.978 24.4245 27.9416 24.445 27.9209L24.5865 27.779L24.5865 27.7791L24.5866 27.7791Z" fill="#FFFF00" stroke="black" stroke-width="0.0503951"/>
<path d="M24.7242 28.3001L24.2842 28.7796L23.9786 28.4718L24.4588 28.0323L24.7242 28.3001" fill="#FFFF00"/>
<path d="M24.7242 28.3001L24.2842 28.7796L23.9786 28.4718L24.4588 28.0323L24.7242 28.3001" stroke="black" stroke-width="0.0503951"/>
<path d="M24.137 28.139L23.8985 28.3962L23.6043 28.1023L23.8606 27.8627L24.137 28.1391L24.1369 28.139L24.137 28.139Z" fill="#FFFF00" stroke="black" stroke-width="0.0503951"/>
<path d="M24.8997 28.9017L24.6612 29.1589L24.367 28.865L24.6233 28.6253L24.8997 28.9018L24.8996 28.9017L24.8997 28.9017Z" fill="#FFFF00" stroke="black" stroke-width="0.0503951"/>
<path d="M23.9858 27.6287L24.0711 27.7144L24.0089 27.7766L24.0715 27.8391L24.1351 27.7755L24.2224 27.8634L24.159 27.9268L24.2217 27.9895L24.2853 27.9259L24.3728 28.0137L24.2293 28.1569C24.207 28.1793 24.1746 28.1761 24.1542 28.1556L23.8465 27.848C23.8259 27.8274 23.8235 27.7914 23.8441 27.7707L23.9856 27.6287L23.9857 27.6288L23.9858 27.6287Z" fill="#FFFF00" stroke="black" stroke-width="0.0503951"/>
<path d="M24.7485 28.3914L24.8338 28.477L24.7716 28.5392L24.8341 28.6017L24.8978 28.5381L24.9851 28.626L24.9217 28.6894L24.9844 28.7521L25.048 28.6885L25.1355 28.7763L24.992 28.9195C24.9696 28.9419 24.9373 28.9387 24.9169 28.9182L24.6092 28.6106C24.5886 28.59 24.5862 28.554 24.6068 28.5333L24.7483 28.3913L24.7484 28.3914L24.7485 28.3914Z" fill="#FFFF00" stroke="black" stroke-width="0.0503951"/>
<path d="M24.4156 28.2822C24.4584 28.2356 24.5232 28.2995 24.4773 28.3439L24.3678 28.4534L24.3061 28.3917L24.4155 28.2823" fill="black"/>
<path d="M23.8768 28.0613C23.9198 28.0179 23.9805 28.0769 23.9357 28.1202L23.8511 28.2048L23.7922 28.1459L23.8768 28.0613" fill="black"/>
<path d="M24.6394 28.824C24.6824 28.7806 24.7431 28.8396 24.6983 28.8829L24.6137 28.9675L24.5548 28.9086L24.6394 28.824" fill="black"/>
<path d="M20.3707 24.3972V24.3977C20.3707 24.6206 20.4563 24.8237 20.5936 24.9711C20.7312 25.1189 20.9207 25.2108 21.128 25.2108C21.3363 25.2108 21.5255 25.1196 21.6625 24.9724C21.7993 24.8253 21.8844 24.6224 21.8844 24.3986V23.3133L20.3734 23.312L20.3706 24.3971" fill="#003399"/>
<path d="M20.7172 23.8745C20.7999 23.8745 20.8669 23.8074 20.8669 23.7247C20.8669 23.642 20.7999 23.575 20.7172 23.575C20.6344 23.575 20.5674 23.642 20.5674 23.7247C20.5674 23.8074 20.6344 23.8745 20.7172 23.8745Z" fill="white"/>
<path d="M21.5555 23.8752C21.6383 23.8752 21.7053 23.8082 21.7053 23.7255C21.7053 23.6427 21.6383 23.5757 21.5555 23.5757C21.4728 23.5757 21.4058 23.6427 21.4058 23.7255C21.4058 23.8082 21.4728 23.8752 21.5555 23.8752Z" fill="white"/>
<path d="M21.1356 24.2776C21.2183 24.2776 21.2854 24.2106 21.2854 24.1278C21.2854 24.0451 21.2183 23.9781 21.1356 23.9781C21.0529 23.9781 20.9858 24.0451 20.9858 24.1278C20.9858 24.2106 21.0529 24.2776 21.1356 24.2776Z" fill="white"/>
<path d="M20.7172 24.6991C20.7999 24.6991 20.8669 24.632 20.8669 24.5493C20.8669 24.4666 20.7999 24.3995 20.7172 24.3995C20.6344 24.3995 20.5674 24.4666 20.5674 24.5493C20.5674 24.632 20.6344 24.6991 20.7172 24.6991Z" fill="white"/>
<path d="M21.5547 24.698C21.6374 24.698 21.7045 24.6309 21.7045 24.5482C21.7045 24.4655 21.6374 24.3984 21.5547 24.3984C21.472 24.3984 21.4049 24.4655 21.4049 24.5482C21.4049 24.6309 21.472 24.698 21.5547 24.698Z" fill="white"/>
<path d="M20.3707 21.9137V21.9142C20.3707 22.1372 20.4563 22.3403 20.5936 22.4877C20.7312 22.6355 20.9207 22.7273 21.128 22.7273C21.3363 22.7273 21.5255 22.6361 21.6625 22.4889C21.7993 22.3419 21.8844 22.1389 21.8844 21.9151V20.8298L20.3734 20.8286L20.3706 21.9137" fill="#003399"/>
<path d="M20.7172 21.3911C20.7999 21.3911 20.8669 21.3241 20.8669 21.2414C20.8669 21.1586 20.7999 21.0916 20.7172 21.0916C20.6344 21.0916 20.5674 21.1586 20.5674 21.2414C20.5674 21.3241 20.6344 21.3911 20.7172 21.3911Z" fill="white"/>
<path d="M21.5555 21.3918C21.6383 21.3918 21.7053 21.3248 21.7053 21.2421C21.7053 21.1593 21.6383 21.0923 21.5555 21.0923C21.4728 21.0923 21.4058 21.1593 21.4058 21.2421C21.4058 21.3248 21.4728 21.3918 21.5555 21.3918Z" fill="white"/>
<path d="M21.1356 21.7943C21.2183 21.7943 21.2854 21.7273 21.2854 21.6446C21.2854 21.5618 21.2183 21.4948 21.1356 21.4948C21.0529 21.4948 20.9858 21.5618 20.9858 21.6446C20.9858 21.7273 21.0529 21.7943 21.1356 21.7943Z" fill="white"/>
<path d="M20.7172 22.2157C20.7999 22.2157 20.8669 22.1486 20.8669 22.0659C20.8669 21.9832 20.7999 21.9161 20.7172 21.9161C20.6344 21.9161 20.5674 21.9832 20.5674 22.0659C20.5674 22.1486 20.6344 22.2157 20.7172 22.2157Z" fill="white"/>
<path d="M21.5547 22.2146C21.6374 22.2146 21.7045 22.1475 21.7045 22.0648C21.7045 21.9821 21.6374 21.915 21.5547 21.915C21.472 21.915 21.4049 21.9821 21.4049 22.0648C21.4049 22.1475 21.472 22.2146 21.5547 22.2146Z" fill="white"/>
<path d="M20.3707 26.8524V26.8529C20.3707 27.0758 20.4563 27.2789 20.5936 27.4263C20.7312 27.5741 20.9207 27.666 21.128 27.666C21.3363 27.666 21.5255 27.5748 21.6625 27.4276C21.7993 27.2805 21.8844 27.0776 21.8844 26.8538V25.7685L20.3734 25.7672L20.3706 26.8523" fill="#003399"/>
<path d="M20.7172 26.3299C20.7999 26.3299 20.8669 26.2628 20.8669 26.1801C20.8669 26.0974 20.7999 26.0303 20.7172 26.0303C20.6344 26.0303 20.5674 26.0974 20.5674 26.1801C20.5674 26.2628 20.6344 26.3299 20.7172 26.3299Z" fill="white"/>
<path d="M21.5555 26.3306C21.6383 26.3306 21.7053 26.2635 21.7053 26.1808C21.7053 26.0981 21.6383 26.031 21.5555 26.031C21.4728 26.031 21.4058 26.0981 21.4058 26.1808C21.4058 26.2635 21.4728 26.3306 21.5555 26.3306Z" fill="white"/>
<path d="M21.1356 26.733C21.2183 26.733 21.2854 26.6659 21.2854 26.5832C21.2854 26.5005 21.2183 26.4334 21.1356 26.4334C21.0529 26.4334 20.9858 26.5005 20.9858 26.5832C20.9858 26.6659 21.0529 26.733 21.1356 26.733Z" fill="white"/>
<path d="M20.7172 27.1544C20.7999 27.1544 20.8669 27.0874 20.8669 27.0046C20.8669 26.9219 20.7999 26.8549 20.7172 26.8549C20.6344 26.8549 20.5674 26.9219 20.5674 27.0046C20.5674 27.0874 20.6344 27.1544 20.7172 27.1544Z" fill="white"/>
<path d="M21.5547 27.1533C21.6374 27.1533 21.7045 27.0862 21.7045 27.0035C21.7045 26.9208 21.6374 26.8537 21.5547 26.8537C21.472 26.8537 21.4049 26.9208 21.4049 27.0035C21.4049 27.0862 21.472 27.1533 21.5547 27.1533Z" fill="white"/>
<path d="M18.4924 24.3972V24.3977C18.4924 24.6206 18.578 24.8237 18.7153 24.9711C18.8529 25.1189 19.0424 25.2108 19.2497 25.2108C19.458 25.2108 19.6472 25.1196 19.7842 24.9724C19.921 24.8253 20.0061 24.6224 20.0061 24.3986V23.3133L18.4951 23.312L18.4923 24.3971" fill="#003399"/>
<path d="M18.8389 23.8745C18.9216 23.8745 18.9886 23.8074 18.9886 23.7247C18.9886 23.642 18.9216 23.575 18.8389 23.575C18.7561 23.575 18.6891 23.642 18.6891 23.7247C18.6891 23.8074 18.7561 23.8745 18.8389 23.8745Z" fill="white"/>
<path d="M19.6772 23.8752C19.76 23.8752 19.827 23.8082 19.827 23.7255C19.827 23.6427 19.76 23.5757 19.6772 23.5757C19.5945 23.5757 19.5275 23.6427 19.5275 23.7255C19.5275 23.8082 19.5945 23.8752 19.6772 23.8752Z" fill="white"/>
<path d="M19.2572 24.2776C19.3399 24.2776 19.407 24.2106 19.407 24.1278C19.407 24.0451 19.3399 23.9781 19.2572 23.9781C19.1745 23.9781 19.1074 24.0451 19.1074 24.1278C19.1074 24.2106 19.1745 24.2776 19.2572 24.2776Z" fill="white"/>
<path d="M18.8389 24.6991C18.9216 24.6991 18.9886 24.632 18.9886 24.5493C18.9886 24.4666 18.9216 24.3995 18.8389 24.3995C18.7561 24.3995 18.6891 24.4666 18.6891 24.5493C18.6891 24.632 18.7561 24.6991 18.8389 24.6991Z" fill="white"/>
<path d="M19.6763 24.698C19.759 24.698 19.826 24.6309 19.826 24.5482C19.826 24.4655 19.759 24.3984 19.6763 24.3984C19.5935 24.3984 19.5265 24.4655 19.5265 24.5482C19.5265 24.6309 19.5935 24.698 19.6763 24.698Z" fill="white"/>
<path d="M22.2216 24.3972V24.3977C22.2216 24.6206 22.3072 24.8237 22.4445 24.9711C22.5821 25.1189 22.7716 25.2108 22.9789 25.2108C23.1873 25.2108 23.3764 25.1196 23.5134 24.9724C23.6503 24.8253 23.7354 24.6224 23.7354 24.3986V23.3133L22.2243 23.312L22.2216 24.3971" fill="#003399"/>
<path d="M22.5681 23.8745C22.6508 23.8745 22.7179 23.8074 22.7179 23.7247C22.7179 23.642 22.6508 23.575 22.5681 23.575C22.4854 23.575 22.4183 23.642 22.4183 23.7247C22.4183 23.8074 22.4854 23.8745 22.5681 23.8745Z" fill="white"/>
<path d="M23.4065 23.8752C23.4892 23.8752 23.5563 23.8082 23.5563 23.7255C23.5563 23.6427 23.4892 23.5757 23.4065 23.5757C23.3238 23.5757 23.2567 23.6427 23.2567 23.7255C23.2567 23.8082 23.3238 23.8752 23.4065 23.8752Z" fill="white"/>
<path d="M22.9866 24.2776C23.0693 24.2776 23.1363 24.2106 23.1363 24.1278C23.1363 24.0451 23.0693 23.9781 22.9866 23.9781C22.9038 23.9781 22.8368 24.0451 22.8368 24.1278C22.8368 24.2106 22.9038 24.2776 22.9866 24.2776Z" fill="white"/>
<path d="M22.5681 24.6991C22.6508 24.6991 22.7179 24.632 22.7179 24.5493C22.7179 24.4666 22.6508 24.3995 22.5681 24.3995C22.4854 24.3995 22.4183 24.4666 22.4183 24.5493C22.4183 24.632 22.4854 24.6991 22.5681 24.6991Z" fill="white"/>
<path d="M23.4055 24.698C23.4882 24.698 23.5553 24.6309 23.5553 24.5482C23.5553 24.4655 23.4882 24.3984 23.4055 24.3984C23.3228 24.3984 23.2557 24.4655 23.2557 24.5482C23.2557 24.6309 23.3228 24.698 23.4055 24.698Z" fill="white"/>
</g>
</svg>
