<svg width="54" height="54" viewBox="0 0 54 54" fill="none" xmlns="http://www.w3.org/2000/svg">
<mask id="mask0_1_42056" style="mask-type:alpha" maskUnits="userSpaceOnUse" x="3" y="9" width="48" height="36">
<path d="M3.56934 18.1356C4.16681 13.4125 8.0415 10.0019 12.7861 9.60887C16.6412 9.28949 21.6196 9 27 9C32.3804 9 37.3588 9.28949 41.2139 9.60887C45.9585 10.0019 49.8332 13.4125 50.4307 18.1356C50.752 20.6759 51 23.704 51 27C51 30.296 50.752 33.3241 50.4307 35.8644C49.8332 40.5875 45.9585 43.9981 41.2139 44.3911C37.3588 44.7105 32.3804 45 27 45C21.6196 45 16.6412 44.7105 12.7861 44.3911C8.04151 43.9981 4.16681 40.5875 3.56934 35.8644C3.248 33.3241 3 30.296 3 27C3 23.704 3.248 20.6759 3.56934 18.1356Z" fill="#00D0BF"/>
</mask>
<g mask="url(#mask0_1_42056)">
<rect x="3" y="3" width="24" height="49" fill="#59C785"/>
<rect x="21" y="3" width="30" height="49" fill="#EE5757"/>
<path fill-rule="evenodd" clip-rule="evenodd" d="M28.9987 33.4076C25.9539 33.3159 11.9914 24.6006 11.8956 23.2127L12.6666 21.9269C14.0516 23.9393 28.3254 32.4151 29.7274 32.1148L28.9987 33.4072" fill="#FFFF00"/>
<path d="M28.9987 33.4076C25.9539 33.3159 11.9914 24.6006 11.8956 23.2127L12.6666 21.9269C14.0516 23.9393 28.3254 32.4151 29.7274 32.1148L28.9987 33.4072" stroke="black" stroke-width="0.0577528" stroke-linecap="round" stroke-linejoin="round"/>
<path fill-rule="evenodd" clip-rule="evenodd" d="M12.5044 21.7522C12.2312 22.4874 16.1478 24.9088 20.8602 27.7749C25.5723 30.6407 29.6355 32.4118 29.9367 32.1578C29.9551 32.125 30.0848 31.9017 30.0729 31.9035C30.0165 31.9886 29.8791 32.0154 29.6647 31.9536C28.3916 31.5864 25.0711 30.0623 20.959 27.5687C16.847 25.0748 13.2693 22.7767 12.7133 21.8002C12.6746 21.7326 12.647 21.6091 12.6526 21.5131L12.6391 21.5129L12.5207 21.7199L12.5045 21.7523H12.5044L12.5044 21.7522ZM29.0703 33.4479C29.0186 33.5416 28.9224 33.5447 28.7395 33.5246C27.6006 33.3986 24.1446 31.718 20.0552 29.27C15.2969 26.4217 11.3671 23.8263 11.7934 23.148L11.9094 22.9429L11.9323 22.95C11.5489 24.0996 19.6879 28.7533 20.167 29.0501C24.8764 31.9676 28.8466 33.6714 29.198 33.2286L29.0701 33.4485V33.4482L29.0703 33.4479Z" fill="#FFFF00" stroke="black" stroke-width="0.0577528" stroke-linecap="round" stroke-linejoin="round"/>
<path fill-rule="evenodd" clip-rule="evenodd" d="M21.1301 24.0533C24.1776 24.0292 27.9384 23.6369 30.1027 22.7743L29.6364 22.0167C28.3572 22.7247 24.5757 23.1903 21.1043 23.2599C16.9985 23.2221 14.1004 22.8398 12.6483 21.8655L12.2081 22.6723C14.8775 23.8018 17.6128 24.0417 21.1301 24.0534" fill="#FFFF00"/>
<path d="M21.1301 24.0533C24.1776 24.0292 27.9384 23.6369 30.1027 22.7743L29.6364 22.0167C28.3572 22.7247 24.5757 23.1903 21.1043 23.2599C16.9985 23.2221 14.1004 22.8398 12.6483 21.8655L12.2081 22.6723C14.8775 23.8018 17.6128 24.0417 21.1301 24.0534" stroke="black" stroke-width="0.0577528" stroke-linecap="round" stroke-linejoin="round"/>
<path fill-rule="evenodd" clip-rule="evenodd" d="M30.2284 22.7914C30.1539 22.9105 28.7424 23.3973 26.6631 23.7565C25.2533 23.9714 23.4142 24.1552 21.1192 24.1574C18.9388 24.1594 17.1577 24.0042 15.8092 23.8215C13.6265 23.4792 12.5 23.0031 12.0835 22.8348C12.1233 22.7556 12.1489 22.7 12.1873 22.6261C13.3862 23.1034 14.518 23.3912 15.8439 23.5952C17.1835 23.7767 18.9432 23.9341 21.1128 23.9321C23.3971 23.9297 25.2159 23.732 26.6176 23.5235C28.7498 23.1796 29.9145 22.737 30.0781 22.5315L30.2287 22.7914H30.2285H30.2284ZM29.8191 22.0231C29.588 22.2087 28.4365 22.6171 26.4105 22.9407C25.0584 23.1344 23.3392 23.3079 21.1427 23.31C19.0559 23.312 17.3511 23.1714 16.0543 22.9825C13.9968 22.7138 12.9017 22.2291 12.5069 22.0877C12.5462 22.0198 12.5862 21.9525 12.6272 21.8848C12.9344 22.0395 13.9912 22.4685 16.0769 22.7639C17.3589 22.9457 19.0664 23.0812 21.1428 23.0791C23.3289 23.0768 25.0286 22.9 26.3721 22.7073C28.4086 22.4271 29.5044 21.9063 29.6708 21.7759L29.8192 22.0229V22.0231L29.8191 22.0231Z" fill="#FFFF00" stroke="black" stroke-width="0.0577528" stroke-linecap="round" stroke-linejoin="round"/>
<path fill-rule="evenodd" clip-rule="evenodd" d="M11.1226 27.7251C12.9971 28.7333 17.1604 29.2414 21.1002 29.2763C24.6875 29.282 29.3608 28.7218 31.1084 27.7957L31.0603 26.7866C30.5136 27.6411 25.5055 28.4606 21.0613 28.4271C16.6172 28.3936 12.4903 27.7071 11.1146 26.8186L11.1226 27.7248" fill="#FFFF00"/>
<path d="M11.1226 27.7251C12.9971 28.7333 17.1604 29.2414 21.1002 29.2763C24.6875 29.282 29.3608 28.7218 31.1084 27.7957L31.0603 26.7866C30.5136 27.6411 25.5055 28.4606 21.0613 28.4271C16.6172 28.3936 12.4903 27.7071 11.1146 26.8186L11.1226 27.7248" stroke="black" stroke-width="0.0577528" stroke-linecap="round" stroke-linejoin="round"/>
<path fill-rule="evenodd" clip-rule="evenodd" d="M31.204 27.58L31.2041 27.8206C30.9414 28.1346 29.2945 28.6093 27.2292 28.9436C25.6574 29.1846 23.6081 29.3664 21.0546 29.3664C18.6287 29.3664 16.6941 29.1934 15.1939 28.9631C12.8224 28.6177 11.3055 28.013 11.001 27.8325L11.0023 27.5518C11.917 28.1599 14.395 28.6047 15.2271 28.7409C16.7176 28.9697 18.6407 29.1414 21.0545 29.1414C23.5961 29.1414 25.6338 28.9608 27.1958 28.7214C28.6775 28.5074 30.7883 27.9507 31.2039 27.5801H31.204L31.204 27.58ZM31.205 26.724L31.2051 26.9647C30.9424 27.2785 29.2955 27.7532 27.2302 28.0875C25.6584 28.3285 23.6091 28.5102 21.0556 28.5102C18.6297 28.5102 16.6951 28.3374 15.1949 28.1069C12.8234 27.7618 11.3065 27.157 11.002 26.9765L11.0033 26.6957C11.918 27.3038 14.396 27.7487 15.2281 27.8847C16.7186 28.1136 18.6417 28.2854 21.0555 28.2854C23.5971 28.2854 25.6348 28.1048 27.1968 27.8652C28.6785 27.6511 30.7894 27.0945 31.2049 26.7238L31.205 26.724L31.205 26.724Z" fill="#FFFF00" stroke="black" stroke-width="0.0577528" stroke-linecap="round" stroke-linejoin="round"/>
<path fill-rule="evenodd" clip-rule="evenodd" d="M21.0918 33.2343C16.7808 33.2086 13.0869 32.0592 12.3069 31.8692L12.8757 32.7596C14.2535 33.3392 17.8571 34.2029 21.1331 34.1073C24.4092 34.0117 27.2723 33.758 29.2899 32.7758L29.8731 31.853C28.4981 32.5005 23.8188 33.2276 21.0917 33.2343" fill="#FFFF00"/>
<path d="M21.0918 33.2343C16.7808 33.2086 13.0869 32.0592 12.3069 31.8692L12.8757 32.7596C14.2535 33.3392 17.8571 34.2029 21.1331 34.1073C24.4092 34.0117 27.2723 33.758 29.2899 32.7758L29.8731 31.853C28.4981 32.5005 23.8188 33.2276 21.0917 33.2343" stroke="black" stroke-width="0.0577528" stroke-linecap="round" stroke-linejoin="round"/>
<path fill-rule="evenodd" clip-rule="evenodd" d="M29.5087 32.569C29.423 32.7 29.3356 32.8293 29.247 32.955C28.2954 33.2905 26.7959 33.6428 26.1631 33.7456C24.8706 34.0119 22.8708 34.2086 21.096 34.2095C17.277 34.1536 14.151 33.406 12.6804 32.7683L12.5617 32.5643L12.5811 32.5336L12.7824 32.6117C15.3977 33.5474 18.335 33.9206 21.1175 33.9877C22.8852 33.9939 24.6547 33.7851 26.0857 33.5292C28.28 33.0895 29.1672 32.7581 29.4395 32.6079L29.5087 32.569H29.5086L29.5087 32.569ZM30.0144 31.7349C30.0166 31.7375 30.0188 31.74 30.0209 31.7428C29.9569 31.8509 29.8908 31.961 29.8232 32.0716C29.3156 32.253 27.9382 32.656 25.9267 32.9373C24.6014 33.1178 23.7777 33.2927 21.1413 33.3439C16.2011 33.2182 13.0025 32.2522 12.2426 32.014L12.13 31.7979C14.9931 32.5453 17.9176 33.0671 21.1415 33.1204C23.5535 33.069 24.5796 32.8914 25.8939 32.7122C28.2394 32.3475 29.4212 31.9614 29.7759 31.8499C29.7714 31.8435 29.7662 31.8367 29.7603 31.8298L30.0146 31.7348L30.0144 31.735L30.0144 31.7349Z" fill="#FFFF00" stroke="black" stroke-width="0.0554346" stroke-linecap="round" stroke-linejoin="round"/>
<path fill-rule="evenodd" clip-rule="evenodd" d="M30.0661 26.9289C30.0801 29.7648 28.6288 32.3097 27.4599 33.4324C25.8061 35.0207 23.6134 36.0424 21.0527 36.0895C18.1933 36.142 15.4972 34.2779 14.774 33.459C13.3601 31.8579 12.209 29.8248 12.1721 27.0847C12.3472 23.9895 13.5623 21.8335 15.3236 20.355C17.0849 18.8765 19.4301 18.1565 21.3832 18.208C23.6367 18.2675 26.269 19.3729 28.0879 21.5675C29.2795 23.0054 29.7956 24.5658 30.0661 26.9289ZM21.077 17.2185C26.5686 17.2185 31.0851 21.6874 31.0851 27.1668C31.0851 32.6462 26.5686 37.1152 21.077 37.1152C15.5855 37.1152 11.1064 32.6463 11.1064 27.1668C11.1064 21.6874 15.5855 17.2185 21.077 17.2185" fill="#FFFF00"/>
<path d="M21.077 17.2185C26.5686 17.2185 31.0851 21.6874 31.0851 27.1668C31.0851 32.6462 26.5686 37.1152 21.077 37.1152C15.5855 37.1152 11.1064 32.6463 11.1064 27.1668C11.1064 21.6874 15.5855 17.2185 21.077 17.2185M30.0661 26.9289C30.0801 29.7648 28.6288 32.3097 27.4599 33.4324C25.8061 35.0207 23.6134 36.0424 21.0527 36.0895C18.1933 36.142 15.4972 34.2779 14.774 33.459C13.3601 31.8579 12.209 29.8248 12.1721 27.0847C12.3472 23.9895 13.5623 21.8335 15.3236 20.355C17.0849 18.8765 19.4301 18.1565 21.3832 18.208C23.6367 18.2675 26.269 19.3729 28.0879 21.5675C29.2795 23.0054 29.7956 24.5658 30.0661 26.9289Z" stroke="black" stroke-width="0.0577528" stroke-linecap="round" stroke-linejoin="round"/>
<path fill-rule="evenodd" clip-rule="evenodd" d="M21.1039 17.1844C26.6004 17.1844 31.0832 21.6678 31.0832 27.1648C31.0832 32.6617 26.6003 37.1451 21.1039 37.1451C15.6074 37.1451 11.1245 32.6618 11.1245 27.1648C11.1245 21.6678 15.6075 17.1844 21.1039 17.1844V17.1844ZM11.3441 27.1649C11.3441 32.533 15.7523 36.9256 21.1039 36.9256C26.4555 36.9256 30.8637 32.533 30.8637 27.1649C30.8637 21.7966 26.4554 17.4039 21.1039 17.4039C15.7523 17.4039 11.3441 21.7968 11.3441 27.1649Z" fill="#FFFF00" stroke="black" stroke-width="0.0577528" stroke-linecap="round" stroke-linejoin="round"/>
<path fill-rule="evenodd" clip-rule="evenodd" d="M21.1119 18.0139C26.1243 18.0139 30.2529 22.1283 30.2529 27.156C30.2529 32.1838 26.1242 36.298 21.1119 36.298C16.0996 36.298 11.9709 32.1838 11.9709 27.156C11.9709 22.1283 16.0997 18.0139 21.1119 18.0139V18.0139ZM12.1905 27.156C12.1905 32.0629 16.22 36.0783 21.1119 36.0783C26.0039 36.0783 30.0334 32.0629 30.0334 27.156C30.0334 22.2489 26.004 18.2335 21.1119 18.2335C16.22 18.2335 12.1905 22.2489 12.1905 27.156Z" fill="#FFFF00" stroke="black" stroke-width="0.0577528" stroke-linecap="round" stroke-linejoin="round"/>
<path fill-rule="evenodd" clip-rule="evenodd" d="M21.5141 17.1441H20.6588L20.6598 37.1974H21.518L21.5141 17.1441Z" fill="#FFFF00" stroke="black" stroke-width="0.0577528" stroke-linecap="round" stroke-linejoin="round"/>
<path fill-rule="evenodd" clip-rule="evenodd" d="M21.4284 17.0298H21.6461L21.6479 37.3139H21.4301L21.4285 17.0298H21.4284ZM20.5796 17.03H20.799L20.7993 37.314H20.5797V17.03H20.5796Z" fill="#FFFF00" stroke="black" stroke-width="0.0577528" stroke-linecap="round" stroke-linejoin="round"/>
<path fill-rule="evenodd" clip-rule="evenodd" d="M31.0901 27.5512V26.8099L30.4864 26.2475L27.0595 25.3403L22.1208 24.8364L16.1742 25.1388L11.941 26.1467L11.0863 26.7796V27.5212L13.2513 26.5498L18.3916 25.7435H23.3303L26.9588 26.1467L29.4785 26.7514L31.0901 27.5512Z" fill="#FFFF00" stroke="black" stroke-width="0.0577528" stroke-linecap="round" stroke-linejoin="round"/>
<path fill-rule="evenodd" clip-rule="evenodd" d="M21.1079 25.6195C23.4646 25.6152 25.7513 25.8428 27.565 26.196C29.4366 26.5701 30.7537 27.0382 31.204 27.5638L31.2035 27.8241C30.6604 27.1699 28.8881 26.6904 27.5228 26.4163C25.7229 26.0661 23.4516 25.8401 21.1079 25.8444C18.6347 25.849 16.3317 26.0833 14.5581 26.4293C13.1349 26.7117 11.237 27.2727 11 27.8261V27.555C11.1301 27.172 12.5434 26.5996 14.526 26.2027C16.313 25.8543 18.6201 25.6241 21.1079 25.6195V25.6195ZM21.1089 24.7636C23.4656 24.7593 25.7523 24.9871 27.566 25.3401C29.4376 25.7144 30.7547 26.1822 31.205 26.7079L31.2045 26.9682C30.6614 26.3142 28.8891 25.8346 27.5239 25.5605C25.7239 25.2102 23.4526 24.9842 21.1089 24.9887C18.6357 24.9931 16.3439 25.2275 14.5701 25.5734C13.1967 25.8338 11.2212 26.417 11.0009 26.9704V26.6992C11.131 26.3203 12.5729 25.7274 14.5271 25.3469C16.314 24.9984 18.6212 24.7683 21.1089 24.7636V24.7636Z" fill="#FFFF00" stroke="black" stroke-width="0.0577528" stroke-linecap="round" stroke-linejoin="round"/>
<path fill-rule="evenodd" clip-rule="evenodd" d="M21.0604 20.3976C24.7745 20.379 28.014 20.9169 29.4961 21.6761L30.0367 22.6113C28.7485 21.9171 25.2536 21.1952 21.0659 21.3032C17.6537 21.3242 14.0078 21.6788 12.1786 22.6548L12.824 21.5754C14.3253 20.7969 17.8657 20.4019 21.0606 20.3978" fill="#FFFF00"/>
<path d="M21.0604 20.3976C24.7745 20.379 28.014 20.9169 29.4961 21.6761L30.0367 22.6113C28.7485 21.9171 25.2536 21.1952 21.0659 21.3032C17.6537 21.3242 14.0078 21.6788 12.1786 22.6548L12.824 21.5754C14.3253 20.7969 17.8657 20.4019 21.0606 20.3978" stroke="black" stroke-width="0.0577528" stroke-linecap="round" stroke-linejoin="round"/>
<path fill-rule="evenodd" clip-rule="evenodd" d="M21.1099 21.1697C23.2282 21.1641 25.2751 21.2836 26.9029 21.5773C28.4189 21.8594 29.8647 22.2829 30.0714 22.5106L30.2317 22.7938C29.7289 22.4656 28.4778 22.1 26.8714 21.7954C25.2582 21.4922 23.2127 21.3918 21.1062 21.3973C18.7153 21.3891 16.8577 21.5153 15.2635 21.7933C13.5775 22.1088 12.4077 22.5594 12.1191 22.7736L12.2762 22.4742C12.8369 22.1881 13.7266 21.8433 15.2216 21.5742C16.8702 21.273 18.7475 21.1827 21.1101 21.1697H21.11L21.1099 21.1697ZM21.109 20.3146C23.1362 20.3092 25.1378 20.4222 26.698 20.7027C27.9286 20.9422 29.1455 21.3162 29.5911 21.649L29.8255 22.0215C29.427 21.5785 27.927 21.1588 26.6029 20.9237C25.0546 20.6566 23.1362 20.5509 21.109 20.5341C18.9815 20.54 17.0154 20.6703 15.4897 20.9481C14.0342 21.2251 13.0949 21.553 12.6975 21.8091L12.9037 21.498C13.4521 21.2093 14.3381 20.9441 15.4539 20.7273C16.9909 20.4475 18.9691 20.3205 21.1091 20.3146H21.109Z" fill="#FFFF00" stroke="black" stroke-width="0.0577528" stroke-linecap="round" stroke-linejoin="round"/>
<path fill-rule="evenodd" clip-rule="evenodd" d="M26.0667 31.3132C24.2305 30.9705 22.391 30.9207 21.1061 30.9358C14.9169 31.0084 12.9175 32.2067 12.6735 32.5695L12.2109 31.8155C13.7867 30.6733 17.157 30.0328 21.1396 30.0983C23.2077 30.1322 24.9923 30.2695 26.4935 30.5603L26.0666 31.3134" fill="#FFFF00"/>
<path d="M26.0667 31.3132C24.2305 30.9705 22.391 30.9207 21.1061 30.9358C14.9169 31.0084 12.9175 32.2067 12.6735 32.5695L12.2109 31.8155C13.7867 30.6733 17.157 30.0328 21.1396 30.0983C23.2077 30.1322 24.9923 30.2695 26.4935 30.5603L26.0666 31.3134" stroke="black" stroke-width="0.0577528" stroke-linecap="round" stroke-linejoin="round"/>
<path fill-rule="evenodd" clip-rule="evenodd" d="M21.0705 30.8294C22.7922 30.8551 24.4822 30.9262 26.1134 31.2304L25.9952 31.4389C24.4803 31.1593 22.8652 31.0523 21.0764 31.061C18.7922 31.0431 16.4818 31.2564 14.4705 31.8337C13.8358 32.0103 12.7852 32.4184 12.678 32.7555L12.5605 32.5617C12.5944 32.3624 13.2294 31.9488 14.4165 31.6153C16.7203 30.9556 18.8753 30.8444 21.0705 30.8292V30.8294L21.0705 30.8294ZM21.1486 29.963C22.9324 29.9963 24.7746 30.0788 26.5651 30.4335L26.4421 30.6506C24.8252 30.3296 23.2804 30.2225 21.1592 30.1899C18.8677 30.1941 16.437 30.3575 14.227 31C13.5135 31.2078 12.2821 31.6572 12.241 32.0129L12.1235 31.8048C12.1503 31.4816 13.2163 31.0601 14.1754 30.7811C16.4025 30.1337 18.8395 29.9672 21.1487 29.963L21.1486 29.963Z" fill="#FFFF00" stroke="black" stroke-width="0.0554346" stroke-linecap="round" stroke-linejoin="round"/>
<path fill-rule="evenodd" clip-rule="evenodd" d="M29.9401 31.93L29.1963 33.084L27.0595 31.1862L21.516 27.457L15.267 24.0301L12.0226 22.9204L12.714 21.6383L12.9488 21.5103L14.9647 22.0143L21.6168 25.4412L25.4468 27.8601L28.6721 30.1783L29.9824 31.6902L29.9401 31.93Z" fill="#FFFF00" stroke="black" stroke-width="0.0577528" stroke-linecap="round" stroke-linejoin="round"/>
<path fill-rule="evenodd" clip-rule="evenodd" d="M11.9057 22.9506C12.4748 22.5647 16.6569 24.4277 21.0328 27.0663C25.3971 29.7125 29.5674 32.7026 29.1909 33.2622L29.0671 33.4569L29.0103 33.5017C29.0225 33.493 29.0852 33.4163 29.0042 33.2089C28.8182 32.597 25.86 30.2364 20.9516 27.2728C16.1666 24.4195 12.1788 22.6999 11.78 23.1914L11.9057 22.9506H11.9056L11.9057 22.9506ZM30.0923 31.9136C30.4521 31.2028 26.5731 28.2807 21.7638 25.4356C16.8439 22.6472 13.298 21.0058 12.6503 21.4952L12.5064 21.7572C12.5052 21.7716 12.5117 21.7393 12.5421 21.7159C12.6599 21.6131 12.8551 21.62 12.9431 21.6184C14.0584 21.6351 17.2436 23.101 21.7125 25.6629C23.6707 26.8034 29.9845 30.8527 29.9604 31.9915C29.9621 32.0893 29.9685 32.1095 29.9317 32.158L30.0923 31.9137V31.9135L30.0923 31.9136Z" fill="#FFFF00" stroke="black" stroke-width="0.0577528" stroke-linecap="round" stroke-linejoin="round"/>
<path d="M15.1259 28.2643C15.1259 29.9043 15.7975 31.3875 16.8854 32.4715C17.9755 33.5578 19.4568 34.2433 21.0994 34.2433C22.7504 34.2433 24.2488 33.5728 25.3342 32.4906C26.4196 31.4086 27.0922 29.9152 27.0925 28.2695H27.0923V20.2881L15.1245 20.2738L15.1258 28.2643H15.126L15.1259 28.2643Z" fill="white" stroke="black" stroke-width="0.0675668"/>
<path d="M15.3497 28.2754V28.28C15.3497 29.8479 15.9989 31.2758 17.0404 32.3125C18.084 33.3511 19.5213 33.9969 21.0936 33.9969C22.6741 33.9969 24.1084 33.3558 25.1476 32.3211C26.1865 31.2865 26.8305 29.8585 26.8307 28.2851H26.8305V20.5418L15.3565 20.5399L15.3495 28.2754L15.3497 28.2754ZM24.5236 22.8582L24.524 27.7859L24.5198 28.3072H24.5199C24.5199 28.4443 24.5117 28.6007 24.4957 28.7339C24.4024 29.5129 24.0441 30.192 23.5135 30.7202C22.8922 31.3387 22.0348 31.7222 21.0898 31.7222C20.1497 31.7222 19.3119 31.3253 18.688 30.7042C18.048 30.0672 17.6771 29.1938 17.6771 28.2906L17.6758 22.8456L24.5235 22.858L24.5237 22.8582L24.5236 22.8582Z" fill="#FF0000" stroke="black" stroke-width="0.0511349"/>
<path d="M16.0924 22.5617C16.106 22.0052 16.5008 21.8735 16.5037 21.8715C16.5065 21.8696 16.9302 22.0134 16.9288 22.5668L16.0924 22.5617" fill="#FFFF00"/>
<path d="M15.7518 21.8823L15.6831 22.5218L16.1004 22.5227C16.1044 21.9936 16.501 21.9056 16.5106 21.9076C16.5195 21.9071 16.9126 22.0245 16.9231 22.5227H17.3415L17.2659 21.8783L15.7519 21.8821V21.8823L15.7518 21.8823Z" fill="#FFFF00" stroke="black" stroke-width="0.0503951"/>
<path d="M15.655 22.5244H17.363C17.399 22.5244 17.4284 22.5599 17.4284 22.6034C17.4284 22.6468 17.399 22.6821 17.363 22.6821H15.655C15.619 22.6821 15.5896 22.6468 15.5896 22.6034C15.5896 22.5599 15.619 22.5244 15.655 22.5244Z" fill="#FFFF00" stroke="black" stroke-width="0.0503951"/>
<path d="M16.2759 22.5213C16.2777 22.1874 16.5039 22.0929 16.505 22.0931C16.5051 22.0931 16.7411 22.1905 16.743 22.5213H16.2759" fill="#FFFF00"/>
<path d="M16.2759 22.5213C16.2777 22.1874 16.5039 22.0929 16.505 22.0931C16.5051 22.0931 16.7411 22.1905 16.743 22.5213H16.2759" stroke="black" stroke-width="0.0503951"/>
<path d="M15.6913 21.6162H17.3286C17.3631 21.6162 17.3914 21.6483 17.3914 21.6873C17.3914 21.7263 17.3631 21.7583 17.3286 21.7583H15.6913C15.6568 21.7583 15.6285 21.7265 15.6285 21.6873C15.6285 21.6483 15.6568 21.6162 15.6913 21.6162Z" fill="#FFFF00" stroke="black" stroke-width="0.0503951"/>
<path d="M15.7255 21.7593H17.2916C17.3246 21.7593 17.3516 21.7912 17.3516 21.8302C17.3516 21.8694 17.3246 21.9013 17.2916 21.9013H15.7255C15.6925 21.9013 15.6655 21.8694 15.6655 21.8302C15.6655 21.7912 15.6925 21.7593 15.7255 21.7593Z" fill="#FFFF00" stroke="black" stroke-width="0.0503951"/>
<path d="M16.2315 20.6919L16.3551 20.6921V20.78H16.4453V20.6902L16.572 20.6906V20.78H16.6625V20.6902H16.7892L16.789 20.893C16.789 20.9248 16.7634 20.9454 16.7338 20.9454H16.2891C16.2593 20.9454 16.2317 20.9215 16.2316 20.8924L16.2313 20.692H16.2314L16.2315 20.6919Z" fill="#FFFF00" stroke="black" stroke-width="0.0503951"/>
<path d="M16.6972 20.963L16.7251 21.6133L16.2914 21.6117L16.3201 20.9613L16.6971 20.963" fill="#FFFF00"/>
<path d="M16.6972 20.963L16.7251 21.6133L16.2914 21.6117L16.3201 20.9613L16.6971 20.963" stroke="black" stroke-width="0.0503951"/>
<path d="M16.1681 21.2644L16.1813 21.6149L15.7655 21.6151L15.7772 21.2644H16.1682H16.1681L16.1681 21.2644Z" fill="#FFFF00" stroke="black" stroke-width="0.0503951"/>
<path d="M17.2467 21.2644L17.2599 21.6149L16.8441 21.6151L16.8558 21.2644H17.2468H17.2467L17.2467 21.2644Z" fill="#FFFF00" stroke="black" stroke-width="0.0503951"/>
<path d="M15.7003 21.0105L15.8212 21.0108V21.0987H15.9097V21.0087L16.0336 21.0091V21.0987H16.1222V21.0088L16.2462 21.009L16.246 21.2117C16.246 21.2434 16.2209 21.264 16.192 21.264H15.7569C15.7277 21.264 15.7006 21.2403 15.7005 21.211L15.7002 21.0106H15.7003L15.7003 21.0105Z" fill="#FFFF00" stroke="black" stroke-width="0.0503951"/>
<path d="M16.779 21.0105L16.8998 21.0108V21.0987H16.9883V21.0087L17.1122 21.0091V21.0987H17.2008V21.0088L17.3248 21.009L17.3246 21.2117C17.3246 21.2434 17.2995 21.264 17.2706 21.264H16.8355C16.8063 21.264 16.7792 21.2403 16.7791 21.211L16.7788 21.0106H16.7789L16.779 21.0105Z" fill="#FFFF00" stroke="black" stroke-width="0.0503951"/>
<path d="M16.4664 21.1687C16.4637 21.1055 16.5547 21.1048 16.5537 21.1687V21.3235H16.4664V21.1687" fill="black"/>
<path d="M15.9292 21.3934C15.9289 21.3323 16.0136 21.3311 16.0125 21.3934V21.513H15.9292V21.3934" fill="black"/>
<path d="M17.0078 21.3934C17.0075 21.3323 17.0922 21.3311 17.0911 21.3934V21.513H17.0078V21.3934" fill="black"/>
<path d="M16.0924 26.8087C16.106 26.2522 16.5008 26.1205 16.5037 26.1185C16.5065 26.1167 16.9302 26.2604 16.9288 26.8139L16.0924 26.8087" fill="#FFFF00"/>
<path d="M15.7518 26.1293L15.6831 26.7688L16.1004 26.7697C16.1044 26.2407 16.501 26.1527 16.5106 26.1546C16.5195 26.1541 16.9126 26.2716 16.9231 26.7697H17.3415L17.2659 26.1254L15.7519 26.1292V26.1294L15.7518 26.1293Z" fill="#FFFF00" stroke="black" stroke-width="0.0503951"/>
<path d="M15.655 26.7714H17.363C17.399 26.7714 17.4284 26.8069 17.4284 26.8504C17.4284 26.8938 17.399 26.9292 17.363 26.9292H15.655C15.619 26.9292 15.5896 26.8938 15.5896 26.8504C15.5896 26.8069 15.619 26.7714 15.655 26.7714Z" fill="#FFFF00" stroke="black" stroke-width="0.0503951"/>
<path d="M16.2759 26.7683C16.2777 26.4345 16.5039 26.34 16.505 26.3401C16.5051 26.3401 16.7411 26.4376 16.743 26.7683H16.2759" fill="#FFFF00"/>
<path d="M16.2759 26.7683C16.2777 26.4345 16.5039 26.34 16.505 26.3401C16.5051 26.3401 16.7411 26.4376 16.743 26.7683H16.2759" stroke="black" stroke-width="0.0503951"/>
<path d="M15.6913 25.8633H17.3286C17.3631 25.8633 17.3914 25.8954 17.3914 25.9343C17.3914 25.9733 17.3631 26.0053 17.3286 26.0053H15.6913C15.6568 26.0053 15.6285 25.9735 15.6285 25.9343C15.6285 25.8954 15.6568 25.8633 15.6913 25.8633Z" fill="#FFFF00" stroke="black" stroke-width="0.0503951"/>
<path d="M15.7255 26.0064H17.2916C17.3246 26.0064 17.3516 26.0384 17.3516 26.0774C17.3516 26.1165 17.3246 26.1484 17.2916 26.1484H15.7255C15.6925 26.1484 15.6655 26.1165 15.6655 26.0774C15.6655 26.0384 15.6925 26.0064 15.7255 26.0064Z" fill="#FFFF00" stroke="black" stroke-width="0.0503951"/>
<path d="M16.2315 24.939L16.3551 24.9392V25.027H16.4453V24.9372L16.572 24.9376V25.0271H16.6625V24.9373H16.7892L16.789 25.14C16.789 25.1719 16.7634 25.1925 16.7338 25.1925H16.2891C16.2593 25.1925 16.2317 25.1686 16.2316 25.1394L16.2313 24.9391H16.2314L16.2315 24.939Z" fill="#FFFF00" stroke="black" stroke-width="0.0503951"/>
<path d="M16.6972 25.2102L16.7251 25.8604L16.2914 25.8588L16.3201 25.2085L16.6971 25.2102" fill="#FFFF00"/>
<path d="M16.6972 25.2102L16.7251 25.8604L16.2914 25.8588L16.3201 25.2085L16.6971 25.2102" stroke="black" stroke-width="0.0503951"/>
<path d="M16.1681 25.5115L16.1813 25.862L15.7655 25.8622L15.7772 25.5116H16.1682H16.1681L16.1681 25.5115Z" fill="#FFFF00" stroke="black" stroke-width="0.0503951"/>
<path d="M17.2467 25.5115L17.2599 25.862L16.8441 25.8622L16.8558 25.5116H17.2468H17.2467L17.2467 25.5115Z" fill="#FFFF00" stroke="black" stroke-width="0.0503951"/>
<path d="M15.7003 25.2575L15.8212 25.2578V25.3457H15.9097V25.2558L16.0336 25.2562V25.3458H16.1222V25.2558L16.2462 25.256L16.246 25.4588C16.246 25.4904 16.2209 25.511 16.192 25.511H15.7569C15.7277 25.511 15.7006 25.4873 15.7005 25.4581L15.7002 25.2576H15.7003L15.7003 25.2575Z" fill="#FFFF00" stroke="black" stroke-width="0.0503951"/>
<path d="M16.779 25.2575L16.8998 25.2578V25.3457H16.9883V25.2558L17.1122 25.2562V25.3458H17.2008V25.2558L17.3248 25.256L17.3246 25.4588C17.3246 25.4904 17.2995 25.511 17.2706 25.511H16.8355C16.8063 25.511 16.7792 25.4873 16.7791 25.4581L16.7788 25.2576H16.7789L16.779 25.2575Z" fill="#FFFF00" stroke="black" stroke-width="0.0503951"/>
<path d="M16.4664 25.4157C16.4637 25.3525 16.5547 25.3518 16.5537 25.4157V25.5706H16.4664V25.4157" fill="black"/>
<path d="M15.9292 25.6405C15.9289 25.5795 16.0136 25.5782 16.0125 25.6405V25.7602H15.9292V25.6405" fill="black"/>
<path d="M17.0078 25.6405C17.0075 25.5795 17.0922 25.5782 17.0911 25.6405V25.7602H17.0078V25.6405" fill="black"/>
<path d="M18.3252 32.5918C17.9413 32.1887 18.1274 31.8164 18.128 31.813C18.1287 31.8097 18.5299 31.6117 18.9202 32.0041L18.3252 32.5918" fill="#FFFF00"/>
<path d="M17.6039 32.3523L18.0075 32.8531L18.3032 32.5586C17.9319 32.1817 18.1501 31.839 18.1583 31.8336C18.1643 31.8269 18.5253 31.6321 18.8849 31.9769L19.1808 31.6811L18.6717 31.2788L17.6038 32.3522L17.6039 32.3523L17.6039 32.3523Z" fill="#FFFF00" stroke="black" stroke-width="0.0503951"/>
<path d="M17.9895 32.8748L19.1972 31.667C19.2227 31.6416 19.2686 31.6459 19.2994 31.6766C19.33 31.7073 19.3343 31.7531 19.3088 31.7786L18.1011 32.9863C18.0756 33.0118 18.0298 33.0076 17.9991 32.9769C17.9684 32.9462 17.964 32.9002 17.9895 32.8748Z" fill="#FFFF00" stroke="black" stroke-width="0.0503951"/>
<path d="M18.4263 32.4336C18.1915 32.1962 18.2846 31.9695 18.2856 31.9688C18.2856 31.9687 18.5214 31.8707 18.7566 32.1033L18.4263 32.4336" fill="#FFFF00"/>
<path d="M18.4263 32.4336C18.1915 32.1962 18.2846 31.9695 18.2856 31.9688C18.2856 31.9687 18.5214 31.8707 18.7566 32.1033L18.4263 32.4336" stroke="black" stroke-width="0.0503951"/>
<path d="M17.373 32.207L18.5308 31.0492C18.5551 31.0248 18.5978 31.0275 18.6254 31.055C18.653 31.0826 18.6556 31.1253 18.6312 31.1496L17.4734 32.3074C17.449 32.3318 17.4066 32.3293 17.3788 32.3016C17.3513 32.274 17.3486 32.2314 17.373 32.207Z" fill="#FFFF00" stroke="black" stroke-width="0.0503951"/>
<path d="M17.4984 32.2839L18.6057 31.1765C18.6291 31.1532 18.6707 31.1567 18.6983 31.1843C18.726 31.2119 18.7294 31.2536 18.7061 31.2769L17.5987 32.3843C17.5754 32.4076 17.5337 32.4042 17.5061 32.3765C17.4785 32.3489 17.475 32.3072 17.4984 32.2839Z" fill="#FFFF00" stroke="black" stroke-width="0.0503951"/>
<path d="M17.1014 31.1714L17.189 31.0841L17.2511 31.1462L17.3149 31.0824L17.2514 31.0189L17.3413 30.9296L17.4045 30.9928L17.4685 30.9289L17.405 30.8654L17.4946 30.7758L17.6379 30.9193C17.6604 30.9418 17.6569 30.9745 17.6359 30.9954L17.3215 31.3098C17.3004 31.331 17.264 31.3335 17.2433 31.313L17.1014 31.1715L17.1015 31.1715L17.1014 31.1714Z" fill="#FFFF00" stroke="black" stroke-width="0.0503951"/>
<path d="M17.6225 31.0339L18.102 31.4739L17.7942 31.7795L17.3547 31.2993L17.6225 31.0339" fill="#FFFF00"/>
<path d="M17.6225 31.0339L18.102 31.4739L17.7942 31.7795L17.3547 31.2993L17.6225 31.0339" stroke="black" stroke-width="0.0503951"/>
<path d="M17.4613 31.621L17.7185 31.8595L17.4246 32.1537L17.1849 31.8974L17.4614 31.621L17.4613 31.6211L17.4613 31.621Z" fill="#FFFF00" stroke="black" stroke-width="0.0503951"/>
<path d="M18.224 30.8583L18.4812 31.0968L18.1873 31.391L17.9476 31.1347L18.2241 30.8583L18.224 30.8584L18.224 30.8583Z" fill="#FFFF00" stroke="black" stroke-width="0.0503951"/>
<path d="M16.951 31.7721L17.0367 31.6869L17.0989 31.749L17.1614 31.6865L17.0978 31.6229L17.1857 31.5355L17.2491 31.5989L17.3118 31.5362L17.2481 31.4726L17.336 31.3851L17.4792 31.5286C17.5016 31.551 17.4984 31.5833 17.4779 31.6038L17.1703 31.9114C17.1497 31.9321 17.1137 31.9344 17.093 31.9138L16.951 31.7723L16.9511 31.7722L16.951 31.7721Z" fill="#FFFF00" stroke="black" stroke-width="0.0503951"/>
<path d="M17.7137 31.0095L17.7994 30.9243L17.8616 30.9864L17.9241 30.9239L17.8605 30.8603L17.9484 30.7729L18.0118 30.8363L18.0745 30.7736L18.0108 30.71L18.0987 30.6225L18.2419 30.766C18.2643 30.7884 18.2611 30.8207 18.2406 30.8412L17.933 31.1488C17.9124 31.1695 17.8764 31.1718 17.8557 31.1512L17.7137 31.0097L17.7138 31.0096L17.7137 31.0095Z" fill="#FFFF00" stroke="black" stroke-width="0.0503951"/>
<path d="M17.6045 31.3425C17.558 31.2997 17.6218 31.2348 17.6663 31.2808L17.7758 31.3902L17.714 31.452L17.6046 31.3425" fill="black"/>
<path d="M17.3837 31.8813C17.3403 31.8383 17.3993 31.7775 17.4426 31.8224L17.5272 31.907L17.4683 31.9658L17.3837 31.8812" fill="black"/>
<path d="M18.1464 31.1186C18.103 31.0756 18.162 31.0149 18.2053 31.0597L18.2899 31.1443L18.231 31.2031L18.1464 31.1185" fill="black"/>
<path d="M20.7085 22.5617C20.7221 22.0052 21.1169 21.8735 21.1198 21.8715C21.1226 21.8696 21.5463 22.0134 21.5448 22.5668L20.7085 22.5617" fill="#FFFF00"/>
<path d="M20.3679 21.8823L20.2992 22.5218L20.7165 22.5227C20.7205 21.9936 21.1171 21.9056 21.1267 21.9076C21.1356 21.9071 21.5287 22.0245 21.5392 22.5227H21.9576L21.882 21.8783L20.3679 21.8821V21.8823L20.3679 21.8823Z" fill="#FFFF00" stroke="black" stroke-width="0.0503951"/>
<path d="M20.2711 22.5244H21.9791C22.0151 22.5244 22.0445 22.5599 22.0445 22.6034C22.0445 22.6468 22.0151 22.6821 21.9791 22.6821H20.2711C20.2351 22.6821 20.2057 22.6468 20.2057 22.6034C20.2057 22.5599 20.2351 22.5244 20.2711 22.5244Z" fill="#FFFF00" stroke="black" stroke-width="0.0503951"/>
<path d="M20.892 22.5213C20.8938 22.1874 21.12 22.0929 21.1211 22.0931C21.1212 22.0931 21.3572 22.1905 21.3591 22.5213H20.892" fill="#FFFF00"/>
<path d="M20.892 22.5213C20.8938 22.1874 21.12 22.0929 21.1211 22.0931C21.1212 22.0931 21.3572 22.1905 21.3591 22.5213H20.892" stroke="black" stroke-width="0.0503951"/>
<path d="M20.3074 21.6162H21.9447C21.9792 21.6162 22.0075 21.6483 22.0075 21.6873C22.0075 21.7263 21.9792 21.7583 21.9447 21.7583H20.3074C20.2729 21.7583 20.2446 21.7265 20.2446 21.6873C20.2446 21.6483 20.2729 21.6162 20.3074 21.6162Z" fill="#FFFF00" stroke="black" stroke-width="0.0503951"/>
<path d="M20.3416 21.7593H21.9077C21.9407 21.7593 21.9677 21.7912 21.9677 21.8302C21.9677 21.8694 21.9407 21.9013 21.9077 21.9013H20.3416C20.3086 21.9013 20.2816 21.8694 20.2816 21.8302C20.2816 21.7912 20.3086 21.7593 20.3416 21.7593Z" fill="#FFFF00" stroke="black" stroke-width="0.0503951"/>
<path d="M20.8476 20.6919L20.9712 20.6921V20.78H21.0614V20.6902L21.1881 20.6906V20.78H21.2786V20.6902H21.4053L21.4051 20.893C21.4051 20.9248 21.3795 20.9454 21.3498 20.9454H20.9052C20.8754 20.9454 20.8478 20.9215 20.8477 20.8924L20.8474 20.692H20.8475L20.8476 20.6919Z" fill="#FFFF00" stroke="black" stroke-width="0.0503951"/>
<path d="M21.3132 20.963L21.3412 21.6133L20.9075 21.6117L20.9362 20.9613L21.3132 20.963" fill="#FFFF00"/>
<path d="M21.3132 20.963L21.3412 21.6133L20.9075 21.6117L20.9362 20.9613L21.3132 20.963" stroke="black" stroke-width="0.0503951"/>
<path d="M20.7842 21.2644L20.7974 21.6149L20.3816 21.6151L20.3933 21.2644H20.7842H20.7842L20.7842 21.2644Z" fill="#FFFF00" stroke="black" stroke-width="0.0503951"/>
<path d="M21.8628 21.2644L21.876 21.6149L21.4602 21.6151L21.4719 21.2644H21.8629H21.8628L21.8628 21.2644Z" fill="#FFFF00" stroke="black" stroke-width="0.0503951"/>
<path d="M20.3164 21.0105L20.4373 21.0108V21.0987H20.5258V21.0087L20.6497 21.0091V21.0987H20.7383V21.0088L20.8623 21.009L20.8621 21.2117C20.8621 21.2434 20.837 21.264 20.808 21.264H20.3729C20.3438 21.264 20.3167 21.2403 20.3166 21.211L20.3163 21.0106H20.3164L20.3164 21.0105Z" fill="#FFFF00" stroke="black" stroke-width="0.0503951"/>
<path d="M21.395 21.0105L21.5159 21.0108V21.0987H21.6044V21.0087L21.7283 21.0091V21.0987H21.8169V21.0088L21.9409 21.009L21.9407 21.2117C21.9407 21.2434 21.9156 21.264 21.8867 21.264H21.4516C21.4224 21.264 21.3953 21.2403 21.3952 21.211L21.3949 21.0106H21.395L21.395 21.0105Z" fill="#FFFF00" stroke="black" stroke-width="0.0503951"/>
<path d="M21.0825 21.1687C21.0798 21.1055 21.1708 21.1048 21.1697 21.1687V21.3235H21.0825V21.1687" fill="black"/>
<path d="M20.5453 21.3934C20.545 21.3323 20.6296 21.3311 20.6286 21.3934V21.513H20.5453V21.3934" fill="black"/>
<path d="M21.6239 21.3934C21.6236 21.3323 21.7083 21.3311 21.7072 21.3934V21.513H21.6239V21.3934" fill="black"/>
<path d="M25.1433 22.5617C25.1569 22.0052 25.5518 21.8735 25.5546 21.8715C25.5574 21.8696 25.9811 22.0134 25.9797 22.5668L25.1433 22.5617" fill="#FFFF00"/>
<path d="M24.8026 21.8823L24.7339 22.5218L25.1512 22.5227C25.1552 21.9936 25.5517 21.9056 25.5613 21.9076C25.5703 21.9071 25.9634 22.0245 25.9739 22.5227H26.3923L26.3167 21.8783L24.8026 21.8821V21.8823L24.8026 21.8823Z" fill="#FFFF00" stroke="black" stroke-width="0.0503951"/>
<path d="M24.7059 22.5244H26.4139C26.4499 22.5244 26.4793 22.5599 26.4793 22.6034C26.4793 22.6468 26.4499 22.6821 26.4139 22.6821H24.7059C24.6699 22.6821 24.6405 22.6468 24.6405 22.6034C24.6405 22.5599 24.6699 22.5244 24.7059 22.5244Z" fill="#FFFF00" stroke="black" stroke-width="0.0503951"/>
<path d="M25.3268 22.5213C25.3286 22.1874 25.5548 22.0929 25.5559 22.0931C25.556 22.0931 25.792 22.1905 25.7939 22.5213H25.3268" fill="#FFFF00"/>
<path d="M25.3268 22.5213C25.3286 22.1874 25.5548 22.0929 25.5559 22.0931C25.556 22.0931 25.792 22.1905 25.7939 22.5213H25.3268" stroke="black" stroke-width="0.0503951"/>
<path d="M24.7422 21.6162H26.3795C26.414 21.6162 26.4423 21.6483 26.4423 21.6873C26.4423 21.7263 26.414 21.7583 26.3795 21.7583H24.7422C24.7077 21.7583 24.6794 21.7265 24.6794 21.6873C24.6794 21.6483 24.7077 21.6162 24.7422 21.6162Z" fill="#FFFF00" stroke="black" stroke-width="0.0503951"/>
<path d="M24.7764 21.7593H26.3425C26.3755 21.7593 26.4025 21.7912 26.4025 21.8302C26.4025 21.8694 26.3755 21.9013 26.3425 21.9013H24.7764C24.7435 21.9013 24.7164 21.8694 24.7164 21.8302C24.7164 21.7912 24.7435 21.7593 24.7764 21.7593Z" fill="#FFFF00" stroke="black" stroke-width="0.0503951"/>
<path d="M25.2825 20.6919L25.4061 20.6921V20.78H25.4964V20.6902L25.623 20.6906V20.78H25.7135V20.6902H25.8403L25.8401 20.893C25.8401 20.9248 25.8145 20.9454 25.7848 20.9454H25.3402C25.3103 20.9454 25.2827 20.9215 25.2827 20.8924L25.2823 20.692H25.2824L25.2825 20.6919Z" fill="#FFFF00" stroke="black" stroke-width="0.0503951"/>
<path d="M25.7481 20.963L25.776 21.6133L25.3423 21.6117L25.371 20.9613L25.7481 20.963" fill="#FFFF00"/>
<path d="M25.7481 20.963L25.776 21.6133L25.3423 21.6117L25.371 20.9613L25.7481 20.963" stroke="black" stroke-width="0.0503951"/>
<path d="M25.219 21.2644L25.2322 21.6149L24.8164 21.6151L24.8281 21.2644H25.2191H25.219L25.219 21.2644Z" fill="#FFFF00" stroke="black" stroke-width="0.0503951"/>
<path d="M26.2976 21.2644L26.3108 21.6149L25.895 21.6151L25.9068 21.2644H26.2977H26.2976L26.2976 21.2644Z" fill="#FFFF00" stroke="black" stroke-width="0.0503951"/>
<path d="M24.7512 21.0105L24.8721 21.0108V21.0987H24.9606V21.0087L25.0845 21.0091V21.0987H25.1731V21.0088L25.2971 21.009L25.2969 21.2117C25.2969 21.2434 25.2718 21.264 25.2429 21.264H24.8078C24.7786 21.264 24.7515 21.2403 24.7514 21.211L24.7511 21.0106H24.7512L24.7512 21.0105Z" fill="#FFFF00" stroke="black" stroke-width="0.0503951"/>
<path d="M25.8299 21.0105L25.9507 21.0108V21.0987H26.0392V21.0087L26.1631 21.0091V21.0987H26.2517V21.0088L26.3757 21.009L26.3755 21.2117C26.3755 21.2434 26.3504 21.264 26.3215 21.264H25.8864C25.8572 21.264 25.8301 21.2403 25.83 21.211L25.8297 21.0106H25.8298L25.8299 21.0105Z" fill="#FFFF00" stroke="black" stroke-width="0.0503951"/>
<path d="M25.5173 21.1687C25.5146 21.1055 25.6056 21.1048 25.6046 21.1687V21.3235H25.5173V21.1687" fill="black"/>
<path d="M24.9801 21.3934C24.9798 21.3323 25.0645 21.3311 25.0634 21.3934V21.513H24.9801V21.3934" fill="black"/>
<path d="M26.0587 21.3934C26.0584 21.3323 26.1431 21.3311 26.142 21.3934V21.513H26.0588V21.3934" fill="black"/>
<path d="M25.1433 26.8087C25.1569 26.2522 25.5518 26.1205 25.5546 26.1185C25.5574 26.1167 25.9811 26.2604 25.9797 26.8139L25.1433 26.8087" fill="#FFFF00"/>
<path d="M24.8026 26.1293L24.7339 26.7688L25.1512 26.7697C25.1552 26.2407 25.5517 26.1527 25.5613 26.1546C25.5703 26.1541 25.9634 26.2716 25.9739 26.7697H26.3923L26.3167 26.1254L24.8026 26.1292V26.1294L24.8026 26.1293Z" fill="#FFFF00" stroke="black" stroke-width="0.0503951"/>
<path d="M24.7059 26.7714H26.4139C26.4499 26.7714 26.4793 26.8069 26.4793 26.8504C26.4793 26.8938 26.4499 26.9292 26.4139 26.9292H24.7059C24.6699 26.9292 24.6405 26.8938 24.6405 26.8504C24.6405 26.8069 24.6699 26.7714 24.7059 26.7714Z" fill="#FFFF00" stroke="black" stroke-width="0.0503951"/>
<path d="M25.3268 26.7683C25.3286 26.4345 25.5548 26.34 25.5559 26.3401C25.556 26.3401 25.792 26.4376 25.7939 26.7683H25.3268" fill="#FFFF00"/>
<path d="M25.3268 26.7683C25.3286 26.4345 25.5548 26.34 25.5559 26.3401C25.556 26.3401 25.792 26.4376 25.7939 26.7683H25.3268" stroke="black" stroke-width="0.0503951"/>
<path d="M24.7422 25.8633H26.3795C26.414 25.8633 26.4423 25.8954 26.4423 25.9343C26.4423 25.9733 26.414 26.0053 26.3795 26.0053H24.7422C24.7077 26.0053 24.6794 25.9735 24.6794 25.9343C24.6794 25.8954 24.7077 25.8633 24.7422 25.8633Z" fill="#FFFF00" stroke="black" stroke-width="0.0503951"/>
<path d="M24.7764 26.0064H26.3425C26.3755 26.0064 26.4025 26.0384 26.4025 26.0774C26.4025 26.1165 26.3755 26.1484 26.3425 26.1484H24.7764C24.7435 26.1484 24.7164 26.1165 24.7164 26.0774C24.7164 26.0384 24.7435 26.0064 24.7764 26.0064Z" fill="#FFFF00" stroke="black" stroke-width="0.0503951"/>
<path d="M25.2825 24.939L25.4061 24.9392V25.027H25.4964V24.9372L25.623 24.9376V25.0271H25.7135V24.9373H25.8403L25.8401 25.14C25.8401 25.1719 25.8145 25.1925 25.7848 25.1925H25.3402C25.3103 25.1925 25.2827 25.1686 25.2827 25.1394L25.2823 24.9391H25.2824L25.2825 24.939Z" fill="#FFFF00" stroke="black" stroke-width="0.0503951"/>
<path d="M25.7481 25.2102L25.776 25.8604L25.3423 25.8588L25.371 25.2085L25.7481 25.2102" fill="#FFFF00"/>
<path d="M25.7481 25.2102L25.776 25.8604L25.3423 25.8588L25.371 25.2085L25.7481 25.2102" stroke="black" stroke-width="0.0503951"/>
<path d="M25.219 25.5115L25.2322 25.862L24.8164 25.8622L24.8281 25.5116H25.2191H25.219L25.219 25.5115Z" fill="#FFFF00" stroke="black" stroke-width="0.0503951"/>
<path d="M26.2976 25.5115L26.3108 25.862L25.895 25.8622L25.9068 25.5116H26.2977H26.2976L26.2976 25.5115Z" fill="#FFFF00" stroke="black" stroke-width="0.0503951"/>
<path d="M24.7512 25.2575L24.8721 25.2578V25.3457H24.9606V25.2558L25.0845 25.2562V25.3458H25.1731V25.2558L25.2971 25.256L25.2969 25.4588C25.2969 25.4904 25.2718 25.511 25.2429 25.511H24.8078C24.7786 25.511 24.7515 25.4873 24.7514 25.4581L24.7511 25.2576H24.7512L24.7512 25.2575Z" fill="#FFFF00" stroke="black" stroke-width="0.0503951"/>
<path d="M25.8299 25.2575L25.9507 25.2578V25.3457H26.0392V25.2558L26.1631 25.2562V25.3458H26.2517V25.2558L26.3757 25.256L26.3755 25.4588C26.3755 25.4904 26.3504 25.511 26.3215 25.511H25.8864C25.8572 25.511 25.8301 25.4873 25.83 25.4581L25.8297 25.2576H25.8298L25.8299 25.2575Z" fill="#FFFF00" stroke="black" stroke-width="0.0503951"/>
<path d="M25.5173 25.4157C25.5146 25.3525 25.6056 25.3518 25.6046 25.4157V25.5706H25.5173V25.4157" fill="black"/>
<path d="M24.9801 25.6405C24.9798 25.5795 25.0645 25.5782 25.0634 25.6405V25.7602H24.9801V25.6405" fill="black"/>
<path d="M26.0587 25.6405C26.0584 25.5795 26.1431 25.5782 26.142 25.6405V25.7602H26.0588V25.6405" fill="black"/>
<path d="M23.1663 32.0028C23.5694 31.6189 23.9417 31.8049 23.9451 31.8056C23.9484 31.8063 24.1464 32.2075 23.754 32.5978L23.1663 32.0028" fill="#FFFF00"/>
<path d="M23.4056 31.2816L22.9049 31.6852L23.1993 31.9809C23.5763 31.6096 23.9189 31.8278 23.9243 31.8359C23.931 31.8419 24.1259 32.2029 23.781 32.5626L24.0769 32.8585L24.4791 32.3494L23.4058 31.2815L23.4056 31.2816L23.4056 31.2816Z" fill="#FFFF00" stroke="black" stroke-width="0.0503951"/>
<path d="M22.8833 31.6671L24.091 32.8748C24.1165 32.9003 24.1121 32.9462 24.0814 32.9769C24.0507 33.0076 24.0049 33.0118 23.9795 32.9864L22.7717 31.7786C22.7463 31.7532 22.7505 31.7074 22.7812 31.6767C22.8119 31.646 22.8578 31.6416 22.8833 31.6671Z" fill="#FFFF00" stroke="black" stroke-width="0.0503951"/>
<path d="M23.3244 32.104C23.5618 31.8692 23.7885 31.9623 23.7892 31.9632C23.7893 31.9633 23.8873 32.199 23.6547 32.4343L23.3244 32.104" fill="#FFFF00"/>
<path d="M23.3244 32.104C23.5618 31.8692 23.7885 31.9623 23.7892 31.9632C23.7893 31.9633 23.8873 32.199 23.6547 32.4343L23.3244 32.104" stroke="black" stroke-width="0.0503951"/>
<path d="M23.5511 31.0507L24.7089 32.2084C24.7332 32.2328 24.7305 32.2755 24.703 32.303C24.6754 32.3306 24.6328 32.3333 24.6084 32.3089L23.4506 31.1511C23.4263 31.1267 23.4288 31.0842 23.4565 31.0565C23.484 31.029 23.5267 31.0263 23.5511 31.0507Z" fill="#FFFF00" stroke="black" stroke-width="0.0503951"/>
<path d="M23.4741 31.1761L24.5815 32.2835C24.6048 32.3068 24.6013 32.3485 24.5737 32.3761C24.5461 32.4037 24.5044 32.4072 24.4811 32.3839L23.3737 31.2765C23.3504 31.2532 23.3538 31.2115 23.3815 31.1838C23.4091 31.1562 23.4507 31.1528 23.4741 31.1761Z" fill="#FFFF00" stroke="black" stroke-width="0.0503951"/>
<path d="M24.5866 30.7791L24.6739 30.8667L24.6118 30.9288L24.6756 30.9926L24.7391 30.9291L24.8284 31.0189L24.7651 31.0822L24.8291 31.1461L24.8926 31.0827L24.9822 31.1723L24.8387 31.3155C24.8162 31.338 24.7835 31.3345 24.7625 31.3135L24.4482 30.9991C24.427 30.978 24.4245 30.9416 24.445 30.9209L24.5865 30.779L24.5865 30.7791L24.5866 30.7791Z" fill="#FFFF00" stroke="black" stroke-width="0.0503951"/>
<path d="M24.7242 31.3001L24.2842 31.7796L23.9786 31.4718L24.4588 31.0323L24.7242 31.3001" fill="#FFFF00"/>
<path d="M24.7242 31.3001L24.2842 31.7796L23.9786 31.4718L24.4588 31.0323L24.7242 31.3001" stroke="black" stroke-width="0.0503951"/>
<path d="M24.1368 31.139L23.8984 31.3962L23.6042 31.1024L23.8605 30.8627L24.1369 31.1391L24.1368 31.139L24.1368 31.139Z" fill="#FFFF00" stroke="black" stroke-width="0.0503951"/>
<path d="M24.8997 31.9017L24.6612 32.1589L24.367 31.865L24.6233 31.6254L24.8997 31.9018L24.8996 31.9017L24.8997 31.9017Z" fill="#FFFF00" stroke="black" stroke-width="0.0503951"/>
<path d="M23.9858 30.6288L24.0711 30.7145L24.0089 30.7766L24.0715 30.8392L24.1351 30.7756L24.2224 30.8635L24.159 30.9268L24.2217 30.9895L24.2853 30.9259L24.3728 31.0137L24.2293 31.1569C24.207 31.1793 24.1746 31.1762 24.1542 31.1557L23.8465 30.848C23.8259 30.8274 23.8235 30.7914 23.8441 30.7707L23.9856 30.6287L23.9857 30.6288L23.9858 30.6288Z" fill="#FFFF00" stroke="black" stroke-width="0.0503951"/>
<path d="M24.7485 31.3914L24.8338 31.4771L24.7716 31.5392L24.8341 31.6018L24.8978 31.5382L24.9851 31.6261L24.9217 31.6894L24.9844 31.7521L25.048 31.6885L25.1355 31.7763L24.992 31.9195C24.9696 31.9419 24.9373 31.9388 24.9169 31.9183L24.6092 31.6106C24.5886 31.59 24.5862 31.554 24.6068 31.5333L24.7483 31.3914L24.7484 31.3914L24.7485 31.3914Z" fill="#FFFF00" stroke="black" stroke-width="0.0503951"/>
<path d="M24.4156 31.2823C24.4584 31.2357 24.5232 31.2995 24.4773 31.344L24.3678 31.4535L24.3061 31.3918L24.4155 31.2823" fill="black"/>
<path d="M23.8768 31.0613C23.9198 31.0179 23.9805 31.0769 23.9357 31.1202L23.8511 31.2048L23.7922 31.1459L23.8768 31.0613" fill="black"/>
<path d="M24.6394 31.824C24.6824 31.7806 24.7431 31.8396 24.6983 31.8829L24.6137 31.9675L24.5548 31.9086L24.6394 31.824" fill="black"/>
<path d="M20.3707 27.3972V27.3977C20.3707 27.6206 20.4563 27.8237 20.5936 27.9711C20.7312 28.1189 20.9207 28.2108 21.128 28.2108C21.3363 28.2108 21.5255 28.1196 21.6625 27.9724C21.7993 27.8253 21.8844 27.6224 21.8844 27.3986V26.3133L20.3734 26.312L20.3706 27.3971" fill="#003399"/>
<path d="M20.7172 26.8745C20.7999 26.8745 20.8669 26.8074 20.8669 26.7247C20.8669 26.642 20.7999 26.575 20.7172 26.575C20.6344 26.575 20.5674 26.642 20.5674 26.7247C20.5674 26.8074 20.6344 26.8745 20.7172 26.8745Z" fill="white"/>
<path d="M21.5555 26.8752C21.6383 26.8752 21.7053 26.8082 21.7053 26.7255C21.7053 26.6427 21.6383 26.5757 21.5555 26.5757C21.4728 26.5757 21.4058 26.6427 21.4058 26.7255C21.4058 26.8082 21.4728 26.8752 21.5555 26.8752Z" fill="white"/>
<path d="M21.1356 27.2776C21.2183 27.2776 21.2854 27.2106 21.2854 27.1278C21.2854 27.0451 21.2183 26.9781 21.1356 26.9781C21.0529 26.9781 20.9858 27.0451 20.9858 27.1278C20.9858 27.2106 21.0529 27.2776 21.1356 27.2776Z" fill="white"/>
<path d="M20.7172 27.6991C20.7999 27.6991 20.8669 27.632 20.8669 27.5493C20.8669 27.4666 20.7999 27.3995 20.7172 27.3995C20.6344 27.3995 20.5674 27.4666 20.5674 27.5493C20.5674 27.632 20.6344 27.6991 20.7172 27.6991Z" fill="white"/>
<path d="M21.5547 27.698C21.6374 27.698 21.7045 27.6309 21.7045 27.5482C21.7045 27.4655 21.6374 27.3984 21.5547 27.3984C21.472 27.3984 21.4049 27.4655 21.4049 27.5482C21.4049 27.6309 21.472 27.698 21.5547 27.698Z" fill="white"/>
<path d="M20.3707 24.9137V24.9142C20.3707 25.1372 20.4563 25.3403 20.5936 25.4877C20.7312 25.6355 20.9207 25.7273 21.128 25.7273C21.3363 25.7273 21.5255 25.6361 21.6625 25.4889C21.7993 25.3419 21.8844 25.1389 21.8844 24.9151V23.8298L20.3734 23.8286L20.3706 24.9137" fill="#003399"/>
<path d="M20.7172 24.3911C20.7999 24.3911 20.8669 24.3241 20.8669 24.2414C20.8669 24.1586 20.7999 24.0916 20.7172 24.0916C20.6344 24.0916 20.5674 24.1586 20.5674 24.2414C20.5674 24.3241 20.6344 24.3911 20.7172 24.3911Z" fill="white"/>
<path d="M21.5555 24.3918C21.6383 24.3918 21.7053 24.3248 21.7053 24.2421C21.7053 24.1593 21.6383 24.0923 21.5555 24.0923C21.4728 24.0923 21.4058 24.1593 21.4058 24.2421C21.4058 24.3248 21.4728 24.3918 21.5555 24.3918Z" fill="white"/>
<path d="M21.1356 24.7943C21.2183 24.7943 21.2854 24.7273 21.2854 24.6446C21.2854 24.5618 21.2183 24.4948 21.1356 24.4948C21.0529 24.4948 20.9858 24.5618 20.9858 24.6446C20.9858 24.7273 21.0529 24.7943 21.1356 24.7943Z" fill="white"/>
<path d="M20.7172 25.2157C20.7999 25.2157 20.8669 25.1486 20.8669 25.0659C20.8669 24.9832 20.7999 24.9161 20.7172 24.9161C20.6344 24.9161 20.5674 24.9832 20.5674 25.0659C20.5674 25.1486 20.6344 25.2157 20.7172 25.2157Z" fill="white"/>
<path d="M21.5547 25.2146C21.6374 25.2146 21.7045 25.1475 21.7045 25.0648C21.7045 24.9821 21.6374 24.915 21.5547 24.915C21.472 24.915 21.4049 24.9821 21.4049 25.0648C21.4049 25.1475 21.472 25.2146 21.5547 25.2146Z" fill="white"/>
<path d="M20.3707 29.8524V29.8529C20.3707 30.0758 20.4563 30.2789 20.5936 30.4263C20.7312 30.5741 20.9207 30.666 21.128 30.666C21.3363 30.666 21.5255 30.5748 21.6625 30.4276C21.7993 30.2805 21.8844 30.0776 21.8844 29.8538V28.7685L20.3734 28.7672L20.3706 29.8523" fill="#003399"/>
<path d="M20.7172 29.3299C20.7999 29.3299 20.8669 29.2628 20.8669 29.1801C20.8669 29.0974 20.7999 29.0303 20.7172 29.0303C20.6344 29.0303 20.5674 29.0974 20.5674 29.1801C20.5674 29.2628 20.6344 29.3299 20.7172 29.3299Z" fill="white"/>
<path d="M21.5555 29.3306C21.6383 29.3306 21.7053 29.2635 21.7053 29.1808C21.7053 29.0981 21.6383 29.031 21.5555 29.031C21.4728 29.031 21.4058 29.0981 21.4058 29.1808C21.4058 29.2635 21.4728 29.3306 21.5555 29.3306Z" fill="white"/>
<path d="M21.1356 29.733C21.2183 29.733 21.2854 29.6659 21.2854 29.5832C21.2854 29.5005 21.2183 29.4334 21.1356 29.4334C21.0529 29.4334 20.9858 29.5005 20.9858 29.5832C20.9858 29.6659 21.0529 29.733 21.1356 29.733Z" fill="white"/>
<path d="M20.7172 30.1544C20.7999 30.1544 20.8669 30.0874 20.8669 30.0046C20.8669 29.9219 20.7999 29.8549 20.7172 29.8549C20.6344 29.8549 20.5674 29.9219 20.5674 30.0046C20.5674 30.0874 20.6344 30.1544 20.7172 30.1544Z" fill="white"/>
<path d="M21.5547 30.1533C21.6374 30.1533 21.7045 30.0862 21.7045 30.0035C21.7045 29.9208 21.6374 29.8537 21.5547 29.8537C21.472 29.8537 21.4049 29.9208 21.4049 30.0035C21.4049 30.0862 21.472 30.1533 21.5547 30.1533Z" fill="white"/>
<path d="M18.4924 27.3972V27.3977C18.4924 27.6206 18.578 27.8237 18.7153 27.9711C18.8529 28.1189 19.0424 28.2108 19.2497 28.2108C19.458 28.2108 19.6472 28.1196 19.7842 27.9724C19.921 27.8253 20.0061 27.6224 20.0061 27.3986V26.3133L18.4951 26.312L18.4923 27.3971" fill="#003399"/>
<path d="M18.8389 26.8745C18.9216 26.8745 18.9886 26.8074 18.9886 26.7247C18.9886 26.642 18.9216 26.575 18.8389 26.575C18.7561 26.575 18.6891 26.642 18.6891 26.7247C18.6891 26.8074 18.7561 26.8745 18.8389 26.8745Z" fill="white"/>
<path d="M19.6772 26.8752C19.76 26.8752 19.827 26.8082 19.827 26.7255C19.827 26.6427 19.76 26.5757 19.6772 26.5757C19.5945 26.5757 19.5275 26.6427 19.5275 26.7255C19.5275 26.8082 19.5945 26.8752 19.6772 26.8752Z" fill="white"/>
<path d="M19.2572 27.2776C19.3399 27.2776 19.407 27.2106 19.407 27.1278C19.407 27.0451 19.3399 26.9781 19.2572 26.9781C19.1745 26.9781 19.1074 27.0451 19.1074 27.1278C19.1074 27.2106 19.1745 27.2776 19.2572 27.2776Z" fill="white"/>
<path d="M18.8389 27.6991C18.9216 27.6991 18.9886 27.632 18.9886 27.5493C18.9886 27.4666 18.9216 27.3995 18.8389 27.3995C18.7561 27.3995 18.6891 27.4666 18.6891 27.5493C18.6891 27.632 18.7561 27.6991 18.8389 27.6991Z" fill="white"/>
<path d="M19.6763 27.698C19.759 27.698 19.826 27.6309 19.826 27.5482C19.826 27.4655 19.759 27.3984 19.6763 27.3984C19.5935 27.3984 19.5265 27.4655 19.5265 27.5482C19.5265 27.6309 19.5935 27.698 19.6763 27.698Z" fill="white"/>
<path d="M22.2216 27.3972V27.3977C22.2216 27.6206 22.3072 27.8237 22.4445 27.9711C22.5821 28.1189 22.7716 28.2108 22.9789 28.2108C23.1873 28.2108 23.3764 28.1196 23.5134 27.9724C23.6503 27.8253 23.7354 27.6224 23.7354 27.3986V26.3133L22.2243 26.312L22.2216 27.3971" fill="#003399"/>
<path d="M22.5681 26.8745C22.6508 26.8745 22.7179 26.8074 22.7179 26.7247C22.7179 26.642 22.6508 26.575 22.5681 26.575C22.4854 26.575 22.4183 26.642 22.4183 26.7247C22.4183 26.8074 22.4854 26.8745 22.5681 26.8745Z" fill="white"/>
<path d="M23.4065 26.8752C23.4892 26.8752 23.5563 26.8082 23.5563 26.7255C23.5563 26.6427 23.4892 26.5757 23.4065 26.5757C23.3238 26.5757 23.2567 26.6427 23.2567 26.7255C23.2567 26.8082 23.3238 26.8752 23.4065 26.8752Z" fill="white"/>
<path d="M22.9866 27.2776C23.0693 27.2776 23.1363 27.2106 23.1363 27.1278C23.1363 27.0451 23.0693 26.9781 22.9866 26.9781C22.9038 26.9781 22.8368 27.0451 22.8368 27.1278C22.8368 27.2106 22.9038 27.2776 22.9866 27.2776Z" fill="white"/>
<path d="M22.5681 27.6991C22.6508 27.6991 22.7179 27.632 22.7179 27.5493C22.7179 27.4666 22.6508 27.3995 22.5681 27.3995C22.4854 27.3995 22.4183 27.4666 22.4183 27.5493C22.4183 27.632 22.4854 27.6991 22.5681 27.6991Z" fill="white"/>
<path d="M23.4055 27.698C23.4882 27.698 23.5553 27.6309 23.5553 27.5482C23.5553 27.4655 23.4882 27.3984 23.4055 27.3984C23.3228 27.3984 23.2557 27.4655 23.2557 27.5482C23.2557 27.6309 23.3228 27.698 23.4055 27.698Z" fill="white"/>
</g>
</svg>
