<svg width="54" height="54" viewBox="0 0 54 54" fill="none" xmlns="http://www.w3.org/2000/svg">
<mask id="mask0_1_41871" style="mask-type:alpha" maskUnits="userSpaceOnUse" x="3" y="9" width="48" height="36">
<path d="M3.56934 18.1356C4.16681 13.4125 8.0415 10.0019 12.7861 9.60887C16.6412 9.28949 21.6196 9 27 9C32.3804 9 37.3588 9.28949 41.2139 9.60887C45.9585 10.0019 49.8332 13.4125 50.4307 18.1356C50.752 20.6759 51 23.704 51 27C51 30.296 50.752 33.3241 50.4307 35.8644C49.8332 40.5875 45.9585 43.9981 41.2139 44.3911C37.3588 44.7105 32.3804 45 27 45C21.6196 45 16.6412 44.7105 12.7861 44.3911C8.04151 43.9981 4.16681 40.5875 3.56934 35.8644C3.248 33.3241 3 30.296 3 27C3 23.704 3.248 20.6759 3.56934 18.1356Z" fill="#00D0BF"/>
</mask>
<g mask="url(#mask0_1_41871)">
<rect x="3" y="33" width="48" height="12" fill="#3F6FEB"/>
<rect x="3" y="21" width="48" height="12" fill="#F5F5F5"/>
<path d="M32 26.9987C32 29.7611 29.7621 32 26.9999 32C24.239 32 22 29.7611 22 26.9987C22 24.2375 24.239 22 26.9999 22C29.7621 22 32 24.2375 32 26.9987Z" fill="white" stroke="black" stroke-width="0.220367" stroke-miterlimit="10"/>
<path d="M29.4175 26.2242C29.2961 26.2194 29.2954 26.3532 29.2954 26.3532C29.2954 26.3532 29.2996 26.3136 29.2961 26.3585C29.2938 26.403 29.316 26.5113 29.4057 26.5201C29.5003 26.5284 29.5317 26.4178 29.5325 26.3642C29.5325 26.3429 29.5256 26.2269 29.4175 26.2243" fill="#009B3A"/>
<path d="M29.4175 26.2242C29.2961 26.2194 29.2954 26.3532 29.2954 26.3532C29.2954 26.3532 29.2996 26.3136 29.2961 26.3585C29.2938 26.403 29.316 26.5113 29.4057 26.5201C29.5003 26.5284 29.5317 26.4178 29.5325 26.3642C29.5325 26.3429 29.5256 26.2269 29.4175 26.2243" stroke="black" stroke-width="0.058872"/>
<path d="M23.8631 29.0003L23.8203 28.9294C23.816 28.9215 23.8048 28.9085 23.7869 28.8891C23.7784 28.8795 23.7666 28.8736 23.7538 28.8727C23.7403 28.8708 23.7265 28.8736 23.7148 28.8806C23.6982 28.8908 23.6873 28.9044 23.6856 28.921C23.6824 28.9379 23.6903 28.9611 23.709 28.9925L23.7524 29.0663L23.8631 29.0003ZM24.2863 28.976L23.7424 29.2994L23.5764 29.0204C23.5456 28.9681 23.5269 28.9265 23.5196 28.8936C23.511 28.8602 23.5151 28.8289 23.5289 28.7977C23.5426 28.7663 23.5676 28.7401 23.6024 28.7193C23.6292 28.7029 23.6596 28.6936 23.6909 28.6919C23.7214 28.6919 23.7491 28.6995 23.7761 28.7138C23.7927 28.7233 23.8121 28.7381 23.8332 28.7597C23.8282 28.7364 23.8253 28.7181 23.8264 28.7038C23.8282 28.6954 23.832 28.6815 23.8396 28.6602C23.847 28.6399 23.854 28.6257 23.8583 28.6166L23.9683 28.4416L24.0803 28.6317L23.9683 28.8204C23.9542 28.8442 23.9457 28.8626 23.9445 28.8754C23.9439 28.8931 23.9478 28.9085 23.9562 28.9236L23.9655 28.939L24.1859 28.8079L24.2863 28.976ZM23.3288 28.5331L23.1628 28.0369L23.2908 27.9938L23.3948 28.3049L23.4908 28.2726L23.393 27.9839L23.516 27.9438L23.6126 28.2311L23.7303 28.193L23.6241 27.8729L23.7599 27.8267L23.9286 28.3322L23.3288 28.5331ZM23.3465 27.523L23.3398 27.4765C23.3354 27.4378 23.326 27.4128 23.3117 27.3998C23.3045 27.3933 23.296 27.3885 23.2868 27.3856C23.2775 27.3827 23.2678 27.3818 23.2581 27.3829C23.2388 27.3861 23.223 27.3943 23.2109 27.4079C23.1984 27.4231 23.1942 27.448 23.1995 27.4844L23.2048 27.5402L23.3465 27.523ZM23.1005 27.7495L23.0628 27.4271C23.0552 27.3579 23.0652 27.3027 23.0941 27.2637C23.124 27.2251 23.1697 27.2018 23.2311 27.1949C23.2944 27.187 23.3468 27.2006 23.3867 27.2341C23.426 27.2681 23.4511 27.3248 23.4605 27.4027L23.4725 27.5088L23.7053 27.4817L23.7282 27.6768L23.1005 27.7495ZM23.0785 26.5159L23.0987 26.3216L23.4742 26.362C23.5096 26.3661 23.5441 26.3758 23.5764 26.3908C23.6085 26.4052 23.6364 26.4272 23.6578 26.455C23.6795 26.483 23.6948 26.5097 23.7018 26.5385C23.7114 26.5765 23.7141 26.6231 23.7079 26.6766C23.7044 26.7099 23.6985 26.743 23.6903 26.7755C23.6824 26.8111 23.6702 26.8406 23.6549 26.8633C23.6387 26.8874 23.618 26.9083 23.594 26.9248C23.5709 26.9411 23.5447 26.9523 23.5169 26.9577C23.4753 26.9662 23.4397 26.9679 23.4086 26.9644L23.0349 26.9249L23.0551 26.7304L23.4385 26.772C23.4731 26.7755 23.5006 26.7691 23.5219 26.7516C23.5434 26.7344 23.5554 26.7095 23.5594 26.6766C23.563 26.6419 23.5559 26.6153 23.5392 26.5947C23.5226 26.5734 23.4967 26.5615 23.4619 26.5574L23.0785 26.5159ZM23.7075 25.9844L23.7412 25.8908C23.7514 25.8591 23.7543 25.8346 23.7474 25.817C23.744 25.8086 23.7388 25.8012 23.7322 25.7952C23.7255 25.7892 23.7176 25.7848 23.709 25.7824C23.6902 25.7759 23.6747 25.7771 23.6595 25.7865C23.6437 25.796 23.6301 25.8164 23.6193 25.848L23.586 25.9422L23.7075 25.9844ZM23.473 25.9022L23.5013 25.8227C23.5109 25.7937 23.5136 25.7716 23.5065 25.7568C23.5013 25.7425 23.489 25.7312 23.47 25.7257C23.4626 25.7226 23.4546 25.7212 23.4466 25.7215C23.4386 25.7219 23.4308 25.724 23.4237 25.7277C23.41 25.7358 23.3985 25.7532 23.3892 25.7812L23.3595 25.8629L23.473 25.9022ZM23.1744 26.0071L23.2945 25.6609C23.3153 25.6033 23.3449 25.5649 23.3847 25.5432C23.4033 25.5332 23.4237 25.5272 23.4447 25.5257C23.4657 25.5241 23.4868 25.527 23.5067 25.5341C23.5412 25.5477 23.5675 25.5687 23.5857 25.5995C23.5964 25.6198 23.6033 25.6466 23.6033 25.6777C23.6281 25.6382 23.6568 25.6131 23.6887 25.6024C23.7212 25.5908 23.7567 25.5914 23.795 25.6048C23.8252 25.6152 23.8504 25.6323 23.8704 25.655C23.8894 25.6789 23.9019 25.7051 23.9081 25.7347C23.911 25.7538 23.9096 25.7794 23.9028 25.8112C23.8929 25.8556 23.887 25.8838 23.882 25.8969L23.7707 26.2155L23.1744 26.0071ZM23.4967 25.1969L23.5989 25.0301L24.006 25.2768L24.1645 25.0165L24.2972 25.0975L24.0388 25.5246L23.4967 25.1969ZM23.9142 24.575L24.0399 24.4252L24.5223 24.833L24.3964 24.9828L23.9142 24.575ZM24.7903 24.2351L24.9546 24.1648C24.9757 24.2091 24.9877 24.2511 24.9894 24.2924C24.991 24.332 24.983 24.3714 24.9661 24.4072C24.9473 24.4435 24.9165 24.4787 24.8744 24.5157C24.8207 24.5593 24.7715 24.5878 24.725 24.6002C24.679 24.6122 24.6274 24.6093 24.5701 24.5912C24.5147 24.5729 24.462 24.5331 24.4111 24.4735C24.3449 24.3925 24.3144 24.3131 24.3211 24.2351C24.3276 24.1558 24.3703 24.0846 24.4482 24.0189C24.5101 23.9677 24.5674 23.941 24.6239 23.9366C24.679 23.9314 24.7376 23.948 24.7964 23.9849L24.6884 24.125C24.672 24.1142 24.6583 24.107 24.6466 24.1046C24.6295 24.0995 24.6113 24.0993 24.5941 24.104C24.5764 24.108 24.5599 24.1161 24.546 24.1279C24.5117 24.1566 24.4969 24.1921 24.5018 24.2345C24.5047 24.2662 24.5249 24.3032 24.5601 24.3471C24.6055 24.4009 24.6447 24.431 24.677 24.4371C24.7109 24.4441 24.7423 24.4346 24.7715 24.4101C24.8 24.3857 24.8155 24.3602 24.8161 24.3322C24.8169 24.3025 24.809 24.2703 24.7903 24.2351V24.2351ZM25.4298 23.8553L25.2646 23.6843L25.3062 23.9189L25.4298 23.8553ZM25.5282 23.959L25.3303 24.0597L25.3505 24.1669L25.1727 24.2573L25.0973 23.5861L25.2874 23.489L25.7862 23.9446L25.6044 24.0376L25.5282 23.959ZM26.297 23.3001L26.3456 23.6414L26.3931 23.6344C26.4338 23.6294 26.4622 23.6204 26.4783 23.609C26.4938 23.5965 26.5044 23.5806 26.5108 23.5555C26.5178 23.5323 26.5178 23.496 26.5106 23.4454C26.5012 23.3794 26.4836 23.3352 26.459 23.3143C26.4339 23.2933 26.396 23.2858 26.3457 23.2933L26.297 23.3001ZM26.0844 23.1858L26.3714 23.1445C26.428 23.137 26.4739 23.1375 26.5108 23.148C26.5489 23.1588 26.5802 23.1762 26.6078 23.2018C26.6345 23.2274 26.6558 23.2585 26.6711 23.2948C26.6875 23.3329 26.6985 23.3731 26.7038 23.4143C26.7141 23.4805 26.7141 23.534 26.7032 23.5721C26.6942 23.6095 26.6772 23.6445 26.6534 23.6747C26.6294 23.7029 26.6027 23.7242 26.5732 23.736C26.5371 23.7527 26.499 23.7643 26.4598 23.7707L26.1722 23.8111L26.0844 23.1858ZM26.9446 23.0633L27.4662 23.102L27.4565 23.2365L27.1299 23.2121L27.1223 23.3124L27.4252 23.3348L27.4143 23.463L27.113 23.4414L27.1041 23.5648L27.4401 23.5897L27.4296 23.7321L26.8979 23.6929L26.9446 23.0633ZM27.7482 23.137L27.936 23.1894L27.8062 23.6487L28.0994 23.7316L28.0566 23.8804L27.5754 23.7441L27.7482 23.137ZM28.8145 23.8383L28.8549 23.8644C28.886 23.8851 28.9123 23.8938 28.9314 23.8917C28.9409 23.891 28.9502 23.888 28.9583 23.883C28.9664 23.8779 28.9732 23.8709 28.978 23.8626C28.9885 23.8467 28.9923 23.8287 28.99 23.8091C28.9861 23.7906 28.9689 23.7717 28.9384 23.7516L28.8918 23.7202L28.8145 23.8383ZM28.7989 23.5054L29.0705 23.6845C29.1293 23.7231 29.1639 23.7668 29.1745 23.8138C29.1859 23.8615 29.1745 23.9115 29.1396 23.9633C29.1057 24.0159 29.0617 24.0467 29.0096 24.0557C28.9568 24.0641 28.8991 24.0479 28.8332 24.0045L28.7439 23.9452L28.6156 24.1409L28.4519 24.0324L28.7989 23.5054ZM29.4846 24.469L29.5947 24.2583L29.3856 24.3714L29.4846 24.469ZM29.4178 24.5946L29.2593 24.4388L29.1639 24.4912L29.0219 24.3516L29.3138 24.2168L29.6355 24.0681L29.7866 24.2176L29.5119 24.8353L29.3666 24.6911L29.4178 24.5946ZM30.0048 24.8687L30.0494 24.9391C30.0547 24.9461 30.0643 24.9598 30.0842 24.9783C30.0933 24.9873 30.1055 24.9926 30.1183 24.9932C30.1315 24.9947 30.1448 24.9914 30.1557 24.9838C30.1724 24.9731 30.1817 24.9597 30.1847 24.9426C30.187 24.9263 30.1783 24.9018 30.1586 24.8722L30.1135 24.8002L30.0048 24.8687ZM29.5823 24.9062L30.115 24.5661L30.2899 24.8402C30.3223 24.8908 30.3429 24.9324 30.3528 24.9647C30.3604 24.9967 30.3575 25.0303 30.3445 25.0606C30.3316 25.0926 30.308 25.119 30.2746 25.1409C30.2444 25.16 30.2154 25.1708 30.1856 25.1708C30.1572 25.1725 30.1282 25.1653 30.0997 25.1533C30.0789 25.1405 30.0595 25.1254 30.0421 25.1083C30.0476 25.1315 30.0511 25.1504 30.0505 25.1635C30.0477 25.1783 30.044 25.1928 30.0394 25.2071C30.0346 25.2227 30.0283 25.2376 30.0204 25.2518L29.9173 25.4304L29.7977 25.244L29.905 25.0528C29.9194 25.0272 29.9263 25.0089 29.9263 24.9961C29.9269 24.9789 29.9243 24.9626 29.9129 24.948L29.9044 24.9336L29.6877 25.0716L29.5823 24.9062ZM30.3291 25.7573L30.5186 25.6143L30.2817 25.6274L30.3291 25.7573ZM30.2141 25.8419L30.1382 25.6329L30.0304 25.6405L29.9616 25.453L30.6369 25.4608L30.7099 25.6602L30.1971 26.0998L30.1268 25.9067L30.2141 25.8419ZM30.5166 26.5141L30.6466 26.4969L30.6843 26.7982L30.4169 26.8304C30.3718 26.7781 30.3373 26.7312 30.3188 26.6885C30.2983 26.6461 30.2851 26.5947 30.2776 26.5345C30.2679 26.4601 30.2728 26.3978 30.2936 26.3478C30.3124 26.2978 30.3458 26.2563 30.3926 26.2234C30.4398 26.1923 30.4955 26.1717 30.5602 26.1638C30.6284 26.1549 30.6902 26.1618 30.744 26.1842C30.798 26.2057 30.8413 26.242 30.8751 26.2932C30.9011 26.3337 30.9183 26.3892 30.9265 26.4613C30.9362 26.5301 30.9362 26.5827 30.9271 26.6185C30.9203 26.6535 30.9038 26.6858 30.8794 26.7117C30.8538 26.7398 30.822 26.7615 30.7865 26.7752L30.7298 26.5929C30.7524 26.5816 30.769 26.5671 30.7789 26.5464C30.7892 26.5266 30.7919 26.5016 30.7892 26.4743C30.7822 26.4313 30.7646 26.3993 30.7324 26.3778C30.6993 26.3563 30.6506 26.3495 30.5868 26.3575C30.5189 26.3659 30.4729 26.3853 30.4462 26.4136C30.4211 26.4432 30.4117 26.4812 30.4164 26.5266C30.4188 26.5482 30.4251 26.5682 30.4334 26.5868C30.4424 26.6066 30.4556 26.6266 30.4738 26.6517L30.5333 26.6435L30.5166 26.5141ZM30.9167 27.4618L30.8944 27.6553L30.5207 27.6132C30.4849 27.6093 30.4501 27.5994 30.4176 27.5838C30.3861 27.5688 30.3585 27.5469 30.3368 27.5196C30.3154 27.4923 30.3007 27.4646 30.2937 27.4367C30.2846 27.3963 30.2823 27.351 30.2884 27.2978C30.2926 27.2675 30.2985 27.2341 30.3057 27.1984C30.3142 27.1626 30.3268 27.1335 30.3426 27.1109C30.3591 27.0873 30.3795 27.0667 30.403 27.0501C30.4305 27.0329 30.4557 27.0222 30.4808 27.0178C30.5219 27.01 30.5585 27.0074 30.5892 27.0121L30.9635 27.0548L30.9413 27.2478L30.5585 27.2038C30.5236 27.2001 30.4961 27.2062 30.4744 27.2234C30.4533 27.2408 30.4407 27.2652 30.4372 27.2987C30.4334 27.3329 30.4399 27.36 30.4568 27.3806C30.4733 27.4015 30.499 27.4141 30.5333 27.4193L30.9167 27.4618ZM30.335 28.181L30.5731 28.1895L30.3809 28.0494L30.335 28.181ZM30.1938 28.1739L30.2658 27.9643L30.1776 27.9011L30.2432 27.7125L30.7628 28.1442L30.6913 28.3462L30.018 28.3627L30.0842 28.1691L30.1938 28.1739ZM30.5426 28.7557L30.4327 28.9425L30.1838 28.9434L30.303 29.162L30.1938 29.3466L30.0017 28.9486L29.7738 28.8143L29.8739 28.6454L30.1015 28.7806L30.5426 28.7557Z" fill="black"/>
<path d="M31.1844 27.0003C31.1844 29.3127 29.3106 31.1867 26.9993 31.1867C24.6873 31.1867 22.8135 29.3126 22.8135 27.0003C22.8135 24.6895 24.6872 22.8158 26.9992 22.8158C29.3106 22.8158 31.1844 24.6895 31.1844 27.0002L31.1844 27.0003Z" stroke="black" stroke-width="0.0881586" stroke-miterlimit="10"/>
<path d="M30.1135 26.9853C30.1135 28.7066 28.7196 30.1007 26.9992 30.1007C25.2787 30.1007 23.8842 28.7066 23.8842 26.9853C23.8842 25.2658 25.2787 23.8712 26.9991 23.8712C28.7196 23.8712 30.1136 25.2658 30.1136 26.9853H30.1135Z" stroke="black" stroke-width="0.0881586" stroke-miterlimit="10"/>
<path d="M26.9994 25.8651L27.261 26.614L28.0526 26.6317L27.4218 27.1114L27.6511 27.8703L26.9994 27.4192L26.3475 27.8703L26.5757 27.1114L25.9439 26.6317L26.737 26.614L26.9994 25.8651Z" fill="#FEDF00" stroke="black" stroke-width="0.0359807"/>
<path d="M28.4376 29.1355C28.4111 29.1576 28.3049 29.1695 28.2768 29.1742C28.2483 29.1779 28.1367 29.179 28.0895 29.1808C28.0635 29.1826 28.0134 29.1898 27.9874 29.1898C27.7586 29.1637 28.3591 29.1674 28.4376 29.1354V29.1355ZM27.838 28.9585C27.853 28.9317 27.928 28.7648 27.9549 28.7174C27.9824 28.6709 28.0445 28.5467 28.0816 28.4951C28.1008 28.4671 28.1754 28.3861 28.1932 28.4224C28.0632 28.5347 27.9607 28.7309 27.9061 28.8629C27.899 28.8771 27.8563 28.9505 27.8405 28.9698C27.8252 28.9886 27.8315 29.0243 27.8075 29.0272C27.7822 29.0303 27.7999 29.0349 27.7999 29.0349C27.7999 29.0349 27.8216 28.9866 27.838 28.9584V28.9585ZM28.7005 29.0861C28.7005 29.0861 28.5971 29.0706 28.533 29.048C28.4692 29.0264 28.3619 29.0099 28.2706 29.0122C28.1801 29.0134 28.0972 29.0407 28.0234 29.0689C27.9499 29.0962 27.8547 29.0985 27.8547 29.0985C27.8547 29.0985 27.8008 29.107 27.826 29.0945C27.85 29.0826 27.9335 29.0174 27.9335 29.0174L27.9874 28.9436C28.0029 28.9393 28.2764 28.5804 28.2466 28.484C28.2885 28.4132 28.3376 28.2866 28.3192 28.2646C28.3104 28.2556 28.1063 28.3294 28.0615 28.37C28.0096 28.4148 27.973 28.5082 27.9575 28.562C27.9423 28.6154 27.8638 28.6596 27.8638 28.6596C27.7999 28.7055 27.7537 28.8508 27.732 28.9698C27.71 29.0872 27.4207 29.1523 27.4207 29.1523C27.4207 29.1523 27.3404 29.1822 27.4117 29.2049C27.4239 29.2083 27.4557 29.2621 27.4813 29.2629C27.5166 29.267 27.6963 29.1901 27.7241 29.1962C27.7851 29.21 27.8455 29.2265 27.9051 29.2457C27.9736 29.2689 28.0302 29.2808 28.0781 29.2631C28.1268 29.2456 28.1962 29.2524 28.2483 29.2625C28.2996 29.2736 28.357 29.2689 28.39 29.2587C28.4255 29.2479 28.5187 29.1962 28.5187 29.1962C28.5187 29.1962 28.6194 29.1526 28.6776 29.1252C28.736 29.098 28.7005 29.086 28.7005 29.086" fill="#009B3A"/>
<path d="M28.7005 29.0861C28.7005 29.0861 28.5971 29.0706 28.533 29.048C28.4692 29.0264 28.3619 29.0099 28.2706 29.0122C28.1801 29.0134 28.0972 29.0407 28.0234 29.0689C27.9499 29.0962 27.8547 29.0985 27.8547 29.0985C27.8547 29.0985 27.8008 29.107 27.826 29.0945C27.85 29.0826 27.9335 29.0174 27.9335 29.0174L27.9874 28.9436C28.0029 28.9393 28.2764 28.5804 28.2466 28.484C28.2885 28.4132 28.3376 28.2866 28.3192 28.2646C28.3104 28.2556 28.1063 28.3294 28.0615 28.37C28.0096 28.4148 27.973 28.5082 27.9575 28.562C27.9423 28.6154 27.8638 28.6596 27.8638 28.6596C27.7999 28.7055 27.7537 28.8508 27.732 28.9698C27.71 29.0872 27.4207 29.1523 27.4207 29.1523C27.4207 29.1523 27.3404 29.1822 27.4117 29.2049C27.4239 29.2083 27.4557 29.2621 27.4813 29.2629C27.5166 29.267 27.6963 29.1901 27.7241 29.1962C27.7851 29.21 27.8455 29.2265 27.9051 29.2457C27.9736 29.2689 28.0302 29.2808 28.0781 29.2631C28.1268 29.2456 28.1962 29.2524 28.2483 29.2625C28.2996 29.2736 28.357 29.2689 28.39 29.2587C28.4255 29.2479 28.5187 29.1962 28.5187 29.1962C28.5187 29.1962 28.6194 29.1526 28.6776 29.1252C28.736 29.098 28.7005 29.086 28.7005 29.086M28.4376 29.1355C28.4111 29.1576 28.3049 29.1695 28.2768 29.1742C28.2483 29.1779 28.1367 29.179 28.0895 29.1808C28.0635 29.1826 28.0134 29.1898 27.9874 29.1898C27.7586 29.1637 28.3591 29.1674 28.4376 29.1354V29.1355ZM27.838 28.9585C27.853 28.9317 27.928 28.7648 27.9549 28.7174C27.9824 28.6709 28.0445 28.5467 28.0816 28.4951C28.1008 28.4671 28.1754 28.3861 28.1932 28.4224C28.0632 28.5347 27.9607 28.7309 27.9061 28.8629C27.899 28.8771 27.8563 28.9505 27.8405 28.9698C27.8252 28.9886 27.8315 29.0243 27.8075 29.0272C27.7822 29.0303 27.7999 29.0349 27.7999 29.0349C27.7999 29.0349 27.8216 28.9866 27.838 28.9584V28.9585Z" stroke="black" stroke-width="0.0450655"/>
<path d="M27.9144 29.4353C27.9144 29.4353 27.516 29.2269 27.4946 29.2219C27.4821 29.2202 27.3139 29.1275 27.237 29.1035C27.1813 29.0856 27.1046 29.0808 27.077 29.0826C27.0115 29.0872 26.9044 29.1162 26.9044 29.1162L27.0033 29.1566C27.0033 29.1566 27.0962 29.2022 27.1416 29.2267C27.2066 29.261 27.2095 29.3028 27.2095 29.3028L27.5702 29.4614L27.6434 29.514C27.6434 29.514 27.71 29.4222 27.9144 29.4353" fill="#009B3A"/>
<path d="M27.9144 29.4353C27.9144 29.4353 27.516 29.2269 27.4946 29.2219C27.4821 29.2202 27.3139 29.1275 27.237 29.1035C27.1813 29.0856 27.1046 29.0808 27.077 29.0826C27.0115 29.0872 26.9044 29.1162 26.9044 29.1162L27.0033 29.1566C27.0033 29.1566 27.0962 29.2022 27.1416 29.2267C27.2066 29.261 27.2095 29.3028 27.2095 29.3028L27.5702 29.4614L27.6434 29.514C27.6434 29.514 27.71 29.4222 27.9144 29.4353" stroke="black" stroke-width="0.0359807"/>
<path d="M28.315 28.608C28.4403 28.4962 28.5016 28.3373 28.6047 28.2493C28.6214 28.2613 28.6214 28.2813 28.601 28.3165C28.5815 28.3511 28.5555 28.3631 28.5442 28.3811C28.5231 28.4093 28.4604 28.4615 28.4434 28.4928C28.4284 28.5224 28.4089 28.5639 28.3542 28.5955C28.2998 28.628 28.3169 28.6797 28.3123 28.7014C28.308 28.7253 28.2242 28.7853 28.1837 28.8595C28.176 28.9368 28.1725 28.9043 28.1256 28.9318C28.211 28.8032 28.2559 28.7203 28.315 28.6079V28.608ZM28.0335 28.9615C28.0254 28.9785 27.7783 29.1187 27.8556 29.0979C27.9324 29.0777 28.1607 28.9953 28.2256 28.9664C28.3049 28.9318 28.3524 28.8592 28.412 28.8001C28.4728 28.7397 28.6608 28.56 28.6934 28.4907C28.7252 28.4194 28.7541 28.3202 28.6266 28.0974C28.6266 28.0974 28.6068 28.14 28.5593 28.1816C28.5123 28.2242 28.4423 28.2714 28.4423 28.2714L28.3605 28.3487C28.3605 28.3487 28.0718 28.8791 28.0335 28.9616" fill="#009B3A"/>
<path d="M28.0335 28.9615C28.0254 28.9785 27.7783 29.1187 27.8556 29.0979C27.9324 29.0777 28.1607 28.9953 28.2256 28.9664C28.3049 28.9318 28.3524 28.8592 28.412 28.8001C28.4728 28.7397 28.6608 28.56 28.6934 28.4907C28.7252 28.4194 28.7541 28.3202 28.6266 28.0974C28.6266 28.0974 28.6068 28.14 28.5593 28.1816C28.5123 28.2242 28.4423 28.2714 28.4423 28.2714L28.3605 28.3487C28.3605 28.3487 28.0718 28.8791 28.0335 28.9616M28.315 28.608C28.4403 28.4962 28.5016 28.3373 28.6047 28.2493C28.6214 28.2613 28.6214 28.2813 28.601 28.3165C28.5815 28.3511 28.5555 28.3631 28.5442 28.3811C28.5231 28.4093 28.4604 28.4615 28.4434 28.4928C28.4284 28.5224 28.4089 28.5639 28.3542 28.5955C28.2998 28.628 28.3169 28.6797 28.3123 28.7014C28.308 28.7253 28.2242 28.7853 28.1837 28.8595C28.176 28.9368 28.1725 28.9043 28.1256 28.9318C28.211 28.8032 28.2559 28.7203 28.315 28.6079V28.608Z" stroke="black" stroke-width="0.0474562"/>
<path d="M29.0373 28.7749C29.0373 28.7749 28.8792 28.7607 28.8654 28.7607C28.8505 28.7607 28.7638 28.7488 28.6378 28.7488C28.513 28.7488 28.4662 28.7921 28.4334 28.8269C28.398 28.8659 28.2995 28.956 28.2995 28.956L28.3526 28.9513C28.4791 28.8528 28.5775 28.8889 28.6168 28.8861C28.6578 28.8846 28.7071 28.8887 28.8337 28.8439C28.9622 28.7988 28.9547 28.841 28.9406 28.8453C28.8792 28.8674 28.815 28.8804 28.7498 28.8838C28.6544 28.8891 28.5707 28.9075 28.5332 28.9075C28.4954 28.9075 28.217 28.9837 28.217 28.9837C28.217 28.9837 28.5183 29.0014 28.5508 29.0121C28.5831 29.0253 28.6337 29.0191 28.6756 28.999C28.791 28.9458 28.8432 28.9357 28.8906 28.9249C28.9383 28.9157 28.9952 28.8834 28.9952 28.8834C28.9952 28.8834 29.0257 28.8641 29.0537 28.8131C29.0827 28.7607 29.0372 28.7749 29.0372 28.7749H29.0373ZM29.1851 27.9495C29.2041 27.9023 29.2516 27.7916 29.302 27.748C29.3327 27.7212 29.3857 27.7087 29.4138 27.6969C29.4258 27.6928 29.5123 27.6886 29.4043 27.7183C29.3595 27.7303 29.2989 27.7567 29.272 27.8019C29.2342 27.9067 29.2012 27.9981 29.131 28.0651C29.0795 28.1192 29.0469 28.1896 29.0469 28.1896L28.9916 28.2087C29.0929 28.1467 29.1369 28.0317 29.1851 27.9495V27.9495ZM29.6748 27.8904C29.6171 27.9097 29.5969 27.9256 29.5969 27.9256C29.4678 27.9643 29.4149 28.0454 29.3584 28.1113C29.3297 28.1459 29.2893 28.1717 29.1531 28.2301C29.0286 28.2836 28.9324 28.3663 28.93 28.3663C28.93 28.3663 28.8906 28.3743 28.8981 28.3935C28.901 28.4026 28.9347 28.3953 28.9347 28.3953C28.9347 28.3953 29.1911 28.3587 29.298 28.2937C29.3662 28.2509 29.4048 28.2198 29.4695 28.1198C29.4985 28.0756 29.531 27.9925 29.5325 28.046C29.5375 28.1878 29.3171 28.3253 29.2212 28.3678C29.1698 28.3896 29.1014 28.3986 29.0118 28.4134C28.9233 28.4297 28.8694 28.4248 28.8759 28.4053C28.8849 28.3771 28.8952 28.3712 28.9186 28.3434C28.9608 28.2931 29.0626 28.2753 29.1377 28.2401C29.2264 28.2003 29.3105 28.1418 29.3526 28.0919C29.3957 28.0414 29.4106 28.0227 29.4223 27.98C29.4552 27.8683 29.4569 27.8065 29.4877 27.7666C29.596 27.6332 29.6118 27.5902 29.6171 27.5306C29.6183 27.5169 29.5609 27.5623 29.5311 27.5788C29.4727 27.6134 29.4511 27.6134 29.3316 27.6446C29.2103 27.6748 29.213 27.753 29.1941 27.7899C29.1886 27.8047 29.1394 27.8661 29.116 27.8774C29.0925 27.8893 29.0349 27.9727 29.0135 28.0216C28.9977 28.0573 28.9695 28.0829 28.947 28.08C28.9233 28.0756 28.9924 27.8172 29.0076 27.7745C29.024 27.7321 29.0273 27.6492 29.0273 27.6212C29.0273 27.5945 29.0282 27.5242 28.9814 27.5163C28.9347 27.5084 28.9326 27.444 28.9326 27.444C28.8205 27.5412 28.8831 27.7123 28.8952 27.8137C28.9072 27.9142 28.872 28.1003 28.872 28.1003C28.9803 28.1466 28.8952 28.2782 28.8615 28.3207C28.8261 28.3639 28.759 28.3718 28.7288 28.41C28.6969 28.4492 28.47 28.7652 28.47 28.7652L28.7523 28.6852C28.7523 28.6852 28.7786 28.6898 28.7364 28.6579C28.6937 28.6273 28.7502 28.5087 28.7865 28.4797C28.8559 28.4253 28.9497 28.4649 28.9497 28.4649C28.9497 28.4649 29.0806 28.485 29.2411 28.4212C29.3752 28.3684 29.4329 28.2826 29.4964 28.218C29.531 28.183 29.5942 28.0663 29.6341 27.9972C29.6581 27.9573 29.7012 27.8814 29.6747 27.8904" fill="#009B3A"/>
<path d="M29.6748 27.8904C29.6171 27.9097 29.5969 27.9256 29.5969 27.9256C29.4678 27.9643 29.4149 28.0454 29.3584 28.1113C29.3297 28.1459 29.2893 28.1717 29.1531 28.2301C29.0286 28.2836 28.9324 28.3663 28.93 28.3663C28.93 28.3663 28.8906 28.3743 28.8981 28.3935C28.901 28.4026 28.9347 28.3953 28.9347 28.3953C28.9347 28.3953 29.1911 28.3587 29.298 28.2937C29.3662 28.2509 29.4048 28.2198 29.4695 28.1198C29.4985 28.0756 29.531 27.9925 29.5325 28.046C29.5375 28.1878 29.3171 28.3253 29.2212 28.3678C29.1698 28.3896 29.1014 28.3986 29.0118 28.4134C28.9233 28.4297 28.8694 28.4248 28.8759 28.4053C28.8849 28.3771 28.8952 28.3712 28.9186 28.3434C28.9608 28.2931 29.0626 28.2753 29.1377 28.2401C29.2264 28.2003 29.3105 28.1418 29.3526 28.0919C29.3957 28.0414 29.4106 28.0227 29.4223 27.98C29.4552 27.8683 29.4569 27.8065 29.4877 27.7666C29.596 27.6332 29.6118 27.5902 29.6171 27.5306C29.6183 27.5169 29.5609 27.5623 29.5311 27.5788C29.4727 27.6134 29.4511 27.6134 29.3316 27.6446C29.2103 27.6748 29.213 27.753 29.1941 27.7899C29.1886 27.8047 29.1394 27.8661 29.116 27.8774C29.0925 27.8893 29.0349 27.9727 29.0135 28.0216C28.9977 28.0573 28.9695 28.0829 28.947 28.08C28.9233 28.0756 28.9924 27.8172 29.0076 27.7745C29.024 27.7321 29.0273 27.6492 29.0273 27.6212C29.0273 27.5945 29.0282 27.5242 28.9814 27.5163C28.9347 27.5084 28.9326 27.444 28.9326 27.444C28.8205 27.5412 28.8831 27.7123 28.8952 27.8137C28.9072 27.9142 28.872 28.1003 28.872 28.1003C28.9803 28.1466 28.8952 28.2782 28.8615 28.3207C28.8261 28.3639 28.759 28.3718 28.7288 28.41C28.6969 28.4492 28.47 28.7652 28.47 28.7652L28.7523 28.6852C28.7523 28.6852 28.7786 28.6898 28.7364 28.6579C28.6937 28.6273 28.7502 28.5087 28.7865 28.4797C28.8559 28.4253 28.9497 28.4649 28.9497 28.4649C28.9497 28.4649 29.0806 28.485 29.2411 28.4212C29.3752 28.3684 29.4329 28.2826 29.4964 28.218C29.531 28.183 29.5942 28.0663 29.6341 27.9972C29.6581 27.9573 29.7012 27.8814 29.6747 27.8904M29.0373 28.7749C29.0373 28.7749 28.8792 28.7607 28.8654 28.7607C28.8505 28.7607 28.7638 28.7488 28.6378 28.7488C28.513 28.7488 28.4662 28.7921 28.4334 28.8269C28.398 28.8659 28.2995 28.956 28.2995 28.956L28.3526 28.9513C28.4791 28.8528 28.5775 28.8889 28.6168 28.8861C28.6578 28.8846 28.7071 28.8887 28.8337 28.8439C28.9622 28.7988 28.9547 28.841 28.9406 28.8453C28.8792 28.8674 28.815 28.8804 28.7498 28.8838C28.6544 28.8891 28.5707 28.9075 28.5332 28.9075C28.4954 28.9075 28.217 28.9837 28.217 28.9837C28.217 28.9837 28.5183 29.0014 28.5508 29.0121C28.5831 29.0253 28.6337 29.0191 28.6756 28.999C28.791 28.9458 28.8432 28.9357 28.8906 28.9249C28.9383 28.9157 28.9952 28.8834 28.9952 28.8834C28.9952 28.8834 29.0257 28.8641 29.0537 28.8131C29.0827 28.7607 29.0372 28.7749 29.0372 28.7749H29.0373ZM29.1851 27.9495C29.2041 27.9023 29.2516 27.7916 29.302 27.748C29.3327 27.7212 29.3857 27.7087 29.4138 27.6969C29.4258 27.6928 29.5123 27.6886 29.4043 27.7183C29.3595 27.7303 29.2989 27.7567 29.272 27.8019C29.2342 27.9067 29.2012 27.9981 29.131 28.0651C29.0795 28.1192 29.0469 28.1896 29.0469 28.1896L28.9916 28.2087C29.0929 28.1467 29.1369 28.0317 29.1851 27.9495V27.9495Z" stroke="black" stroke-width="0.0450655"/>
<path d="M28.8744 28.6493C28.8959 28.6406 28.8991 28.6367 28.9386 28.5936C28.9775 28.5506 28.9432 28.4779 28.8831 28.4808C28.8537 28.4828 28.8224 28.476 28.7646 28.5537C28.7088 28.6316 28.7913 28.66 28.8227 28.6632C28.8361 28.664 28.8538 28.6581 28.8744 28.6493" fill="#009B3A"/>
<path d="M28.8744 28.6493C28.8959 28.6406 28.8991 28.6367 28.9386 28.5936C28.9775 28.5506 28.9432 28.4779 28.8831 28.4808C28.8537 28.4828 28.8224 28.476 28.7646 28.5537C28.7088 28.6316 28.7913 28.66 28.8227 28.6632C28.8361 28.664 28.8538 28.6581 28.8744 28.6493" stroke="black" stroke-width="0.0502056"/>
<path d="M28.7284 28.1573C28.691 28.2199 28.671 28.2917 28.7004 28.3139C28.707 28.3175 28.733 28.3404 28.755 28.3404C28.7767 28.3404 28.8381 28.311 28.8731 28.2569C28.9082 28.2046 28.9369 28.1471 28.8651 28.1113C28.8001 28.0791 28.7554 28.1093 28.7284 28.1572" fill="#009B3A"/>
<path d="M28.7284 28.1573C28.691 28.2199 28.671 28.2917 28.7004 28.3139C28.707 28.3175 28.733 28.3404 28.755 28.3404C28.7767 28.3404 28.8381 28.311 28.8731 28.2569C28.9082 28.2046 28.9369 28.1471 28.8651 28.1113C28.8001 28.0791 28.7554 28.1093 28.7284 28.1572" stroke="black" stroke-width="0.0512814"/>
<path d="M28.9419 27.3933C28.9419 27.3933 28.9478 27.3836 28.9232 27.3581C28.8842 27.3182 28.8355 27.2471 28.8355 27.2471C28.7579 27.2896 28.7321 27.3753 28.7321 27.4094C28.7321 27.4448 28.7452 27.5218 28.7333 27.6004C28.7291 27.6271 28.7248 27.6576 28.6864 27.7547C28.6471 27.8506 28.692 27.9387 28.7008 27.9698C28.7075 28.0006 28.7395 28.0965 28.7395 28.0965C28.7395 28.0965 28.7699 28.077 28.7801 28.0747C28.7921 28.0715 28.8334 28.0733 28.8334 28.0733C28.8334 28.0733 28.8802 27.9888 28.8819 27.9418C28.8828 27.9072 28.8773 27.8485 28.8608 27.7583C28.838 27.6272 28.8394 27.5898 28.855 27.5164C28.8705 27.442 28.9419 27.3931 28.9419 27.3931" fill="#009B3A"/>
<path d="M28.9419 27.3933C28.9419 27.3933 28.9478 27.3836 28.9232 27.3581C28.8842 27.3182 28.8355 27.2471 28.8355 27.2471C28.7579 27.2896 28.7321 27.3753 28.7321 27.4094C28.7321 27.4448 28.7452 27.5218 28.7333 27.6004C28.7291 27.6271 28.7248 27.6576 28.6864 27.7547C28.6471 27.8506 28.692 27.9387 28.7008 27.9698C28.7075 28.0006 28.7395 28.0965 28.7395 28.0965C28.7395 28.0965 28.7699 28.077 28.7801 28.0747C28.7921 28.0715 28.8334 28.0733 28.8334 28.0733C28.8334 28.0733 28.8802 27.9888 28.8819 27.9418C28.8828 27.9072 28.8773 27.8485 28.8608 27.7583C28.838 27.6272 28.8394 27.5898 28.855 27.5164C28.8705 27.442 28.9419 27.3931 28.9419 27.3931" stroke="black" stroke-width="0.0450655"/>
<path d="M29.0577 27.5242C29.0577 27.5242 29.1018 27.5136 29.1239 27.4737C29.1519 27.4255 29.1446 27.3744 29.1446 27.3744C29.0763 27.2421 28.9846 27.3489 28.9846 27.3489C28.9025 27.5168 29.0576 27.5242 29.0576 27.5242" fill="#009B3A"/>
<path d="M29.0577 27.5242C29.0577 27.5242 29.1018 27.5136 29.1239 27.4737C29.1519 27.4255 29.1446 27.3744 29.1446 27.3744C29.0763 27.2421 28.9846 27.3489 28.9846 27.3489C28.9025 27.5168 29.0576 27.5242 29.0576 27.5242" stroke="black" stroke-width="0.0494884"/>
<path d="M29.29 27.2817C29.1882 27.287 29.1381 27.47 29.1381 27.47C29.1381 27.47 29.1216 27.5153 29.0674 27.5502C29.0096 27.5859 29.0437 27.6372 29.0437 27.7283C29.0437 27.8194 28.9802 27.9806 28.9802 27.9806L28.9565 28.0352C28.9565 28.0352 28.9587 28.0762 28.9958 28.0017C29.0589 27.8764 29.1281 27.9069 29.1542 27.772C29.1707 27.6717 29.3367 27.6398 29.3367 27.6398L29.29 27.6311C29.1175 27.5502 29.3 27.3486 29.3295 27.3128C29.3608 27.2772 29.3906 27.2772 29.29 27.2817" fill="#009B3A"/>
<path d="M29.29 27.2817C29.1882 27.287 29.1381 27.47 29.1381 27.47C29.1381 27.47 29.1216 27.5153 29.0674 27.5502C29.0096 27.5859 29.0437 27.6372 29.0437 27.7283C29.0437 27.8194 28.9802 27.9806 28.9802 27.9806L28.9565 28.0352C28.9565 28.0352 28.9587 28.0762 28.9958 28.0017C29.0589 27.8764 29.1281 27.9069 29.1542 27.772C29.1707 27.6717 29.3367 27.6398 29.3367 27.6398L29.29 27.6311C29.1175 27.5502 29.3 27.3486 29.3295 27.3128C29.3608 27.2772 29.3906 27.2772 29.29 27.2817" stroke="black" stroke-width="0.0588123"/>
<path d="M29.261 27.4988C29.2144 27.5988 29.3471 27.6037 29.3777 27.5862C29.39 27.579 29.4181 27.5458 29.4181 27.5458C29.4719 27.4684 29.4227 27.4161 29.3946 27.4086C29.3676 27.3996 29.3099 27.3927 29.261 27.4988" fill="#009B3A"/>
<path d="M29.261 27.4988C29.2144 27.5988 29.3471 27.6037 29.3777 27.5862C29.39 27.579 29.4181 27.5458 29.4181 27.5458C29.4719 27.4684 29.4227 27.4161 29.3946 27.4086C29.3676 27.3996 29.3099 27.3927 29.261 27.4988" stroke="black" stroke-width="0.0500861"/>
<path d="M29.009 27.1108C29.0438 27.1757 29.141 27.3561 29.1639 27.3449C29.1782 27.3379 29.1669 27.3009 29.1669 27.3009C29.1669 27.3009 29.1639 27.2521 29.1481 27.193C29.1326 27.1335 29.1363 27.0573 29.1053 27.0085C29.0752 26.9597 29.0029 26.9018 28.9744 26.8248C28.9463 26.7475 28.9684 26.6012 28.9707 26.5832C28.9736 26.5664 28.9821 26.5774 28.9671 26.56C28.9519 26.541 28.829 26.4756 28.829 26.4756C28.829 26.4756 28.8362 26.5233 28.8332 26.6097C28.832 26.6306 28.8262 26.655 28.823 26.6914C28.8201 26.726 28.8409 26.7695 28.8913 26.869C28.9498 26.9841 28.9779 27.0547 29.009 27.1108V27.1108ZM29.7463 26.2523C29.7463 26.2523 29.7108 26.3114 29.6982 26.3244C29.6851 26.3376 29.4848 26.5097 29.4734 26.5169C29.4637 26.5245 29.3591 26.5579 29.2639 26.8151C29.1685 27.0715 29.2098 27.3113 29.2098 27.3113L29.256 27.3056L29.2639 27.2805C29.2639 27.2805 29.2795 27.1954 29.2914 27.1308C29.3047 27.0672 29.3761 26.9782 29.4234 26.9125C29.4686 26.8482 29.505 26.7559 29.505 26.7559C29.5587 26.6477 29.5845 26.551 29.6377 26.4756C29.6398 26.5654 29.2984 27.1176 29.2618 27.3055L29.363 27.2901C29.4437 27.2163 29.5494 27.0613 29.621 26.9614C29.6929 26.8611 29.7235 26.7044 29.7366 26.6349C29.7492 26.5663 29.7463 26.2524 29.7463 26.2524" fill="#009B3A"/>
<path d="M29.7463 26.2523C29.7463 26.2523 29.7108 26.3114 29.6982 26.3244C29.6851 26.3376 29.4848 26.5097 29.4734 26.5169C29.4637 26.5245 29.3591 26.5579 29.2639 26.8151C29.1685 27.0715 29.2098 27.3113 29.2098 27.3113L29.256 27.3056L29.2639 27.2805C29.2639 27.2805 29.2795 27.1954 29.2914 27.1308C29.3047 27.0672 29.3761 26.9782 29.4234 26.9125C29.4686 26.8482 29.505 26.7559 29.505 26.7559C29.5587 26.6477 29.5845 26.551 29.6377 26.4756C29.6398 26.5654 29.2984 27.1176 29.2618 27.3055L29.363 27.2901C29.4437 27.2163 29.5494 27.0613 29.621 26.9614C29.6929 26.8611 29.7235 26.7044 29.7366 26.6349C29.7492 26.5663 29.7463 26.2524 29.7463 26.2524M29.009 27.1108C29.0438 27.1757 29.141 27.3561 29.1639 27.3449C29.1782 27.3379 29.1669 27.3009 29.1669 27.3009C29.1669 27.3009 29.1639 27.2521 29.1481 27.193C29.1326 27.1335 29.1363 27.0573 29.1053 27.0085C29.0752 26.9597 29.0029 26.9018 28.9744 26.8248C28.9463 26.7475 28.9684 26.6012 28.9707 26.5832C28.9736 26.5664 28.9821 26.5774 28.9671 26.56C28.9519 26.541 28.829 26.4756 28.829 26.4756C28.829 26.4756 28.8362 26.5233 28.8332 26.6097C28.832 26.6306 28.8262 26.655 28.823 26.6914C28.8201 26.726 28.8409 26.7695 28.8913 26.869C28.9498 26.9841 28.9779 27.0547 29.009 27.1108V27.1108Z" stroke="black" stroke-width="0.0450655"/>
<path d="M29.0656 26.3092C29.014 26.2615 28.9739 26.2472 28.9739 26.2472C28.9739 26.2472 28.9862 26.3408 28.9862 26.3978C28.9862 26.455 28.9913 26.551 28.9883 26.6022C28.9862 26.6533 28.9608 26.7379 28.9971 26.8207C29.0343 26.9024 29.0761 26.944 29.1057 26.9954C29.1327 27.0458 29.1821 27.3073 29.1821 27.3073C29.1821 27.3073 29.164 26.9537 29.1795 26.8536C29.1939 26.7554 29.1986 26.6022 29.1767 26.5254C29.1538 26.4483 29.1159 26.358 29.0656 26.3092V26.3092ZM29.3013 25.964C29.3168 25.9337 29.3532 25.8712 29.3684 25.7761C29.3739 25.7358 29.3777 25.6703 29.3762 25.625C29.3751 25.5947 29.3631 25.5422 29.3762 25.5386C29.388 25.5358 29.3782 25.555 29.3848 25.5999C29.3881 25.6158 29.3771 25.6601 29.375 25.7168C29.3724 25.7621 29.3706 25.8 29.3504 25.8613C29.3328 25.9153 29.3487 25.9753 29.3379 25.9922C29.3262 26.0093 29.2951 26.0741 29.2951 26.0741C29.2951 26.0741 29.2761 26.1265 29.2794 26.1741C29.2811 26.2229 29.284 26.2756 29.284 26.2756C29.284 26.2756 29.3066 26.2338 29.3569 26.2268C29.3569 26.2268 29.3684 26.145 29.3684 26.1195C29.3684 26.0938 29.4012 25.9264 29.4178 25.8753C29.4407 25.8003 29.4568 25.6698 29.4205 25.5183C29.4105 25.4773 29.4032 25.3491 29.4032 25.3491C29.4032 25.3491 29.3549 25.3878 29.3262 25.534C29.3174 25.5785 29.3361 25.6976 29.3288 25.8247C29.3259 25.8947 29.2587 26.1787 29.2496 26.1965" fill="#009B3A"/>
<path d="M29.3013 25.964C29.3168 25.9337 29.3532 25.8712 29.3684 25.7761C29.3739 25.7358 29.3777 25.6703 29.3762 25.625C29.3751 25.5947 29.3631 25.5422 29.3762 25.5386C29.388 25.5358 29.3782 25.555 29.3848 25.5999C29.3881 25.6158 29.3771 25.6601 29.375 25.7168C29.3724 25.7621 29.3706 25.8 29.3504 25.8613C29.3328 25.9153 29.3487 25.9753 29.3379 25.9922C29.3262 26.0093 29.2951 26.0741 29.2951 26.0741C29.2951 26.0741 29.2761 26.1265 29.2794 26.1741C29.2811 26.2229 29.284 26.2756 29.284 26.2756C29.284 26.2756 29.3066 26.2338 29.3569 26.2268C29.3569 26.2268 29.3684 26.145 29.3684 26.1195C29.3684 26.0938 29.4012 25.9264 29.4178 25.8753C29.4407 25.8003 29.4568 25.6698 29.4205 25.5183C29.4105 25.4773 29.4032 25.3491 29.4032 25.3491C29.4032 25.3491 29.3549 25.3878 29.3262 25.534C29.3174 25.5785 29.3361 25.6976 29.3288 25.8247C29.3259 25.8947 29.2587 26.1787 29.2496 26.1965M29.0656 26.3092C29.014 26.2615 28.9739 26.2472 28.9739 26.2472C28.9739 26.2472 28.9862 26.3408 28.9862 26.3978C28.9862 26.455 28.9913 26.551 28.9883 26.6022C28.9862 26.6533 28.9608 26.7379 28.9971 26.8207C29.0343 26.9024 29.0761 26.944 29.1057 26.9954C29.1327 27.0458 29.1821 27.3073 29.1821 27.3073C29.1821 27.3073 29.164 26.9537 29.1795 26.8536C29.1939 26.7554 29.1986 26.6022 29.1767 26.5254C29.1538 26.4483 29.1159 26.358 29.0656 26.3092V26.3092Z" stroke="black" stroke-width="0.0450655"/>
<path d="M29.3013 25.964C29.2989 25.9683 29.298 25.9701 29.298 25.9701C29.298 25.9701 29.3001 25.9683 29.3013 25.964Z" fill="#009B3A" stroke="black" stroke-width="0.0450655"/>
<path d="M29.1108 25.227C29.1366 25.227 29.1366 25.2549 29.1313 25.2769C29.1273 25.2996 29.1279 25.3418 29.1279 25.3504C29.1279 25.3604 29.1386 25.4205 29.1472 25.4519C29.1565 25.4842 29.1727 25.4944 29.1656 25.5591C29.1608 25.5999 29.119 25.6478 29.1337 25.717C29.1416 25.7534 29.1677 25.7915 29.1806 25.8228C29.1913 25.8446 29.1855 25.8979 29.1885 25.9415C29.1896 25.9839 29.213 26.0126 29.213 26.0126C29.213 26.0126 29.184 26.0668 29.1744 25.999C29.1638 25.9213 29.1603 25.8868 29.1454 25.8517C29.1211 25.794 29.0988 25.6905 29.1366 25.6106C29.143 25.5952 29.1481 25.5665 29.1481 25.5324C29.1481 25.4978 29.1268 25.4387 29.1227 25.4021C29.1191 25.373 29.1215 25.3117 29.1215 25.2895L29.1108 25.227ZM28.9861 25.6147C28.9922 25.6585 29.0063 25.6835 29.0558 25.7789C29.071 25.8104 29.1056 25.8906 29.1108 25.9161C29.117 25.9417 29.1223 25.9726 29.1223 25.9804C29.1223 25.9888 29.1279 26.049 29.1279 26.049V26.074C29.1279 26.074 28.9907 25.9941 28.9307 25.9513C28.871 25.9083 28.8031 25.8493 28.7597 25.8136C28.7105 25.7731 28.5933 25.6342 28.5918 25.5229L28.538 25.474C28.538 25.474 28.4969 25.7214 28.6908 25.8815C28.7468 25.9274 28.8077 25.9781 28.938 26.0371C29.0687 26.0973 29.0515 26.1512 29.106 26.2669C29.1596 26.3831 29.1932 26.45 29.1999 26.4829C29.2046 26.518 29.1851 27.0122 29.1851 27.0122L29.1897 27.0571C29.1897 27.0571 29.3091 26.5992 29.3665 26.5481C29.3665 26.5481 29.2527 26.5306 29.2617 26.3516L29.2417 26.2336C29.2417 26.2336 29.2189 26.0917 29.2617 26.0036C29.2617 26.0036 29.3124 25.8423 29.2951 25.7028C29.2843 25.6193 29.2804 25.5944 29.2702 25.5144C29.2547 25.3899 29.2048 25.2121 29.1993 25.1906C29.1822 25.1281 29.1764 25.1185 29.1565 25.0691C29.1506 25.0517 29.1395 24.994 29.1211 24.9932C29.1105 24.9926 29.0944 25.0673 29.0944 25.0673C29.0944 25.0673 29.0705 25.1487 29.0655 25.1708C29.0499 25.2365 29.0136 25.2917 28.997 25.4394C28.994 25.4661 28.991 25.5382 28.9878 25.5479C28.9861 25.556 28.9826 25.5984 28.9861 25.6147" fill="#009B3A"/>
<path d="M28.9861 25.6147C28.9922 25.6585 29.0063 25.6835 29.0558 25.7789C29.071 25.8104 29.1056 25.8906 29.1108 25.9161C29.117 25.9417 29.1223 25.9726 29.1223 25.9804C29.1223 25.9888 29.1279 26.049 29.1279 26.049V26.074C29.1279 26.074 28.9907 25.9941 28.9307 25.9513C28.871 25.9083 28.8031 25.8493 28.7597 25.8136C28.7105 25.7731 28.5933 25.6342 28.5918 25.5229L28.538 25.474C28.538 25.474 28.4969 25.7214 28.6908 25.8815C28.7468 25.9274 28.8077 25.9781 28.938 26.0371C29.0687 26.0973 29.0515 26.1512 29.106 26.2669C29.1596 26.3831 29.1932 26.45 29.1999 26.4829C29.2046 26.518 29.1851 27.0122 29.1851 27.0122L29.1897 27.0571C29.1897 27.0571 29.3091 26.5992 29.3665 26.5481C29.3665 26.5481 29.2527 26.5306 29.2617 26.3516L29.2417 26.2336C29.2417 26.2336 29.2189 26.0917 29.2617 26.0036C29.2617 26.0036 29.3124 25.8423 29.2951 25.7028C29.2843 25.6193 29.2804 25.5944 29.2702 25.5144C29.2547 25.3899 29.2048 25.2121 29.1993 25.1906C29.1822 25.1281 29.1764 25.1185 29.1565 25.0691C29.1506 25.0517 29.1395 24.994 29.1211 24.9932C29.1105 24.9926 29.0944 25.0673 29.0944 25.0673C29.0944 25.0673 29.0705 25.1487 29.0655 25.1708C29.0499 25.2365 29.0136 25.2917 28.997 25.4394C28.994 25.4661 28.991 25.5382 28.9878 25.5479C28.9861 25.556 28.9826 25.5984 28.9861 25.6147M29.1108 25.227C29.1366 25.227 29.1366 25.2549 29.1313 25.2769C29.1273 25.2996 29.1279 25.3418 29.1279 25.3504C29.1279 25.3604 29.1386 25.4205 29.1472 25.4519C29.1565 25.4842 29.1727 25.4944 29.1656 25.5591C29.1608 25.5999 29.119 25.6478 29.1337 25.717C29.1416 25.7534 29.1677 25.7915 29.1806 25.8228C29.1913 25.8446 29.1855 25.8979 29.1885 25.9415C29.1896 25.9839 29.213 26.0126 29.213 26.0126C29.213 26.0126 29.184 26.0668 29.1744 25.999C29.1638 25.9213 29.1603 25.8868 29.1454 25.8517C29.1211 25.794 29.0988 25.6905 29.1366 25.6106C29.143 25.5952 29.1481 25.5665 29.1481 25.5324C29.1481 25.4978 29.1268 25.4387 29.1227 25.4021C29.1191 25.373 29.1215 25.3117 29.1215 25.2895L29.1108 25.227Z" stroke="black" stroke-width="0.0450655"/>
<path d="M29.0879 26.2393C29.0879 26.2393 29.068 26.1951 29.0477 26.1724C29.0071 26.1245 28.9523 26.0838 28.7965 26.0077C28.6413 25.9303 28.6003 25.8032 28.5212 25.7509C28.4849 25.7259 28.4146 25.714 28.4146 25.714C28.4146 25.714 28.4837 25.8091 28.5001 25.8419C28.5212 25.8838 28.5262 25.9123 28.6117 25.9919C28.6966 26.0719 28.8003 26.0998 28.8671 26.1196C28.9614 26.1489 29.0879 26.2394 29.0879 26.2394V26.2393ZM28.5987 25.5047C28.6029 25.5173 28.6429 25.6539 28.727 25.76C28.8555 25.9225 29.103 26.0386 29.103 26.0386C29.0798 25.9374 29.0395 25.8205 29.0076 25.7688C28.895 25.5871 28.5979 25.498 28.5979 25.498C28.5979 25.498 28.5926 25.4911 28.5987 25.5047V25.5047ZM28.9535 25.5813C29.0201 25.4355 28.8213 25.2962 28.7652 25.1946C28.786 25.1781 28.8106 25.2214 28.8333 25.2502C28.8659 25.2935 28.9576 25.4188 28.9576 25.4188L28.986 25.2854L28.7493 25.0699C28.7464 25.1013 28.6732 25.127 28.6732 25.127C28.6378 25.3264 28.9535 25.5813 28.9535 25.5813" fill="#009B3A"/>
<path d="M28.9535 25.5813C29.0201 25.4355 28.8213 25.2962 28.7652 25.1946C28.786 25.1781 28.8106 25.2214 28.8333 25.2502C28.8659 25.2935 28.9576 25.4188 28.9576 25.4188L28.986 25.2854L28.7493 25.0699C28.7464 25.1013 28.6732 25.127 28.6732 25.127C28.6378 25.3264 28.9535 25.5813 28.9535 25.5813M29.0879 26.2393C29.0879 26.2393 29.068 26.1951 29.0477 26.1724C29.0071 26.1245 28.9523 26.0838 28.7965 26.0077C28.6413 25.9303 28.6003 25.8032 28.5212 25.7509C28.4849 25.7259 28.4146 25.714 28.4146 25.714C28.4146 25.714 28.4837 25.8091 28.5001 25.8419C28.5212 25.8838 28.5262 25.9123 28.6117 25.9919C28.6966 26.0719 28.8003 26.0998 28.8671 26.1196C28.9614 26.1489 29.0879 26.2394 29.0879 26.2394V26.2393ZM28.5987 25.5047C28.6029 25.5173 28.6429 25.6539 28.727 25.76C28.8555 25.9225 29.103 26.0386 29.103 26.0386C29.0798 25.9374 29.0395 25.8205 29.0076 25.7688C28.895 25.5871 28.5979 25.498 28.5979 25.498C28.5979 25.498 28.5926 25.4911 28.5987 25.5047V25.5047Z" stroke="black" stroke-width="0.0450655"/>
<path d="M28.5413 25.2434C28.4842 25.269 28.4639 25.269 28.4639 25.269L28.4958 25.3535L28.5143 25.3764C28.5143 25.3764 28.5887 25.484 28.632 25.4974C28.6501 25.5041 28.7178 25.5159 28.7858 25.5451C28.8713 25.5814 29.0108 25.7034 29.0108 25.7034C29.0108 25.7034 28.7787 25.4417 28.6897 25.2454L28.6597 25.1323L28.5755 25.1379C28.5755 25.1379 28.5986 25.2173 28.5413 25.2435" fill="#009B3A"/>
<path d="M28.5413 25.2434C28.4842 25.269 28.4639 25.269 28.4639 25.269L28.4958 25.3535L28.5143 25.3764C28.5143 25.3764 28.5887 25.484 28.632 25.4974C28.6501 25.5041 28.7178 25.5159 28.7858 25.5451C28.8713 25.5814 29.0108 25.7034 29.0108 25.7034C29.0108 25.7034 28.7787 25.4417 28.6897 25.2454L28.6597 25.1323L28.5755 25.1379C28.5755 25.1379 28.5986 25.2173 28.5413 25.2435" stroke="black" stroke-width="0.0450655"/>
<path d="M27.6725 25.076C27.7115 25.1111 27.7538 25.1425 27.7987 25.1696C27.8499 25.2004 27.9976 25.2873 28.108 25.3083C28.1338 25.3123 28.2725 25.3298 28.2725 25.3298C28.278 25.269 28.344 25.2637 28.344 25.2637L28.1475 25.2422C27.9891 25.2305 27.8685 25.1643 27.7747 25.0582C27.9005 25.1346 28.0815 25.2548 28.2282 25.2483C28.8304 25.1891 28.0467 25.1742 27.9788 25.1306C27.9067 25.0861 27.8453 25.0123 27.8453 25.0123L27.6687 25.0044C27.6687 25.0044 27.5819 24.9989 27.6725 25.076" fill="#009B3A"/>
<path d="M27.6725 25.076C27.7115 25.1111 27.7538 25.1425 27.7987 25.1696C27.8499 25.2004 27.9976 25.2873 28.108 25.3083C28.1338 25.3123 28.2725 25.3298 28.2725 25.3298C28.278 25.269 28.344 25.2637 28.344 25.2637L28.1475 25.2422C27.9891 25.2305 27.8685 25.1643 27.7747 25.0582C27.9005 25.1346 28.0815 25.2548 28.2282 25.2483C28.8304 25.1891 28.0467 25.1742 27.9788 25.1306C27.9067 25.0861 27.8453 25.0123 27.8453 25.0123L27.6687 25.0044C27.6687 25.0044 27.5819 24.9989 27.6725 25.076" stroke="black" stroke-width="0.0450655"/>
<path d="M28.3814 25.4189C28.4204 25.416 28.4476 25.4087 28.4564 25.3661C28.4643 25.3184 28.4462 25.2838 28.3888 25.2712C28.3568 25.2633 28.3009 25.2616 28.2781 25.3184C28.2532 25.3765 28.3436 25.4138 28.3436 25.4138C28.3436 25.4138 28.3609 25.4213 28.3814 25.4189ZM28.4489 25.0737C28.398 25.0737 28.3807 25.1153 28.3916 25.1963C28.405 25.2781 28.5301 25.2423 28.5301 25.2423L28.5532 25.2304C28.5532 25.2304 28.5702 25.2172 28.5608 25.1522C28.552 25.0856 28.5002 25.0737 28.4489 25.0737H28.4489ZM28.6537 25.131H28.6517C28.6507 25.1316 28.6537 25.131 28.6537 25.131Z" fill="#009B3A" stroke="black" stroke-width="0.0450655"/>
<path d="M28.6518 25.131C28.6532 25.1304 28.6567 25.1286 28.6699 25.1249C28.6959 25.1151 28.7223 25.0525 28.7223 25.0525C28.7355 24.968 28.675 24.9471 28.675 24.9471C28.5729 24.9267 28.5703 25.0162 28.5703 25.0162C28.5422 25.1328 28.6368 25.1316 28.6517 25.131L28.6518 25.131ZM28.1978 24.7307C28.2034 24.7694 28.2584 24.8255 28.267 24.8351C28.2769 24.8438 28.3473 24.9171 28.371 24.9499C28.3947 24.9828 28.4735 25.1317 28.4735 25.1317C28.4735 25.1317 28.4873 25.1295 28.4931 25.1181C28.5069 25.0949 28.4403 24.9144 28.4336 24.902C28.4092 24.8472 28.3694 24.8063 28.3293 24.7636C28.32 24.7575 28.2871 24.7153 28.2511 24.67C28.3224 24.7612 28.5052 25.0206 28.559 25.1359C28.559 25.1359 28.5525 25.013 28.5457 24.947C28.523 24.7545 28.4728 24.695 28.4567 24.6671C28.4284 24.6151 28.3563 24.5645 28.3047 24.5467C28.2532 24.5281 28.1923 24.5025 28.127 24.4816C28.0596 24.461 28.1115 24.5217 28.1363 24.5741C28.1674 24.636 28.1923 24.6915 28.1979 24.7308" fill="#009B3A"/>
<path d="M28.1978 24.7307C28.2034 24.7694 28.2584 24.8255 28.267 24.8351C28.2769 24.8438 28.3473 24.9171 28.371 24.9499C28.3947 24.9828 28.4735 25.1317 28.4735 25.1317C28.4735 25.1317 28.4873 25.1295 28.4931 25.1181C28.5069 25.0949 28.4403 24.9144 28.4336 24.902C28.4092 24.8472 28.3694 24.8063 28.3293 24.7636C28.32 24.7575 28.2871 24.7153 28.2511 24.67C28.3224 24.7612 28.5052 25.0206 28.559 25.1359C28.559 25.1359 28.5525 25.013 28.5457 24.947C28.523 24.7545 28.4728 24.695 28.4567 24.6671C28.4284 24.6151 28.3563 24.5645 28.3047 24.5467C28.2532 24.5281 28.1923 24.5025 28.127 24.4816C28.0596 24.461 28.1115 24.5217 28.1363 24.5741C28.1674 24.636 28.1923 24.6915 28.1979 24.7308M28.6518 25.131C28.6532 25.1304 28.6567 25.1286 28.6699 25.1249C28.6959 25.1151 28.7223 25.0525 28.7223 25.0525C28.7355 24.968 28.675 24.9471 28.675 24.9471C28.5729 24.9267 28.5703 25.0162 28.5703 25.0162C28.5422 25.1328 28.6368 25.1316 28.6517 25.131L28.6518 25.131Z" stroke="black" stroke-width="0.0450655"/>
<path d="M27.9465 25.0473C28.013 25.1037 28.0428 25.1429 28.1807 25.1633C28.3198 25.1851 28.3315 25.1758 28.3315 25.1758C28.3315 25.1758 28.4037 25.141 28.367 25.1104C28.1626 25.0205 27.9691 24.9135 27.8708 24.7932C27.8708 24.7932 27.8879 24.7767 27.9587 24.8476C27.9998 24.8892 28.0273 24.9101 28.0525 24.9296C28.1268 24.9816 28.1591 24.9964 28.2332 25.0368C28.2727 25.0584 28.3714 25.0816 28.3714 25.0816C28.3714 25.0816 28.3855 25.0517 28.398 25.0481C28.4101 25.0453 28.3904 24.9984 28.3046 24.9289C28.2568 24.8894 28.2147 24.8436 28.1793 24.7928C28.1793 24.7928 28.0776 24.7706 27.9676 24.7522C27.8855 24.7392 27.7312 24.6194 27.7339 24.6519C27.7367 24.6854 27.757 24.7892 27.7986 24.8552C27.8404 24.9214 27.8803 24.9892 27.9465 25.0474" fill="#009B3A"/>
<path d="M27.9465 25.0473C28.013 25.1037 28.0428 25.1429 28.1807 25.1633C28.3198 25.1851 28.3315 25.1758 28.3315 25.1758C28.3315 25.1758 28.4037 25.141 28.367 25.1104C28.1626 25.0205 27.9691 24.9135 27.8708 24.7932C27.8708 24.7932 27.8879 24.7767 27.9587 24.8476C27.9998 24.8892 28.0273 24.9101 28.0525 24.9296C28.1268 24.9816 28.1591 24.9964 28.2332 25.0368C28.2727 25.0584 28.3714 25.0816 28.3714 25.0816C28.3714 25.0816 28.3855 25.0517 28.398 25.0481C28.4101 25.0453 28.3904 24.9984 28.3046 24.9289C28.2568 24.8894 28.2147 24.8436 28.1793 24.7928C28.1793 24.7928 28.0776 24.7706 27.9676 24.7522C27.8855 24.7392 27.7312 24.6194 27.7339 24.6519C27.7367 24.6854 27.757 24.7892 27.7986 24.8552C27.8404 24.9214 27.8803 24.9892 27.9465 25.0474" stroke="black" stroke-width="0.0450655"/>
<path d="M26.7974 29.2063C26.7371 29.224 26.285 29.3938 26.285 29.3938L26.1588 29.4443C26.3331 29.4051 26.4666 29.4929 26.4666 29.4929L26.9702 29.2598C26.9702 29.2598 26.9687 29.2522 26.9562 29.2432C26.943 29.2342 26.8583 29.1879 26.7974 29.2063" fill="#009B3A"/>
<path d="M26.7974 29.2063C26.7371 29.224 26.285 29.3938 26.285 29.3938L26.1588 29.4443C26.3331 29.4051 26.4666 29.4929 26.4666 29.4929L26.9702 29.2598C26.9702 29.2598 26.9687 29.2522 26.9562 29.2432C26.943 29.2342 26.8583 29.1879 26.7974 29.2063" stroke="black" stroke-width="0.0359807"/>
<path d="M26.1398 29.4596C26.1364 29.4625 26.133 29.4745 26.1418 29.4783C26.1669 29.4922 26.1602 29.4977 26.2743 29.5114C26.3893 29.5239 26.4643 29.5021 26.484 29.4803C26.5071 29.455 26.199 29.4079 26.1397 29.4596" fill="#009B3A"/>
<path d="M26.1398 29.4596C26.1364 29.4625 26.133 29.4745 26.1418 29.4783C26.1669 29.4922 26.1602 29.4977 26.2743 29.5114C26.3893 29.5239 26.4643 29.5021 26.484 29.4803C26.5071 29.455 26.199 29.4079 26.1397 29.4596" stroke="black" stroke-width="0.038491"/>
<path d="M25.4164 27.8334L25.3954 27.6921C25.3954 27.6921 25.3691 27.3101 25.3258 27.2335C25.3174 27.2165 25.3212 27.1768 25.2937 27.1761C25.2409 27.1722 25.2409 27.2965 25.2345 27.4091C25.1488 27.9769 25.6017 28.4104 25.6017 28.4104L25.4164 27.8334Z" fill="#009B3A" stroke="black" stroke-width="0.0499665"/>
<path d="M27.6574 29.5158C27.6574 29.5158 27.6099 29.5052 27.64 29.4681C27.6688 29.4328 27.7544 29.4139 27.7716 29.4139C27.7884 29.4132 27.8365 29.4174 27.8722 29.4274C27.9083 29.4363 27.9582 29.4681 27.9436 29.4911C27.9284 29.5131 27.8796 29.5405 27.8129 29.5405C27.7557 29.5405 27.7264 29.539 27.7012 29.5319C27.6768 29.5226 27.6574 29.5158 27.6574 29.5158" fill="#009B3A"/>
<path d="M27.6574 29.5158C27.6574 29.5158 27.6099 29.5052 27.64 29.4681C27.6688 29.4328 27.7544 29.4139 27.7716 29.4139C27.7884 29.4132 27.8365 29.4174 27.8722 29.4274C27.9083 29.4363 27.9582 29.4681 27.9436 29.4911C27.9284 29.5131 27.8796 29.5405 27.8129 29.5405C27.7557 29.5405 27.7264 29.539 27.7012 29.5319C27.6768 29.5226 27.6574 29.5158 27.6574 29.5158" stroke="black" stroke-width="0.0460218"/>
<path d="M27.1665 29.2456C27.1665 29.2456 27.011 29.1741 26.8637 29.1021C26.6694 29.0072 26.436 28.8755 26.2735 28.6339C26.07 28.3349 25.893 28.1747 25.8503 28.1425C25.8063 28.1102 25.8 28.0982 25.7838 28.121C25.7692 28.1407 25.7794 28.1578 25.7917 28.1787C25.8336 28.2468 25.9364 28.3747 25.9733 28.4433C26.0368 28.566 26.1684 28.6999 26.1672 28.7794C26.1672 28.7904 26.1288 28.7715 26.1288 28.7715C26.1288 28.7715 25.821 28.666 25.6963 28.2931C25.6055 28.0227 25.6441 27.9433 25.623 27.8082C25.587 27.568 25.5797 27.5485 25.4608 27.2794C25.4576 27.2727 25.3881 27.1602 25.3788 27.1852C25.3659 27.2174 25.3905 27.3378 25.3905 27.3378L25.4031 27.4765C25.4031 27.4765 25.3931 27.7843 25.3931 27.8029C25.3931 27.8216 25.3156 28.0137 25.6449 28.3367C25.6449 28.3367 25.65 28.3915 25.6057 28.3432C25.5744 28.3087 25.3386 28.1276 25.2669 27.8297C25.193 27.5317 25.1823 27.2334 25.2382 27.1096C25.2888 26.9977 25.3905 26.7241 25.3472 26.4851C25.3422 26.4602 25.3351 26.3869 25.3193 26.4061C25.3126 26.4155 25.283 26.5364 25.2651 26.5783C25.2402 26.6355 25.2016 26.6918 25.1896 26.7314C25.1664 26.7985 25.0528 26.9023 25.0751 27.0933C25.1002 27.3128 25.1146 27.3471 25.141 27.4253C25.15 27.4538 25.1721 27.5264 25.1577 27.5337C25.1445 27.5407 25.0979 27.4468 25.0979 27.4468C25.0979 27.4468 24.8893 27.0369 25.018 26.7044C25.148 26.3733 25.4742 26.0593 25.4742 26.0593C25.4742 26.0593 25.7393 25.8395 25.7932 25.7884C25.8143 25.7686 25.8093 25.7538 25.8023 25.7561C25.7364 25.7727 25.2264 25.8782 25.0473 26.4857C25.0473 26.4857 25.0379 26.5113 25.0247 26.505C25.0083 26.4976 25.0247 26.4691 25.0247 26.4691C25.0247 26.4691 25.1369 26.0384 25.4516 25.8431C25.7952 25.6288 25.7549 25.6602 25.8685 25.5927C25.94 25.5483 26.0046 25.4887 26.0846 25.3564C26.0928 25.3417 26.1252 25.2646 26.1209 25.2515C26.1174 25.2384 26.1019 25.2564 26.0946 25.2782C26.0946 25.2782 25.9973 25.4285 25.8517 25.4791C25.7057 25.5297 25.587 25.4575 25.4403 25.6198C25.2933 25.7829 25.1764 26.0087 25.1764 26.0087C25.1764 26.0087 25.138 26.0672 25.1296 26.0654C25.1134 26.0605 25.1374 26.0032 25.1374 26.0032C25.1374 26.0032 25.3337 25.5869 25.4913 25.5024C25.6491 25.4171 25.7896 25.3354 25.8793 25.2663C25.9883 25.1808 26.176 24.9716 26.2436 24.8995C26.258 24.8841 26.3588 24.782 26.381 24.7489C26.3944 24.7308 26.4264 24.7046 26.4212 24.7001C26.4068 24.6893 26.3112 24.7352 26.3112 24.7352C26.3112 24.7352 25.7916 24.8784 25.4683 25.3668C25.4533 25.3895 25.4178 25.4356 25.3987 25.455C25.3641 25.4908 25.3469 25.5505 25.3469 25.5505C25.3258 25.533 25.5296 25.2782 25.5296 25.2782L25.5653 25.1134C25.5653 25.1134 25.6257 24.8658 25.7525 24.691C25.7651 24.6751 25.84 24.5994 25.8527 24.5837C25.8778 24.5565 25.8049 24.6076 25.8178 24.5962C25.8178 24.5962 25.3331 24.9442 25.3331 25.3826C25.3331 25.4613 25.2842 25.5332 25.2165 25.6311C25.1374 25.7448 25.1111 25.8146 25.0768 25.9837C25.0626 26.0549 25.0477 26.1259 25.0323 26.1968C25.0323 26.1968 25.037 26.2593 25.0168 26.2547C24.9957 26.25 25.003 26.1983 25.003 26.1983C25.003 26.1983 25.0525 25.8715 25.0877 25.7709C25.1219 25.6733 25.1444 25.6067 25.1444 25.6067C25.1444 25.6067 25.1242 25.3611 25.1787 25.2264C25.225 25.109 25.3422 24.9544 25.3603 24.9157C25.3682 24.8989 25.4224 24.7887 25.4376 24.6632C25.4397 24.6463 25.4265 24.6603 25.4046 24.7093C25.3512 24.8294 25.3067 24.8608 25.2191 24.9738C25.2191 24.9738 24.9945 25.1366 24.9131 25.6209C24.9131 25.6209 24.9104 25.8014 24.883 26.0843C24.8631 26.2916 24.88 26.4857 24.9035 26.6027C24.9184 26.6741 24.9468 26.6747 24.9293 26.6834C24.9183 26.689 24.9362 26.6844 24.9107 26.6303C24.8797 26.5655 24.8559 26.4657 24.8559 26.3279C24.8559 26.0753 24.8778 25.8725 24.8778 25.8725C24.8778 25.8725 24.8943 25.4642 24.725 25.2802C24.7169 25.2706 24.7547 25.3628 24.7717 25.4547C24.7925 25.5687 24.7547 25.7268 24.7436 25.7884C24.7328 25.8503 24.6199 26.1201 24.6598 26.3733C24.6598 26.3733 24.7552 26.8026 24.8782 27.0108C24.8782 27.0108 24.9547 27.1004 24.8871 27.0164C24.82 26.9323 24.6823 26.5982 24.6704 26.5698C24.6598 26.5425 24.5611 26.3345 24.4682 26.25C24.4202 26.2052 24.2881 26.1259 24.2881 26.1259C24.2881 26.1259 24.2164 26.0712 24.2708 26.1439C24.3138 26.2012 24.3716 26.304 24.3991 26.3489C24.4563 26.4414 24.5072 26.5377 24.5514 26.6371C24.5956 26.7343 24.6984 27.0201 24.6984 27.0201L24.7642 27.2013C24.7642 27.2013 24.8745 27.2625 24.9345 27.3293C24.9837 27.3834 25.0856 27.5075 25.1703 27.7285C25.2083 27.8262 25.2843 27.9156 25.2843 27.9156C25.2843 27.9156 25.2682 27.9467 25.2005 27.8296C25.1338 27.7109 25.0684 27.4883 24.9076 27.3152C24.7855 27.1822 24.4568 27.0483 24.4568 27.0483C24.4568 27.0483 24.668 27.4163 24.7204 27.482C24.8091 27.5872 24.9374 27.7348 24.9705 27.7739C25.0048 27.8137 25.2034 28.059 25.2327 28.0983C25.2789 28.1596 25.3094 28.1866 25.3337 28.2116C25.386 28.2674 25.5412 28.3692 25.5533 28.3852C25.5556 28.4014 25.5587 28.3881 25.5455 28.3784C25.4767 28.3374 25.3945 28.2726 25.3096 28.2174C25.2249 28.1612 24.8981 28.0217 24.6779 27.7183C24.6258 27.6285 24.6009 27.5928 24.5833 27.602C24.5564 27.6163 24.7316 28.1959 25.0918 28.3802C25.0918 28.3802 25.4892 28.557 25.5773 28.6102C25.6257 28.6392 25.7232 28.6822 25.7683 28.7186C25.7941 28.7399 25.7449 28.7387 25.7416 28.7381C25.5305 28.7216 25.2274 28.6936 25.0413 28.5857C25.0413 28.5857 24.9614 28.5296 25.027 28.6084C25.0792 28.6694 25.1781 28.8197 25.3691 28.9043C25.5604 28.9883 25.8383 29.0372 25.94 29.0424C26.0398 29.048 26.3959 29.0497 26.4641 29.0718C26.5309 29.0944 26.6446 29.1672 26.7096 29.1882C26.7687 29.2073 26.9471 29.2757 26.9471 29.2757C26.9471 29.2757 27.0007 29.3051 27.0294 29.3155C27.0616 29.3283 27.1952 29.3271 27.2047 29.3022C27.2136 29.2797 27.1665 29.2456 27.1665 29.2456" fill="#009B3A"/>
<path d="M27.1665 29.2456C27.1665 29.2456 27.011 29.1741 26.8637 29.1021C26.6694 29.0072 26.436 28.8755 26.2735 28.6339C26.07 28.3349 25.893 28.1747 25.8503 28.1425C25.8063 28.1102 25.8 28.0982 25.7838 28.121C25.7692 28.1407 25.7794 28.1578 25.7917 28.1787C25.8336 28.2468 25.9364 28.3747 25.9733 28.4433C26.0368 28.566 26.1684 28.6999 26.1672 28.7794C26.1672 28.7904 26.1288 28.7715 26.1288 28.7715C26.1288 28.7715 25.821 28.666 25.6963 28.2931C25.6055 28.0227 25.6441 27.9433 25.623 27.8082C25.587 27.568 25.5797 27.5485 25.4608 27.2794C25.4576 27.2727 25.3881 27.1602 25.3788 27.1852C25.3659 27.2174 25.3905 27.3378 25.3905 27.3378L25.4031 27.4765C25.4031 27.4765 25.3931 27.7843 25.3931 27.8029C25.3931 27.8216 25.3156 28.0137 25.6449 28.3367C25.6449 28.3367 25.65 28.3915 25.6057 28.3432C25.5744 28.3087 25.3386 28.1276 25.2669 27.8297C25.193 27.5317 25.1823 27.2334 25.2382 27.1096C25.2888 26.9977 25.3905 26.7241 25.3472 26.4851C25.3422 26.4602 25.3351 26.3869 25.3193 26.4061C25.3126 26.4155 25.283 26.5364 25.2651 26.5783C25.2402 26.6355 25.2016 26.6918 25.1896 26.7314C25.1664 26.7985 25.0528 26.9023 25.0751 27.0933C25.1002 27.3128 25.1146 27.3471 25.141 27.4253C25.15 27.4538 25.1721 27.5264 25.1577 27.5337C25.1445 27.5407 25.0979 27.4468 25.0979 27.4468C25.0979 27.4468 24.8893 27.0369 25.018 26.7044C25.148 26.3733 25.4742 26.0593 25.4742 26.0593C25.4742 26.0593 25.7393 25.8395 25.7932 25.7884C25.8143 25.7686 25.8093 25.7538 25.8023 25.7561C25.7364 25.7727 25.2264 25.8782 25.0473 26.4857C25.0473 26.4857 25.0379 26.5113 25.0247 26.505C25.0083 26.4976 25.0247 26.4691 25.0247 26.4691C25.0247 26.4691 25.1369 26.0384 25.4516 25.8431C25.7952 25.6288 25.7549 25.6602 25.8685 25.5927C25.94 25.5483 26.0046 25.4887 26.0846 25.3564C26.0928 25.3417 26.1252 25.2646 26.1209 25.2515C26.1174 25.2384 26.1019 25.2564 26.0946 25.2782C26.0946 25.2782 25.9973 25.4285 25.8517 25.4791C25.7057 25.5297 25.587 25.4575 25.4403 25.6198C25.2933 25.7829 25.1764 26.0087 25.1764 26.0087C25.1764 26.0087 25.138 26.0672 25.1296 26.0654C25.1134 26.0605 25.1374 26.0032 25.1374 26.0032C25.1374 26.0032 25.3337 25.5869 25.4913 25.5024C25.6491 25.4171 25.7896 25.3354 25.8793 25.2663C25.9883 25.1808 26.176 24.9716 26.2436 24.8995C26.258 24.8841 26.3588 24.782 26.381 24.7489C26.3944 24.7308 26.4264 24.7046 26.4212 24.7001C26.4068 24.6893 26.3112 24.7352 26.3112 24.7352C26.3112 24.7352 25.7916 24.8784 25.4683 25.3668C25.4533 25.3895 25.4178 25.4356 25.3987 25.455C25.3641 25.4908 25.3469 25.5505 25.3469 25.5505C25.3258 25.533 25.5296 25.2782 25.5296 25.2782L25.5653 25.1134C25.5653 25.1134 25.6257 24.8658 25.7525 24.691C25.7651 24.6751 25.84 24.5994 25.8527 24.5837C25.8778 24.5565 25.8049 24.6076 25.8178 24.5962C25.8178 24.5962 25.3331 24.9442 25.3331 25.3826C25.3331 25.4613 25.2842 25.5332 25.2165 25.6311C25.1374 25.7448 25.1111 25.8146 25.0768 25.9837C25.0626 26.0549 25.0477 26.1259 25.0323 26.1968C25.0323 26.1968 25.037 26.2593 25.0168 26.2547C24.9957 26.25 25.003 26.1983 25.003 26.1983C25.003 26.1983 25.0525 25.8715 25.0877 25.7709C25.1219 25.6733 25.1444 25.6067 25.1444 25.6067C25.1444 25.6067 25.1242 25.3611 25.1787 25.2264C25.225 25.109 25.3422 24.9544 25.3603 24.9157C25.3682 24.8989 25.4224 24.7887 25.4376 24.6632C25.4397 24.6463 25.4265 24.6603 25.4046 24.7093C25.3512 24.8294 25.3067 24.8608 25.2191 24.9738C25.2191 24.9738 24.9945 25.1366 24.9131 25.6209C24.9131 25.6209 24.9104 25.8014 24.883 26.0843C24.8631 26.2916 24.88 26.4857 24.9035 26.6027C24.9184 26.6741 24.9468 26.6747 24.9293 26.6834C24.9183 26.689 24.9362 26.6844 24.9107 26.6303C24.8797 26.5655 24.8559 26.4657 24.8559 26.3279C24.8559 26.0753 24.8778 25.8725 24.8778 25.8725C24.8778 25.8725 24.8943 25.4642 24.725 25.2802C24.7169 25.2706 24.7547 25.3628 24.7717 25.4547C24.7925 25.5687 24.7547 25.7268 24.7436 25.7884C24.7328 25.8503 24.6199 26.1201 24.6598 26.3733C24.6598 26.3733 24.7552 26.8026 24.8782 27.0108C24.8782 27.0108 24.9547 27.1004 24.8871 27.0164C24.82 26.9323 24.6823 26.5982 24.6704 26.5698C24.6598 26.5425 24.5611 26.3345 24.4682 26.25C24.4202 26.2052 24.2881 26.1259 24.2881 26.1259C24.2881 26.1259 24.2164 26.0712 24.2708 26.1439C24.3138 26.2012 24.3716 26.304 24.3991 26.3489C24.4563 26.4414 24.5072 26.5377 24.5514 26.6371C24.5956 26.7343 24.6984 27.0201 24.6984 27.0201L24.7642 27.2013C24.7642 27.2013 24.8745 27.2625 24.9345 27.3293C24.9837 27.3834 25.0856 27.5075 25.1703 27.7285C25.2083 27.8262 25.2843 27.9156 25.2843 27.9156C25.2843 27.9156 25.2682 27.9467 25.2005 27.8296C25.1338 27.7109 25.0684 27.4883 24.9076 27.3152C24.7855 27.1822 24.4568 27.0483 24.4568 27.0483C24.4568 27.0483 24.668 27.4163 24.7204 27.482C24.8091 27.5872 24.9374 27.7348 24.9705 27.7739C25.0048 27.8137 25.2034 28.059 25.2327 28.0983C25.2789 28.1596 25.3094 28.1866 25.3337 28.2116C25.386 28.2674 25.5412 28.3692 25.5533 28.3852C25.5556 28.4014 25.5587 28.3881 25.5455 28.3784C25.4767 28.3374 25.3945 28.2726 25.3096 28.2174C25.2249 28.1612 24.8981 28.0217 24.6779 27.7183C24.6258 27.6285 24.6009 27.5928 24.5833 27.602C24.5564 27.6163 24.7316 28.1959 25.0918 28.3802C25.0918 28.3802 25.4892 28.557 25.5773 28.6102C25.6257 28.6392 25.7232 28.6822 25.7683 28.7186C25.7941 28.7399 25.7449 28.7387 25.7416 28.7381C25.5305 28.7216 25.2274 28.6936 25.0413 28.5857C25.0413 28.5857 24.9614 28.5296 25.027 28.6084C25.0792 28.6694 25.1781 28.8197 25.3691 28.9043C25.5604 28.9883 25.8383 29.0372 25.94 29.0424C26.0398 29.048 26.3959 29.0497 26.4641 29.0718C26.5309 29.0944 26.6446 29.1672 26.7096 29.1882C26.7687 29.2073 26.9471 29.2757 26.9471 29.2757C26.9471 29.2757 27.0007 29.3051 27.0294 29.3155C27.0616 29.3283 27.1952 29.3271 27.2047 29.3022C27.2136 29.2797 27.1665 29.2456 27.1665 29.2456" stroke="black" stroke-width="0.0359807"/>
<path d="M29.4758 26.2275C29.5162 26.2422 29.534 26.362 29.534 26.362C29.534 26.362 29.5305 26.2935 29.5305 26.2597C29.5305 26.2256 29.5139 26.0981 29.5139 26.0981L29.4781 26.1237C29.4353 26.1577 29.4116 26.2179 29.4116 26.2179C29.4116 26.2179 29.4362 26.2138 29.4758 26.2274" fill="#009B3A"/>
<path d="M29.4758 26.2275C29.5162 26.2422 29.534 26.362 29.534 26.362C29.534 26.362 29.5305 26.2935 29.5305 26.2597C29.5305 26.2256 29.5139 26.0981 29.5139 26.0981L29.4781 26.1237C29.4353 26.1577 29.4116 26.2179 29.4116 26.2179C29.4116 26.2179 29.4362 26.2138 29.4758 26.2274" stroke="black" stroke-width="0.0450655"/>
<rect x="3" y="9" width="48" height="12" fill="#EE5757"/>
</g>
</svg>
