<svg width="54" height="48" viewBox="0 0 54 48" fill="none" xmlns="http://www.w3.org/2000/svg">
<mask id="mask0_1_41871" style="mask-type:alpha" maskUnits="userSpaceOnUse" x="3" y="6" width="48" height="36">
<path d="M3.56934 15.1356C4.16681 10.4125 8.0415 7.00193 12.7861 6.60887C16.6412 6.28949 21.6196 6 27 6C32.3804 6 37.3588 6.28949 41.2139 6.60887C45.9585 7.00193 49.8332 10.4125 50.4307 15.1356C50.752 17.6759 51 20.704 51 24C51 27.296 50.752 30.3241 50.4307 32.8644C49.8332 37.5875 45.9585 40.9981 41.2139 41.3911C37.3588 41.7105 32.3804 42 27 42C21.6196 42 16.6412 41.7105 12.7861 41.3911C8.0415 40.9981 4.16681 37.5875 3.56934 32.8644C3.248 30.3241 3 27.296 3 24C3 20.704 3.248 17.6759 3.56934 15.1356Z" fill="#00D0BF"/>
</mask>
<g mask="url(#mask0_1_41871)">
<rect x="3" y="30" width="48" height="12" fill="#3F6FEB"/>
<rect x="3" y="18" width="48" height="12" fill="#F5F5F5"/>
<path d="M32 23.9987C32 26.7611 29.7621 29 26.9999 29C24.239 29 22 26.7611 22 23.9987C22 21.2375 24.239 19 26.9999 19C29.7621 19 32 21.2375 32 23.9987Z" fill="white" stroke="black" stroke-width="0.220367" stroke-miterlimit="10"/>
<path d="M29.4175 23.2242C29.2961 23.2194 29.2954 23.3532 29.2954 23.3532C29.2954 23.3532 29.2996 23.3136 29.2961 23.3585C29.2938 23.403 29.316 23.5113 29.4057 23.5201C29.5003 23.5284 29.5317 23.4178 29.5325 23.3642C29.5325 23.3429 29.5256 23.2269 29.4175 23.2243" fill="#009B3A"/>
<path d="M29.4175 23.2242C29.2961 23.2194 29.2954 23.3532 29.2954 23.3532C29.2954 23.3532 29.2996 23.3136 29.2961 23.3585C29.2938 23.403 29.316 23.5113 29.4057 23.5201C29.5003 23.5284 29.5317 23.4178 29.5325 23.3642C29.5325 23.3429 29.5256 23.2269 29.4175 23.2243" stroke="black" stroke-width="0.058872"/>
<path d="M23.8631 26.0003L23.8203 25.9294C23.816 25.9215 23.8048 25.9085 23.7869 25.8891C23.7784 25.8795 23.7666 25.8736 23.7538 25.8727C23.7403 25.8708 23.7265 25.8736 23.7148 25.8806C23.6982 25.8908 23.6873 25.9044 23.6856 25.921C23.6824 25.9379 23.6903 25.9611 23.709 25.9925L23.7524 26.0663L23.8631 26.0003ZM24.2863 25.976L23.7424 26.2994L23.5764 26.0204C23.5456 25.9681 23.5269 25.9265 23.5196 25.8936C23.511 25.8602 23.5151 25.8289 23.5289 25.7977C23.5426 25.7663 23.5676 25.7401 23.6024 25.7193C23.6292 25.7029 23.6596 25.6936 23.6909 25.6919C23.7214 25.6919 23.7491 25.6995 23.7761 25.7138C23.7927 25.7233 23.8121 25.7381 23.8332 25.7597C23.8282 25.7364 23.8253 25.7181 23.8264 25.7038C23.8282 25.6954 23.832 25.6815 23.8396 25.6602C23.847 25.6399 23.854 25.6257 23.8583 25.6166L23.9683 25.4416L24.0803 25.6317L23.9683 25.8204C23.9542 25.8442 23.9457 25.8626 23.9445 25.8754C23.9439 25.8931 23.9478 25.9085 23.9562 25.9236L23.9655 25.939L24.1859 25.8079L24.2863 25.976ZM23.3288 25.5331L23.1628 25.0369L23.2908 24.9938L23.3948 25.3049L23.4908 25.2726L23.393 24.9839L23.516 24.9438L23.6126 25.2311L23.7303 25.193L23.6241 24.8729L23.7599 24.8267L23.9286 25.3322L23.3288 25.5331ZM23.3465 24.523L23.3398 24.4765C23.3354 24.4378 23.326 24.4128 23.3117 24.3998C23.3045 24.3933 23.296 24.3885 23.2868 24.3856C23.2775 24.3827 23.2678 24.3818 23.2581 24.3829C23.2388 24.3861 23.223 24.3943 23.2109 24.4079C23.1984 24.4231 23.1942 24.448 23.1995 24.4844L23.2048 24.5402L23.3465 24.523ZM23.1005 24.7495L23.0628 24.4271C23.0552 24.3579 23.0652 24.3027 23.0941 24.2637C23.124 24.2251 23.1697 24.2018 23.2311 24.1949C23.2944 24.187 23.3468 24.2006 23.3867 24.2341C23.426 24.2681 23.4511 24.3248 23.4605 24.4027L23.4725 24.5088L23.7053 24.4817L23.7282 24.6768L23.1005 24.7495ZM23.0785 23.5159L23.0987 23.3216L23.4742 23.362C23.5096 23.3661 23.5441 23.3758 23.5764 23.3908C23.6085 23.4052 23.6364 23.4272 23.6578 23.455C23.6795 23.483 23.6948 23.5097 23.7018 23.5385C23.7114 23.5765 23.7141 23.6231 23.7079 23.6766C23.7044 23.7099 23.6985 23.743 23.6903 23.7755C23.6824 23.8111 23.6702 23.8406 23.6549 23.8633C23.6387 23.8874 23.618 23.9083 23.594 23.9248C23.5709 23.9411 23.5447 23.9523 23.5169 23.9577C23.4753 23.9662 23.4397 23.9679 23.4086 23.9644L23.0349 23.9249L23.0551 23.7304L23.4385 23.772C23.4731 23.7755 23.5006 23.7691 23.5219 23.7516C23.5434 23.7344 23.5554 23.7095 23.5594 23.6766C23.563 23.6419 23.5559 23.6153 23.5392 23.5947C23.5226 23.5734 23.4967 23.5615 23.4619 23.5574L23.0785 23.5159ZM23.7075 22.9844L23.7412 22.8908C23.7514 22.8591 23.7543 22.8346 23.7474 22.817C23.744 22.8086 23.7388 22.8012 23.7322 22.7952C23.7255 22.7892 23.7176 22.7848 23.709 22.7824C23.6902 22.7759 23.6747 22.7771 23.6595 22.7865C23.6437 22.796 23.6301 22.8164 23.6193 22.848L23.586 22.9422L23.7075 22.9844ZM23.473 22.9022L23.5013 22.8227C23.5109 22.7937 23.5136 22.7716 23.5065 22.7568C23.5013 22.7425 23.489 22.7312 23.47 22.7257C23.4626 22.7226 23.4546 22.7212 23.4466 22.7215C23.4386 22.7219 23.4308 22.724 23.4237 22.7277C23.41 22.7358 23.3985 22.7532 23.3892 22.7812L23.3595 22.8629L23.473 22.9022ZM23.1744 23.0071L23.2945 22.6609C23.3153 22.6033 23.3449 22.5649 23.3847 22.5432C23.4033 22.5332 23.4237 22.5272 23.4447 22.5257C23.4657 22.5241 23.4868 22.527 23.5067 22.5341C23.5412 22.5477 23.5675 22.5687 23.5857 22.5995C23.5964 22.6198 23.6033 22.6466 23.6033 22.6777C23.6281 22.6382 23.6568 22.6131 23.6887 22.6024C23.7212 22.5908 23.7567 22.5914 23.795 22.6048C23.8252 22.6152 23.8504 22.6323 23.8704 22.655C23.8894 22.6789 23.9019 22.7051 23.9081 22.7347C23.911 22.7538 23.9096 22.7794 23.9028 22.8112C23.8929 22.8556 23.887 22.8838 23.882 22.8969L23.7707 23.2155L23.1744 23.0071ZM23.4967 22.1969L23.5989 22.0301L24.006 22.2768L24.1645 22.0165L24.2972 22.0975L24.0388 22.5246L23.4967 22.1969ZM23.9142 21.575L24.0399 21.4252L24.5223 21.833L24.3964 21.9828L23.9142 21.575ZM24.7903 21.2351L24.9546 21.1648C24.9757 21.2091 24.9877 21.2511 24.9894 21.2924C24.991 21.332 24.983 21.3714 24.9661 21.4072C24.9473 21.4435 24.9165 21.4787 24.8744 21.5157C24.8207 21.5593 24.7715 21.5878 24.725 21.6002C24.679 21.6122 24.6274 21.6093 24.5701 21.5912C24.5147 21.5729 24.462 21.5331 24.4111 21.4735C24.3449 21.3925 24.3144 21.3131 24.3211 21.2351C24.3276 21.1558 24.3703 21.0846 24.4482 21.0189C24.5101 20.9677 24.5674 20.941 24.6239 20.9366C24.679 20.9314 24.7376 20.948 24.7964 20.9849L24.6884 21.125C24.672 21.1142 24.6583 21.107 24.6466 21.1046C24.6295 21.0995 24.6113 21.0993 24.5941 21.104C24.5764 21.108 24.5599 21.1161 24.546 21.1279C24.5117 21.1566 24.4969 21.1921 24.5018 21.2345C24.5047 21.2662 24.5249 21.3032 24.5601 21.3471C24.6055 21.4009 24.6447 21.431 24.677 21.4371C24.7109 21.4441 24.7423 21.4346 24.7715 21.4101C24.8 21.3857 24.8155 21.3602 24.8161 21.3322C24.8169 21.3025 24.809 21.2703 24.7903 21.2351ZM25.4298 20.8553L25.2646 20.6843L25.3062 20.9189L25.4298 20.8553ZM25.5282 20.959L25.3303 21.0597L25.3505 21.1669L25.1727 21.2573L25.0973 20.5861L25.2874 20.489L25.7862 20.9446L25.6044 21.0376L25.5282 20.959ZM26.297 20.3001L26.3456 20.6414L26.3931 20.6344C26.4338 20.6294 26.4622 20.6204 26.4783 20.609C26.4938 20.5965 26.5044 20.5806 26.5108 20.5555C26.5178 20.5323 26.5178 20.496 26.5106 20.4454C26.5012 20.3794 26.4836 20.3352 26.459 20.3143C26.4339 20.2933 26.396 20.2858 26.3457 20.2933L26.297 20.3001ZM26.0844 20.1858L26.3714 20.1445C26.428 20.137 26.4739 20.1375 26.5108 20.148C26.5489 20.1588 26.5802 20.1762 26.6078 20.2018C26.6345 20.2274 26.6558 20.2585 26.6711 20.2948C26.6875 20.3329 26.6985 20.3731 26.7038 20.4143C26.7141 20.4805 26.7141 20.534 26.7032 20.5721C26.6942 20.6095 26.6772 20.6445 26.6534 20.6747C26.6294 20.7029 26.6027 20.7242 26.5732 20.736C26.5371 20.7527 26.499 20.7643 26.4598 20.7707L26.1722 20.8111L26.0844 20.1858ZM26.9446 20.0633L27.4662 20.102L27.4565 20.2365L27.1299 20.2121L27.1223 20.3124L27.4252 20.3348L27.4143 20.463L27.113 20.4414L27.1041 20.5648L27.4401 20.5897L27.4296 20.7321L26.8979 20.6929L26.9446 20.0633ZM27.7482 20.137L27.936 20.1894L27.8062 20.6487L28.0994 20.7316L28.0566 20.8804L27.5754 20.7441L27.7482 20.137ZM28.8145 20.8383L28.8549 20.8644C28.886 20.8851 28.9123 20.8938 28.9314 20.8917C28.9409 20.891 28.9502 20.888 28.9583 20.883C28.9664 20.8779 28.9732 20.8709 28.978 20.8626C28.9885 20.8467 28.9923 20.8287 28.99 20.8091C28.9861 20.7906 28.9689 20.7717 28.9384 20.7516L28.8918 20.7202L28.8145 20.8383ZM28.7989 20.5054L29.0705 20.6845C29.1293 20.7231 29.1639 20.7668 29.1745 20.8138C29.1859 20.8615 29.1745 20.9115 29.1396 20.9633C29.1057 21.0159 29.0617 21.0467 29.0096 21.0557C28.9568 21.0641 28.8991 21.0479 28.8332 21.0045L28.7439 20.9452L28.6156 21.1409L28.4519 21.0324L28.7989 20.5054ZM29.4846 21.469L29.5947 21.2583L29.3856 21.3714L29.4846 21.469ZM29.4178 21.5946L29.2593 21.4388L29.1639 21.4912L29.0219 21.3516L29.3138 21.2168L29.6355 21.0681L29.7866 21.2176L29.5119 21.8353L29.3666 21.6911L29.4178 21.5946ZM30.0048 21.8687L30.0494 21.9391C30.0547 21.9461 30.0643 21.9598 30.0842 21.9783C30.0933 21.9873 30.1055 21.9926 30.1183 21.9932C30.1315 21.9947 30.1448 21.9914 30.1557 21.9838C30.1724 21.9731 30.1817 21.9597 30.1847 21.9426C30.187 21.9263 30.1783 21.9018 30.1586 21.8722L30.1135 21.8002L30.0048 21.8687ZM29.5823 21.9062L30.115 21.5661L30.2899 21.8402C30.3223 21.8908 30.3429 21.9324 30.3528 21.9647C30.3604 21.9967 30.3575 22.0303 30.3445 22.0606C30.3316 22.0926 30.308 22.119 30.2746 22.1409C30.2444 22.16 30.2154 22.1708 30.1856 22.1708C30.1572 22.1725 30.1282 22.1653 30.0997 22.1533C30.0789 22.1405 30.0595 22.1254 30.0421 22.1083C30.0476 22.1315 30.0511 22.1504 30.0505 22.1635C30.0477 22.1783 30.044 22.1928 30.0394 22.2071C30.0346 22.2227 30.0283 22.2376 30.0204 22.2518L29.9173 22.4304L29.7977 22.244L29.905 22.0528C29.9194 22.0272 29.9263 22.0089 29.9263 21.9961C29.9269 21.9789 29.9243 21.9626 29.9129 21.948L29.9044 21.9336L29.6877 22.0716L29.5823 21.9062ZM30.3291 22.7573L30.5186 22.6143L30.2817 22.6274L30.3291 22.7573ZM30.2141 22.8419L30.1382 22.6329L30.0304 22.6405L29.9616 22.453L30.6369 22.4608L30.7099 22.6602L30.1971 23.0998L30.1268 22.9067L30.2141 22.8419ZM30.5166 23.5141L30.6466 23.4969L30.6843 23.7982L30.4169 23.8304C30.3718 23.7781 30.3373 23.7312 30.3188 23.6885C30.2983 23.6461 30.2851 23.5947 30.2776 23.5345C30.2679 23.4601 30.2728 23.3978 30.2936 23.3478C30.3124 23.2978 30.3458 23.2563 30.3926 23.2234C30.4398 23.1923 30.4955 23.1717 30.5602 23.1638C30.6284 23.1549 30.6902 23.1618 30.744 23.1842C30.798 23.2057 30.8413 23.242 30.8751 23.2932C30.9011 23.3337 30.9183 23.3892 30.9265 23.4613C30.9362 23.5301 30.9362 23.5827 30.9271 23.6185C30.9203 23.6535 30.9038 23.6858 30.8794 23.7117C30.8538 23.7398 30.822 23.7615 30.7865 23.7752L30.7298 23.5929C30.7524 23.5816 30.769 23.5671 30.7789 23.5464C30.7892 23.5266 30.7919 23.5016 30.7892 23.4743C30.7822 23.4313 30.7646 23.3993 30.7324 23.3778C30.6993 23.3563 30.6506 23.3495 30.5868 23.3575C30.5189 23.3659 30.4729 23.3853 30.4462 23.4136C30.4211 23.4432 30.4117 23.4812 30.4164 23.5266C30.4188 23.5482 30.4251 23.5682 30.4334 23.5868C30.4424 23.6066 30.4556 23.6266 30.4738 23.6517L30.5333 23.6435L30.5166 23.5141ZM30.9167 24.4618L30.8944 24.6553L30.5207 24.6132C30.4849 24.6093 30.4501 24.5994 30.4176 24.5838C30.3861 24.5688 30.3585 24.5469 30.3368 24.5196C30.3154 24.4923 30.3007 24.4646 30.2937 24.4367C30.2846 24.3963 30.2823 24.351 30.2884 24.2978C30.2926 24.2675 30.2985 24.2341 30.3057 24.1984C30.3142 24.1626 30.3268 24.1335 30.3426 24.1109C30.3591 24.0873 30.3795 24.0667 30.403 24.0501C30.4305 24.0329 30.4557 24.0222 30.4808 24.0178C30.5219 24.01 30.5585 24.0074 30.5892 24.0121L30.9635 24.0548L30.9413 24.2478L30.5585 24.2038C30.5236 24.2001 30.4961 24.2062 30.4744 24.2234C30.4533 24.2408 30.4407 24.2652 30.4372 24.2987C30.4334 24.3329 30.4399 24.36 30.4568 24.3806C30.4733 24.4015 30.499 24.4141 30.5333 24.4193L30.9167 24.4618ZM30.335 25.181L30.5731 25.1895L30.3809 25.0494L30.335 25.181ZM30.1938 25.1739L30.2658 24.9643L30.1776 24.9011L30.2432 24.7125L30.7628 25.1442L30.6913 25.3462L30.018 25.3627L30.0842 25.1691L30.1938 25.1739ZM30.5426 25.7557L30.4327 25.9425L30.1838 25.9434L30.303 26.162L30.1938 26.3466L30.0017 25.9486L29.7738 25.8143L29.8739 25.6454L30.1015 25.7806L30.5426 25.7557Z" fill="black"/>
<path d="M31.1844 24.0003C31.1844 26.3127 29.3106 28.1867 26.9993 28.1867C24.6873 28.1867 22.8135 26.3126 22.8135 24.0003C22.8135 21.6895 24.6872 19.8158 26.9992 19.8158C29.3106 19.8158 31.1844 21.6895 31.1844 24.0002L31.1844 24.0003Z" stroke="black" stroke-width="0.0881586" stroke-miterlimit="10"/>
<path d="M30.1135 23.9853C30.1135 25.7066 28.7196 27.1007 26.9992 27.1007C25.2787 27.1007 23.8842 25.7066 23.8842 23.9853C23.8842 22.2658 25.2787 20.8712 26.9991 20.8712C28.7196 20.8712 30.1136 22.2658 30.1136 23.9853H30.1135Z" stroke="black" stroke-width="0.0881586" stroke-miterlimit="10"/>
<path d="M26.9994 22.8651L27.261 23.614L28.0526 23.6317L27.4218 24.1114L27.6511 24.8703L26.9994 24.4192L26.3475 24.8703L26.5757 24.1114L25.9439 23.6317L26.737 23.614L26.9994 22.8651Z" fill="#FEDF00" stroke="black" stroke-width="0.0359807"/>
<path d="M28.4376 26.1355C28.4111 26.1576 28.3049 26.1695 28.2768 26.1742C28.2483 26.1779 28.1367 26.179 28.0895 26.1808C28.0635 26.1826 28.0134 26.1898 27.9874 26.1898C27.7586 26.1637 28.3591 26.1674 28.4376 26.1354V26.1355ZM27.838 25.9585C27.853 25.9317 27.928 25.7648 27.9549 25.7174C27.9824 25.6709 28.0445 25.5467 28.0816 25.4951C28.1008 25.4671 28.1754 25.3861 28.1932 25.4224C28.0632 25.5347 27.9607 25.7309 27.9061 25.8629C27.899 25.8771 27.8563 25.9505 27.8405 25.9698C27.8252 25.9886 27.8315 26.0243 27.8075 26.0272C27.7822 26.0303 27.7999 26.0349 27.7999 26.0349C27.7999 26.0349 27.8216 25.9866 27.838 25.9584V25.9585ZM28.7005 26.0861C28.7005 26.0861 28.5971 26.0706 28.533 26.048C28.4692 26.0264 28.3619 26.0099 28.2706 26.0122C28.1801 26.0134 28.0972 26.0407 28.0234 26.0689C27.9499 26.0962 27.8547 26.0985 27.8547 26.0985C27.8547 26.0985 27.8008 26.107 27.826 26.0945C27.85 26.0826 27.9335 26.0174 27.9335 26.0174L27.9874 25.9436C28.0029 25.9393 28.2764 25.5804 28.2466 25.484C28.2885 25.4132 28.3376 25.2866 28.3192 25.2646C28.3104 25.2556 28.1063 25.3294 28.0615 25.37C28.0096 25.4148 27.973 25.5082 27.9575 25.562C27.9423 25.6154 27.8638 25.6596 27.8638 25.6596C27.7999 25.7055 27.7537 25.8508 27.732 25.9698C27.71 26.0872 27.4207 26.1523 27.4207 26.1523C27.4207 26.1523 27.3404 26.1822 27.4117 26.2049C27.4239 26.2083 27.4557 26.2621 27.4813 26.2629C27.5166 26.267 27.6963 26.1901 27.7241 26.1962C27.7851 26.21 27.8455 26.2265 27.9051 26.2457C27.9736 26.2689 28.0302 26.2808 28.0781 26.2631C28.1268 26.2456 28.1962 26.2524 28.2483 26.2625C28.2996 26.2736 28.357 26.2689 28.39 26.2587C28.4255 26.2479 28.5187 26.1962 28.5187 26.1962C28.5187 26.1962 28.6194 26.1526 28.6776 26.1252C28.736 26.098 28.7005 26.086 28.7005 26.086" fill="#009B3A"/>
<path d="M28.7005 26.0861C28.7005 26.0861 28.5971 26.0706 28.533 26.048C28.4692 26.0264 28.3619 26.0099 28.2706 26.0122C28.1801 26.0134 28.0972 26.0407 28.0234 26.0689C27.9499 26.0962 27.8547 26.0985 27.8547 26.0985C27.8547 26.0985 27.8008 26.107 27.826 26.0945C27.85 26.0826 27.9335 26.0174 27.9335 26.0174L27.9874 25.9436C28.0029 25.9393 28.2764 25.5804 28.2466 25.484C28.2885 25.4132 28.3376 25.2866 28.3192 25.2646C28.3104 25.2556 28.1063 25.3294 28.0615 25.37C28.0096 25.4148 27.973 25.5082 27.9575 25.562C27.9423 25.6154 27.8638 25.6596 27.8638 25.6596C27.7999 25.7055 27.7537 25.8508 27.732 25.9698C27.71 26.0872 27.4207 26.1523 27.4207 26.1523C27.4207 26.1523 27.3404 26.1822 27.4117 26.2049C27.4239 26.2083 27.4557 26.2621 27.4813 26.2629C27.5166 26.267 27.6963 26.1901 27.7241 26.1962C27.7851 26.21 27.8455 26.2265 27.9051 26.2457C27.9736 26.2689 28.0302 26.2808 28.0781 26.2631C28.1268 26.2456 28.1962 26.2524 28.2483 26.2625C28.2996 26.2736 28.357 26.2689 28.39 26.2587C28.4255 26.2479 28.5187 26.1962 28.5187 26.1962C28.5187 26.1962 28.6194 26.1526 28.6776 26.1252C28.736 26.098 28.7005 26.086 28.7005 26.086M28.4376 26.1355C28.4111 26.1576 28.3049 26.1695 28.2768 26.1742C28.2483 26.1779 28.1367 26.179 28.0895 26.1808C28.0635 26.1826 28.0134 26.1898 27.9874 26.1898C27.7586 26.1637 28.3591 26.1674 28.4376 26.1354V26.1355ZM27.838 25.9585C27.853 25.9317 27.928 25.7648 27.9549 25.7174C27.9824 25.6709 28.0445 25.5467 28.0816 25.4951C28.1008 25.4671 28.1754 25.3861 28.1932 25.4224C28.0632 25.5347 27.9607 25.7309 27.9061 25.8629C27.899 25.8771 27.8563 25.9505 27.8405 25.9698C27.8252 25.9886 27.8315 26.0243 27.8075 26.0272C27.7822 26.0303 27.7999 26.0349 27.7999 26.0349C27.7999 26.0349 27.8216 25.9866 27.838 25.9584V25.9585Z" stroke="black" stroke-width="0.0450655"/>
<path d="M27.9144 26.4353C27.9144 26.4353 27.516 26.2269 27.4946 26.2219C27.4821 26.2202 27.3139 26.1275 27.237 26.1035C27.1813 26.0856 27.1046 26.0808 27.077 26.0826C27.0115 26.0872 26.9044 26.1162 26.9044 26.1162L27.0033 26.1566C27.0033 26.1566 27.0962 26.2022 27.1416 26.2267C27.2066 26.261 27.2095 26.3028 27.2095 26.3028L27.5702 26.4614L27.6434 26.514C27.6434 26.514 27.71 26.4222 27.9144 26.4353Z" fill="#009B3A"/>
<path d="M27.9144 26.4353C27.9144 26.4353 27.516 26.2269 27.4946 26.2219C27.4821 26.2202 27.3139 26.1275 27.237 26.1035C27.1813 26.0856 27.1046 26.0808 27.077 26.0826C27.0115 26.0872 26.9044 26.1162 26.9044 26.1162L27.0033 26.1566C27.0033 26.1566 27.0962 26.2022 27.1416 26.2267C27.2066 26.261 27.2095 26.3028 27.2095 26.3028L27.5702 26.4614L27.6434 26.514C27.6434 26.514 27.71 26.4222 27.9144 26.4353" stroke="black" stroke-width="0.0359807"/>
<path d="M28.315 25.608C28.4403 25.4962 28.5016 25.3373 28.6047 25.2493C28.6214 25.2613 28.6214 25.2813 28.601 25.3165C28.5815 25.3511 28.5555 25.3631 28.5442 25.3811C28.5231 25.4093 28.4604 25.4615 28.4434 25.4928C28.4284 25.5224 28.4089 25.5639 28.3542 25.5955C28.2998 25.628 28.3169 25.6797 28.3123 25.7014C28.308 25.7253 28.2242 25.7853 28.1837 25.8595C28.176 25.9368 28.1725 25.9043 28.1256 25.9318C28.211 25.8032 28.2559 25.7203 28.315 25.6079V25.608ZM28.0335 25.9615C28.0254 25.9785 27.7783 26.1187 27.8556 26.0979C27.9324 26.0777 28.1607 25.9953 28.2256 25.9664C28.3049 25.9318 28.3524 25.8592 28.412 25.8001C28.4728 25.7397 28.6608 25.56 28.6934 25.4907C28.7252 25.4194 28.7541 25.3202 28.6266 25.0974C28.6266 25.0974 28.6068 25.14 28.5593 25.1816C28.5123 25.2242 28.4423 25.2714 28.4423 25.2714L28.3605 25.3487C28.3605 25.3487 28.0718 25.8791 28.0335 25.9616" fill="#009B3A"/>
<path d="M28.0335 25.9615C28.0254 25.9785 27.7783 26.1187 27.8556 26.0979C27.9324 26.0777 28.1607 25.9953 28.2256 25.9664C28.3049 25.9318 28.3524 25.8592 28.412 25.8001C28.4728 25.7397 28.6608 25.56 28.6934 25.4907C28.7252 25.4194 28.7541 25.3202 28.6266 25.0974C28.6266 25.0974 28.6068 25.14 28.5593 25.1816C28.5123 25.2242 28.4423 25.2714 28.4423 25.2714L28.3605 25.3487C28.3605 25.3487 28.0718 25.8791 28.0335 25.9616M28.315 25.608C28.4403 25.4962 28.5016 25.3373 28.6047 25.2493C28.6214 25.2613 28.6214 25.2813 28.601 25.3165C28.5815 25.3511 28.5555 25.3631 28.5442 25.3811C28.5231 25.4093 28.4604 25.4615 28.4434 25.4928C28.4284 25.5224 28.4089 25.5639 28.3542 25.5955C28.2998 25.628 28.3169 25.6797 28.3123 25.7014C28.308 25.7253 28.2242 25.7853 28.1837 25.8595C28.176 25.9368 28.1725 25.9043 28.1256 25.9318C28.211 25.8032 28.2559 25.7203 28.315 25.6079V25.608Z" stroke="black" stroke-width="0.0474562"/>
<path d="M29.0373 25.7749C29.0373 25.7749 28.8792 25.7607 28.8654 25.7607C28.8505 25.7607 28.7638 25.7488 28.6378 25.7488C28.513 25.7488 28.4662 25.7921 28.4334 25.8269C28.398 25.8659 28.2995 25.956 28.2995 25.956L28.3526 25.9513C28.4791 25.8528 28.5775 25.8889 28.6168 25.8861C28.6578 25.8846 28.7071 25.8887 28.8337 25.8439C28.9622 25.7988 28.9547 25.841 28.9406 25.8453C28.8792 25.8674 28.815 25.8804 28.7498 25.8838C28.6544 25.8891 28.5707 25.9075 28.5332 25.9075C28.4954 25.9075 28.217 25.9837 28.217 25.9837C28.217 25.9837 28.5183 26.0014 28.5508 26.0121C28.5831 26.0253 28.6337 26.0191 28.6756 25.999C28.791 25.9458 28.8432 25.9357 28.8906 25.9249C28.9383 25.9157 28.9952 25.8834 28.9952 25.8834C28.9952 25.8834 29.0257 25.8641 29.0537 25.8131C29.0827 25.7607 29.0372 25.7749 29.0372 25.7749H29.0373ZM29.1851 24.9495C29.2041 24.9023 29.2516 24.7916 29.302 24.748C29.3327 24.7212 29.3857 24.7087 29.4138 24.6969C29.4258 24.6928 29.5123 24.6886 29.4043 24.7183C29.3595 24.7303 29.2989 24.7567 29.272 24.8019C29.2342 24.9067 29.2012 24.9981 29.131 25.0651C29.0795 25.1192 29.0469 25.1896 29.0469 25.1896L28.9916 25.2087C29.0929 25.1467 29.1369 25.0317 29.1851 24.9495ZM29.6748 24.8904C29.6171 24.9097 29.5969 24.9256 29.5969 24.9256C29.4678 24.9643 29.4149 25.0454 29.3584 25.1113C29.3297 25.1459 29.2893 25.1717 29.1531 25.2301C29.0286 25.2836 28.9324 25.3663 28.93 25.3663C28.93 25.3663 28.8906 25.3743 28.8981 25.3935C28.901 25.4026 28.9347 25.3953 28.9347 25.3953C28.9347 25.3953 29.1911 25.3587 29.298 25.2937C29.3662 25.2509 29.4048 25.2198 29.4695 25.1198C29.4985 25.0756 29.531 24.9925 29.5325 25.046C29.5375 25.1878 29.3171 25.3253 29.2212 25.3678C29.1698 25.3896 29.1014 25.3986 29.0118 25.4134C28.9233 25.4297 28.8694 25.4248 28.8759 25.4053C28.8849 25.3771 28.8952 25.3712 28.9186 25.3434C28.9608 25.2931 29.0626 25.2753 29.1377 25.2401C29.2264 25.2003 29.3105 25.1418 29.3526 25.0919C29.3957 25.0414 29.4106 25.0227 29.4223 24.98C29.4552 24.8683 29.4569 24.8065 29.4877 24.7666C29.596 24.6332 29.6118 24.5902 29.6171 24.5306C29.6183 24.5169 29.5609 24.5623 29.5311 24.5788C29.4727 24.6134 29.4511 24.6134 29.3316 24.6446C29.2103 24.6748 29.213 24.753 29.1941 24.7899C29.1886 24.8047 29.1394 24.8661 29.116 24.8774C29.0925 24.8893 29.0349 24.9727 29.0135 25.0216C28.9977 25.0573 28.9695 25.0829 28.947 25.08C28.9233 25.0756 28.9924 24.8172 29.0076 24.7745C29.024 24.7321 29.0273 24.6492 29.0273 24.6212C29.0273 24.5945 29.0282 24.5242 28.9814 24.5163C28.9347 24.5084 28.9326 24.444 28.9326 24.444C28.8205 24.5412 28.8831 24.7123 28.8952 24.8137C28.9072 24.9142 28.872 25.1003 28.872 25.1003C28.9803 25.1466 28.8952 25.2782 28.8615 25.3207C28.8261 25.3639 28.759 25.3718 28.7288 25.41C28.6969 25.4492 28.47 25.7652 28.47 25.7652L28.7523 25.6852C28.7523 25.6852 28.7786 25.6898 28.7364 25.6579C28.6937 25.6273 28.7502 25.5087 28.7865 25.4797C28.8559 25.4253 28.9497 25.4649 28.9497 25.4649C28.9497 25.4649 29.0806 25.485 29.2411 25.4212C29.3752 25.3684 29.4329 25.2826 29.4964 25.218C29.531 25.183 29.5942 25.0663 29.6341 24.9972C29.6581 24.9573 29.7012 24.8814 29.6747 24.8904" fill="#009B3A"/>
<path d="M29.6748 24.8904C29.6171 24.9097 29.5969 24.9256 29.5969 24.9256C29.4678 24.9643 29.4149 25.0454 29.3584 25.1113C29.3297 25.1459 29.2893 25.1717 29.1531 25.2301C29.0286 25.2836 28.9324 25.3663 28.93 25.3663C28.93 25.3663 28.8906 25.3743 28.8981 25.3935C28.901 25.4026 28.9347 25.3953 28.9347 25.3953C28.9347 25.3953 29.1911 25.3587 29.298 25.2937C29.3662 25.2509 29.4048 25.2198 29.4695 25.1198C29.4985 25.0756 29.531 24.9925 29.5325 25.046C29.5375 25.1878 29.3171 25.3253 29.2212 25.3678C29.1698 25.3896 29.1014 25.3986 29.0118 25.4134C28.9233 25.4297 28.8694 25.4248 28.8759 25.4053C28.8849 25.3771 28.8952 25.3712 28.9186 25.3434C28.9608 25.2931 29.0626 25.2753 29.1377 25.2401C29.2264 25.2003 29.3105 25.1418 29.3526 25.0919C29.3957 25.0414 29.4106 25.0227 29.4223 24.98C29.4552 24.8683 29.4569 24.8065 29.4877 24.7666C29.596 24.6332 29.6118 24.5902 29.6171 24.5306C29.6183 24.5169 29.5609 24.5623 29.5311 24.5788C29.4727 24.6134 29.4511 24.6134 29.3316 24.6446C29.2103 24.6748 29.213 24.753 29.1941 24.7899C29.1886 24.8047 29.1394 24.8661 29.116 24.8774C29.0925 24.8893 29.0349 24.9727 29.0135 25.0216C28.9977 25.0573 28.9695 25.0829 28.947 25.08C28.9233 25.0756 28.9924 24.8172 29.0076 24.7745C29.024 24.7321 29.0273 24.6492 29.0273 24.6212C29.0273 24.5945 29.0282 24.5242 28.9814 24.5163C28.9347 24.5084 28.9326 24.444 28.9326 24.444C28.8205 24.5412 28.8831 24.7123 28.8952 24.8137C28.9072 24.9142 28.872 25.1003 28.872 25.1003C28.9803 25.1466 28.8952 25.2782 28.8615 25.3207C28.8261 25.3639 28.759 25.3718 28.7288 25.41C28.6969 25.4492 28.47 25.7652 28.47 25.7652L28.7523 25.6852C28.7523 25.6852 28.7786 25.6898 28.7364 25.6579C28.6937 25.6273 28.7502 25.5087 28.7865 25.4797C28.8559 25.4253 28.9497 25.4649 28.9497 25.4649C28.9497 25.4649 29.0806 25.485 29.2411 25.4212C29.3752 25.3684 29.4329 25.2826 29.4964 25.218C29.531 25.183 29.5942 25.0663 29.6341 24.9972C29.6581 24.9573 29.7012 24.8814 29.6747 24.8904M29.0373 25.7749C29.0373 25.7749 28.8792 25.7607 28.8654 25.7607C28.8505 25.7607 28.7638 25.7488 28.6378 25.7488C28.513 25.7488 28.4662 25.7921 28.4334 25.8269C28.398 25.8659 28.2995 25.956 28.2995 25.956L28.3526 25.9513C28.4791 25.8528 28.5775 25.8889 28.6168 25.8861C28.6578 25.8846 28.7071 25.8887 28.8337 25.8439C28.9622 25.7988 28.9547 25.841 28.9406 25.8453C28.8792 25.8674 28.815 25.8804 28.7498 25.8838C28.6544 25.8891 28.5707 25.9075 28.5332 25.9075C28.4954 25.9075 28.217 25.9837 28.217 25.9837C28.217 25.9837 28.5183 26.0014 28.5508 26.0121C28.5831 26.0253 28.6337 26.0191 28.6756 25.999C28.791 25.9458 28.8432 25.9357 28.8906 25.9249C28.9383 25.9157 28.9952 25.8834 28.9952 25.8834C28.9952 25.8834 29.0257 25.8641 29.0537 25.8131C29.0827 25.7607 29.0372 25.7749 29.0372 25.7749H29.0373ZM29.1851 24.9495C29.2041 24.9023 29.2516 24.7916 29.302 24.748C29.3327 24.7212 29.3857 24.7087 29.4138 24.6969C29.4258 24.6928 29.5123 24.6886 29.4043 24.7183C29.3595 24.7303 29.2989 24.7567 29.272 24.8019C29.2342 24.9067 29.2012 24.9981 29.131 25.0651C29.0795 25.1192 29.0469 25.1896 29.0469 25.1896L28.9916 25.2087C29.0929 25.1467 29.1369 25.0317 29.1851 24.9495V24.9495Z" stroke="black" stroke-width="0.0450655"/>
<path d="M28.8744 25.6493C28.8959 25.6406 28.8991 25.6367 28.9386 25.5936C28.9775 25.5506 28.9432 25.4779 28.8831 25.4808C28.8537 25.4828 28.8224 25.476 28.7646 25.5537C28.7088 25.6316 28.7913 25.66 28.8227 25.6632C28.8361 25.664 28.8538 25.6581 28.8744 25.6493Z" fill="#009B3A"/>
<path d="M28.8744 25.6493C28.8959 25.6406 28.8991 25.6367 28.9386 25.5936C28.9775 25.5506 28.9432 25.4779 28.8831 25.4808C28.8537 25.4828 28.8224 25.476 28.7646 25.5537C28.7088 25.6316 28.7913 25.66 28.8227 25.6632C28.8361 25.664 28.8538 25.6581 28.8744 25.6493" stroke="black" stroke-width="0.0502056"/>
<path d="M28.7284 25.1573C28.691 25.2199 28.671 25.2917 28.7004 25.3139C28.707 25.3175 28.733 25.3404 28.755 25.3404C28.7767 25.3404 28.8381 25.311 28.8731 25.2569C28.9082 25.2046 28.9369 25.1471 28.8651 25.1113C28.8001 25.0791 28.7554 25.1093 28.7284 25.1572" fill="#009B3A"/>
<path d="M28.7284 25.1573C28.691 25.2199 28.671 25.2917 28.7004 25.3139C28.707 25.3175 28.733 25.3404 28.755 25.3404C28.7767 25.3404 28.8381 25.311 28.8731 25.2569C28.9082 25.2046 28.9369 25.1471 28.8651 25.1113C28.8001 25.0791 28.7554 25.1093 28.7284 25.1572" stroke="black" stroke-width="0.0512814"/>
<path d="M28.9419 24.3933C28.9419 24.3933 28.9478 24.3836 28.9232 24.3581C28.8842 24.3182 28.8355 24.2471 28.8355 24.2471C28.7579 24.2896 28.7321 24.3753 28.7321 24.4094C28.7321 24.4448 28.7452 24.5218 28.7333 24.6004C28.7291 24.6271 28.7248 24.6576 28.6864 24.7547C28.6471 24.8506 28.692 24.9387 28.7008 24.9698C28.7075 25.0006 28.7395 25.0965 28.7395 25.0965C28.7395 25.0965 28.7699 25.077 28.7801 25.0747C28.7921 25.0715 28.8334 25.0733 28.8334 25.0733C28.8334 25.0733 28.8802 24.9888 28.8819 24.9418C28.8828 24.9072 28.8773 24.8485 28.8608 24.7583C28.838 24.6272 28.8394 24.5898 28.855 24.5164C28.8705 24.442 28.9419 24.3931 28.9419 24.3931" fill="#009B3A"/>
<path d="M28.9419 24.3933C28.9419 24.3933 28.9478 24.3836 28.9232 24.3581C28.8842 24.3182 28.8355 24.2471 28.8355 24.2471C28.7579 24.2896 28.7321 24.3753 28.7321 24.4094C28.7321 24.4448 28.7452 24.5218 28.7333 24.6004C28.7291 24.6271 28.7248 24.6576 28.6864 24.7547C28.6471 24.8506 28.692 24.9387 28.7008 24.9698C28.7075 25.0006 28.7395 25.0965 28.7395 25.0965C28.7395 25.0965 28.7699 25.077 28.7801 25.0747C28.7921 25.0715 28.8334 25.0733 28.8334 25.0733C28.8334 25.0733 28.8802 24.9888 28.8819 24.9418C28.8828 24.9072 28.8773 24.8485 28.8608 24.7583C28.838 24.6272 28.8394 24.5898 28.855 24.5164C28.8705 24.442 28.9419 24.3931 28.9419 24.3931" stroke="black" stroke-width="0.0450655"/>
<path d="M29.0577 24.5242C29.0577 24.5242 29.1018 24.5136 29.1239 24.4737C29.1519 24.4255 29.1446 24.3744 29.1446 24.3744C29.0763 24.2421 28.9846 24.3489 28.9846 24.3489C28.9025 24.5168 29.0576 24.5242 29.0576 24.5242" fill="#009B3A"/>
<path d="M29.0577 24.5242C29.0577 24.5242 29.1018 24.5136 29.1239 24.4737C29.1519 24.4255 29.1446 24.3744 29.1446 24.3744C29.0763 24.2421 28.9846 24.3489 28.9846 24.3489C28.9025 24.5168 29.0576 24.5242 29.0576 24.5242" stroke="black" stroke-width="0.0494884"/>
<path d="M29.29 24.2817C29.1882 24.287 29.1381 24.47 29.1381 24.47C29.1381 24.47 29.1216 24.5153 29.0674 24.5502C29.0096 24.5859 29.0437 24.6372 29.0437 24.7283C29.0437 24.8194 28.9802 24.9806 28.9802 24.9806L28.9565 25.0352C28.9565 25.0352 28.9587 25.0762 28.9958 25.0017C29.0589 24.8764 29.1281 24.9069 29.1542 24.772C29.1707 24.6717 29.3367 24.6398 29.3367 24.6398L29.29 24.6311C29.1175 24.5502 29.3 24.3486 29.3295 24.3128C29.3608 24.2772 29.3906 24.2772 29.29 24.2817Z" fill="#009B3A"/>
<path d="M29.29 24.2817C29.1882 24.287 29.1381 24.47 29.1381 24.47C29.1381 24.47 29.1216 24.5153 29.0674 24.5502C29.0096 24.5859 29.0437 24.6372 29.0437 24.7283C29.0437 24.8194 28.9802 24.9806 28.9802 24.9806L28.9565 25.0352C28.9565 25.0352 28.9587 25.0762 28.9958 25.0017C29.0589 24.8764 29.1281 24.9069 29.1542 24.772C29.1707 24.6717 29.3367 24.6398 29.3367 24.6398L29.29 24.6311C29.1175 24.5502 29.3 24.3486 29.3295 24.3128C29.3608 24.2772 29.3906 24.2772 29.29 24.2817" stroke="black" stroke-width="0.0588123"/>
<path d="M29.261 24.4988C29.2144 24.5988 29.3471 24.6037 29.3777 24.5862C29.39 24.579 29.4181 24.5458 29.4181 24.5458C29.4719 24.4684 29.4227 24.4161 29.3946 24.4086C29.3676 24.3996 29.3099 24.3927 29.261 24.4988Z" fill="#009B3A"/>
<path d="M29.261 24.4988C29.2144 24.5988 29.3471 24.6037 29.3777 24.5862C29.39 24.579 29.4181 24.5458 29.4181 24.5458C29.4719 24.4684 29.4227 24.4161 29.3946 24.4086C29.3676 24.3996 29.3099 24.3927 29.261 24.4988" stroke="black" stroke-width="0.0500861"/>
<path d="M29.009 24.1108C29.0438 24.1757 29.141 24.3561 29.1639 24.3449C29.1782 24.3379 29.1669 24.3009 29.1669 24.3009C29.1669 24.3009 29.1639 24.2521 29.1481 24.193C29.1326 24.1335 29.1363 24.0573 29.1053 24.0085C29.0752 23.9597 29.0029 23.9018 28.9744 23.8248C28.9463 23.7475 28.9684 23.6012 28.9707 23.5832C28.9736 23.5664 28.9821 23.5774 28.9671 23.56C28.9519 23.541 28.829 23.4756 28.829 23.4756C28.829 23.4756 28.8362 23.5233 28.8332 23.6097C28.832 23.6306 28.8262 23.655 28.823 23.6914C28.8201 23.726 28.8409 23.7695 28.8913 23.869C28.9498 23.9841 28.9779 24.0547 29.009 24.1108ZM29.7463 23.2523C29.7463 23.2523 29.7108 23.3114 29.6982 23.3244C29.6851 23.3376 29.4848 23.5097 29.4734 23.5169C29.4637 23.5245 29.3591 23.5579 29.2639 23.8151C29.1685 24.0715 29.2098 24.3113 29.2098 24.3113L29.256 24.3056L29.2639 24.2805C29.2639 24.2805 29.2795 24.1954 29.2914 24.1308C29.3047 24.0672 29.3761 23.9782 29.4234 23.9125C29.4686 23.8482 29.505 23.7559 29.505 23.7559C29.5587 23.6477 29.5845 23.551 29.6377 23.4756C29.6398 23.5654 29.2984 24.1176 29.2618 24.3055L29.363 24.2901C29.4437 24.2163 29.5494 24.0613 29.621 23.9614C29.6929 23.8611 29.7235 23.7044 29.7366 23.6349C29.7492 23.5663 29.7463 23.2524 29.7463 23.2524" fill="#009B3A"/>
<path d="M29.7463 23.2523C29.7463 23.2523 29.7108 23.3114 29.6982 23.3244C29.6851 23.3376 29.4848 23.5097 29.4734 23.5169C29.4637 23.5245 29.3591 23.5579 29.2639 23.8151C29.1685 24.0715 29.2098 24.3113 29.2098 24.3113L29.256 24.3056L29.2639 24.2805C29.2639 24.2805 29.2795 24.1954 29.2914 24.1308C29.3047 24.0672 29.3761 23.9782 29.4234 23.9125C29.4686 23.8482 29.505 23.7559 29.505 23.7559C29.5587 23.6477 29.5845 23.551 29.6377 23.4756C29.6398 23.5654 29.2984 24.1176 29.2618 24.3055L29.363 24.2901C29.4437 24.2163 29.5494 24.0613 29.621 23.9614C29.6929 23.8611 29.7235 23.7044 29.7366 23.6349C29.7492 23.5663 29.7463 23.2524 29.7463 23.2524M29.009 24.1108C29.0438 24.1757 29.141 24.3561 29.1639 24.3449C29.1782 24.3379 29.1669 24.3009 29.1669 24.3009C29.1669 24.3009 29.1639 24.2521 29.1481 24.193C29.1326 24.1335 29.1363 24.0573 29.1053 24.0085C29.0752 23.9597 29.0029 23.9018 28.9744 23.8248C28.9463 23.7475 28.9684 23.6012 28.9707 23.5832C28.9736 23.5664 28.9821 23.5774 28.9671 23.56C28.9519 23.541 28.829 23.4756 28.829 23.4756C28.829 23.4756 28.8362 23.5233 28.8332 23.6097C28.832 23.6306 28.8262 23.655 28.823 23.6914C28.8201 23.726 28.8409 23.7695 28.8913 23.869C28.9498 23.9841 28.9779 24.0547 29.009 24.1108V24.1108Z" stroke="black" stroke-width="0.0450655"/>
<path d="M29.0656 23.3092C29.014 23.2615 28.9739 23.2472 28.9739 23.2472C28.9739 23.2472 28.9862 23.3408 28.9862 23.3978C28.9862 23.455 28.9913 23.551 28.9883 23.6022C28.9862 23.6533 28.9608 23.7379 28.9971 23.8207C29.0343 23.9024 29.0761 23.944 29.1057 23.9954C29.1327 24.0458 29.1821 24.3073 29.1821 24.3073C29.1821 24.3073 29.164 23.9537 29.1795 23.8536C29.1939 23.7554 29.1986 23.6022 29.1767 23.5254C29.1538 23.4483 29.1159 23.358 29.0656 23.3092ZM29.3013 22.964C29.3168 22.9337 29.3532 22.8712 29.3684 22.7761C29.3739 22.7358 29.3777 22.6703 29.3762 22.625C29.3751 22.5947 29.3631 22.5422 29.3762 22.5386C29.388 22.5358 29.3782 22.555 29.3848 22.5999C29.3881 22.6158 29.3771 22.6601 29.375 22.7168C29.3724 22.7621 29.3706 22.8 29.3504 22.8613C29.3328 22.9153 29.3487 22.9753 29.3379 22.9922C29.3262 23.0093 29.2951 23.0741 29.2951 23.0741C29.2951 23.0741 29.2761 23.1265 29.2794 23.1741C29.2811 23.2229 29.284 23.2756 29.284 23.2756C29.284 23.2756 29.3066 23.2338 29.3569 23.2268C29.3569 23.2268 29.3684 23.145 29.3684 23.1195C29.3684 23.0938 29.4012 22.9264 29.4178 22.8753C29.4407 22.8003 29.4568 22.6698 29.4205 22.5183C29.4105 22.4773 29.4032 22.3491 29.4032 22.3491C29.4032 22.3491 29.3549 22.3878 29.3262 22.534C29.3174 22.5785 29.3361 22.6976 29.3288 22.8247C29.3259 22.8947 29.2587 23.1787 29.2496 23.1965" fill="#009B3A"/>
<path d="M29.3013 22.964C29.3168 22.9337 29.3532 22.8712 29.3684 22.7761C29.3739 22.7358 29.3777 22.6703 29.3762 22.625C29.3751 22.5947 29.3631 22.5422 29.3762 22.5386C29.388 22.5358 29.3782 22.555 29.3848 22.5999C29.3881 22.6158 29.3771 22.6601 29.375 22.7168C29.3724 22.7621 29.3706 22.8 29.3504 22.8613C29.3328 22.9153 29.3487 22.9753 29.3379 22.9922C29.3262 23.0093 29.2951 23.0741 29.2951 23.0741C29.2951 23.0741 29.2761 23.1265 29.2794 23.1741C29.2811 23.2229 29.284 23.2756 29.284 23.2756C29.284 23.2756 29.3066 23.2338 29.3569 23.2268C29.3569 23.2268 29.3684 23.145 29.3684 23.1195C29.3684 23.0938 29.4012 22.9264 29.4178 22.8753C29.4407 22.8003 29.4568 22.6698 29.4205 22.5183C29.4105 22.4773 29.4032 22.3491 29.4032 22.3491C29.4032 22.3491 29.3549 22.3878 29.3262 22.534C29.3174 22.5785 29.3361 22.6976 29.3288 22.8247C29.3259 22.8947 29.2587 23.1787 29.2496 23.1965M29.0656 23.3092C29.014 23.2615 28.9739 23.2472 28.9739 23.2472C28.9739 23.2472 28.9862 23.3408 28.9862 23.3978C28.9862 23.455 28.9913 23.551 28.9883 23.6022C28.9862 23.6533 28.9608 23.7379 28.9971 23.8207C29.0343 23.9024 29.0761 23.944 29.1057 23.9954C29.1327 24.0458 29.1821 24.3073 29.1821 24.3073C29.1821 24.3073 29.164 23.9537 29.1795 23.8536C29.1939 23.7554 29.1986 23.6022 29.1767 23.5254C29.1538 23.4483 29.1159 23.358 29.0656 23.3092V23.3092Z" stroke="black" stroke-width="0.0450655"/>
<path d="M29.3013 22.964C29.2989 22.9683 29.298 22.9701 29.298 22.9701C29.298 22.9701 29.3001 22.9683 29.3013 22.964Z" fill="#009B3A" stroke="black" stroke-width="0.0450655"/>
<path d="M29.1108 22.227C29.1366 22.227 29.1366 22.2549 29.1313 22.2769C29.1273 22.2996 29.1279 22.3418 29.1279 22.3504C29.1279 22.3604 29.1386 22.4205 29.1472 22.4519C29.1565 22.4842 29.1727 22.4944 29.1656 22.5591C29.1608 22.5999 29.119 22.6478 29.1337 22.717C29.1416 22.7534 29.1677 22.7915 29.1806 22.8228C29.1913 22.8446 29.1855 22.8979 29.1885 22.9415C29.1896 22.9839 29.213 23.0126 29.213 23.0126C29.213 23.0126 29.184 23.0668 29.1744 22.999C29.1638 22.9213 29.1603 22.8868 29.1454 22.8517C29.1211 22.794 29.0988 22.6905 29.1366 22.6106C29.143 22.5952 29.1481 22.5665 29.1481 22.5324C29.1481 22.4978 29.1268 22.4387 29.1227 22.4021C29.1191 22.373 29.1215 22.3117 29.1215 22.2895L29.1108 22.227ZM28.9861 22.6147C28.9922 22.6585 29.0063 22.6835 29.0558 22.7789C29.071 22.8104 29.1056 22.8906 29.1108 22.9161C29.117 22.9417 29.1223 22.9726 29.1223 22.9804C29.1223 22.9888 29.1279 23.049 29.1279 23.049V23.074C29.1279 23.074 28.9907 22.9941 28.9307 22.9513C28.871 22.9083 28.8031 22.8493 28.7597 22.8136C28.7105 22.7731 28.5933 22.6342 28.5918 22.5229L28.538 22.474C28.538 22.474 28.4969 22.7214 28.6908 22.8815C28.7468 22.9274 28.8077 22.9781 28.938 23.0371C29.0687 23.0973 29.0515 23.1512 29.106 23.2669C29.1596 23.3831 29.1932 23.45 29.1999 23.4829C29.2046 23.518 29.1851 24.0122 29.1851 24.0122L29.1897 24.0571C29.1897 24.0571 29.3091 23.5992 29.3665 23.5481C29.3665 23.5481 29.2527 23.5306 29.2617 23.3516L29.2417 23.2336C29.2417 23.2336 29.2189 23.0917 29.2617 23.0036C29.2617 23.0036 29.3124 22.8423 29.2951 22.7028C29.2843 22.6193 29.2804 22.5944 29.2702 22.5144C29.2547 22.3899 29.2048 22.2121 29.1993 22.1906C29.1822 22.1281 29.1764 22.1185 29.1565 22.0691C29.1506 22.0517 29.1395 21.994 29.1211 21.9932C29.1105 21.9926 29.0944 22.0673 29.0944 22.0673C29.0944 22.0673 29.0705 22.1487 29.0655 22.1708C29.0499 22.2365 29.0136 22.2917 28.997 22.4394C28.994 22.4661 28.991 22.5382 28.9878 22.5479C28.9861 22.556 28.9826 22.5984 28.9861 22.6147Z" fill="#009B3A"/>
<path d="M28.9861 22.6147C28.9922 22.6585 29.0063 22.6835 29.0558 22.7789C29.071 22.8104 29.1056 22.8906 29.1108 22.9161C29.117 22.9417 29.1223 22.9726 29.1223 22.9804C29.1223 22.9888 29.1279 23.049 29.1279 23.049V23.074C29.1279 23.074 28.9907 22.9941 28.9307 22.9513C28.871 22.9083 28.8031 22.8493 28.7597 22.8136C28.7105 22.7731 28.5933 22.6342 28.5918 22.5229L28.538 22.474C28.538 22.474 28.4969 22.7214 28.6908 22.8815C28.7468 22.9274 28.8077 22.9781 28.938 23.0371C29.0687 23.0973 29.0515 23.1512 29.106 23.2669C29.1596 23.3831 29.1932 23.45 29.1999 23.4829C29.2046 23.518 29.1851 24.0122 29.1851 24.0122L29.1897 24.0571C29.1897 24.0571 29.3091 23.5992 29.3665 23.5481C29.3665 23.5481 29.2527 23.5306 29.2617 23.3516L29.2417 23.2336C29.2417 23.2336 29.2189 23.0917 29.2617 23.0036C29.2617 23.0036 29.3124 22.8423 29.2951 22.7028C29.2843 22.6193 29.2804 22.5944 29.2702 22.5144C29.2547 22.3899 29.2048 22.2121 29.1993 22.1906C29.1822 22.1281 29.1764 22.1185 29.1565 22.0691C29.1506 22.0517 29.1395 21.994 29.1211 21.9932C29.1105 21.9926 29.0944 22.0673 29.0944 22.0673C29.0944 22.0673 29.0705 22.1487 29.0655 22.1708C29.0499 22.2365 29.0136 22.2917 28.997 22.4394C28.994 22.4661 28.991 22.5382 28.9878 22.5479C28.9861 22.556 28.9826 22.5984 28.9861 22.6147M29.1108 22.227C29.1366 22.227 29.1366 22.2549 29.1313 22.2769C29.1273 22.2996 29.1279 22.3418 29.1279 22.3504C29.1279 22.3604 29.1386 22.4205 29.1472 22.4519C29.1565 22.4842 29.1727 22.4944 29.1656 22.5591C29.1608 22.5999 29.119 22.6478 29.1337 22.717C29.1416 22.7534 29.1677 22.7915 29.1806 22.8228C29.1913 22.8446 29.1855 22.8979 29.1885 22.9415C29.1896 22.9839 29.213 23.0126 29.213 23.0126C29.213 23.0126 29.184 23.0668 29.1744 22.999C29.1638 22.9213 29.1603 22.8868 29.1454 22.8517C29.1211 22.794 29.0988 22.6905 29.1366 22.6106C29.143 22.5952 29.1481 22.5665 29.1481 22.5324C29.1481 22.4978 29.1268 22.4387 29.1227 22.4021C29.1191 22.373 29.1215 22.3117 29.1215 22.2895L29.1108 22.227Z" stroke="black" stroke-width="0.0450655"/>
<path d="M29.0879 23.2393C29.0879 23.2393 29.068 23.1951 29.0477 23.1724C29.0071 23.1245 28.9523 23.0838 28.7965 23.0077C28.6413 22.9303 28.6003 22.8032 28.5212 22.7509C28.4849 22.7259 28.4146 22.714 28.4146 22.714C28.4146 22.714 28.4837 22.8091 28.5001 22.8419C28.5212 22.8838 28.5262 22.9123 28.6117 22.9919C28.6966 23.0719 28.8003 23.0998 28.8671 23.1196C28.9614 23.1489 29.0879 23.2394 29.0879 23.2394V23.2393ZM28.5987 22.5047C28.6029 22.5173 28.6429 22.6539 28.727 22.76C28.8555 22.9225 29.103 23.0386 29.103 23.0386C29.0798 22.9374 29.0395 22.8205 29.0076 22.7688C28.895 22.5871 28.5979 22.498 28.5979 22.498C28.5979 22.498 28.5926 22.4911 28.5987 22.5047ZM28.9535 22.5813C29.0201 22.4355 28.8213 22.2962 28.7652 22.1946C28.786 22.1781 28.8106 22.2214 28.8333 22.2502C28.8659 22.2935 28.9576 22.4188 28.9576 22.4188L28.986 22.2854L28.7493 22.0699C28.7464 22.1013 28.6732 22.127 28.6732 22.127C28.6378 22.3264 28.9535 22.5813 28.9535 22.5813" fill="#009B3A"/>
<path d="M28.9535 22.5813C29.0201 22.4355 28.8213 22.2962 28.7652 22.1946C28.786 22.1781 28.8106 22.2214 28.8333 22.2502C28.8659 22.2935 28.9576 22.4188 28.9576 22.4188L28.986 22.2854L28.7493 22.0699C28.7464 22.1013 28.6732 22.127 28.6732 22.127C28.6378 22.3264 28.9535 22.5813 28.9535 22.5813M29.0879 23.2393C29.0879 23.2393 29.068 23.1951 29.0477 23.1724C29.0071 23.1245 28.9523 23.0838 28.7965 23.0077C28.6413 22.9303 28.6003 22.8032 28.5212 22.7509C28.4849 22.7259 28.4146 22.714 28.4146 22.714C28.4146 22.714 28.4837 22.8091 28.5001 22.8419C28.5212 22.8838 28.5262 22.9123 28.6117 22.9919C28.6966 23.0719 28.8003 23.0998 28.8671 23.1196C28.9614 23.1489 29.0879 23.2394 29.0879 23.2394V23.2393ZM28.5987 22.5047C28.6029 22.5173 28.6429 22.6539 28.727 22.76C28.8555 22.9225 29.103 23.0386 29.103 23.0386C29.0798 22.9374 29.0395 22.8205 29.0076 22.7688C28.895 22.5871 28.5979 22.498 28.5979 22.498C28.5979 22.498 28.5926 22.4911 28.5987 22.5047V22.5047Z" stroke="black" stroke-width="0.0450655"/>
<path d="M28.5413 22.2434C28.4842 22.269 28.4639 22.269 28.4639 22.269L28.4958 22.3535L28.5143 22.3764C28.5143 22.3764 28.5887 22.484 28.632 22.4974C28.6501 22.5041 28.7178 22.5159 28.7858 22.5451C28.8713 22.5814 29.0108 22.7034 29.0108 22.7034C29.0108 22.7034 28.7787 22.4417 28.6897 22.2454L28.6597 22.1323L28.5755 22.1379C28.5755 22.1379 28.5986 22.2173 28.5413 22.2435" fill="#009B3A"/>
<path d="M28.5413 22.2434C28.4842 22.269 28.4639 22.269 28.4639 22.269L28.4958 22.3535L28.5143 22.3764C28.5143 22.3764 28.5887 22.484 28.632 22.4974C28.6501 22.5041 28.7178 22.5159 28.7858 22.5451C28.8713 22.5814 29.0108 22.7034 29.0108 22.7034C29.0108 22.7034 28.7787 22.4417 28.6897 22.2454L28.6597 22.1323L28.5755 22.1379C28.5755 22.1379 28.5986 22.2173 28.5413 22.2435" stroke="black" stroke-width="0.0450655"/>
<path d="M27.6725 22.076C27.7115 22.1111 27.7538 22.1425 27.7987 22.1696C27.8499 22.2004 27.9976 22.2873 28.108 22.3083C28.1338 22.3123 28.2725 22.3298 28.2725 22.3298C28.278 22.269 28.344 22.2637 28.344 22.2637L28.1475 22.2422C27.9891 22.2305 27.8685 22.1643 27.7747 22.0582C27.9005 22.1346 28.0815 22.2548 28.2282 22.2483C28.8304 22.1891 28.0467 22.1742 27.9788 22.1306C27.9067 22.0861 27.8453 22.0123 27.8453 22.0123L27.6687 22.0044C27.6687 22.0044 27.5819 21.9989 27.6725 22.076Z" fill="#009B3A"/>
<path d="M27.6725 22.076C27.7115 22.1111 27.7538 22.1425 27.7987 22.1696C27.8499 22.2004 27.9976 22.2873 28.108 22.3083C28.1338 22.3123 28.2725 22.3298 28.2725 22.3298C28.278 22.269 28.344 22.2637 28.344 22.2637L28.1475 22.2422C27.9891 22.2305 27.8685 22.1643 27.7747 22.0582C27.9005 22.1346 28.0815 22.2548 28.2282 22.2483C28.8304 22.1891 28.0467 22.1742 27.9788 22.1306C27.9067 22.0861 27.8453 22.0123 27.8453 22.0123L27.6687 22.0044C27.6687 22.0044 27.5819 21.9989 27.6725 22.076" stroke="black" stroke-width="0.0450655"/>
<path d="M28.3814 22.4189C28.4204 22.416 28.4476 22.4087 28.4564 22.3661C28.4643 22.3184 28.4462 22.2838 28.3888 22.2712C28.3568 22.2633 28.3009 22.2616 28.2781 22.3184C28.2532 22.3765 28.3436 22.4138 28.3436 22.4138C28.3436 22.4138 28.3609 22.4213 28.3814 22.4189ZM28.4489 22.0737C28.398 22.0737 28.3807 22.1153 28.3916 22.1963C28.405 22.2781 28.5301 22.2423 28.5301 22.2423L28.5532 22.2304C28.5532 22.2304 28.5702 22.2172 28.5608 22.1522C28.552 22.0856 28.5002 22.0737 28.4489 22.0737H28.4489ZM28.6537 22.131H28.6517C28.6507 22.1316 28.6537 22.131 28.6537 22.131Z" fill="#009B3A" stroke="black" stroke-width="0.0450655"/>
<path d="M28.6518 22.131C28.6532 22.1304 28.6567 22.1286 28.6699 22.1249C28.6959 22.1151 28.7223 22.0525 28.7223 22.0525C28.7355 21.968 28.675 21.9471 28.675 21.9471C28.5729 21.9267 28.5703 22.0162 28.5703 22.0162C28.5422 22.1328 28.6368 22.1316 28.6517 22.131L28.6518 22.131ZM28.1978 21.7307C28.2034 21.7694 28.2584 21.8255 28.267 21.8351C28.2769 21.8438 28.3473 21.9171 28.371 21.9499C28.3947 21.9828 28.4735 22.1317 28.4735 22.1317C28.4735 22.1317 28.4873 22.1295 28.4931 22.1181C28.5069 22.0949 28.4403 21.9144 28.4336 21.902C28.4092 21.8472 28.3694 21.8063 28.3293 21.7636C28.32 21.7575 28.2871 21.7153 28.2511 21.67C28.3224 21.7612 28.5052 22.0206 28.559 22.1359C28.559 22.1359 28.5525 22.013 28.5457 21.947C28.523 21.7545 28.4728 21.695 28.4567 21.6671C28.4284 21.6151 28.3563 21.5645 28.3047 21.5467C28.2532 21.5281 28.1923 21.5025 28.127 21.4816C28.0596 21.461 28.1115 21.5217 28.1363 21.5741C28.1674 21.636 28.1923 21.6915 28.1979 21.7308" fill="#009B3A"/>
<path d="M28.1978 21.7307C28.2034 21.7694 28.2584 21.8255 28.267 21.8351C28.2769 21.8438 28.3473 21.9171 28.371 21.9499C28.3947 21.9828 28.4735 22.1317 28.4735 22.1317C28.4735 22.1317 28.4873 22.1295 28.4931 22.1181C28.5069 22.0949 28.4403 21.9144 28.4336 21.902C28.4092 21.8472 28.3694 21.8063 28.3293 21.7636C28.32 21.7575 28.2871 21.7153 28.2511 21.67C28.3224 21.7612 28.5052 22.0206 28.559 22.1359C28.559 22.1359 28.5525 22.013 28.5457 21.947C28.523 21.7545 28.4728 21.695 28.4567 21.6671C28.4284 21.6151 28.3563 21.5645 28.3047 21.5467C28.2532 21.5281 28.1923 21.5025 28.127 21.4816C28.0596 21.461 28.1115 21.5217 28.1363 21.5741C28.1674 21.636 28.1923 21.6915 28.1979 21.7308M28.6518 22.131C28.6532 22.1304 28.6567 22.1286 28.6699 22.1249C28.6959 22.1151 28.7223 22.0525 28.7223 22.0525C28.7355 21.968 28.675 21.9471 28.675 21.9471C28.5729 21.9267 28.5703 22.0162 28.5703 22.0162C28.5422 22.1328 28.6368 22.1316 28.6517 22.131L28.6518 22.131Z" stroke="black" stroke-width="0.0450655"/>
<path d="M27.9465 22.0473C28.013 22.1037 28.0428 22.1429 28.1807 22.1633C28.3198 22.1851 28.3315 22.1758 28.3315 22.1758C28.3315 22.1758 28.4037 22.141 28.367 22.1104C28.1626 22.0205 27.9691 21.9135 27.8708 21.7932C27.8708 21.7932 27.8879 21.7767 27.9587 21.8476C27.9998 21.8892 28.0273 21.9101 28.0525 21.9296C28.1268 21.9816 28.1591 21.9964 28.2332 22.0368C28.2727 22.0584 28.3714 22.0816 28.3714 22.0816C28.3714 22.0816 28.3855 22.0517 28.398 22.0481C28.4101 22.0453 28.3904 21.9984 28.3046 21.9289C28.2568 21.8894 28.2147 21.8436 28.1793 21.7928C28.1793 21.7928 28.0776 21.7706 27.9676 21.7522C27.8855 21.7392 27.7312 21.6194 27.7339 21.6519C27.7367 21.6854 27.757 21.7892 27.7986 21.8552C27.8404 21.9214 27.8803 21.9892 27.9465 22.0474" fill="#009B3A"/>
<path d="M27.9465 22.0473C28.013 22.1037 28.0428 22.1429 28.1807 22.1633C28.3198 22.1851 28.3315 22.1758 28.3315 22.1758C28.3315 22.1758 28.4037 22.141 28.367 22.1104C28.1626 22.0205 27.9691 21.9135 27.8708 21.7932C27.8708 21.7932 27.8879 21.7767 27.9587 21.8476C27.9998 21.8892 28.0273 21.9101 28.0525 21.9296C28.1268 21.9816 28.1591 21.9964 28.2332 22.0368C28.2727 22.0584 28.3714 22.0816 28.3714 22.0816C28.3714 22.0816 28.3855 22.0517 28.398 22.0481C28.4101 22.0453 28.3904 21.9984 28.3046 21.9289C28.2568 21.8894 28.2147 21.8436 28.1793 21.7928C28.1793 21.7928 28.0776 21.7706 27.9676 21.7522C27.8855 21.7392 27.7312 21.6194 27.7339 21.6519C27.7367 21.6854 27.757 21.7892 27.7986 21.8552C27.8404 21.9214 27.8803 21.9892 27.9465 22.0474" stroke="black" stroke-width="0.0450655"/>
<path d="M26.7974 26.2063C26.7371 26.224 26.285 26.3938 26.285 26.3938L26.1588 26.4443C26.3331 26.4051 26.4666 26.4929 26.4666 26.4929L26.9702 26.2598C26.9702 26.2598 26.9687 26.2522 26.9562 26.2432C26.943 26.2342 26.8583 26.1879 26.7974 26.2063Z" fill="#009B3A"/>
<path d="M26.7974 26.2063C26.7371 26.224 26.285 26.3938 26.285 26.3938L26.1588 26.4443C26.3331 26.4051 26.4666 26.4929 26.4666 26.4929L26.9702 26.2598C26.9702 26.2598 26.9687 26.2522 26.9562 26.2432C26.943 26.2342 26.8583 26.1879 26.7974 26.2063" stroke="black" stroke-width="0.0359807"/>
<path d="M26.1398 26.4596C26.1364 26.4625 26.133 26.4745 26.1418 26.4783C26.1669 26.4922 26.1602 26.4977 26.2743 26.5114C26.3893 26.5239 26.4643 26.5021 26.484 26.4803C26.5071 26.455 26.199 26.4079 26.1397 26.4596" fill="#009B3A"/>
<path d="M26.1398 26.4596C26.1364 26.4625 26.133 26.4745 26.1418 26.4783C26.1669 26.4922 26.1602 26.4977 26.2743 26.5114C26.3893 26.5239 26.4643 26.5021 26.484 26.4803C26.5071 26.455 26.199 26.4079 26.1397 26.4596" stroke="black" stroke-width="0.038491"/>
<path d="M25.4164 24.8334L25.3954 24.6921C25.3954 24.6921 25.3691 24.3101 25.3258 24.2335C25.3174 24.2165 25.3212 24.1768 25.2937 24.1761C25.2409 24.1722 25.2409 24.2965 25.2345 24.4091C25.1488 24.9769 25.6017 25.4104 25.6017 25.4104L25.4164 24.8334Z" fill="#009B3A" stroke="black" stroke-width="0.0499665"/>
<path d="M27.6574 26.5158C27.6574 26.5158 27.6099 26.5052 27.64 26.4681C27.6688 26.4328 27.7544 26.4139 27.7716 26.4139C27.7884 26.4132 27.8365 26.4174 27.8722 26.4274C27.9083 26.4363 27.9582 26.4681 27.9436 26.4911C27.9284 26.5131 27.8796 26.5405 27.8129 26.5405C27.7557 26.5405 27.7264 26.539 27.7012 26.5319C27.6768 26.5226 27.6574 26.5158 27.6574 26.5158" fill="#009B3A"/>
<path d="M27.6574 26.5158C27.6574 26.5158 27.6099 26.5052 27.64 26.4681C27.6688 26.4328 27.7544 26.4139 27.7716 26.4139C27.7884 26.4132 27.8365 26.4174 27.8722 26.4274C27.9083 26.4363 27.9582 26.4681 27.9436 26.4911C27.9284 26.5131 27.8796 26.5405 27.8129 26.5405C27.7557 26.5405 27.7264 26.539 27.7012 26.5319C27.6768 26.5226 27.6574 26.5158 27.6574 26.5158" stroke="black" stroke-width="0.0460218"/>
<path d="M27.1665 26.2456C27.1665 26.2456 27.011 26.1741 26.8637 26.1021C26.6694 26.0072 26.436 25.8755 26.2735 25.6339C26.07 25.3349 25.893 25.1747 25.8503 25.1425C25.8063 25.1102 25.8 25.0982 25.7838 25.121C25.7692 25.1407 25.7794 25.1578 25.7917 25.1787C25.8336 25.2468 25.9364 25.3747 25.9733 25.4433C26.0368 25.566 26.1684 25.6999 26.1672 25.7794C26.1672 25.7904 26.1288 25.7715 26.1288 25.7715C26.1288 25.7715 25.821 25.666 25.6963 25.2931C25.6055 25.0227 25.6441 24.9433 25.623 24.8082C25.587 24.568 25.5797 24.5485 25.4608 24.2794C25.4576 24.2727 25.3881 24.1602 25.3788 24.1852C25.3659 24.2174 25.3905 24.3378 25.3905 24.3378L25.4031 24.4765C25.4031 24.4765 25.3931 24.7843 25.3931 24.8029C25.3931 24.8216 25.3156 25.0137 25.6449 25.3367C25.6449 25.3367 25.65 25.3915 25.6057 25.3432C25.5744 25.3087 25.3386 25.1276 25.2669 24.8297C25.193 24.5317 25.1823 24.2334 25.2382 24.1096C25.2888 23.9977 25.3905 23.7241 25.3472 23.4851C25.3422 23.4602 25.3351 23.3869 25.3193 23.4061C25.3126 23.4155 25.283 23.5364 25.2651 23.5783C25.2402 23.6355 25.2016 23.6918 25.1896 23.7314C25.1664 23.7985 25.0528 23.9023 25.075 24.0933C25.1002 24.3128 25.1146 24.3471 25.141 24.4253C25.15 24.4538 25.1721 24.5264 25.1577 24.5337C25.1445 24.5407 25.0979 24.4468 25.0979 24.4468C25.0979 24.4468 24.8893 24.0369 25.018 23.7044C25.148 23.3733 25.4742 23.0593 25.4742 23.0593C25.4742 23.0593 25.7393 22.8395 25.7932 22.7884C25.8143 22.7686 25.8093 22.7538 25.8023 22.7561C25.7364 22.7727 25.2264 22.8782 25.0473 23.4857C25.0473 23.4857 25.0379 23.5113 25.0247 23.505C25.0083 23.4976 25.0247 23.4691 25.0247 23.4691C25.0247 23.4691 25.1369 23.0384 25.4516 22.8431C25.7952 22.6288 25.7549 22.6602 25.8685 22.5927C25.94 22.5483 26.0046 22.4887 26.0846 22.3564C26.0928 22.3417 26.1252 22.2646 26.1209 22.2515C26.1174 22.2384 26.1019 22.2564 26.0946 22.2782C26.0946 22.2782 25.9973 22.4285 25.8517 22.4791C25.7057 22.5297 25.587 22.4575 25.4403 22.6198C25.2933 22.7829 25.1764 23.0087 25.1764 23.0087C25.1764 23.0087 25.138 23.0672 25.1296 23.0654C25.1134 23.0605 25.1374 23.0032 25.1374 23.0032C25.1374 23.0032 25.3337 22.5869 25.4913 22.5024C25.6491 22.4171 25.7896 22.3354 25.8793 22.2663C25.9883 22.1808 26.176 21.9716 26.2436 21.8995C26.258 21.8841 26.3588 21.782 26.381 21.7489C26.3944 21.7308 26.4264 21.7046 26.4212 21.7001C26.4068 21.6893 26.3112 21.7352 26.3112 21.7352C26.3112 21.7352 25.7916 21.8784 25.4683 22.3668C25.4533 22.3895 25.4178 22.4356 25.3987 22.455C25.3641 22.4908 25.3469 22.5505 25.3469 22.5505C25.3258 22.533 25.5296 22.2782 25.5296 22.2782L25.5653 22.1134C25.5653 22.1134 25.6257 21.8658 25.7525 21.691C25.7651 21.6751 25.84 21.5994 25.8527 21.5837C25.8778 21.5565 25.8049 21.6076 25.8178 21.5962C25.8178 21.5962 25.3331 21.9442 25.3331 22.3826C25.3331 22.4613 25.2842 22.5332 25.2165 22.6311C25.1374 22.7448 25.1111 22.8146 25.0768 22.9837C25.0626 23.0549 25.0477 23.1259 25.0323 23.1968C25.0323 23.1968 25.037 23.2593 25.0168 23.2547C24.9957 23.25 25.003 23.1983 25.003 23.1983C25.003 23.1983 25.0525 22.8715 25.0877 22.7709C25.1219 22.6733 25.1444 22.6067 25.1444 22.6067C25.1444 22.6067 25.1242 22.3611 25.1787 22.2264C25.225 22.109 25.3422 21.9544 25.3603 21.9157C25.3682 21.8989 25.4224 21.7887 25.4376 21.6632C25.4397 21.6463 25.4265 21.6603 25.4046 21.7093C25.3512 21.8294 25.3067 21.8608 25.2191 21.9738C25.2191 21.9738 24.9945 22.1366 24.9131 22.6209C24.9131 22.6209 24.9104 22.8014 24.883 23.0843C24.8631 23.2916 24.88 23.4857 24.9035 23.6027C24.9184 23.6741 24.9468 23.6747 24.9293 23.6834C24.9183 23.689 24.9362 23.6844 24.9107 23.6303C24.8797 23.5655 24.8559 23.4657 24.8559 23.3279C24.8559 23.0753 24.8778 22.8725 24.8778 22.8725C24.8778 22.8725 24.8943 22.4642 24.725 22.2802C24.7169 22.2706 24.7547 22.3628 24.7717 22.4547C24.7925 22.5687 24.7547 22.7268 24.7436 22.7884C24.7328 22.8503 24.6199 23.1201 24.6598 23.3733C24.6598 23.3733 24.7552 23.8026 24.8782 24.0108C24.8782 24.0108 24.9547 24.1004 24.8871 24.0164C24.82 23.9323 24.6823 23.5982 24.6704 23.5698C24.6598 23.5425 24.5611 23.3345 24.4682 23.25C24.4202 23.2052 24.2881 23.1259 24.2881 23.1259C24.2881 23.1259 24.2164 23.0712 24.2708 23.1439C24.3138 23.2012 24.3716 23.304 24.3991 23.3489C24.4563 23.4414 24.5072 23.5377 24.5514 23.6371C24.5956 23.7343 24.6984 24.0201 24.6984 24.0201L24.7642 24.2013C24.7642 24.2013 24.8745 24.2625 24.9345 24.3293C24.9837 24.3834 25.0856 24.5075 25.1703 24.7285C25.2083 24.8262 25.2843 24.9156 25.2843 24.9156C25.2843 24.9156 25.2682 24.9467 25.2005 24.8296C25.1338 24.7109 25.0684 24.4883 24.9076 24.3152C24.7855 24.1822 24.4568 24.0483 24.4568 24.0483C24.4568 24.0483 24.668 24.4163 24.7204 24.482C24.8091 24.5872 24.9374 24.7348 24.9705 24.7739C25.0048 24.8137 25.2034 25.059 25.2327 25.0983C25.2789 25.1596 25.3094 25.1866 25.3337 25.2116C25.386 25.2674 25.5412 25.3692 25.5533 25.3852C25.5556 25.4014 25.5587 25.3881 25.5455 25.3784C25.4767 25.3374 25.3945 25.2726 25.3096 25.2174C25.2249 25.1612 24.8981 25.0217 24.6779 24.7183C24.6258 24.6285 24.6009 24.5928 24.5833 24.602C24.5564 24.6163 24.7316 25.1959 25.0918 25.3802C25.0918 25.3802 25.4892 25.557 25.5773 25.6102C25.6257 25.6392 25.7232 25.6822 25.7683 25.7186C25.7941 25.7399 25.7449 25.7387 25.7416 25.7381C25.5305 25.7216 25.2274 25.6936 25.0413 25.5857C25.0413 25.5857 24.9614 25.5296 25.027 25.6084C25.0792 25.6694 25.1781 25.8197 25.3691 25.9043C25.5604 25.9883 25.8383 26.0372 25.94 26.0424C26.0398 26.048 26.3959 26.0497 26.4641 26.0718C26.5309 26.0944 26.6446 26.1672 26.7096 26.1882C26.7687 26.2073 26.9471 26.2757 26.9471 26.2757C26.9471 26.2757 27.0007 26.3051 27.0294 26.3155C27.0616 26.3283 27.1952 26.3271 27.2047 26.3022C27.2136 26.2797 27.1665 26.2456 27.1665 26.2456Z" fill="#009B3A"/>
<path d="M27.1665 26.2456C27.1665 26.2456 27.011 26.1741 26.8637 26.1021C26.6694 26.0072 26.436 25.8755 26.2735 25.6339C26.07 25.3349 25.893 25.1747 25.8503 25.1425C25.8063 25.1102 25.8 25.0982 25.7838 25.121C25.7692 25.1407 25.7794 25.1578 25.7917 25.1787C25.8336 25.2468 25.9364 25.3747 25.9733 25.4433C26.0368 25.566 26.1684 25.6999 26.1672 25.7794C26.1672 25.7904 26.1288 25.7715 26.1288 25.7715C26.1288 25.7715 25.821 25.666 25.6963 25.2931C25.6055 25.0227 25.6441 24.9433 25.623 24.8082C25.587 24.568 25.5797 24.5485 25.4608 24.2794C25.4576 24.2727 25.3881 24.1602 25.3788 24.1852C25.3659 24.2174 25.3905 24.3378 25.3905 24.3378L25.4031 24.4765C25.4031 24.4765 25.3931 24.7843 25.3931 24.8029C25.3931 24.8216 25.3156 25.0137 25.6449 25.3367C25.6449 25.3367 25.65 25.3915 25.6057 25.3432C25.5744 25.3087 25.3386 25.1276 25.2669 24.8297C25.193 24.5317 25.1823 24.2334 25.2382 24.1096C25.2888 23.9977 25.3905 23.7241 25.3472 23.4851C25.3422 23.4602 25.3351 23.3869 25.3193 23.4061C25.3126 23.4155 25.283 23.5364 25.2651 23.5783C25.2402 23.6355 25.2016 23.6918 25.1896 23.7314C25.1664 23.7985 25.0528 23.9023 25.0751 24.0933C25.1002 24.3128 25.1146 24.3471 25.141 24.4253C25.15 24.4538 25.1721 24.5264 25.1577 24.5337C25.1445 24.5407 25.0979 24.4468 25.0979 24.4468C25.0979 24.4468 24.8893 24.0369 25.018 23.7044C25.148 23.3733 25.4742 23.0593 25.4742 23.0593C25.4742 23.0593 25.7393 22.8395 25.7932 22.7884C25.8143 22.7686 25.8093 22.7538 25.8023 22.7561C25.7364 22.7727 25.2264 22.8782 25.0473 23.4857C25.0473 23.4857 25.0379 23.5113 25.0247 23.505C25.0083 23.4976 25.0247 23.4691 25.0247 23.4691C25.0247 23.4691 25.1369 23.0384 25.4516 22.8431C25.7952 22.6288 25.7549 22.6602 25.8685 22.5927C25.94 22.5483 26.0046 22.4887 26.0846 22.3564C26.0928 22.3417 26.1252 22.2646 26.1209 22.2515C26.1174 22.2384 26.1019 22.2564 26.0946 22.2782C26.0946 22.2782 25.9973 22.4285 25.8517 22.4791C25.7057 22.5297 25.587 22.4575 25.4403 22.6198C25.2933 22.7829 25.1764 23.0087 25.1764 23.0087C25.1764 23.0087 25.138 23.0672 25.1296 23.0654C25.1134 23.0605 25.1374 23.0032 25.1374 23.0032C25.1374 23.0032 25.3337 22.5869 25.4913 22.5024C25.6491 22.4171 25.7896 22.3354 25.8793 22.2663C25.9883 22.1808 26.176 21.9716 26.2436 21.8995C26.258 21.8841 26.3588 21.782 26.381 21.7489C26.3944 21.7308 26.4264 21.7046 26.4212 21.7001C26.4068 21.6893 26.3112 21.7352 26.3112 21.7352C26.3112 21.7352 25.7916 21.8784 25.4683 22.3668C25.4533 22.3895 25.4178 22.4356 25.3987 22.455C25.3641 22.4908 25.3469 22.5505 25.3469 22.5505C25.3258 22.533 25.5296 22.2782 25.5296 22.2782L25.5653 22.1134C25.5653 22.1134 25.6257 21.8658 25.7525 21.691C25.7651 21.6751 25.84 21.5994 25.8527 21.5837C25.8778 21.5565 25.8049 21.6076 25.8178 21.5962C25.8178 21.5962 25.3331 21.9442 25.3331 22.3826C25.3331 22.4613 25.2842 22.5332 25.2165 22.6311C25.1374 22.7448 25.1111 22.8146 25.0768 22.9837C25.0626 23.0549 25.0477 23.1259 25.0323 23.1968C25.0323 23.1968 25.037 23.2593 25.0168 23.2547C24.9957 23.25 25.003 23.1983 25.003 23.1983C25.003 23.1983 25.0525 22.8715 25.0877 22.7709C25.1219 22.6733 25.1444 22.6067 25.1444 22.6067C25.1444 22.6067 25.1242 22.3611 25.1787 22.2264C25.225 22.109 25.3422 21.9544 25.3603 21.9157C25.3682 21.8989 25.4224 21.7887 25.4376 21.6632C25.4397 21.6463 25.4265 21.6603 25.4046 21.7093C25.3512 21.8294 25.3067 21.8608 25.2191 21.9738C25.2191 21.9738 24.9945 22.1366 24.9131 22.6209C24.9131 22.6209 24.9104 22.8014 24.883 23.0843C24.8631 23.2916 24.88 23.4857 24.9035 23.6027C24.9184 23.6741 24.9468 23.6747 24.9293 23.6834C24.9183 23.689 24.9362 23.6844 24.9107 23.6303C24.8797 23.5655 24.8559 23.4657 24.8559 23.3279C24.8559 23.0753 24.8778 22.8725 24.8778 22.8725C24.8778 22.8725 24.8943 22.4642 24.725 22.2802C24.7169 22.2706 24.7547 22.3628 24.7717 22.4547C24.7925 22.5687 24.7547 22.7268 24.7436 22.7884C24.7328 22.8503 24.6199 23.1201 24.6598 23.3733C24.6598 23.3733 24.7552 23.8026 24.8782 24.0108C24.8782 24.0108 24.9547 24.1004 24.8871 24.0164C24.82 23.9323 24.6823 23.5982 24.6704 23.5698C24.6598 23.5425 24.5611 23.3345 24.4682 23.25C24.4202 23.2052 24.2881 23.1259 24.2881 23.1259C24.2881 23.1259 24.2164 23.0712 24.2708 23.1439C24.3138 23.2012 24.3716 23.304 24.3991 23.3489C24.4563 23.4414 24.5072 23.5377 24.5514 23.6371C24.5956 23.7343 24.6984 24.0201 24.6984 24.0201L24.7642 24.2013C24.7642 24.2013 24.8745 24.2625 24.9345 24.3293C24.9837 24.3834 25.0856 24.5075 25.1703 24.7285C25.2083 24.8262 25.2843 24.9156 25.2843 24.9156C25.2843 24.9156 25.2682 24.9467 25.2005 24.8296C25.1338 24.7109 25.0684 24.4883 24.9076 24.3152C24.7855 24.1822 24.4568 24.0483 24.4568 24.0483C24.4568 24.0483 24.668 24.4163 24.7204 24.482C24.8091 24.5872 24.9374 24.7348 24.9705 24.7739C25.0048 24.8137 25.2034 25.059 25.2327 25.0983C25.2789 25.1596 25.3094 25.1866 25.3337 25.2116C25.386 25.2674 25.5412 25.3692 25.5533 25.3852C25.5556 25.4014 25.5587 25.3881 25.5455 25.3784C25.4767 25.3374 25.3945 25.2726 25.3096 25.2174C25.2249 25.1612 24.8981 25.0217 24.6779 24.7183C24.6258 24.6285 24.6009 24.5928 24.5833 24.602C24.5564 24.6163 24.7316 25.1959 25.0918 25.3802C25.0918 25.3802 25.4892 25.557 25.5773 25.6102C25.6257 25.6392 25.7232 25.6822 25.7683 25.7186C25.7941 25.7399 25.7449 25.7387 25.7416 25.7381C25.5305 25.7216 25.2274 25.6936 25.0413 25.5857C25.0413 25.5857 24.9614 25.5296 25.027 25.6084C25.0792 25.6694 25.1781 25.8197 25.3691 25.9043C25.5604 25.9883 25.8383 26.0372 25.94 26.0424C26.0398 26.048 26.3959 26.0497 26.4641 26.0718C26.5309 26.0944 26.6446 26.1672 26.7096 26.1882C26.7687 26.2073 26.9471 26.2757 26.9471 26.2757C26.9471 26.2757 27.0007 26.3051 27.0294 26.3155C27.0616 26.3283 27.1952 26.3271 27.2047 26.3022C27.2136 26.2797 27.1665 26.2456 27.1665 26.2456" stroke="black" stroke-width="0.0359807"/>
<path d="M29.4758 23.2275C29.5162 23.2422 29.534 23.362 29.534 23.362C29.534 23.362 29.5305 23.2935 29.5305 23.2597C29.5305 23.2256 29.5139 23.0981 29.5139 23.0981L29.4781 23.1237C29.4353 23.1577 29.4116 23.2179 29.4116 23.2179C29.4116 23.2179 29.4362 23.2138 29.4758 23.2274" fill="#009B3A"/>
<path d="M29.4758 23.2275C29.5162 23.2422 29.534 23.362 29.534 23.362C29.534 23.362 29.5305 23.2935 29.5305 23.2597C29.5305 23.2256 29.5139 23.0981 29.5139 23.0981L29.4781 23.1237C29.4353 23.1577 29.4116 23.2179 29.4116 23.2179C29.4116 23.2179 29.4362 23.2138 29.4758 23.2274" stroke="black" stroke-width="0.0450655"/>
<rect x="3" y="6" width="48" height="12" fill="#EE5757"/>
</g>
</svg>
