<svg width="54" height="54" viewBox="0 0 54 54" fill="none" xmlns="http://www.w3.org/2000/svg">
<mask id="mask0_1_35748" style="mask-type:alpha" maskUnits="userSpaceOnUse" x="3" y="9" width="48" height="36">
<path d="M3.56934 18.1356C4.16681 13.4125 8.0415 10.0019 12.7861 9.60887C16.6412 9.28949 21.6196 9 27 9C32.3804 9 37.3588 9.28949 41.2139 9.60887C45.9585 10.0019 49.8332 13.4125 50.4307 18.1356C50.752 20.6759 51 23.704 51 27C51 30.296 50.752 33.3241 50.4307 35.8644C49.8332 40.5875 45.9585 43.9981 41.2139 44.3911C37.3588 44.7105 32.3804 45 27 45C21.6196 45 16.6412 44.7105 12.7861 44.3911C8.04151 43.9981 4.16681 40.5875 3.56934 35.8644C3.248 33.3241 3 30.296 3 27C3 23.704 3.248 20.6759 3.56934 18.1356Z" fill="#00D0BF"/>
</mask>
<g mask="url(#mask0_1_35748)">
<rect x="3" y="3" width="48" height="49" fill="#EE5757"/>
<rect x="1" y="17" width="52" height="20" fill="#F5F5F5"/>
<path d="M25.3719 26.0324L24.1001 25.9958V25.493L25.3719 26.0324V26.0324Z" fill="#FF9C10"/>
<path d="M25.3666 25.8858L24.1001 25.2416V24.4037C24.1001 24.4037 23.9517 24.4246 23.9729 24.2571C23.9799 23.9079 24.9037 24.8943 25.3771 25.2155L25.3665 25.8858L25.3666 25.8858Z" fill="#FF9C10"/>
<path d="M19.8817 28.0699L22.5522 28.0908V26.4359L19.5 26.2902L19.8816 28.0707L19.8817 28.0699Z" fill="#FF9C10"/>
<path d="M19.7543 25.7863L22.5946 26.0586L22.5734 24.8856L19.7968 23.7963L19.7543 25.7863L19.7543 25.7863Z" fill="#FF9C10"/>
<path d="M20.3267 23.4409L22.5099 24.4882L22.8217 24.1666C22.8217 24.1666 22.6209 24.0299 22.6308 23.9041C22.6346 23.7769 22.8328 23.7575 22.8366 23.6194C22.8402 23.4922 22.6121 23.4769 22.6096 23.3496C22.5947 23.2117 22.7855 23.0637 22.7855 23.0637L20.8143 21.3669L20.3267 23.4409L20.3267 23.4409Z" fill="#FF9C10"/>
<path d="M34.6551 28.0908H31.8361L31.8149 26.4779L34.9094 26.2474L34.6551 28.0909L34.6551 28.0908Z" fill="#FF9C10"/>
<path d="M34.7239 25.7611C34.6883 25.4992 34.651 25.238 34.5903 24.9812C34.5091 24.6374 34.4053 24.2991 34.2795 23.9695C34.2702 23.9452 34.2563 23.9229 34.2468 23.8987L31.8363 24.9075L31.8581 26.1019L34.724 25.761L34.7239 25.7611Z" fill="#FF9C10"/>
<path d="M33.0765 21.8834C32.5957 22.2469 32.1149 22.6105 31.6341 22.9741C31.6365 23.0784 31.7405 23.1587 31.7692 23.2586C31.8358 23.3987 31.7034 23.5226 31.6215 23.6217C31.5551 23.713 31.6982 23.7596 31.7458 23.8136C31.8505 23.9211 31.7593 24.0895 31.6477 24.152C31.7821 24.2324 31.85 24.3828 31.8795 24.531C32.5994 24.1565 33.3192 23.7821 34.0391 23.4076C33.7808 22.8635 33.4587 22.349 33.0766 21.8834L33.0765 21.8834Z" fill="#FF9C10"/>
<path d="M29.0601 26.0691L30.2682 26.0168L30.2893 25.5348L29.0601 26.0691L29.0601 26.0691Z" fill="#FF9C10"/>
<path d="M29.0593 25.8073L29.0541 25.2627C29.0541 25.2627 30.1984 24.2415 30.4422 24.053C30.4422 24.2625 30.3099 24.4247 30.3099 24.4247V25.2208L29.0593 25.8073L29.0593 25.8073Z" fill="#FF9C10"/>
<path d="M21.6416 21.2202C21.6627 21.2412 22.9258 22.6286 22.9258 22.6286C22.9613 22.4971 23.2525 22.4771 23.5492 22.4981C23.846 22.519 24.0826 22.4784 24.0826 22.6879C24.0826 22.8974 23.932 22.8676 23.932 23.0143C23.932 23.161 24.1576 23.1486 24.1576 23.337C24.1576 23.5255 23.994 23.487 23.9932 23.633C23.9926 23.7537 24.1638 23.7601 24.1638 23.7601L25.3667 24.9123L25.3719 23.6816L22.8921 19.8378L21.6416 21.2203L21.6416 21.2202Z" fill="#FF9C10"/>
<path d="M23.6259 19.7648C23.6447 19.8207 25.3055 23.1596 25.3055 23.1596C25.3055 23.1596 25.3244 20.0259 25.6075 19.8581L25.1357 19L23.6259 19.7648L23.6259 19.7648Z" fill="#FF9C10"/>
<path d="M29.0471 19.4044C28.838 20.127 28.629 20.8495 28.4199 21.5722C28.6154 21.5955 28.8129 21.6017 29.0094 21.5909C29.1861 21.606 29.0484 21.7717 29.0579 21.8697C29.057 22.314 29.0561 22.7585 29.0553 23.2028C29.6461 22.1594 30.2369 21.1159 30.8276 20.0724C30.4201 19.8597 29.9876 19.7018 29.5523 19.5572C29.3863 19.4986 29.2176 19.4478 29.047 19.4044L29.0471 19.4044Z" fill="#FF9C10"/>
<path d="M31.2529 20.3102C30.5221 21.4336 29.7914 22.557 29.0606 23.6804C29.0597 24.1131 29.0588 24.5457 29.0579 24.9784C29.546 24.514 30.0366 24.052 30.5232 23.586C30.6156 23.4552 30.2301 23.3912 30.4228 23.2319C30.5973 23.1768 30.6269 22.8948 30.4431 22.8406C30.2917 22.6182 30.5801 22.5004 30.7619 22.5247C31.015 22.5363 31.2757 22.4696 31.5232 22.5399C31.6594 22.6702 31.785 22.3431 31.9186 22.2695C32.183 22.0036 32.4477 21.7379 32.7091 21.4691C32.2783 21.0201 31.7865 20.6301 31.2529 20.3101L31.2529 20.3102Z" fill="#FF9C10"/>
<path d="M25.5979 33.396C25.0588 33.4264 24.5216 33.7902 24.2699 33.985C24.7219 34.1828 25.2044 34.3372 25.7178 34.4431C26.5358 34.5804 27.3539 34.5794 28.1719 34.5794C28.3055 34.5626 28.4376 34.5436 28.5673 34.5221L30.2906 33.9413C30.2906 33.9413 29.4616 33.3941 28.8045 33.4178C28.1474 33.4415 27.7038 34.0843 27.1739 34.0368C26.644 33.9893 26.4318 33.396 25.6687 33.396C25.6449 33.396 25.6217 33.3946 25.5978 33.396L25.5979 33.396Z" fill="#083D9C" stroke="#083D9C" stroke-width="0.179486"/>
<path d="M22.468 32.951L32.2607 32.9929C32.2607 32.9929 31.413 32.0921 30.4167 32.0712C29.4205 32.0501 29.6961 32.4901 28.933 32.5529C28.17 32.6158 27.9792 32.0921 27.2797 32.113C26.5803 32.1339 26.1775 32.5529 25.6478 32.5739C25.1179 32.5948 24.4396 32.0501 24.0368 32.0712C23.6341 32.0921 22.1927 32.6996 22.1927 32.6996L22.4683 32.9509L22.468 32.951Z" fill="#083D9C" stroke="#083D9C" stroke-width="0.168579"/>
<path d="M21.2175 31.7983L33.2991 31.8403C33.4898 31.568 32.7055 30.9186 31.985 30.8557C31.3913 30.8766 30.9676 31.4632 30.4801 31.4842C29.9925 31.5051 29.4415 30.8766 28.8903 30.8977C28.3393 30.9186 27.767 31.4842 27.2159 31.4842C26.6649 31.4842 26.2621 30.8766 25.5627 30.8766C24.8633 30.8766 24.5453 31.547 24.0154 31.5051C23.4854 31.4632 23.0191 30.8348 22.5105 30.8348C22.0018 30.8348 21.154 31.5889 20.9845 31.547C20.8149 31.5051 21.1963 31.8612 21.2177 31.7983L21.2175 31.7983Z" fill="#083D9C" stroke="#083D9C" stroke-width="0.168579"/>
<path d="M25.8883 30.643L28.5852 30.6414C28.5852 30.6414 27.9814 29.7209 27.2372 29.7844C26.4081 29.8058 25.8883 30.643 25.8883 30.643Z" fill="#083D9C" stroke="#083D9C" stroke-width="0.168579"/>
<path d="M34.4884 30.5785H30.798C30.798 30.5785 31.2756 30.2995 31.4058 30.0421C31.6446 30.1708 31.5795 30.2995 32.0571 30.321C32.5346 30.3424 32.9905 29.7847 33.4465 29.8061C33.9023 29.8276 34.4884 30.5999 34.4884 30.5785L34.4884 30.5785Z" fill="#083D9C" stroke="#083D9C" stroke-width="0.168579"/>
<path d="M19.9453 30.5785H23.6358C23.6358 30.5785 23.1581 30.2995 23.0279 30.0421C22.7892 30.1708 22.8543 30.2995 22.3766 30.321C21.8992 30.3424 21.4432 29.7847 20.9872 29.8061C20.5314 29.8276 19.9453 30.5999 19.9453 30.5785L19.9453 30.5785Z" fill="#083D9C" stroke="#083D9C" stroke-width="0.168579"/>
<path d="M20.2211 29.4319L22.8494 29.4528C22.8494 29.4528 22.6798 29.0968 22.6587 28.6569C21.9802 28.4266 21.4292 29.1596 20.9417 29.1806C20.4543 29.2015 19.9457 28.6569 19.9457 28.6569L20.2212 29.4319L20.2211 29.4319Z" fill="#083D9C" stroke="#083D9C" stroke-width="0.168579"/>
<path d="M34.2527 29.4319L31.6244 29.4528C31.6244 29.4528 31.794 29.0968 31.8152 28.6569C32.4935 28.4266 33.0445 29.1596 33.5321 29.1806C34.0196 29.2015 34.5282 28.6569 34.5282 28.6569L34.2527 29.4319L34.2527 29.4319Z" fill="#083D9C" stroke="#083D9C" stroke-width="0.168579"/>
<path d="M26.5585 29.4529L27.8937 29.4536C27.8937 29.4536 27.915 29.013 27.2154 29.013C26.516 29.013 26.5585 29.4529 26.5585 29.4529V29.4529Z" fill="#083D9C" stroke="#083D9C" stroke-width="0.168579"/>
<path d="M25.8586 25.1581L28.6354 25.8913V21.974C27.3635 22.0369 26.3039 19.5859 28.5506 19.4184C26.3462 19.1041 26.0918 19.6698 25.8375 20.2772L25.8587 25.1581H25.8586Z" fill="#CE1126" stroke="#630810" stroke-width="0.168571" stroke-linejoin="round"/>
<path d="M26.4756 28.699C25.8716 29.6876 24.2571 29.3944 23.8795 28.7042C23.7664 28.6725 23.8333 24.4461 23.8333 24.4461C23.8333 24.4461 23.6529 24.3649 23.6446 24.2349C23.6363 24.1037 23.8899 24.0918 23.8899 23.9238C23.8899 23.756 23.6309 23.8218 23.6257 23.6528C23.6269 23.4912 23.9022 23.5135 23.8899 23.3642C23.8753 23.1959 23.5815 23.2209 23.569 23.0657C23.5595 22.9425 23.7792 22.8351 23.8402 22.7796L23.6351 22.7767L23.1727 22.786C22.8441 22.7864 23.1783 22.8568 23.1735 23.0442C23.1705 23.1665 23.0069 23.248 22.9923 23.3544C22.9871 23.4636 23.2264 23.5404 23.2294 23.6715C23.2321 23.7885 22.9943 23.7964 23.0029 23.9051C23.0176 24.0891 23.2135 24.1296 23.2106 24.241C23.2076 24.3522 22.947 24.3946 22.9463 24.4834C22.9554 24.6551 22.984 28.8294 22.984 28.8294C23.3992 30.9558 25.7961 31.4967 26.4756 28.6989L26.4756 28.699Z" fill="#CE1126" stroke="#630810" stroke-width="0.168571" stroke-linejoin="round"/>
<path d="M28.0558 28.6989C28.6597 29.6876 30.2742 29.3944 30.6518 28.7042C30.7649 28.6725 30.698 24.4461 30.698 24.4461C30.698 24.4461 30.8784 24.3649 30.8867 24.2349C30.895 24.1037 30.6573 24.0918 30.6573 23.9238C30.6573 23.756 30.9004 23.8217 30.9055 23.6528C30.9045 23.4912 30.6503 23.5031 30.6626 23.3537C30.6771 23.1855 30.8767 23.2051 30.888 23.05C30.8976 22.9164 30.7627 22.8351 30.7017 22.7796L30.8962 22.7767L31.3586 22.786C31.6872 22.7864 31.3529 22.8568 31.3578 23.0442C31.3608 23.1665 31.5244 23.248 31.5391 23.3544C31.5442 23.4636 31.3049 23.5404 31.3019 23.6715C31.2992 23.7885 31.5371 23.7964 31.5284 23.9051C31.5137 24.0891 31.3178 24.1296 31.3208 24.241C31.3237 24.3522 31.5844 24.3946 31.585 24.4834C31.576 24.6551 31.5473 28.8294 31.5473 28.8294C31.1321 30.9558 28.7353 31.4967 28.0558 28.6989L28.0558 28.6989Z" fill="#CE1126" stroke="#630810" stroke-width="0.168571" stroke-linejoin="round"/>
<path d="M25.7531 28.8866C25.9863 28.7608 26.1982 28.6352 26.3466 28.3419L25.4351 28.3628C25.4351 28.3628 25.0114 28.6143 24.7993 28.8866H25.7531L25.7531 28.8866Z" fill="#630810" stroke="#630810" stroke-width="0.243585" stroke-linecap="round"/>
<path d="M28.6989 28.8866C28.4657 28.7608 28.2539 28.6352 28.1055 28.3419L29.0169 28.3628C29.0169 28.3628 29.4407 28.6143 29.6527 28.8866H28.6989L28.6989 28.8866Z" fill="#630810" stroke="#630810" stroke-width="0.243585" stroke-linecap="round"/>
<path d="M24.0996 28.007L30.3736 28.0279Z" fill="#630810"/>
<path d="M24.0996 28.007L30.3736 28.0279" stroke="#630810" stroke-width="0.243585" stroke-linecap="round"/>
<path d="M24.3962 26.5202L25.1381 27.5048Z" fill="#630810"/>
<path d="M24.3962 26.5202L25.1381 27.5048" stroke="#630810" stroke-width="0.243585" stroke-linecap="round"/>
<path d="M24.3962 27.5044L25.2017 26.5409Z" fill="#630810"/>
<path d="M24.3962 27.5044L25.2017 26.5409" stroke="#630810" stroke-width="0.243585" stroke-linecap="round"/>
<path d="M24.8204 26.4565L24.7992 27.0639Z" fill="#630810"/>
<path d="M24.8204 26.4565L24.7992 27.0639" stroke="#630810" stroke-width="0.243585" stroke-linecap="round"/>
</g>
</svg>
