<svg width="54" height="48" viewBox="0 0 54 48" fill="none" xmlns="http://www.w3.org/2000/svg">
<mask id="mask0_1_35748" style="mask-type:alpha" maskUnits="userSpaceOnUse" x="3" y="6" width="48" height="36">
<path d="M3.56934 15.1356C4.16681 10.4125 8.0415 7.00193 12.7861 6.60887C16.6412 6.28949 21.6196 6 27 6C32.3804 6 37.3588 6.28949 41.2139 6.60887C45.9585 7.00193 49.8332 10.4125 50.4307 15.1356C50.752 17.6759 51 20.704 51 24C51 27.296 50.752 30.3241 50.4307 32.8644C49.8332 37.5875 45.9585 40.9981 41.2139 41.3911C37.3588 41.7105 32.3804 42 27 42C21.6196 42 16.6412 41.7105 12.7861 41.3911C8.0415 40.9981 4.16681 37.5875 3.56934 32.8644C3.248 30.3241 3 27.296 3 24C3 20.704 3.248 17.6759 3.56934 15.1356Z" fill="#00D0BF"/>
</mask>
<g mask="url(#mask0_1_35748)">
<rect x="3" width="48" height="49" fill="#EE5757"/>
<rect x="1" y="14" width="52" height="20" fill="#F5F5F5"/>
<path d="M25.3719 23.0324L24.1001 22.9958V22.493L25.3719 23.0324V23.0324Z" fill="#FF9C10"/>
<path d="M25.3666 22.8858L24.1001 22.2416V21.4037C24.1001 21.4037 23.9517 21.4246 23.9729 21.2571C23.9799 20.9079 24.9037 21.8943 25.3771 22.2155L25.3665 22.8858L25.3666 22.8858Z" fill="#FF9C10"/>
<path d="M19.8817 25.0699L22.5522 25.0908V23.4359L19.5 23.2902L19.8816 25.0707L19.8817 25.0699Z" fill="#FF9C10"/>
<path d="M19.7543 22.7863L22.5946 23.0586L22.5734 21.8856L19.7968 20.7963L19.7543 22.7863L19.7543 22.7863Z" fill="#FF9C10"/>
<path d="M20.3267 20.4409L22.5099 21.4882L22.8217 21.1666C22.8217 21.1666 22.6209 21.0299 22.6308 20.9041C22.6346 20.7769 22.8328 20.7575 22.8366 20.6194C22.8402 20.4922 22.6121 20.4769 22.6096 20.3496C22.5947 20.2117 22.7855 20.0637 22.7855 20.0637L20.8143 18.3669L20.3267 20.4409L20.3267 20.4409Z" fill="#FF9C10"/>
<path d="M34.6551 25.0908H31.8361L31.8149 23.4779L34.9094 23.2474L34.6551 25.0909L34.6551 25.0908Z" fill="#FF9C10"/>
<path d="M34.7239 22.7611C34.6883 22.4992 34.651 22.238 34.5903 21.9812C34.5091 21.6374 34.4053 21.2991 34.2795 20.9695C34.2702 20.9452 34.2563 20.9229 34.2468 20.8987L31.8363 21.9075L31.8581 23.1019L34.724 22.761L34.7239 22.7611Z" fill="#FF9C10"/>
<path d="M33.0765 18.8834C32.5957 19.2469 32.1149 19.6105 31.6341 19.9741C31.6365 20.0784 31.7405 20.1587 31.7692 20.2586C31.8358 20.3987 31.7034 20.5226 31.6215 20.6217C31.5551 20.713 31.6982 20.7596 31.7458 20.8136C31.8505 20.9211 31.7593 21.0895 31.6477 21.152C31.7821 21.2324 31.85 21.3828 31.8795 21.531C32.5994 21.1565 33.3192 20.7821 34.0391 20.4076C33.7808 19.8635 33.4587 19.349 33.0766 18.8834L33.0765 18.8834Z" fill="#FF9C10"/>
<path d="M29.0601 23.0691L30.2682 23.0168L30.2893 22.5348L29.0601 23.0691L29.0601 23.0691Z" fill="#FF9C10"/>
<path d="M29.0593 22.8073L29.0541 22.2627C29.0541 22.2627 30.1984 21.2415 30.4422 21.053C30.4422 21.2625 30.3099 21.4247 30.3099 21.4247V22.2208L29.0593 22.8073L29.0593 22.8073Z" fill="#FF9C10"/>
<path d="M21.6416 18.2202C21.6627 18.2412 22.9258 19.6286 22.9258 19.6286C22.9613 19.4971 23.2525 19.4771 23.5492 19.4981C23.846 19.519 24.0826 19.4784 24.0826 19.6879C24.0826 19.8974 23.932 19.8676 23.932 20.0143C23.932 20.161 24.1576 20.1486 24.1576 20.337C24.1576 20.5255 23.994 20.487 23.9932 20.633C23.9926 20.7537 24.1638 20.7601 24.1638 20.7601L25.3667 21.9123L25.3719 20.6816L22.8921 16.8378L21.6416 18.2203L21.6416 18.2202Z" fill="#FF9C10"/>
<path d="M23.6259 16.7648C23.6447 16.8207 25.3055 20.1596 25.3055 20.1596C25.3055 20.1596 25.3244 17.0259 25.6075 16.8581L25.1357 16L23.6259 16.7648L23.6259 16.7648Z" fill="#FF9C10"/>
<path d="M29.0471 16.4044C28.838 17.127 28.629 17.8495 28.4199 18.5722C28.6154 18.5955 28.8129 18.6017 29.0094 18.5909C29.1861 18.606 29.0484 18.7717 29.0579 18.8697C29.057 19.314 29.0561 19.7585 29.0553 20.2028C29.6461 19.1594 30.2369 18.1159 30.8276 17.0724C30.4201 16.8597 29.9876 16.7018 29.5523 16.5572C29.3863 16.4986 29.2176 16.4478 29.047 16.4044L29.0471 16.4044Z" fill="#FF9C10"/>
<path d="M31.2529 17.3102C30.5221 18.4336 29.7914 19.557 29.0606 20.6804C29.0597 21.1131 29.0588 21.5457 29.0579 21.9784C29.546 21.514 30.0366 21.052 30.5232 20.586C30.6156 20.4552 30.2301 20.3912 30.4228 20.2319C30.5973 20.1768 30.6269 19.8948 30.4431 19.8406C30.2917 19.6182 30.5801 19.5004 30.7619 19.5247C31.015 19.5363 31.2757 19.4696 31.5232 19.5399C31.6594 19.6702 31.785 19.3431 31.9186 19.2695C32.183 19.0036 32.4477 18.7379 32.7091 18.4691C32.2783 18.0201 31.7865 17.6301 31.2529 17.3101L31.2529 17.3102Z" fill="#FF9C10"/>
<path d="M25.5979 30.396C25.0588 30.4264 24.5216 30.7902 24.2699 30.985C24.7219 31.1828 25.2044 31.3372 25.7178 31.4431C26.5358 31.5804 27.3539 31.5794 28.1719 31.5794C28.3055 31.5626 28.4376 31.5436 28.5673 31.5221L30.2906 30.9413C30.2906 30.9413 29.4616 30.3941 28.8045 30.4178C28.1474 30.4415 27.7038 31.0843 27.1739 31.0368C26.644 30.9893 26.4318 30.396 25.6687 30.396C25.6449 30.396 25.6217 30.3946 25.5978 30.396L25.5979 30.396Z" fill="#083D9C" stroke="#083D9C" stroke-width="0.179486"/>
<path d="M22.468 29.951L32.2607 29.9929C32.2607 29.9929 31.413 29.0921 30.4167 29.0712C29.4205 29.0501 29.6961 29.4901 28.933 29.5529C28.17 29.6158 27.9792 29.0921 27.2797 29.113C26.5803 29.1339 26.1775 29.5529 25.6478 29.5739C25.1179 29.5948 24.4396 29.0501 24.0368 29.0712C23.6341 29.0921 22.1927 29.6996 22.1927 29.6996L22.4683 29.9509L22.468 29.951Z" fill="#083D9C" stroke="#083D9C" stroke-width="0.168579"/>
<path d="M21.2175 28.7983L33.2991 28.8403C33.4898 28.568 32.7055 27.9186 31.985 27.8557C31.3913 27.8766 30.9676 28.4632 30.4801 28.4842C29.9925 28.5051 29.4415 27.8766 28.8903 27.8977C28.3393 27.9186 27.767 28.4842 27.2159 28.4842C26.6649 28.4842 26.2621 27.8766 25.5627 27.8766C24.8633 27.8766 24.5453 28.547 24.0154 28.5051C23.4854 28.4632 23.0191 27.8348 22.5105 27.8348C22.0018 27.8348 21.154 28.5889 20.9845 28.547C20.8149 28.5051 21.1963 28.8612 21.2177 28.7983L21.2175 28.7983Z" fill="#083D9C" stroke="#083D9C" stroke-width="0.168579"/>
<path d="M25.8883 27.643L28.5852 27.6414C28.5852 27.6414 27.9814 26.7209 27.2372 26.7844C26.4081 26.8058 25.8883 27.643 25.8883 27.643Z" fill="#083D9C" stroke="#083D9C" stroke-width="0.168579"/>
<path d="M34.4884 27.5785H30.798C30.798 27.5785 31.2756 27.2995 31.4058 27.0421C31.6446 27.1708 31.5795 27.2995 32.0571 27.321C32.5346 27.3424 32.9905 26.7847 33.4465 26.8061C33.9023 26.8276 34.4884 27.5999 34.4884 27.5785L34.4884 27.5785Z" fill="#083D9C" stroke="#083D9C" stroke-width="0.168579"/>
<path d="M19.9453 27.5785H23.6358C23.6358 27.5785 23.1581 27.2995 23.0279 27.0421C22.7892 27.1708 22.8543 27.2995 22.3766 27.321C21.8992 27.3424 21.4432 26.7847 20.9872 26.8061C20.5314 26.8276 19.9453 27.5999 19.9453 27.5785L19.9453 27.5785Z" fill="#083D9C" stroke="#083D9C" stroke-width="0.168579"/>
<path d="M20.2211 26.4319L22.8494 26.4528C22.8494 26.4528 22.6798 26.0968 22.6587 25.6569C21.9802 25.4266 21.4292 26.1596 20.9417 26.1806C20.4543 26.2015 19.9457 25.6569 19.9457 25.6569L20.2212 26.4319L20.2211 26.4319Z" fill="#083D9C" stroke="#083D9C" stroke-width="0.168579"/>
<path d="M34.2527 26.4319L31.6244 26.4528C31.6244 26.4528 31.794 26.0968 31.8152 25.6569C32.4935 25.4266 33.0445 26.1596 33.5321 26.1806C34.0196 26.2015 34.5282 25.6569 34.5282 25.6569L34.2527 26.4319L34.2527 26.4319Z" fill="#083D9C" stroke="#083D9C" stroke-width="0.168579"/>
<path d="M26.5585 26.4529L27.8937 26.4536C27.8937 26.4536 27.915 26.013 27.2154 26.013C26.516 26.013 26.5585 26.4529 26.5585 26.4529Z" fill="#083D9C" stroke="#083D9C" stroke-width="0.168579"/>
<path d="M25.8586 22.1581L28.6354 22.8913V18.974C27.3635 19.0369 26.3039 16.5859 28.5506 16.4184C26.3462 16.1041 26.0918 16.6698 25.8375 17.2772L25.8587 22.1581H25.8586Z" fill="#CE1126" stroke="#630810" stroke-width="0.168571" stroke-linejoin="round"/>
<path d="M26.4756 25.699C25.8716 26.6876 24.2571 26.3944 23.8795 25.7042C23.7664 25.6725 23.8333 21.4461 23.8333 21.4461C23.8333 21.4461 23.6529 21.3649 23.6446 21.2349C23.6363 21.1037 23.8899 21.0918 23.8899 20.9238C23.8899 20.756 23.6309 20.8218 23.6257 20.6528C23.6269 20.4912 23.9022 20.5135 23.8899 20.3642C23.8753 20.1959 23.5815 20.2209 23.569 20.0657C23.5595 19.9425 23.7792 19.8351 23.8402 19.7796L23.6351 19.7767L23.1727 19.786C22.8441 19.7864 23.1783 19.8568 23.1735 20.0442C23.1705 20.1665 23.0069 20.248 22.9923 20.3544C22.9871 20.4636 23.2264 20.5404 23.2294 20.6715C23.2321 20.7885 22.9943 20.7964 23.0029 20.9051C23.0176 21.0891 23.2135 21.1296 23.2106 21.241C23.2076 21.3522 22.947 21.3946 22.9463 21.4834C22.9554 21.6551 22.984 25.8294 22.984 25.8294C23.3992 27.9558 25.7961 28.4967 26.4756 25.6989L26.4756 25.699Z" fill="#CE1126" stroke="#630810" stroke-width="0.168571" stroke-linejoin="round"/>
<path d="M28.0558 25.6989C28.6597 26.6876 30.2742 26.3944 30.6518 25.7042C30.7649 25.6725 30.698 21.4461 30.698 21.4461C30.698 21.4461 30.8784 21.3649 30.8867 21.2349C30.895 21.1037 30.6573 21.0918 30.6573 20.9238C30.6573 20.756 30.9004 20.8217 30.9055 20.6528C30.9045 20.4912 30.6503 20.5031 30.6626 20.3537C30.6771 20.1855 30.8767 20.2051 30.888 20.05C30.8976 19.9164 30.7627 19.8351 30.7017 19.7796L30.8962 19.7767L31.3586 19.786C31.6872 19.7864 31.3529 19.8568 31.3578 20.0442C31.3608 20.1665 31.5244 20.248 31.5391 20.3544C31.5442 20.4636 31.3049 20.5404 31.3019 20.6715C31.2992 20.7885 31.5371 20.7964 31.5284 20.9051C31.5137 21.0891 31.3178 21.1296 31.3208 21.241C31.3237 21.3522 31.5844 21.3946 31.585 21.4834C31.576 21.6551 31.5473 25.8294 31.5473 25.8294C31.1321 27.9558 28.7353 28.4967 28.0558 25.6989L28.0558 25.6989Z" fill="#CE1126" stroke="#630810" stroke-width="0.168571" stroke-linejoin="round"/>
<path d="M25.7531 25.8866C25.9863 25.7608 26.1982 25.6352 26.3466 25.3419L25.4351 25.3628C25.4351 25.3628 25.0114 25.6143 24.7993 25.8866H25.7531L25.7531 25.8866Z" fill="#630810" stroke="#630810" stroke-width="0.243585" stroke-linecap="round"/>
<path d="M28.6989 25.8866C28.4657 25.7608 28.2539 25.6352 28.1055 25.3419L29.0169 25.3628C29.0169 25.3628 29.4407 25.6143 29.6527 25.8866H28.6989L28.6989 25.8866Z" fill="#630810" stroke="#630810" stroke-width="0.243585" stroke-linecap="round"/>
<path d="M24.0996 25.007L30.3736 25.0279L24.0996 25.007Z" fill="#630810"/>
<path d="M24.0996 25.007L30.3736 25.0279" stroke="#630810" stroke-width="0.243585" stroke-linecap="round"/>
<path d="M24.3962 23.5202L25.1381 24.5048L24.3962 23.5202Z" fill="#630810"/>
<path d="M24.3962 23.5202L25.1381 24.5048" stroke="#630810" stroke-width="0.243585" stroke-linecap="round"/>
<path d="M24.3962 24.5044L25.2017 23.5409L24.3962 24.5044Z" fill="#630810"/>
<path d="M24.3962 24.5044L25.2017 23.5409" stroke="#630810" stroke-width="0.243585" stroke-linecap="round"/>
<path d="M24.8204 23.4565L24.7992 24.0639L24.8204 23.4565Z" fill="#630810"/>
<path d="M24.8204 23.4565L24.7992 24.0639" stroke="#630810" stroke-width="0.243585" stroke-linecap="round"/>
</g>
</svg>
