<svg width="54" height="54" viewBox="0 0 54 54" fill="none" xmlns="http://www.w3.org/2000/svg">
<mask id="mask0_4784_6409" style="mask-type:alpha" maskUnits="userSpaceOnUse" x="3" y="9" width="48" height="36">
<path d="M3.56934 18.1356C4.16681 13.4125 8.0415 10.0019 12.7861 9.60887C16.6412 9.28949 21.6196 9 27 9C32.3804 9 37.3588 9.28949 41.2139 9.60887C45.9585 10.0019 49.8332 13.4125 50.4307 18.1356C50.752 20.6759 51 23.704 51 27C51 30.296 50.752 33.3241 50.4307 35.8644C49.8332 40.5875 45.9585 43.9981 41.2139 44.3911C37.3588 44.7105 32.3804 45 27 45C21.6196 45 16.6412 44.7105 12.7861 44.3911C8.04151 43.9981 4.16681 40.5875 3.56934 35.8644C3.248 33.3241 3 30.296 3 27C3 23.704 3.248 20.6759 3.56934 18.1356Z" fill="#00D0BF"/>
</mask>
<g mask="url(#mask0_4784_6409)">
<path d="M50.961 7H2.3927C-0.585604 7 -3 9.42338 -3 12.4128V41.5872C-3 44.5766 -0.585604 47 2.3927 47H50.961C53.9393 47 56.3537 44.5766 56.3537 41.5872V12.4128C56.3537 9.42338 53.9393 7 50.961 7Z" fill="#4A89DC"/>
<path d="M25.5067 21.6894C25.5293 21.6564 25.5691 21.6398 25.6084 21.6469C25.7214 21.6662 25.827 21.7162 25.9137 21.7916C26.0351 21.916 26.1431 22.0529 26.2359 22.2001C26.2359 22.2596 26.3292 22.3447 26.2359 22.3533C26.1445 22.3683 26.0559 22.3969 25.973 22.4384C25.9337 22.5068 25.9337 22.5912 25.973 22.6596C26.0556 22.7689 26.1632 22.8565 26.2868 22.915C26.3546 22.915 26.5327 23.0086 26.5751 23.0086C26.6477 23.0109 26.7131 23.0535 26.7446 23.1192C26.7444 23.2084 26.7891 23.2916 26.8633 23.3405C26.9312 23.3405 27.0923 23.2128 27.194 23.2128C27.3425 23.2117 27.4906 23.2288 27.6349 23.2639C27.7089 23.3097 27.7725 23.3706 27.8215 23.4426C27.8215 23.4852 27.8893 23.5192 27.9402 23.4426C28.0241 23.37 28.1387 23.3445 28.2454 23.3745C28.2995 23.4418 28.3695 23.4945 28.4489 23.5277C28.4998 23.5277 28.6185 23.6384 28.6524 23.6384C28.723 23.6809 28.7626 23.7605 28.7542 23.8426C28.7551 23.9865 28.7751 24.1296 28.8135 24.2682C28.8564 24.3245 28.8801 24.3931 28.8814 24.4639C28.8848 24.6106 28.932 24.753 29.017 24.8724C29.1122 24.877 29.2066 24.8534 29.2884 24.8043C29.3493 24.8161 29.4053 24.8457 29.4495 24.8894C29.5254 24.9749 29.5805 25.0768 29.6106 25.1873C29.6006 25.3517 29.6006 25.5165 29.6106 25.6809C29.6439 25.8337 29.7011 25.9802 29.7801 26.115C29.8263 26.1797 29.8874 26.2322 29.9582 26.2682C30.0057 26.2122 30.0721 26.1758 30.1448 26.166C30.2473 26.1682 30.3482 26.1914 30.4415 26.2341L30.5857 26.4043C30.6276 26.4441 30.6765 26.4758 30.7298 26.4979C30.8015 26.5307 30.8752 26.5591 30.9503 26.583C31.035 26.5942 31.1177 26.6171 31.1962 26.6511C31.2649 26.67 31.323 26.7161 31.3573 26.7788C31.2951 26.8809 31.2655 26.9997 31.2725 27.1192C31.2727 27.3024 31.2528 27.4851 31.2131 27.6639C31.1702 27.711 31.1434 27.7706 31.1368 27.8341C31.1127 27.9117 31.1127 27.9948 31.1368 28.0724C31.1886 28.0667 31.2405 28.082 31.281 28.115C31.285 28.1496 31.3079 28.1791 31.3403 28.1916C31.3675 28.1927 31.3919 28.1752 31.3997 28.149C31.4051 28.1122 31.4317 28.0821 31.4675 28.0724C31.5164 28.069 31.5649 28.0842 31.6032 28.115C31.6362 28.1601 31.6934 28.1804 31.7473 28.166C31.8236 28.166 32.0865 28.2767 32.2476 28.2767C32.4499 28.2713 32.6522 28.2913 32.8496 28.3362C32.8557 28.3903 32.8731 28.4425 32.9005 28.4894C32.9518 28.5422 33.0162 28.5804 33.087 28.6001C33.1583 28.597 33.228 28.6213 33.282 28.6682C33.2909 28.7394 33.3238 28.8055 33.3753 28.8554C33.4444 28.9026 33.5351 28.9026 33.6042 28.8554C33.603 28.7994 33.6322 28.7472 33.6805 28.7192C33.727 28.7232 33.7729 28.7078 33.8077 28.6767C33.8484 28.6227 33.9101 28.5887 33.9773 28.583C34.0706 28.583 34.1978 28.7277 34.2147 28.6937C34.251 28.6474 34.3095 28.6246 34.3673 28.6341C34.4335 28.6738 34.4889 28.7294 34.5284 28.7958C34.5363 28.8659 34.5534 28.9346 34.5793 29.0001C34.6111 29.0881 34.6111 29.1844 34.5793 29.2724C34.5076 29.3472 34.4602 29.4422 34.4437 29.5447C34.4486 29.6603 34.4223 29.775 34.3673 29.8767C34.2883 29.9087 34.2375 29.9869 34.2402 30.0724C34.2374 30.2373 34.1998 30.3997 34.1299 30.549C34.0365 30.6366 33.9641 30.7442 33.9179 30.8639C33.9158 30.9678 33.8897 31.0697 33.8416 31.1618C33.7804 31.2116 33.7287 31.2722 33.689 31.3405C33.6783 31.3995 33.6485 31.4534 33.6042 31.4937C33.5533 31.4937 33.3838 31.6043 33.3583 31.6384C33.3148 31.6938 33.2633 31.7426 33.2057 31.783C33.2057 31.783 33.1464 31.783 33.2057 31.8426C33.2747 31.9267 33.3135 32.0316 33.3159 32.1405C33.3184 32.3237 33.2619 32.5028 33.1548 32.6511C33.0211 32.6812 32.8905 32.7239 32.7648 32.7788C32.6989 32.853 32.6216 32.9162 32.5359 32.966C32.4477 33.0209 32.3816 33.1053 32.3493 33.2043C32.3717 33.3483 32.4206 33.4868 32.4935 33.6128C32.6414 33.7204 32.7753 33.8462 32.892 33.9873C32.8599 34.1208 32.7739 34.235 32.6546 34.3022H32.3069C32.1846 34.3343 32.0561 34.3343 31.9338 34.3022C31.9374 34.2522 31.915 34.2039 31.8745 34.1745C31.8135 34.1779 31.7547 34.1985 31.7049 34.2341C31.6457 34.2982 31.5771 34.3527 31.5014 34.3958C31.4086 34.4365 31.3121 34.4679 31.2131 34.4894C31.1312 34.4882 31.05 34.5057 30.9757 34.5405C30.9625 34.5823 30.9259 34.6124 30.8824 34.6171C30.7951 34.6202 30.7103 34.6467 30.6365 34.6937C30.6365 34.7362 30.5348 34.9064 30.5009 34.9405C30.4391 35.0067 30.3979 35.0895 30.3822 35.1788C30.3822 35.2554 30.2295 35.4596 30.2126 35.5703C30.2389 35.6822 30.2946 35.785 30.3737 35.8682C30.2986 35.946 30.1931 35.9866 30.0854 35.9788C29.8944 35.9878 29.7036 35.9559 29.5258 35.8852C29.5342 35.769 29.5342 35.6524 29.5258 35.5362C29.5034 35.4255 29.4633 35.3192 29.4071 35.2213C29.368 35.2147 29.3374 35.184 29.3308 35.1447C29.3291 35.0888 29.2912 35.0405 29.2375 35.0256L29.0425 34.9235C28.9935 34.9232 28.9497 34.8928 28.9322 34.8469C28.9071 34.7657 28.8379 34.7062 28.7542 34.6937C28.6354 34.6889 28.517 34.7092 28.4065 34.7533C28.3983 34.8081 28.378 34.8604 28.3472 34.9064C28.2982 34.958 28.2369 34.9961 28.1691 35.0171C28.0908 35.0193 28.0147 35.0429 27.9487 35.0852C27.8915 35.153 27.8143 35.2007 27.7282 35.2213C27.6265 35.2232 27.526 35.2434 27.4314 35.2809C27.3881 35.325 27.3536 35.377 27.3297 35.4341C27.318 35.4849 27.2785 35.5245 27.2279 35.5362C27.1686 35.5362 27.0584 35.6554 27.016 35.6554C26.9378 35.658 26.8617 35.6815 26.7955 35.7235C26.7262 35.7933 26.6376 35.8408 26.5411 35.8596C26.3902 35.864 26.2398 35.881 26.0917 35.9107C25.9641 35.9456 25.8415 35.9971 25.7271 36.0639C25.6592 36.1326 25.6046 36.2134 25.566 36.3022C25.5672 36.3736 25.5496 36.444 25.5152 36.5064C25.4708 36.5208 25.4402 36.5617 25.4389 36.6086C25.4375 36.6953 25.4141 36.7802 25.371 36.8554C25.2907 36.9612 25.2435 37.0886 25.2354 37.2213C25.2333 37.4136 25.2561 37.6052 25.3032 37.7916C25.382 37.8885 25.4293 38.0073 25.4389 38.132C25.4425 38.3004 25.4283 38.4687 25.3965 38.6341C25.3499 38.6763 25.295 38.7081 25.2354 38.7277C25.189 38.7286 25.1468 38.7546 25.1251 38.7958C25.1224 38.8532 25.1049 38.9089 25.0743 38.9575C24.993 39.0096 24.8993 39.039 24.8029 39.0426C24.6412 39.0439 24.4818 39.0817 24.3366 39.1533C24.2538 39.2483 24.149 39.3214 24.0313 39.366C23.9313 39.3674 23.8345 39.3309 23.76 39.2639C23.719 39.1249 23.6906 38.9825 23.6752 38.8384C23.6733 38.6325 23.7078 38.4279 23.7769 38.2341C23.8667 38.1467 23.9387 38.0427 23.9889 37.9277C24.0038 37.849 24.0038 37.7682 23.9889 37.6894C23.9384 37.5713 23.9153 37.4433 23.9211 37.315C23.9256 37.0856 23.9 36.8567 23.8448 36.6341C23.7825 36.6267 23.7335 36.5774 23.7261 36.515C23.6663 36.3891 23.618 36.2581 23.5819 36.1235C23.585 35.9345 23.565 35.7459 23.5226 35.5618C23.4609 35.5029 23.4143 35.4299 23.3869 35.349C23.3869 35.2894 23.2597 35.1703 23.2597 35.1277C23.2509 35.0321 23.231 34.9379 23.2004 34.8469C23.2176 34.7541 23.2176 34.6588 23.2004 34.566C23.1137 34.4846 23.0368 34.3932 22.9714 34.2937C22.9522 34.2311 22.9053 34.1808 22.8442 34.1575L22.5305 34.0299C22.5305 34.0299 22.3694 33.9618 22.3525 33.9447C22.3151 33.9116 22.272 33.8856 22.2253 33.8682C22.2253 33.8682 22.0727 33.7916 22.0387 33.7916C21.9625 33.7489 21.9049 33.6791 21.8776 33.5958C21.8776 33.4852 21.8098 33.1703 21.7844 33.1362C21.6748 33.077 21.5527 33.0449 21.4282 33.0426H20.8517C20.7894 33.0155 20.7321 32.9781 20.6821 32.932C20.6178 32.8509 20.5768 32.7538 20.5634 32.6511C20.5601 32.4957 20.5373 32.3413 20.4955 32.1916C20.4432 32.1045 20.3979 32.0135 20.3599 31.9192C20.3576 31.8796 20.3392 31.8427 20.309 31.8171C20.2732 31.8098 20.2441 31.7838 20.2327 31.749C20.2402 31.6754 20.2402 31.6013 20.2327 31.5277C20.2076 31.4322 20.1507 31.3481 20.0716 31.2894C19.9982 31.2894 19.9268 31.2655 19.8681 31.2213C19.866 31.1665 19.8483 31.1133 19.8172 31.0682C19.7675 31.0238 19.71 30.9892 19.6476 30.966C19.6013 30.9652 19.559 30.9391 19.5374 30.8979C19.5312 30.8347 19.5109 30.7736 19.478 30.7192C19.4384 30.6632 19.4384 30.588 19.478 30.532C19.5589 30.5007 19.6126 30.4232 19.6137 30.3362C19.6092 30.1669 19.5865 29.9985 19.5459 29.8341C19.4875 29.7414 19.4223 29.6532 19.3509 29.5703C19.3192 29.5322 19.2783 29.5029 19.2322 29.4852C19.1837 29.4784 19.1374 29.461 19.0965 29.4341C19.0522 29.3857 19.0202 29.3273 19.0032 29.2639C18.9989 29.174 18.9817 29.0851 18.9523 29.0001C18.9102 28.8701 18.8818 28.736 18.8676 28.6001C18.8715 28.469 18.8973 28.3396 18.9439 28.2171L19.088 28.0554C19.1491 27.9883 19.2244 27.936 19.3085 27.9022C19.392 27.9046 19.4737 27.928 19.5459 27.9703C19.5928 28.03 19.6541 28.0769 19.7239 28.1064C19.7744 28.0988 19.8236 28.127 19.8426 28.1745C19.9289 28.2749 20.0591 28.3259 20.1903 28.3107C20.4256 28.3164 20.6595 28.273 20.8771 28.183C20.9263 28.0751 20.9688 27.9643 21.0043 27.8511C20.9973 27.7079 21.0459 27.5676 21.14 27.4596C21.2361 27.4342 21.3298 27.4 21.4198 27.3575C21.4728 27.3445 21.5128 27.3009 21.5215 27.2469C21.5314 27.1505 21.5985 27.0698 21.6911 27.0426C21.8123 27.0429 21.9327 27.0227 22.0472 26.983C22.0761 26.9426 22.1257 26.9227 22.1744 26.932C22.2244 26.9732 22.2878 26.9944 22.3525 26.9916C22.4189 26.9203 22.4962 26.8599 22.5814 26.8128C22.6408 26.8128 22.8103 26.6596 22.8782 26.6256C22.9627 26.5884 23.0337 26.526 23.0817 26.4469C23.0308 26.3845 22.9881 26.3158 22.9545 26.2426C22.8841 26.1336 22.8272 26.0164 22.7849 25.8937C22.7858 25.7642 22.8147 25.6364 22.8697 25.5192C22.941 25.4483 23.0242 25.3907 23.1156 25.349C23.2281 25.3205 23.3308 25.2616 23.4123 25.1788C23.5283 25.0647 23.636 24.9424 23.7346 24.8128C23.7346 24.7682 23.7613 24.7279 23.8024 24.7107C23.8605 24.7156 23.9161 24.7362 23.9635 24.7703C24.022 24.8006 24.0915 24.8006 24.15 24.7703C24.1909 24.7242 24.2251 24.6726 24.2518 24.6171C24.2518 24.6171 24.2518 24.4554 24.2518 24.3618C24.278 24.2136 24.3327 24.0719 24.4129 23.9447C24.4778 23.8701 24.5002 23.7674 24.4722 23.6724C24.3805 23.5603 24.2983 23.4408 24.2263 23.315C24.1477 23.1727 24.0476 23.0435 23.9296 22.932C23.8714 22.9188 23.8236 22.8773 23.8024 22.8213C23.8024 22.7703 23.7091 22.6086 23.7006 22.5405C23.7264 22.4069 23.8369 22.3063 23.972 22.2937C24.1601 22.2932 24.3476 22.2733 24.5316 22.2341C24.5748 22.1854 24.6265 22.145 24.6842 22.115C24.7886 22.0521 24.8995 22.0008 25.0149 21.9618C25.1121 21.9603 25.2076 21.937 25.2947 21.8937C25.3424 21.8347 25.4035 21.788 25.4728 21.7575C25.4888 21.7375 25.5004 21.7143 25.5067 21.6894Z" fill="#F6D660"/>
<path d="M35.8513 15.9276C35.6817 15.3999 35.4019 15.3999 35.2323 15.9276C35.0242 16.4909 34.4992 16.8735 33.9011 16.8978C33.3415 16.8978 33.2567 17.1616 33.7146 17.4936C34.1844 17.864 34.3853 18.4823 34.2233 19.0595C34.0452 19.5872 34.2742 19.7489 34.7321 19.417C35.2309 19.0863 35.8782 19.0863 36.377 19.417C36.8264 19.7489 37.0468 19.5787 36.8773 19.0425C36.7153 18.4653 36.9162 17.847 37.386 17.4765C37.8439 17.1531 37.7506 16.8893 37.1825 16.8893C36.5865 16.8664 36.0622 16.4876 35.8513 15.9276ZM30.0177 15.0765C29.8481 14.5489 29.5683 14.5489 29.3987 15.0765C29.1905 15.6398 28.6656 16.0224 28.0675 16.0467C27.5079 16.0467 27.4231 16.3106 27.8809 16.6425C28.3508 17.0129 28.5516 17.6312 28.3897 18.2084C28.2116 18.7361 28.4406 18.8978 28.8984 18.5659C29.3973 18.2352 30.0446 18.2352 30.5434 18.5659C30.9928 18.8978 31.2132 18.7276 31.0436 18.1914C30.8817 17.6142 31.0826 16.9959 31.5524 16.6255C32.0103 16.3021 31.917 16.0382 31.3489 16.0382C30.7487 16.0126 30.2231 15.6262 30.0177 15.0595V15.0765ZM11.5417 17.7404C11.7113 17.2127 11.9911 17.2127 12.1607 17.7404C12.3689 18.3037 12.8938 18.6863 13.4919 18.7106C14.0515 18.7106 14.1278 18.9744 13.67 19.3063C13.2001 19.6768 12.9993 20.295 13.1612 20.8723C13.3393 21.3999 13.1104 21.5616 12.6525 21.2297C12.1543 20.8968 11.5057 20.8968 11.0075 21.2297C10.5581 21.5616 10.3377 21.3914 10.5073 20.8553C10.6692 20.278 10.4684 19.6597 9.99853 19.2893C9.54066 18.9659 9.63393 18.7021 10.202 18.7021C10.8001 18.6778 11.3251 18.2952 11.5332 17.7319L11.5417 17.7404ZM17.4771 15.9531C17.6467 15.4255 17.9265 15.4255 18.0961 15.9531C18.3042 16.5164 18.8292 16.899 19.4273 16.9233C19.9869 16.9233 20.0717 17.1872 19.6138 17.5191C19.144 17.8895 18.9431 18.5078 19.1051 19.085C19.2831 19.6127 19.0542 19.7744 18.5963 19.4425C18.0975 19.1118 17.4502 19.1118 16.9514 19.4425C16.502 19.7744 16.2815 19.6042 16.4511 19.068C16.6131 18.4908 16.4122 17.8725 15.9424 17.5021C15.4845 17.1787 15.5778 16.9148 16.1459 16.9148C16.744 16.8905 17.2689 16.5079 17.4771 15.9446V15.9531ZM23.3107 15.1021C23.4803 14.5744 23.7601 14.5744 23.9297 15.1021C24.1378 15.6654 24.6628 16.048 25.2609 16.0723C25.8205 16.0723 25.8968 16.3361 25.439 16.668C24.9691 17.0385 24.7683 17.6567 24.9302 18.234C25.1083 18.7616 24.8793 18.9233 24.4215 18.5914C23.9227 18.2607 23.2753 18.2607 22.7765 18.5914C22.3271 18.9233 22.1067 18.7531 22.2763 18.217C22.4382 17.6397 22.2373 17.0214 21.7675 16.651C21.3096 16.3276 21.4029 16.0638 21.971 16.0638C22.5691 16.0395 23.0941 15.6569 23.3022 15.0936L23.3107 15.1021ZM41.7867 17.7659C41.6171 17.2382 41.3373 17.2382 41.1677 17.7659C40.9595 18.3292 40.4346 18.7118 39.8365 18.7361C39.2768 18.7361 39.2005 18.9999 39.6584 19.3319C40.1282 19.7023 40.3291 20.3206 40.1671 20.8978C39.9891 21.4255 40.218 21.5872 40.6759 21.2553C41.174 20.9223 41.8227 20.9223 42.3208 21.2553C42.7702 21.5872 42.9907 21.417 42.8211 20.8808C42.6591 20.3036 42.86 19.6853 43.3299 19.3148C43.7877 18.9914 43.6945 18.7276 43.1264 18.7276C42.5283 18.7033 42.0033 18.3207 41.7951 17.7574L41.7867 17.7659Z" fill="white"/>
</g>
</svg>
