<svg width="54" height="48" viewBox="0 0 54 48" fill="none" xmlns="http://www.w3.org/2000/svg">
<mask id="mask0_4784_6409" style="mask-type:alpha" maskUnits="userSpaceOnUse" x="3" y="6" width="48" height="36">
<path d="M3.56934 15.1356C4.16681 10.4125 8.0415 7.00193 12.7861 6.60887C16.6412 6.28949 21.6196 6 27 6C32.3804 6 37.3588 6.28949 41.2139 6.60887C45.9585 7.00193 49.8332 10.4125 50.4307 15.1356C50.752 17.6759 51 20.704 51 24C51 27.296 50.752 30.3241 50.4307 32.8644C49.8332 37.5875 45.9585 40.9981 41.2139 41.3911C37.3588 41.7105 32.3804 42 27 42C21.6196 42 16.6412 41.7105 12.7861 41.3911C8.0415 40.9981 4.16681 37.5875 3.56934 32.8644C3.248 30.3241 3 27.296 3 24C3 20.704 3.248 17.6759 3.56934 15.1356Z" fill="#00D0BF"/>
</mask>
<g mask="url(#mask0_4784_6409)">
<path d="M50.961 4H2.3927C-0.585604 4 -3 6.42338 -3 9.41277V38.5872C-3 41.5766 -0.585604 44 2.3927 44H50.961C53.9393 44 56.3537 41.5766 56.3537 38.5872V9.41277C56.3537 6.42338 53.9393 4 50.961 4Z" fill="#4A89DC"/>
<path d="M25.5067 18.6894C25.5293 18.6564 25.5691 18.6398 25.6084 18.6469C25.7214 18.6662 25.827 18.7162 25.9137 18.7916C26.0351 18.916 26.1431 19.0529 26.2359 19.2001C26.2359 19.2596 26.3292 19.3447 26.2359 19.3533C26.1445 19.3683 26.0559 19.3969 25.973 19.4384C25.9337 19.5068 25.9337 19.5912 25.973 19.6596C26.0556 19.7689 26.1632 19.8565 26.2868 19.915C26.3546 19.915 26.5327 20.0086 26.5751 20.0086C26.6477 20.0109 26.7131 20.0535 26.7446 20.1192C26.7444 20.2084 26.7891 20.2916 26.8633 20.3405C26.9312 20.3405 27.0923 20.2128 27.194 20.2128C27.3425 20.2117 27.4906 20.2288 27.6349 20.2639C27.7089 20.3097 27.7725 20.3706 27.8215 20.4426C27.8215 20.4852 27.8893 20.5192 27.9402 20.4426C28.0241 20.37 28.1387 20.3445 28.2454 20.3745C28.2995 20.4418 28.3695 20.4945 28.4489 20.5277C28.4998 20.5277 28.6185 20.6384 28.6524 20.6384C28.723 20.6809 28.7626 20.7605 28.7542 20.8426C28.7551 20.9865 28.7751 21.1296 28.8135 21.2682C28.8564 21.3245 28.8801 21.3931 28.8814 21.4639C28.8848 21.6106 28.932 21.753 29.017 21.8724C29.1122 21.877 29.2066 21.8534 29.2884 21.8043C29.3493 21.8161 29.4053 21.8457 29.4495 21.8894C29.5254 21.9749 29.5805 22.0768 29.6106 22.1873C29.6006 22.3517 29.6006 22.5165 29.6106 22.6809C29.6439 22.8337 29.7011 22.9802 29.7801 23.115C29.8263 23.1797 29.8874 23.2322 29.9582 23.2682C30.0057 23.2122 30.0721 23.1758 30.1448 23.166C30.2473 23.1682 30.3482 23.1914 30.4415 23.2341L30.5857 23.4043C30.6276 23.4441 30.6765 23.4758 30.7298 23.4979C30.8015 23.5307 30.8752 23.5591 30.9503 23.583C31.035 23.5942 31.1177 23.6171 31.1962 23.6511C31.2649 23.67 31.323 23.7161 31.3573 23.7788C31.2951 23.8809 31.2655 23.9997 31.2725 24.1192C31.2727 24.3024 31.2528 24.4851 31.2131 24.6639C31.1702 24.711 31.1434 24.7706 31.1368 24.8341C31.1127 24.9117 31.1127 24.9948 31.1368 25.0724C31.1886 25.0667 31.2405 25.082 31.2809 25.115C31.285 25.1496 31.3079 25.1791 31.3403 25.1916C31.3675 25.1927 31.3919 25.1752 31.3997 25.149C31.4051 25.1122 31.4317 25.0821 31.4675 25.0724C31.5164 25.069 31.5649 25.0842 31.6032 25.115C31.6362 25.1601 31.6934 25.1804 31.7473 25.166C31.8236 25.166 32.0865 25.2767 32.2476 25.2767C32.4499 25.2713 32.6522 25.2913 32.8496 25.3362C32.8557 25.3903 32.8731 25.4425 32.9005 25.4894C32.9518 25.5422 33.0162 25.5804 33.087 25.6001C33.1583 25.597 33.228 25.6213 33.282 25.6682C33.2909 25.7394 33.3238 25.8055 33.3753 25.8554C33.4444 25.9026 33.5351 25.9026 33.6042 25.8554C33.603 25.7994 33.6322 25.7472 33.6805 25.7192C33.727 25.7232 33.7729 25.7078 33.8077 25.6767C33.8484 25.6227 33.9101 25.5887 33.9773 25.583C34.0706 25.583 34.1978 25.7277 34.2147 25.6937C34.251 25.6474 34.3095 25.6246 34.3673 25.6341C34.4335 25.6738 34.4889 25.7294 34.5284 25.7958C34.5363 25.8659 34.5534 25.9346 34.5793 26.0001C34.6111 26.0881 34.6111 26.1844 34.5793 26.2724C34.5076 26.3472 34.4602 26.4422 34.4437 26.5447C34.4486 26.6603 34.4223 26.775 34.3673 26.8767C34.2883 26.9087 34.2375 26.9869 34.2402 27.0724C34.2374 27.2373 34.1998 27.3997 34.1299 27.549C34.0365 27.6366 33.9641 27.7442 33.9179 27.8639C33.9158 27.9678 33.8897 28.0697 33.8416 28.1618C33.7804 28.2116 33.7287 28.2722 33.689 28.3405C33.6783 28.3995 33.6485 28.4534 33.6042 28.4937C33.5533 28.4937 33.3838 28.6043 33.3583 28.6384C33.3148 28.6938 33.2633 28.7426 33.2057 28.783C33.2057 28.783 33.1464 28.783 33.2057 28.8426C33.2747 28.9267 33.3135 29.0316 33.3159 29.1405C33.3184 29.3237 33.2619 29.5028 33.1548 29.6511C33.0211 29.6812 32.8905 29.7239 32.7648 29.7788C32.6989 29.853 32.6216 29.9162 32.5359 29.966C32.4477 30.0209 32.3816 30.1053 32.3493 30.2043C32.3717 30.3483 32.4206 30.4868 32.4935 30.6128C32.6414 30.7204 32.7753 30.8462 32.892 30.9873C32.8599 31.1208 32.7739 31.235 32.6546 31.3022H32.3069C32.1846 31.3343 32.0561 31.3343 31.9338 31.3022C31.9374 31.2522 31.915 31.2039 31.8745 31.1745C31.8135 31.1779 31.7547 31.1985 31.7049 31.2341C31.6457 31.2982 31.5771 31.3527 31.5014 31.3958C31.4086 31.4365 31.3121 31.4679 31.2131 31.4894C31.1312 31.4882 31.05 31.5057 30.9757 31.5405C30.9625 31.5823 30.9259 31.6124 30.8824 31.6171C30.7951 31.6202 30.7103 31.6467 30.6365 31.6937C30.6365 31.7362 30.5348 31.9064 30.5009 31.9405C30.4391 32.0067 30.3979 32.0895 30.3822 32.1788C30.3822 32.2554 30.2295 32.4596 30.2126 32.5703C30.2389 32.6822 30.2946 32.785 30.3737 32.8681C30.2986 32.946 30.1931 32.9866 30.0854 32.9788C29.8944 32.9878 29.7036 32.9559 29.5258 32.8852C29.5342 32.769 29.5342 32.6524 29.5258 32.5362C29.5034 32.4255 29.4633 32.3192 29.4071 32.2213C29.368 32.2147 29.3374 32.184 29.3308 32.1447C29.3291 32.0888 29.2912 32.0405 29.2375 32.0256L29.0425 31.9235C28.9935 31.9232 28.9497 31.8928 28.9322 31.8469C28.9071 31.7657 28.8379 31.7062 28.7542 31.6937C28.6354 31.6889 28.517 31.7092 28.4065 31.7533C28.3983 31.8081 28.378 31.8604 28.3472 31.9064C28.2982 31.958 28.2369 31.9961 28.1691 32.0171C28.0908 32.0193 28.0147 32.0429 27.9487 32.0852C27.8915 32.153 27.8143 32.2007 27.7282 32.2213C27.6265 32.2232 27.526 32.2434 27.4314 32.2809C27.3881 32.325 27.3536 32.377 27.3297 32.4341C27.318 32.4849 27.2785 32.5245 27.2279 32.5362C27.1686 32.5362 27.0584 32.6554 27.016 32.6554C26.9378 32.658 26.8617 32.6815 26.7955 32.7235C26.7262 32.7933 26.6376 32.8408 26.5411 32.8596C26.3902 32.864 26.2398 32.881 26.0917 32.9107C25.9641 32.9456 25.8415 32.9971 25.7271 33.0639C25.6592 33.1326 25.6046 33.2134 25.566 33.3022C25.5672 33.3736 25.5496 33.444 25.5152 33.5064C25.4708 33.5208 25.4402 33.5617 25.4389 33.6086C25.4375 33.6953 25.4141 33.7802 25.371 33.8554C25.2907 33.9612 25.2435 34.0886 25.2354 34.2213C25.2333 34.4136 25.2561 34.6052 25.3032 34.7916C25.382 34.8885 25.4293 35.0073 25.4389 35.132C25.4425 35.3004 25.4283 35.4687 25.3965 35.6341C25.3499 35.6763 25.295 35.7081 25.2354 35.7277C25.189 35.7286 25.1468 35.7546 25.1251 35.7958C25.1224 35.8532 25.1049 35.9089 25.0743 35.9575C24.993 36.0096 24.8993 36.039 24.8029 36.0426C24.6412 36.0439 24.4818 36.0817 24.3366 36.1533C24.2538 36.2483 24.149 36.3214 24.0313 36.366C23.9313 36.3674 23.8345 36.3309 23.76 36.2639C23.719 36.1249 23.6906 35.9825 23.6752 35.8384C23.6733 35.6325 23.7078 35.4279 23.7769 35.2341C23.8667 35.1467 23.9387 35.0427 23.9889 34.9277C24.0038 34.849 24.0038 34.7682 23.9889 34.6894C23.9384 34.5713 23.9153 34.4433 23.9211 34.315C23.9256 34.0856 23.9 33.8567 23.8448 33.6341C23.7825 33.6267 23.7335 33.5774 23.7261 33.515C23.6663 33.3891 23.618 33.2581 23.5819 33.1235C23.585 32.9345 23.565 32.7459 23.5226 32.5618C23.4609 32.5029 23.4143 32.4299 23.3869 32.349C23.3869 32.2894 23.2597 32.1703 23.2597 32.1277C23.2509 32.0321 23.231 31.9379 23.2004 31.8469C23.2176 31.7541 23.2176 31.6588 23.2004 31.566C23.1137 31.4846 23.0368 31.3932 22.9714 31.2937C22.9522 31.2311 22.9053 31.1808 22.8442 31.1575L22.5305 31.0299C22.5305 31.0299 22.3694 30.9618 22.3525 30.9447C22.3151 30.9116 22.272 30.8856 22.2253 30.8682C22.2253 30.8682 22.0727 30.7916 22.0387 30.7916C21.9625 30.7489 21.9049 30.6791 21.8776 30.5958C21.8776 30.4852 21.8098 30.1703 21.7844 30.1362C21.6748 30.077 21.5527 30.0449 21.4282 30.0426H20.8517C20.7894 30.0155 20.7321 29.9781 20.6821 29.932C20.6178 29.8509 20.5768 29.7538 20.5634 29.6511C20.5601 29.4957 20.5373 29.3413 20.4955 29.1916C20.4432 29.1045 20.3979 29.0135 20.3599 28.9192C20.3576 28.8796 20.3392 28.8427 20.309 28.8171C20.2732 28.8098 20.2441 28.7838 20.2327 28.749C20.2402 28.6754 20.2402 28.6013 20.2327 28.5277C20.2076 28.4322 20.1507 28.3481 20.0716 28.2894C19.9982 28.2894 19.9268 28.2655 19.8681 28.2213C19.866 28.1665 19.8483 28.1133 19.8172 28.0682C19.7675 28.0238 19.71 27.9892 19.6476 27.966C19.6013 27.9652 19.559 27.9391 19.5374 27.8979C19.5312 27.8347 19.5109 27.7736 19.478 27.7192C19.4384 27.6632 19.4384 27.588 19.478 27.532C19.5589 27.5007 19.6126 27.4232 19.6137 27.3362C19.6092 27.1669 19.5865 26.9985 19.5459 26.8341C19.4875 26.7414 19.4223 26.6532 19.3509 26.5703C19.3192 26.5322 19.2783 26.5029 19.2322 26.4852C19.1837 26.4784 19.1374 26.461 19.0965 26.4341C19.0522 26.3857 19.0202 26.3273 19.0032 26.2639C18.9989 26.174 18.9817 26.0851 18.9523 26.0001C18.9102 25.8701 18.8818 25.736 18.8676 25.6001C18.8715 25.469 18.8973 25.3396 18.9439 25.2171L19.088 25.0554C19.1491 24.9883 19.2244 24.936 19.3085 24.9022C19.392 24.9046 19.4737 24.928 19.5459 24.9703C19.5928 25.03 19.6541 25.0769 19.7239 25.1064C19.7744 25.0988 19.8236 25.127 19.8426 25.1745C19.9289 25.2749 20.0591 25.3259 20.1903 25.3107C20.4256 25.3164 20.6595 25.273 20.8771 25.183C20.9263 25.0751 20.9688 24.9643 21.0043 24.8511C20.9973 24.7079 21.0459 24.5676 21.14 24.4596C21.2361 24.4342 21.3298 24.4 21.4198 24.3575C21.4728 24.3445 21.5128 24.3009 21.5215 24.2469C21.5314 24.1505 21.5985 24.0698 21.6911 24.0426C21.8123 24.0429 21.9327 24.0227 22.0472 23.983C22.0761 23.9426 22.1257 23.9227 22.1744 23.932C22.2244 23.9732 22.2878 23.9944 22.3525 23.9916C22.4189 23.9203 22.4962 23.8599 22.5814 23.8128C22.6408 23.8128 22.8103 23.6596 22.8782 23.6256C22.9627 23.5884 23.0337 23.526 23.0817 23.4469C23.0308 23.3845 22.9881 23.3158 22.9545 23.2426C22.8841 23.1336 22.8272 23.0164 22.7849 22.8937C22.7858 22.7642 22.8147 22.6364 22.8697 22.5192C22.941 22.4483 23.0242 22.3907 23.1156 22.349C23.2281 22.3205 23.3308 22.2616 23.4123 22.1788C23.5283 22.0647 23.636 21.9424 23.7346 21.8128C23.7346 21.7682 23.7613 21.7279 23.8024 21.7107C23.8605 21.7156 23.9161 21.7362 23.9635 21.7703C24.022 21.8006 24.0915 21.8006 24.15 21.7703C24.1909 21.7242 24.2251 21.6726 24.2518 21.6171C24.2518 21.6171 24.2518 21.4554 24.2518 21.3618C24.278 21.2136 24.3327 21.0719 24.4129 20.9447C24.4778 20.8701 24.5002 20.7674 24.4722 20.6724C24.3805 20.5603 24.2983 20.4408 24.2263 20.315C24.1477 20.1727 24.0476 20.0435 23.9296 19.932C23.8714 19.9188 23.8236 19.8773 23.8024 19.8213C23.8024 19.7703 23.7091 19.6086 23.7006 19.5405C23.7264 19.4069 23.8369 19.3063 23.972 19.2937C24.1601 19.2932 24.3476 19.2733 24.5316 19.2341C24.5748 19.1854 24.6265 19.145 24.6842 19.115C24.7886 19.0521 24.8995 19.0008 25.0149 18.9618C25.1121 18.9603 25.2076 18.937 25.2947 18.8937C25.3424 18.8347 25.4035 18.788 25.4728 18.7575C25.4888 18.7375 25.5004 18.7143 25.5067 18.6894Z" fill="#F6D660"/>
<path d="M35.8513 12.9276C35.6817 12.3999 35.4019 12.3999 35.2323 12.9276C35.0242 13.4909 34.4992 13.8735 33.9011 13.8978C33.3415 13.8978 33.2567 14.1616 33.7146 14.4936C34.1844 14.864 34.3853 15.4823 34.2233 16.0595C34.0452 16.5872 34.2742 16.7489 34.7321 16.417C35.2309 16.0863 35.8782 16.0863 36.377 16.417C36.8264 16.7489 37.0468 16.5787 36.8773 16.0425C36.7153 15.4653 36.9162 14.847 37.386 14.4765C37.8439 14.1531 37.7506 13.8893 37.1825 13.8893C36.5865 13.8664 36.0622 13.4876 35.8513 12.9276ZM30.0177 12.0765C29.8481 11.5489 29.5683 11.5489 29.3987 12.0765C29.1905 12.6398 28.6656 13.0224 28.0675 13.0467C27.5079 13.0467 27.4231 13.3106 27.8809 13.6425C28.3508 14.0129 28.5516 14.6312 28.3897 15.2084C28.2116 15.7361 28.4406 15.8978 28.8984 15.5659C29.3973 15.2352 30.0446 15.2352 30.5434 15.5659C30.9928 15.8978 31.2132 15.7276 31.0436 15.1914C30.8817 14.6142 31.0826 13.9959 31.5524 13.6255C32.0103 13.3021 31.917 13.0382 31.3489 13.0382C30.7487 13.0126 30.2231 12.6262 30.0177 12.0595V12.0765ZM11.5417 14.7404C11.7113 14.2127 11.9911 14.2127 12.1607 14.7404C12.3689 15.3037 12.8938 15.6863 13.4919 15.7106C14.0515 15.7106 14.1278 15.9744 13.67 16.3063C13.2001 16.6768 12.9993 17.295 13.1612 17.8723C13.3393 18.3999 13.1104 18.5616 12.6525 18.2297C12.1543 17.8968 11.5057 17.8968 11.0075 18.2297C10.5581 18.5616 10.3377 18.3914 10.5073 17.8553C10.6692 17.278 10.4684 16.6597 9.99853 16.2893C9.54066 15.9659 9.63393 15.7021 10.202 15.7021C10.8001 15.6778 11.3251 15.2952 11.5332 14.7319L11.5417 14.7404ZM17.4771 12.9531C17.6467 12.4255 17.9265 12.4255 18.0961 12.9531C18.3042 13.5164 18.8292 13.899 19.4273 13.9233C19.9869 13.9233 20.0717 14.1872 19.6138 14.5191C19.144 14.8895 18.9431 15.5078 19.1051 16.085C19.2831 16.6127 19.0542 16.7744 18.5963 16.4425C18.0975 16.1118 17.4502 16.1118 16.9514 16.4425C16.502 16.7744 16.2815 16.6042 16.4511 16.068C16.6131 15.4908 16.4122 14.8725 15.9424 14.5021C15.4845 14.1787 15.5778 13.9148 16.1459 13.9148C16.744 13.8905 17.2689 13.5079 17.4771 12.9446V12.9531ZM23.3107 12.1021C23.4803 11.5744 23.7601 11.5744 23.9297 12.1021C24.1378 12.6654 24.6628 13.048 25.2609 13.0723C25.8205 13.0723 25.8968 13.3361 25.439 13.668C24.9691 14.0385 24.7683 14.6567 24.9302 15.234C25.1083 15.7616 24.8793 15.9233 24.4215 15.5914C23.9227 15.2607 23.2753 15.2607 22.7765 15.5914C22.3271 15.9233 22.1067 15.7531 22.2763 15.217C22.4382 14.6397 22.2373 14.0214 21.7675 13.651C21.3096 13.3276 21.4029 13.0638 21.971 13.0638C22.5691 13.0395 23.0941 12.6569 23.3022 12.0936L23.3107 12.1021ZM41.7867 14.7659C41.6171 14.2382 41.3373 14.2382 41.1677 14.7659C40.9595 15.3292 40.4346 15.7118 39.8365 15.7361C39.2768 15.7361 39.2005 15.9999 39.6584 16.3319C40.1282 16.7023 40.3291 17.3206 40.1672 17.8978C39.9891 18.4255 40.218 18.5872 40.6759 18.2553C41.174 17.9223 41.8227 17.9223 42.3208 18.2553C42.7702 18.5872 42.9907 18.417 42.8211 17.8808C42.6591 17.3036 42.86 16.6853 43.3299 16.3148C43.7877 15.9914 43.6945 15.7276 43.1264 15.7276C42.5283 15.7033 42.0033 15.3207 41.7951 14.7574L41.7867 14.7659Z" fill="white"/>
</g>
</svg>
