<svg width="54" height="48" viewBox="0 0 54 48" fill="none" xmlns="http://www.w3.org/2000/svg">
<mask id="mask0_1_29731" style="mask-type:alpha" maskUnits="userSpaceOnUse" x="3" y="6" width="48" height="36">
<path d="M3.56934 15.1356C4.16681 10.4125 8.0415 7.00193 12.7861 6.60887C16.6412 6.28949 21.6196 6 27 6C32.3804 6 37.3588 6.28949 41.2139 6.60887C45.9585 7.00193 49.8332 10.4125 50.4307 15.1356C50.752 17.6759 51 20.704 51 24C51 27.296 50.752 30.3241 50.4307 32.8644C49.8332 37.5875 45.9585 40.9981 41.2139 41.3911C37.3588 41.7105 32.3804 42 27 42C21.6196 42 16.6412 41.7105 12.7861 41.3911C8.0415 40.9981 4.16681 37.5875 3.56934 32.8644C3.248 30.3241 3 27.296 3 24C3 20.704 3.248 17.6759 3.56934 15.1356Z" fill="#00D0BF"/>
</mask>
<g mask="url(#mask0_1_29731)">
<rect x="3" y="33" width="48" height="9" fill="#1C6864"/>
<rect x="3" y="15" width="48" height="9" fill="#75AAFA"/>
<rect x="3" y="24" width="48" height="9" fill="#FCD95E"/>
<rect x="3" y="6" width="48" height="9" fill="#75AAFA"/>
<path d="M46 15.2815L41.3186 15.5551L45.7697 17.031L41.177 16.0836L45.0944 18.6613L40.9034 16.5575L44.0202 20.0612L40.5165 16.9444L42.6203 21.1354L40.0426 17.2179L40.99 21.8107L39.5141 17.3596L39.2405 22.041L39.1823 15.2233L46 15.2815Z" fill="#FCD95E"/>
<path d="M32.3995 15.1651L37.0809 14.8915L32.6298 13.4156L37.2225 14.363L33.3051 11.7853L37.4961 13.8891L34.3793 10.3854L37.883 13.5022L35.7792 9.31119L38.3569 13.2287L37.4095 8.63591L38.8854 13.087L39.1589 8.40559L39.2172 15.2233L32.3995 15.1651Z" fill="#FCD95E"/>
<path d="M39.159 22.041L38.8854 17.3596L37.4095 21.8107L38.3569 17.2179L35.7793 21.1354L37.8831 16.9444L34.3793 20.0612L37.4962 16.5575L33.3051 18.6613L37.2226 16.0836L32.6298 17.031L37.081 15.5551L32.3995 15.2815L39.2172 15.2233L39.159 22.041Z" fill="#FCD95E"/>
<path d="M39.2405 8.40559L39.5141 13.087L40.99 8.63592L40.0426 13.2287L42.6202 9.31119L40.5164 13.5022L44.0202 10.3854L40.9033 13.8891L45.0944 11.7853L41.1769 14.363L45.7696 13.4156L41.3185 14.8915L46 15.1651L39.1823 15.2233L39.2405 8.40559Z" fill="#FCD95E"/>
<path d="M39.2405 17.2786C40.3434 17.2786 41.2375 16.3845 41.2375 15.2816C41.2375 14.1787 40.3434 13.2846 39.2405 13.2846C38.1376 13.2846 37.2435 14.1787 37.2435 15.2816C37.2435 16.3845 38.1376 17.2786 39.2405 17.2786Z" fill="#FCD95E" stroke="#00A1DE" stroke-width="0.197952"/>
</g>
</svg>
