<svg width="54" height="54" viewBox="0 0 54 54" fill="none" xmlns="http://www.w3.org/2000/svg">
<mask id="mask0_1_29731" style="mask-type:alpha" maskUnits="userSpaceOnUse" x="3" y="9" width="48" height="36">
<path d="M3.56934 18.1356C4.16681 13.4125 8.0415 10.0019 12.7861 9.60887C16.6412 9.28949 21.6196 9 27 9C32.3804 9 37.3588 9.28949 41.2139 9.60887C45.9585 10.0019 49.8332 13.4125 50.4307 18.1356C50.752 20.6759 51 23.704 51 27C51 30.296 50.752 33.3241 50.4307 35.8644C49.8332 40.5875 45.9585 43.9981 41.2139 44.3911C37.3588 44.7105 32.3804 45 27 45C21.6196 45 16.6412 44.7105 12.7861 44.3911C8.04151 43.9981 4.16681 40.5875 3.56934 35.8644C3.248 33.3241 3 30.296 3 27C3 23.704 3.248 20.6759 3.56934 18.1356Z" fill="#00D0BF"/>
</mask>
<g mask="url(#mask0_1_29731)">
<rect x="3" y="36" width="48" height="9" fill="#1C6864"/>
<rect x="3" y="18" width="48" height="9" fill="#75AAFA"/>
<rect x="3" y="27" width="48" height="9" fill="#FCD95E"/>
<rect x="3" y="9" width="48" height="9" fill="#75AAFA"/>
<path d="M46 18.2815L41.3186 18.5551L45.7697 20.031L41.177 19.0836L45.0944 21.6613L40.9034 19.5575L44.0202 23.0612L40.5165 19.9444L42.6203 24.1354L40.0426 20.2179L40.99 24.8107L39.5141 20.3596L39.2405 25.041L39.1823 18.2233L46 18.2815Z" fill="#FCD95E"/>
<path d="M32.3995 18.1651L37.0809 17.8915L32.6298 16.4156L37.2225 17.363L33.3051 14.7853L37.4961 16.8891L34.3793 13.3854L37.883 16.5022L35.7792 12.3112L38.3569 16.2287L37.4095 11.6359L38.8854 16.087L39.1589 11.4056L39.2172 18.2233L32.3995 18.1651Z" fill="#FCD95E"/>
<path d="M39.159 25.041L38.8854 20.3596L37.4095 24.8107L38.3569 20.2179L35.7793 24.1354L37.8831 19.9444L34.3793 23.0612L37.4962 19.5575L33.3051 21.6613L37.2226 19.0836L32.6298 20.031L37.081 18.5551L32.3995 18.2815L39.2172 18.2233L39.159 25.041Z" fill="#FCD95E"/>
<path d="M39.2405 11.4056L39.5141 16.087L40.99 11.6359L40.0426 16.2287L42.6202 12.3112L40.5164 16.5022L44.0202 13.3854L40.9033 16.8891L45.0944 14.7853L41.1769 17.363L45.7696 16.4156L41.3185 17.8915L46 18.1651L39.1823 18.2233L39.2405 11.4056Z" fill="#FCD95E"/>
<path d="M39.2405 20.2786C40.3434 20.2786 41.2375 19.3845 41.2375 18.2816C41.2375 17.1787 40.3434 16.2846 39.2405 16.2846C38.1376 16.2846 37.2435 17.1787 37.2435 18.2816C37.2435 19.3845 38.1376 20.2786 39.2405 20.2786Z" fill="#FCD95E" stroke="#00A1DE" stroke-width="0.197952"/>
</g>
</svg>
