<svg width="54" height="48" viewBox="0 0 54 48" fill="none" xmlns="http://www.w3.org/2000/svg">
<mask id="mask0_1_36014" style="mask-type:alpha" maskUnits="userSpaceOnUse" x="3" y="6" width="48" height="36">
<path d="M3.56934 15.1356C4.16681 10.4125 8.0415 7.00193 12.7861 6.60887C16.6412 6.28949 21.6196 6 27 6C32.3804 6 37.3588 6.28949 41.2139 6.60887C45.9585 7.00193 49.8332 10.4125 50.4307 15.1356C50.752 17.6759 51 20.704 51 24C51 27.296 50.752 30.3241 50.4307 32.8644C49.8332 37.5875 45.9585 40.9981 41.2139 41.3911C37.3588 41.7105 32.3804 42 27 42C21.6196 42 16.6412 41.7105 12.7861 41.3911C8.0415 40.9981 4.16681 37.5875 3.56934 32.8644C3.248 30.3241 3 27.296 3 24C3 20.704 3.248 17.6759 3.56934 15.1356Z" fill="#00D0BF"/>
</mask>
<g mask="url(#mask0_1_36014)">
<rect x="3" width="48" height="49" fill="#1C6864"/>
<path fill-rule="evenodd" clip-rule="evenodd" d="M33.9853 31C33.9846 31.0002 33.9835 31.0016 33.983 31.002C33.5322 31.0996 33.5462 31.4941 33.8356 31.6679C29.0753 31.6679 21.7701 31.5997 20.2035 31.5997C19.327 31.5997 16.5541 31.5115 16.5007 31.5115C17.0954 32.2455 17.9568 32.3951 19.0841 32.4101L33.7832 32.388C33.585 32.6851 33.8012 33.1637 33.9566 33.2506C33.9599 33.2524 33.9652 33.2552 33.9685 33.2566C33.9745 33.2594 33.9809 33.2614 33.9876 33.2626C33.9894 33.263 33.9929 33.2624 33.9947 33.2626C34.1793 33.2993 34.2605 33.1865 34.3226 33.1041C34.6221 33.1263 36.3073 33.1469 36.4616 33.1021C36.4621 33.1019 36.4635 33.1003 36.4639 33.1001C36.5682 33.2297 36.6718 33.3521 36.8704 33.3308C37.2178 33.2679 37.4915 33.2361 37.5001 32.6408C37.5001 32.6408 37.4646 31.6266 36.6754 31.6901C36.4887 31.7139 35.9648 31.7583 35.9648 31.7583C35.3585 31.6974 34.9138 31.6912 34.2323 31.6701C34.2952 31.6027 34.4063 31.3297 34.2702 31.2308C34.2348 31.2059 34.1819 31.192 34.1087 31.1967H34.1064C34.1053 31.1967 34.1026 31.1968 34.1016 31.1967C34.1011 31.1966 34.0997 31.1948 34.0993 31.1947C34.0974 31.1941 34.094 31.1936 34.0922 31.1927C34.0878 31.1898 34.0838 31.1864 34.0803 31.1827C34.0795 31.1818 34.0764 31.1796 34.0756 31.1787C34.0411 31.1364 34.0223 31.0325 33.9995 31.0062L33.9972 31.0042C33.9968 31.004 33.995 31.0024 33.9948 31.0022C33.9933 31.0015 33.9917 31.0008 33.9901 31.0002H33.9853L33.9853 31ZM34.3085 32.4503C34.3093 32.45 34.3101 32.4506 34.3109 32.4503C35.0053 32.4789 35.6578 32.4558 36.3523 32.4844C36.4625 32.5633 36.4074 32.7442 36.3357 32.7772C36.3319 32.7788 36.3279 32.7802 36.3239 32.7812C36.3213 32.7818 36.3175 32.7812 36.3144 32.7812C36.3112 32.7812 36.308 32.7818 36.3049 32.7812L35.7226 32.7673C35.7225 32.7577 35.7209 32.7483 35.7179 32.7391C35.6644 32.6052 35.2767 32.6142 35.1855 32.7191C35.1838 32.7211 35.1824 32.723 35.1808 32.7251C35.1789 32.7276 35.1773 32.7303 35.176 32.7332C35.1742 32.7364 35.1727 32.7397 35.1713 32.7431C35.1698 32.7471 35.1695 32.753 35.1689 32.7572C35.1683 32.7625 35.166 32.7681 35.1665 32.7732C34.8623 32.8041 34.5873 32.7646 34.2824 32.7552C34.1937 32.6612 34.2034 32.4912 34.3086 32.4503H34.3085Z" fill="white"/>
<path d="M36.4679 21.4268C36.5639 21.474 36.8166 21.1879 36.8076 20.8286C36.8354 20.6443 36.7362 19.9635 36.4842 19.8481C36.4547 19.8388 36.4236 19.8349 36.3928 19.8388C36.2611 19.8564 36.1365 19.9684 36.1937 20.1518C36.1576 20.2594 36.3724 20.6363 36.428 20.8364C36.4781 20.9788 36.3635 21.3815 36.4677 21.4238L36.4679 21.4268ZM16.58 15.6468C16.8884 15.7822 17.4668 15.7253 17.4424 15.2667C17.4424 15.227 17.4327 15.0899 17.4283 15.0529C17.3969 14.9854 17.3386 14.9599 17.283 14.9686L17.2836 14.9688C17.2273 14.9781 17.1742 15.0208 17.1547 15.0896C17.1423 15.1354 17.1758 15.2113 17.1313 15.2342C17.1057 15.2607 17.0077 15.2435 17.0118 15.1156C17.0118 15.076 16.9795 15.0331 16.9602 15.0076C16.9408 14.9944 16.9276 14.99 16.8922 14.99C16.8495 14.9911 16.8504 15.0031 16.8266 15.0353C16.8161 15.0663 16.8028 15.1024 16.8028 15.1411C16.7976 15.186 16.7781 15.2016 16.7418 15.2081C16.7018 15.2081 16.7106 15.2116 16.6786 15.1905C16.6601 15.1684 16.6367 15.164 16.6367 15.13C16.6367 15.0992 16.627 15.0401 16.6156 15.0176C16.5984 14.9956 16.5719 14.9867 16.5406 14.9779C16.3722 14.9785 16.3599 15.1565 16.3695 15.224C16.3573 15.2372 16.3506 15.552 16.5805 15.6407L16.58 15.6468ZM14.1079 15.6292C14.1551 15.7377 14.061 16.0871 14.1594 16.1194C14.2499 16.1546 14.3745 15.8773 14.4219 15.6205C14.448 15.4798 14.4281 14.9985 14.0728 14.8991C14.0543 14.8956 14.0357 14.8898 14.0165 14.8898C13.8806 14.8863 13.7307 14.9638 13.7892 15.1142C13.7552 15.1962 14.0552 15.4732 14.1079 15.6262V15.6292ZM24.9999 15.7584C25.177 15.3173 25.1778 15.1292 25.1896 14.9421C25.1623 14.7997 25.0949 14.7309 25.0187 14.7366C24.9424 14.7459 24.858 14.8243 24.7891 14.9827C24.7299 15.1035 24.6578 15.7321 24.6695 15.7321C24.6223 15.9195 24.8818 15.9984 24.9999 15.7586V15.7584ZM22.7993 15.6354C22.8868 15.7509 22.973 15.739 23.1484 15.6574C23.2492 15.589 23.2832 15.5449 23.3171 15.4303C23.359 15.238 23.0975 15.5211 23.064 15.3069C23.0056 15.108 23.1725 15.0264 23.3311 14.8339C23.3347 14.7435 23.3364 14.6694 23.2726 14.6672C23.2435 14.6664 23.2001 14.6804 23.139 14.7143C23.002 14.7986 22.7303 15.06 22.7219 15.3601C22.7135 15.5294 22.6791 15.5285 22.7992 15.6366L22.7993 15.6354ZM13.8059 18.6727C14.7062 18.7524 14.2088 17.2702 14.5348 17.0011C14.5963 16.8683 14.7105 16.8657 14.7199 17.032V18.2911C14.7115 18.7002 15.0039 18.8221 15.2307 18.9066C15.4668 18.889 15.6233 18.8934 15.7158 19.1073L15.8283 21.2864C15.8283 21.2864 16.374 21.4305 16.4001 20.0618C16.4261 19.2579 16.2263 18.5833 16.3439 18.427C16.3479 18.2735 16.5618 18.2656 16.7094 18.3405C16.9447 18.4936 17.0491 18.6818 17.4148 18.606C17.9712 18.4649 18.3064 18.2157 18.3146 17.822C18.2824 17.4476 18.2351 17.0732 18.0592 16.6989C18.0835 16.631 17.9527 16.4542 17.9772 16.3858C18.0772 16.5305 18.2283 16.5181 18.2631 16.3858C18.1684 16.0984 18.0209 15.8226 17.7827 15.7034C17.5859 15.5434 17.2977 15.5768 17.1922 15.9107C17.1432 16.2947 17.3433 16.7501 17.6468 17.1222C17.7112 17.2672 17.8015 17.5093 17.7616 17.727C17.6 17.812 17.4399 17.7763 17.3046 17.6449C17.3046 17.6449 16.8617 17.3394 16.8617 17.2715C16.9791 16.5779 16.8868 16.4986 16.822 16.306C16.7766 16.0406 16.6399 15.9563 16.5292 15.7748C16.4184 15.6667 16.2681 15.6667 16.1964 15.7748C16.0007 16.0874 16.0925 16.7595 16.2339 17.0598C16.3361 17.3362 16.4928 17.509 16.419 17.509C16.3582 17.6651 16.2316 17.6289 16.1402 17.4486C16.0097 17.0755 15.9831 16.5199 15.9831 16.2694C15.9444 15.9589 15.9004 15.2953 15.6785 15.1269C15.6194 15.0524 15.5494 15.0268 15.4817 15.0339C15.3946 15.0432 15.3125 15.1085 15.2731 15.1957C15.2586 15.504 15.2568 15.8123 15.2943 16.0964C15.4465 16.5946 15.4946 17.033 15.5685 17.5433C15.5888 18.2269 15.1402 17.8387 15.1607 17.4992C15.2643 17.0591 15.2357 16.366 15.1444 16.1904C15.0714 16.0149 14.987 15.9713 14.8093 16.0004C14.6682 15.991 14.3042 16.3584 14.2024 16.9636C14.2024 16.9636 14.1176 17.2745 14.0805 17.5511C14.0307 17.8637 13.8058 18.0852 13.6493 17.5069C13.514 17.0876 13.4307 16.0535 13.204 16.2955C13.1391 17.1027 13.0621 18.5232 13.8063 18.669L13.8059 18.6727ZM19.6059 17.3029C19.6063 17.3031 19.6078 17.3028 19.6083 17.3029C19.6087 17.3031 19.6101 17.3052 19.6106 17.3052C19.611 17.3054 19.6123 17.3052 19.6129 17.3052L19.6152 17.3076C19.6739 17.3428 20.3955 17.3428 20.4753 17.3099C20.4759 17.3095 20.4772 17.3076 20.4776 17.3076C20.4781 17.3072 20.4797 17.3077 20.48 17.3076C20.4802 17.3074 20.4799 17.3052 20.48 17.3052C20.7279 17.221 21.9047 15.9813 21.9047 15.9813C21.8437 15.9332 21.7876 15.8975 21.7266 15.8494C21.6613 15.797 21.6679 15.7463 21.7266 15.6939C22.0181 15.5377 21.9257 15.1936 21.7735 15.0372C21.6473 14.9852 21.5285 14.9676 21.422 14.9724C21.3242 14.9753 21.2282 14.9997 21.1408 15.0437C20.9364 15.2241 20.8884 15.5134 21.0494 15.6938C21.2061 15.7618 21.3618 15.9072 21.2579 15.9875C20.8143 16.4236 19.6617 17.1524 19.6035 17.2854C19.603 17.2867 19.6022 17.2879 19.6012 17.289C19.601 17.29 19.6012 17.2924 19.6012 17.2936V17.2959C19.6019 17.2972 19.6026 17.2983 19.6035 17.3006L19.6059 17.303V17.3029ZM21.352 15.3597C21.3569 15.3588 21.3612 15.3574 21.3661 15.3574C21.4381 15.3481 21.525 15.4117 21.5677 15.4976C21.6131 15.5893 21.5901 15.6771 21.5161 15.6943C21.442 15.7119 21.346 15.6502 21.3006 15.5585C21.2551 15.4668 21.2781 15.3764 21.3521 15.3596L21.352 15.3597ZM22.9797 18.0304C23.3396 18.1676 23.5681 17.5362 23.7155 16.8448C23.8163 16.6504 23.8933 16.6288 23.9451 16.728C23.9319 17.6476 24.0167 17.8527 24.2732 18.1318C24.8454 18.5387 25.3188 18.1833 25.3559 18.1494L25.8012 17.7389C25.9003 17.6427 26.0314 17.637 26.1714 17.7213C26.3075 17.835 26.2901 18.0321 26.5815 18.1684C26.8268 18.2588 27.3506 18.1904 27.472 17.9955C27.6355 17.7371 27.6751 17.6485 27.7509 17.5506C27.8675 17.4073 28.0673 17.4713 28.0673 17.5198C28.0487 17.5996 27.9313 17.6781 28.011 17.8223C28.1498 17.9179 28.182 17.8532 28.2642 17.8354C28.5545 17.7076 28.7726 17.1271 28.7726 17.1271C28.7854 16.9105 28.6518 16.9273 28.5664 16.9714C28.455 17.0344 28.4482 17.0556 28.3368 17.1182C28.1948 17.1403 27.9198 17.224 27.7837 17.0296C27.6447 16.7963 27.6439 16.4709 27.5377 16.2348C27.5377 16.2172 27.3519 15.8644 27.5235 15.842C27.6102 15.8596 27.7964 15.901 27.8258 15.7577C27.9167 15.618 27.6298 15.2214 27.4344 15.0213C27.2649 14.8497 27.0308 14.829 26.8041 15.0037C26.6454 15.1381 26.6689 15.2889 26.6377 15.4314C26.5976 15.595 26.6051 15.7978 26.7854 16.0145C26.9438 16.302 27.2318 16.672 27.1369 17.1936C27.1369 17.1936 26.9695 17.4415 26.6752 17.4097C26.5527 17.3832 26.3527 17.3361 26.2464 16.6128C26.166 16.0653 26.2663 15.2982 26.0143 14.9391C25.9581 14.8037 25.9085 14.6719 25.8269 14.682C25.7779 14.6855 25.7179 14.745 25.6348 14.8853C25.5752 15.0308 25.3179 15.2513 25.5035 15.706C25.6554 15.994 25.7177 16.4627 25.6488 16.9845C25.5436 17.1326 25.5196 17.1842 25.3817 17.332C25.188 17.5242 24.978 17.4748 24.817 17.4033C24.6664 17.3099 24.5483 17.2618 24.4795 16.965C24.4919 16.4917 24.5214 15.717 24.428 15.5526C24.2896 15.2982 24.0615 15.3894 23.964 15.4661C23.4955 15.8607 23.2641 16.5274 23.1227 17.0577C22.9927 17.4436 22.8543 17.3325 22.7571 17.1764C22.5204 16.9718 22.5038 15.3738 22.2181 15.6366C21.7605 16.8418 22.4807 18.1622 22.9797 18.0338V18.0304ZM21.0942 17.1716C20.8215 17.3074 20.7159 17.711 20.8857 17.9469C21.0444 18.1541 21.2951 18.0788 21.3286 18.0788C21.5958 18.1096 21.7551 17.6166 21.7551 17.6166C21.7551 17.6166 21.763 17.4777 21.4457 17.7396C21.3122 17.7661 21.294 17.7175 21.2606 17.6492C21.2328 17.5209 21.239 17.3908 21.3025 17.263C21.332 17.1862 21.3026 17.1373 21.2393 17.131C21.2017 17.1276 21.1513 17.1404 21.094 17.1707L21.0942 17.1716ZM38.7228 23.3253C38.6643 23.2636 38.5325 23.2988 38.4439 23.2944C38.402 23.2944 38.2627 23.2724 38.3291 23.1626C38.3841 23.0925 38.4044 23.0506 38.4416 22.9637C38.4831 22.8791 38.4465 22.8222 38.2963 22.7759C38.2198 22.7627 38.1669 22.7583 38.1112 22.7583C38.0555 22.7606 37.9969 22.7676 37.9121 22.7759C37.8202 22.7935 37.7881 22.8309 37.7715 22.9333C37.778 23.089 37.8813 23.081 37.987 23.1427C38.0483 23.2146 38.0881 23.2794 37.9821 23.3972L37.7103 23.6132C37.663 23.6873 37.6334 23.802 37.7782 23.8377C38.0455 23.9069 38.664 23.5365 38.664 23.5286C38.7642 23.4594 38.731 23.328 38.7226 23.328L38.7228 23.3253ZM40.6422 16.8193C40.6219 16.6817 40.5559 16.3659 40.5812 16.3247C40.6218 16.228 40.8287 16.334 40.9023 16.2232C41.0102 16.1215 40.3679 15.3639 40.143 15.0398C40.098 14.9587 40.0703 14.8916 40.0305 14.8951C39.9996 14.8975 39.9617 14.9441 39.9039 15.0569C39.7649 15.2672 39.7165 15.6429 39.7727 15.9749C40.1076 18.0622 40.3563 20.0834 40.4078 21.9335C40.3792 22.1089 40.3708 22.2024 40.2812 22.4236C40.0836 22.6569 39.8657 22.9498 39.6603 23.091C39.455 23.2321 39.0181 23.3666 38.8752 23.4711C38.422 23.7127 38.419 23.9901 38.7861 24.0002C39.4177 23.9327 40.1649 23.8851 40.6796 23.1687C40.8173 22.9681 40.9795 22.424 40.9866 22.0911C41.0348 20.1389 40.9597 18.2302 40.6421 16.8193H40.6422ZM13.3057 20.6471L15.6491 19.6105C15.5209 19.4342 15.6412 19.2755 15.1594 19.2627C14.4188 19.2758 13.3343 20.1573 13.3057 20.647V20.6471ZM13.7231 22.8842C13.5283 23.2488 13.4473 22.9993 13.4303 22.7955C13.4007 22.4093 13.4409 22.0536 13.4865 21.7719C13.5108 21.6273 13.5099 21.577 13.4914 21.5775C13.4729 21.5781 13.4354 21.6295 13.386 21.6868C12.9455 22.3337 12.9063 23.2992 13.1493 23.5873C13.2785 23.7236 13.4914 23.783 13.6484 23.7407C13.9252 23.63 14.0468 23.1134 13.9811 22.9244C13.8888 22.7908 13.8155 22.7701 13.7233 22.8848L13.7231 22.8842ZM19.2472 21.9121C19.5681 20.9275 19.2406 20.1848 19.348 20.0937C19.3489 20.0929 19.3517 20.0925 19.353 20.0913C19.3539 20.0907 19.3565 20.0902 19.3578 20.089C19.3589 20.0885 19.3613 20.0866 19.3628 20.0866C19.3673 20.0853 19.3721 20.0845 19.3768 20.0843C19.7728 20.4772 20.3283 20.1341 20.4501 19.9979C20.5023 19.93 20.6329 19.8859 20.7242 19.9714C21.0331 20.176 21.5743 20.0794 21.6874 19.7188C21.7527 19.366 21.8078 19.0028 21.8209 18.626C21.6197 18.6838 21.4575 18.7269 21.3921 18.79C21.3766 18.8076 21.3652 18.821 21.3616 18.8421L21.3101 19.1551C21.3085 19.1645 21.3052 19.1728 21.3009 19.1816C21.2917 19.1948 21.2784 19.2081 21.2634 19.2126C21.1923 19.2478 21.0682 19.2302 21.0618 19.1327C20.9663 18.7319 20.5724 18.6796 20.3331 19.3012C20.1721 19.4216 19.8785 19.4449 19.848 19.266C19.8868 18.8488 19.7042 18.793 19.3395 18.9895L18.988 16.5492C19.1403 16.5457 19.2799 16.6466 19.4192 16.4861C19.2692 16.0539 18.9497 15.1755 18.7701 15.093C18.7687 15.0925 18.7669 15.0919 18.7652 15.0907C18.7572 15.0814 18.7486 15.0726 18.7397 15.0642C18.7359 15.0619 18.7322 15.0595 18.7282 15.0549C18.7249 15.0526 18.7198 15.0514 18.7168 15.0455C18.7093 15.0421 18.7014 15.0362 18.6934 15.0362C18.6775 15.0327 18.6608 15.0327 18.6442 15.0327H18.6443C18.5996 15.0362 18.5502 15.0592 18.492 15.0724C18.3007 15.1288 18.1215 15.281 18.178 15.5778L18.7779 19.0786C18.8127 19.2267 18.6777 19.4225 18.5037 19.4027C18.2079 19.2184 18.135 18.8441 17.6297 18.8607C17.2642 18.8641 16.8475 19.231 16.7955 19.5841C16.7345 19.8645 16.7128 20.1688 16.7955 20.4134C17.0516 20.6978 17.3599 20.6678 17.6297 20.6034C17.8515 20.5192 18.034 20.3177 18.1124 20.3658C18.1127 20.366 18.1145 20.3656 18.1148 20.3658C18.115 20.3661 18.1145 20.3681 18.1148 20.3681C18.1631 20.4462 18.1103 21.105 17.0696 21.6142C16.4301 21.8788 15.921 21.9418 15.6471 21.4608C15.4775 21.1601 15.6595 20.0153 15.2418 20.2794C14.0063 23.2143 18.1361 23.624 18.5974 20.4002C18.6274 20.3094 18.7183 20.2181 18.7826 20.2406C18.8104 20.2538 18.8366 20.2869 18.8459 20.3526C18.7501 23.2714 15.651 23.4714 15.1247 22.5533C14.9942 22.3368 14.9549 21.8551 14.9419 21.5664C14.9181 21.3918 14.8704 21.2907 14.8153 21.2511C14.6904 21.1646 14.5216 21.3913 14.4849 21.7845C14.4326 22.1012 14.4475 22.1875 14.4475 22.493C14.6127 24.7983 18.6009 23.8077 19.249 21.9034L19.2472 21.9121ZM17.7066 19.9173C17.7063 19.9177 17.7068 19.9196 17.7066 19.9196C17.706 19.9206 17.705 19.9231 17.7043 19.9231C17.6734 19.9583 17.564 19.9452 17.4864 19.9452C17.3923 19.9416 17.346 19.9275 17.2895 19.8565C17.2626 19.778 17.3447 19.7008 17.381 19.6426C17.3813 19.642 17.383 19.6414 17.3833 19.6403C17.3882 19.6368 17.3935 19.6271 17.3996 19.6227C17.4278 19.5962 17.4764 19.5768 17.5285 19.5707C17.5386 19.5695 17.5484 19.5683 17.559 19.5683C17.6315 19.569 17.7081 19.5992 17.7487 19.6957C17.7786 19.7708 17.7628 19.8549 17.7068 19.9162L17.7066 19.9173ZM34.805 23.6941L34.1113 23.7628L34.805 23.6941ZM30.8938 17.7159C31.2022 17.8512 31.783 17.7917 31.7585 17.3336C31.7585 17.2939 31.7466 17.1567 31.7422 17.1197C31.7109 17.0518 31.6526 17.0267 31.5969 17.0355C31.5412 17.0448 31.4876 17.0888 31.468 17.1589C31.4556 17.2048 31.4918 17.2784 31.4469 17.3014C31.4212 17.3278 31.3209 17.3107 31.3249 17.1845C31.3249 17.1449 31.2932 17.0999 31.2734 17.0742C31.254 17.0611 31.2408 17.0566 31.2054 17.0566C31.1627 17.0579 31.1636 17.0698 31.1399 17.1021C31.1297 17.133 31.1165 17.1694 31.1165 17.2078C31.1112 17.2527 31.094 17.2683 31.058 17.2749C31.0178 17.2749 31.0249 17.2784 30.9923 17.2573C30.9738 17.2353 30.9504 17.2308 30.9504 17.1969C30.9504 17.166 30.9408 17.1073 30.9292 17.0844C30.9125 17.0624 30.8856 17.0579 30.8543 17.0492C30.6858 17.0498 30.6759 17.226 30.6856 17.2931C30.6733 17.3061 30.6644 17.6241 30.8941 17.7119L30.8938 17.7159ZM35.8668 18.8973C35.872 18.6297 35.9002 18.2741 35.9159 18.0528C35.9226 17.969 35.9437 17.8773 36.0306 17.8562C36.1174 17.8341 36.268 17.9364 36.2697 17.8468C36.2538 17.6766 36.217 17.4257 36.1127 17.3069C36.0593 17.2338 35.9716 17.1944 35.8807 17.1901C35.7292 17.1808 35.568 17.2738 35.5268 17.4644C35.5274 17.5768 35.5819 17.6386 35.5713 17.7404C35.5554 17.7986 35.4902 17.837 35.3346 17.7669C35.3593 17.7448 35.2338 17.583 35.2338 17.583C35.1124 17.5151 34.9503 17.5865 34.8448 17.65C34.7867 17.747 34.7439 17.9141 34.8099 18.0838C34.9842 18.3806 35.5819 18.8867 35.8669 18.8916L35.8668 18.8973ZM33.9449 22.5897C34.1598 22.591 34.4082 22.1368 34.5143 21.6871C34.5724 21.0676 34.4755 20.6906 34.4581 20.3265C34.4404 19.9623 34.0108 17.0083 33.9238 16.7328C33.8188 16.2119 34.3417 16.6639 34.2847 16.3615C34.1039 15.9796 33.6526 15.4228 33.5114 15.0916C33.4583 15.0026 33.4517 14.9205 33.4083 14.9276C33.3823 14.9323 33.3437 14.9673 33.2723 15.0551C33.0959 15.5865 33.0339 16.0207 33.1012 16.3508C33.5543 18.5301 34.0186 20.5155 33.9449 22.59V22.5897ZM32.3328 22.145C31.8368 22.6222 31.1217 23.2104 30.3433 23.4818C30.2595 23.5683 30.5514 23.9378 30.9291 23.9375C31.5607 23.8701 32.1157 23.5433 32.6304 22.6828C32.7681 22.4821 33.01 22.0525 33.0171 21.7195C33.0653 19.7674 32.9109 18.2496 32.593 16.8387C32.5727 16.7011 32.5864 16.5393 32.6115 16.4974C32.6521 16.4523 32.7911 16.4984 32.8646 16.3871C32.9725 16.2857 32.5764 15.4434 32.3514 15.1193C32.3064 15.0381 32.2787 14.9734 32.2389 14.9769C32.2081 14.9793 32.1702 15.0237 32.1123 15.137C31.9732 15.3473 31.8787 15.7126 31.8896 16.0549C32.1908 17.9771 32.2833 19.6593 32.4802 21.5815C32.4961 21.7675 32.4665 22.0374 32.3326 22.1452L32.3328 22.145ZM33.6294 21.3573C33.6357 21.3308 33.6369 21.3308 33.6294 21.3573V21.3573ZM31.102 15.938C31.2121 16.2219 31.018 16.4927 31.1325 16.5319C31.2379 16.576 31.3845 16.2382 31.4395 15.9271C31.503 15.6754 31.308 15.1591 31.0317 15.0526C31.0106 15.0479 30.9881 15.0479 30.9661 15.0432C30.8081 15.0386 30.6333 15.131 30.7013 15.3131C30.6616 15.4127 31.0409 15.7509 31.102 15.935V15.938ZM36.6711 18.8859C36.6626 18.8846 36.6538 18.8854 36.6456 18.8882L35.181 19.8579C35.0393 19.9743 35.1102 20.3823 35.181 20.3352C35.2835 20.3704 36.7224 19.4728 36.6949 19.3676C36.7576 19.3711 36.7877 18.9053 36.6715 18.886L36.6711 18.8859ZM35.665 16.2638C36.0996 16.7566 36.5246 17.2577 36.9399 17.7668C37.0303 18.8392 37.0544 19.8221 37.1461 20.8961C37.1333 21.3556 36.9798 21.9656 36.8345 22.0236C36.8345 22.0236 36.6125 22.1408 36.4643 22.0104C36.3564 21.9707 35.9252 21.3473 35.9252 21.3473C35.7045 21.1608 35.5574 21.2141 35.4004 21.3473C34.9673 21.7327 34.7714 22.4547 34.4771 22.952C34.4013 23.063 34.1875 23.157 33.9499 22.9426C33.461 22.3265 33.5997 21.5004 33.6301 21.3564L33.624 21.3829C33.0864 21.9413 33.3245 22.8664 33.4459 23.0654C33.6231 23.3921 33.7664 23.6013 34.1114 23.7629C34.4256 23.9759 34.6701 23.8431 34.805 23.6941C35.1211 23.392 35.1253 22.6201 35.2737 22.4674C35.3778 22.1865 35.6386 22.235 35.7658 22.3594C35.889 22.5225 36.0346 22.6292 36.2157 22.7178C36.5106 22.9573 36.8625 23.0009 37.2094 22.7827C37.4463 22.6602 37.6001 22.5005 37.7389 22.1866C37.8879 21.8197 37.8142 19.8963 37.7808 18.8262L38.4416 19.7095C38.5375 20.6482 38.581 21.5738 38.5495 22.4609C38.5269 22.6372 39.2173 21.9342 39.2127 21.6013V20.8C39.5476 21.2928 39.8717 21.7938 40.1781 22.301C40.3679 22.2089 40.3029 21.2175 40.183 21.0809C39.8621 20.5847 39.4513 20.0486 39.1332 19.6339C39.0702 19.1097 38.9846 18.4927 38.9457 18.3034C38.8851 18.0085 38.8242 17.5652 38.7324 17.215C38.7073 17.0783 38.6312 16.6415 38.6552 16.5996C38.6926 16.5021 38.8339 16.603 38.9036 16.4893C39.0078 16.3843 38.5424 15.2731 38.3059 14.9559C38.221 14.8135 38.0674 14.8629 37.8771 15.0943C37.7006 15.2464 37.7646 15.5936 37.8326 15.9237C38.0076 16.7649 38.1636 17.6218 38.2872 18.4764L37.5045 17.4182L37.4696 17.2515C37.4696 17.2339 37.4322 16.5633 37.3993 16.4028C37.3932 16.3377 37.3769 16.3191 37.451 16.3275C37.5295 16.3883 37.5401 16.3914 37.5892 16.4117C37.6686 16.4249 37.7379 16.3015 37.69 16.1873L36.9542 14.9347C36.9247 14.9082 36.8916 14.8796 36.8534 14.8743C36.8155 14.8696 36.7736 14.8874 36.7268 14.9496C36.6374 15.022 36.5412 15.1529 36.544 15.3209C36.5657 15.6172 36.623 15.9207 36.6448 16.2171L36.6682 16.3358C36.6425 16.3048 36.6151 16.2752 36.5862 16.2471C35.9593 15.6401 36.8736 16.148 36.4666 15.6791C36.122 15.3303 36.0211 15.2193 35.7261 15.0096C35.5782 14.9214 35.4888 14.753 35.4402 15.0361C35.4217 15.2878 35.401 15.5796 35.4195 15.7921C35.4185 15.9097 35.5511 16.132 35.6655 16.2628L35.665 16.2638ZM39.3 16.7506C39.35 16.8931 39.2237 17.3519 39.3277 17.3942C39.4237 17.4413 39.5588 17.0772 39.6089 16.7398C39.6367 16.5555 39.4883 15.9072 39.2362 15.7917C39.2165 15.7883 39.1962 15.7824 39.1754 15.7824C39.0313 15.7789 38.8742 15.8785 38.9363 16.0761C38.9002 16.1837 39.2438 16.5498 39.2996 16.7499L39.3 16.7506ZM28.3742 23.3944C28.3742 23.4076 28.4949 23.5008 28.6366 23.4209C28.9358 23.3156 29.1222 23.2132 29.5411 23.1295C29.6511 23.1271 29.6447 22.8561 29.4708 22.8468C29.2439 22.86 29.0344 22.8689 28.8075 23.0325C28.668 23.0589 28.644 22.9839 28.613 22.9138C28.5777 22.7397 28.6929 22.6167 28.6693 22.4861C28.6754 22.4908 28.5988 22.4284 28.5005 22.4235C28.4648 22.4223 28.4292 22.4282 28.3975 22.4456C28.3913 22.4456 28.082 22.6378 27.9827 22.7714C27.9221 22.8155 27.929 22.8507 27.9479 22.9248C27.9952 23.025 28.0784 22.9937 28.1729 22.9469C28.2982 22.9293 28.3589 23.0068 28.3486 23.1457C28.2907 23.3186 28.3742 23.3834 28.3742 23.3944ZM29.7886 20.6423L29.7909 20.6399C29.7911 20.6397 29.793 20.6376 29.7932 20.6376C29.7934 20.6374 29.7951 20.6364 29.7955 20.6352V20.6306C29.7958 20.6232 29.795 20.6157 29.7932 20.6086L29.6573 20.5349L26.9788 20.5218C26.9457 20.5086 26.9211 20.4952 26.9062 20.4908C26.9045 20.4893 26.9028 20.4878 26.9012 20.4862L26.8989 20.4839L26.8966 20.4815L26.8942 20.478L26.8919 20.4756V20.4733L26.8896 20.471V20.4616V20.45L26.8919 20.4476L26.8942 20.4442C26.9066 20.4266 26.939 20.4132 26.9786 20.3987C27.6182 20.3185 28.7545 20.147 28.8299 19.1398C28.8176 18.6157 28.5864 18.2717 27.888 18.1764C27.3747 18.2116 27.0088 18.6706 27.0677 19.1743C27.0434 19.3096 27.1176 19.5764 26.9669 19.6059C25.9825 19.6889 24.908 20.2567 24.872 20.6642H24.8696L24.8672 20.6665L24.8623 20.6688H24.8574C24.8551 20.6696 24.8525 20.67 24.8504 20.6711H24.8364C24.8333 20.6705 24.8301 20.67 24.8272 20.6688C24.7631 20.6512 24.6807 20.5551 24.6936 20.4184C24.6562 19.7151 24.4077 18.9191 24.0187 18.3062C23.8799 18.1783 23.8187 18.1268 23.7797 18.1206C23.7784 18.1205 23.7763 18.1206 23.7748 18.1206H23.7603C23.7578 18.1213 23.7556 18.1225 23.7536 18.1241C23.7516 18.1257 23.75 18.1277 23.7488 18.1299C23.7463 18.1311 23.744 18.1322 23.7418 18.1334C23.7118 18.1554 23.6761 18.2022 23.5966 18.2542C23.4623 18.3949 23.4383 18.4928 23.4465 18.7747C23.454 18.8012 23.7013 19.437 23.9105 19.8826C24.0516 20.345 24.1821 20.8748 24.0863 21.3749C23.7559 22.0362 23.0918 22.6293 22.4507 22.9515C22.124 23.0476 21.8421 23.0149 21.7665 22.9491L21.7642 22.9468C21.5767 22.8303 21.5725 22.6245 21.584 22.5883V22.586L21.5863 22.5836C22.1273 22.2362 22.7451 21.9559 23.2289 21.0179C23.3718 20.6594 23.4154 20.4445 23.2734 19.8905C23.2181 19.6842 23.1497 19.5144 22.9969 19.3679L22.9992 19.3656C23.0913 19.3259 23.3302 19.4873 23.3671 19.3876C23.3106 19.123 23.1163 18.7681 22.8961 18.5864C22.7034 18.425 22.4937 18.4064 22.3173 18.5555C22.1186 18.6573 22.0763 19.0234 22.172 19.3437C22.2782 19.5849 22.5652 19.6268 22.7696 20.1125V20.1149C22.7738 20.1414 22.8397 20.4778 22.737 20.6116C22.6534 20.8515 21.5809 21.631 21.5043 21.6784C21.5035 21.6793 21.4981 21.6819 21.4972 21.6831L21.4949 21.6855C21.4941 21.6861 21.4933 21.6866 21.4925 21.6878C21.4918 21.6885 21.491 21.6889 21.4902 21.6901H21.4852C21.4845 21.6894 21.4837 21.6889 21.4829 21.6878V21.6855C21.4819 21.684 21.4812 21.6825 21.4806 21.6808C21.4773 21.6587 21.4831 21.6119 21.4806 21.5317C21.4735 21.3858 21.5391 21.055 21.5344 20.9982V20.9959L21.5321 20.9936V20.9913H21.5298C21.1751 21.202 21.058 21.8494 20.9932 22.0409C20.0952 22.6128 19.0748 23.0382 18.4882 23.6175C18.1823 24.0576 20.5956 23.112 20.8761 22.9976C20.8786 22.9988 20.881 23.0023 20.8831 23.007C20.9364 23.0607 20.941 23.2495 21.101 23.4192C21.3518 23.7323 21.8851 23.9252 22.4039 23.8055C23.2741 23.5158 23.7753 22.9691 24.2857 22.3629C24.3586 22.265 24.473 22.1882 24.5786 22.2637C24.9293 22.9873 25.9404 23.5021 27.2477 23.5552C27.5501 23.2161 27.4055 23.0496 27.2825 22.9785C27.245 22.952 26.6324 22.7351 26.5373 22.5164C26.4774 22.3126 26.6229 22.1318 26.9146 21.9959C27.7539 21.9024 28.579 21.7983 29.3775 21.562C29.3854 21.3146 29.5437 20.945 29.6494 20.7844C29.7228 20.673 29.77 20.6619 29.7876 20.646L29.7886 20.6423ZM27.5794 19.0922C27.5813 19.0829 27.5843 19.079 27.5886 19.0701C27.5901 19.0678 27.5915 19.0667 27.5935 19.0608L27.5958 19.0585C27.5993 19.0538 27.6033 19.0492 27.6073 19.0453C27.624 19.0321 27.6483 19.0233 27.6753 19.0188C27.7336 19.0142 27.8101 19.032 27.8837 19.0709C27.9904 19.1278 28.0563 19.2138 28.0478 19.2763C28.0475 19.2775 28.0482 19.2798 28.0478 19.2857C28.0474 19.2869 28.0437 19.2892 28.0429 19.295L28.0406 19.3043C28.0402 19.3053 28.0387 19.3078 28.0382 19.3078C28.0375 19.309 28.0367 19.3102 28.0359 19.3125C28.0319 19.3172 28.027 19.3257 28.0218 19.3301C27.9706 19.3743 27.8522 19.3654 27.7406 19.3081C27.6349 19.2516 27.5696 19.1652 27.5766 19.1031C27.5769 19.1018 27.5786 19.0995 27.5789 19.0937L27.5794 19.0922ZM26.5086 21.5646C26.2211 21.6555 25.9451 21.7264 25.9439 22.1089C25.9814 22.2985 25.9734 22.3976 25.9416 22.4435C25.9388 22.447 25.9359 22.4528 25.9324 22.4567L25.93 22.4591L25.9277 22.4614C25.927 22.4621 25.9262 22.4626 25.9253 22.4637L25.923 22.466C25.9214 22.4667 25.9197 22.4673 25.9181 22.4684C25.9137 22.4719 25.9089 22.4719 25.904 22.4777C25.9 22.4789 25.8944 22.4789 25.8899 22.48C25.8216 22.4894 25.7224 22.4293 25.6485 22.3936C25.4713 22.2763 24.9741 21.9923 24.9033 21.3828C24.8932 21.2453 25.0049 21.1267 25.1845 21.1152C25.1934 21.1146 25.2008 21.1152 25.2101 21.1152H25.215C25.5133 21.1898 25.9532 21.1977 26.3352 21.2338C26.6462 21.2514 26.7999 21.4763 26.5086 21.5707V21.5646ZM20.2239 20.7224C20.2168 20.8322 20.5527 20.9658 20.573 21.2191C20.621 21.3237 20.5011 21.6587 20.6013 21.6899C20.693 21.7251 20.8203 21.4584 20.8684 21.2105C20.8948 21.0746 20.7531 20.5998 20.5122 20.5151C20.4747 20.5058 20.4359 20.5019 20.3974 20.5058C20.2811 20.5151 20.1772 20.5706 20.224 20.7218L20.2239 20.7224ZM25.622 19.1757C25.9304 19.3111 26.6656 19.2317 26.4867 18.7939C26.4867 18.7542 26.4748 18.6171 26.4704 18.58C26.439 18.5126 26.3808 18.487 26.3251 18.4958C26.2694 18.5051 26.2157 18.5478 26.1962 18.6166C26.1839 18.6625 26.22 18.7383 26.1755 18.7617C26.15 18.7882 26.0496 18.771 26.0536 18.6448C26.0536 18.6052 26.0214 18.5602 26.0021 18.5346C25.9826 18.5214 25.9721 18.5169 25.9365 18.5169C25.8937 18.5182 25.8928 18.5301 25.8685 18.5624C25.8583 18.5933 25.8451 18.6298 25.8451 18.6681C25.8399 18.7131 25.8227 18.7286 25.7866 18.7352C25.7465 18.7352 25.7553 18.7398 25.7233 18.7175C25.7048 18.6955 25.6788 18.691 25.6788 18.6571C25.6788 18.6261 25.6713 18.5676 25.6603 18.5451C25.6435 18.523 25.6138 18.5186 25.5829 18.5099C25.4145 18.5105 25.4046 18.6867 25.4143 18.7537C25.4019 18.7669 25.3931 19.0848 25.6227 19.1726L25.622 19.1757ZM28.2337 16.0454C28.7508 16.686 29.2484 17.3297 29.7289 17.9957C29.8038 18.4901 29.8597 18.9738 29.8953 19.4556C29.9731 20.5118 29.9967 21.8267 29.9257 22.9391C30.1404 22.9484 30.4844 22.6194 30.6053 22.14C30.6838 21.4768 30.5774 20.1234 30.5704 19.732C30.5655 19.5697 30.5546 19.3757 30.5422 19.1726C31.1265 20.0522 31.6715 20.9573 32.1755 21.8852C32.3696 21.8005 32.3265 20.7934 32.213 20.652C31.787 19.807 31.1985 18.9729 31.0109 18.652C30.9431 18.5369 30.7125 18.2129 30.4391 17.84C30.3887 17.3081 30.3341 16.8575 30.2985 16.7213C30.2105 16.1589 30.5492 16.7844 30.5023 16.4576C30.3923 15.896 30.056 15.5144 29.6587 14.9999C29.5307 14.8328 29.5338 14.7984 29.3353 15.0396C29.2171 15.287 29.2187 15.4924 29.2533 15.6854C29.1878 15.5973 29.1182 15.5124 29.0448 15.4309L28.3957 14.9235C28.3058 14.8647 28.1349 14.7735 28.0043 14.785C27.9259 14.7944 27.8636 14.834 27.8403 14.9406C27.8089 15.1915 27.8253 15.3278 27.8707 15.5366C27.9056 15.676 28.1256 15.9088 28.2339 16.0443L28.2337 16.0454ZM29.3286 16.0102C29.3409 16.0645 29.355 16.1187 29.3638 16.1742C29.3933 16.2937 29.4188 16.4123 29.4458 16.5305C29.3322 16.3859 29.238 16.2695 29.1975 16.228C28.9401 15.9458 29.2032 16.0432 29.3287 16.0103L29.3286 16.0102Z" fill="white"/>
</g>
</svg>
