<svg width="54" height="54" viewBox="0 0 54 54" fill="none" xmlns="http://www.w3.org/2000/svg">
<mask id="mask0_1_36014" style="mask-type:alpha" maskUnits="userSpaceOnUse" x="3" y="9" width="48" height="36">
<path d="M3.56934 18.1356C4.16681 13.4125 8.0415 10.0019 12.7861 9.60887C16.6412 9.28949 21.6196 9 27 9C32.3804 9 37.3588 9.28949 41.2139 9.60887C45.9585 10.0019 49.8332 13.4125 50.4307 18.1356C50.752 20.6759 51 23.704 51 27C51 30.296 50.752 33.3241 50.4307 35.8644C49.8332 40.5875 45.9585 43.9981 41.2139 44.3911C37.3588 44.7105 32.3804 45 27 45C21.6196 45 16.6412 44.7105 12.7861 44.3911C8.04151 43.9981 4.16681 40.5875 3.56934 35.8644C3.248 33.3241 3 30.296 3 27C3 23.704 3.248 20.6759 3.56934 18.1356Z" fill="#00D0BF"/>
</mask>
<g mask="url(#mask0_1_36014)">
<rect x="3" y="3" width="48" height="49" fill="#1C6864"/>
<path fill-rule="evenodd" clip-rule="evenodd" d="M33.9853 34C33.9846 34.0002 33.9835 34.0016 33.983 34.002C33.5322 34.0996 33.5462 34.4941 33.8356 34.6679C29.0753 34.6679 21.7701 34.5997 20.2035 34.5997C19.327 34.5997 16.5541 34.5115 16.5007 34.5115C17.0954 35.2455 17.9568 35.3951 19.0841 35.4101L33.7832 35.388C33.585 35.6851 33.8012 36.1637 33.9566 36.2506C33.9599 36.2524 33.9652 36.2552 33.9685 36.2566C33.9745 36.2594 33.9809 36.2614 33.9876 36.2626C33.9894 36.263 33.9929 36.2624 33.9947 36.2626C34.1793 36.2993 34.2605 36.1865 34.3226 36.1041C34.6221 36.1263 36.3073 36.1469 36.4616 36.1021C36.4621 36.1019 36.4635 36.1003 36.4639 36.1001C36.5682 36.2297 36.6718 36.3521 36.8704 36.3308C37.2178 36.2679 37.4915 36.2361 37.5001 35.6408C37.5001 35.6408 37.4646 34.6266 36.6754 34.6901C36.4887 34.7139 35.9648 34.7583 35.9648 34.7583C35.3585 34.6974 34.9138 34.6912 34.2323 34.6701C34.2952 34.6027 34.4063 34.3297 34.2702 34.2308C34.2348 34.2059 34.1819 34.192 34.1087 34.1967H34.1064C34.1053 34.1967 34.1026 34.1968 34.1016 34.1967C34.1011 34.1966 34.0997 34.1948 34.0993 34.1947C34.0974 34.1941 34.094 34.1936 34.0922 34.1927C34.0878 34.1898 34.0838 34.1864 34.0803 34.1827C34.0795 34.1818 34.0764 34.1796 34.0756 34.1787C34.0411 34.1364 34.0223 34.0325 33.9995 34.0062L33.9972 34.0042C33.9968 34.004 33.995 34.0024 33.9948 34.0022C33.9933 34.0015 33.9917 34.0008 33.9901 34.0002H33.9853L33.9853 34ZM34.3085 35.4503C34.3093 35.45 34.3101 35.4506 34.3109 35.4503C35.0053 35.4789 35.6578 35.4558 36.3523 35.4844C36.4625 35.5633 36.4074 35.7442 36.3357 35.7772C36.3319 35.7788 36.3279 35.7802 36.3239 35.7812C36.3213 35.7818 36.3175 35.7812 36.3144 35.7812C36.3112 35.7812 36.308 35.7818 36.3049 35.7812L35.7226 35.7673C35.7225 35.7577 35.7209 35.7483 35.7179 35.7391C35.6644 35.6052 35.2767 35.6142 35.1855 35.7191C35.1838 35.7211 35.1824 35.723 35.1808 35.7251C35.1789 35.7276 35.1773 35.7303 35.176 35.7332C35.1742 35.7364 35.1727 35.7397 35.1713 35.7431C35.1698 35.7471 35.1695 35.753 35.1689 35.7572C35.1683 35.7625 35.166 35.7681 35.1665 35.7732C34.8623 35.8041 34.5873 35.7646 34.2824 35.7552C34.1937 35.6612 34.2034 35.4912 34.3086 35.4503H34.3085Z" fill="white"/>
<path d="M36.4679 24.4268C36.5639 24.474 36.8166 24.1879 36.8076 23.8286C36.8354 23.6443 36.7362 22.9635 36.4842 22.8481C36.4547 22.8388 36.4236 22.8349 36.3928 22.8388C36.2611 22.8564 36.1365 22.9684 36.1937 23.1518C36.1576 23.2594 36.3724 23.6363 36.428 23.8364C36.4781 23.9788 36.3635 24.3815 36.4677 24.4238L36.4679 24.4268ZM16.58 18.6468C16.8884 18.7822 17.4668 18.7253 17.4424 18.2667C17.4424 18.227 17.4327 18.0899 17.4283 18.0529C17.3969 17.9854 17.3386 17.9599 17.283 17.9686L17.2836 17.9688C17.2273 17.9781 17.1742 18.0208 17.1547 18.0896C17.1423 18.1354 17.1758 18.2113 17.1313 18.2342C17.1057 18.2607 17.0077 18.2435 17.0118 18.1156C17.0118 18.076 16.9795 18.0331 16.9602 18.0076C16.9408 17.9944 16.9276 17.99 16.8922 17.99C16.8495 17.9911 16.8504 18.0031 16.8266 18.0353C16.8161 18.0663 16.8028 18.1024 16.8028 18.1411C16.7976 18.186 16.7781 18.2016 16.7418 18.2081C16.7018 18.2081 16.7106 18.2116 16.6786 18.1905C16.6601 18.1684 16.6367 18.164 16.6367 18.13C16.6367 18.0992 16.627 18.0401 16.6156 18.0176C16.5984 17.9956 16.5719 17.9867 16.5406 17.9779C16.3722 17.9785 16.3599 18.1565 16.3695 18.224C16.3573 18.2372 16.3506 18.552 16.5805 18.6407L16.58 18.6468ZM14.1079 18.6292C14.1551 18.7377 14.061 19.0871 14.1594 19.1194C14.2499 19.1546 14.3745 18.8773 14.4219 18.6205C14.448 18.4798 14.4281 17.9985 14.0728 17.8991C14.0543 17.8956 14.0357 17.8898 14.0165 17.8898C13.8806 17.8863 13.7307 17.9638 13.7892 18.1142C13.7552 18.1962 14.0552 18.4732 14.1079 18.6262V18.6292ZM24.9999 18.7584C25.177 18.3173 25.1778 18.1292 25.1896 17.9421C25.1623 17.7997 25.0949 17.7309 25.0187 17.7366C24.9424 17.7459 24.858 17.8243 24.7891 17.9827C24.7299 18.1035 24.6578 18.7321 24.6695 18.7321C24.6223 18.9195 24.8818 18.9984 24.9999 18.7586V18.7584ZM22.7993 18.6354C22.8868 18.7509 22.973 18.739 23.1484 18.6574C23.2492 18.589 23.2832 18.5449 23.3171 18.4303C23.359 18.238 23.0975 18.5211 23.064 18.3069C23.0056 18.108 23.1725 18.0264 23.3311 17.8339C23.3347 17.7435 23.3364 17.6694 23.2726 17.6672C23.2435 17.6664 23.2001 17.6804 23.139 17.7143C23.002 17.7986 22.7303 18.06 22.7219 18.3601C22.7135 18.5294 22.6791 18.5285 22.7992 18.6366L22.7993 18.6354ZM13.8059 21.6727C14.7062 21.7525 14.2088 20.2702 14.5348 20.0011C14.5963 19.8683 14.7105 19.8657 14.7199 20.032V21.2911C14.7115 21.7002 15.0039 21.8221 15.2307 21.9066C15.4668 21.889 15.6233 21.8934 15.7158 22.1073L15.8283 24.2864C15.8283 24.2864 16.374 24.4305 16.4001 23.0618C16.4261 22.2579 16.2263 21.5833 16.3439 21.427C16.3479 21.2735 16.5618 21.2656 16.7094 21.3405C16.9447 21.4936 17.0491 21.6818 17.4148 21.606C17.9712 21.4649 18.3064 21.2157 18.3146 20.822C18.2824 20.4476 18.2351 20.0732 18.0592 19.6989C18.0835 19.631 17.9527 19.4542 17.9772 19.3858C18.0772 19.5305 18.2283 19.5181 18.2631 19.3858C18.1684 19.0984 18.0209 18.8226 17.7827 18.7034C17.5859 18.5434 17.2977 18.5768 17.1922 18.9107C17.1432 19.2947 17.3433 19.7501 17.6468 20.1222C17.7112 20.2672 17.8015 20.5093 17.7616 20.727C17.6 20.812 17.4399 20.7763 17.3046 20.6449C17.3046 20.6449 16.8617 20.3394 16.8617 20.2715C16.9791 19.5779 16.8868 19.4986 16.822 19.306C16.7766 19.0406 16.6399 18.9563 16.5292 18.7748C16.4184 18.6667 16.2681 18.6667 16.1964 18.7748C16.0007 19.0874 16.0925 19.7595 16.2339 20.0598C16.3361 20.3362 16.4928 20.509 16.419 20.509C16.3582 20.6651 16.2316 20.6289 16.1402 20.4486C16.0097 20.0755 15.9831 19.5199 15.9831 19.2694C15.9444 18.9589 15.9004 18.2953 15.6785 18.1269C15.6194 18.0524 15.5494 18.0268 15.4817 18.0339C15.3946 18.0432 15.3125 18.1085 15.2731 18.1957C15.2586 18.504 15.2568 18.8123 15.2943 19.0964C15.4465 19.5946 15.4946 20.033 15.5685 20.5433C15.5888 21.2269 15.1402 20.8387 15.1607 20.4992C15.2643 20.0591 15.2357 19.366 15.1444 19.1904C15.0714 19.0149 14.987 18.9713 14.8093 19.0004C14.6682 18.991 14.3042 19.3584 14.2024 19.9636C14.2024 19.9636 14.1176 20.2745 14.0805 20.5511C14.0307 20.8637 13.8058 21.0852 13.6493 20.5069C13.514 20.0876 13.4307 19.0535 13.204 19.2955C13.1391 20.1027 13.0621 21.5232 13.8063 21.669L13.8059 21.6727ZM19.6059 20.3029C19.6063 20.3031 19.6078 20.3028 19.6083 20.3029C19.6087 20.3031 19.6101 20.3052 19.6106 20.3052C19.611 20.3054 19.6123 20.3052 19.6129 20.3052L19.6152 20.3076C19.6739 20.3428 20.3955 20.3428 20.4753 20.3099C20.4759 20.3095 20.4772 20.3076 20.4776 20.3076C20.4781 20.3072 20.4797 20.3077 20.48 20.3076C20.4802 20.3074 20.4799 20.3052 20.48 20.3052C20.7279 20.221 21.9047 18.9813 21.9047 18.9813C21.8437 18.9332 21.7876 18.8975 21.7266 18.8494C21.6613 18.797 21.6679 18.7463 21.7266 18.6939C22.0181 18.5377 21.9257 18.1936 21.7735 18.0372C21.6473 17.9852 21.5285 17.9676 21.422 17.9724C21.3242 17.9753 21.2282 17.9997 21.1408 18.0437C20.9364 18.2241 20.8884 18.5134 21.0494 18.6938C21.2061 18.7618 21.3618 18.9072 21.2579 18.9875C20.8143 19.4236 19.6617 20.1524 19.6035 20.2854C19.603 20.2867 19.6022 20.2879 19.6012 20.289C19.601 20.29 19.6012 20.2924 19.6012 20.2936V20.2959C19.6019 20.2972 19.6026 20.2983 19.6035 20.3006L19.6059 20.303V20.3029ZM21.352 18.3597C21.3569 18.3588 21.3612 18.3574 21.3661 18.3574C21.4381 18.3481 21.525 18.4117 21.5677 18.4976C21.6131 18.5893 21.5901 18.6771 21.5161 18.6943C21.442 18.7119 21.346 18.6502 21.3006 18.5585C21.2551 18.4668 21.2781 18.3764 21.3521 18.3596L21.352 18.3597ZM22.9797 21.0304C23.3396 21.1676 23.5681 20.5362 23.7155 19.8448C23.8163 19.6504 23.8933 19.6288 23.9451 19.728C23.9319 20.6476 24.0167 20.8527 24.2732 21.1318C24.8454 21.5387 25.3188 21.1833 25.3559 21.1494L25.8012 20.7389C25.9003 20.6427 26.0314 20.637 26.1714 20.7213C26.3075 20.835 26.2901 21.0321 26.5815 21.1684C26.8268 21.2588 27.3506 21.1904 27.472 20.9955C27.6355 20.7371 27.6751 20.6485 27.7509 20.5506C27.8675 20.4073 28.0673 20.4713 28.0673 20.5198C28.0487 20.5996 27.9313 20.6781 28.011 20.8223C28.1498 20.9179 28.182 20.8532 28.2642 20.8354C28.5545 20.7076 28.7726 20.1271 28.7726 20.1271C28.7854 19.9105 28.6518 19.9273 28.5664 19.9714C28.455 20.0344 28.4482 20.0556 28.3368 20.1182C28.1948 20.1403 27.9198 20.224 27.7837 20.0296C27.6447 19.7963 27.6439 19.4709 27.5377 19.2348C27.5377 19.2172 27.3519 18.8644 27.5235 18.842C27.6102 18.8596 27.7964 18.901 27.8258 18.7577C27.9167 18.618 27.6298 18.2214 27.4344 18.0213C27.2649 17.8497 27.0308 17.829 26.8041 18.0037C26.6454 18.1381 26.6689 18.2889 26.6377 18.4314C26.5976 18.595 26.6051 18.7978 26.7854 19.0145C26.9438 19.302 27.2318 19.672 27.1369 20.1936C27.1369 20.1936 26.9695 20.4415 26.6752 20.4097C26.5527 20.3832 26.3527 20.3361 26.2464 19.6128C26.166 19.0653 26.2663 18.2982 26.0143 17.9391C25.9581 17.8037 25.9085 17.6719 25.8269 17.682C25.7779 17.6855 25.7179 17.745 25.6348 17.8853C25.5752 18.0308 25.3179 18.2513 25.5035 18.706C25.6554 18.994 25.7177 19.4627 25.6488 19.9845C25.5436 20.1326 25.5196 20.1842 25.3817 20.332C25.188 20.5242 24.978 20.4748 24.817 20.4033C24.6664 20.3099 24.5483 20.2618 24.4795 19.965C24.4919 19.4917 24.5214 18.717 24.428 18.5526C24.2896 18.2982 24.0615 18.3894 23.964 18.4661C23.4955 18.8607 23.2641 19.5274 23.1227 20.0577C22.9927 20.4436 22.8543 20.3325 22.7571 20.1764C22.5204 19.9718 22.5038 18.3738 22.2181 18.6366C21.7605 19.8418 22.4807 21.1622 22.9797 21.0338V21.0304ZM21.0942 20.1716C20.8215 20.3074 20.7159 20.711 20.8857 20.9469C21.0444 21.1541 21.2951 21.0788 21.3286 21.0788C21.5958 21.1096 21.7551 20.6166 21.7551 20.6166C21.7551 20.6166 21.763 20.4777 21.4457 20.7396C21.3122 20.7661 21.294 20.7175 21.2606 20.6492C21.2328 20.5209 21.239 20.3908 21.3025 20.263C21.332 20.1862 21.3026 20.1373 21.2393 20.131C21.2017 20.1276 21.1513 20.1404 21.094 20.1707L21.0942 20.1716ZM38.7228 26.3253C38.6643 26.2636 38.5325 26.2988 38.4439 26.2944C38.402 26.2944 38.2627 26.2724 38.3291 26.1626C38.3841 26.0925 38.4044 26.0506 38.4416 25.9637C38.4831 25.8791 38.4465 25.8222 38.2963 25.7759C38.2198 25.7627 38.1669 25.7583 38.1112 25.7583C38.0555 25.7606 37.9969 25.7676 37.9121 25.7759C37.8202 25.7935 37.7881 25.8309 37.7715 25.9333C37.778 26.089 37.8813 26.081 37.987 26.1427C38.0483 26.2146 38.0881 26.2794 37.9821 26.3972L37.7103 26.6132C37.663 26.6873 37.6334 26.802 37.7782 26.8377C38.0455 26.9069 38.664 26.5365 38.664 26.5286C38.7642 26.4594 38.731 26.328 38.7226 26.328L38.7228 26.3253ZM40.6422 19.8193C40.6219 19.6817 40.5559 19.3659 40.5812 19.3247C40.6218 19.228 40.8287 19.334 40.9023 19.2232C41.0102 19.1215 40.3679 18.3639 40.143 18.0398C40.098 17.9587 40.0703 17.8916 40.0305 17.8951C39.9996 17.8975 39.9617 17.9441 39.9039 18.0569C39.7649 18.2672 39.7165 18.6429 39.7727 18.9749C40.1076 21.0622 40.3563 23.0834 40.4078 24.9335C40.3792 25.1089 40.3708 25.2024 40.2812 25.4236C40.0836 25.6569 39.8657 25.9498 39.6603 26.091C39.455 26.2321 39.0181 26.3666 38.8752 26.4711C38.422 26.7127 38.419 26.9901 38.7861 27.0002C39.4177 26.9327 40.1649 26.8851 40.6796 26.1687C40.8173 25.9681 40.9795 25.424 40.9866 25.0911C41.0348 23.1389 40.9597 21.2302 40.6421 19.8193H40.6422ZM13.3057 23.6471L15.6491 22.6105C15.5209 22.4342 15.6412 22.2755 15.1594 22.2627C14.4188 22.2758 13.3343 23.1573 13.3057 23.647V23.6471ZM13.7231 25.8842C13.5283 26.2488 13.4473 25.9993 13.4303 25.7955C13.4007 25.4093 13.4409 25.0536 13.4865 24.7719C13.5108 24.6273 13.5099 24.577 13.4914 24.5775C13.4729 24.5781 13.4354 24.6295 13.386 24.6868C12.9455 25.3337 12.9063 26.2992 13.1493 26.5873C13.2785 26.7236 13.4914 26.783 13.6484 26.7407C13.9252 26.63 14.0468 26.1134 13.9811 25.9244C13.8888 25.7908 13.8155 25.7701 13.7233 25.8848L13.7231 25.8842ZM19.2472 24.9121C19.5681 23.9275 19.2406 23.1848 19.348 23.0937C19.3489 23.0929 19.3517 23.0925 19.353 23.0913C19.3539 23.0907 19.3565 23.0902 19.3578 23.089C19.3589 23.0885 19.3613 23.0866 19.3628 23.0866C19.3673 23.0853 19.3721 23.0845 19.3768 23.0843C19.7728 23.4772 20.3283 23.1341 20.4501 22.9979C20.5023 22.93 20.6329 22.8859 20.7242 22.9714C21.0331 23.176 21.5743 23.0794 21.6874 22.7188C21.7527 22.366 21.8078 22.0028 21.8209 21.626C21.6197 21.6838 21.4575 21.7269 21.3921 21.79C21.3766 21.8076 21.3652 21.821 21.3616 21.8421L21.3101 22.1551C21.3085 22.1645 21.3052 22.1728 21.3009 22.1816C21.2917 22.1948 21.2784 22.2081 21.2634 22.2126C21.1923 22.2478 21.0682 22.2302 21.0618 22.1327C20.9663 21.7319 20.5724 21.6796 20.3331 22.3012C20.1721 22.4216 19.8785 22.4449 19.848 22.266C19.8868 21.8488 19.7042 21.793 19.3395 21.9895L18.988 19.5492C19.1403 19.5457 19.2799 19.6466 19.4192 19.4861C19.2692 19.0539 18.9497 18.1755 18.7701 18.093C18.7687 18.0925 18.7669 18.0919 18.7652 18.0907C18.7572 18.0814 18.7486 18.0726 18.7397 18.0642C18.7359 18.0619 18.7322 18.0595 18.7282 18.0549C18.7249 18.0526 18.7198 18.0514 18.7168 18.0455C18.7093 18.0421 18.7014 18.0362 18.6934 18.0362C18.6775 18.0327 18.6608 18.0327 18.6442 18.0327H18.6443C18.5996 18.0362 18.5502 18.0592 18.492 18.0724C18.3007 18.1288 18.1215 18.281 18.178 18.5778L18.7779 22.0786C18.8127 22.2267 18.6777 22.4225 18.5037 22.4027C18.2079 22.2184 18.135 21.8441 17.6297 21.8607C17.2642 21.8641 16.8475 22.231 16.7955 22.5841C16.7345 22.8645 16.7128 23.1688 16.7955 23.4134C17.0516 23.6978 17.3599 23.6678 17.6297 23.6034C17.8515 23.5192 18.034 23.3177 18.1124 23.3658C18.1127 23.366 18.1145 23.3656 18.1148 23.3658C18.115 23.3661 18.1145 23.3681 18.1148 23.3681C18.1631 23.4462 18.1103 24.105 17.0696 24.6142C16.4301 24.8788 15.921 24.9418 15.6471 24.4608C15.4775 24.1601 15.6595 23.0153 15.2418 23.2794C14.0063 26.2143 18.1361 26.624 18.5974 23.4002C18.6274 23.3094 18.7183 23.2181 18.7826 23.2406C18.8104 23.2538 18.8366 23.2869 18.8459 23.3526C18.7501 26.2714 15.651 26.4714 15.1247 25.5533C14.9942 25.3368 14.9549 24.8551 14.9419 24.5664C14.9181 24.3918 14.8704 24.2907 14.8153 24.2511C14.6904 24.1646 14.5216 24.3913 14.4849 24.7845C14.4326 25.1012 14.4475 25.1875 14.4475 25.493C14.6127 27.7983 18.6009 26.8077 19.249 24.9034L19.2472 24.9121ZM17.7066 22.9173C17.7063 22.9177 17.7068 22.9196 17.7066 22.9196C17.706 22.9206 17.705 22.9231 17.7043 22.9231C17.6734 22.9583 17.564 22.9452 17.4864 22.9452C17.3923 22.9416 17.346 22.9275 17.2895 22.8565C17.2626 22.778 17.3447 22.7008 17.381 22.6426C17.3813 22.642 17.383 22.6414 17.3833 22.6403C17.3882 22.6368 17.3935 22.6271 17.3996 22.6227C17.4278 22.5962 17.4764 22.5768 17.5285 22.5707C17.5386 22.5695 17.5484 22.5683 17.559 22.5683C17.6315 22.569 17.7081 22.5992 17.7487 22.6957C17.7786 22.7708 17.7628 22.8549 17.7068 22.9162L17.7066 22.9173ZM34.805 26.6941L34.1113 26.7628L34.805 26.6941ZM30.8938 20.7159C31.2022 20.8512 31.783 20.7917 31.7585 20.3336C31.7585 20.2939 31.7466 20.1567 31.7422 20.1197C31.7109 20.0518 31.6526 20.0267 31.5969 20.0355C31.5412 20.0448 31.4876 20.0888 31.468 20.1589C31.4556 20.2048 31.4918 20.2784 31.4469 20.3014C31.4212 20.3278 31.3209 20.3107 31.3249 20.1845C31.3249 20.1449 31.2932 20.0999 31.2734 20.0742C31.254 20.0611 31.2408 20.0566 31.2054 20.0566C31.1627 20.0579 31.1636 20.0698 31.1399 20.1021C31.1297 20.133 31.1165 20.1694 31.1165 20.2078C31.1112 20.2527 31.094 20.2683 31.058 20.2749C31.0178 20.2749 31.0249 20.2784 30.9923 20.2573C30.9738 20.2353 30.9504 20.2308 30.9504 20.1969C30.9504 20.166 30.9408 20.1073 30.9292 20.0844C30.9125 20.0624 30.8856 20.0579 30.8543 20.0492C30.6858 20.0498 30.6759 20.226 30.6856 20.2931C30.6733 20.3061 30.6644 20.6241 30.8941 20.7119L30.8938 20.7159ZM35.8668 21.8973C35.872 21.6297 35.9002 21.2741 35.9159 21.0528C35.9226 20.969 35.9437 20.8773 36.0306 20.8562C36.1174 20.8341 36.268 20.9364 36.2697 20.8468C36.2538 20.6766 36.217 20.4257 36.1127 20.3069C36.0593 20.2338 35.9716 20.1944 35.8807 20.1901C35.7293 20.1808 35.568 20.2738 35.5268 20.4644C35.5274 20.5768 35.5819 20.6386 35.5713 20.7404C35.5554 20.7986 35.4902 20.837 35.3346 20.7669C35.3593 20.7448 35.2338 20.583 35.2338 20.583C35.1124 20.5151 34.9503 20.5865 34.8448 20.65C34.7867 20.747 34.7439 20.9141 34.8099 21.0838C34.9842 21.3806 35.5819 21.8867 35.8669 21.8916L35.8668 21.8973ZM33.9449 25.5897C34.1598 25.591 34.4082 25.1368 34.5143 24.6871C34.5724 24.0676 34.4755 23.6906 34.4581 23.3265C34.4404 22.9623 34.0108 20.0083 33.9238 19.7328C33.8188 19.2119 34.3417 19.6639 34.2847 19.3615C34.1039 18.9796 33.6526 18.4228 33.5114 18.0916C33.4583 18.0026 33.4517 17.9205 33.4083 17.9276C33.3823 17.9323 33.3437 17.9673 33.2723 18.0551C33.0959 18.5865 33.0339 19.0207 33.1012 19.3508C33.5543 21.5301 34.0186 23.5155 33.9449 25.59V25.5897ZM32.3328 25.145C31.8368 25.6222 31.1217 26.2104 30.3433 26.4818C30.2595 26.5683 30.5514 26.9378 30.9291 26.9375C31.5607 26.8701 32.1157 26.5433 32.6304 25.6828C32.7681 25.4821 33.01 25.0525 33.0171 24.7195C33.0653 22.7674 32.9109 21.2496 32.593 19.8387C32.5727 19.7011 32.5864 19.5393 32.6115 19.4974C32.6521 19.4523 32.7911 19.4984 32.8646 19.3871C32.9725 19.2857 32.5764 18.4434 32.3514 18.1193C32.3064 18.0381 32.2787 17.9734 32.2389 17.9769C32.2081 17.9793 32.1702 18.0237 32.1123 18.137C31.9732 18.3473 31.8787 18.7126 31.8896 19.0549C32.1908 20.9771 32.2833 22.6593 32.4802 24.5815C32.4961 24.7675 32.4665 25.0374 32.3326 25.1452L32.3328 25.145ZM33.6294 24.3573C33.6369 24.3308 33.6357 24.3308 33.6294 24.3573V24.3573ZM31.102 18.938C31.2121 19.2219 31.018 19.4927 31.1325 19.5319C31.2379 19.576 31.3845 19.2382 31.4395 18.9271C31.503 18.6754 31.308 18.1591 31.0317 18.0526C31.0106 18.0479 30.9881 18.0479 30.9661 18.0432C30.8081 18.0386 30.6333 18.131 30.7013 18.3131C30.6616 18.4127 31.0409 18.7509 31.102 18.935V18.938ZM36.6711 21.8859C36.6626 21.8846 36.6538 21.8854 36.6456 21.8882L35.181 22.8579C35.0393 22.9743 35.1102 23.3823 35.181 23.3352C35.2835 23.3704 36.7224 22.4728 36.6949 22.3676C36.7576 22.3711 36.7877 21.9053 36.6715 21.886L36.6711 21.8859ZM35.665 19.2638C36.0996 19.7566 36.5246 20.2577 36.9399 20.7668C37.0303 21.8392 37.0544 22.8221 37.1461 23.8961C37.1333 24.3556 36.9798 24.9656 36.8345 25.0236C36.8345 25.0236 36.6125 25.1408 36.4643 25.0104C36.3564 24.9707 35.9252 24.3473 35.9252 24.3473C35.7045 24.1608 35.5574 24.2141 35.4004 24.3473C34.9673 24.7327 34.7714 25.4547 34.4771 25.952C34.4013 26.063 34.1875 26.157 33.9499 25.9426C33.461 25.3265 33.5997 24.5004 33.6301 24.3564L33.624 24.3829C33.0864 24.9413 33.3245 25.8663 33.4459 26.0654C33.6231 26.3921 33.7664 26.6013 34.1114 26.7629C34.4256 26.9759 34.6701 26.8431 34.805 26.6941C35.1211 26.392 35.1253 25.6201 35.2737 25.4674C35.3778 25.1865 35.6386 25.235 35.7658 25.3594C35.889 25.5225 36.0346 25.6292 36.2157 25.7178C36.5106 25.9573 36.8625 26.0009 37.2094 25.7827C37.4463 25.6602 37.6001 25.5005 37.7389 25.1866C37.8879 24.8197 37.8142 22.8963 37.7808 21.8262L38.4416 22.7095C38.5375 23.6482 38.581 24.5738 38.5495 25.4609C38.5269 25.6372 39.2173 24.9342 39.2127 24.6013V23.8C39.5476 24.2928 39.8717 24.7938 40.1781 25.301C40.3679 25.2089 40.3029 24.2175 40.183 24.0809C39.8621 23.5847 39.4513 23.0486 39.1332 22.6339C39.0702 22.1097 38.9846 21.4927 38.9457 21.3034C38.8851 21.0085 38.8242 20.5652 38.7324 20.215C38.7073 20.0783 38.6312 19.6415 38.6552 19.5996C38.6926 19.5021 38.8339 19.603 38.9036 19.4893C39.0078 19.3843 38.5424 18.2731 38.3059 17.9559C38.221 17.8135 38.0674 17.8629 37.8771 18.0943C37.7006 18.2464 37.7646 18.5936 37.8326 18.9237C38.0076 19.7649 38.1636 20.6218 38.2872 21.4764L37.5045 20.4182L37.4696 20.2515C37.4696 20.2339 37.4322 19.5633 37.3993 19.4028C37.3932 19.3377 37.3769 19.3191 37.451 19.3275C37.5295 19.3883 37.5401 19.3914 37.5892 19.4117C37.6686 19.4249 37.7379 19.3015 37.69 19.1873L36.9542 17.9347C36.9247 17.9082 36.8916 17.8796 36.8534 17.8743C36.8155 17.8696 36.7736 17.8874 36.7268 17.9496C36.6374 18.022 36.5412 18.1529 36.544 18.3209C36.5657 18.6172 36.623 18.9207 36.6448 19.2171L36.6682 19.3358C36.6425 19.3048 36.6151 19.2752 36.5862 19.2471C35.9593 18.6401 36.8736 19.148 36.4666 18.6791C36.122 18.3303 36.0211 18.2193 35.7261 18.0096C35.5782 17.9214 35.4888 17.753 35.4402 18.0361C35.4217 18.2878 35.401 18.5796 35.4195 18.7921C35.4185 18.9097 35.5511 19.132 35.6655 19.2628L35.665 19.2638ZM39.3 19.7506C39.35 19.8931 39.2237 20.3519 39.3277 20.3942C39.4237 20.4413 39.5588 20.0772 39.6089 19.7398C39.6367 19.5555 39.4883 18.9072 39.2362 18.7917C39.2165 18.7883 39.1962 18.7824 39.1754 18.7824C39.0313 18.7789 38.8742 18.8785 38.9363 19.0761C38.9002 19.1837 39.2438 19.5498 39.2996 19.7499L39.3 19.7506ZM28.3742 26.3944C28.3742 26.4076 28.4949 26.5008 28.6366 26.4209C28.9358 26.3156 29.1222 26.2132 29.5411 26.1295C29.6511 26.1271 29.6447 25.8561 29.4708 25.8468C29.2439 25.86 29.0344 25.8689 28.8075 26.0325C28.668 26.0589 28.644 25.9839 28.613 25.9138C28.5777 25.7397 28.6929 25.6167 28.6693 25.4861C28.6754 25.4908 28.5988 25.4284 28.5005 25.4235C28.4648 25.4223 28.4292 25.4282 28.3975 25.4456C28.3913 25.4456 28.082 25.6378 27.9827 25.7714C27.9221 25.8155 27.929 25.8507 27.9479 25.9248C27.9952 26.0249 28.0784 25.9937 28.1729 25.9469C28.2982 25.9293 28.3589 26.0068 28.3486 26.1457C28.2907 26.3186 28.3742 26.3834 28.3742 26.3944ZM29.7886 23.6423L29.7909 23.6399C29.7911 23.6397 29.793 23.6376 29.7932 23.6376C29.7934 23.6374 29.7951 23.6364 29.7955 23.6352V23.6306C29.7958 23.6232 29.795 23.6157 29.7932 23.6086L29.6573 23.5349L26.9788 23.5218C26.9457 23.5086 26.9211 23.4952 26.9062 23.4908C26.9045 23.4893 26.9028 23.4878 26.9012 23.4862L26.8989 23.4839L26.8966 23.4815L26.8942 23.478L26.8919 23.4756V23.4733L26.8896 23.471V23.4616V23.45L26.8919 23.4476L26.8942 23.4442C26.9066 23.4266 26.939 23.4132 26.9786 23.3987C27.6182 23.3185 28.7545 23.147 28.8299 22.1398C28.8176 21.6157 28.5864 21.2717 27.888 21.1764C27.3747 21.2116 27.0088 21.6706 27.0677 22.1743C27.0434 22.3096 27.1176 22.5764 26.9669 22.6059C25.9825 22.6889 24.908 23.2567 24.872 23.6642H24.8696L24.8672 23.6665L24.8623 23.6688H24.8574C24.8551 23.6696 24.8525 23.67 24.8504 23.6711H24.8364C24.8332 23.6705 24.8301 23.67 24.8272 23.6688C24.7631 23.6512 24.6807 23.5551 24.6936 23.4184C24.6562 22.7151 24.4077 21.9191 24.0187 21.3062C23.8799 21.1783 23.8187 21.1268 23.7797 21.1206C23.7784 21.1205 23.7763 21.1206 23.7748 21.1206H23.7603C23.7578 21.1213 23.7556 21.1225 23.7536 21.1241C23.7516 21.1257 23.75 21.1277 23.7488 21.1299C23.7463 21.1311 23.744 21.1322 23.7418 21.1334C23.7118 21.1554 23.6761 21.2022 23.5966 21.2542C23.4623 21.3949 23.4383 21.4928 23.4465 21.7747C23.454 21.8012 23.7013 22.437 23.9105 22.8826C24.0516 23.345 24.1821 23.8748 24.0863 24.3749C23.7559 25.0362 23.0918 25.6293 22.4507 25.9515C22.124 26.0476 21.8421 26.0149 21.7665 25.9491L21.7642 25.9468C21.5768 25.8303 21.5725 25.6245 21.584 25.5883V25.586L21.5863 25.5836C22.1273 25.2362 22.7451 24.9559 23.2289 24.0179C23.3718 23.6594 23.4154 23.4445 23.2734 22.8905C23.2181 22.6842 23.1497 22.5144 22.9969 22.3679L22.9992 22.3656C23.0913 22.3259 23.3302 22.4873 23.3671 22.3876C23.3106 22.123 23.1163 21.7681 22.8961 21.5864C22.7034 21.425 22.4937 21.4064 22.3173 21.5555C22.1186 21.6573 22.0763 22.0234 22.172 22.3437C22.2782 22.5849 22.5652 22.6268 22.7696 23.1125V23.1149C22.7738 23.1414 22.8397 23.4778 22.737 23.6116C22.6534 23.8515 21.5809 24.631 21.5043 24.6784C21.5035 24.6793 21.4981 24.6819 21.4972 24.6831L21.4949 24.6855C21.4941 24.6861 21.4933 24.6866 21.4925 24.6878C21.4918 24.6885 21.491 24.6889 21.4902 24.6901H21.4852C21.4845 24.6894 21.4837 24.6889 21.4829 24.6878V24.6855C21.4819 24.684 21.4812 24.6825 21.4806 24.6808C21.4773 24.6587 21.4831 24.6119 21.4806 24.5317C21.4735 24.3858 21.5391 24.055 21.5344 23.9982V23.9959L21.5321 23.9936V23.9913H21.5298C21.1751 24.202 21.058 24.8494 20.9932 25.0409C20.0952 25.6128 19.0748 26.0382 18.4882 26.6175C18.1823 27.0576 20.5956 26.112 20.8761 25.9976C20.8786 25.9988 20.881 26.0023 20.8831 26.007C20.9364 26.0607 20.941 26.2495 21.101 26.4192C21.3518 26.7323 21.8851 26.9252 22.4039 26.8055C23.2741 26.5158 23.7753 25.9691 24.2857 25.3629C24.3586 25.265 24.473 25.1882 24.5786 25.2637C24.9293 25.9873 25.9404 26.5021 27.2477 26.5552C27.5501 26.2161 27.4055 26.0496 27.2825 25.9785C27.245 25.952 26.6324 25.7351 26.5373 25.5164C26.4774 25.3126 26.6229 25.1318 26.9146 24.9959C27.7539 24.9024 28.579 24.7983 29.3775 24.562C29.3854 24.3146 29.5437 23.945 29.6494 23.7844C29.7228 23.673 29.77 23.6619 29.7876 23.646L29.7886 23.6423ZM27.5794 22.0922C27.5813 22.0829 27.5843 22.079 27.5886 22.0701C27.5901 22.0678 27.5915 22.0667 27.5935 22.0608L27.5958 22.0585C27.5993 22.0538 27.6033 22.0492 27.6073 22.0453C27.624 22.0321 27.6483 22.0233 27.6753 22.0188C27.7336 22.0142 27.8101 22.032 27.8837 22.0709C27.9904 22.1278 28.0563 22.2138 28.0478 22.2763C28.0475 22.2775 28.0482 22.2798 28.0478 22.2857C28.0474 22.2869 28.0437 22.2892 28.0429 22.295L28.0406 22.3043C28.0402 22.3053 28.0387 22.3078 28.0382 22.3078C28.0375 22.309 28.0367 22.3102 28.0359 22.3125C28.0319 22.3172 28.027 22.3257 28.0218 22.3301C27.9706 22.3743 27.8522 22.3654 27.7406 22.3081C27.6349 22.2516 27.5696 22.1652 27.5766 22.1031C27.5769 22.1018 27.5786 22.0995 27.5789 22.0937L27.5794 22.0922ZM26.5086 24.5646C26.2211 24.6555 25.9451 24.7264 25.9439 25.1089C25.9814 25.2985 25.9734 25.3976 25.9416 25.4435C25.9388 25.447 25.9359 25.4528 25.9324 25.4567L25.93 25.4591L25.9277 25.4614C25.927 25.4621 25.9262 25.4626 25.9253 25.4637L25.923 25.466C25.9214 25.4667 25.9197 25.4673 25.9181 25.4684C25.9137 25.4719 25.9089 25.4719 25.904 25.4777C25.9 25.4789 25.8944 25.4789 25.8899 25.48C25.8216 25.4894 25.7224 25.4293 25.6485 25.3936C25.4713 25.2763 24.9741 24.9923 24.9033 24.3828C24.8932 24.2453 25.0049 24.1267 25.1845 24.1152C25.1934 24.1146 25.2008 24.1152 25.2101 24.1152H25.215C25.5133 24.1898 25.9532 24.1977 26.3352 24.2338C26.6462 24.2514 26.7999 24.4763 26.5086 24.5707V24.5646ZM20.2239 23.7224C20.2168 23.8322 20.5527 23.9658 20.573 24.2191C20.621 24.3237 20.5011 24.6587 20.6013 24.6899C20.693 24.7251 20.8203 24.4584 20.8684 24.2105C20.8948 24.0746 20.7531 23.5998 20.5122 23.5151C20.4747 23.5058 20.4359 23.5019 20.3974 23.5058C20.2811 23.5151 20.1772 23.5706 20.224 23.7218L20.2239 23.7224ZM25.622 22.1757C25.9304 22.3111 26.6656 22.2317 26.4867 21.7939C26.4867 21.7542 26.4748 21.6171 26.4704 21.58C26.439 21.5126 26.3808 21.487 26.3251 21.4958C26.2694 21.5051 26.2157 21.5478 26.1962 21.6166C26.1839 21.6625 26.22 21.7383 26.1755 21.7617C26.15 21.7882 26.0496 21.771 26.0536 21.6448C26.0536 21.6052 26.0214 21.5602 26.0021 21.5346C25.9826 21.5214 25.9721 21.5169 25.9365 21.5169C25.8937 21.5182 25.8928 21.5301 25.8685 21.5624C25.8583 21.5933 25.8451 21.6298 25.8451 21.6681C25.8399 21.7131 25.8227 21.7286 25.7866 21.7352C25.7465 21.7352 25.7553 21.7398 25.7233 21.7175C25.7048 21.6955 25.6788 21.691 25.6788 21.6571C25.6788 21.6261 25.6713 21.5676 25.6603 21.5451C25.6435 21.523 25.6138 21.5186 25.5829 21.5099C25.4145 21.5105 25.4046 21.6867 25.4143 21.7537C25.4019 21.7669 25.3931 22.0848 25.6227 22.1726L25.622 22.1757ZM28.2337 19.0454C28.7508 19.686 29.2484 20.3297 29.7289 20.9957C29.8038 21.4901 29.8597 21.9738 29.8953 22.4556C29.9731 23.5118 29.9967 24.8267 29.9257 25.9391C30.1404 25.9484 30.4844 25.6194 30.6053 25.14C30.6838 24.4768 30.5775 23.1234 30.5704 22.732C30.5655 22.5697 30.5546 22.3757 30.5422 22.1726C31.1265 23.0522 31.6715 23.9573 32.1755 24.8852C32.3696 24.8005 32.3265 23.7934 32.213 23.652C31.787 22.807 31.1985 21.9729 31.0109 21.652C30.9431 21.5369 30.7125 21.2129 30.4391 20.84C30.3887 20.3081 30.3341 19.8575 30.2985 19.7213C30.2105 19.1589 30.5492 19.7844 30.5024 19.4576C30.3923 18.896 30.056 18.5144 29.6587 17.9999C29.5307 17.8328 29.5338 17.7984 29.3353 18.0396C29.2171 18.287 29.2187 18.4924 29.2533 18.6854C29.1878 18.5973 29.1182 18.5124 29.0448 18.4309L28.3957 17.9235C28.3058 17.8647 28.1349 17.7735 28.0043 17.785C27.9259 17.7944 27.8636 17.834 27.8403 17.9406C27.8089 18.1915 27.8253 18.3278 27.8707 18.5366C27.9056 18.676 28.1256 18.9088 28.2339 19.0443L28.2337 19.0454ZM29.3286 19.0102C29.3409 19.0645 29.355 19.1187 29.3638 19.1742C29.3933 19.2937 29.4188 19.4123 29.4458 19.5305C29.3322 19.3859 29.238 19.2695 29.1975 19.228C28.9401 18.9458 29.2032 19.0432 29.3287 19.0103L29.3286 19.0102Z" fill="white"/>
</g>
</svg>
