<svg width="54" height="48" viewBox="0 0 54 48" fill="none" xmlns="http://www.w3.org/2000/svg">
<mask id="mask0_1_35593" style="mask-type:alpha" maskUnits="userSpaceOnUse" x="3" y="6" width="48" height="36">
<path d="M3.56934 15.1356C4.16681 10.4125 8.0415 7.00193 12.7861 6.60887C16.6412 6.28949 21.6196 6 27 6C32.3804 6 37.3588 6.28949 41.2139 6.60887C45.9585 7.00193 49.8332 10.4125 50.4307 15.1356C50.752 17.6759 51 20.704 51 24C51 27.296 50.752 30.3241 50.4307 32.8644C49.8332 37.5875 45.9585 40.9981 41.2139 41.3911C37.3588 41.7105 32.3804 42 27 42C21.6196 42 16.6412 41.7105 12.7861 41.3911C8.0415 40.9981 4.16681 37.5875 3.56934 32.8644C3.248 30.3241 3 27.296 3 24C3 20.704 3.248 17.6759 3.56934 15.1356Z" fill="#00D0BF"/>
</mask>
<g mask="url(#mask0_1_35593)">
<rect x="51" y="24" width="48" height="18" transform="rotate(-180 51 24)" fill="#EE5757"/>
<path fill-rule="evenodd" clip-rule="evenodd" d="M17.3125 8.12284C14.0739 8.73719 11.625 11.5826 11.625 15C11.625 18.4174 14.0739 21.2628 17.3125 21.8772C16.8874 21.9578 16.4486 22 16 22C12.134 22 9 18.866 9 15C9 11.134 12.134 8 16 8C16.4486 8 16.8874 8.0422 17.3125 8.12284Z" fill="#F5F5F5"/>
<path d="M20.2167 9L20.5534 10.0365H21.6433L20.7616 10.6771L21.0984 11.7135L20.2167 11.0729L19.335 11.7135L19.6718 10.6771L18.7901 10.0365H19.8799L20.2167 9Z" fill="#F5F5F5"/>
<path d="M16.5 12L16.8368 13.0365H17.9266L17.0449 13.6771L17.3817 14.7135L16.5 14.0729L15.6183 14.7135L15.9551 13.6771L15.0734 13.0365H16.1632L16.5 12Z" fill="#F5F5F5"/>
<path d="M18.5 17L18.8368 18.0365H19.9266L19.0449 18.6771L19.3817 19.7135L18.5 19.0729L17.6183 19.7135L17.9551 18.6771L17.0734 18.0365H18.1632L18.5 17Z" fill="#F5F5F5"/>
<path d="M24.5 12L24.8368 13.0365H25.9266L25.0449 13.6771L25.3817 14.7135L24.5 14.0729L23.6183 14.7135L23.9551 13.6771L23.0734 13.0365H24.1632L24.5 12Z" fill="#F5F5F5"/>
<path d="M22.5 17L22.8368 18.0365H23.9266L23.0449 18.6771L23.3817 19.7135L22.5 19.0729L21.6183 19.7135L21.9551 18.6771L21.0734 18.0365H22.1632L22.5 17Z" fill="#F5F5F5"/>
<rect x="51" y="42" width="48" height="18" transform="rotate(-180 51 42)" fill="#F5F5F5"/>
</g>
</svg>
