<svg width="54" height="54" viewBox="0 0 54 54" fill="none" xmlns="http://www.w3.org/2000/svg">
<mask id="mask0_1_35593" style="mask-type:alpha" maskUnits="userSpaceOnUse" x="3" y="9" width="48" height="36">
<path d="M3.56934 18.1356C4.16681 13.4125 8.0415 10.0019 12.7861 9.60887C16.6412 9.28949 21.6196 9 27 9C32.3804 9 37.3588 9.28949 41.2139 9.60887C45.9585 10.0019 49.8332 13.4125 50.4307 18.1356C50.752 20.6759 51 23.704 51 27C51 30.296 50.752 33.3241 50.4307 35.8644C49.8332 40.5875 45.9585 43.9981 41.2139 44.3911C37.3588 44.7105 32.3804 45 27 45C21.6196 45 16.6412 44.7105 12.7861 44.3911C8.04151 43.9981 4.16681 40.5875 3.56934 35.8644C3.248 33.3241 3 30.296 3 27C3 23.704 3.248 20.6759 3.56934 18.1356Z" fill="#00D0BF"/>
</mask>
<g mask="url(#mask0_1_35593)">
<rect x="51" y="27" width="48" height="18" transform="rotate(-180 51 27)" fill="#EE5757"/>
<path fill-rule="evenodd" clip-rule="evenodd" d="M17.3125 11.1228C14.0739 11.7372 11.625 14.5826 11.625 18C11.625 21.4174 14.0739 24.2628 17.3125 24.8772C16.8874 24.9578 16.4486 25 16 25C12.134 25 9 21.866 9 18C9 14.134 12.134 11 16 11C16.4486 11 16.8874 11.0422 17.3125 11.1228Z" fill="#F5F5F5"/>
<path d="M20.2167 12L20.5534 13.0365H21.6433L20.7616 13.6771L21.0984 14.7135L20.2167 14.0729L19.335 14.7135L19.6718 13.6771L18.7901 13.0365H19.8799L20.2167 12Z" fill="#F5F5F5"/>
<path d="M16.5 15L16.8368 16.0365H17.9266L17.0449 16.6771L17.3817 17.7135L16.5 17.0729L15.6183 17.7135L15.9551 16.6771L15.0734 16.0365H16.1632L16.5 15Z" fill="#F5F5F5"/>
<path d="M18.5 20L18.8368 21.0365H19.9266L19.0449 21.6771L19.3817 22.7135L18.5 22.0729L17.6183 22.7135L17.9551 21.6771L17.0734 21.0365H18.1632L18.5 20Z" fill="#F5F5F5"/>
<path d="M24.5 15L24.8368 16.0365H25.9266L25.0449 16.6771L25.3817 17.7135L24.5 17.0729L23.6183 17.7135L23.9551 16.6771L23.0734 16.0365H24.1632L24.5 15Z" fill="#F5F5F5"/>
<path d="M22.5 20L22.8368 21.0365H23.9266L23.0449 21.6771L23.3817 22.7135L22.5 22.0729L21.6183 22.7135L21.9551 21.6771L21.0734 21.0365H22.1632L22.5 20Z" fill="#F5F5F5"/>
<rect x="51" y="45" width="48" height="18" transform="rotate(-180 51 45)" fill="#F5F5F5"/>
</g>
</svg>
