<svg width="54" height="54" viewBox="0 0 54 54" fill="none" xmlns="http://www.w3.org/2000/svg">
<mask id="mask0_1_36037" style="mask-type:alpha" maskUnits="userSpaceOnUse" x="3" y="9" width="48" height="36">
<path d="M3.56934 18.1356C4.16681 13.4125 8.0415 10.0019 12.7861 9.60887C16.6412 9.28949 21.6196 9 27 9C32.3804 9 37.3588 9.28949 41.2139 9.60887C45.9585 10.0019 49.8332 13.4125 50.4307 18.1356C50.752 20.6759 51 23.704 51 27C51 30.296 50.752 33.3241 50.4307 35.8644C49.8332 40.5875 45.9585 43.9981 41.2139 44.3911C37.3588 44.7105 32.3804 45 27 45C21.6196 45 16.6412 44.7105 12.7861 44.3911C8.04151 43.9981 4.16681 40.5875 3.56934 35.8644C3.248 33.3241 3 30.296 3 27C3 23.704 3.248 20.6759 3.56934 18.1356Z" fill="#00D0BF"/>
</mask>
<g mask="url(#mask0_1_36037)">
<rect x="3" y="9" width="48" height="36" fill="#2E50A6"/>
<path d="M37.8399 32.3455C37.8399 32.3455 37.6996 32.7156 37.6196 32.7156C37.5396 32.7156 37.2494 32.5557 37.2494 32.5557C37.2494 32.5557 37.0392 32.8961 36.9291 32.9158C36.819 32.9359 36.5288 32.866 36.5288 32.866C36.5288 32.866 36.2486 32.866 36.2386 32.8258C36.2285 32.786 36.2486 32.706 36.2486 32.706C36.2486 32.706 35.8484 33.0259 35.7583 33.0058C35.6682 32.9862 35.368 32.6059 35.368 32.6059L35.318 32.8061L34.7476 32.786L34.2472 32.4656C34.2472 32.4656 33.9671 32.9259 33.957 32.9158C33.947 32.9058 33.4667 33.0259 33.4667 33.0259L33.4367 32.9359L33.1165 32.7458C33.1165 32.7458 33.3667 32.3957 33.3667 32.3857C33.3667 32.3756 33.2466 32.3354 33.2466 32.3354L33.0664 32.4857L32.6962 32.7257L32.3259 32.5557L32.4861 32.2554L32.5061 32.0352L32.7963 31.5951L36.3487 28.1425L38.0999 31.3748L37.8399 32.3455V32.3455Z" fill="#6A4C2D" stroke="black" stroke-width="0.0418751"/>
<path d="M40.3636 32.5549L41.2882 32.5214L40.8946 32.3271L44.4179 32.1943L43.9201 32.0047L43.4791 31.4071L41.6533 31.2697C41.6533 31.2697 41.516 31.1655 41.2928 31.2174C41.2836 31.0754 41.1127 30.8904 41.1127 30.8904L39.9888 30.8049L39.287 31.284L39.761 32.4979L40.3636 32.5549V32.5549Z" fill="white" stroke="black" stroke-width="0.0418751"/>
<path d="M36.7657 22.2L36.8587 21.8834C36.8587 21.8834 37.0216 21.6087 37.0216 21.4873C37.0216 21.3663 37.143 21.2222 37.143 21.2222C37.143 21.2222 37.5153 21.115 37.5945 21.3432C37.9952 20.7377 38.4655 21.3152 38.4655 21.3152L38.5957 21.1615L38.8612 20.8357C38.8612 20.8357 39.2385 21.1895 39.2431 21.2498C39.2477 21.3106 39.308 21.2687 39.308 21.2687L39.7179 21.236C39.7179 21.236 39.9122 21.3884 39.8716 21.6782C40.0161 21.7636 40.1463 22.2649 40.1463 22.2649L36.7657 22.2V22.2Z" fill="url(#paint0_linear_1_36037)" stroke="black" stroke-width="0.0418751"/>
<path d="M40.364 25.9671C40.4348 25.924 40.6576 25.8532 40.6304 25.5274C40.6031 25.2016 40.3209 25.1635 40.1635 25.1744C40.0056 25.1853 39.8645 25.321 39.8645 25.321L39.3431 24.9897C39.3431 24.9897 39.604 23.344 39.8808 23.241C40.1438 23.0513 40.1903 22.9693 40.1903 22.9261C40.1903 22.8826 40.0927 22.7737 40.0927 22.7737L38.3926 22.5727L36.785 22.7628C36.785 22.7628 36.6602 22.9529 36.6765 23.0291C36.6928 23.1049 36.6983 23.1866 36.986 23.4094C37.3046 23.6543 37.5237 25.0605 37.5237 25.0605C37.5237 25.0605 37.0731 25.2829 37.0459 25.2556C37.0186 25.2288 36.883 25.2016 36.8122 25.2125C36.7418 25.2234 36.5082 25.3427 36.5082 25.6522C36.5082 25.9621 36.7418 26.1413 36.7418 26.1413C36.7418 26.1413 38.2787 25.9621 38.5069 26.3854C38.7297 25.875 40.1903 26.0542 40.364 25.9671V25.9671Z" fill="#656263" stroke="black" stroke-width="0.0418751"/>
<path d="M42.0198 24.2565C42.0198 24.2565 42.037 24.0777 42.1643 23.9927C42.292 23.9077 43.1425 23.865 43.3469 23.9927C43.5508 24.1204 43.6274 24.7498 43.6274 24.7498C43.6274 24.7498 43.7551 24.9709 43.7635 25.1325C43.7719 25.2941 43.7891 25.4047 43.7891 25.4047C43.7891 25.4047 44.4695 26.2895 44.4779 27.0889C44.5545 27.6333 44.5374 29.0876 44.3251 29.6404C44.3163 30.3296 44.0273 30.7802 44.0273 30.7802C44.0273 30.7802 44.0952 30.8991 44.0868 31.0269C44.078 31.1546 44.0102 31.2735 44.0102 31.2735L45.0051 31.7668L44.6395 31.6307C44.6395 31.6307 45.0139 31.9456 45.0051 31.9372C44.9967 31.9284 44.5885 31.7412 44.5885 31.7412L44.8351 31.9879C44.8267 31.9795 44.2313 31.7157 44.2313 31.7157C44.2313 31.7157 44.5118 31.9795 44.4951 31.9711C44.4779 31.9628 44.0441 31.7584 44.0441 31.7584C44.0441 31.7584 44.3163 32.0478 44.3079 32.0306C44.2995 32.0134 43.9168 31.8606 43.9168 31.8606L43.9335 32.0051C43.9335 32.0051 43.6274 31.9879 43.6274 31.7584C43.4742 31.6734 43.3724 31.5541 43.3724 31.5541L42.6664 31.4351L41.8666 29.0449L42.0538 25.0048L42.1048 24.8009L42.0198 24.2565V24.2565Z" fill="black" stroke="black" stroke-opacity="0.97854" stroke-width="0.0523439" stroke-linejoin="round"/>
<path d="M41.4855 37.1679C41.4855 37.1679 41.0759 36.3065 40.872 36.2943C40.6877 35.943 41.5123 33.0716 43.1073 32.9079C43.9841 32.9799 43.1793 33.9188 42.6027 33.6298C42.6747 33.8823 42.9628 34.2437 42.9628 34.2437C42.9628 34.2437 41.8217 34.737 41.4855 37.1679Z" fill="#FFBB00" stroke="black" stroke-width="0.0415916"/>
<path d="M35.9948 37.2934C35.9948 37.2934 36.334 36.3127 36.5396 36.3006C36.7457 36.2884 35.9948 33.0322 34.3608 33.0079C33.4771 33.0808 34.2881 34.0247 34.8692 33.7341C34.7966 33.9887 34.5061 34.3517 34.5061 34.3517C34.5061 34.3517 35.6561 34.8479 35.9948 37.2934V37.2934Z" fill="#FFBB00" stroke="black" stroke-width="0.0418751"/>
<path d="M37.4939 31.1684C37.4897 31.1604 37.0881 31.2944 37.3482 31.7316C37.3679 31.5624 37.5488 31.4598 37.5488 31.4598C37.5488 31.4598 37.2732 31.7869 37.5647 32.0624C37.6003 31.8024 37.7657 31.7199 37.7657 31.7199C37.7657 31.7199 37.5609 32.3224 37.7694 32.4443C37.7933 32.2039 37.9466 32.098 37.9466 32.098C37.9466 32.098 37.7615 32.6373 37.9269 32.7592C37.9466 32.5548 38.0843 32.464 38.0843 32.464C38.0843 32.464 38.0019 33.0234 38.2183 33.0628C38.2225 32.8656 38.38 32.6729 38.38 32.6729C38.38 32.6729 38.3088 33.1294 38.6476 33.1495C38.6518 32.9761 38.7146 32.7793 38.7146 32.7793C38.7146 32.7793 38.8683 33.2634 39.0927 33.1846C39.0889 33.0431 39.0965 32.7751 39.0927 32.7751C39.0885 32.7751 39.2342 33.2357 39.5022 33.1495C39.4629 33.0192 39.5177 32.8656 39.5177 32.8656C39.5177 32.8656 39.6597 33.1532 39.9155 33.0586C39.9591 32.9719 39.9038 32.8027 39.9038 32.8027C39.9038 32.8027 40.2778 33.1888 40.3921 32.9564C40.5064 32.724 40.0927 32.6453 40.0927 32.6453H40.3724C40.3724 32.6453 40.282 32.4091 39.9038 32.3576C40.0336 32.2986 40.1676 32.3421 40.1676 32.3421C40.1676 32.3421 40.0889 32.0465 39.7028 32.0151C39.8527 31.964 40.0181 31.9996 40.0181 31.9996C40.0181 31.9996 39.9666 31.7199 39.5416 31.6411C39.6086 31.5662 39.7895 31.59 39.7895 31.59C39.7895 31.59 39.6203 31.3262 39.4273 31.3417C39.2342 31.3576 37.4897 31.1646 37.4939 31.1684V31.1684Z" fill="#00713D" stroke="black" stroke-width="0.0418751"/>
<path d="M39.2146 32.59C39.2146 32.59 39.3683 32.665 39.3645 32.732" stroke="#3EC26D" stroke-width="0.0523439" stroke-linecap="round"/>
<path d="M39.3054 32.4681C39.3054 32.4681 39.5022 32.6059 39.4985 32.7081" stroke="#3EC26D" stroke-width="0.0523439" stroke-linecap="round"/>
<path d="M39.4784 32.397C39.4784 32.397 39.6363 32.4954 39.6438 32.6491" stroke="#3EC26D" stroke-width="0.0523439" stroke-linecap="round"/>
<path d="M39.7422 32.4602C39.7422 32.4602 39.8213 32.6294 39.7937 32.6608" stroke="#3EC26D" stroke-width="0.0523439" stroke-linecap="round"/>
<path d="M39.9001 32.5507C39.9118 32.6847 39.8879 32.6964 39.8879 32.6964" stroke="#3EC26D" stroke-width="0.0523439" stroke-linecap="round"/>
<path d="M37.9584 31.7039C37.9584 31.7039 38.1435 31.822 38.128 31.9874" stroke="#3EC26D" stroke-width="0.0523439" stroke-linecap="round"/>
<path d="M37.9467 31.8459C37.9467 31.8459 38.0333 31.9284 38.0137 31.9837" stroke="#3EC26D" stroke-width="0.0523439" stroke-linecap="round"/>
<path d="M38.1753 31.7081C38.1753 31.7081 38.2971 31.8772 38.2578 31.9953" stroke="#3EC26D" stroke-width="0.0523439" stroke-linecap="round"/>
<path d="M38.3838 31.8182C38.3838 31.8182 38.4391 31.9246 38.388 31.9836" stroke="#3EC26D" stroke-width="0.0523439" stroke-linecap="round"/>
<path d="M38.4822 31.8693C38.4822 31.8693 38.5492 31.9757 38.4901 32.0113" stroke="#3EC26D" stroke-width="0.0523439" stroke-linecap="round"/>
<path d="M38.4077 32.2198C38.4077 32.2198 38.5807 32.2591 38.6045 32.389" stroke="#3EC26D" stroke-width="0.0523439" stroke-linecap="round"/>
<path d="M38.5099 32.1017C38.5099 32.1017 38.6912 32.1134 38.7109 32.3065" stroke="#3EC26D" stroke-width="0.0523439" stroke-linecap="round"/>
<path d="M38.7502 32.0347C38.754 32.0347 38.8721 32.2437 38.8524 32.3103" stroke="#3EC26D" stroke-width="0.0523439" stroke-linecap="round"/>
<path d="M38.9827 32.0544C38.9827 32.0544 39.0296 32.2554 38.9944 32.3182" stroke="#3EC26D" stroke-width="0.0523439" stroke-linecap="round"/>
<path d="M39.1321 32.1331C39.1321 32.1373 39.1358 32.3655 39.1358 32.3655" stroke="#3EC26D" stroke-width="0.0523439" stroke-linecap="round"/>
<path d="M38.9039 31.8182C38.9039 31.8182 39.0178 31.8614 39.0099 31.9719" stroke="#3EC26D" stroke-width="0.0523439" stroke-linecap="round"/>
<path d="M39.0099 31.7156C39.0099 31.7156 39.1556 31.7985 39.1401 31.956" stroke="#3EC26D" stroke-width="0.0523439" stroke-linecap="round"/>
<path d="M39.1794 31.649C39.1794 31.649 39.3055 31.7985 39.2582 31.9639" stroke="#3EC26D" stroke-width="0.0523439" stroke-linecap="round"/>
<path d="M39.3997 31.6842C39.3997 31.6842 39.3528 31.8693 39.3721 31.9442" stroke="#3EC26D" stroke-width="0.0523439" stroke-linecap="round"/>
<path d="M39.5338 31.8102C39.5338 31.8102 39.4513 31.8735 39.4944 31.9522" stroke="#3EC26D" stroke-width="0.0523439" stroke-linecap="round"/>
<path d="M38.8173 32.5309C38.8173 32.5309 38.8445 32.6729 38.8173 32.6964" stroke="#3EC26D" stroke-width="0.0523439" stroke-linecap="round"/>
<path d="M38.6359 32.4484C38.6359 32.4484 38.7263 32.6059 38.6949 32.6846" stroke="#3EC26D" stroke-width="0.0523439" stroke-linecap="round"/>
<path d="M38.4429 32.4405C38.4429 32.4405 38.5455 32.5586 38.5413 32.6532" stroke="#3EC26D" stroke-width="0.0523439" stroke-linecap="round"/>
<path d="M38.2854 32.4639C38.2854 32.4639 38.38 32.5548 38.3721 32.6059" stroke="#3EC26D" stroke-width="0.0523439" stroke-linecap="round"/>
<path d="M38.2029 32.6017C38.2029 32.6017 38.2933 32.6963 38.2891 32.716" stroke="#3EC26D" stroke-width="0.0523439" stroke-linecap="round"/>
<path d="M36.244 26.1371C36.6783 26.1291 37.1125 26.1216 37.5468 26.1136C37.5468 26.1136 38.4073 26.1136 38.5003 26.3929C38.6631 26.0207 39.4073 26.0441 39.4073 26.0441C39.857 26.0286 40.3067 26.0131 40.7561 25.9976C40.764 27.083 40.7716 28.1684 40.7795 29.2538C40.5161 30.5172 39.6011 31.4091 38.5932 31.7889C37.3914 31.4012 36.6318 30.3857 36.3839 29.2304C36.337 28.1994 36.2905 27.168 36.244 26.1371V26.1371Z" fill="white" stroke="black" stroke-width="0.0418751"/>
<path d="M36.708 26.125L38.6054 31.181L40.3193 26.0148C39.7875 26.0492 38.6468 25.9311 38.5053 26.416C38.2859 25.9822 37.0857 26.1572 36.708 26.125V26.125Z" fill="#006B00" stroke="black" stroke-width="0.0418751"/>
<path d="M37.9994 28.8623C38.0727 28.9004 38.0706 27.49 38.1665 27.4465C38.1937 27.3297 38.2075 27.2786 38.2418 27.1546C38.1593 27.0085 37.79 27.0156 37.6531 27.14C37.7146 27.3368 37.7419 27.4025 37.7419 27.4025C37.9269 27.7019 37.8901 28.8941 37.9994 28.8623V28.8623Z" fill="#FFC900" stroke="#006B00" stroke-width="0.0288595" stroke-linecap="round"/>
<path d="M37.491 17.9617C37.491 17.9617 37.6254 17.8094 37.6313 17.7729C37.6376 17.7363 38.2406 17.7119 38.5998 17.0418C38.8008 16.6885 38.5998 16.8956 38.5998 16.8956L38.5877 16.725C38.5877 16.725 38.8377 16.4874 38.7464 16.3595C38.6547 16.2315 38.6853 16.524 38.5391 16.5179C38.393 16.5118 38.4721 16.2011 38.4721 16.2011C38.4721 16.2011 38.46 16.1645 38.4173 16.1463C38.3561 16.1523 38.3746 16.262 38.3197 16.2742C38.2648 16.2864 38.2163 16.0183 38.2163 16.0183C38.2163 16.0183 38.125 15.8965 38.0454 16.2803C38.0881 16.6885 38.3503 16.6092 38.3503 16.8773C38.3503 17.1454 38.1187 17.3525 38.0517 17.3586C37.9847 17.3647 38.009 17.1332 38.009 17.1332C38.009 17.1332 37.9726 17.0235 37.9483 17.0235C37.924 17.0235 38.0823 16.9991 38.058 16.6945C38.0031 16.329 37.9604 16.7798 37.8628 16.7615C37.7653 16.7433 37.8386 16.4265 37.875 16.3899C37.9114 16.3534 37.8323 16.2011 37.6191 16.591C37.6007 16.7798 37.5764 16.5422 37.5337 16.5544C37.4608 16.7067 37.473 16.8164 37.5764 16.9565C37.7288 17.0966 37.8264 17.2367 37.8201 17.3099C37.8143 17.383 37.7347 17.5475 37.6254 17.5475C37.5157 17.5475 37.6313 17.3464 37.6254 17.2794C37.6191 17.2124 37.4366 16.9687 37.4366 16.9687C37.4366 16.9687 37.3084 16.7615 37.3206 16.7555C37.3327 16.7494 37.3084 16.7189 37.2477 16.9321C37.1866 17.1454 37.1133 16.792 37.1133 16.792C37.1133 16.792 37.0283 17.054 37.2108 17.2124C37.071 17.1941 37.0588 17.2489 37.0588 17.2489C37.0588 17.322 37.2477 17.3525 37.272 17.4804C37.2963 17.6084 37.0768 17.6815 37.0768 17.6815C37.0768 17.6815 37.1686 17.8094 37.424 17.5596C37.4303 17.718 37.3268 17.8277 37.3268 17.8277C37.4118 17.8663 37.4788 17.8622 37.491 17.9617V17.9617Z" fill="#CDAD56" stroke="black" stroke-width="0.0523439" stroke-linejoin="round"/>
<path d="M36.6552 17.9618C36.6552 17.9618 36.5413 17.7927 36.5363 17.7594C36.5308 17.7262 35.976 17.8015 35.7135 17.1247C35.5427 16.8032 35.7135 16.9916 35.7135 16.9916L35.7238 16.8364C35.7238 16.8364 35.5421 16.6141 35.6197 16.4977C35.6973 16.3813 35.6654 16.6474 35.7652 16.6479C35.8893 16.6424 35.8221 16.3597 35.8221 16.3597C35.8221 16.3597 35.8324 16.3264 35.8687 16.3098C35.9203 16.3153 35.9416 16.4821 35.9881 16.4932C36.0346 16.5043 36.1309 16.2969 36.1611 16.2543C36.2038 16.2482 36.2021 16.0825 36.2695 16.4317C36.2335 16.8032 35.9257 16.7311 35.9257 16.975C35.9257 17.2189 36.1221 17.4074 36.1791 17.4129C36.236 17.4185 36.2155 17.2078 36.2155 17.2078C36.2155 17.2078 36.2465 17.108 36.267 17.108C36.2879 17.108 36.0861 17.1468 36.107 16.8696C36.1535 16.6101 36.2565 16.8863 36.3395 16.8697C36.4224 16.853 36.3298 16.5952 36.3537 16.5559C36.3591 16.5165 36.481 16.3475 36.5283 16.7205C36.5438 16.8924 36.6376 16.5726 36.6736 16.5837C36.736 16.7223 36.6464 16.9074 36.5585 17.0349C36.4291 17.1624 36.3704 17.3021 36.3759 17.3686C36.3809 17.4351 36.4115 17.5178 36.5049 17.5178C36.5978 17.5178 36.5363 17.4018 36.5413 17.3409C36.5463 17.2799 36.7017 17.0825 36.7017 17.0825C36.7322 17.0338 36.7067 16.9428 36.7389 16.9007C36.7896 16.9012 36.8105 16.8309 36.8621 17.0249C36.914 17.2189 36.976 16.8974 36.976 16.8974C36.976 16.8974 37.0484 17.1358 36.893 17.2799C37.012 17.2633 37.0224 17.3132 37.0224 17.3132C37.0224 17.3797 36.9659 17.4074 36.945 17.5238C36.924 17.6402 37.0069 17.7067 37.0069 17.7067C37.0069 17.7067 36.9295 17.8231 36.7121 17.5959C36.7067 17.74 36.7951 17.8398 36.7951 17.8398C36.7222 17.8749 36.6657 17.8712 36.6552 17.9618V17.9618Z" fill="#CDAD56" stroke="black" stroke-width="0.0460166" stroke-linejoin="round"/>
<path d="M40.0026 26.8791C39.8891 26.7761 39.8757 26.8661 39.8201 26.8431C39.7924 26.8318 39.7711 26.8062 39.7472 26.7828C39.7267 26.7614 39.702 26.7526 39.6747 26.7413C39.6643 26.7719 39.6542 26.802 39.6438 26.8326C39.6333 26.8632 39.6727 26.9138 39.6718 26.9595C39.6639 27.0273 39.6362 27.0839 39.5508 27.1069C39.5751 27.0587 39.5889 27.0566 39.5814 26.9976C39.578 26.9683 39.4955 26.9159 39.5056 26.8883C39.5206 26.8435 39.5466 26.792 39.5273 26.7472C39.4926 26.771 39.4465 26.7585 39.4118 26.7731C39.382 26.7861 39.3804 26.841 39.3393 26.8636C39.2975 26.8833 39.2049 26.8736 39.1274 26.8297C39.1748 26.7941 39.2137 26.8179 39.261 26.7824C39.2845 26.7643 39.2836 26.6877 39.3071 26.6697C39.331 26.6517 39.3875 26.6329 39.4109 26.6148C39.3896 26.5906 39.3908 26.5525 39.3695 26.5282C39.3485 26.5039 39.2543 26.5089 39.233 26.485C39.1903 26.4365 39.1986 26.3728 39.1559 26.3247C39.266 26.364 39.2501 26.4176 39.2778 26.4134C39.3297 26.3883 39.3816 26.3837 39.4088 26.395C39.4365 26.4067 39.4884 26.4746 39.5156 26.4859C39.5261 26.4553 39.5412 26.4168 39.5512 26.3862C39.5617 26.3556 39.5052 26.3029 39.5152 26.2723C39.5361 26.2116 39.5872 26.1576 39.6077 26.0964C39.6153 26.1555 39.6249 26.2049 39.6325 26.2635C39.6362 26.2928 39.694 26.3083 39.6978 26.3376C39.7015 26.3674 39.6676 26.4352 39.671 26.4649C39.7028 26.4587 39.7484 26.4628 39.7799 26.4566C39.8117 26.4503 39.8326 26.377 39.864 26.3707C39.9273 26.3582 39.9729 26.3619 40.037 26.3741C39.9897 26.418 39.9532 26.4151 39.9235 26.4553C39.9 26.4733 39.9327 26.5324 39.8644 26.5738C39.8389 26.5889 39.7715 26.5709 39.7476 26.5889C39.769 26.6132 39.7903 26.637 39.8117 26.6613C39.8326 26.6856 39.9281 26.6969 39.9495 26.7212C39.9917 26.7694 40.0144 26.8272 40.0026 26.8791V26.8791Z" fill="#FFC900"/>
<path d="M37.0852 26.9289C37.1987 26.8259 37.2121 26.916 37.2682 26.8929C37.2955 26.8812 37.3168 26.8557 37.3407 26.8326C37.3612 26.8113 37.3859 26.8025 37.4131 26.7908C37.4236 26.8213 37.4341 26.8519 37.4441 26.8825C37.4546 26.913 37.4156 26.9633 37.4165 27.0089C37.424 27.0772 37.4516 27.1333 37.5371 27.1567C37.5128 27.1086 37.499 27.1061 37.5065 27.0475C37.5103 27.0181 37.5923 26.9658 37.5823 26.9377C37.5672 26.8934 37.5413 26.8414 37.5605 26.7966C37.5957 26.8209 37.6413 26.8083 37.6765 26.8226C37.7058 26.836 37.7079 26.8908 37.7485 26.9135C37.7908 26.9331 37.8834 26.9235 37.9604 26.8795C37.9131 26.8435 37.8742 26.8678 37.8268 26.8318C37.8034 26.8142 37.8047 26.7372 37.7808 26.7196C37.7573 26.7016 37.7008 26.6823 37.6769 26.6643C37.6983 26.6404 37.697 26.6019 37.7184 26.5776C37.7397 26.5537 37.834 26.5588 37.8549 26.5345C37.8976 26.4863 37.8897 26.4227 37.932 26.3741C37.8218 26.4135 37.8382 26.4671 37.8105 26.4633C37.7582 26.4382 37.7062 26.4331 37.679 26.4449C37.6518 26.4562 37.5995 26.524 37.5722 26.5357C37.5618 26.5052 37.5471 26.4666 37.5367 26.4361C37.5262 26.4055 37.5831 26.3527 37.5727 26.3222C37.5521 26.261 37.5006 26.2074 37.4801 26.1463C37.4726 26.2049 37.463 26.2543 37.4554 26.3134C37.4516 26.3427 37.3939 26.3582 37.3901 26.3875C37.3867 26.4168 37.4207 26.4851 37.4169 26.5144C37.3851 26.5081 37.3394 26.5123 37.308 26.5064C37.2766 26.4997 37.2557 26.4264 37.2238 26.4202C37.1606 26.4076 37.1154 26.4114 37.0509 26.4235C37.0982 26.4679 37.1347 26.4646 37.1644 26.5052C37.1878 26.5232 37.1552 26.5822 37.2234 26.6237C37.249 26.6388 37.3168 26.6207 37.3403 26.6388C37.3189 26.6626 37.2975 26.6869 37.2766 26.7112C37.2553 26.7355 37.1598 26.7468 37.1388 26.7707C37.0961 26.8192 37.0735 26.877 37.0852 26.9289V26.9289Z" fill="#FFC900"/>
<path d="M39.901 27.2049C39.798 27.2849 39.1342 27.4528 39.1271 28.0295C39.1204 28.6061 39.2435 28.7376 39.1204 28.7522C38.8809 28.7522 38.8466 28.1099 38.8533 27.8251C38.8604 27.5404 38.8671 27.5843 38.8671 27.5843C38.8671 27.5843 39.0312 27.6279 39.0178 27.7669C39.004 27.9055 39.182 27.4235 39.1204 27.2924C39.2297 27.4017 39.3738 27.3582 39.3738 27.3507C39.3738 27.3435 39.2917 27.256 39.2574 27.1903C39.223 27.1245 39.3805 27.2267 39.3805 27.2267C39.3805 27.2267 39.3872 27.117 39.2502 27.1245C39.0723 27.1245 39.2779 27.0659 39.2779 27.0659C39.2779 27.0659 39.3805 27.161 39.4491 27.0588C39.3738 26.9784 39.2641 26.9344 39.2641 26.9344C39.2641 26.9344 39.1682 26.7523 39.0384 26.7158C38.8876 26.679 38.9081 26.7812 38.7369 26.7669C38.7029 26.8322 38.7029 26.8398 38.7712 26.8616C38.6548 26.942 38.7163 27.1023 38.7163 27.1023C38.7163 27.1023 38.9014 27.0224 38.8943 27.1534C38.8876 27.2849 38.785 27.2631 38.7163 27.1827C38.6548 27.1463 38.6343 27.2192 38.6343 27.2192L38.7302 27.3213C38.7302 27.3213 38.5455 27.3142 38.4973 27.4382C38.5999 27.4311 38.6548 27.4604 38.6548 27.4604C38.6548 27.4604 38.4425 27.555 38.422 27.6061C38.4014 27.6572 38.3947 27.5479 38.388 27.5479C38.3809 27.5479 38.1824 27.4746 38.1824 27.4746L38.1138 27.7903C38.1138 27.7903 38.2511 27.9273 38.3261 27.8833C38.4014 27.8398 38.5384 27.7083 38.6204 27.7447C38.3809 27.9273 38.1414 28.1898 38.0112 28.2267C37.9772 28.1974 37.8608 28.0805 37.8127 28.1387C37.7649 28.1974 37.7993 28.2702 37.8608 28.2631C37.9224 28.2556 37.6623 28.3213 37.7168 28.431C37.7716 28.5403 37.7649 28.5332 37.8127 28.5039C37.8608 28.4746 37.7716 28.4675 37.9496 28.4164C38.1276 28.3653 38.1209 28.3142 38.1209 28.3142C38.1209 28.3142 38.0865 28.3942 37.9906 28.4164C37.8947 28.4382 37.8198 28.4382 37.8403 28.4675C37.8608 28.4964 37.9019 28.5474 37.888 28.5768C37.8742 28.6061 38.0865 28.4235 38.1414 28.5696C38.285 28.5621 38.3809 28.3871 38.3127 28.2849C38.3194 28.3942 38.388 28.431 38.3466 28.4821C38.3055 28.5332 38.6686 28.3142 38.4906 28.1827C38.5384 28.292 38.5455 28.3799 38.5455 28.3799C38.5455 28.3799 38.6276 28.3724 38.6481 28.3431C38.6686 28.3142 38.607 28.4235 38.6343 28.4453C38.6615 28.4675 38.7917 28.5914 38.7369 28.6789C38.7029 28.6278 38.6958 28.5474 38.6548 28.555C38.6137 28.5621 38.4425 28.6865 38.3399 28.6936C38.2373 28.7007 38.463 29.0734 38.463 29.0734C38.463 29.0734 38.3055 29.0512 38.285 29.0659C38.2645 29.0805 38.1619 28.9344 38.1414 29.0223C38.1071 29.1316 38.1757 29.0876 38.1757 29.0876C38.1757 29.0876 38.0865 29.0441 38.0388 29.0952C37.9906 29.1463 37.9429 29.1973 37.9772 29.2191C38.0112 29.2409 38.1619 29.2409 38.1824 29.2338C38.2029 29.2267 38.0112 29.2484 37.9978 29.2702C37.9839 29.292 37.9567 29.3724 37.9978 29.4017C38.0388 29.431 38.1414 29.387 38.1481 29.3653C38.1552 29.3431 38.1619 29.4452 38.1619 29.4452C38.1619 29.4452 38.3399 29.4599 38.3399 29.2777C38.3399 29.0952 38.3537 29.4088 38.3537 29.4088C38.3537 29.4088 38.5317 29.4381 38.5384 29.2556C38.5455 29.0734 38.5589 29.3799 38.5589 29.3799C38.5589 29.3799 38.6753 29.3431 38.6753 29.3142C38.6753 29.2849 38.6686 29.6789 38.5865 29.7886C38.4563 29.7007 38.3742 29.8468 38.3742 29.8468C38.3742 29.8468 38.3809 30.0583 38.3671 30.1094C38.3537 30.1605 38.4563 30.0805 38.463 30.0583C38.4701 30.0365 38.5932 29.9783 38.5999 29.9637C38.607 29.949 38.641 29.8761 38.641 29.8761C38.641 29.8761 38.6137 29.9783 38.566 29.993C38.5178 30.0072 38.4701 30.0583 38.4906 30.1023C38.5111 30.1462 38.5865 30.1751 38.6137 30.2191C38.641 30.2627 38.7369 29.9637 38.7369 29.9637L38.744 30.0294C38.744 30.0294 38.8671 30.0001 38.8809 29.9419C38.8943 29.8833 38.7507 29.8322 38.8671 29.7375C38.9835 29.6425 38.8671 29.8251 38.8671 29.8251C38.8671 29.8251 38.9081 29.9637 38.9353 29.9637C38.963 29.9637 39.0312 29.7007 38.963 29.6354C38.8943 29.5696 39.0656 29.7153 39.0656 29.7153C39.0656 29.7153 39.1615 29.4452 39.0589 29.4088C38.9559 29.3724 38.9081 29.3577 38.9081 29.3577C38.9081 29.3577 38.963 29.2849 38.9353 29.2777C38.9081 29.2702 39.0794 29.4381 39.1066 29.3942C39.1342 29.3506 39.1753 29.2191 38.9768 29.1463C38.7779 29.0734 38.9697 28.8686 38.9697 28.8686C38.9697 28.8686 39.0932 29.0148 39.182 28.9344C39.2708 28.8544 39.1753 28.8544 39.1753 28.8544C39.1753 28.8544 39.4282 28.6936 39.4353 28.6132C39.3872 28.6061 39.3051 28.6207 39.3051 28.6207C39.3051 28.6207 39.4491 28.5257 39.4148 28.3724C39.36 28.4528 39.2846 28.4528 39.2846 28.4528C39.2846 28.4528 39.4081 28.3289 39.3872 28.212C39.3122 28.2702 39.3189 28.3142 39.2708 28.2995C39.223 28.2849 39.1409 27.8251 39.3327 27.7958C39.5241 27.7669 39.4215 28.0223 39.4282 28.0223C39.4353 28.0223 39.7159 27.9055 39.4282 27.7158C39.4969 27.6936 39.6405 27.8251 39.6405 27.8251C39.6405 27.8251 39.579 27.5039 39.2708 27.7012C39.3461 27.6208 39.3943 27.5697 39.4558 27.5843C39.5174 27.599 39.7364 27.5768 39.7364 27.5115C39.682 27.4675 39.5656 27.5332 39.5036 27.5115C39.442 27.4893 39.942 27.4528 39.901 27.2049V27.2049Z" fill="#FFC900" stroke="#006B00" stroke-width="0.0288595" stroke-linecap="round" stroke-linejoin="round"/>
<path d="M37.7305 27.3943C37.7305 27.3943 38.0044 27.241 38.1412 27.431" stroke="#006B00" stroke-width="0.0288594" stroke-linecap="round"/>
<path d="M38.2509 27.7228C38.244 27.7228 38.155 27.8177 38.1344 27.8177" stroke="#006B00" stroke-width="0.0288594" stroke-linecap="round"/>
<path d="M38.4358 28.0293C38.4358 28.0293 38.6889 28.0513 38.8533 27.7812" stroke="#006B00" stroke-width="0.0288594" stroke-linecap="round"/>
<path d="M38.7095 27.949C38.7095 27.949 38.73 28.0952 38.7712 28.0952C38.8121 28.0952 38.7028 28.1316 38.6616 28.1023C38.7095 28.1681 38.737 28.2849 38.6616 28.3285" stroke="#006B00" stroke-width="0.0288594" stroke-linecap="round"/>
<path d="M38.5793 29.7884C38.5793 29.7884 38.4903 29.8904 38.3807 29.8978Z" fill="#E80000"/>
<path d="M38.5793 29.7884C38.5793 29.7884 38.4903 29.8904 38.3807 29.8978" stroke="#006B00" stroke-width="0.0288594" stroke-linecap="round"/>
<path d="M38.6822 29.3211C38.6822 29.3211 38.6274 29.0294 38.6616 28.9562C38.6822 28.8613 38.7712 28.8248 38.8396 28.7009" stroke="#006B00" stroke-width="0.0288594" stroke-linecap="round"/>
<path d="M38.6546 29.1095C38.6546 29.1095 38.5862 29.2847 38.285 29.2263" stroke="#006B00" stroke-width="0.0288594" stroke-linecap="round"/>
<path d="M38.737 28.6716C38.737 28.6716 38.7573 28.9052 38.4836 28.8177" stroke="#006B00" stroke-width="0.0288594" stroke-linecap="round"/>
<path d="M38.4013 27.6207C38.4013 27.6207 38.2917 27.7228 38.3328 27.8615" stroke="#006B00" stroke-width="0.0288594" stroke-linecap="round"/>
<path d="M38.8121 27.3652C38.8121 27.3652 38.9559 27.3068 38.9834 27.2775C39.0107 27.2484 39.0588 27.19 39.0724 27.1461C39.086 27.1025 38.9765 27.0367 39.0313 26.9419C39.0655 26.8981 39.1133 26.8908 39.1956 26.9419C39.2777 26.9928 39.1203 26.7813 39.0382 26.774C38.9559 26.7667 38.9011 26.8324 38.8808 26.8178C38.8602 26.8032 38.8875 26.8762 38.8533 26.8762C38.8191 26.8762 38.9217 26.9346 38.915 26.9712C38.9081 27.0076 39.0243 27.1316 39.0176 27.1609C39.0107 27.19 38.8463 27.3578 38.8121 27.3652V27.3652Z" fill="#006B00"/>
<path d="M38.9149 26.8835C38.9773 26.8683 38.9874 26.8851 38.9764 26.9418C38.9471 26.9261 38.9364 26.9128 38.9149 26.8835Z" fill="#FFC900" stroke="#FFC900" stroke-width="0.0288594" stroke-linecap="round" stroke-linejoin="round"/>
<path d="M38.4776 30.1353C38.4776 30.1353 38.4545 30.2881 38.5109 30.3007C38.508 30.2416 38.5229 30.2013 38.5368 30.1856C38.5247 30.1796 38.4802 30.1362 38.4776 30.1353V30.1353Z" fill="#E80000" stroke="#006B00" stroke-width="0.0288594" stroke-linejoin="round"/>
<path d="M38.3506 29.9472C38.2987 29.9393 38.2113 29.9851 38.2363 30.0404C38.2786 30.0018 38.3175 30.0435 38.347 30.0041C38.356 29.9932 38.3535 29.961 38.3506 29.9472Z" fill="#E80000" stroke="#006B00" stroke-width="0.0288594" stroke-linejoin="round"/>
<path d="M38.3501 29.838C38.3501 29.838 38.2685 29.8241 38.2571 29.8845C38.3134 29.8768 38.3302 29.8704 38.349 29.883C38.3543 29.8702 38.3492 29.8411 38.3501 29.838Z" fill="#E80000" stroke="#006B00" stroke-width="0.0288594" stroke-linejoin="round"/>
<path d="M38.0043 28.9772C38.0043 28.9772 38.0532 28.9967 38.0671 29.0501C38.106 29.0244 38.1246 28.9111 38.0043 28.9772Z" fill="#E80000" stroke="#006B00" stroke-width="0.0230875" stroke-linejoin="round"/>
<path d="M37.8831 29.1071C37.8851 29.1061 37.9857 29.041 37.996 29.1033C37.9747 29.1259 37.9653 29.1407 37.9488 29.1457C37.9358 29.1457 37.9099 29.1033 37.8831 29.1071Z" fill="#E80000" stroke="#006B00" stroke-width="0.0230875" stroke-linejoin="round"/>
<path d="M37.8729 29.318C37.8747 29.3171 37.9375 29.258 37.9617 29.2973C37.9856 29.3369 37.9422 29.3347 37.9422 29.3347C37.9422 29.3347 37.9201 29.324 37.8729 29.318Z" fill="#E80000" stroke="#006B00" stroke-width="0.0230875" stroke-linejoin="round"/>
<path d="M37.7842 28.1433C37.7833 28.1433 37.7037 28.1106 37.6704 28.1697C37.7232 28.1766 37.7417 28.1964 37.7657 28.2162C37.7592 28.1914 37.7482 28.154 37.7842 28.1433Z" fill="#E80000" stroke="#006B00" stroke-width="0.0230875" stroke-linejoin="round"/>
<path d="M37.6299 28.5857C37.6299 28.5857 37.6335 28.4863 37.6777 28.4458C37.7028 28.4606 37.7102 28.4842 37.7269 28.5137C37.6936 28.5216 37.6491 28.5238 37.6299 28.5857Z" fill="#E80000" stroke="#006B00" stroke-width="0.0230875" stroke-linejoin="round"/>
<path d="M37.8424 28.5147C37.8424 28.5147 37.7547 28.5581 37.7833 28.6055C37.812 28.5729 37.8435 28.5829 37.8435 28.5819C37.8435 28.581 37.8435 28.5159 37.8424 28.5147Z" fill="#E80000" stroke="#006B00" stroke-width="0.0230875" stroke-linejoin="round"/>
<path d="M37.7157 27.5626C37.6842 27.6002 37.7546 27.682 37.8284 27.6701C37.847 27.5814 37.7343 27.5351 37.7157 27.5626V27.5626Z" fill="#FFC900" stroke="#006B00" stroke-width="0.0230875" stroke-linejoin="round"/>
<path d="M37.7971 27.4946C37.7971 27.4946 37.811 27.5647 37.8747 27.5459C37.8646 27.4918 37.8201 27.4512 37.8201 27.4512C37.8175 27.4672 37.8293 27.4918 37.7971 27.4946V27.4946Z" fill="#E80000" stroke="#006B00" stroke-width="0.0230875" stroke-linejoin="round"/>
<path d="M37.8396 27.6977C37.8396 27.6977 37.8747 27.738 37.944 27.6553C37.9127 27.6651 37.8573 27.6355 37.8573 27.6355C37.8573 27.6355 37.8573 27.6927 37.8396 27.6977Z" fill="#E80000" stroke="#006B00" stroke-width="0.0230875" stroke-linejoin="round"/>
<path d="M37.7117 27.4019C37.6804 27.4394 37.7249 27.4916 37.7987 27.4799C37.8172 27.3912 37.7302 27.3745 37.7117 27.4019Z" fill="#FFC900" stroke="#006B00" stroke-width="0.0230875" stroke-linejoin="round"/>
<path d="M37.7414 27.0516C37.7414 27.0516 38.0362 26.9675 38.1928 27.0939C38.349 27.22 38.349 27.1057 38.349 27.1057C38.349 27.1057 38.5776 27.1898 38.6438 27.1718C38.71 27.1538 38.5956 27.1781 38.6857 27.1237C38.7761 27.0696 38.5052 27.1358 38.4813 27.0215C38.439 26.9495 38.4872 26.859 38.3913 26.8892C38.3251 26.805 38.4332 26.7451 38.4093 26.6547C38.3431 26.7028 38.3067 26.6367 38.2527 26.7568C38.1266 26.733 38.2347 26.5584 38.0965 26.5403C38.0965 26.6668 37.9943 26.6727 37.988 26.7451C37.9282 26.787 37.6635 26.9436 37.7414 27.0516V27.0516Z" fill="url(#paint1_linear_1_36037)"/>
<path d="M34.3497 36.6393C34.5409 36.5933 35.5769 36.8684 35.9764 37.2964C35.8914 36.5338 35.6803 35.9497 35.6803 35.9497C35.6803 35.9497 35.0629 35.7734 34.9782 35.8584C34.8539 35.989 34.4805 36.3814 34.3497 36.6393Z" fill="#C01500" stroke="black" stroke-width="0.0418751"/>
<path d="M34.0339 33.1168C33.9613 33.129 33.8887 33.1775 33.816 33.2986C33.7313 33.5042 33.6708 34.0247 33.5497 34.1457C33.4287 34.2667 33.3197 34.2789 33.3197 34.3882C33.3197 34.497 33.3318 34.7512 33.6587 34.8479C33.9855 34.8601 34.5061 34.3274 34.5061 34.3274C34.5061 34.3274 34.7724 34.0368 34.8813 33.7223C34.2518 33.9401 33.8039 33.3589 34.0339 33.1168V33.1168Z" fill="#C01500" stroke="black" stroke-width="0.0418751"/>
<path d="M43.1379 36.5179C42.9482 36.4723 41.9005 36.7457 41.5039 37.1712C41.5881 36.4133 41.7979 35.832 41.7979 35.832C41.8712 35.8123 42.4038 35.657 42.488 35.7416C42.6111 35.8714 43.0081 36.2617 43.1379 36.5179Z" fill="#C01500" stroke="black" stroke-width="0.0415916"/>
<path d="M43.4314 33.0159C43.5035 33.0281 43.529 33.1227 43.588 33.2433C43.6718 33.4477 43.7585 33.7458 43.8787 33.866C43.9988 33.9866 44.1069 34.1646 44.1069 34.273C44.1069 34.3815 44.0817 34.5276 43.7572 34.6239C43.4331 34.6361 42.9628 34.2194 42.9628 34.2194C42.9628 34.2194 42.6986 33.9309 42.5906 33.6177C43.2154 33.8346 43.6199 33.2768 43.4314 33.0159V33.0159Z" fill="#C01500" stroke="black" stroke-width="0.0415916"/>
<path d="M33.6708 35.974C33.6708 35.974 34.3244 36.4216 34.3366 36.6276C36.092 34.0247 40.571 33.2136 43.1249 36.4459C43.4641 35.9978 43.815 35.8529 43.815 35.8529C41.1279 32.3421 35.7771 32.778 33.6708 35.974V35.974Z" fill="#FFBB00" stroke="black" stroke-width="0.0418751"/>
<path d="M40.3301 26.0156L40.586 26.0093L40.1291 26.5881L40.6773 27.2279L39.599 28.5863L40.6166 29.8108C40.5048 30.085 40.3749 30.3346 40.202 30.5603L39.6174 29.9142L40.6773 28.5926L39.8063 27.6056L40.3301 26.0156V26.0156Z" fill="#1E5AA6" stroke="black" stroke-width="0.0418751"/>
<path d="M36.6749 26.1312L36.4006 26.1375L36.9123 26.6915L36.3705 27.3678L37.4973 28.5926L36.5652 29.8414C36.677 30.1156 36.8374 30.4201 37.0099 30.6454L37.5643 29.9448L36.4253 28.6777L37.2599 27.6178L36.6749 26.1312V26.1312Z" fill="#1E5AA6" stroke="black" stroke-width="0.0418751"/>
<path d="M37.942 29.4209L37.54 29.9569L38.9776 31.6202C39.2314 31.492 39.4307 31.3459 39.648 31.1696L38.8985 30.3045L39.2033 29.4088L39.6418 29.9142L38.2712 31.6629C38.0417 31.5653 37.7879 31.4129 37.5585 31.224L38.2833 30.3045L37.942 29.4209V29.4209Z" fill="#1E5AA6" stroke="black" stroke-width="0.0418751"/>
<path d="M37.4973 28.5863L37.7595 28.9155L37.5886 28.4708L37.4973 28.5863V28.5863Z" fill="#1E5AA6" stroke="black" stroke-width="0.0418751"/>
<path d="M39.3738 28.8773C39.3792 28.8711 39.5852 28.5968 39.5852 28.5968L39.5053 28.4875L39.3738 28.8773V28.8773Z" fill="#1E5AA6" stroke="black" stroke-width="0.0405556"/>
<path d="M34.6578 36.3251L34.7761 36.1863L34.8286 36.2311L34.6546 36.4352L34.3374 36.1648L34.3931 36.0995L34.6578 36.3251Z" fill="black"/>
<path d="M34.9128 35.8608L34.797 35.9782L34.8765 36.0566L35.0123 35.9188L35.0615 35.9673L34.8653 36.1662L34.5685 35.8735L34.7643 35.675L34.8139 35.7238L34.6784 35.8612L34.7491 35.9309L34.8649 35.8136L34.9128 35.8608Z" fill="black"/>
<path d="M35.2102 35.6208C35.2334 35.6517 35.2482 35.6827 35.2546 35.7138C35.261 35.745 35.2585 35.7743 35.2473 35.8017C35.2362 35.829 35.2173 35.8522 35.1905 35.8713C35.1641 35.8902 35.1358 35.9008 35.1057 35.9032C35.0755 35.9055 35.0461 35.8992 35.0173 35.8842C34.9884 35.8691 34.9626 35.8466 34.9398 35.8166L34.9281 35.8011C34.9049 35.7702 34.8901 35.7391 34.8838 35.7077C34.8775 35.676 34.8799 35.6466 34.8911 35.6194C34.9024 35.592 34.9213 35.5688 34.9479 35.5498C34.9745 35.5308 35.0028 35.5203 35.0329 35.5182C35.063 35.5159 35.0926 35.5224 35.1215 35.5379C35.1505 35.5532 35.1766 35.5761 35.1997 35.6068L35.2102 35.6208ZM35.1329 35.6542C35.1082 35.6213 35.0834 35.6007 35.0586 35.5921C35.0337 35.5836 35.0102 35.5873 34.988 35.6032C34.966 35.6189 34.9553 35.6395 34.9561 35.665C34.9567 35.6903 34.9692 35.7193 34.9936 35.752L35.0051 35.7673C35.0292 35.7992 35.0538 35.8198 35.0791 35.8289C35.1043 35.838 35.1282 35.8345 35.1507 35.8184C35.1728 35.8027 35.1833 35.7821 35.1824 35.7567C35.1814 35.7312 35.1687 35.7021 35.1444 35.6695L35.1329 35.6542Z" fill="black"/>
<path d="M35.557 35.0826L35.4512 35.1541L35.6457 35.4418L35.5745 35.4899L35.3801 35.2022L35.2757 35.2728L35.2368 35.2151L35.518 35.025L35.557 35.0826Z" fill="black"/>
<path d="M35.8387 35.1147L35.6899 35.1858L35.738 35.2865L35.9126 35.2031L35.9424 35.2653L35.6903 35.3858L35.5106 35.0098L35.7621 34.8895L35.7921 34.9523L35.618 35.0355L35.6609 35.1251L35.8096 35.054L35.8387 35.1147Z" fill="black"/>
<path d="M36.0787 34.9826L36.0162 35.0104L36.0782 35.1498L35.9997 35.1848L35.8303 34.804L35.9718 34.741C36.0168 34.721 36.0559 34.7156 36.0893 34.7248C36.1226 34.734 36.1474 34.7569 36.1637 34.7935C36.1753 34.8194 36.1793 34.8437 36.1757 34.8662C36.1722 34.8884 36.1613 34.9097 36.1431 34.9302L36.2947 35.0491L36.2963 35.0528L36.2121 35.0903L36.0787 34.9826ZM35.9879 34.9469L36.0512 34.9187C36.0709 34.91 36.0839 34.8982 36.0903 34.8835C36.0966 34.8685 36.0959 34.8523 36.088 34.8347C36.08 34.8167 36.0686 34.8049 36.0538 34.7992C36.0391 34.7934 36.0212 34.7952 36.0001 34.8046L35.937 34.8326L35.9879 34.9469Z" fill="black"/>
<path d="M36.4141 34.8023L36.3506 34.8278L36.4075 34.9694L36.3279 35.0014L36.1723 34.6147L36.316 34.5569C36.3617 34.5386 36.401 34.5346 36.434 34.545C36.467 34.5553 36.4909 34.5791 36.5059 34.6163C36.5165 34.6427 36.5196 34.6671 36.5152 34.6894C36.5109 34.7115 36.4993 34.7324 36.4803 34.7522L36.6275 34.8765L36.629 34.8803L36.5435 34.9147L36.4141 34.8023ZM36.3246 34.7633L36.3889 34.7374C36.4089 34.7294 36.4224 34.7181 36.4293 34.7036C36.4361 34.6889 36.436 34.6726 36.4288 34.6547C36.4214 34.6365 36.4104 34.6243 36.3958 34.618C36.3813 34.6117 36.3634 34.6128 36.342 34.6215L36.278 34.6472L36.3246 34.7633Z" fill="black"/>
<path d="M38.1219 34.3397L38.0537 34.3454L38.0664 34.4974L37.9808 34.5046L37.9462 34.0892L38.1006 34.0764C38.1496 34.0723 38.1884 34.0801 38.2168 34.0997C38.2453 34.1194 38.2612 34.1492 38.2645 34.1891C38.2668 34.2174 38.2626 34.2416 38.2519 34.2617C38.2413 34.2815 38.224 34.2981 38.2 34.3114L38.304 34.4736L38.3043 34.4776L38.2125 34.4853L38.1219 34.3397ZM38.048 34.2761L38.117 34.2703C38.1385 34.2685 38.1547 34.2617 38.1656 34.2499C38.1764 34.2379 38.1811 34.2223 38.1795 34.2031C38.1778 34.1835 38.171 34.1685 38.1588 34.1583C38.1468 34.148 38.1293 34.1438 38.1063 34.1457L38.0376 34.1514L38.048 34.2761Z" fill="black"/>
<path d="M39.1494 34.3012L39.081 34.3002L39.0787 34.4527L38.9928 34.4514L38.9991 34.0347L39.1539 34.037C39.2031 34.0377 39.241 34.0493 39.2673 34.0716C39.2937 34.094 39.3066 34.1252 39.306 34.1652C39.3056 34.1937 39.299 34.2173 39.2864 34.2362C39.2739 34.2549 39.255 34.2697 39.2299 34.2806L39.3175 34.4523L39.3174 34.4563L39.2253 34.4549L39.1494 34.3012ZM39.082 34.2306L39.1513 34.2316C39.1729 34.232 39.1896 34.2268 39.2016 34.2161C39.2136 34.2052 39.2198 34.1901 39.2201 34.1708C39.2203 34.1512 39.215 34.1356 39.2039 34.1242C39.193 34.1128 39.176 34.1069 39.1529 34.1066L39.0839 34.1055L39.082 34.2306Z" fill="black"/>
<path d="M41.1169 34.8155L41.0574 34.7817L40.982 34.9143L40.9073 34.8718L41.1135 34.5096L41.2481 34.5862C41.2909 34.6105 41.3185 34.6389 41.3308 34.6712C41.3432 34.7034 41.3395 34.737 41.3196 34.7718C41.3056 34.7965 41.2884 34.8141 41.2682 34.8246C41.2483 34.835 41.2246 34.8389 41.1973 34.8363L41.1915 35.0289L41.1895 35.0324L41.1094 34.9868L41.1169 34.8155ZM41.0919 34.7212L41.1521 34.7555C41.1708 34.7662 41.188 34.7697 41.2037 34.7661C41.2194 34.7623 41.2321 34.7521 41.2416 34.7353C41.2513 34.7182 41.2541 34.702 41.2499 34.6867C41.2458 34.6714 41.2338 34.6581 41.2137 34.6466L41.1537 34.6125L41.0919 34.7212Z" fill="black"/>
<path d="M42.1494 35.4317L42.0227 35.3261L41.9512 35.4119L42.0999 35.5358L42.0557 35.5888L41.8411 35.4099L42.1079 35.0897L42.3221 35.2682L42.2776 35.3217L42.1293 35.1982L42.0658 35.2745L42.1924 35.38L42.1494 35.4317Z" fill="black"/>
<path d="M41.7891 35.04C41.7827 35.0794 41.7701 35.1126 41.7514 35.1397C41.7327 35.1668 41.7091 35.1859 41.6806 35.1972C41.6523 35.2085 41.6214 35.211 41.588 35.2047C41.555 35.1985 41.5269 35.185 41.5036 35.1642C41.4803 35.1434 41.4639 35.1169 41.4545 35.0847C41.4451 35.0524 41.4435 35.017 41.4496 34.9785L41.4528 34.9587C41.4592 34.9193 41.4719 34.886 41.4908 34.8588C41.5099 34.8315 41.5336 34.8122 41.562 34.8011C41.5905 34.7899 41.6213 34.7874 41.6545 34.7936C41.6877 34.7998 41.7159 34.8134 41.739 34.8344C41.7622 34.8552 41.7785 34.8819 41.7876 34.9146C41.797 34.9471 41.7984 34.983 41.792 35.0222L41.7891 35.04ZM41.7089 35.0063C41.7158 34.9643 41.7135 34.9311 41.7021 34.9065C41.6907 34.8819 41.6711 34.8669 41.6434 34.8617C41.6159 34.8566 41.5929 34.8634 41.5744 34.8822C41.5559 34.9008 41.5432 34.9309 41.5363 34.9724L41.5331 34.9919C41.5264 35.0328 41.5287 35.0658 41.54 35.0912C41.5513 35.1165 41.571 35.1318 41.599 35.1371C41.6266 35.1423 41.6495 35.1355 41.6678 35.1166C41.6861 35.0976 41.6988 35.0673 41.7057 35.0258L41.7089 35.0063Z" fill="black"/>
<path d="M38.6662 34.2394C38.6716 34.2779 38.6695 34.3126 38.6599 34.3436C38.6504 34.3746 38.634 34.3998 38.6109 34.4193C38.5878 34.4387 38.56 34.4508 38.5272 34.4556C38.4948 34.4603 38.4649 34.4568 38.4373 34.4449C38.4097 34.433 38.3869 34.4137 38.3689 34.3869C38.3509 34.3599 38.3392 34.3277 38.3338 34.2901L38.331 34.2708C38.3257 34.2323 38.3278 34.1974 38.3375 34.1662C38.3473 34.1348 38.3638 34.1095 38.3868 34.0903C38.41 34.0708 38.4379 34.0587 38.4705 34.0539C38.503 34.0492 38.533 34.0529 38.5604 34.0649C38.588 34.0768 38.6107 34.0964 38.6286 34.1238C38.6467 34.1509 38.6584 34.1836 38.6637 34.2219L38.6662 34.2394ZM38.5821 34.2336C38.5764 34.1926 38.5647 34.1625 38.547 34.1433C38.5294 34.1242 38.507 34.1166 38.4798 34.1205C38.4528 34.1245 38.4334 34.1381 38.4217 34.1614C38.41 34.1844 38.4068 34.2163 38.4124 34.257L38.415 34.276C38.4206 34.316 38.4323 34.3459 38.45 34.3658C38.4678 34.3856 38.4904 34.3936 38.518 34.3895C38.545 34.3856 38.5643 34.372 38.5758 34.3488C38.5873 34.3254 38.5903 34.2933 38.5848 34.2526L38.5821 34.2336Z" fill="black"/>
<path d="M36.8794 34.6672L36.7382 34.7194L36.7411 34.8099L36.6554 34.8415L36.6564 34.3968L36.7311 34.3692L37.0219 34.706L36.9363 34.7377L36.8794 34.6672ZM36.7358 34.6461L36.8335 34.61L36.7303 34.4818L36.7358 34.6461Z" fill="black"/>
<path d="M42.6406 35.9827L42.5345 35.8759L42.4534 35.9161L42.3891 35.8513L42.7941 35.6677L42.8502 35.7241L42.6644 36.1285L42.6001 36.0638L42.6406 35.9827ZM42.6002 35.8433L42.6736 35.9173L42.7474 35.7701L42.6002 35.8433Z" fill="black"/>
<path d="M39.82 34.4398L39.6723 34.4101L39.6274 34.4887L39.5378 34.4707L39.772 34.0926L39.85 34.1083L39.9209 34.5476L39.8314 34.5296L39.82 34.4398ZM39.7088 34.3465L39.8109 34.367L39.7903 34.2037L39.7088 34.3465Z" fill="black"/>
<path d="M37.0119 34.2766L37.173 34.5539L37.2218 34.2371L37.3326 34.2163L37.4096 34.6259L37.3249 34.6418L37.3039 34.5299L37.276 34.335L37.2228 34.661L37.1649 34.6719L36.9973 34.3877L37.042 34.5791L37.063 34.6911L36.9786 34.7069L36.9016 34.2973L37.0119 34.2766Z" fill="black"/>
<path d="M37.7102 34.393L37.7254 34.5391L37.64 34.548L37.5969 34.1334L37.7586 34.1166C37.7897 34.1134 37.8177 34.1162 37.8424 34.1251C37.8673 34.1341 37.8872 34.1484 37.9021 34.1681C37.917 34.1877 37.9258 34.2109 37.9286 34.2376C37.9328 34.2782 37.9222 34.3118 37.8968 34.3382C37.8715 34.3644 37.8343 34.3801 37.7851 34.3852L37.7102 34.393ZM37.703 34.3238L37.7793 34.3159C37.8019 34.3135 37.8186 34.3064 37.8292 34.2946C37.8401 34.2827 37.8445 34.2669 37.8424 34.2472C37.8403 34.2269 37.8326 34.2111 37.8193 34.1998C37.8061 34.1885 37.7889 34.1838 37.7678 34.1856L37.6895 34.1937L37.703 34.3238Z" fill="black"/>
<path d="M38.7752 34.3036L38.7789 34.4505L38.6931 34.4526L38.6825 34.036L38.845 34.0318C38.8763 34.031 38.9039 34.0361 38.9279 34.0469C38.952 34.0577 38.9707 34.0736 38.984 34.0944C38.9974 34.1151 39.0044 34.1389 39.0051 34.1658C39.0061 34.2066 38.9929 34.2392 38.9655 34.2636C38.9382 34.2877 38.8999 34.3005 38.8505 34.3017L38.7752 34.3036ZM38.7734 34.2341L38.8501 34.2322C38.8728 34.2316 38.8899 34.2258 38.9015 34.2148C38.9132 34.2038 38.9189 34.1884 38.9184 34.1686C38.9178 34.1481 38.9114 34.1318 38.8991 34.1195C38.8867 34.1072 38.87 34.1012 38.8488 34.1013L38.7701 34.1033L38.7734 34.2341Z" fill="black"/>
<path d="M40.7221 34.6171L40.6498 34.7449L40.575 34.7026L40.7802 34.3398L40.9218 34.4199C40.949 34.4353 40.9701 34.4538 40.9851 34.4754C41.0002 34.4972 41.0081 34.5204 41.0088 34.5451C41.0096 34.5697 41.0034 34.5937 40.9901 34.6171C40.97 34.6526 40.9419 34.6738 40.9058 34.6806C40.87 34.6873 40.8306 34.6785 40.7876 34.6541L40.7221 34.6171ZM40.7563 34.5565L40.8231 34.5943C40.8429 34.6055 40.8605 34.6093 40.8761 34.6059C40.8918 34.6025 40.9046 34.5922 40.9143 34.5749C40.9244 34.5571 40.9273 34.5398 40.923 34.5229C40.9188 34.506 40.9075 34.4922 40.8893 34.4814L40.8207 34.4427L40.7563 34.5565Z" fill="black"/>
<path d="M39.4526 34.4741L39.3673 34.4642L39.4151 34.0502L39.5004 34.06L39.4526 34.4741Z" fill="black"/>
<path d="M43.1247 36.1226L43.0369 36.0299L42.7847 36.2685L42.7257 36.2061L42.9779 35.9675L42.8914 35.876L42.9419 35.8282L43.1752 36.0748L43.1247 36.1226Z" fill="black"/>
<path d="M42.0034 35.1234L41.9012 35.0469L41.6932 35.3249L41.6244 35.2734L41.8325 34.9954L41.7316 34.92L41.7733 34.8643L42.0451 35.0677L42.0034 35.1234Z" fill="black"/>
<path d="M40.1491 34.1777L40.1664 34.4979L40.3539 34.238L40.4621 34.2699L40.3444 34.6697L40.2617 34.6453L40.2939 34.536L40.3577 34.3498L40.162 34.616L40.1055 34.5993L40.0855 34.2699L40.0383 34.4607L40.0061 34.57L39.9237 34.5458L40.0414 34.146L40.1491 34.1777Z" fill="black"/>
<path d="M42.3394 35.7778C42.3153 35.7789 42.29 35.7724 42.2633 35.7585C42.2368 35.7444 42.212 35.7247 42.1889 35.6993C42.1646 35.6727 42.149 35.644 42.1422 35.6133C42.1357 35.5826 42.1385 35.5516 42.1506 35.5204C42.1628 35.4894 42.1838 35.4601 42.2134 35.4326L42.2344 35.4135C42.2651 35.3855 42.2964 35.3664 42.3282 35.3563C42.3603 35.3461 42.3911 35.3454 42.4207 35.3541C42.4506 35.3627 42.4774 35.3802 42.5014 35.4064C42.5346 35.443 42.5519 35.4795 42.5532 35.516C42.5546 35.5524 42.5404 35.5877 42.5106 35.6219L42.4543 35.5601C42.4694 35.5412 42.4765 35.5232 42.4759 35.506C42.4753 35.4889 42.4673 35.4719 42.4519 35.455C42.4322 35.4334 42.4091 35.4244 42.3826 35.4279C42.3561 35.4314 42.3268 35.4476 42.2947 35.4767L42.275 35.4946C42.2427 35.524 42.2239 35.5524 42.2185 35.5797C42.2132 35.607 42.2214 35.6325 42.2429 35.6562C42.2647 35.6801 42.2852 35.6924 42.3046 35.6933L42.3578 35.645L42.3051 35.5872L42.3519 35.5446L42.4624 35.6658L42.3394 35.7778Z" fill="black"/>
<path d="M42.403 24.3013C42.403 24.3013 42.6559 24.0848 42.8359 24.0785" stroke="#FFF700" stroke-width="0.0418751" stroke-linecap="round"/>
<path d="M42.4393 24.2711C42.4452 24.2653 43.9489 24.0546 43.9967 24.0065" stroke="#FFF700" stroke-width="0.0418751" stroke-linecap="round"/>
<path d="M42.4452 24.2833C42.4511 24.277 44.129 24.1388 44.129 24.1388" stroke="#FFF700" stroke-width="0.0418751" stroke-linecap="round"/>
<path d="M42.4393 24.2892C42.4393 24.2892 44.2253 24.205 44.3338 24.2954" stroke="#FFF700" stroke-width="0.0418751" stroke-linecap="round"/>
<path d="M42.4331 24.2833C42.4331 24.2833 44.1835 24.2954 44.2136 24.3373" stroke="#FFF700" stroke-width="0.0418751" stroke-linecap="round"/>
<path d="M42.4393 24.2833L44.1231 24.4215" stroke="#FFF700" stroke-width="0.0418751" stroke-linecap="round"/>
<path d="M42.4214 24.2954C42.4272 24.2954 44.1353 24.4457 44.3037 24.6622" stroke="#FFF700" stroke-width="0.0418751" stroke-linecap="round"/>
<path d="M44.3936 24.9687C44.3878 24.9629 43.8103 24.277 42.415 24.2891" stroke="#FFF700" stroke-width="0.0418751" stroke-linecap="round"/>
<path d="M42.4214 24.3013C42.4214 24.3013 43.3895 24.3674 43.6961 24.7041" stroke="#FFF700" stroke-width="0.0418751" stroke-linecap="round"/>
<path d="M42.4393 24.2891C42.4393 24.2891 43.0645 24.1689 43.7203 24.957" stroke="#FFF700" stroke-width="0.0418751" stroke-linecap="round"/>
<path d="M42.0454 25.0048C42.0454 25.0048 42.9131 25.0391 42.9131 25.1241C42.9131 25.2091 42.2665 25.3707 42.2581 25.7279C42.2498 26.0851 42.7514 26.1107 42.7853 26.5613C42.8193 27.0123 42.3942 27.0801 42.3092 27.1994C42.2238 27.2589 42.0199 27.8967 42.0454 28.271C42.0709 28.6454 42.1815 29.9125 42.3771 30.168C42.5303 30.2869 42.7598 30.6696 43.0064 30.5507C43.2531 30.4314 43.0831 29.998 43.0575 29.8786C43.032 29.7597 43.1597 29.5641 43.1597 29.3853C43.1597 29.2065 43.0659 29.062 43.0747 29.0197C43.0831 28.977 43.7635 29.1814 43.7208 29.8531C43.6785 30.5252 43.4063 30.3208 43.4063 30.3208C43.4063 30.3208 43.4914 31.1462 43.2786 31.2567C42.8959 31.4606 42.6153 31.214 42.6153 31.214L42.6513 31.3819L42.3603 31.2312C42.3603 31.2312 41.9859 30.6952 41.9009 30.4569C41.8159 30.2191 41.7138 29.1558 41.7477 28.9259C41.7816 28.6965 41.8071 27.3523 41.7904 27.2844C41.7732 27.2162 41.7054 26.0935 41.7477 25.9235C41.7904 25.7535 42.0538 25.0048 42.0454 25.0048V25.0048Z" fill="url(#paint2_linear_1_36037)" stroke="black" stroke-width="0.0418751"/>
<path d="M41.1099 24.7837C41.1099 24.7837 41.7137 24.197 42.0625 24.2649C42.2409 24.2649 42.0709 24.3926 42.0709 24.3926C42.0709 24.3926 42.377 24.4181 42.4197 24.5542C42.4281 24.6137 42.2748 24.6308 42.2748 24.6308C42.2748 24.6308 42.4025 24.6564 42.4109 24.7669C42.4197 24.8775 41.1182 24.7921 41.1099 24.7837V24.7837Z" fill="#FF7000" stroke="black" stroke-width="0.0418751"/>
<path d="M41.1438 24.7581C41.1438 24.7581 41.7904 24.6731 42.0625 24.4009" stroke="black" stroke-width="0.0418751"/>
<path d="M41.7987 24.5797C41.7987 24.5797 42.2748 24.5626 42.2748 24.6308" stroke="black" stroke-width="0.0418751"/>
<path d="M43.4913 31.5373C43.4913 31.5373 43.8996 31.4435 44.0102 31.299C44.0784 31.2479 44.4356 31.835 43.4913 31.5373Z" fill="white" stroke="black" stroke-width="0.0523439" stroke-linejoin="round"/>
<path d="M43.3807 28.1605C43.3807 28.1605 43.4318 28.4754 43.2874 28.6877C43.2107 28.7727 42.9808 28.9176 42.9808 29.0198C42.9808 29.1216 43.0658 29.2577 43.0491 29.377C43.0319 29.4959 42.9046 29.6153 42.913 29.717C42.913 29.8192 43.0575 30.3636 43.0403 30.3719" stroke="white" stroke-width="0.0523439" stroke-linecap="round"/>
<path d="M42.6325 27.14C42.6325 27.14 42.3092 27.2506 42.241 27.5738" stroke="white" stroke-width="0.0523439" stroke-linecap="round"/>
<path d="M42.496 24.5798C42.496 24.5798 42.6069 24.8859 42.9641 24.5965C42.7342 24.282 42.496 24.5882 42.496 24.5798Z" fill="#C75B00" stroke="black" stroke-width="0.0418751"/>
<path d="M42.7599 24.5669C42.7599 24.5833 42.7428 24.5967 42.7216 24.5967C42.7005 24.5967 42.6833 24.5833 42.6833 24.5669C42.6833 24.5504 42.7005 24.5371 42.7216 24.5371C42.7428 24.5371 42.7599 24.5504 42.7599 24.5669Z" fill="black"/>
<path d="M39.5751 23.8691C39.5751 23.8691 40.2527 24.6024 40.6911 24.5944C40.7707 24.8097 40.4918 25.0098 40.3804 25.1053C40.1572 25.0337 39.9554 25.1183 39.4374 24.4809C39.4696 24.0743 39.5831 23.8851 39.5751 23.8691Z" fill="white" stroke="black" stroke-width="0.0418751"/>
<path d="M40.4918 22.1635C40.5793 21.8926 40.7548 21.6774 40.906 21.6535C40.8662 21.4462 41.2251 20.53 42.269 20.1791C42.3327 20.6493 41.8226 21.1116 41.8226 21.1116C41.8226 21.1116 43.3607 20.8487 43.6714 20.458C43.6396 20.6334 43.3289 21.7251 41.6869 21.7172C42.3088 22.3072 41.488 22.7774 41.1371 22.6338C41.7828 22.1397 40.9541 21.8449 40.4918 22.1635V22.1635Z" fill="white" stroke="black" stroke-width="0.0418751"/>
<path d="M41.0177 21.7812C41.3284 21.5819 41.4398 21.5819 41.6952 21.6217C41.5118 21.6455 41.5118 21.6535 41.5118 21.6535C41.5118 21.6535 41.4959 21.6774 41.6073 21.7812C41.48 21.749 41.3682 21.6774 41.0177 21.7812Z" fill="#CCCCCD" stroke="#CCCCCC" stroke-width="0.0418751"/>
<path d="M40.8979 21.6535C40.8979 21.6535 41.5118 21.3269 41.8544 21.1037" stroke="black" stroke-width="0.0418751"/>
<path d="M40.372 25.1045C40.372 25.1045 41.2171 25.3356 41.3125 24.1242C41.1291 23.5982 40.8741 22.4663 41.2648 22.1397C40.9059 21.8926 40.5156 22.1477 40.5156 22.1477C40.4918 22.2034 40.1727 22.6577 40.6032 23.4546C39.5831 23.1836 39.9976 24.148 39.9976 24.148C40.0374 23.9964 40.5793 23.8532 40.715 24.6262C40.7707 24.8176 40.3481 25.1124 40.372 25.1045V25.1045Z" fill="#0000FF" stroke="black" stroke-width="0.0418751"/>
<path d="M41.3204 24.1321C41.3204 24.1321 42.2132 23.6539 42.1889 22.5304C41.4318 22.5463 41.1609 23.5262 41.1609 23.5262L41.3204 24.1321Z" fill="#0000FF" stroke="black" stroke-width="0.0418751"/>
<path d="M37.3197 24.0764C37.3197 24.0764 36.6585 24.6501 36.2837 24.4667C36.0048 24.6342 35.6781 24.3394 35.6781 24.3394C35.6781 24.3394 36.0605 25.7497 37.4315 24.7297C37.4076 24.419 37.3356 24.1003 37.3197 24.0764V24.0764Z" fill="white" stroke="black" stroke-width="0.0418751"/>
<path d="M36.2758 24.4428C36.3315 24.148 36.5626 24.0044 36.746 24.2833C36.9931 24.3314 37.2401 23.3193 36.3633 23.4864C36.6103 22.1636 35.8694 21.6694 35.8694 21.6694C35.8694 21.6694 35.6064 23.1359 35.7259 23.4068C35.8455 23.6778 35.5506 22.9047 34.6022 22.6895C34.5863 23.7975 35.6622 24.3155 35.6622 24.3155C35.6622 24.3155 35.9651 24.5944 36.2758 24.4428V24.4428Z" fill="#0000FF" stroke="black" stroke-width="0.0418751"/>
<path d="M36.3634 23.4785C36.3634 23.4785 35.9492 23.8294 36.0447 24.3076" stroke="black" stroke-width="0.0418751"/>
<path d="M35.734 23.4307C35.734 23.4307 35.6383 23.7732 35.8455 24.2594" stroke="black" stroke-width="0.0418751"/>
<path d="M35.6702 24.3712C35.6702 24.3712 35.8615 24.0605 36.2758 24.4587" stroke="black" stroke-width="0.0418751"/>
<path d="M35.7499 22.2193C35.7499 22.2113 35.1203 22.2193 35.4949 22.857C35.2159 22.9445 34.5944 22.5384 35.0247 21.9961C33.6141 21.9642 33.0403 21.2871 33.0403 20.6653C33.4547 21.0958 34.4429 20.9203 34.7936 21.1833C34.3632 20.785 34.4509 20.2348 34.4509 20.2348C34.4509 20.2348 35.6543 20.5937 35.8694 21.6615C35.7977 21.8688 35.7659 22.2352 35.7499 22.2193V22.2193Z" fill="white" stroke="black" stroke-width="0.0418751"/>
<path d="M34.7817 21.1556C35.014 21.3918 35.6107 21.4626 35.9135 21.7256" stroke="black" stroke-width="0.0418751"/>
<path d="M35.0565 21.8528C35.0565 21.8528 35.5505 21.7892 35.6937 21.9642C35.5004 21.9642 35.4359 21.9165 35.1568 22.0203C35.2355 21.9801 35.214 21.9085 35.257 21.9085C35.2999 21.9085 35.078 21.8528 35.0565 21.8528V21.8528Z" fill="#CCCCCD" stroke="#CCCCCC" stroke-width="0.0396897"/>
<path d="M37.5191 17.9876C37.5191 17.9876 37.79 17.7485 38.0848 17.9637C37.9516 18.3618 37.4713 18.2107 37.4713 18.2107C37.4713 18.2107 37.4872 18.41 37.4395 18.5056C37.5354 18.5779 37.6145 18.8164 37.6145 18.8164C37.6145 18.8164 38.1087 18.6969 38.2125 18.9121C38.4018 18.8859 38.5391 18.9121 38.5391 18.9121C38.5391 18.9121 38.9219 18.8164 39.0571 18.8164C39.1928 18.8164 39.6229 18.928 39.6626 19.0077C39.7028 19.0874 39.8461 19.6214 39.942 19.6134C40.0374 19.6054 39.7108 19.7409 39.6229 19.6054C39.5353 19.4699 39.5592 19.7807 39.5592 19.7807C39.5592 19.7807 39.8301 20.0676 39.862 20.1313C39.8938 20.195 39.6949 20.713 39.8461 21.0719C39.7133 21.084 39.7028 21.223 39.7028 21.223C39.6953 21.3809 39.4956 21.4224 39.4956 21.4224L39.4478 21.2071L39.3122 21.2871L39.3678 21.1196C39.3678 21.1196 39.5513 20.6732 39.5672 20.53C39.5831 20.3864 39.3997 20.1313 39.2565 20.1313C39.1128 20.1313 39.0094 20.5857 39.0094 20.5857C39.0094 20.5857 38.9378 20.9282 38.9617 20.9601C38.9855 20.9919 38.8658 20.8487 38.8658 20.8487C38.8658 20.8487 38.8021 21.056 38.7544 21.1196C38.7066 21.1833 38.6028 21.2071 38.6028 21.2071C38.6028 21.2071 38.5312 20.9998 38.555 20.9203C38.5789 20.8407 38.9457 20.53 38.9139 20.3068C38.8817 20.0836 38.9139 20.1393 38.9055 20.1313C38.8976 20.1234 38.7146 19.964 38.7066 19.8764C38.6987 19.7887 38.4675 19.9879 38.1648 19.9242C38.0718 20.0861 38.0609 20.4898 38.0609 20.4898C38.0609 20.4898 38.0291 20.976 38.0927 21.0321C38.1568 21.0878 37.9336 21.2071 37.9336 21.2071L37.7741 21.4224C37.7741 21.4224 37.7184 21.2871 37.7184 21.2951C37.7184 21.303 37.6066 21.3746 37.6066 21.3746L37.6706 21.2151C37.6665 21.0945 37.8256 20.7649 37.8256 20.486C37.8256 20.2071 37.8457 19.9082 37.8457 19.9082C37.8457 19.9082 37.5509 19.8923 37.5588 20.195C37.5668 20.4982 37.4872 20.5141 37.5031 20.6016C37.5191 20.6891 37.5986 20.9362 37.5748 21.0082C37.5509 21.0798 37.4554 21.1037 37.4554 21.1037L37.4315 21.1435C37.4315 21.1435 37.1367 21.2791 37.1447 21.3348C37.1526 21.3905 37.1367 21.1753 37.1367 21.1753L37.1204 20.9441C37.1204 20.9441 37.2959 20.8328 37.2959 20.5539C37.2959 20.275 37.2557 20.2352 37.2636 20.1715C37.2716 20.1075 37.3118 19.8763 37.3038 19.8525C37.2959 19.8286 37.1367 19.9162 37.0886 19.9162C37.0408 19.9162 37.1765 19.7489 37.1924 19.6293C37.2083 19.5098 37.0329 19.7409 36.8897 19.6054C36.9563 19.4582 37.0568 19.4141 37.0727 19.3026C37.0886 19.191 36.9613 19.3982 36.8495 19.3185C36.8587 19.2116 36.9692 19.1193 36.9692 19.1193C36.9692 19.1193 36.8784 19.1081 36.8415 19.1193C36.7699 19.0954 36.9215 18.9838 36.9295 18.8244C36.9374 18.665 36.8415 18.6012 36.8415 18.5933C36.8415 18.5853 36.6824 18.4498 36.6585 18.394C36.6347 18.3383 36.6347 18.2745 36.6347 18.2745C36.6347 18.2745 36.3713 18.4658 36.0605 18.0593C36.3453 17.8163 36.6506 17.9956 36.6506 17.9956C36.6506 17.9956 36.7301 17.7724 37.0965 17.7884C37.4634 17.8043 37.535 18.0115 37.5191 17.9876V17.9876Z" fill="#923F00" stroke="black" stroke-width="0.0418751"/>
<path d="M39.524 22.11C39.5303 22.11 40.2007 22.1301 40.2074 22.4885C40.2141 22.8466 40.0018 22.754 39.9951 22.754C39.9884 22.754 39.5039 22.6941 39.5039 22.6941L39.524 22.11Z" fill="#0000FF" stroke="black" stroke-width="0.0418751"/>
<path d="M38.8733 22.0103C38.8733 22.0103 39.7095 22.004 39.6631 22.3688C39.6166 22.7339 39.4043 22.6611 39.4043 22.6611L38.9993 22.6276L38.8733 22.0103V22.0103Z" fill="#FFFEFF" stroke="black" stroke-width="0.0418751"/>
<path d="M38.4022 21.9705L38.8867 22.0103C38.8867 22.0103 39.1786 22.0501 39.1656 22.329C39.1522 22.6079 38.8666 22.6146 38.8666 22.6146L38.3955 22.5878L38.4022 21.9705Z" fill="#0000FF" stroke="black" stroke-width="0.0418751"/>
<path d="M37.2675 22.11C37.2608 22.11 36.5903 22.1301 36.5836 22.4885C36.5774 22.8466 36.7897 22.754 36.7964 22.754C36.8031 22.754 37.2876 22.6941 37.2876 22.6941L37.2675 22.11Z" fill="white" stroke="black" stroke-width="0.0418751"/>
<path d="M37.9177 22.0103C37.9177 22.0103 37.0815 22.004 37.128 22.3688C37.1744 22.7339 37.3868 22.6611 37.3868 22.6611L37.7917 22.6276L37.9177 22.0103V22.0103Z" fill="#0000FF" stroke="black" stroke-width="0.0418751"/>
<path d="M38.3892 21.9705L37.9047 22.0103C37.9047 22.0103 37.6124 22.0501 37.6258 22.329C37.6392 22.6079 37.9244 22.6146 37.9244 22.6146L38.3955 22.5878L38.3892 21.9705Z" fill="white" stroke="black" stroke-width="0.0418751"/>
<path d="M39.6865 26.0002C39.6865 26.0002 40.0349 25.4868 40.1819 25.5416C40.31 25.5844 40.2125 25.9817 40.1513 26.0186L39.6865 26.0002V26.0002Z" fill="#5E0043" stroke="black" stroke-width="0.0418751"/>
<path d="M37.2984 26.0919C37.1887 25.939 37.0296 25.5173 36.883 25.6333C36.7544 25.676 36.8524 26.0734 36.9136 26.1103L37.2984 26.0919Z" fill="#5E0043" stroke="black" stroke-width="0.0418751"/>
<path d="M37.5292 25.0764C37.5292 25.0764 38.208 25.4947 38.4307 25.5056C38.6535 25.5165 39.3595 24.9625 39.3595 24.9625" stroke="black" stroke-width="0.0418751"/>
<path d="M37.5945 23.4366L37.7247 23.2737L38.3767 23.6049L39.0392 23.3114L39.1694 23.4475L38.4307 23.9688L37.5945 23.4366V23.4366Z" fill="#5E0043" stroke="black" stroke-width="0.0418751"/>
<path d="M37.0768 23.4278C37.1296 23.4943 37.5509 24.0065 37.6271 24.4302C37.7029 24.854 37.5835 23.849 37.5835 23.849C37.5835 23.849 38.1049 24.1045 38.1212 24.2673C38.1375 24.4302 38.3704 24.2565 38.3817 24.2284L36.8721 23.2481L37.0768 23.4278Z" fill="#474747" stroke="#474747" stroke-width="0.0523439" stroke-linejoin="round"/>
<path d="M39.6526 23.3984C39.6526 23.3984 39.104 24.1208 39.1694 24.908C39.0563 24.5312 39.1476 23.9089 39.1476 23.9089L39.0282 23.9851C39.0282 23.9851 38.9035 24.5173 38.7456 24.5986C38.7192 24.5353 38.7242 24.5119 38.7242 24.5119C38.7242 24.5119 38.5559 24.7288 38.5232 24.7506C38.4906 24.7724 38.5341 25.4838 38.5341 25.4838C38.5341 25.4838 38.5906 25.9997 38.6556 25.9943C38.5814 26.0303 38.4906 26.0868 38.4906 26.0868L38.4231 24.71L38.5772 24.555C38.5772 24.555 38.7837 24.3055 38.8 24.0609C38.7104 24.1371 38.6099 24.1589 38.6099 24.1589C38.6099 24.1589 38.5827 24.5065 38.5015 24.555C38.4198 24.604 38.4177 24.6949 38.4177 24.6949L38.3984 24.2405L39.6526 23.3984V23.3984Z" fill="#474747" stroke="#474747" stroke-width="0.0523439" stroke-linejoin="round"/>
<path d="M38.3981 24.2347L38.5044 26.4067" stroke="black" stroke-width="0.0523439" stroke-linecap="round"/>
<path d="M37.0623 25.272C37.0623 25.272 37.3118 25.419 37.4044 25.8641C38.2188 25.8042 38.4743 26.0923 38.4743 26.0923C38.4743 26.0923 39.1422 25.772 39.4521 25.8314C39.5605 25.6036 39.87 25.3101 39.87 25.3101" stroke="black" stroke-width="0.0418751"/>
<path d="M36.7214 23.143L38.398 24.2401L39.908 23.2247C39.908 23.2247 40.2229 23.0509 40.1957 22.9261C40.1689 22.8009 40.0601 22.8499 40.0056 22.8717C39.9516 22.8934 38.4253 23.9742 38.4253 23.9742L36.8013 22.9475C36.8013 22.9475 36.682 22.9098 36.6602 22.9856C36.6384 23.0618 36.705 23.1049 36.7214 23.143V23.143Z" fill="#B4B6B9" stroke="black" stroke-width="0.0418751"/>
<path d="M39.72 22.8582C39.72 22.8582 39.2908 22.6761 39.2908 22.8339C39.2908 22.9914 39.3029 23.0077 39.372 23.1091C39.4407 23.21 39.3192 23.2749 39.3192 23.2749C39.3192 23.2749 39.3029 23.2305 39.2786 23.1614C39.2543 23.0927 39.0236 23.0442 39.0035 22.9633C38.9834 22.8821 39.0521 22.7527 38.9143 22.7368C38.7769 22.7205 38.6434 22.7933 38.6149 22.9512C38.5864 23.1091 38.4084 23.4772 38.4084 23.4772L38.4327 22.6396C38.7351 22.661 39.2962 22.7272 39.7279 22.777C39.5985 22.7569 39.7765 22.7854 39.7727 22.8298C39.7606 22.8662 39.7158 22.87 39.72 22.8582V22.8582Z" fill="#474747" stroke="#474747" stroke-width="0.0523439" stroke-linejoin="round"/>
<path d="M38.2021 22.6476C38.1255 22.6476 37.7406 22.692 37.6435 22.749C37.5463 22.8055 37.8013 22.8943 37.7691 22.9713C37.7369 23.0484 37.7327 23.2021 37.6112 23.1698C37.4898 23.1372 37.0811 22.9349 37.069 22.8662C37.0568 22.7976 36.9718 22.7934 36.9718 22.7934C36.9718 22.7934 38.1456 22.6355 38.2021 22.6476Z" fill="#474747" stroke="#474747" stroke-width="0.0523439" stroke-linejoin="round"/>
<path d="M38.3871 22.5513L38.3842 23.5806" stroke="black" stroke-width="0.0418751"/>
<path d="M37.5945 21.3386C37.5945 21.3386 37.1242 22.102 37.115 22.1255" stroke="black" stroke-width="0.0418751"/>
<path d="M38.4608 21.3198C38.4608 21.3198 38.6656 21.5991 38.6421 21.6782C38.7259 21.7435 38.8193 22.0044 38.8193 22.0044" fill="url(#paint3_linear_1_36037)"/>
<path d="M38.4608 21.3198C38.4608 21.3198 38.6656 21.5991 38.6421 21.6782C38.7259 21.7435 38.8193 22.0044 38.8193 22.0044" stroke="black" stroke-width="0.0418751"/>
<path d="M39.2523 21.2733C39.2523 21.2733 38.8101 21.8973 38.8239 21.9437" stroke="black" stroke-width="0.0418751"/>
<path d="M36.9865 18.3064C36.9764 18.3413 36.9201 18.3548 36.8606 18.3366C36.801 18.3184 36.7609 18.2753 36.7709 18.2404C36.7809 18.2055 36.8373 18.192 36.8968 18.2102C36.9563 18.2285 36.9965 18.2715 36.9865 18.3064Z" fill="black"/>
<path d="M37.1652 18.2942C37.1752 18.329 37.2315 18.3426 37.2911 18.3243C37.3506 18.3061 37.3907 18.263 37.3807 18.2282C37.3707 18.1933 37.3143 18.1798 37.2548 18.198C37.1953 18.2162 37.1551 18.2593 37.1652 18.2942Z" fill="black"/>
<path d="M42.3423 31.2186C42.3423 31.2186 42.1781 31.2496 42.1835 31.2647C42.1886 31.2802 41.7066 31.2957 41.6965 31.2802C41.6861 31.2647 41.6245 31.3623 41.6245 31.3623L41.7016 31.3162C41.7016 31.3162 41.8192 31.4389 41.8552 31.4288C41.8913 31.4188 41.8397 31.4749 41.8502 31.4854C41.8603 31.4954 41.8963 31.4649 41.8963 31.4649L42.6927 31.4515L42.3423 31.2186Z" fill="#FF7000" stroke="black" stroke-width="0.0418751" stroke-linejoin="round"/>
<path d="M42.6391 31.4665L41.9884 31.4853C41.9884 31.4853 41.8247 31.634 41.8142 31.6696C41.8042 31.7056 41.9218 31.7157 41.9218 31.7157L41.9578 31.8388L42.0399 31.8082C42.0399 31.8082 42.5931 31.8903 43.101 31.7772C43.3573 31.6876 43.4021 31.58 43.2225 31.5147C43.0432 31.4493 42.6442 31.469 42.6391 31.4665Z" fill="#FF7000" stroke="black" stroke-width="0.0523439" stroke-linejoin="round"/>
<path d="M40.4109 32.8015L41.5822 32.7492L41.364 32.5641L44.5319 32.4364L44.4226 32.1847L40.8758 32.3271L41.3025 32.5264L40.3444 32.5549L40.3728 32.6545L40.1216 32.6449C40.1216 32.6449 40.4013 32.7538 40.4109 32.8015V32.8015Z" fill="url(#paint4_linear_1_36037)" stroke="black" stroke-width="0.0418751"/>
<path d="M41.7241 26.3314C41.6308 26.2849 41.2216 26.2292 40.7656 26.527L40.7845 27.5784C40.7845 27.5784 41.4541 27.2154 41.7798 27.2991C41.761 26.9733 41.761 26.555 41.7241 26.3314V26.3314Z" fill="url(#paint5_linear_1_36037)" stroke="black" stroke-width="0.0418751"/>
<path d="M35.2479 29.5236L32.486 32.2656" stroke="black" stroke-width="0.0418751"/>
<path d="M36.4788 29.5437L34.2372 32.4959" stroke="black" stroke-width="0.0418751"/>
<path d="M36.3788 28.7732L33.3866 32.3958" stroke="black" stroke-width="0.0418751"/>
<path d="M33.2965 32.3456L33.5867 32.0056" stroke="black" stroke-width="0.0418751"/>
<path d="M36.9491 30.5944L35.7882 32.1957" stroke="black" stroke-width="0.0418751"/>
<path d="M35.7382 32.4059L35.7682 33.016" stroke="black" stroke-width="0.0418751"/>
<path d="M37.4792 31.1547L36.2485 32.6961" stroke="black" stroke-width="0.0418751"/>
<path d="M37.2594 32.5759L37.7598 31.7551" stroke="black" stroke-width="0.0418751"/>
<path d="M37.4495 31.5952L36.849 32.2756" stroke="black" stroke-width="0.0418751"/>
<path d="M37.2694 30.9549L36.859 31.4549" stroke="black" stroke-width="0.0418751"/>
<path d="M36.7389 30.2242C36.7389 30.2242 35.488 32.0554 35.5081 32.2057" stroke="black" stroke-width="0.0418751"/>
<path d="M36.6087 29.9843C36.5789 30.0039 35.5281 31.395 35.5281 31.395" stroke="black" stroke-width="0.0418751"/>
<path d="M35.468 31.8351L35.2778 32.0654" stroke="black" stroke-width="0.0418751"/>
<path d="M35.0378 32.4159L34.7476 32.7961" stroke="black" stroke-width="0.0418751"/>
<path d="M35.1113 25.3088C35.1113 25.3088 35.0265 25.5751 35.1113 25.7083C35.196 25.8414 35.7287 26.9189 35.7287 26.9189C35.7287 26.9189 36.092 26.4708 36.2251 26.4587C36.3583 26.447 36.2976 27.6211 36.2976 27.6211C36.2976 27.6211 36.0798 27.8267 35.9467 27.8146C35.8134 27.8025 36.2733 28.2748 36.2611 28.6743C36.249 29.0738 35.656 31.0591 35.4381 31.0951C35.2202 31.1315 35.535 30.732 35.5229 30.6232C35.5108 30.5143 35.4502 30.5867 35.4018 30.4657C35.3534 30.3447 35.4745 30.163 35.4502 30.0419C35.426 29.9209 35.3171 29.9452 35.305 29.8606C35.2929 29.7756 35.3776 29.7517 35.3655 29.6546C35.3534 29.5579 35.2202 29.5821 35.2324 29.4971C35.2445 29.4126 35.2566 29.449 35.2445 29.2915C35.2324 29.1341 35.2081 29.4004 35.075 29.4126C34.9418 29.4247 34.8329 29.7275 34.8329 29.7275C34.8329 29.7275 34.5665 30.1027 34.3002 29.9331C34.4576 30.2722 34.3366 30.4176 34.276 30.4293C34.2155 30.4414 34.3244 30.6956 34.1791 30.7077C34.0339 30.7199 34.2881 31.2768 34.1186 31.3254C34.3002 31.41 34.1549 31.5189 34.1549 31.5189C34.1549 31.5189 33.7354 31.554 33.8281 32.1001C32.5933 31.6642 31.9881 30.9138 32.0002 30.1512C32.0123 29.3883 32.2544 28.6986 32.8476 28.4444C33.017 27.8146 33.3076 27.1366 33.3076 27.1366C33.3076 27.1366 33.2592 26.8582 33.2955 26.6769C33.3318 26.4951 33.5013 26.3138 33.5013 26.3138C33.5013 26.3138 33.477 25.8779 33.4892 25.6601C33.5013 25.442 33.586 25.3452 33.5981 25.2242C33.6102 25.1032 33.5618 24.4855 33.6828 24.3767C33.8039 24.2678 34.0339 24.2799 34.1549 24.2075C34.276 24.1346 34.4334 24.0015 34.5907 24.0136C34.7481 24.0257 34.8813 24.1346 34.8813 24.1346C34.8813 24.1346 35.4745 24.1346 35.5108 24.3645C35.5471 24.5948 35.3897 24.6794 35.3897 24.6794C35.3897 24.6794 35.4745 25.0065 35.1113 25.3088Z" fill="#8A9396" stroke="#2B2B2B" stroke-width="0.0418751"/>
<path d="M34.5846 24.4701C34.6036 24.5052 34.5603 24.5654 34.4879 24.6046C34.4156 24.6438 34.3415 24.6471 34.3225 24.612C34.3035 24.5769 34.3468 24.5167 34.4191 24.4775C34.4915 24.4383 34.5656 24.435 34.5846 24.4701Z" fill="#CECFCF" stroke="#2B2B2B" stroke-width="0.0418751"/>
<path d="M34.4841 24.5313C34.4841 24.5534 34.464 24.5714 34.4391 24.5714C34.4143 24.5714 34.3942 24.5534 34.3942 24.5313C34.3942 24.5092 34.4143 24.4912 34.4391 24.4912C34.464 24.4912 34.4841 24.5092 34.4841 24.5313Z" fill="black"/>
<path d="M35.3692 24.9319C35.3692 24.9319 35.5162 25.5885 35.3405 26.0416" stroke="#2B2B2B" stroke-width="0.026172"/>
<path d="M35.4144 24.6447C35.4144 24.6447 35.7013 25.024 35.6643 25.496" stroke="#2B2B2B" stroke-width="0.026172"/>
<path d="M35.4423 24.5613C35.4515 24.5613 35.6828 24.7649 35.6736 24.9035" stroke="#2B2B2B" stroke-width="0.026172"/>
<path d="M35.4978 24.478C35.4978 24.478 35.6551 24.5889 35.6921 24.6999" stroke="#2B2B2B" stroke-width="0.026172"/>
<path d="M35.4237 24.4131C35.4237 24.4131 34.8593 25.3293 34.9333 25.903" stroke="black" stroke-width="0.0418751"/>
<path d="M35.4607 24.3854C35.4607 24.3854 34.7112 24.8297 34.5724 26.2824" stroke="#2B2B2B" stroke-width="0.026172"/>
<path d="M35.3774 24.6539L35.0813 24.8758" stroke="black" stroke-width="0.0418751"/>
<path d="M34.2948 26.3657C34.2948 26.3657 34.7112 24.6354 35.4514 24.3854" stroke="#2B2B2B" stroke-width="0.026172"/>
<path d="M35.7383 26.9486C35.7383 26.9486 36.1363 26.4491 36.2289 26.4675C36.3214 26.4859 36.2934 27.6241 36.2934 27.6241C36.2934 27.6241 35.9973 27.846 35.9328 27.8368C35.8679 27.8276 36.2657 28.3736 36.2565 28.5771C36.2473 28.7807 36.2381 28.7807 36.2381 28.7807C36.2381 28.7807 36.2381 28.6605 36.1456 28.4662C36.053 28.2719 36.1083 28.0495 35.507 27.5592C35.3589 27.2539 35.8031 27.7443 35.8956 27.6701C35.9881 27.5964 35.7291 26.9578 35.7383 26.9486V26.9486Z" fill="#2B2B2B" stroke="#2B2B2B" stroke-width="0.0418751"/>
<path d="M35.0309 24.1346C35.0309 24.1346 34.8637 24.1803 34.8409 24.2485C34.8181 24.3172 34.7192 24.3855 34.666 24.3624C34.6128 24.3398 34.5139 24.2561 34.5139 24.2561" stroke="#2B2B2B" stroke-width="0.0418751"/>
<path d="M34.0805 24.72C34.0805 24.72 33.8296 24.9709 33.9513 25.0014C34.0729 25.0316 34.2022 24.8038 34.2022 24.8038C34.2022 24.8038 34.2022 25.1915 34.3086 25.1304C34.4151 25.0697 34.7268 24.8494 34.7268 24.8494C34.7268 24.8494 34.8332 24.8415 34.8561 24.8494C34.8789 24.857 35.145 25.0848 35.3199 25.0014C35.221 25.2598 35.107 25.2904 35.107 25.2904C35.107 25.2904 34.9245 25.5261 34.6888 25.4725C34.4531 25.4193 34.3922 25.3205 34.3922 25.3205C34.3922 25.3205 34.1945 25.336 34.1337 25.2447C34.0729 25.1534 34.0501 25.1003 34.0501 25.1003C34.0501 25.1003 33.9361 25.2142 33.9056 25.161C33.8752 25.1078 33.9056 24.7958 34.0805 24.72V24.72Z" fill="#2B2B2B" stroke="#2B2B2B" stroke-width="0.0523439" stroke-linejoin="round"/>
<path d="M35.5024 24.3704C35.5024 24.3704 35.0386 24.2335 34.8789 24.4617C34.7193 24.6895 34.7573 24.8189 34.8409 24.8415" stroke="#2B2B2B" stroke-width="0.0418751"/>
<path d="M35.5739 24.3574C35.5739 24.4121 35.5348 24.4564 35.4865 24.4564C35.4382 24.4564 35.399 24.4121 35.399 24.3574C35.399 24.3027 35.4382 24.2584 35.4865 24.2584C35.5348 24.2584 35.5739 24.3027 35.5739 24.3574Z" fill="black"/>
<path d="M34.2241 25.5408C34.2241 25.5408 34.4133 25.8318 34.6388 25.9118C34.8643 25.9918 34.4824 26.0609 34.2569 25.9084C34.0932 25.6865 34.1369 25.5265 34.1369 25.5265C34.1369 25.5265 34.1805 25.4826 34.2241 25.5408V25.5408Z" fill="#2B2B2B" stroke="#2B2B2B" stroke-width="0.0418751"/>
<path d="M35.8426 27.2577C35.8426 27.2577 35.3116 26.5194 35.1588 26.4792C35.0061 26.4394 35.2752 26.4068 35.4389 26.563C35.6025 26.7191 35.3953 26.3083 35.3953 26.3083L35.8426 27.2577Z" fill="#2B2B2B" stroke="#2B2B2B" stroke-width="0.0418751"/>
<path d="M34.1732 31.5239C34.3769 31.4695 35.2643 32.0331 35.4643 32.1751C35.6644 32.3166 36.0828 32.2257 36.0828 32.2257C36.0828 32.2257 35.8897 32.3421 35.7699 32.3714C35.6499 32.4003 36.1263 32.4003 36.1263 32.4003C36.1263 32.4003 34.9915 32.7131 33.8386 32.106C33.7331 31.6332 34.0859 31.5277 34.1732 31.5239V31.5239Z" fill="#2B2B2B" stroke="#2B2B2B" stroke-width="0.0523439" stroke-linejoin="round"/>
<path d="M35.4716 27.4394C35.4716 27.4394 35.3225 27.4105 35.2461 27.323C35.1698 27.2359 35.0606 27.021 34.9479 26.9302C34.8351 26.8393 34.2714 26.5303 34.0677 26.552C33.8641 26.5738 33.8022 26.5303 33.7767 26.5047C33.7513 26.4792 33.6677 26.5156 33.6822 26.6211C33.6968 26.7267 33.5258 26.9595 33.5876 27.0684C33.6494 27.1777 33.9404 27.6211 33.9986 27.6358C34.0568 27.6504 34.0205 27.8941 34.0205 27.8941C34.0205 27.8941 34.2787 28.1559 34.3442 28.1705C34.4096 28.1852 34.4751 28.2325 34.4678 28.294C34.4605 28.356 34.1841 28.6944 34.1841 28.6944C34.1841 28.6944 33.8859 28.8506 33.8822 28.9381C33.8786 29.0252 33.955 29.2069 34.1914 29.2651C34.4278 29.3233 35.0643 29.276 35.097 29.2216C35.1297 29.1671 35.1806 28.8397 35.1588 28.807C35.137 28.7744 34.9806 28.6759 34.9006 28.6906C34.8206 28.7053 34.7479 28.7706 34.7551 28.7852C34.7624 28.7999 34.6424 28.8615 34.6424 28.8032C34.6424 28.745 34.8788 28.4833 34.9006 28.5051C34.9224 28.5269 35.257 28.5595 35.3189 28.727C35.3807 28.8941 35.3807 29.0143 35.5553 28.9963C35.7298 28.9779 35.9735 28.8179 35.9952 28.4833C36.017 28.1487 35.799 27.923 35.7444 27.8904C35.6898 27.8577 35.508 27.7484 35.4935 27.6977C35.4789 27.6467 35.4425 27.4796 35.4716 27.4394V27.4394Z" fill="#2B2B2B" stroke="#2B2B2B" stroke-width="0.0418751"/>
<path d="M32.3256 28.9163C32.3256 28.9163 32.8893 28.7706 33.0348 28.7744C33.1803 28.7777 33.7295 29.0323 33.8895 29.1889C34.0495 29.3451 34.3768 29.7161 34.5915 29.6835C34.806 29.6508 34.8679 29.6073 34.8679 29.6073L34.7842 29.7672C34.7842 29.7672 34.6096 29.8145 34.5224 29.7928C34.4351 29.771 34.2641 29.7161 34.0932 29.5491C33.9222 29.3816 33.3949 28.9306 32.9475 28.9632C32.5001 28.9963 32.2419 29.4364 32.2419 29.4364C32.2419 29.4364 32.2456 29.2216 32.2637 29.1743C32.2819 29.127 32.1692 29.276 32.1692 29.276L32.3256 28.9163V28.9163Z" fill="#2B2B2B" stroke="#2B2B2B" stroke-width="0.0418751"/>
<path d="M34.4023 29.3527C34.4059 29.356 34.5441 29.3924 34.7769 29.3924C35.0097 29.3924 35.1333 29.2907 35.1333 29.2907L35.1188 29.1998L35.1551 29.0725C35.1551 29.0725 35.3334 29.2542 35.3297 29.2907C35.3261 29.3271 35.257 29.3418 35.257 29.3418L35.2315 29.2542L35.1697 29.3309C35.1697 29.3309 34.8314 29.5997 34.646 29.5599C34.4605 29.5197 34.2895 29.4 34.3368 29.3707C34.3841 29.3418 34.4096 29.3527 34.4023 29.3527V29.3527Z" fill="#2B2B2B" stroke="#2B2B2B" stroke-width="0.0418751"/>
<path d="M33.5803 29.8292C33.5803 29.8292 33.3766 29.8255 33.2857 29.869C33.1948 29.9126 33.1621 29.9674 33.1002 29.9599C33.0384 29.9528 32.9911 29.8728 33.0093 29.8401C33.0348 29.789 33.1548 29.7237 33.3839 29.7417C33.6131 29.7601 33.5803 29.8292 33.5803 29.8292V29.8292Z" fill="#2B2B2B" stroke="#2B2B2B" stroke-width="0.0418751"/>
<path d="M34.2932 30.382C34.2932 30.3711 34.2786 30.0838 34.1659 29.9674C34.0531 29.851 33.9149 29.851 33.853 29.8652C33.7912 29.8799 34.0822 30.0072 34.1113 30.091C34.1404 30.1747 34.235 30.4075 34.2095 30.4657C34.184 30.5235 34.1368 30.302 33.9585 30.24C33.7803 30.1781 33.533 30.2111 33.5839 30.2911C33.6348 30.3711 33.8349 30.2982 33.9367 30.4691C34.0386 30.6399 34.1149 30.8221 34.1149 30.8221L34.1477 30.6981L34.2386 30.673L34.2495 30.4364L34.2932 30.382V30.382Z" fill="#2B2B2B" stroke="#2B2B2B" stroke-width="0.0418751"/>
<path d="M34.1477 31.3128L33.9622 30.9418C33.9622 30.9418 33.904 30.7056 33.7476 30.6399C33.5912 30.5746 33.3839 30.5855 33.3803 30.6654C33.3766 30.7454 33.7149 30.8472 33.7367 30.8911C33.7585 30.9347 33.7476 31.0076 33.7185 31.0109C33.6894 31.0147 33.5403 30.9565 33.4639 30.9745C33.3876 30.9929 33.3439 31.0909 33.2312 31.062C33.1184 31.0327 33.0238 30.673 33.0675 30.6365C33.1111 30.6001 32.9838 30.7019 32.9584 30.6072C32.9329 30.5126 32.9948 30.2182 32.9511 30.1818C32.9075 30.1453 32.6965 30.018 32.6929 29.9925C32.6893 29.9674 32.7038 28.5453 33.8931 29.7237C33.3839 29.1198 33.1839 29.1851 33.0893 29.1818C33.0202 29.1818 32.5583 29.2216 32.4419 29.8108C32.3255 30.3999 32.1873 30.0327 32.1873 30.0327C32.1873 30.0327 32.1619 30.2873 32.2855 30.3602C32.4092 30.4326 32.2273 30.6437 32.2273 30.6437C32.2273 30.6437 32.0055 30.1018 32.0382 29.8652C31.9946 30.0545 31.9982 30.5235 32.2782 31.0364C32.6056 31.3819 32.9148 31.7023 33.7367 32.062C34.1695 31.4003 34.1477 31.3204 34.1477 31.3128Z" fill="#2B2B2B" stroke="#2B2B2B" stroke-width="0.0523439" stroke-linejoin="round"/>
<path d="M33.3694 31.3166C33.3694 31.3166 33.6094 31.3455 33.6748 31.4694C33.7403 31.593 33.7694 31.7823 33.7694 31.7823C33.8094 31.7023 33.8276 31.6332 33.9076 31.575C33.9877 31.5168 34.0459 31.5092 34.0422 31.4657C34.0386 31.4221 33.7876 31.1566 33.6603 31.142C33.533 31.1273 33.3112 31.2802 33.3112 31.2802C33.3112 31.2802 33.2712 31.3384 33.3694 31.3166Z" fill="#8A9396" stroke="#2B2B2B" stroke-width="0.0523439" stroke-linejoin="round"/>
<path d="M33.9177 31.9422C33.9177 31.9422 34.5398 32.2257 35.5644 32.2441" stroke="#8A9396" stroke-width="0.0523439" stroke-linecap="round"/>
<path d="M35.9945 29.0545C35.9945 29.0545 35.9413 29.5767 35.5397 30.6068" stroke="#2B2B2B" stroke-width="0.0523439" stroke-linecap="round"/>
<path d="M35.9145 29.3757C35.9145 29.3757 35.7939 29.7505 35.4594 30.0314" stroke="#2B2B2B" stroke-width="0.0418751"/>
<mask id="mask1_1_36037" style="mask-type:alpha" maskUnits="userSpaceOnUse" x="3" y="9" width="24" height="18">
<rect x="3" y="9" width="24" height="18" fill="#C4C4C4"/>
</mask>
<g mask="url(#mask1_1_36037)">
<path d="M3 9L27 27L3 9ZM27 9L3 27Z" fill="black"/>
<path d="M27 9L3 27M3 9L27 27L3 9Z" stroke="white" stroke-width="2.4"/>
<path d="M3 9L27 27L3 9ZM27 9L3 27Z" fill="black"/>
<path d="M27 9L3 27M3 9L27 27L3 9Z" stroke="#EE5757" stroke-width="1.6"/>
<path d="M15 9V30V9ZM3 18H31Z" fill="black"/>
<path d="M3 18H31M15 9V30V9Z" stroke="white" stroke-width="4"/>
<path d="M15 9V30V9ZM3 18H31Z" fill="black"/>
<path d="M3 18H31M15 9V30V9Z" stroke="#EE5757" stroke-width="2.4"/>
</g>
</g>
<defs>
<linearGradient id="paint0_linear_1_36037" x1="40.2961" y1="21.8505" x2="40.315" y2="20.6204" gradientUnits="userSpaceOnUse">
<stop stop-color="#474747"/>
<stop offset="1" stop-color="#FF5500"/>
</linearGradient>
<linearGradient id="paint1_linear_1_36037" x1="39.875" y1="26.4764" x2="39.8774" y2="27.1742" gradientUnits="userSpaceOnUse">
<stop stop-color="#B50000"/>
<stop offset="1" stop-color="#FFC500"/>
</linearGradient>
<linearGradient id="paint2_linear_1_36037" x1="42.9302" y1="26.9008" x2="44.068" y2="26.8857" gradientUnits="userSpaceOnUse">
<stop stop-color="#D5DFFF"/>
<stop offset="1" stop-color="white"/>
</linearGradient>
<linearGradient id="paint3_linear_1_36037" x1="40.0778" y1="21.617" x2="40.4855" y2="21.617" gradientUnits="userSpaceOnUse">
<stop stop-color="#474747"/>
<stop offset="1" stop-color="#FF5500"/>
</linearGradient>
<linearGradient id="paint4_linear_1_36037" x1="46.002" y1="32.6208" x2="45.8029" y2="31.3829" gradientUnits="userSpaceOnUse">
<stop stop-color="#D5DFFF"/>
<stop offset="1" stop-color="white"/>
</linearGradient>
<linearGradient id="paint5_linear_1_36037" x1="43.2072" y1="27.3258" x2="42.6994" y2="26.5061" gradientUnits="userSpaceOnUse">
<stop stop-color="#D5DFFF"/>
<stop offset="1" stop-color="white"/>
</linearGradient>
</defs>
</svg>
