<svg width="54" height="48" viewBox="0 0 54 48" fill="none" xmlns="http://www.w3.org/2000/svg">
<mask id="mask0_1_36037" style="mask-type:alpha" maskUnits="userSpaceOnUse" x="3" y="6" width="48" height="36">
<path d="M3.56934 15.1356C4.16681 10.4125 8.0415 7.00193 12.7861 6.60887C16.6412 6.28949 21.6196 6 27 6C32.3804 6 37.3588 6.28949 41.2139 6.60887C45.9585 7.00193 49.8332 10.4125 50.4307 15.1356C50.752 17.6759 51 20.704 51 24C51 27.296 50.752 30.3241 50.4307 32.8644C49.8332 37.5875 45.9585 40.9981 41.2139 41.3911C37.3588 41.7105 32.3804 42 27 42C21.6196 42 16.6412 41.7105 12.7861 41.3911C8.0415 40.9981 4.16681 37.5875 3.56934 32.8644C3.248 30.3241 3 27.296 3 24C3 20.704 3.248 17.6759 3.56934 15.1356Z" fill="#00D0BF"/>
</mask>
<g mask="url(#mask0_1_36037)">
<rect x="3" y="6" width="48" height="36" fill="#2E50A6"/>
<path d="M37.8399 29.3455C37.8399 29.3455 37.6996 29.7156 37.6196 29.7156C37.5396 29.7156 37.2494 29.5557 37.2494 29.5557C37.2494 29.5557 37.0392 29.8961 36.9291 29.9158C36.819 29.9359 36.5288 29.866 36.5288 29.866C36.5288 29.866 36.2486 29.866 36.2386 29.8258C36.2285 29.786 36.2486 29.706 36.2486 29.706C36.2486 29.706 35.8484 30.0259 35.7583 30.0058C35.6682 29.9862 35.368 29.6059 35.368 29.6059L35.318 29.8061L34.7476 29.786L34.2472 29.4656C34.2472 29.4656 33.9671 29.9259 33.957 29.9158C33.947 29.9058 33.4667 30.0259 33.4667 30.0259L33.4367 29.9359L33.1165 29.7458C33.1165 29.7458 33.3667 29.3957 33.3667 29.3857C33.3667 29.3756 33.2466 29.3354 33.2466 29.3354L33.0664 29.4857L32.6962 29.7257L32.3259 29.5557L32.4861 29.2554L32.5061 29.0352L32.7963 28.5951L36.3487 25.1425L38.0999 28.3748L37.8399 29.3455Z" fill="#6A4C2D" stroke="black" stroke-width="0.0418751"/>
<path d="M40.3636 29.5549L41.2882 29.5214L40.8946 29.3271L44.4179 29.1943L43.9201 29.0047L43.4791 28.4071L41.6533 28.2697C41.6533 28.2697 41.516 28.1655 41.2928 28.2174C41.2836 28.0754 41.1127 27.8904 41.1127 27.8904L39.9888 27.8049L39.287 28.284L39.761 29.4979L40.3636 29.5549Z" fill="white" stroke="black" stroke-width="0.0418751"/>
<path d="M36.7657 19.2L36.8587 18.8834C36.8587 18.8834 37.0216 18.6087 37.0216 18.4873C37.0216 18.3663 37.143 18.2222 37.143 18.2222C37.143 18.2222 37.5153 18.115 37.5945 18.3432C37.9952 17.7377 38.4655 18.3152 38.4655 18.3152L38.5957 18.1615L38.8612 17.8357C38.8612 17.8357 39.2385 18.1895 39.2431 18.2498C39.2477 18.3106 39.308 18.2687 39.308 18.2687L39.7179 18.236C39.7179 18.236 39.9122 18.3884 39.8716 18.6782C40.0161 18.7636 40.1463 19.2649 40.1463 19.2649L36.7657 19.2Z" fill="url(#paint0_linear_1_36037)" stroke="black" stroke-width="0.0418751"/>
<path d="M40.364 22.9671C40.4348 22.924 40.6576 22.8532 40.6304 22.5274C40.6031 22.2016 40.3209 22.1635 40.1635 22.1744C40.0056 22.1853 39.8645 22.321 39.8645 22.321L39.3431 21.9897C39.3431 21.9897 39.604 20.344 39.8808 20.241C40.1438 20.0513 40.1903 19.9693 40.1903 19.9261C40.1903 19.8826 40.0927 19.7737 40.0927 19.7737L38.3926 19.5727L36.785 19.7628C36.785 19.7628 36.6602 19.9529 36.6765 20.0291C36.6928 20.1049 36.6983 20.1866 36.986 20.4094C37.3046 20.6543 37.5237 22.0605 37.5237 22.0605C37.5237 22.0605 37.0731 22.2829 37.0459 22.2556C37.0186 22.2288 36.883 22.2016 36.8122 22.2125C36.7418 22.2234 36.5082 22.3427 36.5082 22.6522C36.5082 22.9621 36.7418 23.1413 36.7418 23.1413C36.7418 23.1413 38.2787 22.9621 38.5069 23.3854C38.7297 22.875 40.1903 23.0542 40.364 22.9671Z" fill="#656263" stroke="black" stroke-width="0.0418751"/>
<path d="M42.0198 21.2565C42.0198 21.2565 42.037 21.0777 42.1643 20.9927C42.292 20.9077 43.1425 20.865 43.3469 20.9927C43.5508 21.1204 43.6274 21.7498 43.6274 21.7498C43.6274 21.7498 43.7551 21.9709 43.7635 22.1325C43.7719 22.2941 43.7891 22.4047 43.7891 22.4047C43.7891 22.4047 44.4695 23.2895 44.4779 24.0889C44.5545 24.6333 44.5374 26.0876 44.3251 26.6404C44.3163 27.3296 44.0273 27.7802 44.0273 27.7802C44.0273 27.7802 44.0952 27.8991 44.0868 28.0269C44.078 28.1546 44.0102 28.2735 44.0102 28.2735L45.0051 28.7668L44.6395 28.6307C44.6395 28.6307 45.0139 28.9456 45.0051 28.9372C44.9967 28.9284 44.5885 28.7412 44.5885 28.7412L44.8351 28.9879C44.8267 28.9795 44.2313 28.7157 44.2313 28.7157C44.2313 28.7157 44.5118 28.9795 44.4951 28.9711C44.4779 28.9628 44.0441 28.7584 44.0441 28.7584C44.0441 28.7584 44.3163 29.0478 44.3079 29.0306C44.2995 29.0134 43.9168 28.8606 43.9168 28.8606L43.9335 29.0051C43.9335 29.0051 43.6274 28.9879 43.6274 28.7584C43.4742 28.6734 43.3724 28.5541 43.3724 28.5541L42.6664 28.4351L41.8666 26.0449L42.0538 22.0048L42.1048 21.8009L42.0198 21.2565Z" fill="black" stroke="black" stroke-opacity="0.97854" stroke-width="0.0523439" stroke-linejoin="round"/>
<path d="M41.4855 34.1679C41.4855 34.1679 41.0759 33.3065 40.872 33.2943C40.6877 32.943 41.5123 30.0716 43.1073 29.9079C43.9841 29.9799 43.1793 30.9188 42.6027 30.6298C42.6747 30.8823 42.9628 31.2437 42.9628 31.2437C42.9628 31.2437 41.8217 31.737 41.4855 34.1679Z" fill="#FFBB00" stroke="black" stroke-width="0.0415916"/>
<path d="M35.9948 34.2934C35.9948 34.2934 36.334 33.3127 36.5396 33.3006C36.7457 33.2884 35.9948 30.0322 34.3608 30.0079C33.4771 30.0808 34.2881 31.0247 34.8692 30.7341C34.7966 30.9887 34.5061 31.3517 34.5061 31.3517C34.5061 31.3517 35.6561 31.8479 35.9948 34.2934Z" fill="#FFBB00" stroke="black" stroke-width="0.0418751"/>
<path d="M37.4939 28.1684C37.4897 28.1604 37.0881 28.2944 37.3482 28.7316C37.3679 28.5624 37.5488 28.4598 37.5488 28.4598C37.5488 28.4598 37.2732 28.7869 37.5647 29.0624C37.6003 28.8024 37.7657 28.7199 37.7657 28.7199C37.7657 28.7199 37.5609 29.3224 37.7694 29.4443C37.7933 29.2039 37.9466 29.098 37.9466 29.098C37.9466 29.098 37.7615 29.6373 37.9269 29.7592C37.9466 29.5548 38.0843 29.464 38.0843 29.464C38.0843 29.464 38.0019 30.0234 38.2183 30.0628C38.2225 29.8656 38.38 29.6729 38.38 29.6729C38.38 29.6729 38.3088 30.1294 38.6476 30.1495C38.6518 29.9761 38.7146 29.7793 38.7146 29.7793C38.7146 29.7793 38.8683 30.2634 39.0927 30.1846C39.0889 30.0431 39.0965 29.7751 39.0927 29.7751C39.0885 29.7751 39.2342 30.2357 39.5022 30.1495C39.4629 30.0192 39.5177 29.8656 39.5177 29.8656C39.5177 29.8656 39.6597 30.1532 39.9155 30.0586C39.9591 29.9719 39.9038 29.8027 39.9038 29.8027C39.9038 29.8027 40.2778 30.1888 40.3921 29.9564C40.5064 29.724 40.0927 29.6453 40.0927 29.6453H40.3724C40.3724 29.6453 40.282 29.4091 39.9038 29.3576C40.0336 29.2986 40.1676 29.3421 40.1676 29.3421C40.1676 29.3421 40.0889 29.0465 39.7028 29.0151C39.8527 28.964 40.0181 28.9996 40.0181 28.9996C40.0181 28.9996 39.9666 28.7199 39.5416 28.6411C39.6086 28.5662 39.7895 28.59 39.7895 28.59C39.7895 28.59 39.6203 28.3262 39.4273 28.3417C39.2342 28.3576 37.4897 28.1646 37.4939 28.1684Z" fill="#00713D" stroke="black" stroke-width="0.0418751"/>
<path d="M39.2146 29.59C39.2146 29.59 39.3683 29.665 39.3645 29.732" stroke="#3EC26D" stroke-width="0.0523439" stroke-linecap="round"/>
<path d="M39.3054 29.4681C39.3054 29.4681 39.5022 29.6059 39.4985 29.7081" stroke="#3EC26D" stroke-width="0.0523439" stroke-linecap="round"/>
<path d="M39.4784 29.397C39.4784 29.397 39.6363 29.4954 39.6438 29.6491" stroke="#3EC26D" stroke-width="0.0523439" stroke-linecap="round"/>
<path d="M39.7422 29.4602C39.7422 29.4602 39.8213 29.6294 39.7937 29.6608" stroke="#3EC26D" stroke-width="0.0523439" stroke-linecap="round"/>
<path d="M39.9001 29.5507C39.9118 29.6847 39.8879 29.6964 39.8879 29.6964" stroke="#3EC26D" stroke-width="0.0523439" stroke-linecap="round"/>
<path d="M37.9584 28.7039C37.9584 28.7039 38.1435 28.822 38.128 28.9874" stroke="#3EC26D" stroke-width="0.0523439" stroke-linecap="round"/>
<path d="M37.9467 28.8459C37.9467 28.8459 38.0333 28.9284 38.0137 28.9837" stroke="#3EC26D" stroke-width="0.0523439" stroke-linecap="round"/>
<path d="M38.1753 28.7081C38.1753 28.7081 38.2971 28.8772 38.2578 28.9953" stroke="#3EC26D" stroke-width="0.0523439" stroke-linecap="round"/>
<path d="M38.3838 28.8182C38.3838 28.8182 38.4391 28.9246 38.388 28.9836" stroke="#3EC26D" stroke-width="0.0523439" stroke-linecap="round"/>
<path d="M38.4822 28.8693C38.4822 28.8693 38.5492 28.9757 38.4901 29.0113" stroke="#3EC26D" stroke-width="0.0523439" stroke-linecap="round"/>
<path d="M38.4077 29.2198C38.4077 29.2198 38.5807 29.2591 38.6045 29.389" stroke="#3EC26D" stroke-width="0.0523439" stroke-linecap="round"/>
<path d="M38.5099 29.1017C38.5099 29.1017 38.6912 29.1134 38.7109 29.3065" stroke="#3EC26D" stroke-width="0.0523439" stroke-linecap="round"/>
<path d="M38.7502 29.0347C38.754 29.0347 38.8721 29.2437 38.8524 29.3103" stroke="#3EC26D" stroke-width="0.0523439" stroke-linecap="round"/>
<path d="M38.9827 29.0544C38.9827 29.0544 39.0296 29.2554 38.9944 29.3182" stroke="#3EC26D" stroke-width="0.0523439" stroke-linecap="round"/>
<path d="M39.1321 29.1331C39.1321 29.1373 39.1358 29.3655 39.1358 29.3655" stroke="#3EC26D" stroke-width="0.0523439" stroke-linecap="round"/>
<path d="M38.9039 28.8182C38.9039 28.8182 39.0178 28.8614 39.0099 28.9719" stroke="#3EC26D" stroke-width="0.0523439" stroke-linecap="round"/>
<path d="M39.0099 28.7156C39.0099 28.7156 39.1556 28.7985 39.1401 28.956" stroke="#3EC26D" stroke-width="0.0523439" stroke-linecap="round"/>
<path d="M39.1794 28.649C39.1794 28.649 39.3055 28.7985 39.2582 28.9639" stroke="#3EC26D" stroke-width="0.0523439" stroke-linecap="round"/>
<path d="M39.3997 28.6842C39.3997 28.6842 39.3528 28.8693 39.3721 28.9442" stroke="#3EC26D" stroke-width="0.0523439" stroke-linecap="round"/>
<path d="M39.5338 28.8102C39.5338 28.8102 39.4513 28.8735 39.4944 28.9522" stroke="#3EC26D" stroke-width="0.0523439" stroke-linecap="round"/>
<path d="M38.8173 29.5309C38.8173 29.5309 38.8445 29.6729 38.8173 29.6964" stroke="#3EC26D" stroke-width="0.0523439" stroke-linecap="round"/>
<path d="M38.6359 29.4484C38.6359 29.4484 38.7263 29.6059 38.6949 29.6846" stroke="#3EC26D" stroke-width="0.0523439" stroke-linecap="round"/>
<path d="M38.4429 29.4405C38.4429 29.4405 38.5455 29.5586 38.5413 29.6532" stroke="#3EC26D" stroke-width="0.0523439" stroke-linecap="round"/>
<path d="M38.2854 29.4639C38.2854 29.4639 38.38 29.5548 38.3721 29.6059" stroke="#3EC26D" stroke-width="0.0523439" stroke-linecap="round"/>
<path d="M38.2029 29.6017C38.2029 29.6017 38.2933 29.6963 38.2891 29.716" stroke="#3EC26D" stroke-width="0.0523439" stroke-linecap="round"/>
<path d="M36.244 23.1371C36.6783 23.1291 37.1125 23.1216 37.5468 23.1136C37.5468 23.1136 38.4073 23.1136 38.5003 23.3929C38.6631 23.0207 39.4073 23.0441 39.4073 23.0441C39.857 23.0286 40.3067 23.0131 40.7561 22.9976C40.764 24.083 40.7716 25.1684 40.7795 26.2538C40.5161 27.5172 39.6011 28.4091 38.5932 28.7889C37.3914 28.4012 36.6318 27.3857 36.3839 26.2304C36.337 25.1994 36.2905 24.168 36.244 23.1371Z" fill="white" stroke="black" stroke-width="0.0418751"/>
<path d="M36.708 23.125L38.6054 28.181L40.3193 23.0148C39.7875 23.0492 38.6468 22.9311 38.5053 23.416C38.2859 22.9822 37.0857 23.1572 36.708 23.125Z" fill="#006B00" stroke="black" stroke-width="0.0418751"/>
<path d="M37.9994 25.8623C38.0727 25.9004 38.0706 24.49 38.1665 24.4465C38.1937 24.3297 38.2075 24.2786 38.2418 24.1546C38.1593 24.0085 37.79 24.0156 37.6531 24.14C37.7146 24.3368 37.7419 24.4025 37.7419 24.4025C37.9269 24.7019 37.8901 25.8941 37.9994 25.8623Z" fill="#FFC900" stroke="#006B00" stroke-width="0.0288595" stroke-linecap="round"/>
<path d="M37.491 14.9617C37.491 14.9617 37.6254 14.8094 37.6313 14.7729C37.6376 14.7363 38.2406 14.7119 38.5998 14.0418C38.8008 13.6885 38.5998 13.8956 38.5998 13.8956L38.5877 13.725C38.5877 13.725 38.8377 13.4874 38.7464 13.3595C38.6547 13.2315 38.6853 13.524 38.5391 13.5179C38.393 13.5118 38.4721 13.2011 38.4721 13.2011C38.4721 13.2011 38.46 13.1645 38.4173 13.1463C38.3561 13.1523 38.3746 13.262 38.3197 13.2742C38.2648 13.2864 38.2163 13.0183 38.2163 13.0183C38.2163 13.0183 38.125 12.8965 38.0454 13.2803C38.0881 13.6885 38.3503 13.6092 38.3503 13.8773C38.3503 14.1454 38.1187 14.3525 38.0517 14.3586C37.9847 14.3647 38.009 14.1332 38.009 14.1332C38.009 14.1332 37.9726 14.0235 37.9483 14.0235C37.924 14.0235 38.0823 13.9991 38.058 13.6945C38.0031 13.329 37.9604 13.7798 37.8628 13.7615C37.7653 13.7433 37.8386 13.4265 37.875 13.3899C37.9114 13.3534 37.8323 13.2011 37.6191 13.591C37.6007 13.7798 37.5764 13.5422 37.5337 13.5544C37.4608 13.7067 37.473 13.8164 37.5764 13.9565C37.7288 14.0966 37.8264 14.2367 37.8201 14.3099C37.8143 14.383 37.7347 14.5475 37.6254 14.5475C37.5157 14.5475 37.6313 14.3464 37.6254 14.2794C37.6191 14.2124 37.4366 13.9687 37.4366 13.9687C37.4366 13.9687 37.3084 13.7615 37.3206 13.7555C37.3327 13.7494 37.3084 13.7189 37.2477 13.9321C37.1866 14.1454 37.1133 13.792 37.1133 13.792C37.1133 13.792 37.0283 14.054 37.2108 14.2124C37.071 14.1941 37.0588 14.2489 37.0588 14.2489C37.0588 14.322 37.2477 14.3525 37.272 14.4804C37.2963 14.6084 37.0768 14.6815 37.0768 14.6815C37.0768 14.6815 37.1686 14.8094 37.424 14.5596C37.4303 14.718 37.3268 14.8277 37.3268 14.8277C37.4118 14.8663 37.4788 14.8622 37.491 14.9617V14.9617Z" fill="#CDAD56" stroke="black" stroke-width="0.0523439" stroke-linejoin="round"/>
<path d="M36.6552 14.9618C36.6552 14.9618 36.5413 14.7927 36.5363 14.7594C36.5308 14.7262 35.976 14.8015 35.7135 14.1247C35.5427 13.8032 35.7135 13.9916 35.7135 13.9916L35.7238 13.8364C35.7238 13.8364 35.5421 13.6141 35.6197 13.4977C35.6973 13.3813 35.6654 13.6474 35.7652 13.6479C35.8893 13.6424 35.8221 13.3597 35.8221 13.3597C35.8221 13.3597 35.8324 13.3264 35.8687 13.3098C35.9203 13.3153 35.9416 13.4821 35.9881 13.4932C36.0346 13.5043 36.1309 13.2969 36.1611 13.2543C36.2038 13.2482 36.2021 13.0825 36.2695 13.4317C36.2335 13.8032 35.9257 13.7311 35.9257 13.975C35.9257 14.2189 36.1221 14.4074 36.1791 14.4129C36.236 14.4185 36.2155 14.2078 36.2155 14.2078C36.2155 14.2078 36.2465 14.108 36.267 14.108C36.2879 14.108 36.0861 14.1468 36.107 13.8696C36.1535 13.6101 36.2565 13.8863 36.3395 13.8697C36.4224 13.853 36.3298 13.5952 36.3537 13.5559C36.3591 13.5165 36.481 13.3475 36.5283 13.7205C36.5438 13.8924 36.6376 13.5726 36.6736 13.5837C36.736 13.7223 36.6464 13.9074 36.5585 14.0349C36.4291 14.1624 36.3704 14.3021 36.3759 14.3686C36.3809 14.4351 36.4115 14.5178 36.5049 14.5178C36.5978 14.5178 36.5363 14.4018 36.5413 14.3409C36.5463 14.2799 36.7017 14.0825 36.7017 14.0825C36.7322 14.0338 36.7067 13.9428 36.7389 13.9007C36.7896 13.9012 36.8105 13.8309 36.8621 14.0249C36.914 14.2189 36.976 13.8974 36.976 13.8974C36.976 13.8974 37.0484 14.1358 36.893 14.2799C37.012 14.2633 37.0224 14.3132 37.0224 14.3132C37.0224 14.3797 36.9659 14.4074 36.945 14.5238C36.924 14.6402 37.0069 14.7067 37.0069 14.7067C37.0069 14.7067 36.9295 14.8231 36.7121 14.5959C36.7067 14.74 36.7951 14.8398 36.7951 14.8398C36.7222 14.8749 36.6657 14.8712 36.6552 14.9618Z" fill="#CDAD56" stroke="black" stroke-width="0.0460166" stroke-linejoin="round"/>
<path d="M40.0026 23.8791C39.8891 23.7761 39.8757 23.8661 39.8201 23.8431C39.7924 23.8318 39.7711 23.8062 39.7472 23.7828C39.7267 23.7614 39.702 23.7526 39.6747 23.7413C39.6643 23.7719 39.6542 23.802 39.6438 23.8326C39.6333 23.8632 39.6727 23.9138 39.6718 23.9595C39.6639 24.0273 39.6362 24.0839 39.5508 24.1069C39.5751 24.0587 39.5889 24.0566 39.5814 23.9976C39.578 23.9683 39.4955 23.9159 39.5056 23.8883C39.5206 23.8435 39.5466 23.792 39.5273 23.7472C39.4926 23.771 39.4465 23.7585 39.4118 23.7731C39.382 23.7861 39.3804 23.841 39.3393 23.8636C39.2975 23.8833 39.2049 23.8736 39.1274 23.8297C39.1748 23.7941 39.2137 23.8179 39.261 23.7824C39.2845 23.7643 39.2836 23.6877 39.3071 23.6697C39.331 23.6517 39.3875 23.6329 39.4109 23.6148C39.3896 23.5906 39.3908 23.5525 39.3695 23.5282C39.3485 23.5039 39.2543 23.5089 39.233 23.485C39.1903 23.4365 39.1986 23.3728 39.1559 23.3247C39.266 23.364 39.2501 23.4176 39.2778 23.4134C39.3297 23.3883 39.3816 23.3837 39.4088 23.395C39.4365 23.4067 39.4884 23.4746 39.5156 23.4859C39.5261 23.4553 39.5412 23.4168 39.5512 23.3862C39.5617 23.3556 39.5052 23.3029 39.5152 23.2723C39.5361 23.2116 39.5872 23.1576 39.6077 23.0964C39.6153 23.1555 39.6249 23.2049 39.6325 23.2635C39.6362 23.2928 39.694 23.3083 39.6978 23.3376C39.7015 23.3674 39.6676 23.4352 39.671 23.4649C39.7028 23.4587 39.7484 23.4628 39.7799 23.4566C39.8117 23.4503 39.8326 23.377 39.864 23.3707C39.9273 23.3582 39.9729 23.3619 40.037 23.3741C39.9897 23.418 39.9532 23.4151 39.9235 23.4553C39.9 23.4733 39.9327 23.5324 39.8644 23.5738C39.8389 23.5889 39.7715 23.5709 39.7476 23.5889C39.769 23.6132 39.7903 23.637 39.8117 23.6613C39.8326 23.6856 39.9281 23.6969 39.9495 23.7212C39.9917 23.7694 40.0144 23.8272 40.0026 23.8791Z" fill="#FFC900"/>
<path d="M37.0852 23.9289C37.1987 23.8259 37.2121 23.916 37.2682 23.8929C37.2955 23.8812 37.3168 23.8557 37.3407 23.8326C37.3612 23.8113 37.3859 23.8025 37.4131 23.7908C37.4236 23.8213 37.4341 23.8519 37.4441 23.8825C37.4546 23.913 37.4156 23.9633 37.4165 24.0089C37.424 24.0772 37.4516 24.1333 37.5371 24.1567C37.5128 24.1086 37.499 24.1061 37.5065 24.0475C37.5103 24.0181 37.5923 23.9658 37.5823 23.9377C37.5672 23.8934 37.5413 23.8414 37.5605 23.7966C37.5957 23.8209 37.6413 23.8083 37.6765 23.8226C37.7058 23.836 37.7079 23.8908 37.7485 23.9135C37.7908 23.9331 37.8834 23.9235 37.9604 23.8795C37.9131 23.8435 37.8742 23.8678 37.8268 23.8318C37.8034 23.8142 37.8047 23.7372 37.7808 23.7196C37.7573 23.7016 37.7008 23.6823 37.6769 23.6643C37.6983 23.6404 37.697 23.6019 37.7184 23.5776C37.7397 23.5537 37.834 23.5588 37.8549 23.5345C37.8976 23.4863 37.8897 23.4227 37.932 23.3741C37.8218 23.4135 37.8382 23.4671 37.8105 23.4633C37.7582 23.4382 37.7062 23.4331 37.679 23.4449C37.6518 23.4562 37.5995 23.524 37.5722 23.5357C37.5618 23.5052 37.5471 23.4666 37.5367 23.4361C37.5262 23.4055 37.5831 23.3527 37.5727 23.3222C37.5521 23.261 37.5006 23.2074 37.4801 23.1463C37.4726 23.2049 37.463 23.2543 37.4554 23.3134C37.4516 23.3427 37.3939 23.3582 37.3901 23.3875C37.3867 23.4168 37.4207 23.4851 37.4169 23.5144C37.3851 23.5081 37.3394 23.5123 37.308 23.5064C37.2766 23.4997 37.2557 23.4264 37.2238 23.4202C37.1606 23.4076 37.1154 23.4114 37.0509 23.4235C37.0982 23.4679 37.1347 23.4646 37.1644 23.5052C37.1878 23.5232 37.1552 23.5822 37.2234 23.6237C37.249 23.6388 37.3168 23.6207 37.3403 23.6388C37.3189 23.6626 37.2975 23.6869 37.2766 23.7112C37.2553 23.7355 37.1598 23.7468 37.1388 23.7707C37.0961 23.8192 37.0735 23.877 37.0852 23.9289Z" fill="#FFC900"/>
<path d="M39.901 24.2049C39.798 24.2849 39.1342 24.4528 39.1271 25.0295C39.1204 25.6061 39.2435 25.7376 39.1204 25.7522C38.8809 25.7522 38.8466 25.1099 38.8533 24.8251C38.8604 24.5404 38.8671 24.5843 38.8671 24.5843C38.8671 24.5843 39.0312 24.6279 39.0178 24.7669C39.004 24.9055 39.182 24.4235 39.1204 24.2924C39.2297 24.4017 39.3738 24.3582 39.3738 24.3507C39.3738 24.3435 39.2917 24.256 39.2574 24.1903C39.223 24.1245 39.3805 24.2267 39.3805 24.2267C39.3805 24.2267 39.3872 24.117 39.2502 24.1245C39.0723 24.1245 39.2779 24.0659 39.2779 24.0659C39.2779 24.0659 39.3805 24.161 39.4491 24.0588C39.3738 23.9784 39.2641 23.9344 39.2641 23.9344C39.2641 23.9344 39.1682 23.7523 39.0384 23.7158C38.8876 23.679 38.9081 23.7812 38.7369 23.7669C38.7029 23.8322 38.7029 23.8398 38.7712 23.8616C38.6548 23.942 38.7163 24.1023 38.7163 24.1023C38.7163 24.1023 38.9014 24.0224 38.8943 24.1534C38.8876 24.2849 38.785 24.2631 38.7163 24.1827C38.6548 24.1463 38.6343 24.2192 38.6343 24.2192L38.7302 24.3213C38.7302 24.3213 38.5455 24.3142 38.4973 24.4382C38.5999 24.4311 38.6548 24.4604 38.6548 24.4604C38.6548 24.4604 38.4425 24.555 38.422 24.6061C38.4014 24.6572 38.3947 24.5479 38.388 24.5479C38.3809 24.5479 38.1824 24.4746 38.1824 24.4746L38.1138 24.7903C38.1138 24.7903 38.2511 24.9273 38.3261 24.8833C38.4014 24.8398 38.5384 24.7083 38.6204 24.7447C38.3809 24.9273 38.1414 25.1898 38.0112 25.2267C37.9772 25.1974 37.8608 25.0805 37.8127 25.1387C37.7649 25.1974 37.7993 25.2702 37.8608 25.2631C37.9224 25.2556 37.6623 25.3213 37.7168 25.431C37.7716 25.5403 37.7649 25.5332 37.8127 25.5039C37.8608 25.4746 37.7716 25.4675 37.9496 25.4164C38.1276 25.3653 38.1209 25.3142 38.1209 25.3142C38.1209 25.3142 38.0865 25.3942 37.9906 25.4164C37.8947 25.4382 37.8198 25.4382 37.8403 25.4675C37.8608 25.4964 37.9019 25.5474 37.888 25.5768C37.8742 25.6061 38.0865 25.4235 38.1414 25.5696C38.285 25.5621 38.3809 25.3871 38.3127 25.2849C38.3194 25.3942 38.388 25.431 38.3466 25.4821C38.3055 25.5332 38.6686 25.3142 38.4906 25.1827C38.5384 25.292 38.5455 25.3799 38.5455 25.3799C38.5455 25.3799 38.6276 25.3724 38.6481 25.3431C38.6686 25.3142 38.607 25.4235 38.6343 25.4453C38.6615 25.4675 38.7917 25.5914 38.7369 25.6789C38.7029 25.6278 38.6958 25.5474 38.6548 25.555C38.6137 25.5621 38.4425 25.6865 38.3399 25.6936C38.2373 25.7007 38.463 26.0734 38.463 26.0734C38.463 26.0734 38.3055 26.0512 38.285 26.0659C38.2645 26.0805 38.1619 25.9344 38.1414 26.0223C38.1071 26.1316 38.1757 26.0876 38.1757 26.0876C38.1757 26.0876 38.0865 26.0441 38.0388 26.0952C37.9906 26.1463 37.9429 26.1973 37.9772 26.2191C38.0112 26.2409 38.1619 26.2409 38.1824 26.2338C38.2029 26.2267 38.0112 26.2484 37.9978 26.2702C37.9839 26.292 37.9567 26.3724 37.9978 26.4017C38.0388 26.431 38.1414 26.387 38.1481 26.3653C38.1552 26.3431 38.1619 26.4452 38.1619 26.4452C38.1619 26.4452 38.3399 26.4599 38.3399 26.2777C38.3399 26.0952 38.3537 26.4088 38.3537 26.4088C38.3537 26.4088 38.5317 26.4381 38.5384 26.2556C38.5455 26.0734 38.5589 26.3799 38.5589 26.3799C38.5589 26.3799 38.6753 26.3431 38.6753 26.3142C38.6753 26.2849 38.6686 26.6789 38.5865 26.7886C38.4563 26.7007 38.3742 26.8468 38.3742 26.8468C38.3742 26.8468 38.3809 27.0583 38.3671 27.1094C38.3537 27.1605 38.4563 27.0805 38.463 27.0583C38.4701 27.0365 38.5932 26.9783 38.5999 26.9637C38.607 26.949 38.641 26.8761 38.641 26.8761C38.641 26.8761 38.6137 26.9783 38.566 26.993C38.5178 27.0072 38.4701 27.0583 38.4906 27.1023C38.5111 27.1462 38.5865 27.1751 38.6137 27.2191C38.641 27.2627 38.7369 26.9637 38.7369 26.9637L38.744 27.0294C38.744 27.0294 38.8671 27.0001 38.8809 26.9419C38.8943 26.8833 38.7507 26.8322 38.8671 26.7375C38.9835 26.6425 38.8671 26.8251 38.8671 26.8251C38.8671 26.8251 38.9081 26.9637 38.9353 26.9637C38.963 26.9637 39.0312 26.7007 38.963 26.6354C38.8943 26.5696 39.0656 26.7153 39.0656 26.7153C39.0656 26.7153 39.1615 26.4453 39.0589 26.4088C38.9559 26.3724 38.9081 26.3577 38.9081 26.3577C38.9081 26.3577 38.963 26.2849 38.9353 26.2777C38.9081 26.2702 39.0794 26.4381 39.1066 26.3942C39.1342 26.3506 39.1753 26.2191 38.9768 26.1463C38.7779 26.0734 38.9697 25.8686 38.9697 25.8686C38.9697 25.8686 39.0932 26.0148 39.182 25.9344C39.2708 25.8544 39.1753 25.8544 39.1753 25.8544C39.1753 25.8544 39.4282 25.6936 39.4353 25.6132C39.3872 25.6061 39.3051 25.6207 39.3051 25.6207C39.3051 25.6207 39.4491 25.5257 39.4148 25.3724C39.36 25.4528 39.2846 25.4528 39.2846 25.4528C39.2846 25.4528 39.4081 25.3289 39.3872 25.212C39.3122 25.2702 39.3189 25.3142 39.2708 25.2995C39.223 25.2849 39.1409 24.8251 39.3327 24.7958C39.5241 24.7669 39.4215 25.0223 39.4282 25.0223C39.4353 25.0223 39.7159 24.9055 39.4282 24.7158C39.4969 24.6936 39.6405 24.8251 39.6405 24.8251C39.6405 24.8251 39.579 24.5039 39.2708 24.7012C39.3461 24.6208 39.3943 24.5697 39.4558 24.5843C39.5174 24.599 39.7364 24.5768 39.7364 24.5115C39.682 24.4675 39.5656 24.5332 39.5036 24.5115C39.442 24.4893 39.942 24.4528 39.901 24.2049Z" fill="#FFC900" stroke="#006B00" stroke-width="0.0288595" stroke-linecap="round" stroke-linejoin="round"/>
<path d="M37.7305 24.3943C37.7305 24.3943 38.0044 24.241 38.1412 24.431" stroke="#006B00" stroke-width="0.0288594" stroke-linecap="round"/>
<path d="M38.2509 24.7228C38.244 24.7228 38.155 24.8177 38.1344 24.8177" stroke="#006B00" stroke-width="0.0288594" stroke-linecap="round"/>
<path d="M38.4358 25.0293C38.4358 25.0293 38.6889 25.0513 38.8533 24.7812" stroke="#006B00" stroke-width="0.0288594" stroke-linecap="round"/>
<path d="M38.7095 24.949C38.7095 24.949 38.73 25.0952 38.7712 25.0952C38.8121 25.0952 38.7028 25.1316 38.6616 25.1023C38.7095 25.1681 38.737 25.2849 38.6616 25.3285" stroke="#006B00" stroke-width="0.0288594" stroke-linecap="round"/>
<path d="M38.5793 26.7884C38.5793 26.7884 38.4903 26.8904 38.3807 26.8978L38.5793 26.7884Z" fill="#E80000"/>
<path d="M38.5793 26.7884C38.5793 26.7884 38.4903 26.8904 38.3807 26.8978" stroke="#006B00" stroke-width="0.0288594" stroke-linecap="round"/>
<path d="M38.6822 26.3211C38.6822 26.3211 38.6274 26.0294 38.6616 25.9562C38.6822 25.8613 38.7712 25.8248 38.8396 25.7009" stroke="#006B00" stroke-width="0.0288594" stroke-linecap="round"/>
<path d="M38.6546 26.1095C38.6546 26.1095 38.5862 26.2847 38.285 26.2263" stroke="#006B00" stroke-width="0.0288594" stroke-linecap="round"/>
<path d="M38.737 25.6716C38.737 25.6716 38.7573 25.9052 38.4836 25.8177" stroke="#006B00" stroke-width="0.0288594" stroke-linecap="round"/>
<path d="M38.4013 24.6207C38.4013 24.6207 38.2917 24.7228 38.3328 24.8615" stroke="#006B00" stroke-width="0.0288594" stroke-linecap="round"/>
<path d="M38.8121 24.3652C38.8121 24.3652 38.9559 24.3068 38.9834 24.2775C39.0107 24.2484 39.0588 24.19 39.0724 24.1461C39.086 24.1025 38.9765 24.0367 39.0313 23.9419C39.0655 23.8981 39.1133 23.8908 39.1956 23.9419C39.2777 23.9928 39.1203 23.7813 39.0382 23.774C38.9559 23.7667 38.9011 23.8324 38.8808 23.8178C38.8602 23.8032 38.8875 23.8762 38.8533 23.8762C38.8191 23.8762 38.9217 23.9346 38.915 23.9712C38.9081 24.0076 39.0243 24.1316 39.0176 24.1609C39.0107 24.19 38.8463 24.3578 38.8121 24.3652Z" fill="#006B00"/>
<path d="M38.9149 23.8835C38.9773 23.8683 38.9874 23.8851 38.9764 23.9418C38.9471 23.9261 38.9364 23.9128 38.9149 23.8835Z" fill="#FFC900" stroke="#FFC900" stroke-width="0.0288594" stroke-linecap="round" stroke-linejoin="round"/>
<path d="M38.4776 27.1353C38.4776 27.1353 38.4545 27.2881 38.5109 27.3007C38.508 27.2416 38.5229 27.2013 38.5368 27.1856C38.5247 27.1796 38.4802 27.1362 38.4776 27.1353Z" fill="#E80000" stroke="#006B00" stroke-width="0.0288594" stroke-linejoin="round"/>
<path d="M38.3506 26.9472C38.2987 26.9393 38.2113 26.9851 38.2363 27.0404C38.2786 27.0018 38.3175 27.0435 38.347 27.0041C38.356 26.9932 38.3535 26.961 38.3506 26.9472Z" fill="#E80000" stroke="#006B00" stroke-width="0.0288594" stroke-linejoin="round"/>
<path d="M38.3501 26.838C38.3501 26.838 38.2685 26.8241 38.2571 26.8845C38.3134 26.8768 38.3302 26.8704 38.349 26.883C38.3543 26.8702 38.3492 26.8411 38.3501 26.838Z" fill="#E80000" stroke="#006B00" stroke-width="0.0288594" stroke-linejoin="round"/>
<path d="M38.0043 25.9772C38.0043 25.9772 38.0532 25.9967 38.0671 26.0501C38.106 26.0244 38.1246 25.9111 38.0043 25.9772Z" fill="#E80000" stroke="#006B00" stroke-width="0.0230875" stroke-linejoin="round"/>
<path d="M37.8831 26.1071C37.8851 26.1061 37.9857 26.041 37.996 26.1033C37.9747 26.1259 37.9653 26.1407 37.9488 26.1457C37.9358 26.1457 37.9099 26.1033 37.8831 26.1071Z" fill="#E80000" stroke="#006B00" stroke-width="0.0230875" stroke-linejoin="round"/>
<path d="M37.8729 26.318C37.8747 26.3171 37.9375 26.258 37.9617 26.2973C37.9856 26.3369 37.9422 26.3347 37.9422 26.3347C37.9422 26.3347 37.9201 26.324 37.8729 26.318Z" fill="#E80000" stroke="#006B00" stroke-width="0.0230875" stroke-linejoin="round"/>
<path d="M37.7842 25.1433C37.7833 25.1433 37.7037 25.1106 37.6704 25.1697C37.7232 25.1766 37.7417 25.1964 37.7657 25.2162C37.7592 25.1914 37.7482 25.154 37.7842 25.1433Z" fill="#E80000" stroke="#006B00" stroke-width="0.0230875" stroke-linejoin="round"/>
<path d="M37.6299 25.5857C37.6299 25.5857 37.6335 25.4863 37.6777 25.4458C37.7028 25.4606 37.7102 25.4842 37.7269 25.5137C37.6936 25.5216 37.6491 25.5238 37.6299 25.5857Z" fill="#E80000" stroke="#006B00" stroke-width="0.0230875" stroke-linejoin="round"/>
<path d="M37.8424 25.5147C37.8424 25.5147 37.7547 25.5581 37.7833 25.6055C37.812 25.5729 37.8435 25.5829 37.8435 25.5819C37.8435 25.581 37.8435 25.5159 37.8424 25.5147Z" fill="#E80000" stroke="#006B00" stroke-width="0.0230875" stroke-linejoin="round"/>
<path d="M37.7157 24.5626C37.6842 24.6002 37.7546 24.682 37.8284 24.6701C37.847 24.5814 37.7343 24.5351 37.7157 24.5626Z" fill="#FFC900" stroke="#006B00" stroke-width="0.0230875" stroke-linejoin="round"/>
<path d="M37.7971 24.4946C37.7971 24.4946 37.811 24.5647 37.8747 24.5459C37.8646 24.4918 37.8201 24.4512 37.8201 24.4512C37.8175 24.4672 37.8293 24.4918 37.7971 24.4946Z" fill="#E80000" stroke="#006B00" stroke-width="0.0230875" stroke-linejoin="round"/>
<path d="M37.8396 24.6977C37.8396 24.6977 37.8747 24.738 37.944 24.6553C37.9127 24.6651 37.8573 24.6355 37.8573 24.6355C37.8573 24.6355 37.8573 24.6927 37.8396 24.6977Z" fill="#E80000" stroke="#006B00" stroke-width="0.0230875" stroke-linejoin="round"/>
<path d="M37.7117 24.4019C37.6804 24.4394 37.7249 24.4916 37.7987 24.4799C37.8172 24.3912 37.7302 24.3745 37.7117 24.4019Z" fill="#FFC900" stroke="#006B00" stroke-width="0.0230875" stroke-linejoin="round"/>
<path d="M37.7414 24.0516C37.7414 24.0516 38.0362 23.9675 38.1928 24.0939C38.349 24.22 38.349 24.1057 38.349 24.1057C38.349 24.1057 38.5776 24.1898 38.6438 24.1718C38.71 24.1538 38.5956 24.1781 38.6857 24.1237C38.7761 24.0696 38.5052 24.1358 38.4813 24.0215C38.439 23.9495 38.4872 23.859 38.3913 23.8892C38.3251 23.805 38.4332 23.7451 38.4093 23.6547C38.3431 23.7028 38.3067 23.6367 38.2527 23.7568C38.1266 23.733 38.2347 23.5584 38.0965 23.5403C38.0965 23.6668 37.9943 23.6727 37.988 23.7451C37.9282 23.787 37.6635 23.9436 37.7414 24.0516Z" fill="url(#paint1_linear_1_36037)"/>
<path d="M34.3497 33.6393C34.5409 33.5933 35.5769 33.8684 35.9764 34.2964C35.8914 33.5338 35.6803 32.9497 35.6803 32.9497C35.6803 32.9497 35.0629 32.7734 34.9782 32.8584C34.8539 32.989 34.4805 33.3814 34.3497 33.6393Z" fill="#C01500" stroke="black" stroke-width="0.0418751"/>
<path d="M34.0339 30.1168C33.9613 30.129 33.8887 30.1775 33.816 30.2986C33.7313 30.5042 33.6708 31.0247 33.5497 31.1457C33.4287 31.2667 33.3197 31.2789 33.3197 31.3882C33.3197 31.497 33.3318 31.7512 33.6587 31.8479C33.9855 31.8601 34.5061 31.3274 34.5061 31.3274C34.5061 31.3274 34.7724 31.0368 34.8813 30.7223C34.2518 30.9401 33.8039 30.3589 34.0339 30.1168Z" fill="#C01500" stroke="black" stroke-width="0.0418751"/>
<path d="M43.1379 33.5179C42.9482 33.4723 41.9005 33.7457 41.5039 34.1712C41.5881 33.4133 41.7979 32.832 41.7979 32.832C41.8712 32.8123 42.4038 32.657 42.488 32.7416C42.6111 32.8714 43.0081 33.2617 43.1379 33.5179Z" fill="#C01500" stroke="black" stroke-width="0.0415916"/>
<path d="M43.4314 30.0159C43.5035 30.0281 43.529 30.1227 43.588 30.2433C43.6718 30.4477 43.7585 30.7458 43.8787 30.866C43.9988 30.9866 44.1069 31.1646 44.1069 31.273C44.1069 31.3815 44.0817 31.5276 43.7572 31.6239C43.4331 31.6361 42.9628 31.2194 42.9628 31.2194C42.9628 31.2194 42.6986 30.9309 42.5906 30.6177C43.2154 30.8346 43.6199 30.2768 43.4314 30.0159Z" fill="#C01500" stroke="black" stroke-width="0.0415916"/>
<path d="M33.6708 32.974C33.6708 32.974 34.3244 33.4216 34.3366 33.6276C36.092 31.0247 40.571 30.2136 43.1249 33.4459C43.4641 32.9978 43.815 32.8529 43.815 32.8529C41.1279 29.3421 35.7771 29.778 33.6708 32.974Z" fill="#FFBB00" stroke="black" stroke-width="0.0418751"/>
<path d="M40.3301 23.0156L40.586 23.0093L40.1291 23.5881L40.6773 24.2279L39.599 25.5863L40.6166 26.8108C40.5048 27.085 40.3749 27.3346 40.202 27.5603L39.6174 26.9142L40.6773 25.5926L39.8063 24.6056L40.3301 23.0156Z" fill="#1E5AA6" stroke="black" stroke-width="0.0418751"/>
<path d="M36.6749 23.1312L36.4006 23.1375L36.9123 23.6915L36.3705 24.3678L37.4973 25.5926L36.5652 26.8414C36.677 27.1156 36.8374 27.4201 37.0099 27.6454L37.5643 26.9448L36.4253 25.6777L37.2599 24.6178L36.6749 23.1312Z" fill="#1E5AA6" stroke="black" stroke-width="0.0418751"/>
<path d="M37.942 26.4209L37.54 26.9569L38.9776 28.6202C39.2314 28.492 39.4307 28.3459 39.648 28.1696L38.8985 27.3045L39.2033 26.4088L39.6418 26.9142L38.2712 28.6629C38.0417 28.5653 37.7879 28.4129 37.5585 28.224L38.2833 27.3045L37.942 26.4209Z" fill="#1E5AA6" stroke="black" stroke-width="0.0418751"/>
<path d="M37.4973 25.5863L37.7595 25.9155L37.5886 25.4708L37.4973 25.5863Z" fill="#1E5AA6" stroke="black" stroke-width="0.0418751"/>
<path d="M39.3738 25.8773C39.3792 25.8711 39.5852 25.5968 39.5852 25.5968L39.5053 25.4875L39.3738 25.8773Z" fill="#1E5AA6" stroke="black" stroke-width="0.0405556"/>
<path d="M34.6578 33.3251L34.7761 33.1863L34.8286 33.2311L34.6546 33.4352L34.3374 33.1648L34.3931 33.0995L34.6578 33.3251Z" fill="black"/>
<path d="M34.9128 32.8608L34.797 32.9782L34.8765 33.0566L35.0123 32.9188L35.0615 32.9673L34.8653 33.1662L34.5685 32.8735L34.7643 32.675L34.8139 32.7238L34.6784 32.8612L34.7491 32.9309L34.8649 32.8136L34.9128 32.8608Z" fill="black"/>
<path d="M35.2102 32.6208C35.2334 32.6517 35.2482 32.6827 35.2546 32.7138C35.261 32.745 35.2585 32.7743 35.2473 32.8017C35.2362 32.829 35.2173 32.8522 35.1905 32.8713C35.1641 32.8902 35.1358 32.9008 35.1057 32.9032C35.0755 32.9055 35.0461 32.8992 35.0173 32.8842C34.9884 32.8691 34.9626 32.8466 34.9398 32.8166L34.9281 32.8011C34.9049 32.7702 34.8901 32.7391 34.8838 32.7077C34.8775 32.676 34.8799 32.6466 34.8911 32.6194C34.9024 32.592 34.9213 32.5688 34.9479 32.5498C34.9745 32.5308 35.0028 32.5203 35.0329 32.5182C35.063 32.5159 35.0926 32.5224 35.1215 32.5379C35.1505 32.5532 35.1766 32.5761 35.1997 32.6068L35.2102 32.6208ZM35.1329 32.6542C35.1082 32.6213 35.0834 32.6007 35.0586 32.5921C35.0337 32.5836 35.0102 32.5873 34.988 32.6032C34.966 32.6189 34.9553 32.6395 34.9561 32.665C34.9567 32.6903 34.9692 32.7193 34.9936 32.752L35.0051 32.7673C35.0292 32.7992 35.0538 32.8198 35.0791 32.8289C35.1043 32.838 35.1282 32.8345 35.1507 32.8184C35.1728 32.8027 35.1833 32.7821 35.1824 32.7567C35.1814 32.7312 35.1687 32.7021 35.1444 32.6695L35.1329 32.6542Z" fill="black"/>
<path d="M35.557 32.0826L35.4512 32.1541L35.6457 32.4418L35.5745 32.4899L35.3801 32.2022L35.2757 32.2728L35.2368 32.2151L35.518 32.025L35.557 32.0826Z" fill="black"/>
<path d="M35.8387 32.1147L35.6899 32.1858L35.738 32.2865L35.9126 32.2031L35.9424 32.2653L35.6903 32.3858L35.5106 32.0098L35.7621 31.8895L35.7921 31.9523L35.618 32.0355L35.6609 32.1251L35.8096 32.054L35.8387 32.1147Z" fill="black"/>
<path d="M36.0787 31.9826L36.0162 32.0104L36.0782 32.1498L35.9997 32.1848L35.8303 31.804L35.9718 31.741C36.0168 31.721 36.0559 31.7156 36.0893 31.7248C36.1226 31.734 36.1474 31.7569 36.1637 31.7935C36.1753 31.8194 36.1793 31.8437 36.1757 31.8662C36.1722 31.8884 36.1613 31.9097 36.1431 31.9302L36.2947 32.0491L36.2963 32.0528L36.2121 32.0903L36.0787 31.9826ZM35.9879 31.9469L36.0512 31.9187C36.0709 31.91 36.0839 31.8982 36.0903 31.8835C36.0966 31.8685 36.0959 31.8523 36.088 31.8347C36.08 31.8167 36.0686 31.8049 36.0538 31.7992C36.0391 31.7934 36.0212 31.7952 36.0001 31.8046L35.937 31.8326L35.9879 31.9469Z" fill="black"/>
<path d="M36.4141 31.8023L36.3506 31.8278L36.4075 31.9694L36.3279 32.0014L36.1723 31.6147L36.316 31.5569C36.3617 31.5386 36.401 31.5346 36.434 31.545C36.467 31.5553 36.4909 31.5791 36.5059 31.6163C36.5165 31.6427 36.5196 31.6671 36.5152 31.6894C36.5109 31.7115 36.4993 31.7324 36.4803 31.7522L36.6275 31.8765L36.629 31.8803L36.5435 31.9147L36.4141 31.8023ZM36.3246 31.7633L36.3889 31.7374C36.4089 31.7294 36.4224 31.7181 36.4293 31.7036C36.4361 31.6889 36.436 31.6726 36.4288 31.6547C36.4214 31.6365 36.4104 31.6243 36.3958 31.618C36.3813 31.6117 36.3634 31.6128 36.342 31.6215L36.278 31.6472L36.3246 31.7633Z" fill="black"/>
<path d="M38.1219 31.3397L38.0537 31.3454L38.0664 31.4974L37.9808 31.5046L37.9462 31.0892L38.1006 31.0764C38.1496 31.0723 38.1884 31.0801 38.2168 31.0997C38.2453 31.1194 38.2612 31.1492 38.2645 31.1891C38.2668 31.2174 38.2626 31.2416 38.2519 31.2617C38.2413 31.2815 38.224 31.2981 38.2 31.3114L38.304 31.4736L38.3043 31.4776L38.2125 31.4853L38.1219 31.3397ZM38.048 31.2761L38.117 31.2703C38.1385 31.2685 38.1547 31.2617 38.1656 31.2499C38.1764 31.2379 38.1811 31.2223 38.1795 31.2031C38.1778 31.1835 38.171 31.1685 38.1588 31.1583C38.1468 31.148 38.1293 31.1438 38.1063 31.1457L38.0376 31.1514L38.048 31.2761Z" fill="black"/>
<path d="M39.1494 31.3012L39.081 31.3002L39.0787 31.4527L38.9928 31.4514L38.9991 31.0347L39.1539 31.037C39.2031 31.0377 39.241 31.0493 39.2673 31.0716C39.2937 31.094 39.3066 31.1252 39.306 31.1652C39.3056 31.1937 39.299 31.2173 39.2864 31.2362C39.2739 31.2549 39.255 31.2697 39.2299 31.2806L39.3175 31.4523L39.3174 31.4563L39.2253 31.4549L39.1494 31.3012ZM39.082 31.2306L39.1513 31.2316C39.1729 31.232 39.1896 31.2268 39.2016 31.2161C39.2136 31.2052 39.2198 31.1901 39.2201 31.1708C39.2203 31.1512 39.215 31.1356 39.2039 31.1242C39.193 31.1128 39.176 31.1069 39.1529 31.1066L39.0839 31.1055L39.082 31.2306Z" fill="black"/>
<path d="M41.1169 31.8155L41.0574 31.7817L40.982 31.9143L40.9073 31.8718L41.1135 31.5096L41.2481 31.5862C41.2909 31.6105 41.3185 31.6389 41.3308 31.6712C41.3432 31.7034 41.3395 31.737 41.3196 31.7718C41.3056 31.7965 41.2884 31.8141 41.2682 31.8246C41.2483 31.835 41.2246 31.8389 41.1973 31.8363L41.1915 32.0289L41.1895 32.0324L41.1094 31.9868L41.1169 31.8155ZM41.0919 31.7212L41.1521 31.7555C41.1708 31.7662 41.188 31.7697 41.2037 31.7661C41.2194 31.7623 41.2321 31.7521 41.2416 31.7353C41.2513 31.7182 41.2541 31.702 41.2499 31.6867C41.2458 31.6714 41.2338 31.6581 41.2137 31.6466L41.1537 31.6125L41.0919 31.7212Z" fill="black"/>
<path d="M42.1494 32.4317L42.0227 32.3261L41.9512 32.4119L42.0999 32.5358L42.0557 32.5888L41.8411 32.4099L42.1079 32.0897L42.3221 32.2682L42.2776 32.3217L42.1293 32.1982L42.0658 32.2745L42.1924 32.38L42.1494 32.4317Z" fill="black"/>
<path d="M41.7891 32.04C41.7827 32.0794 41.7701 32.1126 41.7514 32.1397C41.7327 32.1668 41.7091 32.1859 41.6806 32.1972C41.6523 32.2085 41.6214 32.211 41.588 32.2047C41.555 32.1985 41.5269 32.185 41.5036 32.1642C41.4803 32.1434 41.4639 32.1169 41.4545 32.0847C41.4451 32.0524 41.4435 32.017 41.4496 31.9785L41.4528 31.9587C41.4592 31.9193 41.4719 31.886 41.4908 31.8588C41.5099 31.8315 41.5336 31.8122 41.562 31.8011C41.5905 31.7899 41.6213 31.7874 41.6545 31.7936C41.6877 31.7998 41.7159 31.8134 41.739 31.8344C41.7622 31.8552 41.7785 31.8819 41.7876 31.9146C41.797 31.9471 41.7984 31.983 41.792 32.0222L41.7891 32.04ZM41.7089 32.0063C41.7158 31.9643 41.7135 31.9311 41.7021 31.9065C41.6907 31.8819 41.6711 31.8669 41.6434 31.8617C41.6159 31.8566 41.5929 31.8634 41.5744 31.8822C41.5559 31.9008 41.5432 31.9309 41.5363 31.9724L41.5331 31.9919C41.5264 32.0328 41.5287 32.0658 41.54 32.0912C41.5513 32.1165 41.571 32.1318 41.599 32.1371C41.6266 32.1423 41.6495 32.1355 41.6678 32.1166C41.6861 32.0976 41.6988 32.0673 41.7057 32.0258L41.7089 32.0063Z" fill="black"/>
<path d="M38.6662 31.2394C38.6716 31.2779 38.6695 31.3126 38.6599 31.3436C38.6504 31.3746 38.634 31.3998 38.6109 31.4193C38.5878 31.4387 38.56 31.4508 38.5272 31.4556C38.4948 31.4603 38.4649 31.4568 38.4373 31.4449C38.4097 31.433 38.3869 31.4137 38.3689 31.3869C38.3509 31.3599 38.3392 31.3277 38.3338 31.2901L38.331 31.2708C38.3257 31.2323 38.3278 31.1974 38.3375 31.1662C38.3473 31.1348 38.3638 31.1095 38.3868 31.0903C38.41 31.0708 38.4379 31.0587 38.4705 31.0539C38.503 31.0492 38.533 31.0529 38.5604 31.0649C38.588 31.0768 38.6107 31.0964 38.6286 31.1238C38.6467 31.1509 38.6584 31.1836 38.6637 31.2219L38.6662 31.2394ZM38.5821 31.2336C38.5764 31.1926 38.5647 31.1625 38.547 31.1433C38.5294 31.1242 38.507 31.1166 38.4798 31.1205C38.4528 31.1245 38.4334 31.1381 38.4217 31.1614C38.41 31.1844 38.4068 31.2163 38.4124 31.257L38.415 31.276C38.4206 31.316 38.4323 31.3459 38.45 31.3658C38.4678 31.3856 38.4904 31.3936 38.518 31.3895C38.545 31.3856 38.5643 31.372 38.5758 31.3488C38.5873 31.3254 38.5903 31.2933 38.5848 31.2526L38.5821 31.2336Z" fill="black"/>
<path d="M36.8794 31.6672L36.7382 31.7194L36.7411 31.8099L36.6554 31.8415L36.6564 31.3968L36.7311 31.3692L37.0219 31.706L36.9363 31.7377L36.8794 31.6672ZM36.7358 31.6461L36.8335 31.61L36.7303 31.4818L36.7358 31.6461Z" fill="black"/>
<path d="M42.6406 32.9827L42.5345 32.8759L42.4534 32.9161L42.3891 32.8513L42.7941 32.6677L42.8502 32.7241L42.6644 33.1285L42.6001 33.0638L42.6406 32.9827ZM42.6002 32.8433L42.6736 32.9173L42.7474 32.7701L42.6002 32.8433Z" fill="black"/>
<path d="M39.82 31.4398L39.6723 31.4101L39.6274 31.4887L39.5378 31.4707L39.772 31.0926L39.85 31.1083L39.9209 31.5476L39.8314 31.5296L39.82 31.4398ZM39.7088 31.3465L39.8109 31.367L39.7903 31.2037L39.7088 31.3465Z" fill="black"/>
<path d="M37.0119 31.2766L37.173 31.5539L37.2218 31.2371L37.3326 31.2163L37.4096 31.6259L37.3249 31.6418L37.3039 31.5299L37.276 31.335L37.2228 31.661L37.1649 31.6719L36.9973 31.3877L37.042 31.5791L37.063 31.6911L36.9786 31.7069L36.9016 31.2973L37.0119 31.2766Z" fill="black"/>
<path d="M37.7102 31.393L37.7254 31.5391L37.64 31.548L37.5969 31.1334L37.7586 31.1166C37.7897 31.1134 37.8177 31.1162 37.8424 31.1251C37.8673 31.1341 37.8872 31.1484 37.9021 31.1681C37.917 31.1877 37.9258 31.2109 37.9286 31.2376C37.9328 31.2782 37.9222 31.3118 37.8968 31.3382C37.8715 31.3644 37.8343 31.3801 37.7851 31.3852L37.7102 31.393ZM37.703 31.3238L37.7793 31.3159C37.8019 31.3135 37.8186 31.3064 37.8292 31.2946C37.8401 31.2827 37.8445 31.2669 37.8424 31.2472C37.8403 31.2269 37.8326 31.2111 37.8193 31.1998C37.8061 31.1885 37.7889 31.1838 37.7678 31.1856L37.6895 31.1937L37.703 31.3238Z" fill="black"/>
<path d="M38.7752 31.3036L38.7789 31.4505L38.6931 31.4526L38.6825 31.036L38.845 31.0318C38.8763 31.031 38.9039 31.0361 38.9279 31.0469C38.952 31.0577 38.9707 31.0736 38.984 31.0944C38.9974 31.1151 39.0044 31.1389 39.0051 31.1658C39.0061 31.2066 38.9929 31.2392 38.9655 31.2636C38.9382 31.2877 38.8999 31.3005 38.8505 31.3017L38.7752 31.3036ZM38.7734 31.2341L38.8501 31.2322C38.8728 31.2316 38.8899 31.2258 38.9015 31.2148C38.9132 31.2038 38.9189 31.1884 38.9184 31.1686C38.9178 31.1481 38.9114 31.1318 38.8991 31.1195C38.8867 31.1072 38.87 31.1012 38.8488 31.1013L38.7701 31.1033L38.7734 31.2341Z" fill="black"/>
<path d="M40.7221 31.6171L40.6498 31.7449L40.575 31.7026L40.7802 31.3398L40.9218 31.4199C40.949 31.4353 40.9701 31.4538 40.9851 31.4754C41.0002 31.4972 41.0081 31.5204 41.0088 31.5451C41.0096 31.5697 41.0034 31.5937 40.9901 31.6171C40.97 31.6526 40.9419 31.6738 40.9058 31.6806C40.87 31.6873 40.8306 31.6785 40.7876 31.6541L40.7221 31.6171ZM40.7563 31.5565L40.8231 31.5943C40.8429 31.6055 40.8605 31.6093 40.8761 31.6059C40.8918 31.6025 40.9046 31.5922 40.9143 31.5749C40.9244 31.5571 40.9273 31.5398 40.923 31.5229C40.9188 31.506 40.9075 31.4922 40.8893 31.4814L40.8207 31.4427L40.7563 31.5565Z" fill="black"/>
<path d="M39.4526 31.4741L39.3673 31.4642L39.4151 31.0502L39.5004 31.06L39.4526 31.4741Z" fill="black"/>
<path d="M43.1247 33.1226L43.0369 33.0299L42.7847 33.2685L42.7257 33.2061L42.9779 32.9675L42.8914 32.876L42.9419 32.8282L43.1752 33.0748L43.1247 33.1226Z" fill="black"/>
<path d="M42.0034 32.1234L41.9012 32.0469L41.6932 32.3249L41.6244 32.2734L41.8325 31.9954L41.7316 31.92L41.7733 31.8643L42.0451 32.0677L42.0034 32.1234Z" fill="black"/>
<path d="M40.1491 31.1777L40.1664 31.4979L40.3539 31.238L40.4621 31.2699L40.3444 31.6697L40.2617 31.6453L40.2939 31.536L40.3577 31.3498L40.162 31.616L40.1055 31.5993L40.0855 31.2699L40.0383 31.4607L40.0061 31.57L39.9237 31.5458L40.0414 31.146L40.1491 31.1777Z" fill="black"/>
<path d="M42.3394 32.7778C42.3153 32.7789 42.29 32.7724 42.2633 32.7585C42.2368 32.7444 42.212 32.7247 42.1889 32.6993C42.1646 32.6727 42.149 32.644 42.1422 32.6133C42.1357 32.5826 42.1385 32.5516 42.1506 32.5204C42.1628 32.4894 42.1838 32.4601 42.2134 32.4326L42.2344 32.4135C42.2651 32.3855 42.2964 32.3664 42.3282 32.3563C42.3603 32.3461 42.3911 32.3454 42.4207 32.3541C42.4506 32.3627 42.4774 32.3802 42.5014 32.4064C42.5346 32.443 42.5519 32.4795 42.5532 32.516C42.5546 32.5524 42.5404 32.5877 42.5106 32.6219L42.4543 32.5601C42.4694 32.5412 42.4765 32.5232 42.4759 32.506C42.4753 32.4889 42.4673 32.4719 42.4519 32.455C42.4322 32.4334 42.4091 32.4244 42.3826 32.4279C42.3561 32.4314 42.3268 32.4476 42.2947 32.4767L42.275 32.4946C42.2427 32.524 42.2239 32.5524 42.2185 32.5797C42.2132 32.607 42.2214 32.6325 42.2429 32.6562C42.2647 32.6801 42.2852 32.6924 42.3046 32.6933L42.3578 32.645L42.3051 32.5872L42.3519 32.5446L42.4624 32.6658L42.3394 32.7778Z" fill="black"/>
<path d="M42.403 21.3013C42.403 21.3013 42.6559 21.0848 42.8359 21.0785" stroke="#FFF700" stroke-width="0.0418751" stroke-linecap="round"/>
<path d="M42.4393 21.2711C42.4452 21.2653 43.9489 21.0546 43.9967 21.0065" stroke="#FFF700" stroke-width="0.0418751" stroke-linecap="round"/>
<path d="M42.4452 21.2833C42.4511 21.277 44.129 21.1388 44.129 21.1388" stroke="#FFF700" stroke-width="0.0418751" stroke-linecap="round"/>
<path d="M42.4393 21.2892C42.4393 21.2892 44.2253 21.205 44.3338 21.2954" stroke="#FFF700" stroke-width="0.0418751" stroke-linecap="round"/>
<path d="M42.4331 21.2833C42.4331 21.2833 44.1835 21.2954 44.2136 21.3373" stroke="#FFF700" stroke-width="0.0418751" stroke-linecap="round"/>
<path d="M42.4393 21.2833L44.1231 21.4215" stroke="#FFF700" stroke-width="0.0418751" stroke-linecap="round"/>
<path d="M42.4214 21.2954C42.4272 21.2954 44.1353 21.4457 44.3037 21.6622" stroke="#FFF700" stroke-width="0.0418751" stroke-linecap="round"/>
<path d="M44.3936 21.9687C44.3878 21.9629 43.8103 21.277 42.415 21.2891" stroke="#FFF700" stroke-width="0.0418751" stroke-linecap="round"/>
<path d="M42.4214 21.3013C42.4214 21.3013 43.3895 21.3674 43.6961 21.7041" stroke="#FFF700" stroke-width="0.0418751" stroke-linecap="round"/>
<path d="M42.4393 21.2891C42.4393 21.2891 43.0645 21.1689 43.7203 21.957" stroke="#FFF700" stroke-width="0.0418751" stroke-linecap="round"/>
<path d="M42.0454 22.0048C42.0454 22.0048 42.9131 22.0391 42.9131 22.1241C42.9131 22.2091 42.2665 22.3707 42.2581 22.7279C42.2498 23.0851 42.7514 23.1107 42.7853 23.5613C42.8193 24.0123 42.3942 24.0801 42.3092 24.1994C42.2238 24.2589 42.0199 24.8967 42.0454 25.271C42.0709 25.6454 42.1815 26.9125 42.3771 27.168C42.5303 27.2869 42.7598 27.6696 43.0064 27.5507C43.2531 27.4314 43.0831 26.998 43.0575 26.8786C43.032 26.7597 43.1597 26.5641 43.1597 26.3853C43.1597 26.2065 43.0659 26.062 43.0747 26.0197C43.0831 25.977 43.7635 26.1814 43.7208 26.8531C43.6785 27.5252 43.4063 27.3208 43.4063 27.3208C43.4063 27.3208 43.4914 28.1462 43.2786 28.2567C42.8959 28.4606 42.6153 28.214 42.6153 28.214L42.6513 28.3819L42.3603 28.2312C42.3603 28.2312 41.9859 27.6952 41.9009 27.4569C41.8159 27.2191 41.7138 26.1558 41.7477 25.9259C41.7816 25.6965 41.8071 24.3523 41.7904 24.2844C41.7732 24.2162 41.7054 23.0935 41.7477 22.9235C41.7904 22.7535 42.0538 22.0048 42.0454 22.0048Z" fill="url(#paint2_linear_1_36037)" stroke="black" stroke-width="0.0418751"/>
<path d="M41.1099 21.7837C41.1099 21.7837 41.7137 21.197 42.0625 21.2649C42.2409 21.2649 42.0709 21.3926 42.0709 21.3926C42.0709 21.3926 42.377 21.4181 42.4197 21.5542C42.4281 21.6137 42.2748 21.6308 42.2748 21.6308C42.2748 21.6308 42.4025 21.6564 42.4109 21.7669C42.4197 21.8775 41.1182 21.7921 41.1099 21.7837Z" fill="#FF7000" stroke="black" stroke-width="0.0418751"/>
<path d="M41.1438 21.7581C41.1438 21.7581 41.7904 21.6731 42.0625 21.4009" stroke="black" stroke-width="0.0418751"/>
<path d="M41.7987 21.5797C41.7987 21.5797 42.2748 21.5626 42.2748 21.6308" stroke="black" stroke-width="0.0418751"/>
<path d="M43.4913 28.5373C43.4913 28.5373 43.8996 28.4435 44.0102 28.299C44.0784 28.2479 44.4356 28.835 43.4913 28.5373Z" fill="white" stroke="black" stroke-width="0.0523439" stroke-linejoin="round"/>
<path d="M43.3807 25.1605C43.3807 25.1605 43.4318 25.4754 43.2874 25.6877C43.2107 25.7727 42.9808 25.9176 42.9808 26.0198C42.9808 26.1216 43.0658 26.2577 43.0491 26.377C43.0319 26.4959 42.9046 26.6153 42.913 26.717C42.913 26.8192 43.0575 27.3636 43.0403 27.3719" stroke="white" stroke-width="0.0523439" stroke-linecap="round"/>
<path d="M42.6325 24.14C42.6325 24.14 42.3092 24.2506 42.241 24.5738" stroke="white" stroke-width="0.0523439" stroke-linecap="round"/>
<path d="M42.496 21.5798C42.496 21.5798 42.6069 21.8859 42.9641 21.5965C42.7342 21.282 42.496 21.5882 42.496 21.5798Z" fill="#C75B00" stroke="black" stroke-width="0.0418751"/>
<path d="M42.7599 21.5669C42.7599 21.5833 42.7428 21.5967 42.7216 21.5967C42.7005 21.5967 42.6833 21.5833 42.6833 21.5669C42.6833 21.5504 42.7005 21.5371 42.7216 21.5371C42.7428 21.5371 42.7599 21.5504 42.7599 21.5669Z" fill="black"/>
<path d="M39.5751 20.8691C39.5751 20.8691 40.2527 21.6024 40.6911 21.5944C40.7707 21.8097 40.4918 22.0098 40.3804 22.1053C40.1572 22.0337 39.9554 22.1183 39.4374 21.4809C39.4696 21.0743 39.5831 20.8851 39.5751 20.8691Z" fill="white" stroke="black" stroke-width="0.0418751"/>
<path d="M40.4918 19.1635C40.5793 18.8926 40.7548 18.6774 40.906 18.6535C40.8662 18.4462 41.2251 17.53 42.269 17.1791C42.3327 17.6493 41.8226 18.1116 41.8226 18.1116C41.8226 18.1116 43.3607 17.8487 43.6714 17.458C43.6396 17.6334 43.3289 18.7251 41.6869 18.7172C42.3088 19.3072 41.488 19.7774 41.1371 19.6338C41.7828 19.1397 40.9541 18.8449 40.4918 19.1635Z" fill="white" stroke="black" stroke-width="0.0418751"/>
<path d="M41.0177 18.7812C41.3284 18.5819 41.4398 18.5819 41.6952 18.6217C41.5118 18.6455 41.5118 18.6535 41.5118 18.6535C41.5118 18.6535 41.4959 18.6774 41.6073 18.7812C41.48 18.749 41.3682 18.6774 41.0177 18.7812Z" fill="#CCCCCD" stroke="#CCCCCC" stroke-width="0.0418751"/>
<path d="M40.8979 18.6535C40.8979 18.6535 41.5118 18.3269 41.8544 18.1037" stroke="black" stroke-width="0.0418751"/>
<path d="M40.372 22.1045C40.372 22.1045 41.2171 22.3356 41.3125 21.1242C41.1291 20.5982 40.8741 19.4663 41.2648 19.1397C40.9059 18.8926 40.5156 19.1477 40.5156 19.1477C40.4918 19.2034 40.1727 19.6577 40.6032 20.4546C39.5831 20.1836 39.9976 21.148 39.9976 21.148C40.0374 20.9964 40.5793 20.8532 40.715 21.6262C40.7707 21.8176 40.3481 22.1124 40.372 22.1045Z" fill="#0000FF" stroke="black" stroke-width="0.0418751"/>
<path d="M41.3204 21.1321C41.3204 21.1321 42.2132 20.6539 42.1889 19.5304C41.4318 19.5463 41.1609 20.5262 41.1609 20.5262L41.3204 21.1321Z" fill="#0000FF" stroke="black" stroke-width="0.0418751"/>
<path d="M37.3197 21.0764C37.3197 21.0764 36.6585 21.6501 36.2837 21.4667C36.0048 21.6342 35.6781 21.3394 35.6781 21.3394C35.6781 21.3394 36.0605 22.7497 37.4315 21.7297C37.4076 21.419 37.3356 21.1003 37.3197 21.0764Z" fill="white" stroke="black" stroke-width="0.0418751"/>
<path d="M36.2758 21.4428C36.3315 21.148 36.5626 21.0044 36.746 21.2833C36.9931 21.3314 37.2401 20.3193 36.3633 20.4864C36.6103 19.1636 35.8694 18.6694 35.8694 18.6694C35.8694 18.6694 35.6064 20.1359 35.7259 20.4068C35.8455 20.6778 35.5506 19.9047 34.6022 19.6895C34.5863 20.7975 35.6622 21.3155 35.6622 21.3155C35.6622 21.3155 35.9651 21.5944 36.2758 21.4428Z" fill="#0000FF" stroke="black" stroke-width="0.0418751"/>
<path d="M36.3634 20.4785C36.3634 20.4785 35.9492 20.8294 36.0447 21.3076" stroke="black" stroke-width="0.0418751"/>
<path d="M35.734 20.4307C35.734 20.4307 35.6383 20.7732 35.8455 21.2594" stroke="black" stroke-width="0.0418751"/>
<path d="M35.6702 21.3712C35.6702 21.3712 35.8615 21.0605 36.2758 21.4587" stroke="black" stroke-width="0.0418751"/>
<path d="M35.7499 19.2193C35.7499 19.2113 35.1203 19.2193 35.4949 19.857C35.2159 19.9445 34.5944 19.5384 35.0247 18.9961C33.6141 18.9642 33.0403 18.2871 33.0403 17.6653C33.4547 18.0958 34.4429 17.9203 34.7936 18.1833C34.3632 17.785 34.4509 17.2348 34.4509 17.2348C34.4509 17.2348 35.6543 17.5937 35.8694 18.6615C35.7977 18.8688 35.7659 19.2352 35.7499 19.2193Z" fill="white" stroke="black" stroke-width="0.0418751"/>
<path d="M34.7817 18.1556C35.014 18.3918 35.6107 18.4626 35.9135 18.7256" stroke="black" stroke-width="0.0418751"/>
<path d="M35.0565 18.8528C35.0565 18.8528 35.5505 18.7892 35.6937 18.9642C35.5004 18.9642 35.4359 18.9165 35.1568 19.0203C35.2355 18.9801 35.214 18.9085 35.257 18.9085C35.2999 18.9085 35.078 18.8528 35.0565 18.8528Z" fill="#CCCCCD" stroke="#CCCCCC" stroke-width="0.0396897"/>
<path d="M37.5191 14.9876C37.5191 14.9876 37.79 14.7485 38.0848 14.9637C37.9516 15.3618 37.4713 15.2107 37.4713 15.2107C37.4713 15.2107 37.4872 15.41 37.4395 15.5056C37.5354 15.5779 37.6145 15.8164 37.6145 15.8164C37.6145 15.8164 38.1087 15.6969 38.2125 15.9121C38.4018 15.8859 38.5391 15.9121 38.5391 15.9121C38.5391 15.9121 38.9219 15.8164 39.0571 15.8164C39.1928 15.8164 39.6229 15.928 39.6626 16.0077C39.7028 16.0874 39.8461 16.6214 39.942 16.6134C40.0374 16.6054 39.7108 16.7409 39.6229 16.6054C39.5353 16.4699 39.5592 16.7807 39.5592 16.7807C39.5592 16.7807 39.8301 17.0676 39.862 17.1313C39.8938 17.195 39.6949 17.713 39.8461 18.0719C39.7133 18.084 39.7028 18.223 39.7028 18.223C39.6953 18.3809 39.4956 18.4224 39.4956 18.4224L39.4478 18.2071L39.3122 18.2871L39.3678 18.1196C39.3678 18.1196 39.5513 17.6732 39.5672 17.53C39.5831 17.3864 39.3997 17.1313 39.2565 17.1313C39.1128 17.1313 39.0094 17.5857 39.0094 17.5857C39.0094 17.5857 38.9378 17.9282 38.9617 17.9601C38.9855 17.9919 38.8658 17.8487 38.8658 17.8487C38.8658 17.8487 38.8021 18.056 38.7544 18.1196C38.7066 18.1833 38.6028 18.2071 38.6028 18.2071C38.6028 18.2071 38.5312 17.9998 38.555 17.9203C38.5789 17.8407 38.9457 17.53 38.9139 17.3068C38.8817 17.0836 38.9139 17.1393 38.9055 17.1313C38.8976 17.1234 38.7146 16.964 38.7066 16.8764C38.6987 16.7887 38.4675 16.9879 38.1648 16.9242C38.0718 17.0861 38.0609 17.4898 38.0609 17.4898C38.0609 17.4898 38.0291 17.976 38.0927 18.0321C38.1568 18.0878 37.9336 18.2071 37.9336 18.2071L37.7741 18.4224C37.7741 18.4224 37.7184 18.2871 37.7184 18.2951C37.7184 18.303 37.6066 18.3746 37.6066 18.3746L37.6706 18.2151C37.6665 18.0945 37.8256 17.7649 37.8256 17.486C37.8256 17.2071 37.8457 16.9082 37.8457 16.9082C37.8457 16.9082 37.5509 16.8923 37.5588 17.195C37.5668 17.4982 37.4872 17.5141 37.5031 17.6016C37.5191 17.6891 37.5986 17.9362 37.5748 18.0082C37.5509 18.0798 37.4554 18.1037 37.4554 18.1037L37.4315 18.1435C37.4315 18.1435 37.1367 18.2791 37.1447 18.3348C37.1526 18.3905 37.1367 18.1753 37.1367 18.1753L37.1204 17.9441C37.1204 17.9441 37.2959 17.8328 37.2959 17.5539C37.2959 17.275 37.2557 17.2352 37.2636 17.1715C37.2716 17.1075 37.3118 16.8763 37.3038 16.8525C37.2959 16.8286 37.1367 16.9162 37.0886 16.9162C37.0408 16.9162 37.1765 16.7489 37.1924 16.6293C37.2083 16.5098 37.0329 16.7409 36.8897 16.6054C36.9563 16.4582 37.0568 16.4141 37.0727 16.3026C37.0886 16.191 36.9613 16.3982 36.8495 16.3185C36.8587 16.2116 36.9692 16.1193 36.9692 16.1193C36.9692 16.1193 36.8784 16.1081 36.8415 16.1193C36.7699 16.0954 36.9215 15.9838 36.9295 15.8244C36.9374 15.665 36.8415 15.6012 36.8415 15.5933C36.8415 15.5853 36.6824 15.4498 36.6585 15.394C36.6347 15.3383 36.6347 15.2745 36.6347 15.2745C36.6347 15.2745 36.3713 15.4658 36.0605 15.0593C36.3453 14.8163 36.6506 14.9956 36.6506 14.9956C36.6506 14.9956 36.7301 14.7724 37.0965 14.7884C37.4634 14.8043 37.535 15.0115 37.5191 14.9876Z" fill="#923F00" stroke="black" stroke-width="0.0418751"/>
<path d="M39.524 19.11C39.5303 19.11 40.2007 19.1301 40.2074 19.4885C40.2141 19.8466 40.0018 19.754 39.9951 19.754C39.9884 19.754 39.5039 19.6941 39.5039 19.6941L39.524 19.11Z" fill="#0000FF" stroke="black" stroke-width="0.0418751"/>
<path d="M38.8733 19.0103C38.8733 19.0103 39.7095 19.004 39.6631 19.3688C39.6166 19.7339 39.4043 19.6611 39.4043 19.6611L38.9993 19.6276L38.8733 19.0103Z" fill="#FFFEFF" stroke="black" stroke-width="0.0418751"/>
<path d="M38.4022 18.9705L38.8867 19.0103C38.8867 19.0103 39.1786 19.0501 39.1656 19.329C39.1522 19.6079 38.8666 19.6146 38.8666 19.6146L38.3955 19.5878L38.4022 18.9705Z" fill="#0000FF" stroke="black" stroke-width="0.0418751"/>
<path d="M37.2675 19.11C37.2608 19.11 36.5903 19.1301 36.5836 19.4885C36.5774 19.8466 36.7897 19.754 36.7964 19.754C36.8031 19.754 37.2876 19.6941 37.2876 19.6941L37.2675 19.11Z" fill="white" stroke="black" stroke-width="0.0418751"/>
<path d="M37.9177 19.0103C37.9177 19.0103 37.0815 19.004 37.128 19.3688C37.1744 19.7339 37.3868 19.6611 37.3868 19.6611L37.7917 19.6276L37.9177 19.0103Z" fill="#0000FF" stroke="black" stroke-width="0.0418751"/>
<path d="M38.3892 18.9705L37.9047 19.0103C37.9047 19.0103 37.6124 19.0501 37.6258 19.329C37.6392 19.6079 37.9244 19.6146 37.9244 19.6146L38.3955 19.5878L38.3892 18.9705Z" fill="white" stroke="black" stroke-width="0.0418751"/>
<path d="M39.6865 23.0002C39.6865 23.0002 40.0349 22.4868 40.1819 22.5416C40.31 22.5844 40.2125 22.9817 40.1513 23.0186L39.6865 23.0002Z" fill="#5E0043" stroke="black" stroke-width="0.0418751"/>
<path d="M37.2984 23.0919C37.1887 22.939 37.0296 22.5173 36.883 22.6333C36.7544 22.676 36.8524 23.0734 36.9136 23.1103L37.2984 23.0919Z" fill="#5E0043" stroke="black" stroke-width="0.0418751"/>
<path d="M37.5292 22.0764C37.5292 22.0764 38.208 22.4947 38.4307 22.5056C38.6535 22.5165 39.3595 21.9625 39.3595 21.9625" stroke="black" stroke-width="0.0418751"/>
<path d="M37.5945 20.4366L37.7247 20.2737L38.3767 20.6049L39.0392 20.3114L39.1694 20.4475L38.4307 20.9688L37.5945 20.4366Z" fill="#5E0043" stroke="black" stroke-width="0.0418751"/>
<path d="M37.0768 20.4278C37.1296 20.4943 37.5509 21.0065 37.6271 21.4302C37.7029 21.854 37.5835 20.849 37.5835 20.849C37.5835 20.849 38.1049 21.1045 38.1212 21.2673C38.1375 21.4302 38.3704 21.2565 38.3817 21.2284L36.8721 20.2481L37.0768 20.4278Z" fill="#474747" stroke="#474747" stroke-width="0.0523439" stroke-linejoin="round"/>
<path d="M39.6526 20.3984C39.6526 20.3984 39.104 21.1208 39.1694 21.908C39.0563 21.5312 39.1476 20.9089 39.1476 20.9089L39.0282 20.9851C39.0282 20.9851 38.9035 21.5173 38.7456 21.5986C38.7192 21.5353 38.7242 21.5119 38.7242 21.5119C38.7242 21.5119 38.5559 21.7288 38.5232 21.7506C38.4906 21.7724 38.5341 22.4838 38.5341 22.4838C38.5341 22.4838 38.5906 22.9997 38.6556 22.9943C38.5814 23.0303 38.4906 23.0868 38.4906 23.0868L38.4231 21.71L38.5772 21.555C38.5772 21.555 38.7837 21.3055 38.8 21.0609C38.7104 21.1371 38.6099 21.1589 38.6099 21.1589C38.6099 21.1589 38.5827 21.5065 38.5015 21.555C38.4198 21.604 38.4177 21.6949 38.4177 21.6949L38.3984 21.2405L39.6526 20.3984Z" fill="#474747" stroke="#474747" stroke-width="0.0523439" stroke-linejoin="round"/>
<path d="M38.3981 21.2347L38.5044 23.4067" stroke="black" stroke-width="0.0523439" stroke-linecap="round"/>
<path d="M37.0623 22.272C37.0623 22.272 37.3118 22.419 37.4044 22.8641C38.2188 22.8042 38.4743 23.0923 38.4743 23.0923C38.4743 23.0923 39.1422 22.772 39.4521 22.8314C39.5605 22.6036 39.87 22.3101 39.87 22.3101" stroke="black" stroke-width="0.0418751"/>
<path d="M36.7214 20.143L38.398 21.2401L39.908 20.2247C39.908 20.2247 40.2229 20.0509 40.1957 19.9261C40.1689 19.8009 40.0601 19.8499 40.0056 19.8717C39.9516 19.8934 38.4253 20.9742 38.4253 20.9742L36.8013 19.9475C36.8013 19.9475 36.682 19.9098 36.6602 19.9856C36.6384 20.0618 36.705 20.1049 36.7214 20.143Z" fill="#B4B6B9" stroke="black" stroke-width="0.0418751"/>
<path d="M39.72 19.8582C39.72 19.8582 39.2908 19.6761 39.2908 19.8339C39.2908 19.9914 39.3029 20.0077 39.372 20.1091C39.4407 20.21 39.3192 20.2749 39.3192 20.2749C39.3192 20.2749 39.3029 20.2305 39.2786 20.1614C39.2543 20.0927 39.0236 20.0442 39.0035 19.9633C38.9834 19.8821 39.0521 19.7527 38.9143 19.7368C38.7769 19.7205 38.6434 19.7933 38.6149 19.9512C38.5864 20.1091 38.4084 20.4772 38.4084 20.4772L38.4327 19.6396C38.7351 19.661 39.2962 19.7272 39.7279 19.777C39.5985 19.7569 39.7765 19.7854 39.7727 19.8298C39.7606 19.8662 39.7158 19.87 39.72 19.8582Z" fill="#474747" stroke="#474747" stroke-width="0.0523439" stroke-linejoin="round"/>
<path d="M38.2021 19.6476C38.1255 19.6476 37.7406 19.692 37.6435 19.749C37.5463 19.8055 37.8013 19.8943 37.7691 19.9713C37.7369 20.0484 37.7327 20.2021 37.6112 20.1698C37.4898 20.1372 37.0811 19.9349 37.069 19.8662C37.0568 19.7976 36.9718 19.7934 36.9718 19.7934C36.9718 19.7934 38.1456 19.6355 38.2021 19.6476Z" fill="#474747" stroke="#474747" stroke-width="0.0523439" stroke-linejoin="round"/>
<path d="M38.3871 19.5513L38.3842 20.5806" stroke="black" stroke-width="0.0418751"/>
<path d="M37.5945 18.3386C37.5945 18.3386 37.1242 19.102 37.115 19.1255" stroke="black" stroke-width="0.0418751"/>
<path d="M38.4608 18.3198C38.4608 18.3198 38.6656 18.5991 38.6421 18.6782C38.7259 18.7435 38.8193 19.0044 38.8193 19.0044" fill="url(#paint3_linear_1_36037)"/>
<path d="M38.4608 18.3198C38.4608 18.3198 38.6656 18.5991 38.6421 18.6782C38.7259 18.7435 38.8193 19.0044 38.8193 19.0044" stroke="black" stroke-width="0.0418751"/>
<path d="M39.2523 18.2733C39.2523 18.2733 38.8101 18.8973 38.8239 18.9437" stroke="black" stroke-width="0.0418751"/>
<path d="M36.9865 15.3064C36.9764 15.3413 36.9201 15.3548 36.8606 15.3366C36.801 15.3184 36.7609 15.2753 36.7709 15.2404C36.7809 15.2055 36.8373 15.192 36.8968 15.2102C36.9563 15.2285 36.9965 15.2715 36.9865 15.3064Z" fill="black"/>
<path d="M37.1652 15.2942C37.1752 15.329 37.2315 15.3426 37.2911 15.3243C37.3506 15.3061 37.3907 15.263 37.3807 15.2282C37.3707 15.1933 37.3143 15.1798 37.2548 15.198C37.1953 15.2162 37.1551 15.2593 37.1652 15.2942Z" fill="black"/>
<path d="M42.3423 28.2186C42.3423 28.2186 42.1781 28.2496 42.1835 28.2647C42.1886 28.2802 41.7066 28.2957 41.6965 28.2802C41.6861 28.2647 41.6245 28.3623 41.6245 28.3623L41.7016 28.3162C41.7016 28.3162 41.8192 28.4389 41.8552 28.4288C41.8913 28.4188 41.8397 28.4749 41.8502 28.4854C41.8603 28.4954 41.8963 28.4649 41.8963 28.4649L42.6927 28.4515L42.3423 28.2186Z" fill="#FF7000" stroke="black" stroke-width="0.0418751" stroke-linejoin="round"/>
<path d="M42.6391 28.4665L41.9884 28.4853C41.9884 28.4853 41.8247 28.634 41.8142 28.6696C41.8042 28.7056 41.9218 28.7157 41.9218 28.7157L41.9578 28.8388L42.0399 28.8082C42.0399 28.8082 42.5931 28.8903 43.101 28.7772C43.3573 28.6876 43.4021 28.58 43.2225 28.5147C43.0432 28.4493 42.6442 28.469 42.6391 28.4665Z" fill="#FF7000" stroke="black" stroke-width="0.0523439" stroke-linejoin="round"/>
<path d="M40.4109 29.8015L41.5822 29.7492L41.364 29.5641L44.5319 29.4364L44.4226 29.1847L40.8758 29.3271L41.3025 29.5264L40.3444 29.5549L40.3728 29.6545L40.1216 29.6449C40.1216 29.6449 40.4013 29.7538 40.4109 29.8015Z" fill="url(#paint4_linear_1_36037)" stroke="black" stroke-width="0.0418751"/>
<path d="M41.7241 23.3314C41.6308 23.2849 41.2216 23.2292 40.7656 23.527L40.7845 24.5784C40.7845 24.5784 41.4541 24.2154 41.7798 24.2991C41.761 23.9733 41.761 23.555 41.7241 23.3314Z" fill="url(#paint5_linear_1_36037)" stroke="black" stroke-width="0.0418751"/>
<path d="M35.2479 26.5236L32.486 29.2656" stroke="black" stroke-width="0.0418751"/>
<path d="M36.4788 26.5437L34.2372 29.4959" stroke="black" stroke-width="0.0418751"/>
<path d="M36.3788 25.7732L33.3866 29.3958" stroke="black" stroke-width="0.0418751"/>
<path d="M33.2965 29.3456L33.5867 29.0056" stroke="black" stroke-width="0.0418751"/>
<path d="M36.9491 27.5944L35.7882 29.1957" stroke="black" stroke-width="0.0418751"/>
<path d="M35.7382 29.4059L35.7682 30.016" stroke="black" stroke-width="0.0418751"/>
<path d="M37.4792 28.1547L36.2485 29.6961" stroke="black" stroke-width="0.0418751"/>
<path d="M37.2594 29.5759L37.7598 28.7551" stroke="black" stroke-width="0.0418751"/>
<path d="M37.4495 28.5952L36.849 29.2756" stroke="black" stroke-width="0.0418751"/>
<path d="M37.2694 27.9549L36.859 28.4549" stroke="black" stroke-width="0.0418751"/>
<path d="M36.7389 27.2242C36.7389 27.2242 35.488 29.0554 35.5081 29.2057" stroke="black" stroke-width="0.0418751"/>
<path d="M36.6087 26.9843C36.5789 27.0039 35.5281 28.395 35.5281 28.395" stroke="black" stroke-width="0.0418751"/>
<path d="M35.468 28.8351L35.2778 29.0654" stroke="black" stroke-width="0.0418751"/>
<path d="M35.0378 29.4159L34.7476 29.7961" stroke="black" stroke-width="0.0418751"/>
<path d="M35.1113 22.3088C35.1113 22.3088 35.0265 22.5751 35.1113 22.7083C35.196 22.8414 35.7287 23.9189 35.7287 23.9189C35.7287 23.9189 36.092 23.4708 36.2251 23.4587C36.3583 23.447 36.2976 24.6211 36.2976 24.6211C36.2976 24.6211 36.0798 24.8267 35.9467 24.8146C35.8134 24.8025 36.2733 25.2748 36.2611 25.6743C36.249 26.0738 35.656 28.0591 35.4381 28.0951C35.2202 28.1315 35.535 27.732 35.5229 27.6232C35.5108 27.5143 35.4502 27.5867 35.4018 27.4657C35.3534 27.3447 35.4745 27.163 35.4502 27.0419C35.426 26.9209 35.3171 26.9452 35.305 26.8606C35.2929 26.7756 35.3776 26.7517 35.3655 26.6546C35.3534 26.5579 35.2202 26.5821 35.2324 26.4971C35.2445 26.4126 35.2566 26.449 35.2445 26.2915C35.2324 26.1341 35.2081 26.4004 35.075 26.4126C34.9418 26.4247 34.8329 26.7275 34.8329 26.7275C34.8329 26.7275 34.5665 27.1027 34.3002 26.9331C34.4576 27.2722 34.3366 27.4176 34.276 27.4293C34.2155 27.4414 34.3244 27.6956 34.1791 27.7077C34.0339 27.7199 34.2881 28.2768 34.1186 28.3254C34.3002 28.41 34.1549 28.5189 34.1549 28.5189C34.1549 28.5189 33.7354 28.554 33.8281 29.1001C32.5933 28.6642 31.9881 27.9138 32.0002 27.1512C32.0123 26.3883 32.2544 25.6986 32.8476 25.4444C33.017 24.8146 33.3076 24.1366 33.3076 24.1366C33.3076 24.1366 33.2592 23.8582 33.2955 23.6769C33.3318 23.4951 33.5013 23.3138 33.5013 23.3138C33.5013 23.3138 33.477 22.8779 33.4892 22.6601C33.5013 22.442 33.586 22.3452 33.5981 22.2242C33.6102 22.1032 33.5618 21.4855 33.6828 21.3767C33.8039 21.2678 34.0339 21.2799 34.1549 21.2075C34.276 21.1346 34.4334 21.0015 34.5907 21.0136C34.7481 21.0257 34.8813 21.1346 34.8813 21.1346C34.8813 21.1346 35.4745 21.1346 35.5108 21.3645C35.5471 21.5948 35.3897 21.6794 35.3897 21.6794C35.3897 21.6794 35.4745 22.0065 35.1113 22.3088Z" fill="#8A9396" stroke="#2B2B2B" stroke-width="0.0418751"/>
<path d="M34.5846 21.4701C34.6036 21.5052 34.5603 21.5654 34.4879 21.6046C34.4156 21.6438 34.3415 21.6471 34.3225 21.612C34.3035 21.5769 34.3468 21.5167 34.4191 21.4775C34.4915 21.4383 34.5656 21.435 34.5846 21.4701Z" fill="#CECFCF" stroke="#2B2B2B" stroke-width="0.0418751"/>
<path d="M34.4841 21.5313C34.4841 21.5534 34.464 21.5714 34.4391 21.5714C34.4143 21.5714 34.3942 21.5534 34.3942 21.5313C34.3942 21.5092 34.4143 21.4912 34.4391 21.4912C34.464 21.4912 34.4841 21.5092 34.4841 21.5313Z" fill="black"/>
<path d="M35.3692 21.9319C35.3692 21.9319 35.5162 22.5885 35.3405 23.0416" stroke="#2B2B2B" stroke-width="0.026172"/>
<path d="M35.4144 21.6447C35.4144 21.6447 35.7013 22.024 35.6643 22.496" stroke="#2B2B2B" stroke-width="0.026172"/>
<path d="M35.4423 21.5613C35.4515 21.5613 35.6828 21.7649 35.6736 21.9035" stroke="#2B2B2B" stroke-width="0.026172"/>
<path d="M35.4978 21.478C35.4978 21.478 35.6551 21.5889 35.6921 21.6999" stroke="#2B2B2B" stroke-width="0.026172"/>
<path d="M35.4237 21.4131C35.4237 21.4131 34.8593 22.3293 34.9333 22.903" stroke="black" stroke-width="0.0418751"/>
<path d="M35.4607 21.3854C35.4607 21.3854 34.7112 21.8297 34.5724 23.2824" stroke="#2B2B2B" stroke-width="0.026172"/>
<path d="M35.3774 21.6539L35.0813 21.8758" stroke="black" stroke-width="0.0418751"/>
<path d="M34.2948 23.3657C34.2948 23.3657 34.7112 21.6354 35.4514 21.3854" stroke="#2B2B2B" stroke-width="0.026172"/>
<path d="M35.7383 23.9486C35.7383 23.9486 36.1363 23.4491 36.2289 23.4675C36.3214 23.4859 36.2934 24.6241 36.2934 24.6241C36.2934 24.6241 35.9973 24.846 35.9328 24.8368C35.8679 24.8276 36.2657 25.3736 36.2565 25.5771C36.2473 25.7807 36.2381 25.7807 36.2381 25.7807C36.2381 25.7807 36.2381 25.6605 36.1456 25.4662C36.053 25.2719 36.1083 25.0495 35.507 24.5592C35.3589 24.2539 35.8031 24.7443 35.8956 24.6701C35.9881 24.5964 35.7291 23.9578 35.7383 23.9486Z" fill="#2B2B2B" stroke="#2B2B2B" stroke-width="0.0418751"/>
<path d="M35.0309 21.1346C35.0309 21.1346 34.8637 21.1803 34.8409 21.2485C34.8181 21.3172 34.7192 21.3855 34.666 21.3624C34.6128 21.3398 34.5139 21.2561 34.5139 21.2561" stroke="#2B2B2B" stroke-width="0.0418751"/>
<path d="M34.0805 21.72C34.0805 21.72 33.8296 21.9709 33.9513 22.0014C34.0729 22.0316 34.2022 21.8038 34.2022 21.8038C34.2022 21.8038 34.2022 22.1915 34.3086 22.1304C34.4151 22.0697 34.7268 21.8494 34.7268 21.8494C34.7268 21.8494 34.8332 21.8415 34.8561 21.8494C34.8789 21.857 35.145 22.0848 35.3199 22.0014C35.221 22.2598 35.107 22.2904 35.107 22.2904C35.107 22.2904 34.9245 22.5261 34.6888 22.4725C34.4531 22.4193 34.3922 22.3205 34.3922 22.3205C34.3922 22.3205 34.1945 22.336 34.1337 22.2447C34.0729 22.1534 34.0501 22.1003 34.0501 22.1003C34.0501 22.1003 33.9361 22.2142 33.9056 22.161C33.8752 22.1078 33.9056 21.7958 34.0805 21.72Z" fill="#2B2B2B" stroke="#2B2B2B" stroke-width="0.0523439" stroke-linejoin="round"/>
<path d="M35.5024 21.3704C35.5024 21.3704 35.0386 21.2335 34.8789 21.4617C34.7193 21.6895 34.7573 21.8189 34.8409 21.8415" stroke="#2B2B2B" stroke-width="0.0418751"/>
<path d="M35.5739 21.3574C35.5739 21.4121 35.5348 21.4564 35.4865 21.4564C35.4382 21.4564 35.399 21.4121 35.399 21.3574C35.399 21.3027 35.4382 21.2584 35.4865 21.2584C35.5348 21.2584 35.5739 21.3027 35.5739 21.3574Z" fill="black"/>
<path d="M34.2241 22.5408C34.2241 22.5408 34.4133 22.8318 34.6388 22.9118C34.8643 22.9918 34.4824 23.0609 34.2569 22.9084C34.0932 22.6865 34.1369 22.5265 34.1369 22.5265C34.1369 22.5265 34.1805 22.4826 34.2241 22.5408Z" fill="#2B2B2B" stroke="#2B2B2B" stroke-width="0.0418751"/>
<path d="M35.8426 24.2577C35.8426 24.2577 35.3116 23.5194 35.1588 23.4792C35.0061 23.4394 35.2752 23.4068 35.4389 23.563C35.6025 23.7191 35.3953 23.3083 35.3953 23.3083L35.8426 24.2577Z" fill="#2B2B2B" stroke="#2B2B2B" stroke-width="0.0418751"/>
<path d="M34.1732 28.5239C34.3769 28.4695 35.2643 29.0331 35.4643 29.1751C35.6644 29.3166 36.0828 29.2257 36.0828 29.2257C36.0828 29.2257 35.8897 29.3421 35.7699 29.3714C35.6499 29.4003 36.1263 29.4003 36.1263 29.4003C36.1263 29.4003 34.9915 29.7131 33.8386 29.106C33.7331 28.6332 34.0859 28.5277 34.1732 28.5239Z" fill="#2B2B2B" stroke="#2B2B2B" stroke-width="0.0523439" stroke-linejoin="round"/>
<path d="M35.4716 24.4394C35.4716 24.4394 35.3225 24.4105 35.2461 24.323C35.1698 24.2359 35.0606 24.021 34.9479 23.9302C34.8351 23.8393 34.2714 23.5303 34.0677 23.552C33.8641 23.5738 33.8022 23.5303 33.7767 23.5047C33.7513 23.4792 33.6677 23.5156 33.6822 23.6211C33.6968 23.7267 33.5258 23.9595 33.5876 24.0684C33.6494 24.1777 33.9404 24.6211 33.9986 24.6358C34.0568 24.6504 34.0205 24.8941 34.0205 24.8941C34.0205 24.8941 34.2787 25.1559 34.3442 25.1705C34.4096 25.1852 34.4751 25.2325 34.4678 25.294C34.4605 25.356 34.1841 25.6944 34.1841 25.6944C34.1841 25.6944 33.8859 25.8506 33.8822 25.9381C33.8786 26.0252 33.955 26.2069 34.1914 26.2651C34.4278 26.3233 35.0643 26.276 35.097 26.2216C35.1297 26.1671 35.1806 25.8397 35.1588 25.807C35.137 25.7744 34.9806 25.6759 34.9006 25.6906C34.8206 25.7053 34.7479 25.7706 34.7551 25.7852C34.7624 25.7999 34.6424 25.8615 34.6424 25.8032C34.6424 25.745 34.8788 25.4833 34.9006 25.5051C34.9224 25.5269 35.257 25.5595 35.3189 25.727C35.3807 25.8941 35.3807 26.0143 35.5553 25.9963C35.7298 25.9779 35.9735 25.8179 35.9952 25.4833C36.017 25.1487 35.799 24.923 35.7444 24.8904C35.6898 24.8577 35.508 24.7484 35.4935 24.6977C35.4789 24.6467 35.4425 24.4796 35.4716 24.4394Z" fill="#2B2B2B" stroke="#2B2B2B" stroke-width="0.0418751"/>
<path d="M32.3256 25.9163C32.3256 25.9163 32.8893 25.7706 33.0348 25.7744C33.1803 25.7777 33.7295 26.0323 33.8895 26.1889C34.0495 26.3451 34.3768 26.7161 34.5915 26.6835C34.806 26.6508 34.8679 26.6073 34.8679 26.6073L34.7842 26.7672C34.7842 26.7672 34.6096 26.8145 34.5224 26.7928C34.4351 26.771 34.2641 26.7161 34.0932 26.5491C33.9222 26.3816 33.3949 25.9306 32.9475 25.9632C32.5001 25.9963 32.2419 26.4364 32.2419 26.4364C32.2419 26.4364 32.2456 26.2216 32.2637 26.1743C32.2819 26.127 32.1692 26.276 32.1692 26.276L32.3256 25.9163Z" fill="#2B2B2B" stroke="#2B2B2B" stroke-width="0.0418751"/>
<path d="M34.4023 26.3527C34.4059 26.356 34.5441 26.3924 34.7769 26.3924C35.0097 26.3924 35.1333 26.2907 35.1333 26.2907L35.1188 26.1998L35.1551 26.0725C35.1551 26.0725 35.3334 26.2542 35.3297 26.2907C35.3261 26.3271 35.257 26.3418 35.257 26.3418L35.2315 26.2542L35.1697 26.3309C35.1697 26.3309 34.8314 26.5997 34.646 26.5599C34.4605 26.5197 34.2895 26.4 34.3368 26.3707C34.3841 26.3418 34.4096 26.3527 34.4023 26.3527Z" fill="#2B2B2B" stroke="#2B2B2B" stroke-width="0.0418751"/>
<path d="M33.5803 26.8292C33.5803 26.8292 33.3766 26.8255 33.2857 26.869C33.1948 26.9126 33.1621 26.9674 33.1002 26.9599C33.0384 26.9528 32.9911 26.8728 33.0093 26.8401C33.0348 26.789 33.1548 26.7237 33.3839 26.7417C33.6131 26.7601 33.5803 26.8292 33.5803 26.8292Z" fill="#2B2B2B" stroke="#2B2B2B" stroke-width="0.0418751"/>
<path d="M34.2932 27.382C34.2932 27.3711 34.2786 27.0838 34.1659 26.9674C34.0531 26.851 33.9149 26.851 33.853 26.8652C33.7912 26.8799 34.0822 27.0072 34.1113 27.091C34.1404 27.1747 34.235 27.4075 34.2095 27.4657C34.184 27.5235 34.1368 27.302 33.9585 27.24C33.7803 27.1781 33.533 27.2111 33.5839 27.2911C33.6348 27.3711 33.8349 27.2982 33.9367 27.4691C34.0386 27.6399 34.1149 27.8221 34.1149 27.8221L34.1477 27.6981L34.2386 27.673L34.2495 27.4364L34.2932 27.382Z" fill="#2B2B2B" stroke="#2B2B2B" stroke-width="0.0418751"/>
<path d="M34.1477 28.3128L33.9622 27.9418C33.9622 27.9418 33.904 27.7056 33.7476 27.6399C33.5912 27.5746 33.3839 27.5855 33.3803 27.6654C33.3766 27.7454 33.7149 27.8472 33.7367 27.8911C33.7585 27.9347 33.7476 28.0076 33.7185 28.0109C33.6894 28.0147 33.5403 27.9565 33.4639 27.9745C33.3876 27.9929 33.3439 28.0909 33.2312 28.062C33.1184 28.0327 33.0238 27.673 33.0675 27.6365C33.1111 27.6001 32.9838 27.7019 32.9584 27.6072C32.9329 27.5126 32.9948 27.2182 32.9511 27.1818C32.9075 27.1453 32.6965 27.018 32.6929 26.9925C32.6893 26.9674 32.7038 25.5453 33.8931 26.7237C33.3839 26.1198 33.1839 26.1851 33.0893 26.1818C33.0202 26.1818 32.5583 26.2216 32.4419 26.8108C32.3255 27.3999 32.1873 27.0327 32.1873 27.0327C32.1873 27.0327 32.1619 27.2873 32.2855 27.3602C32.4092 27.4326 32.2273 27.6437 32.2273 27.6437C32.2273 27.6437 32.0055 27.1018 32.0382 26.8652C31.9946 27.0545 31.9982 27.5235 32.2782 28.0364C32.6056 28.3819 32.9148 28.7023 33.7367 29.062C34.1695 28.4003 34.1477 28.3204 34.1477 28.3128Z" fill="#2B2B2B" stroke="#2B2B2B" stroke-width="0.0523439" stroke-linejoin="round"/>
<path d="M33.3694 28.3166C33.3694 28.3166 33.6094 28.3455 33.6748 28.4694C33.7403 28.593 33.7694 28.7823 33.7694 28.7823C33.8094 28.7023 33.8276 28.6332 33.9076 28.575C33.9877 28.5168 34.0459 28.5092 34.0422 28.4657C34.0386 28.4221 33.7876 28.1566 33.6603 28.142C33.533 28.1273 33.3112 28.2802 33.3112 28.2802C33.3112 28.2802 33.2712 28.3384 33.3694 28.3166Z" fill="#8A9396" stroke="#2B2B2B" stroke-width="0.0523439" stroke-linejoin="round"/>
<path d="M33.9177 28.9422C33.9177 28.9422 34.5398 29.2257 35.5644 29.2441" stroke="#8A9396" stroke-width="0.0523439" stroke-linecap="round"/>
<path d="M35.9945 26.0545C35.9945 26.0545 35.9413 26.5767 35.5397 27.6068" stroke="#2B2B2B" stroke-width="0.0523439" stroke-linecap="round"/>
<path d="M35.9145 26.3757C35.9145 26.3757 35.7939 26.7505 35.4594 27.0314" stroke="#2B2B2B" stroke-width="0.0418751"/>
<mask id="mask1_1_36037" style="mask-type:alpha" maskUnits="userSpaceOnUse" x="3" y="6" width="24" height="18">
<rect x="3" y="6" width="24" height="18" fill="#C4C4C4"/>
</mask>
<g mask="url(#mask1_1_36037)">
<path d="M3 6L27 24L3 6ZM27 6L3 24L27 6Z" fill="black"/>
<path d="M27 6L3 24M3 6L27 24L3 6Z" stroke="white" stroke-width="2.4"/>
<path d="M3 6L27 24L3 6ZM27 6L3 24L27 6Z" fill="black"/>
<path d="M27 6L3 24M3 6L27 24L3 6Z" stroke="#EE5757" stroke-width="1.6"/>
<path d="M15 6V27V6ZM3 15H31H3Z" fill="black"/>
<path d="M3 15H31M15 6V27V6Z" stroke="white" stroke-width="4"/>
<path d="M15 6V27V6ZM3 15H31H3Z" fill="black"/>
<path d="M3 15H31M15 6V27V6Z" stroke="#EE5757" stroke-width="2.4"/>
</g>
</g>
<defs>
<linearGradient id="paint0_linear_1_36037" x1="40.2961" y1="18.8505" x2="40.315" y2="17.6204" gradientUnits="userSpaceOnUse">
<stop stop-color="#474747"/>
<stop offset="1" stop-color="#FF5500"/>
</linearGradient>
<linearGradient id="paint1_linear_1_36037" x1="39.875" y1="23.4764" x2="39.8774" y2="24.1742" gradientUnits="userSpaceOnUse">
<stop stop-color="#B50000"/>
<stop offset="1" stop-color="#FFC500"/>
</linearGradient>
<linearGradient id="paint2_linear_1_36037" x1="42.9302" y1="23.9008" x2="44.068" y2="23.8857" gradientUnits="userSpaceOnUse">
<stop stop-color="#D5DFFF"/>
<stop offset="1" stop-color="white"/>
</linearGradient>
<linearGradient id="paint3_linear_1_36037" x1="40.0778" y1="18.617" x2="40.4855" y2="18.617" gradientUnits="userSpaceOnUse">
<stop stop-color="#474747"/>
<stop offset="1" stop-color="#FF5500"/>
</linearGradient>
<linearGradient id="paint4_linear_1_36037" x1="46.002" y1="29.6208" x2="45.8029" y2="28.3829" gradientUnits="userSpaceOnUse">
<stop stop-color="#D5DFFF"/>
<stop offset="1" stop-color="white"/>
</linearGradient>
<linearGradient id="paint5_linear_1_36037" x1="43.2072" y1="24.3258" x2="42.6994" y2="23.5061" gradientUnits="userSpaceOnUse">
<stop stop-color="#D5DFFF"/>
<stop offset="1" stop-color="white"/>
</linearGradient>
</defs>
</svg>
