<svg width="54" height="48" viewBox="0 0 54 48" fill="none" xmlns="http://www.w3.org/2000/svg">
<mask id="mask0_1_31243" style="mask-type:alpha" maskUnits="userSpaceOnUse" x="3" y="6" width="48" height="36">
<path d="M3.56934 15.1356C4.16681 10.4125 8.0415 7.00193 12.7861 6.60887C16.6412 6.28949 21.6196 6 27 6C32.3804 6 37.3588 6.28949 41.2139 6.60887C45.9585 7.00193 49.8332 10.4125 50.4307 15.1356C50.752 17.6759 51 20.704 51 24C51 27.296 50.752 30.3241 50.4307 32.8644C49.8332 37.5875 45.9585 40.9981 41.2139 41.3911C37.3588 41.7105 32.3804 42 27 42C21.6196 42 16.6412 41.7105 12.7861 41.3911C8.0415 40.9981 4.16681 37.5875 3.56934 32.8644C3.248 30.3241 3 27.296 3 24C3 20.704 3.248 17.6759 3.56934 15.1356Z" fill="#00D0BF"/>
</mask>
<g mask="url(#mask0_1_31243)">
<rect x="3" width="48" height="49" fill="#1C6864"/>
<path d="M3 -1H59L-2.5 48H3V-1Z" fill="#3F6FEB"/>
<path d="M10.5 11L11.0613 12.7275H12.8776L11.4082 13.7951L11.9695 15.5225L10.5 14.4549L9.03054 15.5225L9.59182 13.7951L8.12236 12.7275H9.93871L10.5 11Z" fill="#F5F5F5"/>
<path d="M19.5 11L20.0613 12.7275H21.8776L20.4082 13.7951L20.9695 15.5225L19.5 14.4549L18.0305 15.5225L18.5918 13.7951L17.1224 12.7275H18.9387L19.5 11Z" fill="#F5F5F5"/>
<path d="M15 15L15.5613 16.7275H17.3776L15.9082 17.7951L16.4695 19.5225L15 18.4549L13.5305 19.5225L14.0918 17.7951L12.6224 16.7275H14.4387L15 15Z" fill="#F5F5F5"/>
<path d="M10.5 19L11.0613 20.7275H12.8776L11.4082 21.7951L11.9695 23.5225L10.5 22.4549L9.03054 23.5225L9.59182 21.7951L8.12236 20.7275H9.93871L10.5 19Z" fill="#F5F5F5"/>
<path d="M19.5 19L20.0613 20.7275H21.8776L20.4082 21.7951L20.9695 23.5225L19.5 22.4549L18.0305 23.5225L18.5918 21.7951L17.1224 20.7275H18.9387L19.5 19Z" fill="#F5F5F5"/>
<path d="M1 44L53 4" stroke="#FCD95E" stroke-width="3"/>
</g>
</svg>
