<svg width="54" height="54" viewBox="0 0 54 54" fill="none" xmlns="http://www.w3.org/2000/svg">
<mask id="mask0_1_31243" style="mask-type:alpha" maskUnits="userSpaceOnUse" x="3" y="9" width="48" height="36">
<path d="M3.56934 18.1356C4.16681 13.4125 8.0415 10.0019 12.7861 9.60887C16.6412 9.28949 21.6196 9 27 9C32.3804 9 37.3588 9.28949 41.2139 9.60887C45.9585 10.0019 49.8332 13.4125 50.4307 18.1356C50.752 20.6759 51 23.704 51 27C51 30.296 50.752 33.3241 50.4307 35.8644C49.8332 40.5875 45.9585 43.9981 41.2139 44.3911C37.3588 44.7105 32.3804 45 27 45C21.6196 45 16.6412 44.7105 12.7861 44.3911C8.04151 43.9981 4.16681 40.5875 3.56934 35.8644C3.248 33.3241 3 30.296 3 27C3 23.704 3.248 20.6759 3.56934 18.1356Z" fill="#00D0BF"/>
</mask>
<g mask="url(#mask0_1_31243)">
<rect x="3" y="3" width="48" height="49" fill="#1C6864"/>
<path d="M3 2H59L-2.5 51H3V2Z" fill="#3F6FEB"/>
<path d="M10.5 14L11.0613 15.7275H12.8776L11.4082 16.7951L11.9695 18.5225L10.5 17.4549L9.03054 18.5225L9.59182 16.7951L8.12236 15.7275H9.93871L10.5 14Z" fill="#F5F5F5"/>
<path d="M19.5 14L20.0613 15.7275H21.8776L20.4082 16.7951L20.9695 18.5225L19.5 17.4549L18.0305 18.5225L18.5918 16.7951L17.1224 15.7275H18.9387L19.5 14Z" fill="#F5F5F5"/>
<path d="M15 18L15.5613 19.7275H17.3776L15.9082 20.7951L16.4695 22.5225L15 21.4549L13.5305 22.5225L14.0918 20.7951L12.6224 19.7275H14.4387L15 18Z" fill="#F5F5F5"/>
<path d="M10.5 22L11.0613 23.7275H12.8776L11.4082 24.7951L11.9695 26.5225L10.5 25.4549L9.03054 26.5225L9.59182 24.7951L8.12236 23.7275H9.93871L10.5 22Z" fill="#F5F5F5"/>
<path d="M19.5 22L20.0613 23.7275H21.8776L20.4082 24.7951L20.9695 26.5225L19.5 25.4549L18.0305 26.5225L18.5918 24.7951L17.1224 23.7275H18.9387L19.5 22Z" fill="#F5F5F5"/>
<path d="M1 47L53 7" stroke="#FCD95E" stroke-width="3"/>
</g>
</svg>
