<svg width="54" height="54" viewBox="0 0 54 54" fill="none" xmlns="http://www.w3.org/2000/svg">
<mask id="mask0_1_33921" style="mask-type:alpha" maskUnits="userSpaceOnUse" x="3" y="9" width="48" height="36">
<path d="M3.56934 18.1356C4.16681 13.4125 8.0415 10.0019 12.7861 9.60887C16.6412 9.28949 21.6196 9 27 9C32.3804 9 37.3588 9.28949 41.2139 9.60887C45.9585 10.0019 49.8332 13.4125 50.4307 18.1356C50.752 20.6759 51 23.704 51 27C51 30.296 50.752 33.3241 50.4307 35.8644C49.8332 40.5875 45.9585 43.9981 41.2139 44.3911C37.3588 44.7105 32.3804 45 27 45C21.6196 45 16.6412 44.7105 12.7861 44.3911C8.04151 43.9981 4.16681 40.5875 3.56934 35.8644C3.248 33.3241 3 30.296 3 27C3 23.704 3.248 20.6759 3.56934 18.1356Z" fill="#00D0BF"/>
</mask>
<g mask="url(#mask0_1_33921)">
<rect x="3" y="35" width="48" height="10" fill="#59C785"/>
<rect x="3" y="19" width="48" height="16" fill="#FCD95E"/>
<rect x="3" y="9" width="48" height="10" fill="#59C785"/>
<path d="M19 27L3 9V45L19 27Z" fill="#EE5757"/>
</g>
<path d="M29 23L29.8981 25.7639H32.8042L30.4531 27.4721L31.3511 30.2361L29 28.5279L26.6489 30.2361L27.5469 27.4721L25.1958 25.7639H28.1019L29 23Z" fill="#2C2929"/>
<path d="M41 23L41.8981 25.7639H44.8042L42.4531 27.4721L43.3511 30.2361L41 28.5279L38.6489 30.2361L39.5469 27.4721L37.1958 25.7639H40.1019L41 23Z" fill="#2C2929"/>
</svg>
