<svg width="54" height="48" viewBox="0 0 54 48" fill="none" xmlns="http://www.w3.org/2000/svg">
<mask id="mask0_1_40104" style="mask-type:alpha" maskUnits="userSpaceOnUse" x="3" y="6" width="48" height="36">
<path d="M3.56934 15.1356C4.16681 10.4125 8.0415 7.00193 12.7861 6.60887C16.6412 6.28949 21.6196 6 27 6C32.3804 6 37.3588 6.28949 41.2139 6.60887C45.9585 7.00193 49.8332 10.4125 50.4307 15.1356C50.752 17.6759 51 20.704 51 24C51 27.296 50.752 30.3241 50.4307 32.8644C49.8332 37.5875 45.9585 40.9981 41.2139 41.3911C37.3588 41.7105 32.3804 42 27 42C21.6196 42 16.6412 41.7105 12.7861 41.3911C8.0415 40.9981 4.16681 37.5875 3.56934 32.8644C3.248 30.3241 3 27.296 3 24C3 20.704 3.248 17.6759 3.56934 15.1356Z" fill="#00D0BF"/>
</mask>
<g mask="url(#mask0_1_40104)">
<rect x="3" y="30" width="48" height="12" fill="#EE5757"/>
<rect x="3" y="18" width="48" height="12" fill="#3F6FEB"/>
<rect x="3" y="6" width="48" height="12" fill="#F5F5F5"/>
<path d="M25.824 14.4983H25.3162H18.0798H10.8437H10.3358L10.2827 15.0034C10.2712 15.1132 10 17.7592 10 23.5704C10 26.3007 10.9229 28.7094 12.7433 30.7297C14.0186 32.1452 15.6841 33.3369 17.8351 34.3729L18.0798 34.4908L18.3246 34.3729C20.4756 33.3369 22.1412 32.1452 23.4167 30.7297C25.237 28.7094 26.16 26.3007 26.16 23.5704C26.16 17.7593 25.8887 15.1132 25.8772 15.0034L25.824 14.4983Z" fill="white"/>
<path d="M18.0798 33.8647C14.9875 32.3752 10.5641 29.4187 10.5641 23.5704C10.5641 17.722 10.8437 15.0624 10.8437 15.0624H18.0798H25.3162C25.3162 15.0624 25.5959 17.7221 25.5959 23.5704C25.5959 29.4187 21.1724 32.3752 18.0798 33.8647Z" fill="#EE5757"/>
<path d="M18.7421 22.037C19.5794 22.0505 21.213 22.0833 22.6677 21.5966C22.6677 21.5966 22.6293 22.1171 22.6293 22.7234C22.6293 23.3299 22.6677 23.8505 22.6677 23.8505C21.3334 23.4039 19.6856 23.3946 18.7421 23.4066V26.6368H17.4194V23.4066C16.4758 23.3946 14.8281 23.4039 13.4938 23.8505C13.4938 23.8505 13.5322 23.3299 13.5322 22.7234C13.5322 22.1171 13.4938 21.5966 13.4938 21.5966C14.9485 22.0833 16.5821 22.0505 17.4194 22.037V20.0083C16.6562 20.0015 15.5565 20.038 14.3131 20.4541C14.3131 20.4541 14.3515 19.9336 14.3515 19.3271C14.3515 18.7207 14.3131 18.2002 14.3131 18.2002C15.5546 18.6156 16.6531 18.6526 17.416 18.646C17.3768 17.3613 17.0025 15.7422 17.0025 15.7422C17.0025 15.7422 17.7728 15.8023 18.0807 15.8023C18.3889 15.8023 19.1589 15.7422 19.1589 15.7422C19.1589 15.7422 18.7848 17.3614 18.7455 18.6459C19.5085 18.6525 20.6068 18.6155 21.8484 18.2C21.8484 18.2 21.81 18.7205 21.81 19.327C21.81 19.9335 21.8484 20.454 21.8484 20.454C20.605 20.0379 19.5053 20.0014 18.7421 20.0082V22.0368V22.037Z" fill="white"/>
<path d="M18.079 26.2869C16.5214 26.2869 15.6872 28.4473 15.6872 28.4473C15.6872 28.4473 15.2243 27.4229 13.9535 27.4229C13.0937 27.4229 12.4601 28.1876 12.0573 28.8958C13.6215 31.3842 16.1173 32.9199 18.079 33.8647C20.041 32.9198 22.5384 31.3846 24.1027 28.8958C23.6999 28.1876 23.0663 27.4229 22.2065 27.4229C20.9356 27.4229 20.4708 28.4473 20.4708 28.4473C20.4708 28.4473 19.6367 26.2869 18.079 26.2869Z" fill="#3F6FEB"/>
</g>
</svg>
