<svg width="54" height="54" viewBox="0 0 54 54" fill="none" xmlns="http://www.w3.org/2000/svg">
<mask id="mask0_1_40104" style="mask-type:alpha" maskUnits="userSpaceOnUse" x="3" y="9" width="48" height="36">
<path d="M3.56934 18.1356C4.16681 13.4125 8.0415 10.0019 12.7861 9.60887C16.6412 9.28949 21.6196 9 27 9C32.3804 9 37.3588 9.28949 41.2139 9.60887C45.9585 10.0019 49.8332 13.4125 50.4307 18.1356C50.752 20.6759 51 23.704 51 27C51 30.296 50.752 33.3241 50.4307 35.8644C49.8332 40.5875 45.9585 43.9981 41.2139 44.3911C37.3588 44.7105 32.3804 45 27 45C21.6196 45 16.6412 44.7105 12.7861 44.3911C8.04151 43.9981 4.16681 40.5875 3.56934 35.8644C3.248 33.3241 3 30.296 3 27C3 23.704 3.248 20.6759 3.56934 18.1356Z" fill="#00D0BF"/>
</mask>
<g mask="url(#mask0_1_40104)">
<rect x="3" y="33" width="48" height="12" fill="#EE5757"/>
<rect x="3" y="21" width="48" height="12" fill="#3F6FEB"/>
<rect x="3" y="9" width="48" height="12" fill="#F5F5F5"/>
<path d="M25.824 17.4983H25.3162H18.0798H10.8437H10.3358L10.2827 18.0034C10.2712 18.1132 10 20.7592 10 26.5704C10 29.3007 10.9229 31.7094 12.7433 33.7297C14.0186 35.1452 15.6841 36.3369 17.8351 37.3729L18.0798 37.4908L18.3246 37.3729C20.4756 36.3369 22.1413 35.1452 23.4167 33.7297C25.237 31.7094 26.16 29.3007 26.16 26.5704C26.16 20.7593 25.8887 18.1132 25.8772 18.0034L25.824 17.4983Z" fill="white"/>
<path d="M18.0798 36.8647C14.9875 35.3752 10.5641 32.4187 10.5641 26.5704C10.5641 20.722 10.8437 18.0624 10.8437 18.0624H18.0798H25.3162C25.3162 18.0624 25.5959 20.7221 25.5959 26.5704C25.5959 32.4187 21.1724 35.3752 18.0798 36.8647Z" fill="#EE5757"/>
<path d="M18.7421 25.037C19.5794 25.0505 21.213 25.0833 22.6677 24.5966C22.6677 24.5966 22.6293 25.1171 22.6293 25.7234C22.6293 26.3299 22.6677 26.8505 22.6677 26.8505C21.3334 26.4039 19.6856 26.3946 18.7421 26.4066V29.6368H17.4194V26.4066C16.4758 26.3946 14.8281 26.4039 13.4938 26.8505C13.4938 26.8505 13.5322 26.3299 13.5322 25.7234C13.5322 25.1171 13.4938 24.5966 13.4938 24.5966C14.9485 25.0833 16.5821 25.0505 17.4194 25.037V23.0083C16.6562 23.0015 15.5565 23.038 14.3131 23.4541C14.3131 23.4541 14.3515 22.9336 14.3515 22.3271C14.3515 21.7207 14.3131 21.2002 14.3131 21.2002C15.5546 21.6156 16.6531 21.6526 17.416 21.646C17.3768 20.3613 17.0025 18.7422 17.0025 18.7422C17.0025 18.7422 17.7728 18.8023 18.0807 18.8023C18.3889 18.8023 19.1589 18.7422 19.1589 18.7422C19.1589 18.7422 18.7848 20.3614 18.7455 21.6459C19.5085 21.6525 20.6068 21.6155 21.8484 21.2C21.8484 21.2 21.81 21.7205 21.81 22.327C21.81 22.9335 21.8484 23.454 21.8484 23.454C20.605 23.0379 19.5053 23.0014 18.7421 23.0082V25.0368V25.037Z" fill="white"/>
<path d="M18.079 29.2869C16.5214 29.2869 15.6872 31.4473 15.6872 31.4473C15.6872 31.4473 15.2243 30.4229 13.9535 30.4229C13.0937 30.4229 12.4601 31.1876 12.0573 31.8958C13.6215 34.3842 16.1173 35.9199 18.079 36.8647C20.041 35.9198 22.5384 34.3846 24.1027 31.8958C23.6999 31.1876 23.0663 30.4229 22.2065 30.4229C20.9356 30.4229 20.4708 31.4473 20.4708 31.4473C20.4708 31.4473 19.6367 29.2869 18.079 29.2869Z" fill="#3F6FEB"/>
</g>
</svg>
