<svg width="54" height="54" viewBox="0 0 54 54" fill="none" xmlns="http://www.w3.org/2000/svg">
<mask id="mask0_1_41578" style="mask-type:alpha" maskUnits="userSpaceOnUse" x="3" y="9" width="48" height="36">
<path d="M3.56934 18.1356C4.16681 13.4125 8.0415 10.0019 12.7861 9.60887C16.6412 9.28949 21.6196 9 27 9C32.3804 9 37.3588 9.28949 41.2139 9.60887C45.9585 10.0019 49.8332 13.4125 50.4307 18.1356C50.752 20.6759 51 23.704 51 27C51 30.296 50.752 33.3241 50.4307 35.8644C49.8332 40.5875 45.9585 43.9981 41.2139 44.3911C37.3588 44.7105 32.3804 45 27 45C21.6196 45 16.6412 44.7105 12.7861 44.3911C8.04151 43.9981 4.16681 40.5875 3.56934 35.8644C3.248 33.3241 3 30.296 3 27C3 23.704 3.248 20.6759 3.56934 18.1356Z" fill="#00D0BF"/>
</mask>
<g mask="url(#mask0_1_41578)">
<rect x="3" y="33" width="48" height="12" fill="#EE5757"/>
<rect x="3" y="21" width="48" height="12" fill="#3F6FEB"/>
<rect x="3" y="9" width="48" height="12" fill="#F5F5F5"/>
<path fill-rule="evenodd" clip-rule="evenodd" d="M15.9979 16C15.9284 16.0001 15.8591 16.0015 15.79 16.0035C14.446 16.0384 13.1843 16.3854 12.2859 16.8087L12.286 16.8099C12.1877 16.851 12.0915 16.8921 12 16.9333L12.3088 21.7703C12.5228 24.298 14.17 25.7697 16.0003 26.3475C17.8305 25.7697 19.4777 24.298 19.6916 21.7703L19.9987 16.9487C19.907 16.9012 19.8109 16.8552 19.7128 16.8099L19.7129 16.8087C18.7686 16.3638 17.4231 16.0025 16.0025 16.0001C16.0015 16.0001 16.0004 16 15.9994 16C15.9989 16 15.9984 16 15.9979 16V16Z" fill="#3F6FEB"/>
<path fill-rule="evenodd" clip-rule="evenodd" d="M16.0002 19.3471L15.0968 21.1112L14.5128 20.3525L12.9868 22.3692C13.0143 22.4944 13.0467 22.6152 13.0821 22.7332C13.2525 23.0209 13.5801 23.3492 14.0001 23.3492C14.3335 23.3492 14.6668 23.0826 15.0002 23.0826C15.3335 23.0826 15.6668 23.3492 16.0002 23.3492C16.3335 23.3492 16.6669 23.0826 17.0002 23.0826C17.3336 23.0826 17.6669 23.3492 18.0003 23.3492C18.4165 23.3492 18.7419 23.027 18.9136 22.7412C18.9503 22.6201 18.9832 22.4953 19.0116 22.3665L17.4876 20.3525L16.9036 21.1112L16.0002 19.3471ZM15.0002 23.3492C14.6668 23.3492 14.3335 23.6159 14.0001 23.6159C13.7363 23.6159 13.5097 23.5225 13.3341 23.3899C13.3961 23.5215 13.4617 23.6495 13.5334 23.7706C13.671 23.8561 13.8273 23.9139 14.0001 23.9139C14.3335 23.9139 14.6668 23.6473 15.0002 23.6473C15.3335 23.6473 15.6668 23.9139 16.0002 23.9139C16.3335 23.9139 16.6669 23.6473 17.0002 23.6473C17.3336 23.6473 17.6669 23.9139 18.0003 23.9139C18.1707 23.9139 18.3248 23.8574 18.4609 23.7739C18.5327 23.6532 18.5982 23.5257 18.6603 23.3946C18.4856 23.5247 18.261 23.6159 18.0003 23.6159C17.6669 23.6159 17.3336 23.3492 17.0002 23.3492C16.6669 23.3492 16.3335 23.6159 16.0002 23.6159C15.6668 23.6159 15.3335 23.3492 15.0002 23.3492V23.3492ZM15.0002 23.9139C14.6668 23.9139 14.3335 24.1806 14.0001 24.1806C13.9277 24.1806 13.8588 24.1721 13.7921 24.1593C14.3688 24.9297 15.1556 25.4454 15.9995 25.742C16.8417 25.4459 17.6272 24.9298 18.2036 24.1606C18.1384 24.1729 18.0709 24.1806 18.0003 24.1806C17.6669 24.1806 17.3336 23.9139 17.0002 23.9139C16.6669 23.9139 16.3335 24.1806 16.0002 24.1806C15.6668 24.1806 15.3335 23.9139 15.0002 23.9139V23.9139Z" fill="white"/>
<path fill-rule="evenodd" clip-rule="evenodd" d="M14.4964 16.6472H15.2527L14.8745 17.302" fill="#FCD95E"/>
<path fill-rule="evenodd" clip-rule="evenodd" d="M15.9987 16C15.9269 16.0001 15.8555 16.0016 15.7841 16.0037C15.8555 16.0018 15.9269 16.0001 15.9987 16ZM12.2866 16.8099C12.1883 16.851 12.0921 16.8921 12.0006 16.9333L12.3094 21.7704C12.5234 24.2981 14.1706 25.7697 16.0008 26.3475C17.831 25.7697 19.4782 24.2981 19.6922 21.7704L19.9992 16.9487C19.9076 16.9012 19.8114 16.8552 19.7133 16.8099L19.4267 21.6102C19.2281 24.0677 17.699 25.4985 16 26.0604C14.3009 25.4985 12.7718 24.0677 12.5732 21.6102L12.2866 16.8099Z" fill="#EE5757"/>
</g>
</svg>
