<svg width="54" height="48" viewBox="0 0 54 48" fill="none" xmlns="http://www.w3.org/2000/svg">
<mask id="mask0_1_41578" style="mask-type:alpha" maskUnits="userSpaceOnUse" x="3" y="6" width="48" height="36">
<path d="M3.56934 15.1356C4.16681 10.4125 8.0415 7.00193 12.7861 6.60887C16.6412 6.28949 21.6196 6 27 6C32.3804 6 37.3588 6.28949 41.2139 6.60887C45.9585 7.00193 49.8332 10.4125 50.4307 15.1356C50.752 17.6759 51 20.704 51 24C51 27.296 50.752 30.3241 50.4307 32.8644C49.8332 37.5875 45.9585 40.9981 41.2139 41.3911C37.3588 41.7105 32.3804 42 27 42C21.6196 42 16.6412 41.7105 12.7861 41.3911C8.0415 40.9981 4.16681 37.5875 3.56934 32.8644C3.248 30.3241 3 27.296 3 24C3 20.704 3.248 17.6759 3.56934 15.1356Z" fill="#00D0BF"/>
</mask>
<g mask="url(#mask0_1_41578)">
<rect x="3" y="30" width="48" height="12" fill="#EE5757"/>
<rect x="3" y="18" width="48" height="12" fill="#3F6FEB"/>
<rect x="3" y="6" width="48" height="12" fill="#F5F5F5"/>
<path fill-rule="evenodd" clip-rule="evenodd" d="M15.9979 13C15.9284 13.0001 15.8591 13.0015 15.79 13.0035C14.446 13.0384 13.1843 13.3854 12.2859 13.8087L12.286 13.8099C12.1877 13.851 12.0915 13.8921 12 13.9333L12.3088 18.7703C12.5228 21.298 14.17 22.7697 16.0003 23.3475C17.8305 22.7697 19.4777 21.298 19.6916 18.7703L19.9987 13.9487C19.907 13.9012 19.8109 13.8552 19.7128 13.8099L19.7129 13.8087C18.7686 13.3638 17.4231 13.0025 16.0025 13.0001C16.0015 13.0001 16.0004 13 15.9994 13C15.9989 13 15.9984 13 15.9979 13Z" fill="#3F6FEB"/>
<path fill-rule="evenodd" clip-rule="evenodd" d="M16.0002 16.3471L15.0968 18.1112L14.5128 17.3525L12.9868 19.3692C13.0143 19.4944 13.0467 19.6152 13.0821 19.7332C13.2525 20.0209 13.5801 20.3492 14.0001 20.3492C14.3335 20.3492 14.6668 20.0826 15.0002 20.0826C15.3335 20.0826 15.6668 20.3492 16.0002 20.3492C16.3335 20.3492 16.6669 20.0826 17.0002 20.0826C17.3336 20.0826 17.6669 20.3492 18.0003 20.3492C18.4165 20.3492 18.7419 20.027 18.9136 19.7412C18.9503 19.6201 18.9832 19.4953 19.0116 19.3665L17.4876 17.3525L16.9036 18.1112L16.0002 16.3471ZM15.0002 20.3492C14.6668 20.3492 14.3335 20.6159 14.0001 20.6159C13.7363 20.6159 13.5097 20.5225 13.3341 20.3899C13.3961 20.5215 13.4617 20.6495 13.5334 20.7706C13.671 20.8561 13.8273 20.9139 14.0001 20.9139C14.3335 20.9139 14.6668 20.6473 15.0002 20.6473C15.3335 20.6473 15.6668 20.9139 16.0002 20.9139C16.3335 20.9139 16.6669 20.6473 17.0002 20.6473C17.3336 20.6473 17.6669 20.9139 18.0003 20.9139C18.1707 20.9139 18.3248 20.8574 18.4609 20.7739C18.5327 20.6532 18.5982 20.5257 18.6603 20.3946C18.4856 20.5247 18.261 20.6159 18.0003 20.6159C17.6669 20.6159 17.3336 20.3492 17.0002 20.3492C16.6669 20.3492 16.3335 20.6159 16.0002 20.6159C15.6668 20.6159 15.3335 20.3492 15.0002 20.3492ZM15.0002 20.9139C14.6668 20.9139 14.3335 21.1806 14.0001 21.1806C13.9277 21.1806 13.8588 21.1721 13.7921 21.1593C14.3688 21.9297 15.1556 22.4454 15.9995 22.742C16.8417 22.4459 17.6272 21.9298 18.2036 21.1606C18.1384 21.1729 18.0709 21.1806 18.0003 21.1806C17.6669 21.1806 17.3336 20.9139 17.0002 20.9139C16.6669 20.9139 16.3335 21.1806 16.0002 21.1806C15.6668 21.1806 15.3335 20.9139 15.0002 20.9139Z" fill="white"/>
<path fill-rule="evenodd" clip-rule="evenodd" d="M14.4964 13.6472H15.2527L14.8745 14.302" fill="#FCD95E"/>
<path fill-rule="evenodd" clip-rule="evenodd" d="M15.9987 13C15.9269 13.0001 15.8555 13.0016 15.7841 13.0037C15.8555 13.0018 15.9269 13.0001 15.9987 13ZM12.2866 13.8099C12.1883 13.851 12.0921 13.8921 12.0006 13.9333L12.3094 18.7704C12.5234 21.2981 14.1706 22.7697 16.0008 23.3475C17.831 22.7697 19.4782 21.2981 19.6922 18.7704L19.9992 13.9487C19.9076 13.9012 19.8114 13.8552 19.7133 13.8099L19.4267 18.6102C19.2281 21.0677 17.699 22.4985 16 23.0604C14.3009 22.4985 12.7718 21.0677 12.5732 18.6102L12.2866 13.8099Z" fill="#EE5757"/>
</g>
</svg>
