<svg width="54" height="48" viewBox="0 0 54 48" fill="none" xmlns="http://www.w3.org/2000/svg">
<mask id="mask0_1_39766" style="mask-type:alpha" maskUnits="userSpaceOnUse" x="3" y="6" width="48" height="36">
<path d="M3.56934 15.1356C4.16681 10.4125 8.0415 7.00193 12.7861 6.60887C16.6412 6.28949 21.6196 6 27 6C32.3804 6 37.3588 6.28949 41.2139 6.60887C45.9585 7.00193 49.8332 10.4125 50.4307 15.1356C50.752 17.6759 51 20.704 51 24C51 27.296 50.752 30.3241 50.4307 32.8644C49.8332 37.5875 45.9585 40.9981 41.2139 41.3911C37.3588 41.7105 32.3804 42 27 42C21.6196 42 16.6412 41.7105 12.7861 41.3911C8.0415 40.9981 4.16681 37.5875 3.56934 32.8644C3.248 30.3241 3 27.296 3 24C3 20.704 3.248 17.6759 3.56934 15.1356Z" fill="#00D0BF"/>
</mask>
<g mask="url(#mask0_1_39766)">
<rect x="3" width="48" height="49" fill="#2E50A6"/>
<rect x="2" y="13" width="50" height="22" fill="#EE5757" stroke="#FCD95E" stroke-width="2"/>
<path d="M43.4446 20.0376L41.3439 20.779L43.4446 21.5204L45.5453 20.779L43.4446 20.0376Z" fill="white" stroke="black" stroke-width="0.0871938"/>
<path d="M42.0627 20.5324H11.7076C11.5593 20.5324 11.439 20.6431 11.439 20.7795C11.439 20.916 11.5593 21.0267 11.7076 21.0267H42.0627C42.2111 21.0267 42.3313 20.916 42.3313 20.7795C42.3313 20.6431 42.2111 20.5324 42.0627 20.5324Z" fill="#FFD900" stroke="black" stroke-width="0.0871938"/>
<path d="M41.5926 21.0263C41.7161 21.0263 41.8399 20.9027 41.8399 20.7792C41.8399 20.6557 41.7162 20.532 41.5927 20.532L41.5926 21.0263ZM41.3452 21.0263C41.4687 21.0263 41.5925 20.9027 41.5925 20.7792C41.5925 20.6557 41.4688 20.532 41.3453 20.532L41.3452 21.0263ZM41.0978 21.0263C41.2213 21.0263 41.3451 20.9027 41.3451 20.7792C41.3451 20.6557 41.2214 20.532 41.0979 20.532" fill="#FFD900"/>
<path d="M41.0978 21.0263C41.2213 21.0263 41.3451 20.9027 41.3451 20.7792C41.3451 20.6557 41.2214 20.532 41.0979 20.532M41.5926 21.0263C41.7161 21.0263 41.8399 20.9027 41.8399 20.7792C41.8399 20.6557 41.7162 20.532 41.5927 20.532L41.5926 21.0263ZM41.3452 21.0263C41.4687 21.0263 41.5925 20.9027 41.5925 20.7792C41.5925 20.6557 41.4688 20.532 41.3453 20.532L41.3452 21.0263Z" stroke="black" stroke-width="0.0871938"/>
<path d="M47.6346 23.6222H6.35147C6.14967 23.6222 5.98608 23.7882 5.98608 23.9929C5.98608 24.1977 6.14967 24.3636 6.35147 24.3636H47.6346C47.8364 24.3636 48 24.1977 48 23.9929C48 23.7882 47.8364 23.6222 47.6346 23.6222Z" fill="#FFD900" stroke="black" stroke-width="0.0934219"/>
<path d="M39.1195 23.9925C36.6481 26.4637 33.3526 31.4066 26.7619 31.4066C20.995 31.4066 16.8765 26.4638 14.4042 23.9925C16.8757 21.5208 20.9946 16.5779 26.7619 16.5779C33.3523 16.5779 36.6473 21.5208 39.1195 23.9925Z" fill="white" stroke="black" stroke-width="0.0871938"/>
<path d="M25.8995 19.1571C26.557 19.8965 26.0079 20.1947 26.7039 20.2432C27.4379 20.2971 27.0218 21.0247 27.6392 21.05C28.0708 21.0689 27.5961 22.7931 28.0115 23.3621C28.4348 23.9552 28.7893 23.5359 28.7967 23.9644C28.8041 24.4076 27.6448 24.3629 27.6245 25.7281C27.5904 26.5149 26.6461 26.5653 26.601 27.0716C26.545 27.5478 28.4615 27.8151 28.4359 28.2414C28.4096 28.6664 26.3666 28.5998 26.2776 29.0845C26.2321 29.5199 29.0843 29.8767 29.3137 31.1358C28.8881 31.2749 27.6771 31.4059 26.7619 31.4066C20.996 31.4108 16.8765 26.4633 14.4052 23.992C16.8766 21.5204 20.9955 16.5775 26.7628 16.5775C26.7628 16.5775 25.051 18.1416 25.9003 19.1565L25.8995 19.1571Z" fill="black"/>
<path d="M19.3178 23.3331V21.3559V23.3331ZM20.5159 21.3559V23.3331V21.3559ZM21.7148 21.3559V23.3331V21.3559Z" fill="black"/>
<path d="M21.7148 21.3559V23.3331M19.3178 23.3331V21.3559V23.3331ZM20.5159 21.3559V23.3331V21.3559Z" stroke="white" stroke-width="0.599198"/>
<path d="M28.6081 23.3331V21.3559V23.3331ZM29.8061 21.3559V23.3331V21.3559ZM31.0051 21.3559V23.3331V21.3559Z" fill="black"/>
<path d="M31.0051 21.3559V23.3331M28.6081 23.3331V21.3559V23.3331ZM29.8061 21.3559V23.3331V21.3559Z" stroke="#2C2929" stroke-width="0.599198"/>
<path d="M19.3178 26.4887V24.5115V26.4887ZM20.5159 24.5115V26.4887V24.5115ZM21.7148 24.5115V26.4887V24.5115Z" fill="black"/>
<path d="M21.7148 24.5115V26.4887M19.3178 26.4887V24.5115V26.4887ZM20.5159 24.5115V26.4887V24.5115Z" stroke="white" stroke-width="0.599198"/>
<path d="M28.6081 26.4887V24.5115V26.4887ZM29.8061 24.5115V26.4887V24.5115ZM31.0051 24.5115V26.4887V24.5115Z" fill="black"/>
<path d="M31.0051 24.5115V26.4887M28.6081 26.4887V24.5115V26.4887ZM29.8061 24.5115V26.4887V24.5115Z" stroke="#2C2929" stroke-width="0.599198"/>
<path d="M22.9567 23.3331V21.3559V23.3331ZM24.1547 21.3559V23.3331V21.3559ZM25.3536 21.3559V23.3331V21.3559Z" fill="black"/>
<path d="M25.3536 21.3559V23.3331M22.9567 23.3331V21.3559V23.3331ZM24.1547 21.3559V23.3331V21.3559Z" stroke="white" stroke-width="0.599198"/>
<path d="M32.247 23.3331V21.3559V23.3331ZM33.4451 21.3559V23.3331V21.3559ZM34.644 21.3559V23.3331V21.3559Z" fill="black"/>
<path d="M34.644 21.3559V23.3331M32.247 23.3331V21.3559V23.3331ZM33.4451 21.3559V23.3331V21.3559Z" stroke="#2C2929" stroke-width="0.599198"/>
<path d="M22.9567 26.4887V24.5115V26.4887ZM24.1547 24.5115V26.4887V24.5115ZM25.3536 24.5115V26.4887V24.5115Z" fill="black"/>
<path d="M25.3536 24.5115V26.4887M22.9567 26.4887V24.5115V26.4887ZM24.1547 24.5115V26.4887V24.5115Z" stroke="white" stroke-width="0.599198"/>
<path d="M32.247 26.4887V24.5115V26.4887ZM33.4451 24.5115V26.4887V24.5115ZM34.644 24.5115V26.4887V24.5115Z" fill="black"/>
<path d="M34.644 24.5115V26.4887M32.247 26.4887V24.5115V26.4887ZM33.4451 24.5115V26.4887V24.5115Z" stroke="#2C2929" stroke-width="0.599198"/>
<path d="M45.0449 23.6984C44.6705 24.3468 45.3322 23.4827 46.9467 24.5682C47.2458 24.7699 47.5072 25.3026 47.5072 25.6719C47.4313 25.6211 47.3749 25.5081 47.2913 25.4346C47.1742 25.552 47.4031 26.0901 47.4366 26.3443C47.1842 26.2031 47.2085 26.1362 47.1246 25.9626C47.1413 26.1725 47.0813 26.7504 47.1817 26.973C46.9828 26.9161 46.996 26.756 46.8922 26.7239C46.9628 26.9757 46.8306 27.2499 46.8656 27.5331C46.7494 27.4181 46.6256 27.3279 46.5715 27.2814C46.5625 27.4163 46.348 27.7707 46.3431 27.8982C46.2445 27.8386 46.2177 27.7457 46.2012 27.6832C46.0786 27.8372 45.643 28.4061 45.6151 28.5797C45.2793 28.2831 44.4193 27.5611 44.3074 27.1778C44.2084 27.3953 44.0652 27.4688 43.782 27.6276C43.6702 27.0202 43.2518 26.3375 43.4756 25.8168C43.317 25.9108 43.1865 26.0048 43.028 26.1205C43.1782 25.2408 43.9438 24.2092 45.0452 23.6984H45.0449Z" fill="#3D5DA7" stroke="black" stroke-width="0.073959"/>
<path d="M43.6488 26.9093C43.8042 26.5986 43.9474 26.5001 44.0479 26.3C44.2253 25.9483 44.2506 25.6686 44.4052 25.7096C44.5597 25.7506 44.5596 25.8946 44.3593 26.2403C44.159 26.5861 44.0638 26.66 43.6488 26.9093ZM44.6998 27.6497C44.6798 27.4131 44.7484 27.3143 44.736 27.162C44.7146 26.8939 44.605 26.71 44.7475 26.6969C44.8901 26.6839 44.9567 26.7753 44.9571 27.0454C44.9576 27.3156 44.9158 27.3865 44.6999 27.6498L44.6998 27.6497ZM45.4973 28.1134C45.4351 27.7831 45.4817 27.6366 45.4418 27.4239C45.3724 27.0495 45.2352 26.8031 45.3672 26.7688C45.4993 26.7345 45.5791 26.8556 45.6291 27.2353C45.6791 27.615 45.6527 27.7193 45.4973 28.1134ZM46.3269 25.7995C46.1321 25.6516 46.0184 25.6417 45.8928 25.5467C45.6716 25.38 45.5596 25.2016 45.4884 25.2901C45.4172 25.3787 45.4678 25.4756 45.6996 25.6294C45.9315 25.7832 46.01 25.7953 46.327 25.7995H46.3269ZM46.1894 26.8954C46.0867 26.6822 45.9786 26.6281 45.9122 26.491C45.7949 26.2499 45.7947 26.0413 45.6674 26.0948C45.54 26.1482 45.5298 26.2574 45.666 26.4908C45.8021 26.7241 45.8734 26.7664 46.1894 26.8954Z" fill="#A70000"/>
<path d="M7.80007 24.3229C7.77914 24.1341 7.81956 24.1115 7.70336 23.9691C7.8725 24.0399 7.8789 24.2279 8.08454 24.0945C8.16003 24.0554 8.19296 24.0541 8.10121 23.8444C8.31562 23.8544 9.01778 24.0951 9.13024 24.1007C9.4255 24.1143 9.96446 23.7905 10.3385 24.1886C10.6976 24.5516 10.5778 24.9283 10.5778 25.4309C10.4335 25.3618 10.503 25.3277 10.3499 25.148C10.4647 25.5873 10.3438 26.3795 10.3438 26.8455C10.2849 26.7331 10.2935 26.7819 10.2359 26.6656C10.0828 27.0909 9.89929 27.1784 9.89929 27.6811C9.84405 27.484 9.89739 27.5256 9.83592 27.4219C9.68713 27.7449 8.6889 28.0208 9.07355 28.3463C8.72639 28.1427 8.57414 28.1641 8.41671 27.981C8.34884 28.0248 8.29497 28.1077 8.23189 28.2212C7.62147 27.9404 7.83974 27.3346 7.36151 26.9299C7.27875 27.0996 7.31647 27.075 7.22702 27.3511C7.1302 26.9676 7.10373 26.7239 6.99485 26.4419C6.90091 26.5981 6.90927 26.5382 6.73869 26.7745C6.66811 26.3073 6.55323 26.197 6.59867 25.8879C6.41737 26.0158 6.53605 25.964 6.3548 26.1214C6.52653 24.9242 7.26808 24.0395 7.80024 24.3229L7.80007 24.3229Z" fill="#3D5DA7" stroke="black" stroke-width="0.0922974"/>
<path d="M7.04907 26.277C7.20639 25.8915 7.34814 25.7705 7.44981 25.5223C7.62927 25.0862 7.65851 24.7375 7.80925 24.7907C7.96005 24.8439 7.95763 25.0235 7.75591 25.452C7.55418 25.8806 7.45978 25.9715 7.04907 26.2769V26.277ZM7.64455 27.2415C7.70764 26.8959 7.80712 26.77 7.848 26.5475C7.92061 26.1562 7.88012 25.8647 8.02026 25.8801C8.16039 25.8954 8.19205 26.0432 8.0988 26.4325C8.00555 26.8218 7.94119 26.9139 7.64449 27.2415H7.64455ZM8.35681 27.9119C8.37457 27.5768 8.45311 27.4461 8.46488 27.2302C8.48615 26.8507 8.41309 26.579 8.54671 26.5774C8.68032 26.5759 8.72796 26.7124 8.68701 27.0923C8.64607 27.4724 8.59665 27.5672 8.35681 27.9119ZM9.88627 25.7208C9.59384 25.4294 9.41703 25.375 9.22834 25.1876C8.896 24.8586 8.73545 24.5496 8.61712 24.6591C8.49878 24.7687 8.57 24.9328 8.91987 25.2459C9.2698 25.5591 9.39148 25.6047 9.88627 25.7208ZM9.70808 26.847C9.5176 26.5545 9.37782 26.4787 9.25481 26.2905C9.03798 25.9597 8.96336 25.6754 8.84047 25.7459C8.71746 25.8163 8.74497 25.9648 8.98002 26.2855C9.21502 26.606 9.30954 26.665 9.70808 26.8471V26.847Z" fill="#A70000"/>
<path d="M22.7664 17.8941C22.424 18.5562 23.3658 17.6739 24.8422 18.7824C25.1159 18.9884 25.5081 19.802 25.5081 20.1791C25.1937 20.1122 24.6371 19.802 24.6371 19.802C24.6371 19.802 25.2903 20.4563 25.2903 21.2106C25.0595 21.0663 24.9441 21.0879 24.8673 20.9108C24.8673 21.1549 25.0726 21.3106 25.0726 21.6877C24.9322 21.5749 24.7821 21.4748 24.624 21.3884C24.8417 21.7656 24.2272 22.4972 24.5348 22.7414C23.9969 22.6636 23.4466 22.32 23.2288 21.9428C23.1134 22.0206 23.1009 22.1427 23.0964 22.2729C23.1134 22.287 22.2776 21.6526 22.3545 21.4089C22.2424 21.5662 22.2266 21.6526 22.201 21.8299C21.894 21.5271 21.6126 21.2244 21.5102 20.8329C21.3738 21.0101 21.3652 21.0101 21.2288 21.1874C21.1265 20.5671 21.1265 20.5892 21.3311 20.0576C21.1862 20.1536 21.0668 20.2496 20.9218 20.3678C21.0591 19.4695 21.7593 18.4161 22.7665 17.8943L22.7664 17.8941Z" fill="#3D5DA7" stroke="black" stroke-width="0.0714505"/>
<path d="M21.9221 21.1293C21.9769 20.673 22.0962 20.5011 22.1318 20.2073C22.1954 19.6905 22.1199 19.3127 22.3031 19.3224C22.4862 19.3319 22.5389 19.5225 22.4484 20.0382C22.3579 20.5539 22.2816 20.6791 21.9221 21.1293V21.1293ZM22.878 21.9649C22.8409 21.5799 22.912 21.416 22.8883 21.168C22.8477 20.7317 22.7129 20.4362 22.8725 20.409C23.0321 20.3818 23.1128 20.5282 23.13 20.9687C23.1473 21.4093 23.1046 21.5267 22.8779 21.9649H22.878ZM24.3701 22.6465C24.2078 22.3134 24.0684 22.2141 23.9637 21.9996C23.7786 21.6228 23.7399 21.3151 23.5973 21.3708C23.4545 21.4267 23.4624 21.5858 23.6685 21.9547C23.8746 22.3235 23.9678 22.3988 24.3701 22.6465ZM24.8865 19.6631C24.4732 19.4455 24.261 19.4428 23.9946 19.3029C23.5256 19.0578 23.2526 18.7809 23.1557 18.9333C23.0588 19.0857 23.1882 19.2373 23.6717 19.4601C24.1552 19.683 24.3037 19.6935 24.8866 19.6631H24.8865ZM25.0379 20.9095C24.737 20.6592 24.559 20.6224 24.3649 20.4613C24.023 20.1787 23.8528 19.9011 23.7386 20.0137C23.6244 20.1262 23.7007 20.2748 24.0596 20.5411C24.4185 20.8073 24.5412 20.8403 25.0379 20.9095Z" fill="#A70000"/>
</g>
</svg>
