<svg width="54" height="54" viewBox="0 0 54 54" fill="none" xmlns="http://www.w3.org/2000/svg">
<mask id="mask0_1_39766" style="mask-type:alpha" maskUnits="userSpaceOnUse" x="3" y="9" width="48" height="36">
<path d="M3.56934 18.1356C4.16681 13.4125 8.0415 10.0019 12.7861 9.60887C16.6412 9.28949 21.6196 9 27 9C32.3804 9 37.3588 9.28949 41.2139 9.60887C45.9585 10.0019 49.8332 13.4125 50.4307 18.1356C50.752 20.6759 51 23.704 51 27C51 30.296 50.752 33.3241 50.4307 35.8644C49.8332 40.5875 45.9585 43.9981 41.2139 44.3911C37.3588 44.7105 32.3804 45 27 45C21.6196 45 16.6412 44.7105 12.7861 44.3911C8.04151 43.9981 4.16681 40.5875 3.56934 35.8644C3.248 33.3241 3 30.296 3 27C3 23.704 3.248 20.6759 3.56934 18.1356Z" fill="#00D0BF"/>
</mask>
<g mask="url(#mask0_1_39766)">
<rect x="3" y="3" width="48" height="49" fill="#2E50A6"/>
<rect x="2" y="16" width="50" height="22" fill="#EE5757" stroke="#FCD95E" stroke-width="2"/>
<path d="M43.4446 23.0376L41.3439 23.779L43.4446 24.5204L45.5453 23.779L43.4446 23.0376Z" fill="white" stroke="black" stroke-width="0.0871938"/>
<path d="M42.0627 23.5324H11.7076C11.5593 23.5324 11.439 23.6431 11.439 23.7795C11.439 23.916 11.5593 24.0267 11.7076 24.0267H42.0627C42.2111 24.0267 42.3313 23.916 42.3313 23.7795C42.3313 23.6431 42.2111 23.5324 42.0627 23.5324Z" fill="#FFD900" stroke="black" stroke-width="0.0871938"/>
<path d="M41.5926 24.0263C41.7161 24.0263 41.8399 23.9027 41.8399 23.7792C41.8399 23.6557 41.7162 23.532 41.5927 23.532L41.5926 24.0263ZM41.3452 24.0263C41.4687 24.0263 41.5925 23.9027 41.5925 23.7792C41.5925 23.6557 41.4688 23.532 41.3453 23.532L41.3452 24.0263ZM41.0978 24.0263C41.2213 24.0263 41.3451 23.9027 41.3451 23.7792C41.3451 23.6557 41.2214 23.532 41.0979 23.532" fill="#FFD900"/>
<path d="M41.0978 24.0263C41.2213 24.0263 41.3451 23.9027 41.3451 23.7792C41.3451 23.6557 41.2214 23.532 41.0979 23.532M41.5926 24.0263C41.7161 24.0263 41.8399 23.9027 41.8399 23.7792C41.8399 23.6557 41.7162 23.532 41.5927 23.532L41.5926 24.0263ZM41.3452 24.0263C41.4687 24.0263 41.5925 23.9027 41.5925 23.7792C41.5925 23.6557 41.4688 23.532 41.3453 23.532L41.3452 24.0263Z" stroke="black" stroke-width="0.0871938"/>
<path d="M47.6346 26.6222H6.35147C6.14967 26.6222 5.98608 26.7882 5.98608 26.9929C5.98608 27.1977 6.14967 27.3636 6.35147 27.3636H47.6346C47.8364 27.3636 48 27.1977 48 26.9929C48 26.7882 47.8364 26.6222 47.6346 26.6222Z" fill="#FFD900" stroke="black" stroke-width="0.0934219"/>
<path d="M39.1195 26.9925C36.6481 29.4637 33.3526 34.4066 26.7619 34.4066C20.995 34.4066 16.8765 29.4638 14.4042 26.9925C16.8757 24.5208 20.9946 19.5779 26.7619 19.5779C33.3523 19.5779 36.6473 24.5208 39.1195 26.9925Z" fill="white" stroke="black" stroke-width="0.0871938"/>
<path d="M25.8994 22.1571C26.557 22.8965 26.0079 23.1947 26.7039 23.2432C27.4379 23.2971 27.0218 24.0247 27.6392 24.05C28.0708 24.0689 27.5961 25.7931 28.0115 26.3621C28.4348 26.9552 28.7893 26.5359 28.7967 26.9644C28.8041 27.4076 27.6448 27.3629 27.6245 28.7281C27.5904 29.5149 26.6461 29.5653 26.601 30.0716C26.545 30.5478 28.4615 30.8151 28.4359 31.2414C28.4096 31.6664 26.3666 31.5998 26.2776 32.0845C26.2321 32.5199 29.0843 32.8767 29.3137 34.1358C28.8881 34.2749 27.6771 34.4059 26.7619 34.4066C20.996 34.4108 16.8765 29.4633 14.4052 26.992C16.8766 24.5204 20.9955 19.5775 26.7628 19.5775C26.7628 19.5775 25.051 21.1416 25.9003 22.1565L25.8994 22.1571Z" fill="black"/>
<path d="M19.3178 26.3331V24.3559V26.3331ZM20.5159 24.3559V26.3331V24.3559ZM21.7148 24.3559V26.3331Z" fill="black"/>
<path d="M21.7148 24.3559V26.3331M19.3178 26.3331V24.3559V26.3331ZM20.5159 24.3559V26.3331V24.3559Z" stroke="white" stroke-width="0.599198"/>
<path d="M28.6081 26.3331V24.3559V26.3331ZM29.8061 24.3559V26.3331V24.3559ZM31.0051 24.3559V26.3331Z" fill="black"/>
<path d="M31.0051 24.3559V26.3331M28.6081 26.3331V24.3559V26.3331ZM29.8061 24.3559V26.3331V24.3559Z" stroke="#2C2929" stroke-width="0.599198"/>
<path d="M19.3178 29.4887V27.5115V29.4887ZM20.5159 27.5115V29.4887V27.5115ZM21.7148 27.5115V29.4887Z" fill="black"/>
<path d="M21.7148 27.5115V29.4887M19.3178 29.4887V27.5115V29.4887ZM20.5159 27.5115V29.4887V27.5115Z" stroke="white" stroke-width="0.599198"/>
<path d="M28.6081 29.4887V27.5115V29.4887ZM29.8061 27.5115V29.4887V27.5115ZM31.0051 27.5115V29.4887Z" fill="black"/>
<path d="M31.0051 27.5115V29.4887M28.6081 29.4887V27.5115V29.4887ZM29.8061 27.5115V29.4887V27.5115Z" stroke="#2C2929" stroke-width="0.599198"/>
<path d="M22.9567 26.3331V24.3559V26.3331ZM24.1547 24.3559V26.3331V24.3559ZM25.3536 24.3559V26.3331Z" fill="black"/>
<path d="M25.3536 24.3559V26.3331M22.9567 26.3331V24.3559V26.3331ZM24.1547 24.3559V26.3331V24.3559Z" stroke="white" stroke-width="0.599198"/>
<path d="M32.247 26.3331V24.3559V26.3331ZM33.4451 24.3559V26.3331V24.3559ZM34.644 24.3559V26.3331Z" fill="black"/>
<path d="M34.644 24.3559V26.3331M32.247 26.3331V24.3559V26.3331ZM33.4451 24.3559V26.3331V24.3559Z" stroke="#2C2929" stroke-width="0.599198"/>
<path d="M22.9567 29.4887V27.5115V29.4887ZM24.1547 27.5115V29.4887V27.5115ZM25.3536 27.5115V29.4887Z" fill="black"/>
<path d="M25.3536 27.5115V29.4887M22.9567 29.4887V27.5115V29.4887ZM24.1547 27.5115V29.4887V27.5115Z" stroke="white" stroke-width="0.599198"/>
<path d="M32.247 29.4887V27.5115V29.4887ZM33.4451 27.5115V29.4887V27.5115ZM34.644 27.5115V29.4887Z" fill="black"/>
<path d="M34.644 27.5115V29.4887M32.247 29.4887V27.5115V29.4887ZM33.4451 27.5115V29.4887V27.5115Z" stroke="#2C2929" stroke-width="0.599198"/>
<path d="M45.0449 26.6984C44.6705 27.3468 45.3322 26.4827 46.9467 27.5682C47.2458 27.7699 47.5072 28.3026 47.5072 28.6719C47.4313 28.6211 47.3749 28.5081 47.2913 28.4346C47.1742 28.552 47.4031 29.0901 47.4366 29.3443C47.1842 29.2031 47.2085 29.1362 47.1246 28.9626C47.1413 29.1725 47.0813 29.7504 47.1817 29.973C46.9828 29.9161 46.996 29.756 46.8922 29.7239C46.9628 29.9757 46.8306 30.2499 46.8656 30.5331C46.7494 30.4181 46.6256 30.3279 46.5715 30.2814C46.5625 30.4163 46.348 30.7707 46.3431 30.8982C46.2445 30.8386 46.2177 30.7457 46.2012 30.6832C46.0786 30.8372 45.643 31.4061 45.6151 31.5797C45.2793 31.2831 44.4193 30.5611 44.3074 30.1778C44.2084 30.3953 44.0652 30.4688 43.782 30.6276C43.6702 30.0202 43.2518 29.3375 43.4756 28.8168C43.317 28.9108 43.1865 29.0048 43.028 29.1205C43.1782 28.2408 43.9438 27.2092 45.0452 26.6984H45.0449Z" fill="#3D5DA7" stroke="black" stroke-width="0.073959"/>
<path d="M43.6488 29.9093C43.8042 29.5986 43.9474 29.5001 44.0479 29.3C44.2253 28.9483 44.2506 28.6686 44.4052 28.7096C44.5597 28.7506 44.5596 28.8946 44.3593 29.2403C44.159 29.5861 44.0638 29.66 43.6488 29.9093V29.9093ZM44.6998 30.6497C44.6798 30.4131 44.7484 30.3143 44.736 30.162C44.7146 29.8939 44.605 29.71 44.7475 29.6969C44.8901 29.6839 44.9567 29.7753 44.9571 30.0454C44.9576 30.3156 44.9158 30.3865 44.6999 30.6498L44.6998 30.6497ZM45.4973 31.1134C45.4351 30.7831 45.4817 30.6366 45.4418 30.4239C45.3724 30.0495 45.2352 29.8031 45.3672 29.7688C45.4993 29.7345 45.5791 29.8556 45.6291 30.2353C45.6791 30.615 45.6527 30.7193 45.4973 31.1134ZM46.3269 28.7995C46.1321 28.6516 46.0184 28.6417 45.8928 28.5467C45.6716 28.38 45.5596 28.2016 45.4884 28.2901C45.4172 28.3787 45.4678 28.4756 45.6996 28.6294C45.9315 28.7832 46.01 28.7953 46.327 28.7995H46.3269ZM46.1894 29.8954C46.0867 29.6822 45.9786 29.6281 45.9122 29.491C45.7949 29.2499 45.7947 29.0413 45.6674 29.0948C45.54 29.1482 45.5298 29.2574 45.666 29.4908C45.8021 29.7241 45.8734 29.7664 46.1894 29.8954Z" fill="#A70000"/>
<path d="M7.80007 27.3229C7.77914 27.1341 7.81956 27.1115 7.70336 26.9691C7.8725 27.0399 7.8789 27.2279 8.08454 27.0945C8.16003 27.0554 8.19296 27.0541 8.10121 26.8444C8.31562 26.8544 9.01778 27.0951 9.13024 27.1007C9.4255 27.1143 9.96446 26.7905 10.3385 27.1886C10.6976 27.5516 10.5778 27.9283 10.5778 28.4309C10.4335 28.3618 10.503 28.3277 10.3499 28.148C10.4647 28.5873 10.3438 29.3795 10.3438 29.8455C10.2849 29.7331 10.2935 29.7819 10.2359 29.6656C10.0828 30.0909 9.89929 30.1784 9.89929 30.6811C9.84405 30.484 9.89739 30.5256 9.83592 30.4219C9.68713 30.7449 8.6889 31.0208 9.07355 31.3463C8.72639 31.1427 8.57414 31.1641 8.41671 30.981C8.34884 31.0248 8.29497 31.1077 8.23189 31.2212C7.62147 30.9404 7.83974 30.3346 7.36151 29.9299C7.27875 30.0996 7.31647 30.075 7.22702 30.3511C7.1302 29.9676 7.10373 29.7239 6.99485 29.4419C6.90091 29.5981 6.90927 29.5382 6.73869 29.7745C6.66811 29.3073 6.55323 29.197 6.59867 28.8879C6.41737 29.0158 6.53605 28.964 6.3548 29.1214C6.52653 27.9242 7.26808 27.0395 7.80024 27.3229L7.80007 27.3229Z" fill="#3D5DA7" stroke="black" stroke-width="0.0922974"/>
<path d="M7.04907 29.277C7.20639 28.8915 7.34814 28.7705 7.44981 28.5223C7.62927 28.0862 7.65851 27.7375 7.80925 27.7907C7.96005 27.8439 7.95763 28.0235 7.75591 28.452C7.55418 28.8806 7.45978 28.9715 7.04907 29.2769V29.277ZM7.64455 30.2415C7.70764 29.8959 7.80712 29.77 7.848 29.5475C7.92061 29.1562 7.88012 28.8647 8.02026 28.8801C8.16039 28.8954 8.19205 29.0432 8.0988 29.4325C8.00555 29.8218 7.94119 29.9139 7.64449 30.2415H7.64455ZM8.35681 30.9119C8.37457 30.5768 8.45311 30.4461 8.46488 30.2302C8.48615 29.8507 8.41309 29.579 8.54671 29.5774C8.68032 29.5759 8.72796 29.7124 8.68701 30.0923C8.64607 30.4724 8.59665 30.5672 8.35681 30.9119ZM9.88627 28.7208C9.59384 28.4294 9.41703 28.375 9.22834 28.1876C8.896 27.8586 8.73545 27.5496 8.61712 27.6591C8.49878 27.7687 8.57 27.9328 8.91987 28.2459C9.2698 28.5591 9.39148 28.6047 9.88627 28.7208V28.7208ZM9.70808 29.847C9.5176 29.5545 9.37782 29.4787 9.25481 29.2905C9.03798 28.9597 8.96336 28.6754 8.84047 28.7459C8.71746 28.8163 8.74497 28.9648 8.98002 29.2855C9.21502 29.606 9.30954 29.665 9.70808 29.8471V29.847Z" fill="#A70000"/>
<path d="M22.7664 20.8941C22.424 21.5562 23.3658 20.6739 24.8422 21.7824C25.1159 21.9884 25.5081 22.802 25.5081 23.1791C25.1937 23.1122 24.6371 22.802 24.6371 22.802C24.6371 22.802 25.2903 23.4563 25.2903 24.2106C25.0595 24.0663 24.9441 24.0879 24.8673 23.9108C24.8673 24.1549 25.0726 24.3106 25.0726 24.6877C24.9322 24.5749 24.7821 24.4748 24.624 24.3884C24.8417 24.7656 24.2272 25.4972 24.5348 25.7414C23.9969 25.6636 23.4466 25.32 23.2288 24.9428C23.1134 25.0206 23.1009 25.1427 23.0964 25.2729C23.1134 25.287 22.2776 24.6526 22.3545 24.4089C22.2424 24.5662 22.2266 24.6526 22.201 24.8299C21.894 24.5271 21.6126 24.2244 21.5102 23.8329C21.3738 24.0101 21.3652 24.0101 21.2288 24.1874C21.1265 23.5671 21.1265 23.5892 21.3311 23.0576C21.1862 23.1536 21.0668 23.2496 20.9218 23.3678C21.0591 22.4695 21.7593 21.4161 22.7665 20.8943L22.7664 20.8941Z" fill="#3D5DA7" stroke="black" stroke-width="0.0714505"/>
<path d="M21.9221 24.1293C21.9769 23.673 22.0962 23.5011 22.1318 23.2073C22.1954 22.6905 22.1199 22.3127 22.3031 22.3224C22.4862 22.3319 22.5389 22.5225 22.4484 23.0382C22.3579 23.5539 22.2816 23.6791 21.9221 24.1293V24.1293ZM22.878 24.9649C22.8409 24.5799 22.912 24.416 22.8883 24.168C22.8477 23.7317 22.7129 23.4362 22.8725 23.409C23.0321 23.3818 23.1128 23.5282 23.13 23.9687C23.1473 24.4093 23.1046 24.5267 22.8779 24.9649H22.878ZM24.3701 25.6465C24.2078 25.3134 24.0684 25.2141 23.9637 24.9996C23.7786 24.6228 23.7399 24.3151 23.5973 24.3708C23.4545 24.4267 23.4624 24.5858 23.6685 24.9547C23.8746 25.3235 23.9678 25.3988 24.3701 25.6465V25.6465ZM24.8865 22.6631C24.4732 22.4455 24.261 22.4428 23.9946 22.3029C23.5256 22.0578 23.2526 21.7809 23.1557 21.9333C23.0588 22.0857 23.1882 22.2373 23.6717 22.4601C24.1552 22.683 24.3037 22.6935 24.8866 22.6631H24.8865ZM25.0379 23.9095C24.737 23.6592 24.559 23.6224 24.3649 23.4613C24.023 23.1787 23.8528 22.9011 23.7386 23.0137C23.6244 23.1262 23.7007 23.2748 24.0596 23.5411C24.4185 23.8073 24.5412 23.8403 25.0379 23.9095V23.9095Z" fill="#A70000"/>
</g>
</svg>
