<svg width="54" height="48" viewBox="0 0 54 48" fill="none" xmlns="http://www.w3.org/2000/svg">
<mask id="mask0_1_35609" style="mask-type:alpha" maskUnits="userSpaceOnUse" x="3" y="6" width="48" height="36">
<path d="M3.56934 15.1356C4.16681 10.4125 8.0415 7.00193 12.7861 6.60887C16.6412 6.28949 21.6196 6 27 6C32.3804 6 37.3588 6.28949 41.2139 6.60887C45.9585 7.00193 49.8332 10.4125 50.4307 15.1356C50.752 17.6759 51 20.704 51 24C51 27.296 50.752 30.3241 50.4307 32.8644C49.8332 37.5875 45.9585 40.9981 41.2139 41.3911C37.3588 41.7105 32.3804 42 27 42C21.6196 42 16.6412 41.7105 12.7861 41.3911C8.0415 40.9981 4.16681 37.5875 3.56934 32.8644C3.248 30.3241 3 27.296 3 24C3 20.704 3.248 17.6759 3.56934 15.1356Z" fill="#00D0BF"/>
</mask>
<g mask="url(#mask0_1_35609)">
<rect x="3" y="24" width="48" height="18" fill="#2E50A6"/>
<rect x="3" y="6" width="48" height="18" fill="#EE5757"/>
<path d="M3 4L32 24L3 44V4Z" fill="#F5F5F5"/>
<path d="M16.3071 20.4956L16.3136 20.2449C16.3136 20.2449 16.179 20.0304 16.3354 19.8001C16.3354 19.8001 16.0033 19.6244 16.0806 19.3493C16.0806 19.3493 15.7804 19.2725 15.8025 18.9424C15.8025 18.9424 15.4786 18.9198 15.4449 18.6441C15.4449 18.6441 15.1208 18.6973 14.9783 18.4286C14.9783 18.4286 14.6622 18.4903 14.5731 18.2687C14.5731 18.2687 14.2657 18.3752 14.0835 18.1147C14.0835 18.1147 13.759 18.2458 13.623 17.9999C13.4888 18.245 13.1643 18.1147 13.1643 18.1147C12.9841 18.3742 12.6747 18.2665 12.6747 18.2665C12.5887 18.4889 12.2735 18.4258 12.2735 18.4258C12.1314 18.6948 11.8078 18.6413 11.8078 18.6413C11.776 18.9162 11.4524 18.9388 11.4524 18.9388C11.478 19.2699 11.1782 19.3449 11.1782 19.3449C11.2573 19.6199 10.9257 19.7951 10.9257 19.7951C11.086 20.0269 10.9526 20.2397 10.9526 20.2397L10.9451 20.4709L16.3081 20.4957" fill="#FFFF00"/>
<path d="M16.3072 20.4956L16.3137 20.2449C16.3137 20.2449 16.1791 20.0304 16.3355 19.8C16.3355 19.8 16.0033 19.6243 16.0807 19.3493C16.0807 19.3493 15.7804 19.2725 15.8026 18.9423C15.8026 18.9423 15.4785 18.9198 15.445 18.644C15.445 18.644 15.1209 18.6973 14.9784 18.4286C14.9784 18.4286 14.6622 18.4902 14.5731 18.2687C14.5731 18.2687 14.2658 18.3752 14.0836 18.1147C14.0836 18.1147 13.759 18.2458 13.6231 17.9999C13.4889 18.245 13.1644 18.1147 13.1644 18.1147C12.9841 18.3743 12.6747 18.2666 12.6747 18.2666C12.5886 18.489 12.2734 18.4259 12.2734 18.4259C12.1313 18.6948 11.8077 18.6413 11.8077 18.6413C11.7759 18.9164 11.4523 18.9389 11.4523 18.9389C11.4779 19.2699 11.1782 19.3449 11.1782 19.3449C11.2572 19.6199 10.9257 19.795 10.9257 19.795C11.0859 20.0268 10.9526 20.2395 10.9526 20.2395L10.9452 20.4708L16.308 20.4956H16.3072Z" fill="#F9D90F" stroke="black" stroke-width="0.0196517"/>
<path d="M16.1818 20.1826C15.3394 20.0984 14.3695 19.8983 13.6208 20.3199C13.1188 20.0241 12.42 20.0422 11.8249 20.1002C11.5017 20.158 11.1216 20.158 10.784 20.2132L10.731 20.2207C10.1182 20.2613 9.56247 20.0803 9.02997 19.8424C9.19912 20.8019 9.3867 21.7854 9.47898 22.79C9.6798 24.2778 8.77487 25.527 9.14607 26.9968C9.36762 27.7021 10.1433 28.1121 10.8532 28.1934C11.5406 28.2339 12.2518 28.3465 12.8879 28.4846C13.0089 28.5098 13.1524 28.566 13.2359 28.602C13.4111 28.6754 13.5395 28.783 13.6521 28.8982C14.0361 28.4982 14.599 28.387 15.1543 28.3284C16.1552 28.2114 17.389 28.275 18.0018 27.3684V27.3171C18.3347 26.8157 18.2904 26.0508 18.1462 25.4827C18.1365 25.2846 18.0836 25.1098 18.0548 24.9209C17.4434 23.3064 17.967 21.4905 18.2301 19.863C17.9087 20.0386 17.5502 20.1216 17.1927 20.2095C16.9076 20.2477 16.5897 20.2304 16.301 20.2148L16.1814 20.1826H16.1818Z" fill="#DC171D"/>
<path d="M17.44 24.8164C17.436 24.9227 17.4934 25.0062 17.5142 25.1045C17.6312 25.8103 17.7442 26.7451 17.0175 27.183C16.2136 27.6941 15.1594 27.4753 14.2292 27.7458C14.0434 27.7974 13.7873 27.9682 13.6566 28.0891C13.5728 28.034 13.4885 27.9492 13.3802 27.8994C12.6148 27.4924 11.6197 27.6287 10.7558 27.409C10.3218 27.2718 9.86935 26.9337 9.75936 26.4896C9.47677 25.3244 10.1535 24.3313 10.0736 23.1753C10.0219 22.2925 9.87352 21.4451 9.66968 20.6175C10.3451 20.9322 11.1269 20.9846 11.8863 20.8338C12.4487 20.7552 13.1035 20.7535 13.6305 20.9914C13.9209 20.8664 14.2609 20.8104 14.5739 20.7759C15.169 20.8338 15.8086 20.9415 16.4214 20.9372C16.8306 20.9158 17.2024 20.7975 17.5582 20.6399C17.3472 22.0079 16.9419 23.4406 17.4394 24.8164" fill="#62AFE1"/>
<path d="M16.225 25.089L16.2185 23.8027H16.3769L14.4106 22.533L14.407 21.873H14.5969L13.6137 21.169L12.6355 21.8726H12.8248L12.8284 22.5319L10.8727 23.8002L11.0289 23.8011L11.0355 25.0864L16.2245 25.09" fill="white"/>
<path d="M16.225 25.089L16.2185 23.8027H16.3769L14.4106 22.533L14.4069 21.8731H14.5969L13.6137 21.1691L12.6354 21.8726H12.8246L12.8283 22.5319L10.8726 23.8001L11.0288 23.801L11.0354 25.0863L16.2245 25.09L16.2249 25.089L16.225 25.089Z" stroke="black" stroke-width="0.084408"/>
<path d="M16.8294 26.7787L16.8298 27.1812L10.4953 27.1742L10.4926 26.7733L16.8299 26.7787" fill="white"/>
<path d="M16.8295 26.7787L16.8299 27.1812L10.4953 27.1742L10.4927 26.7734L16.8299 26.7788H16.8295V26.7787Z" stroke="black" stroke-width="0.084408"/>
<path d="M10.9159 26.7544L10.9107 25.3923L11.1672 25.3918L11.153 26.7698L11.1686 25.4029L10.799 25.3923V25.1001L16.4604 25.1064L16.4631 25.3959H16.114L16.1205 26.7752L16.1082 25.3959H16.3681L16.3738 26.7597" fill="white"/>
<path d="M14.0055 24.1234L14.0081 24.6751H14.356L14.3542 24.1234H14.0054M10.9159 26.7544L10.9106 25.3923L11.1671 25.3918L11.153 26.7698L11.1685 25.4028L10.799 25.3923V25.1L16.4603 25.1063L16.463 25.3958H16.1138L16.1203 26.7751L16.108 25.3957H16.368L16.3738 26.7595L10.9159 26.7544ZM12.133 26.4188L12.1289 25.469H11.3688L11.3731 26.4179L12.1329 26.4188H12.133ZM12.1329 26.4188L12.1289 25.469H11.3687L11.373 26.4179L12.1329 26.4188H12.1329ZM12.1329 26.4188L12.1288 25.469H11.3686L11.373 26.4179L12.1328 26.4188H12.1329ZM12.1328 26.4188L12.1287 25.469H11.3685L11.3729 26.4179L12.1327 26.4188H12.1328ZM12.1327 26.4188L12.1286 25.469H11.3685L11.3728 26.4179L12.1326 26.4188H12.1327ZM11.5754 25.6671L11.5776 26.2189H11.9255L11.9238 25.6671H11.5754ZM15.8488 26.4214L15.8445 25.4725L15.0868 25.4716L15.0905 26.4214H15.8488ZM15.2917 25.6706L15.2957 26.2206H15.6431L15.64 25.6706H15.2917V25.6706ZM15.8431 24.8749L15.8387 23.925H15.0802L15.0829 24.8749H15.8437H15.8432H15.8431ZM15.286 24.125L15.2882 24.6758H15.6357L15.6352 24.125H15.2864H15.286ZM12.1269 24.8714L12.1216 23.9233L11.3628 23.9224L11.3664 24.8708H12.1271V24.8714L12.1269 24.8714ZM11.5697 24.1215L11.5715 24.6714L11.9199 24.6723L11.9172 24.1215H11.5699H11.5697ZM13.5026 24.8731L13.499 23.925L12.7396 23.9242L12.7428 24.8731H13.5026V24.8731ZM12.9459 24.1224L12.9476 24.6724L13.2955 24.6741L13.2934 24.1223H12.946L12.9459 24.1224ZM14.563 24.875L14.5577 23.9251L13.7989 23.9242L13.8025 24.8731L14.5632 24.8749L14.563 24.875Z" stroke="black" stroke-width="0.084408"/>
<path d="M14.751 24.5837L14.7594 26.7733L12.5596 26.7697L12.5516 24.5819L14.7506 24.5836" fill="white"/>
<path d="M13.0306 21.996L13.0328 22.5476L14.2036 22.5485L14.2014 21.9967L13.0306 21.996M14.751 24.5837L14.7594 26.7734L12.5596 26.7698L12.5516 24.5819L14.7505 24.5837H14.751V24.5837ZM12.5384 25.2087L14.7532 25.2104L12.5384 25.2087ZM12.5384 25.2087L14.7532 25.2104L12.5384 25.2087ZM12.5384 25.2087L14.7532 25.2104L12.5384 25.2087ZM12.5384 25.2087L14.7532 25.2104L12.5384 25.2087ZM12.5384 25.2087L14.7532 25.2104L12.5384 25.2087ZM12.8147 26.7725L12.8073 25.225L12.8147 26.7725ZM14.4918 26.7734L14.4843 25.2267L14.4918 26.7734ZM15.554 23.6511L14.3154 22.7466L12.9234 22.7448L11.6943 23.6476L15.554 23.6511L15.554 23.6511ZM13.0306 21.996L13.0328 22.5476L14.2036 22.5485L14.2014 21.9967L13.0306 21.996V21.996Z" stroke="black" stroke-width="0.084408"/>
<path d="M13.0306 21.996L13.0328 22.5476L14.2036 22.5485L14.2014 21.9967L13.0306 21.996" stroke="black" stroke-width="0.084408"/>
<path d="M13.6138 21.3685L14.265 21.8288L12.9675 21.827L13.6138 21.3684M13.3479 22.1327L13.3497 22.4077H13.8874L13.8856 22.1327H13.3479ZM13.6138 21.3682L14.265 21.8285L12.9675 21.8267L13.6138 21.3681V21.3682ZM13.6138 21.3682L14.265 21.8285L12.9675 21.8268L13.6138 21.3682V21.3682ZM13.6138 21.3683L14.265 21.8286L12.9675 21.8269L13.6138 21.3682V21.3683ZM13.6138 21.3684L14.265 21.8287L12.9675 21.8269L13.6138 21.3683V21.3684Z" stroke="black" stroke-width="0.084408"/>
<path d="M16.2467 21.0561C16.4317 21.0517 16.4794 21.818 16.4798 22.1975C16.6387 22.2421 16.991 22.4636 17.1469 22.6639L15.3597 22.6613C15.5133 22.4636 15.8631 22.2412 16.0207 22.1966C16.0207 21.8166 16.0595 21.0507 16.2467 21.0553" fill="white"/>
<path d="M16.2466 21.0561C16.4317 21.0518 16.4794 21.818 16.4798 22.1975C16.6386 22.2421 16.9911 22.4636 17.1469 22.6641L15.3598 22.6614C15.5135 22.4637 15.8631 22.2413 16.0207 22.1967C16.0207 21.8167 16.0596 21.0509 16.2468 21.0554L16.2466 21.0561ZM12.6546 24.6451H12.8149L12.7681 24.7311L12.6546 24.6451ZM12.6546 24.6451H12.8149L12.7681 24.7311L12.6546 24.6451ZM12.6546 24.6452H12.8149L12.7681 24.7312L12.6546 24.6452ZM12.6546 24.6453H12.8149L12.7681 24.7313L12.6546 24.6453ZM12.6546 24.6454H12.8149L12.7681 24.7314C12.7681 24.7314 12.8453 24.8307 12.7694 24.9445L12.8115 25.0236H12.6569L12.6988 24.9486C12.6988 24.9486 12.6197 24.8166 12.7024 24.7314L12.6547 24.6455L12.6546 24.6454ZM12.9814 24.6455H13.1417L13.0952 24.7315C13.0952 24.7315 13.1726 24.8283 13.0958 24.9447L13.1372 25.0237H12.9832L13.0247 24.9487C13.0247 24.9487 12.9474 24.8168 13.0287 24.7316L12.9815 24.6456L12.9814 24.6455ZM13.3376 24.6456H13.4975L13.4497 24.7316C13.4497 24.7316 13.5278 24.831 13.451 24.9448L13.493 25.0257L13.3398 25.0239L13.3808 24.9489C13.3808 24.9489 13.3027 24.8179 13.384 24.7318L13.3372 24.6459H13.3376V24.6456ZM13.7398 24.6464H13.901L13.8539 24.7334C13.8539 24.7334 13.9311 24.831 13.8543 24.9452L13.8976 25.0256H13.7421L13.7836 24.9505C13.7836 24.9505 13.7064 24.8177 13.7889 24.7334L13.7403 24.6464H13.7399H13.7398ZM14.0974 24.6464H14.2573L14.2101 24.7334C14.2101 24.7334 14.2877 24.831 14.2109 24.9448L14.2533 25.0257H14.0992L14.1394 24.9506C14.1394 24.9506 14.0618 24.8187 14.1456 24.7335L14.0974 24.6464L14.0974 24.6464ZM14.4529 24.6475L14.6128 24.6465L14.5656 24.7335C14.5656 24.7335 14.6447 24.831 14.5678 24.9452L14.6079 25.0257H14.4533L14.4948 24.9506C14.4948 24.9506 14.4175 24.8186 14.5001 24.7335L14.4529 24.6475Z" stroke="black" stroke-width="0.084408"/>
<path d="M13.6619 29.5802C14.4857 29.5828 15.4988 29.4146 15.9733 29.1692L17.0156 29.077L17.0363 30.3486C16.1534 30.8355 14.1147 30.9401 13.6661 30.9366C13.2172 30.9402 11.1533 30.8338 10.2664 30.3452L10.2779 29.0726L11.3223 29.1667C11.7969 29.4109 12.8411 29.5803 13.6638 29.5803H13.6616" fill="#F9D90F"/>
<path d="M13.6619 29.5801C14.4856 29.5828 15.4988 29.4146 15.9733 29.1692L17.0156 29.0769L17.0364 30.3486C16.1534 30.8354 14.1147 30.94 13.6663 30.9365C13.2172 30.9401 11.1534 30.8337 10.2664 30.3451L10.2779 29.0726L11.3224 29.1666C11.7971 29.4108 12.841 29.5802 13.664 29.5802H13.6618" stroke="black" stroke-width="0.0196517"/>
<path d="M7.58337 24.1559L8.50162 24.4482L8.22392 25.9348L7.3547 26.0698C7.3547 26.0698 7.20822 25.2881 7.58345 24.1552" fill="#F9D90F"/>
<path d="M7.58331 24.156L8.50159 24.4482L8.22383 25.9348L7.35465 26.0698C7.35465 26.0698 7.20815 25.2881 7.58331 24.155V24.1559V24.156Z" stroke="black" stroke-width="0.0196517"/>
<path d="M8.22341 25.9184L7.35461 26.0698L7.90425 25.2881L8.22341 25.9184Z" fill="#7E7E7E"/>
<path d="M8.22349 25.9184L7.35468 26.0698L7.90425 25.2881L8.22335 25.9184" fill="#F9B60F"/>
<path d="M8.22349 25.9184L7.35468 26.0698L7.90425 25.2881L8.22335 25.9184" stroke="black" stroke-width="0.0196517"/>
<path d="M7.03414 25.2267L7.91927 25.2908C7.93914 26.0407 8.03012 28.9026 11.4479 29.058L11.3415 30.0993C7.18112 30.1424 6.86499 26.589 7.03414 25.2268" fill="#F9D90F"/>
<path d="M10.2832 30.3124L11.3264 30.0847M7.03412 25.2268L7.91926 25.2908C7.93913 26.0407 8.03007 28.9026 11.4479 29.058L11.3416 30.0992C7.18119 30.1425 6.86507 26.5889 7.03419 25.2268H7.03412ZM10.2829 30.3124L11.3261 30.0847L10.2829 30.3124ZM10.283 30.3124L11.3261 30.0847L10.283 30.3124ZM10.283 30.3124L11.3262 30.0847L10.283 30.3124ZM10.2831 30.3124L11.3263 30.0847L10.2831 30.3124Z" stroke="black" stroke-width="0.0196517"/>
<path d="M19.6682 24.1665L18.7533 24.456L19.0434 25.9405L19.9143 26.0802C19.9143 26.0802 20.0543 25.2991 19.668 24.1656" fill="#FFFF00"/>
<path d="M19.6681 24.1665L18.7534 24.456L19.0434 25.9404L19.9144 26.0804C19.9144 26.0804 20.0544 25.2991 19.668 24.1656V24.1665H19.6681Z" fill="#F9D90F" stroke="black" stroke-width="0.0196517"/>
<path d="M19.0433 25.925L19.9143 26.0812L19.3572 25.2992L19.0433 25.925Z" fill="#7E7E7E"/>
<path d="M19.0434 25.925L19.9144 26.0813L19.3573 25.2992L19.0434 25.9249" fill="#F9B60F"/>
<path d="M19.0434 25.925L19.9144 26.0813L19.3573 25.2992L19.0434 25.9249" stroke="black" stroke-width="0.0196517"/>
<path d="M20.2274 25.2387L19.3409 25.2992C19.3281 26.0483 19.2628 28.9115 15.8448 29.0633L15.961 30.1037C20.1205 30.1518 20.4066 26.5999 20.2273 25.2383" fill="#F9D90F"/>
<path d="M17.0223 30.3182L15.9765 30.089M20.2274 25.2387L19.3409 25.2993C19.3281 26.0483 19.2628 28.9115 15.8449 29.0633L15.9611 30.1036C20.1206 30.1517 20.4067 26.5998 20.2274 25.2383V25.2386L20.2274 25.2387Z" stroke="black" stroke-width="0.0196517"/>
<path d="M13.1086 30.2069C13.0853 30.222 13.0536 30.2259 13.0169 30.2242L12.8518 30.2157L12.8659 30.0096L13.0297 30.0185C13.0619 30.0206 13.0875 30.0269 13.1035 30.0366C13.1366 30.0539 13.1511 30.0856 13.1481 30.1297C13.1459 30.1677 13.1326 30.1924 13.1083 30.2069H13.1086ZM12.831 30.5315L12.8474 30.2803L13.0398 30.2936C13.1021 30.2985 13.1484 30.2821 13.1798 30.2504C13.2124 30.2194 13.2292 30.1788 13.2314 30.1329C13.2354 30.0794 13.2216 30.0357 13.1899 30.0036C13.1595 29.9726 13.1161 29.9563 13.0618 29.951L12.7868 29.9339L12.7489 30.5253L12.8305 30.5306L12.831 30.5315ZM13.4296 30.0367L13.6309 30.0388L13.4296 30.0367ZM13.4296 30.0367L13.6309 30.0388L13.4296 30.0367ZM13.4296 30.0367L13.6309 30.0388L13.4296 30.0367ZM13.4296 30.0367L13.6309 30.0388L13.4296 30.0367ZM13.4296 30.0367L13.6309 30.0388C13.6601 30.0415 13.683 30.045 13.6998 30.053C13.7308 30.0676 13.7453 30.0967 13.7453 30.139C13.7453 30.1788 13.7338 30.2053 13.7113 30.2212C13.6897 30.2356 13.6583 30.2423 13.6208 30.2423L13.4274 30.2402L13.4292 30.0367H13.4296ZM13.426 30.5607L13.4278 30.3082L13.6167 30.3108C13.6502 30.3108 13.675 30.3134 13.6921 30.3219C13.72 30.3347 13.7336 30.3616 13.7349 30.3987L13.7398 30.498C13.7411 30.5217 13.7415 30.5364 13.7429 30.5462C13.7456 30.5531 13.7469 30.5606 13.7503 30.5661H13.8518L13.8501 30.5533C13.8386 30.5472 13.8294 30.5353 13.8254 30.5171C13.8218 30.5056 13.8201 30.4883 13.8192 30.4668L13.8175 30.3878C13.8162 30.352 13.81 30.3273 13.7963 30.3137C13.783 30.2956 13.7643 30.2822 13.7429 30.2755C13.7711 30.2607 13.7923 30.2434 13.8078 30.2222C13.8224 30.1987 13.8298 30.1692 13.8298 30.133C13.8298 30.0651 13.8021 30.0187 13.7456 29.9936C13.7151 29.9799 13.6762 29.9727 13.6304 29.972L13.3465 29.9692L13.3443 30.5623H13.4259L13.426 30.5607ZM14.056 30.4366C14.0198 30.3925 14.0003 30.3373 13.9959 30.2721C13.9918 30.19 14.0077 30.1272 14.0453 30.0849C14.0833 30.0388 14.1323 30.0169 14.1963 30.0134C14.2607 30.0098 14.3137 30.0305 14.353 30.0711C14.3933 30.1108 14.4162 30.1661 14.4202 30.2349C14.4223 30.3011 14.4108 30.3598 14.3804 30.4114C14.3504 30.4639 14.3006 30.4935 14.2269 30.4953C14.1501 30.4993 14.0927 30.4812 14.056 30.4366H14.056ZM13.9589 30.0632C13.9209 30.1219 13.9055 30.1899 13.9095 30.2719C13.9152 30.3607 13.9426 30.4339 13.9942 30.4891C14.0516 30.5443 14.1275 30.5721 14.2212 30.5669C14.3214 30.5623 14.3968 30.5244 14.4481 30.4546C14.4896 30.3916 14.5094 30.3183 14.505 30.2279C14.4992 30.147 14.4759 30.0812 14.4323 30.0323C14.377 29.9665 14.2962 29.9374 14.1867 29.9418C14.0835 29.9484 14.0075 29.9864 13.9585 30.0632H13.9589ZM16.7469 29.2101C16.8037 29.2003 16.8532 29.203 16.8982 29.2185C16.9644 29.2392 17.0091 29.2883 17.0368 29.3633L16.9551 29.3747C16.9375 29.3342 16.9123 29.3063 16.8783 29.2908C16.8452 29.2764 16.8037 29.2728 16.7561 29.2797C16.7297 29.2833 16.7044 29.2923 16.6818 29.3061C16.6591 29.32 16.6396 29.3385 16.6245 29.3604C16.5935 29.4081 16.5843 29.4717 16.598 29.5528C16.6094 29.62 16.6341 29.6769 16.6747 29.7148C16.7122 29.7537 16.7674 29.7673 16.8394 29.7573C16.8934 29.7483 16.9366 29.7268 16.967 29.6896C16.9987 29.6543 17.0081 29.6009 16.9975 29.5321L16.8072 29.5613L16.7975 29.496L17.0623 29.4553L17.114 29.7691L17.0615 29.777L17.0289 29.7047C17.0068 29.7375 16.9847 29.7626 16.9652 29.7771C16.9327 29.8027 16.8885 29.819 16.8334 29.8269C16.7618 29.8379 16.6965 29.8251 16.6373 29.7872C16.5724 29.739 16.5305 29.6676 16.5146 29.5684C16.4973 29.4708 16.5128 29.3873 16.5578 29.3215C16.6006 29.258 16.6628 29.2209 16.7468 29.209L16.7469 29.2101ZM17.3458 29.164L17.5357 29.0951C17.5616 29.0855 17.5843 29.0822 17.6036 29.0845C17.6385 29.0872 17.6641 29.1079 17.6787 29.1493C17.6924 29.1847 17.6924 29.2155 17.6769 29.2373C17.6606 29.2597 17.635 29.2761 17.5979 29.2898L17.4196 29.3539L17.3458 29.164ZM17.5357 29.6544L17.443 29.4165L17.6195 29.3529C17.6528 29.3424 17.6757 29.3366 17.6929 29.3384C17.7243 29.3424 17.7482 29.3614 17.764 29.3974L17.8043 29.4881C17.8129 29.5106 17.8201 29.5243 17.8259 29.5304C17.8285 29.5384 17.8342 29.5433 17.8386 29.5484L17.9344 29.5132L17.9292 29.5004C17.915 29.5004 17.9014 29.4925 17.8912 29.477C17.8837 29.466 17.8766 29.4501 17.8664 29.4316L17.8351 29.3575C17.8209 29.3252 17.8063 29.3054 17.7896 29.2934C17.7701 29.2831 17.7485 29.2772 17.7265 29.2761C17.7459 29.2537 17.7601 29.2311 17.7654 29.2047C17.7711 29.1777 17.7685 29.1478 17.7557 29.1142C17.7314 29.0511 17.6868 29.0167 17.6241 29.0123C17.591 29.0097 17.553 29.0167 17.5093 29.0321L17.2426 29.1269L17.4581 29.6848L17.5362 29.656L17.5357 29.6544ZM18.2301 29.3604L17.8915 28.8666L18.2631 28.6295L18.3041 28.6891L17.9997 28.8837L18.1038 29.0347L18.385 28.8537L18.4235 28.9116L18.1423 29.0925L18.2571 29.2589L18.5669 29.0607L18.608 29.119L18.2296 29.3604L18.2301 29.3604ZM18.5262 28.4875L18.6234 28.3806C18.6683 28.333 18.716 28.3113 18.7682 28.3176C18.8202 28.3219 18.8733 28.3493 18.9298 28.3988C18.9452 28.4107 18.9589 28.4261 18.973 28.4434C18.9978 28.4756 19.0123 28.5039 19.0216 28.5321C19.0297 28.5675 19.0279 28.5997 19.0155 28.6306C19.0081 28.646 18.9948 28.6641 18.9749 28.6858L18.8774 28.7917L18.5265 28.4867L18.5262 28.4875ZM19.0396 28.7192C19.1085 28.6434 19.1235 28.5615 19.0834 28.4694C19.0575 28.4153 19.0205 28.3673 18.9747 28.3286C18.9126 28.2734 18.8476 28.2451 18.7792 28.2399C18.7033 28.2342 18.6388 28.2615 18.5827 28.3228L18.4171 28.5003L18.8736 28.8985L19.0392 28.7202L19.0396 28.7192ZM19.393 28.2589L18.8676 27.9502L18.9105 27.8823L19.4367 28.1891L19.3935 28.2596L19.393 28.2589ZM19.5992 27.9005L19.032 27.6734L19.1993 27.2745L19.2682 27.3009L19.1317 27.6298L19.3026 27.6969L19.4302 27.3939L19.4955 27.4209L19.3694 27.7233L19.5605 27.801L19.7005 27.4682L19.7694 27.4941L19.599 27.9003L19.5992 27.9005ZM19.8598 27.2038L19.2631 27.0718L19.2829 26.9797L19.8343 26.7933L19.35 26.6865L19.3677 26.6142L19.9646 26.7426L19.9456 26.8322L19.3935 27.0225L19.8777 27.1271L19.8604 27.2039L19.8598 27.2038ZM19.8127 26.446L19.8202 26.371C19.8547 26.3719 19.8838 26.3667 19.9058 26.3547C19.9491 26.3312 19.9742 26.2868 19.9809 26.2208C19.9836 26.1901 19.9823 26.1631 19.9751 26.1375C19.9624 26.0881 19.9346 26.0607 19.89 26.0561C19.8569 26.0527 19.8331 26.0607 19.8158 26.0788C19.8004 26.0995 19.784 26.1294 19.7716 26.1718L19.7443 26.2499C19.7267 26.301 19.7103 26.3364 19.6927 26.3562C19.6644 26.3934 19.6247 26.4061 19.5739 26.4026C19.5196 26.3969 19.4755 26.3753 19.4441 26.3337C19.412 26.2957 19.3987 26.2414 19.4067 26.1743C19.412 26.1129 19.4323 26.0612 19.4685 26.0199C19.5021 25.9819 19.5541 25.9637 19.6208 25.9709L19.6147 26.0458C19.5821 26.0458 19.556 26.0515 19.5371 26.0648C19.5025 26.0838 19.4836 26.124 19.4778 26.1827C19.4729 26.2313 19.4796 26.264 19.4981 26.2887C19.5167 26.3094 19.54 26.3227 19.5674 26.3249C19.5966 26.3276 19.6195 26.3183 19.6354 26.2958C19.6468 26.2803 19.6604 26.2469 19.679 26.1925L19.7059 26.1104C19.7192 26.0724 19.7351 26.0433 19.7536 26.0226C19.7867 25.9882 19.8299 25.9736 19.8843 25.9777C19.9505 25.9847 19.9977 26.0121 20.022 26.0624C20.046 26.1131 20.0552 26.1692 20.0493 26.2328C20.0419 26.3048 20.0185 26.3612 19.9752 26.3992C19.932 26.4381 19.878 26.4513 19.8127 26.446H19.8127ZM7.43982 26.4097L7.45349 26.4838C7.42038 26.4905 7.39389 26.5038 7.37446 26.521C7.33962 26.5536 7.32767 26.6026 7.33962 26.6693C7.34488 26.6975 7.35502 26.7252 7.36784 26.7474C7.39433 26.7923 7.4288 26.8103 7.47249 26.8032C7.50474 26.7975 7.52598 26.7852 7.53612 26.7622C7.54584 26.7397 7.5529 26.7052 7.55513 26.6611L7.55909 26.5776C7.56182 26.526 7.56751 26.4855 7.57895 26.4629C7.59716 26.4223 7.63114 26.3971 7.68188 26.3888C7.70673 26.3838 7.73237 26.3842 7.75705 26.3899C7.78173 26.3957 7.80487 26.4068 7.82491 26.4223C7.86637 26.4511 7.89379 26.5009 7.90394 26.567C7.9169 26.6276 7.91099 26.6819 7.88717 26.7308C7.86414 26.7785 7.82008 26.8076 7.75257 26.8201L7.73925 26.745C7.77056 26.7335 7.79396 26.7224 7.80943 26.707C7.83592 26.6773 7.84398 26.6346 7.83376 26.5758C7.82584 26.5281 7.80943 26.4972 7.78481 26.4818C7.76034 26.4637 7.73616 26.4566 7.70967 26.4611C7.68016 26.4654 7.66072 26.4818 7.65136 26.5082C7.64561 26.5258 7.64129 26.5624 7.63718 26.6186L7.63315 26.705C7.63099 26.7456 7.62473 26.7792 7.61113 26.8021C7.58953 26.8446 7.55282 26.8705 7.49942 26.879C7.4319 26.8905 7.37979 26.8751 7.34272 26.8319C7.30457 26.7895 7.28125 26.7388 7.2693 26.6757C7.25612 26.6006 7.26584 26.5424 7.29593 26.4956C7.3263 26.4473 7.37439 26.4196 7.43974 26.4103L7.43982 26.4097ZM7.40231 27.192L7.98585 27.0164L8.12189 27.4274L8.05064 27.4497L7.9395 27.1121L7.76207 27.1656L7.865 27.4776L7.79698 27.4992L7.69498 27.1863L7.49726 27.2453L7.61026 27.5905L7.54044 27.6105L7.40224 27.192H7.40231ZM7.66101 27.9044L8.19798 27.6197L8.25527 27.7198L7.88616 28.1101L8.42529 28.0178L8.48086 28.1171L7.94533 28.4L7.9074 28.3342L8.22339 28.1679C8.2349 28.1612 8.25261 28.1515 8.27823 28.1379C8.30343 28.1264 8.33172 28.111 8.35993 28.0964L7.82311 28.1878L7.78381 28.118L8.15018 27.7292L8.13262 27.7381C8.1211 27.7447 8.10131 27.7544 8.07432 27.7698C8.05544 27.7819 8.03566 27.7925 8.01515 27.8016L7.69988 27.9707L7.66101 27.9036V27.9044ZM8.66153 28.6951C8.63453 28.6889 8.60797 28.6735 8.58199 28.6465L8.46855 28.5296L8.62115 28.3896L8.73559 28.5062C8.75762 28.5278 8.77173 28.549 8.77928 28.5671C8.78987 28.602 8.77928 28.6338 8.74711 28.6638C8.71796 28.6907 8.68881 28.7018 8.66145 28.6951H8.66153ZM8.23015 28.7495L8.4173 28.5777L8.55017 28.7123C8.593 28.756 8.63669 28.7759 8.68262 28.7749C8.72857 28.7729 8.77214 28.7539 8.80498 28.7217C8.84457 28.6863 8.86364 28.6448 8.86364 28.6003C8.86314 28.5571 8.84327 28.5164 8.80664 28.4785L8.61589 28.2838L8.17178 28.6917L8.22914 28.7495L8.23015 28.7495ZM8.76539 29.226L9.08729 28.7216L9.46784 28.9529L9.42811 29.013L9.1155 28.8258L9.01876 28.9786L9.30617 29.1528L9.26903 29.2107L8.98112 29.0372L8.87171 29.208L9.18827 29.3983L9.15027 29.4579L8.76532 29.2261L8.76539 29.226ZM9.71804 29.1286L9.91138 29.1901C9.93873 29.1984 9.9586 29.209 9.97184 29.221C9.9966 29.2444 10.0032 29.2779 9.98861 29.3185C9.97681 29.3537 9.95867 29.3768 9.93031 29.3865C9.90512 29.3908 9.87345 29.3908 9.8363 29.3793L9.65398 29.3211L9.71804 29.1287V29.1286ZM9.55119 29.6244L9.63159 29.3838L9.81169 29.4426C9.84386 29.4511 9.86726 29.4626 9.87877 29.4744C9.9008 29.4942 9.90756 29.5238 9.89641 29.5605L9.86949 29.6561C9.8633 29.6796 9.86013 29.695 9.85754 29.702C9.85754 29.7096 9.85754 29.7176 9.85883 29.7228L9.95385 29.7537L9.95961 29.74C9.94938 29.732 9.94363 29.7175 9.94406 29.6995C9.94622 29.6884 9.94938 29.6707 9.95557 29.6505L9.97861 29.5736C9.98782 29.5401 9.99135 29.5149 9.98293 29.4968C9.97505 29.4761 9.9616 29.4579 9.94406 29.4443C9.97407 29.439 10.0002 29.4297 10.0222 29.4133C10.043 29.3953 10.0606 29.3701 10.0712 29.3349C10.0928 29.2708 10.0809 29.2174 10.0331 29.1768C10.0093 29.1556 9.97537 29.1374 9.93074 29.1207L9.6606 29.0373L9.47166 29.6L9.55069 29.6243L9.55119 29.6244Z" fill="#012A87"/>
<path d="M10.3708 19.3828C10.4406 19.2146 11.0868 18.756 13.2076 18.9568C13.2076 18.9568 13.5661 19.1757 13.7767 19.1476C13.8969 19.132 13.7061 19.155 13.5494 19.0248C13.3896 18.8947 13.3556 18.6276 13.7207 18.6347C14.084 18.644 15.4442 18.7207 15.4698 18.843C15.4935 18.9666 14.7507 19.0182 14.4743 19.0111C14.1965 19.0037 14.2289 19.1441 14.5053 19.1335C15.3687 19.1025 16.3112 18.7984 17.3067 19.5024C17.4255 19.5881 17.0066 19.6018 16.6824 19.464C16.6824 19.464 15.8043 19.5096 15.4246 19.4473C15.4246 19.4473 15.1328 19.6847 14.7527 19.6613C14.8021 19.7844 14.6123 20.2439 13.4172 19.8983C13.22 19.9587 12.5008 20.0793 12.5794 19.8657C12.3901 19.8657 12.058 19.9265 12.0086 19.8189C11.9609 19.7131 12.5931 19.5525 12.7039 19.438C12.7039 19.438 11.3665 19.4508 11.1132 19.3585C11.1132 19.3585 10.3243 19.5356 10.3707 19.3819" fill="#BC715F"/>
<path d="M10.7994 21.2551C10.8282 21.2163 10.8396 21.1466 10.9005 21.1483C11.033 21.1836 11.1229 21.4259 11.2859 21.2687C11.3437 21.2559 11.3658 21.3346 11.4135 21.3438C11.4438 21.4784 11.552 21.3165 11.6328 21.3256C11.8054 21.2488 12.019 21.2306 12.2234 21.2687C12.2296 21.4007 12.1263 21.5463 11.9966 21.6214C11.9993 21.7542 12.1198 21.8395 12.1175 21.9732C12.0968 22.0231 12.114 22.1016 12.0385 22.1179C11.9428 22.1008 11.8482 22.0907 11.7688 22.0373C11.7591 22.0275 11.7512 22.0085 11.7308 22.0147C11.7211 22.0594 11.7908 22.1036 11.8182 22.149C11.77 22.231 11.6902 22.156 11.6231 22.1569C11.6032 22.2042 11.6222 22.2638 11.5736 22.2942C11.4888 22.2916 11.4716 22.1994 11.4196 22.1534C11.3661 22.2112 11.457 22.2456 11.47 22.2916C11.4373 22.4655 11.4416 22.6354 11.2677 22.7493L11.1511 22.8072C11.1194 22.7197 11.1393 22.5873 11.118 22.4959C11.0491 22.608 10.9953 22.7061 10.8941 22.8009C10.7759 22.762 10.707 22.6225 10.6811 22.5069C10.6315 22.3722 10.6598 22.2111 10.7662 22.1136C10.73 22.043 10.6059 22.0592 10.5883 21.9587C10.4024 21.8377 10.2996 22.1706 10.1794 21.9975C10.1406 21.836 10.187 21.635 10.304 21.5145C10.2781 21.4483 10.1915 21.4656 10.1403 21.4276C10.0234 21.3283 9.85467 21.2233 9.86316 21.0439C10.1831 20.923 10.5659 21.0118 10.7985 21.255" fill="#008830"/>
<path d="M10.9655 21.2371C10.958 21.3836 11.0644 21.2767 11.1433 21.3655C11.0816 21.3413 11.0365 21.4723 10.976 21.3972L10.938 21.4335C10.9601 21.4838 11.0028 21.4904 10.9583 21.5456C10.8921 21.5708 10.8789 21.4878 10.8479 21.4551C10.8427 21.4407 10.858 21.4132 10.8338 21.4035C10.7964 21.4352 10.757 21.4467 10.7053 21.4415C10.6913 21.4132 10.6639 21.3762 10.6917 21.3546C10.7425 21.2862 10.8212 21.3792 10.8595 21.3312C10.8656 21.2887 10.8286 21.2371 10.8766 21.2079C10.9098 21.2137 10.9522 21.1957 10.9659 21.2372L10.9655 21.2371ZM11.3615 21.3572C11.3655 21.3855 11.3469 21.4252 11.384 21.445C11.4322 21.419 11.4833 21.4389 11.5111 21.4866C11.5106 21.5122 11.5186 21.5457 11.4852 21.5582L11.41 21.5441C11.4153 21.5295 11.3914 21.5202 11.3822 21.5059C11.349 21.4959 11.3296 21.5228 11.3049 21.5391C11.3235 21.5673 11.3662 21.5828 11.356 21.619C11.312 21.6631 11.2903 21.581 11.2417 21.6017C11.2086 21.589 11.2536 21.5201 11.2016 21.4995C11.1398 21.4995 11.1808 21.6008 11.1018 21.5612C11.0735 21.5293 11.0457 21.4865 11.0762 21.4508C11.1093 21.4286 11.1654 21.4344 11.1935 21.463C11.2417 21.4098 11.2465 21.2036 11.3618 21.3572H11.3615ZM10.8684 21.57C10.9006 21.6164 10.8614 21.6794 10.9024 21.7311C10.9669 21.6107 11.0291 21.7572 11.1059 21.7457C11.1294 21.7745 11.1138 21.8141 11.1181 21.8468C11.0233 21.872 10.909 21.902 10.8252 21.8261L10.8016 21.853C10.8516 21.8994 10.8988 21.9519 10.859 22.0295C10.788 22.045 10.6781 22.0468 10.6423 21.9735C10.6236 21.9131 10.6855 21.8694 10.6203 21.8208C10.573 21.8795 10.5752 21.9581 10.4768 21.9047C10.4158 21.871 10.3976 21.8018 10.4282 21.7435C10.4918 21.6433 10.6031 21.7466 10.6719 21.6976C10.6816 21.6115 10.6498 21.5364 10.7287 21.4889C10.7964 21.4769 10.8277 21.5276 10.8687 21.57" fill="#F9D90F"/>
<path d="M11.1376 21.6225C11.1059 21.7689 10.9955 21.6149 10.9438 21.6088C11.0127 21.4864 11.0559 21.6484 11.1376 21.6225ZM11.4815 21.7817C11.4047 21.8033 11.4165 21.7076 11.3785 21.67L11.4083 21.6432C11.4361 21.6768 11.4572 21.7373 11.4815 21.7818" fill="white"/>
<path d="M11.3773 21.7526C11.3994 21.8034 11.3274 21.844 11.3888 21.881C11.4082 21.8648 11.432 21.8422 11.4422 21.8328C11.4947 21.8484 11.5556 21.8577 11.5923 21.9097C11.6316 22.0174 11.5225 22.0148 11.4608 22.0448L11.3994 22.0422C11.414 22.0123 11.3729 21.9994 11.3627 21.9787C11.3345 21.9717 11.3111 21.9804 11.2953 22.0043C11.309 22.0726 11.3924 22.1261 11.3063 22.1869C11.2334 22.1823 11.1204 22.2105 11.1271 22.1098C11.0997 22.0529 11.2012 21.9651 11.0927 21.9615C11.0569 22.0383 11.0176 22.1124 10.9244 22.0396L10.936 21.9302C11.0252 21.9328 11.1307 21.9482 11.1708 21.8485C11.1964 21.7762 11.1261 21.7094 11.1889 21.652C11.2797 21.6313 11.331 21.6923 11.3773 21.7526Z" fill="#F9D90F"/>
<path d="M11.3121 21.9172C11.335 21.9715 11.2732 21.9751 11.244 22.002C11.2047 22.0051 11.1774 21.9896 11.1535 21.9631C11.1359 21.8974 11.1848 21.8907 11.2224 21.8648C11.2661 21.8466 11.2843 21.8974 11.3121 21.9173" fill="black"/>
<path d="M11.2585 21.9526C11.2488 21.9654 11.2351 21.9614 11.2205 21.9648L11.2068 21.8992C11.2359 21.9018 11.2738 21.911 11.2584 21.9526" fill="white"/>
</g>
</svg>
