<svg width="54" height="54" viewBox="0 0 54 54" fill="none" xmlns="http://www.w3.org/2000/svg">
<mask id="mask0_1_35609" style="mask-type:alpha" maskUnits="userSpaceOnUse" x="3" y="9" width="48" height="36">
<path d="M3.56934 18.1356C4.16681 13.4125 8.0415 10.0019 12.7861 9.60887C16.6412 9.28949 21.6196 9 27 9C32.3804 9 37.3588 9.28949 41.2139 9.60887C45.9585 10.0019 49.8332 13.4125 50.4307 18.1356C50.752 20.6759 51 23.704 51 27C51 30.296 50.752 33.3241 50.4307 35.8644C49.8332 40.5875 45.9585 43.9981 41.2139 44.3911C37.3588 44.7105 32.3804 45 27 45C21.6196 45 16.6412 44.7105 12.7861 44.3911C8.04151 43.9981 4.16681 40.5875 3.56934 35.8644C3.248 33.3241 3 30.296 3 27C3 23.704 3.248 20.6759 3.56934 18.1356Z" fill="#00D0BF"/>
</mask>
<g mask="url(#mask0_1_35609)">
<rect x="3" y="27" width="48" height="18" fill="#2E50A6"/>
<rect x="3" y="9" width="48" height="18" fill="#EE5757"/>
<path d="M3 7L32 27L3 47V7Z" fill="#F5F5F5"/>
<path d="M16.3071 23.4956L16.3136 23.2449C16.3136 23.2449 16.179 23.0304 16.3354 22.8001C16.3354 22.8001 16.0033 22.6244 16.0806 22.3493C16.0806 22.3493 15.7804 22.2725 15.8025 21.9424C15.8025 21.9424 15.4786 21.9198 15.4449 21.6441C15.4449 21.6441 15.1208 21.6973 14.9783 21.4286C14.9783 21.4286 14.6622 21.4903 14.5731 21.2687C14.5731 21.2687 14.2657 21.3752 14.0835 21.1147C14.0835 21.1147 13.759 21.2458 13.623 20.9999C13.4888 21.245 13.1643 21.1147 13.1643 21.1147C12.9841 21.3742 12.6747 21.2665 12.6747 21.2665C12.5887 21.4889 12.2735 21.4258 12.2735 21.4258C12.1314 21.6948 11.8078 21.6413 11.8078 21.6413C11.776 21.9162 11.4524 21.9388 11.4524 21.9388C11.478 22.2699 11.1782 22.3449 11.1782 22.3449C11.2573 22.6199 10.9257 22.7951 10.9257 22.7951C11.086 23.0269 10.9526 23.2397 10.9526 23.2397L10.9451 23.4709L16.3081 23.4957" fill="#FFFF00"/>
<path d="M16.3072 23.4956L16.3137 23.2449C16.3137 23.2449 16.1791 23.0304 16.3355 22.8C16.3355 22.8 16.0033 22.6243 16.0807 22.3493C16.0807 22.3493 15.7804 22.2725 15.8026 21.9423C15.8026 21.9423 15.4785 21.9198 15.445 21.644C15.445 21.644 15.1209 21.6973 14.9784 21.4286C14.9784 21.4286 14.6622 21.4902 14.5731 21.2687C14.5731 21.2687 14.2658 21.3752 14.0836 21.1147C14.0836 21.1147 13.759 21.2458 13.6231 20.9999C13.4889 21.245 13.1644 21.1147 13.1644 21.1147C12.9841 21.3743 12.6747 21.2666 12.6747 21.2666C12.5886 21.489 12.2734 21.4259 12.2734 21.4259C12.1313 21.6948 11.8077 21.6413 11.8077 21.6413C11.7759 21.9164 11.4523 21.9389 11.4523 21.9389C11.4779 22.2699 11.1782 22.3449 11.1782 22.3449C11.2572 22.6199 10.9257 22.795 10.9257 22.795C11.0859 23.0268 10.9526 23.2395 10.9526 23.2395L10.9452 23.4708L16.308 23.4956H16.3072V23.4956Z" fill="#F9D90F" stroke="black" stroke-width="0.0196517"/>
<path d="M16.1818 23.1826C15.3394 23.0984 14.3695 22.8983 13.6208 23.3199C13.1188 23.0241 12.42 23.0422 11.8249 23.1002C11.5017 23.158 11.1216 23.158 10.784 23.2132L10.731 23.2207C10.1182 23.2613 9.56247 23.0803 9.02997 22.8424C9.19912 23.8019 9.3867 24.7854 9.47898 25.79C9.6798 27.2778 8.77487 28.527 9.14607 29.9968C9.36762 30.7021 10.1433 31.1121 10.8532 31.1934C11.5406 31.2339 12.2518 31.3465 12.8879 31.4846C13.0089 31.5098 13.1524 31.566 13.2359 31.602C13.4111 31.6754 13.5395 31.783 13.6521 31.8982C14.0361 31.4982 14.599 31.387 15.1543 31.3284C16.1552 31.2114 17.389 31.275 18.0018 30.3684V30.3171C18.3347 29.8157 18.2904 29.0508 18.1462 28.4827C18.1365 28.2846 18.0836 28.1098 18.0548 27.9209C17.4434 26.3064 17.967 24.4905 18.2301 22.863C17.9087 23.0386 17.5502 23.1216 17.1927 23.2095C16.9076 23.2477 16.5897 23.2304 16.301 23.2148L16.1814 23.1826H16.1818Z" fill="#DC171D"/>
<path d="M17.44 27.8164C17.436 27.9227 17.4934 28.0062 17.5142 28.1045C17.6312 28.8103 17.7442 29.7451 17.0175 30.183C16.2136 30.6941 15.1594 30.4753 14.2292 30.7458C14.0434 30.7974 13.7873 30.9682 13.6566 31.0891C13.5728 31.034 13.4885 30.9492 13.3802 30.8994C12.6148 30.4924 11.6197 30.6287 10.7558 30.409C10.3218 30.2718 9.86935 29.9337 9.75936 29.4896C9.47677 28.3244 10.1535 27.3313 10.0736 26.1753C10.0219 25.2925 9.87352 24.4451 9.66968 23.6175C10.3451 23.9322 11.1269 23.9846 11.8863 23.8338C12.4487 23.7552 13.1035 23.7535 13.6305 23.9914C13.9209 23.8664 14.2609 23.8104 14.5739 23.7759C15.169 23.8338 15.8086 23.9415 16.4214 23.9372C16.8306 23.9158 17.2024 23.7975 17.5582 23.6399C17.3472 25.0079 16.9419 26.4406 17.4394 27.8164" fill="#62AFE1"/>
<path d="M16.225 28.089L16.2185 26.8027H16.3769L14.4106 25.533L14.407 24.873H14.5969L13.6137 24.169L12.6355 24.8726H12.8248L12.8284 25.5319L10.8727 26.8002L11.0289 26.8011L11.0355 28.0864L16.2245 28.09" fill="white"/>
<path d="M16.225 28.089L16.2185 26.8027H16.3769L14.4106 25.533L14.4069 24.8731H14.5969L13.6137 24.1691L12.6354 24.8726H12.8246L12.8283 25.5319L10.8726 26.8001L11.0288 26.801L11.0354 28.0863L16.2245 28.09L16.2249 28.089L16.225 28.089Z" stroke="black" stroke-width="0.084408"/>
<path d="M16.8294 29.7787L16.8298 30.1812L10.4953 30.1742L10.4926 29.7733L16.8299 29.7787" fill="white"/>
<path d="M16.8295 29.7787L16.8299 30.1812L10.4953 30.1742L10.4927 29.7734L16.8299 29.7788H16.8295V29.7787Z" stroke="black" stroke-width="0.084408"/>
<path d="M10.9159 29.7544L10.9107 28.3923L11.1672 28.3918L11.153 29.7698L11.1686 28.4029L10.799 28.3923V28.1001L16.4604 28.1064L16.4631 28.3959H16.114L16.1205 29.7752L16.1082 28.3959H16.3681L16.3738 29.7597" fill="white"/>
<path d="M14.0055 27.1234L14.0081 27.6751H14.356L14.3542 27.1234H14.0054M10.9159 29.7544L10.9106 28.3923L11.1671 28.3918L11.153 29.7698L11.1685 28.4028L10.799 28.3923V28.1L16.4603 28.1063L16.463 28.3958H16.1138L16.1203 29.7751L16.108 28.3957H16.368L16.3738 29.7595L10.9159 29.7544ZM12.133 29.4188L12.1289 28.469H11.3688L11.3731 29.4179L12.1329 29.4188H12.133ZM12.1329 29.4188L12.1289 28.469H11.3687L11.373 29.4179L12.1329 29.4188H12.1329ZM12.1329 29.4188L12.1288 28.469H11.3686L11.373 29.4179L12.1328 29.4188H12.1329ZM12.1328 29.4188L12.1287 28.469H11.3685L11.3729 29.4179L12.1327 29.4188H12.1328ZM12.1327 29.4188L12.1286 28.469H11.3685L11.3728 29.4179L12.1326 29.4188H12.1327ZM11.5754 28.6671L11.5776 29.2189H11.9255L11.9238 28.6671H11.5754ZM15.8488 29.4214L15.8445 28.4725L15.0868 28.4716L15.0905 29.4214H15.8488ZM15.2917 28.6706L15.2957 29.2206H15.6431L15.64 28.6706H15.2917V28.6706ZM15.8431 27.8749L15.8387 26.925H15.0802L15.0829 27.8749H15.8437H15.8432H15.8431ZM15.286 27.125L15.2882 27.6758H15.6357L15.6352 27.125H15.2864H15.286ZM12.1269 27.8714L12.1216 26.9233L11.3628 26.9224L11.3664 27.8708H12.1271V27.8714L12.1269 27.8714ZM11.5697 27.1215L11.5715 27.6714L11.9199 27.6723L11.9172 27.1215H11.5699H11.5697ZM13.5026 27.8731L13.499 26.925L12.7396 26.9242L12.7428 27.8731H13.5026V27.8731ZM12.9459 27.1224L12.9476 27.6724L13.2955 27.6741L13.2934 27.1223H12.946L12.9459 27.1224ZM14.563 27.875L14.5577 26.9251L13.7989 26.9242L13.8025 27.8731L14.5632 27.8749L14.563 27.875Z" stroke="black" stroke-width="0.084408"/>
<path d="M14.751 27.5837L14.7594 29.7733L12.5596 29.7697L12.5516 27.5819L14.7506 27.5836" fill="white"/>
<path d="M13.0306 24.996L13.0328 25.5476L14.2036 25.5485L14.2014 24.9967L13.0306 24.996M14.751 27.5837L14.7594 29.7734L12.5596 29.7698L12.5516 27.5819L14.7505 27.5837H14.751V27.5837ZM12.5384 28.2087L14.7532 28.2104L12.5384 28.2087ZM12.5384 28.2087L14.7532 28.2104L12.5384 28.2087ZM12.5384 28.2087L14.7532 28.2104L12.5384 28.2087ZM12.5384 28.2087L14.7532 28.2104L12.5384 28.2087ZM12.5384 28.2087L14.7532 28.2104L12.5384 28.2087ZM12.8147 29.7725L12.8073 28.225L12.8147 29.7725ZM14.4918 29.7734L14.4843 28.2267L14.4918 29.7734ZM15.554 26.6511L14.3154 25.7466L12.9234 25.7448L11.6943 26.6476L15.554 26.6511L15.554 26.6511ZM13.0306 24.996L13.0328 25.5476L14.2036 25.5485L14.2014 24.9967L13.0306 24.996V24.996Z" stroke="black" stroke-width="0.084408"/>
<path d="M13.0306 24.996L13.0328 25.5476L14.2036 25.5485L14.2014 24.9967L13.0306 24.996" stroke="black" stroke-width="0.084408"/>
<path d="M13.6138 24.3685L14.265 24.8288L12.9675 24.827L13.6138 24.3684M13.3479 25.1327L13.3497 25.4077H13.8874L13.8856 25.1327H13.3479ZM13.6138 24.3682L14.265 24.8285L12.9675 24.8267L13.6138 24.3681V24.3682ZM13.6138 24.3682L14.265 24.8285L12.9675 24.8268L13.6138 24.3682V24.3682ZM13.6138 24.3683L14.265 24.8286L12.9675 24.8269L13.6138 24.3682V24.3683ZM13.6138 24.3684L14.265 24.8287L12.9675 24.8269L13.6138 24.3683V24.3684Z" stroke="black" stroke-width="0.084408"/>
<path d="M16.2467 24.0561C16.4317 24.0517 16.4794 24.818 16.4798 25.1975C16.6387 25.2421 16.991 25.4636 17.1469 25.6639L15.3597 25.6613C15.5133 25.4636 15.8631 25.2412 16.0207 25.1966C16.0207 24.8166 16.0595 24.0507 16.2467 24.0553" fill="white"/>
<path d="M16.2466 24.0561C16.4317 24.0518 16.4794 24.818 16.4798 25.1975C16.6386 25.2421 16.9911 25.4636 17.1469 25.6641L15.3598 25.6614C15.5135 25.4637 15.8631 25.2413 16.0207 25.1967C16.0207 24.8167 16.0596 24.0509 16.2468 24.0554L16.2466 24.0561ZM12.6546 27.6451H12.8149L12.7681 27.7311L12.6546 27.6451ZM12.6546 27.6451H12.8149L12.7681 27.7311L12.6546 27.6451ZM12.6546 27.6452H12.8149L12.7681 27.7312L12.6546 27.6452ZM12.6546 27.6453H12.8149L12.7681 27.7313L12.6546 27.6453ZM12.6546 27.6454H12.8149L12.7681 27.7314C12.7681 27.7314 12.8453 27.8307 12.7694 27.9445L12.8115 28.0236H12.6569L12.6988 27.9486C12.6988 27.9486 12.6197 27.8166 12.7024 27.7314L12.6547 27.6455L12.6546 27.6454ZM12.9814 27.6455H13.1417L13.0952 27.7315C13.0952 27.7315 13.1726 27.8283 13.0958 27.9447L13.1372 28.0237H12.9832L13.0247 27.9487C13.0247 27.9487 12.9474 27.8168 13.0287 27.7316L12.9815 27.6456L12.9814 27.6455ZM13.3376 27.6456H13.4975L13.4497 27.7316C13.4497 27.7316 13.5278 27.831 13.451 27.9448L13.493 28.0257L13.3398 28.0239L13.3808 27.9489C13.3808 27.9489 13.3027 27.8179 13.384 27.7318L13.3372 27.6459H13.3376V27.6456ZM13.7398 27.6464H13.901L13.8539 27.7334C13.8539 27.7334 13.9311 27.831 13.8543 27.9452L13.8976 28.0256H13.7421L13.7836 27.9505C13.7836 27.9505 13.7064 27.8177 13.7889 27.7334L13.7403 27.6464H13.7399H13.7398ZM14.0974 27.6464H14.2573L14.2101 27.7334C14.2101 27.7334 14.2877 27.831 14.2109 27.9448L14.2533 28.0257H14.0992L14.1394 27.9506C14.1394 27.9506 14.0618 27.8187 14.1456 27.7335L14.0974 27.6464L14.0974 27.6464ZM14.4529 27.6475L14.6128 27.6465L14.5656 27.7335C14.5656 27.7335 14.6447 27.831 14.5678 27.9452L14.6079 28.0257H14.4533L14.4948 27.9506C14.4948 27.9506 14.4175 27.8186 14.5001 27.7335L14.4529 27.6475Z" stroke="black" stroke-width="0.084408"/>
<path d="M13.6619 32.5802C14.4857 32.5828 15.4988 32.4146 15.9733 32.1692L17.0156 32.077L17.0363 33.3486C16.1534 33.8355 14.1147 33.9401 13.6661 33.9366C13.2172 33.9402 11.1533 33.8338 10.2664 33.3452L10.2779 32.0726L11.3223 32.1667C11.7969 32.4109 12.8411 32.5803 13.6638 32.5803H13.6616" fill="#F9D90F"/>
<path d="M13.6619 32.5801C14.4856 32.5828 15.4988 32.4146 15.9733 32.1692L17.0156 32.0769L17.0364 33.3486C16.1534 33.8354 14.1147 33.94 13.6663 33.9365C13.2172 33.9401 11.1534 33.8337 10.2664 33.3451L10.2779 32.0726L11.3224 32.1666C11.7971 32.4108 12.841 32.5802 13.664 32.5802H13.6618" stroke="black" stroke-width="0.0196517"/>
<path d="M7.58337 27.1559L8.50162 27.4482L8.22392 28.9348L7.3547 29.0698C7.3547 29.0698 7.20822 28.2881 7.58345 27.1552" fill="#F9D90F"/>
<path d="M7.58331 27.156L8.50159 27.4482L8.22383 28.9348L7.35465 29.0698C7.35465 29.0698 7.20815 28.2881 7.58331 27.155V27.1559V27.156Z" stroke="black" stroke-width="0.0196517"/>
<path d="M8.22341 28.9184L7.35461 29.0698L7.90425 28.2881L8.22341 28.9184" fill="#7E7E7E"/>
<path d="M8.22349 28.9184L7.35468 29.0698L7.90425 28.2881L8.22335 28.9184" fill="#F9B60F"/>
<path d="M8.22349 28.9184L7.35468 29.0698L7.90425 28.2881L8.22335 28.9184" stroke="black" stroke-width="0.0196517"/>
<path d="M7.03414 28.2267L7.91927 28.2908C7.93914 29.0407 8.03012 31.9026 11.4479 32.058L11.3415 33.0993C7.18112 33.1424 6.86499 29.589 7.03414 28.2268" fill="#F9D90F"/>
<path d="M10.2832 33.3124L11.3264 33.0847M7.03412 28.2268L7.91926 28.2908C7.93913 29.0407 8.03007 31.9026 11.4479 32.058L11.3416 33.0992C7.18119 33.1425 6.86507 29.5889 7.03419 28.2268H7.03412ZM10.2829 33.3124L11.3261 33.0847L10.2829 33.3124ZM10.283 33.3124L11.3261 33.0847L10.283 33.3124ZM10.283 33.3124L11.3262 33.0847L10.283 33.3124ZM10.2831 33.3124L11.3263 33.0847L10.2831 33.3124Z" stroke="black" stroke-width="0.0196517"/>
<path d="M19.6682 27.1665L18.7533 27.456L19.0434 28.9405L19.9143 29.0802C19.9143 29.0802 20.0543 28.2991 19.668 27.1656" fill="#FFFF00"/>
<path d="M19.6681 27.1665L18.7534 27.456L19.0434 28.9404L19.9144 29.0804C19.9144 29.0804 20.0544 28.2991 19.668 27.1656V27.1665H19.6681Z" fill="#F9D90F" stroke="black" stroke-width="0.0196517"/>
<path d="M19.0433 28.925L19.9143 29.0812L19.3572 28.2992L19.0433 28.925" fill="#7E7E7E"/>
<path d="M19.0434 28.925L19.9144 29.0813L19.3573 28.2992L19.0434 28.9249" fill="#F9B60F"/>
<path d="M19.0434 28.925L19.9144 29.0813L19.3573 28.2992L19.0434 28.9249" stroke="black" stroke-width="0.0196517"/>
<path d="M20.2274 28.2387L19.3409 28.2992C19.3281 29.0483 19.2628 31.9115 15.8448 32.0633L15.961 33.1037C20.1205 33.1518 20.4066 29.5999 20.2273 28.2383" fill="#F9D90F"/>
<path d="M17.0223 33.3182L15.9765 33.089M20.2274 28.2387L19.3409 28.2993C19.3281 29.0483 19.2628 31.9115 15.8449 32.0633L15.9611 33.1036C20.1206 33.1517 20.4067 29.5998 20.2274 28.2383V28.2386L20.2274 28.2387Z" stroke="black" stroke-width="0.0196517"/>
<path d="M13.1086 33.2069C13.0853 33.222 13.0536 33.2259 13.0169 33.2242L12.8518 33.2157L12.8659 33.0096L13.0297 33.0185C13.0619 33.0206 13.0875 33.0269 13.1035 33.0366C13.1366 33.0539 13.1511 33.0856 13.1481 33.1297C13.1459 33.1677 13.1326 33.1924 13.1083 33.2069H13.1086ZM12.831 33.5315L12.8474 33.2803L13.0398 33.2936C13.1021 33.2985 13.1484 33.2821 13.1798 33.2504C13.2124 33.2194 13.2292 33.1788 13.2314 33.1329C13.2354 33.0794 13.2216 33.0357 13.1899 33.0036C13.1595 32.9726 13.1161 32.9563 13.0618 32.951L12.7868 32.9339L12.7489 33.5253L12.8305 33.5306L12.831 33.5315ZM13.4296 33.0367L13.6309 33.0388L13.4296 33.0367ZM13.4296 33.0367L13.6309 33.0388L13.4296 33.0367ZM13.4296 33.0367L13.6309 33.0388L13.4296 33.0367ZM13.4296 33.0367L13.6309 33.0388L13.4296 33.0367ZM13.4296 33.0367L13.6309 33.0388C13.6601 33.0415 13.683 33.045 13.6998 33.053C13.7308 33.0676 13.7453 33.0967 13.7453 33.139C13.7453 33.1788 13.7338 33.2053 13.7113 33.2212C13.6897 33.2356 13.6583 33.2423 13.6208 33.2423L13.4274 33.2402L13.4292 33.0367H13.4296ZM13.426 33.5607L13.4278 33.3082L13.6167 33.3108C13.6502 33.3108 13.675 33.3134 13.6921 33.3219C13.72 33.3347 13.7336 33.3616 13.7349 33.3987L13.7398 33.498C13.7411 33.5217 13.7415 33.5364 13.7429 33.5462C13.7456 33.5531 13.7469 33.5606 13.7503 33.5661H13.8518L13.8501 33.5533C13.8386 33.5472 13.8294 33.5353 13.8254 33.5171C13.8218 33.5056 13.8201 33.4884 13.8192 33.4668L13.8175 33.3878C13.8162 33.352 13.81 33.3273 13.7963 33.3137C13.783 33.2956 13.7643 33.2822 13.7429 33.2755C13.7711 33.2607 13.7923 33.2434 13.8078 33.2222C13.8224 33.1987 13.8298 33.1692 13.8298 33.133C13.8298 33.0651 13.8021 33.0187 13.7456 32.9936C13.7151 32.9799 13.6762 32.9727 13.6304 32.972L13.3465 32.9692L13.3443 33.5623H13.4259L13.426 33.5607ZM14.056 33.4366C14.0198 33.3925 14.0003 33.3373 13.9959 33.2721C13.9918 33.19 14.0077 33.1272 14.0453 33.0849C14.0833 33.0388 14.1323 33.0169 14.1963 33.0134C14.2607 33.0098 14.3137 33.0305 14.353 33.0711C14.3933 33.1108 14.4162 33.1661 14.4202 33.2349C14.4223 33.3011 14.4108 33.3598 14.3804 33.4114C14.3504 33.4639 14.3006 33.4935 14.2269 33.4953C14.1501 33.4993 14.0927 33.4812 14.056 33.4366H14.056ZM13.9589 33.0632C13.9209 33.1219 13.9055 33.1899 13.9095 33.2719C13.9152 33.3607 13.9426 33.4339 13.9942 33.4891C14.0516 33.5443 14.1275 33.5721 14.2212 33.5669C14.3214 33.5623 14.3968 33.5244 14.4481 33.4546C14.4896 33.3916 14.5094 33.3183 14.505 33.2279C14.4992 33.147 14.4759 33.0812 14.4323 33.0323C14.377 32.9665 14.2962 32.9374 14.1867 32.9418C14.0835 32.9484 14.0075 32.9864 13.9585 33.0632H13.9589ZM16.7468 32.2101C16.8037 32.2003 16.8532 32.203 16.8982 32.2185C16.9644 32.2392 17.0091 32.2883 17.0368 32.3633L16.9551 32.3747C16.9375 32.3342 16.9123 32.3063 16.8783 32.2908C16.8452 32.2764 16.8037 32.2728 16.7561 32.2797C16.7297 32.2833 16.7044 32.2923 16.6817 32.3061C16.6591 32.32 16.6396 32.3385 16.6245 32.3604C16.5935 32.4081 16.5843 32.4717 16.598 32.5528C16.6094 32.62 16.6341 32.6769 16.6747 32.7148C16.7122 32.7537 16.7674 32.7673 16.8394 32.7573C16.8934 32.7483 16.9366 32.7268 16.967 32.6896C16.9987 32.6543 17.0081 32.6009 16.9975 32.5321L16.8072 32.5613L16.7975 32.496L17.0623 32.4553L17.114 32.7691L17.0615 32.777L17.0289 32.7047C17.0068 32.7375 16.9847 32.7626 16.9652 32.7771C16.9327 32.8027 16.8885 32.819 16.8334 32.8269C16.7618 32.8379 16.6965 32.8251 16.6373 32.7872C16.5724 32.739 16.5305 32.6676 16.5146 32.5684C16.4973 32.4708 16.5128 32.3873 16.5578 32.3215C16.6006 32.258 16.6628 32.2209 16.7468 32.209L16.7468 32.2101ZM17.3458 32.164L17.5357 32.0951C17.5616 32.0855 17.5843 32.0822 17.6036 32.0845C17.6385 32.0872 17.6641 32.1079 17.6787 32.1493C17.6924 32.1847 17.6924 32.2155 17.6769 32.2373C17.6606 32.2597 17.635 32.2761 17.5979 32.2898L17.4196 32.3539L17.3458 32.164V32.164ZM17.5357 32.6544L17.443 32.4165L17.6195 32.3529C17.6528 32.3424 17.6757 32.3366 17.6929 32.3384C17.7243 32.3424 17.7482 32.3614 17.764 32.3974L17.8043 32.4881C17.8129 32.5106 17.8201 32.5243 17.8259 32.5304C17.8285 32.5384 17.8342 32.5433 17.8386 32.5484L17.9344 32.5132L17.9292 32.5004C17.915 32.5004 17.9014 32.4925 17.8912 32.477C17.8837 32.466 17.8766 32.4501 17.8664 32.4316L17.8351 32.3575C17.8209 32.3252 17.8063 32.3054 17.7896 32.2934C17.7701 32.2831 17.7485 32.2772 17.7265 32.2761C17.7459 32.2537 17.7601 32.2311 17.7654 32.2047C17.7711 32.1777 17.7685 32.1478 17.7557 32.1142C17.7314 32.0511 17.6868 32.0167 17.6241 32.0123C17.591 32.0097 17.553 32.0167 17.5093 32.0321L17.2426 32.1269L17.4581 32.6848L17.5362 32.656L17.5357 32.6544ZM18.2301 32.3604L17.8915 31.8666L18.2631 31.6295L18.3041 31.6891L17.9997 31.8837L18.1038 32.0347L18.385 31.8537L18.4235 31.9116L18.1423 32.0925L18.2571 32.2589L18.5669 32.0607L18.608 32.119L18.2296 32.3604L18.2301 32.3604ZM18.5262 31.4875L18.6234 31.3806C18.6683 31.333 18.716 31.3113 18.7682 31.3176C18.8202 31.3219 18.8733 31.3493 18.9298 31.3988C18.9452 31.4107 18.9589 31.4261 18.973 31.4434C18.9978 31.4756 19.0123 31.5039 19.0216 31.5321C19.0297 31.5675 19.0279 31.5997 19.0155 31.6306C19.0081 31.646 18.9948 31.6641 18.9749 31.6858L18.8774 31.7917L18.5265 31.4867L18.5262 31.4875ZM19.0396 31.7192C19.1085 31.6434 19.1235 31.5615 19.0834 31.4694C19.0575 31.4153 19.0205 31.3673 18.9747 31.3286C18.9126 31.2734 18.8476 31.2451 18.7792 31.2399C18.7033 31.2342 18.6388 31.2615 18.5827 31.3228L18.4171 31.5003L18.8736 31.8985L19.0392 31.7202L19.0396 31.7192ZM19.393 31.2589L18.8676 30.9502L18.9105 30.8823L19.4367 31.1891L19.3935 31.2596L19.393 31.2589ZM19.5992 30.9005L19.032 30.6734L19.1993 30.2745L19.2682 30.3009L19.1317 30.6298L19.3026 30.6969L19.4302 30.3939L19.4955 30.4209L19.3694 30.7233L19.5605 30.801L19.7005 30.4682L19.7694 30.4941L19.599 30.9003L19.5992 30.9005ZM19.8598 30.2038L19.2631 30.0718L19.2829 29.9797L19.8343 29.7933L19.35 29.6865L19.3677 29.6142L19.9646 29.7426L19.9456 29.8322L19.3935 30.0225L19.8777 30.1271L19.8604 30.2039L19.8598 30.2038ZM19.8127 29.446L19.8202 29.371C19.8547 29.3719 19.8838 29.3667 19.9058 29.3547C19.9491 29.3312 19.9742 29.2868 19.9809 29.2208C19.9836 29.1901 19.9823 29.1631 19.9751 29.1375C19.9624 29.0881 19.9346 29.0607 19.89 29.0561C19.8569 29.0527 19.8331 29.0607 19.8158 29.0788C19.8004 29.0995 19.784 29.1294 19.7716 29.1718L19.7443 29.2499C19.7267 29.301 19.7103 29.3364 19.6927 29.3562C19.6644 29.3934 19.6247 29.4061 19.5739 29.4026C19.5196 29.3969 19.4755 29.3753 19.4441 29.3337C19.412 29.2957 19.3987 29.2414 19.4067 29.1743C19.412 29.1129 19.4323 29.0612 19.4685 29.0199C19.5021 28.9819 19.5541 28.9637 19.6208 28.9709L19.6147 29.0458C19.5821 29.0458 19.556 29.0515 19.5371 29.0648C19.5025 29.0838 19.4836 29.124 19.4778 29.1827C19.4729 29.2313 19.4796 29.264 19.4981 29.2887C19.5167 29.3094 19.54 29.3227 19.5674 29.3249C19.5966 29.3276 19.6195 29.3183 19.6354 29.2958C19.6468 29.2803 19.6604 29.2469 19.679 29.1925L19.7059 29.1104C19.7192 29.0724 19.7351 29.0433 19.7536 29.0226C19.7867 28.9882 19.8299 28.9736 19.8843 28.9777C19.9505 28.9847 19.9977 29.0121 20.022 29.0624C20.046 29.1131 20.0552 29.1692 20.0493 29.2328C20.0419 29.3048 20.0185 29.3612 19.9752 29.3992C19.932 29.4381 19.878 29.4513 19.8127 29.446H19.8127ZM7.43982 29.4097L7.45349 29.4838C7.42038 29.4905 7.39389 29.5038 7.37446 29.521C7.33962 29.5536 7.32767 29.6026 7.33962 29.6693C7.34488 29.6975 7.35502 29.7252 7.36784 29.7474C7.39433 29.7923 7.4288 29.8103 7.47249 29.8032C7.50474 29.7975 7.52598 29.7852 7.53612 29.7622C7.54584 29.7397 7.5529 29.7052 7.55513 29.6611L7.55909 29.5776C7.56182 29.526 7.56751 29.4855 7.57895 29.4629C7.59716 29.4223 7.63114 29.3971 7.68188 29.3888C7.70673 29.3838 7.73237 29.3842 7.75705 29.3899C7.78173 29.3957 7.80487 29.4068 7.82491 29.4223C7.86637 29.4511 7.89379 29.5009 7.90394 29.567C7.9169 29.6276 7.91099 29.6819 7.88717 29.7308C7.86414 29.7785 7.82008 29.8076 7.75257 29.8201L7.73925 29.745C7.77056 29.7335 7.79396 29.7224 7.80943 29.707C7.83592 29.6773 7.84398 29.6346 7.83376 29.5758C7.82584 29.5281 7.80943 29.4972 7.78481 29.4818C7.76034 29.4637 7.73616 29.4566 7.70967 29.4611C7.68016 29.4654 7.66072 29.4818 7.65136 29.5082C7.64561 29.5258 7.64129 29.5624 7.63718 29.6186L7.63315 29.705C7.63099 29.7456 7.62473 29.7792 7.61113 29.8021C7.58953 29.8446 7.55282 29.8705 7.49942 29.879C7.4319 29.8905 7.37979 29.8751 7.34272 29.8319C7.30457 29.7895 7.28125 29.7388 7.2693 29.6757C7.25612 29.6006 7.26584 29.5424 7.29593 29.4956C7.3263 29.4473 7.37439 29.4196 7.43974 29.4103L7.43982 29.4097ZM7.40231 30.192L7.98585 30.0164L8.12189 30.4274L8.05064 30.4497L7.9395 30.1121L7.76207 30.1656L7.865 30.4776L7.79698 30.4992L7.69498 30.1863L7.49726 30.2453L7.61026 30.5905L7.54044 30.6105L7.40224 30.192H7.40231ZM7.66101 30.9044L8.19798 30.6197L8.25527 30.7198L7.88616 31.1101L8.42529 31.0178L8.48086 31.1171L7.94533 31.4L7.9074 31.3342L8.22339 31.1679C8.2349 31.1612 8.25261 31.1515 8.27823 31.1379C8.30343 31.1264 8.33172 31.111 8.35993 31.0964L7.82311 31.1878L7.78381 31.118L8.15018 30.7292L8.13262 30.7381C8.1211 30.7447 8.10131 30.7544 8.07432 30.7698C8.05544 30.7819 8.03566 30.7925 8.01515 30.8016L7.69988 30.9707L7.66101 30.9036V30.9044ZM8.66153 31.6951C8.63453 31.6889 8.60797 31.6735 8.58199 31.6465L8.46855 31.5296L8.62115 31.3896L8.73559 31.5062C8.75762 31.5278 8.77173 31.549 8.77928 31.5671C8.78987 31.602 8.77928 31.6338 8.74711 31.6638C8.71796 31.6907 8.68881 31.7018 8.66145 31.6951H8.66153ZM8.23015 31.7495L8.4173 31.5777L8.55017 31.7123C8.593 31.756 8.63669 31.7759 8.68262 31.7749C8.72857 31.7729 8.77214 31.7539 8.80498 31.7217C8.84457 31.6863 8.86364 31.6448 8.86364 31.6003C8.86314 31.5571 8.84327 31.5164 8.80664 31.4785L8.61589 31.2838L8.17178 31.6917L8.22914 31.7495L8.23015 31.7495ZM8.76539 32.226L9.08729 31.7216L9.46784 31.9529L9.42811 32.013L9.1155 31.8258L9.01876 31.9786L9.30618 32.1528L9.26903 32.2107L8.98112 32.0372L8.87171 32.208L9.18827 32.3983L9.15027 32.4579L8.76532 32.2261L8.76539 32.226ZM9.71804 32.1286L9.91138 32.1901C9.93873 32.1984 9.9586 32.209 9.97184 32.221C9.9966 32.2444 10.0032 32.2779 9.98861 32.3185C9.97681 32.3537 9.95867 32.3768 9.93031 32.3865C9.90512 32.3908 9.87345 32.3908 9.8363 32.3793L9.65398 32.3211L9.71804 32.1287V32.1286ZM9.55119 32.6244L9.63159 32.3838L9.81169 32.4426C9.84386 32.4511 9.86726 32.4626 9.87877 32.4744C9.9008 32.4942 9.90756 32.5238 9.89641 32.5605L9.86949 32.6561C9.8633 32.6796 9.86013 32.695 9.85754 32.702C9.85754 32.7096 9.85754 32.7176 9.85883 32.7228L9.95385 32.7537L9.95961 32.74C9.94938 32.732 9.94363 32.7175 9.94406 32.6995C9.94622 32.6884 9.94938 32.6707 9.95558 32.6505L9.97861 32.5736C9.98782 32.5401 9.99135 32.5149 9.98293 32.4968C9.97505 32.4761 9.9616 32.4579 9.94406 32.4443C9.97407 32.439 10.0002 32.4297 10.0222 32.4133C10.043 32.3953 10.0606 32.3701 10.0712 32.3349C10.0928 32.2708 10.0809 32.2174 10.0331 32.1768C10.0093 32.1556 9.97537 32.1374 9.93074 32.1207L9.6606 32.0373L9.47166 32.6L9.55069 32.6243L9.55119 32.6244Z" fill="#012A87"/>
<path d="M10.3708 22.3828C10.4406 22.2146 11.0868 21.756 13.2076 21.9568C13.2076 21.9568 13.5661 22.1757 13.7767 22.1476C13.8969 22.132 13.7061 22.155 13.5494 22.0248C13.3896 21.8947 13.3556 21.6276 13.7207 21.6347C14.084 21.644 15.4442 21.7207 15.4698 21.843C15.4935 21.9666 14.7507 22.0182 14.4743 22.0111C14.1965 22.0037 14.2289 22.1441 14.5053 22.1335C15.3687 22.1025 16.3112 21.7984 17.3067 22.5024C17.4255 22.5881 17.0066 22.6018 16.6824 22.464C16.6824 22.464 15.8043 22.5096 15.4246 22.4473C15.4246 22.4473 15.1328 22.6847 14.7527 22.6613C14.8021 22.7844 14.6123 23.2439 13.4172 22.8983C13.22 22.9587 12.5008 23.0793 12.5794 22.8657C12.3901 22.8657 12.058 22.9265 12.0086 22.8189C11.9609 22.7131 12.5931 22.5525 12.7039 22.438C12.7039 22.438 11.3665 22.4508 11.1132 22.3585C11.1132 22.3585 10.3243 22.5356 10.3707 22.3819" fill="#BC715F"/>
<path d="M10.7994 24.2551C10.8282 24.2163 10.8396 24.1466 10.9005 24.1483C11.033 24.1836 11.1229 24.4259 11.2859 24.2687C11.3437 24.2559 11.3658 24.3346 11.4135 24.3438C11.4438 24.4784 11.552 24.3165 11.6328 24.3256C11.8054 24.2488 12.019 24.2306 12.2234 24.2687C12.2296 24.4007 12.1263 24.5463 11.9966 24.6214C11.9993 24.7542 12.1198 24.8395 12.1175 24.9732C12.0968 25.0231 12.114 25.1016 12.0385 25.1179C11.9428 25.1008 11.8482 25.0907 11.7688 25.0373C11.7591 25.0275 11.7512 25.0085 11.7308 25.0147C11.7211 25.0594 11.7908 25.1036 11.8182 25.149C11.77 25.231 11.6902 25.156 11.6231 25.1569C11.6032 25.2042 11.6222 25.2638 11.5736 25.2942C11.4888 25.2916 11.4716 25.1994 11.4196 25.1534C11.3661 25.2112 11.457 25.2456 11.47 25.2916C11.4373 25.4655 11.4416 25.6354 11.2677 25.7493L11.1511 25.8072C11.1194 25.7197 11.1393 25.5873 11.118 25.4959C11.0491 25.608 10.9953 25.7061 10.8941 25.8009C10.7759 25.762 10.707 25.6225 10.6811 25.5069C10.6315 25.3722 10.6598 25.2111 10.7662 25.1136C10.73 25.043 10.6059 25.0592 10.5883 24.9587C10.4024 24.8377 10.2996 25.1706 10.1794 24.9975C10.1406 24.836 10.187 24.635 10.304 24.5145C10.2781 24.4483 10.1915 24.4656 10.1403 24.4276C10.0234 24.3283 9.85467 24.2233 9.86316 24.0439C10.1831 23.923 10.5659 24.0118 10.7985 24.255" fill="#008830"/>
<path d="M10.9655 24.2371C10.958 24.3836 11.0644 24.2767 11.1433 24.3655C11.0816 24.3413 11.0365 24.4723 10.976 24.3972L10.938 24.4335C10.9601 24.4838 11.0028 24.4904 10.9583 24.5456C10.8921 24.5708 10.8789 24.4878 10.8479 24.4551C10.8427 24.4407 10.858 24.4132 10.8338 24.4035C10.7964 24.4352 10.757 24.4467 10.7053 24.4415C10.6913 24.4132 10.6639 24.3762 10.6917 24.3546C10.7425 24.2862 10.8212 24.3792 10.8595 24.3312C10.8656 24.2887 10.8286 24.2371 10.8766 24.2079C10.9098 24.2137 10.9522 24.1957 10.9659 24.2372L10.9655 24.2371ZM11.3615 24.3572C11.3655 24.3855 11.3469 24.4252 11.384 24.445C11.4322 24.419 11.4833 24.4389 11.5111 24.4866C11.5106 24.5122 11.5186 24.5457 11.4852 24.5582L11.41 24.5441C11.4153 24.5295 11.3914 24.5202 11.3822 24.5059C11.349 24.4959 11.3296 24.5228 11.3049 24.5391C11.3235 24.5673 11.3662 24.5828 11.356 24.619C11.312 24.6631 11.2903 24.581 11.2417 24.6017C11.2086 24.589 11.2536 24.5201 11.2016 24.4995C11.1398 24.4995 11.1808 24.6008 11.1018 24.5612C11.0735 24.5293 11.0456 24.4865 11.0762 24.4508C11.1093 24.4286 11.1654 24.4344 11.1935 24.463C11.2417 24.4098 11.2465 24.2036 11.3618 24.3572H11.3615ZM10.8684 24.57C10.9006 24.6164 10.8614 24.6794 10.9024 24.7311C10.9669 24.6107 11.0291 24.7572 11.1059 24.7457C11.1294 24.7745 11.1138 24.8141 11.1181 24.8468C11.0233 24.872 10.909 24.902 10.8252 24.8261L10.8016 24.853C10.8516 24.8994 10.8988 24.9519 10.859 25.0295C10.788 25.045 10.6781 25.0468 10.6423 24.9735C10.6236 24.9131 10.6855 24.8694 10.6203 24.8208C10.573 24.8795 10.5752 24.9581 10.4768 24.9047C10.4158 24.871 10.3976 24.8018 10.4282 24.7435C10.4918 24.6433 10.6031 24.7466 10.6719 24.6976C10.6816 24.6115 10.6498 24.5364 10.7287 24.4889C10.7964 24.4769 10.8277 24.5276 10.8687 24.57" fill="#F9D90F"/>
<path d="M11.1376 24.6225C11.1059 24.7689 10.9955 24.6149 10.9438 24.6088C11.0127 24.4864 11.0559 24.6484 11.1376 24.6225ZM11.4815 24.7817C11.4047 24.8033 11.4165 24.7076 11.3785 24.67L11.4083 24.6432C11.4361 24.6768 11.4572 24.7373 11.4815 24.7818" fill="white"/>
<path d="M11.3773 24.7526C11.3994 24.8034 11.3274 24.844 11.3888 24.881C11.4082 24.8648 11.432 24.8422 11.4422 24.8328C11.4947 24.8484 11.5556 24.8577 11.5923 24.9097C11.6316 25.0174 11.5225 25.0148 11.4608 25.0448L11.3994 25.0422C11.414 25.0123 11.3729 24.9994 11.3627 24.9787C11.3345 24.9717 11.3111 24.9804 11.2953 25.0043C11.309 25.0726 11.3924 25.1261 11.3063 25.1869C11.2334 25.1823 11.1204 25.2105 11.1271 25.1098C11.0997 25.0529 11.2012 24.9651 11.0927 24.9615C11.0569 25.0383 11.0176 25.1124 10.9244 25.0396L10.936 24.9302C11.0252 24.9328 11.1307 24.9482 11.1708 24.8485C11.1964 24.7762 11.1261 24.7094 11.1889 24.652C11.2797 24.6313 11.331 24.6923 11.3773 24.7526" fill="#F9D90F"/>
<path d="M11.3121 24.9172C11.335 24.9715 11.2732 24.9751 11.244 25.002C11.2047 25.0051 11.1774 24.9896 11.1535 24.9631C11.1359 24.8974 11.1848 24.8907 11.2224 24.8648C11.2661 24.8466 11.2843 24.8974 11.3121 24.9173" fill="black"/>
<path d="M11.2585 24.9526C11.2488 24.9654 11.2351 24.9614 11.2205 24.9648L11.2068 24.8992C11.2359 24.9018 11.2738 24.911 11.2584 24.9526" fill="white"/>
</g>
</svg>
