<svg width="54" height="48" viewBox="0 0 54 48" fill="none" xmlns="http://www.w3.org/2000/svg">
<mask id="mask0_1_31256" style="mask-type:alpha" maskUnits="userSpaceOnUse" x="3" y="6" width="48" height="36">
<path d="M3.56934 15.1356C4.16681 10.4125 8.0415 7.00193 12.7861 6.60887C16.6412 6.28949 21.6196 6 27 6C32.3804 6 37.3588 6.28949 41.2139 6.60887C45.9585 7.00193 49.8332 10.4125 50.4307 15.1356C50.752 17.6759 51 20.704 51 24C51 27.296 50.752 30.3241 50.4307 32.8644C49.8332 37.5875 45.9585 40.9981 41.2139 41.3911C37.3588 41.7105 32.3804 42 27 42C21.6196 42 16.6412 41.7105 12.7861 41.3911C8.0415 40.9981 4.16681 37.5875 3.56934 32.8644C3.248 30.3241 3 27.296 3 24C3 20.704 3.248 17.6759 3.56934 15.1356Z" fill="#00D0BF"/>
</mask>
<g mask="url(#mask0_1_31256)">
<rect x="3" y="30" width="48" height="12" fill="#2C2929"/>
<rect x="3" y="18" width="48" height="12" fill="#F5F5F5"/>
<rect x="3" y="6" width="48" height="12" fill="#EE5757"/>
</g>
<path d="M19 19L20.1226 22.4549H23.7553L20.8164 24.5902L21.9389 28.0451L19 25.9098L16.0611 28.0451L17.1836 24.5902L14.2447 22.4549H17.8774L19 19Z" fill="#59C785"/>
<path d="M35 19L36.1226 22.4549H39.7553L36.8164 24.5902L37.9389 28.0451L35 25.9098L32.0611 28.0451L33.1836 24.5902L30.2447 22.4549H33.8774L35 19Z" fill="#59C785"/>
</svg>
