<svg width="54" height="48" viewBox="0 0 54 48" fill="none" xmlns="http://www.w3.org/2000/svg">
<mask id="mask0_1_33981" style="mask-type:alpha" maskUnits="userSpaceOnUse" x="3" y="6" width="48" height="36">
<path d="M3.56934 15.1356C4.16681 10.4125 8.0415 7.00193 12.7861 6.60887C16.6412 6.28949 21.6196 6 27 6C32.3804 6 37.3588 6.28949 41.2139 6.60887C45.9585 7.00193 49.8332 10.4125 50.4307 15.1356C50.752 17.6759 51 20.704 51 24C51 27.296 50.752 30.3241 50.4307 32.8644C49.8332 37.5875 45.9585 40.9981 41.2139 41.3911C37.3588 41.7105 32.3804 42 27 42C21.6196 42 16.6412 41.7105 12.7861 41.3911C8.0415 40.9981 4.16681 37.5875 3.56934 32.8644C3.248 30.3241 3 27.296 3 24C3 20.704 3.248 17.6759 3.56934 15.1356Z" fill="#00D0BF"/>
</mask>
<g mask="url(#mask0_1_33981)">
<rect x="3" y="6" width="48" height="36" fill="#2E50A6"/>
<path d="M45 17V23C45 27 43 31.3083 38 33.6417C33 31.3083 31 27 31 23V17H45Z" fill="#FCD116" stroke="black" stroke-width="0.533333"/>
<path d="M45 17V23C45 27 43 31.3083 38 33.6417C33 31.3083 31 27 31 23V17H45Z" stroke="white" stroke-width="0.466667"/>
<path d="M35.475 23.6084C35.2917 23.9167 34.9834 23.9834 34.7417 23.8834C34.4917 23.7834 34.2667 23.2 34.0167 22.8834C33.775 22.575 33.7084 22.7084 33.5417 22.525C33.3834 22.35 33.1334 22.2167 32.7417 22.0334C32.525 21.9334 32.3 21.8417 32.15 21.4584C32.2084 21.3 32.3667 21.1667 32.4917 21.1167C32.6167 21.075 32.7167 20.8917 32.7334 20.7334C32.75 20.5834 32.8834 20.4167 33.0667 20.2917C32.9834 20.3084 32.8084 20.275 32.725 20.2167C32.65 20.15 32.525 20.1667 32.45 20.225C32.375 20.275 32.2834 20.2917 32.15 20.275C32.2 20.2334 32.2917 20.1417 32.3 20.0584C32.3084 19.975 32.4084 19.9334 32.6 19.9334C32.7834 19.9334 32.9084 19.7167 33.0584 19.7167C32.95 19.7167 32.975 19.5334 33.0334 19.525C32.7667 19.475 32.8 19.2584 32.9084 19.2584C32.9 19.225 32.8667 19.1917 32.7417 19.15C32.625 19.1084 32.6834 19 32.775 18.9334C32.6917 18.7667 32.7667 18.6417 32.9 18.5334C32.7167 18.525 32.9167 18.2667 32.9667 18.125C33.0167 17.9917 33.0417 17.975 33.1 18.0584C33.1667 18.1334 33.3167 18.3084 33.4917 18.3584C33.6584 18.4084 33.7584 18.5 33.7917 18.6417C33.825 18.7917 33.8917 18.8667 34.075 18.9334C34.2667 18.9917 34.525 19.15 34.4917 19.5084C34.6417 19.5167 34.75 19.5584 34.8417 19.6334" fill="#FCAD56"/>
<path d="M35.475 23.6084C35.2917 23.9167 34.9834 23.9834 34.7417 23.8834C34.4917 23.7834 34.2667 23.2 34.0167 22.8834C33.775 22.575 33.7084 22.7084 33.5417 22.525C33.3834 22.35 33.1334 22.2167 32.7417 22.0334C32.525 21.9334 32.3 21.8417 32.15 21.4584C32.2084 21.3 32.3667 21.1667 32.4917 21.1167C32.6167 21.075 32.7167 20.8917 32.7334 20.7334C32.75 20.5834 32.8834 20.4167 33.0667 20.2917C32.9834 20.3084 32.8084 20.275 32.725 20.2167C32.65 20.15 32.525 20.1667 32.45 20.225C32.375 20.275 32.2834 20.2917 32.15 20.275C32.2 20.2334 32.2917 20.1417 32.3 20.0584C32.3084 19.975 32.4084 19.9334 32.6 19.9334C32.7834 19.9334 32.9084 19.7167 33.0584 19.7167C32.95 19.7167 32.975 19.5334 33.0334 19.525C32.7667 19.475 32.8 19.2584 32.9084 19.2584C32.9 19.225 32.8667 19.1917 32.7417 19.15C32.625 19.1084 32.6834 19 32.775 18.9334C32.6917 18.7667 32.7667 18.6417 32.9 18.5334C32.7167 18.525 32.9167 18.2667 32.9667 18.125C33.0167 17.9917 33.0417 17.975 33.1 18.0584C33.1667 18.1334 33.3167 18.3084 33.4917 18.3584C33.6584 18.4084 33.7584 18.5 33.7917 18.6417C33.825 18.7917 33.8917 18.8667 34.075 18.9334C34.2667 18.9917 34.525 19.15 34.4917 19.5084C34.6417 19.5167 34.75 19.5584 34.8417 19.6334" stroke="black" stroke-width="0.0183333" stroke-linecap="round" stroke-linejoin="round"/>
<path d="M35.9334 19.0917C35.9334 19.2917 36.0251 19.4167 36.1417 19.5167C36.2667 19.6167 36.3751 19.7001 36.3501 19.8251C36.3251 19.9584 36.3751 20.0417 36.4834 20.1251C36.6001 20.2084 36.6834 20.3084 36.6501 20.4751C36.6167 20.6417 36.6417 20.7417 36.7084 20.8667C36.7751 20.9917 36.8917 21.0917 36.8417 21.2917C36.7917 21.4917 36.8167 21.7584 36.8834 21.8917C36.9417 22.0167 36.8834 22.1167 36.7667 22.3417C36.6501 22.5584 36.5834 22.6417 36.3417 22.7251C36.0917 22.8001 36.0751 22.9501 36.0751 23.2084C36.0751 23.4751 35.9001 23.6084 35.5751 23.5584C35.2417 23.8334 35.0334 23.5084 34.9501 23.1001C34.8667 22.6917 34.8501 22.2501 34.3584 21.8917C33.8751 21.5251 34.0667 20.9084 34.4751 20.6584C34.8834 20.4167 34.8334 19.7001 34.7834 19.2584C34.7417 18.8167 35.0334 18.5667 35.2584 18.3251C35.5584 18.4417 35.9334 18.9001 35.9334 19.0917Z" fill="#FFA1A1" stroke="black" stroke-width="0.0183333" stroke-linecap="round" stroke-linejoin="round"/>
<path d="M35.2251 21.9334C35.1334 21.7167 35.0334 21.5001 35.2751 21.0334C35.5251 20.5584 35.3667 20.2001 35.2917 19.9584C35.2167 19.7251 35.2001 19.5084 35.2917 19.4084C35.3917 19.3167 35.4334 19.2584 35.4417 19.1001C35.4501 18.9501 35.5751 19.0001 35.5917 19.0751C35.6084 19.1501 35.6251 19.2751 35.4917 19.5001C35.3584 19.7334 35.8667 20.3001 35.6334 20.9084C35.4751 21.3334 35.6834 21.8751 35.7667 22.2501C35.8501 22.6251 35.9001 23.5251 35.3501 23.6584C35.7251 23.4751 35.3751 22.2834 35.2251 21.9334Z" fill="#F1B2DC" stroke="black" stroke-width="0.0183333" stroke-linecap="round" stroke-linejoin="round"/>
<path d="M32.9 18.5334C32.9583 18.5334 33.0833 18.5168 33.0833 18.5918M32.75 21.8668C32.8417 21.8834 32.8917 21.8334 32.9167 21.7751C32.9417 21.7168 32.9583 21.6834 33.0417 21.6751C33.125 21.6751 33.2583 21.6501 33.2917 21.5834C33.3167 21.5168 33.4167 21.5751 33.5083 21.4084C33.5917 21.2334 33.65 21.0334 33.875 20.9584L32.75 21.8668ZM34.4917 19.5084C34.4083 19.5084 34.1667 19.5168 34.0667 19.7334L34.4917 19.5084ZM33.375 18.4751C33.575 18.5334 33.4917 18.6668 33.5917 18.7418C33.775 18.8834 33.6083 19.0334 33.7583 19.0751C33.9083 19.1168 33.9 19.1418 33.8667 19.3084C33.8167 19.5001 34 19.5084 33.9333 19.6334L33.375 18.4751ZM33.0667 20.2918C33.1833 20.1834 33.475 20.1001 33.5417 19.9834L33.0667 20.2918ZM33.0583 19.7168C33.2333 19.7084 33.4667 19.7751 33.5 19.7084L33.0583 19.7168ZM33.0333 19.5251C33.1167 19.5251 33.2917 19.4668 33.325 19.3501L33.0333 19.5251ZM32.9083 19.2584C33.0083 19.2584 33.1333 19.2501 33.2583 19.1584L32.9083 19.2584ZM32.775 18.9334C32.85 18.8751 32.9833 18.9418 33.1083 18.8584L32.775 18.9334Z" stroke="black" stroke-width="0.0183333" stroke-linecap="round" stroke-linejoin="round"/>
<path d="M40.875 20.0584C40.875 20.0584 40.2917 19.5667 39.8083 19.2334C39.325 18.9001 38.7417 18.4917 38.7417 18.4084C38.8333 18.3417 39.325 18.6584 40 19.0667C40.6833 19.4834 41.0667 19.8917 41.0667 19.8917L40.875 20.0584ZM40.8333 20.3917C40.8333 20.3917 40.2667 20.0501 39.7083 19.8084C39.125 19.5667 38.25 19.5667 38.1583 19.4834C38.1583 19.4001 39.175 19.3501 39.9 19.6417C40.6417 19.9834 41.025 20.2251 41.025 20.2251L40.8333 20.3917ZM40.825 20.9584C40.825 20.9584 40.2083 20.6751 39.6083 20.5417C39.025 20.4084 38.1917 20.4584 38.0917 20.3834C38.0917 20.3001 39.125 20.1334 39.9 20.3834C40.6833 20.6251 41.0167 20.7917 41.0167 20.7917L40.825 20.9584ZM40.7917 21.5334C40.7917 21.5334 40.325 21.2167 39.7083 21.1501C39.125 21.0917 38.35 21.5334 38.25 21.4501C38.25 21.3667 38.925 20.8751 39.7667 20.9584C40.5917 21.0417 40.9833 21.3667 40.9833 21.3667L40.7917 21.5334ZM40.9833 19.7167C40.9833 19.7167 40.3917 19.1751 40.3917 18.8084C40.3917 18.4834 40.75 17.9834 40.9083 17.9834C40.825 18.1501 40.55 18.4834 40.55 18.8084C40.55 19.1417 41.175 19.5501 41.175 19.5501L40.9833 19.7167Z" fill="#9E540A" stroke="black" stroke-width="0.0183333" stroke-linecap="round" stroke-linejoin="round"/>
<path d="M40.9834 19.7168C40.9834 19.7168 41.1 19.1751 41.1 18.8084C41.1 18.3168 40.75 17.8668 40.7834 17.7418C40.9084 17.8668 41.2584 18.2334 41.2584 18.8084C41.2584 19.3084 41.175 19.5501 41.175 19.5501L40.9834 19.7168Z" fill="#9E540A" stroke="black" stroke-width="0.0183333" stroke-linecap="round" stroke-linejoin="round"/>
<path d="M41.125 19.5418C41.125 19.3835 41.0667 19.2418 40.9667 19.1335C40.8334 18.9751 40.6334 18.9251 40.425 18.9585C40.175 19.0001 39.975 19.1501 39.85 19.3835C39.6834 19.6918 39.6667 20.0251 39.6584 20.3501C39.6584 21.4751 39.7 21.9335 39.7334 23.0418C39.7417 23.3668 39.8 24.0335 39.65 24.5585C39.5917 24.7835 39.525 24.9918 39.425 25.2085C39.4917 24.9335 39.525 24.7918 39.5584 24.5835C39.65 24.0418 39.625 23.5335 39.6084 23.0335C39.575 22.0085 39.5167 21.4835 39.4834 20.2418C39.475 19.8668 39.5084 19.5835 39.6834 19.2835C39.8667 18.9751 40.1834 18.7501 40.5417 18.7501C40.6917 18.7501 40.8167 18.7751 40.9417 18.8501C41.1917 18.9835 41.3084 19.2585 41.3084 19.5335L41.125 19.5418Z" fill="#9E540A"/>
<path d="M41.1751 23.5584C41.1751 23.5584 40.9417 23.9751 40.7667 24.2751C40.5917 24.5751 40.4501 24.6418 40.3167 24.5501C40.1917 24.4584 40.3001 24.2168 40.4001 24.1001C40.5001 23.9834 41.0584 23.4418 41.0584 23.4418L41.1751 23.5584Z" fill="#9E540A" stroke="black" stroke-width="0.0183333" stroke-linecap="round" stroke-linejoin="round"/>
<path d="M41.2333 23.5918C41.2333 23.5918 41.1417 24.0668 41.0667 24.4085C41 24.7501 40.8833 24.8668 40.7417 24.8251C40.5917 24.7918 40.6167 24.5168 40.675 24.3751C40.7333 24.2335 41.0833 23.5168 41.0833 23.5168L41.2333 23.5918Z" fill="#9E540A" stroke="black" stroke-width="0.0183333" stroke-linecap="round" stroke-linejoin="round"/>
<path d="M41.3333 23.6084C41.3333 23.6084 41.3333 24.0918 41.3333 24.4418C41.3333 24.7918 41.25 24.9334 41.0916 24.9251C40.9416 24.9168 40.9083 24.6501 40.9416 24.4918C40.9666 24.3418 41.175 23.5668 41.175 23.5668L41.3333 23.6084Z" fill="#9E540A" stroke="black" stroke-width="0.0183333" stroke-linecap="round" stroke-linejoin="round"/>
<path d="M41.3334 23.6001C40.8917 23.5918 40.8501 23.4334 40.8501 23.4334C40.8501 23.4334 40.7917 23.2334 40.7834 23.1084C40.7751 23.0918 40.6584 22.8418 40.6917 22.7334C40.6501 22.6334 40.5501 22.3918 40.6417 22.3501C40.6001 22.2334 40.5334 22.1001 40.5251 21.9751C40.4917 21.8834 40.4084 21.6834 40.4751 21.6168C40.4751 21.6168 40.3167 21.2834 40.3917 21.2001C40.3917 21.2001 40.3167 20.8751 40.3917 20.7918C40.3917 20.7918 40.3917 20.4584 40.4751 20.3751C40.4751 20.3751 40.4751 20.0501 40.5501 19.9668C40.5501 19.9834 40.7834 19.5084 41.3334 19.5084L41.3251 20.2168H41.3334V23.6001Z" fill="#9E540A" stroke="black" stroke-width="0.0183333" stroke-linecap="round" stroke-linejoin="round"/>
<path d="M41.3334 22.1918C40.6251 22.1918 40.5501 22.0251 40.5501 22.0251C40.5501 22.0251 40.5417 22.0084 40.5251 21.9751M41.3334 21.7834C40.6251 21.7751 40.4751 21.6168 40.4751 21.6168L41.3334 21.7834ZM41.3334 21.3668C40.6251 21.3668 40.3917 21.2001 40.3917 21.2001L41.3334 21.3668ZM41.3334 20.9584C40.6251 20.9501 40.3917 20.7918 40.3917 20.7918L41.3334 20.9584ZM41.3334 20.5418C40.6251 20.5334 40.4751 20.3751 40.4751 20.3751L41.3334 20.5418ZM41.3251 20.2168C41.3334 20.2168 40.7917 20.2168 40.7084 20.1334L40.5501 19.9751L41.3251 20.2168ZM41.3334 23.2668C41.1251 23.2668 40.8917 23.2334 40.7834 23.1084L41.3334 23.2668ZM41.3334 22.9334C40.9417 22.9334 40.7084 22.7751 40.7084 22.7751C40.7084 22.7751 40.7001 22.7584 40.6917 22.7334L41.3334 22.9334ZM41.3334 22.5251C40.8167 22.5168 40.6751 22.4084 40.6417 22.3501L41.3334 22.5251Z" stroke="black" stroke-width="0.0183333" stroke-linecap="round" stroke-linejoin="round"/>
<path d="M41.7917 20.0584C41.7917 20.0584 42.3751 19.5667 42.8584 19.2334C43.3417 18.9001 43.9251 18.4917 43.9251 18.4084C43.8334 18.3417 43.3417 18.6584 42.6667 19.0667C41.9834 19.4834 41.6001 19.8917 41.6001 19.8917L41.7917 20.0584ZM41.8334 20.3917C41.8334 20.3917 42.4001 20.0501 42.9584 19.8084C43.5417 19.5667 44.4167 19.5667 44.5084 19.4834C44.5084 19.4001 43.4917 19.3501 42.7667 19.6417C42.0251 19.9834 41.6417 20.2251 41.6417 20.2251L41.8334 20.3917ZM41.8417 20.9584C41.8417 20.9584 42.4584 20.6751 43.0584 20.5417C43.6417 20.4084 44.4751 20.4584 44.5751 20.3834C44.5751 20.3001 43.5417 20.1334 42.7667 20.3834C41.9834 20.6251 41.6501 20.7917 41.6501 20.7917L41.8417 20.9584ZM41.8751 21.5334C41.8751 21.5334 42.3417 21.2167 42.9584 21.1501C43.5417 21.0917 44.3167 21.5334 44.4167 21.4501C44.4167 21.3667 43.7417 20.8751 42.9001 20.9584C42.0751 21.0417 41.6834 21.3667 41.6834 21.3667L41.8751 21.5334ZM41.6834 19.7167C41.6834 19.7167 42.2751 19.1751 42.2751 18.8084C42.2751 18.4834 41.9167 17.9834 41.7584 17.9834C41.8417 18.1501 42.1167 18.4834 42.1167 18.8084C42.1167 19.1417 41.4917 19.5501 41.4917 19.5501L41.6834 19.7167Z" fill="#9E540A" stroke="black" stroke-width="0.0183333" stroke-linecap="round" stroke-linejoin="round"/>
<path d="M41.6834 19.7168C41.6834 19.7168 41.5667 19.1751 41.5667 18.8084C41.5667 18.3168 41.9167 17.8668 41.8834 17.7418C41.7584 17.8668 41.4084 18.2334 41.4084 18.8084C41.4084 19.3084 41.4917 19.5501 41.4917 19.5501L41.6834 19.7168Z" fill="#9E540A" stroke="black" stroke-width="0.0183333" stroke-linecap="round" stroke-linejoin="round"/>
<path d="M41.5417 19.5418C41.5417 19.3835 41.6 19.2418 41.7 19.1335C41.8334 18.9751 42.0334 18.9251 42.2417 18.9585C42.4917 19.0001 42.6917 19.1501 42.8167 19.3835C42.9834 19.6918 43 20.0251 43.0084 20.3501C43.0084 21.4751 42.9667 21.9335 42.9334 23.0418C42.925 23.3668 42.8667 24.0335 43.0167 24.5585C43.075 24.7835 43.1417 24.9918 43.2417 25.2085C43.175 24.9335 43.1417 24.7918 43.1084 24.5835C43.0167 24.0418 43.0417 23.5335 43.0584 23.0335C43.0917 22.0085 43.15 21.4835 43.1834 20.2418C43.1917 19.8668 43.1584 19.5835 42.9834 19.2835C42.8 18.9751 42.4834 18.7501 42.125 18.7501C41.975 18.7501 41.85 18.7751 41.725 18.8501C41.475 18.9835 41.3584 19.2585 41.3584 19.5335L41.5417 19.5418Z" fill="#9E540A"/>
<path d="M41.4917 23.5584C41.4917 23.5584 41.725 23.9751 41.9 24.2751C42.075 24.5751 42.2167 24.6418 42.35 24.5501C42.475 24.4584 42.3667 24.2168 42.2667 24.1001C42.1667 23.9834 41.6083 23.4418 41.6083 23.4418L41.4917 23.5584Z" fill="#9E540A" stroke="black" stroke-width="0.0183333" stroke-linecap="round" stroke-linejoin="round"/>
<path d="M41.4334 23.5918C41.4334 23.5918 41.5251 24.0668 41.6001 24.4085C41.6668 24.7501 41.7834 24.8668 41.9251 24.8251C42.0751 24.7918 42.0501 24.5168 41.9918 24.3751C41.9334 24.2335 41.5834 23.5168 41.5834 23.5168L41.4334 23.5918Z" fill="#9E540A" stroke="black" stroke-width="0.0183333" stroke-linecap="round" stroke-linejoin="round"/>
<path d="M41.3335 23.6084C41.3335 23.6084 41.3335 24.0918 41.3335 24.4418C41.3335 24.7918 41.4168 24.9334 41.5751 24.9251C41.7251 24.9168 41.7585 24.6501 41.7251 24.4918C41.7001 24.3418 41.4918 23.5668 41.4918 23.5668L41.3335 23.6084Z" fill="#9E540A" stroke="black" stroke-width="0.0183333" stroke-linecap="round" stroke-linejoin="round"/>
<path d="M41.3333 23.6001C41.775 23.5918 41.8167 23.4334 41.8167 23.4334C41.8167 23.4334 41.875 23.2334 41.8833 23.1084C41.8917 23.0918 42.0083 22.8418 41.975 22.7334C42.0167 22.6334 42.1167 22.3918 42.025 22.3501C42.0667 22.2334 42.1333 22.1001 42.1417 21.9751C42.175 21.8834 42.2583 21.6834 42.1917 21.6168C42.1917 21.6168 42.35 21.2834 42.275 21.2001C42.275 21.2001 42.35 20.8751 42.275 20.7918C42.275 20.7918 42.275 20.4584 42.1917 20.3751C42.1917 20.3751 42.1917 20.0501 42.1167 19.9668C42.1167 19.9834 41.8833 19.5084 41.3333 19.5084L41.3417 20.2168H41.3333V23.6001Z" fill="#9E540A" stroke="black" stroke-width="0.0183333" stroke-linecap="round" stroke-linejoin="round"/>
<path d="M41.3334 22.1918C42.0417 22.1918 42.1167 22.0251 42.1167 22.0251C42.1167 22.0251 42.125 22.0084 42.1417 21.9751M41.3334 21.7834C42.0417 21.7751 42.1917 21.6168 42.1917 21.6168L41.3334 21.7834ZM41.3334 21.3668C42.0417 21.3668 42.275 21.2001 42.275 21.2001L41.3334 21.3668ZM41.3334 20.9584C42.0417 20.9501 42.275 20.7918 42.275 20.7918L41.3334 20.9584ZM41.3334 20.5418C42.0417 20.5334 42.1917 20.3751 42.1917 20.3751L41.3334 20.5418ZM41.3417 20.2168C41.3334 20.2168 41.875 20.2168 41.9584 20.1334L42.1167 19.9751L41.3417 20.2168ZM41.3334 23.2668C41.5417 23.2668 41.775 23.2334 41.8834 23.1084L41.3334 23.2668ZM41.3334 22.9334C41.725 22.9334 41.9584 22.7751 41.9584 22.7751C41.9584 22.7751 41.9667 22.7584 41.975 22.7334L41.3334 22.9334ZM41.3334 22.5251C41.85 22.5168 41.9917 22.4084 42.025 22.3501L41.3334 22.5251Z" stroke="black" stroke-width="0.0183333" stroke-linecap="round" stroke-linejoin="round"/>
<path d="M38 31.2667C37.6416 31.6001 36.95 31.3834 36.7333 31.2334C36.5083 31.3084 35.9083 31.0751 35.75 30.8167C35.3166 30.8751 35.1666 30.2584 35.2416 30.1001C35.3583 29.8667 35.15 29.7167 35.3 29.5584C35.5083 29.3584 35.1833 29.1667 35.3833 29.0334C35.5833 28.8917 35.3333 28.6584 35.5333 28.5084C35.7416 28.3501 35.425 28.1334 35.6416 28.0251C35.8583 27.9167 35.6166 27.6334 35.8 27.5251C35.9833 27.4167 35.6916 27.1417 35.9416 27.0167C36.1833 26.8917 35.9666 26.6751 36.1583 26.5834C36.3666 26.4751 36.175 26.2501 36.3666 26.1751C36.5833 26.0834 36.425 25.8417 36.6083 25.7751C36.7666 25.7167 36.6666 25.5667 36.7666 25.4334H38" fill="#009E49"/>
<path d="M38 31.2667C37.6416 31.6001 36.95 31.3834 36.7333 31.2334C36.5083 31.3084 35.9083 31.0751 35.75 30.8167C35.3166 30.8751 35.1666 30.2584 35.2416 30.1001C35.3583 29.8667 35.15 29.7167 35.3 29.5584C35.5083 29.3584 35.1833 29.1667 35.3833 29.0334C35.5833 28.8917 35.3333 28.6584 35.5333 28.5084C35.7416 28.3501 35.425 28.1334 35.6416 28.0251C35.8583 27.9167 35.6166 27.6334 35.8 27.5251C35.9833 27.4167 35.6916 27.1417 35.9416 27.0167C36.1833 26.8917 35.9666 26.6751 36.1583 26.5834C36.3666 26.4751 36.175 26.2501 36.3666 26.1751C36.5833 26.0834 36.425 25.8417 36.6083 25.7751C36.7666 25.7167 36.6666 25.5667 36.7666 25.4334H38" stroke="black" stroke-width="0.0183333" stroke-linecap="round" stroke-linejoin="round"/>
<path d="M37.5 25.5417C37.35 25.75 37.5833 25.8417 37.4417 26.0083C37.3 26.1833 37.5 26.2417 37.3917 26.4417C37.2833 26.6417 37.475 26.6917 37.3333 26.8917C37.1917 27.0917 37.4083 27.25 37.2583 27.45C37.1 27.65 37.3333 27.7583 37.1917 27.9583C37.0583 28.1667 37.2583 28.275 37.1333 28.425C37.0083 28.5833 37.225 28.7333 37.0667 28.925C36.9167 29.1083 37.1333 29.25 37.0083 29.4167C36.8833 29.5917 37.0583 29.775 36.95 29.9167C36.8417 30.05 37.025 30.2583 36.8667 30.4417C36.7167 30.625 36.9 30.75 36.8083 30.875C36.7167 31 36.6417 31.1833 36.7333 31.2333M37.175 25.4833C37.0083 25.65 37.2083 25.775 37.0417 25.975C36.8667 26.1833 37.025 26.2917 36.8833 26.475C36.7417 26.6583 36.95 26.75 36.7917 26.9583C36.6333 27.1583 36.825 27.2833 36.65 27.45C36.4833 27.625 36.6833 27.775 36.5083 27.9583C36.3417 28.15 36.5417 28.275 36.375 28.4417C36.2 28.6167 36.4 28.8 36.2333 28.9667C36.0667 29.1417 36.2667 29.3583 36.075 29.5583C35.8917 29.7583 36.1083 29.9167 35.9583 30.0667C35.8 30.225 35.9417 30.3833 35.8333 30.4917C35.725 30.6 35.7083 30.75 35.75 30.8167L37.175 25.4833Z" stroke="black" stroke-width="0.0183333" stroke-linecap="round" stroke-linejoin="round"/>
<path d="M37.9999 31.2667C38.3582 31.6001 39.0499 31.3834 39.2666 31.2334C39.4916 31.3084 40.0916 31.0751 40.2499 30.8167C40.6832 30.8751 40.8332 30.2584 40.7582 30.1001C40.6416 29.8667 40.8499 29.7167 40.6999 29.5584C40.4916 29.3584 40.8166 29.1667 40.6166 29.0334C40.4166 28.8917 40.6666 28.6584 40.4666 28.5084C40.2582 28.3501 40.5749 28.1334 40.3582 28.0251C40.1416 27.9167 40.3832 27.6334 40.1999 27.5251C40.0166 27.4167 40.3082 27.1417 40.0582 27.0167C39.8166 26.8917 40.0332 26.6751 39.8416 26.5834C39.6332 26.4751 39.8249 26.2501 39.6332 26.1751C39.4166 26.0834 39.5749 25.8417 39.3916 25.7751C39.2332 25.7167 39.3332 25.5667 39.2332 25.4334H37.9999" fill="#009E49"/>
<path d="M37.9999 31.2667C38.3582 31.6001 39.0499 31.3834 39.2666 31.2334C39.4916 31.3084 40.0916 31.0751 40.2499 30.8167C40.6832 30.8751 40.8332 30.2584 40.7582 30.1001C40.6416 29.8667 40.8499 29.7167 40.6999 29.5584C40.4916 29.3584 40.8166 29.1667 40.6166 29.0334C40.4166 28.8917 40.6666 28.6584 40.4666 28.5084C40.2582 28.3501 40.5749 28.1334 40.3582 28.0251C40.1416 27.9167 40.3832 27.6334 40.1999 27.5251C40.0166 27.4167 40.3082 27.1417 40.0582 27.0167C39.8166 26.8917 40.0332 26.6751 39.8416 26.5834C39.6332 26.4751 39.8249 26.2501 39.6332 26.1751C39.4166 26.0834 39.5749 25.8417 39.3916 25.7751C39.2332 25.7167 39.3332 25.5667 39.2332 25.4334H37.9999" stroke="black" stroke-width="0.0183333" stroke-linecap="round" stroke-linejoin="round"/>
<path d="M38.4999 25.5417C38.6499 25.75 38.4165 25.8417 38.5582 26.0083C38.6999 26.1833 38.4999 26.2417 38.6082 26.4417C38.7165 26.6417 38.5249 26.6917 38.6665 26.8917C38.8082 27.0917 38.5915 27.25 38.7415 27.45C38.8999 27.65 38.6665 27.7583 38.8082 27.9583C38.9415 28.1667 38.7415 28.275 38.8665 28.425C38.9915 28.5833 38.7749 28.7333 38.9332 28.925C39.0832 29.1083 38.8665 29.25 38.9915 29.4167C39.1165 29.5917 38.9415 29.775 39.0499 29.9167C39.1582 30.05 38.9749 30.2583 39.1332 30.4417C39.2832 30.625 39.0999 30.75 39.1915 30.875C39.2832 31 39.3582 31.1833 39.2665 31.2333M38.8249 25.4833C38.9915 25.65 38.7915 25.775 38.9582 25.975C39.1332 26.1833 38.9749 26.2917 39.1165 26.475C39.2582 26.6583 39.0499 26.75 39.2082 26.9583C39.3665 27.1583 39.1749 27.2833 39.3499 27.45C39.5165 27.625 39.3165 27.775 39.4915 27.9583C39.6582 28.15 39.4582 28.275 39.6249 28.4417C39.7999 28.6167 39.5999 28.8 39.7665 28.9667C39.9332 29.1417 39.7332 29.3583 39.9249 29.5583C40.1082 29.7583 39.8915 29.9167 40.0415 30.0667C40.1999 30.225 40.0582 30.3833 40.1665 30.4917C40.2749 30.6 40.2915 30.75 40.2499 30.8167L38.8249 25.4833Z" stroke="black" stroke-width="0.0183333" stroke-linecap="round" stroke-linejoin="round"/>
<path d="M38 31.2667V25.4334" stroke="#009E49" stroke-width="0.0183333" stroke-linecap="round" stroke-linejoin="round"/>
<path d="M38 25.7334C37.925 26.0584 38.1083 26.3417 38 26.6167C37.8917 26.8834 38.075 26.9917 38.0167 27.2084C37.95 27.4251 38.0917 27.5834 38 27.8167C37.9083 28.0501 38.125 28.2334 38 28.5417C37.875 28.8417 38.0833 28.9167 38 29.2251C37.9083 29.5751 38.1583 29.7584 38 30.0084C37.8417 30.2584 38.1417 30.3167 38.0167 30.6001C37.8917 30.8751 38.0917 30.9834 38 31.2667" stroke="black" stroke-width="0.0183333" stroke-linecap="round" stroke-linejoin="round"/>
<path d="M38.1249 26.7834C38.0833 26.8751 38.2499 27.0917 38.1583 27.2584C38.0583 27.4167 38.2083 27.6667 38.1083 27.8667C38.0083 28.0667 38.2666 28.3167 38.1666 28.5501C38.0583 28.7834 38.2166 29.0751 38.1666 29.2917C38.1249 29.5084 38.2749 29.9251 38.1666 30.0751C38.0583 30.2334 38.2749 30.2751 38.1499 30.6584C38.0249 31.0417 37.9416 30.7167 38.0166 30.6001C38.1749 30.3417 37.8416 30.2584 37.9999 30.0084C38.1583 29.7584 37.9083 29.5751 37.9999 29.2251C38.0833 28.9167 37.8749 28.8417 37.9999 28.5417C38.1249 28.2334 37.9083 28.0501 37.9999 27.8167C38.0916 27.5834 37.9499 27.4251 38.0166 27.2084C38.0749 26.9917 37.8916 26.8834 37.9999 26.6167C38.0833 26.3501 38.1666 26.6917 38.1249 26.7834ZM37.4249 27.0501C37.3666 27.1501 37.5249 27.3417 37.3833 27.5334C37.2833 27.6667 37.4499 27.8251 37.3083 28.0167C37.2166 28.1501 37.3999 28.3167 37.2749 28.5084C37.1916 28.6167 37.3333 28.8251 37.2333 28.9834C37.1333 29.1501 37.2833 29.2834 37.1083 29.5001C37.0083 29.6167 37.1833 29.9084 37.0749 30.0001C36.9666 30.0917 37.0666 30.4501 36.9916 30.5001C36.9249 30.5584 36.9916 30.8167 36.8083 30.8751C36.8999 30.7501 36.7166 30.6251 36.8666 30.4417C37.0249 30.2584 36.8416 30.0501 36.9499 29.9167C37.0583 29.7751 36.8833 29.5917 37.0083 29.4167C37.1333 29.2501 36.9166 29.1084 37.0666 28.9251C37.2249 28.7334 37.0083 28.5834 37.1333 28.4251C37.2583 28.2751 37.0583 28.1667 37.1916 27.9584C37.3333 27.7584 37.0999 27.6501 37.2583 27.4501C37.4083 27.2501 37.1916 27.0917 37.3333 26.8917C37.4749 26.6917 37.2833 26.6417 37.3916 26.4417C37.5916 26.5167 37.4916 26.9501 37.4249 27.0501ZM37.0083 26.5084C36.9249 26.6417 37.0416 26.8001 36.9166 26.9667C36.7916 27.1417 36.9166 27.3584 36.7916 27.5001C36.6666 27.6334 36.8249 27.9001 36.6666 28.0084C36.5083 28.1167 36.6083 28.4417 36.4833 28.5501C36.3583 28.6584 36.4833 28.9667 36.3416 29.1251C36.1999 29.2834 36.2666 29.6084 36.1833 29.6834C36.1083 29.7584 36.2916 29.9167 36.1583 30.0251C36.0166 30.1334 36.0166 30.3501 35.8333 30.4917C35.9416 30.3834 35.7999 30.2251 35.9583 30.0667C36.1083 29.9167 35.8916 29.7584 36.0749 29.5584C36.2666 29.3584 36.0666 29.1417 36.2333 28.9667C36.3999 28.8001 36.1999 28.6167 36.3749 28.4417C36.5416 28.2751 36.3416 28.1501 36.5083 27.9584C36.6833 27.7751 36.4833 27.6251 36.6499 27.4501C36.8249 27.2834 36.6333 27.1584 36.7916 26.9584C36.9499 26.7501 36.7416 26.6584 36.8833 26.4751C36.9499 26.3917 36.9499 26.3167 36.9499 26.2501C37.0499 25.9917 37.0499 26.4417 37.0083 26.5084Z" fill="#FCD116" stroke="black" stroke-width="0.0183333" stroke-linecap="round" stroke-linejoin="round"/>
<path d="M36.8417 25.6251C36.8417 23.8751 37.0833 23.2667 38 23.2667C38.9167 23.2667 39.1583 23.8751 39.1583 25.6251H36.8417Z" fill="#CE1126" stroke="black" stroke-width="0.0183333" stroke-linecap="round" stroke-linejoin="round"/>
<path d="M36.8417 25.6251C36.8417 23.8751 37.0833 23.2667 38 23.2667C37.5833 23.2667 37.325 23.5917 37.2583 23.8084C37.1833 24.0251 37.225 24.0084 37.3167 23.9251C37.4083 23.8417 37.3667 24.0251 37.2833 24.1251C37.2083 24.2251 37.1333 24.5167 37.2417 24.4251C37.35 24.3251 37.4333 24.4334 37.3167 24.6001C37.2 24.7584 37.1 25.1417 37.2167 25.0084C37.3333 24.8751 37.3583 25.0917 37.2833 25.2001C37.2167 25.3084 37.225 25.4084 37.2833 25.3584C37.35 25.3084 37.3417 25.5334 37.2833 25.6251H36.8417ZM38.4333 25.5917C38.4333 25.3334 38.4417 24.7251 38.3 24.5251C38.2 24.3667 38.2 24.2001 38.3167 24.3834C38.4333 24.5667 38.4917 24.4751 38.4083 24.2917C38.3083 24.0584 38.175 23.8001 38.2083 23.7501C38.25 23.6917 38.275 23.7167 38.3583 23.8417C38.4417 23.9667 38.4583 23.7834 38.3667 23.6584C38.275 23.5417 38.2833 23.5167 38.475 23.6001C38.8167 23.7417 38.9833 24.1501 38.9833 25.5251L38.4333 25.5917Z" fill="black" stroke="black" stroke-width="0.0183333" stroke-linecap="round" stroke-linejoin="round"/>
<path d="M37.9999 25.8751C37.6333 25.8751 37.2333 25.8167 36.9666 25.7084C36.6499 25.5834 36.6333 25.4751 36.7416 25.3417C36.8249 25.2417 36.9916 25.3001 37.1583 25.3751C37.3166 25.4417 37.7666 25.4917 37.9999 25.4917C38.2333 25.4917 38.6833 25.4417 38.8416 25.3667C39.0083 25.3001 39.1749 25.2417 39.2583 25.3417C39.3666 25.4751 39.3499 25.5834 39.0333 25.7084C38.7666 25.8167 38.3666 25.8751 37.9999 25.8751Z" fill="#CE1126" stroke="black" stroke-width="0.0183333" stroke-linecap="round" stroke-linejoin="round"/>
<mask id="mask1_1_33981" style="mask-type:alpha" maskUnits="userSpaceOnUse" x="3" y="6" width="24" height="18">
<rect x="3" y="6" width="24" height="18" fill="#C4C4C4"/>
</mask>
<g mask="url(#mask1_1_33981)">
<path d="M3 6L27 24L3 6ZM27 6L3 24L27 6Z" fill="black"/>
<path d="M27 6L3 24M3 6L27 24L3 6Z" stroke="white" stroke-width="2.4"/>
<path d="M3 6L27 24L3 6ZM27 6L3 24L27 6Z" fill="black"/>
<path d="M27 6L3 24M3 6L27 24L3 6Z" stroke="#EE5757" stroke-width="1.6"/>
<path d="M15 6V27V6ZM3 15H31H3Z" fill="black"/>
<path d="M3 15H31M15 6V27V6Z" stroke="white" stroke-width="4"/>
<path d="M15 6V27V6ZM3 15H31H3Z" fill="black"/>
<path d="M3 15H31M15 6V27V6Z" stroke="#EE5757" stroke-width="2.4"/>
</g>
</g>
</svg>
