<svg width="54" height="54" viewBox="0 0 54 54" fill="none" xmlns="http://www.w3.org/2000/svg">
<mask id="mask0_1_33981" style="mask-type:alpha" maskUnits="userSpaceOnUse" x="3" y="9" width="48" height="36">
<path d="M3.56934 18.1356C4.16681 13.4125 8.0415 10.0019 12.7861 9.60887C16.6412 9.28949 21.6196 9 27 9C32.3804 9 37.3588 9.28949 41.2139 9.60887C45.9585 10.0019 49.8332 13.4125 50.4307 18.1356C50.752 20.6759 51 23.704 51 27C51 30.296 50.752 33.3241 50.4307 35.8644C49.8332 40.5875 45.9585 43.9981 41.2139 44.3911C37.3588 44.7105 32.3804 45 27 45C21.6196 45 16.6412 44.7105 12.7861 44.3911C8.04151 43.9981 4.16681 40.5875 3.56934 35.8644C3.248 33.3241 3 30.296 3 27C3 23.704 3.248 20.6759 3.56934 18.1356Z" fill="#00D0BF"/>
</mask>
<g mask="url(#mask0_1_33981)">
<rect x="3" y="9" width="48" height="36" fill="#2E50A6"/>
<path d="M45 20V26C45 30 43 34.3083 38 36.6417C33 34.3083 31 30 31 26V20H45Z" fill="#FCD116" stroke="black" stroke-width="0.533333"/>
<path d="M45 20V26C45 30 43 34.3083 38 36.6417C33 34.3083 31 30 31 26V20H45Z" stroke="white" stroke-width="0.466667"/>
<path d="M35.475 26.6084C35.2917 26.9167 34.9834 26.9834 34.7417 26.8834C34.4917 26.7834 34.2667 26.2 34.0167 25.8834C33.775 25.575 33.7084 25.7084 33.5417 25.525C33.3834 25.35 33.1334 25.2167 32.7417 25.0334C32.525 24.9334 32.3 24.8417 32.15 24.4584C32.2084 24.3 32.3667 24.1667 32.4917 24.1167C32.6167 24.075 32.7167 23.8917 32.7334 23.7334C32.75 23.5834 32.8834 23.4167 33.0667 23.2917C32.9834 23.3084 32.8084 23.275 32.725 23.2167C32.65 23.15 32.525 23.1667 32.45 23.225C32.375 23.275 32.2834 23.2917 32.15 23.275C32.2 23.2334 32.2917 23.1417 32.3 23.0584C32.3084 22.975 32.4084 22.9334 32.6 22.9334C32.7834 22.9334 32.9084 22.7167 33.0584 22.7167C32.95 22.7167 32.975 22.5334 33.0334 22.525C32.7667 22.475 32.8 22.2584 32.9084 22.2584C32.9 22.225 32.8667 22.1917 32.7417 22.15C32.625 22.1084 32.6834 22 32.775 21.9334C32.6917 21.7667 32.7667 21.6417 32.9 21.5334C32.7167 21.525 32.9167 21.2667 32.9667 21.125C33.0167 20.9917 33.0417 20.975 33.1 21.0584C33.1667 21.1334 33.3167 21.3084 33.4917 21.3584C33.6584 21.4084 33.7584 21.5 33.7917 21.6417C33.825 21.7917 33.8917 21.8667 34.075 21.9334C34.2667 21.9917 34.525 22.15 34.4917 22.5084C34.6417 22.5167 34.75 22.5584 34.8417 22.6334" fill="#FCAD56"/>
<path d="M35.475 26.6084C35.2917 26.9167 34.9834 26.9834 34.7417 26.8834C34.4917 26.7834 34.2667 26.2 34.0167 25.8834C33.775 25.575 33.7084 25.7084 33.5417 25.525C33.3834 25.35 33.1334 25.2167 32.7417 25.0334C32.525 24.9334 32.3 24.8417 32.15 24.4584C32.2084 24.3 32.3667 24.1667 32.4917 24.1167C32.6167 24.075 32.7167 23.8917 32.7334 23.7334C32.75 23.5834 32.8834 23.4167 33.0667 23.2917C32.9834 23.3084 32.8084 23.275 32.725 23.2167C32.65 23.15 32.525 23.1667 32.45 23.225C32.375 23.275 32.2834 23.2917 32.15 23.275C32.2 23.2334 32.2917 23.1417 32.3 23.0584C32.3084 22.975 32.4084 22.9334 32.6 22.9334C32.7834 22.9334 32.9084 22.7167 33.0584 22.7167C32.95 22.7167 32.975 22.5334 33.0334 22.525C32.7667 22.475 32.8 22.2584 32.9084 22.2584C32.9 22.225 32.8667 22.1917 32.7417 22.15C32.625 22.1084 32.6834 22 32.775 21.9334C32.6917 21.7667 32.7667 21.6417 32.9 21.5334C32.7167 21.525 32.9167 21.2667 32.9667 21.125C33.0167 20.9917 33.0417 20.975 33.1 21.0584C33.1667 21.1334 33.3167 21.3084 33.4917 21.3584C33.6584 21.4084 33.7584 21.5 33.7917 21.6417C33.825 21.7917 33.8917 21.8667 34.075 21.9334C34.2667 21.9917 34.525 22.15 34.4917 22.5084C34.6417 22.5167 34.75 22.5584 34.8417 22.6334" stroke="black" stroke-width="0.0183333" stroke-linecap="round" stroke-linejoin="round"/>
<path d="M35.9334 22.0917C35.9334 22.2917 36.0251 22.4167 36.1417 22.5167C36.2667 22.6167 36.3751 22.7001 36.3501 22.8251C36.3251 22.9584 36.3751 23.0417 36.4834 23.1251C36.6001 23.2084 36.6834 23.3084 36.6501 23.4751C36.6167 23.6417 36.6417 23.7417 36.7084 23.8667C36.7751 23.9917 36.8917 24.0917 36.8417 24.2917C36.7917 24.4917 36.8167 24.7584 36.8834 24.8917C36.9417 25.0167 36.8834 25.1167 36.7667 25.3417C36.6501 25.5584 36.5834 25.6417 36.3417 25.7251C36.0917 25.8001 36.0751 25.9501 36.0751 26.2084C36.0751 26.4751 35.9001 26.6084 35.5751 26.5584C35.2417 26.8334 35.0334 26.5084 34.9501 26.1001C34.8667 25.6917 34.8501 25.2501 34.3584 24.8917C33.8751 24.5251 34.0667 23.9084 34.4751 23.6584C34.8834 23.4167 34.8334 22.7001 34.7834 22.2584C34.7417 21.8167 35.0334 21.5667 35.2584 21.3251C35.5584 21.4417 35.9334 21.9001 35.9334 22.0917Z" fill="#FFA1A1" stroke="black" stroke-width="0.0183333" stroke-linecap="round" stroke-linejoin="round"/>
<path d="M35.2251 24.9334C35.1334 24.7167 35.0334 24.5001 35.2751 24.0334C35.5251 23.5584 35.3667 23.2001 35.2917 22.9584C35.2167 22.7251 35.2001 22.5084 35.2917 22.4084C35.3917 22.3167 35.4334 22.2584 35.4417 22.1001C35.4501 21.9501 35.5751 22.0001 35.5917 22.0751C35.6084 22.1501 35.6251 22.2751 35.4917 22.5001C35.3584 22.7334 35.8667 23.3001 35.6334 23.9084C35.4751 24.3334 35.6834 24.8751 35.7667 25.2501C35.8501 25.6251 35.9001 26.5251 35.3501 26.6584C35.7251 26.4751 35.3751 25.2834 35.2251 24.9334Z" fill="#F1B2DC" stroke="black" stroke-width="0.0183333" stroke-linecap="round" stroke-linejoin="round"/>
<path d="M32.9 21.5334C32.9583 21.5334 33.0833 21.5168 33.0833 21.5918M32.75 24.8668C32.8417 24.8834 32.8917 24.8334 32.9167 24.7751C32.9417 24.7168 32.9583 24.6834 33.0417 24.6751C33.125 24.6751 33.2583 24.6501 33.2917 24.5834C33.3167 24.5168 33.4167 24.5751 33.5083 24.4084C33.5917 24.2334 33.65 24.0334 33.875 23.9584L32.75 24.8668ZM34.4917 22.5084C34.4083 22.5084 34.1667 22.5168 34.0667 22.7334L34.4917 22.5084ZM33.375 21.4751C33.575 21.5334 33.4917 21.6668 33.5917 21.7418C33.775 21.8834 33.6083 22.0334 33.7583 22.0751C33.9083 22.1168 33.9 22.1418 33.8667 22.3084C33.8167 22.5001 34 22.5084 33.9333 22.6334L33.375 21.4751ZM33.0667 23.2918C33.1833 23.1834 33.475 23.1001 33.5417 22.9834L33.0667 23.2918ZM33.0583 22.7168C33.2333 22.7084 33.4667 22.7751 33.5 22.7084L33.0583 22.7168ZM33.0333 22.5251C33.1167 22.5251 33.2917 22.4668 33.325 22.3501L33.0333 22.5251ZM32.9083 22.2584C33.0083 22.2584 33.1333 22.2501 33.2583 22.1584L32.9083 22.2584ZM32.775 21.9334C32.85 21.8751 32.9833 21.9418 33.1083 21.8584L32.775 21.9334Z" stroke="black" stroke-width="0.0183333" stroke-linecap="round" stroke-linejoin="round"/>
<path d="M40.875 23.0584C40.875 23.0584 40.2917 22.5667 39.8083 22.2334C39.325 21.9001 38.7417 21.4917 38.7417 21.4084C38.8333 21.3417 39.325 21.6584 40 22.0667C40.6833 22.4834 41.0667 22.8917 41.0667 22.8917L40.875 23.0584ZM40.8333 23.3917C40.8333 23.3917 40.2667 23.0501 39.7083 22.8084C39.125 22.5667 38.25 22.5667 38.1583 22.4834C38.1583 22.4001 39.175 22.3501 39.9 22.6417C40.6417 22.9834 41.025 23.2251 41.025 23.2251L40.8333 23.3917ZM40.825 23.9584C40.825 23.9584 40.2083 23.6751 39.6083 23.5417C39.025 23.4084 38.1917 23.4584 38.0917 23.3834C38.0917 23.3001 39.125 23.1334 39.9 23.3834C40.6833 23.6251 41.0167 23.7917 41.0167 23.7917L40.825 23.9584ZM40.7917 24.5334C40.7917 24.5334 40.325 24.2167 39.7083 24.1501C39.125 24.0917 38.35 24.5334 38.25 24.4501C38.25 24.3667 38.925 23.8751 39.7667 23.9584C40.5917 24.0417 40.9833 24.3667 40.9833 24.3667L40.7917 24.5334ZM40.9833 22.7167C40.9833 22.7167 40.3917 22.1751 40.3917 21.8084C40.3917 21.4834 40.75 20.9834 40.9083 20.9834C40.825 21.1501 40.55 21.4834 40.55 21.8084C40.55 22.1417 41.175 22.5501 41.175 22.5501L40.9833 22.7167Z" fill="#9E540A" stroke="black" stroke-width="0.0183333" stroke-linecap="round" stroke-linejoin="round"/>
<path d="M40.9834 22.7168C40.9834 22.7168 41.1 22.1751 41.1 21.8084C41.1 21.3168 40.75 20.8668 40.7834 20.7418C40.9084 20.8668 41.2584 21.2334 41.2584 21.8084C41.2584 22.3084 41.175 22.5501 41.175 22.5501L40.9834 22.7168Z" fill="#9E540A" stroke="black" stroke-width="0.0183333" stroke-linecap="round" stroke-linejoin="round"/>
<path d="M41.125 22.5418C41.125 22.3835 41.0667 22.2418 40.9667 22.1335C40.8334 21.9751 40.6334 21.9251 40.425 21.9585C40.175 22.0001 39.975 22.1501 39.85 22.3835C39.6834 22.6918 39.6667 23.0251 39.6584 23.3501C39.6584 24.4751 39.7 24.9335 39.7334 26.0418C39.7417 26.3668 39.8 27.0335 39.65 27.5585C39.5917 27.7835 39.525 27.9918 39.425 28.2085C39.4917 27.9335 39.525 27.7918 39.5584 27.5835C39.65 27.0418 39.625 26.5335 39.6084 26.0335C39.575 25.0085 39.5167 24.4835 39.4834 23.2418C39.475 22.8668 39.5084 22.5835 39.6834 22.2835C39.8667 21.9751 40.1834 21.7501 40.5417 21.7501C40.6917 21.7501 40.8167 21.7751 40.9417 21.8501C41.1917 21.9835 41.3084 22.2585 41.3084 22.5335L41.125 22.5418Z" fill="#9E540A"/>
<path d="M41.1751 26.5584C41.1751 26.5584 40.9417 26.9751 40.7667 27.2751C40.5917 27.5751 40.4501 27.6418 40.3167 27.5501C40.1917 27.4584 40.3001 27.2168 40.4001 27.1001C40.5001 26.9834 41.0584 26.4418 41.0584 26.4418L41.1751 26.5584Z" fill="#9E540A" stroke="black" stroke-width="0.0183333" stroke-linecap="round" stroke-linejoin="round"/>
<path d="M41.2333 26.5918C41.2333 26.5918 41.1417 27.0668 41.0667 27.4085C41 27.7501 40.8833 27.8668 40.7417 27.8251C40.5917 27.7918 40.6167 27.5168 40.675 27.3751C40.7333 27.2335 41.0833 26.5168 41.0833 26.5168L41.2333 26.5918Z" fill="#9E540A" stroke="black" stroke-width="0.0183333" stroke-linecap="round" stroke-linejoin="round"/>
<path d="M41.3333 26.6084C41.3333 26.6084 41.3333 27.0918 41.3333 27.4418C41.3333 27.7918 41.25 27.9334 41.0916 27.9251C40.9416 27.9168 40.9083 27.6501 40.9416 27.4918C40.9666 27.3418 41.175 26.5668 41.175 26.5668L41.3333 26.6084Z" fill="#9E540A" stroke="black" stroke-width="0.0183333" stroke-linecap="round" stroke-linejoin="round"/>
<path d="M41.3334 26.6001C40.8917 26.5918 40.8501 26.4334 40.8501 26.4334C40.8501 26.4334 40.7917 26.2334 40.7834 26.1084C40.7751 26.0918 40.6584 25.8418 40.6917 25.7334C40.6501 25.6334 40.5501 25.3918 40.6417 25.3501C40.6001 25.2334 40.5334 25.1001 40.5251 24.9751C40.4917 24.8834 40.4084 24.6834 40.4751 24.6168C40.4751 24.6168 40.3167 24.2834 40.3917 24.2001C40.3917 24.2001 40.3167 23.8751 40.3917 23.7918C40.3917 23.7918 40.3917 23.4584 40.4751 23.3751C40.4751 23.3751 40.4751 23.0501 40.5501 22.9668C40.5501 22.9834 40.7834 22.5084 41.3334 22.5084L41.3251 23.2168H41.3334V26.6001Z" fill="#9E540A" stroke="black" stroke-width="0.0183333" stroke-linecap="round" stroke-linejoin="round"/>
<path d="M41.3334 25.1918C40.6251 25.1918 40.5501 25.0251 40.5501 25.0251C40.5501 25.0251 40.5417 25.0084 40.5251 24.9751M41.3334 24.7834C40.6251 24.7751 40.4751 24.6168 40.4751 24.6168L41.3334 24.7834ZM41.3334 24.3668C40.6251 24.3668 40.3917 24.2001 40.3917 24.2001L41.3334 24.3668ZM41.3334 23.9584C40.6251 23.9501 40.3917 23.7918 40.3917 23.7918L41.3334 23.9584ZM41.3334 23.5418C40.6251 23.5334 40.4751 23.3751 40.4751 23.3751L41.3334 23.5418ZM41.3251 23.2168C41.3334 23.2168 40.7917 23.2168 40.7084 23.1334L40.5501 22.9751L41.3251 23.2168ZM41.3334 26.2668C41.1251 26.2668 40.8917 26.2334 40.7834 26.1084L41.3334 26.2668ZM41.3334 25.9334C40.9417 25.9334 40.7084 25.7751 40.7084 25.7751C40.7084 25.7751 40.7001 25.7584 40.6917 25.7334L41.3334 25.9334ZM41.3334 25.5251C40.8167 25.5168 40.6751 25.4084 40.6417 25.3501L41.3334 25.5251Z" stroke="black" stroke-width="0.0183333" stroke-linecap="round" stroke-linejoin="round"/>
<path d="M41.7917 23.0584C41.7917 23.0584 42.3751 22.5667 42.8584 22.2334C43.3417 21.9001 43.9251 21.4917 43.9251 21.4084C43.8334 21.3417 43.3417 21.6584 42.6667 22.0667C41.9834 22.4834 41.6001 22.8917 41.6001 22.8917L41.7917 23.0584ZM41.8334 23.3917C41.8334 23.3917 42.4001 23.0501 42.9584 22.8084C43.5417 22.5667 44.4167 22.5667 44.5084 22.4834C44.5084 22.4001 43.4917 22.3501 42.7667 22.6417C42.0251 22.9834 41.6417 23.2251 41.6417 23.2251L41.8334 23.3917ZM41.8417 23.9584C41.8417 23.9584 42.4584 23.6751 43.0584 23.5417C43.6417 23.4084 44.4751 23.4584 44.5751 23.3834C44.5751 23.3001 43.5417 23.1334 42.7667 23.3834C41.9834 23.6251 41.6501 23.7917 41.6501 23.7917L41.8417 23.9584ZM41.8751 24.5334C41.8751 24.5334 42.3417 24.2167 42.9584 24.1501C43.5417 24.0917 44.3167 24.5334 44.4167 24.4501C44.4167 24.3667 43.7417 23.8751 42.9001 23.9584C42.0751 24.0417 41.6834 24.3667 41.6834 24.3667L41.8751 24.5334ZM41.6834 22.7167C41.6834 22.7167 42.2751 22.1751 42.2751 21.8084C42.2751 21.4834 41.9167 20.9834 41.7584 20.9834C41.8417 21.1501 42.1167 21.4834 42.1167 21.8084C42.1167 22.1417 41.4917 22.5501 41.4917 22.5501L41.6834 22.7167Z" fill="#9E540A" stroke="black" stroke-width="0.0183333" stroke-linecap="round" stroke-linejoin="round"/>
<path d="M41.6834 22.7168C41.6834 22.7168 41.5667 22.1751 41.5667 21.8084C41.5667 21.3168 41.9167 20.8668 41.8834 20.7418C41.7584 20.8668 41.4084 21.2334 41.4084 21.8084C41.4084 22.3084 41.4917 22.5501 41.4917 22.5501L41.6834 22.7168Z" fill="#9E540A" stroke="black" stroke-width="0.0183333" stroke-linecap="round" stroke-linejoin="round"/>
<path d="M41.5417 22.5418C41.5417 22.3835 41.6 22.2418 41.7 22.1335C41.8334 21.9751 42.0334 21.9251 42.2417 21.9585C42.4917 22.0001 42.6917 22.1501 42.8167 22.3835C42.9834 22.6918 43 23.0251 43.0084 23.3501C43.0084 24.4751 42.9667 24.9335 42.9334 26.0418C42.925 26.3668 42.8667 27.0335 43.0167 27.5585C43.075 27.7835 43.1417 27.9918 43.2417 28.2085C43.175 27.9335 43.1417 27.7918 43.1084 27.5835C43.0167 27.0418 43.0417 26.5335 43.0584 26.0335C43.0917 25.0085 43.15 24.4835 43.1834 23.2418C43.1917 22.8668 43.1584 22.5835 42.9834 22.2835C42.8 21.9751 42.4834 21.7501 42.125 21.7501C41.975 21.7501 41.85 21.7751 41.725 21.8501C41.475 21.9835 41.3584 22.2585 41.3584 22.5335L41.5417 22.5418Z" fill="#9E540A"/>
<path d="M41.4917 26.5584C41.4917 26.5584 41.725 26.9751 41.9 27.2751C42.075 27.5751 42.2167 27.6418 42.35 27.5501C42.475 27.4584 42.3667 27.2168 42.2667 27.1001C42.1667 26.9834 41.6083 26.4418 41.6083 26.4418L41.4917 26.5584Z" fill="#9E540A" stroke="black" stroke-width="0.0183333" stroke-linecap="round" stroke-linejoin="round"/>
<path d="M41.4334 26.5918C41.4334 26.5918 41.5251 27.0668 41.6001 27.4085C41.6668 27.7501 41.7834 27.8668 41.9251 27.8251C42.0751 27.7918 42.0501 27.5168 41.9918 27.3751C41.9334 27.2335 41.5834 26.5168 41.5834 26.5168L41.4334 26.5918Z" fill="#9E540A" stroke="black" stroke-width="0.0183333" stroke-linecap="round" stroke-linejoin="round"/>
<path d="M41.3335 26.6084C41.3335 26.6084 41.3335 27.0918 41.3335 27.4418C41.3335 27.7918 41.4168 27.9334 41.5751 27.9251C41.7251 27.9168 41.7585 27.6501 41.7251 27.4918C41.7001 27.3418 41.4918 26.5668 41.4918 26.5668L41.3335 26.6084Z" fill="#9E540A" stroke="black" stroke-width="0.0183333" stroke-linecap="round" stroke-linejoin="round"/>
<path d="M41.3333 26.6001C41.775 26.5918 41.8167 26.4334 41.8167 26.4334C41.8167 26.4334 41.875 26.2334 41.8833 26.1084C41.8917 26.0918 42.0083 25.8418 41.975 25.7334C42.0167 25.6334 42.1167 25.3918 42.025 25.3501C42.0667 25.2334 42.1333 25.1001 42.1417 24.9751C42.175 24.8834 42.2583 24.6834 42.1917 24.6168C42.1917 24.6168 42.35 24.2834 42.275 24.2001C42.275 24.2001 42.35 23.8751 42.275 23.7918C42.275 23.7918 42.275 23.4584 42.1917 23.3751C42.1917 23.3751 42.1917 23.0501 42.1167 22.9668C42.1167 22.9834 41.8833 22.5084 41.3333 22.5084L41.3417 23.2168H41.3333V26.6001Z" fill="#9E540A" stroke="black" stroke-width="0.0183333" stroke-linecap="round" stroke-linejoin="round"/>
<path d="M41.3334 25.1918C42.0417 25.1918 42.1167 25.0251 42.1167 25.0251C42.1167 25.0251 42.125 25.0084 42.1417 24.9751M41.3334 24.7834C42.0417 24.7751 42.1917 24.6168 42.1917 24.6168L41.3334 24.7834ZM41.3334 24.3668C42.0417 24.3668 42.275 24.2001 42.275 24.2001L41.3334 24.3668ZM41.3334 23.9584C42.0417 23.9501 42.275 23.7918 42.275 23.7918L41.3334 23.9584ZM41.3334 23.5418C42.0417 23.5334 42.1917 23.3751 42.1917 23.3751L41.3334 23.5418ZM41.3417 23.2168C41.3334 23.2168 41.875 23.2168 41.9584 23.1334L42.1167 22.9751L41.3417 23.2168ZM41.3334 26.2668C41.5417 26.2668 41.775 26.2334 41.8834 26.1084L41.3334 26.2668ZM41.3334 25.9334C41.725 25.9334 41.9584 25.7751 41.9584 25.7751C41.9584 25.7751 41.9667 25.7584 41.975 25.7334L41.3334 25.9334ZM41.3334 25.5251C41.85 25.5168 41.9917 25.4084 42.025 25.3501L41.3334 25.5251Z" stroke="black" stroke-width="0.0183333" stroke-linecap="round" stroke-linejoin="round"/>
<path d="M38 34.2667C37.6416 34.6001 36.95 34.3834 36.7333 34.2334C36.5083 34.3084 35.9083 34.0751 35.75 33.8167C35.3166 33.8751 35.1666 33.2584 35.2416 33.1001C35.3583 32.8667 35.15 32.7167 35.3 32.5584C35.5083 32.3584 35.1833 32.1667 35.3833 32.0334C35.5833 31.8917 35.3333 31.6584 35.5333 31.5084C35.7416 31.3501 35.425 31.1334 35.6416 31.0251C35.8583 30.9167 35.6166 30.6334 35.8 30.5251C35.9833 30.4167 35.6916 30.1417 35.9416 30.0167C36.1833 29.8917 35.9666 29.6751 36.1583 29.5834C36.3666 29.4751 36.175 29.2501 36.3666 29.1751C36.5833 29.0834 36.425 28.8417 36.6083 28.7751C36.7666 28.7167 36.6666 28.5667 36.7666 28.4334H38" fill="#009E49"/>
<path d="M38 34.2667C37.6416 34.6001 36.95 34.3834 36.7333 34.2334C36.5083 34.3084 35.9083 34.0751 35.75 33.8167C35.3166 33.8751 35.1666 33.2584 35.2416 33.1001C35.3583 32.8667 35.15 32.7167 35.3 32.5584C35.5083 32.3584 35.1833 32.1667 35.3833 32.0334C35.5833 31.8917 35.3333 31.6584 35.5333 31.5084C35.7416 31.3501 35.425 31.1334 35.6416 31.0251C35.8583 30.9167 35.6166 30.6334 35.8 30.5251C35.9833 30.4167 35.6916 30.1417 35.9416 30.0167C36.1833 29.8917 35.9666 29.6751 36.1583 29.5834C36.3666 29.4751 36.175 29.2501 36.3666 29.1751C36.5833 29.0834 36.425 28.8417 36.6083 28.7751C36.7666 28.7167 36.6666 28.5667 36.7666 28.4334H38" stroke="black" stroke-width="0.0183333" stroke-linecap="round" stroke-linejoin="round"/>
<path d="M37.5 28.5417C37.35 28.75 37.5833 28.8417 37.4417 29.0083C37.3 29.1833 37.5 29.2417 37.3917 29.4417C37.2833 29.6417 37.475 29.6917 37.3333 29.8917C37.1917 30.0917 37.4083 30.25 37.2583 30.45C37.1 30.65 37.3333 30.7583 37.1917 30.9583C37.0583 31.1667 37.2583 31.275 37.1333 31.425C37.0083 31.5833 37.225 31.7333 37.0667 31.925C36.9167 32.1083 37.1333 32.25 37.0083 32.4167C36.8833 32.5917 37.0583 32.775 36.95 32.9167C36.8417 33.05 37.025 33.2583 36.8667 33.4417C36.7167 33.625 36.9 33.75 36.8083 33.875C36.7167 34 36.6417 34.1833 36.7333 34.2333M37.175 28.4833C37.0083 28.65 37.2083 28.775 37.0417 28.975C36.8667 29.1833 37.025 29.2917 36.8833 29.475C36.7417 29.6583 36.95 29.75 36.7917 29.9583C36.6333 30.1583 36.825 30.2833 36.65 30.45C36.4833 30.625 36.6833 30.775 36.5083 30.9583C36.3417 31.15 36.5417 31.275 36.375 31.4417C36.2 31.6167 36.4 31.8 36.2333 31.9667C36.0667 32.1417 36.2667 32.3583 36.075 32.5583C35.8917 32.7583 36.1083 32.9167 35.9583 33.0667C35.8 33.225 35.9417 33.3833 35.8333 33.4917C35.725 33.6 35.7083 33.75 35.75 33.8167L37.175 28.4833Z" stroke="black" stroke-width="0.0183333" stroke-linecap="round" stroke-linejoin="round"/>
<path d="M37.9999 34.2667C38.3582 34.6001 39.0499 34.3834 39.2666 34.2334C39.4916 34.3084 40.0916 34.0751 40.2499 33.8167C40.6832 33.8751 40.8332 33.2584 40.7582 33.1001C40.6416 32.8667 40.8499 32.7167 40.6999 32.5584C40.4916 32.3584 40.8166 32.1667 40.6166 32.0334C40.4166 31.8917 40.6666 31.6584 40.4666 31.5084C40.2582 31.3501 40.5749 31.1334 40.3582 31.0251C40.1416 30.9167 40.3832 30.6334 40.1999 30.5251C40.0166 30.4167 40.3082 30.1417 40.0582 30.0167C39.8166 29.8917 40.0332 29.6751 39.8416 29.5834C39.6332 29.4751 39.8249 29.2501 39.6332 29.1751C39.4166 29.0834 39.5749 28.8417 39.3916 28.7751C39.2332 28.7167 39.3332 28.5667 39.2332 28.4334H37.9999" fill="#009E49"/>
<path d="M37.9999 34.2667C38.3582 34.6001 39.0499 34.3834 39.2666 34.2334C39.4916 34.3084 40.0916 34.0751 40.2499 33.8167C40.6832 33.8751 40.8332 33.2584 40.7582 33.1001C40.6416 32.8667 40.8499 32.7167 40.6999 32.5584C40.4916 32.3584 40.8166 32.1667 40.6166 32.0334C40.4166 31.8917 40.6666 31.6584 40.4666 31.5084C40.2582 31.3501 40.5749 31.1334 40.3582 31.0251C40.1416 30.9167 40.3832 30.6334 40.1999 30.5251C40.0166 30.4167 40.3082 30.1417 40.0582 30.0167C39.8166 29.8917 40.0332 29.6751 39.8416 29.5834C39.6332 29.4751 39.8249 29.2501 39.6332 29.1751C39.4166 29.0834 39.5749 28.8417 39.3916 28.7751C39.2332 28.7167 39.3332 28.5667 39.2332 28.4334H37.9999" stroke="black" stroke-width="0.0183333" stroke-linecap="round" stroke-linejoin="round"/>
<path d="M38.4999 28.5417C38.6499 28.75 38.4165 28.8417 38.5582 29.0083C38.6999 29.1833 38.4999 29.2417 38.6082 29.4417C38.7165 29.6417 38.5249 29.6917 38.6665 29.8917C38.8082 30.0917 38.5915 30.25 38.7415 30.45C38.8999 30.65 38.6665 30.7583 38.8082 30.9583C38.9415 31.1667 38.7415 31.275 38.8665 31.425C38.9915 31.5833 38.7749 31.7333 38.9332 31.925C39.0832 32.1083 38.8665 32.25 38.9915 32.4167C39.1165 32.5917 38.9415 32.775 39.0499 32.9167C39.1582 33.05 38.9749 33.2583 39.1332 33.4417C39.2832 33.625 39.0999 33.75 39.1915 33.875C39.2832 34 39.3582 34.1833 39.2665 34.2333M38.8249 28.4833C38.9915 28.65 38.7915 28.775 38.9582 28.975C39.1332 29.1833 38.9749 29.2917 39.1165 29.475C39.2582 29.6583 39.0499 29.75 39.2082 29.9583C39.3665 30.1583 39.1749 30.2833 39.3499 30.45C39.5165 30.625 39.3165 30.775 39.4915 30.9583C39.6582 31.15 39.4582 31.275 39.6249 31.4417C39.7999 31.6167 39.5999 31.8 39.7665 31.9667C39.9332 32.1417 39.7332 32.3583 39.9249 32.5583C40.1082 32.7583 39.8915 32.9167 40.0415 33.0667C40.1999 33.225 40.0582 33.3833 40.1665 33.4917C40.2749 33.6 40.2915 33.75 40.2499 33.8167L38.8249 28.4833Z" stroke="black" stroke-width="0.0183333" stroke-linecap="round" stroke-linejoin="round"/>
<path d="M38 34.2667V28.4334" stroke="#009E49" stroke-width="0.0183333" stroke-linecap="round" stroke-linejoin="round"/>
<path d="M38 28.7334C37.925 29.0584 38.1083 29.3417 38 29.6167C37.8917 29.8834 38.075 29.9917 38.0167 30.2084C37.95 30.4251 38.0917 30.5834 38 30.8167C37.9083 31.0501 38.125 31.2334 38 31.5417C37.875 31.8417 38.0833 31.9167 38 32.2251C37.9083 32.5751 38.1583 32.7584 38 33.0084C37.8417 33.2584 38.1417 33.3167 38.0167 33.6001C37.8917 33.8751 38.0917 33.9834 38 34.2667" stroke="black" stroke-width="0.0183333" stroke-linecap="round" stroke-linejoin="round"/>
<path d="M38.1249 29.7834C38.0833 29.8751 38.2499 30.0917 38.1583 30.2584C38.0583 30.4167 38.2083 30.6667 38.1083 30.8667C38.0083 31.0667 38.2666 31.3167 38.1666 31.5501C38.0583 31.7834 38.2166 32.0751 38.1666 32.2917C38.1249 32.5084 38.2749 32.9251 38.1666 33.0751C38.0583 33.2334 38.2749 33.2751 38.1499 33.6584C38.0249 34.0417 37.9416 33.7167 38.0166 33.6001C38.1749 33.3417 37.8416 33.2584 37.9999 33.0084C38.1583 32.7584 37.9083 32.5751 37.9999 32.2251C38.0833 31.9167 37.8749 31.8417 37.9999 31.5417C38.1249 31.2334 37.9083 31.0501 37.9999 30.8167C38.0916 30.5834 37.9499 30.4251 38.0166 30.2084C38.0749 29.9917 37.8916 29.8834 37.9999 29.6167C38.0833 29.3501 38.1666 29.6917 38.1249 29.7834ZM37.4249 30.0501C37.3666 30.1501 37.5249 30.3417 37.3833 30.5334C37.2833 30.6667 37.4499 30.8251 37.3083 31.0167C37.2166 31.1501 37.3999 31.3167 37.2749 31.5084C37.1916 31.6167 37.3333 31.8251 37.2333 31.9834C37.1333 32.1501 37.2833 32.2834 37.1083 32.5001C37.0083 32.6167 37.1833 32.9084 37.0749 33.0001C36.9666 33.0917 37.0666 33.4501 36.9916 33.5001C36.9249 33.5584 36.9916 33.8167 36.8083 33.8751C36.8999 33.7501 36.7166 33.6251 36.8666 33.4417C37.0249 33.2584 36.8416 33.0501 36.9499 32.9167C37.0583 32.7751 36.8833 32.5917 37.0083 32.4167C37.1333 32.2501 36.9166 32.1084 37.0666 31.9251C37.2249 31.7334 37.0083 31.5834 37.1333 31.4251C37.2583 31.2751 37.0583 31.1667 37.1916 30.9584C37.3333 30.7584 37.0999 30.6501 37.2583 30.4501C37.4083 30.2501 37.1916 30.0917 37.3333 29.8917C37.4749 29.6917 37.2833 29.6417 37.3916 29.4417C37.5916 29.5167 37.4916 29.9501 37.4249 30.0501ZM37.0083 29.5084C36.9249 29.6417 37.0416 29.8001 36.9166 29.9667C36.7916 30.1417 36.9166 30.3584 36.7916 30.5001C36.6666 30.6334 36.8249 30.9001 36.6666 31.0084C36.5083 31.1167 36.6083 31.4417 36.4833 31.5501C36.3583 31.6584 36.4833 31.9667 36.3416 32.1251C36.1999 32.2834 36.2666 32.6084 36.1833 32.6834C36.1083 32.7584 36.2916 32.9167 36.1583 33.0251C36.0166 33.1334 36.0166 33.3501 35.8333 33.4917C35.9416 33.3834 35.7999 33.2251 35.9583 33.0667C36.1083 32.9167 35.8916 32.7584 36.0749 32.5584C36.2666 32.3584 36.0666 32.1417 36.2333 31.9667C36.3999 31.8001 36.1999 31.6167 36.3749 31.4417C36.5416 31.2751 36.3416 31.1501 36.5083 30.9584C36.6833 30.7751 36.4833 30.6251 36.6499 30.4501C36.8249 30.2834 36.6333 30.1584 36.7916 29.9584C36.9499 29.7501 36.7416 29.6584 36.8833 29.4751C36.9499 29.3917 36.9499 29.3167 36.9499 29.2501C37.0499 28.9917 37.0499 29.4417 37.0083 29.5084Z" fill="#FCD116" stroke="black" stroke-width="0.0183333" stroke-linecap="round" stroke-linejoin="round"/>
<path d="M36.8417 28.6251C36.8417 26.8751 37.0833 26.2667 38 26.2667C38.9167 26.2667 39.1583 26.8751 39.1583 28.6251H36.8417Z" fill="#CE1126" stroke="black" stroke-width="0.0183333" stroke-linecap="round" stroke-linejoin="round"/>
<path d="M36.8417 28.6251C36.8417 26.8751 37.0833 26.2667 38 26.2667C37.5833 26.2667 37.325 26.5917 37.2583 26.8084C37.1833 27.0251 37.225 27.0084 37.3167 26.9251C37.4083 26.8417 37.3667 27.0251 37.2833 27.1251C37.2083 27.2251 37.1333 27.5167 37.2417 27.4251C37.35 27.3251 37.4333 27.4334 37.3167 27.6001C37.2 27.7584 37.1 28.1417 37.2167 28.0084C37.3333 27.8751 37.3583 28.0917 37.2833 28.2001C37.2167 28.3084 37.225 28.4084 37.2833 28.3584C37.35 28.3084 37.3417 28.5334 37.2833 28.6251H36.8417ZM38.4333 28.5917C38.4333 28.3334 38.4417 27.7251 38.3 27.5251C38.2 27.3667 38.2 27.2001 38.3167 27.3834C38.4333 27.5667 38.4917 27.4751 38.4083 27.2917C38.3083 27.0584 38.175 26.8001 38.2083 26.7501C38.25 26.6917 38.275 26.7167 38.3583 26.8417C38.4417 26.9667 38.4583 26.7834 38.3667 26.6584C38.275 26.5417 38.2833 26.5167 38.475 26.6001C38.8167 26.7417 38.9833 27.1501 38.9833 28.5251L38.4333 28.5917Z" fill="black" stroke="black" stroke-width="0.0183333" stroke-linecap="round" stroke-linejoin="round"/>
<path d="M37.9999 28.8751C37.6333 28.8751 37.2333 28.8167 36.9666 28.7084C36.6499 28.5834 36.6333 28.4751 36.7416 28.3417C36.8249 28.2417 36.9916 28.3001 37.1583 28.3751C37.3166 28.4417 37.7666 28.4917 37.9999 28.4917C38.2333 28.4917 38.6833 28.4417 38.8416 28.3667C39.0083 28.3001 39.1749 28.2417 39.2583 28.3417C39.3666 28.4751 39.3499 28.5834 39.0333 28.7084C38.7666 28.8167 38.3666 28.8751 37.9999 28.8751Z" fill="#CE1126" stroke="black" stroke-width="0.0183333" stroke-linecap="round" stroke-linejoin="round"/>
<mask id="mask1_1_33981" style="mask-type:alpha" maskUnits="userSpaceOnUse" x="3" y="9" width="24" height="18">
<rect x="3" y="9" width="24" height="18" fill="#C4C4C4"/>
</mask>
<g mask="url(#mask1_1_33981)">
<path d="M3 9L27 27L3 9ZM27 9L3 27Z" fill="black"/>
<path d="M27 9L3 27M3 9L27 27L3 9Z" stroke="white" stroke-width="2.4"/>
<path d="M3 9L27 27L3 9ZM27 9L3 27Z" fill="black"/>
<path d="M27 9L3 27M3 9L27 27L3 9Z" stroke="#EE5757" stroke-width="1.6"/>
<path d="M15 9V30V9ZM3 18H31Z" fill="black"/>
<path d="M3 18H31M15 9V30V9Z" stroke="white" stroke-width="4"/>
<path d="M15 9V30V9ZM3 18H31Z" fill="black"/>
<path d="M3 18H31M15 9V30V9Z" stroke="#EE5757" stroke-width="2.4"/>
</g>
</g>
</svg>
