<svg width="54" height="54" viewBox="0 0 54 54" fill="none" xmlns="http://www.w3.org/2000/svg">
<mask id="mask0_1_33941" style="mask-type:alpha" maskUnits="userSpaceOnUse" x="3" y="9" width="48" height="36">
<path d="M3.56934 18.1356C4.16681 13.4125 8.0415 10.0019 12.7861 9.60887C16.6412 9.28949 21.6196 9 27 9C32.3804 9 37.3588 9.28949 41.2139 9.60887C45.9585 10.0019 49.8332 13.4125 50.4307 18.1356C50.752 20.6759 51 23.704 51 27C51 30.296 50.752 33.3241 50.4307 35.8644C49.8332 40.5875 45.9585 43.9981 41.2139 44.3911C37.3588 44.7105 32.3804 45 27 45C21.6196 45 16.6412 44.7105 12.7861 44.3911C8.04151 43.9981 4.16681 40.5875 3.56934 35.8644C3.248 33.3241 3 30.296 3 27C3 23.704 3.248 20.6759 3.56934 18.1356Z" fill="#00D0BF"/>
</mask>
<g mask="url(#mask0_1_33941)">
<rect x="3" y="36" width="48" height="9" fill="#59C785"/>
<rect x="3" y="18" width="48" height="9" fill="#F5F5F5"/>
<rect x="3" y="27" width="48" height="9" fill="#F5F5F5"/>
<path d="M25.3447 26.3947C25.4199 26.2654 25.5352 26.1641 25.6732 26.1061C25.8111 26.0481 25.9641 26.0366 26.1092 26.0733C26.2542 26.11 26.3834 26.193 26.4771 26.3096C26.5708 26.4263 26.6239 26.5703 26.6285 26.7198V29.4747H27.1464V26.7198C27.151 26.5703 27.2042 26.4263 27.2979 26.3096C27.3916 26.193 27.5207 26.11 27.6658 26.0733C27.8108 26.0366 27.9639 26.0481 28.1018 26.1061C28.2397 26.1641 28.355 26.2654 28.4302 26.3947C28.5112 26.1505 28.5331 25.8905 28.494 25.6361C28.4549 25.3818 28.356 25.1403 28.2054 24.9317C28.0547 24.723 27.8567 24.5531 27.6276 24.4359C27.3985 24.3187 27.1448 24.2576 26.8875 24.2576C26.6301 24.2576 26.3765 24.3187 26.1474 24.4359C25.9182 24.5531 25.7202 24.723 25.5696 24.9317C25.419 25.1403 25.32 25.3818 25.2809 25.6361C25.2419 25.8905 25.2637 26.1505 25.3447 26.3947" fill="#F8C300"/>
<path d="M25.7139 25.6757C25.9399 25.6295 26.1748 25.6554 26.3854 25.7498C26.596 25.8442 26.7716 26.0023 26.8875 26.2019C27.0034 26.0023 27.179 25.8442 27.3895 25.7498C27.6001 25.6554 27.835 25.6295 28.061 25.6757C28.0221 25.3921 27.8818 25.1322 27.666 24.9441C27.4503 24.7559 27.1737 24.6523 26.8875 24.6523C26.6012 24.6523 26.3246 24.7559 26.1089 24.9441C25.8931 25.1322 25.7528 25.3921 25.7139 25.6757" fill="white"/>
<path d="M26.6284 28.3742C26.5933 28.7651 26.4491 29.1382 26.2121 29.4511C25.9752 29.7639 25.6551 30.0039 25.2883 30.1435C24.9215 30.2832 24.5229 30.317 24.1379 30.2411C23.7529 30.1651 23.3969 29.9825 23.1107 29.714C22.9884 30.021 22.7978 30.2961 22.5533 30.5185C22.3088 30.7409 22.0169 30.9047 21.6997 30.9974C21.3825 31.0902 21.0483 31.1095 20.7225 31.0539C20.3967 30.9982 20.0879 30.8691 19.8195 30.6764C20.0205 32.6834 23.029 32.2736 23.2532 30.3222C24.1983 31.9814 26.2766 31.5062 26.8847 29.4736L26.6284 28.3742Z" fill="#F8C300"/>
<path d="M27.1437 28.3742C27.1788 28.7651 27.323 29.1382 27.56 29.4511C27.7969 29.7639 28.117 30.0039 28.4838 30.1435C28.8505 30.2832 29.2492 30.317 29.6342 30.2411C30.0192 30.1651 30.3752 29.9825 30.6614 29.714C30.7837 30.021 30.9743 30.2961 31.2188 30.5185C31.4633 30.7409 31.7552 30.9047 32.0724 30.9974C32.3896 31.0902 32.7238 31.1095 33.0496 31.0539C33.3754 30.9982 33.6842 30.8691 33.9526 30.6764C33.7516 32.6834 30.7431 32.2736 30.5189 30.3222C29.5738 31.9814 27.4955 31.5062 26.8874 29.4736L27.1437 28.3742Z" fill="#F8C300"/>
<path d="M24.6196 31.9381C24.1999 32.8443 23.3609 32.9999 22.6271 32.2684C22.6271 32.2684 22.9221 32.06 23.2379 32.0025C23.1787 31.7505 23.3001 31.4019 23.4713 31.2133C23.6507 31.336 23.9012 31.5818 23.9649 31.8676C24.4073 31.8103 24.6197 31.9382 24.6197 31.9382L24.6196 31.9381Z" fill="#F8C300"/>
<path d="M29.2016 31.9381C29.6214 32.8443 30.4604 32.9999 31.1942 32.2684C31.1942 32.2684 30.8992 32.06 30.5834 32.0025C30.6426 31.7505 30.5212 31.4019 30.35 31.2133C30.1706 31.336 29.9201 31.5818 29.8564 31.8676C29.414 31.8103 29.2016 31.9382 29.2016 31.9382L29.2016 31.9381Z" fill="#F8C300"/>
<path d="M25.9179 31.7227C26.5579 32.4893 27.4086 32.4226 27.9281 31.5261C27.9281 31.5261 27.5892 31.4011 27.2693 31.4273C27.2613 31.1685 27.0537 30.8632 26.8396 30.7254C26.698 30.8903 26.5197 31.1926 26.5321 31.4851C26.09 31.5443 25.9179 31.7228 25.9179 31.7228L25.9179 31.7227Z" fill="#F8C300"/>
<path d="M21.543 33.9597C25.0304 32.9216 28.7446 32.9216 32.232 33.9597" stroke="#F8C300" stroke-width="0.881571"/>
<path d="M26.8874 19.4689L27.6971 21.9607L25.5774 20.4207H28.1975L26.0778 21.9607L26.8874 19.4689Z" fill="#F8C300"/>
<path d="M22.2837 20.929L23.0933 23.4208L20.9736 21.8808H23.5937L21.474 23.4208L22.2837 20.929Z" fill="#F8C300"/>
<path d="M31.4758 20.929L32.2855 23.4208L30.1658 21.8808H32.7858L30.6662 23.4208L31.4758 20.929Z" fill="#F8C300"/>
<path d="M33.9828 23.6288L34.7924 26.1206L32.6727 24.5806H35.2928L33.1731 26.1206L33.9828 23.6288Z" fill="#F8C300"/>
<path d="M19.7124 23.6288L20.522 26.1206L18.4023 24.5806H21.0224L18.9027 26.1206L19.7124 23.6288Z" fill="#F8C300"/>
<path d="M34.6899 27.3571L35.4996 29.849L33.3799 28.3089H36L33.8803 29.849L34.6899 27.3571Z" fill="#F8C300"/>
<path d="M19.0696 27.3571L19.8792 29.849L17.7595 28.3089H20.3796L18.2599 29.849L19.0696 27.3571Z" fill="#F8C300"/>
<rect x="3" y="9" width="48" height="9" fill="#EE5757"/>
</g>
</svg>
