<svg width="54" height="48" viewBox="0 0 54 48" fill="none" xmlns="http://www.w3.org/2000/svg">
<mask id="mask0_1_33941" style="mask-type:alpha" maskUnits="userSpaceOnUse" x="3" y="6" width="48" height="36">
<path d="M3.56934 15.1356C4.16681 10.4125 8.0415 7.00193 12.7861 6.60887C16.6412 6.28949 21.6196 6 27 6C32.3804 6 37.3588 6.28949 41.2139 6.60887C45.9585 7.00193 49.8332 10.4125 50.4307 15.1356C50.752 17.6759 51 20.704 51 24C51 27.296 50.752 30.3241 50.4307 32.8644C49.8332 37.5875 45.9585 40.9981 41.2139 41.3911C37.3588 41.7105 32.3804 42 27 42C21.6196 42 16.6412 41.7105 12.7861 41.3911C8.0415 40.9981 4.16681 37.5875 3.56934 32.8644C3.248 30.3241 3 27.296 3 24C3 20.704 3.248 17.6759 3.56934 15.1356Z" fill="#00D0BF"/>
</mask>
<g mask="url(#mask0_1_33941)">
<rect x="3" y="33" width="48" height="9" fill="#59C785"/>
<rect x="3" y="15" width="48" height="9" fill="#F5F5F5"/>
<rect x="3" y="24" width="48" height="9" fill="#F5F5F5"/>
<path d="M25.3447 23.3947C25.4199 23.2654 25.5352 23.1641 25.6732 23.1061C25.8111 23.0481 25.9641 23.0366 26.1092 23.0733C26.2542 23.11 26.3834 23.193 26.4771 23.3096C26.5708 23.4263 26.6239 23.5703 26.6285 23.7198V26.4747H27.1464V23.7198C27.151 23.5703 27.2042 23.4263 27.2979 23.3096C27.3916 23.193 27.5207 23.11 27.6658 23.0733C27.8108 23.0366 27.9639 23.0481 28.1018 23.1061C28.2397 23.1641 28.355 23.2654 28.4302 23.3947C28.5112 23.1505 28.5331 22.8905 28.494 22.6361C28.4549 22.3818 28.356 22.1403 28.2054 21.9317C28.0547 21.723 27.8567 21.5531 27.6276 21.4359C27.3985 21.3187 27.1448 21.2576 26.8875 21.2576C26.6301 21.2576 26.3765 21.3187 26.1474 21.4359C25.9182 21.5531 25.7202 21.723 25.5696 21.9317C25.419 22.1403 25.32 22.3818 25.2809 22.6361C25.2419 22.8905 25.2637 23.1505 25.3447 23.3947Z" fill="#F8C300"/>
<path d="M25.7139 22.6757C25.9399 22.6295 26.1748 22.6554 26.3854 22.7498C26.596 22.8442 26.7716 23.0023 26.8875 23.2019C27.0034 23.0023 27.179 22.8442 27.3895 22.7498C27.6001 22.6554 27.835 22.6295 28.061 22.6757C28.0221 22.3921 27.8818 22.1322 27.666 21.9441C27.4503 21.7559 27.1737 21.6523 26.8875 21.6523C26.6012 21.6523 26.3246 21.7559 26.1089 21.9441C25.8931 22.1322 25.7528 22.3921 25.7139 22.6757Z" fill="white"/>
<path d="M26.6284 25.3742C26.5933 25.7651 26.4491 26.1382 26.2121 26.4511C25.9752 26.7639 25.6551 27.0039 25.2883 27.1435C24.9215 27.2832 24.5229 27.317 24.1379 27.2411C23.7529 27.1651 23.3969 26.9825 23.1107 26.714C22.9884 27.021 22.7978 27.2961 22.5533 27.5185C22.3088 27.7409 22.0169 27.9047 21.6997 27.9974C21.3825 28.0902 21.0483 28.1095 20.7225 28.0539C20.3967 27.9982 20.0879 27.8691 19.8195 27.6764C20.0205 29.6834 23.029 29.2736 23.2532 27.3222C24.1983 28.9814 26.2766 28.5062 26.8847 26.4736L26.6284 25.3742Z" fill="#F8C300"/>
<path d="M27.1437 25.3742C27.1788 25.7651 27.323 26.1382 27.56 26.4511C27.7969 26.7639 28.117 27.0039 28.4838 27.1435C28.8505 27.2832 29.2492 27.317 29.6342 27.2411C30.0192 27.1651 30.3752 26.9825 30.6614 26.714C30.7837 27.021 30.9743 27.2961 31.2188 27.5185C31.4633 27.7409 31.7552 27.9047 32.0724 27.9974C32.3896 28.0902 32.7238 28.1095 33.0496 28.0539C33.3754 27.9982 33.6842 27.8691 33.9526 27.6764C33.7516 29.6834 30.7431 29.2736 30.5189 27.3222C29.5738 28.9814 27.4955 28.5062 26.8874 26.4736L27.1437 25.3742Z" fill="#F8C300"/>
<path d="M24.6196 28.9381C24.1999 29.8443 23.3609 29.9999 22.6271 29.2684C22.6271 29.2684 22.9221 29.06 23.2379 29.0025C23.1787 28.7505 23.3001 28.4019 23.4713 28.2133C23.6507 28.336 23.9012 28.5818 23.9649 28.8676C24.4073 28.8103 24.6197 28.9382 24.6197 28.9382L24.6196 28.9381Z" fill="#F8C300"/>
<path d="M29.2016 28.9381C29.6214 29.8443 30.4604 29.9999 31.1942 29.2684C31.1942 29.2684 30.8992 29.06 30.5834 29.0025C30.6426 28.7505 30.5212 28.4019 30.35 28.2133C30.1706 28.336 29.9201 28.5818 29.8564 28.8676C29.414 28.8103 29.2016 28.9382 29.2016 28.9382L29.2016 28.9381Z" fill="#F8C300"/>
<path d="M25.9179 28.7227C26.5579 29.4893 27.4086 29.4226 27.9281 28.5261C27.9281 28.5261 27.5892 28.4011 27.2693 28.4273C27.2613 28.1685 27.0537 27.8632 26.8396 27.7254C26.698 27.8903 26.5197 28.1926 26.5321 28.4851C26.09 28.5443 25.9179 28.7228 25.9179 28.7228L25.9179 28.7227Z" fill="#F8C300"/>
<path d="M21.543 30.9597C25.0304 29.9216 28.7446 29.9216 32.232 30.9597" stroke="#F8C300" stroke-width="0.881571"/>
<path d="M26.8874 16.4689L27.6971 18.9607L25.5774 17.4207H28.1975L26.0778 18.9607L26.8874 16.4689Z" fill="#F8C300"/>
<path d="M22.2837 17.929L23.0933 20.4208L20.9736 18.8808H23.5937L21.474 20.4208L22.2837 17.929Z" fill="#F8C300"/>
<path d="M31.4758 17.929L32.2855 20.4208L30.1658 18.8808H32.7858L30.6662 20.4208L31.4758 17.929Z" fill="#F8C300"/>
<path d="M33.9828 20.6288L34.7924 23.1206L32.6727 21.5806H35.2928L33.1731 23.1206L33.9828 20.6288Z" fill="#F8C300"/>
<path d="M19.7124 20.6288L20.522 23.1206L18.4023 21.5806H21.0224L18.9027 23.1206L19.7124 20.6288Z" fill="#F8C300"/>
<path d="M34.6899 24.3571L35.4996 26.849L33.3799 25.3089H36L33.8803 26.849L34.6899 24.3571Z" fill="#F8C300"/>
<path d="M19.0696 24.3571L19.8792 26.849L17.7595 25.3089H20.3796L18.2599 26.849L19.0696 24.3571Z" fill="#F8C300"/>
<rect x="3" y="6" width="48" height="9" fill="#EE5757"/>
</g>
</svg>
