<svg width="54" height="54" viewBox="0 0 54 54" fill="none" xmlns="http://www.w3.org/2000/svg">
<mask id="mask0_1_29805" style="mask-type:alpha" maskUnits="userSpaceOnUse" x="3" y="9" width="48" height="36">
<path d="M3.56934 18.1356C4.16681 13.4125 8.0415 10.0019 12.7861 9.60887C16.6412 9.28949 21.6196 9 27 9C32.3804 9 37.3588 9.28949 41.2139 9.60887C45.9585 10.0019 49.8332 13.4125 50.4307 18.1356C50.752 20.6759 51 23.704 51 27C51 30.296 50.752 33.3241 50.4307 35.8644C49.8332 40.5875 45.9585 43.9981 41.2139 44.3911C37.3588 44.7105 32.3804 45 27 45C21.6196 45 16.6412 44.7105 12.7861 44.3911C8.04151 43.9981 4.16681 40.5875 3.56934 35.8644C3.248 33.3241 3 30.296 3 27C3 23.704 3.248 20.6759 3.56934 18.1356Z" fill="#00D0BF"/>
</mask>
<g mask="url(#mask0_1_29805)">
<rect x="3" y="3" width="48" height="49" fill="#2E50A6"/>
<path d="M11.64 21.9635L10.6319 21.2916L9.65024 22L9.99563 20.8588L9 20.1686L10.2218 20.1359L10.5874 19L10.9975 20.1215L12.2193 20.1101L11.251 20.836L11.64 21.9636L11.64 21.9635Z" fill="white"/>
<path d="M16.64 15.9635L15.6319 15.2916L14.6502 16L14.9956 14.8588L14 14.1686L15.2218 14.1359L15.5874 13L15.9975 14.1215L17.2193 14.1101L16.251 14.836L16.64 15.9636L16.64 15.9635Z" fill="white"/>
<path d="M21.64 20.9635L20.6319 20.2916L19.6502 21L19.9956 19.8588L19 19.1686L20.2218 19.1359L20.5874 18L20.9975 19.1215L22.2193 19.1101L21.251 19.836L21.64 20.9636L21.64 20.9635Z" fill="white"/>
<path d="M16.64 31.9635L15.6319 31.2916L14.6502 32L14.9956 30.8588L14 30.1686L15.2218 30.1359L15.5874 29L15.9975 30.1215L17.2193 30.1101L16.251 30.836L16.64 31.9636L16.64 31.9635Z" fill="white"/>
<path d="M12.5706 39.4797C12.1508 39.4762 16.518 37.152 20.1733 34.1751C24.964 30.2735 35.2818 24.0268 38.3151 23.0117C38.6321 22.9056 37.6649 23.5519 37.5393 23.7612C34.3008 27.5943 36.8856 34.8275 40.9331 38.4636C42.1501 39.3944 42.0878 39.4433 44.344 39.5345V39.7451L12.5706 39.4797V39.4797Z" fill="#FCD95E"/>
<path d="M12.3073 39.9024C12.3073 39.9024 11.9991 40.1225 12 40.2865C12.001 40.4684 12.3457 40.7089 12.3457 40.7089L43.6851 41.0546L44.2612 40.6705L43.4547 40.1712L12.3073 39.9024V39.9024Z" fill="#FCD95E"/>
</g>
</svg>
