<svg width="54" height="48" viewBox="0 0 54 48" fill="none" xmlns="http://www.w3.org/2000/svg">
<mask id="mask0_1_29805" style="mask-type:alpha" maskUnits="userSpaceOnUse" x="3" y="6" width="48" height="36">
<path d="M3.56934 15.1356C4.16681 10.4125 8.0415 7.00193 12.7861 6.60887C16.6412 6.28949 21.6196 6 27 6C32.3804 6 37.3588 6.28949 41.2139 6.60887C45.9585 7.00193 49.8332 10.4125 50.4307 15.1356C50.752 17.6759 51 20.704 51 24C51 27.296 50.752 30.3241 50.4307 32.8644C49.8332 37.5875 45.9585 40.9981 41.2139 41.3911C37.3588 41.7105 32.3804 42 27 42C21.6196 42 16.6412 41.7105 12.7861 41.3911C8.0415 40.9981 4.16681 37.5875 3.56934 32.8644C3.248 30.3241 3 27.296 3 24C3 20.704 3.248 17.6759 3.56934 15.1356Z" fill="#00D0BF"/>
</mask>
<g mask="url(#mask0_1_29805)">
<rect x="3" width="48" height="49" fill="#2E50A6"/>
<path d="M11.64 18.9635L10.6319 18.2916L9.65024 19L9.99563 17.8588L9 17.1686L10.2218 17.1359L10.5874 16L10.9975 17.1215L12.2193 17.1101L11.251 17.836L11.64 18.9636L11.64 18.9635Z" fill="white"/>
<path d="M16.64 12.9635L15.6319 12.2916L14.6502 13L14.9956 11.8588L14 11.1686L15.2218 11.1359L15.5874 10L15.9975 11.1215L17.2193 11.1101L16.251 11.836L16.64 12.9636L16.64 12.9635Z" fill="white"/>
<path d="M21.64 17.9635L20.6319 17.2916L19.6502 18L19.9956 16.8588L19 16.1686L20.2218 16.1359L20.5874 15L20.9975 16.1215L22.2193 16.1101L21.251 16.836L21.64 17.9636L21.64 17.9635Z" fill="white"/>
<path d="M16.64 28.9635L15.6319 28.2916L14.6502 29L14.9956 27.8588L14 27.1686L15.2218 27.1359L15.5874 26L15.9975 27.1215L17.2193 27.1101L16.251 27.836L16.64 28.9636L16.64 28.9635Z" fill="white"/>
<path d="M12.5706 36.4797C12.1508 36.4762 16.518 34.152 20.1733 31.1751C24.964 27.2735 35.2818 21.0268 38.3151 20.0117C38.6321 19.9056 37.6649 20.5519 37.5393 20.7612C34.3008 24.5943 36.8856 31.8275 40.9331 35.4636C42.1501 36.3944 42.0878 36.4433 44.344 36.5345V36.7451L12.5706 36.4797Z" fill="#FCD95E"/>
<path d="M12.3073 36.9024C12.3073 36.9024 11.9991 37.1225 12 37.2865C12.001 37.4684 12.3457 37.7089 12.3457 37.7089L43.6851 38.0546L44.2612 37.6705L43.4547 37.1712L12.3073 36.9024Z" fill="#FCD95E"/>
</g>
</svg>
