<svg width="54" height="48" viewBox="0 0 54 48" fill="none" xmlns="http://www.w3.org/2000/svg">
<mask id="mask0_1_31282" style="mask-type:alpha" maskUnits="userSpaceOnUse" x="3" y="6" width="48" height="36">
<path d="M3.56934 15.1356C4.16681 10.4125 8.0415 7.00193 12.7861 6.60887C16.6412 6.28949 21.6196 6 27 6C32.3804 6 37.3588 6.28949 41.2139 6.60887C45.9585 7.00193 49.8332 10.4125 50.4307 15.1356C50.752 17.6759 51 20.704 51 24C51 27.296 50.752 30.3241 50.4307 32.8644C49.8332 37.5875 45.9585 40.9981 41.2139 41.3911C37.3588 41.7105 32.3804 42 27 42C21.6196 42 16.6412 41.7105 12.7861 41.3911C8.0415 40.9981 4.16681 37.5875 3.56934 32.8644C3.248 30.3241 3 27.296 3 24C3 20.704 3.248 17.6759 3.56934 15.1356Z" fill="#00D0BF"/>
</mask>
<g mask="url(#mask0_1_31282)">
<rect x="3" width="48" height="49" fill="#1C6864"/>
<path d="M32.1668 9.55902C33.8327 10.2743 35 11.9297 35 13.8572C35 16.4391 32.9062 18.5329 30.3243 18.5329C29.1684 18.5329 28.1106 18.113 27.2944 17.4178C27.7993 17.6343 28.351 17.7651 28.9323 17.7905C31.5117 17.9031 33.6948 15.9027 33.8074 13.3232C33.8728 11.8257 33.2258 10.4618 32.1668 9.55903L32.1668 9.55902Z" fill="white"/>
<path d="M27.7072 12.9961L28.2369 11.3656L26.85 12.3733H28.5643L27.1774 11.3656L27.7072 12.9961Z" fill="white"/>
<path d="M21.0922 5.39142H10.946V42.9698H21.0922V5.39142Z" fill="#D22630"/>
<path d="M10.9464 2.91003V3.27826L11.517 3.81234L11.3246 3.99148L11.7326 4.36965L11.5535 4.5322V4.29667H11.2051V4.57864L11.9914 5.31508H12.3894L12.4326 5.05633H12.2037L12.4525 4.82412L13.0761 5.39138L12.4525 5.96196L12.2037 5.72974H12.4326L12.3894 5.46768H11.9914L11.2051 6.20413V6.4861H11.5535V6.25057L11.7326 6.41312L11.3246 6.79129L11.517 6.97374L10.9464 7.50451V7.87273L11.9117 6.97374L11.7193 6.79129L12.124 6.41312L11.7757 6.08802L12.0079 5.87571L12.4525 6.28706L13.4278 5.39139L12.4525 4.49572L12.0079 4.91038L11.7757 4.69476L12.124 4.36966L11.7193 3.99149L11.9117 3.81236L10.9464 2.91005V2.91003ZM10.9464 4.69807V6.0847L11.172 5.8558V5.58711H11.4108L11.6032 5.39138L11.4108 5.19898H11.172V4.92696L10.9464 4.69807V4.69807ZM12.5918 5.18903L12.5586 5.37811L12.5918 5.57052L12.7975 5.37811L12.5918 5.18903Z" fill="#383739"/>
<path d="M10.9461 2.94995V3.24188L11.5565 3.81245L11.3641 3.99159L11.7721 4.36976L11.5267 4.59865V4.32332H11.2314V4.5688L12.0044 5.28865H12.3626L12.3991 5.08298H12.1337L12.4522 4.78442L13.1156 5.39149L12.4522 5.99855L12.1337 5.70331H12.3991L12.3625 5.49432H12.0043L11.2313 6.21418V6.45966H11.5266V6.18432L11.772 6.41321L11.364 6.79139L11.5564 6.97383L10.946 7.5411V7.83302L11.8716 6.97383L11.6792 6.79139L12.0839 6.41322L11.7355 6.08812L12.0076 5.836L12.4521 6.25067L13.3843 5.39149L12.4521 4.53231L12.0076 4.94697L11.7355 4.69485L12.0839 4.36976L11.6792 3.99159L11.8716 3.81245L10.946 2.94995L10.9461 2.94995ZM10.9461 4.73799V6.045L11.1452 5.84596V5.55736H11.4006L11.5665 5.3915L11.4006 5.22563H11.1452V4.93702L10.9461 4.73799V4.73799ZM12.6114 5.24222L12.5882 5.37823L12.6114 5.51424L12.7574 5.37823L12.6114 5.24222Z" fill="#FFC72C"/>
<path d="M21.092 2.91003V3.27826L20.5215 3.81234L20.7139 3.99148L20.3058 4.36965L20.485 4.5322V4.29667H20.8333V4.57864L20.0471 5.31508H19.649L19.6059 5.05633H19.8348L19.586 4.82412L18.9623 5.39138L19.586 5.96196L19.8348 5.72974H19.6059L19.649 5.46768H20.0471L20.8333 6.20413V6.4861H20.485V6.25057L20.3058 6.41312L20.7139 6.79129L20.5215 6.97374L21.092 7.50451V7.87273L20.1267 6.97374L20.3191 6.79129L19.9144 6.41312L20.2627 6.08802L20.0305 5.87571L19.586 6.28706L18.6107 5.39139L19.586 4.49572L20.0305 4.91038L20.2627 4.69476L19.9144 4.36966L20.3191 3.99149L20.1267 3.81236L21.092 2.91005V2.91003ZM21.092 4.69807V6.0847L20.8665 5.8558V5.58711H20.6276L20.4352 5.39138L20.6276 5.19898H20.8665V4.92696L21.092 4.69807V4.69807ZM19.4467 5.18903L19.4798 5.37811L19.4467 5.57052L19.241 5.37811L19.4467 5.18903Z" fill="#383739"/>
<path d="M21.0923 2.94995V3.24188L20.4819 3.81245L20.6743 3.99159L20.2663 4.36976L20.5118 4.59865V4.32332H20.807V4.5688L20.0341 5.28865H19.6758L19.6393 5.08298H19.9047L19.5863 4.78442L18.9228 5.39149L19.5863 5.99855L19.9047 5.70331H19.6393L19.6759 5.49432H20.0342L20.8071 6.21418V6.45966H20.5119V6.18432L20.2664 6.41321L20.6744 6.79139L20.482 6.97383L21.0924 7.5411V7.83302L20.1669 6.97383L20.3593 6.79139L19.9546 6.41322L20.3029 6.08812L20.0309 5.836L19.5864 6.25067L18.6542 5.39149L19.5864 4.53231L20.0309 4.94697L20.3029 4.69485L19.9546 4.36976L20.3593 3.99159L20.1669 3.81245L21.0924 2.94995L21.0923 2.94995ZM21.0923 4.73799V6.045L20.8933 5.84596V5.55736H20.6379L20.472 5.3915L20.6379 5.22563H20.8933V4.93702L21.0923 4.73799V4.73799ZM19.427 5.24222L19.4503 5.37823L19.427 5.51424L19.2811 5.37823L19.427 5.24222Z" fill="#FFC72C"/>
<path d="M11.7691 38.6374C11.8192 38.8508 11.9889 39.0118 12.0293 39.2332C12.1102 39.0024 12.1849 38.8089 12.1291 38.5565C12.0893 38.3759 11.9374 38.2471 11.9198 38.0616C11.7542 38.2105 11.7185 38.4217 11.7691 38.6374ZM11.7272 39.5315C11.8676 39.7241 12.0629 39.8718 12.2785 39.9703C12.236 39.8016 12.3157 39.6746 12.4041 39.5407C12.5107 39.3795 12.5626 39.2211 12.4758 39.0355C12.4353 39.132 12.3809 39.2121 12.3171 39.2946C12.2227 39.4234 12.1607 39.5379 12.1462 39.703C12.037 39.6221 11.9891 39.5013 11.9307 39.3845C11.8418 39.2171 11.6982 39.0771 11.5333 38.9856C11.5771 39.1734 11.6109 39.3719 11.7272 39.5315L11.7272 39.5315ZM12.5149 40.1055C12.4849 40.2125 12.459 40.3185 12.4648 40.4303C12.372 40.3303 12.2487 40.2551 12.1388 40.1745C11.989 40.0534 11.8145 39.968 11.6921 39.8138C11.7103 40.0407 11.8075 40.2258 11.9919 40.3639C12.1869 40.5098 12.422 40.5882 12.614 40.7414C12.5853 40.535 12.6611 40.3696 12.7258 40.1799C12.7797 39.9986 12.7275 39.8145 12.6045 39.6763C12.6064 39.8295 12.5581 39.961 12.5149 40.1055L12.5149 40.1055ZM12.9525 40.8028C12.9929 40.9594 13.1051 41.0868 13.1817 41.2265C12.9751 41.1624 12.7928 41.0503 12.606 40.9449C12.3836 40.8238 12.142 40.7467 11.9406 40.5867C12.0409 40.9578 12.2893 41.1729 12.6526 41.2826C12.9011 41.3576 13.1105 41.3202 13.412 41.442C13.3774 41.2379 13.3165 41.0177 13.22 40.8336C13.1451 40.7005 13.0621 40.5693 13.0158 40.4227C12.9488 40.5431 12.9171 40.6656 12.9525 40.8028H12.9525ZM13.7127 41.3706C13.7839 41.4925 13.8778 41.595 13.9942 41.6759C13.7009 41.6946 13.4649 41.5087 13.179 41.5006C13.0023 41.4957 12.8347 41.5505 12.6545 41.5341C12.8683 41.6783 13.0921 41.8042 13.3523 41.8379C13.6906 41.8816 14.0026 41.7965 14.3758 41.8298C14.2014 41.7067 14.1141 41.542 14.0054 41.3648C13.8638 41.1436 13.7302 40.9859 13.4549 40.9503C13.5654 41.0746 13.6297 41.2285 13.7127 41.3706V41.3706ZM14.7544 41.8574C14.2377 41.9452 13.7425 42.0589 13.2148 42.0641C13.8055 42.2701 14.3621 42.3073 14.9479 42.0947C15.2645 41.9798 15.5073 41.9183 15.7464 41.9354C16.0958 41.9605 16.5205 42.0984 16.9905 42.5941L17.1752 42.4462C16.5016 41.846 15.6203 41.7101 14.7544 41.8574L14.7544 41.8574Z" fill="#FFC72C"/>
<path d="M12.2155 9.7968L11.4025 9.29825V8.0998L12.2155 7.60124V6.96711L12.9838 6.50444H13.5976L14.7655 5.84753H17.2728L18.4407 6.50444H19.0545L19.8228 6.96711V7.60124L20.6358 8.0998L20.6358 9.29825L19.8228 9.7968V10.4309L19.0545 10.8936H18.4407L17.2728 11.5505H14.7655L13.5976 10.8936H12.9838L12.2155 10.4309V9.7968Z" fill="#383739"/>
<path d="M14.7709 5.87573L13.6033 6.53256H12.9929L12.2432 6.98371V7.61731L11.4304 8.11491V9.2826L12.2432 9.7802V10.4171L12.9896 10.8683H13.6033L14.7709 11.5251H17.2656L18.4332 10.8683H19.0469L19.7967 10.4171V9.7802L20.6094 9.2826V8.11491L19.7967 7.61731V6.98371L19.0469 6.53256H18.4332L17.2656 5.87573H14.7709H14.7709ZM14.8406 6.1179H17.1992L18.3669 6.77472H18.9773L19.5445 7.11641V7.75001L20.3606 8.24761V9.14991L19.5445 9.64751V10.2811L18.9773 10.6228H18.3669L17.1992 11.2796H14.8406L13.6729 10.6228H13.0625L12.492 10.2811V9.64751L11.6792 9.14991V8.24761L12.492 7.75001V7.11641L13.0625 6.77472H13.6729L14.8406 6.1179Z" fill="#00843D"/>
<path d="M16.0057 8.71243V6.14404H14.8467L13.6787 6.80095H13.0698L12.519 7.13266V7.76525L11.7061 8.26377V8.68562L16.0326 8.68558V11.254H17.1917L18.3596 10.5971H18.9685L19.5193 10.2654V9.63286L20.3323 9.13431V8.71246L16.0057 8.71243Z" fill="#FFC72C"/>
<path d="M11.706 8.71246L11.7059 9.13431L12.5189 9.63286V10.2654L13.0697 10.5971H13.6786L14.8466 11.254H16.0057V8.68558L20.3322 8.68562V8.26377L19.5192 7.76525V7.13266L18.9684 6.80095H18.3595L17.1916 6.14404H16.0325V8.71243L11.706 8.71246Z" fill="white"/>
<path d="M13.4795 7.03743L13.2794 6.85089L13.0811 6.97317L13.2816 7.16009L13.0242 7.31957H13.5859L14.07 7.77619L14.2248 7.61264L13.7542 7.16865V6.86728L13.4795 7.03743Z" fill="#383739"/>
<path d="M14.4268 6.95552L14.2267 6.76898L14.0284 6.89126L14.2288 7.07818L13.9714 7.23766H14.5332L15.0172 7.69428L15.1721 7.53074L14.7014 7.08675V6.78537L14.4268 6.95552Z" fill="#383739"/>
<path d="M13.41 7.57326L13.2099 7.38672L13.0116 7.509L13.2121 7.69591L12.9547 7.8554H13.5164L14.0005 8.31201L14.1553 8.14847L13.6847 7.70448V7.4031L13.41 7.57326Z" fill="#383739"/>
<path d="M16.0191 6.11725H15.5122L15.247 6.37286H14.73L14.3479 6.57116L14.437 6.78825L14.7777 6.6093H14.9269L15.4494 7.21349L16.0191 6.86652L16.0191 6.11725Z" fill="#383739"/>
<path d="M13.276 6.88446L13.4559 7.0521L13.3052 7.14544L13.125 6.97754L13.276 6.88446ZM13.7273 6.91546V7.1802L14.1868 7.61371L14.0688 7.73832L13.5965 7.29275H13.1183L13.7273 6.91546L13.7273 6.91546Z" fill="#D22630"/>
<path d="M14.2233 6.80243L14.4031 6.97007L14.2524 7.06341L14.0724 6.89551L14.2233 6.80243ZM14.6745 6.83343V7.09817L15.1341 7.53167L15.0161 7.65628L14.5438 7.21076H14.0656L14.6745 6.83343L14.6745 6.83343Z" fill="#D22630"/>
<path d="M13.2066 7.42023L13.3864 7.58786L13.2357 7.68121L13.0556 7.51331L13.2066 7.42023ZM13.6578 7.45123V7.71597L14.1174 8.14947L13.9994 8.27408L13.5271 7.82855H13.0488L13.6578 7.45123V7.45123Z" fill="#D22630"/>
<path d="M16.0058 6.1441H15.5231L15.2579 6.39971H14.7366L14.3821 6.5837L14.4507 6.75085L14.7711 6.58257H14.9393L15.4549 7.17886L16.0058 6.8434L16.0058 6.1441Z" fill="#D22630"/>
<path d="M13.1417 7.87851L12.9 7.78821L12.8942 7.79223L12.5822 8.00876V8.06696L12.0824 8.699L12.5822 9.33103V9.38927L12.9 9.60978L13.1417 9.51948L12.9942 9.42182V9.23599L13.0528 9.16587H13.3147V8.23212H13.0528L12.9942 8.162V7.97617L13.1417 7.87851Z" fill="#383739"/>
<path d="M12.609 8.02286L12.9038 7.81836L13.083 7.88532L12.9674 7.96191V8.17186L13.0403 8.25904H13.2878V9.1392H13.0403L12.9674 9.22639V9.43634L13.083 9.51292L12.9038 9.57989L12.609 9.37538L12.609 9.32183L12.1166 8.69912L12.609 8.07638L12.609 8.02286Z" fill="#D22630"/>
<path d="M12.7126 9.22951L12.5766 9.11177V9.05503L12.2847 8.69898L12.5766 8.34288V8.28618L12.7127 8.16844L12.9571 8.3672L12.816 8.36611L13.0245 8.57767H13.5008L13.8754 8.28475V7.51225H14.8122L15.9003 6.84456V6.66944L15.7339 6.55855H15.6812L15.5 6.67981L15.4719 6.77026L15.3301 6.57673L15.6056 6.34529H15.6497L15.9606 6.11719H16.0778L16.3886 6.34529H16.4327L16.7082 6.57673L16.5664 6.77026L16.5384 6.67981L16.3572 6.55855H16.3044L16.138 6.66944V6.84456L17.2261 7.51225H18.163V8.28475L18.5375 8.57767H19.0138L19.2223 8.36611L19.0812 8.3672L19.3256 8.16844L19.4617 8.28618V8.34288L19.7536 8.69898L19.4617 9.05503V9.11177L19.3256 9.22951L19.0812 9.03076L19.2223 9.03185L19.0138 8.82024H18.5375L18.163 9.1132V9.8857H17.2261L16.138 10.5534V10.7285L16.3044 10.8394H16.3572L16.5384 10.7181L16.5664 10.6277L16.7082 10.8212L16.4327 11.0527H16.3886L16.0778 11.2808H15.9606L15.6497 11.0527H15.6056L15.3301 10.8212L15.4719 10.6277L15.5 10.7181L15.6811 10.8394H15.7338L15.9003 10.7285V10.5534L14.8122 9.8857H13.8754V9.1132L13.5007 8.82024H13.0245L12.816 9.03185L12.9571 9.03076L12.7126 9.22951Z" fill="#383739"/>
<path d="M16.0325 10.8602L16.1516 10.9512L16.0325 11.0423V10.8602V10.8602ZM15.6539 11.0258H15.6583L15.9692 11.2539H16.0055V11.0759L15.8424 10.9512L16.0056 10.8265V10.4922L14.8413 9.77772H13.9806V9.05982L13.5363 8.71229H12.866L12.6976 8.90278L12.5291 8.71229L12.3302 8.71233L12.6032 9.04535V9.09943L12.7114 9.19337L12.8852 9.05809L12.7832 9.05888V9.02506L13.0104 8.79339H13.5099L13.9021 9.1001V9.85885H14.8197L15.9269 10.5383V10.7428L15.7418 10.8661H15.6728L15.477 10.7351L15.4619 10.6864L15.3664 10.8168L15.6153 11.0258H15.6539V11.0258ZM12.6977 8.53556L12.8304 8.6855H12.565L12.6977 8.53556ZM16.0056 6.35556L15.8866 6.44662L16.0056 6.53763V6.35556ZM19.2077 8.71233L19.3404 8.86227L19.473 8.71233H19.2077ZM16.3797 6.37202L16.0688 6.14392H16.0325V6.32182L16.1957 6.44662L16.0325 6.57141V6.90564L17.1967 7.62011H18.0574V8.33801L18.5017 8.68554H19.1719L19.3404 8.49509L19.5089 8.6855H19.7078L19.4348 8.35248V8.2984L19.3266 8.20446L19.1529 8.33974L19.2549 8.33891V8.37277L19.0276 8.60441H18.5282L18.136 8.29769V7.53898H17.2183L16.1111 6.85949V6.65502L16.2962 6.53169H16.3652L16.561 6.66277L16.5761 6.71139L16.6716 6.58107L16.4228 6.37202H16.3797L16.3797 6.37202Z" fill="#FFC72C"/>
<path d="M16.0056 11.0424L15.8866 10.9513L16.0056 10.8603V11.0424ZM12.8304 8.71245L12.6978 8.86239L12.5651 8.71245H12.8304ZM16.3841 11.0259H16.3797L16.0688 11.254H16.0325V11.2074V11.0761L16.1957 10.9513L16.0325 10.8265V10.4923L17.1968 9.77784H18.0574V9.05994L18.5018 8.71241H19.172L19.3404 8.9029L19.5089 8.71241L19.7079 8.71245L19.4348 9.04547V9.09955L19.3267 9.19349L19.1529 9.05821L19.2549 9.059V9.02518L19.0276 8.79351H18.5282L18.136 9.10022V9.85897H17.2184L16.1111 10.5385V10.7429L16.2962 10.8663H16.3653L16.5611 10.7352L16.5762 10.6866L16.6716 10.8169L16.4228 11.0259H16.3841V11.0259ZM19.3404 8.53568L19.2078 8.68562H19.4731L19.3404 8.53568ZM15.6585 6.37214L15.9693 6.14404H16.0057V6.32194L15.8425 6.44674L16.0057 6.57154L16.0057 6.90576L14.8414 7.62024H13.9808V8.33813L13.5364 8.68566H12.8661L12.6976 8.49521L12.5291 8.68562H12.3303L12.6034 8.3526V8.29853L12.7116 8.20458L12.8853 8.33986L12.7833 8.33904V8.37289L13.0106 8.60453H13.51L13.9022 8.29781V7.5391H14.8198L15.9271 6.85961V6.65515L15.742 6.53181H15.6729L15.4771 6.66289L15.462 6.71151L15.3666 6.58119L15.6154 6.37214H15.6585L15.6585 6.37214ZM16.0325 6.53779L16.1516 6.44674L16.0325 6.35568V6.53779Z" fill="white"/>
<path d="M16.0057 8.71239V6.93713L14.849 7.64699H14.0076V8.35113L13.58 8.68558L16.0326 8.68554V10.4608L17.1892 9.75101H18.0306V9.04686L18.4583 8.71242L16.0057 8.71239Z" fill="#00843D"/>
<path d="M13.5798 8.71238L14.0075 9.04683V9.75097H14.8489L16.0056 10.4608V8.6855L18.4582 8.68555L18.0305 8.3511V7.64695H17.1891L16.0325 6.93713V8.71236L13.5798 8.71238Z" fill="#D22630"/>
<path d="M14.7741 7.83797L14.574 7.65143L14.3757 7.77367L14.5761 7.96059L14.3187 8.12007H14.8804L15.3645 8.57672L15.5194 8.41314L15.0487 7.96915V7.66781L14.7741 7.83797Z" fill="#383739"/>
<path d="M17.264 9.56011L17.4641 9.74665L17.6624 9.62437L17.4619 9.43745L17.7193 9.278H17.1576L16.6735 8.82135L16.5187 8.98489L16.9893 9.42892V9.73026L17.264 9.56011Z" fill="#383739"/>
<path d="M14.7741 9.56011L14.5739 9.74665L14.3757 9.62437L14.5761 9.43745L14.3187 9.278H14.8804L15.3645 8.82135L15.5194 8.98489L15.0487 9.42892V9.73026L14.7741 9.56011Z" fill="#383739"/>
<path d="M17.264 7.83797L17.4641 7.65143L17.6624 7.77367L17.4619 7.96059L17.7193 8.12007H17.1576L16.6735 8.57672L16.5187 8.41314L16.9893 7.96915V7.66781L17.264 7.83797Z" fill="#383739"/>
<path d="M17.4675 9.71313L17.2876 9.5455L17.4383 9.45215L17.6184 9.62005L17.4675 9.71313ZM17.0162 9.68213V9.41743L16.5567 8.98393L16.6747 8.85928L17.147 9.30485H17.6252L17.0162 9.68213L17.0162 9.68213ZM14.5707 7.68506L14.7505 7.8527L14.5998 7.94608L14.4197 7.77818L14.5707 7.68506ZM15.022 7.7161V7.9808L15.4815 8.4143L15.3635 8.53895L14.8912 8.09339H14.413L15.022 7.7161L15.022 7.7161Z" fill="#D22630"/>
<path d="M17.4675 7.68506L17.2877 7.8527L17.4384 7.94608L17.6184 7.77818L17.4675 7.68506ZM17.0162 7.7161V7.9808L16.5567 8.4143L16.6747 8.53895L17.147 8.09339H17.6252L17.0162 7.7161L17.0162 7.7161ZM14.5707 9.71313L14.7505 9.5455L14.5998 9.45215L14.4198 9.62005L14.5707 9.71313ZM15.022 9.68213V9.41743L15.4815 8.98393L15.3635 8.85928L14.8912 9.30485H14.413L15.022 9.68213L15.022 9.68213Z" fill="#00843D"/>
<path d="M17.2628 8.69904L16.0191 9.52796L14.7753 8.69904L16.0191 7.87006L17.2628 8.69904Z" fill="#383739"/>
<path d="M16.0057 7.91113L14.8438 8.68551H17.1944L16.0325 7.91113V9.48672L17.1945 8.71234H14.8438L16.0057 9.48672V7.91113Z" fill="white"/>
<path d="M16.3518 8.98409V9.212H15.6866V8.98409H15.2561V8.41395H15.6866V8.18604H16.3518V8.41395H16.7822V8.98409H16.3518Z" fill="#383739"/>
<path d="M15.7134 8.21277V8.44068H15.283V8.68554H16.0057V8.21277H15.7134L15.7134 8.21277ZM16.0326 8.68555H16.7554V8.44068H16.3249V8.21277H16.0326V8.68555L16.0326 8.68555ZM15.283 8.71238V8.95724H15.7134V9.18515H16.0057V8.71237H15.283V8.71238ZM16.0326 9.18515H16.3249V8.95724H16.7554V8.71238H16.0326V9.18515V9.18515Z" fill="#D22630"/>
<path d="M18.141 18.1436V17.7785H19.1424V17.4133H20.1437V14.1139H19.1424V13.7487H18.141V13.3836H17.1397V13.0184H14.8986V13.3836H13.8973V13.7487H12.8959V14.1139H11.8945V17.4133H12.8959V17.7785H13.8973V18.1436H14.8986V18.5088H17.1397V18.1436H18.141Z" fill="#383739"/>
<path d="M14.9269 13.0444V13.4093H13.925V13.7742H12.9232V14.1391H11.9214V17.3868H12.9232V17.7517H13.925V18.1166H14.9269V18.4814H17.1129V18.1166H18.1148V17.7517H19.1167V17.3868H20.1184V14.1391H19.1167V13.7742H18.1148V13.4093H17.1129V13.0444H14.9269ZM15.1923 13.3098H16.8475V13.6747H17.8494V14.0396H18.8513V14.4045H19.8531V17.1214H18.8513V17.4864H17.8494V17.8512H16.8475V18.2161H15.1923V17.8512H14.1904V17.4864H13.1886V17.1214H12.1868V14.4045H13.1886V14.0396H14.1904V13.6747H15.1923V13.3098Z" fill="#FFC72C"/>
<path d="M14.2161 17.8248V17.4596H13.2148V17.0945H12.2134V14.4326H13.2148V14.0675H14.2161V13.7023H15.2175V13.3372H16.8209V13.7023H17.8223V14.0675H18.8236V14.4326H19.825V17.0945H18.8236V17.4596H17.8223V17.8248H16.8209V18.1899H15.2175V17.8248H14.2161Z" fill="#D22630"/>
<path d="M14.4486 13.9727L14.1892 13.7767V14.1532L13.9409 14.311L13.9402 14.0753L13.702 14.2893L13.4638 14.0753L13.4632 14.311L13.188 14.1361V14.4851L12.9655 14.6462L12.9649 14.4321L12.7007 14.6235L12.4364 14.4321L12.4358 14.6462L12.1865 14.4657V15.523H11.8945V16.0043H12.1865V17.0616L12.4358 16.8811L12.4364 17.0951L12.7007 16.9038L12.9649 17.0951L12.9655 16.8811L13.1879 17.0421V17.3912L13.4632 17.2163L13.4638 17.4519L13.702 17.238L13.9402 17.4519L13.9409 17.2163L14.1892 17.3741V17.7506L14.4486 17.5545L14.4491 17.8175L14.7033 17.5902L14.9575 17.8175L14.9581 17.5545L15.1906 17.7303V18.1318L15.5383 17.8149V18.1873L16.0192 17.8782L16.5001 18.1873V17.8149L16.8477 18.1318V17.7303L17.0802 17.5545L17.0808 17.8175L17.335 17.5902L17.5892 17.8175L17.5898 17.5545L17.8491 17.7506V17.3741L18.0975 17.2163L18.0981 17.4519L18.3364 17.238L18.5746 17.4519L18.5752 17.2163L18.8505 17.3912V17.0421L19.0729 16.8811L19.0735 17.0951L19.3378 16.9038L19.602 17.0951L19.6026 16.8811L19.8519 17.0615V16.0043H20.1439V15.523H19.8519V14.4657L19.6026 14.6462L19.602 14.4321L19.3378 14.6235L19.0735 14.4321L19.0729 14.6462L18.8505 14.4851V14.1361L18.5752 14.311L18.5746 14.0753L18.3364 14.2893L18.0982 14.0753L18.0975 14.311L17.8491 14.1531V13.7767L17.5898 13.9727L17.5893 13.7098L17.335 13.9371L17.0808 13.7098L17.0803 13.9727L16.8478 13.7969V13.3955L16.5001 13.7124V13.34L16.0192 13.6491L15.5383 13.34V13.7124L15.1907 13.3955V13.797L14.9581 13.9727L14.9576 13.7098L14.7033 13.9371L14.4492 13.7098L14.4486 13.9727Z" fill="#383739"/>
<path d="M12.4625 14.6985L12.4631 14.4844L12.7007 14.6565L12.7087 14.6507L12.9382 14.4844L12.9388 14.6985L13.188 14.5181V17.0088L12.9388 16.8285L12.9382 17.0425L12.7007 16.8705L12.4631 17.0425L12.4625 16.8285L12.2134 17.0088V15.9773H11.9214V15.5497H12.2134V14.5181L12.4625 14.6985Z" fill="#00843D"/>
<path d="M14.4759 13.7695L14.7034 13.973L14.9309 13.7695L14.9315 14.0265L15.1907 13.8305V17.6965L14.9315 17.5005L14.9309 17.7575L14.7034 17.554L14.4759 17.7575L14.4754 17.5005L14.2162 17.6965V13.8305L14.4754 14.0265L14.4759 13.7695Z" fill="#00843D"/>
<path d="M17.5625 13.7695L17.335 13.973L17.1075 13.7695L17.107 14.0265L16.8478 13.8305V17.6965L17.107 17.5005L17.1075 17.7575L17.335 17.554L17.5625 17.7575L17.5631 17.5005L17.8223 17.6965V13.8305L17.5631 14.0265L17.5625 13.7695Z" fill="#00843D"/>
<path d="M19.5759 14.6985L19.5753 14.4844L19.3378 14.6565L19.3297 14.6507L19.1002 14.4844L19.0996 14.6985L18.8505 14.5181V17.0088L19.0996 16.8285L19.1002 17.0425L19.3378 16.8705L19.5753 17.0425L19.5759 16.8285L19.825 17.0088V15.9773H20.117V15.5497H19.825V14.5181L19.5759 14.6985Z" fill="#00843D"/>
<path d="M13.4905 14.1352L13.702 14.3252L13.9135 14.1352L13.9141 14.3596L14.1893 14.1848V17.3421L13.9141 17.1673L13.9135 17.3917L13.702 17.2017L13.4905 17.3917L13.4898 17.1673L13.2147 17.3421V14.1848L13.4898 14.3596L13.4905 14.1352Z" fill="#FFC72C"/>
<path d="M15.5651 13.7731L15.2174 13.4562V18.0709L15.5651 17.754V18.138L16.0191 17.8462H16.0191H16.0191L16.4731 18.138V17.754L16.8208 18.0709V13.4562L16.4731 13.7731V13.389L16.0191 13.6809H16.0191H16.0191L15.5651 13.389V13.7731Z" fill="#FFC72C"/>
<path d="M18.5479 14.1352L18.3364 14.3252L18.1248 14.1352L18.1243 14.3596L17.8491 14.1848V17.3421L18.1243 17.1673L18.1248 17.3917L18.3364 17.2017L18.5479 17.3917L18.5486 17.1673L18.8237 17.3421V14.1848L18.5486 14.3596L18.5479 14.1352Z" fill="#FFC72C"/>
<path d="M12.5926 15.3101C12.623 15.3407 12.6594 15.3562 12.7006 15.3562C12.7419 15.3562 12.7782 15.3407 12.8086 15.3101C12.9037 15.2142 12.9069 15.0409 12.906 14.9162C12.906 14.9162 12.796 15.0324 12.7762 15.0534C12.7624 15.0295 12.7006 14.9229 12.7006 14.9229C12.7006 14.9229 12.6389 15.0295 12.625 15.0534C12.6052 15.0324 12.4952 14.9162 12.4952 14.9162C12.4943 15.0409 12.4975 15.2142 12.5926 15.3101Z" fill="#383739"/>
<path d="M13.6371 15.0416L13.557 14.9616V14.8021L13.373 14.9726L13.7019 15.3015L14.0308 14.9726L13.8468 14.8021V14.9616L13.7668 15.0416V14.7591L13.9086 14.6373L13.7019 14.4598L13.4953 14.6373L13.6371 14.7591V15.0416Z" fill="#383739"/>
<path d="M14.6385 14.7246L14.5584 14.6446V14.4851L14.3744 14.6556L14.7033 14.9845L15.0322 14.6556L14.8482 14.4851V14.6446L14.7681 14.7246V14.4421L14.91 14.3203L14.7033 14.1428L14.4966 14.3203L14.6385 14.4421V14.7246Z" fill="#383739"/>
<path d="M12.7007 14.9764C12.7171 15.0047 12.771 15.0979 12.771 15.0979C12.771 15.0979 12.847 15.0175 12.8781 14.9848C12.8743 15.1256 12.8434 15.2369 12.7896 15.2911C12.7644 15.3165 12.7345 15.3294 12.7007 15.3294C12.6668 15.3294 12.6369 15.3165 12.6117 15.2911C12.558 15.2369 12.527 15.1256 12.5233 14.9848C12.5543 15.0176 12.6303 15.0979 12.6303 15.0979C12.6538 15.0574 12.6772 15.0169 12.7007 14.9764Z" fill="white"/>
<path d="M14.7414 14.43V14.7897L14.8752 14.6559V14.5468L14.9936 14.6566L14.7034 14.9468L14.4132 14.6566L14.5317 14.5468V14.6559L14.6654 14.7897V14.43L14.5379 14.3205L14.7034 14.1784L14.8689 14.3205L14.7414 14.43Z" fill="white"/>
<path d="M13.7399 14.7468V15.1065L13.8737 14.9727V14.8636L13.9921 14.9734L13.7019 15.2636L13.4117 14.9734L13.5302 14.8636V14.9727L13.664 15.1065V14.7468L13.5365 14.6373L13.7019 14.4952L13.8674 14.6373L13.7399 14.7468Z" fill="#D22630"/>
<path d="M16.4127 14.8447L16.3049 14.6958L16.5812 14.4408L16.3236 14.2291V14.3791L16.2159 14.4712V14.1993L16.4592 14.0199L16.019 13.6954L15.5788 14.0199L15.8222 14.1993V14.4712L15.7144 14.3791V14.2291L15.4568 14.4408L15.7331 14.6958L15.6254 14.8447H16.4127Z" fill="#383739"/>
<path d="M15.6781 14.8178L15.7689 14.6922L15.4978 14.4419L15.6877 14.2859V14.3914L15.8491 14.5295V14.1857L15.6241 14.0199L16.0191 13.7288L16.4141 14.0199L16.1892 14.1857V14.5295L16.3506 14.3914V14.2859L16.5405 14.4419L16.2694 14.6922L16.3603 14.8178H15.6781Z" fill="#D22630"/>
<path d="M15.8179 14.02L16.019 14.1683L16.2202 14.02L16.019 13.8718L16.0111 13.8777L15.8179 14.02Z" fill="#383739"/>
<path d="M16.0191 13.9051C16.0324 13.9149 16.1515 14.0027 16.175 14.02C16.1515 14.0373 16.0324 14.1251 16.0191 14.1349C16.0058 14.1251 15.8866 14.0373 15.8632 14.02C15.8866 14.0027 16.0058 13.9149 16.0191 13.9051Z" fill="#00843D"/>
<path d="M19.5831 15.6096H19.1424V15.4339H17.7952L16.8573 14.8179H16.8533H15.181L14.2432 15.4339H12.896V15.6096H12.4552V15.9176H12.896V16.0932H14.2432L15.181 16.7093H16.8573L17.7952 16.0932H19.1424V15.9176H19.5831V15.6096Z" fill="#383739"/>
<path d="M15.189 14.8457L14.2502 15.4594H12.9233V15.6352H12.4821V15.8907H12.9233V16.0665H14.2502L15.189 16.6835H16.8509L17.7864 16.0665H19.1166V15.8907H19.5578V15.6352H19.1166V15.4594H17.7864L16.8509 14.8457H15.189ZM15.2089 14.9353H16.8277L17.6869 15.4992V15.5855H18.6456V15.9437H17.6869V16.03L16.8277 16.5906H15.2089L14.353 16.03V15.9437H13.391V15.5855H14.353V15.4992L15.2089 14.9353Z" fill="#D22630"/>
<path d="M16.821 14.963L17.6589 15.5131V15.6107H18.6191V15.9164H17.6589V16.014L16.821 16.5641H15.2174L14.3794 16.014V15.9164H13.4192V15.6107H14.3794V15.5131L15.2174 14.963H16.821Z" fill="#D22630"/>
<path d="M14.8011 16.076L15.164 16.3484L15.4026 16.1692L15.2639 16.065L15.164 16.1401L15.0787 16.076L16.445 15.0502H16.1675L14.8011 16.076ZM15.5931 16.4769H15.8706L17.2369 15.4511L16.8742 15.1788L16.6355 15.358L16.7742 15.4621L16.8742 15.387L16.9595 15.4511L15.5931 16.4769ZM16.1675 16.4769H16.4449L15.0787 15.4511L15.164 15.387L15.2639 15.4621L15.4026 15.358L15.164 15.1788L14.8011 15.4511L16.1675 16.4769ZM16.9595 16.076L16.8742 16.1401L16.7742 16.065L16.6355 16.1692L16.8742 16.3484L17.2369 16.076L15.8706 15.0502H15.5931L16.9595 16.076Z" fill="#383739"/>
<path d="M14.5264 15.7635L14.7702 15.9255L15.0141 15.7635L14.7702 15.6016L14.5264 15.7635Z" fill="#383739"/>
<path d="M15.7753 15.7635L16.0191 15.9255L16.263 15.7635L16.0191 15.6016L15.7753 15.7635Z" fill="#383739"/>
<path d="M17.5119 15.7635L17.268 15.9255L17.0242 15.7635L17.268 15.6016L17.5119 15.7635Z" fill="#383739"/>
<path d="M17.1923 16.076L16.8742 16.3148L16.6802 16.1692L16.7743 16.0986L16.8742 16.1736L17.0042 16.076L15.6737 15.0771H15.8617L17.1923 16.076ZM16.3646 16.4501H16.1765L14.8459 15.4511L15.164 15.2123L15.358 15.3579L15.264 15.4285L15.164 15.3535L15.034 15.4511L16.3646 16.4501ZM15.8617 16.4501H15.6737L17.0042 15.4511L16.8742 15.3535L16.7743 15.4285L16.6802 15.3579L16.8742 15.2123L17.1923 15.4511L15.8617 16.4501ZM16.1765 15.0771H16.3646L15.034 16.076L15.164 16.1736L15.264 16.0986L15.358 16.1692L15.164 16.3148L14.8459 16.076L16.1765 15.0771Z" fill="#FFC72C"/>
<path d="M14.7702 15.6339L14.9655 15.7636L14.7702 15.8934L14.5748 15.7636L14.7702 15.6339Z" fill="#00843D"/>
<path d="M16.0191 15.6339L16.2145 15.7636L16.0191 15.8934L15.8239 15.7636L16.0191 15.6339Z" fill="#00843D"/>
<path d="M17.2681 15.6339L17.0728 15.7636L17.2681 15.8934L17.4634 15.7636L17.2681 15.6339Z" fill="#00843D"/>
<path d="M11.73 22.5617L11.6343 22.697L11.8058 22.8282L11.6343 22.9593L11.73 23.0947L11.9292 23.1178L12.1222 22.9687L12.6033 23.2743V23.0205L12.3005 22.8282L12.6033 22.6358V22.382L12.1222 22.6876L11.9292 22.5386L11.73 22.5617Z" fill="#383739"/>
<path d="M11.73 21.6799L11.6343 21.8153L11.8058 21.9464L11.6343 22.0776L11.73 22.2129L11.9292 22.236L12.1222 22.0869L12.6033 22.3926V22.1387L12.3005 21.9464L12.6033 21.754V21.5002L12.1222 21.8059L11.9292 21.6568L11.73 21.6799Z" fill="#383739"/>
<path d="M11.73 23.9764L11.6343 23.8411L11.8058 23.71L11.6343 23.5788L11.73 23.4435L11.9292 23.4203L12.1222 23.5694L12.6033 23.2638V23.5176L12.3005 23.71L12.6033 23.9023V24.1561L12.1222 23.8505L11.9292 23.9996L11.73 23.9764Z" fill="#383739"/>
<path d="M20.3084 22.5617L20.4041 22.697L20.2326 22.8282L20.4041 22.9593L20.3084 23.0947L20.1092 23.1178L19.9162 22.9687L19.4351 23.2743V23.0205L19.7379 22.8282L19.4351 22.6358V22.382L19.9162 22.6876L20.1092 22.5386L20.3084 22.5617Z" fill="#383739"/>
<path d="M20.3084 21.6799L20.4041 21.8153L20.2326 21.9464L20.4041 22.0776L20.3084 22.2129L20.1092 22.236L19.9162 22.0869L19.4351 22.3926V22.1387L19.7379 21.9464L19.4351 21.754V21.5002L19.9162 21.8059L20.1092 21.6568L20.3084 21.6799Z" fill="#383739"/>
<path d="M20.3084 23.9764L20.4041 23.8411L20.2326 23.71L20.4041 23.5788L20.3084 23.4435L20.1092 23.4203L19.9162 23.5694L19.4351 23.2638V23.5176L19.7379 23.71L19.4351 23.9023V24.1561L19.9162 23.8505L20.1092 23.9996L20.3084 23.9764Z" fill="#383739"/>
<path d="M18.3822 20.1553V20.5221H18.649V20.6842H18.911V20.389H18.6773V20.1553H18.3822Z" fill="#383739"/>
<path d="M19.1686 20.7338V21.1005H19.4351V21.2626H19.6974V20.9675H19.4637V20.7338H19.1686Z" fill="#383739"/>
<path d="M13.6562 20.1553V20.5221H13.3893V20.6842H13.1273V20.389H13.361V20.1553H13.6562Z" fill="#383739"/>
<path d="M18.3822 25.5011V25.1344H18.649V24.9723H18.911V25.2674H18.6773V25.5011H18.3822Z" fill="#383739"/>
<path d="M13.6562 25.5011V25.1344H13.3893V24.9723H13.1273V25.2674H13.361V25.5011H13.6562Z" fill="#383739"/>
<path d="M19.1686 24.9227V24.556H19.4351V24.3939H19.6974V24.689H19.4637V24.9227H19.1686Z" fill="#383739"/>
<path d="M12.8699 20.7338V21.1005H12.6033V21.2626H12.3411V20.9675H12.5748V20.7338H12.8699Z" fill="#383739"/>
<path d="M12.8699 24.9227V24.556H12.6033V24.3939H12.3411V24.689H12.5748V24.9227H12.8699Z" fill="#383739"/>
<path d="M17.0059 20.1468C16.9889 20.1302 16.8023 19.9491 16.8023 19.9491L16.6023 20.1344C16.6023 20.1344 16.759 20.2865 16.7767 20.3036L16.5516 20.5221H16.8857L17.0059 20.4053L17.1261 20.5221H17.4602L17.2352 20.3036C17.2528 20.2865 17.4094 20.1344 17.4094 20.1344L17.2095 19.9491C17.1415 20.0149 17.0738 20.0808 17.0059 20.1468Z" fill="#383739"/>
<path d="M16.0192 20.1468C16.0022 20.1302 15.8156 19.9491 15.8156 19.9491L15.6156 20.1344C15.6156 20.1344 15.7723 20.2865 15.79 20.3036L15.5649 20.5221H15.899L16.0192 20.4053L16.1394 20.5221H16.4734L16.2485 20.3036C16.2661 20.2865 16.4227 20.1344 16.4227 20.1344L16.2228 19.9491C16.1548 20.0149 16.0871 20.0808 16.0192 20.1468Z" fill="#383739"/>
<path d="M15.0325 20.1468C15.0495 20.1302 15.2361 19.9491 15.2361 19.9491L15.4361 20.1344C15.4361 20.1344 15.2794 20.2865 15.2618 20.3036L15.4868 20.5221H15.1527L15.0325 20.4053L14.9123 20.5221H14.5782L14.8033 20.3036C14.7856 20.2865 14.6289 20.1344 14.6289 20.1344L14.8289 19.9491C14.8969 20.0149 14.9647 20.0808 15.0325 20.1468Z" fill="#383739"/>
<path d="M17.0059 25.5096C16.9889 25.5261 16.8023 25.7072 16.8023 25.7072L16.6023 25.5219C16.6023 25.5219 16.759 25.3699 16.7767 25.3527L16.5516 25.1343H16.8857L17.0059 25.251L17.1261 25.1343H17.4602L17.2352 25.3527C17.2528 25.3699 17.4094 25.5219 17.4094 25.5219L17.2095 25.7072C17.1415 25.6414 17.0738 25.5754 17.0059 25.5096Z" fill="#383739"/>
<path d="M16.0192 25.5096C16.0022 25.5261 15.8156 25.7072 15.8156 25.7072L15.6156 25.5219C15.6156 25.5219 15.7723 25.3699 15.79 25.3527L15.5649 25.1343H15.899L16.0192 25.251L16.1394 25.1343H16.4734L16.2485 25.3527C16.2661 25.3699 16.4227 25.5219 16.4227 25.5219L16.2228 25.7072C16.1548 25.6414 16.0871 25.5754 16.0192 25.5096Z" fill="#383739"/>
<path d="M15.0325 25.5096C15.0495 25.5261 15.2361 25.7072 15.2361 25.7072L15.4361 25.5219C15.4361 25.5219 15.2794 25.3699 15.2618 25.3527L15.4868 25.1343H15.1527L15.0325 25.251L14.9123 25.1343H14.5782L14.8033 25.3527C14.7856 25.3699 14.6289 25.5219 14.6289 25.5219L14.8289 25.7072C14.8969 25.6414 14.9647 25.5754 15.0325 25.5096Z" fill="#383739"/>
<path d="M12.5764 23.0354V23.2256L12.1205 22.936L11.9213 23.09L11.7448 23.0695L11.671 22.9651L11.8499 22.8283L11.671 22.6915L11.7449 22.5871L11.9213 22.5666L12.1205 22.7205L12.5764 22.431V22.6212L12.2503 22.8283L12.5764 23.0354Z" fill="#00843D"/>
<path d="M12.5764 22.1536V22.3438L12.1205 22.0542L11.9213 22.2082L11.7448 22.1877L11.671 22.0833L11.8499 21.9465L11.671 21.8097L11.7449 21.7053L11.9213 21.6848L12.1205 21.8387L12.5764 21.5492V21.7394L12.2503 21.9465L12.5764 22.1536Z" fill="#00843D"/>
<path d="M12.5764 23.5029V23.3127L12.1205 23.6023L11.9213 23.4483L11.7448 23.4688L11.671 23.5732L11.8499 23.71L11.671 23.8468L11.7449 23.9512L11.9213 23.9717L12.1205 23.8178L12.5764 24.1073V23.9172L12.2503 23.71L12.5764 23.5029Z" fill="#00843D"/>
<path d="M19.4618 23.0354V23.2256L19.9176 22.936L20.1168 23.09L20.2933 23.0695L20.3671 22.9651L20.1882 22.8283L20.3671 22.6915L20.2933 22.5871L20.1168 22.5666L19.9176 22.7205L19.4618 22.431V22.6212L19.7878 22.8283L19.4618 23.0354Z" fill="#00843D"/>
<path d="M19.4618 22.1536V22.3438L19.9176 22.0542L20.1168 22.2082L20.2933 22.1877L20.3671 22.0833L20.1882 21.9465L20.3671 21.8097L20.2933 21.7053L20.1168 21.6848L19.9176 21.8387L19.4618 21.5492V21.7394L19.7878 21.9465L19.4618 22.1536Z" fill="#00843D"/>
<path d="M19.4618 23.5029V23.3127L19.9176 23.6023L20.1168 23.4483L20.2933 23.4688L20.3671 23.5732L20.1882 23.71L20.3671 23.8468L20.2933 23.9512L20.1168 23.9717L19.9176 23.8178L19.4618 24.1073V23.9172L19.7878 23.71L19.4618 23.5029Z" fill="#00843D"/>
<path d="M18.6504 20.1822V20.4159H18.8841V20.6574H18.6757V20.4953H18.4089V20.1822H18.6504Z" fill="#00843D"/>
<path d="M19.4368 20.7606V20.9943H19.6705V21.2358H19.4621V21.0737H19.1953V20.7606H19.4368Z" fill="#00843D"/>
<path d="M13.3878 20.1822V20.4159H13.1541V20.6574H13.3624V20.4953H13.6292V20.1822H13.3878Z" fill="#00843D"/>
<path d="M18.6504 25.4742V25.2405H18.8841V24.999H18.6757V25.1611H18.4089V25.4742H18.6504Z" fill="#00843D"/>
<path d="M13.3878 25.4742V25.2405H13.1541V24.999H13.3624V25.1611H13.6292V25.4742H13.3878Z" fill="#00843D"/>
<path d="M19.4368 24.8959V24.6622H19.6705V24.4207H19.4621V24.5828H19.1953V24.8959H19.4368Z" fill="#00843D"/>
<path d="M12.6015 20.7606V20.9943H12.3678V21.2358H12.5762V21.0737H12.8429V20.7606H12.6015Z" fill="#00843D"/>
<path d="M12.6015 24.8959V24.6622H12.3678V24.4207H12.5762V24.5828H12.843V24.8959H12.6015Z" fill="#00843D"/>
<path d="M16.8019 19.9863C16.8185 20.0024 17.0059 20.1843 17.0059 20.1843C17.0059 20.1843 17.1932 20.0024 17.2098 19.9863C17.2256 20.0008 17.353 20.1188 17.3704 20.135C17.3524 20.1525 17.1965 20.3038 17.1965 20.3038L17.3939 20.4954H17.137L17.0059 20.3681L16.8747 20.4954H16.6178L16.8152 20.3038C16.8152 20.3038 16.6593 20.1525 16.6413 20.135C16.6587 20.1188 16.7861 20.0008 16.8019 19.9863Z" fill="#00843D"/>
<path d="M15.8151 19.9863C15.8317 20.0024 16.0191 20.1843 16.0191 20.1843C16.0191 20.1843 16.2064 20.0024 16.2231 19.9863C16.2388 20.0008 16.3662 20.1188 16.3836 20.135C16.3656 20.1525 16.2098 20.3038 16.2098 20.3038L16.4071 20.4954H16.1502L16.0191 20.3681L15.8879 20.4954H15.631L15.8283 20.3038C15.8283 20.3038 15.6725 20.1525 15.6545 20.135C15.6719 20.1188 15.7993 20.0008 15.8151 19.9863Z" fill="#00843D"/>
<path d="M15.2365 19.9863C15.2198 20.0024 15.0324 20.1843 15.0324 20.1843C15.0324 20.1843 14.8451 20.0024 14.8285 19.9863C14.8127 20.0008 14.6853 20.1188 14.6679 20.135C14.6859 20.1525 14.8418 20.3038 14.8418 20.3038L14.6444 20.4954H14.9013L15.0324 20.3681L15.1636 20.4954H15.4205L15.2232 20.3038C15.2232 20.3038 15.379 20.1525 15.397 20.135C15.3796 20.1188 15.2522 20.0008 15.2365 19.9863Z" fill="#00843D"/>
<path d="M16.8019 25.6702C16.8185 25.654 17.0059 25.4722 17.0059 25.4722C17.0059 25.4722 17.1932 25.654 17.2098 25.6702C17.2256 25.6556 17.353 25.5376 17.3704 25.5215C17.3524 25.504 17.1965 25.3527 17.1965 25.3527L17.3939 25.1611H17.137L17.0059 25.2884L16.8747 25.1611H16.6178L16.8152 25.3527C16.8152 25.3527 16.6593 25.504 16.6413 25.5215C16.6587 25.5376 16.7861 25.6556 16.8019 25.6702Z" fill="#00843D"/>
<path d="M15.8151 25.6702C15.8317 25.654 16.0191 25.4722 16.0191 25.4722C16.0191 25.4722 16.2064 25.654 16.2231 25.6702C16.2388 25.6556 16.3662 25.5376 16.3836 25.5215C16.3656 25.504 16.2098 25.3527 16.2098 25.3527L16.4071 25.1611H16.1502L16.0191 25.2884L15.8879 25.1611H15.631L15.8283 25.3527C15.8283 25.3527 15.6725 25.504 15.6545 25.5215C15.6719 25.5376 15.7993 25.6556 15.8151 25.6702Z" fill="#00843D"/>
<path d="M15.2365 25.6702C15.2198 25.654 15.0324 25.4722 15.0324 25.4722C15.0324 25.4722 14.8451 25.654 14.8285 25.6702C14.8127 25.6556 14.6853 25.5376 14.6679 25.5215C14.6859 25.504 14.8418 25.3527 14.8418 25.3527L14.6444 25.1611H14.9013L15.0324 25.2884L15.1636 25.1611H15.4205L15.2232 25.3527C15.2232 25.3527 15.379 25.504 15.397 25.5215C15.3796 25.5376 15.2522 25.6556 15.2365 25.6702Z" fill="#00843D"/>
<path d="M13.3625 24.5827V25.1611H18.6758V24.5827H19.4619V21.0736H18.6758V20.4952H13.3625V21.0736H12.5764V24.5827H13.3625Z" fill="#383739"/>
<path d="M13.3909 20.5216V21.0989H12.6047V24.5555H13.3909V25.1327H18.6488V24.5555H19.4351V21.0989H18.6488V20.5216H13.3909L13.3909 20.5216ZM13.7293 20.7439H18.3105V21.3012L18.4996 21.4406H19.2128V24.2172H18.4963L18.3105 24.3532V24.9137H13.7293V24.3564L13.5402 24.2172H12.8237V21.4406H13.5369L13.7293 21.3012V20.7439H13.7293Z" fill="#FFC72C"/>
<path d="M13.7558 20.7704V21.2813L14.4458 20.7704H13.7558ZM17.5906 20.7704L18.2806 21.2813V20.7704H17.5906ZM12.8535 21.4671V21.9448L13.5037 21.4671H12.8536H12.8535ZM18.5328 21.4671L19.1863 21.9481V21.4671H18.5328ZM19.1863 23.7062L18.5328 24.1905H19.1863V23.7062ZM12.8535 23.7095V24.1905H13.5037L12.8535 23.7095ZM13.7558 24.3763V24.8838H14.4425L13.7558 24.3763ZM18.2806 24.3763L17.594 24.8838H18.2806V24.3763Z" fill="#D22630"/>
<path d="M17.546 20.7709C17.5531 20.7761 19.1754 21.9743 19.1862 21.9823V23.6739C19.1754 23.6819 17.5531 24.8801 17.546 24.8853H14.4922C14.4851 24.8801 12.8628 23.6819 12.8521 23.6739V21.9823C12.8628 21.9743 14.4851 20.7761 14.4922 20.7709H17.546Z" fill="#00843D"/>
<path d="M13.2426 23.8688L13.0541 23.6499L13.2311 23.4445L13.0541 23.2391L13.2311 23.0337L13.0541 22.8282L13.2311 22.6228L13.0541 22.4173L13.2311 22.2119L13.0541 22.0065L13.2426 21.7876H18.7956L18.9841 22.0065L18.8071 22.2119L18.9841 22.4173L18.8071 22.6228L18.9841 22.8282L18.8071 23.0337L18.9841 23.2391L18.8071 23.4445L18.9841 23.6499L18.7956 23.8688H13.2426ZM17.0597 21.0356L16.8409 20.847L16.6354 21.0241L16.43 20.847L16.2245 21.0241L16.0191 20.847L15.8136 21.0241L15.6082 20.847L15.4028 21.0241L15.1974 20.847L14.9785 21.0356V24.6208L15.1974 24.8094L15.4028 24.6324L15.6082 24.8094L15.8136 24.6323L16.0191 24.8094L16.2245 24.6323L16.43 24.8094L16.6354 24.6324L16.8409 24.8094L17.0597 24.6208V21.0356Z" fill="#383739"/>
<path d="M16.6219 21.048L16.4299 20.8825L16.2379 21.048V24.6085L16.4299 24.7739L16.6219 24.6085V21.048Z" fill="#FFC72C"/>
<path d="M15.8003 21.048L15.6082 20.8825L15.4163 21.048V24.6085L15.6082 24.7739L15.8003 24.6085V21.048Z" fill="#FFC72C"/>
<path d="M13.2549 23.8421L13.0895 23.6501L13.2549 23.4581H18.7832L18.9487 23.6501L18.7832 23.8421H13.2549Z" fill="#FFC72C"/>
<path d="M18.7833 22.6362L18.9488 22.8283L18.7833 23.0202H13.2551L13.0896 22.8283L13.2551 22.6362H18.7833Z" fill="#FFC72C"/>
<path d="M18.7832 22.1985L18.9487 22.0064L18.7832 21.8145H13.2549L13.0895 22.0064L13.2549 22.1985H18.7832Z" fill="#FFC72C"/>
<path d="M17.0329 21.048L16.841 20.8825L16.6489 21.048V24.6085L16.841 24.7739L17.0329 24.6086L17.0329 21.048Z" fill="#D22630"/>
<path d="M15.3894 21.048L15.1974 20.8825L15.0054 21.048V24.6085L15.1974 24.7739L15.3894 24.6085V21.048Z" fill="#D22630"/>
<path d="M13.2551 23.431L13.0896 23.239L13.2551 23.047H18.7833L18.9488 23.239L18.7833 23.431H13.2551Z" fill="#D22630"/>
<path d="M13.2551 22.6094L13.0896 22.4174L13.2551 22.2253H18.7833L18.9488 22.4174L18.7833 22.6094H13.2551Z" fill="#D22630"/>
<path d="M16.2112 24.6085L16.0192 24.7739L15.8271 24.6085V21.048L16.0192 20.8825L16.2112 21.048V24.6085Z" fill="#D22630"/>
<path d="M17.8751 21.1174H14.1498V21.4133H13.6737V24.2432H14.1498V24.5391H17.8885V24.2432H18.3646V21.4133H17.8885V21.1174H17.8751Z" fill="#383739"/>
<path d="M14.1772 21.1453V21.4406H13.6995V24.2171H14.1772V24.5124H14.5686L13.789 23.8589V21.7987L14.5686 21.1453H14.1772ZM17.4713 21.1453L18.2475 21.7987V23.8589L17.4713 24.5124H17.8627V24.2171H18.3371V21.4406H17.8627V21.1453H17.4713V21.1453Z" fill="#D22630"/>
<path d="M14.6117 21.1453C14.6043 21.1515 13.825 21.8042 13.8156 21.812V23.8455C13.825 23.8535 14.6043 24.5061 14.6117 24.5123H17.4281C17.4355 24.5061 18.2115 23.8534 18.2209 23.8455V21.812C18.2115 21.8042 17.4355 21.1515 17.4281 21.1453H14.6117ZM14.6515 21.2581H17.385L18.1081 21.8651V23.7925L17.385 24.3962H14.6515L13.9317 23.7925V21.8651L14.6515 21.2581Z" fill="#00843D"/>
<path d="M15.3754 23.8229L15.4978 23.8758L15.5203 24.0187L15.3663 24.1542L15.59 24.3706H15.3747L15.2208 24.2224L15.0668 24.3706H14.8516L15.0753 24.1542L14.9213 24.0187L14.9438 23.8758L15.0661 23.8229L15.2208 23.9466L15.2292 23.9399L15.3754 23.8229Z" fill="#00843D"/>
<path d="M16.1739 23.8229L16.2963 23.8758L16.3188 24.0187L16.1648 24.1542L16.3885 24.3706H16.1732L16.0193 24.2224L15.8653 24.3706H15.65L15.8738 24.1542L15.7198 24.0187L15.7423 23.8758L15.8646 23.8229L16.0193 23.9466L16.0277 23.9399L16.1739 23.8229Z" fill="#00843D"/>
<path d="M16.6629 23.8229L16.5406 23.8758L16.5181 24.0187L16.6721 24.1542L16.4484 24.3706H16.6637L16.8176 24.2224L16.9715 24.3706H17.1868L16.9631 24.1542L17.1171 24.0187L17.0946 23.8758L16.9722 23.8229L16.8176 23.9466L16.8092 23.9399L16.6629 23.8229Z" fill="#00843D"/>
<path d="M15.3754 21.8335L15.4978 21.7806L15.5203 21.6377L15.3663 21.5022L15.59 21.2859H15.3747L15.2208 21.434L15.0668 21.2859H14.8516L15.0753 21.5022L14.9213 21.6377L14.9438 21.7806L15.0661 21.8335L15.2208 21.7098L15.2292 21.7165L15.3754 21.8335Z" fill="#00843D"/>
<path d="M16.1739 21.8335L16.2963 21.7806L16.3188 21.6377L16.1648 21.5022L16.3885 21.2859H16.1732L16.0193 21.434L15.8653 21.2859H15.65L15.8738 21.5022L15.7198 21.6377L15.7423 21.7806L15.8646 21.8335L16.0193 21.7098L16.0277 21.7165L16.1739 21.8335Z" fill="#00843D"/>
<path d="M16.6629 21.8335L16.5406 21.7806L16.5181 21.6377L16.6721 21.5022L16.4484 21.2859H16.6637L16.8176 21.434L16.9715 21.2859H17.1868L16.9631 21.5022L17.1171 21.6377L17.0946 21.7806L16.9722 21.8335L16.8176 21.7098L16.8092 21.7165L16.6629 21.8335Z" fill="#00843D"/>
<path d="M18.0799 22.0617L17.9578 22.1628L18.0799 22.2639V22.4316L17.8921 22.2768C17.8921 22.2768 17.7658 22.3912 17.7573 22.3989C17.7465 22.3975 17.6248 22.3822 17.6128 22.3807C17.6074 22.3709 17.5694 22.3008 17.5619 22.2868C17.5745 22.2742 17.6863 22.1628 17.6863 22.1628C17.6863 22.1628 17.5745 22.0514 17.5619 22.0388C17.5694 22.0248 17.6074 21.9547 17.6128 21.9449C17.6248 21.9434 17.7465 21.928 17.7573 21.9267C17.7658 21.9344 17.8921 22.0489 17.8921 22.0489L18.0799 21.8941V22.0617Z" fill="#00843D"/>
<path d="M18.0799 22.727L17.9578 22.8282L18.0799 22.9292V23.0969L17.8921 22.9421C17.8921 22.9421 17.7658 23.0565 17.7573 23.0642C17.7465 23.0629 17.6248 23.0476 17.6128 23.0461C17.6074 23.0362 17.5694 22.9661 17.5619 22.9521C17.5745 22.9396 17.6863 22.8282 17.6863 22.8282C17.6863 22.8282 17.5745 22.7167 17.5619 22.7041C17.5694 22.6901 17.6074 22.6201 17.6128 22.6102C17.6248 22.6087 17.7465 22.5934 17.7573 22.592C17.7658 22.5997 17.8921 22.7142 17.8921 22.7142L18.0799 22.5594V22.727Z" fill="#00843D"/>
<path d="M18.0799 23.5948L17.9578 23.4936L18.0799 23.3926V23.2249L17.8921 23.3797C17.8921 23.3797 17.7658 23.2652 17.7573 23.2575C17.7465 23.2589 17.6248 23.2742 17.6128 23.2757C17.6074 23.2856 17.5694 23.3557 17.5619 23.3696C17.5745 23.3822 17.6863 23.4936 17.6863 23.4936C17.6863 23.4936 17.5745 23.6051 17.5619 23.6176C17.5694 23.6316 17.6074 23.7017 17.6128 23.7116C17.6248 23.7131 17.7465 23.7284 17.7573 23.7297C17.7658 23.722 17.8921 23.6076 17.8921 23.6076L18.0799 23.7624V23.5948Z" fill="#00843D"/>
<path d="M13.9586 22.0617L14.0807 22.1628L13.9586 22.2639V22.4316L14.1464 22.2768C14.1464 22.2768 14.2727 22.3912 14.2812 22.3989C14.292 22.3975 14.4137 22.3822 14.4258 22.3807C14.4311 22.3709 14.4691 22.3008 14.4767 22.2868C14.4641 22.2742 14.3523 22.1628 14.3523 22.1628C14.3523 22.1628 14.4641 22.0514 14.4767 22.0388C14.4691 22.0248 14.4311 21.9547 14.4258 21.9449C14.4137 21.9434 14.292 21.928 14.2812 21.9267C14.2727 21.9344 14.1464 22.0489 14.1464 22.0489L13.9586 21.8941V22.0617Z" fill="#00843D"/>
<path d="M13.9586 22.727L14.0807 22.8282L13.9586 22.9292V23.0969L14.1464 22.9421C14.1464 22.9421 14.2727 23.0565 14.2812 23.0642C14.292 23.0629 14.4137 23.0476 14.4258 23.0461C14.4311 23.0362 14.4691 22.9661 14.4767 22.9521C14.4641 22.9396 14.3523 22.8282 14.3523 22.8282C14.3523 22.8282 14.4641 22.7167 14.4767 22.7041C14.4691 22.6901 14.4311 22.6201 14.4258 22.6102C14.4137 22.6087 14.292 22.5934 14.2812 22.592C14.2727 22.5997 14.1464 22.7142 14.1464 22.7142L13.9586 22.5594V22.727Z" fill="#00843D"/>
<path d="M13.9586 23.5948L14.0807 23.4936L13.9586 23.3926V23.2249L14.1464 23.3797C14.1464 23.3797 14.2727 23.2652 14.2812 23.2575C14.292 23.2589 14.4137 23.2742 14.4258 23.2757C14.4311 23.2856 14.4691 23.3557 14.4767 23.3696C14.4641 23.3822 14.3523 23.4936 14.3523 23.4936C14.3523 23.4936 14.4641 23.6051 14.4767 23.6176C14.4691 23.6316 14.4311 23.7017 14.4258 23.7116C14.4137 23.7131 14.292 23.7284 14.2812 23.7297C14.2727 23.722 14.1464 23.6076 14.1464 23.6076L13.9586 23.7624V23.5948Z" fill="#00843D"/>
<path d="M14.6615 21.2846C14.6543 21.2906 13.9975 21.8405 13.9682 21.8651C14.0274 21.9142 14.0847 21.9655 14.144 22.0144C14.159 22.0008 14.2734 21.8982 14.2734 21.8982L14.4426 21.9215L14.5089 22.0442C14.5089 22.0442 14.4057 22.1475 14.3895 22.1636C14.4057 22.1798 14.5089 22.2831 14.5089 22.2831L14.4426 22.4058L14.2734 22.4257C14.2734 22.4257 14.1591 22.3265 14.144 22.3129L13.9583 22.4688V22.5219C14.0207 22.5736 14.0813 22.6261 14.144 22.6778C14.1591 22.6642 14.2734 22.565 14.2734 22.565L14.4426 22.5849L14.5089 22.7077C14.5089 22.7077 14.4057 22.8109 14.3895 22.8271C14.4057 22.8432 14.5089 22.9465 14.5089 22.9465L14.4426 23.0726L14.2734 23.0925C14.2734 23.0925 14.1591 22.99 14.144 22.9764L13.9583 23.1323V23.1887L14.144 23.3446C14.1591 23.331 14.2734 23.2285 14.2734 23.2285L14.4426 23.2517L14.5089 23.3744C14.5089 23.3744 14.4057 23.4777 14.3895 23.4939C14.4057 23.51 14.5089 23.6133 14.5089 23.6133L14.4426 23.736L14.2734 23.7593C14.2734 23.7593 14.1591 23.6568 14.144 23.6432C14.0849 23.6918 14.0272 23.7405 13.9682 23.7891C13.9975 23.8137 14.6543 24.3635 14.6615 24.3696H14.8141L15.0364 24.154L14.8937 24.028L14.9203 23.8555L15.0695 23.7924L15.2221 23.9119L15.3714 23.7924L15.5207 23.8555L15.5506 24.028L15.4046 24.154L15.6202 24.3597L15.8358 24.154L15.6899 24.028L15.7164 23.8555L15.869 23.7924L16.0183 23.9119L16.1709 23.7924L16.3202 23.8555L16.3467 24.028L16.2041 24.154L16.4164 24.363L16.632 24.154L16.4894 24.028L16.5159 23.8555L16.6685 23.7924L16.8178 23.9119L16.967 23.7924L17.1196 23.8555L17.1462 24.028L17.0035 24.154L17.2258 24.3696H17.3751C17.3823 24.3635 18.0391 23.8137 18.0684 23.7891C18.0093 23.7404 17.9518 23.6919 17.8926 23.6432C17.8775 23.6568 17.7665 23.7593 17.7665 23.7593L17.5973 23.736L17.5277 23.6133C17.5277 23.6133 17.6309 23.51 17.6471 23.4939C17.6309 23.4777 17.5277 23.3744 17.5277 23.3744L17.5973 23.2517L17.7665 23.2285C17.7665 23.2285 17.8775 23.331 17.8926 23.3446L18.0783 23.1887V23.1323L17.8926 22.9764C17.8775 22.99 17.7665 23.0925 17.7665 23.0925L17.5973 23.0726L17.5277 22.9465C17.5277 22.9465 17.6309 22.8432 17.6471 22.8271C17.6309 22.8109 17.5277 22.7077 17.5277 22.7077L17.5973 22.5849L17.7665 22.565C17.7665 22.565 17.8775 22.6642 17.8926 22.6778C17.9549 22.6265 18.0162 22.5763 18.0783 22.5252V22.4655L17.8926 22.3129C17.8775 22.3265 17.7665 22.4257 17.7665 22.4257L17.5973 22.4058L17.5277 22.2831C17.5277 22.2831 17.6309 22.1798 17.6471 22.1636C17.6309 22.1475 17.5277 22.0442 17.5277 22.0442L17.5973 21.9215L17.7665 21.8982C17.7665 21.8982 17.8775 22.0008 17.8926 22.0144C17.952 21.9654 18.0123 21.9174 18.0717 21.8684C18.0489 21.8492 17.3824 21.2906 17.3751 21.2845H17.2258L17.0035 21.5002L17.1462 21.6262L17.1196 21.7987L16.967 21.8651L16.8178 21.7457L16.6685 21.8651L16.5159 21.7987L16.4894 21.6262L16.632 21.5002L16.4197 21.2945L16.2041 21.5002L16.3467 21.6262L16.3202 21.7987L16.1709 21.8651L16.0183 21.7457L15.869 21.8651L15.7164 21.7987L15.6899 21.6262L15.8358 21.5002L15.6202 21.2945L15.4046 21.5002L15.5506 21.6262L15.5207 21.7987L15.3714 21.8651L15.2221 21.7457L15.0695 21.8651L14.9203 21.7987L14.8937 21.6262L15.0364 21.5002L14.8108 21.2845L14.6615 21.2846ZM13.9583 22.7608V22.8968L14.0379 22.8271L13.9583 22.7608Z" fill="#D22630"/>
<path d="M15.2221 24.2602L15.106 24.3696H15.3348L15.2221 24.2602Z" fill="white"/>
<path d="M16.0183 24.2602L15.9055 24.3696H16.1344L16.0183 24.2602Z" fill="white"/>
<path d="M16.8177 24.2602L16.7017 24.3696H16.9338L16.8177 24.2602Z" fill="white"/>
<path d="M15.1027 21.2847L15.2221 21.3974L15.3382 21.2847H15.1027Z" fill="white"/>
<path d="M15.9022 21.2847L16.0184 21.3974L16.1378 21.2847H15.9022Z" fill="white"/>
<path d="M16.7017 21.2847L16.8177 21.3974L16.9338 21.2847H16.7017Z" fill="white"/>
<path d="M18.0783 22.0974L17.9987 22.1638L18.0783 22.2268V22.0974Z" fill="white"/>
<path d="M18.0783 22.7608L17.9987 22.8271L18.0783 22.8935V22.7608Z" fill="white"/>
<path d="M18.0783 23.4275L17.9987 23.4938L18.0783 23.5602V23.4275Z" fill="white"/>
<path d="M13.9583 22.0941V22.2301L14.0379 22.1638L13.9583 22.0941Z" fill="white"/>
<path d="M13.9583 22.7608V22.8968L14.0379 22.8271L13.9583 22.7608Z" fill="white"/>
<path d="M13.9583 23.4243V23.5602L14.0379 23.4939L13.9583 23.4243Z" fill="white"/>
<path d="M16.702 22.6059V22.3684H16.4617V22.1081H15.5766V22.3684H15.3363V22.6059H15.0044V23.0504H15.3363V23.2878H15.5766V23.5482H16.4617V23.2878H16.702V23.0504H17.0339V22.6059H16.702Z" fill="#383739"/>
<path d="M16.0057 22.135V22.4034L15.6253 22.6196V22.8148H15.0312V22.6328H15.3631V22.3954H15.6034V22.135H16.0057Z" fill="#FFC72C"/>
<path d="M16.0326 23.5216V23.2532L16.413 23.0369V22.8418H17.007V23.0238H16.6752V23.2612H16.4349V23.5216H16.0326Z" fill="#FFC72C"/>
<path d="M16.413 22.8148V22.6196L16.0326 22.4034V22.135H16.4349V22.3954H16.6752V22.6328H17.007V22.8148H16.413Z" fill="white"/>
<path d="M15.0312 22.8418H15.6253V23.0369L16.0057 23.2532V23.5216H15.6034V23.2612H15.3631V23.0238H15.0312V22.8418Z" fill="white"/>
<path d="M15.6521 22.8418V23.0227L16.0057 23.2237V22.8418H15.6521Z" fill="#D22630"/>
<path d="M16.0057 22.433L15.6521 22.634V22.8149H16.0057V22.433Z" fill="#00843D"/>
<path d="M16.3862 22.8149V22.634L16.0326 22.433V22.8149H16.3862Z" fill="#D22630"/>
<path d="M16.0326 23.2236L16.3862 23.0226V22.8417H16.0326V23.2236Z" fill="#00843D"/>
<path d="M12.8031 27.5458V28.2796H12.1038V28.9452H11.395V30.8403H12.1038V31.5059H12.8031V32.2397H15.3458L15.7929 32.5084L15.578 32.6375H14.6714L14.5932 32.5493H15.4148L15.1833 32.3162H14.008L14.5405 32.8706H15.6427L16.0192 32.6444L16.3957 32.8706H17.4979L18.0304 32.3162H16.8551L16.6236 32.5493H17.4453L17.3671 32.6375H16.4604L16.2455 32.5084L16.6927 32.2397H19.2353V31.5059H19.9346V30.8403H20.6434V28.9452H19.9346V28.2796H19.2353V27.5458H16.6927L16.2455 27.2771L16.4604 27.148H17.3671L17.4453 27.2362H16.6236L16.8551 27.4693H18.0304L17.4979 26.9149H16.3957L16.0192 27.1411L15.6427 26.9149H14.5405L14.008 27.4693H15.1833L15.4148 27.2362H14.5932L14.6714 27.148H15.578L15.7929 27.2771L15.3458 27.5458H12.8031Z" fill="#D22630"/>
<path d="M16.685 32.2118H19.2094V31.4786H19.9061V30.8118H20.616V28.9707H19.9061V28.3073H19.2094V27.5742H16.685L15.6367 26.9406H14.5519L14.0709 27.4415H15.1723L15.3514 27.2623H14.532L14.6581 27.1197H15.5869L16.7745 27.8362H18.944V28.5693H19.644V29.2361H20.3539V30.5498H19.644V31.2166H18.944V31.9497H16.7745L15.5869 32.6629H14.6581L14.532 32.5236H15.3514L15.1723 32.3444H14.0709L14.5519 32.8454H15.6367L16.685 32.2118ZM15.2618 31.9497H13.0923V31.2166H12.3957V30.5498H11.6858V29.2361H12.3957V28.5693H13.0923V27.8362H15.2618L16.4528 27.1197H17.3783L17.5044 27.2623H16.6883L16.8674 27.4415H17.9688L17.4878 26.9406H16.403L15.3547 27.5742H12.8303V28.3073H12.1303V28.9707H11.4204V30.8118H12.1303V31.4786H12.8303V32.2118H15.3547L16.403 32.8454H17.4878L17.9688 32.3444H16.8674L16.6883 32.5236H17.5044L17.3783 32.6629H16.4528L15.2618 31.9497Z" fill="#FFC72C"/>
<path d="M18.7338 31.0045V31.7383H16.7171L16.0191 32.1577L15.3211 31.7383H13.3044V31.0045H12.6051V30.3389H11.8964V29.4467H12.6051V28.781H13.3044V28.0472H15.3174H15.3211L16.0191 27.6279L16.7171 28.0472H18.7338V28.781H19.4331V29.4467H20.1418V30.3389H19.4331V31.0045H18.7338Z" fill="#00843D"/>
<path d="M13.5685 30.7474V31.4576H14.677L13.5685 30.7224V30.7474Z" fill="#383739"/>
<path d="M13.5685 29.038V28.3278H14.677L13.5685 29.063V29.038Z" fill="#383739"/>
<path d="M18.4698 30.7474V31.4576H17.3612L18.4698 30.7224V30.7474Z" fill="#383739"/>
<path d="M18.4698 29.038V28.3278H17.3612L18.4698 29.063V29.038Z" fill="#383739"/>
<path d="M13.5953 30.7723L14.588 31.4308H13.5953V30.7723Z" fill="#D22630"/>
<path d="M13.5953 29.0131C13.6339 28.9875 14.5204 28.3996 14.588 28.3547H13.5953V29.0131Z" fill="#D22630"/>
<path d="M18.443 30.7723C18.4044 30.798 17.5179 31.3859 17.4503 31.4308H18.443V30.7723Z" fill="#D22630"/>
<path d="M18.443 29.0131C18.4044 28.9876 17.5179 28.3996 17.4503 28.3547H18.443V29.0131Z" fill="#D22630"/>
<path d="M14.9825 29.698V29.3353H14.8588L14.2652 28.9642L14.2581 28.9686L13.6718 29.3353H13.5481V29.698H13.269V30.0875H13.5481V30.4502H13.6718L14.2652 30.8213L14.8588 30.4502H14.9825V30.0875H15.4072V29.698H14.9825Z" fill="#383739"/>
<path d="M14.2652 28.9959L14.8081 29.3353H13.7224L14.2652 28.9959ZM14.8081 30.4502L14.2652 30.7896L13.7225 30.4502H14.8081Z" fill="#D22630"/>
<path d="M14.6766 29.7247V30.0606H13.9996V29.7247H14.6766Z" fill="#D22630"/>
<path d="M14.9557 30.0875V30.4233H14.2787V30.0875H14.9557Z" fill="#FFC72C"/>
<path d="M14.2519 30.0875V30.4233H13.575V30.0875H14.2519Z" fill="#FFC72C"/>
<path d="M15.3805 29.7248V30.0607H14.7035V29.7248H15.3805Z" fill="#FFC72C"/>
<path d="M13.9729 29.7248V30.0607H13.2959V29.7248H13.9729Z" fill="#FFC72C"/>
<path d="M14.9557 29.3621V29.6979H14.2787V29.3621H14.9557Z" fill="#FFC72C"/>
<path d="M14.2519 29.3621V29.6979H13.575V29.3621H14.2519Z" fill="#FFC72C"/>
<path d="M13.7865 29.7994V29.9861H13.4824V29.7994H13.7865Z" fill="#383739"/>
<path d="M14.0656 29.4367V29.6233H13.7615V29.4367H14.0656Z" fill="#383739"/>
<path d="M14.7693 29.4367V29.6233H14.4652V29.4367H14.7693Z" fill="#383739"/>
<path d="M14.4902 29.7994V29.9861H14.1862V29.7994H14.4902Z" fill="#383739"/>
<path d="M15.194 29.7994V29.9861H14.8899V29.7994H15.194Z" fill="#383739"/>
<path d="M14.7693 30.1621V30.3487H14.4652V30.1621H14.7693Z" fill="#383739"/>
<path d="M14.0656 30.1621V30.3487H13.7615V30.1621H14.0656Z" fill="#383739"/>
<path d="M13.7578 29.828H13.511V29.9573H13.7578V29.828Z" fill="white"/>
<path d="M14.0369 29.4653H13.79V29.5946H14.0369V29.4653Z" fill="white"/>
<path d="M14.7406 29.4653H14.4938V29.5946H14.7406V29.4653Z" fill="white"/>
<path d="M14.4615 29.828H14.2147V29.9573H14.4615V29.828Z" fill="white"/>
<path d="M15.1654 29.828H14.9186V29.9573H15.1654V29.828Z" fill="white"/>
<path d="M14.7406 30.1907H14.4938V30.32H14.7406V30.1907Z" fill="white"/>
<path d="M14.0369 30.1907H13.79V30.32H14.0369V30.1907Z" fill="white"/>
<path d="M16.7364 29.0922V29.4549H16.6127L16.0191 29.826L16.012 29.8215L15.4257 29.4549H15.302V29.0922H14.9501V28.7027H15.302V28.34H15.4257L16.0191 27.9689L16.6127 28.34H16.7364V28.7027H17.0882V29.0922H16.7364Z" fill="#383739"/>
<path d="M16.0193 29.7941L16.5621 29.4547H15.4764L16.0193 29.7941ZM16.5621 28.3398L16.0193 28.0004L15.4765 28.3398H16.5621Z" fill="#FFC72C"/>
<path d="M16.7096 28.7026V28.3668H16.0326V28.7026H16.7096Z" fill="#D22630"/>
<path d="M16.0058 28.7026V28.3668H15.3289V28.7026H16.0058Z" fill="#D22630"/>
<path d="M17.0614 29.0652V28.7294H16.3844V29.0652H17.0614Z" fill="#D22630"/>
<path d="M16.3576 29.0652V28.7294H15.6807V29.0652H16.3576Z" fill="#D22630"/>
<path d="M15.6539 29.0652V28.7294H14.9769V29.0652H15.6539Z" fill="#D22630"/>
<path d="M16.7096 29.4279V29.092H16.0326V29.4279H16.7096Z" fill="#D22630"/>
<path d="M16.0058 29.4279V29.092H15.3289V29.4279H16.0058Z" fill="#D22630"/>
<path d="M15.8193 28.4414V28.628H15.5153V28.4414H15.8193Z" fill="#383739"/>
<path d="M16.5231 28.4414V28.628H16.219V28.4414H16.5231Z" fill="#383739"/>
<path d="M15.4674 28.8041V28.9908H15.1633V28.8041H15.4674Z" fill="#383739"/>
<path d="M16.1713 28.8041V28.9908H15.8672V28.8041H16.1713Z" fill="#383739"/>
<path d="M16.8751 28.8041V28.9908H16.571V28.8041H16.8751Z" fill="#383739"/>
<path d="M15.8193 29.1668V29.3534H15.5153V29.1668H15.8193Z" fill="#383739"/>
<path d="M16.5231 29.1668V29.3534H16.219V29.1668H16.5231Z" fill="#383739"/>
<path d="M15.7908 28.47H15.5439V28.5993H15.7908V28.47Z" fill="white"/>
<path d="M16.4945 28.47H16.2477V28.5993H16.4945V28.47Z" fill="white"/>
<path d="M15.4388 28.8327H15.192V28.962H15.4388V28.8327Z" fill="white"/>
<path d="M16.1427 28.8327H15.8959V28.962H16.1427V28.8327Z" fill="white"/>
<path d="M16.8464 28.8327H16.5996V28.962H16.8464V28.8327Z" fill="white"/>
<path d="M15.7908 29.1954H15.5439V29.3247H15.7908V29.1954Z" fill="white"/>
<path d="M16.4945 29.1954H16.2477V29.3247H16.4945V29.1954Z" fill="white"/>
<path d="M12.1786 35.4138L14.8123 33.9963H14.8157H17.226L19.8598 35.4138V37.7493L17.226 39.1666H14.8123L12.1786 37.7493V35.4138Z" fill="#383739"/>
<path d="M14.8207 34.0231L12.2067 35.4296V37.7318L14.8207 39.1383H17.2191L19.8332 37.7318V35.4296L17.2191 34.0231H14.8207ZM14.8671 34.2121H17.1727L19.6474 35.5423V37.6223L17.1727 38.9525H14.8657L12.391 37.6223V35.5423L14.8671 34.2121Z" fill="#00843D"/>
<path d="M16.0326 36.5679V38.9254H17.1659L19.6199 37.6047V36.5948L16.0057 36.5948V34.2374H14.8724L12.4183 35.558V36.5679L16.0326 36.5679Z" fill="#FFC72C"/>
<path d="M16.0057 36.5679V38.9254H14.8724L12.4183 37.6047V36.5948L16.0326 36.5948V34.2374H17.1659L19.6199 35.558V36.5679L16.0057 36.5679Z" fill="white"/>
<path d="M16.2394 38.7935V38.1121L16.0191 38.2519L15.7988 38.1121V38.7935H15.1135L15.5759 38.4544V37.9707L14.8707 37.5233H14.3779V35.6398H14.8707L15.5759 35.1923V34.7087L15.1135 34.3696H15.1545H15.7988V35.051L16.0191 34.9112L16.2394 35.051V34.3696H16.9247L16.4623 34.7087V35.1923L17.1675 35.6398H17.6602V37.5233H17.1675L16.4623 37.9707V38.4544L16.9247 38.7935H16.2394Z" fill="#383739"/>
<path d="M16.267 34.3978V35.101L16.0315 34.9518V35.1508L17.1096 35.8374H17.4646V36.5673H17.6338V35.665H17.1594L16.4363 35.2072V34.6963L16.8442 34.3978H16.267H16.267ZM14.406 36.5939V37.4962H14.8771L15.6036 37.9572V38.4681L15.1955 38.7666H15.7728V38.0634L16.0049 38.2127V38.007L14.9268 37.327H14.5752V36.5939H14.406L14.406 36.5939Z" fill="#FFC72C"/>
<path d="M15.1955 34.3978L15.6036 34.6963V35.2072L14.8771 35.665H14.406V36.5673H14.5752V35.8374H14.9268L16.0049 35.1541V34.9518L15.7728 35.101V34.3978H15.1955L15.1955 34.3978ZM17.4646 36.5939V37.327H17.1096L16.0315 38.007V38.2127L16.267 38.0634V38.7666H16.8442L16.4362 38.4681V37.9572L17.1594 37.4962H17.6338V36.5939H17.4646L17.4646 36.5939Z" fill="white"/>
<path d="M14.6008 37.2991H14.9351L16.0191 37.9869L17.1031 37.2991H17.4374V35.8639H17.107H17.1031L16.0191 35.1761L14.9351 35.8639H14.6008V37.2991Z" fill="#D22630"/>
<path d="M16.7694 36.9224H17.0008V36.8129H16.8267V36.6139H17.1988V37.1215H16.8421L16.8421 37.4679H16.1078V36.9702H16.431V37.1693H16.3058V37.2688H16.6441V37.0785L15.2687 36.2404H15.0372V36.3498H15.2114V36.5489H14.8392V36.0413H15.196V35.6949H15.2094H15.9302V36.1926H15.6071V35.9935H15.7322V35.894H15.394V36.0843L16.7694 36.9224ZM16.6441 36.0843V35.894H16.3058V35.9935H16.431V36.1926H16.1078V35.6949H16.8421V36.0413H17.1988V36.5489H16.8267V36.3498H17.0009V36.2404H16.7694L15.394 37.0785V37.2688H15.7322V37.1693H15.6071V36.9702H15.9302V37.4679H15.196V37.1215H14.8392V36.6139H15.2114V36.8129H15.0372V36.9224H15.2687L16.6441 36.0843Z" fill="#383739"/>
<path d="M16.6711 37.0635V37.2957H16.279V37.1425H16.4043V36.9971H16.1347V37.441H16.8154V37.0947H17.1721V36.6408H16.8537V36.7861H17.0278V36.9493H16.762L15.3672 36.0994V35.8672H15.7592V36.0204H15.6341V36.1658H15.9035V35.7218H15.2229V36.0681H14.8662V36.5221H15.1846V36.3767H15.0105V36.2135H15.2763L16.6711 37.0635ZM16.762 36.2135H17.0278V36.3767H16.8537V36.5221H17.1721V36.0681H16.8154V35.7218H16.1348V36.1658H16.4043V36.0204H16.2791V35.8672H16.6711V36.0994L15.2763 36.9493H15.0105V36.7861H15.1846V36.6407H14.8662V37.0947H15.2229V37.441H15.9035V36.9971H15.6341V37.1425H15.7592V37.2956H15.3672V37.0635L16.762 36.2135Z" fill="white"/>
<path d="M19.0908 36.6996V37.4362H18.7773V37.1761H18.4613V37.4362H18.1478V36.6996H18.4613V36.9597H18.7773V36.6996H19.0908Z" fill="#383739"/>
<path d="M17.9691 37.6776V38.4143H17.6556V38.1541H17.3396V38.4143H17.0261V37.6776H17.3396V37.9378H17.6556V37.6776H17.9691Z" fill="#383739"/>
<path d="M19.0908 36.4633V35.7267H18.7773V35.9868H18.4613V35.7267H18.1478V36.4633H18.4613V36.2032H18.7773V36.4633H19.0908Z" fill="#383739"/>
<path d="M12.9474 36.6996V37.4362H13.2609V37.1761H13.5769V37.4362H13.8903V36.6996H13.5769V36.9597H13.2609V36.6996H12.9474Z" fill="#383739"/>
<path d="M12.9474 36.4633V35.7267H13.2609V35.9868H13.5769V35.7267H13.8903V36.4633H13.5769V36.2032H13.2609V36.4633H12.9474Z" fill="#383739"/>
<path d="M17.9691 35.4854V34.7488H17.6556V35.0089H17.3396V34.7488H17.0261V35.4854H17.3396V35.2253H17.6556V35.4854H17.9691Z" fill="#383739"/>
<path d="M14.0692 37.6776V38.4143H14.3827V38.1541H14.6987V38.4143H15.0122V37.6776H14.6987V37.9378H14.3827V37.6776H14.0692Z" fill="#383739"/>
<path d="M14.0692 35.4854V34.7488H14.3827V35.0089H14.6987V34.7488H15.0122V35.4854H14.6987V35.2253H14.3827V35.4854H14.0692Z" fill="#383739"/>
<path d="M18.1561 34.9692V35.5287H19.1956L18.1561 34.9692Z" fill="#383739"/>
<path d="M13.8821 38.1938V37.6344H12.8427L13.8821 38.1938Z" fill="#383739"/>
<path d="M13.8821 34.9692V35.5287H12.8427L13.8821 34.9692Z" fill="#383739"/>
<path d="M18.1561 38.1938V37.6344H19.1956L18.1561 38.1938Z" fill="#383739"/>
<path d="M18.8043 37.1492V37.4094H19.0641V36.7264H18.8043V36.9866H18.4346V36.7264H18.1748V37.4094H18.4346V37.1492H18.8043Z" fill="#D22630"/>
<path d="M17.6825 38.1273V38.3874H17.9422V37.7045H17.6825V37.9646H17.3128V37.7045H17.053V38.3874H17.3128V38.1273H17.6825Z" fill="#D22630"/>
<path d="M18.8043 36.0138V35.7537H19.0641V36.4366H18.8043V36.1764H18.4346V36.4366H18.1748V35.7537H18.4346V36.0138H18.8043Z" fill="#D22630"/>
<path d="M13.2341 37.1492V37.4094H12.9744V36.7264H13.2341V36.9866H13.6038V36.7264H13.8636V37.4094H13.6038V37.1492H13.2341Z" fill="#D22630"/>
<path d="M13.2341 36.0138V35.7537H12.9744V36.4366H13.2341V36.1764H13.6038V36.4366H13.8636V35.7537H13.6038V36.0138H13.2341Z" fill="#D22630"/>
<path d="M17.6825 35.0358V34.7756H17.9422V35.4586H17.6825V35.1984H17.3128V35.4586H17.053V34.7756H17.3128V35.0358H17.6825Z" fill="#D22630"/>
<path d="M14.3558 38.1273V38.3874H14.0961V37.7045H14.3558V37.9646H14.7255V37.7045H14.9854V38.3874H14.7255V38.1273H14.3558Z" fill="#D22630"/>
<path d="M14.3558 35.0358V34.7756H14.0961V35.4586H14.3558V35.1984H14.7255V35.4586H14.9854V34.7756H14.7255V35.0358H14.3558Z" fill="#D22630"/>
<path d="M18.1844 35.0148V35.5024H19.0901L18.1844 35.0148ZM12.9498 37.662L13.8554 38.1497V37.662H12.9497H12.9498Z" fill="#FFC72C"/>
<path d="M13.8553 35.0148L12.9497 35.5024H13.8553V35.0148ZM18.1844 37.662V38.1497L19.0901 37.662H18.1844Z" fill="white"/>
<path d="M20.2717 38.6374C20.2217 38.8508 20.052 39.0118 20.0115 39.2332C19.9306 39.0024 19.856 38.8089 19.9117 38.5565C19.9516 38.3759 20.1035 38.2471 20.1211 38.0616C20.2867 38.2105 20.3223 38.4217 20.2717 38.6374ZM20.3137 39.5315C20.1732 39.7241 19.978 39.8718 19.7623 39.9703C19.8048 39.8016 19.7251 39.6746 19.6367 39.5407C19.5302 39.3795 19.4782 39.2211 19.5651 39.0355C19.6056 39.132 19.6599 39.2121 19.7237 39.2946C19.8181 39.4234 19.8801 39.5379 19.8947 39.703C20.0038 39.6221 20.0518 39.5013 20.1101 39.3845C20.1991 39.2171 20.3426 39.0771 20.5075 38.9856C20.4637 39.1734 20.4299 39.3719 20.3137 39.5315V39.5315ZM19.5259 40.1055C19.5559 40.2125 19.5818 40.3185 19.576 40.4303C19.6688 40.3303 19.7921 40.2551 19.902 40.1745C20.0518 40.0534 20.2263 39.968 20.3488 39.8138C20.3305 40.0407 20.2334 40.2258 20.0489 40.3639C19.854 40.5098 19.6189 40.5882 19.4268 40.7414C19.4556 40.535 19.3797 40.3696 19.3151 40.1799C19.2612 39.9986 19.3133 39.8145 19.4363 39.6763C19.4345 39.8295 19.4828 39.961 19.5259 40.1055L19.5259 40.1055ZM19.0884 40.8028C19.048 40.9594 18.9358 41.0868 18.8591 41.2265C19.0657 41.1624 19.248 41.0503 19.4348 40.9449C19.6573 40.8238 19.8988 40.7467 20.1002 40.5867C20 40.9578 19.7516 41.1729 19.3882 41.2826C19.1397 41.3576 18.9303 41.3202 18.6289 41.442C18.6634 41.2379 18.7243 41.0177 18.8208 40.8336C18.8957 40.7005 18.9788 40.5693 19.025 40.4227C19.092 40.5431 19.1238 40.6656 19.0884 40.8028H19.0884ZM18.3281 41.3706C18.257 41.4925 18.1631 41.595 18.0466 41.6759C18.3399 41.6946 18.5759 41.5087 18.8619 41.5006C19.0385 41.4957 19.2062 41.5505 19.3863 41.5341C19.1725 41.6783 18.9488 41.8042 18.6885 41.8379C18.3502 41.8816 18.0383 41.7965 17.6651 41.8298C17.8395 41.7067 17.9267 41.542 18.0355 41.3648C18.177 41.1436 18.3106 40.9859 18.5859 40.9503C18.4754 41.0746 18.4111 41.2285 18.3281 41.3706V41.3706ZM17.2865 41.8574C17.8032 41.9452 18.2983 42.0589 18.826 42.0641C18.2353 42.2701 17.6788 42.3073 17.0929 42.0947C16.7763 41.9798 16.5336 41.9183 16.2944 41.9354C15.945 41.9605 15.5203 42.0984 15.0503 42.5941L14.8656 42.4462C15.5392 41.846 16.4206 41.7101 17.2864 41.8574L17.2865 41.8574Z" fill="#FFC72C"/>
</g>
</svg>
