<svg width="54" height="54" viewBox="0 0 54 54" fill="none" xmlns="http://www.w3.org/2000/svg">
<mask id="mask0_1_31282" style="mask-type:alpha" maskUnits="userSpaceOnUse" x="3" y="9" width="48" height="36">
<path d="M3.56934 18.1356C4.16681 13.4125 8.0415 10.0019 12.7861 9.60887C16.6412 9.28949 21.6196 9 27 9C32.3804 9 37.3588 9.28949 41.2139 9.60887C45.9585 10.0019 49.8332 13.4125 50.4307 18.1356C50.752 20.6759 51 23.704 51 27C51 30.296 50.752 33.3241 50.4307 35.8644C49.8332 40.5875 45.9585 43.9981 41.2139 44.3911C37.3588 44.7105 32.3804 45 27 45C21.6196 45 16.6412 44.7105 12.7861 44.3911C8.04151 43.9981 4.16681 40.5875 3.56934 35.8644C3.248 33.3241 3 30.296 3 27C3 23.704 3.248 20.6759 3.56934 18.1356Z" fill="#00D0BF"/>
</mask>
<g mask="url(#mask0_1_31282)">
<rect x="3" y="3" width="48" height="49" fill="#1C6864"/>
<path d="M32.1668 12.559C33.8327 13.2743 35 14.9297 35 16.8572C35 19.4391 32.9062 21.5329 30.3243 21.5329C29.1684 21.5329 28.1106 21.113 27.2944 20.4178C27.7993 20.6343 28.351 20.7651 28.9323 20.7905C31.5117 20.9031 33.6948 18.9027 33.8074 16.3232C33.8728 14.8257 33.2258 13.4618 32.1668 12.559L32.1668 12.559Z" fill="white"/>
<path d="M27.7072 15.9961L28.2369 14.3656L26.85 15.3733H28.5643L27.1774 14.3656L27.7072 15.9961Z" fill="white"/>
<path d="M21.0922 8.39142H10.946V45.9698H21.0922V8.39142Z" fill="#D22630"/>
<path d="M10.9464 5.91003V6.27826L11.517 6.81234L11.3246 6.99148L11.7326 7.36965L11.5535 7.5322V7.29667H11.2051V7.57864L11.9914 8.31508H12.3894L12.4326 8.05633H12.2037L12.4525 7.82412L13.0761 8.39138L12.4525 8.96196L12.2037 8.72974H12.4326L12.3894 8.46768H11.9914L11.2051 9.20413V9.4861H11.5535V9.25057L11.7326 9.41312L11.3246 9.79129L11.517 9.97374L10.9464 10.5045V10.8727L11.9117 9.97374L11.7193 9.79129L12.124 9.41312L11.7757 9.08802L12.0079 8.87571L12.4525 9.28706L13.4278 8.39139L12.4525 7.49572L12.0079 7.91038L11.7757 7.69476L12.124 7.36966L11.7193 6.99149L11.9117 6.81236L10.9464 5.91005V5.91003ZM10.9464 7.69807V9.0847L11.172 8.8558V8.58711H11.4108L11.6032 8.39138L11.4108 8.19898H11.172V7.92696L10.9464 7.69807V7.69807ZM12.5918 8.18903L12.5586 8.37811L12.5918 8.57052L12.7975 8.37811L12.5918 8.18903Z" fill="#383739"/>
<path d="M10.9461 5.94995V6.24188L11.5565 6.81245L11.3641 6.99159L11.7721 7.36976L11.5267 7.59865V7.32332H11.2314V7.5688L12.0044 8.28865H12.3626L12.3991 8.08298H12.1337L12.4522 7.78442L13.1156 8.39149L12.4522 8.99855L12.1337 8.70331H12.3991L12.3625 8.49432H12.0043L11.2313 9.21418V9.45966H11.5266V9.18432L11.772 9.41321L11.364 9.79139L11.5564 9.97383L10.946 10.5411V10.833L11.8716 9.97383L11.6792 9.79139L12.0839 9.41322L11.7355 9.08812L12.0076 8.836L12.4521 9.25067L13.3843 8.39149L12.4521 7.53231L12.0076 7.94697L11.7355 7.69485L12.0839 7.36976L11.6792 6.99159L11.8716 6.81245L10.946 5.94995L10.9461 5.94995ZM10.9461 7.73799V9.045L11.1452 8.84596V8.55736H11.4006L11.5665 8.3915L11.4006 8.22563H11.1452V7.93702L10.9461 7.73799V7.73799ZM12.6114 8.24222L12.5882 8.37823L12.6114 8.51424L12.7574 8.37823L12.6114 8.24222Z" fill="#FFC72C"/>
<path d="M21.092 5.91003V6.27826L20.5215 6.81234L20.7139 6.99148L20.3058 7.36965L20.485 7.5322V7.29667H20.8333V7.57864L20.0471 8.31508H19.649L19.6059 8.05633H19.8348L19.586 7.82412L18.9623 8.39138L19.586 8.96196L19.8348 8.72974H19.6059L19.649 8.46768H20.0471L20.8333 9.20413V9.4861H20.485V9.25057L20.3058 9.41312L20.7139 9.79129L20.5215 9.97374L21.092 10.5045V10.8727L20.1267 9.97374L20.3191 9.79129L19.9144 9.41312L20.2627 9.08802L20.0305 8.87571L19.586 9.28706L18.6107 8.39139L19.586 7.49572L20.0305 7.91038L20.2627 7.69476L19.9144 7.36966L20.3191 6.99149L20.1267 6.81236L21.092 5.91005V5.91003ZM21.092 7.69807V9.0847L20.8665 8.8558V8.58711H20.6276L20.4352 8.39138L20.6276 8.19898H20.8665V7.92696L21.092 7.69807V7.69807ZM19.4467 8.18903L19.4798 8.37811L19.4467 8.57052L19.241 8.37811L19.4467 8.18903Z" fill="#383739"/>
<path d="M21.0923 5.94995V6.24188L20.4819 6.81245L20.6743 6.99159L20.2663 7.36976L20.5118 7.59865V7.32332H20.807V7.5688L20.0341 8.28865H19.6758L19.6393 8.08298H19.9047L19.5863 7.78442L18.9228 8.39149L19.5863 8.99855L19.9047 8.70331H19.6393L19.6759 8.49432H20.0342L20.8071 9.21418V9.45966H20.5119V9.18432L20.2664 9.41321L20.6744 9.79139L20.482 9.97383L21.0924 10.5411V10.833L20.1669 9.97383L20.3593 9.79139L19.9546 9.41322L20.3029 9.08812L20.0309 8.836L19.5864 9.25067L18.6542 8.39149L19.5864 7.53231L20.0309 7.94697L20.3029 7.69485L19.9546 7.36976L20.3593 6.99159L20.1669 6.81245L21.0924 5.94995L21.0923 5.94995ZM21.0923 7.73799V9.045L20.8933 8.84596V8.55736H20.6379L20.472 8.3915L20.6379 8.22563H20.8933V7.93702L21.0923 7.73799V7.73799ZM19.427 8.24222L19.4503 8.37823L19.427 8.51424L19.2811 8.37823L19.427 8.24222Z" fill="#FFC72C"/>
<path d="M11.7691 41.6374C11.8192 41.8508 11.9889 42.0118 12.0293 42.2332C12.1102 42.0024 12.1849 41.8089 12.1291 41.5565C12.0893 41.3759 11.9374 41.2471 11.9198 41.0616C11.7542 41.2105 11.7185 41.4217 11.7691 41.6374V41.6374ZM11.7272 42.5315C11.8676 42.7241 12.0629 42.8718 12.2785 42.9703C12.236 42.8016 12.3157 42.6746 12.4041 42.5407C12.5107 42.3795 12.5626 42.2211 12.4758 42.0355C12.4353 42.132 12.3809 42.2121 12.3171 42.2946C12.2227 42.4234 12.1607 42.5379 12.1462 42.703C12.037 42.6221 11.9891 42.5013 11.9307 42.3845C11.8418 42.2171 11.6982 42.0771 11.5333 41.9856C11.5771 42.1734 11.6109 42.3719 11.7272 42.5315L11.7272 42.5315ZM12.5149 43.1055C12.4849 43.2125 12.459 43.3185 12.4648 43.4303C12.372 43.3303 12.2487 43.2551 12.1388 43.1745C11.989 43.0534 11.8145 42.968 11.6921 42.8138C11.7103 43.0407 11.8075 43.2258 11.9919 43.3639C12.1869 43.5098 12.422 43.5882 12.614 43.7414C12.5853 43.535 12.6611 43.3696 12.7258 43.1799C12.7797 42.9986 12.7275 42.8145 12.6045 42.6763C12.6064 42.8295 12.5581 42.961 12.5149 43.1055L12.5149 43.1055ZM12.9525 43.8028C12.9929 43.9594 13.1051 44.0868 13.1817 44.2265C12.9751 44.1624 12.7928 44.0503 12.606 43.9449C12.3836 43.8238 12.142 43.7467 11.9406 43.5867C12.0409 43.9578 12.2893 44.1729 12.6526 44.2826C12.9011 44.3576 13.1105 44.3202 13.412 44.442C13.3774 44.2379 13.3165 44.0177 13.22 43.8336C13.1451 43.7005 13.0621 43.5693 13.0158 43.4227C12.9488 43.5431 12.9171 43.6656 12.9525 43.8028H12.9525ZM13.7127 44.3706C13.7839 44.4925 13.8778 44.595 13.9942 44.6759C13.7009 44.6946 13.4649 44.5087 13.179 44.5006C13.0023 44.4957 12.8347 44.5505 12.6545 44.5341C12.8683 44.6783 13.0921 44.8042 13.3523 44.8379C13.6906 44.8816 14.0026 44.7965 14.3758 44.8298C14.2014 44.7067 14.1141 44.542 14.0054 44.3648C13.8638 44.1436 13.7302 43.9859 13.4549 43.9503C13.5654 44.0746 13.6297 44.2285 13.7127 44.3706V44.3706ZM14.7544 44.8574C14.2377 44.9452 13.7425 45.0589 13.2148 45.0641C13.8055 45.2701 14.3621 45.3073 14.9479 45.0947C15.2645 44.9798 15.5073 44.9183 15.7464 44.9354C16.0958 44.9605 16.5205 45.0984 16.9905 45.5941L17.1752 45.4462C16.5016 44.846 15.6203 44.7101 14.7544 44.8574L14.7544 44.8574Z" fill="#FFC72C"/>
<path d="M12.2155 12.7968L11.4025 12.2982V11.0998L12.2155 10.6012V9.96711L12.9838 9.50444H13.5976L14.7655 8.84753H17.2728L18.4407 9.50444H19.0545L19.8228 9.96711V10.6012L20.6358 11.0998L20.6358 12.2982L19.8228 12.7968V13.4309L19.0545 13.8936H18.4407L17.2728 14.5505H14.7655L13.5976 13.8936H12.9838L12.2155 13.4309V12.7968Z" fill="#383739"/>
<path d="M14.7709 8.87573L13.6033 9.53256H12.9929L12.2432 9.98371V10.6173L11.4304 11.1149V12.2826L12.2432 12.7802V13.4171L12.9896 13.8683H13.6033L14.7709 14.5251H17.2656L18.4332 13.8683H19.0469L19.7967 13.4171V12.7802L20.6094 12.2826V11.1149L19.7967 10.6173V9.98371L19.0469 9.53256H18.4332L17.2656 8.87573H14.7709H14.7709ZM14.8406 9.1179H17.1992L18.3669 9.77472H18.9773L19.5445 10.1164V10.75L20.3606 11.2476V12.1499L19.5445 12.6475V13.2811L18.9773 13.6228H18.3669L17.1992 14.2796H14.8406L13.6729 13.6228H13.0625L12.492 13.2811V12.6475L11.6792 12.1499V11.2476L12.492 10.75V10.1164L13.0625 9.77472H13.6729L14.8406 9.1179Z" fill="#00843D"/>
<path d="M16.0057 11.7124V9.14404H14.8467L13.6787 9.80095H13.0698L12.519 10.1327V10.7653L11.7061 11.2638V11.6856L16.0326 11.6856V14.254H17.1917L18.3596 13.5971H18.9685L19.5193 13.2654V12.6329L20.3323 12.1343V11.7125L16.0057 11.7124Z" fill="#FFC72C"/>
<path d="M11.706 11.7125L11.7059 12.1343L12.5189 12.6329V13.2654L13.0697 13.5971H13.6786L14.8466 14.254H16.0057V11.6856L20.3322 11.6856V11.2638L19.5192 10.7653V10.1327L18.9684 9.80095H18.3595L17.1916 9.14404H16.0325V11.7124L11.706 11.7125Z" fill="white"/>
<path d="M13.4795 10.0374L13.2794 9.85089L13.0811 9.97317L13.2816 10.1601L13.0242 10.3196H13.5859L14.07 10.7762L14.2248 10.6126L13.7542 10.1687V9.86728L13.4795 10.0374Z" fill="#383739"/>
<path d="M14.4268 9.95552L14.2267 9.76898L14.0284 9.89126L14.2288 10.0782L13.9714 10.2377H14.5332L15.0172 10.6943L15.1721 10.5307L14.7014 10.0867V9.78537L14.4268 9.95552Z" fill="#383739"/>
<path d="M13.41 10.5733L13.2099 10.3867L13.0116 10.509L13.2121 10.6959L12.9547 10.8554H13.5164L14.0005 11.312L14.1553 11.1485L13.6847 10.7045V10.4031L13.41 10.5733Z" fill="#383739"/>
<path d="M16.0191 9.11725H15.5122L15.247 9.37286H14.73L14.3479 9.57116L14.437 9.78825L14.7777 9.6093H14.9269L15.4494 10.2135L16.0191 9.86652L16.0191 9.11725Z" fill="#383739"/>
<path d="M13.276 9.88446L13.4559 10.0521L13.3052 10.1454L13.125 9.97754L13.276 9.88446ZM13.7273 9.91546V10.1802L14.1868 10.6137L14.0688 10.7383L13.5965 10.2928H13.1183L13.7273 9.91546L13.7273 9.91546Z" fill="#D22630"/>
<path d="M14.2233 9.80243L14.4031 9.97007L14.2524 10.0634L14.0724 9.89551L14.2233 9.80243ZM14.6745 9.83343V10.0982L15.1341 10.5317L15.0161 10.6563L14.5438 10.2108H14.0656L14.6745 9.83343L14.6745 9.83343Z" fill="#D22630"/>
<path d="M13.2066 10.4202L13.3864 10.5879L13.2357 10.6812L13.0556 10.5133L13.2066 10.4202ZM13.6578 10.4512V10.716L14.1174 11.1495L13.9994 11.2741L13.5271 10.8286H13.0488L13.6578 10.4512V10.4512Z" fill="#D22630"/>
<path d="M16.0058 9.1441H15.5231L15.2579 9.39971H14.7366L14.3821 9.5837L14.4507 9.75085L14.7711 9.58257H14.9393L15.4549 10.1789L16.0058 9.8434L16.0058 9.1441Z" fill="#D22630"/>
<path d="M13.1417 10.8785L12.9 10.7882L12.8942 10.7922L12.5822 11.0088V11.067L12.0824 11.699L12.5822 12.331V12.3893L12.9 12.6098L13.1417 12.5195L12.9942 12.4218V12.236L13.0528 12.1659H13.3147V11.2321H13.0528L12.9942 11.162V10.9762L13.1417 10.8785Z" fill="#383739"/>
<path d="M12.609 11.0229L12.9038 10.8184L13.083 10.8853L12.9674 10.9619V11.1719L13.0403 11.259H13.2878V12.1392H13.0403L12.9674 12.2264V12.4363L13.083 12.5129L12.9038 12.5799L12.609 12.3754L12.609 12.3218L12.1166 11.6991L12.609 11.0764L12.609 11.0229Z" fill="#D22630"/>
<path d="M12.7126 12.2295L12.5766 12.1118V12.055L12.2847 11.699L12.5766 11.3429V11.2862L12.7127 11.1684L12.9571 11.3672L12.816 11.3661L13.0245 11.5777H13.5008L13.8754 11.2847V10.5122H14.8122L15.9003 9.84456V9.66944L15.7339 9.55855H15.6812L15.5 9.67981L15.4719 9.77026L15.3301 9.57673L15.6056 9.34529H15.6497L15.9606 9.11719H16.0778L16.3886 9.34529H16.4327L16.7082 9.57673L16.5664 9.77026L16.5384 9.67981L16.3572 9.55855H16.3044L16.138 9.66944V9.84456L17.2261 10.5122H18.163V11.2847L18.5375 11.5777H19.0138L19.2223 11.3661L19.0812 11.3672L19.3256 11.1684L19.4617 11.2862V11.3429L19.7536 11.699L19.4617 12.055V12.1118L19.3256 12.2295L19.0812 12.0308L19.2223 12.0318L19.0138 11.8202H18.5375L18.163 12.1132V12.8857H17.2261L16.138 13.5534V13.7285L16.3044 13.8394H16.3572L16.5384 13.7181L16.5664 13.6277L16.7082 13.8212L16.4327 14.0527H16.3886L16.0778 14.2808H15.9606L15.6497 14.0527H15.6056L15.3301 13.8212L15.4719 13.6277L15.5 13.7181L15.6811 13.8394H15.7338L15.9003 13.7285V13.5534L14.8122 12.8857H13.8754V12.1132L13.5007 11.8202H13.0245L12.816 12.0318L12.9571 12.0308L12.7126 12.2295Z" fill="#383739"/>
<path d="M16.0325 13.8602L16.1516 13.9512L16.0325 14.0423V13.8602V13.8602ZM15.6539 14.0258H15.6583L15.9692 14.2539H16.0055V14.0759L15.8424 13.9512L16.0056 13.8265V13.4922L14.8413 12.7777H13.9806V12.0598L13.5363 11.7123H12.866L12.6976 11.9028L12.5291 11.7123L12.3302 11.7123L12.6032 12.0454V12.0994L12.7114 12.1934L12.8852 12.0581L12.7832 12.0589V12.0251L13.0104 11.7934H13.5099L13.9021 12.1001V12.8588H14.8197L15.9269 13.5383V13.7428L15.7418 13.8661H15.6728L15.477 13.7351L15.4619 13.6864L15.3664 13.8168L15.6153 14.0258H15.6539V14.0258ZM12.6977 11.5356L12.8304 11.6855H12.565L12.6977 11.5356ZM16.0056 9.35556L15.8866 9.44662L16.0056 9.53763V9.35556ZM19.2077 11.7123L19.3404 11.8623L19.473 11.7123H19.2077ZM16.3797 9.37202L16.0688 9.14392H16.0325V9.32182L16.1957 9.44662L16.0325 9.57141V9.90564L17.1967 10.6201H18.0574V11.338L18.5017 11.6855H19.1719L19.3404 11.4951L19.5089 11.6855H19.7078L19.4348 11.3525V11.2984L19.3266 11.2045L19.1529 11.3397L19.2549 11.3389V11.3728L19.0276 11.6044H18.5282L18.136 11.2977V10.539H17.2183L16.1111 9.85949V9.65502L16.2962 9.53169H16.3652L16.561 9.66277L16.5761 9.71139L16.6716 9.58107L16.4228 9.37202H16.3797L16.3797 9.37202Z" fill="#FFC72C"/>
<path d="M16.0056 14.0424L15.8866 13.9513L16.0056 13.8603V14.0424ZM12.8304 11.7125L12.6978 11.8624L12.5651 11.7125H12.8304ZM16.3841 14.0259H16.3797L16.0688 14.254H16.0325V14.2074V14.0761L16.1957 13.9513L16.0325 13.8265V13.4923L17.1968 12.7778H18.0574V12.0599L18.5018 11.7124H19.172L19.3404 11.9029L19.5089 11.7124L19.7079 11.7125L19.4348 12.0455V12.0995L19.3267 12.1935L19.1529 12.0582L19.2549 12.059V12.0252L19.0276 11.7935H18.5282L18.136 12.1002V12.859H17.2184L16.1111 13.5385V13.7429L16.2962 13.8663H16.3653L16.5611 13.7352L16.5762 13.6866L16.6716 13.8169L16.4228 14.0259H16.3841V14.0259ZM19.3404 11.5357L19.2078 11.6856H19.4731L19.3404 11.5357ZM15.6585 9.37214L15.9693 9.14404H16.0057V9.32194L15.8425 9.44674L16.0057 9.57154L16.0057 9.90576L14.8414 10.6202H13.9808V11.3381L13.5364 11.6857H12.8661L12.6976 11.4952L12.5291 11.6856H12.3303L12.6034 11.3526V11.2985L12.7116 11.2046L12.8853 11.3399L12.7833 11.339V11.3729L13.0106 11.6045H13.51L13.9022 11.2978V10.5391H14.8198L15.9271 9.85961V9.65515L15.742 9.53181H15.6729L15.4771 9.66289L15.462 9.71151L15.3666 9.58119L15.6154 9.37214H15.6585L15.6585 9.37214ZM16.0325 9.53779L16.1516 9.44674L16.0325 9.35568V9.53779Z" fill="white"/>
<path d="M16.0057 11.7124V9.93713L14.849 10.647H14.0076V11.3511L13.58 11.6856L16.0326 11.6855V13.4608L17.1892 12.751H18.0306V12.0469L18.4583 11.7124L16.0057 11.7124Z" fill="#00843D"/>
<path d="M13.5798 11.7124L14.0075 12.0468V12.751H14.8489L16.0056 13.4608V11.6855L18.4582 11.6855L18.0305 11.3511V10.647H17.1891L16.0325 9.93713V11.7124L13.5798 11.7124Z" fill="#D22630"/>
<path d="M14.7741 10.838L14.574 10.6514L14.3757 10.7737L14.5761 10.9606L14.3187 11.1201H14.8804L15.3645 11.5767L15.5194 11.4131L15.0487 10.9692V10.6678L14.7741 10.838Z" fill="#383739"/>
<path d="M17.264 12.5601L17.4641 12.7466L17.6624 12.6244L17.4619 12.4375L17.7193 12.278H17.1576L16.6735 11.8214L16.5187 11.9849L16.9893 12.4289V12.7303L17.264 12.5601Z" fill="#383739"/>
<path d="M14.7741 12.5601L14.5739 12.7466L14.3757 12.6244L14.5761 12.4375L14.3187 12.278H14.8804L15.3645 11.8214L15.5194 11.9849L15.0487 12.4289V12.7303L14.7741 12.5601Z" fill="#383739"/>
<path d="M17.264 10.838L17.4641 10.6514L17.6624 10.7737L17.4619 10.9606L17.7193 11.1201H17.1576L16.6735 11.5767L16.5187 11.4131L16.9893 10.9692V10.6678L17.264 10.838Z" fill="#383739"/>
<path d="M17.4675 12.7131L17.2876 12.5455L17.4383 12.4522L17.6184 12.6201L17.4675 12.7131ZM17.0162 12.6821V12.4174L16.5567 11.9839L16.6747 11.8593L17.147 12.3048H17.6252L17.0162 12.6821L17.0162 12.6821ZM14.5707 10.6851L14.7505 10.8527L14.5998 10.9461L14.4197 10.7782L14.5707 10.6851ZM15.022 10.7161V10.9808L15.4815 11.4143L15.3635 11.539L14.8912 11.0934H14.413L15.022 10.7161L15.022 10.7161Z" fill="#D22630"/>
<path d="M17.4675 10.6851L17.2877 10.8527L17.4384 10.9461L17.6184 10.7782L17.4675 10.6851ZM17.0162 10.7161V10.9808L16.5567 11.4143L16.6747 11.539L17.147 11.0934H17.6252L17.0162 10.7161L17.0162 10.7161ZM14.5707 12.7131L14.7505 12.5455L14.5998 12.4522L14.4198 12.6201L14.5707 12.7131ZM15.022 12.6821V12.4174L15.4815 11.9839L15.3635 11.8593L14.8912 12.3048H14.413L15.022 12.6821L15.022 12.6821Z" fill="#00843D"/>
<path d="M17.2628 11.699L16.0191 12.528L14.7753 11.699L16.0191 10.8701L17.2628 11.699Z" fill="#383739"/>
<path d="M16.0057 10.9111L14.8438 11.6855H17.1944L16.0325 10.9111V12.4867L17.1945 11.7123H14.8438L16.0057 12.4867V10.9111Z" fill="white"/>
<path d="M16.3518 11.9841V12.212H15.6866V11.9841H15.2561V11.4139H15.6866V11.186H16.3518V11.4139H16.7822V11.9841H16.3518Z" fill="#383739"/>
<path d="M15.7134 11.2128V11.4407H15.283V11.6855H16.0057V11.2128H15.7134L15.7134 11.2128ZM16.0326 11.6855H16.7554V11.4407H16.3249V11.2128H16.0326V11.6855L16.0326 11.6855ZM15.283 11.7124V11.9572H15.7134V12.1852H16.0057V11.7124H15.283V11.7124ZM16.0326 12.1852H16.3249V11.9572H16.7554V11.7124H16.0326V12.1852V12.1852Z" fill="#D22630"/>
<path d="M18.141 21.1436V20.7785H19.1424V20.4133H20.1437V17.1139H19.1424V16.7487H18.141V16.3836H17.1397V16.0184H14.8986V16.3836H13.8973V16.7487H12.8959V17.1139H11.8945V20.4133H12.8959V20.7785H13.8973V21.1436H14.8986V21.5088H17.1397V21.1436H18.141Z" fill="#383739"/>
<path d="M14.9269 16.0444V16.4093H13.925V16.7742H12.9232V17.1391H11.9214V20.3868H12.9232V20.7517H13.925V21.1166H14.9269V21.4814H17.1129V21.1166H18.1148V20.7517H19.1167V20.3868H20.1184V17.1391H19.1167V16.7742H18.1148V16.4093H17.1129V16.0444H14.9269ZM15.1923 16.3098H16.8475V16.6747H17.8494V17.0396H18.8513V17.4045H19.8531V20.1214H18.8513V20.4864H17.8494V20.8512H16.8475V21.2161H15.1923V20.8512H14.1904V20.4864H13.1886V20.1214H12.1868V17.4045H13.1886V17.0396H14.1904V16.6747H15.1923V16.3098Z" fill="#FFC72C"/>
<path d="M14.2161 20.8248V20.4596H13.2148V20.0945H12.2134V17.4326H13.2148V17.0675H14.2161V16.7023H15.2175V16.3372H16.8209V16.7023H17.8223V17.0675H18.8236V17.4326H19.825V20.0945H18.8236V20.4596H17.8223V20.8248H16.8209V21.1899H15.2175V20.8248H14.2161Z" fill="#D22630"/>
<path d="M14.4486 16.9727L14.1892 16.7767V17.1532L13.9409 17.311L13.9402 17.0753L13.702 17.2893L13.4638 17.0753L13.4632 17.311L13.188 17.1361V17.4851L12.9655 17.6462L12.9649 17.4321L12.7007 17.6235L12.4364 17.4321L12.4358 17.6462L12.1865 17.4657V18.523H11.8945V19.0043H12.1865V20.0616L12.4358 19.8811L12.4364 20.0951L12.7007 19.9038L12.9649 20.0951L12.9655 19.8811L13.1879 20.0421V20.3912L13.4632 20.2163L13.4638 20.4519L13.702 20.238L13.9402 20.4519L13.9409 20.2163L14.1892 20.3741V20.7506L14.4486 20.5545L14.4491 20.8175L14.7033 20.5902L14.9575 20.8175L14.9581 20.5545L15.1906 20.7303V21.1318L15.5383 20.8149V21.1873L16.0192 20.8782L16.5001 21.1873V20.8149L16.8477 21.1318V20.7303L17.0802 20.5545L17.0808 20.8175L17.335 20.5902L17.5892 20.8175L17.5898 20.5545L17.8491 20.7506V20.3741L18.0975 20.2163L18.0981 20.4519L18.3364 20.238L18.5746 20.4519L18.5752 20.2163L18.8505 20.3912V20.0421L19.0729 19.8811L19.0735 20.0951L19.3378 19.9038L19.602 20.0951L19.6026 19.8811L19.8519 20.0615V19.0043H20.1439V18.523H19.8519V17.4657L19.6026 17.6462L19.602 17.4321L19.3378 17.6235L19.0735 17.4321L19.0729 17.6462L18.8505 17.4851V17.1361L18.5752 17.311L18.5746 17.0753L18.3364 17.2893L18.0982 17.0753L18.0975 17.311L17.8491 17.1531V16.7767L17.5898 16.9727L17.5893 16.7098L17.335 16.9371L17.0808 16.7098L17.0803 16.9727L16.8478 16.7969V16.3955L16.5001 16.7124V16.34L16.0192 16.6491L15.5383 16.34V16.7124L15.1907 16.3955V16.797L14.9581 16.9727L14.9576 16.7098L14.7033 16.9371L14.4492 16.7098L14.4486 16.9727Z" fill="#383739"/>
<path d="M12.4625 17.6985L12.4631 17.4844L12.7007 17.6565L12.7087 17.6507L12.9382 17.4844L12.9388 17.6985L13.188 17.5181V20.0088L12.9388 19.8285L12.9382 20.0425L12.7007 19.8705L12.4631 20.0425L12.4625 19.8285L12.2134 20.0088V18.9773H11.9214V18.5497H12.2134V17.5181L12.4625 17.6985Z" fill="#00843D"/>
<path d="M14.4759 16.7695L14.7034 16.973L14.9309 16.7695L14.9315 17.0265L15.1907 16.8305V20.6965L14.9315 20.5005L14.9309 20.7575L14.7034 20.554L14.4759 20.7575L14.4754 20.5005L14.2162 20.6965V16.8305L14.4754 17.0265L14.4759 16.7695Z" fill="#00843D"/>
<path d="M17.5625 16.7695L17.335 16.973L17.1075 16.7695L17.107 17.0265L16.8478 16.8305V20.6965L17.107 20.5005L17.1075 20.7575L17.335 20.554L17.5625 20.7575L17.5631 20.5005L17.8223 20.6965V16.8305L17.5631 17.0265L17.5625 16.7695Z" fill="#00843D"/>
<path d="M19.5759 17.6985L19.5753 17.4844L19.3378 17.6565L19.3297 17.6507L19.1002 17.4844L19.0996 17.6985L18.8505 17.5181V20.0088L19.0996 19.8285L19.1002 20.0425L19.3378 19.8705L19.5753 20.0425L19.5759 19.8285L19.825 20.0088V18.9773H20.117V18.5497H19.825V17.5181L19.5759 17.6985Z" fill="#00843D"/>
<path d="M13.4905 17.1352L13.702 17.3252L13.9135 17.1352L13.9141 17.3596L14.1893 17.1848V20.3421L13.9141 20.1673L13.9135 20.3917L13.702 20.2017L13.4905 20.3917L13.4898 20.1673L13.2147 20.3421V17.1848L13.4898 17.3596L13.4905 17.1352Z" fill="#FFC72C"/>
<path d="M15.5651 16.7731L15.2174 16.4562V21.0709L15.5651 20.754V21.138L16.0191 20.8462H16.0191H16.0191L16.4731 21.138V20.754L16.8208 21.0709V16.4562L16.4731 16.7731V16.389L16.0191 16.6809H16.0191H16.0191L15.5651 16.389V16.7731Z" fill="#FFC72C"/>
<path d="M18.5479 17.1352L18.3364 17.3252L18.1248 17.1352L18.1243 17.3596L17.8491 17.1848V20.3421L18.1243 20.1673L18.1248 20.3917L18.3364 20.2017L18.5479 20.3917L18.5486 20.1673L18.8237 20.3421V17.1848L18.5486 17.3596L18.5479 17.1352Z" fill="#FFC72C"/>
<path d="M12.5926 18.3101C12.623 18.3407 12.6594 18.3562 12.7006 18.3562C12.7419 18.3562 12.7782 18.3407 12.8086 18.3101C12.9037 18.2142 12.9069 18.0409 12.906 17.9162C12.906 17.9162 12.796 18.0324 12.7762 18.0534C12.7624 18.0295 12.7006 17.9229 12.7006 17.9229C12.7006 17.9229 12.6389 18.0295 12.625 18.0534C12.6052 18.0324 12.4952 17.9162 12.4952 17.9162C12.4943 18.0409 12.4975 18.2142 12.5926 18.3101V18.3101Z" fill="#383739"/>
<path d="M13.6371 18.0416L13.557 17.9616V17.8021L13.373 17.9726L13.7019 18.3015L14.0308 17.9726L13.8468 17.8021V17.9616L13.7668 18.0416V17.7591L13.9086 17.6373L13.7019 17.4598L13.4953 17.6373L13.6371 17.7591V18.0416Z" fill="#383739"/>
<path d="M14.6385 17.7246L14.5584 17.6446V17.4851L14.3744 17.6556L14.7033 17.9845L15.0322 17.6556L14.8482 17.4851V17.6446L14.7681 17.7246V17.4421L14.91 17.3203L14.7033 17.1428L14.4966 17.3203L14.6385 17.4421V17.7246Z" fill="#383739"/>
<path d="M12.7007 17.9764C12.7171 18.0047 12.771 18.0979 12.771 18.0979C12.771 18.0979 12.847 18.0175 12.8781 17.9848C12.8743 18.1256 12.8434 18.2369 12.7896 18.2911C12.7644 18.3165 12.7345 18.3294 12.7007 18.3294C12.6668 18.3294 12.6369 18.3165 12.6117 18.2911C12.558 18.2369 12.527 18.1256 12.5233 17.9848C12.5543 18.0176 12.6303 18.0979 12.6303 18.0979C12.6538 18.0574 12.6772 18.0169 12.7007 17.9764V17.9764Z" fill="white"/>
<path d="M14.7414 17.43V17.7897L14.8752 17.6559V17.5468L14.9936 17.6566L14.7034 17.9468L14.4132 17.6566L14.5317 17.5468V17.6559L14.6654 17.7897V17.43L14.5379 17.3205L14.7034 17.1784L14.8689 17.3205L14.7414 17.43Z" fill="white"/>
<path d="M13.7399 17.7468V18.1065L13.8737 17.9727V17.8636L13.9921 17.9734L13.7019 18.2636L13.4117 17.9734L13.5302 17.8636V17.9727L13.664 18.1065V17.7468L13.5365 17.6373L13.7019 17.4952L13.8674 17.6373L13.7399 17.7468Z" fill="#D22630"/>
<path d="M16.4127 17.8447L16.3049 17.6958L16.5812 17.4408L16.3236 17.2291V17.3791L16.2159 17.4712V17.1993L16.4592 17.0199L16.019 16.6954L15.5788 17.0199L15.8222 17.1993V17.4712L15.7144 17.3791V17.2291L15.4568 17.4408L15.7331 17.6958L15.6254 17.8447H16.4127Z" fill="#383739"/>
<path d="M15.6781 17.8178L15.7689 17.6922L15.4978 17.4419L15.6877 17.2859V17.3914L15.8491 17.5295V17.1857L15.6241 17.0199L16.0191 16.7288L16.4141 17.0199L16.1892 17.1857V17.5295L16.3506 17.3914V17.2859L16.5405 17.4419L16.2694 17.6922L16.3603 17.8178H15.6781Z" fill="#D22630"/>
<path d="M15.8179 17.02L16.019 17.1683L16.2202 17.02L16.019 16.8718L16.0111 16.8777L15.8179 17.02Z" fill="#383739"/>
<path d="M16.0191 16.9051C16.0324 16.9149 16.1515 17.0027 16.175 17.02C16.1515 17.0373 16.0324 17.1251 16.0191 17.1349C16.0058 17.1251 15.8866 17.0373 15.8632 17.02C15.8866 17.0027 16.0058 16.9149 16.0191 16.9051Z" fill="#00843D"/>
<path d="M19.5831 18.6096H19.1424V18.4339H17.7952L16.8573 17.8179H16.8533H15.181L14.2432 18.4339H12.896V18.6096H12.4552V18.9176H12.896V19.0932H14.2432L15.181 19.7093H16.8573L17.7952 19.0932H19.1424V18.9176H19.5831V18.6096Z" fill="#383739"/>
<path d="M15.189 17.8457L14.2502 18.4594H12.9233V18.6352H12.4821V18.8907H12.9233V19.0665H14.2502L15.189 19.6835H16.8509L17.7864 19.0665H19.1166V18.8907H19.5578V18.6352H19.1166V18.4594H17.7864L16.8509 17.8457H15.189ZM15.2089 17.9353H16.8277L17.6869 18.4992V18.5855H18.6456V18.9437H17.6869V19.03L16.8277 19.5906H15.2089L14.353 19.03V18.9437H13.391V18.5855H14.353V18.4992L15.2089 17.9353Z" fill="#D22630"/>
<path d="M16.821 17.963L17.6589 18.5131V18.6107H18.6191V18.9164H17.6589V19.014L16.821 19.5641H15.2174L14.3794 19.014V18.9164H13.4192V18.6107H14.3794V18.5131L15.2174 17.963H16.821Z" fill="#D22630"/>
<path d="M14.8011 19.076L15.164 19.3484L15.4026 19.1692L15.2639 19.065L15.164 19.1401L15.0787 19.076L16.445 18.0502H16.1675L14.8011 19.076ZM15.5931 19.4769H15.8706L17.2369 18.4511L16.8742 18.1788L16.6355 18.358L16.7742 18.4621L16.8742 18.387L16.9595 18.4511L15.5931 19.4769ZM16.1675 19.4769H16.4449L15.0787 18.4511L15.164 18.387L15.2639 18.4621L15.4026 18.358L15.164 18.1788L14.8011 18.4511L16.1675 19.4769ZM16.9595 19.076L16.8742 19.1401L16.7742 19.065L16.6355 19.1692L16.8742 19.3484L17.2369 19.076L15.8706 18.0502H15.5931L16.9595 19.076Z" fill="#383739"/>
<path d="M14.5264 18.7635L14.7702 18.9255L15.0141 18.7635L14.7702 18.6016L14.5264 18.7635Z" fill="#383739"/>
<path d="M15.7753 18.7635L16.0191 18.9255L16.263 18.7635L16.0191 18.6016L15.7753 18.7635Z" fill="#383739"/>
<path d="M17.5119 18.7635L17.268 18.9255L17.0242 18.7635L17.268 18.6016L17.5119 18.7635Z" fill="#383739"/>
<path d="M17.1923 19.076L16.8742 19.3148L16.6802 19.1692L16.7743 19.0986L16.8742 19.1736L17.0042 19.076L15.6737 18.0771H15.8617L17.1923 19.076ZM16.3646 19.4501H16.1765L14.8459 18.4511L15.164 18.2123L15.358 18.3579L15.264 18.4285L15.164 18.3535L15.034 18.4511L16.3646 19.4501ZM15.8617 19.4501H15.6737L17.0042 18.4511L16.8742 18.3535L16.7743 18.4285L16.6802 18.3579L16.8742 18.2123L17.1923 18.4511L15.8617 19.4501ZM16.1765 18.0771H16.3646L15.034 19.076L15.164 19.1736L15.264 19.0986L15.358 19.1692L15.164 19.3148L14.8459 19.076L16.1765 18.0771Z" fill="#FFC72C"/>
<path d="M14.7702 18.6339L14.9655 18.7636L14.7702 18.8934L14.5748 18.7636L14.7702 18.6339Z" fill="#00843D"/>
<path d="M16.0191 18.6339L16.2145 18.7636L16.0191 18.8934L15.8239 18.7636L16.0191 18.6339Z" fill="#00843D"/>
<path d="M17.2681 18.6339L17.0728 18.7636L17.2681 18.8934L17.4634 18.7636L17.2681 18.6339Z" fill="#00843D"/>
<path d="M11.73 25.5617L11.6343 25.697L11.8058 25.8282L11.6343 25.9593L11.73 26.0947L11.9292 26.1178L12.1222 25.9687L12.6033 26.2743V26.0205L12.3005 25.8282L12.6033 25.6358V25.382L12.1222 25.6876L11.9292 25.5386L11.73 25.5617Z" fill="#383739"/>
<path d="M11.73 24.6799L11.6343 24.8153L11.8058 24.9464L11.6343 25.0776L11.73 25.2129L11.9292 25.236L12.1222 25.0869L12.6033 25.3926V25.1387L12.3005 24.9464L12.6033 24.754V24.5002L12.1222 24.8059L11.9292 24.6568L11.73 24.6799Z" fill="#383739"/>
<path d="M11.73 26.9764L11.6343 26.8411L11.8058 26.71L11.6343 26.5788L11.73 26.4435L11.9292 26.4203L12.1222 26.5694L12.6033 26.2638V26.5176L12.3005 26.71L12.6033 26.9023V27.1561L12.1222 26.8505L11.9292 26.9996L11.73 26.9764Z" fill="#383739"/>
<path d="M20.3084 25.5617L20.4041 25.697L20.2326 25.8282L20.4041 25.9593L20.3084 26.0947L20.1092 26.1178L19.9162 25.9687L19.4351 26.2743V26.0205L19.7379 25.8282L19.4351 25.6358V25.382L19.9162 25.6876L20.1092 25.5386L20.3084 25.5617Z" fill="#383739"/>
<path d="M20.3084 24.6799L20.4041 24.8153L20.2326 24.9464L20.4041 25.0776L20.3084 25.2129L20.1092 25.236L19.9162 25.0869L19.4351 25.3926V25.1387L19.7379 24.9464L19.4351 24.754V24.5002L19.9162 24.8059L20.1092 24.6568L20.3084 24.6799Z" fill="#383739"/>
<path d="M20.3084 26.9764L20.4041 26.8411L20.2326 26.71L20.4041 26.5788L20.3084 26.4435L20.1092 26.4203L19.9162 26.5694L19.4351 26.2638V26.5176L19.7379 26.71L19.4351 26.9023V27.1561L19.9162 26.8505L20.1092 26.9996L20.3084 26.9764Z" fill="#383739"/>
<path d="M18.3822 23.1553V23.5221H18.649V23.6842H18.911V23.389H18.6773V23.1553H18.3822Z" fill="#383739"/>
<path d="M19.1686 23.7338V24.1005H19.4351V24.2626H19.6974V23.9675H19.4637V23.7338H19.1686Z" fill="#383739"/>
<path d="M13.6562 23.1553V23.5221H13.3893V23.6842H13.1273V23.389H13.361V23.1553H13.6562Z" fill="#383739"/>
<path d="M18.3822 28.5011V28.1344H18.649V27.9723H18.911V28.2674H18.6773V28.5011H18.3822Z" fill="#383739"/>
<path d="M13.6562 28.5011V28.1344H13.3893V27.9723H13.1273V28.2674H13.361V28.5011H13.6562Z" fill="#383739"/>
<path d="M19.1686 27.9227V27.556H19.4351V27.3939H19.6974V27.689H19.4637V27.9227H19.1686Z" fill="#383739"/>
<path d="M12.8699 23.7338V24.1005H12.6033V24.2626H12.3411V23.9675H12.5748V23.7338H12.8699Z" fill="#383739"/>
<path d="M12.8699 27.9227V27.556H12.6033V27.3939H12.3411V27.689H12.5748V27.9227H12.8699Z" fill="#383739"/>
<path d="M17.0059 23.1468C16.9889 23.1302 16.8023 22.9491 16.8023 22.9491L16.6023 23.1344C16.6023 23.1344 16.759 23.2865 16.7767 23.3036L16.5516 23.5221H16.8857L17.0059 23.4053L17.1261 23.5221H17.4602L17.2352 23.3036C17.2528 23.2865 17.4094 23.1344 17.4094 23.1344L17.2095 22.9491C17.1415 23.0149 17.0738 23.0808 17.0059 23.1468Z" fill="#383739"/>
<path d="M16.0192 23.1468C16.0022 23.1302 15.8156 22.9491 15.8156 22.9491L15.6156 23.1344C15.6156 23.1344 15.7723 23.2865 15.79 23.3036L15.5649 23.5221H15.899L16.0192 23.4053L16.1394 23.5221H16.4734L16.2485 23.3036C16.2661 23.2865 16.4227 23.1344 16.4227 23.1344L16.2228 22.9491C16.1548 23.0149 16.0871 23.0808 16.0192 23.1468V23.1468Z" fill="#383739"/>
<path d="M15.0325 23.1468C15.0495 23.1302 15.2361 22.9491 15.2361 22.9491L15.4361 23.1344C15.4361 23.1344 15.2794 23.2865 15.2618 23.3036L15.4868 23.5221H15.1527L15.0325 23.4053L14.9123 23.5221H14.5782L14.8033 23.3036C14.7856 23.2865 14.6289 23.1344 14.6289 23.1344L14.8289 22.9491C14.8969 23.0149 14.9647 23.0808 15.0325 23.1468Z" fill="#383739"/>
<path d="M17.0059 28.5096C16.9889 28.5261 16.8023 28.7072 16.8023 28.7072L16.6023 28.5219C16.6023 28.5219 16.759 28.3699 16.7767 28.3527L16.5516 28.1343H16.8857L17.0059 28.251L17.1261 28.1343H17.4602L17.2352 28.3527C17.2528 28.3699 17.4094 28.5219 17.4094 28.5219L17.2095 28.7072C17.1415 28.6414 17.0738 28.5754 17.0059 28.5096Z" fill="#383739"/>
<path d="M16.0192 28.5096C16.0022 28.5261 15.8156 28.7072 15.8156 28.7072L15.6156 28.5219C15.6156 28.5219 15.7723 28.3699 15.79 28.3527L15.5649 28.1343H15.899L16.0192 28.251L16.1394 28.1343H16.4734L16.2485 28.3527C16.2661 28.3699 16.4227 28.5219 16.4227 28.5219L16.2228 28.7072C16.1548 28.6414 16.0871 28.5754 16.0192 28.5096V28.5096Z" fill="#383739"/>
<path d="M15.0325 28.5096C15.0495 28.5261 15.2361 28.7072 15.2361 28.7072L15.4361 28.5219C15.4361 28.5219 15.2794 28.3699 15.2618 28.3527L15.4868 28.1343H15.1527L15.0325 28.251L14.9123 28.1343H14.5782L14.8033 28.3527C14.7856 28.3699 14.6289 28.5219 14.6289 28.5219L14.8289 28.7072C14.8969 28.6414 14.9647 28.5754 15.0325 28.5096Z" fill="#383739"/>
<path d="M12.5764 26.0354V26.2256L12.1205 25.936L11.9213 26.09L11.7448 26.0695L11.671 25.9651L11.8499 25.8283L11.671 25.6915L11.7449 25.5871L11.9213 25.5666L12.1205 25.7205L12.5764 25.431V25.6212L12.2503 25.8283L12.5764 26.0354Z" fill="#00843D"/>
<path d="M12.5764 25.1536V25.3438L12.1205 25.0542L11.9213 25.2082L11.7448 25.1877L11.671 25.0833L11.8499 24.9465L11.671 24.8097L11.7449 24.7053L11.9213 24.6848L12.1205 24.8387L12.5764 24.5492V24.7394L12.2503 24.9465L12.5764 25.1536Z" fill="#00843D"/>
<path d="M12.5764 26.5029V26.3127L12.1205 26.6023L11.9213 26.4483L11.7448 26.4688L11.671 26.5732L11.8499 26.71L11.671 26.8468L11.7449 26.9512L11.9213 26.9717L12.1205 26.8178L12.5764 27.1073V26.9172L12.2503 26.71L12.5764 26.5029Z" fill="#00843D"/>
<path d="M19.4618 26.0354V26.2256L19.9176 25.936L20.1168 26.09L20.2933 26.0695L20.3671 25.9651L20.1882 25.8283L20.3671 25.6915L20.2933 25.5871L20.1168 25.5666L19.9176 25.7205L19.4618 25.431V25.6212L19.7878 25.8283L19.4618 26.0354Z" fill="#00843D"/>
<path d="M19.4618 25.1536V25.3438L19.9176 25.0542L20.1168 25.2082L20.2933 25.1877L20.3671 25.0833L20.1882 24.9465L20.3671 24.8097L20.2933 24.7053L20.1168 24.6848L19.9176 24.8387L19.4618 24.5492V24.7394L19.7878 24.9465L19.4618 25.1536Z" fill="#00843D"/>
<path d="M19.4618 26.5029V26.3127L19.9176 26.6023L20.1168 26.4483L20.2933 26.4688L20.3671 26.5732L20.1882 26.71L20.3671 26.8468L20.2933 26.9512L20.1168 26.9717L19.9176 26.8178L19.4618 27.1073V26.9172L19.7878 26.71L19.4618 26.5029Z" fill="#00843D"/>
<path d="M18.6504 23.1822V23.4159H18.8841V23.6574H18.6757V23.4953H18.4089V23.1822H18.6504Z" fill="#00843D"/>
<path d="M19.4368 23.7606V23.9943H19.6705V24.2358H19.4621V24.0737H19.1953V23.7606H19.4368Z" fill="#00843D"/>
<path d="M13.3878 23.1822V23.4159H13.1541V23.6574H13.3624V23.4953H13.6292V23.1822H13.3878Z" fill="#00843D"/>
<path d="M18.6504 28.4742V28.2405H18.8841V27.999H18.6757V28.1611H18.4089V28.4742H18.6504Z" fill="#00843D"/>
<path d="M13.3878 28.4742V28.2405H13.1541V27.999H13.3624V28.1611H13.6292V28.4742H13.3878Z" fill="#00843D"/>
<path d="M19.4368 27.8959V27.6622H19.6705V27.4207H19.4621V27.5828H19.1953V27.8959H19.4368Z" fill="#00843D"/>
<path d="M12.6015 23.7606V23.9943H12.3678V24.2358H12.5762V24.0737H12.8429V23.7606H12.6015Z" fill="#00843D"/>
<path d="M12.6015 27.8959V27.6622H12.3678V27.4207H12.5762V27.5828H12.843V27.8959H12.6015Z" fill="#00843D"/>
<path d="M16.8019 22.9863C16.8185 23.0024 17.0059 23.1843 17.0059 23.1843C17.0059 23.1843 17.1932 23.0024 17.2098 22.9863C17.2256 23.0008 17.353 23.1188 17.3704 23.135C17.3524 23.1525 17.1965 23.3038 17.1965 23.3038L17.3939 23.4954H17.137L17.0059 23.3681L16.8747 23.4954H16.6178L16.8152 23.3038C16.8152 23.3038 16.6593 23.1525 16.6413 23.135C16.6587 23.1188 16.7861 23.0008 16.8019 22.9863V22.9863Z" fill="#00843D"/>
<path d="M15.8151 22.9863C15.8317 23.0024 16.0191 23.1843 16.0191 23.1843C16.0191 23.1843 16.2064 23.0024 16.2231 22.9863C16.2388 23.0008 16.3662 23.1188 16.3836 23.135C16.3656 23.1525 16.2098 23.3038 16.2098 23.3038L16.4071 23.4954H16.1502L16.0191 23.3681L15.8879 23.4954H15.631L15.8283 23.3038C15.8283 23.3038 15.6725 23.1525 15.6545 23.135C15.6719 23.1188 15.7993 23.0008 15.8151 22.9863V22.9863Z" fill="#00843D"/>
<path d="M15.2365 22.9863C15.2198 23.0024 15.0324 23.1843 15.0324 23.1843C15.0324 23.1843 14.8451 23.0024 14.8285 22.9863C14.8127 23.0008 14.6853 23.1188 14.6679 23.135C14.6859 23.1525 14.8418 23.3038 14.8418 23.3038L14.6444 23.4954H14.9013L15.0324 23.3681L15.1636 23.4954H15.4205L15.2232 23.3038C15.2232 23.3038 15.379 23.1525 15.397 23.135C15.3796 23.1188 15.2522 23.0008 15.2365 22.9863V22.9863Z" fill="#00843D"/>
<path d="M16.8019 28.6702C16.8185 28.654 17.0059 28.4722 17.0059 28.4722C17.0059 28.4722 17.1932 28.654 17.2098 28.6702C17.2256 28.6556 17.353 28.5376 17.3704 28.5215C17.3524 28.504 17.1965 28.3527 17.1965 28.3527L17.3939 28.1611H17.137L17.0059 28.2884L16.8747 28.1611H16.6178L16.8152 28.3527C16.8152 28.3527 16.6593 28.504 16.6413 28.5215C16.6587 28.5376 16.7861 28.6556 16.8019 28.6702V28.6702Z" fill="#00843D"/>
<path d="M15.8151 28.6702C15.8317 28.654 16.0191 28.4722 16.0191 28.4722C16.0191 28.4722 16.2064 28.654 16.2231 28.6702C16.2388 28.6556 16.3662 28.5376 16.3836 28.5215C16.3656 28.504 16.2098 28.3527 16.2098 28.3527L16.4071 28.1611H16.1502L16.0191 28.2884L15.8879 28.1611H15.631L15.8283 28.3527C15.8283 28.3527 15.6725 28.504 15.6545 28.5215C15.6719 28.5376 15.7993 28.6556 15.8151 28.6702V28.6702Z" fill="#00843D"/>
<path d="M15.2365 28.6702C15.2198 28.654 15.0324 28.4722 15.0324 28.4722C15.0324 28.4722 14.8451 28.654 14.8285 28.6702C14.8127 28.6556 14.6853 28.5376 14.6679 28.5215C14.6859 28.504 14.8418 28.3527 14.8418 28.3527L14.6444 28.1611H14.9013L15.0324 28.2884L15.1636 28.1611H15.4205L15.2232 28.3527C15.2232 28.3527 15.379 28.504 15.397 28.5215C15.3796 28.5376 15.2522 28.6556 15.2365 28.6702V28.6702Z" fill="#00843D"/>
<path d="M13.3625 27.5827V28.1611H18.6758V27.5827H19.4619V24.0736H18.6758V23.4952H13.3625V24.0736H12.5764V27.5827H13.3625Z" fill="#383739"/>
<path d="M13.3909 23.5216V24.0989H12.6047V27.5555H13.3909V28.1327H18.6488V27.5555H19.4351V24.0989H18.6488V23.5216H13.3909L13.3909 23.5216ZM13.7293 23.7439H18.3105V24.3012L18.4996 24.4406H19.2128V27.2172H18.4963L18.3105 27.3532V27.9137H13.7293V27.3564L13.5402 27.2172H12.8237V24.4406H13.5369L13.7293 24.3012V23.7439H13.7293Z" fill="#FFC72C"/>
<path d="M13.7558 23.7704V24.2813L14.4458 23.7704H13.7558ZM17.5906 23.7704L18.2806 24.2813V23.7704H17.5906ZM12.8535 24.4671V24.9448L13.5037 24.4671H12.8536H12.8535ZM18.5328 24.4671L19.1863 24.9481V24.4671H18.5328ZM19.1863 26.7062L18.5328 27.1905H19.1863V26.7062ZM12.8535 26.7095V27.1905H13.5037L12.8535 26.7095ZM13.7558 27.3763V27.8838H14.4425L13.7558 27.3763ZM18.2806 27.3763L17.594 27.8838H18.2806V27.3763Z" fill="#D22630"/>
<path d="M17.546 23.7709C17.5531 23.7761 19.1754 24.9743 19.1862 24.9823V26.6739C19.1754 26.6819 17.5531 27.8801 17.546 27.8853H14.4922C14.4851 27.8801 12.8628 26.6819 12.8521 26.6739V24.9823C12.8628 24.9743 14.4851 23.7761 14.4922 23.7709H17.546Z" fill="#00843D"/>
<path d="M13.2426 26.8688L13.0541 26.6499L13.2311 26.4445L13.0541 26.2391L13.2311 26.0337L13.0541 25.8282L13.2311 25.6228L13.0541 25.4173L13.2311 25.2119L13.0541 25.0065L13.2426 24.7876H18.7956L18.9841 25.0065L18.8071 25.2119L18.9841 25.4173L18.8071 25.6228L18.9841 25.8282L18.8071 26.0337L18.9841 26.2391L18.8071 26.4445L18.9841 26.6499L18.7956 26.8688H13.2426ZM17.0597 24.0356L16.8409 23.847L16.6354 24.0241L16.43 23.847L16.2245 24.0241L16.0191 23.847L15.8136 24.0241L15.6082 23.847L15.4028 24.0241L15.1974 23.847L14.9785 24.0356V27.6208L15.1974 27.8094L15.4028 27.6324L15.6082 27.8094L15.8136 27.6323L16.0191 27.8094L16.2245 27.6323L16.43 27.8094L16.6354 27.6324L16.8409 27.8094L17.0597 27.6208V24.0356Z" fill="#383739"/>
<path d="M16.6219 24.048L16.4299 23.8825L16.2379 24.048V27.6085L16.4299 27.7739L16.6219 27.6085V24.048Z" fill="#FFC72C"/>
<path d="M15.8003 24.048L15.6082 23.8825L15.4163 24.048V27.6085L15.6082 27.7739L15.8003 27.6085V24.048Z" fill="#FFC72C"/>
<path d="M13.2549 26.8421L13.0895 26.6501L13.2549 26.4581H18.7832L18.9487 26.6501L18.7832 26.8421H13.2549Z" fill="#FFC72C"/>
<path d="M18.7833 25.6362L18.9488 25.8283L18.7833 26.0202H13.2551L13.0896 25.8283L13.2551 25.6362H18.7833Z" fill="#FFC72C"/>
<path d="M18.7832 25.1985L18.9487 25.0064L18.7832 24.8145H13.2549L13.0895 25.0064L13.2549 25.1985H18.7832Z" fill="#FFC72C"/>
<path d="M17.0329 24.048L16.841 23.8825L16.6489 24.048V27.6085L16.841 27.7739L17.0329 27.6086L17.0329 24.048Z" fill="#D22630"/>
<path d="M15.3894 24.048L15.1974 23.8825L15.0054 24.048V27.6085L15.1974 27.7739L15.3894 27.6085V24.048Z" fill="#D22630"/>
<path d="M13.2551 26.431L13.0896 26.239L13.2551 26.047H18.7833L18.9488 26.239L18.7833 26.431H13.2551Z" fill="#D22630"/>
<path d="M13.2551 25.6094L13.0896 25.4174L13.2551 25.2253H18.7833L18.9488 25.4174L18.7833 25.6094H13.2551Z" fill="#D22630"/>
<path d="M16.2112 27.6085L16.0192 27.7739L15.8271 27.6085V24.048L16.0192 23.8825L16.2112 24.048V27.6085Z" fill="#D22630"/>
<path d="M17.8751 24.1174H14.1498V24.4133H13.6737V27.2432H14.1498V27.5391H17.8885V27.2432H18.3646V24.4133H17.8885V24.1174H17.8751Z" fill="#383739"/>
<path d="M14.1772 24.1453V24.4406H13.6995V27.2171H14.1772V27.5124H14.5686L13.789 26.8589V24.7987L14.5686 24.1453H14.1772V24.1453ZM17.4713 24.1453L18.2475 24.7987V26.8589L17.4713 27.5124H17.8627V27.2171H18.3371V24.4406H17.8627V24.1453H17.4713V24.1453Z" fill="#D22630"/>
<path d="M14.6117 24.1453C14.6043 24.1515 13.825 24.8042 13.8156 24.812V26.8455C13.825 26.8535 14.6043 27.5061 14.6117 27.5123H17.4281C17.4355 27.5061 18.2115 26.8534 18.2209 26.8455V24.812C18.2115 24.8042 17.4355 24.1515 17.4281 24.1453H14.6117ZM14.6515 24.2581H17.385L18.1081 24.8651V26.7925L17.385 27.3962H14.6515L13.9317 26.7925V24.8651L14.6515 24.2581Z" fill="#00843D"/>
<path d="M15.3754 26.8229L15.4978 26.8758L15.5203 27.0187L15.3663 27.1542L15.59 27.3706H15.3747L15.2208 27.2224L15.0668 27.3706H14.8516L15.0753 27.1542L14.9213 27.0187L14.9438 26.8758L15.0661 26.8229L15.2208 26.9466L15.2292 26.9399L15.3754 26.8229Z" fill="#00843D"/>
<path d="M16.1739 26.8229L16.2963 26.8758L16.3188 27.0187L16.1648 27.1542L16.3885 27.3706H16.1732L16.0193 27.2224L15.8653 27.3706H15.65L15.8738 27.1542L15.7198 27.0187L15.7423 26.8758L15.8646 26.8229L16.0193 26.9466L16.0277 26.9399L16.1739 26.8229Z" fill="#00843D"/>
<path d="M16.6629 26.8229L16.5406 26.8758L16.5181 27.0187L16.6721 27.1542L16.4484 27.3706H16.6637L16.8176 27.2224L16.9715 27.3706H17.1868L16.9631 27.1542L17.1171 27.0187L17.0946 26.8758L16.9722 26.8229L16.8176 26.9466L16.8092 26.9399L16.6629 26.8229Z" fill="#00843D"/>
<path d="M15.3754 24.8335L15.4978 24.7806L15.5203 24.6377L15.3663 24.5022L15.59 24.2859H15.3747L15.2208 24.434L15.0668 24.2859H14.8516L15.0753 24.5022L14.9213 24.6377L14.9438 24.7806L15.0661 24.8335L15.2208 24.7098L15.2292 24.7165L15.3754 24.8335Z" fill="#00843D"/>
<path d="M16.1739 24.8335L16.2963 24.7806L16.3188 24.6377L16.1648 24.5022L16.3885 24.2859H16.1732L16.0193 24.434L15.8653 24.2859H15.65L15.8738 24.5022L15.7198 24.6377L15.7423 24.7806L15.8646 24.8335L16.0193 24.7098L16.0277 24.7165L16.1739 24.8335Z" fill="#00843D"/>
<path d="M16.6629 24.8335L16.5406 24.7806L16.5181 24.6377L16.6721 24.5022L16.4484 24.2859H16.6637L16.8176 24.434L16.9715 24.2859H17.1868L16.9631 24.5022L17.1171 24.6377L17.0946 24.7806L16.9722 24.8335L16.8176 24.7098L16.8092 24.7165L16.6629 24.8335Z" fill="#00843D"/>
<path d="M18.0799 25.0617L17.9578 25.1628L18.0799 25.2639V25.4316L17.8921 25.2768C17.8921 25.2768 17.7658 25.3912 17.7573 25.3989C17.7465 25.3975 17.6248 25.3822 17.6128 25.3807C17.6074 25.3709 17.5694 25.3008 17.5619 25.2868C17.5745 25.2742 17.6863 25.1628 17.6863 25.1628C17.6863 25.1628 17.5745 25.0514 17.5619 25.0388C17.5694 25.0248 17.6074 24.9547 17.6128 24.9449C17.6248 24.9434 17.7465 24.928 17.7573 24.9267C17.7658 24.9344 17.8921 25.0489 17.8921 25.0489L18.0799 24.8941V25.0617Z" fill="#00843D"/>
<path d="M18.0799 25.727L17.9578 25.8282L18.0799 25.9292V26.0969L17.8921 25.9421C17.8921 25.9421 17.7658 26.0565 17.7573 26.0642C17.7465 26.0629 17.6248 26.0476 17.6128 26.0461C17.6074 26.0362 17.5694 25.9661 17.5619 25.9521C17.5745 25.9396 17.6863 25.8282 17.6863 25.8282C17.6863 25.8282 17.5745 25.7167 17.5619 25.7041C17.5694 25.6901 17.6074 25.6201 17.6128 25.6102C17.6248 25.6087 17.7465 25.5934 17.7573 25.592C17.7658 25.5997 17.8921 25.7142 17.8921 25.7142L18.0799 25.5594V25.727Z" fill="#00843D"/>
<path d="M18.0799 26.5948L17.9578 26.4936L18.0799 26.3926V26.2249L17.8921 26.3797C17.8921 26.3797 17.7658 26.2652 17.7573 26.2575C17.7465 26.2589 17.6248 26.2742 17.6128 26.2757C17.6074 26.2856 17.5694 26.3557 17.5619 26.3696C17.5745 26.3822 17.6863 26.4936 17.6863 26.4936C17.6863 26.4936 17.5745 26.6051 17.5619 26.6176C17.5694 26.6316 17.6074 26.7017 17.6128 26.7116C17.6248 26.7131 17.7465 26.7284 17.7573 26.7297C17.7658 26.722 17.8921 26.6076 17.8921 26.6076L18.0799 26.7624V26.5948Z" fill="#00843D"/>
<path d="M13.9586 25.0617L14.0807 25.1628L13.9586 25.2639V25.4316L14.1464 25.2768C14.1464 25.2768 14.2727 25.3912 14.2812 25.3989C14.292 25.3975 14.4137 25.3822 14.4258 25.3807C14.4311 25.3709 14.4691 25.3008 14.4767 25.2868C14.4641 25.2742 14.3523 25.1628 14.3523 25.1628C14.3523 25.1628 14.4641 25.0514 14.4767 25.0388C14.4691 25.0248 14.4311 24.9547 14.4258 24.9449C14.4137 24.9434 14.292 24.928 14.2812 24.9267C14.2727 24.9344 14.1464 25.0489 14.1464 25.0489L13.9586 24.8941V25.0617Z" fill="#00843D"/>
<path d="M13.9586 25.727L14.0807 25.8282L13.9586 25.9292V26.0969L14.1464 25.9421C14.1464 25.9421 14.2727 26.0565 14.2812 26.0642C14.292 26.0629 14.4137 26.0476 14.4258 26.0461C14.4311 26.0362 14.4691 25.9661 14.4767 25.9521C14.4641 25.9396 14.3523 25.8282 14.3523 25.8282C14.3523 25.8282 14.4641 25.7167 14.4767 25.7041C14.4691 25.6901 14.4311 25.6201 14.4258 25.6102C14.4137 25.6087 14.292 25.5934 14.2812 25.592C14.2727 25.5997 14.1464 25.7142 14.1464 25.7142L13.9586 25.5594V25.727Z" fill="#00843D"/>
<path d="M13.9586 26.5948L14.0807 26.4936L13.9586 26.3926V26.2249L14.1464 26.3797C14.1464 26.3797 14.2727 26.2652 14.2812 26.2575C14.292 26.2589 14.4137 26.2742 14.4258 26.2757C14.4311 26.2856 14.4691 26.3557 14.4767 26.3696C14.4641 26.3822 14.3523 26.4936 14.3523 26.4936C14.3523 26.4936 14.4641 26.6051 14.4767 26.6176C14.4691 26.6316 14.4311 26.7017 14.4258 26.7116C14.4137 26.7131 14.292 26.7284 14.2812 26.7297C14.2727 26.722 14.1464 26.6076 14.1464 26.6076L13.9586 26.7624V26.5948Z" fill="#00843D"/>
<path d="M14.6615 24.2846C14.6543 24.2906 13.9975 24.8405 13.9682 24.8651C14.0274 24.9142 14.0847 24.9655 14.144 25.0144C14.159 25.0008 14.2734 24.8982 14.2734 24.8982L14.4426 24.9215L14.5089 25.0442C14.5089 25.0442 14.4057 25.1475 14.3895 25.1636C14.4057 25.1798 14.5089 25.2831 14.5089 25.2831L14.4426 25.4058L14.2734 25.4257C14.2734 25.4257 14.1591 25.3265 14.144 25.3129L13.9583 25.4688V25.5219C14.0207 25.5736 14.0813 25.6261 14.144 25.6778C14.1591 25.6642 14.2734 25.565 14.2734 25.565L14.4426 25.5849L14.5089 25.7077C14.5089 25.7077 14.4057 25.8109 14.3895 25.8271C14.4057 25.8432 14.5089 25.9465 14.5089 25.9465L14.4426 26.0726L14.2734 26.0925C14.2734 26.0925 14.1591 25.99 14.144 25.9764L13.9583 26.1323V26.1887L14.144 26.3446C14.1591 26.331 14.2734 26.2285 14.2734 26.2285L14.4426 26.2517L14.5089 26.3744C14.5089 26.3744 14.4057 26.4777 14.3895 26.4939C14.4057 26.51 14.5089 26.6133 14.5089 26.6133L14.4426 26.736L14.2734 26.7593C14.2734 26.7593 14.1591 26.6568 14.144 26.6432C14.0849 26.6918 14.0272 26.7405 13.9682 26.7891C13.9975 26.8137 14.6543 27.3635 14.6615 27.3696H14.8141L15.0364 27.154L14.8937 27.028L14.9203 26.8555L15.0695 26.7924L15.2221 26.9119L15.3714 26.7924L15.5207 26.8555L15.5506 27.028L15.4046 27.154L15.6202 27.3597L15.8358 27.154L15.6899 27.028L15.7164 26.8555L15.869 26.7924L16.0183 26.9119L16.1709 26.7924L16.3202 26.8555L16.3467 27.028L16.2041 27.154L16.4164 27.363L16.632 27.154L16.4894 27.028L16.5159 26.8555L16.6685 26.7924L16.8178 26.9119L16.967 26.7924L17.1196 26.8555L17.1462 27.028L17.0035 27.154L17.2258 27.3696H17.3751C17.3823 27.3635 18.0391 26.8137 18.0684 26.7891C18.0093 26.7404 17.9518 26.6919 17.8926 26.6432C17.8775 26.6568 17.7665 26.7593 17.7665 26.7593L17.5973 26.736L17.5277 26.6133C17.5277 26.6133 17.6309 26.51 17.6471 26.4939C17.6309 26.4777 17.5277 26.3744 17.5277 26.3744L17.5973 26.2517L17.7665 26.2285C17.7665 26.2285 17.8775 26.331 17.8926 26.3446L18.0783 26.1887V26.1323L17.8926 25.9764C17.8775 25.99 17.7665 26.0925 17.7665 26.0925L17.5973 26.0726L17.5277 25.9465C17.5277 25.9465 17.6309 25.8432 17.6471 25.8271C17.6309 25.8109 17.5277 25.7077 17.5277 25.7077L17.5973 25.5849L17.7665 25.565C17.7665 25.565 17.8775 25.6642 17.8926 25.6778C17.9549 25.6265 18.0162 25.5763 18.0783 25.5252V25.4655L17.8926 25.3129C17.8775 25.3265 17.7665 25.4257 17.7665 25.4257L17.5973 25.4058L17.5277 25.2831C17.5277 25.2831 17.6309 25.1798 17.6471 25.1636C17.6309 25.1475 17.5277 25.0442 17.5277 25.0442L17.5973 24.9215L17.7665 24.8982C17.7665 24.8982 17.8775 25.0008 17.8926 25.0144C17.952 24.9654 18.0123 24.9174 18.0717 24.8684C18.0489 24.8492 17.3824 24.2906 17.3751 24.2845H17.2258L17.0035 24.5002L17.1462 24.6262L17.1196 24.7987L16.967 24.8651L16.8178 24.7457L16.6685 24.8651L16.5159 24.7987L16.4894 24.6262L16.632 24.5002L16.4197 24.2945L16.2041 24.5002L16.3467 24.6262L16.3202 24.7987L16.1709 24.8651L16.0183 24.7457L15.869 24.8651L15.7164 24.7987L15.6899 24.6262L15.8358 24.5002L15.6202 24.2945L15.4046 24.5002L15.5506 24.6262L15.5207 24.7987L15.3714 24.8651L15.2221 24.7457L15.0695 24.8651L14.9203 24.7987L14.8937 24.6262L15.0364 24.5002L14.8108 24.2845L14.6615 24.2846ZM13.9583 25.7608V25.8968L14.0379 25.8271L13.9583 25.7608Z" fill="#D22630"/>
<path d="M15.2221 27.2602L15.106 27.3696H15.3348L15.2221 27.2602Z" fill="white"/>
<path d="M16.0183 27.2602L15.9055 27.3696H16.1344L16.0183 27.2602Z" fill="white"/>
<path d="M16.8177 27.2602L16.7017 27.3696H16.9338L16.8177 27.2602Z" fill="white"/>
<path d="M15.1027 24.2847L15.2221 24.3974L15.3382 24.2847H15.1027Z" fill="white"/>
<path d="M15.9022 24.2847L16.0184 24.3974L16.1378 24.2847H15.9022Z" fill="white"/>
<path d="M16.7017 24.2847L16.8177 24.3974L16.9338 24.2847H16.7017Z" fill="white"/>
<path d="M18.0783 25.0974L17.9987 25.1638L18.0783 25.2268V25.0974Z" fill="white"/>
<path d="M18.0783 25.7608L17.9987 25.8271L18.0783 25.8935V25.7608Z" fill="white"/>
<path d="M18.0783 26.4275L17.9987 26.4938L18.0783 26.5602V26.4275Z" fill="white"/>
<path d="M13.9583 25.0941V25.2301L14.0379 25.1638L13.9583 25.0941Z" fill="white"/>
<path d="M13.9583 25.7608V25.8968L14.0379 25.8271L13.9583 25.7608Z" fill="white"/>
<path d="M13.9583 26.4243V26.5602L14.0379 26.4939L13.9583 26.4243Z" fill="white"/>
<path d="M16.702 25.6059V25.3684H16.4617V25.1081H15.5766V25.3684H15.3363V25.6059H15.0044V26.0504H15.3363V26.2878H15.5766V26.5482H16.4617V26.2878H16.702V26.0504H17.0339V25.6059H16.702Z" fill="#383739"/>
<path d="M16.0057 25.135V25.4034L15.6253 25.6196V25.8148H15.0312V25.6328H15.3631V25.3954H15.6034V25.135H16.0057Z" fill="#FFC72C"/>
<path d="M16.0326 26.5216V26.2532L16.413 26.0369V25.8418H17.007V26.0238H16.6752V26.2612H16.4349V26.5216H16.0326Z" fill="#FFC72C"/>
<path d="M16.413 25.8148V25.6196L16.0326 25.4034V25.135H16.4349V25.3954H16.6752V25.6328H17.007V25.8148H16.413Z" fill="white"/>
<path d="M15.0312 25.8418H15.6253V26.0369L16.0057 26.2532V26.5216H15.6034V26.2612H15.3631V26.0238H15.0312V25.8418Z" fill="white"/>
<path d="M15.6521 25.8418V26.0227L16.0057 26.2237V25.8418H15.6521Z" fill="#D22630"/>
<path d="M16.0057 25.433L15.6521 25.634V25.8149H16.0057V25.433Z" fill="#00843D"/>
<path d="M16.3862 25.8149V25.634L16.0326 25.433V25.8149H16.3862Z" fill="#D22630"/>
<path d="M16.0326 26.2236L16.3862 26.0226V25.8417H16.0326V26.2236Z" fill="#00843D"/>
<path d="M12.8031 30.5458V31.2796H12.1038V31.9452H11.395V33.8403H12.1038V34.5059H12.8031V35.2397H15.3458L15.7929 35.5084L15.578 35.6375H14.6714L14.5932 35.5493H15.4148L15.1833 35.3162H14.008L14.5405 35.8706H15.6427L16.0192 35.6444L16.3957 35.8706H17.4979L18.0304 35.3162H16.8551L16.6236 35.5493H17.4453L17.3671 35.6375H16.4604L16.2455 35.5084L16.6927 35.2397H19.2353V34.5059H19.9346V33.8403H20.6434V31.9452H19.9346V31.2796H19.2353V30.5458H16.6927L16.2455 30.2771L16.4604 30.148H17.3671L17.4453 30.2362H16.6236L16.8551 30.4693H18.0304L17.4979 29.9149H16.3957L16.0192 30.1411L15.6427 29.9149H14.5405L14.008 30.4693H15.1833L15.4148 30.2362H14.5932L14.6714 30.148H15.578L15.7929 30.2771L15.3458 30.5458H12.8031Z" fill="#D22630"/>
<path d="M16.685 35.2118H19.2094V34.4786H19.9061V33.8118H20.616V31.9707H19.9061V31.3073H19.2094V30.5742H16.685L15.6367 29.9406H14.5519L14.0709 30.4415H15.1723L15.3514 30.2623H14.532L14.6581 30.1197H15.5869L16.7745 30.8362H18.944V31.5693H19.644V32.2361H20.3539V33.5498H19.644V34.2166H18.944V34.9497H16.7745L15.5869 35.6629H14.6581L14.532 35.5236H15.3514L15.1723 35.3444H14.0709L14.5519 35.8454H15.6367L16.685 35.2118ZM15.2618 34.9497H13.0923V34.2166H12.3957V33.5498H11.6858V32.2361H12.3957V31.5693H13.0923V30.8362H15.2618L16.4528 30.1197H17.3783L17.5044 30.2623H16.6883L16.8674 30.4415H17.9688L17.4878 29.9406H16.403L15.3547 30.5742H12.8303V31.3073H12.1303V31.9707H11.4204V33.8118H12.1303V34.4786H12.8303V35.2118H15.3547L16.403 35.8454H17.4878L17.9688 35.3444H16.8674L16.6883 35.5236H17.5044L17.3783 35.6629H16.4528L15.2618 34.9497Z" fill="#FFC72C"/>
<path d="M18.7338 34.0045V34.7383H16.7171L16.0191 35.1577L15.3211 34.7383H13.3044V34.0045H12.6051V33.3389H11.8964V32.4467H12.6051V31.781H13.3044V31.0472H15.3174H15.3211L16.0191 30.6279L16.7171 31.0472H18.7338V31.781H19.4331V32.4467H20.1418V33.3389H19.4331V34.0045H18.7338Z" fill="#00843D"/>
<path d="M13.5685 33.7474V34.4576H14.677L13.5685 33.7224V33.7474Z" fill="#383739"/>
<path d="M13.5685 32.038V31.3278H14.677L13.5685 32.063V32.038Z" fill="#383739"/>
<path d="M18.4698 33.7474V34.4576H17.3612L18.4698 33.7224V33.7474Z" fill="#383739"/>
<path d="M18.4698 32.038V31.3278H17.3612L18.4698 32.063V32.038Z" fill="#383739"/>
<path d="M13.5953 33.7723L14.588 34.4308H13.5953V33.7723Z" fill="#D22630"/>
<path d="M13.5953 32.0131C13.6339 31.9875 14.5204 31.3996 14.588 31.3547H13.5953V32.0131Z" fill="#D22630"/>
<path d="M18.443 33.7723C18.4044 33.798 17.5179 34.3859 17.4503 34.4308H18.443V33.7723Z" fill="#D22630"/>
<path d="M18.443 32.0131C18.4044 31.9876 17.5179 31.3996 17.4503 31.3547H18.443V32.0131Z" fill="#D22630"/>
<path d="M14.9825 32.698V32.3353H14.8588L14.2652 31.9642L14.2581 31.9686L13.6718 32.3353H13.5481V32.698H13.269V33.0875H13.5481V33.4502H13.6718L14.2652 33.8213L14.8588 33.4502H14.9825V33.0875H15.4072V32.698H14.9825Z" fill="#383739"/>
<path d="M14.2652 31.9959L14.8081 32.3353H13.7224L14.2652 31.9959ZM14.8081 33.4502L14.2652 33.7896L13.7225 33.4502H14.8081Z" fill="#D22630"/>
<path d="M14.6766 32.7247V33.0606H13.9996V32.7247H14.6766Z" fill="#D22630"/>
<path d="M14.9557 33.0875V33.4233H14.2787V33.0875H14.9557Z" fill="#FFC72C"/>
<path d="M14.2519 33.0875V33.4233H13.575V33.0875H14.2519Z" fill="#FFC72C"/>
<path d="M15.3805 32.7248V33.0607H14.7035V32.7248H15.3805Z" fill="#FFC72C"/>
<path d="M13.9729 32.7248V33.0607H13.2959V32.7248H13.9729Z" fill="#FFC72C"/>
<path d="M14.9557 32.3621V32.6979H14.2787V32.3621H14.9557Z" fill="#FFC72C"/>
<path d="M14.2519 32.3621V32.6979H13.575V32.3621H14.2519Z" fill="#FFC72C"/>
<path d="M13.7865 32.7994V32.9861H13.4824V32.7994H13.7865Z" fill="#383739"/>
<path d="M14.0656 32.4367V32.6233H13.7615V32.4367H14.0656Z" fill="#383739"/>
<path d="M14.7693 32.4367V32.6233H14.4652V32.4367H14.7693Z" fill="#383739"/>
<path d="M14.4902 32.7994V32.9861H14.1862V32.7994H14.4902Z" fill="#383739"/>
<path d="M15.194 32.7994V32.9861H14.8899V32.7994H15.194Z" fill="#383739"/>
<path d="M14.7693 33.1621V33.3487H14.4652V33.1621H14.7693Z" fill="#383739"/>
<path d="M14.0656 33.1621V33.3487H13.7615V33.1621H14.0656Z" fill="#383739"/>
<path d="M13.7578 32.828H13.511V32.9573H13.7578V32.828Z" fill="white"/>
<path d="M14.0369 32.4653H13.79V32.5946H14.0369V32.4653Z" fill="white"/>
<path d="M14.7406 32.4653H14.4938V32.5946H14.7406V32.4653Z" fill="white"/>
<path d="M14.4615 32.828H14.2147V32.9573H14.4615V32.828Z" fill="white"/>
<path d="M15.1654 32.828H14.9186V32.9573H15.1654V32.828Z" fill="white"/>
<path d="M14.7406 33.1907H14.4938V33.32H14.7406V33.1907Z" fill="white"/>
<path d="M14.0369 33.1907H13.79V33.32H14.0369V33.1907Z" fill="white"/>
<path d="M16.7364 32.0922V32.4549H16.6127L16.0191 32.826L16.012 32.8215L15.4257 32.4549H15.302V32.0922H14.9501V31.7027H15.302V31.34H15.4257L16.0191 30.9689L16.6127 31.34H16.7364V31.7027H17.0882V32.0922H16.7364Z" fill="#383739"/>
<path d="M16.0193 32.7941L16.5621 32.4547H15.4764L16.0193 32.7941ZM16.5621 31.3398L16.0193 31.0004L15.4765 31.3398H16.5621Z" fill="#FFC72C"/>
<path d="M16.7096 31.7026V31.3668H16.0326V31.7026H16.7096Z" fill="#D22630"/>
<path d="M16.0058 31.7026V31.3668H15.3289V31.7026H16.0058Z" fill="#D22630"/>
<path d="M17.0614 32.0652V31.7294H16.3844V32.0652H17.0614Z" fill="#D22630"/>
<path d="M16.3576 32.0652V31.7294H15.6807V32.0652H16.3576Z" fill="#D22630"/>
<path d="M15.6539 32.0652V31.7294H14.9769V32.0652H15.6539Z" fill="#D22630"/>
<path d="M16.7096 32.4279V32.092H16.0326V32.4279H16.7096Z" fill="#D22630"/>
<path d="M16.0058 32.4279V32.092H15.3289V32.4279H16.0058Z" fill="#D22630"/>
<path d="M15.8193 31.4414V31.628H15.5153V31.4414H15.8193Z" fill="#383739"/>
<path d="M16.5231 31.4414V31.628H16.219V31.4414H16.5231Z" fill="#383739"/>
<path d="M15.4674 31.8041V31.9908H15.1633V31.8041H15.4674Z" fill="#383739"/>
<path d="M16.1713 31.8041V31.9908H15.8672V31.8041H16.1713Z" fill="#383739"/>
<path d="M16.8751 31.8041V31.9908H16.571V31.8041H16.8751Z" fill="#383739"/>
<path d="M15.8193 32.1668V32.3534H15.5153V32.1668H15.8193Z" fill="#383739"/>
<path d="M16.5231 32.1668V32.3534H16.219V32.1668H16.5231Z" fill="#383739"/>
<path d="M15.7908 31.47H15.5439V31.5993H15.7908V31.47Z" fill="white"/>
<path d="M16.4945 31.47H16.2477V31.5993H16.4945V31.47Z" fill="white"/>
<path d="M15.4388 31.8327H15.192V31.962H15.4388V31.8327Z" fill="white"/>
<path d="M16.1427 31.8327H15.8959V31.962H16.1427V31.8327Z" fill="white"/>
<path d="M16.8464 31.8327H16.5996V31.962H16.8464V31.8327Z" fill="white"/>
<path d="M15.7908 32.1954H15.5439V32.3247H15.7908V32.1954Z" fill="white"/>
<path d="M16.4945 32.1954H16.2477V32.3247H16.4945V32.1954Z" fill="white"/>
<path d="M12.1786 38.4138L14.8123 36.9963H14.8157H17.226L19.8598 38.4138V40.7493L17.226 42.1666H14.8123L12.1786 40.7493V38.4138Z" fill="#383739"/>
<path d="M14.8207 37.0231L12.2067 38.4296V40.7318L14.8207 42.1383H17.2191L19.8332 40.7318V38.4296L17.2191 37.0231H14.8207ZM14.8671 37.2121H17.1727L19.6474 38.5423V40.6223L17.1727 41.9525H14.8657L12.391 40.6223V38.5423L14.8671 37.2121Z" fill="#00843D"/>
<path d="M16.0326 39.5679V41.9254H17.1659L19.6199 40.6047V39.5948L16.0057 39.5948V37.2374H14.8724L12.4183 38.558V39.5679L16.0326 39.5679Z" fill="#FFC72C"/>
<path d="M16.0057 39.5679V41.9254H14.8724L12.4183 40.6047V39.5948L16.0326 39.5948V37.2374H17.1659L19.6199 38.558V39.5679L16.0057 39.5679Z" fill="white"/>
<path d="M16.2394 41.7935V41.1121L16.0191 41.2519L15.7988 41.1121V41.7935H15.1135L15.5759 41.4544V40.9707L14.8707 40.5233H14.3779V38.6398H14.8707L15.5759 38.1923V37.7087L15.1135 37.3696H15.1545H15.7988V38.051L16.0191 37.9112L16.2394 38.051V37.3696H16.9247L16.4623 37.7087V38.1923L17.1675 38.6398H17.6602V40.5233H17.1675L16.4623 40.9707V41.4544L16.9247 41.7935H16.2394Z" fill="#383739"/>
<path d="M16.267 37.3978V38.101L16.0315 37.9518V38.1508L17.1096 38.8374H17.4646V39.5673H17.6338V38.665H17.1594L16.4363 38.2072V37.6963L16.8442 37.3978H16.267H16.267ZM14.406 39.5939V40.4962H14.8771L15.6036 40.9572V41.4681L15.1955 41.7666H15.7728V41.0634L16.0049 41.2127V41.007L14.9268 40.327H14.5752V39.5939H14.406L14.406 39.5939Z" fill="#FFC72C"/>
<path d="M15.1955 37.3978L15.6036 37.6963V38.2072L14.8771 38.665H14.406V39.5673H14.5752V38.8374H14.9268L16.0049 38.1541V37.9518L15.7728 38.101V37.3978H15.1955L15.1955 37.3978ZM17.4646 39.5939V40.327H17.1096L16.0315 41.007V41.2127L16.267 41.0634V41.7666H16.8442L16.4362 41.4681V40.9572L17.1594 40.4962H17.6338V39.5939H17.4646L17.4646 39.5939Z" fill="white"/>
<path d="M14.6008 40.2991H14.9351L16.0191 40.9869L17.1031 40.2991H17.4374V38.8639H17.107H17.1031L16.0191 38.1761L14.9351 38.8639H14.6008V40.2991Z" fill="#D22630"/>
<path d="M16.7694 39.9224H17.0008V39.8129H16.8267V39.6139H17.1988V40.1215H16.8421L16.8421 40.4679H16.1078V39.9702H16.431V40.1693H16.3058V40.2688H16.6441V40.0785L15.2687 39.2404H15.0372V39.3498H15.2114V39.5489H14.8392V39.0413H15.196V38.6949H15.2094H15.9302V39.1926H15.6071V38.9935H15.7322V38.894H15.394V39.0843L16.7694 39.9224ZM16.6441 39.0843V38.894H16.3058V38.9935H16.431V39.1926H16.1078V38.6949H16.8421V39.0413H17.1988V39.5489H16.8267V39.3498H17.0009V39.2404H16.7694L15.394 40.0785V40.2688H15.7322V40.1693H15.6071V39.9702H15.9302V40.4679H15.196V40.1215H14.8392V39.6139H15.2114V39.8129H15.0372V39.9224H15.2687L16.6441 39.0843Z" fill="#383739"/>
<path d="M16.6711 40.0635V40.2957H16.279V40.1425H16.4043V39.9971H16.1347V40.441H16.8154V40.0947H17.1721V39.6408H16.8537V39.7861H17.0278V39.9493H16.762L15.3672 39.0994V38.8672H15.7592V39.0204H15.6341V39.1658H15.9035V38.7218H15.2229V39.0681H14.8662V39.5221H15.1846V39.3767H15.0105V39.2135H15.2763L16.6711 40.0635ZM16.762 39.2135H17.0278V39.3767H16.8537V39.5221H17.1721V39.0681H16.8154V38.7218H16.1348V39.1658H16.4043V39.0204H16.2791V38.8672H16.6711V39.0994L15.2763 39.9493H15.0105V39.7861H15.1846V39.6407H14.8662V40.0947H15.2229V40.441H15.9035V39.9971H15.6341V40.1425H15.7592V40.2956H15.3672V40.0635L16.762 39.2135Z" fill="white"/>
<path d="M19.0908 39.6996V40.4362H18.7773V40.1761H18.4613V40.4362H18.1478V39.6996H18.4613V39.9597H18.7773V39.6996H19.0908Z" fill="#383739"/>
<path d="M17.9691 40.6776V41.4143H17.6556V41.1541H17.3396V41.4143H17.0261V40.6776H17.3396V40.9378H17.6556V40.6776H17.9691Z" fill="#383739"/>
<path d="M19.0908 39.4633V38.7267H18.7773V38.9868H18.4613V38.7267H18.1478V39.4633H18.4613V39.2032H18.7773V39.4633H19.0908Z" fill="#383739"/>
<path d="M12.9474 39.6996V40.4362H13.2609V40.1761H13.5769V40.4362H13.8903V39.6996H13.5769V39.9597H13.2609V39.6996H12.9474Z" fill="#383739"/>
<path d="M12.9474 39.4633V38.7267H13.2609V38.9868H13.5769V38.7267H13.8903V39.4633H13.5769V39.2032H13.2609V39.4633H12.9474Z" fill="#383739"/>
<path d="M17.9691 38.4854V37.7488H17.6556V38.0089H17.3396V37.7488H17.0261V38.4854H17.3396V38.2253H17.6556V38.4854H17.9691Z" fill="#383739"/>
<path d="M14.0692 40.6776V41.4143H14.3827V41.1541H14.6987V41.4143H15.0122V40.6776H14.6987V40.9378H14.3827V40.6776H14.0692Z" fill="#383739"/>
<path d="M14.0692 38.4854V37.7488H14.3827V38.0089H14.6987V37.7488H15.0122V38.4854H14.6987V38.2253H14.3827V38.4854H14.0692Z" fill="#383739"/>
<path d="M18.1561 37.9692V38.5287H19.1956L18.1561 37.9692Z" fill="#383739"/>
<path d="M13.8821 41.1938V40.6344H12.8427L13.8821 41.1938Z" fill="#383739"/>
<path d="M13.8821 37.9692V38.5287H12.8427L13.8821 37.9692Z" fill="#383739"/>
<path d="M18.1561 41.1938V40.6344H19.1956L18.1561 41.1938Z" fill="#383739"/>
<path d="M18.8043 40.1492V40.4094H19.0641V39.7264H18.8043V39.9866H18.4346V39.7264H18.1748V40.4094H18.4346V40.1492H18.8043Z" fill="#D22630"/>
<path d="M17.6825 41.1273V41.3874H17.9422V40.7045H17.6825V40.9646H17.3128V40.7045H17.053V41.3874H17.3128V41.1273H17.6825Z" fill="#D22630"/>
<path d="M18.8043 39.0138V38.7537H19.0641V39.4366H18.8043V39.1764H18.4346V39.4366H18.1748V38.7537H18.4346V39.0138H18.8043Z" fill="#D22630"/>
<path d="M13.2341 40.1492V40.4094H12.9744V39.7264H13.2341V39.9866H13.6038V39.7264H13.8636V40.4094H13.6038V40.1492H13.2341Z" fill="#D22630"/>
<path d="M13.2341 39.0138V38.7537H12.9744V39.4366H13.2341V39.1764H13.6038V39.4366H13.8636V38.7537H13.6038V39.0138H13.2341Z" fill="#D22630"/>
<path d="M17.6825 38.0358V37.7756H17.9422V38.4586H17.6825V38.1984H17.3128V38.4586H17.053V37.7756H17.3128V38.0358H17.6825Z" fill="#D22630"/>
<path d="M14.3558 41.1273V41.3874H14.0961V40.7045H14.3558V40.9646H14.7255V40.7045H14.9854V41.3874H14.7255V41.1273H14.3558Z" fill="#D22630"/>
<path d="M14.3558 38.0358V37.7756H14.0961V38.4586H14.3558V38.1984H14.7255V38.4586H14.9854V37.7756H14.7255V38.0358H14.3558Z" fill="#D22630"/>
<path d="M18.1844 38.0148V38.5024H19.0901L18.1844 38.0148ZM12.9498 40.662L13.8554 41.1497V40.662H12.9497H12.9498Z" fill="#FFC72C"/>
<path d="M13.8553 38.0148L12.9497 38.5024H13.8553V38.0148ZM18.1844 40.662V41.1497L19.0901 40.662H18.1844Z" fill="white"/>
<path d="M20.2717 41.6374C20.2217 41.8508 20.052 42.0118 20.0115 42.2332C19.9306 42.0024 19.856 41.8089 19.9117 41.5565C19.9516 41.3759 20.1035 41.2471 20.1211 41.0616C20.2867 41.2105 20.3223 41.4217 20.2717 41.6374V41.6374ZM20.3137 42.5315C20.1732 42.7241 19.978 42.8718 19.7623 42.9703C19.8048 42.8016 19.7251 42.6746 19.6367 42.5407C19.5302 42.3795 19.4782 42.2211 19.5651 42.0355C19.6056 42.132 19.6599 42.2121 19.7237 42.2946C19.8181 42.4234 19.8801 42.5379 19.8947 42.703C20.0038 42.6221 20.0518 42.5013 20.1101 42.3845C20.1991 42.2171 20.3426 42.0771 20.5075 41.9856C20.4637 42.1734 20.4299 42.3719 20.3137 42.5315V42.5315ZM19.5259 43.1055C19.5559 43.2125 19.5818 43.3185 19.576 43.4303C19.6688 43.3303 19.7921 43.2551 19.902 43.1745C20.0518 43.0534 20.2263 42.968 20.3488 42.8138C20.3305 43.0407 20.2334 43.2258 20.0489 43.3639C19.854 43.5098 19.6189 43.5882 19.4268 43.7414C19.4556 43.535 19.3797 43.3696 19.3151 43.1799C19.2612 42.9986 19.3133 42.8145 19.4363 42.6763C19.4345 42.8295 19.4828 42.961 19.5259 43.1055L19.5259 43.1055ZM19.0884 43.8028C19.048 43.9594 18.9358 44.0868 18.8591 44.2265C19.0657 44.1624 19.248 44.0503 19.4348 43.9449C19.6573 43.8238 19.8988 43.7467 20.1002 43.5867C20 43.9578 19.7516 44.1729 19.3882 44.2826C19.1397 44.3576 18.9303 44.3202 18.6289 44.442C18.6634 44.2379 18.7243 44.0177 18.8208 43.8336C18.8957 43.7005 18.9788 43.5693 19.025 43.4227C19.092 43.5431 19.1238 43.6656 19.0884 43.8028H19.0884ZM18.3281 44.3706C18.257 44.4925 18.1631 44.595 18.0466 44.6759C18.3399 44.6946 18.5759 44.5087 18.8619 44.5006C19.0385 44.4957 19.2062 44.5505 19.3863 44.5341C19.1725 44.6783 18.9488 44.8042 18.6885 44.8379C18.3502 44.8816 18.0383 44.7965 17.6651 44.8298C17.8395 44.7067 17.9267 44.542 18.0355 44.3648C18.177 44.1436 18.3106 43.9859 18.5859 43.9503C18.4754 44.0746 18.4111 44.2285 18.3281 44.3706V44.3706ZM17.2865 44.8574C17.8032 44.9452 18.2983 45.0589 18.826 45.0641C18.2353 45.2701 17.6788 45.3073 17.0929 45.0947C16.7763 44.9798 16.5336 44.9183 16.2944 44.9354C15.945 44.9605 15.5203 45.0984 15.0503 45.5941L14.8656 45.4462C15.5392 44.846 16.4206 44.7101 17.2864 44.8574L17.2865 44.8574Z" fill="#FFC72C"/>
</g>
</svg>
