<svg width="54" height="54" viewBox="0 0 54 54" fill="none" xmlns="http://www.w3.org/2000/svg">
<mask id="mask0_1_32477" style="mask-type:alpha" maskUnits="userSpaceOnUse" x="3" y="9" width="48" height="36">
<path d="M50.4307 35.8644C49.8332 40.5875 45.9585 43.9981 41.2139 44.3911C37.3588 44.7105 32.3804 45 27 45C21.6196 45 16.6412 44.7105 12.7861 44.3911C8.04151 43.9981 4.16681 40.5875 3.56934 35.8644C3.248 33.3241 3 30.296 3 27C3 23.704 3.248 20.6759 3.56934 18.1356C4.16682 13.4125 8.04151 10.0019 12.7861 9.60887C16.6412 9.28948 21.6196 9 27 9C32.3804 9 37.3588 9.28949 41.2139 9.60887C45.9585 10.0019 49.8332 13.4125 50.4307 18.1356C50.752 20.6759 51 23.704 51 27C51 30.296 50.752 33.3241 50.4307 35.8644Z" fill="#00D0BF"/>
</mask>
<g mask="url(#mask0_1_32477)">
<path d="M15 14L15.8981 16.7639L18.8042 16.7639L16.4531 18.4721L17.3511 21.2361L15 19.5279L12.6489 21.2361L13.5469 18.4721L11.1958 16.7639L14.1019 16.7639L15 14Z" fill="#2E50A6"/>
<path d="M39 32L39.8981 34.7639L42.8042 34.7639L40.4531 36.4721L41.3511 39.2361L39 37.5279L36.6489 39.2361L37.5469 36.4721L35.1958 34.7639L38.1019 34.7639L39 32Z" fill="#EE5757"/>
<rect x="51" y="45" width="24" height="36" transform="rotate(-180 51 45)" fill="#EE5757"/>
<rect x="27" y="45" width="24" height="18" transform="rotate(-180 27 45)" fill="#EE5757"/>
<rect x="27" y="27" width="24" height="18" transform="rotate(-180 27 27)" fill="#F5F5F5"/>
<rect x="12.8182" y="12" width="4.36364" height="12" fill="#EE5757"/>
<rect x="21" y="15.8181" width="4.36364" height="12" transform="rotate(90 21 15.8181)" fill="#EE5757"/>
</g>
</svg>
