<svg width="54" height="48" viewBox="0 0 54 48" fill="none" xmlns="http://www.w3.org/2000/svg">
<mask id="mask0_1_40135" style="mask-type:alpha" maskUnits="userSpaceOnUse" x="3" y="6" width="48" height="36">
<path d="M3.56934 15.1356C4.16681 10.4125 8.0415 7.00193 12.7861 6.60887C16.6412 6.28949 21.6196 6 27 6C32.3804 6 37.3588 6.28949 41.2139 6.60887C45.9585 7.00193 49.8332 10.4125 50.4307 15.1356C50.752 17.6759 51 20.704 51 24C51 27.296 50.752 30.3241 50.4307 32.8644C49.8332 37.5875 45.9585 40.9981 41.2139 41.3911C37.3588 41.7105 32.3804 42 27 42C21.6196 42 16.6412 41.7105 12.7861 41.3911C8.0415 40.9981 4.16681 37.5875 3.56934 32.8644C3.248 30.3241 3 27.296 3 24C3 20.704 3.248 17.6759 3.56934 15.1356Z" fill="#00D0BF"/>
</mask>
<g mask="url(#mask0_1_40135)">
<rect x="3" width="48" height="49" fill="#EE5757"/>
<circle cx="27" cy="24" r="12" fill="#F5F5F5"/>
<path d="M35.6649 18.9731C34.5582 17.0563 32.8501 15.5583 30.8053 14.7114C28.7606 13.8644 26.4935 13.7158 24.3557 14.2886C22.2178 14.8615 20.3288 16.1237 18.9814 17.8796C17.6341 19.6354 16.9038 21.7868 16.9038 24.0001C16.9038 26.2133 17.6341 28.3647 18.9814 30.1206C20.3288 31.8764 22.2178 33.1387 24.3557 33.7115C26.4935 34.2843 28.7606 34.1357 30.8053 33.2888C32.8501 32.4418 34.5582 30.9438 35.6649 29.0271C34.6234 30.3279 33.2035 31.2732 31.6016 31.7322C29.9996 32.1912 28.2947 32.1413 26.7223 31.5894C25.1499 31.0375 23.7878 30.0108 22.8242 28.6513C21.8605 27.2918 21.3429 25.6665 21.3429 24.0001C21.3429 22.3337 21.8605 20.7084 22.8242 19.3489C23.7878 17.9893 25.1499 16.9627 26.7223 16.4108C28.2947 15.8589 29.9996 15.809 31.6016 16.268C33.2035 16.727 34.6234 17.6722 35.6649 18.9731ZM36 24.0001L26.9514 21.0509L32.5816 28.759V19.2412L26.9514 26.9492L36 24.0001Z" fill="#EE5757"/>
</g>
</svg>
