<svg width="54" height="54" viewBox="0 0 54 54" fill="none" xmlns="http://www.w3.org/2000/svg">
<mask id="mask0_1_41602" style="mask-type:alpha" maskUnits="userSpaceOnUse" x="3" y="9" width="48" height="36">
<path d="M3.56934 18.1356C4.16681 13.4125 8.0415 10.0019 12.7861 9.60887C16.6412 9.28949 21.6196 9 27 9C32.3804 9 37.3588 9.28949 41.2139 9.60887C45.9585 10.0019 49.8332 13.4125 50.4307 18.1356C50.752 20.6759 51 23.704 51 27C51 30.296 50.752 33.3241 50.4307 35.8644C49.8332 40.5875 45.9585 43.9981 41.2139 44.3911C37.3588 44.7105 32.3804 45 27 45C21.6196 45 16.6412 44.7105 12.7861 44.3911C8.04151 43.9981 4.16681 40.5875 3.56934 35.8644C3.248 33.3241 3 30.296 3 27C3 23.704 3.248 20.6759 3.56934 18.1356Z" fill="#00D0BF"/>
</mask>
<g mask="url(#mask0_1_41602)">
<rect x="3" y="3" width="48" height="49" fill="#EE5757"/>
<path d="M27.6649 21.9731C26.5582 20.0563 24.8501 18.5583 22.8053 17.7114C20.7606 16.8644 18.4935 16.7158 16.3557 17.2886C14.2178 17.8615 12.3288 19.1237 10.9814 20.8796C9.63411 22.6354 8.90381 24.7868 8.90381 27.0001C8.90381 29.2133 9.63411 31.3647 10.9814 33.1206C12.3288 34.8764 14.2178 36.1387 16.3557 36.7115C18.4935 37.2843 20.7606 37.1357 22.8053 36.2888C24.8501 35.4418 26.5582 33.9438 27.6649 32.0271C26.6234 33.3279 25.2035 34.2732 23.6016 34.7322C21.9996 35.1912 20.2947 35.1413 18.7223 34.5894C17.1499 34.0375 15.7878 33.0108 14.8242 31.6513C13.8605 30.2918 13.3429 28.6665 13.3429 27.0001C13.3429 25.3337 13.8605 23.7084 14.8242 22.3489C15.7878 20.9893 17.1499 19.9627 18.7223 19.4108C20.2947 18.8589 21.9996 18.809 23.6016 19.268C25.2035 19.727 26.6234 20.6722 27.6649 21.9731ZM38 27.0001L28.9514 24.0509L34.5816 31.759V22.2412L28.9514 29.9492L38 27.0001Z" fill="#F5F5F5"/>
</g>
</svg>
