<svg width="54" height="48" viewBox="0 0 54 48" fill="none" xmlns="http://www.w3.org/2000/svg">
<mask id="mask0_1_41602" style="mask-type:alpha" maskUnits="userSpaceOnUse" x="3" y="6" width="48" height="36">
<path d="M3.56934 15.1356C4.16681 10.4125 8.0415 7.00193 12.7861 6.60887C16.6412 6.28949 21.6196 6 27 6C32.3804 6 37.3588 6.28949 41.2139 6.60887C45.9585 7.00193 49.8332 10.4125 50.4307 15.1356C50.752 17.6759 51 20.704 51 24C51 27.296 50.752 30.3241 50.4307 32.8644C49.8332 37.5875 45.9585 40.9981 41.2139 41.3911C37.3588 41.7105 32.3804 42 27 42C21.6196 42 16.6412 41.7105 12.7861 41.3911C8.0415 40.9981 4.16681 37.5875 3.56934 32.8644C3.248 30.3241 3 27.296 3 24C3 20.704 3.248 17.6759 3.56934 15.1356Z" fill="#00D0BF"/>
</mask>
<g mask="url(#mask0_1_41602)">
<rect x="3" width="48" height="49" fill="#EE5757"/>
<path d="M27.6649 18.9731C26.5582 17.0563 24.8501 15.5583 22.8053 14.7114C20.7606 13.8644 18.4935 13.7158 16.3557 14.2886C14.2178 14.8615 12.3288 16.1237 10.9814 17.8796C9.63411 19.6354 8.90381 21.7868 8.90381 24.0001C8.90381 26.2133 9.63411 28.3647 10.9814 30.1206C12.3288 31.8764 14.2178 33.1387 16.3557 33.7115C18.4935 34.2843 20.7606 34.1357 22.8053 33.2888C24.8501 32.4418 26.5582 30.9438 27.6649 29.0271C26.6234 30.3279 25.2035 31.2732 23.6016 31.7322C21.9996 32.1912 20.2947 32.1413 18.7223 31.5894C17.1499 31.0375 15.7878 30.0108 14.8242 28.6513C13.8605 27.2917 13.3429 25.6665 13.3429 24.0001C13.3429 22.3337 13.8605 20.7084 14.8242 19.3489C15.7878 17.9893 17.1499 16.9627 18.7223 16.4108C20.2947 15.8589 21.9996 15.809 23.6016 16.268C25.2035 16.727 26.6234 17.6722 27.6649 18.9731ZM38 24.0001L28.9514 21.0509L34.5816 28.759V19.2412L28.9514 26.9492L38 24.0001Z" fill="#F5F5F5"/>
</g>
</svg>
