<svg width="54" height="48" viewBox="0 0 54 48" fill="none" xmlns="http://www.w3.org/2000/svg">
<mask id="mask0_1_36286" style="mask-type:alpha" maskUnits="userSpaceOnUse" x="3" y="6" width="48" height="36">
<path d="M3.56934 15.1356C4.16681 10.4125 8.0415 7.00193 12.7861 6.60887C16.6412 6.28949 21.6196 6 27 6C32.3804 6 37.3588 6.28949 41.2139 6.60887C45.9585 7.00193 49.8332 10.4125 50.4307 15.1356C50.752 17.6759 51 20.704 51 24C51 27.296 50.752 30.3241 50.4307 32.8644C49.8332 37.5875 45.9585 40.9981 41.2139 41.3911C37.3588 41.7105 32.3804 42 27 42C21.6196 42 16.6412 41.7105 12.7861 41.3911C8.0415 40.9981 4.16681 37.5875 3.56934 32.8644C3.248 30.3241 3 27.296 3 24C3 20.704 3.248 17.6759 3.56934 15.1356Z" fill="#00D0BF"/>
</mask>
<g mask="url(#mask0_1_36286)">
<rect x="3" y="6" width="48" height="36" fill="#75AAFA"/>
<path d="M31.1379 39L30.6502 37.4989L29.0719 37.4989L30.3488 36.5712L29.861 35.0701L31.1379 35.9978L32.4149 35.0701L31.9271 36.5712L33.204 37.4989L31.6257 37.4989L31.1379 39Z" fill="#FCD95E"/>
<path d="M36.2069 36.1035L35.7192 34.6024L34.1408 34.6024L35.4177 33.6746L34.93 32.1735L36.2069 33.1013L37.4838 32.1735L36.9961 33.6746L38.273 34.6024L36.6947 34.6024L36.2069 36.1035Z" fill="#FCD95E"/>
<path d="M29.6896 33.2069L29.2019 31.7058L27.6236 31.7058L28.9005 30.7781L28.4127 29.277L29.6896 30.2047L30.9666 29.277L30.4788 30.7781L31.7557 31.7058L30.1774 31.7058L29.6896 33.2069Z" fill="#FCD95E"/>
<path d="M35.4827 25.9655L34.995 24.4644L33.4166 24.4644L34.6936 23.5367L34.2058 22.0356L35.4827 22.9633L36.7596 22.0356L36.2719 23.5367L37.5488 24.4644L35.9705 24.4644L35.4827 25.9655Z" fill="#FCD95E"/>
<path d="M40.1724 24.3448L39.6847 22.8437L38.1063 22.8437L39.3833 21.916L38.8955 20.4149L40.1724 21.3426L41.4493 20.4149L40.9616 21.916L42.2385 22.8437L40.6602 22.8437L40.1724 24.3448Z" fill="#FCD95E"/>
<path d="M23.1724 34.6552L23.6602 36.1563L25.2385 36.1563L23.9616 37.084L24.4493 38.5851L23.1724 37.6574L21.8955 38.5851L22.3832 37.084L21.1063 36.1563L22.6847 36.1563L23.1724 34.6552Z" fill="#FCD95E"/>
<path d="M39.8276 27.4138L40.3153 28.9149L41.8937 28.9149L40.6167 29.8427L41.1045 31.3438L39.8276 30.416L38.5507 31.3438L39.0384 29.8427L37.7615 28.9149L39.3398 28.9149L39.8276 27.4138Z" fill="#FCD95E"/>
<path d="M45.1724 15L45.6602 16.5011L47.2385 16.5011L45.9616 17.4288L46.4493 18.9299L45.1724 18.0022L43.8955 18.9299L44.3832 17.4288L43.1063 16.5011L44.6847 16.5011L45.1724 15Z" fill="#FCD95E"/>
<path d="M45.1724 26L45.6602 27.5011L47.2385 27.5011L45.9616 28.4288L46.4493 29.9299L45.1724 29.0022L43.8955 29.9299L44.3832 28.4288L43.1063 27.5011L44.6847 27.5011L45.1724 26Z" fill="#FCD95E"/>
<mask id="mask1_1_36286" style="mask-type:alpha" maskUnits="userSpaceOnUse" x="3" y="6" width="24" height="18">
<rect x="3" y="6" width="24" height="18" fill="#C4C4C4"/>
</mask>
<g mask="url(#mask1_1_36286)">
<rect x="3" y="6" width="24" height="18" fill="#2E50A6"/>
<path d="M3 6L27 24L3 6ZM27 6L3 24L27 6Z" fill="black"/>
<path d="M27 6L3 24M3 6L27 24L3 6Z" stroke="white" stroke-width="2.4"/>
<path d="M3 6L27 24L3 6ZM27 6L3 24L27 6Z" fill="black"/>
<path d="M27 6L3 24M3 6L27 24L3 6Z" stroke="#EE5757" stroke-width="1.6"/>
<path d="M15 6V27V6ZM3 15H31H3Z" fill="black"/>
<path d="M3 15H31M15 6V27V6Z" stroke="white" stroke-width="4"/>
<path d="M15 6V27V6ZM3 15H31H3Z" fill="black"/>
<path d="M3 15H31M15 6V27V6Z" stroke="#EE5757" stroke-width="2.4"/>
</g>
</g>
</svg>
