<svg width="54" height="54" viewBox="0 0 54 54" fill="none" xmlns="http://www.w3.org/2000/svg">
<mask id="mask0_1_36286" style="mask-type:alpha" maskUnits="userSpaceOnUse" x="3" y="9" width="48" height="36">
<path d="M3.56934 18.1356C4.16681 13.4125 8.0415 10.0019 12.7861 9.60887C16.6412 9.28949 21.6196 9 27 9C32.3804 9 37.3588 9.28949 41.2139 9.60887C45.9585 10.0019 49.8332 13.4125 50.4307 18.1356C50.752 20.6759 51 23.704 51 27C51 30.296 50.752 33.3241 50.4307 35.8644C49.8332 40.5875 45.9585 43.9981 41.2139 44.3911C37.3588 44.7105 32.3804 45 27 45C21.6196 45 16.6412 44.7105 12.7861 44.3911C8.04151 43.9981 4.16681 40.5875 3.56934 35.8644C3.248 33.3241 3 30.296 3 27C3 23.704 3.248 20.6759 3.56934 18.1356Z" fill="#00D0BF"/>
</mask>
<g mask="url(#mask0_1_36286)">
<rect x="3" y="9" width="48" height="36" fill="#75AAFA"/>
<path d="M31.1379 42L30.6502 40.4989L29.0719 40.4989L30.3488 39.5712L29.861 38.0701L31.1379 38.9978L32.4149 38.0701L31.9271 39.5712L33.204 40.4989L31.6257 40.4989L31.1379 42Z" fill="#FCD95E"/>
<path d="M36.2069 39.1035L35.7192 37.6024L34.1408 37.6024L35.4177 36.6746L34.93 35.1735L36.2069 36.1013L37.4838 35.1735L36.9961 36.6746L38.273 37.6024L36.6947 37.6024L36.2069 39.1035Z" fill="#FCD95E"/>
<path d="M29.6896 36.2069L29.2019 34.7058L27.6236 34.7058L28.9005 33.7781L28.4127 32.277L29.6896 33.2047L30.9666 32.277L30.4788 33.7781L31.7557 34.7058L30.1774 34.7058L29.6896 36.2069Z" fill="#FCD95E"/>
<path d="M35.4827 28.9655L34.995 27.4644L33.4166 27.4644L34.6936 26.5367L34.2058 25.0356L35.4827 25.9633L36.7596 25.0356L36.2719 26.5367L37.5488 27.4644L35.9705 27.4644L35.4827 28.9655Z" fill="#FCD95E"/>
<path d="M40.1724 27.3448L39.6847 25.8437L38.1063 25.8437L39.3833 24.916L38.8955 23.4149L40.1724 24.3426L41.4493 23.4149L40.9616 24.916L42.2385 25.8437L40.6602 25.8437L40.1724 27.3448Z" fill="#FCD95E"/>
<path d="M23.1724 37.6552L23.6602 39.1563L25.2385 39.1563L23.9616 40.084L24.4493 41.5851L23.1724 40.6574L21.8955 41.5851L22.3832 40.084L21.1063 39.1563L22.6847 39.1563L23.1724 37.6552Z" fill="#FCD95E"/>
<path d="M39.8276 30.4138L40.3153 31.9149L41.8937 31.9149L40.6167 32.8427L41.1045 34.3438L39.8276 33.416L38.5507 34.3438L39.0384 32.8427L37.7615 31.9149L39.3398 31.9149L39.8276 30.4138Z" fill="#FCD95E"/>
<path d="M45.1724 18L45.6602 19.5011L47.2385 19.5011L45.9616 20.4288L46.4493 21.9299L45.1724 21.0022L43.8955 21.9299L44.3832 20.4288L43.1063 19.5011L44.6847 19.5011L45.1724 18Z" fill="#FCD95E"/>
<path d="M45.1724 29L45.6602 30.5011L47.2385 30.5011L45.9616 31.4288L46.4493 32.9299L45.1724 32.0022L43.8955 32.9299L44.3832 31.4288L43.1063 30.5011L44.6847 30.5011L45.1724 29Z" fill="#FCD95E"/>
<mask id="mask1_1_36286" style="mask-type:alpha" maskUnits="userSpaceOnUse" x="3" y="9" width="24" height="18">
<rect x="3" y="9" width="24" height="18" fill="#C4C4C4"/>
</mask>
<g mask="url(#mask1_1_36286)">
<rect x="3" y="9" width="24" height="18" fill="#2E50A6"/>
<path d="M3 9L27 27L3 9ZM27 9L3 27Z" fill="black"/>
<path d="M27 9L3 27M3 9L27 27L3 9Z" stroke="white" stroke-width="2.4"/>
<path d="M3 9L27 27L3 9ZM27 9L3 27Z" fill="black"/>
<path d="M27 9L3 27M3 9L27 27L3 9Z" stroke="#EE5757" stroke-width="1.6"/>
<path d="M15 9V30V9ZM3 18H31Z" fill="black"/>
<path d="M3 18H31M15 9V30V9Z" stroke="white" stroke-width="4"/>
<path d="M15 9V30V9ZM3 18H31Z" fill="black"/>
<path d="M3 18H31M15 9V30V9Z" stroke="#EE5757" stroke-width="2.4"/>
</g>
</g>
</svg>
