<svg width="54" height="54" viewBox="0 0 54 54" fill="none" xmlns="http://www.w3.org/2000/svg">
<mask id="mask0_1_36380" style="mask-type:alpha" maskUnits="userSpaceOnUse" x="3" y="9" width="48" height="36">
<path d="M3.56934 18.1356C4.16681 13.4125 8.0415 10.0019 12.7861 9.60887C16.6412 9.28949 21.6196 9 27 9C32.3804 9 37.3588 9.28949 41.2139 9.60887C45.9585 10.0019 49.8332 13.4125 50.4307 18.1356C50.752 20.6759 51 23.704 51 27C51 30.296 50.752 33.3241 50.4307 35.8644C49.8332 40.5875 45.9585 43.9981 41.2139 44.3911C37.3588 44.7105 32.3804 45 27 45C21.6196 45 16.6412 44.7105 12.7861 44.3911C8.04151 43.9981 4.16681 40.5875 3.56934 35.8644C3.248 33.3241 3 30.296 3 27C3 23.704 3.248 20.6759 3.56934 18.1356Z" fill="#00D0BF"/>
</mask>
<g mask="url(#mask0_1_36380)">
<rect x="3" y="39" width="48" height="6" fill="#EE5757"/>
<rect x="3" y="33" width="48" height="6" fill="#FCD95E"/>
<rect x="3" y="27" width="48" height="6" fill="#2C2929"/>
<rect x="3" y="21" width="48" height="6" fill="#EE5757"/>
<path d="M27 33C30.3137 33 33 30.3137 33 27C33 23.6863 30.3137 21 27 21C23.6863 21 21 23.6863 21 27C21 30.3137 23.6863 33 27 33Z" fill="white"/>
<path d="M25.9425 22.4048L25.5533 21.688C25.7035 21.5378 25.9562 21.4218 26.3589 21.4218C26.3589 21.4491 26.318 22.2068 26.318 22.2068L25.9425 22.4048Z" fill="#D90000" stroke="black" stroke-width="0.0638298"/>
<path d="M26.3179 22.2136L26.3726 21.4217C26.3726 21.4217 27.1781 21.374 27.615 21.8996C27.6219 21.8928 27.185 22.514 27.185 22.514L26.3179 22.2136Z" fill="#FCDC04" stroke="black" stroke-width="0.0638298"/>
<path d="M27.1986 22.5071L27.5945 21.8927C27.8608 22.1726 27.97 22.3706 28.011 22.671C28.0178 22.6778 27.3829 22.828 27.3829 22.8211C27.3829 22.8143 27.2054 22.5139 27.1986 22.5071Z" fill="#D90000" stroke="black" stroke-width="0.0638298"/>
<path d="M26.1405 32.6518C26.1405 32.6518 26.8846 31.7984 28.3319 31.9828C28.1134 31.6277 27.4103 31.6687 27.4103 31.6687C27.4103 31.6687 27.1918 30.0098 27.3625 29.9279C27.5331 29.8459 28.2568 29.9347 28.2568 29.9347C28.3523 29.9347 28.5162 29.6753 28.3865 29.5115C28.2568 29.3476 27.8745 28.7195 28.0315 28.5966C28.1885 28.4738 29.0418 28.6649 29.0418 28.6649L26.632 25.5792C26.632 25.5792 26.3862 24.4187 26.8778 23.8589C27.4717 23.3673 27.4103 22.8348 27.3898 22.8417C27.3078 22.3023 26.4887 21.9132 25.9357 22.4116C25.608 22.8075 25.8264 23.1079 25.8264 23.1079C25.8264 23.1079 24.9663 23.34 24.9321 23.4902C24.898 23.6404 25.9015 23.4629 25.9015 23.4629L25.8059 24.1524C25.8059 24.1524 23.8535 25.9274 25.3485 27.4634C25.3622 27.4566 25.3963 27.3951 25.3963 27.3951C25.3963 27.3951 25.922 28.0437 26.4749 28.187C26.9938 28.7195 26.946 28.6376 26.946 28.6376C26.946 28.6376 27.0484 29.4773 26.9529 29.6411C26.8231 29.6002 25.4988 29.5524 25.3008 29.6275C25.1233 29.6821 24.4406 29.648 24.6113 30.7608C24.7409 30.4604 24.857 30.1941 24.857 30.1941C24.857 30.1941 24.8365 30.5969 25.0004 30.7403C24.9731 30.317 25.1574 30.0303 25.1574 30.0303C25.1574 30.0303 25.1916 30.4945 25.2939 30.5627C25.3963 30.631 25.3963 29.8118 25.963 29.8801C26.5296 29.9484 26.9392 29.9279 26.9392 29.9279C26.9392 29.9279 27.1304 31.5322 27.0689 31.6824C26.6593 31.5868 25.6831 31.7233 25.6216 31.9691C26.195 31.935 26.4613 32.0032 26.4613 32.0032C26.4613 32.0032 25.9971 32.4128 26.1405 32.6518Z" fill="black" stroke="black" stroke-width="0.0638298"/>
<path d="M26.3706 23.8981C26.3706 23.8981 24.9499 25.464 25.5628 26.6623C25.5955 26.4952 25.5812 26.3902 25.6017 26.397C25.5676 26.3765 25.7779 26.5412 25.7619 26.5091C25.7664 26.4225 25.6978 26.2368 25.6978 26.2368C25.7619 26.2528 25.826 26.2689 25.8901 26.2849C25.8527 26.2155 25.8153 26.1461 25.7779 26.0766C25.8687 26.0873 25.9595 26.098 26.0503 26.1087C26.0503 26.1087 25.9541 25.8524 25.9862 25.8524C26.0182 25.8524 26.2104 25.8684 26.2104 25.8684C25.8064 25.1433 26.1876 24.5412 26.3706 23.8981Z" fill="#9CA69C" stroke="#9CA69C" stroke-width="0.0638298"/>
<path d="M26.8641 22.555C26.8641 22.555 26.9392 23.0943 26.6457 23.2513C26.5979 23.2855 26.4135 23.3469 26.4409 23.4562C26.475 23.6063 26.5569 23.579 26.673 23.5517C26.9801 23.4971 27.3351 22.8417 26.8641 22.555Z" fill="#9CA69C" stroke="#9CA69C" stroke-width="0.0638298"/>
<path d="M26.2299 23.137C26.2937 23.137 26.3455 23.0852 26.3455 23.0215C26.3455 22.9577 26.2937 22.9059 26.2299 22.9059C26.1662 22.9059 26.1144 22.9577 26.1144 23.0215C26.1144 23.0852 26.1662 23.137 26.2299 23.137Z" fill="white"/>
<path d="M25.881 23.4698C25.8059 23.5312 25.41 23.9409 25.7991 24.0911C26.2019 23.9818 26.0927 23.9067 26.1814 23.818C26.1837 23.6337 25.9812 23.5859 25.881 23.4698Z" fill="#D90000" stroke="black" stroke-width="0.0638298"/>
<path d="M26.7412 27.3406C26.7207 27.4294 26.632 27.7571 26.7548 28.0096C27.0962 27.8663 27.2532 27.9072 27.3693 27.9823C27.0894 27.7571 26.9802 27.6615 26.7412 27.3406Z" fill="#9CA69C" stroke="#9CA69C" stroke-width="0.0638298"/>
<path d="M27.3283 28.8903L27.3488 29.6549C27.3488 29.6549 27.615 29.7027 27.7379 29.6549C27.8608 29.6071 27.7311 29.1224 27.3283 28.8903Z" fill="white" stroke="white" stroke-width="0.0638298"/>
<path d="M29.2603 28.9858C29.2603 28.9858 28.7688 27.798 27.5126 27.4976C26.2565 27.1972 26.4203 25.8592 26.5227 25.7772C26.5774 25.6611 26.6183 25.4837 26.9801 25.6544C27.342 25.825 29.0077 26.6647 29.2466 26.7057C29.4856 26.7466 29.2808 29.0131 29.2603 28.9858Z" fill="#9CA69C" stroke="black" stroke-width="0.0638298"/>
<path d="M28.0656 27.4908C28.0451 27.5044 29.745 28.4943 29.233 29.3476C29.7177 29.0268 29.5607 28.467 29.5607 28.467C29.5607 28.467 29.9566 29.4979 28.994 30.003C29.0965 30.0918 29.1648 30.0713 29.1648 30.0713L29.0009 30.2352C29.0009 30.2352 28.9258 30.358 29.5743 30.044C29.3968 30.1874 29.3832 30.2897 29.3832 30.2897C29.3832 30.2897 29.4309 30.4263 29.8542 30.0576C29.5129 30.4263 29.4378 30.6174 29.4378 30.6106C30.3594 30.5287 32.3665 27.5317 28.8029 26.6442C28.9941 26.8422 28.9667 26.8149 28.9667 26.8149L28.0656 27.4908Z" fill="#D90000" stroke="black" stroke-width="0.0638298"/>
<path d="M28.1407 27.1972C28.3729 27.3611 28.4547 27.4157 28.4821 27.4976C28.2704 27.4499 28.0793 27.4635 28.0793 27.4635C28.0793 27.4635 27.6219 27.0266 27.54 26.9924C27.4785 26.9924 27.1235 26.7672 27.1235 26.7672C26.9461 26.6784 26.7822 26.064 27.4376 26.2415C28.1134 26.5623 28.209 26.5897 28.209 26.5897C28.4775 26.6738 28.746 26.7581 29.0146 26.8423C29.1693 27.0152 29.324 27.1882 29.4788 27.3611C29.4788 27.3611 28.6528 26.9515 28.5503 26.9446C28.7756 27.1289 28.9054 27.3815 28.9054 27.3815C28.6436 27.3064 28.4161 27.2382 28.1407 27.1972Z" fill="white" stroke="black" stroke-width="0.0638298"/>
<path d="M24.9253 23.5312C24.9253 23.5312 25.7172 23.3401 25.8128 23.3674Z" fill="black"/>
<path d="M24.9253 23.5312C24.9253 23.5312 25.7172 23.3401 25.8128 23.3674" stroke="white" stroke-width="0.0638298"/>
<rect x="3" y="15" width="48" height="6" fill="#FCD95E"/>
<rect x="3" y="9" width="48" height="6" fill="#2C2929"/>
</g>
</svg>
