<svg width="54" height="48" viewBox="0 0 54 48" fill="none" xmlns="http://www.w3.org/2000/svg">
<mask id="mask0_1_36380" style="mask-type:alpha" maskUnits="userSpaceOnUse" x="3" y="6" width="48" height="36">
<path d="M3.56934 15.1356C4.16681 10.4125 8.0415 7.00193 12.7861 6.60887C16.6412 6.28949 21.6196 6 27 6C32.3804 6 37.3588 6.28949 41.2139 6.60887C45.9585 7.00193 49.8332 10.4125 50.4307 15.1356C50.752 17.6759 51 20.704 51 24C51 27.296 50.752 30.3241 50.4307 32.8644C49.8332 37.5875 45.9585 40.9981 41.2139 41.3911C37.3588 41.7105 32.3804 42 27 42C21.6196 42 16.6412 41.7105 12.7861 41.3911C8.0415 40.9981 4.16681 37.5875 3.56934 32.8644C3.248 30.3241 3 27.296 3 24C3 20.704 3.248 17.6759 3.56934 15.1356Z" fill="#00D0BF"/>
</mask>
<g mask="url(#mask0_1_36380)">
<rect x="3" y="36" width="48" height="6" fill="#EE5757"/>
<rect x="3" y="30" width="48" height="6" fill="#FCD95E"/>
<rect x="3" y="24" width="48" height="6" fill="#2C2929"/>
<rect x="3" y="18" width="48" height="6" fill="#EE5757"/>
<path d="M27 30C30.3137 30 33 27.3137 33 24C33 20.6863 30.3137 18 27 18C23.6863 18 21 20.6863 21 24C21 27.3137 23.6863 30 27 30Z" fill="white"/>
<path d="M25.9425 19.4048L25.5533 18.688C25.7035 18.5378 25.9562 18.4218 26.3589 18.4218C26.3589 18.4491 26.318 19.2068 26.318 19.2068L25.9425 19.4048Z" fill="#D90000" stroke="black" stroke-width="0.0638298"/>
<path d="M26.3179 19.2136L26.3726 18.4217C26.3726 18.4217 27.1781 18.374 27.615 18.8996C27.6219 18.8928 27.185 19.514 27.185 19.514L26.3179 19.2136Z" fill="#FCDC04" stroke="black" stroke-width="0.0638298"/>
<path d="M27.1986 19.5071L27.5945 18.8927C27.8608 19.1726 27.97 19.3706 28.011 19.671C28.0178 19.6778 27.3829 19.828 27.3829 19.8211C27.3829 19.8143 27.2054 19.5139 27.1986 19.5071Z" fill="#D90000" stroke="black" stroke-width="0.0638298"/>
<path d="M26.1405 29.6518C26.1405 29.6518 26.8846 28.7984 28.3319 28.9828C28.1134 28.6277 27.4103 28.6687 27.4103 28.6687C27.4103 28.6687 27.1918 27.0098 27.3625 26.9279C27.5331 26.8459 28.2568 26.9347 28.2568 26.9347C28.3523 26.9347 28.5162 26.6753 28.3865 26.5115C28.2568 26.3476 27.8745 25.7195 28.0315 25.5966C28.1885 25.4738 29.0418 25.6649 29.0418 25.6649L26.632 22.5792C26.632 22.5792 26.3862 21.4187 26.8778 20.8589C27.4717 20.3673 27.4103 19.8348 27.3898 19.8417C27.3078 19.3023 26.4887 18.9132 25.9357 19.4116C25.608 19.8075 25.8264 20.1079 25.8264 20.1079C25.8264 20.1079 24.9663 20.34 24.9321 20.4902C24.898 20.6404 25.9015 20.4629 25.9015 20.4629L25.8059 21.1524C25.8059 21.1524 23.8535 22.9274 25.3485 24.4634C25.3622 24.4566 25.3963 24.3951 25.3963 24.3951C25.3963 24.3951 25.922 25.0437 26.4749 25.187C26.9938 25.7195 26.946 25.6376 26.946 25.6376C26.946 25.6376 27.0484 26.4773 26.9529 26.6411C26.8231 26.6002 25.4988 26.5524 25.3008 26.6275C25.1233 26.6821 24.4406 26.648 24.6113 27.7608C24.7409 27.4604 24.857 27.1941 24.857 27.1941C24.857 27.1941 24.8365 27.5969 25.0004 27.7403C24.9731 27.317 25.1574 27.0303 25.1574 27.0303C25.1574 27.0303 25.1916 27.4945 25.2939 27.5627C25.3963 27.631 25.3963 26.8118 25.963 26.8801C26.5296 26.9484 26.9392 26.9279 26.9392 26.9279C26.9392 26.9279 27.1304 28.5322 27.0689 28.6824C26.6593 28.5868 25.6831 28.7233 25.6216 28.9691C26.195 28.935 26.4613 29.0032 26.4613 29.0032C26.4613 29.0032 25.9971 29.4128 26.1405 29.6518Z" fill="black" stroke="black" stroke-width="0.0638298"/>
<path d="M26.3706 20.8981C26.3706 20.8981 24.9499 22.464 25.5628 23.6623C25.5955 23.4952 25.5812 23.3902 25.6017 23.397C25.5676 23.3765 25.7779 23.5412 25.7619 23.5091C25.7664 23.4225 25.6978 23.2368 25.6978 23.2368C25.7619 23.2528 25.826 23.2689 25.8901 23.2849C25.8527 23.2155 25.8153 23.1461 25.7779 23.0766C25.8687 23.0873 25.9595 23.098 26.0503 23.1087C26.0503 23.1087 25.9541 22.8524 25.9862 22.8524C26.0182 22.8524 26.2104 22.8684 26.2104 22.8684C25.8064 22.1433 26.1876 21.5412 26.3706 20.8981Z" fill="#9CA69C" stroke="#9CA69C" stroke-width="0.0638298"/>
<path d="M26.8641 19.555C26.8641 19.555 26.9392 20.0943 26.6457 20.2513C26.5979 20.2855 26.4135 20.3469 26.4409 20.4562C26.475 20.6063 26.5569 20.579 26.673 20.5517C26.9801 20.4971 27.3351 19.8417 26.8641 19.555Z" fill="#9CA69C" stroke="#9CA69C" stroke-width="0.0638298"/>
<path d="M26.2299 20.137C26.2937 20.137 26.3455 20.0852 26.3455 20.0215C26.3455 19.9577 26.2937 19.9059 26.2299 19.9059C26.1662 19.9059 26.1144 19.9577 26.1144 20.0215C26.1144 20.0852 26.1662 20.137 26.2299 20.137Z" fill="white"/>
<path d="M25.881 20.4698C25.8059 20.5312 25.41 20.9409 25.7991 21.0911C26.2019 20.9818 26.0927 20.9067 26.1814 20.818C26.1837 20.6337 25.9812 20.5859 25.881 20.4698Z" fill="#D90000" stroke="black" stroke-width="0.0638298"/>
<path d="M26.7412 24.3406C26.7207 24.4294 26.632 24.7571 26.7548 25.0096C27.0962 24.8663 27.2532 24.9072 27.3693 24.9823C27.0894 24.7571 26.9802 24.6615 26.7412 24.3406Z" fill="#9CA69C" stroke="#9CA69C" stroke-width="0.0638298"/>
<path d="M27.3283 25.8903L27.3488 26.6549C27.3488 26.6549 27.615 26.7027 27.7379 26.6549C27.8608 26.6071 27.7311 26.1224 27.3283 25.8903Z" fill="white" stroke="white" stroke-width="0.0638298"/>
<path d="M29.2603 25.9858C29.2603 25.9858 28.7688 24.798 27.5126 24.4976C26.2565 24.1972 26.4203 22.8592 26.5227 22.7772C26.5774 22.6611 26.6183 22.4837 26.9801 22.6544C27.342 22.825 29.0077 23.6647 29.2466 23.7057C29.4856 23.7466 29.2808 26.0131 29.2603 25.9858Z" fill="#9CA69C" stroke="black" stroke-width="0.0638298"/>
<path d="M28.0656 24.4908C28.0451 24.5044 29.745 25.4943 29.233 26.3476C29.7177 26.0268 29.5607 25.467 29.5607 25.467C29.5607 25.467 29.9566 26.4979 28.994 27.003C29.0965 27.0918 29.1648 27.0713 29.1648 27.0713L29.0009 27.2352C29.0009 27.2352 28.9258 27.358 29.5743 27.044C29.3968 27.1874 29.3832 27.2897 29.3832 27.2897C29.3832 27.2897 29.4309 27.4263 29.8542 27.0576C29.5129 27.4263 29.4378 27.6174 29.4378 27.6106C30.3594 27.5287 32.3665 24.5317 28.8029 23.6442C28.9941 23.8422 28.9667 23.8149 28.9667 23.8149L28.0656 24.4908Z" fill="#D90000" stroke="black" stroke-width="0.0638298"/>
<path d="M28.1407 24.1972C28.3729 24.3611 28.4547 24.4157 28.4821 24.4976C28.2704 24.4499 28.0793 24.4635 28.0793 24.4635C28.0793 24.4635 27.6219 24.0266 27.54 23.9924C27.4785 23.9924 27.1235 23.7672 27.1235 23.7672C26.9461 23.6784 26.7822 23.064 27.4376 23.2415C28.1134 23.5623 28.209 23.5897 28.209 23.5897C28.4775 23.6738 28.746 23.7581 29.0146 23.8423C29.1693 24.0152 29.324 24.1882 29.4788 24.3611C29.4788 24.3611 28.6528 23.9515 28.5503 23.9446C28.7756 24.1289 28.9054 24.3815 28.9054 24.3815C28.6436 24.3064 28.4161 24.2382 28.1407 24.1972Z" fill="white" stroke="black" stroke-width="0.0638298"/>
<path d="M24.9253 20.5312C24.9253 20.5312 25.7172 20.3401 25.8128 20.3674L24.9253 20.5312Z" fill="black"/>
<path d="M24.9253 20.5312C24.9253 20.5312 25.7172 20.3401 25.8128 20.3674" stroke="white" stroke-width="0.0638298"/>
<rect x="3" y="12" width="48" height="6" fill="#FCD95E"/>
<rect x="3" y="6" width="48" height="6" fill="#2C2929"/>
</g>
</svg>
