<svg width="54" height="48" viewBox="0 0 54 48" fill="none" xmlns="http://www.w3.org/2000/svg">
<mask id="mask0_1_36308" style="mask-type:alpha" maskUnits="userSpaceOnUse" x="3" y="6" width="48" height="36">
<path d="M3.56934 15.1356C4.16681 10.4125 8.0415 7.00193 12.7861 6.60887C16.6412 6.28949 21.6196 6 27 6C32.3804 6 37.3588 6.28949 41.2139 6.60887C45.9585 7.00193 49.8332 10.4125 50.4307 15.1356C50.752 17.6759 51 20.704 51 24C51 27.296 50.752 30.3241 50.4307 32.8644C49.8332 37.5875 45.9585 40.9981 41.2139 41.3911C37.3588 41.7105 32.3804 42 27 42C21.6196 42 16.6412 41.7105 12.7861 41.3911C8.0415 40.9981 4.16681 37.5875 3.56934 32.8644C3.248 30.3241 3 27.296 3 24C3 20.704 3.248 17.6759 3.56934 15.1356Z" fill="#00D0BF"/>
</mask>
<g mask="url(#mask0_1_36308)">
<rect x="1.15381" y="33.6923" width="51.6924" height="2.76923" fill="#EE5757"/>
<rect x="1.15381" y="30.9231" width="51.6924" height="2.76923" fill="#F5F5F5"/>
<rect x="1.15381" y="39.2307" width="51.6924" height="2.76923" fill="#EE5757"/>
<rect x="1.15381" y="28.1539" width="51.6924" height="2.76923" fill="#EE5757"/>
<rect x="1.15381" y="36.4615" width="51.6924" height="2.76923" fill="#F5F5F5"/>
<rect x="1.15381" y="25.3846" width="51.6924" height="2.76923" fill="#F5F5F5"/>
<rect x="1.15381" y="22.6154" width="51.6924" height="2.76923" fill="#EE5757"/>
<rect x="1.15381" y="19.8462" width="51.6924" height="2.76923" fill="#F5F5F5"/>
<rect x="1.15381" y="17.0768" width="51.6924" height="2.76923" fill="#EE5757"/>
<rect x="1.15381" y="14.3076" width="51.6924" height="2.76923" fill="#F5F5F5"/>
<rect x="1.15381" y="11.5385" width="51.6924" height="2.76923" fill="#EE5757"/>
<rect x="1.15381" y="8.76923" width="51.6924" height="2.76923" fill="#F5F5F5"/>
<rect x="1.15381" y="6" width="51.6924" height="2.76923" fill="#EE5757"/>
<rect x="3" y="6" width="27" height="19.38" fill="#2E50A6"/>
<path d="M3.91819 7.5L4.61381 9.64088L2.79266 8.31774H5.04372L3.22258 9.64088L3.91819 7.5Z" fill="white"/>
<path d="M3.91819 11.0502L4.61381 13.1911L2.79266 11.868H5.04372L3.22258 13.1911L3.91819 11.0502Z" fill="white"/>
<path d="M3.91819 14.6007L4.61381 16.7416L2.79266 15.4185H5.04372L3.22258 16.7416L3.91819 14.6007Z" fill="white"/>
<path d="M3.91819 18.151L4.61381 20.2919L2.79266 18.9687H5.04372L3.22258 20.2919L3.91819 18.151Z" fill="white"/>
<path d="M3.91819 21.7014L4.61381 23.8422L2.79266 22.5191H5.04372L3.22258 23.8422L3.91819 21.7014Z" fill="white"/>
<path d="M27.8744 7.5L28.57 9.64088L26.7489 8.31774H29L27.1788 9.64088L27.8744 7.5Z" fill="white"/>
<path d="M27.8744 11.0502L28.57 13.1911L26.7489 11.868H29L27.1788 13.1911L27.8744 11.0502Z" fill="white"/>
<path d="M25.6259 9.27509L26.3215 11.416L24.5004 10.0928H26.7514L24.9303 11.416L25.6259 9.27509Z" fill="white"/>
<path d="M25.6259 12.8847L26.3215 15.0256L24.5004 13.7024H26.7514L24.9303 15.0256L25.6259 12.8847Z" fill="white"/>
<path d="M25.6259 16.4941L26.3215 18.635L24.5004 17.3119H26.7514L24.9303 18.635L25.6259 16.4941Z" fill="white"/>
<path d="M25.6259 20.1038L26.3215 22.2446L24.5004 20.9215H26.7514L24.9303 22.2446L25.6259 20.1038Z" fill="white"/>
<path d="M27.8744 14.6007L28.57 16.7416L26.7489 15.4185H29L27.1788 16.7416L27.8744 14.6007Z" fill="white"/>
<path d="M27.8744 18.151L28.57 20.2919L26.7489 18.9687H29L27.1788 20.2919L27.8744 18.151Z" fill="white"/>
<path d="M27.8744 21.7014L28.57 23.8422L26.7489 22.5191H29L27.1788 23.8422L27.8744 21.7014Z" fill="white"/>
<path d="M23.0815 7.5L23.7771 9.64088L21.9559 8.31774H24.207L22.3858 9.64088L23.0815 7.5Z" fill="white"/>
<path d="M23.0815 11.0502L23.7771 13.1911L21.9559 11.868H24.207L22.3858 13.1911L23.0815 11.0502Z" fill="white"/>
<path d="M20.8329 9.27509L21.5285 11.416L19.7074 10.0928H21.9585L20.1373 11.416L20.8329 9.27509Z" fill="white"/>
<path d="M20.8329 12.8847L21.5285 15.0256L19.7074 13.7024H21.9585L20.1373 15.0256L20.8329 12.8847Z" fill="white"/>
<path d="M20.8329 16.4941L21.5285 18.635L19.7074 17.3119H21.9585L20.1373 18.635L20.8329 16.4941Z" fill="white"/>
<path d="M20.8329 20.1038L21.5285 22.2446L19.7074 20.9215H21.9585L20.1373 22.2446L20.8329 20.1038Z" fill="white"/>
<path d="M23.0815 14.6007L23.7771 16.7416L21.9559 15.4185H24.207L22.3858 16.7416L23.0815 14.6007Z" fill="white"/>
<path d="M23.0815 18.151L23.7771 20.2919L21.9559 18.9687H24.207L22.3858 20.2919L23.0815 18.151Z" fill="white"/>
<path d="M23.0815 21.7014L23.7771 23.8422L21.9559 22.5191H24.207L22.3858 23.8422L23.0815 21.7014Z" fill="white"/>
<path d="M18.2885 7.5L18.9841 9.64088L17.163 8.31774H19.414L17.5929 9.64088L18.2885 7.5Z" fill="white"/>
<path d="M18.2885 11.0502L18.9841 13.1911L17.163 11.868H19.414L17.5929 13.1911L18.2885 11.0502Z" fill="white"/>
<path d="M16.04 9.27509L16.7356 11.416L14.9144 10.0928H17.1655L15.3443 11.416L16.04 9.27509Z" fill="white"/>
<path d="M16.04 12.8847L16.7356 15.0256L14.9144 13.7024H17.1655L15.3443 15.0256L16.04 12.8847Z" fill="white"/>
<path d="M16.04 16.4941L16.7356 18.635L14.9144 17.3119H17.1655L15.3443 18.635L16.04 16.4941Z" fill="white"/>
<path d="M16.04 20.1038L16.7356 22.2446L14.9144 20.9215H17.1655L15.3443 22.2446L16.04 20.1038Z" fill="white"/>
<path d="M18.2885 14.6007L18.9841 16.7416L17.163 15.4185H19.414L17.5929 16.7416L18.2885 14.6007Z" fill="white"/>
<path d="M18.2885 18.151L18.9841 20.2919L17.163 18.9687H19.414L17.5929 20.2919L18.2885 18.151Z" fill="white"/>
<path d="M18.2885 21.7014L18.9841 23.8422L17.163 22.5191H19.414L17.5929 23.8422L18.2885 21.7014Z" fill="white"/>
<path d="M13.4955 7.5L14.1911 9.64088L12.37 8.31774H14.6211L12.7999 9.64088L13.4955 7.5Z" fill="white"/>
<path d="M13.4955 11.0502L14.1911 13.1911L12.37 11.868H14.6211L12.7999 13.1911L13.4955 11.0502Z" fill="white"/>
<path d="M11.247 9.27509L11.9426 11.416L10.1215 10.0928H12.3725L10.5514 11.416L11.247 9.27509Z" fill="white"/>
<path d="M11.247 12.8847L11.9426 15.0256L10.1215 13.7024H12.3725L10.5514 15.0256L11.247 12.8847Z" fill="white"/>
<path d="M11.247 16.4941L11.9426 18.635L10.1215 17.3119H12.3725L10.5514 18.635L11.247 16.4941Z" fill="white"/>
<path d="M11.247 20.1038L11.9426 22.2446L10.1215 20.9215H12.3725L10.5514 22.2446L11.247 20.1038Z" fill="white"/>
<path d="M13.4955 14.6007L14.1911 16.7416L12.37 15.4185H14.6211L12.7999 16.7416L13.4955 14.6007Z" fill="white"/>
<path d="M13.4955 18.151L14.1911 20.2919L12.37 18.9687H14.6211L12.7999 20.2919L13.4955 18.151Z" fill="white"/>
<path d="M13.4955 21.7014L14.1911 23.8422L12.37 22.5191H14.6211L12.7999 23.8422L13.4955 21.7014Z" fill="white"/>
<path d="M8.70255 7.5L9.39817 9.64088L7.57703 8.31774H9.82808L8.00694 9.64088L8.70255 7.5Z" fill="white"/>
<path d="M8.70255 11.0502L9.39817 13.1911L7.57703 11.868H9.82808L8.00694 13.1911L8.70255 11.0502Z" fill="white"/>
<path d="M6.45402 9.27509L7.14963 11.416L5.32849 10.0928H7.57955L5.7584 11.416L6.45402 9.27509Z" fill="white"/>
<path d="M6.45402 12.8847L7.14963 15.0256L5.32849 13.7024H7.57955L5.7584 15.0256L6.45402 12.8847Z" fill="white"/>
<path d="M6.45402 16.4941L7.14963 18.635L5.32849 17.3119H7.57955L5.7584 18.635L6.45402 16.4941Z" fill="white"/>
<path d="M6.45402 20.1038L7.14963 22.2446L5.32849 20.9215H7.57955L5.7584 22.2446L6.45402 20.1038Z" fill="white"/>
<path d="M8.70255 14.6007L9.39817 16.7416L7.57703 15.4185H9.82808L8.00694 16.7416L8.70255 14.6007Z" fill="white"/>
<path d="M8.70255 18.151L9.39817 20.2919L7.57703 18.9687H9.82808L8.00694 20.2919L8.70255 18.151Z" fill="white"/>
<path d="M8.70255 21.7014L9.39817 23.8422L7.57703 22.5191H9.82808L8.00694 23.8422L8.70255 21.7014Z" fill="white"/>
</g>
</svg>
