<svg width="54" height="54" viewBox="0 0 54 54" fill="none" xmlns="http://www.w3.org/2000/svg">
<mask id="mask0_1_36308" style="mask-type:alpha" maskUnits="userSpaceOnUse" x="3" y="9" width="48" height="36">
<path d="M3.56934 18.1356C4.16681 13.4125 8.0415 10.0019 12.7861 9.60887C16.6412 9.28949 21.6196 9 27 9C32.3804 9 37.3588 9.28949 41.2139 9.60887C45.9585 10.0019 49.8332 13.4125 50.4307 18.1356C50.752 20.6759 51 23.704 51 27C51 30.296 50.752 33.3241 50.4307 35.8644C49.8332 40.5875 45.9585 43.9981 41.2139 44.3911C37.3588 44.7105 32.3804 45 27 45C21.6196 45 16.6412 44.7105 12.7861 44.3911C8.04151 43.9981 4.16681 40.5875 3.56934 35.8644C3.248 33.3241 3 30.296 3 27C3 23.704 3.248 20.6759 3.56934 18.1356Z" fill="#00D0BF"/>
</mask>
<g mask="url(#mask0_1_36308)">
<rect x="1.15381" y="36.6923" width="51.6924" height="2.76923" fill="#EE5757"/>
<rect x="1.15381" y="33.9231" width="51.6924" height="2.76923" fill="#F5F5F5"/>
<rect x="1.15381" y="42.2307" width="51.6924" height="2.76923" fill="#EE5757"/>
<rect x="1.15381" y="31.1539" width="51.6924" height="2.76923" fill="#EE5757"/>
<rect x="1.15381" y="39.4615" width="51.6924" height="2.76923" fill="#F5F5F5"/>
<rect x="1.15381" y="28.3846" width="51.6924" height="2.76923" fill="#F5F5F5"/>
<rect x="1.15381" y="25.6154" width="51.6924" height="2.76923" fill="#EE5757"/>
<rect x="1.15381" y="22.8462" width="51.6924" height="2.76923" fill="#F5F5F5"/>
<rect x="1.15381" y="20.0768" width="51.6924" height="2.76923" fill="#EE5757"/>
<rect x="1.15381" y="17.3076" width="51.6924" height="2.76923" fill="#F5F5F5"/>
<rect x="1.15381" y="14.5385" width="51.6924" height="2.76923" fill="#EE5757"/>
<rect x="1.15381" y="11.7692" width="51.6924" height="2.76923" fill="#F5F5F5"/>
<rect x="1.15381" y="9" width="51.6924" height="2.76923" fill="#EE5757"/>
<rect x="3" y="9" width="27" height="19.38" fill="#2E50A6"/>
<path d="M3.91819 10.5L4.61381 12.6409L2.79266 11.3177H5.04372L3.22258 12.6409L3.91819 10.5Z" fill="white"/>
<path d="M3.91819 14.0502L4.61381 16.1911L2.79266 14.868H5.04372L3.22258 16.1911L3.91819 14.0502Z" fill="white"/>
<path d="M3.91819 17.6007L4.61381 19.7416L2.79266 18.4185H5.04372L3.22258 19.7416L3.91819 17.6007Z" fill="white"/>
<path d="M3.91819 21.151L4.61381 23.2919L2.79266 21.9687H5.04372L3.22258 23.2919L3.91819 21.151Z" fill="white"/>
<path d="M3.91819 24.7014L4.61381 26.8422L2.79266 25.5191H5.04372L3.22258 26.8422L3.91819 24.7014Z" fill="white"/>
<path d="M27.8744 10.5L28.57 12.6409L26.7489 11.3177H29L27.1788 12.6409L27.8744 10.5Z" fill="white"/>
<path d="M27.8744 14.0502L28.57 16.1911L26.7489 14.868H29L27.1788 16.1911L27.8744 14.0502Z" fill="white"/>
<path d="M25.6259 12.2751L26.3215 14.416L24.5004 13.0928H26.7514L24.9303 14.416L25.6259 12.2751Z" fill="white"/>
<path d="M25.6259 15.8847L26.3215 18.0256L24.5004 16.7024H26.7514L24.9303 18.0256L25.6259 15.8847Z" fill="white"/>
<path d="M25.6259 19.4941L26.3215 21.635L24.5004 20.3119H26.7514L24.9303 21.635L25.6259 19.4941Z" fill="white"/>
<path d="M25.6259 23.1038L26.3215 25.2446L24.5004 23.9215H26.7514L24.9303 25.2446L25.6259 23.1038Z" fill="white"/>
<path d="M27.8744 17.6007L28.57 19.7416L26.7489 18.4185H29L27.1788 19.7416L27.8744 17.6007Z" fill="white"/>
<path d="M27.8744 21.151L28.57 23.2919L26.7489 21.9687H29L27.1788 23.2919L27.8744 21.151Z" fill="white"/>
<path d="M27.8744 24.7014L28.57 26.8422L26.7489 25.5191H29L27.1788 26.8422L27.8744 24.7014Z" fill="white"/>
<path d="M23.0815 10.5L23.7771 12.6409L21.9559 11.3177H24.207L22.3858 12.6409L23.0815 10.5Z" fill="white"/>
<path d="M23.0815 14.0502L23.7771 16.1911L21.9559 14.868H24.207L22.3858 16.1911L23.0815 14.0502Z" fill="white"/>
<path d="M20.8329 12.2751L21.5285 14.416L19.7074 13.0928H21.9585L20.1373 14.416L20.8329 12.2751Z" fill="white"/>
<path d="M20.8329 15.8847L21.5285 18.0256L19.7074 16.7024H21.9585L20.1373 18.0256L20.8329 15.8847Z" fill="white"/>
<path d="M20.8329 19.4941L21.5285 21.635L19.7074 20.3119H21.9585L20.1373 21.635L20.8329 19.4941Z" fill="white"/>
<path d="M20.8329 23.1038L21.5285 25.2446L19.7074 23.9215H21.9585L20.1373 25.2446L20.8329 23.1038Z" fill="white"/>
<path d="M23.0815 17.6007L23.7771 19.7416L21.9559 18.4185H24.207L22.3858 19.7416L23.0815 17.6007Z" fill="white"/>
<path d="M23.0815 21.151L23.7771 23.2919L21.9559 21.9687H24.207L22.3858 23.2919L23.0815 21.151Z" fill="white"/>
<path d="M23.0815 24.7014L23.7771 26.8422L21.9559 25.5191H24.207L22.3858 26.8422L23.0815 24.7014Z" fill="white"/>
<path d="M18.2885 10.5L18.9841 12.6409L17.163 11.3177H19.414L17.5929 12.6409L18.2885 10.5Z" fill="white"/>
<path d="M18.2885 14.0502L18.9841 16.1911L17.163 14.868H19.414L17.5929 16.1911L18.2885 14.0502Z" fill="white"/>
<path d="M16.04 12.2751L16.7356 14.416L14.9144 13.0928H17.1655L15.3443 14.416L16.04 12.2751Z" fill="white"/>
<path d="M16.04 15.8847L16.7356 18.0256L14.9144 16.7024H17.1655L15.3443 18.0256L16.04 15.8847Z" fill="white"/>
<path d="M16.04 19.4941L16.7356 21.635L14.9144 20.3119H17.1655L15.3443 21.635L16.04 19.4941Z" fill="white"/>
<path d="M16.04 23.1038L16.7356 25.2446L14.9144 23.9215H17.1655L15.3443 25.2446L16.04 23.1038Z" fill="white"/>
<path d="M18.2885 17.6007L18.9841 19.7416L17.163 18.4185H19.414L17.5929 19.7416L18.2885 17.6007Z" fill="white"/>
<path d="M18.2885 21.151L18.9841 23.2919L17.163 21.9687H19.414L17.5929 23.2919L18.2885 21.151Z" fill="white"/>
<path d="M18.2885 24.7014L18.9841 26.8422L17.163 25.5191H19.414L17.5929 26.8422L18.2885 24.7014Z" fill="white"/>
<path d="M13.4955 10.5L14.1911 12.6409L12.37 11.3177H14.6211L12.7999 12.6409L13.4955 10.5Z" fill="white"/>
<path d="M13.4955 14.0502L14.1911 16.1911L12.37 14.868H14.6211L12.7999 16.1911L13.4955 14.0502Z" fill="white"/>
<path d="M11.247 12.2751L11.9426 14.416L10.1215 13.0928H12.3725L10.5514 14.416L11.247 12.2751Z" fill="white"/>
<path d="M11.247 15.8847L11.9426 18.0256L10.1215 16.7024H12.3725L10.5514 18.0256L11.247 15.8847Z" fill="white"/>
<path d="M11.247 19.4941L11.9426 21.635L10.1215 20.3119H12.3725L10.5514 21.635L11.247 19.4941Z" fill="white"/>
<path d="M11.247 23.1038L11.9426 25.2446L10.1215 23.9215H12.3725L10.5514 25.2446L11.247 23.1038Z" fill="white"/>
<path d="M13.4955 17.6007L14.1911 19.7416L12.37 18.4185H14.6211L12.7999 19.7416L13.4955 17.6007Z" fill="white"/>
<path d="M13.4955 21.151L14.1911 23.2919L12.37 21.9687H14.6211L12.7999 23.2919L13.4955 21.151Z" fill="white"/>
<path d="M13.4955 24.7014L14.1911 26.8422L12.37 25.5191H14.6211L12.7999 26.8422L13.4955 24.7014Z" fill="white"/>
<path d="M8.70255 10.5L9.39817 12.6409L7.57703 11.3177H9.82808L8.00694 12.6409L8.70255 10.5Z" fill="white"/>
<path d="M8.70255 14.0502L9.39817 16.1911L7.57703 14.868H9.82808L8.00694 16.1911L8.70255 14.0502Z" fill="white"/>
<path d="M6.45402 12.2751L7.14963 14.416L5.32849 13.0928H7.57955L5.7584 14.416L6.45402 12.2751Z" fill="white"/>
<path d="M6.45402 15.8847L7.14963 18.0256L5.32849 16.7024H7.57955L5.7584 18.0256L6.45402 15.8847Z" fill="white"/>
<path d="M6.45402 19.4941L7.14963 21.635L5.32849 20.3119H7.57955L5.7584 21.635L6.45402 19.4941Z" fill="white"/>
<path d="M6.45402 23.1038L7.14963 25.2446L5.32849 23.9215H7.57955L5.7584 25.2446L6.45402 23.1038Z" fill="white"/>
<path d="M8.70255 17.6007L9.39817 19.7416L7.57703 18.4185H9.82808L8.00694 19.7416L8.70255 17.6007Z" fill="white"/>
<path d="M8.70255 21.151L9.39817 23.2919L7.57703 21.9687H9.82808L8.00694 23.2919L8.70255 21.151Z" fill="white"/>
<path d="M8.70255 24.7014L9.39817 26.8422L7.57703 25.5191H9.82808L8.00694 26.8422L8.70255 24.7014Z" fill="white"/>
</g>
</svg>
