<svg width="54" height="54" viewBox="0 0 54 54" fill="none" xmlns="http://www.w3.org/2000/svg">
<mask id="mask0_1_36487" style="mask-type:alpha" maskUnits="userSpaceOnUse" x="3" y="9" width="48" height="36">
<path d="M3.56934 18.1356C4.16681 13.4125 8.0415 10.0019 12.7861 9.60887C16.6412 9.28949 21.6196 9 27 9C32.3804 9 37.3588 9.28949 41.2139 9.60887C45.9585 10.0019 49.8332 13.4125 50.4307 18.1356C50.752 20.6759 51 23.704 51 27C51 30.296 50.752 33.3241 50.4307 35.8644C49.8332 40.5875 45.9585 43.9981 41.2139 44.3911C37.3588 44.7105 32.3804 45 27 45C21.6196 45 16.6412 44.7105 12.7861 44.3911C8.04151 43.9981 4.16681 40.5875 3.56934 35.8644C3.248 33.3241 3 30.296 3 27C3 23.704 3.248 20.6759 3.56934 18.1356Z" fill="#00D0BF"/>
</mask>
<g mask="url(#mask0_1_36487)">
<rect x="3" y="41" width="48" height="4" fill="#F5F5F5"/>
<rect x="3" y="37" width="48" height="4" fill="#3F6FEB"/>
<rect x="3" y="33" width="48" height="4" fill="#F5F5F5"/>
<rect x="3" y="29" width="48" height="4" fill="#3F6FEB"/>
<rect x="3" y="25" width="48" height="4" fill="#F5F5F5"/>
<rect x="3" y="21" width="48" height="4" fill="#3F6FEB"/>
<rect x="3" y="17" width="48" height="4" fill="#F5F5F5"/>
<rect x="3" y="13" width="48" height="4" fill="#3F6FEB"/>
<rect x="3" y="9" width="48" height="4" fill="#F5F5F5"/>
<rect x="3" y="9" width="20" height="20" fill="#F5F5F5"/>
<path d="M12.7973 21.0797L13.3612 21.9217C11.0443 23.5983 12.4588 24.5898 10.8169 25.1265C11.8381 24.1299 10.6819 23.9762 11.5423 21.8991" fill="#FCD95E"/>
<path d="M12.7973 21.0797L13.3612 21.9217C11.0443 23.5983 12.4588 24.5898 10.8169 25.1265C11.8381 24.1299 10.6819 23.9762 11.5423 21.8991" stroke="#7B3F00" stroke-width="0.112382" stroke-miterlimit="20" stroke-linecap="square"/>
<path d="M11.791 20.3868L11.5213 21.4314C8.7379 20.7857 8.91052 22.6106 7.4316 21.6905C8.85357 21.7922 8.24802 20.7553 10.3837 19.9624" fill="#FCD95E"/>
<path d="M11.791 20.3868L11.5213 21.4314C8.7379 20.7857 8.91052 22.6106 7.4316 21.6905C8.85357 21.7922 8.24802 20.7553 10.3837 19.9624" stroke="#7B3F00" stroke-width="0.112417" stroke-miterlimit="20" stroke-linecap="square"/>
<path d="M11.7962 20.3486L11.362 20.2347L11.3651 20.2548C10.1679 20.4961 9.49197 20.988 8.96346 21.361C8.69908 21.5474 8.47117 21.7057 8.23065 21.7842C8.07129 21.8373 7.90348 21.8488 7.74088 21.8179C8.92002 22.3634 8.95167 20.7929 11.5248 21.4105L11.7962 20.3486Z" fill="#7B3F00" stroke="#7B3F00" stroke-width="0.0511496" stroke-miterlimit="20" stroke-linecap="square"/>
<path d="M11.3071 20.2143C8.92736 20.7086 8.58206 22.2965 7.46393 21.7338" stroke="#7B3F00" stroke-width="0.112417" stroke-miterlimit="20"/>
<path d="M13.1829 19.4143L12.388 18.6194L8.81091 23.7863L13.9778 20.2092L13.1829 19.4143L8.81091 23.7863" fill="#FCD95E"/>
<path d="M13.1829 19.4143L12.388 18.6194L8.81091 23.7863L13.9778 20.2092L13.1829 19.4143L8.81091 23.7863" stroke="#7B3F00" stroke-width="0.112382" stroke-miterlimit="20"/>
<path d="M11.5763 18.9613L10.778 19.6093C8.93423 17.2459 8.04967 18.8063 7.39296 17.0934C8.46258 18.1201 8.54014 16.8844 10.6758 17.6773" fill="#FCD95E"/>
<path d="M11.5763 18.9613L10.778 19.6093C8.93423 17.2459 8.04967 18.8063 7.39296 17.0934C8.46258 18.1201 8.54014 16.8844 10.6758 17.6773" stroke="#7B3F00" stroke-width="0.112417" stroke-miterlimit="20" stroke-linecap="square"/>
<path d="M11.54 18.9464L11.2561 18.5612L11.2477 18.5793C10.1644 17.9591 9.36068 17.892 8.73852 17.8303C8.42738 17.7993 8.16042 17.7707 7.92658 17.67C7.77109 17.6041 7.6313 17.4994 7.51859 17.3645C8.16222 18.5987 9.03612 17.3702 10.7502 19.6074L11.54 18.9464Z" fill="#7B3F00" stroke="#7B3F00" stroke-width="0.0511496" stroke-miterlimit="20" stroke-linecap="square"/>
<path d="M11.2857 18.5789C9.12354 17.2774 8.07134 18.3128 7.4426 17.0594" stroke="#7B3F00" stroke-width="0.112417" stroke-miterlimit="20"/>
<path d="M13.183 19.4143V18.2901L7.00006 19.4143L13.183 20.5384V19.4143H7.00006Z" fill="#FCD95E"/>
<path d="M13.183 19.4143V18.2901L7.00006 19.4143L13.183 20.5384V19.4143ZM13.183 19.4143H7.00006" stroke="#7B3F00" stroke-width="0.112417" stroke-miterlimit="20"/>
<path d="M13.183 19.4142V20.5384V19.4142H7.00006L13.183 20.5384" fill="#7B3F00"/>
<path d="M12.278 17.9639L11.2839 17.7673C11.7366 14.9434 10.0353 15.2425 10.8168 13.702C10.7994 15.1288 11.7865 14.5663 12.6469 16.6435" fill="#FCD95E"/>
<path d="M12.278 17.9639L11.2839 17.7673C11.7366 14.9434 10.0353 15.2425 10.8168 13.702C10.7994 15.1288 11.7865 14.5663 12.6469 16.6435" stroke="#7B3F00" stroke-width="0.112417" stroke-miterlimit="20" stroke-linecap="square"/>
<path d="M12.2777 17.964L12.3579 17.5191L12.3395 17.5237C12.0486 16.3367 11.5566 15.6922 11.1826 15.1874C10.9957 14.9349 10.8367 14.717 10.7506 14.4808C10.6926 14.3243 10.6723 14.1563 10.6915 13.9905C10.2562 15.2158 11.7055 15.1347 11.2835 17.7674L12.2777 17.964Z" fill="#7B3F00" stroke="#7B3F00" stroke-width="0.0511496" stroke-miterlimit="20" stroke-linecap="square"/>
<path d="M12.3941 17.5102C11.8082 15.1165 10.3963 14.8901 10.8167 13.702" stroke="#7B3F00" stroke-width="0.112417" stroke-miterlimit="20"/>
<path d="M13.183 19.4143L13.9779 18.6194L8.81102 15.0423L12.3881 20.2092L13.183 19.4143L8.81102 15.0423Z" fill="#FCD95E"/>
<path d="M13.183 19.4143L13.9779 18.6194L8.81102 15.0423L12.3881 20.2092L13.183 19.4143ZM13.183 19.4143L8.81102 15.0423" stroke="#7B3F00" stroke-width="0.112417" stroke-miterlimit="20"/>
<path d="M13.183 19.4142L12.3881 20.2092L13.183 19.4142L8.811 15.0423L12.3881 20.2092" fill="#7B3F00"/>
<path d="M13.6607 17.7934L12.9817 16.9849C15.3625 15.1806 13.7485 14.2708 15.4875 13.6425C14.4587 14.6948 15.7201 14.7939 14.9518 16.9158" fill="#FCD95E"/>
<path d="M13.6607 17.7934L12.9817 16.9849C15.3625 15.1806 13.7485 14.2708 15.4875 13.6425C14.4587 14.6948 15.7201 14.7939 14.9518 16.9158" stroke="#7B3F00" stroke-width="0.112417" stroke-miterlimit="20" stroke-linecap="square"/>
<path d="M13.6823 17.7657L14.0729 17.4881L14.054 17.4793C14.6691 16.4053 14.7206 15.6016 14.7705 14.9796C14.7956 14.6685 14.8192 14.4017 14.9178 14.1693C14.9823 14.0147 15.087 13.8765 15.2235 13.766C13.9664 14.3892 15.251 15.2856 12.9841 16.9634L13.6823 17.7657Z" fill="#7B3F00" stroke="#7B3F00" stroke-width="0.0511496" stroke-miterlimit="20" stroke-linecap="square"/>
<path d="M14.0382 17.5152C15.3496 15.3673 14.2298 14.2875 15.5329 13.6811" stroke="#7B3F00" stroke-width="0.112417" stroke-miterlimit="20"/>
<path d="M13.183 19.4142H14.3071L13.183 13.2313L12.0588 19.4142H13.183V13.2313Z" fill="#FCD95E"/>
<path d="M13.183 19.4142H14.3071L13.183 13.2313L12.0588 19.4142H13.183ZM13.183 19.4142V13.2313" stroke="#7B3F00" stroke-width="0.112417" stroke-miterlimit="20"/>
<path d="M13.183 19.4142H12.0588H13.183V13.2313L12.0588 19.4142" fill="#7B3F00"/>
<path d="M14.6332 18.5092L14.8299 17.5152C17.6538 17.9679 17.3547 16.2666 18.8952 17.0481C17.4684 17.0307 18.104 17.9743 16.0268 18.8347" fill="#FCD95E"/>
<path d="M14.6332 18.5092L14.8299 17.5152C17.6538 17.9679 17.3547 16.2666 18.8952 17.0481C17.4684 17.0307 18.104 17.9743 16.0268 18.8347" stroke="#7B3F00" stroke-width="0.112417" stroke-miterlimit="20" stroke-linecap="square"/>
<path d="M14.6331 18.5091L15.078 18.5892L15.0734 18.5708C16.2604 18.28 16.9049 17.7879 17.4097 17.4139C17.6622 17.227 17.8801 17.068 18.1163 16.9819C18.2728 16.9239 18.4408 16.9037 18.6066 16.9228C17.3813 16.4876 17.4624 17.9368 14.8297 17.5148L14.6331 18.5091Z" fill="#7B3F00" stroke="#7B3F00" stroke-width="0.0511496" stroke-miterlimit="20" stroke-linecap="square"/>
<path d="M15.087 18.6255C17.4807 18.0396 17.707 16.6277 18.8952 17.0481" stroke="#7B3F00" stroke-width="0.112417" stroke-miterlimit="20"/>
<path d="M13.183 19.4142L13.9779 20.2091L17.555 15.0422L12.3881 18.6193L13.183 19.4142L17.555 15.0422Z" fill="#FCD95E"/>
<path d="M13.183 19.4142L13.9779 20.2091L17.555 15.0422L12.3881 18.6193L13.183 19.4142ZM13.183 19.4142L17.555 15.0422" stroke="#7B3F00" stroke-width="0.112417" stroke-miterlimit="20"/>
<path d="M13.183 19.4141L12.3881 18.6192L13.183 19.4141L17.555 15.0421L12.3881 18.6192" fill="#7B3F00"/>
<path d="M14.7899 19.8673L15.5881 19.2192C17.4319 21.5828 18.3164 20.0223 18.9732 21.7352C17.9035 20.7085 17.8014 21.9333 15.6657 21.1404" fill="#FCD95E"/>
<path d="M14.7899 19.8673L15.5881 19.2192C17.4319 21.5828 18.3164 20.0223 18.9732 21.7352C17.9035 20.7085 17.8014 21.9333 15.6657 21.1404" stroke="#7B3F00" stroke-width="0.112417" stroke-miterlimit="20" stroke-linecap="square"/>
<path d="M14.8261 19.8822L15.11 20.2674L15.1184 20.2492C16.2017 20.8695 17.0054 20.9365 17.6276 20.9983C17.9387 21.0293 18.2057 21.0578 18.4395 21.1585C18.595 21.2244 18.7348 21.3291 18.8475 21.464C18.2039 20.2299 17.33 21.4584 15.6159 19.2211L14.8261 19.8822Z" fill="#7B3F00" stroke="#7B3F00" stroke-width="0.0511496" stroke-miterlimit="20" stroke-linecap="square"/>
<path d="M15.0802 20.2496C17.2424 21.5511 18.2946 20.5157 18.9234 21.7691" stroke="#7B3F00" stroke-width="0.112417" stroke-miterlimit="20"/>
<path d="M13.183 19.4143V20.5385L19.3659 19.4143L13.183 18.2901V19.4143H19.3659Z" fill="#FCD95E"/>
<path d="M13.183 19.4143V20.5385L19.3659 19.4143L13.183 18.2901V19.4143ZM13.183 19.4143H19.3659" stroke="#7B3F00" stroke-width="0.112417" stroke-miterlimit="20"/>
<path d="M13.183 19.4142V18.2901V19.4142H19.3659L13.183 18.2901" fill="#7B3F00"/>
<path d="M14.0879 20.8646L15.082 21.0613C14.6293 23.8852 16.3306 23.5861 15.5491 25.1266C15.5665 23.6998 14.6271 24.3606 13.7667 22.2834" fill="#FCD95E"/>
<path d="M14.0879 20.8646L15.082 21.0613C14.6293 23.8852 16.3306 23.5861 15.5491 25.1266C15.5665 23.6998 14.6271 24.3606 13.7667 22.2834" stroke="#7B3F00" stroke-width="0.112417" stroke-miterlimit="20" stroke-linecap="square"/>
<path d="M14.0881 20.8646L14.0079 21.3095L14.0263 21.3049C14.3172 22.4918 14.8093 23.1363 15.1832 23.6411C15.3702 23.8936 15.5292 24.1115 15.6153 24.3478C15.6733 24.5043 15.6935 24.6722 15.6743 24.838C16.1096 23.6127 14.6604 23.6938 15.0823 21.0611L14.0881 20.8646Z" fill="#7B3F00" stroke="#7B3F00" stroke-width="0.0511496" stroke-miterlimit="20" stroke-linecap="square"/>
<path d="M13.9717 21.3184C14.5576 23.7121 15.9696 23.9384 15.5491 25.1266" stroke="#7B3F00" stroke-width="0.112417" stroke-miterlimit="20"/>
<path d="M13.183 19.4143L12.3881 20.2092L17.555 23.7863L13.9779 18.6194L13.183 19.4143L17.555 23.7863Z" fill="#FCD95E"/>
<path d="M13.183 19.4143L12.3881 20.2092L17.555 23.7863L13.9779 18.6194L13.183 19.4143ZM13.183 19.4143L17.555 23.7863" stroke="#7B3F00" stroke-width="0.112417" stroke-miterlimit="20"/>
<path d="M13.183 19.4142L13.9779 18.6193L13.183 19.4142L17.555 23.7862L13.9779 18.6193" fill="#7B3F00"/>
<path d="M12.7975 21.0798L12.4262 21.3377L12.4425 21.3474C11.8089 22.3924 11.7011 23.1961 11.6086 23.8175C11.5622 24.1282 11.5206 24.3947 11.4144 24.6226C11.3447 24.7743 11.2403 24.9074 11.1095 25.0111C12.2837 24.4524 11.2016 23.485 13.3615 21.9218L12.7975 21.0798Z" fill="#7B3F00" stroke="#7B3F00" stroke-width="0.051133" stroke-miterlimit="20" stroke-linecap="square"/>
<path d="M12.3942 21.3184C11.1159 23.4252 11.9542 24.5837 10.8168 25.1265" stroke="#7B3F00" stroke-width="0.112382" stroke-miterlimit="20"/>
<path d="M13.1829 19.4142H12.0587L13.1829 25.5972L14.3071 19.4142H13.1829V25.5972Z" fill="#FCD95E"/>
<path d="M13.1829 19.4142H12.0587L13.1829 25.5972L14.3071 19.4142H13.1829ZM13.1829 19.4142V25.5972" stroke="#7B3F00" stroke-width="0.112382" stroke-miterlimit="20"/>
<path d="M13.183 19.4142H14.3072H13.183V25.5972L14.3072 19.4142" fill="#7B3F00"/>
<path d="M13.1829 19.4142L13.9778 20.2092L13.1829 19.4142L8.81091 23.7862L13.9778 20.2092" fill="#7B3F00"/>
<path d="M13.1829 21.4752C14.3211 21.4752 15.2439 20.5525 15.2439 19.4142C15.2439 18.276 14.3211 17.3533 13.1829 17.3533C12.0447 17.3533 11.1219 18.276 11.1219 19.4142C11.1219 20.5525 12.0447 21.4752 13.1829 21.4752Z" fill="#FCD95E" stroke="#7B3F00" stroke-width="0.112382" stroke-miterlimit="20"/>
<path d="M14.7005 18.5899C14.5694 18.7398 14.4944 18.4775 14.026 18.4775C13.5576 18.4775 13.4827 18.7585 13.4077 18.7023C13.3328 18.6461 13.8012 18.3088 13.9511 18.2901C14.101 18.2714 14.5319 18.4213 14.7005 18.5899ZM14.1572 18.7585C14.2883 18.8709 14.1759 19.1145 14.0447 19.1145C13.9136 19.1145 13.67 18.8897 13.7824 18.7398" fill="#7B3F00"/>
<path d="M13.5389 18.9271C13.5577 18.7023 13.745 18.6648 14.0448 18.6648C14.3446 18.6648 14.4757 18.8896 14.5882 18.9458C14.457 18.9458 14.3446 18.7585 14.0448 18.7585C13.745 18.7585 13.745 18.7585 13.5389 18.9458V18.9271ZM13.5951 18.9833C13.6701 18.8709 13.7638 19.0957 13.9699 19.0957C14.176 19.0957 14.2884 19.0395 14.4195 18.9458C14.5507 18.8522 14.2322 19.1707 14.0261 19.1707C13.82 19.1707 13.5389 19.0583 13.5951 18.9833" fill="#7B3F00"/>
<path d="M12.1337 18.7398C12.04 18.7773 11.8901 18.9646 12.1337 19.0958C11.9463 18.9646 12.0962 18.7773 12.1337 18.7398Z" fill="#7B3F00"/>
<path d="M14.2322 18.7398C14.2696 18.7773 14.4195 18.9646 14.2322 19.0958C14.4757 18.9646 14.3259 18.7773 14.2322 18.7398Z" fill="#7B3F00"/>
<path d="M12.8831 19.5454C12.7145 19.5829 12.7707 19.8265 12.6208 19.8452C12.4709 19.8639 12.396 20.0325 12.4147 20.0138C12.5084 19.9389 12.7145 19.8826 12.8644 19.8826C13.0143 19.8826 13.0517 19.9764 13.1829 19.9764C13.314 19.9764 13.3515 19.8826 13.5014 19.8826C13.6513 19.8826 13.8574 19.9389 13.9511 20.0138C13.9698 20.0325 13.8949 19.8639 13.745 19.8452C13.5951 19.8265 13.6513 19.5829 13.4827 19.5454C13.4827 19.6204 13.5388 19.6016 13.5576 19.714C13.5576 19.8077 13.389 19.8077 13.3515 19.714C13.389 19.8639 13.2766 19.8639 13.1829 19.8639C13.0892 19.8639 12.9768 19.8639 13.0143 19.714C12.9768 19.8077 12.8082 19.8077 12.8082 19.714C12.8269 19.6016 12.8831 19.6204 12.8831 19.5454Z" fill="#7B3F00"/>
<path d="M12.3023 20.1824C12.1524 20.2949 12.1149 20.3511 12.0962 20.4822C12.1411 20.4036 12.1632 20.3713 12.1973 20.325C12.1883 20.3211 12.1805 20.3176 12.1712 20.3136C12.1821 20.3149 12.1919 20.3166 12.2024 20.3181C12.225 20.2875 12.2452 20.261 12.3023 20.1824V20.1824Z" fill="#7B3F00"/>
<path d="M12.2023 20.3181C12.2018 20.3188 12.2005 20.3206 12.2 20.3213C12.2234 20.3267 12.2482 20.3293 12.2743 20.3294C12.2514 20.3253 12.2273 20.3215 12.2023 20.3181H12.2023Z" fill="#7B3F00"/>
<path d="M12.2743 20.3294C12.3911 20.35 12.4829 20.3769 12.5669 20.4041C12.6718 20.3963 12.8165 20.3698 13.1829 20.3698C13.5493 20.3698 13.6939 20.3963 13.7988 20.4041C13.8829 20.3769 13.9746 20.35 14.0914 20.3294C13.885 20.3301 13.6098 20.1824 13.4827 20.1824C13.3328 20.1824 13.2953 20.2199 13.1829 20.2199C13.0705 20.2199 13.033 20.1824 12.8831 20.1824C12.7559 20.1824 12.4808 20.3301 12.2743 20.3294Z" fill="#7B3F00"/>
<path d="M14.0914 20.3294C14.1175 20.3293 14.1423 20.3267 14.1658 20.3213C14.1652 20.3206 14.1639 20.3188 14.1634 20.3181C14.1384 20.3215 14.1143 20.3253 14.0914 20.3294H14.0914Z" fill="#7B3F00"/>
<path d="M14.1635 20.3181C14.174 20.3166 14.1838 20.315 14.1947 20.3136C14.1853 20.3176 14.1776 20.3211 14.1685 20.325C14.2027 20.3713 14.2247 20.4036 14.2697 20.4822C14.2509 20.3511 14.2135 20.2949 14.0636 20.1824C14.1207 20.261 14.1408 20.2875 14.1635 20.3181V20.3181Z" fill="#7B3F00"/>
<path d="M14.1685 20.325C14.1683 20.3246 14.1678 20.3239 14.1676 20.3237C13.972 20.3991 13.9032 20.4119 13.7989 20.4041C13.6212 20.4616 13.4748 20.5197 13.183 20.5197C12.8911 20.5197 12.7447 20.4616 12.567 20.4041C12.4627 20.4119 12.3939 20.3991 12.1983 20.3237C12.1981 20.3241 12.1976 20.3248 12.1974 20.325C12.786 20.5784 12.7216 20.6696 13.183 20.6696C13.6443 20.6696 13.5799 20.5784 14.1685 20.325H14.1685Z" fill="#7B3F00"/>
<path d="M12.1984 20.3237C12.1987 20.3231 12.1997 20.3218 12.2001 20.3213C12.1903 20.319 12.1805 20.317 12.1713 20.3136C12.182 20.3178 12.1884 20.3198 12.1984 20.3237Z" fill="#7B3F00"/>
<path d="M14.1675 20.3237C14.1775 20.3198 14.1839 20.3178 14.1946 20.3136C14.1854 20.3169 14.1755 20.319 14.1658 20.3213C14.1662 20.3218 14.1671 20.3231 14.1675 20.3237V20.3237Z" fill="#7B3F00"/>
<path d="M11.6653 18.5899C11.7965 18.7398 11.8714 18.4775 12.3398 18.4775C12.8082 18.4775 12.8832 18.7585 12.9581 18.7023C13.0331 18.6461 12.5647 18.3088 12.4148 18.2901C12.2649 18.2714 11.834 18.4213 11.6653 18.5899ZM12.2087 18.7585C12.0775 18.8709 12.1899 19.1145 12.3211 19.1145C12.4522 19.1145 12.6958 18.8897 12.5834 18.7398" fill="#7B3F00"/>
<path d="M12.8269 18.9271C12.8082 18.7023 12.6208 18.6648 12.321 18.6648C12.0213 18.6648 11.8901 18.8896 11.7777 18.9458C11.9088 18.9458 12.0213 18.7585 12.321 18.7585C12.6208 18.7585 12.6208 18.7585 12.8269 18.9458V18.9271ZM12.7707 18.9833C12.6958 18.8709 12.6021 19.0957 12.396 19.0957C12.1899 19.0957 12.0775 19.0395 11.9463 18.9458C11.8152 18.8522 12.1337 19.1707 12.3398 19.1707C12.5459 19.1707 12.8269 19.0583 12.7707 18.9833Z" fill="#7B3F00"/>
<path d="M13.183 20.8382C13.0893 20.8382 12.8457 20.8944 13.183 20.8944C13.5202 20.8944 13.2766 20.8382 13.183 20.8382Z" fill="#7B3F00"/>
</g>
</svg>
