<svg width="54" height="48" viewBox="0 0 54 48" fill="none" xmlns="http://www.w3.org/2000/svg">
<mask id="mask0_1_36487" style="mask-type:alpha" maskUnits="userSpaceOnUse" x="3" y="6" width="48" height="36">
<path d="M3.56934 15.1356C4.16681 10.4125 8.0415 7.00193 12.7861 6.60887C16.6412 6.28949 21.6196 6 27 6C32.3804 6 37.3588 6.28949 41.2139 6.60887C45.9585 7.00193 49.8332 10.4125 50.4307 15.1356C50.752 17.6759 51 20.704 51 24C51 27.296 50.752 30.3241 50.4307 32.8644C49.8332 37.5875 45.9585 40.9981 41.2139 41.3911C37.3588 41.7105 32.3804 42 27 42C21.6196 42 16.6412 41.7105 12.7861 41.3911C8.0415 40.9981 4.16681 37.5875 3.56934 32.8644C3.248 30.3241 3 27.296 3 24C3 20.704 3.248 17.6759 3.56934 15.1356Z" fill="#00D0BF"/>
</mask>
<g mask="url(#mask0_1_36487)">
<rect x="3" y="38" width="48" height="4" fill="#F5F5F5"/>
<rect x="3" y="34" width="48" height="4" fill="#3F6FEB"/>
<rect x="3" y="30" width="48" height="4" fill="#F5F5F5"/>
<rect x="3" y="26" width="48" height="4" fill="#3F6FEB"/>
<rect x="3" y="22" width="48" height="4" fill="#F5F5F5"/>
<rect x="3" y="18" width="48" height="4" fill="#3F6FEB"/>
<rect x="3" y="14" width="48" height="4" fill="#F5F5F5"/>
<rect x="3" y="10" width="48" height="4" fill="#3F6FEB"/>
<rect x="3" y="6" width="48" height="4" fill="#F5F5F5"/>
<rect x="3" y="6" width="20" height="20" fill="#F5F5F5"/>
<path d="M12.7972 18.0797L13.3611 18.9216C11.0442 20.5983 12.4587 21.5898 10.8168 22.1265C11.838 21.1299 10.6818 20.9762 11.5422 18.899" fill="#FCD95E"/>
<path d="M12.7972 18.0797L13.3611 18.9216C11.0442 20.5983 12.4587 21.5898 10.8168 22.1265C11.838 21.1299 10.6818 20.9762 11.5422 18.899" stroke="#7B3F00" stroke-width="0.112382" stroke-miterlimit="20" stroke-linecap="square"/>
<path d="M11.7632 17.4199L11.5283 18.4892C8.72558 17.749 8.95843 19.6344 7.45019 18.6464C8.87446 18.7894 8.23507 17.7045 10.3429 16.9446" fill="#FCD95E"/>
<path d="M11.7632 17.4199L11.5283 18.4892C8.72558 17.749 8.95843 19.6344 7.45019 18.6464C8.87446 18.7894 8.23507 17.7045 10.3429 16.9446" stroke="#7B3F00" stroke-width="0.112417" stroke-miterlimit="20" stroke-linecap="square"/>
<path d="M11.7668 17.3624L11.3277 17.2325L11.3315 17.2535C10.139 17.4714 9.47759 17.9632 8.96004 18.3357C8.70115 18.5219 8.47789 18.6799 8.23933 18.7549C8.0813 18.8056 7.91342 18.813 7.74934 18.7766C8.94984 19.374 8.92932 17.7463 11.53 18.4562L11.7668 17.3624Z" fill="#7B3F00" stroke="#7B3F00" stroke-width="0.0511496" stroke-miterlimit="20" stroke-linecap="square"/>
<path d="M11.295 17.219C8.90943 17.6747 8.61449 19.3369 7.46672 18.7142" stroke="#7B3F00" stroke-width="0.112417" stroke-miterlimit="20"/>
<path d="M13.1829 16.4143L12.388 15.6194L8.81091 20.7863L13.9778 17.2092L13.1829 16.4143L8.81091 20.7863Z" fill="#FCD95E"/>
<path d="M13.1829 16.4143L12.388 15.6194L8.81091 20.7863L13.9778 17.2092L13.1829 16.4143L8.81091 20.7863" stroke="#7B3F00" stroke-width="0.112382" stroke-miterlimit="20"/>
<path d="M11.5482 15.9282L10.7291 16.6176C8.96492 14.2313 8.02944 15.8633 7.42988 14.1156C8.46473 15.145 8.58309 13.8694 10.6909 14.6291" fill="#FCD95E"/>
<path d="M11.5482 15.9282L10.7291 16.6176C8.96492 14.2313 8.02944 15.8633 7.42988 14.1156C8.46473 15.145 8.58309 13.8694 10.6909 14.6291" stroke="#7B3F00" stroke-width="0.112417" stroke-miterlimit="20" stroke-linecap="square"/>
<path d="M11.5295 15.9076L11.2576 15.5158L11.2486 15.5348C10.183 14.9209 9.37931 14.8731 8.75751 14.8258C8.44655 14.8021 8.17982 14.7796 7.9487 14.6815C7.79497 14.6174 7.65829 14.5126 7.54976 14.3757C8.15408 15.6381 9.07123 14.3407 10.7155 16.6143L11.5295 15.9076Z" fill="#7B3F00" stroke="#7B3F00" stroke-width="0.0511496" stroke-miterlimit="20" stroke-linecap="square"/>
<path d="M11.2827 15.5592C9.14393 14.248 8.04676 15.3664 7.45438 14.0641" stroke="#7B3F00" stroke-width="0.112417" stroke-miterlimit="20"/>
<path d="M13.1829 16.4143V15.2901L6.99994 16.4143L13.1829 17.5384V16.4143H6.99994H13.1829Z" fill="#FCD95E"/>
<path d="M13.1829 16.4143V15.2901L6.99994 16.4143L13.1829 17.5384V16.4143ZM13.1829 16.4143H6.99994" stroke="#7B3F00" stroke-width="0.112417" stroke-miterlimit="20"/>
<path d="M13.1829 16.4142V17.5384V16.4142H6.99994L13.1829 17.5384" fill="#7B3F00"/>
<path d="M12.278 14.9639L11.2839 14.7672C11.7366 11.9433 10.0353 12.2424 10.8168 10.702C10.7994 12.1287 11.7865 11.5662 12.6469 13.6434" fill="#FCD95E"/>
<path d="M12.278 14.9639L11.2839 14.7672C11.7366 11.9433 10.0353 12.2424 10.8168 10.702C10.7994 12.1287 11.7865 11.5662 12.6469 13.6434" stroke="#7B3F00" stroke-width="0.112417" stroke-miterlimit="20" stroke-linecap="square"/>
<path d="M12.2777 14.9639L12.3579 14.519L12.3395 14.5236C12.0486 13.3367 11.5566 12.6922 11.1826 12.1874C10.9957 11.9348 10.8367 11.717 10.7506 11.4807C10.6926 11.3242 10.6723 11.1563 10.6915 10.9905C10.2562 12.2158 11.7055 12.1346 11.2835 14.7673L12.2777 14.9639Z" fill="#7B3F00" stroke="#7B3F00" stroke-width="0.0511496" stroke-miterlimit="20" stroke-linecap="square"/>
<path d="M12.3941 14.5101C11.8082 12.1164 10.3963 11.8901 10.8167 10.7019" stroke="#7B3F00" stroke-width="0.112417" stroke-miterlimit="20"/>
<path d="M13.1829 16.4143L13.9778 15.6194L8.81089 12.0423L12.388 17.2092L13.1829 16.4143L8.81089 12.0423L13.1829 16.4143Z" fill="#FCD95E"/>
<path d="M13.1829 16.4143L13.9778 15.6194L8.81089 12.0423L12.388 17.2092L13.1829 16.4143ZM13.1829 16.4143L8.81089 12.0423" stroke="#7B3F00" stroke-width="0.112417" stroke-miterlimit="20"/>
<path d="M13.1829 16.4142L12.388 17.2092L13.1829 16.4142L8.81088 12.0423L12.388 17.2092" fill="#7B3F00"/>
<path d="M13.6202 14.8157L12.9917 14.0239C15.3445 12.1559 13.818 11.2869 15.5144 10.6128C14.4889 11.693 15.7016 11.7595 14.8929 13.9036" fill="#FCD95E"/>
<path d="M13.6202 14.8157L12.9917 14.0239C15.3445 12.1559 13.818 11.2869 15.5144 10.6128C14.4889 11.693 15.7016 11.7595 14.8929 13.9036" stroke="#7B3F00" stroke-width="0.112417" stroke-miterlimit="20" stroke-linecap="square"/>
<path d="M13.6347 14.774L14.0172 14.4868L13.9995 14.4785C14.6223 13.3904 14.6972 12.5866 14.7649 11.9644C14.7989 11.6532 14.83 11.3861 14.9318 11.1516C14.9984 10.9956 15.1031 10.8549 15.2372 10.7411C14.0147 11.3956 15.2148 12.2575 12.9925 13.9909L13.6347 14.774Z" fill="#7B3F00" stroke="#7B3F00" stroke-width="0.0511496" stroke-miterlimit="20" stroke-linecap="square"/>
<path d="M14.0137 14.5174C15.3129 12.3511 14.2964 11.3069 15.5388 10.6717" stroke="#7B3F00" stroke-width="0.112417" stroke-miterlimit="20"/>
<path d="M13.1828 16.4142H14.307L13.1828 10.2313L12.0587 16.4142H13.1828V10.2313V16.4142Z" fill="#FCD95E"/>
<path d="M13.1828 16.4142H14.307L13.1828 10.2313L12.0587 16.4142H13.1828ZM13.1828 16.4142V10.2313" stroke="#7B3F00" stroke-width="0.112417" stroke-miterlimit="20"/>
<path d="M13.1829 16.4142H12.0587H13.1829V10.2313L12.0587 16.4142" fill="#7B3F00"/>
<path d="M14.6332 15.5092L14.8299 14.5151C17.6538 14.9678 17.3547 13.2665 18.8952 14.048C17.4684 14.0306 18.104 14.9742 16.0268 15.8346" fill="#FCD95E"/>
<path d="M14.6332 15.5092L14.8299 14.5151C17.6538 14.9678 17.3547 13.2665 18.8952 14.048C17.4684 14.0306 18.104 14.9742 16.0268 15.8346" stroke="#7B3F00" stroke-width="0.112417" stroke-miterlimit="20" stroke-linecap="square"/>
<path d="M14.6331 15.509L15.078 15.5892L15.0734 15.5708C16.2604 15.2799 16.9049 14.7878 17.4097 14.4139C17.6622 14.2269 17.8801 14.0679 18.1163 13.9818C18.2728 13.9238 18.4408 13.9036 18.6066 13.9228C17.3813 13.4875 17.4624 14.9368 14.8297 14.5148L14.6331 15.509Z" fill="#7B3F00" stroke="#7B3F00" stroke-width="0.0511496" stroke-miterlimit="20" stroke-linecap="square"/>
<path d="M15.087 15.6255C17.4807 15.0396 17.707 13.6276 18.8952 14.0481" stroke="#7B3F00" stroke-width="0.112417" stroke-miterlimit="20"/>
<path d="M13.1829 16.4142L13.9778 17.2091L17.5549 12.0422L12.388 15.6193L13.1829 16.4142L17.5549 12.0422L13.1829 16.4142Z" fill="#FCD95E"/>
<path d="M13.1829 16.4142L13.9778 17.2091L17.5549 12.0422L12.388 15.6193L13.1829 16.4142ZM13.1829 16.4142L17.5549 12.0422" stroke="#7B3F00" stroke-width="0.112417" stroke-miterlimit="20"/>
<path d="M13.1829 16.4141L12.388 15.6192L13.1829 16.4141L17.5548 12.0421L12.388 15.6192" fill="#7B3F00"/>
<path d="M14.8176 16.9003L15.6366 16.2109C17.4008 18.5973 18.3363 16.9652 18.9359 18.713C17.901 17.6835 17.7584 18.9487 15.6506 18.1889" fill="#FCD95E"/>
<path d="M14.8176 16.9003L15.6366 16.2109C17.4008 18.5973 18.3363 16.9652 18.9359 18.713C17.901 17.6835 17.7584 18.9487 15.6506 18.1889" stroke="#7B3F00" stroke-width="0.112417" stroke-miterlimit="20" stroke-linecap="square"/>
<path d="M14.8362 16.9209L15.1081 17.3126L15.1172 17.2936C16.1827 17.9075 16.9864 17.9554 17.6082 18.0026C17.9192 18.0264 18.1859 18.0488 18.417 18.1469C18.5707 18.2111 18.7074 18.3158 18.816 18.4527C18.2116 17.1904 17.2945 18.4878 15.6502 16.2141L14.8362 16.9209Z" fill="#7B3F00" stroke="#7B3F00" stroke-width="0.0511496" stroke-miterlimit="20" stroke-linecap="square"/>
<path d="M15.083 17.2691C17.2218 18.5804 18.319 17.4619 18.9113 18.7643" stroke="#7B3F00" stroke-width="0.112417" stroke-miterlimit="20"/>
<path d="M13.1829 16.4143V17.5385L19.3658 16.4143L13.1829 15.2901V16.4143H19.3658H13.1829Z" fill="#FCD95E"/>
<path d="M13.1829 16.4143V17.5385L19.3658 16.4143L13.1829 15.2901V16.4143ZM13.1829 16.4143H19.3658" stroke="#7B3F00" stroke-width="0.112417" stroke-miterlimit="20"/>
<path d="M13.1829 16.4142V15.29V16.4142H19.3658L13.1829 15.29" fill="#7B3F00"/>
<path d="M14.0878 17.8645L15.0819 18.0611C14.6292 20.885 16.3305 20.5859 15.549 22.1264C15.5664 20.6996 14.627 21.3604 13.7666 19.2833" fill="#FCD95E"/>
<path d="M14.0878 17.8645L15.0819 18.0611C14.6292 20.885 16.3305 20.5859 15.549 22.1264C15.5664 20.6996 14.627 21.3604 13.7666 19.2833" stroke="#7B3F00" stroke-width="0.112417" stroke-miterlimit="20" stroke-linecap="square"/>
<path d="M14.088 17.8644L14.0078 18.3093L14.0262 18.3048C14.3171 19.4917 14.8091 20.1362 15.1831 20.641C15.37 20.8935 15.529 21.1114 15.6151 21.3477C15.6731 21.5042 15.6934 21.6721 15.6742 21.8379C16.1095 20.6126 14.6602 20.6937 15.0822 18.061L14.088 17.8644Z" fill="#7B3F00" stroke="#7B3F00" stroke-width="0.0511496" stroke-miterlimit="20" stroke-linecap="square"/>
<path d="M13.9716 18.3183C14.5575 20.712 15.9694 20.9383 15.549 22.1264" stroke="#7B3F00" stroke-width="0.112417" stroke-miterlimit="20"/>
<path d="M13.1828 16.4142L12.3879 17.2091L17.5548 20.7862L13.9778 15.6193L13.1828 16.4142L17.5548 20.7862L13.1828 16.4142Z" fill="#FCD95E"/>
<path d="M13.1828 16.4142L12.3879 17.2091L17.5548 20.7862L13.9778 15.6193L13.1828 16.4142ZM13.1828 16.4142L17.5548 20.7862" stroke="#7B3F00" stroke-width="0.112417" stroke-miterlimit="20"/>
<path d="M13.1829 16.4142L13.9778 15.6193L13.1829 16.4142L17.5548 20.7862L13.9778 15.6193" fill="#7B3F00"/>
<path d="M12.7974 18.0798L12.4261 18.3377L12.4424 18.3474C11.8087 19.3924 11.701 20.1961 11.6084 20.8175C11.5621 21.1282 11.5204 21.3947 11.4142 21.6226C11.3446 21.7743 11.2402 21.9074 11.1094 22.0111C12.2836 21.4524 11.2014 20.485 13.3614 18.9218L12.7974 18.0798Z" fill="#7B3F00" stroke="#7B3F00" stroke-width="0.051133" stroke-miterlimit="20" stroke-linecap="square"/>
<path d="M12.3942 18.3183C11.1159 20.4252 11.9542 21.5836 10.8168 22.1265" stroke="#7B3F00" stroke-width="0.112382" stroke-miterlimit="20"/>
<path d="M13.1829 16.4142H12.0587L13.1829 22.5971L14.3071 16.4142H13.1829V22.5971V16.4142Z" fill="#FCD95E"/>
<path d="M13.1829 16.4142H12.0587L13.1829 22.5971L14.3071 16.4142H13.1829ZM13.1829 16.4142V22.5971" stroke="#7B3F00" stroke-width="0.112382" stroke-miterlimit="20"/>
<path d="M13.1829 16.4142H14.307H13.1829V22.5972L14.307 16.4142" fill="#7B3F00"/>
<path d="M13.1829 16.4142L13.9778 17.2092L13.1829 16.4142L8.81091 20.7862L13.9778 17.2092" fill="#7B3F00"/>
<path d="M13.1829 18.4752C14.3211 18.4752 15.2439 17.5525 15.2439 16.4142C15.2439 15.276 14.3211 14.3533 13.1829 14.3533C12.0447 14.3533 11.1219 15.276 11.1219 16.4142C11.1219 17.5525 12.0447 18.4752 13.1829 18.4752Z" fill="#FCD95E" stroke="#7B3F00" stroke-width="0.112382" stroke-miterlimit="20"/>
<path d="M14.7005 15.5898C14.5694 15.7397 14.4944 15.4774 14.026 15.4774C13.5576 15.4774 13.4827 15.7584 13.4077 15.7022C13.3328 15.646 13.8012 15.3088 13.9511 15.29C14.101 15.2713 14.5319 15.4212 14.7005 15.5898ZM14.1572 15.7584C14.2883 15.8709 14.1759 16.1144 14.0447 16.1144C13.9136 16.1144 13.67 15.8896 13.7824 15.7397" fill="#7B3F00"/>
<path d="M13.5389 15.927C13.5577 15.7022 13.745 15.6647 14.0448 15.6647C14.3446 15.6647 14.4757 15.8896 14.5882 15.9458C14.457 15.9458 14.3446 15.7584 14.0448 15.7584C13.745 15.7584 13.745 15.7584 13.5389 15.9458V15.927ZM13.5951 15.9832C13.6701 15.8708 13.7638 16.0957 13.9699 16.0957C14.176 16.0957 14.2884 16.0395 14.4195 15.9458C14.5507 15.8521 14.2322 16.1706 14.0261 16.1706C13.82 16.1706 13.5389 16.0582 13.5951 15.9832Z" fill="#7B3F00"/>
<path d="M12.1337 15.7397C12.04 15.7772 11.8901 15.9646 12.1337 16.0957C11.9463 15.9646 12.0962 15.7772 12.1337 15.7397Z" fill="#7B3F00"/>
<path d="M14.2322 15.7397C14.2696 15.7772 14.4195 15.9646 14.2322 16.0957C14.4757 15.9646 14.3259 15.7772 14.2322 15.7397Z" fill="#7B3F00"/>
<path d="M12.8831 16.5453C12.7145 16.5828 12.7707 16.8264 12.6208 16.8451C12.4709 16.8639 12.396 17.0325 12.4147 17.0138C12.5084 16.9388 12.7145 16.8826 12.8644 16.8826C13.0143 16.8826 13.0517 16.9763 13.1829 16.9763C13.314 16.9763 13.3515 16.8826 13.5014 16.8826C13.6513 16.8826 13.8574 16.9388 13.9511 17.0138C13.9698 17.0325 13.8949 16.8639 13.745 16.8451C13.5951 16.8264 13.6513 16.5828 13.4827 16.5453C13.4827 16.6203 13.5388 16.6016 13.5576 16.714C13.5576 16.8076 13.389 16.8076 13.3515 16.714C13.389 16.8639 13.2766 16.8639 13.1829 16.8639C13.0892 16.8639 12.9768 16.8639 13.0143 16.714C12.9768 16.8076 12.8082 16.8076 12.8082 16.714C12.8269 16.6016 12.8831 16.6203 12.8831 16.5453Z" fill="#7B3F00"/>
<path d="M12.3023 17.1824C12.1524 17.2948 12.1149 17.351 12.0962 17.4822C12.1411 17.4035 12.1632 17.3712 12.1973 17.3249C12.1883 17.3211 12.1805 17.3175 12.1712 17.3135C12.1821 17.3148 12.1919 17.3165 12.2024 17.318C12.225 17.2874 12.2452 17.2609 12.3023 17.1824V17.1824Z" fill="#7B3F00"/>
<path d="M12.2023 17.318C12.2018 17.3187 12.2005 17.3205 12.2 17.3212C12.2234 17.3267 12.2482 17.3292 12.2743 17.3293C12.2514 17.3253 12.2273 17.3215 12.2023 17.318H12.2023Z" fill="#7B3F00"/>
<path d="M12.2743 17.3293C12.3911 17.3499 12.4829 17.3768 12.5669 17.404C12.6718 17.3963 12.8165 17.3697 13.1829 17.3697C13.5493 17.3697 13.6939 17.3963 13.7988 17.404C13.8829 17.3768 13.9746 17.3499 14.0914 17.3293C13.885 17.3301 13.6098 17.1824 13.4827 17.1824C13.3328 17.1824 13.2953 17.2198 13.1829 17.2198C13.0705 17.2198 13.033 17.1824 12.8831 17.1824C12.7559 17.1824 12.4808 17.3301 12.2743 17.3293Z" fill="#7B3F00"/>
<path d="M14.0914 17.3293C14.1175 17.3292 14.1423 17.3267 14.1658 17.3212C14.1652 17.3205 14.1639 17.3187 14.1634 17.318C14.1384 17.3215 14.1143 17.3253 14.0914 17.3293H14.0914Z" fill="#7B3F00"/>
<path d="M14.1635 17.318C14.174 17.3165 14.1838 17.3149 14.1947 17.3135C14.1853 17.3175 14.1776 17.3211 14.1685 17.3249C14.2027 17.3712 14.2247 17.4035 14.2697 17.4822C14.2509 17.351 14.2135 17.2948 14.0636 17.1824C14.1207 17.2609 14.1408 17.2874 14.1635 17.318V17.318Z" fill="#7B3F00"/>
<path d="M14.1685 17.325C14.1683 17.3246 14.1678 17.3239 14.1676 17.3237C13.972 17.399 13.9032 17.4118 13.7989 17.4041C13.6212 17.4615 13.4748 17.5197 13.183 17.5197C12.8911 17.5197 12.7447 17.4615 12.567 17.4041C12.4627 17.4118 12.3939 17.399 12.1983 17.3237C12.1981 17.324 12.1976 17.3248 12.1974 17.325C12.786 17.5783 12.7216 17.6695 13.183 17.6695C13.6443 17.6695 13.5799 17.5783 14.1685 17.325H14.1685Z" fill="#7B3F00"/>
<path d="M12.1984 17.3236C12.1987 17.3231 12.1997 17.3218 12.2001 17.3212C12.1903 17.319 12.1805 17.3169 12.1713 17.3135C12.182 17.3177 12.1884 17.3198 12.1984 17.3236Z" fill="#7B3F00"/>
<path d="M14.1675 17.3236C14.1775 17.3198 14.1839 17.3177 14.1946 17.3135C14.1854 17.3169 14.1755 17.319 14.1658 17.3212C14.1662 17.3218 14.1671 17.3231 14.1675 17.3236V17.3236Z" fill="#7B3F00"/>
<path d="M11.6653 15.5898C11.7965 15.7397 11.8714 15.4774 12.3398 15.4774C12.8082 15.4774 12.8832 15.7584 12.9581 15.7022C13.0331 15.646 12.5647 15.3088 12.4148 15.29C12.2649 15.2713 11.834 15.4212 11.6653 15.5898ZM12.2087 15.7584C12.0775 15.8709 12.1899 16.1144 12.3211 16.1144C12.4522 16.1144 12.6958 15.8896 12.5834 15.7397" fill="#7B3F00"/>
<path d="M12.8269 15.927C12.8082 15.7022 12.6208 15.6647 12.321 15.6647C12.0213 15.6647 11.8901 15.8896 11.7777 15.9458C11.9088 15.9458 12.0213 15.7584 12.321 15.7584C12.6208 15.7584 12.6208 15.7584 12.8269 15.9458V15.927ZM12.7707 15.9832C12.6958 15.8708 12.6021 16.0957 12.396 16.0957C12.1899 16.0957 12.0775 16.0395 11.9463 15.9458C11.8152 15.8521 12.1337 16.1706 12.3398 16.1706C12.5459 16.1706 12.8269 16.0582 12.7707 15.9832Z" fill="#7B3F00"/>
<path d="M13.183 17.8381C13.0893 17.8381 12.8457 17.8943 13.183 17.8943C13.5202 17.8943 13.2766 17.8381 13.183 17.8381Z" fill="#7B3F00"/>
</g>
</svg>
