<svg width="54" height="54" viewBox="0 0 54 54" fill="none" xmlns="http://www.w3.org/2000/svg">
<mask id="mask0_1_36407" style="mask-type:alpha" maskUnits="userSpaceOnUse" x="3" y="9" width="48" height="36">
<path d="M3.56934 18.1356C4.16681 13.4125 8.0415 10.0019 12.7861 9.60887C16.6412 9.28949 21.6196 9 27 9C32.3804 9 37.3588 9.28949 41.2139 9.60887C45.9585 10.0019 49.8332 13.4125 50.4307 18.1356C50.752 20.6759 51 23.704 51 27C51 30.296 50.752 33.3241 50.4307 35.8644C49.8332 40.5875 45.9585 43.9981 41.2139 44.3911C37.3588 44.7105 32.3804 45 27 45C21.6196 45 16.6412 44.7105 12.7861 44.3911C8.04151 43.9981 4.16681 40.5875 3.56934 35.8644C3.248 33.3241 3 30.296 3 27C3 23.704 3.248 20.6759 3.56934 18.1356Z" fill="#00D0BF"/>
</mask>
<g mask="url(#mask0_1_36407)">
<rect x="1.15381" y="36.6923" width="51.6924" height="2.76923" fill="#EE5757"/>
<rect x="1.15381" y="33.9231" width="51.6924" height="2.76923" fill="#F5F5F5"/>
<rect x="1.15381" y="42.2307" width="51.6924" height="2.76923" fill="#EE5757"/>
<rect x="1.15381" y="31.1539" width="51.6924" height="2.76923" fill="#EE5757"/>
<rect x="1.15381" y="39.4615" width="51.6924" height="2.76923" fill="#F5F5F5"/>
<rect x="1.15381" y="28.3846" width="51.6924" height="2.76923" fill="#F5F5F5"/>
<rect x="1.15381" y="25.6154" width="51.6924" height="2.76923" fill="#EE5757"/>
<rect x="1.15381" y="22.8462" width="51.6924" height="2.76923" fill="#F5F5F5"/>
<rect x="1.15381" y="20.0768" width="51.6924" height="2.76923" fill="#EE5757"/>
<rect x="1.15381" y="17.3076" width="51.6924" height="2.76923" fill="#F5F5F5"/>
<rect x="1.15381" y="14.5385" width="51.6924" height="2.76923" fill="#EE5757"/>
<rect x="1.15381" y="11.7692" width="51.6924" height="2.76923" fill="#F5F5F5"/>
<rect x="1.15381" y="9" width="51.6924" height="2.76923" fill="#EE5757"/>
<rect x="3" y="9" width="27" height="19.38" fill="#2E50A6"/>
<path d="M3.91825 10.5L4.61387 12.6409L2.79272 11.3177H5.04378L3.22264 12.6409L3.91825 10.5Z" fill="white"/>
<path d="M3.91825 14.0502L4.61387 16.1911L2.79272 14.868H5.04378L3.22264 16.1911L3.91825 14.0502Z" fill="white"/>
<path d="M3.91825 17.6007L4.61387 19.7416L2.79272 18.4185H5.04378L3.22264 19.7416L3.91825 17.6007Z" fill="white"/>
<path d="M3.91825 21.151L4.61387 23.2919L2.79272 21.9687H5.04378L3.22264 23.2919L3.91825 21.151Z" fill="white"/>
<path d="M3.91825 24.7014L4.61387 26.8422L2.79272 25.5191H5.04378L3.22264 26.8422L3.91825 24.7014Z" fill="white"/>
<path d="M27.8746 10.5L28.5702 12.6409L26.749 11.3177H29.0001L27.1789 12.6409L27.8746 10.5Z" fill="white"/>
<path d="M27.8746 14.0502L28.5702 16.1911L26.749 14.868H29.0001L27.1789 16.1911L27.8746 14.0502Z" fill="white"/>
<path d="M25.6259 12.2751L26.3215 14.416L24.5004 13.0928H26.7514L24.9303 14.416L25.6259 12.2751Z" fill="white"/>
<path d="M25.6259 15.8847L26.3215 18.0256L24.5004 16.7024H26.7514L24.9303 18.0256L25.6259 15.8847Z" fill="white"/>
<path d="M25.6259 19.4941L26.3215 21.635L24.5004 20.3119H26.7514L24.9303 21.635L25.6259 19.4941Z" fill="white"/>
<path d="M25.6259 23.1038L26.3215 25.2446L24.5004 23.9215H26.7514L24.9303 25.2446L25.6259 23.1038Z" fill="white"/>
<path d="M27.8746 17.6007L28.5702 19.7416L26.749 18.4185H29.0001L27.1789 19.7416L27.8746 17.6007Z" fill="white"/>
<path d="M27.8746 21.151L28.5702 23.2919L26.749 21.9687H29.0001L27.1789 23.2919L27.8746 21.151Z" fill="white"/>
<path d="M27.8746 24.7014L28.5702 26.8422L26.749 25.5191H29.0001L27.1789 26.8422L27.8746 24.7014Z" fill="white"/>
<path d="M23.0815 10.5L23.7771 12.6409L21.9559 11.3177H24.207L22.3858 12.6409L23.0815 10.5Z" fill="white"/>
<path d="M23.0815 14.0502L23.7771 16.1911L21.9559 14.868H24.207L22.3858 16.1911L23.0815 14.0502Z" fill="white"/>
<path d="M20.8329 12.2751L21.5285 14.416L19.7074 13.0928H21.9585L20.1373 14.416L20.8329 12.2751Z" fill="white"/>
<path d="M20.8329 15.8847L21.5285 18.0256L19.7074 16.7024H21.9585L20.1373 18.0256L20.8329 15.8847Z" fill="white"/>
<path d="M20.8329 19.4941L21.5285 21.635L19.7074 20.3119H21.9585L20.1373 21.635L20.8329 19.4941Z" fill="white"/>
<path d="M20.8329 23.1038L21.5285 25.2446L19.7074 23.9215H21.9585L20.1373 25.2446L20.8329 23.1038Z" fill="white"/>
<path d="M23.0815 17.6007L23.7771 19.7416L21.9559 18.4185H24.207L22.3858 19.7416L23.0815 17.6007Z" fill="white"/>
<path d="M23.0815 21.151L23.7771 23.2919L21.9559 21.9687H24.207L22.3858 23.2919L23.0815 21.151Z" fill="white"/>
<path d="M23.0815 24.7014L23.7771 26.8422L21.9559 25.5191H24.207L22.3858 26.8422L23.0815 24.7014Z" fill="white"/>
<path d="M18.2886 10.5L18.9842 12.6409L17.1631 11.3177H19.4141L17.593 12.6409L18.2886 10.5Z" fill="white"/>
<path d="M18.2886 14.0502L18.9842 16.1911L17.1631 14.868H19.4141L17.593 16.1911L18.2886 14.0502Z" fill="white"/>
<path d="M16.0401 12.2751L16.7357 14.416L14.9146 13.0928H17.1656L15.3445 14.416L16.0401 12.2751Z" fill="white"/>
<path d="M16.0401 15.8847L16.7357 18.0256L14.9146 16.7024H17.1656L15.3445 18.0256L16.0401 15.8847Z" fill="white"/>
<path d="M16.0401 19.4941L16.7357 21.635L14.9146 20.3119H17.1656L15.3445 21.635L16.0401 19.4941Z" fill="white"/>
<path d="M16.0401 23.1038L16.7357 25.2446L14.9146 23.9215H17.1656L15.3445 25.2446L16.0401 23.1038Z" fill="white"/>
<path d="M18.2886 17.6007L18.9842 19.7416L17.1631 18.4185H19.4141L17.593 19.7416L18.2886 17.6007Z" fill="white"/>
<path d="M18.2886 21.151L18.9842 23.2919L17.1631 21.9687H19.4141L17.593 23.2919L18.2886 21.151Z" fill="white"/>
<path d="M18.2886 24.7014L18.9842 26.8422L17.1631 25.5191H19.4141L17.593 26.8422L18.2886 24.7014Z" fill="white"/>
<path d="M13.4956 10.5L14.1913 12.6409L12.3701 11.3177H14.6212L12.8 12.6409L13.4956 10.5Z" fill="white"/>
<path d="M13.4956 14.0502L14.1913 16.1911L12.3701 14.868H14.6212L12.8 16.1911L13.4956 14.0502Z" fill="white"/>
<path d="M11.2471 12.2751L11.9427 14.416L10.1216 13.0928H12.3726L10.5515 14.416L11.2471 12.2751Z" fill="white"/>
<path d="M11.2471 15.8847L11.9427 18.0256L10.1216 16.7024H12.3726L10.5515 18.0256L11.2471 15.8847Z" fill="white"/>
<path d="M11.2471 19.4941L11.9427 21.635L10.1216 20.3119H12.3726L10.5515 21.635L11.2471 19.4941Z" fill="white"/>
<path d="M11.2471 23.1038L11.9427 25.2446L10.1216 23.9215H12.3726L10.5515 25.2446L11.2471 23.1038Z" fill="white"/>
<path d="M13.4956 17.6007L14.1913 19.7416L12.3701 18.4185H14.6212L12.8 19.7416L13.4956 17.6007Z" fill="white"/>
<path d="M13.4956 21.151L14.1913 23.2919L12.3701 21.9687H14.6212L12.8 23.2919L13.4956 21.151Z" fill="white"/>
<path d="M13.4956 24.7014L14.1913 26.8422L12.3701 25.5191H14.6212L12.8 26.8422L13.4956 24.7014Z" fill="white"/>
<path d="M8.70268 10.5L9.39829 12.6409L7.57715 11.3177H9.8282L8.00706 12.6409L8.70268 10.5Z" fill="white"/>
<path d="M8.70268 14.0502L9.39829 16.1911L7.57715 14.868H9.8282L8.00706 16.1911L8.70268 14.0502Z" fill="white"/>
<path d="M6.45402 12.2751L7.14963 14.416L5.32849 13.0928H7.57955L5.7584 14.416L6.45402 12.2751Z" fill="white"/>
<path d="M6.45402 15.8847L7.14963 18.0256L5.32849 16.7024H7.57955L5.7584 18.0256L6.45402 15.8847Z" fill="white"/>
<path d="M6.45402 19.4941L7.14963 21.635L5.32849 20.3119H7.57955L5.7584 21.635L6.45402 19.4941Z" fill="white"/>
<path d="M6.45402 23.1038L7.14963 25.2446L5.32849 23.9215H7.57955L5.7584 25.2446L6.45402 23.1038Z" fill="white"/>
<path d="M8.70268 17.6007L9.39829 19.7416L7.57715 18.4185H9.8282L8.00706 19.7416L8.70268 17.6007Z" fill="white"/>
<path d="M8.70268 21.151L9.39829 23.2919L7.57715 21.9687H9.8282L8.00706 23.2919L8.70268 21.151Z" fill="white"/>
<path d="M8.70268 24.7014L9.39829 26.8422L7.57715 25.5191H9.8282L8.00706 26.8422L8.70268 24.7014Z" fill="white"/>
</g>
</svg>
