<svg width="54" height="48" viewBox="0 0 54 48" fill="none" xmlns="http://www.w3.org/2000/svg">
<mask id="mask0_1_36407" style="mask-type:alpha" maskUnits="userSpaceOnUse" x="3" y="6" width="48" height="36">
<path d="M3.56934 15.1356C4.16681 10.4125 8.0415 7.00193 12.7861 6.60887C16.6412 6.28949 21.6196 6 27 6C32.3804 6 37.3588 6.28949 41.2139 6.60887C45.9585 7.00193 49.8332 10.4125 50.4307 15.1356C50.752 17.6759 51 20.704 51 24C51 27.296 50.752 30.3241 50.4307 32.8644C49.8332 37.5875 45.9585 40.9981 41.2139 41.3911C37.3588 41.7105 32.3804 42 27 42C21.6196 42 16.6412 41.7105 12.7861 41.3911C8.0415 40.9981 4.16681 37.5875 3.56934 32.8644C3.248 30.3241 3 27.296 3 24C3 20.704 3.248 17.6759 3.56934 15.1356Z" fill="#00D0BF"/>
</mask>
<g mask="url(#mask0_1_36407)">
<rect x="1.15381" y="33.6923" width="51.6924" height="2.76923" fill="#EE5757"/>
<rect x="1.15381" y="30.9231" width="51.6924" height="2.76923" fill="#F5F5F5"/>
<rect x="1.15381" y="39.2307" width="51.6924" height="2.76923" fill="#EE5757"/>
<rect x="1.15381" y="28.1539" width="51.6924" height="2.76923" fill="#EE5757"/>
<rect x="1.15381" y="36.4615" width="51.6924" height="2.76923" fill="#F5F5F5"/>
<rect x="1.15381" y="25.3846" width="51.6924" height="2.76923" fill="#F5F5F5"/>
<rect x="1.15381" y="22.6154" width="51.6924" height="2.76923" fill="#EE5757"/>
<rect x="1.15381" y="19.8462" width="51.6924" height="2.76923" fill="#F5F5F5"/>
<rect x="1.15381" y="17.0768" width="51.6924" height="2.76923" fill="#EE5757"/>
<rect x="1.15381" y="14.3076" width="51.6924" height="2.76923" fill="#F5F5F5"/>
<rect x="1.15381" y="11.5385" width="51.6924" height="2.76923" fill="#EE5757"/>
<rect x="1.15381" y="8.76923" width="51.6924" height="2.76923" fill="#F5F5F5"/>
<rect x="1.15381" y="6" width="51.6924" height="2.76923" fill="#EE5757"/>
<rect x="3" y="6" width="27" height="19.38" fill="#2E50A6"/>
<path d="M3.91825 7.5L4.61387 9.64088L2.79272 8.31774H5.04378L3.22264 9.64088L3.91825 7.5Z" fill="white"/>
<path d="M3.91825 11.0502L4.61387 13.1911L2.79272 11.868H5.04378L3.22264 13.1911L3.91825 11.0502Z" fill="white"/>
<path d="M3.91825 14.6007L4.61387 16.7416L2.79272 15.4185H5.04378L3.22264 16.7416L3.91825 14.6007Z" fill="white"/>
<path d="M3.91825 18.151L4.61387 20.2919L2.79272 18.9687H5.04378L3.22264 20.2919L3.91825 18.151Z" fill="white"/>
<path d="M3.91825 21.7014L4.61387 23.8422L2.79272 22.5191H5.04378L3.22264 23.8422L3.91825 21.7014Z" fill="white"/>
<path d="M27.8746 7.5L28.5702 9.64088L26.749 8.31774H29.0001L27.1789 9.64088L27.8746 7.5Z" fill="white"/>
<path d="M27.8746 11.0502L28.5702 13.1911L26.749 11.868H29.0001L27.1789 13.1911L27.8746 11.0502Z" fill="white"/>
<path d="M25.6259 9.27509L26.3215 11.416L24.5004 10.0928H26.7514L24.9303 11.416L25.6259 9.27509Z" fill="white"/>
<path d="M25.6259 12.8847L26.3215 15.0256L24.5004 13.7024H26.7514L24.9303 15.0256L25.6259 12.8847Z" fill="white"/>
<path d="M25.6259 16.4941L26.3215 18.635L24.5004 17.3119H26.7514L24.9303 18.635L25.6259 16.4941Z" fill="white"/>
<path d="M25.6259 20.1038L26.3215 22.2446L24.5004 20.9215H26.7514L24.9303 22.2446L25.6259 20.1038Z" fill="white"/>
<path d="M27.8746 14.6007L28.5702 16.7416L26.749 15.4185H29.0001L27.1789 16.7416L27.8746 14.6007Z" fill="white"/>
<path d="M27.8746 18.151L28.5702 20.2919L26.749 18.9687H29.0001L27.1789 20.2919L27.8746 18.151Z" fill="white"/>
<path d="M27.8746 21.7014L28.5702 23.8422L26.749 22.5191H29.0001L27.1789 23.8422L27.8746 21.7014Z" fill="white"/>
<path d="M23.0815 7.5L23.7771 9.64088L21.9559 8.31774H24.207L22.3858 9.64088L23.0815 7.5Z" fill="white"/>
<path d="M23.0815 11.0502L23.7771 13.1911L21.9559 11.868H24.207L22.3858 13.1911L23.0815 11.0502Z" fill="white"/>
<path d="M20.8329 9.27509L21.5285 11.416L19.7074 10.0928H21.9585L20.1373 11.416L20.8329 9.27509Z" fill="white"/>
<path d="M20.8329 12.8847L21.5285 15.0256L19.7074 13.7024H21.9585L20.1373 15.0256L20.8329 12.8847Z" fill="white"/>
<path d="M20.8329 16.4941L21.5285 18.635L19.7074 17.3119H21.9585L20.1373 18.635L20.8329 16.4941Z" fill="white"/>
<path d="M20.8329 20.1038L21.5285 22.2446L19.7074 20.9215H21.9585L20.1373 22.2446L20.8329 20.1038Z" fill="white"/>
<path d="M23.0815 14.6007L23.7771 16.7416L21.9559 15.4185H24.207L22.3858 16.7416L23.0815 14.6007Z" fill="white"/>
<path d="M23.0815 18.151L23.7771 20.2919L21.9559 18.9687H24.207L22.3858 20.2919L23.0815 18.151Z" fill="white"/>
<path d="M23.0815 21.7014L23.7771 23.8422L21.9559 22.5191H24.207L22.3858 23.8422L23.0815 21.7014Z" fill="white"/>
<path d="M18.2886 7.5L18.9842 9.64088L17.1631 8.31774H19.4141L17.593 9.64088L18.2886 7.5Z" fill="white"/>
<path d="M18.2886 11.0502L18.9842 13.1911L17.1631 11.868H19.4141L17.593 13.1911L18.2886 11.0502Z" fill="white"/>
<path d="M16.0401 9.27509L16.7357 11.416L14.9146 10.0928H17.1656L15.3445 11.416L16.0401 9.27509Z" fill="white"/>
<path d="M16.0401 12.8847L16.7357 15.0256L14.9146 13.7024H17.1656L15.3445 15.0256L16.0401 12.8847Z" fill="white"/>
<path d="M16.0401 16.4941L16.7357 18.635L14.9146 17.3119H17.1656L15.3445 18.635L16.0401 16.4941Z" fill="white"/>
<path d="M16.0401 20.1038L16.7357 22.2446L14.9146 20.9215H17.1656L15.3445 22.2446L16.0401 20.1038Z" fill="white"/>
<path d="M18.2886 14.6007L18.9842 16.7416L17.1631 15.4185H19.4141L17.593 16.7416L18.2886 14.6007Z" fill="white"/>
<path d="M18.2886 18.151L18.9842 20.2919L17.1631 18.9687H19.4141L17.593 20.2919L18.2886 18.151Z" fill="white"/>
<path d="M18.2886 21.7014L18.9842 23.8422L17.1631 22.5191H19.4141L17.593 23.8422L18.2886 21.7014Z" fill="white"/>
<path d="M13.4956 7.5L14.1913 9.64088L12.3701 8.31774H14.6212L12.8 9.64088L13.4956 7.5Z" fill="white"/>
<path d="M13.4956 11.0502L14.1913 13.1911L12.3701 11.868H14.6212L12.8 13.1911L13.4956 11.0502Z" fill="white"/>
<path d="M11.2471 9.27509L11.9427 11.416L10.1216 10.0928H12.3726L10.5515 11.416L11.2471 9.27509Z" fill="white"/>
<path d="M11.2471 12.8847L11.9427 15.0256L10.1216 13.7024H12.3726L10.5515 15.0256L11.2471 12.8847Z" fill="white"/>
<path d="M11.2471 16.4941L11.9427 18.635L10.1216 17.3119H12.3726L10.5515 18.635L11.2471 16.4941Z" fill="white"/>
<path d="M11.2471 20.1038L11.9427 22.2446L10.1216 20.9215H12.3726L10.5515 22.2446L11.2471 20.1038Z" fill="white"/>
<path d="M13.4956 14.6007L14.1913 16.7416L12.3701 15.4185H14.6212L12.8 16.7416L13.4956 14.6007Z" fill="white"/>
<path d="M13.4956 18.151L14.1913 20.2919L12.3701 18.9687H14.6212L12.8 20.2919L13.4956 18.151Z" fill="white"/>
<path d="M13.4956 21.7014L14.1913 23.8422L12.3701 22.5191H14.6212L12.8 23.8422L13.4956 21.7014Z" fill="white"/>
<path d="M8.70268 7.5L9.39829 9.64088L7.57715 8.31774H9.8282L8.00706 9.64088L8.70268 7.5Z" fill="white"/>
<path d="M8.70268 11.0502L9.39829 13.1911L7.57715 11.868H9.8282L8.00706 13.1911L8.70268 11.0502Z" fill="white"/>
<path d="M6.45402 9.27509L7.14963 11.416L5.32849 10.0928H7.57955L5.7584 11.416L6.45402 9.27509Z" fill="white"/>
<path d="M6.45402 12.8847L7.14963 15.0256L5.32849 13.7024H7.57955L5.7584 15.0256L6.45402 12.8847Z" fill="white"/>
<path d="M6.45402 16.4941L7.14963 18.635L5.32849 17.3119H7.57955L5.7584 18.635L6.45402 16.4941Z" fill="white"/>
<path d="M6.45402 20.1038L7.14963 22.2446L5.32849 20.9215H7.57955L5.7584 22.2446L6.45402 20.1038Z" fill="white"/>
<path d="M8.70268 14.6007L9.39829 16.7416L7.57715 15.4185H9.8282L8.00706 16.7416L8.70268 14.6007Z" fill="white"/>
<path d="M8.70268 18.151L9.39829 20.2919L7.57715 18.9687H9.8282L8.00706 20.2919L8.70268 18.151Z" fill="white"/>
<path d="M8.70268 21.7014L9.39829 23.8422L7.57715 22.5191H9.8282L8.00706 23.8422L8.70268 21.7014Z" fill="white"/>
</g>
</svg>
