<svg width="54" height="54" viewBox="0 0 54 54" fill="none" xmlns="http://www.w3.org/2000/svg">
<mask id="mask0_1_36588" style="mask-type:alpha" maskUnits="userSpaceOnUse" x="3" y="9" width="48" height="36">
<path d="M3.56934 18.1356C4.16681 13.4125 8.0415 10.0019 12.7861 9.60887C16.6412 9.28949 21.6196 9 27 9C32.3804 9 37.3588 9.28949 41.2139 9.60887C45.9585 10.0019 49.8332 13.4125 50.4307 18.1356C50.752 20.6759 51 23.704 51 27C51 30.296 50.752 33.3241 50.4307 35.8644C49.8332 40.5875 45.9585 43.9981 41.2139 44.3911C37.3588 44.7105 32.3804 45 27 45C21.6196 45 16.6412 44.7105 12.7861 44.3911C8.04151 43.9981 4.16681 40.5875 3.56934 35.8644C3.248 33.3241 3 30.296 3 27C3 23.704 3.248 20.6759 3.56934 18.1356Z" fill="#00D0BF"/>
</mask>
<g mask="url(#mask0_1_36588)">
<rect x="3" y="33" width="48" height="12" fill="#59C785"/>
<rect x="3" y="9" width="48" height="12" fill="#18BEBE"/>
<path d="M15.1737 16.8915L15.3631 17.4745H15.9762L15.4802 17.8348L15.6696 18.4178L15.1737 18.0575L14.6778 18.4178L14.8672 17.8348L14.3713 17.4745H14.9843L15.1737 16.8915Z" fill="#F5F5F5"/>
<path d="M17.5487 16.8915L17.7381 17.4745H18.3512L17.8552 17.8348L18.0446 18.4178L17.5487 18.0575L17.0528 18.4178L17.2422 17.8348L16.7463 17.4745H17.3593L17.5487 16.8915Z" fill="#F5F5F5"/>
<path d="M17.5487 14.3602L17.7381 14.9432H18.3512L17.8552 15.3036L18.0446 15.8866L17.5487 15.5263L17.0528 15.8866L17.2422 15.3036L16.7463 14.9432H17.3593L17.5487 14.3602Z" fill="#F5F5F5"/>
<path d="M19.9237 16.8915L20.1131 17.4745H20.7262L20.2302 17.8348L20.4196 18.4178L19.9237 18.0575L19.4278 18.4178L19.6172 17.8348L19.1213 17.4745H19.7343L19.9237 16.8915Z" fill="#F5F5F5"/>
<path d="M19.9237 14.3602L20.1131 14.9432H20.7262L20.2302 15.3036L20.4196 15.8866L19.9237 15.5263L19.4278 15.8866L19.6172 15.3036L19.1213 14.9432H19.7343L19.9237 14.3602Z" fill="#F5F5F5"/>
<path d="M19.9237 11.829L20.1131 12.412H20.7262L20.2302 12.7723L20.4196 13.3553L19.9237 12.995L19.4278 13.3553L19.6172 12.7723L19.1213 12.412H19.7343L19.9237 11.829Z" fill="#F5F5F5"/>
<path d="M22.2987 16.8915L22.4881 17.4745H23.1012L22.6052 17.8348L22.7946 18.4178L22.2987 18.0575L21.8028 18.4178L21.9922 17.8348L21.4963 17.4745H22.1093L22.2987 16.8915Z" fill="#F5F5F5"/>
<path d="M22.2987 14.3602L22.4881 14.9432H23.1012L22.6052 15.3036L22.7946 15.8866L22.2987 15.5263L21.8028 15.8866L21.9922 15.3036L21.4963 14.9432H22.1093L22.2987 14.3602Z" fill="#F5F5F5"/>
<path d="M22.2987 11.829L22.4881 12.412H23.1012L22.6052 12.7723L22.7946 13.3553L22.2987 12.995L21.8028 13.3553L21.9922 12.7723L21.4963 12.412H22.1093L22.2987 11.829Z" fill="#F5F5F5"/>
<path d="M24.6737 16.8915L24.8631 17.4745H25.4762L24.9802 17.8348L25.1696 18.4178L24.6737 18.0575L24.1778 18.4178L24.3672 17.8348L23.8713 17.4745H24.4843L24.6737 16.8915Z" fill="#F5F5F5"/>
<path d="M24.6737 14.3602L24.8631 14.9432H25.4762L24.9802 15.3036L25.1696 15.8866L24.6737 15.5263L24.1778 15.8866L24.3672 15.3036L23.8713 14.9432H24.4843L24.6737 14.3602Z" fill="#F5F5F5"/>
<path d="M24.6737 11.829L24.8631 12.412H25.4762L24.9802 12.7723L25.1696 13.3553L24.6737 12.995L24.1778 13.3553L24.3672 12.7723L23.8713 12.412H24.4843L24.6737 11.829Z" fill="#F5F5F5"/>
<path fill-rule="evenodd" clip-rule="evenodd" d="M13.5 11.0665C11.7467 11.3991 10.421 12.9395 10.421 14.7895C10.421 16.6395 11.7467 18.1799 13.5 18.5125C13.2698 18.5561 13.0323 18.579 12.7895 18.579C10.6966 18.579 9 16.8823 9 14.7895C9 12.6966 10.6966 11 12.7895 11C13.0323 11 13.2698 11.0228 13.5 11.0665Z" fill="#F5F5F5"/>
<rect x="-0.5" y="20.5" width="55" height="13" fill="#F5F5F5" stroke="#EE5757"/>
</g>
</svg>
