<svg width="54" height="48" viewBox="0 0 54 48" fill="none" xmlns="http://www.w3.org/2000/svg">
<mask id="mask0_1_36588" style="mask-type:alpha" maskUnits="userSpaceOnUse" x="3" y="6" width="48" height="36">
<path d="M3.56934 15.1356C4.16681 10.4125 8.0415 7.00193 12.7861 6.60887C16.6412 6.28949 21.6196 6 27 6C32.3804 6 37.3588 6.28949 41.2139 6.60887C45.9585 7.00193 49.8332 10.4125 50.4307 15.1356C50.752 17.6759 51 20.704 51 24C51 27.296 50.752 30.3241 50.4307 32.8644C49.8332 37.5875 45.9585 40.9981 41.2139 41.3911C37.3588 41.7105 32.3804 42 27 42C21.6196 42 16.6412 41.7105 12.7861 41.3911C8.0415 40.9981 4.16681 37.5875 3.56934 32.8644C3.248 30.3241 3 27.296 3 24C3 20.704 3.248 17.6759 3.56934 15.1356Z" fill="#00D0BF"/>
</mask>
<g mask="url(#mask0_1_36588)">
<rect x="3" y="30" width="48" height="12" fill="#59C785"/>
<rect x="3" y="6" width="48" height="12" fill="#18BEBE"/>
<path d="M15.1737 14.079L15.3631 14.5972H15.9762L15.4802 14.9175L15.6696 15.4357L15.1737 15.1155L14.6778 15.4357L14.8672 14.9175L14.3713 14.5972H14.9843L15.1737 14.079Z" fill="#F5F5F5"/>
<path d="M17.5487 14.079L17.7381 14.5972H18.3512L17.8552 14.9175L18.0446 15.4357L17.5487 15.1155L17.0528 15.4357L17.2422 14.9175L16.7463 14.5972H17.3593L17.5487 14.079Z" fill="#F5F5F5"/>
<path d="M17.5487 11.829L17.7381 12.3472H18.3512L17.8552 12.6675L18.0446 13.1857L17.5487 12.8655L17.0528 13.1857L17.2422 12.6675L16.7463 12.3472H17.3593L17.5487 11.829Z" fill="#F5F5F5"/>
<path d="M19.9237 14.079L20.1131 14.5972H20.7262L20.2302 14.9175L20.4196 15.4357L19.9237 15.1155L19.4278 15.4357L19.6172 14.9175L19.1213 14.5972H19.7343L19.9237 14.079Z" fill="#F5F5F5"/>
<path d="M19.9237 11.829L20.1131 12.3472H20.7262L20.2302 12.6675L20.4196 13.1857L19.9237 12.8655L19.4278 13.1857L19.6172 12.6675L19.1213 12.3472H19.7343L19.9237 11.829Z" fill="#F5F5F5"/>
<path d="M19.9237 9.57898L20.1131 10.0972H20.7262L20.2302 10.4175L20.4196 10.9357L19.9237 10.6155L19.4278 10.9357L19.6172 10.4175L19.1213 10.0972H19.7343L19.9237 9.57898Z" fill="#F5F5F5"/>
<path d="M22.2987 14.079L22.4881 14.5972H23.1012L22.6052 14.9175L22.7946 15.4357L22.2987 15.1155L21.8028 15.4357L21.9922 14.9175L21.4963 14.5972H22.1093L22.2987 14.079Z" fill="#F5F5F5"/>
<path d="M22.2987 11.829L22.4881 12.3472H23.1012L22.6052 12.6675L22.7946 13.1857L22.2987 12.8655L21.8028 13.1857L21.9922 12.6675L21.4963 12.3472H22.1093L22.2987 11.829Z" fill="#F5F5F5"/>
<path d="M22.2987 9.57898L22.4881 10.0972H23.1012L22.6052 10.4175L22.7946 10.9357L22.2987 10.6155L21.8028 10.9357L21.9922 10.4175L21.4963 10.0972H22.1093L22.2987 9.57898Z" fill="#F5F5F5"/>
<path d="M24.6737 14.079L24.8631 14.5972H25.4762L24.9802 14.9175L25.1696 15.4357L24.6737 15.1155L24.1778 15.4357L24.3672 14.9175L23.8713 14.5972H24.4843L24.6737 14.079Z" fill="#F5F5F5"/>
<path d="M24.6737 11.829L24.8631 12.3472H25.4762L24.9802 12.6675L25.1696 13.1857L24.6737 12.8655L24.1778 13.1857L24.3672 12.6675L23.8713 12.3472H24.4843L24.6737 11.829Z" fill="#F5F5F5"/>
<path d="M24.6737 9.57898L24.8631 10.0972H25.4762L24.9802 10.4175L25.1696 10.9357L24.6737 10.6155L24.1778 10.9357L24.3672 10.4175L23.8713 10.0972H24.4843L24.6737 9.57898Z" fill="#F5F5F5"/>
<path fill-rule="evenodd" clip-rule="evenodd" d="M13.5 8.0665C11.7467 8.39907 10.421 9.93946 10.421 11.7895C10.421 13.6395 11.7467 15.1799 13.5 15.5125C13.2698 15.5561 13.0323 15.579 12.7895 15.579C10.6966 15.579 9 13.8823 9 11.7895C9 9.69661 10.6966 8 12.7895 8C13.0323 8 13.2698 8.02284 13.5 8.0665Z" fill="#F5F5F5"/>
<rect x="-0.5" y="17.5" width="55" height="13" fill="#F5F5F5" stroke="#EE5757"/>
</g>
</svg>
