<svg width="54" height="54" viewBox="0 0 54 54" fill="none" xmlns="http://www.w3.org/2000/svg">
<mask id="mask0_1_31606" style="mask-type:alpha" maskUnits="userSpaceOnUse" x="3" y="9" width="48" height="36">
<path d="M3.56934 18.1356C4.16681 13.4125 8.0415 10.0019 12.7861 9.60887C16.6412 9.28949 21.6196 9 27 9C32.3804 9 37.3588 9.28949 41.2139 9.60887C45.9585 10.0019 49.8332 13.4125 50.4307 18.1356C50.752 20.6759 51 23.704 51 27C51 30.296 50.752 33.3241 50.4307 35.8644C49.8332 40.5875 45.9585 43.9981 41.2139 44.3911C37.3588 44.7105 32.3804 45 27 45C21.6196 45 16.6412 44.7105 12.7861 44.3911C8.04151 43.9981 4.16681 40.5875 3.56934 35.8644C3.248 33.3241 3 30.296 3 27C3 23.704 3.248 20.6759 3.56934 18.1356Z" fill="#00D0BF"/>
</mask>
<g mask="url(#mask0_1_31606)">
<rect x="3" y="33" width="48" height="12" fill="#EE5757"/>
<rect x="3" y="21" width="48" height="12" fill="#2E50A6"/>
<path d="M24.9773 22L25.29 22.9624H26.302L25.4833 23.5573L25.796 24.5197L24.9773 23.9249L24.1586 24.5197L24.4713 23.5573L23.6526 22.9624H24.6646L24.9773 22Z" fill="#F5F5F5"/>
<path d="M28.5227 22L28.8355 22.9624H29.8474L29.0287 23.5573L29.3414 24.5197L28.5227 23.9249L27.704 24.5197L28.0168 23.5573L27.1981 22.9624H28.21L28.5227 22Z" fill="#F5F5F5"/>
<path d="M32.5114 23.3063L32.301 24.2961L33.1774 24.8021L32.1709 24.9079L31.9605 25.8978L31.5489 24.9733L30.5425 25.0791L31.2945 24.4019L30.8829 23.4774L31.7593 23.9834L32.5114 23.3063Z" fill="#F5F5F5"/>
<path d="M35.1937 25.9886L34.5166 26.7406L35.0226 27.617L34.0981 27.2054L33.421 27.9575L33.5267 26.951L32.6023 26.5394L33.5921 26.329L33.6979 25.3226L34.2039 26.199L35.1937 25.9886Z" fill="#F5F5F5"/>
<path d="M36.5 29.9773L35.5376 30.29L35.5376 31.302L34.9427 30.4833L33.9803 30.796L34.5751 29.9773L33.9803 29.1586L34.9427 29.4713L35.5376 28.6526L35.5376 29.6646L36.5 29.9773Z" fill="#F5F5F5"/>
<path d="M17 29.9773L17.9624 29.6645L17.9624 28.6526L18.5573 29.4713L19.5197 29.1586L18.9249 29.9773L19.5197 30.796L18.5573 30.4832L17.9624 31.3019L17.9624 30.29L17 29.9773Z" fill="#F5F5F5"/>
<path d="M18.3062 25.9887L19.2961 26.1991L19.8021 25.3227L19.9079 26.3291L20.8977 26.5395L19.9732 26.9511L20.079 27.9576L19.4019 27.2055L18.4774 27.6171L18.9834 26.7407L18.3062 25.9887Z" fill="#F5F5F5"/>
<path d="M20.9887 23.3064L21.7407 23.9835L22.6171 23.4775L22.2055 24.402L22.9575 25.0792L21.9511 24.9734L21.5395 25.8979L21.3291 24.908L20.3227 24.8022L21.1991 24.2962L20.9887 23.3064Z" fill="#F5F5F5"/>
<rect x="3" y="9" width="48" height="12" fill="#FCD95E"/>
</g>
</svg>
