<svg width="54" height="48" viewBox="0 0 54 48" fill="none" xmlns="http://www.w3.org/2000/svg">
<mask id="mask0_1_31606" style="mask-type:alpha" maskUnits="userSpaceOnUse" x="3" y="6" width="48" height="36">
<path d="M3.56934 15.1356C4.16681 10.4125 8.0415 7.00193 12.7861 6.60887C16.6412 6.28949 21.6196 6 27 6C32.3804 6 37.3588 6.28949 41.2139 6.60887C45.9585 7.00193 49.8332 10.4125 50.4307 15.1356C50.752 17.6759 51 20.704 51 24C51 27.296 50.752 30.3241 50.4307 32.8644C49.8332 37.5875 45.9585 40.9981 41.2139 41.3911C37.3588 41.7105 32.3804 42 27 42C21.6196 42 16.6412 41.7105 12.7861 41.3911C8.0415 40.9981 4.16681 37.5875 3.56934 32.8644C3.248 30.3241 3 27.296 3 24C3 20.704 3.248 17.6759 3.56934 15.1356Z" fill="#00D0BF"/>
</mask>
<g mask="url(#mask0_1_31606)">
<rect x="3" y="30" width="48" height="12" fill="#EE5757"/>
<rect x="3" y="18" width="48" height="12" fill="#2E50A6"/>
<path d="M24.9773 19L25.29 19.9624H26.302L25.4833 20.5573L25.796 21.5197L24.9773 20.9249L24.1586 21.5197L24.4713 20.5573L23.6526 19.9624H24.6646L24.9773 19Z" fill="#F5F5F5"/>
<path d="M28.5227 19L28.8355 19.9624H29.8474L29.0287 20.5573L29.3414 21.5197L28.5227 20.9249L27.704 21.5197L28.0168 20.5573L27.1981 19.9624H28.21L28.5227 19Z" fill="#F5F5F5"/>
<path d="M32.5114 20.3063L32.301 21.2961L33.1774 21.8021L32.1709 21.9079L31.9605 22.8978L31.5489 21.9733L30.5425 22.0791L31.2945 21.4019L30.8829 20.4774L31.7593 20.9834L32.5114 20.3063Z" fill="#F5F5F5"/>
<path d="M35.1937 22.9886L34.5166 23.7406L35.0226 24.617L34.0981 24.2054L33.421 24.9575L33.5267 23.951L32.6023 23.5394L33.5921 23.329L33.6979 22.3226L34.2039 23.199L35.1937 22.9886Z" fill="#F5F5F5"/>
<path d="M36.5 26.9773L35.5376 27.29L35.5376 28.302L34.9427 27.4833L33.9803 27.796L34.5751 26.9773L33.9803 26.1586L34.9427 26.4713L35.5376 25.6526L35.5376 26.6646L36.5 26.9773Z" fill="#F5F5F5"/>
<path d="M17 26.9773L17.9624 26.6645L17.9624 25.6526L18.5573 26.4713L19.5197 26.1586L18.9249 26.9773L19.5197 27.796L18.5573 27.4832L17.9624 28.3019L17.9624 27.29L17 26.9773Z" fill="#F5F5F5"/>
<path d="M18.3062 22.9887L19.2961 23.1991L19.8021 22.3227L19.9079 23.3291L20.8977 23.5395L19.9732 23.9511L20.079 24.9576L19.4019 24.2055L18.4774 24.6171L18.9834 23.7407L18.3062 22.9887Z" fill="#F5F5F5"/>
<path d="M20.9887 20.3064L21.7407 20.9835L22.6171 20.4775L22.2055 21.402L22.9575 22.0792L21.9511 21.9734L21.5395 22.8979L21.3291 21.908L20.3227 21.8022L21.1991 21.2962L20.9887 20.3064Z" fill="#F5F5F5"/>
<rect x="3" y="6" width="48" height="12" fill="#FCD95E"/>
</g>
</svg>
