<svg width="54" height="54" viewBox="0 0 54 54" fill="none" xmlns="http://www.w3.org/2000/svg">
<mask id="mask0_1_31631" style="mask-type:alpha" maskUnits="userSpaceOnUse" x="3" y="9" width="48" height="36">
<path d="M3.56934 18.1356C4.16681 13.4125 8.0415 10.0019 12.7861 9.60887C16.6412 9.28949 21.6196 9 27 9C32.3804 9 37.3588 9.28949 41.2139 9.60887C45.9585 10.0019 49.8332 13.4125 50.4307 18.1356C50.752 20.6759 51 23.704 51 27C51 30.296 50.752 33.3241 50.4307 35.8644C49.8332 40.5875 45.9585 43.9981 41.2139 44.3911C37.3588 44.7105 32.3804 45 27 45C21.6196 45 16.6412 44.7105 12.7861 44.3911C8.04151 43.9981 4.16681 40.5875 3.56934 35.8644C3.248 33.3241 3 30.296 3 27C3 23.704 3.248 20.6759 3.56934 18.1356Z" fill="#00D0BF"/>
</mask>
<g mask="url(#mask0_1_31631)">
<rect x="3" y="9" width="48" height="36" fill="#2E50A6"/>
<path d="M32.7814 19.0434L44.4808 19L44.4591 29.4187C44.4591 29.4187 44.8715 31.0032 39.5536 33.4126C41.4637 33.2172 43.5474 31.1769 43.5474 31.1769C43.5474 31.1769 44.3939 30.0916 44.8064 30.6994C45.2188 31.3071 45.6095 31.611 45.9133 31.8497C46.2172 32.0885 46.456 32.7397 46.0002 33.2172C45.5443 33.6947 44.828 33.7598 44.6327 33.1738C44.3288 33.3257 42.4621 35.5831 38.642 35.6916C34.7567 35.6265 32.6295 33.1521 32.6295 33.1521C32.6295 33.1521 32.1086 33.9769 31.3706 33.3257C30.6543 32.4792 31.1969 31.9366 31.1969 31.9366C31.1969 31.9366 31.8047 31.5893 31.9783 31.3505C32.2605 31.0249 32.3473 30.5908 32.8248 30.5908C33.3892 30.6342 33.6063 31.09 33.6063 31.09C33.6063 31.09 35.5598 33.1521 37.6652 33.4126C32.9119 31.1333 32.7382 29.7224 32.7599 29.3751L32.7816 19.0433L32.7814 19.0434Z" fill="white"/>
<path d="M33.0636 19.3256L44.2203 19.2604V29.2885C44.242 30.5908 42.0497 31.9148 38.6203 33.6079C35.0822 31.7846 33.0419 30.6776 33.0202 29.2668L33.0636 19.3256L33.0636 19.3256Z" fill="#006129" stroke="black" stroke-width="0.0881791"/>
<path d="M34.5818 20.8076L35.2404 19.8404L35.9022 20.8096" stroke="#FFC72C" stroke-width="0.0881791"/>
<path d="M35.3726 20.4461C35.3726 20.5183 35.3141 20.5769 35.2418 20.5769C35.1696 20.5769 35.111 20.5183 35.111 20.4461C35.111 20.3738 35.1696 20.3152 35.2418 20.3152C35.3141 20.3152 35.3726 20.3738 35.3726 20.4461Z" fill="#FFC72C" stroke="black" stroke-width="0.0440919"/>
<path d="M34.7056 21.5221L35.7266 21.525C35.7266 21.525 35.7426 21.3925 35.62 21.312C36.1547 21.2384 36.0158 20.7667 36.4637 20.74C36.5506 20.7534 36.2297 20.9405 36.2297 20.9405C36.2297 20.9405 35.9597 21.1311 36.0826 21.228C36.1803 21.3049 36.223 21.1812 36.2364 21.0876C36.2498 20.994 36.6709 20.9338 36.6107 20.6665C36.5104 20.4459 35.9222 20.8135 35.9222 20.8135L35.5025 20.8112C35.4764 20.7641 35.3607 20.5752 35.2413 20.5743C35.0996 20.5795 34.9998 20.8135 34.9998 20.8135H34.3915H34.0506C34.0506 20.8135 34.018 21.0571 34.4993 21.1039C34.6077 21.2454 34.6917 21.2849 34.7859 21.3216C34.7231 21.3739 34.7054 21.4372 34.7056 21.5221V21.5221Z" fill="#FFC72C" stroke="black" stroke-width="0.0440919"/>
<path d="M34.7791 21.3148L35.6295 21.3119Z" fill="#FFC72C"/>
<path d="M34.7791 21.3148L35.6295 21.3119" stroke="black" stroke-width="0.0440919"/>
<path d="M34.3896 20.8134C34.3896 20.8134 34.4577 21.2111 34.7717 21.3053Z" fill="#FFC72C"/>
<path d="M34.3896 20.8134C34.3896 20.8134 34.4577 21.2111 34.7717 21.3053" stroke="black" stroke-width="0.0440919"/>
<path d="M34.3373 20.8081C34.3687 20.6564 34.4263 20.6302 34.4891 20.4366C34.4995 20.2482 34.3373 20.2691 34.3844 20.1488C34.4681 20.0179 34.4263 19.8923 34.2693 19.7929C34.3007 19.9656 34.0652 20.1278 34.0652 20.2691C34.0652 20.4104 34.1855 20.379 34.1698 20.5936C34.1803 20.7192 34.1384 20.6878 34.128 20.8081H34.3373V20.8081Z" fill="url(#paint0_linear_1_31631)" stroke="black" stroke-width="0.0440919"/>
<path d="M35.3622 19.8652C35.3622 19.9317 35.3083 19.9856 35.2418 19.9856C35.1754 19.9856 35.1215 19.9317 35.1215 19.8652C35.1215 19.7988 35.1754 19.7449 35.2418 19.7449C35.3083 19.7449 35.3622 19.7988 35.3622 19.8652Z" fill="#FFC72C" stroke="black" stroke-width="0.0440919"/>
<path d="M41.5709 20.8076L42.2294 19.8404L42.8912 20.8096" stroke="#FFC72C" stroke-width="0.0881791"/>
<path d="M42.3616 20.4461C42.3616 20.5183 42.3031 20.5769 42.2308 20.5769C42.1586 20.5769 42.1 20.5183 42.1 20.4461C42.1 20.3738 42.1586 20.3152 42.2308 20.3152C42.3031 20.3152 42.3616 20.3738 42.3616 20.4461Z" fill="#FFC72C" stroke="black" stroke-width="0.0440919"/>
<path d="M41.6947 21.5221L42.7156 21.525C42.7156 21.525 42.7316 21.3925 42.609 21.312C43.1437 21.2384 43.0048 20.7667 43.4527 20.74C43.5396 20.7534 43.2187 20.9405 43.2187 20.9405C43.2187 20.9405 42.9487 21.1311 43.0717 21.228C43.1693 21.3049 43.212 21.1812 43.2254 21.0876C43.2388 20.994 43.6599 20.9338 43.5997 20.6665C43.4995 20.4459 42.9112 20.8135 42.9112 20.8135L42.4916 20.8112C42.4654 20.7641 42.3497 20.5752 42.2303 20.5743C42.0886 20.5795 41.9888 20.8135 41.9888 20.8135H41.3805H41.0396C41.0396 20.8135 41.007 21.0571 41.4883 21.1039C41.5967 21.2454 41.6807 21.2849 41.7749 21.3216C41.7121 21.3739 41.6944 21.4372 41.6947 21.5221V21.5221Z" fill="#FFC72C" stroke="black" stroke-width="0.0440919"/>
<path d="M41.7682 21.3148L42.6186 21.3119Z" fill="#FFC72C"/>
<path d="M41.7682 21.3148L42.6186 21.3119" stroke="black" stroke-width="0.0440919"/>
<path d="M41.3787 20.8134C41.3787 20.8134 41.4467 21.2111 41.7607 21.3053Z" fill="#FFC72C"/>
<path d="M41.3787 20.8134C41.3787 20.8134 41.4467 21.2111 41.7607 21.3053" stroke="black" stroke-width="0.0440919"/>
<path d="M41.3263 20.8081C41.3577 20.6564 41.4153 20.6302 41.4781 20.4366C41.4886 20.2482 41.3263 20.2691 41.3734 20.1488C41.4572 20.0179 41.4153 19.8923 41.2583 19.7929C41.2897 19.9656 41.0542 20.1278 41.0542 20.2691C41.0542 20.4104 41.1746 20.379 41.1589 20.5936C41.1693 20.7192 41.1275 20.6878 41.117 20.8081H41.3263V20.8081Z" fill="url(#paint1_linear_1_31631)" stroke="black" stroke-width="0.0440919"/>
<path d="M42.3512 19.8652C42.3512 19.9317 42.2973 19.9856 42.2309 19.9856C42.1644 19.9856 42.1105 19.9317 42.1105 19.8652C42.1105 19.7988 42.1644 19.7449 42.2309 19.7449C42.2973 19.7449 42.3512 19.7988 42.3512 19.8652Z" fill="#FFC72C" stroke="black" stroke-width="0.0440919"/>
<path d="M34.5818 22.7662L35.2404 21.799L35.9022 22.7682" stroke="#FFC72C" stroke-width="0.0881791"/>
<path d="M35.3726 22.4046C35.3726 22.4769 35.3141 22.5355 35.2418 22.5355C35.1696 22.5355 35.111 22.4769 35.111 22.4046C35.111 22.3324 35.1696 22.2738 35.2418 22.2738C35.3141 22.2738 35.3726 22.3324 35.3726 22.4046Z" fill="#FFC72C" stroke="black" stroke-width="0.0440919"/>
<path d="M34.7056 23.4806L35.7266 23.4835C35.7266 23.4835 35.7426 23.351 35.62 23.2704C36.1547 23.1969 36.0158 22.7252 36.4637 22.6985C36.5506 22.7119 36.2297 22.899 36.2297 22.899C36.2297 22.899 35.9597 23.0896 36.0826 23.1865C36.1803 23.2634 36.223 23.1397 36.2364 23.0461C36.2498 22.9525 36.6709 22.8923 36.6107 22.625C36.5104 22.4044 35.9222 22.772 35.9222 22.772L35.5025 22.7697C35.4764 22.7226 35.3607 22.5337 35.2413 22.5328C35.0996 22.538 34.9998 22.772 34.9998 22.772H34.3915H34.0506C34.0506 22.772 34.018 23.0156 34.4993 23.0624C34.6077 23.2039 34.6917 23.2434 34.7859 23.28C34.7231 23.3324 34.7054 23.3957 34.7056 23.4806V23.4806Z" fill="#FFC72C" stroke="black" stroke-width="0.0440919"/>
<path d="M34.7791 23.2733L35.6295 23.2704Z" fill="#FFC72C"/>
<path d="M34.7791 23.2733L35.6295 23.2704" stroke="black" stroke-width="0.0440919"/>
<path d="M34.3896 22.772C34.3896 22.772 34.4577 23.1697 34.7717 23.2639Z" fill="#FFC72C"/>
<path d="M34.3896 22.772C34.3896 22.772 34.4577 23.1697 34.7717 23.2639" stroke="black" stroke-width="0.0440919"/>
<path d="M34.3373 22.7667C34.3687 22.6149 34.4263 22.5888 34.4891 22.3951C34.4995 22.2068 34.3373 22.2277 34.3844 22.1073C34.4681 21.9765 34.4263 21.8509 34.2693 21.7515C34.3007 21.9242 34.0652 22.0864 34.0652 22.2277C34.0652 22.369 34.1855 22.3376 34.1698 22.5521C34.1803 22.6777 34.1384 22.6463 34.128 22.7667H34.3373V22.7667Z" fill="url(#paint2_linear_1_31631)" stroke="black" stroke-width="0.0440919"/>
<path d="M35.3622 21.8236C35.3622 21.8901 35.3083 21.944 35.2418 21.944C35.1754 21.944 35.1215 21.8901 35.1215 21.8236C35.1215 21.7571 35.1754 21.7032 35.2418 21.7032C35.3083 21.7032 35.3622 21.7571 35.3622 21.8236Z" fill="#FFC72C" stroke="black" stroke-width="0.0440919"/>
<path d="M41.5709 22.7662L42.2294 21.799L42.8912 22.7682" stroke="#FFC72C" stroke-width="0.0881791"/>
<path d="M42.3616 22.4046C42.3616 22.4769 42.3031 22.5355 42.2308 22.5355C42.1586 22.5355 42.1 22.4769 42.1 22.4046C42.1 22.3324 42.1586 22.2738 42.2308 22.2738C42.3031 22.2738 42.3616 22.3324 42.3616 22.4046Z" fill="#FFC72C" stroke="black" stroke-width="0.0440919"/>
<path d="M41.6947 23.4806L42.7156 23.4835C42.7156 23.4835 42.7316 23.351 42.609 23.2704C43.1437 23.1969 43.0048 22.7252 43.4527 22.6985C43.5396 22.7119 43.2187 22.899 43.2187 22.899C43.2187 22.899 42.9487 23.0896 43.0717 23.1865C43.1693 23.2634 43.212 23.1397 43.2254 23.0461C43.2388 22.9525 43.6599 22.8923 43.5997 22.625C43.4995 22.4044 42.9112 22.772 42.9112 22.772L42.4916 22.7697C42.4654 22.7226 42.3497 22.5337 42.2303 22.5328C42.0886 22.538 41.9888 22.772 41.9888 22.772H41.3805H41.0396C41.0396 22.772 41.007 23.0156 41.4883 23.0624C41.5967 23.2039 41.6807 23.2434 41.7749 23.28C41.7121 23.3324 41.6944 23.3957 41.6947 23.4806V23.4806Z" fill="#FFC72C" stroke="black" stroke-width="0.0440919"/>
<path d="M41.7682 23.2733L42.6186 23.2704Z" fill="#FFC72C"/>
<path d="M41.7682 23.2733L42.6186 23.2704" stroke="black" stroke-width="0.0440919"/>
<path d="M41.3787 22.772C41.3787 22.772 41.4467 23.1697 41.7607 23.2639Z" fill="#FFC72C"/>
<path d="M41.3787 22.772C41.3787 22.772 41.4467 23.1697 41.7607 23.2639" stroke="black" stroke-width="0.0440919"/>
<path d="M41.3263 22.7667C41.3577 22.6149 41.4153 22.5888 41.4781 22.3951C41.4886 22.2068 41.3263 22.2277 41.3734 22.1073C41.4572 21.9765 41.4153 21.8509 41.2583 21.7515C41.2897 21.9242 41.0542 22.0864 41.0542 22.2277C41.0542 22.369 41.1746 22.3376 41.1589 22.5521C41.1693 22.6777 41.1275 22.6463 41.117 22.7667H41.3263V22.7667Z" fill="url(#paint3_linear_1_31631)" stroke="black" stroke-width="0.0440919"/>
<path d="M42.3512 21.8236C42.3512 21.8901 42.2973 21.944 42.2309 21.944C42.1644 21.944 42.1105 21.8901 42.1105 21.8236C42.1105 21.7571 42.1644 21.7032 42.2309 21.7032C42.2973 21.7032 42.3512 21.7571 42.3512 21.8236Z" fill="#FFC72C" stroke="black" stroke-width="0.0440919"/>
<path d="M34.5818 24.6818L35.2404 23.7146L35.9022 24.6838" stroke="#FFC72C" stroke-width="0.0881791"/>
<path d="M35.3726 24.3203C35.3726 24.3925 35.3141 24.4511 35.2418 24.4511C35.1696 24.4511 35.111 24.3925 35.111 24.3203C35.111 24.248 35.1696 24.1895 35.2418 24.1895C35.3141 24.1895 35.3726 24.248 35.3726 24.3203Z" fill="#FFC72C" stroke="black" stroke-width="0.0440919"/>
<path d="M34.7056 25.3963L35.7266 25.3992C35.7266 25.3992 35.7426 25.2667 35.62 25.1862C36.1547 25.1126 36.0158 24.6409 36.4637 24.6142C36.5506 24.6276 36.2297 24.8147 36.2297 24.8147C36.2297 24.8147 35.9597 25.0053 36.0826 25.1022C36.1803 25.1791 36.223 25.0554 36.2364 24.9618C36.2498 24.8682 36.6709 24.8081 36.6107 24.5407C36.5104 24.3201 35.9222 24.6877 35.9222 24.6877L35.5025 24.6854C35.4764 24.6383 35.3607 24.4494 35.2413 24.4485C35.0996 24.4537 34.9998 24.6877 34.9998 24.6877H34.3915H34.0506C34.0506 24.6877 34.018 24.9313 34.4993 24.9781C34.6077 25.1196 34.6917 25.1591 34.7859 25.1958C34.7231 25.2481 34.7054 25.3114 34.7056 25.3963V25.3963Z" fill="#FFC72C" stroke="black" stroke-width="0.0440919"/>
<path d="M34.7791 25.189L35.6295 25.1861Z" fill="#FFC72C"/>
<path d="M34.7791 25.189L35.6295 25.1861" stroke="black" stroke-width="0.0440919"/>
<path d="M34.3896 24.6876C34.3896 24.6876 34.4577 25.0854 34.7717 25.1795Z" fill="#FFC72C"/>
<path d="M34.3896 24.6876C34.3896 24.6876 34.4577 25.0854 34.7717 25.1795" stroke="black" stroke-width="0.0440919"/>
<path d="M34.3373 24.6825C34.3687 24.5307 34.4263 24.5045 34.4891 24.3109C34.4995 24.1225 34.3373 24.1435 34.3844 24.0231C34.4681 23.8923 34.4263 23.7667 34.2693 23.6672C34.3007 23.8399 34.0652 24.0022 34.0652 24.1435C34.0652 24.2848 34.1855 24.2534 34.1698 24.4679C34.1803 24.5935 34.1384 24.5621 34.128 24.6825H34.3373V24.6825Z" fill="url(#paint4_linear_1_31631)" stroke="black" stroke-width="0.0440919"/>
<path d="M35.3622 23.7394C35.3622 23.8059 35.3083 23.8598 35.2418 23.8598C35.1754 23.8598 35.1215 23.8059 35.1215 23.7394C35.1215 23.673 35.1754 23.6191 35.2418 23.6191C35.3083 23.6191 35.3622 23.673 35.3622 23.7394Z" fill="#FFC72C" stroke="black" stroke-width="0.0440919"/>
<path d="M41.5709 24.6818L42.2294 23.7146L42.8912 24.6838" stroke="#FFC72C" stroke-width="0.0881791"/>
<path d="M42.3616 24.3203C42.3616 24.3925 42.3031 24.4511 42.2308 24.4511C42.1586 24.4511 42.1 24.3925 42.1 24.3203C42.1 24.248 42.1586 24.1895 42.2308 24.1895C42.3031 24.1895 42.3616 24.248 42.3616 24.3203Z" fill="#FFC72C" stroke="black" stroke-width="0.0440919"/>
<path d="M41.6947 25.3963L42.7156 25.3992C42.7156 25.3992 42.7316 25.2667 42.609 25.1862C43.1437 25.1126 43.0048 24.6409 43.4527 24.6142C43.5396 24.6276 43.2187 24.8147 43.2187 24.8147C43.2187 24.8147 42.9487 25.0053 43.0717 25.1022C43.1693 25.1791 43.212 25.0554 43.2254 24.9618C43.2388 24.8682 43.6599 24.8081 43.5997 24.5407C43.4995 24.3201 42.9112 24.6877 42.9112 24.6877L42.4916 24.6854C42.4654 24.6383 42.3497 24.4494 42.2303 24.4485C42.0886 24.4537 41.9888 24.6877 41.9888 24.6877H41.3805H41.0396C41.0396 24.6877 41.007 24.9313 41.4883 24.9781C41.5967 25.1196 41.6807 25.1591 41.7749 25.1958C41.7121 25.2481 41.6944 25.3114 41.6947 25.3963V25.3963Z" fill="#FFC72C" stroke="black" stroke-width="0.0440919"/>
<path d="M41.7682 25.189L42.6186 25.1861Z" fill="#FFC72C"/>
<path d="M41.7682 25.189L42.6186 25.1861" stroke="black" stroke-width="0.0440919"/>
<path d="M41.3787 24.6876C41.3787 24.6876 41.4467 25.0854 41.7607 25.1795Z" fill="#FFC72C"/>
<path d="M41.3787 24.6876C41.3787 24.6876 41.4467 25.0854 41.7607 25.1795" stroke="black" stroke-width="0.0440919"/>
<path d="M41.3263 24.6825C41.3577 24.5307 41.4153 24.5045 41.4781 24.3109C41.4886 24.1225 41.3263 24.1435 41.3734 24.0231C41.4572 23.8923 41.4153 23.7667 41.2583 23.6672C41.2897 23.8399 41.0542 24.0022 41.0542 24.1435C41.0542 24.2848 41.1746 24.2534 41.1589 24.4679C41.1693 24.5935 41.1275 24.5621 41.117 24.6825H41.3263V24.6825Z" fill="url(#paint5_linear_1_31631)" stroke="black" stroke-width="0.0440919"/>
<path d="M42.3512 23.7394C42.3512 23.8059 42.2973 23.8598 42.2309 23.8598C42.1644 23.8598 42.1105 23.8059 42.1105 23.7394C42.1105 23.673 42.1644 23.6191 42.2309 23.6191C42.2973 23.6191 42.3512 23.673 42.3512 23.7394Z" fill="#FFC72C" stroke="black" stroke-width="0.0440919"/>
<path d="M34.5818 30.5221L35.2404 29.5549L35.9022 30.5242" stroke="#FFC72C" stroke-width="0.0881791"/>
<path d="M35.3726 30.1606C35.3726 30.2329 35.3141 30.2914 35.2418 30.2914C35.1696 30.2914 35.111 30.2329 35.111 30.1606C35.111 30.0884 35.1696 30.0298 35.2418 30.0298C35.3141 30.0298 35.3726 30.0884 35.3726 30.1606Z" fill="#FFC72C" stroke="black" stroke-width="0.0440919"/>
<path d="M34.7056 31.2366L35.7266 31.2395C35.7266 31.2395 35.7426 31.107 35.62 31.0264C36.1547 30.9529 36.0158 30.4812 36.4637 30.4545C36.5506 30.4678 36.2297 30.655 36.2297 30.655C36.2297 30.655 35.9597 30.8456 36.0826 30.9424C36.1803 31.0194 36.223 30.8957 36.2364 30.8021C36.2498 30.7085 36.6709 30.6483 36.6107 30.381C36.5104 30.1604 35.9222 30.528 35.9222 30.528L35.5025 30.5257C35.4764 30.4786 35.3607 30.2897 35.2413 30.2888C35.0996 30.294 34.9998 30.528 34.9998 30.528H34.3915H34.0506C34.0506 30.528 34.018 30.7715 34.4993 30.8183C34.6077 30.9599 34.6917 30.9994 34.7859 31.036C34.7231 31.0884 34.7054 31.1517 34.7056 31.2366V31.2366Z" fill="#FFC72C" stroke="black" stroke-width="0.0440919"/>
<path d="M34.7791 31.0293L35.6295 31.0264Z" fill="#FFC72C"/>
<path d="M34.7791 31.0293L35.6295 31.0264" stroke="black" stroke-width="0.0440919"/>
<path d="M34.3896 30.528C34.3896 30.528 34.4577 30.9257 34.7717 31.0199Z" fill="#FFC72C"/>
<path d="M34.3896 30.528C34.3896 30.528 34.4577 30.9257 34.7717 31.0199" stroke="black" stroke-width="0.0440919"/>
<path d="M34.3373 30.5227C34.3687 30.3709 34.4263 30.3448 34.4891 30.1511C34.4995 29.9627 34.3373 29.9837 34.3844 29.8633C34.4681 29.7325 34.4263 29.6069 34.2693 29.5074C34.3007 29.6801 34.0652 29.8424 34.0652 29.9837C34.0652 30.125 34.1855 30.0936 34.1698 30.3081C34.1803 30.4337 34.1384 30.4023 34.128 30.5227H34.3373V30.5227Z" fill="url(#paint6_linear_1_31631)" stroke="black" stroke-width="0.0440919"/>
<path d="M35.3622 29.5796C35.3622 29.646 35.3083 29.6999 35.2418 29.6999C35.1754 29.6999 35.1215 29.646 35.1215 29.5796C35.1215 29.5131 35.1754 29.4592 35.2418 29.4592C35.3083 29.4592 35.3622 29.5131 35.3622 29.5796Z" fill="#FFC72C" stroke="black" stroke-width="0.0440919"/>
<path d="M41.5709 30.3353L42.2294 29.3681L42.8912 30.3373" stroke="#FFC72C" stroke-width="0.0881791"/>
<path d="M42.3616 29.9736C42.3616 30.0458 42.3031 30.1044 42.2308 30.1044C42.1586 30.1044 42.1 30.0458 42.1 29.9736C42.1 29.9014 42.1586 29.8428 42.2308 29.8428C42.3031 29.8428 42.3616 29.9014 42.3616 29.9736Z" fill="#FFC72C" stroke="black" stroke-width="0.0440919"/>
<path d="M41.6947 31.0496L42.7156 31.0525C42.7156 31.0525 42.7316 30.92 42.609 30.8395C43.1437 30.7659 43.0048 30.2943 43.4527 30.2675C43.5396 30.2809 43.2187 30.4681 43.2187 30.4681C43.2187 30.4681 42.9487 30.6586 43.0717 30.7555C43.1693 30.8324 43.212 30.7087 43.2254 30.6151C43.2388 30.5215 43.6599 30.4614 43.5997 30.194C43.4995 29.9734 42.9112 30.3411 42.9112 30.3411L42.4916 30.3387C42.4654 30.2916 42.3497 30.1027 42.2303 30.1019C42.0886 30.107 41.9888 30.3411 41.9888 30.3411H41.3805H41.0396C41.0396 30.3411 41.007 30.5846 41.4883 30.6314C41.5967 30.7729 41.6807 30.8124 41.7749 30.8491C41.7121 30.9014 41.6944 30.9647 41.6947 31.0496V31.0496Z" fill="#FFC72C" stroke="black" stroke-width="0.0440919"/>
<path d="M41.7682 30.8425L42.6186 30.8396Z" fill="#FFC72C"/>
<path d="M41.7682 30.8425L42.6186 30.8396" stroke="black" stroke-width="0.0440919"/>
<path d="M41.3787 30.3411C41.3787 30.3411 41.4467 30.7389 41.7607 30.8331Z" fill="#FFC72C"/>
<path d="M41.3787 30.3411C41.3787 30.3411 41.4467 30.7389 41.7607 30.8331" stroke="black" stroke-width="0.0440919"/>
<path d="M41.3263 30.3358C41.3577 30.184 41.4153 30.1579 41.4781 29.9642C41.4886 29.7758 41.3263 29.7968 41.3734 29.6764C41.4572 29.5456 41.4153 29.42 41.2583 29.3206C41.2897 29.4933 41.0542 29.6555 41.0542 29.7968C41.0542 29.9381 41.1746 29.9067 41.1589 30.1212C41.1693 30.2468 41.1275 30.2154 41.117 30.3358H41.3263V30.3358Z" fill="url(#paint7_linear_1_31631)" stroke="black" stroke-width="0.0440919"/>
<path d="M42.3512 29.3928C42.3512 29.4592 42.2973 29.5131 42.2309 29.5131C42.1644 29.5131 42.1105 29.4592 42.1105 29.3928C42.1105 29.3263 42.1644 29.2724 42.2309 29.2724C42.2973 29.2724 42.3512 29.3263 42.3512 29.3928Z" fill="#FFC72C" stroke="black" stroke-width="0.0440919"/>
<path d="M34.5818 28.6066L35.2404 27.6394L35.9022 28.6086" stroke="#FFC72C" stroke-width="0.0881791"/>
<path d="M35.3726 28.2451C35.3726 28.3173 35.3141 28.3759 35.2418 28.3759C35.1696 28.3759 35.111 28.3173 35.111 28.2451C35.111 28.1728 35.1696 28.1143 35.2418 28.1143C35.3141 28.1143 35.3726 28.1728 35.3726 28.2451Z" fill="#FFC72C" stroke="black" stroke-width="0.0440919"/>
<path d="M34.7056 29.3209L35.7266 29.3238C35.7266 29.3238 35.7426 29.1913 35.62 29.1108C36.1547 29.0372 36.0158 28.5656 36.4637 28.5388C36.5506 28.5522 36.2297 28.7394 36.2297 28.7394C36.2297 28.7394 35.9597 28.9299 36.0826 29.0268C36.1803 29.1037 36.223 28.98 36.2364 28.8864C36.2498 28.7928 36.6709 28.7327 36.6107 28.4653C36.5104 28.2447 35.9222 28.6124 35.9222 28.6124L35.5025 28.61C35.4764 28.5629 35.3607 28.374 35.2413 28.3732C35.0996 28.3783 34.9998 28.6124 34.9998 28.6124H34.3915H34.0506C34.0506 28.6124 34.018 28.8559 34.4993 28.9027C34.6077 29.0442 34.6917 29.0837 34.7859 29.1204C34.7231 29.1727 34.7054 29.236 34.7056 29.3209V29.3209Z" fill="#FFC72C" stroke="black" stroke-width="0.0440919"/>
<path d="M34.7791 29.1138L35.6295 29.1109Z" fill="#FFC72C"/>
<path d="M34.7791 29.1138L35.6295 29.1109" stroke="black" stroke-width="0.0440919"/>
<path d="M34.3896 28.6124C34.3896 28.6124 34.4577 29.0102 34.7717 29.1044Z" fill="#FFC72C"/>
<path d="M34.3896 28.6124C34.3896 28.6124 34.4577 29.0102 34.7717 29.1044" stroke="black" stroke-width="0.0440919"/>
<path d="M34.3373 28.6072C34.3687 28.4554 34.4263 28.4292 34.4891 28.2356C34.4995 28.0472 34.3373 28.0681 34.3844 27.9478C34.4681 27.8169 34.4263 27.6913 34.2693 27.5919C34.3007 27.7646 34.0652 27.9268 34.0652 28.0681C34.0652 28.2094 34.1855 28.178 34.1698 28.3926C34.1803 28.5182 34.1384 28.4868 34.128 28.6072H34.3373V28.6072Z" fill="url(#paint8_linear_1_31631)" stroke="black" stroke-width="0.0440919"/>
<path d="M35.3622 27.6641C35.3622 27.7305 35.3083 27.7844 35.2418 27.7844C35.1754 27.7844 35.1215 27.7305 35.1215 27.6641C35.1215 27.5976 35.1754 27.5437 35.2418 27.5437C35.3083 27.5437 35.3622 27.5976 35.3622 27.6641Z" fill="#FFC72C" stroke="black" stroke-width="0.0440919"/>
<path d="M41.5709 28.4196L42.2294 27.4524L42.8912 28.4216" stroke="#FFC72C" stroke-width="0.0881791"/>
<path d="M42.3616 28.058C42.3616 28.1302 42.3031 28.1888 42.2308 28.1888C42.1586 28.1888 42.1 28.1302 42.1 28.058C42.1 27.9857 42.1586 27.9271 42.2308 27.9271C42.3031 27.9271 42.3616 27.9857 42.3616 28.058Z" fill="#FFC72C" stroke="black" stroke-width="0.0440919"/>
<path d="M41.6947 29.134L42.7156 29.1369C42.7156 29.1369 42.7316 29.0044 42.609 28.9238C43.1437 28.8503 43.0048 28.3786 43.4527 28.3519C43.5396 28.3652 43.2187 28.5524 43.2187 28.5524C43.2187 28.5524 42.9487 28.743 43.0717 28.8398C43.1693 28.9168 43.212 28.7931 43.2254 28.6995C43.2388 28.6059 43.6599 28.5457 43.5997 28.2784C43.4995 28.0578 42.9112 28.4254 42.9112 28.4254L42.4916 28.4231C42.4654 28.376 42.3497 28.1871 42.2303 28.1862C42.0886 28.1914 41.9888 28.4254 41.9888 28.4254H41.3805H41.0396C41.0396 28.4254 41.007 28.6689 41.4883 28.7157C41.5967 28.8573 41.6807 28.8968 41.7749 28.9334C41.7121 28.9858 41.6944 29.0491 41.6947 29.134V29.134Z" fill="#FFC72C" stroke="black" stroke-width="0.0440919"/>
<path d="M41.7682 28.9268L42.6186 28.924Z" fill="#FFC72C"/>
<path d="M41.7682 28.9268L42.6186 28.924" stroke="black" stroke-width="0.0440919"/>
<path d="M41.3787 28.4253C41.3787 28.4253 41.4467 28.823 41.7607 28.9172Z" fill="#FFC72C"/>
<path d="M41.3787 28.4253C41.3787 28.4253 41.4467 28.823 41.7607 28.9172" stroke="black" stroke-width="0.0440919"/>
<path d="M41.3263 28.4201C41.3577 28.2684 41.4153 28.2422 41.4781 28.0486C41.4886 27.8602 41.3263 27.8811 41.3734 27.7608C41.4572 27.6299 41.4153 27.5043 41.2583 27.4049C41.2897 27.5776 41.0542 27.7398 41.0542 27.8811C41.0542 28.0224 41.1746 27.991 41.1589 28.2056C41.1693 28.3312 41.1275 28.2998 41.117 28.4201H41.3263V28.4201Z" fill="url(#paint9_linear_1_31631)" stroke="black" stroke-width="0.0440919"/>
<path d="M42.3512 27.4771C42.3512 27.5436 42.2973 27.5975 42.2309 27.5975C42.1644 27.5975 42.1105 27.5436 42.1105 27.4771C42.1105 27.4106 42.1644 27.3568 42.2309 27.3568C42.2973 27.3568 42.3512 27.4106 42.3512 27.4771Z" fill="#FFC72C" stroke="black" stroke-width="0.0440919"/>
<path d="M35.8707 26.7376L36.5293 25.7704L37.191 26.7396" stroke="#FFC72C" stroke-width="0.0881791"/>
<path d="M36.6615 26.3761C36.6615 26.4483 36.6029 26.5069 36.5307 26.5069C36.4584 26.5069 36.3999 26.4483 36.3999 26.3761C36.3999 26.3038 36.4584 26.2452 36.5307 26.2452C36.6029 26.2452 36.6615 26.3038 36.6615 26.3761Z" fill="#FFC72C" stroke="black" stroke-width="0.0440919"/>
<path d="M35.9945 27.4521L37.0155 27.455C37.0155 27.455 37.0315 27.3225 36.9088 27.2419C37.4436 27.1684 37.3047 26.6967 37.7525 26.67C37.8394 26.6834 37.5186 26.8705 37.5186 26.8705C37.5186 26.8705 37.2486 27.0611 37.3715 27.158C37.4691 27.2349 37.5119 27.1112 37.5253 27.0176C37.5386 26.924 37.9597 26.8638 37.8996 26.5965C37.7993 26.3759 37.2111 26.7435 37.2111 26.7435L36.7914 26.7412C36.7653 26.6941 36.6496 26.5052 36.5302 26.5043C36.3885 26.5095 36.2886 26.7435 36.2886 26.7435H35.6804H35.3395C35.3395 26.7435 35.3069 26.9871 35.7882 27.0339C35.8965 27.1754 35.9805 27.2149 36.0747 27.2515C36.0119 27.3039 35.9943 27.3672 35.9945 27.4521V27.4521Z" fill="#FFC72C" stroke="black" stroke-width="0.0440919"/>
<path d="M36.068 27.2448L36.9184 27.2419Z" fill="#FFC72C"/>
<path d="M36.068 27.2448L36.9184 27.2419" stroke="black" stroke-width="0.0440919"/>
<path d="M35.6785 26.7434C35.6785 26.7434 35.7466 27.1411 36.0605 27.2353Z" fill="#FFC72C"/>
<path d="M35.6785 26.7434C35.6785 26.7434 35.7466 27.1411 36.0605 27.2353" stroke="black" stroke-width="0.0440919"/>
<path d="M35.6262 26.7381C35.6576 26.5864 35.7152 26.5602 35.778 26.3666C35.7884 26.1782 35.6262 26.1991 35.6733 26.0788C35.757 25.9479 35.7152 25.8223 35.5582 25.7229C35.5896 25.8956 35.3541 26.0578 35.3541 26.1991C35.3541 26.3404 35.4744 26.309 35.4587 26.5236C35.4692 26.6492 35.4273 26.6178 35.4169 26.7381H35.6262V26.7381Z" fill="url(#paint10_linear_1_31631)" stroke="black" stroke-width="0.0440919"/>
<path d="M36.651 25.7952C36.6511 25.8617 36.5972 25.9156 36.5307 25.9156C36.4643 25.9156 36.4104 25.8617 36.4104 25.7952C36.4104 25.7288 36.4643 25.6749 36.5307 25.6749C36.5972 25.6749 36.6511 25.7288 36.651 25.7952Z" fill="#FFC72C" stroke="black" stroke-width="0.0440919"/>
<path d="M41.5242 26.5508L42.1827 25.5836L42.8445 26.5529" stroke="#FFC72C" stroke-width="0.0881791"/>
<path d="M42.3149 26.1893C42.3149 26.2615 42.2564 26.3201 42.1841 26.3201C42.1119 26.3201 42.0533 26.2615 42.0533 26.1893C42.0533 26.1171 42.1119 26.0585 42.1841 26.0585C42.2564 26.0585 42.3149 26.1171 42.3149 26.1893Z" fill="#FFC72C" stroke="black" stroke-width="0.0440919"/>
<path d="M41.648 27.2652L42.6689 27.2682C42.6689 27.2682 42.6849 27.1356 42.5623 27.0551C43.097 26.9816 42.9581 26.5099 43.406 26.4832C43.4929 26.4965 43.172 26.6837 43.172 26.6837C43.172 26.6837 42.902 26.8742 43.025 26.9711C43.1226 27.048 43.1653 26.9243 43.1787 26.8308C43.1921 26.7372 43.6132 26.677 43.553 26.4096C43.4528 26.1891 42.8645 26.5567 42.8645 26.5567L42.4449 26.5544C42.4187 26.5073 42.303 26.3184 42.1836 26.3175C42.0419 26.3227 41.9421 26.5567 41.9421 26.5567H41.3338H40.9929C40.9929 26.5567 40.9603 26.8002 41.4416 26.847C41.55 26.9885 41.634 27.0281 41.7282 27.0647C41.6654 27.1171 41.6477 27.1804 41.648 27.2652V27.2652Z" fill="#FFC72C" stroke="black" stroke-width="0.0440919"/>
<path d="M41.7215 27.058L42.5719 27.0551Z" fill="#FFC72C"/>
<path d="M41.7215 27.058L42.5719 27.0551" stroke="black" stroke-width="0.0440919"/>
<path d="M41.332 26.5566C41.332 26.5566 41.4 26.9544 41.714 27.0486Z" fill="#FFC72C"/>
<path d="M41.332 26.5566C41.332 26.5566 41.4 26.9544 41.714 27.0486" stroke="black" stroke-width="0.0440919"/>
<path d="M41.2797 26.5514C41.3111 26.3996 41.3687 26.3734 41.4315 26.1798C41.4419 25.9914 41.2797 26.0123 41.3268 25.892C41.4105 25.7612 41.3687 25.6356 41.2117 25.5361C41.2431 25.7088 41.0076 25.8711 41.0076 26.0124C41.0076 26.1536 41.1279 26.1222 41.1122 26.3368C41.1227 26.4624 41.0808 26.431 41.0704 26.5514H41.2797V26.5514Z" fill="url(#paint11_linear_1_31631)" stroke="black" stroke-width="0.0440919"/>
<path d="M42.3045 25.6083C42.3045 25.6747 42.2506 25.7286 42.1842 25.7286C42.1177 25.7286 42.0638 25.6747 42.0638 25.6083C42.0638 25.5418 42.1177 25.4879 42.1842 25.4879C42.2506 25.4879 42.3045 25.5418 42.3045 25.6083Z" fill="#FFC72C" stroke="black" stroke-width="0.0440919"/>
<path d="M39.3031 31.2963C39.3031 31.2963 39.5695 31.9106 39.873 31.5331C40.1764 31.1557 40.0654 30.9928 40.0654 30.9928L39.3845 30.6228L39.1847 31.0447L39.3031 31.2963V31.2963Z" fill="#FFC72C" stroke="black" stroke-width="0.0440919"/>
<path d="M39.8877 31.2148C39.8877 31.2148 39.9321 31.2222 39.9692 31.1556C40.0062 31.089 39.8877 31.0594 39.8359 30.9854L39.7767 31.1038L39.8877 31.2148V31.2148Z" fill="#FFC6B5" stroke="black" stroke-width="0.0440919"/>
<path d="M38.3484 31.052L37.7489 31.3776C37.7489 31.3776 37.4529 31.4368 37.4307 31.3776C37.4085 31.3184 37.4381 31.2666 37.5935 31.2592C37.7489 31.2518 38.1708 30.8669 38.1708 30.8669L38.3484 31.052H38.3484Z" fill="#FFC6B5" stroke="black" stroke-width="0.0440919"/>
<path d="M38.3558 20.4021C38.3558 20.4021 38.3706 20.5427 38.378 20.6167C38.3854 20.6907 38.2596 20.8461 38.2522 20.8387C38.2448 20.8313 38.1856 20.8461 38.193 20.8905C38.2004 20.9349 38.2892 20.9497 38.2892 20.9497C38.2892 20.9497 38.2522 21.1052 38.2892 21.1126C38.3262 21.12 38.193 21.3124 38.2892 21.3642C38.3854 21.416 38.5482 21.4826 38.6222 21.4678C38.6962 21.453 38.6222 21.7564 38.6222 21.7564L38.415 22.2005L39.5547 22.0821L39.3179 21.7046C39.3179 21.7046 39.2069 21.6306 39.2365 21.416C39.2661 21.2014 39.2217 20.2319 39.2217 20.2319L38.4076 20.1208L38.3558 20.4021V20.4021Z" fill="#FFC6B5" stroke="black" stroke-width="0.0440919"/>
<path d="M38.1485 22.0895C38.1485 22.0895 37.7785 22.2598 37.7933 22.7186C37.6971 23.1627 37.6453 23.6067 37.6453 23.6067C37.6453 23.6067 37.2086 24.1026 37.0754 24.2802C36.9422 24.4578 36.7424 24.8204 36.6684 24.9167C36.5943 25.0129 36.3057 25.3311 36.3131 25.4495C36.3205 25.5679 36.2465 26.0934 36.5351 26.1526C36.6091 26.1822 36.846 25.5457 36.846 25.5457C36.846 25.5457 36.8608 25.2719 36.7794 25.2201C36.698 25.1683 36.957 24.9907 36.957 24.9907C36.957 24.9907 37.4528 24.628 37.5639 24.5392C37.6749 24.4504 37.9783 24.11 37.9783 24.11L38.1485 22.0895V22.0895Z" fill="#FFC6B5" stroke="black" stroke-width="0.0440919"/>
<path d="M38.5704 21.7417C38.5704 21.7417 38.6666 22.0008 38.8812 21.9564C39.0959 21.9119 39.3475 21.7121 39.3475 21.7121C39.3475 21.7121 39.5473 21.7047 39.5769 21.7343C39.6065 21.7639 40.1172 22.2598 40.1024 22.4152C40.0876 22.5706 39.8656 22.5262 39.7841 22.6298C39.7027 22.7334 39.5695 22.9925 39.6065 23.1849C39.6435 23.3773 39.7545 23.6289 39.7397 23.7252C39.7249 23.8214 39.6435 23.851 39.6435 23.9028C39.6435 23.9546 39.7101 24.0434 39.7101 24.1396C39.7101 24.2358 39.6213 24.3764 39.6361 24.4726C39.6509 24.5689 39.6583 24.8501 39.6583 24.8501L39.6361 26.1526C39.6361 26.1526 39.7101 26.197 39.7175 26.271C39.7249 26.3451 40.2208 28.4987 40.2208 28.4987C40.2208 28.4987 40.1986 28.5653 40.1468 28.5579C40.095 28.5505 40.3466 28.8909 40.354 28.9872C40.3614 29.0834 40.613 29.8383 40.6056 29.9419C40.5982 30.0455 40.5612 30.2749 40.539 30.2823C40.5168 30.2897 40.7019 30.756 40.6722 30.83C40.6426 30.904 40.3392 30.8966 40.3392 30.8966L40.2578 30.8818C40.2578 30.8818 40.2652 30.978 40.206 30.9854C40.1468 30.9928 39.7101 30.9632 39.7101 30.9632C39.7101 30.9632 39.5843 31.1556 39.5103 31.1482C39.4363 31.1408 39.3401 31.0076 39.3179 31.0298C39.2957 31.052 39.3845 31.1778 39.3623 31.2148C39.3401 31.2518 38.9627 31.3332 38.8886 31.1556C38.8146 30.978 38.9331 31.0224 38.9109 30.9854C38.8886 30.9484 38.7184 30.8522 38.6666 30.8818C38.6148 30.9114 38.7998 30.9558 38.7924 31.0298C38.785 31.1038 38.6296 31.2148 38.5704 31.2148C38.5112 31.2148 38.3706 30.941 38.1634 30.9706C37.9561 31.0002 37.8229 31.052 37.8229 31.052C37.8229 31.052 37.5787 31.1556 37.4751 31.1334C37.3715 31.1112 37.3271 31.0298 37.3271 30.9854C37.3271 30.941 37.4011 30.7486 37.3937 30.6893C37.3863 30.6301 37.3271 30.5709 37.3271 30.4821C37.3271 30.3933 37.4973 30.0899 37.4973 30.0899L37.4899 28.7281C37.4899 28.7281 37.3345 28.7281 37.3271 28.6319C37.3197 28.5357 37.5639 26.4783 37.6009 26.345C37.6379 26.2118 37.7341 25.7382 37.7341 25.7382C37.7341 25.7382 37.6231 25.79 37.6157 25.7382C37.6083 25.6864 37.9487 24.5096 37.9487 24.5096C37.9487 24.5096 38.0079 23.925 38.0079 23.7696C38.0079 23.6141 37.9783 23.3995 37.9783 23.3995C37.9783 23.3995 37.6745 23.2709 37.6675 23.0739C37.6397 22.7604 37.9561 22.5854 37.9931 22.4818C38.0301 22.3782 38.1412 22.0674 38.1412 22.0674C38.1412 22.0674 38.304 21.7861 38.5704 21.7417L38.5704 21.7417Z" fill="white" stroke="black" stroke-width="0.0440919"/>
<path d="M38.4594 31.1407C38.4594 31.1407 37.7415 31.5182 37.6379 31.5478C37.5343 31.5774 37.4677 31.422 37.5713 31.3924C37.6749 31.3628 37.8377 31.348 37.8377 31.348C37.8377 31.348 37.5935 31.1555 37.6009 31.1481C37.6083 31.1407 37.9339 31.0223 37.9413 31.0223C37.9487 31.0223 38.045 31.2148 38.1116 31.2C38.1782 31.1852 38.3706 31.0371 38.3706 31.0371C38.3706 31.0371 38.4742 31.1556 38.4594 31.1407V31.1407Z" fill="#FFC72C" stroke="black" stroke-width="0.0440919"/>
<path d="M39.4708 31.348C39.5386 31.4355 39.5652 31.5873 39.7206 31.4985C39.876 31.4097 39.641 31.2449 39.641 31.2449L39.4708 31.348Z" fill="#FFC6B5" stroke="black" stroke-width="0.0440919"/>
<path d="M39.7545 31.3332C39.7545 31.3332 39.8285 31.3924 39.8951 31.3258C39.9617 31.2592 39.7619 31.1186 39.7619 31.1186L39.6657 31.2296L39.7545 31.3332V31.3332Z" fill="#FFC6B5" stroke="black" stroke-width="0.0440919"/>
<path d="M40.0728 22.449C40.0802 22.449 40.317 23.1817 40.3466 23.3667C40.3762 23.5518 40.4724 24.2918 40.4354 24.3955C40.3984 24.4991 40.021 24.9949 39.9765 25.1207C39.9321 25.2466 39.6657 25.7276 39.6657 25.7276C39.6657 25.7276 39.5991 26.2013 39.5695 26.2235C39.5399 26.2457 39.6459 26.3619 39.6361 26.4011C39.6214 26.4451 39.4215 26.6527 39.3327 26.6305C39.2439 26.6083 39.1032 26.5047 39.0958 26.4085C39.0884 26.3123 39.1032 25.994 39.1699 25.9126C39.2365 25.8312 39.5843 25.0097 39.6065 24.9579C39.6287 24.9061 39.9247 24.2622 39.9321 24.1512C39.9395 24.0402 39.8401 23.7835 39.7354 23.6893C39.5025 23.0038 39.594 22.5903 40.0728 22.449V22.449Z" fill="#FFC6B5" stroke="black" stroke-width="0.0440919"/>
<path d="M38.3336 20.3578C38.3336 20.3578 38.4964 20.38 38.5852 20.3282C38.674 20.2764 38.7776 20.2542 38.8516 20.3578C38.9256 20.4614 38.9774 20.454 38.9774 20.454C38.9774 20.454 38.8664 20.7278 38.9774 20.7574C39.0884 20.787 39.1402 20.787 39.1477 20.824C39.1551 20.861 39.0514 20.9424 39.081 20.9794C39.1106 21.0165 39.1625 21.0609 39.1699 21.0905C39.1773 21.1201 39.1032 21.2459 39.1254 21.2755C39.1477 21.3051 39.2143 21.4235 39.2587 21.4235C39.3031 21.4235 39.2735 21.6085 39.4067 21.5641C39.5399 21.5197 39.5325 21.4013 39.5325 21.4013C39.5325 21.4013 39.6731 21.3791 39.7101 21.2533C39.7471 21.1275 39.8359 21.0979 39.8359 21.0979C39.8359 21.0979 40.0135 21.0017 39.7767 20.8536C39.7767 19.8175 39.0958 19.9285 39.0958 19.9285C39.0958 19.9285 39.0144 19.7435 38.8812 19.7657C38.748 19.7879 38.7406 19.9433 38.6444 19.9285C38.5482 19.9137 38.526 19.8471 38.5186 19.8545C38.5112 19.8619 38.4298 20.0099 38.4298 20.0469C38.4298 20.0839 38.1707 19.9951 38.1929 20.1876C38.2151 20.38 38.341 20.3726 38.3336 20.3578L38.3336 20.3578Z" fill="#9C5100" stroke="black" stroke-width="0.0440919"/>
<path d="M39.5325 22.0302C39.5325 22.0302 38.8738 22.4521 38.8886 22.6001" stroke="black" stroke-width="0.0440919"/>
<path d="M39.6805 22.1042C39.6805 22.1042 39.5325 22.2671 39.5251 22.2671" stroke="black" stroke-width="0.0440919"/>
<path d="M39.8803 22.282C39.8803 22.282 39.5547 22.5484 39.6065 22.7186" stroke="black" stroke-width="0.0440919"/>
<path d="M38.3409 21.9933C38.3409 21.9933 38.2447 22.1931 38.2669 22.2597C38.2891 22.3263 38.452 22.578 38.4742 22.7334C38.4964 22.8888 38.4742 22.9998 38.4742 22.9998" stroke="black" stroke-width="0.0440919"/>
<path d="M38.1708 22.3633C38.1708 22.3633 38.2004 22.6002 38.2448 22.6446C38.2892 22.689 38.4076 22.8888 38.4224 22.9702" stroke="black" stroke-width="0.0440919"/>
<path d="M38.1116 23.3476C38.1116 23.3476 38.304 23.4438 38.4816 23.0738" stroke="black" stroke-width="0.0440919"/>
<path d="M38.7702 22.8149C38.7628 22.8149 38.6296 23.1775 38.8665 23.3107C39.1033 23.444 39.2809 23.4291 39.3845 23.3921C39.4881 23.3551 39.5991 23.2885 39.5991 23.2885" stroke="black" stroke-width="0.0440919"/>
<path d="M38.6666 23.2589C38.6666 23.2589 38.6814 23.7473 39.3993 24.2284" stroke="black" stroke-width="0.0440919"/>
<path d="M38.6962 23.7177C38.6962 23.7177 38.6888 24.1469 38.97 24.3393" stroke="black" stroke-width="0.0440919"/>
<path d="M38.5482 23.2144C38.5482 23.2144 38.3335 23.8509 38.1633 23.9175" stroke="black" stroke-width="0.0440919"/>
<path d="M38.4816 23.6807C38.4816 23.6807 38.4742 24.1396 38.415 24.3024" stroke="black" stroke-width="0.0440919"/>
<path d="M38.3558 24.4133C38.3558 24.4133 38.5038 24.5983 38.6666 24.5835C38.8294 24.5687 38.896 24.3763 39.007 24.4059C39.1181 24.4355 39.2217 24.5243 39.4807 24.5021" stroke="black" stroke-width="0.0440919"/>
<path d="M39.1107 24.6946C39.1107 24.6946 39.1107 25.0721 39.1773 25.1091C39.2439 25.1461 39.2143 25.4939 39.2143 25.4939" stroke="black" stroke-width="0.0440919"/>
<path d="M38.2077 24.517C38.2077 24.517 38.2003 24.8723 38.1559 24.9981C38.1115 25.1239 38.0227 25.3385 38.0375 25.5235" stroke="black" stroke-width="0.0440919"/>
<path d="M37.7563 25.7307C37.7933 25.7159 37.9191 25.6049 37.9191 25.6049" stroke="black" stroke-width="0.0440919"/>
<path d="M37.9857 25.6863C37.9857 25.6863 37.6675 27.0481 37.7563 27.8622" stroke="black" stroke-width="0.0440919"/>
<path d="M38.0598 25.7529C38.0598 25.7529 37.8969 26.7742 37.9709 26.9667" stroke="black" stroke-width="0.0440919"/>
<path d="M37.9783 25.7233C37.9857 25.7233 38.6 25.7677 38.6 25.7677" stroke="black" stroke-width="0.0440919"/>
<path d="M38.6888 25.6863C38.6888 25.6863 38.8591 25.7752 39.0959 25.7603" stroke="black" stroke-width="0.0440919"/>
<path d="M38.6148 26.1821C38.6148 26.1821 38.5852 27.9287 38.5408 28.3136" stroke="black" stroke-width="0.0440919"/>
<path d="M39.5251 26.5818C39.5251 26.5818 39.7175 28.1138 39.8285 28.2544" stroke="black" stroke-width="0.0440919"/>
<path d="M39.1551 26.7743C39.1551 26.7743 39.2735 28.1286 39.3401 28.2471" stroke="black" stroke-width="0.0440919"/>
<path d="M37.475 28.7207C37.475 28.7207 37.7045 28.6467 37.9117 28.4247C38.1485 28.7429 38.5112 28.4395 38.5112 28.4395C38.5112 28.4395 39.0736 28.8243 39.3253 28.3951C39.7101 28.6467 39.9025 28.3581 39.9025 28.3581C39.9025 28.3581 40.0431 28.5727 40.1467 28.5505" stroke="black" stroke-width="0.0440919"/>
<path d="M39.5325 28.6985C39.5325 28.6985 39.8211 30.0528 40.2504 30.4377" stroke="black" stroke-width="0.0440919"/>
<path d="M38.0449 28.5579C38.0449 28.5579 38.0819 29.6902 38.1485 30.4895" stroke="black" stroke-width="0.0440919"/>
<path d="M37.9931 29.8383C37.9931 29.8383 37.9561 30.5783 37.9117 30.6302" stroke="black" stroke-width="0.0440919"/>
<path d="M37.5565 30.7041C37.5565 30.7041 37.6379 31.0224 38.0449 30.7263C38.452 30.4303 38.4594 30.8373 38.4742 30.8817C38.489 30.9261 38.5556 31.2444 38.711 30.978" stroke="black" stroke-width="0.0440919"/>
<path d="M39.0367 30.5413C39.0367 30.5413 38.97 31.2 39.5547 30.7189C40.1394 30.2379 40.2356 30.7115 40.2504 30.8595" stroke="black" stroke-width="0.0440919"/>
<path d="M39.044 20.1061C39.044 20.1061 38.9922 20.4317 39.3401 20.4021C39.2957 20.5797 39.4289 20.6389 39.4289 20.6389" stroke="black" stroke-width="0.0440919"/>
<path d="M39.6879 20.8387C39.6953 20.8387 39.8434 20.935 39.6805 21.0534" stroke="black" stroke-width="0.0440919"/>
<path d="M39.1847 21.0978C39.1847 21.0978 39.2587 21.1866 39.3401 21.1644C39.4215 21.1422 39.5547 21.2458 39.5547 21.2458C39.5547 21.2458 39.6657 21.2828 39.6805 21.2606" stroke="black" stroke-width="0.0440919"/>
<path d="M38.7332 21.3791C38.7332 21.3791 38.9848 21.4753 39.1477 21.0756" stroke="black" stroke-width="0.0440919"/>
<path d="M38.267 20.9572L38.415 20.9646" stroke="black" stroke-width="0.0440919"/>
<path d="M36.6249 25.6245L36.6365 25.9488" stroke="black" stroke-width="0.0440919"/>
<path d="M36.3208 25.6004C36.3208 25.6004 36.5287 25.9482 36.5114 26.1335" stroke="black" stroke-width="0.0440919"/>
<path d="M38.2892 21.1052H38.4224L38.304 21.157" stroke="black" stroke-width="0.0440919" stroke-linejoin="round"/>
<path d="M39.1078 26.3271C39.1078 26.3271 39.2633 26.3107 39.2584 26.5703C39.3577 26.2478 39.5596 26.2402 39.5596 26.2402" stroke="black" stroke-width="0.0440919" stroke-linejoin="round"/>
<path d="M38.4742 20.6907C38.4964 20.6907 38.5778 20.6611 38.5926 20.6833C38.6074 20.7055 38.5038 20.7203 38.4742 20.6907Z" stroke="black" stroke-width="0.0793626" stroke-linejoin="round"/>
<path d="M38.5768 33.7381C41.7024 33.6513 43.721 31.3939 43.6994 31.3722C43.6777 31.3505 44.1118 30.7427 44.4591 30.8295C44.8064 30.9164 45.3056 31.9365 45.9133 32.1536C46.2172 32.6311 45.8265 33.0652 45.6963 33.1521C45.566 33.2389 44.98 33.4776 44.8932 33.1303C44.8064 32.7831 44.6327 32.8482 44.6327 32.8482C44.6327 32.8482 41.8544 35.5614 38.642 35.4529C35.321 35.4746 32.5861 32.8482 32.5861 32.8482L32.3473 33.1086C32.3473 33.1086 32.0869 33.3908 31.9566 33.3691C31.8264 33.3474 31.262 32.9784 31.2186 32.6094C31.1752 32.2404 31.5659 32.0017 31.5659 32.0017C31.5659 32.0017 32.521 31.2637 32.6295 30.873C32.8466 30.6559 33.259 31.0249 33.259 31.0249C33.259 31.0249 35.7768 33.9117 38.5769 33.7381L38.5768 33.7381Z" fill="#FFC72C" stroke="black" stroke-width="0.0881791"/>
<path d="M31.501 32.0592C31.501 32.0592 31.7593 31.9903 31.854 32.0979C31.9487 32.2055 32.5986 32.8426 32.5986 32.8426" stroke="black" stroke-width="0.0881791"/>
<path d="M32.0907 32.3605L31.8325 32.5542C31.8325 32.5542 32.4825 32.6833 32.3361 33.1095" stroke="black" stroke-width="0.0881791"/>
<path d="M45.6805 32.0376C45.6805 32.0376 45.5514 31.9687 45.3491 32.1194C45.1468 32.2701 44.6345 32.8426 44.6345 32.8426" stroke="black" stroke-width="0.0881791"/>
<path d="M45.0993 32.3433L45.3791 32.5586C45.3791 32.5586 44.7936 32.5973 44.9228 33.1526" stroke="black" stroke-width="0.0881791"/>
<path d="M34.8094 32.7483C34.7924 32.7975 34.7476 32.747 34.7105 32.7569C34.6126 32.7605 34.5313 32.8244 34.4475 32.8679C34.1608 33.0351 33.8742 33.2022 33.5875 33.3693C33.5585 33.3598 33.5654 33.3364 33.5725 33.313C33.6489 32.9549 33.7282 32.5975 33.8026 32.239C33.8149 32.1763 33.8348 32.0984 33.7742 32.0527C33.7485 32.0352 33.7883 31.9995 33.8048 32.0319C33.9514 32.1364 34.0979 32.2409 34.2445 32.3455C34.2304 32.3868 34.2054 32.3578 34.1804 32.341C34.1195 32.2825 34.0461 32.3366 34.0479 32.4106C33.9956 32.6466 33.9446 32.8829 33.8929 33.1191C34.0875 33.0034 34.2844 32.8914 34.4772 32.7728C34.5461 32.7422 34.5969 32.6499 34.5253 32.5927C34.4981 32.5767 34.4532 32.5329 34.498 32.5262C34.6018 32.6003 34.7056 32.6743 34.8094 32.7483V32.7483Z" fill="black"/>
<path d="M35.1182 34.2428C35.1104 34.2696 35.0965 34.2755 35.0752 34.2562C34.9027 34.1619 34.7302 34.0676 34.5577 33.9732C34.5656 33.9465 34.5795 33.9406 34.6008 33.9599C34.6475 33.9917 34.7239 34.0037 34.758 33.948C34.8264 33.8381 34.8842 33.7219 34.9476 33.6091C35.0339 33.4493 35.1237 33.2914 35.2074 33.1303C35.2474 33.0732 35.2027 33.0028 35.1468 32.9784C35.1278 32.9682 35.1 32.9607 35.1239 32.938C35.1354 32.9238 35.1599 32.9541 35.1767 32.9578C35.342 33.0482 35.5073 33.1386 35.6727 33.229C35.6648 33.2558 35.6509 33.2617 35.6296 33.2424C35.5828 33.2107 35.5061 33.1985 35.4717 33.2539C35.4032 33.3637 35.3455 33.48 35.282 33.5928C35.1958 33.7526 35.1059 33.9105 35.0223 34.0716C34.9823 34.1291 35.0268 34.1999 35.0837 34.2239C35.0952 34.2302 35.1067 34.2365 35.1182 34.2428V34.2428Z" fill="black"/>
<path d="M37.109 33.7759C37.0622 33.9073 37.0154 34.0388 36.9685 34.1703C36.911 34.1642 36.9493 34.0905 36.9314 34.0517C36.9108 33.8741 36.7798 33.7084 36.6015 33.6704C36.4651 33.6332 36.3211 33.7035 36.241 33.8144C36.12 33.9796 36.0464 34.1813 36.0361 34.386C36.0292 34.5024 36.0826 34.6218 36.1841 34.6831C36.2647 34.7361 36.3625 34.7575 36.4581 34.7548C36.4919 34.6553 36.5322 34.5579 36.5603 34.4567C36.5718 34.3908 36.5038 34.3511 36.4493 34.336C36.4408 34.3169 36.4619 34.2934 36.4841 34.314C36.656 34.3752 36.8279 34.4364 36.9998 34.4976C36.9936 34.5611 36.9219 34.4926 36.8822 34.5179C36.8187 34.5423 36.8132 34.6187 36.7892 34.6739C36.7682 34.7327 36.7473 34.7915 36.7263 34.8503C36.4952 34.8667 36.2571 34.8178 36.056 34.7015C35.8604 34.5783 35.7282 34.3404 35.7667 34.1071C35.7964 33.9074 35.9209 33.7203 36.105 33.6321C36.2741 33.5423 36.4805 33.5426 36.6561 33.6138C36.7522 33.6462 36.8351 33.7056 36.9094 33.7732C36.9544 33.8339 37.0416 33.834 37.0785 33.765C37.0887 33.7686 37.0989 33.7722 37.109 33.7759" fill="black"/>
<path d="M37.9478 35.1221C37.9467 35.1431 37.9444 35.1623 37.9193 35.1506C37.7224 35.1208 37.5256 35.091 37.3288 35.0611C37.3298 35.0402 37.3322 35.021 37.3573 35.0327C37.4085 35.0431 37.4771 35.0423 37.5018 34.987C37.5268 34.9082 37.5318 34.8246 37.5462 34.7434C37.58 34.5165 37.616 34.2899 37.6483 34.0628C37.6608 34.0138 37.6441 33.9585 37.5934 33.9395C37.5647 33.9259 37.5327 33.9238 37.5019 33.9187C37.5029 33.8977 37.5052 33.8785 37.5304 33.8902C37.7272 33.92 37.924 33.9498 38.1208 33.9797C38.1198 34.0006 38.1174 34.0198 38.0923 34.0081C38.0409 33.9975 37.9726 33.9989 37.947 34.0536C37.9219 34.1325 37.917 34.216 37.9026 34.2973C37.8688 34.5242 37.8327 34.7508 37.8004 34.9779C37.788 35.0267 37.8048 35.0832 37.8558 35.1016C37.8848 35.1148 37.9168 35.117 37.9478 35.1221V35.1221Z" fill="black"/>
<path d="M39.5419 34.7349C39.5341 34.8745 39.5263 35.0141 39.5185 35.1537C39.1674 35.1716 38.8162 35.1895 38.4651 35.2074C38.4587 35.1818 38.4655 35.1681 38.4934 35.1735C38.5464 35.1749 38.6146 35.1524 38.6213 35.0917C38.626 34.9876 38.6143 34.8835 38.6108 34.7795C38.5995 34.572 38.5913 34.3643 38.5777 34.1569C38.5835 34.0952 38.5279 34.0494 38.4693 34.0513C38.4507 34.0419 38.4004 34.0707 38.4054 34.0368C38.3969 34.0093 38.4351 34.0239 38.4512 34.0187C38.6465 34.0087 38.8418 33.9987 39.0371 33.9888C39.0436 34.0144 39.0367 34.028 39.0088 34.0227C38.9547 34.0224 38.8843 34.0356 38.8693 34.0966C38.8608 34.1867 38.8734 34.2772 38.8758 34.3674C38.8876 34.5835 38.896 34.7999 38.9103 35.0158C38.9059 35.0723 38.9513 35.1223 39.0099 35.1114C39.0954 35.1072 39.1827 35.1108 39.2662 35.0893C39.3834 35.0582 39.4472 34.9421 39.4793 34.8338C39.5003 34.8045 39.4829 34.7314 39.5293 34.7356C39.5335 34.7353 39.5377 34.7352 39.5419 34.7349" fill="black"/>
<path d="M40.3631 33.7213C40.3352 33.7218 40.3475 33.7574 40.3404 33.7761C40.2938 34.1254 40.2496 34.4751 40.2013 34.8242C40.1896 34.9015 40.1703 34.9918 40.094 35.031C40.0659 35.041 40.0906 35.0852 40.1164 35.0606C40.2337 35.0254 40.351 34.9903 40.4682 34.9551C40.4638 34.8958 40.3963 34.9497 40.3584 34.9392C40.2777 34.9391 40.2657 34.8411 40.277 34.7799C40.2818 34.7385 40.2867 34.6971 40.2916 34.6558C40.4259 34.6154 40.5602 34.575 40.6945 34.5346C40.746 34.5993 40.8027 34.6603 40.8492 34.7286C40.8841 34.7945 40.7992 34.8246 40.7499 34.8373C40.7269 34.8398 40.747 34.888 40.768 34.8656C40.9445 34.8127 41.121 34.7598 41.2976 34.7069C41.296 34.6469 41.2192 34.7031 41.1869 34.6631C41.0878 34.5886 41.0166 34.485 40.9346 34.3933C40.7441 34.1693 40.5536 33.9453 40.3631 33.7213V33.7213ZM40.3602 34.1404C40.4556 34.2542 40.551 34.3681 40.6464 34.482C40.532 34.5161 40.4176 34.5501 40.3032 34.5842C40.3222 34.4363 40.3412 34.2883 40.3602 34.1404Z" fill="black"/>
<path d="M42.1651 32.9344C42.2159 33.0288 42.2666 33.1232 42.3174 33.2176C42.27 33.2582 42.2454 33.1639 42.2025 33.1494C42.1321 33.0902 42.0259 33.079 41.9475 33.1293C41.9154 33.146 41.8837 33.1634 41.8518 33.1804C42.0049 33.4639 42.1559 33.7486 42.3104 34.0313C42.3343 34.1039 42.4234 34.1175 42.4808 34.0766C42.5031 34.0605 42.5232 34.0513 42.5303 34.0854C42.4526 34.1304 42.3677 34.1733 42.2872 34.2175C42.1858 34.272 42.0845 34.3265 41.9831 34.381C41.9592 34.3562 41.9752 34.3435 42.0021 34.334C42.0741 34.3072 42.1018 34.2198 42.0536 34.1582C41.9038 33.8767 41.7517 33.5963 41.6011 33.3152C41.5171 33.3617 41.41 33.4036 41.3888 33.5083C41.365 33.5741 41.4 33.6547 41.4 33.7108C41.3742 33.7376 41.3674 33.701 41.3554 33.6817C41.3121 33.601 41.2687 33.5203 41.2253 33.4397C41.5386 33.2712 41.8519 33.1028 42.1651 32.9344V32.9344Z" fill="black"/>
<path d="M42.8777 32.5119C42.9747 32.6406 43.0718 32.7693 43.1689 32.898C43.2364 32.8551 43.2928 32.7784 43.2725 32.6946C43.2803 32.6292 43.1867 32.555 43.2189 32.5091C43.2401 32.496 43.2525 32.545 43.2701 32.5579C43.3809 32.7048 43.4918 32.8518 43.6026 32.9988C43.5592 33.0482 43.5278 32.9475 43.4819 32.9366C43.4171 32.8905 43.3262 32.8676 43.2567 32.918C43.2049 32.9346 43.2073 32.9637 43.2426 32.9957C43.3206 33.0964 43.393 33.2017 43.4763 33.2982C43.5273 33.3477 43.5907 33.296 43.6339 33.2616C43.7454 33.1856 43.8434 33.067 43.8377 32.9247C43.845 32.8626 43.806 32.7933 43.8064 32.7408C43.8314 32.7076 43.8384 32.7592 43.8527 32.7762C43.9051 32.8708 43.9576 32.9655 44.01 33.0602C43.7368 33.2663 43.4635 33.4724 43.1903 33.6785C43.1547 33.6533 43.1897 33.6384 43.2121 33.621C43.2887 33.5738 43.2644 33.4772 43.208 33.4242C43.0329 33.1936 42.8609 32.9605 42.6835 32.7316C42.6381 32.6701 42.5544 32.7025 42.5085 32.7454C42.4896 32.7723 42.4598 32.7184 42.4958 32.7144C42.7535 32.52 43.0111 32.3257 43.2688 32.1313C43.3393 32.2248 43.4098 32.3183 43.4803 32.4118C43.4313 32.4615 43.3879 32.3508 43.332 32.3449C43.2304 32.2921 43.1097 32.3347 43.0258 32.4015C42.9756 32.4372 42.927 32.475 42.8777 32.5119" fill="black"/>
<mask id="mask1_1_31631" style="mask-type:alpha" maskUnits="userSpaceOnUse" x="3" y="9" width="24" height="18">
<rect x="3" y="9" width="24" height="18" fill="#C4C4C4"/>
</mask>
<g mask="url(#mask1_1_31631)">
<path d="M3 9L27 27L3 9ZM27 9L3 27Z" fill="black"/>
<path d="M27 9L3 27M3 9L27 27L3 9Z" stroke="white" stroke-width="2.4"/>
<path d="M3 9L27 27L3 9ZM27 9L3 27Z" fill="black"/>
<path d="M27 9L3 27M3 9L27 27L3 9Z" stroke="#EE5757" stroke-width="1.6"/>
<path d="M15 9V30V9ZM3 18H31Z" fill="black"/>
<path d="M3 18H31M15 9V30V9Z" stroke="white" stroke-width="4"/>
<path d="M15 9V30V9ZM3 18H31Z" fill="black"/>
<path d="M3 18H31M15 9V30V9Z" stroke="#EE5757" stroke-width="2.4"/>
</g>
</g>
<defs>
<linearGradient id="paint0_linear_1_31631" x1="34.1956" y1="20.5169" x2="33.6625" y2="20.4383" gradientUnits="userSpaceOnUse">
<stop stop-color="#FF0000"/>
<stop offset="1" stop-color="#FFFF00"/>
</linearGradient>
<linearGradient id="paint1_linear_1_31631" x1="41.1846" y1="20.5169" x2="40.6515" y2="20.4383" gradientUnits="userSpaceOnUse">
<stop stop-color="#FF0000"/>
<stop offset="1" stop-color="#FFFF00"/>
</linearGradient>
<linearGradient id="paint2_linear_1_31631" x1="34.1956" y1="22.4755" x2="33.6625" y2="22.3969" gradientUnits="userSpaceOnUse">
<stop stop-color="#FF0000"/>
<stop offset="1" stop-color="#FFFF00"/>
</linearGradient>
<linearGradient id="paint3_linear_1_31631" x1="41.1846" y1="22.4755" x2="40.6515" y2="22.3969" gradientUnits="userSpaceOnUse">
<stop stop-color="#FF0000"/>
<stop offset="1" stop-color="#FFFF00"/>
</linearGradient>
<linearGradient id="paint4_linear_1_31631" x1="34.1956" y1="24.3912" x2="33.6625" y2="24.3126" gradientUnits="userSpaceOnUse">
<stop stop-color="#FF0000"/>
<stop offset="1" stop-color="#FFFF00"/>
</linearGradient>
<linearGradient id="paint5_linear_1_31631" x1="41.1846" y1="24.3912" x2="40.6515" y2="24.3126" gradientUnits="userSpaceOnUse">
<stop stop-color="#FF0000"/>
<stop offset="1" stop-color="#FFFF00"/>
</linearGradient>
<linearGradient id="paint6_linear_1_31631" x1="34.1956" y1="30.2315" x2="33.6625" y2="30.1528" gradientUnits="userSpaceOnUse">
<stop stop-color="#FF0000"/>
<stop offset="1" stop-color="#FFFF00"/>
</linearGradient>
<linearGradient id="paint7_linear_1_31631" x1="41.1846" y1="30.0446" x2="40.6515" y2="29.966" gradientUnits="userSpaceOnUse">
<stop stop-color="#FF0000"/>
<stop offset="1" stop-color="#FFFF00"/>
</linearGradient>
<linearGradient id="paint8_linear_1_31631" x1="34.1956" y1="28.3159" x2="33.6625" y2="28.2373" gradientUnits="userSpaceOnUse">
<stop stop-color="#FF0000"/>
<stop offset="1" stop-color="#FFFF00"/>
</linearGradient>
<linearGradient id="paint9_linear_1_31631" x1="41.1846" y1="28.1289" x2="40.6515" y2="28.0503" gradientUnits="userSpaceOnUse">
<stop stop-color="#FF0000"/>
<stop offset="1" stop-color="#FFFF00"/>
</linearGradient>
<linearGradient id="paint10_linear_1_31631" x1="35.4844" y1="26.4469" x2="34.9513" y2="26.3683" gradientUnits="userSpaceOnUse">
<stop stop-color="#FF0000"/>
<stop offset="1" stop-color="#FFFF00"/>
</linearGradient>
<linearGradient id="paint11_linear_1_31631" x1="41.1379" y1="26.2601" x2="40.6048" y2="26.1815" gradientUnits="userSpaceOnUse">
<stop stop-color="#FF0000"/>
<stop offset="1" stop-color="#FFFF00"/>
</linearGradient>
</defs>
</svg>
