<svg width="54" height="48" viewBox="0 0 54 48" fill="none" xmlns="http://www.w3.org/2000/svg">
<mask id="mask0_1_31631" style="mask-type:alpha" maskUnits="userSpaceOnUse" x="3" y="6" width="48" height="36">
<path d="M3.56934 15.1356C4.16681 10.4125 8.0415 7.00193 12.7861 6.60887C16.6412 6.28949 21.6196 6 27 6C32.3804 6 37.3588 6.28949 41.2139 6.60887C45.9585 7.00193 49.8332 10.4125 50.4307 15.1356C50.752 17.6759 51 20.704 51 24C51 27.296 50.752 30.3241 50.4307 32.8644C49.8332 37.5875 45.9585 40.9981 41.2139 41.3911C37.3588 41.7105 32.3804 42 27 42C21.6196 42 16.6412 41.7105 12.7861 41.3911C8.0415 40.9981 4.16681 37.5875 3.56934 32.8644C3.248 30.3241 3 27.296 3 24C3 20.704 3.248 17.6759 3.56934 15.1356Z" fill="#00D0BF"/>
</mask>
<g mask="url(#mask0_1_31631)">
<rect x="3" y="6" width="48" height="36" fill="#2E50A6"/>
<path d="M32.7814 16.0434L44.4808 16L44.4591 26.4187C44.4591 26.4187 44.8715 28.0032 39.5536 30.4126C41.4637 30.2172 43.5474 28.1769 43.5474 28.1769C43.5474 28.1769 44.3939 27.0916 44.8064 27.6994C45.2188 28.3071 45.6095 28.611 45.9133 28.8497C46.2172 29.0885 46.456 29.7397 46.0002 30.2172C45.5443 30.6947 44.828 30.7598 44.6327 30.1738C44.3288 30.3257 42.4621 32.5831 38.642 32.6916C34.7567 32.6265 32.6295 30.1521 32.6295 30.1521C32.6295 30.1521 32.1086 30.9769 31.3706 30.3257C30.6543 29.4792 31.1969 28.9366 31.1969 28.9366C31.1969 28.9366 31.8047 28.5893 31.9783 28.3505C32.2605 28.0249 32.3473 27.5908 32.8248 27.5908C33.3892 27.6342 33.6063 28.09 33.6063 28.09C33.6063 28.09 35.5598 30.1521 37.6652 30.4126C32.9119 28.1333 32.7382 26.7224 32.7599 26.3751L32.7816 16.0433L32.7814 16.0434Z" fill="white"/>
<path d="M33.0636 16.3256L44.2203 16.2604V26.2885C44.242 27.5908 42.0497 28.9148 38.6203 30.6079C35.0822 28.7846 33.0419 27.6776 33.0202 26.2668L33.0636 16.3256L33.0636 16.3256Z" fill="#006129" stroke="black" stroke-width="0.0881791"/>
<path d="M34.5818 17.8076L35.2404 16.8404L35.9022 17.8096" stroke="#FFC72C" stroke-width="0.0881791"/>
<path d="M35.3726 17.4461C35.3726 17.5183 35.3141 17.5769 35.2418 17.5769C35.1696 17.5769 35.111 17.5183 35.111 17.4461C35.111 17.3738 35.1696 17.3152 35.2418 17.3152C35.3141 17.3152 35.3726 17.3738 35.3726 17.4461Z" fill="#FFC72C" stroke="black" stroke-width="0.0440919"/>
<path d="M34.7056 18.5221L35.7266 18.525C35.7266 18.525 35.7426 18.3925 35.62 18.312C36.1547 18.2384 36.0158 17.7667 36.4637 17.74C36.5506 17.7534 36.2297 17.9405 36.2297 17.9405C36.2297 17.9405 35.9597 18.1311 36.0826 18.228C36.1803 18.3049 36.223 18.1812 36.2364 18.0876C36.2498 17.994 36.6709 17.9338 36.6107 17.6665C36.5104 17.4459 35.9222 17.8135 35.9222 17.8135L35.5025 17.8112C35.4764 17.7641 35.3607 17.5752 35.2413 17.5743C35.0996 17.5795 34.9998 17.8135 34.9998 17.8135H34.3915H34.0506C34.0506 17.8135 34.018 18.0571 34.4993 18.1039C34.6077 18.2454 34.6917 18.2849 34.7859 18.3216C34.7231 18.3739 34.7054 18.4372 34.7056 18.5221V18.5221Z" fill="#FFC72C" stroke="black" stroke-width="0.0440919"/>
<path d="M34.7791 18.3148L35.6295 18.3119L34.7791 18.3148Z" fill="#FFC72C"/>
<path d="M34.7791 18.3148L35.6295 18.3119" stroke="black" stroke-width="0.0440919"/>
<path d="M34.3896 17.8134C34.3896 17.8134 34.4577 18.2111 34.7717 18.3053L34.3896 17.8134Z" fill="#FFC72C"/>
<path d="M34.3896 17.8134C34.3896 17.8134 34.4577 18.2111 34.7717 18.3053" stroke="black" stroke-width="0.0440919"/>
<path d="M34.3373 17.8081C34.3687 17.6564 34.4263 17.6302 34.4891 17.4366C34.4995 17.2482 34.3373 17.2691 34.3844 17.1488C34.4681 17.0179 34.4263 16.8923 34.2693 16.7929C34.3007 16.9656 34.0652 17.1278 34.0652 17.2691C34.0652 17.4104 34.1855 17.379 34.1698 17.5936C34.1803 17.7192 34.1384 17.6878 34.128 17.8081H34.3373V17.8081Z" fill="url(#paint0_linear_1_31631)" stroke="black" stroke-width="0.0440919"/>
<path d="M35.3622 16.8652C35.3622 16.9317 35.3083 16.9856 35.2418 16.9856C35.1754 16.9856 35.1215 16.9317 35.1215 16.8652C35.1215 16.7988 35.1754 16.7449 35.2418 16.7449C35.3083 16.7449 35.3622 16.7988 35.3622 16.8652Z" fill="#FFC72C" stroke="black" stroke-width="0.0440919"/>
<path d="M41.5709 17.8076L42.2294 16.8404L42.8912 17.8096" stroke="#FFC72C" stroke-width="0.0881791"/>
<path d="M42.3616 17.4461C42.3616 17.5183 42.3031 17.5769 42.2308 17.5769C42.1586 17.5769 42.1 17.5183 42.1 17.4461C42.1 17.3738 42.1586 17.3152 42.2308 17.3152C42.3031 17.3152 42.3616 17.3738 42.3616 17.4461Z" fill="#FFC72C" stroke="black" stroke-width="0.0440919"/>
<path d="M41.6947 18.5221L42.7156 18.525C42.7156 18.525 42.7316 18.3925 42.609 18.312C43.1437 18.2384 43.0048 17.7667 43.4527 17.74C43.5396 17.7534 43.2187 17.9405 43.2187 17.9405C43.2187 17.9405 42.9487 18.1311 43.0717 18.228C43.1693 18.3049 43.212 18.1812 43.2254 18.0876C43.2388 17.994 43.6599 17.9338 43.5997 17.6665C43.4995 17.4459 42.9112 17.8135 42.9112 17.8135L42.4916 17.8112C42.4654 17.7641 42.3497 17.5752 42.2303 17.5743C42.0886 17.5795 41.9888 17.8135 41.9888 17.8135H41.3805H41.0396C41.0396 17.8135 41.007 18.0571 41.4883 18.1039C41.5967 18.2454 41.6807 18.2849 41.7749 18.3216C41.7121 18.3739 41.6944 18.4372 41.6947 18.5221V18.5221Z" fill="#FFC72C" stroke="black" stroke-width="0.0440919"/>
<path d="M41.7682 18.3148L42.6186 18.3119L41.7682 18.3148Z" fill="#FFC72C"/>
<path d="M41.7682 18.3148L42.6186 18.3119" stroke="black" stroke-width="0.0440919"/>
<path d="M41.3787 17.8134C41.3787 17.8134 41.4467 18.2111 41.7607 18.3053L41.3787 17.8134Z" fill="#FFC72C"/>
<path d="M41.3787 17.8134C41.3787 17.8134 41.4467 18.2111 41.7607 18.3053" stroke="black" stroke-width="0.0440919"/>
<path d="M41.3263 17.8081C41.3577 17.6564 41.4153 17.6302 41.4781 17.4366C41.4886 17.2482 41.3263 17.2691 41.3734 17.1488C41.4572 17.0179 41.4153 16.8923 41.2583 16.7929C41.2897 16.9656 41.0542 17.1278 41.0542 17.2691C41.0542 17.4104 41.1746 17.379 41.1589 17.5936C41.1693 17.7192 41.1275 17.6878 41.117 17.8081H41.3263V17.8081Z" fill="url(#paint1_linear_1_31631)" stroke="black" stroke-width="0.0440919"/>
<path d="M42.3512 16.8652C42.3512 16.9317 42.2973 16.9856 42.2309 16.9856C42.1644 16.9856 42.1105 16.9317 42.1105 16.8652C42.1105 16.7988 42.1644 16.7449 42.2309 16.7449C42.2973 16.7449 42.3512 16.7988 42.3512 16.8652Z" fill="#FFC72C" stroke="black" stroke-width="0.0440919"/>
<path d="M34.5818 19.7662L35.2404 18.799L35.9022 19.7682" stroke="#FFC72C" stroke-width="0.0881791"/>
<path d="M35.3726 19.4046C35.3726 19.4769 35.3141 19.5355 35.2418 19.5355C35.1696 19.5355 35.111 19.4769 35.111 19.4046C35.111 19.3324 35.1696 19.2738 35.2418 19.2738C35.3141 19.2738 35.3726 19.3324 35.3726 19.4046Z" fill="#FFC72C" stroke="black" stroke-width="0.0440919"/>
<path d="M34.7056 20.4806L35.7266 20.4835C35.7266 20.4835 35.7426 20.351 35.62 20.2704C36.1547 20.1969 36.0158 19.7252 36.4637 19.6985C36.5506 19.7119 36.2297 19.899 36.2297 19.899C36.2297 19.899 35.9597 20.0896 36.0826 20.1865C36.1803 20.2634 36.223 20.1397 36.2364 20.0461C36.2498 19.9525 36.6709 19.8923 36.6107 19.625C36.5104 19.4044 35.9222 19.772 35.9222 19.772L35.5025 19.7697C35.4764 19.7226 35.3607 19.5337 35.2413 19.5328C35.0996 19.538 34.9998 19.772 34.9998 19.772H34.3915H34.0506C34.0506 19.772 34.018 20.0156 34.4993 20.0624C34.6077 20.2039 34.6917 20.2434 34.7859 20.28C34.7231 20.3324 34.7054 20.3957 34.7056 20.4806V20.4806Z" fill="#FFC72C" stroke="black" stroke-width="0.0440919"/>
<path d="M34.7791 20.2733L35.6295 20.2704L34.7791 20.2733Z" fill="#FFC72C"/>
<path d="M34.7791 20.2733L35.6295 20.2704" stroke="black" stroke-width="0.0440919"/>
<path d="M34.3896 19.772C34.3896 19.772 34.4577 20.1697 34.7717 20.2639L34.3896 19.772Z" fill="#FFC72C"/>
<path d="M34.3896 19.772C34.3896 19.772 34.4577 20.1697 34.7717 20.2639" stroke="black" stroke-width="0.0440919"/>
<path d="M34.3373 19.7667C34.3687 19.6149 34.4263 19.5888 34.4891 19.3951C34.4995 19.2068 34.3373 19.2277 34.3844 19.1073C34.4681 18.9765 34.4263 18.8509 34.2693 18.7515C34.3007 18.9242 34.0652 19.0864 34.0652 19.2277C34.0652 19.369 34.1855 19.3376 34.1698 19.5521C34.1803 19.6777 34.1384 19.6463 34.128 19.7667H34.3373V19.7667Z" fill="url(#paint2_linear_1_31631)" stroke="black" stroke-width="0.0440919"/>
<path d="M35.3622 18.8236C35.3622 18.8901 35.3083 18.944 35.2418 18.944C35.1754 18.944 35.1215 18.8901 35.1215 18.8236C35.1215 18.7571 35.1754 18.7032 35.2418 18.7032C35.3083 18.7032 35.3622 18.7571 35.3622 18.8236Z" fill="#FFC72C" stroke="black" stroke-width="0.0440919"/>
<path d="M41.5709 19.7662L42.2294 18.799L42.8912 19.7682" stroke="#FFC72C" stroke-width="0.0881791"/>
<path d="M42.3616 19.4046C42.3616 19.4769 42.3031 19.5355 42.2308 19.5355C42.1586 19.5355 42.1 19.4769 42.1 19.4046C42.1 19.3324 42.1586 19.2738 42.2308 19.2738C42.3031 19.2738 42.3616 19.3324 42.3616 19.4046Z" fill="#FFC72C" stroke="black" stroke-width="0.0440919"/>
<path d="M41.6947 20.4806L42.7156 20.4835C42.7156 20.4835 42.7316 20.351 42.609 20.2704C43.1437 20.1969 43.0048 19.7252 43.4527 19.6985C43.5396 19.7119 43.2187 19.899 43.2187 19.899C43.2187 19.899 42.9487 20.0896 43.0717 20.1865C43.1693 20.2634 43.212 20.1397 43.2254 20.0461C43.2388 19.9525 43.6599 19.8923 43.5997 19.625C43.4995 19.4044 42.9112 19.772 42.9112 19.772L42.4916 19.7697C42.4654 19.7226 42.3497 19.5337 42.2303 19.5328C42.0886 19.538 41.9888 19.772 41.9888 19.772H41.3805H41.0396C41.0396 19.772 41.007 20.0156 41.4883 20.0624C41.5967 20.2039 41.6807 20.2434 41.7749 20.28C41.7121 20.3324 41.6944 20.3957 41.6947 20.4806V20.4806Z" fill="#FFC72C" stroke="black" stroke-width="0.0440919"/>
<path d="M41.7682 20.2733L42.6186 20.2704L41.7682 20.2733Z" fill="#FFC72C"/>
<path d="M41.7682 20.2733L42.6186 20.2704" stroke="black" stroke-width="0.0440919"/>
<path d="M41.3787 19.772C41.3787 19.772 41.4467 20.1697 41.7607 20.2639L41.3787 19.772Z" fill="#FFC72C"/>
<path d="M41.3787 19.772C41.3787 19.772 41.4467 20.1697 41.7607 20.2639" stroke="black" stroke-width="0.0440919"/>
<path d="M41.3263 19.7667C41.3577 19.6149 41.4153 19.5888 41.4781 19.3951C41.4886 19.2068 41.3263 19.2277 41.3734 19.1073C41.4572 18.9765 41.4153 18.8509 41.2583 18.7515C41.2897 18.9242 41.0542 19.0864 41.0542 19.2277C41.0542 19.369 41.1746 19.3376 41.1589 19.5521C41.1693 19.6777 41.1275 19.6463 41.117 19.7667H41.3263V19.7667Z" fill="url(#paint3_linear_1_31631)" stroke="black" stroke-width="0.0440919"/>
<path d="M42.3512 18.8236C42.3512 18.8901 42.2973 18.944 42.2309 18.944C42.1644 18.944 42.1105 18.8901 42.1105 18.8236C42.1105 18.7571 42.1644 18.7032 42.2309 18.7032C42.2973 18.7032 42.3512 18.7571 42.3512 18.8236Z" fill="#FFC72C" stroke="black" stroke-width="0.0440919"/>
<path d="M34.5818 21.6818L35.2404 20.7146L35.9022 21.6838" stroke="#FFC72C" stroke-width="0.0881791"/>
<path d="M35.3726 21.3203C35.3726 21.3925 35.3141 21.4511 35.2418 21.4511C35.1696 21.4511 35.111 21.3925 35.111 21.3203C35.111 21.248 35.1696 21.1895 35.2418 21.1895C35.3141 21.1895 35.3726 21.248 35.3726 21.3203Z" fill="#FFC72C" stroke="black" stroke-width="0.0440919"/>
<path d="M34.7056 22.3963L35.7266 22.3992C35.7266 22.3992 35.7426 22.2667 35.62 22.1862C36.1547 22.1126 36.0158 21.6409 36.4637 21.6142C36.5506 21.6276 36.2297 21.8147 36.2297 21.8147C36.2297 21.8147 35.9597 22.0053 36.0826 22.1022C36.1803 22.1791 36.223 22.0554 36.2364 21.9618C36.2498 21.8682 36.6709 21.8081 36.6107 21.5407C36.5104 21.3201 35.9222 21.6877 35.9222 21.6877L35.5025 21.6854C35.4764 21.6383 35.3607 21.4494 35.2413 21.4485C35.0996 21.4537 34.9998 21.6877 34.9998 21.6877H34.3915H34.0506C34.0506 21.6877 34.018 21.9313 34.4993 21.9781C34.6077 22.1196 34.6917 22.1591 34.7859 22.1958C34.7231 22.2481 34.7054 22.3114 34.7056 22.3963V22.3963Z" fill="#FFC72C" stroke="black" stroke-width="0.0440919"/>
<path d="M34.7791 22.189L35.6295 22.1861L34.7791 22.189Z" fill="#FFC72C"/>
<path d="M34.7791 22.189L35.6295 22.1861" stroke="black" stroke-width="0.0440919"/>
<path d="M34.3896 21.6876C34.3896 21.6876 34.4577 22.0854 34.7717 22.1795L34.3896 21.6876Z" fill="#FFC72C"/>
<path d="M34.3896 21.6876C34.3896 21.6876 34.4577 22.0854 34.7717 22.1795" stroke="black" stroke-width="0.0440919"/>
<path d="M34.3373 21.6825C34.3687 21.5307 34.4263 21.5045 34.4891 21.3109C34.4995 21.1225 34.3373 21.1435 34.3844 21.0231C34.4681 20.8923 34.4263 20.7667 34.2693 20.6672C34.3007 20.8399 34.0652 21.0022 34.0652 21.1435C34.0652 21.2848 34.1855 21.2534 34.1698 21.4679C34.1803 21.5935 34.1384 21.5621 34.128 21.6825H34.3373V21.6825Z" fill="url(#paint4_linear_1_31631)" stroke="black" stroke-width="0.0440919"/>
<path d="M35.3622 20.7394C35.3622 20.8059 35.3083 20.8598 35.2418 20.8598C35.1754 20.8598 35.1215 20.8059 35.1215 20.7394C35.1215 20.673 35.1754 20.6191 35.2418 20.6191C35.3083 20.6191 35.3622 20.673 35.3622 20.7394Z" fill="#FFC72C" stroke="black" stroke-width="0.0440919"/>
<path d="M41.5709 21.6818L42.2294 20.7146L42.8912 21.6838" stroke="#FFC72C" stroke-width="0.0881791"/>
<path d="M42.3616 21.3203C42.3616 21.3925 42.3031 21.4511 42.2308 21.4511C42.1586 21.4511 42.1 21.3925 42.1 21.3203C42.1 21.248 42.1586 21.1895 42.2308 21.1895C42.3031 21.1895 42.3616 21.248 42.3616 21.3203Z" fill="#FFC72C" stroke="black" stroke-width="0.0440919"/>
<path d="M41.6947 22.3963L42.7156 22.3992C42.7156 22.3992 42.7316 22.2667 42.609 22.1862C43.1437 22.1126 43.0048 21.6409 43.4527 21.6142C43.5396 21.6276 43.2187 21.8147 43.2187 21.8147C43.2187 21.8147 42.9487 22.0053 43.0717 22.1022C43.1693 22.1791 43.212 22.0554 43.2254 21.9618C43.2388 21.8682 43.6599 21.8081 43.5997 21.5407C43.4995 21.3201 42.9112 21.6877 42.9112 21.6877L42.4916 21.6854C42.4654 21.6383 42.3497 21.4494 42.2303 21.4485C42.0886 21.4537 41.9888 21.6877 41.9888 21.6877H41.3805H41.0396C41.0396 21.6877 41.007 21.9313 41.4883 21.9781C41.5967 22.1196 41.6807 22.1591 41.7749 22.1958C41.7121 22.2481 41.6944 22.3114 41.6947 22.3963V22.3963Z" fill="#FFC72C" stroke="black" stroke-width="0.0440919"/>
<path d="M41.7682 22.189L42.6186 22.1861L41.7682 22.189Z" fill="#FFC72C"/>
<path d="M41.7682 22.189L42.6186 22.1861" stroke="black" stroke-width="0.0440919"/>
<path d="M41.3787 21.6876C41.3787 21.6876 41.4467 22.0854 41.7607 22.1795L41.3787 21.6876Z" fill="#FFC72C"/>
<path d="M41.3787 21.6876C41.3787 21.6876 41.4467 22.0854 41.7607 22.1795" stroke="black" stroke-width="0.0440919"/>
<path d="M41.3263 21.6825C41.3577 21.5307 41.4153 21.5045 41.4781 21.3109C41.4886 21.1225 41.3263 21.1435 41.3734 21.0231C41.4572 20.8923 41.4153 20.7667 41.2583 20.6672C41.2897 20.8399 41.0542 21.0022 41.0542 21.1435C41.0542 21.2848 41.1746 21.2534 41.1589 21.4679C41.1693 21.5935 41.1275 21.5621 41.117 21.6825H41.3263V21.6825Z" fill="url(#paint5_linear_1_31631)" stroke="black" stroke-width="0.0440919"/>
<path d="M42.3512 20.7394C42.3512 20.8059 42.2973 20.8598 42.2309 20.8598C42.1644 20.8598 42.1105 20.8059 42.1105 20.7394C42.1105 20.673 42.1644 20.6191 42.2309 20.6191C42.2973 20.6191 42.3512 20.673 42.3512 20.7394Z" fill="#FFC72C" stroke="black" stroke-width="0.0440919"/>
<path d="M34.5818 27.5221L35.2404 26.5549L35.9022 27.5242" stroke="#FFC72C" stroke-width="0.0881791"/>
<path d="M35.3726 27.1606C35.3726 27.2329 35.3141 27.2914 35.2418 27.2914C35.1696 27.2914 35.111 27.2329 35.111 27.1606C35.111 27.0884 35.1696 27.0298 35.2418 27.0298C35.3141 27.0298 35.3726 27.0884 35.3726 27.1606Z" fill="#FFC72C" stroke="black" stroke-width="0.0440919"/>
<path d="M34.7056 28.2366L35.7266 28.2395C35.7266 28.2395 35.7426 28.107 35.62 28.0264C36.1547 27.9529 36.0158 27.4812 36.4637 27.4545C36.5506 27.4678 36.2297 27.655 36.2297 27.655C36.2297 27.655 35.9597 27.8456 36.0826 27.9424C36.1803 28.0194 36.223 27.8957 36.2364 27.8021C36.2498 27.7085 36.6709 27.6483 36.6107 27.381C36.5104 27.1604 35.9222 27.528 35.9222 27.528L35.5025 27.5257C35.4764 27.4786 35.3607 27.2897 35.2413 27.2888C35.0996 27.294 34.9998 27.528 34.9998 27.528H34.3915H34.0506C34.0506 27.528 34.018 27.7715 34.4993 27.8183C34.6077 27.9599 34.6917 27.9994 34.7859 28.036C34.7231 28.0884 34.7054 28.1517 34.7056 28.2366V28.2366Z" fill="#FFC72C" stroke="black" stroke-width="0.0440919"/>
<path d="M34.7791 28.0293L35.6295 28.0264L34.7791 28.0293Z" fill="#FFC72C"/>
<path d="M34.7791 28.0293L35.6295 28.0264" stroke="black" stroke-width="0.0440919"/>
<path d="M34.3896 27.528C34.3896 27.528 34.4577 27.9257 34.7717 28.0199L34.3896 27.528Z" fill="#FFC72C"/>
<path d="M34.3896 27.528C34.3896 27.528 34.4577 27.9257 34.7717 28.0199" stroke="black" stroke-width="0.0440919"/>
<path d="M34.3373 27.5227C34.3687 27.3709 34.4263 27.3448 34.4891 27.1511C34.4995 26.9627 34.3373 26.9837 34.3844 26.8633C34.4681 26.7325 34.4263 26.6069 34.2693 26.5074C34.3007 26.6801 34.0652 26.8424 34.0652 26.9837C34.0652 27.125 34.1855 27.0936 34.1698 27.3081C34.1803 27.4337 34.1384 27.4023 34.128 27.5227H34.3373V27.5227Z" fill="url(#paint6_linear_1_31631)" stroke="black" stroke-width="0.0440919"/>
<path d="M35.3622 26.5796C35.3622 26.646 35.3083 26.6999 35.2418 26.6999C35.1754 26.6999 35.1215 26.646 35.1215 26.5796C35.1215 26.5131 35.1754 26.4592 35.2418 26.4592C35.3083 26.4592 35.3622 26.5131 35.3622 26.5796Z" fill="#FFC72C" stroke="black" stroke-width="0.0440919"/>
<path d="M41.5709 27.3353L42.2294 26.3681L42.8912 27.3373" stroke="#FFC72C" stroke-width="0.0881791"/>
<path d="M42.3616 26.9736C42.3616 27.0458 42.3031 27.1044 42.2308 27.1044C42.1586 27.1044 42.1 27.0458 42.1 26.9736C42.1 26.9014 42.1586 26.8428 42.2308 26.8428C42.3031 26.8428 42.3616 26.9014 42.3616 26.9736Z" fill="#FFC72C" stroke="black" stroke-width="0.0440919"/>
<path d="M41.6947 28.0496L42.7156 28.0525C42.7156 28.0525 42.7316 27.92 42.609 27.8395C43.1437 27.7659 43.0048 27.2943 43.4527 27.2675C43.5396 27.2809 43.2187 27.4681 43.2187 27.4681C43.2187 27.4681 42.9487 27.6586 43.0717 27.7555C43.1693 27.8324 43.212 27.7087 43.2254 27.6151C43.2388 27.5215 43.6599 27.4614 43.5997 27.194C43.4995 26.9734 42.9112 27.3411 42.9112 27.3411L42.4916 27.3387C42.4654 27.2916 42.3497 27.1027 42.2303 27.1019C42.0886 27.107 41.9888 27.3411 41.9888 27.3411H41.3805H41.0396C41.0396 27.3411 41.007 27.5846 41.4883 27.6314C41.5967 27.7729 41.6807 27.8124 41.7749 27.8491C41.7121 27.9014 41.6944 27.9647 41.6947 28.0496V28.0496Z" fill="#FFC72C" stroke="black" stroke-width="0.0440919"/>
<path d="M41.7682 27.8425L42.6186 27.8396L41.7682 27.8425Z" fill="#FFC72C"/>
<path d="M41.7682 27.8425L42.6186 27.8396" stroke="black" stroke-width="0.0440919"/>
<path d="M41.3787 27.3411C41.3787 27.3411 41.4467 27.7389 41.7607 27.8331L41.3787 27.3411Z" fill="#FFC72C"/>
<path d="M41.3787 27.3411C41.3787 27.3411 41.4467 27.7389 41.7607 27.8331" stroke="black" stroke-width="0.0440919"/>
<path d="M41.3263 27.3358C41.3577 27.184 41.4153 27.1579 41.4781 26.9642C41.4886 26.7758 41.3263 26.7968 41.3734 26.6764C41.4572 26.5456 41.4153 26.42 41.2583 26.3206C41.2897 26.4933 41.0542 26.6555 41.0542 26.7968C41.0542 26.9381 41.1746 26.9067 41.1589 27.1212C41.1693 27.2468 41.1275 27.2154 41.117 27.3358H41.3263V27.3358Z" fill="url(#paint7_linear_1_31631)" stroke="black" stroke-width="0.0440919"/>
<path d="M42.3512 26.3928C42.3512 26.4592 42.2973 26.5131 42.2309 26.5131C42.1644 26.5131 42.1105 26.4592 42.1105 26.3928C42.1105 26.3263 42.1644 26.2724 42.2309 26.2724C42.2973 26.2724 42.3512 26.3263 42.3512 26.3928Z" fill="#FFC72C" stroke="black" stroke-width="0.0440919"/>
<path d="M34.5818 25.6066L35.2404 24.6394L35.9022 25.6086" stroke="#FFC72C" stroke-width="0.0881791"/>
<path d="M35.3726 25.2451C35.3726 25.3173 35.3141 25.3759 35.2418 25.3759C35.1696 25.3759 35.111 25.3173 35.111 25.2451C35.111 25.1728 35.1696 25.1143 35.2418 25.1143C35.3141 25.1143 35.3726 25.1728 35.3726 25.2451Z" fill="#FFC72C" stroke="black" stroke-width="0.0440919"/>
<path d="M34.7056 26.3209L35.7266 26.3238C35.7266 26.3238 35.7426 26.1913 35.62 26.1108C36.1547 26.0372 36.0158 25.5656 36.4637 25.5388C36.5506 25.5522 36.2297 25.7394 36.2297 25.7394C36.2297 25.7394 35.9597 25.9299 36.0826 26.0268C36.1803 26.1037 36.223 25.98 36.2364 25.8864C36.2498 25.7928 36.6709 25.7327 36.6107 25.4653C36.5104 25.2447 35.9222 25.6124 35.9222 25.6124L35.5025 25.61C35.4764 25.5629 35.3607 25.374 35.2413 25.3732C35.0996 25.3783 34.9998 25.6124 34.9998 25.6124H34.3915H34.0506C34.0506 25.6124 34.018 25.8559 34.4993 25.9027C34.6077 26.0442 34.6917 26.0837 34.7859 26.1204C34.7231 26.1727 34.7054 26.236 34.7056 26.3209V26.3209Z" fill="#FFC72C" stroke="black" stroke-width="0.0440919"/>
<path d="M34.7791 26.1138L35.6295 26.1109L34.7791 26.1138Z" fill="#FFC72C"/>
<path d="M34.7791 26.1138L35.6295 26.1109" stroke="black" stroke-width="0.0440919"/>
<path d="M34.3896 25.6124C34.3896 25.6124 34.4577 26.0102 34.7717 26.1044L34.3896 25.6124Z" fill="#FFC72C"/>
<path d="M34.3896 25.6124C34.3896 25.6124 34.4577 26.0102 34.7717 26.1044" stroke="black" stroke-width="0.0440919"/>
<path d="M34.3373 25.6072C34.3687 25.4554 34.4263 25.4292 34.4891 25.2356C34.4995 25.0472 34.3373 25.0681 34.3844 24.9478C34.4681 24.8169 34.4263 24.6913 34.2693 24.5919C34.3007 24.7646 34.0652 24.9268 34.0652 25.0681C34.0652 25.2094 34.1855 25.178 34.1698 25.3926C34.1803 25.5182 34.1384 25.4868 34.128 25.6072H34.3373V25.6072Z" fill="url(#paint8_linear_1_31631)" stroke="black" stroke-width="0.0440919"/>
<path d="M35.3622 24.6641C35.3622 24.7305 35.3083 24.7844 35.2418 24.7844C35.1754 24.7844 35.1215 24.7305 35.1215 24.6641C35.1215 24.5976 35.1754 24.5437 35.2418 24.5437C35.3083 24.5437 35.3622 24.5976 35.3622 24.6641Z" fill="#FFC72C" stroke="black" stroke-width="0.0440919"/>
<path d="M41.5709 25.4196L42.2294 24.4524L42.8912 25.4216" stroke="#FFC72C" stroke-width="0.0881791"/>
<path d="M42.3616 25.058C42.3616 25.1302 42.3031 25.1888 42.2308 25.1888C42.1586 25.1888 42.1 25.1302 42.1 25.058C42.1 24.9857 42.1586 24.9271 42.2308 24.9271C42.3031 24.9271 42.3616 24.9857 42.3616 25.058Z" fill="#FFC72C" stroke="black" stroke-width="0.0440919"/>
<path d="M41.6947 26.134L42.7156 26.1369C42.7156 26.1369 42.7316 26.0044 42.609 25.9238C43.1437 25.8503 43.0048 25.3786 43.4527 25.3519C43.5396 25.3652 43.2187 25.5524 43.2187 25.5524C43.2187 25.5524 42.9487 25.743 43.0717 25.8398C43.1693 25.9168 43.212 25.7931 43.2254 25.6995C43.2388 25.6059 43.6599 25.5457 43.5997 25.2784C43.4995 25.0578 42.9112 25.4254 42.9112 25.4254L42.4916 25.4231C42.4654 25.376 42.3497 25.1871 42.2303 25.1862C42.0886 25.1914 41.9888 25.4254 41.9888 25.4254H41.3805H41.0396C41.0396 25.4254 41.007 25.6689 41.4883 25.7157C41.5967 25.8573 41.6807 25.8968 41.7749 25.9334C41.7121 25.9858 41.6944 26.0491 41.6947 26.134V26.134Z" fill="#FFC72C" stroke="black" stroke-width="0.0440919"/>
<path d="M41.7682 25.9268L42.6186 25.924L41.7682 25.9268Z" fill="#FFC72C"/>
<path d="M41.7682 25.9268L42.6186 25.924" stroke="black" stroke-width="0.0440919"/>
<path d="M41.3787 25.4253C41.3787 25.4253 41.4467 25.823 41.7607 25.9172L41.3787 25.4253Z" fill="#FFC72C"/>
<path d="M41.3787 25.4253C41.3787 25.4253 41.4467 25.823 41.7607 25.9172" stroke="black" stroke-width="0.0440919"/>
<path d="M41.3263 25.4201C41.3577 25.2684 41.4153 25.2422 41.4781 25.0486C41.4886 24.8602 41.3263 24.8811 41.3734 24.7608C41.4572 24.6299 41.4153 24.5043 41.2583 24.4049C41.2897 24.5776 41.0542 24.7398 41.0542 24.8811C41.0542 25.0224 41.1746 24.991 41.1589 25.2056C41.1693 25.3312 41.1275 25.2998 41.117 25.4201H41.3263V25.4201Z" fill="url(#paint9_linear_1_31631)" stroke="black" stroke-width="0.0440919"/>
<path d="M42.3512 24.4771C42.3512 24.5436 42.2973 24.5975 42.2309 24.5975C42.1644 24.5975 42.1105 24.5436 42.1105 24.4771C42.1105 24.4106 42.1644 24.3568 42.2309 24.3568C42.2973 24.3568 42.3512 24.4106 42.3512 24.4771Z" fill="#FFC72C" stroke="black" stroke-width="0.0440919"/>
<path d="M35.8707 23.7376L36.5293 22.7704L37.191 23.7396" stroke="#FFC72C" stroke-width="0.0881791"/>
<path d="M36.6615 23.3761C36.6615 23.4483 36.6029 23.5069 36.5307 23.5069C36.4584 23.5069 36.3999 23.4483 36.3999 23.3761C36.3999 23.3038 36.4584 23.2452 36.5307 23.2452C36.6029 23.2452 36.6615 23.3038 36.6615 23.3761Z" fill="#FFC72C" stroke="black" stroke-width="0.0440919"/>
<path d="M35.9945 24.4521L37.0155 24.455C37.0155 24.455 37.0315 24.3225 36.9088 24.2419C37.4436 24.1684 37.3047 23.6967 37.7525 23.67C37.8394 23.6834 37.5186 23.8705 37.5186 23.8705C37.5186 23.8705 37.2486 24.0611 37.3715 24.158C37.4691 24.2349 37.5119 24.1112 37.5253 24.0176C37.5386 23.924 37.9597 23.8638 37.8996 23.5965C37.7993 23.3759 37.2111 23.7435 37.2111 23.7435L36.7914 23.7412C36.7653 23.6941 36.6496 23.5052 36.5302 23.5043C36.3885 23.5095 36.2886 23.7435 36.2886 23.7435H35.6804H35.3395C35.3395 23.7435 35.3069 23.9871 35.7882 24.0339C35.8965 24.1754 35.9805 24.2149 36.0747 24.2515C36.0119 24.3039 35.9943 24.3672 35.9945 24.4521V24.4521Z" fill="#FFC72C" stroke="black" stroke-width="0.0440919"/>
<path d="M36.068 24.2448L36.9184 24.2419L36.068 24.2448Z" fill="#FFC72C"/>
<path d="M36.068 24.2448L36.9184 24.2419" stroke="black" stroke-width="0.0440919"/>
<path d="M35.6785 23.7434C35.6785 23.7434 35.7466 24.1411 36.0605 24.2353L35.6785 23.7434Z" fill="#FFC72C"/>
<path d="M35.6785 23.7434C35.6785 23.7434 35.7466 24.1411 36.0605 24.2353" stroke="black" stroke-width="0.0440919"/>
<path d="M35.6262 23.7381C35.6576 23.5864 35.7152 23.5602 35.778 23.3666C35.7884 23.1782 35.6262 23.1991 35.6733 23.0788C35.757 22.9479 35.7152 22.8223 35.5582 22.7229C35.5896 22.8956 35.3541 23.0578 35.3541 23.1991C35.3541 23.3404 35.4744 23.309 35.4587 23.5236C35.4692 23.6492 35.4273 23.6178 35.4169 23.7381H35.6262V23.7381Z" fill="url(#paint10_linear_1_31631)" stroke="black" stroke-width="0.0440919"/>
<path d="M36.651 22.7952C36.6511 22.8617 36.5972 22.9156 36.5307 22.9156C36.4643 22.9156 36.4104 22.8617 36.4104 22.7952C36.4104 22.7288 36.4643 22.6749 36.5307 22.6749C36.5972 22.6749 36.6511 22.7288 36.651 22.7952Z" fill="#FFC72C" stroke="black" stroke-width="0.0440919"/>
<path d="M41.5242 23.5508L42.1827 22.5836L42.8445 23.5529" stroke="#FFC72C" stroke-width="0.0881791"/>
<path d="M42.3149 23.1893C42.3149 23.2615 42.2564 23.3201 42.1841 23.3201C42.1119 23.3201 42.0533 23.2615 42.0533 23.1893C42.0533 23.1171 42.1119 23.0585 42.1841 23.0585C42.2564 23.0585 42.3149 23.1171 42.3149 23.1893Z" fill="#FFC72C" stroke="black" stroke-width="0.0440919"/>
<path d="M41.648 24.2652L42.6689 24.2682C42.6689 24.2682 42.6849 24.1356 42.5623 24.0551C43.097 23.9816 42.9581 23.5099 43.406 23.4832C43.4929 23.4965 43.172 23.6837 43.172 23.6837C43.172 23.6837 42.902 23.8742 43.025 23.9711C43.1226 24.048 43.1653 23.9243 43.1787 23.8308C43.1921 23.7372 43.6132 23.677 43.553 23.4096C43.4528 23.1891 42.8645 23.5567 42.8645 23.5567L42.4449 23.5544C42.4187 23.5073 42.303 23.3184 42.1836 23.3175C42.0419 23.3227 41.9421 23.5567 41.9421 23.5567H41.3338H40.9929C40.9929 23.5567 40.9603 23.8002 41.4416 23.847C41.55 23.9885 41.634 24.0281 41.7282 24.0647C41.6654 24.1171 41.6477 24.1804 41.648 24.2652V24.2652Z" fill="#FFC72C" stroke="black" stroke-width="0.0440919"/>
<path d="M41.7215 24.058L42.5719 24.0551L41.7215 24.058Z" fill="#FFC72C"/>
<path d="M41.7215 24.058L42.5719 24.0551" stroke="black" stroke-width="0.0440919"/>
<path d="M41.332 23.5566C41.332 23.5566 41.4 23.9544 41.714 24.0486L41.332 23.5566Z" fill="#FFC72C"/>
<path d="M41.332 23.5566C41.332 23.5566 41.4 23.9544 41.714 24.0486" stroke="black" stroke-width="0.0440919"/>
<path d="M41.2797 23.5514C41.3111 23.3996 41.3687 23.3734 41.4315 23.1798C41.4419 22.9914 41.2797 23.0123 41.3268 22.892C41.4105 22.7612 41.3687 22.6356 41.2117 22.5361C41.2431 22.7088 41.0076 22.8711 41.0076 23.0124C41.0076 23.1536 41.1279 23.1223 41.1122 23.3368C41.1227 23.4624 41.0808 23.431 41.0704 23.5514H41.2797V23.5514Z" fill="url(#paint11_linear_1_31631)" stroke="black" stroke-width="0.0440919"/>
<path d="M42.3045 22.6083C42.3045 22.6747 42.2506 22.7286 42.1842 22.7286C42.1177 22.7286 42.0638 22.6747 42.0638 22.6083C42.0638 22.5418 42.1177 22.4879 42.1842 22.4879C42.2506 22.4879 42.3045 22.5418 42.3045 22.6083Z" fill="#FFC72C" stroke="black" stroke-width="0.0440919"/>
<path d="M39.3031 28.2963C39.3031 28.2963 39.5695 28.9106 39.873 28.5331C40.1764 28.1557 40.0654 27.9928 40.0654 27.9928L39.3845 27.6228L39.1847 28.0447L39.3031 28.2963V28.2963Z" fill="#FFC72C" stroke="black" stroke-width="0.0440919"/>
<path d="M39.8877 28.2148C39.8877 28.2148 39.9321 28.2222 39.9692 28.1556C40.0062 28.089 39.8877 28.0594 39.8359 27.9854L39.7767 28.1038L39.8877 28.2148Z" fill="#FFC6B5" stroke="black" stroke-width="0.0440919"/>
<path d="M38.3484 28.052L37.7489 28.3776C37.7489 28.3776 37.4529 28.4368 37.4307 28.3776C37.4085 28.3184 37.4381 28.2666 37.5935 28.2592C37.7489 28.2518 38.1708 27.8669 38.1708 27.8669L38.3484 28.052H38.3484Z" fill="#FFC6B5" stroke="black" stroke-width="0.0440919"/>
<path d="M38.3558 17.4021C38.3558 17.4021 38.3706 17.5427 38.378 17.6167C38.3854 17.6907 38.2596 17.8461 38.2522 17.8387C38.2448 17.8313 38.1856 17.8461 38.193 17.8905C38.2004 17.9349 38.2892 17.9497 38.2892 17.9497C38.2892 17.9497 38.2522 18.1052 38.2892 18.1126C38.3262 18.12 38.193 18.3124 38.2892 18.3642C38.3854 18.416 38.5482 18.4826 38.6222 18.4678C38.6962 18.453 38.6222 18.7564 38.6222 18.7564L38.415 19.2005L39.5547 19.0821L39.3179 18.7046C39.3179 18.7046 39.2069 18.6306 39.2365 18.416C39.2661 18.2014 39.2217 17.2319 39.2217 17.2319L38.4076 17.1208L38.3558 17.4021V17.4021Z" fill="#FFC6B5" stroke="black" stroke-width="0.0440919"/>
<path d="M38.1485 19.0895C38.1485 19.0895 37.7785 19.2598 37.7933 19.7186C37.6971 20.1627 37.6453 20.6067 37.6453 20.6067C37.6453 20.6067 37.2086 21.1026 37.0754 21.2802C36.9422 21.4578 36.7424 21.8204 36.6684 21.9167C36.5943 22.0129 36.3057 22.3311 36.3131 22.4495C36.3205 22.5679 36.2465 23.0934 36.5351 23.1526C36.6091 23.1822 36.846 22.5457 36.846 22.5457C36.846 22.5457 36.8608 22.2719 36.7794 22.2201C36.698 22.1683 36.957 21.9907 36.957 21.9907C36.957 21.9907 37.4528 21.628 37.5639 21.5392C37.6749 21.4504 37.9783 21.11 37.9783 21.11L38.1485 19.0895V19.0895Z" fill="#FFC6B5" stroke="black" stroke-width="0.0440919"/>
<path d="M38.5704 18.7417C38.5704 18.7417 38.6666 19.0008 38.8812 18.9564C39.0959 18.9119 39.3475 18.7121 39.3475 18.7121C39.3475 18.7121 39.5473 18.7047 39.5769 18.7343C39.6065 18.7639 40.1172 19.2598 40.1024 19.4152C40.0876 19.5706 39.8656 19.5262 39.7841 19.6298C39.7027 19.7334 39.5695 19.9925 39.6065 20.1849C39.6435 20.3773 39.7545 20.6289 39.7397 20.7252C39.7249 20.8214 39.6435 20.851 39.6435 20.9028C39.6435 20.9546 39.7101 21.0434 39.7101 21.1396C39.7101 21.2358 39.6213 21.3764 39.6361 21.4726C39.6509 21.5689 39.6583 21.8501 39.6583 21.8501L39.6361 23.1526C39.6361 23.1526 39.7101 23.197 39.7175 23.271C39.7249 23.3451 40.2208 25.4987 40.2208 25.4987C40.2208 25.4987 40.1986 25.5653 40.1468 25.5579C40.095 25.5505 40.3466 25.8909 40.354 25.9872C40.3614 26.0834 40.613 26.8383 40.6056 26.9419C40.5982 27.0455 40.5612 27.2749 40.539 27.2823C40.5168 27.2897 40.7019 27.756 40.6722 27.83C40.6426 27.904 40.3392 27.8966 40.3392 27.8966L40.2578 27.8818C40.2578 27.8818 40.2652 27.978 40.206 27.9854C40.1468 27.9928 39.7101 27.9632 39.7101 27.9632C39.7101 27.9632 39.5843 28.1556 39.5103 28.1482C39.4363 28.1408 39.3401 28.0076 39.3179 28.0298C39.2957 28.052 39.3845 28.1778 39.3623 28.2148C39.3401 28.2518 38.9627 28.3332 38.8886 28.1556C38.8146 27.978 38.9331 28.0224 38.9109 27.9854C38.8886 27.9484 38.7184 27.8522 38.6666 27.8818C38.6148 27.9114 38.7998 27.9558 38.7924 28.0298C38.785 28.1038 38.6296 28.2148 38.5704 28.2148C38.5112 28.2148 38.3706 27.941 38.1634 27.9706C37.9561 28.0002 37.8229 28.052 37.8229 28.052C37.8229 28.052 37.5787 28.1556 37.4751 28.1334C37.3715 28.1112 37.3271 28.0298 37.3271 27.9854C37.3271 27.941 37.4011 27.7486 37.3937 27.6893C37.3863 27.6301 37.3271 27.5709 37.3271 27.4821C37.3271 27.3933 37.4973 27.0899 37.4973 27.0899L37.4899 25.7281C37.4899 25.7281 37.3345 25.7281 37.3271 25.6319C37.3197 25.5357 37.5639 23.4783 37.6009 23.345C37.6379 23.2118 37.7341 22.7382 37.7341 22.7382C37.7341 22.7382 37.6231 22.79 37.6157 22.7382C37.6083 22.6864 37.9487 21.5096 37.9487 21.5096C37.9487 21.5096 38.0079 20.925 38.0079 20.7696C38.0079 20.6141 37.9783 20.3995 37.9783 20.3995C37.9783 20.3995 37.6745 20.2709 37.6675 20.0739C37.6397 19.7604 37.9561 19.5854 37.9931 19.4818C38.0301 19.3782 38.1412 19.0674 38.1412 19.0674C38.1412 19.0674 38.304 18.7861 38.5704 18.7417L38.5704 18.7417Z" fill="white" stroke="black" stroke-width="0.0440919"/>
<path d="M38.4594 28.1407C38.4594 28.1407 37.7415 28.5182 37.6379 28.5478C37.5343 28.5774 37.4677 28.422 37.5713 28.3924C37.6749 28.3628 37.8377 28.348 37.8377 28.348C37.8377 28.348 37.5935 28.1555 37.6009 28.1481C37.6083 28.1407 37.9339 28.0223 37.9413 28.0223C37.9487 28.0223 38.045 28.2148 38.1116 28.2C38.1782 28.1852 38.3706 28.0371 38.3706 28.0371C38.3706 28.0371 38.4742 28.1556 38.4594 28.1407Z" fill="#FFC72C" stroke="black" stroke-width="0.0440919"/>
<path d="M39.4708 28.348C39.5386 28.4355 39.5652 28.5873 39.7206 28.4985C39.876 28.4097 39.641 28.2449 39.641 28.2449L39.4708 28.348Z" fill="#FFC6B5" stroke="black" stroke-width="0.0440919"/>
<path d="M39.7545 28.3332C39.7545 28.3332 39.8285 28.3924 39.8951 28.3258C39.9617 28.2592 39.7619 28.1186 39.7619 28.1186L39.6657 28.2296L39.7545 28.3332Z" fill="#FFC6B5" stroke="black" stroke-width="0.0440919"/>
<path d="M40.0728 19.449C40.0802 19.449 40.317 20.1817 40.3466 20.3667C40.3762 20.5518 40.4724 21.2918 40.4354 21.3955C40.3984 21.4991 40.021 21.9949 39.9765 22.1207C39.9321 22.2466 39.6657 22.7276 39.6657 22.7276C39.6657 22.7276 39.5991 23.2013 39.5695 23.2235C39.5399 23.2457 39.6459 23.3619 39.6361 23.4011C39.6214 23.4451 39.4215 23.6527 39.3327 23.6305C39.2439 23.6083 39.1032 23.5047 39.0958 23.4085C39.0884 23.3123 39.1032 22.994 39.1699 22.9126C39.2365 22.8312 39.5843 22.0097 39.6065 21.9579C39.6287 21.9061 39.9247 21.2622 39.9321 21.1512C39.9395 21.0402 39.8401 20.7835 39.7354 20.6893C39.5025 20.0038 39.594 19.5903 40.0728 19.449V19.449Z" fill="#FFC6B5" stroke="black" stroke-width="0.0440919"/>
<path d="M38.3336 17.3578C38.3336 17.3578 38.4964 17.38 38.5852 17.3282C38.674 17.2764 38.7776 17.2542 38.8516 17.3578C38.9256 17.4614 38.9774 17.454 38.9774 17.454C38.9774 17.454 38.8664 17.7278 38.9774 17.7574C39.0884 17.787 39.1402 17.787 39.1477 17.824C39.1551 17.861 39.0514 17.9424 39.081 17.9794C39.1106 18.0165 39.1625 18.0609 39.1699 18.0905C39.1773 18.1201 39.1032 18.2459 39.1254 18.2755C39.1477 18.3051 39.2143 18.4235 39.2587 18.4235C39.3031 18.4235 39.2735 18.6085 39.4067 18.5641C39.5399 18.5197 39.5325 18.4013 39.5325 18.4013C39.5325 18.4013 39.6731 18.3791 39.7101 18.2533C39.7471 18.1275 39.8359 18.0979 39.8359 18.0979C39.8359 18.0979 40.0135 18.0017 39.7767 17.8536C39.7767 16.8175 39.0958 16.9285 39.0958 16.9285C39.0958 16.9285 39.0144 16.7435 38.8812 16.7657C38.748 16.7879 38.7406 16.9433 38.6444 16.9285C38.5482 16.9137 38.526 16.8471 38.5186 16.8545C38.5112 16.8619 38.4298 17.0099 38.4298 17.0469C38.4298 17.0839 38.1707 16.9951 38.1929 17.1876C38.2151 17.38 38.341 17.3726 38.3336 17.3578L38.3336 17.3578Z" fill="#9C5100" stroke="black" stroke-width="0.0440919"/>
<path d="M39.5325 19.0302C39.5325 19.0302 38.8738 19.4521 38.8886 19.6001" stroke="black" stroke-width="0.0440919"/>
<path d="M39.6805 19.1042C39.6805 19.1042 39.5325 19.2671 39.5251 19.2671" stroke="black" stroke-width="0.0440919"/>
<path d="M39.8803 19.282C39.8803 19.282 39.5547 19.5484 39.6065 19.7186" stroke="black" stroke-width="0.0440919"/>
<path d="M38.3409 18.9933C38.3409 18.9933 38.2447 19.1931 38.2669 19.2597C38.2891 19.3263 38.452 19.578 38.4742 19.7334C38.4964 19.8888 38.4742 19.9998 38.4742 19.9998" stroke="black" stroke-width="0.0440919"/>
<path d="M38.1708 19.3633C38.1708 19.3633 38.2004 19.6002 38.2448 19.6446C38.2892 19.689 38.4076 19.8888 38.4224 19.9702" stroke="black" stroke-width="0.0440919"/>
<path d="M38.1116 20.3476C38.1116 20.3476 38.304 20.4438 38.4816 20.0738" stroke="black" stroke-width="0.0440919"/>
<path d="M38.7702 19.8149C38.7628 19.8149 38.6296 20.1775 38.8665 20.3107C39.1033 20.444 39.2809 20.4291 39.3845 20.3921C39.4881 20.3551 39.5991 20.2885 39.5991 20.2885" stroke="black" stroke-width="0.0440919"/>
<path d="M38.6666 20.2589C38.6666 20.2589 38.6814 20.7473 39.3993 21.2284" stroke="black" stroke-width="0.0440919"/>
<path d="M38.6962 20.7177C38.6962 20.7177 38.6888 21.1469 38.97 21.3393" stroke="black" stroke-width="0.0440919"/>
<path d="M38.5482 20.2144C38.5482 20.2144 38.3335 20.8509 38.1633 20.9175" stroke="black" stroke-width="0.0440919"/>
<path d="M38.4816 20.6807C38.4816 20.6807 38.4742 21.1396 38.415 21.3024" stroke="black" stroke-width="0.0440919"/>
<path d="M38.3558 21.4133C38.3558 21.4133 38.5038 21.5983 38.6666 21.5835C38.8294 21.5687 38.896 21.3763 39.007 21.4059C39.1181 21.4355 39.2217 21.5243 39.4807 21.5021" stroke="black" stroke-width="0.0440919"/>
<path d="M39.1107 21.6946C39.1107 21.6946 39.1107 22.0721 39.1773 22.1091C39.2439 22.1461 39.2143 22.4939 39.2143 22.4939" stroke="black" stroke-width="0.0440919"/>
<path d="M38.2077 21.517C38.2077 21.517 38.2003 21.8723 38.1559 21.9981C38.1115 22.1239 38.0227 22.3385 38.0375 22.5235" stroke="black" stroke-width="0.0440919"/>
<path d="M37.7563 22.7307C37.7933 22.7159 37.9191 22.6049 37.9191 22.6049" stroke="black" stroke-width="0.0440919"/>
<path d="M37.9857 22.6863C37.9857 22.6863 37.6675 24.0481 37.7563 24.8622" stroke="black" stroke-width="0.0440919"/>
<path d="M38.0598 22.7529C38.0598 22.7529 37.8969 23.7742 37.9709 23.9667" stroke="black" stroke-width="0.0440919"/>
<path d="M37.9783 22.7233C37.9857 22.7233 38.6 22.7677 38.6 22.7677" stroke="black" stroke-width="0.0440919"/>
<path d="M38.6888 22.6863C38.6888 22.6863 38.8591 22.7752 39.0959 22.7603" stroke="black" stroke-width="0.0440919"/>
<path d="M38.6148 23.1821C38.6148 23.1821 38.5852 24.9287 38.5408 25.3136" stroke="black" stroke-width="0.0440919"/>
<path d="M39.5251 23.5818C39.5251 23.5818 39.7175 25.1138 39.8285 25.2544" stroke="black" stroke-width="0.0440919"/>
<path d="M39.1551 23.7743C39.1551 23.7743 39.2735 25.1286 39.3401 25.2471" stroke="black" stroke-width="0.0440919"/>
<path d="M37.475 25.7207C37.475 25.7207 37.7045 25.6467 37.9117 25.4247C38.1485 25.7429 38.5112 25.4395 38.5112 25.4395C38.5112 25.4395 39.0736 25.8243 39.3253 25.3951C39.7101 25.6467 39.9025 25.3581 39.9025 25.3581C39.9025 25.3581 40.0431 25.5727 40.1467 25.5505" stroke="black" stroke-width="0.0440919"/>
<path d="M39.5325 25.6985C39.5325 25.6985 39.8211 27.0528 40.2504 27.4377" stroke="black" stroke-width="0.0440919"/>
<path d="M38.0449 25.5579C38.0449 25.5579 38.0819 26.6902 38.1485 27.4895" stroke="black" stroke-width="0.0440919"/>
<path d="M37.9931 26.8383C37.9931 26.8383 37.9561 27.5783 37.9117 27.6302" stroke="black" stroke-width="0.0440919"/>
<path d="M37.5565 27.7041C37.5565 27.7041 37.6379 28.0224 38.0449 27.7263C38.452 27.4303 38.4594 27.8373 38.4742 27.8817C38.489 27.9261 38.5556 28.2444 38.711 27.978" stroke="black" stroke-width="0.0440919"/>
<path d="M39.0367 27.5413C39.0367 27.5413 38.97 28.2 39.5547 27.7189C40.1394 27.2379 40.2356 27.7115 40.2504 27.8595" stroke="black" stroke-width="0.0440919"/>
<path d="M39.044 17.1061C39.044 17.1061 38.9922 17.4317 39.3401 17.4021C39.2957 17.5797 39.4289 17.6389 39.4289 17.6389" stroke="black" stroke-width="0.0440919"/>
<path d="M39.6879 17.8387C39.6953 17.8387 39.8434 17.935 39.6805 18.0534" stroke="black" stroke-width="0.0440919"/>
<path d="M39.1847 18.0978C39.1847 18.0978 39.2587 18.1866 39.3401 18.1644C39.4215 18.1422 39.5547 18.2458 39.5547 18.2458C39.5547 18.2458 39.6657 18.2828 39.6805 18.2606" stroke="black" stroke-width="0.0440919"/>
<path d="M38.7332 18.3791C38.7332 18.3791 38.9848 18.4753 39.1477 18.0756" stroke="black" stroke-width="0.0440919"/>
<path d="M38.267 17.9572L38.415 17.9646" stroke="black" stroke-width="0.0440919"/>
<path d="M36.6249 22.6245L36.6365 22.9488" stroke="black" stroke-width="0.0440919"/>
<path d="M36.3208 22.6004C36.3208 22.6004 36.5287 22.9482 36.5114 23.1335" stroke="black" stroke-width="0.0440919"/>
<path d="M38.2892 18.1052H38.4224L38.304 18.157" stroke="black" stroke-width="0.0440919" stroke-linejoin="round"/>
<path d="M39.1078 23.3271C39.1078 23.3271 39.2633 23.3107 39.2584 23.5703C39.3577 23.2478 39.5596 23.2402 39.5596 23.2402" stroke="black" stroke-width="0.0440919" stroke-linejoin="round"/>
<path d="M38.4742 17.6907C38.4964 17.6907 38.5778 17.6611 38.5926 17.6833C38.6074 17.7055 38.5038 17.7203 38.4742 17.6907Z" stroke="black" stroke-width="0.0793626" stroke-linejoin="round"/>
<path d="M38.5768 30.7381C41.7024 30.6513 43.721 28.3939 43.6994 28.3722C43.6777 28.3505 44.1118 27.7427 44.4591 27.8295C44.8064 27.9164 45.3056 28.9365 45.9133 29.1536C46.2172 29.6311 45.8265 30.0652 45.6963 30.1521C45.566 30.2389 44.98 30.4776 44.8932 30.1303C44.8064 29.7831 44.6327 29.8482 44.6327 29.8482C44.6327 29.8482 41.8544 32.5614 38.642 32.4529C35.321 32.4746 32.5861 29.8482 32.5861 29.8482L32.3473 30.1086C32.3473 30.1086 32.0869 30.3908 31.9566 30.3691C31.8264 30.3474 31.262 29.9784 31.2186 29.6094C31.1752 29.2404 31.5659 29.0017 31.5659 29.0017C31.5659 29.0017 32.521 28.2637 32.6295 27.873C32.8466 27.6559 33.259 28.0249 33.259 28.0249C33.259 28.0249 35.7768 30.9117 38.5769 30.7381L38.5768 30.7381Z" fill="#FFC72C" stroke="black" stroke-width="0.0881791"/>
<path d="M31.501 29.0592C31.501 29.0592 31.7593 28.9903 31.854 29.0979C31.9487 29.2055 32.5986 29.8426 32.5986 29.8426" stroke="black" stroke-width="0.0881791"/>
<path d="M32.0907 29.3605L31.8325 29.5542C31.8325 29.5542 32.4825 29.6833 32.3361 30.1095" stroke="black" stroke-width="0.0881791"/>
<path d="M45.6805 29.0376C45.6805 29.0376 45.5514 28.9687 45.3491 29.1194C45.1468 29.2701 44.6345 29.8426 44.6345 29.8426" stroke="black" stroke-width="0.0881791"/>
<path d="M45.0993 29.3433L45.3791 29.5586C45.3791 29.5586 44.7936 29.5973 44.9228 30.1526" stroke="black" stroke-width="0.0881791"/>
<path d="M34.8094 29.7483C34.7924 29.7975 34.7476 29.747 34.7105 29.7569C34.6126 29.7605 34.5313 29.8244 34.4475 29.8679C34.1608 30.0351 33.8742 30.2022 33.5875 30.3693C33.5585 30.3598 33.5654 30.3364 33.5725 30.313C33.6489 29.9549 33.7282 29.5975 33.8026 29.239C33.8149 29.1763 33.8348 29.0984 33.7742 29.0527C33.7485 29.0352 33.7883 28.9995 33.8048 29.0319C33.9514 29.1364 34.0979 29.2409 34.2445 29.3455C34.2304 29.3868 34.2054 29.3578 34.1804 29.341C34.1195 29.2825 34.0461 29.3366 34.0479 29.4106C33.9956 29.6466 33.9446 29.8829 33.8929 30.1191C34.0875 30.0034 34.2844 29.8914 34.4772 29.7728C34.5461 29.7422 34.5969 29.6499 34.5253 29.5927C34.4981 29.5767 34.4532 29.5329 34.498 29.5262C34.6018 29.6003 34.7056 29.6743 34.8094 29.7483V29.7483Z" fill="black"/>
<path d="M35.1182 31.2428C35.1104 31.2696 35.0965 31.2755 35.0752 31.2562C34.9027 31.1619 34.7302 31.0676 34.5577 30.9732C34.5656 30.9465 34.5795 30.9406 34.6008 30.9599C34.6475 30.9917 34.7239 31.0037 34.758 30.948C34.8264 30.8381 34.8842 30.7219 34.9476 30.6091C35.0339 30.4493 35.1237 30.2914 35.2074 30.1303C35.2474 30.0732 35.2027 30.0028 35.1468 29.9784C35.1278 29.9682 35.1 29.9607 35.1239 29.938C35.1354 29.9238 35.1599 29.9541 35.1767 29.9578C35.342 30.0482 35.5073 30.1386 35.6727 30.229C35.6648 30.2558 35.6509 30.2617 35.6296 30.2424C35.5828 30.2107 35.5061 30.1985 35.4717 30.2539C35.4032 30.3637 35.3455 30.48 35.282 30.5928C35.1958 30.7526 35.1059 30.9105 35.0223 31.0716C34.9823 31.1291 35.0268 31.1999 35.0837 31.2239C35.0952 31.2302 35.1067 31.2365 35.1182 31.2428Z" fill="black"/>
<path d="M37.109 30.7759C37.0622 30.9073 37.0154 31.0388 36.9685 31.1703C36.911 31.1642 36.9493 31.0905 36.9314 31.0517C36.9108 30.8741 36.7798 30.7084 36.6015 30.6704C36.4651 30.6332 36.3211 30.7035 36.241 30.8144C36.12 30.9796 36.0464 31.1813 36.0361 31.386C36.0292 31.5024 36.0826 31.6218 36.1841 31.6831C36.2647 31.7361 36.3625 31.7575 36.4581 31.7548C36.4919 31.6553 36.5322 31.5579 36.5603 31.4567C36.5718 31.3908 36.5038 31.3511 36.4493 31.336C36.4408 31.3169 36.4619 31.2934 36.4841 31.314C36.656 31.3752 36.8279 31.4364 36.9998 31.4976C36.9936 31.5611 36.9219 31.4926 36.8822 31.5179C36.8187 31.5423 36.8132 31.6187 36.7892 31.6739C36.7682 31.7327 36.7473 31.7915 36.7263 31.8503C36.4952 31.8667 36.2571 31.8178 36.056 31.7015C35.8604 31.5783 35.7282 31.3404 35.7667 31.1071C35.7964 30.9074 35.9209 30.7203 36.105 30.6321C36.2741 30.5423 36.4805 30.5426 36.6561 30.6138C36.7522 30.6462 36.8351 30.7056 36.9094 30.7732C36.9544 30.8339 37.0416 30.834 37.0785 30.765C37.0887 30.7686 37.0989 30.7722 37.109 30.7759" fill="black"/>
<path d="M37.9478 32.1221C37.9467 32.1431 37.9444 32.1623 37.9193 32.1506C37.7224 32.1208 37.5256 32.091 37.3288 32.0611C37.3298 32.0402 37.3322 32.021 37.3573 32.0327C37.4085 32.0431 37.4771 32.0423 37.5018 31.987C37.5268 31.9082 37.5318 31.8246 37.5462 31.7434C37.58 31.5165 37.616 31.2899 37.6483 31.0628C37.6608 31.0138 37.6441 30.9585 37.5934 30.9395C37.5647 30.9259 37.5327 30.9238 37.5019 30.9187C37.5029 30.8977 37.5052 30.8785 37.5304 30.8902C37.7272 30.92 37.924 30.9498 38.1208 30.9797C38.1198 31.0006 38.1174 31.0198 38.0923 31.0081C38.0409 30.9975 37.9726 30.9989 37.947 31.0536C37.9219 31.1325 37.917 31.216 37.9026 31.2973C37.8688 31.5242 37.8327 31.7508 37.8004 31.9779C37.788 32.0267 37.8048 32.0832 37.8558 32.1016C37.8848 32.1148 37.9168 32.117 37.9478 32.1221V32.1221Z" fill="black"/>
<path d="M39.5419 31.7349C39.5341 31.8745 39.5263 32.0141 39.5185 32.1537C39.1674 32.1716 38.8162 32.1895 38.4651 32.2074C38.4587 32.1818 38.4655 32.1681 38.4934 32.1735C38.5464 32.1749 38.6146 32.1524 38.6213 32.0917C38.626 31.9876 38.6143 31.8835 38.6108 31.7795C38.5995 31.572 38.5913 31.3643 38.5777 31.1569C38.5835 31.0952 38.5279 31.0494 38.4693 31.0513C38.4507 31.0419 38.4004 31.0707 38.4054 31.0368C38.3969 31.0093 38.4351 31.0239 38.4512 31.0187C38.6465 31.0087 38.8418 30.9987 39.0371 30.9888C39.0436 31.0144 39.0367 31.028 39.0088 31.0227C38.9547 31.0224 38.8843 31.0356 38.8693 31.0966C38.8608 31.1867 38.8734 31.2772 38.8758 31.3674C38.8876 31.5835 38.896 31.7999 38.9103 32.0158C38.9059 32.0723 38.9513 32.1223 39.0099 32.1114C39.0954 32.1072 39.1827 32.1108 39.2662 32.0893C39.3834 32.0582 39.4472 31.9421 39.4793 31.8338C39.5003 31.8045 39.4829 31.7314 39.5293 31.7356C39.5335 31.7353 39.5377 31.7352 39.5419 31.7349" fill="black"/>
<path d="M40.3631 30.7213C40.3352 30.7218 40.3475 30.7574 40.3404 30.7761C40.2938 31.1254 40.2496 31.4751 40.2013 31.8242C40.1896 31.9015 40.1703 31.9918 40.094 32.031C40.0659 32.041 40.0906 32.0852 40.1164 32.0606C40.2337 32.0254 40.351 31.9903 40.4682 31.9551C40.4638 31.8958 40.3963 31.9497 40.3584 31.9392C40.2777 31.9391 40.2657 31.8411 40.277 31.7799C40.2818 31.7385 40.2867 31.6971 40.2916 31.6558C40.4259 31.6154 40.5602 31.575 40.6945 31.5346C40.746 31.5993 40.8027 31.6603 40.8492 31.7286C40.8841 31.7945 40.7992 31.8246 40.7499 31.8373C40.7269 31.8398 40.747 31.888 40.768 31.8656C40.9445 31.8127 41.121 31.7598 41.2976 31.7069C41.296 31.6469 41.2192 31.7031 41.1869 31.6631C41.0878 31.5886 41.0166 31.485 40.9346 31.3933C40.7441 31.1693 40.5536 30.9453 40.3631 30.7213ZM40.3602 31.1404C40.4556 31.2542 40.551 31.3681 40.6464 31.482C40.532 31.5161 40.4176 31.5501 40.3032 31.5842C40.3222 31.4363 40.3412 31.2883 40.3602 31.1404Z" fill="black"/>
<path d="M42.1651 29.9344C42.2159 30.0288 42.2666 30.1232 42.3174 30.2176C42.27 30.2582 42.2454 30.1639 42.2025 30.1494C42.1321 30.0902 42.0259 30.079 41.9475 30.1293C41.9154 30.146 41.8837 30.1634 41.8518 30.1804C42.0049 30.4639 42.1559 30.7486 42.3104 31.0313C42.3343 31.1039 42.4234 31.1175 42.4808 31.0766C42.5031 31.0605 42.5232 31.0513 42.5303 31.0854C42.4526 31.1304 42.3677 31.1733 42.2872 31.2175C42.1858 31.272 42.0845 31.3265 41.9831 31.381C41.9592 31.3562 41.9752 31.3435 42.0021 31.334C42.0741 31.3072 42.1018 31.2198 42.0536 31.1582C41.9038 30.8767 41.7517 30.5963 41.6011 30.3152C41.5171 30.3617 41.41 30.4036 41.3888 30.5083C41.365 30.5741 41.4 30.6547 41.4 30.7108C41.3742 30.7376 41.3674 30.701 41.3554 30.6817C41.3121 30.601 41.2687 30.5203 41.2253 30.4397C41.5386 30.2712 41.8519 30.1028 42.1651 29.9344V29.9344Z" fill="black"/>
<path d="M42.8777 29.5119C42.9747 29.6406 43.0718 29.7693 43.1689 29.898C43.2364 29.8551 43.2928 29.7784 43.2725 29.6946C43.2803 29.6292 43.1867 29.555 43.2189 29.5091C43.2401 29.496 43.2525 29.545 43.2701 29.5579C43.3809 29.7048 43.4918 29.8518 43.6026 29.9988C43.5592 30.0482 43.5278 29.9475 43.4819 29.9366C43.4171 29.8905 43.3262 29.8676 43.2567 29.918C43.2049 29.9346 43.2073 29.9637 43.2426 29.9957C43.3206 30.0964 43.393 30.2017 43.4763 30.2982C43.5273 30.3477 43.5907 30.296 43.6339 30.2616C43.7454 30.1856 43.8434 30.067 43.8377 29.9247C43.845 29.8626 43.806 29.7933 43.8064 29.7408C43.8314 29.7076 43.8384 29.7592 43.8527 29.7762C43.9051 29.8708 43.9576 29.9655 44.01 30.0602C43.7368 30.2663 43.4635 30.4724 43.1903 30.6785C43.1547 30.6533 43.1897 30.6384 43.2121 30.621C43.2887 30.5738 43.2644 30.4772 43.208 30.4242C43.0329 30.1936 42.8609 29.9605 42.6835 29.7316C42.6381 29.6701 42.5544 29.7025 42.5085 29.7454C42.4896 29.7723 42.4598 29.7184 42.4958 29.7144C42.7535 29.52 43.0111 29.3257 43.2688 29.1313C43.3393 29.2248 43.4098 29.3183 43.4803 29.4118C43.4313 29.4615 43.3879 29.3508 43.332 29.3449C43.2304 29.2921 43.1097 29.3347 43.0258 29.4015C42.9756 29.4372 42.927 29.475 42.8777 29.5119" fill="black"/>
<mask id="mask1_1_31631" style="mask-type:alpha" maskUnits="userSpaceOnUse" x="3" y="6" width="24" height="18">
<rect x="3" y="6" width="24" height="18" fill="#C4C4C4"/>
</mask>
<g mask="url(#mask1_1_31631)">
<path d="M3 6L27 24L3 6ZM27 6L3 24L27 6Z" fill="black"/>
<path d="M27 6L3 24M3 6L27 24L3 6Z" stroke="white" stroke-width="2.4"/>
<path d="M3 6L27 24L3 6ZM27 6L3 24L27 6Z" fill="black"/>
<path d="M27 6L3 24M3 6L27 24L3 6Z" stroke="#EE5757" stroke-width="1.6"/>
<path d="M15 6V27V6ZM3 15H31H3Z" fill="black"/>
<path d="M3 15H31M15 6V27V6Z" stroke="white" stroke-width="4"/>
<path d="M15 6V27V6ZM3 15H31H3Z" fill="black"/>
<path d="M3 15H31M15 6V27V6Z" stroke="#EE5757" stroke-width="2.4"/>
</g>
</g>
<defs>
<linearGradient id="paint0_linear_1_31631" x1="34.1956" y1="17.5169" x2="33.6625" y2="17.4383" gradientUnits="userSpaceOnUse">
<stop stop-color="#FF0000"/>
<stop offset="1" stop-color="#FFFF00"/>
</linearGradient>
<linearGradient id="paint1_linear_1_31631" x1="41.1846" y1="17.5169" x2="40.6515" y2="17.4383" gradientUnits="userSpaceOnUse">
<stop stop-color="#FF0000"/>
<stop offset="1" stop-color="#FFFF00"/>
</linearGradient>
<linearGradient id="paint2_linear_1_31631" x1="34.1956" y1="19.4755" x2="33.6625" y2="19.3969" gradientUnits="userSpaceOnUse">
<stop stop-color="#FF0000"/>
<stop offset="1" stop-color="#FFFF00"/>
</linearGradient>
<linearGradient id="paint3_linear_1_31631" x1="41.1846" y1="19.4755" x2="40.6515" y2="19.3969" gradientUnits="userSpaceOnUse">
<stop stop-color="#FF0000"/>
<stop offset="1" stop-color="#FFFF00"/>
</linearGradient>
<linearGradient id="paint4_linear_1_31631" x1="34.1956" y1="21.3912" x2="33.6625" y2="21.3126" gradientUnits="userSpaceOnUse">
<stop stop-color="#FF0000"/>
<stop offset="1" stop-color="#FFFF00"/>
</linearGradient>
<linearGradient id="paint5_linear_1_31631" x1="41.1846" y1="21.3912" x2="40.6515" y2="21.3126" gradientUnits="userSpaceOnUse">
<stop stop-color="#FF0000"/>
<stop offset="1" stop-color="#FFFF00"/>
</linearGradient>
<linearGradient id="paint6_linear_1_31631" x1="34.1956" y1="27.2315" x2="33.6625" y2="27.1528" gradientUnits="userSpaceOnUse">
<stop stop-color="#FF0000"/>
<stop offset="1" stop-color="#FFFF00"/>
</linearGradient>
<linearGradient id="paint7_linear_1_31631" x1="41.1846" y1="27.0446" x2="40.6515" y2="26.966" gradientUnits="userSpaceOnUse">
<stop stop-color="#FF0000"/>
<stop offset="1" stop-color="#FFFF00"/>
</linearGradient>
<linearGradient id="paint8_linear_1_31631" x1="34.1956" y1="25.3159" x2="33.6625" y2="25.2373" gradientUnits="userSpaceOnUse">
<stop stop-color="#FF0000"/>
<stop offset="1" stop-color="#FFFF00"/>
</linearGradient>
<linearGradient id="paint9_linear_1_31631" x1="41.1846" y1="25.1289" x2="40.6515" y2="25.0503" gradientUnits="userSpaceOnUse">
<stop stop-color="#FF0000"/>
<stop offset="1" stop-color="#FFFF00"/>
</linearGradient>
<linearGradient id="paint10_linear_1_31631" x1="35.4844" y1="23.4469" x2="34.9513" y2="23.3683" gradientUnits="userSpaceOnUse">
<stop stop-color="#FF0000"/>
<stop offset="1" stop-color="#FFFF00"/>
</linearGradient>
<linearGradient id="paint11_linear_1_31631" x1="41.1379" y1="23.2601" x2="40.6048" y2="23.1815" gradientUnits="userSpaceOnUse">
<stop stop-color="#FF0000"/>
<stop offset="1" stop-color="#FFFF00"/>
</linearGradient>
</defs>
</svg>
