<svg width="54" height="48" viewBox="0 0 54 48" fill="none" xmlns="http://www.w3.org/2000/svg">
<mask id="mask0_1_31808" style="mask-type:alpha" maskUnits="userSpaceOnUse" x="3" y="6" width="48" height="36">
<path d="M3.56934 15.1356C4.16681 10.4125 8.0415 7.00193 12.7861 6.60887C16.6412 6.28949 21.6196 6 27 6C32.3804 6 37.3588 6.28949 41.2139 6.60887C45.9585 7.00193 49.8332 10.4125 50.4307 15.1356C50.752 17.6759 51 20.704 51 24C51 27.296 50.752 30.3241 50.4307 32.8644C49.8332 37.5875 45.9585 40.9981 41.2139 41.3911C37.3588 41.7105 32.3804 42 27 42C21.6196 42 16.6412 41.7105 12.7861 41.3911C8.0415 40.9981 4.16681 37.5875 3.56934 32.8644C3.248 30.3241 3 27.296 3 24C3 20.704 3.248 17.6759 3.56934 15.1356Z" fill="#00D0BF"/>
</mask>
<g mask="url(#mask0_1_31808)">
<rect x="3" width="48" height="49" fill="#F5F5F5"/>
<path d="M19.274 30.4537C19.274 30.4537 19.2378 30.2092 19.7021 30.03C20.1663 29.8507 20.2024 29.1825 20.1096 28.7371C20.1096 28.7371 19.8672 29.1608 19.5732 29.302C19.5732 29.302 19.0934 29.5519 19.0715 30.0293C19.0715 30.0293 19.0677 30.2038 19.0315 30.3396C19.0118 30.4139 18.7994 29.742 19.2018 29.2423C19.6169 28.7265 19.733 28.3079 19.4029 27.4931C19.4029 27.4931 19.372 27.9874 19.047 28.2699C18.722 28.5524 18.6807 28.5741 18.6859 29.2477C18.6859 29.2477 18.6911 29.4813 18.5673 29.5574C18.5673 29.5574 18.3145 29.188 18.2475 28.9435C18.1804 28.699 18.1495 28.5958 18.4383 28.3133C18.4383 28.3133 19.3637 27.7153 18.6962 26.4066C18.6962 26.4066 18.6756 26.8575 18.3558 27.1237C18.036 27.3898 18.0618 27.5691 18.0463 28.0309C18.0308 28.4926 17.9998 28.46 17.9637 28.5252C17.9637 28.5252 17.3757 27.4442 17.8296 26.8683C18.2835 26.2925 18.5363 26.173 18.036 25.1028C18.036 25.1028 18.0582 25.6515 17.6576 25.9231C17.2571 26.1948 17.3499 26.8303 17.3499 26.8303C17.3499 26.8303 17.3757 27.0694 17.2932 27.2432C17.2932 27.2432 16.7266 26.138 17.2674 25.5429C17.7265 25.0376 17.7575 24.6845 17.5099 23.9675C17.5099 23.9675 17.4789 24.2989 17.2262 24.4781C16.9734 24.6574 16.7723 24.8366 16.8187 25.5265C16.8187 25.5265 16.8393 26.01 16.7774 26.1458C16.7774 26.1458 16.5401 25.7058 16.4731 25.4179C16.406 25.1299 16.3802 24.9615 16.5556 24.6736C16.731 24.3857 17.4274 23.56 16.5969 22.3703C16.5969 22.3703 16.5711 22.756 16.3596 23.1037C16.1481 23.4513 16.2461 23.8642 16.2926 24.1793C16.339 24.4944 16.1843 24.7986 16.1843 24.7986C16.1843 24.7986 15.8232 24.1358 15.9006 23.3753C15.9779 22.6148 15.6685 21.9901 14.9669 21.5392C14.9669 21.5392 14.4563 22.7234 15.1526 23.3264C15.1526 23.3264 15.7458 23.9131 15.8954 24.6248C15.8954 24.6248 15.4466 24.5813 15.0391 23.7882C14.6316 22.9951 13.7857 23.12 13.7289 23.1146C13.7289 23.1146 13.8682 24.3423 15.1681 24.69C15.1681 24.69 15.9986 24.8312 16.1533 25.4397C16.1533 25.4397 16.2926 25.858 16.3493 26.0807C16.3493 26.0807 16.0863 25.9774 15.8438 25.6189C15.6014 25.2604 15.6323 25.2169 14.8122 25.1354C14.8122 25.1354 14.482 25.0974 14.3066 24.8638C14.3066 24.8638 14.6522 26.1621 15.5394 26.1513C15.5394 26.1513 16.3493 26.0644 16.8032 27.1291C16.8032 27.1291 16.7155 27.0748 16.5969 26.9932C16.4782 26.9118 16.179 26.7597 15.5859 26.8303C14.9927 26.9009 14.8276 26.8031 14.678 26.7542C14.678 26.7542 15.2764 27.8515 16.1223 27.5256C16.9683 27.1997 17.3768 28.3882 17.3861 28.411C17.3861 28.411 17.2726 28.3241 17.123 28.1774C16.9734 28.0308 16.6629 27.8499 16.0759 28.0362C16.0759 28.0362 15.6529 28.1992 15.2248 28.0688C15.2248 28.0688 15.6374 28.8673 16.602 28.7315C17.5666 28.5957 17.809 29.4432 17.809 29.4432C17.809 29.4432 17.6801 29.3671 17.5924 29.2965C17.5047 29.2259 17.1797 29.0412 16.4834 29.2476C15.787 29.4541 15.5343 29.215 15.5343 29.215C15.5343 29.215 15.9211 29.9212 16.6639 30.0027C16.6639 30.0027 17.0766 29.9973 17.2519 29.9321C17.4273 29.8669 17.8915 29.7637 18.2113 30.2254C18.2113 30.2254 18.1237 30.2417 17.9896 30.182C17.9896 30.182 17.4944 30.0027 17.1178 30.3178C17.1178 30.3178 16.7825 30.66 16.308 30.5948C16.308 30.5948 16.9218 31.1924 17.8967 30.6872C17.8967 30.6872 18.2268 30.4481 18.4692 30.6329C18.7117 30.8177 19.274 30.4537 19.274 30.4537Z" fill="#369443" stroke="#010002" stroke-width="0.104916" stroke-miterlimit="10"/>
<path d="M24.7004 15.7321C24.7004 15.7321 24.5871 14.7211 25.395 14.6239C26.2375 14.5225 26.6536 14.7 26.6536 14.7L27.0319 15.4424L26.9012 15.9422L26.3785 16.1812C26.3785 16.1812 26.4679 15.4134 25.7641 15.3974C25.5858 15.3934 25.481 15.4641 25.1989 15.4193C24.9153 15.3743 24.7636 15.686 24.7004 15.7321Z" fill="#F4C53D" stroke="#010002" stroke-width="0.104916" stroke-miterlimit="10"/>
<path d="M30.3847 18.2345C30.2643 18.3902 29.7829 18.4446 29.7829 18.4446C29.7829 18.4446 30.2781 18.8248 30.4913 19.3681C30.7045 19.9113 24.7519 19.3717 24.7519 19.3717C24.7519 19.3717 25.0099 19.187 25.1852 18.8393C25.1852 18.8393 24.9222 18.9371 24.6591 18.6763C24.6591 18.6763 24.8551 18.7415 25.113 18.3504C25.113 18.3504 25.4947 17.8615 25.7629 17.7311C25.7629 17.7311 25.6391 17.8072 25.34 17.6442C25.34 17.6442 25.8558 17.579 26.0415 16.699C26.0415 16.699 26.0724 16.5034 26.2685 16.2209C26.4645 15.9384 26.4232 16.2752 26.7843 15.8406C26.7843 15.8406 26.9494 15.5328 26.8049 15.3445C26.6605 15.1562 26.5057 15.225 26.2031 15.0439C25.9005 14.8628 25.7664 14.7614 25.8696 14.4826C25.9727 14.2037 26.241 14.2472 26.2788 14.2472C26.3166 14.2472 26.3372 14.0045 26.6674 13.8379C26.9975 13.6713 27.8744 13.7438 28.0051 13.8162C28.1358 13.8886 28.6653 14.0444 28.9748 14.8266C29.2843 15.6089 28.8923 15.9022 29.7348 17.0829C29.7348 17.0829 29.3978 17.1553 29.1811 17.0901C29.1811 17.0901 29.6178 17.8651 30.3847 18.2345Z" fill="#F4C53D" stroke="#010002" stroke-width="0.104916" stroke-miterlimit="10"/>
<path d="M26.7018 14.9335C26.0157 14.9009 26.2788 14.2472 26.2788 14.2472" stroke="#010002" stroke-width="0.104916" stroke-miterlimit="10"/>
<path d="M27.8933 15.0231C27.8933 15.0231 27.7721 14.9661 27.6696 14.8303C27.5257 14.6397 27.2047 14.5478 27.0319 14.7271C27.0319 14.7271 26.8565 14.9227 26.7018 14.9336C26.7018 14.9336 26.8772 14.9879 26.9984 15.0992C27.1196 15.2106 27.246 15.2921 27.4265 15.2676C27.607 15.2432 27.6354 15.1481 27.7205 15.0911C27.8056 15.034 27.8933 15.0231 27.8933 15.0231Z" fill="#F4C53D" stroke="#010002" stroke-width="0.104916" stroke-miterlimit="10"/>
<path d="M32.3551 24.7932C32.3551 24.7932 32.9947 25.3147 33.5312 24.7932C33.5312 24.7932 33.7478 25.0539 34.1811 24.9779C34.6144 24.9018 34.6866 24.6737 34.7279 24.5433C34.7279 24.5433 35.1027 24.762 35.4191 24.5892C35.7355 24.4165 35.7355 24.1558 35.7355 24.1558C35.7355 24.1558 36.2857 24.2642 36.5677 23.8913C36.8496 23.5184 36.6777 23.149 36.5264 23.1055C36.5264 23.1055 37.1213 23.2614 37.2829 22.7506C37.4205 22.3161 37.111 22.0915 37.111 22.0915C37.111 22.0915 38.3644 22.0855 38.8785 21.6932C38.8785 21.6932 39.305 21.4252 39.0505 21.1427C39.0505 21.1427 40.1784 20.9616 40.4604 20.5125C40.4604 20.5125 40.5842 20.3894 40.5429 20.1721C40.5429 20.1721 40.536 20.049 40.4122 20.0418C40.4122 20.0418 41.6985 19.8431 42.0697 19.4188C42.0697 19.4188 42.2486 19.2233 42.1592 18.9625C42.1592 18.9625 42.1402 18.8937 42.1093 18.8475C42.1093 18.8475 43.2802 18.6003 43.8579 18.0788C43.8579 18.0788 44.1914 17.7817 44.0195 17.3834C44.0195 17.3834 45.9762 16.8475 45.5223 15.9856C45.5223 15.9856 46.437 15.6886 46.1481 14.8629C46.1481 14.8629 46.9047 14.479 46.5746 13.8706C46.2586 13.2883 45.2885 13.972 44.1397 14.2899C44.1397 14.2899 41.0312 15.2686 39.5004 15.529L35.1509 22.0047L32.613 22.9825L32.3551 24.7932Z" fill="#F4C53D" stroke="#010002" stroke-width="0.104916"/>
<path d="M32.3242 20.0236C32.3242 20.0236 32.7318 19.7175 33.459 20.0779C33.459 20.0779 33.7038 20.2465 33.8964 20.0618C34.0573 19.9074 34.0724 19.6229 33.851 19.4586C33.3094 19.0566 33.1082 17.8506 33.9335 17.3509C33.9335 17.3509 35.1303 16.6411 39.5184 15.5243C39.5184 15.5243 39.8861 15.4224 40.0821 15.4713C40.298 15.5251 40.4466 15.7103 40.4771 15.8688C40.4771 15.8688 40.6735 16.4268 40.0133 16.7461C40.0133 16.7461 39.7153 16.8825 39.4081 16.9706C39.4081 16.9706 39.7455 16.8977 39.8895 17.2314C40.0271 17.5501 39.8276 17.876 39.2087 18.0861C39.2087 18.0861 39.0412 18.1512 38.8029 18.2092C38.8029 18.2092 39.3325 18.3613 39.078 18.7887C39.078 18.7887 38.851 19.2377 38.0498 19.3174C38.0498 19.3174 38.6481 19.3826 38.2251 19.9512C38.2251 19.9512 38.0394 20.2626 37.4548 20.3785C37.4548 20.3785 37.8985 20.393 37.6749 20.7914C37.4514 21.1897 36.9254 21.4143 36.4078 21.4505C36.4078 21.4505 36.1275 21.465 35.9315 21.4215C35.9315 21.4215 36.4232 21.6678 36.1343 22.0806C36.1343 22.0806 35.9211 22.374 35.3881 22.3595C35.3881 22.3595 35.5265 22.8205 35.1354 22.9951C34.8311 23.1309 34.5783 22.9136 34.5783 22.9136C34.5783 22.9136 34.6815 23.4079 34.2379 23.5817C34.2379 23.5817 34.0161 23.6958 33.6859 23.5817C33.6859 23.5817 33.4332 24.1467 32.5357 23.7501C31.6381 23.3536 32.3242 20.0236 32.3242 20.0236Z" fill="#F4C53D" stroke="#010002" stroke-width="0.104916"/>
<path d="M46.1481 14.8629C46.1481 14.8629 44.7382 15.6792 40.3474 16.4955" stroke="#010002" stroke-width="0.104916"/>
<path d="M20.9683 29.2984C20.9683 29.2984 20.4456 30.1965 19.8129 30.211C19.8129 30.211 18.7245 30.0786 18.4167 30.3631C18.2022 30.5616 17.9834 30.7253 17.8941 31.2323C17.8047 31.7393 18.066 31.848 18.1279 31.8697C18.1279 31.8697 18.176 32.2319 18.5337 32.1377C18.5337 32.1377 18.5543 32.5144 19.187 32.3333C19.8198 32.1522 20.0811 32.2101 20.2049 31.58C20.3287 30.9498 20.443 30.9601 20.5557 30.8846C20.707 30.7832 20.9913 30.6874 21.2022 30.5659C21.3917 30.4568 22.1169 30.0879 22.3645 30.0589C22.6121 30.0299 22.557 29.197 22.557 29.197H21.9174L21.6079 28.7407L20.9683 29.2984Z" fill="#F4C53D" stroke="#010002" stroke-width="0.104916"/>
<path d="M45.5223 15.9855C45.5223 15.9855 41.7063 17.2303 39.9292 17.3833" stroke="#010002" stroke-width="0.104916"/>
<path d="M44.0195 17.3834C44.0195 17.3834 41.7809 18.0861 39.1594 18.5295" stroke="#010002" stroke-width="0.104916"/>
<path d="M42.1093 18.8475C42.1093 18.8475 39.58 19.4551 38.3726 19.5559" stroke="#010002" stroke-width="0.104916"/>
<path d="M40.4122 20.0417C40.4122 20.0417 38.2729 20.4879 37.7308 20.5415" stroke="#010002" stroke-width="0.104916" stroke-miterlimit="10"/>
<path d="M38.0042 23.2955L38.1113 26.6901L37.5119 26.3423L36.514 30.6502L36.1023 30.3544L37.0737 26.2273L36.3963 26.2397L38.0042 23.2955Z" fill="#0081C6" stroke="#010002" stroke-width="0.104916" stroke-miterlimit="10"/>
<path d="M39.0505 21.1426C39.0505 21.1426 37.4893 21.3799 36.8679 21.3672" stroke="#010002" stroke-width="0.104916" stroke-miterlimit="10"/>
<path d="M37.111 22.0916C37.111 22.0916 36.4797 22.0619 36.1764 22.0115" stroke="#010002" stroke-width="0.104916" stroke-miterlimit="10"/>
<path d="M36.5264 23.1056C36.5264 23.1056 35.9899 22.9607 35.6735 22.7579" stroke="#010002" stroke-width="0.104916" stroke-miterlimit="10"/>
<path d="M35.7355 24.1558C35.7355 24.1558 35.3228 23.9965 35.1234 23.5619" stroke="#010002" stroke-width="0.104916" stroke-miterlimit="10"/>
<path d="M34.7279 24.5433C34.7279 24.5433 34.4081 24.2572 34.3875 23.9385" stroke="#010002" stroke-width="0.104916" stroke-miterlimit="10"/>
<path d="M41.8811 24.805L40.4624 27.8552L40.0882 27.2518L37.0931 30.7909L36.7688 30.4278L39.7525 26.9336L39.149 26.6097L41.8811 24.805Z" fill="#0081C6" stroke="#010002" stroke-width="0.104916" stroke-miterlimit="10"/>
<path d="M33.5312 24.7932C33.5312 24.7932 33.6509 24.6899 33.569 24.2409" stroke="#010002" stroke-width="0.104916" stroke-miterlimit="10"/>
<path d="M40.5871 22.5659L39.8563 25.8741L39.3628 25.3748L36.6821 30.5293L36.269 30.2882L38.9677 25.1442L38.3104 24.9716L40.5871 22.5659Z" fill="#0081C6" stroke="#010002" stroke-width="0.104916" stroke-miterlimit="10"/>
<path d="M33.6859 23.5818C33.6859 23.5818 33.7478 23.4532 33.7272 23.2504" stroke="#010002" stroke-width="0.104916" stroke-miterlimit="10"/>
<path d="M22.9828 24.7932C22.9828 24.7932 22.3432 25.3147 21.8067 24.7932C21.8067 24.7932 21.59 25.054 21.1568 24.9779C20.7235 24.9018 20.6512 24.6737 20.61 24.5433C20.61 24.5433 20.2351 24.762 19.9188 24.5893C19.6024 24.4165 19.6024 24.1558 19.6024 24.1558C19.6024 24.1558 19.0522 24.2642 18.7702 23.8913C18.4882 23.5184 18.6601 23.149 18.8115 23.1055C18.8115 23.1055 18.2166 23.2614 18.0549 22.7506C17.9174 22.3161 18.2269 22.0915 18.2269 22.0915C18.2269 22.0915 16.9734 22.0855 16.4593 21.6932C16.4593 21.6932 16.0329 21.4252 16.2874 21.1427C16.2874 21.1427 15.1595 20.9616 14.8775 20.5125C14.8775 20.5125 14.7537 20.3894 14.795 20.1721C14.795 20.1721 14.8019 20.049 14.9256 20.0418C14.9256 20.0418 13.6393 19.8431 13.2681 19.4188C13.2681 19.4188 13.0893 19.2233 13.1787 18.9625C13.1787 18.9625 13.1976 18.8937 13.2286 18.8475C13.2286 18.8475 12.0577 18.6003 11.4799 18.0788C11.4799 18.0788 11.1464 17.7817 11.3184 17.3834C11.3184 17.3834 9.36161 16.8475 9.81554 15.9856C9.81554 15.9856 8.90081 15.6886 9.18968 14.8629C9.18968 14.8629 8.43313 14.479 8.76327 13.8706C9.07921 13.2883 10.0494 13.972 11.1982 14.2899C11.1982 14.2899 14.3066 15.2686 15.8374 15.529L20.187 22.0047L22.7248 22.9825L22.9828 24.7932Z" fill="#F4C53D" stroke="#010002" stroke-width="0.104916"/>
<path d="M35.9418 17.1517C35.9418 17.1517 35.2197 17.4415 34.9789 17.8398C34.7382 18.2382 34.8968 18.6254 34.9789 18.8475C35.0202 18.9592 35.5292 19.9403 34.9308 20.6502" stroke="#010002" stroke-width="0.104916" stroke-miterlimit="10"/>
<path d="M23.0137 20.0236C23.0137 20.0236 22.6061 19.7175 21.8789 20.0779C21.8789 20.0779 21.6341 20.2465 21.4416 20.0618C21.2807 19.9074 21.2656 19.6229 21.4869 19.4586C22.0285 19.0566 22.2297 17.8506 21.4044 17.3509C21.4044 17.3509 20.2077 16.6411 15.8195 15.5243C15.8195 15.5243 15.4518 15.4224 15.2558 15.4713C15.04 15.5251 14.8913 15.7103 14.8608 15.8688C14.8608 15.8688 14.6644 16.4268 15.3246 16.7461C15.3246 16.7461 15.6226 16.8825 15.9298 16.9706C15.9298 16.9706 15.5924 16.8977 15.4484 17.2314C15.3109 17.5501 15.5103 17.876 16.1293 18.0861C16.1293 18.0861 16.2967 18.1512 16.5351 18.2092C16.5351 18.2092 16.0055 18.3613 16.26 18.7887C16.26 18.7887 16.4869 19.2377 17.2882 19.3174C17.2882 19.3174 16.6899 19.3826 17.1128 19.9512C17.1128 19.9512 17.2985 20.2626 17.8831 20.3785C17.8831 20.3785 17.4395 20.393 17.663 20.7914C17.8865 21.1897 18.4125 21.4143 18.9302 21.4505C18.9302 21.4505 19.2105 21.465 19.4065 21.4215C19.4065 21.4215 18.9148 21.6678 19.2036 22.0806C19.2036 22.0806 19.4168 22.374 19.9499 22.3595C19.9499 22.3595 19.8115 22.8206 20.2026 22.9951C20.5069 23.1309 20.7597 22.9136 20.7597 22.9136C20.7597 22.9136 20.6565 23.4079 21.1001 23.5818C21.1001 23.5818 21.3219 23.6959 21.6521 23.5818C21.6521 23.5818 21.9048 24.1468 22.8023 23.7502C23.6998 23.3536 23.0137 20.0236 23.0137 20.0236Z" fill="#F4C53D" stroke="#010002" stroke-width="0.104916"/>
<path d="M35.9315 21.4215C35.9315 21.4215 35.9281 21.4179 35.6736 21.3382" stroke="#010002" stroke-width="0.104916" stroke-miterlimit="10"/>
<path d="M37.4549 20.3785C37.4549 20.3785 37.0244 20.4651 36.6021 20.469" stroke="#010002" stroke-width="0.104916" stroke-miterlimit="10"/>
<path d="M38.0498 19.3174C38.0498 19.3174 37.5442 19.3681 37.0697 19.3609" stroke="#010002" stroke-width="0.104916" stroke-miterlimit="10"/>
<path d="M38.8029 18.2092C38.8029 18.2092 38.0739 18.354 37.6818 18.3613" stroke="#010002" stroke-width="0.104916" stroke-miterlimit="10"/>
<path d="M39.4081 16.9706C39.4081 16.9706 38.509 17.2273 37.84 17.3183" stroke="#010002" stroke-width="0.104916" stroke-miterlimit="10"/>
<path d="M36.3545 17.847C36.3545 17.847 37.0009 18.4482 36.2238 19.0059C36.2238 19.0059 36.547 19.513 35.9005 20.0417" stroke="#010002" stroke-width="0.104916" stroke-miterlimit="10"/>
<path d="M23.067 25.1581C23.067 25.1581 22.9353 25.8652 21.891 26.7552C21.891 26.7552 21.0852 27.4659 21.1059 28.2844C21.1269 29.1179 20.9614 29.2115 20.6451 29.494C20.6451 29.494 21.2985 29.5447 21.6148 29.1101C21.6148 29.1101 21.6011 29.8344 21.5048 29.8996C21.5048 29.8996 21.7097 29.9127 22.0068 29.5882C22.0068 29.5882 22.1856 29.3998 22.3507 29.3274C22.3507 29.3274 22.1581 29.8272 22.3094 30.2907C22.3094 30.2907 22.3576 30.1097 22.612 30.03C22.612 30.03 23.0728 29.9358 23.2517 29.2695C23.2517 29.2695 23.3686 28.8276 24.0907 28.4365C24.0907 28.4365 24.9092 28.1278 24.8886 27.7244C24.868 27.3211 23.067 25.1581 23.067 25.1581Z" fill="#F4C53D" stroke="#010002" stroke-width="0.104916"/>
<path d="M36.0725 20.2916C36.0725 20.2916 36.1688 21.2585 34.9858 21.2585C34.9858 21.2585 35.2128 22.1205 34.0711 22.0915C34.0711 22.0915 33.9404 22.7796 33.1151 22.642" stroke="#010002" stroke-width="0.104916" stroke-miterlimit="10"/>
<path d="M34.3708 29.2984C34.3708 29.2984 34.8935 30.1965 35.5262 30.211C35.5262 30.211 36.6146 30.0786 36.9224 30.3631C37.137 30.5616 37.3557 30.7253 37.4451 31.2323C37.5345 31.7393 37.2731 31.848 37.2112 31.8697C37.2112 31.8697 37.1631 32.2319 36.8054 32.1377C36.8054 32.1377 36.7848 32.5144 36.152 32.3333C35.5193 32.1522 35.258 32.2101 35.1342 31.58C35.0104 30.9498 34.8961 30.9601 34.7834 30.8846C34.6321 30.7832 34.3478 30.6874 34.1369 30.5659C33.9474 30.4568 33.2222 30.0879 32.9746 30.0589C32.727 30.0299 32.782 29.197 32.782 29.197H33.4216L33.7311 28.7407L34.3708 29.2984Z" fill="#F4C53D" stroke="#010002" stroke-width="0.104916"/>
<path d="M32.2721 25.1581C32.2721 25.1581 32.4038 25.8652 33.4481 26.7552C33.4481 26.7552 34.2539 27.4659 34.2333 28.2844C34.2122 29.1179 34.3777 29.2115 34.6941 29.494C34.6941 29.494 34.0407 29.5447 33.7243 29.1101C33.7243 29.1101 33.7381 29.8344 33.8344 29.8996C33.8344 29.8996 33.6294 29.9127 33.3323 29.5882C33.3323 29.5882 33.1535 29.3998 32.9884 29.3274C32.9884 29.3274 33.181 29.8272 33.0297 30.2907C33.0297 30.2907 32.9815 30.1097 32.7271 30.03C32.7271 30.03 32.2663 29.9358 32.0874 29.2695C32.0874 29.2695 31.9705 28.8276 31.2484 28.4365C31.2484 28.4365 30.4299 28.1278 30.4506 27.7244C30.4712 27.3211 32.2721 25.1581 32.2721 25.1581Z" fill="#F4C53D" stroke="#010002" stroke-width="0.104916"/>
<path d="M34.933 30.2111C34.933 30.2111 35.1202 30.2527 35.5262 30.2111" stroke="#010002" stroke-width="0.104916"/>
<path d="M36.6679 30.7181C36.6679 30.7181 37.2388 30.6311 37.2112 31.8697" stroke="#010002" stroke-width="0.104916" stroke-miterlimit="10"/>
<path d="M36.324 31.0006C36.324 31.0006 36.8399 30.9354 36.8055 32.1377" stroke="#010002" stroke-width="0.104916" stroke-miterlimit="10"/>
<path d="M31.3447 28.1033C31.3447 28.1033 31.5923 28.1541 31.7642 28.3496C31.9362 28.5452 32.2663 28.5089 32.2663 28.5089C32.2663 28.5089 32.0875 28.3641 32.0256 28.0019C31.9637 27.6398 31.7642 27.5311 31.7642 27.5311" stroke="#010002" stroke-width="0.104916"/>
<path d="M32.3549 27.1882C32.3549 27.1882 32.6025 27.2389 32.7744 27.4344C32.9463 27.63 33.2764 27.5938 33.2764 27.5938C33.2764 27.5938 33.0976 27.4489 33.0357 27.0868C32.9738 26.7246 32.7744 26.616 32.7744 26.616" stroke="#010002" stroke-width="0.104916"/>
<path d="M32.5251 28.594C32.5251 28.594 32.7413 28.6383 32.8914 28.809C33.0415 28.9798 33.3298 28.9482 33.3298 28.9482C33.3298 28.9482 33.1736 28.8217 33.1196 28.5055C33.0655 28.1893 32.8914 28.0944 32.8914 28.0944" stroke="#010002" stroke-width="0.104916"/>
<path d="M28.4787 34.2744C28.4787 34.2744 28.6661 35.1017 29.3177 35.0349C29.3177 35.0349 29.7785 34.9915 29.7442 34.2237C29.7442 34.2237 30.425 34.5859 30.5351 33.6877C30.5351 33.6877 31.1541 33.8326 31.1472 32.9924C31.1472 32.9924 31.7249 33.0938 31.6562 32.3477C31.6562 32.3477 32.282 32.5143 32.282 31.8118C32.282 31.8118 33.7469 31.5688 30.6933 28.7841L27.9698 30.4066L28.4787 34.2744Z" fill="#F4C53D" stroke="#010002" stroke-width="0.104916" stroke-miterlimit="10"/>
<path d="M28.176 30.5616C28.176 30.5616 28.6299 30.9643 28.9532 30.3631C28.9532 30.3631 29.3933 30.3414 29.4621 30.0082C29.4621 30.0082 29.8198 29.972 29.8885 29.6316C29.8885 29.6316 30.3768 29.5809 30.3631 29.168C30.3631 29.168 31.2508 29.0995 30.3634 28.0944C29.4759 27.0893 27.9697 29.762 27.9697 29.762L28.176 30.5616Z" fill="#F4C53D" stroke="#010002" stroke-width="0.104916"/>
<path d="M29.7442 34.2238C29.7442 34.2238 29.6754 32.7679 28.4136 30.6819" stroke="#010002" stroke-width="0.104916" stroke-miterlimit="10"/>
<path d="M30.5351 33.6878C30.5351 33.6878 30.7311 32.8476 28.9532 30.3632C28.9532 30.3632 29.1595 29.7693 28.5268 29.389" stroke="#010002" stroke-width="0.104916" stroke-miterlimit="10"/>
<path d="M31.1471 32.9924C31.1471 32.9924 31.2022 32.0834 29.4622 30.0083C29.4622 30.0083 29.6159 29.4723 28.9854 29.0449" stroke="#010002" stroke-width="0.104916" stroke-miterlimit="10"/>
<path d="M31.6561 32.3477C31.6561 32.3477 31.5908 31.4279 29.8885 29.6316C29.8885 29.6316 29.9737 29.0811 29.3637 28.7407" stroke="#010002" stroke-width="0.104916" stroke-miterlimit="10"/>
<path d="M32.282 31.8118C32.282 31.8118 32.1582 30.7615 30.3631 29.168C30.3631 29.168 30.425 28.7552 29.8267 28.3351" stroke="#010002" stroke-width="0.104916" stroke-miterlimit="10"/>
<path d="M26.8605 34.2744C26.8605 34.2744 26.673 35.1017 26.0214 35.0349C26.0214 35.0349 25.5606 34.9915 25.595 34.2237C25.595 34.2237 24.9141 34.5859 24.8041 33.6877C24.8041 33.6877 24.1851 33.8326 24.192 32.9924C24.192 32.9924 23.6142 33.0938 23.683 32.3477C23.683 32.3477 23.0572 32.5143 23.0572 31.8118C23.0572 31.8118 21.5923 31.5688 24.6459 28.7841L27.3694 30.4066L26.8605 34.2744Z" fill="#F4C53D" stroke="#010002" stroke-width="0.104916" stroke-miterlimit="10"/>
<path d="M27.1631 30.5616C27.1631 30.5616 26.7092 30.9644 26.3859 30.3632C26.3859 30.3632 25.9457 30.3415 25.877 30.0083C25.877 30.0083 25.5193 29.9721 25.4506 29.6316C25.4506 29.6316 24.9623 29.5809 24.976 29.1681C24.976 29.1681 24.0882 29.0995 24.9757 28.0944C25.8632 27.0893 27.3694 29.762 27.3694 29.762L27.1631 30.5616Z" fill="#F4C53D" stroke="#010002" stroke-width="0.104916"/>
<path d="M25.595 34.2238C25.595 34.2238 25.6637 32.7679 26.9256 30.6819" stroke="#010002" stroke-width="0.104916" stroke-miterlimit="10"/>
<path d="M24.8041 33.6877C24.8041 33.6877 24.608 32.8475 26.3859 30.3632C26.3859 30.3632 26.1796 29.7692 26.8123 29.389" stroke="#010002" stroke-width="0.104916" stroke-miterlimit="10"/>
<path d="M27.6696 30.3124C28.1096 30.3124 28.6082 33.0612 28.4788 34.7173C28.4318 35.3187 28.1096 35.81 27.6696 35.81C27.2296 35.81 26.9074 35.3187 26.8604 34.7173C26.731 33.0612 27.2296 30.3124 27.6696 30.3124Z" fill="#F4C53D" stroke="#010002" stroke-width="0.104916"/>
<path d="M24.192 32.9924C24.192 32.9924 24.137 32.0834 25.877 30.0083C25.877 30.0083 25.7233 29.4723 26.3538 29.0449" stroke="#010002" stroke-width="0.104916" stroke-miterlimit="10"/>
<path d="M23.683 32.3477C23.683 32.3477 23.7483 31.4279 25.4505 29.6316C25.4505 29.6316 25.3654 29.0811 25.9754 28.7407" stroke="#010002" stroke-width="0.104916" stroke-miterlimit="10"/>
<path d="M27.6695 31.1925C28.0058 31.1925 28.2784 30.7888 28.2784 30.2907C28.2784 29.7927 28.0058 29.389 27.6695 29.389C27.3333 29.389 27.0607 29.7927 27.0607 30.2907C27.0607 30.7888 27.3333 31.1925 27.6695 31.1925Z" fill="#F4C53D" stroke="#010002" stroke-width="0.104916"/>
<path d="M23.0571 31.8118C23.0571 31.8118 23.1809 30.7615 24.976 29.168C24.976 29.168 24.9141 28.7552 25.5124 28.3351" stroke="#010002" stroke-width="0.104916" stroke-miterlimit="10"/>
<path d="M27.6695 30.0938C27.6695 30.0938 32.8335 27.8054 32.8464 22.5117H22.4927C22.5056 27.8054 27.6695 30.0938 27.6695 30.0938Z" fill="white" stroke="#010002" stroke-width="0.104916"/>
<path d="M24.882 22.5116H25.6785" stroke="#010002" stroke-width="0.104916" stroke-miterlimit="10"/>
<path d="M23.2891 22.5116H24.0856" stroke="#010002" stroke-width="0.104916" stroke-miterlimit="10"/>
<path d="M26.4749 22.5116H27.2713" stroke="#010002" stroke-width="0.104916" stroke-miterlimit="10"/>
<path d="M23.2891 22.5116V25.8941C23.2891 25.8941 23.6847 26.6785 24.0856 27.1705V22.5116H23.2891Z" fill="#A60032" stroke="#010002" stroke-width="0.104916"/>
<path d="M24.882 22.5116V28.0874C24.882 28.0874 25.3801 28.5757 25.6785 28.8112V22.5116H24.882Z" fill="#A60032" stroke="#010002" stroke-width="0.104916"/>
<path d="M26.4749 22.5116V29.4037C26.4749 29.4037 27.0431 29.7707 27.2714 29.8911V22.5116H26.4749Z" fill="#A60032" stroke="#010002" stroke-width="0.104916"/>
<path d="M23.2891 22.5116H24.0856" stroke="#010002" stroke-width="0.104916"/>
<path d="M24.882 22.5116H25.6785" stroke="#010002" stroke-width="0.104916"/>
<path d="M26.4749 22.5116H27.2713" stroke="#010002" stroke-width="0.104916"/>
<path d="M32.05 22.5116V25.8941C32.05 25.8941 31.6544 26.6785 31.2535 27.1705V22.5116H32.05Z" fill="#A60032" stroke="#010002" stroke-width="0.104916"/>
<path d="M30.4571 22.5116V28.0874C30.4571 28.0874 29.959 28.5757 29.6606 28.8112V22.5116H30.4571Z" fill="#A60032" stroke="#010002" stroke-width="0.104916"/>
<path d="M28.8642 22.5116V29.4037C28.8642 29.4037 28.296 29.7707 28.0677 29.8911V22.5116H28.8642Z" fill="#A60032" stroke="#010002" stroke-width="0.104916"/>
<path d="M36.0182 32.1011L35.8174 32.9221L36.3671 33.4697L35.5902 36.7514L34.8991 35.8232L33.8752 36.3011L34.6521 33.0193L35.3724 32.8185L35.5595 31.999C35.5595 31.999 35.7773 31.9137 36.0182 32.1011Z" fill="#0081C6" stroke="#010002" stroke-width="0.104916" stroke-miterlimit="10"/>
<path d="M36.2023 31.5597L35.8066 32.2979L36.203 32.9767L34.646 35.9349L34.2066 34.8499L33.1001 35.0325L34.6571 32.0743L35.4022 32.0767L35.7842 31.3361C35.7843 31.3361 36.0622 31.3355 36.2023 31.5597Z" fill="#0081C6" stroke="#010002" stroke-width="0.104916" stroke-miterlimit="10"/>
<path d="M36.2691 31.7743L35.2166 33.1115L35.4578 33.8668L33.3089 36.3803L33.1125 35.2191L31.9954 35.1347L34.1443 32.6213L34.8699 32.8001L35.9863 31.3806C35.9863 31.3806 36.2857 31.5293 36.2691 31.7743Z" fill="#0081C6" stroke="#010002" stroke-width="0.104916" stroke-miterlimit="10"/>
<path d="M9.18976 14.8629C9.18976 14.8629 10.5997 15.6792 14.9905 16.4955" stroke="#010002" stroke-width="0.104916"/>
<path d="M9.81561 15.9855C9.81561 15.9855 13.6316 17.2303 15.4087 17.3833" stroke="#010002" stroke-width="0.104916"/>
<path d="M11.3185 17.3834C11.3185 17.3834 13.5571 18.0861 16.1786 18.5295" stroke="#010002" stroke-width="0.104916"/>
<path d="M13.2286 18.8475C13.2286 18.8475 15.7579 19.455 16.9654 19.5559" stroke="#010002" stroke-width="0.104916"/>
<path d="M14.9257 20.0417C14.9257 20.0417 17.065 20.4879 17.607 20.5416" stroke="#010002" stroke-width="0.104916" stroke-miterlimit="10"/>
<path d="M16.2875 21.1427C16.2875 21.1427 17.8487 21.3799 18.47 21.3672" stroke="#010002" stroke-width="0.104916" stroke-miterlimit="10"/>
<path d="M18.2269 22.0916C18.2269 22.0916 18.8582 22.0619 19.1615 22.0115" stroke="#010002" stroke-width="0.104916" stroke-miterlimit="10"/>
<path d="M18.8115 23.1056C18.8115 23.1056 19.348 22.9607 19.6644 22.7579" stroke="#010002" stroke-width="0.104916" stroke-miterlimit="10"/>
<path d="M19.6025 24.1558C19.6025 24.1558 20.0151 23.9965 20.2146 23.5619" stroke="#010002" stroke-width="0.104916" stroke-miterlimit="10"/>
<path d="M20.61 24.5433C20.61 24.5433 20.9299 24.2572 20.9505 23.9385" stroke="#010002" stroke-width="0.104916" stroke-miterlimit="10"/>
<path d="M21.8067 24.7932C21.8067 24.7932 21.687 24.6899 21.7689 24.2409" stroke="#010002" stroke-width="0.104916" stroke-miterlimit="10"/>
<path d="M21.652 23.5818C21.652 23.5818 21.5901 23.4532 21.6107 23.2504" stroke="#010002" stroke-width="0.104916" stroke-miterlimit="10"/>
<path d="M19.3961 17.1517C19.3961 17.1517 20.1183 17.4414 20.359 17.8398C20.5997 18.2382 20.4412 18.6254 20.359 18.8475C20.3177 18.9591 19.8088 19.9403 20.4071 20.6501" stroke="#010002" stroke-width="0.104916" stroke-miterlimit="10"/>
<path d="M19.4064 21.4215C19.4064 21.4215 19.4099 21.4179 19.6644 21.3382" stroke="#010002" stroke-width="0.104916" stroke-miterlimit="10"/>
<path d="M17.8831 20.3785C17.8831 20.3785 18.3135 20.4651 18.7359 20.469" stroke="#010002" stroke-width="0.104916" stroke-miterlimit="10"/>
<path d="M17.2881 19.3174C17.2881 19.3174 17.7937 19.3681 18.2682 19.3609" stroke="#010002" stroke-width="0.104916" stroke-miterlimit="10"/>
<path d="M19.167 31.9537C19.167 31.9537 19.1516 31.5137 19.7086 31.4811L21.3488 33.7626C21.3488 33.7626 21.2869 33.9092 20.5442 33.8929C20.5442 33.8929 20.4655 33.8924 20.4243 33.9793C20.3609 34.1127 19.167 31.9537 19.167 31.9537Z" fill="#369443" stroke="#010002" stroke-width="0.104916" stroke-miterlimit="10"/>
<path d="M16.535 18.2092C16.535 18.2092 17.2641 18.354 17.6561 18.3613" stroke="#010002" stroke-width="0.104916" stroke-miterlimit="10"/>
<path d="M15.9298 16.9706C15.9298 16.9706 16.8289 17.2273 17.4979 17.3183" stroke="#010002" stroke-width="0.104916" stroke-miterlimit="10"/>
<path d="M18.9835 17.847C18.9835 17.847 18.337 18.4482 19.1141 19.006C19.1141 19.006 18.7909 19.513 19.4374 20.0417" stroke="#010002" stroke-width="0.104916" stroke-miterlimit="10"/>
<path d="M19.2654 20.2916C19.2654 20.2916 19.1692 21.2585 20.3521 21.2585C20.3521 21.2585 20.1251 22.1205 21.2668 22.0915C21.2668 22.0915 21.3975 22.7796 22.2228 22.642" stroke="#010002" stroke-width="0.104916" stroke-miterlimit="10"/>
<path d="M20.4044 30.2111C20.4044 30.2111 20.2172 30.2527 19.8112 30.2111" stroke="#010002" stroke-width="0.104916"/>
<path d="M18.6695 30.7181C18.6695 30.7181 18.0987 30.6311 18.1262 31.8697" stroke="#010002" stroke-width="0.104916" stroke-miterlimit="10"/>
<path d="M19.0134 31.0006C19.0134 31.0006 18.4976 30.9354 18.532 32.1377" stroke="#010002" stroke-width="0.104916" stroke-miterlimit="10"/>
<path d="M23.9945 28.1033C23.9945 28.1033 23.7469 28.154 23.5749 28.3496C23.403 28.5451 23.0729 28.5089 23.0729 28.5089C23.0729 28.5089 23.2517 28.364 23.3136 28.0019C23.3755 27.6397 23.5749 27.5311 23.5749 27.5311" stroke="#010002" stroke-width="0.104916"/>
<path d="M22.9843 27.1882C22.9843 27.1882 22.7367 27.2389 22.5647 27.4344C22.3928 27.63 22.0627 27.5938 22.0627 27.5938C22.0627 27.5938 22.2415 27.4489 22.3034 27.0868C22.3653 26.7246 22.5647 26.616 22.5647 26.616" stroke="#010002" stroke-width="0.104916"/>
<path d="M22.814 28.594C22.814 28.594 22.5978 28.6383 22.4477 28.809C22.2976 28.9798 22.0093 28.9481 22.0093 28.9481C22.0093 28.9481 22.1655 28.8216 22.2195 28.5054C22.2736 28.1892 22.4477 28.0944 22.4477 28.0944" stroke="#010002" stroke-width="0.104916"/>
<path d="M32.8464 18.6655C32.8464 18.6655 30.3125 19.991 27.6695 18.5569C25.0266 19.991 22.4927 18.6655 22.4927 18.6655V22.5116H32.8464V18.6655Z" fill="#162667" stroke="#010002" stroke-width="0.104916" stroke-miterlimit="10"/>
<path d="M9.59969 28.6395C9.85061 28.5371 10.0313 28.4382 10.0305 28.1705C10.0304 28.1067 9.9949 27.9654 9.9237 27.7468L8.23885 22.5975C8.13908 22.2916 8.06364 22.1098 8.02867 22.0428C7.95292 21.8978 7.80425 21.8387 7.604 21.7553H7.81139H9.53764H9.74541C9.51278 21.8652 9.30071 21.9525 9.3027 22.1991C9.30347 22.2933 9.32995 22.4261 9.38457 22.5976L10.6753 26.6383L11.9647 22.5976C12.0194 22.4261 12.0476 22.2933 12.0467 22.1991C12.0442 21.9457 11.8233 21.8543 11.6063 21.7553H11.8117H13.4751H13.6817C13.4919 21.8313 13.3373 21.8909 13.2578 22.0428C13.2228 22.1098 13.1474 22.2916 13.0477 22.5975L11.3628 27.7468C11.2916 27.9654 11.2658 28.109 11.256 28.1755C11.256 28.1755 11.1784 28.5012 11.6868 28.6395L9.59969 28.6395Z" fill="#0081C6" stroke="#010002" stroke-width="0.104916" stroke-miterlimit="10"/>
<path d="M45.5048 28.11V22.2798C45.5048 22.179 45.4881 22.1016 45.455 22.0478C45.4217 21.9941 45.2769 21.8391 45.0704 21.7553H45.277H46.7935H47C46.7935 21.8237 46.6487 21.9898 46.6155 22.0453C46.5822 22.1008 46.5657 22.1789 46.5657 22.2798V28.11C46.5657 28.2142 46.5828 28.2941 46.6173 28.3495C46.6517 28.405 46.7935 28.5404 47 28.6395H46.7935H45.277H45.0704C45.277 28.5456 45.4217 28.4008 45.455 28.347C45.4881 28.2933 45.5048 28.2142 45.5048 28.11Z" fill="#0081C6" stroke="#010002" stroke-width="0.104916" stroke-miterlimit="10"/>
</g>
</svg>
