<svg width="54" height="54" viewBox="0 0 54 54" fill="none" xmlns="http://www.w3.org/2000/svg">
<mask id="mask0_1_31808" style="mask-type:alpha" maskUnits="userSpaceOnUse" x="3" y="9" width="48" height="36">
<path d="M3.56934 18.1356C4.16681 13.4125 8.0415 10.0019 12.7861 9.60887C16.6412 9.28949 21.6196 9 27 9C32.3804 9 37.3588 9.28949 41.2139 9.60887C45.9585 10.0019 49.8332 13.4125 50.4307 18.1356C50.752 20.6759 51 23.704 51 27C51 30.296 50.752 33.3241 50.4307 35.8644C49.8332 40.5875 45.9585 43.9981 41.2139 44.3911C37.3588 44.7105 32.3804 45 27 45C21.6196 45 16.6412 44.7105 12.7861 44.3911C8.04151 43.9981 4.16681 40.5875 3.56934 35.8644C3.248 33.3241 3 30.296 3 27C3 23.704 3.248 20.6759 3.56934 18.1356Z" fill="#00D0BF"/>
</mask>
<g mask="url(#mask0_1_31808)">
<rect x="3" y="3" width="48" height="49" fill="#F5F5F5"/>
<path d="M19.274 33.4537C19.274 33.4537 19.2378 33.2092 19.7021 33.03C20.1663 32.8507 20.2024 32.1825 20.1096 31.7371C20.1096 31.7371 19.8672 32.1608 19.5732 32.302C19.5732 32.302 19.0934 32.5519 19.0715 33.0293C19.0715 33.0293 19.0677 33.2038 19.0315 33.3396C19.0118 33.4139 18.7994 32.742 19.2018 32.2423C19.6169 31.7265 19.733 31.3079 19.4029 30.4931C19.4029 30.4931 19.372 30.9874 19.047 31.2699C18.722 31.5524 18.6807 31.5741 18.6859 32.2477C18.6859 32.2477 18.6911 32.4813 18.5673 32.5574C18.5673 32.5574 18.3145 32.188 18.2475 31.9435C18.1804 31.699 18.1495 31.5958 18.4383 31.3133C18.4383 31.3133 19.3637 30.7153 18.6962 29.4066C18.6962 29.4066 18.6756 29.8575 18.3558 30.1237C18.036 30.3898 18.0618 30.5691 18.0463 31.0309C18.0308 31.4926 17.9998 31.46 17.9637 31.5252C17.9637 31.5252 17.3757 30.4442 17.8296 29.8683C18.2835 29.2925 18.5363 29.173 18.036 28.1028C18.036 28.1028 18.0582 28.6515 17.6576 28.9231C17.2571 29.1948 17.3499 29.8303 17.3499 29.8303C17.3499 29.8303 17.3757 30.0694 17.2932 30.2432C17.2932 30.2432 16.7266 29.138 17.2674 28.5429C17.7265 28.0376 17.7575 27.6845 17.5099 26.9675C17.5099 26.9675 17.4789 27.2989 17.2262 27.4781C16.9734 27.6574 16.7723 27.8366 16.8187 28.5265C16.8187 28.5265 16.8393 29.01 16.7774 29.1458C16.7774 29.1458 16.5401 28.7058 16.4731 28.4179C16.406 28.1299 16.3802 27.9615 16.5556 27.6736C16.731 27.3857 17.4274 26.56 16.5969 25.3703C16.5969 25.3703 16.5711 25.756 16.3596 26.1037C16.1481 26.4513 16.2461 26.8642 16.2926 27.1793C16.339 27.4944 16.1843 27.7986 16.1843 27.7986C16.1843 27.7986 15.8232 27.1358 15.9006 26.3753C15.9779 25.6148 15.6685 24.9901 14.9669 24.5392C14.9669 24.5392 14.4563 25.7234 15.1526 26.3264C15.1526 26.3264 15.7458 26.9131 15.8954 27.6248C15.8954 27.6248 15.4466 27.5813 15.0391 26.7882C14.6316 25.9951 13.7857 26.12 13.7289 26.1146C13.7289 26.1146 13.8682 27.3423 15.1681 27.69C15.1681 27.69 15.9986 27.8312 16.1533 28.4397C16.1533 28.4397 16.2926 28.858 16.3493 29.0807C16.3493 29.0807 16.0863 28.9774 15.8438 28.6189C15.6014 28.2604 15.6323 28.2169 14.8122 28.1354C14.8122 28.1354 14.482 28.0974 14.3066 27.8638C14.3066 27.8638 14.6522 29.1621 15.5394 29.1513C15.5394 29.1513 16.3493 29.0644 16.8032 30.1291C16.8032 30.1291 16.7155 30.0748 16.5969 29.9932C16.4782 29.9118 16.179 29.7597 15.5859 29.8303C14.9927 29.9009 14.8276 29.8031 14.678 29.7542C14.678 29.7542 15.2764 30.8515 16.1223 30.5256C16.9683 30.1997 17.3768 31.3882 17.3861 31.411C17.3861 31.411 17.2726 31.3241 17.123 31.1774C16.9734 31.0308 16.6629 30.8499 16.0759 31.0362C16.0759 31.0362 15.6529 31.1992 15.2248 31.0688C15.2248 31.0688 15.6374 31.8673 16.602 31.7315C17.5666 31.5957 17.809 32.4432 17.809 32.4432C17.809 32.4432 17.6801 32.3671 17.5924 32.2965C17.5047 32.2259 17.1797 32.0412 16.4834 32.2476C15.787 32.4541 15.5343 32.215 15.5343 32.215C15.5343 32.215 15.9211 32.9212 16.6639 33.0027C16.6639 33.0027 17.0766 32.9973 17.2519 32.9321C17.4273 32.8669 17.8915 32.7637 18.2113 33.2254C18.2113 33.2254 18.1237 33.2417 17.9896 33.182C17.9896 33.182 17.4944 33.0027 17.1178 33.3178C17.1178 33.3178 16.7825 33.66 16.308 33.5948C16.308 33.5948 16.9218 34.1924 17.8967 33.6872C17.8967 33.6872 18.2268 33.4481 18.4692 33.6329C18.7117 33.8177 19.274 33.4537 19.274 33.4537Z" fill="#369443" stroke="#010002" stroke-width="0.104916" stroke-miterlimit="10"/>
<path d="M24.7004 18.7321C24.7004 18.7321 24.5871 17.7211 25.395 17.6239C26.2375 17.5225 26.6536 17.7 26.6536 17.7L27.0319 18.4424L26.9012 18.9422L26.3785 19.1812C26.3785 19.1812 26.4679 18.4134 25.7641 18.3974C25.5858 18.3934 25.481 18.4641 25.1989 18.4193C24.9153 18.3743 24.7636 18.686 24.7004 18.7321Z" fill="#F4C53D" stroke="#010002" stroke-width="0.104916" stroke-miterlimit="10"/>
<path d="M30.3847 21.2345C30.2643 21.3902 29.7829 21.4446 29.7829 21.4446C29.7829 21.4446 30.2781 21.8248 30.4913 22.3681C30.7045 22.9113 24.7519 22.3717 24.7519 22.3717C24.7519 22.3717 25.0099 22.187 25.1852 21.8393C25.1852 21.8393 24.9222 21.9371 24.6591 21.6763C24.6591 21.6763 24.8551 21.7415 25.113 21.3504C25.113 21.3504 25.4947 20.8615 25.7629 20.7311C25.7629 20.7311 25.6391 20.8072 25.34 20.6442C25.34 20.6442 25.8558 20.579 26.0415 19.699C26.0415 19.699 26.0724 19.5034 26.2685 19.2209C26.4645 18.9384 26.4232 19.2752 26.7843 18.8406C26.7843 18.8406 26.9494 18.5328 26.8049 18.3445C26.6605 18.1562 26.5057 18.225 26.2031 18.0439C25.9005 17.8628 25.7664 17.7614 25.8696 17.4826C25.9727 17.2037 26.241 17.2472 26.2788 17.2472C26.3166 17.2472 26.3372 17.0045 26.6674 16.8379C26.9975 16.6713 27.8744 16.7438 28.0051 16.8162C28.1358 16.8886 28.6653 17.0444 28.9748 17.8266C29.2843 18.6089 28.8923 18.9022 29.7348 20.0829C29.7348 20.0829 29.3978 20.1553 29.1811 20.0901C29.1811 20.0901 29.6178 20.8651 30.3847 21.2345Z" fill="#F4C53D" stroke="#010002" stroke-width="0.104916" stroke-miterlimit="10"/>
<path d="M26.7018 17.9335C26.0157 17.9009 26.2788 17.2472 26.2788 17.2472" stroke="#010002" stroke-width="0.104916" stroke-miterlimit="10"/>
<path d="M27.8933 18.0231C27.8933 18.0231 27.7721 17.9661 27.6696 17.8303C27.5257 17.6397 27.2047 17.5478 27.0319 17.7271C27.0319 17.7271 26.8565 17.9227 26.7018 17.9336C26.7018 17.9336 26.8772 17.9879 26.9984 18.0992C27.1196 18.2106 27.246 18.2921 27.4265 18.2676C27.607 18.2432 27.6354 18.1481 27.7205 18.0911C27.8056 18.034 27.8933 18.0231 27.8933 18.0231Z" fill="#F4C53D" stroke="#010002" stroke-width="0.104916" stroke-miterlimit="10"/>
<path d="M32.3551 27.7932C32.3551 27.7932 32.9947 28.3147 33.5312 27.7932C33.5312 27.7932 33.7478 28.0539 34.1811 27.9779C34.6144 27.9018 34.6866 27.6737 34.7279 27.5433C34.7279 27.5433 35.1027 27.762 35.4191 27.5892C35.7355 27.4165 35.7355 27.1558 35.7355 27.1558C35.7355 27.1558 36.2857 27.2642 36.5677 26.8913C36.8496 26.5184 36.6777 26.149 36.5264 26.1055C36.5264 26.1055 37.1213 26.2614 37.2829 25.7506C37.4205 25.3161 37.111 25.0915 37.111 25.0915C37.111 25.0915 38.3644 25.0855 38.8785 24.6932C38.8785 24.6932 39.305 24.4252 39.0505 24.1427C39.0505 24.1427 40.1784 23.9616 40.4604 23.5125C40.4604 23.5125 40.5842 23.3894 40.5429 23.1721C40.5429 23.1721 40.536 23.049 40.4122 23.0418C40.4122 23.0418 41.6985 22.8431 42.0697 22.4188C42.0697 22.4188 42.2486 22.2233 42.1592 21.9625C42.1592 21.9625 42.1402 21.8937 42.1093 21.8475C42.1093 21.8475 43.2802 21.6003 43.8579 21.0788C43.8579 21.0788 44.1914 20.7817 44.0195 20.3834C44.0195 20.3834 45.9762 19.8475 45.5223 18.9856C45.5223 18.9856 46.437 18.6886 46.1481 17.8629C46.1481 17.8629 46.9047 17.479 46.5746 16.8706C46.2586 16.2883 45.2885 16.972 44.1397 17.2899C44.1397 17.2899 41.0312 18.2686 39.5004 18.529L35.1509 25.0047L32.613 25.9825L32.3551 27.7932Z" fill="#F4C53D" stroke="#010002" stroke-width="0.104916"/>
<path d="M32.3242 23.0236C32.3242 23.0236 32.7318 22.7175 33.459 23.0779C33.459 23.0779 33.7038 23.2465 33.8964 23.0618C34.0573 22.9074 34.0724 22.6229 33.851 22.4586C33.3094 22.0566 33.1082 20.8506 33.9335 20.3509C33.9335 20.3509 35.1303 19.6411 39.5184 18.5243C39.5184 18.5243 39.8861 18.4224 40.0821 18.4713C40.298 18.5251 40.4466 18.7103 40.4771 18.8688C40.4771 18.8688 40.6735 19.4268 40.0133 19.7461C40.0133 19.7461 39.7153 19.8825 39.4081 19.9706C39.4081 19.9706 39.7455 19.8977 39.8895 20.2314C40.0271 20.5501 39.8276 20.876 39.2087 21.0861C39.2087 21.0861 39.0412 21.1512 38.8029 21.2092C38.8029 21.2092 39.3325 21.3613 39.078 21.7887C39.078 21.7887 38.851 22.2377 38.0498 22.3174C38.0498 22.3174 38.6481 22.3826 38.2251 22.9512C38.2251 22.9512 38.0394 23.2626 37.4548 23.3785C37.4548 23.3785 37.8985 23.393 37.6749 23.7914C37.4514 24.1897 36.9254 24.4143 36.4078 24.4505C36.4078 24.4505 36.1275 24.465 35.9315 24.4215C35.9315 24.4215 36.4232 24.6678 36.1343 25.0806C36.1343 25.0806 35.9211 25.374 35.3881 25.3595C35.3881 25.3595 35.5265 25.8205 35.1354 25.9951C34.8311 26.1309 34.5783 25.9136 34.5783 25.9136C34.5783 25.9136 34.6815 26.4079 34.2379 26.5817C34.2379 26.5817 34.0161 26.6958 33.6859 26.5817C33.6859 26.5817 33.4332 27.1467 32.5357 26.7501C31.6381 26.3536 32.3242 23.0236 32.3242 23.0236Z" fill="#F4C53D" stroke="#010002" stroke-width="0.104916"/>
<path d="M46.1481 17.8629C46.1481 17.8629 44.7382 18.6792 40.3474 19.4955" stroke="#010002" stroke-width="0.104916"/>
<path d="M20.9683 32.2984C20.9683 32.2984 20.4456 33.1965 19.8129 33.211C19.8129 33.211 18.7245 33.0786 18.4167 33.3631C18.2022 33.5616 17.9834 33.7253 17.8941 34.2323C17.8047 34.7393 18.066 34.848 18.1279 34.8697C18.1279 34.8697 18.176 35.2319 18.5337 35.1377C18.5337 35.1377 18.5543 35.5144 19.187 35.3333C19.8198 35.1522 20.0811 35.2101 20.2049 34.58C20.3287 33.9498 20.443 33.9601 20.5557 33.8846C20.707 33.7832 20.9913 33.6874 21.2022 33.5659C21.3917 33.4568 22.1169 33.0879 22.3645 33.0589C22.6121 33.0299 22.557 32.197 22.557 32.197H21.9174L21.6079 31.7407L20.9683 32.2984Z" fill="#F4C53D" stroke="#010002" stroke-width="0.104916"/>
<path d="M45.5223 18.9855C45.5223 18.9855 41.7063 20.2303 39.9292 20.3833" stroke="#010002" stroke-width="0.104916"/>
<path d="M44.0195 20.3834C44.0195 20.3834 41.7809 21.0861 39.1594 21.5295" stroke="#010002" stroke-width="0.104916"/>
<path d="M42.1093 21.8475C42.1093 21.8475 39.58 22.4551 38.3726 22.5559" stroke="#010002" stroke-width="0.104916"/>
<path d="M40.4122 23.0417C40.4122 23.0417 38.2729 23.4879 37.7308 23.5415" stroke="#010002" stroke-width="0.104916" stroke-miterlimit="10"/>
<path d="M38.0042 26.2955L38.1113 29.6901L37.5119 29.3423L36.514 33.6502L36.1023 33.3544L37.0737 29.2273L36.3963 29.2397L38.0042 26.2955Z" fill="#0081C6" stroke="#010002" stroke-width="0.104916" stroke-miterlimit="10"/>
<path d="M39.0505 24.1426C39.0505 24.1426 37.4893 24.3799 36.8679 24.3672" stroke="#010002" stroke-width="0.104916" stroke-miterlimit="10"/>
<path d="M37.111 25.0916C37.111 25.0916 36.4797 25.0619 36.1764 25.0115" stroke="#010002" stroke-width="0.104916" stroke-miterlimit="10"/>
<path d="M36.5264 26.1056C36.5264 26.1056 35.9899 25.9607 35.6735 25.7579" stroke="#010002" stroke-width="0.104916" stroke-miterlimit="10"/>
<path d="M35.7355 27.1558C35.7355 27.1558 35.3228 26.9965 35.1234 26.5619" stroke="#010002" stroke-width="0.104916" stroke-miterlimit="10"/>
<path d="M34.7279 27.5433C34.7279 27.5433 34.4081 27.2572 34.3875 26.9385" stroke="#010002" stroke-width="0.104916" stroke-miterlimit="10"/>
<path d="M41.8811 27.805L40.4624 30.8552L40.0882 30.2518L37.0931 33.7909L36.7688 33.4278L39.7525 29.9336L39.149 29.6097L41.8811 27.805Z" fill="#0081C6" stroke="#010002" stroke-width="0.104916" stroke-miterlimit="10"/>
<path d="M33.5312 27.7932C33.5312 27.7932 33.6509 27.6899 33.569 27.2409" stroke="#010002" stroke-width="0.104916" stroke-miterlimit="10"/>
<path d="M40.5871 25.5659L39.8563 28.8741L39.3628 28.3748L36.6821 33.5293L36.269 33.2882L38.9677 28.1442L38.3104 27.9716L40.5871 25.5659Z" fill="#0081C6" stroke="#010002" stroke-width="0.104916" stroke-miterlimit="10"/>
<path d="M33.6859 26.5818C33.6859 26.5818 33.7478 26.4532 33.7272 26.2504" stroke="#010002" stroke-width="0.104916" stroke-miterlimit="10"/>
<path d="M22.9828 27.7932C22.9828 27.7932 22.3432 28.3147 21.8067 27.7932C21.8067 27.7932 21.59 28.054 21.1568 27.9779C20.7235 27.9018 20.6512 27.6737 20.61 27.5433C20.61 27.5433 20.2351 27.762 19.9188 27.5893C19.6024 27.4165 19.6024 27.1558 19.6024 27.1558C19.6024 27.1558 19.0522 27.2642 18.7702 26.8913C18.4882 26.5184 18.6601 26.149 18.8115 26.1055C18.8115 26.1055 18.2166 26.2614 18.0549 25.7506C17.9174 25.3161 18.2269 25.0915 18.2269 25.0915C18.2269 25.0915 16.9734 25.0855 16.4593 24.6932C16.4593 24.6932 16.0329 24.4252 16.2874 24.1427C16.2874 24.1427 15.1595 23.9616 14.8775 23.5125C14.8775 23.5125 14.7537 23.3894 14.795 23.1721C14.795 23.1721 14.8019 23.049 14.9256 23.0418C14.9256 23.0418 13.6394 22.8431 13.2681 22.4188C13.2681 22.4188 13.0893 22.2233 13.1787 21.9625C13.1787 21.9625 13.1976 21.8937 13.2286 21.8475C13.2286 21.8475 12.0577 21.6003 11.4799 21.0788C11.4799 21.0788 11.1464 20.7817 11.3184 20.3834C11.3184 20.3834 9.36161 19.8475 9.81554 18.9856C9.81554 18.9856 8.90081 18.6886 9.18968 17.8629C9.18968 17.8629 8.43313 17.479 8.76327 16.8706C9.07921 16.2883 10.0494 16.972 11.1982 17.2899C11.1982 17.2899 14.3066 18.2686 15.8374 18.529L20.187 25.0047L22.7248 25.9825L22.9828 27.7932Z" fill="#F4C53D" stroke="#010002" stroke-width="0.104916"/>
<path d="M35.9418 20.1517C35.9418 20.1517 35.2197 20.4415 34.9789 20.8398C34.7382 21.2382 34.8968 21.6254 34.9789 21.8475C35.0202 21.9592 35.5292 22.9403 34.9308 23.6502" stroke="#010002" stroke-width="0.104916" stroke-miterlimit="10"/>
<path d="M23.0137 23.0236C23.0137 23.0236 22.6061 22.7175 21.8789 23.0779C21.8789 23.0779 21.6341 23.2465 21.4416 23.0618C21.2807 22.9074 21.2656 22.6229 21.4869 22.4586C22.0285 22.0566 22.2297 20.8506 21.4044 20.3509C21.4044 20.3509 20.2077 19.6411 15.8195 18.5243C15.8195 18.5243 15.4518 18.4224 15.2558 18.4713C15.04 18.5251 14.8913 18.7103 14.8608 18.8688C14.8608 18.8688 14.6644 19.4268 15.3246 19.7461C15.3246 19.7461 15.6226 19.8825 15.9298 19.9706C15.9298 19.9706 15.5924 19.8977 15.4484 20.2314C15.3109 20.5501 15.5103 20.876 16.1293 21.0861C16.1293 21.0861 16.2967 21.1512 16.5351 21.2092C16.5351 21.2092 16.0055 21.3613 16.26 21.7887C16.26 21.7887 16.4869 22.2377 17.2882 22.3174C17.2882 22.3174 16.6899 22.3826 17.1128 22.9512C17.1128 22.9512 17.2985 23.2626 17.8831 23.3785C17.8831 23.3785 17.4395 23.393 17.663 23.7914C17.8865 24.1897 18.4125 24.4143 18.9302 24.4505C18.9302 24.4505 19.2105 24.465 19.4065 24.4215C19.4065 24.4215 18.9148 24.6678 19.2036 25.0806C19.2036 25.0806 19.4168 25.374 19.9499 25.3595C19.9499 25.3595 19.8115 25.8206 20.2026 25.9951C20.5069 26.1309 20.7597 25.9136 20.7597 25.9136C20.7597 25.9136 20.6565 26.4079 21.1001 26.5818C21.1001 26.5818 21.3219 26.6959 21.6521 26.5818C21.6521 26.5818 21.9048 27.1468 22.8023 26.7502C23.6998 26.3536 23.0137 23.0236 23.0137 23.0236Z" fill="#F4C53D" stroke="#010002" stroke-width="0.104916"/>
<path d="M35.9315 24.4215C35.9315 24.4215 35.9281 24.4179 35.6736 24.3382" stroke="#010002" stroke-width="0.104916" stroke-miterlimit="10"/>
<path d="M37.4549 23.3785C37.4549 23.3785 37.0244 23.4651 36.6021 23.469" stroke="#010002" stroke-width="0.104916" stroke-miterlimit="10"/>
<path d="M38.0498 22.3174C38.0498 22.3174 37.5442 22.3681 37.0697 22.3609" stroke="#010002" stroke-width="0.104916" stroke-miterlimit="10"/>
<path d="M38.8029 21.2092C38.8029 21.2092 38.0739 21.354 37.6818 21.3613" stroke="#010002" stroke-width="0.104916" stroke-miterlimit="10"/>
<path d="M39.4081 19.9706C39.4081 19.9706 38.509 20.2273 37.84 20.3183" stroke="#010002" stroke-width="0.104916" stroke-miterlimit="10"/>
<path d="M36.3545 20.847C36.3545 20.847 37.0009 21.4482 36.2238 22.0059C36.2238 22.0059 36.547 22.513 35.9005 23.0417" stroke="#010002" stroke-width="0.104916" stroke-miterlimit="10"/>
<path d="M23.067 28.1581C23.067 28.1581 22.9353 28.8652 21.891 29.7552C21.891 29.7552 21.0852 30.4659 21.1059 31.2844C21.1269 32.1179 20.9614 32.2115 20.6451 32.494C20.6451 32.494 21.2985 32.5447 21.6148 32.1101C21.6148 32.1101 21.6011 32.8344 21.5048 32.8996C21.5048 32.8996 21.7097 32.9127 22.0068 32.5882C22.0068 32.5882 22.1856 32.3998 22.3507 32.3274C22.3507 32.3274 22.1581 32.8272 22.3094 33.2907C22.3094 33.2907 22.3576 33.1097 22.612 33.03C22.612 33.03 23.0728 32.9358 23.2517 32.2695C23.2517 32.2695 23.3686 31.8276 24.0907 31.4365C24.0907 31.4365 24.9092 31.1278 24.8886 30.7244C24.868 30.3211 23.067 28.1581 23.067 28.1581Z" fill="#F4C53D" stroke="#010002" stroke-width="0.104916"/>
<path d="M36.0725 23.2916C36.0725 23.2916 36.1688 24.2585 34.9858 24.2585C34.9858 24.2585 35.2128 25.1205 34.0711 25.0915C34.0711 25.0915 33.9404 25.7796 33.1151 25.642" stroke="#010002" stroke-width="0.104916" stroke-miterlimit="10"/>
<path d="M34.3708 32.2984C34.3708 32.2984 34.8935 33.1965 35.5262 33.211C35.5262 33.211 36.6146 33.0786 36.9224 33.3631C37.137 33.5616 37.3557 33.7253 37.4451 34.2323C37.5345 34.7393 37.2731 34.848 37.2112 34.8697C37.2112 34.8697 37.1631 35.2319 36.8054 35.1377C36.8054 35.1377 36.7848 35.5144 36.152 35.3333C35.5193 35.1522 35.258 35.2101 35.1342 34.58C35.0104 33.9498 34.8961 33.9601 34.7834 33.8846C34.6321 33.7832 34.3478 33.6874 34.1369 33.5659C33.9474 33.4568 33.2222 33.0879 32.9746 33.0589C32.727 33.0299 32.782 32.197 32.782 32.197H33.4216L33.7311 31.7407L34.3708 32.2984Z" fill="#F4C53D" stroke="#010002" stroke-width="0.104916"/>
<path d="M32.2721 28.1581C32.2721 28.1581 32.4038 28.8652 33.4481 29.7552C33.4481 29.7552 34.2539 30.4659 34.2333 31.2844C34.2122 32.1179 34.3777 32.2115 34.6941 32.494C34.6941 32.494 34.0407 32.5447 33.7243 32.1101C33.7243 32.1101 33.7381 32.8344 33.8344 32.8996C33.8344 32.8996 33.6294 32.9127 33.3323 32.5882C33.3323 32.5882 33.1535 32.3998 32.9884 32.3274C32.9884 32.3274 33.181 32.8272 33.0297 33.2907C33.0297 33.2907 32.9815 33.1097 32.7271 33.03C32.7271 33.03 32.2663 32.9358 32.0874 32.2695C32.0874 32.2695 31.9705 31.8276 31.2484 31.4365C31.2484 31.4365 30.4299 31.1278 30.4506 30.7244C30.4712 30.3211 32.2721 28.1581 32.2721 28.1581Z" fill="#F4C53D" stroke="#010002" stroke-width="0.104916"/>
<path d="M34.933 33.2111C34.933 33.2111 35.1202 33.2527 35.5262 33.2111" stroke="#010002" stroke-width="0.104916"/>
<path d="M36.6679 33.7181C36.6679 33.7181 37.2388 33.6311 37.2112 34.8697" stroke="#010002" stroke-width="0.104916" stroke-miterlimit="10"/>
<path d="M36.324 34.0006C36.324 34.0006 36.8399 33.9354 36.8055 35.1377" stroke="#010002" stroke-width="0.104916" stroke-miterlimit="10"/>
<path d="M31.3447 31.1033C31.3447 31.1033 31.5923 31.1541 31.7642 31.3496C31.9362 31.5452 32.2663 31.5089 32.2663 31.5089C32.2663 31.5089 32.0875 31.3641 32.0256 31.0019C31.9637 30.6398 31.7642 30.5311 31.7642 30.5311" stroke="#010002" stroke-width="0.104916"/>
<path d="M32.3549 30.1882C32.3549 30.1882 32.6025 30.2389 32.7744 30.4344C32.9463 30.63 33.2764 30.5938 33.2764 30.5938C33.2764 30.5938 33.0976 30.4489 33.0357 30.0868C32.9738 29.7246 32.7744 29.616 32.7744 29.616" stroke="#010002" stroke-width="0.104916"/>
<path d="M32.5251 31.594C32.5251 31.594 32.7413 31.6383 32.8914 31.809C33.0415 31.9798 33.3298 31.9482 33.3298 31.9482C33.3298 31.9482 33.1736 31.8217 33.1196 31.5055C33.0655 31.1893 32.8914 31.0944 32.8914 31.0944" stroke="#010002" stroke-width="0.104916"/>
<path d="M28.4787 37.2744C28.4787 37.2744 28.6661 38.1017 29.3177 38.0349C29.3177 38.0349 29.7785 37.9915 29.7442 37.2237C29.7442 37.2237 30.425 37.5859 30.5351 36.6877C30.5351 36.6877 31.1541 36.8326 31.1472 35.9924C31.1472 35.9924 31.7249 36.0938 31.6562 35.3477C31.6562 35.3477 32.282 35.5143 32.282 34.8118C32.282 34.8118 33.7469 34.5688 30.6933 31.7841L27.9698 33.4066L28.4787 37.2744Z" fill="#F4C53D" stroke="#010002" stroke-width="0.104916" stroke-miterlimit="10"/>
<path d="M28.176 33.5616C28.176 33.5616 28.6299 33.9643 28.9532 33.3631C28.9532 33.3631 29.3933 33.3414 29.4621 33.0082C29.4621 33.0082 29.8198 32.972 29.8885 32.6316C29.8885 32.6316 30.3768 32.5809 30.3631 32.168C30.3631 32.168 31.2508 32.0995 30.3634 31.0944C29.4759 30.0893 27.9697 32.762 27.9697 32.762L28.176 33.5616Z" fill="#F4C53D" stroke="#010002" stroke-width="0.104916"/>
<path d="M29.7442 37.2238C29.7442 37.2238 29.6754 35.7679 28.4136 33.6819" stroke="#010002" stroke-width="0.104916" stroke-miterlimit="10"/>
<path d="M30.5351 36.6878C30.5351 36.6878 30.7311 35.8476 28.9532 33.3632C28.9532 33.3632 29.1595 32.7693 28.5268 32.389" stroke="#010002" stroke-width="0.104916" stroke-miterlimit="10"/>
<path d="M31.1471 35.9924C31.1471 35.9924 31.2022 35.0834 29.4622 33.0083C29.4622 33.0083 29.6159 32.4723 28.9854 32.0449" stroke="#010002" stroke-width="0.104916" stroke-miterlimit="10"/>
<path d="M31.6561 35.3477C31.6561 35.3477 31.5908 34.4279 29.8885 32.6316C29.8885 32.6316 29.9737 32.0811 29.3637 31.7407" stroke="#010002" stroke-width="0.104916" stroke-miterlimit="10"/>
<path d="M32.282 34.8118C32.282 34.8118 32.1582 33.7615 30.3631 32.168C30.3631 32.168 30.425 31.7552 29.8267 31.3351" stroke="#010002" stroke-width="0.104916" stroke-miterlimit="10"/>
<path d="M26.8605 37.2744C26.8605 37.2744 26.673 38.1017 26.0214 38.0349C26.0214 38.0349 25.5606 37.9915 25.595 37.2237C25.595 37.2237 24.9141 37.5859 24.8041 36.6877C24.8041 36.6877 24.1851 36.8326 24.192 35.9924C24.192 35.9924 23.6142 36.0938 23.683 35.3477C23.683 35.3477 23.0572 35.5143 23.0572 34.8118C23.0572 34.8118 21.5923 34.5688 24.6459 31.7841L27.3694 33.4066L26.8605 37.2744Z" fill="#F4C53D" stroke="#010002" stroke-width="0.104916" stroke-miterlimit="10"/>
<path d="M27.1631 33.5616C27.1631 33.5616 26.7092 33.9644 26.3859 33.3632C26.3859 33.3632 25.9457 33.3415 25.877 33.0083C25.877 33.0083 25.5193 32.9721 25.4506 32.6316C25.4506 32.6316 24.9623 32.5809 24.976 32.1681C24.976 32.1681 24.0882 32.0995 24.9757 31.0944C25.8632 30.0893 27.3694 32.762 27.3694 32.762L27.1631 33.5616Z" fill="#F4C53D" stroke="#010002" stroke-width="0.104916"/>
<path d="M25.595 37.2238C25.595 37.2238 25.6637 35.7679 26.9256 33.6819" stroke="#010002" stroke-width="0.104916" stroke-miterlimit="10"/>
<path d="M24.8041 36.6877C24.8041 36.6877 24.608 35.8475 26.3859 33.3632C26.3859 33.3632 26.1796 32.7692 26.8123 32.389" stroke="#010002" stroke-width="0.104916" stroke-miterlimit="10"/>
<path d="M27.6696 33.3124C28.1096 33.3124 28.6082 36.0612 28.4788 37.7173C28.4318 38.3187 28.1096 38.81 27.6696 38.81C27.2296 38.81 26.9074 38.3187 26.8604 37.7173C26.731 36.0612 27.2296 33.3124 27.6696 33.3124Z" fill="#F4C53D" stroke="#010002" stroke-width="0.104916"/>
<path d="M24.192 35.9924C24.192 35.9924 24.137 35.0834 25.877 33.0083C25.877 33.0083 25.7233 32.4723 26.3538 32.0449" stroke="#010002" stroke-width="0.104916" stroke-miterlimit="10"/>
<path d="M23.683 35.3477C23.683 35.3477 23.7483 34.4279 25.4505 32.6316C25.4505 32.6316 25.3654 32.0811 25.9754 31.7407" stroke="#010002" stroke-width="0.104916" stroke-miterlimit="10"/>
<path d="M27.6695 34.1925C28.0058 34.1925 28.2784 33.7888 28.2784 33.2907C28.2784 32.7927 28.0058 32.389 27.6695 32.389C27.3333 32.389 27.0607 32.7927 27.0607 33.2907C27.0607 33.7888 27.3333 34.1925 27.6695 34.1925Z" fill="#F4C53D" stroke="#010002" stroke-width="0.104916"/>
<path d="M23.0571 34.8118C23.0571 34.8118 23.1809 33.7615 24.976 32.168C24.976 32.168 24.9141 31.7552 25.5124 31.3351" stroke="#010002" stroke-width="0.104916" stroke-miterlimit="10"/>
<path d="M27.6695 33.0938C27.6695 33.0938 32.8335 30.8054 32.8464 25.5117H22.4927C22.5056 30.8054 27.6695 33.0938 27.6695 33.0938Z" fill="white" stroke="#010002" stroke-width="0.104916"/>
<path d="M24.882 25.5116H25.6785" stroke="#010002" stroke-width="0.104916" stroke-miterlimit="10"/>
<path d="M23.2891 25.5116H24.0856" stroke="#010002" stroke-width="0.104916" stroke-miterlimit="10"/>
<path d="M26.4749 25.5116H27.2713" stroke="#010002" stroke-width="0.104916" stroke-miterlimit="10"/>
<path d="M23.2891 25.5116V28.8941C23.2891 28.8941 23.6847 29.6785 24.0856 30.1705V25.5116H23.2891Z" fill="#A60032" stroke="#010002" stroke-width="0.104916"/>
<path d="M24.882 25.5116V31.0874C24.882 31.0874 25.3801 31.5757 25.6785 31.8112V25.5116H24.882V25.5116Z" fill="#A60032" stroke="#010002" stroke-width="0.104916"/>
<path d="M26.4749 25.5116V32.4037C26.4749 32.4037 27.0431 32.7707 27.2714 32.8911V25.5116H26.4749Z" fill="#A60032" stroke="#010002" stroke-width="0.104916"/>
<path d="M23.2891 25.5116H24.0856" stroke="#010002" stroke-width="0.104916"/>
<path d="M24.882 25.5116H25.6785" stroke="#010002" stroke-width="0.104916"/>
<path d="M26.4749 25.5116H27.2713" stroke="#010002" stroke-width="0.104916"/>
<path d="M32.05 25.5116V28.8941C32.05 28.8941 31.6544 29.6785 31.2535 30.1705V25.5116H32.05Z" fill="#A60032" stroke="#010002" stroke-width="0.104916"/>
<path d="M30.4571 25.5116V31.0874C30.4571 31.0874 29.959 31.5757 29.6606 31.8112V25.5116H30.4571V25.5116Z" fill="#A60032" stroke="#010002" stroke-width="0.104916"/>
<path d="M28.8642 25.5116V32.4037C28.8642 32.4037 28.296 32.7707 28.0677 32.8911V25.5116H28.8642Z" fill="#A60032" stroke="#010002" stroke-width="0.104916"/>
<path d="M36.0182 35.1011L35.8174 35.9221L36.3671 36.4697L35.5902 39.7514L34.8991 38.8232L33.8752 39.3011L34.6521 36.0193L35.3724 35.8185L35.5595 34.999C35.5595 34.999 35.7773 34.9137 36.0182 35.1011Z" fill="#0081C6" stroke="#010002" stroke-width="0.104916" stroke-miterlimit="10"/>
<path d="M36.2023 34.5597L35.8066 35.2979L36.203 35.9767L34.646 38.9349L34.2066 37.8499L33.1001 38.0325L34.6571 35.0743L35.4022 35.0767L35.7842 34.3361C35.7843 34.3361 36.0622 34.3355 36.2023 34.5597Z" fill="#0081C6" stroke="#010002" stroke-width="0.104916" stroke-miterlimit="10"/>
<path d="M36.2691 34.7743L35.2166 36.1115L35.4578 36.8668L33.3089 39.3803L33.1125 38.2191L31.9954 38.1347L34.1443 35.6213L34.8699 35.8001L35.9863 34.3806C35.9863 34.3806 36.2857 34.5293 36.2691 34.7743Z" fill="#0081C6" stroke="#010002" stroke-width="0.104916" stroke-miterlimit="10"/>
<path d="M9.18976 17.8629C9.18976 17.8629 10.5997 18.6792 14.9905 19.4955" stroke="#010002" stroke-width="0.104916"/>
<path d="M9.81561 18.9855C9.81561 18.9855 13.6316 20.2303 15.4087 20.3833" stroke="#010002" stroke-width="0.104916"/>
<path d="M11.3185 20.3834C11.3185 20.3834 13.5571 21.0861 16.1786 21.5295" stroke="#010002" stroke-width="0.104916"/>
<path d="M13.2286 21.8475C13.2286 21.8475 15.7579 22.455 16.9654 22.5559" stroke="#010002" stroke-width="0.104916"/>
<path d="M14.9257 23.0417C14.9257 23.0417 17.065 23.4879 17.607 23.5416" stroke="#010002" stroke-width="0.104916" stroke-miterlimit="10"/>
<path d="M16.2875 24.1427C16.2875 24.1427 17.8487 24.3799 18.47 24.3672" stroke="#010002" stroke-width="0.104916" stroke-miterlimit="10"/>
<path d="M18.2269 25.0916C18.2269 25.0916 18.8582 25.0619 19.1615 25.0115" stroke="#010002" stroke-width="0.104916" stroke-miterlimit="10"/>
<path d="M18.8115 26.1056C18.8115 26.1056 19.348 25.9607 19.6644 25.7579" stroke="#010002" stroke-width="0.104916" stroke-miterlimit="10"/>
<path d="M19.6025 27.1558C19.6025 27.1558 20.0151 26.9965 20.2146 26.5619" stroke="#010002" stroke-width="0.104916" stroke-miterlimit="10"/>
<path d="M20.61 27.5433C20.61 27.5433 20.9299 27.2572 20.9505 26.9385" stroke="#010002" stroke-width="0.104916" stroke-miterlimit="10"/>
<path d="M21.8067 27.7932C21.8067 27.7932 21.687 27.6899 21.7689 27.2409" stroke="#010002" stroke-width="0.104916" stroke-miterlimit="10"/>
<path d="M21.652 26.5818C21.652 26.5818 21.5901 26.4532 21.6107 26.2504" stroke="#010002" stroke-width="0.104916" stroke-miterlimit="10"/>
<path d="M19.3961 20.1517C19.3961 20.1517 20.1183 20.4414 20.359 20.8398C20.5997 21.2382 20.4412 21.6254 20.359 21.8475C20.3177 21.9591 19.8088 22.9403 20.4071 23.6501" stroke="#010002" stroke-width="0.104916" stroke-miterlimit="10"/>
<path d="M19.4064 24.4215C19.4064 24.4215 19.4099 24.4179 19.6644 24.3382" stroke="#010002" stroke-width="0.104916" stroke-miterlimit="10"/>
<path d="M17.8831 23.3785C17.8831 23.3785 18.3135 23.4651 18.7359 23.469" stroke="#010002" stroke-width="0.104916" stroke-miterlimit="10"/>
<path d="M17.2881 22.3174C17.2881 22.3174 17.7937 22.3681 18.2682 22.3609" stroke="#010002" stroke-width="0.104916" stroke-miterlimit="10"/>
<path d="M19.167 34.9537C19.167 34.9537 19.1516 34.5137 19.7086 34.4811L21.3488 36.7626C21.3488 36.7626 21.2869 36.9092 20.5442 36.8929C20.5442 36.8929 20.4655 36.8924 20.4243 36.9793C20.3609 37.1127 19.167 34.9537 19.167 34.9537Z" fill="#369443" stroke="#010002" stroke-width="0.104916" stroke-miterlimit="10"/>
<path d="M16.535 21.2092C16.535 21.2092 17.2641 21.354 17.6561 21.3613" stroke="#010002" stroke-width="0.104916" stroke-miterlimit="10"/>
<path d="M15.9298 19.9706C15.9298 19.9706 16.8289 20.2273 17.4979 20.3183" stroke="#010002" stroke-width="0.104916" stroke-miterlimit="10"/>
<path d="M18.9835 20.847C18.9835 20.847 18.337 21.4482 19.1141 22.006C19.1141 22.006 18.7909 22.513 19.4374 23.0417" stroke="#010002" stroke-width="0.104916" stroke-miterlimit="10"/>
<path d="M19.2654 23.2916C19.2654 23.2916 19.1692 24.2585 20.3521 24.2585C20.3521 24.2585 20.1251 25.1205 21.2668 25.0915C21.2668 25.0915 21.3975 25.7796 22.2228 25.642" stroke="#010002" stroke-width="0.104916" stroke-miterlimit="10"/>
<path d="M20.4044 33.2111C20.4044 33.2111 20.2172 33.2527 19.8112 33.2111" stroke="#010002" stroke-width="0.104916"/>
<path d="M18.6695 33.7181C18.6695 33.7181 18.0987 33.6311 18.1262 34.8697" stroke="#010002" stroke-width="0.104916" stroke-miterlimit="10"/>
<path d="M19.0134 34.0006C19.0134 34.0006 18.4976 33.9354 18.532 35.1377" stroke="#010002" stroke-width="0.104916" stroke-miterlimit="10"/>
<path d="M23.9945 31.1033C23.9945 31.1033 23.7469 31.154 23.5749 31.3496C23.403 31.5451 23.0729 31.5089 23.0729 31.5089C23.0729 31.5089 23.2517 31.364 23.3136 31.0019C23.3755 30.6397 23.5749 30.5311 23.5749 30.5311" stroke="#010002" stroke-width="0.104916"/>
<path d="M22.9843 30.1882C22.9843 30.1882 22.7367 30.2389 22.5647 30.4344C22.3928 30.63 22.0627 30.5938 22.0627 30.5938C22.0627 30.5938 22.2415 30.4489 22.3034 30.0868C22.3653 29.7246 22.5647 29.616 22.5647 29.616" stroke="#010002" stroke-width="0.104916"/>
<path d="M22.814 31.594C22.814 31.594 22.5978 31.6383 22.4477 31.809C22.2976 31.9798 22.0093 31.9481 22.0093 31.9481C22.0093 31.9481 22.1655 31.8216 22.2195 31.5054C22.2736 31.1892 22.4477 31.0944 22.4477 31.0944" stroke="#010002" stroke-width="0.104916"/>
<path d="M32.8464 21.6655C32.8464 21.6655 30.3125 22.991 27.6695 21.5569C25.0266 22.991 22.4927 21.6655 22.4927 21.6655V25.5116H32.8464V21.6655Z" fill="#162667" stroke="#010002" stroke-width="0.104916" stroke-miterlimit="10"/>
<path d="M9.59969 31.6395C9.85061 31.5371 10.0313 31.4382 10.0305 31.1705C10.0304 31.1067 9.9949 30.9654 9.9237 30.7468L8.23885 25.5975C8.13908 25.2916 8.06364 25.1098 8.02867 25.0428C7.95292 24.8978 7.80425 24.8387 7.604 24.7553H7.81139H9.53764H9.74541C9.51278 24.8652 9.30071 24.9525 9.3027 25.1991C9.30347 25.2933 9.32995 25.4261 9.38457 25.5976L10.6753 29.6383L11.9647 25.5976C12.0194 25.4261 12.0476 25.2933 12.0467 25.1991C12.0442 24.9457 11.8233 24.8543 11.6063 24.7553H11.8117H13.4751H13.6817C13.4919 24.8313 13.3373 24.8909 13.2578 25.0428C13.2228 25.1098 13.1474 25.2916 13.0477 25.5975L11.3628 30.7468C11.2916 30.9654 11.2658 31.109 11.256 31.1755C11.256 31.1755 11.1784 31.5012 11.6868 31.6395L9.59969 31.6395Z" fill="#0081C6" stroke="#010002" stroke-width="0.104916" stroke-miterlimit="10"/>
<path d="M45.5048 31.11V25.2798C45.5048 25.179 45.4881 25.1016 45.455 25.0478C45.4217 24.9941 45.2769 24.8391 45.0704 24.7553H45.277H46.7935H47C46.7935 24.8237 46.6487 24.9898 46.6155 25.0453C46.5822 25.1008 46.5657 25.1789 46.5657 25.2798V31.11C46.5657 31.2142 46.5828 31.2941 46.6173 31.3495C46.6517 31.405 46.7935 31.5404 47 31.6395H46.7935H45.277H45.0704C45.277 31.5456 45.4217 31.4008 45.455 31.347C45.4881 31.2933 45.5048 31.2142 45.5048 31.11Z" fill="#0081C6" stroke="#010002" stroke-width="0.104916" stroke-miterlimit="10"/>
</g>
</svg>
