<svg width="54" height="48" viewBox="0 0 54 48" fill="none" xmlns="http://www.w3.org/2000/svg">
<mask id="mask0_1_31569" style="mask-type:alpha" maskUnits="userSpaceOnUse" x="3" y="6" width="48" height="36">
<path d="M3.56934 15.1356C4.16681 10.4125 8.0415 7.00193 12.7861 6.60887C16.6412 6.28949 21.6196 6 27 6C32.3804 6 37.3588 6.28949 41.2139 6.60887C45.9585 7.00193 49.8332 10.4125 50.4307 15.1356C50.752 17.6759 51 20.704 51 24C51 27.296 50.752 30.3241 50.4307 32.8644C49.8332 37.5875 45.9585 40.9981 41.2139 41.3911C37.3588 41.7105 32.3804 42 27 42C21.6196 42 16.6412 41.7105 12.7861 41.3911C8.0415 40.9981 4.16681 37.5875 3.56934 32.8644C3.248 30.3241 3 27.296 3 24C3 20.704 3.248 17.6759 3.56934 15.1356Z" fill="#00D0BF"/>
</mask>
<g mask="url(#mask0_1_31569)">
<rect x="3" y="18" width="48" height="12" fill="#2E50A6"/>
<g clip-path="url(#clip0_1_31569)">
<path d="M63 6H3V24H63V6Z" fill="#EE5757"/>
<path d="M63 24H3V42H63V24Z" fill="#59C785"/>
<path d="M3 6L37.9145 24L3 42V6Z" fill="#2C2929"/>
<path d="M63 20.7789H3V27.221H63V20.7789Z" fill="#2C2929"/>
<path d="M3 8.55804L32.9527 24L3 39.4419V8.55804Z" fill="#FCD95E"/>
<path d="M63 23.0527H3V24.9474H63V23.0527Z" fill="#FCD95E"/>
<path d="M3 10.6898L28.8178 24L3 37.3103V10.6898Z" fill="#2C2929"/>
<path d="M10.2936 27.4436C10.2936 27.4436 10.2936 28.7443 10.2936 29.4947C12.078 29.4947 15.5799 28.1274 15.5799 23.7249C15.5799 19.3224 11.8445 18.5052 10.7272 18.5052C9.60992 18.5052 6.15796 19.3057 6.15796 22.9077C6.15796 26.5098 9.54322 26.8433 10.2102 26.8433C10.8772 26.8433 13.3787 26.2429 13.0952 23.5414C13.0952 24.3085 12.2281 25.9261 10.4103 25.9261C8.59263 25.9261 7.4587 24.5753 7.4587 23.2413C7.4587 21.9071 8.55929 20.1228 10.477 20.1228C12.3947 20.1228 13.7955 21.8237 13.7955 23.5414C13.7955 25.259 12.4448 27.4436 10.2936 27.4436Z" fill="#FCD95E"/>
<path d="M8.73022 24.7734L8.83652 24.8421C8.83652 24.8421 9.68075 22.9161 11.9508 21.5466C11.6631 21.7029 10.1435 22.4596 8.73022 24.7734Z" fill="#FCD95E" stroke="#FCD95E" stroke-width="0.0631579"/>
<path d="M8.94907 24.4421C8.94907 24.4421 8.68646 23.9043 8.91781 23.6667C9.14922 23.429 9.04292 24.2982 9.04292 24.2982L9.14297 24.1544C9.14297 24.1544 8.98659 23.4978 9.16172 23.3602C9.3368 23.2227 9.24926 23.9918 9.24926 23.9918L9.35555 23.8542C9.35555 23.8542 9.24301 23.2164 9.41183 23.0975C9.58071 22.9787 9.47442 23.6979 9.47442 23.6979L9.59947 23.5541C9.59947 23.5541 9.50568 22.9475 9.71202 22.8037C9.91842 22.6598 9.73703 23.379 9.73703 23.379L9.87459 23.2289C9.87459 23.2289 9.81206 22.6723 9.9872 22.5473C10.1623 22.4222 10.0122 23.0725 10.0122 23.0725L10.1373 22.9412C10.1373 22.9412 10.0997 22.4222 10.2686 22.3034C10.4374 22.1845 10.2811 22.7974 10.2811 22.7974L10.4124 22.6723C10.4124 22.6723 10.3812 22.1533 10.5938 22.0532C10.8064 21.9532 10.5562 22.541 10.5562 22.541L10.7001 22.4159C10.7001 22.4159 10.7438 21.8094 10.9252 21.753C11.1065 21.6968 10.8439 22.2909 10.8439 22.2909L10.9752 22.1845C10.9752 22.1845 11.044 21.6655 11.2441 21.603C11.4443 21.5405 11.119 22.0782 11.119 22.0782L11.2504 21.9782C11.2504 21.9782 11.3942 21.4592 11.5818 21.4029C11.7694 21.3466 11.388 21.8907 11.388 21.8907L11.513 21.8031C11.513 21.8031 11.7194 21.3341 11.8882 21.3028C12.0571 21.2715 11.7006 21.6905 11.7006 21.6905L11.857 21.5967C11.857 21.5967 12.1258 21.109 12.2197 21.259C12.3135 21.4091 11.8445 21.628 11.8445 21.628L11.6881 21.7155C11.6881 21.7155 12.2572 21.4467 12.326 21.5842C12.3948 21.7218 11.5443 21.8094 11.5443 21.8094L11.4067 21.9032C11.4067 21.9032 11.9758 21.7468 11.907 21.8907C11.8382 22.0345 11.2754 22.0032 11.2754 22.0032L11.1441 22.097C11.1441 22.097 11.7131 21.9594 11.6381 22.0907C11.563 22.2221 11.0065 22.2095 11.0065 22.2095L10.8689 22.3222C10.8689 22.3222 11.4255 22.1783 11.3442 22.3472C11.2629 22.516 10.6313 22.5097 10.6313 22.5097L10.475 22.6535C10.475 22.6535 11.0628 22.4535 11.0128 22.6098C10.9627 22.7662 10.2936 22.8474 10.2936 22.8474L10.1435 22.9975C10.1435 22.9975 10.7751 22.7849 10.5875 22.9787C10.3999 23.1726 9.94343 23.2227 9.94343 23.2227L9.76204 23.4415C9.76204 23.4415 10.3874 23.0663 10.2998 23.2789C10.2123 23.4915 9.59947 23.6354 9.59947 23.6354L9.47442 23.7855C9.47442 23.7855 10.0372 23.4603 9.98094 23.6417C9.92467 23.823 9.32429 24.0168 9.32429 24.0168L9.22425 24.1544C9.22425 24.1544 9.88709 23.7605 9.83082 23.9605C9.77454 24.1607 9.14297 24.3045 9.14297 24.3045L9.06168 24.4295C9.06168 24.4295 9.6745 24.0794 9.68076 24.2482C9.68701 24.417 8.96158 24.5859 8.96158 24.5859L8.94907 24.4421Z" fill="#FCD95E"/>
</g>
</g>
<defs>
<clipPath id="clip0_1_31569">
<rect width="60" height="36" fill="white" transform="translate(3 6)"/>
</clipPath>
</defs>
</svg>
