<svg width="54" height="54" viewBox="0 0 54 54" fill="none" xmlns="http://www.w3.org/2000/svg">
<mask id="mask0_1_31569" style="mask-type:alpha" maskUnits="userSpaceOnUse" x="3" y="9" width="48" height="36">
<path d="M3.56934 18.1356C4.16681 13.4125 8.0415 10.0019 12.7861 9.60887C16.6412 9.28949 21.6196 9 27 9C32.3804 9 37.3588 9.28949 41.2139 9.60887C45.9585 10.0019 49.8332 13.4125 50.4307 18.1356C50.752 20.6759 51 23.704 51 27C51 30.296 50.752 33.3241 50.4307 35.8644C49.8332 40.5875 45.9585 43.9981 41.2139 44.3911C37.3588 44.7105 32.3804 45 27 45C21.6196 45 16.6412 44.7105 12.7861 44.3911C8.04151 43.9981 4.16681 40.5875 3.56934 35.8644C3.248 33.3241 3 30.296 3 27C3 23.704 3.248 20.6759 3.56934 18.1356Z" fill="#00D0BF"/>
</mask>
<g mask="url(#mask0_1_31569)">
<rect x="3" y="21" width="48" height="12" fill="#2E50A6"/>
<g clip-path="url(#clip0_1_31569)">
<path d="M63 9H3V27H63V9Z" fill="#EE5757"/>
<path d="M63 27H3V45H63V27Z" fill="#59C785"/>
<path d="M3 9L37.9145 27L3 45V9Z" fill="#2C2929"/>
<path d="M63 23.7789H3V30.221H63V23.7789Z" fill="#2C2929"/>
<path d="M3 11.558L32.9527 27L3 42.4419V11.558Z" fill="#FCD95E"/>
<path d="M63 26.0527H3V27.9474H63V26.0527Z" fill="#FCD95E"/>
<path d="M3 13.6898L28.8178 27L3 40.3103V13.6898Z" fill="#2C2929"/>
<path d="M10.2936 30.4436C10.2936 30.4436 10.2936 31.7443 10.2936 32.4947C12.078 32.4947 15.5799 31.1274 15.5799 26.7249C15.5799 22.3224 11.8445 21.5052 10.7272 21.5052C9.60992 21.5052 6.15796 22.3057 6.15796 25.9077C6.15796 29.5098 9.54322 29.8433 10.2102 29.8433C10.8772 29.8433 13.3787 29.2429 13.0952 26.5414C13.0952 27.3085 12.2281 28.9261 10.4103 28.9261C8.59263 28.9261 7.4587 27.5753 7.4587 26.2413C7.4587 24.9071 8.55929 23.1228 10.477 23.1228C12.3947 23.1228 13.7955 24.8237 13.7955 26.5414C13.7955 28.259 12.4448 30.4436 10.2936 30.4436Z" fill="#FCD95E"/>
<path d="M8.73022 27.7734L8.83652 27.8421C8.83652 27.8421 9.68075 25.9161 11.9508 24.5466C11.6631 24.7029 10.1435 25.4596 8.73022 27.7734Z" fill="#FCD95E" stroke="#FCD95E" stroke-width="0.0631579"/>
<path d="M8.94907 27.4421C8.94907 27.4421 8.68646 26.9043 8.91781 26.6667C9.14922 26.429 9.04292 27.2982 9.04292 27.2982L9.14297 27.1544C9.14297 27.1544 8.98659 26.4978 9.16172 26.3602C9.3368 26.2227 9.24926 26.9918 9.24926 26.9918L9.35555 26.8542C9.35555 26.8542 9.24301 26.2164 9.41183 26.0975C9.58071 25.9787 9.47442 26.6979 9.47442 26.6979L9.59947 26.5541C9.59947 26.5541 9.50568 25.9475 9.71202 25.8037C9.91842 25.6598 9.73703 26.379 9.73703 26.379L9.87459 26.2289C9.87459 26.2289 9.81206 25.6723 9.9872 25.5473C10.1623 25.4222 10.0122 26.0725 10.0122 26.0725L10.1373 25.9412C10.1373 25.9412 10.0997 25.4222 10.2686 25.3034C10.4374 25.1845 10.2811 25.7974 10.2811 25.7974L10.4124 25.6723C10.4124 25.6723 10.3812 25.1533 10.5938 25.0532C10.8064 24.9532 10.5562 25.541 10.5562 25.541L10.7001 25.4159C10.7001 25.4159 10.7438 24.8094 10.9252 24.753C11.1065 24.6968 10.8439 25.2909 10.8439 25.2909L10.9752 25.1845C10.9752 25.1845 11.044 24.6655 11.2441 24.603C11.4443 24.5405 11.119 25.0782 11.119 25.0782L11.2504 24.9782C11.2504 24.9782 11.3942 24.4592 11.5818 24.4029C11.7695 24.3466 11.388 24.8907 11.388 24.8907L11.513 24.8031C11.513 24.8031 11.7194 24.3341 11.8882 24.3028C12.0571 24.2715 11.7006 24.6905 11.7006 24.6905L11.857 24.5967C11.857 24.5967 12.1258 24.109 12.2197 24.259C12.3135 24.4091 11.8445 24.628 11.8445 24.628L11.6881 24.7155C11.6881 24.7155 12.2572 24.4467 12.326 24.5842C12.3948 24.7218 11.5443 24.8094 11.5443 24.8094L11.4067 24.9032C11.4067 24.9032 11.9758 24.7468 11.907 24.8907C11.8382 25.0345 11.2754 25.0032 11.2754 25.0032L11.1441 25.097C11.1441 25.097 11.7131 24.9594 11.6381 25.0907C11.563 25.2221 11.0065 25.2095 11.0065 25.2095L10.8689 25.3222C10.8689 25.3222 11.4255 25.1783 11.3442 25.3472C11.2629 25.516 10.6313 25.5097 10.6313 25.5097L10.475 25.6535C10.475 25.6535 11.0628 25.4535 11.0128 25.6098C10.9627 25.7662 10.2936 25.8474 10.2936 25.8474L10.1435 25.9975C10.1435 25.9975 10.7751 25.7849 10.5875 25.9787C10.3999 26.1726 9.94343 26.2227 9.94343 26.2227L9.76204 26.4415C9.76204 26.4415 10.3874 26.0663 10.2998 26.2789C10.2123 26.4915 9.59947 26.6354 9.59947 26.6354L9.47442 26.7855C9.47442 26.7855 10.0372 26.4603 9.98094 26.6417C9.92467 26.823 9.32429 27.0168 9.32429 27.0168L9.22425 27.1544C9.22425 27.1544 9.88709 26.7605 9.83082 26.9605C9.77454 27.1607 9.14297 27.3045 9.14297 27.3045L9.06168 27.4295C9.06168 27.4295 9.6745 27.0794 9.68076 27.2482C9.68701 27.417 8.96158 27.5859 8.96158 27.5859L8.94907 27.4421Z" fill="#FCD95E"/>
</g>
</g>
<defs>
<clipPath id="clip0_1_31569">
<rect width="60" height="36" fill="white" transform="translate(3 9)"/>
</clipPath>
</defs>
</svg>
