<svg width="54" height="48" viewBox="0 0 54 48" fill="none" xmlns="http://www.w3.org/2000/svg">
<mask id="mask0_1_41562" style="mask-type:alpha" maskUnits="userSpaceOnUse" x="3" y="6" width="48" height="36">
<path d="M50.4307 32.8644C49.8332 37.5875 45.9585 40.9981 41.2139 41.3911C37.3588 41.7105 32.3804 42 27 42C21.6196 42 16.6412 41.7105 12.7861 41.3911C8.0415 40.9981 4.16681 37.5875 3.56934 32.8644C3.248 30.3241 3 27.296 3 24C3 20.704 3.248 17.6759 3.56934 15.1356C4.16682 10.4125 8.04151 7.00193 12.7861 6.60886C16.6412 6.28948 21.6196 6 27 6C32.3804 6 37.3588 6.28948 41.2139 6.60887C45.9585 7.00193 49.8332 10.4125 50.4307 15.1356C50.752 17.6759 51 20.704 51 24C51 27.296 50.752 30.3241 50.4307 32.8644Z" fill="#00D0BF"/>
</mask>
<g mask="url(#mask0_1_41562)">
<path d="M15 11L15.8981 13.7639L18.8042 13.7639L16.4531 15.4721L17.3511 18.2361L15 16.5279L12.6489 18.2361L13.5469 15.4721L11.1958 13.7639L14.1019 13.7639L15 11Z" fill="#2E50A6"/>
<path d="M39 29L39.8981 31.7639L42.8042 31.7639L40.4531 33.4721L41.3511 36.2361L39 34.5279L36.6489 36.2361L37.5469 33.4721L35.1958 31.7639L38.1019 31.7639L39 29Z" fill="#EE5757"/>
<rect x="51" y="42" width="24" height="36" transform="rotate(-180 51 42)" fill="#EE5757"/>
<rect x="27" y="42" width="24" height="18" transform="rotate(-180 27 42)" fill="#EE5757"/>
<rect x="27" y="24" width="24" height="18" transform="rotate(-180 27 24)" fill="#2E50A6"/>
</g>
<path d="M14.5 18L15.176 19.5696L16.8776 19.7275L15.5937 20.8554L15.9695 22.5225L14.5 21.65L13.0305 22.5225L13.4063 20.8554L12.1224 19.7275L13.824 19.5696L14.5 18Z" fill="#F5F5F5"/>
<path d="M14 9L14.5408 10.2557L15.9021 10.382L14.875 11.2843L15.1756 12.618L14 11.92L12.8244 12.618L13.125 11.2843L12.0979 10.382L13.4592 10.2557L14 9Z" fill="#F5F5F5"/>
<path d="M9 13L9.54076 14.2557L10.9021 14.382L9.87497 15.2843L10.1756 16.618L9 15.92L7.82443 16.618L8.12503 15.2843L7.09789 14.382L8.45924 14.2557L9 13Z" fill="#F5F5F5"/>
<path d="M19.5 11L19.9056 11.9418L20.9266 12.0365L20.1562 12.7132L20.3817 13.7135L19.5 13.19L18.6183 13.7135L18.8438 12.7132L18.0734 12.0365L19.0944 11.9418L19.5 11Z" fill="#F5F5F5"/>
<path d="M18 16L18.2704 16.6279L18.9511 16.691L18.4375 17.1421L18.5878 17.809L18 17.46L17.4122 17.809L17.5625 17.1421L17.0489 16.691L17.7296 16.6279L18 16Z" fill="#F5F5F5"/>
</svg>
