<svg width="54" height="54" viewBox="0 0 54 54" fill="none" xmlns="http://www.w3.org/2000/svg">
<mask id="mask0_1_41562" style="mask-type:alpha" maskUnits="userSpaceOnUse" x="3" y="9" width="48" height="36">
<path d="M50.4307 35.8644C49.8332 40.5875 45.9585 43.9981 41.2139 44.3911C37.3588 44.7105 32.3804 45 27 45C21.6196 45 16.6412 44.7105 12.7861 44.3911C8.04151 43.9981 4.16681 40.5875 3.56934 35.8644C3.248 33.3241 3 30.296 3 27C3 23.704 3.248 20.6759 3.56934 18.1356C4.16682 13.4125 8.04151 10.0019 12.7861 9.60887C16.6412 9.28948 21.6196 9 27 9C32.3804 9 37.3588 9.28949 41.2139 9.60887C45.9585 10.0019 49.8332 13.4125 50.4307 18.1356C50.752 20.6759 51 23.704 51 27C51 30.296 50.752 33.3241 50.4307 35.8644Z" fill="#00D0BF"/>
</mask>
<g mask="url(#mask0_1_41562)">
<path d="M15 14L15.8981 16.7639L18.8042 16.7639L16.4531 18.4721L17.3511 21.2361L15 19.5279L12.6489 21.2361L13.5469 18.4721L11.1958 16.7639L14.1019 16.7639L15 14Z" fill="#2E50A6"/>
<path d="M39 32L39.8981 34.7639L42.8042 34.7639L40.4531 36.4721L41.3511 39.2361L39 37.5279L36.6489 39.2361L37.5469 36.4721L35.1958 34.7639L38.1019 34.7639L39 32Z" fill="#EE5757"/>
<rect x="51" y="45" width="24" height="36" transform="rotate(-180 51 45)" fill="#EE5757"/>
<rect x="27" y="45" width="24" height="18" transform="rotate(-180 27 45)" fill="#EE5757"/>
<rect x="27" y="27" width="24" height="18" transform="rotate(-180 27 27)" fill="#2E50A6"/>
</g>
<path d="M14.5 21L15.176 22.5696L16.8776 22.7275L15.5937 23.8554L15.9695 25.5225L14.5 24.65L13.0305 25.5225L13.4063 23.8554L12.1224 22.7275L13.824 22.5696L14.5 21Z" fill="#F5F5F5"/>
<path d="M14 12L14.5408 13.2557L15.9021 13.382L14.875 14.2843L15.1756 15.618L14 14.92L12.8244 15.618L13.125 14.2843L12.0979 13.382L13.4592 13.2557L14 12Z" fill="#F5F5F5"/>
<path d="M9 16L9.54076 17.2557L10.9021 17.382L9.87497 18.2843L10.1756 19.618L9 18.92L7.82443 19.618L8.12503 18.2843L7.09789 17.382L8.45924 17.2557L9 16Z" fill="#F5F5F5"/>
<path d="M19.5 14L19.9056 14.9418L20.9266 15.0365L20.1562 15.7132L20.3817 16.7135L19.5 16.19L18.6183 16.7135L18.8438 15.7132L18.0734 15.0365L19.0944 14.9418L19.5 14Z" fill="#F5F5F5"/>
<path d="M18 19L18.2704 19.6279L18.9511 19.691L18.4375 20.1421L18.5878 20.809L18 20.46L17.4122 20.809L17.5625 20.1421L17.0489 19.691L17.7296 19.6279L18 19Z" fill="#F5F5F5"/>
</svg>
