<svg width="54" height="48" viewBox="0 0 54 48" fill="none" xmlns="http://www.w3.org/2000/svg">
<mask id="mask0_1_36022" style="mask-type:alpha" maskUnits="userSpaceOnUse" x="3" y="6" width="48" height="36">
<path d="M3.56934 15.1356C4.16681 10.4125 8.0415 7.00193 12.7861 6.60887C16.6412 6.28949 21.6196 6 27 6C32.3804 6 37.3588 6.28949 41.2139 6.60887C45.9585 7.00193 49.8332 10.4125 50.4307 15.1356C50.752 17.6759 51 20.704 51 24C51 27.296 50.752 30.3241 50.4307 32.8644C49.8332 37.5875 45.9585 40.9981 41.2139 41.3911C37.3588 41.7105 32.3804 42 27 42C21.6196 42 16.6412 41.7105 12.7861 41.3911C8.0415 40.9981 4.16681 37.5875 3.56934 32.8644C3.248 30.3241 3 27.296 3 24C3 20.704 3.248 17.6759 3.56934 15.1356Z" fill="#00D0BF"/>
</mask>
<g mask="url(#mask0_1_36022)">
<rect x="3" y="18" width="48" height="12" fill="#2E50A6"/>
<g clip-path="url(#clip0_1_36022)">
<path d="M63 6H3V24H63V6Z" fill="#EE5757"/>
<path d="M63 24H3V42H63V24Z" fill="#2E50A6"/>
<path d="M3 6L37.9145 24L3 42V6Z" fill="#F5F5F5"/>
<path d="M63 19H3V29H63V19Z" fill="#F5F5F5"/>
<path d="M3 8.55804L32.9527 24L3 39.4419V8.55804Z" fill="#1C6864"/>
<path d="M63 21H3V27H63V21Z" fill="#1C6864"/>
<path d="M3.49614 15.1318L2 14.2768V16V32V33.7232L3.49614 32.8682L17.4961 24.8682L19.0156 24L17.4961 23.1318L3.49614 15.1318Z" fill="#2C2929" stroke="#FCD95E" stroke-width="2"/>
</g>
</g>
<defs>
<clipPath id="clip0_1_36022">
<rect width="60" height="36" fill="white" transform="translate(3 6)"/>
</clipPath>
</defs>
</svg>
