<svg width="54" height="54" viewBox="0 0 54 54" fill="none" xmlns="http://www.w3.org/2000/svg">
<mask id="mask0_1_36022" style="mask-type:alpha" maskUnits="userSpaceOnUse" x="3" y="9" width="48" height="36">
<path d="M3.56934 18.1356C4.16681 13.4125 8.0415 10.0019 12.7861 9.60887C16.6412 9.28949 21.6196 9 27 9C32.3804 9 37.3588 9.28949 41.2139 9.60887C45.9585 10.0019 49.8332 13.4125 50.4307 18.1356C50.752 20.6759 51 23.704 51 27C51 30.296 50.752 33.3241 50.4307 35.8644C49.8332 40.5875 45.9585 43.9981 41.2139 44.3911C37.3588 44.7105 32.3804 45 27 45C21.6196 45 16.6412 44.7105 12.7861 44.3911C8.04151 43.9981 4.16681 40.5875 3.56934 35.8644C3.248 33.3241 3 30.296 3 27C3 23.704 3.248 20.6759 3.56934 18.1356Z" fill="#00D0BF"/>
</mask>
<g mask="url(#mask0_1_36022)">
<rect x="3" y="21" width="48" height="12" fill="#2E50A6"/>
<g clip-path="url(#clip0_1_36022)">
<path d="M63 9H3V27H63V9Z" fill="#EE5757"/>
<path d="M63 27H3V45H63V27Z" fill="#2E50A6"/>
<path d="M3 9L37.9145 27L3 45V9Z" fill="#F5F5F5"/>
<path d="M63 22H3V32H63V22Z" fill="#F5F5F5"/>
<path d="M3 11.558L32.9527 27L3 42.4419V11.558Z" fill="#1C6864"/>
<path d="M63 24H3V30H63V24Z" fill="#1C6864"/>
<path d="M3.49614 18.1318L2 17.2768V19V35V36.7232L3.49614 35.8682L17.4961 27.8682L19.0156 27L17.4961 26.1318L3.49614 18.1318Z" fill="#2C2929" stroke="#FCD95E" stroke-width="2"/>
</g>
</g>
<defs>
<clipPath id="clip0_1_36022">
<rect width="60" height="36" fill="white" transform="translate(3 9)"/>
</clipPath>
</defs>
</svg>
