<svg width="54" height="48" viewBox="0 0 54 48" fill="none" xmlns="http://www.w3.org/2000/svg">
<mask id="mask0_1_31950" style="mask-type:alpha" maskUnits="userSpaceOnUse" x="3" y="6" width="48" height="36">
<path d="M3.56934 15.1356C4.16681 10.4125 8.0415 7.00193 12.7861 6.60887C16.6412 6.28949 21.6196 6 27 6C32.3804 6 37.3588 6.28949 41.2139 6.60887C45.9585 7.00193 49.8332 10.4125 50.4307 15.1356C50.752 17.6759 51 20.704 51 24C51 27.296 50.752 30.3241 50.4307 32.8644C49.8332 37.5875 45.9585 40.9981 41.2139 41.3911C37.3588 41.7105 32.3804 42 27 42C21.6196 42 16.6412 41.7105 12.7861 41.3911C8.0415 40.9981 4.16681 37.5875 3.56934 32.8644C3.248 30.3241 3 27.296 3 24C3 20.704 3.248 17.6759 3.56934 15.1356Z" fill="#00D0BF"/>
</mask>
<g mask="url(#mask0_1_31950)">
<path d="M3 6H51V42H3V6Z" fill="#59C785"/>
<path d="M47.2188 13.321C47.2188 13.321 49.5634 12.4021 49.7906 12.2126C49.8939 12.3263 48.8507 13.482 46.8263 13.9083C48.6648 13.5105 50.2348 12.2599 50.555 12.2978C50.6479 12.3168 50.6272 13.5199 46.4131 14.562C49.3258 13.861 51.0197 12.5726 50.9991 12.7147C51.0197 12.7431 50.7099 13.7283 48.1587 14.4957C48.8714 14.3441 50.8029 13.2641 50.7822 13.4726C50.8442 13.5578 48.9127 15.8314 45.4216 15.0925C48.2104 15.7557 50.0178 14.1546 50.2761 14.1831C50.3277 14.1925 49.7596 15.5851 46.2479 15.6704C47.9315 15.5094 47.446 15.6609 47.446 15.6609C47.446 15.6609 46.4544 16.3714 45.2563 15.8883C46.1962 16.1252 46.2995 16.1346 46.3202 16.2104C46.2582 16.3051 45.4835 16.4472 44.7399 16.0777C45.3389 16.3051 45.876 16.343 45.8863 16.4283C45.876 16.4567 45.4939 16.6557 45.1531 16.5136C44.8122 16.3714 41.6722 14.5999 41.6722 14.5999L47.0226 13.2547L47.2188 13.321Z" fill="#FFA654" stroke="#2C2929" stroke-width="0.0613415" stroke-linecap="round" stroke-linejoin="round"/>
<path d="M40.9289 18.113C40.4584 18.113 40.4454 18.497 40.4454 18.497C40.4454 18.497 40.4066 18.5247 40.4325 18.7108C40.5102 18.5841 40.549 18.5445 40.549 18.5445C40.6009 18.5524 40.8167 18.6118 41.1577 18.3664C40.8468 18.6633 41.0325 18.7741 41.0325 18.7741C41.0325 18.7741 40.9591 19.0077 41.1965 19.0552C41.1231 18.9602 41.1663 18.8771 41.1663 18.8771C41.1663 18.8771 41.4987 18.8454 41.4771 18.4733C41.4901 18.8097 41.6886 18.8929 41.6886 18.8929C41.6886 18.8929 41.6886 19.0789 41.9044 19.0948C41.7879 18.9998 41.8137 18.8533 41.8137 18.8533C41.8137 18.8533 42.0943 18.6672 41.8569 18.3505C41.9994 18.2752 42.1159 18.0655 42.1159 18.0655C42.1159 18.0655 41.9217 17.9902 41.831 17.9269C41.7878 17.8437 41.8267 17.3884 41.8267 17.3884L41.7102 16.7985L41.3778 17.7171C41.3907 17.5864 41.3994 18.113 40.9289 18.113Z" fill="#FFA654" stroke="#2C2929" stroke-width="0.0613415" stroke-linecap="round" stroke-linejoin="round"/>
<path d="M43.2526 16.7882C43.2629 16.7977 43.6038 17.1483 43.9343 17.1293C44.0582 17.0346 43.6761 16.8261 43.6761 16.7788C43.8103 16.8925 44.3784 17.3377 44.7399 17.1767C44.8845 16.9872 44.4817 17.0156 44.0376 16.504C44.3474 16.6935 45.1221 17.1103 45.4836 16.9493C45.6386 16.7977 44.6779 16.324 44.3577 15.9546L43.5315 15.5662L42.4056 16.4093L43.2526 16.7882Z" fill="#FFA654" stroke="#2C2929" stroke-width="0.0613415" stroke-linecap="round" stroke-linejoin="round"/>
<path d="M41.9822 13.9083C41.9822 13.9083 42.3643 13.6999 43.893 13.8041C44.0583 13.8231 44.9362 13.5294 45.2151 13.4441C45.6592 13.3684 47.0742 13.0842 47.4564 12.8189C47.7249 12.7905 47.384 13.2736 47.0433 13.3873C46.6817 13.5389 45.37 13.9557 44.9052 13.8989C45.4629 13.9083 45.1531 14.3252 44.2235 14.1262C44.6676 14.3536 44.5024 14.3915 44.5024 14.3915C44.5024 14.3915 43.7174 14.4294 43.5108 14.2683C44.0376 14.4483 43.8207 14.5146 43.8207 14.5146C43.8207 14.5146 43.2836 14.562 43.0357 14.4578C43.4178 14.562 43.2216 14.6283 43.2216 14.6283C43.2216 14.6283 42.9118 14.6757 42.6535 14.5904C42.3953 14.5052 42.0028 13.9083 41.9822 13.9083Z" fill="#FFA654" stroke="#2C2929" stroke-width="0.0613415" stroke-linecap="round" stroke-linejoin="round"/>
<path d="M42.5951 16.9846L42.6513 17.911C42.6513 17.911 42.6211 17.9586 42.5951 17.9863C42.5692 18.014 41.8786 17.8873 41.9736 18.3703C41.9736 18.5683 41.9779 18.6197 42.1247 18.7306C42.0858 18.5999 42.0988 18.5089 42.0988 18.5089C42.0988 18.5089 42.293 18.6158 42.4829 18.3228C42.3534 18.6118 42.444 18.7147 42.4743 18.7227C42.5045 18.7742 42.4225 19.0077 42.6815 19.0037C42.5822 18.9166 42.6297 18.7899 42.6297 18.7899C42.6297 18.7899 42.9016 18.7504 42.8067 18.299C42.906 18.208 42.9448 18.2951 42.9448 18.2951C42.9448 18.2951 42.975 18.5643 43.2124 18.5089C43.3204 18.5643 43.1952 18.7108 43.1952 18.7108C43.1952 18.7108 43.3678 18.7147 43.4196 18.5801C43.4714 18.4455 43.5318 18.204 43.2469 18.105C43.2124 18.01 43.3592 18.0021 43.3592 18.0021C43.3592 18.0021 43.5405 18.0575 43.5922 18.1407C43.6441 18.2238 43.6268 17.9229 43.4023 17.8912C43.1261 17.8833 43.1088 17.8319 43.1088 17.82C43.1088 17.8081 43.0614 17.147 43.0398 16.9569L42.5951 16.9846Z" fill="#FFA654" stroke="#2C2929" stroke-width="0.0613415" stroke-linecap="round" stroke-linejoin="round"/>
<path d="M43.5559 17.7741C43.5593 17.7317 43.0846 17.1455 43.205 17.0697C43.3254 17.0924 43.5228 17.3591 43.6827 17.2725C43.6342 17.1686 43.4914 17.2271 43.3291 16.9611C43.167 16.6603 43.1433 16.2088 42.5752 15.7163C42.943 16.2375 43.7773 16.543 43.8126 16.391C43.8479 16.239 43.078 15.6644 43.1174 15.5259C43.2705 15.8103 44.0436 16.444 44.6133 16.3916C44.6523 16.2695 44.1468 16.0233 44.0167 15.7933C43.6528 15.5691 42.6791 14.7993 42.6596 14.6207C42.3052 14.1467 42.084 14.0033 41.981 13.9487C41.9412 13.9057 41.9312 13.8646 41.9234 13.8385C41.7035 13.3628 41.9948 13.2084 42.1653 13.1856C42.3057 13.1713 42.3464 13.1905 42.4474 13.1457C42.3278 13.1028 42.2083 13.0626 42.0888 13.0197C42.2447 13.1246 42.6429 13.0323 42.5566 13.3344C42.7311 13.2734 43.1026 12.8681 42.1355 12.7766C41.8208 12.4454 40.5268 12.2551 40.2029 13.7005C40.2287 13.7207 40.2423 13.7374 40.3246 13.7938C39.916 13.6121 38.8136 13.472 38.4164 13.4131C37.3432 13.1291 36.2287 12.4448 36.1216 12.5289C35.9783 12.5873 36.77 13.2628 36.7288 13.2778C36.0424 12.9107 35.4153 12.6506 34.8317 12.4139C34.4212 12.2731 34.0101 11.9455 33.9647 12.0078C33.8136 12.2949 34.6229 13.0164 34.7734 13.1013C34.924 13.1825 36.1078 13.6862 36.0904 13.6925C34.3072 12.9501 34.0083 12.8156 33.9188 12.73C33.7616 12.6975 33.3788 12.2234 33.2721 12.2539C33.2137 12.3065 33.3308 13.0556 34.1817 13.3919C34.3204 13.4846 36.0056 14.0391 35.9891 14.0826C35.985 14.0935 34.059 13.3535 33.9841 13.327C33.6128 13.1935 33.1571 12.7253 33.072 12.778C32.9907 12.8257 33.282 13.3324 33.6572 13.4914C33.8539 13.571 34.6084 13.9137 35.2881 14.1318C35.3314 14.1462 34.0663 13.6918 33.458 13.4587C33.1822 13.3183 33.0523 13.1433 33.0103 13.1809C32.9482 13.2186 33.1107 13.9671 35.0654 14.3895C35.1169 14.4096 35.7535 14.2511 35.722 14.2722C35.7141 14.2774 35.0899 14.4021 35.0291 14.3978C34.975 14.3902 34.633 14.4349 34.6269 14.4512C34.6062 14.5018 34.7508 14.7698 35.76 14.714C35.889 14.7068 36.5892 14.4801 36.5304 14.5289C36.501 14.5533 35.5769 14.8287 35.5066 14.8341C35.4454 14.842 35.1208 14.8731 35.1088 14.9048C35.0942 14.948 35.3491 15.1388 35.8911 15.1693C36.371 15.1927 37.2828 14.9004 37.2646 14.9193C37.2463 14.9383 36.3855 15.2088 36.363 15.2253C36.3318 15.2415 36.0166 15.2571 36.0056 15.2793C35.9799 15.3346 36.4602 15.7466 37.8809 15.3069C37.7382 15.4837 37.0496 15.6046 37.0505 15.6365C37.0473 15.6596 37.2023 15.7968 37.443 15.846C37.5634 15.8705 37.7282 15.8655 37.8787 15.8437C38.1491 15.794 38.4341 15.6959 38.7961 15.389C38.8394 15.4853 37.8917 15.9252 37.9362 15.9672C38.1417 16.142 38.8243 15.9446 38.869 15.9217C38.9138 15.8988 40.1835 15.2421 40.1791 15.1661C40.1989 15.2635 38.5421 16.0891 38.56 16.123C38.6663 16.2787 39.2323 16.1148 39.2593 16.1005C39.2863 16.0863 39.9816 15.7418 40.0007 15.7316C40.0197 15.7214 39.1835 16.1805 39.258 16.2503C39.222 16.5484 40.5639 16.0446 40.669 15.9819C40.7216 15.9505 40.0244 16.263 40.0226 16.4115C40.2471 16.7596 40.9659 16.6492 41.0768 16.5726C41.1323 16.5343 41.0116 16.8313 41.0505 16.8043C41.064 16.7987 41.2068 16.6438 41.2617 16.5317C41.2442 16.629 41.1654 16.7822 41.1194 16.958C41.0734 17.1339 41.0602 17.3323 40.997 17.543C40.9825 17.6356 41.44 17.362 41.3735 16.708C41.4127 17.0482 41.2291 17.6843 41.2771 17.7174C41.3732 17.7835 41.6389 17.4006 41.6658 17.1416C41.7447 17.2724 41.9102 17.5455 42.0527 17.6083C42.0372 17.4104 42.0554 17.4195 41.9913 17.225C42.0283 16.9668 42.0334 16.6094 42.0424 16.2059C42.4295 16.8861 42.5839 17.1733 42.4757 17.6941C42.5909 17.7381 42.7747 17.3306 42.7599 17.1208C42.9077 17.7037 43.5457 17.7911 43.5559 17.7741Z" fill="#FFA654" stroke="#2C2929" stroke-width="0.0613415" stroke-linecap="round" stroke-linejoin="round"/>
<path d="M37.1083 13.456C37.1083 13.456 36.8448 13.6386 36.517 13.6278C36.5989 13.9286 37.2781 13.6977 37.2781 13.6977C37.2781 13.6977 36.9502 14.0306 36.716 14.0843C36.8566 14.1917 37.4479 14.1541 37.5475 14.1004C37.647 14.0467 37.8226 13.8373 37.8226 13.8373C37.8226 13.8373 37.2137 14.4817 37.1259 14.4763C37.1142 14.5515 37.7641 14.5247 37.8988 14.4119C38.0334 14.2991 38.373 14.1326 38.373 14.1326C38.373 14.1326 37.483 14.7019 37.442 14.7019C37.7758 14.7824 38.4433 14.6052 38.8707 14.3636C38.2383 14.7502 38.1798 14.82 37.8578 14.9489C38.1447 15.008 38.291 15.1852 39.263 14.7985C39.8192 14.5569 40.1353 14.1165 40.1353 14.1165C39.7899 14.5408 39.2454 14.9006 38.6424 15.255C38.6072 15.3194 39.2864 15.5826 40.1529 14.7556" fill="#FFA654"/>
<path d="M37.1083 13.456C37.1083 13.456 36.8448 13.6386 36.517 13.6278C36.5989 13.9286 37.2781 13.6977 37.2781 13.6977C37.2781 13.6977 36.9502 14.0306 36.716 14.0843C36.8566 14.1917 37.4479 14.1541 37.5475 14.1004C37.647 14.0467 37.8226 13.8373 37.8226 13.8373C37.8226 13.8373 37.2137 14.4817 37.1259 14.4763C37.1142 14.5515 37.7641 14.5247 37.8988 14.4119C38.0334 14.2991 38.373 14.1326 38.373 14.1326C38.373 14.1326 37.483 14.7019 37.442 14.7019C37.7758 14.7824 38.4433 14.6052 38.8707 14.3636C38.2383 14.7502 38.1798 14.82 37.8578 14.9489C38.1447 15.008 38.291 15.1852 39.263 14.7985C39.8192 14.5569 40.1353 14.1165 40.1353 14.1165C39.7899 14.5408 39.2454 14.9006 38.6424 15.255C38.6072 15.3194 39.2864 15.5826 40.1529 14.7556" stroke="#2C2929" stroke-width="0.0613415" stroke-linecap="round" stroke-linejoin="round"/>
<path d="M41.8157 15.2496C41.8157 15.2496 41.8742 15.502 42.1084 15.6954C42.3426 15.8887 42.3602 16.0766 42.3602 16.0766" fill="#FFA654"/>
<path d="M41.8157 15.2496C41.8157 15.2496 41.8742 15.502 42.1084 15.6954C42.3426 15.8887 42.3602 16.0766 42.3602 16.0766" stroke="#2C2929" stroke-width="0.0613415" stroke-linecap="round" stroke-linejoin="round"/>
<path d="M41.6987 13.6064C41.6987 13.6064 41.7807 13.8319 42.0207 13.9769C42.2667 14.1219 42.6356 14.5784 42.6648 14.6589C42.6931 14.7564 42.8346 15.4591 42.8229 15.5343" fill="#FFA654"/>
<path d="M41.6987 13.6064C41.6987 13.6064 41.7807 13.8319 42.0207 13.9769C42.2667 14.1219 42.6356 14.5784 42.6648 14.6589C42.6931 14.7564 42.8346 15.4591 42.8229 15.5343" stroke="#2C2929" stroke-width="0.0613415" stroke-linecap="round" stroke-linejoin="round"/>
<path d="M40.2057 13.9553C40.2233 14.0412 39.8602 14.4762 40.3579 14.9864C39.9071 15.4912 39.9071 15.5556 39.9071 15.5556C39.9071 15.5556 40.1588 15.6845 40.6097 15.3301C41.3532 16.1678 41.1055 16.5512 41.1055 16.5512" fill="#FFA654"/>
<path d="M40.2057 13.9553C40.2233 14.0412 39.8602 14.4762 40.3579 14.9864C39.9071 15.4912 39.9071 15.5556 39.9071 15.5556C39.9071 15.5556 40.1588 15.6845 40.6097 15.3301C41.3532 16.1678 41.1055 16.5512 41.1055 16.5512" stroke="#2C2929" stroke-width="0.0613415" stroke-linecap="round" stroke-linejoin="round"/>
<path d="M41.0461 15.9599C41.0461 15.9599 40.9776 15.8699 41.0997 15.5338C41.2097 15.6553 41.332 15.6812 41.3856 15.7304C41.4391 15.7796 42.0006 15.8541 42.0363 16.1983" fill="#FFA654"/>
<path d="M41.0461 15.9599C41.0461 15.9599 40.9776 15.8699 41.0997 15.5338C41.2097 15.6553 41.332 15.6812 41.3856 15.7304C41.4391 15.7796 42.0006 15.8541 42.0363 16.1983" stroke="#2C2929" stroke-width="0.0613415" stroke-linecap="round" stroke-linejoin="round"/>
<path d="M41.7062 12.8055C41.7062 12.7803 41.5931 12.5578 41.1714 12.8359C41.3974 12.8485 41.6207 12.9673 41.7062 12.8055Z" fill="#FFA654" stroke="#2C2929" stroke-width="0.0613415" stroke-linecap="round" stroke-linejoin="round"/>
<path d="M45.7315 13.823C45.7521 13.8325 46.9916 14.0788 47.4047 13.9556C46.878 14.5998 45.8244 14.164 45.8244 14.164C46.3408 14.3061 46.3615 14.2967 46.5268 14.4293C46.5784 14.5525 45.5765 14.4956 45.246 14.3251C46.1653 14.5904 46.1859 14.5714 46.2169 14.6756C46.2583 14.8177 44.7089 14.6377 44.5746 14.4482C44.9878 14.7419 45.215 14.7988 45.4423 14.9314C45.1634 15.0451 44.647 15.1587 43.6967 14.543C44.9464 15.5851 46.0723 15.5187 46.2479 15.7082C45.8141 16.2956 44.1305 15.3577 43.3558 14.884C42.5812 14.4104 45.0498 16.0303 45.277 16.0019C45.1634 16.1629 44.3474 16.0208 44.2958 15.9451" fill="#FFA654"/>
<path d="M45.7315 13.823C45.7521 13.8325 46.9916 14.0788 47.4047 13.9556C46.878 14.5998 45.8244 14.164 45.8244 14.164C46.3408 14.3061 46.3615 14.2967 46.5268 14.4293C46.5784 14.5525 45.5765 14.4956 45.246 14.3251C46.1653 14.5904 46.1859 14.5714 46.2169 14.6756C46.2583 14.8177 44.7089 14.6377 44.5746 14.4482C44.9878 14.7419 45.215 14.7988 45.4423 14.9314C45.1634 15.0451 44.647 15.1587 43.6967 14.543C44.9464 15.5851 46.0723 15.5187 46.2479 15.7082C45.8141 16.2956 44.1305 15.3577 43.3558 14.884C42.5812 14.4104 45.0498 16.0303 45.277 16.0019C45.1634 16.1629 44.3474 16.0208 44.2958 15.9451" stroke="#2C2929" stroke-width="0.0613415" stroke-linecap="round" stroke-linejoin="round"/>
<path d="M46.0516 14.9125C45.907 14.9315 45.4732 14.9315 45.4113 14.922L46.0516 14.9125Z" fill="#FFA654"/>
<path d="M46.0516 14.9125C45.907 14.9315 45.4732 14.9315 45.4113 14.922" stroke="#2C2929" stroke-width="0.0613415" stroke-linecap="round" stroke-linejoin="round"/>
<path d="M36.7454 13.2841C36.7454 13.2841 37.688 13.7405 38.0861 13.7083C37.9808 13.7996 37.8226 13.8372 37.8226 13.8372C37.9222 13.8748 38.1974 14.009 38.6131 13.9231C38.5136 14.0144 38.3847 14.1164 38.3847 14.1164C38.3847 14.1164 38.7419 14.2399 39.1459 14.0466C39.023 14.1862 38.9527 14.2883 38.9527 14.2883L39.2337 14.3044" fill="#FFA654"/>
<path d="M36.7454 13.2841C36.7454 13.2841 37.688 13.7405 38.0861 13.7083C37.9808 13.7996 37.8226 13.8372 37.8226 13.8372C37.9222 13.8748 38.1974 14.009 38.6131 13.9231C38.5136 14.0144 38.3847 14.1164 38.3847 14.1164C38.3847 14.1164 38.7419 14.2399 39.1459 14.0466C39.023 14.1862 38.9527 14.2883 38.9527 14.2883L39.2337 14.3044" stroke="#2C2929" stroke-width="0.0613415" stroke-linecap="round" stroke-linejoin="round"/>
<rect x="33" y="22" width="6" height="20" fill="#EE5757"/>
<rect x="39" y="22" width="6" height="20" fill="#2C2929"/>
<rect x="45" y="22" width="6" height="20" fill="#FFA654"/>
</g>
</svg>
