<svg width="54" height="54" viewBox="0 0 54 54" fill="none" xmlns="http://www.w3.org/2000/svg">
<mask id="mask0_1_31950" style="mask-type:alpha" maskUnits="userSpaceOnUse" x="3" y="9" width="48" height="36">
<path d="M3.56934 18.1356C4.16681 13.4125 8.0415 10.0019 12.7861 9.60887C16.6412 9.28949 21.6196 9 27 9C32.3804 9 37.3588 9.28949 41.2139 9.60887C45.9585 10.0019 49.8332 13.4125 50.4307 18.1356C50.752 20.6759 51 23.704 51 27C51 30.296 50.752 33.3241 50.4307 35.8644C49.8332 40.5875 45.9585 43.9981 41.2139 44.3911C37.3588 44.7105 32.3804 45 27 45C21.6196 45 16.6412 44.7105 12.7861 44.3911C8.04151 43.9981 4.16681 40.5875 3.56934 35.8644C3.248 33.3241 3 30.296 3 27C3 23.704 3.248 20.6759 3.56934 18.1356Z" fill="#00D0BF"/>
</mask>
<g mask="url(#mask0_1_31950)">
<path d="M3 9H51V45H3V9Z" fill="#59C785"/>
<path d="M47.2188 16.321C47.2188 16.321 49.5634 15.4021 49.7906 15.2126C49.8939 15.3263 48.8507 16.482 46.8263 16.9083C48.6648 16.5105 50.2348 15.2599 50.555 15.2978C50.6479 15.3168 50.6272 16.5199 46.4131 17.562C49.3258 16.861 51.0197 15.5726 50.9991 15.7147C51.0197 15.7431 50.7099 16.7283 48.1587 17.4957C48.8714 17.3441 50.8029 16.2641 50.7822 16.4726C50.8442 16.5578 48.9127 18.8314 45.4216 18.0925C48.2104 18.7557 50.0178 17.1546 50.2761 17.1831C50.3277 17.1925 49.7596 18.5851 46.2479 18.6704C47.9315 18.5094 47.446 18.6609 47.446 18.6609C47.446 18.6609 46.4544 19.3714 45.2563 18.8883C46.1962 19.1252 46.2995 19.1346 46.3202 19.2104C46.2582 19.3051 45.4835 19.4472 44.7399 19.0777C45.3389 19.3051 45.876 19.343 45.8863 19.4283C45.876 19.4567 45.4939 19.6557 45.1531 19.5136C44.8122 19.3714 41.6722 17.5999 41.6722 17.5999L47.0226 16.2547L47.2188 16.321Z" fill="#FFA654" stroke="#2C2929" stroke-width="0.0613415" stroke-linecap="round" stroke-linejoin="round"/>
<path d="M40.9289 21.113C40.4584 21.113 40.4454 21.497 40.4454 21.497C40.4454 21.497 40.4066 21.5247 40.4325 21.7108C40.5102 21.5841 40.549 21.5445 40.549 21.5445C40.6009 21.5524 40.8167 21.6118 41.1577 21.3664C40.8468 21.6633 41.0325 21.7741 41.0325 21.7741C41.0325 21.7741 40.9591 22.0077 41.1965 22.0552C41.1231 21.9602 41.1663 21.8771 41.1663 21.8771C41.1663 21.8771 41.4987 21.8454 41.4771 21.4733C41.4901 21.8097 41.6886 21.8929 41.6886 21.8929C41.6886 21.8929 41.6886 22.0789 41.9044 22.0948C41.7879 21.9998 41.8137 21.8533 41.8137 21.8533C41.8137 21.8533 42.0943 21.6672 41.8569 21.3505C41.9994 21.2752 42.1159 21.0655 42.1159 21.0655C42.1159 21.0655 41.9217 20.9902 41.831 20.9269C41.7878 20.8437 41.8267 20.3884 41.8267 20.3884L41.7102 19.7985L41.3778 20.7171C41.3907 20.5864 41.3994 21.113 40.9289 21.113Z" fill="#FFA654" stroke="#2C2929" stroke-width="0.0613415" stroke-linecap="round" stroke-linejoin="round"/>
<path d="M43.2526 19.7882C43.2629 19.7977 43.6038 20.1483 43.9343 20.1293C44.0582 20.0346 43.6761 19.8261 43.6761 19.7788C43.8103 19.8925 44.3784 20.3377 44.7399 20.1767C44.8845 19.9872 44.4817 20.0156 44.0376 19.504C44.3474 19.6935 45.1221 20.1103 45.4836 19.9493C45.6386 19.7977 44.6779 19.324 44.3577 18.9546L43.5315 18.5662L42.4056 19.4093L43.2526 19.7882Z" fill="#FFA654" stroke="#2C2929" stroke-width="0.0613415" stroke-linecap="round" stroke-linejoin="round"/>
<path d="M41.9822 16.9083C41.9822 16.9083 42.3643 16.6999 43.893 16.8041C44.0583 16.8231 44.9362 16.5294 45.2151 16.4441C45.6592 16.3684 47.0742 16.0842 47.4564 15.8189C47.7249 15.7905 47.384 16.2736 47.0433 16.3873C46.6817 16.5389 45.37 16.9557 44.9052 16.8989C45.4629 16.9083 45.1531 17.3252 44.2235 17.1262C44.6676 17.3536 44.5024 17.3915 44.5024 17.3915C44.5024 17.3915 43.7174 17.4294 43.5108 17.2683C44.0376 17.4483 43.8207 17.5146 43.8207 17.5146C43.8207 17.5146 43.2836 17.562 43.0357 17.4578C43.4178 17.562 43.2216 17.6283 43.2216 17.6283C43.2216 17.6283 42.9118 17.6757 42.6535 17.5904C42.3953 17.5052 42.0028 16.9083 41.9822 16.9083Z" fill="#FFA654" stroke="#2C2929" stroke-width="0.0613415" stroke-linecap="round" stroke-linejoin="round"/>
<path d="M42.5951 19.9846L42.6513 20.911C42.6513 20.911 42.6211 20.9586 42.5951 20.9863C42.5692 21.014 41.8786 20.8873 41.9736 21.3703C41.9736 21.5683 41.9779 21.6197 42.1247 21.7306C42.0858 21.5999 42.0988 21.5089 42.0988 21.5089C42.0988 21.5089 42.293 21.6158 42.4829 21.3228C42.3534 21.6118 42.444 21.7147 42.4743 21.7227C42.5045 21.7742 42.4225 22.0077 42.6815 22.0037C42.5822 21.9166 42.6297 21.7899 42.6297 21.7899C42.6297 21.7899 42.9016 21.7504 42.8067 21.299C42.906 21.208 42.9448 21.2951 42.9448 21.2951C42.9448 21.2951 42.975 21.5643 43.2124 21.5089C43.3204 21.5643 43.1952 21.7108 43.1952 21.7108C43.1952 21.7108 43.3678 21.7147 43.4196 21.5801C43.4714 21.4455 43.5318 21.204 43.2469 21.105C43.2124 21.01 43.3592 21.0021 43.3592 21.0021C43.3592 21.0021 43.5405 21.0575 43.5922 21.1407C43.6441 21.2238 43.6268 20.9229 43.4023 20.8912C43.1261 20.8833 43.1088 20.8319 43.1088 20.82C43.1088 20.8081 43.0614 20.147 43.0398 19.9569L42.5951 19.9846Z" fill="#FFA654" stroke="#2C2929" stroke-width="0.0613415" stroke-linecap="round" stroke-linejoin="round"/>
<path d="M43.5559 20.7741C43.5593 20.7317 43.0846 20.1455 43.205 20.0697C43.3254 20.0924 43.5228 20.3591 43.6827 20.2725C43.6342 20.1686 43.4914 20.2271 43.3291 19.9611C43.167 19.6603 43.1433 19.2088 42.5752 18.7163C42.943 19.2375 43.7773 19.543 43.8126 19.391C43.8479 19.239 43.078 18.6644 43.1174 18.5259C43.2705 18.8103 44.0436 19.444 44.6133 19.3916C44.6523 19.2695 44.1468 19.0233 44.0167 18.7933C43.6528 18.5691 42.6791 17.7993 42.6596 17.6207C42.3052 17.1467 42.084 17.0033 41.981 16.9487C41.9412 16.9057 41.9312 16.8646 41.9234 16.8385C41.7035 16.3628 41.9948 16.2084 42.1653 16.1856C42.3057 16.1713 42.3464 16.1905 42.4474 16.1457C42.3278 16.1028 42.2083 16.0626 42.0888 16.0197C42.2447 16.1246 42.6429 16.0323 42.5566 16.3344C42.7311 16.2734 43.1026 15.8681 42.1355 15.7766C41.8208 15.4454 40.5268 15.2551 40.2029 16.7005C40.2287 16.7207 40.2423 16.7374 40.3246 16.7938C39.916 16.6121 38.8136 16.472 38.4164 16.4131C37.3432 16.1291 36.2287 15.4448 36.1216 15.5289C35.9783 15.5873 36.77 16.2628 36.7288 16.2778C36.0424 15.9107 35.4153 15.6506 34.8317 15.4139C34.4212 15.2731 34.0101 14.9455 33.9647 15.0078C33.8136 15.2949 34.6229 16.0164 34.7734 16.1013C34.924 16.1825 36.1078 16.6862 36.0904 16.6925C34.3072 15.9501 34.0083 15.8156 33.9188 15.73C33.7616 15.6975 33.3788 15.2234 33.2721 15.2539C33.2137 15.3065 33.3308 16.0556 34.1817 16.3919C34.3204 16.4846 36.0056 17.0391 35.9891 17.0826C35.985 17.0935 34.059 16.3535 33.9841 16.327C33.6128 16.1935 33.1571 15.7253 33.072 15.778C32.9907 15.8257 33.282 16.3324 33.6572 16.4914C33.8539 16.571 34.6084 16.9137 35.2881 17.1318C35.3314 17.1462 34.0663 16.6918 33.458 16.4587C33.1822 16.3183 33.0523 16.1433 33.0103 16.1809C32.9482 16.2186 33.1107 16.9671 35.0654 17.3895C35.1169 17.4096 35.7535 17.2511 35.722 17.2722C35.7141 17.2774 35.0899 17.4021 35.0291 17.3978C34.975 17.3902 34.633 17.4349 34.6269 17.4512C34.6062 17.5018 34.7508 17.7698 35.76 17.714C35.889 17.7068 36.5892 17.4801 36.5304 17.5289C36.501 17.5533 35.5769 17.8287 35.5066 17.8341C35.4454 17.842 35.1208 17.8731 35.1088 17.9048C35.0942 17.948 35.3491 18.1388 35.8911 18.1693C36.371 18.1927 37.2828 17.9004 37.2646 17.9193C37.2463 17.9383 36.3855 18.2088 36.363 18.2253C36.3318 18.2415 36.0166 18.2571 36.0056 18.2793C35.9799 18.3346 36.4602 18.7466 37.8809 18.3069C37.7382 18.4837 37.0496 18.6046 37.0505 18.6365C37.0473 18.6596 37.2023 18.7968 37.443 18.846C37.5634 18.8705 37.7282 18.8655 37.8787 18.8437C38.1491 18.794 38.4341 18.6959 38.7961 18.389C38.8394 18.4853 37.8917 18.9252 37.9362 18.9672C38.1417 19.142 38.8243 18.9446 38.869 18.9217C38.9138 18.8988 40.1835 18.2421 40.1791 18.1661C40.1989 18.2635 38.5421 19.0891 38.56 19.123C38.6663 19.2787 39.2323 19.1148 39.2593 19.1005C39.2863 19.0863 39.9816 18.7418 40.0007 18.7316C40.0197 18.7214 39.1835 19.1805 39.258 19.2503C39.222 19.5484 40.5639 19.0446 40.669 18.9819C40.7216 18.9505 40.0244 19.263 40.0226 19.4115C40.2471 19.7596 40.9659 19.6492 41.0768 19.5726C41.1323 19.5343 41.0116 19.8313 41.0505 19.8043C41.064 19.7987 41.2068 19.6438 41.2617 19.5317C41.2442 19.629 41.1654 19.7822 41.1194 19.958C41.0734 20.1339 41.0602 20.3323 40.997 20.543C40.9825 20.6356 41.44 20.362 41.3735 19.708C41.4127 20.0482 41.2291 20.6843 41.2771 20.7174C41.3732 20.7835 41.6389 20.4006 41.6658 20.1416C41.7447 20.2724 41.9102 20.5455 42.0527 20.6083C42.0372 20.4104 42.0554 20.4195 41.9913 20.225C42.0283 19.9668 42.0334 19.6094 42.0424 19.2059C42.4295 19.8861 42.5839 20.1733 42.4757 20.6941C42.5909 20.7381 42.7747 20.3306 42.7599 20.1208C42.9077 20.7037 43.5457 20.7911 43.5559 20.7741Z" fill="#FFA654" stroke="#2C2929" stroke-width="0.0613415" stroke-linecap="round" stroke-linejoin="round"/>
<path d="M37.1083 16.456C37.1083 16.456 36.8448 16.6386 36.517 16.6278C36.5989 16.9286 37.2781 16.6977 37.2781 16.6977C37.2781 16.6977 36.9502 17.0306 36.716 17.0843C36.8566 17.1917 37.4479 17.1541 37.5475 17.1004C37.647 17.0467 37.8226 16.8373 37.8226 16.8373C37.8226 16.8373 37.2137 17.4817 37.1259 17.4763C37.1142 17.5515 37.7641 17.5247 37.8988 17.4119C38.0334 17.2991 38.373 17.1326 38.373 17.1326C38.373 17.1326 37.483 17.7019 37.442 17.7019C37.7758 17.7824 38.4433 17.6052 38.8707 17.3636C38.2383 17.7502 38.1798 17.82 37.8578 17.9489C38.1447 18.008 38.291 18.1852 39.263 17.7985C39.8192 17.5569 40.1353 17.1165 40.1353 17.1165C39.7899 17.5408 39.2454 17.9006 38.6424 18.255C38.6072 18.3194 39.2864 18.5826 40.1529 17.7556" fill="#FFA654"/>
<path d="M37.1083 16.456C37.1083 16.456 36.8448 16.6386 36.517 16.6278C36.5989 16.9286 37.2781 16.6977 37.2781 16.6977C37.2781 16.6977 36.9502 17.0306 36.716 17.0843C36.8566 17.1917 37.4479 17.1541 37.5475 17.1004C37.647 17.0467 37.8226 16.8373 37.8226 16.8373C37.8226 16.8373 37.2137 17.4817 37.1259 17.4763C37.1142 17.5515 37.7641 17.5247 37.8988 17.4119C38.0334 17.2991 38.373 17.1326 38.373 17.1326C38.373 17.1326 37.483 17.7019 37.442 17.7019C37.7758 17.7824 38.4433 17.6052 38.8707 17.3636C38.2383 17.7502 38.1798 17.82 37.8578 17.9489C38.1447 18.008 38.291 18.1852 39.263 17.7985C39.8192 17.5569 40.1353 17.1165 40.1353 17.1165C39.7899 17.5408 39.2454 17.9006 38.6424 18.255C38.6072 18.3194 39.2864 18.5826 40.1529 17.7556" stroke="#2C2929" stroke-width="0.0613415" stroke-linecap="round" stroke-linejoin="round"/>
<path d="M41.8157 18.2496C41.8157 18.2496 41.8742 18.502 42.1084 18.6954C42.3426 18.8887 42.3602 19.0766 42.3602 19.0766" fill="#FFA654"/>
<path d="M41.8157 18.2496C41.8157 18.2496 41.8742 18.502 42.1084 18.6954C42.3426 18.8887 42.3602 19.0766 42.3602 19.0766" stroke="#2C2929" stroke-width="0.0613415" stroke-linecap="round" stroke-linejoin="round"/>
<path d="M41.6987 16.6064C41.6987 16.6064 41.7807 16.8319 42.0207 16.9769C42.2667 17.1219 42.6356 17.5784 42.6648 17.6589C42.6931 17.7564 42.8346 18.4591 42.8229 18.5343" fill="#FFA654"/>
<path d="M41.6987 16.6064C41.6987 16.6064 41.7807 16.8319 42.0207 16.9769C42.2667 17.1219 42.6356 17.5784 42.6648 17.6589C42.6931 17.7564 42.8346 18.4591 42.8229 18.5343" stroke="#2C2929" stroke-width="0.0613415" stroke-linecap="round" stroke-linejoin="round"/>
<path d="M40.2057 16.9553C40.2233 17.0412 39.8602 17.4762 40.3579 17.9864C39.9071 18.4912 39.9071 18.5556 39.9071 18.5556C39.9071 18.5556 40.1588 18.6845 40.6097 18.3301C41.3532 19.1678 41.1055 19.5512 41.1055 19.5512" fill="#FFA654"/>
<path d="M40.2057 16.9553C40.2233 17.0412 39.8602 17.4762 40.3579 17.9864C39.9071 18.4912 39.9071 18.5556 39.9071 18.5556C39.9071 18.5556 40.1588 18.6845 40.6097 18.3301C41.3532 19.1678 41.1055 19.5512 41.1055 19.5512" stroke="#2C2929" stroke-width="0.0613415" stroke-linecap="round" stroke-linejoin="round"/>
<path d="M41.0461 18.9599C41.0461 18.9599 40.9776 18.8699 41.0997 18.5338C41.2097 18.6553 41.332 18.6812 41.3856 18.7304C41.4391 18.7796 42.0006 18.8541 42.0363 19.1983" fill="#FFA654"/>
<path d="M41.0461 18.9599C41.0461 18.9599 40.9776 18.8699 41.0997 18.5338C41.2097 18.6553 41.332 18.6812 41.3856 18.7304C41.4391 18.7796 42.0006 18.8541 42.0363 19.1983" stroke="#2C2929" stroke-width="0.0613415" stroke-linecap="round" stroke-linejoin="round"/>
<path d="M41.7062 15.8055C41.7062 15.7803 41.5931 15.5578 41.1714 15.8359C41.3974 15.8485 41.6207 15.9673 41.7062 15.8055Z" fill="#FFA654" stroke="#2C2929" stroke-width="0.0613415" stroke-linecap="round" stroke-linejoin="round"/>
<path d="M45.7315 16.823C45.7521 16.8325 46.9916 17.0788 47.4047 16.9556C46.878 17.5998 45.8244 17.164 45.8244 17.164C46.3408 17.3061 46.3615 17.2967 46.5268 17.4293C46.5784 17.5525 45.5765 17.4956 45.246 17.3251C46.1653 17.5904 46.1859 17.5714 46.2169 17.6756C46.2583 17.8177 44.7089 17.6377 44.5746 17.4482C44.9878 17.7419 45.215 17.7988 45.4423 17.9314C45.1634 18.0451 44.647 18.1587 43.6967 17.543C44.9464 18.5851 46.0723 18.5187 46.2479 18.7082C45.8141 19.2956 44.1305 18.3577 43.3558 17.884C42.5812 17.4104 45.0498 19.0303 45.277 19.0019C45.1634 19.1629 44.3474 19.0208 44.2958 18.9451" fill="#FFA654"/>
<path d="M45.7315 16.823C45.7521 16.8325 46.9916 17.0788 47.4047 16.9556C46.878 17.5998 45.8244 17.164 45.8244 17.164C46.3408 17.3061 46.3615 17.2967 46.5268 17.4293C46.5784 17.5525 45.5765 17.4956 45.246 17.3251C46.1653 17.5904 46.1859 17.5714 46.2169 17.6756C46.2583 17.8177 44.7089 17.6377 44.5746 17.4482C44.9878 17.7419 45.215 17.7988 45.4423 17.9314C45.1634 18.0451 44.647 18.1587 43.6967 17.543C44.9464 18.5851 46.0723 18.5187 46.2479 18.7082C45.8141 19.2956 44.1305 18.3577 43.3558 17.884C42.5812 17.4104 45.0498 19.0303 45.277 19.0019C45.1634 19.1629 44.3474 19.0208 44.2958 18.9451" stroke="#2C2929" stroke-width="0.0613415" stroke-linecap="round" stroke-linejoin="round"/>
<path d="M46.0516 17.9125C45.907 17.9315 45.4732 17.9315 45.4113 17.922Z" fill="#FFA654"/>
<path d="M46.0516 17.9125C45.907 17.9315 45.4732 17.9315 45.4113 17.922" stroke="#2C2929" stroke-width="0.0613415" stroke-linecap="round" stroke-linejoin="round"/>
<path d="M36.7454 16.2841C36.7454 16.2841 37.688 16.7405 38.0861 16.7083C37.9808 16.7996 37.8226 16.8372 37.8226 16.8372C37.9222 16.8748 38.1974 17.009 38.6131 16.9231C38.5136 17.0144 38.3847 17.1164 38.3847 17.1164C38.3847 17.1164 38.7419 17.2399 39.1459 17.0466C39.023 17.1862 38.9527 17.2883 38.9527 17.2883L39.2337 17.3044" fill="#FFA654"/>
<path d="M36.7454 16.2841C36.7454 16.2841 37.688 16.7405 38.0861 16.7083C37.9808 16.7996 37.8226 16.8372 37.8226 16.8372C37.9222 16.8748 38.1974 17.009 38.6131 16.9231C38.5136 17.0144 38.3847 17.1164 38.3847 17.1164C38.3847 17.1164 38.7419 17.2399 39.1459 17.0466C39.023 17.1862 38.9527 17.2883 38.9527 17.2883L39.2337 17.3044" stroke="#2C2929" stroke-width="0.0613415" stroke-linecap="round" stroke-linejoin="round"/>
<rect x="33" y="25" width="6" height="20" fill="#EE5757"/>
<rect x="39" y="25" width="6" height="20" fill="#2C2929"/>
<rect x="45" y="25" width="6" height="20" fill="#FFA654"/>
</g>
</svg>
