<svg width="54" height="48" viewBox="0 0 54 48" fill="none" xmlns="http://www.w3.org/2000/svg">
<mask id="mask0_1_31588" style="mask-type:alpha" maskUnits="userSpaceOnUse" x="3" y="6" width="48" height="36">
<path d="M3.56934 15.1356C4.16681 10.4125 8.0415 7.00193 12.7861 6.60887C16.6412 6.28949 21.6196 6 27 6C32.3804 6 37.3588 6.28949 41.2139 6.60887C45.9585 7.00193 49.8332 10.4125 50.4307 15.1356C50.752 17.6759 51 20.704 51 24C51 27.296 50.752 30.3241 50.4307 32.8644C49.8332 37.5875 45.9585 40.9981 41.2139 41.3911C37.3588 41.7105 32.3804 42 27 42C21.6196 42 16.6412 41.7105 12.7861 41.3911C8.0415 40.9981 4.16681 37.5875 3.56934 32.8644C3.248 30.3241 3 27.296 3 24C3 20.704 3.248 17.6759 3.56934 15.1356Z" fill="#00D0BF"/>
</mask>
<g mask="url(#mask0_1_31588)">
<rect x="3" y="6" width="48" height="36" fill="#1C6864"/>
<rect x="3" y="32" width="48" height="5" fill="#FCD95E"/>
<rect x="3" y="27" width="48" height="5" fill="#EE5757"/>
<rect x="3" y="21" width="48" height="6" fill="#2C2929"/>
<rect x="3" y="16" width="48" height="5" fill="#EE5757"/>
<rect x="3" y="11" width="48" height="5" fill="#FCD95E"/>
<path d="M2 4L25 24L2 44V4Z" fill="#F5F5F5" stroke="#2C2929"/>
<path d="M11.2195 17.7208L15.0634 29.551L5 22.2396H17.439L7.37562 29.551L11.2195 17.7208Z" fill="#D40000"/>
<path d="M9.57331 28.065L10.2526 27.9415L11.5123 27.8921L11.9755 27.9353L13.0129 28.1082L13.0932 28.0033V27.2561L13.2106 26.6138L13.4267 25.9593L13.6489 25.4405L13.9392 24.9033L14.4147 25.0207H14.5382L14.5506 24.928L13.5563 24.0758L12.5127 23.2792L11.0121 22.1553L10.8763 22.1183L10.7096 20.945L10.5922 20.5869L10.4379 20.451L10.1352 20.3522L9.80181 20.3646L9.65362 20.451L9.33248 20.5251L9.16577 20.5498L9.0546 20.6795L9.04226 20.8462L9.50539 20.8586L9.62275 20.908L9.61037 20.9573L9.34487 20.9944L9.22136 21.0315L9.36954 21.1426L9.51777 21.1982L9.71535 21.2723L9.75241 21.402L9.77089 23.199L9.66596 23.4769L9.6289 23.9956L9.78328 24.6193L9.39422 25.0577L9.17811 25.4529L9.14105 25.6999L9.02373 25.9407L9.00525 26.0951L9.08551 26.2557L9.38188 27.2437L9.53626 28.0526L9.57331 28.065Z" fill="#FFCC00"/>
<path d="M9.93276 20.3203C9.81391 20.3202 9.75685 20.3407 9.63907 20.4047C9.53279 20.4625 9.40665 20.5009 9.3207 20.5009C9.14595 20.5009 9.00488 20.6263 9.00488 20.7829V20.8869L9.25962 20.879C9.98968 20.9035 9.32315 20.9708 9.27001 20.9805C9.08875 21.0133 9.31021 21.1612 9.52341 21.2326C9.75283 21.3094 9.74303 21.2649 9.74303 22.2709C9.74303 23.0969 9.73587 23.2138 9.67284 23.4041C9.58034 23.6836 9.58034 24.0989 9.67284 24.3723C9.71027 24.4827 9.74109 24.5858 9.74174 24.601C9.74238 24.6163 9.63371 24.7514 9.50003 24.9012C9.2586 25.1719 9.11014 25.4623 9.11014 25.6653C9.11014 25.7121 9.07863 25.791 9.03995 25.8421C8.95077 25.9599 8.94823 26.1628 9.03478 26.2398C9.12456 26.3196 9.49513 27.7502 9.4961 28.0201C9.49647 28.1186 9.51408 28.118 10.077 28.0046C10.5315 27.913 11.6059 27.8936 12.1498 27.9669C12.4011 28.0008 12.6933 28.0501 12.7996 28.0773C13.1344 28.1633 13.1159 28.181 13.1167 27.7771C13.1179 27.1527 13.2317 26.5589 13.4728 25.924C13.5824 25.6351 13.8707 25.0485 13.9471 24.9584C13.9547 24.9495 14.0774 24.9722 14.22 25.0091C14.5117 25.0846 14.5917 25.0705 14.5917 24.9441C14.5917 24.8717 14.294 24.6235 12.836 23.4821C11.8536 22.713 11.0478 22.1072 11.0075 22.1072C10.9679 22.1072 10.9278 22.0868 10.9191 22.0617C10.9105 22.0366 10.8641 21.7393 10.8152 21.4002C10.7662 21.0611 10.7001 20.7264 10.6683 20.6569C10.5755 20.4536 10.3835 20.3459 10.077 20.3255C10.029 20.3221 9.98089 20.3204 9.93276 20.3203ZM9.94315 20.393C9.98141 20.3926 10.0245 20.3942 10.077 20.397C10.5373 20.4211 10.6244 20.5481 10.745 21.3664C10.7918 21.684 10.8304 21.9777 10.8308 22.0201C10.8313 22.0752 10.7673 22.1403 10.6059 22.2488C10.3683 22.4086 10.0616 22.6999 9.91196 22.9064L9.82232 23.0286L9.80541 22.7413C9.79557 22.5835 9.79557 22.215 9.80541 21.9226C9.82579 21.3183 9.80994 21.2586 9.6118 21.1923C9.44999 21.1381 9.23882 21.0798 9.3012 21.0428C9.36927 21.0024 9.43225 21.0313 9.60524 20.9883C9.66656 20.973 9.66323 20.9756 9.65334 20.9232C9.6356 20.829 9.54356 20.7857 9.283 20.7998C9.07835 20.8109 9.0521 20.8055 9.06597 20.7504C9.09401 20.639 9.20981 20.5658 9.38174 20.549C9.47434 20.5399 9.60936 20.4989 9.68324 20.458C9.76503 20.4128 9.82847 20.3944 9.94315 20.393ZM10.9737 22.1864C10.9834 22.1863 10.9925 22.1864 11.001 22.1877C11.119 22.2062 14.5215 24.8665 14.5215 24.9402C14.5215 24.9693 14.4942 24.9927 14.4605 24.9922C14.4266 24.9917 13.5606 24.7464 12.5371 24.4477C10.9014 23.9703 10.6662 23.8923 10.5955 23.807C10.4952 23.6857 10.4919 23.5006 10.5864 23.3755C10.6251 23.3245 10.6566 23.2617 10.6566 23.2352C10.6566 23.1543 10.4832 23.3605 10.45 23.4808C10.4112 23.6214 10.4835 23.8568 10.5891 23.9331C10.6308 23.9632 10.9426 24.0703 11.2817 24.1709C11.8606 24.3424 11.8995 24.3609 11.9302 24.4568C12.004 24.6869 11.7609 24.9539 11.4091 25.0299C11.2956 25.0544 11.1514 25.1211 11.0517 25.1962C10.6556 25.4947 10.3797 25.671 10.1485 25.7706C10.0126 25.8292 9.88119 25.8954 9.85739 25.9188C9.8336 25.9422 9.7989 26.0486 9.77944 26.1553C9.73809 26.3818 9.72058 26.4165 9.65339 26.4165C9.61448 26.4165 9.61097 26.3962 9.63777 26.323C9.68721 26.1879 9.68181 26.0149 9.62738 26.0149C9.59859 26.0149 9.58062 26.063 9.58062 26.1436C9.58062 26.2139 9.56075 26.2913 9.5351 26.3164C9.49657 26.3542 9.49167 26.3263 9.50784 26.1527C9.51851 26.0372 9.51385 25.9422 9.49744 25.9422C9.46588 25.9422 9.40397 26.1172 9.38174 26.271C9.36876 26.3611 9.36797 26.3604 9.33886 26.2541C9.31617 26.171 9.32717 26.1153 9.38567 26.0097C9.42735 25.9344 9.46237 25.8249 9.46237 25.7654C9.46237 25.6759 9.52831 25.5893 9.85222 25.2612C10.0672 25.0434 10.3175 24.7731 10.4084 24.6608C10.5656 24.4664 10.5739 24.4458 10.5683 24.2488C10.565 24.135 10.5518 24.0328 10.5396 24.0201C10.4986 23.9774 10.4439 24.1975 10.4656 24.3177C10.4852 24.4265 10.465 24.4635 10.2382 24.731C10.1013 24.8924 9.86876 25.1359 9.72224 25.2729C9.45235 25.5253 9.35577 25.6617 9.35577 25.7901C9.35577 25.8291 9.32551 25.9322 9.28817 26.0188C9.25084 26.1055 9.23023 26.1941 9.24141 26.2151C9.25389 26.2385 9.24502 26.237 9.21933 26.2125C9.18888 26.1834 9.18643 26.1296 9.21152 26.0136C9.23046 25.9262 9.23822 25.8417 9.22843 25.8252C9.19072 25.7618 9.14655 25.8432 9.12446 26.0162C9.1118 26.1155 9.08805 26.1882 9.07119 26.1774C9.02036 26.1447 9.03639 25.9641 9.09845 25.872C9.13047 25.8245 9.17039 25.7114 9.18684 25.6199C9.23296 25.3631 9.3433 25.1593 9.58838 24.8817C9.71193 24.7418 9.81322 24.6221 9.81322 24.6153C9.81322 24.6085 9.78027 24.5052 9.74044 24.3866C9.64831 24.1122 9.64221 23.6945 9.72612 23.4405C9.81461 23.1729 9.99689 22.9079 10.2849 22.6283C10.5638 22.3577 10.8287 22.1888 10.9737 22.1864ZM12.0147 24.4165C12.0232 24.4156 12.0318 24.4159 12.0401 24.4175C12.0483 24.419 12.056 24.4217 12.0625 24.4254C12.0691 24.4291 12.0743 24.4337 12.0779 24.4389C12.0816 24.4441 12.0835 24.4498 12.0835 24.4555C12.0817 24.4651 12.0747 24.4739 12.0638 24.4803C12.0529 24.4867 12.0389 24.4903 12.0244 24.4903C12.0099 24.4903 11.9958 24.4867 11.9849 24.4803C11.9741 24.4739 11.9671 24.4651 11.9652 24.4555C11.9653 24.4461 11.9703 24.4371 11.9793 24.43C11.9884 24.4228 12.0009 24.4181 12.0147 24.4165ZM12.1862 24.4386C12.1866 24.4386 12.1871 24.4386 12.1875 24.4386C12.1962 24.4375 12.2052 24.4378 12.2138 24.4393C12.2223 24.4409 12.2303 24.4437 12.237 24.4475C12.2437 24.4514 12.2491 24.4562 12.2527 24.4616C12.2562 24.4671 12.258 24.4729 12.2577 24.4788C12.2577 24.4894 12.2514 24.4996 12.2402 24.507C12.229 24.5145 12.2138 24.5187 12.1979 24.5187C12.182 24.5187 12.1668 24.5145 12.1556 24.507C12.1444 24.4996 12.1381 24.4894 12.1381 24.4788C12.1376 24.4694 12.1422 24.4602 12.151 24.4528C12.1599 24.4454 12.1723 24.4404 12.1862 24.4386ZM12.3682 24.4724C12.3703 24.4723 12.3725 24.4723 12.3746 24.4724C12.3829 24.472 12.3911 24.4728 12.3989 24.4746C12.4066 24.4765 12.4137 24.4794 12.4197 24.4832C12.4257 24.487 12.4304 24.4915 12.4336 24.4966C12.4368 24.5017 12.4384 24.5071 12.4383 24.5126C12.4365 24.5222 12.4294 24.531 12.4186 24.5374C12.4077 24.5438 12.3937 24.5473 12.3792 24.5473C12.3647 24.5473 12.3507 24.5438 12.3398 24.5374C12.3289 24.531 12.3219 24.5222 12.3201 24.5126C12.3196 24.5032 12.3242 24.494 12.333 24.4866C12.3418 24.4792 12.3543 24.4742 12.3681 24.4724H12.3682ZM12.5319 24.5061C12.5345 24.506 12.5371 24.506 12.5397 24.5061C12.548 24.5057 12.5562 24.5065 12.564 24.5084C12.5718 24.5102 12.5789 24.5132 12.5848 24.517C12.5908 24.5208 12.5956 24.5253 12.5987 24.5304C12.6019 24.5355 12.6035 24.5409 12.6034 24.5464C12.6029 24.5568 12.5964 24.5667 12.5853 24.5739C12.5741 24.5812 12.5592 24.5852 12.5436 24.5852C12.528 24.5852 12.5131 24.5812 12.5019 24.5739C12.4907 24.5667 12.4843 24.5568 12.4838 24.5464C12.4834 24.537 12.4879 24.5278 12.4967 24.5204C12.5055 24.513 12.518 24.508 12.5319 24.5062V24.5061ZM12.0952 24.5464C12.0957 24.5464 12.0961 24.5464 12.0965 24.5464C12.1053 24.5454 12.1142 24.5456 12.1228 24.5472C12.1314 24.5487 12.1393 24.5516 12.146 24.5554C12.1528 24.5593 12.1581 24.5641 12.1617 24.5695C12.1653 24.5749 12.167 24.5808 12.1668 24.5867C12.1668 24.5973 12.1605 24.6074 12.1492 24.6149C12.138 24.6224 12.1228 24.6266 12.107 24.6266C12.0911 24.6266 12.0759 24.6224 12.0647 24.6149C12.0535 24.6074 12.0472 24.5973 12.0472 24.5867C12.0467 24.5773 12.0513 24.5681 12.0601 24.5607C12.0689 24.5533 12.0814 24.5483 12.0952 24.5464ZM12.2668 24.575C12.2754 24.574 12.2842 24.5742 12.2926 24.5757C12.301 24.5772 12.3088 24.5799 12.3155 24.5836C12.3222 24.5873 12.3276 24.592 12.3313 24.5972C12.335 24.6025 12.337 24.6082 12.337 24.614C12.337 24.6246 12.3307 24.6347 12.3195 24.6422C12.3083 24.6497 12.293 24.6539 12.2772 24.6539C12.2613 24.6539 12.2461 24.6497 12.2349 24.6422C12.2237 24.6347 12.2174 24.6246 12.2174 24.614C12.2175 24.6047 12.2224 24.5956 12.2315 24.5885C12.2405 24.5814 12.253 24.5766 12.2668 24.575ZM12.6267 24.5893C12.6353 24.5883 12.6441 24.5885 12.6525 24.59C12.661 24.5915 12.6688 24.5942 12.6755 24.5979C12.6822 24.6016 12.6876 24.6062 12.6913 24.6115C12.695 24.6167 12.6969 24.6225 12.697 24.6283C12.697 24.6389 12.6907 24.649 12.6795 24.6565C12.6682 24.664 12.653 24.6682 12.6372 24.6682C12.6213 24.6682 12.6061 24.664 12.5949 24.6565C12.5837 24.649 12.5774 24.6389 12.5774 24.6283C12.5775 24.619 12.5824 24.6099 12.5915 24.6028C12.6005 24.5957 12.613 24.5909 12.6268 24.5893H12.6267ZM12.437 24.5919C12.4456 24.5909 12.4544 24.5911 12.4628 24.5926C12.4712 24.5941 12.4791 24.5968 12.4858 24.6005C12.4925 24.6042 12.4978 24.6089 12.5015 24.6141C12.5052 24.6194 12.5072 24.6251 12.5072 24.6309C12.5068 24.6413 12.5003 24.6512 12.4891 24.6584C12.478 24.6656 12.463 24.6697 12.4474 24.6697C12.4319 24.6697 12.4169 24.6656 12.4057 24.6584C12.3946 24.6512 12.3881 24.6413 12.3877 24.6309C12.3877 24.6216 12.3927 24.6126 12.4017 24.6054C12.4107 24.5983 12.4232 24.5935 12.437 24.5919ZM12.7879 24.6322C12.7932 24.6244 13.0426 24.6878 13.3415 24.7738L13.8848 24.9298L13.7795 25.1169C13.7216 25.2195 13.6485 25.3571 13.617 25.4223C13.5533 25.5549 13.5306 25.5572 13.2038 25.4821C12.8423 25.3991 12.2709 25.3202 11.6898 25.2729L11.131 25.2274L11.3415 25.1481C11.4575 25.1042 11.6242 25.0289 11.7119 24.9805C11.8495 24.9046 11.9049 24.8948 12.116 24.9103C12.4294 24.9334 12.6406 24.8755 12.719 24.7453C12.7416 24.7074 12.7646 24.6697 12.7879 24.6322ZM12.1745 24.6712C12.1749 24.6712 12.1754 24.6712 12.1758 24.6712C12.1845 24.6702 12.1935 24.6704 12.2021 24.672C12.2106 24.6735 12.2186 24.6763 12.2253 24.6802C12.232 24.684 12.2374 24.6888 12.2409 24.6943C12.2445 24.6997 12.2463 24.7055 12.246 24.7115C12.246 24.722 12.2397 24.7322 12.2285 24.7397C12.2173 24.7471 12.2021 24.7513 12.1862 24.7513C12.1703 24.7513 12.1551 24.7471 12.1439 24.7397C12.1327 24.7322 12.1264 24.722 12.1264 24.7115C12.126 24.702 12.1306 24.6928 12.1394 24.6854C12.1482 24.6781 12.1606 24.673 12.1745 24.6712ZM12.5657 24.6712C12.5661 24.6712 12.5666 24.6712 12.567 24.6712C12.5757 24.6702 12.5847 24.6704 12.5933 24.672C12.6018 24.6735 12.6097 24.6763 12.6165 24.6802C12.6232 24.684 12.6285 24.6888 12.6321 24.6943C12.6357 24.6997 12.6374 24.7055 12.6372 24.7115C12.6372 24.722 12.6309 24.7322 12.6197 24.7397C12.6085 24.7471 12.5933 24.7513 12.5774 24.7513C12.5615 24.7513 12.5463 24.7471 12.5351 24.7397C12.5239 24.7322 12.5176 24.722 12.5176 24.7115C12.5172 24.702 12.5217 24.6928 12.5305 24.6854C12.5393 24.6781 12.5518 24.673 12.5657 24.6712H12.5657ZM12.0043 24.6764C12.0069 24.6763 12.0095 24.6763 12.0121 24.6764C12.0203 24.676 12.0286 24.6768 12.0363 24.6786C12.0441 24.6805 12.0512 24.6834 12.0572 24.6872C12.0632 24.691 12.0679 24.6956 12.0711 24.7006C12.0743 24.7057 12.0759 24.7112 12.0758 24.7167C12.0758 24.7272 12.0695 24.7374 12.0583 24.7449C12.047 24.7523 12.0318 24.7566 12.016 24.7566C12.0001 24.7566 11.9849 24.7523 11.9737 24.7449C11.9625 24.7374 11.9562 24.7272 11.9562 24.7167C11.9557 24.7072 11.9603 24.698 11.9691 24.6906C11.9779 24.6833 11.9904 24.6782 12.0042 24.6764H12.0043ZM12.3746 24.6829C12.3832 24.6818 12.392 24.6821 12.4005 24.6835C12.4089 24.685 12.4167 24.6877 12.4234 24.6914C12.4301 24.6952 12.4355 24.6998 12.4392 24.7051C12.4429 24.7103 12.4448 24.7161 12.4448 24.7219C12.4444 24.7323 12.4379 24.7421 12.4267 24.7494C12.4156 24.7566 12.4006 24.7607 12.3851 24.7607C12.3695 24.7607 12.3545 24.7566 12.3434 24.7494C12.3322 24.7421 12.3257 24.7323 12.3253 24.7219C12.3253 24.7126 12.3303 24.7035 12.3393 24.6964C12.3484 24.6893 12.3609 24.6845 12.3746 24.6829V24.6829ZM11.9198 24.7648C11.9203 24.7648 11.9207 24.7648 11.9211 24.7648C11.9298 24.7639 11.9386 24.7642 11.947 24.7659C11.9554 24.7675 11.9631 24.7703 11.9697 24.7742C11.9763 24.778 11.9815 24.7828 11.985 24.7881C11.9885 24.7935 11.9902 24.7992 11.99 24.8051C11.9882 24.8147 11.9812 24.8235 11.9703 24.8299C11.9594 24.8363 11.9453 24.8399 11.9308 24.8399C11.9163 24.8399 11.9023 24.8363 11.8914 24.8299C11.8805 24.8235 11.8735 24.8147 11.8717 24.8051C11.8712 24.7956 11.8758 24.7864 11.8846 24.779C11.8934 24.7716 11.9059 24.7666 11.9198 24.7648H11.9198ZM12.0901 24.7674C12.0922 24.7673 12.0944 24.7673 12.0965 24.7674C12.1048 24.767 12.113 24.7677 12.1208 24.7696C12.1286 24.7715 12.1357 24.7744 12.1417 24.7782C12.1477 24.782 12.1524 24.7865 12.1556 24.7916C12.1588 24.7967 12.1604 24.8022 12.1602 24.8077C12.1584 24.8173 12.1514 24.8261 12.1405 24.8325C12.1296 24.8389 12.1156 24.8425 12.1011 24.8425C12.0866 24.8425 12.0725 24.8389 12.0617 24.8325C12.0508 24.8261 12.0438 24.8173 12.0419 24.8077C12.0415 24.7982 12.0461 24.789 12.0549 24.7816C12.0637 24.7742 12.0762 24.7692 12.0901 24.7674ZM12.272 24.7738C12.2805 24.7728 12.2894 24.773 12.2978 24.7745C12.3062 24.776 12.314 24.7787 12.3207 24.7824C12.3274 24.7861 12.3328 24.7908 12.3365 24.796C12.3402 24.8013 12.3422 24.807 12.3422 24.8128C12.3422 24.8234 12.3359 24.8335 12.3247 24.841C12.3135 24.8485 12.2983 24.8527 12.2824 24.8527C12.2666 24.8527 12.2513 24.8485 12.2401 24.841C12.2289 24.8335 12.2226 24.8234 12.2226 24.8128C12.2227 24.8035 12.2277 24.7945 12.2367 24.7874C12.2457 24.7803 12.2582 24.7755 12.272 24.7739V24.7738ZM12.4643 24.7791C12.4648 24.779 12.4652 24.779 12.4656 24.7791C12.4743 24.7781 12.4831 24.7785 12.4915 24.7801C12.4999 24.7818 12.5076 24.7846 12.5142 24.7884C12.5208 24.7923 12.526 24.7971 12.5295 24.8024C12.533 24.8077 12.5347 24.8135 12.5345 24.8193C12.5326 24.8289 12.5256 24.8377 12.5147 24.8441C12.5038 24.8505 12.4898 24.854 12.4753 24.854C12.4609 24.854 12.4469 24.8505 12.436 24.8441C12.4251 24.8377 12.4181 24.8289 12.4162 24.8193C12.4158 24.8099 12.4203 24.8007 12.4291 24.7933C12.4379 24.7859 12.4504 24.7809 12.4643 24.7791H12.4643ZM11.0569 25.3392C11.2947 25.3316 12.1249 25.3918 12.5189 25.4509C12.8657 25.503 13.4731 25.6158 13.4936 25.6316C13.4987 25.6355 13.4466 25.8017 13.3766 26.0007C13.3066 26.1995 13.2427 26.3852 13.235 26.4126C13.2243 26.4499 13.1817 26.4558 13.0634 26.4373C12.486 26.3473 10.8222 26.3554 10.1823 26.4516C9.81849 26.5063 9.76503 26.5023 9.79631 26.4256C9.81063 26.3905 9.84108 26.2804 9.86391 26.18L9.90549 25.9967L10.2915 25.7966C10.5036 25.6862 10.74 25.5453 10.8165 25.4834C10.8929 25.4215 10.9727 25.3601 10.9945 25.347C11.0013 25.3429 11.0229 25.3403 11.0569 25.3392H11.0569ZM9.18814 26.3255C9.20546 26.3255 9.24876 26.3455 9.29857 26.3775C9.36368 26.4193 9.44675 26.4538 9.48312 26.4542C9.66416 26.4564 9.76369 26.7115 9.91718 27.5679C9.93496 27.6673 9.95359 27.7664 9.97309 27.8655C9.98719 27.9349 9.96736 27.9504 9.81193 27.9851C9.61546 28.0289 9.56758 28.0321 9.56758 28.0058C9.56758 27.9323 9.37222 27.0549 9.28688 26.7453C9.22875 26.5344 9.18033 26.3488 9.18033 26.332C9.18033 26.3299 9.18134 26.3278 9.18291 26.3268C9.18448 26.3259 9.1863 26.3254 9.18814 26.3255ZM11.1713 26.4542H11.3701L11.3038 26.5295C11.1861 26.6647 11.1299 26.6776 11.0478 26.5867C11.0065 26.541 10.9724 26.4927 10.9724 26.4789C10.9724 26.4651 11.062 26.4542 11.1713 26.4542ZM11.5923 26.4542H11.9692L11.886 26.5452C11.7841 26.6579 11.7774 26.6579 11.6755 26.5452L11.5923 26.4542ZM12.1615 26.4542H12.2486C12.2959 26.4542 12.383 26.464 12.4422 26.4763L12.5501 26.4984L12.45 26.5855C12.3952 26.6334 12.3452 26.6723 12.3382 26.6712C12.3314 26.6701 12.2883 26.6199 12.2434 26.5608L12.1615 26.4542ZM12.7476 26.4802L12.8347 26.5023C12.883 26.5149 12.9861 26.5266 13.0634 26.527H13.2038L13.0985 26.6166C13.0405 26.666 12.9846 26.7069 12.9738 26.7076C12.9628 26.7083 12.907 26.6577 12.8503 26.5946L12.7476 26.4802ZM10.654 26.4919C10.6642 26.4922 10.6704 26.4926 10.6722 26.4945C10.6794 26.5019 10.65 26.5518 10.6059 26.6049L10.5254 26.7011L10.424 26.6179L10.3226 26.5335L10.4916 26.5075C10.561 26.4966 10.6237 26.491 10.654 26.4919H10.654ZM10.8139 26.5023C10.8139 26.4988 10.8644 26.5429 10.9256 26.5998L11.0374 26.7037L10.8308 26.7154L10.6241 26.7271L10.719 26.6179C10.7712 26.5578 10.8139 26.5057 10.8139 26.5023ZM12.0693 26.5023C12.084 26.5033 12.0984 26.5117 12.116 26.527C12.1467 26.5534 12.1867 26.6058 12.2057 26.6426C12.2354 26.7003 12.2264 26.7081 12.142 26.705C12.0882 26.703 12.0077 26.6909 11.9627 26.6777L11.8808 26.6543L11.9705 26.5673C12.0178 26.521 12.0446 26.5006 12.0693 26.5023ZM11.4871 26.5036C11.5259 26.4982 11.5562 26.5272 11.5975 26.5919C11.6481 26.6712 11.6463 26.6723 11.4598 26.6712L11.2713 26.6699L11.3714 26.5789C11.4209 26.5336 11.4568 26.5077 11.4871 26.5036ZM12.6632 26.5166L12.7489 26.601C12.8429 26.6928 12.8595 26.7488 12.7905 26.7388C12.7663 26.7353 12.6791 26.727 12.5969 26.7193L12.4474 26.705L12.5553 26.6114L12.6632 26.5166ZM10.2278 26.5633C10.244 26.5633 10.2942 26.6031 10.3382 26.6517L10.4175 26.7401L10.2473 26.7635C10.1535 26.7761 10.0455 26.7931 10.0069 26.8011C9.95466 26.8121 9.97037 26.7831 10.0679 26.6894C10.1401 26.62 10.2115 26.5634 10.2278 26.5634V26.5633ZM9.96787 26.5685C9.97942 26.5683 9.99001 26.5697 9.99906 26.5711C10.0566 26.5805 10.0511 26.5952 9.95748 26.6881L9.84958 26.7947L9.81839 26.7063C9.79238 26.6338 9.79991 26.6132 9.85998 26.5893C9.89011 26.5774 9.93313 26.5691 9.96787 26.5685ZM13.1531 26.6907C13.1697 26.6897 13.1733 26.7032 13.1635 26.7297C13.1422 26.7874 13.0803 26.8017 13.0803 26.7492C13.0803 26.7312 13.1043 26.7084 13.1323 26.6972C13.1408 26.6938 13.1475 26.691 13.1531 26.6907ZM11.6755 26.8011C12.207 26.8011 12.7484 26.8144 12.8789 26.831C13.0984 26.8591 13.1154 26.8675 13.1154 26.9493C13.1154 27.0467 13.0858 27.0514 12.7996 27C12.7126 26.9844 12.3639 26.9512 12.0238 26.926C11.4334 26.8821 10.7017 26.9058 10.0498 26.9896C9.91515 27.0069 9.88341 27.0003 9.88341 26.9558C9.88341 26.8616 10.5881 26.8012 11.6755 26.8012V26.8011ZM10.9607 27.0013H11.3363L11.2531 27.0923C11.1512 27.205 11.1445 27.205 11.0426 27.0923L10.9607 27.0013ZM11.4429 27.0013L11.5416 27.0988C11.5959 27.1528 11.6404 27.203 11.6404 27.2092C11.6404 27.2155 11.5502 27.2209 11.4402 27.2209H11.2402L11.3415 27.1105L11.4429 27.0013ZM11.5923 27.0013H11.9692L11.886 27.0923C11.7841 27.205 11.7774 27.205 11.6755 27.0923L11.5923 27.0013ZM10.7034 27.0065C10.7199 27.0076 10.7051 27.0353 10.6553 27.1053C10.6101 27.1689 10.5624 27.2209 10.5501 27.2209C10.5377 27.2209 10.4915 27.1789 10.4461 27.1287L10.3629 27.0377H10.489C10.5584 27.0377 10.6426 27.0264 10.6761 27.013C10.6884 27.0081 10.6979 27.0062 10.7034 27.0065V27.0065ZM10.8451 27.0377L10.9347 27.1196C10.9843 27.1647 11.0299 27.2049 11.0361 27.208C11.0423 27.211 10.9609 27.2192 10.8542 27.2261L10.6592 27.2391L10.7528 27.1378L10.8451 27.0377ZM12.0485 27.0377L12.1498 27.1481C12.2603 27.268 12.2492 27.2732 11.9978 27.2248L11.8795 27.2027L11.964 27.1196L12.0485 27.0377ZM12.1901 27.0377H12.3538C12.5313 27.0377 12.5542 27.0655 12.4539 27.1598C12.3715 27.2374 12.371 27.2368 12.2733 27.1287L12.1901 27.0377ZM10.0679 27.0754C10.1478 27.0746 10.1454 27.0822 10.0419 27.1832C9.96261 27.2607 9.95299 27.2624 9.93151 27.204C9.90563 27.1342 9.96755 27.0763 10.0679 27.0754ZM12.7567 27.0858C12.7837 27.0855 12.8391 27.0917 12.901 27.1027L13.0517 27.1287L12.9647 27.2131L12.8789 27.2976L12.8035 27.1988C12.7623 27.1443 12.7335 27.0949 12.7398 27.0884C12.7414 27.0868 12.7477 27.0859 12.7567 27.0858ZM10.2642 27.1183C10.2855 27.1146 10.3044 27.132 10.3409 27.1663C10.4105 27.2319 10.4114 27.2379 10.3512 27.2625C10.3161 27.2769 10.2398 27.2897 10.1823 27.2911L10.0783 27.2937L10.1732 27.1949C10.2198 27.1464 10.2428 27.1219 10.2642 27.1183H10.2642ZM12.6267 27.1378C12.6512 27.1364 12.6705 27.1573 12.7047 27.2053L12.7684 27.2937H12.6229C12.5281 27.2937 12.4827 27.2786 12.4916 27.2508C12.4991 27.2274 12.5359 27.1879 12.5735 27.1624C12.5956 27.1474 12.6121 27.1385 12.6267 27.1378ZM13.0712 27.2313C13.079 27.2331 13.0803 27.2458 13.0803 27.269C13.0803 27.3372 13.0236 27.3819 12.9958 27.3353C12.9851 27.3171 12.9995 27.2822 13.0283 27.2573C13.0496 27.239 13.0634 27.2296 13.0712 27.2313H13.0712ZM11.2739 27.3145C11.8749 27.3138 12.5432 27.3538 12.9309 27.4263L13.0452 27.4484V27.7538C13.0452 27.9772 13.0344 28.0589 13.0024 28.0552C12.9782 28.0525 12.8235 28.0207 12.6593 27.9838C12.1636 27.8724 11.6033 27.8292 10.9724 27.8551C10.6536 27.8682 10.3199 27.8922 10.2304 27.9084L10.0666 27.9383L10.0263 27.6836C10.0041 27.5438 9.99158 27.4248 9.99777 27.4185C10.0039 27.412 10.158 27.386 10.3409 27.3613C10.5763 27.3295 10.9134 27.3149 11.2739 27.3145Z" fill="black"/>
<path d="M12.4839 25.577C12.2784 25.577 12.1317 25.7286 12.1317 25.9422C12.1317 26.2749 12.5058 26.4361 12.7321 26.2008C12.9584 25.9655 12.804 25.577 12.4839 25.577ZM12.4826 25.6628C12.6344 25.6568 12.7646 25.7749 12.7646 25.9461C12.7646 26.1464 12.5327 26.2862 12.3539 26.193C12.1627 26.0934 12.177 25.7732 12.376 25.6875C12.4097 25.6727 12.4458 25.6643 12.4826 25.6628Z" fill="black"/>
<path d="M9.93673 20.5529C9.90666 20.5552 9.87855 20.5691 9.85807 20.5917C9.83758 20.6144 9.82623 20.6441 9.82629 20.675C9.82629 20.7075 9.83889 20.7386 9.86131 20.7616C9.88372 20.7845 9.91413 20.7974 9.94583 20.7974C9.97753 20.7974 10.0079 20.7845 10.0304 20.7616C10.0528 20.7386 10.0654 20.7075 10.0654 20.675C10.0654 20.6582 10.062 20.6414 10.0555 20.626C10.0489 20.6105 10.0392 20.5966 10.0272 20.5851C10.0151 20.5736 10.0008 20.5648 9.98524 20.5593C9.96968 20.5537 9.95316 20.5516 9.93673 20.5529ZM9.94454 20.5958C9.96543 20.5964 9.98526 20.605 9.99981 20.6198C10.0144 20.6346 10.0225 20.6544 10.0225 20.675C10.0227 20.6856 10.0209 20.6962 10.0169 20.706C10.013 20.7159 10.0071 20.7249 9.99959 20.7325C9.99208 20.74 9.98311 20.7461 9.97321 20.7502C9.96331 20.7543 9.95267 20.7564 9.94193 20.7564C9.93118 20.7564 9.92055 20.7543 9.91064 20.7502C9.90074 20.7461 9.89177 20.74 9.88427 20.7325C9.87676 20.7249 9.87087 20.7159 9.86693 20.706C9.863 20.6962 9.86111 20.6856 9.86137 20.675C9.86136 20.6644 9.86353 20.6539 9.86774 20.6441C9.87195 20.6343 9.87812 20.6254 9.88588 20.618C9.89365 20.6106 9.90284 20.6048 9.91292 20.601C9.92299 20.5972 9.93375 20.5954 9.94454 20.5958Z" fill="black"/>
</g>
</svg>
