<svg width="54" height="54" viewBox="0 0 54 54" fill="none" xmlns="http://www.w3.org/2000/svg">
<mask id="mask0_1_31588" style="mask-type:alpha" maskUnits="userSpaceOnUse" x="3" y="9" width="48" height="36">
<path d="M3.56934 18.1356C4.16681 13.4125 8.0415 10.0019 12.7861 9.60887C16.6412 9.28949 21.6196 9 27 9C32.3804 9 37.3588 9.28949 41.2139 9.60887C45.9585 10.0019 49.8332 13.4125 50.4307 18.1356C50.752 20.6759 51 23.704 51 27C51 30.296 50.752 33.3241 50.4307 35.8644C49.8332 40.5875 45.9585 43.9981 41.2139 44.3911C37.3588 44.7105 32.3804 45 27 45C21.6196 45 16.6412 44.7105 12.7861 44.3911C8.04151 43.9981 4.16681 40.5875 3.56934 35.8644C3.248 33.3241 3 30.296 3 27C3 23.704 3.248 20.6759 3.56934 18.1356Z" fill="#00D0BF"/>
</mask>
<g mask="url(#mask0_1_31588)">
<rect x="3" y="9" width="48" height="36" fill="#1C6864"/>
<rect x="3" y="35" width="48" height="5" fill="#FCD95E"/>
<rect x="3" y="30" width="48" height="5" fill="#EE5757"/>
<rect x="3" y="24" width="48" height="6" fill="#2C2929"/>
<rect x="3" y="19" width="48" height="5" fill="#EE5757"/>
<rect x="3" y="14" width="48" height="5" fill="#FCD95E"/>
<path d="M2 7L25 27L2 47V7Z" fill="#F5F5F5" stroke="#2C2929"/>
<path d="M11.2195 20.7208L15.0634 32.551L5 25.2396H17.439L7.37562 32.551L11.2195 20.7208Z" fill="#D40000"/>
<path d="M9.57331 31.065L10.2526 30.9415L11.5123 30.8921L11.9755 30.9353L13.0129 31.1082L13.0932 31.0033V30.2561L13.2106 29.6138L13.4267 28.9593L13.6489 28.4405L13.9392 27.9033L14.4147 28.0207H14.5382L14.5506 27.928L13.5563 27.0758L12.5127 26.2792L11.0121 25.1553L10.8763 25.1183L10.7096 23.945L10.5922 23.5869L10.4379 23.451L10.1352 23.3522L9.80181 23.3646L9.65362 23.451L9.33248 23.5251L9.16577 23.5498L9.0546 23.6795L9.04226 23.8462L9.50539 23.8586L9.62275 23.908L9.61037 23.9573L9.34487 23.9944L9.22136 24.0315L9.36954 24.1426L9.51777 24.1982L9.71535 24.2723L9.75241 24.402L9.77089 26.199L9.66596 26.4768L9.6289 26.9956L9.78328 27.6193L9.39422 28.0577L9.17811 28.4529L9.14105 28.6999L9.02373 28.9407L9.00525 29.0951L9.08551 29.2557L9.38188 30.2437L9.53626 31.0526L9.57331 31.065Z" fill="#FFCC00"/>
<path d="M9.93276 23.3203C9.81391 23.3202 9.75685 23.3407 9.63907 23.4047C9.53279 23.4625 9.40665 23.5009 9.3207 23.5009C9.14595 23.5009 9.00488 23.6263 9.00488 23.7829V23.8869L9.25962 23.879C9.98968 23.9035 9.32315 23.9708 9.27001 23.9805C9.08875 24.0133 9.31021 24.1612 9.52341 24.2326C9.75283 24.3094 9.74303 24.2649 9.74303 25.2709C9.74303 26.0969 9.73587 26.2138 9.67284 26.4041C9.58034 26.6836 9.58034 27.0989 9.67284 27.3723C9.71027 27.4827 9.74109 27.5858 9.74174 27.601C9.74238 27.6163 9.63371 27.7514 9.50003 27.9012C9.2586 28.1719 9.11014 28.4623 9.11014 28.6653C9.11014 28.7121 9.07863 28.791 9.03995 28.8421C8.95077 28.9599 8.94823 29.1628 9.03478 29.2398C9.12456 29.3196 9.49513 30.7502 9.4961 31.0201C9.49647 31.1186 9.51408 31.118 10.077 31.0046C10.5315 30.913 11.6059 30.8936 12.1498 30.9669C12.4011 31.0008 12.6933 31.0501 12.7996 31.0773C13.1344 31.1633 13.1159 31.181 13.1167 30.7771C13.1179 30.1527 13.2317 29.5589 13.4728 28.924C13.5824 28.6351 13.8707 28.0485 13.9471 27.9584C13.9547 27.9495 14.0774 27.9722 14.22 28.0091C14.5117 28.0846 14.5917 28.0705 14.5917 27.9441C14.5917 27.8717 14.294 27.6235 12.836 26.4821C11.8536 25.713 11.0478 25.1072 11.0075 25.1072C10.9679 25.1072 10.9278 25.0868 10.9191 25.0617C10.9105 25.0366 10.8641 24.7393 10.8152 24.4002C10.7662 24.0611 10.7001 23.7264 10.6683 23.6569C10.5755 23.4536 10.3835 23.3459 10.077 23.3255C10.029 23.3221 9.98089 23.3204 9.93276 23.3203V23.3203ZM9.94315 23.393C9.98141 23.3926 10.0245 23.3942 10.077 23.397C10.5373 23.4211 10.6244 23.5481 10.745 24.3664C10.7918 24.684 10.8304 24.9777 10.8308 25.0201C10.8313 25.0752 10.7673 25.1403 10.6059 25.2488C10.3683 25.4086 10.0616 25.6999 9.91196 25.9064L9.82232 26.0286L9.80541 25.7413C9.79557 25.5835 9.79557 25.215 9.80541 24.9226C9.82579 24.3183 9.80994 24.2586 9.6118 24.1923C9.44999 24.1381 9.23882 24.0798 9.3012 24.0428C9.36927 24.0024 9.43225 24.0313 9.60524 23.9883C9.66656 23.973 9.66323 23.9756 9.65334 23.9232C9.6356 23.829 9.54356 23.7857 9.283 23.7998C9.07835 23.8109 9.0521 23.8055 9.06597 23.7504C9.09401 23.639 9.20981 23.5658 9.38174 23.549C9.47434 23.5399 9.60936 23.4989 9.68324 23.458C9.76503 23.4128 9.82847 23.3944 9.94315 23.393V23.393ZM10.9737 25.1864C10.9834 25.1863 10.9925 25.1864 11.001 25.1877C11.119 25.2062 14.5215 27.8665 14.5215 27.9402C14.5215 27.9693 14.4942 27.9927 14.4605 27.9922C14.4266 27.9917 13.5606 27.7464 12.5371 27.4477C10.9014 26.9703 10.6662 26.8923 10.5955 26.807C10.4952 26.6857 10.4919 26.5006 10.5864 26.3755C10.6251 26.3245 10.6566 26.2617 10.6566 26.2352C10.6566 26.1543 10.4832 26.3605 10.45 26.4808C10.4112 26.6214 10.4835 26.8568 10.5891 26.9331C10.6308 26.9632 10.9426 27.0703 11.2817 27.1709C11.8606 27.3424 11.8995 27.3609 11.9302 27.4568C12.004 27.6869 11.7609 27.9539 11.4091 28.0299C11.2956 28.0544 11.1514 28.1211 11.0517 28.1962C10.6556 28.4947 10.3797 28.671 10.1485 28.7706C10.0126 28.8292 9.88119 28.8954 9.85739 28.9188C9.8336 28.9422 9.7989 29.0486 9.77944 29.1553C9.73809 29.3818 9.72058 29.4165 9.65339 29.4165C9.61448 29.4165 9.61097 29.3962 9.63777 29.323C9.68721 29.1879 9.68181 29.0149 9.62738 29.0149C9.59859 29.0149 9.58062 29.063 9.58062 29.1436C9.58062 29.2139 9.56075 29.2913 9.5351 29.3164C9.49657 29.3542 9.49167 29.3263 9.50784 29.1527C9.51851 29.0372 9.51385 28.9422 9.49744 28.9422C9.46588 28.9422 9.40397 29.1172 9.38174 29.271C9.36876 29.3611 9.36797 29.3604 9.33886 29.2541C9.31617 29.171 9.32717 29.1153 9.38567 29.0097C9.42735 28.9344 9.46237 28.8249 9.46237 28.7654C9.46237 28.6759 9.52831 28.5893 9.85222 28.2612C10.0672 28.0434 10.3175 27.7731 10.4084 27.6608C10.5656 27.4664 10.5739 27.4458 10.5683 27.2488C10.565 27.135 10.5518 27.0328 10.5396 27.0201C10.4986 26.9774 10.4439 27.1975 10.4656 27.3177C10.4852 27.4265 10.465 27.4635 10.2382 27.731C10.1013 27.8924 9.86876 28.1359 9.72224 28.2729C9.45235 28.5253 9.35577 28.6617 9.35577 28.7901C9.35577 28.8291 9.32551 28.9322 9.28817 29.0188C9.25084 29.1055 9.23023 29.1941 9.24141 29.2151C9.25389 29.2385 9.24502 29.237 9.21933 29.2125C9.18888 29.1834 9.18643 29.1296 9.21152 29.0136C9.23046 28.9262 9.23822 28.8417 9.22843 28.8252C9.19072 28.7618 9.14655 28.8432 9.12446 29.0162C9.1118 29.1155 9.08805 29.1882 9.07119 29.1774C9.02036 29.1447 9.03639 28.9641 9.09845 28.872C9.13047 28.8245 9.17039 28.7114 9.18684 28.6199C9.23296 28.3631 9.3433 28.1593 9.58838 27.8817C9.71193 27.7418 9.81322 27.6221 9.81322 27.6153C9.81322 27.6085 9.78027 27.5052 9.74044 27.3866C9.64831 27.1122 9.64221 26.6945 9.72612 26.4405C9.81461 26.1729 9.99689 25.9079 10.2849 25.6283C10.5638 25.3577 10.8287 25.1888 10.9737 25.1864ZM12.0147 27.4165C12.0232 27.4156 12.0318 27.4159 12.0401 27.4175C12.0483 27.419 12.056 27.4217 12.0625 27.4254C12.0691 27.4291 12.0743 27.4337 12.0779 27.4389C12.0816 27.4441 12.0835 27.4498 12.0835 27.4555C12.0817 27.4651 12.0747 27.4739 12.0638 27.4803C12.0529 27.4867 12.0389 27.4903 12.0244 27.4903C12.0099 27.4903 11.9958 27.4867 11.9849 27.4803C11.9741 27.4739 11.9671 27.4651 11.9652 27.4555C11.9653 27.4461 11.9703 27.4371 11.9793 27.43C11.9884 27.4228 12.0009 27.4181 12.0147 27.4165V27.4165ZM12.1862 27.4386C12.1866 27.4386 12.1871 27.4386 12.1875 27.4386C12.1962 27.4375 12.2052 27.4378 12.2138 27.4393C12.2223 27.4409 12.2303 27.4437 12.237 27.4475C12.2437 27.4514 12.2491 27.4562 12.2527 27.4616C12.2562 27.4671 12.258 27.4729 12.2577 27.4788C12.2577 27.4894 12.2514 27.4996 12.2402 27.507C12.229 27.5145 12.2138 27.5187 12.1979 27.5187C12.182 27.5187 12.1668 27.5145 12.1556 27.507C12.1444 27.4996 12.1381 27.4894 12.1381 27.4788C12.1376 27.4694 12.1422 27.4602 12.151 27.4528C12.1599 27.4454 12.1723 27.4404 12.1862 27.4386V27.4386ZM12.3682 27.4724C12.3703 27.4723 12.3725 27.4723 12.3746 27.4724C12.3829 27.472 12.3911 27.4728 12.3989 27.4746C12.4066 27.4765 12.4137 27.4794 12.4197 27.4832C12.4257 27.487 12.4304 27.4915 12.4336 27.4966C12.4368 27.5017 12.4384 27.5071 12.4383 27.5126C12.4365 27.5222 12.4294 27.531 12.4186 27.5374C12.4077 27.5438 12.3937 27.5473 12.3792 27.5473C12.3647 27.5473 12.3507 27.5438 12.3398 27.5374C12.3289 27.531 12.3219 27.5222 12.3201 27.5126C12.3196 27.5032 12.3242 27.494 12.333 27.4866C12.3418 27.4792 12.3543 27.4742 12.3681 27.4724H12.3682ZM12.5319 27.5061C12.5345 27.506 12.5371 27.506 12.5397 27.5061C12.548 27.5057 12.5562 27.5065 12.564 27.5084C12.5718 27.5102 12.5789 27.5132 12.5848 27.517C12.5908 27.5208 12.5956 27.5253 12.5987 27.5304C12.6019 27.5355 12.6035 27.5409 12.6034 27.5464C12.6029 27.5568 12.5964 27.5667 12.5853 27.5739C12.5741 27.5812 12.5592 27.5852 12.5436 27.5852C12.528 27.5852 12.5131 27.5812 12.5019 27.5739C12.4907 27.5667 12.4843 27.5568 12.4838 27.5464C12.4834 27.537 12.4879 27.5278 12.4967 27.5204C12.5055 27.513 12.518 27.508 12.5319 27.5062V27.5061ZM12.0952 27.5464C12.0957 27.5464 12.0961 27.5464 12.0965 27.5464C12.1053 27.5454 12.1142 27.5456 12.1228 27.5472C12.1314 27.5487 12.1393 27.5516 12.146 27.5554C12.1528 27.5593 12.1581 27.5641 12.1617 27.5695C12.1653 27.5749 12.167 27.5808 12.1668 27.5867C12.1668 27.5973 12.1605 27.6074 12.1492 27.6149C12.138 27.6224 12.1228 27.6266 12.107 27.6266C12.0911 27.6266 12.0759 27.6224 12.0647 27.6149C12.0535 27.6074 12.0472 27.5973 12.0472 27.5867C12.0467 27.5773 12.0513 27.5681 12.0601 27.5607C12.0689 27.5533 12.0814 27.5483 12.0952 27.5464V27.5464ZM12.2668 27.575C12.2754 27.574 12.2842 27.5742 12.2926 27.5757C12.301 27.5772 12.3088 27.5799 12.3155 27.5836C12.3222 27.5873 12.3276 27.592 12.3313 27.5972C12.335 27.6025 12.337 27.6082 12.337 27.614C12.337 27.6246 12.3307 27.6347 12.3195 27.6422C12.3083 27.6497 12.293 27.6539 12.2772 27.6539C12.2613 27.6539 12.2461 27.6497 12.2349 27.6422C12.2237 27.6347 12.2174 27.6246 12.2174 27.614C12.2175 27.6047 12.2224 27.5956 12.2315 27.5885C12.2405 27.5814 12.253 27.5766 12.2668 27.575ZM12.6267 27.5893C12.6353 27.5883 12.6441 27.5885 12.6525 27.59C12.661 27.5915 12.6688 27.5942 12.6755 27.5979C12.6822 27.6016 12.6876 27.6062 12.6913 27.6115C12.695 27.6167 12.6969 27.6225 12.697 27.6283C12.697 27.6389 12.6907 27.649 12.6795 27.6565C12.6682 27.664 12.653 27.6682 12.6372 27.6682C12.6213 27.6682 12.6061 27.664 12.5949 27.6565C12.5837 27.649 12.5774 27.6389 12.5774 27.6283C12.5775 27.619 12.5824 27.6099 12.5915 27.6028C12.6005 27.5957 12.613 27.5909 12.6268 27.5893H12.6267ZM12.437 27.5919C12.4456 27.5909 12.4544 27.5911 12.4628 27.5926C12.4712 27.5941 12.4791 27.5968 12.4858 27.6005C12.4925 27.6042 12.4978 27.6089 12.5015 27.6141C12.5052 27.6194 12.5072 27.6251 12.5072 27.6309C12.5068 27.6413 12.5003 27.6512 12.4891 27.6584C12.478 27.6656 12.463 27.6697 12.4474 27.6697C12.4319 27.6697 12.4169 27.6656 12.4057 27.6584C12.3946 27.6512 12.3881 27.6413 12.3877 27.6309C12.3877 27.6216 12.3927 27.6126 12.4017 27.6054C12.4107 27.5983 12.4232 27.5935 12.437 27.5919ZM12.7879 27.6322C12.7932 27.6244 13.0426 27.6878 13.3415 27.7738L13.8848 27.9298L13.7795 28.1169C13.7216 28.2195 13.6485 28.3571 13.617 28.4223C13.5533 28.5549 13.5306 28.5572 13.2038 28.4821C12.8423 28.3991 12.2709 28.3202 11.6898 28.2729L11.131 28.2274L11.3415 28.1481C11.4575 28.1042 11.6242 28.0289 11.7119 27.9805C11.8495 27.9046 11.9049 27.8948 12.116 27.9103C12.4294 27.9334 12.6406 27.8755 12.719 27.7453C12.7416 27.7074 12.7646 27.6697 12.7879 27.6322V27.6322ZM12.1745 27.6712C12.1749 27.6712 12.1754 27.6712 12.1758 27.6712C12.1845 27.6702 12.1935 27.6704 12.2021 27.672C12.2106 27.6735 12.2186 27.6763 12.2253 27.6802C12.232 27.684 12.2374 27.6888 12.2409 27.6943C12.2445 27.6997 12.2463 27.7055 12.246 27.7115C12.246 27.722 12.2397 27.7322 12.2285 27.7397C12.2173 27.7471 12.2021 27.7513 12.1862 27.7513C12.1703 27.7513 12.1551 27.7471 12.1439 27.7397C12.1327 27.7322 12.1264 27.722 12.1264 27.7115C12.126 27.702 12.1306 27.6928 12.1394 27.6854C12.1482 27.6781 12.1606 27.673 12.1745 27.6712V27.6712ZM12.5657 27.6712C12.5661 27.6712 12.5666 27.6712 12.567 27.6712C12.5757 27.6702 12.5847 27.6704 12.5933 27.672C12.6018 27.6735 12.6097 27.6763 12.6165 27.6802C12.6232 27.684 12.6285 27.6888 12.6321 27.6943C12.6357 27.6997 12.6374 27.7055 12.6372 27.7115C12.6372 27.722 12.6309 27.7322 12.6197 27.7397C12.6085 27.7471 12.5933 27.7513 12.5774 27.7513C12.5615 27.7513 12.5463 27.7471 12.5351 27.7397C12.5239 27.7322 12.5176 27.722 12.5176 27.7115C12.5172 27.702 12.5217 27.6928 12.5305 27.6854C12.5393 27.6781 12.5518 27.673 12.5657 27.6712H12.5657ZM12.0043 27.6764C12.0069 27.6763 12.0095 27.6763 12.0121 27.6764C12.0203 27.676 12.0286 27.6768 12.0363 27.6786C12.0441 27.6805 12.0512 27.6834 12.0572 27.6872C12.0632 27.691 12.0679 27.6956 12.0711 27.7006C12.0743 27.7057 12.0759 27.7112 12.0758 27.7167C12.0758 27.7272 12.0695 27.7374 12.0583 27.7449C12.047 27.7523 12.0318 27.7566 12.016 27.7566C12.0001 27.7566 11.9849 27.7523 11.9737 27.7449C11.9625 27.7374 11.9562 27.7272 11.9562 27.7167C11.9557 27.7072 11.9603 27.698 11.9691 27.6906C11.9779 27.6833 11.9904 27.6782 12.0042 27.6764H12.0043ZM12.3746 27.6829C12.3832 27.6818 12.392 27.6821 12.4005 27.6835C12.4089 27.685 12.4167 27.6877 12.4234 27.6914C12.4301 27.6952 12.4355 27.6998 12.4392 27.7051C12.4429 27.7103 12.4448 27.7161 12.4448 27.7219C12.4444 27.7323 12.4379 27.7421 12.4267 27.7494C12.4156 27.7566 12.4006 27.7607 12.3851 27.7607C12.3695 27.7607 12.3545 27.7566 12.3434 27.7494C12.3322 27.7421 12.3257 27.7323 12.3253 27.7219C12.3253 27.7126 12.3303 27.7035 12.3393 27.6964C12.3484 27.6893 12.3609 27.6845 12.3746 27.6829V27.6829ZM11.9198 27.7648C11.9203 27.7648 11.9207 27.7648 11.9211 27.7648C11.9298 27.7639 11.9386 27.7642 11.947 27.7659C11.9554 27.7675 11.9631 27.7703 11.9697 27.7742C11.9763 27.778 11.9815 27.7828 11.985 27.7881C11.9885 27.7935 11.9902 27.7992 11.99 27.8051C11.9882 27.8147 11.9812 27.8235 11.9703 27.8299C11.9594 27.8363 11.9453 27.8399 11.9308 27.8399C11.9163 27.8399 11.9023 27.8363 11.8914 27.8299C11.8805 27.8235 11.8735 27.8147 11.8717 27.8051C11.8712 27.7956 11.8758 27.7864 11.8846 27.779C11.8934 27.7716 11.9059 27.7666 11.9198 27.7648H11.9198ZM12.0901 27.7674C12.0922 27.7673 12.0944 27.7673 12.0965 27.7674C12.1048 27.767 12.113 27.7677 12.1208 27.7696C12.1286 27.7715 12.1357 27.7744 12.1417 27.7782C12.1477 27.782 12.1524 27.7865 12.1556 27.7916C12.1588 27.7967 12.1604 27.8022 12.1602 27.8077C12.1584 27.8173 12.1514 27.8261 12.1405 27.8325C12.1296 27.8389 12.1156 27.8425 12.1011 27.8425C12.0866 27.8425 12.0725 27.8389 12.0617 27.8325C12.0508 27.8261 12.0438 27.8173 12.042 27.8077C12.0415 27.7982 12.0461 27.789 12.0549 27.7816C12.0637 27.7742 12.0762 27.7692 12.0901 27.7674ZM12.272 27.7738C12.2805 27.7728 12.2894 27.773 12.2978 27.7745C12.3062 27.776 12.314 27.7787 12.3207 27.7824C12.3274 27.7861 12.3328 27.7908 12.3365 27.796C12.3402 27.8013 12.3422 27.807 12.3422 27.8128C12.3422 27.8234 12.3359 27.8335 12.3247 27.841C12.3135 27.8485 12.2983 27.8527 12.2824 27.8527C12.2666 27.8527 12.2513 27.8485 12.2401 27.841C12.2289 27.8335 12.2226 27.8234 12.2226 27.8128C12.2227 27.8035 12.2277 27.7945 12.2367 27.7874C12.2457 27.7803 12.2582 27.7755 12.272 27.7739V27.7738ZM12.4643 27.7791C12.4648 27.7791 12.4652 27.7791 12.4656 27.7791C12.4743 27.7781 12.4831 27.7785 12.4915 27.7801C12.4999 27.7818 12.5076 27.7846 12.5142 27.7884C12.5208 27.7923 12.526 27.7971 12.5295 27.8024C12.533 27.8077 12.5347 27.8135 12.5345 27.8193C12.5326 27.8289 12.5256 27.8377 12.5147 27.8441C12.5038 27.8505 12.4898 27.854 12.4753 27.854C12.4609 27.854 12.4469 27.8505 12.436 27.8441C12.4251 27.8377 12.4181 27.8289 12.4162 27.8193C12.4158 27.8099 12.4203 27.8007 12.4291 27.7933C12.4379 27.7859 12.4504 27.7809 12.4643 27.7791H12.4643ZM11.0569 28.3392C11.2947 28.3316 12.1249 28.3918 12.5189 28.4509C12.8657 28.503 13.4731 28.6158 13.4936 28.6316C13.4987 28.6355 13.4466 28.8017 13.3766 29.0007C13.3066 29.1995 13.2427 29.3852 13.235 29.4126C13.2243 29.4499 13.1817 29.4558 13.0634 29.4373C12.486 29.3473 10.8222 29.3554 10.1823 29.4516C9.81849 29.5063 9.76503 29.5023 9.79631 29.4256C9.81063 29.3905 9.84108 29.2804 9.86391 29.18L9.90549 28.9967L10.2915 28.7966C10.5036 28.6862 10.74 28.5453 10.8165 28.4834C10.8929 28.4215 10.9727 28.3601 10.9945 28.347C11.0013 28.3429 11.0229 28.3403 11.0569 28.3392H11.0569ZM9.18814 29.3255C9.20546 29.3255 9.24876 29.3455 9.29857 29.3775C9.36368 29.4193 9.44675 29.4538 9.48312 29.4542C9.66416 29.4564 9.76369 29.7115 9.91718 30.5679C9.93496 30.6673 9.95359 30.7664 9.97309 30.8655C9.98719 30.9349 9.96736 30.9504 9.81193 30.9851C9.61546 31.0289 9.56758 31.0321 9.56758 31.0058C9.56758 30.9323 9.37222 30.0549 9.28688 29.7453C9.22875 29.5344 9.18033 29.3488 9.18033 29.332C9.18033 29.3299 9.18134 29.3278 9.18291 29.3268C9.18448 29.3259 9.1863 29.3254 9.18814 29.3255V29.3255ZM11.1713 29.4542H11.3701L11.3038 29.5295C11.1861 29.6647 11.1299 29.6776 11.0478 29.5867C11.0065 29.541 10.9724 29.4927 10.9724 29.4789C10.9724 29.4651 11.062 29.4542 11.1713 29.4542ZM11.5923 29.4542H11.9692L11.886 29.5452C11.7841 29.6579 11.7774 29.6579 11.6755 29.5452L11.5923 29.4542ZM12.1615 29.4542H12.2486C12.2959 29.4542 12.383 29.464 12.4422 29.4763L12.5501 29.4984L12.45 29.5855C12.3952 29.6334 12.3452 29.6723 12.3382 29.6712C12.3314 29.6701 12.2883 29.6199 12.2434 29.5608L12.1615 29.4542ZM12.7476 29.4802L12.8347 29.5023C12.883 29.5149 12.9861 29.5266 13.0634 29.527H13.2038L13.0985 29.6166C13.0405 29.666 12.9846 29.7069 12.9738 29.7076C12.9628 29.7083 12.907 29.6577 12.8503 29.5946L12.7476 29.4802ZM10.654 29.4919C10.6642 29.4922 10.6704 29.4926 10.6722 29.4945C10.6794 29.5019 10.65 29.5518 10.6059 29.6049L10.5254 29.7011L10.424 29.6179L10.3226 29.5335L10.4916 29.5075C10.561 29.4966 10.6237 29.491 10.654 29.4919H10.654ZM10.8139 29.5023C10.8139 29.4988 10.8644 29.5429 10.9256 29.5998L11.0374 29.7037L10.8308 29.7154L10.6241 29.7271L10.719 29.6179C10.7712 29.5578 10.8139 29.5057 10.8139 29.5023ZM12.0693 29.5023C12.084 29.5033 12.0984 29.5117 12.116 29.527C12.1467 29.5534 12.1867 29.6058 12.2057 29.6426C12.2354 29.7003 12.2264 29.7081 12.142 29.705C12.0882 29.703 12.0077 29.6909 11.9627 29.6777L11.8808 29.6543L11.9705 29.5673C12.0178 29.521 12.0446 29.5006 12.0693 29.5023V29.5023ZM11.4871 29.5036C11.5259 29.4982 11.5562 29.5272 11.5975 29.5919C11.6481 29.6712 11.6463 29.6723 11.4598 29.6712L11.2713 29.6699L11.3714 29.5789C11.4209 29.5336 11.4568 29.5077 11.4871 29.5036V29.5036ZM12.6632 29.5166L12.7489 29.601C12.8429 29.6928 12.8595 29.7488 12.7905 29.7388C12.7663 29.7353 12.6791 29.727 12.5969 29.7193L12.4474 29.705L12.5553 29.6114L12.6632 29.5166ZM10.2278 29.5633C10.244 29.5633 10.2942 29.6031 10.3382 29.6517L10.4175 29.7401L10.2473 29.7635C10.1535 29.7761 10.0455 29.7931 10.0069 29.8011C9.95466 29.8121 9.97037 29.7831 10.0679 29.6894C10.1401 29.62 10.2115 29.5634 10.2278 29.5634V29.5633ZM9.96787 29.5685C9.97942 29.5683 9.99001 29.5697 9.99906 29.5711C10.0566 29.5805 10.0511 29.5952 9.95748 29.6881L9.84958 29.7947L9.81839 29.7063C9.79238 29.6338 9.79991 29.6132 9.85998 29.5893C9.89011 29.5774 9.93313 29.5691 9.96787 29.5685V29.5685ZM13.1531 29.6907C13.1697 29.6897 13.1733 29.7032 13.1635 29.7297C13.1422 29.7874 13.0803 29.8017 13.0803 29.7492C13.0803 29.7312 13.1043 29.7084 13.1323 29.6972C13.1408 29.6938 13.1475 29.691 13.1531 29.6907V29.6907ZM11.6755 29.8011C12.207 29.8011 12.7484 29.8144 12.8789 29.831C13.0984 29.8591 13.1154 29.8675 13.1154 29.9493C13.1154 30.0467 13.0858 30.0514 12.7996 30C12.7126 29.9844 12.3639 29.9512 12.0238 29.926C11.4334 29.8821 10.7017 29.9058 10.0498 29.9896C9.91515 30.0069 9.88341 30.0003 9.88341 29.9558C9.88341 29.8616 10.5881 29.8012 11.6755 29.8012V29.8011ZM10.9607 30.0013H11.3363L11.2531 30.0923C11.1512 30.205 11.1445 30.205 11.0426 30.0923L10.9607 30.0013ZM11.4429 30.0013L11.5416 30.0988C11.5959 30.1528 11.6404 30.203 11.6404 30.2092C11.6404 30.2155 11.5502 30.2209 11.4402 30.2209H11.2402L11.3415 30.1105L11.4429 30.0013ZM11.5923 30.0013H11.9692L11.886 30.0923C11.7841 30.205 11.7774 30.205 11.6755 30.0923L11.5923 30.0013ZM10.7034 30.0065C10.7199 30.0076 10.7051 30.0353 10.6553 30.1053C10.6101 30.1689 10.5624 30.2209 10.5501 30.2209C10.5377 30.2209 10.4915 30.1789 10.4461 30.1287L10.3629 30.0377H10.489C10.5584 30.0377 10.6426 30.0264 10.6761 30.013C10.6884 30.0081 10.6979 30.0062 10.7034 30.0065V30.0065ZM10.8451 30.0377L10.9347 30.1196C10.9843 30.1647 11.0299 30.2049 11.0361 30.208C11.0423 30.211 10.9609 30.2192 10.8542 30.2261L10.6592 30.2391L10.7528 30.1378L10.8451 30.0377ZM12.0485 30.0377L12.1498 30.1481C12.2603 30.268 12.2492 30.2732 11.9978 30.2248L11.8795 30.2027L11.964 30.1196L12.0485 30.0377ZM12.1901 30.0377H12.3538C12.5313 30.0377 12.5542 30.0655 12.4539 30.1598C12.3715 30.2374 12.371 30.2368 12.2733 30.1287L12.1901 30.0377ZM10.0679 30.0754C10.1478 30.0746 10.1454 30.0822 10.0419 30.1832C9.96261 30.2607 9.95299 30.2624 9.93151 30.204C9.90563 30.1342 9.96755 30.0763 10.0679 30.0754ZM12.7567 30.0858C12.7837 30.0855 12.8391 30.0917 12.901 30.1027L13.0517 30.1287L12.9647 30.2131L12.8789 30.2976L12.8035 30.1988C12.7623 30.1443 12.7335 30.0949 12.7398 30.0884C12.7414 30.0868 12.7477 30.0859 12.7567 30.0858V30.0858ZM10.2642 30.1183C10.2855 30.1146 10.3044 30.132 10.3409 30.1663C10.4105 30.2319 10.4114 30.2379 10.3512 30.2625C10.3161 30.2769 10.2398 30.2897 10.1823 30.2911L10.0783 30.2937L10.1732 30.1949C10.2198 30.1464 10.2428 30.1219 10.2642 30.1183H10.2642ZM12.6267 30.1378C12.6512 30.1364 12.6705 30.1573 12.7047 30.2053L12.7684 30.2937H12.6229C12.5281 30.2937 12.4827 30.2786 12.4916 30.2508C12.4991 30.2274 12.5359 30.1879 12.5735 30.1624C12.5956 30.1474 12.6121 30.1385 12.6267 30.1378V30.1378ZM13.0712 30.2313C13.079 30.2331 13.0803 30.2458 13.0803 30.269C13.0803 30.3372 13.0236 30.3819 12.9958 30.3353C12.9851 30.3171 12.9995 30.2822 13.0283 30.2573C13.0496 30.239 13.0634 30.2296 13.0712 30.2313H13.0712ZM11.2739 30.3145C11.8749 30.3138 12.5432 30.3538 12.9309 30.4263L13.0452 30.4484V30.7538C13.0452 30.9772 13.0344 31.0589 13.0024 31.0552C12.9782 31.0525 12.8235 31.0207 12.6593 30.9838C12.1636 30.8724 11.6033 30.8292 10.9724 30.8551C10.6536 30.8682 10.3199 30.8922 10.2304 30.9084L10.0666 30.9383L10.0263 30.6836C10.0041 30.5438 9.99158 30.4248 9.99777 30.4185C10.0039 30.412 10.158 30.386 10.3409 30.3613C10.5763 30.3295 10.9134 30.3149 11.2739 30.3145Z" fill="black"/>
<path d="M12.4839 28.577C12.2784 28.577 12.1317 28.7286 12.1317 28.9422C12.1317 29.2749 12.5058 29.4361 12.7321 29.2008C12.9584 28.9655 12.804 28.577 12.4839 28.577ZM12.4826 28.6628C12.6344 28.6568 12.7646 28.7749 12.7646 28.9461C12.7646 29.1464 12.5327 29.2862 12.3539 29.193C12.1627 29.0934 12.177 28.7732 12.376 28.6875C12.4097 28.6727 12.4458 28.6643 12.4826 28.6628V28.6628Z" fill="black"/>
<path d="M9.93673 23.5529C9.90666 23.5552 9.87855 23.5691 9.85807 23.5917C9.83758 23.6144 9.82623 23.6441 9.82629 23.675C9.82629 23.7075 9.83889 23.7386 9.86131 23.7616C9.88372 23.7845 9.91413 23.7974 9.94583 23.7974C9.97753 23.7974 10.0079 23.7845 10.0304 23.7616C10.0528 23.7386 10.0654 23.7075 10.0654 23.675C10.0654 23.6582 10.062 23.6414 10.0555 23.626C10.0489 23.6105 10.0392 23.5966 10.0272 23.5851C10.0151 23.5736 10.0008 23.5648 9.98524 23.5593C9.96968 23.5537 9.95316 23.5516 9.93673 23.5529ZM9.94454 23.5958C9.96543 23.5964 9.98526 23.605 9.99981 23.6198C10.0144 23.6346 10.0225 23.6544 10.0225 23.675C10.0227 23.6856 10.0209 23.6962 10.0169 23.706C10.013 23.7159 10.0071 23.7249 9.99959 23.7325C9.99208 23.74 9.98311 23.7461 9.97321 23.7502C9.96331 23.7543 9.95267 23.7564 9.94193 23.7564C9.93118 23.7564 9.92055 23.7543 9.91064 23.7502C9.90074 23.7461 9.89177 23.74 9.88427 23.7325C9.87676 23.7249 9.87087 23.7159 9.86693 23.706C9.863 23.6962 9.86111 23.6856 9.86137 23.675C9.86136 23.6644 9.86353 23.6539 9.86774 23.6441C9.87195 23.6343 9.87812 23.6254 9.88588 23.618C9.89365 23.6106 9.90284 23.6048 9.91292 23.601C9.92299 23.5972 9.93375 23.5954 9.94454 23.5958V23.5958Z" fill="black"/>
</g>
</svg>
